<svg width="40" height="40" viewBox="0 0 40 40" fill="none" xmlns="http://www.w3.org/2000/svg">
<path d="M12.991 28.0961C13.0678 28.0551 13.1344 27.9732 13.1805 27.8503V27.8452C13.2215 27.7479 13.242 27.6301 13.242 27.502C13.242 27.3279 13.2164 27.0974 13.0832 27.0155C12.9552 26.9284 12.7298 26.8874 12.4327 26.8874H11.8847V28.1729H12.5403C12.7861 28.1678 12.9193 28.1269 12.991 28.0961Z" fill="#86888C"/>
<path d="M7.46483 29.4687H8.32014L7.88992 27.7939L7.46483 29.4687Z" fill="#86888C"/>
<path d="M12.653 29.5302H11.8847V31.0308H12.6888C13.2112 31.0308 13.4366 30.8004 13.4366 30.2677C13.4366 29.9963 13.3751 29.8068 13.2573 29.6992C13.1293 29.5865 12.9244 29.5302 12.653 29.5302Z" fill="#86888C"/>
<path d="M24.0743 26.954C24.0487 26.9386 23.9258 26.8823 23.5314 26.8823H22.8707V28.2754H23.5058C23.7055 28.2754 23.8746 28.2498 24.0026 28.2037C24.1101 28.1627 24.1921 28.1013 24.2484 28.0091C24.3099 27.9118 24.3406 27.7632 24.3406 27.5686C24.3406 27.4201 24.315 27.2869 24.2638 27.1742C24.2177 27.0718 24.1511 27.0001 24.0743 26.954Z" fill="#86888C"/>
<path d="M37.959 24.0192C38.0307 22.7081 37.6517 21.5711 36.8732 20.7362C36.2945 20.1216 35.516 19.7119 34.6248 19.5378L23.1114 8.05506C23.347 7.58387 23.4904 7.06146 23.4904 6.49808C23.4904 4.56722 21.9232 3 19.9974 3C18.0717 3 16.5045 4.56722 16.5045 6.49808C16.5045 7.06146 16.653 7.58387 16.8886 8.05506L5.39053 19.5634C4.59667 19.7375 3.86428 20.1319 3.27017 20.7209C2.4507 21.5455 2 22.6364 2 23.799L2.03585 34.4264C1.96415 35.7375 2.34315 36.8694 3.12164 37.7042C3.89501 38.5288 5.03201 38.9898 6.32779 39L33.6569 38.9949C34.8195 38.9898 35.9053 38.5391 36.7247 37.7196C37.5442 36.9001 37.9949 35.8092 37.9949 34.6466L37.959 24.0192ZM19.9974 5.2023C20.7145 5.2023 21.2932 5.78617 21.2932 6.49808C21.2932 7.20999 20.7145 7.79385 19.9974 7.79385C19.2804 7.79385 18.7017 7.20999 18.7017 6.49808C18.7017 5.78617 19.2855 5.2023 19.9974 5.2023ZM18.4405 9.60691C18.9117 9.84251 19.4341 9.99104 19.9974 9.99104C20.5608 9.99104 21.0884 9.84251 21.5595 9.60691L31.4187 19.4405L8.61204 19.4456L18.4405 9.60691ZM10.0922 32.2753C9.9283 32.5058 9.73368 32.5519 9.60051 32.5519C9.48272 32.5519 9.38028 32.5211 9.29322 32.4597C9.21639 32.4033 9.14981 32.3316 9.09859 32.2394C9.05762 32.1626 9.01152 32.0551 8.96543 31.9065C8.92446 31.7734 8.88861 31.6556 8.85788 31.5531V31.548L8.67862 30.8771H7.11652L6.93726 31.5634C6.84507 31.9116 6.76825 32.1421 6.69654 32.2702C6.59923 32.4494 6.43022 32.5519 6.21511 32.5519C6.08707 32.5519 5.90269 32.5058 5.7388 32.2855C5.621 32.1268 5.56466 31.9475 5.56466 31.7478C5.56466 31.6453 5.5749 31.5378 5.60051 31.4251C5.621 31.3227 5.65685 31.1895 5.70807 31.0154L7.01409 26.3239C7.0653 26.1396 7.12164 25.9859 7.17798 25.863C7.24456 25.7196 7.33675 25.6069 7.4443 25.5147C7.56722 25.4174 7.72087 25.3662 7.89501 25.3662C8.07427 25.3662 8.22791 25.4174 8.35083 25.5147C8.46351 25.6018 8.55058 25.7196 8.61716 25.8528C8.6735 25.9706 8.72471 26.1037 8.76569 26.242C8.80154 26.37 8.85275 26.5442 8.90909 26.7542L10.1178 30.9795C10.2202 31.3227 10.2663 31.5685 10.2663 31.7375C10.2663 31.9321 10.2049 32.1114 10.0922 32.2753ZM14.5736 31.4405C14.4251 31.7682 14.2151 32.0192 13.959 32.178C13.7951 32.2753 13.6056 32.3419 13.4008 32.3828C13.2061 32.4187 12.9757 32.4392 12.7247 32.4392H11.3111C10.968 32.4392 10.7939 32.2855 10.7017 32.1524C10.589 31.9885 10.5378 31.7478 10.5378 31.42V26.4981C10.5378 26.1652 10.5941 25.9193 10.7119 25.7554C10.799 25.6274 10.9782 25.4789 11.3111 25.4789H12.8067C13.0423 25.4789 13.2522 25.4994 13.4264 25.5403C13.621 25.5864 13.7951 25.6786 13.9488 25.8067C14.0717 25.9142 14.1844 26.0474 14.2817 26.2061C14.3739 26.3649 14.4456 26.5391 14.4968 26.7286C14.5429 26.9181 14.5685 27.1178 14.5685 27.3227C14.5685 27.9168 14.3892 28.3931 14.0359 28.7311C14.5327 29.0691 14.7887 29.612 14.7887 30.3598C14.7887 30.7593 14.717 31.1229 14.5736 31.4405ZM16.5762 31.5378C16.5762 31.8502 16.525 32.0858 16.4123 32.2548C16.2535 32.4955 16.0435 32.5467 15.9001 32.5467C15.7567 32.5467 15.5519 32.4955 15.3931 32.2497C15.2804 32.0807 15.2292 31.8451 15.2292 31.5326V26.3752C15.2292 26.0627 15.2804 25.8323 15.3931 25.6633C15.5519 25.4174 15.7567 25.3662 15.9001 25.3662C16.0487 25.3662 16.2535 25.4174 16.4123 25.6581C16.525 25.8271 16.5762 26.0627 16.5762 26.3752V31.5378ZM21.0371 32.2138C20.9603 32.3163 20.8067 32.4392 20.5403 32.4392H17.9949C17.6517 32.4392 17.4776 32.2855 17.3854 32.1575C17.2727 31.9936 17.2164 31.7529 17.2164 31.42V26.4981C17.2164 26.283 17.2369 26.1088 17.2881 25.9654C17.3444 25.8015 17.4315 25.6735 17.5595 25.5967C17.6773 25.5198 17.8259 25.4789 18 25.4789H20.4738C20.7401 25.4789 20.8886 25.5967 20.9706 25.6991C21.073 25.8271 21.1242 25.9962 21.1242 26.1908C21.1242 26.3905 21.073 26.5595 20.9706 26.6876C20.8937 26.79 20.7452 26.9078 20.4738 26.9078H18.5685V28.1063H20.3099C20.5711 28.1063 20.7145 28.2241 20.7913 28.3214C20.8886 28.4494 20.9398 28.6133 20.9398 28.8079C20.9398 29.0026 20.8937 29.1665 20.7964 29.2945C20.7196 29.3969 20.5762 29.5198 20.3099 29.5198H18.5685V30.9744H20.5506C20.8169 30.9744 20.9654 31.0973 21.0474 31.1997C21.1498 31.3329 21.201 31.507 21.201 31.7119C21.1908 31.9116 21.1396 32.0807 21.0371 32.2138ZM29.0679 26.9846H28.2484V31.5378C28.2484 31.8553 28.1972 32.0909 28.0845 32.2599C27.9257 32.5006 27.7209 32.5519 27.5775 32.5519C27.4341 32.5519 27.2241 32.5006 27.0653 32.2599C26.9526 32.0909 26.9014 31.8553 26.9014 31.5429V26.9898H26.082C25.8515 26.9898 25.7081 26.9078 25.6159 26.8207C25.6671 27.0307 25.6927 27.2561 25.6927 27.4917C25.6927 28.0192 25.5852 28.4494 25.3649 28.7772C25.201 29.023 24.9706 29.2177 24.6837 29.356C24.7811 29.4635 24.8681 29.5864 24.9603 29.7298C25.114 29.9808 25.2574 30.2522 25.3803 30.5339C25.5032 30.8156 25.6005 31.0768 25.6671 31.3022C25.7644 31.6248 25.7747 31.7529 25.7747 31.8195C25.7747 31.9373 25.749 32.0499 25.6978 32.1626C25.6466 32.2804 25.5698 32.3726 25.4725 32.4443C25.37 32.5211 25.2522 32.557 25.1191 32.557C24.9603 32.557 24.822 32.5006 24.7094 32.3931C24.6223 32.306 24.5455 32.1985 24.484 32.0704C24.4328 31.9577 24.3611 31.8041 24.2689 31.589L23.895 30.7029C23.767 30.3905 23.6492 30.1498 23.5467 29.991C23.4392 29.8169 23.3521 29.7452 23.2958 29.7093C23.219 29.6632 23.1114 29.6428 22.9834 29.6428H22.8604V31.5429C22.8604 31.8656 22.8092 32.1012 22.6965 32.2702C22.5378 32.5109 22.3329 32.557 22.1895 32.557C21.9693 32.557 21.7849 32.4494 21.6671 32.2497C21.5647 32.0807 21.5134 31.8451 21.5134 31.5429V26.5032C21.5134 26.1703 21.5698 25.9296 21.6876 25.7657C21.7798 25.6376 21.9539 25.4891 22.2919 25.4891H23.8182C24.0384 25.4891 24.233 25.5045 24.3918 25.5301C24.5659 25.5608 24.7298 25.6223 24.8681 25.7145C25.0371 25.8169 25.1857 25.9603 25.3137 26.1447C25.3444 26.1908 25.37 26.2318 25.4008 26.283C25.4008 26.2727 25.4008 26.2625 25.4008 26.2522C25.4008 26.032 25.4571 25.8528 25.5698 25.7196C25.6517 25.6172 25.8105 25.4994 26.082 25.4994H29.0627C29.3444 25.4994 29.5032 25.6274 29.5852 25.7298C29.6927 25.8681 29.749 26.0423 29.749 26.2522C29.749 26.4622 29.6927 26.6415 29.5852 26.7746C29.5032 26.8566 29.3444 26.9846 29.0679 26.9846ZM34.3893 30.3752C34.2868 30.8105 34.1332 31.1946 33.9283 31.5173C33.7183 31.8502 33.452 32.1063 33.1447 32.2804C32.8323 32.4597 32.4738 32.5467 32.0743 32.5467C31.6799 32.5467 31.3163 32.4545 30.9987 32.2702C30.6863 32.0909 30.42 31.8297 30.21 31.5019C30.0051 31.1844 29.8515 30.7951 29.749 30.3547C29.6466 29.9193 29.5954 29.443 29.5954 28.936C29.5954 28.4187 29.6466 27.9373 29.7542 27.5019C29.8617 27.0615 30.0205 26.6773 30.2254 26.3649C30.4353 26.0423 30.6965 25.7964 31.0038 25.6223C31.3111 25.4481 31.6645 25.3611 32.0538 25.3611C32.5813 25.3611 33.0371 25.5147 33.4161 25.8169C33.79 26.114 34.0717 26.5442 34.2612 27.0871C34.4456 27.6146 34.5378 28.2394 34.5378 28.9462C34.5429 29.4686 34.4917 29.9501 34.3893 30.3752Z" fill="#86888C"/>
<path d="M32.6171 27.0513C32.4532 26.9028 32.2689 26.8311 32.0537 26.8311C31.9052 26.8311 31.7721 26.8721 31.644 26.9489C31.5109 27.0308 31.3982 27.1537 31.3009 27.3176C31.1984 27.4866 31.1165 27.712 31.055 27.9886C30.9936 28.2703 30.9628 28.5878 30.9628 28.9412C30.9628 29.2946 30.9936 29.6224 31.055 29.9092C31.1165 30.1858 31.2036 30.4162 31.3111 30.5955C31.4135 30.7645 31.5313 30.8925 31.6594 30.9745C31.7823 31.0513 31.9155 31.0923 32.0691 31.0923C32.2586 31.0923 32.4328 31.0257 32.5966 30.8874C32.7657 30.744 32.9091 30.5084 33.0166 30.1909C33.1293 29.858 33.1856 29.4431 33.1856 28.9463C33.1856 28.4905 33.1344 28.091 33.032 27.7581C32.9296 27.4406 32.7913 27.205 32.6171 27.0513Z" fill="#86888C"/>
</svg>
