<svg width="24" height="24" viewBox="0 0 24 24" fill="none" xmlns="http://www.w3.org/2000/svg">
<path d="M9.10611 15.9423C9.1488 15.9195 9.18578 15.874 9.21139 15.8057V15.8029C9.23416 15.7488 9.24554 15.6834 9.24554 15.6122C9.24554 15.5155 9.23131 15.3874 9.15733 15.3419C9.0862 15.2935 8.961 15.2708 8.79597 15.2708H8.49152V15.985H8.85572C8.9923 15.9821 9.06628 15.9594 9.10611 15.9423Z" fill="#86888C"/>
<path d="M6.03601 16.7048H6.51119L6.27218 15.7744L6.03601 16.7048Z" fill="#86888C"/>
<path d="M8.91832 16.739H8.49152V17.5727H8.93824C9.22846 17.5727 9.35366 17.4446 9.35366 17.1487C9.35366 16.9979 9.31952 16.8926 9.25407 16.8329C9.18294 16.7703 9.06912 16.739 8.91832 16.739Z" fill="#86888C"/>
<path d="M15.2635 15.3078C15.2493 15.2992 15.181 15.2679 14.9619 15.2679H14.5948V16.0419H14.9477C15.0586 16.0419 15.1525 16.0277 15.2237 16.002C15.2834 15.9793 15.3289 15.9451 15.3602 15.8939C15.3944 15.8399 15.4115 15.7573 15.4115 15.6492C15.4115 15.5667 15.3972 15.4927 15.3688 15.4301C15.3432 15.3732 15.3062 15.3334 15.2635 15.3078Z" fill="#86888C"/>
<path d="M22.9772 13.6773C23.0171 12.9489 22.8065 12.3173 22.374 11.8535C22.0525 11.512 21.62 11.2844 21.1249 11.1877L14.7286 4.80837C14.8594 4.54659 14.9391 4.25637 14.9391 3.94338C14.9391 2.87068 14.0684 2 12.9986 2C11.9287 2 11.058 2.87068 11.058 3.94338C11.058 4.25637 11.1406 4.54659 11.2714 4.80837L4.88363 11.2019C4.4426 11.2986 4.03571 11.5177 3.70565 11.8449C3.25039 12.303 3 12.9091 3 13.555L3.01992 19.4591C2.98008 20.1875 3.19064 20.8163 3.62313 21.2801C4.05278 21.7382 4.68445 21.9943 5.40433 22L20.5871 21.9972C21.233 21.9943 21.8363 21.7439 22.2915 21.2887C22.7468 20.8334 22.9972 20.2273 22.9972 19.5814L22.9772 13.6773ZM12.9986 3.2235C13.3969 3.2235 13.7185 3.54787 13.7185 3.94338C13.7185 4.33888 13.3969 4.66325 12.9986 4.66325C12.6002 4.66325 12.2787 4.33888 12.2787 3.94338C12.2787 3.54787 12.6031 3.2235 12.9986 3.2235ZM12.1336 5.67051C12.3954 5.80139 12.6856 5.88391 12.9986 5.88391C13.3116 5.88391 13.6046 5.80139 13.8664 5.67051L19.3437 11.1336L6.67335 11.1364L12.1336 5.67051ZM7.49566 18.264C7.40461 18.3921 7.29649 18.4177 7.22251 18.4177C7.15706 18.4177 7.10016 18.4006 7.05179 18.3665C7.00911 18.3352 6.97212 18.2953 6.94366 18.2441C6.9209 18.2015 6.89529 18.1417 6.86968 18.0592C6.84692 17.9852 6.827 17.9198 6.80993 17.8629V17.86L6.71034 17.4873H5.84251L5.74292 17.8685C5.69171 18.062 5.64903 18.1901 5.60919 18.2612C5.55513 18.3608 5.46123 18.4177 5.34173 18.4177C5.27059 18.4177 5.16816 18.3921 5.07711 18.2697C5.01167 18.1815 4.98037 18.0819 4.98037 17.971C4.98037 17.9141 4.98606 17.8543 5.00029 17.7917C5.01167 17.7348 5.03158 17.6608 5.06004 17.5641L5.7856 14.9577C5.81406 14.8553 5.84536 14.77 5.87665 14.7017C5.91364 14.622 5.96486 14.5594 6.02461 14.5082C6.0929 14.4541 6.17826 14.4257 6.275 14.4257C6.37459 14.4257 6.45995 14.4541 6.52824 14.5082C6.59084 14.5566 6.63921 14.622 6.6762 14.696C6.7075 14.7614 6.73595 14.8354 6.75871 14.9122C6.77863 14.9834 6.80709 15.0801 6.83838 15.1968L7.50989 17.5442C7.5668 17.7348 7.5924 17.8714 7.5924 17.9653C7.5924 18.0734 7.55826 18.173 7.49566 18.264ZM9.98535 17.8003C9.90283 17.9824 9.78617 18.1218 9.64391 18.21C9.55285 18.264 9.44758 18.301 9.33376 18.3238C9.22564 18.3437 9.0976 18.3551 8.95817 18.3551H8.17286C7.98222 18.3551 7.88548 18.2697 7.83426 18.1958C7.77166 18.1047 7.74321 17.971 7.74321 17.7889V15.0545C7.74321 14.8695 7.77451 14.733 7.83995 14.6419C7.88832 14.5708 7.98791 14.4883 8.17286 14.4883H9.0037C9.13459 14.4883 9.25125 14.4996 9.34799 14.5224C9.45611 14.548 9.55285 14.5992 9.63821 14.6704C9.7065 14.7301 9.7691 14.8041 9.82316 14.8923C9.87438 14.9805 9.91421 15.0773 9.94267 15.1825C9.96828 15.2878 9.9825 15.3988 9.9825 15.5126C9.9825 15.8427 9.88292 16.1073 9.68659 16.2951C9.96258 16.4829 10.1049 16.7845 10.1049 17.1999C10.1049 17.4218 10.065 17.6238 9.98535 17.8003ZM11.0979 17.8543C11.0979 18.0279 11.0694 18.1588 11.0068 18.2527C10.9186 18.3864 10.802 18.4149 10.7223 18.4149C10.6426 18.4149 10.5288 18.3864 10.4406 18.2498C10.378 18.1559 10.3496 18.025 10.3496 17.8515V14.9862C10.3496 14.8126 10.378 14.6846 10.4406 14.5907C10.5288 14.4541 10.6426 14.4257 10.7223 14.4257C10.8048 14.4257 10.9186 14.4541 11.0068 14.5878C11.0694 14.6817 11.0979 14.8126 11.0979 14.9862V17.8543ZM13.5762 18.2299C13.5335 18.2868 13.4481 18.3551 13.3002 18.3551H11.886C11.6954 18.3551 11.5987 18.2697 11.5474 18.1986C11.4848 18.1076 11.4536 17.9738 11.4536 17.7889V15.0545C11.4536 14.935 11.4649 14.8382 11.4934 14.7586C11.5247 14.6675 11.5731 14.5964 11.6442 14.5537C11.7096 14.511 11.7921 14.4883 11.8889 14.4883H13.2632C13.4112 14.4883 13.4937 14.5537 13.5392 14.6106C13.5961 14.6817 13.6246 14.7756 13.6246 14.8838C13.6246 14.9947 13.5961 15.0886 13.5392 15.1598C13.4965 15.2167 13.414 15.2821 13.2632 15.2821H12.2047V15.9479H13.1721C13.3173 15.9479 13.3969 16.0134 13.4396 16.0674C13.4937 16.1386 13.5221 16.2296 13.5221 16.3377C13.5221 16.4459 13.4965 16.5369 13.4425 16.6081C13.3998 16.665 13.3201 16.7332 13.1721 16.7332H12.2047V17.5413H13.3059C13.4538 17.5413 13.5364 17.6096 13.5819 17.6665C13.6388 17.7405 13.6672 17.8372 13.6672 17.9511C13.6615 18.062 13.6331 18.1559 13.5762 18.2299ZM18.0377 15.3248H17.5824V17.8543C17.5824 18.0307 17.554 18.1616 17.4914 18.2555C17.4032 18.3892 17.2894 18.4177 17.2097 18.4177C17.13 18.4177 17.0134 18.3892 16.9252 18.2555C16.8626 18.1616 16.8341 18.0307 16.8341 17.8572V15.3276H16.3789C16.2508 15.3276 16.1712 15.2821 16.1199 15.2337C16.1484 15.3504 16.1626 15.4756 16.1626 15.6065C16.1626 15.8996 16.1029 16.1386 15.9805 16.3207C15.8895 16.4572 15.7614 16.5654 15.6021 16.6422C15.6561 16.7019 15.7045 16.7702 15.7557 16.8499C15.8411 16.9893 15.9208 17.1401 15.989 17.2966C16.0573 17.4531 16.1114 17.5982 16.1484 17.7234C16.2024 17.9027 16.2081 17.9738 16.2081 18.0108C16.2081 18.0763 16.1939 18.1389 16.1655 18.2015C16.137 18.2669 16.0943 18.3181 16.0403 18.3579C15.9834 18.4006 15.9179 18.4205 15.8439 18.4205C15.7557 18.4205 15.6789 18.3892 15.6163 18.3295C15.5679 18.2811 15.5253 18.2214 15.4911 18.1502C15.4627 18.0876 15.4228 18.0023 15.3716 17.8828L15.1639 17.3905C15.0928 17.217 15.0273 17.0832 14.9704 16.995C14.9107 16.8983 14.8623 16.8584 14.831 16.8385C14.7883 16.8129 14.7286 16.8015 14.6574 16.8015H14.5891V17.8572C14.5891 18.0364 14.5607 18.1673 14.4981 18.2612C14.4099 18.3949 14.2961 18.4205 14.2164 18.4205C14.094 18.4205 13.9916 18.3608 13.9262 18.2498C13.8693 18.1559 13.8408 18.025 13.8408 17.8572V15.0573C13.8408 14.8724 13.8721 14.7387 13.9375 14.6476C13.9888 14.5765 14.0855 14.494 14.2733 14.494H15.1212C15.2436 14.494 15.3517 14.5025 15.4399 14.5167C15.5366 14.5338 15.6277 14.5679 15.7045 14.6191C15.7984 14.6761 15.8809 14.7557 15.9521 14.8582C15.9691 14.8838 15.9834 14.9065 16.0004 14.935C16.0004 14.9293 16.0004 14.9236 16.0004 14.9179C16.0004 14.7956 16.0317 14.696 16.0943 14.622C16.1399 14.5651 16.2281 14.4996 16.3789 14.4996H18.0349C18.1914 14.4996 18.2796 14.5708 18.3251 14.6277C18.3848 14.7045 18.4161 14.8013 18.4161 14.9179C18.4161 15.0346 18.3848 15.1342 18.3251 15.2081C18.2796 15.2537 18.1914 15.3248 18.0377 15.3248ZM20.994 17.2084C20.9371 17.4503 20.8518 17.6637 20.7379 17.8429C20.6213 18.0279 20.4733 18.1702 20.3026 18.2669C20.129 18.3665 19.9299 18.4149 19.7079 18.4149C19.4888 18.4149 19.2868 18.3636 19.1104 18.2612C18.9368 18.1616 18.7889 18.0165 18.6722 17.8344C18.5584 17.658 18.473 17.4417 18.4161 17.197C18.3592 16.9552 18.3308 16.6906 18.3308 16.4089C18.3308 16.1215 18.3592 15.854 18.419 15.6122C18.4787 15.3675 18.5669 15.1541 18.6808 14.9805C18.7974 14.8013 18.9425 14.6647 19.1132 14.5679C19.284 14.4712 19.4803 14.4228 19.6965 14.4228C19.9896 14.4228 20.2429 14.5082 20.4534 14.6761C20.6611 14.8411 20.8176 15.0801 20.9229 15.3817C21.0253 15.6748 21.0765 16.0219 21.0765 16.4146C21.0794 16.7048 21.0509 16.9723 20.994 17.2084Z" fill="#86888C"/>
<path d="M20.0095 15.3618C19.9185 15.2793 19.816 15.2395 19.6965 15.2395C19.614 15.2395 19.54 15.2623 19.4689 15.3049C19.3949 15.3505 19.3323 15.4187 19.2783 15.5098C19.2214 15.6037 19.1758 15.7289 19.1417 15.8825C19.1075 16.039 19.0905 16.2154 19.0905 16.4118C19.0905 16.6081 19.1075 16.7902 19.1417 16.9495C19.1758 17.1032 19.2242 17.2312 19.284 17.3308C19.3409 17.4247 19.4063 17.4959 19.4774 17.5414C19.5457 17.5841 19.6197 17.6068 19.7051 17.6068C19.8103 17.6068 19.9071 17.5698 19.9981 17.493C20.092 17.4133 20.1717 17.2825 20.2315 17.106C20.2941 16.9211 20.3253 16.6906 20.3253 16.4146C20.3253 16.1614 20.2969 15.9394 20.24 15.7545C20.1831 15.5781 20.1063 15.4472 20.0095 15.3618Z" fill="#86888C"/>
</svg>
