<svg width="20" height="20" viewBox="0 0 20 20" fill="none" xmlns="http://www.w3.org/2000/svg">
<path d="M6.88489 13.1538C6.91904 13.1356 6.94863 13.0992 6.96911 13.0446V13.0423C6.98732 12.999 6.99643 12.9467 6.99643 12.8898C6.99643 12.8124 6.98505 12.71 6.92586 12.6735C6.86896 12.6348 6.7688 12.6166 6.63678 12.6166H6.39321V13.188H6.68458C6.79384 13.1857 6.85302 13.1675 6.88489 13.1538Z" fill="#86888C"/>
<path d="M4.42881 13.7639H4.80895L4.61774 13.0195L4.42881 13.7639Z" fill="#86888C"/>
<path d="M6.73466 13.7912H6.39321V14.4581H6.75059C6.98277 14.4581 7.08293 14.3557 7.08293 14.119C7.08293 13.9983 7.05561 13.9141 7.00326 13.8663C6.94635 13.8162 6.8553 13.7912 6.73466 13.7912Z" fill="#86888C"/>
<path d="M11.8108 12.6462C11.7994 12.6394 11.7448 12.6144 11.5695 12.6144H11.2759V13.2335H11.5581C11.6469 13.2335 11.722 13.2221 11.7789 13.2016C11.8267 13.1834 11.8632 13.1561 11.8882 13.1151C11.9155 13.0719 11.9292 13.0059 11.9292 12.9194C11.9292 12.8534 11.9178 12.7942 11.895 12.7441C11.8745 12.6986 11.8449 12.6667 11.8108 12.6462Z" fill="#86888C"/>
<path d="M17.9818 11.3419C18.0137 10.7591 17.8452 10.2538 17.4992 9.88277C17.242 9.60962 16.896 9.42751 16.4999 9.35012L11.3828 4.24669C11.4876 4.03727 11.5513 3.80509 11.5513 3.5547C11.5513 2.69654 10.8547 2 9.99886 2C9.14298 2 8.44644 2.69654 8.44644 3.5547C8.44644 3.80509 8.51245 4.03727 8.61716 4.24669L3.5069 9.3615C3.15408 9.4389 2.82857 9.61417 2.56452 9.87594C2.20031 10.2424 2 10.7273 2 11.244L2.01593 15.9673C1.98407 16.55 2.15251 17.0531 2.49851 17.4241C2.84223 17.7906 3.34756 17.9954 3.92346 18L16.0697 17.9977C16.5864 17.9954 17.069 17.7951 17.4332 17.4309C17.7974 17.0667 17.9977 16.5819 17.9977 16.0652L17.9818 11.3419ZM9.99886 2.9788C10.3175 2.9788 10.5748 3.2383 10.5748 3.5547C10.5748 3.87111 10.3175 4.1306 9.99886 4.1306C9.68018 4.1306 9.42296 3.87111 9.42296 3.5547C9.42296 3.2383 9.68246 2.9788 9.99886 2.9788ZM9.30687 4.93641C9.51629 5.04112 9.74847 5.10713 9.99886 5.10713C10.2493 5.10713 10.4837 5.04112 10.6931 4.93641L15.075 9.30687L4.93868 9.30915L9.30687 4.93641ZM5.59653 15.0112C5.52369 15.1137 5.43719 15.1342 5.37801 15.1342C5.32565 15.1342 5.28013 15.1205 5.24143 15.0932C5.20728 15.0681 5.17769 15.0363 5.15493 14.9953C5.13672 14.9612 5.11623 14.9134 5.09575 14.8473C5.07754 14.7882 5.0616 14.7358 5.04794 14.6903V14.688L4.96827 14.3898H4.27401L4.19434 14.6948C4.15337 14.8496 4.11922 14.9521 4.08735 15.009C4.0441 15.0886 3.96899 15.1342 3.87338 15.1342C3.81648 15.1342 3.73453 15.1137 3.66169 15.0158C3.60933 14.9452 3.58429 14.8656 3.58429 14.7768C3.58429 14.7313 3.58885 14.6835 3.60023 14.6334C3.60933 14.5878 3.62527 14.5287 3.64803 14.4513L4.22848 12.3662C4.25125 12.2843 4.27628 12.216 4.30132 12.1613C4.33092 12.0976 4.37189 12.0475 4.41969 12.0065C4.47432 11.9633 4.54261 11.9405 4.62 11.9405C4.69967 11.9405 4.76796 11.9633 4.82259 12.0065C4.87267 12.0452 4.91137 12.0976 4.94096 12.1568C4.966 12.2091 4.98876 12.2683 5.00697 12.3298C5.02291 12.3867 5.04567 12.4641 5.07071 12.5574L5.60791 14.4353C5.65344 14.5878 5.67392 14.6971 5.67392 14.7722C5.67392 14.8587 5.64661 14.9384 5.59653 15.0112ZM7.58828 14.6402C7.52227 14.7859 7.42894 14.8974 7.31512 14.968C7.24228 15.0112 7.15806 15.0408 7.06701 15.059C6.98051 15.075 6.87808 15.0841 6.76654 15.0841H6.13829C5.98577 15.0841 5.90838 15.0158 5.86741 14.9566C5.81733 14.8838 5.79457 14.7768 5.79457 14.6311V12.4436C5.79457 12.2956 5.81961 12.1864 5.87196 12.1135C5.91066 12.0566 5.99033 11.9906 6.13829 11.9906H6.80296C6.90767 11.9906 7.001 11.9997 7.07839 12.0179C7.16489 12.0384 7.24228 12.0794 7.31057 12.1363C7.3652 12.1841 7.41528 12.2433 7.45853 12.3138C7.4995 12.3844 7.53137 12.4618 7.55413 12.546C7.57462 12.6302 7.586 12.719 7.586 12.8101C7.586 13.0741 7.50633 13.2858 7.34927 13.4361C7.57007 13.5863 7.68388 13.8276 7.68388 14.1599C7.68388 14.3375 7.65201 14.4991 7.58828 14.6402ZM8.47831 14.6835C8.47831 14.8223 8.45554 14.927 8.40546 15.0021C8.3349 15.1091 8.24157 15.1319 8.17784 15.1319C8.1141 15.1319 8.02305 15.1091 7.95248 14.9999C7.90241 14.9247 7.87964 14.82 7.87964 14.6812V12.389C7.87964 12.2501 7.90241 12.1477 7.95248 12.0726C8.02305 11.9633 8.1141 11.9405 8.17784 11.9405C8.24385 11.9405 8.3349 11.9633 8.40546 12.0703C8.45554 12.1454 8.47831 12.2501 8.47831 12.389V14.6835ZM10.4609 14.9839C10.4268 15.0294 10.3585 15.0841 10.2401 15.0841H9.10884C8.95633 15.0841 8.87893 15.0158 8.83796 14.9589C8.78788 14.886 8.76284 14.7791 8.76284 14.6311V12.4436C8.76284 12.348 8.77195 12.2706 8.79471 12.2069C8.81975 12.134 8.85844 12.0771 8.91535 12.043C8.96771 12.0088 9.03372 11.9906 9.11111 11.9906H10.2106C10.3289 11.9906 10.3949 12.043 10.4314 12.0885C10.4769 12.1454 10.4996 12.2205 10.4996 12.307C10.4996 12.3958 10.4769 12.4709 10.4314 12.5278C10.3972 12.5733 10.3312 12.6257 10.2106 12.6257H9.36378V13.1583H10.1377C10.2538 13.1583 10.3175 13.2107 10.3517 13.2539C10.3949 13.3109 10.4177 13.3837 10.4177 13.4702C10.4177 13.5567 10.3972 13.6295 10.354 13.6864C10.3198 13.732 10.2561 13.7866 10.1377 13.7866H9.36378V14.4331H10.2447C10.3631 14.4331 10.4291 14.4877 10.4655 14.5332C10.511 14.5924 10.5338 14.6698 10.5338 14.7608C10.5292 14.8496 10.5065 14.9247 10.4609 14.9839ZM14.0302 12.6598H13.666V14.6835C13.666 14.8246 13.6432 14.9293 13.5931 15.0044C13.5226 15.1114 13.4315 15.1342 13.3678 15.1342C13.304 15.1342 13.2107 15.1114 13.1401 15.0044C13.0901 14.9293 13.0673 14.8246 13.0673 14.6857V12.6621H12.7031C12.6007 12.6621 12.5369 12.6257 12.4959 12.587C12.5187 12.6803 12.5301 12.7805 12.5301 12.8852C12.5301 13.1196 12.4823 13.3109 12.3844 13.4565C12.3116 13.5658 12.2091 13.6523 12.0817 13.7138C12.1249 13.7616 12.1636 13.8162 12.2046 13.8799C12.2729 13.9915 12.3366 14.1121 12.3912 14.2373C12.4459 14.3625 12.4891 14.4786 12.5187 14.5787C12.562 14.7222 12.5665 14.7791 12.5665 14.8086C12.5665 14.861 12.5551 14.9111 12.5324 14.9612C12.5096 15.0135 12.4755 15.0545 12.4322 15.0864C12.3867 15.1205 12.3343 15.1364 12.2751 15.1364C12.2046 15.1364 12.1431 15.1114 12.093 15.0636C12.0543 15.0249 12.0202 14.9771 11.9929 14.9202C11.9701 14.8701 11.9383 14.8018 11.8973 14.7062L11.7311 14.3124C11.6742 14.1736 11.6219 14.0666 11.5763 13.996C11.5285 13.9186 11.4898 13.8868 11.4648 13.8708C11.4306 13.8503 11.3828 13.8412 11.3259 13.8412H11.2713V14.6857C11.2713 14.8291 11.2485 14.9338 11.1985 15.009C11.1279 15.1159 11.0368 15.1364 10.9731 15.1364C10.8752 15.1364 10.7933 15.0886 10.7409 14.9999C10.6954 14.9247 10.6726 14.82 10.6726 14.6857V12.4459C10.6726 12.2979 10.6977 12.1909 10.75 12.1181C10.791 12.0612 10.8684 11.9952 11.0186 11.9952H11.697C11.7949 11.9952 11.8814 12.002 11.9519 12.0134C12.0293 12.027 12.1021 12.0543 12.1636 12.0953C12.2387 12.1408 12.3047 12.2046 12.3616 12.2865C12.3753 12.307 12.3867 12.3252 12.4003 12.348C12.4003 12.3434 12.4003 12.3389 12.4003 12.3343C12.4003 12.2364 12.4254 12.1568 12.4755 12.0976C12.5119 12.0521 12.5824 11.9997 12.7031 11.9997H14.0279C14.1531 11.9997 14.2236 12.0566 14.2601 12.1021C14.3079 12.1636 14.3329 12.241 14.3329 12.3343C14.3329 12.4277 14.3079 12.5073 14.2601 12.5665C14.2236 12.6029 14.1531 12.6598 14.0302 12.6598ZM16.3952 14.1667C16.3497 14.3602 16.2814 14.5309 16.1904 14.6743C16.097 14.8223 15.9787 14.9361 15.8421 15.0135C15.7032 15.0932 15.5439 15.1319 15.3663 15.1319C15.1911 15.1319 15.0295 15.0909 14.8883 15.009C14.7495 14.9293 14.6311 14.8132 14.5378 14.6675C14.4467 14.5264 14.3784 14.3534 14.3329 14.1576C14.2874 13.9641 14.2646 13.7525 14.2646 13.5271C14.2646 13.2972 14.2874 13.0832 14.3352 12.8897C14.383 12.694 14.4536 12.5233 14.5446 12.3844C14.6379 12.241 14.754 12.1317 14.8906 12.0543C15.0272 11.977 15.1842 11.9383 15.3572 11.9383C15.5917 11.9383 15.7943 12.0065 15.9627 12.1408C16.1289 12.2729 16.2541 12.4641 16.3383 12.7054C16.4203 12.9398 16.4612 13.2175 16.4612 13.5317C16.4635 13.7638 16.4407 13.9778 16.3952 14.1667Z" fill="#86888C"/>
<path d="M15.6076 12.6895C15.5348 12.6235 15.4528 12.5916 15.3572 12.5916C15.2912 12.5916 15.232 12.6098 15.1751 12.6439C15.1159 12.6804 15.0659 12.735 15.0226 12.8078C14.9771 12.883 14.9407 12.9831 14.9133 13.106C14.886 13.2312 14.8724 13.3724 14.8724 13.5294C14.8724 13.6865 14.886 13.8322 14.9133 13.9596C14.9407 14.0826 14.9794 14.185 15.0272 14.2647C15.0727 14.3398 15.125 14.3967 15.1819 14.4331C15.2366 14.4672 15.2958 14.4855 15.3641 14.4855C15.4483 14.4855 15.5257 14.4559 15.5985 14.3944C15.6736 14.3307 15.7374 14.226 15.7852 14.0848C15.8352 13.9369 15.8603 13.7525 15.8603 13.5317C15.8603 13.3291 15.8375 13.1516 15.792 13.0036C15.7465 12.8625 15.685 12.7578 15.6076 12.6895Z" fill="#86888C"/>
</svg>
