<svg width="28" height="28" viewBox="0 0 28 28" fill="none" xmlns="http://www.w3.org/2000/svg">
<path d="M9.32734 18.7307C9.37855 18.7034 9.42294 18.6488 9.45367 18.5669V18.5634C9.48099 18.4986 9.49464 18.42 9.49464 18.3347C9.49464 18.2186 9.47757 18.0649 9.3888 18.0103C9.30344 17.9523 9.1532 17.9249 8.95516 17.9249H8.58982V18.782H9.02687C9.19076 18.7785 9.27954 18.7512 9.32734 18.7307Z" fill="#86888C"/>
<path d="M5.64322 19.6458H6.21343L5.92661 18.5293L5.64322 19.6458Z" fill="#86888C"/>
<path d="M9.10198 19.6868H8.58982V20.6872H9.12589C9.47416 20.6872 9.62439 20.5336 9.62439 20.1785C9.62439 19.9975 9.58342 19.8712 9.50489 19.7995C9.41953 19.7244 9.28295 19.6868 9.10198 19.6868Z" fill="#86888C"/>
<path d="M16.7162 17.9693C16.6991 17.9591 16.6172 17.9215 16.3543 17.9215H15.9138V18.8503H16.3372C16.4704 18.8503 16.583 18.8332 16.6684 18.8025C16.7401 18.7751 16.7947 18.7342 16.8323 18.6727C16.8733 18.6078 16.8937 18.5088 16.8937 18.3791C16.8937 18.2801 16.8767 18.1913 16.8425 18.1162C16.8118 18.0479 16.7674 18.0001 16.7162 17.9693Z" fill="#86888C"/>
<path d="M25.9727 16.0128C26.0205 15.1387 25.7678 14.3807 25.2488 13.8242C24.863 13.4144 24.344 13.1413 23.7499 13.0252L16.0743 5.37004C16.2313 5.05591 16.3269 4.70764 16.3269 4.33205C16.3269 3.04481 15.2821 2 13.9983 2C12.7145 2 11.6697 3.04481 11.6697 4.33205C11.6697 4.70764 11.7687 5.05591 11.9257 5.37004L4.26035 13.0423C3.73111 13.1583 3.24285 13.4213 2.84678 13.8139C2.30047 14.3636 2 15.0909 2 15.866L2.0239 22.9509C1.9761 23.825 2.22877 24.5796 2.74776 25.1362C3.26334 25.6859 4.02134 25.9932 4.88519 26L23.1046 25.9966C23.8796 25.9932 24.6035 25.6927 25.1498 25.1464C25.6961 24.6001 25.9966 23.8728 25.9966 23.0977L25.9727 16.0128ZM13.9983 3.4682C14.4763 3.4682 14.8621 3.85745 14.8621 4.33205C14.8621 4.80666 14.4763 5.1959 13.9983 5.1959C13.5203 5.1959 13.1344 4.80666 13.1344 4.33205C13.1344 3.85745 13.5237 3.4682 13.9983 3.4682ZM12.9603 6.40461C13.2744 6.56167 13.6227 6.66069 13.9983 6.66069C14.3739 6.66069 14.7256 6.56167 15.0397 6.40461L21.6125 12.9603L6.40802 12.9637L12.9603 6.40461ZM7.39479 21.5169C7.28553 21.6705 7.15578 21.7012 7.06701 21.7012C6.98848 21.7012 6.92019 21.6807 6.86214 21.6398C6.81093 21.6022 6.76654 21.5544 6.7324 21.493C6.70508 21.4417 6.67435 21.37 6.64362 21.271C6.6163 21.1822 6.5924 21.1037 6.57192 21.0354V21.032L6.45241 20.5847H5.41101L5.29151 21.0423C5.23005 21.2744 5.17883 21.4281 5.13103 21.5134C5.06615 21.6329 4.95348 21.7012 4.81007 21.7012C4.72471 21.7012 4.60179 21.6705 4.49253 21.5237C4.414 21.4178 4.37644 21.2983 4.37644 21.1652C4.37644 21.0969 4.38327 21.0252 4.40034 20.9501C4.414 20.8818 4.4379 20.793 4.47204 20.6769L5.34272 17.5493C5.37687 17.4264 5.41443 17.3239 5.45198 17.242C5.49637 17.1464 5.55783 17.0713 5.62954 17.0098C5.71148 16.9449 5.81391 16.9108 5.93 16.9108C6.04951 16.9108 6.15194 16.9449 6.23389 17.0098C6.30901 17.0679 6.36705 17.1464 6.41144 17.2352C6.449 17.3137 6.48314 17.4025 6.51046 17.4947C6.53436 17.58 6.5685 17.6961 6.60606 17.8361L7.41187 20.653C7.48015 20.8818 7.51088 21.0457 7.51088 21.1583C7.51088 21.2881 7.46991 21.4076 7.39479 21.5169ZM10.3824 20.9603C10.2834 21.1788 10.1434 21.3461 9.97269 21.452C9.86342 21.5169 9.73709 21.5612 9.60051 21.5886C9.47077 21.6125 9.31712 21.6261 9.14981 21.6261H8.20743C7.97866 21.6261 7.86257 21.5237 7.80111 21.4349C7.72599 21.3256 7.69185 21.1652 7.69185 20.9466V17.6654C7.69185 17.4434 7.72941 17.2796 7.80794 17.1703C7.86598 17.0849 7.98549 16.9859 8.20743 16.9859H9.20444C9.3615 16.9859 9.50149 16.9996 9.61759 17.0269C9.74733 17.0576 9.86342 17.1191 9.96586 17.2044C10.0478 17.2761 10.1229 17.3649 10.1878 17.4708C10.2493 17.5766 10.2971 17.6927 10.3312 17.819C10.3619 17.9454 10.379 18.0785 10.379 18.2151C10.379 18.6112 10.2595 18.9287 10.0239 19.1541C10.3551 19.3794 10.5258 19.7414 10.5258 20.2399C10.5258 20.5062 10.478 20.7486 10.3824 20.9603ZM11.7175 21.0252C11.7175 21.2335 11.6833 21.3905 11.6082 21.5032C11.5023 21.6637 11.3624 21.6978 11.2668 21.6978C11.1711 21.6978 11.0346 21.6637 10.9287 21.4998C10.8536 21.3871 10.8195 21.23 10.8195 21.0218V17.5834C10.8195 17.3752 10.8536 17.2215 10.9287 17.1088C11.0346 16.9449 11.1711 16.9108 11.2668 16.9108C11.3658 16.9108 11.5023 16.9449 11.6082 17.1054C11.6833 17.2181 11.7175 17.3752 11.7175 17.5834V21.0252ZM14.6914 21.4759C14.6402 21.5442 14.5378 21.6261 14.3602 21.6261H12.6633C12.4345 21.6261 12.3184 21.5237 12.2569 21.4383C12.1818 21.3291 12.1443 21.1686 12.1443 20.9466V17.6654C12.1443 17.522 12.1579 17.4059 12.1921 17.3103C12.2296 17.201 12.2877 17.1157 12.373 17.0644C12.4516 17.0132 12.5506 16.9859 12.6667 16.9859H14.3158C14.4934 16.9859 14.5924 17.0644 14.647 17.1327C14.7153 17.2181 14.7495 17.3308 14.7495 17.4605C14.7495 17.5937 14.7153 17.7064 14.647 17.7917C14.5958 17.86 14.4968 17.9385 14.3158 17.9385H13.0457V18.7375H14.2066C14.3807 18.7375 14.4763 18.816 14.5275 18.8809C14.5924 18.9663 14.6265 19.0755 14.6265 19.2053C14.6265 19.335 14.5958 19.4443 14.5309 19.5297C14.4797 19.5979 14.3841 19.6799 14.2066 19.6799H13.0457V20.6496H14.3671C14.5446 20.6496 14.6436 20.7315 14.6983 20.7998C14.7665 20.8886 14.8007 21.0047 14.8007 21.1413C14.7939 21.2744 14.7597 21.3871 14.6914 21.4759ZM20.0452 17.9898H19.4989V21.0252C19.4989 21.2369 19.4648 21.3939 19.3897 21.5066C19.2838 21.6671 19.1472 21.7012 19.0516 21.7012C18.956 21.7012 18.816 21.6671 18.7102 21.5066C18.6351 21.3939 18.6009 21.2369 18.6009 21.0286V17.9932H18.0546C17.901 17.9932 17.8054 17.9385 17.7439 17.8805C17.7781 18.0205 17.7951 18.1707 17.7951 18.3278C17.7951 18.6795 17.7234 18.9663 17.5766 19.1848C17.4674 19.3487 17.3137 19.4784 17.1225 19.5706C17.1874 19.6423 17.2454 19.7243 17.3069 19.8199C17.4093 19.9872 17.5049 20.1682 17.5869 20.356C17.6688 20.5437 17.7337 20.7179 17.7781 20.8681C17.8429 21.0832 17.8498 21.1686 17.8498 21.213C17.8498 21.2915 17.8327 21.3666 17.7986 21.4417C17.7644 21.5203 17.7132 21.5817 17.6483 21.6295C17.58 21.6807 17.5015 21.7047 17.4127 21.7047C17.3069 21.7047 17.2147 21.6671 17.1396 21.5954C17.0815 21.5373 17.0303 21.4656 16.9893 21.3803C16.9552 21.3052 16.9074 21.2027 16.8459 21.0593L16.5967 20.4686C16.5113 20.2603 16.4328 20.0999 16.3645 19.994C16.2928 19.8779 16.2347 19.8301 16.1972 19.8062C16.146 19.7755 16.0743 19.7618 15.9889 19.7618H15.907V21.0286C15.907 21.2437 15.8728 21.4008 15.7977 21.5134C15.6918 21.6739 15.5553 21.7047 15.4597 21.7047C15.3128 21.7047 15.1899 21.6329 15.1114 21.4998C15.0431 21.3871 15.009 21.23 15.009 21.0286V17.6688C15.009 17.4469 15.0465 17.2864 15.1251 17.1771C15.1865 17.0918 15.3026 16.9927 15.528 16.9927H16.5455C16.6923 16.9927 16.822 17.003 16.9279 17.0201C17.044 17.0405 17.1532 17.0815 17.2454 17.143C17.3581 17.2113 17.4571 17.3069 17.5425 17.4298C17.563 17.4605 17.58 17.4878 17.6005 17.522C17.6005 17.5152 17.6005 17.5083 17.6005 17.5015C17.6005 17.3547 17.6381 17.2352 17.7132 17.1464C17.7678 17.0781 17.8737 16.9996 18.0546 16.9996H20.0418C20.2296 16.9996 20.3355 17.0849 20.3901 17.1532C20.4618 17.2454 20.4994 17.3615 20.4994 17.5015C20.4994 17.6415 20.4618 17.761 20.3901 17.8498C20.3355 17.9044 20.2296 17.9898 20.0452 17.9898ZM23.5928 20.2501C23.5245 20.5403 23.4221 20.7964 23.2855 21.0115C23.1455 21.2335 22.968 21.4042 22.7631 21.5203C22.5548 21.6398 22.3158 21.6978 22.0495 21.6978C21.7866 21.6978 21.5442 21.6364 21.3325 21.5134C21.1242 21.3939 20.9467 21.2198 20.8067 21.0013C20.6701 20.7896 20.5676 20.5301 20.4994 20.2364C20.4311 19.9462 20.3969 19.6287 20.3969 19.2907C20.3969 18.9458 20.4311 18.6248 20.5028 18.3346C20.5745 18.041 20.6803 17.7849 20.8169 17.5766C20.9569 17.3615 21.131 17.1976 21.3359 17.0815C21.5408 16.9654 21.7764 16.9074 22.0359 16.9074C22.3875 16.9074 22.6914 17.0098 22.9441 17.2113C23.1933 17.4093 23.3811 17.6961 23.5075 18.058C23.6304 18.4097 23.6919 18.8263 23.6919 19.2975C23.6953 19.6458 23.6611 19.9667 23.5928 20.2501Z" fill="#86888C"/>
<path d="M22.4114 18.0342C22.3022 17.9352 22.1792 17.8874 22.0358 17.8874C21.9368 17.8874 21.848 17.9147 21.7627 17.9659C21.6739 18.0205 21.5988 18.1025 21.5339 18.2118C21.4656 18.3244 21.411 18.4747 21.37 18.659C21.329 18.8468 21.3086 19.0585 21.3086 19.2941C21.3086 19.5297 21.329 19.7482 21.37 19.9395C21.411 20.1238 21.469 20.2775 21.5407 20.397C21.609 20.5097 21.6876 20.595 21.7729 20.6497C21.8549 20.7009 21.9436 20.7282 22.0461 20.7282C22.1724 20.7282 22.2885 20.6838 22.3978 20.5916C22.5104 20.496 22.606 20.3389 22.6777 20.1273C22.7529 19.9053 22.7904 19.6287 22.7904 19.2975C22.7904 18.9937 22.7563 18.7273 22.688 18.5054C22.6197 18.2937 22.5275 18.1366 22.4114 18.0342Z" fill="#86888C"/>
</svg>
