<svg width="40" height="40" viewBox="0 0 40 40" fill="none" xmlns="http://www.w3.org/2000/svg">
<path d="M33.5513 6.91148C30.4615 3.96789 25.9667 2.47559 20.1863 2.47559C14.4059 2.47559 9.91115 3.96789 6.82652 6.91661C3.62267 9.97302 2 14.5371 2 20.4807C2 26.4243 3.62267 30.9833 6.82652 34.0397C9.91115 36.9833 14.4059 38.4756 20.1863 38.4756C25.9667 38.4756 30.4615 36.9833 33.5513 34.0397C36.7551 30.9833 38.383 26.4243 38.383 20.4807C38.383 14.5371 36.7603 9.96789 33.5513 6.91148ZM28.984 13.9012L18.3044 28.0346C18.1282 28.2705 17.8534 28.4089 17.5579 28.414H17.5423C17.252 28.414 16.9773 28.2858 16.7958 28.0602L11.9123 21.9833C11.5857 21.5781 11.6531 20.9833 12.0626 20.6602C12.4722 20.3371 13.0735 20.4038 13.4001 20.8089L17.5164 25.9269L27.4546 12.7679C27.7708 12.3525 28.367 12.2653 28.787 12.5781C29.2121 12.8961 29.295 13.4858 28.984 13.9012Z" fill="#86888C"/>
</svg>
