<svg width="40" height="40" viewBox="0 0 40 40" fill="none" xmlns="http://www.w3.org/2000/svg">
<path fill-rule="evenodd" clip-rule="evenodd" d="M28.9731 21.0733H21.1194V28.9475C21.1194 29.5674 20.6173 30.0746 19.9923 30.0746C19.3673 30.0746 18.8652 29.5725 18.8652 28.9475V21.0733H11.0269C10.407 21.0733 9.89981 20.5712 9.89981 19.9462C9.89981 19.3263 10.4019 18.8191 11.0269 18.8191H18.8652V11.0576C18.8652 10.4377 19.3673 9.93055 19.9923 9.93055C20.6173 9.93055 21.1194 10.4326 21.1194 11.0576V18.8242H28.9731C29.593 18.8242 30.1002 19.3263 30.1002 19.9513C30.0951 20.5712 29.593 21.0733 28.9731 21.0733ZM20.7557 2.02049C20.3356 2.01025 19.8437 2 19.3724 2H19.0497C15.4328 2.03074 2 3.27053 2 19.9462C2 36.6424 15.5608 37.9488 19.1777 38C19.3673 38.0051 19.5671 38.0051 19.7618 38.0051C20.1358 38.0051 20.5046 38 20.8223 37.9949C24.2599 37.9334 38 36.6424 38 20.0538C38.0051 3.49594 24.2803 2.10246 20.7557 2.02049Z" fill="#86888C"/>
</svg>
