<svg width="40" height="40" viewBox="0 0 40 40" fill="none" xmlns="http://www.w3.org/2000/svg">
<path fill-rule="evenodd" clip-rule="evenodd" d="M25.9565 18.6488C28.3746 18.6488 29.8757 17.1685 29.8757 14.7866C29.8757 12.4047 28.3746 10.9243 25.9565 10.9243C23.5333 10.9243 22.0322 12.4047 22.0322 14.7866C22.0322 17.1685 23.5384 18.6488 25.9565 18.6488ZM13.0925 34.226C15.7155 34.1799 20.1469 33.1656 20.1469 26.9061C20.1469 20.6466 15.6847 19.6016 13.031 19.5299H12.1959C9.58828 19.5555 5.23366 20.5287 5.23366 26.8446C5.23366 33.1912 9.64975 34.1901 12.2728 34.2362H12.5597C12.7338 34.2362 12.9285 34.2362 13.0925 34.226ZM35.5674 6.45248C37.8215 8.7012 39.0152 11.9898 38.9999 15.9903C38.9845 24.4269 28.1594 37.1662 26.6174 38.6773C26.392 38.8976 26.1102 39 25.8284 39C25.5467 39 25.2444 38.8976 25.0395 38.6773C24.2659 37.9294 22.5343 35.9163 20.5209 33.1246C18.195 36.0751 14.3886 36.4183 13.1386 36.4286C12.9593 36.4439 12.7543 36.4439 12.5597 36.4439H12.2472C10.3055 36.4183 3 35.7217 3 26.8497C3 18.0034 10.2338 17.3426 12.1703 17.3273H12.8414C12.78 16.8406 12.739 16.354 12.7543 15.8981C12.7543 11.918 13.9634 8.62436 16.2432 6.39101C18.528 4.15766 21.8939 3.01024 25.9258 3C29.9627 3.01537 33.303 4.20376 35.5674 6.45248ZM13.7994 25.7536H17.5188C18.1387 25.7536 18.6356 26.2453 18.6356 26.8549C18.6356 27.4644 18.1336 27.9562 17.5188 27.9562H13.7994V31.6289C13.7994 32.2385 13.2974 32.7302 12.6826 32.7302C12.0627 32.7302 11.5658 32.2385 11.5658 31.6289V27.9562H7.85668C7.23678 27.9562 6.73985 27.4644 6.73985 26.8549C6.73985 26.2453 7.24191 25.7536 7.85668 25.7536H11.5658V22.132C11.5658 21.5225 12.0678 21.0307 12.6826 21.0307C13.3025 21.0307 13.7994 21.5225 13.7994 22.132V25.7536Z" fill="#86888C"/>
</svg>
