<svg width="20" height="20" viewBox="0 0 20 20" fill="none" xmlns="http://www.w3.org/2000/svg">
<path fill-rule="evenodd" clip-rule="evenodd" d="M13.9863 10.4758H10.4963V13.975C10.4963 14.2504 10.2732 14.4758 9.99545 14.4758C9.7177 14.4758 9.49459 14.2527 9.49459 13.975V10.4758H6.01138C5.73591 10.4758 5.51053 10.2527 5.51053 9.97496C5.51053 9.69949 5.73364 9.4741 6.01138 9.4741H9.49459V6.02504C9.49459 5.74957 9.7177 5.52419 9.99545 5.52419C10.2732 5.52419 10.4963 5.7473 10.4963 6.02504V9.47638H13.9863C14.2618 9.47638 14.4872 9.69949 14.4872 9.97723C14.4849 10.2527 14.2618 10.4758 13.9863 10.4758ZM10.3347 2.00911C10.148 2.00455 9.92943 2 9.71998 2H9.57655C7.96927 2.01366 2 2.5646 2 9.97496C2 17.3944 8.02618 17.975 9.63347 17.9977C9.7177 18 9.80649 18 9.893 18C10.0592 18 10.2231 17.9977 10.3643 17.9954C11.8919 17.9681 17.9977 17.3944 17.9977 10.0228C18 2.66477 11.901 2.04553 10.3347 2.00911Z" fill="#86888C"/>
</svg>
