<svg width="28" height="28" viewBox="0 0 28 28" fill="none" xmlns="http://www.w3.org/2000/svg">
<path fill-rule="evenodd" clip-rule="evenodd" d="M20.2793 23.268H20.2694C19.9944 23.2714 19.6703 23.1723 19.3266 22.9569C19.2546 22.9124 19.1858 22.8645 19.1171 22.8133C18.7438 22.5329 18.2299 22.5876 17.9188 22.9432C17.6471 23.2646 17.6766 23.757 17.9876 24.0408C18.0105 24.0613 18.0302 24.0784 18.0563 24.0955C18.1546 24.1707 18.2659 24.2494 18.3903 24.328C18.6031 24.4614 18.8159 24.5639 19.0254 24.6528C18.59 25.3846 17.8534 25.7504 16.7927 25.7504C15.4831 25.7504 14.9724 24.4306 14.8578 24.0784C14.8611 23.7775 14.8677 22.9945 14.8578 22.7996V21.2233H16.5635C16.8483 21.6678 17.359 21.9653 17.9385 21.9653C18.8355 21.9653 19.5656 21.2643 19.5656 20.4027C19.5656 19.541 18.8355 18.84 17.9385 18.84C17.3557 18.84 16.8483 19.1409 16.5635 19.582H14.8578V11.1842H16.0659V13.841C15.6566 14.1283 15.3882 14.5864 15.3882 15.1028C15.3882 15.9644 16.1182 16.6688 17.0153 16.6688C17.5947 16.6688 18.1022 16.3713 18.3903 15.9302L21.4906 15.9234V17.6228C21.0257 17.8997 20.7147 18.3887 20.7147 18.9495C20.7147 19.8111 21.4415 20.5121 22.3418 20.5121C23.2355 20.5121 23.9656 19.8111 23.9656 18.9495C23.9656 18.3921 23.6578 17.9032 23.1962 17.6262V15.1028C23.193 14.8805 23.1046 14.6719 22.9474 14.5215C22.7805 14.3676 22.5677 14.2821 22.345 14.2821L18.4001 14.289C18.243 14.0462 18.0269 13.8547 17.7748 13.7282V11.1842H20.7932C21.2647 11.1842 21.6444 10.815 21.6444 10.3636V8.35991C22.1093 8.08295 22.4203 7.59741 22.4203 7.03665C22.4203 6.17498 21.6903 5.47403 20.7932 5.47403C19.8995 5.47403 19.1694 6.17498 19.1694 7.03665C19.1694 7.59399 19.4772 8.08295 19.9388 8.35991V9.54299H14.8546V5.21074C14.8546 4.97139 14.8611 4.09606 14.8644 3.74387C15.015 3.38826 15.601 2.2599 16.7894 2.2599C17.8501 2.2599 18.5802 2.62576 19.0221 3.35749C18.1578 3.73361 17.4769 4.46192 17.143 5.37487L17.0546 5.63132C16.9171 6.06557 17.1691 6.52375 17.6177 6.6571C17.6995 6.68104 17.7846 6.6913 17.8697 6.6913C18.2331 6.6913 18.5703 6.46562 18.6849 6.11344L18.7537 5.9117C18.8846 5.55267 19.3233 4.69785 20.276 4.72862H20.2793C24.4337 4.72862 24.7578 8.63003 24.7578 9.82337C24.7578 10.261 24.6956 11.5809 24.1031 12.764C23.4156 12.316 22.6004 12.0254 21.6805 11.9262C21.2156 11.8681 20.79 12.1998 20.7409 12.6477C20.6885 13.0956 21.0257 13.5025 21.4938 13.5538C22.404 13.6496 23.134 13.9778 23.6611 14.5215C24.6793 15.8311 24.7578 17.6467 24.7578 18.1767C24.7546 19.3666 24.4337 23.2031 20.2793 23.268ZM11.2108 25.747C10.1697 25.747 9.43968 25.3982 8.99771 24.6939C9.24652 24.6015 9.50188 24.4819 9.75069 24.3246C10.1435 24.075 10.2549 23.5655 9.99622 23.1894C9.73759 22.8098 9.21051 22.7038 8.81765 22.9534C8.47063 23.1723 8.16617 23.2714 7.86825 23.2714C7.82569 23.2646 7.78968 23.2817 7.75039 23.2817L7.72093 23.2783C3.56646 23.2783 3.24236 19.3769 3.24236 18.1835C3.24236 17.7527 3.30456 16.4773 3.86111 15.3113C3.91676 16.1627 4.52242 16.7748 5.25575 17.0483L5.40634 17.0996C5.49474 17.127 5.57986 17.1441 5.66497 17.1441C6.00545 17.1406 6.30664 16.9184 6.4245 16.5867C6.58491 16.1696 6.30664 15.684 5.8745 15.5199C5.77301 15.4891 5.68134 15.4242 5.61914 15.3353C6.17569 15.3113 6.67658 15.1917 7.0989 14.9455C7.50158 14.7095 7.62926 14.2035 7.38372 13.8171C7.13819 13.4307 6.61438 13.3076 6.2117 13.5436C5.96944 13.6872 5.63551 13.7385 5.21319 13.7043C4.81051 13.6701 4.4995 13.5607 4.2867 13.3965C3.32747 12.0972 3.24563 10.3431 3.24563 9.82337C3.24563 8.63003 3.56974 4.72862 7.83224 4.72862H7.83551C8.12688 4.73888 8.37569 4.78333 8.59831 4.90643C8.73581 4.98507 8.8864 5.02268 9.03372 5.02268C9.32509 5.02268 9.60664 4.87907 9.76706 4.62605C10.006 4.23625 9.87509 3.73361 9.47241 3.5011C9.32509 3.41904 9.1745 3.34723 9.01736 3.2891C9.45932 2.60182 10.1828 2.2599 11.2141 2.2599C12.5236 2.2599 13.0343 3.57974 13.1489 3.93193C13.1424 4.35934 13.1424 4.78333 13.1489 5.21074V6.25363H11.6037C11.2894 5.78177 10.7754 5.5048 10.2254 5.51164C9.32837 5.51164 8.60158 6.2126 8.60158 7.07426C8.60158 7.93592 9.32837 8.63687 10.2254 8.63687C10.8081 8.63687 11.3156 8.3394 11.6037 7.89489H13.1489V9.53957H7.28551C6.9745 9.0677 6.45724 8.79074 5.90724 8.79758C5.01021 8.79758 4.28015 9.49853 4.28015 10.3602C4.28015 11.2219 5.00694 11.9228 5.90724 11.9228C6.48997 11.9228 6.99741 11.6253 7.28551 11.1808H13.1489V12.5656H10.2581C9.7867 12.5656 9.40694 12.9349 9.40694 13.3863V15.9029C8.94533 16.1798 8.63432 16.6654 8.63432 17.2261C8.63432 18.0878 9.36438 18.7887 10.2581 18.7887C11.1552 18.7887 11.8819 18.0878 11.8819 17.2261C11.8819 16.6654 11.5709 16.1764 11.1093 15.8994V14.1966H13.1489V20.7583H6.90247L6.8992 20.5599L6.89593 20.5463C7.36735 20.2727 7.68492 19.7803 7.68492 19.2127C7.68492 18.3511 6.95486 17.6467 6.06111 17.6467C5.16408 17.6467 4.4373 18.3477 4.4373 19.2127C4.4373 19.7735 4.74503 20.259 5.20664 20.536C5.20664 20.5531 5.19682 20.5668 5.19682 20.5839L5.20992 21.5891C5.21646 22.0371 5.59622 22.3961 6.06111 22.3961H13.1456V22.7927C13.1456 23.0321 13.1391 23.9074 13.1358 24.2596C12.9819 24.6221 12.3959 25.747 11.2108 25.747Z" fill="#86888C"/>
<path d="M16.7893 26C15.3324 26 14.7628 24.5878 14.622 24.1536C14.6122 24.1262 14.6089 24.0989 14.6089 24.0681C14.6122 23.6817 14.6155 22.9774 14.6089 22.8064V21.2164C14.6089 21.0762 14.717 20.96 14.8545 20.96H16.5601C16.642 20.96 16.7173 21.001 16.7631 21.0728C17.0185 21.466 17.4539 21.702 17.9351 21.702C18.6979 21.702 19.3167 21.1138 19.3167 20.3924C19.3167 19.6709 18.6979 19.0862 17.9351 19.0862C17.4571 19.0862 17.0185 19.3221 16.7631 19.7153C16.7173 19.7871 16.642 19.8282 16.5601 19.8282H14.8545C14.7202 19.8282 14.6089 19.7153 14.6089 19.5717V11.1842C14.6089 11.044 14.717 10.9278 14.8545 10.9278H16.0625C16.1967 10.9278 16.308 11.0406 16.308 11.1842V13.841C16.308 13.9265 16.2688 14.0051 16.2 14.053C15.8399 14.306 15.6304 14.689 15.6304 15.1027C15.6304 15.8242 16.2491 16.4123 17.0119 16.4123C17.4899 16.4123 17.9286 16.1798 18.1839 15.7866C18.2298 15.7182 18.3051 15.6737 18.3869 15.6737L21.4872 15.6669C21.5527 15.6669 21.6149 15.6943 21.6607 15.7421C21.7065 15.79 21.7327 15.855 21.7327 15.9234V17.6227C21.7327 17.7151 21.6869 17.8005 21.6083 17.845C21.1991 18.0878 20.9568 18.5015 20.9568 18.9494C20.9568 19.6709 21.5756 20.259 22.3384 20.259C23.0979 20.259 23.7167 19.6709 23.7167 18.9494C23.7167 18.5049 23.4744 18.0912 23.0717 17.8484C22.9964 17.804 22.9506 17.7185 22.9506 17.6262V15.1027C22.9506 14.9557 22.8884 14.8121 22.7804 14.7129C22.6625 14.6001 22.5086 14.5385 22.3482 14.5385H22.3449L18.3967 14.5454C18.3149 14.5454 18.2396 14.5043 18.1938 14.4325C18.0595 14.2274 17.8795 14.0633 17.6667 13.9607C17.5815 13.9196 17.5259 13.8273 17.5259 13.7316V11.1842C17.5259 11.044 17.6339 10.9278 17.7714 10.9278H20.7899C21.1238 10.9278 21.3988 10.6747 21.3988 10.3636V8.35988C21.3988 8.26756 21.4446 8.18208 21.5232 8.13763C21.9324 7.89486 22.1747 7.48454 22.1747 7.03662C22.1747 6.31515 21.556 5.73045 20.7932 5.73045C20.0336 5.73045 19.4149 6.31515 19.4149 7.03662C19.4149 7.48454 19.6571 7.89486 20.0598 8.13763C20.1351 8.18208 20.1842 8.26756 20.1842 8.35988V9.54296C20.1842 9.68315 20.0762 9.7994 19.9387 9.7994H14.8545C14.7202 9.7994 14.6089 9.68657 14.6089 9.54296V5.21071C14.6089 4.96453 14.6155 4.06525 14.6188 3.74042C14.6188 3.70623 14.6253 3.66861 14.6417 3.63784C14.8086 3.25488 15.4536 2.00684 16.7893 2.00684C17.922 2.00684 18.7438 2.41715 19.2283 3.22411C19.2676 3.28907 19.2774 3.3643 19.2545 3.4361C19.2315 3.50791 19.1824 3.56604 19.1137 3.59339C18.3149 3.93874 17.6798 4.61918 17.3688 5.46374L17.2836 5.71335C17.2411 5.8467 17.2542 5.98689 17.3164 6.10999C17.3884 6.2536 17.5226 6.36302 17.683 6.41089C17.742 6.42798 17.8042 6.43824 17.8664 6.43824C18.1315 6.43824 18.3738 6.27069 18.4491 6.03476V6.03134L18.5179 5.82961C18.5179 5.82619 18.5179 5.82619 18.5211 5.82277C18.6423 5.49793 19.1235 4.44137 20.2792 4.47557H20.2955C21.294 4.47899 22.1551 4.70124 22.8557 5.13891C23.4515 5.51161 23.9327 6.03818 24.2896 6.70494C24.9083 7.86408 25 9.15658 25 9.82676C25 10.2234 24.9509 11.6219 24.3158 12.887C24.283 12.9486 24.2274 12.9964 24.1619 13.0135C24.0964 13.0306 24.0277 13.0204 23.9688 12.9828C23.2943 12.5451 22.5152 12.275 21.6509 12.1826H21.6476C21.3202 12.1416 21.0125 12.3707 20.9798 12.6819C20.9634 12.8186 21.0027 12.9554 21.0878 13.0682C21.1893 13.1982 21.3432 13.2837 21.5134 13.3008C22.4792 13.4033 23.2551 13.7521 23.828 14.3436L23.8476 14.3642C24.9182 15.7387 25 17.633 25 18.1801C25 18.84 24.9083 20.1154 24.2863 21.2677C23.9295 21.931 23.4482 22.4542 22.8557 22.8303C22.1518 23.2748 21.2842 23.5073 20.2792 23.5244H20.2497C19.9223 23.5244 19.5589 23.4048 19.1955 23.1757C19.117 23.1278 19.0417 23.0731 18.9696 23.0184C18.6979 22.8132 18.3214 22.8543 18.0955 23.1107C18.0071 23.2167 17.9646 23.3501 17.9744 23.4868C17.9842 23.627 18.0432 23.7535 18.1446 23.8458C18.1577 23.8595 18.1741 23.8698 18.1905 23.8835C18.1938 23.8835 18.1938 23.8869 18.197 23.8869C18.2854 23.9553 18.3869 24.0271 18.5113 24.1091C18.6881 24.2186 18.878 24.3143 19.1104 24.4135C19.1759 24.4408 19.2283 24.4989 19.2512 24.5707C19.2741 24.6425 19.2643 24.7212 19.225 24.7862C18.747 25.5897 17.9253 26 16.7893 26ZM15.0967 24.0305C15.231 24.4203 15.6958 25.4905 16.7893 25.4905C17.6307 25.4905 18.2429 25.2512 18.6455 24.7554C18.508 24.687 18.3836 24.6186 18.2625 24.5434C18.2625 24.5434 18.2592 24.5434 18.2592 24.54C18.125 24.4511 18.0104 24.3724 17.9155 24.2972C17.886 24.2767 17.8565 24.2527 17.8271 24.2254C17.4179 23.8493 17.3786 23.1962 17.7387 22.7688L17.742 22.7654C18.1348 22.314 18.7896 22.2456 19.2643 22.6012C19.3265 22.6491 19.392 22.6935 19.4574 22.7346C19.7423 22.9158 20.0205 23.0115 20.2595 23.0115H20.2955C24.2077 22.9363 24.5122 19.2948 24.5122 18.1801C24.5122 17.6774 24.4369 15.9404 23.4777 14.6958C23.3991 14.6172 23.3173 14.542 23.2289 14.4736C23.3598 14.6514 23.4318 14.8736 23.4351 15.0993V17.486C23.9196 17.8279 24.2045 18.3681 24.2045 18.9494C24.2045 19.9513 23.3664 20.7685 22.3384 20.7685C21.3071 20.7685 20.469 19.9513 20.469 18.9494C20.469 18.3613 20.7571 17.8245 21.2449 17.4825V16.1798L18.5113 16.1866C18.1577 16.6517 17.6077 16.9252 17.0119 16.9252C15.9807 16.9252 15.1426 16.108 15.1426 15.1061C15.1426 14.5693 15.3946 14.0598 15.8202 13.7111V11.4407H15.1033V19.3221H16.4423C16.7958 18.8537 17.3458 18.5801 17.9417 18.5801C18.9729 18.5801 19.811 19.3939 19.811 20.3992C19.811 21.4011 18.9729 22.2183 17.9417 22.2183C17.3458 22.2183 16.7926 21.9413 16.4423 21.4763H15.1033V22.7927C15.1065 23.0081 15.1 23.8117 15.0967 24.0305ZM18.0071 13.5777C18.2003 13.6974 18.3738 13.8513 18.5113 14.0359L22.3351 14.0291C22.3679 14.0291 22.4039 14.0291 22.4366 14.0325C22.142 13.9231 21.8179 13.8478 21.4643 13.8102C21.1631 13.7795 20.8881 13.6256 20.7048 13.3862C20.5345 13.164 20.4592 12.8939 20.492 12.6203C20.5607 12.0254 21.1009 11.6014 21.7033 11.6732C22.5446 11.7621 23.314 12.0083 23.9949 12.4049C24.4696 11.3107 24.5089 10.1653 24.5089 9.82334C24.5089 8.68813 24.2045 4.98162 20.2759 4.98162H20.2497C19.428 4.96794 19.0711 5.75438 18.9795 6.00057L18.914 6.19547C18.7699 6.6434 18.3476 6.94429 17.8696 6.94429C17.7616 6.94429 17.6568 6.93062 17.5521 6.89984C17.2607 6.81436 17.0185 6.61262 16.8842 6.34592C16.7565 6.09631 16.7336 5.81251 16.8188 5.5458C16.8188 5.54239 16.8188 5.54239 16.822 5.53897L16.9104 5.28252C16.9104 5.2791 16.9104 5.2791 16.9137 5.27568C17.2345 4.40034 17.8565 3.67887 18.6488 3.25146C18.2429 2.75224 17.6339 2.50947 16.7893 2.50947C15.794 2.50947 15.2702 3.4361 15.1065 3.79513C15.1033 4.15757 15.0967 4.97478 15.0967 5.20388V9.28309H19.6833V8.49323C19.1988 8.15131 18.914 7.61448 18.914 7.02978C18.914 6.02793 19.7521 5.21071 20.7801 5.21071C21.8113 5.21071 22.6494 6.02451 22.6494 7.02978C22.6494 7.61448 22.3613 8.15472 21.8735 8.49665V10.3636C21.8735 10.9551 21.3824 11.4372 20.7768 11.4372H18.0039V13.5777H18.0071ZM11.2107 26C10.0911 26 9.27917 25.6068 8.79464 24.834C8.75208 24.7691 8.74226 24.687 8.76845 24.6118C8.79137 24.5365 8.84702 24.4784 8.91905 24.4511C9.17768 24.3553 9.41012 24.2425 9.62619 24.1057C9.76369 24.0202 9.85208 23.8903 9.88482 23.7364C9.91101 23.5962 9.88155 23.4561 9.7997 23.3364C9.61637 23.0663 9.23006 22.991 8.94524 23.1688C8.55893 23.4116 8.21518 23.5244 7.86816 23.521H7.84196C7.81905 23.5244 7.78958 23.5313 7.75357 23.5313H7.73066L7.71429 23.5279C6.7125 23.5244 5.85149 23.3022 5.14762 22.8645C4.55179 22.4918 4.07054 21.9652 3.71369 21.2985C3.09494 20.1393 3.00327 18.8468 3.00327 18.1767C3.00327 17.7937 3.04911 16.4397 3.64821 15.1882C3.69732 15.0856 3.80536 15.0309 3.91339 15.0514C4.02143 15.0754 4.10327 15.1711 4.10982 15.2839C4.15238 15.9575 4.61399 16.5251 5.34077 16.7987L5.4881 16.85C5.54702 16.8705 5.60923 16.8808 5.67143 16.8808C5.90714 16.8773 6.11994 16.7235 6.20506 16.491V16.4875C6.26071 16.3439 6.2247 16.2106 6.18869 16.1217C6.11667 15.9575 5.97589 15.8208 5.80565 15.7558C5.65833 15.7079 5.52411 15.6122 5.42917 15.4823C5.37351 15.407 5.36369 15.3045 5.40298 15.219C5.44226 15.1335 5.52411 15.0788 5.6125 15.0719C6.15595 15.048 6.61756 14.9283 6.98423 14.7129C7.125 14.6309 7.21994 14.5043 7.25268 14.3539C7.28542 14.2171 7.25923 14.0735 7.18066 13.9504C7.00387 13.6735 6.62411 13.588 6.33274 13.7589C6.05119 13.9265 5.67798 13.9915 5.19673 13.9538C4.75804 13.9196 4.40119 13.8 4.14256 13.5982C4.12292 13.5846 4.10982 13.5675 4.09345 13.5504C3.07857 12.1758 3 10.3499 3 9.81992C3 9.14974 3.09494 7.85725 3.72679 6.69811C4.09018 6.03134 4.58452 5.50477 5.19345 5.13207C5.91369 4.69098 6.80089 4.46873 7.83214 4.46873H7.84196C8.21191 4.48241 8.48036 4.54737 8.7128 4.6773C8.80774 4.73201 8.91905 4.76279 9.03036 4.76279C9.24643 4.76279 9.44941 4.65337 9.56071 4.47899C9.63601 4.35589 9.65893 4.21228 9.62619 4.07551C9.59018 3.92506 9.49196 3.79855 9.35119 3.7199C9.21696 3.64468 9.07619 3.57971 8.93214 3.525C8.86012 3.49765 8.80774 3.43952 8.78155 3.3643C8.75863 3.28907 8.76845 3.20701 8.81101 3.14204C9.29881 2.38638 10.1042 2 11.2107 2C12.6676 2 13.2372 3.41217 13.378 3.84642C13.3878 3.87377 13.3911 3.90455 13.3911 3.9319C13.3845 4.35247 13.3845 4.77988 13.3911 5.20046V6.24676C13.3911 6.38695 13.283 6.50321 13.1455 6.50321H11.6003C11.5217 6.50321 11.4464 6.46217 11.4006 6.39379C11.1321 5.99031 10.6935 5.75438 10.2253 5.76122C9.4625 5.76122 8.84048 6.34592 8.84048 7.06739C8.84048 7.78886 9.45923 8.37356 10.222 8.37356C10.7033 8.37356 11.142 8.13763 11.3973 7.74441C11.4432 7.6726 11.5185 7.63157 11.6003 7.63157H13.1455C13.2798 7.63157 13.3911 7.74441 13.3911 7.88802V9.5327C13.3911 9.67289 13.283 9.78914 13.1455 9.78914H7.28542C7.20685 9.78914 7.13155 9.74811 7.08571 9.67973C6.82054 9.28309 6.38839 9.04716 5.92679 9.04716H5.91369C5.15089 9.04716 4.52887 9.63186 4.52887 10.3533C4.52887 11.0748 5.14762 11.6595 5.91042 11.6595C6.39167 11.6595 6.83036 11.4236 7.08571 11.0303C7.13155 10.9585 7.20685 10.9175 7.28869 10.9175H13.1521C13.2863 10.9175 13.3976 11.0303 13.3976 11.174V12.5588C13.3976 12.699 13.2896 12.8152 13.1521 12.8152H10.2613C9.92738 12.8152 9.65238 13.0682 9.65238 13.3794V15.9028C9.65238 15.9952 9.60655 16.0806 9.52798 16.1251C9.12202 16.3679 8.87976 16.7816 8.87976 17.2295C8.87976 17.951 9.49851 18.5357 10.2613 18.5357C11.0241 18.5357 11.6429 17.951 11.6429 17.2295C11.6429 16.7816 11.4006 16.3679 10.9946 16.1251C10.9193 16.0806 10.8702 15.9952 10.8702 15.9028V14.2C10.8702 14.0598 10.9783 13.9436 11.1158 13.9436H13.1554C13.2896 13.9436 13.4009 14.0564 13.4009 14.2V20.7582C13.4009 20.8984 13.2929 21.0147 13.1554 21.0147H6.90238C6.76816 21.0147 6.66012 20.9018 6.65685 20.7616L6.65357 20.5838C6.6372 20.4778 6.68631 20.3718 6.77798 20.3206C7.19375 20.0812 7.44256 19.6641 7.44256 19.2093C7.44256 18.4878 6.82381 17.8997 6.06101 17.8997C5.29821 17.8997 4.67946 18.4878 4.67946 19.2093C4.67946 19.6572 4.92173 20.0675 5.3244 20.3103C5.40625 20.3582 5.45208 20.4505 5.44554 20.5462C5.44554 20.5702 5.43899 20.5907 5.43571 20.6078L5.44881 21.5857C5.45208 21.8934 5.72708 22.143 6.05774 22.143H13.1423C13.2765 22.143 13.3878 22.2559 13.3878 22.3995V22.7961C13.3878 23.0013 13.3813 23.6407 13.378 24.0647L13.3747 24.263C13.3747 24.2972 13.3682 24.3348 13.3518 24.3656C13.1946 24.7485 12.5464 26 11.2107 26ZM9.39048 24.8067C9.79316 25.2649 10.3923 25.4905 11.2107 25.4905C12.206 25.4905 12.7298 24.5605 12.8935 24.2049V24.0613C12.8967 23.6646 12.9033 22.9979 12.9033 22.7961V22.6525H9.72441C9.90774 22.7312 10.0747 22.8645 10.1958 23.0423C10.3563 23.2782 10.4152 23.562 10.3595 23.8424C10.3006 24.1331 10.1304 24.3827 9.875 24.5434C9.72113 24.6425 9.56072 24.728 9.39048 24.8067ZM5.70089 22.591C6.23452 22.8577 6.89911 23.0184 7.72083 23.0184H7.75685C7.78304 23.015 7.82887 23.0047 7.88125 23.0115C8.13006 23.0115 8.38869 22.9226 8.68988 22.7312C8.74226 22.7004 8.79137 22.673 8.84702 22.6491H6.06429C5.93661 22.6525 5.81548 22.632 5.70089 22.591ZM3.81845 16.0875C3.51726 17.0209 3.4878 17.8929 3.4878 18.1801C3.4878 19.0212 3.65476 21.2711 5.3375 22.3824C5.11161 22.1875 4.96756 21.9071 4.96429 21.5925L4.95119 20.6693C4.47321 20.3274 4.19167 19.7906 4.19167 19.2093C4.19167 18.2074 5.02976 17.3902 6.06101 17.3902C7.09226 17.3902 7.93036 18.2074 7.93036 19.2093C7.93036 19.7051 7.72738 20.1667 7.37054 20.5018H12.9033V14.4531H11.3548V15.7592C11.8426 16.1012 12.1274 16.6414 12.1274 17.2261C12.1274 18.228 11.2893 19.0452 10.258 19.0452C9.22679 19.0452 8.38869 18.228 8.38869 17.2261C8.38869 16.6414 8.67351 16.1012 9.16131 15.7592V13.3794C9.16131 12.7879 9.65238 12.3057 10.258 12.3057H12.9033V11.4304H7.40982C7.05625 11.8988 6.50625 12.1724 5.91042 12.1724C4.87917 12.1724 4.04107 11.3586 4.04107 10.3533C4.04107 9.34806 4.87917 8.53427 5.91042 8.53427C6.49643 8.52743 7.04643 8.80439 7.40982 9.27625H12.9065V8.14105H11.728C11.3744 8.60949 10.8244 8.88303 10.2253 8.88303C9.19405 8.88303 8.35595 8.06924 8.35595 7.06397C8.35595 6.0587 9.19405 5.24491 10.2253 5.24491C10.8113 5.23807 11.3613 5.51503 11.7247 5.98689H12.9033V5.20046C12.8967 4.79014 12.8967 4.37299 12.9033 3.96267C12.769 3.56945 12.3042 2.50264 11.214 2.50264C10.4054 2.50264 9.8128 2.72147 9.41012 3.1694C9.46905 3.20017 9.53125 3.23094 9.59018 3.26514C9.85208 3.41559 10.0354 3.65494 10.1042 3.94558C10.1729 4.22254 10.1271 4.50976 9.97649 4.75253C9.77351 5.07736 9.42321 5.26884 9.03691 5.26884C8.84048 5.26884 8.6506 5.21755 8.48363 5.12181C8.32321 5.02949 8.12351 4.98504 7.83542 4.97478C3.91994 4.9782 3.49762 8.35988 3.49762 9.81308C3.49762 10.2952 3.56637 11.957 4.46667 13.2016C4.64673 13.3315 4.91518 13.4136 5.23929 13.4375C5.61577 13.4683 5.90387 13.4239 6.1003 13.3076C6.61101 13.0067 7.28214 13.164 7.59643 13.6598C7.7503 13.9026 7.79941 14.1864 7.73393 14.4667C7.66845 14.7574 7.48839 15.0001 7.22649 15.154C6.96458 15.3079 6.66667 15.4207 6.33601 15.4891C6.46369 15.6019 6.56845 15.7455 6.6372 15.9028C6.74524 16.1524 6.75506 16.4226 6.66339 16.6653C6.50625 17.0962 6.11994 17.38 5.67798 17.3834C5.56667 17.3834 5.45536 17.3663 5.34405 17.3287L5.19345 17.2774C5.19018 17.2774 5.19018 17.2774 5.1869 17.274C4.55179 17.0517 4.07381 16.6209 3.81845 16.0875Z" fill="#86888C"/>
</svg>
