<svg width="40" height="40" viewBox="0 0 40 40" fill="none" xmlns="http://www.w3.org/2000/svg">
<path fill-rule="evenodd" clip-rule="evenodd" d="M21.706 2C30.9212 2 35.9974 6.98406 35.9974 16.0302C35.9974 17.864 35.7823 19.4416 35.4186 20.8196H25.9422C25.7322 20.3176 25.3941 19.8822 24.9639 19.5492L27.2484 13.3768C28.6212 13.0285 29.6406 11.8144 29.6406 10.3597C29.6406 8.63346 28.2114 7.22993 26.4493 7.22993C25.1687 7.22993 24.0623 7.9778 23.5603 9.05349H20.784V2.03073C21.0913 2.02049 21.3936 2 21.706 2ZM22.9917 25.1224C24.2826 25.1275 25.4454 24.354 25.9473 23.1656H34.558C33.3901 25.6295 31.6895 27.1969 30.0196 28.1497L29.9991 36.4377C29.9889 37.3085 29.2769 38.0051 28.4061 38H14.883C14.0122 38.0051 13.3002 37.3085 13.29 36.4377V33.6357C11.1488 33.4206 9.57115 32.7547 8.59278 31.6431C7.74759 30.6904 7.5222 29.5634 7.58367 28.8207L7.53757 25.7575L4.18755 24.8918C3.6497 24.7535 3.21942 24.3438 3.06063 23.8059C2.90696 23.2732 3.05038 22.6995 3.43456 22.2999C4.60246 21.0859 5.57571 19.7746 6.32869 18.4121C7.00485 17.1776 7.38902 15.9226 7.46074 14.6779C7.87565 7.60899 11.7277 3.29084 18.3919 2.25612V9.76038L15.3338 12.885C14.9496 12.7262 14.5398 12.6494 14.1249 12.6443C12.368 12.6443 10.9337 14.0478 10.9337 15.774C10.9337 17.5003 12.3628 18.9038 14.1249 18.9038C15.8819 18.9038 17.311 17.5003 17.311 15.774C17.311 15.3438 17.2188 14.9186 17.0447 14.5242L20.0976 11.4047H23.4579C23.7089 12.1013 24.1955 12.675 24.8307 13.0438L22.6639 18.8987C21.0606 19.0626 19.8056 20.379 19.8056 21.9977C19.8056 23.7239 21.2348 25.1275 22.9917 25.1224ZM27.2484 10.3648C27.2484 10.7951 26.8899 11.1485 26.4545 11.1485C26.0191 11.1537 25.6605 10.8053 25.6554 10.3648C25.6554 9.93454 26.0139 9.5811 26.4545 9.5811C26.8899 9.5811 27.2484 9.93454 27.2484 10.3648ZM14.5757 15.144C14.6064 15.1798 14.7294 15.2464 14.7652 15.3284C14.8626 15.4565 14.9189 15.6101 14.924 15.7689C14.924 16.1992 14.5655 16.5526 14.1249 16.5526C13.6895 16.5578 13.331 16.2043 13.3258 15.7689C13.3258 15.3386 13.6844 14.9852 14.1249 14.9852C14.294 14.9903 14.4476 15.0518 14.5757 15.144ZM22.1927 21.9926C22.1927 21.5623 22.5512 21.2089 22.9866 21.2089C23.4271 21.2089 23.7857 21.5623 23.7857 21.9926C23.7857 22.4229 23.4271 22.7763 22.9866 22.7763C22.5563 22.7814 22.1978 22.428 22.1927 21.9926Z" fill="#86888C"/>
</svg>
