<svg width="28" height="28" viewBox="0 0 28 28" fill="none" xmlns="http://www.w3.org/2000/svg">
<path fill-rule="evenodd" clip-rule="evenodd" d="M15.4707 2C21.6141 2 24.9983 5.32271 24.9983 11.3534C24.9983 12.576 24.8549 13.6278 24.6124 14.5464H18.2948C18.1548 14.2117 17.9294 13.9214 17.6426 13.6995L19.1656 9.58451C20.0808 9.3523 20.7604 8.54297 20.7604 7.57313C20.7604 6.42231 19.8076 5.48662 18.6329 5.48662C17.7792 5.48662 17.0415 5.9852 16.7069 6.70233H14.856V2.02049C15.0609 2.01366 15.2624 2 15.4707 2ZM16.3278 17.4149C17.1884 17.4183 17.9636 16.9027 18.2982 16.1104H24.0387C23.2601 17.753 22.1263 18.7979 21.0131 19.4331L20.9994 24.9584C20.9926 25.539 20.5179 26.0034 19.9374 26H10.922C10.3415 26.0034 9.86682 25.539 9.85999 24.9584V23.0905C8.43256 22.9471 7.38077 22.5031 6.72852 21.7621C6.16506 21.1269 6.0148 20.3756 6.05578 19.8805L6.02505 17.8383L3.7917 17.2612C3.43313 17.169 3.14628 16.8958 3.04042 16.5373C2.93797 16.1821 3.03359 15.7996 3.28971 15.5333C4.06831 14.724 4.71714 13.8497 5.21913 12.9414C5.6699 12.1184 5.92602 11.2817 5.97382 10.4519C6.25043 5.73933 8.81844 2.86056 13.2612 2.17075V7.17359L11.2225 9.25668C10.9664 9.15082 10.6932 9.0996 10.4166 9.09618C9.24531 9.09618 8.28913 10.0319 8.28913 11.1827C8.28913 12.3335 9.24189 13.2692 10.4166 13.2692C11.5879 13.2692 12.5407 12.3335 12.5407 11.1827C12.5407 10.8958 12.4792 10.6124 12.3631 10.3495L14.3984 8.26977H16.6386C16.8059 8.7342 17.1303 9.11667 17.5538 9.36254L16.1093 13.2658C15.0404 13.3751 14.2038 14.2527 14.2038 15.3318C14.2038 16.4826 15.1565 17.4183 16.3278 17.4149ZM19.1656 7.57655C19.1656 7.8634 18.9266 8.09903 18.6363 8.09903C18.346 8.10244 18.107 7.87023 18.1036 7.57655C18.1036 7.28969 18.3426 7.05407 18.6363 7.05407C18.9266 7.05407 19.1656 7.28969 19.1656 7.57655ZM10.7171 10.7627C10.7376 10.7866 10.8196 10.831 10.8435 10.8856C10.9084 10.971 10.9459 11.0734 10.9493 11.1793C10.9493 11.4661 10.7103 11.7018 10.4166 11.7018C10.1264 11.7052 9.88731 11.4695 9.8839 11.1793C9.8839 10.8924 10.1229 10.6568 10.4166 10.6568C10.5293 10.6602 10.6318 10.7012 10.7171 10.7627ZM15.7951 15.3284C15.7951 15.0415 16.0341 14.8059 16.3244 14.8059C16.6181 14.8059 16.8571 15.0415 16.8571 15.3284C16.8571 15.6152 16.6181 15.8509 16.3244 15.8509C16.0376 15.8543 15.7985 15.6187 15.7951 15.3284Z" fill="#86888C"/>
</svg>
