<svg width="28" height="28" viewBox="0 0 28 28" fill="none" xmlns="http://www.w3.org/2000/svg">
<path fill-rule="evenodd" clip-rule="evenodd" d="M24.4855 19.5545V16.055C24.4855 15.6931 24.1338 15.2424 23.9324 14.9727C22.7443 13.4227 21.5698 11.8658 20.4022 10.2987C20.211 10.029 19.8389 9.83783 19.477 9.79686V17.902C21.0543 18.1034 22.1024 19.0662 22.3824 20.5787H23.4681C23.7002 20.5787 23.9597 20.4592 24.1646 20.2578C24.366 20.0563 24.4855 19.7934 24.4855 19.5545ZM18.8727 23.4944C20.252 23.4944 20.945 22.8013 20.945 21.4288C20.945 20.0563 20.252 19.353 18.8727 19.353C17.4968 19.353 16.8003 20.0563 16.8003 21.4288C16.8037 22.8013 17.4968 23.4944 18.8727 23.4944ZM6.96757 23.4944C8.34688 23.4944 9.03994 22.8013 9.03994 21.4288C9.03994 20.0563 8.34346 19.353 6.96757 19.353C5.59167 19.353 4.88836 20.0563 4.88836 21.4288C4.88494 22.8013 5.59167 23.4944 6.96757 23.4944ZM25.1205 14.0577C25.4312 14.4469 25.9945 15.1809 25.9945 16.0447V19.5545C25.9945 20.1997 25.7214 20.8382 25.24 21.3196C24.7484 21.801 24.1031 22.0809 23.4715 22.0809H22.4063C22.1536 23.8972 20.8563 25 18.8761 25C16.8037 25 15.4892 23.7948 15.3254 21.8317H10.5183C10.3578 23.7982 9.03995 25 6.96757 25C4.88494 25 3.56709 23.788 3.40662 21.8112C2.61454 21.7088 2 21.084 2 20.3158V6.50563C2 5.67258 2.7238 5 3.60806 5H17.8689C18.7532 5 19.477 5.68283 19.477 6.51588V8.28098C20.3202 8.3322 21.1465 8.75213 21.6176 9.41448C22.0751 10.0358 24.7689 13.5968 25.1205 14.0577ZM14.7723 10.5889H12.6111V8.43121C12.6111 7.90884 12.198 7.44793 11.7269 7.44793H9.75691C9.28576 7.44793 8.87265 7.90884 8.87265 8.43121V10.5855H6.71151C6.1789 10.5855 5.73506 10.985 5.73506 11.4664V13.4329C5.73506 13.9143 6.1789 14.3138 6.71151 14.3138H8.87265L8.88289 16.4715C8.88289 17.0041 9.28576 17.4548 9.75691 17.4548H11.7371C12.2117 17.4548 12.6145 17.0041 12.6145 16.4715V14.3138H14.7757C15.2981 14.3138 15.7624 13.9041 15.7624 13.4329V11.4698C15.7555 10.9986 15.2946 10.5889 14.7723 10.5889Z" fill="#86888C"/>
</svg>
