<svg width="20" height="20" viewBox="0 0 20 20" fill="none" xmlns="http://www.w3.org/2000/svg">
<path fill-rule="evenodd" clip-rule="evenodd" d="M16.6156 13.4604V11.1857C16.6156 10.9505 16.387 10.6576 16.2561 10.4822C15.4838 9.47474 14.7204 8.46279 13.9614 7.44418C13.8371 7.26886 13.5953 7.14459 13.36 7.11796V12.3863C14.3853 12.5172 15.0666 13.1431 15.2485 14.1262H15.9543C16.1052 14.1262 16.2738 14.0485 16.407 13.9175C16.5379 13.7866 16.6156 13.6157 16.6156 13.4604ZM12.9672 16.0213C13.8638 16.0213 14.3143 15.5708 14.3143 14.6787C14.3143 13.7866 13.8638 13.3295 12.9672 13.3295C12.0729 13.3295 11.6202 13.7866 11.6202 14.6787C11.6224 15.5708 12.0729 16.0213 12.9672 16.0213ZM5.22892 16.0213C6.12547 16.0213 6.57596 15.5708 6.57596 14.6787C6.57596 13.7866 6.12325 13.3295 5.22892 13.3295C4.33459 13.3295 3.87743 13.7866 3.87743 14.6787C3.87521 15.5708 4.33459 16.0213 5.22892 16.0213ZM17.0283 9.8875C17.2303 10.1405 17.5964 10.6176 17.5964 11.1791V13.4604C17.5964 13.8798 17.4189 14.2948 17.106 14.6077C16.7864 14.9206 16.367 15.1026 15.9565 15.1026H15.2641C15.0999 16.2832 14.2566 17 12.9694 17C11.6224 17 10.768 16.2166 10.6615 14.9406H7.53687C7.43257 16.2188 6.57596 17 5.22892 17C3.87521 17 3.01861 16.2122 2.91431 14.9273C2.39945 14.8607 2 14.4546 2 13.9553V4.97866C2 4.43718 2.47047 4 3.04524 4H12.3148C12.8896 4 13.36 4.44384 13.36 4.98532V6.13264C13.9082 6.16593 14.4452 6.43889 14.7515 6.86941C15.0488 7.2733 16.7998 9.58791 17.0283 9.8875ZM10.302 7.63281H8.89723V6.23028C8.89723 5.89075 8.62871 5.59116 8.32246 5.59116H7.04199C6.73575 5.59116 6.46722 5.89075 6.46722 6.23028V7.63059H5.06248C4.71629 7.63059 4.42779 7.89024 4.42779 8.20314V9.48139C4.42779 9.7943 4.71629 10.0539 5.06248 10.0539H6.46722L6.47388 11.4565C6.47388 11.8027 6.73575 12.0956 7.04199 12.0956H8.32912C8.63759 12.0956 8.89945 11.8027 8.89945 11.4565V10.0539H10.3042C10.6437 10.0539 10.9455 9.78764 10.9455 9.48139V8.20536C10.9411 7.89911 10.6415 7.63281 10.302 7.63281Z" fill="#86888C"/>
</svg>
