<svg width="40" height="40" viewBox="0 0 40 40" fill="none" xmlns="http://www.w3.org/2000/svg">
<path fill-rule="evenodd" clip-rule="evenodd" d="M31.2803 35.6338V32.9296H21.3751C21.2624 32.9296 21.0473 32.9245 21.0473 32.9245C21.0473 32.9245 20.8424 32.9296 20.7297 32.9296H19.2701C19.1472 32.9296 18.9167 32.9245 18.9167 32.9245C18.9167 32.9245 18.6913 32.9296 18.5684 32.9296H8.75029V35.6338H31.2803ZM17.9282 28.0282L17.0319 30.5685H18.5684C18.6913 30.5685 18.9269 30.5737 18.9269 30.5737C18.9269 30.5737 19.1472 30.5685 19.2701 30.5685H20.7297C20.8424 30.5685 21.0524 30.5737 21.0524 30.5737C21.0524 30.5737 21.2624 30.5685 21.3751 30.5685H22.9628L22.0511 28.0282H17.9282ZM19.9769 22.2254L18.763 25.662H21.2112L19.9769 22.2254ZM18.5735 8.40219C18.2509 8.72997 18.1843 9.39066 18.1843 9.88746C18.1843 10.3843 18.2509 11.0449 18.5684 11.3676C18.9013 11.7005 19.5825 11.7517 19.9615 11.7517C20.4276 11.7517 21.0422 11.6851 21.3648 11.3625C21.6875 11.0449 21.7541 10.3843 21.7541 9.88746C21.7541 9.39066 21.6875 8.72997 21.3648 8.40219C21.0473 8.07953 20.4276 8.01295 19.9666 8.01295C19.5057 8.01807 18.886 8.08465 18.5735 8.40219ZM32.407 30.5685C33.0319 30.5685 33.5389 31.0961 33.5389 31.7516V36.8169C33.5389 37.4674 33.0319 38 32.407 38H7.61841C6.99357 38 6.48653 37.4725 6.48653 36.8169V31.7516C6.48653 31.1012 6.99357 30.5685 7.61841 30.5685H10.0461L16.5095 12.4073C16.1254 11.7466 15.9308 10.9067 15.9308 9.89258C15.9308 8.50462 16.2944 7.4342 17.0063 6.71206C17.6977 6.01552 18.6913 5.66213 19.9666 5.66213C21.2419 5.66213 22.2406 6.01552 22.932 6.71206C23.6542 7.43933 24.0178 8.50974 24.0178 9.8977C24.0178 10.9118 23.8181 11.7466 23.434 12.4124L29.8974 30.5737H32.407V30.5685ZM6.18436 15.7415C6.63506 16.1922 6.6453 16.945 6.21509 17.4162C5.99486 17.6569 5.6978 17.7747 5.40075 17.7747C5.11906 17.7747 4.83737 17.6672 4.61714 17.4418C2.88092 15.6902 2 13.1499 2 9.89258C2 6.63523 2.88092 4.09491 4.61714 2.33308C5.06785 1.87725 5.77975 1.89262 6.21509 2.36381C6.65042 2.83499 6.64018 3.57763 6.18948 4.03345C4.9142 5.32922 4.26375 7.30104 4.26375 9.89258C4.25863 12.4841 4.90908 14.4508 6.18436 15.7415ZM10.5224 15.2344C10.2407 15.2344 9.95899 15.1269 9.73876 14.9015C8.57103 13.7287 7.98204 12.0385 7.98204 9.88233C7.98204 7.73126 8.57103 6.04112 9.73876 4.86315C10.1895 4.41245 10.9014 4.42269 11.3367 4.89388C11.772 5.35995 11.7618 6.10771 11.3111 6.56353C10.6043 7.28056 10.2458 8.39707 10.2458 9.88746C10.2458 11.3778 10.6043 12.4944 11.3111 13.2063C11.7567 13.657 11.772 14.4098 11.3418 14.8759C11.1113 15.1115 10.8194 15.2344 10.5224 15.2344ZM35.3776 2.33308C37.1138 4.08979 37.9947 6.63011 37.9947 9.89258C37.9947 13.1499 37.1138 15.6902 35.3776 17.4418C35.1573 17.6621 34.8756 17.7747 34.5939 17.7747C34.2969 17.7747 33.9998 17.6518 33.7847 17.4111C33.3494 16.9399 33.3648 16.1973 33.8155 15.7415C35.0907 14.4508 35.7412 12.4841 35.7412 9.89258C35.7412 7.29592 35.0907 5.3241 33.8155 4.02833C33.3648 3.57251 33.3545 2.82475 33.7899 2.35868C34.2201 1.89262 34.932 1.87725 35.3776 2.33308ZM28.6017 14.8759C28.1714 14.4047 28.1817 13.6621 28.6324 13.2063C29.3392 12.4944 29.6977 11.3778 29.6977 9.89258C29.6977 8.40731 29.3392 7.28568 28.6324 6.57377C28.1817 6.11795 28.1663 5.37019 28.6017 4.899C29.0319 4.42782 29.7489 4.41757 30.1996 4.8734C31.3673 6.05137 31.9563 7.7415 31.9563 9.89258C31.9563 12.0488 31.3622 13.7338 30.1996 14.9118C29.9742 15.132 29.6977 15.2395 29.4109 15.2395C29.1189 15.2344 28.8168 15.1115 28.6017 14.8759Z" fill="#86888C"/>
</svg>
