<svg width="28" height="28" viewBox="0 0 28 28" fill="none" xmlns="http://www.w3.org/2000/svg">
<path fill-rule="evenodd" clip-rule="evenodd" d="M21.5202 25.4225V23.6197H14.9167C14.8416 23.6197 14.6982 23.6163 14.6982 23.6163C14.6982 23.6163 14.5616 23.6197 14.4865 23.6197H13.5134C13.4314 23.6197 13.2778 23.6163 13.2778 23.6163C13.2778 23.6163 13.1276 23.6197 13.0456 23.6197H6.50019V25.4225H21.5202ZM12.6188 20.3521L12.0213 22.0457H13.0456C13.1276 22.0457 13.2846 22.0491 13.2846 22.0491C13.2846 22.0491 13.4314 22.0457 13.5134 22.0457H14.4865C14.5616 22.0457 14.7016 22.0491 14.7016 22.0491C14.7016 22.0491 14.8416 22.0457 14.9167 22.0457H15.9752L15.3674 20.3521H12.6188ZM13.9846 16.4836L13.1754 18.7747H14.8074L13.9846 16.4836ZM13.049 7.26813C12.8339 7.48665 12.7895 7.92711 12.7895 8.2583C12.7895 8.5895 12.8339 9.02996 13.0456 9.24507C13.2675 9.46701 13.7217 9.50115 13.9743 9.50115C14.285 9.50115 14.6948 9.45676 14.9099 9.24165C15.125 9.02996 15.1694 8.5895 15.1694 8.2583C15.1694 7.92711 15.125 7.48665 14.9099 7.26813C14.6982 7.05302 14.285 7.00863 13.9777 7.00863C13.6704 7.01205 13.2573 7.05643 13.049 7.26813ZM22.2713 22.0457C22.6879 22.0457 23.0259 22.3974 23.0259 22.8344V26.2113C23.0259 26.6449 22.6879 27 22.2713 27H5.74561C5.32905 27 4.99102 26.6483 4.99102 26.2113V22.8344C4.99102 22.4008 5.32905 22.0457 5.74561 22.0457H7.36404L11.673 9.93819C11.4169 9.49774 11.2872 8.93777 11.2872 8.26172C11.2872 7.33641 11.5296 6.6228 12.0042 6.14137C12.4652 5.67701 13.1276 5.44142 13.9777 5.44142C14.8279 5.44142 15.4937 5.67701 15.9547 6.14137C16.4361 6.62622 16.6785 7.33983 16.6785 8.26513C16.6785 8.94119 16.5454 9.49774 16.2893 9.94161L20.5983 22.0491H22.2713V22.0457ZM4.78957 12.161C5.09004 12.4614 5.09687 12.9634 4.81006 13.2775C4.66324 13.438 4.4652 13.5165 4.26717 13.5165C4.07937 13.5165 3.89158 13.4448 3.74476 13.2946C2.58728 12.1268 2 10.4333 2 8.26172C2 6.09015 2.58728 4.39661 3.74476 3.22205C4.04523 2.91817 4.51983 2.92841 4.81006 3.24254C5.10028 3.55666 5.09345 4.05175 4.79299 4.35563C3.9428 5.21948 3.50917 6.53403 3.50917 8.26172C3.50575 9.98941 3.93938 11.3005 4.78957 12.161ZM7.68158 11.8229C7.49378 11.8229 7.30599 11.7512 7.15917 11.601C6.38069 10.8191 5.98803 9.69236 5.98803 8.25489C5.98803 6.82084 6.38069 5.69408 7.15917 4.90877C7.45964 4.6083 7.93424 4.61513 8.22447 4.92926C8.51469 5.23997 8.50786 5.73847 8.20739 6.04235C7.73621 6.52037 7.4972 7.26471 7.4972 8.2583C7.4972 9.2519 7.73621 9.99624 8.20739 10.4708C8.50445 10.7713 8.51469 11.2732 8.22788 11.5839C8.07423 11.741 7.87961 11.8229 7.68158 11.8229ZM24.2517 3.22205C25.4092 4.39319 25.9965 6.08674 25.9965 8.26172C25.9965 10.4333 25.4092 12.1268 24.2517 13.2946C24.1049 13.4414 23.9171 13.5165 23.7293 13.5165C23.5313 13.5165 23.3332 13.4345 23.1898 13.2741C22.8996 12.9599 22.9098 12.4649 23.2103 12.161C24.0605 11.3005 24.4941 9.98941 24.4941 8.26172C24.4941 6.53061 24.0605 5.21607 23.2103 4.35222C22.9098 4.04834 22.903 3.54983 23.1932 3.23912C23.48 2.92841 23.9546 2.91817 24.2517 3.22205ZM19.7344 11.5839C19.4476 11.2698 19.4545 10.7747 19.7549 10.4708C20.2261 9.99624 20.4651 9.2519 20.4651 8.26172C20.4651 7.27154 20.2261 6.52378 19.7549 6.04918C19.4545 5.7453 19.4442 5.2468 19.7344 4.93267C20.0212 4.61854 20.4993 4.61172 20.7997 4.9156C21.5782 5.70091 21.9709 6.82767 21.9709 8.26172C21.9709 9.69919 21.5748 10.8225 20.7997 11.6078C20.6495 11.7547 20.4651 11.8264 20.2739 11.8264C20.0793 11.8229 19.8778 11.741 19.7344 11.5839Z" fill="#86888C"/>
</svg>
