<svg width="24" height="24" viewBox="0 0 24 24" fill="none" xmlns="http://www.w3.org/2000/svg">
<path fill-rule="evenodd" clip-rule="evenodd" d="M18.2668 20.6855V19.1831H12.7639C12.7013 19.1831 12.5818 19.1803 12.5818 19.1803C12.5818 19.1803 12.468 19.1831 12.4054 19.1831H11.5945C11.5262 19.1831 11.3982 19.1803 11.3982 19.1803C11.3982 19.1803 11.273 19.1831 11.2047 19.1831H5.75016V20.6855H18.2668ZM10.849 16.4601L10.3511 17.8714H11.2047C11.273 17.8714 11.4038 17.8743 11.4038 17.8743C11.4038 17.8743 11.5262 17.8714 11.5945 17.8714H12.4054C12.468 17.8714 12.5847 17.8743 12.5847 17.8743C12.5847 17.8743 12.7013 17.8714 12.7639 17.8714H13.646L13.1395 16.4601H10.849ZM11.9871 13.2363L11.3128 15.1456H12.6729L11.9871 13.2363ZM11.2075 5.55677C11.0283 5.73887 10.9913 6.10592 10.9913 6.38192C10.9913 6.65792 11.0283 7.02497 11.2047 7.20422C11.3896 7.38917 11.7681 7.41762 11.9786 7.41762C12.2375 7.41762 12.579 7.38064 12.7582 7.20138C12.9375 7.02497 12.9745 6.65792 12.9745 6.38192C12.9745 6.10592 12.9375 5.73887 12.7582 5.55677C12.5818 5.37752 12.2375 5.34053 11.9815 5.34053C11.7254 5.34337 11.3811 5.38036 11.2075 5.55677ZM18.8928 17.8714C19.2399 17.8714 19.5216 18.1645 19.5216 18.5287V21.3427C19.5216 21.7041 19.2399 22 18.8928 22H5.12134C4.77421 22 4.49252 21.7069 4.49252 21.3427V18.5287C4.49252 18.1673 4.77421 17.8714 5.12134 17.8714H6.47003L10.0608 7.78183C9.84745 7.41478 9.73933 6.94814 9.73933 6.38477C9.73933 5.61368 9.94134 5.019 10.3368 4.61781C10.721 4.23084 11.273 4.03451 11.9815 4.03451C12.6899 4.03451 13.2448 4.23084 13.6289 4.61781C14.0301 5.02185 14.2321 5.61652 14.2321 6.38761C14.2321 6.95099 14.1211 7.41478 13.9077 7.78467L17.4986 17.8743H18.8928V17.8714ZM4.32464 9.63415C4.57503 9.88454 4.58072 10.3028 4.34172 10.5646C4.21937 10.6983 4.05434 10.7637 3.88931 10.7637C3.73281 10.7637 3.57632 10.704 3.45397 10.5788C2.4894 9.60569 2 8.1944 2 6.38477C2 4.57513 2.4894 3.16384 3.45397 2.18504C3.70436 1.93181 4.09986 1.94034 4.34172 2.20211C4.58357 2.46389 4.57788 2.87646 4.32749 3.1297C3.619 3.84957 3.25764 4.94502 3.25764 6.38477C3.2548 7.82451 3.61615 8.91712 4.32464 9.63415ZM6.73465 9.35246C6.57815 9.35246 6.42166 9.2927 6.29931 9.16751C5.65057 8.51593 5.32336 7.57696 5.32336 6.37907C5.32336 5.18403 5.65057 4.24507 6.29931 3.59064C6.5497 3.34025 6.9452 3.34594 7.18706 3.60771C7.42891 3.86664 7.42322 4.28206 7.17283 4.53529C6.78017 4.93364 6.581 5.55393 6.581 6.38192C6.581 7.20991 6.78017 7.8302 7.17283 8.2257C7.42037 8.47609 7.42891 8.89436 7.1899 9.15328C7.06186 9.28417 6.89968 9.35246 6.73465 9.35246ZM20.5431 2.18504C21.5077 3.16099 21.9971 4.57228 21.9971 6.38477C21.9971 8.1944 21.5077 9.60569 20.5431 10.5788C20.4207 10.7011 20.2642 10.7637 20.1077 10.7637C19.9427 10.7637 19.7777 10.6955 19.6582 10.5617C19.4163 10.3 19.4249 9.88738 19.6753 9.63415C20.3837 8.91712 20.7451 7.82451 20.7451 6.38477C20.7451 4.94218 20.3837 3.84672 19.6753 3.12685C19.4249 2.87361 19.4192 2.45819 19.661 2.19927C19.9 1.94034 20.2955 1.93181 20.5431 2.18504ZM16.7787 9.15328C16.5397 8.89151 16.5454 8.47894 16.7958 8.2257C17.1884 7.8302 17.3876 7.20991 17.3876 6.38477C17.3876 5.55962 17.1884 4.93649 16.7958 4.54098C16.5454 4.28775 16.5368 3.87233 16.7787 3.61056C17.0177 3.34879 17.4161 3.3431 17.6664 3.59633C18.3152 4.25076 18.6424 5.18972 18.6424 6.38477C18.6424 7.58265 18.3123 8.51877 17.6664 9.1732C17.5412 9.29555 17.3876 9.3553 17.2283 9.3553C17.0661 9.35246 16.8982 9.28417 16.7787 9.15328Z" fill="#86888C"/>
</svg>
