<svg width="20" height="20" viewBox="0 0 20 20" fill="none" xmlns="http://www.w3.org/2000/svg">
<path fill-rule="evenodd" clip-rule="evenodd" d="M14.5828 2H17.2032C17.6426 2 18 2.35743 18 2.79681V5.41719C18 5.85657 17.6426 6.214 17.2032 6.214H14.5828C14.1434 6.214 13.786 5.85657 13.786 5.41719V2.79681C13.786 2.35743 14.1434 2 14.5828 2ZM8.69095 2H11.3113C11.7507 2 12.1081 2.35743 12.1081 2.79681V5.41719C12.1081 5.85657 11.7507 6.214 11.3113 6.214H8.69095C8.25156 6.214 7.89414 5.85657 7.89414 5.41719V2.79681C7.89414 2.35743 8.24929 2 8.69095 2ZM2.79681 2H5.41719C5.85657 2 6.214 2.35743 6.214 2.79681V5.41719C6.214 5.85657 5.85657 6.214 5.41719 6.214H2.79681C2.35743 6.214 2 5.85657 2 5.41719V2.79681C2 2.35743 2.35743 2 2.79681 2ZM14.5828 7.89414H17.2032C17.6426 7.89414 18 8.25156 18 8.69095V11.3113C18 11.7507 17.6426 12.1081 17.2032 12.1081H14.5828C14.1434 12.1081 13.786 11.7507 13.786 11.3113V8.69095C13.786 8.24929 14.1434 7.89414 14.5828 7.89414ZM8.69095 7.89414H11.3113C11.7507 7.89414 12.1081 8.25156 12.1081 8.69095V11.3113C12.1081 11.7507 11.7507 12.1081 11.3113 12.1081H8.69095C8.25156 12.1081 7.89414 11.7507 7.89414 11.3113V8.69095C7.89414 8.24929 8.24929 7.89414 8.69095 7.89414ZM2.79681 7.89414H5.41719C5.85657 7.89414 6.214 8.25156 6.214 8.69095V11.3113C6.214 11.7507 5.85657 12.1081 5.41719 12.1081H2.79681C2.35743 12.1081 2 11.7507 2 11.3113V8.69095C2 8.24929 2.35743 7.89414 2.79681 7.89414ZM8.69095 13.786H11.3113C11.7507 13.786 12.1081 14.1434 12.1081 14.5828V17.2032C12.1081 17.6426 11.7507 18 11.3113 18H8.69095C8.25156 18 7.89414 17.6426 7.89414 17.2032V14.5828C7.89414 14.1434 8.24929 13.786 8.69095 13.786ZM14.5646 13.786H17.185C17.6244 13.786 17.9818 14.1434 17.9818 14.5828V17.2032C17.9818 17.6426 17.6244 18 17.185 18H14.5646C14.1252 18 13.7678 17.6426 13.7678 17.2032V14.5828C13.7678 14.1434 14.1229 13.786 14.5646 13.786ZM2.79681 13.786H5.41719C5.85657 13.786 6.214 14.1434 6.214 14.5828V17.2032C6.214 17.6426 5.85657 18 5.41719 18H2.79681C2.35743 18 2 17.6426 2 17.2032V14.5828C2 14.1434 2.35743 13.786 2.79681 13.786Z" fill="#86888C"/>
</svg>
