<svg width="20" height="20" viewBox="0 0 20 20" fill="none" xmlns="http://www.w3.org/2000/svg">
<path fill-rule="evenodd" clip-rule="evenodd" d="M16.9983 9.99203V7.5128H3.00171V14.8571C3.00171 14.955 3.08366 15.0347 3.18611 15.0347H11.63C11.6665 14.955 11.7166 14.8822 11.7803 14.8207L12.0808 14.5316C12.0512 14.4519 12.0262 14.3722 12.0034 14.2903H11.6665C11.2271 14.2903 10.8674 13.9442 10.8674 13.5208V12.9835C10.8674 12.56 11.2248 12.2163 11.6665 12.2163H12.0034C12.0239 12.1389 12.0489 12.0569 12.0808 11.975L11.7803 11.6881C11.4775 11.399 11.4684 10.9186 11.7575 10.6181C11.7644 10.609 11.7735 10.6022 11.7803 10.5953L12.1878 10.2015C12.5065 9.89869 13.0051 9.89869 13.3238 10.2015L13.6244 10.4929C13.704 10.4656 13.786 10.4405 13.8725 10.4178V10.0945C13.8725 9.66875 14.2299 9.32498 14.6716 9.32498H15.2294C15.6687 9.32498 16.0284 9.66875 16.0284 10.0945V10.4178C16.1127 10.4405 16.1946 10.4656 16.2766 10.4952L16.5771 10.206C16.6955 10.0876 16.8412 10.0193 16.9983 9.99203ZM14.9106 14.6363C15.8554 14.6363 16.4405 14.0717 16.4405 13.1633C16.4405 12.255 15.8531 11.6904 14.9106 11.6904C13.9658 11.6904 13.3808 12.255 13.3808 13.1633C13.3808 14.0717 13.9658 14.6363 14.9106 14.6363ZM3.98748 5.3045C3.73022 5.3045 3.52305 5.50484 3.52305 5.75071C3.52305 5.99658 3.73022 6.19693 3.98748 6.19693C4.2379 6.20148 4.44735 6.00114 4.4519 5.75071C4.4519 5.50484 4.24473 5.3045 3.98748 5.3045ZM5.38076 5.3045C5.1235 5.3045 4.91633 5.50484 4.91633 5.75071C4.91633 5.99658 5.1235 6.19693 5.38076 6.19693C5.63119 6.20148 5.84063 6.00114 5.84519 5.75071C5.84519 5.50484 5.63802 5.3045 5.38076 5.3045ZM6.77404 5.3045C6.51679 5.3045 6.30962 5.50484 6.30962 5.75071C6.30962 5.99658 6.51679 6.19693 6.77404 6.19693C7.02447 6.20148 7.23392 6.00114 7.23847 5.75071C7.23847 5.50484 7.0313 5.3045 6.77404 5.3045ZM16.8116 4C17.4673 4 18 4.51224 18 5.14513V14.8571C18 15.4878 17.4673 16 16.8116 16H3.18839C2.53273 16.0023 2 15.4878 2 14.8571V5.14513C2 4.51451 2.53273 4 3.18839 4H16.8116Z" fill="#86888C"/>
<path d="M4.71826 9.33181H5.45588L6.51451 12.2664H5.79737L5.55378 11.5287H4.60216L4.3745 12.2664H3.73705L4.71826 9.33181ZM5.39214 11.0438L5.07114 10.0649H5.06203L4.75697 11.0438H5.39214ZM6.856 9.33181H7.86453C8.32441 9.33181 8.61581 9.39556 8.80477 9.57313C8.96413 9.71883 9.04154 9.94649 9.04154 10.2607C9.04154 10.5748 8.96869 10.8093 8.82298 10.9732C8.65224 11.1668 8.38588 11.2555 7.99885 11.2555H7.5276V12.2686H6.85827V9.33181H6.856ZM7.85543 10.7524C8.06943 10.7524 8.16049 10.7228 8.24473 10.6409C8.32213 10.5635 8.36083 10.4382 8.36083 10.2675C8.36083 10.1081 8.32668 9.99203 8.24928 9.91918C8.16732 9.84632 8.04438 9.81673 7.83721 9.81673H7.52304V10.7524H7.85543ZM9.5219 9.33181H10.1912V12.2664H9.5219V9.33181Z" fill="#86888C"/>
</svg>
