<svg width="40" height="40" viewBox="0 0 40 40" fill="none" xmlns="http://www.w3.org/2000/svg">
<path d="M26.0299 38C25.6347 38 25.2601 37.8312 24.9983 37.5347L17.3773 29.8438C17.3568 29.8182 17.3311 29.7977 17.3106 29.7722C16.9616 29.3426 16.8898 28.7545 17.131 28.2534C17.3568 27.7676 17.8443 27.4557 18.3832 27.4557L21.7241 27.4301L21.7139 22.1324C21.7139 20.9205 22.6992 19.9386 23.9155 19.9335H28.1648C29.3811 19.9335 30.3664 20.9153 30.3664 22.1273L30.3715 27.4301L33.7176 27.4557C34.2565 27.4557 34.744 27.7676 34.9698 28.2534C35.2059 28.7545 35.1392 29.3426 34.7902 29.7722C34.7697 29.7977 34.7491 29.8233 34.7235 29.8438L27.0614 37.5398C26.7997 37.8312 26.425 38 26.0299 38ZM16.1764 20.046H11.9323C10.716 20.046 9.73066 19.0642 9.73066 17.8523L9.72553 12.5545L6.3846 12.529C5.84574 12.529 5.36334 12.217 5.13753 11.7312C4.90146 11.2301 4.9733 10.642 5.32228 10.2125C5.34281 10.1869 5.36334 10.1614 5.389 10.1409L13.0357 2.46023C13.2974 2.16875 13.672 2 14.0672 2C14.4624 2 14.837 2.16875 15.0987 2.46023L22.7095 10.146C22.73 10.1716 22.7557 10.192 22.7762 10.2176C23.1252 10.6472 23.197 11.2352 22.9558 11.7312C22.8453 11.9695 22.6686 12.1712 22.4467 12.3125C22.2248 12.4539 21.967 12.529 21.7036 12.529L18.3678 12.5545L18.3729 17.8523C18.3781 19.0642 17.3927 20.046 16.1764 20.046Z" fill="#86888C"/>
</svg>
