<svg width="40" height="40" viewBox="0 0 40 40" fill="none" xmlns="http://www.w3.org/2000/svg">
<path d="M15.9179 37.8907H15.8704C15.0324 37.8788 14.2182 37.476 13.4456 36.7059L2.74216 26.078L2.7065 26.0424C2.02899 25.3078 1.77344 24.5436 1.93985 23.7616C2.09436 23.0507 2.5817 22.482 3.04525 22.0199L3.07497 21.9903L13.921 11.8186L8.44749 6.36246L8.42966 6.34469C7.7581 5.64564 7.56198 4.45489 7.9661 3.51295C8.34052 2.63618 9.1666 2.11486 10.171 2.11486L35.8272 2.11486C36.4215 2.07339 36.9563 2.26296 37.3486 2.65395C37.7408 3.04495 37.931 3.58404 37.8835 4.17053L37.8716 29.8576C37.8953 30.7343 37.3783 31.5341 36.57 31.8777C35.6013 32.3102 34.3473 32.1147 33.5866 31.4215L33.551 31.3919L28.5053 26.3564L18.3427 36.7296L18.3308 36.7414C17.576 37.5056 16.7618 37.8907 15.9179 37.8907Z" fill="#86888C"/>
</svg>
