<svg width="28" height="28" viewBox="0 0 28 28" fill="none" xmlns="http://www.w3.org/2000/svg">
<path d="M1.94824 13.9847C1.94824 13.6445 2.09876 13.3213 2.35873 13.1036L13.5241 2.36733C13.5378 2.35372 13.5514 2.34352 13.5651 2.32991C13.938 2.02714 14.4511 1.96591 14.8821 2.17342C15.2994 2.36393 15.5663 2.77555 15.5663 3.2314L15.5663 8.0076L23.6221 8.0076C24.9049 8.0076 25.9482 9.04517 25.9482 10.3209L25.9482 17.6451C25.9482 18.9241 24.9083 19.9583 23.6221 19.9583L15.5663 19.9549L15.5663 24.7651C15.5663 25.221 15.2994 25.636 14.8821 25.8265C14.4511 26.034 13.9346 25.9728 13.5651 25.67C13.5514 25.6598 13.5378 25.6462 13.5241 25.6326L2.35873 14.8691C2.09876 14.648 1.94824 14.3248 1.94824 13.9847Z" fill="#86888C"/>
</svg>
