<svg width="28" height="28" viewBox="0 0 28 28" fill="none" xmlns="http://www.w3.org/2000/svg">
<path d="M25.9482 14.0153C25.9482 14.3555 25.7977 14.6787 25.5378 14.8964L14.3724 25.6327C14.3587 25.6463 14.345 25.6565 14.3314 25.6701C13.9585 25.9729 13.4454 26.0341 13.0144 25.8266C12.597 25.6361 12.3302 25.2244 12.3302 24.7686L12.3302 19.9924L4.27435 19.9924C2.99157 19.9924 1.94824 18.9548 1.94824 17.6791L1.94824 10.3549C1.94824 9.07585 2.98815 8.04169 4.27435 8.04169L12.3302 8.04509L12.3302 3.23487C12.3302 2.77902 12.597 2.364 13.0144 2.17349C13.4454 1.96598 13.9619 2.02721 14.3314 2.32998C14.345 2.34018 14.3587 2.35379 14.3724 2.3674L25.5378 13.1309C25.7977 13.352 25.9482 13.6752 25.9482 14.0153Z" fill="#86888C"/>
</svg>
