<svg width="28" height="28" viewBox="0 0 28 28" fill="none" xmlns="http://www.w3.org/2000/svg">
<path d="M18.0199 26C17.7565 26 17.5067 25.8875 17.3322 25.6898L12.2516 20.5625C12.2379 20.5455 12.2208 20.5318 12.2071 20.5148C11.9744 20.2284 11.9265 19.8364 12.0873 19.5023C12.2379 19.1784 12.5629 18.9705 12.9221 18.9705L15.1494 18.9534L15.1426 15.4216C15.1426 14.6136 15.7995 13.9591 16.6103 13.9557H19.4432C20.254 13.9557 20.9109 14.6102 20.9109 15.4182L20.9144 18.9534L23.1451 18.9705C23.5043 18.9705 23.8293 19.1784 23.9799 19.5023C24.1373 19.8364 24.0928 20.2284 23.8601 20.5148C23.8464 20.5318 23.8328 20.5489 23.8156 20.5625L18.7076 25.6932C18.5331 25.8875 18.2834 26 18.0199 26ZM11.451 14.0307H8.62152C7.81067 14.0307 7.15377 13.3761 7.15377 12.5682L7.15035 9.03636L4.92307 9.01932C4.56383 9.01932 4.24222 8.81136 4.09169 8.4875C3.9343 8.15341 3.9822 7.76136 4.21485 7.475C4.22854 7.45795 4.24222 7.44091 4.25933 7.42727L9.35711 2.30682C9.5316 2.1125 9.78136 2 10.0448 2C10.3082 2 10.558 2.1125 10.7325 2.30682L15.8063 7.43068C15.82 7.44773 15.8371 7.46136 15.8508 7.47841C16.0834 7.76477 16.1313 8.15682 15.9705 8.4875C15.8969 8.6463 15.7791 8.78077 15.6312 8.87501C15.4832 8.96925 15.3113 9.01933 15.1357 9.01932L12.9119 9.03636L12.9153 12.5682C12.9187 13.3761 12.2618 14.0307 11.451 14.0307Z" fill="#86888C"/>
</svg>
