<svg width="28" height="28" viewBox="0 0 28 28" fill="none" xmlns="http://www.w3.org/2000/svg">
<path d="M26.0361 10.0162C26.0361 10.2797 25.9236 10.5294 25.7259 10.7039L20.5986 15.7846C20.5816 15.7983 20.568 15.8154 20.5509 15.8291C20.2645 16.0617 19.8725 16.1096 19.5384 15.9488C19.2145 15.7983 19.0066 15.4732 19.0066 15.114L18.9895 12.8867L15.4577 12.8936C14.6498 12.8936 13.9952 12.2367 13.9918 11.4258L13.9918 8.59294C13.9918 7.78209 14.6464 7.12519 15.4543 7.12519L18.9895 7.12177L19.0066 4.89106C19.0066 4.53182 19.2145 4.2068 19.5384 4.05626C19.8725 3.89888 20.2645 3.94336 20.5509 4.17601C20.568 4.18969 20.585 4.20338 20.5986 4.22048L25.7293 9.32853C25.9236 9.50302 26.0361 9.75277 26.0361 10.0162ZM14.0668 16.5852V19.4146C14.0668 20.2255 13.4123 20.8824 12.6043 20.8824L9.0725 20.8858L9.05545 23.1131C9.05545 23.4723 8.8475 23.7939 8.52363 23.9444C8.18954 24.1018 7.7975 24.0539 7.51113 23.8213C7.49409 23.8076 7.47704 23.7939 7.46341 23.7768L2.34295 18.679C2.14863 18.5045 2.03613 18.2548 2.03613 17.9913C2.03613 17.7279 2.14863 17.4781 2.34295 17.3036L7.46681 12.2298C7.48386 12.2161 7.4975 12.199 7.51454 12.1853C7.80091 11.9527 8.19295 11.9048 8.52363 12.0656C8.68244 12.1393 8.8169 12.257 8.91114 12.405C9.00538 12.5529 9.05546 12.7248 9.05545 12.9004L9.0725 15.1243L12.6043 15.1208C13.4123 15.1174 14.0668 15.7743 14.0668 16.5852Z" fill="#86888C"/>
</svg>
