<svg width="28" height="28" viewBox="0 0 28 28" fill="none" xmlns="http://www.w3.org/2000/svg">
<path d="M11.2783 25.9272H11.2466C10.6879 25.9193 10.1451 25.6507 9.63008 25.1373L2.49445 18.052L2.47067 18.0283C2.019 17.5386 1.84863 17.0291 1.95957 16.5078C2.06258 16.0339 2.38747 15.6547 2.69651 15.3467L2.71632 15.3269L9.94704 8.54576L6.298 4.90835L6.28612 4.8965C5.83841 4.43047 5.70766 3.63663 5.97708 3.00867C6.22668 2.42416 6.77741 2.07661 7.44699 2.07661L24.5511 2.07661C24.9473 2.04897 25.3039 2.17535 25.5654 2.43601C25.8269 2.69667 25.9537 3.05607 25.922 3.44706L25.9141 20.5717C25.9299 21.1563 25.5852 21.6894 25.0464 21.9185C24.4006 22.2068 23.5646 22.0765 23.0574 21.6144L23.0337 21.5947L19.6699 18.2376L12.8948 25.1531L12.8869 25.161C12.3837 25.6705 11.8409 25.9272 11.2783 25.9272Z" fill="#86888C"/>
</svg>
