<svg width="20" height="20" viewBox="0 0 20 20" fill="none" xmlns="http://www.w3.org/2000/svg">
<path d="M11.7168 2.04855H11.738C12.1104 2.05382 12.4722 2.23286 12.8156 2.57514L17.5727 7.29865L17.5886 7.31445C17.8897 7.64094 18.0033 7.98059 17.9293 8.32814C17.8606 8.64409 17.644 8.89685 17.438 9.10222L17.4248 9.11539L12.6043 13.6362L15.037 16.0611L15.0449 16.069C15.3434 16.3797 15.4306 16.9089 15.251 17.3275C15.0846 17.7172 14.7174 17.9489 14.271 17.9489H2.86827C2.60413 17.9674 2.36641 17.8831 2.19208 17.7093C2.01775 17.5356 1.93323 17.296 1.95436 17.0353L1.95964 5.61883C1.94907 5.22916 2.17887 4.87371 2.5381 4.721C2.96864 4.52879 3.52597 4.61568 3.86406 4.92373L3.87991 4.9369L6.12242 7.1749L10.6391 2.56461L10.6444 2.55935C10.9799 2.2197 11.3417 2.04855 11.7168 2.04855Z" fill="#86888C"/>
</svg>
