<svg width="40" height="40" viewBox="0 0 40 40" fill="none" xmlns="http://www.w3.org/2000/svg">
<path d="M23.8633 2.10931H23.9109C24.7488 2.12116 25.563 2.524 26.3356 3.29414L37.0391 13.922L37.0748 13.9576C37.7523 14.6922 38.0078 15.4564 37.8414 16.2384C37.6869 16.9493 37.1996 17.518 36.736 17.9801L36.7063 18.0097L25.8602 28.1814L31.3338 33.6375L31.3516 33.6553C32.0232 34.3544 32.2193 35.5451 31.8151 36.487C31.4407 37.3638 30.6146 37.8851 29.6103 37.8851H3.95409C3.35979 37.9266 2.82491 37.737 2.43267 37.346C2.04043 36.9551 1.85025 36.416 1.89779 35.8295L1.90968 10.1424C1.88591 9.26567 2.40295 8.4659 3.21121 8.1223C4.17993 7.68984 5.43391 7.88534 6.19462 8.57846L6.23028 8.60809L11.2759 13.6436L21.4386 3.27044L21.4505 3.25859C22.2052 2.49438 23.0194 2.10931 23.8633 2.10931Z" fill="#86888C"/>
</svg>
