<svg width="40" height="40" viewBox="0 0 40 40" fill="none" xmlns="http://www.w3.org/2000/svg">
<path d="M1.92236 19.977C1.92236 19.4668 2.14813 18.982 2.5381 18.6554L19.2861 2.55105C19.3066 2.53064 19.3272 2.51534 19.3477 2.49492C19.907 2.04078 20.6766 1.94893 21.3232 2.2602C21.9492 2.54595 22.3494 3.16339 22.3494 3.84716L22.3494 11.0115L34.4332 11.0115C36.3574 11.0115 37.9224 12.5678 37.9224 14.4814L37.9224 25.4676C37.9224 27.3863 36.3625 28.9375 34.4332 28.9375L22.3494 28.9324L22.3494 36.1478C22.3494 36.8315 21.9492 37.4541 21.3232 37.7398C20.6766 38.0511 19.9018 37.9592 19.3477 37.5051C19.3272 37.4898 19.3066 37.4694 19.2861 37.449L2.5381 21.3038C2.14813 20.9721 1.92236 20.4873 1.92236 19.977Z" fill="#86888C"/>
</svg>
