<svg width="24" height="24" viewBox="0 0 24 24" fill="none" xmlns="http://www.w3.org/2000/svg">
<path d="M1.95703 11.9873C1.95703 11.7038 2.08246 11.4345 2.2991 11.253L11.6036 2.30617C11.615 2.29483 11.6264 2.28632 11.6378 2.27498C11.9485 2.02268 12.3761 1.97165 12.7353 2.14458C13.083 2.30333 13.3054 2.64635 13.3054 3.02623L13.3054 7.0064L20.0186 7.0064C21.0876 7.0064 21.957 7.87103 21.957 8.93411L21.957 15.0376C21.957 16.1035 21.0904 16.9653 20.0186 16.9653L13.3054 16.9625L13.3054 20.971C13.3054 21.3509 13.083 21.6967 12.7353 21.8555C12.3761 22.0284 11.9456 21.9774 11.6378 21.7251C11.6264 21.7166 11.615 21.7052 11.6036 21.6939L2.2991 12.7243C2.08246 12.5401 1.95703 12.2708 1.95703 11.9873Z" fill="#86888C"/>
</svg>
