<svg width="40" height="40" viewBox="0 0 40 40" fill="none" xmlns="http://www.w3.org/2000/svg">
<path d="M1.99981 16.0273V15.9797C2.01166 15.1418 2.4145 14.3276 3.18464 13.555L13.8125 2.85153L13.8481 2.81587C14.5827 2.13836 15.3469 1.88282 16.1289 2.04922C16.8398 2.20374 17.4085 2.69107 17.8706 3.15463L17.9002 3.18434L28.0719 14.0304L33.528 8.55687L33.5458 8.53904C34.2449 7.86747 35.4356 7.67135 36.3776 8.07548C37.2543 8.44989 37.7756 9.27598 37.7756 10.2804V35.9365C37.8171 36.5308 37.6275 37.0657 37.2366 37.458C36.8456 37.8502 36.3065 38.0404 35.72 37.9928L10.0329 37.9809C9.15617 38.0047 8.35641 37.4877 8.01281 36.6794C7.58035 35.7107 7.77584 34.4567 8.46897 33.696L8.49859 33.6603L13.5341 28.6147L3.16095 18.4521L3.1491 18.4402C2.38488 17.6854 1.99981 16.8712 1.99981 16.0273Z" fill="#86888C"/>
</svg>
