<svg width="24" height="24" viewBox="0 0 24 24" fill="none" xmlns="http://www.w3.org/2000/svg">
<path d="M11.9699 2C12.2534 2 12.5227 2.12542 12.7041 2.34207L21.651 11.6465C21.6623 11.6579 21.6708 11.6693 21.6822 11.6807C21.9345 11.9914 21.9855 12.419 21.8126 12.7782C21.6538 13.126 21.3108 13.3483 20.9309 13.3483L16.9508 13.3483L16.9508 20.0616C16.9508 21.1306 16.0861 22 15.023 22L8.91955 22C7.85364 22 6.99183 21.1334 6.99183 20.0616L6.99467 13.3483L2.98615 13.3483C2.60628 13.3483 2.26042 13.126 2.10167 12.7782C1.92874 12.419 1.97977 11.9886 2.23207 11.6807C2.24058 11.6693 2.25192 11.6579 2.26326 11.6465L11.2328 2.34207C11.4171 2.12542 11.6864 2 11.9699 2Z" fill="#86888C"/>
</svg>
