<svg width="20" height="20" viewBox="0 0 20 20" fill="none" xmlns="http://www.w3.org/2000/svg">
<path d="M9.95535 18C9.72856 18 9.51311 17.8997 9.36796 17.7263L2.21046 10.2828C2.20139 10.2737 2.19459 10.2645 2.18552 10.2554C1.98367 10.0068 1.94285 9.66477 2.08119 9.37742C2.20819 9.0992 2.48261 8.92132 2.78651 8.92132H5.97064V3.55074C5.97064 2.69555 6.66235 2 7.51282 2H12.3956C13.2483 2 13.9378 2.69327 13.9378 3.55074L13.9355 8.92132H17.1423C17.4462 8.92132 17.7229 9.0992 17.8499 9.37742C17.9883 9.66477 17.9474 10.0091 17.7456 10.2554C17.7388 10.2645 17.7297 10.2737 17.7206 10.2828L10.545 17.7263C10.3976 17.8997 10.1821 18 9.95535 18Z" fill="#86888C"/>
</svg>
