<svg width="28" height="28" viewBox="0 0 28 28" fill="none" xmlns="http://www.w3.org/2000/svg">
<path d="M13.933 26C13.5928 26 13.2697 25.8495 13.0519 25.5895L2.31569 14.4242C2.30209 14.4105 2.29188 14.3968 2.27827 14.3831C1.97551 14.0103 1.91427 13.4971 2.12179 13.0661C2.31229 12.6488 2.72392 12.382 3.17976 12.382H7.95597V4.32611C7.95597 3.04333 8.99353 2 10.2692 2H17.5934C18.8725 2 19.9067 3.03991 19.9067 4.32611L19.9033 12.382H24.7135C25.1693 12.382 25.5844 12.6488 25.7749 13.0661C25.9824 13.4971 25.9212 14.0137 25.6184 14.3831C25.6082 14.3968 25.5946 14.4105 25.581 14.4242L14.8175 25.5895C14.5964 25.8495 14.2732 26 13.933 26Z" fill="#86888C"/>
</svg>
