<svg width="24" height="24" viewBox="0 0 24 24" fill="none" xmlns="http://www.w3.org/2000/svg">
<path fill-rule="evenodd" clip-rule="evenodd" d="M15.3352 5.44622C14.8799 5.44052 14.51 5.80478 14.5043 6.25726L14.4929 17.5236C14.4929 19.4673 13.5652 20.3722 11.5788 20.3722C9.58964 20.3722 8.66192 19.4673 8.66192 17.5236V5.34092C8.66192 4.13717 9.18554 3.62493 10.4178 3.62493C11.65 3.62493 12.1736 4.13717 12.1736 5.34377L12.1992 16.8805C12.1992 17.259 12.1195 17.3358 11.7325 17.3358C11.3455 17.3358 11.2686 17.259 11.2686 16.8805V6.31133C11.2629 5.85885 10.893 5.49459 10.4377 5.49744C9.9852 5.49175 9.61241 5.856 9.60672 6.30848V16.8776C9.60672 18.1611 10.4206 18.9579 11.7353 18.9579C13.0472 18.9579 13.864 18.1611 13.864 16.8776L13.8384 5.34092C13.8355 3.24929 12.5578 2 10.4178 2C8.27775 2 7 3.24929 7 5.34092V17.5236C7 20.3665 8.66762 22 11.5788 22C14.4872 22 16.1548 20.3694 16.1548 17.5265L16.1662 6.2601C16.1605 5.80478 15.7906 5.44337 15.3352 5.44622Z" fill="#86888C"/>
</svg>
