<svg width="20" height="20" viewBox="0 0 20 20" fill="none" xmlns="http://www.w3.org/2000/svg">
<path fill-rule="evenodd" clip-rule="evenodd" d="M13.3293 4.75697C12.9651 4.75242 12.6691 5.04382 12.6645 5.40581L12.6554 14.4189C12.6554 15.9738 11.9133 16.6978 10.3242 16.6978C8.73285 16.6978 7.99067 15.9738 7.99067 14.4189V4.67274C7.99067 3.70973 8.40957 3.29994 9.39534 3.29994C10.3811 3.29994 10.8 3.70973 10.8 4.67501L10.8205 13.9044C10.8205 14.2072 10.7568 14.2686 10.4471 14.2686C10.1375 14.2686 10.076 14.2072 10.076 13.9044V5.44906C10.0715 5.08708 9.77553 4.79567 9.41128 4.79795C9.04929 4.7934 8.75106 5.0848 8.74651 5.44678V13.9021C8.74651 14.9289 9.39762 15.5663 10.4494 15.5663C11.4989 15.5663 12.1523 14.9289 12.1523 13.9021L12.1318 4.67274C12.1295 2.99943 11.1073 2 9.39534 2C7.68333 2 6.66113 2.99943 6.66113 4.67274V14.4189C6.66113 16.6932 7.99522 18 10.3242 18C12.6509 18 13.985 16.6955 13.985 14.4212L13.9941 5.40808C13.9895 5.04382 13.6936 4.7547 13.3293 4.75697Z" fill="#86888C"/>
</svg>
