<svg width="28" height="28" viewBox="0 0 28 28" fill="none" xmlns="http://www.w3.org/2000/svg">
<path fill-rule="evenodd" clip-rule="evenodd" d="M19.0023 6.13546C18.4559 6.12863 18.012 6.56574 18.0051 7.10871L17.9915 20.6283C17.9915 22.9607 16.8782 24.0467 14.4946 24.0467C12.1076 24.0467 10.9943 22.9607 10.9943 20.6283V6.00911C10.9943 4.5646 11.6227 3.94991 13.1013 3.94991C14.58 3.94991 15.2083 4.5646 15.2083 6.01252L15.239 19.8566C15.239 20.3108 15.1434 20.403 14.679 20.403C14.2146 20.403 14.1224 20.3108 14.1224 19.8566V7.17359C14.1155 6.63062 13.6716 6.19351 13.1252 6.19693C12.5822 6.1901 12.1349 6.62721 12.1281 7.17018V19.8532C12.1281 21.3933 13.1047 22.3495 14.6824 22.3495C16.2567 22.3495 17.2368 21.3933 17.2368 19.8532L17.206 6.00911C17.2026 3.49915 15.6693 2 13.1013 2C10.5333 2 9 3.49915 9 6.00911V20.6283C9 24.0398 11.0011 26 14.4946 26C17.9846 26 19.9858 24.0433 19.9858 20.6318L19.9994 7.11212C19.9926 6.56574 19.5487 6.13204 19.0023 6.13546Z" fill="#86888C"/>
</svg>
