<svg width="24" height="24" viewBox="0 0 24 24" fill="none" xmlns="http://www.w3.org/2000/svg">
<path fill-rule="evenodd" clip-rule="evenodd" d="M19.2075 4.94206C18.7692 4.5436 18.0975 4.5806 17.7019 5.02175C17.3034 5.46574 17.3376 6.15449 17.7702 6.55864C17.8556 6.63833 19.8194 8.51106 19.8564 11.7528C19.8592 11.7841 19.9674 15.0144 17.8157 16.9725C17.3746 17.3738 17.3376 18.0625 17.7304 18.5122C17.941 18.7513 18.2341 18.8765 18.5301 18.8765C18.7834 18.8765 19.0396 18.7855 19.2445 18.5976C22.1446 15.9593 22.0052 11.8324 21.9966 11.693C21.9511 7.50069 19.3185 5.04452 19.2075 4.94206ZM18.365 11.7271C18.3366 8.90097 16.5464 7.23316 16.4695 7.16486C16.0284 6.76356 15.351 6.80056 14.9583 7.24739C14.5598 7.69707 14.5997 8.38583 15.038 8.78713C15.0522 8.79851 16.2048 9.9028 16.2248 11.7869C16.2276 11.804 16.2703 13.6767 15.0664 14.7725C14.6253 15.1738 14.5883 15.8625 14.981 16.3122C15.1916 16.5541 15.4848 16.6765 15.7808 16.6765C16.0341 16.6765 16.2902 16.5854 16.4951 16.3976C18.4646 14.6045 18.3679 11.8097 18.365 11.7271ZM12.2232 4C9.05546 4 7.28235 5.33482 6.30329 6.63264L3.07013 6.63548C2.78552 6.63548 2.5123 6.75217 2.31307 6.95709C2.111 7.16201 2 7.43808 2 7.72554L2.00854 15.3872C2.00854 15.9877 2.48953 16.4744 3.07867 16.4744L6.28906 16.4716C7.26242 17.7694 9.04693 19.0957 12.3057 19.0957C13.2421 19.0957 14.002 18.3215 14.002 17.3681V5.73612C14.002 4.77983 13.2364 4 12.2232 4Z" fill="#86888C"/>
</svg>
