<svg width="40" height="40" viewBox="0 0 40 40" fill="none" xmlns="http://www.w3.org/2000/svg">
<path fill-rule="evenodd" clip-rule="evenodd" d="M32.9735 7.6957C32.1845 6.97849 30.9755 7.04508 30.2634 7.83914C29.5462 8.63833 29.6077 9.87809 30.3864 10.6055C30.54 10.749 34.0749 14.1199 34.1415 19.955C34.1466 20.0113 34.3413 25.8259 30.4683 29.3505C29.6743 30.0728 29.6077 31.3126 30.3146 32.122C30.6937 32.5523 31.2214 32.7777 31.7542 32.7777C32.2101 32.7777 32.6712 32.6138 33.0401 32.2757C38.2604 27.5267 38.0093 20.0984 37.994 19.8474C37.912 12.3012 33.1733 7.88013 32.9735 7.6957ZM31.4571 19.9089C31.4058 14.8217 28.1835 11.8197 28.0452 11.6967C27.2511 10.9744 26.0318 11.041 25.3249 11.8453C24.6077 12.6547 24.6794 13.8945 25.4683 14.6168C25.4939 14.6373 27.5687 16.625 27.6046 20.0164C27.6097 20.0472 27.6866 23.4181 25.5195 25.3904C24.7255 26.1128 24.6589 27.3525 25.3659 28.162C25.745 28.5974 26.2726 28.8177 26.8054 28.8177C27.2613 28.8177 27.7224 28.6538 28.0913 28.3156C31.6364 25.0882 31.4622 20.0574 31.4571 19.9089ZM20.4017 6C14.6998 6 11.5082 8.40267 9.74593 10.7387L3.92624 10.7439C3.41394 10.7439 2.92213 10.9539 2.56353 11.3228C2.1998 11.6916 2 12.1885 2 12.706L2.01537 26.497C2.01537 27.5779 2.88115 28.454 3.9416 28.454L9.72031 28.4488C11.4724 30.7849 14.6845 33.1722 20.5503 33.1722C22.2357 33.1722 23.6035 31.7788 23.6035 30.0626V9.12501C23.6035 7.40369 22.2255 6 20.4017 6Z" fill="#86888C"/>
</svg>
