<svg width="40" height="40" viewBox="0 0 40 40" fill="none" xmlns="http://www.w3.org/2000/svg">
<path fill-rule="evenodd" clip-rule="evenodd" d="M13.6124 26.0834C13.9863 26.4471 13.9914 27.0465 13.6277 27.4205L13.6124 27.4358L11.4866 29.5363L13.6124 31.6367C13.9863 32.0005 13.9914 32.5998 13.6277 32.9738L13.6124 32.9892C13.428 33.1685 13.1821 33.271 12.926 33.2658C12.6699 33.2658 12.424 33.1685 12.2396 32.9892L10.1138 30.8888L7.99827 32.979C7.81899 33.1583 7.56799 33.2607 7.31188 33.2607C7.05576 33.2607 6.80989 33.1583 6.62548 32.979C6.25155 32.6101 6.24643 32.0107 6.61524 31.6418C6.62036 31.6367 6.62036 31.6316 6.62548 31.6316L8.74101 29.5414L6.62548 27.4512C6.25155 27.0823 6.24643 26.483 6.61524 26.1141C6.62036 26.109 6.62036 26.1038 6.62548 26.1038C7.00454 25.7299 7.61409 25.7299 7.99315 26.1038L10.1087 28.194L12.2345 26.0936C12.6238 25.7145 13.2333 25.7145 13.6124 26.0834ZM21.8542 8.48575C24.1132 8.48575 25.8804 9.0749 27.1046 10.243C28.375 11.4571 29.0204 13.245 29.0204 15.5658C29.0204 17.8865 28.375 19.6744 27.1046 20.8835C25.8855 22.0362 24.1183 22.6253 21.8593 22.6253C19.6004 22.6253 17.8383 22.0413 16.6192 20.8784C15.354 19.6744 14.7137 17.8865 14.7137 15.5658C14.7137 13.245 15.354 11.452 16.6192 10.243C17.8332 9.0749 19.6004 8.48575 21.8542 8.48575ZM34.9521 24.4952C35.6333 20.5863 35.7409 12.118 35.7716 8.96732C32.5855 9.10052 30.6237 7.8505 28.7489 6.61585C26.8536 5.3812 25.0659 4.21827 21.8696 4.2029H21.8542C18.6732 4.2029 16.8804 5.3812 14.9954 6.61585C13.0899 7.86587 11.1127 9.13126 7.97266 8.98269C7.98803 11.4981 8.06486 17.3793 8.44904 21.6417C8.98176 21.57 9.51961 21.5341 10.0575 21.5392C13.2589 21.5392 15.6203 22.5382 16.9316 24.6284C17.1109 24.613 17.3056 24.613 17.4951 24.613H26.2133C29.1741 24.613 31.6328 25.5249 33.3129 27.2617C33.359 27.3078 33.4051 27.3539 33.4615 27.4256C34.2349 26.4317 34.783 25.4481 34.9521 24.4952ZM10.0523 35.2689C14.1451 35.2689 15.8867 33.5476 15.8867 29.5055C15.8867 25.4737 14.1451 23.7421 10.0523 23.7421C5.97494 23.7421 4.23334 25.4788 4.23334 29.5055C4.22822 33.5527 5.97494 35.2689 10.0523 35.2689ZM37.9999 7.74804C37.9999 8.25009 38.0306 19.8486 37.1496 24.859C35.9919 31.4728 22.8941 37.6358 22.3408 37.8971C22.1923 37.9688 22.0284 38.0046 21.8645 37.9995C21.7006 38.0046 21.5366 37.9688 21.3881 37.8971C21.2856 37.8561 19.0677 36.811 16.3579 35.1511C14.9903 36.7239 12.8286 37.4718 10.0472 37.4718C4.96072 37.477 2 34.9462 2 29.5055C2 25.6223 3.52134 23.2247 6.24131 22.1694C5.70346 16.5545 5.73419 8.11177 5.73419 7.74804C5.73419 7.40992 5.88274 7.10254 6.1491 6.89249C6.41546 6.67732 6.76891 6.59536 7.10186 6.6722C10.124 7.14352 11.7273 6.09842 13.7558 4.77668C15.7381 3.48568 17.9971 2 21.8542 2H21.8696C25.7421 2.01537 27.9857 3.48568 29.9783 4.77668C31.9862 6.09842 33.5947 7.14352 36.6476 6.6722C36.9754 6.63122 37.334 6.71831 37.5696 6.92323C37.8206 7.12815 37.9999 7.42529 37.9999 7.74804Z" fill="#86888C"/>
</svg>
