<svg width="24" height="24" viewBox="0 0 24 24" fill="none" xmlns="http://www.w3.org/2000/svg">
<path fill-rule="evenodd" clip-rule="evenodd" d="M13.6424 11.4054H13.4517C13.0418 11.4054 11.4819 11.2461 11.4819 9.30299C11.4819 7.36842 13.0247 7.22617 13.4432 7.21764H13.6339C14.0352 7.22617 15.6122 7.39403 15.6122 9.32006C15.6122 11.2461 14.0352 11.3969 13.6424 11.4054ZM14.0694 16.1081C14.0267 16.1166 13.9783 16.1252 13.9271 16.1337C13.8531 16.1508 13.7193 16.1679 13.5684 16.1679C13.076 16.1679 12.3074 15.9772 12.074 14.8336C11.758 13.34 12.9251 12.9815 13.2439 12.9161C13.2923 12.9075 13.3435 12.8905 13.3919 12.8848C13.4574 12.8762 13.5826 12.8592 13.7335 12.8592C14.226 12.8592 15.0116 13.0413 15.2536 14.1849C15.561 15.6671 14.3683 16.0313 14.0694 16.1081ZM8.7008 12.2731H8.59263C8.35067 12.2646 7.44831 12.1821 7.44831 11.0469C7.44831 9.92034 8.34213 9.83784 8.58409 9.83784H8.69226C8.93421 9.84637 9.84511 9.93741 9.84511 11.0555C9.84511 12.1792 8.92852 12.2646 8.7008 12.2731ZM21.3794 11.3713H19.1078C18.9996 9.5192 18.4246 8.19346 17.6304 7.25178L19.0737 5.80939C19.3242 5.56757 19.3242 5.16927 19.0737 4.92461C18.8317 4.68279 18.4389 4.68279 18.1884 4.92461L16.7281 6.38407C15.2849 5.24893 13.5399 4.99289 12.629 4.93314V2.62589C12.629 2.2845 12.3444 2 12.0028 2C11.6527 2 11.3766 2.2845 11.3766 2.62589V4.91892C10.4571 4.96159 8.68941 5.20341 7.23767 6.35277L5.81154 4.92745C5.56958 4.68563 5.17107 4.68563 4.92911 4.92745C4.67861 5.16927 4.67861 5.57041 4.92911 5.81223L6.36377 7.24609C5.60374 8.1963 5.05436 9.52205 4.96327 11.3741H2.62624C2.27612 11.3741 2 11.6501 2 12C2 12.3414 2.27612 12.6259 2.62624 12.6259H4.96327C5.07144 14.478 5.62367 15.7952 6.38085 16.7368L4.92911 18.1792C4.67861 18.4296 4.67861 18.8222 4.92911 19.0725C5.04582 19.1892 5.21092 19.2546 5.37032 19.2546C5.52973 19.2546 5.68629 19.1892 5.81154 19.0725L7.27182 17.6131C8.70649 18.7624 10.4429 19.0213 11.3766 19.0725V21.3741C11.3766 21.7155 11.6527 22 12.0028 22C12.3444 22 12.629 21.7155 12.629 21.3741V19.0725C13.5229 19.0299 15.2906 18.7795 16.7509 17.6387L18.1855 19.0725C18.3108 19.1892 18.4702 19.2546 18.6267 19.2546C18.7947 19.2546 18.9513 19.1892 19.068 19.0725C19.3185 18.8222 19.3185 18.4296 19.068 18.1792L17.6504 16.7624C18.4332 15.8208 19.0025 14.495 19.1021 12.6259H21.3737C21.7238 12.6259 21.9999 12.3414 21.9999 12C22.0056 11.6472 21.7295 11.3713 21.3794 11.3713Z" fill="#86888C"/>
</svg>
