<svg width="28" height="28" viewBox="0 0 28 28" fill="none" xmlns="http://www.w3.org/2000/svg">
<path fill-rule="evenodd" clip-rule="evenodd" d="M15.9709 14.2865H15.742C15.2502 14.2865 13.3783 14.0953 13.3783 11.7636C13.3783 9.44211 15.2297 9.27141 15.7318 9.26117H15.9607C16.4423 9.27141 18.3347 9.47283 18.3347 11.7841C18.3347 14.0953 16.4423 14.2762 15.9709 14.2865ZM16.4833 19.9297C16.432 19.94 16.374 19.9502 16.3125 19.9605C16.2237 19.9809 16.0631 20.0014 15.8821 20.0014C15.2911 20.0014 14.3689 19.7727 14.0888 18.4003C13.7096 16.608 15.1101 16.1778 15.4927 16.0993C15.5508 16.089 15.6122 16.0686 15.6703 16.0617C15.7489 16.0515 15.8992 16.031 16.0802 16.031C16.6712 16.031 17.6139 16.2495 17.9043 17.6219C18.2732 19.4006 16.842 19.8376 16.4833 19.9297ZM10.041 15.3277H9.91115C9.6208 15.3175 8.53797 15.2185 8.53797 13.8563C8.53797 12.5044 9.61056 12.4054 9.90091 12.4054H10.0307C10.3211 12.4156 11.4141 12.5249 11.4141 13.8666C11.4141 15.2151 10.3142 15.3175 10.041 15.3277ZM25.2552 14.2455H22.5294C22.3996 12.023 21.7096 10.4321 20.7565 9.30213L22.4884 7.57127C22.789 7.28108 22.789 6.80313 22.4884 6.50953C22.198 6.21935 21.7266 6.21935 21.426 6.50953L19.6737 8.26088C17.9419 6.89872 15.8479 6.59146 14.7549 6.51977V3.75107C14.7549 3.34139 14.4133 3 14.0034 3C13.5832 3 13.2519 3.34139 13.2519 3.75107V6.5027C12.1485 6.55391 10.0273 6.8441 8.2852 8.22333L6.57385 6.51294C6.2835 6.22276 5.80528 6.22276 5.51493 6.51294C5.21433 6.80313 5.21433 7.28449 5.51493 7.57468L7.23653 9.29531C6.32449 10.4356 5.66523 12.0265 5.55592 14.2489H2.75149C2.33134 14.2489 2 14.5801 2 15C2 15.4097 2.33134 15.7511 2.75149 15.7511H5.55592C5.68572 17.9735 6.3484 19.5542 7.25702 20.6842L5.51493 22.4151C5.21433 22.7155 5.21433 23.1866 5.51493 23.4871C5.65498 23.627 5.8531 23.7055 6.04439 23.7055C6.23568 23.7055 6.42355 23.627 6.57385 23.4871L8.32619 21.7357C10.0478 23.1149 12.1315 23.4256 13.2519 23.4871V26.2489C13.2519 26.6586 13.5832 27 14.0034 27C14.4133 27 14.7549 26.6586 14.7549 26.2489V23.4871C15.8274 23.4358 17.9487 23.1354 19.701 21.7664L21.4226 23.4871C21.5729 23.627 21.7642 23.7055 21.9521 23.7055C22.1536 23.7055 22.3415 23.627 22.4816 23.4871C22.7821 23.1866 22.7821 22.7155 22.4816 22.4151L20.7804 20.7149C21.7198 19.5849 22.403 17.994 22.5225 15.7511H25.2484C25.6686 15.7511 25.9999 15.4097 25.9999 15C26.0067 14.5767 25.6754 14.2455 25.2552 14.2455Z" fill="#86888C"/>
</svg>
