<svg width="24" height="24" viewBox="0 0 24 24" fill="none" xmlns="http://www.w3.org/2000/svg">
<path d="M15.748 17.002V18.4756C16.1748 18.3732 16.4251 18.0973 16.4251 17.7075C16.4251 17.423 16.337 17.147 15.748 17.002Z" fill="#86888C"/>
<path d="M19.5576 7.51729L14.01 2.25413C13.9047 2.15456 13.7653 2.09766 13.6202 2.09766H6.12376C5.54623 2.09766 5 2.64389 5 3.22141V20.9739C5 21.5713 5.52632 22.0977 6.12376 22.0977H18.6131C19.2105 22.0977 19.7368 21.5713 19.7368 20.9739V7.9298C19.7368 7.77333 19.6714 7.62539 19.5576 7.51729ZM9.02845 19.2812C9.02845 19.5941 8.7724 19.8501 8.45946 19.8501C8.14651 19.8501 7.89047 19.5941 7.89047 19.2812V7.6766C7.89047 7.36366 8.14651 7.10761 8.45946 7.10761C8.7724 7.10761 9.02845 7.36366 9.02845 7.6766V19.2812ZM11.8307 19.2954C11.8307 19.6083 11.5747 19.8644 11.2617 19.8644C10.9488 19.8644 10.6927 19.6083 10.6927 19.2954V12.129C10.6927 11.816 10.9488 11.56 11.2617 11.56C11.5747 11.56 11.8307 11.816 11.8307 12.129V19.2954ZM16.7525 18.8829C16.4964 19.1048 16.1551 19.2499 15.7482 19.3096V19.6225C15.7482 19.8587 15.5576 20.0493 15.3215 20.0493C15.0853 20.0493 14.8947 19.8587 14.8947 19.6225V19.3181C14.4367 19.2527 13.9986 19.082 13.6174 18.8203C13.4836 18.7264 13.4154 18.6012 13.4154 18.4447C13.4182 18.2115 13.6088 18.0237 13.8421 18.0237C13.9388 18.0265 14.0356 18.0578 14.1152 18.1119C14.3514 18.274 14.6159 18.3935 14.8919 18.4647V16.8629C13.7824 16.6268 13.5377 15.9298 13.5377 15.3665C13.5377 14.5187 14.0555 13.927 14.8919 13.7762V13.4632C14.8919 13.2271 15.0825 13.0365 15.3186 13.0365C15.5548 13.0365 15.7454 13.2271 15.7454 13.4632V13.7676C16.1152 13.8189 16.4566 13.9326 16.7354 14.1033C16.9459 14.2314 16.9772 14.4021 16.9772 14.4931C16.9772 14.7207 16.7923 14.9056 16.5647 14.9056C16.4794 14.9028 16.3969 14.88 16.3201 14.8373L16.3144 14.8345C16.1351 14.7349 15.9445 14.661 15.7454 14.6126V16.1261C17.0028 16.3309 17.2731 17.0735 17.2731 17.6738C17.276 18.1688 17.0939 18.587 16.7525 18.8829ZM16.1095 7.91558C15.4467 7.91558 14.8919 7.7079 14.5021 7.31814C14.1124 6.92838 13.9047 6.37077 13.9047 5.71074V3.72212L18.3257 7.91558H16.1095Z" fill="#86888C"/>
<path d="M14.8951 15.9689C14.4598 15.8153 14.3887 15.5649 14.3887 15.3288C14.3887 14.9817 14.5707 14.737 14.8951 14.6289V15.9689Z" fill="#86888C"/>
</svg>
