<svg width="40" height="40" viewBox="0 0 40 40" fill="none" xmlns="http://www.w3.org/2000/svg">
<path fill-rule="evenodd" clip-rule="evenodd" d="M30.884 12.3164L35.1516 22.679H27.7589L30.884 12.3164ZM12.2359 22.679H4.84332L9.11086 12.3164L12.2359 22.679ZM38 23.8571C38 23.8059 37.9795 23.7598 37.9693 23.7035C37.9539 23.5959 37.9488 23.4935 37.9078 23.3961L32.508 10.288C32.754 10.3904 32.9794 10.5185 33.1536 10.6875C33.3687 10.9078 33.6556 11.0154 33.9323 11.0154C34.2294 11.0154 34.5265 10.8924 34.7468 10.6517C35.1772 10.1855 35.1618 9.43768 34.7161 8.98179C33.9169 8.1827 32.8308 7.74217 31.4834 7.67558C31.3758 7.67046 25.3869 7.66534 21.9135 7.66534C22.0467 7.57314 22.1748 7.48093 22.2926 7.36312C22.81 6.84064 23.0713 6.06716 23.0713 5.0683C23.0713 4.05919 22.81 3.28571 22.2926 2.76323C21.7956 2.25612 21.0733 2 20.1511 2C20.1409 2 20.1306 2 20.1255 2.00512V2H19.8591C18.9318 2 18.2146 2.25612 17.7177 2.76323C17.2002 3.28571 16.9338 4.05919 16.9338 5.0683C16.9338 6.06716 17.1951 6.84064 17.7177 7.36312C17.8304 7.47581 17.9584 7.57314 18.0968 7.66534C14.6182 7.66534 8.62929 7.66534 8.5217 7.67558C7.17945 7.74217 6.08823 8.1827 5.28903 8.98179C4.8382 9.43256 4.82283 10.1804 5.25317 10.6517C5.47858 10.8976 5.77572 11.0154 6.06774 11.0154C6.34951 11.0154 6.63128 10.9078 6.85157 10.6875C7.02064 10.5185 7.25117 10.3904 7.49196 10.288L2.09222 23.3961C2.05123 23.4935 2.04098 23.601 2.03074 23.7035C2.02562 23.7547 2 23.8059 2 23.8571V23.8623C2 25.5424 2.47132 26.864 3.39348 27.7911C4.17732 28.58 5.23267 29.0256 6.53394 29.1178C6.68251 29.1281 8.29629 29.1383 8.44998 29.1383C8.55756 29.1383 10.1047 29.1332 10.2123 29.1281C11.5853 29.0615 12.697 28.6158 13.5167 27.7962C14.4184 26.8896 14.8795 25.6039 14.9051 23.9903C14.9051 23.9801 14.9051 23.9698 14.9102 23.9596C14.9102 23.9237 14.9153 23.893 14.9153 23.8623C14.9153 23.7957 14.8897 23.7393 14.8795 23.6779C14.8692 23.6215 14.8795 23.5652 14.859 23.5037L10.7964 10.0319C12.4665 10.0319 14.7872 10.0319 16.7494 10.0268V31.8532H14.1059C12.656 31.8532 11.5033 32.2834 10.6683 33.1286C9.80248 34.0046 9.36189 35.2493 9.36189 36.8219C9.36189 37.4724 9.86908 38 10.4941 38C10.5248 38 10.5607 37.9846 10.5914 37.9795C10.6273 37.9846 10.6529 38 10.6888 38H29.3266C29.3573 38 29.3932 37.9846 29.4239 37.9795C29.4598 37.9846 29.4854 38 29.5264 38C30.1514 38 30.6586 37.4724 30.6586 36.8219C30.6586 35.2442 30.218 34.0046 29.3471 33.1286C28.512 32.2834 27.3542 31.8532 25.9044 31.8532H23.2609V10.0268C25.223 10.0268 27.5438 10.0268 29.219 10.0319L25.1513 23.5037C25.1359 23.5652 25.1462 23.6215 25.1359 23.6779C25.1257 23.7393 25.1 23.7957 25.1 23.8623C25.1 23.893 25.1052 23.9237 25.1052 23.9596C25.1052 23.9698 25.1052 23.9801 25.1103 23.9903C25.1359 25.6039 25.597 26.8896 26.4986 27.7962C27.3183 28.6158 28.4249 29.0615 29.7979 29.1281C29.9055 29.1332 31.4527 29.1383 31.5551 29.1383C31.714 29.1383 33.3277 29.1281 33.4763 29.1178C34.7776 29.0256 35.8329 28.58 36.6168 27.7911C37.5338 26.8589 38 25.5373 38 23.8571Z" fill="#86888C"/>
</svg>
