<svg width="20" height="20" viewBox="0 0 20 20" fill="none" xmlns="http://www.w3.org/2000/svg">
<path d="M12.5986 14.0215V15.2004C12.94 15.1185 13.1403 14.8977 13.1403 14.5859C13.1403 14.3583 13.0698 14.1376 12.5986 14.0215Z" fill="#86888C"/>
<path d="M15.6461 6.43336L11.208 2.22283C11.1238 2.14318 11.0122 2.09766 10.8962 2.09766H4.899C4.43698 2.09766 4 2.53464 4 2.99666V17.1987C4 17.6766 4.42105 18.0977 4.899 18.0977H14.8905C15.3684 18.0977 15.7895 17.6766 15.7895 17.1987V6.76337C15.7895 6.6382 15.7371 6.51985 15.6461 6.43336ZM7.22276 15.8445C7.22276 16.0948 7.01792 16.2996 6.76757 16.2996C6.51721 16.2996 6.31238 16.0948 6.31238 15.8445V6.56081C6.31238 6.31046 6.51721 6.10562 6.76757 6.10562C7.01792 6.10562 7.22276 6.31046 7.22276 6.56081V15.8445ZM9.46458 15.8558C9.46458 16.1062 9.25974 16.311 9.00939 16.311C8.75903 16.311 8.5542 16.1062 8.5542 15.8558V10.1227C8.5542 9.87234 8.75903 9.6675 9.00939 9.6675C9.25974 9.6675 9.46458 9.87234 9.46458 10.1227V15.8558ZM13.402 15.5258C13.1972 15.7033 12.924 15.8194 12.5986 15.8672V16.1176C12.5986 16.3065 12.4461 16.459 12.2572 16.459C12.0683 16.459 11.9158 16.3065 11.9158 16.1176V15.874C11.5494 15.8217 11.1989 15.6851 10.8939 15.4757C10.7869 15.4006 10.7323 15.3005 10.7323 15.1753C10.7346 14.9887 10.8871 14.8385 11.0737 14.8385C11.1511 14.8408 11.2284 14.8658 11.2922 14.909C11.4811 15.0388 11.6927 15.1344 11.9135 15.1913V13.9099C11.0259 13.721 10.8302 13.1634 10.8302 12.7127C10.8302 12.0345 11.2444 11.5611 11.9135 11.4405V11.1901C11.9135 11.0012 12.066 10.8487 12.2549 10.8487C12.4438 10.8487 12.5963 11.0012 12.5963 11.1901V11.4336C12.8922 11.4746 13.1653 11.5657 13.3883 11.7022C13.5568 11.8046 13.5818 11.9412 13.5818 12.014C13.5818 12.1961 13.4339 12.344 13.2518 12.344C13.1835 12.3418 13.1175 12.3235 13.056 12.2894L13.0515 12.2871C12.9081 12.2075 12.7556 12.1483 12.5963 12.1096V13.3204C13.6023 13.4843 13.8185 14.0783 13.8185 14.5585C13.8208 14.9546 13.6751 15.2891 13.402 15.5258ZM12.8876 6.75199C12.3573 6.75199 11.9135 6.58585 11.6017 6.27404C11.2899 5.96224 11.1238 5.51615 11.1238 4.98813V3.39723L14.6606 6.75199H12.8876Z" fill="#86888C"/>
<path d="M11.9159 13.195C11.5676 13.0721 11.5107 12.8718 11.5107 12.6829C11.5107 12.4053 11.6564 12.2095 11.9159 12.123V13.195Z" fill="#86888C"/>
</svg>
