<svg width="40" height="40" viewBox="0 0 40 40" fill="none" xmlns="http://www.w3.org/2000/svg">
<path d="M27.3467 28.9258V31.5784C28.1148 31.3941 28.5655 30.8973 28.5655 30.1958C28.5655 29.6837 28.4067 29.1869 27.3467 28.9258Z" fill="#86888C"/>
<path d="M34.2037 11.853L24.2179 2.37931C24.0285 2.20007 23.7775 2.09766 23.5164 2.09766H10.0228C8.98321 2.09766 8 3.08087 8 4.12042V36.0749C8 37.1503 8.94737 38.0977 10.0228 38.0977H32.5036C33.5789 38.0977 34.5263 37.1503 34.5263 36.0749V12.5955C34.5263 12.3139 34.4085 12.0476 34.2037 11.853ZM15.2512 33.028C15.2512 33.5913 14.7903 34.0521 14.227 34.0521C13.6637 34.0521 13.2028 33.5913 13.2028 33.028V12.1398C13.2028 11.5765 13.6637 11.1156 14.227 11.1156C14.7903 11.1156 15.2512 11.5765 15.2512 12.1398V33.028ZM20.2953 33.0536C20.2953 33.6169 19.8344 34.0777 19.2711 34.0777C18.7078 34.0777 18.2469 33.6169 18.2469 33.0536V20.154C18.2469 19.5907 18.7078 19.1298 19.2711 19.1298C19.8344 19.1298 20.2953 19.5907 20.2953 20.154V33.0536ZM29.1545 32.311C28.6936 32.7105 28.0791 32.9716 27.3468 33.0792V33.6425C27.3468 34.0675 27.0037 34.4106 26.5787 34.4106C26.1536 34.4106 25.8105 34.0675 25.8105 33.6425V33.0945C24.9861 32.9767 24.1974 32.6695 23.5112 32.1984C23.2706 32.0294 23.1477 31.8041 23.1477 31.5224C23.1528 31.1025 23.4959 30.7645 23.9158 30.7645C24.0899 30.7696 24.264 30.826 24.4074 30.9233C24.8324 31.2152 25.3087 31.4302 25.8054 31.5583V28.6752C23.8083 28.2501 23.3679 26.9955 23.3679 25.9816C23.3679 24.4556 24.2999 23.3904 25.8054 23.119V22.5557C25.8054 22.1307 26.1485 21.7876 26.5735 21.7876C26.9986 21.7876 27.3417 22.1307 27.3417 22.5557V23.1036C28.0074 23.1958 28.6219 23.4006 29.1238 23.7079C29.5027 23.9383 29.559 24.2456 29.559 24.4095C29.559 24.8191 29.2262 25.152 28.8165 25.152C28.6629 25.1469 28.5144 25.1059 28.3761 25.0291L28.3659 25.024C28.0432 24.8447 27.7001 24.7116 27.3417 24.6245V27.3489C29.6051 27.7176 30.0916 29.0541 30.0916 30.1346C30.0967 31.0257 29.769 31.7785 29.1545 32.311ZM27.9972 12.5699C26.804 12.5699 25.8054 12.1961 25.1038 11.4945C24.4023 10.793 24.0285 9.78926 24.0285 8.60121V5.0217L31.9863 12.5699H27.9972Z" fill="#86888C"/>
<path d="M25.8109 27.0662C25.0274 26.7897 24.8994 26.3391 24.8994 25.914C24.8994 25.2893 25.2272 24.8489 25.8109 24.6543V27.0662Z" fill="#86888C"/>
</svg>
