<svg width="24" height="24" viewBox="0 0 24 24" fill="none" xmlns="http://www.w3.org/2000/svg">
<path fill-rule="evenodd" clip-rule="evenodd" d="M18.0467 7.73136L20.4175 13.4883H16.3105L18.0467 7.73136ZM7.68664 13.4883H3.57962L5.95048 7.73136L7.68664 13.4883ZM22 14.1429C22 14.1144 21.9886 14.0888 21.9829 14.0575C21.9744 13.9977 21.9715 13.9408 21.9488 13.8867L18.9489 6.60444C19.0855 6.66135 19.2108 6.7325 19.3075 6.82641C19.4271 6.94878 19.5865 7.00854 19.7401 7.00854C19.9052 7.00854 20.0703 6.94024 20.1927 6.80649C20.4318 6.54752 20.4232 6.13204 20.1756 5.87877C19.7316 5.43483 19.1282 5.1901 18.3797 5.1531C18.3199 5.15026 14.9927 5.14741 13.063 5.14741C13.137 5.09619 13.2082 5.04496 13.2737 4.97951C13.5611 4.68924 13.7063 4.25953 13.7063 3.70461C13.7063 3.144 13.5611 2.71429 13.2737 2.42402C12.9976 2.14229 12.5963 2 12.084 2C12.0783 2 12.0726 2 12.0697 2.00285V2H11.9217C11.4066 2 11.0081 2.14229 10.732 2.42402C10.4446 2.71429 10.2966 3.144 10.2966 3.70461C10.2966 4.25953 10.4417 4.68924 10.732 4.97951C10.7946 5.04212 10.8658 5.09619 10.9426 5.14741C9.0101 5.14741 5.68294 5.14741 5.62317 5.1531C4.87747 5.1901 4.27124 5.43483 3.82724 5.87877C3.57678 6.1292 3.56824 6.54468 3.80731 6.80649C3.93255 6.94309 4.09762 7.00854 4.25985 7.00854C4.41639 7.00854 4.57293 6.94878 4.69532 6.82641C4.78924 6.7325 4.91732 6.66135 5.05109 6.60444L2.05123 13.8867C2.02846 13.9408 2.02277 14.0006 2.01708 14.0575C2.01423 14.0859 2 14.1144 2 14.1429V14.1457C2 15.0791 2.26185 15.8133 2.77416 16.3284C3.20962 16.7666 3.79593 17.0142 4.51886 17.0655C4.60139 17.0711 5.49794 17.0768 5.58332 17.0768C5.64309 17.0768 6.50263 17.074 6.5624 17.0711C7.32517 17.0341 7.94279 16.7866 8.39818 16.3312C8.8991 15.8275 9.15526 15.1133 9.16949 14.2168C9.16949 14.2112 9.16949 14.2055 9.17234 14.1998C9.17234 14.1799 9.17518 14.1628 9.17518 14.1457C9.17518 14.1087 9.16095 14.0774 9.15526 14.0433C9.14957 14.012 9.15526 13.9806 9.14387 13.9465L6.88687 6.46215C7.81471 6.46215 9.10403 6.46215 10.1941 6.45931V18.5851H8.72549C7.92002 18.5851 7.27964 18.8241 6.81571 19.2937C6.33471 19.7803 6.08994 20.4718 6.08994 21.3455C6.08994 21.7069 6.37171 22 6.71894 22C6.73602 22 6.75594 21.9915 6.77302 21.9886C6.79294 21.9915 6.80717 22 6.8271 22H17.1814C17.1985 22 17.2184 21.9915 17.2355 21.9886C17.2554 21.9915 17.2697 22 17.2924 22C17.6397 22 17.9214 21.7069 17.9214 21.3455C17.9214 20.469 17.6767 19.7803 17.1928 19.2937C16.7289 18.8241 16.0857 18.5851 15.2802 18.5851H13.8116V6.45931C14.9017 6.45931 16.191 6.45931 17.1217 6.46215L14.8618 13.9465C14.8533 13.9806 14.859 14.012 14.8533 14.0433C14.8476 14.0774 14.8334 14.1087 14.8334 14.1457C14.8334 14.1628 14.8362 14.1799 14.8362 14.1998C14.8362 14.2055 14.8362 14.2112 14.839 14.2168C14.8533 15.1133 15.1094 15.8275 15.6104 16.3312C16.0657 16.7866 16.6805 17.0341 17.4433 17.0711C17.5031 17.074 18.3626 17.0768 18.4195 17.0768C18.5078 17.0768 19.4043 17.0711 19.4868 17.0655C20.2098 17.0142 20.7961 16.7666 21.2315 16.3284C21.741 15.8105 22 15.0763 22 14.1429Z" fill="#86888C"/>
</svg>
