<svg width="28" height="28" viewBox="0 0 28 28" fill="none" xmlns="http://www.w3.org/2000/svg">
<path fill-rule="evenodd" clip-rule="evenodd" d="M22.2109 22.1517C24.5536 19.809 24.6322 17.538 22.45 15.209C22.3919 15.1441 22.3578 15.1134 22.327 15.086L22.2143 14.9768L21.4494 14.2152L14.2642 21.397L14.4657 21.5951C14.6057 21.7556 14.7115 21.8512 14.8174 21.9536L15.0326 22.162C17.447 24.5695 19.7965 24.5695 22.2109 22.1517ZM3.95083 9.36929C3.97132 10.5236 4.58602 11.712 5.77445 12.9004L5.97593 13.1087C6.07838 13.2146 6.17742 13.3205 6.2867 13.4161L6.35158 13.481L13.5402 6.29578L12.8367 5.59228C11.6722 4.46533 10.5247 3.90185 9.37046 3.90185C8.17862 3.90185 6.98678 4.50631 5.77445 5.71864C4.54162 6.94805 3.93034 8.17745 3.95083 9.36929ZM23.9048 13.9079C26.7973 16.995 26.6983 20.4237 23.5906 23.528C21.989 25.133 20.3019 25.9355 18.6149 25.9355C16.9347 25.9355 15.2511 25.1364 13.6529 23.5348L13.4719 23.3606C13.3182 23.2138 13.168 23.0669 13.0382 22.9167L12.2391 22.1176C12.2254 22.1039 12.2083 22.1005 12.1947 22.0868L5.65492 15.5505C5.64468 15.5402 5.64126 15.5266 5.63102 15.5163L4.95826 14.8436C4.85239 14.7548 4.70555 14.6045 4.5587 14.4508L4.39136 14.2767C2.83753 12.7228 2.03159 11.0836 2.00085 9.40686C1.97012 7.6652 2.77264 5.95769 4.39478 4.33897C7.54684 1.18349 11.0336 1.13227 14.2027 4.20237L15.5858 5.58545C15.5926 5.59228 15.6029 5.59228 15.6097 5.59911L22.1495 12.1355C22.1529 12.1389 22.1563 12.1491 22.1631 12.1559L23.676 13.6654C23.7545 13.7473 23.8365 13.8225 23.9048 13.9079ZM13.4138 13.3171C13.1236 13.6073 13.1236 14.0786 13.4138 14.3689C13.7041 14.6592 14.172 14.6592 14.4657 14.3689C14.7559 14.0786 14.7559 13.6073 14.4657 13.3171C14.172 13.0268 13.7007 13.0268 13.4138 13.3171ZM12.7547 16.7116C12.4645 17.0019 12.4645 17.4731 12.7547 17.7634C13.045 18.0537 13.5163 18.0537 13.8066 17.7634C14.0968 17.4731 14.0968 17.0019 13.8066 16.7116C13.5129 16.4213 13.045 16.4213 12.7547 16.7116ZM17.9422 12.576C17.6519 12.2857 17.1806 12.2857 16.8903 12.576C16.6001 12.8663 16.6001 13.3375 16.8903 13.6278C17.1806 13.9181 17.6519 13.9181 17.9422 13.6278C18.2324 13.3341 18.2324 12.8663 17.9422 12.576ZM10.0876 14.0205C9.79734 14.3108 9.79734 14.7821 10.0876 15.0724C10.3779 15.3627 10.8492 15.3627 11.1394 15.0724C11.4297 14.7821 11.4297 14.3108 11.1394 14.0205C10.8492 13.7303 10.3779 13.7303 10.0876 14.0205ZM14.2232 9.88155C13.9329 10.1718 13.9329 10.6431 14.2232 10.9334C14.5135 11.2236 14.9848 11.2236 15.275 10.9334C15.5653 10.6431 15.5653 10.1718 15.275 9.88155C14.9848 9.59468 14.5135 9.59468 14.2232 9.88155Z" fill="#86888C"/>
</svg>
