<svg width="28" height="28" viewBox="0 0 28 28" fill="none" xmlns="http://www.w3.org/2000/svg">
<path fill-rule="evenodd" clip-rule="evenodd" d="M20.8401 11.1092C20.7854 11.1092 20.741 11.1024 20.6898 11.1024L21.7928 9.82521C22.0387 9.56226 22.189 9.20369 22.189 8.81439C22.189 7.99482 21.5333 7.33232 20.7205 7.33232H20.7069L17.1554 7.3494C17.1725 4.8531 18.3438 3.6852 20.8401 3.6852C23.3227 3.6852 24.5316 4.90091 24.5316 7.40062C24.5316 9.93107 23.3569 11.1092 20.8401 11.1092ZM19.5117 10.0847H7.4502L6.31303 8.87928L20.7171 8.81098L19.6039 10.1018C19.5697 10.1018 19.5424 10.0847 19.5117 10.0847ZM20.8401 2.20312C17.5276 2.20312 15.7006 4.03352 15.6801 7.35623L9.36255 7.38696L7.08139 5.09214C6.75356 4.76089 6.29596 4.57307 5.82812 4.57307H2.73762C2.33125 4.57307 2 4.90432 2 5.31411C2 5.7239 2.33125 6.05515 2.73762 6.05515H5.82812C5.90666 6.05515 5.9852 6.08588 6.03984 6.14052L7.28628 7.39721L6.29937 7.40062C5.71201 7.40404 5.1827 7.75577 4.95048 8.30216C4.72168 8.84513 4.83438 9.47689 5.23734 9.90375L12.7365 17.84C12.8389 17.9493 12.9585 18.0312 13.0848 18.103V22.7336L8.64542 24.7894C8.33125 24.9362 8.1605 25.2811 8.23221 25.6226C8.30734 25.9607 8.60444 26.2031 8.94935 26.2031L19.1053 26.1826C19.457 26.1826 19.7575 25.9333 19.8258 25.5884C19.8941 25.2435 19.7097 24.8952 19.3887 24.7586L14.5532 22.7165V18.0825C14.6864 18.0039 14.8093 17.9083 14.9118 17.7888L19.5014 12.4718C19.9146 12.5469 20.3552 12.5913 20.8332 12.5913C24.1628 12.5913 25.9966 10.7472 25.9966 7.39721C26.0034 4.04718 24.1696 2.20312 20.8401 2.20312Z" fill="#86888C"/>
</svg>
