<svg width="40" height="40" viewBox="0 0 40 40" fill="none" xmlns="http://www.w3.org/2000/svg">
<path fill-rule="evenodd" clip-rule="evenodd" d="M5.02611 20.5345H34.99C35.3998 20.5345 36.0298 21.016 36.0298 21.6101C36.0298 22.2043 35.3998 22.6857 34.99 22.6857H5.02611C4.61635 22.6857 4.04268 22.2043 4.04268 21.6101C4.04268 21.016 4.61635 20.5345 5.02611 20.5345ZM22.1388 18.3013C22.3898 18.0862 22.9532 18.0708 23.1684 18.1066C23.4808 18.1527 23.7933 18.0759 24.034 17.8813C24.2798 17.6918 24.4386 17.41 24.4694 17.1027C24.5257 16.5188 24.7408 16.3652 24.8125 16.3139C25.1813 16.0527 25.8523 16.1347 26.0521 16.1756C26.4362 16.2678 26.8511 16.1603 27.1328 15.8734C27.8141 15.1922 28.2904 15.2178 28.4389 15.2383C29.1509 15.2946 29.8219 16.0117 30.0114 16.2781C30.247 16.6161 30.6465 16.7954 31.0563 16.7493C32.0039 16.652 32.7056 16.8056 33.1563 17.2C33.689 17.6713 33.7915 18.4088 33.812 18.6649H21.9698C22.0108 18.4242 22.103 18.332 22.1388 18.3013ZM13.5082 9.86017C13.6465 9.13284 14.2919 8.57453 15.0704 8.57453C15.8439 8.57453 16.4944 9.13284 16.6275 9.86017H13.5082ZM38.0069 21.6613C38.0069 20.3911 37.2027 19.3103 36.0708 18.8749C36.0759 18.8442 36.0913 18.8135 36.0913 18.7828C36.0964 18.583 36.0759 16.8005 34.6981 15.5559C33.8734 14.8132 32.7722 14.4444 31.4609 14.4802C31.4456 14.4802 31.4353 14.4751 31.4251 14.4649C30.8924 13.9066 29.9192 13.1127 28.6336 13.0051C27.978 12.9539 26.9894 13.0717 25.9599 13.9015C25.3299 13.8451 24.3413 13.8963 23.5064 14.4751C23.1376 14.7363 22.7023 15.1666 22.4359 15.8734C21.8827 15.9349 21.2169 16.1193 20.6637 16.5905C20.2539 16.9388 19.7929 17.5791 19.7161 18.6188C19.7161 18.6445 19.6905 18.6701 19.6649 18.6701H7.60762C7.57689 18.6701 7.55128 18.6445 7.55128 18.6137V7.7294C7.55128 6.28498 8.45275 4.91228 9.85619 4.523C11.5874 4.04153 13.2111 5.01472 13.7541 6.50523C13.7643 6.53596 13.7489 6.5667 13.7182 6.57694C12.2584 7.11988 11.2084 8.50795 11.2084 10.1419V10.5568C11.2084 11.4121 11.9101 12.1036 12.7706 12.1036H17.3549C18.2154 12.1036 18.9171 11.407 18.9171 10.5568V10.1419C18.9171 8.40038 17.7236 6.9406 16.1102 6.48474C16.0948 6.47962 16.0795 6.46425 16.0743 6.44889C15.4956 3.76494 12.9192 1.81857 10.0099 2.20272C7.22859 2.57151 5.27197 5.1274 5.27197 7.90867V18.6752H5.19002C3.72511 18.6752 2.34729 19.633 2.06045 21.0621C1.8402 22.1684 2.23972 23.1775 2.96705 23.8484C2.9773 23.8587 2.98242 23.8689 2.98242 23.8843V28.5402C2.98242 32.8632 7.2542 36.3257 11.5004 37.0787C11.8179 37.7087 12.4633 38.1543 13.2214 38.1543C13.9026 38.1543 14.4763 37.7855 14.8194 37.2579C14.8297 37.2426 14.8451 37.2375 14.8655 37.2375H25.0277C25.043 37.2375 25.0635 37.2426 25.0686 37.2579C25.4169 37.7855 25.9906 38.1543 26.6667 38.1543C27.4197 38.1543 28.0599 37.7138 28.3826 37.094C32.6595 36.3769 36.9979 32.894 36.9979 28.5402L36.9876 23.8945C36.9876 23.8792 36.9927 23.8689 37.003 23.8587C37.6279 23.3055 38.0069 22.5321 38.0069 21.6613Z" fill="#86888C"/>
</svg>
