<svg width="24" height="24" viewBox="0 0 24 24" fill="none" xmlns="http://www.w3.org/2000/svg">
<path fill-rule="evenodd" clip-rule="evenodd" d="M3.68117 12.2112H20.3278C20.5554 12.2112 20.9054 12.4787 20.9054 12.8088C20.9054 13.1389 20.5554 13.4064 20.3278 13.4064H3.68117C3.45353 13.4064 3.13482 13.1389 3.13482 12.8088C3.13482 12.4787 3.45353 12.2112 3.68117 12.2112ZM13.1882 10.9705C13.3277 10.851 13.6407 10.8425 13.7602 10.8624C13.9338 10.888 14.1074 10.8453 14.2411 10.7372C14.3777 10.6319 14.4659 10.4754 14.483 10.3047C14.5143 9.98029 14.6338 9.89492 14.6736 9.86646C14.8785 9.72134 15.2513 9.76687 15.3623 9.78963C15.5757 9.84085 15.8062 9.7811 15.9627 9.62174C16.3411 9.24328 16.6058 9.25751 16.6883 9.26889C17.0838 9.30019 17.4566 9.69858 17.5619 9.84654C17.6928 10.0344 17.9147 10.1339 18.1424 10.1083C18.6688 10.0543 19.0587 10.1396 19.3091 10.3587C19.605 10.6205 19.6619 11.0303 19.6733 11.1726H13.0943C13.1171 11.0388 13.1683 10.9876 13.1882 10.9705ZM8.39345 6.28104C8.47028 5.87697 8.82882 5.5668 9.26135 5.5668C9.69103 5.5668 10.0524 5.87697 10.1264 6.28104H8.39345ZM22.0038 12.8372C22.0038 12.1315 21.5571 11.5311 20.9282 11.2893C20.9311 11.2722 20.9396 11.2551 20.9396 11.238C20.9424 11.1271 20.9311 10.1368 20.1656 9.44532C19.7075 9.03271 19.0957 8.82783 18.3672 8.84775C18.3587 8.84775 18.353 8.8449 18.3473 8.83921C18.0513 8.52904 17.5107 8.08798 16.7964 8.02822C16.4322 7.99977 15.883 8.06521 15.311 8.5262C14.961 8.4949 14.4118 8.52335 13.948 8.8449C13.7431 8.99003 13.5013 9.22905 13.3533 9.62174C13.046 9.65589 12.676 9.75833 12.3687 10.0201C12.1411 10.2136 11.885 10.5693 11.8423 11.147C11.8423 11.1612 11.8281 11.1754 11.8138 11.1754H5.11534C5.09827 11.1754 5.08404 11.1612 5.08404 11.1441V5.09728C5.08404 4.29483 5.58486 3.53221 6.36455 3.31595C7.32636 3.04846 8.2284 3.58912 8.53003 4.41719C8.53573 4.43426 8.52719 4.45133 8.51012 4.45702C7.69913 4.75865 7.11578 5.52981 7.11578 6.43754V6.66804C7.11578 7.14325 7.50563 7.5274 7.98368 7.5274H10.5305C11.0085 7.5274 11.3984 7.1404 11.3984 6.66804V6.43754C11.3984 5.47005 10.7354 4.65906 9.839 4.4058C9.83046 4.40296 9.82193 4.39442 9.81908 4.38588C9.49753 2.8948 8.06621 1.81348 6.44992 2.0269C4.90477 2.23178 3.81776 3.65173 3.81776 5.19687V11.1783H3.77223C2.9584 11.1783 2.19294 11.7104 2.03358 12.5043C1.91122 13.119 2.13318 13.6795 2.53725 14.0523C2.54294 14.058 2.54579 14.0637 2.54579 14.0722V16.6589C2.54579 19.0605 4.919 20.9841 7.27798 21.4024C7.45441 21.7524 7.81295 22 8.23409 22C8.61256 22 8.93126 21.7951 9.12191 21.502C9.12761 21.4935 9.13614 21.4906 9.14752 21.4906H14.7931C14.8017 21.4906 14.8131 21.4935 14.8159 21.502C15.0094 21.7951 15.3281 22 15.7037 22C16.122 22 16.4777 21.7553 16.657 21.411C19.0331 21.0126 21.4433 19.0776 21.4433 16.6589L21.4376 14.0779C21.4376 14.0694 21.4404 14.0637 21.4461 14.058C21.7933 13.7507 22.0038 13.321 22.0038 12.8372Z" fill="#86888C"/>
</svg>
