<svg width="28" height="28" viewBox="0 0 28 28" fill="none" xmlns="http://www.w3.org/2000/svg">
<path fill-rule="evenodd" clip-rule="evenodd" d="M5.01741 14.4078H24.9934C25.2665 14.4078 25.6865 14.7287 25.6865 15.1248C25.6865 15.5209 25.2665 15.8419 24.9934 15.8419H5.01741C4.74423 15.8419 4.36179 15.5209 4.36179 15.1248C4.36179 14.7287 4.74423 14.4078 5.01741 14.4078ZM16.4259 12.919C16.5932 12.7755 16.9688 12.7653 17.1122 12.7892C17.3205 12.8199 17.5288 12.7687 17.6893 12.6389C17.8532 12.5126 17.9591 12.3248 17.9796 12.1199C18.0171 11.7306 18.1606 11.6282 18.2084 11.5941C18.4542 11.4199 18.9015 11.4745 19.0347 11.5019C19.2908 11.5633 19.5674 11.4916 19.7552 11.3004C20.2094 10.8462 20.5269 10.8633 20.626 10.877C21.1006 10.9145 21.5479 11.3926 21.6743 11.5702C21.8313 11.7955 22.0977 11.915 22.3709 11.8843C23.0026 11.8194 23.4704 11.9219 23.7709 12.1848C24.126 12.4989 24.1943 12.9907 24.208 13.1614H16.3132C16.3405 13.0009 16.402 12.9394 16.4259 12.919ZM10.6721 7.29154C10.7643 6.80666 11.1946 6.43445 11.7136 6.43445C12.2292 6.43445 12.6629 6.80666 12.7517 7.29154H10.6721ZM27.0046 15.159C27.0046 14.3121 26.4685 13.5916 25.7139 13.3014C25.7173 13.2809 25.7275 13.2604 25.7275 13.2399C25.7309 13.1068 25.7173 11.9184 24.7987 11.0887C24.2489 10.5935 23.5148 10.3477 22.6406 10.3716C22.6304 10.3716 22.6236 10.3682 22.6167 10.3614C22.2616 9.98915 21.6128 9.45987 20.7557 9.38816C20.3186 9.35402 19.6596 9.43255 18.9733 9.98573C18.5532 9.94817 17.8942 9.98232 17.3376 10.3682C17.0918 10.5423 16.8015 10.8292 16.6239 11.3004C16.2552 11.3414 15.8112 11.4643 15.4425 11.7784C15.1693 12.0106 14.862 12.4375 14.8107 13.1307C14.8107 13.1477 14.7937 13.1648 14.7766 13.1648H6.73841C6.71792 13.1648 6.70085 13.1477 6.70085 13.1272V5.87103C6.70085 4.90809 7.30184 3.99295 8.23746 3.73343C9.39163 3.41245 10.4741 4.06124 10.836 5.05492C10.8429 5.07541 10.8326 5.0959 10.8121 5.10273C9.83895 5.46468 9.13894 6.39006 9.13894 7.47935V7.75594C9.13894 8.32619 9.60675 8.78718 10.1804 8.78718H13.2366C13.8102 8.78718 14.2781 8.32278 14.2781 7.75594V7.47935C14.2781 6.31836 13.4824 5.34517 12.4068 5.04126C12.3966 5.03785 12.3863 5.0276 12.3829 5.01736C11.997 3.22806 10.2794 1.93048 8.3399 2.18658C6.48573 2.43244 5.18131 4.13637 5.18131 5.99055V13.1682H5.12668C4.15008 13.1682 3.23152 13.8068 3.0403 14.7595C2.89347 15.497 3.15982 16.1697 3.6447 16.6171C3.65153 16.6239 3.65495 16.6307 3.65495 16.641V19.7449C3.65495 22.6269 6.5028 24.9353 9.33358 25.4372C9.54529 25.8572 9.97554 26.1543 10.4809 26.1543C10.9351 26.1543 11.3175 25.9084 11.5463 25.5567C11.5531 25.5465 11.5634 25.5431 11.577 25.5431H18.3518C18.362 25.5431 18.3757 25.5465 18.3791 25.5567C18.6113 25.9084 18.9937 26.1543 19.4445 26.1543C19.9464 26.1543 20.3733 25.8606 20.5884 25.4475C23.4397 24.9694 26.3319 22.6474 26.3319 19.7449L26.3251 16.6478C26.3251 16.6376 26.3285 16.6307 26.3353 16.6239C26.7519 16.2551 27.0046 15.7395 27.0046 15.159Z" fill="#86888C"/>
</svg>
