<svg width="20" height="20" viewBox="0 0 20 20" fill="none" xmlns="http://www.w3.org/2000/svg">
<path fill-rule="evenodd" clip-rule="evenodd" d="M13.9744 15.2795V6.45305C13.9744 5.84974 13.8401 5.42402 13.5623 5.15083C13.2846 4.87536 12.852 4.74331 12.2373 4.74331H7.76153C7.15595 4.74331 6.72339 4.87991 6.44109 5.16221C6.16107 5.43995 6.02447 5.8634 6.02447 6.45532V15.2817C6.02447 15.8919 6.15879 16.3199 6.43882 16.5908C6.71429 16.8617 7.14684 16.9915 7.76153 16.9915H12.2396C12.852 16.9915 13.2869 16.8594 13.5623 16.5908C13.8401 16.3176 13.9744 15.8896 13.9744 15.2795ZM8.83381 3.08139C8.77462 3.14058 8.76096 3.27035 8.76096 3.37052V3.73022H11.2379V3.36824C11.2379 3.28401 11.2288 3.13603 11.1696 3.07684C11.1104 3.01764 10.9579 3.00854 10.8736 3.00854H9.12749C9.02504 3.01081 8.893 3.0222 8.83381 3.08139ZM14.2886 4.43597C14.7666 4.9095 14.9989 5.56744 14.9989 6.45305V15.2795C14.9989 16.1719 14.7644 16.8344 14.2817 17.3056C13.8036 17.7746 13.1343 18 12.2373 18H7.76153C6.86454 18 6.19522 17.7723 5.71713 17.3056C5.23449 16.8344 5 16.1719 5 15.2772V6.45305C5 5.58338 5.23221 4.92772 5.7103 4.44963C6.19067 3.97154 6.85544 3.73705 7.73648 3.7325V3.36824C7.73648 2.94935 7.85942 2.61241 8.10529 2.37109C8.35117 2.12521 8.69493 2 9.12521 2H10.8714C11.3039 2 11.6477 2.12294 11.8936 2.36653C12.1372 2.60785 12.2601 2.94707 12.2601 3.37052V3.73478C13.1503 3.73705 13.815 3.96699 14.2886 4.43597ZM12.8543 5.54468C13.1366 5.54468 13.3665 5.77234 13.3665 6.05009V14.7718C13.3665 15.7621 12.5492 16.5657 11.5452 16.5657H8.45361C7.44963 16.5657 6.63233 15.7621 6.63233 14.7718V6.05009C6.63233 5.77234 6.86227 5.54468 7.14456 5.54468H12.8543Z" fill="#86888C"/>
</svg>
