<svg width="28" height="28" viewBox="0 0 28 28" fill="none" xmlns="http://www.w3.org/2000/svg">
<path fill-rule="evenodd" clip-rule="evenodd" d="M20.4616 21.9192V8.67957C20.4616 7.77462 20.2601 7.13603 19.8435 6.72282C19.4269 6.31303 18.778 6.11155 17.856 6.11155H11.1423C10.2339 6.11155 9.58509 6.31645 9.16164 6.7399C8.74161 7.15652 8.53671 7.79169 8.53671 8.67957V21.9158C8.53671 22.8275 8.73819 23.473 9.15822 23.8793C9.57143 24.2857 10.2203 24.4804 11.1389 24.4804H17.856C18.7746 24.4804 19.4269 24.2857 19.8401 23.8793C20.2601 23.4764 20.4616 22.831 20.4616 21.9192ZM12.7507 3.62208C12.6619 3.71087 12.6414 3.90552 12.6414 4.05578V4.59875H16.3569V4.05578C16.3569 3.92943 16.3432 3.70746 16.251 3.61867C16.1622 3.52988 15.9368 3.51622 15.8105 3.51622H13.1912C13.0376 3.51622 12.8395 3.5333 12.7507 3.62208ZM20.9328 5.65396C21.65 6.36426 21.9983 7.35117 21.9983 8.67957V21.9192C21.9983 23.2578 21.6466 24.2516 20.9226 24.9585C20.2055 25.6585 19.2015 26 17.856 26H11.1423C9.79681 26 8.79283 25.6585 8.0757 24.9585C7.35174 24.2481 7 23.2544 7 21.9158V8.67957C7 7.37166 7.34832 6.38816 8.06545 5.67444C8.786 4.95731 9.78315 4.60558 11.1047 4.59875V4.05578C11.1047 3.42743 11.2891 2.92203 11.6579 2.55663C12.0268 2.18782 12.5424 2 13.1878 2H15.8071C16.4559 2 16.9715 2.18441 17.3404 2.5498C17.7057 2.9152 17.8936 3.4206 17.8936 4.05578V4.59875C19.2254 4.60558 20.2225 4.95048 20.9328 5.65396ZM18.7814 13.9795C19.2049 13.9795 19.5498 14.3176 19.5498 14.7376V21.1577C19.5498 22.6431 18.3238 23.8486 16.8179 23.8486H12.1838C10.6779 23.8486 9.45191 22.6431 9.45191 21.1577V14.7376C9.45191 14.321 9.79681 13.9795 10.2203 13.9795H18.7814Z" fill="#86888C"/>
</svg>
