<svg width="28" height="28" viewBox="0 0 28 28" fill="none" xmlns="http://www.w3.org/2000/svg">
<path fill-rule="evenodd" clip-rule="evenodd" d="M20.4616 21.9192V8.67957C20.4616 7.77462 20.2601 7.13603 19.8435 6.72624C19.4269 6.31303 18.778 6.11497 17.856 6.11497H11.1423C10.2339 6.11497 9.58509 6.31986 9.16164 6.74331C8.74161 7.15993 8.53671 7.7951 8.53671 8.68298V21.9226C8.53671 22.8378 8.73819 23.4798 9.15822 23.8862C9.57143 24.2925 10.2203 24.4872 11.1423 24.4872H17.8594C18.778 24.4872 19.4303 24.2891 19.8435 23.8862C20.2601 23.4764 20.4616 22.8344 20.4616 21.9192ZM12.7507 3.62208C12.6619 3.71087 12.6414 3.90552 12.6414 4.05578V4.59533H16.3569V4.05236C16.3569 3.92601 16.3432 3.70404 16.2544 3.61525C16.1656 3.52647 15.9368 3.51281 15.8105 3.51281H13.1912C13.0376 3.51622 12.8395 3.5333 12.7507 3.62208ZM20.9328 5.65396C21.65 6.36426 21.9983 7.35117 21.9983 8.67957V21.9192C21.9983 23.2578 21.6466 24.2516 20.9226 24.9585C20.2055 25.6619 19.2015 26 17.856 26H11.1423C9.79681 26 8.79283 25.6585 8.0757 24.9585C7.35174 24.2516 7 23.2578 7 21.9158V8.67957C7 7.37507 7.34832 6.39158 8.06545 5.67444C8.786 4.95731 9.78315 4.60558 11.1047 4.59875V4.05236C11.1047 3.42402 11.2891 2.91861 11.6579 2.55663C12.0268 2.18782 12.5424 2 13.1878 2H15.8071C16.4559 2 16.9715 2.18441 17.3404 2.5498C17.7057 2.91178 17.8902 3.4206 17.8902 4.05578V4.60216C19.2254 4.60558 20.2225 4.95048 20.9328 5.65396ZM18.7814 7.31702C19.2049 7.31702 19.5498 7.65851 19.5498 8.07513V21.1577C19.5498 22.6431 18.3238 23.8486 16.8179 23.8486H12.1804C10.6744 23.8486 9.44849 22.6431 9.44849 21.1577V8.07513C9.44849 7.65851 9.7934 7.31702 10.2168 7.31702H18.7814Z" fill="#86888C"/>
</svg>
