<svg width="20" height="20" viewBox="0 0 20 20" fill="none" xmlns="http://www.w3.org/2000/svg">
<path fill-rule="evenodd" clip-rule="evenodd" d="M13.9767 15.2795V6.45305C13.9767 5.84974 13.8423 5.42402 13.5646 5.15083C13.2869 4.87536 12.8543 4.74331 12.2396 4.74331H7.76153C7.15595 4.74331 6.72339 4.87991 6.44109 5.16221C6.16107 5.43995 6.02675 5.8634 6.02675 6.45532V15.2817C6.02675 15.8896 6.16107 16.3199 6.44109 16.5908C6.71656 16.8617 7.15139 16.9915 7.7638 16.9915H12.2419C12.8543 16.9915 13.2869 16.8594 13.5646 16.5908C13.8423 16.3176 13.9767 15.8873 13.9767 15.2795ZM8.83608 3.08367C8.77689 3.14058 8.76551 3.27262 8.76551 3.37052V3.7325H11.2425V3.37052C11.2425 3.28856 11.2334 3.14058 11.1742 3.08139C11.1127 3.01992 10.9624 3.01309 10.8782 3.01309H9.13204C9.02732 3.01081 8.89528 3.0222 8.83608 3.08367ZM14.2908 4.43597C14.7689 4.9095 15.0011 5.56744 15.0011 6.45305V15.2795C15.0011 16.1719 14.7666 16.8344 14.284 17.3056C13.8059 17.7723 13.1366 18 12.2396 18H7.76153C6.86454 18 6.19522 17.7723 5.71713 17.3056C5.23449 16.8344 5 16.1696 5 15.2795V6.45305C5 5.58338 5.23221 4.92772 5.7103 4.44963C6.19067 3.97154 6.85544 3.73705 7.73648 3.7325V3.37052C7.73648 2.95162 7.8617 2.61468 8.10529 2.37109C8.35344 2.12521 8.69721 2 9.12521 2H10.8714C11.3062 2 11.65 2.12294 11.8936 2.36653C12.1372 2.60785 12.2601 2.94479 12.2601 3.36824V3.73022C13.1525 3.73705 13.8173 3.96699 14.2908 4.43597ZM12.8566 14.0273C13.1389 14.0273 13.3688 14.2527 13.3688 14.5327V14.7718C13.3688 15.7621 12.6039 16.568 11.6659 16.568H8.33978C7.40182 16.568 6.63688 15.7621 6.63688 14.7718V14.5327C6.63688 14.255 6.86682 14.0273 7.14912 14.0273H12.8566Z" fill="#86888C"/>
</svg>
