<svg width="40" height="40" viewBox="0 0 40 40" fill="none" xmlns="http://www.w3.org/2000/svg">
<path fill-rule="evenodd" clip-rule="evenodd" d="M29.1924 31.8788V12.0194C29.1924 10.6619 28.8902 9.70404 28.2652 9.08936C27.6403 8.46955 26.667 8.17245 25.284 8.17245H15.2134C13.8509 8.17245 12.8776 8.47979 12.2425 9.11497C11.6124 9.7399 11.3051 10.6927 11.3051 12.0245V31.8839C11.3051 33.2567 11.6073 34.2197 12.2373 34.8293C12.8571 35.4388 13.8304 35.7308 15.2134 35.7308H25.2891C26.667 35.7308 27.6454 35.4337 28.2652 34.8293C28.8902 34.2146 29.1924 33.2516 29.1924 31.8788ZM17.6261 4.43312C17.4929 4.56631 17.4622 4.85828 17.4622 5.08367V5.893H23.0353V5.07854C23.0353 4.88902 23.0148 4.55606 22.8816 4.42288C22.7484 4.2897 22.4052 4.26921 22.2157 4.26921H18.2869C18.0563 4.27433 17.7592 4.29994 17.6261 4.43312ZM29.8993 7.48093C30.975 8.54639 31.4974 10.0268 31.4974 12.0194V31.8788C31.4974 33.8867 30.9698 35.3773 29.8839 36.4377C28.8082 37.4929 27.3022 38 25.284 38H15.2134C13.1952 38 11.6892 37.4878 10.6135 36.4377C9.5276 35.3773 9 33.8867 9 31.8736V12.0194C9 10.0626 9.52248 8.58736 10.5982 7.51167C11.679 6.43597 13.1747 5.90837 15.1571 5.89812V5.07854C15.1571 4.13603 15.4337 3.37792 15.9869 2.83495C16.5401 2.28173 17.3136 2 18.2817 2H22.2106C23.1838 2 23.9573 2.27661 24.5105 2.8247C25.0586 3.36767 25.3352 4.1309 25.3352 5.08367V5.90324C27.3381 5.90837 28.8338 6.42573 29.8993 7.48093ZM26.6722 9.97553C27.3073 9.97553 27.8247 10.4878 27.8247 11.1127V30.7365C27.8247 32.9647 25.9858 34.7729 23.7268 34.7729H16.7706C14.5117 34.7729 12.6727 32.9647 12.6727 30.7365V11.1127C12.6727 10.4878 13.1901 9.97553 13.8253 9.97553H26.6722Z" fill="#86888C"/>
</svg>
