<svg width="24" height="24" viewBox="0 0 24 24" fill="none" xmlns="http://www.w3.org/2000/svg">
<path fill-rule="evenodd" clip-rule="evenodd" d="M17.218 18.5993V7.56631C17.218 6.81218 17.0501 6.28002 16.7029 5.93569C16.3557 5.59419 15.815 5.4263 15.0467 5.4263H9.45191C8.69493 5.4263 8.15424 5.59704 7.80137 5.94991C7.45134 6.2971 7.28059 6.82641 7.28059 7.56631V18.5965C7.28059 19.3563 7.44849 19.8941 7.79852 20.2328C8.14286 20.5714 8.68355 20.7336 9.44906 20.7336H15.0467C15.8122 20.7336 16.3557 20.5714 16.7001 20.2328C17.0501 19.897 17.218 19.3591 17.218 18.5993ZM10.7923 3.35174C10.7183 3.42573 10.7012 3.58793 10.7012 3.71315V4.16562H13.7974V3.71315C13.7974 3.60785 13.786 3.42288 13.7092 3.34889C13.6352 3.2749 13.4474 3.26352 13.3421 3.26352H11.1594C11.0313 3.26352 10.8662 3.27775 10.7923 3.35174ZM17.6107 5.04496C18.2083 5.63688 18.4986 6.45931 18.4986 7.56631V18.5993C18.4986 19.7149 18.2055 20.543 17.6022 21.132C17.0046 21.7154 16.1679 22 15.0467 22H9.45191C8.33068 22 7.49402 21.7154 6.89641 21.132C6.29311 20.5401 6 19.712 6 18.5965V7.56631C6 6.47638 6.29027 5.6568 6.88788 5.06204C7.48833 4.46443 8.31929 4.17131 9.4206 4.16562V3.71315C9.4206 3.18953 9.57427 2.76836 9.88162 2.46386C10.189 2.15652 10.6187 2 11.1565 2H13.3392C13.8799 2 14.3096 2.15367 14.617 2.45817C14.9215 2.76266 15.078 3.18384 15.078 3.71315V4.16562C16.1878 4.17131 17.0188 4.45874 17.6107 5.04496ZM15.8179 11.9829C16.1707 11.9829 16.4582 12.2647 16.4582 12.6147V17.9647C16.4582 19.2026 15.4365 20.2072 14.1816 20.2072H10.3199C9.06488 20.2072 8.04326 19.2026 8.04326 17.9647V12.6147C8.04326 12.2675 8.33068 11.9829 8.68355 11.9829H15.8179Z" fill="#86888C"/>
</svg>
