<svg width="24" height="24" viewBox="0 0 24 24" fill="none" xmlns="http://www.w3.org/2000/svg">
<path fill-rule="evenodd" clip-rule="evenodd" d="M17.2208 18.5993V7.56631C17.2208 6.81218 17.0529 6.28002 16.7057 5.93853C16.3586 5.59419 15.8179 5.42914 15.0495 5.42914H9.45191C8.69493 5.42914 8.15424 5.59989 7.80137 5.95276C7.45134 6.29994 7.28344 6.82925 7.28344 7.56915V18.6022C7.28344 19.362 7.45134 19.8998 7.80137 20.2385C8.1457 20.5771 8.68924 20.7393 9.45475 20.7393H15.0524C15.8179 20.7393 16.3586 20.5743 16.7057 20.2385C17.0529 19.897 17.2208 19.3591 17.2208 18.5993ZM10.7951 3.35458C10.7211 3.42573 10.7069 3.59078 10.7069 3.71315V4.16562H13.8031V3.71315C13.8031 3.6107 13.7917 3.42573 13.7177 3.35174C13.6409 3.2749 13.453 3.26636 13.3478 3.26636H11.1651C11.0341 3.26352 10.8691 3.27775 10.7951 3.35458ZM17.6135 5.04496C18.2112 5.63688 18.5014 6.45931 18.5014 7.56631V18.5993C18.5014 19.7149 18.2083 20.543 17.605 21.132C17.0074 21.7154 16.1707 22 15.0495 22H9.45191C8.33068 22 7.49402 21.7154 6.89641 21.132C6.29311 20.543 6 19.712 6 18.5993V7.56631C6 6.47923 6.29027 5.65965 6.88788 5.06204C7.48833 4.46443 8.31929 4.17131 9.4206 4.16562V3.71315C9.4206 3.18953 9.57712 2.76836 9.88162 2.46386C10.1918 2.15652 10.6215 2 11.1565 2H13.3392C13.8828 2 14.3125 2.15367 14.617 2.45817C14.9215 2.75982 15.0751 3.18099 15.0751 3.7103V4.16278C16.1907 4.17131 17.0216 4.45874 17.6135 5.04496ZM15.8207 17.0341C16.1736 17.0341 16.461 17.3159 16.461 17.6659V17.9647C16.461 19.2026 15.5048 20.21 14.3324 20.21H10.1747C9.00228 20.21 8.0461 19.2026 8.0461 17.9647V17.6659C8.0461 17.3187 8.33352 17.0341 8.6864 17.0341H15.8207Z" fill="#86888C"/>
</svg>
