<svg width="28" height="28" viewBox="0 0 28 28" fill="none" xmlns="http://www.w3.org/2000/svg">
<path fill-rule="evenodd" clip-rule="evenodd" d="M8.68199 13.236L10.125 10.2954L9.14156 8.19997H8.20956C7.87211 8.19997 7.60215 7.91716 7.60215 7.56685C7.60215 7.21655 7.87533 6.93374 8.20956 6.93374H11.3494C11.6869 6.93374 11.9568 7.21655 11.9568 7.56685C11.9568 7.91716 11.6837 8.19997 11.3494 8.19997H10.4946L11.1855 9.67189H17.1021V6.72805C17.1021 6.42917 17.3014 6.17207 17.581 6.10779C17.7577 6.06601 19.3454 5.72856 20.2806 6.51273C20.573 6.75698 20.9233 7.21655 20.9233 8.01036C20.9233 8.36066 20.6502 8.64347 20.3159 8.64347C19.9785 8.64347 19.7053 8.36066 19.7053 8.01036C19.7053 7.69862 19.6057 7.57649 19.5157 7.50258C19.2522 7.28082 18.7347 7.24869 18.3202 7.28082V10.154L19.8531 13.2521C19.8531 13.2521 19.4514 13.4063 19.3068 13.4674C19.1686 13.5252 18.7219 13.7309 18.7219 13.7309L17.7095 11.6869L15.4502 16.2248C15.8005 16.5526 15.9998 17.0443 15.9998 17.6742C15.9998 18.513 15.6527 19.1076 15.0517 19.3872L15.4149 20.1424H15.9677C16.3051 20.1424 16.5751 20.4285 16.5751 20.7788C16.5751 21.1291 16.3019 21.4119 15.9677 21.4119H15.0389C14.8075 21.4119 14.5954 21.2769 14.4957 21.0616L13.763 19.535C13.0142 19.4065 12.5321 18.9083 12.3939 18.1402H11.5423C11.5423 18.1402 11.5583 17.8992 11.5583 17.5071C11.5551 17.0925 11.5423 16.8708 11.5423 16.8708H12.4807C12.5739 16.6073 12.7217 16.3919 12.9081 16.2184L10.7902 11.7159L9.81967 13.6988C9.81967 13.6988 9.37295 13.4931 9.2219 13.432C9.09335 13.3806 8.7077 13.2456 8.68199 13.236L6.73121 17.2211C6.6348 17.4171 6.64444 17.6517 6.75371 17.8414C6.86298 18.0278 7.06224 18.1434 7.27435 18.1434H11.5455C11.3269 20.5956 9.81646 22 7.29363 22C4.56512 22 3 20.3706 3 17.5264C3 14.6822 4.56512 13.0528 7.29363 13.0528C7.80462 13.0528 8.25777 13.1267 8.68199 13.236ZM9.82288 13.702C10.8192 14.3319 11.4073 15.4214 11.5455 16.874H8.27062L9.82288 13.702ZM14.1776 15.7781C14.2194 15.7781 14.2579 15.7845 14.2997 15.7877L16.71 10.9413H11.7801L14.0587 15.7877C14.1004 15.7845 14.1358 15.7781 14.1776 15.7781ZM14.1776 17.0475C13.7148 17.0475 13.5734 17.1954 13.5734 17.6774C13.5734 18.1563 13.7212 18.3074 14.1776 18.3074C14.6436 18.3074 14.7818 18.1595 14.7818 17.6774C14.7818 17.1922 14.6436 17.0475 14.1776 17.0475ZM21.2961 13.0528C24.0246 13.0528 25.5898 14.6854 25.5898 17.5264C25.5898 20.3706 24.0246 22 21.2961 22C18.5676 22 17.0025 20.3706 17.0025 17.5264C17.0025 15.7588 17.6067 14.4604 18.7219 13.7309L20.7337 17.7996C20.843 18.0181 21.0551 18.1434 21.2768 18.1434C21.37 18.1434 21.4665 18.121 21.5564 18.0727C21.8553 17.9121 21.9742 17.5296 21.82 17.2179L19.8596 13.2488C20.2934 13.1331 20.7659 13.0528 21.2961 13.0528Z" fill="#86888C"/>
</svg>
