<svg width="24" height="24" viewBox="0 0 24 24" fill="none" xmlns="http://www.w3.org/2000/svg">
<path fill-rule="evenodd" clip-rule="evenodd" d="M6.97174 11.3315L8.23436 8.75844L7.37387 6.92497H6.55836C6.2631 6.92497 6.02688 6.67751 6.02688 6.371C6.02688 6.06448 6.26591 5.81702 6.55836 5.81702H9.30576C9.60102 5.81702 9.83724 6.06448 9.83724 6.371C9.83724 6.67751 9.59821 6.92497 9.30576 6.92497H8.55775L9.16234 8.2129H14.3394V5.63705C14.3394 5.37552 14.5137 5.15056 14.7584 5.09432C14.913 5.05776 16.3022 4.76249 17.1205 5.44864C17.3764 5.66235 17.6829 6.06448 17.6829 6.75906C17.6829 7.06558 17.4439 7.31304 17.1514 7.31304C16.8562 7.31304 16.6171 7.06558 16.6171 6.75906C16.6171 6.48629 16.53 6.37943 16.4512 6.31475C16.2206 6.12072 15.7679 6.0926 15.4051 6.12072V8.63471L16.7465 11.3455C16.7465 11.3455 16.395 11.4805 16.2684 11.534C16.1475 11.5846 15.7566 11.7645 15.7566 11.7645L14.8708 9.97607L12.894 13.9467C13.2005 14.2335 13.3748 14.6638 13.3748 15.215C13.3748 15.9489 13.0711 16.4691 12.5453 16.7138L12.863 17.3746H13.3467C13.642 17.3746 13.8782 17.6249 13.8782 17.9314C13.8782 18.2379 13.6392 18.4854 13.3467 18.4854H12.534C12.3315 18.4854 12.1459 18.3673 12.0588 18.1789L11.4176 16.8431C10.7624 16.7307 10.3406 16.2948 10.2197 15.6227H9.47448C9.47448 15.6227 9.48854 15.4118 9.48854 15.0687C9.48573 14.706 9.47448 14.5119 9.47448 14.5119H10.2956C10.3772 14.2813 10.5065 14.0929 10.6696 13.9411L8.81646 10.0014L7.96721 11.7364C7.96721 11.7364 7.57633 11.5565 7.44417 11.503C7.33168 11.458 6.99424 11.3399 6.97174 11.3315L5.26481 14.8185C5.18045 14.99 5.18889 15.1953 5.2845 15.3612C5.38011 15.5243 5.55446 15.6255 5.74005 15.6255H9.47729C9.28607 17.7711 7.9644 19 5.75693 19C3.36948 19 2 17.5743 2 15.0856C2 12.5969 3.36948 11.1712 5.75693 11.1712C6.20404 11.1712 6.60055 11.2359 6.97174 11.3315ZM7.97002 11.7392C8.84177 12.2904 9.35637 13.2437 9.47729 14.5147H6.61179L7.97002 11.7392ZM11.7804 13.5558C11.8169 13.5558 11.8507 13.5615 11.8872 13.5643L13.9963 9.32367H9.68257L11.6763 13.5643C11.7129 13.5615 11.7438 13.5558 11.7804 13.5558ZM11.7804 14.6666C11.3754 14.6666 11.2517 14.796 11.2517 15.2178C11.2517 15.6368 11.3811 15.7689 11.7804 15.7689C12.1881 15.7689 12.309 15.6396 12.309 15.2178C12.309 14.7931 12.1881 14.6666 11.7804 14.6666ZM18.0091 11.1712C20.3966 11.1712 21.766 12.5997 21.766 15.0856C21.766 17.5743 20.3966 19 18.0091 19C15.6217 19 14.2522 17.5743 14.2522 15.0856C14.2522 13.539 14.7809 12.4029 15.7566 11.7645L17.517 15.3246C17.6126 15.5158 17.7982 15.6255 17.9922 15.6255C18.0738 15.6255 18.1582 15.6058 18.2369 15.5637C18.4984 15.423 18.6025 15.0884 18.4675 14.8156L16.7521 11.3427C17.1317 11.2415 17.5451 11.1712 18.0091 11.1712Z" fill="#86888C"/>
</svg>
