<svg width="20" height="20" viewBox="0 0 20 20" fill="none" xmlns="http://www.w3.org/2000/svg">
<path fill-rule="evenodd" clip-rule="evenodd" d="M6.26149 9.42699L7.34374 7.22152L6.60617 5.64998H5.90717C5.65408 5.64998 5.45162 5.43787 5.45162 5.17514C5.45162 4.91241 5.65649 4.7003 5.90717 4.7003H8.26208C8.51516 4.7003 8.71763 4.91241 8.71763 5.17514C8.71763 5.43787 8.51275 5.64998 8.26208 5.64998H7.62093L8.13915 6.75392H12.5766V4.54604C12.5766 4.32188 12.726 4.12905 12.9357 4.08084C13.0683 4.04951 14.259 3.79642 14.9604 4.38455C15.1798 4.56773 15.4425 4.91241 15.4425 5.50777C15.4425 5.77049 15.2376 5.9826 14.9869 5.9826C14.7339 5.9826 14.529 5.77049 14.529 5.50777C14.529 5.27396 14.4543 5.18237 14.3868 5.12693C14.1891 4.96062 13.8011 4.93652 13.4901 4.96062V7.11547L14.6399 9.43904C14.6399 9.43904 14.3386 9.55474 14.2301 9.60053C14.1264 9.64392 13.7914 9.79818 13.7914 9.79818L13.0322 8.2652L11.3377 11.6686C11.6004 11.9145 11.7498 12.2832 11.7498 12.7557C11.7498 13.3848 11.4895 13.8307 11.0388 14.0404L11.3112 14.6068H11.7257C11.9788 14.6068 12.1813 14.8213 12.1813 15.0841C12.1813 15.3468 11.9764 15.5589 11.7257 15.5589H11.0292C10.8556 15.5589 10.6965 15.4577 10.6218 15.2962L10.0722 14.1513C9.51064 14.0549 9.14909 13.6812 9.04544 13.1052H8.4067C8.4067 13.1052 8.41875 12.9244 8.41875 12.6303C8.41634 12.3194 8.4067 12.1531 8.4067 12.1531H9.11052C9.18042 11.9554 9.2913 11.7939 9.4311 11.6638L7.84268 8.28689L7.11475 9.77408C7.11475 9.77408 6.77972 9.61982 6.66643 9.57402C6.57002 9.53545 6.28077 9.43422 6.26149 9.42699L4.79841 12.4158C4.7261 12.5628 4.73333 12.7388 4.81528 12.881C4.89724 13.0208 5.04668 13.1076 5.20576 13.1076H8.40911C8.2452 14.9467 7.11234 16 5.22022 16C3.17384 16 2 14.778 2 12.6448C2 10.5116 3.17384 9.2896 5.22022 9.2896C5.60347 9.2896 5.94333 9.34504 6.26149 9.42699ZM7.11716 9.77649C7.86437 10.2489 8.30546 11.066 8.40911 12.1555H5.95297L7.11716 9.77649ZM10.3832 11.3336C10.4145 11.3336 10.4434 11.3384 10.4748 11.3408L12.2825 7.706H8.58506L10.294 11.3408C10.3253 11.3384 10.3518 11.3336 10.3832 11.3336ZM10.3832 12.2857C10.0361 12.2857 9.93004 12.3965 9.93004 12.7581C9.93004 13.1172 10.0409 13.2305 10.3832 13.2305C10.7327 13.2305 10.8363 13.1196 10.8363 12.7581C10.8363 12.3941 10.7327 12.2857 10.3832 12.2857ZM15.7221 9.2896C17.7685 9.2896 18.9423 10.5141 18.9423 12.6448C18.9423 14.778 17.7685 16 15.7221 16C13.6757 16 12.5019 14.778 12.5019 12.6448C12.5019 11.3191 12.955 10.3453 13.7914 9.79818L15.3003 12.8497C15.3822 13.0136 15.5413 13.1076 15.7076 13.1076C15.7775 13.1076 15.8498 13.0907 15.9173 13.0546C16.1415 12.934 16.2307 12.6472 16.115 12.4134L14.6447 9.43663C14.9701 9.34986 15.3244 9.2896 15.7221 9.2896Z" fill="#86888C"/>
</svg>
