<svg width="40" height="40" viewBox="0 0 40 40" fill="none" xmlns="http://www.w3.org/2000/svg">
<path d="M37.1282 17C36.518 16.4 35.718 16.0308 34.8667 15.9641C34.3436 15.9231 33.8205 16.0103 33.3333 16.2154V8.9641C33.3333 6.87692 32.759 5.10769 31.6308 3.91282C30.4308 2.64103 28.6923 2 26.4718 2H8.86154C6.64103 2 4.90256 2.64103 3.70256 3.91282C2.57436 5.10769 2 6.87692 2 8.9641V31.1385C2 33.2256 2.57436 34.8923 3.70256 36.0872C4.90256 37.359 6.6359 38 8.86154 38H26.4718C28.6923 38 30.4308 37.359 31.6308 36.0872C32.759 34.8923 33.3333 33.2256 33.3333 31.1385V25.3436C35.2462 23.641 36.8718 22.1897 37.118 21.9487C37.8051 21.2718 38.1692 20.4308 38.1744 19.518C38.1641 18.5744 37.7897 17.6718 37.1282 17ZM8.9641 9.68718H26.4718C27.0359 9.68718 27.4974 10.1487 27.4974 10.7128C27.4974 11.2769 27.0359 11.7385 26.4718 11.7385H8.9641C8.4 11.7385 7.93846 11.2769 7.93846 10.7128C7.93846 10.1487 8.4 9.68718 8.9641 9.68718ZM8.9641 15.9128H26.4718C27.0359 15.9128 27.4974 16.3744 27.4974 16.9385C27.4974 17.5026 27.0359 17.9641 26.4718 17.9641H8.9641C8.4 17.9641 7.93846 17.5026 7.93846 16.9385C7.93846 16.3744 8.4 15.9128 8.9641 15.9128ZM8.9641 22.1385H26.4205C25.6564 22.8154 24.8667 23.5128 24.0974 24.1897H8.9641C8.4 24.1897 7.93846 23.7282 7.93846 23.1641C7.93846 22.6 8.4 22.1385 8.9641 22.1385ZM20.1897 30.4154H8.9641C8.4 30.4154 7.93846 29.9538 7.93846 29.3897C7.93846 28.8256 8.4 28.3641 8.9641 28.3641H20.8769L20.1897 30.4154ZM35.6769 20.4872C35.2615 20.8974 29.3487 26.1436 25.3692 29.6615L22.2615 30.6872L23.2821 27.6462C24.9538 26.1692 33.0615 19.0103 33.6256 18.4462C33.9487 18.1231 34.3128 17.9795 34.7128 18.0051C35.5026 18.0615 36.1128 18.7128 36.118 19.5026C36.118 19.8667 35.9692 20.2 35.6769 20.4872Z" fill="#86888C"/>
</svg>
