<svg width="20" height="20" viewBox="0 0 20 20" fill="none" xmlns="http://www.w3.org/2000/svg">
<path d="M17.6125 8.66667C17.3413 8.4 16.9858 8.2359 16.6074 8.20627C16.3749 8.18803 16.1425 8.22678 15.9259 8.31795V5.09516C15.9259 4.16752 15.6707 3.3812 15.1692 2.85014C14.6359 2.2849 13.8632 2 12.8764 2H5.04957C4.06268 2 3.29003 2.2849 2.7567 2.85014C2.25527 3.3812 2 4.16752 2 5.09516V14.9504C2 15.8781 2.25527 16.6188 2.7567 17.1499C3.29003 17.7151 4.0604 18 5.04957 18H12.8764C13.8632 18 14.6359 17.7151 15.1692 17.1499C15.6707 16.6188 15.9259 15.8781 15.9259 14.9504V12.3749C16.7761 11.6182 17.4986 10.9732 17.608 10.8661C17.9134 10.5652 18.0752 10.1915 18.0775 9.78576C18.0729 9.36638 17.9066 8.96524 17.6125 8.66667ZM5.09516 5.41652H12.8764C13.1271 5.41652 13.3322 5.62165 13.3322 5.87236C13.3322 6.12308 13.1271 6.32821 12.8764 6.32821H5.09516C4.84444 6.32821 4.63932 6.12308 4.63932 5.87236C4.63932 5.62165 4.84444 5.41652 5.09516 5.41652ZM5.09516 8.18348H12.8764C13.1271 8.18348 13.3322 8.3886 13.3322 8.63932C13.3322 8.89003 13.1271 9.09516 12.8764 9.09516H5.09516C4.84444 9.09516 4.63932 8.89003 4.63932 8.63932C4.63932 8.3886 4.84444 8.18348 5.09516 8.18348ZM5.09516 10.9504H12.8536C12.514 11.2513 12.163 11.5613 11.8211 11.8621H5.09516C4.84444 11.8621 4.63932 11.657 4.63932 11.4063C4.63932 11.1556 4.84444 10.9504 5.09516 10.9504ZM10.0843 14.6291H5.09516C4.84444 14.6291 4.63932 14.4239 4.63932 14.1732C4.63932 13.9225 4.84444 13.7174 5.09516 13.7174H10.3897L10.0843 14.6291ZM16.9675 10.2165C16.7829 10.3989 14.155 12.7305 12.3863 14.294L11.0051 14.7499L11.4587 13.3983C12.2017 12.7419 15.8051 9.56011 16.0558 9.3094C16.1994 9.16581 16.3613 9.10199 16.539 9.11339C16.89 9.13846 17.1613 9.42792 17.1635 9.77892C17.1635 9.94074 17.0974 10.0889 16.9675 10.2165Z" fill="#86888C"/>
</svg>
