<svg width="24" height="24" viewBox="0 0 24 24" fill="none" xmlns="http://www.w3.org/2000/svg">
<path d="M21.5157 10.3333C21.1766 10 20.7322 9.79487 20.2593 9.75783C19.9687 9.73504 19.6781 9.78348 19.4074 9.89744V5.86895C19.4074 4.7094 19.0883 3.7265 18.4615 3.06268C17.7949 2.35613 16.8291 2 15.5954 2H5.81197C4.57835 2 3.61254 2.35613 2.94587 3.06268C2.31909 3.7265 2 4.7094 2 5.86895V18.188C2 19.3476 2.31909 20.2735 2.94587 20.9373C3.61254 21.6439 4.5755 22 5.81197 22H15.5954C16.8291 22 17.7949 21.6439 18.4615 20.9373C19.0883 20.2735 19.4074 19.3476 19.4074 18.188V14.9687C20.4701 14.0228 21.3732 13.2165 21.51 13.0826C21.8917 12.7066 22.094 12.2393 22.0969 11.7322C22.0912 11.208 21.8832 10.7066 21.5157 10.3333ZM5.86895 6.27066H15.5954C15.9088 6.27066 16.1652 6.52707 16.1652 6.84046C16.1652 7.15385 15.9088 7.41026 15.5954 7.41026H5.86895C5.55556 7.41026 5.29915 7.15385 5.29915 6.84046C5.29915 6.52707 5.55556 6.27066 5.86895 6.27066ZM5.86895 9.72934H15.5954C15.9088 9.72934 16.1652 9.98575 16.1652 10.2991C16.1652 10.6125 15.9088 10.8689 15.5954 10.8689H5.86895C5.55556 10.8689 5.29915 10.6125 5.29915 10.2991C5.29915 9.98575 5.55556 9.72934 5.86895 9.72934ZM5.86895 13.188H15.567C15.1424 13.5641 14.7037 13.9516 14.2764 14.3276H5.86895C5.55556 14.3276 5.29915 14.0712 5.29915 13.7578C5.29915 13.4444 5.55556 13.188 5.86895 13.188ZM12.1054 17.7863H5.86895C5.55556 17.7863 5.29915 17.5299 5.29915 17.2165C5.29915 16.9031 5.55556 16.6467 5.86895 16.6467H12.4872L12.1054 17.7863ZM20.7094 12.2707C20.4786 12.4986 17.1937 15.4131 14.9829 17.3675L13.2564 17.9373L13.8234 16.2479C14.7521 15.4274 19.2564 11.4501 19.5698 11.1368C19.7493 10.9573 19.9516 10.8775 20.1738 10.8917C20.6125 10.9231 20.9516 11.2849 20.9544 11.7236C20.9544 11.9259 20.8718 12.1111 20.7094 12.2707Z" fill="#86888C"/>
</svg>
