<svg width="28" height="28" viewBox="0 0 28 28" fill="none" xmlns="http://www.w3.org/2000/svg">
<path fill-rule="evenodd" clip-rule="evenodd" d="M13.9001 13.8478L12.466 14.5717C12.466 14.2234 12.466 13.8854 12.4592 13.5576L13.3948 13.0863C13.6133 12.9737 13.7567 12.7449 13.7567 12.4922V5.32488H14.6582V12.5093C14.6582 12.762 14.7982 12.9907 15.0201 13.1034L15.9489 13.5746C15.9455 13.9024 15.9421 14.2405 15.9421 14.5888L14.4772 13.8478C14.2997 13.7556 14.0845 13.7556 13.9001 13.8478ZM25.8889 18.0102C25.1718 13.7795 22.1192 10.218 21.6992 9.74683C21.0914 8.82488 20.2445 8.37756 19.1143 8.37756C17.3421 8.37756 16.6899 9.39171 16.4543 10.0439C16.3484 10.2522 16.2528 10.5049 16.1606 10.8293C16.0855 11.0956 16.0309 11.5498 16.0001 12.12L15.9592 12.0995V5.15415C15.9592 4.51902 15.4504 4 14.8255 4H13.5894C12.9645 4 12.4557 4.51902 12.4557 5.15415V12.0824L12.4148 12.1029C12.3806 11.5156 12.3294 11.0478 12.2509 10.7746V10.7712C12.1553 10.44 12.0631 10.1941 11.9572 9.98927C11.725 9.33707 11.0728 8.32293 9.30063 8.32293C8.17038 8.32293 7.32355 8.77024 6.71575 9.6922C6.29575 10.1668 3.24307 13.7249 2.52599 17.959C1.95916 21.3122 2.14697 23.2585 3.1338 24.2727C3.23624 24.3785 3.79624 24.9044 4.68746 24.942C4.74209 24.9454 4.79673 24.9454 4.84794 24.9454C6.11477 24.9454 6.89673 24.2761 7.32697 23.9107L7.42258 23.8288C7.78794 23.5249 7.88697 23.4429 8.29673 23.4429C8.79526 23.4463 10.1065 23.3337 10.3045 23.279C11.6021 22.9376 12.3157 21.9098 12.3157 20.4005C12.3533 19.5537 12.4216 17.8327 12.4523 16.0605L14.1938 15.1829L15.966 16.0776C15.9967 17.86 16.065 19.5912 16.1026 20.438C16.1026 21.9644 16.8162 22.9922 18.107 23.3302C18.3153 23.3883 19.6367 23.4976 20.1114 23.4976H20.1182C20.5314 23.4976 20.6304 23.5795 20.9923 23.8834L21.0879 23.9654C21.5182 24.3307 22.3001 25 23.567 25C23.6182 25 23.6728 24.9966 23.7275 24.9966C24.6187 24.959 25.1787 24.4332 25.2845 24.3239C26.2714 23.3063 26.4557 21.36 25.8889 18.0102Z" fill="#86888C"/>
</svg>
