<svg width="28" height="28" viewBox="0 0 28 28" fill="none" xmlns="http://www.w3.org/2000/svg">
<path fill-rule="evenodd" clip-rule="evenodd" d="M14.441 19.6503C14.4446 20.077 14.0896 20.4283 13.6557 20.4283H13.6521C13.2183 20.4283 12.8633 20.0841 12.8633 19.6574L12.8131 10.6217C13.082 10.6289 13.3366 10.6575 13.6163 10.6575C13.8852 10.6575 14.1326 10.6324 14.3944 10.6253L14.441 19.6503ZM26.0871 5.211C26.1803 5.07475 26.2054 4.92056 26.2018 4.76638C26.1982 4.61937 26.1695 4.47595 26.0835 4.35404C26.0261 4.26798 25.9508 4.19627 25.8612 4.13532C25.5456 3.93094 25.144 3.9883 24.8823 4.2393C24.8428 4.27515 24.7962 4.30742 24.764 4.35404C24.0684 5.39028 23.1791 6.24007 22.1357 6.93926C19.9987 8.36634 17.1589 9.10498 13.6127 9.10498C10.7729 9.10498 8.35261 8.63885 6.41638 7.72093C5.0395 7.06835 3.90286 6.16119 2.99212 5.04606C2.80567 4.81658 2.61563 4.59069 2.45069 4.34328C2.40049 4.27515 2.33954 4.22496 2.275 4.17476C2.01325 3.97038 1.64751 3.93452 1.35349 4.12456C1.2782 4.17476 1.22441 4.23571 1.17063 4.30384C0.969832 4.55483 0.937562 4.91698 1.12043 5.20383C1.39652 5.609 1.69771 5.99266 2.02042 6.35481C2.1244 6.47672 2.24631 6.5807 2.35746 6.69544C2.57619 6.92134 2.79491 7.14723 3.03156 7.3552C3.1965 7.49862 3.37219 7.6277 3.54789 7.76037C3.75944 7.92531 3.97099 8.09383 4.20047 8.24443C4.37617 8.36275 4.56262 8.46674 4.74548 8.57789C4.91401 8.67829 5.07177 8.78944 5.24747 8.88267C5.16141 9.92608 5.12197 11.0771 5.12197 12.3894C5.12197 17.1188 5.68491 20.8622 7.8327 23.0064C9.11993 24.2936 10.9773 25 13.6199 25C14.0609 25 14.4804 24.9785 14.882 24.9426C14.9394 24.939 14.986 24.9247 15.0398 24.9175C15.3768 24.8781 15.7031 24.8351 16.0115 24.7705C21.0098 23.702 22.1178 19.012 22.1178 12.3894C22.1178 11.0771 22.0748 9.95118 21.9923 8.92569C21.9923 8.90418 21.9923 8.89342 21.9815 8.8755C22.0819 8.82171 22.1716 8.75717 22.272 8.70339C22.4799 8.58506 22.6879 8.46315 22.8887 8.33407C23.1397 8.17272 23.3799 7.99702 23.613 7.81774C23.7707 7.69941 23.9285 7.5775 24.0791 7.45201C24.3373 7.2297 24.5811 6.99305 24.8177 6.74923C24.9289 6.63449 25.0472 6.52692 25.1548 6.40859C25.4847 6.03569 25.7966 5.64486 26.0799 5.22534L26.0871 5.211Z" fill="#86888C"/>
</svg>
