<svg width="20" height="20" viewBox="0 0 20 20" fill="none" xmlns="http://www.w3.org/2000/svg">
<path fill-rule="evenodd" clip-rule="evenodd" d="M10.0031 9.5652L9.04699 10.0478C9.04699 9.81561 9.04699 9.59024 9.04244 9.37171L9.66618 9.05756C9.81187 8.98244 9.90748 8.82992 9.90748 8.66146V3.88325H10.5085V8.67285C10.5085 8.8413 10.6018 8.99382 10.7498 9.06894L11.3689 9.38309C11.3667 9.60163 11.3644 9.82699 11.3644 10.0592L10.3878 9.5652C10.2694 9.50374 10.126 9.50374 10.0031 9.5652ZM17.9956 12.3402C17.5176 9.51968 15.4824 7.14537 15.2024 6.83122C14.7972 6.21659 14.2327 5.91837 13.4792 5.91837C12.2977 5.91837 11.8629 6.59447 11.7059 7.02927C11.6353 7.16813 11.5715 7.33659 11.5101 7.55285C11.46 7.73041 11.4236 8.03317 11.4031 8.41333L11.3758 8.39968V3.76943C11.3758 3.34602 11.0366 3 10.62 3H9.79593C9.37935 3 9.04016 3.34602 9.04016 3.76943V8.38829L9.01284 8.40195C8.99008 8.01041 8.95593 7.69854 8.90358 7.51642V7.51415C8.83984 7.29333 8.77837 7.12943 8.7078 6.99285C8.55301 6.55805 8.11821 5.88195 6.93675 5.88195C6.18325 5.88195 5.6187 6.18016 5.21349 6.7948C4.93349 7.11122 2.89837 9.48325 2.42032 12.306C2.04244 14.5415 2.16764 15.839 2.82553 16.5151C2.89382 16.5857 3.26715 16.9363 3.8613 16.9613C3.89772 16.9636 3.93414 16.9636 3.96829 16.9636C4.81284 16.9636 5.33414 16.5174 5.62097 16.2738L5.68471 16.2192C5.92829 16.0166 5.99431 15.962 6.26748 15.962C6.59984 15.9642 7.47398 15.8891 7.60601 15.8527C8.47106 15.625 8.94683 14.9398 8.94683 13.9337C8.97187 13.3691 9.0174 12.2218 9.03788 11.0403L10.1989 10.4553L11.3803 11.0517C11.4008 12.24 11.4463 13.3941 11.4714 13.9587C11.4714 14.9763 11.9472 15.6615 12.8076 15.8868C12.9465 15.9255 13.8275 15.9984 14.1439 15.9984H14.1485C14.4239 15.9984 14.4899 16.053 14.7312 16.2556L14.795 16.3102C15.0818 16.5538 15.6031 17 16.4476 17C16.4818 17 16.5182 16.9977 16.5546 16.9977C17.1488 16.9727 17.5221 16.6221 17.5927 16.5493C18.2506 15.8709 18.3735 14.5733 17.9956 12.3402Z" fill="#86888C"/>
</svg>
