<svg width="20" height="20" viewBox="0 0 20 20" fill="none" xmlns="http://www.w3.org/2000/svg">
<path fill-rule="evenodd" clip-rule="evenodd" d="M9.83665 4.11725V15.8828C9.83665 16.0512 9.84121 16.5885 9.83893 16.8025C9.77518 17.4946 9.31531 18 8.40922 18C7.60558 18 7.06147 17.6767 6.7564 17.0689C6.95902 17.0074 7.16164 16.9141 7.36426 16.7843C7.79454 16.5111 8.07911 16.1787 8.21343 15.7962C8.28628 15.5845 8.17018 15.3546 7.9539 15.2817C7.73762 15.2112 7.50085 15.3227 7.428 15.5344C7.35515 15.7439 7.18213 15.9351 6.91121 16.1081C6.65623 16.2721 6.41491 16.3699 6.19636 16.3426C6.18042 16.3449 6.16448 16.3517 6.14855 16.354C6.13489 16.3517 6.11895 16.3472 6.10529 16.3472C3.22538 16.3472 3 13.6289 3 12.7957C3 12.4656 3.04781 11.4092 3.56915 10.5373C3.80137 10.6443 4.05862 10.724 4.36369 10.749C4.39784 10.7513 4.42743 10.7513 4.45931 10.7536C4.44792 11.3182 4.82129 11.7257 5.28571 11.9032C5.28799 11.9032 5.36767 11.9328 5.36995 11.9328C5.4132 11.9488 5.45646 11.9556 5.49516 11.9556C5.6568 11.9556 5.79567 11.8463 5.85942 11.6801C5.9391 11.473 5.79567 11.2271 5.58395 11.1474C5.24701 11.0176 5.26067 10.7877 5.30165 10.642C6.0461 10.3825 6.3967 9.7177 6.46044 9.09846L6.47183 8.95959C6.49004 8.73648 6.31929 8.54297 6.09163 8.52476C5.86625 8.50427 5.66363 8.67274 5.64542 8.89585L5.63404 9.02334C5.58623 9.48549 5.35174 10.025 4.43426 9.94309C4.12464 9.91804 3.89243 9.83153 3.72851 9.69721C3.05692 8.78885 3 7.56403 3 7.20433C3 6.37109 3.22311 3.65282 6.17587 3.65282H6.17814C6.97268 3.63688 7.24587 4.2675 7.34149 4.54297L7.3893 4.68184C7.44394 4.85487 7.60785 4.96642 7.78543 4.96642C7.82641 4.96642 7.86739 4.95959 7.90837 4.94821C8.12692 4.88219 8.24986 4.65453 8.18156 4.4428L8.12464 4.27661C7.9243 3.71429 7.4667 3.13603 6.7564 2.92886C7.06375 2.32555 7.60558 2.00455 8.40694 2.00455C9.39727 2.00455 9.82072 2.76949 9.8321 3.24758C9.83438 3.42288 9.82755 3.97837 9.83665 4.11725ZM16.2339 10.0569C16.5435 10.082 16.778 10.1685 16.9397 10.3028C17.6113 11.2089 17.6682 12.4337 17.6682 12.7957C17.6682 13.6289 17.4451 16.3472 14.4923 16.3472H14.49C13.6955 16.3631 13.4223 15.7325 13.3244 15.4593L13.2766 15.3204C13.222 15.1474 13.0581 15.0359 12.8805 15.0359C12.8395 15.0359 12.7985 15.0427 12.7575 15.0541C12.539 15.1201 12.416 15.3478 12.4843 15.5595L12.5413 15.7257C12.7439 16.288 13.1992 16.864 13.9095 17.0711C13.6044 17.6744 13.0603 17.9977 12.259 17.9977C11.2686 17.9977 10.8611 17.4217 10.8338 16.7547C10.8361 16.5748 10.8406 16.0171 10.8338 15.8782V4.11725V3.21116C10.8315 2.60785 11.3552 2 12.259 2C13.0626 2 13.6067 2.32328 13.9118 2.93113C13.7092 2.9926 13.5065 3.08594 13.3039 3.21571C12.8736 3.4889 12.5891 3.82129 12.4548 4.20603C12.3819 4.41776 12.498 4.6477 12.7143 4.71827C12.9306 4.78884 13.1673 4.67729 13.2402 4.46557C13.313 4.25612 13.4861 4.06488 13.757 3.89186C14.012 3.72795 14.251 3.63233 14.4696 3.65737C14.4855 3.65509 14.5014 3.64826 14.5174 3.64599C14.5333 3.64599 14.547 3.65282 14.5606 3.65282C17.4405 3.65282 17.6659 6.37109 17.6659 7.2066C17.6659 7.53671 17.6181 8.59306 17.0968 9.465C16.8645 9.358 16.6073 9.27832 16.3022 9.25327C16.2703 9.251 16.2385 9.251 16.2066 9.24872C16.218 8.68412 15.8446 8.27661 15.3779 8.09903C15.3756 8.09903 15.296 8.06944 15.2937 8.06944C15.2504 8.0535 15.2072 8.04667 15.1685 8.04667C15.0068 8.04667 14.868 8.15595 14.8042 8.32214C14.7245 8.52931 14.868 8.77291 15.0797 8.85487C15.4189 8.98463 15.4052 9.21229 15.362 9.36027C14.6175 9.61981 14.2669 10.2846 14.2032 10.9038L14.1918 11.0427C14.1736 11.2658 14.3443 11.4593 14.572 11.4775C14.7974 11.498 15 11.3295 15.0182 11.1064L15.0296 10.9812C15.0797 10.5168 15.3164 9.97496 16.2339 10.0569Z" fill="#86888C"/>
</svg>
