<svg width="24" height="24" viewBox="0 0 24 24" fill="none" xmlns="http://www.w3.org/2000/svg">
<path fill-rule="evenodd" clip-rule="evenodd" d="M12.021 11.441L10.7917 12.0615C10.7917 11.7629 10.7917 11.4732 10.7859 11.1922L11.5878 10.7883C11.7751 10.6917 11.8981 10.4956 11.8981 10.279V4.13561H12.6707V10.2937C12.6707 10.5102 12.7907 10.7063 12.981 10.8029L13.7771 11.2068C13.7742 11.4878 13.7712 11.7776 13.7712 12.0761L12.5156 11.441C12.3634 11.362 12.179 11.362 12.021 11.441ZM22.2971 15.0088C21.6825 11.3824 19.0659 8.32976 18.7059 7.92585C18.1849 7.13561 17.459 6.7522 16.4903 6.7522C14.9712 6.7522 14.4122 7.62146 14.2103 8.18049C14.1195 8.35902 14.0376 8.57561 13.9586 8.85366C13.8942 9.08195 13.8473 9.47122 13.821 9.96L13.7859 9.94244V3.98927C13.7859 3.44488 13.3498 3 12.8142 3H11.7546C11.219 3 10.7829 3.44488 10.7829 3.98927V9.92781L10.7478 9.94537C10.7186 9.44195 10.6746 9.04098 10.6073 8.80683V8.8039C10.5254 8.52 10.4464 8.30927 10.3556 8.13366C10.1566 7.57463 9.59758 6.70537 8.07855 6.70537C7.10977 6.70537 6.38392 7.08878 5.86294 7.87902C5.50294 8.28585 2.88636 11.3356 2.27172 14.9649C1.78587 17.839 1.94684 19.5073 2.7927 20.3766C2.8805 20.4673 3.3605 20.918 4.1244 20.9502C4.17123 20.9532 4.21806 20.9532 4.26197 20.9532C5.34782 20.9532 6.01806 20.3795 6.38684 20.0663L6.4688 19.9961C6.78197 19.7356 6.86684 19.6654 7.21806 19.6654C7.64538 19.6683 8.76928 19.5717 8.93904 19.5249C10.0512 19.2322 10.6629 18.3512 10.6629 17.0576C10.6951 16.3317 10.7537 14.8566 10.78 13.3376L12.2727 12.5854L13.7917 13.3522C13.8181 14.88 13.8766 16.3639 13.9088 17.0898C13.9088 18.398 14.5205 19.279 15.6268 19.5688C15.8054 19.6185 16.9381 19.7122 17.3449 19.7122H17.3507C17.7049 19.7122 17.7898 19.7824 18.1 20.0429L18.182 20.1132C18.5507 20.4263 19.221 21 20.3068 21C20.3507 21 20.3976 20.9971 20.4444 20.9971C21.2083 20.9649 21.6883 20.5141 21.779 20.4205C22.6249 19.5483 22.7829 17.88 22.2971 15.0088Z" fill="#86888C"/>
</svg>
