<svg width="24" height="24" viewBox="0 0 24 24" fill="none" xmlns="http://www.w3.org/2000/svg">
<path fill-rule="evenodd" clip-rule="evenodd" d="M11.6178 22.2852C10.7096 22.2852 9.84989 22.12 9.06985 21.7784C8.47201 21.5137 8.03075 21.0041 7.75461 20.261C7.52686 19.6433 7.46423 18.9316 7.57526 18.143C7.6692 17.4825 7.58095 17.1181 7.31904 17.0526C7.171 17.0156 7.05428 17.0754 6.84646 17.1864L6.7212 17.2548C6.04935 17.5992 5.61378 18.2255 5.15259 18.886C5.0501 19.0341 4.94761 19.1821 4.83943 19.3301C4.09641 20.355 3.2879 20.1899 2.74131 19.871C1.85878 19.3586 1.93849 18.5188 2.10646 18.1487C2.69576 16.5431 3.89143 15.2421 5.46289 14.5133C6.4052 14.0805 7.43291 13.8813 8.4407 13.9353C8.44924 13.9353 8.46063 13.9353 8.46917 13.9382C9.14387 13.9069 10.2228 14.0635 10.9317 14.2229C11.1253 14.2741 11.2932 14.3225 11.447 14.3709C12.3807 14.4022 12.6654 14.2257 12.7622 14.1204C12.9159 13.9496 12.8619 13.5738 12.8049 13.1724C12.7565 12.8251 12.6996 12.4351 12.7651 12.0593C12.7594 11.9255 12.7793 11.6863 12.8163 11.4444C12.9757 10.2458 13.3885 9.29498 14.0405 8.61458C13.9494 8.47509 13.8639 8.33275 13.7814 8.18471C12.953 6.65311 12.7651 4.88806 13.2547 3.21696C13.4455 2.66752 14.1145 2.02128 15.2162 2.39706C15.7628 2.58496 16.0019 2.9038 16.1044 3.14009C16.2895 3.56143 16.167 3.95999 16.1215 4.08525C15.8681 4.982 15.9706 5.92146 16.409 6.73282C16.5457 6.98049 16.708 7.21109 16.8901 7.41037C17.2545 7.39329 17.5649 7.41891 17.7727 7.44453C17.9065 7.46446 18.0374 7.48723 18.1485 7.49577C20.2864 7.84878 22.3874 9.40316 21.9518 12.7226C21.912 13.0244 21.8522 13.3261 21.7753 13.6108C21.7725 13.6222 21.7696 13.6307 21.7668 13.6421C21.3682 16.0648 19.9904 18.2939 17.8837 19.9251C15.8596 21.4653 13.6305 22.2852 11.6178 22.2852Z" fill="#86888C"/>
</svg>
