<svg width="40" height="40" viewBox="0 0 40 40" fill="none" xmlns="http://www.w3.org/2000/svg">
<path fill-rule="evenodd" clip-rule="evenodd" d="M19.312 38.2852C17.6774 38.2852 16.1298 37.9879 14.7257 37.373C13.6496 36.8965 12.8554 35.9792 12.3583 34.6418C11.9483 33.5298 11.8356 32.2487 12.0355 30.8293C12.2046 29.6404 12.0457 28.9845 11.5743 28.8666C11.3078 28.8 11.0977 28.9076 10.7236 29.1075L10.4982 29.2305C9.28882 29.8505 8.5048 30.9779 7.67466 32.1667C7.49018 32.4332 7.30571 32.6996 7.11098 32.9661C5.77353 34.8109 4.31822 34.5136 3.33435 33.9397C1.74581 33.0173 1.88929 31.5057 2.19163 30.8395C3.25236 27.9494 5.40458 25.6076 8.23321 24.2957C9.92936 23.5168 11.7792 23.1581 13.5933 23.2555C13.6086 23.2555 13.6291 23.2555 13.6445 23.2606C14.859 23.2043 16.8011 23.4861 18.077 23.7731C18.4255 23.8653 18.7278 23.9524 19.0046 24.0395C20.6853 24.0959 21.1978 23.7782 21.372 23.5886C21.6487 23.2811 21.5513 22.6047 21.4489 21.8822C21.3617 21.257 21.2593 20.555 21.3771 19.8786C21.3669 19.6377 21.4027 19.2073 21.4694 18.7717C21.7563 16.6144 22.4993 14.9028 23.6728 13.6781C23.5088 13.427 23.3551 13.1708 23.2065 12.9044C21.7153 10.1475 21.3771 6.97038 22.2585 3.9624C22.6018 2.9734 23.806 1.81018 25.7892 2.48659C26.773 2.8248 27.2035 3.39872 27.388 3.82404C27.721 4.58244 27.5007 5.29985 27.4187 5.52532C26.9626 7.13948 27.1471 8.83051 27.9363 10.2909C28.1822 10.7368 28.4743 11.1518 28.8023 11.5105C29.4582 11.4798 30.0167 11.5259 30.3908 11.572C30.6317 11.6079 30.8674 11.6489 31.0672 11.6643C34.9156 12.2997 38.6973 15.0976 37.9133 21.0725C37.8416 21.6157 37.734 22.1589 37.5956 22.6713C37.5905 22.6918 37.5854 22.7072 37.5802 22.7277C36.8628 27.0885 34.3827 31.1008 30.5907 34.0371C26.9473 36.8093 22.9349 38.2852 19.312 38.2852Z" fill="#86888C"/>
</svg>
