<svg width="20" height="20" viewBox="0 0 20 20" fill="none" xmlns="http://www.w3.org/2000/svg">
<path fill-rule="evenodd" clip-rule="evenodd" d="M9.69423 18.2852C8.96771 18.2852 8.27991 18.1531 7.65588 17.8798C7.17761 17.668 6.8246 17.2603 6.60369 16.6659C6.42149 16.1717 6.37138 15.6023 6.46021 14.9714C6.53536 14.443 6.46476 14.1515 6.25523 14.0991C6.1368 14.0695 6.04343 14.1174 5.87717 14.2062L5.77696 14.2608C5.23948 14.5364 4.89102 15.0375 4.52207 15.5658C4.44008 15.6843 4.35809 15.8027 4.27155 15.9211C3.67713 16.741 3.03032 16.6089 2.59305 16.3539C1.88703 15.9439 1.9508 15.2721 2.08517 14.976C2.55661 13.6915 3.51315 12.6507 4.77032 12.0676C5.52416 11.7215 6.34633 11.562 7.15256 11.6053C7.15939 11.6053 7.1685 11.6053 7.17533 11.6076C7.7151 11.5825 8.57826 11.7078 9.14535 11.8353C9.30022 11.8763 9.43459 11.915 9.55758 11.9538C10.3046 11.9788 10.5323 11.8376 10.6098 11.7533C10.7328 11.6167 10.6895 11.3161 10.6439 10.9949C10.6052 10.7171 10.5597 10.4051 10.6121 10.1044C10.6075 9.99741 10.6234 9.8061 10.653 9.61251C10.7806 8.65369 11.1108 7.89302 11.6324 7.3487C11.5595 7.2371 11.4912 7.12323 11.4251 7.0048C10.7624 5.77952 10.6121 4.36748 11.0038 3.0306C11.1564 2.59104 11.6916 2.07406 12.573 2.37468C13.0102 2.525 13.2015 2.78007 13.2835 2.96911C13.4316 3.30617 13.3336 3.62502 13.2972 3.72523C13.0945 4.44263 13.1765 5.1942 13.5272 5.84328C13.6365 6.04143 13.7664 6.2259 13.9121 6.38532C14.2036 6.37166 14.4519 6.39216 14.6181 6.41265C14.7252 6.4286 14.8299 6.44682 14.9188 6.45365C16.6292 6.73606 18.3099 7.97956 17.9615 10.6351C17.9296 10.8765 17.8818 11.1179 17.8203 11.3457C17.818 11.3548 17.8157 11.3616 17.8134 11.3707C17.4946 13.3089 16.3923 15.0921 14.707 16.3971C13.0877 17.6292 11.3044 18.2852 9.69423 18.2852Z" fill="#86888C"/>
</svg>
