<svg width="24" height="24" viewBox="0 0 24 24" fill="none" xmlns="http://www.w3.org/2000/svg">
<path fill-rule="evenodd" clip-rule="evenodd" d="M13.0497 17.9319C13.3075 17.6772 13.7236 17.6772 13.9814 17.9319C14.2391 18.1866 14.2391 18.5996 13.9814 18.8512C13.354 19.4692 12.677 19.7922 11.9658 19.8015H11.9255C11.205 19.8015 10.5124 19.4816 9.87267 18.8481C9.61491 18.5934 9.61491 18.1835 9.87267 17.9288C10.1304 17.6741 10.5466 17.6741 10.8043 17.9288C11.1957 18.317 11.5839 18.5033 11.9472 18.5033C12.3012 18.4971 12.6739 18.3046 13.0497 17.9319ZM9.91925 15.5375C9.91925 15.8977 9.62422 16.1866 9.26087 16.1866C8.89752 16.1866 8.60248 15.8946 8.60248 15.5375V13.5064C8.60248 13.1462 8.89752 12.8574 9.26087 12.8574C9.62422 12.8574 9.91925 13.1493 9.91925 13.5064V15.5375ZM14.5031 12.8574C14.8665 12.8574 15.1615 13.1493 15.1615 13.5064V15.5375C15.1615 15.8977 14.8665 16.1866 14.5031 16.1866C14.1398 16.1866 13.8447 15.8946 13.8447 15.5375V13.5064C13.8447 13.1493 14.1398 12.8574 14.5031 12.8574ZM20.4658 16.6772C21.1553 16.6679 21.5062 16.2953 21.5062 15.5717C21.5062 14.8543 21.1646 14.4909 20.4907 14.4785L20.4472 14.8698C20.4472 14.9661 20.4317 15.053 20.4317 15.1431C20.4006 15.6027 20.3509 16.1276 20.264 16.6741C20.2888 16.6772 20.3106 16.6772 20.323 16.6772H20.4658ZM19.177 12.9257V11.9847C19.1677 11.9474 19.1646 11.9102 19.1646 11.8698C19.1615 11.7518 19.1522 11.6493 19.1491 11.5344H4.60248L4.59317 13.8698C4.59938 13.9071 4.60559 13.9443 4.60559 13.9816C4.73292 18.758 5.97205 20.7953 8.74224 20.7953C8.91615 20.7953 9.08074 20.7859 9.23913 20.7766L14.4938 20.7735C14.8975 20.7984 15.205 20.7984 15.528 20.7766H15.6398C15.6708 20.7704 15.7019 20.7642 15.7329 20.7611C17.1335 20.6213 19.0093 19.7642 19.1646 13.9847C19.1646 13.9443 19.1677 13.9071 19.177 13.8698V12.9257ZM9.5528 5.66483C8.39752 6.77042 7.72981 8.30768 7.55279 10.2331H8.87267C9.04037 8.68035 9.56832 7.45986 10.4658 6.59961C10.9037 6.18035 11.4534 5.86358 12.0621 5.61824C12.6708 5.86669 13.2174 6.18035 13.6553 6.59961C14.5528 7.45675 15.0839 8.68035 15.2484 10.2331H16.5714C16.3913 8.30768 15.7267 6.77042 14.5714 5.66483C14.3789 5.47849 14.1646 5.31079 13.9472 5.1493L13.8354 5.07476L10.2888 5.07787L10.1801 5.1493C9.95963 5.31079 9.74534 5.47849 9.5528 5.66483ZM3.49379 16.6772C3.5 16.6772 3.50932 16.6772 3.51553 16.6741C3.43478 16.1679 3.37888 15.6555 3.34472 15.1524C3.3354 15.0592 3.31677 14.9692 3.31056 14.8698L3.2795 14.4878C2.64286 14.5158 2.31366 14.876 2.31366 15.5748C2.31366 16.2984 2.66149 16.671 3.35404 16.6804L3.49379 16.6772ZM20.4969 13.1741C21.5714 13.1835 22.823 13.817 22.823 15.5686C22.823 17.3201 21.5652 17.9599 20.4845 17.9754H20.3012C20.2329 17.9754 20.1335 17.9692 20.0093 17.9536C20.0062 17.9536 20 17.9505 19.9938 17.9505C19.4783 19.8574 18.3882 21.7145 16.0404 22.0344C15.9689 22.0623 15.8913 22.0779 15.8106 22.0779H15.5714C15.4255 22.0903 15.2329 22.0996 15.0311 22.0996C14.8292 22.0996 14.6398 22.0872 14.4534 22.0779H9.28571C9.13975 22.0903 8.9472 22.0996 8.74224 22.0996C5.74845 22.0996 4.39752 20.2176 3.78571 17.9568C3.67391 17.9692 3.58075 17.9754 3.51863 17.9754H3.3354C2.26087 17.9599 1 17.3201 1 15.5686C1 13.8387 2.2236 13.2021 3.28571 13.1772L3.29193 11.5344H1.65839C1.29503 11.5344 1 11.2425 1 10.8853C1 10.5251 1.29503 10.2363 1.65839 10.2363H3.32298C3.50932 6.77973 4.43168 3.75799 8.74534 3.75799C8.94721 3.75799 9.14286 3.76731 9.3323 3.78284H10.8975C10.8292 3.62445 10.7826 3.44744 10.7826 3.23004C10.7826 2.86048 10.8851 2.57166 11.0901 2.37911C11.2826 2.19278 11.5683 2.09961 11.9286 2.09961C12.2888 2.09961 12.5714 2.19278 12.7671 2.37911C12.9689 2.57476 13.0714 2.86048 13.0714 3.23004C13.0714 3.44433 13.028 3.62445 12.9596 3.78284H14.4969C14.7826 3.7611 15.2422 3.7611 15.6211 3.78594L15.8323 3.80458C15.913 3.81079 15.972 3.8139 16.0559 3.82632C19.6149 4.32011 20.2857 8.35427 20.4379 10.7207C20.4503 10.8232 20.4503 10.9164 20.4503 11.0127L20.4969 12.935V13.1741Z" fill="#86888C"/>
</svg>
