<svg width="40" height="40" viewBox="0 0 40 40" fill="none" xmlns="http://www.w3.org/2000/svg">
<path fill-rule="evenodd" clip-rule="evenodd" d="M21.8776 29.1233C22.3028 28.7031 22.9893 28.7031 23.4145 29.1233C23.8398 29.5435 23.8398 30.225 23.4145 30.6401C22.3797 31.6598 21.2628 32.1927 20.0897 32.2081H20.0231C18.8345 32.2081 17.692 31.6803 16.6367 30.6349C16.2115 30.2148 16.2115 29.5384 16.6367 29.1182C17.0619 28.698 17.7484 28.698 18.1736 29.1182C18.8191 29.7587 19.4595 30.0661 20.0589 30.0661C20.6429 30.0559 21.2577 29.7382 21.8776 29.1233ZM16.7135 25.1725C16.7135 25.7669 16.2268 26.2435 15.6274 26.2435C15.028 26.2435 14.5413 25.7618 14.5413 25.1725V21.8213C14.5413 21.2269 15.028 20.7503 15.6274 20.7503C16.2268 20.7503 16.7135 21.232 16.7135 21.8213V25.1725ZM24.2752 20.7503C24.8746 20.7503 25.3613 21.232 25.3613 21.8213V25.1725C25.3613 25.7669 24.8746 26.2435 24.2752 26.2435C23.6758 26.2435 23.1891 25.7618 23.1891 25.1725V21.8213C23.1891 21.232 23.6758 20.7503 24.2752 20.7503ZM34.1116 27.0531C35.2489 27.0377 35.8278 26.4228 35.8278 25.2289C35.8278 24.0452 35.2643 23.4457 34.1526 23.4252L34.0808 24.0708C34.0808 24.2297 34.0552 24.3731 34.0552 24.5217C34.004 25.2801 33.922 26.1461 33.7786 27.048C33.8196 27.0531 33.8554 27.0531 33.8759 27.0531H34.1116ZM31.9855 20.863V19.3104C31.9701 19.2489 31.965 19.1874 31.965 19.1208C31.9599 18.9261 31.9445 18.757 31.9394 18.5674H7.94279L7.92742 22.4208C7.93767 22.4823 7.94792 22.5438 7.94792 22.6053C8.15796 30.4863 10.2021 33.8478 14.7719 33.8478C15.0588 33.8478 15.3303 33.8325 15.5916 33.8171L24.2599 33.812C24.9259 33.8529 25.433 33.853 25.9658 33.8171H26.1503C26.2015 33.8068 26.2527 33.7966 26.304 33.7915C28.6145 33.5609 31.7088 32.1466 31.965 22.6104C31.965 22.5438 31.9701 22.4823 31.9855 22.4208V20.863ZM16.109 8.88261C14.2032 10.7068 13.1018 13.2433 12.8097 16.4203H14.9871C15.2637 13.8582 16.1346 11.8444 17.6152 10.425C18.3376 9.73323 19.2443 9.21056 20.2485 8.80575C21.2526 9.21568 22.1543 9.73323 22.8766 10.425C24.3572 11.8393 25.2332 13.8582 25.5048 16.4203H27.6872C27.3901 13.2433 26.2937 10.7068 24.3879 8.88261C24.0703 8.57516 23.7168 8.29845 23.3582 8.03199L23.1738 7.90901L17.3232 7.91413L17.1439 8.03199C16.7801 8.29845 16.4266 8.57516 16.109 8.88261ZM6.11385 27.0531C6.12409 27.0531 6.13946 27.0531 6.14971 27.048C6.01651 26.2127 5.92429 25.3672 5.86794 24.5371C5.85257 24.3834 5.82183 24.2348 5.81158 24.0708L5.76035 23.4405C4.71012 23.4866 4.16707 24.0811 4.16707 25.234C4.16707 26.4279 4.74086 27.0429 5.88331 27.0582L6.11385 27.0531ZM34.1628 21.273C35.9354 21.2884 38 22.3337 38 25.2238C38 28.1138 35.9251 29.1694 34.1423 29.195H33.84C33.7273 29.195 33.5634 29.1848 33.3585 29.1592C33.3534 29.1592 33.3431 29.154 33.3329 29.154C32.4824 32.3003 30.6842 35.3646 26.8112 35.8924C26.6933 35.9385 26.5652 35.9641 26.432 35.9641H26.0376C25.7968 35.9846 25.4792 36 25.1462 36C24.8131 36 24.5006 35.9795 24.1933 35.9641H15.6684C15.4276 35.9846 15.11 36 14.7719 36C9.83321 36 7.60467 32.8947 6.59542 29.1643C6.41099 29.1848 6.25729 29.195 6.15483 29.195H5.85257C4.07998 29.1694 2 28.1138 2 25.2238C2 22.3696 4.0185 21.3191 5.7706 21.2781L5.78085 18.5674H3.0861C2.48669 18.5674 2 18.0857 2 17.4964C2 16.902 2.48669 16.4255 3.0861 16.4255H5.83208C6.13946 10.7222 7.66102 5.73634 14.777 5.73634C15.11 5.73634 15.4328 5.75171 15.7453 5.77733H18.3273C18.2146 5.51599 18.1378 5.22391 18.1378 4.86522C18.1378 4.25543 18.3068 3.77888 18.6449 3.46118C18.9626 3.15373 19.4339 3 20.0282 3C20.6225 3 21.0887 3.15373 21.4114 3.46118C21.7444 3.78401 21.9135 4.25543 21.9135 4.86522C21.9135 5.21879 21.8418 5.51599 21.729 5.77733H24.265C24.7363 5.74146 25.4945 5.74146 26.1195 5.78245L26.4679 5.8132C26.6011 5.82345 26.6984 5.82857 26.8368 5.84907C32.7078 6.66382 33.8144 13.3202 34.0655 17.2248C34.086 17.3939 34.086 17.5477 34.086 17.7065L34.1628 20.8784V21.273Z" fill="#86888C"/>
</svg>
