<svg width="20" height="20" viewBox="0 0 20 20" fill="none" xmlns="http://www.w3.org/2000/svg">
<path fill-rule="evenodd" clip-rule="evenodd" d="M11.4766 13.8847V12.7303C14.004 12.5527 16.438 11.9174 18.0023 11.034V16.9085C18.0023 17.5665 17.4718 18.1016 16.8183 18.1016H3.184C2.53053 18.1016 2 17.5665 2 16.9085V10.8791C3.55742 11.8309 5.99374 12.5162 8.52341 12.7166V13.8847C8.52341 14.167 8.65092 14.4015 8.87633 14.5495C9.04255 14.6566 9.24975 14.7112 9.51615 14.7112H10.4907C10.7502 14.7112 10.9643 14.6566 11.1237 14.5495C11.3514 14.4015 11.4766 14.167 11.4766 13.8847ZM13.0067 6.17955V5.89493C13.0067 4.358 11.6906 3.10797 10.0763 3.10797H9.926C8.30938 3.10797 6.99559 4.358 6.99559 5.89493V6.17955H13.0067ZM16.8183 6.17955C17.4718 6.17955 18.0023 6.71463 18.0023 7.37266V9.84768C16.4494 10.9725 13.1615 11.7785 10.0626 11.7785C6.90451 11.7785 3.54376 10.8928 2 9.66553V7.37266C2 6.71463 2.53053 6.17955 3.18628 6.17955H5.99602V5.89493C5.99602 3.80243 7.76064 2.10156 9.92828 2.10156H10.0786C12.2462 2.10156 14.0108 3.80471 14.0108 5.89493V6.17955H16.8183ZM9.52298 13.7048V12.7849H10.477V13.7048H9.52298Z" fill="#86888C"/>
</svg>
