<svg width="40" height="40" viewBox="0 0 40 40" fill="none" xmlns="http://www.w3.org/2000/svg">
<path fill-rule="evenodd" clip-rule="evenodd" d="M18.0158 6.76615C13.002 6.76615 12.1211 7.86212 12.1211 10.1667C12.1211 10.7762 12.198 11.2269 12.3158 11.5751C13.801 10.8479 15.6754 10.4843 18.0005 10.4843C20.3358 10.4843 22.2102 10.853 23.6954 11.5853C23.8132 11.2371 23.9054 10.7967 23.9054 10.1667C23.9105 7.86212 23.0296 6.76615 18.0158 6.76615ZM31.8845 21.1521C32.499 21.1521 33.0009 21.6539 33.0009 22.2788V25.285C33.0061 25.9047 32.5042 26.4066 31.8845 26.4117C31.2648 26.4066 30.768 25.9047 30.7731 25.285V23.4055H28.5351C28.5351 23.5181 28.5402 23.6154 28.5402 23.7332C28.5402 26.6319 28.3098 29.1311 27.6286 31.1592L31.2392 32.2705C31.7308 32.4242 32.0535 32.8953 32.0279 33.4075L31.7872 37.9348C31.7616 38.5288 31.2699 38.9949 30.6758 39H30.6144C29.9947 38.9641 29.5235 38.4315 29.5594 37.817L29.754 34.1706L26.6709 33.2231C25.1499 35.6301 22.5021 36.9719 18.0005 36.9719C13.4783 36.9719 10.8306 35.6199 9.31464 33.2026L6.15988 34.1706L6.35449 37.817C6.39034 38.4367 5.91918 38.9641 5.29949 39H5.23804C4.64396 38.9949 4.15743 38.5288 4.1267 37.9348L3.886 33.4075C3.85527 32.8902 4.18303 32.4242 4.67469 32.2654L8.35695 31.1336C7.68605 29.1107 7.45559 26.6165 7.45559 23.7281L7.46071 23.4003H5.22779V25.285C5.23291 25.9047 4.73102 26.4066 4.11646 26.4117C3.49677 26.4066 3 25.9047 3 25.285V22.2788C3 21.6539 3.50189 21.1521 4.11646 21.1521H7.53753C7.68093 18.7962 8.07527 16.4814 9.11491 14.6223L4.67469 13.26C4.18303 13.1064 3.85527 12.6352 3.886 12.118L4.1267 7.59069C4.15743 6.97612 4.67981 6.49471 5.29437 6.52544C5.90893 6.56129 6.3801 7.08879 6.34937 7.70848L6.15476 11.3549L10.3338 12.6404C10.0419 11.9387 9.88823 11.1244 9.88823 10.1667C9.88823 6.80712 11.6705 5.40899 14.1338 4.85076C13.76 4.4052 13.7856 3.74966 14.1902 3.33483C14.6152 2.89952 15.3118 2.8944 15.7471 3.31947L15.7624 3.33483L16.9403 4.52811C17.642 4.50251 18.3385 4.49738 19.0401 4.52299L20.218 3.32971C20.6482 2.8944 21.3447 2.88928 21.78 3.31947L21.7903 3.32971C22.1949 3.74454 22.2154 4.39496 21.8466 4.83539C24.3254 5.38338 26.1281 6.78151 26.1281 10.1565C26.1281 11.0988 25.9796 11.9029 25.6979 12.5943L29.7489 11.3498L29.5543 7.70336C29.5184 7.08367 29.9896 6.55617 30.6093 6.52032C31.1982 6.47423 31.7513 6.96076 31.7821 7.58557L32.0228 12.1128C32.0535 12.6301 31.7257 13.0962 31.2341 13.2498L26.8655 14.5865C27.7618 16.1638 28.2739 18.2687 28.448 21.1367C28.4583 21.1521 31.8845 21.1521 31.8845 21.1521ZM17.8827 15.1293C17.263 15.1345 16.7662 15.6363 16.7713 16.256V30.7597C16.7713 31.3794 17.2681 31.8864 17.8827 31.8864C18.4972 31.8864 18.9991 31.3794 18.9991 30.7597V16.256C18.9991 15.6363 18.5024 15.1345 17.8827 15.1293Z" fill="#86888C"/>
</svg>
