<svg width="20" height="20" viewBox="0 0 20 20" fill="none" xmlns="http://www.w3.org/2000/svg">
<path fill-rule="evenodd" clip-rule="evenodd" d="M9.6737 3.67384C7.44534 3.67384 7.05384 4.16094 7.05384 5.18521C7.05384 5.45608 7.08799 5.65638 7.14034 5.81116C7.80042 5.48794 8.6335 5.32634 9.66688 5.32634C10.7048 5.32634 11.5379 5.49022 12.198 5.81571C12.2503 5.66093 12.2913 5.46518 12.2913 5.18521C12.2936 4.16094 11.9021 3.67384 9.6737 3.67384ZM15.8375 10.0676C16.1107 10.0676 16.3338 10.2906 16.3338 10.5683V11.9044C16.336 12.1799 16.113 12.4029 15.8375 12.4052C15.5621 12.4029 15.3413 12.1799 15.3436 11.9044V11.0691H14.3489C14.3489 11.1192 14.3512 11.1624 14.3512 11.2148C14.3512 12.5031 14.2488 13.6138 13.9461 14.5152L15.5508 15.0091C15.7693 15.0774 15.9127 15.2868 15.9013 15.5144L15.7943 17.5266C15.7829 17.7906 15.5644 17.9977 15.3004 18H15.2731C14.9976 17.9841 14.7882 17.7473 14.8042 17.4742L14.8907 15.8536L13.5204 15.4325C12.8444 16.5023 11.6676 17.0986 9.66688 17.0986C7.65702 17.0986 6.48025 16.4977 5.80651 15.4234L4.40439 15.8536L4.49089 17.4742C4.50682 17.7496 4.29741 17.9841 4.022 18H3.99468C3.73065 17.9977 3.51441 17.7906 3.50076 17.5266L3.39378 15.5144C3.38012 15.2845 3.52579 15.0774 3.7443 15.0068L5.38086 14.5038C5.08269 13.6047 4.98026 12.4962 4.98026 11.2125L4.98254 11.0668H3.99013V11.9044C3.99241 12.1799 3.76934 12.4029 3.4962 12.4052C3.22079 12.4029 3 12.1799 3 11.9044V10.5683C3 10.2906 3.22306 10.0676 3.4962 10.0676H5.01668C5.08041 9.02055 5.25568 7.99172 5.71774 7.16547L3.7443 6.56002C3.52579 6.49173 3.38012 6.28232 3.39378 6.05243L3.50076 4.04031C3.51441 3.76717 3.74658 3.55321 4.01972 3.56686C4.29286 3.5828 4.50227 3.81724 4.48861 4.09266L4.40212 5.71328L6.25946 6.2846C6.12972 5.97277 6.06144 5.61086 6.06144 5.18521C6.06144 3.69205 6.85354 3.07066 7.94837 2.82256C7.78221 2.62453 7.79359 2.33318 7.97341 2.14882C8.16233 1.95534 8.47189 1.95307 8.66536 2.14199L8.67219 2.14882L9.19571 2.67916C9.50754 2.66778 9.8171 2.6655 10.1289 2.67688L10.6525 2.14654C10.8437 1.95307 11.1532 1.95079 11.3467 2.14199L11.3512 2.14654C11.5311 2.33091 11.5402 2.61998 11.3763 2.81573C12.4779 3.05928 13.2791 3.68067 13.2791 5.18066C13.2791 5.59948 13.2131 5.95683 13.0879 6.26411L14.8884 5.71101L14.8019 4.09038C14.786 3.81497 14.9954 3.58052 15.2708 3.56459C15.5325 3.5441 15.7784 3.76034 15.792 4.03803L15.899 6.05016C15.9127 6.28005 15.767 6.48718 15.5485 6.55546L13.6069 7.14954C14.0052 7.8506 14.2329 8.7861 14.3102 10.0608C14.3148 10.0676 15.8375 10.0676 15.8375 10.0676ZM9.61452 7.39081C9.33911 7.39309 9.11832 7.61615 9.1206 7.89157V14.3377C9.1206 14.6131 9.34138 14.8384 9.61452 14.8384C9.88766 14.8384 10.1107 14.6131 10.1107 14.3377V7.89157C10.1107 7.61615 9.88994 7.39309 9.61452 7.39081Z" fill="#86888C"/>
</svg>
