<svg width="24" height="24" viewBox="0 0 24 24" fill="none" xmlns="http://www.w3.org/2000/svg">
<path fill-rule="evenodd" clip-rule="evenodd" d="M20.7789 12.6466C18.6333 10.5892 15.244 10.7201 15.096 10.7286H14.6236V6.22953H15.6936C15.9014 6.22953 20.7789 6.31775 20.7789 12.4987V12.6466ZM16.5787 18.7678C15.2981 18.7678 14.6493 18.1133 14.6493 16.8242C14.6493 15.5351 15.2981 14.8805 16.5787 14.8805C17.8592 14.8805 18.5081 15.5351 18.5081 16.8242C18.5081 18.1133 17.8592 18.7678 16.5787 18.7678ZM8.94357 10.7286H13.4028V6.22953H8.94357V10.7286ZM6.92026 18.7678C5.63968 18.7678 4.99086 18.1133 4.99086 16.8242C4.99086 15.5351 5.63968 14.8805 6.92026 14.8805C8.20084 14.8805 8.84966 15.5351 8.84966 16.8242C8.84966 18.1133 8.20084 18.7678 6.92026 18.7678ZM3.22651 10.7286V7.34506C3.22651 7.08325 3.35741 6.79868 3.57369 6.57956C3.79281 6.35759 4.07169 6.22953 4.3335 6.22953H7.72275V10.7286H3.22651ZM20.0163 6.84706C18.1808 5.00587 15.7762 4.99733 15.6936 5.00018H4.33065C3.74728 5.00018 3.15252 5.25914 2.70574 5.70876C2.25612 6.15839 2 6.75599 2 7.3479V15.9363C2 16.5254 2.25612 17.123 2.70574 17.5726C3.06715 17.9368 3.52246 18.1617 4.03469 18.2442C4.48716 19.3512 5.50593 20 6.91741 20C8.31467 20 9.32205 19.3626 9.78306 18.2812H13.7073C14.1683 19.3626 15.1757 20 16.573 20C17.9702 20 18.9776 19.3626 19.4386 18.2812H19.6663C20.2496 18.2812 20.8444 18.0222 21.2912 17.5697C21.738 17.1201 21.9941 16.5225 21.9941 15.9335V12.4987C22.0026 10.0713 21.3339 8.17032 20.0163 6.84706Z" fill="#86888C"/>
</svg>
