<svg width="28" height="28" viewBox="0 0 28 28" fill="none" xmlns="http://www.w3.org/2000/svg">
<path fill-rule="evenodd" clip-rule="evenodd" d="M24.2828 15.6662C21.851 13.3344 18.0099 13.4828 17.8422 13.4924H17.3068V8.39347H18.5195C18.7549 8.39347 24.2828 8.49345 24.2828 15.4985V15.6662ZM19.5225 22.6035C18.0712 22.6035 17.3358 21.8617 17.3358 20.4007C17.3358 18.9397 18.0712 18.1979 19.5225 18.1979C20.9738 18.1979 21.7091 18.9397 21.7091 20.4007C21.7091 21.8617 20.9738 22.6035 19.5225 22.6035ZM10.8694 13.4924H15.9232V8.39347H10.8694V13.4924ZM8.57629 22.6035C7.12497 22.6035 6.38964 21.8617 6.38964 20.4007C6.38964 18.9397 7.12497 18.1979 8.57629 18.1979C10.0276 18.1979 10.763 18.9397 10.763 20.4007C10.763 21.8617 10.0276 22.6035 8.57629 22.6035ZM4.39004 13.4924V9.65773C4.39004 9.36102 4.5384 9.0385 4.78351 8.79016C5.03185 8.5386 5.34791 8.39347 5.64463 8.39347H9.48579V13.4924H4.39004ZM23.4185 9.09333C21.3382 7.00665 18.613 6.99698 18.5195 7.0002H5.6414C4.98025 7.0002 4.30619 7.29369 3.79984 7.80327C3.29026 8.31284 3 8.99012 3 9.66096V19.3945C3 20.0621 3.29026 20.7394 3.79984 21.2489C4.20943 21.6618 4.72546 21.9165 5.30599 22.0101C5.81879 23.2647 6.97339 24 8.57307 24C10.1566 24 11.2983 23.2776 11.8208 22.052H16.2683C16.7908 23.2776 17.9325 24 19.516 24C21.0996 24 22.2413 23.2776 22.7638 22.052H23.0218C23.6829 22.052 24.357 21.7585 24.8633 21.2457C25.3697 20.7361 25.6599 20.0589 25.6599 19.3913V15.4985C25.6696 12.7474 24.9117 10.593 23.4185 9.09333Z" fill="#86888C"/>
</svg>
