<svg width="20" height="20" viewBox="0 0 20 20" fill="none" xmlns="http://www.w3.org/2000/svg">
<path fill-rule="evenodd" clip-rule="evenodd" d="M16.7712 10.6075C15.1977 9.09874 12.7123 9.19473 12.6038 9.20099H12.2573V5.90166H13.042C13.1943 5.90166 16.7712 5.96635 16.7712 10.499V10.6075ZM13.691 15.0964C12.7519 15.0964 12.2761 14.6164 12.2761 13.6711C12.2761 12.7257 12.7519 12.2457 13.691 12.2457C14.6301 12.2457 15.1059 12.7257 15.1059 13.6711C15.1059 14.6164 14.6301 15.0964 13.691 15.0964ZM8.09195 9.20099H11.3621V5.90166H8.09195V9.20099ZM6.60819 15.0964C5.6691 15.0964 5.1933 14.6164 5.1933 13.6711C5.1933 12.7257 5.6691 12.2457 6.60819 12.2457C7.54728 12.2457 8.02309 12.7257 8.02309 13.6711C8.02309 14.6164 7.54728 15.0964 6.60819 15.0964ZM3.89944 9.20099V6.71971C3.89944 6.52772 3.99543 6.31903 4.15404 6.15834C4.31473 5.99557 4.51924 5.90166 4.71123 5.90166H7.19669V9.20099H3.89944ZM16.2119 6.35451C14.8659 5.00431 13.1025 4.99804 13.042 5.00013H4.70914C4.28134 5.00013 3.84518 5.19004 3.51754 5.51976C3.18782 5.84949 3 6.28773 3 6.7218V13.02C3 13.4519 3.18782 13.8902 3.51754 14.2199C3.78257 14.487 4.11647 14.6519 4.49211 14.7124C4.82392 15.5242 5.57102 16 6.6061 16C7.63075 16 8.3695 15.5325 8.70758 14.7395H11.5854C11.9234 15.5325 12.6622 16 13.6868 16C14.7115 16 15.4502 15.5325 15.7883 14.7395H15.9553C16.3831 14.7395 16.8192 14.5496 17.1469 14.2178C17.4745 13.8881 17.6623 13.4499 17.6623 13.0179V10.499C17.6686 8.71893 17.1782 7.3249 16.2119 6.35451Z" fill="#86888C"/>
</svg>
