<svg width="28" height="28" viewBox="0 0 28 28" fill="none" xmlns="http://www.w3.org/2000/svg">
<path fill-rule="evenodd" clip-rule="evenodd" d="M20.2091 21.6052C21.7798 21.4652 24.4533 20.6697 24.4533 16.8592C24.4533 13.0657 21.7934 12.2463 20.2091 12.0926V21.6052ZM20.2091 10.5971C21.8412 10.7439 26 11.6283 26 16.8592C26 22.1822 21.7115 22.988 20.1443 23.1041C20.0111 24.2377 19.6184 25.1323 18.9287 25.7913C18.0751 26.6039 16.8767 27 15.2582 27H6.9475C5.32907 27 4.1306 26.6039 3.277 25.7913C2.41656 24.9718 2 23.8075 2 22.2369V9.3679C2 8.95476 2.34827 8.62015 2.77507 8.62015H19.4306C19.8574 8.62015 20.2057 8.95476 20.2057 9.3679V10.5971H20.2091ZM8.6513 7.38754C8.6513 7.13146 8.55228 6.97781 8.36449 6.70124C8.16304 6.41443 7.91379 6.05591 7.91037 5.54033C7.90696 5.01451 8.16645 4.66624 8.35425 4.40674C8.53521 4.1609 8.65472 3.99701 8.6513 3.65216C8.64789 3.29364 8.94494 3.00341 9.31711 3H9.32394C9.6927 3 9.99317 3.28681 9.99659 3.6385C10.0034 4.39991 9.67222 4.85403 9.45028 5.1545C9.30004 5.35595 9.25224 5.43107 9.25566 5.53009C9.25566 5.65301 9.33419 5.7691 9.48101 5.98079C9.69953 6.29492 10 6.72514 9.99659 7.38754C9.99659 7.74605 9.69612 8.03286 9.32394 8.03286C8.95177 8.03628 8.6513 7.74605 8.6513 7.38754ZM11.9838 7.44558C11.9633 7.36364 11.8267 7.15536 11.755 7.04609C11.5877 6.79001 11.4272 6.551 11.4204 6.26761C11.4067 5.91933 11.615 5.62228 11.796 5.36278C11.8609 5.26718 11.9735 5.11012 11.9906 5.04866C11.9735 4.69014 12.2569 4.4204 12.6257 4.40333C12.9774 4.41357 13.3086 4.69356 13.3257 5.05207C13.3461 5.45839 13.1037 5.80324 12.9091 6.08323C12.8784 6.12761 12.8408 6.18225 12.8067 6.23346C12.8306 6.27102 12.8579 6.31199 12.8886 6.35638C13.0696 6.63295 13.2983 6.97439 13.3222 7.34998C13.3461 7.70849 13.0696 8.01579 12.6974 8.03969C12.6803 8.03969 12.6667 8.04311 12.6496 8.04311C12.3047 8.03628 12.0111 7.7802 11.9838 7.44558Z" fill="#86888C"/>
</svg>
