<svg width="20" height="20" viewBox="0 0 20 20" fill="none" xmlns="http://www.w3.org/2000/svg">
<path fill-rule="evenodd" clip-rule="evenodd" d="M14.1394 14.4035C15.1865 14.3101 16.9688 13.7798 16.9688 11.2394C16.9688 8.71049 15.1956 8.16418 14.1394 8.06174V14.4035ZM14.1394 7.06473C15.2275 7.16261 18 7.75217 18 11.2394C18 14.7882 15.141 15.3254 14.0962 15.4028C14.0074 16.1585 13.7456 16.7549 13.2858 17.1942C12.7167 17.736 11.9178 18 10.8388 18H5.29834C4.21938 18 3.4204 17.736 2.85133 17.1942C2.27771 16.6479 2 15.8717 2 14.8246V6.24527C2 5.96984 2.23218 5.74676 2.51672 5.74676H13.6204C13.905 5.74676 14.1371 5.96984 14.1371 6.24527V7.06473H14.1394ZM6.4342 4.92502C6.4342 4.7543 6.36819 4.65187 6.24299 4.46749C6.10869 4.27628 5.94252 4.03727 5.94025 3.69356C5.93797 3.34301 6.11097 3.11083 6.23616 2.93783C6.35681 2.77394 6.43648 2.66467 6.4342 2.43477C6.43193 2.19576 6.62996 2.00228 6.87808 2H6.88263C7.12847 2 7.32878 2.19121 7.33106 2.42567C7.33561 2.93328 7.11481 3.23602 6.96685 3.43634C6.8667 3.57064 6.83483 3.62071 6.8371 3.68673C6.8371 3.76867 6.88946 3.84607 6.98734 3.9872C7.13302 4.19661 7.33333 4.48343 7.33106 4.92502C7.33106 5.16403 7.13074 5.35524 6.88263 5.35524C6.63451 5.35752 6.4342 5.16403 6.4342 4.92502ZM8.65585 4.96372C8.6422 4.90909 8.55115 4.77024 8.50334 4.6974C8.39181 4.52668 8.28482 4.36734 8.28027 4.1784C8.27116 3.94622 8.41002 3.74819 8.53066 3.57519C8.57391 3.51145 8.64903 3.40674 8.66041 3.36577C8.64903 3.12676 8.83796 2.94693 9.0838 2.93555C9.31825 2.94238 9.53905 3.12904 9.55043 3.36805C9.56409 3.63892 9.40248 3.86883 9.27273 4.05548C9.25224 4.08508 9.2272 4.1215 9.20444 4.15564C9.22037 4.18068 9.23858 4.208 9.25907 4.23759C9.37971 4.42197 9.53222 4.64959 9.54816 4.89999C9.56409 5.139 9.37971 5.34386 9.1316 5.3598C9.12022 5.3598 9.11111 5.36207 9.09973 5.36207C8.86983 5.35752 8.67406 5.1868 8.65585 4.96372Z" fill="#86888C"/>
</svg>
