<svg width="28" height="28" viewBox="0 0 28 28" fill="none" xmlns="http://www.w3.org/2000/svg">
<path d="M22.7746 4H5.15987C3.41614 4.00341 2.00341 5.41614 2 7.15987V20.8401C2.00341 22.5839 3.41614 23.9966 5.15987 24H22.6757C24.474 23.9966 25.9311 22.5395 25.9345 20.7412V7.15987C25.9311 5.41614 24.5183 4.00341 22.7746 4ZM19.3076 5.78809C19.898 5.78809 20.2972 6.18734 20.2972 6.7811C20.2972 7.14281 20.1539 7.36803 20.0311 7.49428C19.9082 7.62054 19.6796 7.7741 19.3076 7.7741C18.9357 7.7741 18.7105 7.62054 18.5842 7.49428C18.4579 7.36803 18.318 7.14622 18.318 6.7811C18.318 6.18734 18.7173 5.78809 19.3076 5.78809ZM8.64392 5.78809C9.23426 5.78809 9.63351 6.18734 9.63351 6.7811C9.63351 7.14281 9.49019 7.36803 9.36734 7.49428C9.2445 7.62054 9.01587 7.7741 8.64392 7.7741C8.27197 7.7741 8.04334 7.62054 7.92049 7.49428C7.79765 7.36803 7.65433 7.14281 7.65433 6.7811C7.65433 6.18734 8.05357 5.78809 8.64392 5.78809ZM16.2535 20.0007H11.64C11.6093 19.9154 11.599 19.7789 11.599 19.6629C11.599 19.2192 11.7151 18.9224 12.0222 18.5538L13.4281 16.8408C14.2334 15.8683 14.5712 15.3905 14.5712 14.79C14.5712 14.4829 14.4757 14.2508 14.2846 14.0904C14.0628 13.8993 13.7045 13.814 13.1858 13.814C12.7115 13.8209 12.2372 13.8652 11.7697 13.9505V12.8313C12.3225 12.7016 12.8855 12.6333 13.452 12.6299C14.4893 12.6299 15.1752 12.862 15.6188 13.3056C15.9567 13.6434 16.1375 14.1109 16.1375 14.7115C16.1375 15.6124 15.7349 16.2982 14.5917 17.5472L13.3325 18.9224H16.2535V20.0007ZM24.3341 9.99898H3.60041C3.26258 9.99898 2.98618 9.77717 2.98618 9.50418C2.98618 9.23119 3.26258 9.00938 3.60041 9.00938H24.3307C24.6685 9.00938 24.9449 9.23119 24.9449 9.50418C24.9449 9.77717 24.6719 9.99898 24.3341 9.99898Z" fill="#86888C"/>
</svg>
