<svg width="20" height="20" viewBox="0 0 20 20" fill="none" xmlns="http://www.w3.org/2000/svg">
<path d="M15.5035 4H4.05392C2.92049 4.00222 2.00222 4.92049 2 6.05392V14.9461C2.00222 16.0795 2.92049 16.9978 4.05392 17H15.4392C16.6081 16.9978 17.5552 16.0507 17.5574 14.8818V6.05392C17.5552 4.92049 16.6369 4.00222 15.5035 4ZM13.25 5.16226C13.6337 5.16226 13.8932 5.42177 13.8932 5.80771C13.8932 6.04283 13.8 6.18922 13.7202 6.27128C13.6403 6.35335 13.4917 6.45317 13.25 6.45317C13.0082 6.45317 12.8618 6.35335 12.7797 6.27128C12.6977 6.18922 12.6067 6.04504 12.6067 5.80771C12.6067 5.42177 12.8662 5.16226 13.25 5.16226ZM6.31855 5.16226C6.70227 5.16226 6.96178 5.42177 6.96178 5.80771C6.96178 6.04283 6.86862 6.18922 6.78877 6.27128C6.70892 6.35335 6.56031 6.45317 6.31855 6.45317C6.07678 6.45317 5.92817 6.35335 5.84832 6.27128C5.76847 6.18922 5.67531 6.04283 5.67531 5.80771C5.67531 5.42177 5.93482 5.16226 6.31855 5.16226ZM11.2648 14.4004H8.266C8.24603 14.345 8.23938 14.2563 8.23938 14.1809C8.23938 13.8925 8.31479 13.6995 8.51442 13.46L9.42826 12.3465C9.95172 11.7144 10.1713 11.4039 10.1713 11.0135C10.1713 10.8139 10.1092 10.663 9.98499 10.5588C9.84081 10.4346 9.60792 10.3791 9.27077 10.3791C8.96246 10.3836 8.65416 10.4124 8.35028 10.4678V9.74032C8.70961 9.65603 9.07558 9.61167 9.44378 9.60945C10.1181 9.60945 10.5639 9.76028 10.8522 10.0486C11.0718 10.2682 11.1894 10.5721 11.1894 10.9625C11.1894 11.548 10.9277 11.9939 10.1846 12.8057L9.36615 13.6995H11.2648V14.4004ZM16.5171 7.89933H3.04027C2.82068 7.89933 2.64102 7.75516 2.64102 7.57772C2.64102 7.40027 2.82068 7.2561 3.04027 7.2561H16.5149C16.7345 7.2561 16.9142 7.40027 16.9142 7.57772C16.9142 7.75516 16.7367 7.89933 16.5171 7.89933Z" fill="#86888C"/>
</svg>
