<svg width="41" height="40" viewBox="0 0 41 40" fill="none" xmlns="http://www.w3.org/2000/svg">
<path d="M38.1661 31.095C38.1354 29.5425 37.3783 28.0104 35.91 26.5399C35.3626 25.9814 34.7487 25.4998 34.0837 25.1001C32.8149 24.311 31.5002 24.0241 30.1854 24.2495C28.8706 24.475 27.5814 25.2077 26.3536 26.4374C26.0672 26.7244 25.796 27.0267 25.5453 27.3443C25.3305 27.4673 24.6501 27.3956 23.2586 26.4374C21.6522 25.3307 19.7491 23.4861 18.4599 22.1949L18.3064 22.0412C17.0173 20.75 15.1756 18.8439 14.0705 17.235C13.119 15.8414 13.0474 15.1599 13.165 14.9447C13.4822 14.6936 13.7892 14.4272 14.0705 14.1351C15.2983 12.9054 16.035 11.6142 16.255 10.2974C16.475 8.98055 16.1987 7.67397 15.4109 6.40327C15.0119 5.73204 14.531 5.11719 13.9733 4.57406C12.5051 3.10352 10.9755 2.34007 9.42537 2.31445H9.33328C7.75761 2.31445 6.1717 3.06766 4.61137 4.55869C4.05375 5.09157 3.51658 5.83452 3.34265 6.08047L3.29149 6.15732C1.83859 8.26834 1.8744 11.5373 3.39892 15.3597C4.98994 19.3563 8.09013 23.732 12.3619 28.0104L12.5153 28.1642C16.787 32.4425 21.156 35.5476 25.1463 37.1411C27.1006 37.9199 28.9116 38.3145 30.4924 38.3145C32.0015 38.3145 33.3061 37.9609 34.3343 37.2487C34.3497 37.2384 34.365 37.2282 34.3804 37.2128L34.4111 37.1923C34.6566 37.0181 35.3984 36.4801 35.9305 35.9216C37.4397 34.3281 38.1968 32.7039 38.1661 31.095Z" fill="#86888C"/>
<path d="M31.6434 6.97201L25.709 12.0805C25.4942 12.2649 25.1719 12.2444 24.9775 12.0343L23.4325 10.323C23.2432 10.1129 23.0437 10.1693 22.9823 10.446L21.2122 18.7414C21.156 19.0181 21.335 19.2231 21.6164 19.2026L30.0166 18.5467C30.2979 18.5262 30.3747 18.3366 30.1854 18.1266L28.6251 16.3947C28.4409 16.1846 28.4562 15.867 28.666 15.6774L34.6106 10.4306C34.9789 10.1949 34.9789 9.69788 34.7385 9.44169L32.6257 7.08473C32.375 6.71069 31.889 6.71069 31.6434 6.97201Z" fill="#86888C"/>
<path d="M21.5755 20.2222C20.8132 20.2325 20.184 19.6227 20.1737 18.8593C20.1737 18.7466 20.184 18.6338 20.2095 18.5211L21.9796 10.2256C22.087 9.71326 22.4298 9.3341 22.8902 9.206C23.3507 9.0779 23.8367 9.24187 24.1897 9.63128L25.4123 10.984L30.9477 6.21881C31.2853 5.89089 31.7509 5.73205 32.2164 5.77304C32.6973 5.81403 33.1372 6.05997 33.4237 6.44426L35.4956 8.7551C35.8231 9.12402 35.9765 9.61078 35.9151 10.0975C35.8589 10.5536 35.6184 10.9686 35.245 11.2402L29.7352 16.0975L30.9425 17.44C31.3007 17.8345 31.403 18.3367 31.2239 18.7876C31.0449 19.2385 30.6203 19.5305 30.0933 19.5715L21.6931 20.2222H21.5755ZM23.673 12.1112L22.394 18.1112L28.3795 17.6449L27.8679 17.0813C27.3052 16.4511 27.3512 15.4827 27.9805 14.9191C27.9856 14.9139 27.9907 14.9139 27.9907 14.9088L33.7256 9.8516L32.0424 7.97628L26.369 12.8593C25.7295 13.4024 24.778 13.3409 24.2101 12.7209L23.673 12.1112Z" fill="#86888C"/>
</svg>
