<svg width="25" height="24" viewBox="0 0 25 24" fill="none" xmlns="http://www.w3.org/2000/svg">
<path fill-rule="evenodd" clip-rule="evenodd" d="M21.9766 15.4897C22.7933 16.3065 23.2174 17.1574 23.2316 18.0196C23.2487 18.9132 22.8275 19.8153 21.9851 20.7003C21.6892 21.0105 21.2765 21.3065 21.1399 21.4061C21.1314 21.4118 21.1257 21.4175 21.1229 21.4175C21.1143 21.4232 21.1058 21.4288 21.0973 21.4374C20.5253 21.8329 19.7996 22.0293 18.9601 22.0293C18.0808 22.0293 17.0734 21.813 15.9834 21.3776C13.7609 20.4926 11.3306 18.7681 8.95441 16.3918L8.94871 16.3862L8.87472 16.3122C8.87188 16.3122 8.87188 16.3093 8.86903 16.3093C6.49282 13.9331 4.76829 11.5028 3.88326 9.28029C3.03522 7.15451 3.0153 5.33892 3.8235 4.16646C3.82919 4.15793 3.83488 4.14939 3.84342 4.14085C3.84627 4.13801 3.85196 4.13231 3.8548 4.12378C3.95156 3.98718 4.25036 3.57739 4.56055 3.27859C5.42851 2.45047 6.31069 2.0293 7.18434 2.0293H7.23841C8.10068 2.04637 8.95156 2.46754 9.76829 3.28428C10.0984 3.61439 10.3687 3.95588 10.568 4.30021C11.0062 5.00596 11.1656 5.73732 11.0403 6.46868C10.9151 7.20004 10.5082 7.91433 9.82521 8.59731C9.64877 8.77375 9.52925 8.87904 9.32151 9.04694C9.25606 9.16646 9.2959 9.54495 9.82521 10.319C10.4399 11.2154 11.4644 12.2712 12.1815 12.9912L12.2669 13.0765C12.984 13.7937 14.0426 14.8181 14.939 15.4328C15.5395 15.8455 15.9009 15.9593 16.0916 15.9593C16.1456 15.9593 16.1855 15.9508 16.2111 15.9337C16.379 15.7259 16.4843 15.6064 16.6607 15.43C17.3437 14.747 18.0608 14.3372 18.7894 14.2148C18.9516 14.1864 19.1109 14.175 19.2703 14.175C19.8394 14.175 20.4057 14.3486 20.9578 14.6901C21.305 14.8893 21.6465 15.1568 21.9766 15.4897ZM15.8184 10.2706L14.8537 9.19777C14.7028 9.03271 14.6317 8.80221 14.6602 8.57454C14.6858 8.36111 14.7996 8.17045 14.9703 8.04523L17.5315 5.79139L16.9709 5.16817C16.8059 4.98604 16.7575 4.74984 16.84 4.54495C16.9225 4.33721 17.1189 4.20061 17.3636 4.18354L21.2709 3.87904C21.2879 3.87619 21.3078 3.87619 21.3249 3.87619C21.5184 3.87619 21.692 3.95303 21.8172 4.09532C21.951 4.24899 22.0051 4.45958 21.9595 4.66732L21.1343 8.51763C21.083 8.75667 20.9237 8.93311 20.7102 8.99003C20.6619 9.00141 20.6135 9.00994 20.5651 9.00994C20.3972 9.00994 20.2322 8.93311 20.1069 8.79367L19.5406 8.16475L16.9681 10.3759C16.8286 10.5097 16.6408 10.5865 16.4416 10.5865C16.4188 10.5865 16.3989 10.5837 16.3761 10.5837C16.157 10.5666 15.955 10.4527 15.8184 10.2706Z" fill="#86888C"/>
</svg>
