<svg width="29" height="28" viewBox="0 0 29 28" fill="none" xmlns="http://www.w3.org/2000/svg">
<path fill-rule="evenodd" clip-rule="evenodd" d="M24.7255 18.1818C25.7056 19.1619 26.2144 20.183 26.2315 21.2177C26.252 22.29 25.7466 23.3725 24.7358 24.4345C24.3806 24.8068 23.8855 25.1619 23.7216 25.2814C23.7113 25.2883 23.7045 25.2951 23.7011 25.2951C23.6908 25.3019 23.6806 25.3087 23.6703 25.319C22.9839 25.7937 22.1131 26.0293 21.1057 26.0293C20.0505 26.0293 18.8416 25.7698 17.5337 25.2473C14.8667 24.1852 11.9503 22.1158 9.0989 19.2644L9.09207 19.2575L9.00328 19.1687C8.99987 19.1687 8.99987 19.1653 8.99645 19.1653C6.145 16.3139 4.07556 13.3975 3.01353 10.7305C1.99588 8.17955 1.97198 6.00084 2.94181 4.5939C2.94864 4.58365 2.95547 4.57341 2.96572 4.56316C2.96913 4.55975 2.97596 4.55292 2.97938 4.54267C3.09548 4.37876 3.45405 3.88701 3.82627 3.52844C4.86782 2.5347 5.92645 2.0293 6.97482 2.0293H7.03971C8.07443 2.04979 9.09548 2.55519 10.0756 3.53527C10.4717 3.9314 10.7961 4.34119 11.0352 4.7544C11.5611 5.60129 11.7523 6.47893 11.602 7.35656C11.4518 8.23419 10.9634 9.09133 10.1439 9.91091C9.93214 10.1226 9.78871 10.249 9.53942 10.4505C9.46088 10.5939 9.50869 11.0481 10.1439 11.9769C10.8815 13.0526 12.1109 14.3196 12.9714 15.1835L13.0739 15.286C13.9344 16.1465 15.2048 17.3759 16.2805 18.1135C17.001 18.6087 17.4347 18.7453 17.6635 18.7453C17.7284 18.7453 17.7762 18.735 17.8069 18.7146C18.0084 18.4653 18.1348 18.3218 18.3465 18.1101C19.1661 17.2905 20.0266 16.7988 20.9008 16.6519C21.0955 16.6178 21.2867 16.6041 21.478 16.6041C22.1609 16.6041 22.8405 16.8124 23.503 17.2222C23.9196 17.4613 24.3294 17.7823 24.7255 18.1818ZM17.3357 11.9189L16.178 10.6315C15.997 10.4334 15.9116 10.1568 15.9458 9.88359C15.9765 9.62747 16.1131 9.39868 16.318 9.24842L19.3914 6.54381L18.7187 5.79594C18.5206 5.57739 18.4626 5.29395 18.5616 5.04808C18.6607 4.79879 18.8963 4.63487 19.19 4.61438L23.8786 4.24899C23.8991 4.24557 23.923 4.24557 23.9435 4.24557C24.1757 4.24557 24.384 4.33778 24.5343 4.50852C24.6948 4.69293 24.7597 4.94563 24.705 5.19492L23.7147 9.81529C23.6533 10.1021 23.462 10.3139 23.2059 10.3822C23.1478 10.3958 23.0898 10.4061 23.0317 10.4061C22.8303 10.4061 22.6322 10.3139 22.4819 10.1465L21.8024 9.39185L18.7153 12.0452C18.548 12.2057 18.3226 12.2979 18.0835 12.2979C18.0562 12.2979 18.0323 12.2945 18.005 12.2945C17.742 12.274 17.4996 12.1374 17.3357 11.9189Z" fill="#86888C"/>
</svg>
