<svg width="20" height="20" viewBox="0 0 20 20" fill="none" xmlns="http://www.w3.org/2000/svg">
<path d="M5.54871 12.4255C4.13661 10.8441 3.09789 9.25825 2.51404 7.7884C1.83967 6.09101 1.82383 4.64164 2.46652 3.70421L2.48009 3.68373L2.49141 3.67008C2.56835 3.56086 2.80597 3.23094 3.05263 2.99431C3.73832 2.33447 4.43985 2 5.13459 2C5.82933 2 6.5218 2.33675 7.1826 3.00341C7.42926 3.2446 7.64198 3.51763 7.8185 3.8157C8.167 4.37998 8.29146 4.96018 8.19416 5.54266C8.09685 6.12514 7.77098 6.69625 7.23012 7.24232C7.10339 7.37201 6.96988 7.49261 6.82731 7.6041C6.75489 7.72696 6.84767 8.08419 7.22786 8.63936C7.47226 8.99886 7.80039 9.39022 8.13758 9.76337L5.54871 12.4255ZM10.172 11.8134C10.4685 12.0865 10.7355 12.3117 10.9776 12.5006C11.7244 13.0808 12.0842 13.1672 12.2336 13.1672C12.2675 13.1695 12.3015 13.1627 12.3309 13.1445C12.4418 13.0011 12.5617 12.8646 12.6907 12.7372C13.3515 12.0728 14.0485 11.7338 14.7591 11.7338C15.2117 11.7338 15.662 11.8726 16.0988 12.1433C16.3952 12.3208 16.6668 12.5347 16.9067 12.7827C17.5562 13.4357 17.8911 14.1138 17.9024 14.8009C17.916 15.5131 17.5833 16.2321 16.9112 16.9374C16.6759 17.1854 16.3477 17.4221 16.2391 17.5017L16.2255 17.5131L16.2052 17.5267C15.7526 17.8407 15.1823 18 14.5079 18C13.4737 18 12.2291 17.6155 10.9075 16.8896C9.78957 16.2753 8.65128 15.4425 7.50847 14.405L10.172 11.8134Z" fill="#86888C"/>
<path d="M14.6368 3.44482C14.7884 3.44482 14.8269 3.53356 14.7183 3.64277L14.1684 4.19568C14.0598 4.30489 13.9896 4.5165 14.0122 4.66894L14.1254 5.46303C14.148 5.61547 14.2883 5.75654 14.4399 5.77929L15.2297 5.89306C15.2478 5.89534 15.2682 5.89761 15.2863 5.89761C15.4289 5.89761 15.6054 5.83163 15.7004 5.73606L16.2503 5.18316C16.2911 5.13993 16.3318 5.12173 16.3635 5.12173C16.4133 5.12173 16.4472 5.17179 16.4472 5.26507C16.4472 5.26507 16.4517 6.51877 15.886 7.0876C15.3293 7.64733 14.1163 7.65188 14.0756 7.65188H14.0733C13.9217 7.65188 13.709 7.74061 13.6026 7.84755L7.3115 14.1684C7.20288 14.2776 7.11688 14.4915 7.11688 14.6439C7.11688 14.6439 7.12141 15.8976 6.55566 16.4664C5.99897 17.0262 4.786 17.0307 4.74527 17.0307C4.59365 17.0307 4.55518 16.9397 4.6638 16.8328L5.21371 16.2799C5.32233 16.1706 5.39248 15.959 5.36985 15.8066L5.2567 15.0125C5.23407 14.8601 5.09377 14.719 4.94215 14.6962L4.15236 14.5825C4.13426 14.5802 4.11389 14.5779 4.09579 14.5779C3.95322 14.5779 3.77671 14.6439 3.68166 14.7395L3.12949 15.2924C3.08875 15.3333 3.04802 15.3538 3.01634 15.3538C2.96655 15.3538 2.93261 15.3038 2.93261 15.2105C2.93261 15.2105 2.92808 13.9568 3.49383 13.3879C4.05053 12.8282 5.26349 12.8237 5.30423 12.8237H5.30649C5.45811 12.8237 5.67083 12.7349 5.77945 12.628L12.0683 6.30717C12.1769 6.19795 12.2629 5.98407 12.2629 5.83163C12.2629 5.83163 12.2584 4.57793 12.8242 4.0091C13.3809 3.45165 14.5938 3.44482 14.6368 3.44482ZM14.6346 2.5347C14.3404 2.53925 14.0462 2.56883 13.7565 2.62343C13.0776 2.75085 12.5481 3.00114 12.1837 3.36519C11.8171 3.73379 11.5659 4.27531 11.4392 4.97156C11.3939 5.22412 11.3668 5.47668 11.3577 5.73379L5.20918 11.9181C4.94667 11.9272 4.68643 11.9568 4.42618 12.0046C3.74729 12.132 3.21775 12.3823 2.85567 12.7463C2.48906 13.1149 2.23787 13.6564 2.1134 14.3527C2.06136 14.6371 2.0342 14.9283 2.02967 15.2173C2.02741 15.4198 2.07946 15.62 2.18356 15.7929C2.2705 15.9374 2.39303 16.0568 2.53931 16.1398C2.6856 16.2227 2.85068 16.2662 3.0186 16.2662C3.29242 16.2662 3.56172 16.1502 3.77218 15.9363L4.19762 15.5085L4.41713 15.5404L4.44881 15.7611L4.02337 16.1911C3.71108 16.5051 3.61377 16.9397 3.76992 17.322C3.92606 17.7042 4.29946 17.9431 4.74074 17.9431H4.74527C5.04172 17.9386 5.33591 17.909 5.62557 17.8544C6.30673 17.727 6.83401 17.4767 7.19835 17.1104C7.56496 16.7418 7.81615 16.2002 7.94288 15.5063C7.98814 15.2537 8.01529 15.0011 8.02435 14.744L14.1706 8.55973C14.4331 8.55063 14.6934 8.52105 14.9514 8.47327C15.6325 8.34585 16.1598 8.09556 16.5242 7.72924C16.8908 7.36064 17.1419 6.81911 17.2664 6.12287C17.3185 5.83845 17.3456 5.54721 17.3501 5.25825C17.3524 5.05574 17.2981 4.85552 17.194 4.68032C17.0175 4.3868 16.7007 4.20705 16.3612 4.20705C16.0874 4.20705 15.8181 4.32309 15.6076 4.53697L15.1799 4.96473L14.9627 4.93515L14.931 4.71445L15.3564 4.28669C15.6687 3.9727 15.766 3.53811 15.6099 3.15586C15.4538 2.77361 15.0804 2.5347 14.6391 2.53242L14.6346 2.5347Z" fill="#86888C"/>
</svg>
