<svg width="21" height="20" viewBox="0 0 21 20" fill="none" xmlns="http://www.w3.org/2000/svg">
<path d="M16.979 16.6205C18.1915 15.3573 18.1044 14.2082 16.979 13.0909C16.7613 12.8697 16.516 12.6782 16.2502 12.5186C15.3151 11.9394 14.3341 12.0671 13.3531 13.043C13.2248 13.1707 13.1056 13.3052 12.9956 13.4489C12.308 14.0805 10.6693 12.644 9.17492 11.1596L9.10616 11.0912C7.6118 9.60688 6.17017 7.9766 6.80504 7.29028C6.94943 7.18083 7.08466 7.06227 7.21301 6.93458C8.19396 5.95869 8.3246 4.9828 7.74015 4.05251C7.58201 3.78574 7.38719 3.54176 7.16487 3.32743C6.04182 2.21017 4.88667 2.12125 3.61693 3.32743C3.36023 3.5714 3.09437 3.95902 3.0852 3.96586C1.99652 5.53459 3.09437 9.1235 7.08924 13.0977L7.158 13.1661C11.1529 17.1427 14.7604 18.2326 16.3373 17.1495C16.3464 17.1427 16.7361 16.8759 16.979 16.6205Z" fill="#86888C"/>
<path d="M14.8773 18C14.1691 18 13.3577 17.8267 12.4845 17.4801C10.6991 16.771 8.74403 15.3915 6.83254 13.4899L6.82796 13.4854L6.76607 13.4261L6.76149 13.4215C4.85 11.5199 3.46337 9.57724 2.75058 7.79875C2.06987 6.09778 2.05382 4.64534 2.70474 3.70593L2.72766 3.67173C2.81246 3.56456 3.05082 3.23395 3.30064 2.99681C4.01115 2.3219 4.73541 1.98672 5.45508 2.0004C6.14725 2.01408 6.83254 2.35154 7.49033 3.00593C7.73786 3.24763 7.9556 3.52124 8.13208 3.81994C8.48504 4.38541 8.61339 4.96912 8.51254 5.55511C8.4117 6.1411 8.08395 6.71341 7.53388 7.26064C7.40553 7.38833 7.2703 7.50917 7.1282 7.6209C7.07549 7.71666 7.10758 8.01764 7.53388 8.63783C8.02665 9.35379 8.85175 10.1997 9.42932 10.7743L9.49808 10.8427C10.0757 11.4173 10.926 12.2359 11.6456 12.7284C12.2668 13.1525 12.5716 13.1844 12.6679 13.1319C12.7802 12.9906 12.8993 12.856 13.03 12.7284C13.58 12.1811 14.1553 11.8551 14.7444 11.7548C15.3334 11.6544 15.9201 11.7821 16.4885 12.1333C16.7888 12.3111 17.0615 12.5254 17.3068 12.774C17.9645 13.4284 18.3038 14.1101 18.3175 14.7987C18.3313 15.5124 17.9943 16.2352 17.3136 16.942C17.0753 17.1906 16.7429 17.4277 16.6329 17.5075L16.6192 17.5166C16.6123 17.5212 16.6054 17.5257 16.5985 17.5326C16.1379 17.8427 15.5534 18 14.8773 18ZM7.48346 12.8469C9.30556 14.6596 11.1529 15.9684 12.8237 16.6319C14.2126 17.1837 15.393 17.2362 16.0691 16.7801L16.0966 16.7619C16.3441 16.584 16.5298 16.4313 16.649 16.3082C17.6483 15.2684 17.6506 14.402 16.6558 13.4147C16.4656 13.2209 16.2525 13.0544 16.021 12.9153L16.0072 12.9085C15.6268 12.6736 15.2623 12.5893 14.8956 12.6508C14.4991 12.717 14.0889 12.9587 13.6763 13.3691C13.5594 13.4831 13.4517 13.6039 13.3531 13.7339C13.3371 13.7521 13.3211 13.7704 13.305 13.7863C13.1102 13.9665 12.7595 14.1512 12.2049 14.0098C11.8909 13.93 11.5379 13.7567 11.1277 13.4762C10.3461 12.9427 9.45453 12.0831 8.85175 11.4834L8.78299 11.415C8.18021 10.8153 7.31614 9.92838 6.77983 9.14858C6.49792 8.74043 6.32144 8.3893 6.24351 8.07692C6.1037 7.52513 6.28935 7.17627 6.46812 6.98246C6.48416 6.96422 6.5025 6.94826 6.52084 6.93458C6.65148 6.83654 6.77295 6.72937 6.88755 6.61308C7.3001 6.20266 7.54305 5.79452 7.60951 5.40006C7.6714 5.03296 7.58659 4.6727 7.35052 4.2942L7.34365 4.28052C7.20384 4.05023 7.03653 3.8359 6.84171 3.64893C5.84929 2.66164 4.97835 2.66392 3.93322 3.65805C3.80946 3.77661 3.6536 3.9613 3.47712 4.20756L3.4565 4.23492C2.99811 4.90527 3.05311 6.08182 3.60547 7.46357C4.27243 9.12578 5.58801 10.9635 7.41011 12.7762L7.45137 12.8173L7.48346 12.8469Z" fill="#86888C"/>
</svg>
