<svg width="25" height="24" viewBox="0 0 25 24" fill="none" xmlns="http://www.w3.org/2000/svg">
<path fill-rule="evenodd" clip-rule="evenodd" d="M20.97 15.4624C20.6655 15.155 20.3239 14.8846 19.9539 14.6626C19.4018 14.321 18.8354 14.1503 18.2661 14.1503C18.1068 14.1503 17.9474 14.1645 17.7851 14.193C17.0537 14.3154 16.3393 14.7252 15.6562 15.4083C15.4826 15.5819 15.3744 15.7043 15.2065 15.9121C15.1695 15.9291 15.1297 15.9377 15.087 15.9377C14.8991 15.9377 14.5377 15.821 13.9371 15.4111C13.0406 14.7964 11.9847 13.7717 11.2674 13.0517L11.182 12.9691C10.4648 12.2519 9.44019 11.1931 8.82542 10.2966C8.29318 9.52241 8.25334 9.14387 8.32164 9.02433C8.52941 8.85641 8.64895 8.7511 8.82542 8.57464C9.5085 7.89156 9.91834 7.17433 10.0436 6.44571C10.166 5.71425 10.0094 4.98278 9.57111 4.27693C9.34911 3.90408 9.08157 3.56254 8.77134 3.26085C7.9488 2.44116 7.09495 2.01708 6.23541 2H6.18133C5.30756 2 4.4224 2.42123 3.55717 3.24947C3.24693 3.54262 2.94809 3.95816 2.85132 4.09193L2.83709 4.10901L2.82001 4.13462C2.0117 5.30724 2.03162 7.1231 2.87693 9.24918C3.76494 11.472 5.48687 13.9027 7.86341 16.2792L7.8691 16.2821L7.9431 16.3561L7.9488 16.3617C10.3253 18.7383 12.756 20.4631 14.9788 21.3482C16.0661 21.7808 17.0736 22 17.9559 22C18.7955 22 19.5213 21.8036 20.0934 21.408L20.119 21.3881L20.1361 21.3767C20.2727 21.2799 20.6854 20.9811 20.9814 20.6737C21.8267 19.7885 22.2479 18.8863 22.228 17.9926C22.2109 17.1331 21.7897 16.2821 20.97 15.4624ZM17.0821 12.0669C13.9798 12.0669 12.1725 10.4986 12.1725 7.15156C12.1725 3.79878 13.9798 2.23054 17.0821 2.23054C20.1845 2.23054 21.9946 3.79878 21.9946 7.15156C21.9946 10.5043 20.1845 12.0669 17.0821 12.0669ZM14.9788 9.25203C15.2179 9.49111 15.6021 9.49395 15.8441 9.25487L15.8469 9.25203L17.0821 8.01395L18.3231 9.25772C18.5621 9.4968 18.9492 9.4968 19.1883 9.26057L19.1911 9.25772C19.4302 9.01864 19.4302 8.62872 19.1911 8.38964L17.9502 7.14871L19.1911 5.90494C19.4217 5.65448 19.4046 5.2674 19.157 5.03686C18.9208 4.82055 18.5593 4.82055 18.3259 5.03686L17.085 6.27779L15.8498 5.0397C15.6107 4.80063 15.2236 4.80063 14.9817 5.0397C14.7426 5.27878 14.7426 5.66586 14.9817 5.90778L16.2169 7.14587L14.9817 8.38395C14.7397 8.62587 14.7397 9.01295 14.9788 9.25203Z" fill="#86888C"/>
</svg>
