<svg width="28" height="28" viewBox="0 0 28 28" fill="none" xmlns="http://www.w3.org/2000/svg">
<path d="M9.86434 18.9157C9.28994 18.5089 8.53775 18.3003 7.62486 18.3003C7.42655 18.3003 7.22483 18.3106 7.02653 18.3345C6.97524 18.2935 6.753 18.061 6.60256 17.0797C6.45554 16.136 6.43845 14.9086 6.43845 14.0709V13.9615C6.43845 13.1204 6.45554 11.8964 6.60256 10.9528C6.75642 9.97149 6.97524 9.73899 7.02653 9.69796C7.22483 9.7219 7.42314 9.73215 7.62486 9.73215C8.53433 9.73215 9.28994 9.52359 9.86434 9.11672C10.4387 8.70986 10.8285 8.10469 11.0097 7.3354C11.1089 6.94221 11.1567 6.53534 11.1533 6.12847C11.1533 3.889 9.94639 2.67865 7.66589 2.62737C7.26244 2.61711 6.79403 2.69575 6.64017 2.71968L6.62308 2.7231L6.59231 2.72652C5.26572 2.96585 4.07247 4.17962 3.22796 6.14215C2.3561 8.16281 1.89453 10.8673 1.89453 13.9581V14.0675C1.89453 17.1583 2.35268 19.8594 3.22454 21.8869C4.06905 23.8494 5.2623 25.0632 6.58889 25.3059L6.61966 25.3128L6.63675 25.3162C6.78377 25.3401 7.20774 25.4085 7.59409 25.4085H7.66247C9.9464 25.3572 11.1499 24.1435 11.1499 21.9074C11.1533 21.5005 11.1055 21.0971 11.0063 20.7005C10.8285 19.9243 10.4422 19.326 9.86434 18.9157ZM24.9253 9.32187C23.055 4.88736 18.7094 2.00852 13.8954 2.01194H13.868C13.5159 1.94356 13.174 2.17605 13.109 2.52821C13.1022 2.56924 13.0988 2.60685 13.0988 2.64788V25.3504C13.0988 25.7094 13.3894 26 13.7484 26C13.8339 26 13.9159 25.9829 13.9946 25.9521C20.6104 25.8974 25.927 20.4885 25.8723 13.876C25.8552 12.3135 25.5338 10.7647 24.9253 9.32187ZM22.7678 19.9209C21.8891 19.4115 20.8703 18.9909 19.7488 18.6627C20.0326 17.3464 20.1933 16.0027 20.2309 14.6556H24.5457C24.4329 16.5395 23.8209 18.355 22.7678 19.9209ZM14.3946 10.3647C15.7896 10.3373 17.1811 10.18 18.5453 9.88601C18.771 11.0314 18.9009 12.1905 18.9317 13.3563H14.3946V10.3647ZM14.3946 9.06544V3.36588C14.8356 3.46503 15.2699 3.69069 15.6938 4.04627C16.3058 4.55913 16.8597 5.3079 17.3418 6.26866C17.7145 7.02085 18.0154 7.81065 18.241 8.62096C16.976 8.89107 15.687 9.04151 14.3946 9.06544ZM15.6938 23.9178C15.2699 24.2734 14.8356 24.499 14.3946 24.5982V19.179C15.663 19.2029 16.9247 19.3465 18.1658 19.6064C17.9504 20.3278 17.6769 21.0253 17.3418 21.6988C16.8597 22.6596 16.3058 23.4049 15.6938 23.9178ZM14.3946 17.8798V14.659H18.9317C18.8975 15.9001 18.7505 17.1344 18.4906 18.3482C17.1435 18.061 15.7725 17.9037 14.3946 17.8798ZM20.2343 13.3563C20.2035 12.081 20.0599 10.8126 19.8069 9.56462C20.9626 9.22272 22.0088 8.78166 22.9012 8.24487C23.8824 9.78002 24.45 11.5374 24.5526 13.3563H20.2343ZM21.4412 6.43619C21.684 6.67894 21.9131 6.92853 22.1285 7.1918C21.3797 7.62602 20.4873 8.00211 19.4992 8.29957C19.2531 7.40036 18.918 6.52508 18.5043 5.68742C18.1521 4.98993 17.7658 4.38818 17.3452 3.87874C18.8872 4.40527 20.289 5.28055 21.4412 6.43619ZM17.3418 24.0888C17.7623 23.5827 18.1521 22.9776 18.5009 22.2801C18.877 21.521 19.1847 20.7312 19.424 19.9209C20.3711 20.2013 21.2361 20.5535 21.9678 20.9603C21.8002 21.1552 21.6225 21.3433 21.4378 21.5279C20.2924 22.6869 18.8872 23.5622 17.3418 24.0888Z" fill="#86888C"/>
</svg>
