<svg width="41" height="40" viewBox="0 0 41 40" fill="none" xmlns="http://www.w3.org/2000/svg">
<path fill-rule="evenodd" clip-rule="evenodd" d="M36.9723 27.2581C38.4425 28.7282 39.2057 30.2598 39.2313 31.8119C39.262 33.4203 38.5039 35.0441 36.9877 36.6371C36.455 37.1955 35.7122 37.7282 35.4664 37.9075C35.451 37.9177 35.4408 37.928 35.4356 37.928C35.4203 37.9382 35.4049 37.9485 35.3895 37.9638C34.3599 38.6758 33.0537 39.0293 31.5426 39.0293C29.9598 39.0293 28.1465 38.64 26.1846 37.8563C22.1841 36.2632 17.8096 33.1591 13.5324 28.8819L13.5221 28.8716L13.389 28.7385C13.3838 28.7385 13.3838 28.7333 13.3787 28.7333C9.10153 24.4562 5.99738 20.0817 4.40432 16.0811C2.87786 12.2547 2.842 8.98661 4.29675 6.87619C4.307 6.86083 4.31724 6.84546 4.33261 6.83009C4.33773 6.82497 4.34798 6.81473 4.3531 6.79936C4.52726 6.55349 5.06511 5.81586 5.62345 5.27802C7.18577 3.78741 8.7737 3.0293 10.3463 3.0293H10.4436C11.9957 3.06003 13.5273 3.81814 14.9974 5.28826C15.5916 5.88246 16.0782 6.49714 16.4368 7.11695C17.2256 8.38729 17.5125 9.70374 17.2871 11.0202C17.0617 12.3366 16.3292 13.6224 15.0998 14.8517C14.7822 15.1693 14.5671 15.3588 14.1932 15.6611C14.0754 15.8762 14.1471 16.5575 15.0998 17.9508C16.2063 19.5643 18.0503 21.4647 19.3411 22.7607L19.4948 22.9143C20.7857 24.2052 22.6912 26.0492 24.3047 27.1556C25.3855 27.8984 26.0361 28.1033 26.3793 28.1033C26.4766 28.1033 26.5483 28.0879 26.5944 28.0572C26.8966 27.6833 27.0862 27.4681 27.4038 27.1505C28.6331 25.9212 29.924 25.1835 31.2353 24.9633C31.5273 24.912 31.8141 24.8916 32.101 24.8916C33.1254 24.8916 34.1448 25.204 35.1385 25.8187C35.7635 26.1773 36.3781 26.6588 36.9723 27.2581ZM25.8875 17.8637L24.1511 15.9325C23.8796 15.6354 23.7515 15.2205 23.8027 14.8107C23.8488 14.4266 24.0537 14.0834 24.3611 13.858L28.9712 9.80107L27.9621 8.67927C27.665 8.35144 27.5779 7.92628 27.7265 7.55747C27.875 7.18354 28.2285 6.93766 28.669 6.90693L35.702 6.35884C35.7327 6.35371 35.7686 6.35371 35.7993 6.35371C36.1476 6.35371 36.4601 6.49202 36.6855 6.74814C36.9262 7.02474 37.0236 7.4038 36.9416 7.77773L35.4561 14.7083C35.3639 15.1386 35.0771 15.4562 34.6929 15.5586C34.6058 15.5791 34.5187 15.5945 34.4316 15.5945C34.1294 15.5945 33.8323 15.4562 33.6069 15.2052L32.5876 14.0731L27.957 18.0532C27.706 18.294 27.3679 18.4323 27.0093 18.4323C26.9684 18.4323 26.9325 18.4271 26.8915 18.4271C26.4971 18.3964 26.1334 18.1915 25.8875 17.8637Z" fill="#86888C"/>
</svg>
