<svg width="24" height="24" viewBox="0 0 24 24" fill="none" xmlns="http://www.w3.org/2000/svg">
<path d="M7.43687 15.0319C5.67173 13.0552 4.37334 11.0728 3.64353 9.23549C2.80056 7.11377 2.78076 5.30205 3.58412 4.13026L3.60109 4.10466L3.61524 4.0876C3.71142 3.95108 4.00843 3.53868 4.31677 3.24289C5.17388 2.41809 6.05079 2 6.91921 2C7.78763 2 8.65323 2.42093 9.47922 3.25427C9.78756 3.55575 10.0535 3.89704 10.2741 4.26962C10.7097 4.97497 10.8653 5.70023 10.7437 6.42833C10.622 7.15643 10.2147 7.87031 9.53863 8.5529C9.38022 8.71502 9.21332 8.86576 9.03511 9.00512C8.94459 9.1587 9.06057 9.60523 9.5358 10.2992C9.8413 10.7486 10.2515 11.2378 10.673 11.7042L7.43687 15.0319ZM13.216 14.2668C13.5866 14.6081 13.9203 14.8896 14.223 15.1257C15.1565 15.851 15.6063 15.959 15.793 15.959C15.8354 15.9619 15.8778 15.9534 15.9146 15.9306C16.0532 15.7514 16.2031 15.5808 16.3644 15.4215C17.1904 14.591 18.0616 14.1672 18.9499 14.1672C19.5156 14.1672 20.0785 14.3407 20.6245 14.6792C20.995 14.901 21.3345 15.1684 21.6343 15.4784C22.4462 16.2947 22.8648 17.1422 22.879 18.0011C22.896 18.8914 22.4801 19.7901 21.64 20.6718C21.3458 20.9818 20.9356 21.2776 20.7999 21.3771L20.7829 21.3914L20.7574 21.4084C20.1917 21.8009 19.4788 22 18.6359 22C17.3431 22 15.7873 21.5193 14.1353 20.6121C12.7379 19.8441 11.3151 18.8032 9.88656 17.5063L13.216 14.2668Z" fill="#86888C"/>
<path d="M18.797 3.80603C18.9865 3.80603 19.0346 3.91695 18.8988 4.05347L18.2114 4.7446C18.0757 4.88111 17.988 5.14562 18.0163 5.33618L18.1577 6.32878C18.186 6.51934 18.3614 6.69568 18.5509 6.72412L19.5381 6.86633C19.5608 6.86917 19.5862 6.87201 19.6088 6.87201C19.7871 6.87201 20.0077 6.78953 20.1265 6.67008L20.8139 5.97895C20.8648 5.92491 20.9157 5.90216 20.9553 5.90216C21.0176 5.90216 21.06 5.96473 21.06 6.08134C21.06 6.08134 21.0656 7.64846 20.3585 8.3595C19.6626 9.05916 18.1464 9.06485 18.0955 9.06485H18.0926C17.9031 9.06485 17.6372 9.17577 17.5043 9.30944L9.64035 17.2105C9.50457 17.347 9.39708 17.6143 9.39708 17.8049C9.39708 17.8049 9.40274 19.372 8.69555 20.083C7.99968 20.7827 6.48348 20.7884 6.43256 20.7884C6.24303 20.7884 6.19495 20.6746 6.33072 20.541L7.01811 19.8498C7.15389 19.7133 7.24158 19.4488 7.21329 19.2582L7.07186 18.2656C7.04357 18.0751 6.86819 17.8987 6.67866 17.8703L5.69143 17.7281C5.6688 17.7253 5.64334 17.7224 5.62071 17.7224C5.4425 17.7224 5.22186 17.8049 5.10305 17.9243L4.41284 18.6155C4.36192 18.6667 4.311 18.6923 4.2714 18.6923C4.20917 18.6923 4.16674 18.6297 4.16674 18.5131C4.16674 18.5131 4.16108 16.946 4.86826 16.2349C5.56414 15.5353 7.08034 15.5296 7.13126 15.5296H7.13409C7.32361 15.5296 7.58952 15.4187 7.7253 15.285L15.5864 7.38396C15.7222 7.24744 15.8296 6.98009 15.8296 6.78953C15.8296 6.78953 15.824 5.22241 16.5312 4.51138C17.227 3.81456 18.7432 3.80603 18.797 3.80603ZM18.7942 2.66837C18.4264 2.67406 18.0587 2.71103 17.6966 2.77929C16.848 2.93857 16.1861 3.25142 15.7306 3.70648C15.2724 4.16723 14.9584 4.84414 14.8 5.71445C14.7434 6.03015 14.7095 6.34585 14.6981 6.66724L7.01245 14.3976C6.68432 14.409 6.35901 14.446 6.03371 14.5057C5.18508 14.665 4.52316 14.9778 4.07056 15.4329C3.6123 15.8936 3.29831 16.5705 3.14273 17.4408C3.07767 17.7964 3.04373 18.1604 3.03807 18.5216C3.03524 18.7747 3.1003 19.025 3.23042 19.2412C3.3391 19.4217 3.49227 19.5711 3.67512 19.6747C3.85797 19.7783 4.06433 19.8328 4.27423 19.8328C4.61651 19.8328 4.95313 19.6877 5.2162 19.4204L5.748 18.8857L6.02239 18.9255L6.06199 19.2014L5.53019 19.7389C5.13982 20.1314 5.01819 20.6746 5.21337 21.1524C5.40855 21.6303 5.8753 21.9289 6.4269 21.9289H6.43256C6.80313 21.9232 7.17086 21.8862 7.53294 21.818C8.38439 21.6587 9.04349 21.3458 9.49892 20.8879C9.95717 20.4272 10.2712 19.7503 10.4296 18.8828C10.4861 18.5671 10.5201 18.2514 10.5314 17.93L18.2143 10.1997C18.5424 10.1883 18.8677 10.1513 19.1902 10.0916C20.0416 9.93231 20.7007 9.61945 21.1562 9.16155C21.6144 8.7008 21.9284 8.02389 22.084 7.15358C22.1491 6.79807 22.183 6.43402 22.1887 6.07281C22.1915 5.81968 22.1236 5.5694 21.9935 5.3504C21.7728 4.9835 21.3768 4.75882 20.9525 4.75882C20.6102 4.75882 20.2736 4.90387 20.0105 5.17122L19.4759 5.70592L19.2043 5.66894L19.1647 5.39306L19.6965 4.85836C20.0869 4.46587 20.2085 3.92264 20.0134 3.44482C19.8182 2.96701 19.3514 2.66837 18.7998 2.66553L18.7942 2.66837Z" fill="#86888C"/>
</svg>
