<svg width="21" height="20" viewBox="0 0 21 20" fill="none" xmlns="http://www.w3.org/2000/svg">
<path fill-rule="evenodd" clip-rule="evenodd" d="M17.2216 12.7699C16.978 12.524 16.7047 12.3077 16.4087 12.1301C15.967 11.8568 15.5139 11.7202 15.0585 11.7202C14.931 11.7202 14.8035 11.7316 14.6737 11.7544C14.0885 11.8523 13.517 12.1802 12.9706 12.7266C12.8317 12.8655 12.7452 12.9634 12.6108 13.1296C12.5812 13.1433 12.5493 13.1501 12.5152 13.1501C12.3649 13.1501 12.0757 13.0568 11.5953 12.7289C10.8781 12.2371 10.0333 11.4174 9.45955 10.8413L9.39124 10.7753C8.81745 10.2015 7.99776 9.35449 7.50594 8.63726C7.08015 8.01793 7.04828 7.7151 7.10292 7.61947C7.26914 7.48513 7.36477 7.40088 7.50594 7.25971C8.0524 6.71325 8.38028 6.13946 8.48047 5.55657C8.57837 4.9714 8.45314 4.38622 8.10249 3.82155C7.92489 3.52327 7.71086 3.25004 7.46268 3.00868C6.80464 2.35292 6.12156 2.01366 5.43393 2H5.39067C4.69165 2 3.98353 2.33699 3.29134 2.99957C3.04315 3.2341 2.80407 3.56653 2.72666 3.67354L2.71527 3.68721L2.70161 3.7077C2.05496 4.64579 2.0709 6.09848 2.74715 7.79935C3.45755 9.57763 4.8351 11.5221 6.73634 13.4234L6.74089 13.4256L6.80009 13.4848L6.80464 13.4894C8.70588 15.3906 10.6504 16.7705 12.4287 17.4786C13.2985 17.8247 14.1045 18 14.8103 18C15.482 18 16.0626 17.8429 16.5203 17.5264L16.5408 17.5105L16.5545 17.5014C16.6638 17.4239 16.9939 17.1849 17.2307 16.9389C17.907 16.2308 18.2439 15.509 18.228 14.7941C18.2143 14.1064 17.8774 13.4256 17.2216 12.7699ZM14.1113 10.0535C11.6295 10.0535 10.1836 8.79892 10.1836 6.12125C10.1836 3.43902 11.6295 2.18443 14.1113 2.18443C16.5932 2.18443 18.0413 3.43902 18.0413 6.12125C18.0413 8.80347 16.5932 10.0535 14.1113 10.0535ZM12.4287 7.80162C12.6199 7.99288 12.9273 7.99516 13.1209 7.8039L13.1231 7.80162L14.1113 6.81116L15.1041 7.80618C15.2953 7.99744 15.605 7.99744 15.7962 7.80845L15.7985 7.80618C15.9898 7.61491 15.9898 7.30297 15.7985 7.11171L14.8058 6.11897L15.7985 5.12395C15.983 4.92358 15.9693 4.61392 15.7712 4.42949C15.5822 4.25644 15.293 4.25644 15.1063 4.42949L14.1136 5.42223L13.1254 4.43176C12.9341 4.2405 12.6245 4.2405 12.4309 4.43176C12.2397 4.62303 12.2397 4.93269 12.4309 5.12623L13.4191 6.11669L12.4309 7.10716C12.2374 7.3007 12.2374 7.61036 12.4287 7.80162Z" fill="#86888C"/>
</svg>
