<svg width="41" height="40" viewBox="0 0 41 40" fill="none" xmlns="http://www.w3.org/2000/svg">
<path d="M35.4177 34.8962C38.1457 32.054 37.9498 29.4684 35.4177 26.9545C34.9278 26.4569 34.376 26.026 33.7778 25.6668C31.6738 24.3637 29.4667 24.651 27.2595 26.8468C26.9708 27.1341 26.7026 27.4368 26.4551 27.76C24.908 29.1811 21.2208 25.949 17.8585 22.6092L17.7038 22.4553C14.3415 19.1155 11.0978 15.4473 12.5263 13.9031C12.8512 13.6569 13.1554 13.3901 13.4442 13.1028C15.6514 10.9071 15.9453 8.7113 14.6303 6.61815C14.2745 6.01791 13.8362 5.46897 13.3359 4.98672C10.8091 2.47289 8.20998 2.27281 5.35307 4.98672C4.77549 5.53566 4.17729 6.4078 4.15667 6.4232C1.70714 9.95282 4.17729 18.0279 13.1658 26.9699L13.3205 27.1238C22.3089 36.071 30.4259 38.5233 33.9738 36.0864C33.9944 36.071 34.8711 35.4708 35.4177 34.8962Z" fill="#86888C"/>
<path d="M30.6889 38C29.0954 38 27.2699 37.6101 25.3051 36.8303C21.2879 35.2348 16.889 32.131 12.5882 27.8523L12.5779 27.8421L12.4386 27.7087L12.4283 27.6984C8.12747 23.4198 5.00755 19.0488 3.40376 15.0472C1.87216 11.22 1.83607 7.95202 3.30062 5.83834L3.35219 5.76139C3.543 5.52027 4.07931 4.77638 4.64141 4.24283C6.24005 2.72427 7.86963 1.97012 9.48889 2.00091C11.0463 2.03169 12.5882 2.79097 14.0682 4.26335C14.6252 4.80716 15.1151 5.42279 15.5121 6.09486C16.3063 7.36717 16.5951 8.68051 16.3682 9.99899C16.1413 11.3175 15.4038 12.6052 14.1662 13.8364C13.8774 14.1237 13.5731 14.3956 13.2534 14.647C13.1348 14.8625 13.207 15.5397 14.1662 16.9351C15.2749 18.546 17.1314 20.4494 18.4309 21.7422L18.5856 21.8961C19.8852 23.1889 21.7984 25.0307 23.4177 26.1388C24.8152 27.093 25.501 27.1649 25.7176 27.0469C25.9703 26.7288 26.2385 26.4261 26.5324 26.1388C27.7701 24.9076 29.0644 24.1739 30.3898 23.9482C31.7151 23.7225 33.0353 24.0098 34.3142 24.7998C34.9897 25.2 35.6034 25.6822 36.1552 26.2414C37.6352 27.7138 38.3984 29.2478 38.4294 30.7971C38.4603 32.4029 37.7022 34.0292 36.1706 35.6196C35.6343 36.1788 34.8866 36.7123 34.639 36.8919L34.6081 36.9124C34.5926 36.9226 34.5772 36.9329 34.5617 36.9483C33.5252 37.646 32.2102 38 30.6889 38ZM14.0527 26.4056C18.1525 30.4842 22.3089 33.4289 26.0683 34.9218C29.1934 36.1634 31.8492 36.2814 33.3705 35.2553L33.4323 35.2143C33.9893 34.8141 34.407 34.4704 34.6751 34.1933C36.9235 31.8539 36.9287 29.9044 34.6906 27.683C34.2626 27.247 33.783 26.8724 33.2622 26.5595L33.2312 26.5441C32.3752 26.0157 31.5552 25.8259 30.7301 25.9644C29.838 26.1132 28.9149 26.657 27.9867 27.5804C27.7237 27.8369 27.4813 28.1088 27.2595 28.4013C27.2234 28.4423 27.1873 28.4834 27.1512 28.5193C26.7129 28.9246 25.9239 29.3401 24.6759 29.022C23.9694 28.8425 23.1753 28.4526 22.2522 27.8215C20.4937 26.6211 18.4877 24.6869 17.1314 23.3377L16.9767 23.1838C15.6204 21.8345 13.6763 19.8388 12.4696 18.0843C11.8353 17.166 11.4382 16.3759 11.2629 15.6731C10.9483 14.4315 11.366 13.6466 11.7682 13.2105C11.8043 13.1695 11.8456 13.1336 11.8868 13.1028C12.1808 12.8822 12.4541 12.6411 12.7119 12.3794C13.6402 11.456 14.1868 10.5377 14.3364 9.65013C14.4756 8.82416 14.2848 8.01358 13.7536 7.16195L13.7382 7.13117C13.4236 6.61302 13.0471 6.13077 12.6088 5.71009C10.3759 3.48868 8.41626 3.49381 6.06472 5.73061C5.78624 5.99738 5.43558 6.41294 5.03849 6.967L4.99208 7.02857C3.9607 8.53687 4.08447 11.1841 5.32728 14.293C6.82794 18.033 9.78799 22.168 13.8877 26.2465L13.9805 26.3389L14.0527 26.4056Z" fill="#86888C"/>
</svg>
