<svg width="28" height="28" viewBox="0 0 28 28" fill="none" xmlns="http://www.w3.org/2000/svg">
<path d="M7.32503 17.6382C5.20686 15.2662 3.64879 12.8874 2.77301 10.6826C1.76145 8.13652 1.73769 5.96246 2.70173 4.55631L2.7221 4.5256L2.73907 4.50512C2.85448 4.3413 3.2109 3.84642 3.5809 3.49147C4.60943 2.50171 5.66172 2 6.70383 2C7.74594 2 8.78466 2.50512 9.77585 3.50512C10.1458 3.86689 10.4649 4.27645 10.7297 4.72355C11.2525 5.56997 11.4391 6.44027 11.2932 7.31399C11.1472 8.18771 10.6584 9.04437 9.84713 9.86348C9.65704 10.058 9.45677 10.2389 9.24291 10.4061C9.13429 10.5904 9.27346 11.1263 9.84374 11.959C10.2103 12.4983 10.7025 13.0853 11.2083 13.6451L7.32503 17.6382ZM14.26 16.7201C14.7046 17.1297 15.1052 17.4676 15.4684 17.7509C16.5886 18.6212 17.1283 18.7509 17.3524 18.7509C17.4033 18.7543 17.4542 18.744 17.4983 18.7167C17.6646 18.5017 17.8446 18.2969 18.038 18.1058C19.0292 17.1092 20.0747 16.6007 21.1406 16.6007C21.8195 16.6007 22.495 16.8089 23.1501 17.215C23.5948 17.4812 24.0022 17.802 24.362 18.1741C25.3362 19.1536 25.8386 20.1706 25.8556 21.2014C25.8759 22.2696 25.3769 23.3481 24.3688 24.4061C24.0157 24.7782 23.5235 25.1331 23.3606 25.2526L23.3402 25.2696L23.3097 25.2901C22.6308 25.7611 21.7754 26 20.7638 26C19.2125 26 17.3456 25.4232 15.3632 24.3345C13.6863 23.413 11.9789 22.1638 10.2647 20.6075L14.26 16.7201Z" fill="#86888C"/>
<path d="M20.9572 4.16723C21.1846 4.16723 21.2423 4.30034 21.0794 4.46416L20.2545 5.29351C20.0916 5.45734 19.9864 5.77474 20.0203 6.00341L20.19 7.19454C20.224 7.42321 20.4344 7.63481 20.6619 7.66894L21.8465 7.83959C21.8737 7.843 21.9042 7.84642 21.9314 7.84642C22.1452 7.84642 22.41 7.74744 22.5526 7.60409L23.3774 6.77474C23.4385 6.7099 23.4997 6.68259 23.5472 6.68259C23.6219 6.68259 23.6728 6.75768 23.6728 6.89761C23.6728 6.89761 23.6796 8.77816 22.8309 9.6314C21.9959 10.471 20.1764 10.4778 20.1153 10.4778H20.1119C19.8845 10.4778 19.5654 10.6109 19.4059 10.7713L9.96921 20.2526C9.80627 20.4164 9.67728 20.7372 9.67728 20.9659C9.67728 20.9659 9.68407 22.8464 8.83545 23.6997C8.0004 24.5393 6.18095 24.5461 6.11985 24.5461C5.89242 24.5461 5.83472 24.4096 5.99765 24.2491L6.82251 23.4198C6.98545 23.256 7.09068 22.9386 7.05673 22.7099L6.88701 21.5188C6.85306 21.2901 6.6426 21.0785 6.41517 21.0444L5.2305 20.8737C5.20334 20.8703 5.17279 20.8669 5.14563 20.8669C4.93178 20.8669 4.66701 20.9659 4.52444 21.1092L3.69619 21.9386C3.63508 22 3.57398 22.0307 3.52646 22.0307C3.45178 22.0307 3.40087 21.9556 3.40087 21.8157C3.40087 21.8157 3.39408 19.9352 4.2427 19.0819C5.07774 18.2423 6.89719 18.2355 6.95829 18.2355H6.96169C7.18912 18.2355 7.5082 18.1024 7.67114 17.942L17.1044 8.46075C17.2674 8.29693 17.3964 7.97611 17.3964 7.74744C17.3964 7.74744 17.3896 5.86689 18.2382 5.01365C19.0732 4.17747 20.8927 4.16723 20.9572 4.16723ZM20.9538 2.80205C20.5125 2.80887 20.0712 2.85324 19.6367 2.93515C18.6184 3.12628 17.8241 3.50171 17.2775 4.04778C16.7276 4.60068 16.3509 5.41297 16.1608 6.45734C16.0929 6.83618 16.0521 7.21502 16.0386 7.60068L6.81572 16.8771C6.42196 16.8908 6.0316 16.9352 5.64123 17.0068C4.62288 17.198 3.82857 17.5734 3.28545 18.1195C2.73554 18.6724 2.35876 19.4846 2.17206 20.529C2.09399 20.9556 2.05325 21.3925 2.04646 21.8259C2.04307 22.1297 2.12114 22.43 2.27729 22.6894C2.4077 22.9061 2.5915 23.0853 2.81092 23.2096C3.03035 23.334 3.27797 23.3993 3.52986 23.3993C3.94059 23.3993 4.34453 23.2253 4.66022 22.9044L5.29839 22.2628L5.62765 22.3106L5.67517 22.6416L5.03701 23.2867C4.56857 23.7577 4.42261 24.4096 4.65683 24.9829C4.89105 25.5563 5.45114 25.9147 6.11306 25.9147H6.11985C6.56453 25.9079 7.00582 25.8635 7.44031 25.7816C8.46205 25.5904 9.25297 25.215 9.79948 24.6655C10.3494 24.1126 10.7262 23.3003 10.9163 22.2594C10.9842 21.8805 11.0249 21.5017 11.0385 21.116L20.2579 11.8396C20.6517 11.8259 21.042 11.7816 21.429 11.7099C22.4508 11.5188 23.2417 11.1433 23.7882 10.5939C24.3381 10.041 24.7149 9.22867 24.9016 8.1843C24.9796 7.75768 25.0204 7.32082 25.0272 6.88737C25.0306 6.58362 24.9491 6.28328 24.7929 6.02048C24.5282 5.5802 24.053 5.31058 23.5438 5.31058C23.133 5.31058 22.7291 5.48464 22.4134 5.80546L21.7719 6.4471L21.446 6.40273L21.3985 6.07167L22.0366 5.43003C22.5051 4.95904 22.651 4.30717 22.4168 3.73379C22.1826 3.16041 21.6225 2.80205 20.9606 2.79863L20.9538 2.80205Z" fill="#86888C"/>
</svg>
