<svg width="41" height="40" viewBox="0 0 41 40" fill="none" xmlns="http://www.w3.org/2000/svg">
<path fill-rule="evenodd" clip-rule="evenodd" d="M36.9636 27.2322C36.4154 26.679 35.8006 26.1923 35.1346 25.7927C34.1408 25.1779 33.1213 24.8705 32.0966 24.8705C31.8097 24.8705 31.5229 24.8961 31.2308 24.9473C29.9142 25.1676 28.6283 25.9054 27.3988 27.1349C27.0862 27.4474 26.8916 27.6677 26.5893 28.0417C26.5227 28.0724 26.451 28.0878 26.3741 28.0878C26.036 28.0878 25.3854 27.8778 24.3044 27.14C22.6906 26.0334 20.79 24.1891 19.4989 22.893L19.3453 22.7444C18.0542 21.4534 16.2099 19.5476 15.1033 17.9338C14.1453 16.5403 14.0736 15.859 14.1965 15.6438C14.5705 15.3415 14.7857 15.152 15.1033 14.8344C16.3329 13.6048 17.0706 12.3138 17.296 11.0023C17.5163 9.68564 17.2345 8.36901 16.4456 7.09848C16.046 6.42735 15.5644 5.81258 15.006 5.26953C13.5254 3.79408 11.9885 3.03074 10.4413 3H10.344C8.77118 3 7.1779 3.75822 5.62048 5.24904C5.06206 5.77672 4.52413 6.52469 4.34995 6.76548L4.32433 6.79621L4.29359 6.84232C2.83863 8.95304 2.8745 12.2216 4.39606 16.0485C5.99446 20.0497 9.09394 24.4248 13.3717 28.7026L13.382 28.7077L13.5152 28.8409L13.5254 28.8511C17.8032 33.1289 22.1783 36.2335 26.1795 37.8268C28.1365 38.6055 29.9501 39 31.5382 39C33.0495 39 34.3559 38.6465 35.3857 37.9344L35.4318 37.8985L35.4625 37.878C35.7084 37.7039 36.4513 37.1659 36.9841 36.6126C38.5056 35.0194 39.2639 33.3953 39.228 31.7867C39.1973 30.2395 38.439 28.7077 36.9636 27.2322ZM29.9654 21.1204C24.3813 21.1204 21.1281 18.2976 21.1281 12.2728C21.1281 6.2378 24.3813 3.41497 29.9654 3.41497C35.5496 3.41497 38.8079 6.2378 38.8079 12.2728C38.8079 18.3078 35.5496 21.1204 29.9654 21.1204ZM26.1795 16.0537C26.6098 16.484 27.3014 16.4891 27.7369 16.0588L27.742 16.0537L29.9654 13.8251L32.1991 16.0639C32.6294 16.4942 33.3262 16.4942 33.7565 16.069L33.7616 16.0639C34.192 15.6336 34.192 14.9317 33.7616 14.5014L31.528 12.2677L33.7616 10.0289C34.1766 9.57806 34.1459 8.88131 33.7002 8.46634C33.275 8.07699 32.6243 8.07699 32.2042 8.46634L29.9706 10.7L27.7471 8.47147C27.3168 8.04113 26.62 8.04113 26.1846 8.47147C25.7542 8.90181 25.7542 9.59855 26.1846 10.034L28.408 12.2626L26.1846 14.4911C25.7491 14.9266 25.7491 15.6233 26.1795 16.0537Z" fill="#86888C"/>
</svg>
