<svg width="24" height="24" viewBox="0 0 24 24" fill="none" xmlns="http://www.w3.org/2000/svg">
<path fill-rule="evenodd" clip-rule="evenodd" d="M21.798 6.01734L15.5971 2.26093C15.5943 2.25809 15.5886 2.25809 15.5857 2.25809C15.5544 2.24101 15.5231 2.22963 15.4861 2.22109C15.4634 2.2154 15.4406 2.20686 15.415 2.20686C15.4065 2.20686 15.3979 2.20117 15.3922 2.20117C15.378 2.20117 15.3638 2.20686 15.3524 2.20971C15.3154 2.21255 15.2813 2.22109 15.2499 2.23248C15.2357 2.23817 15.2272 2.24386 15.213 2.24955C15.176 2.26662 15.1418 2.28939 15.1105 2.32069L15.0934 2.33777C15.0735 2.36053 15.0479 2.37761 15.0337 2.40607C15.0251 2.42314 15.0251 2.44022 15.0166 2.45444C15.0166 2.45729 15.0166 2.46014 15.0138 2.46014C14.991 2.51421 14.9796 2.56827 14.9824 2.62234C14.9824 4.56031 14.049 5.5051 12.1367 5.5051C10.2215 5.5051 9.29093 4.56315 9.29093 2.6195C9.29093 2.47152 9.21409 2.33492 9.08603 2.25809C8.95797 2.1841 8.80146 2.1841 8.6734 2.25524L2.20783 6.01164C2.02286 6.11694 1.94887 6.35029 2.03709 6.54665L4.04335 11.0145C4.08888 11.1169 4.17425 11.1966 4.2767 11.2336C4.37915 11.2735 4.49582 11.2678 4.59258 11.2194L6.23174 10.434L6.19759 21.78C6.19759 21.891 6.24027 21.9991 6.31711 22.0788C6.39394 22.1556 6.49924 22.2012 6.61022 22.2012H17.6518C17.7599 22.2012 17.868 22.1556 17.942 22.0788C18.0189 21.9991 18.0616 21.8938 18.0616 21.78L18.0274 10.4396L19.6353 11.2194C19.7377 11.2678 19.8572 11.2735 19.9625 11.2336C20.0678 11.1909 20.1532 11.1056 20.1959 11.0003L21.9688 6.52957C22.0456 6.33891 21.9745 6.12263 21.798 6.01734Z" fill="#86888C"/>
</svg>
