<svg width="20" height="20" viewBox="0 0 20 20" fill="none" xmlns="http://www.w3.org/2000/svg">
<path fill-rule="evenodd" clip-rule="evenodd" d="M13.8998 13.1964C14.0956 13.3921 14.0956 13.7086 13.8998 13.9044C13.8019 14.0023 13.6744 14.0501 13.547 14.0501C13.4172 14.0501 13.292 14.0023 13.1918 13.9044L9.99545 10.708L6.8082 13.8953C6.7103 13.9932 6.58281 14.041 6.45532 14.041C6.32783 14.041 6.20034 13.9909 6.10245 13.8953C5.90666 13.6995 5.90666 13.383 6.10245 13.1873L9.2897 10L6.10245 6.81275C5.90666 6.61696 5.90666 6.30051 6.10245 6.107C6.29824 5.91121 6.61468 5.91121 6.8082 6.107L9.99545 9.29425L13.1918 6.09562C13.3876 5.89983 13.704 5.89983 13.8998 6.09562C14.0956 6.29141 14.0956 6.60785 13.8998 6.80364L10.7012 10L13.8998 13.1964ZM9.99772 2C4.94365 2 2 4.55208 2 10.0023C2 15.4525 4.94365 18 9.99772 18C15.0518 18 18 15.4525 18 10.0023C18 4.55208 15.0518 2 9.99772 2Z" fill="#86888C"/>
</svg>
