<svg width="28" height="28" viewBox="0 0 28 28" fill="none" xmlns="http://www.w3.org/2000/svg">
<path fill-rule="evenodd" clip-rule="evenodd" d="M13.9966 23.9989C11.0837 23.9989 8.84007 23.4115 7.21799 22.2163L22.1821 7.25555C23.3944 8.88446 23.9989 11.1246 23.9989 14.0034C23.9989 20.823 20.8196 23.9989 13.9966 23.9989ZM13.9966 4.00114C16.8924 4.00114 19.1429 4.60899 20.7718 5.83495L5.8008 20.8059C4.59192 19.1838 4.00114 16.93 4.00114 14.0034C4.00114 7.18042 7.17701 4.00114 13.9966 4.00114ZM13.9966 2C6.41548 2 2 5.82812 2 14.0034C2 22.1787 6.41548 26 13.9966 26C21.5777 26 26 22.1787 26 14.0034C26 5.82812 21.5777 2 13.9966 2" fill="#86888C"/>
</svg>
