<svg width="24" height="24" viewBox="0 0 24 24" fill="none" xmlns="http://www.w3.org/2000/svg">
<path fill-rule="evenodd" clip-rule="evenodd" d="M16.8748 15.9954C17.1195 16.2402 17.1195 16.6357 16.8748 16.8805C16.7524 17.0028 16.5931 17.0626 16.4337 17.0626C16.2715 17.0626 16.115 17.0028 15.9898 16.8805L11.9943 12.885L8.01024 16.8691C7.88788 16.9915 7.72851 17.0512 7.56915 17.0512C7.40979 17.0512 7.25043 16.9886 7.12806 16.8691C6.88332 16.6244 6.88332 16.2288 7.12806 15.9841L11.1121 12L7.12806 8.01594C6.88332 7.7712 6.88332 7.37564 7.12806 7.13375C7.37279 6.88902 7.76836 6.88902 8.01024 7.13375L11.9943 11.1178L15.9898 7.11952C16.2345 6.87479 16.6301 6.87479 16.8748 7.11952C17.1195 7.36426 17.1195 7.75982 16.8748 8.00455L12.8765 12L16.8748 15.9954ZM11.9972 2C5.67957 2 2 5.1901 2 12.0028C2 18.8156 5.67957 22 11.9972 22C18.3147 22 22 18.8156 22 12.0028C22 5.1901 18.3147 2 11.9972 2Z" fill="#86888C"/>
</svg>
