<svg width="40" height="40" viewBox="0 0 40 40" fill="none" xmlns="http://www.w3.org/2000/svg">
<path fill-rule="evenodd" clip-rule="evenodd" d="M28.7746 27.1918C29.2151 27.6323 29.2151 28.3443 28.7746 28.7849C28.5544 29.0051 28.2675 29.1127 27.9806 29.1127C27.6887 29.1127 27.4069 29.0051 27.1816 28.7849L19.9898 21.5931L12.8184 28.7644C12.5982 28.9846 12.3113 29.0922 12.0245 29.0922C11.7376 29.0922 11.4508 28.9795 11.2305 28.7644C10.79 28.3238 10.79 27.6118 11.2305 27.1713L18.4018 20L11.2305 12.8287C10.79 12.3882 10.79 11.6762 11.2305 11.2408C11.671 10.8002 12.383 10.8002 12.8184 11.2408L19.9898 18.4121L27.1816 11.2151C27.6221 10.7746 28.3341 10.7746 28.7746 11.2151C29.2151 11.6557 29.2151 12.3677 28.7746 12.8082L21.5777 20L28.7746 27.1918ZM19.9949 2C8.62322 2 2 7.74217 2 20.0051C2 32.2681 8.62322 38 19.9949 38C31.3665 38 38 32.2681 38 20.0051C38 7.74217 31.3665 2 19.9949 2Z" fill="#86888C"/>
</svg>
