<svg width="40" height="40" viewBox="0 0 40 40" fill="none" xmlns="http://www.w3.org/2000/svg">
<path fill-rule="evenodd" clip-rule="evenodd" d="M26.8384 28.8186C25.1252 28.8186 24.2865 28.0095 24.2865 26.3453C24.2865 24.6811 25.1201 23.872 26.8384 23.872C28.5516 23.872 29.3852 24.6811 29.3852 26.3453C29.3852 28.0095 28.5516 28.8186 26.8384 28.8186ZM11.2251 28.8083C9.51187 28.8083 8.67316 27.9993 8.67316 26.335C8.67316 24.6708 9.50676 23.8566 11.2251 23.8566C12.9434 23.8566 13.777 24.6657 13.777 26.335C13.777 27.9993 12.9434 28.8083 11.2251 28.8083ZM36.8416 20.4718C34.8215 17.0717 31.3439 16.2319 29.9631 16.0219C28.8432 14.5267 24.7774 10 16.6256 10C11.4859 10 8.04924 12.3043 6.07008 14.2399C3.26245 16.9846 2.01972 20.2414 2.03506 22.1821C1.87653 24.7988 2.30611 26.5399 2.32145 26.6167C2.44419 27.1031 2.89423 27.4462 3.41076 27.4462H6.5457C6.96505 29.6533 8.67827 30.9898 11.2302 30.9898C13.7821 30.9898 15.4902 29.6584 15.9147 27.4462H22.159C22.5784 29.6635 24.2916 31 26.8435 31C29.4006 31 31.1087 29.6635 31.5281 27.4462H35.8801C36.1512 27.4462 36.412 27.3489 36.6115 27.18C36.724 27.0775 39.3935 24.7527 36.8416 20.4718Z" fill="#86888C"/>
</svg>
