<svg width="40" height="40" viewBox="0 0 40 40" fill="none" xmlns="http://www.w3.org/2000/svg">
<path fill-rule="evenodd" clip-rule="evenodd" d="M35.3473 32.0572C35.6905 31.4732 36.1567 30.0387 34.9118 27.6923C33.0009 24.0601 29.3225 23.809 29.2918 23.809C28.9024 23.7885 28.5489 23.5631 28.3645 23.2199C28.2313 22.9791 24.8654 17.0926 16.6326 17.0926C12.5392 17.0926 9.73177 19.065 8.08726 20.7198C5.59231 23.2455 4.2603 26.637 4.27567 28.5325C4.19883 30.0694 4.27567 31.2887 4.37814 32.0572H6.52984C6.93456 29.7364 8.66617 28.3378 11.238 28.3378C13.8098 28.3378 15.5414 29.7416 15.9461 32.0572H22.1758C22.5651 29.7364 24.2865 28.3532 26.8532 28.3532C29.425 28.3532 31.1566 29.7416 31.5459 32.0572H35.3473ZM29.4147 33.1843V33.1689C29.4147 31.4373 28.5796 30.6125 26.8583 30.6125C25.142 30.6125 24.3172 31.4424 24.3172 33.1689V33.1843C24.3172 34.9005 25.1369 35.7458 26.8583 35.7458C28.5745 35.7458 29.4147 34.9005 29.4147 33.1843ZM13.7944 33.1843V33.1535C13.7944 31.4219 12.9593 30.592 11.238 30.592C9.5166 30.592 8.68154 31.4219 8.68154 33.1535C8.68154 34.8852 9.5166 35.7305 11.238 35.7305C12.944 35.7305 13.779 34.9005 13.7944 33.1843ZM35.0501 24.1523C35.7212 24.8029 36.3668 25.6124 36.9047 26.637C39.3843 31.3502 36.7868 33.8964 36.6793 33.9989C36.4692 34.1987 36.1926 34.3114 35.9006 34.3114H31.551C31.1309 36.6168 29.4147 38 26.8583 38C24.3019 38 22.5856 36.6168 22.1809 34.3114H15.9307C15.5106 36.6014 13.7944 37.9846 11.238 37.9846C8.68154 37.9846 6.96018 36.6014 6.5452 34.3114H3.40987C2.88219 34.3062 2.43136 33.9374 2.31865 33.4251C2.30328 33.3534 1.88319 31.4066 2.03176 28.4864C2.01639 26.2118 3.40987 22.267 6.50422 19.1368C7.80549 17.8099 9.74714 16.3037 12.3599 15.4789C12.3446 15.2996 12.3446 15.1049 12.3446 14.9256C12.3446 6.59029 16.9041 2 25.1677 2C33.4466 2 38.0061 6.59029 38.0061 14.9204C38.0061 18.8652 37.0071 21.9698 35.0501 24.1523ZM28.221 17.0722C28.5182 17.0722 28.8051 16.9543 29.0151 16.7443C29.4506 16.3037 29.4506 15.5916 29.0151 15.1459L26.1872 12.2923V8.44998C26.1872 7.83008 25.6902 7.3229 25.0652 7.3229C24.4453 7.3229 23.9432 7.83008 23.9432 8.44998V12.7585C23.9432 13.0608 24.0611 13.3425 24.2711 13.5577L27.4321 16.7392C27.6524 16.9594 27.9393 17.067 28.221 17.0722Z" fill="#86888C"/>
</svg>
