<svg width="24" height="24" viewBox="0 0 24 24" fill="none" xmlns="http://www.w3.org/2000/svg">
<path fill-rule="evenodd" clip-rule="evenodd" d="M20.5263 18.6985C20.7169 18.374 20.9759 17.5771 20.2843 16.2735C19.2227 14.2556 17.1792 14.1161 17.1621 14.1161C16.9458 14.1047 16.7494 13.9795 16.6469 13.7888C16.5729 13.655 14.703 10.3848 10.1292 10.3848C7.85513 10.3848 6.29543 11.4806 5.38181 12.3999C3.99573 13.803 3.25572 15.6872 3.26426 16.7403C3.22157 17.5941 3.26426 18.2715 3.32119 18.6985H4.51658C4.74142 17.4091 5.70343 16.6321 7.1322 16.6321C8.56098 16.6321 9.52298 17.412 9.74783 18.6985H13.2088C13.4251 17.4091 14.3814 16.6407 15.8073 16.6407C17.2361 16.6407 18.1981 17.412 18.4144 18.6985H20.5263ZM17.2304 19.3246V19.3161C17.2304 18.3541 16.7665 17.8958 15.8102 17.8958C14.8567 17.8958 14.3985 18.3569 14.3985 19.3161V19.3246C14.3985 20.2781 14.8538 20.7477 15.8102 20.7477C16.7636 20.7477 17.2304 20.2781 17.2304 19.3246ZM8.55244 19.3246V19.3075C8.55244 18.3455 8.08851 17.8844 7.1322 17.8844C6.17589 17.8844 5.71196 18.3455 5.71196 19.3075C5.71196 20.2695 6.17589 20.7391 7.1322 20.7391C8.07997 20.7391 8.5439 20.2781 8.55244 19.3246ZM20.3612 14.3068C20.734 14.6683 21.0926 15.118 21.3915 15.6872C22.769 18.3057 21.326 19.7202 21.2663 19.7771C21.1496 19.8881 20.9959 19.9508 20.8336 19.9508H18.4172C18.1839 21.2315 17.2304 22 15.8102 22C14.3899 22 13.4365 21.2315 13.2116 19.9508H9.73929C9.5059 21.223 8.55244 21.9915 7.1322 21.9915C5.71196 21.9915 4.75565 21.223 4.52511 19.9508H2.78326C2.49011 19.9479 2.23964 19.743 2.17703 19.4584C2.16849 19.4185 1.9351 18.337 2.01764 16.7147C2.0091 15.451 2.78326 13.2594 4.50234 11.5204C5.22527 10.7833 6.30397 9.94649 7.75551 9.48826C7.74697 9.38864 7.74697 9.28049 7.74697 9.18087C7.74697 4.55016 10.2801 2 14.8709 2C19.4703 2 22.0034 4.55016 22.0034 9.17803C22.0034 11.3696 21.4484 13.0943 20.3612 14.3068ZM16.5672 10.3734C16.7323 10.3734 16.8917 10.308 17.0084 10.1913C17.2503 9.94649 17.2503 9.55088 17.0084 9.30326L15.4373 7.71795V5.58332C15.4373 5.23894 15.1612 4.95717 14.814 4.95717C14.4696 4.95717 14.1907 5.23894 14.1907 5.58332V7.97695C14.1907 8.14487 14.2562 8.30141 14.3728 8.42095L16.1289 10.1884C16.2513 10.3108 16.4107 10.3706 16.5672 10.3734Z" fill="#86888C"/>
</svg>
