<svg width="24" height="24" viewBox="0 0 24 24" fill="none" xmlns="http://www.w3.org/2000/svg">
<path fill-rule="evenodd" clip-rule="evenodd" d="M16.7321 18.7637C15.4411 18.7637 14.7856 18.1111 14.7856 16.823C14.7856 15.535 15.4411 14.8823 16.7321 14.8823C18.023 14.8823 18.6785 15.535 18.6785 16.823C18.6785 18.1111 18.023 18.7637 16.7321 18.7637ZM6.97682 18.7637C5.68589 18.7637 5.03037 18.1111 5.03037 16.823C5.03037 15.535 5.68589 14.8823 6.97682 14.8823C8.26774 14.8823 8.92327 15.535 8.92327 16.823C8.92327 18.1111 8.26774 18.7637 6.97682 18.7637ZM21.3869 10.6329C21.0419 10.1872 18.414 6.71123 17.9655 6.09021C17.4969 5.43756 16.6602 5.01779 15.8379 5.01779H11.4217C11.0796 5.01779 10.8036 5.2938 10.8036 5.63306V10.5179L6.4938 4.27889C6.3788 4.11213 6.19191 4.01438 5.98778 4.0115L4.5071 4H4.50135C4.44385 4 4.39497 4.02588 4.34034 4.04025C4.29434 4.04888 4.24834 4.0575 4.20521 4.07475C4.20234 4.07763 4.19946 4.0805 4.19371 4.08338C3.98958 4.18401 3.84295 4.38814 3.84295 4.63252L3.83432 8.93944C3.8372 8.98257 3.8257 9.1752 3.74807 9.25858C3.71357 9.29596 3.64456 9.31321 3.54394 9.31321C3.44618 9.28446 3.3628 9.30458 3.3168 9.25571C3.25067 9.18383 3.23055 9.0027 3.23917 8.90782C3.27655 8.57143 3.03504 8.26379 2.69578 8.22354C2.35364 8.18904 2.04888 8.4248 2.00863 8.76406C2 8.84456 1.931 9.56334 2.39389 10.078C2.58652 10.2936 2.94016 10.5466 3.53819 10.5466H3.55256C4.12183 10.5438 4.46972 10.2965 4.6566 10.0924C5.108 9.60359 5.07349 8.92507 5.06774 8.89632L5.07062 7.16262L6.88194 10.8083H2.61815C2.27601 10.8083 2 11.0843 2 11.4235V15.9403C2 16.5297 2.25876 17.1249 2.71303 17.5763C3.07529 17.9385 3.53531 18.1628 4.05571 18.2462C4.51285 19.3531 5.54214 20 6.97107 20C8.38275 20 9.40054 19.3646 9.86631 18.2864H13.8282C14.294 19.3675 15.3118 20 16.7234 20C18.1351 20 19.1529 19.3646 19.6187 18.2864H19.8487C20.4381 18.2864 21.039 18.0277 21.4904 17.5763C21.9447 17.1249 22.2034 16.5269 22.2034 15.9403V12.5103C22.212 11.6996 21.6744 11.0038 21.3869 10.6329Z" fill="#86888C"/>
</svg>
