<svg width="20" height="20" viewBox="0 0 20 20" fill="none" xmlns="http://www.w3.org/2000/svg">
<path fill-rule="evenodd" clip-rule="evenodd" d="M13.7501 14.0236C14.3216 14.0236 14.588 13.7573 14.588 13.1838C14.588 12.6102 14.3216 12.344 13.7501 12.344C13.1787 12.344 12.9123 12.6102 12.9123 13.1838C12.9123 13.7573 13.1787 14.0236 13.7501 14.0236ZM8.11526 14.0191C8.68672 14.0191 8.95309 13.7528 8.95309 13.1792C8.95309 12.6057 8.68672 12.3394 8.11526 12.3394C7.54381 12.3394 7.27743 12.6057 7.27743 13.1792C7.27515 13.7528 7.54153 14.0191 8.11526 14.0191ZM17.5568 10.9397C18.4083 12.3326 17.8437 13.2771 17.4293 13.5798C17.3451 13.6413 17.2449 13.6731 17.1424 13.6731H15.5055C15.3279 14.4993 14.6927 15 13.7501 15C12.8076 15 12.1724 14.4993 11.9948 13.6731H9.86834C9.68847 14.497 9.05327 14.9932 8.11299 14.9932C7.1727 14.9932 6.53977 14.497 6.35764 13.6731H5.29213C5.06674 13.6731 4.87322 13.5206 4.81858 13.2999C4.81175 13.2725 4.65465 12.6102 4.71157 11.6225C4.70474 10.8873 5.16008 9.64694 6.19144 8.60683C6.91771 7.87397 8.17673 7 10.0596 7C12.9897 7 14.481 8.65918 14.9204 9.2532C15.4713 9.34424 16.7941 9.68563 17.5568 10.9397ZM3.89195 11.7659C4.1606 11.7659 4.37917 11.9844 4.37917 12.2529C4.37917 12.5215 4.1606 12.74 3.89195 12.74H2.831C2.56235 12.74 2.34378 12.5215 2.34378 12.2529C2.34378 11.9844 2.56235 11.7659 2.831 11.7659H3.89195ZM4.09913 10.1408C4.36779 10.1408 4.58635 10.3593 4.58635 10.6279C4.58635 10.8964 4.36779 11.1149 4.09913 11.1149H2.48722C2.21856 11.1149 2 10.8964 2 10.6279C2 10.3593 2.21856 10.1408 2.48722 10.1408H4.09913ZM5.09634 9.02333C5.09634 9.29189 4.87777 9.51038 4.60912 9.51038H3.35692C3.08827 9.51038 2.86971 9.29189 2.86971 9.02333C2.86971 8.75477 3.08827 8.53627 3.35692 8.53627H4.60912C4.88005 8.53627 5.09634 8.75477 5.09634 9.02333Z" fill="#86888C"/>
</svg>
