<svg width="28" height="28" viewBox="0 0 28 28" fill="none" xmlns="http://www.w3.org/2000/svg">
<path fill-rule="evenodd" clip-rule="evenodd" d="M18.5589 19.5457C17.4168 19.5457 16.8577 19.0063 16.8577 17.8969C16.8577 16.7874 17.4134 16.248 18.5589 16.248C19.7011 16.248 20.2568 16.7874 20.2568 17.8969C20.2568 19.0063 19.7011 19.5457 18.5589 19.5457ZM8.15006 19.5389C7.00791 19.5389 6.44877 18.9995 6.44877 17.89C6.44877 16.7805 7.0045 16.2377 8.15006 16.2377C9.29562 16.2377 9.85135 16.7771 9.85135 17.89C9.85135 18.9995 9.29562 19.5389 8.15006 19.5389ZM25.2277 13.9812C23.881 11.7145 21.5626 11.1546 20.6421 11.0146C19.8954 10.0178 17.185 7 11.7504 7C8.32394 7 6.03283 8.53621 4.71339 9.82663C2.84163 11.6564 2.01315 13.8276 2.02338 15.1214C1.91768 16.8659 2.20407 18.0266 2.2143 18.0778C2.29613 18.4021 2.59615 18.6308 2.9405 18.6308H5.03046C5.31003 20.1022 6.45218 20.9932 8.15347 20.9932C9.85476 20.9932 10.9935 20.1056 11.2765 18.6308H15.4394C15.7189 20.109 16.8611 21 18.5624 21C20.2671 21 21.4058 20.109 21.6854 18.6308H24.5868C24.7675 18.6308 24.9413 18.566 25.0743 18.4533C25.1493 18.385 26.929 16.8352 25.2277 13.9812Z" fill="#86888C"/>
</svg>
