<svg width="20" height="20" viewBox="0 0 20 20" fill="none" xmlns="http://www.w3.org/2000/svg">
<path fill-rule="evenodd" clip-rule="evenodd" d="M12.8278 14.9612C12.012 14.9612 11.6126 14.576 11.6126 13.7835C11.6126 12.991 12.0096 12.6057 12.8278 12.6057C13.6436 12.6057 14.0406 12.991 14.0406 13.7835C14.0406 14.576 13.6436 14.9612 12.8278 14.9612ZM5.3929 14.9564C4.57708 14.9564 4.17769 14.5711 4.17769 13.7786C4.17769 12.9861 4.57465 12.5984 5.3929 12.5984C6.21116 12.5984 6.60811 12.9837 6.60811 13.7786C6.60811 14.5711 6.21116 14.9564 5.3929 14.9564ZM17.5912 10.9866C16.6293 9.36747 14.9733 8.96757 14.3158 8.86759C13.7825 8.15557 11.8464 6 7.96456 6C5.5171 6 3.88059 7.09729 2.93814 8.01902C1.60116 9.32602 1.00939 10.8769 1.0167 11.801C0.941203 13.0471 1.14577 13.8761 1.15307 13.9127C1.21152 14.1444 1.42582 14.3077 1.67179 14.3077H3.16462C3.36431 15.3587 4.18013 15.9951 5.39534 15.9951C6.61054 15.9951 7.42393 15.3611 7.62606 14.3077H10.5995C10.7992 15.3636 11.615 16 12.8303 16C14.0479 16 14.8613 15.3636 15.061 14.3077H17.1334C17.2625 14.3077 17.3867 14.2614 17.4816 14.1809C17.5352 14.1322 18.8064 13.0251 17.5912 10.9866Z" fill="#86888C"/>
</svg>
