<svg width="24" height="24" viewBox="0 0 24 24" fill="none" xmlns="http://www.w3.org/2000/svg">
<path fill-rule="evenodd" clip-rule="evenodd" d="M16.1934 17.7535C15.2144 17.7535 14.7351 17.2911 14.7351 16.3402C14.7351 15.3892 15.2115 14.9268 16.1934 14.9268C17.1724 14.9268 17.6487 15.3892 17.6487 16.3402C17.6487 17.2911 17.1724 17.7535 16.1934 17.7535ZM7.27148 17.7476C6.2925 17.7476 5.81323 17.2853 5.81323 16.3343C5.81323 15.3833 6.28957 14.9181 7.27148 14.9181C8.25339 14.9181 8.72973 15.3804 8.72973 16.3343C8.72973 17.2853 8.25339 17.7476 7.27148 17.7476ZM21.9095 12.9839C20.7552 11.041 18.768 10.5611 17.9789 10.4411C17.3389 9.58669 15.0157 7 10.3575 7C7.42052 7 5.45671 8.31675 4.32576 9.42282C2.7214 10.9912 2.01127 12.8522 2.02004 13.9612C1.92944 15.4565 2.17492 16.4514 2.18369 16.4952C2.25382 16.7732 2.51099 16.9693 2.80615 16.9693H4.59754C4.83717 18.2304 5.81616 18.9941 7.2744 18.9941C8.73265 18.9941 9.70871 18.2334 9.95127 16.9693H13.5194C13.7591 18.2363 14.7381 19 16.1963 19C17.6575 19 18.6335 18.2363 18.8732 16.9693H21.3601C21.515 16.9693 21.664 16.9137 21.778 16.8171C21.8423 16.7586 23.3677 15.4301 21.9095 12.9839Z" fill="#86888C"/>
</svg>
