<svg width="20" height="20" viewBox="0 0 20 20" fill="none" xmlns="http://www.w3.org/2000/svg">
<path fill-rule="evenodd" clip-rule="evenodd" d="M14.0491 16.0728C13.0809 16.0728 12.5892 15.5833 12.5892 14.6173C12.5892 13.6512 13.0809 13.1617 14.0491 13.1617C15.0173 13.1617 15.5089 13.6512 15.5089 14.6173C15.5089 15.5833 15.0173 16.0728 14.0491 16.0728ZM6.73261 16.0728C5.76442 16.0728 5.27278 15.5833 5.27278 14.6173C5.27278 13.6512 5.76442 13.1617 6.73261 13.1617C7.70081 13.1617 8.19245 13.6512 8.19245 14.6173C8.19245 15.5833 7.70081 16.0728 6.73261 16.0728ZM17.5402 9.97466C17.2814 9.64043 15.3105 7.03342 14.9741 6.56765C14.6226 6.07817 13.9951 5.76334 13.3784 5.76334H10.0663C9.8097 5.76334 9.6027 5.97035 9.6027 6.2248V9.88841L6.37035 5.20916C6.2841 5.0841 6.14394 5.01078 5.99084 5.00863L4.88032 5H4.87601C4.83288 5 4.79623 5.01941 4.75526 5.03019C4.72075 5.03666 4.68625 5.04313 4.65391 5.05606C4.65175 5.05822 4.6496 5.06038 4.64528 5.06253C4.49218 5.13801 4.38221 5.29111 4.38221 5.47439L4.37574 8.70458C4.3779 8.73693 4.36927 8.8814 4.31105 8.94394C4.28518 8.97197 4.23342 8.98491 4.15795 8.98491C4.08464 8.96334 4.0221 8.97844 3.9876 8.94178C3.93801 8.88787 3.92291 8.75202 3.92938 8.68086C3.95741 8.42857 3.77628 8.19784 3.52183 8.16766C3.26523 8.14178 3.03666 8.3186 3.00647 8.57305C3 8.63342 2.94825 9.17251 3.29542 9.55849C3.43989 9.72022 3.70512 9.90997 4.15364 9.90997H4.16442C4.59137 9.90782 4.85229 9.72237 4.99245 9.56927C5.331 9.2027 5.30512 8.6938 5.30081 8.67224L5.30296 7.37197L6.66146 10.1062H3.46361C3.20701 10.1062 3 10.3132 3 10.5677V13.9553C3 14.3973 3.19407 14.8437 3.53477 15.1822C3.80647 15.4539 4.15148 15.6221 4.54178 15.6846C4.88464 16.5148 5.6566 17 6.7283 17C7.78706 17 8.5504 16.5234 8.89973 15.7148H11.8712C12.2205 16.5256 12.9838 17 14.0426 17C15.1013 17 15.8647 16.5234 16.214 15.7148H16.3865C16.8286 15.7148 17.2792 15.5208 17.6178 15.1822C17.9585 14.8437 18.1526 14.3951 18.1526 13.9553V11.3827C18.159 10.7747 17.7558 10.2528 17.5402 9.97466Z" fill="#86888C"/>
</svg>
