<svg width="40" height="40" viewBox="0 0 40 40" fill="none" xmlns="http://www.w3.org/2000/svg">
<path fill-rule="evenodd" clip-rule="evenodd" d="M35.1216 29.3956C35.9001 28.8937 35.9309 28.6018 35.5928 27.9667C35.3214 27.4187 34.6863 27.1626 34.1127 27.3624L27.0397 29.8207C26.9526 29.8515 26.8809 29.8361 26.8041 29.8515C26.2868 30.1844 25.6876 30.3688 25.0679 30.379H16.2074C15.598 30.379 15.1063 29.8873 15.1063 29.2778V29.2727C15.1063 28.653 15.5928 28.1665 16.2074 28.1665H25.073C25.6312 28.1665 26.2305 27.5672 26.2305 26.9885C26.2305 26.4609 25.9232 25.9129 25.3086 25.8976C25.1754 25.8976 25.0166 25.8976 24.822 25.9129C23.3521 25.9437 20.274 26 17.3956 24.2023C17.3649 24.1921 15.895 23.3367 11.1421 23.2189V31.2138L19.5672 35.2702C20.1818 35.6236 20.9193 35.7874 21.8156 35.7874C22.5634 35.7874 23.2087 35.6697 23.7209 35.4494C23.767 35.4187 32.4379 31.0909 35.1216 29.3956ZM37.5595 26.968C38.0615 27.9411 38.589 29.8105 36.2945 31.2702C33.5186 33.0218 25.0218 37.2625 24.6581 37.4366C23.8233 37.8207 22.8809 38 21.8105 38C20.5198 38 19.4187 37.749 18.5378 37.2318L11.1421 33.6671V34.3739C11.1421 35.8131 9.96927 36.9808 8.53009 36.9808H4.61204C3.17286 36.9808 2 35.8131 2 34.3739V22.2817C2 20.8374 3.17286 19.6594 4.61204 19.6594H8.53009C9.51344 19.6594 10.3483 20.2074 10.8041 21.0115C16.4533 21.0986 18.2919 22.1434 18.5992 22.3483C20.8886 23.7772 23.3982 23.7311 24.7759 23.7055C24.9962 23.6901 25.201 23.7055 25.3496 23.6901C26.2151 23.7055 26.9936 24.0743 27.5365 24.6735C28.0948 25.2625 28.4328 26.0717 28.4328 26.9885L33.3905 25.2676C34.9424 24.7196 36.6632 25.3649 37.4725 26.799C37.4878 26.8041 37.5595 26.9526 37.5595 26.968ZM6.53265 23.0755C5.76953 23.0755 5.22663 23.6236 5.22663 24.3867C5.22663 25.1498 5.76953 25.6978 6.53265 25.6978C7.29577 25.6978 7.83867 25.1549 7.83867 24.3867C7.84379 23.6236 7.3009 23.0755 6.53265 23.0755ZM25.8515 22.0922C19.3982 22.0922 15.8387 18.5275 15.8387 12.0487C15.8387 5.56978 19.3931 2 25.8515 2C32.3099 2 35.8694 5.56978 35.8694 12.0487C35.8643 18.5224 32.3099 22.0922 25.8515 22.0922ZM21.4725 11.3828H24.2382C24.7657 11.3828 25.1908 10.9526 25.1908 10.4251V7.64917H26.5173V10.4251C26.5173 10.9526 26.9475 11.3777 27.475 11.3828H30.2407V12.7093H27.475C26.9475 12.7093 26.5224 13.1396 26.5224 13.6671V16.443H25.1959V13.6671C25.1959 13.1396 24.7708 12.7093 24.2433 12.7093L21.4776 12.7145L21.4725 11.3828ZM21.0781 14.63L23.2804 14.6248V16.8271C23.2804 17.6568 23.9257 18.3534 24.6837 18.3534H27.0192C27.7772 18.3534 28.4225 17.6568 28.4225 16.8271V14.6197H30.6197C31.4443 14.6197 32.1408 13.9744 32.1408 13.2113V10.8656C32.1408 10.1024 31.4443 9.45711 30.6197 9.45711H28.4174V7.2548C28.4174 6.43022 27.7721 5.72855 27.0141 5.72855H24.6786C23.9206 5.72855 23.2753 6.4251 23.2753 7.2548V9.46223H21.0781C20.2535 9.46223 19.557 10.1076 19.557 10.8707V13.2164C19.5621 13.9846 20.2586 14.63 21.0781 14.63Z" fill="#86888C"/>
</svg>
