<svg width="20" height="20" viewBox="0 0 20 20" fill="none" xmlns="http://www.w3.org/2000/svg">
<path fill-rule="evenodd" clip-rule="evenodd" d="M9.35098 11.7553C9.0185 11.4092 8.82494 11.1633 8.58127 10.7809C8.27612 10.3028 8.06661 9.82925 7.95958 9.36938C7.84116 8.8708 7.93908 8.45646 8.23057 8.20376C8.40137 8.05578 8.63137 7.96927 8.88187 7.95561C8.90464 7.95333 8.92514 7.95333 8.94791 7.95333C9.19157 7.95333 9.4398 8.02163 9.6698 8.15139C9.75633 8.1992 9.84515 8.25156 9.94079 8.31076C9.9499 8.31531 9.96129 8.31759 9.97267 8.31759C9.98406 8.31759 9.99317 8.31531 10.0023 8.31076C10.1002 8.25384 10.189 8.20148 10.2755 8.15139C10.5078 8.02163 10.756 7.95333 10.9974 7.95333C11.0202 7.95333 11.043 7.95333 11.0635 7.95561C11.314 7.96927 11.5463 8.05578 11.7148 8.20376C12.0063 8.45646 12.1042 8.8708 11.9858 9.36938C11.8787 9.82698 11.6692 10.3028 11.3641 10.7809C11.1227 11.1588 10.9291 11.4047 10.6035 11.7462L10.5944 11.7553C10.5625 11.7894 10.4486 11.9032 10.3553 11.9738C10.2733 12.033 10.1799 12.0763 10.0888 12.0968C10.0615 12.1036 10.0342 12.1059 10.0046 12.1081H10.0023H9.94535H9.94079C9.91119 12.1059 9.88386 12.1036 9.85653 12.0968C9.76317 12.0763 9.6698 12.0353 9.58782 11.9738C9.49445 11.9032 9.38286 11.7894 9.35098 11.7553ZM13.5275 14.7012C13.5525 14.6784 13.5685 14.6579 13.573 14.6352C13.5867 14.5896 13.5616 14.5418 13.5206 14.4644C13.5161 14.4576 13.5093 14.4553 13.5047 14.4485C13.4227 14.3187 13.2884 14.2709 13.1608 14.3164L10.7356 15.1633C10.7287 15.1656 10.7196 15.1656 10.7128 15.1656C10.6946 15.1679 10.6763 15.1702 10.6604 15.1702C10.4668 15.2908 10.2528 15.3591 10.0205 15.3591H6.98491C6.71164 15.3591 6.48392 15.1383 6.48392 14.8537C6.48392 14.8241 6.4953 14.7991 6.49986 14.7718C6.50669 14.7331 6.50897 14.6944 6.52263 14.6579C6.53402 14.6306 6.55679 14.6079 6.57273 14.5828C6.59095 14.5555 6.60461 14.5236 6.62966 14.4986C6.72075 14.4075 6.846 14.3506 6.98264 14.3506H10.0182C10.1002 14.3506 10.1867 14.2869 10.2414 14.2094C10.2733 14.1662 10.2983 14.1184 10.2983 14.0729V14.0706C10.2983 14.0046 10.2778 13.9408 10.2391 13.893C10.2072 13.852 10.164 13.8247 10.1002 13.8224L9.93851 13.8247C9.48534 13.8338 8.60632 13.852 7.71364 13.4286C7.58611 13.3671 7.45858 13.2988 7.33106 13.2191C7.32422 13.2123 6.84372 12.9573 5.37717 12.9027V12.905H5.37489V15.4548L8.08255 16.7684L8.19186 16.8207C8.39226 16.9345 8.61998 16.9892 8.90464 16.9892C9.06177 16.9892 9.19613 16.9664 9.32138 16.9345C9.38742 16.9186 9.45574 16.9027 9.51039 16.8776C9.52178 16.8708 12.2112 15.5185 13.2542 14.8879C13.3066 14.8583 13.3567 14.8264 13.3999 14.7991C13.425 14.7809 13.4387 14.7695 13.4569 14.7558C13.4796 14.7399 13.507 14.7217 13.5206 14.7103C13.5252 14.7035 13.5252 14.7035 13.5275 14.7012ZM3.67606 13.6357C3.9425 13.6357 4.13834 13.44 4.13834 13.169C4.13834 12.9027 3.94022 12.7046 3.67606 12.7046C3.40962 12.7046 3.21605 12.9004 3.21605 13.169C3.21605 13.44 3.40962 13.6357 3.67606 13.6357ZM14.3814 13.9454C14.3814 13.9522 14.4088 14 14.4156 14.0068C14.7435 14.6397 14.5705 15.2476 13.9351 15.6528C12.9809 16.2607 10.0592 17.7291 9.94079 17.7906C9.63336 17.9317 9.29405 18 8.90692 18C8.44008 18 8.04611 17.8998 7.7273 17.7109L5.36578 16.5726C5.30658 17.1736 4.80558 17.6517 4.193 17.6517H3.18645C2.53288 17.6517 2 17.1121 2 16.4519V12.6227C2 11.9624 2.53288 11.4229 3.18645 11.4229H4.193C4.5733 11.4229 4.90578 11.6118 5.12667 11.8873C7.10105 11.9215 7.76829 12.2994 7.88215 12.3722C8.62909 12.8435 9.47623 12.823 9.92257 12.8162H10.123C10.7287 12.823 11.2092 13.2943 11.2912 13.9089L12.8375 13.3625C13.4273 13.1508 14.0808 13.399 14.3814 13.9454ZM16.3194 7.29084C16.5858 7.29084 16.7794 7.09505 16.7794 6.82413C16.7794 6.55549 16.5858 6.35743 16.3194 6.35743C16.0529 6.35743 15.8594 6.55322 15.8594 6.82413C15.8594 7.0905 16.0552 7.29084 16.3194 7.29084ZM14.6206 7.09277V4.54297L11.9152 3.22937L11.8059 3.17473C11.6055 3.0609 11.38 3.00626 11.0931 3.00626C10.936 3.00626 10.8016 3.02903 10.6763 3.0609C10.6103 3.07684 10.5443 3.09277 10.4896 3.11781C10.4782 3.12464 7.78878 4.47695 6.7458 5.10757C6.69342 5.13944 6.64105 5.16904 6.60006 5.19636C6.57273 5.21457 6.55907 5.22595 6.54085 5.23961C6.52035 5.25555 6.49075 5.27376 6.47709 5.28514C6.47481 5.28742 6.47481 5.28742 6.47481 5.2897C6.44976 5.31246 6.43609 5.33523 6.42926 5.35572C6.4156 5.40125 6.44065 5.44906 6.48164 5.52647C6.48619 5.5333 6.4953 5.5333 6.49986 5.5424C6.58184 5.67217 6.7162 5.71998 6.84145 5.67444L9.26672 4.82755C9.27583 4.82299 9.28266 4.82527 9.2895 4.82299C9.30771 4.82072 9.32821 4.81844 9.34187 4.81844C9.53544 4.69778 9.7495 4.62948 9.98178 4.62948H13.0174C13.2906 4.62948 13.5161 4.85031 13.5184 5.13489C13.5184 5.16448 13.507 5.18953 13.5024 5.21685C13.4956 5.25555 13.4933 5.29425 13.4796 5.33068C13.4683 5.36027 13.4455 5.38076 13.4295 5.40581C13.4113 5.43312 13.3977 5.465 13.3726 5.49004C13.2815 5.5811 13.1586 5.63802 13.0196 5.63802H9.98634H9.98406C9.90436 5.63802 9.81782 5.70176 9.76089 5.77917C9.72901 5.82242 9.70396 5.87023 9.70396 5.91804V5.92032C9.70396 5.98634 9.72445 6.05236 9.76317 6.09789C9.79505 6.13887 9.83832 6.16619 9.8998 6.16847L10.0615 6.16619H10.0638C10.5169 6.15709 11.396 6.1366 12.2886 6.56232C12.4162 6.62379 12.5437 6.69209 12.6712 6.77177C12.6712 6.78543 13.1517 7.04041 14.6206 7.09277ZM16.8113 2.34832C17.4648 2.34832 18 2.88788 18 3.54809V7.37735C18 8.03756 17.4671 8.57712 16.8113 8.57712H15.8047C15.4244 8.57712 15.0919 8.38816 14.8711 8.11269C12.8967 8.07854 12.2294 7.70063 12.1178 7.62777C11.3709 7.15652 10.5238 7.17701 10.0774 7.18384H9.87703C9.269 7.17701 8.79078 6.70575 8.7088 6.09106L7.16254 6.63745C6.56818 6.8469 5.9146 6.59875 5.61401 6.05236C5.61401 6.04553 5.58668 5.99772 5.57985 5.99089C5.2542 5.358 5.42727 4.75014 6.06035 4.34718C7.01452 3.7416 9.93624 2.27092 10.0547 2.20945C10.3621 2.0683 10.7014 2 11.0885 2C11.5554 2 11.9493 2.10245 12.2704 2.29141L14.6319 3.42971C14.6911 2.82869 15.1921 2.3506 15.8047 2.3506H16.8113V2.34832Z" fill="#86888C"/>
</svg>
