<svg width="40" height="40" viewBox="0 0 40 40" fill="none" xmlns="http://www.w3.org/2000/svg">
<path fill-rule="evenodd" clip-rule="evenodd" d="M18.5397 24.9493C17.7916 24.1707 17.3561 23.6175 16.8079 22.757C16.1213 21.6813 15.6499 20.6158 15.4091 19.5811C15.1426 18.4593 15.3629 17.527 16.0188 16.9585C16.4031 16.6255 16.9206 16.4308 17.4842 16.4001C17.5354 16.395 17.5816 16.395 17.6328 16.395C18.181 16.395 18.7395 16.5487 19.257 16.8406C19.4518 16.9482 19.6516 17.066 19.8668 17.1992C19.8873 17.2094 19.9129 17.2146 19.9385 17.2146C19.9641 17.2146 19.9846 17.2094 20.0051 17.1992C20.2254 17.0711 20.4253 16.9533 20.62 16.8406C21.1426 16.5487 21.7011 16.395 22.2442 16.395C22.2955 16.395 22.3467 16.395 22.3928 16.4001C22.9564 16.4308 23.4791 16.6255 23.8582 16.9585C24.5141 17.527 24.7344 18.4593 24.468 19.5811C24.2272 20.6107 23.7558 21.6813 23.0692 22.757C22.526 23.6073 22.0905 24.1605 21.3578 24.9289L21.3373 24.9493C21.2656 25.0262 21.0094 25.2823 20.7993 25.4411C20.6149 25.5743 20.4048 25.6716 20.1998 25.7177C20.1383 25.7331 20.0769 25.7382 20.0102 25.7433H20.0051H19.877H19.8668C19.8002 25.7382 19.7387 25.7331 19.6772 25.7177C19.4671 25.6716 19.257 25.5794 19.0726 25.4411C18.8625 25.2823 18.6114 25.0262 18.5397 24.9493ZM27.9368 31.5777C27.9932 31.5265 28.029 31.4804 28.0393 31.4291C28.07 31.3267 28.0137 31.2191 27.9214 31.045C27.9112 31.0296 27.8958 31.0245 27.8856 31.0091C27.7011 30.7171 27.3988 30.6096 27.1119 30.712L21.655 32.6175C21.6396 32.6227 21.6191 32.6227 21.6038 32.6227C21.5628 32.6278 21.5218 32.6329 21.4859 32.6329C21.0504 32.9044 20.5687 33.0581 20.0461 33.0581H13.2161C12.6012 33.0581 12.0888 32.5612 12.0888 31.9209C12.0888 31.8543 12.1144 31.7979 12.1247 31.7365C12.1401 31.6494 12.1452 31.5623 12.1759 31.4804C12.2015 31.4189 12.2528 31.3677 12.2886 31.3113C12.3296 31.2499 12.3604 31.1781 12.4167 31.1218C12.6217 30.9169 12.9035 30.7888 13.2109 30.7888H20.041C20.2254 30.7888 20.4202 30.6454 20.5431 30.4713C20.6149 30.3739 20.6712 30.2664 20.6712 30.1639V30.1588C20.6712 30.0102 20.6251 29.8668 20.538 29.7592C20.4663 29.667 20.3689 29.6056 20.2254 29.6005L19.8617 29.6056C18.842 29.6261 16.8642 29.667 14.8557 28.7143C14.5687 28.576 14.2818 28.4223 13.9949 28.243C13.9795 28.2277 12.8984 27.654 9.59863 27.531V27.5361H9.59351V33.2732L15.6857 36.2288L15.9317 36.3466C16.3826 36.6027 16.895 36.7257 17.5354 36.7257C17.889 36.7257 18.1913 36.6744 18.4731 36.6027C18.6217 36.5669 18.7754 36.531 18.8984 36.4747C18.924 36.4593 24.9752 33.4166 27.3219 31.9977C27.4398 31.9311 27.5525 31.8594 27.6499 31.7979C27.7062 31.757 27.737 31.7314 27.778 31.7006C27.8292 31.6648 27.8907 31.6238 27.9214 31.5982C27.9317 31.5828 27.9317 31.5828 27.9368 31.5777ZM5.77114 29.1804C6.37062 29.1804 6.81127 28.7399 6.81127 28.1303C6.81127 27.531 6.3655 27.0854 5.77114 27.0854C5.17165 27.0854 4.73612 27.5259 4.73612 28.1303C4.73612 28.7399 5.17165 29.1804 5.77114 29.1804ZM29.8582 29.8771C29.8582 29.8924 29.9197 30 29.9351 30.0154C30.6729 31.4394 30.2835 32.8071 28.854 33.7188C26.7071 35.0865 20.1332 38.3904 19.8668 38.5287C19.1751 38.8463 18.4116 39 17.5406 39C16.4902 39 15.6038 38.7746 14.8864 38.3495L9.57302 35.7883C9.4398 37.1406 8.31255 38.2163 6.93424 38.2163H4.66951C3.19898 38.2163 2 37.0023 2 35.5168V26.901C2 25.4155 3.19898 24.2015 4.66951 24.2015H6.93424C7.78992 24.2015 8.538 24.6266 9.03501 25.2464C13.4774 25.3233 14.9787 26.1736 15.2348 26.3375C16.9155 27.3978 18.8215 27.3517 19.8258 27.3364H20.2767C21.6396 27.3517 22.7208 28.4121 22.9052 29.7951L26.3843 28.5657C27.7114 28.0894 29.1819 28.6477 29.8582 29.8771ZM34.2186 14.9044C34.8181 14.9044 35.2536 14.4639 35.2536 13.8543C35.2536 13.2499 34.8181 12.8042 34.2186 12.8042C33.6191 12.8042 33.1836 13.2447 33.1836 13.8543C33.1836 14.4536 33.6243 14.9044 34.2186 14.9044ZM30.3962 14.4587V8.72168L24.3091 5.76608L24.0632 5.64314C23.6123 5.38702 23.105 5.26409 22.4594 5.26409C22.1059 5.26409 21.8036 5.31531 21.5218 5.38702C21.3732 5.42288 21.2246 5.45874 21.1016 5.51508C21.076 5.53045 15.0248 8.57314 12.6781 9.99203C12.5602 10.0637 12.4424 10.1303 12.3501 10.1918C12.2886 10.2328 12.2579 10.2584 12.2169 10.2891C12.1708 10.325 12.1042 10.366 12.0734 10.3916C12.0683 10.3967 12.0683 10.3967 12.0683 10.4018C12.012 10.453 11.9812 10.5043 11.9658 10.5504C11.9351 10.6528 11.9915 10.7604 12.0837 10.9345C12.0939 10.9499 12.1144 10.9499 12.1247 10.9704C12.3091 11.2624 12.6114 11.3699 12.8933 11.2675L18.3501 9.36198C18.3706 9.35174 18.386 9.35686 18.4014 9.35174C18.4424 9.34661 18.4885 9.34149 18.5192 9.34149C18.9547 9.07001 19.4364 8.91633 19.959 8.91633H26.7891C27.4039 8.91633 27.9112 9.4132 27.9163 10.0535C27.9163 10.1201 27.8907 10.1764 27.8804 10.2379C27.8651 10.325 27.8599 10.4121 27.8292 10.494C27.8036 10.5606 27.7523 10.6067 27.7165 10.6631C27.6755 10.7245 27.6447 10.7962 27.5884 10.8526C27.3834 11.0575 27.1067 11.1855 26.7942 11.1855H19.9693H19.9641C19.7848 11.1855 19.5901 11.329 19.462 11.5031C19.3903 11.6005 19.3339 11.708 19.3339 11.8156V11.8207C19.3339 11.9693 19.38 12.1178 19.4671 12.2203C19.5389 12.3125 19.6362 12.3739 19.7746 12.3791L20.1383 12.3739H20.1435C21.1631 12.3534 23.1409 12.3073 25.1494 13.2652C25.4364 13.4035 25.7233 13.5572 26.0102 13.7365C26.0102 13.7672 27.0914 14.3409 30.3962 14.4587ZM35.3254 3.78372C36.7959 3.78372 38 4.99772 38 6.48321V15.099C38 16.5845 36.801 17.7985 35.3254 17.7985H33.0606C32.205 17.7985 31.4569 17.3734 30.9599 16.7536C26.5175 16.6767 25.0162 15.8264 24.7652 15.6625C23.0845 14.6022 21.1785 14.6483 20.1742 14.6636H19.7233C18.3553 14.6483 17.2792 13.5879 17.0948 12.2049L13.6157 13.4343C12.2784 13.9055 10.8079 13.3472 10.1315 12.1178C10.1315 12.1024 10.07 11.9949 10.0547 11.9795C9.32195 10.5555 9.71136 9.18782 11.1358 8.28116C13.2827 6.91861 19.8565 3.60956 20.123 3.47126C20.8147 3.15367 21.5781 3 22.4492 3C23.4996 3 24.386 3.23051 25.1085 3.65566L30.4219 6.21685C30.5551 4.86454 31.6823 3.78884 33.0606 3.78884H35.3254V3.78372Z" fill="#86888C"/>
</svg>
