<svg width="24" height="24" viewBox="0 0 24 24" fill="none" xmlns="http://www.w3.org/2000/svg">
<path fill-rule="evenodd" clip-rule="evenodd" d="M20.4009 17.2198C20.8334 16.941 20.8505 16.7788 20.6627 16.4259C20.5119 16.1215 20.1591 15.9792 19.8404 16.0902L15.9109 17.456C15.8626 17.473 15.8227 17.4645 15.7801 17.473C15.4927 17.658 15.1598 17.7604 14.8155 17.7661H9.89301C9.55442 17.7661 9.28126 17.493 9.28126 17.1544V17.1515C9.28126 16.8072 9.55157 16.5369 9.89301 16.5369H14.8183C15.1285 16.5369 15.4614 16.204 15.4614 15.8825C15.4614 15.5894 15.2907 15.285 14.9492 15.2764C14.8752 15.2764 14.787 15.2764 14.6789 15.285C13.8623 15.302 12.1522 15.3333 10.5531 14.3346C10.5361 14.3289 9.71945 13.8537 7.07896 13.7883V18.2299L11.7596 20.4834C12.101 20.6798 12.5107 20.7708 13.0087 20.7708C13.4241 20.7708 13.7826 20.7054 14.0672 20.583C14.0928 20.5659 18.9099 18.1616 20.4009 17.2198ZM21.7553 15.8711C22.0341 16.4117 22.3272 17.4503 21.0525 18.2612C19.5103 19.2343 14.7899 21.5903 14.5879 21.687C14.1241 21.9004 13.6005 22 13.0058 22C12.2888 22 11.6771 21.8606 11.1877 21.5732L7.07896 19.5928V19.9855C7.07896 20.785 6.42737 21.4338 5.62783 21.4338H3.45113C2.65159 21.4338 2 20.785 2 19.9855V13.2676C2 12.4652 2.65159 11.8108 3.45113 11.8108H5.62783C6.17414 11.8108 6.63793 12.1152 6.89117 12.562C10.0296 12.6103 11.0511 13.1908 11.2218 13.3046C12.4937 14.0984 13.8879 14.0728 14.6533 14.0586C14.7756 14.0501 14.8895 14.0586 14.972 14.0501C15.4528 14.0586 15.8853 14.2635 16.1869 14.5964C16.4971 14.9236 16.6849 15.3732 16.6849 15.8825L19.4392 14.9264C20.3013 14.622 21.2574 14.9805 21.7069 15.7772C21.7155 15.7801 21.7553 15.8626 21.7553 15.8711ZM4.51814 13.7086C4.09418 13.7086 3.79257 14.0131 3.79257 14.437C3.79257 14.861 4.09418 15.1655 4.51814 15.1655C4.9421 15.1655 5.2437 14.8638 5.2437 14.437C5.24655 14.0131 4.94494 13.7086 4.51814 13.7086ZM15.2508 13.1623C11.6657 13.1623 9.68815 11.182 9.68815 7.58259C9.68815 3.98321 11.6628 2 15.2508 2C18.8388 2 20.8163 3.98321 20.8163 7.58259C20.8135 11.1791 18.8388 13.1623 15.2508 13.1623ZM12.818 7.21269H14.3545C14.6476 7.21269 14.8838 6.97368 14.8838 6.68061V5.13843H15.6207V6.68061C15.6207 6.97368 15.8597 7.20984 16.1528 7.21269H17.6893V7.94964H16.1528C15.8597 7.94964 15.6236 8.18865 15.6236 8.48172V10.0239H14.8866V8.48172C14.8866 8.18865 14.6504 7.94964 14.3574 7.94964L12.8209 7.95248L12.818 7.21269ZM12.5989 9.01665L13.8225 9.0138V10.2373C13.8225 10.6982 14.181 11.0852 14.6021 11.0852H15.8996C16.3207 11.0852 16.6792 10.6982 16.6792 10.2373V9.01095H17.8998C18.3579 9.01095 18.7449 8.65244 18.7449 8.22848V6.92531C18.7449 6.50135 18.3579 6.14284 17.8998 6.14284H16.6763V4.91933C16.6763 4.46123 16.3178 4.07142 15.8967 4.07142H14.5992C14.1781 4.07142 13.8196 4.45839 13.8196 4.91933V6.14568H12.5989C12.1408 6.14568 11.7539 6.5042 11.7539 6.92815V8.23133C11.7567 8.65813 12.1437 9.01665 12.5989 9.01665Z" fill="#86888C"/>
</svg>
