<svg width="28" height="28" viewBox="0 0 28 28" fill="none" xmlns="http://www.w3.org/2000/svg">
<path fill-rule="evenodd" clip-rule="evenodd" d="M13.0265 16.6329C12.5278 16.1138 12.2374 15.745 11.8719 15.1713C11.4142 14.4542 11.0999 13.7439 10.9394 13.0541C10.7617 12.3062 10.9086 11.6847 11.3459 11.3056C11.602 11.0837 11.9471 10.9539 12.3228 10.9334C12.357 10.93 12.3877 10.93 12.4219 10.93C12.7874 10.93 13.1597 11.0324 13.5047 11.2271C13.6345 11.2988 13.7677 11.3773 13.9112 11.4661C13.9249 11.473 13.9419 11.4764 13.959 11.4764C13.9761 11.4764 13.9898 11.473 14.0034 11.4661C14.1503 11.3808 14.2835 11.3022 14.4133 11.2271C14.7617 11.0324 15.1341 10.93 15.4962 10.93C15.5303 10.93 15.5645 10.93 15.5952 10.9334C15.971 10.9539 16.3194 11.0837 16.5722 11.3056C17.0094 11.6847 17.1563 12.3062 16.9787 13.0541C16.8181 13.7405 16.5038 14.4542 16.0461 15.1713C15.684 15.7382 15.3937 16.107 14.9052 16.6192L14.8915 16.6329C14.8437 16.6841 14.6729 16.8549 14.5329 16.9607C14.4099 17.0495 14.2699 17.1144 14.1332 17.1451C14.0922 17.1554 14.0512 17.1588 14.0068 17.1622H14.0034H13.918H13.9112C13.8668 17.1588 13.8258 17.1554 13.7848 17.1451C13.6447 17.1144 13.5047 17.0529 13.3817 16.9607C13.2417 16.8549 13.0743 16.6841 13.0265 16.6329ZM19.2912 21.0518C19.3288 21.0176 19.3527 20.9869 19.3595 20.9528C19.38 20.8845 19.3424 20.8127 19.281 20.6966C19.2741 20.6864 19.2639 20.683 19.257 20.6727C19.1341 20.4781 18.9325 20.4064 18.7412 20.4747L15.1033 21.745C15.0931 21.7484 15.0794 21.7484 15.0692 21.7484C15.0418 21.7519 15.0145 21.7553 14.9906 21.7553C14.7003 21.9363 14.3792 22.0387 14.0307 22.0387H9.47737C9.06746 22.0387 8.72588 21.7075 8.72588 21.2806C8.72588 21.2362 8.74296 21.1986 8.74979 21.1577C8.76003 21.0996 8.76345 21.0415 8.78395 20.9869C8.80103 20.9459 8.83518 20.9118 8.8591 20.8742C8.88642 20.8332 8.90692 20.7854 8.94449 20.7479C9.08113 20.6113 9.269 20.5259 9.47395 20.5259H14.0273C14.1503 20.5259 14.2801 20.4303 14.3621 20.3142C14.4099 20.2493 14.4475 20.1776 14.4475 20.1093V20.1059C14.4475 20.0068 14.4167 19.9112 14.3587 19.8395C14.3108 19.778 14.2459 19.7371 14.1503 19.7336L13.9078 19.7371C13.228 19.7507 11.9095 19.778 10.5705 19.1429C10.3792 19.0507 10.1879 18.9482 9.99658 18.8287C9.98634 18.8184 9.26559 18.436 7.06576 18.354V18.3574H7.06234V22.1821L11.1238 24.1525L11.2878 24.2311C11.5884 24.4018 11.93 24.4838 12.357 24.4838C12.5927 24.4838 12.7942 24.4496 12.9821 24.4018C13.0811 24.3779 13.1836 24.354 13.2656 24.3164C13.2827 24.3062 17.3168 22.2777 18.8813 21.3318C18.9599 21.2874 19.035 21.2396 19.0999 21.1986C19.1375 21.1713 19.158 21.1542 19.1853 21.1338C19.2195 21.1098 19.2605 21.0825 19.281 21.0655C19.2878 21.0552 19.2878 21.0552 19.2912 21.0518ZM4.51409 19.4536C4.91375 19.4536 5.20752 19.1599 5.20752 18.7536C5.20752 18.354 4.91033 18.0569 4.51409 18.0569C4.11443 18.0569 3.82408 18.3506 3.82408 18.7536C3.82408 19.1599 4.11443 19.4536 4.51409 19.4536ZM20.5722 19.918C20.5722 19.9283 20.6132 20 20.6234 20.0102C21.1153 20.9596 20.8557 21.8714 19.9026 22.4792C18.4714 23.391 14.0888 25.5936 13.9112 25.6858C13.45 25.8976 12.9411 26 12.3604 26C11.6601 26 11.0692 25.8497 10.5909 25.5663L7.04868 23.8588C6.95986 24.7604 6.20837 25.4775 5.2895 25.4775H3.77968C2.79932 25.4775 2 24.6682 2 23.6779V17.934C2 16.9437 2.79932 16.1343 3.77968 16.1343H5.2895C5.85995 16.1343 6.35867 16.4178 6.69001 16.831C9.65158 16.8822 10.6524 17.4491 10.8232 17.5583C11.9436 18.2652 13.2143 18.2345 13.8839 18.2242H14.1845C15.0931 18.2345 15.8138 18.9414 15.9368 19.8634L18.2562 19.0438C19.1409 18.7262 20.1213 19.0985 20.5722 19.918ZM23.4791 9.93625C23.8787 9.93625 24.1691 9.64257 24.1691 9.2362C24.1691 8.83324 23.8787 8.53614 23.4791 8.53614C23.0794 8.53614 22.7891 8.82982 22.7891 9.2362C22.7891 9.63574 23.0828 9.93625 23.4791 9.93625ZM20.9308 9.63916V5.81446L16.8728 3.84405L16.7088 3.76209C16.4082 3.59135 16.07 3.50939 15.6396 3.50939C15.4039 3.50939 15.2024 3.54354 15.0145 3.59135C14.9155 3.61525 14.8164 3.63916 14.7344 3.67672C14.7173 3.68697 10.6832 5.71542 9.1187 6.66135C9.04014 6.70916 8.96157 6.75356 8.90009 6.79454C8.8591 6.82185 8.8386 6.83893 8.81127 6.85942C8.78053 6.88332 8.73612 6.91064 8.71563 6.92772C8.71221 6.93113 8.71221 6.93113 8.71221 6.93455C8.67464 6.9687 8.65414 7.00284 8.64389 7.03358C8.6234 7.10188 8.66097 7.17359 8.72246 7.2897C8.72929 7.29994 8.74296 7.29994 8.74979 7.3136C8.87276 7.50825 9.0743 7.57997 9.26217 7.51167L12.9001 6.24132C12.9137 6.23449 12.924 6.23791 12.9342 6.23449C12.9616 6.23108 12.9923 6.22766 13.0128 6.22766C13.3032 6.04667 13.6243 5.94422 13.9727 5.94422H18.526C18.936 5.94422 19.2741 6.27547 19.2775 6.70233C19.2775 6.74673 19.2605 6.78429 19.2536 6.82527C19.2434 6.88332 19.24 6.94138 19.2195 6.99602C19.2024 7.04041 19.1682 7.07114 19.1443 7.10871C19.117 7.14969 19.0965 7.19749 19.0589 7.23506C18.9223 7.37165 18.7378 7.45703 18.5295 7.45703H13.9795H13.9761C13.8565 7.45703 13.7267 7.55265 13.6413 7.66875C13.5935 7.73364 13.5559 7.80535 13.5559 7.87706V7.88048C13.5559 7.97951 13.5867 8.07854 13.6447 8.14684C13.6926 8.20831 13.7575 8.24929 13.8497 8.2527L14.0922 8.24929H14.0956C14.7754 8.23563 16.0939 8.20489 17.433 8.84348C17.6243 8.93568 17.8155 9.03813 18.0068 9.15765C18.0068 9.17814 18.7276 9.56061 20.9308 9.63916ZM24.2169 2.52248C25.1973 2.52248 26 3.33182 26 4.32214V10.066C26 11.0563 25.2007 11.8657 24.2169 11.8657H22.7071C22.1366 11.8657 21.6379 11.5822 21.3066 11.169C18.345 11.1178 17.3442 10.5509 17.1768 10.4417C16.0564 9.73477 14.7857 9.76551 14.1161 9.77575H13.8155C12.9035 9.76551 12.1862 9.05862 12.0632 8.1366L9.74381 8.95617C8.85226 9.27035 7.8719 8.89812 7.42101 8.07854C7.42101 8.0683 7.38002 7.99658 7.36977 7.98634C6.8813 7.03699 7.14091 6.12521 8.09052 5.52077C9.52178 4.61241 13.9044 2.40637 14.082 2.31417C14.5431 2.10245 15.0521 2 15.6328 2C16.333 2 16.924 2.15367 17.4056 2.43711L20.9479 4.14456C21.0367 3.24303 21.7882 2.5259 22.7071 2.5259H24.2169V2.52248Z" fill="#86888C"/>
</svg>
