<svg width="24" height="24" viewBox="0 0 24 24" fill="none" xmlns="http://www.w3.org/2000/svg">
<path d="M8.9758 18.6396C8.46605 18.6396 8.05881 18.7848 7.76264 19.0696C7.45224 19.3686 7.29561 19.7873 7.29561 20.3198C7.29561 20.8523 7.45224 21.271 7.76264 21.57C8.05881 21.8548 8.46889 22 8.9758 22C9.48271 22 9.89279 21.8548 10.189 21.57C10.4994 21.271 10.656 20.8523 10.656 20.3198C10.656 19.7873 10.4994 19.3686 10.189 19.0696C9.89279 18.7848 9.48555 18.6396 8.9758 18.6396ZM14.529 18.6396C14.0192 18.6396 13.612 18.7848 13.3158 19.0696C13.0054 19.3686 12.8488 19.7873 12.8488 20.3198C12.8488 20.8523 13.0054 21.271 13.3158 21.57C13.612 21.8548 14.0221 22 14.529 22C15.0359 22 15.446 21.8548 15.7421 21.57C16.0497 21.271 16.2092 20.8523 16.2092 20.3198C16.2092 19.7873 16.0525 19.3686 15.7421 19.0696C15.446 18.7848 15.0387 18.6396 14.529 18.6396ZM20.2359 6.91813C20.1277 6.77858 19.9626 6.69885 19.786 6.69885H16.3288V5.48854C16.3288 5.00441 15.9016 4.62851 15.0558 4.37505C14.3923 4.17571 13.5152 4.06464 12.5925 4.06464C11.6698 4.06464 10.7927 4.17571 10.1292 4.37505C9.28336 4.62851 8.85619 5.00441 8.85619 5.48854V6.69885H5.54707C5.32779 5.42304 5.15123 4.41207 5.09997 4.13584C4.87784 2.89705 3.71025 2 2.31768 2H0.945045C0.631789 2 0.375488 2.2563 0.375488 2.56956C0.375488 2.88281 0.631789 3.13911 0.945045 3.13911H2.32053C3.14638 3.13911 3.85833 3.65456 3.98078 4.33518C4.13457 5.19522 5.5015 13.1149 5.64389 14.0205C5.80906 15.0628 6.19636 15.8801 6.80009 16.4497C7.37535 16.9936 8.13286 17.2784 8.98434 17.2784H15.3434C16.1864 17.2784 16.9012 16.9907 17.4707 16.424C18.009 15.8858 18.402 15.1169 18.6725 14.0775C18.7921 13.6133 19.188 12.0271 19.5696 10.4893C19.8857 9.22483 20.1818 8.02876 20.3385 7.41079C20.3812 7.23708 20.3442 7.05767 20.2359 6.91813ZM10.5449 5.14396C11.1088 4.99872 11.835 4.91898 12.5896 4.91898C13.3443 4.91898 14.0705 4.99872 14.6344 5.14396C15.1555 5.2778 15.3662 5.42019 15.4431 5.48854L15.4403 5.49139L15.4374 5.49423L15.4289 5.49993L15.426 5.50278C15.4203 5.50847 15.4118 5.51417 15.4033 5.51986L15.4004 5.52271L15.389 5.53125L15.3862 5.5341L15.3748 5.54265L15.3691 5.54549L15.3577 5.55404L15.3548 5.55688C15.3434 5.56258 15.3321 5.57112 15.3207 5.57967L15.315 5.58251L15.3007 5.59106L15.2922 5.59391L15.278 5.60245L15.2694 5.60814L15.2523 5.61669L15.2466 5.61954L15.2238 5.63093L15.2181 5.63377L15.1982 5.64517L15.1897 5.65086L15.1726 5.6594L15.1612 5.6651L15.1441 5.66225L15.1327 5.66795L15.1099 5.67649L15.1014 5.67934L15.0672 5.69358L15.0558 5.69643L15.0302 5.70497L15.016 5.71066L14.9932 5.71921L14.9789 5.7249L14.9533 5.73345L14.9391 5.73914L14.9077 5.75053L14.8963 5.75338L14.8536 5.76762L14.8394 5.77332L14.8081 5.78186L14.791 5.78756L14.7597 5.7961L14.7397 5.80179L14.7055 5.81034L14.6885 5.81603L14.6344 5.83027C14.0705 5.97551 13.3443 6.05525 12.5896 6.05525C11.835 6.05525 11.1088 5.97551 10.5449 5.83027L10.4908 5.81603L10.4737 5.81034L10.4396 5.80179L10.4196 5.7961L10.3883 5.78756L10.3712 5.78186L10.3399 5.77332L10.3257 5.76762L10.2829 5.75338L10.2715 5.75053L10.2402 5.73914L10.226 5.73345L10.2003 5.7249L10.1861 5.71921L10.1633 5.71066L10.1491 5.70497L10.1235 5.69643L10.1121 5.69358L10.0779 5.67934L10.0694 5.67649L10.0466 5.66795L10.0352 5.66225L10.0181 5.65371L10.0067 5.64801L9.98961 5.63947L9.98107 5.63377L9.96113 5.62523L9.95544 5.62238L9.92981 5.61099L9.92411 5.60814L9.90703 5.5996L9.89848 5.59391L9.88424 5.58536L9.8757 5.58251L9.86146 5.57397L9.85577 5.57112C9.84438 5.56258 9.83014 5.55688 9.82159 5.54834L9.81875 5.54549L9.80735 5.53695L9.80166 5.5341L9.79027 5.52556L9.78742 5.52271L9.77603 5.51417L9.77318 5.51132C9.76464 5.50562 9.75894 5.49993 9.7504 5.49423L9.74755 5.49139L9.73901 5.48569L9.73616 5.48284L9.73331 5.47999C9.81305 5.41734 10.0238 5.2778 10.5449 5.14396ZM15.4744 13.4054C15.4374 13.4481 15.258 13.619 14.6344 13.7813C14.0705 13.9265 13.3443 14.0063 12.5896 14.0063C11.835 14.0063 11.1088 13.9265 10.5449 13.7813C9.92127 13.6218 9.7447 13.4509 9.70483 13.4054V11.7508L9.71623 11.7565C9.73901 11.7679 9.76464 11.7764 9.78742 11.785L9.8102 11.7935C9.83868 11.8049 9.87001 11.8163 9.90133 11.8277L9.91272 11.8306C9.9412 11.8419 9.96968 11.8505 9.99816 11.859L10.0238 11.8676C10.058 11.879 10.0893 11.8904 10.1235 11.8989C10.787 12.0982 11.6641 12.2093 12.5868 12.2093C13.5095 12.2093 14.3894 12.1011 15.053 11.9018C15.0871 11.8904 15.1213 11.8818 15.1526 11.8704L15.1783 11.8619C15.2068 11.8533 15.2352 11.8419 15.2637 11.8334L15.2751 11.8306C15.3064 11.8192 15.3349 11.8078 15.3662 11.7964L15.389 11.7878C15.4146 11.7793 15.4374 11.7679 15.4602 11.7594L15.4716 11.7537L15.4744 13.4054ZM15.4744 10.7569L15.4688 10.7626L15.4659 10.7655V10.7683L15.4602 10.774L15.4574 10.7769L15.4517 10.7826L15.4488 10.7854L15.4431 10.7911L15.4403 10.794L15.4346 10.7997L15.4317 10.8025L15.426 10.8082L15.4203 10.811L15.4118 10.8167L15.4061 10.8196L15.3976 10.8253L15.3919 10.8281L15.3833 10.8338L15.3776 10.8395L15.3691 10.8452L15.3605 10.8509L15.352 10.8566L15.3434 10.8623L15.3321 10.868L15.3235 10.8737L15.3121 10.8794L15.3036 10.8851L15.2922 10.8908L15.2808 10.8965L15.2694 10.9022L15.258 10.9079L15.2438 10.9136L15.2295 10.9193L15.2153 10.925L15.2011 10.9307L15.1868 10.9364L15.1726 10.9449L15.1583 10.9506L15.1413 10.9591L15.1242 10.9648L15.1071 10.9734L15.09 10.9791L15.0701 10.9876L15.053 10.9933L15.033 11.0019L15.0131 11.0075L14.9903 11.0161L14.9704 11.0246L14.9476 11.0332L14.9277 11.0417L14.9049 11.0503L14.885 11.056L14.8593 11.0645L14.8308 11.073L14.8024 11.0816L14.7767 11.0901L14.7483 11.0987L14.7141 11.1072L14.6913 11.1129L14.6344 11.1272C14.0705 11.2724 13.3443 11.3521 12.5896 11.3521C11.835 11.3521 11.1088 11.2724 10.5449 11.1272L10.488 11.1129L10.4652 11.1072L10.431 11.0987L10.4025 11.0901L10.3769 11.0816L10.3484 11.073L10.3257 11.0674L10.3 11.0588L10.2801 11.0531L10.2573 11.0446L10.2374 11.036L10.2146 11.0275L10.1947 11.0189L10.1719 11.0104L10.1519 11.0047L10.132 10.9962L10.1149 10.9905L10.095 10.9819L10.0779 10.9762L10.0608 10.9677L10.0437 10.962L10.0266 10.9534L10.0124 10.9477L9.99816 10.9392L9.98392 10.9335L9.96968 10.9278L9.95544 10.9221L9.9412 10.9164L9.92696 10.9107L9.91557 10.905L9.90418 10.8993L9.89279 10.8936L9.8814 10.8879L9.87001 10.8822L9.85861 10.8765L9.85007 10.8709L9.83868 10.8652L9.83014 10.8595L9.81875 10.8538L9.8102 10.8481L9.80166 10.8424L9.79596 10.8367L9.78742 10.831L9.78172 10.8281L9.77318 10.8224L9.76749 10.8196L9.75894 10.8139L9.75609 10.811L9.7504 10.8054L9.74755 10.8025L9.74186 10.7968L9.73901 10.794L9.73331 10.7883L9.73046 10.7854L9.72477 10.7797L9.72192 10.7769L9.71623 10.7712V10.7683L9.71338 10.7655L9.71053 10.7626L9.70768 10.7598V9.10238L9.71907 9.10807C9.74186 9.11946 9.76749 9.12801 9.79027 9.13655L9.81305 9.14509C9.84153 9.15649 9.87285 9.16788 9.90418 9.17927L9.91557 9.18212C9.94405 9.19351 9.97253 9.20205 10.001 9.21059L10.0266 9.21914C10.0608 9.23053 10.0921 9.24192 10.1263 9.25046C10.7898 9.44981 11.667 9.56087 12.5925 9.56087C13.518 9.56087 14.3894 9.45266 15.053 9.25331C15.0871 9.24192 15.1213 9.23338 15.1526 9.22199L15.1783 9.21344C15.2068 9.2049 15.2352 9.19351 15.2637 9.18496L15.2751 9.18212C15.3064 9.17073 15.3349 9.15933 15.3662 9.14794L15.389 9.1394C15.4146 9.13086 15.4374 9.11946 15.4602 9.11092L15.4716 9.10523L15.4744 10.7569ZM15.4744 8.1085L15.4688 8.1142L15.4659 8.11704V8.11989L15.4602 8.12559L15.4574 8.12844L15.4517 8.13413L15.4488 8.13698L15.4431 8.14267L15.4403 8.14552L15.4346 8.15122L15.4317 8.15407L15.426 8.15976L15.4203 8.16261L15.4118 8.1683L15.4061 8.17115L15.3976 8.17685L15.3919 8.1797L15.3833 8.18539L15.3776 8.19109L15.3691 8.19678L15.3605 8.20248L15.352 8.20817L15.3434 8.21387L15.3321 8.21956L15.3235 8.22526L15.3121 8.23096L15.3036 8.23665L15.2922 8.24235L15.2808 8.24804L15.2694 8.25374L15.258 8.25943L15.2438 8.26513L15.2295 8.27082L15.2153 8.27652L15.2011 8.28222L15.1868 8.28791L15.1726 8.29645L15.1583 8.30215L15.1413 8.31069L15.1242 8.31639L15.1071 8.32493L15.09 8.33063L15.0701 8.33917L15.053 8.34487L15.033 8.35341L15.0131 8.35911L14.9903 8.36765L14.9704 8.37619L14.9476 8.38474L14.9277 8.39328L14.9049 8.40182L14.885 8.40752L14.8593 8.41606L14.8365 8.42176L14.8081 8.4303L14.7824 8.43884L14.754 8.44739L14.7198 8.45593L14.697 8.46163L14.64 8.47587C14.0762 8.6211 13.35 8.70084 12.5953 8.70084C11.8407 8.70084 11.1145 8.6211 10.5506 8.47587L10.4937 8.46163L10.4709 8.45593L10.4367 8.44739L10.4082 8.43884L10.3826 8.4303L10.3541 8.42176L10.3313 8.41606L10.3057 8.40752L10.2858 8.40182L10.263 8.39328L10.2431 8.38474L10.2203 8.37619L10.2003 8.36765L10.1776 8.35911L10.1576 8.35341L10.1377 8.34487L10.1206 8.33917L10.1007 8.33063L10.0836 8.32493L10.0665 8.31639L10.0494 8.31069L10.0323 8.30215L10.0181 8.29645L10.0039 8.28791L9.98961 8.28222L9.97537 8.27652L9.96113 8.27082L9.9469 8.26513L9.93266 8.25943L9.92127 8.25374L9.90987 8.24804L9.89848 8.24235L9.88709 8.23665L9.8757 8.23096L9.86431 8.22526L9.85577 8.21956L9.84438 8.21387L9.83583 8.20817L9.82444 8.20248L9.8159 8.19678L9.80735 8.19109L9.80166 8.18539L9.79312 8.1797L9.78742 8.17685L9.77888 8.17115L9.77318 8.1683L9.76464 8.16261L9.76179 8.15976L9.75609 8.15407L9.75325 8.15122L9.74755 8.14552L9.7447 8.14267L9.73901 8.13698L9.73616 8.13413L9.73046 8.12844L9.72762 8.12559L9.72192 8.11989V8.11704L9.71907 8.1142L9.71623 8.11135L9.71338 8.1085V6.45109L9.72477 6.45678C9.74755 6.46533 9.77318 6.47672 9.79596 6.48526L9.81875 6.49381C9.84722 6.5052 9.87855 6.51659 9.90987 6.52798L9.92127 6.53083C9.94974 6.54222 9.97822 6.55076 10.0067 6.55931L10.0323 6.56785C10.0665 6.57924 10.0978 6.59063 10.132 6.59917C10.7955 6.79852 11.6727 6.90958 12.5982 6.90958C13.5237 6.90958 14.398 6.79852 15.0615 6.59917C15.0957 6.58778 15.1299 6.57924 15.1612 6.56785L15.1868 6.55931C15.2153 6.55076 15.2438 6.53937 15.2723 6.53083L15.2836 6.52798C15.315 6.51659 15.3434 6.5052 15.3748 6.49381L15.3976 6.48526C15.4232 6.47672 15.446 6.46533 15.4688 6.45678L15.4801 6.45109L15.4744 8.1085Z" fill="#86888C"/>
</svg>
