<svg width="24" height="24" viewBox="0 0 24 24" fill="none" xmlns="http://www.w3.org/2000/svg">
<path d="M15.0879 17.5212H8.75112C7.90301 17.5212 7.15133 17.2335 6.57552 16.6922C5.97702 16.1252 5.58842 15.3076 5.4239 14.262C5.28207 13.356 3.92055 5.43006 3.76738 4.57251C3.64541 3.88875 2.93628 3.37593 2.1137 3.37593H0.7465C0.434485 3.37593 0.179199 3.11952 0.179199 2.80613C0.179199 2.49274 0.434485 2.23633 0.7465 2.23633H2.11653C3.50075 2.23633 4.66655 3.13376 4.8878 4.37308C5.04097 5.23348 6.40817 13.1765 6.54999 14.0853C6.6748 14.8745 6.94427 15.4699 7.3584 15.8631C7.72147 16.2078 8.19233 16.3845 8.75396 16.3845H15.0879C15.78 16.3845 16.7614 16.1423 17.3032 14.034C17.4223 13.5754 17.8138 11.9885 18.1939 10.4557C18.4123 9.57251 18.6222 8.72351 18.7838 8.08248H16.6848C16.3728 8.08248 16.1175 7.82607 16.1175 7.51268C16.1175 7.19929 16.3728 6.94288 16.6848 6.94288H19.5128C19.8248 6.94288 20.0801 7.19929 20.0801 7.51268C20.0801 7.56111 20.0745 7.6067 20.0631 7.65228C19.9071 8.27336 19.6121 9.4671 19.2973 10.7321C18.9172 12.2705 18.5229 13.8603 18.4038 14.3218C18.1343 15.3645 17.7428 16.1309 17.2067 16.6694C16.6394 17.2335 15.9275 17.5212 15.0879 17.5212Z" fill="#86888C"/>
<path d="M8.40535 8.0771H4.96183C4.64982 8.0771 4.39453 7.82069 4.39453 7.5073C4.39453 7.19391 4.64982 6.9375 4.96183 6.9375H8.40535C8.71737 6.9375 8.97265 7.19391 8.97265 7.5073C8.97265 7.82069 8.71737 8.0771 8.40535 8.0771ZM7.64517 20.5557C7.64517 19.7979 8.05079 19.4446 8.7514 19.4446C9.45202 19.4446 9.85764 19.7979 9.85764 20.5557C9.85764 21.3136 9.45202 21.6668 8.7514 21.6668C8.05079 21.6668 7.64517 21.3136 7.64517 20.5557Z" fill="#86888C"/>
<path d="M8.75069 22.2368C8.24295 22.2368 7.83733 22.0915 7.54234 21.8066C7.23316 21.5075 7.07715 21.0887 7.07715 20.5559C7.07715 20.0231 7.23316 19.6043 7.54234 19.3052C7.83733 19.0203 8.24579 18.875 8.75069 18.875C9.25558 18.875 9.66404 19.0203 9.95904 19.3052C10.2682 19.6043 10.4242 20.0231 10.4242 20.5559C10.4242 21.0887 10.2682 21.5075 9.95904 21.8066C9.66688 22.0915 9.25842 22.2368 8.75069 22.2368ZM8.75069 20.0146C8.33656 20.0146 8.21175 20.14 8.21175 20.5559C8.21175 20.9719 8.33656 21.0972 8.75069 21.0972C9.16482 21.0972 9.28962 20.9719 9.28962 20.5559C9.28962 20.14 9.16482 20.0146 8.75069 20.0146ZM13.1756 20.5559C13.1756 19.7981 13.5813 19.4448 14.2819 19.4448C14.9825 19.4448 15.3881 19.7981 15.3881 20.5559C15.3881 21.3137 14.9825 21.667 14.2819 21.667C13.5813 21.667 13.1756 21.3137 13.1756 20.5559Z" fill="#86888C"/>
<path d="M14.2826 22.2359C13.7748 22.2359 13.3692 22.0906 13.0742 21.8057C12.765 21.5065 12.609 21.0877 12.609 20.555C12.609 20.0222 12.765 19.6034 13.0742 19.3043C13.3692 19.0194 13.7777 18.8741 14.2826 18.8741C14.7875 18.8741 15.1959 19.0194 15.4909 19.3043C15.7973 19.6034 15.9561 20.0222 15.9561 20.555C15.9561 21.0877 15.8001 21.5065 15.4909 21.8057C15.1988 22.0906 14.7903 22.2359 14.2826 22.2359ZM14.2826 20.0137C13.8684 20.0137 13.7436 20.139 13.7436 20.555C13.7436 20.9709 13.8684 21.0963 14.2826 21.0963C14.6967 21.0963 14.8215 20.9709 14.8215 20.555C14.8215 20.139 14.6967 20.0137 14.2826 20.0137ZM15.3831 14.1874H9.29882C8.60671 14.1874 8.1784 13.7572 8.1784 13.0621V9.74301H7.08634C6.77433 9.74301 6.51904 9.4866 6.51904 9.17321C6.51904 9.02791 6.57577 8.88546 6.67505 8.78004L11.9368 3.22449C12.0446 3.11053 12.1921 3.04785 12.3481 3.04785C12.5041 3.04785 12.6516 3.11338 12.7594 3.22449L13.7096 4.23019V4.17321C13.7096 3.85982 13.9649 3.60341 14.2769 3.60341H15.9362C16.2483 3.60341 16.5035 3.85982 16.5035 4.17321V7.18745L18.0069 8.78004C18.2225 9.00796 18.214 9.36979 17.987 9.58631C17.8821 9.68603 17.7431 9.74301 17.5956 9.74301H16.5035V13.0621C16.5035 13.7544 16.0724 14.1874 15.3831 14.1874ZM9.313 13.0478H15.3689V9.17321C15.3689 8.85982 15.6242 8.60341 15.9362 8.60341H16.2766L15.525 7.80853C15.4257 7.70312 15.3689 7.56352 15.3689 7.41537V4.74301H14.8442V5.66039C14.8442 5.97378 14.5889 6.23019 14.2769 6.23019C14.1209 6.23019 13.9734 6.16466 13.8656 6.05355L12.3481 4.44671L8.40816 8.60625H8.7457C9.05772 8.60625 9.313 8.86266 9.313 9.17605V13.0478Z" fill="#86888C"/>
<path d="M4.97266 7.82057C5.11448 7.79208 7.83753 7.87755 7.83753 7.87755L7.27023 8.98866L8.60338 9.10262L8.71684 12.8348L8.80194 13.4616L14.9855 13.604L15.8365 13.4616L16.035 12.0371L16.1769 9.1596L17.0845 8.90319L16.3187 7.4502L19.2686 7.53567L18.3042 12.7208L16.9143 16.2821L14.5033 16.9944C14.5033 16.9944 10.9293 17.0513 10.8159 17.0513C10.7024 17.0513 7.95099 16.8519 7.95099 16.8519L6.53273 15.9117L5.48323 11.4673L4.97266 7.82057Z" fill="#86888C"/>
</svg>
