<svg width="20" height="20" viewBox="0 0 20 20" fill="none" xmlns="http://www.w3.org/2000/svg">
<path d="M8.84403 15.7912C9.09222 16.0302 9.21745 16.3649 9.21745 16.7906C9.21745 17.2163 9.09222 17.551 8.84403 17.79C8.60723 18.0177 8.27935 18.1338 7.87406 18.1338C7.46876 18.1338 7.14089 18.0177 6.90408 17.79C6.6559 17.551 6.53067 17.2163 6.53067 16.7906C6.53067 16.3649 6.6559 16.0302 6.90408 15.7912C7.14089 15.5635 7.46876 15.4474 7.87406 15.4474C8.27935 15.4474 8.60723 15.5635 8.84403 15.7912ZM12.3141 15.4474C11.9065 15.4474 11.5809 15.5635 11.3441 15.7912C11.0959 16.0302 10.9707 16.3649 10.9707 16.7906C10.9707 17.2163 11.0959 17.551 11.3441 17.79C11.5809 18.0177 11.9088 18.1338 12.3141 18.1338C12.7194 18.1338 13.0472 18.0177 13.284 17.79C13.53 17.551 13.6575 17.2163 13.6575 16.7906C13.6575 16.3649 13.5322 16.0302 13.284 15.7912C13.0472 15.5635 12.7216 15.4474 12.3141 15.4474ZM11.1938 2.2203L11.2007 2.22485L11.1938 2.2203ZM11.0094 2.14745H11.0185H11.0094ZM11.0777 2.16111L11.0868 2.16338L11.0777 2.16111ZM11.1688 2.20209L11.1756 2.20664L11.1688 2.20209ZM11.1164 2.17249L11.1096 2.17021L11.1164 2.17249ZM11.1437 2.18615L11.1164 2.17249C11.1232 2.17704 11.1323 2.1816 11.1437 2.18615ZM11.1073 2.17021L11.0868 2.16338L11.1073 2.17021ZM11.0504 2.15428L11.0777 2.16111C11.0686 2.15656 11.0595 2.15428 11.0504 2.15428ZM11.1437 2.18615C11.1528 2.1907 11.1597 2.19526 11.1688 2.20209C11.1597 2.19753 11.1528 2.1907 11.1437 2.18615ZM11.0094 2.14745C11.0026 2.14745 10.9935 2.14745 10.9866 2.14517C10.9957 2.14745 11.0026 2.14745 11.0094 2.14745ZM11.0481 2.152C11.039 2.14973 11.0276 2.14973 11.0185 2.14745C11.0276 2.14973 11.039 2.152 11.0481 2.152ZM11.1938 2.2203C11.187 2.21575 11.1824 2.21119 11.1756 2.20664C11.1824 2.21119 11.187 2.21575 11.1938 2.2203ZM13.6893 4.71774L13.6939 4.72457L13.6893 4.71774ZM13.7121 4.74961L13.7076 4.74278L13.7121 4.74961ZM13.7417 4.80197L13.744 4.8088L13.7417 4.80197ZM13.7554 4.8384L13.7531 4.82929L13.7554 4.8384ZM13.7668 4.9067V4.89759V4.9067ZM12.4484 6.35234C12.4484 6.5413 12.2959 6.69383 12.1069 6.69383H8.55486C8.36587 6.69383 8.21332 6.5413 8.21332 6.35234C8.21332 6.16339 8.36587 6.01085 8.55486 6.01085H12.1069C12.2959 6.01085 12.4484 6.16339 12.4484 6.35234C12.4507 6.35007 12.4507 6.35234 12.4484 6.35234ZM12.4484 7.90499C12.4484 8.09395 12.2959 8.24648 12.1069 8.24648H8.55486C8.36587 8.24648 8.21332 8.09395 8.21332 7.90499C8.21332 7.71603 8.36587 7.5635 8.55486 7.5635H12.1069C12.2959 7.5635 12.4484 7.71603 12.4484 7.90499C12.4507 7.90499 12.4507 7.90499 12.4484 7.90499ZM12.4484 9.45991C12.4484 9.64887 12.2959 9.8014 12.1069 9.8014H8.55486C8.36587 9.8014 8.21332 9.64887 8.21332 9.45991C8.21332 9.27095 8.36587 9.11842 8.55486 9.11842H12.1069C12.2959 9.11842 12.4484 9.27095 12.4484 9.45991C12.4507 9.45764 12.4507 9.45991 12.4484 9.45991ZM13.769 4.92946V4.9067V4.92946ZM13.7463 4.81108L13.7531 4.83157C13.7508 4.82474 13.7485 4.81563 13.7463 4.81108ZM13.769 4.89759C13.769 4.88848 13.7668 4.8771 13.7645 4.868C13.7645 4.87938 13.7668 4.88848 13.769 4.89759ZM13.6711 4.6927C13.678 4.69953 13.6848 4.70863 13.6916 4.71546C13.6825 4.70863 13.6757 4.7018 13.6711 4.6927ZM13.744 4.80197L13.7303 4.77465C13.7349 4.78376 13.7372 4.79287 13.744 4.80197ZM13.7577 4.8384L13.7645 4.86572C13.7599 4.85889 13.7577 4.84978 13.7577 4.8384ZM13.6985 4.72229C13.703 4.72912 13.7076 4.73368 13.7121 4.74051C13.7053 4.73595 13.7007 4.72912 13.6985 4.72229ZM13.7303 4.77238C13.7258 4.76327 13.7212 4.75644 13.7167 4.74734C13.7189 4.75644 13.7235 4.76555 13.7303 4.77238ZM11.2007 2.22485C11.2075 2.23168 11.2166 2.23851 11.2234 2.24534C11.2166 2.23851 11.2075 2.23168 11.2007 2.22485ZM16.9681 6.46845C16.8429 6.96247 16.6061 7.9141 16.3556 8.92263C16.0482 10.1543 15.7318 11.4269 15.6361 11.798C15.4198 12.6312 15.1079 13.2436 14.6753 13.6762C14.2199 14.1292 13.6484 14.3592 12.9744 14.3592H7.87861C7.19781 14.3592 6.59442 14.1292 6.1322 13.6967C5.65177 13.2436 5.33983 12.5903 5.20777 11.7547C5.10075 11.0626 4.02604 4.82702 3.88032 4.00061C3.78241 3.45422 3.21318 3.04443 2.55287 3.04443H1.45539C1.20492 3.04443 1 2.83954 1 2.58911C1 2.33868 1.20492 2.13379 1.45539 2.13379H2.55059C3.66173 2.13379 4.59755 2.85092 4.77515 3.84125C4.82297 4.10306 4.96186 4.90442 5.13263 5.90158H7.09079V2.78262C7.09079 2.3956 7.34126 2.14517 7.73061 2.14517H10.9866C10.9935 2.14517 11.0026 2.14517 11.0094 2.14745H11.0185C11.0276 2.14745 11.039 2.14973 11.0481 2.152L11.0754 2.15883L11.0845 2.16111L11.105 2.16794L11.1119 2.17021L11.1392 2.18387H11.1415C11.1506 2.18843 11.1574 2.19298 11.1665 2.19981L11.1733 2.20436C11.1802 2.20892 11.1847 2.21347 11.1915 2.21802L11.1984 2.22258C11.2052 2.22941 11.2143 2.23624 11.2211 2.24307L13.6689 4.6927C13.6757 4.69953 13.6825 4.70863 13.6893 4.71546L13.6939 4.72229C13.6985 4.72912 13.703 4.73368 13.7076 4.74051L13.7121 4.74734C13.7167 4.75416 13.7212 4.76327 13.7258 4.77238V4.77465L13.7394 4.80197L13.7417 4.8088L13.7485 4.82929L13.7508 4.8384L13.7577 4.86572V4.868C13.7599 4.8771 13.7622 4.88848 13.7622 4.89759V5.8993H16.5173C16.7678 5.8993 16.9727 6.10419 16.9727 6.35462C16.9727 6.39332 16.9681 6.42975 16.959 6.46617L16.9681 6.46845ZM13.086 5.27778H11.8678C11.3304 5.27551 11.0435 5.02963 10.8978 4.82474C10.7271 4.58114 10.6428 4.25331 10.6405 3.82076V2.83043H7.77387V10.8896H13.0882C13.086 10.4024 13.086 7.28348 13.086 5.27778ZM12.6032 4.5948L11.3236 3.31307V3.81848C11.3259 4.53333 11.5832 4.5948 11.8701 4.5948H12.6032Z" fill="#86888C"/>
</svg>
