<svg width="28" height="28" viewBox="0 0 28 28" fill="none" xmlns="http://www.w3.org/2000/svg">
<path d="M11.766 22.6198C12.1383 22.9784 12.3262 23.4804 12.3262 24.119C12.3262 24.7576 12.1383 25.2596 11.766 25.6181C11.4108 25.9596 10.919 26.1338 10.3111 26.1338C9.70315 26.1338 9.21133 25.9596 8.85613 25.6181C8.48385 25.2596 8.296 24.7576 8.296 24.119C8.296 23.4804 8.48385 22.9784 8.85613 22.6198C9.21133 22.2784 9.70315 22.1042 10.3111 22.1042C10.919 22.1042 11.4108 22.2784 11.766 22.6198ZM16.9711 22.1042C16.3598 22.1042 15.8714 22.2784 15.5162 22.6198C15.1439 22.9784 14.956 23.4804 14.956 24.119C14.956 24.7576 15.1439 25.2596 15.5162 25.6181C15.8714 25.9596 16.3632 26.1338 16.9711 26.1338C17.5791 26.1338 18.0709 25.9596 18.4261 25.6181C18.7949 25.2596 18.9862 24.7576 18.9862 24.119C18.9862 23.4804 18.7983 22.9784 18.4261 22.6198C18.0709 22.2784 17.5825 22.1042 16.9711 22.1042ZM15.2907 2.26356L15.301 2.27039L15.2907 2.26356ZM15.0141 2.15428H15.0278H15.0141ZM15.1166 2.17477L15.1302 2.17818L15.1166 2.17477ZM15.2532 2.23624L15.2634 2.24307L15.2532 2.23624ZM15.1746 2.19184L15.1644 2.18843L15.1746 2.19184ZM15.2156 2.21233L15.1746 2.19184C15.1849 2.19867 15.1985 2.2055 15.2156 2.21233ZM15.161 2.18843L15.1302 2.17818L15.161 2.18843ZM15.0756 2.16452L15.1166 2.17477C15.1029 2.16794 15.0892 2.16452 15.0756 2.16452ZM15.2156 2.21233C15.2293 2.21916 15.2395 2.22599 15.2532 2.23624C15.2395 2.22941 15.2293 2.21916 15.2156 2.21233ZM15.0141 2.15428C15.0038 2.15428 14.9902 2.15428 14.9799 2.15086C14.9936 2.15428 15.0038 2.15428 15.0141 2.15428ZM15.0722 2.16111C15.0585 2.15769 15.0414 2.15769 15.0278 2.15428C15.0414 2.15769 15.0585 2.16111 15.0722 2.16111ZM15.2907 2.26356C15.2805 2.25673 15.2737 2.2499 15.2634 2.24307C15.2737 2.2499 15.2805 2.25673 15.2907 2.26356ZM19.034 6.00971L19.0408 6.01996L19.034 6.00971ZM19.0682 6.05752L19.0613 6.04728L19.0682 6.05752ZM19.1126 6.13607L19.116 6.14631L19.1126 6.13607ZM19.1331 6.1907L19.1296 6.17704L19.1331 6.1907ZM19.1501 6.29315V6.27949V6.29315ZM17.1726 8.46162C17.1726 8.74506 16.9438 8.97386 16.6603 8.97386H11.3323C11.0488 8.97386 10.82 8.74506 10.82 8.46162C10.82 8.17818 11.0488 7.94938 11.3323 7.94938H16.6603C16.9438 7.94938 17.1726 8.17818 17.1726 8.46162C17.176 8.45821 17.176 8.46162 17.1726 8.46162ZM17.1726 10.7906C17.1726 11.074 16.9438 11.3028 16.6603 11.3028H11.3323C11.0488 11.3028 10.82 11.074 10.82 10.7906C10.82 10.5072 11.0488 10.2784 11.3323 10.2784H16.6603C16.9438 10.2784 17.1726 10.5072 17.1726 10.7906C17.176 10.7906 17.176 10.7906 17.1726 10.7906ZM17.1726 13.123C17.1726 13.4064 16.9438 13.6352 16.6603 13.6352H11.3323C11.0488 13.6352 10.82 13.4064 10.82 13.123C10.82 12.8395 11.0488 12.6107 11.3323 12.6107H16.6603C16.9438 12.6107 17.1726 12.8395 17.1726 13.123C17.176 13.1196 17.176 13.123 17.1726 13.123ZM19.1536 6.3273V6.29315V6.3273ZM19.1194 6.14973L19.1296 6.18046C19.1262 6.17021 19.1228 6.15656 19.1194 6.14973ZM19.1536 6.27949C19.1536 6.26583 19.1501 6.24876 19.1467 6.2351C19.1467 6.25217 19.1501 6.26583 19.1536 6.27949ZM19.0067 5.97215C19.0169 5.98239 19.0272 5.99605 19.0374 6.0063C19.0238 5.99605 19.0135 5.98581 19.0067 5.97215ZM19.116 6.13607L19.0955 6.09509C19.1023 6.10875 19.1057 6.12241 19.116 6.13607ZM19.1365 6.1907L19.1467 6.23168C19.1399 6.22144 19.1365 6.20778 19.1365 6.1907ZM19.0477 6.01654C19.0545 6.02679 19.0613 6.03362 19.0682 6.04386C19.0579 6.03703 19.0511 6.02679 19.0477 6.01654ZM19.0955 6.09167C19.0887 6.07801 19.0818 6.06777 19.075 6.05411C19.0784 6.06777 19.0852 6.08143 19.0955 6.09167ZM15.301 2.27039C15.3112 2.28063 15.3249 2.29088 15.3351 2.30112C15.3249 2.29088 15.3112 2.28063 15.301 2.27039ZM23.9522 8.63578C23.7643 9.37682 23.4091 10.8043 23.0334 12.3171C22.5724 14.1645 22.0976 16.0735 21.9542 16.6301C21.6297 17.8799 21.1618 18.7986 20.5129 19.4474C19.8298 20.127 18.9725 20.4719 17.9616 20.4719H10.3179C9.29671 20.4719 8.39163 20.127 7.69831 19.4781C6.97766 18.7986 6.50975 17.8185 6.31166 16.5652C6.15113 15.5271 4.53906 6.17363 4.32048 4.93402C4.17362 4.11444 3.31977 3.49975 2.3293 3.49975H0.68308C0.307386 3.49975 0 3.19241 0 2.81677C0 2.44113 0.307386 2.13379 0.68308 2.13379H2.32589C3.9926 2.13379 5.39633 3.20949 5.66273 4.69497C5.73445 5.08769 5.94279 6.28974 6.19895 7.78547H9.13619V3.10704C9.13619 2.5265 9.51188 2.15086 10.0959 2.15086H14.9799C14.9902 2.15086 15.0038 2.15086 15.0141 2.15428H15.0278C15.0414 2.15428 15.0585 2.15769 15.0722 2.16111L15.1131 2.17135L15.1268 2.17477L15.1575 2.18501L15.1678 2.18843L15.2088 2.20892H15.2122C15.2258 2.21575 15.2361 2.22258 15.2498 2.23282L15.26 2.23965C15.2702 2.24648 15.2771 2.25331 15.2873 2.26014L15.2976 2.26697C15.3078 2.27722 15.3215 2.28746 15.3317 2.2977L19.0033 5.97215C19.0135 5.98239 19.0238 5.99605 19.034 6.0063L19.0408 6.01654C19.0477 6.02679 19.0545 6.03362 19.0613 6.04386L19.0682 6.05411C19.075 6.06435 19.0818 6.07801 19.0887 6.09167V6.09509L19.1092 6.13607L19.1126 6.14631L19.1228 6.17704L19.1262 6.1907L19.1365 6.23168V6.2351C19.1399 6.24876 19.1433 6.26583 19.1433 6.27949V7.78205H23.2759C23.6516 7.78205 23.959 8.0894 23.959 8.46504C23.959 8.52309 23.9522 8.57773 23.9385 8.63237L23.9522 8.63578ZM18.1289 6.84978H16.3017C15.4957 6.84637 15.0653 6.47756 14.8467 6.17021C14.5906 5.80482 14.4642 5.31307 14.4608 4.66424V3.17875H10.1608V15.2675H18.1323C18.1289 14.5367 18.1289 9.85832 18.1289 6.84978ZM17.4049 5.82531L15.4854 3.90271V4.66082C15.4888 5.73311 15.8748 5.82531 16.3051 5.82531H17.4049Z" fill="#86888C"/>
</svg>
