<svg width="40" height="40" viewBox="0 0 40 40" fill="none" xmlns="http://www.w3.org/2000/svg">
<path d="M15.4762 31.953C14.5589 31.953 13.826 32.2144 13.2931 32.7268C12.7345 33.2649 12.4527 34.0182 12.4527 34.9765C12.4527 35.9348 12.7345 36.6881 13.2931 37.2262C13.826 37.7386 14.564 38 15.4762 38C16.3883 38 17.1263 37.7386 17.6592 37.2262C18.2178 36.6881 18.4996 35.9348 18.4996 34.9765C18.4996 34.0182 18.2178 33.2649 17.6592 32.7268C17.1263 32.2144 16.3934 31.953 15.4762 31.953ZM25.469 31.953C24.5517 31.953 23.8189 32.2144 23.286 32.7268C22.7274 33.2649 22.4455 34.0182 22.4455 34.9765C22.4455 35.9348 22.7274 36.6881 23.286 37.2262C23.8189 37.7386 24.5569 38 25.469 38C26.3812 38 27.1191 37.7386 27.6521 37.2262C28.2055 36.6881 28.4925 35.9348 28.4925 34.9765C28.4925 34.0182 28.2107 33.2649 27.6521 32.7268C27.1191 32.2144 26.3863 31.953 25.469 31.953ZM35.7386 10.8604C35.5439 10.6093 35.2467 10.4658 34.929 10.4658H28.7385V5.37196C28.7385 3.13253 27.6162 2 25.4024 2H18.5458C16.3627 2 15.2097 3.1684 15.2097 5.37196V10.4658H9.30619C8.9116 8.16996 8.59388 6.35075 8.50164 5.85367C8.10192 3.62448 6.00085 2.01025 3.49495 2.01025H1.02491C0.46121 2.01025 0 2.47146 0 3.03516C0 3.59886 0.46121 4.06007 1.02491 4.06007H3.50007C4.98619 4.06007 6.26733 4.98762 6.48769 6.21238C6.76441 7.76 9.2242 22.0114 9.48043 23.641C9.77765 25.5166 10.4746 26.9873 11.561 28.0122C12.5962 28.991 13.9593 29.5035 15.4915 29.5035H26.9347C28.4515 29.5035 29.7378 28.9859 30.7627 27.9661C31.7312 26.9976 32.4384 25.6139 32.9253 23.7435C33.1405 22.9082 33.8528 20.0538 34.5395 17.2865C35.1032 15.0112 35.6413 12.8641 35.9231 11.7469C36 11.4343 35.9334 11.1115 35.7386 10.8604ZM16.747 5.37196C16.747 4.01395 17.2185 3.53737 18.5458 3.53737H25.4075C26.7656 3.53737 27.2063 3.9832 27.2063 5.37196V18.8752C27.2063 20.2639 26.7707 20.7097 25.4075 20.7097H18.5458C17.1878 20.7097 16.747 20.2639 16.747 18.8752V5.37196Z" fill="#86888C"/>
<path d="M21.9746 16.918C21.3187 16.918 20.8984 17.2613 20.8984 17.9993C20.8984 18.3528 20.9958 18.6193 21.17 18.7987C21.3596 18.9934 21.6364 19.0857 21.9746 19.0857C22.3128 19.0857 22.5895 18.9934 22.7791 18.7987C22.9534 18.6193 23.0508 18.358 23.0508 17.9993C23.0559 17.2613 22.6305 16.918 21.9746 16.918Z" fill="#86888C"/>
</svg>
