<svg width="40" height="40" viewBox="0 0 40 40" fill="none" xmlns="http://www.w3.org/2000/svg">
<path d="M17.6491 32.8629C18.2075 33.4007 18.4893 34.1537 18.4893 35.1116C18.4893 36.0695 18.2075 36.8225 17.6491 37.3603C17.1163 37.8725 16.3785 38.1338 15.4666 38.1338C14.5547 38.1338 13.817 37.8725 13.2842 37.3603C12.7258 36.8225 12.444 36.0695 12.444 35.1116C12.444 34.1537 12.7258 33.4007 13.2842 32.8629C13.817 32.3506 14.5547 32.0894 15.4666 32.0894C16.3785 32.0894 17.1163 32.3506 17.6491 32.8629ZM25.4567 32.0894C24.5396 32.0894 23.807 32.3506 23.2742 32.8629C22.7158 33.4007 22.434 34.1537 22.434 35.1116C22.434 36.0695 22.7158 36.8225 23.2742 37.3603C23.807 37.8725 24.5448 38.1338 25.4567 38.1338C26.3686 38.1338 27.1063 37.8725 27.6391 37.3603C28.1924 36.8225 28.4793 36.0695 28.4793 35.1116C28.4793 34.1537 28.1975 33.4007 27.6391 32.8629C27.1063 32.3506 26.3737 32.0894 25.4567 32.0894ZM22.9361 2.32844L22.9515 2.33868L22.9361 2.32844ZM22.5211 2.16452H22.5416H22.5211ZM22.6748 2.19526L22.6953 2.20038L22.6748 2.19526ZM22.8798 2.28746L22.8951 2.2977L22.8798 2.28746ZM22.7619 2.22087L22.7466 2.21575L22.7619 2.22087ZM22.8234 2.2516L22.7619 2.22087C22.7773 2.23111 22.7978 2.24136 22.8234 2.2516ZM22.7414 2.21575L22.6953 2.20038L22.7414 2.21575ZM22.6133 2.17989L22.6748 2.19526C22.6543 2.18501 22.6338 2.17989 22.6133 2.17989ZM22.8234 2.2516C22.8439 2.26185 22.8593 2.27209 22.8798 2.28746C22.8593 2.27722 22.8439 2.26185 22.8234 2.2516ZM22.5211 2.16452C22.5058 2.16452 22.4853 2.16452 22.4699 2.1594C22.4904 2.16452 22.5058 2.16452 22.5211 2.16452ZM22.6082 2.17477C22.5877 2.16965 22.5621 2.16965 22.5416 2.16452C22.5621 2.16965 22.5877 2.17477 22.6082 2.17477ZM22.9361 2.32844C22.9207 2.31819 22.9105 2.30795 22.8951 2.2977C22.9105 2.30795 22.9207 2.31819 22.9361 2.32844ZM28.551 7.94768L28.5613 7.96304L28.551 7.94768ZM28.6023 8.01939L28.592 8.00402L28.6023 8.01939ZM28.6688 8.1372L28.674 8.15257L28.6688 8.1372ZM28.6996 8.21916L28.6945 8.19867L28.6996 8.21916ZM28.7252 8.37283V8.35234V8.37283ZM25.7589 11.6255C25.7589 12.0507 25.4157 12.3939 24.9905 12.3939H16.9984C16.5732 12.3939 16.23 12.0507 16.23 11.6255C16.23 11.2004 16.5732 10.8572 16.9984 10.8572H24.9905C25.4157 10.8572 25.7589 11.2004 25.7589 11.6255C25.7641 11.6204 25.7641 11.6255 25.7589 11.6255ZM25.7589 15.119C25.7589 15.5441 25.4157 15.8873 24.9905 15.8873H16.9984C16.5732 15.8873 16.23 15.5441 16.23 15.119C16.23 14.6938 16.5732 14.3506 16.9984 14.3506H24.9905C25.4157 14.3506 25.7589 14.6938 25.7589 15.119C25.7641 15.119 25.7641 15.119 25.7589 15.119ZM25.7589 18.6176C25.7589 19.0427 25.4157 19.3859 24.9905 19.3859H16.9984C16.5732 19.3859 16.23 19.0427 16.23 18.6176C16.23 18.1924 16.5732 17.8492 16.9984 17.8492H24.9905C25.4157 17.8492 25.7589 18.1924 25.7589 18.6176C25.7641 18.6124 25.7641 18.6176 25.7589 18.6176ZM28.7303 8.42406V8.37283V8.42406ZM28.6791 8.15769L28.6945 8.20379C28.6893 8.18843 28.6842 8.16794 28.6791 8.15769ZM28.7303 8.35234C28.7303 8.33185 28.7252 8.30624 28.7201 8.28575C28.7201 8.31136 28.7252 8.33185 28.7303 8.35234ZM28.51 7.89133C28.5254 7.9067 28.5408 7.92719 28.5561 7.94255C28.5357 7.92719 28.5203 7.91182 28.51 7.89133ZM28.674 8.1372L28.6432 8.07574C28.6535 8.09623 28.6586 8.11671 28.674 8.1372ZM28.7047 8.21916L28.7201 8.28063C28.7098 8.26526 28.7047 8.24477 28.7047 8.21916ZM28.5715 7.95792C28.5818 7.97329 28.592 7.98353 28.6023 7.9989C28.5869 7.98866 28.5766 7.97329 28.5715 7.95792ZM28.6432 8.07061C28.633 8.05012 28.6227 8.03476 28.6125 8.01427C28.6176 8.03476 28.6279 8.05525 28.6432 8.07061ZM22.9515 2.33868C22.9668 2.35405 22.9873 2.36942 23.0027 2.38479C22.9873 2.36942 22.9668 2.35405 22.9515 2.33868ZM35.9283 11.8868C35.6465 12.9983 35.1137 15.1395 34.5502 17.4087C33.8586 20.1799 33.1464 23.0433 32.9313 23.8782C32.4446 25.753 31.7427 27.1309 30.7693 28.1042C29.7447 29.1235 28.4588 29.6409 26.9424 29.6409H15.4769C13.9451 29.6409 12.5874 29.1235 11.5475 28.1503C10.4665 27.1309 9.76462 25.6608 9.46748 23.7809C9.2267 22.2237 6.8086 8.19355 6.48072 6.33413C6.26042 5.10476 4.97965 4.18274 3.49395 4.18274H1.02462C0.461079 4.18274 0 3.72172 0 3.15826C0 2.5948 0.461079 2.13379 1.02462 2.13379H3.48883C5.9889 2.13379 8.09449 3.74733 8.49409 5.97556C8.60168 6.56464 8.91419 8.36771 9.29842 10.6113H13.7043V3.59366C13.7043 2.72286 14.2678 2.1594 15.1439 2.1594H22.4699C22.4853 2.1594 22.5058 2.1594 22.5211 2.16452H22.5416C22.5621 2.16452 22.5877 2.16965 22.6082 2.17477L22.6697 2.19014L22.6902 2.19526L22.7363 2.21062L22.7517 2.21575L22.8132 2.24648H22.8183C22.8388 2.25673 22.8541 2.26697 22.8746 2.28234L22.89 2.29258C22.9054 2.30283 22.9156 2.31307 22.931 2.32332L22.9464 2.33356C22.9617 2.34893 22.9822 2.3643 22.9976 2.37966L28.5049 7.89133C28.5203 7.9067 28.5357 7.92719 28.551 7.94255L28.5613 7.95792C28.5715 7.97329 28.5818 7.98353 28.592 7.9989L28.6023 8.01427C28.6125 8.02963 28.6227 8.05012 28.633 8.07061V8.07574L28.6637 8.1372L28.6688 8.15257L28.6842 8.19867L28.6893 8.21916L28.7047 8.28063V8.28575C28.7098 8.30624 28.715 8.33185 28.715 8.35234V10.6062H34.9139C35.4774 10.6062 35.9385 11.0672 35.9385 11.6307C35.9385 11.7177 35.9283 11.7997 35.9078 11.8817L35.9283 11.8868ZM27.1934 9.20778H24.4525C23.2435 9.20266 22.598 8.64944 22.2701 8.18843C21.8859 7.64033 21.6963 6.90271 21.6912 5.92946V3.70123H15.2412V21.8344H27.1985C27.1934 20.7382 27.1934 13.7206 27.1934 9.20778ZM26.1073 7.67107L23.2281 4.78718V5.92434C23.2332 7.53276 23.8122 7.67107 24.4577 7.67107H26.1073Z" fill="#86888C"/>
</svg>
