<svg width="40" height="40" viewBox="0 0 40 40" fill="none" xmlns="http://www.w3.org/2000/svg">
<path d="M27.0148 29.7491H15.6087C14.0821 29.7491 12.729 29.2312 11.6926 28.2568C10.6153 27.2363 9.91579 25.7645 9.61966 23.8825C9.36438 22.2517 6.91363 7.98504 6.63792 6.44146C6.41838 5.21069 5.14195 4.28761 3.66129 4.28761H1.20034C0.638713 4.28761 0.179199 3.82607 0.179199 3.26197C0.179199 2.69787 0.638713 2.23633 1.20034 2.23633H3.6664C6.15799 2.23633 8.25643 3.85171 8.65468 6.08248C8.93039 7.6312 11.3913 21.9286 11.6466 23.5645C11.8713 24.985 12.3563 26.0568 13.1018 26.7645C13.7553 27.385 14.6028 27.703 15.6138 27.703H27.0148C28.2606 27.703 30.0272 27.2671 31.0024 23.4722C31.2168 22.6466 31.9214 19.7902 32.6056 17.0312C32.9987 15.4415 33.3765 13.9132 33.6676 12.7594H29.8893C29.3277 12.7594 28.8682 12.2979 28.8682 11.7338C28.8682 11.1697 29.3277 10.7081 29.8893 10.7081H34.9797C35.5414 10.7081 36.0009 11.1697 36.0009 11.7338C36.0009 11.8209 35.9907 11.903 35.9702 11.985C35.6894 13.103 35.1584 15.2517 34.5917 17.5286C33.9075 20.2979 33.1978 23.1594 32.9834 23.9902C32.4984 25.8671 31.7938 27.2466 30.8288 28.2158C29.8076 29.2312 28.5261 29.7491 27.0148 29.7491Z" fill="#86888C"/>
<path d="M14.9861 12.7495H8.78774C8.22612 12.7495 7.7666 12.288 7.7666 11.7239C7.7666 11.1598 8.22612 10.6982 8.78774 10.6982H14.9861C15.5477 10.6982 16.0072 11.1598 16.0072 11.7239C16.0072 12.288 15.5477 12.7495 14.9861 12.7495ZM13.6177 35.2111C13.6177 33.847 14.3479 33.2111 15.609 33.2111C16.8701 33.2111 17.6002 33.847 17.6002 35.2111C17.6002 36.5752 16.8701 37.2111 15.609 37.2111C14.3479 37.2111 13.6177 36.5752 13.6177 35.2111Z" fill="#86888C"/>
<path d="M15.6081 38.2368C14.6941 38.2368 13.964 37.9753 13.433 37.4625C12.8765 36.924 12.5957 36.1702 12.5957 35.2112C12.5957 34.2522 12.8765 33.4984 13.433 32.9599C13.964 32.4471 14.6993 32.1855 15.6081 32.1855C16.5169 32.1855 17.2521 32.4471 17.7831 32.9599C18.3396 33.4984 18.6204 34.2522 18.6204 35.2112C18.6204 36.1702 18.3396 36.924 17.7831 37.4625C17.2572 37.9753 16.522 38.2368 15.6081 38.2368ZM15.6081 34.2368C14.8626 34.2368 14.638 34.4625 14.638 35.2112C14.638 35.9599 14.8626 36.1855 15.6081 36.1855C16.3535 36.1855 16.5782 35.9599 16.5782 35.2112C16.5782 34.4625 16.3535 34.2368 15.6081 34.2368ZM23.573 35.2112C23.573 33.8471 24.3031 33.2112 25.5642 33.2112C26.8253 33.2112 27.5554 33.8471 27.5554 35.2112C27.5554 36.5753 26.8253 37.2112 25.5642 37.2112C24.3031 37.2112 23.573 36.5753 23.573 35.2112Z" fill="#86888C"/>
<path d="M25.5652 38.2367C24.6512 38.2367 23.9211 37.9752 23.3901 37.4623C22.8336 36.9239 22.5528 36.17 22.5528 35.2111C22.5528 34.2521 22.8336 33.4982 23.3901 32.9598C23.9211 32.447 24.6563 32.1854 25.5652 32.1854C26.474 32.1854 27.2092 32.447 27.7402 32.9598C28.2916 33.4982 28.5775 34.2521 28.5775 35.2111C28.5775 36.17 28.2967 36.9239 27.7402 37.4623C27.2143 37.9752 26.4791 38.2367 25.5652 38.2367ZM25.5652 34.2367C24.8197 34.2367 24.5951 34.4623 24.5951 35.2111C24.5951 35.9598 24.8197 36.1854 25.5652 36.1854C26.3106 36.1854 26.5352 35.9598 26.5352 35.2111C26.5352 34.4623 26.3106 34.2367 25.5652 34.2367ZM27.5462 23.7495H16.5944C15.3486 23.7495 14.5777 22.9752 14.5777 21.7239V15.7495H12.612C12.0503 15.7495 11.5908 15.288 11.5908 14.7239C11.5908 14.4623 11.6929 14.2059 11.8716 14.0162L21.3427 4.01619C21.5367 3.81106 21.8022 3.69824 22.0831 3.69824C22.3639 3.69824 22.6294 3.81619 22.8234 4.01619L24.5338 5.82645V5.72388C24.5338 5.15978 24.9933 4.69824 25.5549 4.69824H28.5418C29.1034 4.69824 29.5629 5.15978 29.5629 5.72388V11.1495L32.269 14.0162C32.657 14.4264 32.6417 15.0777 32.2332 15.4675C32.0443 15.647 31.7941 15.7495 31.5286 15.7495H29.5629V21.7239C29.5629 22.97 28.7869 23.7495 27.5462 23.7495ZM16.6199 21.6982H27.5206V14.7239C27.5206 14.1598 27.9802 13.6982 28.5418 13.6982H29.1545L27.8015 12.2675C27.6228 12.0777 27.5206 11.8264 27.5206 11.5598V6.74952H26.5761V8.4008C26.5761 8.96491 26.1166 9.42645 25.5549 9.42645C25.2741 9.42645 25.0086 9.3085 24.8146 9.1085L22.0831 6.21619L14.9912 13.7034H15.5988C16.1604 13.7034 16.6199 14.1649 16.6199 14.729V21.6982Z" fill="#86888C"/>
<path d="M8.80762 12.2878C9.0629 12.2365 13.9644 12.3903 13.9644 12.3903L12.9432 14.3903L15.3429 14.5955L15.5472 21.3134L15.7003 22.4416L26.8308 22.698L28.3625 22.4416L28.7199 19.8775L28.9752 14.698L30.609 14.2365L29.2305 11.6211L34.5404 11.7749L32.8045 21.1083L30.3027 27.5185L25.9628 28.8006C25.9628 28.8006 19.5296 28.9031 19.3254 28.9031C19.1212 28.9031 14.1686 28.5442 14.1686 28.5442L11.6158 26.8519L9.72664 18.8519L8.80762 12.2878Z" fill="#86888C"/>
</svg>
