<svg width="28" height="28" viewBox="0 0 28 28" fill="none" xmlns="http://www.w3.org/2000/svg">
<path d="M18.0696 20.5782H10.4655C9.44777 20.5782 8.54576 20.2329 7.85478 19.5833C7.13658 18.903 6.67026 17.9218 6.47284 16.6671C6.30265 15.5799 4.66882 6.06881 4.48502 5.03975C4.33865 4.21923 3.4877 3.60385 2.5006 3.60385H0.859961C0.485542 3.60385 0.179199 3.29616 0.179199 2.92009C0.179199 2.54402 0.485542 2.23633 0.859961 2.23633H2.504C4.16506 2.23633 5.56402 3.31325 5.82952 4.80043C6.01333 5.83291 7.65396 15.3645 7.82415 16.4551C7.97392 17.4021 8.29728 18.1167 8.79424 18.5885C9.22992 19.0021 9.79496 19.2141 10.4689 19.2141H18.0696C18.9001 19.2141 20.0779 18.9235 20.728 16.3936C20.8709 15.8432 21.3407 13.9389 21.7968 12.0996C22.0589 11.0397 22.3108 10.0209 22.5048 9.25171H19.986C19.6115 9.25171 19.3052 8.94402 19.3052 8.56795C19.3052 8.19188 19.6115 7.88419 19.986 7.88419H23.3795C23.754 7.88419 24.0603 8.19188 24.0603 8.56795C24.0603 8.62607 24.0535 8.68077 24.0399 8.73547C23.8527 9.48077 23.4987 10.9132 23.1209 12.4312C22.6648 14.2774 22.1916 16.185 22.0487 16.7389C21.7253 17.9902 21.2556 18.9098 20.6123 19.556C19.9315 20.2329 19.0771 20.5782 18.0696 20.5782Z" fill="#86888C"/>
<path d="M10.0503 9.24447H5.91807C5.54365 9.24447 5.2373 8.93678 5.2373 8.56071C5.2373 8.18465 5.54365 7.87695 5.91807 7.87695H10.0503C10.4247 7.87695 10.731 8.18465 10.731 8.56071C10.731 8.93678 10.4247 9.24447 10.0503 9.24447ZM9.13807 24.2188C9.13807 23.3094 9.62481 22.8855 10.4656 22.8855C11.3063 22.8855 11.793 23.3094 11.793 24.2188C11.793 25.1282 11.3063 25.5522 10.4656 25.5522C9.62481 25.5522 9.13807 25.1282 9.13807 24.2188Z" fill="#86888C"/>
<path d="M10.4653 26.2363C9.856 26.2363 9.36925 26.062 9.01526 25.7201C8.64424 25.3611 8.45703 24.8586 8.45703 24.2192C8.45703 23.5799 8.64424 23.0774 9.01526 22.7184C9.36925 22.3765 9.8594 22.2021 10.4653 22.2021C11.0712 22.2021 11.5613 22.3765 11.9153 22.7184C12.2863 23.0774 12.4735 23.5799 12.4735 24.2192C12.4735 24.8586 12.2863 25.3611 11.9153 25.7201C11.5647 26.062 11.0746 26.2363 10.4653 26.2363ZM10.4653 23.5697C9.96832 23.5697 9.81855 23.7201 9.81855 24.2192C9.81855 24.7184 9.96832 24.8688 10.4653 24.8688C10.9622 24.8688 11.112 24.7184 11.112 24.2192C11.112 23.7201 10.9622 23.5697 10.4653 23.5697ZM15.7752 24.2192C15.7752 23.3098 16.262 22.8859 17.1027 22.8859C17.9434 22.8859 18.4302 23.3098 18.4302 24.2192C18.4302 25.1286 17.9434 25.5526 17.1027 25.5526C16.262 25.5526 15.7752 25.1286 15.7752 24.2192Z" fill="#86888C"/>
<path d="M17.1033 26.2366C16.494 26.2366 16.0073 26.0622 15.6533 25.7203C15.2823 25.3614 15.0951 24.8588 15.0951 24.2195C15.0951 23.5802 15.2823 23.0776 15.6533 22.7186C16.0073 22.3767 16.4975 22.2024 17.1033 22.2024C17.7092 22.2024 18.1994 22.3767 18.5534 22.7186C18.921 23.0776 19.1116 23.5802 19.1116 24.2195C19.1116 24.8588 18.9244 25.3614 18.5534 25.7203C18.2028 26.0622 17.7126 26.2366 17.1033 26.2366ZM17.1033 23.5699C16.6064 23.5699 16.4566 23.7203 16.4566 24.2195C16.4566 24.7186 16.6064 24.8691 17.1033 24.8691C17.6003 24.8691 17.7501 24.7186 17.7501 24.2195C17.7501 23.7203 17.6003 23.5699 17.1033 23.5699ZM18.424 16.5785H11.1228C10.2923 16.5785 9.77834 16.0622 9.77834 15.228V11.2451H8.46787C8.09345 11.2451 7.78711 10.9374 7.78711 10.5614C7.78711 10.387 7.85519 10.2161 7.97432 10.0896L14.2884 3.4229C14.4177 3.28615 14.5947 3.21094 14.7819 3.21094C14.9691 3.21094 15.1461 3.28957 15.2755 3.4229L16.4158 4.62974V4.56136C16.4158 4.1853 16.7221 3.8776 17.0965 3.8776H19.0877C19.4622 3.8776 19.7685 4.1853 19.7685 4.56136V8.17846L21.5725 10.0896C21.8312 10.3631 21.821 10.7973 21.5487 11.0571C21.4228 11.1767 21.256 11.2451 21.079 11.2451H19.7685V15.228C19.7685 16.0588 19.2511 16.5785 18.424 16.5785ZM11.1399 15.2109H18.407V10.5614C18.407 10.1853 18.7133 9.8776 19.0877 9.8776H19.4962L18.5942 8.92376C18.4751 8.79726 18.407 8.62974 18.407 8.45196V5.24513H17.7773V6.34598C17.7773 6.72205 17.4709 7.02974 17.0965 7.02974C16.9093 7.02974 16.7323 6.95111 16.603 6.81777L14.7819 4.88957L10.054 9.88102H10.4591C10.8335 9.88102 11.1399 10.1887 11.1399 10.5648V15.2109Z" fill="#86888C"/>
<path d="M5.93164 8.93663C6.10183 8.90244 9.36948 9.00501 9.36948 9.00501L8.68872 10.3383L10.2885 10.4751L10.4247 14.9537L10.5268 15.7059L17.9471 15.8768L18.9682 15.7059L19.2065 13.9965L19.3767 10.5435L20.4659 10.2358L19.5469 8.49219L23.0868 8.59475L21.9295 14.817L20.2617 19.0905L17.3684 19.9452C17.3684 19.9452 13.0796 20.0136 12.9435 20.0136C12.8073 20.0136 9.50564 19.7742 9.50564 19.7742L7.80373 18.646L6.54433 13.3127L5.93164 8.93663Z" fill="#86888C"/>
</svg>
