<svg width="20" height="20" viewBox="0 0 20 20" fill="none" xmlns="http://www.w3.org/2000/svg">
<path fill-rule="evenodd" clip-rule="evenodd" d="M16.6359 15.247C17.1978 14.5028 17.5155 13.5043 17.5842 12.2681H16.4082C16.3395 13.0954 16.1143 13.7896 15.7278 14.334L16.6359 15.247ZM14.6395 14.025C15.1422 13.5376 15.3982 12.7673 15.3982 11.7308C15.3982 10.6942 15.1422 9.92155 14.6371 9.4318C14.5779 9.37474 14.502 9.32957 14.4356 9.28202C14.3692 9.93581 14.2412 10.5349 14.042 11.0746C13.7623 11.833 13.3545 12.4773 12.8139 12.9979C12.5246 13.2761 12.1998 13.5138 11.8418 13.7159C11.434 13.9489 10.9811 14.1296 10.4856 14.2651C10.9598 14.5718 11.5952 14.7334 12.399 14.7334C13.3971 14.7334 14.1511 14.4957 14.6395 14.025ZM11.8821 16.9302V15.751C11.0618 15.6844 10.3718 15.4609 9.82887 15.0782L8.91368 15.9958C9.65816 16.5498 10.654 16.8636 11.8821 16.9302ZM8.2427 11.2814C8.29961 11.2814 8.34466 11.2719 8.39919 11.2719C8.62206 11.2648 8.83307 11.2505 9.02749 11.2196C9.17686 11.1958 9.31911 11.1649 9.45189 11.1269C9.86917 11.008 10.2153 10.8273 10.4785 10.5753C10.8792 10.1878 11.1163 9.61486 11.1993 8.88024C11.2206 8.69004 11.2372 8.4951 11.2372 8.28351C11.2372 8.11471 11.2206 7.96018 11.2064 7.80565C11.1661 7.35632 11.0689 6.97117 10.9148 6.64309C10.7986 6.39108 10.6587 6.16285 10.4738 5.98455C10.3789 5.89183 10.2628 5.81575 10.1466 5.73967C9.67001 5.43299 9.0346 5.27132 8.23559 5.27132C7.24216 5.27132 6.49057 5.51144 6.00453 5.98455C5.50189 6.47192 5.24583 7.24695 5.24583 8.28351C5.24583 9.32006 5.49952 10.0927 6.00216 10.5777C6.0638 10.6371 6.13967 10.6799 6.2108 10.7346C6.48583 10.9391 6.82251 11.0865 7.22083 11.1744C7.2967 11.1911 7.36783 11.2101 7.44844 11.2244C7.69976 11.2553 7.95582 11.2814 8.2427 11.2814ZM7.7211 13.4782V12.2966C7.59544 12.2847 7.45555 12.2871 7.337 12.2681C7.2967 12.2633 7.2635 12.249 7.22557 12.2419C6.84859 12.1777 6.51428 12.066 6.20369 11.9257C6.19183 11.921 6.17761 11.9138 6.16813 11.9091C5.9903 11.8259 5.82197 11.7308 5.66786 11.6238L4.75267 12.5438C5.17944 12.8624 5.69157 13.0978 6.27956 13.2547C6.62098 13.3474 6.98847 13.4116 7.38205 13.4496C7.49586 13.4591 7.60729 13.471 7.7211 13.4782ZM3.06693 7.76523H4.24292C4.3093 6.93314 4.52743 6.23418 4.91152 5.68499L4.00345 4.77207C3.44865 5.52333 3.13331 6.52422 3.06693 7.76523ZM8.76905 3.06984V4.25141C9.59889 4.32036 10.2912 4.55097 10.8365 4.94324L11.7517 4.02556C11.0049 3.45736 10.0043 3.13878 8.76905 3.06984ZM12.2496 8.81605C12.2283 9.08232 12.188 9.33432 12.1334 9.57207C12.0173 10.0713 11.8299 10.5111 11.5691 10.882L11.9627 11.2767L12.4772 11.7949C12.6052 11.6238 12.7214 11.4383 12.8234 11.241C13.0012 10.8987 13.1458 10.523 13.2478 10.1022C13.3402 9.71233 13.3995 9.29153 13.4256 8.83507V8.81605H12.2496ZM15.9127 7.47994C15.4836 7.15186 14.9643 6.91412 14.3716 6.75245C14.4404 7.17325 14.4759 7.62259 14.4854 8.09807C14.6703 8.18366 14.8411 8.28351 14.9999 8.39525L15.9127 7.47994ZM16.9773 7.01159C18.0869 8.08618 18.6512 9.67667 18.6512 11.7355C18.6512 13.7944 18.0869 15.3801 16.9749 16.4523C15.9103 17.4793 14.3692 18 12.3966 18C10.424 18 8.88523 17.4793 7.82542 16.4499C7.25639 15.9007 6.83673 15.2137 6.55696 14.3935C5.37623 14.1747 4.40177 13.7111 3.66441 12.9955C2.55954 11.9281 2 10.34 2 8.28113C2 6.22229 2.55954 4.6318 3.66441 3.55958C4.72659 2.52303 6.26533 2 8.23796 2C10.2082 2 11.7493 2.52303 12.8163 3.55721C13.3853 4.10639 13.8073 4.79346 14.0871 5.60654C15.2655 5.83002 16.2399 6.29599 16.9773 7.01159ZM9.60363 9.18692C9.43766 9.43418 9.28355 9.62437 9.05357 9.86686C9.01326 9.90728 8.89946 10.0214 8.80462 10.0903C8.70741 10.1617 8.59835 10.2092 8.48454 10.2401C8.46557 10.2449 8.45135 10.2544 8.43001 10.2568C8.39682 10.2663 8.34703 10.2734 8.29487 10.2782L8.24745 10.2805L8.18106 10.2782C8.14075 10.2758 8.09096 10.2686 8.04592 10.2568C7.92974 10.2306 7.80171 10.1736 7.6879 10.0927C7.60018 10.0285 7.50534 9.93581 7.46266 9.89302C7.45792 9.88826 7.4437 9.87637 7.44132 9.874C7.17815 9.60059 7.01218 9.39376 6.81539 9.0847C6.78931 9.0419 6.77035 8.99911 6.74427 8.95632C6.53088 8.60208 6.3744 8.24547 6.29141 7.89599C6.16338 7.35631 6.29379 6.87132 6.64469 6.56939C6.84859 6.39346 7.11888 6.28648 7.40813 6.27221C7.69739 6.25795 7.9819 6.32689 8.24508 6.47429C8.50825 6.32927 8.79751 6.25795 9.07965 6.27221C9.10099 6.27459 9.12233 6.28172 9.14604 6.2841C9.40921 6.31263 9.65579 6.40535 9.84546 6.56701C9.96401 6.66924 10.047 6.79762 10.1134 6.93314C10.2462 7.20654 10.2841 7.53462 10.1987 7.89361C10.1821 7.96256 10.1489 8.0315 10.1276 8.10282C10.0731 8.28351 10.0019 8.46419 9.90948 8.64487C9.83835 8.7899 9.76722 8.93492 9.67476 9.07994C9.65105 9.11798 9.62734 9.15126 9.60363 9.18692Z" fill="#86888C"/>
</svg>
