<svg width="24" height="24" viewBox="0 0 24 24" fill="none" xmlns="http://www.w3.org/2000/svg">
<path fill-rule="evenodd" clip-rule="evenodd" d="M20.3142 19.0107C20.4379 19.0107 20.5364 18.9122 20.5364 18.7913V13.0063H3.22057V18.7913C3.22057 18.9122 3.32182 19.0107 3.44556 19.0107H20.3142ZM3.44556 7.38995C3.32182 7.38995 3.22057 7.48838 3.22057 7.61212V8.8102H20.5364V7.61212C20.5364 7.49119 20.4351 7.38995 20.3142 7.38995H3.44556ZM21.7654 9.40642V12.41C21.7654 12.4382 21.7513 12.4663 21.7485 12.4944V18.7913C21.7485 19.5703 21.1045 20.2031 20.3142 20.2031H3.44556C2.65528 20.2031 2.01125 19.5703 2.01125 18.7913V12.4607C2.00844 12.4438 2 12.4297 2 12.41V9.40642C2 9.38955 2.00844 9.37267 2.01125 9.35861V7.61494C2.01125 6.83591 2.65528 6.20312 3.44556 6.20312H20.3142C21.1045 6.20312 21.7485 6.83591 21.7485 7.61494V9.32486C21.7513 9.35017 21.7654 9.37548 21.7654 9.40642ZM14.5573 17.2558C15.0719 17.2473 15.685 17.0364 15.685 16.083C15.685 15.1296 15.0663 14.9159 14.546 14.9018H14.3998C13.8935 14.9046 13.2889 15.1127 13.2889 16.0746C13.2889 17.0392 13.902 17.2501 14.4138 17.2586L14.5573 17.2558ZM17.4371 13.8725C18.4299 13.895 19.5942 14.4884 19.5942 16.0858C19.5942 17.686 18.4299 18.2738 17.4343 18.2907H17.2599C16.99 18.2879 16.4106 18.2288 15.91 17.8576C15.5135 18.1445 15.0269 18.2795 14.5713 18.2879H14.3969C13.4014 18.2738 12.237 17.686 12.237 16.0717C12.237 14.4574 13.3957 13.8753 14.3857 13.8668C14.4504 13.8668 14.5151 13.8668 14.5713 13.8697C15.0185 13.8809 15.4994 14.0159 15.8959 14.3C16.419 13.9147 17.035 13.8697 17.2515 13.8668C17.3134 13.8668 17.3809 13.8697 17.4371 13.8725Z" fill="#86888C"/>
</svg>
