<svg width="40" height="40" viewBox="0 0 40 40" fill="none" xmlns="http://www.w3.org/2000/svg">
<path fill-rule="evenodd" clip-rule="evenodd" d="M36.0121 31.9886C36.2419 31.9886 36.4247 31.8058 36.4247 31.5812V20.8375H4.26677V31.5812C4.26677 31.8058 4.4548 31.9886 4.68461 31.9886H36.0121ZM4.68461 10.4072C4.4548 10.4072 4.26677 10.59 4.26677 10.8198V13.0448H36.4247V10.8198C36.4247 10.5953 36.2366 10.4072 36.0121 10.4072H4.68461ZM38.7071 14.1521V19.7302C38.7071 19.7825 38.681 19.8347 38.6758 19.8869V31.5812C38.6758 33.028 37.4797 34.2031 36.0121 34.2031H4.68461C3.21695 34.2031 2.02089 33.028 2.02089 31.5812V19.8243C2.01567 19.7929 2 19.7668 2 19.7302V14.1521C2 14.1208 2.01567 14.0894 2.02089 14.0633V10.8251C2.02089 9.3783 3.21695 8.20312 4.68461 8.20312H36.0121C37.4797 8.20312 38.6758 9.3783 38.6758 10.8251V14.0006C38.681 14.0476 38.7071 14.0946 38.7071 14.1521ZM25.3206 28.7294C26.2764 28.7138 27.415 28.322 27.415 26.5515C27.415 24.7809 26.266 24.3839 25.2997 24.3578H25.0281C24.088 24.363 22.965 24.7495 22.965 26.5358C22.965 28.3273 24.1037 28.719 25.0542 28.7347L25.3206 28.7294ZM30.6689 22.4462C32.5127 22.488 34.675 23.59 34.675 26.5567C34.675 29.5286 32.5127 30.6202 30.6637 30.6515H30.3399C29.8385 30.6463 28.7626 30.5366 27.8329 29.8472C27.0964 30.3799 26.1928 30.6306 25.3467 30.6463H25.0229C23.174 30.6202 21.0117 29.5286 21.0117 26.5306C21.0117 23.5326 23.1635 22.4514 25.002 22.4357C25.1221 22.4357 25.2423 22.4357 25.3467 22.441C26.1772 22.4619 27.0703 22.7126 27.8067 23.2401C28.7782 22.5245 29.9221 22.441 30.3242 22.4357C30.4391 22.4357 30.5645 22.441 30.6689 22.4462Z" fill="#86888C"/>
</svg>
