<svg width="20" height="20" viewBox="0 0 20 20" fill="none" xmlns="http://www.w3.org/2000/svg">
<path fill-rule="evenodd" clip-rule="evenodd" d="M16.3897 15.2662C16.4869 15.2662 16.5643 15.1889 16.5643 15.0938V10.5484H2.95902V15.0938C2.95902 15.1889 3.03857 15.2662 3.1358 15.2662H16.3897ZM3.1358 6.13563C3.03857 6.13563 2.95902 6.21297 2.95902 6.3102V7.25154H16.5643V6.3102C16.5643 6.21518 16.4847 6.13563 16.3897 6.13563H3.1358ZM17.5299 7.72V10.08C17.5299 10.1021 17.5189 10.1242 17.5167 10.1463V15.0938C17.5167 15.7059 17.0106 16.2031 16.3897 16.2031H3.1358C2.51487 16.2031 2.00884 15.7059 2.00884 15.0938V10.1198C2.00663 10.1065 2 10.0955 2 10.08V7.72C2 7.70674 2.00663 7.69348 2.00884 7.68243V6.31241C2.00884 5.70031 2.51487 5.20312 3.1358 5.20312H16.3897C17.0106 5.20312 17.5167 5.70031 17.5167 6.31241V7.65592C17.5189 7.6758 17.5299 7.69569 17.5299 7.72ZM11.8664 13.8873C12.2708 13.8807 12.7525 13.715 12.7525 12.9659C12.7525 12.2168 12.2664 12.0488 11.8576 12.0378H11.7427C11.3449 12.04 10.8698 12.2035 10.8698 12.9593C10.8698 13.7172 11.3515 13.8829 11.7537 13.8895L11.8664 13.8873ZM14.1292 11.229C14.9092 11.2467 15.824 11.713 15.824 12.9681C15.824 14.2254 14.9092 14.6873 14.127 14.7005H13.99C13.7778 14.6983 13.3226 14.6519 12.9293 14.3602C12.6177 14.5856 12.2354 14.6917 11.8775 14.6983H11.7405C10.9582 14.6873 10.0434 14.2254 10.0434 12.957C10.0434 11.6887 10.9538 11.2312 11.7316 11.2246C11.7824 11.2246 11.8333 11.2246 11.8775 11.2268C12.2288 11.2357 12.6067 11.3417 12.9182 11.5649C13.3292 11.2622 13.8132 11.2268 13.9833 11.2246C14.0319 11.2246 14.085 11.2268 14.1292 11.229Z" fill="#86888C"/>
</svg>
