<svg width="24" height="24" viewBox="0 0 24 24" fill="none" xmlns="http://www.w3.org/2000/svg">
<path fill-rule="evenodd" clip-rule="evenodd" d="M17.2257 7.74274L13.1234 3.69323V5.48606C13.1234 6.15481 13.3388 6.71827 13.7442 7.11952C14.1553 7.52647 14.7394 7.7399 15.4283 7.7399H17.2257V7.74274ZM18.8956 7.85088C18.9268 7.92487 18.9438 8.0074 18.9438 8.09277V20.5942C18.9438 21.3569 18.3003 22 17.5404 22H5.40338C4.65774 22 4 21.3426 4 20.5942L4.03969 17.2447L4 9.1457V3.40581C4 2.66875 4.66908 2 5.40338 2H12.7916C13.0213 2 13.2453 2.09391 13.4069 2.25612L18.6802 7.46101C18.7907 7.56631 18.8559 7.70575 18.8956 7.85088ZM11.7313 10.2612C13.4919 10.2612 14.2772 11.0637 14.2772 12.8623C14.2772 14.6608 13.4919 15.4604 11.7313 15.4604C9.97072 15.4604 9.1854 14.6579 9.1854 12.8623C9.1854 11.0637 9.97072 10.2612 11.7313 10.2612ZM14.6486 14.9027C14.643 14.8913 14.6345 14.8828 14.6288 14.8742C14.9236 14.3534 15.0852 13.6904 15.0852 12.8651C15.0852 10.5344 13.8491 9.44166 11.7313 9.44166C9.6135 9.44166 8.38023 10.5344 8.38023 12.8651C8.38023 13.568 8.50498 14.1429 8.71761 14.6238C8.69493 14.6522 8.66941 14.6779 8.65524 14.712L7.09877 18.1611C7.00237 18.3773 7.03072 18.6249 7.17815 18.8099C7.32274 18.9949 7.55805 19.0774 7.83306 19.0091L8.77998 18.6534L9.15421 19.6693C9.26195 19.8742 9.46324 19.9994 9.69005 19.9994H9.70706C9.93954 19.9937 10.1437 19.8543 10.2429 19.6409L11.6094 16.6101L12.9759 19.6409C13.0723 19.8543 13.2793 19.9937 13.5118 19.9994H13.5288C13.7527 19.9994 13.9597 19.8742 14.0845 19.6209L14.4388 18.6534L15.434 19.0262C15.6579 19.0717 15.8933 18.9949 16.0378 18.8099C16.1853 18.6249 16.2136 18.3773 16.1172 18.1611L14.6486 14.9027ZM10.481 13.4001L10.4045 13.8725C10.362 14.1315 10.4669 14.3876 10.671 14.5356C10.7844 14.6181 10.9148 14.6579 11.0452 14.6579C11.1501 14.6579 11.2579 14.6323 11.3571 14.5754L11.7342 14.3648L12.1084 14.5754C12.3182 14.6949 12.5904 14.6807 12.7916 14.5356C12.9986 14.3847 13.1007 14.1315 13.061 13.8697L12.9844 13.4001L13.302 13.07C13.4777 12.8879 13.5401 12.6232 13.4579 12.3756C13.3785 12.1338 13.1801 11.9602 12.9362 11.926L12.511 11.8606L12.3154 11.4394C12.0942 10.967 11.3571 10.9698 11.1416 11.4394L10.9488 11.8549L10.5236 11.9203C10.2826 11.9573 10.0813 12.1309 10.0019 12.3728C9.92253 12.6175 9.98206 12.8822 10.1578 13.0672L10.481 13.4001Z" fill="#86888C"/>
</svg>
