<svg width="28" height="28" viewBox="0 0 28 28" fill="none" xmlns="http://www.w3.org/2000/svg">
<path fill-rule="evenodd" clip-rule="evenodd" d="M19.8709 9.89129L14.948 5.03187V7.18327C14.948 7.98577 15.2066 8.66192 15.6931 9.14343C16.1864 9.63176 16.8872 9.88788 17.714 9.88788H19.8709V9.89129ZM21.8747 10.0211C21.9122 10.1098 21.9326 10.2089 21.9326 10.3113V25.313C21.9326 26.2282 21.1603 27 20.2485 27H5.68405C4.78929 27 4 26.2112 4 25.313L4.04763 21.2937L4 11.5748V4.68697C4 3.8025 4.8029 3 5.68405 3H14.55C14.8256 3 15.0943 3.11269 15.2882 3.30734L21.6162 9.55322C21.7489 9.67957 21.8271 9.8469 21.8747 10.0211ZM13.2776 12.9135C15.3903 12.9135 16.3327 13.8765 16.3327 16.0347C16.3327 18.1929 15.3903 19.1525 13.2776 19.1525C11.1649 19.1525 10.2225 18.1895 10.2225 16.0347C10.2225 13.8765 11.1649 12.9135 13.2776 12.9135ZM16.7784 18.4832C16.7716 18.4696 16.7614 18.4593 16.7546 18.4491C17.1084 17.8241 17.3023 17.0285 17.3023 16.0381C17.3023 13.2413 15.819 11.93 13.2776 11.93C10.7362 11.93 9.25628 13.2413 9.25628 16.0381C9.25628 16.8816 9.40597 17.5714 9.66113 18.1485C9.63391 18.1827 9.60329 18.2134 9.58628 18.2544L7.71852 22.3933C7.60285 22.6528 7.63687 22.9499 7.81378 23.1719C7.98729 23.3939 8.26966 23.4929 8.59967 23.4109L9.73598 22.9841L10.1851 24.2032C10.3143 24.4491 10.5559 24.5993 10.8281 24.5993H10.8485C11.1274 24.5925 11.3724 24.4252 11.4915 24.169L13.1313 20.5322L14.7711 24.169C14.8868 24.4252 15.1351 24.5925 15.4141 24.5993H15.4345C15.7033 24.5993 15.9517 24.4491 16.1013 24.1451L16.5266 22.9841L17.7208 23.4314C17.9895 23.4861 18.2719 23.3939 18.4454 23.1719C18.6223 22.9499 18.6563 22.6528 18.5407 22.3933L16.7784 18.4832ZM11.7772 16.6801L11.6854 17.247C11.6344 17.5578 11.7602 17.8651 12.0052 18.0427C12.1413 18.1417 12.2978 18.1895 12.4543 18.1895C12.5802 18.1895 12.7094 18.1588 12.8285 18.0905L13.281 17.8378L13.7301 18.0905C13.9818 18.2339 14.3084 18.2168 14.55 18.0427C14.7983 17.8617 14.9208 17.5578 14.8732 17.2436L14.7813 16.6801L15.1624 16.284C15.3733 16.0655 15.4481 15.7479 15.3495 15.4508C15.2542 15.1605 15.0161 14.9522 14.7235 14.9112L14.2132 14.8327L13.9784 14.3273C13.7131 13.7604 12.8285 13.7638 12.5699 14.3273L12.3386 14.8258L11.8283 14.9044C11.5391 14.9488 11.2976 15.1571 11.2023 15.4474C11.107 15.741 11.1785 16.0586 11.3894 16.2806L11.7772 16.6801Z" fill="#86888C"/>
</svg>
