<svg width="20" height="20" viewBox="0 0 20 20" fill="none" xmlns="http://www.w3.org/2000/svg">
<path fill-rule="evenodd" clip-rule="evenodd" d="M14.5806 6.59419L11.2987 3.35458V4.78884C11.2987 5.32385 11.4711 5.77462 11.7954 6.09562C12.1243 6.42117 12.5915 6.59192 13.1426 6.59192H14.5806V6.59419ZM15.9165 6.68071C15.9414 6.7399 15.9551 6.80592 15.9551 6.87422V16.8754C15.9551 17.4855 15.4402 18 14.8324 18H5.1227C4.52619 18 4 17.4741 4 16.8754L4.03175 14.1958L4 7.71656V3.12464C4 2.535 4.53527 2 5.1227 2H11.0333C11.217 2 11.3962 2.07513 11.5255 2.20489L15.7441 6.36881C15.8326 6.45304 15.8847 6.5646 15.9165 6.68071ZM10.1851 8.60899C11.5935 8.60899 12.2218 9.251 12.2218 10.6898C12.2218 12.1286 11.5935 12.7684 10.1851 12.7684C8.77658 12.7684 8.14832 12.1264 8.14832 10.6898C8.14832 9.251 8.77658 8.60899 10.1851 8.60899ZM12.5189 12.3221C12.5144 12.313 12.5076 12.3062 12.503 12.2994C12.7389 11.8828 12.8682 11.3523 12.8682 10.6921C12.8682 8.82755 11.8793 7.95333 10.1851 7.95333C8.4908 7.95333 7.50419 8.82755 7.50419 10.6921C7.50419 11.2544 7.60398 11.7143 7.77409 12.099C7.75594 12.1218 7.73553 12.1423 7.72419 12.1696L6.47901 14.9289C6.4019 15.1019 6.42458 15.2999 6.54252 15.4479C6.65819 15.5959 6.84644 15.6619 7.06645 15.6073L7.82398 15.3227L8.12337 16.1355C8.20956 16.2994 8.37059 16.3995 8.55204 16.3995H8.56565C8.75163 16.395 8.91493 16.2834 8.99431 16.1127L10.0875 13.6881L11.1807 16.1127C11.2579 16.2834 11.4234 16.395 11.6094 16.3995H11.623C11.8022 16.3995 11.9678 16.2994 12.0676 16.0968L12.3511 15.3227L13.1472 15.6209C13.3263 15.6574 13.5146 15.5959 13.6303 15.4479C13.7482 15.2999 13.7709 15.1019 13.6938 14.9289L12.5189 12.3221ZM9.18483 11.1201L9.1236 11.498C9.08957 11.7052 9.17349 11.9101 9.33679 12.0285C9.42752 12.0945 9.53185 12.1264 9.63618 12.1264C9.7201 12.1264 9.80629 12.1059 9.88567 12.0603L10.1873 11.8919L10.4867 12.0603C10.6546 12.1559 10.8723 12.1446 11.0333 12.0285C11.1989 11.9078 11.2805 11.7052 11.2488 11.4957L11.1875 11.1201L11.4416 10.856C11.5822 10.7103 11.6321 10.4986 11.5663 10.3005C11.5028 10.107 11.344 9.96813 11.149 9.94081L10.8088 9.88845L10.6523 9.55151C10.4754 9.17359 9.88567 9.17587 9.7133 9.55151L9.55907 9.88389L9.21885 9.93626C9.02607 9.96585 8.86503 10.1047 8.80153 10.2982C8.73802 10.494 8.78565 10.7057 8.92627 10.8537L9.18483 11.1201Z" fill="#86888C"/>
</svg>
