<svg width="40" height="40" viewBox="0 0 40 40" fill="none" xmlns="http://www.w3.org/2000/svg">
<path d="M7.37974 16.8773C7.7905 16.8773 8.12207 16.5457 8.12207 16.1349V14.6651C8.12207 13.4032 8.419 12.4777 9.01287 11.9086C9.58199 11.3593 10.4876 11.0822 11.7001 11.0822H12.9868C12.7443 11.295 12.4721 11.5275 12.2197 11.7453C11.908 12.0076 11.8634 12.4777 12.1306 12.7895C12.3979 13.1013 12.8631 13.1458 13.1749 12.8786C13.1798 12.8736 13.1848 12.8736 13.1848 12.8687C13.4273 12.6608 14.6447 11.6166 14.8624 11.3939C15.5157 10.7407 15.5107 9.92412 14.8525 9.26097C14.4121 8.82052 13.2293 7.8159 13.1798 7.77136C12.868 7.50412 12.3979 7.54372 12.1356 7.85549C11.8684 8.16727 11.908 8.63741 12.2197 8.8997C12.2247 8.90465 12.6156 9.23623 13.0165 9.59254H11.6951C10.0868 9.59254 8.83471 10.0082 7.97855 10.8347C7.08776 11.6958 6.63246 12.9825 6.63246 14.6602V16.13C6.63741 16.5457 6.96899 16.8773 7.37974 16.8773ZM15.3029 22.1231L11.0172 17.8324C10.8291 17.6443 10.5817 17.5404 10.3194 17.5404H4.50445C3.61861 17.5454 3 18.164 3 19.0449V33.456C3 34.3567 3.60376 34.9654 4.50445 34.9654H14.1102C14.9812 34.9654 15.5949 34.3517 15.5949 33.4807V22.8209C15.5949 22.5586 15.4909 22.3062 15.3029 22.1231ZM12.0366 31.7239H6.57308C6.16232 31.7239 5.83075 31.3923 5.83075 30.9815C5.83075 30.5708 6.16232 30.2392 6.57308 30.2392H12.0416C12.4523 30.2392 12.7839 30.5708 12.7839 30.9815C12.7839 31.3923 12.4523 31.7239 12.0366 31.7239ZM12.0366 29.1504H6.57308C6.16232 29.1504 5.83075 28.8189 5.83075 28.4081C5.83075 27.9974 6.16232 27.6658 6.57308 27.6658H12.0416C12.4523 27.6658 12.7839 27.9974 12.7839 28.4081C12.7839 28.8189 12.4523 29.1504 12.0366 29.1504ZM12.0366 26.577H6.57308C6.16232 26.577 5.83075 26.2455 5.83075 25.8347C5.83075 25.424 6.16232 25.0924 6.57308 25.0924H12.0416C12.4523 25.0924 12.7839 25.424 12.7839 25.8347C12.7839 26.2455 12.4523 26.577 12.0366 26.577ZM12.3484 22.6229C11.0468 22.6229 10.5173 22.0934 10.5173 20.7918V20.1336L13.0066 22.6229H12.3484ZM37.7905 13.611C37.7905 13.5863 37.7855 13.5615 37.7806 13.5368C37.7806 13.5269 37.7806 13.5219 37.7757 13.512C37.7707 13.4824 37.7608 13.4576 37.7559 13.4279V13.418C37.746 13.3883 37.7361 13.3636 37.7262 13.3339L37.7212 13.324C37.7113 13.2992 37.6965 13.2745 37.6866 13.2498L37.6816 13.2349C37.6717 13.2102 37.6569 13.1904 37.642 13.1706C37.6371 13.1656 37.6371 13.1607 37.6321 13.1508L37.5876 13.0914C37.5826 13.0864 37.5777 13.0765 37.5727 13.0716C37.553 13.0469 37.5282 13.0221 37.5084 13.0023L29.7882 5.28209C29.7634 5.25734 29.7436 5.23755 29.714 5.21775L29.6942 5.2029L29.6348 5.15836L29.6199 5.14847C29.6001 5.13362 29.5754 5.11877 29.5556 5.10887L29.5457 5.10393C29.521 5.08908 29.4962 5.07918 29.4715 5.06928H29.4665C29.4368 5.05939 29.4121 5.04949 29.3824 5.03959H29.3725C29.3428 5.02969 29.3131 5.02474 29.2884 5.0198L29.2686 5.01485C29.2438 5.0099 29.2191 5.00495 29.1943 5.00495C29.1696 5.00495 29.13 5 29.0953 5H19.8905C18.7027 5 17.9604 5.73243 17.9604 6.91026V33.0551C17.9604 34.2527 18.7027 34.9951 19.8954 35H36.0831C36.8601 35 37.2709 34.6486 37.4837 34.3566C37.7707 33.9558 37.8053 33.4758 37.8053 33.1046V13.705C37.7954 13.6754 37.7954 13.6407 37.7905 13.611ZM33.0049 29.1851H22.741C22.1966 29.1851 21.7512 28.7397 21.7512 28.1953C21.7512 27.6509 22.1966 27.2055 22.741 27.2055H33.0049C33.5493 27.2055 33.9947 27.6509 33.9947 28.1953C33.9947 28.7397 33.5493 29.1851 33.0049 29.1851ZM33.0049 24.3204H22.741C22.1966 24.3204 21.7512 23.875 21.7512 23.3306C21.7512 22.7862 22.1966 22.3408 22.741 22.3408H33.0049C33.5493 22.3408 33.9947 22.7862 33.9947 23.3306C33.9947 23.875 33.5493 24.3204 33.0049 24.3204ZM33.0049 19.4903H22.741C22.1966 19.4903 21.7512 19.0449 21.7512 18.5005C21.7512 17.9561 22.1966 17.5107 22.741 17.5107H33.0049C33.5493 17.5107 33.9947 17.9561 33.9947 18.5005C33.9947 19.0449 33.5493 19.4903 33.0049 19.4903ZM32.9456 12.7202C32.03 12.7202 31.2926 12.4678 30.8077 11.9828C30.3227 11.4979 30.0752 10.7654 30.0752 9.84988V8.38007L34.4154 12.7202H32.9456Z" fill="#86888C"/>
</svg>
