<svg width="28" height="28" viewBox="0 0 28 28" fill="none" xmlns="http://www.w3.org/2000/svg">
<path d="M22.9366 2.69922H6.35267C4.50521 2.69922 3 4.19446 3 6.03527V17.4822C3 19.1236 4.09651 20.4561 5.59508 20.7551V23.5429C5.59508 24.1476 6.16659 24.6992 6.79127 24.6992C7.40598 24.6992 7.70503 24.3005 7.80471 24.1676L10.423 20.8182H22.9366C24.784 20.8182 26.2859 19.323 26.2859 17.4822V6.03195C26.2859 4.19446 24.784 2.69922 22.9366 2.69922ZM21.7138 9.85977H7.55883C7.19332 9.85977 6.89428 9.56072 6.89428 9.19522C6.89428 8.82971 7.19332 8.53066 7.55883 8.53066H21.7138C22.0793 8.53066 22.3783 8.82971 22.3783 9.19522C22.3783 9.56072 22.0793 9.85977 21.7138 9.85977ZM17.1782 15.0433H7.55883C7.19332 15.0433 6.89428 14.7442 6.89428 14.3787C6.89428 14.0132 7.19332 13.7142 7.55883 13.7142H17.1782C17.5437 13.7142 17.8428 14.0132 17.8428 14.3787C17.8428 14.7442 17.5437 15.0433 17.1782 15.0433Z" fill="#86888C"/>
</svg>
