<svg width="20" height="20" viewBox="0 0 20 20" fill="none" xmlns="http://www.w3.org/2000/svg">
<path fill-rule="evenodd" clip-rule="evenodd" d="M11.8809 16.1767H11.7785C11.4848 16.1699 11.1616 16.0765 10.9158 15.8671C10.6677 15.6577 10.4969 15.3367 10.4969 14.8519C10.4969 13.8913 11.1821 13.5408 11.7717 13.5408H11.8809C12.4705 13.5544 13.1534 13.9118 13.1534 14.8587C13.1534 15.8125 12.4682 16.163 11.8809 16.1767ZM8.19106 10.1764L8.46649 9.80538C8.53478 9.71888 8.56893 9.60962 8.56893 9.50263V3.01067H11.4166V9.50263C11.4166 9.61645 11.4507 9.71888 11.519 9.80538L11.799 10.1832C10.6745 10.3517 9.29961 10.3517 8.19106 10.1764ZM8.3413 14.0984H8.27984C7.85645 14.0916 7.42395 13.8162 7.42395 13.2107C7.42395 12.612 7.85417 12.3366 8.27984 12.3366H8.3413C8.77151 12.3434 9.20401 12.6189 9.20401 13.2175C9.20401 13.8162 8.77151 14.0916 8.3413 14.0984ZM17.822 16.4453L13.1056 10.2219L12.4409 9.34102V3.01067H13.0782C13.3673 3.01067 13.5927 2.78077 13.5927 2.50534C13.5927 2.2299 13.3673 2 13.0782 2H6.92545C6.64547 2 6.41101 2.2299 6.41101 2.50534C6.41101 2.78077 6.64319 3.01067 6.92545 3.01067H7.54004V9.34102L6.8822 10.2151L2.13842 16.5796C1.96087 16.8687 1.95177 17.2306 2.12477 17.522C2.28866 17.8179 2.61189 18 2.95333 18H16.973C17.3486 18 17.6991 17.8042 17.8767 17.481C18.0542 17.1601 18.0405 16.7822 17.822 16.4453Z" fill="#86888C"/>
</svg>
