<svg width="28" height="28" viewBox="0 0 28 28" fill="none" xmlns="http://www.w3.org/2000/svg">
<path fill-rule="evenodd" clip-rule="evenodd" d="M16.8214 23.265H16.6677C16.2273 23.2548 15.7424 23.1148 15.3737 22.8007C15.0015 22.4866 14.7454 22.0051 14.7454 21.2778C14.7454 19.837 15.7731 19.3111 16.6575 19.3111H16.8214C17.7057 19.3316 18.73 19.8677 18.73 21.2881C18.73 22.7187 17.7023 23.2446 16.8214 23.265ZM11.2866 14.2646L11.6997 13.7081C11.8022 13.5783 11.8534 13.4144 11.8534 13.2539V3.51601H16.1248V13.2539C16.1248 13.4247 16.1761 13.5783 16.2785 13.7081L16.6985 14.2749C15.0117 14.5275 12.9494 14.5275 11.2866 14.2646ZM11.5119 20.1477H11.4198C10.7847 20.1374 10.1359 19.7243 10.1359 18.816C10.1359 17.9181 10.7813 17.5049 11.4198 17.5049H11.5119C12.1573 17.5152 12.806 17.9283 12.806 18.8263C12.806 19.7243 12.1573 20.1374 11.5119 20.1477ZM25.733 23.6679L18.6583 14.3329L17.6613 13.0115V3.51601H18.6174C19.051 3.51601 19.389 3.17115 19.389 2.758C19.389 2.34486 19.051 2 18.6174 2H9.38817C8.9682 2 8.61651 2.34486 8.61651 2.758C8.61651 3.17115 8.96478 3.51601 9.38817 3.51601H10.3101V13.0115L9.3233 14.3227L2.20763 23.8694C1.94131 24.303 1.92765 24.8459 2.18715 25.283C2.43299 25.7268 2.91783 26 3.43 26H24.4594C25.0228 26 25.5487 25.7064 25.815 25.2215C26.0813 24.7401 26.0608 24.1733 25.733 23.6679Z" fill="#86888C"/>
</svg>
