<svg width="24" height="24" viewBox="0 0 24 24" fill="none" xmlns="http://www.w3.org/2000/svg">
<path fill-rule="evenodd" clip-rule="evenodd" d="M14.3511 19.7209H14.2231C13.8561 19.7123 13.452 19.5957 13.1447 19.3339C12.8346 19.0721 12.6212 18.6709 12.6212 18.0649C12.6212 16.8641 13.4776 16.426 14.2146 16.426H14.3511C15.0881 16.443 15.9417 16.8897 15.9417 18.0734C15.9417 19.2656 15.0853 19.7038 14.3511 19.7209ZM9.73883 12.2205L10.0831 11.7567C10.1685 11.6486 10.2112 11.512 10.2112 11.3783V3.26334H13.7707V11.3783C13.7707 11.5206 13.8134 11.6486 13.8987 11.7567L14.2487 12.2291C12.8431 12.4396 11.1245 12.4396 9.73883 12.2205ZM9.92662 17.1231H9.8498C9.32056 17.1145 8.77994 16.7702 8.77994 16.0134C8.77994 15.265 9.31772 14.9208 9.8498 14.9208H9.92662C10.4644 14.9293 11.005 15.2736 11.005 16.0219C11.005 16.7702 10.4644 17.1145 9.92662 17.1231ZM21.7775 20.0566L15.882 12.2774L15.0511 11.1763V3.26334H15.8478C16.2092 3.26334 16.4909 2.97596 16.4909 2.63167C16.4909 2.28738 16.2092 2 15.8478 2H8.15681C7.80683 2 7.51376 2.28738 7.51376 2.63167C7.51376 2.97596 7.80399 3.26334 8.15681 3.26334H8.92506V11.1763L8.10275 12.2689L2.17303 20.2245C1.95109 20.5859 1.93971 21.0383 2.15596 21.4025C2.36082 21.7724 2.76486 22 3.19167 22H20.7162C21.1857 22 21.6239 21.7553 21.8458 21.3513C22.0678 20.9501 22.0507 20.4777 21.7775 20.0566Z" fill="#86888C"/>
</svg>
