<svg width="28" height="28" viewBox="0 0 28 28" fill="none" xmlns="http://www.w3.org/2000/svg">
<path fill-rule="evenodd" clip-rule="evenodd" d="M8.52647 7.48776C8.23961 7.48776 8.0074 7.25896 8.0074 6.97553V2.51224C8.0074 2.23221 8.23961 2 8.52647 2H10.8145C11.1013 2 11.3335 2.2288 11.3335 2.51224V3.91577H12.4365V2.51224C12.4365 2.23221 12.6688 2 12.9556 2H14.9397C15.2265 2 15.4587 2.2288 15.4587 2.51224V4.00797L16.6027 3.99089V2.51224C16.6027 2.23221 16.8349 2 17.1218 2H19.502C19.7888 2 20.0211 2.2288 20.0211 2.51224V6.97894C20.0211 7.26238 19.7888 7.49118 19.502 7.49118H19.1503V7.48435H9.20262V7.49118H8.52647V7.48776ZM8.76551 19.358C8.76551 19.0746 8.99772 18.8458 9.28458 18.8458H10.2373C10.2237 18.7877 10.2168 18.7297 10.2203 18.6648L11.2106 10.2026H10.6779C10.391 10.2026 10.1588 9.97382 10.1588 9.69038V8.2971H17.9516V9.69038C17.9516 9.9704 17.7194 10.2026 17.4326 10.2026H16.8998L17.8902 18.6648C17.897 18.7262 17.8902 18.7877 17.8731 18.8458H18.7131C19 18.8458 19.2322 19.0746 19.2322 19.358V21.9055H8.76209V19.358H8.76551ZM20.4787 22.7217C20.7655 22.7217 20.9977 22.9505 20.9977 23.2339V25.4878C20.9977 25.7712 20.7655 26 20.4787 26H7.51907C7.23221 26 7 25.7712 7 25.4878V23.2339C7 22.9539 7.23221 22.7217 7.51907 22.7217H20.4787Z" fill="#86888C"/>
</svg>
