<svg width="28" height="28" viewBox="0 0 28 28" fill="none" xmlns="http://www.w3.org/2000/svg">
<path d="M22.008 2.75854C21.4134 2.12984 20.5866 2 19.9989 2H11.3474C11.1765 2 11.0091 2.06492 10.8827 2.18109L6.21868 6.50342C6.07859 6.63326 6 6.81435 6 7.00569V23.3178C6 24.1105 6.23235 24.7733 6.67312 25.2415C7.26424 25.8702 8.09112 26 8.68223 26H19.9989C21.0649 26 21.68 25.5866 22.008 25.2415C22.4487 24.7733 22.6811 24.1105 22.6811 23.3178V4.68223C22.6811 3.88952 22.4487 3.22665 22.008 2.75854ZM13.3497 12.8519C13.3497 12.664 13.5034 12.5103 13.6913 12.5103H14.9727C15.1606 12.5103 15.3144 12.664 15.3144 12.8519V14.1333C15.3144 14.3212 15.1606 14.4749 14.9727 14.4749H13.6913C13.5034 14.4749 13.3497 14.3212 13.3497 14.1333V12.8519ZM10.0251 12.8519C10.0251 12.664 10.1788 12.5103 10.3667 12.5103H11.6412C11.8292 12.5103 11.9829 12.664 11.9829 12.8519V14.1333C11.9829 14.3212 11.8292 14.4749 11.6412 14.4749H10.3667C10.1788 14.4749 10.0251 14.3212 10.0251 14.1333V12.8519ZM11.9829 21.3052C11.9829 21.4932 11.8292 21.6469 11.6412 21.6469H10.3667C10.1788 21.6469 10.0251 21.4932 10.0251 21.3052V20.0239C10.0251 19.836 10.1788 19.6822 10.3667 19.6822H11.6412C11.8292 19.6822 11.9829 19.836 11.9829 20.0239V21.3052ZM15.3144 21.3052C15.3144 21.4932 15.1606 21.6469 14.9727 21.6469H13.6913C13.5034 21.6469 13.3497 21.4932 13.3497 21.3052V20.0239C13.3497 19.836 13.5034 19.6822 13.6913 19.6822H14.9727C15.1606 19.6822 15.3144 19.836 15.3144 20.0239V21.3052ZM18.6526 21.3052C18.6526 21.4932 18.4989 21.6469 18.3109 21.6469H17.0194C16.8314 21.6469 16.6777 21.4932 16.6777 21.3052V20.0239C16.6777 19.836 16.8314 19.6822 17.0194 19.6822H18.3109C18.4989 19.6822 18.6526 19.836 18.6526 20.0239V21.3052ZM18.6526 17.9738C18.6526 18.1617 18.4989 18.3155 18.3109 18.3155H10.3667C10.1788 18.3155 10.0251 18.1617 10.0251 17.9738V16.1834C10.0251 15.9954 10.1788 15.8417 10.3667 15.8417H18.3109C18.4989 15.8417 18.6526 15.9954 18.6526 16.1834V17.9738ZM18.6526 14.1333C18.6526 14.3212 18.4989 14.4749 18.3109 14.4749H17.0194C16.8314 14.4749 16.6777 14.3212 16.6777 14.1333V12.8519C16.6777 12.664 16.8314 12.5103 17.0194 12.5103H18.3109C18.4989 12.5103 18.6526 12.664 18.6526 12.8519V14.1333Z" fill="#86888C"/>
</svg>
