<svg width="20" height="20" viewBox="0 0 20 20" fill="none" xmlns="http://www.w3.org/2000/svg">
<path d="M14.672 2.50569C14.2756 2.08656 13.7244 2 13.3326 2H7.56492C7.45102 2 7.33941 2.04328 7.25513 2.12073L4.14579 5.00228C4.05239 5.08884 4 5.20957 4 5.33713V16.2118C4 16.7403 4.1549 17.1822 4.44875 17.4943C4.84282 17.9134 5.39408 18 5.78815 18H13.3326C14.0433 18 14.4533 17.7244 14.672 17.4943C14.9658 17.1822 15.1207 16.7403 15.1207 16.2118V3.78815C15.1207 3.25968 14.9658 2.81777 14.672 2.50569ZM8.89977 9.23462C8.89977 9.10934 9.00228 9.00683 9.12756 9.00683H9.98178C10.1071 9.00683 10.2096 9.10934 10.2096 9.23462V10.0888C10.2096 10.2141 10.1071 10.3166 9.98178 10.3166H9.12756C9.00228 10.3166 8.89977 10.2141 8.89977 10.0888V9.23462ZM6.68337 9.23462C6.68337 9.10934 6.78588 9.00683 6.91116 9.00683H7.76082C7.8861 9.00683 7.98861 9.10934 7.98861 9.23462V10.0888C7.98861 10.2141 7.8861 10.3166 7.76082 10.3166H6.91116C6.78588 10.3166 6.68337 10.2141 6.68337 10.0888V9.23462ZM7.98861 14.8702C7.98861 14.9954 7.8861 15.0979 7.76082 15.0979H6.91116C6.78588 15.0979 6.68337 14.9954 6.68337 14.8702V14.0159C6.68337 13.8907 6.78588 13.7882 6.91116 13.7882H7.76082C7.8861 13.7882 7.98861 13.8907 7.98861 14.0159V14.8702ZM10.2096 14.8702C10.2096 14.9954 10.1071 15.0979 9.98178 15.0979H9.12756C9.00228 15.0979 8.89977 14.9954 8.89977 14.8702V14.0159C8.89977 13.8907 9.00228 13.7882 9.12756 13.7882H9.98178C10.1071 13.7882 10.2096 13.8907 10.2096 14.0159V14.8702ZM12.4351 14.8702C12.4351 14.9954 12.3326 15.0979 12.2073 15.0979H11.3462C11.221 15.0979 11.1185 14.9954 11.1185 14.8702V14.0159C11.1185 13.8907 11.221 13.7882 11.3462 13.7882H12.2073C12.3326 13.7882 12.4351 13.8907 12.4351 14.0159V14.8702ZM12.4351 12.6492C12.4351 12.7745 12.3326 12.877 12.2073 12.877H6.91116C6.78588 12.877 6.68337 12.7745 6.68337 12.6492V11.4556C6.68337 11.3303 6.78588 11.2278 6.91116 11.2278H12.2073C12.3326 11.2278 12.4351 11.3303 12.4351 11.4556V12.6492ZM12.4351 10.0888C12.4351 10.2141 12.3326 10.3166 12.2073 10.3166H11.3462C11.221 10.3166 11.1185 10.2141 11.1185 10.0888V9.23462C11.1185 9.10934 11.221 9.00683 11.3462 9.00683H12.2073C12.3326 9.00683 12.4351 9.10934 12.4351 9.23462V10.0888Z" fill="#86888C"/>
</svg>
