<svg width="24" height="24" viewBox="0 0 24 24" fill="none" xmlns="http://www.w3.org/2000/svg">
<path fill-rule="evenodd" clip-rule="evenodd" d="M14.3967 4.214C14.317 3.96073 14.0751 3.19522 12.5014 3.19522C10.8025 3.19522 10.5464 4.0461 10.5122 4.78884L10.5065 5.14172C10.5179 5.41207 10.5293 5.80478 12.5014 5.80478C14.4735 5.80478 14.4849 5.41491 14.4935 5.18441V4.85714C14.4906 4.63802 14.4565 4.42174 14.3967 4.214ZM18.3722 3.45418C19.2402 3.45418 20 4.07456 20 4.78031V20.6739C20 21.3939 19.2544 22 18.3722 22H6.62777C5.74559 22 5 21.391 5 20.6739V4.77746C5 4.07171 5.76266 3.45134 6.62777 3.45134H9.63005C10.1081 2.52362 11.0956 2 12.5014 2C14.2146 2 15.0085 2.71998 15.3756 3.45418H18.3722ZM11.7928 5.18156C11.4826 5.18156 11.2322 4.93113 11.2322 4.62379C11.2322 4.31645 11.4826 4.06602 11.7928 4.06602H13.2072C13.5174 4.06602 13.7706 4.31645 13.7706 4.62379C13.7706 4.93113 13.5174 5.18156 13.2072 5.18156H11.7928Z" fill="#86888C"/>
</svg>
