<svg width="20" height="20" viewBox="0 0 20 20" fill="none" xmlns="http://www.w3.org/2000/svg">
<path fill-rule="evenodd" clip-rule="evenodd" d="M12.8162 13.037C12.7183 13.1349 12.5908 13.1827 12.4633 13.1827C12.3335 13.1827 12.2083 13.1326 12.1104 13.037L9.64713 10.576C9.55379 10.4826 9.50142 10.3552 9.50142 10.2208V6.88788C9.50142 6.61241 9.72453 6.38702 10.0023 6.38702C10.28 6.38702 10.5031 6.61013 10.5031 6.88788V10.0137L12.8207 12.329C13.012 12.5248 13.012 12.8412 12.8162 13.037ZM9.99772 2C4.94365 2 2 4.55208 2 10.0023C2 15.4525 4.94365 18 9.99772 18C15.0518 18 18 15.4525 18 10.0023C18 4.55208 15.0518 2 9.99772 2Z" fill="#86888C"/>
</svg>
