<svg width="24" height="24" viewBox="0 0 24 24" fill="none" xmlns="http://www.w3.org/2000/svg">
<path fill-rule="evenodd" clip-rule="evenodd" d="M15.5202 15.7962C15.3978 15.9186 15.2385 15.9784 15.0791 15.9784C14.9169 15.9784 14.7604 15.9158 14.638 15.7962L11.5589 12.72C11.4422 12.6033 11.3768 12.4439 11.3768 12.276V8.10985C11.3768 7.76551 11.6557 7.48378 12.0028 7.48378C12.35 7.48378 12.6289 7.76266 12.6289 8.10985V12.0171L15.5259 14.9112C15.7649 15.1559 15.7649 15.5515 15.5202 15.7962ZM11.9972 2C5.67957 2 2 5.1901 2 12.0028C2 18.8156 5.67957 22 11.9972 22C18.3147 22 22 18.8156 22 12.0028C22 5.1901 18.3147 2 11.9972 2Z" fill="#86888C"/>
</svg>
