<svg width="24" height="24" viewBox="0 0 24 24" fill="none" xmlns="http://www.w3.org/2000/svg">
<path fill-rule="evenodd" clip-rule="evenodd" d="M20.7336 19.6437C20.7251 20.3694 20.321 20.745 19.5441 20.745C18.7672 20.745 18.3717 20.3779 18.3717 19.6608V19.51C18.3802 19.0176 18.5908 18.4229 19.5128 18.4087H19.5953C20.5174 18.4257 20.7279 19.0091 20.7365 19.5014C20.7336 19.5014 20.7336 19.6437 20.7336 19.6437ZM5.63688 19.5014V19.6437C5.61981 20.3694 5.2214 20.745 4.44735 20.745C3.67046 20.745 3.2749 20.3779 3.26636 19.6608V19.51C3.28344 19.0091 3.49402 18.4001 4.45589 18.4001C5.40922 18.4001 5.62834 19.0006 5.63688 19.5014ZM20.1873 17.2134V15.3352C20.1844 14.988 19.8998 14.7092 19.5526 14.7092H12.5635C12.5748 14.6665 12.5891 14.6238 12.5891 14.5754V13.6306L15.8731 13.6135C17.905 13.6135 20.2869 12.4866 20.2869 9.29368C20.2869 6.43654 18.3887 5.23278 16.4707 5.02504C15.3921 2.15936 12.0854 2 11.4081 2C8.99488 2 6.19465 3.25213 6.01537 6.75242C5.1218 7.13091 4.02334 8.00455 4.02334 10.0364C4.02334 12.7114 5.99829 13.6534 7.69437 13.6534L11.3227 13.6363V14.5726C11.3227 14.6238 11.3398 14.6636 11.3483 14.7063H4.43882C4.27092 14.7063 4.11155 14.7718 3.99203 14.8913C3.87536 15.0108 3.80706 15.173 3.80421 15.3438L3.81275 17.2134C2.52362 17.4809 2.02561 18.5509 2 19.4787V19.6779C2.01707 20.7479 2.65737 22 4.44735 22C6.2288 22 6.88617 20.7393 6.90324 19.6636V19.4787C6.88617 18.5424 6.37962 17.4724 5.07911 17.2049V15.9613H18.9209V17.2134C17.6289 17.4724 17.1224 18.5509 17.1053 19.4787C17.1053 19.5356 17.0968 19.6124 17.1053 19.6779C17.1138 20.7479 17.7541 22 19.5441 22C21.3341 22 21.9829 20.7393 22 19.6636V19.4787C21.9829 18.5424 21.4849 17.4724 20.1873 17.2134Z" fill="#86888C"/>
</svg>
