<svg width="40" height="40" viewBox="0 0 40 40" fill="none" xmlns="http://www.w3.org/2000/svg">
<path fill-rule="evenodd" clip-rule="evenodd" d="M28.7447 25.2813C28.6459 25.505 28.4273 25.6507 28.1828 25.6559H24.7382C24.5977 25.6559 24.5041 25.7496 24.4937 25.8901V34.4234L16.054 34.4078V30.7603C16.0696 30.7447 16.0696 30.7447 16.0696 30.7291V26.0462C16.0696 25.9213 15.9655 25.8224 15.8407 25.8276L12.3701 25.812C12.1255 25.812 11.907 25.6611 11.8237 25.4322C11.7145 25.2033 11.7613 24.9327 11.9434 24.7558L19.9356 16.3161C20.0449 16.1964 20.201 16.1288 20.3675 16.1288C20.534 16.1288 20.6849 16.2068 20.8098 16.3161L28.6198 24.5997C28.7863 24.7922 28.8332 25.042 28.7447 25.2813ZM29.8426 11.2898C27.6572 4.35902 20.0605 4 18.5359 4C16.5639 4 6.84423 4.55155 6.6465 15.3171C4.69008 16.0403 2 17.9291 2 22.7837C2 28.705 6.04813 30.828 9.85691 30.828L14.5294 30.7967V34.5847C14.5294 35.3704 15.2006 36 16.0124 36H24.5405C25.347 36 26.0234 35.3704 26.0234 34.6003V30.7343L28.958 30.7187C30.5606 30.7187 38.5685 30.2452 38.5685 20.973C38.5685 12.8663 32.4702 11.4979 29.8426 11.2898Z" fill="#86888C"/>
</svg>
