<svg width="24" height="24" viewBox="0 0 24 24" fill="none" xmlns="http://www.w3.org/2000/svg">
<rect width="24" height="24" fill="white"/>
<path fill-rule="evenodd" clip-rule="evenodd" d="M17.0439 14.9707C16.9883 15.0966 16.8654 15.1785 16.7278 15.1815H14.7902C14.7112 15.1815 14.6585 15.2341 14.6527 15.3132V20.1132L9.90537 20.1044V18.0527C9.91415 18.0439 9.91415 18.0439 9.91415 18.0351V15.401C9.91415 15.3307 9.85561 15.2751 9.78537 15.278L7.83317 15.2693C7.69561 15.2693 7.57268 15.1844 7.52585 15.0556C7.46439 14.9268 7.49073 14.7746 7.59317 14.6751L12.0888 9.92781C12.1502 9.86049 12.238 9.82244 12.3317 9.82244C12.4254 9.82244 12.5102 9.86634 12.5805 9.92781L16.9737 14.5873C17.0673 14.6956 17.0937 14.8361 17.0439 14.9707ZM17.6615 7.10049C16.4322 3.20195 12.159 3 11.3015 3C10.1922 3 4.72488 3.31024 4.61366 9.36585C3.51317 9.77268 2 10.8351 2 13.5659C2 16.8966 4.27707 18.0907 6.41951 18.0907L9.04781 18.0732V20.2039C9.04781 20.6459 9.42537 21 9.88195 21H14.679C15.1327 21 15.5132 20.6459 15.5132 20.2127V18.038L17.1639 18.0293C18.0654 18.0293 22.5698 17.7629 22.5698 12.5473C22.5698 7.98732 19.1395 7.21756 17.6615 7.10049Z" fill="#86888C"/>
</svg>
