<svg width="20" height="20" viewBox="0 0 20 20" fill="none" xmlns="http://www.w3.org/2000/svg">
<path d="M14.4636 7.49939C14.3744 7.49939 14.2851 7.50663 14.1983 7.50904C14.0849 7.51145 14.0632 7.41256 14.0391 7.35949C13.2552 5.60592 11.5161 4.47949 9.59608 4.47949C6.90904 4.47949 5.0204 6.55869 5.0204 9.35909C5.0204 9.44351 4.9818 9.52552 4.73577 9.59547C3.52733 9.93798 2.48291 11.1078 2.48291 12.5092C2.48291 14.1712 3.82884 15.5171 5.49075 15.5171H14.4636C16.6779 15.534 18.4845 13.7539 18.5014 11.5396C18.5183 9.32532 16.7382 7.51869 14.5239 7.5018C14.5046 7.49939 14.4853 7.49939 14.4636 7.49939Z" fill="#86888C"/>
<path d="M14.4631 16H5.49025C3.56543 16 2 14.4322 2 12.5097C2 11.7307 2.27015 10.9853 2.78151 10.3534C3.24221 9.78171 3.86693 9.35719 4.54231 9.15216C4.58814 7.75075 5.08261 6.47477 5.94854 5.54372C6.87236 4.54754 8.17005 4 9.59799 4C11.6482 4.00241 13.52 5.17467 14.4149 7.02231H14.4655C16.9427 7.02231 18.9568 9.03638 18.9568 11.5136C18.9568 13.9908 16.9379 16 14.4631 16ZM9.59558 4.96241C9.00462 4.96241 8.44503 5.07337 7.93608 5.29286C7.44884 5.50271 7.01226 5.81146 6.65286 6.1998C5.90995 7.0006 5.50231 8.12221 5.50231 9.36201C5.50231 9.6008 5.39136 9.91437 4.86553 10.0615C4.35658 10.2062 3.88141 10.5246 3.52925 10.9588C3.27357 11.2772 2.96482 11.8078 2.96482 12.5097C2.96724 13.9039 4.09608 15.0328 5.49025 15.0352H14.4631C16.4072 15.0352 17.9895 13.4529 17.9895 11.5087C17.9895 9.56462 16.4072 7.98231 14.4631 7.98231C14.4197 7.98231 14.369 7.98472 14.3184 7.98714C14.2822 7.98955 14.2484 7.98955 14.2123 7.99196C14.082 7.99678 13.7588 7.96302 13.5996 7.5602L13.5972 7.55296C12.8905 5.97789 11.325 4.96482 9.59558 4.96241Z" fill="#86888C"/>
</svg>
