<svg width="20" height="20" viewBox="0 0 20 20" fill="none" xmlns="http://www.w3.org/2000/svg">
<path fill-rule="evenodd" clip-rule="evenodd" d="M16.9869 16.115C16.9801 16.6955 16.6568 16.996 16.0353 16.996C15.4138 16.996 15.0973 16.7023 15.0973 16.1286V16.008C15.1042 15.6141 15.2726 15.1383 16.0102 15.1269H16.0763C16.8139 15.1406 16.9824 15.6073 16.9892 16.0011C16.9869 16.0011 16.9869 16.115 16.9869 16.115ZM4.90951 16.0011V16.115C4.89585 16.6955 4.57712 16.996 3.95788 16.996C3.33637 16.996 3.01992 16.7023 3.01309 16.1286V16.008C3.02675 15.6073 3.19522 15.1201 3.96471 15.1201C4.72738 15.1201 4.90268 15.6005 4.90951 16.0011ZM16.5498 14.1707V12.6682C16.5475 12.3904 16.3199 12.1673 16.0421 12.1673H10.4508C10.4599 12.1332 10.4713 12.099 10.4713 12.0603V11.3045L13.0985 11.2908C14.724 11.2908 16.6295 10.3893 16.6295 7.83495C16.6295 5.54923 15.111 4.58623 13.5766 4.42003C12.7137 2.12749 10.0683 2 9.52647 2C7.5959 2 5.35572 3.00171 5.21229 5.80194C4.49744 6.10472 3.61867 6.80364 3.61867 8.42914C3.61867 10.5692 5.19863 11.3227 6.55549 11.3227L9.45817 11.309V12.0581C9.45817 12.099 9.47183 12.1309 9.47866 12.1651H3.95105C3.81673 12.1651 3.68924 12.2174 3.59363 12.313C3.50028 12.4087 3.44565 12.5384 3.44337 12.675L3.4502 14.1707C2.4189 14.3847 2.02049 15.2408 2 15.9829V16.1423C2.01366 16.9983 2.5259 18 3.95788 18C5.38304 18 5.90894 16.9915 5.9226 16.1309V15.9829C5.90894 15.2339 5.5037 14.3779 4.46329 14.1639V13.169H15.5367V14.1707C14.5031 14.3779 14.0979 15.2408 14.0842 15.9829C14.0842 16.0285 14.0774 16.0899 14.0842 16.1423C14.0911 16.9983 14.6033 18 16.0353 18C17.4673 18 17.9863 16.9915 18 16.1309V15.9829C17.9863 15.2339 17.5879 14.3779 16.5498 14.1707Z" fill="#86888C"/>
</svg>
