<svg width="28" height="28" viewBox="0 0 28 28" fill="none" xmlns="http://www.w3.org/2000/svg">
<path fill-rule="evenodd" clip-rule="evenodd" d="M24.2584 21.5862C24.4086 21.5862 24.5316 21.4667 24.5316 21.3233V9.54183H3.46841V21.3233C3.46841 21.4667 3.59135 21.5862 3.7416 21.5862H24.2584ZM5.88617 7.69436C5.87934 7.32555 5.57541 7.03187 5.2066 7.0387C4.83779 7.03187 4.53386 7.32214 4.52362 7.69095V7.69436C4.52362 8.05634 4.82755 8.35003 5.20319 8.35003C5.57541 8.35686 5.87934 8.06317 5.88617 7.69436ZM7.9317 7.69436C7.92487 7.32555 7.62094 7.03187 7.25213 7.0387H7.24872C6.87991 7.03187 6.57598 7.32555 6.56915 7.69436C6.56915 8.05634 6.87308 8.35003 7.24872 8.35003C7.62094 8.35686 7.92487 8.06317 7.9317 7.69436ZM9.97723 7.69436C9.9704 7.32555 9.66647 7.03187 9.29766 7.0387H9.29425C8.92544 7.03187 8.62151 7.32214 8.61127 7.69095V7.69436C8.61127 8.05634 8.91519 8.35003 9.29425 8.35003C9.66647 8.35686 9.9704 8.06317 9.97723 7.69436ZM24.2584 5C25.218 5 26 5.75469 26 6.68014V21.3199C26 22.2453 25.218 23 24.2584 23H3.74502C2.78201 23.0034 2 22.2487 2 21.3233V6.68014C2 5.75469 2.78201 5 3.74502 5H24.2584ZM10.4861 13.1207C10.7319 13.3802 10.7217 13.7866 10.4621 14.0324C10.4553 14.0393 10.4451 14.0461 10.4382 14.0529L8.19465 16.0131L10.4417 18.0142C10.708 18.2498 10.7353 18.6562 10.5031 18.9226C10.4963 18.9328 10.4895 18.9397 10.4792 18.9465C10.346 19.0831 10.165 19.1582 9.97381 19.1582C9.80307 19.1582 9.63574 19.0967 9.50939 18.9806L6.71257 16.498C6.57256 16.3751 6.49402 16.1975 6.49402 16.0097C6.49402 15.8218 6.57598 15.6443 6.7194 15.5213L9.51622 13.0763C9.79965 12.8304 10.2265 12.8509 10.4861 13.1207ZM18.4325 13.0763L21.2294 15.5213C21.3694 15.6443 21.4513 15.8218 21.4547 16.0063C21.4547 16.1941 21.3728 16.3716 21.2328 16.4946L18.436 18.9841C18.3062 19.0967 18.1423 19.1616 17.9681 19.1616C17.7803 19.1616 17.5959 19.0865 17.4661 18.9499C17.2168 18.6938 17.2237 18.2874 17.4764 18.0381C17.4832 18.0313 17.4934 18.021 17.5037 18.0142L19.7507 16.0131L17.5071 14.0563C17.2373 13.8241 17.2032 13.4178 17.4354 13.148C17.4422 13.1377 17.4525 13.1309 17.4593 13.1207C17.7222 12.8509 18.1457 12.8304 18.4325 13.0763ZM15.3864 12.9909C15.7314 13.1411 15.8884 13.5304 15.7314 13.8651L13.4639 18.745C13.3477 18.9841 13.1053 19.1377 12.8389 19.1343C12.7433 19.1343 12.6477 19.1138 12.5589 19.0763C12.214 18.926 12.0569 18.5367 12.214 18.2055L14.4815 13.3255C14.6454 12.9875 15.045 12.8406 15.3864 12.9909Z" fill="#86888C"/>
</svg>
