<svg width="40" height="40" viewBox="0 0 40 40" fill="none" xmlns="http://www.w3.org/2000/svg">
<path fill-rule="evenodd" clip-rule="evenodd" d="M35.3876 31.8793C35.613 31.8793 35.7974 31.7 35.7974 31.4849V13.8127H4.20262V31.4849C4.20262 31.7 4.38702 31.8793 4.61241 31.8793H35.3876ZM7.82925 11.0415C7.81901 10.4883 7.36312 10.0478 6.8099 10.0581C6.25668 10.0478 5.80079 10.4832 5.78543 11.0364V11.0415C5.78543 11.5845 6.24132 12.025 6.80478 12.025C7.36312 12.0353 7.81901 11.5948 7.82925 11.0415ZM10.8975 11.0415C10.8873 10.4883 10.4314 10.0478 9.8782 10.0581H9.87307C9.31986 10.0478 8.86397 10.4883 8.85372 11.0415C8.85372 11.5845 9.30961 12.025 9.87307 12.025C10.4314 12.0353 10.8873 11.5948 10.8975 11.0415ZM13.9658 11.0415C13.9556 10.4883 13.4997 10.0478 12.9465 10.0581H12.9414C12.3882 10.0478 11.9323 10.4832 11.9169 11.0364V11.0415C11.9169 11.5845 12.3728 12.025 12.9414 12.025C13.4997 12.0353 13.9556 11.5948 13.9658 11.0415ZM35.3876 7C36.827 7 38 8.13204 38 9.5202V31.4798C38 32.8679 36.827 34 35.3876 34H4.61753C3.17302 34.0051 2 32.8731 2 31.4849V9.5202C2 8.13204 3.17302 7 4.61753 7H35.3876ZM14.7291 19.181C15.0979 19.5703 15.0825 20.1798 14.6932 20.5487C14.683 20.5589 14.6676 20.5691 14.6574 20.5794L11.292 23.5196L14.6625 26.5213C15.062 26.8748 15.103 27.4843 14.7547 27.8839C14.7444 27.8992 14.7342 27.9095 14.7188 27.9197C14.5191 28.1246 14.2476 28.2373 13.9607 28.2373C13.7046 28.2373 13.4536 28.1451 13.2641 27.971L9.06886 24.247C8.85885 24.0626 8.74103 23.7962 8.74103 23.5145C8.74103 23.2328 8.86397 22.9664 9.07911 22.782L13.2743 19.1144C13.6995 18.7456 14.3398 18.7763 14.7291 19.181ZM26.6488 19.1144L30.844 22.782C31.054 22.9664 31.177 23.2328 31.1821 23.5094C31.1821 23.7911 31.0592 24.0575 30.8492 24.2419L26.6539 27.9761C26.4593 28.1451 26.2134 28.2424 25.9522 28.2424C25.6704 28.2424 25.3938 28.1298 25.1992 27.9249C24.8253 27.5407 24.8355 26.9311 25.2146 26.5572C25.2248 26.5469 25.2402 26.5316 25.2555 26.5213L28.626 23.5196L25.2607 20.5845C24.856 20.2362 24.8048 19.6266 25.1531 19.222C25.1633 19.2066 25.1787 19.1963 25.1889 19.181C25.5834 18.7763 26.2185 18.7456 26.6488 19.1144ZM22.0797 18.9863C22.597 19.2117 22.8327 19.7957 22.597 20.2977L19.1958 27.6175C19.0216 27.9761 18.6579 28.2066 18.2584 28.2015C18.115 28.2015 17.9715 28.1707 17.8384 28.1144C17.321 27.889 17.0854 27.3051 17.321 26.8082L20.7222 19.4883C20.9681 18.9812 21.5674 18.7609 22.0797 18.9863Z" fill="#86888C"/>
</svg>
