<svg width="20" height="20" viewBox="0 0 20 20" fill="none" xmlns="http://www.w3.org/2000/svg">
<path fill-rule="evenodd" clip-rule="evenodd" d="M16.8389 15.0575C16.9391 15.0575 17.021 14.9778 17.021 14.8822V7.02789H2.97894V14.8822C2.97894 14.9778 3.0609 15.0575 3.16107 15.0575H16.8389ZM4.59078 5.79624C4.58622 5.55037 4.38361 5.35458 4.13773 5.35913C3.89186 5.35458 3.68924 5.54809 3.68241 5.79397V5.79624C3.68241 6.03756 3.88503 6.23335 4.13546 6.23335C4.38361 6.2379 4.58622 6.04212 4.59078 5.79624ZM5.95447 5.79624C5.94991 5.55037 5.74729 5.35458 5.50142 5.35913H5.49914C5.25327 5.35458 5.05065 5.55037 5.0461 5.79624C5.0461 6.03756 5.24872 6.23335 5.49914 6.23335C5.74729 6.2379 5.94991 6.04212 5.95447 5.79624ZM7.31815 5.79624C7.3136 5.55037 7.11098 5.35458 6.86511 5.35913H6.86283C6.61696 5.35458 6.41434 5.54809 6.40751 5.79397V5.79624C6.40751 6.03756 6.61013 6.23335 6.86283 6.23335C7.11098 6.2379 7.3136 6.04212 7.31815 5.79624ZM16.8389 4C17.4786 4 18 4.50313 18 5.12009V14.8799C18 15.4969 17.4786 16 16.8389 16H3.16335C2.52134 16.0023 2 15.4991 2 14.8822V5.12009C2 4.50313 2.52134 4 3.16335 4H16.8389ZM7.65737 9.41377C7.82128 9.58679 7.81445 9.85771 7.64143 10.0216C7.63688 10.0262 7.63005 10.0307 7.62549 10.0353L6.12976 11.3421L7.62777 12.6761C7.80535 12.8332 7.82356 13.1041 7.66875 13.2817C7.6642 13.2886 7.65964 13.2931 7.65281 13.2977C7.56403 13.3887 7.44337 13.4388 7.31588 13.4388C7.20205 13.4388 7.09049 13.3978 7.00626 13.3204L5.14172 11.6653C5.04838 11.5834 4.99601 11.465 4.99601 11.3398C4.99601 11.2146 5.05065 11.0962 5.14627 11.0142L7.01081 9.38417C7.19977 9.22026 7.48434 9.23392 7.65737 9.41377ZM12.955 9.38417L14.8196 11.0142C14.9129 11.0962 14.9675 11.2146 14.9698 11.3375C14.9698 11.4627 14.9152 11.5811 14.8218 11.6631L12.9573 13.3227C12.8708 13.3978 12.7615 13.4411 12.6454 13.4411C12.5202 13.4411 12.3973 13.391 12.3108 13.2999C12.1446 13.1292 12.1491 12.8583 12.3176 12.6921C12.3221 12.6875 12.329 12.6807 12.3358 12.6761L13.8338 11.3421L12.3381 10.0376C12.1582 9.88275 12.1355 9.61183 12.2903 9.43198C12.2948 9.42515 12.3016 9.4206 12.3062 9.41377C12.4815 9.23392 12.7638 9.22026 12.955 9.38417ZM10.9243 9.32726C11.1542 9.42743 11.259 9.68696 11.1542 9.91007L9.64257 13.1633C9.56516 13.3227 9.40352 13.4252 9.22595 13.4229C9.1622 13.4229 9.09846 13.4092 9.03927 13.3842C8.80933 13.284 8.70461 13.0245 8.80933 12.8036L10.321 9.55037C10.4303 9.32498 10.6966 9.22709 10.9243 9.32726Z" fill="#86888C"/>
</svg>
