<svg width="26" height="20" viewBox="0 0 26 20" fill="none" xmlns="http://www.w3.org/2000/svg">
<path d="M10.7028 11.0796C10.2965 11.0796 9.9707 10.7502 9.9707 10.3476V8.9054C9.9707 8.49911 10.3001 8.17334 10.7028 8.17334C11.1091 8.17334 11.4348 8.50277 11.4348 8.9054V10.3476C11.4348 10.7502 11.1054 11.0796 10.7028 11.0796Z" fill="#86888C"/>
<path d="M8.60176 16.4165H2.83309C0.980967 16.4165 0 15.4392 0 13.5835V2.83675C0 0.980966 0.980967 0 2.83309 0H8.60176C10.4283 0 11.4348 1.00659 11.4348 2.83309V5.4795C11.4348 5.8858 11.1054 6.21157 10.7028 6.21157C10.2965 6.21157 9.97072 5.88214 9.97072 5.4795V2.83309C9.97072 1.81186 9.62665 1.46779 8.60542 1.46779H2.83309C1.78624 1.46779 1.46779 1.78624 1.46779 2.83309V13.5835C1.46779 14.6303 1.78624 14.9488 2.83309 14.9488H8.60176C9.48024 14.9488 9.68155 14.6669 9.74744 14.5754C9.9817 14.246 10.4429 14.1691 10.7723 14.407C11.1018 14.6413 11.1786 15.1025 10.9407 15.4319C10.4649 16.0944 9.69985 16.4165 8.60176 16.4165Z" fill="#86888C"/>
<path d="M15.026 11.8154C14.6197 11.8154 14.2939 11.486 14.2939 11.0834V9.57533C14.2939 9.16903 14.6234 8.84326 15.026 8.84326C15.4323 8.84326 15.7581 9.17269 15.7581 9.57533V11.0834C15.7617 11.486 15.4323 11.8154 15.026 11.8154Z" fill="#86888C"/>
<path d="M22.8957 20H17.127C15.3005 20 14.2939 18.9935 14.2939 17.167V14.6962C14.2939 14.2899 14.6234 13.9642 15.026 13.9642C15.4323 13.9642 15.7581 14.2936 15.7581 14.6962V17.167C15.7581 18.1882 16.1021 18.5323 17.1234 18.5323H22.892C23.9389 18.5323 24.2573 18.2138 24.2573 17.167V6.41659C24.2573 5.36973 23.9389 5.05129 22.892 5.05129H17.127C16.201 5.05129 16.0143 5.35875 15.9448 5.47588C15.7361 5.82361 15.2859 5.93708 14.9382 5.72844C14.5904 5.51981 14.477 5.06959 14.6856 4.72186C15.1358 3.96783 15.9594 3.5835 17.1234 3.5835H22.892C24.7478 3.5835 25.7251 4.56446 25.7251 6.41659V17.167C25.7288 19.0227 24.7478 20 22.8957 20Z" fill="#86888C"/>
<path d="M5.71726 13.0269C6.10525 13.0269 6.35782 13.2318 6.35782 13.6674C6.35782 13.8797 6.29925 14.0334 6.19676 14.1396C6.08329 14.2531 5.92224 14.308 5.72092 14.308C5.5196 14.308 5.35489 14.2531 5.24508 14.1396C5.14259 14.0334 5.08402 13.8761 5.08402 13.6674C5.08036 13.2282 5.32927 13.0269 5.71726 13.0269Z" fill="#86888C"/>
<path d="M20.0113 16.5884C20.3993 16.5884 20.6519 16.7934 20.6519 17.2289C20.6519 17.4412 20.5933 17.595 20.4908 17.7011C20.3774 17.8146 20.2163 17.8695 20.015 17.8695C19.8137 17.8695 19.6489 17.8146 19.5391 17.7011C19.4366 17.595 19.3781 17.4376 19.3781 17.2289C19.3708 16.7934 19.6233 16.5884 20.0113 16.5884Z" fill="#86888C"/>
<path d="M13.6529 10.487C13.2868 10.487 13.005 10.1905 12.9977 9.79889L12.983 8.9863L9.35564 8.968C9.341 8.968 9.33002 8.968 9.3227 8.968C9.07745 8.968 8.84685 8.86185 8.68214 8.67517C8.52475 8.49581 8.44422 8.25789 8.46252 8.01997L8.46618 6.26302C8.45886 6.04706 8.55037 5.81646 8.71874 5.64442C8.90176 5.45409 9.15066 5.35892 9.42152 5.38088L13.0416 5.37722L13.0306 4.62319C13.0269 4.42187 13.0965 4.23886 13.2246 4.10709C13.4515 3.88015 13.8286 3.85819 14.1104 4.07048L17.4925 6.60343C17.6865 6.74984 17.7963 6.9658 17.7963 7.20006C17.7963 7.43432 17.6829 7.65028 17.4889 7.79303L14.0811 10.3296C13.953 10.4321 13.8029 10.487 13.6529 10.487ZM9.56428 7.8699L13.2758 7.8882C13.7151 7.89186 14.0775 8.25423 14.0848 8.68981L14.0884 8.96434L16.4567 7.20006L14.147 5.47239L14.1507 5.66272C14.1543 5.88234 14.0701 6.08366 13.9201 6.2374C13.7663 6.39113 13.565 6.47532 13.3491 6.47532L9.56794 6.47898L9.56428 7.8699Z" fill="#86888C"/>
<path d="M12.0756 16.0799C11.9255 16.0799 11.7755 16.0286 11.64 15.9298L8.23227 13.3932C8.03827 13.2468 7.9248 13.0308 7.9248 12.8002C7.9248 12.566 8.03461 12.35 8.22861 12.2072L11.6107 9.6743C11.8963 9.462 12.2733 9.4803 12.4965 9.71091C12.6247 9.84268 12.6942 10.022 12.6905 10.2234L12.6796 10.9774L16.2996 10.981C16.5668 10.9591 16.8194 11.0542 17.0024 11.2446C17.1671 11.4166 17.2623 11.6472 17.255 11.8778L17.2586 13.6201C17.2769 13.8617 17.2001 14.0996 17.039 14.2753C16.8743 14.462 16.64 14.5682 16.3985 14.5682C16.3911 14.5682 16.3765 14.5682 16.3655 14.5682L12.7381 14.5865L12.7235 15.399C12.7235 15.7834 12.4416 16.0799 12.0756 16.0799ZM9.27546 12.7966L11.6437 14.5608L11.6474 14.2826C11.6547 13.8471 12.0134 13.4884 12.4526 13.481L16.1642 13.4627L16.1605 12.0791L12.3831 12.0718C12.1671 12.0718 11.9621 11.9876 11.8121 11.8339C11.6583 11.6802 11.5778 11.4752 11.5815 11.2592L11.5851 11.0689L9.27546 12.7966Z" fill="#86888C"/>
</svg>
