<svg width="28" height="28" viewBox="0 0 28 28" fill="none" xmlns="http://www.w3.org/2000/svg">
<path fill-rule="evenodd" clip-rule="evenodd" d="M21.5999 7.88807C22.3714 7.88807 22.996 8.56052 22.996 9.3934V10.7212C22.996 11.5541 22.3714 12.2266 21.5999 12.2266H21.1357V12.23H4.86033V12.2266H4.3961C3.62466 12.2266 3 11.5541 3 10.7212V9.38999C3 8.5571 3.62466 7.88465 4.3961 7.88465H7.81638V7.06884C7.81638 6.93571 7.86417 6.80942 7.95292 6.71384L8.71412 5.89461C8.54004 5.70687 8.44446 5.45427 8.44446 5.18802C8.44446 4.92177 8.54004 4.66577 8.71754 4.47803L9.81326 3.29697C9.98734 3.10923 10.2263 3.00341 10.4721 3.00341C10.7178 3.00341 10.9568 3.10923 11.1308 3.29697L11.7965 4.01721C12.1583 4.40976 12.1583 5.04125 11.7965 5.43379L10.7008 6.61143C10.5198 6.80942 10.2809 6.90499 10.042 6.90499C9.80643 6.90499 9.56749 6.806 9.38316 6.61143L9.36951 6.59778L8.74484 7.27023V7.87783H17.2512V7.27023L16.6231 6.59095L16.606 6.60802C16.4251 6.806 16.1862 6.90158 15.9472 6.90158C15.7083 6.90158 15.4728 6.80259 15.2884 6.60802L14.1927 5.43038C13.8309 5.03783 13.8309 4.40293 14.1927 4.0138L14.8618 3.29356C15.0358 3.10582 15.2714 3 15.5206 3C15.7663 3 16.0053 3.10582 16.1793 3.29356L17.2751 4.47461C17.4492 4.66235 17.5481 4.91836 17.5481 5.18461C17.5481 5.44403 17.4492 5.69663 17.2819 5.88096L18.0499 6.70701C18.1387 6.80259 18.1865 6.92889 18.1865 7.06201V7.87783H21.5999V7.88807ZM4.86033 13.3974V13.0287H21.1357V13.3974C21.1357 14.2269 20.511 14.9027 19.7396 14.9027H18.3332V14.9061H7.65937V14.9027H6.25302C5.48499 14.9027 4.86033 14.2269 4.86033 13.3974ZM7.65937 22.1461V15.7049H18.3332V22.1461H7.65937ZM19.7123 22.9448C20.4837 22.9448 21.1084 23.6173 21.1084 24.4501V25.4947C21.1084 26.3275 20.4837 27 19.7123 27H6.28033C5.50889 27 4.88423 26.3275 4.88423 25.4947V24.4501C4.88423 23.6275 5.49524 22.9619 6.25302 22.9482H18.6951V22.9448H19.7123Z" fill="#86888C"/>
</svg>
