<svg width="24" height="24" viewBox="0 0 24 24" fill="none" xmlns="http://www.w3.org/2000/svg">
<path fill-rule="evenodd" clip-rule="evenodd" d="M18.4999 6.07339C19.1428 6.07339 19.6633 6.63376 19.6633 7.32783V8.43436C19.6633 9.12843 19.1428 9.68881 18.4999 9.68881H18.1131V9.69165H4.55028V9.68881H4.16342C3.52055 9.68881 3 9.12843 3 8.43436V7.32499C3 6.63092 3.52055 6.07054 4.16342 6.07054H7.01365V5.3907C7.01365 5.27976 7.05348 5.17451 7.12744 5.09487L7.76177 4.41217C7.6167 4.25572 7.53705 4.04523 7.53705 3.82335C7.53705 3.60148 7.6167 3.38814 7.76461 3.23169L8.67771 2.24748C8.82278 2.09103 9.0219 2.00284 9.22671 2.00284C9.43152 2.00284 9.63064 2.09103 9.77571 2.24748L10.3304 2.84767C10.6319 3.1748 10.6319 3.70104 10.3304 4.02816L9.41729 5.00953C9.26653 5.17451 9.06741 5.25416 8.8683 5.25416C8.67202 5.25416 8.47291 5.17167 8.3193 5.00953L8.30792 4.99815L7.78737 5.55853V6.06486H14.876V5.55853L14.3526 4.99246L14.3384 5.00668C14.1876 5.17167 13.9885 5.25132 13.7894 5.25132C13.5902 5.25132 13.394 5.16882 13.2404 5.00668L12.3273 4.02532C12.0257 3.69819 12.0257 3.16911 12.3273 2.84483L12.8848 2.24463C13.0299 2.08818 13.2261 2 13.4338 2C13.6386 2 13.8377 2.08818 13.9828 2.24463L14.8959 3.22884C15.041 3.38529 15.1235 3.59863 15.1235 3.82051C15.1235 4.03669 15.041 4.24719 14.9016 4.4008L15.5416 5.08918C15.6156 5.16882 15.6554 5.27407 15.6554 5.38501V6.06486H18.4999V6.07339ZM4.55028 10.6645V10.3573H18.1131V10.6645C18.1131 11.3557 17.5925 11.9189 16.9497 11.9189H15.7777V11.9218H6.8828V11.9189H5.71085C5.07083 11.9189 4.55028 11.3557 4.55028 10.6645ZM6.8828 17.9551V12.5874H15.7777V17.9551H6.8828ZM16.9269 18.6207C17.5698 18.6207 18.0903 19.1811 18.0903 19.8751V20.7456C18.0903 21.4396 17.5698 22 16.9269 22H5.73361C5.09074 22 4.57019 21.4396 4.57019 20.7456V19.8751C4.57019 19.1896 5.07936 18.6349 5.71085 18.6235H16.0792V18.6207H16.9269Z" fill="#86888C"/>
</svg>
