<svg width="20" height="20" viewBox="0 0 20 20" fill="none" xmlns="http://www.w3.org/2000/svg">
<path fill-rule="evenodd" clip-rule="evenodd" d="M14.897 10.0603C14.1434 10.0603 13.4627 10.3404 12.9277 10.7867L11.6892 9.70058C12.0467 9.20421 12.2652 8.59855 12.2652 7.94052C12.2652 7.8631 12.247 7.79024 12.2425 7.7151L14.1935 7.13903C14.5441 7.71282 15.1725 8.0999 15.8941 8.0999C16.9983 8.0999 17.893 7.20279 17.893 6.10075C17.893 4.99872 16.996 4.10161 15.8941 4.10161C14.7923 4.10161 13.893 4.99872 13.893 6.10075C13.893 6.11897 13.8976 6.13263 13.8976 6.15085L11.9966 6.71097C11.5231 5.65903 10.469 4.91903 9.24189 4.91903C8.4041 4.91903 7.64826 5.26057 7.0996 5.81158L5.88845 4.7733C6.03643 4.5069 6.12977 4.20179 6.12977 3.87391C6.12977 2.84019 5.28742 2 4.25384 2C3.22026 2 2.38019 2.84019 2.38019 3.87391C2.38019 4.90764 3.22026 5.74783 4.25384 5.74783C4.58395 5.74783 4.88902 5.65675 5.15766 5.50647L6.51224 6.66543C6.33011 7.05479 6.22083 7.48285 6.22083 7.93824C6.22083 8.58261 6.428 9.17917 6.77405 9.67098L5.67217 10.7502C5.28287 10.4338 4.79567 10.2357 4.25612 10.2357C3.01309 10.2357 2 11.2466 2 12.4898C2 13.733 3.01081 14.744 4.25612 14.744C5.50142 14.744 6.51224 13.733 6.51224 12.4898C6.51224 12.1619 6.43711 11.85 6.30962 11.5677L7.50484 10.3996C7.99658 10.748 8.59533 10.9574 9.24417 10.9574C9.87934 10.9574 10.469 10.7594 10.9562 10.4224L12.2538 11.5608C11.9715 12.0276 11.8008 12.5672 11.8008 13.1524C11.8008 13.5554 11.8828 13.9357 12.0239 14.2886L10.6739 14.9102C10.3301 14.5117 9.82698 14.2522 9.25783 14.2522C8.22425 14.2522 7.3819 15.0924 7.3819 16.1261C7.3819 17.1575 8.22425 18 9.25783 18C10.2914 18 11.1315 17.1598 11.1315 16.1261C11.1315 16.0305 11.1178 15.9394 11.1042 15.8483L12.5703 15.1743C13.1394 15.8278 13.9681 16.2513 14.8993 16.2513C16.609 16.2513 18 14.8624 18 13.1547C17.9977 11.4515 16.6067 10.0603 14.897 10.0603Z" fill="#86888C"/>
</svg>
