<svg width="24" height="24" viewBox="0 0 24 24" fill="none" xmlns="http://www.w3.org/2000/svg">
<path fill-rule="evenodd" clip-rule="evenodd" d="M18.1212 12.0754C17.1793 12.0754 16.3284 12.4255 15.6596 12.9834L14.1116 11.6257C14.5583 11.0053 14.8315 10.2482 14.8315 9.42564C14.8315 9.32888 14.8088 9.2378 14.8031 9.14387L17.2419 8.42379C17.6801 9.14103 18.4656 9.62488 19.3677 9.62488C20.7479 9.62488 21.8662 8.50349 21.8662 7.12594C21.8662 5.7484 20.745 4.62701 19.3677 4.62701C17.9903 4.62701 16.8662 5.7484 16.8662 7.12594C16.8662 7.14871 16.8719 7.16579 16.8719 7.18856L14.4957 7.88871C13.9038 6.57379 12.5862 5.64878 11.0524 5.64878C10.0051 5.64878 9.06033 6.07571 8.3745 6.76448L6.86056 5.46663C7.04553 5.13363 7.16221 4.75224 7.16221 4.34239C7.16221 3.05023 6.10928 2 4.8173 2C3.52533 2 2.47524 3.05023 2.47524 4.34239C2.47524 5.63455 3.52533 6.68479 4.8173 6.68479C5.22994 6.68479 5.61127 6.57094 5.94707 6.38309L7.6403 7.83179C7.41263 8.31849 7.27604 8.85357 7.27604 9.4228C7.27604 10.2283 7.535 10.974 7.96756 11.5887L6.59021 12.9378C6.10359 12.5422 5.49459 12.2946 4.82015 12.2946C3.26636 12.2946 2 13.5583 2 15.1123C2 16.6663 3.26352 17.93 4.82015 17.93C6.37678 17.93 7.6403 16.6663 7.6403 15.1123C7.6403 14.7024 7.54639 14.3125 7.38702 13.9596L8.88105 12.4995C9.49573 12.935 10.2442 13.1968 11.0552 13.1968C11.8492 13.1968 12.5862 12.9492 13.1952 12.528L14.8173 13.951C14.4644 14.5345 14.251 15.2091 14.251 15.9405C14.251 16.4443 14.3534 16.9196 14.5299 17.3608L12.8423 18.1378C12.4126 17.6397 11.7837 17.3152 11.0723 17.3152C9.78031 17.3152 8.72738 18.3654 8.72738 19.6576C8.72738 20.9469 9.78031 22 11.0723 22C12.3643 22 13.4143 20.9498 13.4143 19.6576C13.4143 19.5381 13.3973 19.4242 13.3802 19.3104L15.2129 18.4679C15.9243 19.2848 16.9602 19.8141 18.1241 19.8141C20.2612 19.8141 22 18.078 22 15.9434C21.9972 13.8144 20.2584 12.0754 18.1212 12.0754Z" fill="#86888C"/>
</svg>
