<svg width="28" height="28" viewBox="0 0 28 28" fill="none" xmlns="http://www.w3.org/2000/svg">
<path fill-rule="evenodd" clip-rule="evenodd" d="M21.3455 14.0905C20.2151 14.0905 19.1941 14.5106 18.3916 15.18L16.5339 13.5509C17.07 12.8063 17.3978 11.8978 17.3978 10.9108C17.3978 10.7946 17.3705 10.6854 17.3637 10.5726L20.2903 9.70855C20.8162 10.5692 21.7587 11.1499 22.8412 11.1499C24.4974 11.1499 25.8395 9.80418 25.8395 8.15113C25.8395 6.49808 24.494 5.15241 22.8412 5.15241C21.1884 5.15241 19.8395 6.49808 19.8395 8.15113C19.8395 8.17845 19.8463 8.19895 19.8463 8.22627L16.9949 9.06646C16.2846 7.48854 14.7035 6.37854 12.8628 6.37854C11.6061 6.37854 10.4724 6.89085 9.6494 7.71738L7.83267 6.15995C8.05464 5.76035 8.19465 5.30269 8.19465 4.81087C8.19465 3.26028 6.93113 2 5.38076 2C3.83039 2 2.57029 3.26028 2.57029 4.81087C2.57029 6.36146 3.83039 7.62174 5.38076 7.62174C5.87592 7.62174 6.33352 7.48513 6.73648 7.25971L8.76835 8.99815C8.49516 9.58218 8.33125 10.2243 8.33125 10.9074C8.33125 11.8739 8.642 12.7687 9.16107 13.5065L7.50825 15.1254C6.9243 14.6506 6.19351 14.3535 5.38418 14.3535C3.51964 14.3535 2 15.8699 2 17.7347C2 19.5995 3.51622 21.116 5.38418 21.116C7.25213 21.116 8.76835 19.5995 8.76835 17.7347C8.76835 17.2429 8.65566 16.775 8.46443 16.3515L10.2573 14.5994C10.9949 15.122 11.893 15.4362 12.8662 15.4362C13.819 15.4362 14.7035 15.139 15.4343 14.6336L17.3808 16.3413C16.9573 17.0414 16.7012 17.8509 16.7012 18.7286C16.7012 19.3331 16.8241 19.9035 17.0359 20.4329L15.0108 21.3653C14.4952 20.7676 13.7405 20.3783 12.8867 20.3783C11.3364 20.3783 10.0729 21.6385 10.0729 23.1891C10.0729 24.7363 11.3364 26 12.8867 26C14.4371 26 15.6972 24.7397 15.6972 23.1891C15.6972 23.0457 15.6767 22.9091 15.6562 22.7724L17.8554 21.7615C18.7092 22.7417 19.9522 23.377 21.3489 23.377C23.9135 23.377 26 21.2936 26 18.732C25.9966 16.1773 23.9101 14.0905 21.3455 14.0905Z" fill="#86888C"/>
</svg>
