<svg width="20" height="20" viewBox="0 0 20 20" fill="none" xmlns="http://www.w3.org/2000/svg">
<path d="M13.9378 17.9335C13.6799 17.9335 13.4722 17.7258 13.4722 17.4679V2.53154C13.4722 2.27362 13.6799 2.06592 13.9378 2.06592C14.1957 2.06592 14.4034 2.27362 14.4034 2.53154V17.4679C14.4034 17.7258 14.1957 17.9335 13.9378 17.9335Z" fill="#86888C"/>
<path d="M15.2275 8.08944H14.0794C13.8215 8.08944 13.6138 7.88174 13.6138 7.62382C13.6138 7.36591 13.8215 7.1582 14.0794 7.1582H15.2275C15.4854 7.1582 15.6931 7.36591 15.6931 7.62382C15.6931 7.88174 15.4854 8.08944 15.2275 8.08944Z" fill="#86888C"/>
<path d="M13.4631 18H6.37375C5.06362 18 4 16.9341 4 15.6262V4.15692C4 3.58174 4.22368 3.0408 4.62996 2.63224C5.03623 2.22368 5.57718 2 6.15464 2H13.4631C14.691 2 15.693 2.99971 15.693 4.22996V15.7723C15.693 17.0003 14.6933 18 13.4631 18ZM6.15464 2.93124C5.82825 2.93124 5.52011 3.05906 5.28959 3.28959C5.05906 3.52011 4.93124 3.82825 4.93124 4.15692V15.6262C4.93124 16.4228 5.57946 17.071 6.37603 17.071H13.4653C14.182 17.071 14.7641 16.489 14.7641 15.7723V4.22996C14.7641 3.51327 14.182 2.93124 13.4653 2.93124H6.15464Z" fill="#86888C"/>
<path d="M12.0387 2.03662H6.02904C4.9289 2.03662 4.03646 2.92906 4.03418 4.03149V15.7701C4.03646 16.9821 5.01792 17.9636 6.2299 17.9659H12.0387C13.1777 17.9636 14.0998 17.0415 14.0998 15.9048V4.09768C14.0998 2.95873 13.1777 2.03662 12.0387 2.03662ZM9.23817 5.98983C10.4981 5.98983 11.2216 6.71337 11.2216 7.97328C11.2216 9.2332 10.4981 9.94989 9.23817 9.94989C7.97826 9.94989 7.26157 9.23091 7.26157 7.97328C7.26157 6.71565 7.98282 5.98983 9.23817 5.98983ZM12.1232 13.248C12.1232 13.4945 11.9497 13.6954 11.7375 13.6954H6.74573C6.53347 13.6954 6.36 13.4945 6.36 13.248V12.5222C6.36 11.9311 6.5289 11.4221 6.84388 11.05C7.18397 10.6529 7.67926 10.4429 8.27726 10.4429H10.2037C10.8017 10.4429 11.2969 10.6529 11.637 11.05C11.9543 11.4198 12.1209 11.9288 12.1209 12.5222L12.1232 13.248Z" fill="#86888C"/>
<path d="M15.1952 12.8438H14.0472C13.7892 12.8438 13.5815 12.6361 13.5815 12.3782C13.5815 12.1203 13.7892 11.9126 14.0472 11.9126H15.1952C15.4532 11.9126 15.6609 12.1203 15.6609 12.3782C15.6609 12.6361 15.4532 12.8438 15.1952 12.8438Z" fill="#86888C"/>
</svg>
