<svg width="28" height="28" viewBox="0 0 28 28" fill="none" xmlns="http://www.w3.org/2000/svg">
<path fill-rule="evenodd" clip-rule="evenodd" d="M24.2431 21.4023C25.0803 21.3912 25.5063 20.9256 25.5063 20.0169C25.5063 19.1119 25.0877 18.6501 24.2653 18.6426C24.2505 18.6426 24.2393 18.6352 24.2245 18.6352C24.1875 19.5923 24.106 20.5197 23.9541 21.3912C23.9985 21.3949 24.0467 21.3986 24.0763 21.3986L24.2431 21.4023ZM23.5836 14.3261C23.8059 14.1101 23.917 13.7861 23.917 13.3653C23.917 12.9444 23.8059 12.6204 23.5836 12.4007C23.3687 12.1884 23.0576 12.0804 22.6649 12.0804C22.5722 12.0804 22.4907 12.0841 22.4092 12.099C22.387 12.1027 22.3796 12.099 22.3685 12.0841C22.3537 12.0692 22.3611 12.0655 22.3648 12.0431C22.3833 11.9091 22.3944 11.7675 22.3944 11.6186C22.3944 10.9929 22.2277 10.5124 21.898 10.1847C21.5794 9.87558 21.1237 9.71543 20.5347 9.71543C19.9493 9.71543 19.49 9.87558 19.1751 10.1884C19.0084 10.3597 18.8861 10.572 18.8009 10.8216C18.7935 10.8402 18.7935 10.8551 18.7787 10.8662C18.7564 10.8774 18.7379 10.87 18.7157 10.8662C18.5971 10.8476 18.4712 10.8402 18.3378 10.8402C17.7525 10.8402 17.2968 11.0003 16.9782 11.3132C16.8782 11.41 16.7967 11.5255 16.7263 11.6521C16.7263 11.6558 16.7226 11.6595 16.7226 11.6633C16.7152 11.6856 16.7078 11.6856 16.6855 11.6893C16.6559 11.693 16.6522 11.6819 16.63 11.6595C16.3447 11.3765 15.9335 11.235 15.4074 11.235C14.8777 11.235 14.4664 11.3765 14.1849 11.6595C14.0552 11.7824 13.9663 11.9426 13.8959 12.1176C13.8959 12.1176 13.8589 12.1511 13.8218 12.1437C13.7848 12.1325 13.7737 12.0953 13.7737 12.0953C13.7514 11.6558 13.6366 11.2983 13.3884 11.0599C13.1365 10.8067 12.766 10.68 12.2955 10.68C11.825 10.68 11.4583 10.8067 11.2026 11.0599C11.0619 11.1977 10.9655 11.3765 10.8952 11.585C10.8914 11.5925 10.8877 11.5999 10.8803 11.6037C10.8655 11.6111 10.8544 11.5999 10.847 11.5999C10.6432 11.4361 10.3876 11.3541 10.0468 11.3541C9.65409 11.3541 9.3466 11.4621 9.13544 11.6707C9.0243 11.7824 8.9428 11.924 8.89093 12.0841C8.88723 12.1027 8.88352 12.1139 8.8687 12.1213C8.85018 12.1325 8.83536 12.1251 8.81313 12.1251C8.73904 12.1139 8.66124 12.1102 8.57603 12.1102C8.18334 12.1102 7.87956 12.2182 7.66839 12.4267C7.60912 12.4826 7.57207 12.5496 7.53502 12.6241C7.5165 12.6539 7.5128 12.6763 7.47945 12.6874C7.44241 12.7023 7.40907 12.6837 7.36831 12.6725C7.25717 12.6353 7.13122 12.6092 6.98673 12.6092C6.66072 12.6092 6.40881 12.6986 6.23098 12.8699C6.17541 12.9295 6.12725 12.9966 6.0865 13.0748C6.06427 13.112 6.07168 13.1455 6.03093 13.1642C5.99018 13.1828 5.94572 13.1716 5.90127 13.1604C5.80865 13.1418 5.70863 13.1306 5.59378 13.1306C5.27148 13.1306 5.01585 13.22 4.84173 13.3913C4.66021 13.5701 4.56759 13.8383 4.56759 14.1846V14.6427H11.5212C11.5361 14.639 11.5546 14.6353 11.5731 14.6353H13.5921C13.607 14.639 13.6255 14.639 13.6403 14.6427H22.6723C23.065 14.6353 23.3687 14.5347 23.5836 14.3261ZM3.95262 21.4023C3.97484 21.4023 4.00819 21.3986 4.03412 21.3949C3.88593 20.5532 3.80443 19.6333 3.76368 18.6464C2.94865 18.6612 2.53373 19.1193 2.53373 20.0169C2.53373 20.9256 2.95977 21.3912 3.79702 21.4023H3.95262ZM24.2764 17.0784C25.5508 17.0896 27.0364 17.868 27.0364 20.0206C27.0364 22.1696 25.5434 22.9554 24.2653 22.974H24.1764C24.0615 22.974 23.7874 22.9703 23.5688 22.9479C22.8834 25.041 21.5498 26.5792 18.9491 26.9181C18.8676 26.9516 18.775 26.9702 18.6861 26.9702H18.3971C18.223 26.9814 17.9933 26.9963 17.7488 26.9963C17.5043 26.9963 17.2783 26.9814 17.056 26.9702L10.884 26.9739C10.7062 26.9851 10.4802 27 10.2357 27C6.90153 27 5.2085 25.4917 4.39718 22.9368C4.10821 22.974 4.03041 22.974 3.86741 22.974H3.77109C2.49298 22.9554 1 22.1696 1 20.0206C1 17.8903 2.45964 17.1082 3.72663 17.0821V15.9835C3.64513 15.9276 3.56363 15.8643 3.49324 15.7898C3.20427 15.4993 3.04127 15.0971 3.04127 14.68V14.1846C3.04127 13.2051 3.44508 12.5981 3.7822 12.2666C4.07487 11.9724 4.58241 11.6297 5.3678 11.5739C5.69751 11.3132 6.19394 11.0636 6.90523 11.045C7.17938 10.8476 7.54984 10.6651 8.03515 10.5869L8.0759 10.5497C8.42414 10.2033 9.05023 9.79364 10.0505 9.79364C10.132 9.79364 10.2098 9.79737 10.2913 9.80109C10.6877 9.46218 11.3323 9.11954 12.2955 9.11954C13.2847 9.11954 13.933 9.4808 14.3294 9.82344C14.6332 9.73033 14.9925 9.67447 15.4037 9.67447C15.7816 9.67447 16.115 9.72288 16.4003 9.80482C16.767 9.57018 17.2561 9.36907 17.897 9.30576C17.9636 9.22755 18.034 9.14561 18.1081 9.07485C18.5268 8.65773 19.2899 8.16239 20.531 8.16239C21.772 8.16239 22.5352 8.65773 22.9538 9.07113C23.2872 9.39887 23.6688 9.93144 23.8355 10.7471C24.1912 10.8923 24.4542 11.0972 24.6394 11.2796C25.0099 11.6409 25.4434 12.3001 25.4434 13.3727C25.4434 14.449 25.0025 15.1045 24.6357 15.4695C24.532 15.5701 24.3986 15.6743 24.2505 15.7712V17.0896H24.2764V17.0784ZM13.1735 4.66153C12.3177 4.90734 11.9954 5.45109 12.2103 6.27789L12.2511 6.43058L14.8814 5.67082C14.8517 5.61496 14.8184 5.57027 14.7999 5.51068C14.5702 4.69877 14.0219 4.41945 13.1735 4.66153ZM4.44904 10.2815C4.11192 10.2815 3.80443 10.0543 3.71181 9.71171C3.59697 9.29459 3.83407 8.85884 4.24158 8.74339L10.7803 6.85516C10.7655 6.79929 10.747 6.73598 10.7321 6.66894C10.4024 5.41757 10.7359 3.73045 12.7623 3.14946C14.7925 2.56101 15.9224 3.81611 16.2743 5.06748C16.2928 5.13452 16.2891 5.19783 16.2891 5.26115L22.7167 3.40644C23.1279 3.29098 23.5503 3.53306 23.6614 3.94646C23.7763 4.36359 23.5429 4.79933 23.1354 4.91478L4.6565 10.2555C4.58611 10.2741 4.51943 10.2815 4.44904 10.2815Z" fill="#86888C"/>
</svg>
