<svg width="28" height="28" viewBox="0 0 28 28" fill="none" xmlns="http://www.w3.org/2000/svg">
<path fill-rule="evenodd" clip-rule="evenodd" d="M23.8694 20.6873H4.71957C4.57172 20.6873 4.45279 20.5716 4.45279 20.427V15.7151H24.1362V20.427C24.133 20.5716 24.0141 20.6873 23.8694 20.6873ZM4.71957 7.51579H23.8694C24.0173 7.51579 24.1362 7.63149 24.1362 7.77613V9.97782H4.45279V7.77613C4.45279 7.63149 4.57172 7.51579 4.71957 7.51579ZM25.5922 10.6849C25.5922 10.6496 25.5761 10.6206 25.5729 10.5885V7.77613C25.5729 6.85046 24.808 6.10156 23.8694 6.10156H4.71957C3.77782 6.10156 3.01286 6.85046 3.01286 7.77613V10.6303C3.00964 10.6496 3 10.6656 3 10.6849V15.008C3 15.0272 3.00964 15.0433 3.01286 15.0626V20.427C3.01286 21.3495 3.77782 22.1016 4.71957 22.1016H23.8694C24.808 22.1016 25.5729 21.3495 25.5729 20.427V15.1012C25.5761 15.069 25.5922 15.0401 25.5922 15.0047V10.6849Z" fill="#86888C"/>
</svg>
