<svg width="40" height="40" viewBox="0 0 40 40" fill="none" xmlns="http://www.w3.org/2000/svg">
<path fill-rule="evenodd" clip-rule="evenodd" d="M35.9128 31.8035H4.7943C4.55404 31.8035 4.36079 31.6154 4.36079 31.3804V23.7235H36.3463V31.3804C36.3411 31.6154 36.1479 31.8035 35.9128 31.8035ZM4.7943 10.3997H35.9128C36.1531 10.3997 36.3463 10.5877 36.3463 10.8227V14.4005H4.36079V10.8227C4.36079 10.5877 4.55404 10.3997 4.7943 10.3997ZM38.7123 15.5495C38.7123 15.4921 38.6862 15.4451 38.681 15.3928V10.8227C38.681 9.31852 37.4379 8.10156 35.9128 8.10156H4.7943C3.26396 8.10156 2.02089 9.31852 2.02089 10.8227V15.4607C2.01567 15.4921 2 15.5182 2 15.5495V22.5744C2 22.6058 2.01567 22.6319 2.02089 22.6632V31.3804C2.02089 32.8794 3.26396 34.1016 4.7943 34.1016H35.9128C37.4379 34.1016 38.681 32.8794 38.681 31.3804V22.7259C38.6862 22.6737 38.7123 22.6267 38.7123 22.5692V15.5495Z" fill="#86888C"/>
</svg>
