<svg width="24" height="24" viewBox="0 0 24 24" fill="none" xmlns="http://www.w3.org/2000/svg">
<path fill-rule="evenodd" clip-rule="evenodd" d="M20.2607 18.8641H3.50462C3.37525 18.8641 3.27119 18.7629 3.27119 18.6363V14.5134H20.4942V18.6363C20.4914 18.7629 20.3873 18.8641 20.2607 18.8641ZM3.50462 7.33901H20.2607C20.3901 7.33901 20.4942 7.44025 20.4942 7.56681V9.49329H3.27119V7.56681C3.27119 7.44025 3.37525 7.33901 3.50462 7.33901ZM21.7682 10.112C21.7682 10.0811 21.7541 10.0558 21.7513 10.0276V7.56681C21.7513 6.75685 21.082 6.10156 20.2607 6.10156H3.50462C2.68059 6.10156 2.01125 6.75685 2.01125 7.56681V10.0642C2.00844 10.0811 2 10.0951 2 10.112V13.8947C2 13.9115 2.00844 13.9256 2.01125 13.9425V18.6363C2.01125 19.4435 2.68059 20.1016 3.50462 20.1016H20.2607C21.082 20.1016 21.7513 19.4435 21.7513 18.6363V13.9762C21.7541 13.9481 21.7682 13.9228 21.7682 13.8918V10.112Z" fill="#86888C"/>
</svg>
