<svg width="24" height="24" viewBox="0 0 24 24" fill="none" xmlns="http://www.w3.org/2000/svg">
<path fill-rule="evenodd" clip-rule="evenodd" d="M18.1762 19.1295C18.825 19.1295 19.0328 18.9303 19.0328 18.307C19.0328 17.6838 18.825 17.4817 18.1762 17.4817C17.5301 17.4817 17.3224 17.6838 17.3224 18.307C17.3224 18.9303 17.5301 19.1295 18.1762 19.1295ZM18.1762 16.6592C19.2548 16.6592 19.8865 17.1857 19.8865 18.307C19.8865 19.4283 19.2576 19.9548 18.1762 19.9548C17.0976 19.9548 16.4686 19.4311 16.4686 18.307C16.4686 17.1829 17.0947 16.6592 18.1762 16.6592ZM5.95297 19.0896C6.59899 19.0896 6.80674 18.8904 6.80674 18.2672C6.80674 17.6439 6.59899 17.4419 5.95297 17.4419C5.30695 17.4419 5.0992 17.6411 5.0992 18.2672C5.0992 18.8904 5.30695 19.0896 5.95297 19.0896ZM5.95297 16.6194C7.03157 16.6194 7.66051 17.1459 7.66051 18.2672C7.66051 19.3885 7.03157 19.915 5.95297 19.915C4.87437 19.915 4.24542 19.3885 4.24542 18.2672C4.24542 17.143 4.87437 16.6194 5.95297 16.6194ZM18.1107 20.8C19.9634 20.8 20.7175 20.0658 20.7175 18.2871C20.7175 16.4999 19.9662 15.7656 18.1107 15.7656C16.258 15.7656 15.4953 16.497 15.4953 18.2871C15.4953 20.0658 16.258 20.8 18.1107 20.8ZM11.1838 12.3733C11.5025 12.3733 11.6875 12.2139 11.6875 11.8753C11.6875 11.548 11.5025 11.3886 11.1838 11.3886C10.8536 11.3886 10.6686 11.548 10.6686 11.8753C10.6658 12.2139 10.8508 12.3733 11.1838 12.3733ZM5.8932 20.726C7.74589 20.726 8.50006 20.0003 8.50006 18.2131C8.50006 16.4259 7.74874 15.6916 5.8932 15.6916C4.03767 15.6916 3.27781 16.423 3.27781 18.2131C3.27781 20.0003 4.04052 20.726 5.8932 20.726ZM18.1107 14.5305C20.5724 14.5305 21.9982 15.7258 21.9982 18.2871C21.9982 20.8427 20.5724 22.0352 18.1107 22.0352C15.649 22.0352 14.2146 20.8399 14.2146 18.2871C14.2146 17.7948 14.2915 17.365 14.3939 16.978C13.7365 15.3473 12.7803 14.448 11.5423 14.2857C11.363 14.3427 11.1752 14.4252 11.013 14.5248C10.4495 14.8805 9.96285 15.481 9.4762 16.4116C9.4762 16.4202 9.46767 16.4202 9.46767 16.4287C9.67257 16.9324 9.78356 17.5159 9.78356 18.2159C9.78356 20.7687 8.34638 21.964 5.89605 21.964C3.43434 21.964 2 20.7687 2 18.2159C2 15.6632 3.43434 14.4593 5.89605 14.4593C6.19487 14.4593 6.48515 14.485 6.75836 14.5163C6.77544 14.4992 6.77544 14.4764 6.79251 14.4593L8.70496 12.6209L3.86976 7.96498C2.92777 7.05144 2.35005 6.12652 2.16222 5.21298C1.9317 4.11731 2.28175 3.07855 3.17821 2.22193C3.4258 1.97434 3.83561 1.97434 4.08321 2.2134L11.8241 9.61276L19.4881 2.22193C19.7442 1.97434 20.1455 1.97434 20.3931 2.22193C21.2896 3.07855 21.6396 4.11731 21.4091 5.21298C21.2213 6.12652 20.6492 7.05144 19.7016 7.96498L14.9176 12.5697L17.0634 14.6216C17.3935 14.5703 17.735 14.5305 18.1107 14.5305Z" fill="#86888C"/>
</svg>
