<svg width="40" height="40" viewBox="0 0 40 40" fill="none" xmlns="http://www.w3.org/2000/svg">
<path fill-rule="evenodd" clip-rule="evenodd" d="M13.8207 31.4182C13.1959 31.4182 12.694 30.906 12.694 30.2812V22.9265C12.694 22.2965 13.201 21.7895 13.8207 21.7895C14.4405 21.7895 14.9475 22.3016 14.9475 22.9265V30.2812C14.9475 30.9111 14.4405 31.4182 13.8207 31.4182ZM13.8207 32.0584C14.4558 32.0584 14.968 32.5757 14.968 33.2159C14.968 33.8561 14.4558 34.3734 13.8207 34.3734C13.1857 34.3734 12.6735 33.8561 12.6735 33.2159C12.6735 32.5757 13.1857 32.0584 13.8207 32.0584ZM19.1729 27.9867L14.4046 18.3119L13.9078 17.2927L4.57618 35.8381L22.379 35.915H23.0858L20.0896 29.8561L19.1729 27.9867ZM25.9129 18.9931C22.799 18.9931 19.8643 18.6294 17.6364 17.9585C17.2625 17.8356 16.8988 17.7024 16.5557 17.5641L17.5647 19.6128C19.8796 20.2684 22.8143 20.632 25.9129 20.632C29.1908 20.632 32.3099 20.2376 34.6556 19.5104C35.9974 19.116 37.1242 18.5526 38 17.8868V25.1749C37.5903 25.9329 36.3867 26.9521 34.1895 27.6384C31.977 28.3042 29.0423 28.6832 25.9129 28.6832C24.5147 28.6832 23.1729 28.591 21.9078 28.4425L22.7631 30.189C23.7875 30.2658 24.8425 30.3273 25.9078 30.3273C29.1857 30.3273 32.3047 29.9329 34.6504 29.2056C35.9923 28.8113 37.1191 28.2479 37.9949 27.5667V34.0507C37.9949 35.326 36.6991 36.3759 34.169 37.1493C31.9411 37.8151 28.991 38.1992 25.8924 38.1992C25.3496 38.1992 24.8067 38.1839 24.2689 38.1531C24.1511 38.1839 24.0128 38.1992 23.8796 38.1992H23.8335L3.76184 38.1224C3.32138 38.0763 2.87068 37.9534 2.54289 37.6205C2.19462 37.2978 2 36.8471 2 36.3759C2 36.0891 2.06146 35.7818 2.19462 35.5257L12.3201 15.4028C12.5147 14.9931 12.8784 14.6602 13.3291 14.5065C13.4776 14.4604 13.6312 14.4604 13.7951 14.4451V8.24787C14.6044 8.90344 15.7209 9.4617 17.1652 9.8868C19.5416 10.6141 22.6453 11.0084 25.9078 11.0084C29.1754 11.0084 32.2894 10.6141 34.6504 9.8868C36.064 9.4617 37.1805 8.92905 37.9949 8.2786V15.495C37.5851 16.2684 36.3816 17.2876 34.1844 17.9687C31.9821 18.6294 29.0474 18.9931 25.9129 18.9931ZM13.9078 5.79461C13.9078 5.77924 13.9078 5.77924 13.8924 5.76388C14.2407 4.76004 15.516 3.87912 17.6108 3.24403C19.8387 2.56286 22.7887 2.19922 25.9027 2.19922C29.032 2.19922 31.9667 2.56286 34.1793 3.24403C36.3918 3.91497 37.6415 4.79589 37.9129 5.8407C37.9129 5.8407 37.8976 5.87143 37.8976 5.8868C37.5237 6.84454 36.2586 7.67937 34.1946 8.29909C31.9667 8.98539 29.0474 9.36439 25.9181 9.36439C22.8041 9.36439 19.8694 8.98539 17.6415 8.29909C15.5314 7.65889 14.2561 6.79333 13.9078 5.79461Z" fill="#86888C"/>
</svg>
