<svg width="20" height="20" viewBox="0 0 20 20" fill="none" xmlns="http://www.w3.org/2000/svg">
<path fill-rule="evenodd" clip-rule="evenodd" d="M8.66382 4.71788C7.69412 4.43335 7.10457 4.04866 6.94978 3.6025C6.94978 3.59567 6.94978 3.59568 6.94067 3.58885C7.09774 3.14497 7.68729 2.75117 8.64789 2.46664C9.66994 2.16844 11.0198 2 12.4516 2C13.8833 2 15.2332 2.16844 16.2461 2.46664C17.2591 2.76711 17.835 3.15863 17.9602 3.62527C17.9602 3.62527 17.9533 3.6321 17.9533 3.6412C17.7826 4.07142 17.1999 4.44245 16.253 4.72016C15.2309 5.01835 13.8902 5.1868 12.4584 5.1868C11.0266 5.1868 9.6836 5.01835 8.66382 4.71788ZM11.1427 10.6886C11.1427 10.2197 11.0266 9.78261 10.8308 9.38426C10.7216 9.15664 10.5782 8.94949 10.4188 8.75601C10.387 8.71731 10.3574 8.67862 10.3232 8.64447C10.2527 8.56708 10.1798 8.49651 10.1002 8.42823C10.041 8.37587 9.98179 8.32807 9.91805 8.28027C9.84749 8.22791 9.78148 8.17101 9.70636 8.12548C9.56978 8.03898 9.42865 7.96386 9.28069 7.90013C9.22606 7.87509 9.16688 7.85915 9.10997 7.83639C8.98933 7.79087 8.86641 7.75445 8.73894 7.72258C8.68431 7.70892 8.6274 7.69754 8.57277 7.68616C8.39067 7.65429 8.20401 7.63153 8.0128 7.63153C7.81249 7.63153 7.62128 7.65429 7.43235 7.68843C7.24797 7.72485 7.06815 7.77721 6.89515 7.84094C5.72286 8.28254 4.88519 9.38882 4.88519 10.6886C4.88519 11.9883 5.72286 13.0946 6.89515 13.5362C7.13416 13.6273 7.3891 13.6819 7.65315 13.7115C7.77379 13.7251 7.88988 13.7479 8.0128 13.7479C8.48855 13.7479 8.93242 13.6364 9.33532 13.452C9.5493 13.3518 9.74733 13.2266 9.93399 13.0855C9.99317 13.04 10.0546 12.9922 10.1115 12.9421C10.1798 12.8829 10.2458 12.8192 10.3073 12.7532C10.3756 12.6826 10.4348 12.6075 10.4962 12.5301C10.5418 12.4732 10.5873 12.4208 10.6283 12.3639C10.7216 12.2273 10.799 12.0817 10.8673 11.9314C10.8923 11.8791 10.9105 11.8244 10.931 11.7698C10.9765 11.6492 11.0175 11.5262 11.0471 11.4011C11.0607 11.3464 11.0744 11.2941 11.0858 11.2394C11.1177 11.0573 11.1427 10.8752 11.1427 10.6886ZM12.4584 9.46393C12.2831 9.46393 12.1147 9.45711 11.9439 9.45028C12.0213 9.68473 12.076 9.9283 12.1078 10.1787C12.2262 10.181 12.34 10.1923 12.4584 10.1923C13.9653 10.1923 15.388 10.0171 16.4715 9.69612C17.0815 9.52084 17.6051 9.27273 17.9989 8.97453V12.2114C17.8122 12.5529 17.2591 13.0058 16.253 13.304C15.24 13.6022 13.8902 13.7707 12.4584 13.7707C11.8734 13.7707 11.3066 13.7411 10.7694 13.6864C10.4917 13.93 10.1821 14.1349 9.84749 14.301C10.6533 14.4262 11.5365 14.5014 12.4584 14.5014C13.9653 14.5014 15.388 14.3261 16.4715 14.0051C17.0815 13.8298 17.6051 13.5749 17.9989 13.2767V16.1562C17.9989 16.7253 17.4093 17.1919 16.2461 17.5334C15.2241 17.8316 13.8742 18 12.4516 18C11.0266 18 9.67904 17.8338 8.64789 17.5334C7.48471 17.1896 6.89515 16.723 6.89515 16.1562V14.5651C6.4194 14.4331 5.97781 14.2282 5.58856 13.9505L2.85702 16.6206C2.75914 16.7162 2.63167 16.764 2.50192 16.764C2.37445 16.764 2.2447 16.7162 2.14682 16.6206C1.95106 16.4294 1.95106 16.1198 2.14682 15.9286L4.85105 13.2835C4.24555 12.5802 3.88135 11.6765 3.88135 10.6886C3.88135 8.84251 5.15834 7.28326 6.89515 6.80524V4.69057C7.26846 4.98193 7.7829 5.23005 8.44757 5.41898C9.53564 5.73993 10.9606 5.91521 12.4584 5.91521C13.9562 5.91521 15.3811 5.73993 16.4715 5.41898C17.1202 5.23005 17.6256 4.99559 17.9989 4.7065V7.91151C17.8122 8.25295 17.2591 8.70593 16.253 9.00413C15.24 9.30232 13.8902 9.46393 12.4584 9.46393Z" fill="#86888C"/>
</svg>
