<svg width="20" height="20" viewBox="0 0 20 20" fill="none" xmlns="http://www.w3.org/2000/svg">
<path fill-rule="evenodd" clip-rule="evenodd" d="M7.25366 15.1854C6.97596 15.1854 6.75288 14.9578 6.75288 14.6801V11.4113C6.75288 11.1314 6.97823 10.906 7.25366 10.906C7.52909 10.906 7.75445 11.1336 7.75445 11.4113V14.6801C7.75445 14.9601 7.52909 15.1854 7.25366 15.1854ZM7.25366 15.47C7.53592 15.47 7.76355 15.6999 7.76355 15.9844C7.76355 16.2689 7.53592 16.4988 7.25366 16.4988C6.9714 16.4988 6.74378 16.2689 6.74378 15.9844C6.74378 15.6999 6.9714 15.47 7.25366 15.47ZM9.63238 13.6603L7.51316 9.36041L7.29236 8.90743L3.14497 17.1499L11.0573 17.184H11.3715L10.0398 14.4912L9.63238 13.6603ZM12.628 9.66315C11.244 9.66315 9.93968 9.50154 8.9495 9.20334C8.78333 9.14871 8.62171 9.08953 8.4692 9.02807L8.91763 9.93858C9.94651 10.2299 11.2508 10.3916 12.628 10.3916C14.0848 10.3916 15.471 10.2163 16.5136 9.89306C17.11 9.71778 17.6108 9.46739 18 9.17148V12.4106C17.8179 12.7475 17.283 13.2005 16.3064 13.5055C15.3231 13.8014 14.0188 13.9699 12.628 13.9699C12.0065 13.9699 11.4102 13.9289 10.8479 13.8629L11.2281 14.6391C11.6833 14.6733 12.1522 14.7006 12.6257 14.7006C14.0825 14.7006 15.4688 14.5253 16.5113 14.2021C17.1077 14.0268 17.6085 13.7764 17.9977 13.4737V16.3554C17.9977 16.9222 17.4218 17.3889 16.2973 17.7326C15.3072 18.0285 13.996 18.1992 12.6189 18.1992C12.3776 18.1992 12.1363 18.1924 11.8973 18.1787C11.8449 18.1924 11.7835 18.1992 11.7243 18.1992H11.7038L2.78304 18.1651C2.58728 18.1446 2.38697 18.09 2.24129 17.942C2.0865 17.7986 2 17.5983 2 17.3889C2 17.2614 2.02732 17.1248 2.0865 17.011L6.58671 8.06748C6.67321 7.88538 6.83483 7.73742 7.03514 7.66913C7.10115 7.64864 7.16944 7.64864 7.24228 7.64181V4.88751C7.60193 5.17887 8.09816 5.42699 8.74008 5.61592C9.79627 5.93915 11.1757 6.11443 12.6257 6.11443C14.078 6.11443 15.4619 5.93915 16.5113 5.61592C17.1396 5.42699 17.6358 5.19026 17.9977 4.90117V8.10845C17.8156 8.45217 17.2807 8.90515 16.3042 9.2079C15.3254 9.50154 14.0211 9.66315 12.628 9.66315ZM7.29236 3.79717C7.29236 3.79034 7.29236 3.79034 7.28553 3.78351C7.44032 3.33736 8.00711 2.94584 8.93811 2.66358C9.9283 2.36083 11.2394 2.19922 12.6234 2.19922C14.0142 2.19922 15.3185 2.36083 16.3019 2.66358C17.2852 2.96177 17.8407 3.35329 17.9613 3.81766C17.9613 3.81766 17.9545 3.83131 17.9545 3.83814C17.7883 4.26381 17.2261 4.63484 16.3087 4.91027C15.3185 5.21529 14.0211 5.38374 12.6302 5.38374C11.2463 5.38374 9.94195 5.21529 8.95177 4.91027C8.01394 4.62574 7.44715 4.24105 7.29236 3.79717Z" fill="#86888C"/>
</svg>
