<svg width="28" height="28" viewBox="0 0 28 28" fill="none" xmlns="http://www.w3.org/2000/svg">
<path fill-rule="evenodd" clip-rule="evenodd" d="M8.48166 19.7815C9.60517 19.761 9.60517 19.0165 9.60517 18.658C9.60517 18.2994 9.60517 17.5481 8.46459 17.5208H8.26652C7.17375 17.531 7.17375 18.2516 7.17375 18.6443C7.17375 19.037 7.17375 19.7678 8.28701 19.7815H8.48166ZM8.49874 16.148C9.00756 16.1582 10.995 16.3529 10.995 18.658C10.995 20.9699 9.00756 21.1474 8.50898 21.1577H8.26994C7.74746 21.1509 5.7873 20.9699 5.7873 18.6443C5.7873 16.3222 7.73038 16.1514 8.25286 16.1446H8.3075C8.37239 16.1446 8.44068 16.148 8.49874 16.148ZM11.4253 6.10475C9.91251 5.67788 8.99048 5.09735 8.74802 4.43144C8.74802 4.4212 8.74802 4.4212 8.73778 4.41095C8.98024 3.74504 9.90227 3.15085 11.4048 2.7274C12.9996 2.27663 15.1066 2.02734 17.3434 2.02734C19.5801 2.02734 21.6871 2.27663 23.2682 2.7274C24.8528 3.17817 25.7475 3.76553 25.9455 4.46559C25.9455 4.46559 25.9353 4.47584 25.9353 4.48608C25.6689 5.1315 24.7605 5.68813 23.2819 6.10475C21.6871 6.55552 19.5904 6.80481 17.357 6.80481C15.1168 6.80822 13.0201 6.55552 11.4253 6.10475ZM11.5312 12.856V12.1423C11.5312 9.52649 9.54028 9.19524 8.68314 9.17475H8.66265L8.35189 9.17134C7.31035 9.18158 5.5585 9.57771 5.5585 12.1184V12.8594L11.5312 12.856ZM3.76908 22.8173C3.97739 23.0359 4.3223 23.1452 4.80039 23.1452L12.2825 23.1417C12.501 23.1554 13.0133 23.1144 13.3103 22.8344C13.505 22.65 13.6006 22.37 13.6006 21.9773C13.5972 19.8395 13.6006 15.4923 13.6006 15.4923C13.604 15.4343 13.6279 14.9699 13.3377 14.6659C13.1259 14.444 12.7742 14.3347 12.2825 14.3347L8.66607 14.3381L4.81746 14.3415H4.79356C4.75941 14.3415 4.72526 14.3381 4.67403 14.3381C4.46914 14.3381 4.04228 14.3893 3.78616 14.6284C3.58809 14.8094 3.49589 15.0928 3.49589 15.4889V21.9909C3.49248 22.0421 3.4754 22.51 3.76908 22.8173ZM17.3536 13.2248C15.7964 13.2248 14.3212 13.1019 13.0235 12.8799V12.9312C13.604 13.0438 14.0821 13.2863 14.4441 13.6756C14.6012 13.8429 14.7139 14.0239 14.8027 14.1981C15.6257 14.2698 16.476 14.3176 17.3536 14.3176C19.7031 14.3176 21.9296 14.0547 23.6166 13.5732C24.5727 13.3102 25.3855 12.938 26.0036 12.4906V17.3466C25.7133 17.8623 24.8493 18.5384 23.2785 18.9892C21.694 19.4366 19.587 19.6893 17.3502 19.6893C16.5648 19.6893 15.8135 19.6449 15.0861 19.5834V20.683C15.8203 20.7411 16.5716 20.782 17.3502 20.782C19.6996 20.782 21.9262 20.5191 23.6131 20.0376C24.5693 19.7746 25.3821 19.3922 26.0002 18.9448V23.2613C26.0002 24.115 25.0815 24.8151 23.2614 25.3273C21.6666 25.7746 19.5596 26.0273 17.3365 26.0273C15.11 26.0273 13.003 25.7746 11.398 25.3273C10.6638 25.119 10.0867 24.8799 9.64615 24.617L4.79356 24.6204C3.88177 24.6204 3.16464 24.3506 2.66607 23.8145C1.9421 23.0427 1.99674 22.049 2.00357 21.9363L2.00016 15.4855C2.00016 14.4576 2.42361 13.8566 2.77876 13.5322C3.18855 13.16 3.67005 12.9926 4.0696 12.9141V12.1184C4.0696 8.88449 6.37125 7.71317 8.33824 7.6961L8.66265 7.69951V6.05694C9.24319 6.49405 10.0491 6.86627 11.0838 7.14971C12.7845 7.63121 15.0076 7.89416 17.3468 7.89416C19.686 7.89416 21.9125 7.63121 23.6097 7.14971C24.6205 6.86627 25.4128 6.51454 25.9967 6.07743V10.889C25.7065 11.4047 24.8425 12.0808 23.2716 12.5282C21.694 12.9824 19.587 13.2248 17.3536 13.2248Z" fill="#86888C"/>
</svg>
