<svg width="28" height="28" viewBox="0 0 28 28" fill="none" xmlns="http://www.w3.org/2000/svg">
<path fill-rule="evenodd" clip-rule="evenodd" d="M12.7077 5.95391C11.3283 5.54076 10.4917 4.97738 10.2698 4.33205C10.2698 4.32181 10.2698 4.32181 10.2595 4.31157C10.4815 3.66624 11.318 3.09262 12.6906 2.67947C14.1418 2.24242 16.0641 2 18.0991 2C20.1341 2 22.0598 2.24242 23.5007 2.67947C24.945 3.1131 25.761 3.68673 25.942 4.3662C25.942 4.3662 25.9318 4.37644 25.9318 4.38668C25.6859 5.01152 24.8596 5.551 23.5109 5.95391C22.0564 6.38754 20.1443 6.63338 18.1093 6.63338C16.0743 6.62996 14.1622 6.38754 12.7077 5.95391ZM15.9753 13.8276C15.9821 13.4349 15.989 13.0696 15.9924 12.752L15.9958 12.3184C14.5515 12.3184 13.6398 11.7175 12.8238 11.1746C12.117 10.7068 11.4375 10.2663 10.42 10.1263V16.3099H15.8968C15.9309 15.4836 15.9582 14.6573 15.9753 13.8276ZM15.6236 19.3726C15.6441 19.2565 15.6612 19.1131 15.6782 18.9799C15.7021 18.8092 15.7226 18.6283 15.7431 18.437C15.7636 18.2288 15.7875 18.0137 15.8046 17.7849H10.42V24.0845C11.0244 23.7533 11.6185 23.3982 12.1955 23.0192L12.2604 22.9748C12.4789 22.8314 12.694 22.6812 12.9057 22.5275C13.3086 22.2339 13.6945 21.9232 14.07 21.5988L14.152 21.5203C14.3227 21.3666 14.4832 21.2096 14.6403 21.0423C14.7802 20.8886 14.9066 20.7384 15.0261 20.5847C15.0534 20.5506 15.0739 20.5198 15.0978 20.4857C15.2071 20.3389 15.3095 20.1818 15.3948 20.0179C15.5075 19.8028 15.5861 19.5877 15.6236 19.3726ZM8.94499 16.3133V10.1434C7.98554 10.3005 7.33338 10.7239 6.65391 11.1746C5.82762 11.7209 4.90573 12.3321 3.49557 12.3321H3.48191C3.48874 13.2471 3.51264 14.8109 3.58435 16.3133H8.94499ZM8.94499 24.0265V17.7849H3.66971C3.72092 18.3927 3.77897 18.9424 3.85408 19.3726C4.12382 20.9193 6.78366 22.8382 8.94499 24.0265ZM18.1127 12.851C17.8908 12.851 17.6791 12.8408 17.464 12.834C17.4606 13.1515 17.4572 13.5066 17.4503 13.8924C17.6689 13.8993 17.8874 13.9095 18.1127 13.9095C20.257 13.9095 22.2817 13.6534 23.8216 13.1891C24.6923 12.933 25.4367 12.5745 25.9966 12.1408V16.8459C25.7337 17.3444 24.9484 18 23.5143 18.437C22.07 18.8707 20.1511 19.1131 18.1127 19.1131C17.7884 19.1131 17.4708 19.0994 17.1567 19.0858C17.1328 19.277 17.1055 19.4614 17.0782 19.6253C17.0474 19.7994 16.9962 19.9667 16.9382 20.1374C17.324 20.1579 17.7167 20.1716 18.1161 20.1716C20.2604 20.1716 22.2852 19.9189 23.8251 19.4511C24.6957 19.1985 25.4401 18.8263 26.0001 18.3927V22.5787C26.0001 23.4085 25.1635 24.0845 23.5075 24.583C22.053 25.0166 20.1341 25.2625 18.1059 25.2625C16.0777 25.2625 14.1588 25.0201 12.694 24.583L12.5677 24.542C11.7585 25.0508 10.9185 25.5152 10.0547 25.9283C9.85665 26.0239 9.62446 26.0239 9.42643 25.9283C8.76061 25.6142 2.95609 22.7939 2.40295 19.6287C1.98639 17.242 2.00005 11.7584 2.00005 11.5262C2.00347 11.1199 2.33467 10.7921 2.7444 10.7956C2.79903 10.7956 2.85707 10.8024 2.9117 10.816C4.22284 11.0175 4.93646 10.5463 5.83787 9.94878C6.78708 9.32053 7.86604 8.60691 9.73373 8.60691H9.74056C9.90103 8.60691 10.0479 8.62057 10.1947 8.6274V5.90952C10.7239 6.33291 11.458 6.69484 12.4038 6.96799C13.954 7.43235 15.9787 7.68843 18.1127 7.68843C20.2467 7.68843 22.2715 7.43235 23.8216 6.96799C24.747 6.69142 25.4674 6.35339 25.9966 5.92659V10.5873C25.7337 11.0858 24.9484 11.7448 23.5143 12.1784C22.07 12.6189 20.1477 12.8476 18.1127 12.851Z" fill="#86888C"/>
</svg>
