<svg width="28" height="28" viewBox="0 0 28 28" fill="none" xmlns="http://www.w3.org/2000/svg">
<path fill-rule="evenodd" clip-rule="evenodd" d="M9.8805 22.6785C9.46394 22.6785 9.12932 22.3371 9.12932 21.9205V17.0174C9.12932 16.5974 9.46735 16.2594 9.8805 16.2594C10.2936 16.2594 10.6317 16.6008 10.6317 17.0174V21.9205C10.6317 22.3405 10.2936 22.6785 9.8805 22.6785ZM9.8805 23.1053C10.3039 23.1053 10.6453 23.4502 10.6453 23.877C10.6453 24.3038 10.3039 24.6486 9.8805 24.6486C9.45711 24.6486 9.11566 24.3038 9.11566 23.877C9.11566 23.4502 9.45711 23.1053 9.8805 23.1053ZM13.4486 20.3909L10.2697 13.941L9.93854 13.2615L3.71746 25.6252L15.586 25.6764H16.0572L14.0598 21.6371L13.4486 20.3909ZM17.942 14.3951C15.866 14.3951 13.9095 14.1527 12.4242 13.7054C12.175 13.6235 11.9326 13.5347 11.7038 13.4425L12.3764 14.8083C13.9198 15.2453 15.8762 15.4877 17.942 15.4877C20.1272 15.4877 22.2066 15.2248 23.7704 14.74C24.665 14.4771 25.4161 14.1015 26 13.6576V18.5163C25.7268 19.0217 24.9245 19.7011 23.4597 20.1587C21.9846 20.6025 20.0282 20.8552 17.942 20.8552C17.0098 20.8552 16.1152 20.7938 15.2719 20.6947L15.8421 21.8591C16.525 21.9103 17.2283 21.9512 17.9385 21.9512C20.1238 21.9512 22.2032 21.6883 23.767 21.2035C24.6615 20.9406 25.4127 20.565 25.9966 20.1109V24.4335C25.9966 25.2837 25.1327 25.9837 23.446 26.4993C21.9607 26.9431 19.994 27.1992 17.9283 27.1992C17.5664 27.1992 17.2044 27.189 16.8459 27.1685C16.7674 27.189 16.6752 27.1992 16.5864 27.1992H16.5557L3.17456 27.148C2.88092 27.1173 2.58045 27.0353 2.36193 26.8134C2.12975 26.5983 2 26.2978 2 25.9837C2 25.7925 2.04097 25.5876 2.12975 25.4169L8.88007 12.0016C9.00982 11.7285 9.25224 11.5065 9.55271 11.4041C9.65173 11.3734 9.75416 11.3734 9.86342 11.3631V7.23166C10.4029 7.6687 11.1472 8.04087 12.1101 8.32427C13.6944 8.80912 15.7636 9.07203 17.9385 9.07203C20.1169 9.07203 22.1929 8.80912 23.767 8.32427C24.7093 8.04087 25.4537 7.68577 25.9966 7.25214V12.0631C25.7234 12.5786 24.921 13.2581 23.4563 13.7122C21.988 14.1527 20.0316 14.3951 17.942 14.3951ZM9.93854 5.59615C9.93854 5.5859 9.93854 5.5859 9.9283 5.57566C10.1605 4.90643 11.0107 4.31915 12.4072 3.89576C13.8924 3.44164 15.8592 3.19922 17.9351 3.19922C20.0213 3.19922 21.9778 3.44164 23.4528 3.89576C24.9279 4.34305 25.761 4.93033 25.942 5.62688C25.942 5.62688 25.9317 5.64736 25.9317 5.65761C25.6825 6.2961 24.8391 6.85265 23.4631 7.2658C21.9778 7.72333 20.0316 7.976 17.9454 7.976C15.8694 7.976 13.9129 7.72333 12.4277 7.2658C11.0209 6.839 10.1707 6.26196 9.93854 5.59615Z" fill="#86888C"/>
</svg>
