<svg width="24" height="24" viewBox="0 0 24 24" fill="none" xmlns="http://www.w3.org/2000/svg">
<path fill-rule="evenodd" clip-rule="evenodd" d="M8.497 17.056C9.76336 17.056 10.1105 16.5922 10.1105 14.8933C10.1105 13.829 9.95688 13.2598 9.59831 12.9895C9.36496 12.8159 9.00355 12.7305 8.497 12.7305C7.98761 12.7305 7.62335 12.8187 7.39 12.9951C7.03428 13.2683 6.88346 13.8346 6.88346 14.8933C6.8863 16.5922 7.23064 17.056 8.497 17.056ZM8.49985 11.4442C7.41561 11.4442 7.41561 11.6633 7.41561 11.9678C7.41561 11.9735 7.41846 11.9792 7.41846 11.9849C7.72295 11.8825 8.07583 11.8255 8.497 11.8255C8.91817 11.8255 9.27389 11.8825 9.58124 11.9849L9.58408 11.965C9.58124 11.6633 9.58124 11.4442 8.49985 11.4442ZM10.822 11.4499C10.8078 11.1995 10.9984 10.986 11.2489 10.9747H11.2517C11.5021 10.9405 11.7156 11.1539 11.7298 11.4044L11.781 12.3833C11.7924 12.591 11.6586 12.7789 11.4594 12.8386L10.7366 13.0578C10.8761 13.385 10.95 13.755 10.987 14.1306H11.5391C11.7895 14.1306 11.9916 14.3327 11.9916 14.5831V15.2319C11.9916 15.4823 11.7895 15.6844 11.5391 15.6844C11.2887 15.6844 11.0866 15.4823 11.0866 15.2319V15.0356H11.0155C11.0098 15.5023 10.9671 15.9519 10.859 16.356L11.4623 16.5381C11.6615 16.5979 11.7952 16.7885 11.7839 16.9963L11.7326 17.9724C11.7184 18.2143 11.5192 18.4021 11.2802 18.4021H11.2574C11.007 18.3907 10.8163 18.1773 10.8277 17.9268L10.8618 17.3036L10.4663 17.1841C10.0963 17.6565 9.49871 17.9638 8.50269 17.9638C7.50383 17.9638 6.90622 17.6537 6.53627 17.1784L6.12648 17.3036L6.16063 17.9268C6.17486 18.1773 5.98135 18.3879 5.73377 18.4021H5.70531C5.46342 18.4021 5.26706 18.2143 5.25283 17.9724L5.20161 16.9963C5.19023 16.7885 5.32113 16.5979 5.52318 16.5381L6.14356 16.3531C6.03826 15.949 5.99558 15.4994 5.98989 15.0356H5.91874V15.2319C5.91874 15.4823 5.71669 15.6844 5.46627 15.6844C5.21584 15.6844 5.01379 15.4823 5.01379 15.2319V14.5831C5.01379 14.3327 5.21584 14.1306 5.46627 14.1306H6.02119C6.05534 13.755 6.12933 13.3879 6.26877 13.0634L5.52887 12.8386C5.32967 12.7789 5.19592 12.591 5.2073 12.3833L5.25853 11.4044C5.27275 11.1539 5.4805 10.9434 5.73661 10.9747C5.98704 10.9889 6.18055 11.2023 6.16632 11.4527L6.13217 12.076L6.53912 12.2012C6.53058 12.1272 6.52204 12.0532 6.52204 11.9735C6.52204 10.5421 7.91647 10.5421 8.51123 10.5421C9.10599 10.5421 10.5004 10.5421 10.5004 11.9735C10.5004 12.0504 10.489 12.1215 10.4833 12.1955L10.8675 12.0788L10.822 11.4499ZM8.47139 13.4049C8.72182 13.4049 8.92386 13.607 8.92386 13.8574V16.2848C8.92386 16.5353 8.72182 16.7373 8.46854 16.7373C8.21812 16.7373 8.01607 16.5353 8.01322 16.2877V13.8574C8.01607 13.607 8.22096 13.4049 8.47139 13.4049ZM11.0496 5.55064C9.91419 5.21199 9.21982 4.74813 9.0377 4.21598C9.0377 4.20744 9.0377 4.20744 9.02916 4.1989C9.21129 3.66675 9.90281 3.1972 11.0326 2.85855C12.2335 2.49998 13.8157 2.30078 15.4947 2.30078C17.1737 2.30078 18.7588 2.49998 19.9483 2.85855C21.1379 3.21427 21.8123 3.68667 21.9603 4.24444C21.9603 4.24444 21.9518 4.25297 21.9518 4.26151C21.7497 4.77659 21.0696 5.22053 19.9569 5.55064C18.7588 5.9092 17.1823 6.10841 15.5033 6.10841C13.8243 6.11125 12.2506 5.9092 11.0496 5.55064ZM13.7531 11.1397V10.8352C12.538 10.8352 11.7725 10.323 11.0866 9.87335C10.9472 9.78228 10.8078 9.69122 10.6655 9.603C10.6484 9.59446 10.6313 9.58308 10.6171 9.56885C10.4691 9.48348 10.3154 9.4038 10.1618 9.32981C10.1504 9.31843 10.1362 9.30989 10.1191 9.3042C9.95403 9.23021 9.78898 9.15622 9.60116 9.10784C9.39911 9.04808 9.19137 9.00824 8.98078 8.98547H8.97224C8.81573 8.9684 8.66775 8.95132 8.49415 8.95132C7.29609 8.95132 6.6188 9.39526 5.90167 9.87335C5.2073 10.3344 4.43326 10.8438 3.25227 10.8438H3.23519C3.24373 12.2012 3.30064 15.2945 3.55676 16.7487C3.83849 18.3623 6.99729 20.2518 8.49415 20.9917C8.84134 20.821 9.26251 20.5876 9.73206 20.3173H9.7406C10.0792 20.1124 10.4435 19.8904 10.7964 19.6428C10.8049 19.6343 10.822 19.6258 10.8391 19.6115C11.3655 19.2615 11.8635 18.8688 12.3245 18.4362L12.3502 18.4106C12.6404 18.1403 12.888 17.8529 13.0758 17.5626C13.0844 17.5626 13.0844 17.5541 13.0929 17.5455C13.184 17.4061 13.258 17.2666 13.3234 17.1243C13.3746 17.002 13.423 16.8711 13.4401 16.7459C13.4657 16.6064 13.4885 16.4414 13.5055 16.2678V16.2592C13.5226 16.1283 13.5397 15.9889 13.5568 15.8409C13.5568 15.8068 13.5653 15.7669 13.5653 15.7242C13.6051 15.2803 13.6364 14.788 13.6649 14.2757C13.6734 14.2017 13.6734 14.1278 13.6734 14.0538C13.6905 13.8574 13.699 13.6582 13.699 13.459C13.7047 13.311 13.7161 13.1716 13.7161 13.0321C13.7247 12.9155 13.7247 12.8016 13.7247 12.6878C13.7332 12.5626 13.7332 12.4402 13.7332 12.3179C13.7389 12.2183 13.7389 12.113 13.7389 12.0134V12.0077C13.7474 11.6833 13.7474 11.4015 13.7531 11.1397ZM15.5033 11.2222C15.3297 11.2222 15.1561 11.2137 14.991 11.2137C14.9825 11.467 14.9825 11.7629 14.974 12.0845C15.1475 12.0845 15.3211 12.093 15.5033 12.093C17.2705 12.093 18.9381 11.8881 20.2073 11.5011C20.9244 11.2962 21.5363 11.0003 21.9973 10.6389V14.5119C21.781 14.9217 21.1379 15.4567 19.9512 15.8181C18.7617 16.171 17.1766 16.3788 15.5004 16.3788C15.2443 16.3788 14.9967 16.3617 14.7434 16.3531C14.7178 16.5666 14.6922 16.78 14.6609 16.9536V16.9621C14.6438 17.0447 14.6125 17.1357 14.5869 17.2183C14.8914 17.2353 15.1902 17.2524 15.5033 17.2524C17.2705 17.2524 18.9381 17.0361 20.2073 16.6605C20.9244 16.4442 21.5363 16.1426 21.9973 15.7868V19.2245C21.9973 19.9075 21.3115 20.4653 19.9426 20.8779C18.7446 21.2308 17.1595 21.4271 15.4919 21.4271C13.867 21.4271 12.3388 21.2393 11.1407 20.9035C10.3724 21.3987 9.57554 21.8455 8.75596 22.2439C8.67344 22.2809 8.58237 22.2979 8.49131 22.3008C8.40025 22.2979 8.31203 22.278 8.22665 22.2439C7.68027 21.9821 2.79979 19.6144 2.33878 16.9564C1.98306 14.9644 2.00013 10.3685 2.00013 10.1693C2.00298 9.82782 2.28186 9.55178 2.62335 9.55462C2.66888 9.55462 2.71442 9.56031 2.7571 9.5717C3.8641 9.74529 4.45602 9.34973 5.21584 8.84888C6.0155 8.32241 6.9233 7.72195 8.49131 7.72195H8.49985C8.6649 7.72195 8.82142 7.73049 8.9694 7.74757V5.51934C9.40764 5.87221 10.0081 6.16817 10.7935 6.39298C12.0741 6.78001 13.7417 6.9849 15.4976 6.9849C17.2534 6.9849 18.9239 6.78001 20.2016 6.39298C20.9586 6.17101 21.5562 5.88928 21.9916 5.53926V9.37819C21.7753 9.77944 21.1322 10.323 19.9455 10.6844C18.7645 11.0344 17.1794 11.2222 15.5033 11.2222Z" fill="#86888C"/>
</svg>
