<svg width="28" height="28" viewBox="0 0 28 28" fill="none" xmlns="http://www.w3.org/2000/svg">
<path fill-rule="evenodd" clip-rule="evenodd" d="M9.80998 4.4099C9.80998 4.39966 9.80998 4.39966 9.79974 4.38942C10.0319 3.72379 10.892 3.13668 12.2984 2.69976C13.7935 2.2526 15.7767 2 17.8692 2C19.9718 2 21.9414 2.2526 23.4297 2.69976C24.9145 3.15375 25.7542 3.74086 25.9351 4.43721C25.9351 4.43721 25.9249 4.44745 25.9249 4.45769C25.6723 5.10283 24.8224 5.66264 23.4365 6.07566C21.9414 6.53307 19.9787 6.77542 17.876 6.77542C15.7835 6.77542 13.8106 6.53307 12.3155 6.07566C10.9023 5.6524 10.0421 5.07552 9.80998 4.4099ZM10.1957 17.3196L16.8588 14.3465L16.6574 14.2543H16.6471L13.1483 12.7046L10.1752 11.4007L10.165 11.4109L3.51216 14.3738L9.7383 17.1148L10.1957 17.3196ZM14.6537 19.2414L14.7049 16.9646L11.2061 18.5211L10.7931 18.7054C10.5985 18.7976 10.3869 18.8386 10.1855 18.8386C9.97383 18.8386 9.77244 18.7976 9.57104 18.7054L5.77869 17.0158V19.1731C6.08249 19.2448 6.41701 19.3233 6.75836 19.4257C7.23283 19.5588 7.73802 19.7295 8.24321 19.9411C8.75864 20.1664 9.27407 20.4258 9.74171 20.7501C9.79292 20.7911 9.8407 20.8081 9.90215 20.8525C9.95335 20.8832 10.0046 20.914 10.0523 20.9549C10.1752 21.0471 10.3357 21.0471 10.4483 20.9549C10.7214 20.7433 11.0149 20.559 11.3187 20.3985C11.5611 20.2654 11.8137 20.1357 12.0765 20.023C12.7524 19.7295 13.4521 19.5076 14.0666 19.3642C14.0973 19.354 14.1178 19.354 14.1485 19.354C14.2304 19.3335 14.3192 19.313 14.4113 19.2926C14.4898 19.2721 14.5718 19.2516 14.6537 19.2414ZM23.4399 12.5032C21.9551 12.9572 19.9821 13.1927 17.8794 13.1927H17.7872C18.1217 13.4556 18.3231 13.8413 18.3436 14.2748C20.3746 14.2441 22.2862 13.9915 23.7505 13.5477C24.6517 13.2849 25.4095 12.9094 25.9966 12.4657V17.323C25.7235 17.8282 24.9145 18.5075 23.4399 18.9615C21.9551 19.4086 19.9821 19.6612 17.8794 19.6612C17.2923 19.6612 16.7256 19.6305 16.1692 19.5895C16.0395 20.0435 15.7153 20.419 15.2783 20.6102C16.118 20.6921 16.9782 20.7535 17.876 20.7535C20.0777 20.7535 22.1735 20.4907 23.7471 20.006C24.6483 19.7431 25.4061 19.3574 25.9932 18.9137V23.2351C25.9932 24.0851 25.1227 24.7848 23.4263 25.3002C21.9277 25.744 19.9479 26 17.8657 26C15.7835 26 13.8003 25.7474 12.295 25.3002C10.5951 24.7848 9.7383 24.0851 9.7383 23.2351V22.4568C9.51643 22.3954 9.30138 22.2964 9.11023 22.1428C8.05888 21.3236 6.61158 20.931 5.57047 20.7467C4.81269 20.6033 4.25629 19.9479 4.25629 19.1799V16.3468L2.89091 15.7392C2.34476 15.4968 2 14.9711 2 14.3738C2 13.7662 2.34476 13.2405 2.89091 12.9982L9.57446 10.0216C9.62566 10.0011 9.67345 9.98066 9.73489 9.97042V6.04494C10.281 6.47845 11.0286 6.85393 11.998 7.13725C13.5955 7.61172 15.6777 7.87456 17.8726 7.87456C20.0674 7.87456 22.1599 7.61172 23.7437 7.13725C24.6961 6.85393 25.4436 6.49893 25.9898 6.06542V10.8716C25.7235 11.3802 24.9145 12.056 23.4399 12.5032Z" fill="#86888C"/>
</svg>
