<svg width="28" height="28" viewBox="0 0 28 28" fill="none" xmlns="http://www.w3.org/2000/svg">
<path fill-rule="evenodd" clip-rule="evenodd" d="M11.9957 6.07682C10.5412 5.65002 9.65685 5.07298 9.42467 4.40376C9.42467 4.39351 9.42467 4.39351 9.41101 4.38327C9.64661 3.71746 10.5309 3.12676 11.9718 2.69996C13.5049 2.25267 15.5297 2 17.6773 2C19.825 2 21.8498 2.25267 23.3692 2.69996C24.8886 3.15066 25.7525 3.73794 25.9402 4.4379C25.9402 4.4379 25.93 4.44814 25.93 4.4618C25.6739 5.10713 24.7998 5.66368 23.3794 6.08024C21.8463 6.52753 19.8353 6.7802 17.6876 6.7802C15.5399 6.7802 13.5254 6.52753 11.9957 6.07682ZM15.714 15.0329C15.714 14.3295 15.5399 13.6739 15.2463 13.0764C15.0824 12.735 14.8673 12.4242 14.6283 12.134C14.5805 12.076 14.5361 12.0179 14.4848 11.9667C14.379 11.8506 14.2697 11.7448 14.1502 11.6423C14.0615 11.5638 13.9727 11.4921 13.8771 11.4204C13.7712 11.3419 13.6722 11.2565 13.5595 11.1882C13.3547 11.0585 13.143 10.9458 12.921 10.8502C12.8391 10.8126 12.7503 10.7887 12.665 10.7546C12.484 10.6863 12.2996 10.6317 12.1084 10.5839C12.0265 10.5634 11.9411 10.5463 11.8592 10.5292C11.586 10.4814 11.306 10.4473 11.0192 10.4473C10.7187 10.4473 10.4319 10.4814 10.1485 10.5326C9.87196 10.5873 9.60222 10.6658 9.34272 10.7614C7.58429 11.4238 6.32779 13.0832 6.32779 15.0329C6.32779 16.9825 7.58429 18.6419 9.34272 19.3043C9.70124 19.4409 10.0837 19.5228 10.4797 19.5672C10.6607 19.5877 10.8348 19.6219 11.0192 19.6219C11.7328 19.6219 12.3986 19.4545 13.003 19.178C13.3239 19.0277 13.621 18.8399 13.901 18.6283C13.9898 18.56 14.0819 18.4883 14.1673 18.4131C14.2697 18.3244 14.3688 18.2288 14.4609 18.1297C14.5634 18.0239 14.6522 17.9112 14.7443 17.7951C14.8126 17.7098 14.8809 17.6312 14.9424 17.5459C15.0824 17.341 15.1985 17.1225 15.3009 16.8971C15.3385 16.8186 15.3658 16.7367 15.3965 16.6547C15.4648 16.4738 15.5262 16.2894 15.5706 16.1016C15.5911 16.0196 15.6116 15.9411 15.6287 15.8592C15.6765 15.586 15.714 15.3128 15.714 15.0329ZM17.6876 13.1959C17.4247 13.1959 17.172 13.1857 16.9159 13.1754C17.032 13.5271 17.114 13.8924 17.1618 14.268C17.3393 14.2714 17.51 14.2885 17.6876 14.2885C19.9479 14.2885 22.0819 14.0256 23.7072 13.5442C24.6223 13.2813 25.4076 12.9091 25.9983 12.4618V17.3171C25.7183 17.8293 24.8886 18.5087 23.3794 18.956C21.86 19.4033 19.8353 19.656 17.6876 19.656C16.8101 19.656 15.9599 19.6116 15.1541 19.5297C14.7375 19.895 14.2732 20.2023 13.7712 20.4516C14.9799 20.6394 16.3047 20.752 17.6876 20.752C19.9479 20.752 22.0819 20.4891 23.7072 20.0077C24.6223 19.7448 25.4076 19.3624 25.9983 18.9151V23.2343C25.9983 24.0879 25.114 24.7879 23.3692 25.3C21.8361 25.7473 19.8114 26 17.6773 26C15.5399 26 13.5186 25.7507 11.9718 25.3C10.2271 24.7845 9.34272 24.0845 9.34272 23.2343V20.8476C8.62911 20.6496 7.96671 20.3423 7.38284 19.9257L3.28553 23.9309C3.13871 24.0743 2.9475 24.146 2.75288 24.146C2.56167 24.146 2.36705 24.0743 2.22023 23.9309C1.92659 23.644 1.92659 23.1797 2.22023 22.8929L6.27657 18.9253C5.36833 17.8703 4.82202 16.5147 4.82202 15.0329C4.82202 12.2638 6.73752 9.92488 9.34272 9.20785V6.03585C9.90269 6.4729 10.6743 6.84507 11.6714 7.12847C13.3035 7.6099 15.4409 7.87281 17.6876 7.87281C19.9343 7.87281 22.0717 7.6099 23.7072 7.12847C24.6803 6.84507 25.4383 6.49338 25.9983 6.05975V10.8673C25.7183 11.3794 24.8886 12.0589 23.3794 12.5062C21.86 12.9535 19.8353 13.1959 17.6876 13.1959Z" fill="#86888C"/>
</svg>
