<svg width="40" height="40" viewBox="0 0 40 40" fill="none" xmlns="http://www.w3.org/2000/svg">
<path fill-rule="evenodd" clip-rule="evenodd" d="M16.9936 8.11524C14.8118 7.47503 13.4853 6.60947 13.137 5.60563C13.137 5.59027 13.137 5.59027 13.1165 5.5749C13.4699 4.57618 14.7964 3.69014 16.9577 3.04994C19.2574 2.379 22.2945 2 25.516 2C28.7375 2 31.7746 2.379 34.0538 3.04994C36.3329 3.72599 37.6287 4.60691 37.9104 5.65685C37.9104 5.65685 37.895 5.67221 37.895 5.6927C37.5109 6.66069 36.1997 7.49552 34.0691 8.12036C31.7695 8.79129 28.7529 9.17029 25.5314 9.17029C22.3099 9.17029 19.2881 8.79129 16.9936 8.11524ZM22.5711 21.5493C22.5711 20.4942 22.3099 19.5109 21.8694 18.6146C21.6236 18.1024 21.3009 17.6364 20.9424 17.201C20.8707 17.114 20.8041 17.0269 20.7273 16.9501C20.5685 16.7759 20.4046 16.6172 20.2253 16.4635C20.0922 16.3457 19.959 16.2382 19.8156 16.1306C19.6568 16.0128 19.5083 15.8848 19.3393 15.7823C19.032 15.5877 18.7145 15.4187 18.3816 15.2753C18.2586 15.219 18.1255 15.1831 17.9974 15.1319C17.726 15.0294 17.4494 14.9475 17.1626 14.8758C17.0397 14.8451 16.9117 14.8195 16.7887 14.7939C16.379 14.7222 15.959 14.6709 15.5288 14.6709C15.0781 14.6709 14.6479 14.7221 14.2228 14.799C13.8079 14.8809 13.4033 14.9987 13.0141 15.1421C10.3764 16.1357 8.49168 18.6248 8.49168 21.5493C8.49168 24.4738 10.3764 26.9629 13.0141 27.9565C13.5519 28.1613 14.1255 28.2843 14.7196 28.3508C14.991 28.3816 15.2522 28.4328 15.5288 28.4328C16.5992 28.4328 17.5979 28.1818 18.5045 27.767C18.9859 27.5416 19.4315 27.2599 19.8515 26.9424C19.9846 26.8399 20.1229 26.7324 20.251 26.6197C20.4046 26.4866 20.5531 26.3431 20.6914 26.1946C20.8451 26.0359 20.9782 25.8668 21.1165 25.6927C21.2189 25.5647 21.3214 25.4469 21.4136 25.3188C21.6236 25.0115 21.7977 24.6837 21.9513 24.3457C22.0077 24.2279 22.0487 24.105 22.0947 23.9821C22.1972 23.7106 22.2894 23.4341 22.356 23.1524C22.3867 23.0294 22.4174 22.9116 22.443 22.7887C22.5147 22.379 22.5711 21.9693 22.5711 21.5493ZM25.5314 18.7939C25.137 18.7939 24.758 18.7785 24.3739 18.7631C24.548 19.2907 24.6709 19.8387 24.7426 20.402C25.009 20.4072 25.265 20.4328 25.5314 20.4328C28.9219 20.4328 32.1229 20.0384 34.5608 19.3163C35.9334 18.9219 37.1114 18.3636 37.9974 17.6927V24.9757C37.5775 25.7439 36.3329 26.7631 34.0691 27.4341C31.79 28.105 28.7529 28.484 25.5314 28.484C24.2151 28.484 22.9398 28.4174 21.7311 28.2945C21.1063 28.8425 20.4097 29.3035 19.6568 29.6773C21.4699 29.959 23.4571 30.128 25.5314 30.128C28.9219 30.128 32.1229 29.7337 34.5608 29.0115C35.9334 28.6172 37.1114 28.0435 37.9974 27.3726V33.8515C37.9974 35.1319 36.6709 36.1818 34.0538 36.9501C31.7542 37.621 28.717 38 25.516 38C22.3099 38 19.2778 37.6261 16.9577 36.9501C14.3406 36.1767 13.0141 35.1268 13.0141 33.8515V30.2714C11.9437 29.9744 10.9501 29.5134 10.0743 28.8886L3.9283 34.8963C3.70807 35.1114 3.42125 35.2189 3.12932 35.2189C2.84251 35.2189 2.55058 35.1114 2.33035 34.8963C1.88988 34.4661 1.88988 33.7695 2.33035 33.3393L8.41485 27.388C7.0525 25.8054 6.23303 23.7721 6.23303 21.5493C6.23303 17.3956 9.10627 13.8873 13.0141 12.8118V8.05378C13.854 8.70935 15.0115 9.2676 16.507 9.6927C18.9552 10.4149 22.1613 10.8092 25.5314 10.8092C28.9014 10.8092 32.1076 10.4149 34.5608 9.6927C36.0205 9.2676 37.1575 8.74008 37.9974 8.08963V15.3009C37.5775 16.0691 36.3329 17.0883 34.0691 17.7593C31.79 18.4302 28.7529 18.7939 25.5314 18.7939Z" fill="#86888C"/>
</svg>
