<svg width="40" height="40" viewBox="0 0 40 40" fill="none" xmlns="http://www.w3.org/2000/svg">
<path d="M15.717 17.9643L20.9552 17.9798C21.0836 17.9798 21.1863 18.0876 21.1914 18.2108L21.2068 19.2943C21.2068 19.4226 21.2941 19.4637 21.3969 19.3867L24.4679 17.1017C24.5706 17.0247 24.5706 16.9014 24.4679 16.8244L21.4174 14.5394C21.3147 14.4624 21.2325 14.5035 21.2377 14.6319L21.2531 15.7975C21.2531 15.9258 21.1503 16.0285 21.0271 16.0285L15.7632 16.0337C15.568 16.0029 15.4191 16.1723 15.4242 16.3315L15.4191 17.6203C15.3934 17.836 15.5526 17.9798 15.717 17.9643ZM24.3857 25.8L19.1475 25.8154C19.0191 25.8154 18.9164 25.9233 18.9113 26.0465L18.8959 27.1299C18.8959 27.2583 18.8086 27.2994 18.7058 27.2224L15.6348 24.9374C15.5321 24.8604 15.5321 24.7371 15.6348 24.6601L18.6853 22.3751C18.788 22.2981 18.8702 22.3392 18.865 22.4676L18.8496 23.6332C18.8496 23.7615 18.9523 23.8642 19.0756 23.8642L24.3395 23.8694C24.5347 23.8385 24.6836 24.008 24.6784 24.1672L24.6836 25.456C24.7093 25.6665 24.5449 25.8103 24.3857 25.8Z" fill="#86888C"/>
<path d="M14.3971 15.9515C14.392 15.7102 14.4896 15.4688 14.6642 15.2891C14.8645 15.0837 15.1367 14.9862 15.414 15.0118L17.9304 15.0067C17.9817 14.8835 18.0125 14.7448 18.0125 14.6011V10.8989C18.0125 8.34175 16.6054 6.92969 14.0428 6.92969H5.96976C3.37118 6.92969 2 8.30068 2 10.8989V25.9489C2 27.2686 2.33381 28.2391 3.01683 28.9169C3.69472 29.5895 4.6602 29.913 5.96976 29.913H14.0428C15.5834 29.913 16.6516 29.4611 17.3193 28.5369C17.5144 28.2647 17.5555 27.9258 17.463 27.628L14.5101 25.4303C14.3098 25.2814 14.1969 25.0606 14.1969 24.8244C14.1969 24.5882 14.3098 24.3674 14.5101 24.2185L16.6876 22.5857L16.6927 22.4008C16.7543 22.4213 16.8211 22.4316 16.8827 22.4367L17.992 21.6049C18.0023 21.5433 18.0125 21.4817 18.0125 21.4149V18.981L15.3421 18.9708C15.0699 18.9862 14.8028 18.8732 14.618 18.6627C14.4485 18.4727 14.3663 18.216 14.3869 17.9592L14.3971 15.9515ZM10.7304 26.7294C10.5763 26.8886 10.3452 26.9656 10.0628 26.9656C9.78031 26.9656 9.54921 26.8886 9.39515 26.7294C9.25135 26.5805 9.16918 26.3649 9.16918 26.067C9.16918 25.4509 9.52354 25.1685 10.0628 25.1685C10.6071 25.1685 10.9563 25.456 10.9563 26.067C10.9563 26.3649 10.8793 26.5805 10.7304 26.7294ZM37.0088 12.9477C36.3309 12.275 35.3655 11.9464 34.0559 11.9464H25.9829C24.3498 11.9464 23.1994 12.4804 22.5678 13.5382C22.4805 13.6871 22.4342 13.8514 22.424 14.0106L25.5926 16.3828C25.7929 16.5317 25.9058 16.7525 25.9058 16.9887C25.9058 17.2249 25.7929 17.4457 25.5926 17.5946L23.2765 19.3199V19.3302C23.2713 19.3302 23.2662 19.3302 23.2611 19.3251L22.0183 20.2493C22.0183 20.275 22.0131 20.3007 22.0131 20.3264V22.8321L24.6836 22.8373C24.966 22.8116 25.2382 22.9091 25.4334 23.1145C25.608 23.2943 25.7056 23.5356 25.7004 23.7769L25.7056 25.7898C25.7261 26.0465 25.6439 26.3032 25.4745 26.4932C25.2896 26.6986 25.0225 26.8167 24.7504 26.8013L22.008 26.8116V30.9605C22.008 33.5176 23.4151 34.9297 25.9777 34.9297H34.0508C36.6494 34.9297 38.0205 33.5587 38.0205 30.9605V15.9156C38.0257 14.5959 37.6919 13.6255 37.0088 12.9477ZM30.687 31.7153C30.5329 31.8745 30.3018 31.9515 30.0194 31.9515C29.7369 31.9515 29.5058 31.8745 29.3518 31.7153C29.208 31.5664 29.1258 31.3507 29.1258 31.0529C29.1258 30.4367 29.4802 30.1543 30.0194 30.1543C30.5638 30.1543 30.913 30.4419 30.913 31.0529C30.913 31.3507 30.8359 31.5715 30.687 31.7153Z" fill="#86888C"/>
</svg>
