<svg width="40" height="40" viewBox="0 0 40 40" fill="none" xmlns="http://www.w3.org/2000/svg">
<path fill-rule="evenodd" clip-rule="evenodd" d="M31.3512 11.6915C33.2208 11.6915 34.3324 10.5646 34.3324 8.67445C34.3324 6.78429 33.2157 5.65737 31.3512 5.65737C29.4815 5.65737 28.3699 6.78429 28.3699 8.67445C28.3699 10.5646 29.4815 11.6915 31.3512 11.6915ZM31.3204 23.0273C33.1901 23.0273 34.3017 21.9004 34.3017 20.0102C34.3017 18.1201 33.185 16.9932 31.3204 16.9932C29.4508 16.9932 28.3341 18.1201 28.3341 20.0102C28.3341 21.9004 29.4508 23.0273 31.3204 23.0273ZM31.3204 34.3682C33.1901 34.3682 34.3017 33.2413 34.3017 31.3512C34.3017 29.461 33.185 28.3341 31.3204 28.3341C29.4508 28.3341 28.3341 29.461 28.3341 31.3512C28.3341 33.2413 29.4508 34.3682 31.3204 34.3682ZM17.4081 9.80649C18.0279 9.80649 18.5299 9.29937 18.5299 8.66932C18.5299 8.03927 18.0279 7.53216 17.4081 7.53216H7.0148C6.39499 7.53216 5.893 8.03927 5.893 8.66932C5.893 9.29937 6.39499 9.80649 7.0148 9.80649H17.4081ZM17.4081 21.1474C18.0279 21.1474 18.5299 20.6403 18.5299 20.0102C18.5299 19.3802 18.0279 18.8731 17.4081 18.8731H7.0148C6.39499 18.8731 5.893 19.3802 5.893 20.0102C5.893 20.6403 6.39499 21.1474 7.0148 21.1474H17.4081ZM17.4081 32.56C18.0279 32.56 18.5299 32.0529 18.5299 31.4229C18.5299 30.7928 18.0279 30.2857 17.4081 30.2857H7.0148C6.39499 30.2857 5.893 30.7928 5.893 31.4229C5.893 32.0478 6.39499 32.56 7.0148 32.56H17.4081ZM38.0051 15.9226L37.9949 24.0774C37.9949 24.6511 37.8105 25.1787 37.5083 25.6141C37.8207 26.0546 38.0051 26.5874 38.0051 27.1662L37.9949 35.321C37.9949 36.7962 36.8065 38 35.3415 38H4.65339C3.19351 38 2 36.7962 2 35.321L2.01024 27.1662C2.01024 26.5925 2.18953 26.0649 2.49687 25.6295C2.18441 25.189 2 24.6562 2 24.0774L2.01024 15.9226C2.01024 15.3489 2.18953 14.8213 2.49687 14.3859C2.18441 13.9454 2 13.4126 2 12.8338L2.01024 4.679C2.01024 3.20376 3.19863 2 4.65851 2H35.3466C36.8065 2 37.9949 3.20376 37.9949 4.679L37.9846 12.8338C37.9846 13.4075 37.8002 13.9351 37.498 14.3705C37.8207 14.811 38.0051 15.3438 38.0051 15.9226ZM31.3512 7.47069C32.2271 7.47069 32.5396 7.78828 32.5396 8.67445C32.5396 9.56061 32.2271 9.8782 31.3512 9.8782C30.4752 9.8782 30.1628 9.56061 30.1628 8.67445C30.1628 7.78315 30.4752 7.47069 31.3512 7.47069ZM31.3204 18.8065C32.1964 18.8065 32.5088 19.1241 32.5088 20.0102C32.5088 20.8964 32.1964 21.214 31.3204 21.214C30.4445 21.214 30.132 20.8964 30.132 20.0102C30.132 19.1241 30.4445 18.8065 31.3204 18.8065ZM31.3204 30.1474C32.1964 30.1474 32.5088 30.465 32.5088 31.3512C32.5088 32.2373 32.1964 32.5549 31.3204 32.5549C30.4445 32.5549 30.132 32.2373 30.132 31.3512C30.132 30.465 30.4445 30.1474 31.3204 30.1474Z" fill="#86888C"/>
</svg>
