<svg width="20" height="20" viewBox="0 0 20 20" fill="none" xmlns="http://www.w3.org/2000/svg">
<path fill-rule="evenodd" clip-rule="evenodd" d="M6.32111 13.8634C7.07011 13.8498 7.07011 13.3535 7.07011 13.1144C7.07011 12.8754 7.07011 12.3745 6.30972 12.3563H6.17768C5.44917 12.3631 5.44917 12.8435 5.44917 13.1053C5.44917 13.3671 5.44917 13.8543 6.19134 13.8634H6.32111ZM6.33249 11.4411C6.67171 11.4479 7.99669 11.5777 7.99669 13.1144C7.99669 14.6557 6.67171 14.7741 6.33932 14.7809H6.17996C5.83164 14.7763 4.52486 14.6557 4.52486 13.1053C4.52486 11.5572 5.82025 11.4434 6.16857 11.4388H6.205C6.24826 11.4388 6.29379 11.4411 6.33249 11.4411ZM8.28354 4.74561C7.27501 4.46104 6.66032 4.07401 6.49868 3.63008C6.49868 3.62325 6.49868 3.62325 6.49185 3.61642C6.65349 3.17248 7.26818 2.77635 8.26988 2.49405C9.33306 2.19354 10.7377 2.02734 12.2289 2.02734C13.7201 2.02734 15.1248 2.19354 16.1788 2.49405C17.2352 2.79456 17.8316 3.18614 17.9637 3.65284C17.9637 3.65284 17.9569 3.65967 17.9569 3.6665C17.7793 4.09678 17.1737 4.46787 16.1879 4.74561C15.1247 5.04613 13.7269 5.21232 12.238 5.21232C10.7446 5.21459 9.34672 5.04613 8.28354 4.74561ZM8.35412 9.24647V8.77066C8.35412 7.02678 7.02686 6.80594 6.45543 6.79228H6.44177L6.2346 6.79001C5.54023 6.79684 4.37233 7.06092 4.37233 8.75472V9.24874L8.35412 9.24647ZM3.17939 15.8873C3.31826 16.033 3.5482 16.1059 3.86692 16.1059L8.85497 16.1036C9.00068 16.1127 9.34217 16.0854 9.54023 15.8987C9.67 15.7758 9.73374 15.5891 9.73374 15.3273C9.73147 13.9021 9.73374 11.004 9.73374 11.004C9.73602 10.9653 9.75196 10.6557 9.55844 10.4531C9.41729 10.3051 9.1828 10.2322 8.85497 10.2322L6.44404 10.2345L3.87831 10.2368H3.86237C3.8396 10.2368 3.81684 10.2345 3.78269 10.2345C3.64609 10.2345 3.36152 10.2687 3.19077 10.428C3.05873 10.5487 2.99726 10.7376 2.99726 11.0017V15.3364C2.99498 15.3705 2.9836 15.6824 3.17939 15.8873ZM12.2357 9.49234C11.1976 9.49234 10.2141 9.41038 9.349 9.2624V9.29655C9.73602 9.37168 10.0547 9.53332 10.2961 9.79285C10.4008 9.90441 10.4759 10.0251 10.5351 10.1412C11.0838 10.189 11.6506 10.2209 12.2357 10.2209C13.802 10.2209 15.2864 10.0456 16.411 9.72456C17.0485 9.54926 17.5903 9.30111 18.0024 9.00287V12.2402C17.8089 12.584 17.2329 13.0347 16.1856 13.3353C15.1293 13.6335 13.7246 13.802 12.2335 13.802C11.7098 13.802 11.209 13.7724 10.7241 13.7314V14.4645C11.2135 14.5032 11.7144 14.5305 12.2335 14.5305C13.7998 14.5305 15.2841 14.3552 16.4088 14.0342C17.0462 13.8589 17.588 13.6039 18.0001 13.3057V16.1833C18.0001 16.7524 17.3877 17.2191 16.1743 17.5606C15.1111 17.8589 13.7064 18.0273 12.2244 18.0273C10.74 18.0273 9.33534 17.8589 8.26533 17.5606C7.77586 17.4218 7.39111 17.2624 7.09743 17.0871L3.86237 17.0894C3.25452 17.0894 2.77643 16.9095 2.44404 16.5521C1.9614 16.0376 1.99783 15.3751 2.00238 15.3L2.00011 10.9995C2.00011 10.3142 2.28241 9.91351 2.51917 9.69724C2.79237 9.44909 3.11337 9.33753 3.37973 9.28517V8.75472C3.37973 6.59877 4.91416 5.8179 6.22549 5.80651L6.44177 5.80879V4.71374C6.82879 5.00515 7.36607 5.2533 8.05588 5.44226C9.18963 5.76326 10.6717 5.93856 12.2312 5.93856C13.7907 5.93856 15.275 5.76326 16.4065 5.44226C17.0804 5.2533 17.6085 5.01881 17.9978 4.7274V7.93514C17.8043 8.27891 17.2283 8.72968 16.1811 9.02791C15.1293 9.3307 13.7246 9.49234 12.2357 9.49234Z" fill="#86888C"/>
</svg>
