<svg width="40" height="40" viewBox="0 0 40 40" fill="none" xmlns="http://www.w3.org/2000/svg">
<path fill-rule="evenodd" clip-rule="evenodd" d="M14.6946 28.8603C16.9741 28.8603 17.599 28.0253 17.599 24.9673C17.599 23.0515 17.3224 22.027 16.677 21.5404C16.2569 21.2279 15.6064 21.0743 14.6946 21.0743C13.7777 21.0743 13.122 21.2331 12.702 21.5506C12.0617 22.0424 11.7902 23.0617 11.7902 24.9673C11.7953 28.0253 12.4151 28.8603 14.6946 28.8603ZM14.6997 18.7589C12.7481 18.7589 12.7481 19.1534 12.7481 19.7015C12.7481 19.7117 12.7532 19.722 12.7532 19.7322C13.3013 19.5478 13.9365 19.4453 14.6946 19.4453C15.4527 19.4453 16.093 19.5478 16.6462 19.7322L16.6513 19.6963C16.6462 19.1534 16.6462 18.7589 14.6997 18.7589ZM18.8796 18.7692C18.854 18.3184 19.1972 17.9342 19.6479 17.9138H19.6531C20.1038 17.8523 20.488 18.2365 20.5136 18.6872L20.6058 20.4493C20.6263 20.8233 20.3856 21.1613 20.027 21.2689L18.7259 21.6633C18.9769 22.2524 19.1101 22.9183 19.1767 23.5945H20.1704C20.6212 23.5945 20.9849 23.9582 20.9849 24.4089V25.5768C20.9849 26.0276 20.6212 26.3913 20.1704 26.3913C19.7196 26.3913 19.356 26.0276 19.356 25.5768V25.2234H19.2279C19.2177 26.0634 19.1408 26.8728 18.9462 27.6002L20.0321 27.928C20.3907 28.0356 20.6314 28.3788 20.6109 28.7527L20.5187 30.5097C20.4931 30.9451 20.1346 31.2831 19.7043 31.2831H19.6633C19.2125 31.2626 18.8693 30.8785 18.8898 30.4277L18.9513 29.3059L18.2393 29.0908C17.5734 29.9411 16.4977 30.4943 14.7048 30.4943C12.9069 30.4943 11.8312 29.936 11.1653 29.0805L10.4277 29.3059L10.4891 30.4277C10.5147 30.8785 10.1664 31.2575 9.72078 31.2831H9.66956C9.23416 31.2831 8.88071 30.9451 8.8551 30.5097L8.7629 28.7527C8.74241 28.3788 8.97804 28.0356 9.34173 27.928L10.4584 27.595C10.2689 26.8677 10.192 26.0583 10.1818 25.2234H10.0537V25.5768C10.0537 26.0276 9.69005 26.3913 9.23928 26.3913C8.78851 26.3913 8.42482 26.0276 8.42482 25.5768V24.4089C8.42482 23.9582 8.78851 23.5945 9.23928 23.5945H10.2381C10.2996 22.9183 10.4328 22.2575 10.6838 21.6736L9.35197 21.2689C8.99341 21.1613 8.75265 20.8233 8.77314 20.4493L8.86535 18.6872C8.89096 18.2365 9.26489 17.8574 9.7259 17.9138C10.1767 17.9394 10.525 18.3235 10.4994 18.7743L10.4379 19.8961L11.1704 20.1215C11.155 19.9883 11.1397 19.8551 11.1397 19.7117C11.1397 17.1352 13.6496 17.1352 14.7202 17.1352C15.7908 17.1352 18.3007 17.1352 18.3007 19.7117C18.3007 19.85 18.2803 19.9781 18.27 20.1113L18.9615 19.9012L18.8796 18.7692ZM14.6485 22.2883C15.0993 22.2883 15.463 22.6519 15.463 23.1027V27.4721C15.463 27.9229 15.0993 28.2866 14.6434 28.2866C14.1926 28.2866 13.8289 27.9229 13.8238 27.4772V23.1027C13.8289 22.6519 14.1977 22.2883 14.6485 22.2883ZM19.2894 8.15053C17.2455 7.54096 15.9957 6.70602 15.6679 5.74813C15.6679 5.73277 15.6679 5.73277 15.6525 5.7174C15.9803 4.75952 17.2251 3.91433 19.2586 3.30477C21.4203 2.65935 24.2683 2.30078 27.2905 2.30078C30.3127 2.30078 33.1659 2.65935 35.307 3.30477C37.4482 3.94506 38.6622 4.79537 38.9285 5.79936C38.9285 5.79936 38.9132 5.81473 38.9132 5.83009C38.5495 6.75724 37.3252 7.55633 35.3224 8.15053C33.1659 8.79594 30.3281 9.15451 27.3059 9.15451C24.2837 9.15963 21.451 8.79594 19.2894 8.15053ZM24.1556 18.2109V17.6628C21.9684 17.6628 20.5904 16.7407 19.356 15.9314C19.105 15.7675 18.854 15.6036 18.5978 15.4448C18.5671 15.4294 18.5364 15.4089 18.5108 15.3833C18.2444 15.2296 17.9678 15.0862 17.6912 14.953C17.6707 14.9325 17.6451 14.9172 17.6144 14.9069C17.3173 14.7737 17.0202 14.6406 16.6821 14.5535C16.3184 14.4459 15.9445 14.3742 15.5654 14.3332H15.55C15.2683 14.3025 15.0019 14.2718 14.6895 14.2718C12.533 14.2718 11.3138 15.0708 10.023 15.9314C8.77314 16.7612 7.37986 17.6781 5.25408 17.6781H5.22334C5.23871 20.1215 5.34116 25.6895 5.80217 28.307C6.30929 31.2114 11.9951 34.6127 14.6895 35.9445C15.3144 35.6371 16.0725 35.2171 16.9177 34.7305H16.9331C17.5426 34.3617 18.1983 33.9621 18.8335 33.5165C18.8488 33.5011 18.8796 33.4858 18.9103 33.4601C19.8579 32.8301 20.7544 32.1232 21.5842 31.3446L21.6303 31.2985C22.1528 30.8119 22.5984 30.2945 22.9365 29.772C22.9519 29.772 22.9519 29.7567 22.9672 29.7413C23.1311 29.4903 23.2643 29.2393 23.3821 28.9832C23.4743 28.7629 23.5614 28.5273 23.5922 28.3019C23.6383 28.0509 23.6792 27.7538 23.71 27.4414V27.426C23.7407 27.1904 23.7714 26.9394 23.8022 26.673C23.8022 26.6115 23.8175 26.5398 23.8175 26.463C23.8893 25.6639 23.9456 24.7777 23.9968 23.8557C24.0122 23.7225 24.0122 23.5893 24.0122 23.4562C24.0429 23.1027 24.0583 22.7442 24.0583 22.3856C24.0685 22.1192 24.089 21.8682 24.089 21.6172C24.1044 21.4072 24.1044 21.2023 24.1044 20.9974C24.1198 20.772 24.1198 20.5518 24.1198 20.3315C24.13 20.1522 24.13 19.9627 24.13 19.7834V19.7732C24.1454 19.1892 24.1454 18.6821 24.1556 18.2109ZM27.3059 18.3594C26.9934 18.3594 26.6809 18.344 26.3838 18.344C26.3685 18.7999 26.3685 19.3327 26.3531 19.9115C26.6656 19.9115 26.978 19.9268 27.3059 19.9268C30.4869 19.9268 33.4886 19.558 35.7731 18.8614C37.064 18.4926 38.1653 17.9599 38.9951 17.3093V24.2809C38.6058 25.0185 37.4482 25.9815 35.3121 26.632C33.171 27.2672 30.3178 27.6411 27.3007 27.6411C26.8397 27.6411 26.3941 27.6104 25.9382 27.595C25.8921 27.9792 25.846 28.3634 25.7896 28.6759V28.6912C25.7589 28.8398 25.7026 29.0037 25.6565 29.1522C26.2046 29.183 26.7424 29.2137 27.3059 29.2137C30.4869 29.2137 33.4886 28.8244 35.7731 28.1482C37.064 27.7589 38.1653 27.216 38.9951 26.5757V32.7635C38.9951 33.9929 37.7606 34.9969 35.2968 35.7396C33.1402 36.3748 30.2871 36.7282 27.2854 36.7282C24.3605 36.7282 21.6098 36.3901 19.4533 35.7857C18.0702 36.677 16.636 37.4812 15.1607 38.1983C15.0122 38.2649 14.8483 38.2957 14.6844 38.3008C14.5204 38.2957 14.3616 38.2598 14.208 38.1983C13.2245 37.7271 4.43962 33.4653 3.6098 28.681C2.9695 25.0953 3.00024 16.8227 3.00024 16.4641C3.00536 15.8494 3.50735 15.3526 4.12203 15.3577C4.20399 15.3577 4.28595 15.3679 4.36279 15.3884C6.35539 15.7009 7.42084 14.9889 8.78851 14.0873C10.2279 13.1397 11.8619 12.0589 14.6844 12.0589H14.6997C14.9968 12.0589 15.2786 12.0743 15.5449 12.105V8.09418C16.3338 8.72935 17.4146 9.26208 18.8284 9.66675C21.1334 10.3634 24.1351 10.7322 27.2956 10.7322C30.4561 10.7322 33.463 10.3634 35.7629 9.66675C37.1254 9.2672 38.2011 8.76009 38.9849 8.13004V15.0401C38.5956 15.7624 37.4379 16.7407 35.3019 17.3913C33.1761 18.0213 30.3229 18.3594 27.3059 18.3594Z" fill="#86888C"/>
</svg>
