<svg width="42" height="40" viewBox="0 0 42 40" fill="none" xmlns="http://www.w3.org/2000/svg">
<path d="M9.73423 28.6466C9.61017 28.5285 9.4802 28.4103 9.35613 28.2921C9.09028 28.0263 8.84216 27.7486 8.59404 27.471C9.65743 26.8802 10.904 26.3721 12.2746 25.9645C12.3986 26.3721 12.5345 26.7739 12.6704 27.1638L14.36 26.3131C14.2655 26.0472 14.1828 25.7814 14.1 25.5037C14.165 25.4919 14.2241 25.4801 14.2891 25.4682L11.5302 22.6798C11.6129 23.176 11.7074 23.6605 11.8078 24.139C10.1832 24.6116 8.70628 25.226 7.43612 25.9586C5.91783 23.7018 5.03167 21.0847 4.86035 18.3376H9.46838C9.56881 18.1486 9.69287 17.9713 9.84057 17.8118C10.1537 17.4869 10.5436 17.2565 10.9808 17.1561L13.9937 16.453H12.9894C13.0367 14.7044 13.2257 13.0088 13.5506 11.4256C15.4293 11.8391 17.4615 12.0754 19.5647 12.1168V16.4235L22.7903 18.3317H28.1191C28.1073 18.7925 28.0777 19.2415 28.0423 19.6964L29.9859 18.7334C29.9919 18.5975 29.9978 18.4676 30.0037 18.3317H30.7953L34.3813 16.5535C34.464 16.518 34.5408 16.4826 34.6235 16.4471H30.0096C29.9564 14.5389 29.7496 12.6898 29.3893 10.9529C31.0612 10.4567 32.5735 9.81866 33.8614 9.04474C35.232 11.1833 36.0473 13.6232 36.2363 16.1872C36.8094 16.2167 37.3765 16.3703 37.8787 16.6421L38.1563 16.7898C38.0914 14.6453 37.6365 12.5658 36.8094 10.6044C35.935 8.54258 34.6885 6.68756 33.0934 5.09247C31.5042 3.50329 29.6492 2.25085 27.5815 1.3765C25.4429 0.472619 23.1743 0.0118155 20.8349 0.0118155C20.823 0.0118155 20.8112 0.0177232 20.7994 0.0177232C20.7403 0.00590775 20.6813 0 20.6163 0C20.5986 0 20.5808 0.00590776 20.5631 0.00590776C20.5454 0.00590776 20.5277 0 20.5099 0C20.445 0 20.3859 0.00590775 20.3268 0.0177232C20.315 0.0177232 20.3032 0.0118155 20.2913 0.0118155C17.9519 0.0118155 15.6833 0.472619 13.5447 1.3765C11.4829 2.25085 9.62789 3.49738 8.0328 5.09247C6.44362 6.68165 5.19118 8.53668 4.31684 10.6044C3.41295 12.7489 2.95215 15.0234 2.95215 17.3628C2.95215 19.7023 3.41295 21.9709 4.31684 24.1095C4.96078 25.6337 5.81149 27.0456 6.85716 28.3158L8.88942 29.072L9.73423 28.6466ZM31.7583 6.43352C32.1068 6.78208 32.4377 7.14836 32.7508 7.52645C31.6637 8.15267 30.3699 8.69619 28.9403 9.12745C28.5563 7.76276 28.0777 6.48669 27.4988 5.3465C26.9907 4.33628 26.4236 3.46784 25.821 2.72937C28.0364 3.47966 30.0627 4.7321 31.7583 6.43352ZM21.5556 1.99091C22.1936 2.13269 22.8258 2.46353 23.4343 2.9775C24.3204 3.72187 25.1239 4.80299 25.821 6.19721C26.335 7.22516 26.7721 8.37126 27.1207 9.60598C25.3602 9.98998 23.4874 10.2027 21.5497 10.244V1.99091H21.5556ZM21.5556 12.1227C23.6529 12.0754 25.6851 11.8391 27.5697 11.4315C27.8887 13.0147 28.0777 14.7103 28.1309 16.459H21.5556V12.1227ZM17.686 2.97159C18.3004 2.45762 18.9267 2.12678 19.5647 1.985V10.2381C17.627 10.1968 15.7601 9.98407 13.9937 9.60007C14.3423 8.36535 14.7794 7.21925 15.2934 6.19131C15.9964 4.79708 16.7999 3.71597 17.686 2.97159ZM9.36204 6.43352C11.0635 4.7321 13.0898 3.48556 15.2993 2.72937C14.6908 3.46193 14.1296 4.33628 13.6215 5.3465C13.0485 6.48669 12.564 7.76276 12.18 9.12745C10.7504 8.69619 9.45066 8.15267 8.36954 7.52645C8.67674 7.14836 9.00758 6.78208 9.36204 6.43352ZM7.25889 9.05065C8.54677 9.82456 10.0651 10.4626 11.731 10.9588C11.3766 12.6957 11.1639 14.5448 11.1107 16.453H4.86035C5.01395 13.7946 5.84103 11.2601 7.25889 9.05065Z" fill="#86888C"/>
<path d="M29.4189 29.0183L39.9405 23.6541C40.7203 23.2642 41.2048 22.4903 41.2225 21.6218C41.2402 20.7593 40.7794 19.9677 40.0173 19.5541L37.1403 17.9827C36.5022 17.6341 35.6929 17.6105 35.0371 17.9236L26.3705 22.2185L18.0347 17.2856C17.9638 17.2442 17.8811 17.2087 17.7865 17.191C17.6861 17.1733 17.5857 17.1733 17.4911 17.191L17.4498 17.1969L11.3176 18.6266C11.1758 18.6621 11.0399 18.7389 10.9336 18.8511C10.8449 18.9456 10.78 19.052 10.7504 19.1701C10.6736 19.4419 10.7445 19.7314 10.9454 19.9322L17.4262 26.4721L8.9781 30.7316L1.04401 27.7718C0.742713 27.6595 0.405972 27.7481 0.199201 27.9786C-0.0134772 28.2149 -0.0607391 28.5634 0.0810466 28.847L4.68317 38.0571C4.81314 38.323 5.07899 38.4884 5.38028 38.4884H9.98832C10.1183 38.4884 10.2542 38.453 10.3664 38.388L20.2087 32.9292L19.7597 39.1619C19.742 39.4396 19.872 39.7054 20.1024 39.8649C20.3328 40.0185 20.6341 40.0362 20.8822 39.9122L27.0203 36.8402C27.2153 36.7397 27.363 36.5625 27.422 36.3498L29.4189 29.0183Z" fill="#86888C"/>
<path d="M27.0203 36.8465L20.8822 39.9185C20.6341 40.0426 20.3328 40.0249 20.1024 39.8713C19.872 39.7177 19.742 39.4459 19.7597 39.1682L20.2087 32.9356L10.3664 38.3943C10.2483 38.4593 10.1183 38.4948 9.98832 38.4948H5.38028C5.0849 38.4948 4.81905 38.3293 4.68317 38.0635L0.0810466 28.8474C-0.0607391 28.5639 -0.0134772 28.2153 0.199201 27.979C0.405972 27.7486 0.742713 27.66 1.04401 27.7722L8.9781 30.732L17.4262 26.4725L10.9572 19.9386C10.7622 19.7377 10.6854 19.4482 10.7622 19.1765C10.7977 19.0583 10.8568 18.952 10.9454 18.8574C11.0517 18.7452 11.1817 18.6684 11.3294 18.633L17.4616 17.2033L17.503 17.1974C17.5975 17.1797 17.6979 17.1797 17.7983 17.1974C17.887 17.2151 17.9697 17.2446 18.0465 17.2919L26.3823 22.2249L35.0489 17.9299C35.7047 17.6168 36.52 17.6405 37.1521 17.989L40.0291 19.5605C40.7853 19.974 41.2461 20.7656 41.2343 21.6282C41.2166 22.4907 40.7263 23.2705 39.9523 23.6604L29.4189 29.0188L27.422 36.3562C27.363 36.5688 27.2153 36.7461 27.0203 36.8465Z" fill="#86888C"/>
</svg>
