<svg width="24" height="24" viewBox="0 0 24 24" fill="none" xmlns="http://www.w3.org/2000/svg">
<path fill-rule="evenodd" clip-rule="evenodd" d="M21.371 11.3326H18.8635C18.8123 11.3326 18.7724 11.3497 18.7298 11.3582C18.5931 9.65618 18.0609 8.42949 17.338 7.55002C17.3636 7.53294 17.3807 7.52441 17.3978 7.50733L19.1994 5.71425C19.4441 5.47801 19.4527 5.08809 19.2165 4.84332L19.1994 4.82624C18.9603 4.57863 18.5675 4.57293 18.3199 4.81201L18.3057 4.82624L16.5041 6.61933C16.487 6.6364 16.4784 6.66202 16.4614 6.68479C15.1066 5.62886 13.49 5.36986 12.6304 5.31009V2.629C12.6276 2.28177 12.3458 2.00285 11.9986 2C11.6513 2 11.3696 2.27892 11.3667 2.62616V5.3044C10.493 5.35563 8.8991 5.59755 7.56141 6.6364C7.54433 6.61933 7.53579 6.58802 7.51018 6.57094L5.75978 4.82624C5.52071 4.57863 5.12509 4.57293 4.88032 4.81201L4.86609 4.82624C4.62416 5.07386 4.62416 5.46947 4.86609 5.71425L6.61648 7.4561C6.64209 7.47318 6.66771 7.48171 6.69333 7.50733C5.98748 8.38964 5.46378 9.63057 5.34709 11.3553C5.3044 11.3468 5.27309 11.3326 5.2304 11.3326H2.63185C2.28462 11.3326 2.00285 11.6143 2 11.9616C2 12.3031 2.28746 12.5877 2.63185 12.5877H5.23324C5.2674 12.5877 5.2987 12.5707 5.33286 12.5707C5.40971 14.3068 5.86509 15.5791 6.52825 16.5041C6.51117 16.5211 6.48556 16.5268 6.46279 16.5524L4.72663 18.2801C4.48186 18.5163 4.47332 18.9091 4.7124 19.1538C4.71809 19.1595 4.72093 19.1652 4.72663 19.1681C4.84616 19.2933 5.00555 19.3502 5.17347 19.3502C5.29017 19.3502 5.40971 19.3104 5.50932 19.2421C5.60609 19.2136 5.69148 19.1624 5.76263 19.0912L7.35364 17.5144C7.37071 17.4888 7.37925 17.4632 7.40487 17.4404C8.75964 18.6045 10.4446 18.8834 11.3696 18.9404V21.371C11.3696 21.7239 11.6485 22 12.0014 22C12.3487 22 12.6304 21.7211 12.6333 21.371V18.9574C12.6333 18.9489 12.6247 18.9489 12.6247 18.9404C13.5156 18.8891 15.2688 18.6216 16.6748 17.4319C16.6919 17.4575 16.7004 17.4917 16.7261 17.5144L18.3085 19.0912C18.4338 19.2165 18.5931 19.2734 18.7554 19.2734C18.9233 19.2734 19.0827 19.2165 19.2022 19.0912C19.447 18.855 19.4555 18.4651 19.2193 18.2203L19.2022 18.2032L17.6169 16.6293C17.5828 16.5951 17.5429 16.5781 17.4974 16.5524C18.189 15.6217 18.6757 14.3296 18.744 12.5621C18.7867 12.5707 18.8208 12.5877 18.8607 12.5877H21.3682C21.7154 12.5849 21.9972 12.306 22 11.9587C22 11.6143 21.7182 11.3326 21.371 11.3326Z" fill="#86888C"/>
</svg>
