<svg width="28" height="28" viewBox="0 0 28 28" fill="none" xmlns="http://www.w3.org/2000/svg">
<path fill-rule="evenodd" clip-rule="evenodd" d="M25.2452 13.3007H22.2362C22.1748 13.3007 22.1269 13.3211 22.0757 13.3314C21.9118 11.289 21.2731 9.81695 20.4056 8.76159C20.4363 8.7411 20.4568 8.73085 20.4773 8.71036L22.6392 6.55866C22.933 6.27518 22.9432 5.80727 22.6597 5.51354L22.6392 5.49305C22.3524 5.19591 21.881 5.18908 21.5839 5.47598L21.5668 5.49305L19.4049 7.64475C19.3844 7.66525 19.3741 7.69598 19.3536 7.72331C17.7279 6.45619 15.788 6.14539 14.7565 6.07367V2.85637C14.7531 2.43969 14.415 2.10498 13.9983 2.10156C13.5816 2.10156 13.2435 2.43627 13.2401 2.85295V6.06684C12.1915 6.12832 10.2789 6.41862 8.67369 7.66525C8.65319 7.64475 8.64295 7.60718 8.61221 7.58669L6.51174 5.49305C6.22485 5.19591 5.75011 5.18908 5.45638 5.47598L5.43931 5.49305C5.149 5.79019 5.149 6.26493 5.43931 6.55866L7.53977 8.64888C7.57051 8.66937 7.60125 8.67962 7.63199 8.71036C6.78497 9.76913 6.15654 11.2582 6.01651 13.328C5.96528 13.3177 5.92771 13.3007 5.87648 13.3007H2.75822C2.34154 13.3007 2.00342 13.6388 2 14.0555C2 14.4653 2.34496 14.8068 2.75822 14.8068H5.87989C5.92088 14.8068 5.95845 14.7863 5.99943 14.7863C6.09165 16.8697 6.63811 18.3964 7.4339 19.5064C7.41341 19.5269 7.38267 19.5338 7.35534 19.5645L5.27195 21.6376C4.97823 21.9211 4.96798 22.3924 5.25487 22.6862C5.2617 22.693 5.26512 22.6998 5.27195 22.7032C5.4154 22.8535 5.60666 22.9218 5.80817 22.9218C5.9482 22.9218 6.09165 22.874 6.21119 22.792C6.32731 22.7579 6.42977 22.6964 6.51516 22.611L8.42436 20.7189C8.44486 20.6882 8.4551 20.6574 8.48584 20.6301C10.1116 22.027 12.1335 22.3617 13.2435 22.43V25.3468C13.2435 25.7703 13.5782 26.1016 14.0017 26.1016C14.4184 26.1016 14.7565 25.7669 14.7599 25.3468V22.4505C14.7599 22.4403 14.7497 22.4403 14.7497 22.43C15.8187 22.3685 17.9226 22.0475 19.6098 20.6198C19.6303 20.6506 19.6405 20.6916 19.6713 20.7189L21.5702 22.611C21.7205 22.7613 21.9118 22.8296 22.1064 22.8296C22.308 22.8296 22.4992 22.7613 22.6427 22.611C22.9364 22.3275 22.9466 21.8596 22.6632 21.5659L22.6427 21.5454L20.7403 19.6567C20.6993 19.6157 20.6515 19.5952 20.5968 19.5645C21.4268 18.4477 22.0108 16.8971 22.0928 14.7761C22.144 14.7863 22.185 14.8068 22.2328 14.8068H25.2418C25.6585 14.8034 25.9966 14.4687 26 14.052C26 13.6388 25.6619 13.3007 25.2452 13.3007Z" fill="#86888C"/>
</svg>
