<svg width="40" height="40" viewBox="0 0 40 40" fill="none" xmlns="http://www.w3.org/2000/svg">
<path fill-rule="evenodd" clip-rule="evenodd" d="M36.8678 19.9002H32.3543C32.2621 19.9002 32.1904 19.9309 32.1136 19.9463C31.8677 16.8827 30.9096 14.6746 29.6084 13.0916C29.6545 13.0609 29.6852 13.0455 29.716 13.0148L32.9589 9.7872C33.3995 9.36199 33.4148 8.66012 32.9896 8.21954L32.9589 8.1888C32.5285 7.74309 31.8215 7.73284 31.3758 8.16318L31.3502 8.1888L28.1073 11.4163C28.0766 11.4471 28.0612 11.4932 28.0305 11.5342C25.5919 9.63351 22.6819 9.16731 21.1348 9.05972V4.23377C21.1296 3.60875 20.6225 3.10669 19.9974 3.10156C19.3724 3.10156 18.8652 3.60363 18.8601 4.22864V9.04948C17.2873 9.14169 14.4184 9.57716 12.0105 11.4471C11.9798 11.4163 11.9644 11.36 11.9183 11.3293L8.76761 8.1888C8.33727 7.74309 7.62516 7.73284 7.18457 8.16318L7.15896 8.1888C6.7235 8.63451 6.7235 9.34662 7.15896 9.7872L10.3097 12.9225C10.3558 12.9533 10.4019 12.9686 10.448 13.0148C9.17746 14.6029 8.23481 16.8366 8.02476 19.9412C7.94792 19.9258 7.89156 19.9002 7.81471 19.9002H3.13733C2.51231 19.9002 2.00512 20.4074 2 21.0324C2 21.6472 2.51743 22.1595 3.13733 22.1595H7.81984C7.88131 22.1595 7.93767 22.1287 7.99915 22.1287C8.13747 25.2538 8.95717 27.5439 10.1508 29.2089C10.1201 29.2396 10.074 29.2498 10.033 29.296L6.90793 32.4057C6.46734 32.8309 6.45197 33.5379 6.88231 33.9785C6.89256 33.9887 6.89768 33.999 6.90793 34.0041C7.1231 34.2295 7.40999 34.332 7.71225 34.332C7.9223 34.332 8.13747 34.2602 8.31678 34.1373C8.49096 34.0861 8.64466 33.9938 8.77273 33.8658L11.6365 31.0276C11.6673 30.9815 11.6827 30.9353 11.7288 30.8944C14.1674 32.9897 17.2002 33.4918 18.8652 33.5942V37.9694C18.8652 38.6046 19.3673 39.1016 20.0026 39.1016C20.6276 39.1016 21.1348 38.5995 21.1399 37.9694V33.625C21.1399 33.6096 21.1245 33.6096 21.1245 33.5942C22.728 33.502 25.8839 33.0204 28.4147 30.879C28.4454 30.9251 28.4608 30.9866 28.5069 31.0276L31.3553 33.8658C31.5808 34.0912 31.8677 34.1936 32.1597 34.1936C32.4619 34.1936 32.7488 34.0912 32.964 33.8658C33.4046 33.4405 33.42 32.7387 32.9947 32.2981L32.964 32.2674L30.1104 29.4343C30.049 29.3728 29.9772 29.3421 29.8953 29.296C31.1402 27.6207 32.0162 25.2948 32.1392 22.1134C32.216 22.1287 32.2775 22.1595 32.3492 22.1595H36.8627C37.4877 22.1544 37.9949 21.6523 38 21.0273C38 20.4074 37.4928 19.9002 36.8678 19.9002Z" fill="#86888C"/>
</svg>
