<svg width="20" height="20" viewBox="0 0 20 20" fill="none" xmlns="http://www.w3.org/2000/svg">
<path fill-rule="evenodd" clip-rule="evenodd" d="M15.3136 16.0034C14.4052 14.5942 13.8338 12.6363 13.7314 10.5441H18C17.8589 12.7137 16.848 14.6397 15.3136 16.0034ZM10.6147 17.9909V10.5441H12.5566C12.6682 12.8936 13.3238 15.1178 14.3825 16.716C13.2851 17.4354 12.0011 17.8907 10.6147 17.9909ZM10.6147 2C11.9556 2.10245 13.2077 2.53273 14.2869 3.22254C13.2533 4.85031 12.634 7.03813 12.5566 9.36938H10.6147V2ZM18 9.36938H13.7314C13.8088 7.31816 14.3506 5.34434 15.2271 3.91918C16.7934 5.26466 17.827 7.19294 18 9.36938ZM9.43995 9.36938H7.4115C7.33409 7.04496 6.72168 4.85942 5.69721 3.23847C6.79454 2.535 8.06944 2.09562 9.43995 2.00228V9.36938ZM9.43995 18C8.02163 17.8976 6.70802 17.4354 5.57883 16.6932C6.65111 15.0791 7.29539 12.9027 7.40467 10.5441H9.43995V18ZM2 10.5441H6.22994C6.12977 12.6113 5.55834 14.5623 4.6568 15.9715C3.14513 14.6101 2.14798 12.691 2 10.5441ZM4.75697 3.94195C5.63347 5.37393 6.15936 7.30222 6.23677 9.36938H2.00911C2.17985 7.19977 3.2066 5.28287 4.75697 3.94195Z" fill="#86888C"/>
</svg>
