<svg width="24" height="24" viewBox="0 0 24 24" fill="none" xmlns="http://www.w3.org/2000/svg">
<path fill-rule="evenodd" clip-rule="evenodd" d="M18.642 19.5043C17.5065 17.7427 16.7923 15.2954 16.6642 12.6801H22C21.8236 15.3921 20.56 17.7997 18.642 19.5043ZM12.7684 21.9886V12.6801H15.1958C15.3352 15.617 16.1548 18.3973 17.4781 20.395C16.1064 21.2943 14.5014 21.8634 12.7684 21.9886ZM12.7684 2C14.4445 2.12806 16.0097 2.66591 17.3586 3.52817C16.0666 5.56289 15.2925 8.29767 15.1958 11.2117H12.7684V2ZM22 11.2117H16.6642C16.761 8.6477 17.4382 6.18042 18.5339 4.39898C20.4917 6.08082 21.7837 8.49118 22 11.2117ZM11.2999 11.2117H8.76437C8.66762 8.3062 7.90211 5.57427 6.62151 3.54809C7.99317 2.66875 9.5868 2.11952 11.2999 2.00285V11.2117ZM11.2999 22C9.52703 21.8719 7.88503 21.2943 6.47353 20.3665C7.81389 18.3489 8.61924 15.6283 8.75583 12.6801H11.2999V22ZM2 12.6801H7.28742C7.16221 15.2641 6.44792 17.7029 5.321 19.4644C3.43142 17.7627 2.18497 15.3637 2 12.6801ZM5.44622 4.42743C6.54183 6.21742 7.1992 8.62778 7.29596 11.2117H2.01138C2.22482 8.49972 3.50825 6.10359 5.44622 4.42743Z" fill="#86888C"/>
</svg>
