<svg width="24" height="24" viewBox="0 0 24 24" fill="none" xmlns="http://www.w3.org/2000/svg">
<path d="M19.0398 10.3186H15.6107C15.4542 10.3186 15.3261 10.4467 15.3261 10.6031V14.202C15.3261 14.3585 15.4542 14.4865 15.6107 14.4865H19.0398C19.1963 14.4865 19.3244 14.3585 19.3244 14.202V10.6031C19.3244 10.4467 19.1963 10.3186 19.0398 10.3186ZM17.6084 13.3457V13.9175H17.0364V13.3457H17.6084ZM15.8981 12.7767V12.0284H18.7552V12.7767H15.8981ZM17.0364 11.4595V10.8876H17.6084V11.4595H17.0364ZM18.7524 11.4595H18.1776V10.8876H18.7552L18.7524 11.4595ZM16.4673 10.8876V11.4595H15.8981V10.8876H16.4673ZM15.8981 13.3457H16.4673V13.9175H15.8981V13.3457ZM18.1776 13.9175V13.3457H18.7552V13.9175H18.1776Z" fill="#86888C"/>
<path d="M19.6346 6.58321H17.9015V5.34282C17.9015 4.21906 17.6369 3.40256 17.0933 2.84495C16.5413 2.27596 15.7245 2 14.6005 2H7.30108C5.10985 2 4 3.12376 4 5.34282V18.6572C4 20.9075 5.07854 22 7.30108 22H14.6005C16.823 22 17.9015 20.9075 17.9015 18.6572V16.0284H19.6346C20.3404 16.0284 20.7957 15.5733 20.7957 14.8677V7.74395C20.7928 7.03841 20.3375 6.58321 19.6346 6.58321ZM11.6665 19.2376C11.4957 19.4111 11.2482 19.4936 10.9408 19.4936C10.6335 19.4936 10.3859 19.4111 10.2151 19.2376C10.0586 19.0782 9.9704 18.8393 9.9704 18.5206C9.9704 17.8549 10.3517 17.5477 10.9408 17.5477C11.5299 17.5477 11.9112 17.8578 11.9112 18.5206C11.9084 18.8421 11.8201 19.0782 11.6665 19.2376ZM19.9391 14.8677C19.9391 15.1067 19.8708 15.175 19.6318 15.175H14.9932C14.7541 15.175 14.6858 15.1067 14.6858 14.8677V8.88193L16.6209 7.43385H19.6318C19.8708 7.43385 19.9391 7.50213 19.9391 7.74111V14.8677Z" fill="#86888C"/>
</svg>
