<svg width="28" height="28" viewBox="0 0 28 28" fill="none" xmlns="http://www.w3.org/2000/svg">
<path d="M23.0478 11.9824H18.9328C18.745 11.9824 18.5913 12.136 18.5913 12.3238V16.6424C18.5913 16.8302 18.745 16.9838 18.9328 16.9838H23.0478C23.2356 16.9838 23.3893 16.8302 23.3893 16.6424V12.3238C23.3893 12.136 23.2356 11.9824 23.0478 11.9824ZM21.3301 15.6148V16.301H20.6437V15.6148H21.3301ZM19.2777 14.932V14.0341H22.7063V14.932H19.2777ZM20.6437 13.3513V12.6651H21.3301V13.3513H20.6437ZM22.7029 13.3513H22.0131V12.6651H22.7063L22.7029 13.3513ZM19.9607 12.6651V13.3513H19.2777V12.6651H19.9607ZM19.2777 15.6148H19.9607V16.301H19.2777V15.6148ZM22.0131 16.301V15.6148H22.7063V16.301H22.0131Z" fill="#86888C"/>
<path d="M23.7615 7.49986H21.6818V6.01138C21.6818 4.66287 21.3643 3.68307 20.712 3.01394C20.0495 2.33115 19.0694 2 17.7205 2H8.9613C6.33182 2 5 3.34851 5 6.01138V21.9886C5 24.689 6.29425 26 8.9613 26H17.7205C20.3876 26 21.6818 24.689 21.6818 21.9886V18.8341H23.7615C24.6084 18.8341 25.1548 18.2879 25.1548 17.4413V8.89275C25.1514 8.04609 24.605 7.49986 23.7615 7.49986ZM14.1998 22.6851C13.9949 22.8933 13.6978 22.9923 13.329 22.9923C12.9602 22.9923 12.6631 22.8933 12.4582 22.6851C12.2703 22.4939 12.1645 22.2071 12.1645 21.8248C12.1645 21.0259 12.6221 20.6572 13.329 20.6572C14.0359 20.6572 14.4935 21.0293 14.4935 21.8248C14.49 22.2105 14.3842 22.4939 14.1998 22.6851ZM24.1269 17.4413C24.1269 17.728 24.045 17.81 23.7581 17.81H18.1918C17.905 17.81 17.823 17.728 17.823 17.4413V10.2583L20.1451 8.52063H23.7581C24.045 8.52063 24.1269 8.60256 24.1269 8.88933V17.4413Z" fill="#86888C"/>
</svg>
