<svg width="40" height="40" viewBox="0 0 40 40" fill="none" xmlns="http://www.w3.org/2000/svg">
<path d="M32.0717 17.2274H25.8992C25.6175 17.2274 25.387 17.4579 25.387 17.7395V24.2175C25.387 24.4991 25.6175 24.7296 25.8992 24.7296H32.0717C32.3534 24.7296 32.5839 24.4991 32.5839 24.2175V17.7395C32.5839 17.4579 32.3534 17.2274 32.0717 17.2274ZM29.4951 22.6761V23.7054H28.4655V22.6761H29.4951ZM26.4166 21.6519V20.3051H31.5594V21.6519H26.4166ZM28.4655 19.2809V18.2516H29.4951V19.2809H28.4655ZM31.5543 19.2809H30.5196V18.2516H31.5594L31.5543 19.2809ZM27.4411 18.2516V19.2809H26.4166V18.2516H27.4411ZM26.4166 22.6761H27.4411V23.7054H26.4166V22.6761ZM30.5196 23.7054V22.6761H31.5594V23.7054H30.5196Z" fill="#86888C"/>
<path d="M33.1423 10.5037H30.0228V8.27098C30.0228 6.24822 29.5464 4.77851 28.568 3.77482C27.5743 2.75063 26.1042 2.25391 24.0808 2.25391H10.9419C6.99772 2.25391 5 4.27667 5 8.27098V32.2368C5 36.2875 6.94138 38.2539 10.9419 38.2539H24.0808C28.0814 38.2539 30.0228 36.2875 30.0228 32.2368V27.5051H33.1423C34.4126 27.5051 35.2322 26.6858 35.2322 25.4158V12.593C35.2271 11.323 34.4075 10.5037 33.1423 10.5037ZM18.7997 33.2815C18.4923 33.5939 18.0467 33.7424 17.4935 33.7424C16.9402 33.7424 16.4946 33.5939 16.1873 33.2815C15.9055 32.9947 15.7467 32.5646 15.7467 31.991C15.7467 30.7927 16.4331 30.2397 17.4935 30.2397C18.5538 30.2397 19.2402 30.7979 19.2402 31.991C19.2351 32.5697 19.0763 32.9947 18.7997 33.2815ZM33.6904 25.4158C33.6904 25.8459 33.5674 25.9688 33.1372 25.9688H24.7877C24.3574 25.9688 24.2345 25.8459 24.2345 25.4158V14.6414L27.7177 12.0348H33.1372C33.5674 12.0348 33.6904 12.1577 33.6904 12.5879V25.4158Z" fill="#86888C"/>
</svg>
