<svg width="20" height="20" viewBox="0 0 20 20" fill="none" xmlns="http://www.w3.org/2000/svg">
<path d="M15.0319 8.65491H12.2885C12.1633 8.65491 12.0609 8.75733 12.0609 8.8825V11.7616C12.0609 11.8868 12.1633 11.9892 12.2885 11.9892H15.0319C15.1571 11.9892 15.2595 11.8868 15.2595 11.7616V8.8825C15.2595 8.75733 15.1571 8.65491 15.0319 8.65491ZM13.8867 11.0765V11.534H13.4291V11.0765H13.8867ZM12.5185 10.6213V10.0228H14.8042V10.6213H12.5185ZM13.4291 9.56757V9.1101H13.8867V9.56757H13.4291ZM14.8019 9.56757H14.342V9.1101H14.8042L14.8019 9.56757ZM12.9738 9.1101V9.56757H12.5185V9.1101H12.9738ZM12.5185 11.0765H12.9738V11.534H12.5185V11.0765ZM14.342 11.534V11.0765H14.8042V11.534H14.342Z" fill="#86888C"/>
<path d="M15.5077 5.66657H14.1212V4.67425C14.1212 3.77525 13.9095 3.12205 13.4747 2.67596C13.033 2.22077 12.3796 2 11.4804 2H5.64087C3.88788 2 3 2.899 3 4.67425V15.3257C3 17.126 3.86283 18 5.64087 18H11.4804C13.2584 18 14.1212 17.126 14.1212 15.3257V13.2228H15.5077C16.0723 13.2228 16.4365 12.8586 16.4365 12.2942V6.59516C16.4343 6.03073 16.07 5.66657 15.5077 5.66657ZM9.13318 15.79C8.99659 15.9289 8.79852 15.9949 8.55265 15.9949C8.30677 15.9949 8.10871 15.9289 7.97211 15.79C7.8469 15.6626 7.77632 15.4714 7.77632 15.2165C7.77632 14.6839 8.08139 14.4381 8.55265 14.4381C9.0239 14.4381 9.32897 14.6862 9.32897 15.2165C9.32669 15.4737 9.25612 15.6626 9.13318 15.79ZM15.7513 12.2942C15.7513 12.4853 15.6966 12.54 15.5054 12.54H11.7945C11.6033 12.54 11.5487 12.4853 11.5487 12.2942V7.50555L13.0968 6.34708H15.5054C15.6966 6.34708 15.7513 6.40171 15.7513 6.59289V12.2942Z" fill="#86888C"/>
</svg>
