<svg width="40" height="40" viewBox="0 0 40 40" fill="none" xmlns="http://www.w3.org/2000/svg">
<path d="M36.5481 33.0001H4.04366C3.50241 33.0001 3.05957 32.5572 3.05957 32.016C3.05957 31.4747 3.50241 31.0319 4.04366 31.0319H36.5481C37.0893 31.0319 37.5322 31.4747 37.5322 32.016C37.5322 32.5572 37.0893 33.0001 36.5481 33.0001ZM22.4018 15.3308H23.2432L21.6195 13.707V14.2581C21.6195 14.9667 21.8852 15.3308 22.4018 15.3308Z" fill="#86888C"/>
<path d="M20.6355 14.2591V13.0732H16.7139V24.0704H23.878V16.3158H22.4019C21.3145 16.3158 20.6355 15.5285 20.6355 14.2591ZM22.6233 22.4024H17.9735C17.7029 22.4024 17.4815 22.181 17.4815 21.9104C17.4815 21.6397 17.7029 21.4183 17.9735 21.4183H22.6282C22.8989 21.4183 23.1203 21.6397 23.1203 21.9104C23.1203 22.181 22.8939 22.4024 22.6233 22.4024ZM22.6233 20.4096H17.9735C17.7029 20.4096 17.4815 20.1882 17.4815 19.9176C17.4815 19.6469 17.7029 19.4255 17.9735 19.4255H22.6282C22.8989 19.4255 23.1203 19.6469 23.1203 19.9176C23.1203 20.1882 22.8939 20.4096 22.6233 20.4096ZM23.1154 17.9248C23.1154 18.1954 22.8939 18.4168 22.6233 18.4168H17.9735C17.7029 18.4168 17.4815 18.1954 17.4815 17.9248C17.4815 17.6542 17.7029 17.4328 17.9735 17.4328H22.6282C22.8939 17.4328 23.1154 17.6493 23.1154 17.9248Z" fill="#86888C"/>
<path d="M36.208 9.70739C35.219 8.57569 33.7429 8 31.8092 8H8.78152C6.8527 8 5.37165 8.57569 4.38264 9.70739C3.46744 10.7604 3 12.2857 3 14.244V22.9188C3 24.8771 3.46744 26.4024 4.38264 27.4554C5.37165 28.5871 6.84778 29.1628 8.78152 29.1628H31.8092C33.738 29.1628 35.219 28.5871 36.208 27.4603C37.1282 26.4074 37.5907 24.882 37.5907 22.9237V14.244C37.5907 12.2857 37.1232 10.7604 36.208 9.70739ZM25.3536 24.4195C25.3536 25.0788 24.891 25.5414 24.2317 25.5414H16.3738C15.6947 25.5414 15.2371 25.0838 15.2371 24.3998V12.7236C15.2371 12.0446 15.6947 11.5919 16.3738 11.5919H21.2942C21.491 11.5919 21.678 11.6706 21.8158 11.8084L25.1371 15.1346C25.2748 15.2724 25.3536 15.4643 25.3536 15.6611V24.4195Z" fill="#86888C"/>
</svg>
