<svg width="24" height="24" viewBox="0 0 24 24" fill="none" xmlns="http://www.w3.org/2000/svg">
<path d="M21.7862 19.9991H3.58428C3.28119 19.9991 3.0332 19.7511 3.0332 19.448C3.0332 19.1449 3.28119 18.8969 3.58428 18.8969H21.7862C22.0893 18.8969 22.3373 19.1449 22.3373 19.448C22.3373 19.7511 22.0893 19.9991 21.7862 19.9991ZM13.8645 10.1046H14.3357L13.4264 9.19531V9.50391C13.4264 9.90069 13.5752 10.1046 13.8645 10.1046Z" fill="#86888C"/>
<path d="M12.8752 9.50486V8.84082H10.6792V14.9991H14.691V10.6566H13.8644C13.2555 10.6566 12.8752 10.2157 12.8752 9.50486ZM13.9884 14.065H11.3846C11.233 14.065 11.109 13.941 11.109 13.7895C11.109 13.6379 11.233 13.5139 11.3846 13.5139H13.9911C14.1427 13.5139 14.2667 13.6379 14.2667 13.7895C14.2667 13.941 14.1399 14.065 13.9884 14.065ZM13.9884 12.9491H11.3846C11.233 12.9491 11.109 12.8251 11.109 12.6735C11.109 12.522 11.233 12.398 11.3846 12.398H13.9911C14.1427 12.398 14.2667 12.522 14.2667 12.6735C14.2667 12.8251 14.1399 12.9491 13.9884 12.9491ZM14.2639 11.5576C14.2639 11.7092 14.1399 11.8331 13.9884 11.8331H11.3846C11.233 11.8331 11.109 11.7092 11.109 11.5576C11.109 11.4061 11.233 11.2821 11.3846 11.2821H13.9911C14.1399 11.2821 14.2639 11.4033 14.2639 11.5576Z" fill="#86888C"/>
<path d="M21.5959 6.95611C21.0421 6.32238 20.2155 6 19.1327 6H6.23755C5.15745 6 4.32808 6.32238 3.77426 6.95611C3.26176 7.54576 3 8.39992 3 9.49656V14.3543C3 15.4509 3.26176 16.3051 3.77426 16.8947C4.32808 17.5284 5.15469 17.8508 6.23755 17.8508H19.1327C20.2128 17.8508 21.0421 17.5284 21.5959 16.8975C22.1112 16.3078 22.3702 15.4536 22.3702 14.357V9.49656C22.3702 8.39992 22.1084 7.54576 21.5959 6.95611ZM15.5176 15.1946C15.5176 15.5639 15.2586 15.8229 14.8894 15.8229H10.4891C10.1088 15.8229 9.85259 15.5666 9.85259 15.1836V8.64515C9.85259 8.26491 10.1088 8.01142 10.4891 8.01142H13.2444C13.3547 8.01142 13.4594 8.0555 13.5365 8.13265L15.3964 9.99528C15.4735 10.0724 15.5176 10.1799 15.5176 10.2901V15.1946Z" fill="#86888C"/>
</svg>
