<svg width="40" height="40" viewBox="0 0 40 40" fill="none" xmlns="http://www.w3.org/2000/svg">
<path fill-rule="evenodd" clip-rule="evenodd" d="M21.9129 32.5381C18.5108 32.6965 15.7177 33.583 14.0835 34.2317V21.5888C17.0201 20.1576 20.3134 19.9496 21.9129 19.9447V32.5381ZM11.9541 34.2268C9.45321 33.2413 6.80874 32.6668 4.12961 32.5331V19.9496C4.97148 19.9546 6.28381 20.019 7.76451 20.2814C8.09136 20.3408 8.42315 20.4052 8.7599 20.4845C8.80942 20.4944 8.85895 20.5142 8.90847 20.5241C9.2056 20.5984 9.50273 20.6726 9.80481 20.7667C9.94348 20.8113 10.0871 20.8608 10.2307 20.9103C10.4486 20.9797 10.6615 21.049 10.8794 21.1332C11.2409 21.2719 11.6025 21.4254 11.959 21.5987L11.9541 34.2268ZM31.223 28.6803C33.0058 28.6803 34.4122 28.1504 35.3878 27.1055C36.3238 26.1052 36.8041 24.7037 36.8041 22.9358V13.7C36.8041 11.932 36.3238 10.5355 35.3829 9.54508C34.4073 8.51503 33.0108 8 31.223 8L12.1472 8.0099C10.3595 8.0099 8.96294 8.52988 7.98736 9.55499C7.04645 10.5504 6.56608 11.9469 6.56608 13.7148V17.8945C4.5555 17.6766 3.09955 17.7806 2.9807 17.7905C2.41615 17.84 1.99026 18.3154 2.00017 18.88V33.6078C2.00017 34.2119 2.47558 34.7022 3.06489 34.7022C8.42315 34.7022 12.4889 36.8465 12.5285 36.8712C12.682 36.9554 12.8504 36.995 13.0237 37C13.0386 37 13.0485 36.9901 13.0634 36.9901C13.2218 36.9851 13.3753 36.9455 13.519 36.8762C13.5586 36.8564 17.5946 34.7071 22.9826 34.7071C23.5768 34.6972 24.0572 34.207 24.0473 33.6127V32.2509H35.7444C36.3386 32.2409 36.819 31.7507 36.8091 31.1564C36.819 30.5622 36.3436 30.0669 35.7444 30.062H24.0423V28.6902L31.223 28.6803Z" fill="#86888C"/>
</svg>
