<svg width="28" height="28" viewBox="0 0 28 28" fill="none" xmlns="http://www.w3.org/2000/svg">
<path fill-rule="evenodd" clip-rule="evenodd" d="M15.0464 22.0767C12.8174 22.1805 10.9875 22.7613 9.91678 23.1863V14.903C11.8408 13.9653 13.9984 13.8291 15.0464 13.8258V22.0767ZM8.52163 23.1831C6.88314 22.5374 5.15055 22.161 3.39526 22.0734V13.8291C3.94683 13.8323 4.80663 13.8745 5.77675 14.0464C5.99089 14.0854 6.20827 14.1276 6.4289 14.1795C6.46135 14.186 6.49379 14.1989 6.52624 14.2054C6.72091 14.2541 6.91558 14.3028 7.1135 14.3644C7.20435 14.3936 7.29844 14.4261 7.39253 14.4585C7.53529 14.5039 7.6748 14.5493 7.81756 14.6045C8.05441 14.6954 8.29127 14.7959 8.52487 14.9095L8.52163 23.1831ZM21.1461 19.5492C22.3141 19.5492 23.2356 19.202 23.8748 18.5174C24.488 17.862 24.8027 16.9438 24.8027 15.7855V9.73446C24.8027 8.57616 24.488 7.6612 23.8715 7.0123C23.2323 6.33743 22.3174 6 21.1461 6L8.64816 6.00649C7.47689 6.00649 6.56193 6.34717 5.92275 7.01878C5.30629 7.67094 4.99157 8.58589 4.99157 9.74419V12.4826C3.67429 12.3398 2.7204 12.408 2.64253 12.4144C2.27265 12.4469 1.99362 12.7584 2.00011 13.1282V22.7775C2.00011 23.1733 2.31159 23.4945 2.69769 23.4945C6.20827 23.4945 8.87204 24.8994 8.89799 24.9156C8.99857 24.9708 9.10889 24.9968 9.22245 25C9.23218 25 9.23867 24.9935 9.2484 24.9935C9.35223 24.9903 9.45281 24.9643 9.5469 24.9189C9.57286 24.9059 12.2172 23.4978 15.7472 23.4978C16.1366 23.4913 16.4513 23.1701 16.4448 22.7807V21.8885H24.1084C24.4977 21.882 24.8124 21.5608 24.806 21.1714C24.8124 20.7821 24.501 20.4576 24.1084 20.4544H16.4415V19.5557L21.1461 19.5492Z" fill="#86888C"/>
</svg>
