<svg width="28" height="28" viewBox="0 0 28 28" fill="none" xmlns="http://www.w3.org/2000/svg">
<path fill-rule="evenodd" clip-rule="evenodd" d="M10.36 16.2934C10.0151 15.846 9.77259 15.3474 9.65647 14.777H17.3445C17.2284 15.3474 16.9825 15.8426 16.641 16.2934H10.36ZM12.0063 10.2277C12.4708 9.90665 12.9728 9.58901 13.4988 9.27138C14.0282 9.58901 14.5302 9.90323 14.9947 10.2277H12.0063ZM19.001 14.0017C19.001 11.2421 17.0337 9.66757 14.9742 8.37996C17.0337 7.09236 19.001 5.51786 19.001 2.75822C19.001 2.34154 18.6492 2 18.2155 2C17.7817 2 17.4299 2.33812 17.4299 2.75822C17.4299 5.00213 15.6505 6.20094 13.5022 7.48513C11.3539 6.19752 9.5745 5.00213 9.5745 2.75822C9.5745 2.34154 9.22271 2 8.78896 2C8.3552 2 8.00342 2.33812 8.00342 2.75822C8.00342 5.51786 9.97068 7.09236 12.0302 8.37996C9.97068 9.66757 8.00342 11.2455 8.00342 14.0017C8.00342 15.4225 8.52597 16.5257 9.3081 17.441C9.35591 17.5162 9.41739 17.581 9.48911 17.6357C10.2063 18.4076 11.1046 19.0462 12.0268 19.62C9.96727 20.9076 8 22.4821 8 25.2418C8 25.6585 8.35179 26 8.78554 26C9.2193 26 9.57108 25.6619 9.57108 25.2418C9.57108 22.9979 11.3539 21.8025 13.4988 20.5149C15.6437 21.8025 17.4265 23.0013 17.4265 25.2418C17.4265 25.6585 17.7783 26 18.212 26C18.6458 26 18.9976 25.6619 18.9976 25.2418C18.9976 22.4821 17.0303 20.9076 14.9708 19.62C17.0337 18.3358 19.001 16.7613 19.001 14.0017Z" fill="#86888C"/>
</svg>
