<svg width="24" height="24" viewBox="0 0 24 24" fill="none" xmlns="http://www.w3.org/2000/svg">
<path fill-rule="evenodd" clip-rule="evenodd" d="M8.9667 13.9112C8.67924 13.5384 8.47716 13.1228 8.38039 12.6475H14.7871C14.6903 13.1228 14.4854 13.5355 14.2008 13.9112H8.9667ZM10.3386 8.85641C10.7256 8.58887 11.144 8.32418 11.5823 8.05948C12.0235 8.32418 12.4419 8.58603 12.8289 8.85641H10.3386ZM16.1675 12.0014C16.1675 9.70172 14.5281 8.38964 12.8119 7.31664C14.5281 6.24363 16.1675 4.93155 16.1675 2.63185C16.1675 2.28462 15.8743 2 15.5129 2C15.1514 2 14.8583 2.28177 14.8583 2.63185C14.8583 4.50178 13.3754 5.50078 11.5852 6.57094C9.79493 5.49794 8.31208 4.50178 8.31208 2.63185C8.31208 2.28462 8.01893 2 7.65746 2C7.296 2 7.00285 2.28177 7.00285 2.63185C7.00285 4.93155 8.64224 6.24363 10.3585 7.31664C8.64224 8.38964 7.00285 9.70457 7.00285 12.0014C7.00285 13.1854 7.43831 14.1047 8.09008 14.8675C8.12993 14.9301 8.18116 14.9842 8.24093 15.0297C8.83862 15.673 9.58716 16.2052 10.3556 16.6834C8.63939 17.7564 7 19.0685 7 21.3682C7 21.7154 7.29315 22 7.65462 22C8.01608 22 8.30924 21.7182 8.30924 21.3682C8.30924 19.4982 9.79493 18.5021 11.5823 17.4291C13.3697 18.5021 14.8554 19.5011 14.8554 21.3682C14.8554 21.7154 15.1486 22 15.51 22C15.8715 22 16.1647 21.7182 16.1647 21.3682C16.1647 19.0685 14.5253 17.7564 12.809 16.6834C14.5281 15.6132 16.1675 14.3011 16.1675 12.0014Z" fill="#86888C"/>
</svg>
