<svg width="24" height="24" viewBox="0 0 24 24" fill="none" xmlns="http://www.w3.org/2000/svg">
<path fill-rule="evenodd" clip-rule="evenodd" d="M20.3094 20H4.35724C3.60823 20 3 19.3652 3 18.587V7.41036C3 6.63214 3.60823 6 4.35724 6H20.3121C21.0611 6 21.6693 6.63214 21.6693 7.41036V18.587C21.6667 19.3652 21.0584 20 20.3094 20ZM11.4037 15.2722C11.7198 15.2722 11.9748 15.0066 11.9748 14.6773C11.9748 14.3479 11.7171 14.0823 11.4037 14.0823H5.48606C5.16999 14.0823 4.91501 14.3479 4.91501 14.6773C4.91501 15.0066 5.17264 15.2722 5.48606 15.2722H11.4037ZM9.50199 12.0956C9.81806 12.0956 10.0757 11.83 10.0757 11.5007C10.0757 11.1713 9.81806 10.9057 9.50199 10.9057H5.48606C5.16999 10.9057 4.91235 11.1713 4.91235 11.5007C4.91235 11.83 5.16999 12.0956 5.48606 12.0956H9.50199ZM16.3838 9.37317C15.8446 9.37317 15.4223 9.52191 15.1328 9.81408C14.83 10.1169 14.6786 10.5684 14.6786 11.1527C14.6786 11.7371 14.83 12.1859 15.1328 12.4887C15.4223 12.7809 15.8446 12.927 16.3838 12.927C16.9256 12.927 17.3453 12.7782 17.6374 12.4887C17.9402 12.1859 18.0943 11.7344 18.0943 11.1501C18.0943 10.5657 17.9402 10.1169 17.6374 9.81142C17.3453 9.51926 16.9256 9.37317 16.3838 9.37317ZM17.4276 13.7052H15.3426C14.7105 13.7052 14.1899 13.907 13.842 14.2842C13.5206 14.6321 13.3533 15.1155 13.3533 15.6813V16.2736C13.3533 16.3851 13.4409 16.4754 13.5471 16.4754H19.2284C19.3347 16.4754 19.4223 16.3851 19.4223 16.2736V15.6813C19.4223 15.1155 19.2523 14.6321 18.9309 14.2842C18.5777 13.907 18.0598 13.7052 17.4276 13.7052Z" fill="#86888C"/>
</svg>
