<svg width="20" height="20" viewBox="0 0 20 20" fill="none" xmlns="http://www.w3.org/2000/svg">
<path fill-rule="evenodd" clip-rule="evenodd" d="M16.8367 16H3.16335C2.52134 16 2 15.4559 2 14.7888V5.20888C2 4.54183 2.52134 4 3.16335 4H16.8389C17.4809 4 18.0023 4.54183 18.0023 5.20888V14.7888C18 15.4559 17.4787 16 16.8367 16ZM9.20319 11.9476C9.4741 11.9476 9.69266 11.72 9.69266 11.4377C9.69266 11.1554 9.47183 10.9277 9.20319 10.9277H4.1309C3.85999 10.9277 3.64143 11.1554 3.64143 11.4377C3.64143 11.72 3.86227 11.9476 4.1309 11.9476H9.20319ZM7.57314 9.22482C7.84405 9.22482 8.06488 8.99715 8.06488 8.71486C8.06488 8.43256 7.84405 8.2049 7.57314 8.2049H4.1309C3.85999 8.2049 3.63916 8.43256 3.63916 8.71486C3.63916 8.99715 3.85999 9.22482 4.1309 9.22482H7.57314ZM13.4718 6.89129C13.0097 6.89129 12.6477 7.01878 12.3995 7.26921C12.14 7.52874 12.0102 7.91577 12.0102 8.41662C12.0102 8.91747 12.14 9.30222 12.3995 9.56175C12.6477 9.81218 13.0097 9.93739 13.4718 9.93739C13.9363 9.93739 14.296 9.8099 14.5464 9.56175C14.8059 9.30222 14.938 8.9152 14.938 8.41434C14.938 7.91349 14.8059 7.52874 14.5464 7.26693C14.296 7.01651 13.9363 6.89129 13.4718 6.89129ZM14.3665 10.6044H12.5794C12.0376 10.6044 11.5913 10.7775 11.2931 11.1007C11.0176 11.399 10.8742 11.8133 10.8742 12.2982V12.8059C10.8742 12.9015 10.9493 12.9789 11.0404 12.9789H15.9101C16.0011 12.9789 16.0763 12.9015 16.0763 12.8059V12.2982C16.0763 11.8133 15.9306 11.399 15.6551 11.1007C15.3523 10.7775 14.9084 10.6044 14.3665 10.6044Z" fill="#86888C"/>
</svg>
