<svg width="40" height="40" viewBox="0 0 40 40" fill="none" xmlns="http://www.w3.org/2000/svg">
<path fill-rule="evenodd" clip-rule="evenodd" d="M30.8853 12.3421L23.4608 5.03244V8.2749C23.4608 9.47866 23.8496 10.498 24.5865 11.2203C25.3284 11.9528 26.3825 12.3369 27.631 12.3369H30.8853V12.3421ZM33.4948 11.8298C33.7967 12.1269 33.9707 12.5418 33.9707 12.967V35.4747C33.9707 36.8423 32.8143 38 31.443 38H9.5277C8.18198 38 7 36.8219 7 35.4747V4.52533C7 3.20376 8.20245 2 9.5277 2H22.8672C23.2817 2 23.6706 2.15879 23.9673 2.45077L33.4948 11.8298ZM12.7001 22.6944C12.9099 22.9095 13.1913 23.0171 13.4676 23.0171C13.7491 23.0171 14.0254 22.9095 14.2352 22.6944L15.6576 21.2447L17.0801 22.6944C17.295 22.9095 17.5713 23.0171 17.8476 23.0171C18.1239 23.0171 18.4002 22.9095 18.6152 22.6944C19.0398 22.2641 19.0398 21.5623 18.6152 21.132L17.1927 19.6824L18.6152 18.2328C19.0398 17.8025 19.0398 17.1007 18.6152 16.6705C18.1905 16.2402 17.5048 16.2402 17.0801 16.6705L15.6576 18.1201L14.2352 16.6705C13.8105 16.2402 13.1248 16.2402 12.7001 16.6705C12.2754 17.1007 12.2754 17.8025 12.7001 18.2328L14.1226 19.6824L12.7001 21.132C12.2754 21.5623 12.2754 22.2641 12.7001 22.6944ZM28.5111 16.6705C28.0864 16.2402 27.4007 16.2402 26.976 16.6705L25.5535 18.1201L24.1311 16.6705C23.7064 16.2402 23.0207 16.2402 22.596 16.6705C22.1713 17.1007 22.1713 17.8025 22.596 18.2328L24.0185 19.6824L22.596 21.132C22.1713 21.5623 22.1713 22.2641 22.596 22.6944C22.8109 22.9095 23.0872 23.0171 23.3635 23.0171C23.645 23.0171 23.9213 22.9095 24.1311 22.6944L25.5535 21.2447L26.976 22.6944C27.1909 22.9095 27.4672 23.0171 27.7435 23.0171C28.0198 23.0171 28.3013 22.9095 28.5111 22.6944C28.9357 22.2641 28.9357 21.5623 28.5111 21.132L27.0886 19.6824L28.5111 18.2328C28.9306 17.8025 28.9306 17.1007 28.5111 16.6705ZM24.7809 25.568H24.5455C22.9798 25.5783 21.4038 26.6079 21.4038 28.9129C21.4038 29.2408 21.4038 30.0142 20.4009 30.0194H20.2423C19.2138 29.9937 19.2138 29.2254 19.2138 28.8976C19.2138 26.6488 17.6327 25.6039 16.0619 25.568H15.8265C14.2607 25.5783 12.6848 26.6079 12.6848 28.8873C12.6848 29.4969 13.1709 29.9937 13.7695 29.9937C14.3682 29.9937 14.8543 29.4969 14.8543 28.8873C14.8543 28.5595 14.8543 27.786 15.8572 27.7809H16.0158C17.0443 27.8065 17.0443 28.5748 17.0443 28.9027C17.0443 31.1514 18.6254 32.1964 20.1962 32.2322H20.4316C21.9974 32.222 23.5733 31.1924 23.5733 28.8873C23.5733 28.5595 23.5733 27.786 24.5711 27.7809H24.7297C25.7582 27.8065 25.7582 28.5748 25.7582 28.9027C25.7582 29.5122 26.2443 30.0091 26.843 30.0091C27.4416 30.0091 27.9277 29.5122 27.9277 28.9027C27.9329 26.6488 26.3466 25.6039 24.7809 25.568Z" fill="#86888C"/>
</svg>
