<svg width="40" height="40" viewBox="0 0 40 40" fill="none" xmlns="http://www.w3.org/2000/svg">
<path d="M37.9752 13.0898V13.0744C37.9752 13.0487 37.9752 13.0282 37.9701 13.0025V12.9769L37.9547 12.8845C37.9496 12.8537 37.9393 12.8281 37.9342 12.7973C37.9342 12.787 37.929 12.7819 37.9239 12.7716C37.9188 12.7511 37.9085 12.7306 37.8983 12.7049L37.888 12.6844C37.8777 12.6536 37.8623 12.6279 37.8469 12.6023L37.8008 12.5253L37.7854 12.5048C37.77 12.4842 37.7597 12.4689 37.7443 12.4483L37.7289 12.4278C37.7084 12.4021 37.6879 12.3816 37.6673 12.3611L27.6608 2.3546C27.6403 2.33407 27.6147 2.31354 27.5941 2.29302L27.5736 2.27762C27.5531 2.26223 27.5377 2.25197 27.5172 2.23657L27.4966 2.22118L27.4197 2.17499C27.394 2.1596 27.3632 2.14934 27.3376 2.13394L27.317 2.12368C27.2965 2.11342 27.276 2.10828 27.2503 2.09802H27.2298C27.2041 2.08776 27.1733 2.08263 27.1426 2.07749L27.0502 2.0621H27.0245C26.9989 2.0621 26.9783 2.05697 26.9527 2.05697H26.9373C21.8417 2.05184 16.079 2.05697 15.0116 2.05697C13.7082 2.05697 12.9025 2.86262 12.9025 4.1609V8.33797C7.37076 10.2982 4.46631 16.3688 6.42655 21.9057C6.84221 23.0809 7.45799 24.1739 8.25338 25.1335L2.27514 31.3375C1.89028 31.7532 1.9108 32.3997 2.32646 32.7897C2.73185 33.1643 3.36303 33.1541 3.75302 32.7641L9.7056 26.5806C10.6601 27.3657 11.7428 27.9815 12.9077 28.392V35.9302C12.9077 37.2388 13.7185 38.0547 15.0219 38.0547H35.9021C37.1542 38.0547 37.9701 37.2388 37.9701 35.9815C37.9752 35.1708 37.9752 20.8948 37.9752 13.0898ZM34.4704 12.0635H31.9457C30.75 12.0635 29.7494 11.6889 29.0464 10.9858C28.3433 10.2828 27.9739 9.27704 27.9739 8.08139V5.55667L31.2221 8.80494L34.4704 12.0635ZM10.3778 12.2995C13.7287 8.94862 19.1579 8.94862 22.5037 12.2995C25.8494 15.6504 25.8545 21.0796 22.5037 24.4253C19.1528 27.7711 13.7236 27.7762 10.3778 24.4253C8.77166 22.8192 7.86851 20.6383 7.86851 18.3599C7.86338 16.0866 8.76653 13.9057 10.3778 12.2995Z" fill="#86888C"/>
</svg>
