<svg width="20" height="20" viewBox="0 0 20 20" fill="none" xmlns="http://www.w3.org/2000/svg">
<path fill-rule="evenodd" clip-rule="evenodd" d="M7.70746 12.6013C7.43199 12.6013 7.20888 12.3759 7.20888 12.1005V8.46472C7.20888 8.18697 7.43199 7.96386 7.70746 7.96386C7.98293 7.96386 8.20603 8.18925 8.20603 8.46472V12.1005C8.20603 12.3782 7.98293 12.6013 7.70746 12.6013ZM7.71201 13.9081C7.42516 13.9081 7.19067 13.6736 7.19067 13.3845C7.19067 13.0953 7.42288 12.8608 7.71201 12.8608C7.99886 12.8608 8.23335 13.0953 8.23335 13.3845C8.23108 13.6736 7.99886 13.9081 7.71201 13.9081ZM15.2499 6.83922H17.1599L13.169 2.95988V4.8267C13.169 5.42089 13.3694 5.92402 13.7336 6.286C14.1047 6.64343 14.6306 6.83922 15.2499 6.83922ZM6.25498 14.8506L12.1833 14.8779L7.68697 5.78743L5.93625 9.26608L3.12237 14.8438L5.93625 14.8506H6.25498ZM17.9704 6.77775C17.9772 6.79141 17.9909 6.85288 17.9977 6.92573V17.1659C17.9977 17.6941 17.5378 18.1426 17.0006 18.1426H6.92886C6.40296 18.1426 5.93853 17.6873 5.93853 17.1659V15.8546L2.80592 15.8478H2.79909C2.36653 15.8478 2.00683 15.4926 2 15.0509C2 14.9098 2.03415 14.7778 2.09334 14.6571L5.93853 7.04639V3.12607C5.93853 2.61156 6.40979 2.14258 6.92886 2.14258H13.062C13.1212 2.14258 13.1941 2.15624 13.2624 2.18356C13.2692 2.18356 13.276 2.18356 13.276 2.19039H13.2897C13.3352 2.20405 13.4081 2.26324 13.4491 2.30422H13.4559L13.7951 2.63888L17.8338 6.56603C17.893 6.62522 17.9271 6.67986 17.9476 6.72767C17.9545 6.7345 17.9545 6.74133 17.9613 6.75499C17.9567 6.75726 17.9636 6.77092 17.9704 6.77775Z" fill="#86888C"/>
</svg>
