<svg width="40" height="40" viewBox="0 0 40 40" fill="none" xmlns="http://www.w3.org/2000/svg">
<path fill-rule="evenodd" clip-rule="evenodd" d="M14.8418 25.6747C14.222 25.6747 13.72 25.1676 13.72 24.5478V16.3674C13.72 15.7425 14.222 15.2405 14.8418 15.2405C15.4616 15.2405 15.9636 15.7476 15.9636 16.3674V24.5478C15.9636 25.1727 15.4616 25.6747 14.8418 25.6747ZM14.852 28.615C14.2066 28.615 13.679 28.0874 13.679 27.4368C13.679 26.7863 14.2015 26.2587 14.852 26.2587C15.4974 26.2587 16.025 26.7863 16.025 27.4368C16.0199 28.0874 15.4974 28.615 14.852 28.615ZM31.8122 12.71H36.1098L27.1303 3.98151V8.18185C27.1303 9.51879 27.5811 10.6508 28.4007 11.4653C29.2356 12.2695 30.4189 12.71 31.8122 12.71ZM11.5737 30.7356L24.9123 30.7971L14.7957 10.3435L10.8566 18.1705L4.52533 30.7203L10.8566 30.7356H11.5737ZM37.9334 12.5717C37.9488 12.6025 37.9795 12.7408 37.9949 12.9047V35.9451C37.9949 37.1335 36.9602 38.1426 35.7513 38.1426H13.0899C11.9067 38.1426 10.8617 37.1181 10.8617 35.9451V32.9946L3.81332 32.9792H3.79795C2.8247 32.9792 2.01537 32.1801 2 31.1864C2 30.8688 2.07684 30.5717 2.21002 30.3002L10.8617 13.1762V4.35544C10.8617 3.19779 11.922 2.14258 13.0899 2.14258H26.8896C27.0228 2.14258 27.1867 2.17331 27.3403 2.23478C27.3557 2.23478 27.3711 2.23478 27.3711 2.25015H27.4018C27.5043 2.28088 27.6682 2.41406 27.7604 2.50627H27.7758L28.539 3.25925L37.6261 12.0953C37.7592 12.2285 37.8361 12.3515 37.8822 12.459C37.8975 12.4744 37.8976 12.4898 37.9129 12.5205C37.9027 12.5256 37.918 12.5564 37.9334 12.5717Z" fill="#86888C"/>
</svg>
