<svg width="20" height="20" viewBox="0 0 20 20" fill="none" xmlns="http://www.w3.org/2000/svg">
<path fill-rule="evenodd" clip-rule="evenodd" d="M14.6157 6.59647L11.3159 3.34775V4.78884C11.3159 5.32385 11.4887 5.77689 11.8162 6.09789C12.146 6.42345 12.6144 6.59419 13.1693 6.59419H14.6157V6.59647ZM15.7755 6.36881C15.9096 6.50085 15.987 6.68526 15.987 6.87422V16.8776C15.987 17.4855 15.473 18 14.8635 18H5.12342C4.52533 18 4 17.4764 4 16.8776V3.12237C4 2.535 4.53442 2 5.12342 2H11.0521C11.2363 2 11.4091 2.07057 11.541 2.20034L15.7755 6.36881ZM6.53339 11.1975C6.62663 11.2931 6.7517 11.3409 6.87451 11.3409C6.99959 11.3409 7.12239 11.2931 7.21563 11.1975L7.84784 10.5532L8.48005 11.1975C8.57556 11.2931 8.69837 11.3409 8.82117 11.3409C8.94397 11.3409 9.06678 11.2931 9.16229 11.1975C9.35104 11.0063 9.35104 10.6944 9.16229 10.5031L8.53008 9.85885L9.16229 9.21457C9.35104 9.02334 9.35104 8.71144 9.16229 8.52021C8.97354 8.32897 8.6688 8.32897 8.48005 8.52021L7.84784 9.16449L7.21563 8.52021C7.02688 8.32897 6.72214 8.32897 6.53339 8.52021C6.34463 8.71144 6.34463 9.02334 6.53339 9.21457L7.1656 9.85885L6.53339 10.5031C6.34463 10.6944 6.34463 11.0063 6.53339 11.1975ZM13.5605 8.52021C13.3717 8.32897 13.067 8.32897 12.8782 8.52021L12.246 9.16449L11.6138 8.52021C11.4251 8.32897 11.1203 8.32897 10.9316 8.52021C10.7428 8.71144 10.7428 9.02334 10.9316 9.21457L11.5638 9.85885L10.9316 10.5031C10.7428 10.6944 10.7428 11.0063 10.9316 11.1975C11.0271 11.2931 11.1499 11.3409 11.2727 11.3409C11.3978 11.3409 11.5206 11.2931 11.6138 11.1975L12.246 10.5532L12.8782 11.1975C12.9737 11.2931 13.0965 11.3409 13.2193 11.3409C13.3422 11.3409 13.4672 11.2931 13.5605 11.1975C13.7492 11.0063 13.7492 10.6944 13.5605 10.5031L12.9283 9.85885L13.5605 9.21457C13.7469 9.02334 13.7469 8.71144 13.5605 8.52021ZM11.9026 12.4747H11.798C11.1021 12.4792 10.4017 12.9368 10.4017 13.9613C10.4017 14.107 10.4017 14.4508 9.95596 14.453H9.88546C9.42836 14.4417 9.42836 14.1002 9.42836 13.9545C9.42836 12.955 8.72566 12.4906 8.02749 12.4747H7.92288C7.227 12.4792 6.52657 12.9368 6.52657 13.9499C6.52657 14.2208 6.74261 14.4417 7.00868 14.4417C7.27476 14.4417 7.4908 14.2208 7.4908 13.9499C7.4908 13.8042 7.4908 13.4604 7.93653 13.4582H8.00703C8.46413 13.4696 8.46413 13.811 8.46413 13.9567C8.46413 14.9562 9.16684 15.4206 9.865 15.4365H9.96961C10.6655 15.432 11.3659 14.9744 11.3659 13.9499C11.3659 13.8042 11.3659 13.4604 11.8094 13.4582H11.8799C12.337 13.4696 12.337 13.811 12.337 13.9567C12.337 14.2277 12.553 14.4485 12.8191 14.4485C13.0852 14.4485 13.3012 14.2277 13.3012 13.9567C13.3035 12.955 12.5985 12.4906 11.9026 12.4747Z" fill="#86888C"/>
</svg>
