<svg width="24" height="24" viewBox="0 0 24 24" fill="none" xmlns="http://www.w3.org/2000/svg">
<path fill-rule="evenodd" clip-rule="evenodd" d="M5.34274 10.2723C5.46551 10.2723 5.67478 10.2723 5.67478 9.34758C5.67478 8.42003 5.46831 8.42003 5.34274 8.42003C5.21718 8.42003 5.00791 8.42003 5.00791 9.34758C5.00791 10.2723 5.20881 10.2723 5.34274 10.2723ZM5.34274 7.48689C5.92312 7.48689 6.61511 7.80818 6.61511 9.34758C6.61511 10.8842 5.92312 11.2055 5.34274 11.2055C4.75958 11.2055 4.06759 10.8814 4.06759 9.34758C4.06759 7.80818 4.75958 7.48689 5.34274 7.48689ZM8.24183 10.2723C8.3646 10.2723 8.57387 10.2723 8.57387 9.34758C8.57387 8.42003 8.3674 8.42003 8.24183 8.42003C8.11627 8.42003 7.907 8.42003 7.907 9.34758C7.907 10.2723 8.1079 10.2723 8.24183 10.2723ZM8.24183 7.48689C8.82221 7.48689 9.5142 7.80818 9.5142 9.34758C9.5142 10.8842 8.82221 11.2055 8.24183 11.2055C7.65867 11.2055 6.96668 10.8814 6.96668 9.34758C6.96668 7.80818 7.65867 7.48689 8.24183 7.48689ZM5.85894 15.1252C6.08495 15.1252 6.26632 15.3068 6.26632 15.5331V15.6393C6.26632 15.8656 6.08495 16.0472 5.85894 16.0472H4.8377C4.61169 16.0472 4.43032 15.8656 4.43032 15.6393V15.5331C4.43032 15.3068 4.61169 15.1252 4.8377 15.1252H4.92141V13.3428H4.87119C4.64518 13.3428 4.46381 13.1612 4.46381 12.9349V12.8455C4.46381 12.6359 4.62285 12.4599 4.83212 12.4404C5.01628 12.4236 5.18649 12.4152 5.25345 12.4152C5.82267 12.4152 5.85336 12.8678 5.85336 12.9572L5.85894 15.1252ZM8.24183 15.1699C8.3646 15.1699 8.57387 15.1699 8.57387 14.2452C8.57387 13.3176 8.3674 13.3176 8.24183 13.3176C8.11627 13.3176 7.907 13.3176 7.907 14.2452C7.907 15.1699 8.1079 15.1699 8.24183 15.1699ZM8.24183 12.3845C8.82221 12.3845 9.5142 12.7058 9.5142 14.2452C9.5142 15.7818 8.82221 16.1031 8.24183 16.1031C7.65867 16.1031 6.96668 15.779 6.96668 14.2452C6.96668 12.7086 7.65867 12.3845 8.24183 12.3845ZM18.9118 11.5799C18.9118 9.73592 17.6255 9.4314 16.8582 9.40905H16.6126C15.8621 9.41743 14.5897 9.7024 14.5897 11.5631V12.0604L18.909 12.052V11.5799H18.9118ZM11.7743 14.0859C11.7743 13.2953 12.1008 12.8287 12.3686 12.5773C12.6867 12.2839 13.069 12.1526 13.3703 12.1051V11.5659C13.3703 9.09334 15.1143 8.20211 16.6071 8.18814H16.8833C18.3817 8.23005 20.134 9.13525 20.134 11.5826V12.1442C20.2149 12.161 20.2958 12.1777 20.3711 12.2085V6.63477C20.3711 6.52023 20.2818 6.42244 20.1591 6.42244H11.3837C11.0488 6.42244 10.7726 6.14585 10.7726 5.81059V4.43882C10.7726 4.31589 10.6833 4.22649 10.5605 4.22649H3.43978C3.31701 4.22649 3.21935 4.31589 3.21935 4.43882V17.9135C3.21935 18.0364 3.31701 18.1258 3.43978 18.1258H11.7743V16.0276C11.7325 16.036 11.7018 16.0528 11.6515 16.0528H10.6331C10.4043 16.0528 10.2257 15.8656 10.2257 15.6449V15.5387C10.2257 15.3096 10.4043 15.1308 10.6331 15.1308H10.714V13.3428H10.6638C10.435 13.3428 10.2564 13.1612 10.2564 12.9349V12.8455C10.2564 12.6331 10.4182 12.4627 10.6219 12.4376C10.8089 12.4208 10.9819 12.4124 11.0461 12.4124C11.6153 12.4124 11.6488 12.8706 11.6488 12.96V15.1308C11.6906 15.1308 11.7297 15.1392 11.7715 15.156V14.0859H11.7743ZM21.5933 13.8149C21.61 13.9853 21.61 14.1083 21.6016 14.1418V18.9556C21.61 19.7406 21.2836 20.2044 21.0157 20.4586C20.3879 21.0453 19.5173 21.0062 19.4197 20.9951H13.9117C13.0467 20.9951 12.55 20.6626 12.2905 20.3748C11.9724 20.0396 11.8497 19.6401 11.8022 19.3467H3.44257C2.64455 19.3467 2 18.7013 2 17.9107V4.43603C2 3.64258 2.64176 3 3.44257 3H10.5633C11.353 3 11.9975 3.64258 11.9975 4.43603V5.19595H20.1619C20.9543 5.19595 21.5961 5.84133 21.5961 6.63198V13.8149H21.5933ZM16.741 17.5112H16.6378C15.9486 17.5 15.9486 16.9636 15.9486 16.7624C15.9486 16.5613 15.9486 16.0276 16.6238 16.022H16.7326C17.433 16.0388 17.433 16.5696 17.433 16.768C17.433 16.9692 17.433 17.4972 16.741 17.5112ZM16.7605 14.7983H16.6154C15.6751 14.8067 14.7264 15.4158 14.7264 16.7624C14.7264 18.1062 15.6779 18.7209 16.6294 18.7349H16.7633C17.7064 18.7181 18.6551 18.1034 18.6551 16.7708C18.6551 15.4409 17.7036 14.8207 16.7605 14.7983Z" fill="#86888C"/>
</svg>
