<svg width="20" height="20" viewBox="0 0 20 20" fill="none" xmlns="http://www.w3.org/2000/svg">
<path d="M15.0489 2.67615C14.6064 2.22083 13.9542 2 13.051 2H7.64565C5.88949 2 5 2.89926 5 4.67501V15.325C5 17.1258 5.8644 18 7.64565 18H13.051C14.8322 18 15.6966 17.1258 15.6966 15.325V4.67501C15.6966 3.77575 15.4845 3.12237 15.0489 2.67615ZM11.0211 15.86C10.8615 16.0216 10.6311 16.1081 10.3529 16.1081C10.0746 16.1081 9.84199 16.0216 9.68462 15.86C9.52725 15.6983 9.44971 15.4775 9.44971 15.2021C9.44971 14.6352 9.78726 14.296 10.3552 14.296C10.9231 14.296 11.2583 14.6352 11.2583 15.2021C11.256 15.4775 11.1762 15.6983 11.0211 15.86ZM13.3498 10.0706L10.6562 13.1668C10.5787 13.2555 10.4669 13.3079 10.3483 13.3079C10.2297 13.3079 10.118 13.2555 10.0404 13.1668L7.35371 10.0706C7.20547 9.89983 7.22371 9.64257 7.39477 9.49687C7.47003 9.43312 7.56354 9.3967 7.66161 9.3967H8.83163V5.3967C8.82479 5.21229 8.89321 5.03017 9.02093 4.89585C9.17602 4.72965 9.39725 4.64314 9.62532 4.66135H11.1192C11.5115 4.66135 11.8285 4.97553 11.8308 5.3671C11.8308 5.39215 11.8308 5.41491 11.8262 5.43995V9.3967H13.0396C13.2654 9.3967 13.4478 9.57883 13.4478 9.80194C13.4501 9.90211 13.4136 9.99545 13.3498 10.0706Z" fill="#86888C"/>
</svg>
