<svg width="28" height="28" viewBox="0 0 28 28" fill="none" xmlns="http://www.w3.org/2000/svg">
<path d="M22.0734 3.01423C21.4097 2.33125 20.4312 2 19.0765 2H10.9685C8.33423 2 7 3.34889 7 6.01252V21.9875C7 24.6887 8.2966 26 10.9685 26H19.0765C21.7483 26 23.0449 24.6887 23.0449 21.9875V6.01252C23.0449 4.66363 22.7268 3.68355 22.0734 3.01423ZM16.0317 22.79C15.7922 23.0324 15.4467 23.1622 15.0293 23.1622C14.6119 23.1622 14.263 23.0324 14.0269 22.79C13.7909 22.5475 13.6746 22.2163 13.6746 21.8031C13.6746 20.9528 14.1809 20.4439 15.0327 20.4439C15.8846 20.4439 16.3875 20.9528 16.3875 21.8031C16.3841 22.2163 16.2643 22.5475 16.0317 22.79ZM19.5246 14.1059L15.4843 18.7501C15.368 18.8833 15.2004 18.9619 15.0225 18.9619C14.8446 18.9619 14.6769 18.8833 14.5606 18.7501L10.5306 14.1059C10.3082 13.8497 10.3356 13.4639 10.5922 13.2453C10.705 13.1497 10.8453 13.095 10.9924 13.095H12.7474V7.09505C12.7372 6.81844 12.8398 6.54525 13.0314 6.34377C13.264 6.09448 13.5959 5.96471 13.938 5.99203H16.1788C16.7672 5.99203 17.2428 6.46329 17.2462 7.05065C17.2462 7.08822 17.2462 7.12237 17.2393 7.15993V13.095H19.0594C19.3981 13.095 19.6717 13.3682 19.6717 13.7029C19.6752 13.8532 19.6204 13.9932 19.5246 14.1059Z" fill="#86888C"/>
</svg>
