<svg width="28" height="28" viewBox="0 0 28 28" fill="none" xmlns="http://www.w3.org/2000/svg">
<path fill-rule="evenodd" clip-rule="evenodd" d="M23.49 6.60834C23.1144 6.97712 17.1178 12.28 16.0387 13.2634L12.8082 14.3288L13.8634 11.1839C14.5942 10.5386 20.9664 4.92493 21.383 4.51177C22.1514 3.74689 23.0871 4.10542 23.4935 4.51177C23.7701 4.79176 23.9442 5.20152 23.9408 5.59079C23.9408 5.97664 23.7769 6.34542 23.49 6.60834ZM21.4957 21.0795C21.4957 21.9844 21.2533 22.6605 20.7479 23.1488C20.2015 23.6781 19.3614 23.9444 18.255 23.9444H7.29653C6.1901 23.9444 5.35003 23.6781 4.80364 23.1488C4.30165 22.6639 4.05578 21.9878 4.05578 21.0829V8.49663C4.05578 6.08249 5.81787 5.57371 7.29653 5.57371H17.111C15.7519 6.77908 14.0683 8.26444 12.4462 9.69175C12.214 9.89663 12.0398 10.1596 11.9408 10.4566L10.6739 14.223C10.3597 15.1415 10.848 16.1454 11.7701 16.4595C12.1389 16.5859 12.535 16.5859 12.9038 16.463L16.6978 15.2132C16.9232 15.1381 17.1315 15.0186 17.3022 14.8649C17.3398 14.8308 19.4878 12.9356 21.4991 11.1532C21.4957 11.1498 21.4957 21.0795 21.4957 21.0795ZM26 5.5942C25.9932 4.64152 25.6175 3.73323 24.9482 3.05372C23.7154 1.82104 21.5026 1.48641 19.9283 3.05372C19.8771 3.10494 19.6892 3.27567 19.399 3.53518C19.0165 3.52152 18.6374 3.51469 18.255 3.51469H7.29653C4.07968 3.51811 2 5.47127 2 8.49663V21.0795C2 22.5512 2.46101 23.7463 3.37621 24.6239C4.32214 25.539 5.6403 26 7.29994 26H18.2584C19.9146 26 21.2362 25.539 22.1821 24.6273C23.0939 23.7463 23.5583 22.5546 23.5583 21.0795L23.5481 9.32297C24.2789 8.67078 24.8116 8.19273 24.9345 8.07322C25.6141 7.42786 25.9966 6.53322 26 5.5942Z" fill="#86888C"/>
</svg>
