<svg width="28" height="28" viewBox="0 0 28 28" fill="none" xmlns="http://www.w3.org/2000/svg">
<path fill-rule="evenodd" clip-rule="evenodd" d="M23.8909 23.9445C24.4297 23.9445 24.8696 24.4043 24.8696 24.9705C24.8696 25.5402 24.4297 26 23.8909 26L4.97869 26C4.4399 26 4 25.5402 4 24.9705C4 24.4043 4.4399 23.9445 4.97869 23.9445L23.8909 23.9445ZM7.85678 15.1393L6.04945 20.9419L6.10401 21.0826H6.11083L11.4339 19.1747C14.0051 16.7143 21.5754 9.43609 22.087 8.89048C22.5916 8.36889 22.8747 7.66886 22.8713 6.93795C22.8679 6.18301 22.5916 5.45553 22.0938 4.88933C21.6198 4.37118 20.9548 4.07263 20.2558 4.05891C19.601 4.05891 18.9872 4.34715 18.4893 4.88933C17.9028 5.52073 8.26598 14.7481 7.85678 15.1393ZM6.1006 23.1381C5.56522 23.1381 5.04007 22.9013 4.66155 22.493C4.12617 21.9028 3.94544 21.0689 4.18755 20.3071L5.97101 14.5456C6.08014 14.1887 6.27792 13.8662 6.5439 13.6157C11.3828 8.9797 16.7229 3.84272 17.0776 3.45839C17.9437 2.51816 19.0691 2 20.2523 2C21.4595 2 22.6428 2.53188 23.4953 3.45496C24.3512 4.41235 24.8252 5.65113 24.8252 6.93795C24.8286 8.20074 24.3444 9.41207 23.4783 10.3249C22.8065 11.0455 12.8662 20.5816 12.7673 20.6743C12.5661 20.8733 12.3274 21.0209 12.0648 21.1135L6.74169 23.0214C6.53708 23.1004 6.32225 23.1381 6.1006 23.1381Z" fill="#86888C"/>
</svg>
