<svg width="40" height="40" viewBox="0 0 40 40" fill="none" xmlns="http://www.w3.org/2000/svg">
<path fill-rule="evenodd" clip-rule="evenodd" d="M33.8363 34.9168C34.6445 34.9168 35.3043 35.6065 35.3043 36.4558C35.3043 37.3103 34.6445 38 33.8363 38L5.46803 38C4.65985 38 4 37.3103 4 36.4558C4 35.6065 4.65985 34.9168 5.46803 34.9168L33.8363 34.9168ZM9.78517 21.7089L7.07417 30.4129L7.15601 30.624H7.16624L15.1509 27.7621C19.0077 24.0715 30.3632 13.1541 31.1304 12.3357C31.8875 11.5533 32.312 10.5033 32.3069 9.40692C32.3018 8.27452 31.8875 7.1833 31.1407 6.334C30.4297 5.55676 29.4322 5.10895 28.3836 5.08836C27.4015 5.08836 26.4808 5.52073 25.734 6.334C24.8542 7.2811 10.399 21.1221 9.78517 21.7089ZM7.15089 33.7072C6.34783 33.7072 5.5601 33.352 4.99233 32.7395C4.18926 31.8542 3.91816 30.6034 4.28133 29.4607L6.95652 20.8184C7.1202 20.2831 7.41688 19.7993 7.81586 19.4235C15.0742 12.4695 23.0844 4.76408 23.6164 4.18759C24.9156 2.77724 26.6036 2 28.3785 2C30.1893 2 31.9642 2.79783 33.243 4.18244C34.5268 5.61853 35.2378 7.4767 35.2378 9.40692C35.243 11.3011 34.5166 13.1181 33.2174 14.4873C32.2097 15.5682 17.2992 29.8725 17.1509 30.0114C16.8491 30.31 16.491 30.5313 16.0972 30.6703L8.11253 33.5322C7.80563 33.6506 7.48338 33.7072 7.15089 33.7072Z" fill="#86888C"/>
</svg>
