<svg width="28" height="28" viewBox="0 0 28 28" fill="none" xmlns="http://www.w3.org/2000/svg">
<path fill-rule="evenodd" clip-rule="evenodd" d="M13.6642 18.4116C14.0644 18.4116 14.4611 18.3115 14.7613 18.2115L22.1407 14.9203V18.3115C22.1407 19.3086 21.4438 20.1055 20.5468 20.3056C18.9529 20.6057 16.7588 21.2026 15.1615 22.4998C14.7613 22.7999 14.2645 23 13.7643 23C13.264 23 12.7672 22.7999 12.367 22.4998C10.7732 21.2026 8.57901 20.6057 6.9817 20.3056C6.08471 20.1055 5.38783 19.3086 5.38783 18.3115V15.0203L12.5671 18.2115C12.8673 18.3115 13.2675 18.4116 13.6642 18.4116ZM25.2318 19.8054C25.7321 20.2056 26.0287 21.0025 26.0287 21.4993C26.0287 21.7994 25.9287 22.0961 25.7286 22.1962C25.5285 22.3963 25.1318 22.4963 24.8316 22.4963H24.2313C23.8311 22.4963 23.4344 22.4963 23.1343 22.1962C22.9342 21.9961 22.8341 21.796 22.8341 21.4993C22.8341 20.999 23.1343 20.2021 23.631 19.8054V13.1263L14.2576 17.3145C14.0575 17.4146 13.7574 17.5146 13.5607 17.5146C13.2606 17.5146 13.0605 17.4146 12.8638 17.3145L3.09708 12.9262C2.40019 12.6261 2 12.0292 2 11.2323C2 10.5354 2.40019 9.83507 3.09708 9.53838L12.8673 5.15007C13.3675 4.94998 13.8643 4.94998 14.3645 5.15007L24.1347 9.53838C25.1421 10.0007 25.1318 11.1495 25.1318 11.7325L25.2318 19.8054Z" fill="#86888C"/>
</svg>
