<svg width="24" height="24" viewBox="0 0 24 24" fill="none" xmlns="http://www.w3.org/2000/svg">
<path fill-rule="evenodd" clip-rule="evenodd" d="M20.5712 8.6771L15.32 8.67995L15.3172 3.43447C15.3172 2.68593 14.7337 2.00285 14.0934 2.00285L9.89811 2C9.25772 2 8.67426 2.68308 8.67426 3.43162L8.6771 8.67995L3.43162 8.6828C2.66885 8.6828 2 9.25487 2 9.90665V14.1019C2 14.7537 2.66885 15.3257 3.43162 15.3257L8.68279 15.3229L8.68564 20.5684C8.68564 21.3312 9.25772 22 9.90949 22H14.1047C14.7565 22 15.3286 21.3312 15.3286 20.5684L15.3257 15.3172L20.5712 15.3144C21.3198 15.3144 22.0028 14.7309 22.0028 14.0905V9.89526C22.0028 9.25772 21.3198 8.6771 20.5712 8.6771Z" fill="#86888C"/>
</svg>
