<svg width="28" height="28" viewBox="0 0 28 28" fill="none" xmlns="http://www.w3.org/2000/svg">
<path fill-rule="evenodd" clip-rule="evenodd" d="M24.2855 10.0125L17.9841 10.0159L17.9806 3.72136C17.9806 2.82311 17.2805 2.00342 16.512 2.00342L11.4777 2C10.7093 2 10.0091 2.8197 10.0091 3.71794L10.0125 10.0159L3.71794 10.0194C2.80262 10.0194 2 10.7058 2 11.488V16.5223C2 17.3044 2.80262 17.9909 3.71794 17.9909L10.0194 17.9875L10.0228 24.2821C10.0228 25.1974 10.7093 26 11.4914 26H16.5257C17.3078 26 17.9943 25.1974 17.9943 24.2821L17.9909 17.9806L24.2855 17.9772C25.1837 17.9772 26.0034 17.2771 26.0034 16.5086V11.4743C26.0034 10.7093 25.1837 10.0125 24.2855 10.0125Z" fill="#86888C"/>
</svg>
