<svg width="40" height="40" viewBox="0 0 40 40" fill="none" xmlns="http://www.w3.org/2000/svg">
<path fill-rule="evenodd" clip-rule="evenodd" d="M20.7479 2.02049C24.2721 2.10245 37.9949 3.49573 37.9949 20.0512C37.9949 36.6374 24.2567 37.9283 20.8196 37.9898C20.4969 38 20.1281 38 19.7592 38C19.5646 38 19.3648 38 19.1753 37.9949C15.5589 37.9437 2 36.6374 2 19.9437C2 3.27547 15.436 2.03586 19.0472 2.00512C19.1548 2.00512 19.2573 2 19.3699 2C19.8361 2 20.3278 2.01024 20.7479 2.02049ZM29.6249 22.6278H23.7342C23.4371 22.6278 23.1503 22.7456 22.9351 22.9607C22.7251 23.1707 22.6073 23.4576 22.6073 23.7547L22.6227 29.6403C22.6227 29.9169 22.4331 30.1013 22.3717 30.1116H17.6642C17.5976 30.0962 17.4081 29.9169 17.4081 29.6403V23.7496C17.4081 23.1298 16.9061 22.6227 16.2812 22.6227H10.3904C10.1036 22.6227 9.9243 22.4331 9.91406 22.3717V17.6796C9.92942 17.613 10.1087 17.4234 10.3904 17.4234H16.2812C16.901 17.4234 17.4081 16.9215 17.4081 16.2965V10.4058C17.4081 10.1497 17.5925 9.93967 17.6591 9.91918L22.3358 9.91406C22.4178 9.93967 22.6073 10.1497 22.6073 10.4058V16.2914C22.6073 16.9112 23.1093 17.4183 23.7342 17.4183H29.6249C29.8708 17.4183 30.0808 17.5976 30.1116 17.6847L30.1167 22.3563C30.0911 22.4382 29.881 22.6278 29.6249 22.6278ZM29.6249 15.1696H24.856V10.4212C24.856 8.9613 23.6881 7.68583 22.3563 7.68583H17.6591C16.3016 7.68583 15.1594 8.94081 15.1594 10.4212V15.185H10.3956C8.9152 15.185 7.67046 16.3273 7.67046 17.6847V22.3819C7.67046 23.7342 8.9152 24.8816 10.3956 24.8816H15.1594V29.6454C15.1594 31.1207 16.3068 32.3654 17.6591 32.3654H22.3717C23.7291 32.3654 24.8714 31.1207 24.8714 29.6403L24.8611 24.8816H29.6249C31.0848 24.8816 32.3654 23.7137 32.3654 22.3819V17.6693C32.3654 16.3375 31.0848 15.1696 29.6249 15.1696Z" fill="#86888C"/>
</svg>
