<svg width="24" height="24" viewBox="0 0 24 24" fill="none" xmlns="http://www.w3.org/2000/svg">
<path fill-rule="evenodd" clip-rule="evenodd" d="M12.4155 2.01138C14.3734 2.05692 21.9972 2.83096 21.9972 12.0285C21.9972 21.243 14.3648 21.9602 12.4553 21.9943C12.276 22 12.0711 22 11.8662 22C11.7581 22 11.6471 22 11.5418 21.9972C9.53273 21.9687 2 21.243 2 11.9687C2 2.70859 9.46443 2.01992 11.4707 2.00285C11.5304 2.00285 11.5874 2 11.65 2C11.9089 2 12.1821 2.00569 12.4155 2.01138ZM17.3472 13.4599H14.0746C13.9095 13.4599 13.7501 13.5253 13.6306 13.6448C13.5139 13.7615 13.4485 13.9209 13.4485 14.0859L13.457 17.3557C13.457 17.5094 13.3517 17.6118 13.3176 17.6175H10.7023C10.6653 17.609 10.56 17.5094 10.56 17.3557V14.0831C10.56 13.7388 10.2812 13.457 9.93398 13.457H6.66135C6.50199 13.457 6.40239 13.3517 6.3967 13.3176V10.7109C6.40524 10.6739 6.50484 10.5686 6.66135 10.5686H9.93398C10.2783 10.5686 10.56 10.2897 10.56 9.94252V6.66989C10.56 6.5276 10.6625 6.41093 10.6995 6.39954L13.2977 6.3967C13.3432 6.41093 13.4485 6.5276 13.4485 6.66989V9.93967C13.4485 10.284 13.7274 10.5657 14.0746 10.5657H17.3472C17.4838 10.5657 17.6005 10.6653 17.6175 10.7137L17.6204 13.309C17.6061 13.3546 17.4895 13.4599 17.3472 13.4599ZM17.3472 9.31645H14.6978V6.67843C14.6978 5.86739 14.0489 5.15879 13.309 5.15879H10.6995C9.94536 5.15879 9.31076 5.856 9.31076 6.67843V9.32499H6.6642C5.84178 9.32499 5.15026 9.95959 5.15026 10.7137V13.3233C5.15026 14.0746 5.84178 14.712 6.6642 14.712H9.31076V17.3586C9.31076 18.1781 9.94821 18.8697 10.6995 18.8697H13.3176C14.0717 18.8697 14.7063 18.1781 14.7063 17.3557L14.7006 14.712H17.3472C18.1582 14.712 18.8697 14.0632 18.8697 13.3233V10.7052C18.8697 9.96528 18.1582 9.31645 17.3472 9.31645Z" fill="#86888C"/>
</svg>
