<svg width="28" height="28" viewBox="0 0 28 28" fill="none" xmlns="http://www.w3.org/2000/svg">
<path fill-rule="evenodd" clip-rule="evenodd" d="M16.2985 16.362C16.2141 16.5923 16.0973 16.787 15.9448 16.9395C15.7955 17.0823 15.6041 17.1894 15.377 17.2672C15.1012 17.3646 14.78 17.4197 14.3971 17.4197C14.0142 17.4197 13.6865 17.3646 13.4139 17.2672C13.1933 17.1894 13.0019 17.0823 12.8558 16.9428C12.7001 16.7903 12.5865 16.5923 12.5022 16.362C12.4016 16.0862 12.3464 15.752 12.3464 15.3626C12.3464 14.8954 12.4275 14.5157 12.5703 14.2075C12.6482 14.042 12.739 13.8927 12.8591 13.7759C13.0213 13.6202 13.2257 13.5034 13.4756 13.4223C13.7384 13.3379 14.0434 13.2957 14.3971 13.2957C14.7507 13.2957 15.0525 13.3379 15.3153 13.4223C15.5684 13.5034 15.7793 13.6234 15.9416 13.7792C16.0616 13.896 16.1525 14.042 16.2303 14.2075C16.3763 14.5157 16.4575 14.8954 16.4575 15.3626C16.4575 15.7487 16.4023 16.0797 16.2985 16.362ZM25.6659 8.25344L22.6841 5.23586C22.4732 4.97304 22.087 4.92761 21.7561 5.19693L18.7547 8.25344C18.6022 8.44488 18.573 8.7077 18.6768 8.92834C18.7807 9.14573 18.9948 9.28201 19.2284 9.28201L20.2895 9.2885C20.0883 10.3008 19.3453 12.2542 16.6294 13.1108C16.6165 13.101 16.61 13.0881 16.6002 13.0783C16.0843 12.5819 15.3445 12.3288 14.3938 12.3288C13.4464 12.3288 12.7033 12.5819 12.1907 13.0783C12.1777 13.0913 12.1712 13.1075 12.1582 13.1205C9.45214 12.2801 8.70586 10.3755 8.50469 9.2885L9.56895 9.28201C9.80906 9.28201 10.02 9.14573 10.127 8.92509C10.2309 8.70445 10.1984 8.43839 10.0135 8.2145L7.08351 5.23911L6.98292 5.13528C6.85313 5.03144 6.6909 4.98277 6.52866 5.00549C6.36643 5.02496 6.22041 5.10607 6.15552 5.19368L3.14443 8.24695C2.98869 8.43514 2.95624 8.70121 3.06007 8.92185C3.1639 9.14249 3.37805 9.27877 3.61491 9.27877L4.80897 9.28526C4.95498 10.4047 5.53254 12.9648 7.75516 14.8759C3.28071 17.2867 3.22555 22.1018 3.22555 22.1505C3.22555 23.1596 4.04322 23.9838 5.0653 23.9935C6.06467 23.9935 6.89207 23.1758 6.90505 22.17C6.91154 21.7157 7.13867 18.0881 11.9992 17.3743C12.0641 17.4554 12.1193 17.5463 12.1939 17.6177C12.7066 18.1141 13.4464 18.3639 14.3938 18.3639C15.3445 18.3639 16.0843 18.1141 16.6002 17.6177C16.6716 17.5495 16.7268 17.4652 16.7884 17.3873C21.516 18.1303 21.7463 21.719 21.7496 22.1635C21.7561 23.1758 22.5802 24 23.5893 24C24.6049 24 25.4291 23.1726 25.4291 22.1505C25.4291 22.1018 25.3772 17.3289 20.9871 14.9051C23.2454 13.0102 23.8359 10.4988 23.9884 9.28526L25.176 9.27552C25.4161 9.27552 25.6303 9.13924 25.7341 8.9186C25.8476 8.7077 25.8184 8.44163 25.6659 8.25344Z" fill="#86888C"/>
</svg>
