<svg width="24" height="24" viewBox="0 0 24 24" fill="none" xmlns="http://www.w3.org/2000/svg">
<path fill-rule="evenodd" clip-rule="evenodd" d="M14.1987 14.568C14.1277 14.762 14.0293 14.9259 13.9009 15.0543C13.7752 15.1746 13.614 15.2647 13.4227 15.3303C13.1905 15.4123 12.92 15.4587 12.5975 15.4587C12.2751 15.4587 11.9991 15.4123 11.7696 15.3303C11.5838 15.2647 11.4226 15.1746 11.2997 15.0571C11.1685 14.9286 11.0729 14.762 11.0018 14.568C10.9171 14.3357 10.8707 14.0543 10.8707 13.7264C10.8707 13.3329 10.939 13.0132 11.0592 12.7537C11.1248 12.6143 11.2013 12.4886 11.3024 12.3903C11.439 12.2591 11.6111 12.1607 11.8215 12.0924C12.0429 12.0214 12.2997 11.9859 12.5975 11.9859C12.8954 11.9859 13.1495 12.0214 13.3708 12.0924C13.5839 12.1607 13.7615 12.2618 13.8982 12.393C13.9993 12.4914 14.0758 12.6143 14.1413 12.7537C14.2643 13.0132 14.3326 13.3329 14.3326 13.7264C14.3326 14.0515 14.2862 14.3302 14.1987 14.568ZM22.0871 7.73974L19.576 5.19862C19.3984 4.9773 19.0733 4.93904 18.7946 5.16583L16.2671 7.73974C16.1387 7.90095 16.1141 8.12227 16.2016 8.30807C16.289 8.49114 16.4693 8.6059 16.6661 8.6059L17.5595 8.61137C17.3901 9.46387 16.7644 11.1088 14.4774 11.8301C14.4665 11.8219 14.461 11.811 14.4528 11.8028C14.0184 11.3847 13.3954 11.1716 12.5948 11.1716C11.7969 11.1716 11.1712 11.3847 10.7395 11.8028C10.7286 11.8137 10.7231 11.8274 10.7122 11.8383C8.43338 11.1306 7.80493 9.52672 7.63553 8.61137L8.53175 8.6059C8.73395 8.6059 8.91155 8.49114 9.00172 8.30534C9.08916 8.11954 9.06183 7.89548 8.90609 7.70695L6.43874 5.20135L6.35404 5.11392C6.24474 5.02648 6.10812 4.98549 5.9715 5.00462C5.83488 5.02102 5.71193 5.08932 5.65728 5.1631L3.12163 7.73427C2.99047 7.89275 2.96315 8.11681 3.05058 8.30261C3.13802 8.48841 3.31836 8.60317 3.51782 8.60317L4.52334 8.60864C4.6463 9.55131 5.13266 11.7072 7.00435 13.3165C3.23639 15.3467 3.18994 19.4016 3.18994 19.4425C3.18994 20.2923 3.8785 20.9863 4.7392 20.9945C5.58077 20.9945 6.27753 20.306 6.28846 19.4589C6.29393 19.0764 6.48519 16.0216 10.5783 15.4205C10.633 15.4888 10.6794 15.5653 10.7422 15.6254C11.174 16.0435 11.7969 16.2538 12.5948 16.2538C13.3954 16.2538 14.0184 16.0435 14.4528 15.6254C14.5129 15.568 14.5594 15.497 14.6113 15.4314C18.5924 16.0571 18.7864 19.0791 18.7891 19.4535C18.7946 20.306 19.4886 21 20.3384 21C21.1936 21 21.8876 20.3032 21.8876 19.4425C21.8876 19.4016 21.8439 15.3822 18.147 13.3411C20.0487 11.7454 20.546 9.63055 20.6745 8.60864L21.6745 8.60044C21.8767 8.60044 22.0571 8.48568 22.1445 8.29988C22.2401 8.12227 22.2155 7.89822 22.0871 7.73974Z" fill="#86888C"/>
</svg>
