<svg width="20" height="20" viewBox="0 0 20 20" fill="none" xmlns="http://www.w3.org/2000/svg">
<path fill-rule="evenodd" clip-rule="evenodd" d="M11.7989 11.372C11.7367 11.5417 11.6506 11.6852 11.5383 11.7975C11.4283 11.9027 11.2872 11.9816 11.1199 12.039C10.9167 12.1107 10.68 12.1514 10.3978 12.1514C10.1157 12.1514 9.87425 12.1107 9.67342 12.039C9.51084 11.9816 9.36979 11.9027 9.2622 11.7999C9.14744 11.6876 9.06376 11.5417 9.0016 11.372C8.92748 11.1688 8.88684 10.9225 8.88684 10.6356C8.88684 10.2913 8.94661 10.0116 9.0518 9.78446C9.10918 9.66252 9.17613 9.55254 9.26459 9.46647C9.38413 9.35171 9.53475 9.26564 9.71885 9.20587C9.91251 9.14371 10.1372 9.11263 10.3978 9.11263C10.6584 9.11263 10.8808 9.14371 11.0745 9.20587C11.2609 9.26564 11.4163 9.35411 11.5359 9.46887C11.6243 9.55494 11.6913 9.66252 11.7487 9.78446C11.8563 10.0116 11.916 10.2913 11.916 10.6356C11.916 10.9201 11.8754 11.164 11.7989 11.372ZM18.7012 5.39727L16.504 3.17379C16.3486 2.98013 16.0641 2.94666 15.8203 3.1451L13.6087 5.39727C13.4964 5.53833 13.4749 5.73199 13.5514 5.89456C13.6279 6.05475 13.7857 6.15517 13.9578 6.15517L14.7396 6.15995C14.5914 6.90589 14.0439 8.34517 12.0427 8.97635C12.0332 8.96918 12.0284 8.95962 12.0212 8.95244C11.6411 8.58665 11.096 8.40016 10.3955 8.40016C9.69733 8.40016 9.14983 8.58665 8.77208 8.95244C8.76251 8.96201 8.75773 8.97396 8.74817 8.98353C6.75421 8.3643 6.20432 6.96088 6.05609 6.15995L6.84028 6.15517C7.0172 6.15517 7.17261 6.05475 7.2515 5.89217C7.32801 5.7296 7.3041 5.53355 7.16783 5.36858L5.0089 3.17618L4.93478 3.09968C4.83915 3.02317 4.71961 2.98731 4.60007 3.00404C4.48052 3.01839 4.37294 3.07816 4.32512 3.14271L2.10642 5.39249C1.99166 5.53116 1.96776 5.72721 2.04426 5.88978C2.12077 6.05236 2.27856 6.15278 2.45309 6.15278L3.33292 6.15756C3.44051 6.9824 3.86608 8.86877 5.5038 10.277C2.20684 12.0534 2.16619 15.6014 2.16619 15.6372C2.16619 16.3808 2.76869 16.988 3.5218 16.9952C4.25818 16.9952 4.86784 16.3927 4.8774 15.6516C4.88218 15.3169 5.04954 12.6439 8.63102 12.1179C8.67883 12.1777 8.71948 12.2446 8.77447 12.2972C9.15222 12.663 9.69733 12.8471 10.3955 12.8471C11.096 12.8471 11.6411 12.663 12.0212 12.2972C12.0738 12.247 12.1145 12.1849 12.1599 12.1275C15.6433 12.675 15.8131 15.3192 15.8155 15.6468C15.8203 16.3927 16.4275 17 17.1711 17C17.9194 17 18.5267 16.3903 18.5267 15.6372C18.5267 15.6014 18.4884 12.0844 15.2536 10.2985C16.9177 8.90224 17.3528 7.05173 17.4652 6.15756L18.3402 6.15038C18.5171 6.15038 18.6749 6.04997 18.7514 5.88739C18.8351 5.73199 18.8136 5.53594 18.7012 5.39727Z" fill="#86888C"/>
</svg>
