<svg width="40" height="40" viewBox="0 0 40 40" fill="none" xmlns="http://www.w3.org/2000/svg">
<path fill-rule="evenodd" clip-rule="evenodd" d="M22.9976 22.9399C22.8644 23.3037 22.68 23.6111 22.4392 23.8519C22.2035 24.0773 21.9012 24.2464 21.5426 24.3693C21.1071 24.523 20.5999 24.6101 19.9954 24.6101C19.3908 24.6101 18.8734 24.523 18.443 24.3693C18.0947 24.2464 17.7924 24.0773 17.5619 23.857C17.3159 23.6162 17.1366 23.3037 17.0034 22.9399C16.8446 22.5045 16.7575 21.9768 16.7575 21.362C16.7575 20.6242 16.8856 20.0248 17.111 19.5381C17.234 19.2768 17.3774 19.0412 17.567 18.8567C17.8231 18.6108 18.1459 18.4264 18.5404 18.2983C18.9554 18.1651 19.437 18.0985 19.9954 18.0985C20.5538 18.0985 21.0303 18.1651 21.4453 18.2983C21.8449 18.4264 22.1779 18.6159 22.434 18.8619C22.6236 19.0463 22.767 19.2768 22.89 19.5381C23.1206 20.0248 23.2486 20.6242 23.2486 21.362C23.2486 21.9716 23.1615 22.4942 22.9976 22.9399ZM37.7883 10.137L33.0801 5.37241C32.7471 4.95743 32.1374 4.88571 31.6149 5.31093L26.8759 10.137C26.6351 10.4393 26.589 10.8543 26.7529 11.2026C26.9169 11.5459 27.255 11.7611 27.6239 11.7611L29.2992 11.7713C28.9815 13.3698 27.8083 16.4539 23.5202 17.8065C23.4997 17.7911 23.4894 17.7706 23.4741 17.7552C22.6595 16.9714 21.4914 16.5718 19.9903 16.5718C18.4943 16.5718 17.3211 16.9714 16.5116 17.7552C16.4911 17.7757 16.4809 17.8013 16.4604 17.8218C12.1876 16.4949 11.0093 13.4876 10.6916 11.7713L12.372 11.7611C12.7511 11.7611 13.0842 11.5459 13.2532 11.1975C13.4172 10.8491 13.3659 10.429 13.0739 10.0755L8.44764 5.37754L8.28882 5.21359C8.08389 5.04965 7.82773 4.9728 7.57157 5.00866C7.31541 5.0394 7.08486 5.16748 6.9824 5.30581L2.22805 10.1268C1.98214 10.4239 1.9309 10.844 2.09485 11.1924C2.25879 11.5408 2.59692 11.7559 2.97092 11.7559L4.85626 11.7662C5.08681 13.5337 5.99874 17.5759 9.50815 20.5935C2.44323 24.4001 2.35613 32.0029 2.35613 32.0798C2.35613 33.6731 3.64718 34.9744 5.261 34.9898C6.83895 34.9898 8.14537 33.6987 8.16586 32.1105C8.17611 31.3933 8.53474 25.6655 16.2093 24.5384C16.3118 24.6665 16.3989 24.8099 16.5167 24.9226C17.3262 25.7065 18.4943 26.101 19.9903 26.101C21.4914 26.101 22.6595 25.7065 23.4741 24.9226C23.5868 24.815 23.6739 24.6818 23.7712 24.5589C31.2357 25.7321 31.5995 31.3984 31.6046 32.1003C31.6149 33.6987 32.9162 35 34.5095 35C36.113 35 37.4143 33.6936 37.4143 32.0798C37.4143 32.0029 37.3324 24.4667 30.4006 20.6396C33.9664 17.6477 34.8988 13.6823 35.1396 11.7662L37.0147 11.7508C37.3938 11.7508 37.732 11.5356 37.8959 11.1873C38.0752 10.8543 38.0291 10.4342 37.7883 10.137Z" fill="#86888C"/>
</svg>
