<svg width="28" height="28" viewBox="0 0 28 28" fill="none" xmlns="http://www.w3.org/2000/svg">
<path fill-rule="evenodd" clip-rule="evenodd" d="M12.033 7.10686C12.3867 7.66001 12.6717 8.01854 13.1592 8.52048C13.2073 8.56828 13.3687 8.73559 13.5095 8.83462C13.6262 8.9234 13.7635 8.98486 13.9009 9.01217C13.9387 9.02242 13.9799 9.02925 14.0211 9.03266H14.1206C14.1618 9.02925 14.203 9.02583 14.2408 9.01217C14.3747 8.98486 14.5121 8.9234 14.6322 8.83462C14.773 8.73218 14.9378 8.56828 14.9825 8.52048C14.9859 8.51706 14.9893 8.51023 14.9962 8.50682C15.4735 8.01171 15.755 7.65318 16.1087 7.10686C16.5551 6.41029 16.8607 5.72397 17.0186 5.05813C17.1903 4.33425 17.0495 3.73329 16.6203 3.36451C16.3697 3.1494 16.0332 3.02306 15.6692 3.00257C15.2846 2.98209 14.8863 3.08452 14.5155 3.28939C14.3885 3.3611 14.258 3.43281 14.1172 3.51817C14.1035 3.525 14.0863 3.53183 14.0726 3.53183C14.0554 3.53183 14.0382 3.52841 14.0245 3.51817C13.8837 3.43281 13.7567 3.35769 13.6262 3.28939C13.2554 3.08452 12.8571 2.98209 12.4725 3.00257C12.1085 3.02306 11.7686 3.1494 11.518 3.36451C11.0922 3.72987 10.948 4.33083 11.1197 5.05813C11.281 5.72397 11.5866 6.41029 12.033 7.10686ZM8.03285 15.4144C6.96156 15.4144 6.12376 15.131 5.54348 14.5745C4.9426 13.9974 4.64044 13.1369 4.64044 12.0238C4.64044 10.9107 4.94604 10.0502 5.54348 9.46972C6.12376 8.90632 6.96156 8.62633 8.03285 8.62633C9.10414 8.62633 9.94194 8.90974 10.5256 9.46972C11.1265 10.0536 11.4356 10.9141 11.4356 12.0272C11.4356 13.1404 11.1265 14.0008 10.5256 14.5813C9.94194 15.131 9.10414 15.4144 8.03285 15.4144ZM20.0985 15.4144C19.0273 15.4144 18.1895 15.131 17.6092 14.5745C17.0083 13.9974 16.7061 13.1369 16.7061 12.0238C16.7061 10.9107 17.0117 10.0502 17.6092 9.46972C18.1895 8.90632 19.0273 8.62633 20.0985 8.62633C21.1698 8.62633 22.0076 8.90974 22.5913 9.46972C23.1922 10.0536 23.5013 10.9141 23.5013 12.0272C23.5013 13.1404 23.1922 14.0008 22.5913 14.5813C22.0076 15.131 21.1698 15.4144 20.0985 15.4144ZM14.0897 12.7204C14.7902 12.7204 15.3396 12.9048 15.7173 13.2735C16.1121 13.656 16.3147 14.2159 16.3147 14.9467C16.3147 15.674 16.1156 16.2374 15.7173 16.6164C15.3396 16.9783 14.7868 17.1627 14.0897 17.1627C13.3893 17.1627 12.8399 16.9783 12.4622 16.613C12.0673 16.2374 11.8716 15.674 11.8716 14.9432C11.8716 14.2125 12.0673 13.6525 12.4622 13.2735C12.8433 12.9048 13.3893 12.7204 14.0897 12.7204ZM10.1033 18.0778C10.7591 18.0778 11.3531 18.1871 11.8751 18.3919C11.1506 18.5319 10.5291 18.8495 10.0587 19.3412C9.4578 19.9626 9.14191 20.8094 9.14191 21.7792V27H2.09614C2.04464 27 2 26.9556 2 26.9044V21.8509C2 20.7719 2.33649 19.8499 2.97171 19.1875C3.66873 18.4636 4.69882 18.0812 5.95895 18.0812H10.1033V18.0778ZM15.4426 19.3104C16.2666 19.3104 16.9431 19.5597 17.3963 20.0343C17.8152 20.468 18.0384 21.0723 18.0384 21.7792V27H10.3986H10.148V21.7792C10.148 21.0723 10.3677 20.468 10.7832 20.0377C11.2364 19.5631 11.9128 19.3139 12.7369 19.3139H15.4426V19.3104ZM25.1563 19.1841C25.7949 19.8499 26.1348 20.7685 26.1348 21.8509V26.9044C26.1348 26.9556 26.0936 26.9966 26.0387 26.9966H19.0444V21.7792C19.0444 20.806 18.7251 19.9626 18.1242 19.3378C17.6435 18.8426 17.0117 18.5217 16.2769 18.3851C16.792 18.1871 17.3791 18.0812 18.0247 18.0812H22.1656C23.4257 18.0778 24.4592 18.4602 25.1563 19.1841Z" fill="#86888C"/>
</svg>
