<svg width="24" height="24" viewBox="0 0 24 24" fill="none" xmlns="http://www.w3.org/2000/svg">
<path fill-rule="evenodd" clip-rule="evenodd" d="M10.3608 5.42238C10.6556 5.88334 10.893 6.18212 11.2994 6.6004C11.3394 6.64023 11.4739 6.77966 11.5912 6.86218C11.6885 6.93616 11.803 6.98738 11.9174 7.01014C11.9489 7.01868 11.9832 7.02437 12.0176 7.02722H12.1005C12.1349 7.02437 12.1692 7.02153 12.2007 7.01014C12.3123 6.98738 12.4267 6.93616 12.5269 6.86218C12.6442 6.77682 12.7815 6.64023 12.8187 6.6004C12.8216 6.59755 12.8245 6.59186 12.8302 6.58902C13.2279 6.17643 13.4625 5.87765 13.7572 5.42238C14.1292 4.84191 14.3839 4.26997 14.5155 3.71511C14.6586 3.11187 14.5413 2.61107 14.1836 2.30376C13.9747 2.1245 13.6943 2.01922 13.391 2.00214C13.0705 1.98507 12.7386 2.07043 12.4296 2.24116C12.3237 2.30092 12.215 2.36067 12.0977 2.43181C12.0862 2.4375 12.0719 2.44319 12.0605 2.44319C12.0462 2.44319 12.0319 2.44034 12.0204 2.43181C11.9031 2.36067 11.7972 2.29807 11.6885 2.24116C11.3795 2.07043 11.0476 1.98507 10.7271 2.00214C10.4238 2.01922 10.1405 2.1245 9.93164 2.30376C9.57683 2.60823 9.45665 3.10903 9.59972 3.71511C9.7342 4.26997 9.98886 4.84191 10.3608 5.42238ZM7.02738 12.3454C6.13464 12.3454 5.43647 12.1092 4.9529 11.6454C4.45217 11.1645 4.20037 10.4475 4.20037 9.51984C4.20037 8.59222 4.45503 7.87516 4.9529 7.39143C5.43647 6.92193 6.13464 6.68861 7.02738 6.68861C7.92011 6.68861 8.61828 6.92478 9.10471 7.39143C9.60544 7.87801 9.86296 8.59506 9.86296 9.52268C9.86296 10.4503 9.60544 11.1674 9.10471 11.6511C8.61828 12.1092 7.92011 12.3454 7.02738 12.3454ZM17.0821 12.3454C16.1894 12.3454 15.4912 12.1092 15.0077 11.6454C14.5069 11.1645 14.2551 10.4475 14.2551 9.51984C14.2551 8.59222 14.5098 7.87516 15.0077 7.39143C15.4912 6.92193 16.1894 6.68861 17.0821 6.68861C17.9749 6.68861 18.673 6.92478 19.1595 7.39143C19.6602 7.87801 19.9177 8.59506 19.9177 9.52268C19.9177 10.4503 19.6602 11.1674 19.1595 11.6511C18.673 12.1092 17.9749 12.3454 17.0821 12.3454ZM12.0748 10.1003C12.6585 10.1003 13.1163 10.254 13.4311 10.5613C13.7601 10.88 13.9289 11.3466 13.9289 11.9555C13.9289 12.5616 13.763 13.0311 13.4311 13.347C13.1163 13.6486 12.6556 13.8022 12.0748 13.8022C11.4911 13.8022 11.0333 13.6486 10.7185 13.3441C10.3895 13.0311 10.2264 12.5616 10.2264 11.9527C10.2264 11.3438 10.3895 10.8771 10.7185 10.5613C11.0361 10.254 11.4911 10.1003 12.0748 10.1003ZM8.75276 14.5648C9.29928 14.5648 9.79429 14.6559 10.2292 14.8266C9.62547 14.9433 9.10757 15.2079 8.71557 15.6176C8.21483 16.1355 7.95159 16.8412 7.95159 17.6493V22H2.08012C2.0372 22 2 21.963 2 21.9203V17.7091C2 16.8099 2.28041 16.0416 2.80976 15.4896C3.39061 14.8864 4.24901 14.5677 5.29913 14.5677H8.75276V14.5648ZM13.2021 15.592C13.8889 15.592 14.4526 15.7998 14.8302 16.1953C15.1793 16.5566 15.3653 17.0603 15.3653 17.6493V22H8.99884H8.78996V17.6493C8.78996 17.0603 8.97309 16.5566 9.31931 16.1981C9.69701 15.8026 10.2607 15.5949 10.9474 15.5949H13.2021V15.592ZM21.2969 15.4868C21.8291 16.0416 22.1124 16.807 22.1124 17.7091V21.9203C22.1124 21.963 22.078 21.9972 22.0322 21.9972H16.2037V17.6493C16.2037 16.8383 15.9376 16.1355 15.4369 15.6148C15.0363 15.2022 14.5098 14.9347 13.8975 14.8209C14.3267 14.6559 14.8159 14.5677 15.3539 14.5677H18.8047C19.8548 14.5648 20.716 14.8835 21.2969 15.4868Z" fill="#86888C"/>
</svg>
