<svg width="40" height="40" viewBox="0 0 40 40" fill="none" xmlns="http://www.w3.org/2000/svg">
<path fill-rule="evenodd" clip-rule="evenodd" d="M36.5662 13.0794C36.7301 12.9154 36.766 12.5926 36.766 12.3415C36.766 12.0956 36.7301 11.7625 36.5662 11.6037C36.4073 11.4397 36.0999 11.409 35.8642 11.409H23.234C23.0034 11.409 22.696 11.4397 22.532 11.6037C22.3732 11.7625 22.3373 12.0956 22.3373 12.3415C22.3373 12.5926 22.3732 12.9205 22.532 13.0794C22.6909 13.2382 23.0034 13.2689 23.234 13.2689H35.8642C36.0538 13.2689 36.3971 13.2433 36.5662 13.0794ZM38.1238 9.91796C38.5337 10.3227 39.0154 11.0759 39.0154 12.3415C39.0154 13.6174 38.5337 14.3654 38.1238 14.7651C37.9496 14.9393 37.7447 15.0828 37.5295 15.2006C37.4782 16.1998 37.3706 18.5977 37.0939 24.4747C36.9249 28.0512 36.7814 31.2536 36.7763 31.3919C36.7506 34.5123 36.2126 37.5149 32.836 38.263C32.7284 38.2886 32.6311 38.2988 32.5286 38.2988H27.0051C28.3629 37.4739 28.7575 36.0853 29.1981 34.4969L29.2494 34.3125C29.9103 34.0973 30.4893 33.7642 30.9607 33.298C31.8676 32.3911 32.3339 31.1101 32.3339 29.4858C32.3339 27.8616 31.8728 26.5806 30.9658 25.6737C30.6379 25.3458 30.2434 25.0999 29.8284 24.8949C29.7874 24.649 29.7259 24.4338 29.6849 24.2032C29.4082 22.7685 28.9983 21.5542 28.4398 20.555C27.1435 18.2288 25.0734 17.0503 22.0248 17.0503H21.6354C21.5995 16.1741 21.579 15.5849 21.5636 15.2057C21.3484 15.0879 21.1486 14.9444 20.9693 14.7702C20.5645 14.3654 20.0828 13.6225 20.0828 12.3518C20.0828 11.0862 20.5645 10.3381 20.9641 9.93333C21.3535 9.54392 22.0606 9.08277 23.2289 9.08277H26.7746V5.17329C26.7746 3.59003 28.0196 2.29883 29.5414 2.29883C31.0683 2.29883 32.3083 3.58491 32.3083 5.17329V9.08277C32.3083 9.08277 35.357 9.05716 36.3612 9.09302C36.4432 9.09815 36.5303 9.10327 36.5867 9.10839C37.3399 9.21599 37.8266 9.61565 38.1238 9.91796ZM24.1665 24.7104H25.8266C25.4885 23.0657 24.9146 21.9794 24.0436 21.3082C23.4441 20.8471 22.6909 20.5858 21.7583 20.4935C21.5073 20.4679 21.2511 20.4474 20.9641 20.4474C20.9129 20.4474 20.8617 20.4525 20.8104 20.4577C20.6413 20.4577 20.4825 20.4628 20.3185 20.4782L13.263 20.4833C12.6892 20.4474 12.3202 20.4474 11.9052 20.4782H11.7669C11.7259 20.4884 11.6798 20.4987 11.6336 20.5038C9.75833 20.7139 8.35952 21.5439 7.68318 24.7104H24.1665ZM24.9505 34.9632C25.0529 34.7429 25.1401 34.4713 25.2425 34.1332H8.31341C8.84116 35.6498 9.33305 35.9931 11.1776 35.9931C11.4184 35.9931 12.9505 35.9777 13.1964 35.9675L20.2468 35.9624C20.4569 35.9726 20.6311 35.9777 20.8053 35.9777C21.0871 35.9829 21.3484 35.9829 21.6097 35.9624L22.9214 35.9367L23.3467 35.9316C24.2844 35.8343 24.6584 35.6293 24.9505 34.9632ZM6.99658 29.3116C7.88813 30.2339 8.85141 30.7002 9.86593 30.7002H9.93254C10.9214 30.6797 11.8693 30.2083 12.7353 29.3116C13.4219 28.5994 13.8369 27.8411 13.9957 27.0469H5.731C5.88984 27.8411 6.31512 28.5994 6.99658 29.3116ZM27.6507 33.9026L27.6046 34.0717C27.415 34.7583 27.2255 35.409 26.9539 35.9931C26.8258 36.2698 26.667 36.5209 26.4876 36.7566C26.3185 36.982 26.1136 37.1767 25.8881 37.3612C25.8471 37.397 25.8113 37.4278 25.7652 37.4585C25.5192 37.643 25.2374 37.8018 24.8992 37.9299C24.4945 38.0836 24.0487 38.2322 23.4902 38.263C23.0393 38.2937 21.6968 38.2988 21.6968 38.2988H20.7592L20.1802 38.2937L13.2733 38.2988H11.1725C7.40137 38.2988 6.61742 36.4133 5.87447 33.9128C5.24936 33.713 4.71136 33.4056 4.26559 32.9649C3.42528 32.1246 3 30.941 3 29.4397C3 27.9385 3.42528 26.7549 4.26046 25.9145C4.56277 25.6071 4.92656 25.3817 5.31597 25.187C5.74637 22.333 6.88898 18.8283 11.1213 18.2134C11.2391 18.1673 11.3621 18.1417 11.4953 18.1417H11.8181C12.1716 18.111 12.8224 18.1058 13.3399 18.1468L20.2314 18.1417C20.3698 18.1314 20.5798 18.1212 20.8002 18.1161C20.8514 18.1161 20.8975 18.111 20.9539 18.111C21.205 18.111 21.4253 18.1468 21.661 18.1622C22.158 18.1929 22.6191 18.2698 23.0598 18.3671C23.3621 18.4338 23.6593 18.5106 23.9308 18.6131C24.7097 18.9103 25.386 19.3458 25.9496 19.935C26.2724 20.263 26.5491 20.6524 26.8104 21.0777C26.9744 21.3492 27.123 21.6413 27.2613 21.9538C27.3382 22.128 27.4048 22.3176 27.4765 22.5021C27.5636 22.7429 27.6507 22.9888 27.7276 23.2502C27.7737 23.409 27.8249 23.573 27.8711 23.7472C27.9838 24.2032 28.0863 24.6746 28.1682 25.187C28.5576 25.3765 28.9214 25.6071 29.2237 25.9094C29.4133 26.099 29.5722 26.3091 29.7156 26.5345C30.2229 27.3031 30.4842 28.2715 30.4842 29.4346C30.4842 30.9359 30.0589 32.1246 29.2186 32.9598C28.7985 33.3953 28.2656 33.7028 27.6507 33.9026Z" fill="#86888C"/>
</svg>
