<svg width="24" height="24" viewBox="0 0 24 24" fill="none" xmlns="http://www.w3.org/2000/svg">
<path fill-rule="evenodd" clip-rule="evenodd" d="M20.6479 8.28801C20.739 8.19692 20.7589 8.01759 20.7589 7.87811C20.7589 7.74147 20.739 7.55644 20.6479 7.4682C20.5596 7.37711 20.3888 7.36003 20.2579 7.36003H13.2411C13.113 7.36003 12.9422 7.37711 12.8511 7.4682C12.7629 7.55644 12.743 7.74147 12.743 7.87811C12.743 8.01759 12.7629 8.19977 12.8511 8.28801C12.9394 8.37626 13.113 8.39333 13.2411 8.39333H20.2579C20.3632 8.39333 20.5539 8.3791 20.6479 8.28801ZM21.5132 6.53168C21.741 6.75656 22.0085 7.175 22.0085 7.87811C22.0085 8.5869 21.741 9.0025 21.5132 9.22453C21.4165 9.32132 21.3026 9.40102 21.183 9.46649C21.1546 10.0216 21.0948 11.3538 20.9411 14.6188C20.8471 16.6057 20.7674 18.3848 20.7646 18.4617C20.7504 20.1952 20.4515 21.8633 18.5756 22.2789C18.5158 22.2931 18.4617 22.2988 18.4048 22.2988H15.3362C16.0905 21.8405 16.3097 21.0691 16.5545 20.1867L16.583 20.0842C16.9502 19.9646 17.2718 19.7796 17.5337 19.5206C18.0376 19.0167 18.2966 18.3051 18.2966 17.4027C18.2966 16.5004 18.0404 15.7887 17.5366 15.2849C17.3544 15.1027 17.1352 14.9661 16.9046 14.8522C16.8819 14.7156 16.8477 14.596 16.8249 14.4679C16.6712 13.6709 16.4435 12.9962 16.1332 12.4412C15.413 11.1488 14.263 10.4941 12.5693 10.4941H12.353C12.3331 10.0073 12.3217 9.67998 12.3131 9.46934C12.1936 9.40387 12.0826 9.32416 11.9829 9.22738C11.758 9.0025 11.4905 8.58975 11.4905 7.8838C11.4905 7.1807 11.758 6.7651 11.9801 6.54022C12.1964 6.32388 12.5892 6.06769 13.2383 6.06769H15.2081V3.89575C15.2081 3.01616 15.8998 2.29883 16.7452 2.29883C17.5935 2.29883 18.2824 3.01332 18.2824 3.89575V6.06769C18.2824 6.06769 19.9761 6.05345 20.534 6.07338C20.5796 6.07623 20.628 6.07907 20.6593 6.08192C21.0777 6.1417 21.3481 6.36373 21.5132 6.53168ZM13.7592 14.7497H14.6815C14.4936 13.836 14.1748 13.2325 13.6909 12.8596C13.3578 12.6034 12.9394 12.4582 12.4213 12.407C12.2818 12.3928 12.1395 12.3814 11.9801 12.3814C11.9516 12.3814 11.9231 12.3842 11.8947 12.3871C11.8007 12.3871 11.7125 12.3899 11.6214 12.3985L7.70168 12.4013C7.38286 12.3814 7.17791 12.3814 6.94734 12.3985H6.87048C6.84771 12.4042 6.82209 12.4098 6.79647 12.4127C5.75463 12.5294 4.97751 12.9905 4.60177 14.7497H13.7592ZM14.1947 20.4457C14.2516 20.3233 14.3 20.1724 14.357 19.9846H4.95189C5.24509 20.8272 5.51836 21.0179 6.54313 21.0179C6.67692 21.0179 7.52804 21.0093 7.66467 21.0036L11.5816 21.0008C11.6983 21.0065 11.795 21.0093 11.8918 21.0093C12.0484 21.0122 12.1936 21.0122 12.3387 21.0008L13.0675 20.9866L13.3037 20.9837C13.8247 20.9296 14.0325 20.8158 14.1947 20.4457ZM4.22032 17.3059C4.71563 17.8183 5.25078 18.0774 5.8144 18.0774H5.85141C6.4008 18.066 6.92741 17.8041 7.40848 17.3059C7.78992 16.9103 8.0205 16.489 8.10874 16.0478H3.51722C3.60547 16.489 3.84173 16.9103 4.22032 17.3059ZM15.6948 19.8565L15.6692 19.9504C15.5639 20.3318 15.4586 20.6934 15.3077 21.0179C15.2366 21.1716 15.1483 21.3111 15.0487 21.442C14.9547 21.5673 14.8409 21.6754 14.7156 21.7779C14.6929 21.7978 14.6729 21.8149 14.6473 21.832C14.5107 21.9345 14.3541 22.0227 14.1662 22.0939C13.9414 22.1793 13.6937 22.2618 13.3834 22.2789C13.1329 22.296 12.3871 22.2988 12.3871 22.2988H11.8662L11.5446 22.296L7.70737 22.2988H6.54028C4.4452 22.2988 4.00968 21.2513 3.59693 19.8622C3.24964 19.7511 2.95075 19.5804 2.7031 19.3355C2.23627 18.8687 2 18.2112 2 17.3771C2 16.5431 2.23627 15.8855 2.70026 15.4187C2.8682 15.2479 3.07031 15.1226 3.28665 15.0145C3.52576 13.4289 4.16055 11.4819 6.51181 11.1403C6.57729 11.1147 6.6456 11.1004 6.71961 11.1004H6.89895C7.09536 11.0833 7.45688 11.0805 7.74438 11.1033L11.573 11.1004C11.6499 11.0947 11.7666 11.089 11.889 11.0862C11.9175 11.0862 11.9431 11.0833 11.9744 11.0833C12.1139 11.0833 12.2363 11.1033 12.3672 11.1118C12.6433 11.1289 12.8995 11.1716 13.1443 11.2257C13.3123 11.2627 13.4774 11.3054 13.6282 11.3623C14.0609 11.5274 14.4367 11.7694 14.7498 12.0967C14.9291 12.2789 15.0828 12.4952 15.228 12.7315C15.3191 12.8824 15.4017 13.0446 15.4785 13.2183C15.5212 13.3151 15.5582 13.4204 15.5981 13.5229C15.6465 13.6566 15.6948 13.7933 15.7375 13.9385C15.7632 14.0267 15.7916 14.1178 15.8173 14.2146C15.8799 14.4679 15.9368 14.7298 15.9824 15.0145C16.1987 15.1198 16.4008 15.2479 16.5687 15.4158C16.6741 15.5211 16.7623 15.6379 16.842 15.7631C17.1238 16.1901 17.269 16.7281 17.269 17.3743C17.269 18.2083 17.0327 18.8687 16.5659 19.3327C16.3325 19.5747 16.0364 19.7455 15.6948 19.8565Z" fill="#86888C"/>
</svg>
