<svg width="28" height="28" viewBox="0 0 28 28" fill="none" xmlns="http://www.w3.org/2000/svg">
<path fill-rule="evenodd" clip-rule="evenodd" d="M25.3775 9.48585C25.4868 9.37654 25.5107 9.16134 25.5107 8.99396C25.5107 8.83 25.4868 8.60797 25.3775 8.50207C25.2716 8.39277 25.0666 8.37227 24.9095 8.37227H16.4893C16.3356 8.37227 16.1307 8.39277 16.0214 8.50207C15.9155 8.60797 15.8915 8.83 15.8915 8.99396C15.8915 9.16134 15.9155 9.37996 16.0214 9.48585C16.1272 9.59174 16.3356 9.61224 16.4893 9.61224H24.9095C25.0359 9.61224 25.2647 9.59516 25.3775 9.48585ZM26.4159 7.37825C26.6892 7.6481 27.0102 8.15024 27.0102 8.99396C27.0102 9.84452 26.6892 10.3432 26.4159 10.6097C26.2997 10.7258 26.1631 10.8215 26.0196 10.9C25.9855 11.5661 25.9137 13.1648 25.7293 17.0828C25.6166 19.4671 25.5209 21.602 25.5175 21.6942C25.5004 23.7745 25.1418 25.7762 22.8907 26.2749C22.819 26.292 22.7541 26.2988 22.6857 26.2988H19.0034C19.9086 25.7489 20.1716 24.8232 20.4654 23.7642L20.4996 23.6413C20.9402 23.4978 21.3262 23.2758 21.6405 22.9649C22.2451 22.3603 22.5559 21.5063 22.5559 20.4235C22.5559 19.3407 22.2485 18.4867 21.6439 17.8821C21.4253 17.6635 21.1623 17.4995 20.8856 17.3629C20.8582 17.1989 20.8173 17.0554 20.7899 16.9017C20.6055 15.9453 20.3322 15.1357 19.9599 14.4696C19.0956 12.9188 17.7156 12.1332 15.6832 12.1332H15.4236C15.3997 11.549 15.386 11.1562 15.3757 10.9034C15.2323 10.8249 15.0991 10.7292 14.9795 10.6131C14.7097 10.3432 14.3886 9.84793 14.3886 9.00079C14.3886 8.15707 14.7097 7.65835 14.9761 7.3885C15.2357 7.12889 15.7071 6.82146 16.4859 6.82146H18.8497V4.21514C18.8497 3.15963 19.6798 2.29883 20.6943 2.29883C21.7122 2.29883 22.5389 3.15621 22.5389 4.21514V6.82146C22.5389 6.82146 24.5713 6.80438 25.2408 6.82829C25.2955 6.83171 25.3535 6.83512 25.3911 6.83854C25.8933 6.91027 26.2178 7.17671 26.4159 7.37825ZM17.111 17.2399H18.2178C17.9923 16.1434 17.6097 15.4192 17.029 14.9718C16.6294 14.6643 16.1272 14.4901 15.5056 14.4286C15.3382 14.4116 15.1674 14.3979 14.9761 14.3979C14.9419 14.3979 14.9078 14.4013 14.8736 14.4047C14.7609 14.4047 14.655 14.4081 14.5457 14.4184L9.84202 14.4218C9.45944 14.3979 9.21349 14.3979 8.93681 14.4184H8.84458C8.81725 14.4252 8.78651 14.432 8.75576 14.4355C7.50555 14.5755 6.57301 15.1289 6.12212 17.2399H17.111ZM17.6336 24.0751C17.702 23.9282 17.76 23.7472 17.8284 23.5217H6.54227C6.89411 24.5328 7.22203 24.7617 8.45175 24.7617C8.6123 24.7617 9.63365 24.7514 9.79761 24.7446L14.4979 24.7412C14.6379 24.748 14.7541 24.7514 14.8702 24.7514C15.0581 24.7549 15.2323 24.7549 15.4065 24.7412L16.281 24.7241L16.5645 24.7207C17.1896 24.6558 17.4389 24.5192 17.6336 24.0751ZM5.66439 20.3074C6.25875 20.9222 6.90094 21.2331 7.57728 21.2331H7.62169C8.28096 21.2194 8.9129 20.9051 9.49018 20.3074C9.94791 19.8326 10.2246 19.327 10.3305 18.7975H4.82067C4.92656 19.327 5.21008 19.8326 5.66439 20.3074ZM19.4338 23.368L19.4031 23.4807C19.2767 23.9385 19.1503 24.3723 18.9693 24.7617C18.8839 24.9461 18.778 25.1135 18.6584 25.2706C18.5457 25.4209 18.4091 25.5508 18.2588 25.6737C18.2314 25.6976 18.2075 25.7181 18.1768 25.7386C18.0128 25.8616 17.8249 25.9675 17.5995 26.0529C17.3296 26.1554 17.0325 26.2544 16.6601 26.2749C16.3595 26.2954 15.4646 26.2988 15.4646 26.2988H14.8395L14.4535 26.2954L9.84885 26.2988H8.44834C5.93424 26.2988 5.41161 25.0418 4.91631 23.3748C4.49957 23.2416 4.14091 23.0367 3.84372 22.7429C3.28352 22.1827 3 21.3936 3 20.3928C3 19.3919 3.28352 18.6028 3.84031 18.0426C4.04184 17.8377 4.28437 17.6874 4.54398 17.5576C4.83091 15.6549 5.59266 13.3185 8.41418 12.9086C8.49274 12.8778 8.57472 12.8607 8.66354 12.8607H8.87874C9.11443 12.8402 9.54825 12.8368 9.89325 12.8642L14.4876 12.8607C14.5798 12.8539 14.7199 12.8471 14.8668 12.8437C14.9009 12.8437 14.9317 12.8402 14.9693 12.8402C15.1366 12.8402 15.2835 12.8642 15.4406 12.8744C15.772 12.8949 16.0794 12.9461 16.3732 13.011C16.5747 13.0554 16.7728 13.1067 16.9539 13.175C17.4731 13.3731 17.924 13.6635 18.2997 14.0563C18.5149 14.2749 18.6994 14.5345 18.8736 14.818C18.9829 14.9991 19.082 15.1938 19.1742 15.4022C19.2254 15.5183 19.2699 15.6447 19.3177 15.7677C19.3757 15.9282 19.4338 16.0922 19.4851 16.2664C19.5158 16.3723 19.55 16.4816 19.5807 16.5977C19.6559 16.9017 19.7242 17.216 19.7788 17.5576C20.0384 17.684 20.281 17.8377 20.4825 18.0392C20.6089 18.1656 20.7148 18.3057 20.8104 18.456C21.1486 18.9683 21.3228 19.6139 21.3228 20.3893C21.3228 21.3902 21.0393 22.1827 20.4791 22.7395C20.199 23.0298 19.8437 23.2348 19.4338 23.368Z" fill="#86888C"/>
</svg>
