<svg width="20" height="20" viewBox="0 0 20 20" fill="none" xmlns="http://www.w3.org/2000/svg">
<path fill-rule="evenodd" clip-rule="evenodd" d="M16.9183 7.09018C16.9912 7.0173 17.0071 6.87384 17.0071 6.76225C17.0071 6.65294 16.9912 6.50492 16.9183 6.43433C16.8477 6.36145 16.7111 6.34779 16.6063 6.34779H10.9929C10.8904 6.34779 10.7538 6.36145 10.6809 6.43433C10.6103 6.50492 10.5944 6.65294 10.5944 6.76225C10.5944 6.87384 10.6103 7.01958 10.6809 7.09018C10.7515 7.16077 10.8904 7.17443 10.9929 7.17443H16.6063C16.6906 7.17443 16.8432 7.16305 16.9183 7.09018ZM17.6106 5.68511C17.7928 5.86501 18.0068 6.19977 18.0068 6.76225C18.0068 7.32929 17.7928 7.66177 17.6106 7.83939C17.5332 7.91682 17.4421 7.98058 17.3464 8.03296C17.3237 8.47702 17.2758 9.54278 17.1529 12.1548C17.0777 13.7443 17.0139 15.1676 17.0117 15.2291C17.0003 16.6159 16.7612 17.9504 15.2605 18.2829C15.2126 18.2943 15.1694 18.2988 15.1238 18.2988H12.6689C13.2724 17.9322 13.4478 17.3151 13.6436 16.6091L13.6664 16.5271C13.9601 16.4315 14.2175 16.2835 14.427 16.0762C14.8301 15.6732 15.0373 15.1038 15.0373 14.3819C15.0373 13.6601 14.8323 13.0907 14.4293 12.6877C14.2835 12.5419 14.1082 12.4326 13.9237 12.3415C13.9055 12.2322 13.8782 12.1366 13.8599 12.0341C13.737 11.3965 13.5548 10.8568 13.3066 10.4127C12.7304 9.37882 11.8104 8.85505 10.4555 8.85505H10.2824C10.2664 8.46564 10.2573 8.20375 10.2505 8.03524C10.1549 7.98286 10.066 7.9191 9.98634 7.84167C9.80643 7.66177 9.59237 7.33156 9.59237 6.7668C9.59237 6.20432 9.80643 5.87184 9.98406 5.69194C10.1571 5.51887 10.4714 5.31392 10.9906 5.31392H12.5665V3.57637C12.5665 2.8727 13.1198 2.29883 13.7962 2.29883C14.4748 2.29883 15.0259 2.87042 15.0259 3.57637V5.31392C15.0259 5.31392 16.3809 5.30253 16.8272 5.31847C16.8636 5.32075 16.9024 5.32302 16.9274 5.3253C17.2622 5.37312 17.4785 5.55075 17.6106 5.68511ZM11.4073 12.2595H12.1452C11.9949 11.5285 11.7398 11.0458 11.3527 10.7474C11.0863 10.5425 10.7515 10.4264 10.337 10.3854C10.2254 10.374 10.1116 10.3649 9.98406 10.3649C9.96129 10.3649 9.93851 10.3671 9.91574 10.3694C9.84059 10.3694 9.77 10.3717 9.69713 10.3785L6.56134 10.3808C6.30629 10.3649 6.14233 10.3649 5.95787 10.3785H5.89639C5.87817 10.3831 5.85767 10.3876 5.83718 10.3899C5.0037 10.4833 4.38201 10.8522 4.08141 12.2595H11.4073ZM11.7558 16.8163C11.8013 16.7184 11.84 16.5977 11.8856 16.4474H4.36151C4.59607 17.1215 4.81469 17.2741 5.6345 17.2741C5.74153 17.2741 6.42243 17.2672 6.53174 17.2627L9.66524 17.2604C9.75861 17.265 9.83604 17.2672 9.91346 17.2672C10.0387 17.2695 10.1549 17.2695 10.271 17.2604L10.854 17.249L11.043 17.2467C11.4597 17.2035 11.626 17.1124 11.7558 16.8163ZM3.77626 14.3045C4.1725 14.7144 4.60063 14.9217 5.05152 14.9217H5.08113C5.52064 14.9125 5.94193 14.703 6.32679 14.3045C6.63194 13.988 6.8164 13.6509 6.88699 13.298H3.21378C3.28437 13.6509 3.47338 13.988 3.77626 14.3045ZM12.9559 16.3449L12.9354 16.4201C12.8511 16.7252 12.7669 17.0145 12.6462 17.2741C12.5892 17.397 12.5186 17.5086 12.4389 17.6134C12.3638 17.7136 12.2727 17.8001 12.1725 17.8821C12.1543 17.898 12.1383 17.9117 12.1178 17.9254C12.0085 18.0073 11.8833 18.0779 11.733 18.1349C11.5531 18.2032 11.355 18.2692 11.1067 18.2829C10.9063 18.2966 10.3097 18.2988 10.3097 18.2988H9.89297L9.63564 18.2966L6.5659 18.2988H5.63222C3.95616 18.2988 3.60774 17.4608 3.27754 16.3495C2.99972 16.2607 2.7606 16.124 2.56248 15.9282C2.18901 15.5547 2 15.0287 2 14.3615C2 13.6942 2.18901 13.1682 2.5602 12.7947C2.69456 12.6581 2.85625 12.5579 3.02932 12.4713C3.22061 11.2029 3.72844 9.64526 5.60945 9.37198C5.66183 9.35149 5.71648 9.3401 5.77569 9.3401H5.91916C6.07629 9.32644 6.3655 9.32416 6.5955 9.34238L9.65841 9.3401C9.7199 9.33555 9.81327 9.33099 9.91119 9.32872C9.93396 9.32872 9.95445 9.32644 9.97951 9.32644C10.0911 9.32644 10.189 9.34238 10.2938 9.34921C10.5147 9.36288 10.7196 9.39703 10.9155 9.4403C11.0498 9.46991 11.1819 9.50407 11.3026 9.54961C11.6487 9.68169 11.9493 9.87526 12.1998 10.1371C12.3433 10.2829 12.4663 10.456 12.5824 10.645C12.6553 10.7657 12.7213 10.8955 12.7828 11.0344C12.817 11.1118 12.8466 11.1961 12.8785 11.278C12.9172 11.3851 12.9559 11.4944 12.99 11.6105C13.0105 11.6811 13.0333 11.754 13.0538 11.8314C13.1039 12.0341 13.1494 12.2436 13.1859 12.4713C13.359 12.5556 13.5206 12.6581 13.655 12.7924C13.7393 12.8767 13.8098 12.97 13.8736 13.0702C14.0991 13.4118 14.2152 13.8422 14.2152 14.3592C14.2152 15.0264 14.0262 15.5547 13.6527 15.9259C13.466 16.1195 13.2291 16.2561 12.9559 16.3449Z" fill="#86888C"/>
</svg>
