<svg width="40" height="40" viewBox="0 0 40 40" fill="none" xmlns="http://www.w3.org/2000/svg">
<path d="M29.5773 39.0771C28.9342 39.0771 28.3064 38.913 27.745 38.6002L21.2578 35.0253C21.0077 34.9073 20.7984 34.8766 20.5483 35.0407L14.0866 38.6002C12.8055 39.308 11.2385 39.2208 10.0493 38.3642C8.77838 37.4615 8.15568 35.9229 8.41088 34.3534L9.62054 26.978C9.73793 26.3984 9.64096 26.2599 9.29388 25.8958L4.16943 20.6643C3.08737 19.5564 2.71988 17.9357 3.22008 16.4688C3.69475 15.0327 4.8942 14.0018 6.34375 13.7812L13.4435 12.699C13.8773 12.617 14.0049 12.5554 14.2754 12.0015L17.4144 5.34414C18.0677 3.94394 19.4101 3.07715 20.9158 3.07715C22.4215 3.07715 23.7638 3.94907 24.4223 5.34414L27.5766 12.0374C27.8318 12.5195 27.9134 12.6272 28.4698 12.7093L35.498 13.7812C36.9476 14.0018 38.1419 15.0327 38.6217 16.4688C39.1168 17.9357 38.7493 19.5615 37.6723 20.6643L32.7316 25.665C32.1651 26.2343 32.1447 26.2856 32.2365 26.9729L33.4207 34.3534C33.6759 35.9229 33.0481 37.4615 31.7823 38.3642C31.1392 38.8258 30.3685 39.0771 29.5773 39.0771Z" fill="#86888C"/>
</svg>
