<svg width="20" height="20" viewBox="0 0 20 20" fill="none" xmlns="http://www.w3.org/2000/svg">
<path d="M13.8121 18.0771C13.5263 18.0771 13.2473 18.0042 12.9978 17.8652L10.1146 16.2763C10.0034 16.2239 9.91039 16.2102 9.79924 16.2832L6.92737 17.8652C6.35798 18.1797 5.66157 18.141 5.13301 17.7603C4.56817 17.3591 4.29141 16.6752 4.40484 15.9777L4.94246 12.6997C4.99464 12.4422 4.95154 12.3806 4.79728 12.2188L2.51975 9.89365C2.03883 9.40127 1.8755 8.68094 2.09781 8.02899C2.30878 7.39073 2.84187 6.93254 3.48611 6.83452L6.64154 6.35354C6.83436 6.31707 6.89107 6.28971 7.0113 6.04353L8.4064 3.0847C8.69677 2.46239 9.29337 2.07715 9.96257 2.07715C10.6318 2.07715 11.2284 2.46467 11.521 3.0847L12.9229 6.05948C13.0363 6.27376 13.0726 6.32163 13.3199 6.3581L16.4436 6.83452C17.0878 6.93254 17.6186 7.39073 17.8319 8.02899C18.0519 8.68094 17.8886 9.40355 17.4099 9.89365L15.2141 12.1162C14.9623 12.3692 14.9532 12.392 14.994 12.6975L15.5203 15.9777C15.6337 16.6752 15.3547 17.3591 14.7921 17.7603C14.5063 17.9655 14.1638 18.0771 13.8121 18.0771Z" fill="#86888C"/>
</svg>
