<svg width="28" height="28" viewBox="0 0 28 28" fill="none" xmlns="http://www.w3.org/2000/svg">
<path d="M20.7182 27.0771C20.2895 27.0771 19.871 26.9677 19.4967 26.7592L15.1718 24.3759C15.0051 24.2973 14.8656 24.2768 14.6989 24.3862L10.3911 26.7592C9.53697 27.231 8.49235 27.1729 7.69952 26.6019C6.85225 26.0001 6.43712 24.9743 6.60726 23.928L7.41369 19.011C7.49196 18.6247 7.4273 18.5323 7.19592 18.2896L3.77962 14.8019C3.05825 14.0633 2.81325 12.9828 3.14672 12.0049C3.46317 11.0475 4.2628 10.3602 5.22916 10.2132L9.96231 9.49174C10.2515 9.43703 10.3366 9.396 10.5169 9.02671L12.6096 4.58847C13.0451 3.65501 13.9401 3.07715 14.9439 3.07715C15.9476 3.07715 16.8426 3.65843 17.2815 4.58847L19.3844 9.05065C19.5545 9.37206 19.6089 9.44387 19.9798 9.49858L24.6653 10.2132C25.6317 10.3602 26.4279 11.0475 26.7478 12.0049C27.0779 12.9828 26.8329 14.0667 26.1149 14.8019L22.8211 18.1357C22.4434 18.5152 22.4298 18.5494 22.491 19.0076L23.2805 23.928C23.4506 24.9743 23.0321 26.0001 22.1882 26.6019C21.7594 26.9096 21.2456 27.0771 20.7182 27.0771Z" fill="#86888C"/>
</svg>
