<svg width="24" height="24" viewBox="0 0 24 24" fill="none" xmlns="http://www.w3.org/2000/svg">
<path fill-rule="evenodd" clip-rule="evenodd" d="M3.23221 15.5184C3.23221 16.1957 3.78145 16.7478 4.45874 16.7478H14.4616C15.1389 16.7478 15.6881 16.1957 15.6881 15.5184V11.3579C15.6881 10.6806 15.1389 10.1286 14.4644 10.1286H4.45874C3.78145 10.1286 3.23221 10.6778 3.23221 11.3579V15.5184ZM20.2499 7.94587L16.0666 3.8992V5.69203C16.0666 6.36078 16.2857 6.92424 16.7012 7.32549C17.1224 7.73244 17.7143 7.94587 18.4172 7.94587H20.2499ZM21.9516 8.05401C21.9829 8.128 22 8.21052 22 8.2959V20.7973C22 21.56 21.3455 22.2031 20.5686 22.2031H8.19522C7.43256 22.2031 6.7638 21.5458 6.7638 20.7973L6.79795 17.98H4.46158C3.10131 17.9772 2.00285 16.8759 2 15.5184V11.3608C2 10.0034 3.10131 8.90204 4.45874 8.89635H6.76096V3.60893C6.76096 2.87188 7.44394 2.20312 8.19237 2.20312H15.7251C15.9585 2.20312 16.1776 2.29134 16.3455 2.45071L21.7297 7.66414C21.8406 7.76943 21.9061 7.90887 21.9516 8.05401Z" fill="#86888C"/>
<path d="M4.12536 15.1453L4.07129 14.5705C4.22211 14.5989 4.39001 14.6103 4.46116 14.6103C4.77988 14.6103 4.87948 14.525 4.87948 14.1578V11.8243H5.63077V14.1749C5.63077 14.5847 5.56247 14.8067 5.39457 14.9746C5.24374 15.1197 5.0047 15.188 4.6319 15.188C4.4697 15.188 4.36156 15.1766 4.12536 15.1453ZM6.33082 11.8243H7.46343C7.97852 11.8243 8.30578 11.8955 8.51921 12.0947C8.69849 12.2597 8.78387 12.513 8.78387 12.8659C8.78387 13.2187 8.70134 13.4834 8.53913 13.6655C8.34562 13.8818 8.04682 13.9843 7.61426 13.9843H7.08495V15.1226H6.33367V11.8243H6.33082ZM7.45205 13.418C7.69394 13.418 7.79354 13.3838 7.8903 13.2927C7.97567 13.2074 8.0212 13.0651 8.0212 12.8744C8.0212 12.6951 7.98136 12.5671 7.89599 12.4845C7.80493 12.402 7.66548 12.3679 7.43213 12.3679H7.07926V13.418H7.45205ZM9.31318 11.8243H11.5386L11.4816 12.3679H10.0645V13.1675H11.1971V13.731H10.0645V14.5733H11.5642V15.1169H9.31318V11.8243ZM11.9853 13.4919C11.9853 12.4618 12.5289 11.7617 13.653 11.7617C13.9802 11.7617 14.3701 11.83 14.5835 11.9211L14.4868 12.4703C14.2506 12.402 13.966 12.3508 13.707 12.3508C13.0411 12.3508 12.7679 12.7464 12.7679 13.4635C12.7679 13.8334 12.8163 14.1379 12.9614 14.34C13.081 14.5079 13.2802 14.6046 13.5989 14.6046C13.7184 14.6046 13.8835 14.5904 14.0001 14.5705V13.8761H13.5363V13.3354H14.7457V15.0173C14.4327 15.114 13.9318 15.1852 13.5704 15.1852C12.3866 15.188 11.9853 14.5363 11.9853 13.4919Z" fill="#86888C"/>
</svg>
