<svg width="28" height="28" viewBox="0 0 28 28" fill="none" xmlns="http://www.w3.org/2000/svg">
<path fill-rule="evenodd" clip-rule="evenodd" d="M3.47845 18.1826C3.47845 18.9953 4.13743 19.6577 4.95006 19.6577H17.3581C18.1707 19.6577 18.8297 18.9953 18.8297 18.1826V13.1907C18.8297 12.3781 18.1707 11.7157 17.3581 11.7157H4.95006C4.13743 11.7157 3.47845 12.3781 3.47845 13.1907V18.1826ZM23.8967 9.09685L18.8809 4.23812V6.38921C18.8809 7.1916 19.1438 7.86766 19.6389 8.34909C20.1443 8.83735 20.8545 9.09344 21.7012 9.09344H23.8967V9.09685ZM25.9385 9.2266C25.9761 9.31537 25.9966 9.41439 25.9966 9.51683V24.5164C25.9966 25.4315 25.2113 26.2031 24.2791 26.2031H9.42979C8.51473 26.2031 7.71233 25.4144 7.71233 24.5164L7.75331 21.1395H4.95006C3.3248 21.1395 2 19.8113 2 18.1826V13.1907C2 11.5621 3.3248 10.2339 4.95006 10.2339H7.71233V3.88985C7.71233 3.00552 8.5318 2.20312 9.42979 2.20312H18.4678C18.7478 2.20312 19.0107 2.30897 19.2121 2.50018L25.6722 8.75541C25.8088 8.88857 25.8873 9.05246 25.9385 9.2266Z" fill="#86888C"/>
<path d="M4.22217 13.7334H6.90249L6.8342 14.389H5.12699V15.3518H6.49276V16.0313H5.12699V17.0454H6.93322V17.701H4.22217V13.7334ZM7.60586 13.7334H8.27168L10.153 16.2771V13.7334H10.9486V17.7044H10.2213L8.39801 15.2938V17.7044H7.60245V13.7334H7.60586ZM11.8124 13.7334H14.4928L14.4245 14.389H12.7173V15.3518H14.083V16.0313H12.7173V17.0454H14.5235V17.701H11.8124V13.7334ZM16.1658 15.724L14.9537 13.7334H15.8995L16.6882 15.0445L17.4087 13.7334H18.3715L17.0707 15.6762L18.3374 17.701H17.3336L16.5448 16.3557L15.8312 17.701H14.8513L16.1658 15.724Z" fill="#86888C"/>
</svg>
