<svg width="28" height="28" viewBox="0 0 28 28" fill="none" xmlns="http://www.w3.org/2000/svg">
<path fill-rule="evenodd" clip-rule="evenodd" d="M3.47363 17.9761C3.47363 18.7887 4.13047 19.4511 4.94045 19.4511H16.9031C17.7131 19.4511 18.3699 18.7887 18.3699 17.9761V12.9842C18.3699 12.1716 17.7131 11.5092 16.9031 11.5092H4.94045C4.13047 11.5092 3.47363 12.1682 3.47363 12.9842V17.9761ZM23.8254 8.89031L18.8225 4.035V6.18609C18.8225 6.98848 19.0846 7.66453 19.5781 8.14597C20.0818 8.63423 20.7896 8.89031 21.6337 8.89031H23.8254ZM25.5985 8.55228C25.8061 8.76056 25.9184 9.02689 25.9184 9.3137V24.3133C25.9184 25.2283 25.1357 26 24.2066 26H9.40899C8.49691 26 7.69713 25.2113 7.69713 24.3133L7.73797 20.933H4.94386C3.31708 20.9262 2.0034 19.6048 2 17.9761V12.9876C2 11.3555 3.31708 10.0341 4.94045 10.0307H7.69373V3.68673C7.69373 2.80239 8.51052 2 9.40559 2H18.4141C18.6932 2 18.9553 2.10585 19.1561 2.29706L25.5985 8.55228Z" fill="#86888C"/>
<path d="M6.04297 17.1908L8.22789 14.0427H6.10763V13.2847H9.49052V13.9163L7.33963 17.0371H9.50413V17.7951H6.04297V17.1908ZM10.246 13.2812H11.2738V17.7951H10.246V13.2812ZM12.2574 13.2812H13.8025C14.507 13.2812 14.9528 13.3803 15.2421 13.65C15.4871 13.8754 15.6029 14.2236 15.6029 14.7051C15.6029 15.1865 15.4905 15.5484 15.2659 15.8011C15.0039 16.0982 14.5955 16.2381 14.0033 16.2381H13.2784V17.7951H12.2506V13.2812H12.2574ZM13.7923 15.4665C14.1224 15.4665 14.2585 15.4187 14.3913 15.2958C14.5104 15.1763 14.5682 14.985 14.5682 14.7221C14.5682 14.4797 14.5172 14.2987 14.3981 14.1861C14.2722 14.0734 14.0816 14.029 13.7651 14.029H13.2852V15.4699H13.7923V15.4665Z" fill="#86888C"/>
</svg>
