<svg width="20" height="20" viewBox="0 0 20 20" fill="none" xmlns="http://www.w3.org/2000/svg">
<path fill-rule="evenodd" clip-rule="evenodd" d="M14.6188 6.29346L11.3271 3.05422V4.48907C11.3271 5.02286 11.4981 5.47453 11.8266 5.79617C12.1574 6.12009 12.625 6.29346 13.1794 6.29346H14.6188ZM15.9601 6.38014C15.9852 6.43945 15.9989 6.50561 15.9989 6.57404V16.5746C15.9989 17.1837 15.4833 17.6992 14.872 17.6992H5.12689C4.52695 17.6992 4 17.1746 4 16.5746V2.82383C4 2.23529 4.53607 1.69922 5.12689 1.69922H11.0579C11.2427 1.69922 11.4183 1.76993 11.5483 1.89996L15.7867 6.06763C15.8734 6.15203 15.9259 6.2638 15.9601 6.38014ZM13.428 7.97923H6.57086C6.11919 7.97923 5.73824 8.32825 5.73824 8.73885V15.1033C5.73824 15.5139 6.11919 15.8652 6.56858 15.8652H13.4257C13.8683 15.8652 14.2561 15.5093 14.2561 15.1033V8.73885C14.2606 8.33509 13.8705 7.97923 13.428 7.97923ZM8.05817 11.5629C7.67265 11.5629 7.36014 11.2458 7.36014 10.8535C7.36014 10.4611 7.67265 10.144 8.05817 10.144C8.44368 10.144 8.7562 10.4611 8.7562 10.8535C8.75392 11.2458 8.4414 11.5629 8.05817 11.5629ZM7.44226 14.3756C7.32136 14.3756 7.20274 14.3231 7.11834 14.2205C6.97006 14.038 6.99515 13.7688 7.17308 13.616L9.15768 11.9347C9.32193 11.7979 9.56145 11.8047 9.71657 11.9507L9.93556 12.1606L11.2039 11.1341C11.3544 11.0132 11.5689 11.0086 11.7194 11.1295L12.9398 12.0807C13.1246 12.2245 13.1588 12.4936 13.0197 12.6807C12.8782 12.87 12.6113 12.9042 12.4289 12.7605L11.4685 12.0123L10.5515 12.7537L11.1332 13.3126C11.302 13.4745 11.3111 13.746 11.1514 13.9171C10.9917 14.0882 10.7248 14.0973 10.556 13.9353L9.40861 12.8358L7.70915 14.2752C7.63388 14.3414 7.53807 14.3756 7.44226 14.3756Z" fill="#86888C"/>
</svg>
