<svg width="24" height="24" viewBox="0 0 24 24" fill="none" xmlns="http://www.w3.org/2000/svg">
<path fill-rule="evenodd" clip-rule="evenodd" d="M10.6761 19.8215H3.24902V9.20631H6.99897V10.3854C6.99897 11.0929 7.24062 11.7102 7.69772 12.1614C8.149 12.6127 8.75458 12.8456 9.46498 12.8456H10.6732V19.8215H10.6761ZM8.2509 9.25871L10.6296 11.5646H9.46498C9.19712 11.5646 8.83901 11.5151 8.56534 11.2472C8.35571 11.0347 8.24799 10.7436 8.24799 10.3854V9.25871H8.2509ZM19.3785 16.0046C20.3626 16.0046 21.1283 15.7221 21.6465 15.169C22.156 14.6391 22.4064 13.8792 22.4064 12.9039V7.17411C22.4064 6.20168 22.156 5.45053 21.6465 4.92064C21.1312 4.37329 20.3626 4.09961 19.3785 4.09961L7.47645 4.10834C6.49238 4.10834 5.72667 4.38202 5.20843 4.92646C4.71057 5.44761 4.44854 6.2075 4.44854 7.17993V7.92235H3.12382C2.52406 7.92235 2 8.45224 2 9.06656V19.9641C2 20.5785 2.51533 21.0996 3.12382 21.0996H10.8013C11.4098 21.0996 11.9252 20.5785 11.9252 19.9641V18.1095H21.7775C22.1269 18.1095 22.4035 17.8271 22.4035 17.469C22.4035 17.1196 22.1298 16.8285 21.7775 16.8285H11.9252V16.0075L19.3785 16.0046Z" fill="#86888C"/>
</svg>
