<svg width="28" height="28" viewBox="0 0 28 28" fill="none" xmlns="http://www.w3.org/2000/svg">
<path fill-rule="evenodd" clip-rule="evenodd" d="M3.47845 17.9795C3.47845 18.7921 4.13743 19.4545 4.95006 19.4545H16.9518C17.7644 19.4545 18.4234 18.7921 18.4234 17.9795V12.9876C18.4234 12.175 17.7644 11.5126 16.9518 11.5126H4.95006C4.13743 11.5126 3.47845 12.175 3.47845 12.9876V17.9795ZM23.8933 8.89373L18.8775 4.035V6.18609C18.8775 6.98848 19.1404 7.66453 19.6355 8.14597C20.1408 8.63423 20.851 8.89031 21.6978 8.89031H23.8933V8.89373ZM25.9385 9.02347C25.9761 9.11225 25.9966 9.21127 25.9966 9.3137V24.3133C25.9966 25.2283 25.2113 26 24.2791 26H9.42979C8.51473 26 7.71233 25.2113 7.71233 24.3133L7.75331 20.9364H4.95006C3.3248 20.9364 2 19.6082 2 17.9795V12.9876C2 11.3589 3.3248 10.0307 4.95006 10.0307H7.71233V3.68673C7.71233 2.80239 8.5318 2 9.42979 2H18.4678C18.7478 2 19.0107 2.10585 19.2121 2.29706L25.6722 8.55228C25.8054 8.68203 25.8839 8.84934 25.9385 9.02347Z" fill="#86888C"/>
<path d="M5.1416 13.3018H6.69175C7.39854 13.3018 7.84583 13.4008 8.13605 13.6705C8.38189 13.8959 8.49798 14.2441 8.49798 14.7256C8.49798 15.207 8.38531 15.5724 8.15995 15.8216C7.89704 16.1187 7.48731 16.2587 6.8932 16.2587H6.16593V17.8156H5.1416V13.3018ZM6.67809 15.487C7.00929 15.487 7.14587 15.4392 7.27903 15.3163C7.39854 15.1968 7.45658 15.0056 7.45658 14.7426C7.45658 14.5002 7.40537 14.3193 7.28586 14.2066C7.15953 14.0939 6.96832 14.0495 6.65078 14.0495H6.16934V15.4904H6.67809V15.487ZM9.23208 13.3018H10.6252C11.4822 13.3018 12.0524 13.4349 12.428 13.8105C12.7899 14.1656 12.9777 14.729 12.9777 15.5416C12.9777 16.3611 12.8002 16.9279 12.428 17.3103C12.09 17.6552 11.571 17.819 10.7652 17.819H9.23208V13.3018ZM10.6969 17.0679C11.1578 17.0679 11.489 16.9279 11.6666 16.665C11.8441 16.4021 11.9056 16.0982 11.9056 15.5416C11.9056 14.8929 11.8066 14.589 11.588 14.3534C11.3832 14.1349 11.0793 14.0563 10.5774 14.0563H10.2598V17.0679H10.6969ZM13.763 13.3018H16.7404L16.6619 14.0461H14.7942V15.1421H16.2726V15.9138H14.7942V17.8156H13.763V13.3018Z" fill="#86888C"/>
</svg>
