<svg width="28" height="28" viewBox="0 0 28 28" fill="none" xmlns="http://www.w3.org/2000/svg">
<path fill-rule="evenodd" clip-rule="evenodd" d="M3.47866 18.1815C3.47866 18.9942 4.13773 19.6567 4.95048 19.6567H16.9539C17.7666 19.6567 18.4257 18.9942 18.4257 18.1815V13.1889C18.4257 12.3761 17.7666 11.7137 16.9539 11.7137H4.95048C4.13773 11.7137 3.47866 12.3761 3.47866 13.1889V18.1815ZM23.8998 9.09442L18.8799 4.23841V6.38981C18.8799 7.1889 19.1429 7.86846 19.6414 8.34997C20.1468 8.8383 20.8571 9.09442 21.7006 9.09442H23.8998ZM25.9419 9.22418C25.9795 9.31297 26 9.412 26 9.51445V24.5162C26 25.4314 25.2146 26.2031 24.2823 26.2031H9.43085C8.51565 26.2031 7.71315 25.4143 7.71315 24.5162L7.75413 21.1354H4.9539C3.32157 21.1354 2 19.8138 2 18.1815V13.1889C2 11.5566 3.32157 10.235 4.95048 10.2316H7.71315V3.89009C7.71315 3.00563 8.53273 2.20312 9.43085 2.20312H18.4701C18.7501 2.20312 19.0268 2.31582 19.2248 2.51047L25.6756 8.75634C25.8122 8.88611 25.8907 9.05002 25.9419 9.22418Z" fill="#86888C"/>
<path d="M4.76562 13.5199H5.57496L6.99898 16.0367L8.46739 13.5199H9.25623V18.0242H8.31713V15.4289L7.38145 16.9963H6.5926L5.6296 15.4016V18.0242H4.76562V13.5199ZM10.2363 13.5199H11.7833C12.4867 13.5199 12.9341 13.619 13.2244 13.8888C13.4668 14.1141 13.5863 14.4625 13.5863 14.944C13.5863 15.4255 13.4736 15.7874 13.2517 16.0367C12.9887 16.3338 12.5789 16.4704 11.9882 16.4704H11.2642V18.0242H10.2363V13.5199ZM11.773 15.6987C12.1009 15.6987 12.2409 15.6508 12.3706 15.5279C12.4902 15.4084 12.5482 15.2172 12.5482 14.9542C12.5482 14.7117 12.497 14.5342 12.3775 14.4215C12.2511 14.3088 12.0599 14.2644 11.7457 14.2644H11.2642V15.7021H11.773V15.6987ZM14.4093 18.0106V17.3003C14.6723 17.3481 14.983 17.3788 15.3109 17.3788C15.6797 17.3788 15.8982 17.331 16.0553 17.2285C16.2124 17.1227 16.2978 16.9519 16.2978 16.7095C16.2978 16.4738 16.2124 16.3133 16.0724 16.2143C15.9085 16.0948 15.6558 16.0572 15.1948 16.0572H15.0684V15.3981H15.2255C15.6387 15.3981 15.8504 15.3469 16.0109 15.2069C16.1168 15.1147 16.1885 14.9645 16.1885 14.7459C16.1885 14.5752 16.1407 14.4283 16.0382 14.3361C15.9051 14.2166 15.6831 14.1654 15.3279 14.1654C15.0377 14.1654 14.7098 14.1927 14.4469 14.2302V13.5336C14.7508 13.4687 15.1333 13.4346 15.4816 13.4346C16.0485 13.4346 16.53 13.5678 16.8066 13.8444C16.9978 14.0356 17.1174 14.2985 17.1174 14.6742C17.1174 15.142 16.9125 15.4699 16.5198 15.6679C16.9944 15.8387 17.2779 16.1938 17.2779 16.7812C17.2779 17.1295 17.172 17.4334 16.9603 17.652C16.6632 17.9627 16.1817 18.1198 15.4987 18.1198C15.106 18.1164 14.7098 18.0754 14.4093 18.0106Z" fill="#86888C"/>
</svg>
