<svg width="28" height="28" viewBox="0 0 28 28" fill="none" xmlns="http://www.w3.org/2000/svg">
<path fill-rule="evenodd" clip-rule="evenodd" d="M11.6969 22.6711H3.39596V10.8071H7.58709V12.125C7.58709 12.9157 7.85717 13.6055 8.36804 14.1099C8.87241 14.6143 9.54924 14.8746 10.3432 14.8746H11.6936V22.6711H11.6969ZM8.9863 10.8657L11.6448 13.4428H10.3432C10.0438 13.4428 9.6436 13.3875 9.33773 13.0881C9.10344 12.8506 8.98305 12.5252 8.98305 12.125V10.8657H8.9863ZM21.423 18.4051C22.5229 18.4051 23.3787 18.0895 23.9579 17.4713C24.5273 16.879 24.8072 16.0297 24.8072 14.9397V8.53581C24.8072 7.44898 24.5273 6.60946 23.9579 6.01723C23.3819 5.40548 22.5229 5.09961 21.423 5.09961L8.12074 5.10937C7.02089 5.10937 6.1651 5.41525 5.58589 6.02374C5.02946 6.6062 4.7366 7.45549 4.7366 8.54232V9.37209H3.25604C2.58572 9.37209 2 9.96431 2 10.6509V22.8306C2 23.5171 2.57595 24.0996 3.25604 24.0996H11.8368C12.5169 24.0996 13.0928 23.5171 13.0928 22.8306V20.7578H24.1043C24.4948 20.7578 24.8039 20.4421 24.8039 20.0419C24.8039 19.6514 24.498 19.326 24.1043 19.326H13.0928V18.4084L21.423 18.4051Z" fill="#86888C"/>
</svg>
