<svg width="40" height="40" viewBox="0 0 40 40" fill="none" xmlns="http://www.w3.org/2000/svg">
<path fill-rule="evenodd" clip-rule="evenodd" d="M4.21045 25.9641C4.21045 27.1831 5.1957 28.1767 6.41068 28.1767H24.3546C25.5696 28.1767 26.5548 27.1831 26.5548 25.9641V18.4763C26.5548 17.2574 25.5696 16.2638 24.3546 16.2638H6.41068C5.1957 16.2638 4.21045 17.2522 4.21045 18.4763V25.9641ZM34.7381 12.3355L27.2338 5.0525V8.27913C27.2338 9.48271 27.6269 10.4968 28.3671 11.2189C29.1226 11.9513 30.1845 12.3355 31.4505 12.3355H34.7381ZM37.3978 11.8284C37.7092 12.1408 37.8776 12.5403 37.8776 12.9705V35.4699C37.8776 36.8425 36.7035 38 35.3098 38H13.1135C11.7454 38 10.5457 36.8169 10.5457 35.4699L10.607 30.3995H6.41579C3.97562 30.3892 2.0051 28.4072 2 25.9641V18.4814C2 16.0333 3.97562 14.0512 6.41068 14.0461H10.5406V4.53009C10.5406 3.20359 11.7658 2 13.1084 2H26.6212C27.0398 2 27.4329 2.15877 27.7341 2.44558L37.3978 11.8284Z" fill="#86888C"/>
<path d="M8.06445 24.7862L11.3418 20.064H8.16145V18.927H13.2358V19.8745L10.0094 24.5557H13.2562V25.6927H8.06445V24.7862ZM14.3691 18.9219H15.9108V25.6927H14.3691V18.9219ZM17.3861 18.9219H19.7038C20.7605 18.9219 21.4292 19.0704 21.8631 19.475C22.2307 19.813 22.4043 20.3354 22.4043 21.0576C22.4043 21.7798 22.2358 22.3226 21.8989 22.7016C21.5058 23.1472 20.8932 23.3572 20.0049 23.3572H18.9176V25.6927H17.3759V18.9219H17.3861ZM19.6884 22.1997C20.1836 22.1997 20.3878 22.128 20.5869 21.9436C20.7656 21.7644 20.8524 21.4776 20.8524 21.0832C20.8524 20.7196 20.7758 20.4481 20.5971 20.2791C20.4082 20.1101 20.1224 20.0435 19.6476 20.0435H18.9278V22.2048H19.6884V22.1997Z" fill="#86888C"/>
</svg>
