<svg width="28" height="28" viewBox="0 0 28 28" fill="none" xmlns="http://www.w3.org/2000/svg">
<path fill-rule="evenodd" clip-rule="evenodd" d="M3.47866 18.0799C3.47866 18.8927 4.13773 19.5552 4.95048 19.5552H16.9539C17.7666 19.5552 18.4257 18.8927 18.4257 18.0799V13.0873C18.4257 12.2746 17.7666 11.6121 16.9539 11.6121H4.95048C4.13773 11.6121 3.47866 12.2712 3.47866 13.0873V18.0799ZM23.8964 8.99285L18.8799 4.13685V6.28824C18.8799 7.09075 19.1429 7.7669 19.6414 8.2484C20.1468 8.73674 20.8571 8.99285 21.7006 8.99285H23.8964ZM25.9419 9.12262C25.9795 9.21141 26 9.31044 26 9.41289V24.4146C26 25.3298 25.2146 26.1016 24.2823 26.1016H9.43085C8.51565 26.1016 7.71315 25.3127 7.71315 24.4146L7.75413 21.0338H4.9539C3.32157 21.0304 2.00341 19.7088 2 18.0799V13.0907C2 11.4584 3.32157 10.1368 4.95048 10.1334H7.71315V3.78853C7.71315 2.90407 8.53273 2.10156 9.43085 2.10156H18.4701C18.7536 2.10156 19.0165 2.20742 19.218 2.40207L25.6756 8.65136C25.8122 8.78113 25.8907 8.94846 25.9419 9.12262Z" fill="#86888C"/>
<path d="M4.66016 13.3501H5.46608L6.88326 15.8566L8.34826 13.3501H9.13711V17.8373H8.198V15.2522L7.26573 16.8128H6.47689L5.5173 15.2249V17.8373H4.66016V13.3501ZM10.1104 13.3501H11.6539C12.3574 13.3501 12.8013 13.4491 13.0916 13.7189C13.334 13.9409 13.4536 14.2892 13.4536 14.7673C13.4536 15.2454 13.3409 15.6074 13.1189 15.8566C12.8559 16.1503 12.4496 16.2903 11.8588 16.2903H11.1382V17.8373H10.1138V13.3501H10.1104ZM11.6368 15.522C11.9647 15.522 12.1012 15.4776 12.2344 15.3512C12.354 15.2317 12.412 15.0439 12.412 14.7809C12.412 14.5385 12.3608 14.3609 12.2413 14.2482C12.1183 14.1355 11.9271 14.0911 11.6129 14.0911H11.1348V15.522H11.6368ZM15.9499 16.806H13.976C13.9624 16.7616 13.9487 16.6626 13.9487 16.5772C13.9487 16.3928 13.9829 16.1845 14.0853 15.8942L15.0176 13.3467H15.9225L14.9117 16.1025H15.9499V15.0336H16.889V16.1025H17.4149V16.806H16.889V17.8373H15.9499V16.806Z" fill="#86888C"/>
</svg>
