<svg width="40" height="40" viewBox="0 0 40 40" fill="none" xmlns="http://www.w3.org/2000/svg">
<path fill-rule="evenodd" clip-rule="evenodd" d="M4.21799 26.1707C4.21799 27.3898 5.2066 28.3835 6.42573 28.3835H24.4308C25.65 28.3835 26.6386 27.3898 26.6386 26.1707V18.6818C26.6386 17.4627 25.65 16.4689 24.4308 16.4689H6.42573C5.2066 16.4689 4.21799 17.4627 4.21799 18.6818V26.1707ZM34.8497 12.5401L27.3199 5.25606V8.48315C27.3199 9.68178 27.7143 10.7011 28.4622 11.4234C29.2203 12.1559 30.2857 12.5401 31.5509 12.5401H34.8497ZM37.9129 12.7347C37.9693 12.8679 38 13.0164 38 13.1701V35.6727C38 37.0455 36.8219 38.2031 35.4235 38.2031H13.1463C11.7735 38.2031 10.5697 37.0199 10.5697 35.6727L10.6312 30.6015H6.43085C3.98236 30.6015 2 28.6192 2 26.1707V18.6818C2 16.2333 3.98236 14.2509 6.42573 14.2458H10.5697V4.73357C10.5697 3.40688 11.7991 2.20312 13.1463 2.20312H26.7052C27.1252 2.20312 27.5401 2.37216 27.8372 2.66414L37.5134 12.0329C37.7183 12.2276 37.8361 12.4735 37.9129 12.7347Z" fill="#86888C"/>
<path d="M6.14844 19.1788H7.36244L9.49847 22.954L11.7011 19.1788H12.8844V25.9352H11.4757V22.0422L10.0722 24.3934H8.8889L7.4444 22.0013V25.9352H6.14844V19.1788ZM14.3545 19.1788H16.6749C17.7301 19.1788 18.4011 19.3274 18.8365 19.7321C19.2002 20.0701 19.3795 20.5926 19.3795 21.3149C19.3795 22.0371 19.2105 22.5801 18.8775 22.954C18.4831 23.3997 17.8684 23.6046 16.9822 23.6046H15.8963V25.9352H14.3545V19.1788ZM16.6595 22.4469C17.1513 22.4469 17.3613 22.3752 17.556 22.1908C17.7352 22.0115 17.8223 21.7247 17.8223 21.3302C17.8223 20.9665 17.7455 20.7002 17.5662 20.5311C17.3767 20.3621 17.0898 20.2955 16.6186 20.2955H15.8963V22.452H16.6595V22.4469ZM20.614 25.9148V24.8493C21.0084 24.921 21.4746 24.9671 21.9663 24.9671C22.5195 24.9671 22.8474 24.8954 23.083 24.7417C23.3186 24.5829 23.4467 24.3268 23.4467 23.9631C23.4467 23.6097 23.3186 23.3689 23.1086 23.2204C22.8627 23.0411 22.4837 22.9848 21.7921 22.9848H21.6026V21.9961H21.8382C22.4581 21.9961 22.7756 21.9193 23.0164 21.7093C23.1752 21.571 23.2828 21.3456 23.2828 21.0178C23.2828 20.7617 23.211 20.5414 23.0574 20.4031C22.8576 20.2238 22.5246 20.147 21.9919 20.147C21.5565 20.147 21.0648 20.1879 20.6704 20.2443V19.1993C21.1262 19.102 21.6999 19.0508 22.2224 19.0508C23.0727 19.0508 23.795 19.2506 24.2099 19.6655C24.4968 19.9523 24.676 20.3467 24.676 20.9102C24.676 21.612 24.3687 22.1037 23.7796 22.4008C24.4916 22.6569 24.9168 23.1897 24.9168 24.0707C24.9168 24.5932 24.758 25.0491 24.4404 25.3769C23.9948 25.843 23.2725 26.0787 22.248 26.0787C21.659 26.0735 21.0648 26.0121 20.614 25.9148Z" fill="#86888C"/>
</svg>
