<svg width="24" height="24" viewBox="0 0 24 24" fill="none" xmlns="http://www.w3.org/2000/svg">
<path fill-rule="evenodd" clip-rule="evenodd" d="M20.2735 7.44202L16.1588 3.39297V5.18653C16.1588 5.85377 16.3727 6.41835 16.7833 6.82041C17.1968 7.22531 17.7813 7.44202 18.4742 7.44202H20.2735ZM21.9501 7.55037C21.9815 7.62451 21.9986 7.7072 21.9986 7.79275V20.2935C21.9986 21.0548 21.3541 21.6992 20.59 21.6992H8.40861C7.65868 21.6992 7 21.0434 7 20.2935V3.10498C7 2.36931 7.67009 1.69922 8.40861 1.69922H15.8224C16.0533 1.69922 16.2729 1.78761 16.4354 1.95015L21.7334 7.15973C21.8417 7.26523 21.9073 7.40495 21.9501 7.55037ZM18.785 9.54923H10.2136C9.64899 9.54923 9.1728 9.9855 9.1728 10.4988V18.4543C9.1728 18.9675 9.64899 19.4067 10.2107 19.4067H18.7822C19.3353 19.4067 19.8201 18.9618 19.8201 18.4543V10.4988C19.8258 9.99406 19.3382 9.54923 18.785 9.54923ZM12.0727 14.0288C11.5908 14.0288 11.2002 13.6325 11.2002 13.142C11.2002 12.6516 11.5908 12.2552 12.0727 12.2552C12.5546 12.2552 12.9453 12.6516 12.9453 13.142C12.9424 13.6325 12.5518 14.0288 12.0727 14.0288ZM11.3028 17.5447C11.1517 17.5447 11.0034 17.4791 10.8979 17.3508C10.7126 17.1227 10.7439 16.7862 10.9664 16.5951L13.4471 14.4936C13.6524 14.3225 13.9518 14.3311 14.1457 14.5136L14.4194 14.7759L16.0048 13.4928C16.193 13.3416 16.4611 13.3359 16.6493 13.4871L18.1748 14.6761C18.4058 14.8558 18.4485 15.1922 18.2746 15.4261C18.0978 15.6627 17.7642 15.7055 17.5361 15.5259L16.3356 14.5906L15.1893 15.5173L15.9165 16.2159C16.1275 16.4184 16.1389 16.7577 15.9393 16.9715C15.7397 17.1854 15.406 17.1968 15.195 16.9943L13.7608 15.6199L11.6364 17.4192C11.5423 17.5019 11.4226 17.5447 11.3028 17.5447Z" fill="#86888C"/>
</svg>
