<svg width="24" height="24" viewBox="0 0 24 24" fill="none" xmlns="http://www.w3.org/2000/svg">
<path fill-rule="evenodd" clip-rule="evenodd" d="M3.23204 15.5194C3.23204 16.1966 3.78119 16.7486 4.45839 16.7486H14.7984C15.4756 16.7486 16.0248 16.1966 16.0248 15.5194V11.3595C16.0248 10.6823 15.4756 10.1303 14.7984 10.1303H4.45839C3.78119 10.1303 3.23204 10.6823 3.23204 11.3595V15.5194ZM20.2473 7.9479L16.0674 3.89896V5.69153C16.0674 6.36019 16.2865 6.92357 16.6991 7.32476C17.1202 7.73165 17.7121 7.94505 18.4177 7.94505H20.2473V7.9479ZM21.9488 8.05602C21.9801 8.13 21.9972 8.21252 21.9972 8.29788V20.7975C21.9972 21.5601 21.3427 22.2031 20.5659 22.2031H8.19149C7.42894 22.2031 6.76028 21.5458 6.76028 20.7975L6.79442 17.9835H4.45839C3.104 17.9835 2 16.8766 2 15.5194V11.3595C2 10.0022 3.104 8.8954 4.45839 8.8954H6.76028V3.60873C6.76028 2.87178 7.44316 2.20312 8.19149 2.20312H15.7231C15.9565 2.20312 16.1756 2.29133 16.3434 2.45067L21.7268 7.66336C21.8407 7.77433 21.9061 7.91091 21.9488 8.05602Z" fill="#86888C"/>
<path d="M3.85156 11.812H6.08517L6.02826 12.3583H4.60558V13.1607H5.74372V13.7269H4.60558V14.572H6.11077V15.1183H3.85156V11.812ZM6.67131 11.812H7.22615L8.79394 13.9318V11.812H9.45691V15.1212H8.85085L7.33143 13.1123V15.1212H6.66846V11.812H6.67131ZM10.1768 11.812H12.4104L12.3535 12.3583H10.9308V13.1607H12.0689V13.7269H10.9308V14.572H12.436V15.1183H10.1768V11.812ZM13.8046 13.4709L12.7945 11.812H13.5827L14.24 12.9046L14.8403 11.812H15.6427L14.5586 13.431L15.6143 15.1183H14.7777L14.1205 13.9972L13.5258 15.1183H12.7092L13.8046 13.4709Z" fill="#86888C"/>
</svg>
