<svg width="28" height="28" viewBox="0 0 28 28" fill="none" xmlns="http://www.w3.org/2000/svg">
<path fill-rule="evenodd" clip-rule="evenodd" d="M22.9281 8.59058L17.9906 3.73173V5.88399C17.9906 6.68468 18.2472 7.36218 18.74 7.84464C19.2361 8.33053 19.9376 8.59058 20.769 8.59058H22.9281ZM24.9401 8.72061C24.9778 8.80957 24.9983 8.9088 24.9983 9.01145V24.0123C24.9983 24.9259 24.225 25.6992 23.308 25.6992H8.69033C7.79042 25.6992 7 24.9122 7 24.0123V3.38613C7 2.50332 7.80411 1.69922 8.69033 1.69922H17.5868C17.864 1.69922 18.1275 1.80529 18.3225 2.00033L24.6801 8.25183C24.8101 8.37843 24.8888 8.5461 24.9401 8.72061ZM21.142 11.1192H10.8563C10.1788 11.1192 9.60736 11.6428 9.60736 12.2587V21.8053C9.60736 22.4212 10.1788 22.9482 10.8529 22.9482H21.1386C21.8024 22.9482 22.3841 22.4144 22.3841 21.8053V12.2587C22.3909 11.653 21.8058 11.1192 21.142 11.1192ZM13.0873 16.4948C12.509 16.4948 12.0402 16.0192 12.0402 15.4306C12.0402 14.8421 12.509 14.3665 13.0873 14.3665C13.6655 14.3665 14.1343 14.8421 14.1343 15.4306C14.1309 16.0192 13.6621 16.4948 13.0873 16.4948ZM12.1634 20.7138C11.982 20.7138 11.8041 20.6351 11.6775 20.4811C11.4551 20.2073 11.4927 19.8036 11.7596 19.5743L14.7365 17.0525C14.9829 16.8472 15.3422 16.8575 15.5749 17.0765L15.9033 17.3913L17.8058 15.8515C18.0317 15.6701 18.3533 15.6633 18.5791 15.8446L20.4098 17.2715C20.6869 17.4871 20.7382 17.8908 20.5295 18.1714C20.3174 18.4554 19.917 18.5067 19.6433 18.2912L18.2027 17.1689L16.8272 18.2809L17.6997 19.1192C17.953 19.3622 17.9666 19.7694 17.7271 20.026C17.4876 20.2826 17.0873 20.2963 16.834 20.0534L15.1129 18.4041L12.5637 20.5632C12.4508 20.6624 12.3071 20.7138 12.1634 20.7138Z" fill="#86888C"/>
</svg>
