<svg width="24" height="24" viewBox="0 0 24 24" fill="none" xmlns="http://www.w3.org/2000/svg">
<path fill-rule="evenodd" clip-rule="evenodd" d="M3.23221 15.3329C3.23221 16.0102 3.78145 16.5623 4.45874 16.5623H15.119C15.7962 16.5623 16.3455 16.0102 16.3455 15.3329V11.1752C16.3455 10.4979 15.7962 9.94587 15.119 9.94587H4.45874C3.78145 9.94587 3.23221 10.4951 3.23221 11.1752V15.3329ZM20.2499 7.76032L16.0666 3.71365V5.50648C16.0666 6.17523 16.2857 6.73869 16.7012 7.13995C17.1224 7.54689 17.7143 7.76032 18.4172 7.76032H20.2499ZM21.9516 7.86846C21.9829 7.94245 22 8.02498 22 8.11035V20.6118C22 21.3744 21.3455 22.0176 20.5686 22.0176H8.19522C7.43256 22.0176 6.7638 21.3602 6.7638 20.6118L6.79795 17.7973H4.45874C3.10131 17.7945 2 16.6903 2 15.3329V11.1752C2 9.81496 3.10131 8.71365 4.45874 8.71081H6.76096V3.42338C6.76096 2.68633 7.44394 2.01758 8.19237 2.01758H15.7251C15.9585 2.01758 16.1776 2.1058 16.3455 2.26516L21.7297 7.47859C21.8435 7.58673 21.9089 7.72333 21.9516 7.86846Z" fill="#86888C"/>
<path d="M3.84668 11.7217H4.56381V13.0023H5.67081V11.7217H6.38794V14.8662H5.67081V13.543H4.56381V14.8662H3.84668V11.7217ZM7.76814 12.2396H6.79489V11.7217H9.49267L9.4386 12.2396H8.48811V14.8634H7.77098V12.2396H7.76814ZM9.86546 11.7217H10.4318L11.4249 13.4775L12.4494 11.7217H13.0015V14.8662H12.3441V13.0563L11.6924 14.1491H11.1404L10.4688 13.0364V14.8662H9.86546V11.7217ZM13.6816 11.7217H14.3988V14.3455H15.7903V14.8662H13.6816V11.7217Z" fill="#86888C"/>
</svg>
