<svg width="20" height="20" viewBox="0 0 20 20" fill="none" xmlns="http://www.w3.org/2000/svg">
<path fill-rule="evenodd" clip-rule="evenodd" d="M2.98577 12.7538C2.98577 13.2956 3.42516 13.7373 3.96699 13.7373H11.9693C12.5111 13.7373 12.9505 13.2956 12.9505 12.7538V9.42541C12.9505 8.88358 12.5111 8.44192 11.9693 8.44192H3.96699C3.42516 8.44192 2.98577 8.8813 2.98577 9.42541V12.7538ZM16.5976 6.69576L13.2533 3.45842V4.89268C13.2533 5.42769 13.4286 5.87846 13.761 6.19946C14.0979 6.52501 14.5714 6.69576 15.1338 6.69576H16.5976ZM17.9613 6.78227C17.9863 6.84146 18 6.90748 18 6.97578V16.9769C18 17.5871 17.4764 18.1016 16.8549 18.1016H6.9539C6.34377 18.1016 5.80877 17.5757 5.80877 16.9769L5.83608 14.7231H3.96927C2.88105 14.7208 2.00228 13.8398 2 12.7538V9.42769C2 8.33947 2.88105 7.45842 3.96699 7.45614H5.80877V3.22621C5.80877 2.63657 6.35515 2.10156 6.9539 2.10156H12.9801C13.169 2.10156 13.3443 2.17214 13.4787 2.3019L17.7837 6.4681C17.8748 6.55461 17.9271 6.66616 17.9613 6.78227Z" fill="#86888C"/>
<path d="M3.77344 9.60091H4.31072L5.25551 11.2719L6.23217 9.60091H6.75807V12.5924H6.132V10.869L5.51049 11.9094H4.98459L4.34487 10.8508V12.5924H3.77344V9.60091ZM7.4069 9.60091H8.43593C8.90491 9.60091 9.20087 9.66693 9.39438 9.84678C9.55602 9.99476 9.6357 10.227 9.6357 10.5457C9.6357 10.8644 9.56058 11.1057 9.4126 11.2719C9.2373 11.4677 8.96638 11.5611 8.57253 11.5611H8.09216V12.5924H7.40918V9.60091H7.4069ZM8.42455 11.0488C8.6431 11.0488 8.73417 11.0192 8.82295 10.935C8.90264 10.8553 8.94134 10.7301 8.94134 10.5548C8.94134 10.3932 8.90719 10.2748 8.82751 10.1997C8.74555 10.1245 8.61806 10.0949 8.40861 10.0949H8.08989V11.0488H8.42455ZM11.2999 11.9048H9.98402C9.97492 11.8752 9.96581 11.8092 9.96581 11.7523C9.96581 11.6294 9.98858 11.4905 10.0569 11.297L10.6784 9.59863H11.2817L10.6078 11.4359H11.2999V10.7233H11.926V11.4359H12.2766V11.9048H11.926V12.5924H11.2999V11.9048Z" fill="#86888C"/>
</svg>
