<svg width="24" height="24" viewBox="0 0 24 24" fill="none" xmlns="http://www.w3.org/2000/svg">
<path fill-rule="evenodd" clip-rule="evenodd" d="M14.1662 3.69607V5.48321C14.1662 6.1605 14.3768 6.71827 14.7894 7.12237C15.202 7.52647 15.7854 7.7399 16.4826 7.7399H18.2783L14.1662 3.69607ZM19.9516 7.84804C19.9829 7.92203 20 8.00455 20 8.09562V20.5999C20 21.3569 19.3597 22 18.5914 22H6.40865C5.66306 22 5 21.3483 5 20.5999L5.04269 17.2476L5 9.14286V3.40011C5 2.66591 5.6716 2 6.40865 2H13.8247C14.0609 2 14.2857 2.09106 14.4479 2.25612L19.741 7.46101C19.8463 7.56915 19.9118 7.70006 19.9516 7.84804ZM13.2755 15.3438C13.2755 14.8173 12.8714 14.3961 12.3449 14.3961C11.8184 14.3961 11.4143 14.8145 11.4143 15.3438V15.3608C11.4143 15.8873 11.8184 16.2999 12.3534 16.2999C12.8714 16.2999 13.2755 15.8873 13.2755 15.3438ZM16.4314 15.3438C16.4314 14.8173 16.0273 14.3961 15.5009 14.3961C14.9744 14.3961 14.5703 14.8145 14.5703 15.3438V15.3608C14.5703 15.8873 14.9744 16.2999 15.5094 16.2999C16.0273 16.2999 16.4314 15.8873 16.4314 15.3438ZM10.1167 15.3438C10.1167 14.8173 9.71258 14.3961 9.17758 14.3961C8.65965 14.3961 8.25555 14.8145 8.25555 15.3438V15.3608C8.25555 15.8873 8.65965 16.2999 9.18611 16.2999C9.71258 16.2999 10.1167 15.8873 10.1167 15.3438Z" fill="#86888C"/>
</svg>
