<svg width="40" height="40" viewBox="0 0 40 40" fill="none" xmlns="http://www.w3.org/2000/svg">
<path fill-rule="evenodd" clip-rule="evenodd" d="M16.8005 32.9193H4.13067V14.811H10.5277V16.8225C10.5277 18.0294 10.9399 19.0823 11.7196 19.8521C12.4895 20.622 13.5225 21.0193 14.7344 21.0193H16.7955V32.9193H16.8005ZM12.6633 14.9004L16.721 18.834H14.7344C14.2774 18.834 13.6666 18.7496 13.1997 18.2926C12.8421 17.9301 12.6583 17.4334 12.6583 16.8225V14.9004H12.6633ZM31.6457 26.4081C33.3244 26.4081 34.6306 25.9263 35.5146 24.9826C36.3838 24.0787 36.8109 22.7824 36.8109 21.1186V11.3443C36.8109 9.6855 36.3838 8.40411 35.5146 7.50019C34.6356 6.56647 33.3244 6.09961 31.6457 6.09961L11.3422 6.11451C9.66347 6.11451 8.35725 6.58137 7.4732 7.51013C6.62391 8.39915 6.17691 9.69543 6.17691 11.3543V12.6208H3.91711C2.89399 12.6208 2 13.5247 2 14.5726V33.1626C2 34.2106 2.87909 35.0996 3.91711 35.0996H17.014C18.0521 35.0996 18.9312 34.2106 18.9312 33.1626V29.9989H35.7381C36.3341 29.9989 36.806 29.5171 36.806 28.9063C36.806 28.3103 36.3391 27.8136 35.7381 27.8136H18.9312V26.413L31.6457 26.4081Z" fill="#86888C"/>
</svg>
