<svg width="20" height="20" viewBox="0 0 20 20" fill="none" xmlns="http://www.w3.org/2000/svg">
<path fill-rule="evenodd" clip-rule="evenodd" d="M2.98577 12.6698C2.98577 13.2117 3.42516 13.6533 3.96699 13.6533H12.4952C13.037 13.6533 13.4764 13.2117 13.4764 12.6698V9.3437C13.4764 8.80187 13.037 8.36021 12.4952 8.36021H3.96699C3.42516 8.36021 2.98577 8.79959 2.98577 9.3437V12.6698ZM16.5999 6.61177L13.2533 3.37444V4.8087C13.2533 5.3437 13.4286 5.79447 13.761 6.11547C14.0979 6.44103 14.5714 6.61177 15.1338 6.61177H16.5999ZM17.9613 6.69828C17.9863 6.75748 18 6.8235 18 6.8918V16.8929C18 17.5031 17.4764 18.0176 16.8549 18.0176H6.95618C6.34604 18.0176 5.81104 17.4917 5.81104 16.8929L5.83836 14.6414H3.96699C2.88105 14.6391 2 13.7558 2 12.6698V9.3437C2 8.25548 2.88105 7.37444 3.96699 7.37216H5.80877V3.14222C5.80877 2.55258 6.35515 2.01758 6.9539 2.01758H12.9801C13.1668 2.01758 13.3421 2.08815 13.4764 2.21564L17.7837 6.38639C17.8748 6.4729 17.9271 6.58218 17.9613 6.69828Z" fill="#86888C"/>
<path d="M3.47754 9.78076H4.05124V10.8052H4.93684V9.78076H5.51055V12.2964H4.93684V11.2378H4.05124V12.2964H3.47754V9.78076ZM6.6147 10.1951H5.8361V9.78076H7.99433L7.95107 10.1951H7.19069V12.2941H6.61698V10.1951H6.6147ZM8.29256 9.78076H8.74561L9.54015 11.1854L10.3597 9.78076H10.8014V12.2964H10.2755V10.8485L9.75415 11.7227H9.31249L8.77521 10.8326V12.2964H8.29256V9.78076ZM11.3455 9.78076H11.9192V11.8798H13.0325V12.2964H11.3455V9.78076Z" fill="#86888C"/>
</svg>
