<svg width="40" height="40" viewBox="0 0 40 40" fill="none" xmlns="http://www.w3.org/2000/svg">
<path fill-rule="evenodd" clip-rule="evenodd" d="M23.4991 5.05293V8.26978C23.4991 9.4889 23.8782 10.4929 24.6209 11.2203C25.3637 11.9476 26.4138 12.3318 27.6688 12.3318H30.901L23.4991 5.05293ZM33.9129 12.5265C33.9693 12.6596 34 12.8082 34 12.9721V35.4798C34 36.8423 32.8475 38 31.4644 38H9.53557C8.19351 38 7 36.827 7 35.4798L7.07684 29.4456L7 14.8571V4.52021C7 3.19863 8.20888 2 9.53557 2H22.8845C23.3096 2 23.7143 2.16392 24.0063 2.46101L33.5339 11.8298C33.7234 12.0245 33.8412 12.2601 33.9129 12.5265ZM21.8958 26.0188C21.8958 25.0711 21.1685 24.313 20.2208 24.313C19.2732 24.313 18.5458 25.066 18.5458 26.0188V26.0495C18.5458 26.9972 19.2732 27.7399 20.2362 27.7399C21.1685 27.7399 21.8958 26.9972 21.8958 26.0188ZM27.5766 26.0188C27.5766 25.0711 26.8492 24.313 25.9015 24.313C24.9539 24.313 24.2265 25.066 24.2265 26.0188V26.0495C24.2265 26.9972 24.9539 27.7399 25.9169 27.7399C26.8492 27.7399 27.5766 26.9972 27.5766 26.0188ZM16.21 26.0188C16.21 25.0711 15.4826 24.313 14.5196 24.313C13.5874 24.313 12.86 25.066 12.86 26.0188V26.0495C12.86 26.9972 13.5874 27.7399 14.535 27.7399C15.4826 27.7399 16.21 26.9972 16.21 26.0188Z" fill="#86888C"/>
</svg>
