<svg width="20" height="20" viewBox="0 0 20 20" fill="none" xmlns="http://www.w3.org/2000/svg">
<path fill-rule="evenodd" clip-rule="evenodd" d="M2.98791 12.7546C2.98791 13.2963 3.42723 13.7357 3.96899 13.7357H11.9701C12.5119 13.7357 12.9512 13.2941 12.9512 12.7546V9.42664C12.9512 8.88489 12.5119 8.44329 11.9701 8.44329H3.96899C3.42723 8.44329 2.98791 8.88489 2.98791 9.42664V12.7546ZM16.5978 6.69738L13.2539 3.45823V4.89229C13.2539 5.42494 13.4292 5.87792 13.7593 6.19887C14.0962 6.52438 14.5696 6.6951 15.1342 6.6951H16.5978V6.69738ZM17.9613 6.78388C17.9863 6.84306 18 6.90907 18 6.97736V16.9771C18 17.5871 17.4765 18.1016 16.855 18.1016H6.95547C6.3477 18.1016 5.8105 17.5757 5.8105 16.9771L5.83782 14.7236H3.96671C2.8832 14.7236 2 13.8404 2 12.7546V9.42664C2 8.34086 2.8832 7.45538 3.96671 7.45538H5.80822V3.22605C5.80822 2.63649 6.35226 2.10156 6.95319 2.10156H12.9785C13.1674 2.10156 13.345 2.17213 13.477 2.30415L17.7815 6.46975C17.8748 6.55853 17.9272 6.66779 17.9613 6.78388Z" fill="#86888C"/>
<path d="M4 9.65847H5.0266C5.49324 9.65847 5.79144 9.72448 5.98264 9.90203C6.14426 10.05 6.22393 10.2822 6.22393 10.6009C6.22393 10.9195 6.14881 11.1608 6.00085 11.327C5.82558 11.5227 5.5547 11.6161 5.16318 11.6161H4.68289V12.6472H4V9.65847ZM5.0175 11.1039C5.23602 11.1039 5.32707 11.0743 5.41585 10.9901C5.49552 10.9104 5.53422 10.7852 5.53422 10.61C5.53422 10.4483 5.50007 10.33 5.4204 10.2571C5.33846 10.182 5.21098 10.1524 5.00156 10.1524H4.68289V11.1039H5.0175ZM6.70423 9.65847H7.20728L8.62313 11.5705V9.65847H9.2218V12.645H8.67549L7.30289 10.833V12.645H6.70423V9.65847ZM9.74079 11.1699C9.74079 10.2344 10.2347 9.60156 11.2522 9.60156C11.5482 9.60156 11.9033 9.66302 12.0945 9.74497L12.008 10.2435C11.794 10.182 11.5368 10.1342 11.3 10.1342C10.6968 10.1342 10.4487 10.4916 10.4487 11.1426C10.4487 11.4795 10.492 11.7549 10.624 11.937C10.7332 12.0895 10.9131 12.1783 11.1999 12.1783C11.3091 12.1783 11.4571 12.1647 11.5618 12.1487V11.5205H11.143V11.0311H12.2401V12.5562C11.9556 12.6427 11.5026 12.7087 11.1748 12.7087C10.1027 12.7064 9.74079 12.1169 9.74079 11.1699Z" fill="#86888C"/>
</svg>
