<svg width="20" height="20" viewBox="0 0 20 20" fill="none" xmlns="http://www.w3.org/2000/svg">
<path fill-rule="evenodd" clip-rule="evenodd" d="M11.333 3.35686V4.78657C11.333 5.3284 11.5014 5.77462 11.8315 6.09789C12.1616 6.42117 12.6283 6.59192 13.1861 6.59192H14.6227L11.333 3.35686ZM15.9613 6.67843C15.9863 6.73762 16 6.80364 16 6.87649V16.8799C16 17.4855 15.4878 18 14.8731 18H5.12692C4.53045 18 4 17.4787 4 16.8799L4.03415 14.1981L4 7.71429V3.12009C4 2.53273 4.53728 2 5.12692 2H11.0598C11.2487 2 11.4286 2.07285 11.5583 2.20489L15.7928 6.36881C15.8771 6.45532 15.9294 6.56005 15.9613 6.67843ZM10.6204 12.675C10.6204 12.2538 10.2971 11.9169 9.87592 11.9169C9.45475 11.9169 9.13147 12.2516 9.13147 12.675V12.6887C9.13147 13.1098 9.45475 13.44 9.88276 13.44C10.2971 13.44 10.6204 13.1098 10.6204 12.675ZM13.1451 12.675C13.1451 12.2538 12.8219 11.9169 12.4007 11.9169C11.9795 11.9169 11.6562 12.2516 11.6562 12.675V12.6887C11.6562 13.1098 11.9795 13.44 12.4075 13.44C12.8219 13.44 13.1451 13.1098 13.1451 12.675ZM8.09334 12.675C8.09334 12.2538 7.77006 11.9169 7.34206 11.9169C6.92772 11.9169 6.60444 12.2516 6.60444 12.675V12.6887C6.60444 13.1098 6.92772 13.44 7.34889 13.44C7.77006 13.44 8.09334 13.1098 8.09334 12.675Z" fill="#86888C"/>
</svg>
