<svg width="20" height="20" viewBox="0 0 20 20" fill="none" xmlns="http://www.w3.org/2000/svg">
<path fill-rule="evenodd" clip-rule="evenodd" d="M2.98791 12.653C2.98791 13.1948 3.42723 13.6364 3.96899 13.6364H11.9701C12.5119 13.6364 12.9512 13.1948 12.9512 12.653V9.32736C12.9512 8.7856 12.5119 8.344 11.9701 8.344H3.96899C3.42723 8.344 2.98791 8.7856 2.98791 9.32736V12.653ZM16.5978 6.59582L13.2539 3.35667V4.79072C13.2539 5.32337 13.4292 5.77636 13.7593 6.09731C14.0962 6.42282 14.5696 6.59354 15.1342 6.59354H16.5978V6.59582ZM17.9613 6.68232C17.9863 6.7415 18 6.80751 18 6.8758V16.8755C18 17.4856 17.4765 18 16.855 18H6.95547C6.3477 18 5.8105 17.4742 5.8105 16.8755L5.83782 14.622H3.96671C2.8832 14.622 2 13.7365 2 12.6507V9.32508C2 8.2393 2.8832 7.35382 3.96671 7.35382H5.80822V3.12448C5.80822 2.53493 6.35226 2 6.95319 2H12.9785C13.1674 2 13.345 2.07056 13.477 2.20259L17.7815 6.36819C17.8748 6.45696 17.9272 6.56623 17.9613 6.68232Z" fill="#86888C"/>
<path d="M4.00537 9.56396H5.05701C5.53731 9.56396 5.84006 9.62998 6.03809 9.81436C6.20426 9.96687 6.28393 10.2036 6.28393 10.5314C6.28393 10.8592 6.20881 11.105 6.0563 11.2757C5.87648 11.4783 5.59877 11.5716 5.19587 11.5716H4.70419V12.6278H4.00537V9.56396ZM5.04791 11.0458C5.27099 11.0458 5.36659 11.014 5.45536 10.9297C5.53503 10.8501 5.57601 10.7203 5.57601 10.5405C5.57601 10.3743 5.53959 10.2537 5.45992 10.1786C5.37569 10.1034 5.24595 10.0716 5.0297 10.0716H4.70191V11.0481H5.04791V11.0458ZM6.78016 9.56396H7.8318C8.3121 9.56396 8.61485 9.62998 8.81288 9.81436C8.97905 9.96687 9.05872 10.2036 9.05872 10.5314C9.05872 10.8592 8.9836 11.105 8.83109 11.2757C8.65127 11.4783 8.37356 11.5716 7.97066 11.5716H7.47898V12.6278H6.78016V9.56396ZM7.8227 11.0458C8.04578 11.0458 8.14138 11.014 8.23015 10.9297C8.30982 10.8501 8.3508 10.7203 8.3508 10.5405C8.3508 10.3743 8.31438 10.2537 8.23471 10.1786C8.15048 10.1034 8.02074 10.0716 7.80449 10.0716H7.4767V11.0481H7.8227V11.0458ZM10.2333 10.0693H9.28407V9.56396H11.9132L11.8586 10.0693H10.9321V12.6278H10.2333V10.0693Z" fill="#86888C"/>
</svg>
