<svg width="24" height="24" viewBox="0 0 24 24" fill="none" xmlns="http://www.w3.org/2000/svg">
<path fill-rule="evenodd" clip-rule="evenodd" d="M3.23221 15.4169C3.23221 16.0942 3.78145 16.6462 4.45874 16.6462H14.4616C15.1389 16.6462 15.6881 16.0942 15.6881 15.4169V11.2564C15.6881 10.5791 15.1389 10.027 14.4616 10.027H4.45874C3.78145 10.027 3.23221 10.5762 3.23221 11.2564V15.4169ZM20.247 7.84431L16.0666 3.79764V5.59046C16.0666 6.25922 16.2857 6.82268 16.7012 7.22393C17.1224 7.63087 17.7143 7.84431 18.4172 7.84431H20.247ZM21.9516 7.95245C21.9829 8.02643 22 8.10896 22 8.19433V20.6958C22 21.4584 21.3455 22.1016 20.5686 22.1016H8.19237C7.42971 22.1016 6.76096 21.4442 6.76096 20.6958L6.79511 17.8785H4.46158C3.10131 17.8756 2.00285 16.7743 2 15.4169V11.2592C2 9.89894 3.10131 8.79764 4.45874 8.79479H6.76096V3.50737C6.76096 2.77032 7.44394 2.10156 8.19237 2.10156H15.7251C15.9613 2.10156 16.1804 2.18978 16.3483 2.35199L21.7297 7.55973C21.8435 7.66787 21.9089 7.80731 21.9516 7.95245Z" fill="#86888C"/>
<path d="M4.2168 11.4755H4.8884L6.06939 13.5643L7.29022 11.4755H7.94759V15.2148H7.165V13.0606L6.38811 14.3611H5.73074L4.93108 13.0378V15.2148H4.2168V11.4755ZM8.75863 11.4755H10.0449C10.6311 11.4755 11.0011 11.558 11.243 11.7828C11.445 11.9678 11.5446 12.2581 11.5446 12.6565C11.5446 13.0549 11.4507 13.3565 11.2657 13.5643C11.0466 13.809 10.708 13.9257 10.2157 13.9257H9.6152V15.2148H8.76148V11.4755H8.75863ZM10.0307 13.2854C10.3039 13.2854 10.4177 13.2484 10.5287 13.1431C10.6283 13.0435 10.6767 12.887 10.6767 12.6679C10.6767 12.4658 10.634 12.3178 10.5344 12.2239C10.4319 12.13 10.2726 12.093 10.0108 12.093H9.61236V13.2854H10.0307ZM13.6249 14.3554H11.98C11.9686 14.3184 11.9573 14.2359 11.9573 14.1647C11.9573 14.0111 11.9857 13.8375 12.0711 13.5956L12.848 11.4727H13.6021L12.7598 13.7692H13.6249V12.8785H14.4075V13.7692H14.8457V14.3554H14.4075V15.2148H13.6249V14.3554Z" fill="#86888C"/>
</svg>
