<svg width="20" height="20" viewBox="0 0 20 20" fill="none" xmlns="http://www.w3.org/2000/svg">
<path fill-rule="evenodd" clip-rule="evenodd" d="M2.98563 12.8561C2.98563 13.3979 3.42495 13.8395 3.96671 13.8395H12.2387C12.7805 13.8395 13.2198 13.3979 13.2198 12.8561V9.52821C13.2198 8.98645 12.7805 8.54485 12.2387 8.54485H3.96671C3.42495 8.54485 2.98563 8.98645 2.98563 9.52821V12.8561ZM16.5978 6.79894L13.2539 3.55979V4.99385C13.2539 5.52878 13.4292 5.97948 13.7593 6.30044C14.0962 6.62595 14.5696 6.79667 15.1342 6.79667H16.5978V6.79894ZM17.959 6.88544C17.9841 6.94462 17.9977 7.01064 17.9977 7.07893V17.0786C17.9977 17.6887 17.4742 18.2031 16.8528 18.2031H6.95319C6.34315 18.2031 5.80822 17.6773 5.80822 17.0786L5.83554 14.8274H3.96671C2.8832 14.8274 2 13.9419 2 12.8561V9.52821C2 8.44242 2.8832 7.55695 3.96671 7.55695H5.80822V3.32761C5.80822 2.73805 6.35453 2.20312 6.95319 2.20312H12.9785C13.1652 2.20312 13.3404 2.27369 13.4747 2.40116L17.7815 6.57131C17.8725 6.66009 17.9249 6.76935 17.959 6.88544Z" fill="#86888C"/>
<path d="M3.48193 9.89014H5.26882L5.22329 10.3272H4.08515V10.9691H4.99566V11.4221H4.08515V12.0981H5.2893V12.5352H3.48193V9.89014ZM5.73773 9.89014H6.18161L7.43584 11.586V9.89014H7.96621V12.5375H7.48137L6.26583 10.9304V12.5375H5.73546V9.89014H5.73773ZM8.54211 9.89014H10.329L10.2835 10.3272H9.14533V10.9691H10.0558V11.4221H9.14533V12.0981H10.3495V12.5352H8.54211V9.89014ZM11.4444 11.2172L10.6363 9.89014H11.2668L11.7926 10.7642L12.2729 9.89014H12.9149L12.0476 11.1853L12.8921 12.5352H12.2229L11.697 11.6383L11.2213 12.5352H10.568L11.4444 11.2172Z" fill="#86888C"/>
</svg>
