<svg width="28" height="28" viewBox="0 0 28 28" fill="none" xmlns="http://www.w3.org/2000/svg">
<path fill-rule="evenodd" clip-rule="evenodd" d="M3.48186 18.0811C3.48186 18.8937 4.14085 19.5527 4.95348 19.5527H16.9552C17.7678 19.5527 18.4268 18.8903 18.4268 18.0811V13.0892C18.4268 12.2766 17.7678 11.6142 16.9552 11.6142H4.95348C4.14085 11.6142 3.48186 12.2766 3.48186 13.0892V18.0811ZM23.8967 8.99529L18.8809 4.13656V6.28765C18.8809 7.08662 19.1438 7.7661 19.6389 8.24753C20.1443 8.73579 20.8545 8.99187 21.7012 8.99187H23.8967V8.99529ZM25.942 9.12504C25.9795 9.21381 26 9.31283 26 9.41526V24.4148C26 25.3299 25.2147 26.1016 24.2825 26.1016H9.43321C8.52155 26.1016 7.71575 25.3128 7.71575 24.4148L7.75672 21.0346H4.95006C3.3248 21.0346 2 19.7098 2 18.0811V13.0892C2 11.4605 3.3248 10.1323 4.95006 10.1323H7.71233V3.78829C7.71233 2.90395 8.52838 2.10156 9.42979 2.10156H18.4678C18.7512 2.10156 19.0175 2.20741 19.2155 2.40545L25.6722 8.65385C25.8122 8.78701 25.8907 8.9509 25.942 9.12504Z" fill="#86888C"/>
<path d="M5 13.4369H6.53991C7.23986 13.4369 7.68715 13.5359 7.97397 13.8023C8.21639 14.0242 8.33589 14.3725 8.33589 14.8505C8.33589 15.3285 8.22322 15.6904 8.00128 15.9397C7.73837 16.2333 7.33205 16.3733 6.74477 16.3733H6.02433V17.9201H5V13.4369ZM6.52625 15.6051C6.85403 15.6051 6.99061 15.5607 7.12377 15.4344C7.24328 15.3149 7.30132 15.1271 7.30132 14.8642C7.30132 14.6217 7.25011 14.4442 7.1306 14.3349C7.00768 14.2222 6.81647 14.1779 6.50235 14.1779H6.02433V15.6051H6.52625ZM9.05634 13.4369H9.81093L11.9347 16.305V13.4369H12.8327V17.9166H12.0132L9.95433 15.1988V17.9166H9.05634V13.4369ZM13.6112 15.7041C13.6112 14.3008 14.3521 13.3516 15.8784 13.3516C16.3222 13.3516 16.8549 13.4438 17.1417 13.5667L17.012 14.3144C16.691 14.2222 16.3052 14.1505 15.9501 14.1505C15.0452 14.1505 14.6731 14.6866 14.6731 15.6631C14.6731 16.1685 14.7379 16.5816 14.936 16.8548C15.0999 17.0835 15.3696 17.2167 15.7998 17.2167C15.9637 17.2167 16.1857 17.1962 16.3427 17.1723V16.2299H15.7145V15.4958H17.3602V17.7835C16.9334 17.9132 16.254 18.0123 15.7623 18.0123C14.1541 18.0088 13.6112 17.1245 13.6112 15.7041Z" fill="#86888C"/>
</svg>
