<svg width="28" height="28" viewBox="0 0 28 28" fill="none" xmlns="http://www.w3.org/2000/svg">
<path fill-rule="evenodd" clip-rule="evenodd" d="M3.47866 18.1815C3.47866 18.9942 4.13773 19.6567 4.95048 19.6567H16.9539C17.7666 19.6567 18.4257 18.9942 18.4257 18.1815V13.1889C18.4257 12.3761 17.7666 11.7137 16.9573 11.7137H4.95048C4.13773 11.7137 3.47866 12.3727 3.47866 13.1889V18.1815ZM23.8998 9.09442L18.8799 4.23841V6.38981C18.8799 7.19231 19.1429 7.86846 19.6414 8.34997C20.1468 8.8383 20.8571 9.09442 21.7006 9.09442H23.8998ZM25.9419 9.22418C25.9795 9.31297 26 9.412 26 9.51445V24.5162C26 25.4314 25.2146 26.2031 24.2823 26.2031H9.43426C8.51907 26.2031 7.71656 25.4143 7.71656 24.5162L7.75754 21.1354H4.9539C3.32157 21.132 2.00341 19.8104 2 18.1815V13.1923C2 11.5634 3.32157 10.2418 4.95048 10.235H7.71315V3.89009C7.71315 3.00563 8.53273 2.20312 9.43085 2.20312H18.4701C18.7501 2.20312 19.0131 2.30899 19.2146 2.50022L25.6756 8.75634C25.8088 8.88269 25.8873 9.05002 25.9419 9.22418Z" fill="#86888C"/>
<path d="M4.55072 17.7342L4.48584 17.0443C4.66683 17.0785 4.86831 17.0922 4.95368 17.0922C5.33615 17.0922 5.45567 16.9897 5.45567 16.5492V13.749H6.35721V16.5697C6.35721 17.0614 6.27525 17.3278 6.07377 17.5293C5.89278 17.7034 5.60593 17.7854 5.15858 17.7854C4.96393 17.7854 4.83416 17.7717 4.55072 17.7342ZM7.19728 13.749H8.55641C9.17451 13.749 9.56723 13.8343 9.82335 14.0734C10.0385 14.2714 10.1409 14.5754 10.1409 14.9988C10.1409 15.4223 10.0419 15.7398 9.84725 15.9584C9.61504 16.2179 9.25647 16.3409 8.7374 16.3409H8.10223V17.7068H7.20069V13.749H7.19728ZM8.54276 15.6613C8.83302 15.6613 8.95254 15.6203 9.06865 15.5111C9.1711 15.4086 9.22574 15.2379 9.22574 15.0091C9.22574 14.7939 9.17793 14.6402 9.07548 14.5412C8.9662 14.4422 8.79887 14.4012 8.51885 14.4012H8.0954V15.6613H8.54276ZM10.7761 13.749H13.4466L13.3783 14.4012H11.6776V15.3608H13.0368V16.0369H11.6776V17.0478H13.4773V17.7H10.7761V13.749ZM13.9827 15.7501C13.9827 14.5139 14.635 13.6738 15.9838 13.6738C16.3766 13.6738 16.8444 13.7558 17.1005 13.8651L16.9844 14.5241C16.701 14.4422 16.3595 14.3807 16.0487 14.3807C15.2496 14.3807 14.9218 14.8554 14.9218 15.7159C14.9218 16.1599 14.9799 16.5253 15.154 16.7677C15.2975 16.9692 15.5365 17.0853 15.919 17.0853C16.0624 17.0853 16.2605 17.0683 16.4005 17.0443V16.2111H15.8438V15.5623H17.2952V17.5805C16.9195 17.6966 16.3185 17.782 15.8848 17.782C14.4642 17.7854 13.9827 17.0034 13.9827 15.7501Z" fill="#86888C"/>
</svg>
