<svg width="40" height="40" viewBox="0 0 40 40" fill="none" xmlns="http://www.w3.org/2000/svg">
<path fill-rule="evenodd" clip-rule="evenodd" d="M30.8922 12.0363L23.4859 4.74798V7.97638C23.4859 9.17741 23.8708 10.1937 24.6099 10.9174C25.3542 11.6462 26.4063 12.0363 27.6536 12.0363H30.8922ZM33.9102 12.2313C33.9666 12.3647 33.9974 12.5136 33.9974 12.6676V35.1688C33.9974 36.5393 32.8375 37.6992 31.4619 37.6992H9.5355C8.18563 37.6992 7 36.5187 7 35.1688V4.22959C7 2.90538 8.20616 1.69922 9.5355 1.69922H22.8802C23.296 1.69922 23.6912 1.85833 23.9837 2.15089L33.5201 11.5281C33.7151 11.718 33.8332 11.9695 33.9102 12.2313ZM28.213 15.8292H12.7844C11.7682 15.8292 10.911 16.6145 10.911 17.5384V31.8583C10.911 32.7822 11.7682 33.5726 12.7793 33.5726H28.2079C29.2036 33.5726 30.0761 32.7719 30.0761 31.8583V17.5384C30.0864 16.6299 29.2087 15.8292 28.213 15.8292ZM16.1309 23.8925C15.2635 23.8925 14.5603 23.1791 14.5603 22.2963C14.5603 21.4135 15.2635 20.7001 16.1309 20.7001C16.9983 20.7001 17.7015 21.4135 17.7015 22.2963C17.6963 23.1791 16.9932 23.8925 16.1309 23.8925ZM14.7451 30.221C14.4731 30.221 14.2062 30.103 14.0163 29.872C13.6826 29.4614 13.7391 28.8558 14.1394 28.5119L18.6048 24.7292C18.9743 24.4212 19.5133 24.4366 19.8623 24.7651L20.355 25.2373L23.2087 22.9276C23.5475 22.6556 24.0299 22.6453 24.3687 22.9174L27.1146 25.0576C27.5304 25.381 27.6074 25.9866 27.2943 26.4075C26.976 26.8335 26.3755 26.9105 25.9649 26.5872L23.8041 24.9037L21.7408 26.5718L23.0496 27.8292C23.4294 28.1937 23.45 28.8044 23.0907 29.1894C22.7314 29.5743 22.1309 29.5949 21.7511 29.2304L19.1694 26.7565L15.3456 29.9952C15.1762 30.144 14.9607 30.221 14.7451 30.221Z" fill="#86888C"/>
</svg>
