<svg width="24" height="24" viewBox="0 0 24 24" fill="none" xmlns="http://www.w3.org/2000/svg">
<path fill-rule="evenodd" clip-rule="evenodd" d="M13.1605 3.69607V5.4889C13.1605 6.15766 13.3768 6.72112 13.7837 7.12237C14.1964 7.52647 14.7797 7.74274 15.4741 7.74274H17.2755L13.1605 3.69607ZM18.9516 7.85088C18.9829 7.92487 19 8.0074 19 8.09277V20.5942C19 21.3569 18.354 22 17.5914 22H5.40865C4.65737 22 4 21.3426 4 20.5942V3.40581C4 2.66875 4.6716 2 5.40865 2H12.8247C13.0552 2 13.2743 2.08822 13.4394 2.25327L18.7353 7.46101C18.8463 7.56915 18.9118 7.70859 18.9516 7.85088ZM14.3699 12.4838L10.568 11.4365V10.8162L14.3699 11.8634V12.4838ZM13.5845 18.6705H13.4792C12.9585 18.6619 12.6966 18.3745 12.6966 17.8139C12.6966 17.6061 12.6966 16.9744 13.465 16.9659H13.5788C14.1053 16.9801 14.3699 17.2675 14.3699 17.8196C14.3699 18.3745 14.1053 18.6591 13.5845 18.6705ZM8.74104 16.6301H8.62436C8.10643 16.6215 7.84178 16.3341 7.84178 15.7735C7.84178 15.5657 7.84178 14.934 8.61013 14.9283H8.72112C9.24758 14.9397 9.51508 15.2299 9.51508 15.7849C9.51508 16.3341 9.25043 16.6187 8.74104 16.6301ZM14.7826 10.8674L10.3859 9.65509L10.2493 9.63517C9.84519 9.63517 9.51793 9.96813 9.51793 10.3808V14.029C9.2675 13.9209 9.00285 13.864 8.74957 13.8583H8.60444C7.76779 13.8668 6.79169 14.3734 6.79169 15.7763C6.79169 17.1793 7.77063 17.6915 8.61013 17.7029H8.75526C9.56061 17.6858 10.4883 17.202 10.5595 15.93L10.5737 12.5464L14.3756 13.5965V16.0723C14.1252 15.9641 13.8606 15.9072 13.6073 15.9015L13.4622 15.8987C12.6255 15.9072 11.6494 16.4138 11.6494 17.8167C11.6494 19.2197 12.6312 19.7319 13.4678 19.7433H13.613C14.4525 19.7262 15.4314 19.2168 15.4314 17.8253V11.613C15.4229 11.226 15.1412 10.9129 14.7826 10.8674Z" fill="#86888C"/>
</svg>
