<svg width="40" height="40" viewBox="0 0 40 40" fill="none" xmlns="http://www.w3.org/2000/svg">
<path fill-rule="evenodd" clip-rule="evenodd" d="M4.22279 25.9693C4.22279 27.1882 5.21127 28.1818 6.43022 28.1818H24.4328C25.6517 28.1818 26.6402 27.1882 26.6402 25.9693V18.4866C26.6402 17.2676 25.6517 16.274 24.4328 16.274H6.43022C5.21127 16.274 4.22279 17.2676 4.22279 18.4866V25.9693ZM34.8451 12.3406L27.3214 5.0525V8.27913C27.3214 9.47759 27.7157 10.4968 28.4584 11.219C29.2164 11.9513 30.2817 12.3355 31.5519 12.3355H34.8451V12.3406ZM37.9129 12.5352C37.9693 12.6684 38 12.8169 38 12.9706V35.4699C38 36.8425 36.822 38 35.4238 38H13.1498C11.7823 38 10.5736 36.8169 10.5736 35.4699L10.6351 30.3995H6.4251C3.9872 30.3995 2 28.4072 2 25.9641V18.4814C2 16.0384 3.9872 14.0461 6.4251 14.0461H10.5685V4.53009C10.5685 3.20359 11.7926 2 13.1447 2H26.7017C27.1268 2 27.5263 2.15877 27.8233 2.45583L37.5083 11.8284C37.7183 12.0282 37.8361 12.274 37.9129 12.5352Z" fill="#86888C"/>
<path d="M6.51221 19.0195H8.8784C9.95907 19.0195 10.6402 19.1681 11.0858 19.5829C11.4597 19.9261 11.639 20.4587 11.639 21.1962C11.639 21.9337 11.47 22.4869 11.1268 22.871C10.7222 23.3268 10.0974 23.5368 9.19082 23.5368H8.08455V25.9133H6.51221V19.0195ZM8.85792 22.3537C9.35984 22.3537 9.57495 22.282 9.77469 22.0925C9.95395 21.9133 10.0461 21.6213 10.0461 21.2167C10.0461 20.8428 9.96419 20.5714 9.78493 20.4024C9.59543 20.2334 9.3035 20.1617 8.81694 20.1617H8.07943V22.3588H8.85792V22.3537ZM12.7555 19.0195H15.1217C16.2023 19.0195 16.8835 19.1681 17.3291 19.5829C17.703 19.9261 17.8822 20.4587 17.8822 21.1962C17.8822 21.9337 17.7132 22.4869 17.3701 22.871C16.9655 23.3268 16.3406 23.5368 15.4341 23.5368H14.3278V25.9133H12.7555V19.0195ZM15.1012 22.3537C15.6031 22.3537 15.8182 22.282 16.018 22.0925C16.1972 21.9133 16.2894 21.6213 16.2894 21.2167C16.2894 20.8428 16.2075 20.5714 16.0282 20.4024C15.8387 20.2334 15.5468 20.1617 15.0602 20.1617H14.3227V22.3588H15.1012V22.3537ZM20.525 20.1565H18.3893V19.0195H24.3048L24.1819 20.1565H22.0974V25.9133H20.525V20.1565Z" fill="#86888C"/>
</svg>
