<svg width="20" height="20" viewBox="0 0 20 20" fill="none" xmlns="http://www.w3.org/2000/svg">
<path fill-rule="evenodd" clip-rule="evenodd" d="M14.6227 6.59419L11.3284 3.35686V4.79112C11.3284 5.32612 11.5014 5.77689 11.827 6.09789C12.1571 6.42117 12.6238 6.59419 13.1793 6.59419H14.6227ZM15.9659 6.68071C15.9909 6.7399 16.0023 6.80592 16.0023 6.87422V16.8754C16.0023 17.4855 15.4855 18 14.8754 18H5.12692C4.52817 18 4 17.4741 4 16.8754V3.12464C4 2.535 4.53728 2 5.12692 2H11.0598C11.2464 2 11.4195 2.07057 11.5515 2.20262L15.7883 6.36881C15.8816 6.4576 15.9317 6.56688 15.9659 6.68071ZM12.2686 10.7126L12.5441 9.91121L12.9493 10.7126H12.2686ZM12 11.5026H12.8241L11.2464 13.7086L12 11.5026ZM8.04098 11.5026L8.80592 13.7427L7.18725 11.5026H8.04098ZM8.45304 10.3051L8.11155 9.30563H9.23392L8.45304 10.3051ZM11.5857 10.3073L10.7911 9.30563H11.9294L11.5857 10.3073ZM9.12692 10.7126L10.0125 9.58338L10.9072 10.7126H9.12692ZM11.1759 11.5026L10.0171 14.8879L8.86056 11.5026H11.1759ZM7.49232 9.89528L7.77234 10.7126H7.06887L7.49232 9.89528ZM13.9351 10.938C13.9328 10.9334 13.9351 10.9311 13.9328 10.9266L12.8241 8.73876L12.8219 8.72965C12.8196 8.7251 12.815 8.72282 12.8127 8.72055C12.7854 8.66819 12.7445 8.62721 12.6966 8.59306C12.6807 8.58395 12.667 8.57484 12.6511 8.56574C12.6352 8.55891 12.6215 8.54525 12.6056 8.53842C12.5714 8.52704 12.535 8.52704 12.5009 8.52248C12.4917 8.52248 12.4849 8.51565 12.4758 8.51565H7.56744C7.55834 8.51565 7.55151 8.52248 7.5424 8.52248C7.50825 8.52476 7.4741 8.52476 7.43995 8.53614C7.42402 8.54297 7.41036 8.55435 7.3967 8.56346C7.37849 8.57257 7.36483 8.58167 7.34889 8.59306C7.30563 8.62493 7.26693 8.66363 7.23961 8.70916C7.23506 8.71599 7.22823 8.71827 7.22368 8.7251L6.07854 10.922C6.07627 10.9266 6.07854 10.9311 6.07627 10.9357C6.05122 10.988 6.03529 11.045 6.03529 11.1064C6.03529 11.111 6.03756 11.1178 6.03756 11.1224C6.03756 11.136 6.04439 11.1497 6.04667 11.1633C6.0535 11.218 6.07171 11.2658 6.09903 11.3113C6.10359 11.3204 6.10359 11.3318 6.10814 11.3409L9.70746 16.3244H9.70973C9.74161 16.37 9.78486 16.4018 9.83039 16.4291C9.84178 16.436 9.85316 16.4405 9.86454 16.4451C9.91235 16.4678 9.96471 16.4838 10.0216 16.4838H10.0239C10.0785 16.4838 10.1309 16.4678 10.1787 16.4451C10.1901 16.4382 10.2015 16.4337 10.2129 16.4269C10.2584 16.3995 10.3017 16.3654 10.3335 16.3221C10.3358 16.3221 10.3358 16.3221 10.3358 16.3199L13.9032 11.3364C13.9101 11.3273 13.9078 11.3159 13.9146 11.3068C13.9397 11.2635 13.9579 11.218 13.9647 11.1656C13.967 11.1497 13.9738 11.136 13.9738 11.1201C13.9738 11.1133 13.9784 11.1087 13.9784 11.1019C13.9761 11.0472 13.9579 10.9903 13.9351 10.938Z" fill="#86888C"/>
</svg>
