<svg width="20" height="20" viewBox="0 0 20 20" fill="none" xmlns="http://www.w3.org/2000/svg">
<path fill-rule="evenodd" clip-rule="evenodd" d="M2.98577 12.9569C2.98577 13.4988 3.42516 13.9404 3.96699 13.9404H11.9693C12.5111 13.9404 12.9505 13.4988 12.9505 12.9569V9.63081C12.9505 9.08898 12.5111 8.64732 11.9693 8.64732H3.96699C3.42516 8.64732 2.98577 9.0867 2.98577 9.63081V12.9569ZM16.5976 6.89888L13.2533 3.66155V5.09581C13.2533 5.63081 13.4286 6.08158 13.7587 6.40258C14.0956 6.72586 14.5692 6.89888 15.1315 6.89888H16.5976ZM17.9613 6.98767C17.9863 7.04914 18 7.11288 18 7.17891V17.18C18 17.7902 17.4764 18.3047 16.8549 18.3047H6.95618C6.34604 18.3047 5.81104 17.7788 5.81104 17.18L5.83836 14.9262H3.96927C2.88105 14.9239 2.00228 14.0429 2 12.9569V9.63081C2 8.54259 2.88105 7.66155 3.96699 7.65927H5.80877V3.42933C5.80877 2.83969 6.35515 2.30469 6.9539 2.30469H12.9801C13.169 2.30469 13.3443 2.37526 13.4787 2.50503L17.7837 6.67122C17.8748 6.76001 17.9271 6.87156 17.9613 6.98767Z" fill="#86888C"/>
<path d="M4.61149 12.4697C4.35879 12.1988 4.24951 11.8118 4.24951 11.295C4.24951 10.3639 4.67068 9.73779 5.6906 9.73779C5.94786 9.73779 6.27797 9.79471 6.4692 9.87211L6.38269 10.3684C6.15276 10.3024 5.92965 10.2637 5.74297 10.2637C5.10324 10.2637 4.95526 10.6849 4.95526 11.2768C4.95526 11.6297 5.02128 11.9256 5.16926 12.0895C5.29903 12.2375 5.48799 12.3035 5.82265 12.3035C5.96607 12.3035 6.19601 12.2762 6.37131 12.2421L6.44189 12.7384C6.26431 12.7907 5.93648 12.8294 5.69288 12.8294C5.16471 12.8294 4.8346 12.7042 4.61149 12.4697ZM6.83346 12.6769L6.93819 12.1601C7.2 12.2512 7.54376 12.3081 7.76004 12.3081C8.16072 12.3081 8.34741 12.2034 8.34741 11.9302C8.34741 11.3724 6.82891 11.7776 6.82891 10.6075C6.82891 10.0019 7.30244 9.73779 7.93762 9.73779C8.22447 9.73779 8.53864 9.78105 8.76858 9.86073L8.66385 10.3661C8.42026 10.3001 8.15845 10.2614 7.949 10.2614C7.58247 10.2614 7.46636 10.3912 7.46636 10.5801C7.46636 11.1629 8.98486 10.7623 8.98486 11.9256C8.98486 12.192 8.89379 12.4037 8.73671 12.5517C8.52726 12.7475 8.24496 12.834 7.81923 12.834C7.44132 12.8294 7.13397 12.7816 6.83346 12.6769ZM9.40148 12.6769L9.5062 12.1601C9.76801 12.2512 10.1118 12.3081 10.3281 12.3081C10.7287 12.3081 10.9154 12.2034 10.9154 11.9302C10.9154 11.3724 9.39692 11.7776 9.39692 10.6075C9.39692 10.0019 9.87046 9.73779 10.5056 9.73779C10.7925 9.73779 11.1067 9.78105 11.3366 9.86073L11.2319 10.3661C10.9883 10.3001 10.7265 10.2614 10.517 10.2614C10.1505 10.2614 10.0344 10.3912 10.0344 10.5801C10.0344 11.1629 11.5529 10.7623 11.5529 11.9256C11.5529 12.192 11.4618 12.4037 11.3047 12.5517C11.0953 12.7475 10.813 12.834 10.3872 12.834C10.0116 12.8294 9.70199 12.7816 9.40148 12.6769Z" fill="#86888C"/>
</svg>
