<svg width="40" height="40" viewBox="0 0 40 40" fill="none" xmlns="http://www.w3.org/2000/svg">
<path fill-rule="evenodd" clip-rule="evenodd" d="M4.21767 25.9693C4.21767 27.1882 5.20615 28.1818 6.4251 28.1818H24.4277C25.6466 28.1818 26.6351 27.1882 26.6351 25.9693V18.4866C26.6351 17.2676 25.6466 16.274 24.4277 16.274H6.4251C5.20615 16.274 4.21767 17.2676 4.21767 18.4866V25.9693ZM34.8451 12.3406L27.3214 5.05762V8.28425C27.3214 9.48784 27.7157 10.5019 28.4584 11.2241C29.2164 11.9565 30.2817 12.3406 31.5519 12.3406H34.8451ZM37.9078 12.5352C37.9641 12.6684 37.9949 12.8169 37.9949 12.9706V35.4699C37.9949 36.8425 36.8169 38 35.4187 38H13.1447C11.7721 38 10.5685 36.8169 10.5685 35.4699L10.63 30.3995H6.4251C3.9872 30.3995 2 28.4072 2 25.9641V18.4814C2 16.0384 3.9872 14.0461 6.4251 14.0461H10.5685V4.53009C10.5685 3.20359 11.7977 2 13.1447 2H26.7017C27.1268 2 27.5211 2.16389 27.8284 2.45583L37.5134 11.8284C37.7132 12.0282 37.831 12.274 37.9078 12.5352Z" fill="#86888C"/>
<path d="M13.0938 18.7627H14.8402L17.3499 25.7179H15.6495L15.0707 23.9714H12.8121L12.2743 25.7179H10.7583L13.0938 18.7627ZM14.6917 22.819L13.9286 20.4989H13.9081L13.186 22.819H14.6917ZM18.1796 18.7627H19.7673V25.7179H18.1796V18.7627Z" fill="#86888C"/>
</svg>
