<svg width="20" height="20" viewBox="0 0 20 20" fill="none" xmlns="http://www.w3.org/2000/svg">
<path fill-rule="evenodd" clip-rule="evenodd" d="M2.98577 12.8554C2.98577 13.3972 3.42516 13.8389 3.96699 13.8389H11.9693C12.5111 13.8389 12.9505 13.3972 12.9505 12.8554V9.52697C12.9505 8.98514 12.5111 8.54348 11.9715 8.54348H3.96699C3.42516 8.54348 2.98577 8.98286 2.98577 9.52697V12.8554ZM16.5999 6.79732L13.2533 3.55998V4.99425C13.2533 5.52925 13.4286 5.98002 13.761 6.30102C14.0979 6.62657 14.5714 6.79732 15.1338 6.79732H16.5999ZM17.9613 6.88383C17.9863 6.94302 18 7.00904 18 7.07734V17.0785C18 17.6886 17.4764 18.2031 16.8549 18.2031H6.95618C6.34604 18.2031 5.81104 17.6772 5.81104 17.0785L5.83836 14.8246H3.96927C2.88105 14.8224 2.00228 13.9413 2 12.8554V9.52925C2 8.44331 2.88105 7.56226 3.96699 7.55771H5.80877V3.32777C5.80877 2.73813 6.35515 2.20312 6.9539 2.20312H12.9801C13.1668 2.20312 13.3421 2.2737 13.4764 2.40119L17.7837 6.57194C17.8725 6.65617 17.9249 6.76772 17.9613 6.88383Z" fill="#86888C"/>
<path d="M3.70048 12.557L3.65723 12.0971C3.77789 12.1199 3.91221 12.129 3.96912 12.129C4.2241 12.129 4.30378 12.0607 4.30378 11.767V9.90018H4.90481V11.7807C4.90481 12.1085 4.85017 12.2861 4.71585 12.4204C4.59519 12.5365 4.40395 12.5911 4.10572 12.5911C3.97595 12.5911 3.88944 12.582 3.70048 12.557ZM5.46485 9.90018H6.37094C6.78301 9.90018 7.04482 9.9571 7.21556 10.1165C7.35899 10.2485 7.42729 10.4511 7.42729 10.7334C7.42729 11.0157 7.36127 11.2274 7.2315 11.3731C7.07669 11.5462 6.83765 11.6281 6.4916 11.6281H6.06815V12.5388H5.46713V9.90018H5.46485ZM6.36184 11.1751C6.55535 11.1751 6.63503 11.1478 6.71243 11.0749C6.78073 11.0066 6.81716 10.8928 6.81716 10.7403C6.81716 10.5968 6.78529 10.4944 6.71699 10.4284C6.64414 10.3623 6.53258 10.335 6.3459 10.335H6.0636V11.1751H6.36184ZM7.85074 9.90018H9.63105L9.58551 10.335H8.45176V10.9747H9.35785V11.4255H8.45176V12.0994H9.65153V12.5342H7.85074V9.90018ZM9.98847 11.2343C9.98847 10.4101 10.4233 9.8501 11.3226 9.8501C11.5844 9.8501 11.8963 9.90474 12.067 9.97759L11.9896 10.417C11.8007 10.3623 11.573 10.3214 11.3658 10.3214C10.8331 10.3214 10.6145 10.6378 10.6145 11.2115C10.6145 11.5075 10.6532 11.7511 10.7694 11.9127C10.865 12.047 11.0243 12.1244 11.2793 12.1244C11.3749 12.1244 11.507 12.113 11.6003 12.0971V11.5416H11.2292V11.1091H12.1968V12.4545C11.9464 12.5319 11.5457 12.5889 11.2565 12.5889C10.3095 12.5911 9.98847 12.0698 9.98847 11.2343Z" fill="#86888C"/>
</svg>
