<svg width="28" height="28" viewBox="0 0 28 28" fill="none" xmlns="http://www.w3.org/2000/svg">
<path fill-rule="evenodd" clip-rule="evenodd" d="M3.47503 17.9795C3.47503 18.7921 4.13402 19.4545 4.94665 19.4545H16.9484C17.761 19.4545 18.42 18.7921 18.42 17.9795V12.9876C18.42 12.175 17.761 11.5126 16.9484 11.5126H4.94665C4.13402 11.5126 3.47503 12.175 3.47503 12.9876V17.9795ZM23.8899 8.89373L18.8741 4.035V6.18609C18.8741 6.98848 19.137 7.66453 19.6321 8.14597C20.1374 8.63423 20.8476 8.89031 21.6944 8.89031H23.8899V8.89373ZM25.9351 9.02347C25.9727 9.11225 25.9932 9.21127 25.9932 9.3137V24.3133C25.9932 25.2283 25.2079 26 24.2757 26H9.42638C8.51131 26 7.71233 25.2113 7.71233 24.3133L7.75331 20.9364H4.95006C3.3248 20.9364 2 19.6082 2 17.9795V12.9876C2 11.3589 3.3248 10.0307 4.95006 10.0307H7.71233V3.68673C7.71233 2.80239 8.5318 2 9.42638 2H18.4644C18.7478 2 19.0141 2.10585 19.2121 2.30388L25.6688 8.55228C25.8054 8.68545 25.8839 8.84934 25.9351 9.02347Z" fill="#86888C"/>
<path d="M7.12539 13.4214H8.25557L9.87742 17.9114H8.78139L8.4058 16.7812H6.94784L6.59957 17.9114H5.61963L7.12539 13.4214ZM8.15655 16.0403L7.66487 14.5447H7.65121L7.18344 16.0403H8.15655ZM9.71353 13.4214H10.8096L11.8612 16.6787L12.8411 13.4214H13.8382L12.346 17.9114H11.2773L9.71353 13.4214ZM14.4186 13.4214H15.4429V17.9114H14.4186V13.4214Z" fill="#86888C"/>
</svg>
