<svg width="24" height="24" viewBox="0 0 24 24" fill="none" xmlns="http://www.w3.org/2000/svg">
<path fill-rule="evenodd" clip-rule="evenodd" d="M3.22919 15.3163C3.22919 15.9935 3.77835 16.5455 4.45554 16.5455H14.457C15.1342 16.5455 15.6833 15.9935 15.6833 15.3163V11.1564C15.6833 10.4792 15.1342 9.92716 14.457 9.92716H4.45554C3.77835 9.92716 3.22919 10.4792 3.22919 11.1564V15.3163ZM20.2416 7.74477L16.0617 3.69583V5.48841C16.0617 6.15706 16.2808 6.72044 16.6934 7.12164C17.1145 7.52852 17.7064 7.74193 18.412 7.74193H20.2416V7.74477ZM21.9459 7.8529C21.9772 7.92688 21.9943 8.00939 21.9943 8.09475V20.5944C21.9943 21.357 21.3399 22 20.5631 22H8.18865C7.42609 22 6.76028 21.3427 6.76028 20.5944L6.79442 17.7803H4.45839C3.104 17.7803 2 16.6735 2 15.3163V11.1564C2 9.79912 3.104 8.69228 4.45839 8.69228H6.76028V3.40561C6.76028 2.66866 7.44316 2 8.18865 2H15.7203C15.9565 2 16.1784 2.08821 16.3434 2.25324L21.724 7.46024C21.8378 7.57121 21.9033 7.70778 21.9459 7.8529Z" fill="#86888C"/>
<path d="M6.2714 11.5176H7.21322L8.56476 15.2592H7.6514L7.33841 14.3174H6.12344L5.83322 15.2592H5.0166L6.2714 11.5176ZM7.1307 13.7L6.72097 12.4537H6.70959L6.31977 13.7H7.1307ZM8.42818 11.5176H9.34154L10.2179 14.232L11.0345 11.5176H11.8654L10.622 15.2592H9.73135L8.42818 11.5176ZM12.3491 11.5176H13.2027V15.2592H12.3491V11.5176Z" fill="#86888C"/>
</svg>
