<svg width="24" height="24" viewBox="0 0 24 24" fill="none" xmlns="http://www.w3.org/2000/svg">
<path fill-rule="evenodd" clip-rule="evenodd" d="M3.23488 15.3163C3.23488 15.9935 3.78404 16.5455 4.46123 16.5455H14.4627C15.1398 16.5455 15.689 15.9935 15.689 15.3163V11.1592C15.689 10.482 15.1398 9.93001 14.4627 9.93001H4.46123C3.78404 9.93001 3.23488 10.482 3.23488 11.1592V15.3163ZM20.2473 7.74477L16.0674 3.69583V5.48841C16.0674 6.15422 16.2865 6.72044 16.6991 7.12164C17.1202 7.52852 17.7121 7.74193 18.4177 7.74193H20.2473V7.74477ZM21.9516 7.8529C21.9829 7.92688 22 8.00939 22 8.09475V20.5944C22 21.357 21.3456 22 20.5688 22H8.19434C7.43463 22 6.76312 21.3427 6.76312 20.5944L6.79727 17.7775H4.45839C3.104 17.7775 2 16.6707 2 15.3134V11.1564C2 9.79912 3.104 8.69228 4.45839 8.69228H6.76028V3.40561C6.76028 2.66866 7.44032 2 8.19149 2H15.7231C15.9593 2 16.1813 2.08821 16.3463 2.25324L21.7268 7.46024C21.8435 7.57121 21.9089 7.70778 21.9516 7.8529Z" fill="#86888C"/>
<path d="M4.50684 11.4551H5.82139C6.42176 11.4551 6.80019 11.5376 7.04774 11.7681C7.25545 11.9587 7.35504 12.2546 7.35504 12.6644C7.35504 13.0741 7.26114 13.3814 7.0705 13.5948C6.84572 13.848 6.49858 13.9647 5.99496 13.9647H5.38036V15.2849H4.50684V11.4551ZM5.81001 13.3074C6.08885 13.3074 6.20836 13.2676 6.31933 13.1623C6.41891 13.0627 6.47013 12.9005 6.47013 12.6757C6.47013 12.468 6.42461 12.3172 6.32502 12.2233C6.21974 12.1294 6.05755 12.0896 5.78725 12.0896H5.37751V13.3102H5.81001V13.3074ZM7.97532 11.4551H9.28988C9.89025 11.4551 10.2687 11.5376 10.5162 11.7681C10.7239 11.9587 10.8235 12.2546 10.8235 12.6644C10.8235 13.0741 10.7296 13.3814 10.539 13.5948C10.3142 13.848 9.96707 13.9647 9.46344 13.9647H8.84885V15.2849H7.97532V11.4551ZM9.2785 13.3074C9.55734 13.3074 9.67685 13.2676 9.78782 13.1623C9.8874 13.0627 9.93862 12.9005 9.93862 12.6757C9.93862 12.468 9.89309 12.3172 9.79351 12.2233C9.68823 12.1294 9.52604 12.0896 9.25573 12.0896H8.846V13.3102H9.2785V13.3074ZM12.2917 12.0867H11.1052V11.4551H14.3916L14.3233 12.0867H13.1653V15.2849H12.2917V12.0867Z" fill="#86888C"/>
</svg>
