<svg width="40" height="40" viewBox="0 0 40 40" fill="none" xmlns="http://www.w3.org/2000/svg">
<path fill-rule="evenodd" clip-rule="evenodd" d="M30.901 12.3369L23.4889 5.05293V8.28002C23.4889 9.48378 23.8782 10.498 24.6107 11.2203C25.3534 11.9476 26.4035 12.3369 27.6534 12.3369H30.901ZM33.9232 12.5316C33.9795 12.6648 34.0051 12.8133 34.0051 12.967V35.4696C34.0051 36.8423 32.8423 38 31.4696 38H9.53557C8.18839 38 7 36.8167 7 35.4696V4.53045C7 3.20376 8.20888 2 9.53557 2H22.8845C23.3045 2 23.6938 2.15879 23.9909 2.45589L33.5236 11.8298C33.7336 12.0296 33.8463 12.2755 33.9232 12.5316ZM25.6044 21.6033L26.2242 19.8002L27.136 21.6033H25.6044ZM25 23.3808H26.8543L23.3045 28.3443L25 23.3808ZM16.0922 23.3808L17.8133 28.4212L14.1713 23.3808H16.0922ZM17.0194 20.6864L16.251 18.4377H18.7763L17.0194 20.6864ZM24.0677 20.6915L22.28 18.4377H24.8412L24.0677 20.6915ZM18.5356 21.6033L20.5282 19.0626L22.5413 21.6033H18.5356ZM23.1457 23.3808L20.5384 30.9977L17.9363 23.3808H23.1457ZM14.8577 19.7644L15.4878 21.6033H13.905L14.8577 19.7644ZM29.354 22.1104C29.3489 22.1002 29.354 22.095 29.3489 22.0848L26.8543 17.1622L26.8492 17.1417C26.8441 17.1315 26.8338 17.1264 26.8287 17.1212C26.7672 17.0034 26.675 16.9112 26.5674 16.8344C26.5316 16.8139 26.5009 16.7934 26.465 16.7729C26.4291 16.7575 26.3984 16.7268 26.3625 16.7114C26.2857 16.6858 26.2038 16.6858 26.1269 16.6756C26.1064 16.6756 26.0911 16.6602 26.0706 16.6602H15.0267C15.0063 16.6602 14.9909 16.6756 14.9704 16.6756C14.8936 16.6807 14.8167 16.6807 14.7399 16.7063C14.704 16.7217 14.6733 16.7473 14.6426 16.7678C14.6016 16.7883 14.5709 16.8088 14.535 16.8344C14.4377 16.9061 14.3506 16.9932 14.2891 17.0956C14.2789 17.111 14.2635 17.1161 14.2533 17.1315L11.6767 22.0746C11.6716 22.0848 11.6767 22.095 11.6716 22.1053C11.6153 22.2231 11.5794 22.3512 11.5794 22.4895C11.5794 22.4997 11.5845 22.5151 11.5845 22.5253C11.5845 22.5561 11.5999 22.5868 11.605 22.6175C11.6204 22.7405 11.6614 22.848 11.7228 22.9505C11.7331 22.971 11.7331 22.9966 11.7433 23.0171L19.8418 34.2299H19.8469C19.9186 34.3324 20.0159 34.4041 20.1184 34.4656C20.144 34.4809 20.1696 34.4912 20.1952 34.5014C20.3028 34.5526 20.4206 34.5885 20.5487 34.5885H20.5538C20.6767 34.5885 20.7945 34.5526 20.9021 34.5014C20.9277 34.4861 20.9533 34.4758 20.9789 34.4604C21.0814 34.399 21.1787 34.3221 21.2504 34.2248C21.2555 34.2248 21.2555 34.2248 21.2555 34.2197L29.2823 23.0068C29.2977 22.9863 29.2925 22.9607 29.3079 22.9402C29.3643 22.8429 29.4052 22.7405 29.4206 22.6227C29.4257 22.5868 29.4411 22.5561 29.4411 22.5202C29.4411 22.5048 29.4513 22.4946 29.4513 22.4792C29.4462 22.3563 29.4052 22.2282 29.354 22.1104Z" fill="#86888C"/>
</svg>
