<svg width="24" height="24" viewBox="0 0 24 24" fill="none" xmlns="http://www.w3.org/2000/svg">
<path fill-rule="evenodd" clip-rule="evenodd" d="M3.23488 15.4178C3.23488 16.095 3.78404 16.6442 4.46123 16.6442H14.4627C15.1398 16.6442 15.689 16.0922 15.689 15.4178V11.2579C15.689 10.5807 15.1398 10.0287 14.4627 10.0287H4.46123C3.78404 10.0287 3.23488 10.5807 3.23488 11.2579V15.4178ZM20.2473 7.84633L16.0674 3.79739V5.58997C16.0674 6.25578 16.2865 6.82201 16.6991 7.2232C17.1202 7.63009 17.7121 7.84349 18.4177 7.84349H20.2473V7.84633ZM21.9516 7.95446C21.9829 8.02844 22 8.11095 22 8.19631V20.696C22 21.4585 21.3456 22.1016 20.5688 22.1016H8.19434C7.43463 22.1016 6.76312 21.4443 6.76312 20.696L6.79727 17.8791H4.45839C3.104 17.8791 2 16.7751 2 15.4178V11.2579C2 9.90068 3.104 8.79384 4.45839 8.79384H6.76028V3.50717C6.76028 2.77022 7.44032 2.10156 8.19149 2.10156H15.7231C15.9593 2.10156 16.1813 2.18977 16.3463 2.3548L21.7268 7.5618C21.8435 7.67277 21.9089 7.80935 21.9516 7.95446Z" fill="#86888C"/>
<path d="M4.5 11.5477H5.78326C6.36655 11.5477 6.73929 11.6302 6.9783 11.8521C7.18032 12.0371 7.27991 12.3273 7.27991 12.7257C7.27991 13.124 7.18602 13.4256 7.00107 13.6333C6.78198 13.878 6.44338 13.9947 5.95398 13.9947H5.35361V15.2836H4.5V11.5477ZM5.77187 13.3545C6.04503 13.3545 6.15884 13.3175 6.26981 13.2122C6.3694 13.1126 6.41777 12.9561 6.41777 12.7371C6.41777 12.535 6.37509 12.3871 6.2755 12.296C6.17307 12.2021 6.01373 12.1651 5.75196 12.1651H5.35361V13.3545H5.77187ZM7.88028 11.5477H8.50911L10.2789 13.9378V11.5477H11.0272V15.2808H10.3444L8.62861 13.0159V15.2808H7.88028V11.5477ZM11.676 13.437C11.676 12.2676 12.2934 11.4766 13.5653 11.4766C13.9352 11.4766 14.3791 11.5534 14.6181 11.6558L14.51 12.279C14.2425 12.2021 13.921 12.1424 13.6251 12.1424C12.871 12.1424 12.5609 12.5891 12.5609 13.4029C12.5609 13.824 12.615 14.1683 12.78 14.3959C12.9166 14.5865 13.1413 14.6975 13.4999 14.6975C13.6364 14.6975 13.8214 14.6804 13.9523 14.6605V13.8752H13.4287V13.2634H14.8002V15.1698C14.4445 15.278 13.8783 15.3605 13.4686 15.3605C12.1284 15.3576 11.676 14.6207 11.676 13.437Z" fill="#86888C"/>
</svg>
