<svg width="24" height="24" viewBox="0 0 24 24" fill="none" xmlns="http://www.w3.org/2000/svg">
<path fill-rule="evenodd" clip-rule="evenodd" d="M3.23221 15.5184C3.23221 16.1957 3.78145 16.7478 4.45874 16.7478H14.4616C15.1389 16.7478 15.6881 16.1957 15.6881 15.5184V11.3579C15.6881 10.6806 15.1389 10.1286 14.4616 10.1286H4.45874C3.78145 10.1286 3.23221 10.6806 3.23221 11.3579V15.5184ZM20.2499 7.94587L16.0666 3.8992V5.69203C16.0666 6.35793 16.2857 6.92424 16.7012 7.32549C17.1224 7.73244 17.7143 7.94587 18.4172 7.94587H20.2499ZM21.9516 8.05401C21.9829 8.128 22 8.21052 22 8.2959V20.7973C22 21.56 21.3455 22.2031 20.5686 22.2031H8.19237C7.42971 22.2031 6.76096 21.5458 6.76096 20.7973L6.79511 17.98H4.46158C3.10131 17.98 2 16.8787 2 15.5184V11.3579C2 9.99766 3.10131 8.89635 4.45874 8.89351H6.76096V3.60893C6.76096 2.87188 7.44394 2.20312 8.19237 2.20312H15.7251C15.9585 2.20312 16.189 2.29704 16.354 2.45924L21.7297 7.66414C21.8435 7.77228 21.9089 7.90887 21.9516 8.05401Z" fill="#86888C"/>
<path d="M4.30469 11.6341H4.97913L6.16581 13.7315L7.38949 11.6341H8.04686V15.3877H7.26428V13.2249L6.48454 14.5311H5.82717L5.02466 13.2021V15.3877H4.30469V11.6341ZM8.86359 11.6341H10.1527C10.739 11.6341 11.1117 11.7167 11.3536 11.9415C11.5557 12.1293 11.6553 12.4196 11.6553 12.8208C11.6553 13.2221 11.5614 13.5237 11.3764 13.7315C11.1573 13.979 10.8158 14.0929 10.3235 14.0929H9.72017V15.3877H8.86359V11.6341ZM10.1442 13.4497C10.4174 13.4497 10.5341 13.4099 10.6422 13.3074C10.7418 13.2078 10.7902 13.0485 10.7902 12.8294C10.7902 12.6273 10.7475 12.4793 10.6479 12.3854C10.5426 12.2915 10.3832 12.2545 10.1214 12.2545H9.72017V13.4526H10.1442V13.4497ZM12.3411 15.3763V14.7844C12.5602 14.8242 12.8192 14.8498 13.0924 14.8498C13.3997 14.8498 13.5819 14.81 13.7128 14.7246C13.8437 14.6364 13.9148 14.4941 13.9148 14.2921C13.9148 14.0957 13.8437 13.962 13.727 13.8794C13.5904 13.7798 13.3798 13.7485 12.9956 13.7485H12.8903V13.1993H13.0212C13.3656 13.1993 13.542 13.1566 13.6758 13.0399C13.764 12.9631 13.8238 12.8379 13.8238 12.6558C13.8238 12.5135 13.7839 12.3911 13.6985 12.3143C13.5876 12.2147 13.4026 12.172 13.1066 12.172C12.8647 12.172 12.5915 12.1947 12.3724 12.2261V11.6455C12.6257 11.5914 12.9444 11.563 13.2347 11.563C13.7071 11.563 14.1083 11.674 14.3388 11.9045C14.4982 12.0638 14.5978 12.283 14.5978 12.596C14.5978 12.9859 14.4271 13.2591 14.0998 13.4241C14.4954 13.5664 14.7316 13.8624 14.7316 14.3518C14.7316 14.6421 14.6433 14.8954 14.4669 15.0775C14.2193 15.3365 13.8181 15.4674 13.2489 15.4674C12.9216 15.4645 12.5915 15.4304 12.3411 15.3763Z" fill="#86888C"/>
</svg>
