<svg width="24" height="24" viewBox="0 0 24 24" fill="none" xmlns="http://www.w3.org/2000/svg">
<path fill-rule="evenodd" clip-rule="evenodd" d="M2.63836 6.59883C2.30493 6.60168 2.0285 6.33379 2.02565 5.99752C2.02565 5.66694 2.29923 5.39905 2.63836 5.39905H3.70704C3.77828 5.04853 3.90938 4.71225 4.10886 4.39877C4.54488 3.72336 5.23454 3.24744 6.02109 3.07645C6.81049 2.89692 7.63978 3.03656 8.32659 3.46403C9.01909 3.88865 9.49786 4.55551 9.6774 5.33636C9.6831 5.35631 9.68025 5.37911 9.6831 5.39905H21.3873C21.7236 5.39905 22 5.66979 22 6.00036C22 6.33094 21.7264 6.60168 21.3873 6.60168H9.68595C9.61471 6.9579 9.47791 7.29418 9.28128 7.59911C8.84526 8.27737 8.167 8.74759 7.36905 8.92142C6.57965 9.10096 5.75036 8.96132 5.06355 8.53385C4.3796 8.11493 3.89513 7.44237 3.71274 6.66152C3.70704 6.64157 3.70704 6.62162 3.70419 6.59883H2.63836ZM21.3645 11.8197C21.7036 11.8197 21.9772 12.0876 21.9772 12.421C21.9772 12.7516 21.7036 13.0195 21.3645 13.0195H20.2645C19.9823 14.3845 18.7455 15.4162 17.2693 15.4162C15.7931 15.4162 14.5591 14.3845 14.2742 13.0195H2.61271C2.27928 13.0223 2.00285 12.7544 2 12.4181C2 12.0876 2.27358 11.8168 2.61271 11.8168H14.2713C14.5563 10.4518 15.7903 9.42014 17.2665 9.42014C18.7427 9.42014 19.9795 10.4518 20.2616 11.8168H21.3645V11.8197ZM21.3616 18.2261C21.7008 18.2261 21.9744 18.494 21.9744 18.8274C21.9744 19.158 21.7008 19.4287 21.3616 19.4287H12.4275C12.1425 20.7938 10.9085 21.8254 9.43232 21.8254C7.95611 21.8254 6.72214 20.7938 6.43716 19.4287H2.61271C2.27928 19.4315 2.00285 19.1637 2 18.8274C2 18.4968 2.27358 18.2289 2.61271 18.2289H6.43716C6.72214 16.8639 7.95611 15.8322 9.43232 15.8322C10.9085 15.8322 12.1425 16.8639 12.4275 18.2289L21.3616 18.2261Z" fill="#86888C"/>
</svg>
