<svg width="24" height="24" viewBox="0 0 24 24" fill="none" xmlns="http://www.w3.org/2000/svg">
<path fill-rule="evenodd" clip-rule="evenodd" d="M20.7701 7.73584L17.3343 7.7273V3.26103H20.5737C20.6307 3.27811 20.7701 3.44321 20.7701 3.63108V7.73584ZM20.7701 14.5021L13.4203 14.4594V9.05095C13.4203 9.02533 13.4118 8.99972 13.4118 8.98264L20.7701 8.99972V14.5021ZM20.7701 20.3746C20.7701 20.5853 20.6392 20.7361 20.5965 20.7447H17.3343V15.7461L20.7701 15.7632V20.3746ZM16.0961 20.7447H10.6534C10.6705 20.7276 10.6933 20.7105 10.7104 20.6934C11.4761 19.9932 11.9287 19.0139 11.9629 17.975C11.9942 17.1751 11.775 16.3837 11.3366 15.7119L16.0989 15.7375L16.0961 20.7447ZM8.54982 9.57757C8.58967 9.48363 8.57543 9.37546 8.50712 9.2986C8.44734 9.21605 8.34202 9.17905 8.24239 9.20752C7.18915 9.46086 6.116 9.99886 5.17663 10.7134V8.95417L12.1963 8.97125C12.1963 8.99687 12.1792 9.02249 12.1792 9.04811V14.4566L10.7872 14.448H10.1183L9.99587 14.3484C7.37133 12.4071 8.50142 9.69713 8.54982 9.57757ZM5.17948 3.63108C5.17948 3.44606 5.31896 3.27811 5.35312 3.26103H8.36194V7.70453L5.18232 7.69599V3.63108H5.17948ZM9.59451 3.26103H16.0961V7.71876L9.59451 7.70168V3.26103ZM20.5965 2H5.35312C4.61301 2 3.94407 2.77427 3.94407 3.63108V11.8406C1.48748 14.616 1.60418 18.3422 2.93923 20.0672C3.60817 20.9268 4.55608 21.5303 5.60077 21.8349C5.42143 21.7296 5.25918 21.6043 5.11401 21.4563C4.29704 20.6393 4.25719 19.3185 5.00584 18.4361C5.14532 18.2852 5.29334 18.1429 5.45844 18.0148C6.47182 17.2064 6.01921 16.0564 6.01921 16.045C5.96228 15.9026 5.9879 15.7404 6.08469 15.6237C6.18432 15.5127 6.33518 15.4643 6.48036 15.4956C7.04967 15.6465 7.62468 15.9681 8.11998 16.4036C9.20737 17.3715 10.0727 19.643 9.00242 21.1233C8.71492 21.5189 8.31924 21.8207 7.87233 22H20.5937C21.3508 22 22.0027 21.2485 22.0027 20.3689V3.63108C22.0056 2.78281 21.3309 2 20.5965 2Z" fill="#86888C"/>
</svg>
