<svg width="28" height="28" viewBox="0 0 28 28" fill="none" xmlns="http://www.w3.org/2000/svg">
<path fill-rule="evenodd" clip-rule="evenodd" d="M21.9882 13.1602C21.4692 12.607 20.8852 12.0982 20.2535 11.6508C15.2439 8.00718 17.3918 2.92247 17.484 2.70734C17.5592 2.53318 17.5318 2.32829 17.4123 2.18145C17.2894 2.0312 17.0947 1.96973 16.9103 2.01412C14.6634 2.54684 12.3549 3.71472 10.4119 5.30262C3.98856 10.5547 3.9749 18.7742 6.79556 22.3598C8.06247 23.9716 9.87234 25.1087 11.8632 25.6824C11.5661 25.5048 11.2519 25.2795 10.9412 24.9755C9.38743 23.4457 9.30206 20.9597 10.7431 19.3103C10.9958 19.0201 11.2827 18.7537 11.5968 18.5147C13.5296 17.0053 12.6759 14.8505 12.6657 14.83C12.5564 14.5671 12.6042 14.2632 12.792 14.048C12.9798 13.8329 13.2735 13.7441 13.5467 13.809C14.6292 14.0856 15.739 14.6832 16.6679 15.4993C18.7475 17.3229 20.3935 21.5709 18.3582 24.3472C17.805 25.1019 17.0435 25.6619 16.1966 26C16.4698 25.959 16.743 25.9249 17.0162 25.86C17.1152 25.8463 19.4681 25.5048 21.6126 23.5379C23.0775 22.1959 23.9244 20.3826 23.9961 18.4361C24.0644 16.4897 23.3507 14.6149 21.9882 13.1602Z" fill="#86888C"/>
</svg>
