<svg width="28" height="28" viewBox="0 0 28 28" fill="none" xmlns="http://www.w3.org/2000/svg">
<path fill-rule="evenodd" clip-rule="evenodd" d="M24.5242 8.88301L20.4012 8.87276V3.51324H24.2885C24.3568 3.53373 24.5242 3.73185 24.5242 3.9573V8.88301ZM24.5242 17.0026L15.7044 16.9513V10.4611C15.7044 10.4304 15.6941 10.3997 15.6941 10.3792L24.5242 10.3997V17.0026ZM24.5242 24.0495C24.5242 24.3023 24.367 24.4833 24.3158 24.4936H20.4012V18.4953L24.5242 18.5158V24.0495ZM18.9153 24.4936H12.3841C12.4046 24.4731 12.4319 24.4526 12.4524 24.4321C13.3713 23.5918 13.9144 22.4167 13.9554 21.1699C13.993 20.2101 13.73 19.2605 13.2039 18.4543L18.9187 18.4851L18.9153 24.4936ZM9.85978 11.0931C9.9076 10.9804 9.89052 10.8506 9.80854 10.7583C9.73681 10.6593 9.61042 10.6149 9.49086 10.649C8.22699 10.953 6.9392 11.5986 5.81196 12.456V10.345L14.2355 10.3655C14.2355 10.3962 14.215 10.427 14.215 10.4577V16.9479L12.5447 16.9377H11.7419L11.595 16.8181C8.4456 14.4885 9.80171 11.2366 9.85978 11.0931ZM5.81537 3.9573C5.81537 3.73527 5.98275 3.53373 6.02374 3.51324H9.63433V8.84543L5.81879 8.83518V3.9573H5.81537ZM11.1134 3.51324H18.9153V8.86251L11.1134 8.84202V3.51324ZM24.3158 2H6.02374C5.13561 2 4.33288 2.92912 4.33288 3.9573V13.8087C1.38497 17.1392 1.52502 21.6106 3.12707 23.6806C3.9298 24.7122 5.06729 25.4364 6.32092 25.8019C6.10572 25.6755 5.91102 25.5252 5.73681 25.3476C4.75645 24.3672 4.70863 22.7822 5.607 21.7233C5.77438 21.5423 5.95201 21.3715 6.15013 21.2178C7.36618 20.2477 6.82306 18.8676 6.82306 18.854C6.75474 18.6832 6.78548 18.4885 6.90162 18.3484C7.02118 18.2152 7.20222 18.1571 7.37643 18.1947C8.05961 18.3757 8.74962 18.7617 9.34398 19.2844C10.6488 20.4458 11.6873 23.1716 10.4029 24.9479C10.0579 25.4227 9.58309 25.7848 9.0468 26H24.3124C25.221 26 26.0032 25.0982 26.0032 24.0427V3.9573C26.0067 2.93937 25.1971 2 24.3158 2Z" fill="#86888C"/>
</svg>
