<svg width="24" height="24" viewBox="0 0 24 24" fill="none" xmlns="http://www.w3.org/2000/svg">
<path fill-rule="evenodd" clip-rule="evenodd" d="M19.1568 11.3001C18.7243 10.8391 18.2377 10.4151 17.7112 10.0423C13.5366 7.00598 15.3265 2.76873 15.4034 2.58945C15.466 2.44432 15.4432 2.27357 15.3436 2.15121C15.2412 2.026 15.0789 1.97478 14.9253 2.01177C13.0528 2.4557 11.1291 3.42893 9.5099 4.75218C4.15713 9.12888 4.14575 15.9785 6.4963 18.9665C7.55206 20.3097 9.06028 21.2573 10.7193 21.7353C10.4718 21.5874 10.2099 21.3996 9.95099 21.1463C8.65619 19.8714 8.58505 17.7997 9.78594 16.4253C9.99652 16.1834 10.2356 15.9614 10.4974 15.7622C12.108 14.5044 11.3966 12.7088 11.3881 12.6917C11.297 12.4726 11.3368 12.2193 11.4934 12.04C11.6499 11.8608 11.8946 11.7868 12.1223 11.8408C13.0243 12.0713 13.9492 12.5693 14.7232 13.2495C16.4563 14.7691 17.8279 18.3091 16.1319 20.6227C15.6709 21.2516 15.0363 21.7183 14.3305 22C14.5582 21.9659 14.7858 21.9374 15.0135 21.8833C15.096 21.8719 17.0567 21.5874 18.8438 19.9482C20.0646 18.8299 20.7704 17.3188 20.8301 15.6968C20.887 14.0747 20.2923 12.5124 19.1568 11.3001Z" fill="#86888C"/>
</svg>
