<svg width="28" height="28" viewBox="0 0 28 28" fill="none" xmlns="http://www.w3.org/2000/svg">
<path fill-rule="evenodd" clip-rule="evenodd" d="M9.08554 5.71678V7.75614H18.0551V5.71678C18.005 5.68458 17.9049 5.6488 17.7653 5.6488H9.37892C9.23581 5.64523 9.13563 5.68458 9.08554 5.71678ZM24.2805 7.75614C25.3074 7.75614 26.141 8.57904 26.141 9.59514V24.2642C26.141 25.2767 25.3074 26.0996 24.2805 26.0996H2.85656C1.82973 26.0996 0.996094 25.2767 0.996094 24.2642V9.59514C0.996094 8.58261 1.82973 7.75614 2.85656 7.75614H7.5113V5.63449C7.5113 4.77582 8.32704 4.09961 9.37177 4.09961H17.7582C18.8029 4.09961 19.6222 4.77582 19.6222 5.63449V7.75614H24.2805ZM18.2698 14.579H15.9442V12.2892C15.9442 11.5844 15.3682 10.9654 14.7134 10.9654H12.4129C11.7582 10.9654 11.1857 11.5844 11.1857 12.2892V14.5826H8.86371C8.13384 14.5826 7.52203 15.1372 7.52203 15.7955V18.0638C7.52203 18.7221 8.13742 19.2767 8.86729 19.2767H11.1929V21.5665C11.1929 22.2857 11.7546 22.8903 12.4201 22.8903H14.7242C15.3897 22.8903 15.9514 22.2821 15.9514 21.5629V19.2696H18.2734C18.9889 19.2696 19.6151 18.7043 19.6151 18.0567V15.7883C19.6151 15.1443 18.9854 14.579 18.2698 14.579Z" fill="#86888C"/>
</svg>
