<svg width="20" height="20" viewBox="0 0 20 20" fill="none" xmlns="http://www.w3.org/2000/svg">
<path fill-rule="evenodd" clip-rule="evenodd" d="M14.2224 6.45334C14.1698 6.4031 14.1676 6.32088 14.2178 6.26835L16.7779 3.71283C17.0268 3.39311 17.0679 2.95691 16.8875 2.59379C16.7071 2.22839 16.3348 1.99773 15.9283 2.00002H4.07108C3.47959 2.00002 3 2.47732 3 3.06425V17.5318C3 17.7899 3.21011 18 3.47045 18C3.7308 18 3.94091 17.7899 3.94091 17.5318V10.7285H15.9261C16.3371 10.7285 16.7048 10.5001 16.8852 10.1347C17.0679 9.76706 17.0245 9.34 16.7368 8.97232C16.7391 8.97232 14.2224 6.45334 14.2224 6.45334Z" fill="#86888C"/>
</svg>
