<svg width="28" height="28" viewBox="0 0 28 28" fill="none" xmlns="http://www.w3.org/2000/svg">
<path fill-rule="evenodd" clip-rule="evenodd" d="M20.8336 8.68001C20.7548 8.60464 20.7513 8.48132 20.8267 8.40253L24.6668 4.56925C25.0402 4.08966 25.1019 3.43536 24.8313 2.89069C24.5606 2.34259 24.0023 1.9966 23.3925 2.00003H5.60662C4.71938 2.00003 4 2.71598 4 3.59637V25.2977C4 25.6848 4.31516 26 4.70568 26C5.0962 26 5.41136 25.6848 5.41136 25.2977V15.0928H23.3891C24.0057 15.0928 24.5572 14.7502 24.8278 14.2021C25.1019 13.6506 25.0368 13.01 24.6052 12.4585C24.6086 12.4585 20.8336 8.68001 20.8336 8.68001Z" fill="#86888C"/>
</svg>
