<svg width="24" height="24" viewBox="0 0 24 24" fill="none" xmlns="http://www.w3.org/2000/svg">
<path fill-rule="evenodd" clip-rule="evenodd" d="M17.028 7.56667C16.9623 7.50387 16.9594 7.4011 17.0223 7.33544L20.2224 4.14104C20.5335 3.74138 20.5849 3.19614 20.3594 2.74224C20.1339 2.28549 19.6686 1.99717 19.1604 2.00002H4.33885C3.59949 2.00002 3 2.59665 3 3.33031V21.4148C3 21.7374 3.26263 22 3.58807 22C3.9135 22 4.17613 21.7374 4.17613 21.4148V12.9107H19.1576C19.6714 12.9107 20.131 12.6252 20.3565 12.1684C20.5849 11.7088 20.5307 11.175 20.171 10.7154C20.1738 10.7154 17.028 7.56667 17.028 7.56667Z" fill="#86888C"/>
</svg>
