<svg width="40" height="40" viewBox="0 0 40 40" fill="none" xmlns="http://www.w3.org/2000/svg">
<path fill-rule="evenodd" clip-rule="evenodd" d="M4.58679 8.28464H15.7945C15.9892 8.28464 16.1223 8.40245 16.1223 8.51002V10.3899C16.1223 11.02 16.6294 11.5322 17.2544 11.5322H31.3767C31.5714 11.5322 31.7045 11.65 31.7045 11.8447L31.8224 13.4172V13.4224H8.56686C7.25041 13.4224 6.1696 14.4673 6.10813 15.7786L5.08878 21.3005L4.26408 8.51002C4.26408 8.40758 4.39214 8.28464 4.58679 8.28464ZM35.5361 13.4275H34.0608C34.0659 13.366 34.0864 13.3097 34.0813 13.2482L33.9635 11.7627C33.9635 10.3746 32.8007 9.24764 31.3716 9.24764H18.3864V8.51514C18.3864 7.12699 17.2236 6.00007 15.7945 6.00007H4.58679C3.1679 5.98982 2.01024 7.12699 2 8.54076V8.58686L3.40865 30.4388C3.40865 30.4644 3.40353 30.49 3.40353 30.5208C3.40353 31.8833 4.50995 33 5.86738 33H32.8776C34.194 33 35.2748 31.9499 35.3363 30.6437L37.9846 16.1116C37.9999 16.045 38.005 15.9733 38.005 15.9016C37.9999 14.5339 36.8935 13.4275 35.5361 13.4275Z" fill="#86888C"/>
</svg>
