<svg width="28" height="28" viewBox="0 0 28 28" fill="none" xmlns="http://www.w3.org/2000/svg">
<path fill-rule="evenodd" clip-rule="evenodd" d="M3.72453 6.52309H11.1963C11.3261 6.52309 11.4149 6.60164 11.4149 6.67335V7.92662C11.4149 8.34665 11.753 8.68814 12.1696 8.68814H21.5845C21.7142 8.68814 21.803 8.76668 21.803 8.89645L21.8816 9.94483V9.94824H6.37791C5.50028 9.94824 4.77973 10.6449 4.73875 11.5191L4.05919 15.2004L3.50939 6.67335C3.50939 6.60505 3.59476 6.52309 3.72453 6.52309ZM24.3574 9.95165H23.3739C23.3773 9.91068 23.391 9.87311 23.3875 9.83213L23.309 8.84181C23.309 7.91637 22.5338 7.16509 21.5811 7.16509H12.9243V6.67676C12.9243 5.75132 12.1491 5.00005 11.1963 5.00005H3.72453C2.7786 4.99322 2.00683 5.75132 2 6.69384V6.72457L2.9391 21.2925C2.9391 21.3096 2.93568 21.3267 2.93568 21.3472C2.93568 22.2556 3.6733 23 4.57825 23H22.585C23.4627 23 24.1832 22.2999 24.2242 21.4291L25.9897 11.7411C25.9999 11.6967 26.0034 11.6489 26.0034 11.6011C25.9999 10.6893 25.2623 9.95165 24.3574 9.95165Z" fill="#86888C"/>
</svg>
