<svg width="20" height="20" viewBox="0 0 20 20" fill="none" xmlns="http://www.w3.org/2000/svg">
<path fill-rule="evenodd" clip-rule="evenodd" d="M2.24549 5.10001H7.6418C7.73552 5.10001 7.79964 5.15674 7.79964 5.20853V6.11367C7.79964 6.41703 8.04381 6.66366 8.3447 6.66366H15.1443C15.2381 6.66366 15.3022 6.72038 15.3022 6.8141L15.3589 7.57126V7.57373H4.16182C3.52798 7.57373 3.00758 8.07686 2.97799 8.70824L2.48719 11.3669L2.09011 5.20853C2.09011 5.1592 2.15177 5.10001 2.24549 5.10001ZM17.147 7.5762H16.4367C16.4392 7.5466 16.449 7.51947 16.4466 7.48987L16.3898 6.77464C16.3898 6.10627 15.83 5.56368 15.1419 5.56368H8.88975V5.211C8.88975 4.54262 8.3299 4.00003 7.6418 4.00003H2.24549C1.56232 3.9951 1.00493 4.54262 1 5.22333V5.24552L1.67824 15.7668C1.67824 15.7792 1.67577 15.7915 1.67577 15.8063C1.67577 16.4623 2.2085 17 2.86207 17H15.867C16.5008 17 17.0212 16.4944 17.0508 15.8655L18.3259 8.86855C18.3333 8.83648 18.3358 8.80196 18.3358 8.76743C18.3333 8.10892 17.8006 7.5762 17.147 7.5762Z" fill="#86888C"/>
</svg>
