<svg width="24" height="24" viewBox="0 0 24 24" fill="none" xmlns="http://www.w3.org/2000/svg">
<path fill-rule="evenodd" clip-rule="evenodd" d="M3.43711 6.26924H9.66361C9.77175 6.26924 9.84574 6.3347 9.84574 6.39446V7.43885C9.84574 7.78888 10.1275 8.07345 10.4747 8.07345H18.3204C18.4285 8.07345 18.5025 8.1389 18.5025 8.24704L18.568 9.12069V9.12353H5.64826C4.9169 9.12353 4.31644 9.70407 4.28229 10.4326L3.71599 13.5003L3.25782 6.39446C3.25782 6.33754 3.32897 6.26924 3.43711 6.26924ZM20.6311 9.12638H19.8116C19.8144 9.09223 19.8258 9.06093 19.823 9.02678L19.7575 8.20151C19.7575 7.43031 19.1115 6.80425 18.3175 6.80425H11.1036V6.3973C11.1036 5.6261 10.4576 5.00004 9.66361 5.00004H3.43711C2.64883 4.99435 2.00569 5.6261 2 6.41153V6.43714L2.78258 18.5771C2.78258 18.5914 2.77974 18.6056 2.77974 18.6227C2.77974 19.3796 3.39442 20 4.14854 20H19.1542C19.8856 20 20.486 19.4166 20.5202 18.691L21.9914 10.6176C22 10.5806 22.0028 10.5407 22.0028 10.5009C22 9.74106 21.3853 9.12638 20.6311 9.12638Z" fill="#86888C"/>
</svg>
