<svg width="28" height="28" viewBox="0 0 28 28" fill="none" xmlns="http://www.w3.org/2000/svg">
<path fill-rule="evenodd" clip-rule="evenodd" d="M22.9061 19.1019H19.5766C19.2726 19.1019 18.9721 19.1599 18.6853 19.259L17.9579 18.074C18.0945 17.8657 18.214 17.6403 18.296 17.391L19.3136 14.2629C19.4195 13.9419 19.457 13.6107 19.4468 13.2863L20.8776 12.6853C21.0552 12.9448 21.2738 13.1736 21.5231 13.3478L24.1833 15.284C24.2618 15.3421 24.354 15.3762 24.436 15.4274C24.3164 16.9095 24.0023 18.1457 23.5549 19.1838C23.3398 19.136 23.1246 19.1019 22.9061 19.1019ZM16.9539 21.0245L15.9363 24.1525C15.9089 24.2413 15.9021 24.3369 15.8816 24.4291C15.4138 24.4769 14.9869 24.4974 14.6181 24.5009H14.3927C14.099 24.5009 13.7951 24.4974 13.5322 24.4906C13.0848 24.4804 12.5452 24.4394 11.9579 24.3574C11.9374 24.2755 11.934 24.1901 11.9067 24.1081L10.8924 20.9835C10.79 20.6591 10.6192 20.3586 10.4041 20.0922L11.1144 19.0199C11.4798 19.2043 11.8828 19.3204 12.313 19.3204H15.646C16.0558 19.3204 16.4451 19.2248 16.8002 19.0643L17.4525 20.1298C17.2305 20.3961 17.0529 20.7001 16.9539 21.0245ZM9.18497 19.218C8.88446 19.1087 8.56688 19.0472 8.24929 19.0507H4.94024C4.77974 19.0507 4.62265 19.0677 4.46898 19.095C4.00797 18.0467 3.68697 16.8036 3.56403 15.3147C3.62891 15.2772 3.69721 15.2464 3.75868 15.2055L6.41207 13.276C6.66135 13.1019 6.87649 12.8765 7.05407 12.6272L8.55322 13.3204C8.54297 13.6346 8.58395 13.9522 8.6864 14.2629L9.87479 17.9237H9.93625C9.95333 17.9511 9.97382 17.9715 9.99089 17.9989L9.18497 19.218ZM9.28059 4.29141C9.41036 4.43825 9.54013 4.58509 9.70063 4.7012L12.354 6.62721C12.6204 6.82869 12.9243 6.9687 13.2487 7.05748V8.79909C12.9243 8.88446 12.6204 9.01764 12.3643 9.21229L9.70404 11.1451C9.4206 11.3466 9.1918 11.5993 9.0074 11.8759L7.55265 11.2032C7.57997 10.8446 7.5424 10.4861 7.42971 10.1582L6.41548 7.03017C6.34035 6.79454 6.22425 6.57598 6.09106 6.37109C7.04724 5.37735 8.16392 4.72168 9.28059 4.29141ZM14.7513 7.0609C15.0723 6.97211 15.3762 6.8321 15.6357 6.63745L18.296 4.70461C18.4633 4.58509 18.5965 4.43142 18.7297 4.28458C19.8429 4.71144 20.9528 5.37052 21.9055 6.36767C21.745 6.59306 21.6118 6.84234 21.5265 7.11212L20.5122 10.2334C20.3995 10.5646 20.362 10.9163 20.3859 11.2715L18.9789 11.8623C18.798 11.5925 18.576 11.35 18.2994 11.1554L15.6426 9.22595C15.3796 9.02789 15.0723 8.89471 14.7513 8.80933V7.0609ZM14.5498 2.00341C14.4269 2.00341 14.3039 2 14.1776 2C13.9249 2 13.6722 2.00341 13.4502 2.00683C11.1622 2.04781 2 2.90837 2 13.9693C2 25.0028 11.1451 25.9317 13.498 25.9898C13.7712 25.9966 14.0888 26 14.3927 26H14.6352C17.0427 25.9795 26 25.1531 26 14.041C26 2.90837 16.9573 2.03756 14.5498 2.00341Z" fill="#86888C"/>
</svg>
