<svg width="40" height="40" viewBox="0 0 40 40" fill="none" xmlns="http://www.w3.org/2000/svg">
<path fill-rule="evenodd" clip-rule="evenodd" d="M33.3591 27.6528H28.3648C27.9089 27.6528 27.4582 27.7399 27.0279 27.8884L25.9368 26.111C26.1417 25.7985 26.321 25.4604 26.4439 25.0865L27.9704 20.3944C28.1292 19.9129 28.1855 19.416 28.1702 18.9294L30.3164 18.0279C30.5828 18.4172 30.9106 18.7604 31.2846 19.0216L35.2749 21.926C35.3927 22.0131 35.531 22.0643 35.654 22.1411C35.4747 24.3643 35.0034 26.2186 34.3324 27.7758C34.0097 27.704 33.687 27.6528 33.3591 27.6528ZM24.4308 30.5367L22.9044 35.2288C22.8634 35.362 22.8532 35.5054 22.8224 35.6437C22.1207 35.7154 21.4804 35.7462 20.9271 35.7513H20.5891C20.1485 35.7513 19.6927 35.7462 19.2982 35.7359C18.6272 35.7205 17.8179 35.6591 16.9368 35.5361C16.9061 35.4132 16.901 35.2851 16.86 35.1622L15.3386 30.4752C15.185 29.9886 14.9289 29.5378 14.6061 29.1383L15.6716 27.5299C16.2197 27.8065 16.8241 27.9806 17.4696 27.9806H22.469C23.0837 27.9806 23.6676 27.8372 24.2003 27.5965L25.1787 29.1947C24.8458 29.5942 24.5794 30.0501 24.4308 30.5367ZM12.7775 27.827C12.3267 27.6631 11.8503 27.5709 11.3739 27.576H6.41036C6.16961 27.576 5.93398 27.6016 5.70347 27.6426C5.01195 26.07 4.53045 24.2055 4.34604 21.9721C4.44337 21.9158 4.54582 21.8697 4.63802 21.8082L8.6181 18.9141C8.99203 18.6528 9.31474 18.3147 9.5811 17.9408L11.8298 18.9806C11.8145 19.4519 11.8759 19.9283 12.0296 20.3944L13.8122 25.8856H13.9044C13.93 25.9266 13.9607 25.9573 13.9863 25.9983L12.7775 27.827ZM12.9209 5.43711C13.1155 5.65737 13.3102 5.87763 13.5509 6.05179L17.531 8.94081C17.9306 9.24303 18.3865 9.45305 18.8731 9.58623V12.1986C18.3865 12.3267 17.9306 12.5265 17.5464 12.8184L13.5561 15.7177C13.1309 16.0199 12.7877 16.399 12.5111 16.8139L10.329 15.8048C10.3699 15.2669 10.3136 14.7291 10.1446 14.2373L8.62322 9.54525C8.51053 9.1918 8.33637 8.86397 8.1366 8.55663C9.57086 7.06602 11.2459 6.08253 12.9209 5.43711ZM21.1269 9.59135C21.6084 9.45817 22.0643 9.24815 22.4536 8.95618L26.4439 6.05691C26.6949 5.87763 26.8947 5.64713 27.0945 5.42686C28.7644 6.06716 30.4291 7.05578 31.8583 8.55151C31.6175 8.88958 31.4178 9.26352 31.2897 9.66818L29.7684 14.35C29.5993 14.8469 29.543 15.3745 29.5788 15.9072L27.4684 16.7934C27.1969 16.3887 26.864 16.025 26.4491 15.7331L22.4639 12.8389C22.0694 12.5418 21.6084 12.3421 21.1269 12.214V9.59135ZM20.8247 2.00512C20.6403 2.00512 20.4559 2 20.2664 2C19.8873 2 19.5083 2.00512 19.1753 2.01024C15.7433 2.07171 2 3.36255 2 19.9539C2 36.5043 15.7177 37.8976 19.247 37.9846C19.6568 37.9949 20.1332 38 20.5891 38H20.9528C24.564 37.9693 38 36.7297 38 20.0615C38 3.36255 24.436 2.05635 20.8247 2.00512Z" fill="#86888C"/>
</svg>
