<svg width="20" height="20" viewBox="0 0 20 20" fill="none" xmlns="http://www.w3.org/2000/svg">
<path fill-rule="evenodd" clip-rule="evenodd" d="M15.9374 13.4013H13.7177C13.5151 13.4013 13.3147 13.44 13.1235 13.506L12.6386 12.716C12.7297 12.5771 12.8093 12.4269 12.864 12.2607L13.5424 10.1753C13.613 9.9613 13.638 9.74047 13.6312 9.52419L14.5851 9.12351C14.7035 9.29653 14.8492 9.44906 15.0154 9.56517L16.7888 10.856C16.8412 10.8947 16.9027 10.9175 16.9573 10.9516C16.8776 11.9397 16.6682 12.7638 16.37 13.4559C16.2265 13.424 16.0831 13.4013 15.9374 13.4013ZM11.9693 14.683L11.2908 16.7684C11.2726 16.8275 11.2681 16.8913 11.2544 16.9528C10.9425 16.9846 10.6579 16.9983 10.4121 17.0006H10.2618C10.066 17.0006 9.8634 16.9983 9.68811 16.9937C9.38987 16.9869 9.03017 16.9596 8.63859 16.905C8.62493 16.8503 8.62265 16.7934 8.60444 16.7388L7.92829 14.6557C7.85999 14.4394 7.74616 14.239 7.60273 14.0615L8.07627 13.3466C8.31986 13.4696 8.5885 13.547 8.87536 13.547H11.0973C11.3705 13.547 11.6301 13.4832 11.8668 13.3762L12.3017 14.0865C12.1537 14.2641 12.0353 14.4667 11.9693 14.683ZM6.78998 13.4787C6.58964 13.4058 6.37792 13.3648 6.16619 13.3671H3.96016C3.85316 13.3671 3.74844 13.3785 3.64599 13.3967C3.33865 12.6978 3.12464 11.8691 3.04269 10.8765C3.08594 10.8515 3.13147 10.831 3.17245 10.8036L4.94138 9.51736C5.10757 9.40125 5.251 9.251 5.36938 9.0848L6.36881 9.54696C6.36198 9.7564 6.3893 9.96813 6.4576 10.1753L7.24986 12.6158H7.29084C7.30222 12.634 7.31588 12.6477 7.32726 12.6659L6.78998 13.4787ZM6.85373 3.5276C6.94024 3.6255 7.02675 3.72339 7.13375 3.8008L8.90268 5.0848C9.08025 5.21912 9.28287 5.31246 9.49915 5.37166V6.53273C9.28287 6.58964 9.08025 6.67843 8.90951 6.8082L7.13603 8.09676C6.94707 8.23108 6.79454 8.39955 6.6716 8.58395L5.70176 8.13546C5.71998 7.89641 5.69493 7.65737 5.61981 7.43882L4.94365 5.35344C4.89357 5.19636 4.81616 5.05065 4.72738 4.91406C5.36483 4.25157 6.10928 3.81446 6.85373 3.5276ZM10.5009 5.37393C10.7149 5.31474 10.9175 5.2214 11.0905 5.09163L12.864 3.80307C12.9755 3.72339 13.0643 3.62094 13.1531 3.52305C13.8953 3.80763 14.6352 4.24701 15.2703 4.91178C15.1633 5.06204 15.0746 5.22823 15.0176 5.40808L14.3415 7.4889C14.2664 7.70973 14.2413 7.94422 14.2573 8.18099L13.3193 8.57484C13.1986 8.39499 13.0507 8.23335 12.8663 8.10359L11.095 6.8173C10.9198 6.68526 10.7149 6.59647 10.5009 6.53956V5.37393ZM10.3665 2.00228C10.2846 2.00228 10.2026 2 10.1184 2C9.94992 2 9.78145 2.00228 9.63347 2.00455C8.10814 2.03187 2 2.60558 2 9.97951C2 17.3352 8.09676 17.9545 9.66534 17.9932C9.84747 17.9977 10.0592 18 10.2618 18H10.4234C12.0285 17.9863 18 17.4354 18 10.0273C18 2.60558 11.9715 2.02504 10.3665 2.00228Z" fill="#86888C"/>
</svg>
