<svg width="20" height="20" viewBox="0 0 20 20" fill="none" xmlns="http://www.w3.org/2000/svg">
<path fill-rule="evenodd" clip-rule="evenodd" d="M6.75829 18.0234V16.3569H13.2195V18.0234H6.75829ZM6.75829 15.4781V13.8093H13.2173V15.4781H6.75829ZM6.75829 12.8303V11.1615H13.2173V12.8303H6.75829ZM17.6568 8.98271C17.9892 9.30827 18.0894 9.77044 17.9209 10.1848C17.7319 10.6447 17.2629 10.9429 16.7256 10.9429H16.12V16.8555C16.12 17.4998 15.5486 18.0212 14.8451 18.0212H14.219V10.6811C14.219 10.4056 13.9959 10.1802 13.7181 10.1802H6.25741C5.98193 10.1802 5.75654 10.4034 5.75654 10.6811V18.0234H5.05988C4.35638 18.0234 3.78493 17.4998 3.78493 16.8578V10.9452H3.27723C2.73993 10.9452 2.27093 10.647 2.08197 10.1871C1.91121 9.77044 2.01139 9.30827 2.34379 8.98271L9.06912 2.39397C9.57227 1.89993 10.4283 1.89993 10.9315 2.39397L17.6568 8.98271Z" fill="#86888C"/>
</svg>
