<svg width="40" height="40" viewBox="0 0 40 40" fill="none" xmlns="http://www.w3.org/2000/svg">
<path fill-rule="evenodd" clip-rule="evenodd" d="M19.5902 14.4423C19.5902 15.5897 18.7194 16.5629 17.6898 16.5629H8.54638C7.51678 16.5629 6.64086 15.5897 6.64086 14.4423V8.7923C6.64086 7.66538 7.52703 6.67164 8.54638 6.67164H17.6898C18.704 6.67164 19.5902 7.66538 19.5902 8.7923V14.4423ZM35.7922 13.9351C35.7922 13.9505 35.782 13.9659 35.782 13.9812V14.2425C35.741 15.0672 35.4439 16.4144 33.3847 16.4502L33.1132 16.4554H33.0108C30.6084 16.4195 30.6084 14.555 30.6084 13.8532C30.6084 13.1514 30.6084 11.2971 32.9647 11.2818H33.0466L33.3437 11.2869C34.2248 11.3074 34.778 11.5635 35.1417 11.9118L35.2288 12.004C35.782 12.6187 35.7871 13.4639 35.7871 13.8839C35.7922 13.889 35.7922 13.9147 35.7922 13.9351ZM37.9897 14.0581C37.9897 13.9915 38 13.9351 38 13.8686C38 12.2755 37.5185 11.2203 36.8679 10.5032C36.8628 10.498 36.8628 10.498 36.8628 10.4929L36.8474 10.4776C36.8013 10.4263 36.7552 10.3802 36.704 10.3341L28.7797 2.32788C28.3545 1.8976 27.6528 1.88735 27.2174 2.31763C26.782 2.74791 26.782 3.44455 27.2071 3.87483L32.3705 9.08939C31.0079 9.24307 28.3955 10.037 28.3955 13.8327C28.3955 18.2789 32.0119 18.6272 32.9749 18.6426H33.1081C33.2157 18.6426 33.3232 18.6426 33.4154 18.6375C33.8355 18.6272 34.8241 18.5504 35.7769 18.0484L35.7871 32.8572C35.7871 35.362 34.0404 35.7718 33.0005 35.7923H32.6676C31.6277 35.7769 29.8861 35.3722 29.8861 32.8367V25.7524C29.8861 22.9864 27.6323 20.7376 24.8611 20.7376H23.9852V4.55098C23.9852 3.23453 22.7558 2.03078 21.4086 2.03078H4.57655C3.22937 2.03078 2 3.23453 2 4.55098V35.4798C2 36.8219 3.20376 38 4.57655 38H21.4086C22.7814 38 23.9852 36.8219 23.9852 35.4798V22.9454H24.8611C26.4132 22.9454 27.6784 24.2055 27.6784 25.7524V32.8367C27.6784 36.5965 30.3523 37.9693 32.7803 38H33.0415C35.3261 37.959 37.9948 36.5862 37.9948 32.8572L37.9897 14.0581Z" fill="#86888C"/>
</svg>
