<svg width="28" height="28" viewBox="0 0 28 28" fill="none" xmlns="http://www.w3.org/2000/svg">
<path fill-rule="evenodd" clip-rule="evenodd" d="M13.7268 10.2948C13.7268 11.0598 13.1463 11.7086 12.4599 11.7086H6.36425C5.67786 11.7086 5.09391 11.0598 5.09391 10.2948V6.5282C5.09391 5.77692 5.68469 5.11443 6.36425 5.11443H12.4599C13.136 5.11443 13.7268 5.77692 13.7268 6.5282V10.2948ZM24.5281 9.95677C24.5281 9.96701 24.5213 9.97725 24.5213 9.9875V10.1617C24.494 10.7115 24.2959 11.6096 22.9231 11.6335L22.7421 11.6369H22.6738C21.0723 11.613 21.0723 10.37 21.0723 9.90213C21.0723 9.43428 21.0723 8.19809 22.6431 8.18784H22.6978L22.8958 8.19126C23.4832 8.20492 23.852 8.37566 24.0945 8.60788L24.1525 8.66935C24.5213 9.07913 24.5247 9.64259 24.5247 9.92262C24.5281 9.92603 24.5281 9.94311 24.5281 9.95677ZM25.9931 10.0387C25.9931 9.99433 26 9.95677 26 9.91237C26 8.85034 25.679 8.14686 25.2453 7.66878C25.2419 7.66536 25.2419 7.66536 25.2419 7.66195L25.2316 7.6517C25.2009 7.61755 25.1701 7.58682 25.136 7.55609L19.8531 2.21858C19.5697 1.93173 19.1019 1.9249 18.8116 2.21175C18.5213 2.49861 18.5213 2.96303 18.8048 3.24989L22.247 6.72626C21.3386 6.82871 19.597 7.35802 19.597 9.88847C19.597 12.8526 22.0079 13.0848 22.6499 13.0951H22.7387C22.8104 13.0951 22.8822 13.0951 22.9436 13.0917C23.2236 13.0848 23.8827 13.0336 24.5179 12.6989L24.5247 22.5714C24.5247 24.2413 23.3602 24.5145 22.667 24.5282H22.4451C21.7518 24.5179 20.5908 24.2482 20.5908 22.5578V17.835C20.5908 15.9909 19.0882 14.4918 17.2407 14.4918H16.6568V3.70065C16.6568 2.82302 15.8372 2.02052 14.9391 2.02052H3.7177C2.81958 2.02052 2 2.82302 2 3.70065V24.3199C2 25.2146 2.8025 26 3.7177 26H14.9391C15.8543 26 16.6568 25.2146 16.6568 24.3199V15.9636H17.2407C18.2754 15.9636 19.1189 16.8037 19.1189 17.835V22.5578C19.1189 25.0643 20.9015 25.9795 22.5202 26H22.6943C24.2174 25.9727 25.9966 25.0575 25.9966 22.5714L25.9931 10.0387Z" fill="#86888C"/>
</svg>
