<svg width="20" height="20" viewBox="0 0 20 20" fill="none" xmlns="http://www.w3.org/2000/svg">
<path fill-rule="evenodd" clip-rule="evenodd" d="M2 7.4358C2 6.81595 2.47898 6.31584 3.073 6.31584H3.29135V14.8857H3.073C2.48132 14.8857 2 14.3833 2 13.7658V7.4358ZM17.4282 6.31349C18.0198 6.31349 18.5012 6.81595 18.5012 7.43345V13.7611C18.5012 14.3809 18.0198 14.881 17.4282 14.881H17.2262V6.31114H17.4282V6.31349ZM7.0668 6.21957V8.57923H7.07854V12.62H7.0668V14.9797C7.0668 15.5995 6.58783 16.0996 5.99381 16.0996H5.07342C4.49349 16.0996 4.02156 15.6159 4.00512 15.0149V6.1867C4.02156 5.58329 4.49349 5.09962 5.07342 5.09962H5.99381C6.58548 5.09727 7.0668 5.59972 7.0668 6.21957ZM7.79231 12.2913V8.90559H12.7323V12.2913H7.79231ZM16.5101 6.21957V6.31349H16.5125V14.8834H16.5101V14.9773C16.5101 15.5972 16.0288 16.0973 15.4371 16.0973H14.5167C13.9251 16.0973 13.4437 15.5948 13.4437 14.9773V6.21957C13.4437 5.59972 13.9227 5.09962 14.5167 5.09962H15.4371C16.0312 5.09727 16.5101 5.59972 16.5101 6.21957Z" fill="#86888C"/>
</svg>
