<svg width="24" height="24" viewBox="0 0 24 24" fill="none" xmlns="http://www.w3.org/2000/svg">
<path fill-rule="evenodd" clip-rule="evenodd" d="M2 8.86056C2 8.12801 2.56606 7.53697 3.26809 7.53697H3.52615V17.665H3.26809C2.56884 17.665 2 17.0712 2 16.3414V8.86056ZM20.2333 7.5342C20.9325 7.5342 21.5014 8.12801 21.5014 8.85778V16.3359C21.5014 17.0684 20.9325 17.6595 20.2333 17.6595H19.9947V7.53142H20.2333V7.5342ZM7.98804 7.4232V10.2119H8.00192V14.9873H7.98804V17.776C7.98804 18.5086 7.42198 19.0996 6.71995 19.0996H5.63223C4.94685 19.0996 4.38911 18.528 4.36969 17.8176V7.38436C4.38911 6.67123 4.94685 6.09962 5.63223 6.09962H6.71995C7.41921 6.09684 7.98804 6.69065 7.98804 7.4232ZM8.84546 14.5989V10.5976H14.6837V14.5989H8.84546ZM19.1483 7.4232V7.5342H19.1511V17.6623H19.1483V17.7732C19.1483 18.5058 18.5795 19.0968 17.8802 19.0968H16.7925C16.0933 19.0968 15.5244 18.503 15.5244 17.7732V7.4232C15.5244 6.69065 16.0905 6.09962 16.7925 6.09962H17.8802C18.5823 6.09684 19.1483 6.69065 19.1483 7.4232Z" fill="#86888C"/>
</svg>
