<svg width="28" height="28" viewBox="0 0 28 28" fill="none" xmlns="http://www.w3.org/2000/svg">
<path fill-rule="evenodd" clip-rule="evenodd" d="M2 10.4977C2 9.5961 2.69669 8.86867 3.56072 8.86867H3.87833V21.334H3.56072C2.70011 21.334 2 20.6031 2 19.7049V10.4977ZM24.441 8.86525C25.3016 8.86525 26.0017 9.5961 26.0017 10.4943V19.6981C26.0017 20.5997 25.3016 21.3271 24.441 21.3271H24.1473V8.86184H24.441V8.86525ZM9.3699 8.72865V12.1609H9.38697V18.0384H9.3699V21.4706C9.3699 22.3722 8.67321 23.0996 7.80917 23.0996H6.47043C5.62689 23.0996 4.94045 22.3961 4.91654 21.5218V8.68084C4.94045 7.80314 5.62689 7.09962 6.47043 7.09962H7.80917C8.66979 7.09621 9.3699 7.82705 9.3699 8.72865ZM10.4252 17.5602V12.6356H17.6107V17.5602H10.4252ZM23.1056 8.72865V8.86525H23.1091V21.3306H23.1056V21.4672C23.1056 22.3688 22.4055 23.0962 21.5449 23.0962H20.2062C19.3456 23.0962 18.6455 22.3654 18.6455 21.4672V8.72865C18.6455 7.82705 19.3421 7.09962 20.2062 7.09962H21.5449C22.4089 7.09621 23.1056 7.82705 23.1056 8.72865Z" fill="#86888C"/>
</svg>
