<svg width="40" height="40" viewBox="0 0 40 40" fill="none" xmlns="http://www.w3.org/2000/svg">
<path fill-rule="evenodd" clip-rule="evenodd" d="M24.3806 31.2802C24.3806 30.7622 24.3089 30.2904 24.1655 29.8647C25.7327 29.4287 26.6649 28.1414 26.6649 26.2951C26.6649 25.7771 26.588 25.3001 26.4497 24.8744C28.0016 24.4334 28.9235 23.1512 28.9235 21.3151C28.9235 20.8638 28.8672 20.4432 28.7596 20.0637H34.0656C36.5035 20.0637 38.0195 18.5661 38.0195 16.1556C38.0195 13.8374 36.6111 12.4168 34.1476 12.2578H20.565C21.62 11.6372 22.3576 11.0782 22.8902 10.4115C23.4177 9.75499 23.6789 8.97029 23.6789 8.20098C23.6789 7.46245 23.4382 6.73417 22.9517 6.12898C21.999 4.93912 20.3755 4.64678 18.8134 5.38019C16.1655 6.62647 11.9094 8.72411 8.48816 10.4115C6.35756 11.4628 4.51377 12.3706 3.96064 12.6271C3.37677 12.8938 2.01953 13.5246 2.01953 14.9555V29.2133C2.01953 31.0135 2.58291 32.547 3.60212 33.5369C4.6162 34.5216 6.0349 35.0191 7.81211 35.0191H20.606C22.9363 35.0088 24.3806 33.583 24.3806 31.2802Z" fill="#86888C"/>
</svg>
