<svg width="28" height="28" viewBox="0 0 28 28" fill="none" xmlns="http://www.w3.org/2000/svg">
<path fill-rule="evenodd" clip-rule="evenodd" d="M11.6596 21.5106C11.6596 21.1657 11.7052 20.8516 11.7962 20.5681C10.8012 20.2779 10.2093 19.4208 10.2093 18.1914C10.2093 17.8465 10.2581 17.529 10.3459 17.2455C9.36059 16.9519 8.77526 16.0982 8.77526 14.8757C8.77526 14.5752 8.81103 14.2951 8.87932 14.0425H5.51042C3.96254 14.0425 3 13.0453 3 11.4404C3 9.89689 3.89425 8.951 5.45839 8.84514H14.0823C13.4124 8.43195 12.9441 8.05973 12.6059 7.61581C12.271 7.17872 12.1051 6.65625 12.1051 6.14403C12.1051 5.6523 12.258 5.1674 12.5669 4.76446C13.1717 3.97222 14.2026 3.77758 15.1944 4.2659C16.8756 5.09569 19.5779 6.49234 21.7501 7.61581C23.1028 8.31584 24.2735 8.92026 24.6247 9.091C24.9954 9.26857 25.8571 9.68859 25.8571 10.6413V20.1345C25.8571 21.333 25.4994 22.3541 24.8523 23.0131C24.2085 23.6688 23.3077 24 22.1793 24H14.0562C12.5767 23.9932 11.6596 23.0439 11.6596 21.5106Z" fill="#86888C"/>
</svg>
