<svg width="40" height="40" viewBox="0 0 40 40" fill="none" xmlns="http://www.w3.org/2000/svg">
<path fill-rule="evenodd" clip-rule="evenodd" d="M8.7387 24.3611C9.25671 24.3611 9.72855 24.2894 10.1542 24.146C10.5902 25.7132 11.8775 26.6453 13.7238 26.6453C14.2418 26.6453 14.7188 26.5685 15.1445 26.4302C15.5855 27.9821 16.8677 28.904 18.7038 28.904C19.1551 28.904 19.5757 28.8476 19.9552 28.7401V34.0461C19.9552 36.484 21.4528 38 23.8633 38C26.1815 38 27.6021 36.5915 27.7611 34.128V20.5455C28.3817 21.6005 28.9407 22.338 29.6075 22.8707C30.2639 23.3982 31.0486 23.6594 31.8179 23.6594C32.5565 23.6594 33.2848 23.4187 33.8899 22.9321C35.0798 21.9795 35.3721 20.356 34.6387 18.7939C33.3925 16.146 31.2948 11.8899 29.6075 8.46863C28.5561 6.33803 27.6483 4.49424 27.3919 3.9411C27.1252 3.35723 26.4943 2 25.0634 2H10.8056C9.0054 2 7.47191 2.56338 6.48207 3.58259C5.49735 4.59667 4.99987 6.01537 4.99987 7.79258V20.5864C5.01013 22.9168 6.43591 24.3611 8.7387 24.3611Z" fill="#86888C"/>
</svg>
