<svg width="24" height="24" viewBox="0 0 24 24" fill="none" xmlns="http://www.w3.org/2000/svg">
<path fill-rule="evenodd" clip-rule="evenodd" d="M9.36069 19.884C9.36069 19.5909 9.39939 19.3238 9.47678 19.0829C8.63098 18.8362 8.12792 18.1076 8.12792 17.0627C8.12792 16.7696 8.16938 16.4996 8.24401 16.2587C7.4065 16.0091 6.90897 15.2834 6.90897 14.2443C6.90897 13.9889 6.93937 13.7509 6.99742 13.5361H4.13385C2.81816 13.5361 2 12.6885 2 11.3243C2 10.0124 2.76012 9.20835 4.08963 9.11837H11.4199C10.8505 8.76715 10.4525 8.45077 10.165 8.07344C9.88033 7.70191 9.73937 7.25782 9.73937 6.82243C9.73937 6.40446 9.86928 5.99229 10.1319 5.64979C10.646 4.97639 11.5222 4.81094 12.3652 5.22601C13.7942 5.93134 16.0912 7.11849 17.9376 8.07344C19.0874 8.66847 20.0825 9.18222 20.381 9.32735C20.6961 9.47829 21.4286 9.8353 21.4286 10.6451V18.7143C21.4286 19.7331 21.1245 20.601 20.5745 21.1612C20.0272 21.7184 19.2615 22 18.3024 22H11.3978C10.1402 21.9942 9.36069 21.1873 9.36069 19.884Z" fill="#86888C"/>
</svg>
