<svg width="20" height="20" viewBox="0 0 20 20" fill="none" xmlns="http://www.w3.org/2000/svg">
<path fill-rule="evenodd" clip-rule="evenodd" d="M15.1886 8.06174C14.9584 8.06174 14.7487 8.09361 14.5595 8.15735C14.3657 7.4608 13.7936 7.04652 12.973 7.04652C12.7428 7.04652 12.5308 7.08067 12.3416 7.14213C12.1456 6.45241 11.5757 6.04268 10.7597 6.04268C10.5591 6.04268 10.3722 6.06772 10.2035 6.11552V3.75729C10.2035 2.67378 9.53791 2 8.46657 2C7.43627 2 6.80487 2.62598 6.73421 3.72087V9.75758C6.4584 9.28866 6.20994 8.96088 5.91361 8.72414C5.62184 8.48969 5.27309 8.37359 4.93118 8.37359C4.60294 8.37359 4.27926 8.48058 4.01029 8.69683C3.48146 9.12022 3.35153 9.8418 3.67749 10.5361C4.23139 11.7129 5.16368 13.6045 5.91361 15.1251C6.38089 16.072 6.78435 16.8914 6.89833 17.1373C7.01686 17.3968 7.29723 18 7.93319 18H14.27C15.0701 18 15.7516 17.7496 16.1916 17.2966C16.6292 16.8459 16.8503 16.2154 16.8503 15.4255V9.73937C16.8458 8.70366 16.2121 8.06174 15.1886 8.06174Z" fill="#86888C"/>
</svg>
