<svg width="28" height="28" viewBox="0 0 28 28" fill="none" xmlns="http://www.w3.org/2000/svg">
<path fill-rule="evenodd" clip-rule="evenodd" d="M16.9836 21.5202C16.9836 21.1749 16.9358 20.8603 16.8401 20.5765C17.885 20.2859 18.5064 19.4277 18.5064 18.1968C18.5064 17.8515 18.4552 17.5335 18.363 17.2497C19.3976 16.9557 20.0122 16.1009 20.0122 14.8768C20.0122 14.5759 19.9746 14.2956 19.9029 14.0426H23.4402C25.0655 14.0426 26.0762 13.0442 26.0762 11.4372C26.0762 9.89171 25.1372 8.94461 23.4949 8.83861H14.4398C15.1432 8.4249 15.6349 8.05221 15.99 7.60772C16.3416 7.17007 16.5158 6.64694 16.5158 6.13407C16.5158 5.64171 16.3553 5.15619 16.0309 4.75274C15.3958 3.95949 14.3135 3.7646 13.2721 4.25354C11.5068 5.08439 8.66943 6.48282 6.38859 7.60772C4.96819 8.30865 3.739 8.91384 3.37024 9.08479C2.981 9.26259 2.07617 9.68314 2.07617 10.6371V20.1423C2.07617 21.3424 2.45176 22.3648 3.13123 23.0247C3.80729 23.6811 4.75308 24.0128 5.93789 24.0128H14.4671C16.0207 24.0059 16.9836 23.0554 16.9836 21.5202Z" fill="#86888C"/>
</svg>
