<svg width="40" height="40" viewBox="0 0 40 40" fill="none" xmlns="http://www.w3.org/2000/svg">
<path fill-rule="evenodd" clip-rule="evenodd" d="M15.8554 33.017C15.8554 32.4652 15.9283 31.9625 16.0739 31.509C14.4818 31.0446 13.5349 29.6732 13.5349 27.7063C13.5349 27.1545 13.613 26.6463 13.7534 26.1929C12.1769 25.723 11.2404 24.3571 11.2404 22.4011C11.2404 21.9203 11.2976 21.4722 11.4069 21.0679H6.01667C3.54007 21.0679 2 19.4725 2 16.9046C2 14.435 3.43081 12.9216 5.93342 12.7522H19.7316C18.6598 12.0911 17.9106 11.4956 17.3695 10.7853C16.8336 10.0859 16.5682 9.25001 16.5682 8.43045C16.5682 7.64369 16.8128 6.86784 17.307 6.22313C18.2748 4.95556 19.9241 4.64413 21.511 5.42543C24.2009 6.75311 28.5246 8.98775 32.0001 10.7853C34.1645 11.9054 36.0376 12.8724 36.5995 13.1456C37.1926 13.4297 38.5714 14.1017 38.5714 15.6261V30.8151C38.5714 32.7329 37.9991 34.3665 36.9637 35.421C35.9335 36.47 34.4923 37 32.6869 37H19.69C17.3226 36.9891 15.8554 35.4702 15.8554 33.017Z" fill="#86888C"/>
</svg>
