<svg width="24" height="24" viewBox="0 0 24 24" fill="none" xmlns="http://www.w3.org/2000/svg">
<path fill-rule="evenodd" clip-rule="evenodd" d="M14.7666 18.2668C14.7666 17.979 14.7267 17.7169 14.6471 17.4804C15.5177 17.2382 16.0356 16.523 16.0356 15.4973C16.0356 15.2095 15.9929 14.9445 15.9161 14.708C16.7782 14.463 17.2904 13.7507 17.2904 12.7306C17.2904 12.4799 17.2591 12.2462 17.1993 12.0354H20.1471C21.5015 12.0354 22.3438 11.2034 22.3438 9.86422C22.3438 8.57634 21.5613 7.78709 20.1927 7.69876L12.6468 7.69876C13.2329 7.354 13.6427 7.04343 13.9386 6.67302C14.2316 6.30831 14.3768 5.87237 14.3768 5.44498C14.3768 5.03468 14.243 4.63008 13.9727 4.29386C13.4435 3.63283 12.5415 3.47042 11.6737 3.87787C10.2026 4.57025 7.83813 5.7356 5.93743 6.67302C4.75377 7.25712 3.72944 7.76145 3.42214 7.90391C3.09777 8.05208 2.34375 8.40254 2.34375 9.19749V17.1185C2.34375 18.1186 2.65674 18.9705 3.22297 19.5205C3.78634 20.0675 4.57451 20.3439 5.56185 20.3439H12.6695C13.9642 20.3382 14.7666 19.5461 14.7666 18.2668Z" fill="#86888C"/>
</svg>
