<svg width="20" height="20" viewBox="0 0 20 20" fill="none" xmlns="http://www.w3.org/2000/svg">
<path fill-rule="evenodd" clip-rule="evenodd" d="M12.1131 15.0134C12.1131 14.7832 12.0812 14.5735 12.0175 14.3843C12.714 14.1906 13.1283 13.6184 13.1283 12.7978C13.1283 12.5676 13.0941 12.3556 13.0327 12.1664C13.7224 11.9704 14.1321 11.4005 14.1321 10.5845C14.1321 10.3839 14.1071 10.197 14.0593 10.0283H16.4175C17.501 10.0283 18.1748 9.36273 18.1748 8.2914C18.1748 7.2611 17.5488 6.6297 16.4539 6.55904H10.4172C10.8861 6.28322 11.2139 6.03477 11.4507 5.73844C11.6851 5.44667 11.8012 5.09792 11.8012 4.75601C11.8012 4.42777 11.6942 4.10409 11.478 3.83512C11.0546 3.30629 10.333 3.17636 9.63874 3.50232C8.4619 4.05622 6.57031 4.98851 5.04975 5.73844C4.10282 6.20572 3.28336 6.60918 3.03752 6.72315C2.77802 6.84168 2.1748 7.12205 2.1748 7.75802V14.0948C2.1748 14.8949 2.4252 15.5765 2.87818 16.0164C3.32888 16.454 3.95941 16.6751 4.74928 16.6751H10.4354C11.4711 16.6706 12.1131 16.0369 12.1131 15.0134Z" fill="#86888C"/>
</svg>
