<svg width="40" height="40" viewBox="0 0 40 40" fill="none" xmlns="http://www.w3.org/2000/svg">
<path fill-rule="evenodd" clip-rule="evenodd" d="M20.9949 3C32.3665 3 39 8.74217 39 21.0051C39 33.2681 32.3665 39 20.9949 39C9.62322 39 3 33.2681 3 21.0051C3 8.74217 9.62322 3 20.9949 3ZM30.4303 24.2373C30.3944 24.2732 26.9061 28.033 21.0615 28.0945C21.0051 28.0945 15.1451 28.3045 11.5748 24.309C11.1599 23.8429 10.4479 23.8019 9.98691 24.2168C9.5259 24.6318 9.48492 25.3438 9.89983 25.8048C13.7211 30.082 19.494 30.3432 20.8412 30.3432C21 30.3432 21.0973 30.3381 21.1229 30.3381C27.9511 30.2612 31.9363 25.9226 32.1002 25.7382C32.5151 25.2772 32.4741 24.5703 32.0182 24.1554C31.5572 23.7405 30.8452 23.7712 30.4303 24.2373ZM15.5396 18.3466C16.1901 18.3466 16.7331 18.1417 17.1121 17.7575C17.4861 17.3785 17.6705 16.856 17.6705 16.2106C17.6705 14.889 16.8509 14.0694 15.5396 14.0694C14.2231 14.0694 13.4087 14.889 13.4087 16.2106C13.4087 16.856 13.5982 17.3785 13.967 17.7575C14.346 18.1366 14.889 18.3466 15.5396 18.3466ZM26.4604 18.3466C27.111 18.3466 27.654 18.1417 28.033 17.7524C28.4018 17.3734 28.5913 16.8509 28.5913 16.2055C28.5913 14.8839 27.7718 14.0643 26.4604 14.0643C25.144 14.0643 24.3295 14.8839 24.3295 16.2055C24.3295 16.8509 24.5191 17.3734 24.893 17.7524C25.2669 18.1366 25.8099 18.3466 26.4604 18.3466Z" fill="#86888C"/>
</svg>
