<svg width="28" height="28" viewBox="0 0 28 28" fill="none" xmlns="http://www.w3.org/2000/svg">
<path fill-rule="evenodd" clip-rule="evenodd" d="M14.9966 3C22.5777 3 27 6.82812 27 15.0034C27 23.1787 22.5777 27 14.9966 27C7.41548 27 3 23.1787 3 15.0034C3 6.82812 7.41548 3 14.9966 3ZM21.2869 17.1582C21.2629 17.1821 18.9374 19.6887 15.041 19.7297C15.0034 19.7297 11.0968 19.8697 8.71656 17.206C8.43995 16.8953 7.96528 16.868 7.65794 17.1446C7.3506 17.4212 7.32328 17.8958 7.59989 18.2032C10.1474 21.0546 13.996 21.2288 14.8941 21.2288C15 21.2288 15.0649 21.2254 15.082 21.2254C19.634 21.1742 22.2908 18.2817 22.4001 18.1588C22.6767 17.8515 22.6494 17.3802 22.3455 17.1036C22.0381 16.827 21.5635 16.8475 21.2869 17.1582ZM11.3597 13.2311C11.7934 13.2311 12.1554 13.0945 12.4081 12.8384C12.6574 12.5857 12.7803 12.2373 12.7803 11.8071C12.7803 10.926 12.2339 10.3796 11.3597 10.3796C10.4821 10.3796 9.9391 10.926 9.9391 11.8071C9.9391 12.2373 10.0655 12.5857 10.3113 12.8384C10.564 13.0911 10.926 13.2311 11.3597 13.2311ZM18.6403 13.2311C19.074 13.2311 19.436 13.0945 19.6887 12.8349C19.9345 12.5822 20.0609 12.2339 20.0609 11.8036C20.0609 10.9226 19.5145 10.3762 18.6403 10.3762C17.7627 10.3762 17.2197 10.9226 17.2197 11.8036C17.2197 12.2339 17.346 12.5822 17.5953 12.8349C17.8446 13.0911 18.2066 13.2311 18.6403 13.2311Z" fill="#86888C"/>
</svg>
