<svg width="28" height="28" viewBox="0 0 28 28" fill="none" xmlns="http://www.w3.org/2000/svg">
<path fill-rule="evenodd" clip-rule="evenodd" d="M14 10.5857C15.1303 10.5857 15.1303 10.111 15.1303 9.90951C15.1303 9.70803 15.1303 9.22995 14 9.22995C12.8697 9.22995 12.8697 9.70462 12.8697 9.90951C12.8697 10.1144 12.8697 10.5857 14 10.5857ZM14 8.22596C15.9226 8.22596 16.1309 9.40069 16.1309 9.9061C16.1309 10.4115 15.9226 11.5862 14 11.5862C12.0774 11.5862 11.8725 10.4115 11.8725 9.9061C11.8725 9.40069 12.0774 8.22596 14 8.22596ZM6.76722 5.27548C6.17644 5.27548 5.83495 5.06034 5.83495 4.60274C5.83495 4.14173 6.17985 3.92659 6.76722 3.92659C7.35458 3.92659 7.69949 4.14173 7.69949 4.60274C7.69949 5.06034 7.358 5.27548 6.76722 5.27548ZM20.7615 3.92659C21.3489 3.92659 21.6938 4.14173 21.6938 4.60274C21.6938 5.06034 21.3489 5.27548 20.7615 5.27548C20.1707 5.27548 19.8293 5.06034 19.8293 4.60274C19.8258 4.14173 20.1707 3.92659 20.7615 3.92659ZM21.827 15.6227C21.827 15.1616 22.1719 14.9465 22.7592 14.9465C23.3466 14.9465 23.6915 15.1616 23.6915 15.6227C23.6915 16.0803 23.3466 16.2954 22.7592 16.2954C22.1685 16.2988 21.827 16.0803 21.827 15.6227ZM14 13.7889C19.6551 13.7889 19.6551 10.8691 19.6551 9.90951C19.6551 8.94992 19.6551 6.02676 14 6.02676C8.34491 6.02676 8.34491 8.94992 8.34491 9.90951C8.34491 10.4388 8.42345 10.9237 8.57712 11.3404C8.58054 11.3438 8.57712 11.3506 8.58053 11.354C9.21571 11.1013 9.78941 11.0125 10.1616 11.2584C10.4109 11.4189 10.5612 11.675 10.5851 11.9789C10.6124 12.3034 10.4758 12.6961 10.2504 13.1059L10.2777 13.1195C11.2032 13.5635 12.4565 13.7889 14 13.7889ZM14 4.52078C20.2254 4.52078 21.1542 7.89471 21.1542 9.9061C21.1542 11.9175 20.2254 15.288 14 15.288C12.2311 15.288 10.7592 15.0148 9.63233 14.4718L9.44792 14.3796C9.42743 14.3694 9.41377 14.3489 9.39328 14.3352C8.60444 15.3051 7.7029 16.1349 7.6346 16.1964C7.20433 16.5925 6.70233 16.7906 6.18327 16.7906C5.75982 16.7906 5.32271 16.6574 4.90609 16.3876C4.27433 15.9744 4.107 15.5168 4.0831 15.206C4.05919 14.9021 4.13773 14.4411 4.66022 13.963C4.68412 13.9425 5.92715 12.8498 7.27262 12.0233C7.23506 11.9687 7.19067 11.9209 7.16676 11.8526C6.95162 11.2686 6.84235 10.6096 6.84235 9.90268C6.84576 7.89471 7.77462 4.52078 14 4.52078ZM24.4735 17.1491C24.5896 17.1491 24.7023 17.1662 24.8082 17.1901L23.1178 3.75584C23.0495 3.39386 22.7832 3.12067 22.4758 3.12067L5.5276 3.10018C5.23734 3.10018 5.00171 3.33922 5.00171 3.62949L3.19522 17.1867C3.3045 17.1628 3.41719 17.1457 3.52988 17.1457H24.4735V17.1491ZM21.8816 23.2311C22.708 23.2311 23.2203 22.7188 23.2203 21.889C23.2203 21.0626 22.708 20.547 21.8816 20.547C21.0552 20.547 20.543 21.0592 20.543 21.889C20.543 22.7154 21.0552 23.2311 21.8816 23.2311ZM25.9966 18.6312C25.9966 18.6483 26 18.6619 26 18.679V24.5663C26 25.4098 25.317 26.0996 24.4735 26.0996H3.52647C2.68298 26.0996 2 25.4132 2 24.5663V18.679C2 18.6483 2.00683 18.6244 2.00683 18.5936C2.00683 18.5731 2.00341 18.5561 2.00341 18.5356L4.00114 3.56461C3.99772 2.78942 4.68071 2.09961 5.52419 2.09961L22.4724 2.1201C23.2715 2.1201 23.9408 2.72795 24.1013 3.60217L25.959 18.3546C25.9727 18.4092 25.9761 18.4673 25.9795 18.5219L25.9898 18.6175C25.9966 18.621 25.9966 18.6278 25.9966 18.6312Z" fill="#86888C"/>
</svg>
