<svg width="40" height="40" viewBox="0 0 40 40" fill="none" xmlns="http://www.w3.org/2000/svg">
<path fill-rule="evenodd" clip-rule="evenodd" d="M11.8059 8.82999L8.13184 20.9138H4.60787C3.58515 18.667 2.78475 16.4481 2.27895 14.2683C1.26733 9.95342 2.10108 6.36516 4.61343 4.16861C6.07527 2.89427 8.06514 2.12855 10.2162 2.01677C10.4107 2.00559 10.5997 2 10.7887 2C12.8786 2 15.013 2.58687 17.014 3.71588C17.7533 4.13507 18.5203 4.58221 19.354 5.08524C19.5208 5.18025 19.7209 5.18025 19.8932 5.09082C20.7269 4.5878 21.494 4.14066 22.2388 3.71588C24.2342 2.59245 26.3742 2 28.4585 2C28.6531 2 28.8421 2.00559 29.0366 2.01677C31.1877 2.12855 33.1775 2.89427 34.6394 4.16861C37.1573 6.36516 37.9855 9.95342 36.9739 14.2683C36.4514 16.504 35.6232 18.7843 34.556 21.0927H28.125L25.6516 13.905C25.4849 13.4131 25.0235 13.0778 24.5066 13.0778H24.4732C23.9452 13.0945 23.4839 13.4523 23.3393 13.9665L21.2828 21.0871H19.254C18.7148 21.0871 18.2424 21.4448 18.0923 21.9646L17.253 24.7592L14.1515 8.95296C14.0459 8.39963 13.579 7.99162 13.0231 7.96367C12.4729 7.93013 11.9615 8.28784 11.8059 8.82999ZM26.1185 22.7359C26.2852 23.2278 26.7466 23.5631 27.2635 23.5631H33.3332C32.794 24.5636 32.2215 25.5417 31.6212 26.4974C29.5424 29.7839 27.8805 31.9078 25.0624 34.8701C25.0402 34.898 25.018 34.9204 24.9957 34.9427C24.7178 35.2333 23.7507 36.2282 22.928 36.8319C22.2221 37.3517 21.4217 37.715 20.6269 37.8882C20.399 37.9441 20.1544 37.9776 19.9043 37.9944H19.871C19.7987 38 19.7265 38 19.6542 38H19.5875C19.5097 38 19.443 37.9944 19.3763 37.9944H19.3429C19.0984 37.9832 18.8594 37.9441 18.6204 37.8882C17.7866 37.6982 17.0029 37.3405 16.3192 36.8319C15.4966 36.2338 14.5294 35.2333 14.2515 34.9427C11.389 31.9413 9.71595 29.8062 7.62603 26.4974C6.98127 25.4858 6.37541 24.4462 5.80847 23.3898H9.02672C9.56032 23.3898 10.0328 23.0321 10.1884 22.5179L12.7119 14.2124L15.819 30.0578C15.9301 30.6334 16.4304 31.047 17.0084 31.0526C17.5476 31.0526 18.0201 30.6949 18.1701 30.1751L20.1544 23.5575H22.1888C22.7335 23.5575 23.206 23.1942 23.356 22.6688L24.6011 18.3484L26.1185 22.7359ZM1.21731 20.9138H4.60787L5.81403 23.3898H1.21731C0.539197 23.3843 -0.00551614 22.8309 4.21622e-05 22.149C4.21622e-05 21.4672 0.544756 20.9138 1.21731 20.9138ZM37.8465 21.0871C38.5191 21.0871 39.0638 21.6404 39.0638 22.3223C39.0693 23.0042 38.5246 23.5575 37.8465 23.5575H33.3332L34.556 21.0815C34.556 21.0871 37.8465 21.0871 37.8465 21.0871Z" fill="#86888C"/>
</svg>
