<svg width="28" height="28" viewBox="0 0 28 28" fill="none" xmlns="http://www.w3.org/2000/svg">
<path fill-rule="evenodd" clip-rule="evenodd" d="M8.87058 6.55333L6.42123 14.6092H4.07192C3.3901 13.1113 2.8565 11.632 2.5193 10.1789C1.84489 7.30228 2.40072 4.91011 4.07562 3.44574C5.05018 2.59618 6.37676 2.0857 7.8108 2.01118C7.9405 2.00373 8.06648 2 8.19247 2C9.58575 2 11.0087 2.39124 12.3427 3.14392C12.8355 3.42338 13.3469 3.72147 13.9027 4.05682C14.0139 4.12017 14.1473 4.12017 14.2621 4.06055C14.818 3.7252 15.3293 3.42711 15.8259 3.14392C17.1562 2.39497 18.5828 2 19.9724 2C20.1021 2 20.228 2.00373 20.3577 2.01118C21.7918 2.0857 23.1184 2.59618 24.0929 3.44574C25.7715 4.91011 26.3237 7.30228 25.6492 10.1789C25.3009 11.6693 24.7488 13.1896 24.0373 14.7285H19.75L18.1011 9.93666C17.9899 9.60876 17.6823 9.38519 17.3377 9.38519H17.3155C16.9635 9.39637 16.6559 9.63484 16.5596 9.97764L15.1885 14.7247H13.836C13.4766 14.7247 13.1616 14.9632 13.0615 15.3097L12.502 17.1728L10.4343 6.6353C10.3639 6.26642 10.0526 5.99441 9.6821 5.97578C9.31525 5.95342 8.97434 6.1919 8.87058 6.55333ZM18.4123 15.8239C18.5235 16.1518 18.8311 16.3754 19.1757 16.3754H23.2221C22.8627 17.0424 22.481 17.6945 22.0808 18.3316C20.6949 20.5226 19.587 21.9385 17.7083 23.9134C17.6935 23.932 17.6786 23.9469 17.6638 23.9618C17.4785 24.1556 16.8338 24.8188 16.2854 25.2212C15.8148 25.5678 15.2812 25.81 14.7513 25.9255C14.5993 25.9627 14.4363 25.9851 14.2695 25.9963H14.2473C14.1991 26 14.151 26 14.1028 26H14.0583C14.0065 26 13.962 25.9963 13.9175 25.9963H13.8953C13.7322 25.9888 13.5729 25.9627 13.4136 25.9255C12.8577 25.7988 12.3353 25.5603 11.8795 25.2212C11.3311 24.8225 10.6863 24.1556 10.501 23.9618C8.59267 21.9609 7.4773 20.5375 6.08402 18.3316C5.65418 17.6572 5.25028 16.9641 4.87231 16.2599H7.01782C7.37355 16.2599 7.68852 16.0214 7.79227 15.6786L9.47459 10.1416L11.546 20.7052C11.6201 21.089 11.9536 21.3647 12.339 21.3684C12.6984 21.3684 13.0134 21.1299 13.1134 20.7834L14.4363 16.3717H15.7925C16.1557 16.3717 16.4706 16.1295 16.5707 15.7792L17.4007 12.8989L18.4123 15.8239ZM1.81154 14.6092H4.07192L4.87602 16.2599H1.81154C1.35947 16.2562 0.996323 15.8873 1.00003 15.4327C1.00003 14.9781 1.36317 14.6092 1.81154 14.6092ZM26.231 14.7247C26.6794 14.7247 27.0425 15.0936 27.0425 15.5482C27.0462 16.0028 26.6831 16.3717 26.231 16.3717H23.2221L24.0373 14.721C24.0373 14.7247 26.231 14.7247 26.231 14.7247Z" fill="#86888C"/>
</svg>
