<svg width="24" height="24" viewBox="0 0 24 24" fill="none" xmlns="http://www.w3.org/2000/svg">
<path fill-rule="evenodd" clip-rule="evenodd" d="M7.55882 5.79444L5.51769 12.5077H3.55993C2.99175 11.2594 2.54708 10.0267 2.26608 8.81571C1.70407 6.41857 2.16727 4.42509 3.56302 3.20478C4.37515 2.49682 5.48063 2.07142 6.67567 2.00932C6.78375 2.00311 6.88874 2 6.99373 2C8.15479 2 9.34056 2.32604 10.4522 2.95327C10.8629 3.18615 11.2891 3.43456 11.7522 3.71402C11.8449 3.76681 11.9561 3.76681 12.0518 3.71712C12.515 3.43766 12.9411 3.18926 13.3549 2.95327C14.4635 2.32914 15.6523 2 16.8103 2C16.9184 2 17.0234 2.00311 17.1315 2.00932C18.3265 2.07142 19.432 2.49682 20.2441 3.20478C21.6429 4.42509 22.103 6.41857 21.541 8.81571C21.2508 10.0578 20.7907 11.3246 20.1978 12.607H16.625L15.2509 8.61388C15.1583 8.34063 14.902 8.15432 14.6148 8.15432H14.5962C14.3029 8.16364 14.0466 8.36237 13.9663 8.64804L12.8238 12.6039H11.6967C11.3971 12.6039 11.1347 12.8027 11.0513 13.0914L10.585 14.644L8.86193 5.86275C8.80326 5.55535 8.54387 5.32868 8.23508 5.31315C7.92937 5.29452 7.64528 5.49325 7.55882 5.79444ZM15.5103 13.5199C15.6029 13.7932 15.8592 13.9795 16.1464 13.9795H19.5184C19.2189 14.5353 18.9008 15.0787 18.5673 15.6097C17.4125 17.4355 16.4892 18.6154 14.9236 20.2611C14.9112 20.2767 14.8989 20.2891 14.8865 20.3015C14.7321 20.463 14.1948 21.0157 13.7378 21.351C13.3456 21.6398 12.901 21.8416 12.4594 21.9379C12.3328 21.9689 12.1969 21.9876 12.058 21.9969H12.0394C11.9993 22 11.9591 22 11.919 22H11.8819C11.8387 22 11.8017 21.9969 11.7646 21.9969H11.7461C11.6102 21.9907 11.4774 21.9689 11.3446 21.9379C10.8814 21.8323 10.446 21.6336 10.0662 21.351C9.60922 21.0188 9.07191 20.463 8.91752 20.3015C7.32722 18.6341 6.39775 17.4479 5.23668 15.6097C4.87848 15.0477 4.5419 14.4701 4.22693 13.8832H6.01485C6.31129 13.8832 6.57377 13.6845 6.66023 13.3989L8.06215 8.78466L9.78832 17.5876C9.85008 17.9075 10.128 18.1372 10.4491 18.1404C10.7487 18.1404 11.0111 17.9416 11.0945 17.6528L12.1969 13.9764H13.3271C13.6297 13.9764 13.8922 13.7746 13.9756 13.4827L14.6673 11.0824L15.5103 13.5199ZM1.67628 12.5077H3.55993L4.23001 13.8832H1.67628C1.29955 13.8801 0.996935 13.5727 1.00002 13.1939C1.00002 12.8151 1.30264 12.5077 1.67628 12.5077ZM22.0258 12.6039C22.3995 12.6039 22.7021 12.9113 22.7021 13.2902C22.7052 13.669 22.4026 13.9764 22.0258 13.9764H19.5184L20.1978 12.6008C20.1978 12.6039 22.0258 12.6039 22.0258 12.6039Z" fill="#86888C"/>
</svg>
