<svg width="40" height="40" viewBox="0 0 40 40" fill="none" xmlns="http://www.w3.org/2000/svg">
<path fill-rule="evenodd" clip-rule="evenodd" d="M37.23 17.6442L22.1275 2.80302C21.0363 1.73233 18.9718 1.73233 17.8755 2.80302L2.773 17.6493C2.00968 18.3922 1.79452 19.4475 2.20435 20.3952C2.64493 21.4045 3.70026 22.0551 4.8939 22.0551H6.01071V35.3748C6.01071 36.8246 7.30681 38.0028 8.90518 38.0028H14.5917C15.0117 38.0131 15.3652 37.675 15.3703 37.2549V29.8573H24.7197V37.2549C24.7249 37.675 25.0732 38.0131 25.4984 38.008H30.8724C32.4708 38.008 33.7669 36.8297 33.7669 35.3799V22.0602H35.0988C36.2925 22.0602 37.3529 21.4096 37.7884 20.4004C38.2085 19.4475 37.9933 18.3922 37.23 17.6442Z" fill="#86888C"/>
</svg>
