<svg width="28" height="28" viewBox="0 0 28 28" fill="none" xmlns="http://www.w3.org/2000/svg">
<path fill-rule="evenodd" clip-rule="evenodd" d="M11.7755 24.5318H16.2211V17.2864H11.7755V24.5318ZM7.18651 3.68331V24.5318H10.3141V16.5523C10.3141 16.146 10.6419 15.8182 11.0448 15.8182H16.9518C17.3547 15.8182 17.6825 16.146 17.6825 16.5523V24.5318H20.8101V3.68331C20.8101 3.60137 20.7042 3.48528 20.6496 3.47162H7.33333C7.28895 3.48528 7.18651 3.60137 7.18651 3.68331ZM25.0474 5.5988C25.6415 5.5988 25.9932 6.16901 25.9932 7.12847V24.4703C25.9932 25.4264 25.6381 26 25.0474 26H11.0448H2.94921C2.3551 26 2 25.4298 2 24.4703V7.12847C2 6.16901 2.3551 5.5988 2.94921 5.5988H5.72855V3.6799C5.72855 2.80239 6.49338 2 7.33675 2H20.6667C21.51 2 22.2749 2.80239 22.2749 3.6799V5.59539L25.0474 5.5988ZM10.3141 10.7443C9.91805 10.7443 9.58003 10.4473 9.58003 10.0922V8.28596C9.58003 7.9411 9.92147 7.63722 10.3141 7.63722H12.4481V5.49637C12.4481 5.1003 12.752 4.75203 13.0969 4.75203H14.8929C15.2309 4.75203 15.5416 5.10713 15.5416 5.49637V7.63039H17.6756C18.0615 7.63039 18.4166 7.9411 18.4166 8.28254V10.0922C18.4166 10.4336 18.0649 10.7443 17.6756 10.7443H15.5416L15.5484 12.8852C15.5484 13.2847 15.2514 13.6227 14.8997 13.6227H13.0969C12.752 13.6227 12.4481 13.2779 12.4481 12.8852V10.7443H10.3141Z" fill="#86888C"/>
</svg>
