<svg width="20" height="20" viewBox="0 0 20 20" fill="none" xmlns="http://www.w3.org/2000/svg">
<path fill-rule="evenodd" clip-rule="evenodd" d="M8.517 17.0212H11.4807V12.1909H8.517V17.0212ZM5.45768 3.12221V17.0212H7.54275V11.7015C7.54275 11.4306 7.76127 11.2121 8.02988 11.2121H11.9678C12.2364 11.2121 12.455 11.4306 12.455 11.7015V17.0212H14.54V3.12221C14.54 3.06758 14.4695 2.99018 14.4331 2.98108H5.55556C5.52596 2.99018 5.45768 3.06758 5.45768 3.12221ZM17.3649 4.3992C17.761 4.3992 17.9954 4.77934 17.9954 5.41898V16.9802C17.9954 17.6176 17.7587 18 17.3649 18H8.02988H2.63281C2.23673 18 2 17.6199 2 16.9802V5.41898C2 4.77934 2.23673 4.3992 2.63281 4.3992H4.4857V3.11993C4.4857 2.53493 4.99559 2 5.55783 2H14.4444C15.0067 2 15.5166 2.53493 15.5166 3.11993V4.39693L17.3649 4.3992ZM7.54275 7.82956C7.2787 7.82956 7.05335 7.63153 7.05335 7.39479V6.19064C7.05335 5.96073 7.28098 5.75815 7.54275 5.75815H8.96543V4.33091C8.96543 4.06687 9.16802 3.83468 9.39792 3.83468H10.5952C10.8206 3.83468 11.0277 4.07142 11.0277 4.33091V5.75359H12.4504C12.7076 5.75359 12.9444 5.96073 12.9444 6.18836V7.39479C12.9444 7.62242 12.7099 7.82956 12.4504 7.82956H11.0277L11.0323 9.25679C11.0323 9.52312 10.8343 9.74847 10.5998 9.74847H9.39792C9.16802 9.74847 8.96543 9.51857 8.96543 9.25679V7.82956H7.54275Z" fill="#86888C"/>
</svg>
