<svg width="24" height="24" viewBox="0 0 24 24" fill="none" xmlns="http://www.w3.org/2000/svg">
<path fill-rule="evenodd" clip-rule="evenodd" d="M12.4185 2.00854C14.3765 2.05407 22.0004 2.82813 22.0004 12.0258C22.0004 21.2406 14.3679 21.9577 12.4584 21.9947C12.1852 21.9976 11.8494 22.0033 11.542 21.9976C9.53288 21.9691 2 21.2434 2 11.9689C2 2.70576 9.46458 2.01992 11.4709 2C11.7839 2 12.1283 2.00285 12.4185 2.00854ZM15.8847 6.77813H13.6906C13.4601 6.77813 13.2751 6.96595 13.2751 7.19362V10.6997H10.7196V7.19362C10.7196 6.96311 10.5318 6.77813 10.3041 6.77813H8.10997C7.87946 6.77813 7.69448 6.96595 7.69448 7.19362V16.8125C7.69448 17.043 7.88231 17.228 8.10997 17.228H10.3041C10.5346 17.228 10.7196 17.0401 10.7196 16.8125V13.1784H13.2751V16.8125C13.2751 17.043 13.463 17.228 13.6906 17.228H15.8847C16.1153 17.228 16.3002 17.0401 16.3002 16.8125V7.19362C16.3002 6.96311 16.1153 6.77813 15.8847 6.77813Z" fill="#86888C"/>
</svg>
