<svg width="28" height="28" viewBox="0 0 28 28" fill="none" xmlns="http://www.w3.org/2000/svg">
<path fill-rule="evenodd" clip-rule="evenodd" d="M14.5022 2.01024C16.8518 2.06488 26.0005 2.99376 26.0005 14.031C26.0005 25.0887 16.8415 25.9493 14.5501 25.9937C14.2222 25.9971 13.8193 26.0039 13.4504 25.9971C11.0395 25.9629 2 25.0921 2 13.9627C2 2.84692 10.9575 2.0239 13.3651 2C13.7407 2 14.1539 2.00341 14.5022 2.01024ZM18.6617 7.73375H16.0287C15.7521 7.73375 15.5302 7.95914 15.5302 8.23234V12.4396H12.4635V8.23234C12.4635 7.95573 12.2381 7.73375 11.9649 7.73375H9.33197C9.05535 7.73375 8.83338 7.95914 8.83338 8.23234V19.775C8.83338 20.0516 9.05877 20.2736 9.33197 20.2736H11.9649C12.2415 20.2736 12.4635 20.0482 12.4635 19.775V15.414H15.5302V19.775C15.5302 20.0516 15.7555 20.2736 16.0287 20.2736H18.6617C18.9383 20.2736 19.1603 20.0482 19.1603 19.775V8.23234C19.1603 7.95573 18.9383 7.73375 18.6617 7.73375Z" fill="#86888C"/>
</svg>
