<svg width="40" height="40" viewBox="0 0 40 40" fill="none" xmlns="http://www.w3.org/2000/svg">
<path fill-rule="evenodd" clip-rule="evenodd" d="M20.7534 2.01537C24.2776 2.09733 38.0007 3.49064 38.0007 20.0465C38.0007 36.633 24.2623 37.9239 20.8251 37.9905C20.3333 37.9956 19.7289 38.0059 19.1757 37.9956C15.5592 37.9444 2 36.6382 2 19.944C2 3.27037 15.4362 2.03586 19.0476 2C19.6111 2 20.2309 2.00512 20.7534 2.01537ZM26.9925 10.6006H23.0431C22.6282 10.6006 22.2952 10.9387 22.2952 11.3485V17.6594H17.6953V11.3485C17.6953 10.9336 17.3572 10.6006 16.9474 10.6006H12.9979C12.583 10.6006 12.2501 10.9387 12.2501 11.3485V28.6625C12.2501 29.0774 12.5882 29.4104 12.9979 29.4104H16.9474C17.3623 29.4104 17.6953 29.0723 17.6953 28.6625V22.1211H22.2952V28.6625C22.2952 29.0774 22.6333 29.4104 23.0431 29.4104H26.9925C27.4075 29.4104 27.7404 29.0723 27.7404 28.6625V11.3485C27.7404 10.9336 27.4075 10.6006 26.9925 10.6006Z" fill="#86888C"/>
</svg>
