<svg width="20" height="20" viewBox="0 0 20 20" fill="none" xmlns="http://www.w3.org/2000/svg">
<path fill-rule="evenodd" clip-rule="evenodd" d="M16.3768 11.2214C16.5452 11.0006 16.502 10.6841 16.2834 10.5134L13.6448 8.47581C13.465 8.33466 13.21 8.33921 13.0302 8.48264L10.0137 10.9027L9.28515 10.2083C9.10302 10.033 8.81616 10.0239 8.62265 10.1878L4.33352 13.7962C4.1218 13.9738 4.0922 14.2925 4.26978 14.5088C4.36767 14.6295 4.5111 14.691 4.65452 14.691C4.76836 14.691 4.88219 14.6522 4.97325 14.5748L8.92316 11.2533L11.6688 13.8645C11.8691 14.0558 12.1855 14.0467 12.3745 13.8441C12.5635 13.6414 12.5544 13.3204 12.354 13.1292L10.7536 11.6061L13.3512 9.52077L15.6801 11.3193C15.8941 11.4855 16.2083 11.4422 16.3768 11.2214ZM5.97951 5.6938C4.9687 5.6938 4.14684 6.52476 4.14684 7.54468C4.14684 8.56687 4.9687 9.39556 5.97951 9.39556C6.99032 9.39556 7.81218 8.5646 7.81218 7.54468C7.81218 6.52476 6.99032 5.6938 5.97951 5.6938ZM16.8435 4C17.4468 4 17.9977 4.47353 17.9977 4.99488V15.0051C17.9977 15.5265 17.4468 16 16.8435 16H3.15196C2.53728 16 2 15.5333 2 15.0051L2.00228 4.99488C2.00228 4.46443 2.54183 4 3.15424 4H16.8435ZM5.97951 8.38702C5.51964 8.38702 5.14627 8.00911 5.14627 7.54696C5.14627 7.08253 5.51964 6.70689 5.97951 6.70689C6.43939 6.70689 6.81275 7.08253 6.81275 7.54696C6.81047 8.00911 6.43711 8.38702 5.97951 8.38702Z" fill="#86888C"/>
</svg>
