<svg width="24" height="24" viewBox="0 0 24 24" fill="none" xmlns="http://www.w3.org/2000/svg">
<path fill-rule="evenodd" clip-rule="evenodd" d="M19.971 14.0267C20.1816 13.7507 20.1275 13.3552 19.8543 13.1417L16.5561 10.5948C16.3312 10.4183 16.0125 10.424 15.7877 10.6033L12.0171 13.6283L11.1064 12.7604C10.8788 12.5413 10.5202 12.5299 10.2783 12.7348L4.9169 17.2453C4.65225 17.4673 4.61525 17.8657 4.83722 18.136C4.95959 18.2869 5.13887 18.3637 5.31816 18.3637C5.46044 18.3637 5.60273 18.3153 5.71656 18.2186L10.654 14.0666L14.0859 17.3307C14.3364 17.5697 14.7319 17.5583 14.9681 17.3051C15.2043 17.0518 15.1929 16.6505 14.9425 16.4115L12.9419 14.5077L16.189 11.901L19.1002 14.1491C19.3677 14.3569 19.7604 14.3028 19.971 14.0267ZM6.97439 7.11724C5.71087 7.11724 4.68355 8.15595 4.68355 9.43085C4.68355 10.7086 5.71087 11.7445 6.97439 11.7445C8.23791 11.7445 9.26522 10.7057 9.26522 9.43085C9.26522 8.15595 8.23791 7.11724 6.97439 7.11724ZM20.5544 5C21.3085 5 21.9972 5.59192 21.9972 6.2436V18.7564C21.9972 19.4081 21.3085 20 20.5544 20H3.43995C2.6716 20 2 19.4166 2 18.7564L2.00285 6.2436C2.00285 5.58053 2.67729 5 3.4428 5H20.5544ZM6.97439 10.4838C6.39954 10.4838 5.93284 10.0114 5.93284 9.43369C5.93284 8.85316 6.39954 8.38361 6.97439 8.38361C7.54923 8.38361 8.01594 8.85316 8.01594 9.43369C8.01309 10.0114 7.54639 10.4838 6.97439 10.4838Z" fill="#86888C"/>
</svg>
