<svg width="20" height="20" viewBox="0 0 20 20" fill="none" xmlns="http://www.w3.org/2000/svg">
<path fill-rule="evenodd" clip-rule="evenodd" d="M15.5267 12.8907H15.5147C14.2667 12.8859 12.1701 11.3607 11.1851 10.5C12.1725 9.63695 14.2739 8.1069 15.5243 8.1069H15.529C16.2582 8.10929 16.82 8.31489 17.1978 8.72131C17.5755 9.12773 17.7644 9.7278 17.7644 10.5048C17.7572 12.0683 16.985 12.8907 15.5267 12.8907ZM5.28724 12.8907H5.27529C3.81695 12.8907 3.04475 12.0659 3.03997 10.5072C3.03758 9.7278 3.22884 9.12773 3.60657 8.7237C3.9843 8.31728 4.54373 8.11168 5.27529 8.10929H5.28007C6.5328 8.10929 8.63424 9.63934 9.61921 10.5024C8.63424 11.3607 6.53758 12.8859 5.28724 12.8907ZM17.9341 7.94194C17.3627 7.32992 16.5308 7.00478 15.529 7H15.5219C13.7862 7 11.3477 8.92213 10.401 9.76366C9.45425 8.92213 7.01812 7 5.27768 7H5.27051C4.2688 7.00239 3.43683 7.32992 2.86545 7.94194C2.29646 8.55396 1.99762 9.44092 2.00001 10.5096C2.00719 12.6947 3.23123 14 5.27529 14H5.28963C7.02529 13.9952 9.45425 12.0779 10.401 11.2363C11.3477 12.0755 13.7767 13.9952 15.5123 14H15.5267C17.5731 14 18.7971 12.6971 18.8019 10.5096C18.8043 9.44092 18.5055 8.55396 17.9341 7.94194Z" fill="#86888C"/>
</svg>
