<svg width="24" height="24" viewBox="0 0 24 24" fill="none" xmlns="http://www.w3.org/2000/svg">
<path fill-rule="evenodd" clip-rule="evenodd" d="M11.7899 7.33143C6.01609 7.33143 3.20653 10.1972 3.20653 16.0976C3.20934 16.4351 2.93935 16.7107 2.60468 16.7135C2.2672 16.7107 1.99721 16.4351 2.00002 16.0976C2.00002 9.55602 5.38612 6.09961 11.7899 6.09961C12.1274 6.10242 12.3974 6.37803 12.3946 6.71552C12.3974 7.053 12.1274 7.32862 11.7899 7.33143ZM12.3749 10.0454C12.3777 10.3829 12.1077 10.6585 11.773 10.6613C8.16756 10.6613 6.41545 12.4528 6.41545 16.1342C6.41826 16.4716 6.15109 16.7473 5.8136 16.7501H5.81079C5.4733 16.7473 5.20332 16.4716 5.20613 16.1342V16.1313C5.20613 11.744 7.47571 9.42665 11.773 9.42665C12.1077 9.43509 12.3777 9.7107 12.3749 10.0454ZM20.5589 17.6191V14.6661C20.5561 14.593 20.5026 14.5311 20.4323 14.517H19.6814V17.771H20.4211C20.497 17.771 20.5589 17.7035 20.5589 17.6191ZM20.4098 13.2852C21.141 13.2852 21.7485 13.8983 21.7654 14.6549V17.6191C21.7654 18.3812 21.1607 19.0028 20.4211 19.0028H19.6139C19.4142 19.6384 18.8321 20.0996 18.1459 20.0996H12.2708C9.96185 20.0152 8.63723 18.5753 8.63723 16.1538C8.63723 13.7268 9.96185 12.2925 12.2736 12.2165H18.1374C18.8124 12.2165 19.3861 12.6637 19.597 13.2852H20.4098ZM11.6999 15.4339C11.2499 15.4339 10.9574 15.6729 10.9574 16.1876C10.9574 16.4351 11.0249 16.6179 11.1459 16.7416C11.2752 16.8766 11.4665 16.9413 11.6999 16.9413C11.9333 16.9413 12.1246 16.8766 12.2539 16.7416C12.3749 16.6179 12.4424 16.4351 12.4424 16.1876C12.4424 15.6729 12.1499 15.4339 11.6999 15.4339Z" fill="#86888C"/>
</svg>
