<svg width="20" height="20" viewBox="0 0 20 20" fill="none" xmlns="http://www.w3.org/2000/svg">
<path fill-rule="evenodd" clip-rule="evenodd" d="M9.69206 5.06747C5.1555 5.06747 2.94799 7.31918 2.94799 11.9552C2.9502 12.2203 2.73806 12.4369 2.47511 12.4391C2.20994 12.4369 1.99781 12.2203 2.00002 11.9552C2.00002 6.81536 4.66052 4.09961 9.69206 4.09961C9.95723 4.10182 10.1694 4.31837 10.1672 4.58354C10.1694 4.84871 9.95723 5.06526 9.69206 5.06747ZM10.1517 7.19985C10.1539 7.46502 9.94176 7.68157 9.6788 7.68378C6.84594 7.68378 5.46928 9.09137 5.46928 11.9839C5.47149 12.2491 5.26157 12.4656 4.9964 12.4678H4.99419C4.72902 12.4656 4.51689 12.2491 4.5191 11.9839V11.9817C4.5191 8.53452 6.30235 6.71371 9.6788 6.71371C9.94176 6.72034 10.1539 6.93689 10.1517 7.19985ZM16.582 13.1506V10.8304C16.5798 10.773 16.5378 10.7244 16.4825 10.7133H15.8925V13.27H16.4737C16.5334 13.27 16.582 13.2169 16.582 13.1506ZM16.4649 9.74545C17.0394 9.74545 17.5167 10.2272 17.5299 10.8216V13.1506C17.5299 13.7495 17.0549 14.2378 16.4737 14.2378H15.8395C15.6826 14.7372 15.2252 15.0996 14.686 15.0996H10.0699C8.25574 15.0333 7.21496 13.9019 7.21496 11.9994C7.21496 10.0924 8.25574 8.96542 10.0721 8.90576H14.6794C15.2097 8.90576 15.6605 9.2571 15.8263 9.74545H16.4649ZM9.62135 11.4337C9.2678 11.4337 9.03798 11.6215 9.03798 12.0259C9.03798 12.2203 9.09102 12.364 9.18604 12.4612C9.28768 12.5673 9.43794 12.6181 9.62135 12.6181C9.80476 12.6181 9.95502 12.5673 10.0567 12.4612C10.1517 12.364 10.2047 12.2203 10.2047 12.0259C10.2047 11.6215 9.97491 11.4337 9.62135 11.4337Z" fill="#86888C"/>
</svg>
