<svg width="28" height="28" viewBox="0 0 28 28" fill="none" xmlns="http://www.w3.org/2000/svg">
<path fill-rule="evenodd" clip-rule="evenodd" d="M14.1885 8.5074C7.58982 8.5074 4.37889 11.7826 4.37889 18.5259C4.38211 18.9116 4.07355 19.2266 3.69107 19.2298C3.30537 19.2266 2.99681 18.9116 3.00002 18.5259C3.00002 11.0498 6.86985 7.09961 14.1885 7.09961C14.5742 7.10282 14.8827 7.41781 14.8795 7.80351C14.8827 8.1892 14.5742 8.50419 14.1885 8.5074ZM14.857 11.6091C14.8602 11.9947 14.5517 12.3097 14.1692 12.3129C10.0486 12.3129 8.04623 14.3604 8.04623 18.5677C8.04944 18.9534 7.7441 19.2684 7.3584 19.2716H7.35519C6.96949 19.2684 6.66093 18.9534 6.66415 18.5677V18.5645C6.66415 13.5504 9.25796 10.9019 14.1692 10.9019C14.5517 10.9116 14.8602 11.2266 14.857 11.6091ZM24.2102 20.2647V16.8899C24.2069 16.8063 24.1459 16.7356 24.0655 16.7195H23.2073V20.4383H24.0527C24.1394 20.4383 24.2102 20.3612 24.2102 20.2647ZM24.0398 15.3117C24.8755 15.3117 25.5697 16.0124 25.589 16.877V20.2647C25.589 21.1358 24.898 21.8461 24.0527 21.8461H23.1302C22.902 22.5725 22.2367 23.0996 21.4524 23.0996H14.7381C12.0993 23.0032 10.5854 21.3575 10.5854 18.5902C10.5854 15.8164 12.0993 14.1772 14.7413 14.0904H21.4428C22.2142 14.0904 22.8699 14.6014 23.1109 15.3117H24.0398ZM14.0856 17.7673C13.5713 17.7673 13.2371 18.0406 13.2371 18.6287C13.2371 18.9116 13.3142 19.1205 13.4524 19.2619C13.6003 19.4162 13.8188 19.4901 14.0856 19.4901C14.3524 19.4901 14.5709 19.4162 14.7188 19.2619C14.857 19.1205 14.9341 18.9116 14.9341 18.6287C14.9341 18.0406 14.5999 17.7673 14.0856 17.7673Z" fill="#86888C"/>
</svg>
