<svg width="20" height="20" viewBox="0 0 20 20" fill="none" xmlns="http://www.w3.org/2000/svg">
<path d="M7.29771 4.88759C6.96803 5.47876 6.702 6.15859 6.50874 6.89754H9.50774V2.94586C8.68921 3.10274 7.91616 3.77803 7.29771 4.88759ZM12.4545 15.1124C12.7182 14.6327 12.9319 14.1302 13.0979 13.6095H10.4172V17.0132C11.1721 16.7972 11.8792 16.1424 12.4545 15.1124ZM9.50774 17.0519V13.6072H6.65653C6.82024 14.1279 7.03624 14.6327 7.29998 15.1101C7.91616 16.2197 8.68921 16.8973 9.50774 17.0519ZM5.21501 9.99886C5.21501 9.26446 5.27185 8.53006 5.38781 7.80475H2.19099C2.06594 8.48231 2.00227 9.21216 2 10.0011C2 10.9606 2.09322 11.8383 2.28194 12.6341H5.46739C5.29686 11.7655 5.21273 10.8833 5.21501 9.99886ZM9.50774 7.80702H6.31093C6.18587 8.53233 6.12448 9.26446 6.12448 10.0011C6.12221 10.8856 6.21316 11.7701 6.39733 12.6364H9.50774V7.80702ZM12.4545 4.88759C11.8792 3.85761 11.1721 3.20051 10.4172 2.98678V6.89754H13.2434C13.0502 6.15859 12.7841 5.47876 12.4545 4.88759ZM13.4412 7.80702H10.4172V12.6341H13.3548C13.539 11.7678 13.63 10.8856 13.6277 9.99886C13.63 9.26446 13.5663 8.53006 13.4412 7.80702ZM9.50774 17.9818C8.97115 17.9136 8.45275 17.6908 7.9639 17.3202C7.41367 16.9018 6.92255 16.3084 6.50419 15.5603C6.17905 14.976 5.91076 14.3189 5.70385 13.6072H2.57525C2.92994 14.5667 3.44607 15.3784 4.12591 16.031C5.39463 17.2542 7.20449 17.9136 9.50774 17.9955V17.9818ZM14.046 13.6072C13.8391 14.3166 13.5731 14.976 13.2457 15.5603C12.8296 16.3084 12.3362 16.9018 11.786 17.3202C11.3494 17.6499 10.8924 17.8636 10.4172 17.9545V18C12.7614 17.9318 14.5985 17.2701 15.8832 16.0333C16.5607 15.3784 17.0814 14.569 17.4361 13.6095H14.046V13.6072Z" fill="#86888C"/>
<path d="M5.57197 6.89754C5.79025 5.99261 6.10402 5.16044 6.50646 4.43968C6.92482 3.69163 7.41594 3.0982 7.96617 2.67984C8.45502 2.30922 8.97342 2.08867 9.51001 2.01819V2.00227C7.20448 2.08413 5.39462 2.74577 4.1259 3.96902C3.33011 4.73526 2.75714 5.71522 2.40699 6.89754H5.57197ZM10.4172 2.04547C10.8924 2.13642 11.3517 2.34788 11.786 2.67984C12.3385 3.0982 12.8296 3.68936 13.2457 4.43968C13.6481 5.16044 13.9619 5.99261 14.1802 6.89754H17.6021C17.2519 5.71522 16.6767 4.73753 15.8832 3.96902C14.5985 2.72986 12.7591 2.07048 10.4149 2V2.04547H10.4172ZM17.7294 12.6341C17.9181 11.8383 18.0114 10.9606 18.0114 10.0011C18.0114 9.21444 17.9477 8.48231 17.8204 7.80475H14.3644C14.4803 8.53006 14.5394 9.26446 14.5394 9.99886C14.5417 10.8833 14.4576 11.7655 14.287 12.6341H17.7294Z" fill="#86888C"/>
</svg>
