<svg width="40" height="40" viewBox="0 0 40 40" fill="none" xmlns="http://www.w3.org/2000/svg">
<path fill-rule="evenodd" clip-rule="evenodd" d="M12.7262 29.8532H20.3278V38.2539C17.2083 37.5009 14.4217 34.2789 12.7262 29.8532ZM9.05862 27.3125H2.97837C2.33808 25.2431 2 22.9022 2 20.259C2 18.0871 2.22538 16.115 2.65566 14.3427H8.78714C8.41833 16.2789 8.2288 18.2459 8.22368 20.2181C8.22368 22.6051 8.50541 24.987 9.05862 27.3125ZM9.78088 29.8532C10.8719 33.0035 12.4548 35.6876 14.391 37.6136C9.42743 36.4099 5.9391 33.8231 3.95162 29.8532H9.78088ZM12.2908 11.802C13.9249 6.79232 16.9317 3.06324 20.3278 2.25391V11.802H12.2908ZM33.5026 31.7997C32.3347 31.7997 31.387 32.6347 31.387 33.6591C31.387 34.6939 32.3295 35.5339 33.5026 35.5339C34.6551 35.5339 35.5976 34.699 35.5976 33.6591C35.5976 32.6347 34.6551 31.7946 33.5026 31.7997ZM33.5026 5.95738C32.3347 5.95738 31.387 6.79232 31.387 7.82704C31.387 8.85152 32.3295 9.68646 33.5026 9.68646C34.6551 9.68646 35.5976 8.85152 35.5976 7.82704C35.5976 6.79232 34.6551 5.95738 33.5026 5.95738ZM33.5026 18.9272C32.3347 18.9272 31.387 19.7673 31.387 20.7866C31.387 21.8214 32.3295 22.6563 33.5026 22.6563C34.6551 22.6563 35.5976 21.8214 35.5976 20.7866C35.5976 19.7673 34.6551 18.9272 33.5026 18.9272ZM20.3278 21.8521V23.6961H26.0854C26.741 23.6961 27.2686 24.1623 27.284 24.7462L27.366 32.5937H29.1588C29.7069 30.9033 31.4178 29.6688 33.4974 29.6688C35.9767 29.6688 37.9949 31.4565 37.9949 33.6591C37.9949 35.8566 35.9767 37.6597 33.4974 37.6597C31.4178 37.6597 29.7018 36.4099 29.1588 34.7246H26.1827C25.527 34.7246 24.9841 34.2533 24.9841 33.6745L24.9021 25.827H20.3227V27.3176H11.8913C11.2869 25.0023 10.9795 22.6153 10.9795 20.2232C10.9795 18.1793 11.1998 16.2072 11.6198 14.3478H20.3278V15.6694H24.9072L24.9892 7.82192C24.9892 7.23797 25.5322 6.76671 26.1878 6.76671H29.1639C29.712 5.08145 31.4229 3.8316 33.5026 3.8316C35.9818 3.8316 38 5.6193 38 7.83216C38 10.0348 35.9818 11.8225 33.5026 11.8225C31.4229 11.8225 29.7069 10.5726 29.1639 8.89762H27.3711L27.2891 16.7348C27.2738 17.329 26.7462 17.8003 26.0905 17.8003H20.3278V19.7212H29.1639C29.7069 18.0462 31.4178 16.7963 33.5026 16.7963C35.9818 16.7963 38 18.584 38 20.7866C38 22.9995 35.9818 24.7872 33.5026 24.7872C31.4229 24.7872 29.7069 23.5373 29.1639 21.8521H20.3278ZM9.41207 11.802H3.45475C5.31417 7.19187 8.96642 4.21065 14.3756 2.8942C12.214 5.06096 10.4673 8.16 9.41207 11.802Z" fill="#86888C"/>
</svg>
