<svg width="40" height="40" viewBox="0 0 40 40" fill="none" xmlns="http://www.w3.org/2000/svg">
<path fill-rule="evenodd" clip-rule="evenodd" d="M20.482 11.2993C10.1716 11.2993 5.15452 16.4168 5.15452 26.9532C5.15954 27.5558 4.67742 28.048 4.07979 28.053C3.47714 28.048 2.99502 27.5558 3.00004 26.9532C3.00004 15.2718 9.04664 9.09961 20.482 9.09961C21.0846 9.10463 21.5667 9.5968 21.5617 10.1994C21.5667 10.8021 21.0846 11.2943 20.482 11.2993ZM21.5266 16.1456C21.5316 16.7483 21.0495 17.2404 20.4518 17.2455C14.0135 17.2455 10.8847 20.4445 10.8847 27.0185C10.8898 27.6211 10.4127 28.1133 9.81 28.1183H9.80498C9.20233 28.1133 8.72021 27.6211 8.72523 27.0185V27.0134C8.72523 19.179 12.7781 15.0408 20.4518 15.0408C21.0495 15.0558 21.5316 15.548 21.5266 16.1456ZM36.1409 29.6701V24.3969C36.1358 24.2663 36.0404 24.1559 35.9149 24.1307H34.574V29.9413H35.8948C36.0304 29.9413 36.1409 29.8208 36.1409 29.6701ZM35.8747 21.9311C37.1804 21.9311 38.2652 23.0259 38.2953 24.3768V29.6701C38.2953 31.0311 37.2156 32.141 35.8948 32.141H34.4534C34.0969 33.276 33.0573 34.0996 31.8319 34.0996H21.3407C17.2176 33.9489 14.8522 31.3776 14.8522 27.0536C14.8522 22.7195 17.2176 20.1583 21.3458 20.0227H31.8168C33.0221 20.0227 34.0466 20.8212 34.4233 21.9311H35.8747ZM20.3213 25.768C19.5177 25.768 18.9954 26.1948 18.9954 27.1139C18.9954 27.5558 19.116 27.8823 19.3319 28.1032C19.5629 28.3443 19.9044 28.4598 20.3213 28.4598C20.7381 28.4598 21.0796 28.3443 21.3106 28.1032C21.5266 27.8823 21.6471 27.5558 21.6471 27.1139C21.6471 26.1948 21.1248 25.768 20.3213 25.768Z" fill="#86888C"/>
</svg>
