<svg width="28" height="28" viewBox="0 0 28 28" fill="none" xmlns="http://www.w3.org/2000/svg">
<path fill-rule="evenodd" clip-rule="evenodd" d="M9.15083 20.3995H14.2186V26C12.1389 25.498 10.2812 23.35 9.15083 20.3995ZM6.70575 18.7057H2.65225C2.22538 17.3261 2 15.7655 2 14.0034C2 12.5555 2.15026 11.2408 2.43711 10.0592H6.52476C6.27888 11.35 6.15253 12.6614 6.14912 13.9761C6.14912 15.5674 6.33694 17.1554 6.70575 18.7057ZM7.18725 20.3995C7.91463 22.4997 8.96983 24.2891 10.2607 25.5731C6.95162 24.7706 4.62607 23.0461 3.30108 20.3995H7.18725ZM8.86056 8.3654C9.94991 5.02561 11.9545 2.53956 14.2186 2V8.3654H8.86056ZM23.0017 21.6972C22.2231 21.6972 21.5913 22.2538 21.5913 22.9368C21.5913 23.6266 22.2197 24.1867 23.0017 24.1867C23.7701 24.1867 24.3984 23.6301 24.3984 22.9368C24.3984 22.2538 23.7701 21.6938 23.0017 21.6972ZM23.0017 4.46898C22.2231 4.46898 21.5913 5.02561 21.5913 5.71542C21.5913 6.39841 22.2197 6.95504 23.0017 6.95504C23.7701 6.95504 24.3984 6.39841 24.3984 5.71542C24.3984 5.02561 23.7701 4.46898 23.0017 4.46898ZM23.0017 13.1155C22.2231 13.1155 21.5913 13.6756 21.5913 14.3552C21.5913 15.045 22.2197 15.6016 23.0017 15.6016C23.7701 15.6016 24.3984 15.045 24.3984 14.3552C24.3984 13.6756 23.7701 13.1155 23.0017 13.1155ZM14.2186 15.0655V16.2948H18.0569C18.494 16.2948 18.8458 16.6056 18.856 16.9949L18.9106 22.2265H20.1059C20.4713 21.0996 21.6118 20.2766 22.9983 20.2766C24.6511 20.2766 25.9966 21.4684 25.9966 22.9368C25.9966 24.4018 24.6511 25.6039 22.9983 25.6039C21.6118 25.6039 20.4678 24.7706 20.1059 23.6471H18.1218C17.6847 23.6471 17.3227 23.333 17.3227 22.9471L17.2681 17.7154H14.2151V18.7092H8.59419C8.19124 17.1656 7.98634 15.5743 7.98634 13.9795C7.98634 12.617 8.13318 11.3022 8.4132 10.0626H14.2186V10.9437H17.2715L17.3261 5.71201C17.3261 5.32271 17.6881 5.00854 18.1252 5.00854H20.1093C20.4747 3.88503 21.6153 3.05179 23.0017 3.05179C24.6545 3.05179 26 4.2436 26 5.71884C26 7.18725 24.6545 8.37906 23.0017 8.37906C21.6153 8.37906 20.4713 7.54582 20.1093 6.42914H18.9141L18.8594 11.654C18.8492 12.0501 18.4974 12.3643 18.0603 12.3643H14.2186V13.6448H20.1093C20.4713 12.5282 21.6118 11.6949 23.0017 11.6949C24.6545 11.6949 26 12.8867 26 14.3552C26 15.8304 24.6545 17.0222 23.0017 17.0222C21.6153 17.0222 20.4713 16.189 20.1093 15.0655H14.2186ZM6.94138 8.3654H2.96983C4.20945 5.29197 6.64428 3.3045 10.2504 2.42686C8.80933 3.87137 7.64485 5.93739 6.94138 8.3654Z" fill="#86888C"/>
</svg>
