<svg width="28" height="28" viewBox="0 0 28 28" fill="none" xmlns="http://www.w3.org/2000/svg">
<path d="M9.94657 6.33139C9.45204 7.21813 9.053 8.23789 8.76311 9.34631H13.2616V3.41879C12.0338 3.65411 10.8742 4.66705 9.94657 6.33139ZM17.6817 21.6686C18.0773 20.949 18.3979 20.1953 18.6469 19.4142H14.6258V24.5198C15.7581 24.1958 16.8188 23.2136 17.6817 21.6686ZM13.2616 24.5778V19.4108H8.98479C9.23035 20.1918 9.55435 20.949 9.94998 21.6652C10.8742 23.3295 12.0338 24.3459 13.2616 24.5778ZM6.82251 13.9983C6.82251 12.8967 6.90777 11.7951 7.08171 10.7071H2.28649C2.09891 11.7235 2.00341 12.8182 2 14.0017C2 15.441 2.13983 16.7574 2.42291 17.9511H7.20108C6.94529 16.6483 6.8191 15.325 6.82251 13.9983ZM13.2616 10.7105H8.46639C8.27881 11.7985 8.18673 12.8967 8.18673 14.0017C8.18332 15.3284 8.31974 16.6551 8.59599 17.9545H13.2616V10.7105ZM17.6817 6.33139C16.8188 4.78642 15.7581 3.80077 14.6258 3.48018V9.34631H18.8651C18.5752 8.23789 18.1762 7.21813 17.6817 6.33139ZM19.1619 10.7105H14.6258V17.9511H19.0323C19.3085 16.6517 19.4449 15.3284 19.4415 13.9983C19.4449 12.8967 19.3494 11.7951 19.1619 10.7105ZM13.2616 25.9727C12.4567 25.8704 11.6791 25.5362 10.9459 24.9802C10.1205 24.3527 9.38383 23.4626 8.75629 22.3405C8.26858 21.464 7.86614 20.4783 7.55578 19.4108H2.86287C3.39491 20.8501 4.16911 22.0676 5.18886 23.0465C7.09194 24.8813 9.80674 25.8704 13.2616 25.9932V25.9727ZM20.0691 19.4108C19.7587 20.4749 19.3597 21.464 18.8685 22.3405C18.2444 23.4626 17.5043 24.3527 16.679 24.9802C16.0242 25.4748 15.3386 25.7954 14.6258 25.9318V26C18.1421 25.8977 20.8978 24.9052 22.8248 23.0499C23.8411 22.0676 24.6221 20.8535 25.1542 19.4142H20.0691V19.4108Z" fill="#86888C"/>
<path d="M7.35796 9.34631C7.68537 7.98892 8.15602 6.74066 8.75969 5.65951C9.38723 4.53745 10.1239 3.64729 10.9493 3.01975C11.6825 2.46383 12.4601 2.13301 13.265 2.02728V2.00341C9.80673 2.12619 7.09193 3.11866 5.18885 4.95353C3.99516 6.10289 3.1357 7.57283 2.61048 9.34631H7.35796ZM14.6258 2.06821C15.3386 2.20463 16.0276 2.52181 16.679 3.01975C17.5077 3.64729 18.2444 4.53403 18.8685 5.65951C19.4722 6.74066 19.9429 7.98892 20.2703 9.34631H25.4031C24.8779 7.57283 24.015 6.1063 22.8248 4.95353C20.8978 3.09478 18.1387 2.10573 14.6224 2V2.06821H14.6258ZM25.5941 17.9511C25.8772 16.7574 26.017 15.441 26.017 14.0017C26.017 12.8217 25.9215 11.7235 25.7306 10.7071H20.5465C20.7205 11.7951 20.8091 12.8967 20.8091 13.9983C20.8125 15.325 20.6864 16.6483 20.4306 17.9511H25.5941Z" fill="#86888C"/>
</svg>
