<svg width="40" height="40" viewBox="0 0 40 40" fill="none" xmlns="http://www.w3.org/2000/svg">
<path d="M3.02389 37.9846C2.46075 37.9846 2 37.529 2 36.9608C2 36.6894 2.10751 36.4283 2.30205 36.2338L10.7696 27.7662C11.1689 27.3669 11.8191 27.3669 12.2184 27.7662C12.6177 28.1655 12.6177 28.8157 12.2184 29.215L3.74573 37.6826C3.55631 37.8771 3.29522 37.9846 3.02389 37.9846ZM12.2287 37.9898C11.6655 37.9898 11.2048 37.5341 11.2048 36.9659C11.2048 36.6997 11.3072 36.4386 11.4966 36.2491L15.6894 31.9539C16.0734 31.5392 16.7184 31.5085 17.1382 31.8925C17.5529 32.2765 17.5836 32.9215 17.1997 33.3413C17.1843 33.3567 17.1741 33.372 17.1587 33.3823L12.9659 37.6826C12.7713 37.8823 12.5051 37.9898 12.2287 37.9898ZM3.11604 28.8771C2.5529 28.8771 2.09215 28.4215 2.09215 27.8532C2.09215 27.587 2.19454 27.3259 2.38396 27.1365L6.57679 22.8413C6.97099 22.4369 7.62116 22.4317 8.0256 22.8259C8.43003 23.2201 8.43515 23.8703 8.04096 24.2747L3.84812 28.57C3.6587 28.7696 3.39249 28.8771 3.11604 28.8771ZM35.4454 2H21.5819C20.1689 2 19.0222 3.14676 19.0222 4.55973C19.0222 5.24061 19.2935 5.89079 19.7696 6.37201L21.0444 7.64676L9.67406 19.0171C8.67577 20.0154 8.67577 21.6382 9.67406 22.6365L17.343 30.3106C18.3413 31.3089 19.9642 31.3089 20.9625 30.3106L32.3328 18.9352L33.628 20.2355C34.1041 20.7167 34.7543 20.9881 35.4352 20.9881C36.8481 20.9881 37.9949 19.8413 38 18.4283V4.55973C38 3.14676 36.8584 2 35.4454 2Z" fill="#86888C"/>
</svg>
