<svg width="20" height="20" viewBox="0 0 20 20" fill="none" xmlns="http://www.w3.org/2000/svg">
<path d="M2.45506 17.9932C2.20478 17.9932 2 17.7907 2 17.5381C2 17.4175 2.04778 17.3015 2.13424 17.215L5.89761 13.4516C6.07509 13.2742 6.36405 13.2742 6.54152 13.4516C6.719 13.6291 6.719 13.9181 6.54152 14.0956L2.77588 17.8589C2.6917 17.9454 2.57565 17.9932 2.45506 17.9932ZM6.54608 17.9954C6.29579 17.9954 6.09101 17.7929 6.09101 17.5404C6.09101 17.4221 6.13652 17.306 6.22071 17.2218L8.08419 15.3129C8.25484 15.1286 8.54152 15.1149 8.7281 15.2856C8.9124 15.4562 8.92605 15.7429 8.7554 15.9295C8.74858 15.9363 8.74403 15.9431 8.7372 15.9477L6.87372 17.8589C6.78726 17.9477 6.66894 17.9954 6.54608 17.9954ZM2.49602 13.9454C2.24573 13.9454 2.04096 13.7429 2.04096 13.4903C2.04096 13.372 2.08646 13.256 2.17065 13.1718L4.03413 11.2628C4.20933 11.083 4.49829 11.0808 4.67804 11.256C4.85779 11.4312 4.86007 11.7201 4.68487 11.8999L2.82139 13.8089C2.7372 13.8976 2.61889 13.9454 2.49602 13.9454ZM16.8646 2H10.7031C10.0751 2 9.56542 2.50967 9.56542 3.13766C9.56542 3.44027 9.68601 3.72924 9.89761 3.94312L10.4642 4.50967L5.41069 9.56314C4.96701 10.0068 4.96701 10.7281 5.41069 11.1718L8.81911 14.5825C9.2628 15.0262 9.98407 15.0262 10.4278 14.5825L15.4812 9.52673L16.0569 10.1047C16.2685 10.3185 16.5575 10.4391 16.8601 10.4391C17.4881 10.4391 17.9977 9.92947 18 9.30148V3.13766C18 2.50967 17.4926 2 16.8646 2Z" fill="#86888C"/>
</svg>
