<svg width="20" height="20" viewBox="0 0 20 20" fill="none" xmlns="http://www.w3.org/2000/svg">
<path fill-rule="evenodd" clip-rule="evenodd" d="M18.4771 3.02803C18.2954 3.01369 14.0477 2.70533 10.3975 4.57463C6.74975 2.70772 2.50438 3.0113 2.32271 3.02803C2.14103 3.04238 2 3.19297 2 3.37464V14.8606C2 15.0542 2.15777 15.2096 2.349 15.2096C6.82146 15.2096 10.2039 16.9426 10.2374 16.9594C10.2876 16.9857 10.3425 17 10.3999 17C10.4214 17 10.4429 16.9857 10.4668 16.9809C10.5003 16.9737 10.5338 16.9737 10.5625 16.957L10.5768 16.9498H10.5816L10.584 16.9474C10.7991 16.8398 14.1051 15.2096 18.4508 15.2096C18.6444 15.2096 18.7998 15.0542 18.7998 14.8606V3.37464C18.7998 3.19297 18.6588 3.04238 18.4771 3.02803Z" fill="#86888C"/>
</svg>
