<svg width="20" height="20" viewBox="0 0 20 20" fill="none" xmlns="http://www.w3.org/2000/svg">
<path fill-rule="evenodd" clip-rule="evenodd" d="M12.4142 8.10059C12.2642 8.71127 11.973 9.34586 11.547 9.98479C11.2102 10.489 10.9407 10.8171 10.4843 11.2735L10.4735 11.2844C10.4278 11.3278 10.2735 11.4821 10.1388 11.5756C10.0236 11.656 9.89537 11.7103 9.76715 11.7386C9.73021 11.7473 9.69109 11.7538 9.6498 11.756H9.64545C9.63459 11.756 9.62372 11.7581 9.61068 11.7581H9.59981C9.58895 11.7581 9.57591 11.7582 9.56504 11.756H9.5607C9.5194 11.7538 9.48029 11.7473 9.44334 11.7386C9.31512 11.7125 9.18473 11.656 9.06954 11.5756C8.93698 11.4821 8.7805 11.3278 8.73487 11.2844C8.27197 10.8215 8.00031 10.4933 7.66129 9.98479C7.2375 9.34586 6.94629 8.71127 6.79416 8.10059C6.63117 7.43558 6.76591 6.88358 7.17448 6.54455C7.41136 6.34679 7.733 6.22943 8.08072 6.21205C8.11115 6.20987 8.14374 6.20987 8.17417 6.20987C8.18721 6.20987 8.20242 6.21422 8.21546 6.21422C8.36759 6.21857 8.51754 6.23595 8.66749 6.27507C8.68488 6.27942 8.70009 6.28594 8.71531 6.29028C8.87395 6.33592 9.0326 6.3946 9.18255 6.47501C9.30208 6.5402 9.42596 6.60975 9.56287 6.68581C9.57591 6.69233 9.59112 6.69668 9.60633 6.69668C9.62155 6.69668 9.63676 6.69233 9.6498 6.68581C9.78454 6.60757 9.91059 6.5402 10.0301 6.47283C10.1801 6.39242 10.3365 6.33375 10.4952 6.28811C10.5126 6.28376 10.5278 6.27724 10.5452 6.2729C10.6951 6.23378 10.8473 6.21639 10.9972 6.21205C11.0102 6.21205 11.0255 6.2077 11.0385 6.2077C11.0689 6.2077 11.1015 6.2077 11.1319 6.20987C11.4797 6.22726 11.8035 6.34461 12.0404 6.54238C12.4446 6.88358 12.5772 7.43558 12.4142 8.10059ZM14.8395 3H4.43403C3.09314 3 2 4.05185 2 5.34492V12.2971C2 13.3424 2.65632 14.2269 3.62776 14.5312V15.9764C3.62776 16.5328 4.12543 17 4.7122 17C5.07731 17 5.37939 16.8479 5.60975 16.5545L7.15275 14.6442H14.8417C16.1826 14.6442 17.2757 13.5924 17.2757 12.2971V5.34492C17.2735 4.05185 16.1826 3 14.8395 3Z" fill="#86888C"/>
</svg>
