<svg width="28" height="28" viewBox="0 0 28 28" fill="none" xmlns="http://www.w3.org/2000/svg">
<path fill-rule="evenodd" clip-rule="evenodd" d="M18.3651 11.0152C18.1295 11.9749 17.6718 12.9721 17.0025 13.9761C16.4731 14.7684 16.0497 15.2841 15.3325 16.0012L15.3154 16.0183C15.2437 16.0866 15.0012 16.3291 14.7895 16.4759C14.6085 16.6023 14.407 16.6877 14.2055 16.7321C14.1475 16.7457 14.086 16.756 14.0211 16.7594H14.0143C13.9972 16.7594 13.9801 16.7628 13.9596 16.7628H13.9426C13.9255 16.7628 13.905 16.7628 13.8879 16.7594H13.8811C13.8162 16.756 13.7547 16.7457 13.6967 16.7321C13.4952 16.6911 13.2903 16.6023 13.1093 16.4759C12.901 16.3291 12.6551 16.0866 12.5834 16.0183C11.8559 15.2909 11.4291 14.7752 10.8963 13.9761C10.2304 12.9721 9.77274 11.9749 9.53369 11.0152C9.27755 9.9702 9.48929 9.10276 10.1313 8.57001C10.5036 8.25924 11.009 8.07482 11.5554 8.0475C11.6032 8.04409 11.6545 8.04409 11.7023 8.04409C11.7228 8.04409 11.7467 8.05092 11.7672 8.05092C12.0062 8.05775 12.2418 8.08507 12.4775 8.14654C12.5048 8.15337 12.5287 8.16361 12.5526 8.17044C12.8019 8.24216 13.0512 8.33437 13.2869 8.46073C13.4747 8.56318 13.6694 8.67246 13.8845 8.79199C13.905 8.80223 13.9289 8.80906 13.9528 8.80906C13.9767 8.80906 14.0006 8.80223 14.0211 8.79199C14.2328 8.66905 14.4309 8.56318 14.6188 8.45731C14.8544 8.33095 15.1003 8.23875 15.3496 8.16703C15.3769 8.1602 15.4008 8.14995 15.4281 8.14312C15.6638 8.08165 15.9028 8.05433 16.1385 8.0475C16.159 8.0475 16.1829 8.04067 16.2034 8.04067C16.2512 8.04067 16.3024 8.04067 16.3502 8.04409C16.8966 8.07141 17.4055 8.25582 17.7777 8.56659C18.4129 9.10276 18.6212 9.9702 18.3651 11.0152ZM22.1763 3H5.8249C3.71779 3 2 4.6529 2 6.68488V17.6097C2 19.2524 3.03136 20.6423 4.5579 21.1205V23.3915C4.5579 24.2658 5.33996 25 6.26203 25C6.83577 25 7.31046 24.7609 7.67246 24.2999L10.0972 21.298H22.1798C24.2869 21.298 26.0047 19.6451 26.0047 17.6097V6.68488C26.0012 4.6529 24.2869 3 22.1763 3Z" fill="#86888C"/>
</svg>
