<svg width="40" height="40" viewBox="0 0 40 40" fill="none" xmlns="http://www.w3.org/2000/svg">
<path fill-rule="evenodd" clip-rule="evenodd" d="M27.2915 15.3871C26.9274 16.8702 26.2201 18.4114 25.1857 19.9631C24.3676 21.1875 23.7131 21.9845 22.6048 23.0928L22.5784 23.1192C22.4676 23.2248 22.0928 23.5995 21.7656 23.8265C21.4859 24.0217 21.1745 24.1537 20.8631 24.2223C20.7734 24.2434 20.6784 24.2592 20.5781 24.2645H20.5675C20.5411 24.2645 20.5147 24.2698 20.4831 24.2698H20.4567C20.4303 24.2698 20.3986 24.2698 20.3722 24.2645H20.3617C20.2614 24.2592 20.1664 24.2434 20.0767 24.2223C19.7653 24.159 19.4486 24.0217 19.1689 23.8265C18.8469 23.5995 18.4669 23.2248 18.3561 23.1192C17.2319 21.995 16.5722 21.1981 15.7488 19.9631C14.7197 18.4114 14.0124 16.8702 13.643 15.3871C13.2471 13.7721 13.5744 12.4315 14.5666 11.6082C15.1419 11.1279 15.923 10.8429 16.7675 10.8007C16.8414 10.7954 16.9205 10.7954 16.9944 10.7954C17.0261 10.7954 17.063 10.806 17.0947 10.806C17.4641 10.8165 17.8283 10.8587 18.1925 10.9537C18.2347 10.9643 18.2717 10.9801 18.3086 10.9907C18.6939 11.1015 19.0792 11.244 19.4433 11.4393C19.7336 11.5976 20.0345 11.7665 20.367 11.9513C20.3986 11.9671 20.4356 11.9776 20.4725 11.9776C20.5095 11.9776 20.5464 11.9671 20.5781 11.9513C20.9053 11.7613 21.2114 11.5976 21.5017 11.434C21.8659 11.2387 22.2459 11.0962 22.6312 10.9854C22.6734 10.9749 22.7103 10.959 22.7526 10.9485C23.1167 10.8535 23.4862 10.8112 23.8504 10.8007C23.882 10.8007 23.919 10.7901 23.9506 10.7901C24.0245 10.7901 24.1037 10.7901 24.1776 10.7954C25.022 10.8376 25.8084 11.1226 26.3837 11.6029C27.3654 12.4315 27.6874 13.7721 27.2915 15.3871ZM33.1816 3H7.91121C4.65477 3 2 5.55449 2 8.69481V25.5787C2 28.1174 3.59391 30.2654 5.95312 31.0043V34.5141C5.95312 35.8653 7.16175 37 8.58677 37C9.47346 37 10.2071 36.6306 10.7665 35.918L14.5138 31.2788H33.1869C36.4433 31.2788 39.0981 28.7243 39.0981 25.5787V8.69481C39.0928 5.55449 36.4433 3 33.1816 3Z" fill="#86888C"/>
</svg>
