<svg width="24" height="24" viewBox="0 0 24 24" fill="none" xmlns="http://www.w3.org/2000/svg">
<path fill-rule="evenodd" clip-rule="evenodd" d="M15.3896 9.5579C15.1968 10.3431 14.8224 11.159 14.2748 11.9804C13.8417 12.6287 13.4952 13.0506 12.9084 13.6374L12.8944 13.6514C12.8358 13.7072 12.6374 13.9056 12.4641 14.0258C12.3161 14.1292 12.1512 14.199 11.9863 14.2353C11.9388 14.2465 11.8885 14.2549 11.8355 14.2577H11.8299C11.8159 14.2577 11.8019 14.2605 11.7852 14.2605H11.7712C11.7572 14.2605 11.7405 14.2605 11.7265 14.2577H11.7209C11.6678 14.2549 11.6175 14.2465 11.57 14.2353C11.4052 14.2018 11.2375 14.1292 11.0894 14.0258C10.919 13.9056 10.7178 13.7072 10.6591 13.6514C10.064 13.0562 9.71468 12.6343 9.2788 11.9804C8.73393 11.159 8.35952 10.3431 8.16392 9.5579C7.95436 8.70289 8.1276 7.99317 8.6529 7.55728C8.95747 7.30301 9.371 7.15213 9.81807 7.12977C9.85719 7.12698 9.8991 7.12698 9.93822 7.12698C9.95498 7.12698 9.97454 7.13257 9.99131 7.13257C10.1869 7.13816 10.3797 7.16051 10.5725 7.2108C10.5948 7.21639 10.6144 7.22477 10.634 7.23036C10.8379 7.28904 11.0419 7.36448 11.2347 7.46787C11.3884 7.55169 11.5477 7.64111 11.7237 7.7389C11.7405 7.74728 11.76 7.75287 11.7796 7.75287C11.7991 7.75287 11.8187 7.74728 11.8355 7.7389C12.0087 7.63831 12.1708 7.55169 12.3244 7.46507C12.5172 7.36169 12.7184 7.28625 12.9224 7.22757C12.9447 7.22198 12.9643 7.2136 12.9867 7.20801C13.1794 7.15771 13.375 7.13536 13.5678 7.12977C13.5846 7.12977 13.6042 7.12418 13.6209 7.12418C13.66 7.12418 13.702 7.12419 13.7411 7.12698C14.1881 7.14933 14.6045 7.30022 14.909 7.55449C15.4287 7.99317 15.5992 8.70289 15.3896 9.5579ZM18.5079 3H5.12946C3.40546 3 2 4.35237 2 6.0149V14.9534C2 16.2974 2.84384 17.4346 4.09283 17.8258V19.684C4.09283 20.3993 4.73269 21 5.48712 21C5.95654 21 6.34492 20.8044 6.64111 20.4272L8.62496 17.9711H18.5107C20.2347 17.9711 21.6402 16.6188 21.6402 14.9534V6.0149C21.6374 4.35237 20.2347 3 18.5079 3Z" fill="#86888C"/>
</svg>
