<svg width="40" height="40" viewBox="0 0 40 40" fill="none" xmlns="http://www.w3.org/2000/svg">
<path fill-rule="evenodd" clip-rule="evenodd" d="M11.6032 19.7133C12.1974 19.1602 12.2332 18.2228 11.6749 17.6286C11.1166 17.0345 10.1793 16.9986 9.57997 17.5569C9.03703 18.0589 8.47872 18.5865 8.04334 19.027C4.43227 22.6227 2.00439 25.8957 2.00439 29.1636C2.00439 31.1407 2.89052 33.1076 4.93423 35.1462C7.44406 37.6458 10.0256 38.5063 12.8223 37.7892C15.1989 37.1746 17.7651 35.4074 21.1354 32.0525C26.9285 26.285 29.6791 21.3422 24.2445 15.9384C22.8923 14.5912 21.5503 13.741 20.152 13.3312C19.3632 13.1007 18.5436 13.5515 18.3131 14.3351C18.0775 15.1137 18.5334 15.9384 19.3171 16.1688C20.2288 16.4352 21.1559 17.0447 22.1496 18.0333C25.0999 20.9631 25.4277 23.6164 19.0405 29.9729C12.6532 36.3294 9.98462 36.0016 7.03429 33.0666C4.08397 30.1317 3.75615 27.4784 10.1434 21.1219C10.5583 20.6917 11.0859 20.1897 11.6032 19.7133ZM35.1034 4.91048C32.5935 2.41602 30.012 1.55039 27.2153 2.26748C24.8387 2.88214 22.2725 4.64926 18.9022 8.00423C15.5318 11.3541 13.7545 13.91 13.1398 16.2713C12.9759 16.9013 12.894 17.5211 12.894 18.1306C12.894 20.2153 13.8518 22.1873 15.7931 24.1183C17.0224 25.3425 18.2363 26.1518 19.5015 26.6026C20.2749 26.874 21.1252 26.4745 21.3966 25.7062C21.6681 24.943 21.2686 24.0927 20.4951 23.8213C19.6551 23.5242 18.8049 22.9403 17.888 22.0336C15.6496 19.8055 15.706 18.1818 16.0082 17.014C16.4743 15.211 18.0622 13.0136 20.9971 10.094C23.9321 7.17445 26.1448 5.59684 27.958 5.13073C29.131 4.82853 30.7598 4.76706 33.0033 7.0003C35.2468 9.22841 35.1904 10.8521 34.8831 12.02C34.4119 13.8229 32.8291 16.0203 29.8942 18.945C29.3359 19.4982 28.7981 20.0104 28.2756 20.4868C27.6661 21.0348 27.6251 21.9671 28.1783 22.5715C28.7264 23.1759 29.6688 23.2169 30.2732 22.6688C30.8264 22.1668 31.4001 21.6188 31.9942 21.0297C35.3646 17.6747 37.142 15.1239 37.7566 12.7575C38.4839 9.97624 37.6132 7.41006 35.1034 4.91048Z" fill="#86888C"/>
</svg>
