<svg width="24" height="24" viewBox="0 0 24 24" fill="none" xmlns="http://www.w3.org/2000/svg">
<path fill-rule="evenodd" clip-rule="evenodd" d="M17.1639 12.6473H11.5102C11.1716 12.6473 10.8984 12.3742 10.8956 12.0356C10.8956 11.6998 11.1716 11.4238 11.5102 11.4238H17.1639C17.5025 11.4238 17.7785 11.697 17.7785 12.0356C17.7785 12.3713 17.5025 12.6473 17.1639 12.6473ZM17.1639 16.7219H11.5102C11.1716 16.7219 10.8984 16.4487 10.8956 16.1101C10.8956 15.7715 11.1716 15.4984 11.5102 15.4984H17.1639C17.5025 15.4984 17.7785 15.7715 17.7785 16.1101C17.7785 16.4459 17.5025 16.719 17.1639 16.7219ZM11.4305 7.33219H17.0814C17.42 7.33219 17.696 7.60535 17.696 7.94395C17.696 8.28254 17.42 8.5557 17.0814 8.5557H11.4305C11.0919 8.5557 10.8188 8.28254 10.8159 7.94395C10.8159 7.60535 11.0919 7.33219 11.4305 7.33219ZM8.66197 12.8522C8.21241 12.8522 7.84536 12.488 7.84536 12.0356C7.84536 11.586 8.21241 11.2218 8.66197 11.2218C9.11154 11.2218 9.47859 11.586 9.47859 12.0356C9.47859 12.4851 9.11438 12.8522 8.66197 12.8522ZM8.66197 16.9239C8.21241 16.9239 7.84536 16.5597 7.84536 16.1101C7.84536 15.6605 8.21241 15.2963 8.66197 15.2963C9.11154 15.2963 9.47859 15.6605 9.47859 16.1101C9.47859 16.5597 9.11438 16.9239 8.66197 16.9239ZM8.65344 7.07042C9.103 7.07042 9.47005 7.43463 9.4729 7.88419C9.4729 8.33376 9.10585 8.70081 8.65344 8.69797C8.20387 8.69797 7.83682 8.33376 7.83682 7.88419C7.83682 7.43463 8.20387 7.07042 8.65344 7.07042ZM18.5866 2H6.41414C5.67435 2 5 2.76825 5 3.61332V20.381C5 21.2545 5.64874 21.9972 6.41414 21.9972L18.5837 22C19.3491 22 19.9979 21.2602 19.9979 20.3838V3.61616C20.0007 2.77109 19.3264 2 18.5866 2Z" fill="#86888C"/>
</svg>
