<svg width="40" height="40" viewBox="0 0 40 40" fill="none" xmlns="http://www.w3.org/2000/svg">
<path fill-rule="evenodd" clip-rule="evenodd" d="M28.895 21.1652H18.7183C18.1088 21.1652 17.6172 20.6735 17.612 20.064C17.612 19.4597 18.1088 18.9629 18.7183 18.9629H28.895C29.5045 18.9629 30.0013 19.4545 30.0013 20.064C30.0013 20.6684 29.5045 21.1652 28.895 21.1652ZM28.895 28.4994H18.7183C18.1088 28.4994 17.6172 28.0077 17.612 27.3982C17.612 26.7887 18.1088 26.2971 18.7183 26.2971H28.895C29.5045 26.2971 30.0013 26.7887 30.0013 27.3982C30.0013 28.0026 29.5045 28.4942 28.895 28.4994ZM18.5749 11.598H28.7465C29.356 11.598 29.8528 12.0896 29.8528 12.6991C29.8528 13.3086 29.356 13.8003 28.7465 13.8003H18.5749C17.9654 13.8003 17.4738 13.3086 17.4686 12.6991C17.4686 12.0896 17.9654 11.598 18.5749 11.598ZM13.5915 21.5339C12.7823 21.5339 12.1216 20.8784 12.1216 20.064C12.1216 19.2548 12.7823 18.5992 13.5915 18.5992C14.4008 18.5992 15.0615 19.2548 15.0615 20.064C15.0615 20.8732 14.4059 21.5339 13.5915 21.5339ZM13.5915 28.863C12.7823 28.863 12.1216 28.2074 12.1216 27.3982C12.1216 26.589 12.7823 25.9334 13.5915 25.9334C14.4008 25.9334 15.0615 26.589 15.0615 27.3982C15.0615 28.2074 14.4059 28.863 13.5915 28.863ZM13.5762 11.1268C14.3854 11.1268 15.0461 11.7823 15.0512 12.5915C15.0512 13.4008 14.3905 14.0615 13.5762 14.0563C12.767 14.0563 12.1063 13.4008 12.1063 12.5915C12.1063 11.7823 12.767 11.1268 13.5762 11.1268ZM31.4558 2H9.54545C8.21383 2 7 3.38284 7 4.90397V35.0858C7 36.6581 8.16773 37.9949 9.54545 37.9949L31.4507 38C32.8284 38 33.9962 36.6684 33.9962 35.0909V4.90909C34.0013 3.38796 32.7875 2 31.4558 2Z" fill="#86888C"/>
</svg>
