<svg width="28" height="28" viewBox="0 0 28 28" fill="none" xmlns="http://www.w3.org/2000/svg">
<path fill-rule="evenodd" clip-rule="evenodd" d="M19.5967 14.7768H12.8122C12.4059 14.7768 12.0781 14.449 12.0747 14.0427C12.0747 13.6398 12.4059 13.3086 12.8122 13.3086H19.5967C20.003 13.3086 20.3342 13.6364 20.3342 14.0427C20.3342 14.4456 20.003 14.7768 19.5967 14.7768ZM19.5967 19.6662H12.8122C12.4059 19.6662 12.0781 19.3385 12.0747 18.9321C12.0747 18.5258 12.4059 18.198 12.8122 18.198H19.5967C20.003 18.198 20.3342 18.5258 20.3342 18.9321C20.3342 19.335 20.003 19.6628 19.5967 19.6662ZM12.7166 8.39863H19.4977C19.904 8.39863 20.2352 8.72642 20.2352 9.13274C20.2352 9.53905 19.904 9.86684 19.4977 9.86684H12.7166C12.3103 9.86684 11.9825 9.53905 11.9791 9.13274C11.9791 8.72642 12.3103 8.39863 12.7166 8.39863ZM9.39437 15.0226C8.85489 15.0226 8.41443 14.5856 8.41443 14.0427C8.41443 13.5032 8.85489 13.0662 9.39437 13.0662C9.93385 13.0662 10.3743 13.5032 10.3743 14.0427C10.3743 14.5822 9.93726 15.0226 9.39437 15.0226ZM9.39437 19.9087C8.85489 19.9087 8.41443 19.4716 8.41443 18.9321C8.41443 18.3927 8.85489 17.9556 9.39437 17.9556C9.93385 17.9556 10.3743 18.3927 10.3743 18.9321C10.3743 19.4716 9.93726 19.9087 9.39437 19.9087ZM9.38412 8.08451C9.9236 8.08451 10.3641 8.52155 10.3675 9.06103C10.3675 9.60051 9.92702 10.041 9.38412 10.0376C8.84464 10.0376 8.40418 9.60051 8.40418 9.06103C8.40418 8.52155 8.84464 8.08451 9.38412 8.08451ZM21.3039 2H6.69697C5.80922 2 5 2.9219 5 3.93598V24.0572C5 25.1054 5.77849 25.9966 6.69697 25.9966L21.3005 26C22.219 26 22.9974 25.1122 22.9974 24.0606V3.93939C23.0009 2.92531 22.1916 2 21.3039 2Z" fill="#86888C"/>
</svg>
