<svg width="20" height="20" viewBox="0 0 20 20" fill="none" xmlns="http://www.w3.org/2000/svg">
<path fill-rule="evenodd" clip-rule="evenodd" d="M13.7311 10.5179H9.20814C8.93726 10.5179 8.71874 10.2993 8.71646 10.0285C8.71646 9.75985 8.93726 9.53905 9.20814 9.53905H13.7311C14.002 9.53905 14.2228 9.75758 14.2228 10.0285C14.2228 10.2971 14.002 10.5179 13.7311 10.5179ZM13.7311 13.7775H9.20814C8.93726 13.7775 8.71874 13.559 8.71646 13.2881C8.71646 13.0172 8.93726 12.7987 9.20814 12.7987H13.7311C14.002 12.7987 14.2228 13.0172 14.2228 13.2881C14.2228 13.5567 14.002 13.7752 13.7311 13.7775ZM9.1444 6.26576H13.6651C13.936 6.26576 14.1568 6.48428 14.1568 6.75516C14.1568 7.02603 13.936 7.24456 13.6651 7.24456H9.1444C8.87352 7.24456 8.655 7.02603 8.65272 6.75516C8.65272 6.48428 8.87352 6.26576 9.1444 6.26576ZM6.92958 10.6817C6.56992 10.6817 6.27628 10.3904 6.27628 10.0285C6.27628 9.6688 6.56992 9.37744 6.92958 9.37744C7.28923 9.37744 7.58287 9.6688 7.58287 10.0285C7.58287 10.3881 7.29151 10.6817 6.92958 10.6817ZM6.92958 13.9391C6.56992 13.9391 6.27628 13.6477 6.27628 13.2881C6.27628 12.9284 6.56992 12.6371 6.92958 12.6371C7.28923 12.6371 7.58287 12.9284 7.58287 13.2881C7.58287 13.6477 7.29151 13.9391 6.92958 13.9391ZM6.92275 6.05634C7.2824 6.05634 7.57604 6.3477 7.57832 6.70736C7.57832 7.06701 7.28468 7.36065 6.92275 7.35837C6.5631 7.35837 6.26945 7.06701 6.26945 6.70736C6.26945 6.3477 6.5631 6.05634 6.92275 6.05634ZM14.8693 2H5.13131C4.53948 2 4 2.6146 4 3.29065V16.7048C4 17.4036 4.51899 17.9977 5.13131 17.9977L14.867 18C15.4793 18 15.9983 17.4082 15.9983 16.7071V3.29293C16.0006 2.61687 15.4611 2 14.8693 2Z" fill="#86888C"/>
</svg>
