<svg width="40" height="40" viewBox="0 0 40 40" fill="none" xmlns="http://www.w3.org/2000/svg">
<path fill-rule="evenodd" clip-rule="evenodd" d="M32.9215 21.1833H27.4367C26.8318 21.1833 26.3387 20.6915 26.3387 20.0768C26.3387 19.4622 26.8267 18.9704 27.4367 18.9704H32.9215C33.5264 18.9704 34.0195 19.4622 34.0195 20.0768C34.0195 20.6915 33.5264 21.1833 32.9215 21.1833ZM29.8156 30.1423C29.3886 30.5726 28.6973 30.5777 28.2703 30.1474L28.2652 30.1423L24.3867 26.2288C23.9597 25.7985 23.9597 25.0968 24.3867 24.6665C24.8137 24.2362 25.5101 24.2362 25.9371 24.6665L29.8156 28.5748C30.2477 29.0102 30.2477 29.7069 29.8156 30.1423ZM21.0368 12.3728C21.0368 12.9824 20.5488 13.4792 19.9388 13.4792C19.3289 13.4792 18.8409 12.9875 18.8409 12.3728V6.84064C18.8409 6.23108 19.3289 5.73421 19.9388 5.73421C20.5488 5.73421 21.0368 6.22595 21.0368 6.84064V12.3728ZM20.8843 33.1594C20.8843 33.7689 20.3963 34.2658 19.7863 34.2658C19.1764 34.2658 18.6884 33.774 18.6884 33.1594V27.6272C18.6884 27.0176 19.1764 26.5208 19.7863 26.5208C20.3963 26.5208 20.8843 27.0125 20.8843 27.6272V33.1594ZM15.2267 26.1212L11.3481 30.0347C10.9211 30.465 10.2247 30.465 9.79773 30.0347C9.37073 29.6044 9.37073 28.9027 9.79773 28.4724L13.6763 24.564C14.1134 24.144 14.8098 24.1645 15.2267 24.605C15.6282 25.025 15.6282 25.6961 15.2267 26.1212ZM5.7057 19.9232C5.7057 19.3136 6.19878 18.8167 6.80369 18.8167H12.2936C12.8985 18.8167 13.3916 19.3085 13.3916 19.9232C13.3916 20.5378 12.9036 21.0296 12.2936 21.0296H6.80369C6.19878 21.0296 5.7057 20.5327 5.7057 19.9232ZM24.4985 13.8788L28.3771 9.9704C28.8041 9.54013 29.4954 9.54013 29.9275 9.9704C30.3595 10.4007 30.3545 11.0973 29.9275 11.5327L26.0438 15.4411C25.6169 15.8714 24.9255 15.8714 24.4935 15.4411C24.0715 15.0108 24.0715 14.3142 24.4985 13.8788ZM19.8575 2C8.17617 2 2 8.22368 2 20.0051C2 31.7763 8.17617 38 19.8575 38C31.5439 38 37.7252 31.7763 37.7252 20.0051C37.7252 8.22368 31.549 2 19.8575 2Z" fill="#86888C"/>
</svg>
