<svg width="28" height="28" viewBox="0 0 28 28" fill="none" xmlns="http://www.w3.org/2000/svg">
<path fill-rule="evenodd" clip-rule="evenodd" d="M21.0969 20.6325C21.4793 20.7759 21.6739 21.2061 21.5305 21.592C21.3905 21.9641 21.1652 22.3193 20.8647 22.647C20.7179 22.8041 20.5199 22.886 20.3218 22.886C20.1409 22.886 19.9599 22.8212 19.8165 22.6846C19.516 22.4046 19.499 21.9368 19.7789 21.6329C19.9497 21.4486 20.0726 21.2574 20.1443 21.0662C20.2843 20.6837 20.7111 20.4891 21.0969 20.6325ZM18.4063 22.5685C18.7751 22.3875 19.219 22.5446 19.3999 22.9134C19.5775 23.2821 19.4238 23.7294 19.0551 23.9104C18.7546 24.0572 18.4337 24.1938 18.099 24.3167C18.0137 24.3474 17.9283 24.3645 17.8395 24.3645C17.5391 24.3645 17.2557 24.1801 17.143 23.8796C16.9996 23.4972 17.1942 23.067 17.5766 22.9202C17.8703 22.8109 18.1468 22.6948 18.4063 22.5685ZM16.6684 18.6351C16.286 18.4848 16.0982 18.0512 16.2484 17.6688C16.3987 17.2864 16.8323 17.0986 17.2113 17.2488C17.5015 17.3649 17.802 17.4708 18.1025 17.58C18.4883 17.72 18.6863 18.1468 18.5463 18.5327C18.4371 18.8365 18.1537 19.0243 17.8498 19.0243C17.7644 19.0243 17.6791 19.0107 17.5971 18.9799C17.2864 18.8707 16.9757 18.7546 16.6684 18.6351ZM17.4127 13.7764C17.102 13.7764 16.8152 13.5817 16.7094 13.2676C16.5796 12.8784 16.7879 12.455 17.1771 12.3252C17.5049 12.216 17.8361 12.1169 18.1537 12.035C18.5532 11.9326 18.9561 12.1647 19.0619 12.5642C19.1678 12.9637 18.9322 13.37 18.5361 13.4759C18.2493 13.551 17.9488 13.6398 17.6517 13.7422C17.5698 13.7661 17.4913 13.7764 17.4127 13.7764ZM14.9236 15.2241C14.7529 15.2241 14.5856 15.166 14.4456 15.0499C14.1315 14.787 14.0905 14.3158 14.3534 14.0017C14.5822 13.7251 14.8826 13.4656 15.248 13.2266C15.5894 13.0047 16.0504 13.0969 16.2757 13.4383C16.5011 13.7832 16.4055 14.2441 16.064 14.4695C15.8216 14.63 15.627 14.7939 15.4904 14.9577C15.3436 15.1319 15.1353 15.2241 14.9236 15.2241ZM15.2377 17.7746C15.0704 17.7746 14.9031 17.72 14.7666 17.6039C14.4012 17.3035 14.1315 16.962 13.9642 16.5898C13.7934 16.2143 13.9608 15.7738 14.3329 15.6031C14.7085 15.4358 15.1456 15.5997 15.3163 15.9752C15.3914 16.1426 15.5211 16.2996 15.7089 16.4567C16.0265 16.7196 16.0709 17.1874 15.8114 17.5049C15.6646 17.6825 15.4494 17.7746 15.2377 17.7746ZM19.3043 19.6799C18.939 19.4921 18.799 19.0414 18.9902 18.6761C19.178 18.3141 19.6253 18.1673 19.9906 18.3585C20.3901 18.5668 20.7042 18.7819 20.9569 19.0209C21.254 19.3043 21.2676 19.7755 20.9876 20.0726C20.8408 20.2296 20.6462 20.3082 20.4482 20.3082C20.2672 20.3082 20.0828 20.2399 19.9394 20.1067C19.7892 19.9633 19.5741 19.8199 19.3043 19.6799ZM13.015 24.006C13.4418 23.9582 13.8003 24.2279 13.8583 24.6342C13.9164 25.0405 13.6364 25.4195 13.2335 25.481C12.8955 25.5322 12.5643 25.5766 12.2501 25.6142C12.2194 25.6176 12.1887 25.621 12.1579 25.621C11.7892 25.621 11.4682 25.3444 11.4238 24.9654C11.3726 24.5591 11.6628 24.1869 12.0692 24.1357C12.373 24.0982 12.6906 24.0572 13.015 24.006ZM15.8045 23.4665C16.1972 23.3641 16.6069 23.6099 16.706 24.0094C16.805 24.4089 16.566 24.8118 16.1665 24.9108C15.8421 24.9927 15.5177 25.0679 15.1899 25.1362C15.1387 25.1464 15.0875 25.1498 15.0397 25.1498C14.6949 25.1498 14.3841 24.9074 14.3124 24.5557C14.2305 24.1528 14.4866 23.7601 14.8895 23.6748C15.1934 23.6099 15.5007 23.5416 15.8045 23.4665ZM7.65772 16.7913C8.56596 16.7913 8.93472 16.4225 8.93472 15.5109C8.93472 14.5992 8.56596 14.2305 7.65772 14.2305C6.7529 14.2305 6.38414 14.6026 6.38414 15.5109C6.38073 16.4225 6.7529 16.7913 7.65772 16.7913ZM10.1707 24.3269C10.5702 24.3064 10.9356 24.6035 10.9697 25.0132C11.0004 25.423 10.6931 25.7815 10.2868 25.8122C9.84295 25.8464 9.522 25.8634 9.37859 25.8737H9.3342C8.98593 25.8737 8.66839 25.6278 8.58645 25.2932C8.38841 25.5254 8.23476 25.6961 8.15281 25.7815C8.00941 25.9249 7.8182 26 7.62699 26C7.43578 26 7.24799 25.9283 7.10117 25.7815C6.46267 25.143 1.98977 19.755 2.00002 16.1221C2.01026 12.5881 4.11696 10.4814 7.63382 10.4814H7.66114C9.39225 10.4848 10.8229 11.0107 11.8028 11.9974C12.7828 12.9842 13.2949 14.4217 13.2881 16.1562C13.2813 18.8024 10.857 22.4046 9.32055 24.385C9.46395 24.3747 9.76101 24.3577 10.1707 24.3269ZM22.0632 6.61972C22.6846 6.61972 22.9373 6.36364 22.9373 5.7388C22.9373 5.11396 22.6812 4.86129 22.0632 4.86129C21.4418 4.86129 21.1891 5.11396 21.1891 5.7388C21.1891 6.36364 21.4418 6.61972 22.0632 6.61972ZM22.012 2C24.4772 2.00683 26.0034 3.54673 25.9966 6.01878C25.9898 8.52497 22.968 12.1272 22.5105 12.5847C22.3671 12.7281 22.1759 12.8032 21.9847 12.8032C21.7934 12.8032 21.6057 12.7315 21.4588 12.5847C21.4213 12.5472 21.3632 12.4823 21.2915 12.4038C21.254 12.7589 20.9774 13.0491 20.6086 13.0696C20.5779 13.073 20.4823 13.0832 20.3457 13.1037C20.3116 13.1105 20.274 13.1105 20.2399 13.1105C19.878 13.1105 19.5604 12.8442 19.5058 12.472C19.4477 12.0657 19.7277 11.6867 20.134 11.6321C20.3423 11.6014 20.4789 11.5877 20.5199 11.5843C20.5608 11.5809 20.595 11.598 20.6325 11.598C19.5911 10.239 17.9898 7.81135 17.9932 5.99488C17.9966 4.77593 18.3688 3.76184 19.0721 3.06189C19.7687 2.36534 20.7794 2 21.9881 2H22.012Z" fill="#86888C"/>
</svg>
