<svg width="24" height="24" viewBox="0 0 24 24" fill="none" xmlns="http://www.w3.org/2000/svg">
<path fill-rule="evenodd" clip-rule="evenodd" d="M17.9141 17.5271C18.2328 17.6466 18.3949 18.0051 18.2754 18.3266C18.1588 18.6368 17.971 18.9327 17.7206 19.2059C17.5982 19.3367 17.4332 19.405 17.2682 19.405C17.1174 19.405 16.9666 19.351 16.8471 19.2372C16.5967 19.0038 16.5825 18.614 16.8158 18.3608C16.958 18.2071 17.0605 18.0478 17.1202 17.8885C17.2369 17.5698 17.5926 17.4076 17.9141 17.5271ZM15.6719 19.1404C15.9792 18.9896 16.3491 19.1205 16.4999 19.4278C16.6479 19.7351 16.5199 20.1078 16.2126 20.2586C15.9622 20.381 15.6947 20.4948 15.4159 20.5972C15.3447 20.6228 15.2736 20.6371 15.1996 20.6371C14.9492 20.6371 14.7131 20.4834 14.6192 20.233C14.4997 19.9144 14.6618 19.5558 14.9805 19.4335C15.2252 19.3424 15.4557 19.2457 15.6719 19.1404ZM14.2237 15.8626C13.905 15.7374 13.7485 15.376 13.8737 15.0573C13.9989 14.7387 14.3602 14.5822 14.6761 14.7074C14.9179 14.8041 15.1683 14.8923 15.4187 14.9834C15.7402 15.1 15.9053 15.4557 15.7886 15.7772C15.6976 16.0304 15.4614 16.1869 15.2082 16.1869C15.137 16.1869 15.0659 16.1756 14.9976 16.15C14.7387 16.0589 14.4797 15.9622 14.2237 15.8626ZM14.8439 11.8136C14.585 11.8136 14.346 11.6514 14.2578 11.3897C14.1497 11.0653 14.3232 10.7125 14.6476 10.6044C14.9208 10.5133 15.1968 10.4308 15.4614 10.3625C15.7943 10.2771 16.13 10.4706 16.2183 10.8035C16.3065 11.1364 16.1101 11.475 15.7801 11.5632C15.5411 11.6258 15.2907 11.6998 15.0431 11.7852C14.9748 11.8051 14.9094 11.8136 14.8439 11.8136ZM12.7697 13.0201C12.6274 13.0201 12.488 12.9717 12.3713 12.8749C12.1096 12.6559 12.0754 12.2632 12.2945 12.0014C12.4851 11.7709 12.7355 11.5547 13.04 11.3555C13.3245 11.1706 13.7087 11.2474 13.8964 11.5319C14.0842 11.8193 14.0046 12.2034 13.72 12.3912C13.518 12.525 13.3558 12.6615 13.242 12.7981C13.1197 12.9432 12.9461 13.0201 12.7697 13.0201ZM13.0315 15.1455C12.892 15.1455 12.7526 15.1 12.6388 15.0033C12.3343 14.7529 12.1096 14.4683 11.9701 14.1582C11.8279 13.8452 11.9673 13.4782 12.2774 13.3359C12.5904 13.1965 12.9546 13.333 13.0969 13.646C13.1595 13.7855 13.2676 13.9163 13.4241 14.0472C13.6887 14.2663 13.7257 14.6561 13.5095 14.9208C13.3871 15.0687 13.2079 15.1455 13.0315 15.1455ZM16.4203 16.7332C16.1158 16.5768 15.9992 16.2012 16.1585 15.8967C16.315 15.5951 16.6877 15.4728 16.9922 15.6321C17.3251 15.8057 17.5869 15.9849 17.7974 16.1841C18.045 16.4203 18.0564 16.8129 17.823 17.0605C17.7007 17.1913 17.5385 17.2568 17.3735 17.2568C17.2227 17.2568 17.069 17.1999 16.9495 17.0889C16.8243 16.9694 16.6451 16.8499 16.4203 16.7332ZM11.1791 20.3383C11.5348 20.2985 11.8336 20.5233 11.8819 20.8619C11.9303 21.2005 11.697 21.5163 11.3612 21.5675C11.0795 21.6102 10.8035 21.6472 10.5418 21.6785C10.5162 21.6813 10.4906 21.6842 10.4649 21.6842C10.1576 21.6842 9.89018 21.4537 9.85319 21.1379C9.81051 20.7993 10.0524 20.4891 10.391 20.4464C10.6442 20.4151 10.9088 20.381 11.1791 20.3383ZM13.5038 19.8887C13.831 19.8034 14.1724 20.0083 14.255 20.3412C14.3375 20.6741 14.1383 21.0098 13.8054 21.0923C13.5351 21.1606 13.2648 21.2232 12.9916 21.2801C12.9489 21.2887 12.9063 21.2915 12.8664 21.2915C12.579 21.2915 12.3201 21.0895 12.2604 20.7964C12.1921 20.4607 12.4055 20.1334 12.7412 20.0623C12.9945 20.0083 13.2505 19.9513 13.5038 19.8887ZM6.71477 14.3261C7.47163 14.3261 7.77893 14.0188 7.77893 13.2591C7.77893 12.4994 7.47163 12.1921 6.71477 12.1921C5.96075 12.1921 5.65345 12.5022 5.65345 13.2591C5.6506 14.0188 5.96075 14.3261 6.71477 14.3261ZM8.80895 20.6058C9.14186 20.5887 9.44631 20.8363 9.47476 21.1777C9.50037 21.5191 9.24429 21.8179 8.90569 21.8435C8.53579 21.872 8.26833 21.8862 8.14883 21.8947H8.11184C7.82161 21.8947 7.55699 21.6899 7.4887 21.411C7.32367 21.6045 7.19563 21.7468 7.12734 21.8179C7.00784 21.9374 6.8485 22 6.68916 22C6.52982 22 6.37333 21.9402 6.25097 21.8179C5.71889 21.2858 1.99148 16.7958 2.00001 13.7684C2.00855 10.8234 3.76413 9.06786 6.69485 9.06786H6.71761C8.16021 9.07071 9.35241 9.50889 10.169 10.3312C10.9856 11.1535 11.4124 12.3514 11.4068 13.7968C11.4011 16.002 9.38087 19.0038 8.10046 20.6541C8.21996 20.6456 8.46751 20.6314 8.80895 20.6058ZM18.7193 5.84977C19.2372 5.84977 19.4477 5.63636 19.4477 5.11566C19.4477 4.59496 19.2343 4.38441 18.7193 4.38441C18.2015 4.38441 17.9909 4.59496 17.9909 5.11566C17.9909 5.63636 18.2015 5.84977 18.7193 5.84977ZM18.6766 2C20.731 2.00569 22.0029 3.28895 21.9972 5.34898C21.9915 7.43747 19.4733 10.4393 19.0921 10.8206C18.9726 10.9401 18.8132 11.0027 18.6539 11.0027C18.4945 11.0027 18.338 10.943 18.2157 10.8206C18.1844 10.7893 18.136 10.7352 18.0763 10.6698C18.045 10.9657 17.8145 11.2076 17.5072 11.2246C17.4816 11.2275 17.4019 11.236 17.2881 11.2531C17.2597 11.2588 17.2284 11.2588 17.1999 11.2588C16.8983 11.2588 16.6337 11.0368 16.5881 10.7267C16.5398 10.3881 16.7731 10.0723 17.1117 10.0267C17.2853 10.0011 17.3991 9.98976 17.4332 9.98691C17.4674 9.98407 17.4958 9.99829 17.5271 9.99829C16.6593 8.86584 15.3248 6.84279 15.3277 5.32907C15.3305 4.31327 15.6406 3.4682 16.2268 2.88491C16.8072 2.30445 17.6495 2 18.6567 2H18.6766Z" fill="#86888C"/>
</svg>
