<svg width="20" height="20" viewBox="0 0 20 20" fill="none" xmlns="http://www.w3.org/2000/svg">
<path fill-rule="evenodd" clip-rule="evenodd" d="M14.7313 14.4217C14.9862 14.5173 15.116 14.8041 15.0204 15.0613C14.927 15.3094 14.7768 15.5462 14.5765 15.7647C14.4786 15.8694 14.3466 15.924 14.2146 15.924C14.0939 15.924 13.9733 15.8808 13.8777 15.7897C13.6773 15.6031 13.666 15.2912 13.8526 15.0886C13.9664 14.9657 14.0484 14.8382 14.0962 14.7108C14.1895 14.4558 14.474 14.3261 14.7313 14.4217ZM12.9376 15.7123C13.1834 15.5917 13.4793 15.6964 13.6 15.9422C13.7183 16.1881 13.6159 16.4863 13.37 16.6069C13.1697 16.7048 12.9558 16.7958 12.7327 16.8778C12.6758 16.8983 12.6189 16.9097 12.5597 16.9097C12.3594 16.9097 12.1704 16.7867 12.0953 16.5864C11.9997 16.3315 12.1295 16.0447 12.3844 15.9468C12.5802 15.874 12.7646 15.7966 12.9376 15.7123ZM11.7789 13.0901C11.524 12.9899 11.3988 12.7008 11.4989 12.4459C11.5991 12.1909 11.8882 12.0657 12.1409 12.1659C12.3343 12.2433 12.5347 12.3138 12.735 12.3867C12.9922 12.48 13.1242 12.7645 13.0309 13.0218C12.958 13.2244 12.7691 13.3496 12.5665 13.3496C12.5096 13.3496 12.4527 13.3404 12.3981 13.32C12.1909 13.2471 11.9838 13.1697 11.7789 13.0901ZM12.2752 9.8509C12.068 9.8509 11.8768 9.72115 11.8062 9.51174C11.7197 9.25224 11.8586 8.96998 12.1181 8.88348C12.3366 8.81064 12.5574 8.74463 12.7691 8.69C13.0354 8.62171 13.304 8.7765 13.3746 9.04282C13.4452 9.30915 13.2881 9.58003 13.0241 9.65059C12.8328 9.70067 12.6325 9.75985 12.4345 9.82814C12.3799 9.84407 12.3275 9.8509 12.2752 9.8509ZM10.6157 10.816C10.5019 10.816 10.3904 10.7774 10.2971 10.7C10.0876 10.5247 10.0603 10.2106 10.2356 10.0011C10.3881 9.81676 10.5884 9.64376 10.832 9.48442C11.0596 9.33646 11.3669 9.39792 11.5172 9.62555C11.6674 9.85546 11.6037 10.1628 11.376 10.313C11.2144 10.42 11.0847 10.5292 10.9936 10.6385C10.8957 10.7546 10.7569 10.816 10.6157 10.816ZM10.8252 12.5164C10.7136 12.5164 10.6021 12.48 10.511 12.4026C10.2675 12.2023 10.0876 11.9747 9.97611 11.7266C9.8623 11.4762 9.97383 11.1825 10.2219 11.0687C10.4723 10.9572 10.7637 11.0664 10.8775 11.3168C10.9276 11.4284 11.0141 11.5331 11.1393 11.6378C11.351 11.8131 11.3806 12.1249 11.2076 12.3366C11.1097 12.455 10.9663 12.5164 10.8252 12.5164ZM13.5362 13.7866C13.2927 13.6614 13.1993 13.3609 13.3268 13.1174C13.452 12.8761 13.7502 12.7782 13.9938 12.9057C14.2601 13.0445 14.4695 13.1879 14.6379 13.3473C14.836 13.5362 14.8451 13.8503 14.6584 14.0484C14.5605 14.1531 14.4308 14.2054 14.2988 14.2054C14.1781 14.2054 14.0552 14.1599 13.9596 14.0711C13.8595 13.9755 13.716 13.8799 13.5362 13.7866ZM9.3433 16.6706C9.62784 16.6388 9.86685 16.8186 9.90555 17.0895C9.94424 17.3604 9.75759 17.613 9.48899 17.654C9.26363 17.6881 9.04283 17.7177 8.83342 17.7428C8.81293 17.7451 8.79244 17.7473 8.77196 17.7473C8.52612 17.7473 8.31215 17.563 8.28256 17.3103C8.24841 17.0394 8.4419 16.7913 8.71277 16.7571C8.91536 16.7321 9.12706 16.7048 9.3433 16.6706ZM11.203 16.311C11.4648 16.2427 11.738 16.4066 11.804 16.6729C11.87 16.9393 11.7106 17.2079 11.4443 17.2739C11.2281 17.3285 11.0118 17.3786 10.7933 17.4241C10.7592 17.4309 10.725 17.4332 10.6931 17.4332C10.4632 17.4332 10.2561 17.2716 10.2083 17.0371C10.1537 16.7685 10.3244 16.5068 10.593 16.4499C10.7956 16.4066 11.0004 16.3611 11.203 16.311ZM5.77181 11.8609C6.37731 11.8609 6.62314 11.615 6.62314 11.0073C6.62314 10.3995 6.37731 10.1536 5.77181 10.1536C5.1686 10.1536 4.92276 10.4018 4.92276 11.0073C4.92048 11.615 5.1686 11.8609 5.77181 11.8609ZM7.44716 16.8846C7.71348 16.871 7.95705 17.069 7.97981 17.3422C8.0003 17.6153 7.79543 17.8543 7.52455 17.8748C7.22864 17.8976 7.01467 17.9089 6.91906 17.9158H6.88947C6.65729 17.9158 6.44559 17.7519 6.39096 17.5288C6.25894 17.6836 6.15651 17.7974 6.10188 17.8543C6.00627 17.9499 5.8788 18 5.75133 18C5.62386 18 5.49866 17.9522 5.40078 17.8543C4.97511 17.4287 1.99318 13.8367 2.00001 11.4147C2.00684 9.05876 3.41131 7.65429 5.75588 7.65429H5.77409C6.92817 7.65657 7.88193 8.00711 8.53522 8.66496C9.18852 9.3228 9.52996 10.2811 9.52541 11.4375C9.52085 13.2016 7.90469 15.6031 6.88036 16.9233C6.97597 16.9165 7.17401 16.9051 7.44716 16.8846ZM15.3755 5.07981C15.7897 5.07981 15.9582 4.90909 15.9582 4.49253C15.9582 4.07597 15.7875 3.90753 15.3755 3.90753C14.9612 3.90753 14.7927 4.07597 14.7927 4.49253C14.7927 4.90909 14.9612 5.07981 15.3755 5.07981ZM15.3413 2C16.9848 2.00455 18.0023 3.03116 17.9977 4.67919C17.9932 6.34998 15.9787 8.75146 15.6736 9.05648C15.578 9.15208 15.4506 9.20216 15.3231 9.20216C15.1956 9.20216 15.0704 9.15436 14.9726 9.05648C14.9475 9.03144 14.9088 8.98819 14.861 8.93584C14.836 9.17257 14.6516 9.36606 14.4058 9.37971C14.3853 9.38199 14.3215 9.38882 14.2305 9.40248C14.2077 9.40703 14.1827 9.40703 14.1599 9.40703C13.9186 9.40703 13.7069 9.22948 13.6705 8.98136C13.6318 8.71048 13.8185 8.45782 14.0894 8.4214C14.2282 8.40091 14.3193 8.39181 14.3466 8.38953C14.3739 8.38725 14.3967 8.39863 14.4217 8.39863C13.7274 7.49267 12.6598 5.87424 12.6621 4.66325C12.6644 3.85062 12.9125 3.17456 13.3814 2.70792C13.8458 2.24356 14.5196 2 15.3254 2H15.3413Z" fill="#86888C"/>
</svg>
