<svg width="28" height="28" viewBox="0 0 28 28" fill="none" xmlns="http://www.w3.org/2000/svg">
<path fill-rule="evenodd" clip-rule="evenodd" d="M13.5258 2C18.8489 2.01707 22.0141 5.22322 22.0004 10.5839C21.9834 15.8011 15.4823 24.1801 13.8195 25.8532C13.7239 25.9488 13.5975 26 13.4678 26C13.3415 26 13.2151 25.9522 13.1161 25.8532C11.4601 24.1869 4.98636 15.8011 5.00002 10.5326C5.00685 7.88647 5.78875 5.70807 7.26037 4.23645C8.72175 2.77166 10.8728 2 13.4849 2H13.5258ZM16.5988 10.041C16.5988 8.13231 15.4584 6.99531 13.5532 6.99531C11.6479 6.99531 10.5075 8.13572 10.5075 10.041C10.5075 11.9496 11.6479 13.0866 13.5532 13.0866C15.4618 13.0866 16.5988 11.9496 16.5988 10.041Z" fill="#86888C"/>
</svg>
