<svg width="20" height="20" viewBox="0 0 20 20" fill="none" xmlns="http://www.w3.org/2000/svg">
<path fill-rule="evenodd" clip-rule="evenodd" d="M9.6839 2C13.2326 2.01138 15.3427 4.14881 15.3336 7.72258C15.3223 11.2007 10.9882 16.7867 9.87966 17.9021C9.81592 17.9659 9.7317 18 9.6452 18C9.56098 18 9.47675 17.9681 9.41074 17.9021C8.30674 16.7913 3.99091 11.2007 4.00001 7.68843C4.00457 5.92431 4.52584 4.47204 5.50691 3.49097C6.48116 2.51444 7.91522 2 9.65658 2H9.6839ZM11.7326 7.36065C11.7326 6.08821 10.9723 5.3302 9.70211 5.3302C8.43194 5.3302 7.67166 6.09048 7.67166 7.36065C7.67166 8.63309 8.43194 9.39109 9.70211 9.39109C10.9745 9.39109 11.7326 8.63309 11.7326 7.36065Z" fill="#86888C"/>
</svg>
