<svg width="40" height="40" viewBox="0 0 40 40" fill="none" xmlns="http://www.w3.org/2000/svg">
<path d="M33.0341 20.7562C33.0085 18.7579 32.4259 17.2093 31.2964 16.1565C30.2181 15.1446 28.6797 14.6284 26.7377 14.6284H13.2504C11.3032 14.6284 9.77002 15.1446 8.69676 16.1565C7.5724 17.2196 7 18.7681 7 20.7664V20.7766C7 20.7766 7.00511 21.0015 7.00511 21.5637L7 31.8618C7 33.8601 7.5724 35.4138 8.69676 36.4717C9.77002 37.4836 11.3032 37.9998 13.2504 37.9998H26.7377C28.6848 37.9998 30.2181 37.4887 31.2964 36.4768C32.4208 35.4189 33.0085 33.8703 33.0341 31.8771V20.7664V20.7562ZM22.2964 30.3133C21.7394 30.8499 20.9779 31.1208 20.0273 31.1208C19.0767 31.1208 18.3152 30.8499 17.7581 30.3133C17.1806 29.7562 16.8893 28.9691 16.8893 27.9777C16.8893 26.9862 17.1806 26.1991 17.7581 25.642C18.3152 25.1054 19.0767 24.8346 20.0273 24.8346C20.9779 24.8346 21.7394 25.1054 22.2964 25.642C22.879 26.1991 23.1652 26.9862 23.1652 27.9777C23.1652 28.9691 22.879 29.7562 22.2964 30.3133Z" fill="#86888C"/>
<path d="M12.1165 16.7394C11.5339 16.7394 11.0586 16.2641 11.0586 15.6814V10.2487C11.0586 5.70017 14.999 2 19.8439 2H20.1915C25.0365 2 28.9768 5.70017 28.9768 10.2487V15.6405C28.9768 16.2232 28.5015 16.6985 27.9189 16.6985C27.3363 16.6985 26.861 16.2232 26.861 15.6405V10.2487C26.861 6.87053 23.8712 4.11584 20.1915 4.11584H19.8439C16.1642 4.11584 13.1744 6.86542 13.1744 10.2487V15.6814C13.1744 16.2692 12.6991 16.7394 12.1165 16.7394Z" fill="#86888C"/>
</svg>
