<svg width="24" height="24" viewBox="0 0 24 24" fill="none" xmlns="http://www.w3.org/2000/svg">
<path fill-rule="evenodd" clip-rule="evenodd" d="M13.2727 14.402C12.9847 14.598 12.6463 14.7049 12.2989 14.7108C11.9366 14.7049 11.5803 14.595 11.2775 14.3961L3.31431 9.3753V9.37233C3.32618 8.96259 3.42713 8.66865 3.57856 8.55879L11.4319 3.59442C11.7347 3.40736 12.0851 3.30938 12.4384 3.30641C13.0026 3.30641 13.4301 3.59145 13.4598 3.61223L21.2597 8.54097C21.42 8.6538 21.515 8.90914 21.5388 9.24762L13.2727 14.402ZM22.8511 19.7346L22.86 9.34264C22.8363 8.27969 22.3939 7.74228 21.996 7.46021L14.1961 2.53147C13.6706 2.18409 13.056 2 12.4265 2C11.4438 2 10.749 2.47506 10.7045 2.51069L2.98474 7.38599L2.83925 7.47803C2.47108 7.74228 2.02868 8.27969 2.00493 9.35748L2.01383 19.7375C1.98711 19.9691 1.94851 20.6936 2.43842 21.2815C2.70267 21.5992 3.21633 21.9792 4.16645 22H20.6985C21.6457 21.9822 22.1593 21.5992 22.4236 21.2815C22.9164 20.6906 22.8778 19.9691 22.8511 19.7346Z" fill="#86888C"/>
</svg>
