<svg width="28" height="28" viewBox="0 0 28 28" fill="none" xmlns="http://www.w3.org/2000/svg">
<path fill-rule="evenodd" clip-rule="evenodd" d="M25.5693 19.9651C25.5983 20.213 25.6433 20.9854 25.1187 21.6163C24.8354 21.9575 24.2818 22.3663 23.2615 22.3856C22.6661 22.3952 20.4291 22.3984 17.7125 22.3984C12.4661 22.3984 5.43009 22.3856 4.98592 22.3856C4.91511 22.3888 4.22631 22.3823 3.66305 21.8352C3.22531 21.4071 3 20.7955 3 20.0134V9.13431L12.2215 14.9472C12.2698 14.9826 13.0487 15.533 14.1269 15.533C14.6677 15.533 15.2857 15.3946 15.923 14.9762L25.5854 9.08924L25.5693 19.9651ZM15.1827 13.8175C14.0722 14.5417 13.0777 13.8625 13.0036 13.811L3.19634 7.62797C3.28646 7.39622 3.41521 7.16126 3.60833 6.95849C3.95594 6.59156 4.43231 6.39844 4.98914 6.39844L23.6284 6.40166C24.0501 6.40487 24.9384 6.6334 25.3569 7.62153L15.1827 13.8175Z" fill="#86888C"/>
</svg>
