<svg width="40" height="40" viewBox="0 0 40 40" fill="none" xmlns="http://www.w3.org/2000/svg">
<path fill-rule="evenodd" clip-rule="evenodd" d="M15.7188 18.038C13.2958 18.038 13.2958 18.5605 13.2958 19.2162C13.2958 19.247 13.3009 19.2726 13.3009 19.3033C13.9822 19.0677 14.7711 18.9396 15.7137 18.9396C16.6614 18.9396 17.4555 19.0677 18.1368 19.3085C18.1368 19.2726 18.1419 19.2521 18.1419 19.2162C18.1419 18.5605 18.1419 18.038 15.7188 18.038ZM22.4143 23.96C22.9471 23.96 23.3723 24.3851 23.3723 24.9179V26.3318C23.3723 26.8595 22.942 27.2898 22.4143 27.2847C21.8867 27.2847 21.4564 26.8595 21.4564 26.3318V25.8708H21.2207C21.2105 26.9107 21.1285 27.9148 20.8826 28.8112L22.2299 29.2159C22.6551 29.344 22.9369 29.7385 22.9112 30.179L22.7934 32.3101C22.7627 32.8173 22.3426 33.2117 21.8355 33.2117H21.7842C21.2566 33.1861 20.8519 32.7353 20.8775 32.2077L20.9543 30.8245L20.0527 30.553C19.2433 31.598 17.9114 32.2589 15.7188 32.2589C13.516 32.2589 12.179 31.5929 11.3747 30.5427L10.4424 30.8245L10.5192 32.2077C10.5448 32.7353 10.1401 33.1861 9.61247 33.2117H9.55612C9.04897 33.2117 8.6289 32.8173 8.59816 32.3101L8.48034 30.179C8.45472 29.7385 8.73647 29.3389 9.16167 29.2159L10.5397 28.801C10.2989 27.9045 10.217 26.9056 10.2067 25.8708H9.97107V26.3318C9.97107 26.8595 9.54075 27.2898 9.01311 27.2847C8.48546 27.2847 8.05514 26.8595 8.05514 26.3318V24.9179C8.05514 24.3903 8.48546 23.96 9.01311 23.96H10.2682C10.345 23.1198 10.509 22.3002 10.8266 21.5727L9.16167 21.0707C8.73647 20.9478 8.45472 20.5482 8.47521 20.1076L8.59304 17.9765C8.62377 17.4489 9.06946 17.1057 9.60223 17.0749C10.1299 17.1057 10.5346 17.5513 10.509 18.079L10.4321 19.4621L11.4208 19.7593C11.3901 19.58 11.3747 19.3955 11.3747 19.2162C11.3747 16.1272 14.4177 16.1272 15.7188 16.1272C17.02 16.1272 20.063 16.1272 20.063 19.2162C20.063 19.4007 20.0425 19.5748 20.022 19.7439L20.9543 19.4673L20.8775 18.0892C20.8519 17.5616 21.2566 17.1108 21.7842 17.0852C22.3324 17.1159 22.7678 17.4591 22.7934 17.9868L22.9112 20.1179C22.9369 20.5584 22.65 20.958 22.2299 21.0861L20.5957 21.5727C20.9134 22.3053 21.0824 23.1249 21.1593 23.9702C21.1593 23.96 22.4143 23.96 22.4143 23.96ZM15.6522 22.3821C15.1246 22.3821 14.6943 22.8073 14.6943 23.335V28.6319C14.6943 29.1596 15.1246 29.5848 15.6522 29.5848C16.1799 29.5848 16.6102 29.1596 16.6102 28.6319V23.335C16.6102 22.8073 16.185 22.3821 15.6522 22.3821ZM16.267 36.0959C17.7219 36.0702 22.6705 35.6809 25.3548 31.7261C26.5843 29.9178 27.2093 27.5562 27.2093 24.7028C27.2093 24.0112 27.1734 23.3401 27.1017 22.7151C26.113 14.1549 18.5159 13.3097 16.2158 13.2482C15.9442 13.2431 15.6318 13.2379 15.3346 13.2379H15.0631C12.7271 13.2636 5.0788 14.0217 4.28477 23.0071C4.23866 23.5245 4.21305 24.0675 4.21305 24.631C4.21305 35.1276 12.5837 36.0651 15.1502 36.101C15.5293 36.1061 15.934 36.101 16.267 36.0959ZM19.8017 4.94927L7.32258 12.8332C7.17915 12.9357 7.07157 13.1714 7.00497 13.4941C9.37682 11.8036 12.2814 11.0659 15.0375 11.0403C15.4371 11.0351 15.8879 11.0403 16.267 11.0505C20.9185 11.1632 26.0515 13.2482 28.2799 18.5042L35.7643 13.8373C35.7234 13.3404 35.5799 12.9664 35.3494 12.7974L35.206 12.7052L22.9574 4.98C22.4861 4.67776 21.9328 4.51383 21.3693 4.50358C20.4677 4.50358 19.812 4.94414 19.8017 4.94927ZM37.9825 30.5223C38.0286 30.9013 38.0798 32.0693 37.2909 33.0171C36.8606 33.5345 36.0307 34.1543 34.499 34.1851C33.8126 34.1953 29.6938 34.2004 26.1898 34.2004C22.8293 37.8632 17.8653 38.2679 16.308 38.2935C15.9135 38.2987 15.5139 38.3038 15.1144 38.2987C12.9269 38.2679 2 37.4585 2 24.631C2 23.9958 2.02561 23.3913 2.07684 22.8125C2.34835 19.7849 3.3268 17.4489 4.7202 15.6713V14.0422C4.75606 12.3056 5.47838 11.4398 6.07262 11.0095L6.30827 10.8558L18.5722 3.12043C19.4021 2.58766 20.3652 2.3059 21.3488 2.30078C22.9522 2.30078 24.0741 3.06408 24.1971 3.15629L36.5942 10.9788C37.2397 11.4347 37.9569 12.3056 37.9979 14.0166L37.9825 30.5223Z" fill="#86888C"/>
</svg>
