<svg width="24" height="24" viewBox="0 0 24 24" fill="none" xmlns="http://www.w3.org/2000/svg">
<path fill-rule="evenodd" clip-rule="evenodd" d="M9.62158 11.0437C8.27542 11.0437 8.27542 11.334 8.27542 11.6983C8.27542 11.7153 8.27827 11.7296 8.27827 11.7466C8.65679 11.6157 9.09507 11.5446 9.61873 11.5446C10.1452 11.5446 10.5864 11.6157 10.9649 11.7495C10.9649 11.7296 10.9677 11.7182 10.9677 11.6983C10.9677 11.334 10.9677 11.0437 9.62158 11.0437ZM13.3413 14.3337C13.6373 14.3337 13.8735 14.5699 13.8735 14.8659V15.6514C13.8735 15.9445 13.6344 16.1836 13.3413 16.1807C13.0482 16.1807 12.8091 15.9445 12.8091 15.6514V15.3952H12.6782C12.6725 15.9729 12.627 16.5308 12.4903 17.0288L13.2388 17.2536C13.4751 17.3248 13.6316 17.5439 13.6174 17.7887L13.5519 18.9726C13.5348 19.2544 13.3015 19.4735 13.0197 19.4735H12.9912C12.6981 19.4593 12.4733 19.2088 12.4875 18.9157L12.5302 18.1473L12.0293 17.9965C11.5796 18.577 10.8397 18.9442 9.62158 18.9442C8.3978 18.9442 7.655 18.5742 7.20817 17.9908L6.6902 18.1473L6.73289 18.9157C6.74712 19.2088 6.52229 19.4593 6.22915 19.4735H6.19785C5.91609 19.4735 5.68272 19.2544 5.66564 18.9726L5.60019 17.7887C5.58596 17.5439 5.74249 17.322 5.9787 17.2536L6.74428 17.0231C6.61052 16.5251 6.56498 15.9701 6.55929 15.3952H6.42837V15.6514C6.42837 15.9445 6.18931 16.1836 5.89617 16.1807C5.60303 16.1807 5.36397 15.9445 5.36397 15.6514V14.8659C5.36397 14.5727 5.60303 14.3337 5.89617 14.3337H6.59344C6.63613 13.8669 6.7272 13.4116 6.90365 13.0074L5.9787 12.7285C5.74249 12.6602 5.58596 12.4382 5.59734 12.1935L5.6628 11.0095C5.67987 10.7164 5.92748 10.5257 6.22346 10.5086C6.5166 10.5257 6.74143 10.7733 6.7272 11.0665L6.68451 11.8349L7.23379 11.9999C7.21671 11.9003 7.20817 11.7979 7.20817 11.6983C7.20817 9.98213 8.8987 9.98213 9.62158 9.98213C10.3445 9.98213 12.035 9.98213 12.035 11.6983C12.035 11.8007 12.0236 11.8975 12.0122 11.9914L12.5302 11.8377L12.4875 11.0721C12.4733 10.779 12.6981 10.5286 12.9912 10.5143C13.2958 10.5314 13.5377 10.7221 13.5519 11.0152L13.6174 12.1992C13.6316 12.4439 13.4722 12.6659 13.2388 12.7371L12.331 13.0074C12.5074 13.4144 12.6013 13.8698 12.644 14.3393C12.644 14.3337 13.3413 14.3337 13.3413 14.3337ZM9.58458 13.4571C9.29144 13.4571 9.05238 13.6933 9.05238 13.9864V16.9292C9.05238 17.2223 9.29144 17.4586 9.58458 17.4586C9.87772 17.4586 10.1168 17.2223 10.1168 16.9292V13.9864C10.1168 13.6933 9.88057 13.4571 9.58458 13.4571ZM9.9261 21.0758C10.7344 21.0616 13.4836 20.8453 14.9749 18.6482C15.6579 17.6436 16.0052 16.3315 16.0052 14.7463C16.0052 14.3621 15.9852 13.9893 15.9454 13.6421C15.3961 8.88642 11.1755 8.41683 9.89764 8.38268C9.7468 8.37983 9.5732 8.37698 9.40813 8.37698H9.25729C7.95952 8.39121 3.71044 8.81242 3.26931 13.8043C3.2437 14.0917 3.22947 14.3934 3.22947 14.7065C3.22947 20.5379 7.87983 21.0587 9.30567 21.0787C9.51628 21.0815 9.74111 21.0787 9.9261 21.0758ZM11.8898 3.77216L4.95699 8.15215C4.8773 8.20907 4.81754 8.33999 4.78054 8.51928C6.09824 7.58011 7.71192 7.17028 9.24306 7.15605C9.46505 7.15321 9.7155 7.15605 9.9261 7.16174C12.5103 7.22436 15.362 8.38268 16.6 11.3027L20.758 8.70997C20.7352 8.4339 20.6555 8.22615 20.5274 8.13223L20.4478 8.081L13.643 3.78924C13.3811 3.62132 13.0738 3.53025 12.7607 3.52456C12.2598 3.52456 11.8955 3.76932 11.8898 3.77216ZM21.9903 17.9794C22.0159 18.19 22.0444 18.8389 21.6061 19.3654C21.367 19.6528 20.906 19.9972 20.055 20.0143C19.6736 20.02 17.3855 20.0228 15.4388 20.0228C13.5718 22.0577 10.8141 22.2825 9.94887 22.2968C9.72973 22.2996 9.50774 22.3024 9.28575 22.2996C8.07051 22.2825 2 21.8329 2 14.7065C2 14.3536 2.01423 14.0177 2.04269 13.6962C2.19353 12.0142 2.73711 10.7164 3.51122 9.72883V8.82381C3.53115 7.85901 3.93243 7.37804 4.26257 7.13898L4.39348 7.0536L11.2068 2.75614C11.6679 2.46016 12.2029 2.30363 12.7493 2.30078C13.6401 2.30078 14.2634 2.72483 14.3317 2.77606L21.219 7.1219C21.5776 7.37519 21.9761 7.85901 21.9988 8.80958L21.9903 17.9794Z" fill="#86888C"/>
</svg>
