<svg width="20" height="20" viewBox="0 0 20 20" fill="none" xmlns="http://www.w3.org/2000/svg">
<path fill-rule="evenodd" clip-rule="evenodd" d="M8.09726 9.2951C7.02034 9.2951 7.02034 9.52734 7.02034 9.81877C7.02034 9.83243 7.02262 9.84381 7.02262 9.85747C7.32543 9.75274 7.67606 9.69582 8.09499 9.69582C8.51619 9.69582 8.8691 9.75274 9.17191 9.85975C9.17191 9.84381 9.17419 9.8347 9.17419 9.81877C9.17419 9.52734 9.17419 9.2951 8.09726 9.2951ZM11.073 11.9271C11.3098 11.9271 11.4988 12.1161 11.4988 12.3528V12.9812C11.4988 13.2157 11.3075 13.407 11.073 13.4047C10.8385 13.4047 10.6473 13.2157 10.6473 12.9812V12.7763H10.5425C10.538 13.2385 10.5016 13.6848 10.3923 14.0832L10.9911 14.2631C11.18 14.32 11.3053 14.4953 11.2939 14.6911L11.2415 15.6383C11.2279 15.8637 11.0412 16.039 10.8158 16.039H10.793C10.5585 16.0276 10.3786 15.8272 10.39 15.5927L10.4242 14.978L10.0234 14.8573C9.6637 15.3218 9.07173 15.6155 8.09726 15.6155C7.11824 15.6155 6.524 15.3195 6.16654 14.8528L5.75216 14.978L5.78631 15.5927C5.7977 15.8272 5.61783 16.0276 5.38332 16.039H5.35828C5.13287 16.039 4.94618 15.8637 4.93252 15.6383L4.88015 14.6911C4.86876 14.4953 4.99399 14.3177 5.18296 14.2631L5.79542 14.0787C5.68841 13.6802 5.65198 13.2362 5.64743 12.7763H5.5427V12.9812C5.5427 13.2157 5.35145 13.407 5.11694 13.4047C4.88243 13.4047 4.69117 13.2157 4.69117 12.9812V12.3528C4.69117 12.1183 4.88243 11.9271 5.11694 11.9271H5.67475C5.7089 11.5537 5.78176 11.1894 5.92292 10.8661L5.18296 10.643C4.99399 10.5883 4.86876 10.4107 4.87787 10.2149L4.93024 9.26778C4.9439 9.03327 5.14198 8.88073 5.37877 8.86707C5.61328 8.88073 5.79314 9.07881 5.78176 9.31332L5.74761 9.92805L6.18703 10.0601C6.17337 9.98042 6.16654 9.89846 6.16654 9.81877C6.16654 8.44586 7.51896 8.44586 8.09726 8.44586C8.67557 8.44586 10.028 8.44586 10.028 9.81877C10.028 9.90073 10.0189 9.97814 10.0098 10.0533L10.4242 9.93033L10.39 9.31787C10.3786 9.08336 10.5585 8.883 10.793 8.87162C11.0366 8.88528 11.2301 9.03783 11.2415 9.27234L11.2939 10.2195C11.3053 10.4153 11.1778 10.5929 10.9911 10.6498L10.2648 10.8661C10.4059 11.1917 10.4811 11.556 10.5152 11.9316C10.5152 11.9271 11.073 11.9271 11.073 11.9271ZM8.06767 11.2258C7.83316 11.2258 7.6419 11.4148 7.6419 11.6493V14.0035C7.6419 14.238 7.83316 14.427 8.06767 14.427C8.30218 14.427 8.49343 14.238 8.49343 14.0035V11.6493C8.49343 11.4148 8.30445 11.2258 8.06767 11.2258ZM8.34088 17.3208C8.98749 17.3094 11.1869 17.1364 12.3799 15.3787C12.9264 14.575 13.2041 13.5254 13.2041 12.2572C13.2041 11.9498 13.1882 11.6516 13.1563 11.3738C12.7169 7.56929 9.34039 7.19362 8.31811 7.1663C8.19744 7.16402 8.05856 7.16174 7.9265 7.16174H7.80583C6.76761 7.17313 3.36836 7.51009 3.01545 11.5036C2.99496 11.7336 2.98358 11.9749 2.98358 12.2253C2.98358 16.8905 6.70386 17.3072 7.84454 17.3231C8.01302 17.3254 8.19289 17.3231 8.34088 17.3208ZM9.91187 3.47789L4.36559 6.98188C4.30184 7.02741 4.25403 7.13215 4.22443 7.27558C5.27859 6.52424 6.56953 6.19638 7.79445 6.185C7.97204 6.18272 8.1724 6.185 8.34088 6.18955C10.4082 6.23964 12.6896 7.1663 13.68 9.50229L17.0064 7.42813C16.9882 7.20728 16.9244 7.04107 16.822 6.96594L16.7582 6.92496L11.3144 3.49155C11.1049 3.35722 10.859 3.28436 10.6086 3.2798C10.2079 3.2798 9.91642 3.47561 9.91187 3.47789ZM17.9922 14.8437C18.0127 15.0121 18.0355 15.5313 17.6849 15.9525C17.4936 16.1824 17.1248 16.4579 16.444 16.4716C16.1389 16.4761 14.3084 16.4784 12.751 16.4784C11.2575 18.1063 9.05124 18.2862 8.3591 18.2976C8.18378 18.2998 8.00619 18.3021 7.8286 18.2998C6.85641 18.2862 2 17.9264 2 12.2253C2 11.943 2.01138 11.6744 2.03415 11.4171C2.15482 10.0715 2.58969 9.03327 3.20898 8.24322V7.5192C3.22492 6.74737 3.54595 6.36259 3.81005 6.17134L3.91479 6.10303L9.36544 2.66507C9.73428 2.42828 10.1623 2.30306 10.5995 2.30078C11.3121 2.30078 11.8107 2.64002 11.8654 2.68101L17.3752 6.15768C17.6621 6.36031 17.9808 6.74737 17.9991 7.50782L17.9922 14.8437Z" fill="#86888C"/>
</svg>
