<svg width="20" height="20" viewBox="0 0 20 20" fill="none" xmlns="http://www.w3.org/2000/svg">
<path fill-rule="evenodd" clip-rule="evenodd" d="M11.0182 11.9216C10.7878 12.0784 10.517 12.1639 10.2391 12.1686C9.94931 12.1639 9.66427 12.076 9.42199 11.9169L3.05145 7.90024V7.89786C3.06095 7.57007 3.14171 7.33492 3.26285 7.24703L9.54551 3.27553C9.78779 3.12589 10.0681 3.04751 10.3507 3.04513C10.802 3.04513 11.1441 3.27316 11.1678 3.28979L17.4077 7.23278C17.536 7.32304 17.612 7.52732 17.631 7.7981L11.0182 11.9216ZM18.6809 16.1876L18.688 7.87411C18.669 7.02375 18.3151 6.59382 17.9968 6.36817L11.7569 2.42518C11.3365 2.14727 10.8448 2 10.3412 2C9.55501 2 8.99919 2.38005 8.96356 2.40855L2.78779 6.30879L2.6714 6.38242C2.37686 6.59382 2.02294 7.02375 2.00394 7.88599L2.01107 16.19C1.98969 16.3753 1.95881 16.9549 2.35073 17.4252C2.56213 17.6793 2.97306 17.9834 3.73316 18H16.9588C17.7165 17.9857 18.1275 17.6793 18.3389 17.4252C18.7332 16.9525 18.7023 16.3753 18.6809 16.1876Z" fill="#86888C"/>
</svg>
