<svg width="40" height="40" viewBox="0 0 40 40" fill="none" xmlns="http://www.w3.org/2000/svg">
<path fill-rule="evenodd" clip-rule="evenodd" d="M21.2909 24.3236C20.7725 24.6764 20.1633 24.8688 19.538 24.8795C18.8859 24.8688 18.2446 24.671 17.6995 24.3129L3.36575 15.2755V15.2702C3.38713 14.5327 3.56884 14.0036 3.84141 13.8058L17.9774 4.86995C18.5225 4.53325 19.1532 4.35689 19.7892 4.35154C20.8046 4.35154 21.5742 4.86461 21.6276 4.90202L35.6674 13.7738C35.956 13.9768 36.127 14.4365 36.1698 15.0457L21.2909 24.3236ZM38.532 33.9222L38.5481 15.2167C38.5053 13.3034 37.709 12.3361 36.9928 11.8284L22.953 2.95665C22.0071 2.33135 20.9008 2 19.7678 2C17.9988 2 16.7482 2.85511 16.668 2.91924L2.77252 11.6948L2.51065 11.8605C1.84794 12.3361 1.05162 13.3034 1.00887 15.2435L1.0249 33.9276C0.976799 34.3444 0.907321 35.6485 1.78915 36.7066C2.2648 37.2785 3.18939 37.9626 4.8996 38H34.6573C36.3622 37.9679 37.2868 37.2785 37.7624 36.7066C38.6496 35.6431 38.5801 34.3444 38.532 33.9222Z" fill="#86888C"/>
</svg>
