<svg width="20" height="20" viewBox="0 0 20 20" fill="none" xmlns="http://www.w3.org/2000/svg">
<path fill-rule="evenodd" clip-rule="evenodd" d="M16.9778 16.2903L14.3597 15.86V3.11326L16.9778 3.54354V16.2903ZM9.48776 16.7888L6.81503 15.9215V3.21343L9.48776 4.08082V16.7888ZM17.572 2.60785L13.934 2.00911C13.9226 2.00683 13.9089 2.01138 13.8976 2.01138C13.8816 2.00911 13.868 2.00228 13.8497 2.00228C13.8156 2.00228 13.786 2.01366 13.7541 2.02049C13.7359 2.02504 13.7154 2.01821 13.6972 2.02504L10.0023 3.17473L6.46215 2.02504C6.44394 2.02049 6.42345 2.02504 6.40296 2.02049C6.37109 2.01366 6.33921 2 6.30507 2C6.28913 2 6.27547 2.00683 6.26181 2.00683C6.25043 2.00911 6.23904 2.00228 6.22538 2.00455L2.43028 2.6033C2.18213 2.642 2 2.856 2 3.10871V16.8913C2 17.0415 2.06602 17.1827 2.17758 17.2783C2.29141 17.3762 2.44166 17.4172 2.58964 17.3944L6.26409 16.8139L9.84291 17.9772C9.893 17.9932 9.94536 18 10 18C10.0524 18 10.1024 17.9909 10.1525 17.9772L13.8884 16.8139L17.4058 17.3944C17.5538 17.4172 17.704 17.3785 17.8201 17.2806C17.934 17.1827 18.0023 17.0415 18.0023 16.8913V3.11098C18 2.86056 17.8179 2.64883 17.572 2.60785Z" fill="#86888C"/>
</svg>
