<svg width="24" height="24" viewBox="0 0 24 24" fill="none" xmlns="http://www.w3.org/2000/svg">
<path fill-rule="evenodd" clip-rule="evenodd" d="M20.7223 19.8628L17.4496 19.325V3.39158L20.7223 3.92943V19.8628ZM11.3597 20.4861L8.01878 19.4018V3.51679L11.3597 4.60102V20.4861ZM21.465 2.75982L16.9175 2.01138C16.9032 2.00854 16.8862 2.01423 16.8719 2.01423C16.852 2.01138 16.8349 2.00285 16.8122 2.00285C16.7695 2.00285 16.7325 2.01707 16.6927 2.02561C16.6699 2.0313 16.6443 2.02277 16.6215 2.0313L12.0028 3.46841L7.57769 2.0313C7.55492 2.02561 7.52931 2.0313 7.5037 2.02561C7.46386 2.01707 7.42402 2 7.38133 2C7.36141 2 7.34434 2.00854 7.32726 2.00854C7.31303 2.01138 7.2988 2.00285 7.28173 2.00569L2.53785 2.75413C2.22766 2.8025 2 3.07001 2 3.38589V20.6141C2 20.8019 2.08253 20.9784 2.22197 21.0979C2.36426 21.2203 2.55208 21.2715 2.73705 21.243L7.33011 20.5174L11.8036 21.9715C11.8662 21.9915 11.9317 22 12 22C12.0655 22 12.1281 21.9886 12.1907 21.9715L16.8606 20.5174L21.2573 21.243C21.4422 21.2715 21.6301 21.2231 21.7752 21.1007C21.9175 20.9784 22.0028 20.8019 22.0028 20.6141V3.38873C22 3.0757 21.7723 2.81104 21.465 2.75982Z" fill="#86888C"/>
</svg>
