<svg width="28" height="28" viewBox="0 0 28 28" fill="none" xmlns="http://www.w3.org/2000/svg">
<path fill-rule="evenodd" clip-rule="evenodd" d="M24.4667 23.4354L20.5396 22.79V3.66989L24.4667 4.31531V23.4354ZM13.2316 24.1833L9.22254 22.8822V3.82015L13.2316 5.12123V24.1833ZM25.358 2.91178L19.901 2.01366C19.8839 2.01024 19.8634 2.01707 19.8463 2.01707C19.8224 2.01366 19.8019 2.00341 19.7746 2.00341C19.7234 2.00341 19.679 2.02049 19.6312 2.03073C19.6039 2.03756 19.5731 2.02732 19.5458 2.03756L14.0034 3.76209L8.69323 2.03756C8.66591 2.03073 8.63517 2.03756 8.60444 2.03073C8.55663 2.02049 8.50882 2 8.4576 2C8.43369 2 8.4132 2.01024 8.39271 2.01024C8.37564 2.01366 8.35857 2.00341 8.33808 2.00683L2.64542 2.90495C2.27319 2.96301 2 3.28401 2 3.66306V24.3369C2 24.5623 2.09903 24.774 2.26636 24.9175C2.43711 25.0643 2.66249 25.1258 2.88446 25.0916L8.39613 24.2208L13.7644 25.9659C13.8395 25.9898 13.918 26 14 26C14.0785 26 14.1537 25.9863 14.2288 25.9659L19.8327 24.2208L25.1087 25.0916C25.3307 25.1258 25.5561 25.0677 25.7302 24.9209C25.901 24.774 26.0034 24.5623 26.0034 24.3369V3.66648C26 3.29084 25.7268 2.97325 25.358 2.91178Z" fill="#86888C"/>
</svg>
