<svg width="40" height="40" viewBox="0 0 40 40" fill="none" xmlns="http://www.w3.org/2000/svg">
<path fill-rule="evenodd" clip-rule="evenodd" d="M36.7001 35.1531L30.8093 34.185V5.50484L36.7001 6.47297V35.1531ZM19.8475 36.2749L13.8338 34.3233V5.73022L19.8475 7.68184V36.2749ZM38.037 4.36767L29.8515 3.02049C29.8258 3.01537 29.7951 3.02561 29.7695 3.02561C29.7336 3.02049 29.7029 3.00512 29.6619 3.00512C29.5851 3.00512 29.5185 3.03073 29.4468 3.0461C29.4058 3.05635 29.3597 3.04098 29.3187 3.05635L21.0051 5.64314L13.0398 3.05635C12.9989 3.0461 12.9528 3.05635 12.9067 3.0461C12.8349 3.03073 12.7632 3 12.6864 3C12.6505 3 12.6198 3.01537 12.5891 3.01537C12.5635 3.02049 12.5378 3.00512 12.5071 3.01024L3.96813 4.35743C3.40979 4.44451 3 4.92601 3 5.49459V36.5054C3 36.8435 3.14855 37.1611 3.39954 37.3762C3.65566 37.5965 3.99374 37.6887 4.32669 37.6374L12.5942 36.3312L20.6466 38.9488C20.7592 38.9846 20.8771 39 21 39C21.1178 39 21.2305 38.9795 21.3432 38.9488L29.749 36.3312L37.6631 37.6374C37.996 37.6887 38.3341 37.6016 38.5953 37.3813C38.8515 37.1611 39.0051 36.8435 39.0051 36.5054V5.49972C39 4.93625 38.5902 4.45987 38.037 4.36767Z" fill="#86888C"/>
</svg>
