<svg width="189" height="55" viewBox="0 0 189 55" fill="none" xmlns="http://www.w3.org/2000/svg">
<path d="M106.689 32.5356C104.789 32.5356 103.317 34.1146 103.317 37.0315C103.317 39.9485 104.816 41.5274 106.689 41.5274C108.589 41.5274 110.088 39.9485 110.088 37.0315C110.115 34.0878 108.589 32.5356 106.689 32.5356Z" fill="#4CBB8F"/>
<path d="M122.585 32.5356C120.257 32.5356 118.919 34.5963 118.919 37.0315C118.919 39.44 120.257 41.5274 122.585 41.5274C124.913 41.5274 126.252 39.4668 126.252 37.0315C126.252 34.5963 124.913 32.5356 122.585 32.5356Z" fill="#4CBB8F"/>
<path d="M72.1675 27.4507H70.7759V40.858H72.1675C75.4323 40.858 79.0183 39.5735 79.0183 34.1677C79.0183 28.7352 75.4323 27.4507 72.1675 27.4507Z" fill="#4CBB8F"/>
<path d="M91.2481 32.5356C89.4015 32.5356 88.3311 33.9272 88.0635 35.3188H94.3791C94.058 33.8737 93.1749 32.5356 91.2481 32.5356Z" fill="#4CBB8F"/>
<path d="M183.975 13.1343H56.5386V50.2788C56.5386 52.8479 58.6795 54.962 61.2218 54.962H183.949C186.544 54.962 188.632 52.8211 188.632 50.2788V17.8442C188.685 15.2752 186.571 13.1343 183.975 13.1343ZM73.3714 44.3378H67.0022V23.9458H73.3714C78.1884 23.9458 82.8716 26.9966 82.8716 34.1418C82.8716 41.287 78.1616 44.3378 73.3714 44.3378ZM98.0987 38.1827H87.983C88.0633 39.8152 89.214 41.5011 91.4619 41.5011C93.1211 41.5011 94.0845 40.7786 94.9409 39.4138L97.8579 40.4842C96.7339 42.8927 94.8338 44.6054 91.2746 44.6054C86.2435 44.6054 84.2364 40.4842 84.2364 37.032C84.2364 33.5531 86.2435 29.4586 91.2746 29.4586C96.1719 29.4586 98.1255 33.4995 98.1255 36.7109V38.1827H98.0987ZM107.198 44.5787C105.699 44.5787 104.281 43.8294 103.638 42.9998V50.2788H100.026V29.6459H103.638V31.1713C104.04 30.422 105.378 29.4318 107.198 29.4318C111.613 29.4318 113.888 32.4826 113.888 37.0053C113.888 41.5279 111.613 44.5787 107.198 44.5787ZM122.585 44.5787C117.875 44.5787 115.119 41.2603 115.119 37.0053C115.119 32.7502 117.848 29.4318 122.585 29.4318C127.295 29.4318 130.052 32.7502 130.052 37.0053C130.052 41.2603 127.295 44.5787 122.585 44.5787ZM141.131 33.0714C140.703 32.8038 140.221 32.6699 139.605 32.6699C137.518 32.6699 135.671 34.3827 135.671 39.1461V44.3646H132.059V29.6727H135.671V32.0544C136.715 30.3417 138.348 29.4318 140.007 29.4318C140.328 29.4318 140.756 29.4586 141.104 29.5389V33.0714H141.131ZM151.594 32.7502H147.714V39.0926C147.714 40.9124 148.41 41.4744 149.641 41.4744C150.31 41.4744 150.818 41.287 151.407 41.0194V44.2575C150.925 44.3913 150.283 44.5787 149.213 44.5787C146.162 44.5787 144.074 42.8124 144.074 39.1729V32.7502H141.8V29.6727H144.074V26.0064L147.687 23.7317V29.6727H151.568V32.7502H151.594ZM166.152 38.1827H156.037C156.117 39.8152 157.268 41.5011 159.516 41.5011C161.175 41.5011 162.138 40.7786 162.995 39.4138L165.912 40.4842C164.761 42.8927 162.888 44.6054 159.328 44.6054C154.297 44.6054 152.29 40.4842 152.29 37.032C152.29 33.5531 154.297 29.4586 159.328 29.4586C164.226 29.4586 166.179 33.4995 166.179 36.7109V38.1827H166.152ZM172.843 44.5787C169.792 44.5787 167.731 42.411 167.009 40.618L169.899 39.0659C170.434 40.4842 171.424 41.4744 172.843 41.4744C173.94 41.4744 174.636 40.9927 174.636 39.8955C174.636 38.6645 172.736 38.4236 170.969 37.6475C169.364 36.9785 167.999 35.9616 167.999 33.6869C167.999 31.4122 169.845 29.4051 172.682 29.4051C174.662 29.4051 176.375 30.3685 177.285 31.7868L175.117 33.7671C174.448 32.884 173.485 32.4826 172.682 32.4826C171.986 32.4826 171.344 32.884 171.344 33.7136C171.344 34.3559 171.879 34.8108 172.736 35.132C174.743 35.8545 178.034 36.4968 178.034 39.6546C178.034 42.3307 176.001 44.5787 172.843 44.5787Z" fill="#4CBB8F"/>
<path d="M159.301 32.5356C157.455 32.5356 156.384 33.9272 156.117 35.3188H162.432C162.111 33.8737 161.228 32.5356 159.301 32.5356Z" fill="#4CBB8F"/>
<path d="M41.9807 5.50697C40.8299 2.83085 38.9567 1.14489 36.6017 0.984318C33.9791 0.823751 30.9551 2.56323 29.3494 5.93514C27.8775 9.0662 26.7268 12.2775 26.0042 13.91C25.2817 15.5692 24.238 16.5861 22.6056 16.7734C20.6252 16.9607 18.9125 15.5424 17.6548 13.4818C16.5575 11.6888 14.3899 8.29012 13.2392 7.13939C12.1419 6.06894 10.9109 4.70412 8.3151 4.75765C6.28125 4.78441 2.48116 5.80134 0.768443 12.8395C0.0191296 15.8903 -0.275243 19.1016 0.367025 22.9017C0.955771 26.4075 1.99946 29.4582 2.72201 31.1174C2.96286 31.7062 3.33752 32.2949 3.63189 32.6696C4.46149 33.74 5.87983 33.6597 6.46858 33.3654C7.11085 33.0442 7.8334 32.2949 7.56579 30.5554C7.43198 29.7258 7.05732 28.4948 6.86999 27.799C6.22773 25.7117 5.37137 23.1693 5.29108 21.3763C5.18404 18.9678 6.14744 18.6467 6.76295 18.5129C7.8334 18.272 8.71652 19.4495 9.57287 20.9214C10.5898 22.6609 12.3025 25.7652 13.7209 28.1202C15.0054 30.2611 17.3336 32.5358 21.1069 32.3752C24.9606 32.2146 27.7972 30.7428 29.2423 26.1398C30.3396 22.6876 31.0889 20.0918 32.2931 17.4424C33.6579 14.3917 35.5045 12.7592 37.0566 13.2677C38.5017 13.7226 38.8496 15.141 38.8764 17.2016C38.9031 19.0214 38.689 21.0552 38.5017 22.5271C38.4482 23.0623 38.3412 24.1595 38.3679 24.7483C38.4482 25.9257 38.9567 27.1032 40.2947 27.2906C41.7131 27.4779 42.837 26.3539 43.292 24.9891C43.4793 24.4539 43.6131 23.6243 43.6934 23.0355C44.1216 20.0918 44.2286 18.0847 44.0413 15.0607C43.8807 11.5015 43.1849 8.29013 41.9807 5.50697Z" fill="#03477A"/>
</svg>
