<svg width="28" height="28" viewBox="0 0 28 28" fill="none" xmlns="http://www.w3.org/2000/svg">
<path fill-rule="evenodd" clip-rule="evenodd" d="M16.2726 4.6568C16.177 4.35287 15.8867 3.43426 13.9983 3.43426C11.9596 3.43426 11.6522 4.45532 11.6113 5.34661L11.6044 5.81787C11.6181 6.14229 11.6318 6.61355 13.9983 6.61355C16.3648 6.61355 16.3819 6.14229 16.3887 5.86568V5.42516C16.3853 5.16562 16.3443 4.90609 16.2726 4.6568ZM21.0467 3.74502C22.0882 3.74502 23 4.48947 23 5.33637V24.4087C23 25.2726 22.1053 26 21.0467 26H6.95333C5.89471 26 5 25.2692 5 24.4087V5.33295C5 4.48606 5.91178 3.74161 6.94991 3.74161H10.5526C11.1264 2.62834 12.3113 2 13.9983 2C16.0541 2 17.0068 2.86397 17.4474 3.74502H21.0467ZM20.1554 16.0729H18.2499L17.3278 13.4639C17.2288 13.1907 16.9659 13.0131 16.6756 13.0165C16.3819 13.0233 16.1292 13.218 16.0438 13.498L15.2823 16.0763H14.6369C14.3705 16.0763 14.1315 16.2299 14.0222 16.4724L13.5953 17.4183L12.4274 11.5993C12.366 11.2988 12.1064 11.0768 11.7991 11.0632C11.4883 11.0393 11.2049 11.2373 11.1195 11.5344L9.72624 16.0114H7.83779C7.46557 16.0114 7.16164 16.3119 7.16164 16.6807C7.16164 17.0495 7.46215 17.35 7.83779 17.35H10.2214C10.5151 17.35 10.778 17.1588 10.8668 16.8788L11.6215 14.4542L12.687 19.7405C12.7519 20.0546 13.0285 20.28 13.3495 20.28C13.6124 20.28 13.8549 20.1264 13.9641 19.8839L15.074 17.4183H15.7877C16.0848 17.4183 16.3478 17.2237 16.4331 16.9368L16.7473 15.8782L17.1332 16.971C17.2288 17.2373 17.4815 17.4183 17.7684 17.4183H20.152C20.5242 17.4183 20.8247 17.1178 20.8247 16.749C20.8247 16.3802 20.5276 16.0763 20.1554 16.0729ZM13.1514 5.82129C12.7792 5.82129 12.4787 5.52419 12.4752 5.15196C12.4752 4.78315 12.7758 4.48264 13.1514 4.48264H14.8486C15.2208 4.48264 15.5213 4.78315 15.5213 5.15196C15.5213 5.52077 15.2208 5.82129 14.8486 5.82129H13.1514Z" fill="#86888C"/>
</svg>
