<svg width="20" height="20" viewBox="0 0 20 20" fill="none" xmlns="http://www.w3.org/2000/svg">
<path fill-rule="evenodd" clip-rule="evenodd" d="M11.5151 3.7712C11.4513 3.56858 11.2578 2.95618 9.99886 2.95618C8.63973 2.95618 8.43483 3.63688 8.40751 4.23108L8.40296 4.54525C8.41207 4.76153 8.42117 5.0757 9.99886 5.0757C11.5766 5.0757 11.5879 4.76153 11.5925 4.57712V4.28344C11.5902 4.11042 11.5629 3.93739 11.5151 3.7712ZM14.6978 3.16335C15.3921 3.16335 16 3.65965 16 4.22425V16.9391C16 17.5151 15.4035 18 14.6978 18H5.30222C4.59647 18 4 17.5128 4 16.9391V4.22197C4 3.65737 4.60785 3.16107 5.29994 3.16107H7.70176C8.08423 2.4189 8.87422 2 9.99886 2C11.3694 2 12.0046 2.57598 12.2982 3.16335H14.6978ZM14.1036 11.3819H12.8332L12.2186 9.64257C12.1525 9.46044 11.9772 9.34206 11.7837 9.34434C11.5879 9.34889 11.4195 9.47866 11.3626 9.66534L10.8549 11.3842H10.4246C10.247 11.3842 10.0876 11.4866 10.0148 11.6483L9.73022 12.2789L8.95162 8.39955C8.91064 8.1992 8.73762 8.05122 8.53273 8.04212C8.32556 8.02618 8.1366 8.15823 8.07968 8.35629L7.15083 11.3409H5.89186C5.64371 11.3409 5.44109 11.5413 5.44109 11.7871C5.44109 12.033 5.64143 12.2334 5.89186 12.2334H7.48093C7.67672 12.2334 7.85202 12.1059 7.91121 11.9192L8.41434 10.3028L9.12464 13.827C9.1679 14.0364 9.35231 14.1867 9.56631 14.1867C9.74161 14.1867 9.90324 14.0842 9.9761 13.9226L10.716 12.2789H11.1918C11.3899 12.2789 11.5652 12.1491 11.6221 11.9579L11.8315 11.2521L12.0888 11.9806C12.1525 12.1582 12.321 12.2789 12.5122 12.2789H14.1013C14.3495 12.2789 14.5498 12.0785 14.5498 11.8327C14.5498 11.5868 14.3517 11.3842 14.1036 11.3819ZM9.43426 4.54752C9.18611 4.54752 8.98577 4.34946 8.98349 4.10131C8.98349 3.85544 9.18384 3.65509 9.43426 3.65509H10.5657C10.8139 3.65509 11.0142 3.85544 11.0142 4.10131C11.0142 4.34718 10.8139 4.54752 10.5657 4.54752H9.43426Z" fill="#86888C"/>
</svg>
