<svg width="40" height="40" viewBox="0 0 40 40" fill="none" xmlns="http://www.w3.org/2000/svg">
<path fill-rule="evenodd" clip-rule="evenodd" d="M25.2921 23.7342C26.1629 23.7342 26.9312 24.4308 26.9312 25.2248V27.7962C26.9312 28.6056 26.1833 29.2869 25.2921 29.2869H22.7975L22.8026 31.7558C22.8026 32.6318 22.1111 33.3694 21.2966 33.3694H18.6996C17.88 33.3694 17.1936 32.6318 17.1936 31.7558V29.2817H14.699C13.8179 29.2817 13.0701 28.6005 13.0701 27.7911V25.2299C13.0701 24.4206 13.8179 23.7393 14.699 23.7393H17.1936V21.2703C17.1936 20.3893 17.8851 19.6466 18.6996 19.6466H21.2864C22.1059 19.6466 22.7923 20.3893 22.7923 21.2703V23.7342H25.2921ZM31.9153 35.7718C35.7468 35.7718 35.7468 32.4678 35.7468 31.3819L35.7417 17.654H4.25449V31.4178C4.25449 31.469 4.25449 31.5202 4.24936 31.5714C4.24936 31.5714 4.16741 33.4667 5.30457 34.65C6.00121 35.3773 7.12301 35.7462 8.61874 35.7462H31.3313C31.4235 35.7462 31.5157 35.7513 31.6079 35.7666C31.6335 35.7615 31.7462 35.7718 31.9153 35.7718ZM31.3364 5.90324C38.518 5.90324 37.9904 12.4855 37.9904 12.4855L37.9955 31.3819C37.9955 37.4519 33.5288 38 31.9153 38C31.5567 38 31.3416 37.9744 31.3416 37.9744H8.62387C1.555 37.9744 2.00577 31.4178 2.00577 31.4178V12.4496C2.00577 6.33865 6.86177 5.90324 8.23969 5.90324C8.4702 5.90324 8.60338 5.91349 8.60338 5.91349H10.7804V3.11668C10.7804 2.50199 11.2824 2 11.9073 2C12.5271 2 13.0342 2.49687 13.0342 3.11668V5.91349L26.9876 5.90837V3.11668C26.9876 2.50199 27.4895 2 28.1145 2C28.7343 2 29.2414 2.49687 29.2414 3.11668V5.90837C29.2311 5.90324 31.3364 5.90324 31.3364 5.90324Z" fill="#86888C"/>
</svg>
