<svg width="40" height="40" viewBox="0 0 40 40" fill="none" xmlns="http://www.w3.org/2000/svg">
<path fill-rule="evenodd" clip-rule="evenodd" d="M19.5026 24.5026C17.0182 24.5026 15 22.4895 15 20C15 17.5105 17.0131 15.4974 19.5026 15.4974C21.9869 15.4974 24 17.5105 24 20C24 22.4895 21.9869 24.5026 19.5026 24.5026ZM19.5026 11C17.0182 11 15 8.98691 15 6.49744C15 4.00797 17.0182 2 19.5026 2C21.9869 2 24 4.01309 24 6.50256C24 8.99203 21.9869 11 19.5026 11ZM19.5026 38C17.0182 38 15 35.9869 15 33.5026C15 31.0182 17.0131 29 19.5026 29C21.9869 29 24 31.0131 24 33.5026C24 35.992 21.9869 38 19.5026 38Z" fill="#86888C"/>
</svg>
