<svg width="24" height="24" viewBox="0 0 24 24" fill="none" xmlns="http://www.w3.org/2000/svg">
<path fill-rule="evenodd" clip-rule="evenodd" d="M11.5014 14.5014C10.1212 14.5014 9 13.383 9 12C9 10.617 10.1184 9.49858 11.5014 9.49858C12.8816 9.49858 14 10.617 14 12C14 13.383 12.8816 14.5014 11.5014 14.5014ZM11.5014 7C10.1212 7 9 5.88162 9 4.49858C9 3.11554 10.1212 2 11.5014 2C12.8816 2 14 3.11838 14 4.50142C14 5.88446 12.8816 7 11.5014 7ZM11.5014 22C10.1212 22 9 20.8816 9 19.5014C9 18.1212 10.1184 17 11.5014 17C12.8816 17 14 18.1184 14 19.5014C14 20.8845 12.8816 22 11.5014 22Z" fill="#86888C"/>
</svg>
