<svg width="24" height="24" viewBox="0 0 24 24" fill="none" xmlns="http://www.w3.org/2000/svg">
<path fill-rule="evenodd" clip-rule="evenodd" d="M14.0014 11.9986C14.0014 13.3788 12.883 14.5 11.5 14.5C10.117 14.5 8.99858 13.3816 8.99858 11.9986C8.99858 10.6184 10.117 9.5 11.5 9.5C12.883 9.5 14.0014 10.6184 14.0014 11.9986ZM6.5 11.9986C6.5 13.3788 5.38162 14.5 3.99858 14.5C2.61554 14.5 1.5 13.3788 1.5 11.9986C1.5 10.6184 2.61838 9.5 4.00142 9.5C5.38446 9.5 6.5 10.6184 6.5 11.9986ZM21.5 11.9986C21.5 13.3788 20.3816 14.5 19.0014 14.5C17.6212 14.5 16.5 13.3816 16.5 11.9986C16.5 10.6184 17.6184 9.5 19.0014 9.5C20.3845 9.5 21.5 10.6184 21.5 11.9986Z" fill="#86888C"/>
</svg>
