<svg width="20" height="20" viewBox="0 0 20 20" fill="none" xmlns="http://www.w3.org/2000/svg">
<path fill-rule="evenodd" clip-rule="evenodd" d="M10.3335 2C12.601 2 13.8486 3.26352 13.8486 5.55606V11.0746C13.8486 13.3671 12.601 14.6306 10.3313 14.6306C8.06376 14.6306 6.81618 13.3671 6.81618 11.0746V5.55606C6.81618 3.26352 8.06603 2 10.3335 2ZM10.3517 16.4291C10.7798 16.4291 11.1281 16.7797 11.1281 17.2146C11.1281 17.6471 10.7798 18 10.3517 18C9.92147 17.9977 9.57315 17.6448 9.57543 17.2146C9.57543 16.7797 9.92375 16.4291 10.3517 16.4291ZM13.0564 15.6437C13.4844 15.6437 13.8327 15.9943 13.8327 16.4291C13.8327 16.8617 13.4844 17.2146 13.0564 17.2146C12.6261 17.2123 12.2778 16.8617 12.28 16.4291C12.28 15.9943 12.6284 15.6437 13.0564 15.6437ZM15.2282 13.7723C15.6562 13.7723 16.0046 14.1229 16.0046 14.5578C16.0046 14.9903 15.6562 15.3432 15.2282 15.3432C14.798 15.3409 14.4496 14.988 14.4519 14.5578C14.4519 14.1252 14.798 13.7723 15.2282 13.7723ZM16.0046 11.0996C16.3734 11.1019 16.6693 11.4024 16.6671 11.7689C16.6693 12.1377 16.3734 12.4382 16.0046 12.4405C15.6358 12.4382 15.3398 12.1377 15.3421 11.7689C15.3398 11.4001 15.6358 11.1019 16.0046 11.0996ZM7.61071 15.6437C8.03872 15.6437 8.38704 15.9943 8.38704 16.4291C8.38704 16.8617 8.03872 17.2146 7.61071 17.2146C7.18043 17.2123 6.83211 16.8617 6.83439 16.4291C6.83211 15.9943 7.18043 15.6437 7.61071 15.6437ZM5.43883 13.7723C5.86683 13.7723 6.21515 14.1229 6.21515 14.5578C6.21515 14.9903 5.86683 15.3432 5.43883 15.3432C5.00855 15.3409 4.66023 14.988 4.66251 14.5578C4.66251 14.1252 5.00855 13.7723 5.43883 13.7723ZM5.325 11.7689C5.32728 12.1377 5.03132 12.4382 4.66251 12.4405C4.2937 12.4382 3.99774 12.1377 4.00001 11.7689C3.99774 11.4001 4.2937 11.1019 4.66251 11.0996C5.03132 11.1019 5.32728 11.4001 5.325 11.7689Z" fill="#86888C"/>
</svg>
