<svg width="28" height="28" viewBox="0 0 28 28" fill="none" xmlns="http://www.w3.org/2000/svg">
<path fill-rule="evenodd" clip-rule="evenodd" d="M25.2622 14.7463C25.6687 14.7326 25.9898 14.3876 25.9727 13.9812C25.959 13.5953 25.6482 13.2845 25.2622 13.2708H21.8839V11.7954H25.2622C25.6721 11.7954 26 11.4641 26 11.0542C26 10.6478 25.6687 10.3165 25.2622 10.3165H21.8839V7.43048C21.8839 6.75423 21.2417 6.13946 20.5346 6.13946H17.6994V2.73773C17.6994 2.33129 17.3681 2 16.9582 2C16.5517 2 16.2203 2.33129 16.2203 2.73773V6.13263H14.7447V2.74114C14.7447 2.33129 14.4133 2.00342 14.0068 2.00342C13.5969 2.00342 13.269 2.33471 13.269 2.74114V6.13605H11.7933V2.74114C11.7933 2.33471 11.462 2.00342 11.0555 2.00342C10.649 2.00342 10.3177 2.33471 10.3177 2.74114V6.13605H7.47908C6.77199 6.13605 6.1298 6.75082 6.1298 7.42707V10.3131H2.73783C2.32792 10.3131 2 10.6444 2 11.0542C2 11.4607 2.33134 11.7919 2.73783 11.7919H6.12639V13.2674H2.73783C2.33134 13.2811 2.01025 13.626 2.02733 14.0324C2.04099 14.4184 2.35184 14.7292 2.73783 14.7428H6.12639V16.2183H2.73783C2.32792 16.2183 2 16.5496 2 16.9594C2 17.3659 2.33134 17.6972 2.73783 17.6972H6.12639V20.6139C6.12639 21.2936 6.75491 21.8947 7.47566 21.8947H10.3143V25.2623C10.3279 25.6687 10.6729 25.9898 11.0794 25.9727C11.4654 25.959 11.7763 25.6482 11.7899 25.2623V21.8947H13.2656V25.2623C13.2656 25.6721 13.5969 26 14.0068 26C14.4133 26 14.7447 25.6687 14.7447 25.2623V21.8947H16.2203V25.2623C16.234 25.6687 16.579 25.9898 16.9855 25.9727C17.3715 25.959 17.6823 25.6482 17.696 25.2623V21.8947H20.5312C21.2519 21.8947 21.8804 21.297 21.8804 20.6139V17.6972H25.2588C25.6687 17.6972 25.9966 17.3659 25.9966 16.956C25.9966 16.5496 25.6652 16.2183 25.2588 16.2183H21.8804V14.7428L25.2622 14.7463Z" fill="#86888C"/>
</svg>
