<svg width="24" height="24" viewBox="0 0 24 24" fill="none" xmlns="http://www.w3.org/2000/svg">
<path fill-rule="evenodd" clip-rule="evenodd" d="M21.3851 12.6219C21.7239 12.6105 21.9915 12.323 21.9772 11.9843C21.9658 11.6627 21.7068 11.4037 21.3851 11.3923H18.5699V10.1628H21.3851C21.7267 10.1628 22 9.88672 22 9.54518C22 9.20649 21.7239 8.93041 21.3851 8.93041H18.5699V6.5254C18.5699 5.96186 18.0347 5.44955 17.4455 5.44955H15.0828V2.61477C15.0828 2.27608 14.8067 2 14.4651 2C14.1264 2 13.8503 2.27608 13.8503 2.61477V5.44386H12.6206V2.61762C12.6206 2.27608 12.3444 2.00285 12.0057 2.00285C11.6641 2.00285 11.3908 2.27892 11.3908 2.61762V5.44671H10.1611V2.61762C10.1611 2.27892 9.885 2.00285 9.54626 2.00285C9.20751 2.00285 8.9314 2.27892 8.9314 2.61762V5.44671H6.5659C5.97666 5.44671 5.4415 5.95902 5.4415 6.52256V8.92757H2.61486C2.27327 8.92757 2 9.20364 2 9.54518C2 9.88388 2.27612 10.16 2.61486 10.16H5.43866V11.3895H2.61486C2.27612 11.4009 2.00854 11.6883 2.02277 12.027C2.03416 12.3487 2.2932 12.6077 2.61486 12.619H5.43866V13.8486H2.61486C2.27327 13.8486 2 14.1247 2 14.4662C2 14.8049 2.27612 15.081 2.61486 15.081H5.43866V17.5116C5.43866 18.078 5.96242 18.5789 6.56305 18.5789H8.92855V21.3852C8.93994 21.7239 9.22744 21.9915 9.56618 21.9772C9.88784 21.9658 10.1469 21.7068 10.1583 21.3852V18.5789H11.388V21.3852C11.388 21.7268 11.6641 22 12.0057 22C12.3444 22 12.6206 21.7239 12.6206 21.3852V18.5789H13.8503V21.3852C13.8617 21.7239 14.1492 21.9915 14.4879 21.9772C14.8096 21.9658 15.0686 21.7068 15.08 21.3852V18.5789H17.4426C18.0433 18.5789 18.567 18.0808 18.567 17.5116V15.081H21.3823C21.7239 15.081 21.9972 14.8049 21.9972 14.4634C21.9972 14.1247 21.721 13.8486 21.3823 13.8486H18.567V12.619L21.3851 12.6219Z" fill="#86888C"/>
</svg>
