<svg width="40" height="40" viewBox="0 0 40 40" fill="none" xmlns="http://www.w3.org/2000/svg">
<path fill-rule="evenodd" clip-rule="evenodd" d="M20.2505 2C25.3523 2 28.1594 4.84291 28.1594 10.0011V22.4178C28.1594 27.576 25.3523 30.4189 20.2453 30.4189C15.1435 30.4189 12.3364 27.576 12.3364 22.4178V10.0011C12.3364 4.84291 15.1486 2 20.2505 2ZM20.2914 34.4656C21.2544 34.4656 22.0382 35.2544 22.0382 36.2328C22.0382 37.206 21.2544 38 20.2914 38C19.3233 37.9949 18.5396 37.2009 18.5447 36.2328C18.5447 35.2544 19.3284 34.4656 20.2914 34.4656ZM26.3768 32.6983C27.3398 32.6983 28.1235 33.4872 28.1235 34.4656C28.1235 35.4388 27.3398 36.2328 26.3768 36.2328C25.4087 36.2277 24.625 35.4388 24.6301 34.4656C24.6301 33.4872 25.4138 32.6983 26.3768 32.6983ZM31.2635 28.4878C32.2266 28.4878 33.0103 29.2766 33.0103 30.255C33.0103 31.2282 32.2266 32.0222 31.2635 32.0222C30.2954 32.0171 29.5117 31.2231 29.5168 30.255C29.5168 29.2817 30.2954 28.4878 31.2635 28.4878ZM33.0103 22.4741C33.8401 22.4792 34.506 23.1554 34.5009 23.9801C34.506 24.8099 33.8401 25.4861 33.0103 25.4912C32.1805 25.4861 31.5145 24.8099 31.5197 23.9801C31.5145 23.1503 32.1805 22.4792 33.0103 22.4741ZM14.1241 32.6983C15.0871 32.6983 15.8708 33.4872 15.8708 34.4656C15.8708 35.4388 15.0871 36.2328 14.1241 36.2328C13.156 36.2277 12.3723 35.4388 12.3774 34.4656C12.3723 33.4872 13.156 32.6983 14.1241 32.6983ZM9.23737 28.4878C10.2004 28.4878 10.9841 29.2766 10.9841 30.255C10.9841 31.2282 10.2004 32.0222 9.23737 32.0222C8.26924 32.0171 7.48552 31.2231 7.49064 30.255C7.49064 29.2817 8.26924 28.4878 9.23737 28.4878ZM8.98125 23.9801C8.98637 24.8099 8.32046 25.4861 7.49064 25.4912C6.66082 25.4861 5.99491 24.8099 6.00003 23.9801C5.99491 23.1503 6.66082 22.4792 7.49064 22.4741C8.32046 22.4792 8.98637 23.1503 8.98125 23.9801Z" fill="#86888C"/>
</svg>
