<svg width="20" height="20" viewBox="0 0 20 20" fill="none" xmlns="http://www.w3.org/2000/svg">
<path fill-rule="evenodd" clip-rule="evenodd" d="M9.66351 8.9777C10.3918 8.9777 10.9609 9.16661 11.3569 9.53988C11.7666 9.92454 11.976 10.4981 11.976 11.2378C11.976 11.9798 11.7689 12.5511 11.3569 12.9358C10.9631 13.3045 10.3941 13.4934 9.66351 13.4934C8.93517 13.4934 8.36615 13.3045 7.97239 12.9358C7.56498 12.5511 7.35558 11.9798 7.35558 11.2378C7.35558 10.4981 7.5627 9.92454 7.97239 9.53988C8.36615 9.16661 8.93289 8.9777 9.66351 8.9777ZM11.0701 14.4835C11.9259 14.4835 12.6292 14.7361 13.1026 15.2187C13.5351 15.6602 13.7672 16.2725 13.7672 16.9917V17.7428C13.7672 17.8839 13.6512 18 13.5055 18H5.83062C5.68495 18 5.56887 17.8839 5.56887 17.7428V16.9917C5.56887 16.2747 5.79648 15.6602 6.23121 15.2187C6.70235 14.7361 7.40338 14.4835 8.26145 14.4835H11.0701ZM15.1966 4.24577C15.3924 4.46199 15.3741 4.79202 15.1534 4.98549C15.0509 5.07425 14.9235 5.1175 14.796 5.1175C14.6481 5.1175 14.5024 5.05832 14.3977 4.94224C12.5473 2.91882 9.67944 3.04628 9.64985 3.05084C6.57262 3.08498 4.94978 4.79885 4.93385 4.81478C4.73356 5.02873 4.39443 5.04466 4.17592 4.8512C3.95742 4.65773 3.93921 4.32543 4.13951 4.11148C4.21917 4.02727 6.0992 2.04026 9.61343 2.00385C9.72268 1.9993 12.9934 1.83542 15.1966 4.24577ZM9.61798 4.30722C9.70903 4.29812 12.3151 4.2139 13.9789 6.03247C14.1769 6.24642 14.1564 6.57873 13.9357 6.76992C13.7149 6.96566 13.378 6.94517 13.18 6.73123C11.8622 5.29048 9.66806 5.35193 9.6453 5.35421C7.46483 5.37925 6.16065 6.74488 6.14927 6.76081C6.04229 6.87234 5.8989 6.93152 5.75096 6.93152C5.6235 6.93152 5.49376 6.886 5.39134 6.79723C5.17284 6.60149 5.15463 6.27374 5.35037 6.05751C5.41865 5.98468 6.96865 4.33681 9.61798 4.30722ZM12.4972 8.55435C12.2741 8.74554 11.9373 8.72733 11.7393 8.5111C10.9722 7.67124 9.68171 7.70538 9.66123 7.70538C8.36843 7.71904 7.61733 8.49745 7.58546 8.53159C7.48076 8.64312 7.3351 8.70002 7.18943 8.70002C7.06197 8.70002 6.93223 8.65677 6.82981 8.56573C6.61358 8.36999 6.59538 8.04451 6.79339 7.82829C6.83664 7.78049 7.87225 6.6766 9.63392 6.65839C9.69082 6.65839 11.4275 6.59694 12.5404 7.81463C12.7362 8.03086 12.718 8.36088 12.4972 8.55435Z" fill="#86888C"/>
</svg>
