<svg width="40" height="40" viewBox="0 0 40 40" fill="none" xmlns="http://www.w3.org/2000/svg">
<path fill-rule="evenodd" clip-rule="evenodd" d="M20.7429 17.6998C22.3817 17.6998 23.6619 18.1249 24.553 18.9647C25.4748 19.8302 25.946 21.1207 25.946 22.7851C25.946 24.4546 25.4799 25.74 24.553 26.6055C23.6671 27.4351 22.3868 27.8602 20.7429 27.8602C19.1041 27.8602 17.8238 27.4351 16.9379 26.6055C16.0212 25.74 15.5501 24.4546 15.5501 22.7851C15.5501 21.1207 16.0161 19.8302 16.9379 18.9647C17.8238 18.1249 19.099 17.6998 20.7429 17.6998ZM23.9078 30.0878C25.8333 30.0878 27.4157 30.6563 28.4809 31.742C29.4539 32.7355 29.9763 34.1131 29.9763 35.7313V37.4213C29.9763 37.7388 29.7151 38 29.3874 38H12.1189C11.7911 38 11.53 37.7388 11.53 37.4213V35.7313C11.53 34.1182 12.0421 32.7355 13.0202 31.742C14.0803 30.6563 15.6576 30.0878 17.5883 30.0878H23.9078ZM33.1924 7.05298C33.6328 7.53948 33.5918 8.28205 33.0951 8.71735C32.8646 8.91707 32.5778 9.01437 32.291 9.01437C31.9582 9.01437 31.6304 8.88122 31.3949 8.62004C27.2314 4.06735 20.7787 4.35414 20.7122 4.36438C13.7884 4.4412 10.137 8.29741 10.1012 8.33326C9.65051 8.81465 8.88746 8.85049 8.39583 8.4152C7.9042 7.9799 7.86323 7.23222 8.31389 6.75083C8.49313 6.56135 12.7232 2.0906 20.6302 2.00866C20.876 1.99841 28.2351 1.62969 33.1924 7.05298ZM20.6405 7.19125C20.8453 7.17076 26.709 6.98128 30.4526 11.0731C30.8981 11.5545 30.852 12.3021 30.3553 12.7323C29.8585 13.1727 29.1006 13.1266 28.655 12.6453C25.6899 9.40358 20.7531 9.54185 20.7019 9.54697C15.7959 9.6033 12.8615 12.676 12.8359 12.7118C12.5952 12.9628 12.2725 13.0959 11.9397 13.0959C11.6529 13.0959 11.361 12.9935 11.1305 12.7938C10.6389 12.3534 10.5979 11.6159 11.0383 11.1294C11.192 10.9655 14.6795 7.25782 20.6405 7.19125ZM27.1187 16.7473C26.6168 17.1775 25.8589 17.1365 25.4134 16.65C23.6875 14.7603 20.7839 14.8371 20.7378 14.8371C17.829 14.8678 16.139 16.6193 16.0673 16.6961C15.8317 16.947 15.504 17.075 15.1762 17.075C14.8894 17.075 14.5975 16.9777 14.3671 16.7729C13.8806 16.3325 13.8396 15.6002 14.2851 15.1136C14.3824 15.0061 16.7126 12.5223 20.6763 12.4814C20.8043 12.4814 24.7118 12.3431 27.216 15.0829C27.6564 15.5694 27.6155 16.312 27.1187 16.7473Z" fill="#86888C"/>
</svg>
