<svg width="20" height="20" viewBox="0 0 20 20" fill="none" xmlns="http://www.w3.org/2000/svg">
<path fill-rule="evenodd" clip-rule="evenodd" d="M5.89983 11.4479V8.76836L8.24018 10.107L5.89983 11.4479ZM9.47638 9.68355L5.65168 7.49573C5.49915 7.40694 5.31019 7.40694 5.15766 7.49573C5.00512 7.58224 4.9095 7.74616 4.9095 7.91918V12.2948C4.9095 12.4701 5.00285 12.6318 5.15766 12.7183C5.23506 12.7638 5.31929 12.7843 5.40581 12.7843C5.49232 12.7843 5.57655 12.7638 5.65396 12.7183L9.47866 10.5305C9.63119 10.4439 9.72681 10.28 9.72681 10.1047C9.72453 9.93398 9.63119 9.77234 9.47638 9.68355ZM6.81275 13.9021C9.42629 13.9021 10.6466 12.6932 10.6466 10.1116C10.6466 7.52305 9.42629 6.31417 6.81275 6.31417C4.20603 6.31417 2.9926 7.52305 2.9926 10.1116C2.9926 12.6932 4.20603 13.9021 6.81275 13.9021ZM17.2305 2.77177C17.7518 3.29539 18.0023 4.01935 18.0023 5.00057V14.9994C18.0023 15.9852 17.745 16.7183 17.2168 17.2351C16.6955 17.7519 15.9624 18 14.9721 18H9.92487C8.93455 18 8.20376 17.7519 7.67558 17.2419C7.20888 16.7775 6.95618 16.1514 6.90381 15.3204V14.8765C6.87194 14.8765 6.84462 14.8833 6.81047 14.8833C3.76892 14.8833 2 13.3603 2 10.1116C2 6.856 3.76892 5.33295 6.81047 5.33295C6.84234 5.33295 6.86966 5.33978 6.89698 5.33978V5.00057C6.89698 4.03301 7.14741 3.3136 7.67558 2.78543C8.20376 2.25498 8.93682 2 9.92487 2H14.9721C15.9624 2 16.7023 2.25498 17.2305 2.77177ZM11.8167 15.498C11.967 15.6505 12.1855 15.7302 12.4496 15.7302C12.7137 15.7302 12.9323 15.6505 13.0825 15.498C13.2305 15.3478 13.3056 15.1406 13.3056 14.881C13.3056 14.3483 12.9846 14.0296 12.4496 14.0296C11.9146 14.0296 11.5936 14.3483 11.5936 14.881C11.5936 15.1383 11.6688 15.3478 11.8167 15.498Z" fill="#86888C"/>
</svg>
