<svg width="20" height="20" viewBox="0 0 20 20" fill="none" xmlns="http://www.w3.org/2000/svg">
<path fill-rule="evenodd" clip-rule="evenodd" d="M6.81662 13.8981C9.42752 13.8981 10.6431 12.694 10.6431 10.1081C10.6431 7.52227 9.42752 6.31583 6.81662 6.31583C4.208 6.31583 2.99246 7.51999 2.99246 10.1081C2.99246 12.694 4.208 13.8981 6.81662 13.8981ZM17.2238 2.77621C17.7451 3.29521 18 4.02362 18 5.00014V14.9999C18 15.9878 17.7451 16.7185 17.217 17.2374C16.6934 17.7496 15.9582 18 14.9703 18H9.92375C8.93356 18 8.2006 17.7496 7.67933 17.2374C7.21041 16.7776 6.95775 16.1494 6.90539 15.3208V14.8747C6.8758 14.8747 6.84621 14.8769 6.81434 14.8769C3.77323 14.8769 2 13.3564 2 10.1081C2 6.85759 3.77323 5.33703 6.81434 5.33703C6.84166 5.33703 6.86897 5.33931 6.89629 5.33931V5.00014C6.89629 4.03727 7.15123 3.31342 7.6725 2.78987C8.20287 2.2595 8.93811 2 9.92375 2H14.9703C15.9627 2.00228 16.7002 2.25494 17.2238 2.77621ZM12.4481 14.0279C11.9132 14.0279 11.5923 14.3466 11.5923 14.8792C11.5923 15.1387 11.6674 15.3481 11.8153 15.4961C11.9656 15.6486 12.1841 15.7283 12.4481 15.7283C12.7122 15.7283 12.9307 15.6486 13.081 15.4961C13.2289 15.3459 13.304 15.1387 13.304 14.8792C13.304 14.3466 12.9853 14.0279 12.4481 14.0279ZM5.33703 7.8068C5.61019 7.8068 5.83099 8.02532 5.83099 8.2962V12.1249C5.83099 12.3958 5.61019 12.6166 5.33703 12.6166C5.06388 12.6166 4.84308 12.3981 4.84308 12.1249V8.29848C4.84308 8.0276 5.06615 7.8068 5.33703 7.8068ZM8.14141 7.79542C8.41457 7.79542 8.63537 8.01622 8.63537 8.28482V12.1135C8.63537 12.3844 8.41457 12.6052 8.14141 12.6052C7.86826 12.6052 7.64746 12.3867 7.64746 12.1135V8.28482C7.64746 8.01394 7.86826 7.79542 8.14141 7.79542Z" fill="#86888C"/>
</svg>
