<svg width="24" height="24" viewBox="0 0 24 24" fill="none" xmlns="http://www.w3.org/2000/svg">
<path fill-rule="evenodd" clip-rule="evenodd" d="M8.5505 14.7966C8.96302 14.7966 9.24467 15.0782 9.24467 15.4651C9.24467 15.8919 8.96586 16.165 8.56757 16.165C8.14936 16.165 7.8734 15.8947 7.8734 15.505V15.468C7.87624 15.0782 8.1579 14.7966 8.5505 14.7966ZM10.2347 8.87055C10.6984 9.20626 10.9147 9.66999 10.9147 10.3272C10.9147 11.1095 10.5789 11.5875 9.87055 12.4211C9.07966 13.3286 9.07966 13.3286 9.07966 14.1223C9.07966 14.3471 8.89474 14.5292 8.66714 14.5292H8.40256C8.20626 14.5292 8.03556 14.3926 7.99858 14.1991C7.97582 14.0797 7.96159 13.9573 7.96159 13.7895C7.96159 13.0982 8.21195 12.6771 8.74111 12.0484L8.84068 11.9317C9.68563 10.9388 9.79943 10.7084 9.79943 10.3158C9.79943 10.037 9.72831 9.87198 9.54339 9.72688C9.43812 9.64154 9.24182 9.54481 8.67852 9.54481C8.35704 9.54481 8.0697 9.58179 7.72546 9.66999C7.61735 9.69559 7.50071 9.67852 7.40398 9.61878C7.30725 9.55903 7.24182 9.46231 7.21906 9.35135L7.17923 9.14936C7.14509 8.96444 7.23898 8.78236 7.40967 8.7027C7.69417 8.57183 8.29161 8.46942 8.79801 8.46942C9.39545 8.46657 9.87909 8.60313 10.2347 8.87055ZM9.01991 16.8734C12.2831 16.8734 13.808 15.3713 13.808 12.1394C13.808 8.90754 12.2831 7.40541 9.01991 7.40541C5.76529 7.40541 4.2404 8.90754 4.2404 12.1394C4.2404 15.3713 5.76529 16.8734 9.01991 16.8734ZM22.0242 2.97866C22.6842 3.62447 22.9972 4.5377 22.9972 5.75249V18.2447C22.9972 19.4851 22.6757 20.4011 22.0156 21.0441C21.3642 21.6814 20.4481 22 19.2134 22H12.909C11.6714 22 10.7582 21.6814 10.0982 21.0441C9.51209 20.4637 9.19915 19.6814 9.13371 18.6515V18.0967H9.01707C5.21906 18.0967 3 16.1935 3 12.1366C3 8.07966 5.21906 6.17639 9.01707 6.17639H9.12518V5.74964C9.12518 4.54908 9.43812 3.64438 10.0982 2.99004C10.7553 2.33001 11.6714 2 12.909 2H19.2134C20.4509 2.00569 21.3727 2.32432 22.0242 2.97866ZM16.0583 17.0356C15.3898 17.0356 14.9943 17.4282 14.9943 18.0967C14.9943 18.4211 15.0853 18.6828 15.2674 18.862C15.458 19.0583 15.7283 19.1551 16.0583 19.1551C16.3883 19.1551 16.6586 19.0583 16.8492 18.862C17.037 18.6828 17.128 18.4211 17.128 18.0967C17.128 17.4282 16.7326 17.0356 16.0583 17.0356Z" fill="#86888C"/>
</svg>
