<svg width="20" height="20" viewBox="0 0 20 20" fill="none" xmlns="http://www.w3.org/2000/svg">
<path fill-rule="evenodd" clip-rule="evenodd" d="M9.87251 15.5208V7.68014C9.87251 7.15879 9.76323 6.79454 9.5333 6.5646C9.30336 6.33466 8.93682 6.21855 8.4132 6.21855H4.47695C3.96244 6.21855 3.60273 6.33466 3.36369 6.57143C3.12692 6.8082 3.01764 7.17245 3.01764 7.68014V15.5208C3.01764 16.0421 3.12692 16.4155 3.36369 16.6454C3.59363 16.8685 3.96016 16.9846 4.47695 16.9846H8.4132C8.93 16.9846 9.29425 16.8685 9.52647 16.6454C9.76551 16.4155 9.87251 16.0421 9.87251 15.5208ZM11.9966 2C15.8645 2 18.0023 4.13318 18.0023 7.99886C18.0023 11.8577 15.8645 13.9841 11.9966 13.9841C11.6096 13.9841 11.243 13.9567 10.8902 13.9158V15.5208C10.8902 16.3335 10.6807 16.9345 10.2459 17.3625C9.81787 17.7883 9.21457 18 8.4132 18H4.47695C3.67558 18 3.07911 17.7906 2.64428 17.3625C2.20945 16.9345 2 16.3335 2 15.5208V7.68014C2 6.88788 2.20945 6.29368 2.63745 5.85885C3.07684 5.41947 3.67558 5.20319 4.47695 5.20319H6.47126C7.30222 3.11781 9.20091 2 11.9966 2ZM13.4969 10.1935C13.597 10.2914 13.7268 10.3415 13.8566 10.3415C13.9886 10.3415 14.1161 10.2914 14.2163 10.1935C14.4143 9.99545 14.4143 9.67444 14.2163 9.4741L12.6727 7.93512V5.85885C12.6727 5.57883 12.4451 5.35117 12.1628 5.35117C11.8828 5.35117 11.6528 5.57883 11.6528 5.85885V8.14684C11.6528 8.28116 11.7075 8.41093 11.8031 8.50655L13.4969 10.1935ZM6.44622 14.7604C6.86283 14.7604 7.11098 15.0085 7.11098 15.4274C7.11098 15.6323 7.05407 15.794 6.93796 15.9123C6.82186 16.0307 6.65111 16.0945 6.44622 16.0945C6.24132 16.0945 6.07058 16.0307 5.95447 15.9123C5.83836 15.794 5.78145 15.6323 5.78145 15.4274C5.78145 15.0085 6.0296 14.7604 6.44622 14.7604Z" fill="#86888C"/>
</svg>
