<svg width="28" height="28" viewBox="0 0 28 28" fill="none" xmlns="http://www.w3.org/2000/svg">
<path fill-rule="evenodd" clip-rule="evenodd" d="M7.84974 16.1719V12.1525L11.3603 14.1605L7.84974 16.1719ZM13.2146 13.5253L7.47752 10.2436C7.24872 10.1104 6.96528 10.1104 6.73648 10.2436C6.50768 10.3734 6.36426 10.6192 6.36426 10.8788V17.4422C6.36426 17.7052 6.50427 17.9476 6.73648 18.0774C6.85259 18.1457 6.97894 18.1764 7.10871 18.1764C7.23847 18.1764 7.36483 18.1457 7.48093 18.0774L13.218 14.7957C13.4468 14.6659 13.5902 14.42 13.5902 14.1571C13.5868 13.901 13.4468 13.6585 13.2146 13.5253ZM9.21912 19.8532C13.1394 19.8532 14.9698 18.0398 14.9698 14.1673C14.9698 10.2846 13.1394 8.47126 9.21912 8.47126C5.30905 8.47126 3.4889 10.2846 3.4889 14.1673C3.4889 18.0398 5.30905 19.8532 9.21912 19.8532ZM24.8458 3.15766C25.6278 3.94308 26.0034 5.02903 26.0034 6.50085V21.4991C26.0034 22.9778 25.6175 24.0774 24.8253 24.8526C24.0433 25.6278 22.9437 26 21.4582 26H13.8873C12.4018 26 11.3056 25.6278 10.5134 24.8628C9.81332 24.1662 9.43426 23.2271 9.35572 21.9806V21.3147C9.30791 21.3147 9.26693 21.325 9.21571 21.325C4.65339 21.325 2 19.0404 2 14.1673C2 9.28401 4.65339 6.99943 9.21571 6.99943C9.26352 6.99943 9.3045 7.00968 9.34548 7.00968V6.50085C9.34548 5.04952 9.72112 3.9704 10.5134 3.17814C11.3056 2.38247 12.4052 2 13.8873 2H21.4582C22.9437 2 24.0535 2.38247 24.8458 3.15766ZM16.7251 22.247C16.9505 22.4758 17.2783 22.5953 17.6744 22.5953C18.0706 22.5953 18.3984 22.4758 18.6238 22.247C18.8458 22.0216 18.9585 21.7109 18.9585 21.3216C18.9585 20.5225 18.4769 20.0444 17.6744 20.0444C16.8719 20.0444 16.3904 20.5225 16.3904 21.3216C16.3904 21.7075 16.5031 22.0216 16.7251 22.247Z" fill="#86888C"/>
</svg>
