<svg width="40" height="40" viewBox="0 0 40 40" fill="none" xmlns="http://www.w3.org/2000/svg">
<path fill-rule="evenodd" clip-rule="evenodd" d="M10.7746 23.2578V17.2288L16.0404 20.2408L10.7746 23.2578ZM18.8219 19.288L10.2163 14.3654C9.87308 14.1656 9.44792 14.1656 9.10472 14.3654C8.76153 14.56 8.54639 14.9289 8.54639 15.3182V25.1633C8.54639 25.5578 8.7564 25.9215 9.10472 26.1161C9.27888 26.2186 9.46841 26.2647 9.66306 26.2647C9.85771 26.2647 10.0472 26.2186 10.2214 26.1161L18.827 21.1935C19.1702 20.9989 19.3853 20.6301 19.3853 20.2356C19.3802 19.8515 19.1702 19.4878 18.8219 19.288ZM12.8287 28.7797C18.7092 28.7797 21.4548 26.0598 21.4548 20.251C21.4548 14.4269 18.7092 11.7069 12.8287 11.7069C6.96357 11.7069 4.23335 14.4269 4.23335 20.251C4.23335 26.0598 6.96357 28.7797 12.8287 28.7797ZM36.2686 3.73648C37.4417 4.91463 38.0051 6.54354 38.0051 8.75128V31.2487C38.0051 33.4667 37.4263 35.1161 36.2379 36.2789C35.0649 37.4417 33.4155 38 31.1873 38H19.831C17.6027 38 15.9585 37.4417 14.7701 36.2943C13.72 35.2493 13.1514 33.8406 13.0336 31.971V30.9721C12.9619 30.9721 12.9004 30.9875 12.8236 30.9875C5.98008 30.9875 2 27.5606 2 20.251C2 12.926 5.98008 9.49915 12.8236 9.49915C12.8953 9.49915 12.9567 9.51451 13.0182 9.51451V8.75128C13.0182 6.57427 13.5817 4.95561 14.7701 3.76722C15.9585 2.57371 17.6079 2 19.831 2H31.1873C33.4155 2 35.0802 2.57371 36.2686 3.73648ZM24.0877 32.3705C24.4257 32.7137 24.9175 32.893 25.5117 32.893C26.1059 32.893 26.5976 32.7137 26.9357 32.3705C27.2686 32.0324 27.4377 31.5663 27.4377 30.9824C27.4377 29.7837 26.7154 29.0666 25.5117 29.0666C24.3079 29.0666 23.5857 29.7837 23.5857 30.9824C23.5857 31.5612 23.7547 32.0324 24.0877 32.3705Z" fill="#86888C"/>
</svg>
