<svg width="40" height="40" viewBox="0 0 40 40" fill="none" xmlns="http://www.w3.org/2000/svg">
<path fill-rule="evenodd" clip-rule="evenodd" d="M13.9909 26.0339C14.7334 26.0339 15.2404 26.5408 15.2404 27.2373C15.2404 28.0054 14.7385 28.497 14.0216 28.497C13.2688 28.497 12.7721 28.0105 12.7721 27.309V27.2424C12.7772 26.5408 13.2842 26.0339 13.9909 26.0339ZM17.0225 15.367C17.8572 15.9713 18.2464 16.806 18.2464 17.9889C18.2464 19.3972 17.6421 20.2575 16.367 21.7579C14.9434 23.3915 14.9434 23.3915 14.9434 24.8202C14.9434 25.2248 14.6105 25.5525 14.2009 25.5525H13.7246C13.3713 25.5525 13.064 25.3067 12.9974 24.9585C12.9565 24.7434 12.9309 24.5232 12.9309 24.2211C12.9309 22.9767 13.3815 22.2188 14.334 21.0871L14.5132 20.8771C16.0341 19.0899 16.239 18.6751 16.239 17.9684C16.239 17.4666 16.111 17.1696 15.7781 16.9084C15.5886 16.7548 15.2353 16.5807 14.2213 16.5807C13.6427 16.5807 13.1255 16.6472 12.5058 16.806C12.3112 16.8521 12.1013 16.8213 11.9272 16.7138C11.7531 16.6063 11.6353 16.4321 11.5943 16.2324L11.5226 15.8688C11.4612 15.536 11.6302 15.2083 11.9374 15.0649C12.4495 14.8293 13.5249 14.6449 14.4364 14.6449C15.5118 14.6398 16.3824 14.8856 17.0225 15.367ZM14.8358 29.7721C20.7095 29.7721 23.4543 27.0683 23.4543 21.2509C23.4543 15.4336 20.7095 12.7297 14.8358 12.7297C8.97753 12.7297 6.23272 15.4336 6.23272 21.2509C6.23272 27.0683 8.97753 29.7721 14.8358 29.7721ZM38.2435 4.76159C39.4316 5.92404 39.9949 7.56785 39.9949 9.75448V32.2404C39.9949 34.4731 39.4162 36.122 38.2282 37.2794C37.0555 38.4265 35.4065 39 33.1841 39H21.8361C19.6085 39 17.9647 38.4265 16.7767 37.2794C15.7218 36.2347 15.1585 34.8265 15.0407 32.9727V31.9741H14.8307C7.99431 31.9741 4 28.5482 4 21.2458C4 13.9434 7.99431 10.5175 14.8307 10.5175H15.0253V9.74936C15.0253 7.58834 15.5886 5.95989 16.7767 4.78208C17.9596 3.59403 19.6085 3 21.8361 3H33.1841C35.4117 3.01024 37.0708 3.58378 38.2435 4.76159ZM27.505 30.064C26.3016 30.064 25.5898 30.7707 25.5898 31.9741C25.5898 32.5579 25.7536 33.029 26.0814 33.3516C26.4245 33.705 26.911 33.8791 27.505 33.8791C28.099 33.8791 28.5855 33.705 28.9286 33.3516C29.2666 33.029 29.4304 32.5579 29.4304 31.9741C29.4304 30.7707 28.7186 30.064 27.505 30.064Z" fill="#86888C"/>
</svg>
