<svg width="28" height="28" viewBox="0 0 28 28" fill="none" xmlns="http://www.w3.org/2000/svg">
<path fill-rule="evenodd" clip-rule="evenodd" d="M8.6606 17.3559C9.15562 17.3559 9.4936 17.6939 9.4936 18.1582C9.4936 18.6703 9.15903 18.998 8.68108 18.998C8.17923 18.998 7.84808 18.6737 7.84808 18.206V18.1616C7.85149 17.6939 8.18947 17.3559 8.6606 17.3559ZM10.6817 10.2447C11.2381 10.6475 11.4976 11.204 11.4976 11.9926C11.4976 12.9314 11.0947 13.505 10.2447 14.5053C9.29559 15.5943 9.29559 15.5943 9.29559 16.5468C9.29559 16.8165 9.07368 17.035 8.80057 17.035H8.48307C8.24751 17.035 8.04267 16.8711 7.99829 16.639C7.97098 16.4956 7.95391 16.3488 7.95391 16.1474C7.95391 15.3178 8.25434 14.8125 8.88933 14.058L9.00882 13.9181C10.0228 12.7266 10.1593 12.4501 10.1593 11.9789C10.1593 11.6444 10.074 11.4464 9.85206 11.2723C9.72575 11.1698 9.49019 11.0538 8.81422 11.0538C8.42845 11.0538 8.08364 11.0982 7.67056 11.204C7.54083 11.2347 7.40085 11.2142 7.28478 11.1425C7.16871 11.0708 7.09019 10.9548 7.06287 10.8216L7.01508 10.5792C6.97411 10.3573 7.08677 10.1388 7.29161 10.0432C7.633 9.8862 8.34993 9.7633 8.95761 9.7633C9.67454 9.75989 10.2549 9.92376 10.6817 10.2447ZM9.2239 19.8481C13.1397 19.8481 14.9696 18.0455 14.9696 14.1673C14.9696 10.289 13.1397 8.48649 9.2239 8.48649C5.31835 8.48649 3.48848 10.289 3.48848 14.1673C3.48848 18.0455 5.31835 19.8481 9.2239 19.8481ZM24.829 3.1744C25.621 3.94936 25.9966 5.04523 25.9966 6.50299V21.4936C25.9966 22.9821 25.6108 24.0814 24.8188 24.8529C24.037 25.6176 22.9377 26 21.456 26H13.8908C12.4057 26 11.3098 25.6176 10.5178 24.8529C9.81451 24.1565 9.43898 23.2176 9.36046 21.9818V21.3161H9.22048C4.66287 21.3161 2 19.0321 2 14.1639C2 9.29559 4.66287 7.01166 9.22048 7.01166H9.35021V6.49957C9.35021 5.05889 9.72575 3.97326 10.5178 3.18805C11.3064 2.39602 12.4057 2 13.8908 2H21.456C22.9411 2.00683 24.0472 2.38919 24.829 3.1744ZM17.67 20.0427C16.8677 20.0427 16.3932 20.5138 16.3932 21.3161C16.3932 21.7053 16.5024 22.0193 16.7209 22.2344C16.9496 22.47 17.274 22.5861 17.67 22.5861C18.066 22.5861 18.3903 22.47 18.6191 22.2344C18.8444 22.0193 18.9536 21.7053 18.9536 21.3161C18.9536 20.5138 18.4791 20.0427 17.67 20.0427Z" fill="#86888C"/>
</svg>
