<svg width="40" height="40" viewBox="0 0 40 40" fill="none" xmlns="http://www.w3.org/2000/svg">
<path d="M32.0644 2.25391H18.9368C16.9151 2.25391 15.4463 2.75063 14.4534 3.77482C13.4759 4.77852 12.9999 6.24822 12.9999 8.27098V16.9253L8.03542 21.8926C7.86653 21.8772 7.69251 21.867 7.52362 21.867C5.00556 21.867 2.80994 23.5723 2.17531 26.0098C1.93988 26.9316 1.93988 27.9045 2.18555 28.8263C2.40562 29.6457 3.24497 30.1321 4.06385 29.9119C4.32487 29.8402 4.5603 29.7071 4.75478 29.5125L5.95239 28.3193L6.52049 28.4013L6.60238 28.9697L5.40477 30.168C4.80596 30.7671 4.80596 31.7401 5.40477 32.3393C5.59413 32.5287 5.83468 32.667 6.0957 32.7387C9.03343 33.5324 12.0633 31.7964 12.8566 28.857C12.918 28.6317 12.9641 28.4064 12.9948 28.1708V32.2368C12.9948 36.2875 14.9345 38.2539 18.9316 38.2539H32.0593C36.0565 38.2539 37.9962 36.2875 37.9962 32.2368V8.27098C38.0013 4.27667 36.0053 2.25391 32.0644 2.25391ZM20.984 16.7563L13.005 24.7398H12.9999V24.7449L11.3826 26.3632C11.9558 28.4935 10.6917 30.6852 8.56257 31.2536C7.887 31.4329 7.17048 31.438 6.4949 31.2536L8.23502 29.5125L7.88188 27.0391L5.40989 26.6858L3.66977 28.4269C3.09655 26.2966 4.3607 24.1048 6.48978 23.5364C7.16536 23.3521 7.88188 23.3521 8.55746 23.5364L18.1537 13.9296C17.5805 11.7993 18.8446 9.60753 20.9737 9.03399C21.6493 8.84964 22.3658 8.84964 23.0414 9.03399L21.3013 10.7751L21.6544 13.2485L24.1264 13.6018L25.8665 11.8607C26.4397 13.991 25.1756 16.1828 23.0465 16.7512C22.3761 16.9407 21.6595 16.9407 20.984 16.7563ZM26.8236 33.2815C26.5165 33.5939 26.0712 33.7424 25.5185 33.7424C24.9658 33.7424 24.5205 33.5939 24.2134 33.2815C23.9319 32.9947 23.7733 32.5646 23.7733 31.991C23.7733 30.7927 24.4591 30.2397 25.5185 30.2397C26.5779 30.2397 27.2637 30.7979 27.2637 31.991C27.2637 32.5697 27.1051 32.9947 26.8236 33.2815Z" fill="#86888C"/>
</svg>
