<svg width="24" height="24" viewBox="0 0 24 24" fill="none" xmlns="http://www.w3.org/2000/svg">
<path fill-rule="evenodd" clip-rule="evenodd" d="M11.8392 18.8986V9.09916C11.8392 8.44757 11.7027 7.99232 11.4153 7.70494C11.1279 7.41756 10.6698 7.27244 10.0154 7.27244H5.09575C4.4527 7.27244 4.00313 7.41756 3.70437 7.71347C3.40845 8.00939 3.27187 8.46465 3.27187 9.09916V18.8986C3.27187 19.5501 3.40845 20.0168 3.70437 20.3042C3.99175 20.583 4.44985 20.7281 5.09575 20.7281H10.0154C10.6613 20.7281 11.1165 20.583 11.4067 20.3042C11.7055 20.0168 11.8392 19.5501 11.8392 18.8986ZM14.494 2C19.3282 2 22 4.6661 22 9.49751C22 14.3204 19.3282 16.9779 14.494 16.9779C14.0102 16.9779 13.5521 16.9438 13.1111 16.8926V18.8986C13.1111 19.9144 12.8493 20.6655 12.3059 21.2005C11.771 21.7325 11.0169 21.9972 10.0154 21.9972H5.09575C4.09418 21.9972 3.3487 21.7354 2.80524 21.2005C2.26177 20.6655 2 19.9144 2 18.8986V9.09916C2 8.10898 2.26177 7.36634 2.7967 6.82288C3.34585 6.27372 4.09418 6.00341 5.09575 6.00341H7.58828C8.62683 3.39707 10.9999 2 14.494 2ZM16.369 12.2404C16.4942 12.3628 16.6564 12.4254 16.8186 12.4254C16.9836 12.4254 17.143 12.3628 17.2682 12.2404C17.5157 11.9929 17.5157 11.5917 17.2682 11.3413L15.339 9.41784V6.82288C15.339 6.4729 15.0545 6.18836 14.7017 6.18836C14.3517 6.18836 14.0643 6.4729 14.0643 6.82288V9.68246C14.0643 9.85033 14.1326 10.0125 14.2521 10.132L16.369 12.2404ZM7.55698 17.9482C8.07768 17.9482 8.38782 18.2584 8.38782 18.7819C8.38782 19.038 8.31669 19.24 8.17158 19.388C8.02646 19.5359 7.81306 19.6156 7.55698 19.6156C7.3009 19.6156 7.08749 19.5359 6.94238 19.388C6.79727 19.24 6.72613 19.038 6.72613 18.7819C6.72613 18.2584 7.03628 17.9482 7.55698 17.9482Z" fill="#86888C"/>
</svg>
