<svg width="40" height="40" viewBox="0 0 40 40" fill="none" xmlns="http://www.w3.org/2000/svg">
<path d="M20.2495 11.8945C19.6957 11.8945 19.2445 11.4433 19.2445 10.8895V9.53074C19.2445 9.49485 19.224 8.96672 18.9574 8.47448C18.6395 7.88482 18.1114 7.61307 17.291 7.61307H13.7787C12.1379 7.61307 10.7329 7.24902 9.7177 6.56194C8.61017 5.8082 8 4.68529 8 3.40342C8 2.84965 8.45122 2.39844 9.00498 2.39844C9.55875 2.39844 10.01 2.84965 10.01 3.40342C10.01 5.02883 11.9584 5.60823 13.7838 5.60823H17.2961C18.8856 5.60823 20.1213 6.32095 20.7725 7.61307C21.2391 8.53088 21.2494 9.42306 21.2494 9.52561V10.8895C21.2494 11.4433 20.8033 11.8945 20.2495 11.8945Z" fill="#86888C"/>
<path d="M27.7405 12.6792C25.987 11.0179 23.4489 10.1719 20.198 10.1719C16.9472 10.1719 14.404 11.0179 12.6555 12.6792C10.8302 14.4123 9.90723 16.9914 9.90723 20.3396V28.2308C9.90723 31.579 10.8302 34.1581 12.6555 35.8912C14.4091 37.5577 16.9472 38.3986 20.198 38.3986C23.777 38.3986 26.3356 37.573 28.0277 35.8707C29.6839 34.2043 30.4889 31.7021 30.4889 28.2308V20.3396C30.4889 16.9914 29.5608 14.4174 27.7405 12.6792ZM19.1931 14.6481C19.1931 14.0944 19.6443 13.6432 20.198 13.6432C20.7518 13.6432 21.1979 14.0944 21.203 14.6481V19.9141C21.203 20.4678 20.7518 20.919 20.198 20.919C19.6443 20.919 19.1982 20.4678 19.1931 19.9141V14.6481ZM28.9045 22.9598C26.0126 23.2572 23.1104 23.4007 20.2032 23.4007C17.2959 23.4059 14.3938 23.2572 11.5019 22.9598C10.9942 22.9085 10.6405 22.5547 10.7122 22.1753C10.784 21.7958 11.2506 21.5292 11.7582 21.5856C14.563 21.8727 17.3831 22.0163 20.2032 22.0112C23.0233 22.0163 25.8434 21.8727 28.6481 21.5856C29.1557 21.5343 29.6223 21.7958 29.6941 22.1753C29.7659 22.5547 29.4121 22.9085 28.9045 22.9598Z" fill="#86888C"/>
</svg>
