<svg width="20" height="20" viewBox="0 0 20 20" fill="none" xmlns="http://www.w3.org/2000/svg">
<path d="M10.4442 6.61891C10.1981 6.61891 9.99757 6.41837 9.99757 6.17225V5.56835C9.99757 5.5524 9.98845 5.31767 9.86995 5.0989C9.72866 4.83683 9.49394 4.71605 9.12932 4.71605H7.56829C6.83905 4.71605 6.21464 4.55425 5.76342 4.24888C5.27119 3.91389 5 3.41481 5 2.8451C5 2.59898 5.20054 2.39844 5.44666 2.39844C5.69278 2.39844 5.89332 2.59898 5.89332 2.8451C5.89332 3.5675 6.75929 3.82501 7.57057 3.82501H9.1316C9.83805 3.82501 10.3873 4.14178 10.6767 4.71605C10.884 5.12397 10.8886 5.52049 10.8886 5.56607V6.17225C10.8886 6.41837 10.6903 6.61891 10.4442 6.61891Z" fill="#86888C"/>
<path d="M13.7736 6.96788C12.9942 6.22953 11.8662 5.85352 10.4214 5.85352C8.97655 5.85352 7.84623 6.22953 7.06913 6.96788C6.25785 7.73814 5.84766 8.88442 5.84766 10.3725V13.8797C5.84766 15.3678 6.25785 16.5141 7.06913 17.2843C7.84851 18.025 8.97655 18.3987 10.4214 18.3987C12.012 18.3987 13.1492 18.0318 13.9012 17.2752C14.6373 16.5346 14.9951 15.4225 14.9951 13.8797V10.3725C14.9951 8.88442 14.5826 7.74042 13.7736 6.96788ZM9.97469 7.84297C9.97469 7.59685 10.1752 7.39631 10.4214 7.39631C10.6675 7.39631 10.8657 7.59685 10.868 7.84297V10.1834C10.868 10.4295 10.6675 10.63 10.4214 10.63C10.1752 10.63 9.97697 10.4295 9.97469 10.1834V7.84297ZM14.2909 11.537C13.0056 11.6692 11.7158 11.733 10.4236 11.733C9.13151 11.7353 7.84167 11.6692 6.55639 11.537C6.33078 11.5142 6.17353 11.357 6.20544 11.1884C6.23734 11.0197 6.44472 10.9012 6.67033 10.9263C7.91687 11.0539 9.17025 11.1177 10.4236 11.1154C11.677 11.1177 12.9304 11.0539 14.1769 10.9263C14.4025 10.9035 14.6099 11.0197 14.6418 11.1884C14.6737 11.357 14.5165 11.5142 14.2909 11.537Z" fill="#86888C"/>
</svg>
