<svg width="28" height="28" viewBox="0 0 28 28" fill="none" xmlns="http://www.w3.org/2000/svg">
<path d="M6.503 6.97598C5.41512 6.97598 3.34295 7.54583 2.41048 11.3793C1.99605 13.0371 1.84064 14.7984 2.20327 16.8706C2.51409 18.7873 3.08393 20.445 3.49837 21.3257C3.65378 21.6365 3.86099 21.9474 4.01641 22.1546C4.48264 22.7244 5.2079 22.6726 5.57053 22.5172C5.93316 22.3618 6.29578 21.9473 6.19217 20.9631C6.14037 20.4968 5.93316 19.8234 5.82955 19.4608C5.46692 18.3211 5.00068 16.9742 5.00068 15.9899C4.94888 14.6948 5.46692 14.4876 5.82955 14.4358C6.39939 14.3322 6.86563 14.9538 7.33186 15.7309C7.90171 16.6633 8.83418 18.3729 9.55944 19.6162C10.2329 20.7559 11.528 21.9992 13.5483 21.9474C15.6205 21.8437 17.1746 21.0667 17.9517 18.5801C18.5215 16.7151 18.936 15.3164 19.6094 13.8659C20.3347 12.2082 21.3708 11.3275 22.1996 11.5865C22.9767 11.8456 23.1839 12.6226 23.1839 13.7105C23.1839 14.6948 23.0803 15.7827 22.9767 16.6115C22.9249 16.9224 22.8731 17.4922 22.9249 17.803C22.9767 18.4247 23.2357 19.0981 23.961 19.2017C24.738 19.3053 25.3597 18.6837 25.5669 17.9584C25.6705 17.6476 25.7223 17.2332 25.7741 16.9224C25.9813 15.3164 26.0331 14.2286 25.9813 12.6226C25.8777 10.7059 25.4633 8.94454 24.8416 7.44222C24.22 5.99171 23.1839 5.05923 21.9406 5.00743C20.4901 4.90382 18.8842 5.8881 18.0035 7.70124C17.2264 9.41078 16.553 11.1203 16.1904 12.001C15.7759 12.8816 15.2061 13.4515 14.3254 13.5551C13.2375 13.6587 12.305 12.8816 11.6316 11.7938C11.0618 10.8095 9.87026 8.99634 9.24861 8.32289C8.57516 7.64944 7.90171 6.92418 6.503 6.97598Z" fill="#86888C"/>
</svg>
