<svg width="119" height="119" viewBox="0 0 119 119" fill="none" xmlns="http://www.w3.org/2000/svg">
<path d="M117.318 27.1269V48.3063C117.318 48.3063 117.318 81.6681 117.318 91.1056V91.2242C117.301 105.118 106.441 116.47 92.7361 117.283C92.2278 117.317 91.7027 117.334 91.1944 117.334H27.1232C26.6488 117.334 26.1745 117.317 25.7171 117.3C11.944 116.555 1 105.169 1 91.2242V91.1564C1 69.1299 1 49.4923 1 49.4923V27.1269C1 12.691 12.6894 1 27.1232 1H91.1775C105.611 1 117.318 12.691 117.318 27.1269Z" stroke="#575757" stroke-width="2" stroke-miterlimit="10"/>
<path d="M117.318 27.1269V48.3063C117.318 48.3063 117.318 81.6681 117.318 91.1056V91.2242C117.301 105.118 106.441 116.47 92.7361 117.283C92.2278 117.317 91.7027 117.334 91.1944 117.334H27.1232C26.6488 117.334 26.1745 117.317 25.7171 117.3C11.944 116.555 1 105.169 1 91.2242V91.1564C1 69.1299 1 49.4923 1 49.4923V27.1269C1 12.691 12.6894 1 27.1232 1H91.1775C105.611 1 117.318 12.691 117.318 27.1269Z" fill="white"/>
<path d="M117.318 48.3062C117.318 48.3062 117.318 81.668 117.318 91.1056V91.2242C117.301 105.118 106.441 116.47 92.7361 117.283C92.2278 117.283 91.7027 117.283 91.1944 117.283H27.1232C26.6488 117.283 26.1745 117.283 25.7171 117.283C11.944 116.555 1 105.169 1 91.2242V91.1564C1 69.1298 1 49.4923 1 49.4923C1 49.4923 28.8342 37.7674 61.0054 37.7674C91.33 36.8524 117.318 48.3062 117.318 48.3062Z" fill="#E8426D"/>
<path d="M18.2628 15.8767C16.9245 15.8936 14.4341 16.5544 13.2991 21.1969C12.8078 23.2132 12.6214 25.3142 13.0449 27.8218C13.4346 30.1262 14.1292 32.1255 14.5866 33.2268C14.7391 33.5996 14.9932 34.0062 15.1795 34.2434C15.7386 34.9381 16.6534 34.9042 17.043 34.7009C17.4666 34.4976 17.9409 33.9893 17.7715 32.8541C17.6868 32.2949 17.4496 31.4986 17.2972 31.0411C16.8736 29.6687 16.3146 28.0082 16.2638 26.8222C16.196 25.2464 16.8228 25.0262 17.2294 24.9414C17.924 24.7889 18.5169 25.5514 19.059 26.5172C19.7197 27.6693 20.8548 29.6856 21.7866 31.2444C22.6167 32.6507 24.1583 34.1418 26.6487 34.0401C29.1729 33.9384 31.0364 32.9727 32.002 29.9398C32.7136 27.6693 33.2049 25.975 34.0011 24.2298C34.899 22.2305 36.1187 21.163 37.1352 21.485C38.0839 21.7899 38.3211 22.7049 38.3211 24.0773C38.338 25.2803 38.1855 26.6019 38.0839 27.5677C38.05 27.9235 37.9653 28.6351 37.9992 29.0248C38.05 29.8042 38.3888 30.5667 39.2698 30.7022C40.2015 30.8378 40.9469 30.0923 41.2349 29.1943C41.3535 28.8384 41.4552 28.2963 41.506 27.9066C41.7771 25.958 41.8448 24.6703 41.7262 22.671C41.5738 20.3497 41.1333 18.2318 40.3371 16.4019C39.5747 14.6567 38.355 13.5215 36.7964 13.4199C35.0684 13.3182 33.0863 14.4534 32.0359 16.6899C31.0703 18.7401 30.3079 20.8411 29.8505 21.9255C29.3762 23.0099 28.6816 23.6876 27.6143 23.8062C26.3098 23.9418 25.1917 22.9929 24.3616 21.6544C23.6501 20.4853 22.227 18.2318 21.4647 17.4863C20.7701 16.7408 19.9569 15.8597 18.2628 15.8767Z" fill="#22A1D8"/>
<path d="M44.9284 66.0294C44.9284 74.4842 38.0673 80.1942 30.9012 80.1942C29.0207 80.1942 26.92 79.9061 25.768 79.4656C25.0396 82.634 24.328 86.0905 23.5657 89.9367C23.4132 90.6144 23.3793 91.3769 22.1765 91.3769C21.2617 91.3769 19.9233 90.75 19.9233 89.4962C19.9233 85.9889 25.4461 65.4364 27.225 58.3709C26.1746 58.6081 25.0226 59.0995 24.057 59.7603C23.2438 60.3872 22.617 60.7261 22.1765 60.7261C21.6513 60.7261 21.3125 60.3025 21.3633 59.6756C21.4989 56.4055 27.8518 54.6772 31.6805 54.6772C38.0164 54.6942 44.9284 57.3713 44.9284 66.0294ZM40.8456 67.4188C40.8456 61.2683 36.7628 57.9643 31.6296 57.8626C30.0033 62.9118 28.2753 68.7234 26.4457 76.5005C27.9873 77.0257 29.7153 77.1782 30.9181 77.1782C35.6108 77.1613 40.8456 73.8065 40.8456 67.4188Z" fill="white"/>
<path d="M62.8857 67.605C62.8857 68.9944 61.7845 70.0618 60.7681 70.0618C58.2269 69.1469 55.9737 69.8246 53.9916 72.3153C51.5352 75.4329 50.146 81.0582 48.994 88.4964C46.6392 88.7844 45.6396 87.1917 45.6396 85.0399C45.6396 81.2954 48.2825 70.9768 49.8241 65.6904C50.2137 65.5887 50.5526 65.5379 50.8406 65.5379C52.9582 65.5379 52.9074 67.9947 51.9926 71.6884C54.1949 67.8422 57.5154 65.4023 60.3445 65.4023C62.2081 65.4023 62.8857 66.4528 62.8857 67.605Z" fill="white"/>
<path d="M62.937 86.4801C62.937 84.125 66.4946 69.5197 67.257 67.5542C67.6975 66.3512 68.6462 65.6396 69.7135 65.6735C71.0518 65.7243 71.1026 66.8257 70.8654 68.2659C70.425 71.2987 68.6123 75.7041 68.121 79.8891C67.8838 81.8546 67.6466 84.9383 67.4942 86.3785C67.3417 87.8187 66.3422 88.5811 64.665 88.5811C63.2758 88.5981 62.937 87.6323 62.937 86.4801ZM68.985 59.0147C68.985 55.2702 70.0353 53.9316 72.0174 53.9316C73.1694 53.9316 73.8471 54.6941 73.7963 55.7107C73.7963 57.4389 72.4579 60.9971 70.1878 60.9971C69.3746 60.9801 68.985 60.1669 68.985 59.0147Z" fill="white"/>
<path d="M72.4409 89.5978C72.4409 85.3281 82.5717 77.0088 82.5717 75.4331C82.5717 73.3151 76.7609 71.536 76.7609 67.7915C76.7609 67.2155 77.2014 65.1483 78.4889 65.1483C79.8272 65.1483 84.486 73.3151 85.638 73.3151C86.8917 73.3151 92.9905 64.9111 95.8196 64.9111C96.9716 64.9111 98.022 66.2158 97.9373 67.3679C97.7001 70.4856 88.9077 72.6543 88.6197 75.6364C88.518 77.1782 93.5665 83.3287 93.5665 85.4806C93.5665 86.3955 92.6008 87.3105 91.686 87.3105C90.822 87.3105 90.4832 86.3955 90.1952 85.8194C89.5175 84.2267 86.5867 78.3304 85.1129 78.3304C83.7237 78.3304 80.0305 83.2271 75.9477 89.1404C75.2193 90.1909 74.4569 90.7331 73.5421 90.7331C72.9661 90.7161 72.4409 90.2756 72.4409 89.5978Z" fill="white"/>
</svg>
