<svg width="61" height="20" viewBox="0 0 61 20" fill="none" xmlns="http://www.w3.org/2000/svg">
<path d="M5.08113 2.22968C3.85357 2.22968 1.51537 2.87268 0.463183 7.19835C-0.00445719 9.06891 -0.179823 11.0564 0.229362 13.3946C0.580092 15.5574 1.2231 17.428 1.69074 18.4217C1.8661 18.7724 2.09992 19.1232 2.27529 19.357C2.80138 20 3.61975 19.9416 4.02894 19.7662C4.43812 19.5908 4.84731 19.1232 4.7304 18.0125C4.67194 17.4864 4.43812 16.7265 4.32121 16.3173C3.91203 15.0313 3.38593 13.5115 3.38593 12.4009C3.32748 10.9395 3.91203 10.7057 4.32121 10.6472C4.96422 10.5303 5.49031 11.2318 6.01641 12.1086C6.65941 13.1608 7.7116 15.0898 8.52997 16.4927C9.28989 17.7787 10.7513 19.1816 13.031 19.1232C15.3692 19.0063 17.1229 18.1294 17.9997 15.3236C18.6427 13.2192 19.1103 11.6409 19.8702 10.0042C20.6886 8.13363 21.8577 7.1399 22.793 7.43218C23.6698 7.72445 23.9036 8.60127 23.9036 9.82883C23.9036 10.9395 23.7867 12.167 23.6698 13.1023C23.6114 13.453 23.5529 14.096 23.6114 14.4468C23.6698 15.1482 23.9621 15.9082 24.7805 16.0251C25.6573 16.142 26.3588 15.4405 26.5926 14.6221C26.7095 14.2714 26.7679 13.8038 26.8264 13.453C27.0602 11.6409 27.1187 10.4134 27.0602 8.60128C26.9433 6.43844 26.4757 4.45097 25.7742 2.75578C25.0727 1.11904 23.9036 0.0668375 22.5007 0.0083825C20.864 -0.108528 19.0519 1.00212 18.0581 3.04805C17.1813 4.97707 16.4214 6.90608 16.0122 7.89981C15.5446 8.89355 14.9016 9.53655 13.9078 9.65346C12.6803 9.77037 11.6281 8.89355 10.8682 7.66599C10.2252 6.55535 8.8807 4.50942 8.17924 3.74951C7.41933 2.98959 6.65942 2.17122 5.08113 2.22968Z" fill="#86888C"/>
<path d="M32.6133 3.86621H36.0621C37.7573 3.86621 38.9264 4.15848 39.5694 4.85994C40.154 5.44449 40.4463 6.37978 40.4463 7.49042C40.4463 8.77643 40.154 9.71171 39.4525 10.4132C38.8095 11.0562 37.8158 11.4069 36.4129 11.4069H34.1916V15.8495H32.6133V3.86621ZM35.8868 10.1209C36.9974 10.1209 37.6989 9.94553 38.225 9.53635C38.6341 9.12716 38.868 8.48416 38.868 7.54888C38.868 6.73051 38.6926 6.14595 38.2834 5.73677C37.8158 5.26913 37.1143 5.09377 35.9452 5.09377H34.1916V10.1209H35.8868Z" fill="#86888C"/>
<path d="M43.2524 3.34033H41.791V15.8497H43.2524V3.34033Z" fill="#86888C"/>
<path d="M45.4148 15.2651C45.0057 14.8559 44.7134 14.2129 44.7134 13.3946C44.7134 12.5762 45.0056 11.9332 45.4733 11.524C46.1163 10.9394 47.11 10.7056 48.396 10.7056H50.2081V10.1795C50.2081 9.47807 50.0912 9.06888 49.799 8.71815C49.4482 8.36742 48.8637 8.19205 47.9869 8.19205C47.3438 8.19205 46.5255 8.25051 45.6487 8.42588L45.5902 7.31522C46.4086 7.13986 47.4023 7.02295 48.2207 7.02295C49.5067 7.02295 50.3835 7.31523 50.9096 7.78287C51.4357 8.30896 51.6695 9.01042 51.6695 10.1211V15.8497H50.5004L50.442 15.2651C49.682 15.7328 48.8052 16.0835 47.753 16.0835C46.7008 16.0835 45.9409 15.7912 45.4148 15.2651ZM50.1497 14.3298V11.7578H48.5714C47.6946 11.7578 47.0516 11.8747 46.6424 12.167C46.3501 12.4008 46.1748 12.7515 46.1748 13.2776C46.1748 14.3298 46.8178 14.7975 47.9284 14.7975C48.6883 14.9144 49.5067 14.6806 50.1497 14.3298Z" fill="#86888C"/>
<path d="M55.2356 19.8247L55.1187 18.714C55.5279 18.7725 56.3462 18.8309 56.7554 18.8309C57.5153 18.8309 58.1583 18.714 58.5675 18.3633C58.9182 18.0126 59.0936 17.4865 59.0936 16.4927V15.3236C58.2168 15.7913 57.2815 16.0835 56.3462 16.0835C55.4109 16.0835 54.7095 15.8497 54.1834 15.3236C53.7158 14.856 53.4819 14.1545 53.4819 13.1023V7.25684H54.9433V12.927C54.9433 13.6869 55.0602 14.0961 55.3525 14.3883C55.6448 14.6806 56.1124 14.7975 56.7554 14.7975C57.5153 14.7975 58.3921 14.5637 59.0936 14.213V7.25684H60.555V16.4927C60.555 17.6618 60.3212 18.4802 59.7951 19.0647C59.2105 19.7078 58.3337 20 56.9892 20C56.4047 20 55.6448 19.9416 55.2356 19.8247Z" fill="#86888C"/>
</svg>
