<svg width="122" height="40" viewBox="0 0 122 40" fill="none" xmlns="http://www.w3.org/2000/svg">
<path d="M10.1623 4.45937C7.70718 4.45937 3.03076 5.74538 0.92637 14.3968C-0.00891441 18.1379 -0.359648 22.1129 0.458726 26.7893C1.16019 31.115 2.44621 34.8561 3.38149 36.8436C3.73222 37.545 4.19986 38.2465 4.55059 38.7142C5.60279 40.0002 7.23954 39.8833 8.05791 39.5325C8.87628 39.1818 9.69465 38.2465 9.46083 36.0252C9.34392 34.973 8.87628 33.4532 8.64246 32.6348C7.82409 30.0628 6.7719 27.0231 6.7719 24.8018C6.65499 21.879 7.82409 21.4114 8.64246 21.2945C9.92848 21.0607 10.9807 22.4636 12.0329 24.2173C13.3189 26.3216 15.4233 30.1797 17.06 32.9855C18.5799 35.5576 21.5026 38.3634 26.0621 38.2465C30.7386 38.0127 34.2459 36.259 35.9995 30.6473C37.2855 26.4386 38.2208 23.282 39.7407 20.0085C41.3774 16.2673 43.7156 14.2799 45.5862 14.8644C47.3399 15.449 47.8075 17.2026 47.8075 19.6577C47.8075 21.879 47.5737 24.3342 47.3399 26.2047C47.2229 26.9062 47.106 28.1922 47.2229 28.8937C47.3399 30.2966 47.9244 31.8164 49.5612 32.0503C51.3148 32.2841 52.7177 30.8811 53.1854 29.2444C53.4192 28.5429 53.5361 27.6076 53.653 26.9062C54.1207 23.282 54.2376 20.8269 54.1207 17.2026C53.8868 12.8769 52.9516 8.90198 51.5486 5.51157C50.1457 2.23808 47.8075 0.133676 45.0016 0.0167651C41.7281 -0.217056 38.1039 2.00426 36.1164 6.09613C34.3628 9.95417 32.8429 13.8122 32.0246 15.7997C31.0893 17.7872 29.8033 19.0732 27.8158 19.307C25.3607 19.5408 23.2563 17.7872 21.7364 15.3321C20.4504 13.1108 17.7615 9.01889 16.3586 7.49905C14.8387 5.97921 13.3189 4.34246 10.1623 4.45937Z" fill="#86888C"/>
<path d="M65.2266 7.73291H72.1243C75.5147 7.73291 77.8529 8.31746 79.1389 9.72039C80.308 10.8895 80.8926 12.7601 80.8926 14.9814C80.8926 17.5534 80.308 19.424 78.9051 20.8269C77.6191 22.1129 75.6316 22.8144 72.8257 22.8144H68.3832V31.6996H65.2266V7.73291ZM71.7736 20.2423C73.9949 20.2423 75.3978 19.8916 76.45 19.0732C77.2683 18.2549 77.736 16.9688 77.736 15.0983C77.736 13.4615 77.3853 12.2924 76.5669 11.474C75.6316 10.5388 74.2287 10.188 71.8905 10.188H68.3832V20.2423H71.7736Z" fill="#86888C"/>
<path d="M86.5043 6.68066H83.5815V31.6995H86.5043V6.68066Z" fill="#86888C"/>
<path d="M90.8316 30.5303C90.0133 29.7119 89.4287 28.4259 89.4287 26.7892C89.4287 25.1524 90.0132 23.8664 90.9485 23.048C92.2345 21.8789 94.222 21.4113 96.7941 21.4113H100.418V20.3591C100.418 18.9562 100.184 18.1378 99.5999 17.4363C98.8985 16.7349 97.7293 16.3841 95.9757 16.3841C94.6897 16.3841 93.0529 16.501 91.2993 16.8518L91.1824 14.6305C92.8191 14.2797 94.8066 14.0459 96.4433 14.0459C99.0154 14.0459 100.769 14.6305 101.821 15.5657C102.873 16.6179 103.341 18.0209 103.341 20.2422V31.6994H101.003L100.886 30.5303C99.3661 31.4656 97.6124 32.167 95.5081 32.167C93.4037 32.167 91.8838 31.5825 90.8316 30.5303ZM100.301 28.6597V23.5157H97.1448C95.3911 23.5157 94.1051 23.7495 93.2867 24.334C92.7022 24.8017 92.3515 25.5031 92.3515 26.5553C92.3515 28.6597 93.6375 29.595 95.8588 29.595C97.3786 29.8288 99.0154 29.3612 100.301 28.6597Z" fill="#86888C"/>
<path d="M110.471 39.6489L110.237 37.4276C111.055 37.5445 112.692 37.6615 113.51 37.6615C115.03 37.6615 116.316 37.4277 117.135 36.7262C117.836 36.0247 118.187 34.9725 118.187 32.9851V30.6468C116.433 31.5821 114.563 32.1667 112.692 32.1667C110.821 32.1667 109.418 31.699 108.366 30.6468C107.431 29.7116 106.963 28.3086 106.963 26.2042V14.5132H109.886V25.8535C109.886 27.3733 110.12 28.1917 110.705 28.7763C111.289 29.3608 112.224 29.5946 113.51 29.5946C115.03 29.5946 116.784 29.127 118.187 28.4255V14.5132H121.11V32.9851C121.11 35.3233 120.642 36.96 119.59 38.1291C118.421 39.4151 116.667 39.9997 113.978 39.9997C112.809 39.9997 111.289 39.8828 110.471 39.6489Z" fill="#86888C"/>
</svg>
