<svg width="187" height="80" viewBox="0 0 187 80" fill="none" xmlns="http://www.w3.org/2000/svg">
<path d="M187 24.9834V72.8324C187 76.6592 183.896 79.7635 180.069 79.7635H90.4189C86.6456 79.7635 83.4878 76.6592 83.4878 72.8324V18.0522H180.069C183.896 18.0522 187 21.1565 187 24.9834Z" fill="#FF554B"/>
<path d="M12.2762 5.63536C9.25215 5.68889 3.68582 7.16075 1.14351 17.5709C0.0462997 22.0935 -0.408641 26.8302 0.554762 32.4501C1.43788 37.6417 2.99003 42.1109 4.03372 44.5729C4.38161 45.4292 4.97036 46.3124 5.39854 46.8744C6.62955 48.4533 8.69016 48.3462 9.57328 47.918C10.5099 47.4631 11.6071 46.3391 11.2057 43.7701C11.0184 42.539 10.4564 40.7193 10.162 39.7024C9.19863 36.5981 7.91409 32.8515 7.80704 30.1754C7.67324 26.6161 9.06482 26.1612 10.0015 25.9471C11.5804 25.5992 12.8917 27.3387 14.1227 29.4796C15.6213 32.0487 18.1636 36.6248 20.251 40.1038C22.1243 43.2348 25.6032 46.6067 31.1696 46.3659C36.8697 46.1518 41.0444 43.9574 43.1853 37.1333C44.791 32.0219 45.8882 28.195 47.6812 24.2879C49.7151 19.792 52.4447 17.3835 54.7194 18.1328C56.8335 18.8019 57.3688 20.8892 57.3955 23.94C57.4223 26.6429 57.1012 29.6134 56.8603 31.8078C56.78 32.6106 56.6194 34.1895 56.673 35.0994C56.8068 36.8389 57.5561 38.5784 59.5364 38.846C61.6238 39.1404 63.3097 37.4812 63.9788 35.4741C64.2464 34.6712 64.4605 33.4402 64.5943 32.5839C65.2098 28.2218 65.3704 25.2781 65.1027 20.809C64.7816 15.5905 63.7647 10.827 61.9717 6.70581C60.259 2.77192 57.5293 0.256364 54.0236 0.0155129C50.1432 -0.225338 45.6741 2.34373 43.3191 7.34808C41.1782 11.951 39.4388 16.6877 38.3951 19.0962C37.3246 21.5583 35.7725 23.0569 33.364 23.3245C30.4202 23.6189 27.9047 21.5047 26.0582 18.4807C24.4525 15.8314 21.2412 10.8003 19.5284 9.11432C17.9495 7.56217 16.103 5.58184 12.2762 5.63536Z" fill="#03477A"/>
<path d="M105.726 51.8521V63.8946H100.026V33.146H111.613C118.116 33.146 121.248 37.1334 121.248 42.5124C121.248 47.8914 118.116 51.8788 111.613 51.8788H105.726V51.8521ZM115.414 42.5124C115.414 39.7025 113.888 38.4179 111.373 38.4179H105.699V46.5801H111.373C113.888 46.5801 115.414 45.3223 115.414 42.5124Z" fill="white"/>
<path d="M130.373 32.7983V63.8948H124.914V32.7983H130.373Z" fill="white"/>
<path d="M148.785 63.8945V60.3353C147.152 62.6635 144.797 64.2424 141.934 64.2424C137.973 64.2424 135.11 61.9944 135.11 57.5521V41.7362H140.569V55.9197C140.569 58.569 141.88 59.5592 143.727 59.5592C146.376 59.5592 148.785 56.4014 148.785 50.5407V41.7095H154.244V63.8945H148.785Z" fill="white"/>
<path d="M173.03 45.001L169.765 47.9983C168.748 46.687 167.303 46.0715 166.072 46.0715C165.029 46.0715 164.039 46.687 164.039 47.918C164.039 48.8814 164.841 49.5772 166.153 50.0589C169.177 51.1561 174.154 52.1195 174.154 56.8562C174.154 60.8437 171.077 64.2423 166.286 64.2423C161.684 64.2423 158.606 60.9775 157.509 58.2746L161.871 55.9464C162.674 58.0873 164.146 59.5859 166.313 59.5859C167.972 59.5859 169.043 58.8366 169.043 57.2041C169.043 55.3576 166.179 54.9562 163.503 53.8322C161.095 52.8153 159.034 51.2899 159.034 47.8645C159.034 44.4391 161.791 41.415 166.099 41.415C169.07 41.415 171.665 42.8601 173.03 45.001Z" fill="white"/>
</svg>
