<svg width="189" height="69" viewBox="0 0 189 69" fill="none" xmlns="http://www.w3.org/2000/svg">
<path d="M188.446 21.6483V62.9676C188.446 66.286 185.716 68.9889 182.424 68.9889H78.1629C74.8445 68.9889 72.1416 66.2592 72.1416 62.9676V15.6538H182.424C185.716 15.6538 188.446 18.3299 188.446 21.6483Z" fill="#FF8C1E"/>
<path d="M96.5213 36.3671C95.5311 34.4403 94.4339 33.6107 92.9085 33.6107C91.4902 33.6107 90.4197 34.6009 90.4197 35.9925C90.4197 40.5151 101.526 39.9264 101.526 47.6603C101.526 52.745 98.1805 55.7422 93.2029 55.7422C88.4929 55.7422 85.0675 52.4238 84.2646 48.4632L88.1718 46.0012C88.9479 48.7843 90.5 51.2731 93.3367 51.2731C95.3438 51.2731 96.7086 50.2562 96.7086 47.9012C96.7086 43.5926 85.8168 44.449 85.8168 36.2066C85.8168 32.2727 88.814 29.1416 92.9085 29.1416C96.3607 29.1416 99.0101 30.8543 100.402 33.8516L96.5213 36.3671Z" fill="white"/>
<path d="M120.74 47.5803H107.841C107.948 49.6677 109.393 51.8086 112.257 51.8086C114.371 51.8086 115.602 50.8719 116.673 49.1325L120.392 50.4973C118.947 53.5748 116.539 55.7425 111.989 55.7425C105.567 55.7425 102.998 50.4973 102.998 46.0817C102.998 41.6661 105.567 36.4209 111.989 36.4209C118.225 36.4209 120.713 41.5858 120.713 45.6803V47.5803H120.74ZM107.948 43.9408H116.003C115.602 42.0943 114.451 40.3816 111.989 40.3816C109.661 40.3816 108.296 42.1478 107.948 43.9408Z" fill="white"/>
<path d="M123.202 55.4477V36.7416H127.805V39.7924C129.143 37.598 131.231 36.4473 133.345 36.4473C133.746 36.4473 134.308 36.474 134.763 36.5811V41.0769C134.201 40.7558 133.612 40.5685 132.836 40.5685C130.16 40.5685 127.832 42.7629 127.832 48.8109V55.4477H123.202Z" fill="white"/>
<path d="M138.804 28.3657C140.517 28.3657 141.774 29.677 141.774 31.3362C141.774 32.9954 140.517 34.3067 138.804 34.3067C137.091 34.3067 135.833 32.9954 135.833 31.3362C135.807 29.677 137.091 28.3657 138.804 28.3657ZM141.105 36.742V55.448H136.502V36.742H141.105Z" fill="white"/>
<path d="M161.123 47.5803H148.224C148.331 49.6677 149.776 51.8086 152.639 51.8086C154.753 51.8086 155.984 50.8719 157.055 49.1325L160.775 50.4973C159.33 53.5748 156.921 55.7425 152.372 55.7425C145.949 55.7425 143.38 50.4973 143.38 46.0817C143.38 41.6661 145.949 36.4209 152.372 36.4209C158.607 36.4209 161.096 41.5858 161.096 45.6803V47.5803H161.123ZM148.357 43.9408H156.413C156.011 42.0943 154.86 40.3816 152.398 40.3816C150.07 40.3816 148.679 42.1478 148.357 43.9408Z" fill="white"/>
<path d="M175.36 39.4984L172.604 42.014C171.747 40.89 170.516 40.3816 169.473 40.3816C168.589 40.3816 167.76 40.9168 167.76 41.9337C167.76 42.7633 168.429 43.352 169.553 43.7535C172.122 44.6901 176.323 45.4929 176.323 49.5071C176.323 52.879 173.728 55.7425 169.687 55.7425C165.78 55.7425 163.184 52.9861 162.247 50.6846L165.913 48.731C166.582 50.5508 167.84 51.8086 169.66 51.8086C171.078 51.8086 171.961 51.1663 171.961 49.8015C171.961 48.2493 169.553 47.9015 167.278 46.9381C165.244 46.0817 163.478 44.7704 163.478 41.8802C163.478 38.99 165.806 36.4209 169.446 36.4209C172.015 36.4477 174.209 37.6787 175.36 39.4984Z" fill="white"/>
<path d="M10.9387 4.94942C8.34287 4.97618 3.52586 6.28748 1.30468 15.2792C0.341279 19.1864 -0.0333779 23.2541 0.796219 28.1246C1.54553 32.6205 2.88359 36.4741 3.79347 38.615C4.11461 39.3643 4.59631 40.1136 4.97096 40.5953C6.04141 41.9601 7.83441 41.8531 8.58372 41.5052C9.41332 41.1038 10.35 40.1404 10.0021 37.9192C9.8415 36.8488 9.3598 35.2966 9.09219 34.4135C8.26259 31.7374 7.19214 28.4993 7.0851 26.1978C6.95129 23.1203 8.18231 22.7188 8.98514 22.5315C10.35 22.2371 11.4739 23.7358 12.5444 25.5823C13.8289 27.8035 16.0501 31.7641 17.8431 34.7614C19.4488 37.4643 22.446 40.3812 27.2898 40.1939C32.2139 40.0066 35.7999 38.1065 37.6731 32.2191C39.0647 27.8035 40.0281 24.5118 41.5535 21.1399C43.3197 17.2596 45.648 15.1722 47.6283 15.8145C49.4481 16.4032 49.9298 18.1962 49.9298 20.8188C49.9565 23.147 49.6889 25.7161 49.4748 27.6161C49.3945 28.3119 49.2607 29.6768 49.3143 30.4528C49.4213 31.9515 50.0903 33.4501 51.7763 33.6909C53.5693 33.9585 55.0144 32.5134 55.6031 30.774C55.844 30.0782 56.0313 29.0345 56.1384 28.2852C56.6736 24.5118 56.8074 21.9695 56.5665 18.1159C56.2989 13.62 55.389 9.49882 53.8637 5.93958C52.3918 2.54091 50.01 0.373252 46.986 0.159163C43.6141 -0.0549268 39.7873 2.16625 37.7534 6.50157C35.8801 10.489 34.4083 14.5834 33.4984 16.6708C32.5885 18.785 31.2505 20.0963 29.1631 20.3103C26.6208 20.578 24.4531 18.7314 22.8474 16.1356C21.4559 13.8341 18.6995 9.49882 17.2276 8.02695C15.8092 6.60861 14.2303 4.8959 10.9387 4.94942Z" fill="#03477A"/>
</svg>
