<svg width="28" height="28" viewBox="0 0 28 28" fill="none" xmlns="http://www.w3.org/2000/svg">
<path d="M15.4699 21.584H9.2573C8.86791 21.584 8.54932 21.9026 8.54932 22.292C8.54932 22.6814 8.86791 23 9.2573 23H15.4699C15.8593 23 16.1779 22.6814 16.1779 22.292C16.1779 21.9026 15.8593 21.584 15.4699 21.584Z" fill="#86888C"/>
<path d="M24.2308 9.49572H23.0732V9.48864C23.0732 8.07974 22.7369 6.98236 22.0785 6.22482C21.367 5.41063 20.305 5 18.9138 5H6.15942C4.77177 5 3.70625 5.41417 2.99472 6.22482C2.33275 6.97882 2 8.0762 2 9.4851V15.726C2 17.1349 2.33275 18.2323 2.99472 18.9898C3.70625 19.804 4.76823 20.2146 6.15942 20.2146H17.8695V20.3421C17.8695 22.0731 18.7864 22.99 20.5174 22.99H24.2308C25.9618 22.99 26.8787 22.0731 26.8787 20.3421V12.1436C26.8787 10.4126 25.9618 9.49572 24.2308 9.49572ZM25.4627 20.3456C25.4627 20.82 25.3742 21.1492 25.2007 21.3226C25.0273 21.4926 24.7016 21.5811 24.2273 21.5811H20.5174C20.0431 21.5811 19.7174 21.4961 19.5439 21.3226C19.3705 21.1527 19.282 20.8235 19.282 20.3456V12.1436C19.282 11.2232 19.5935 10.9117 20.5139 10.9117H24.2308C25.176 10.9117 25.4627 11.1984 25.4627 12.1436V20.3456Z" fill="#86888C"/>
<path d="M22.3719 18.8232C21.7985 18.8232 21.4268 19.1949 21.4268 19.7719C21.4268 20.1259 21.5613 20.3383 21.6781 20.4552C21.7949 20.5755 22.0108 20.7171 22.3719 20.7171C22.733 20.7171 22.9489 20.5755 23.0657 20.4552C23.179 20.3383 23.3171 20.1259 23.3171 19.7719C23.3171 19.1949 22.9454 18.8232 22.3719 18.8232Z" fill="#86888C"/>
</svg>
