<svg width="24" height="24" viewBox="0 0 24 24" fill="none" xmlns="http://www.w3.org/2000/svg">
<path fill-rule="evenodd" clip-rule="evenodd" d="M8.17 17.8645H10.1765V9.88672H8.17V17.8645ZM13.8595 17.8645H15.866V9.88672H13.8595V17.8645ZM21.379 9.88672C21.6523 9.88672 21.8942 9.71025 21.9739 9.44841C22.0536 9.18656 21.9568 8.90479 21.7348 8.7454L12.3567 2.21061C12.1432 2.06261 11.8615 2.06261 11.6452 2.21061L2.26705 8.7454C2.04221 8.90194 1.94828 9.18656 2.02797 9.44556C2.11051 9.70741 2.34959 9.88387 2.62282 9.88387H4.48137V17.8617H2.67405C2.32967 17.8617 2.05074 18.1434 2.05074 18.4878V21.4735C2.05074 21.8178 2.32967 22.0996 2.67405 22.0996H21.325C21.6694 22.0996 21.9483 21.8178 21.9483 21.4735V18.4878C21.9483 18.1434 21.6694 17.8617 21.325 17.8617H19.5518V9.88387H21.379V9.88672Z" fill="#86888C"/>
</svg>
