<svg width="28" height="28" viewBox="0 0 28 28" fill="none" xmlns="http://www.w3.org/2000/svg">
<path fill-rule="evenodd" clip-rule="evenodd" d="M9.404 21.0175H11.8119V11.4441H9.404V21.0175ZM16.2314 21.0175H18.6392V11.4441H16.2314V21.0175ZM25.2549 11.4441C25.5827 11.4441 25.873 11.2324 25.9687 10.9182C26.0643 10.6039 25.9482 10.2658 25.6818 10.0746L14.428 2.23281C14.1719 2.05521 13.8338 2.05521 13.5742 2.23281L2.32046 10.0746C2.05065 10.2624 1.93794 10.6039 2.03357 10.9148C2.13262 11.229 2.41951 11.4407 2.74739 11.4407H4.97764V21.0141H2.80886C2.3956 21.0141 2.06089 21.3522 2.06089 21.7655V25.3482C2.06089 25.7615 2.3956 26.0996 2.80886 26.0996H25.19C25.6032 26.0996 25.9379 25.7615 25.9379 25.3482V21.7655C25.9379 21.3522 25.6032 21.0141 25.19 21.0141H23.0622V11.4407H25.2549V11.4441Z" fill="#86888C"/>
</svg>
