<svg width="40" height="40" viewBox="0 0 40 40" fill="none" xmlns="http://www.w3.org/2000/svg">
<path fill-rule="evenodd" clip-rule="evenodd" d="M13.106 30.4764H16.7178V16.1164H13.106V30.4764ZM23.3471 30.4764H26.9588V16.1164H23.3471V30.4764ZM36.8823 16.1164C37.3741 16.1164 37.8096 15.7988 37.953 15.3274C38.0965 14.8561 37.9223 14.3489 37.5227 14.062L20.6421 2.29941C20.2578 2.03301 19.7507 2.03301 19.3613 2.29941L2.48069 14.062C2.07597 14.3438 1.90691 14.8561 2.05035 15.3223C2.19892 15.7936 2.62926 16.1113 3.12108 16.1113H6.46646V30.4713H3.2133C2.5934 30.4713 2.09134 30.9785 2.09134 31.5984V36.9725C2.09134 37.5924 2.5934 38.0996 3.2133 38.0996H36.785C37.4048 38.0996 37.9069 37.5924 37.9069 36.9725V31.5984C37.9069 30.9785 37.4048 30.4713 36.785 30.4713H33.5933V16.1113H36.8823V16.1164Z" fill="#86888C"/>
</svg>
