<svg width="40" height="40" viewBox="0 0 40 40" fill="none" xmlns="http://www.w3.org/2000/svg">
<path fill-rule="evenodd" clip-rule="evenodd" d="M35.5019 8.49609C35.5019 7.49708 34.7283 6.67226 33.7345 6.58005L16.7514 2.04098L16.4491 2C15.6397 2 14.9481 2.48669 14.6509 3.17831C14.5536 3.40885 14.4972 3.65988 14.4972 3.92628V19.024C13.3599 18.1839 11.9664 17.7843 10.66 17.7535C10.4961 17.7484 10.3014 17.7484 10.117 17.7484C7.29415 17.774 4 19.439 4 24.0549C4 28.6657 7.31464 30.3512 10.1477 30.3922H10.3578C10.4705 30.3922 10.5781 30.3922 10.6703 30.3871C13.3855 30.341 16.5004 28.7682 16.7668 24.6287H16.818V8.93155L33.1914 13.404V26.6318C32.0541 25.7917 30.6503 25.3921 29.344 25.3613L28.8112 25.3562C25.9883 25.3818 22.6942 27.0468 22.6942 31.6627C22.6942 36.2735 26.0088 37.959 28.8419 38H29.0519C29.1647 38 29.2722 38 29.3645 37.9949C32.1975 37.9436 35.5122 36.2633 35.5122 31.6883C35.5122 31.5961 35.4917 31.5244 35.4866 31.4373H35.5122V8.49609H35.5019Z" fill="#86888C"/>
</svg>
