<svg width="28" height="28" viewBox="0 0 28 28" fill="none" xmlns="http://www.w3.org/2000/svg">
<path fill-rule="evenodd" clip-rule="evenodd" d="M24.8323 19.3146C24.6684 19.1643 24.426 19.137 24.2313 19.2463C22.4866 20.2365 20.6086 20.4174 19.6355 20.4413C19.3931 20.4516 19.0892 20.4516 18.816 20.4516C16.8596 20.4242 10.4814 19.7004 10.4814 11.7106C10.4814 5.81733 13.8856 3.85403 16.7401 3.24285C17.0166 3.18481 17.1908 2.91165 17.1327 2.63508C17.0883 2.43363 16.9279 2.27657 16.7264 2.23901C15.7431 2.05805 14.9373 2.02049 14.5378 2.01024L13.4452 2C10.7614 2.03756 2 3.00043 2 13.9676C2 15.9445 2.55655 25.819 13.5271 26C13.889 26 14.2783 26 14.5924 25.9898C16.3747 25.9624 22.3875 25.4332 24.9484 19.9052C25.044 19.7038 24.9962 19.4648 24.8323 19.3146Z" fill="#86888C"/>
</svg>
