<svg width="28" height="28" viewBox="0 0 28 28" fill="none" xmlns="http://www.w3.org/2000/svg">
<path fill-rule="evenodd" clip-rule="evenodd" d="M21.9545 8.89812L16.9892 4.0148V6.18668C16.9892 6.98236 17.2487 7.67217 17.7439 8.15367C18.2356 8.63517 18.9425 8.90154 19.7723 8.90154H21.9545V8.89812ZM23.6824 8.55663C23.8839 8.75128 24 9.02789 24 9.31133V24.3199C24 25.2351 23.2282 26 22.3096 26H7.68014C6.78201 26 6 25.2112 6 24.3199V3.68014C6 2.80592 6.8025 2 7.68014 2H16.5896C16.8697 2 17.1292 2.10586 17.3238 2.30393L23.6824 8.55663ZM19.7006 15.7792C19.5162 15.9567 17.4878 17.794 14.2709 20.6932L11.8463 21.5367L12.6386 19.1394C13.1133 18.716 17.819 14.4883 18.1264 14.1776C18.4166 13.8839 18.724 13.8224 18.9493 13.8429C19.2294 13.8532 19.4991 13.9795 19.704 14.1878C19.9158 14.3927 20.0421 14.7103 20.0421 15.004C20.0421 15.2977 19.9226 15.5538 19.7006 15.7792ZM20.7251 13.136C19.8372 12.2311 18.2425 11.9852 17.1019 13.136C17.0711 13.1633 16.996 13.2316 16.8799 13.3512H9.60615C9.21002 13.3512 8.88219 13.6858 8.88219 14.0888C8.88219 14.502 9.21002 14.8264 9.60615 14.8264H15.2578C14.8139 15.2191 14.329 15.6631 13.8099 16.1241H9.60615C9.21002 16.1241 8.88219 16.4485 8.88219 16.8617C8.88219 17.2647 9.21002 17.5993 9.60615 17.5993H12.1673L11.6448 18.0706C11.4809 18.2174 11.3546 18.4155 11.276 18.6306L11.1907 18.8867H9.60615C9.21002 18.8867 8.88219 19.2112 8.88219 19.6244C8.88219 20.0273 9.21002 20.362 9.60615 20.362H10.7092L10.3608 21.4343C10.3335 21.5026 10.3233 21.5811 10.313 21.6494H9.60615C9.21002 21.6494 8.88219 21.9841 8.88219 22.387C8.88219 22.79 9.21002 23.1246 9.60615 23.1246H11.3921C11.4126 23.1246 11.4297 23.1246 11.4502 23.1144C11.4775 23.1246 11.5185 23.1246 11.5561 23.1246C11.6824 23.1246 11.8156 23.1042 11.9522 23.0666L14.708 22.1343C14.8719 22.0865 15.0188 21.9977 15.152 21.8782L15.2373 21.7997C17.5936 19.6756 20.4553 17.0905 20.7149 16.8378C21.2168 16.3392 21.49 15.7075 21.49 15.0108C21.49 14.3244 21.21 13.6278 20.7251 13.136Z" fill="#86888C"/>
</svg>
