<svg width="20" height="20" viewBox="0 0 20 20" fill="none" xmlns="http://www.w3.org/2000/svg">
<path fill-rule="evenodd" clip-rule="evenodd" d="M14.6363 6.59875L11.3261 3.3432V4.79112C11.3261 5.32157 11.4991 5.78145 11.8293 6.10245C12.1571 6.42345 12.6283 6.60102 13.1816 6.60102H14.6363V6.59875ZM15.7883 6.37109C15.9226 6.50085 16 6.68526 16 6.87422V16.8799C16 17.49 15.4855 18 14.8731 18H5.12009C4.52134 18 4 17.4741 4 16.8799V3.12009C4 2.53728 4.535 2 5.12009 2H11.0598C11.2464 2 11.4195 2.07057 11.5492 2.20262L15.7883 6.37109ZM13.1338 11.1861C13.0108 11.3045 11.6585 12.5293 9.51394 14.4622L7.89755 15.0245L8.42573 13.4263C8.74217 13.144 11.8793 10.3256 12.0842 10.1184C12.2777 9.9226 12.4826 9.88162 12.6329 9.89528C12.8196 9.90211 12.9994 9.98634 13.136 10.1252C13.2772 10.2618 13.3614 10.4735 13.3614 10.6693C13.3614 10.8651 13.2817 11.0359 13.1338 11.1861ZM13.8167 9.42402C13.2248 8.82072 12.1616 8.6568 11.4013 9.42402C11.3808 9.44223 11.3307 9.48776 11.2533 9.56744H6.4041C6.14001 9.56744 5.92146 9.79055 5.92146 10.0592C5.92146 10.3347 6.14001 10.5509 6.4041 10.5509H10.1719C9.87592 10.8127 9.55265 11.1087 9.2066 11.4161H6.4041C6.14001 11.4161 5.92146 11.6323 5.92146 11.9078C5.92146 12.1764 6.14001 12.3995 6.4041 12.3995H8.11155L7.76323 12.7137C7.65396 12.8116 7.56972 12.9437 7.51736 13.0871L7.46044 13.2578H6.4041C6.14001 13.2578 5.92146 13.4741 5.92146 13.7496C5.92146 14.0182 6.14001 14.2413 6.4041 14.2413H7.13944L6.90723 14.9562C6.88902 15.0017 6.88219 15.0541 6.87536 15.0996H6.4041C6.14001 15.0996 5.92146 15.3227 5.92146 15.5913C5.92146 15.86 6.14001 16.0831 6.4041 16.0831H7.59476C7.60842 16.0831 7.61981 16.0831 7.63347 16.0763C7.65168 16.0831 7.679 16.0831 7.70404 16.0831C7.78828 16.0831 7.87706 16.0694 7.96813 16.0444L9.80535 15.4229C9.91463 15.391 10.0125 15.3318 10.1013 15.2521L10.1582 15.1998C11.7291 13.7837 13.6369 12.0603 13.8099 11.8919C14.1446 11.5595 14.3267 11.1383 14.3267 10.6739C14.3267 10.2163 14.14 9.75185 13.8167 9.42402Z" fill="#86888C"/>
</svg>
