<svg width="29" height="28" viewBox="0 0 29 28" fill="none" xmlns="http://www.w3.org/2000/svg">
<path fill-rule="evenodd" clip-rule="evenodd" d="M3.70038 13.2911C3.70038 16.85 5.37086 18.5065 8.95096 18.5065C12.5311 18.5065 14.2015 16.85 14.2015 13.2911C14.2015 9.73216 12.5311 8.07566 8.95096 8.07566C5.37086 8.07566 3.70038 9.73216 3.70038 13.2911ZM25.9564 21.1569C26.2024 21.3516 26.2912 21.676 26.1819 21.9698C26.0828 22.2635 25.8095 22.4616 25.4918 22.4616H19.1173C19.0764 23.131 18.8919 24.1181 18.1916 24.8934C17.5391 25.6277 16.5928 26 15.3904 26C14.1845 26 13.2382 25.6277 12.5857 24.8934C11.8854 24.1181 11.7078 23.1276 11.6702 22.4616H5.29571C4.98142 22.4616 4.70472 22.2669 4.60223 21.9698C4.49633 21.676 4.58515 21.3516 4.83111 21.1569C5.33328 20.7436 5.75005 20.2074 6.09508 19.5687C3.61839 18.7558 2.22803 16.7065 2.22803 13.2945C2.22803 9.23692 4.20255 7.10908 7.646 6.69581C9.48388 1.86977 14.8711 1.97906 15.3938 2.0098C15.8379 1.97906 19.0559 1.89367 21.3925 4.05908C22.9502 5.5004 23.7428 7.58042 23.7428 10.2547V14.8929C23.7257 14.9783 23.5105 19.1657 25.9564 21.1569ZM11.0211 16.2694C10.8332 16.2694 10.6419 16.1976 10.4985 16.0542L8.42829 13.9981C8.28823 13.8615 8.20966 13.6736 8.20966 13.4789V10.6953C8.20966 10.2889 8.54103 9.96099 8.95096 9.96099C9.3609 9.96099 9.69226 10.2889 9.69226 10.6953V13.1749L11.5472 15.0159C11.8376 15.3028 11.8376 15.7673 11.5472 16.0542C11.4003 16.1976 11.2124 16.2694 11.0211 16.2694Z" fill="#86888C"/>
</svg>
