<svg width="25" height="24" viewBox="0 0 25 24" fill="none" xmlns="http://www.w3.org/2000/svg">
<path fill-rule="evenodd" clip-rule="evenodd" d="M3.45499 11.4092C3.45499 14.375 4.84706 15.7554 7.83047 15.7554C10.8139 15.7554 12.206 14.375 12.206 11.4092C12.206 8.44347 10.8139 7.06305 7.83047 7.06305C4.84706 7.06305 3.45499 8.44347 3.45499 11.4092ZM22.0017 17.9641C22.2067 18.1263 22.2807 18.3967 22.1896 18.6415C22.107 18.8862 21.8793 19.0513 21.6145 19.0513H16.3025C16.2683 19.6092 16.1146 20.4317 15.531 21.0778C14.9873 21.6898 14.1987 22 13.1966 22C12.1917 22 11.4032 21.6898 10.8594 21.0778C10.2758 20.4317 10.1278 19.6063 10.0965 19.0513H4.78443C4.52252 19.0513 4.29194 18.8891 4.20653 18.6415C4.11828 18.3967 4.1923 18.1263 4.39727 17.9641C4.81574 17.6197 5.16305 17.1728 5.45057 16.6406C3.38666 15.9632 2.22803 14.2554 2.22803 11.4121C2.22803 8.03076 3.87346 6.25757 6.74301 5.91318C8.27457 1.89147 12.7639 1.98255 13.1995 2.00817C13.5696 1.98255 16.2512 1.91139 18.1984 3.7159C19.4965 4.917 20.157 6.65035 20.157 8.87894V12.7441C20.1428 12.8153 19.9634 16.3047 22.0017 17.9641ZM9.55561 13.8911C9.39904 13.8911 9.23962 13.8314 9.12006 13.7118L7.39492 11.9984C7.2782 11.8845 7.21272 11.728 7.21272 11.5658V9.2461C7.21272 8.9074 7.48886 8.63416 7.83047 8.63416C8.17208 8.63416 8.44822 8.9074 8.44822 9.2461V11.3125L9.99402 12.8466C10.236 13.0856 10.236 13.4727 9.99402 13.7118C9.87161 13.8314 9.71503 13.8911 9.55561 13.8911Z" fill="#86888C"/>
</svg>
