<svg width="25" height="24" viewBox="0 0 25 24" fill="none" xmlns="http://www.w3.org/2000/svg">
<path fill-rule="evenodd" clip-rule="evenodd" d="M3.48874 11.2785C3.48874 14.9718 6.0942 15.5608 7.64762 15.5751H8.12003C9.68215 15.5523 12.2876 14.9548 12.2876 11.3098C12.2876 7.65914 9.65896 7.05306 8.09394 7.01323H7.59835C6.05942 7.02176 3.48874 7.59369 3.48874 11.2785ZM22.3704 17.9624C22.5732 18.1246 22.6486 18.4034 22.5646 18.651C22.4718 18.8957 22.2342 19.055 21.9675 19.0522H16.545C16.5045 19.607 16.3422 20.4322 15.7567 21.0781C15.1945 21.6898 14.3859 22 13.3715 22C12.3456 22 11.5399 21.6898 10.9776 21.0781C10.3893 20.4322 10.2299 19.607 10.198 19.0522H4.77843C4.51179 19.0578 4.27414 18.8957 4.1814 18.651C4.08866 18.4062 4.16401 18.1274 4.37268 17.9652C4.85088 17.5896 5.24793 17.0661 5.55804 16.4458C3.99302 15.8938 2.22803 14.5621 2.22803 11.2785C2.22803 7.01323 5.16968 6.04863 6.80135 5.84661C8.38666 1.90003 12.9339 1.9797 13.3715 2.00531C13.757 1.98823 16.49 1.91425 18.4723 3.71255C19.7997 4.91332 20.4721 6.65471 20.4721 8.88551V12.7496C20.4721 12.8122 20.2779 16.3035 22.3704 17.9624ZM8.51418 14.0329C8.51128 14.3715 8.23016 14.6475 7.88238 14.6446C7.53749 14.6446 7.25637 14.3715 7.25347 14.0329V11.8931H5.06535C4.71756 11.8931 4.43644 11.6199 4.43644 11.2785C4.43644 10.9399 4.71756 10.6667 5.06535 10.6667H7.25637V8.55829C7.25927 8.21968 7.54039 7.94368 7.88527 7.94652C8.23306 7.94652 8.51708 8.21968 8.51708 8.55829V10.6667H10.711C11.0588 10.6667 11.3399 10.9427 11.3399 11.2813C11.337 11.6199 11.0559 11.896 10.711 11.896H8.51708V14.0329H8.51418Z" fill="#86888C"/>
</svg>
