<svg width="25" height="24" viewBox="0 0 25 24" fill="none" xmlns="http://www.w3.org/2000/svg">
<path fill-rule="evenodd" clip-rule="evenodd" d="M12.4966 20.7737C13.1529 20.7737 13.6279 20.6058 13.9475 20.2644C14.2814 19.9059 14.3879 19.4136 14.4196 19.0551H10.5765C10.6053 19.4108 10.7089 19.9059 11.0428 20.2644C11.3624 20.6087 11.8374 20.7737 12.4966 20.7737ZM4.38149 2.20541L21.6135 20.9472C21.8409 21.1919 21.8236 21.5732 21.5761 21.798L21.5617 21.8122C21.2997 22.037 20.9024 22.0142 20.6693 21.761L18.1821 19.058H15.692C15.6545 19.61 15.4933 20.4351 14.9003 21.0781C14.3361 21.6899 13.5272 22 12.4995 22C11.4689 22 10.66 21.6899 10.0957 21.0781C9.50273 20.4351 9.3444 19.61 9.30985 19.058H3.86044C3.5956 19.0608 3.35667 18.8958 3.26455 18.6511C3.17531 18.4064 3.25303 18.1333 3.4603 17.9739C5.56752 16.3066 5.36889 12.8382 5.36601 12.8012L5.36313 8.90603C5.36313 8.54468 5.38616 8.20041 5.42359 7.86751C5.4351 7.77646 5.44662 7.68826 5.45813 7.60005C5.46965 7.51469 5.4754 7.42649 5.4898 7.34113L5.50419 7.3582C5.59055 6.80906 5.74024 6.27131 5.95039 5.75631L3.43727 3.01631C3.20985 2.77162 3.22713 2.39035 3.4747 2.16557L3.48909 2.15135C3.75393 1.92941 4.14831 1.95502 4.38149 2.20541ZM21.5386 17.9682C21.7459 18.1304 21.8236 18.4036 21.7344 18.6483C21.7056 18.7222 21.6595 18.7905 21.6048 18.8474L7.56823 3.58252C9.53439 1.9664 12.1137 2.02046 12.4995 2.04038C12.8967 2.02046 15.6373 1.95787 17.6236 3.7447C18.9564 4.94256 19.6329 6.67818 19.6329 8.90319V12.7585C19.63 12.8325 19.4401 16.3123 21.5386 17.9682Z" fill="#86888C"/>
</svg>
