<svg width="21" height="20" viewBox="0 0 21 20" fill="none" xmlns="http://www.w3.org/2000/svg">
<path fill-rule="evenodd" clip-rule="evenodd" d="M3.23659 9.4228C3.23659 12.3775 5.32096 12.8487 6.5637 12.8601H6.94163C8.19132 12.8418 10.2757 12.3638 10.2757 9.44784C10.2757 6.52731 8.17277 6.04245 6.92076 6.01058H6.52429C5.29314 6.01741 3.23659 6.47495 3.23659 9.4228ZM18.3419 14.7699C18.5042 14.8996 18.5645 15.1227 18.4972 15.3208C18.4231 15.5165 18.2329 15.644 18.0196 15.6417H13.6816C13.6492 16.0856 13.5193 16.7457 13.051 17.2625C12.6012 17.7519 11.9543 18 11.1428 18C10.3221 18 9.67751 17.7519 9.22771 17.2625C8.75705 16.7457 8.62953 16.0856 8.60402 15.6417H4.26835C4.05504 15.6463 3.86492 15.5165 3.79073 15.3208C3.71653 15.125 3.77681 14.9019 3.94375 14.7722C4.32631 14.4717 4.64395 14.0528 4.89203 13.5566C3.64002 13.115 2.22803 12.0497 2.22803 9.4228C2.22803 6.01058 4.58135 5.23891 5.88669 5.07729C7.15493 1.92002 10.7927 1.98376 11.1428 2.00425C11.4512 1.99059 13.6376 1.9314 15.2235 3.37004C16.2854 4.33065 16.8233 5.72376 16.8233 7.50841V10.5997C16.8233 10.6497 16.6679 13.4428 18.3419 14.7699ZM7.25695 11.6263C7.25463 11.8972 7.02973 12.118 6.75151 12.1157C6.4756 12.1157 6.2507 11.8972 6.24838 11.6263V9.91448H4.49788C4.21966 9.91448 3.99476 9.69596 3.99476 9.4228C3.99476 9.15191 4.21966 8.93339 4.49788 8.93339H6.2507V7.24663C6.25302 6.97575 6.47792 6.75494 6.75382 6.75722C7.03205 6.75722 7.25927 6.97575 7.25927 7.24663V8.93339H9.01441C9.29263 8.93339 9.51753 9.15419 9.51753 9.42507C9.51521 9.69596 9.29031 9.91676 9.01441 9.91676H7.25927V11.6263H7.25695Z" fill="#86888C"/>
</svg>
