<svg width="41" height="40" viewBox="0 0 41 40" fill="none" xmlns="http://www.w3.org/2000/svg">
<path fill-rule="evenodd" clip-rule="evenodd" d="M4.4973 18.7013C4.4973 25.3493 9.18714 26.4095 11.9833 26.4351H12.8336C15.6454 26.3941 20.3353 25.3186 20.3353 18.7576C20.3353 12.1864 15.6037 11.0955 12.7867 11.0238H11.8946C9.12454 11.0392 4.4973 12.0686 4.4973 18.7013ZM38.4843 30.7323C38.8494 31.0242 38.9851 31.5261 38.8338 31.9717C38.6668 32.4122 38.2391 32.699 37.7591 32.6939H27.9986C27.9256 33.6926 27.6335 35.1779 26.5797 36.3406C25.5676 37.4417 24.1122 38 22.2863 38C20.4396 38 18.9894 37.4417 17.9773 36.3406C16.9183 35.1779 16.6314 33.6926 16.574 32.6939H6.81874C6.33881 32.7041 5.91103 32.4122 5.7441 31.9717C5.57716 31.5312 5.7128 31.0293 6.0884 30.7374C6.94916 30.0613 7.66385 29.1189 8.22204 28.0024C5.40501 27.0088 2.22803 24.6118 2.22803 18.7013C2.22803 11.0238 7.523 9.28754 10.46 8.9239C13.3136 1.82005 21.4986 1.96346 22.2863 2.00955C22.9802 1.97882 27.8995 1.84566 31.4678 5.0826C33.857 7.24397 35.0673 10.3785 35.0673 14.3939V21.3492C35.0673 21.4619 34.7178 27.7463 38.4843 30.7323ZM13.5431 23.6591C13.5379 24.2686 13.0319 24.7654 12.4059 24.7603C11.7851 24.7603 11.279 24.2686 11.2738 23.6591V19.8076H7.3352C6.70919 19.8076 6.20317 19.3159 6.20317 18.7013C6.20317 18.0918 6.70919 17.6001 7.3352 17.6001H11.279V13.8049C11.2843 13.1954 11.7903 12.6986 12.4111 12.7037C13.0371 12.7037 13.5483 13.1954 13.5483 13.8049V17.6001H17.4974C18.1234 17.6001 18.6294 18.0969 18.6294 18.7064C18.6242 19.3159 18.1182 19.8127 17.4974 19.8127H13.5483V23.6591H13.5431Z" fill="#86888C"/>
</svg>
