<svg width="20" height="20" viewBox="0 0 20 20" fill="none" xmlns="http://www.w3.org/2000/svg">
<path fill-rule="evenodd" clip-rule="evenodd" d="M11.8167 9.20492L11.3865 9.63519L11.8167 9.20492L12.1036 8.91806L13.2965 7.7274L12.1036 8.91806L13.2965 7.7274L12.6204 7.02392L10.7399 8.9044C10.2368 8.51966 9.5128 8.25329 8.46784 8.22825C8.33808 8.22597 7.96471 8.2237 7.96471 8.2237C4.65908 8.25329 4.65908 10.9374 4.65908 11.8185C4.65908 12.7063 4.65908 15.4064 8.02163 15.4542L8.17644 15.4565L8.51337 15.4542C11.8873 15.395 11.8873 12.7314 11.8873 11.8572C11.8873 11.3973 11.8828 10.4502 11.3933 9.63747L11.8167 9.20492ZM13.2965 7.7274C14.0273 8.65398 14.5441 9.96758 14.5441 11.8549C14.5441 17.6375 9.7564 18.0882 8.55891 18.1087C8.44508 18.111 8.31759 18.1133 8.18782 18.1133C8.11952 18.1133 8.05122 18.1133 7.9852 18.111C6.72624 18.0928 2 17.6375 2 11.8162C2 6.004 6.68298 5.57373 7.94195 5.56234H8.07171C8.23108 5.56234 8.39499 5.56462 8.53614 5.56917C9.24644 5.58511 11.1474 5.76268 12.6227 7.02392L12.247 7.39956L12.6227 7.02392L13.4149 6.23167V3.6682C13.4149 3.58169 13.4445 3.50429 13.4832 3.43144C13.4855 3.42688 13.4878 3.42461 13.49 3.42005C13.5196 3.37225 13.5515 3.33127 13.5948 3.29484C13.5993 3.29029 13.6016 3.28346 13.6084 3.2789L14.8833 2.26126C14.8947 2.25215 14.9106 2.24988 14.9243 2.24077C15.0108 2.16337 15.1224 2.11328 15.2499 2.11328C15.5185 2.11328 15.7393 2.33184 15.7393 2.60275V3.93912C15.926 3.82301 16.1719 3.83895 16.3358 4.00059C16.4724 4.13719 16.5065 4.33297 16.4474 4.50372L17.5151 4.5151C17.7837 4.51738 18 4.73821 17.9977 5.00913C17.9977 5.04328 17.9841 5.0706 17.9772 5.10247C17.975 5.1184 17.9704 5.13662 17.9658 5.15255C17.9567 5.18215 17.9454 5.20947 17.9294 5.23679C17.918 5.25955 17.9135 5.2846 17.8998 5.30509L16.9755 6.64373C16.971 6.65056 16.9641 6.65056 16.9596 6.65739C16.8708 6.7826 16.7319 6.87139 16.568 6.87139H14.1525L13.2965 7.7274L12.1036 8.91806L13.2965 7.7274ZM16.1833 6.01766L16.7274 5.34606L15.6892 5.33468L15.0063 6.01766H16.1833ZM14.881 4.7587V3.48608L14.2686 4.02336V5.37111L14.881 4.7587ZM7.77348 10.4958C7.50484 10.5185 7.30677 10.7553 7.32954 11.0239L7.45248 12.4331C7.45703 12.481 7.46841 12.5265 7.48435 12.5697L7.49118 12.5834C7.51167 12.6312 7.54126 12.6722 7.57314 12.7109C7.58452 12.7246 7.5959 12.7337 7.60956 12.745C7.64143 12.7746 7.67558 12.7974 7.71429 12.8179C7.72795 12.8247 7.73933 12.8338 7.75299 12.8384C7.75982 12.8407 7.76437 12.8452 7.7712 12.8475C7.81218 12.8634 7.85543 12.8657 7.89869 12.8703C7.91007 12.8703 7.91918 12.8771 7.93056 12.8771L9.50825 12.9044H9.51736C9.78372 12.9044 10.0023 12.6904 10.0068 12.424C10.0114 12.1554 9.79738 11.9323 9.52646 11.9277L9.09846 11.9209L10.667 10.3523C10.8469 10.7667 10.9038 11.2744 10.9038 11.8549C10.9038 13.4007 10.494 14.4388 8.49744 14.4753L8.17871 14.4775L8.02846 14.4753C6.03643 14.4479 5.62891 13.3916 5.62891 11.8162C5.62891 10.259 6.02504 9.2163 7.96016 9.19809C8.01024 9.19809 8.32214 9.20036 8.43825 9.20264C9.1531 9.21857 9.66534 9.35972 10.0364 9.60104L8.33352 11.3039L8.30165 10.9397C8.28116 10.6711 8.05805 10.4798 7.77348 10.4958Z" fill="#86888C"/>
</svg>
