<svg width="24" height="24" viewBox="0 0 24 24" fill="none" xmlns="http://www.w3.org/2000/svg">
<path fill-rule="evenodd" clip-rule="evenodd" d="M16.2709 10.9778L15.7331 11.5157L16.2709 10.9778L16.6295 10.6193L18.1207 9.13093L16.6295 10.6193L18.1207 9.13093L17.2755 8.25159L14.9249 10.6022C14.296 10.1212 13.391 9.7883 12.0848 9.75699C11.9226 9.75415 11.4559 9.7513 11.4559 9.7513C7.32385 9.7883 7.32385 13.1434 7.32385 14.2448C7.32385 15.3546 7.32385 18.7297 11.527 18.7894L11.7205 18.7923L12.1417 18.7894C16.3591 18.7154 16.3591 15.3859 16.3591 14.2931C16.3591 13.7183 16.3534 12.5345 15.7416 11.5185L16.2709 10.9778ZM18.1207 9.13093C19.0341 10.2891 19.6801 11.9312 19.6801 14.2903C19.6801 21.5185 13.6955 22.082 12.1986 22.1076C12.0563 22.1104 11.897 22.1133 11.7348 22.1133C11.6494 22.1133 11.564 22.1133 11.4815 22.1104C9.9078 22.0877 4 21.5185 4 14.2419C4 6.97669 9.85373 6.43884 11.4274 6.42461H11.5896C11.7888 6.42461 11.9937 6.42745 12.1702 6.43315C13.0581 6.45306 15.4343 6.67503 17.2783 8.25159L16.8088 8.72114L17.2783 8.25159L18.2686 7.26126V4.05694C18.2686 3.9488 18.3056 3.85204 18.354 3.76098C18.3569 3.75528 18.3597 3.75244 18.3625 3.74675C18.3995 3.68699 18.4394 3.63576 18.4935 3.59023C18.4991 3.58454 18.502 3.576 18.5105 3.57031L20.1042 2.29826C20.1184 2.28687 20.1383 2.28403 20.1554 2.27264C20.2635 2.17589 20.403 2.11328 20.5623 2.11328C20.8981 2.11328 21.1742 2.38647 21.1742 2.72512V4.39558C21.4075 4.25045 21.7149 4.27037 21.9198 4.47242C22.0905 4.64316 22.1332 4.8879 22.0592 5.10133L23.3939 5.11556C23.7297 5.1184 24 5.39444 23.9972 5.73309C23.9972 5.77577 23.9801 5.80992 23.9715 5.84976C23.9687 5.86968 23.963 5.89245 23.9573 5.91237C23.9459 5.94937 23.9317 5.98351 23.9118 6.01766C23.8976 6.04612 23.8919 6.07742 23.8748 6.10304L22.7194 7.77634C22.7137 7.78488 22.7052 7.78488 22.6995 7.79342C22.5885 7.94993 22.4149 8.06092 22.21 8.06092H19.1907L18.1207 9.13093L16.6295 10.6193L18.1207 9.13093ZM21.7291 6.99376L22.4092 6.15426L21.1116 6.14003L20.2578 6.99376H21.7291ZM20.1013 5.42005V3.82927L19.3358 4.50087V6.18556L20.1013 5.42005ZM11.2168 12.5914C10.881 12.6198 10.6335 12.9158 10.6619 13.2516L10.8156 15.0131C10.8213 15.0729 10.8355 15.1298 10.8554 15.1839L10.864 15.2009C10.8896 15.2607 10.9266 15.3119 10.9664 15.3603C10.9806 15.3774 10.9949 15.3888 11.012 15.403C11.0518 15.44 11.0945 15.4684 11.1429 15.494C11.1599 15.5026 11.1742 15.514 11.1912 15.5197C11.1998 15.5225 11.2055 15.5282 11.214 15.531C11.2652 15.551 11.3193 15.5538 11.3734 15.5595C11.3876 15.5595 11.399 15.568 11.4132 15.568L13.3853 15.6022H13.3967C13.7297 15.6022 14.0028 15.3347 14.0085 15.0017C14.0142 14.6659 13.7467 14.387 13.4081 14.3814L12.8731 14.3728L14.8338 12.4121C15.0586 12.93 15.1298 13.5646 15.1298 14.2903C15.1298 16.2226 14.6175 17.5202 12.1218 17.5658L11.7234 17.5686L11.5356 17.5658C9.04553 17.5316 8.53614 16.2112 8.53614 14.2419C8.53614 12.2954 9.0313 10.9921 11.4502 10.9693C11.5128 10.9693 11.9027 10.9721 12.0478 10.975C12.9414 10.9949 13.5817 11.1713 14.0455 11.473L11.9169 13.6016L11.8771 13.1463C11.8515 12.8105 11.5726 12.5714 11.2168 12.5914Z" fill="#86888C"/>
</svg>
