<svg width="40" height="40" viewBox="0 0 40 40" fill="none" xmlns="http://www.w3.org/2000/svg">
<path d="M27.6347 27.0395C27.4175 26.8677 27.0992 26.9081 26.9275 27.1253L22.7451 32.4695C22.5733 32.6867 22.6138 33.005 22.831 33.1767C23.0482 33.3484 23.3664 33.308 23.5381 33.0908L27.7205 27.7466C27.8973 27.5294 27.8569 27.2112 27.6347 27.0395C27.6397 27.0395 27.6397 27.0395 27.6347 27.0395ZM24.8262 28.1406C24.8262 27.3274 24.3211 26.8223 23.5078 26.8223C22.6946 26.8223 22.1895 27.3274 22.1895 28.1406C22.1895 28.9539 22.6946 29.459 23.5078 29.459C24.3211 29.459 24.8262 28.9488 24.8262 28.1406ZM23.2047 28.1406C23.2047 27.8881 23.2553 27.8325 23.5129 27.8325C23.7705 27.8325 23.821 27.883 23.821 28.1406C23.821 28.3982 23.7705 28.4488 23.5129 28.4488C23.2553 28.4488 23.2047 28.3932 23.2047 28.1406ZM26.9174 30.7218C26.1041 30.7218 25.599 31.2269 25.599 32.0402C25.599 32.8534 26.1041 33.3585 26.9174 33.3585C27.7306 33.3585 28.2358 32.8534 28.2358 32.0402C28.2358 31.2269 27.7256 30.7218 26.9174 30.7218ZM26.9174 32.3432C26.6648 32.3432 26.6093 32.2927 26.6093 32.0351C26.6093 31.7775 26.6598 31.727 26.9174 31.727C27.175 31.727 27.2255 31.7775 27.2255 32.0351C27.2255 32.2927 27.1699 32.3432 26.9174 32.3432Z" fill="#86888C"/>
<path d="M32.8776 30.105C32.8776 29.3624 32.1907 28.9886 31.6401 28.6856C31.5391 28.63 31.3926 28.5492 31.2815 28.4785C31.3471 28.3572 31.4381 28.2057 31.4987 28.0996C31.8169 27.5692 32.2159 26.9126 31.8523 26.2812C31.4886 25.6498 30.7107 25.6649 30.0843 25.6801C29.9631 25.6801 29.7914 25.6851 29.655 25.6801C29.6499 25.5437 29.655 25.372 29.655 25.2507C29.6701 24.6294 29.6853 23.8516 29.0539 23.4828C28.4225 23.1141 27.7658 23.5182 27.2354 23.8364C27.1294 23.9021 26.9778 23.993 26.8566 24.0536C26.7859 23.9425 26.7051 23.796 26.6495 23.695C26.5182 23.4576 26.3717 23.1898 26.1898 22.9676V19.6843C26.1898 16.2949 25.2655 13.6835 23.442 11.9256C21.866 10.4103 19.6586 9.56167 16.8603 9.40508V8.71811C16.8603 7.47552 16.4511 6.49558 15.6379 5.81367C14.7943 5.10145 13.5719 4.75291 11.9101 4.75291H9.92999C7.02049 4.75291 7.02049 3.98513 7.02049 3.01024C7.02049 2.45461 6.56588 2 6.01024 2C5.45461 2 5 2.45461 5 3.01024C5 4.36397 5.4142 5.31865 6.27291 5.93995C7.06595 6.51579 8.19742 6.7734 9.93504 6.7734H11.9252C14.8549 6.7734 14.8549 8.0362 14.8549 8.71811V9.41013C12.0919 9.57682 9.89968 10.4204 8.33885 11.9256C6.51031 13.6885 5.58594 16.3 5.58594 19.6944V27.6955C5.58594 31.0849 6.51031 33.6964 8.3338 35.4542C10.0866 37.1463 12.6324 38 15.8904 38C18.1231 38 20.0274 37.5959 21.5629 36.7978C22.1438 37.0251 22.7399 36.6665 23.2298 36.3685C23.3359 36.3028 23.4874 36.2119 23.6087 36.1513C23.6794 36.2624 23.7602 36.4089 23.8158 36.5099C24.1188 37.0605 24.4977 37.7474 25.2352 37.7474C25.9726 37.7474 26.3515 37.0605 26.6546 36.5099C26.7101 36.4089 26.7909 36.2624 26.8617 36.1513C26.9829 36.2169 27.1344 36.3078 27.2405 36.3685C27.7709 36.6867 28.4275 37.0857 29.0589 36.722C29.6903 36.3584 29.6752 35.5805 29.66 34.9541C29.66 34.8329 29.655 34.6611 29.66 34.5248C29.7964 34.5197 29.9682 34.5248 30.0894 34.5248C30.7107 34.5399 31.4886 34.5551 31.8573 33.9237C32.226 33.2923 31.8219 32.6356 31.5037 32.1052C31.4381 31.9992 31.3471 31.8476 31.2865 31.7264C31.3976 31.6557 31.5441 31.5749 31.6452 31.5193C32.1907 31.2263 32.8776 30.8475 32.8776 30.105ZM14.8802 14.3502C14.8802 13.7946 15.3348 13.34 15.8904 13.34C16.4461 13.34 16.9007 13.7946 16.9007 14.3502V18.8306C16.9007 19.3863 16.4461 19.8409 15.8904 19.8409C15.3348 19.8409 14.8802 19.3863 14.8802 18.8306V14.3502ZM15.8904 22.7201C12.7587 22.7251 9.62691 22.513 6.52547 22.0786C6.24765 22.0331 6.06076 21.7755 6.10622 21.4977C6.15168 21.23 6.39414 21.0431 6.6669 21.0784C9.72289 21.5027 12.8041 21.7149 15.8904 21.7098C18.9767 21.7149 22.058 21.5027 25.1139 21.0784C25.3918 21.0431 25.6443 21.2451 25.6746 21.5179C25.7049 21.7856 25.5231 22.0331 25.2554 22.0786C22.1539 22.513 19.0222 22.7251 15.8904 22.7201ZM29.8116 31.3324C29.6903 31.7921 30.6854 32.7164 30.448 33.1155C30.2106 33.5145 28.9124 33.1205 28.5841 33.4539C28.2558 33.7873 28.6548 35.0854 28.2457 35.3178C27.8365 35.5502 26.9223 34.5551 26.4626 34.6814C26.0181 34.7975 25.715 36.126 25.2352 36.126C24.7553 36.126 24.4522 34.8026 24.0077 34.6814C23.6188 34.5803 22.9015 35.2673 22.4469 35.3481C22.4216 35.2824 22.3964 35.2218 22.361 35.1612C22.2802 35.0248 22.164 34.9087 22.0327 34.8228C22.0024 34.3429 22.1135 33.6762 21.8862 33.4539C21.5528 33.1205 20.2547 33.5246 20.0223 33.1155C19.79 32.7063 20.785 31.7921 20.6588 31.3324C20.5375 30.8879 19.2141 30.5848 19.2141 30.105C19.2141 29.6251 20.5375 29.322 20.6588 28.8775C20.78 28.4178 19.7849 27.4935 20.0223 27.0944C20.2597 26.6954 21.5579 27.0894 21.8862 26.756C22.2145 26.4226 21.8155 25.1245 22.2246 24.8921C22.6338 24.6597 23.5481 25.6548 24.0077 25.5286C24.4068 25.4225 24.6896 24.3314 25.0988 24.1193C25.1291 24.1193 25.1594 24.1243 25.1897 24.1243C25.2453 24.1243 25.3008 24.1193 25.3564 24.1092C25.7756 24.291 26.0585 25.4174 26.4677 25.5286C26.9273 25.6498 27.8517 24.6547 28.2507 24.8921C28.6498 25.1295 28.2558 26.4277 28.5892 26.756C28.9226 27.0843 30.2207 26.6853 30.4531 27.0944C30.6854 27.5036 29.6903 28.4229 29.8166 28.8775C29.9328 29.322 31.2613 29.6251 31.2613 30.105C31.2613 30.5848 29.9277 30.8879 29.8116 31.3324Z" fill="#86888C"/>
</svg>
