<svg width="28" height="28" viewBox="0 0 28 28" fill="none" xmlns="http://www.w3.org/2000/svg">
<path fill-rule="evenodd" clip-rule="evenodd" d="M6.40865 12.9637L21.6153 12.9603L15.0415 6.40461C14.7274 6.56167 14.3756 6.66069 14 6.66069C13.6244 6.66069 13.276 6.56167 12.9619 6.40461L6.40865 12.9637ZM20.9835 21.1037V17.4639C20.9835 17.1908 20.7649 16.9757 20.4952 16.9757H20.3483C20.0785 16.9757 19.86 17.1942 19.86 17.4639V19.1609L18.5589 17.1908C18.4667 17.0576 18.3164 16.9723 18.1525 16.9723H18.0364C17.7666 16.9723 17.5481 17.1908 17.5481 17.4605V21.1003C17.5481 21.37 17.7666 21.5886 18.0364 21.5886H18.1867C18.4565 21.5886 18.675 21.37 18.675 21.1003V19.4033L19.9727 21.37C20.0615 21.5066 20.2151 21.5886 20.3791 21.5886H20.502C20.7649 21.592 20.9835 21.3735 20.9835 21.1037ZM16.9129 21.1037V20.9603C16.9129 20.6906 16.6944 20.472 16.4246 20.472H15.2772V19.8165H16.0831C16.3529 19.8165 16.5714 19.598 16.5714 19.3282V19.1848C16.5714 18.9151 16.3529 18.6965 16.0831 18.6965H15.2772V18.099H16.3392C16.568 18.099 16.7661 17.9385 16.8173 17.7166L16.848 17.5732C16.8788 17.4298 16.8446 17.2761 16.7524 17.1601C16.6602 17.0474 16.5202 16.9791 16.3699 16.9791H14.6318C14.362 16.9791 14.1434 17.1976 14.1434 17.4674V21.1071C14.1434 21.3769 14.362 21.5954 14.6318 21.5954H16.4246C16.6944 21.592 16.9129 21.3735 16.9129 21.1037ZM13.1702 19.7072C13.416 19.4272 13.539 19.0551 13.539 18.56C13.539 18.058 13.4058 17.6654 13.1394 17.3854C12.8799 17.1088 12.5009 16.9757 11.9784 16.9757H10.9676C10.6978 16.9757 10.4792 17.1942 10.4792 17.4639V21.1037C10.4792 21.3735 10.6978 21.592 10.9676 21.592H11.1281C11.3978 21.592 11.6164 21.3735 11.6164 21.1037V20.1443H12.0911C12.5555 20.1443 12.9209 19.994 13.1702 19.7072ZM8.0239 21.6671C8.69323 21.6671 9.81673 21.3598 9.81673 19.2907C9.81673 17.2147 8.69323 16.9074 8.0239 16.9074C7.35117 16.9074 6.22766 17.2181 6.22766 19.2907C6.22766 21.3564 7.35117 21.6671 8.0239 21.6671ZM14 3.4682C13.5253 3.4682 13.136 3.85745 13.136 4.33205C13.136 4.80666 13.5219 5.1959 14 5.1959C14.4781 5.1959 14.864 4.80666 14.864 4.33205C14.864 3.85745 14.4781 3.4682 14 3.4682ZM25.9761 16.0128L26 23.0977C26 23.8728 25.6995 24.6001 25.1531 25.1464C24.6067 25.6927 23.8828 25.9932 23.1076 25.9966L4.8856 26C4.02163 25.9932 3.26352 25.6859 2.74787 25.1362C2.2288 24.5796 1.9761 23.825 2.0239 22.9509L2 15.866C2 15.0909 2.30051 14.3636 2.8469 13.8139C3.24303 13.4213 3.73136 13.1583 4.26067 13.0423L11.9271 5.37004C11.7701 5.05591 11.671 4.70764 11.671 4.33205C11.671 3.04481 12.716 2 14 2C15.284 2 16.329 3.04481 16.329 4.33205C16.329 4.70764 16.2334 5.05591 16.0763 5.37004L23.753 13.0252C24.3472 13.1413 24.8663 13.4144 25.2521 13.8242C25.7712 14.3807 26.0239 15.1387 25.9761 16.0128ZM8.0239 18.041C8.24929 18.041 8.66932 18.041 8.66932 19.2872C8.66932 20.5233 8.26636 20.5233 8.0239 20.5233C7.78145 20.5233 7.37507 20.5233 7.37507 19.2872C7.37507 18.041 7.78145 18.041 8.0239 18.041ZM11.9579 18.0956C12.2311 18.0956 12.296 18.1537 12.296 18.1537C12.3404 18.2049 12.3882 18.3414 12.3882 18.5702C12.3882 18.8502 12.3472 18.9219 12.3096 18.9629C12.2857 18.9902 12.2584 19.0243 12.0228 19.0243H11.613V18.0956H11.9579Z" fill="#86888C"/>
</svg>
