<svg width="24" height="24" viewBox="0 0 24 24" fill="none" xmlns="http://www.w3.org/2000/svg">
<path d="M20.3428 5.46657C18.6444 3.83073 16.1721 3 13 3C9.82788 3 7.35562 3.83073 5.65718 5.46657C3.89331 7.16785 3 9.7027 3 13C3 15.3215 3.44381 17.2646 4.32006 18.8037L8.02703 15C8.13514 14.8919 8.28023 14.8293 8.43386 14.8293C8.58464 14.8293 8.73257 14.889 8.83784 15L9.03414 15.1991C9.71977 13.8364 10.431 11.825 10.6245 9.15363C10.4509 9.07966 10.2916 8.96871 10.1607 8.83215C9.88478 8.54481 9.74538 8.16643 9.74538 7.70555C9.74538 7.24467 9.88478 6.86913 10.1607 6.57895C10.4367 6.29161 10.8151 6.13513 11.2447 6.13513C11.6743 6.13513 12.0498 6.28876 12.3286 6.57895C12.6074 6.86913 12.744 7.24751 12.744 7.70555C12.744 8.16358 12.6046 8.54196 12.3286 8.83215C12.1721 8.99716 11.9758 9.12233 11.7596 9.19346C11.606 11.3556 11.1337 13.1223 10.5903 14.4908L15.5292 9.61451C15.4467 9.4239 15.404 9.21906 15.4125 9.01138C15.4239 8.61309 15.5946 8.24893 15.9246 7.92461C16.2546 7.60028 16.6188 7.43243 17.0171 7.4239C17.4211 7.41252 17.7966 7.56615 18.101 7.86771C18.4054 8.16927 18.5647 8.54481 18.5533 8.94879C18.542 9.34708 18.3713 9.71124 18.0413 10.0356C17.7112 10.3599 17.3471 10.5249 16.9488 10.5363C16.7383 10.542 16.5277 10.5021 16.3343 10.4168L11.4922 15.1963C12.8435 14.6785 14.5619 14.229 16.6501 14.0811C16.724 13.8649 16.8464 13.6686 17.0114 13.5121C17.2987 13.2361 17.6771 13.0967 18.138 13.0967C18.5989 13.0967 18.9772 13.239 19.2646 13.5149C19.5519 13.7909 19.7084 14.1693 19.7084 14.5989C19.7084 15.0285 19.5548 15.404 19.2646 15.6856C18.9744 15.9673 18.5989 16.101 18.138 16.101C17.6771 16.101 17.3016 15.9587 17.0114 15.6856C16.8748 15.5548 16.7639 15.3954 16.6899 15.2219C14.01 15.4154 11.9957 16.1323 10.6302 16.8208L10.8578 17.0512C11.074 17.2731 11.0768 17.6259 10.8606 17.8478L7.15647 21.6543C8.70413 22.5477 10.6615 23 13 23C16.1721 23 18.6444 22.1693 20.3428 20.5334C22.1067 18.835 23 16.3001 23 13C23 9.69986 22.1067 7.16785 20.3428 5.46657Z" fill="#86888C"/>
<path d="M17.808 14.8661C17.8336 14.8917 17.9133 14.9657 18.1465 14.9657C18.3798 14.9657 18.4595 14.8917 18.4851 14.8661C18.5306 14.8206 18.579 14.7552 18.579 14.6015C18.579 14.4479 18.5306 14.3825 18.4851 14.337C18.4595 14.3114 18.3798 14.2374 18.1465 14.2374C17.9133 14.2374 17.8336 14.3114 17.808 14.337C17.7625 14.3825 17.7141 14.4479 17.7141 14.5987V14.6129C17.717 14.7609 17.7653 14.8234 17.808 14.8661ZM16.9232 9.40097C16.9602 9.40097 17.074 9.39813 17.2447 9.22743C17.4154 9.05673 17.4154 8.95431 17.4182 8.92018C17.4211 8.86043 17.4069 8.78362 17.3044 8.6812C17.202 8.57878 17.1167 8.56171 17.0512 8.56456C17.0143 8.56456 16.9005 8.5674 16.7298 8.7381C16.5591 8.9088 16.5591 9.01121 16.5562 9.04535C16.5534 9.1051 16.5676 9.18191 16.67 9.28433L16.6729 9.28717C16.7781 9.39244 16.8578 9.40382 16.9232 9.40097ZM11.2362 8.13781H11.2532C11.404 8.13781 11.4694 8.08945 11.515 8.04393C11.5406 8.01833 11.6145 7.94151 11.6145 7.70538C11.6145 7.46925 11.5406 7.39244 11.515 7.36683C11.4694 7.32131 11.404 7.27295 11.2504 7.27295C11.0968 7.27295 11.0313 7.32131 10.9858 7.36683C10.9602 7.39244 10.8862 7.46925 10.8862 7.70538C10.8862 7.94151 10.9602 8.01833 10.9858 8.04393C11.0285 8.08945 11.0911 8.13497 11.2362 8.13781Z" fill="#86888C"/>
</svg>
