<svg width="40" height="40" viewBox="0 0 40 40" fill="none" xmlns="http://www.w3.org/2000/svg">
<path fill-rule="evenodd" clip-rule="evenodd" d="M32.0154 23.5234C31.5391 23.9997 30.9603 24.3736 30.3252 24.6912C30.0077 24.8499 29.6901 25.0036 29.3367 25.1214C28.5275 25.3826 27.621 25.5311 26.6479 25.567C26.4789 25.5772 26.3303 25.6028 26.1562 25.6028H16.8553C16.6812 25.6028 16.5327 25.5721 16.3636 25.567C15.3854 25.526 14.4789 25.3826 13.6748 25.1214C13.3214 25.0036 13.0038 24.8499 12.6863 24.6912C12.0512 24.3736 11.4725 24.0049 10.9962 23.5234C10.5301 22.9037 10.2843 22.0484 10.2843 20.937C10.2843 19.8307 10.5352 18.9754 10.9962 18.3454C12.0922 17.2392 13.6543 16.5785 15.5288 16.3634C15.4673 16.7782 15.4264 17.2033 15.4264 17.6591C15.4264 19.5951 15.9898 21.1111 17.096 22.1713C18.1562 23.1854 19.6415 23.7027 21.5058 23.7027C23.3752 23.7027 24.8553 23.1854 25.9155 22.1713C27.0218 21.1111 27.58 19.5951 27.58 17.6591C27.58 17.2033 27.5442 16.7731 27.4827 16.3634C29.3572 16.5836 30.9142 17.2392 32.0154 18.3454C32.4814 18.9703 32.7324 19.8307 32.7324 20.937C32.7273 22.0484 32.4763 22.9037 32.0154 23.5234ZM25.6543 28.7219C25.644 29.8947 25.2138 32.6143 21.5058 32.6297C17.7926 32.6143 17.3675 29.8947 17.3572 28.7219L17.3419 27.8666L17.7106 27.8615H25.6645L25.6543 28.7219ZM33.7004 16.8448C33.6748 16.8141 33.6543 16.7833 33.6236 16.7526C33.5211 16.6297 33.4341 16.5631 33.3214 16.4556C33.2292 16.3634 33.1216 16.2661 33.009 16.1841C31.6671 15.0881 29.9565 14.3967 27.9795 14.1355C28.717 12.9472 29.1012 11.4568 29.1012 9.67451C29.1012 7.24173 28.4046 5.34161 27.032 4.02022C25.7106 2.75006 23.8515 2.09961 21.5006 2.09961C19.1498 2.09961 17.2907 2.74494 15.9744 4.02022C14.5967 5.34161 13.9001 7.24686 13.9001 9.67451C13.9001 11.4568 14.2843 12.9472 15.0218 14.1355C13.0448 14.3967 11.3342 15.0881 9.99232 16.1841C9.87452 16.2609 9.77209 16.3634 9.6799 16.4556C9.56722 16.5631 9.48015 16.6297 9.37772 16.7526C9.34699 16.7833 9.33163 16.8141 9.3009 16.8448C8.4507 17.8794 8 19.2417 8 20.9421C8 22.6425 8.45583 23.9997 9.3009 25.0394C9.3265 25.0702 9.34699 25.1009 9.37772 25.1316C9.57234 25.3314 9.77721 25.5209 9.99232 25.695C10.2638 25.9204 10.6684 26.1816 11.0781 26.4274C11.4264 26.6374 11.7798 26.832 12.0563 26.9703V27.8871L12.0768 29.1726C12.1178 33.4799 14.612 38.0791 21.475 38.0996H21.516C28.379 38.0791 30.8732 33.4799 30.9142 29.1726L30.9296 27.8717V26.9754C31.2061 26.8371 31.5647 26.6425 31.9078 26.4325C32.3175 26.1867 32.7222 25.9255 32.9936 25.7001C33.2087 25.526 33.4136 25.3314 33.6082 25.1367L33.685 25.0445C34.5352 24.01 34.991 22.6527 34.991 20.9472C35.0013 19.2366 34.5506 17.8743 33.7004 16.8448Z" fill="#86888C"/>
</svg>
