<svg width="28" height="28" viewBox="0 0 28 28" fill="none" xmlns="http://www.w3.org/2000/svg">
<path fill-rule="evenodd" clip-rule="evenodd" d="M20.4286 24.5316H9.60672C9.45987 24.5316 9.33694 24.4121 9.33694 24.2618C9.33694 24.1116 9.45646 23.992 9.60672 23.992H20.4286C20.5754 23.992 20.6949 24.115 20.6949 24.2618C20.6949 24.4121 20.5754 24.5316 20.4286 24.5316ZM12.3967 4.56801C12.3967 3.96016 12.8884 3.46841 13.4929 3.46841H16.0882C16.6927 3.46841 17.1844 3.96016 17.1844 4.56801V7.68583C16.4707 7.56289 15.7433 7.47752 14.9989 7.47752C14.1315 7.47752 13.2573 7.56972 12.4001 7.75413V4.56801H12.3967ZM24.9977 16.3358C24.9977 12.2925 22.6312 9.22254 18.6426 8.01024V4.56801C18.6426 3.15083 17.4952 2 16.0882 2H13.4929C12.0825 2 10.9385 3.15083 10.9385 4.56801V8.16733C7.66022 9.3284 5 11.975 5 16.3358C5 19.2316 6.14741 21.6221 8.25783 23.1929C8.02561 23.49 7.87877 23.8589 7.87877 24.2652C7.87877 25.2214 8.65396 26 9.61013 26H20.432C21.3847 26 22.1599 25.2214 22.1599 24.2652C22.1599 23.8725 22.0233 23.5105 21.8014 23.2203C23.8947 21.6665 24.9977 19.3136 24.9977 16.3358ZM11.2459 14.7103V18.1799C11.2459 18.6614 11.6352 19.0541 12.1167 19.0541H17.5805C18.062 19.0541 18.4513 18.6614 18.4513 18.1799V14.7103C18.4513 14.2288 18.062 13.8361 17.5805 13.8361H12.1167C11.6352 13.8361 11.2459 14.2288 11.2459 14.7103ZM12.1167 20.5191C10.8293 20.5191 9.78429 19.4707 9.78429 18.1799V14.7103C9.78429 13.4195 10.8293 12.3677 12.1167 12.3677H17.5805C18.8645 12.3677 19.9129 13.4195 19.9129 14.7103V18.1799C19.9129 19.4707 18.868 20.5191 17.5805 20.5191H12.1167ZM13.8036 15.9021C13.5339 15.9021 13.3153 15.6836 13.3153 15.4138C13.3153 15.144 13.5339 14.9254 13.8036 14.9254H15.8423C16.1121 14.9254 16.3307 15.144 16.3307 15.4138C16.3307 15.6836 16.1121 15.9021 15.8423 15.9021H13.8036ZM13.0353 17.8418C12.7655 17.8418 12.547 17.6232 12.547 17.3534C12.547 17.0837 12.7655 16.8651 13.0353 16.8651H16.6039C16.8736 16.8651 17.0922 17.0837 17.0922 17.3534C17.0922 17.6232 16.8736 17.8418 16.6039 17.8418H13.0353ZM15.0979 5.48662C15.0979 5.71884 15.2721 5.91007 15.4838 5.91007C15.6955 5.91007 15.8697 5.71884 15.8697 5.48662C15.8697 5.25441 15.6955 5.05976 15.4838 5.05976C15.2721 5.05976 15.0979 5.251 15.0979 5.48662ZM16.8429 5.48662C16.8429 6.25839 16.2316 6.89015 15.4838 6.89015C14.7325 6.89015 14.1246 6.25839 14.1246 5.48662C14.1246 4.71144 14.7359 4.0831 15.4838 4.0831C16.2351 4.07968 16.8429 4.71144 16.8429 5.48662ZM20.1042 4.54752C19.9163 4.54752 19.7285 4.47581 19.5885 4.33238C19.3017 4.04553 19.3017 3.5811 19.5885 3.29425L20.4559 2.42003C20.7427 2.13318 21.2038 2.13318 21.4906 2.42003C21.7775 2.70689 21.7775 3.17131 21.4906 3.45817L20.6232 4.32897C20.4798 4.47581 20.292 4.54752 20.1042 4.54752ZM20.3227 5.28515C20.3227 4.87877 20.6505 4.55094 21.0535 4.55094H22.6448C23.0478 4.55094 23.3756 4.87877 23.3756 5.28515C23.3756 5.69152 23.0478 6.01935 22.6448 6.01935H21.0535C20.6471 6.01594 20.3227 5.6881 20.3227 5.28515ZM19.65 6.24132C19.9368 5.95447 20.3978 5.95447 20.6847 6.24132L21.6033 7.16335C21.8902 7.4502 21.8902 7.91463 21.6033 8.20148C21.4599 8.34491 21.2755 8.41662 21.0877 8.41662C20.8998 8.41662 20.712 8.34491 20.572 8.20148L19.6534 7.27945C19.3665 6.9926 19.3665 6.52817 19.65 6.24132Z" fill="#86888C"/>
</svg>
