<svg width="40" height="40" viewBox="0 0 40 40" fill="none" xmlns="http://www.w3.org/2000/svg">
<path fill-rule="evenodd" clip-rule="evenodd" d="M29.1429 35.7974H12.9101C12.6898 35.7974 12.5054 35.6181 12.5054 35.3927C12.5054 35.1673 12.6847 34.988 12.9101 34.988H29.1429C29.3631 34.988 29.5424 35.1725 29.5424 35.3927C29.5424 35.6181 29.3631 35.7974 29.1429 35.7974ZM17.095 5.85202C17.095 4.94024 17.8327 4.20262 18.7393 4.20262H22.6323C23.539 4.20262 24.2766 4.94024 24.2766 5.85202V10.5287C23.206 10.3443 22.115 10.2163 20.9983 10.2163C19.6972 10.2163 18.3859 10.3546 17.1002 10.6312V5.85202H17.095ZM35.9966 23.5037C35.9966 17.4388 32.4468 12.8338 26.4639 11.0154V5.85202C26.4639 3.72624 24.7427 2 22.6323 2H18.7393C16.6238 2 14.9078 3.72624 14.9078 5.85202V11.251C9.99032 12.9926 6 16.9624 6 23.5037C6 27.8475 7.72112 31.4331 10.8867 33.7894C10.5384 34.2351 10.3182 34.7883 10.3182 35.3978C10.3182 36.8321 11.4809 38 12.9152 38H29.148C30.5771 38 31.7399 36.8321 31.7399 35.3978C31.7399 34.8088 31.535 34.2658 31.202 33.8304C34.3421 31.4997 35.9966 27.9704 35.9966 23.5037ZM15.3688 21.0655V26.2698C15.3688 26.992 15.9528 27.5811 16.675 27.5811H24.8708C25.5931 27.5811 26.177 26.992 26.177 26.2698V21.0655C26.177 20.3432 25.5931 19.7541 24.8708 19.7541H16.675C15.9528 19.7541 15.3688 20.3432 15.3688 21.0655ZM16.675 29.7786C14.7439 29.7786 13.1764 28.206 13.1764 26.2698V21.0655C13.1764 19.1292 14.7439 17.5515 16.675 17.5515H24.8708C26.7968 17.5515 28.3694 19.1292 28.3694 21.0655V26.2698C28.3694 28.206 26.8019 29.7786 24.8708 29.7786H16.675ZM19.2055 22.8532C18.8008 22.8532 18.473 22.5253 18.473 22.1207C18.473 21.716 18.8008 21.3882 19.2055 21.3882H22.2635C22.6682 21.3882 22.996 21.716 22.996 22.1207C22.996 22.5253 22.6682 22.8532 22.2635 22.8532H19.2055ZM18.0529 25.7627C17.6483 25.7627 17.3204 25.4348 17.3204 25.0302C17.3204 24.6255 17.6483 24.2977 18.0529 24.2977H23.4058C23.8105 24.2977 24.1383 24.6255 24.1383 25.0302C24.1383 25.4348 23.8105 25.7627 23.4058 25.7627H18.0529ZM21.1468 7.22994C21.1468 7.57826 21.4081 7.86511 21.7257 7.86511C22.0433 7.86511 22.3045 7.57826 22.3045 7.22994C22.3045 6.88162 22.0433 6.58964 21.7257 6.58964C21.4081 6.58964 21.1468 6.87649 21.1468 7.22994ZM23.7644 7.22994C23.7644 8.38759 22.8475 9.33523 21.7257 9.33523C20.5987 9.33523 19.687 8.38759 19.687 7.22994C19.687 6.06716 20.6039 5.12464 21.7257 5.12464C22.8526 5.11952 23.7644 6.06716 23.7644 7.22994ZM28.6562 5.82129C28.3745 5.82129 28.0928 5.71372 27.8828 5.49858C27.4525 5.0683 27.4525 4.37166 27.8828 3.94138L29.1838 2.63005C29.6141 2.19977 30.3056 2.19977 30.7359 2.63005C31.1662 3.06033 31.1662 3.75697 30.7359 4.18725L29.4348 5.49345C29.2197 5.71372 28.938 5.82129 28.6562 5.82129ZM28.9841 6.92772C28.9841 6.31816 29.4758 5.82641 30.0802 5.82641H32.4673C33.0717 5.82641 33.5635 6.31816 33.5635 6.92772C33.5635 7.53728 33.0717 8.02903 32.4673 8.02903H30.0802C29.4707 8.0239 28.9841 7.53216 28.9841 6.92772ZM27.975 8.36198C28.4052 7.9317 29.0968 7.9317 29.527 8.36198L30.905 9.74502C31.3352 10.1753 31.3352 10.8719 30.905 11.3022C30.6898 11.5174 30.4132 11.6249 30.1315 11.6249C29.8497 11.6249 29.568 11.5174 29.358 11.3022L27.9801 9.91918C27.5498 9.4889 27.5498 8.79226 27.975 8.36198Z" fill="#86888C"/>
</svg>
