<svg width="24" height="24" viewBox="0 0 24 24" fill="none" xmlns="http://www.w3.org/2000/svg">
<path fill-rule="evenodd" clip-rule="evenodd" d="M16.8571 20.7763H7.83893C7.71656 20.7763 7.61411 20.6767 7.61411 20.5515C7.61411 20.4263 7.71372 20.3267 7.83893 20.3267H16.8571C16.9795 20.3267 17.0791 20.4291 17.0791 20.5515C17.0791 20.6767 16.9795 20.7763 16.8571 20.7763ZM10.1639 4.14001C10.1639 3.63347 10.5737 3.22368 11.0774 3.22368H13.2402C13.7439 3.22368 14.1537 3.63347 14.1537 4.14001V6.73819C13.5589 6.63574 12.9528 6.5646 12.3324 6.5646C11.6096 6.5646 10.881 6.64143 10.1668 6.79511V4.14001H10.1639ZM20.6648 13.9465C20.6648 10.5771 18.6927 8.01878 15.3688 7.00854V4.14001C15.3688 2.95902 14.4126 2 13.2402 2H11.0774C9.90211 2 8.94878 2.95902 8.94878 4.14001V7.13944C6.21685 8.107 4 10.3125 4 13.9465C4 16.3597 4.95618 18.3517 6.71485 19.6608C6.52134 19.9084 6.39898 20.2157 6.39898 20.5544C6.39898 21.3512 7.04496 22 7.84178 22H16.86C17.654 22 18.2999 21.3512 18.2999 20.5544C18.2999 20.2271 18.1861 19.9254 18.0011 19.6836C19.7456 18.3887 20.6648 16.428 20.6648 13.9465ZM9.20489 12.5919V15.4832C9.20489 15.8845 9.52931 16.2117 9.93056 16.2117H14.4838C14.885 16.2117 15.2094 15.8845 15.2094 15.4832V12.5919C15.2094 12.1907 14.885 11.8634 14.4838 11.8634H9.93056C9.52931 11.8634 9.20489 12.1907 9.20489 12.5919ZM9.93056 17.4326C8.85771 17.4326 7.98691 16.5589 7.98691 15.4832V12.5919C7.98691 11.5162 8.85771 10.6397 9.93056 10.6397H14.4838C15.5538 10.6397 16.4274 11.5162 16.4274 12.5919V15.4832C16.4274 16.5589 15.5566 17.4326 14.4838 17.4326H9.93056ZM11.3364 13.5851C11.1116 13.5851 10.9294 13.403 10.9294 13.1781C10.9294 12.9533 11.1116 12.7712 11.3364 12.7712H13.0353C13.2601 12.7712 13.4422 12.9533 13.4422 13.1781C13.4422 13.403 13.2601 13.5851 13.0353 13.5851H11.3364ZM10.6961 15.2015C10.4713 15.2015 10.2891 15.0194 10.2891 14.7945C10.2891 14.5697 10.4713 14.3876 10.6961 14.3876H13.6699C13.8947 14.3876 14.0768 14.5697 14.0768 14.7945C14.0768 15.0194 13.8947 15.2015 13.6699 15.2015H10.6961ZM12.4149 4.90552C12.4149 5.09903 12.56 5.25839 12.7365 5.25839C12.9129 5.25839 13.0581 5.09903 13.0581 4.90552C13.0581 4.71201 12.9129 4.5498 12.7365 4.5498C12.56 4.5498 12.4149 4.70916 12.4149 4.90552ZM13.8691 4.90552C13.8691 5.54866 13.3597 6.07513 12.7365 6.07513C12.1104 6.07513 11.6039 5.54866 11.6039 4.90552C11.6039 4.25953 12.1133 3.73591 12.7365 3.73591C13.3625 3.73307 13.8691 4.25953 13.8691 4.90552ZM16.5868 4.12294C16.4303 4.12294 16.2738 4.06318 16.1571 3.94365C15.918 3.70461 15.918 3.31759 16.1571 3.07854L16.8799 2.35003C17.119 2.11098 17.5031 2.11098 17.7422 2.35003C17.9812 2.58907 17.9812 2.9761 17.7422 3.21514L17.0194 3.94081C16.8998 4.06318 16.7433 4.12294 16.5868 4.12294ZM16.7689 4.73762C16.7689 4.39898 17.0421 4.12578 17.3779 4.12578H18.704C19.0398 4.12578 19.313 4.39898 19.313 4.73762C19.313 5.07627 19.0398 5.34946 18.704 5.34946H17.3779C17.0393 5.34661 16.7689 5.07342 16.7689 4.73762ZM16.2083 5.53443C16.4474 5.29539 16.8315 5.29539 17.0706 5.53443L17.8361 6.30279C18.0751 6.54183 18.0751 6.92886 17.8361 7.1679C17.7166 7.28742 17.5629 7.34718 17.4064 7.34718C17.2499 7.34718 17.0933 7.28742 16.9767 7.1679L16.2112 6.39954C15.9721 6.1605 15.9721 5.77348 16.2083 5.53443Z" fill="#86888C"/>
</svg>
