<svg width="43" height="28" viewBox="0 0 43 28" fill="none" xmlns="http://www.w3.org/2000/svg">
<path d="M17.6509 1.23727C16.8219 0.402264 15.6273 0 14 0H4.88202C3.26687 0 2.07227 0.414454 1.23117 1.26165C0.402264 2.10274 0 3.28515 0 4.87593V23.1119C0 24.7453 0.408359 25.946 1.24336 26.7749C2.07227 27.5977 3.26078 27.9939 4.88202 27.9939H14C15.6212 27.9939 16.8158 27.5977 17.6387 26.7749C18.4737 25.946 18.882 24.7514 18.882 23.1119V4.87593C18.882 3.25468 18.4798 2.06617 17.6509 1.23727ZM16.7122 4.87593V23.1119C16.7122 25.1415 16.0296 25.8241 14 25.8241H4.88202C2.85242 25.8241 2.16979 25.1415 2.16979 23.1119V4.87593C2.16979 2.89508 2.90727 2.16369 4.88202 2.16369H14C15.0239 2.16369 15.7127 2.35873 16.1149 2.76709C16.5172 3.16935 16.7122 3.85808 16.7122 4.87593Z" fill="#86888C"/>
<path d="M9.41086 21.6855C8.649 21.6855 8.17969 22.1609 8.17969 22.9228C8.17969 23.2946 8.2894 23.5933 8.50272 23.8127C8.72213 24.0382 9.03297 24.154 9.40476 24.154C9.77655 24.154 10.0935 24.0382 10.3068 23.8127C10.5201 23.5933 10.6298 23.2946 10.6298 22.9228C10.642 22.1609 10.1727 21.6855 9.41086 21.6855Z" fill="#86888C"/>
<path d="M41.5612 1.23727C40.7323 0.402264 39.5377 0 37.9104 0H28.7924C27.1773 0 25.9827 0.414454 25.1416 1.26165C24.3127 2.10274 23.9043 3.28516 23.9043 4.88202V23.118C23.9043 24.7514 24.3127 25.9521 25.1477 26.781C25.9766 27.6038 27.1651 28 28.7863 28H37.9043C39.5255 28 40.7201 27.6038 41.543 26.781C42.378 25.9521 42.7863 24.7575 42.7863 23.118V4.87593C42.7924 3.25468 42.3902 2.06617 41.5612 1.23727ZM40.6226 4.87593V23.1119C40.6226 25.1415 39.94 25.8241 37.9104 25.8241H28.7924C26.7628 25.8241 26.0802 25.1415 26.0802 23.1119V4.87593C26.0802 2.89508 26.8177 2.16369 28.7924 2.16369H37.9104C38.9343 2.16369 39.6231 2.35873 40.0253 2.76709C40.4276 3.16935 40.6226 3.85808 40.6226 4.87593Z" fill="#86888C"/>
<path d="M33.2423 21.6855C32.4317 21.6855 31.9258 22.1914 31.9258 23.002C31.9258 23.3982 32.0416 23.7152 32.2732 23.9529C32.5048 24.1906 32.84 24.3185 33.2423 24.3185C33.6385 24.3185 33.9737 24.1906 34.2114 23.9529C34.443 23.7152 34.5588 23.3982 34.5588 23.002C34.5527 22.1914 34.0529 21.6855 33.2423 21.6855Z" fill="#86888C"/>
<path d="M31.8764 11.5254C31.8764 15.4201 28.7192 18.5772 24.8246 18.5772H18.2969C14.4023 18.5772 11.2451 15.4201 11.2451 11.5254C11.2451 7.63079 14.4023 4.47363 18.2969 4.47363H24.8246C28.7192 4.47363 31.8764 7.63079 31.8764 11.5254Z" fill="#86888C"/>
<path d="M18.522 12.8055C18.199 12.4398 18.0283 11.8912 18.0283 11.1781C18.0283 10.3188 18.2599 9.72145 18.6256 9.35576C18.9974 8.99006 19.5033 8.86816 20.0214 8.86816C20.3627 8.86816 20.7649 8.92911 21.0636 9.03273L20.9904 9.45937C20.7162 9.38623 20.3627 9.33138 20.0762 9.33138C19.5703 9.33138 19.2351 9.46546 19.0035 9.73364C18.7414 10.0384 18.6195 10.5077 18.6195 11.1416C18.6195 11.7389 18.7292 12.1716 18.9547 12.4581C19.1803 12.7506 19.5277 12.8847 20.0762 12.8847C20.2652 12.8847 20.4968 12.8664 20.6613 12.842V11.5194H19.9299V11.0806H21.2099V13.1834C20.9112 13.2809 20.4236 13.3479 20.0335 13.3479C19.3265 13.354 18.8389 13.1651 18.522 12.8055Z" fill="white"/>
<path d="M22.2346 8.95361H23.3865C23.9473 8.95361 24.313 9.05113 24.5385 9.27664C24.7152 9.45339 24.8067 9.70938 24.8067 10.0263C24.8067 10.4773 24.5994 10.8065 24.2337 10.971C24.7701 11.099 25.087 11.4769 25.087 12.0498C25.087 12.4338 24.9773 12.7264 24.7579 12.9275C24.508 13.153 24.124 13.2688 23.5328 13.2688H22.2285V8.95361H22.2346ZM23.35 10.8187C23.7279 10.8187 23.9412 10.7577 24.0814 10.6114C24.1972 10.4895 24.252 10.3128 24.252 10.0934C24.252 9.86785 24.1972 9.6911 24.0753 9.57529C23.9351 9.4412 23.7157 9.39245 23.3439 9.39245H22.7953V10.8187H23.35ZM23.3683 12.8239C23.8741 12.8239 24.124 12.7751 24.2947 12.6227C24.4288 12.5008 24.508 12.318 24.508 12.0437C24.508 11.7938 24.4471 11.611 24.3191 11.483C24.1484 11.3184 23.9046 11.2636 23.4414 11.2636H22.7953V12.8239H23.3683Z" fill="white"/>
</svg>
