<svg width="28" height="28" viewBox="0 0 28 28" fill="none" xmlns="http://www.w3.org/2000/svg">
<path d="M22.3683 14.7561C22.3512 13.4414 21.978 12.4211 21.2556 11.7295C20.5572 11.0619 19.5643 10.723 18.301 10.723H9.13581V7.5047C9.13581 5.19714 11.125 3.31754 13.5729 3.31754H13.7989C16.2434 3.31754 18.2359 5.19714 18.2359 7.5047C18.2257 7.85392 18.4996 8.14836 18.8488 8.15863C19.198 8.1689 19.4924 7.895 19.5027 7.54579V7.5047C19.5027 4.49871 16.9452 2.05078 13.7989 2.05078H13.5729C10.4265 2.05078 7.86904 4.49871 7.86904 7.50813V10.8394C7.15007 10.99 6.55435 11.2879 6.08873 11.7364C5.36633 12.4314 5 13.4516 5 14.7698V14.8143C5 14.8451 5 14.917 5.00342 15.0984L5 22.0074C5 23.3255 5.36633 24.3458 6.08873 25.0408C6.78374 25.7118 7.7766 26.0508 9.04337 26.0508H18.3044C19.5678 26.0508 20.5606 25.7118 21.2591 25.0442C21.9815 24.3492 22.3581 23.3324 22.3718 22.0177V14.7629C22.3683 14.7629 22.3683 14.7595 22.3683 14.7561ZM14.2953 23.0071C14.1515 23.1509 13.9427 23.2228 13.6825 23.2228C13.4223 23.2228 13.2134 23.1543 13.0696 23.0071C12.9361 22.8736 12.8642 22.675 12.8642 22.408C12.8642 21.8533 13.186 21.5966 13.6825 21.5966C14.1789 21.5966 14.5007 21.8533 14.5007 22.408C14.5041 22.675 14.4288 22.8736 14.2953 23.0071ZM17.5067 21.0009C17.2568 21.2439 16.8528 21.2371 16.6097 20.9872C15.9832 20.3401 15.0006 20.0114 13.6893 20.0114C12.378 20.0114 11.3886 20.3401 10.7621 20.9906C10.519 21.2439 10.1184 21.2508 9.86505 21.0077C9.6117 20.7646 9.60485 20.364 9.84793 20.1107C10.7244 19.2034 12.0151 18.7412 13.6859 18.7412C15.3532 18.7412 16.6405 19.2 17.517 20.1004C17.7635 20.3538 17.7601 20.7543 17.5067 21.0009C17.5067 20.9974 17.5067 20.9974 17.5067 21.0009ZM19.2562 18.2345C19.0063 18.4776 18.6023 18.4708 18.3592 18.2208C17.3424 17.1732 15.7709 16.6425 13.6893 16.6425C11.6009 16.6425 10.026 17.1766 9.01255 18.2311C8.76947 18.4844 8.3689 18.4913 8.11555 18.2482C7.8622 18.0051 7.85535 17.6046 8.09843 17.3512C9.36177 16.0399 11.2448 15.3757 13.6893 15.3757C16.127 15.3757 18.0031 16.0365 19.2665 17.3375C19.513 17.5874 19.5061 17.9914 19.2562 18.2345Z" fill="#86888C"/>
</svg>
