<svg width="20" height="20" viewBox="0 0 20 20" fill="none" xmlns="http://www.w3.org/2000/svg">
<path fill-rule="evenodd" clip-rule="evenodd" d="M3.03358 12.2174V3.22482C3.03358 3.12009 3.12009 3.03358 3.22482 3.03358H12.2151C12.3199 3.03358 12.4064 3.12009 12.4064 3.22482V12.2174C12.4064 12.3221 12.3199 12.4087 12.2151 12.4087H3.22482C3.11781 12.4087 3.03358 12.3244 3.03358 12.2174ZM16.8116 6.55322H13.4445V3.22709C13.4445 2.55094 12.8936 2 12.2174 2H3.22709C2.55094 2 2 2.55094 2 3.22709V12.2197C2 12.8958 2.55094 13.4468 3.22709 13.4468H6.55094V16.8139C6.55094 17.4673 7.08367 18 7.73705 18H16.8093C17.4627 18 17.9954 17.4673 17.9954 16.8139V7.73933C17.9977 7.08594 17.465 6.55322 16.8116 6.55322Z" fill="#86888C"/>
</svg>
