<svg width="20" height="20" viewBox="0 0 20 20" fill="none" xmlns="http://www.w3.org/2000/svg">
<path d="M4.07604 13.8236C2.76267 13.8236 2.00922 13.0748 2.00922 11.766V8.2453C2.00922 7.60705 2.18433 7.10475 2.53226 6.75221C2.8894 6.38816 3.41014 6.20383 4.07604 6.20383L11.6106 6.19922C12.2765 6.19922 12.7972 6.38355 13.1544 6.74761C13.5023 7.10014 13.6774 7.60244 13.6774 8.24069V11.7614C13.6774 13.0702 12.924 13.819 11.6106 13.819L4.07604 13.8236ZM2.45161 15.1992C2.20276 15.1992 2 14.9965 2 14.7476C2 14.4988 2.20276 14.296 2.45161 14.296L13.235 14.2914C13.4839 14.2914 13.6866 14.4941 13.6866 14.743C13.6866 14.9918 13.4839 15.1946 13.235 15.1946L2.45161 15.1992Z" fill="#86888C"/>
<path d="M5.68257 15.0593C5.43372 15.0593 5.23096 14.8565 5.23096 14.6077C5.23096 14.4902 5.27474 14.3796 5.35538 14.2943L6.43603 13.163C6.60884 12.9833 6.89455 12.9763 7.07427 13.1492C7.254 13.322 7.26091 13.6077 7.0881 13.7874L6.00745 14.9187C5.92451 15.0086 5.80699 15.0593 5.68257 15.0593ZM9.99133 15.1169C9.86921 15.1169 9.75169 15.0662 9.66644 14.9786L8.48211 13.7574C8.3093 13.5777 8.31391 13.292 8.49133 13.1192C8.67105 12.9464 8.95676 12.951 9.12957 13.1284L10.3139 14.3496C10.4867 14.5293 10.4821 14.8151 10.3047 14.9879C10.2217 15.0708 10.1088 15.1169 9.99133 15.1169ZM16.9752 15.1791H15.3323C14.9429 15.1791 14.6157 15.0017 14.4107 14.6768C14.2356 14.398 14.1503 14.0201 14.1503 13.5201L14.1457 7.86113C14.1457 7.36113 14.231 6.98325 14.4061 6.70445C14.6111 6.38187 14.9383 6.20215 15.3277 6.20215H16.9706C17.3277 6.20215 18.1618 6.36344 18.1618 7.85883L18.1641 13.5178C18.1664 15.0178 17.3323 15.1791 16.9752 15.1791Z" fill="#86888C"/>
</svg>
