<svg width="40" height="40" viewBox="0 0 40 40" fill="none" xmlns="http://www.w3.org/2000/svg">
<path d="M6.61342 28.1424C3.69483 28.1424 2.02048 26.4783 2.02048 23.5699V15.7461C2.02048 14.3277 2.40963 13.2115 3.1828 12.4281C3.97645 11.6191 5.13364 11.2095 6.61342 11.2095L23.3569 11.1992C24.8367 11.1992 25.9939 11.6088 26.7875 12.4179C27.5607 13.2013 27.9498 14.3175 27.9498 15.7358V23.5597C27.9498 26.468 26.2755 28.1321 23.3569 28.1321L6.61342 28.1424ZM3.00358 31.1992C2.45059 31.1992 2 30.7486 2 30.1956C2 29.6426 2.45059 29.1921 3.00358 29.1921L26.9667 29.1818C27.5197 29.1818 27.9703 29.6324 27.9703 30.1854C27.9703 30.7384 27.5197 31.189 26.9667 31.189L3.00358 31.1992Z" fill="#86888C"/>
<path d="M10.1823 30.8915C9.6293 30.8915 9.17871 30.4409 9.17871 29.8879C9.17871 29.6268 9.276 29.381 9.45521 29.1916L11.8566 26.6775C12.2407 26.2781 12.8756 26.2627 13.275 26.6468C13.6744 27.0308 13.6897 27.6657 13.3057 28.0651L10.9043 30.5792C10.7199 30.7789 10.4588 30.8915 10.1823 30.8915ZM19.7573 31.0195C19.4859 31.0195 19.2248 30.9069 19.0353 30.7123L16.4035 27.9985C16.0195 27.5992 16.0297 26.9642 16.424 26.5802C16.8234 26.1962 17.4583 26.2064 17.8423 26.6007L20.4742 29.3145C20.8582 29.7138 20.8479 30.3488 20.4537 30.7328C20.2693 30.9171 20.0184 31.0195 19.7573 31.0195ZM35.277 31.1578H31.6262C30.7609 31.1578 30.0338 30.7635 29.5781 30.0415C29.1889 29.422 28.9995 28.5823 28.9995 27.4711L28.9893 14.8956C28.9893 13.7845 29.1787 12.9448 29.5679 12.3252C30.0236 11.6084 30.7506 11.209 31.616 11.209H35.2668C36.0604 11.209 37.914 11.5674 37.914 14.8905L37.9191 27.466C37.9242 30.7994 36.0707 31.1578 35.277 31.1578Z" fill="#86888C"/>
</svg>
