<svg width="40" height="40" viewBox="0 0 40 40" fill="none" xmlns="http://www.w3.org/2000/svg">
<path fill-rule="evenodd" clip-rule="evenodd" d="M35.7978 25.8208V17.4956C35.7875 16.9628 35.3725 16.5069 34.8653 16.4607H32.0937V26.8608H34.8039C35.352 26.8557 35.7978 26.3895 35.7978 25.8208ZM34.7782 14.2065C36.5201 14.2065 37.97 15.6666 38.0059 17.4649V25.8157C38.0059 27.6242 36.5714 29.0997 34.8039 29.0997H32.0425C31.6992 30.8621 30.1725 32.1992 28.3486 32.1992H11.7597C5.45304 31.9687 2 28.2339 2 21.6864C2 15.1236 5.45304 11.399 11.7238 11.1992H28.323C30.1213 11.1992 31.6275 12.4954 32.0015 14.2168H33.2413V14.2117H34.7782V14.2065ZM9.9717 20.1904C8.95218 20.1904 8.29129 20.7284 8.29129 21.8862C8.29129 22.4446 8.44499 22.8545 8.71652 23.1363C9.01366 23.4385 9.44401 23.5871 9.9717 23.5871C10.4994 23.5871 10.9349 23.4385 11.2269 23.1363C11.4984 22.8545 11.6521 22.4446 11.6521 21.8862C11.6572 20.7284 10.9912 20.1904 9.9717 20.1904Z" fill="#86888C"/>
</svg>
