<svg width="20" height="20" viewBox="0 0 20 20" fill="none" xmlns="http://www.w3.org/2000/svg">
<path fill-rule="evenodd" clip-rule="evenodd" d="M17.4848 11.4656V7.89768C17.4804 7.66933 17.3025 7.47392 17.0851 7.45416H15.8973V11.9113H17.0588C17.2937 11.9091 17.4848 11.7093 17.4848 11.4656ZM17.0478 6.48807C17.7943 6.48807 18.4157 7.11383 18.4311 7.88451V11.4634C18.4311 12.2385 17.8163 12.8708 17.0588 12.8708H15.8753C15.7282 13.6262 15.0739 14.1992 14.2923 14.1992H7.18273C4.47987 14.1004 3 12.4998 3 9.69373C3 6.88109 4.47987 5.28485 7.16736 5.19922H14.2813C15.052 5.19922 15.6975 5.75472 15.8578 6.49246H16.3891V6.49027H17.0478V6.48807ZM6.41644 9.0526C5.97951 9.0526 5.69627 9.28314 5.69627 9.77936C5.69627 10.0187 5.76214 10.1943 5.87851 10.3151C6.00586 10.4446 6.19029 10.5083 6.41644 10.5083C6.6426 10.5083 6.82923 10.4446 6.95438 10.3151C7.07075 10.1943 7.13662 10.0187 7.13662 9.77936C7.13881 9.28314 6.85338 9.0526 6.41644 9.0526Z" fill="#86888C"/>
</svg>
