<svg width="28" height="28" viewBox="0 0 28 28" fill="none" xmlns="http://www.w3.org/2000/svg">
<path fill-rule="evenodd" clip-rule="evenodd" d="M14.3337 4C15.6987 4 16.766 4.3752 17.5035 5.11914C18.2733 5.89218 18.6647 7.03396 18.6647 8.51213C18.6647 9.9903 18.2733 11.1321 17.5035 11.8987C16.766 12.6361 15.6987 13.0113 14.3337 13.0113C12.9687 13.0113 11.9013 12.6361 11.1671 11.8987C10.4038 11.1321 10.0156 9.9903 10.0156 8.51213C10.0156 7.03073 10.4038 5.88895 11.1671 5.11914C11.9046 4.3752 12.9687 4 14.3337 4ZM7.67062 9.61186C8.38868 9.61186 8.95148 9.80916 9.33962 10.2005C9.74394 10.6049 9.94771 11.2065 9.94771 11.986C9.94771 12.7655 9.74393 13.3639 9.33639 13.7682C8.94825 14.1563 8.38544 14.3536 7.66739 14.3536C6.94933 14.3536 6.38976 14.1563 6.00162 13.7682C5.5973 13.3639 5.39353 12.7655 5.39353 11.986C5.39353 11.2065 5.5973 10.6049 5.99838 10.2005C6.39299 9.80916 6.95256 9.61186 7.67062 9.61186ZM21.0032 9.6442C21.7116 9.6442 22.2679 9.84151 22.6528 10.2264C23.0507 10.6275 23.2512 11.2226 23.2512 11.9925C23.2512 12.7623 23.0507 13.3574 22.6496 13.7553C22.2679 14.1402 21.7116 14.3342 21 14.3342C20.2884 14.3342 19.7321 14.1402 19.3472 13.7553C18.9461 13.3542 18.7456 12.7623 18.7456 11.9925C18.7456 11.2226 18.9493 10.6275 19.3472 10.2264C19.7353 9.83827 20.2949 9.6442 21.0032 9.6442ZM16.9698 14.5606C18.5709 14.5606 19.8873 15.0976 20.7768 16.1164C21.5919 17.0512 22.0221 18.3482 22.0221 19.8685V21.4566C22.0221 21.7574 21.8022 22 21.5305 22H7.1531C6.8814 22 6.66146 21.7574 6.66146 21.4566V19.8685C6.66146 18.3482 7.08841 17.0544 7.90027 16.1197C8.78329 15.1008 10.0965 14.5639 11.7008 14.5639H16.9698V14.5606ZM7.20162 15.4178C7.19515 15.4243 7.18544 15.4307 7.17898 15.4404C6.20539 16.5628 5.6911 18.096 5.6911 19.8685V20.7321H3.99299C3.44636 20.7321 3 20.2695 3 19.697V18.8852C3 17.9084 3.30081 17.0674 3.87332 16.4464C4.49434 15.7736 5.38706 15.4178 6.45768 15.4178H7.20162ZM24.8588 16.427C25.4313 17.048 25.7321 17.8922 25.7321 18.8658V19.6776C25.7321 20.2501 25.2857 20.7127 24.7391 20.7127H22.9892V19.8652C22.9892 18.0927 22.4717 16.5628 21.4916 15.4372L21.4528 15.3984H22.2744C23.3482 15.3984 24.241 15.7542 24.8588 16.427Z" fill="#86888C"/>
</svg>
