<svg width="28" height="28" viewBox="0 0 28 28" fill="none" xmlns="http://www.w3.org/2000/svg">
<path fill-rule="evenodd" clip-rule="evenodd" d="M14.3337 5C15.6987 5 16.766 5.3752 17.5035 6.11914C18.2733 6.89218 18.6647 8.03396 18.6647 9.51213C18.6647 10.9903 18.2733 12.1321 17.5035 12.8987C16.766 13.6361 15.6987 14.0113 14.3337 14.0113C12.9687 14.0113 11.9013 13.6361 11.1671 12.8987C10.4038 12.1321 10.0156 10.9903 10.0156 9.51213C10.0156 8.03073 10.4038 6.88895 11.1671 6.11914C11.9046 5.3752 12.9687 5 14.3337 5ZM7.67062 10.6119C8.38868 10.6119 8.95148 10.8092 9.33962 11.2005C9.74394 11.6049 9.94771 12.2065 9.94771 12.986C9.94771 13.7655 9.74393 14.3639 9.33639 14.7682C8.94825 15.1563 8.38544 15.3536 7.66739 15.3536C6.94933 15.3536 6.38976 15.1563 6.00162 14.7682C5.5973 14.3639 5.39353 13.7655 5.39353 12.986C5.39353 12.2065 5.5973 11.6049 5.99838 11.2005C6.39299 10.8092 6.95256 10.6119 7.67062 10.6119ZM21.0032 10.6442C21.7116 10.6442 22.2679 10.8415 22.6528 11.2264C23.0507 11.6275 23.2512 12.2226 23.2512 12.9925C23.2512 13.7623 23.0507 14.3574 22.6496 14.7553C22.2679 15.1402 21.7116 15.3342 21 15.3342C20.2884 15.3342 19.7321 15.1402 19.3472 14.7553C18.9461 14.3542 18.7456 13.7623 18.7456 12.9925C18.7456 12.2226 18.9493 11.6275 19.3472 11.2264C19.7353 10.8383 20.2949 10.6442 21.0032 10.6442ZM16.9698 15.5606C18.5709 15.5606 19.8873 16.0976 20.7768 17.1164C21.5919 18.0512 22.0221 19.3482 22.0221 20.8685V22.4566C22.0221 22.7574 21.8022 23 21.5305 23H7.1531C6.8814 23 6.66146 22.7574 6.66146 22.4566V20.8685C6.66146 19.3482 7.08841 18.0544 7.90027 17.1197C8.78329 16.1008 10.0965 15.5639 11.7008 15.5639H16.9698V15.5606ZM7.20162 16.4178C7.19515 16.4243 7.18544 16.4307 7.17898 16.4404C6.20539 17.5628 5.6911 19.096 5.6911 20.8685V21.7321H3.99299C3.44636 21.7321 3 21.2695 3 20.697V19.8852C3 18.9084 3.30081 18.0674 3.87332 17.4464C4.49434 16.7736 5.38706 16.4178 6.45768 16.4178H7.20162ZM24.8588 17.427C25.4313 18.048 25.7321 18.8922 25.7321 19.8658V20.6776C25.7321 21.2501 25.2857 21.7127 24.7391 21.7127H22.9892V20.8652C22.9892 19.0927 22.4717 17.5628 21.4916 16.4372L21.4528 16.3984H22.2744C23.3482 16.3984 24.241 16.7542 24.8588 17.427Z" fill="#86888C"/>
</svg>
