<svg width="28" height="28" viewBox="0 0 28 28" fill="none" xmlns="http://www.w3.org/2000/svg">
<path fill-rule="evenodd" clip-rule="evenodd" d="M6.99972 16.6284C6.10936 16.6284 5.41762 16.4098 4.93819 15.9693C4.43822 15.5151 4.18824 14.8423 4.18824 13.9646C4.18824 13.0903 4.44165 12.4142 4.93819 11.9565C5.41762 11.516 6.11279 11.2974 6.99972 11.2974C7.89009 11.2974 8.58183 11.5194 9.06468 11.9565C9.56465 12.4142 9.81806 13.0903 9.81806 13.9646C9.81806 14.8389 9.56465 15.5116 9.06468 15.9693C8.58183 16.4064 7.88666 16.6284 6.99972 16.6284ZM10.1811 17.2055L13.2802 13.244C13.3624 13.1416 13.5336 13.1962 13.5336 13.3226V17.9295C13.5336 17.9808 13.5165 18.0251 13.4857 18.0661L12.0611 19.8386C12.0268 19.8795 12.0097 19.9308 12.0097 19.982V22.2974L12.0645 26.6926C12.0679 26.86 11.9241 26.9966 11.7495 26.9966H6.34908V22.2735C6.34908 21.8774 6.01005 21.5563 5.59227 21.5563C5.17448 21.5563 4.83546 21.8774 4.83546 22.2735V26.9966H2.38354C2.20547 26.9966 2.06164 26.86 2.06164 26.6926L2 20.7504C2 19.9034 2.27738 19.1794 2.80475 18.6604C3.38006 18.0934 4.23618 17.7929 5.27722 17.7929H8.70853C9.04071 17.7929 9.36603 17.7724 9.65369 17.6324C9.82834 17.5505 10.1811 17.2055 10.1811 17.2055ZM25.2658 18.6638C25.7932 19.1829 26.0706 19.9069 26.0706 20.7572L26.0089 26.6995C26.0089 26.8634 25.8685 27 25.6905 27H23.3276C23.2557 27 23.1975 26.9454 23.1975 26.8771V22.2735C23.1975 21.8774 22.8584 21.5563 22.4441 21.5563C22.0263 21.5563 21.6873 21.8774 21.6873 22.2735V26.8771C21.6873 26.9454 21.6325 27 21.5571 27H16.465C16.215 27 16.0129 26.8053 16.0164 26.5697L16.0677 22.3111V19.9854C16.0677 19.9342 16.0506 19.8864 16.0164 19.8454L14.5986 18.0832C14.561 18.0354 14.5404 17.9773 14.5404 17.9193V13.2952C14.5404 13.1757 14.6979 13.1245 14.7733 13.2201L17.893 17.2055C17.893 17.2055 18.2457 17.5505 18.4169 17.6324C18.7011 17.769 19.0299 17.7929 19.3621 17.7929H22.7899C23.8344 17.7963 24.6905 18.0969 25.2658 18.6638ZM19.0128 15.9727C18.5128 15.5185 18.256 14.8457 18.256 13.968C18.256 13.0938 18.5094 12.4176 19.0093 11.9634C19.4922 11.5228 20.1839 11.3008 21.0743 11.3008C21.9612 11.3008 22.6564 11.5262 23.1358 11.9634C23.6324 12.4176 23.8858 13.0938 23.8858 13.968C23.8858 14.8423 23.6324 15.5151 23.1358 15.9727C22.6564 16.4098 21.9647 16.6318 21.0743 16.6318C20.1874 16.6284 19.4922 16.4098 19.0128 15.9727ZM13.7459 9.48401C13.4685 9.37814 13.2734 9.1186 13.2768 8.81807L13.2939 5.71375C13.2973 5.3176 13.6329 5 14.0507 5H14.0541C14.4719 5.00342 14.8075 5.32443 14.8041 5.72058L14.787 8.8249C14.7835 9.22105 14.4479 9.53865 14.0302 9.53865H14.0267C14.0165 9.53865 14.0096 9.53524 13.9959 9.53182C13.9856 9.53524 13.9788 9.53865 13.9685 9.53865H13.9651C13.8863 9.53865 13.8144 9.51475 13.7459 9.48401ZM10.7529 10.2558L9.33521 8.8932C9.04071 8.61316 9.04413 8.15896 9.34206 7.87892C9.63657 7.59888 10.116 7.6023 10.4105 7.88233L11.8282 9.24496C12.1227 9.52499 12.1193 9.98261 11.8248 10.2592C11.6775 10.3958 11.4858 10.4676 11.294 10.4676C11.2837 10.4676 11.2735 10.4607 11.2632 10.4607C11.2529 10.4607 11.2426 10.4676 11.2324 10.4676C11.157 10.4676 11.0851 10.4471 11.0166 10.4163C10.9173 10.3822 10.8283 10.3275 10.7529 10.2558ZM16.5129 10.4163C16.4204 10.3822 16.3314 10.331 16.2561 10.2592C15.9581 9.9792 15.9581 9.52499 16.2492 9.24496L17.6669 7.88575C17.9614 7.6023 18.4375 7.6023 18.7354 7.87892C19.0333 8.15896 19.0333 8.60975 18.7422 8.8932L17.3245 10.2558C17.1772 10.3993 16.9821 10.471 16.7869 10.471C16.7766 10.471 16.7663 10.4641 16.756 10.4641C16.7458 10.4641 16.7355 10.471 16.7252 10.471C16.6499 10.471 16.578 10.4471 16.5129 10.4163Z" fill="#86888C"/>
</svg>
