<svg width="20" height="20" viewBox="0 0 20 20" fill="none" xmlns="http://www.w3.org/2000/svg">
<path fill-rule="evenodd" clip-rule="evenodd" d="M10.5558 4C11.4658 4 12.1774 4.25013 12.669 4.74609C13.1822 5.26146 13.4431 6.02264 13.4431 7.00809C13.4431 7.99353 13.1822 8.75472 12.669 9.26577C12.1774 9.75741 11.4658 10.0075 10.5558 10.0075C9.64582 10.0075 8.93423 9.75741 8.44474 9.26577C7.93585 8.75472 7.67709 7.99353 7.67709 7.00809C7.67709 6.02049 7.93585 5.2593 8.44474 4.74609C8.93639 4.25013 9.64582 4 10.5558 4ZM6.11375 7.74124C6.59245 7.74124 6.96765 7.87278 7.22642 8.13369C7.49596 8.40323 7.63181 8.80431 7.63181 9.32399C7.63181 9.84367 7.49596 10.2426 7.22426 10.5121C6.9655 10.7709 6.5903 10.9024 6.11159 10.9024C5.63288 10.9024 5.25984 10.7709 5.00108 10.5121C4.73154 10.2426 4.59569 9.84367 4.59569 9.32399C4.59569 8.80431 4.73154 8.40323 4.99892 8.13369C5.26199 7.87278 5.63504 7.74124 6.11375 7.74124ZM15.0022 7.7628C15.4744 7.7628 15.8453 7.89434 16.1019 8.15094C16.3671 8.41833 16.5008 8.81509 16.5008 9.3283C16.5008 9.84151 16.3671 10.2383 16.0997 10.5035C15.8453 10.7601 15.4744 10.8895 15 10.8895C14.5256 10.8895 14.1547 10.7601 13.8981 10.5035C13.6307 10.2361 13.497 9.84151 13.497 9.3283C13.497 8.81509 13.6329 8.41833 13.8981 8.15094C14.1569 7.89218 14.5299 7.7628 15.0022 7.7628ZM12.3132 11.0404C13.3806 11.0404 14.2582 11.3984 14.8512 12.0776C15.3946 12.7008 15.6814 13.5655 15.6814 14.579V15.6377C15.6814 15.8383 15.5348 16 15.3536 16H5.76873C5.5876 16 5.44097 15.8383 5.44097 15.6377V14.579C5.44097 13.5655 5.72561 12.703 6.26685 12.0798C6.85553 11.4005 7.731 11.0426 8.80054 11.0426H12.3132V11.0404ZM5.80108 11.6119C5.79677 11.6162 5.7903 11.6205 5.78598 11.627C5.13693 12.3752 4.79407 13.3973 4.79407 14.579V15.1547H3.66199C3.29757 15.1547 3 14.8464 3 14.4647V13.9235C3 13.2722 3.20054 12.7116 3.58221 12.2976C3.99623 11.8491 4.59137 11.6119 5.30512 11.6119H5.80108ZM17.5725 12.2846C17.9542 12.6987 18.1547 13.2615 18.1547 13.9105V14.4518C18.1547 14.8334 17.8571 15.1418 17.4927 15.1418H16.3261V14.5768C16.3261 13.3951 15.9811 12.3752 15.3278 11.6248L15.3019 11.5989H15.8496C16.5655 11.5989 17.1606 11.8361 17.5725 12.2846Z" fill="#86888C"/>
</svg>
