<svg width="20" height="20" viewBox="0 0 20 20" fill="none" xmlns="http://www.w3.org/2000/svg">
<path fill-rule="evenodd" clip-rule="evenodd" d="M10.3336 6.03009C9.0881 6.03009 8.34355 5.27872 8.34355 4.0196C8.34355 3.37752 8.5257 2.87205 8.88773 2.51685C9.23837 2.17304 9.72335 2 10.3336 2C10.9438 2 11.4287 2.17304 11.7794 2.5123C12.1437 2.86522 12.3281 3.37296 12.3281 4.01732C12.3281 5.27872 11.5813 6.03009 10.3336 6.03009ZM14.6027 11.4354C14.7097 11.7542 14.687 12.0912 14.5435 12.3872C14.4001 12.6809 14.1542 12.8995 13.8491 13.0019C13.7216 13.0543 13.585 13.0793 13.4483 13.0725L13.585 13.5848C13.6237 13.7328 13.5941 13.8899 13.5007 14.0106C13.4096 14.1313 13.2662 14.2018 13.1159 14.2018H12.7903L12.7767 16.7633C12.7767 17.1504 12.6583 17.4737 12.4374 17.6946C12.2962 17.8335 12.0458 17.9997 11.6382 17.9997H11.6086C10.9825 17.986 10.5271 17.4669 10.5271 16.7611L10.5385 14.2018H10.156L10.1696 16.7588C10.1696 17.1413 10.0444 17.4737 9.81442 17.7014C9.61406 17.8995 9.34311 18.0065 9.06077 17.9997H9.03117C8.38226 17.9838 7.89501 17.451 7.89501 16.7611L7.88135 14.2041H7.55575C7.4032 14.2041 7.26203 14.1335 7.17096 14.0129C7.0776 13.8922 7.048 13.7351 7.08671 13.5871L7.22333 13.0748H7.22105C7.08216 13.0748 6.94555 13.0497 6.81121 13.0019C6.51749 12.9017 6.27159 12.6832 6.12814 12.3917C5.98242 12.0957 5.95965 11.7565 6.06667 11.4445L7.30757 7.87437C7.32351 7.822 7.344 7.77191 7.3736 7.70816C7.73563 6.86571 8.56441 6.31698 9.482 6.31698H11.1874C12.1095 6.31698 12.9406 6.87254 13.3049 7.73093C13.3231 7.76736 13.3459 7.822 13.3664 7.88803C13.3686 7.88348 14.6027 11.4354 14.6027 11.4354Z" fill="#86888C"/>
</svg>
