<svg width="40" height="40" viewBox="0 0 40 40" fill="none" xmlns="http://www.w3.org/2000/svg">
<path fill-rule="evenodd" clip-rule="evenodd" d="M9.49959 23.4426C8.16404 23.4426 7.12643 23.1147 6.40729 22.4539C5.65733 21.7726 5.28235 20.7634 5.28235 19.4469C5.28235 18.1355 5.66247 17.1212 6.40729 16.4348C7.12643 15.774 8.16918 15.4461 9.49959 15.4461C10.8351 15.4461 11.8727 15.7791 12.597 16.4348C13.347 17.1212 13.7271 18.1355 13.7271 19.4469C13.7271 20.7583 13.347 21.7675 12.597 22.4539C11.8727 23.1096 10.83 23.4426 9.49959 23.4426ZM14.2716 24.3083L18.9203 18.366C19.0436 18.2124 19.3004 18.2943 19.3004 18.4839V25.3943C19.3004 25.4711 19.2747 25.5377 19.2285 25.5992L17.0916 28.2578C17.0403 28.3193 17.0146 28.3962 17.0146 28.473V31.9461L17.0968 38.539C17.1019 38.79 16.8862 38.9949 16.6242 38.9949H8.52361V31.9103C8.52361 31.316 8.01508 30.8345 7.3884 30.8345C6.76172 30.8345 6.25319 31.316 6.25319 31.9103V38.9949H2.57531C2.3082 38.9949 2.09246 38.79 2.09246 38.539L2 29.6256C2 28.3552 2.41607 27.2692 3.20713 26.4905C4.07009 25.6402 5.35427 25.1894 6.91582 25.1894H12.0628C12.5611 25.1894 13.049 25.1586 13.4805 24.9486C13.7425 24.8257 14.2716 24.3083 14.2716 24.3083ZM36.8988 26.4957C37.6898 27.2743 38.1059 28.3603 38.1059 29.6358L38.0134 38.5492C38.0134 38.7951 37.8028 39 37.5357 39H33.9914C33.8835 39 33.7962 38.918 33.7962 38.8156V31.9103C33.7962 31.316 33.2877 30.8345 32.6661 30.8345C32.0394 30.8345 31.5309 31.316 31.5309 31.9103V38.8156C31.5309 38.918 31.4487 39 31.3357 39H23.6974C23.3225 39 23.0194 38.708 23.0245 38.3545L23.1016 31.9666V28.4781C23.1016 28.4013 23.0759 28.3296 23.0245 28.2681L20.8979 25.6248C20.8414 25.5531 20.8106 25.466 20.8106 25.3789V18.4429C20.8106 18.2636 21.0469 18.1867 21.1599 18.3302L25.8394 24.3083C25.8394 24.3083 26.3685 24.8257 26.6254 24.9486C27.0517 25.1535 27.5448 25.1894 28.0431 25.1894H33.1849C34.7516 25.1945 36.0358 25.6453 36.8988 26.4957ZM27.5191 22.459C26.7692 21.7777 26.3839 20.7685 26.3839 19.452C26.3839 18.1406 26.764 17.1264 27.514 16.445C28.2383 15.7842 29.2759 15.4513 30.6114 15.4513C31.9418 15.4513 32.9846 15.7894 33.7037 16.445C34.4486 17.1264 34.8287 18.1406 34.8287 19.452C34.8287 20.7634 34.4486 21.7726 33.7037 22.459C32.9846 23.1147 31.947 23.4477 30.6114 23.4477C29.281 23.4426 28.2383 23.1147 27.5191 22.459ZM19.6189 12.726C19.2028 12.5672 18.91 12.1779 18.9152 11.7271L18.9408 7.07063C18.946 6.4764 19.4494 6 20.0761 6H20.0812C20.7079 6.00512 21.2113 6.48665 21.2061 7.08088L21.1805 11.7373C21.1753 12.3316 20.6719 12.808 20.0452 12.808H20.0401C20.0247 12.808 20.0144 12.8029 19.9939 12.7977C19.9785 12.8029 19.9682 12.808 19.9528 12.808H19.9476C19.8295 12.808 19.7216 12.7721 19.6189 12.726ZM15.1294 13.8837L13.0028 11.8398C12.5611 11.4197 12.5662 10.7384 13.0131 10.3184C13.4548 9.89832 14.174 9.90345 14.6157 10.3235L16.7423 12.3674C17.1841 12.7875 17.179 13.4739 16.7372 13.8889C16.5163 14.0938 16.2287 14.2013 15.941 14.2013C15.9256 14.2013 15.9102 14.1911 15.8948 14.1911C15.8794 14.1911 15.864 14.2013 15.8486 14.2013C15.7355 14.2013 15.6277 14.1706 15.5249 14.1245C15.376 14.0733 15.2424 13.9913 15.1294 13.8837ZM23.7694 14.1245C23.6307 14.0733 23.4971 13.9964 23.3841 13.8889C22.9372 13.4688 22.9372 12.7875 23.3738 12.3674L25.5004 10.3286C25.9422 9.90345 26.6562 9.90345 27.1031 10.3184C27.55 10.7384 27.55 11.4146 27.1133 11.8398L24.9867 13.8837C24.7659 14.0989 24.4731 14.2065 24.1803 14.2065C24.1649 14.2065 24.1495 14.1962 24.1341 14.1962C24.1186 14.1962 24.1032 14.2065 24.0878 14.2065C23.9748 14.2065 23.8669 14.1706 23.7694 14.1245Z" fill="#86888C"/>
</svg>
