<svg width="24" height="24" viewBox="0 0 24 24" fill="none" xmlns="http://www.w3.org/2000/svg">
<path d="M11.8905 11.6085C10.3087 11.6085 9.07681 11.1931 8.22333 10.3709C7.33855 9.51742 6.88905 8.25142 6.88905 6.60704C6.88905 4.96266 7.33855 3.69381 8.22333 2.83748C9.07681 2.01245 10.3087 1.59424 11.8905 1.59424C13.4723 1.59424 14.707 2.01245 15.5633 2.83748C16.4538 3.69381 16.9033 4.96266 16.9033 6.60704C16.9033 8.25142 16.4509 9.51742 15.5605 10.3709C14.707 11.1931 13.4723 11.6085 11.8905 11.6085ZM20.2119 21.5942H3.56899C3.25605 21.5942 3 21.3382 3 21.0252V19.361C3 17.7678 3.49502 16.4107 4.43385 15.4321C5.45804 14.3652 6.97724 13.7991 8.83215 13.7991H14.9346C16.7895 13.7991 18.3144 14.3624 19.3385 15.4292C20.2831 16.4107 20.7809 17.7678 20.7809 19.361V21.0252C20.7809 21.3382 20.5249 21.5942 20.2119 21.5942Z" fill="#86888C"/>
</svg>
