<svg width="24" height="24" viewBox="0 0 24 24" fill="none" xmlns="http://www.w3.org/2000/svg">
<path fill-rule="evenodd" clip-rule="evenodd" d="M12.0744 4C13.2877 4 14.2365 4.33351 14.892 4.99479C15.5763 5.68194 15.9242 6.69686 15.9242 8.01078C15.9242 9.32471 15.5763 10.3396 14.892 11.021C14.2365 11.6765 13.2877 12.0101 12.0744 12.0101C10.8611 12.0101 9.91231 11.6765 9.25966 11.021C8.58113 10.3396 8.23612 9.32471 8.23612 8.01078C8.23612 6.69398 8.58113 5.67907 9.25966 4.99479C9.91518 4.33351 10.8611 4 12.0744 4ZM6.15166 8.98832C6.78994 8.98832 7.29021 9.1637 7.63522 9.51159C7.99461 9.87098 8.17574 10.4058 8.17574 11.0987C8.17574 11.7916 7.99461 12.3235 7.63234 12.6828C7.28733 13.0279 6.78706 13.2032 6.14879 13.2032C5.51051 13.2032 5.01312 13.0279 4.6681 12.6828C4.30872 12.3235 4.12758 11.7916 4.12758 11.0987C4.12758 10.4058 4.30872 9.87098 4.66523 9.51159C5.01599 9.1637 5.51339 8.98832 6.15166 8.98832ZM18.0029 9.01707C18.6325 9.01707 19.127 9.19245 19.4692 9.53459C19.8228 9.89111 20.0011 10.4201 20.0011 11.1044C20.0011 11.7887 19.8228 12.3177 19.4663 12.6713C19.127 13.0135 18.6325 13.186 18 13.186C17.3675 13.186 16.873 13.0135 16.5308 12.6713C16.1743 12.3148 15.996 11.7887 15.996 11.1044C15.996 10.4201 16.1772 9.89111 16.5308 9.53459C16.8758 9.18958 17.3732 9.01707 18.0029 9.01707ZM14.4176 13.3872C15.8408 13.3872 17.011 13.8645 17.8016 14.7702C18.5261 15.6011 18.9085 16.754 18.9085 18.1053V19.517C18.9085 19.7844 18.713 20 18.4715 20H5.69164C5.45013 20 5.25463 19.7844 5.25463 19.517V18.1053C5.25463 16.754 5.63414 15.604 6.3558 14.773C7.1407 13.8674 8.308 13.3901 9.73405 13.3901H14.4176V13.3872ZM5.73477 14.1491C5.72902 14.1549 5.7204 14.1606 5.71465 14.1693C4.84924 15.1669 4.39209 16.5297 4.39209 18.1053V18.873H2.88266C2.39677 18.873 2 18.4618 2 17.9529V17.2313C2 16.363 2.26739 15.6155 2.77628 15.0634C3.3283 14.4654 4.12183 14.1491 5.0735 14.1491H5.73477ZM21.43 15.0462C21.9389 15.5982 22.2063 16.3486 22.2063 17.214V17.9357C22.2063 18.4446 21.8095 18.8557 21.3236 18.8557H19.7682V18.1024C19.7682 16.5269 19.3082 15.1669 18.437 14.1664L18.4025 14.1319H19.1328C20.0873 14.1319 20.8809 14.4482 21.43 15.0462Z" fill="#86888C"/>
</svg>
