<svg width="40" height="40" viewBox="0 0 40 40" fill="none" xmlns="http://www.w3.org/2000/svg">
<path fill-rule="evenodd" clip-rule="evenodd" d="M20.2598 6C22.4589 6 24.1786 6.60449 25.3668 7.80306C26.607 9.04852 27.2376 10.8881 27.2376 13.2695C27.2376 15.651 26.607 17.4906 25.3668 18.7256C24.1786 19.9137 22.4589 20.5182 20.2598 20.5182C18.0607 20.5182 16.3411 19.9137 15.1581 18.7256C13.9283 17.4906 13.303 15.651 13.303 13.2695C13.303 10.8828 13.9283 9.04331 15.1581 7.80306C16.3463 6.60449 18.0607 6 20.2598 6ZM9.52489 15.0413C10.6818 15.0413 11.5885 15.3592 12.2138 15.9898C12.8652 16.6411 13.1935 17.6104 13.1935 18.8663C13.1935 20.1222 12.8652 21.0863 12.2086 21.7376C11.5833 22.363 10.6765 22.6809 9.51968 22.6809C8.3628 22.6809 7.46128 22.363 6.83594 21.7376C6.18455 21.0863 5.85624 20.1222 5.85624 18.8663C5.85624 17.6104 6.18455 16.6411 6.83073 15.9898C7.46649 15.3592 8.36801 15.0413 9.52489 15.0413ZM31.0052 15.0934C32.1465 15.0934 33.0428 15.4113 33.6629 16.0314C34.3039 16.6776 34.627 17.6365 34.627 18.8767C34.627 20.117 34.3039 21.0758 33.6577 21.7168C33.0428 22.3369 32.1465 22.6496 31 22.6496C29.8535 22.6496 28.9572 22.3369 28.3371 21.7168C27.6909 21.0706 27.3678 20.117 27.3678 18.8767C27.3678 17.6365 27.6961 16.6776 28.3371 16.0314C28.9624 15.4061 29.864 15.0934 31.0052 15.0934ZM24.5069 23.0144C27.0864 23.0144 29.2074 23.8794 30.6404 25.5209C31.9536 27.027 32.6467 29.1166 32.6467 31.5659V34.1245C32.6467 34.6092 32.2924 35 31.8546 35H8.6911C8.25337 35 7.89901 34.6092 7.89901 34.1245V31.5659C7.89901 29.1166 8.58688 27.0322 9.89488 25.5261C11.3175 23.8846 13.4332 23.0196 16.018 23.0196H24.5069V23.0144ZM8.76927 24.3953C8.75885 24.4058 8.74322 24.4162 8.73279 24.4318C7.16424 26.2401 6.33567 28.7102 6.33567 31.5659V32.9572H3.59982C2.71914 32.9572 2 32.212 2 31.2897V29.9817C2 28.4079 2.48464 27.053 3.40701 26.0525C4.40755 24.9686 5.84582 24.3953 7.57071 24.3953H8.76927ZM37.2169 26.0212C38.1393 27.0217 38.6239 28.3818 38.6239 29.9504V31.2584C38.6239 32.1808 37.9048 32.926 37.0241 32.926H34.2048V31.5606C34.2048 28.7049 33.3711 26.2401 31.7921 24.4266L31.7296 24.3641H33.0532C34.7833 24.3641 36.2216 24.9373 37.2169 26.0212Z" fill="#86888C"/>
</svg>
