<svg width="20" height="20" viewBox="0 0 20 20" fill="none" xmlns="http://www.w3.org/2000/svg">
<path fill-rule="evenodd" clip-rule="evenodd" d="M14.6262 11.6619C14.8015 12.3199 14.4076 12.996 13.7497 13.1713C13.4218 13.2624 13.069 13.2146 12.7776 13.0347V16.7684C12.7776 17.4696 12.2744 18 11.6074 18C10.9426 18 10.4418 17.4696 10.4418 16.7684V13.1485H10.2141V16.7684C10.2141 17.4718 9.72918 17.9818 9.06441 17.9818C8.39509 17.9818 7.88968 17.4604 7.88968 16.7684V13.0347L7.85781 13.0552C7.5664 13.2168 7.22947 13.2601 6.91302 13.169C6.25735 12.9937 5.86805 12.3199 6.04108 11.6642L6.97904 8.24246C6.98815 8.20148 7.00181 8.16278 7.01774 8.12408C7.24996 7.07228 8.20385 6.3119 9.29435 6.3119H11.3774C12.4679 6.3119 13.4196 7.07001 13.6518 8.11952C13.6745 8.17188 13.6905 8.22197 13.6996 8.27206C13.6996 8.27661 14.6262 11.6619 14.6262 11.6619ZM10.1344 6.0296C8.86407 6.0296 8.10368 5.27604 8.10368 4.01707C8.10368 3.37279 8.29037 2.86739 8.65918 2.51451C9.0166 2.17302 9.5129 2 10.1344 2C10.7582 2 11.2545 2.17302 11.6097 2.51224C11.9785 2.86511 12.1674 3.37052 12.1674 4.0148C12.1674 5.27604 11.4093 6.02732 10.1344 6.0296Z" fill="#86888C"/>
</svg>
