<svg width="20" height="20" viewBox="0 0 20 20" fill="none" xmlns="http://www.w3.org/2000/svg">
<path d="M10.1124 10.0114C8.84694 10.0114 7.86145 9.67909 7.17866 9.02134C6.47084 8.33855 6.11124 7.32575 6.11124 6.01024C6.11124 4.69474 6.47084 3.67966 7.17866 2.99459C7.86145 2.33457 8.84694 2 10.1124 2C11.3778 2 12.3656 2.33457 13.0506 2.99459C13.763 3.67966 14.1226 4.69474 14.1226 6.01024C14.1226 7.32575 13.7607 8.33855 13.0484 9.02134C12.3656 9.67909 11.3778 10.0114 10.1124 10.0114ZM16.7696 18H3.45519C3.20484 18 3 17.7952 3 17.5448V16.2134C3 14.9388 3.39602 13.8532 4.14708 13.0703C4.96643 12.2168 6.18179 11.7639 7.66572 11.7639H12.5477C14.0316 11.7639 15.2515 12.2145 16.0708 13.068C16.8265 13.8532 17.2248 14.9388 17.2248 16.2134V17.5448C17.2248 17.7952 17.0199 18 16.7696 18Z" fill="#86888C"/>
</svg>
