<svg width="20" height="20" viewBox="0 0 20 20" fill="none" xmlns="http://www.w3.org/2000/svg">
<path fill-rule="evenodd" clip-rule="evenodd" d="M13.7789 14.1833C13.4465 14.4474 13.0572 14.6113 12.6656 14.7069C13.4465 14.2197 13.87 13.6141 13.87 12.7194C13.87 11.8565 13.2166 11.2782 12.6178 10.9412C12.7294 10.8388 12.8364 10.7295 12.9365 10.6157C13.0299 10.6566 13.1096 10.7067 13.1893 10.7659C13.2576 10.816 13.3213 10.8615 13.3873 10.9002C13.9861 11.2486 14.3891 11.9088 14.4415 12.6215C14.462 12.9903 14.4119 13.6801 13.7789 14.1833ZM10.3434 14.7343V11.9407C10.8374 11.8883 11.3178 11.7472 11.7618 11.5241C12.1875 11.6789 12.9775 12.1183 12.9775 12.7216C12.9753 13.4843 12.5654 14.008 10.3434 14.7343ZM4.99987 5.85729C5.15014 4.99669 5.71704 4.20211 6.55943 3.67619C8.71322 2.33292 10.7076 3.4895 10.8124 3.55097C10.8169 3.55325 11.4111 3.88337 11.5113 4.44345C11.5728 4.78268 11.4385 5.16745 11.1106 5.58636C10.9808 5.4748 10.8374 5.13785 10.8033 4.49581C10.7964 4.35693 10.7281 4.22716 10.6166 4.14292C10.5574 4.09966 9.18222 3.07058 7.13544 4.06323C6.41827 4.4093 5.91512 4.83049 5.62142 5.86412C5.47571 6.3946 5.50075 6.95695 5.68972 7.4715V8.10898C5.68972 8.22282 5.69883 8.3321 5.70793 8.44138C5.01126 7.65591 4.86782 6.62683 4.99987 5.85729ZM15.3271 12.5623C15.2543 11.5605 14.6828 10.6316 13.8359 10.1353C13.7949 10.1125 13.7584 10.0829 13.7175 10.0533C13.6287 9.985 13.5331 9.92353 13.4352 9.86661C13.6742 9.38395 13.8199 8.82159 13.829 8.18411L13.8313 7.46922C13.8313 7.20512 13.6173 6.99338 13.3555 6.99338H6.54577C6.46836 6.70879 6.46609 6.40826 6.54349 6.12367C6.76206 5.35186 7.09902 5.14013 7.55208 4.91928C8.70411 4.36376 9.53284 4.63697 9.86979 4.80089C9.9472 5.57043 10.1863 6.09863 10.5779 6.37639C10.892 6.59723 11.2427 6.60634 11.4476 6.54487C11.5341 6.51982 11.6092 6.47201 11.6684 6.40599C12.3127 5.68426 12.5768 4.96937 12.4516 4.27497C12.2695 3.25727 11.3019 2.73135 11.2859 2.72224C11.1812 2.65849 8.71549 1.20822 6.054 2.86567C4.98166 3.53276 4.25538 4.56411 4.05958 5.69337C3.83191 6.99566 4.20985 8.87851 6.01302 9.89849C6.04944 9.91898 6.08815 9.9167 6.12458 9.92808C6.71425 11.0619 7.87538 11.7996 9.38713 11.9384V15.7406C8.50603 15.9227 8.00515 16.5716 8.00515 17.5984C8.00515 17.8625 8.21917 18.0742 8.48327 18.0742H11.3542C11.6183 18.0742 11.8323 17.8602 11.8323 17.5984C11.8323 16.5306 11.2973 15.8635 10.3434 15.7155V15.6199C10.4458 15.6404 10.9103 15.7292 11.5318 15.7292C12.3605 15.7292 13.4647 15.5721 14.3322 14.8822C15.0311 14.3267 15.3931 13.4821 15.3271 12.5623Z" fill="#86888C"/>
</svg>
