<svg width="28" height="28" viewBox="0 0 28 28" fill="none" xmlns="http://www.w3.org/2000/svg">
<path fill-rule="evenodd" clip-rule="evenodd" d="M18.6684 20.2378C18.1698 20.634 17.5858 20.8799 16.9984 21.0233C18.1698 20.2925 18.805 19.3841 18.805 18.0419C18.805 16.7476 17.8249 15.8802 16.9267 15.3747C17.094 15.2211 17.2546 15.0571 17.4048 14.8864C17.5448 14.9478 17.6644 15.023 17.7839 15.1118C17.8863 15.1869 17.982 15.2552 18.081 15.3133C18.9792 15.8358 19.5836 16.8261 19.6622 17.8951C19.6929 18.4483 19.6178 19.4831 18.6684 20.2378ZM13.515 21.0643V16.874C14.2561 16.7954 14.9767 16.5837 15.6426 16.249C16.2813 16.4812 17.4663 17.1403 17.4663 18.0453C17.4629 19.1894 16.8482 19.9749 13.515 21.0643ZM5.49981 7.74883C5.7252 6.45793 6.57556 5.26606 7.83915 4.47717C11.0698 2.46227 14.0614 4.19714 14.2185 4.28934C14.2254 4.29276 15.1167 4.78795 15.267 5.62806C15.3592 6.13691 15.1577 6.71406 14.6659 7.34244C14.4713 7.1751 14.2561 6.66966 14.2049 5.70661C14.1946 5.49829 14.0922 5.30363 13.9248 5.17727C13.8361 5.11238 11.7733 3.56876 8.70317 5.05774C7.62741 5.57683 6.87268 6.20863 6.43213 7.75908C6.21356 8.55479 6.25113 9.39832 6.53458 10.1701V11.1264C6.53458 11.2971 6.54824 11.461 6.5619 11.625C5.51688 10.4468 5.30173 8.90313 5.49981 7.74883ZM20.9907 17.8063C20.8814 16.3036 20.0242 14.9103 18.7538 14.1658C18.6923 14.1316 18.6377 14.0872 18.5762 14.0428C18.443 13.9404 18.2996 13.8482 18.1527 13.7628C18.5113 13.0388 18.7299 12.1953 18.7435 11.2391L18.747 10.1667C18.747 9.77057 18.4259 9.45296 18.0332 9.45296H7.81866C7.70254 9.02608 7.69913 8.57528 7.81524 8.1484C8.14309 6.99068 8.64852 6.67308 9.32813 6.34181C11.0562 5.50853 12.2993 5.91834 12.8047 6.16423C12.9208 7.31853 13.2794 8.11083 13.8668 8.52747C14.3381 8.85874 14.864 8.8724 15.1714 8.78019C15.3011 8.74262 15.4138 8.67091 15.5026 8.57187C16.4691 7.48929 16.8652 6.41695 16.6774 5.37534C16.4042 3.8488 14.9528 3.05991 14.9289 3.04625C14.7718 2.95063 11.0732 0.775214 7.081 3.2614C5.47249 4.26202 4.38307 5.80906 4.08938 7.50295C3.74787 9.45638 4.31477 12.2807 7.01952 13.8106C7.07417 13.8414 7.13222 13.8379 7.18686 13.855C8.07137 15.5557 9.81307 16.6622 12.0807 16.8705V22.5737C10.7591 22.847 10.0077 23.8203 10.0077 25.3605C10.0077 25.7566 10.3287 26.0742 10.7249 26.0742H15.0313C15.4275 26.0742 15.7485 25.7532 15.7485 25.3605C15.7485 23.7588 14.946 22.7582 13.515 22.5362V22.3927C13.6687 22.4235 14.3654 22.5567 15.2977 22.5567C16.5408 22.5567 18.1971 22.321 19.4983 21.2863C20.5467 20.453 21.0897 19.186 20.9907 17.8063Z" fill="#86888C"/>
</svg>
