<svg width="40" height="40" viewBox="0 0 40 40" fill="none" xmlns="http://www.w3.org/2000/svg">
<path fill-rule="evenodd" clip-rule="evenodd" d="M26.0026 29.3196C25.2547 29.9139 24.3787 30.2827 23.4976 30.4978C25.2547 29.4016 26.2075 28.039 26.2075 26.0258C26.2075 24.0843 24.7373 22.7831 23.3901 22.025C23.6411 21.7945 23.8818 21.5486 24.1072 21.2925C24.3173 21.3847 24.4966 21.4974 24.6758 21.6305C24.8295 21.7432 24.973 21.8457 25.1215 21.9328C26.4688 22.7165 27.3755 24.2021 27.4933 25.8055C27.5394 26.6354 27.4267 28.1875 26.0026 29.3196ZM18.2725 30.5593V24.2738C19.3842 24.156 20.465 23.8384 21.464 23.3364C22.4219 23.6847 24.1994 24.6734 24.1994 26.0309C24.1943 27.747 23.2722 28.9252 18.2725 30.5593ZM6.24971 10.5861C6.58781 8.64978 7.86334 6.86198 9.75872 5.67865C14.6047 2.6563 19.0922 5.2586 19.3278 5.39691C19.3381 5.40203 20.6751 6.14481 20.9005 7.40498C21.0388 8.16825 20.7365 9.03398 19.9989 9.97655C19.7069 9.72554 19.3842 8.96739 19.3073 7.5228C19.292 7.21032 19.1383 6.91833 18.8873 6.72879C18.7541 6.63146 15.66 4.31603 11.0547 6.5495C9.44112 7.32814 8.30901 8.27583 7.64819 10.6015C7.32034 11.7951 7.37669 13.0604 7.80187 14.2181V15.6524C7.80187 15.9086 7.82236 16.1544 7.84285 16.4003C6.27533 14.633 5.9526 12.3176 6.24971 10.5861ZM29.486 25.6723C29.3221 23.4184 28.0363 21.3283 26.1307 20.2116C26.0385 20.1604 25.9565 20.0938 25.8643 20.0272C25.6645 19.8735 25.4494 19.7352 25.2291 19.6071C25.767 18.5211 26.0948 17.2558 26.1153 15.8215L26.1204 14.213C26.1204 13.6187 25.6389 13.1423 25.0498 13.1423H9.72798C9.55382 12.502 9.54869 11.8258 9.72286 11.1855C10.2146 9.44891 10.9728 8.97251 11.9922 8.47561C14.5842 7.22569 16.4489 7.84041 17.207 8.20924C17.3812 9.94069 17.9191 11.1291 18.8002 11.7541C19.5071 12.251 20.296 12.2715 20.757 12.1332C20.9517 12.0768 21.1207 11.9693 21.2539 11.8207C22.7036 10.1968 23.2979 8.58831 23.0161 7.02591C22.6063 4.73609 20.4292 3.55276 20.3933 3.53227C20.1577 3.38883 14.6099 0.125711 8.62149 3.85499C6.20873 5.35593 4.57461 7.67648 4.13406 10.2173C3.6218 13.1475 4.47216 17.3839 8.52929 19.6788C8.61125 19.7249 8.69833 19.7198 8.7803 19.7454C10.1071 22.2965 12.7196 23.9562 16.121 24.2687V32.8235C14.1386 33.2333 13.0116 34.6933 13.0116 37.0036C13.0116 37.5978 13.4931 38.0742 14.0873 38.0742H20.547C21.1412 38.0742 21.6228 37.5927 21.6228 37.0036C21.6228 34.6011 20.4189 33.1001 18.2725 32.7672V32.552C18.5031 32.5981 19.5481 32.7979 20.9466 32.7979C22.8112 32.7979 25.2957 32.4444 27.2474 30.8923C28.8201 29.6424 29.6346 27.7419 29.486 25.6723Z" fill="#86888C"/>
</svg>
