<svg width="28" height="28" viewBox="0 0 28 28" fill="none" xmlns="http://www.w3.org/2000/svg">
<path fill-rule="evenodd" clip-rule="evenodd" d="M22.7073 13.0445L18.79 16.9618C18.7525 16.9687 18.7149 16.9618 18.6739 16.9755C16.8673 17.5527 14.8625 16.0397 13.493 14.6702C11.4609 12.6381 10.7369 10.8417 11.2799 9.17507C11.2902 9.14092 11.2867 9.10676 11.2936 9.07603L14.3502 6.01938C14.4527 5.90326 14.5654 5.79397 14.6781 5.6881L14.8898 5.48319C16.1501 4.22296 17.4205 3.57065 18.6671 3.55015H18.7354C20.0025 3.55015 21.2968 4.20247 22.581 5.4866C25.1287 8.03096 25.1663 10.507 22.7073 13.0445ZM23.6363 4.42787C22.0311 2.82271 20.3167 2.02354 18.6364 2.05769C16.9902 2.08843 15.3748 2.8876 13.8311 4.42787L13.6433 4.60547C13.493 4.74891 13.3461 4.88893 13.2505 5.00505L4.98902 13.27C4.83875 13.3997 4.69531 13.5466 4.54846 13.7003L4.37086 13.8847C2.82717 15.4284 2.03142 17.0438 2.00068 18.6865C1.97336 20.3942 2.76911 22.0745 4.37769 23.6796C5.96237 25.2643 7.63243 26.0566 9.29565 26.0566C10.8496 26.0566 12.3967 25.3668 13.8687 23.9904C13.9506 23.9221 14.0224 23.847 14.1009 23.765L23.7695 14.093C26.7988 10.9715 26.751 7.53916 23.6363 4.42787Z" fill="#86888C"/>
</svg>
