<svg width="28" height="28" viewBox="0 0 28 28" fill="none" xmlns="http://www.w3.org/2000/svg">
<path fill-rule="evenodd" clip-rule="evenodd" d="M25.6039 9.32309L18.7031 2.38804C18.2012 1.88267 17.4022 1.85877 16.8763 2.38804C15.9783 3.2929 15.4388 4.28997 15.2715 5.35874L12.1882 8.46602C10.4126 8.15871 7.88583 8.45578 5.21566 11.1431L5.1781 11.184C4.89127 11.4709 4.73762 11.8499 4.73762 12.2562C4.73762 12.6592 4.89469 13.0382 5.1781 13.325L9.37457 17.5523L2.22451 24.6888C1.92745 24.9859 1.92403 25.4741 2.2211 25.7746C2.37134 25.9249 2.56597 26 2.76401 26C2.95523 26 3.15327 25.9249 3.3001 25.7781L10.4536 18.6381L14.7422 22.961C15.0291 23.2512 15.4047 23.3981 15.7905 23.3981C16.1968 23.3981 16.61 23.2342 16.9446 22.8961C19.0992 20.7244 19.9802 18.3752 19.5568 15.9064L22.6435 12.7957C23.7123 12.6148 24.7161 12.0616 25.6449 11.126C25.8737 10.8972 26 10.5899 26 10.2621C25.9966 9.9104 25.86 9.57919 25.6039 9.32309Z" fill="#86888C"/>
</svg>
