<svg width="40" height="40" viewBox="0 0 40 40" fill="none" xmlns="http://www.w3.org/2000/svg">
<path fill-rule="evenodd" clip-rule="evenodd" d="M37.4059 12.9846L27.0547 2.58205C26.3018 1.82401 25.1033 1.78816 24.3145 2.58205C22.9675 3.93936 22.1582 5.43495 21.9072 7.03811L17.2822 11.699C14.6189 11.2381 10.8287 11.6837 6.82348 15.7146L6.76714 15.7761C6.33691 16.2063 6.10643 16.7748 6.10643 17.3843C6.10643 17.9887 6.34203 18.5573 6.76714 18.9875L13.0619 25.3284L2.33677 36.0332C1.89117 36.4788 1.88605 37.2112 2.33165 37.662C2.55701 37.8873 2.84895 38 3.14602 38C3.43284 38 3.72991 37.8873 3.95014 37.6671L14.6804 26.9572L21.1134 33.4415C21.5436 33.8769 22.107 34.0971 22.6858 34.0971C23.2953 34.0971 23.915 33.8513 24.4169 33.3442C27.6488 30.0867 28.9702 26.5628 28.3351 22.8597L32.9652 18.1936C34.5684 17.9221 36.0742 17.0924 37.4673 15.689C37.8105 15.3458 38 14.8849 38 14.3932C37.9949 13.8656 37.79 13.3688 37.4059 12.9846Z" fill="#86888C"/>
</svg>
