<svg width="24" height="24" viewBox="0 0 24 24" fill="none" xmlns="http://www.w3.org/2000/svg">
<path fill-rule="evenodd" clip-rule="evenodd" d="M21.6699 8.10257L15.9193 2.32336C15.501 1.90223 14.8351 1.88231 14.3969 2.32336C13.6486 3.07742 13.199 3.90831 13.0596 4.79895L10.4901 7.38835C9.0105 7.13226 6.90486 7.37982 4.67971 9.61923L4.64841 9.65337C4.4094 9.8924 4.28135 10.2082 4.28135 10.5469C4.28135 10.8826 4.41224 11.1985 4.64841 11.4375L8.14548 14.9602L2.18709 20.9073C1.93954 21.1549 1.93669 21.5618 2.18425 21.8122C2.30945 21.9374 2.47164 22 2.63668 22C2.79602 22 2.96106 21.9374 3.08341 21.815L9.04464 15.8651L12.6185 19.4675C12.8576 19.7094 13.1706 19.8317 13.4921 19.8317C13.8307 19.8317 14.175 19.6951 14.4539 19.4134C16.2493 17.6037 16.9835 15.646 16.6306 13.5887L19.2029 10.9964C20.0935 10.8456 20.9301 10.3847 21.7041 9.605C21.8947 9.41435 22 9.15826 22 8.88509C21.9972 8.592 21.8833 8.31599 21.6699 8.10257Z" fill="#86888C"/>
</svg>
