<svg width="28" height="28" viewBox="0 0 28 28" fill="none" xmlns="http://www.w3.org/2000/svg">
<path fill-rule="evenodd" clip-rule="evenodd" d="M25.9969 5.27868C26.0344 4.53754 25.7339 3.78616 25.1226 3.10992C23.8693 1.71304 22.2882 1.63107 20.8915 2.88451C20.55 3.19189 17.4048 6.57993 16.5408 7.50891L5.8247 5.93443C5.63005 5.91052 5.43881 5.99932 5.32953 6.16326L4.22992 7.90851C4.15137 8.03146 4.13088 8.17832 4.17528 8.31835C4.21626 8.45838 4.31529 8.57109 4.44506 8.63257L12.1834 12.2085C11.1179 13.3663 10.3188 14.1416 9.60165 14.8383C8.63863 15.7741 7.86685 16.5221 6.87993 17.7789L3.40008 17.5262C3.21909 17.5091 3.04151 17.5979 2.94589 17.7516L2.08191 19.0597C1.93165 19.2919 1.99312 19.5993 2.22534 19.753L5.65396 22.0071L7.88734 25.7572C8.02052 25.9792 8.30055 26.0612 8.53277 25.9519L10.0558 25.2176C10.2402 25.1288 10.3529 24.9341 10.3359 24.7292L10.0456 20.9484C11.3467 19.9306 12.1014 19.1724 13.0439 18.2229C13.9011 17.3452 14.7856 16.4947 15.6939 15.6716L19.3718 23.4177C19.4914 23.667 19.7885 23.7729 20.0378 23.6534H20.0412L21.7999 22.7927C21.9979 22.697 22.1072 22.4819 22.0731 22.2667L20.3758 11.4707C21.233 10.6852 24.6036 7.61137 24.8972 7.34497C25.5768 6.73021 25.9593 6.0164 25.9969 5.27868Z" fill="#86888C"/>
</svg>
