<svg width="20" height="20" viewBox="0 0 20 20" fill="none" xmlns="http://www.w3.org/2000/svg">
<path fill-rule="evenodd" clip-rule="evenodd" d="M17.9979 4.18579C18.023 3.6917 17.8226 3.19078 17.4151 2.73995C16.5796 1.80869 15.5255 1.75404 14.5943 2.58967C14.3667 2.79459 12.2699 5.05329 11.6939 5.67261L4.5498 4.62295C4.42003 4.60701 4.29254 4.66621 4.21969 4.77551L3.48661 5.93901C3.43425 6.02098 3.42059 6.11888 3.45019 6.21224C3.4775 6.30559 3.54353 6.38073 3.63004 6.42171L8.7889 8.80564C8.07859 9.57751 7.54586 10.0944 7.06777 10.5589C6.42575 11.1827 5.91123 11.6814 5.25328 12.5193L2.93339 12.3508C2.81273 12.3394 2.69434 12.3986 2.6306 12.5011L2.05461 13.3731C1.95443 13.528 1.99541 13.7329 2.15022 13.8353L4.43597 15.3381L5.92489 17.8381C6.01368 17.9861 6.20037 18.0408 6.35518 17.9679L7.37056 17.4784C7.4935 17.4192 7.56863 17.2894 7.55724 17.1528L7.36373 14.6323C8.23113 13.9537 8.73426 13.4483 9.36262 12.8153C9.93405 12.2301 10.5237 11.6632 11.1293 11.1144L13.5812 16.2785C13.6609 16.4447 13.859 16.5153 14.0252 16.4356H14.0275L15.1999 15.8618C15.332 15.798 15.4048 15.6546 15.3821 15.5111L14.2506 8.31383C14.822 7.79014 17.069 5.74092 17.2648 5.56332C17.7179 5.15347 17.9729 4.6776 17.9979 4.18579Z" fill="#86888C"/>
</svg>
