<svg width="28" height="28" viewBox="0 0 28 28" fill="none" xmlns="http://www.w3.org/2000/svg">
<path d="M16.3329 16.8455C15.3622 18.8473 14.62 21.3965 14.1262 24.4294C14.0523 24.7787 13.7098 25.0037 13.3605 24.9298C13.0313 24.8626 12.8096 24.5536 12.8499 24.2211C13.3873 20.9263 14.2774 17.9303 15.4428 15.7405" fill="#86888C"/>
<path d="M11.9488 12.7742C13.5308 16.0086 13.8667 20.2338 14.001 22.6285C14.0379 23.307 14.0715 23.8914 14.1253 24.2205C14.1992 24.5698 13.9741 24.9124 13.6248 24.9863C13.2755 25.0602 12.9329 24.8352 12.859 24.4859C12.8557 24.4657 12.8523 24.4489 12.849 24.4288C12.7852 24.0325 12.7516 23.4447 12.7079 22.6991C12.5803 20.4555 12.3888 16.7273 11.0151 13.7616" fill="#86888C"/>
<path d="M10.699 13.1759C9.76862 11.4529 8.48896 10.2706 6.89359 9.66273C6.56108 9.5351 6.39315 9.16229 6.52078 8.82642C6.64841 8.49391 7.02122 8.32597 7.35709 8.4536C9.25138 9.17908 10.7594 10.5595 11.8376 12.5613L11.9484 12.7729C12.5261 11.9063 12.825 10.7778 12.825 9.40075C12.825 7.63409 12.3414 6.27046 11.3942 5.34683C10.4739 4.45342 9.14726 4 7.44777 4H3.96818C2.88333 4 2 4.87997 2 5.96483V9.42762C2 12.8904 3.92452 14.7981 7.41754 14.7981C8.91887 14.7981 10.128 14.4455 11.0214 13.7637C10.9845 13.7234 10.9576 13.6763 10.9341 13.626C10.8568 13.4748 10.7796 13.3237 10.699 13.1759ZM25.5678 9.2261C25.5645 8.14125 24.6845 7.26127 23.5996 7.26127H20.1167C18.4172 7.26127 17.0905 7.7147 16.1703 8.6081C15.2197 9.53174 14.7395 10.8954 14.7395 12.662C14.7395 13.8879 14.9779 14.9224 15.4414 15.7453C16.9024 12.9811 18.7732 11.3723 21.0067 10.9659C21.3594 10.9021 21.6953 11.1338 21.7591 11.4865C21.8229 11.8391 21.5912 12.175 21.2385 12.2388C19.3442 12.5848 17.7287 14.0626 16.4356 16.6353C16.3986 16.7059 16.3852 16.7966 16.3315 16.8469C17.245 17.6631 18.5079 18.0594 20.1503 18.0594C23.6433 18.0594 25.5678 16.1517 25.5678 12.6889V9.2261Z" fill="#86888C"/>
</svg>
