<svg width="24" height="24" viewBox="0 0 24 24" fill="none" xmlns="http://www.w3.org/2000/svg">
<path fill-rule="evenodd" clip-rule="evenodd" d="M21.9974 4.73223C22.0287 4.11462 21.7783 3.48847 21.2689 2.92493C20.2245 1.76086 18.9069 1.69256 17.7429 2.73709C17.4583 2.99324 14.8374 5.81661 14.1174 6.59076L5.18725 5.27869C5.02504 5.25877 4.86568 5.33277 4.77461 5.46938L3.85826 6.92376C3.79281 7.02622 3.77574 7.1486 3.81273 7.2653C3.84688 7.38199 3.92941 7.47591 4.03755 7.52714L10.4861 10.507C9.59824 11.4719 8.93232 12.118 8.33471 12.6986C7.53219 13.4784 6.88904 14.1017 6.0666 15.1491L3.16674 14.9385C3.01591 14.9243 2.86793 14.9983 2.78824 15.1263L2.06826 16.2164C1.94304 16.4099 1.99427 16.6661 2.18778 16.7942L5.04496 18.6726L6.90612 21.7977C7.0171 21.9827 7.25046 22.051 7.44397 21.9599L8.7132 21.348C8.86687 21.274 8.96078 21.1118 8.94655 20.941L8.70466 17.7903C9.78891 16.9422 10.4178 16.3103 11.2033 15.5191C11.9176 14.7876 12.6546 14.079 13.4116 13.393L16.4765 19.8481C16.5761 20.0558 16.8237 20.1441 17.0315 20.0445H17.0343L18.4999 19.3272C18.665 19.2475 18.756 19.0682 18.7276 18.8889L17.3132 9.89228C18.0275 9.23767 20.8363 6.67614 21.081 6.45415C21.6474 5.94184 21.9661 5.347 21.9974 4.73223Z" fill="#86888C"/>
</svg>
