<svg width="20" height="20" viewBox="0 0 20 20" fill="none" xmlns="http://www.w3.org/2000/svg">
<path fill-rule="evenodd" clip-rule="evenodd" d="M14.4371 12.9761V7.51227C14.4371 7.32787 14.2869 7.17989 14.1047 7.17989H13.8816C13.6972 7.17989 13.5492 7.33014 13.5492 7.51227V11.3916L10.856 7.32787C10.7945 7.23453 10.6898 7.17761 10.5783 7.17761H10.4007C10.2186 7.17761 10.0683 7.32787 10.0683 7.51V12.9739C10.0683 13.1583 10.2186 13.3062 10.4007 13.3062H10.6238C10.8082 13.3062 10.9562 13.156 10.9562 12.9739V9.10135L13.638 13.1605C13.6995 13.2539 13.8042 13.3108 13.9158 13.3108H14.1002C14.2869 13.3108 14.4371 13.1605 14.4371 12.9761ZM7.18156 13.4223C8.22652 13.4223 9.47183 12.8737 9.47183 10.2533C9.47183 7.6261 8.22652 7.07516 7.18156 7.07516C6.13204 7.07516 4.88219 7.6261 4.88219 10.2533C4.88219 12.8714 6.13204 13.4223 7.18156 13.4223ZM10.3278 2.00744C11.6073 2.03703 18 2.56748 18 10.0211C18 17.4793 11.6323 17.9733 10.3574 17.9961C10.2186 17.9983 10.0615 18.0006 9.89983 18.0006C9.8156 18.0006 9.72681 18.0006 9.64485 17.9983C2.36881 17.8936 2 11.296 2 9.97556C2 8.65513 2.36653 2.06207 9.59021 2.00061C9.83381 1.99833 10.1024 2.00288 10.3278 2.00744ZM7.18156 7.98126C7.81901 7.98126 8.5498 8.24079 8.5498 10.2533C8.5498 12.2408 7.85771 12.5094 7.18156 12.5094C6.50085 12.5094 5.80421 12.2408 5.80421 10.2533C5.80421 8.24989 6.50085 7.98126 7.18156 7.98126Z" fill="#86888C"/>
</svg>
