<svg width="28" height="28" viewBox="0 0 28 28" fill="none" xmlns="http://www.w3.org/2000/svg">
<path d="M11 9.2H17C17.9941 9.2 18.8 10.0059 18.8 11V17C18.8 17.9941 17.9941 18.8 17 18.8H11C10.0059 18.8 9.2 17.9941 9.2 17V11C9.2 10.0059 10.0059 9.2 11 9.2Z" fill="#86888C"/>
<path fill-rule="evenodd" clip-rule="evenodd" d="M13.9932 2C17.8078 2 20.7728 2.99616 22.8098 4.95778C24.9252 6.99787 26 10.0409 26 14.0017C26 17.9625 24.9286 21.0055 22.8132 23.0422C20.7762 25.0038 17.8078 26 13.9966 26C10.1854 26 7.22036 25.0038 5.18339 23.0422C3.07137 21.0055 2 17.9659 2 14.0017C2 10.0375 3.07137 6.99787 5.18339 4.95778C7.21695 2.99616 10.1786 2 13.9932 2ZM8 11C8 9.34315 9.34315 8 11 8H17C18.6569 8 20 9.34315 20 11V17C20 18.6569 18.6569 20 17 20H11C9.34315 20 8 18.6569 8 17V11Z" fill="#86888C"/>
</svg>
