<svg width="28" height="28" viewBox="0 0 28 28" fill="none" xmlns="http://www.w3.org/2000/svg">
<path fill-rule="evenodd" clip-rule="evenodd" d="M2 13.8729C2 6.10402 6.14912 2 14.0034 2C21.8509 2 26 6.10402 26 13.8729C26 21.6351 21.8509 25.7391 14.0034 25.7391C6.14912 25.7391 2 21.6351 2 13.8729ZM7.79809 9.30767C7.42347 9.30767 7.12311 9.61137 7.12311 9.98255V17.1701C7.12311 17.2916 7.15685 17.4131 7.22098 17.5177C7.40997 17.8349 7.82509 17.9395 8.1457 17.7471L14.1564 14.1365C14.2644 14.069 14.3555 13.9745 14.4129 13.8564V17.1768C14.4129 17.2983 14.4467 17.4198 14.5108 17.5244C14.6998 17.8416 15.1149 17.9462 15.4355 17.7539L21.4462 14.1432C21.5407 14.0859 21.6217 14.0049 21.6791 13.9104C21.8681 13.5898 21.7635 13.1748 21.4429 12.9858L15.4321 9.4089C15.3275 9.34816 15.2094 9.31442 15.0879 9.31442C14.7133 9.31442 14.4129 9.61811 14.4129 9.9893V13.2625C14.3555 13.1444 14.2644 13.0465 14.153 12.979L8.14233 9.40215C8.0377 9.34141 7.91958 9.30767 7.79809 9.30767Z" fill="#86888C"/>
</svg>
