<svg width="20" height="20" viewBox="0 0 20 20" fill="none" xmlns="http://www.w3.org/2000/svg">
<path d="M16.0908 3.97186C14.7205 2.66411 12.726 2 10.1599 2C7.5939 2 5.60166 2.66411 4.23371 3.97186C2.81298 5.33191 2.09229 7.35835 2.09229 10.0011C2.09229 12.6439 2.81298 14.6704 4.23371 16.0281C5.60395 17.3359 7.59849 18 10.1622 18C12.726 18 14.7228 17.3359 16.0931 16.0281C17.5161 14.6704 18.2368 12.6416 18.2368 10.0011C18.2368 7.36063 17.5138 5.33191 16.0908 3.97186ZM9.74451 4.22203C9.74451 3.97186 9.95108 3.76716 10.2035 3.76716C10.456 3.76716 10.6626 3.97186 10.6626 4.22203V7.5494C10.6626 7.79957 10.456 8.00426 10.2035 8.00426C9.95108 8.00426 9.74451 7.79957 9.74451 7.5494V4.22203ZM13.8759 13.7265C13.0267 14.5385 11.7987 14.9478 10.2242 14.9478C8.64969 14.9478 7.42405 14.5362 6.57483 13.7242C5.69347 12.8827 5.2459 11.6318 5.2459 10.0125C5.2459 8.6661 5.55575 7.57214 6.16857 6.75792C6.77451 5.95508 7.66046 5.43198 8.80577 5.20682C9.05365 5.15679 9.29694 5.31827 9.34514 5.56389C9.39564 5.80952 9.23268 6.0506 8.98479 6.09837C7.08436 6.47363 6.16169 7.75409 6.16169 10.0125C6.16169 11.3771 6.51515 12.4051 7.2106 13.0692C7.88309 13.7106 8.89758 14.0358 10.2242 14.0358C11.5508 14.0358 12.5653 13.7106 13.2378 13.0692C13.9333 12.4051 14.2867 11.3748 14.2867 10.0125C14.2867 7.72225 13.3365 6.43724 11.3833 6.08245C11.1331 6.03696 10.9679 5.80043 11.0138 5.55252C11.0597 5.30462 11.2984 5.14087 11.5485 5.18635C12.7237 5.40014 13.6326 5.91642 14.2546 6.72154C14.8858 7.5403 15.2048 8.64563 15.2048 10.0102C15.2071 11.6341 14.7595 12.8827 13.8759 13.7265Z" fill="#86888C"/>
</svg>
