<svg width="24" height="24" viewBox="0 0 24 24" fill="none" xmlns="http://www.w3.org/2000/svg">
<path d="M19.339 4.46439C17.641 2.82906 15.1709 2 11.9943 2C8.81766 2 6.34758 2.82906 4.65242 4.46724C2.89174 6.16524 2 8.70085 2 12.0028C2 15.3048 2.89174 17.8376 4.65242 19.5356C6.34758 21.1709 8.81766 22 11.9943 22C15.1709 22 17.641 21.1709 19.339 19.5356C21.0997 17.8376 21.9943 15.3048 21.9943 12.0028C21.9943 8.70085 21.1026 6.16239 19.339 4.46439ZM16.1595 12.4046L9.39316 16.3105C9.1567 16.4473 8.8547 16.3647 8.71795 16.1282C8.67521 16.0541 8.65242 15.9687 8.65242 15.8832V8.06838C8.65242 7.79487 8.87464 7.5755 9.14815 7.5755C9.23362 7.5755 9.31909 7.59829 9.39316 7.64103L16.1595 11.547C16.396 11.6838 16.4758 11.9858 16.339 12.2222C16.2963 12.2991 16.2365 12.359 16.1595 12.4046Z" fill="#86888C"/>
</svg>
