<svg width="40" height="40" viewBox="0 0 40 40" fill="none" xmlns="http://www.w3.org/2000/svg">
<path d="M33.2198 6.43667C30.1643 3.49424 25.7168 2 19.9949 2C14.273 2 9.83054 3.49424 6.78021 6.43667C3.60705 9.4968 2 14.0563 2 20.0026C2 25.9488 3.60705 30.5083 6.77509 33.5633C9.83054 36.5058 14.2781 38 19.9949 38C25.7117 38 30.1643 36.5058 33.2198 33.5633C36.3929 30.5083 38 25.9437 38 20.0026C38 14.0614 36.3929 9.4968 33.2198 6.43667ZM30.2309 24.8947C30.2309 25.4576 29.7754 25.9181 29.2073 25.9181C29.023 25.9181 28.8439 25.867 28.6852 25.7748L19.5701 20.3505C19.4012 20.2482 19.263 20.0998 19.176 19.9207V24.8844C19.176 25.4473 18.7205 25.9079 18.1524 25.9079C17.9682 25.9079 17.789 25.8567 17.6304 25.7646L8.51521 20.3403C8.029 20.0537 7.87034 19.4243 8.15695 18.9382C8.24396 18.7949 8.36679 18.6721 8.51009 18.5851L17.6252 13.1096C18.1115 12.8179 18.741 12.9765 19.0276 13.4576C19.1248 13.6162 19.176 13.8004 19.176 13.9846V19.02C19.263 18.8409 19.4012 18.6977 19.565 18.5953L28.6801 13.1198C29.1663 12.8281 29.7958 12.9868 30.0825 13.4678C30.1797 13.6264 30.2309 13.8107 30.2309 13.9949V24.8947Z" fill="#86888C"/>
</svg>
