<svg width="40" height="40" viewBox="0 0 40 40" fill="none" xmlns="http://www.w3.org/2000/svg">
<path fill-rule="evenodd" clip-rule="evenodd" d="M29.9835 26.6963V14.4026C29.9835 13.9877 29.6454 13.6547 29.2356 13.6547H28.7336C28.3187 13.6547 27.9858 13.9928 27.9858 14.4026V23.1311L21.926 13.9877C21.7877 13.7777 21.5521 13.6496 21.3011 13.6496H20.9015C20.4917 13.6496 20.1537 13.9877 20.1537 14.3975V26.6912C20.1537 27.1061 20.4917 27.439 20.9015 27.439H21.4035C21.8184 27.439 22.1514 27.101 22.1514 26.6912V17.978L28.1855 27.1112C28.3238 27.3212 28.5595 27.4493 28.8105 27.4493H29.2254C29.6454 27.4493 29.9835 27.1112 29.9835 26.6963ZM13.6585 27.7003C16.0097 27.7003 18.8116 26.4658 18.8116 20.5699C18.8116 14.6587 16.0097 13.4191 13.6585 13.4191C11.2971 13.4191 8.48492 14.6587 8.48492 20.5699C8.48492 26.4607 11.2971 27.7003 13.6585 27.7003ZM20.7376 2.01673C23.6164 2.08332 38 3.27683 38 20.0475C38 36.8283 23.6727 37.9399 20.8042 37.9911C20.4917 37.9962 20.1383 38.0014 19.7746 38.0014C19.5851 38.0014 19.3853 38.0014 19.2009 37.9962C2.82982 37.7606 2 22.916 2 19.945C2 16.974 2.8247 2.13967 19.078 2.00136C19.6261 1.99624 20.2305 2.00648 20.7376 2.01673ZM13.6585 15.4578C15.0928 15.4578 16.7371 16.0418 16.7371 20.5699C16.7371 25.0418 15.1799 25.6462 13.6585 25.6462C12.1269 25.6462 10.5595 25.0418 10.5595 20.5699C10.5595 16.0623 12.1269 15.4578 13.6585 15.4578Z" fill="#86888C"/>
</svg>
