<svg width="40" height="40" viewBox="0 0 40 40" fill="none" xmlns="http://www.w3.org/2000/svg">
<path d="M15.5 12.8H24.5C25.9912 12.8 27.2 14.0088 27.2 15.5V24.5C27.2 25.9912 25.9912 27.2 24.5 27.2H15.5C14.0088 27.2 12.8 25.9912 12.8 24.5V15.5C12.8 14.0088 14.0088 12.8 15.5 12.8Z" fill="#86888C"/>
<path fill-rule="evenodd" clip-rule="evenodd" d="M19.9898 2C25.7117 2 30.1592 3.49424 33.2147 6.43667C36.3878 9.4968 38 14.0614 38 20.0026C38 25.9437 36.3929 30.5083 33.2198 33.5633C30.1643 36.5058 25.7117 38 19.9949 38C14.2781 38 9.83054 36.5058 6.77509 33.5633C3.60705 30.5083 2 25.9488 2 20.0026C2 14.0563 3.60705 9.4968 6.77509 6.43667C9.82542 3.49424 14.2678 2 19.9898 2ZM11 15.5C11 13.0147 13.0147 11 15.5 11H24.5C26.9853 11 29 13.0147 29 15.5V24.5C29 26.9853 26.9853 29 24.5 29H15.5C13.0147 29 11 26.9853 11 24.5V15.5Z" fill="#86888C"/>
</svg>
