<svg width="20" height="20" viewBox="0 0 20 20" fill="none" xmlns="http://www.w3.org/2000/svg">
<path fill-rule="evenodd" clip-rule="evenodd" d="M2 9.91529C2 4.73601 4.76608 2 10.0023 2C15.2339 2 18 4.73601 18 9.91529C18 15.0901 15.2339 17.8261 10.0023 17.8261C4.76608 17.8261 2 15.0901 2 9.91529ZM5.86536 6.87165C5.61561 6.87165 5.41537 7.07411 5.41537 7.32157V12.1133C5.41537 12.1943 5.43787 12.2752 5.48061 12.345C5.60661 12.5564 5.88335 12.6262 6.0971 12.4979L10.1042 10.0909C10.1762 10.0459 10.237 9.98287 10.2752 9.90414V12.1178C10.2752 12.1987 10.2977 12.2797 10.3405 12.3495C10.4665 12.5609 10.7432 12.6307 10.957 12.5024L14.9641 10.0954C15.0271 10.0571 15.0811 10.0031 15.1194 9.94013C15.2454 9.72642 15.1756 9.44971 14.9619 9.32373L10.9547 6.93914C10.885 6.89864 10.8062 6.87615 10.7252 6.87615C10.4755 6.87615 10.2752 7.07861 10.2752 7.32607V9.5082C10.237 9.42947 10.1762 9.36423 10.102 9.31924L6.09485 6.93464C6.0251 6.89414 5.94635 6.87165 5.86536 6.87165Z" fill="#86888C"/>
</svg>
