<svg width="40" height="40" viewBox="0 0 40 40" fill="none" xmlns="http://www.w3.org/2000/svg">
<path d="M33.2103 6.4359C30.1538 3.49231 25.7077 2 19.9897 2C14.2718 2 9.82564 3.49231 6.77436 6.44103C3.60513 9.49744 2 14.0615 2 20.0051C2 25.9487 3.60513 30.5077 6.77436 33.5641C9.82564 36.5077 14.2718 38 19.9897 38C25.7077 38 30.1538 36.5077 33.2103 33.5641C36.3795 30.5077 37.9897 25.9487 37.9897 20.0051C37.9897 14.0615 36.3846 9.49231 33.2103 6.4359ZM27.4872 20.7282L15.3077 27.759C14.8821 28.0051 14.3385 27.8564 14.0923 27.4308C14.0154 27.2974 13.9744 27.1436 13.9744 26.9897V12.9231C13.9744 12.4308 14.3744 12.0359 14.8667 12.0359C15.0205 12.0359 15.1744 12.0769 15.3077 12.1538L27.4872 19.1846C27.9128 19.4308 28.0564 19.9744 27.8103 20.4C27.7333 20.5385 27.6256 20.6462 27.4872 20.7282Z" fill="#86888C"/>
</svg>
