<svg width="28" height="28" viewBox="0 0 28 28" fill="none" xmlns="http://www.w3.org/2000/svg">
<path d="M23.09 4.95778C21.0346 2.99616 18.0428 2 14.1938 2C10.3447 2 7.35634 2.99616 5.30443 4.95778C3.17333 6.99787 2.09229 10.0375 2.09229 14.0017C2.09229 17.9659 3.17333 21.0055 5.30443 23.0422C7.35979 25.0038 10.3516 26 14.1972 26C18.0428 26 21.0381 25.0038 23.0934 23.0422C25.228 21.0055 26.309 17.9625 26.309 14.0017C26.309 10.0409 25.2245 6.99787 23.09 4.95778ZM13.5706 5.33305C13.5706 4.95778 13.8805 4.65075 14.2592 4.65075C14.6379 4.65075 14.9477 4.95778 14.9477 5.33305V10.3241C14.9477 10.6994 14.6379 11.0064 14.2592 11.0064C13.8805 11.0064 13.5706 10.6994 13.5706 10.3241V5.33305ZM19.7677 19.5898C18.4938 20.8077 16.6519 21.4217 14.2902 21.4217C11.9284 21.4217 10.0899 20.8043 8.81609 19.5864C7.49406 18.3241 6.82271 16.4478 6.82271 14.0188C6.82271 11.9991 7.28749 10.3582 8.20672 9.13689C9.11562 7.93262 10.4445 7.14797 12.1625 6.81023C12.5343 6.73518 12.8993 6.9774 12.9716 7.34584C13.0473 7.71429 12.8029 8.07591 12.431 8.14755C9.5804 8.71045 8.19639 10.6311 8.19639 14.0188C8.19639 16.0657 8.72658 17.6077 9.76975 18.6038C10.7785 19.5659 12.3002 20.0537 14.2902 20.0537C16.2801 20.0537 17.8018 19.5659 18.8106 18.6038C19.8537 17.6077 20.3839 16.0623 20.3839 14.0188C20.3839 10.5834 18.9586 8.65586 16.0288 8.12367C15.6535 8.05544 15.4056 7.70064 15.4745 7.32878C15.5433 6.95693 15.9014 6.7113 16.2767 6.77953C18.0394 7.10021 19.4027 7.87463 20.3357 9.0823C21.2825 10.3104 21.7611 11.9684 21.7611 14.0154C21.7645 16.4512 21.0932 18.3241 19.7677 19.5898Z" fill="#86888C"/>
</svg>
