<svg width="28" height="28" viewBox="0 0 28 28" fill="none" xmlns="http://www.w3.org/2000/svg">
<path d="M22.8132 4.95778C20.7762 2.99616 17.8112 2 13.9966 2C10.182 2 7.22036 2.99616 5.18681 4.95778C3.07137 6.99787 2 10.0375 2 14.0017C2 17.9659 3.07137 21.0055 5.18339 23.0422C7.22036 25.0038 10.1854 26 13.9966 26C17.8078 26 20.7762 25.0038 22.8132 23.0422C24.9286 21.0055 26 17.9625 26 14.0017C26 10.0409 24.9286 6.99787 22.8132 4.95778ZM20.8206 17.2631C20.8206 17.6384 20.5169 17.9454 20.1382 17.9454C20.0154 17.9454 19.8959 17.9113 19.7902 17.8499L13.7134 14.2337C13.6008 14.1655 13.5087 14.0665 13.4507 13.9471V17.2563C13.4507 17.6316 13.147 17.9386 12.7683 17.9386C12.6454 17.9386 12.526 17.9045 12.4202 17.8431L6.34347 14.2269C6.01933 14.0358 5.91356 13.6162 6.10463 13.2921C6.16264 13.1966 6.24453 13.1147 6.34006 13.0567L12.4168 9.4064C12.741 9.21194 13.1606 9.3177 13.3517 9.63838C13.4165 9.74414 13.4507 9.86695 13.4507 9.98977V13.3467C13.5087 13.2273 13.6008 13.1318 13.71 13.0635L19.7867 9.41322C20.1109 9.21876 20.5306 9.32452 20.7216 9.6452C20.7865 9.75096 20.8206 9.87377 20.8206 9.99659V17.2631Z" fill="#86888C"/>
</svg>
