<svg width="20" height="20" viewBox="0 0 20 20" fill="none" xmlns="http://www.w3.org/2000/svg">
<path d="M15.8712 3.97151C14.5128 2.66325 12.5368 2 9.99544 2C7.45413 2 5.47806 2.66325 4.12194 3.97379C2.71339 5.33219 2 7.36068 2 10.0023C2 12.6439 2.71339 14.6701 4.12194 16.0285C5.47806 17.3368 7.45413 18 9.99544 18C12.5368 18 14.5128 17.3368 15.8712 16.0285C17.2798 14.6701 17.9954 12.6439 17.9954 10.0023C17.9954 7.36068 17.2821 5.32991 15.8712 3.97151ZM13.3276 10.3236L7.91453 13.4484C7.72536 13.5578 7.48376 13.4917 7.37436 13.3026C7.34017 13.2433 7.32194 13.1749 7.32194 13.1066V6.8547C7.32194 6.6359 7.49972 6.4604 7.71852 6.4604C7.78689 6.4604 7.85527 6.47863 7.91453 6.51282L13.3276 9.63761C13.5168 9.74701 13.5806 9.9886 13.4712 10.1778C13.437 10.2393 13.3892 10.2872 13.3276 10.3236Z" fill="#86888C"/>
</svg>
