<svg width="40" height="40" viewBox="0 0 40 40" fill="none" xmlns="http://www.w3.org/2000/svg">
<path fill-rule="evenodd" clip-rule="evenodd" d="M18.146 35.767H20.3739V29.073H18.146V35.767ZM13.0038 4.9347C13.0038 4.5557 13.3316 4.24328 13.7209 4.24328C14.1152 4.24328 14.4379 4.5557 14.4379 4.9347V12.0026H13.0038V4.9347ZM23.7951 4.9347C23.7951 4.5557 24.1229 4.24328 24.5122 4.24328C24.9065 4.24328 25.2292 4.5557 25.2292 4.9347V12.0077H23.7951V4.9347ZM28.6965 12.0077H27.5442V4.92958C27.5442 3.31626 26.1869 2 24.5122 2C22.8425 2 21.4802 3.31114 21.4802 4.92958V12.0026L16.7478 11.9974V4.92958C16.7478 3.31626 15.3854 2 13.7157 2C12.0461 2 10.6837 3.31114 10.6837 4.92958V11.9974H9.81306C8.81434 11.9974 8 12.7811 8 13.8259C8 18.8758 10.2433 21.5032 12.2714 22.8502V25.1293C12.2714 26.2715 12.6556 27.1985 13.3675 27.8028C13.9667 28.3406 14.8015 28.6223 15.8259 28.6786V36.2689C15.8259 37.2266 16.63 38 17.6184 38H20.886C21.8745 38 22.6786 37.2266 22.6786 36.2689V28.6786C23.7132 28.6274 24.5531 28.3457 25.1626 27.8028C25.8745 27.1831 26.233 26.2817 26.233 25.1242V22.8348C28.2612 21.4878 30.5045 18.8656 30.5045 13.8822V13.7542C30.5045 12.7913 29.6953 12.0077 28.6965 12.0077Z" fill="#86888C"/>
</svg>
