<svg width="24" height="24" viewBox="0 0 24 24" fill="none" xmlns="http://www.w3.org/2000/svg">
<path fill-rule="evenodd" clip-rule="evenodd" d="M11.6366 20.7594H12.8744V17.0405H11.6366V20.7594ZM8.77991 3.63039C8.77991 3.41983 8.96201 3.24627 9.17826 3.24627C9.39735 3.24627 9.57661 3.41983 9.57661 3.63039V7.55698H8.77991V3.63039ZM14.7751 3.63039C14.7751 3.41983 14.9572 3.24627 15.1734 3.24627C15.3925 3.24627 15.5718 3.41983 15.5718 3.63039V7.55982H14.7751V3.63039ZM17.4981 7.55982H16.8579V3.62754C16.8579 2.73126 16.1039 2 15.1734 2C14.2458 2 13.489 2.72841 13.489 3.62754V7.55698L10.8599 7.55413V3.62754C10.8599 2.73126 10.103 2 9.17542 2C8.24783 2 7.49097 2.72841 7.49097 3.62754V7.55413H7.00726C6.45241 7.55413 6 7.98947 6 8.56993C6 11.3754 7.24627 12.8351 8.37303 13.5834V14.8496C8.37303 15.4841 8.58643 15.9991 8.98193 16.3349C9.31484 16.6337 9.77863 16.7902 10.3477 16.8215V21.0383C10.3477 21.5704 10.7944 22 11.3436 22H13.1589C13.7081 22 14.1548 21.5704 14.1548 21.0383V16.8215C14.7295 16.793 15.1962 16.6365 15.5348 16.3349C15.9303 15.9906 16.1295 15.4898 16.1295 14.8468V13.5749C17.2562 12.8266 18.5025 11.3698 18.5025 8.60122V8.53009C18.5025 7.99516 18.0529 7.55982 17.4981 7.55982Z" fill="#86888C"/>
</svg>
