<svg width="28" height="28" viewBox="0 0 28 28" fill="none" xmlns="http://www.w3.org/2000/svg">
<path fill-rule="evenodd" clip-rule="evenodd" d="M24.6921 19.3187C25.4502 19.3187 26 19.7285 26 20.2919V25.1957C26 25.7694 25.4604 26.1963 24.6887 26.1963H19.9932V19.3187H24.6921ZM2 17.5156C2 16.8394 2.67957 16.4194 3.30791 16.4194H8.00341V26.1963H3.30791C2.58736 26.1963 2 25.6806 2 25.0762V17.5156ZM17.1929 12.7211C17.8896 12.7211 18.5009 13.305 18.5009 13.9743V26.2031H9.50256V13.9777C9.50256 13.3118 10.1138 12.7279 10.8105 12.7279H17.1929V12.7211ZM12.6545 5.58389L11.1964 5.80586L12.2789 7.00791C12.4462 7.17865 12.5316 7.45184 12.4906 7.68747L12.2345 9.2515L13.6107 8.57193C13.7234 8.51047 13.8497 8.47973 13.9761 8.47973C14.1127 8.47973 14.2527 8.5173 14.3688 8.58901L15.6904 9.31297L15.6938 9.31639C15.6938 9.31639 15.6972 9.31639 15.7006 9.31297L15.4616 7.68747C15.4206 7.4416 15.5162 7.16158 15.6972 6.98742L16.7661 5.90147L15.2499 5.57706C15.0074 5.54291 14.7854 5.37558 14.6762 5.15702L13.9966 3.71935L13.2829 5.14336C13.1702 5.38582 12.9209 5.5634 12.6545 5.58389ZM10.9573 7.80016L10.1241 6.95327C9.71087 6.52982 9.57086 5.92196 9.76209 5.3585C9.94308 4.8087 10.4109 4.41257 10.9744 4.3272L12.0979 4.15645L12.6067 3.08076C12.8628 2.5412 13.3887 2.20312 13.9795 2.20312C14.5669 2.20312 15.0928 2.53779 15.3489 3.08076L15.8611 4.15987L16.9846 4.3272C17.5515 4.41257 18.0194 4.81212 18.2038 5.36192C18.3882 5.92879 18.2481 6.53665 17.8349 6.95668L17.0017 7.80699L17.1998 9.01587C17.2715 9.45981 17.1554 9.89351 16.8924 10.2282C16.8002 10.3477 16.6944 10.4501 16.568 10.5423C16.1036 10.8736 15.4752 10.9077 14.9767 10.6345L14.2356 10.2282L13.9795 10.0882L13.7234 10.2282L12.9858 10.6345C12.7604 10.7609 12.5111 10.8189 12.2652 10.8189C11.9613 10.8189 11.6574 10.7267 11.3944 10.5423C11.2681 10.4536 11.1588 10.3477 11.07 10.2282C10.8105 9.89009 10.691 9.4564 10.7661 9.01587L10.9573 7.80016Z" fill="#86888C"/>
</svg>
