<svg width="20" height="20" viewBox="0 0 20 20" fill="none" xmlns="http://www.w3.org/2000/svg">
<path fill-rule="evenodd" clip-rule="evenodd" d="M17.1281 13.6135C17.6335 13.6135 18 13.8867 18 14.2623V17.5315C18 17.914 17.6403 18.1986 17.1258 18.1986H13.9954V13.6135H17.1281ZM2 12.4114C2 11.9607 2.45304 11.6806 2.87194 11.6806H6.00228V18.1986H2.87194C2.39158 18.1986 2 17.8548 2 17.4518V12.4114ZM12.1286 9.21508C12.5931 9.21508 13.0006 9.60438 13.0006 10.0506V18.2031H7.00171V10.0529C7.00171 9.60893 7.40922 9.21963 7.87365 9.21963H12.1286V9.21508ZM9.10302 4.45697L8.1309 4.60495L8.85259 5.40631C8.96414 5.52014 9.02106 5.70227 8.99374 5.85936L8.82299 6.90204L9.74047 6.449C9.81559 6.40802 9.89983 6.38753 9.98406 6.38753C10.0751 6.38753 10.1685 6.41257 10.2459 6.46038L11.1269 6.94302L11.1292 6.9453C11.1292 6.9453 11.1315 6.9453 11.1338 6.94302L10.9744 5.85936C10.9471 5.69544 11.0108 5.50876 11.1315 5.39265L11.8441 4.66869L10.8332 4.45241C10.6716 4.42965 10.5236 4.31809 10.4508 4.17239L9.99772 3.21394L9.52191 4.16328C9.44678 4.32492 9.28059 4.44331 9.10302 4.45697ZM7.97154 5.93448L7.41605 5.36989C7.14058 5.08759 7.04724 4.68235 7.17473 4.30671C7.29539 3.94018 7.60728 3.67609 7.98292 3.61918L8.73193 3.50534L9.07114 2.78821C9.24189 2.42851 9.59249 2.20312 9.98634 2.20312C10.3779 2.20312 10.7285 2.42623 10.8993 2.78821L11.2408 3.50762L11.9898 3.61918C12.3677 3.67609 12.6796 3.94245 12.8025 4.30899C12.9254 4.6869 12.8321 5.09214 12.5566 5.37216L12.0011 5.93904L12.1332 6.74496C12.181 7.04092 12.1036 7.33005 11.9283 7.55315C11.8668 7.63283 11.7962 7.70113 11.712 7.7626C11.4024 7.98343 10.9835 8.0062 10.6511 7.82407L10.1571 7.55315L9.98634 7.45981L9.81559 7.55315L9.32385 7.82407C9.17359 7.9083 9.0074 7.94701 8.84348 7.94701C8.64086 7.94701 8.43825 7.88554 8.26295 7.7626C8.17871 7.70341 8.10586 7.63283 8.04667 7.55315C7.87365 7.32777 7.79397 7.03864 7.84405 6.74496L7.97154 5.93448Z" fill="#86888C"/>
</svg>
