<svg width="24" height="24" viewBox="0 0 24 24" fill="none" xmlns="http://www.w3.org/2000/svg">
<path d="M20.7738 8.08343L18 5.30961C17.8947 5.20434 17.7496 5.14175 17.5989 5.14175H17.3343C17.2888 4.18869 17.0156 3.47177 16.5064 2.95399C15.9346 2.37931 15.1152 2.09766 14 2.09766H7.34282C6.21622 2.09766 5.39687 2.37077 4.83357 2.93692C4.27027 3.50306 4 4.31956 4 5.44047V18.7548C4 19.8871 4.27596 20.7122 4.83926 21.2726C5.39972 21.8274 6.21906 22.0977 7.34282 22.0977H14C15.1238 22.0977 15.9431 21.8274 16.5036 21.2726C17.0697 20.7122 17.3428 19.8871 17.3428 18.7548V16.2655H20.0541C20.5861 16.2655 20.9417 15.907 20.9417 15.375V8.48457C20.9417 8.33379 20.8819 8.18869 20.7738 8.08343ZM19.2831 8.20007H18.9929C18.5974 8.20007 18.3129 8.11757 18.1479 7.94972C17.9829 7.78187 17.8976 7.50022 17.8976 7.10477V6.81458L19.2831 8.20007ZM13.7297 15.1247V6.27689H16.7596V7.10192C16.7596 8.52155 17.5733 9.33521 18.9929 9.33521H19.8037V15.1247C18.7312 15.1275 14.7795 15.1275 13.7297 15.1247ZM18.862 10.4334C18.862 10.6695 18.6714 10.8601 18.4353 10.8601H15.0982C14.862 10.8601 14.6714 10.6695 14.6714 10.4334C14.6714 10.1972 14.862 10.0066 15.0982 10.0066H18.4353C18.6714 10.0066 18.862 10.1972 18.862 10.4334ZM18.862 12.0977C18.862 12.3338 18.6714 12.5244 18.4353 12.5244H15.0982C14.862 12.5244 14.6714 12.3338 14.6714 12.0977C14.6714 11.8615 14.862 11.6709 15.0982 11.6709H18.4353C18.6714 11.6709 18.862 11.8615 18.862 12.0977ZM18.862 13.762C18.862 13.9981 18.6714 14.1887 18.4353 14.1887H15.0982C14.862 14.1887 14.6714 13.9981 14.6714 13.762C14.6714 13.5258 14.862 13.3352 15.0982 13.3352H18.4353C18.6714 13.3352 18.862 13.5258 18.862 13.762ZM10.6714 19.7278C10.3243 19.7278 10.0341 19.6197 9.83784 19.4177C9.64154 19.2157 9.54481 18.9398 9.54481 18.5955C9.54481 17.8871 9.96586 17.4632 10.6743 17.4632C11.3826 17.4632 11.8037 17.8871 11.8037 18.5955C11.8037 18.9426 11.7041 19.2186 11.5107 19.4177C11.3172 19.6169 11.0185 19.7278 10.6714 19.7278Z" fill="#86888C"/>
</svg>
