<svg width="40" height="40" viewBox="0 0 40 40" fill="none" xmlns="http://www.w3.org/2000/svg">
<path d="M37.1929 12.8721L32.2 7.87916C32.0105 7.68969 31.7494 7.57703 31.478 7.57703H31.0017C30.9198 5.86153 30.4282 4.57106 29.5115 3.63905C28.4822 2.60463 27.0074 2.09766 25 2.09766H13.0171C10.9892 2.09766 9.51437 2.58926 8.50043 3.60832C7.48649 4.62739 7 6.09709 7 8.11473V32.0806C7 34.1187 7.49673 35.6038 8.51067 36.6126C9.51949 37.6112 10.9943 38.0977 13.0171 38.0977H25C27.0228 38.0977 28.4976 37.6112 29.5064 36.6126C30.5255 35.6038 31.0171 34.1187 31.0171 32.0806V27.5998H35.8973C36.8549 27.5998 37.495 26.9546 37.495 25.9969V13.5941C37.495 13.3227 37.3875 13.0615 37.1929 12.8721ZM34.5095 13.082H33.9872C33.2754 13.082 32.7633 12.9335 32.4663 12.6314C32.1693 12.3292 32.0156 11.8223 32.0156 11.1105V10.5881L34.5095 13.082ZM24.5135 25.5463V9.62027H29.9673V11.1053C29.9673 13.6607 31.4319 15.1253 33.9872 15.1253H35.4467V25.5463C33.5161 25.5514 26.4031 25.5514 24.5135 25.5463ZM33.7516 17.1019C33.7516 17.527 33.4085 17.8701 32.9835 17.8701H26.9767C26.5516 17.8701 26.2085 17.527 26.2085 17.1019C26.2085 16.6769 26.5516 16.3338 26.9767 16.3338H32.9835C33.4085 16.3338 33.7516 16.6769 33.7516 17.1019ZM33.7516 20.0977C33.7516 20.5227 33.4085 20.8658 32.9835 20.8658H26.9767C26.5516 20.8658 26.2085 20.5227 26.2085 20.0977C26.2085 19.6726 26.5516 19.3295 26.9767 19.3295H32.9835C33.4085 19.3295 33.7516 19.6726 33.7516 20.0977ZM33.7516 23.0934C33.7516 23.5184 33.4085 23.8615 32.9835 23.8615H26.9767C26.5516 23.8615 26.2085 23.5184 26.2085 23.0934C26.2085 22.6684 26.5516 22.3253 26.9767 22.3253H32.9835C33.4085 22.3253 33.7516 22.6684 33.7516 23.0934ZM19.0085 33.8319C18.3838 33.8319 17.8615 33.6373 17.5081 33.2738C17.1548 32.9102 16.9807 32.4134 16.9807 31.7938C16.9807 30.5187 17.7385 29.7557 19.0137 29.7557C20.2888 29.7557 21.0467 30.5187 21.0467 31.7938C21.0467 32.4186 20.8674 32.9153 20.5192 33.2738C20.171 33.6322 19.6333 33.8319 19.0085 33.8319Z" fill="#86888C"/>
</svg>
