<svg width="20" height="20" viewBox="0 0 20 20" fill="none" xmlns="http://www.w3.org/2000/svg">
<path d="M16.4191 6.88628L14.2 4.66722C14.1158 4.583 13.9997 4.53293 13.8791 4.53293H13.6674C13.631 3.77049 13.4125 3.19695 13.0051 2.78272C12.5477 2.32298 11.8922 2.09766 11 2.09766H5.67425C4.77297 2.09766 4.1175 2.31615 3.66686 2.76906C3.21622 3.22198 3 3.87518 3 4.77191V15.4234C3 16.3292 3.22077 16.9893 3.67141 17.4376C4.11977 17.8814 4.77525 18.0977 5.67425 18.0977H11C11.899 18.0977 12.5545 17.8814 13.0028 17.4376C13.4558 16.9893 13.6743 16.3292 13.6743 15.4234V13.4319H15.8432C16.2688 13.4319 16.5533 13.1452 16.5533 12.7196V7.20719C16.5533 7.08656 16.5055 6.97049 16.4191 6.88628ZM15.2265 6.97959H14.9943C14.678 6.97959 14.4504 6.91359 14.3183 6.77931C14.1863 6.64502 14.1181 6.4197 14.1181 6.10335V5.8712L15.2265 6.97959ZM10.7838 12.5193V5.44104H13.2077V6.10107C13.2077 7.23677 13.8586 7.8877 14.9943 7.8877H15.643V12.5193C14.7849 12.5216 11.6236 12.5216 10.7838 12.5193ZM14.8896 8.76622C14.8896 8.95512 14.7371 9.10761 14.5482 9.10761H11.8785C11.6896 9.10761 11.5371 8.95512 11.5371 8.76622C11.5371 8.57731 11.6896 8.42483 11.8785 8.42483H14.5482C14.7371 8.42483 14.8896 8.57731 14.8896 8.76622ZM14.8896 10.0977C14.8896 10.2866 14.7371 10.439 14.5482 10.439H11.8785C11.6896 10.439 11.5371 10.2866 11.5371 10.0977C11.5371 9.90875 11.6896 9.75626 11.8785 9.75626H14.5482C14.7371 9.75626 14.8896 9.90875 14.8896 10.0977ZM14.8896 11.4291C14.8896 11.618 14.7371 11.7705 14.5482 11.7705H11.8785C11.6896 11.7705 11.5371 11.618 11.5371 11.4291C11.5371 11.2402 11.6896 11.0877 11.8785 11.0877H14.5482C14.7371 11.0877 14.8896 11.2402 14.8896 11.4291ZM8.33713 16.2018C8.05946 16.2018 7.82731 16.1153 7.67027 15.9537C7.51323 15.7921 7.43585 15.5713 7.43585 15.2959C7.43585 14.7292 7.77269 14.3901 8.3394 14.3901C8.90612 14.3901 9.24296 14.7292 9.24296 15.2959C9.24296 15.5736 9.1633 15.7944 9.00853 15.9537C8.85377 16.113 8.61479 16.2018 8.33713 16.2018Z" fill="#86888C"/>
</svg>
