<svg width="28" height="28" viewBox="0 0 28 28" fill="none" xmlns="http://www.w3.org/2000/svg">
<path fill-rule="evenodd" clip-rule="evenodd" d="M21.0184 11.6642C20.8476 11.6676 20.6769 11.6642 20.5062 11.6574C21.1515 9.88845 21.3803 7.64826 21.4008 5.05976V4.47581C22.5344 4.57143 24.4635 5.15879 24.4635 8.04781C24.4635 11.2647 22.0529 11.6471 21.0184 11.6642ZM6.98165 11.6642C5.94366 11.6505 3.53308 11.2681 3.53308 8.04781C3.53308 5.48321 5.0525 4.73193 6.18609 4.52703V4.82072C6.19974 7.51508 6.4251 9.83722 7.09432 11.6608C7.05676 11.6608 7.01921 11.6642 6.98165 11.6642ZM21.4042 2.76153C21.4008 2.33808 21.0593 2 20.6359 2H6.95092C6.53094 2 6.18609 2.33808 6.18609 2.75811V2.99374C4.04524 3.27035 2 4.7012 2 8.04781C2 11.7803 4.56082 13.1463 6.95775 13.1804C7.10115 13.1838 7.24114 13.1838 7.38455 13.177C7.49723 13.177 7.65429 13.1668 7.8216 13.1497C8.88007 14.8127 10.577 15.7997 13.2335 15.926V20.0854C10.3483 20.3552 8.75373 22.148 8.75373 25.2419C8.75373 25.6619 9.09859 26 9.52198 26H18.478C18.9014 26 19.2463 25.6585 19.2463 25.2419C19.2463 22.1514 17.6517 20.3586 14.7665 20.0854V15.9089C17.3854 15.6938 18.8024 14.8981 19.7892 13.1087H19.8301C20.093 13.1429 20.4652 13.177 20.6086 13.1804C20.694 13.1838 20.7862 13.1838 20.8852 13.1838H21.0423C23.4392 13.1497 26 11.7803 26 8.05122C26 4.49289 23.6884 3.0996 21.4076 2.95959V2.76153H21.4042Z" fill="#86888C"/>
</svg>
