<svg width="20" height="20" viewBox="0 0 20 20" fill="none" xmlns="http://www.w3.org/2000/svg">
<path fill-rule="evenodd" clip-rule="evenodd" d="M14.6789 8.4428C14.5651 8.44508 14.4513 8.4428 14.3375 8.43825C14.7677 7.25896 14.9202 5.76551 14.9338 4.03984V3.65054C15.6896 3.71429 16.9757 4.10586 16.9757 6.03187C16.9757 8.17644 15.3686 8.43142 14.6789 8.4428ZM5.3211 8.4428C4.62911 8.43369 3.02205 8.17871 3.02205 6.03187C3.02205 4.32214 4.035 3.82129 4.79072 3.68469V3.88048C4.79983 5.67672 4.95006 7.22481 5.39622 8.44052C5.37118 8.44052 5.34614 8.4428 5.3211 8.4428ZM14.9361 2.50768C14.9338 2.22538 14.7062 2 14.424 2H5.30061C5.02063 2 4.79072 2.22538 4.79072 2.50541V2.66249C3.36349 2.8469 2 3.8008 2 6.03187C2 8.52021 3.70721 9.43085 5.30516 9.45361C5.40077 9.45589 5.4941 9.45589 5.5897 9.45134C5.66482 9.45134 5.76953 9.44451 5.88106 9.43313C6.58671 10.5418 7.71803 11.1998 9.48897 11.284V14.0569C7.56551 14.2368 6.50249 15.432 6.50249 17.4946C6.50249 17.7746 6.73239 18 7.01465 18H12.9853C13.2676 18 13.4975 17.7723 13.4975 17.4946C13.4975 15.4343 12.4345 14.239 10.511 14.0569V11.2726C12.2569 11.1292 13.2016 10.5987 13.8594 9.40581H13.8868C14.062 9.42857 14.3101 9.45134 14.4057 9.45361C14.4627 9.45589 14.5241 9.45589 14.5901 9.45589H14.6948C16.2928 9.43313 18 8.52021 18 6.03415C18 3.66192 16.459 2.73307 14.9384 2.63973V2.50768H14.9361Z" fill="#86888C"/>
</svg>
