<svg width="24" height="24" viewBox="0 0 24 24" fill="none" xmlns="http://www.w3.org/2000/svg">
<path d="M19.9498 2.83938C19.3864 2.27315 18.5641 2 17.4373 2H10.7792C9.66382 2 8.84436 2.28169 8.27244 2.85645C7.75743 3.37715 7.48428 4.09987 7.4416 5.0616C6.12989 5.15265 5.08564 5.55954 4.33732 6.28226C3.44957 7.13871 3 8.40489 3 10.0495C3 11.6941 3.44957 12.9603 4.33732 13.8168C5.08564 14.5366 6.12704 14.9464 7.43591 15.0374V18.6567C7.43591 19.7892 7.71191 20.6143 8.27529 21.1748C8.83582 21.7297 9.65528 22 10.7792 22H17.4373C18.5612 22 19.3807 21.7297 19.9412 21.1748C20.5075 20.6143 20.7806 19.7892 20.7806 18.6567V5.34045C20.7806 4.22222 20.5103 3.40276 19.9498 2.83938ZM10.8873 13.0001C10.2528 13.6119 9.28254 13.922 8.00782 13.922C6.73311 13.922 5.76284 13.6119 5.12833 13.0001C4.47105 12.3685 4.13814 11.3754 4.13814 10.0524C4.13814 8.72926 4.47105 7.73624 5.12833 7.10457C5.76284 6.49282 6.73311 6.18267 8.00782 6.18267C9.28254 6.18267 10.2528 6.49282 10.8873 7.10457C11.5446 7.73624 11.8775 8.72926 11.8775 10.0524C11.8775 11.3754 11.5446 12.3685 10.8873 13.0001ZM14.9448 19.3225C14.7456 19.5245 14.4582 19.6327 14.1111 19.6327C13.764 19.6327 13.4766 19.5245 13.2774 19.3225C13.0782 19.1205 12.9843 18.8445 12.9843 18.5002C12.9843 17.7917 13.4055 17.3678 14.114 17.3678C14.8224 17.3678 15.2436 17.7917 15.2436 18.5002C15.2379 18.8445 15.1383 19.1205 14.9448 19.3225Z" fill="#86888C"/>
<path d="M8.36347 9.63712V8.16038C8.57118 8.20591 8.77035 8.28273 8.95815 8.38516L8.96384 8.38801C9.03782 8.42785 9.12033 8.45061 9.20285 8.45345C9.42763 8.45345 9.61258 8.27135 9.61258 8.04372C9.61258 7.95552 9.58128 7.78764 9.37357 7.6596C9.09188 7.48603 8.7419 7.36937 8.36347 7.32385V7.00801C8.36347 6.81168 8.20413 6.65234 8.0078 6.65234C7.81147 6.65234 7.65213 6.81168 7.65213 7.00801V7.32385C6.78145 7.44335 6.23514 8.03519 6.23514 8.90017C6.23514 9.46924 6.48838 10.1749 7.65213 10.3883V11.9504C7.37044 11.8935 7.0859 11.774 6.80706 11.5862C6.72739 11.5321 6.63349 11.5037 6.53675 11.5008C6.30628 11.498 6.11564 11.6858 6.11279 11.9163C6.11279 12.0699 6.18108 12.1951 6.31197 12.2861C6.71032 12.5621 7.17126 12.7329 7.65213 12.7869V13.1113C7.65213 13.3076 7.81147 13.467 8.0078 13.467C8.20413 13.467 8.36347 13.3076 8.36347 13.1113V12.7784C8.77889 12.7215 9.12887 12.5764 9.3878 12.3516C9.72355 12.0614 9.90281 11.6488 9.90281 11.1622C9.90565 10.5676 9.6325 9.82776 8.36347 9.63712ZM7.65213 9.51477C7.07452 9.34405 7.07452 9.02821 7.07452 8.86318C7.07452 8.49613 7.28508 8.24574 7.65213 8.15469V9.51477ZM8.36347 11.9504V10.4993C8.97237 10.6387 9.06343 10.9118 9.06343 11.1935C9.06343 11.5833 8.8045 11.8565 8.36347 11.9504Z" fill="#86888C"/>
</svg>
