<svg width="20" height="20" viewBox="0 0 20 20" fill="none" xmlns="http://www.w3.org/2000/svg">
<path fill-rule="evenodd" clip-rule="evenodd" d="M16.7481 6.15995L16.7549 5.86395C16.6707 5.84574 16.5842 5.84118 16.4977 5.84574L4.1453 5.83891C4.06788 5.83663 3.99047 5.85029 3.9176 5.87534V6.17134C3.9677 6.18272 4.05194 6.19411 4.16807 6.18955H4.5893C4.62573 6.18955 4.65761 6.18272 4.68721 6.18272L15.9444 6.18955C15.9876 6.18272 16.024 6.19411 16.0605 6.19411H16.5204C16.5978 6.19638 16.6753 6.185 16.7481 6.15995ZM10.309 17.2327C10.5958 17.2258 10.5958 17.0801 10.5958 16.9799C10.5958 16.8843 10.5958 16.7249 10.3522 16.7204H10.3044C10.0904 16.7204 10.0721 16.8433 10.0721 16.9731C10.0699 17.0756 10.0699 17.2281 10.309 17.2327ZM9.96513 3.99687L8.17774 4.95318L12.3992 4.96001L10.737 3.98321C10.6186 4.02647 10.4957 4.04924 10.3704 4.04924H10.3021C10.1928 4.04924 10.0767 4.03102 9.96513 3.99687ZM10.3021 2.76733C10.0881 2.77416 10.0699 2.89028 10.0699 3.02234C10.0699 3.15213 10.0881 3.28191 10.309 3.28191C10.5958 3.27508 10.5958 3.12936 10.5958 3.02917C10.5958 2.93354 10.5958 2.77416 10.3522 2.7696L10.3021 2.76733ZM17.4403 5.24463C17.586 5.37441 17.6657 5.55201 17.6725 5.73417L17.6657 6.29429C17.6657 6.61534 17.4266 6.87491 17.0487 6.99787C17.0555 7.03885 17.0669 7.08667 17.0669 7.1322L17.0601 13.9471C17.0601 14.4708 16.5773 14.9034 15.9785 14.9034L10.7939 14.8965V16.0373C11.1309 16.1739 11.3928 16.4813 11.3928 16.9777C11.3928 17.6676 10.8805 17.9886 10.3727 18H10.293C9.79209 17.9932 9.2775 17.6744 9.2775 16.9708C9.2775 16.4676 9.53935 16.1671 9.87861 16.0305V14.8965H4.72591C4.3024 14.9125 4.04739 14.7531 3.89939 14.6188C3.7104 14.448 3.60339 14.2066 3.60566 13.9516V7.13448C3.60566 7.0935 3.61249 7.05251 3.61705 7.01153C3.46449 6.96371 3.33016 6.89313 3.22542 6.79749C3.08425 6.67226 3.00228 6.49011 3 6.30112V5.741C3 5.28561 3.48271 4.95546 4.14302 4.95546H6.28789L9.31621 3.33656C9.28889 3.2341 9.27295 3.12936 9.27295 3.02234C9.27295 2.3256 9.78526 2.00683 10.293 2V2.00683H10.3727C10.8736 2.01138 11.3882 2.33699 11.3882 3.02917C11.3882 3.13619 11.3768 3.22954 11.3518 3.31379L14.1797 4.96001H16.484C16.8938 4.94407 17.2308 5.04881 17.4403 5.24463ZM13.121 12.3828H7.481L8.42821 10.9461L10.482 11.7157C10.6163 11.7612 10.7757 11.7202 10.8668 11.6155L12.3514 9.8076L12.3878 10.0421C12.4128 10.2015 12.5586 10.3199 12.7179 10.3199C12.7362 10.3199 12.7544 10.3131 12.7726 10.3131C12.9525 10.2858 13.0777 10.1195 13.0549 9.93966L12.9092 8.99473C12.8773 8.83535 12.7362 8.71923 12.5722 8.72378H11.4884C11.3085 8.71923 11.1582 8.86267 11.1514 9.04255C11.1514 9.2247 11.304 9.36587 11.4884 9.36587H11.8482L10.4957 11.0166L8.41682 10.2425C8.26882 10.1833 8.10033 10.2357 8.0138 10.3677L7.04155 11.8455V8.76476C7.03928 8.58261 6.889 8.43689 6.70684 8.44144H6.70457C6.52469 8.43461 6.37441 8.57578 6.36758 8.75566V12.7061C6.36758 12.8837 6.51331 13.0317 6.70457 13.0317H13.1187C13.3008 13.034 13.4511 12.8883 13.4557 12.7061C13.4534 12.5263 13.3054 12.3805 13.121 12.3828Z" fill="#86888C"/>
</svg>
