<svg width="28" height="28" viewBox="0 0 28 28" fill="none" xmlns="http://www.w3.org/2000/svg">
<path fill-rule="evenodd" clip-rule="evenodd" d="M23.6222 8.23993L23.6324 7.79593C23.506 7.76861 23.3763 7.76178 23.2465 7.76861L4.71794 7.75836C4.60182 7.75495 4.4857 7.77544 4.37641 7.81301V8.25701C4.45154 8.27409 4.57791 8.29116 4.7521 8.28433H5.38395C5.43859 8.28433 5.48641 8.27409 5.53081 8.27409L22.4165 8.28433C22.4814 8.27409 22.5361 8.29116 22.5907 8.29116H23.2806C23.3968 8.29458 23.5129 8.2775 23.6222 8.23993ZM13.9634 24.849C14.3938 24.8388 14.3938 24.6202 14.3938 24.4699C14.3938 24.3265 14.3938 24.0874 14.0283 24.0805H13.9566C13.6355 24.0805 13.6082 24.265 13.6082 24.4597C13.6048 24.6133 13.6048 24.8422 13.9634 24.849ZM13.4477 4.9953L10.7666 6.42977L17.0988 6.44002L14.6055 4.97481C14.4279 5.0397 14.2435 5.07386 14.0556 5.07386H13.9532C13.7892 5.07386 13.6151 5.04653 13.4477 4.9953ZM13.9532 3.15099C13.6321 3.16124 13.6048 3.33542 13.6048 3.53351C13.6048 3.72819 13.6321 3.92287 13.9634 3.92287C14.3938 3.91262 14.3938 3.69404 14.3938 3.54376C14.3938 3.40031 14.3938 3.16124 14.0283 3.1544L13.9532 3.15099ZM24.6605 6.86694C24.879 7.06162 24.9986 7.32802 25.0088 7.60125L24.9986 8.44144C24.9986 8.92301 24.64 9.31237 24.073 9.4968C24.0833 9.55827 24.1003 9.63 24.1003 9.69831L24.0901 19.9206C24.0901 20.7061 23.366 21.3551 22.4678 21.3551L14.6909 21.3448V23.0559C15.1964 23.2608 15.5892 23.7219 15.5892 24.4665C15.5892 25.5014 14.8207 25.9829 14.0591 26H13.9395C13.1881 25.9898 12.4163 25.5116 12.4163 24.4562C12.4163 23.7014 12.809 23.2506 13.3179 23.0457V21.3448H5.58887C4.95361 21.3687 4.57108 21.1296 4.34908 20.9281C4.0656 20.672 3.90508 20.3099 3.9085 19.9274V9.70172C3.9085 9.64024 3.91874 9.57877 3.92557 9.51729C3.69674 9.44557 3.49523 9.33969 3.33812 9.19624C3.12637 9.0084 3.00342 8.73516 3 8.45169V7.6115C3 6.92842 3.72406 6.43319 4.71453 6.43319H7.93183L12.4743 4.00484C12.4333 3.85115 12.4094 3.69404 12.4094 3.53351C12.4094 2.4884 13.1779 2.01025 13.9395 2V2.01025H14.0591C14.8104 2.01708 15.5823 2.50548 15.5823 3.54376C15.5823 3.70428 15.5652 3.84431 15.5277 3.97068L19.7696 6.44002H23.226C23.8408 6.41611 24.3462 6.57322 24.6605 6.86694ZM18.1814 17.5742H9.7215L11.1423 15.4191L14.223 16.5735C14.4245 16.6418 14.6636 16.5803 14.8002 16.4232L17.027 13.7114L17.0817 14.0632C17.1193 14.3023 17.3378 14.4799 17.5769 14.4799C17.6042 14.4799 17.6316 14.4696 17.6589 14.4696C17.9287 14.4286 18.1165 14.1793 18.0824 13.9095L17.8638 12.4921C17.816 12.253 17.6042 12.0788 17.3583 12.0857H15.7326C15.4628 12.0788 15.2374 12.294 15.2271 12.5638C15.2271 12.8371 15.456 13.0488 15.7326 13.0488H16.2722L14.2435 15.525L11.1252 14.3637C10.9032 14.2749 10.6505 14.3535 10.5207 14.5516L9.06233 16.7682V12.1471C9.05892 11.8739 8.8335 11.6553 8.56027 11.6622H8.55685C8.28704 11.6519 8.06162 11.8637 8.05137 12.1335V18.0592C8.05137 18.3256 8.26996 18.5476 8.55685 18.5476H18.178C18.4513 18.551 18.6767 18.3324 18.6835 18.0592C18.6801 17.7894 18.4581 17.5708 18.1814 17.5742Z" fill="#86888C"/>
</svg>
