<svg width="24" height="24" viewBox="0 0 24 24" fill="none" xmlns="http://www.w3.org/2000/svg">
<path fill-rule="evenodd" clip-rule="evenodd" d="M20.1851 7.19994L20.1937 6.82994C20.0884 6.80717 19.9802 6.80148 19.8721 6.80717L4.43162 6.79863C4.33485 6.79579 4.23808 6.81286 4.147 6.84417V7.21417C4.20962 7.2284 4.31493 7.24264 4.46008 7.23694H4.98662C5.03216 7.23694 5.07201 7.2284 5.10901 7.2284L19.1804 7.23694C19.2345 7.2284 19.2801 7.24264 19.3256 7.24264H19.9005C19.9973 7.24548 20.0941 7.23125 20.1851 7.19994ZM12.1362 21.0408C12.4948 21.0323 12.4948 20.8502 12.4948 20.7249C12.4948 20.6054 12.4948 20.4061 12.1903 20.4005H12.1305C11.863 20.4005 11.8402 20.5541 11.8402 20.7164C11.8373 20.8445 11.8373 21.0352 12.1362 21.0408ZM11.7064 4.49609L9.47218 5.69148L14.749 5.70001L12.6713 4.47901C12.5233 4.53309 12.3696 4.56155 12.213 4.56155H12.1277C11.991 4.56155 11.8459 4.53878 11.7064 4.49609ZM12.1277 2.95916C11.8601 2.9677 11.8373 3.11285 11.8373 3.27793C11.8373 3.44016 11.8601 3.60239 12.1362 3.60239C12.4948 3.59385 12.4948 3.4117 12.4948 3.28647C12.4948 3.16693 12.4948 2.9677 12.1903 2.962L12.1277 2.95916ZM21.0504 6.05578C21.2325 6.21802 21.3321 6.44002 21.3407 6.66771L21.3321 7.36787C21.3321 7.76918 21.0333 8.09364 20.5608 8.24733C20.5694 8.29856 20.5836 8.35833 20.5836 8.41526L20.5751 16.9338C20.5751 17.5884 19.9717 18.1292 19.2231 18.1292L12.7424 18.1207V19.5466C13.1637 19.7174 13.491 20.1016 13.491 20.7221C13.491 21.5845 12.8506 21.9858 12.2159 22H12.1163C11.4901 21.9915 10.8469 21.593 10.8469 20.7135C10.8469 20.0845 11.1742 19.7088 11.5983 19.5381V18.1207H5.15739C4.62801 18.1406 4.30924 17.9414 4.12424 17.7734C3.888 17.56 3.75423 17.2583 3.75708 16.9395V8.4181C3.75708 8.36687 3.76562 8.31564 3.77131 8.26441C3.58062 8.20464 3.41269 8.11641 3.28177 7.99687C3.10531 7.84033 3.00285 7.61264 3 7.37641V6.67625C3 6.10702 3.60339 5.69432 4.42877 5.69432H7.10986L10.8953 3.6707C10.8611 3.54262 10.8412 3.4117 10.8412 3.27793C10.8412 2.407 11.4816 2.00854 12.1163 2V2.00854H12.2159C12.842 2.01423 13.4853 2.42123 13.4853 3.28647C13.4853 3.42024 13.471 3.53693 13.4397 3.64224L16.9747 5.70001H19.855C20.3673 5.68009 20.7885 5.81101 21.0504 6.05578ZM15.6512 14.9785H8.60125L9.78526 13.1826L12.3525 14.1446C12.5204 14.2015 12.7197 14.1503 12.8335 14.0194L14.6892 11.7595L14.7347 12.0527C14.766 12.2519 14.9482 12.3999 15.1474 12.3999C15.1702 12.3999 15.193 12.3913 15.2157 12.3913C15.4406 12.3572 15.5971 12.1494 15.5687 11.9246L15.3865 10.7434C15.3467 10.5442 15.1702 10.399 14.9653 10.4047H13.6105C13.3857 10.399 13.1978 10.5783 13.1893 10.8032C13.1893 11.0309 13.38 11.2073 13.6105 11.2073H14.0602L12.3696 13.2708L9.77103 12.3031C9.58603 12.2291 9.37541 12.2946 9.26725 12.4597L8.05194 14.3068V10.456C8.0491 10.2283 7.86125 10.0461 7.63356 10.0518H7.63071C7.40586 10.0433 7.21802 10.2197 7.20948 10.4446V15.3827C7.20948 15.6047 7.39163 15.7897 7.63071 15.7897H15.6484C15.876 15.7925 16.0639 15.6104 16.0696 15.3827C16.0667 15.1578 15.8817 14.9757 15.6512 14.9785Z" fill="#86888C"/>
</svg>
