<svg width="28" height="28" viewBox="0 0 28 28" fill="none" xmlns="http://www.w3.org/2000/svg">
<path d="M7.07006 12.4283C6.98137 12.3669 6.94043 12.2987 6.94043 12.193C6.94384 12.0565 7.05642 11.9473 7.19287 11.9507C7.25769 11.9542 7.32251 11.9746 7.37709 12.0122C7.7694 12.2714 8.31522 12.5341 8.94974 12.5341C9.89811 12.5341 10.4815 12.0463 10.4815 11.3265C10.4815 10.7363 10.1506 10.3167 9.06573 10.1802L8.78599 10.1461C7.62953 9.99943 7.09053 9.44338 7.09053 8.58029C7.09053 7.55346 7.82057 6.91895 8.94292 6.91895C9.57061 6.91895 10.0994 7.08269 10.4644 7.31126C10.577 7.37948 10.6281 7.46818 10.6281 7.55346C10.6281 7.6831 10.5258 7.78885 10.3962 7.78885H10.3928C10.3314 7.78544 10.2734 7.76838 10.2188 7.73768C9.81964 7.51935 9.40004 7.38972 8.92245 7.38972C8.06278 7.38972 7.58177 7.86731 7.58177 8.53595C7.58177 9.14317 7.95702 9.53548 8.97362 9.66512L9.24312 9.69923C10.4166 9.84592 10.9727 10.402 10.9727 11.2889C10.9727 12.2885 10.2597 13.0015 8.88492 13.0015C8.23676 12.998 7.60224 12.7968 7.07006 12.4283Z" fill="#86888C"/>
<path d="M8.88784 13.2578C8.18509 13.251 7.50282 13.036 6.92288 12.6369C6.76254 12.5243 6.68408 12.3776 6.68408 12.1934C6.68749 11.9137 6.91265 11.692 7.19238 11.6954C7.30837 11.6988 7.42094 11.7329 7.51646 11.7977C7.99406 12.115 8.47506 12.2753 8.94925 12.2753C9.73387 12.2753 10.2251 11.9103 10.2251 11.3235C10.2251 10.938 10.0818 10.5628 9.03112 10.4297L8.7548 10.3956C7.1685 10.1944 6.83418 9.29375 6.83418 8.57736C6.83418 7.41407 7.66315 6.66016 8.94242 6.66016C9.5633 6.66016 10.1501 6.81367 10.6004 7.08999C10.8494 7.2435 10.8869 7.44478 10.8869 7.55053C10.8869 7.82003 10.6686 8.04177 10.3957 8.04177C10.2933 8.03836 10.1944 8.01107 10.1057 7.96331L10.0989 7.9599C9.70316 7.74498 9.32791 7.64264 8.92537 7.64264C8.2465 7.64264 7.84054 7.97695 7.84054 8.53301C7.84054 8.7684 7.84054 9.25964 9.00724 9.40974L9.27674 9.44385C10.8903 9.64854 11.2315 10.5594 11.2315 11.2894C11.2315 11.8728 11.0166 12.364 10.614 12.7154C10.2012 13.0702 9.60423 13.2578 8.88784 13.2578ZM7.20603 12.2105L7.21626 12.2173C7.34589 12.3094 7.48576 12.3879 7.62904 12.4561C7.49258 12.3879 7.35954 12.3094 7.2299 12.2207C7.22308 12.2207 7.21285 12.2139 7.20603 12.2105ZM9.54624 10.0067C10.0477 10.133 10.3889 10.3513 10.5731 10.6651C10.3445 10.2489 9.89079 10.0818 9.54624 10.0067ZM7.42435 9.06519C7.56763 9.43703 7.89513 9.68265 8.41707 9.81569C7.90877 9.67242 7.57787 9.42338 7.42435 9.06519Z" fill="#86888C"/>
<path d="M9.01139 14.0044C8.776 14.0044 8.58496 13.8134 8.58496 13.578V6.34244C8.58496 6.10705 8.776 5.91602 9.01139 5.91602C9.24677 5.91602 9.43781 6.10705 9.43781 6.34244V13.5814C9.43781 13.8134 9.24677 14.0044 9.01139 14.0044Z" fill="#86888C"/>
<path d="M22.9498 17.0784C22.8475 16.8157 22.595 16.6451 22.3153 16.6451H19.0063V3.68864C19.0063 2.64816 18.3581 2 17.3176 2H10.0002C8.96994 2 8.3286 2.64816 8.3286 3.68864V4.00249C6.75594 4.11165 5.50737 4.60289 4.60677 5.4728C3.539 6.49963 3 8.02111 3 9.99289C3 11.9647 3.539 13.4827 4.60677 14.513C5.50737 15.3795 6.75594 15.8741 8.3286 15.9833V16.6451H5.01954C4.64429 16.6451 4.33727 16.9487 4.33727 17.3274C4.33727 17.5184 4.41573 17.7026 4.55901 17.8323L13.2069 25.8183C13.4696 26.0606 13.8721 26.0606 14.1314 25.8183L22.7758 17.8289C22.9839 17.6378 23.0522 17.341 22.9498 17.0784ZM4.36456 9.99289C4.36456 6.86465 5.88263 5.34316 9.01087 5.34316C12.1391 5.34316 13.6572 6.86465 13.6572 9.99289C13.6572 13.1211 12.1357 14.6392 9.01087 14.6392C5.88604 14.6392 4.36456 13.1211 4.36456 9.99289Z" fill="#86888C"/>
</svg>
