<svg width="24" height="24" viewBox="0 0 24 24" fill="none" xmlns="http://www.w3.org/2000/svg">
<path d="M7.39172 11.6908C7.31781 11.6396 7.28369 11.5827 7.28369 11.4946C7.28653 11.3809 7.38035 11.2899 7.49406 11.2928C7.54807 11.2956 7.60209 11.3127 7.64757 11.344C7.9745 11.56 8.42935 11.7789 8.95812 11.7789C9.74842 11.7789 10.2345 11.3724 10.2345 10.7725C10.2345 10.2807 9.95879 9.93107 9.05477 9.81735L8.82166 9.78892C7.85794 9.66668 7.40878 9.2033 7.40878 8.48407C7.40878 7.62838 8.01714 7.09961 8.95243 7.09961C9.47551 7.09961 9.91615 7.23607 10.2203 7.42653C10.3141 7.48339 10.3568 7.5573 10.3568 7.62838C10.3568 7.7364 10.2715 7.82453 10.1635 7.82453H10.1606C10.1095 7.82169 10.0611 7.80747 10.0156 7.78189C9.68304 7.59995 9.33337 7.49192 8.93537 7.49192C8.21898 7.49192 7.81814 7.88992 7.81814 8.44711C7.81814 8.95313 8.13085 9.28006 8.97802 9.38809L9.2026 9.41651C10.1805 9.53875 10.6439 10.0021 10.6439 10.7413C10.6439 11.5742 10.0498 12.1684 8.9041 12.1684C8.36397 12.1655 7.8352 11.9978 7.39172 11.6908Z" fill="#86888C"/>
<path d="M8.90678 12.3818C8.32116 12.3761 7.75259 12.197 7.26931 11.8644C7.1357 11.7706 7.07031 11.6484 7.07031 11.4949C7.07316 11.2617 7.26078 11.077 7.49389 11.0798C7.59055 11.0826 7.68436 11.1111 7.76396 11.1651C8.16196 11.4295 8.5628 11.5631 8.95795 11.5631C9.6118 11.5631 10.0212 11.2589 10.0212 10.7699C10.0212 10.4487 9.90177 10.136 9.02618 10.0251L8.79591 9.99668C7.47399 9.82896 7.1954 9.07845 7.1954 8.48146C7.1954 7.51205 7.8862 6.88379 8.95226 6.88379C9.46966 6.88379 9.95862 7.01172 10.3339 7.24198C10.5414 7.36991 10.5727 7.53764 10.5727 7.62577C10.5727 7.85035 10.3907 8.03513 10.1633 8.03513C10.078 8.03229 9.99558 8.00955 9.92167 7.96975L9.91598 7.96691C9.58621 7.78781 9.2735 7.70252 8.93805 7.70252C8.37233 7.70252 8.03403 7.98112 8.03403 8.4445C8.03403 8.64066 8.03403 9.05002 9.00628 9.17511L9.23086 9.20354C10.5755 9.37411 10.8598 10.1331 10.8598 10.7415C10.8598 11.2276 10.6807 11.637 10.3452 11.9298C10.0013 12.2255 9.50377 12.3818 8.90678 12.3818ZM7.50527 11.5091L7.51379 11.5148C7.62182 11.5915 7.73838 11.6569 7.85778 11.7138C7.74406 11.6569 7.63319 11.5915 7.52516 11.5176C7.51948 11.5176 7.51095 11.5119 7.50527 11.5091ZM9.45544 9.6726C9.87334 9.77779 10.1576 9.95973 10.3111 10.2213C10.1207 9.87444 9.74257 9.73514 9.45544 9.6726ZM7.68721 8.88798C7.8066 9.19785 8.07952 9.40253 8.51447 9.5134C8.09089 9.39401 7.81513 9.18648 7.68721 8.88798Z" fill="#86888C"/>
<path d="M9.00916 13.004C8.81301 13.004 8.65381 12.8448 8.65381 12.6487V6.61903C8.65381 6.42287 8.81301 6.26367 9.00916 6.26367C9.20532 6.26367 9.36452 6.42287 9.36452 6.61903V12.6515C9.36452 12.8448 9.20532 13.004 9.00916 13.004Z" fill="#86888C"/>
<path d="M20.6249 15.5653C20.5396 15.3464 20.3292 15.2043 20.0961 15.2043H17.3385V4.4072C17.3385 3.54014 16.7984 3 15.9313 3H9.83348C8.97495 3 8.4405 3.54014 8.4405 4.4072V4.66874C7.12995 4.75971 6.08948 5.16908 5.33897 5.894C4.44917 6.74969 4 8.01759 4 9.66074C4 11.3039 4.44917 12.569 5.33897 13.4275C6.08948 14.1496 7.12995 14.5618 8.4405 14.6527V15.2043H5.68295C5.37024 15.2043 5.11439 15.4573 5.11439 15.7728C5.11439 15.932 5.17977 16.0855 5.29917 16.1936L12.5057 22.8486C12.7246 23.0505 13.0601 23.0505 13.2761 22.8486L20.4799 16.1907C20.6533 16.0315 20.7101 15.7842 20.6249 15.5653ZM5.13713 9.66074C5.13713 7.05387 6.40219 5.78597 9.00906 5.78597C11.6159 5.78597 12.881 7.05387 12.881 9.66074C12.881 12.2676 11.6131 13.5327 9.00906 13.5327C6.40503 13.5327 5.13713 12.2676 5.13713 9.66074Z" fill="#86888C"/>
</svg>
