<svg width="20" height="20" viewBox="0 0 20 20" fill="none" xmlns="http://www.w3.org/2000/svg">
<path d="M5.71338 8.95223C5.65424 8.91129 5.62695 8.86581 5.62695 8.79531C5.62923 8.70433 5.70428 8.63156 5.79525 8.63383C5.83846 8.63611 5.88167 8.64975 5.91806 8.67477C6.1796 8.84761 6.54348 9.02273 6.96649 9.02273C7.59874 9.02273 7.98764 8.69751 7.98764 8.21764C7.98764 7.8242 7.76703 7.54446 7.04382 7.45349L6.85733 7.43075C6.08635 7.33296 5.72702 6.96225 5.72702 6.38686C5.72702 5.70231 6.21371 5.2793 6.96194 5.2793C7.38041 5.2793 7.73292 5.38846 7.97627 5.54084C8.05132 5.58632 8.08543 5.64545 8.08543 5.70231C8.08543 5.78873 8.0172 5.85923 7.93078 5.85923H7.92851C7.88757 5.85696 7.84891 5.84559 7.81252 5.82512C7.54643 5.67957 7.2667 5.59315 6.9483 5.59315C6.37519 5.59315 6.05451 5.91154 6.05451 6.3573C6.05451 6.76212 6.30468 7.02366 6.98241 7.11008L7.16208 7.13282C7.94443 7.23061 8.31513 7.60132 8.31513 8.19263C8.31513 8.85898 7.83981 9.33431 6.92328 9.33431C6.49117 9.33203 6.06816 9.19785 5.71338 8.95223Z" fill="#86888C"/>
<path d="M6.92523 9.50487C6.45673 9.50032 6.00188 9.35704 5.61525 9.09095C5.50836 9.0159 5.45605 8.91811 5.45605 8.7953C5.45833 8.60881 5.60843 8.46098 5.79492 8.46326C5.87224 8.46553 5.9473 8.48827 6.01097 8.53148C6.32937 8.74299 6.65004 8.84988 6.96616 8.84988C7.48924 8.84988 7.81674 8.60653 7.81674 8.21536C7.81674 7.95837 7.72122 7.7082 7.02075 7.6195L6.83653 7.59676C5.779 7.46258 5.55612 6.86218 5.55612 6.38458C5.55612 5.60906 6.10877 5.10645 6.96162 5.10645C7.37553 5.10645 7.7667 5.20879 8.06691 5.393C8.23293 5.49534 8.25794 5.62953 8.25794 5.70003C8.25794 5.87969 8.11239 6.02752 7.93045 6.02752C7.86222 6.02525 7.79627 6.00705 7.73714 5.97521L7.73259 5.97294C7.46878 5.82966 7.21861 5.76143 6.95024 5.76143C6.49767 5.76143 6.22703 5.98431 6.22703 6.35501C6.22703 6.51194 6.22703 6.83943 7.00483 6.9395L7.18449 6.96224C8.26022 7.0987 8.48765 7.70593 8.48765 8.19262C8.48765 8.58152 8.34437 8.90901 8.076 9.14326C7.80082 9.37978 7.40282 9.50487 6.92523 9.50487ZM5.80402 8.80667L5.81084 8.81122C5.89726 8.87262 5.99051 8.92493 6.08603 8.97042C5.99505 8.92493 5.90636 8.87262 5.81994 8.81349C5.81539 8.81349 5.80857 8.80894 5.80402 8.80667ZM7.36416 7.3375C7.69848 7.42164 7.9259 7.5672 8.04871 7.77643C7.89634 7.49897 7.59386 7.38753 7.36416 7.3375ZM5.94957 6.7098C6.04509 6.95769 6.26342 7.12144 6.61138 7.21014C6.27251 7.11462 6.05191 6.9486 5.94957 6.7098Z" fill="#86888C"/>
<path d="M7.00743 10.0036C6.8505 10.0036 6.72314 9.87624 6.72314 9.71932V4.89561C6.72314 4.73869 6.8505 4.61133 7.00743 4.61133C7.16435 4.61133 7.29171 4.73869 7.29171 4.89561V9.72159C7.29171 9.87624 7.16435 10.0036 7.00743 10.0036Z" fill="#86888C"/>
<path d="M16.2999 12.0522C16.2317 11.8771 16.0634 11.7634 15.8769 11.7634H13.6708V3.12576C13.6708 2.43211 13.2387 2 12.5451 2H7.66678C6.97996 2 6.5524 2.43211 6.5524 3.12576V3.33499C5.50396 3.40777 4.67158 3.73526 4.07118 4.3152C3.35933 4.99975 3 6.01407 3 7.3286C3 8.64312 3.35933 9.65516 4.07118 10.342C4.67158 10.9197 5.50396 11.2494 6.5524 11.3222V11.7634H4.34636C4.09619 11.7634 3.89151 11.9658 3.89151 12.2183C3.89151 12.3456 3.94382 12.4684 4.03934 12.5548L9.80459 17.8789C9.97971 18.0404 10.2481 18.0404 10.4209 17.8789L16.1839 12.5526C16.3226 12.4252 16.3681 12.2274 16.2999 12.0522ZM3.9097 7.3286C3.9097 5.2431 4.92175 4.22878 7.00725 4.22878C9.09275 4.22878 10.1048 5.2431 10.1048 7.3286C10.1048 9.41409 9.09047 10.4261 7.00725 10.4261C4.92403 10.4261 3.9097 9.41409 3.9097 7.3286Z" fill="#86888C"/>
</svg>
