<svg width="28" height="28" viewBox="0 0 28 28" fill="none" xmlns="http://www.w3.org/2000/svg">
<path fill-rule="evenodd" clip-rule="evenodd" d="M25.2577 18.1525C25.2577 18.1389 25.5616 14.1195 25.5275 12.8116C25.524 12.7023 25.5138 12.6477 25.5036 12.6204C25.4933 12.6238 25.4557 12.6101 25.384 12.6101C25.2474 12.6135 25.1689 12.675 25.1484 12.774L24.5166 15.8543C24.5098 15.8884 24.4893 15.9089 24.4791 15.9431C24.4757 16.2299 24.4142 16.5134 24.2639 16.7661L24.2605 16.7695V16.7729L22.3857 19.9454C22.2491 20.181 22.0067 20.3108 21.754 20.3108C21.6242 20.3108 21.4979 20.2766 21.3783 20.2049C21.03 19.9932 20.9139 19.539 21.1222 19.1873L22.997 16.0114L23.0004 16.008V16.0046C23.0414 15.9363 22.997 15.7621 22.9287 15.7177C22.9287 15.7177 22.7853 15.6357 22.7306 15.7279L22.635 15.8919C22.3209 16.4519 21.6686 17.6164 20.3402 18.3028C20.3402 18.3028 20.0329 18.4872 19.4831 19.2009C18.9845 19.8532 18.5679 20.5805 18.24 21.3625L18.1342 21.6153H21.6857C21.7301 21.6153 21.7745 21.6255 21.8223 21.6289L24.0078 19.761C24.1956 19.6005 24.3937 19.4468 24.5918 19.2999C24.7386 19.1907 24.8786 19.0199 25.0118 18.7945C25.1552 18.5623 25.2372 18.3404 25.2577 18.1525ZM26.9959 12.7706C27.0334 14.1537 26.7329 18.1218 26.7193 18.2925C26.6715 18.7194 26.5246 19.136 26.2753 19.5561C26.0431 19.9454 25.7733 20.2595 25.4762 20.4849C25.2987 20.6181 25.1279 20.7479 24.9606 20.8879L23.1575 22.4314C23.3317 22.7012 23.4341 23.0256 23.4341 23.3705V24.2379C23.4341 25.2077 22.6521 25.9932 21.6891 25.9932H17.4751C16.5155 25.9932 15.7301 25.2077 15.7301 24.2379V23.3705C15.7301 22.8241 15.9828 22.346 16.3721 22.0216L16.8877 20.7854C17.2634 19.8873 17.7483 19.0472 18.3254 18.2925C19.0835 17.3022 19.5684 17.0324 19.7016 16.971C20.6066 16.4997 21.0949 15.6289 21.3579 15.1611L21.4808 14.9459C21.8769 14.3039 22.6384 14.0546 23.3385 14.2869L23.7107 12.4667C23.8746 11.6608 24.5918 11.1212 25.3806 11.1178C26.4153 11.1827 26.972 11.7837 26.9959 12.7706ZM8.30948 21.6187H11.861L11.7551 21.366C11.4307 20.5839 11.0107 19.8566 10.5121 19.2043C9.96229 18.4906 9.65495 18.3062 9.65154 18.3028C8.32997 17.6164 7.6743 16.4519 7.36354 15.8919L7.26793 15.7245C7.21329 15.6323 7.06986 15.7143 7.06645 15.7177C6.99815 15.7587 6.95376 15.9328 6.99473 16.0011V16.0046L6.99815 16.008L8.87294 19.1838C9.08125 19.5356 8.96855 19.9898 8.61682 20.1981C8.50071 20.2698 8.36753 20.3039 8.24459 20.3039C7.9953 20.3039 7.74943 20.1742 7.61283 19.9419L5.73805 16.7661V16.7627L5.73463 16.7592C5.58779 16.5065 5.51949 16.2231 5.51949 15.9363C5.50925 15.9055 5.48876 15.8816 5.48193 15.8475L4.85017 12.7672C4.82968 12.6682 4.74772 12.6067 4.65552 12.5999C4.55307 12.6067 4.50526 12.6135 4.48477 12.6204C4.48819 12.634 4.47453 12.6887 4.47111 12.8014C4.43697 14.1093 4.74089 18.1286 4.74431 18.1696C4.7648 18.3335 4.84675 18.5521 4.98677 18.7877C5.11995 19.0131 5.26337 19.1838 5.41022 19.2931C5.60487 19.44 5.80293 19.5902 5.99075 19.7507L8.17629 21.6187C8.22069 21.6289 8.26167 21.6187 8.30948 21.6187ZM13.1074 20.7888L13.6265 22.025C14.0124 22.346 14.2651 22.831 14.2651 23.3739V24.2413C14.2651 25.2112 13.4831 26 12.5235 26H8.30948C7.34989 26 6.56787 25.2112 6.56787 24.2413V23.3739C6.56787 23.029 6.67032 22.708 6.84106 22.4382L5.03799 20.8947C4.87066 20.7513 4.6965 20.6215 4.52575 20.4883C4.22524 20.2595 3.95546 19.9488 3.72325 19.5595C3.47396 19.136 3.32712 18.7194 3.28273 18.3199C3.26907 18.1252 2.96855 14.1571 3.0027 12.7706C3.02661 11.7803 3.58665 11.1793 4.53258 11.1281C5.42388 11.1349 6.12393 11.6676 6.29126 12.4735L6.66349 14.2937C7.36354 14.0581 8.12849 14.3108 8.5212 14.9493L8.64414 15.1645C8.90708 15.6323 9.39542 16.5031 10.3311 16.988C10.4336 17.0359 10.9185 17.309 11.6766 18.2994C12.2503 19.0507 12.7352 19.8907 13.1074 20.7888ZM18.3357 8.07171C18.6225 7.78145 18.6225 7.31019 18.3357 7.02334C18.0488 6.73307 17.581 6.73307 17.2941 7.02334L13.8143 10.5373L12.5371 9.24644C12.2503 8.95618 11.7824 8.95618 11.499 9.24644C11.2122 9.53671 11.2122 10.008 11.499 10.2948L13.2952 12.1081C13.4387 12.2516 13.6265 12.3267 13.8177 12.3267C14.0055 12.3267 14.1934 12.2516 14.3368 12.1081L18.3357 8.07171ZM21.2486 11.5822C20.7705 14.3517 15.795 16.7934 15.2281 17.0632C15.1291 17.111 15.0198 17.1349 14.9139 17.1349C14.8046 17.1349 14.6988 17.111 14.5997 17.0632C14.0329 16.7934 9.06417 14.3517 8.5895 11.5822C8.23093 9.5333 8.24459 4.8173 8.24801 4.61924C8.24801 4.39044 8.35387 4.17871 8.53144 4.03529C8.70902 3.89528 8.94123 3.84747 9.15979 3.89869C10.2218 4.06261 10.7716 3.68697 11.5468 3.17131C12.3254 2.64883 13.2952 2 14.9139 2H14.9207C16.536 2 17.5024 2.65225 18.281 3.17131C19.0562 3.68697 19.6162 4.06602 20.7158 3.89186C20.931 3.85771 21.153 3.91918 21.3169 4.05578C21.4808 4.19579 21.5832 4.40068 21.5832 4.61582C21.5867 4.8173 21.6003 9.52647 21.2486 11.5822Z" fill="#86888C"/>
</svg>
