<svg width="20" height="20" viewBox="0 0 20 20" fill="none" xmlns="http://www.w3.org/2000/svg">
<path fill-rule="evenodd" clip-rule="evenodd" d="M13.8925 18H3.23296C2.55353 18 2 17.4322 2 16.7362V14.3225C2 14.1681 2.06414 14.0232 2.1758 13.9186C2.28745 13.8165 2.43474 13.7666 2.58679 13.788C2.68894 13.7999 2.77684 13.807 2.8386 13.8094H2.86949C2.91463 13.8094 2.96451 13.8094 3.00728 13.8046C3.15932 13.8022 3.42777 13.7903 3.73422 13.6858C4.5752 13.4174 4.99807 12.7546 4.99807 11.7093C4.99807 10.6616 4.57758 9.99644 3.74373 9.73511C3.41589 9.61871 3.12606 9.60683 3.03103 9.60208H2.80535C2.75783 9.60445 2.67706 9.60683 2.57966 9.61871C2.42524 9.63534 2.2827 9.58545 2.17342 9.48567C2.06177 9.38352 2 9.2386 2 9.08419V6.92947C2 6.23103 2.55353 5.66563 3.23296 5.66563H5.48508C5.46845 5.50408 5.45895 5.33779 5.45895 5.16674C5.45895 2.85999 6.98886 2.01901 8.41901 2H8.66607C10.12 2.04039 11.6618 2.89562 11.6618 5.181C11.6618 5.34729 11.6523 5.50883 11.6356 5.66325H13.8949C14.5719 5.66325 15.1207 6.23103 15.1207 6.9271V8.54491C15.2633 8.52829 15.382 8.52591 15.4628 8.52591H15.717C17.1566 8.56867 18.6961 9.42628 18.6961 11.7069C18.6961 14.0137 17.0901 14.8546 15.717 14.8736C15.679 14.8784 15.5768 14.8808 15.4771 14.8808C15.4058 14.8784 15.2799 14.8736 15.1207 14.8546V16.7338C15.1207 17.4322 14.5696 18 13.8925 18Z" fill="#86888C"/>
</svg>
