<svg width="40" height="40" viewBox="0 0 40 40" fill="none" xmlns="http://www.w3.org/2000/svg">
<path fill-rule="evenodd" clip-rule="evenodd" d="M22.8307 21.1598C20.3825 23.9922 20.2903 24.1049 20.2903 26.7477C20.2903 27.1524 19.9625 27.4802 19.5578 27.4802H18.7486C18.3952 27.4802 18.093 27.2343 18.0315 26.886C17.9598 26.5224 17.9291 26.1741 17.9291 25.7285C17.9291 23.7463 18.6256 22.5734 20.1878 20.6937L20.4849 20.3351C23.0561 17.2927 23.5427 16.4476 23.5427 15.0084C23.5427 13.9891 23.2507 13.3233 22.5644 12.7752C22.17 12.4628 21.4785 12.0992 19.5886 12.0992C18.5642 12.0992 17.6525 12.217 16.541 12.4987C16.3464 12.5448 16.1364 12.514 15.9674 12.4013C15.7984 12.2938 15.6806 12.1196 15.6447 11.9199L15.5269 11.2899C15.4654 10.9621 15.6293 10.6343 15.9315 10.4909C16.623 10.1631 18.3132 9.82504 19.9471 9.82504C21.668 9.82504 23.0407 10.2092 24.0344 10.957C25.3097 11.8943 25.909 13.1952 25.909 15.0391C25.9038 17.2927 24.9665 18.6347 22.8307 21.1598ZM19.2556 32.5252C18.2774 32.5252 17.6576 31.9157 17.6576 31.0143V30.8965C17.6576 29.9899 18.2927 29.3548 19.1993 29.3548C20.1673 29.3548 20.7973 29.9899 20.7973 30.8965C20.7973 31.9209 20.1776 32.5252 19.2556 32.5252ZM20.7307 3.0539C20.2288 3.04366 19.6295 3.02829 19.0969 3.03853C16.2388 3.06414 2 4.04242 2 20.9805C2 37.9237 16.3362 38.9891 19.2095 39.03C19.3786 39.0352 19.5578 39.0352 19.7269 39.0352C20.1007 39.0352 20.4695 39.03 20.7871 39.0249C23.6605 38.9737 37.9915 37.8622 37.9915 21.0829C37.9966 4.31388 23.6144 3.12048 20.7307 3.0539Z" fill="#86888C"/>
</svg>
