<svg width="28" height="28" viewBox="0 0 28 28" fill="none" xmlns="http://www.w3.org/2000/svg">
<path fill-rule="evenodd" clip-rule="evenodd" d="M15.8871 14.1182C14.255 16.0065 14.1935 16.0816 14.1935 17.8436C14.1935 18.1133 13.975 18.3318 13.7052 18.3318H13.1657C12.9301 18.3318 12.7286 18.1679 12.6877 17.9357C12.6399 17.6933 12.6194 17.4611 12.6194 17.164C12.6194 15.8426 13.0838 15.0607 14.1252 13.8075L14.3233 13.5685C16.0374 11.5402 16.3618 10.9768 16.3618 10.0173C16.3618 9.3378 16.1671 8.89391 15.7096 8.52855C15.4467 8.32026 14.9857 8.07782 13.7257 8.07782C13.0428 8.07782 12.435 8.15636 11.694 8.34416C11.5643 8.37489 11.4243 8.3544 11.3116 8.27928C11.1989 8.20757 11.1204 8.09148 11.0965 7.95831L11.0179 7.53832C10.977 7.31978 11.0862 7.10125 11.2877 7.00564C11.7487 6.78711 12.8755 6.56174 13.9647 6.56174C15.112 6.56174 16.0271 6.81784 16.6896 7.31637C17.5398 7.94124 17.9393 8.80854 17.9393 10.0378C17.9359 11.5402 17.311 12.4348 15.8871 14.1182ZM13.5038 21.6952C12.8516 21.6952 12.4384 21.2889 12.4384 20.6879V20.6094C12.4384 20.005 12.8618 19.5816 13.4662 19.5816C14.1116 19.5816 14.5316 20.005 14.5316 20.6094C14.5316 21.2923 14.1184 21.6952 13.5038 21.6952ZM14.4872 2.04765C14.1525 2.04082 13.753 2.03058 13.3979 2.03741C11.4926 2.05448 2 2.70667 2 13.9987C2 25.2942 11.5574 26.0044 13.473 26.0317C13.5857 26.0352 13.7052 26.0352 13.8179 26.0352C14.0672 26.0352 14.313 26.0317 14.5247 26.0283C16.4403 25.9942 25.9943 25.2532 25.9943 14.067C25.9977 2.88764 16.4096 2.09204 14.4872 2.04765Z" fill="#86888C"/>
</svg>
