<svg width="40" height="40" viewBox="0 0 40 40" fill="none" xmlns="http://www.w3.org/2000/svg">
<path fill-rule="evenodd" clip-rule="evenodd" d="M22.832 19.4189H31.137V6.60816H9.84725V10.4893C9.85237 10.5405 9.86261 10.5917 9.86261 10.6429V15.9269C9.86261 15.9781 9.85237 16.0293 9.84725 16.0805V19.424H18.1522C18.1727 19.424 18.188 19.4137 18.2085 19.4137H22.7757C22.7962 19.4086 22.8116 19.4189 22.832 19.4189ZM19.3605 23.0286H21.6185V21.6513H19.3605V23.0286ZM34.6699 25.2661H22.8064C22.7962 25.2661 22.7859 25.2764 22.7706 25.2764H18.2034C18.1931 25.2764 18.1829 25.2661 18.1675 25.2661H6.30408V35.7574H9.65268C9.65268 35.7369 9.64756 35.7164 9.64756 35.6959V28.9731C9.64756 27.7392 10.6767 26.7356 11.9568 26.7356H29.0121C30.287 26.7356 31.3213 27.734 31.3213 28.9731V35.6959C31.3213 35.7164 31.3162 35.7369 31.3162 35.7574H34.6648V25.2661H34.6699ZM31.137 21.6564H23.9277V23.0337H34.6699C35.9448 23.0337 36.9791 24.0373 36.9791 25.2712V35.7625C36.9791 36.9964 35.9448 38 34.6699 38H6.3092C5.03428 38 4 37.0016 4 35.7625V25.2712C4 24.0373 5.03428 23.0337 6.3092 23.0337H17.0513V21.6564H9.84213C8.5672 21.6564 7.53293 20.6579 7.53293 19.4189V18.1593H6.31944C5.04452 18.1593 4.01024 17.1609 4.01024 15.9218V10.6377C4.01024 9.40378 5.04452 8.40023 6.31944 8.40023H7.53293V6.60304C7.53293 5.36908 8.5672 4.36552 9.84213 4.36552H19.5654V3.87399C19.4015 3.6743 19.2889 3.43365 19.2889 3.16228C19.2889 2.52226 19.8265 2 20.487 2C21.1475 2 21.6851 2.52226 21.6851 3.16228C21.6851 3.43365 21.5725 3.6743 21.4086 3.87399V4.36552H31.1318C32.4068 4.36552 33.441 5.36396 33.441 6.60304V8.42071H34.675C35.9499 8.42071 36.9842 9.41914 36.9842 10.6582V15.9423C36.9842 17.1762 35.9499 18.1798 34.675 18.1798H33.441V19.4189C33.4462 20.6528 32.4119 21.6564 31.137 21.6564ZM16.1297 11.928C16.5956 11.928 16.9745 11.5594 16.9745 11.1088C16.9745 10.6582 16.5956 10.2947 16.1297 10.2947C15.6638 10.2947 15.2849 10.6582 15.2849 11.1088C15.2849 11.5645 15.6587 11.928 16.1297 11.928ZM19.125 11.1139C19.125 12.7165 17.7784 14.0171 16.1246 14.0171C14.4708 14.0171 13.1242 12.7165 13.1242 11.1139C13.1242 9.51643 14.4708 8.21078 16.1246 8.21078C17.7784 8.21078 19.125 9.51643 19.125 11.1139ZM24.8545 11.8973C25.3204 11.8973 25.6993 11.5338 25.6993 11.0832C25.6993 10.6326 25.3204 10.2691 24.8545 10.2691C24.3886 10.2691 24.0097 10.6326 24.0097 11.0832C24.0097 11.5287 24.3886 11.8973 24.8545 11.8973ZM24.8545 8.18006C26.5083 8.18006 27.8498 9.48059 27.8498 11.0832C27.8498 12.6807 26.5032 13.9863 24.8545 13.9863C23.2058 13.9863 21.8541 12.6858 21.8541 11.0832C21.8592 9.48059 23.2058 8.18006 24.8545 8.18006ZM23.4567 15.3022C24.0916 15.3022 24.6087 15.804 24.6087 16.4184C24.6087 17.038 24.0916 17.5346 23.4567 17.5346H17.5326C16.8977 17.5346 16.3806 17.0329 16.3806 16.4184C16.3806 15.804 16.8977 15.3022 17.5326 15.3022H23.4567Z" fill="#86888C"/>
</svg>
