<svg width="20" height="20" viewBox="0 0 20 20" fill="none" xmlns="http://www.w3.org/2000/svg">
<path fill-rule="evenodd" clip-rule="evenodd" d="M11.3698 9.74172H15.0609V4.04807H5.59878V5.77301C5.60105 5.79576 5.6056 5.81852 5.6056 5.84127V8.18973C5.6056 8.21249 5.60105 8.23524 5.59878 8.258V9.74399H9.28986C9.29896 9.74399 9.30579 9.73944 9.31489 9.73944H11.3448C11.3539 9.73716 11.3607 9.74172 11.3698 9.74172ZM9.82691 11.346H10.8305V10.7339H9.82691V11.346ZM16.6311 12.3405H11.3584C11.3539 12.3405 11.3493 12.345 11.3425 12.345H9.31262C9.30806 12.345 9.30351 12.3405 9.29669 12.3405H4.02404V17.0033H5.5123C5.5123 16.9942 5.51003 16.9851 5.51003 16.976V13.9881C5.51003 13.4396 5.96743 12.9936 6.53634 12.9936H14.1165C14.6831 12.9936 15.1428 13.4373 15.1428 13.9881V16.976C15.1428 16.9851 15.1405 16.9942 15.1405 17.0033H16.6288V12.3405H16.6311ZM15.0609 10.7362H11.8568V11.3483H16.6311C17.1977 11.3483 17.6574 11.7943 17.6574 12.3428V17.0055C17.6574 17.554 17.1977 18 16.6311 18H4.02631C3.45968 18 3 17.5563 3 17.0055V12.3428C3 11.7943 3.45968 11.3483 4.02631 11.3483H8.8006V10.7362H5.5965C5.02987 10.7362 4.57019 10.2924 4.57019 9.74172V9.18191H4.03086C3.46423 9.18191 3.00455 8.73816 3.00455 8.18746V5.839C3.00455 5.29057 3.46423 4.84455 4.03086 4.84455H4.57019V4.0458C4.57019 3.49737 5.02987 3.05134 5.5965 3.05134H9.91793V2.83288C9.84511 2.74413 9.79505 2.63718 9.79505 2.51657C9.79505 2.23211 10.034 2 10.3275 2C10.6211 2 10.86 2.23211 10.86 2.51657C10.86 2.63718 10.81 2.74413 10.7372 2.83288V3.05134H15.0586C15.6252 3.05134 16.0849 3.49509 16.0849 4.0458V4.85365H16.6333C17.2 4.85365 17.6596 5.2974 17.6596 5.8481V8.19656C17.6596 8.74499 17.2 9.19101 16.6333 9.19101H16.0849V9.74172C16.0872 10.2901 15.6275 10.7362 15.0609 10.7362ZM8.39098 6.41246C8.59807 6.41246 8.76646 6.24861 8.76646 6.04836C8.76646 5.8481 8.59807 5.68653 8.39098 5.68653C8.1839 5.68653 8.0155 5.8481 8.0155 6.04836C8.0155 6.25089 8.18162 6.41246 8.39098 6.41246ZM9.72223 6.05063C9.72223 6.76291 9.12374 7.34092 8.38871 7.34092C7.65368 7.34092 7.05518 6.76291 7.05518 6.05063C7.05518 5.34063 7.65368 4.76035 8.38871 4.76035C9.12374 4.76035 9.72223 5.34063 9.72223 6.05063ZM12.2687 6.39881C12.4757 6.39881 12.6441 6.23724 12.6441 6.03698C12.6441 5.83672 12.4757 5.67515 12.2687 5.67515C12.0616 5.67515 11.8932 5.83672 11.8932 6.03698C11.8932 6.23496 12.0616 6.39881 12.2687 6.39881ZM12.2687 4.74669C13.0037 4.74669 13.5999 5.32471 13.5999 6.03698C13.5999 6.74698 13.0014 7.32727 12.2687 7.32727C11.5359 7.32727 10.9351 6.74925 10.9351 6.03698C10.9374 5.32471 11.5359 4.74669 12.2687 4.74669ZM11.6474 7.9121C11.9296 7.9121 12.1594 8.13512 12.1594 8.40819C12.1594 8.68354 11.9296 8.90428 11.6474 8.90428H9.01451C8.73233 8.90428 8.50249 8.68127 8.50249 8.40819C8.50249 8.13512 8.73233 7.9121 9.01451 7.9121H11.6474Z" fill="#86888C"/>
</svg>
