<svg width="24" height="24" viewBox="0 0 24 24" fill="none" xmlns="http://www.w3.org/2000/svg">
<path fill-rule="evenodd" clip-rule="evenodd" d="M13.4622 11.6771H18.0761V4.56009H6.24847V6.71626C6.25132 6.7447 6.257 6.77315 6.257 6.80159V9.73716C6.257 9.76561 6.25132 9.79405 6.24847 9.8225V11.68H10.8623C10.8737 11.68 10.8822 11.6743 10.8936 11.6743H13.4309C13.4423 11.6715 13.4509 11.6771 13.4622 11.6771ZM11.5336 13.6825H12.7881V12.9174H11.5336V13.6825ZM20.0388 14.9256H13.448C13.4423 14.9256 13.4366 14.9313 13.4281 14.9313H10.8908C10.8851 14.9313 10.8794 14.9256 10.8709 14.9256H4.28005V20.7541H6.14038C6.14038 20.7427 6.13753 20.7313 6.13753 20.72V16.9851C6.13753 16.2995 6.70929 15.742 7.42042 15.742H16.8956C17.6039 15.742 18.1785 16.2967 18.1785 16.9851V20.72C18.1785 20.7313 18.1756 20.7427 18.1756 20.7541H20.036V14.9256H20.0388ZM18.0761 12.9202H14.071V13.6854H20.0388C20.7471 13.6854 21.3217 14.2429 21.3217 14.9285V20.7569C21.3217 21.4425 20.7471 22 20.0388 22H4.28289C3.5746 22 3 21.4453 3 20.7569V14.9285C3 14.2429 3.5746 13.6854 4.28289 13.6854H10.2507V12.9202H6.24563C5.53733 12.9202 4.96274 12.3655 4.96274 11.6771V10.9774H4.28858C3.58029 10.9774 3.00569 10.4227 3.00569 9.73432V6.79875C3.00569 6.11321 3.58029 5.55568 4.28858 5.55568H4.96274V4.55725C4.96274 3.87171 5.53733 3.31418 6.24563 3.31418H11.6474V3.0411C11.5564 2.93017 11.4938 2.79647 11.4938 2.64571C11.4938 2.29014 11.7925 2 12.1594 2C12.5264 2 12.8251 2.29014 12.8251 2.64571C12.8251 2.79647 12.7625 2.93017 12.6715 3.0411V3.31418H18.0732C18.7815 3.31418 19.3561 3.86887 19.3561 4.55725V5.56706H20.0417C20.75 5.56706 21.3246 6.12175 21.3246 6.81013V9.7457C21.3246 10.4312 20.75 10.9888 20.0417 10.9888H19.3561V11.6771C19.359 12.3627 18.7844 12.9202 18.0761 12.9202ZM9.73873 7.51557C9.99758 7.51557 10.2081 7.31077 10.2081 7.06045C10.2081 6.81013 9.99758 6.60816 9.73873 6.60816C9.47987 6.60816 9.26938 6.81013 9.26938 7.06045C9.26938 7.31361 9.47703 7.51557 9.73873 7.51557ZM11.4028 7.06329C11.4028 7.95363 10.6547 8.67615 9.73588 8.67615C8.8171 8.67615 8.06898 7.95363 8.06898 7.06329C8.06898 6.17579 8.8171 5.45043 9.73588 5.45043C10.6547 5.45043 11.4028 6.17579 11.4028 7.06329ZM14.5858 7.49851C14.8447 7.49851 15.0552 7.29654 15.0552 7.04622C15.0552 6.7959 14.8447 6.59394 14.5858 6.59394C14.327 6.59394 14.1165 6.7959 14.1165 7.04622C14.1165 7.2937 14.327 7.49851 14.5858 7.49851ZM14.5858 5.43337C15.5046 5.43337 16.2499 6.15588 16.2499 7.04622C16.2499 7.93372 15.5018 8.65908 14.5858 8.65908C13.6699 8.65908 12.9189 7.93657 12.9189 7.04622C12.9218 6.15588 13.6699 5.43337 14.5858 5.43337ZM13.8093 9.39013C14.162 9.39013 14.4493 9.6689 14.4493 10.0102C14.4493 10.3544 14.162 10.6304 13.8093 10.6304H10.5181C10.1654 10.6304 9.87811 10.3516 9.87811 10.0102C9.87811 9.6689 10.1654 9.39013 10.5181 9.39013H13.8093Z" fill="#86888C"/>
</svg>
