<svg width="20" height="20" viewBox="0 0 20 20" fill="none" xmlns="http://www.w3.org/2000/svg">
<path fill-rule="evenodd" clip-rule="evenodd" d="M3.54409 13.9067C2.96675 14.4895 2 15.7303 2 17.4969C2 17.7746 2.22188 18 2.49809 18C4.31161 18 5.58627 16.9095 6.05041 16.4406C6.83377 15.6483 6.83377 14.7013 6.05041 13.9067C5.26478 13.1122 4.32972 13.1145 3.54409 13.9067ZM14.1059 14.0411C14.149 13.6085 14.0607 13.1737 13.8501 12.7935C13.1188 13.4218 12.3422 13.9955 11.5249 14.5078C11.663 14.806 11.7943 15.1065 11.9166 15.4002C12.0705 15.769 12.2902 16.2949 12.4464 16.518C13.4743 15.6893 14.0244 14.8652 14.1059 14.0411ZM4.74631 8.08785C5.00894 8.1994 5.2761 8.31778 5.54099 8.44299C6.04588 7.6166 6.61416 6.83119 7.23451 6.0913C6.87905 5.91145 6.48284 5.83405 6.08663 5.87275C5.26478 5.95699 4.44066 6.52385 3.63692 7.55286C3.86106 7.70994 4.38179 7.93304 4.74631 8.08785ZM16.5624 3.0316C15.9353 2.96103 14.5203 3.04299 12.9626 3.49147L16.4402 7.00876C16.8907 5.41516 16.9677 3.96955 16.8953 3.36171C16.8704 3.18869 16.7345 3.05437 16.5624 3.0316ZM14.887 11.8533C14.792 11.9512 14.6991 12.0377 14.6086 12.1242C14.835 12.4748 15.1859 13.1805 15.0999 14.1162C14.9935 15.2636 14.278 16.3609 12.9739 17.3785C12.7792 17.5561 12.5098 17.6266 12.2517 17.5675C11.6834 17.4331 11.3981 16.7433 10.9996 15.7895C10.891 15.5254 10.7732 15.259 10.6555 14.9995L10.2072 15.2203C9.63895 15.4867 9.1884 15.6187 8.8352 15.6187C8.55446 15.6187 8.33485 15.5345 8.16957 15.3683L4.67612 11.8373C4.19161 11.3889 4.495 10.5056 4.81649 9.78844L5.04743 9.31947C4.81876 9.21475 4.59009 9.1123 4.35915 9.01441C3.41504 8.61146 2.73356 8.32233 2.59998 7.74864C2.56375 7.60066 2.54564 7.30471 2.80374 6.99965C3.79314 5.70201 4.87762 4.97806 6.01418 4.86879C6.68208 4.80732 7.34998 4.96668 7.91826 5.32183C7.9975 5.23759 8.07674 5.15336 8.14919 5.07823C10.814 2.38506 15.1202 1.85007 16.6802 2.03219C17.3096 2.11415 17.7986 2.60816 17.8801 3.23649C18.0431 4.56601 17.6356 9.07588 14.887 11.8533ZM11.9958 8.43844C11.5294 8.43844 11.3619 8.26997 11.3619 7.79872C11.3619 7.3252 11.5272 7.15901 11.9958 7.15901C12.4622 7.15901 12.6298 7.32748 12.6298 7.79872C12.6298 8.26997 12.4622 8.43844 11.9958 8.43844ZM11.9958 6.15049C10.977 6.15049 10.368 6.76517 10.368 7.79645C10.368 8.82773 10.977 9.4424 11.9958 9.4424C13.0147 9.4424 13.6237 8.82545 13.6237 7.79645C13.6237 6.76744 13.0147 6.15049 11.9958 6.15049Z" fill="#86888C"/>
</svg>
