<svg width="40" height="40" viewBox="0 0 40 40" fill="none" xmlns="http://www.w3.org/2000/svg">
<path fill-rule="evenodd" clip-rule="evenodd" d="M5.4742 28.7902C4.1752 30.1015 2 32.8931 2 36.868C2 37.4929 2.49923 38 3.12071 38C7.20112 38 10.0691 35.5464 11.1134 34.4912C12.876 32.7087 12.876 30.5778 11.1134 28.7902C9.34575 27.0025 7.24187 27.0076 5.4742 28.7902ZM29.2384 29.0924C29.3352 28.1192 29.1365 27.1408 28.6627 26.2854C27.0173 27.6991 25.27 28.9899 23.431 30.1424C23.7418 30.8135 24.0373 31.4896 24.3123 32.1504C24.6587 32.9802 25.1529 34.1634 25.5044 34.6654C27.8171 32.8009 29.055 30.9466 29.2384 29.0924ZM8.17919 15.6977C8.77011 15.9486 9.37122 16.215 9.96723 16.4967C11.1032 14.6374 12.3819 12.8702 13.7777 11.2054C12.9779 10.8008 12.0864 10.6266 11.1949 10.7137C9.34575 10.9032 7.49148 12.1787 5.68306 14.4939C6.18738 14.8474 7.35904 15.3493 8.17919 15.6977ZM34.7655 4.32111C33.3544 4.16232 30.1706 4.34672 26.6658 5.35581L34.4904 13.2697C35.5042 9.68412 35.6774 6.43148 35.5143 5.06384C35.4583 4.67454 35.1527 4.37233 34.7655 4.32111ZM30.9958 24.1699C30.7819 24.3901 30.573 24.5848 30.3693 24.7794C30.8787 25.5683 31.6683 27.1562 31.4747 29.2614C31.2353 31.843 29.6255 34.312 26.6913 36.6016C26.2532 37.0012 25.647 37.1599 25.0663 37.0268C23.7876 36.7246 23.1458 35.1725 22.2492 33.0263C22.0047 32.4321 21.7398 31.8328 21.4749 31.2489L20.4663 31.7457C19.1876 32.345 18.1739 32.6421 17.3792 32.6421C16.7475 32.6421 16.2534 32.4526 15.8815 32.0787L8.02127 24.134C6.93113 23.1249 7.61374 21.1375 8.33711 19.524L8.85671 18.4688C8.3422 18.2332 7.8277 18.0027 7.30809 17.7824C5.18384 16.8758 3.6505 16.2253 3.34995 14.9344C3.26844 14.6015 3.22769 13.9356 3.80842 13.2492C6.03456 10.3295 8.47465 8.70064 11.0319 8.45478C12.5347 8.31647 14.0375 8.67503 15.3161 9.47411C15.4944 9.28458 15.6727 9.09506 15.8357 8.92602C21.8315 2.86638 31.5205 1.66265 35.0304 2.07243C36.4466 2.25684 37.5469 3.36837 37.7303 4.78211C38.0971 7.77351 37.1801 17.9207 30.9958 24.1699ZM24.4906 16.4865C23.4412 16.4865 23.0643 16.1074 23.0643 15.0471C23.0643 13.9817 23.4361 13.6078 24.4906 13.6078C25.54 13.6078 25.917 13.9868 25.917 15.0471C25.917 16.1074 25.54 16.4865 24.4906 16.4865ZM24.4906 11.3386C22.1983 11.3386 20.8279 12.7216 20.8279 15.042C20.8279 17.3624 22.1983 18.7454 24.4906 18.7454C26.783 18.7454 28.1533 17.3573 28.1533 15.042C28.1533 12.7267 26.783 11.3386 24.4906 11.3386Z" fill="#86888C"/>
</svg>
