<svg width="28" height="28" viewBox="0 0 28 28" fill="none" xmlns="http://www.w3.org/2000/svg">
<path fill-rule="evenodd" clip-rule="evenodd" d="M4.31614 19.8601C3.45013 20.7343 2 22.5954 2 25.2453C2 25.6619 2.33282 26 2.74714 26C5.46741 26 7.37941 24.3643 8.07561 23.6608C9.25066 22.4725 9.25066 21.0519 8.07561 19.8601C6.89717 18.6683 5.49458 18.6717 4.31614 19.8601ZM20.1589 20.0616C20.2234 19.4128 20.091 18.7605 19.7752 18.1903C18.6782 19.1327 17.5134 19.9933 16.2874 20.7616C16.4945 21.209 16.6915 21.6597 16.8749 22.1002C17.1058 22.6535 17.4352 23.4423 17.6696 23.7769C19.2114 22.5339 20.0367 21.2978 20.1589 20.0616ZM6.11946 11.1318C6.51341 11.2991 6.91415 11.4767 7.31149 11.6645C8.06882 10.4249 8.92124 9.24678 9.85177 8.13695C9.31858 7.86718 8.72427 7.75108 8.12995 7.80913C6.89717 7.93548 5.66099 8.78577 4.45538 10.3293C4.79159 10.5649 5.57269 10.8996 6.11946 11.1318ZM23.8437 3.54741C22.903 3.44155 20.7804 3.56448 18.4439 4.2372L23.6603 9.51314C24.3361 7.12275 24.4516 4.95432 24.3429 4.04256C24.3055 3.78303 24.1018 3.58155 23.8437 3.54741ZM21.3306 16.7799C21.1879 16.9268 21.0487 17.0565 20.9128 17.1863C21.2525 17.7122 21.7788 18.7708 21.6498 20.1743C21.4902 21.8954 20.417 23.5413 18.4609 25.0677C18.1688 25.3341 17.7647 25.44 17.3775 25.3512C16.5251 25.1497 16.0972 24.115 15.4995 22.6842C15.3365 22.2881 15.1599 21.8885 14.9833 21.4992L14.3108 21.8305C13.4584 22.23 12.7826 22.4281 12.2528 22.4281C11.8317 22.4281 11.5023 22.3017 11.2544 22.0524L6.01418 16.756C5.28742 16.0833 5.7425 14.7583 6.22474 13.6827L6.57114 12.9792C6.22814 12.8221 5.88513 12.6685 5.53873 12.5216C4.12256 11.9172 3.10033 11.4835 2.89996 10.623C2.84563 10.401 2.81846 9.95707 3.20561 9.49948C4.68971 7.55302 6.31643 6.4671 8.02127 6.30318C9.02312 6.21098 10.025 6.45002 10.8774 6.98274C10.9963 6.85639 11.1151 6.73004 11.2238 6.61735C15.221 2.57759 21.6804 1.7751 24.0203 2.04829C24.9644 2.17122 25.6979 2.91224 25.8202 3.85474C26.0647 5.84901 25.4534 12.6138 21.3306 16.7799ZM16.9938 11.6577C16.2942 11.6577 16.0428 11.405 16.0428 10.6981C16.0428 9.9878 16.2908 9.73852 16.9938 9.73852C17.6933 9.73852 17.9447 9.99121 17.9447 10.6981C17.9447 11.405 17.6933 11.6577 16.9938 11.6577ZM16.9938 8.22574C15.4655 8.22574 14.552 9.14775 14.552 10.6947C14.552 12.2416 15.4655 13.1636 16.9938 13.1636C18.522 13.1636 19.4355 12.2382 19.4355 10.6947C19.4355 9.15116 18.522 8.22574 16.9938 8.22574Z" fill="#86888C"/>
</svg>
