<svg width="20" height="20" viewBox="0 0 20 20" fill="none" xmlns="http://www.w3.org/2000/svg">
<path d="M8.2489 3.92126C8.06457 3.75054 8.05547 3.46145 8.22614 3.27708C8.39681 3.0927 8.68582 3.08359 8.87015 3.25431L8.88153 3.26569C9.48002 3.84387 9.78268 4.69519 9.78268 5.79691C9.78268 6.89407 9.48002 7.74312 8.88608 8.32129C8.7063 8.49657 8.41729 8.49201 8.24207 8.31219C8.06685 8.13236 8.0714 7.84328 8.25117 7.668C8.66306 7.26738 8.87242 6.63913 8.87242 5.79918C8.87242 4.95924 8.66306 4.32188 8.2489 3.92126ZM11.0934 5.79691C11.0934 7.13991 10.7521 8.15057 10.0808 8.80386C9.89873 8.97686 9.89191 9.26595 10.0649 9.44805C10.2378 9.63015 10.5268 9.63698 10.7089 9.46398L10.7157 9.45715C11.5713 8.62631 12.006 7.39485 12.006 5.79691C12.006 4.19441 11.5691 2.9584 10.7089 2.12756C10.5268 1.95229 10.2401 1.95911 10.0649 2.13894C9.88963 2.32104 9.89646 2.60785 10.0762 2.78312C10.7498 3.43641 11.0934 4.44936 11.0934 5.79691ZM18 14.21V15.3254C18 16.1608 17.7747 16.8163 17.331 17.2784C16.869 17.7587 16.1954 18 15.3261 18H4.67387C3.80458 18 3.13099 17.7564 2.66904 17.2784C2.22529 16.8163 2 16.1608 2 15.3254V14.21C2 13.3746 2.22529 12.719 2.66904 12.257C3.13099 11.7767 3.80458 11.5354 4.67387 11.5354H5.76845V5.79691C5.76845 5.54652 5.97326 5.34165 6.22358 5.34165C6.4739 5.34165 6.67871 5.54652 6.67871 5.79691V11.5377H15.3239C16.1931 11.5377 16.8667 11.7812 17.3287 12.2592C17.7747 12.719 18 13.3769 18 14.21ZM5.2223 15.4346C5.35656 15.2981 5.42483 15.1114 5.42483 14.877C5.42483 14.4035 5.129 14.1099 4.65339 14.1099C4.17778 14.1099 3.88195 14.4035 3.88195 14.877C3.88195 15.1114 3.95022 15.2981 4.08448 15.4346C4.21875 15.5712 4.41673 15.6441 4.65339 15.6441C4.89006 15.6441 5.08576 15.5712 5.2223 15.4346ZM7.44787 15.4346C7.58214 15.2981 7.65041 15.1114 7.65041 14.877C7.65041 14.4035 7.35457 14.1099 6.87896 14.1099C6.40336 14.1099 6.10752 14.4035 6.10752 14.877C6.10752 15.1114 6.17579 15.2981 6.31006 15.4346C6.44432 15.5712 6.6423 15.6441 6.87896 15.6441C7.11563 15.6441 7.31361 15.5712 7.44787 15.4346Z" fill="#86888C"/>
</svg>
