<svg width="40" height="40" viewBox="0 0 40 40" fill="none" xmlns="http://www.w3.org/2000/svg">
<path d="M16.06 6.32284C15.6453 5.93872 15.6248 5.28827 16.0088 4.87342C16.3928 4.45857 17.0431 4.43808 17.4578 4.8222L17.4834 4.84781C18.83 6.1487 19.511 8.06418 19.511 10.543C19.511 13.0117 18.83 14.922 17.4937 16.2229C17.0892 16.6173 16.4389 16.607 16.0447 16.2024C15.6504 15.7978 15.6606 15.1474 16.0651 14.753C16.9919 13.8516 17.463 12.438 17.463 10.5482C17.463 8.65829 16.9919 7.22424 16.06 6.32284ZM22.4602 10.543C22.4602 13.5648 21.6922 15.8388 20.1818 17.3087C19.7722 17.6979 19.7568 18.3484 20.1459 18.7581C20.5351 19.1678 21.1853 19.1832 21.5949 18.794L21.6103 18.7786C23.5355 16.9092 24.5134 14.1384 24.5134 10.543C24.5134 6.93743 23.5304 4.15639 21.5949 2.28701C21.1853 1.89264 20.5402 1.90801 20.1459 2.31262C19.7517 2.72234 19.767 3.36767 20.1715 3.76203C21.6871 5.23193 22.4602 7.51105 22.4602 10.543ZM38 29.4725V31.9821C38 33.8617 37.4931 35.3368 36.4947 36.3764C35.4553 37.4571 33.9397 38 31.9838 38H8.01621C6.0603 38 4.54473 37.452 3.50533 36.3764C2.5069 35.3368 2 33.8617 2 31.9821V29.4725C2 27.5929 2.5069 26.1179 3.50533 25.0782C4.54473 23.9975 6.0603 23.4546 8.01621 23.4546H10.479V10.543C10.479 9.97967 10.9398 9.51872 11.5031 9.51872C12.0663 9.51872 12.5271 9.97967 12.5271 10.543V23.4597H31.9787C33.9346 23.4597 35.4501 24.0078 36.4895 25.0833C37.4931 26.1179 38 27.598 38 29.4725ZM9.25018 32.2279C9.55227 31.9206 9.70587 31.5007 9.70587 30.9731C9.70587 29.9079 9.04025 29.2472 7.97013 29.2472C6.90001 29.2472 6.23439 29.9079 6.23439 30.9731C6.23439 31.5007 6.388 31.9206 6.69009 32.2279C6.99218 32.5352 7.43763 32.6991 7.97013 32.6991C8.50263 32.6991 8.94297 32.5352 9.25018 32.2279ZM14.2577 32.2279C14.5598 31.9206 14.7134 31.5007 14.7134 30.9731C14.7134 29.9079 14.0478 29.2472 12.9777 29.2472C11.9076 29.2472 11.2419 29.9079 11.2419 30.9731C11.2419 31.5007 11.3955 31.9206 11.6976 32.2279C11.9997 32.5352 12.4452 32.6991 12.9777 32.6991C13.5102 32.6991 13.9556 32.5352 14.2577 32.2279Z" fill="#86888C"/>
</svg>
