<svg width="28" height="28" viewBox="0 0 28 28" fill="none" xmlns="http://www.w3.org/2000/svg">
<path d="M12.3733 4.88189C12.0969 4.62581 12.0832 4.19218 12.3392 3.91561C12.5952 3.63905 13.0287 3.62539 13.3052 3.88147L13.3223 3.89854C14.22 4.7658 14.674 6.04279 14.674 7.69536C14.674 9.34111 14.22 10.6147 13.3291 11.4819C13.0595 11.7448 12.6259 11.738 12.3631 11.4683C12.1003 11.1985 12.1071 10.7649 12.3768 10.502C12.9946 9.90107 13.3086 8.95869 13.3086 7.69878C13.3086 6.43886 12.9946 5.48283 12.3733 4.88189ZM16.6402 7.69536C16.6402 9.70986 16.1281 11.2259 15.1212 12.2058C14.8481 12.4653 14.8379 12.8989 15.0973 13.1721C15.3567 13.4452 15.7902 13.4555 16.0633 13.196L16.0735 13.1857C17.357 11.9395 18.009 10.0923 18.009 7.69536C18.009 5.29162 17.3536 3.4376 16.0633 2.19134C15.7902 1.92843 15.3601 1.93867 15.0973 2.20841C14.8344 2.48156 14.8447 2.91178 15.1144 3.17469C16.1247 4.15462 16.6402 5.67403 16.6402 7.69536ZM27 20.315V21.9881C27 23.2412 26.6621 24.2245 25.9964 24.9176C25.3035 25.6381 24.2931 26 22.9892 26H7.01081C5.70687 26 4.69649 25.6347 4.00356 24.9176C3.33793 24.2245 3 23.2412 3 21.9881V20.315C3 19.0619 3.33793 18.0786 4.00356 17.3854C4.69649 16.665 5.70687 16.3031 7.01081 16.3031H8.65268V7.69536C8.65268 7.31978 8.95989 7.01248 9.33537 7.01248C9.71085 7.01248 10.0181 7.31978 10.0181 7.69536V16.3065H22.9858C24.2897 16.3065 25.3001 16.6718 25.993 17.3889C26.6621 18.0786 27 19.0653 27 20.315ZM7.83345 22.152C8.03485 21.9471 8.13725 21.6671 8.13725 21.3154C8.13725 20.6052 7.6935 20.1648 6.98009 20.1648C6.26668 20.1648 5.82293 20.6052 5.82293 21.3154C5.82293 21.6671 5.92533 21.9471 6.12672 22.152C6.32812 22.3568 6.62509 22.4661 6.98009 22.4661C7.33509 22.4661 7.62864 22.3568 7.83345 22.152ZM11.1718 22.152C11.3732 21.9471 11.4756 21.6671 11.4756 21.3154C11.4756 20.6052 11.0319 20.1648 10.3184 20.1648C9.60503 20.1648 9.16129 20.6052 9.16129 21.3154C9.16129 21.6671 9.26369 21.9471 9.46508 22.152C9.66648 22.3568 9.96345 22.4661 10.3184 22.4661C10.6734 22.4661 10.9704 22.3568 11.1718 22.152Z" fill="#86888C"/>
</svg>
