<svg width="24" height="24" viewBox="0 0 24 24" fill="none" xmlns="http://www.w3.org/2000/svg">
<path d="M10.8111 5.40158C10.5807 5.18818 10.5693 4.82682 10.7827 4.59634C10.996 4.36587 11.3573 4.35449 11.5877 4.56789L11.6019 4.58212C12.35 5.30483 12.7283 6.36899 12.7283 7.74614C12.7283 9.11759 12.35 10.1789 11.6076 10.9016C11.3829 11.1207 11.0216 11.115 10.8026 10.8902C10.5836 10.6655 10.5892 10.3041 10.814 10.085C11.3288 9.58422 11.5905 8.79891 11.5905 7.74898C11.5905 6.69905 11.3288 5.90236 10.8111 5.40158ZM14.3668 7.74614C14.3668 9.42489 13.9401 10.6882 13.101 11.5048C12.8734 11.7211 12.8649 12.0824 13.0811 12.3101C13.2973 12.5377 13.6585 12.5462 13.8861 12.33L13.8946 12.3214C14.9642 11.2829 15.5075 9.74356 15.5075 7.74614C15.5075 5.74302 14.9613 4.198 13.8861 3.15945C13.6585 2.94036 13.3001 2.94889 13.0811 3.17368C12.862 3.4013 12.8706 3.75982 13.0953 3.97891C13.9373 4.79552 14.3668 6.06169 14.3668 7.74614ZM23 18.2625V19.6567C23 20.701 22.7184 21.5204 22.1637 22.098C21.5863 22.6984 20.7443 23 19.6577 23H6.34234C5.25572 23 4.41374 22.6955 3.8363 22.098C3.28161 21.5204 3 20.701 3 19.6567V18.2625C3 17.2183 3.28161 16.3988 3.8363 15.8212C4.41374 15.2208 5.25572 14.9192 6.34234 14.9192H7.71057V7.74614C7.71057 7.43315 7.96658 7.17707 8.27948 7.17707C8.59238 7.17707 8.84839 7.43315 8.84839 7.74614V14.9221H19.6548C20.7414 14.9221 21.5834 15.2265 22.1609 15.8241C22.7184 16.3988 23 17.2211 23 18.2625ZM7.02788 19.7933C7.1957 19.6226 7.28104 19.3893 7.28104 19.0962C7.28104 18.5044 6.91125 18.1373 6.31674 18.1373C5.72223 18.1373 5.35244 18.5044 5.35244 19.0962C5.35244 19.3893 5.43778 19.6226 5.6056 19.7933C5.77343 19.964 6.02091 20.0551 6.31674 20.0551C6.61257 20.0551 6.8572 19.964 7.02788 19.7933ZM9.80984 19.7933C9.97767 19.6226 10.063 19.3893 10.063 19.0962C10.063 18.5044 9.69322 18.1373 9.09871 18.1373C8.5042 18.1373 8.1344 18.5044 8.1344 19.0962C8.1344 19.3893 8.21974 19.6226 8.38757 19.7933C8.5554 19.964 8.80287 20.0551 9.09871 20.0551C9.39454 20.0551 9.64201 19.964 9.80984 19.7933Z" fill="#86888C"/>
</svg>
