<svg width="28" height="28" viewBox="0 0 28 28" fill="none" xmlns="http://www.w3.org/2000/svg">
<path fill-rule="evenodd" clip-rule="evenodd" d="M21.9734 21.3391C22.3661 20.6596 22.1339 19.7855 21.4544 19.3929C20.7749 19.0036 19.9008 19.2358 19.5081 19.9153C19.1154 20.5948 19.351 21.4689 20.0305 21.8616C20.249 21.9879 20.4949 22.0528 20.7407 22.0528C20.8637 22.0528 20.99 22.0357 21.1129 22.0016C21.4749 21.9025 21.7822 21.6669 21.9734 21.3391ZM18.6101 17.0641C18.7125 17.17 18.8491 17.2212 18.9823 17.2212C19.1154 17.2212 19.2452 17.17 19.3476 17.071L20.9354 15.5105L20.1978 14.773L18.6169 16.3266C18.412 16.528 18.4086 16.8593 18.6101 17.0641ZM15.537 15.7632L18.3642 12.9325L17.6267 12.195L14.7994 15.0256C14.5946 15.2305 14.5946 15.5617 14.7994 15.7632C14.9019 15.8656 15.035 15.9168 15.1682 15.9168C15.298 15.9168 15.4345 15.8656 15.537 15.7632ZM13.8126 12.096C13.9458 12.096 14.0755 12.0447 14.178 11.9457L15.7896 10.3614L15.0521 9.62383L13.4473 11.2014C13.2424 11.4028 13.239 11.734 13.4404 11.9389C13.5429 12.0413 13.6795 12.096 13.8126 12.096ZM10.3161 10.6858L13.2151 7.78339L12.4775 7.04585L9.57859 9.94821C9.37371 10.1531 9.37371 10.4809 9.57859 10.6858C9.68102 10.7882 9.81419 10.8394 9.94736 10.8394C10.0805 10.8394 10.2137 10.7882 10.3161 10.6858ZM8.59178 7.01853C8.72495 7.01853 8.8547 6.97073 8.95714 6.86829L10.6439 5.20882L9.90638 4.47128L8.22643 6.12392C8.02155 6.32538 8.01814 6.65659 8.2196 6.86146C8.32203 6.96731 8.45862 7.01853 8.59178 7.01853ZM25.6714 19.5636C25.8762 19.8367 25.9957 20.168 25.9957 20.5162C25.9957 20.9431 25.8284 21.346 25.5279 21.6465L21.6456 25.5322C21.3451 25.8361 20.9422 26 20.5154 26C20.0886 26 19.6891 25.8361 19.3886 25.5322L2.46609 8.59947C1.84464 7.97802 1.84464 6.9639 2.46609 6.33904L6.35184 2.45328C6.9528 1.84891 8.0079 1.84891 8.60886 2.45328L8.87519 2.71962L8.88885 2.70937L25.7055 19.5328L25.6714 19.5636Z" fill="#86888C"/>
</svg>
