<svg width="24" height="24" viewBox="0 0 24 24" fill="none" xmlns="http://www.w3.org/2000/svg">
<path fill-rule="evenodd" clip-rule="evenodd" d="M11.9972 2C18.3147 2 22 5.1901 22 12.0028C22 18.8156 18.3147 22 11.9972 22C5.67957 22 2 18.8156 2 12.0028C2 5.1901 5.67957 2 11.9972 2ZM12.0882 13.5965C11.9317 13.5908 8.20376 13.4599 5.83324 16.115C5.60273 16.3739 5.6255 16.7695 5.88446 16.9972C6.14343 17.2277 6.53614 17.2049 6.76665 16.9459C8.73876 14.7405 12.0057 14.8486 12.0569 14.8429C15.284 14.8771 17.222 16.9659 17.2419 16.9858C17.3643 17.1224 17.535 17.1907 17.7057 17.1907C17.8537 17.1907 18.0046 17.1394 18.1241 17.0313C18.3802 16.8008 18.403 16.4052 18.1696 16.1491C18.0757 16.0467 15.8617 13.6363 12.0882 13.5965ZM8.96642 10.5259C9.32783 10.5259 9.62948 10.4121 9.84007 10.1986C10.045 9.98805 10.1503 9.69778 10.1503 9.33921C10.1503 8.60501 9.69493 8.14969 8.96642 8.14969C8.23506 8.14969 7.78258 8.60501 7.78258 9.33921C7.78258 9.69778 7.88788 9.98805 8.09277 10.1986C8.30336 10.4121 8.60501 10.5259 8.96642 10.5259ZM15.0336 10.5259C15.395 10.5259 15.6966 10.4121 15.9072 10.1986C16.115 9.98805 16.2203 9.69778 16.2203 9.33921C16.2203 8.60501 15.7649 8.14969 15.0364 8.14969C14.3051 8.14969 13.8526 8.60501 13.8526 9.33921C13.8526 9.69778 13.9579 9.98805 14.1628 10.1986C14.3677 10.4121 14.6693 10.5259 15.0336 10.5259Z" fill="#86888C"/>
</svg>
