<svg width="28" height="28" viewBox="0 0 28 28" fill="none" xmlns="http://www.w3.org/2000/svg">
<path fill-rule="evenodd" clip-rule="evenodd" d="M14.9966 3C22.5777 3 27 6.82812 27 15.0034C27 23.1787 22.5777 27 14.9966 27C7.41548 27 3 23.1787 3 15.0034C3 6.82812 7.41548 3 14.9966 3ZM15.1059 16.9158C14.918 16.9089 10.4445 16.7518 7.59989 19.938C7.32328 20.2487 7.3506 20.7234 7.66135 20.9966C7.97211 21.2732 8.44337 21.2459 8.71998 20.9351C11.0865 18.2886 15.0068 18.4183 15.0683 18.4115C18.9408 18.4525 21.2664 20.959 21.2903 20.9829C21.4371 21.1468 21.642 21.2288 21.8469 21.2288C22.0245 21.2288 22.2055 21.1673 22.3489 21.0376C22.6562 20.761 22.6836 20.2863 22.4035 19.9789C22.2908 19.856 19.634 16.9636 15.1059 16.9158ZM11.3597 13.2311C11.7934 13.2311 12.1554 13.0945 12.4081 12.8384C12.654 12.5857 12.7803 12.2373 12.7803 11.8071C12.7803 10.926 12.2339 10.3796 11.3597 10.3796C10.4821 10.3796 9.9391 10.926 9.9391 11.8071C9.9391 12.2373 10.0655 12.5857 10.3113 12.8384C10.564 13.0945 10.926 13.2311 11.3597 13.2311ZM18.6403 13.2311C19.074 13.2311 19.436 13.0945 19.6887 12.8384C19.938 12.5857 20.0643 12.2373 20.0643 11.8071C20.0643 10.926 19.5179 10.3796 18.6437 10.3796C17.7661 10.3796 17.2231 10.926 17.2231 11.8071C17.2231 12.2373 17.3495 12.5857 17.5953 12.8384C17.8412 13.0945 18.2032 13.2311 18.6403 13.2311Z" fill="#86888C"/>
</svg>
