<svg width="40" height="40" viewBox="0 0 40 40" fill="none" xmlns="http://www.w3.org/2000/svg">
<path fill-rule="evenodd" clip-rule="evenodd" d="M37.5581 29.4975C38.1473 30.0865 38.1473 31.0341 37.5581 31.6231L31.6309 37.5595C31.3389 37.8566 30.9547 38 30.5705 38C30.1863 38 29.8021 37.8566 29.51 37.5595L26.4004 34.4453L23.1115 34.2507C22.7427 34.2302 22.3994 34.0714 22.1382 33.8153L17.6403 29.3131C17.0562 28.7241 17.0562 27.7765 17.6403 27.1875L18.3267 26.496L15.8729 24.0374C15.5911 23.7557 15.4323 23.3767 15.4323 22.972C15.4323 22.5725 15.5911 22.1935 15.8729 21.9067L21.8001 15.9651C22.3841 15.3761 23.3369 15.3761 23.9209 15.9651L26.3748 18.4237L27.0613 17.7374C27.6453 17.1483 28.5982 17.1483 29.1822 17.7374L33.675 22.2396C33.9209 22.4855 34.0746 22.8133 34.1053 23.1564L34.4127 26.3526L37.5581 29.4975ZM20.1197 13.9368C20.0941 13.9676 20.0685 13.9932 20.0429 14.0188L12.3637 21.7069C12.0716 21.9989 11.6874 22.1474 11.3032 22.1474C10.919 22.1474 10.5348 21.9989 10.2428 21.7069L5.99587 17.4505C5.73973 17.1944 5.58092 16.8512 5.56043 16.4876L5.35551 13.4349L2.44057 10.5102C2.15881 10.2285 2 9.84435 2 9.44483C2 9.04532 2.15881 8.66117 2.44057 8.37946L8.36778 2.43793C8.95179 1.85402 9.90466 1.85402 10.4887 2.43793L13.3831 5.33699L16.5337 5.42918C16.9179 5.43943 17.2817 5.59821 17.548 5.86967L21.7949 10.1261C22.3841 10.71 22.3841 11.6627 21.7949 12.2517L20.1197 13.9368Z" fill="#86888C"/>
</svg>
