<svg width="40" height="40" viewBox="0 0 40 40" fill="none" xmlns="http://www.w3.org/2000/svg">
<path fill-rule="evenodd" clip-rule="evenodd" d="M25.32 35.1233L24.2751 30.0526C26.4621 29.3048 28.8899 27.7221 30.0475 24.4083L35.0874 25.448C33.474 31.6096 29.1358 34.1399 25.32 35.1233ZM20.4439 28.475C20.2647 28.4802 20.0547 28.4802 19.8447 28.4802H19.5373C18.3593 28.4597 17.1966 28.2343 16.0954 27.8246C13.0121 26.626 11.5165 24.0549 11.5165 19.9676C11.5165 12.674 16.4847 11.5421 19.4503 11.5165H19.6295C19.8908 11.5165 20.1622 11.5216 20.3927 11.5267C27.6914 11.7009 28.4802 17.5296 28.4802 20.029C28.4802 22.5285 27.7016 28.347 20.4439 28.475ZM14.6767 35.1437C10.8711 34.1655 6.54824 31.6352 4.9246 25.448L9.96966 24.4083C11.0504 27.5121 13.2221 29.1204 15.2862 29.9194C15.4347 29.9809 15.5781 30.0116 15.7267 30.0628L14.6767 35.1437ZM14.6152 4.81704L15.6703 9.9082C13.4372 10.656 10.9684 12.295 9.8621 15.8086L4.8324 14.7689C6.37409 8.33578 10.7738 5.77995 14.6152 4.81704ZM25.3558 4.93484C29.1972 5.96946 33.5406 8.55602 35.1181 14.7791L30.0987 15.8137C28.9719 12.4128 26.5287 10.7738 24.3109 9.99015L25.3558 4.93484ZM20.7512 2.02049C20.3364 2.00512 19.8549 2 19.3888 2H19.0508C15.4347 2.03073 2 3.27023 2 19.942C2 36.6342 15.5628 37.9403 19.1737 37.9966C19.7217 38.0018 20.2749 38.0018 20.8229 37.9915C24.2597 37.9249 37.9966 36.6393 37.9966 20.0495C37.9966 3.49559 24.2802 2.10244 20.7512 2.02049Z" fill="#86888C"/>
</svg>
