<svg width="20" height="20" viewBox="0 0 20 20" fill="none" xmlns="http://www.w3.org/2000/svg">
<path fill-rule="evenodd" clip-rule="evenodd" d="M12.3644 16.7214L11.9 14.4678C12.8721 14.1355 13.9511 13.4321 14.4655 11.9592L16.7055 12.4213C15.9884 15.1598 14.0603 16.2844 12.3644 16.7214ZM10.1973 13.7667C10.1176 13.769 10.0243 13.769 9.93096 13.769H9.79438C9.27081 13.7599 8.75406 13.6597 8.26464 13.4776C6.89425 12.9449 6.22954 11.8022 6.22954 9.98559C6.22954 6.74401 8.43765 6.24092 9.75568 6.22954H9.83535C9.95145 6.22954 10.0721 6.23182 10.1745 6.2341C13.4184 6.31149 13.769 8.90203 13.769 10.0129C13.769 11.1238 13.423 13.7098 10.1973 13.7667ZM7.63408 16.7306C5.94272 16.2958 4.02144 15.1712 3.29982 12.4213L5.54207 11.9592C6.02239 13.3387 6.98758 14.0535 7.90497 14.4086C7.97098 14.4359 8.03472 14.4496 8.10074 14.4724L7.63408 16.7306ZM7.60676 3.25202L8.0757 5.51475C7.08319 5.84711 5.98597 6.57555 5.49427 8.13716L3.25885 7.67505C3.94404 4.8159 5.89946 3.67998 7.60676 3.25202ZM12.3804 3.30437C14.0877 3.76421 16.018 4.91379 16.7192 7.67961L14.4883 8.13944C13.9875 6.62791 12.9017 5.89947 11.916 5.55118L12.3804 3.30437ZM10.3339 2.00911C10.1495 2.00228 9.93551 2 9.72836 2H9.57812C7.97098 2.01366 2 2.56455 2 9.97421C2 17.393 8.02789 17.9735 9.63275 17.9985C9.87633 18.0008 10.1222 18.0008 10.3658 17.9962C11.8932 17.9666 17.9985 17.3953 17.9985 10.022C17.9985 2.66471 11.9023 2.04553 10.3339 2.00911Z" fill="#86888C"/>
</svg>
