<svg width="40" height="40" viewBox="0 0 40 40" fill="none" xmlns="http://www.w3.org/2000/svg">
<path fill-rule="evenodd" clip-rule="evenodd" d="M16.3836 30.6053C8.43948 30.6053 2 24.1659 2 16.2218C2 12.4064 3.51487 8.75014 6.21083 6.04905C11.9211 0.523622 21.0257 0.672541 26.5512 6.3777C31.712 11.7053 31.9426 20.0275 27.243 25.6227L37.6996 36.0793C38.1001 36.4799 38.1001 37.132 37.6996 37.5326C37.4993 37.7277 37.2426 37.8355 36.9704 37.8355C36.6982 37.8355 36.4364 37.7277 36.2463 37.5326L25.8033 27.0895C23.2015 29.3563 19.8563 30.6147 16.3836 30.6053ZM25.226 24.8844C25.2051 24.9007 25.1846 24.9179 25.1647 24.936C25.1234 24.9743 25.0859 25.0151 25.0522 25.0581C20.2112 29.804 12.4435 29.7566 7.66407 24.9413C5.35325 22.6253 4.05406 19.4929 4.05406 16.2218C4.05406 9.41257 9.57435 3.89228 16.3836 3.89228C19.6547 3.88201 22.7922 5.18121 25.1031 7.50229C25.1097 7.50896 25.1169 7.51563 25.1243 7.52247C25.1397 7.53671 25.1559 7.55171 25.1698 7.56905C29.9251 12.365 29.9405 20.0786 25.226 24.8844ZM23.9066 8.88862C19.8036 4.78563 13.1536 4.78563 9.05058 8.88862C4.9476 12.9916 4.9476 19.6416 9.05058 23.7446C13.1536 27.8476 19.8036 27.8476 23.9066 23.7446C25.8785 21.7727 26.9825 19.1024 26.9825 16.314C26.9928 13.5308 25.8836 10.8554 23.9066 8.88862Z" fill="#86888C"/>
</svg>
