<svg width="28" height="28" viewBox="0 0 28 28" fill="none" xmlns="http://www.w3.org/2000/svg">
<path fill-rule="evenodd" clip-rule="evenodd" d="M11.589 21.0702C6.29299 21.0702 2 16.7772 2 11.4812C2 8.93758 3.00991 6.50009 4.80722 4.69936C8.61408 1.01575 14.6838 1.11503 18.3674 4.91846C21.808 8.47018 21.9617 14.0183 18.8287 17.7485L25.7997 24.7195C26.0668 24.9866 26.0668 25.4214 25.7997 25.6884C25.6662 25.8185 25.495 25.8904 25.3136 25.8904C25.1322 25.8904 24.9576 25.8185 24.8309 25.6884L17.8689 18.7264C16.1343 20.2375 13.9042 21.0765 11.589 21.0702ZM17.3682 17.3721C14.1408 20.536 8.96237 20.5044 5.77605 17.2942C4.2355 15.7502 3.36937 13.6619 3.36937 11.4812C3.36937 6.94171 7.04957 3.26152 11.589 3.26152C13.7698 3.25467 15.8615 4.1208 17.402 5.6682C17.4065 5.67264 17.4113 5.67709 17.4162 5.68165C17.4265 5.69114 17.4373 5.70114 17.4465 5.7127C20.6167 8.91001 20.627 14.0524 17.484 17.2563C17.4701 17.2671 17.4564 17.2786 17.4431 17.2907C17.4156 17.3162 17.3906 17.3434 17.3682 17.3721ZM16.6044 6.59241C13.8691 3.85709 9.43571 3.85709 6.70039 6.59241C3.96506 9.32774 3.96506 13.7611 6.70039 16.4964C9.43571 19.2317 13.8691 19.2317 16.6044 16.4964C17.919 15.1818 18.655 13.4016 18.655 11.5427C18.6619 9.6872 17.9224 7.90359 16.6044 6.59241Z" fill="#86888C"/>
</svg>
