<svg width="20" height="20" viewBox="0 0 20 20" fill="none" xmlns="http://www.w3.org/2000/svg">
<path fill-rule="evenodd" clip-rule="evenodd" d="M8.3927 14.7135C4.86199 14.7135 2 11.8515 2 8.32079C2 6.62505 2.67328 5.00006 3.87148 3.79958C6.40939 1.34383 10.4559 1.41002 12.9116 3.94564C15.2053 6.31346 15.3078 10.0122 13.2191 12.499L17.8665 17.1464C18.0445 17.3244 18.0445 17.6142 17.8665 17.7923C17.7775 17.879 17.6634 17.9269 17.5424 17.9269C17.4214 17.9269 17.305 17.879 17.2206 17.7923L12.5793 13.1509C11.4229 14.1583 9.93615 14.7176 8.3927 14.7135ZM12.2454 12.2481C10.0939 14.3573 6.64157 14.3362 4.51737 12.1961C3.49034 11.1668 2.91292 9.77461 2.91292 8.32079C2.91292 5.29448 5.36638 2.84101 8.3927 2.84101C9.84652 2.83645 11.241 3.41387 12.268 4.44546C12.271 4.44843 12.2742 4.45139 12.2775 4.45443L12.2775 4.45445C12.2843 4.46077 12.2915 4.46743 12.2977 4.47513C14.4111 6.60667 14.418 10.0349 12.3227 12.1708C12.3134 12.1781 12.3043 12.1857 12.2954 12.1938C12.2771 12.2108 12.2604 12.229 12.2454 12.2481ZM11.7363 5.06163C9.91271 3.23808 6.95714 3.23808 5.13359 5.06163C3.31004 6.88518 3.31004 9.84075 5.13359 11.6643C6.95714 13.4879 9.91271 13.4879 11.7363 11.6643C12.6127 10.7879 13.1034 9.60111 13.1034 8.36182C13.1079 7.12482 12.6149 5.93575 11.7363 5.06163Z" fill="#86888C"/>
</svg>
