<svg width="40" height="40" viewBox="0 0 40 40" fill="none" xmlns="http://www.w3.org/2000/svg">
<path fill-rule="evenodd" clip-rule="evenodd" d="M6.38322 7.68184C9.31321 8.1531 10.8704 7.09277 12.8323 5.75583C14.5739 4.57257 16.5306 3.26124 19.6399 3V19.5401H5.24093C4.98481 14.4946 5.00018 9.11098 5.00018 8.77803C5.00018 8.42971 5.15897 8.10188 5.42533 7.88162C5.69682 7.6716 6.05026 7.59989 6.38322 7.68184ZM36.5027 8.78315C36.5027 9.11611 36.5181 14.4997 36.2671 19.5452H21.863V3C24.9723 3.26124 26.929 4.57257 28.6706 5.75583C30.6376 7.09277 32.2051 8.13773 35.1658 7.6716C35.801 7.57427 36.3952 8.00968 36.4925 8.63973C36.4925 8.69095 36.4976 8.73705 36.5027 8.78315ZM21.863 39V21.8196H36.1339C36.0212 23.4485 35.8778 24.9545 35.6832 26.107V26.1121C34.6638 32.095 24.6854 37.5657 21.863 39ZM5.84024 26.107C5.64047 24.9545 5.49705 23.4485 5.37923 21.8145H19.645V38.9949C16.8226 37.5657 6.85447 32.095 5.84024 26.107Z" fill="#86888C"/>
</svg>
