<svg width="20" height="20" viewBox="0 0 20 20" fill="none" xmlns="http://www.w3.org/2000/svg">
<path fill-rule="evenodd" clip-rule="evenodd" d="M3.61476 4.08082C4.91698 4.29027 5.60907 3.81901 6.48101 3.22482C7.25506 2.69892 8.12472 2.11611 9.50662 2V9.35117H3.10708C2.99325 7.10871 3.00008 4.71599 3.00008 4.56801C3.00008 4.4132 3.07065 4.2675 3.18904 4.16961C3.3097 4.07627 3.46678 4.04439 3.61476 4.08082ZM17.0012 4.57029C17.0012 4.71827 17.008 7.11098 16.8965 9.35344H10.4947V2C11.8766 2.11611 12.7462 2.69892 13.5203 3.22482C14.3945 3.81901 15.0911 4.28344 16.407 4.07627C16.6893 4.03301 16.9534 4.22652 16.9967 4.50655C16.9967 4.52931 16.9989 4.5498 17.0012 4.57029ZM10.4947 18V10.3643H16.8373C16.7872 11.0882 16.7235 11.7575 16.637 12.2698V12.2721C16.1839 14.9311 11.7491 17.3626 10.4947 18ZM3.37344 12.2698C3.28465 11.7575 3.22091 11.0882 3.16855 10.362H9.5089V17.9977C8.25449 17.3626 3.82421 14.9311 3.37344 12.2698Z" fill="#86888C"/>
</svg>
