<svg width="40" height="40" viewBox="0 0 40 40" fill="none" xmlns="http://www.w3.org/2000/svg">
<path fill-rule="evenodd" clip-rule="evenodd" d="M36.5073 8.74279C36.5073 9.23459 36.538 20.8431 35.6876 25.8636C34.5504 32.467 21.7636 38.6401 21.2205 38.8963C20.9285 39.0346 20.5853 39.0346 20.2882 38.8963C19.7451 38.635 6.97371 32.4619 5.83642 25.8584C4.96553 20.838 4.99627 9.22946 5.00139 8.73766C5.00139 8.39955 5.1602 8.08193 5.42147 7.87189C5.68274 7.66697 6.03109 7.59013 6.35384 7.6721C9.30464 8.13828 10.862 7.08809 12.8343 5.76637C14.7759 4.4754 16.9736 3 20.7492 3H20.7595C24.5351 3.00512 26.7277 4.4754 28.6693 5.77662C30.6416 7.09833 32.2041 8.14341 35.1907 7.6721C35.8055 7.56964 36.3895 7.98972 36.4919 8.60447L36.5073 8.74279ZM18.0341 24.4445L14.3661 20.7355C13.946 20.3103 13.2646 20.3052 12.8394 20.7202L12.8241 20.7355C12.3989 21.1659 12.3989 21.8626 12.8241 22.2929L17.2656 26.7857C17.6857 27.2109 18.3773 27.2109 18.7974 26.7908L18.8025 26.7857L28.6897 16.7858C29.1149 16.3554 29.1149 15.6587 28.6897 15.2284C28.2697 14.8032 27.5883 14.7981 27.1631 15.213L27.1477 15.2284C27.1426 15.2233 18.0341 24.4445 18.0341 24.4445Z" fill="#86888C"/>
</svg>
