<svg width="24" height="24" viewBox="0 0 24 24" fill="none" xmlns="http://www.w3.org/2000/svg">
<path fill-rule="evenodd" clip-rule="evenodd" d="M3.76845 4.60102C5.39623 4.86283 6.26134 4.27376 7.35126 3.53102C8.31882 2.87365 9.4059 2.14513 11.1333 2V11.189H3.13385C2.99156 8.38588 3.0001 5.39499 3.0001 5.21002C3.0001 5.01651 3.08832 4.83438 3.2363 4.71201C3.38712 4.59533 3.58348 4.55549 3.76845 4.60102ZM20.5015 5.21286C20.5015 5.39784 20.5101 8.38873 20.3706 11.1918H12.3683V2C14.0957 2.14513 15.1828 2.87365 16.1504 3.53102C17.2431 4.27376 18.1139 4.8543 19.7588 4.59533C20.1117 4.54126 20.4418 4.78315 20.4958 5.13318C20.4958 5.16164 20.4987 5.18725 20.5015 5.21286ZM12.3683 22V12.4553H20.2966C20.234 13.3603 20.1543 14.1969 20.0462 14.8372V14.8401C19.4799 18.1639 13.9364 21.2032 12.3683 22ZM3.4668 14.8372C3.35582 14.1969 3.27614 13.3603 3.21068 12.4525H11.1361V21.9972C9.56811 21.2032 4.03026 18.1639 3.4668 14.8372Z" fill="#86888C"/>
</svg>
