<svg width="40" height="40" viewBox="0 0 40 40" fill="none" xmlns="http://www.w3.org/2000/svg">
<path fill-rule="evenodd" clip-rule="evenodd" d="M36.5027 8.75754C36.5027 9.24929 36.5334 20.8412 35.6831 25.856C34.5664 32.3512 22.5852 38.2419 21.2278 38.8924C20.9256 39.0359 20.5773 39.0359 20.2802 38.8924C18.9176 38.2419 6.95176 32.3512 5.83508 25.856C4.9694 20.8412 5.00014 9.24929 5.00014 8.75754C5.00014 8.14286 5.497 7.64086 6.11681 7.64086C6.20389 7.64086 6.29609 7.65111 6.38317 7.6716C9.32341 8.14798 10.8704 7.09277 12.8374 5.77632C14.7736 4.47012 16.9711 3 20.7463 3H20.7565C24.5317 3.00512 26.7292 4.47524 28.6655 5.77632C30.6325 7.09277 32.1897 8.13773 35.1606 7.66648C35.4885 7.61525 35.8214 7.70746 36.0827 7.91747C36.3388 8.12237 36.4873 8.42971 36.5027 8.75754ZM20.7514 26.4092C17.8931 26.4092 17.1145 25.3438 17.1145 21.4508C17.1145 19.0228 17.4526 17.7166 18.2568 17.0968C18.7793 16.6921 19.5989 16.4923 20.7565 16.4923C21.8988 16.4923 22.7133 16.687 23.2409 17.0865C24.0502 17.7063 24.3934 19.0125 24.3934 21.4508C24.3883 25.3438 23.6097 26.4092 20.7514 26.4092ZM20.7565 13.5316C23.1948 13.5316 23.1948 14.0336 23.1948 14.7302C23.1948 14.7456 23.1948 14.7507 23.1897 14.7661C22.4981 14.5304 21.6991 14.4024 20.7463 14.4024C19.8038 14.4024 19.0047 14.5304 18.3183 14.761L18.3132 14.7302C18.3183 14.0336 18.3183 13.5316 20.7565 13.5316ZM26.0018 13.5367L26.0787 14.9607L25.2335 15.222C25.254 15.0581 25.2745 14.8993 25.2745 14.7251C25.2745 12.8247 24.2193 12.0359 23.0667 11.6927C23.3485 11.2829 23.3024 10.7348 22.954 10.3762C22.5596 9.97154 21.9091 9.96642 21.5044 10.3608L21.489 10.3762L20.7668 11.1087C20.7514 11.1241 20.7463 11.1446 20.7258 11.1651C20.7104 11.1446 20.7053 11.1241 20.6899 11.1087L19.9626 10.3762C19.5681 9.97154 18.9176 9.96642 18.5129 10.3608L18.4976 10.3762C18.1441 10.7399 18.1032 11.2982 18.4002 11.708C17.2733 12.0615 16.254 12.8503 16.254 14.72C16.254 14.8993 16.2745 15.0683 16.295 15.2322L15.3883 14.9505L15.4651 13.5265C15.4959 12.9528 15.0605 12.461 14.4868 12.4252C13.9233 12.4354 13.4264 12.8401 13.3957 13.4189L13.2779 15.6625C13.2523 16.144 13.5545 16.5794 14.0104 16.7228L15.67 17.2351C15.3576 17.9829 15.1936 18.823 15.1168 19.6784H13.8721C13.2984 19.6784 12.8322 20.1497 12.8322 20.7234V22.214C12.8322 22.7928 13.2984 23.2641 13.8721 23.2641C14.4407 23.2641 14.9068 22.7928 14.9068 22.214V21.7735H15.0502C15.0605 22.8338 15.1475 23.8634 15.3832 24.7854L14.0104 25.2106C13.5545 25.354 13.2523 25.7894 13.2779 26.2658L13.3957 28.5094C13.4264 29.0677 13.8823 29.5031 14.4304 29.5031H14.4868C15.0553 29.4724 15.4959 28.9806 15.4651 28.4018L15.3883 26.9778L16.2745 26.7063C17.1094 27.8025 18.4873 28.4991 20.7565 28.4991C23.0155 28.4991 24.3934 27.8076 25.2335 26.7166L26.0838 26.9778L26.007 28.4018C25.9762 28.9755 26.4116 29.4673 26.9853 29.5031H27.0417C27.5949 29.498 28.0508 29.0626 28.0764 28.5094L28.1942 26.2658C28.2198 25.7843 27.9176 25.3489 27.4617 25.2106L26.1248 24.8008C26.3655 23.8788 26.4526 22.8441 26.4629 21.7735H26.6063V22.214C26.6063 22.7928 27.0724 23.2641 27.641 23.2641C28.2147 23.2641 28.6808 22.7928 28.6808 22.2191V20.7234C28.686 20.1497 28.2198 19.6784 27.6461 19.6733H26.3911C26.3092 18.8127 26.1504 17.9676 25.8328 17.2197L27.4566 16.7177C27.9176 16.5743 28.2198 16.1389 28.1891 15.6574L28.0713 13.4138C28.0405 12.8349 27.5642 12.4252 26.9802 12.42C26.4065 12.4661 25.9711 12.963 26.0018 13.5367ZM20.6951 18.0188C20.1214 18.0188 19.6552 18.49 19.6604 19.0637V24.6471C19.6604 25.226 20.1214 25.6921 20.6951 25.6921C21.2688 25.6921 21.7298 25.2208 21.7298 24.6471V19.0637C21.7298 18.4952 21.2688 18.0239 20.6951 18.0188Z" fill="#86888C"/>
</svg>
