<svg width="40" height="40" viewBox="0 0 40 40" fill="none" xmlns="http://www.w3.org/2000/svg">
<path fill-rule="evenodd" clip-rule="evenodd" d="M20.7463 39C20.5875 39 20.4236 38.9641 20.275 38.8924C18.9125 38.2419 6.95176 32.3512 5.83508 25.856C4.9694 20.8412 5.00014 9.24929 5.00014 8.75754C5.00014 8.40922 5.15893 8.08651 5.43041 7.87137C5.7019 7.66135 6.05534 7.58964 6.38317 7.6716C9.31317 8.14286 10.8601 7.09277 12.8271 5.7712C14.7685 4.47012 16.966 3 20.7412 3H20.7565C24.5317 3.00512 26.7292 4.47524 28.6655 5.77632C30.6325 7.09789 32.1897 8.13261 35.1606 7.66648C35.4782 7.61525 35.8317 7.70233 36.0775 7.91747C36.3234 8.13261 36.4925 8.43483 36.4976 8.76266C36.4976 9.25441 36.5283 20.8463 35.678 25.8611C34.5613 32.3563 22.5852 38.247 21.2227 38.8976C21.069 38.9641 20.9051 39 20.7463 39Z" fill="#86888C"/>
</svg>
