<svg width="20" height="20" viewBox="0 0 20 20" fill="none" xmlns="http://www.w3.org/2000/svg">
<path fill-rule="evenodd" clip-rule="evenodd" d="M17.0012 4.55891C17.0012 4.77746 17.0149 9.92943 16.6369 12.1582C16.1406 15.045 10.8157 17.6631 10.2124 17.9522C10.078 18.0159 9.92322 18.0159 9.79118 17.9522C9.1856 17.6631 3.86745 15.045 3.37115 12.1582C2.9864 9.92943 3.00006 4.77746 3.00006 4.55891C3.00006 4.28571 3.22089 4.06261 3.49636 4.06261C3.53506 4.06261 3.57604 4.06716 3.61474 4.07627C4.92152 4.28799 5.60905 3.81901 6.48327 3.23392C7.34383 2.65339 8.32049 2 9.99835 2H10.0029C11.6808 2.00228 12.6574 2.65566 13.518 3.23392C14.3922 3.81901 15.0843 4.28344 16.4047 4.07399C16.5504 4.05122 16.6984 4.0922 16.8145 4.18554C16.9283 4.27661 16.9944 4.4132 17.0012 4.55891ZM10.0006 12.4041C8.73028 12.4041 8.38424 11.9306 8.38424 10.2003C8.38424 9.12123 8.53449 8.5407 8.89192 8.26523C9.12414 8.08537 9.48839 7.99659 10.0029 7.99659C10.5106 7.99659 10.8726 8.0831 11.1071 8.26067C11.4668 8.53614 11.6193 9.11668 11.6193 10.2003C11.617 11.9306 11.271 12.4041 10.0006 12.4041ZM10.0029 6.68071C11.0866 6.68071 11.0866 6.90381 11.0866 7.21343C11.0866 7.22026 11.0866 7.22254 11.0843 7.22937C10.777 7.12464 10.4218 7.06773 9.99835 7.06773C9.57946 7.06773 9.22431 7.12464 8.91924 7.22709L8.91696 7.21343C8.91924 6.90381 8.91924 6.68071 10.0029 6.68071ZM12.3342 6.68298L12.3683 7.31588L11.9927 7.43199C12.0018 7.35914 12.0109 7.28856 12.0109 7.21116C12.0109 6.36653 11.5419 6.01594 11.0297 5.8634C11.1549 5.68128 11.1344 5.43768 10.9796 5.27832C10.8043 5.09846 10.5151 5.09619 10.3353 5.27149L10.3285 5.27832L10.0075 5.60387C10.0006 5.6107 9.99835 5.61981 9.98925 5.62891C9.98242 5.61981 9.98014 5.6107 9.97331 5.60387L9.65003 5.27832C9.47473 5.09846 9.1856 5.09619 9.00575 5.27149L8.99892 5.27832C8.84184 5.43995 8.82362 5.6881 8.95567 5.87023C8.45481 6.02732 8.00177 6.37792 8.00177 7.20888C8.00177 7.28856 8.01087 7.36369 8.01998 7.43654L7.61702 7.31133L7.65117 6.67843C7.66483 6.42345 7.47132 6.2049 7.21634 6.18896C6.96591 6.19351 6.74508 6.37336 6.73142 6.63062L6.67906 7.62777C6.66768 7.84178 6.802 8.03529 7.00461 8.09903L7.74223 8.32669C7.60336 8.65908 7.53051 9.03244 7.49636 9.41264H6.94315C6.68816 9.41264 6.48099 9.62208 6.48099 9.87706V10.5396C6.48099 10.7968 6.68816 11.0063 6.94315 11.0063C7.19585 11.0063 7.40302 10.7968 7.40302 10.5396V10.3438H7.46676C7.47132 10.815 7.51002 11.2726 7.61474 11.6824L7.00461 11.8714C6.802 11.9351 6.66768 12.1286 6.67906 12.3404L6.73142 13.3375C6.74508 13.5857 6.9477 13.7792 7.1913 13.7792H7.21634C7.46904 13.7655 7.66483 13.547 7.65117 13.2897L7.61702 12.6568L8.01087 12.5361C8.38196 13.0233 8.99437 13.333 10.0029 13.333C11.0069 13.333 11.6193 13.0256 11.9927 12.5407L12.3706 12.6568L12.3364 13.2897C12.3228 13.5447 12.5163 13.7632 12.7713 13.7792H12.7963C13.0422 13.7769 13.2448 13.5834 13.2562 13.3375L13.3085 12.3404C13.3199 12.1264 13.1856 11.9328 12.983 11.8714L12.3888 11.6892C12.4958 11.2795 12.5345 10.8196 12.539 10.3438H12.6028V10.5396C12.6028 10.7968 12.81 11.0063 13.0627 11.0063C13.3176 11.0063 13.5248 10.7968 13.5248 10.5418V9.87706C13.5271 9.62208 13.3199 9.41264 13.0649 9.41036H12.5072C12.4707 9.02789 12.4002 8.65225 12.259 8.31986L12.9807 8.09676C13.1856 8.03301 13.3199 7.8395 13.3063 7.6255L13.2539 6.62834C13.2402 6.37109 13.0285 6.18896 12.769 6.18668C12.514 6.20717 12.3205 6.428 12.3342 6.68298ZM9.97559 8.67501C9.72061 8.67501 9.51344 8.88446 9.51571 9.13944V11.6209C9.51571 11.8782 9.72061 12.0854 9.97559 12.0854C10.2306 12.0854 10.4355 11.8759 10.4355 11.6209V9.13944C10.4355 8.88674 10.2306 8.67729 9.97559 8.67501Z" fill="#86888C"/>
</svg>
