<svg width="28" height="28" viewBox="0 0 28 28" fill="none" xmlns="http://www.w3.org/2000/svg">
<path fill-rule="evenodd" clip-rule="evenodd" d="M25.0018 6.83836C25.0018 7.16619 25.0223 14.8941 24.4554 18.2373C23.711 22.5674 15.7235 26.4946 14.8185 26.9283C14.6171 27.0239 14.3848 27.0239 14.1868 26.9283C13.2784 26.4946 5.30117 22.5674 4.55672 18.2373C3.9796 14.8941 4.00009 7.16619 4.00009 6.83836C4.00009 6.42857 4.33134 6.09391 4.74454 6.09391C4.80259 6.09391 4.86406 6.10074 4.92212 6.1144C6.88228 6.43199 7.91358 5.72851 9.22491 4.85088C10.5157 3.98008 11.9807 3 14.4975 3H14.5044C17.0211 3.00341 18.4861 3.98349 19.777 4.85088C21.0883 5.72851 22.1264 6.42516 24.1071 6.11098C24.3256 6.07684 24.5476 6.1383 24.7218 6.27832C24.8925 6.41491 24.9916 6.61981 25.0018 6.83836ZM14.5009 18.6061C12.5954 18.6061 12.0764 17.8958 12.0764 15.3005C12.0764 13.6818 12.3017 12.811 12.8379 12.3978C13.1862 12.1281 13.7326 11.9949 14.5044 11.9949C15.2659 11.9949 15.8089 12.1246 16.1606 12.391C16.7001 12.8042 16.9289 13.675 16.9289 15.3005C16.9255 17.8958 16.4065 18.6061 14.5009 18.6061ZM14.5044 10.0211C16.1299 10.0211 16.1299 10.3557 16.1299 10.8201C16.1299 10.8304 16.1299 10.8338 16.1264 10.8441C15.6654 10.687 15.1327 10.6016 14.4975 10.6016C13.8692 10.6016 13.3365 10.687 12.8789 10.8406L12.8754 10.8201C12.8789 10.3557 12.8789 10.0211 14.5044 10.0211ZM18.0012 10.0245L18.0525 10.9738L17.489 11.148C17.5027 11.0387 17.5163 10.9328 17.5163 10.8167C17.5163 9.5498 16.8128 9.0239 16.0445 8.7951C16.2323 8.52191 16.2016 8.15652 15.9694 7.91747C15.7064 7.6477 15.2727 7.64428 15.0029 7.90723L14.9927 7.91747L14.5112 8.40581C14.5009 8.41605 14.4975 8.42971 14.4839 8.44337C14.4736 8.42971 14.4702 8.41605 14.46 8.40581L13.975 7.91747C13.7121 7.6477 13.2784 7.64428 13.0086 7.90723L12.9984 7.91747C12.7628 8.15993 12.7354 8.53216 12.9335 8.80535C12.1822 9.04098 11.5027 9.56688 11.5027 10.8133C11.5027 10.9328 11.5163 11.0455 11.53 11.1548L10.9255 10.967L10.9768 10.0176C10.9972 9.63517 10.707 9.30734 10.3245 9.28344C9.94887 9.29027 9.61762 9.56005 9.59713 9.94593L9.51859 11.4417C9.50151 11.7627 9.70299 12.0529 10.0069 12.1485L11.1134 12.49C10.905 12.9886 10.7958 13.5487 10.7445 14.119H9.91472C9.53225 14.119 9.22149 14.4331 9.22149 14.8156V15.8093C9.22149 16.1952 9.53225 16.5094 9.91472 16.5094C10.2938 16.5094 10.6045 16.1952 10.6045 15.8093V15.5157H10.7001C10.707 16.2225 10.765 16.9089 10.9221 17.5236L10.0069 17.8071C9.70299 17.9027 9.50151 18.1929 9.51859 18.5105L9.59713 20.0063C9.61762 20.3785 9.92155 20.6688 10.2869 20.6688H10.3245C10.7036 20.6483 10.9972 20.3204 10.9768 19.9345L10.9255 18.9852L11.5163 18.8042C12.0729 19.535 12.9916 19.9994 14.5044 19.9994C16.0103 19.9994 16.9289 19.5384 17.489 18.811L18.0559 18.9852L18.0046 19.9345C17.9842 20.317 18.2744 20.6448 18.6569 20.6688H18.6945C19.0633 20.6653 19.3672 20.3751 19.3843 20.0063L19.4628 18.5105C19.4799 18.1895 19.2784 17.8993 18.9745 17.8071L18.0832 17.5339C18.2437 16.9192 18.3017 16.2294 18.3086 15.5157H18.4042V15.8093C18.4042 16.1952 18.7149 16.5094 19.094 16.5094C19.4765 16.5094 19.7872 16.1952 19.7872 15.8127V14.8156C19.7906 14.4331 19.4799 14.119 19.0974 14.1155H18.2608C18.2061 13.5418 18.1003 12.9784 17.8885 12.4798L18.9711 12.1451C19.2784 12.0495 19.4799 11.7592 19.4594 11.4382L19.3809 9.94252C19.3604 9.55663 19.0428 9.28344 18.6535 9.28002C18.271 9.31076 17.9807 9.642 18.0012 10.0245ZM14.4634 13.0125C14.0809 13.0125 13.7702 13.3267 13.7736 13.7092V17.4314C13.7736 17.8173 14.0809 18.1281 14.4634 18.1281C14.8458 18.1281 15.1532 17.8139 15.1532 17.4314V13.7092C15.1532 13.3301 14.8458 13.0159 14.4634 13.0125Z" fill="#86888C"/>
</svg>
