<svg width="24" height="24" viewBox="0 0 24 24" fill="none" xmlns="http://www.w3.org/2000/svg">
<path fill-rule="evenodd" clip-rule="evenodd" d="M12 15.5236C13.07 15.5236 13.6847 14.9317 13.6847 13.9015C13.6847 12.8714 13.07 12.2823 12 12.2823C10.93 12.2823 10.3153 12.8714 10.3153 13.9015C10.3153 14.9317 10.93 15.5236 12 15.5236ZM15.634 12.9226C16.0268 12.9226 16.3426 13.2271 16.3426 13.6056V14.2003C16.3426 14.576 16.0268 14.8833 15.634 14.8833H15.1246C15.0848 15.0512 15.0336 15.2077 14.971 15.3557L15.3836 15.7541C15.654 16.0102 15.6625 16.4343 15.4092 16.7046L15.3836 16.7302L14.9311 17.1656C14.6466 17.4331 14.2026 17.4331 13.9209 17.1656L13.5083 16.7644C13.3489 16.827 13.1838 16.8754 13.0159 16.9152V17.4047C13.0159 17.7803 12.6972 18.0876 12.3073 18.0876H11.6898C11.2971 18.0876 10.9812 17.7803 10.9812 17.4047V16.9152C10.8133 16.8782 10.6483 16.827 10.4889 16.7644L10.0763 17.1656C9.78884 17.4246 9.35344 17.4246 9.06602 17.1656L8.61355 16.7274C8.34604 16.4684 8.33751 16.0415 8.59363 15.774L8.61355 15.7541L9.02334 15.3614C8.96073 15.2077 8.9095 15.0455 8.87251 14.8833H8.36312C7.9704 14.8833 7.65452 14.576 7.65452 14.2003V13.6056C7.65452 13.2299 7.9704 12.9226 8.36312 12.9226H8.87251C8.90666 12.7832 8.95504 12.6096 9.02334 12.4445L8.61355 12.0489C8.47979 11.9237 8.40581 11.7473 8.40581 11.5623C8.40581 11.3745 8.4798 11.2009 8.61639 11.0729L9.06602 10.6375C9.35344 10.3785 9.78884 10.3785 10.0763 10.6375L10.4889 11.0359C10.6426 10.9761 10.8076 10.9277 10.9812 10.8879V10.3984C10.9812 10.0228 11.2999 9.71542 11.6898 9.71542H12.3073C12.7001 9.71542 13.0159 10.0228 13.0159 10.3984V10.8879C13.1895 10.9277 13.3489 10.9733 13.5083 11.0387L13.9209 10.6375C14.2055 10.3671 14.6494 10.3671 14.9311 10.6375L15.3836 11.0729C15.6511 11.329 15.6625 11.753 15.4064 12.0233C15.3978 12.0319 15.3921 12.0404 15.3836 12.0461L14.9681 12.4445C15.0307 12.5925 15.082 12.7519 15.1218 12.9198C15.1246 12.9226 15.634 12.9226 15.634 12.9226ZM20.5487 18.819C20.6739 18.819 20.7763 18.7223 20.7763 18.5999V8.78201H3.22368V18.5999C3.22368 18.7194 3.32612 18.819 3.45134 18.819H20.5487ZM5.24132 7.24246C5.23563 6.93512 4.9852 6.69038 4.67786 6.69607H4.67501C4.36767 6.69038 4.1144 6.93227 4.10586 7.23961V7.24246C4.10586 7.54411 4.35913 7.78884 4.67217 7.78884C4.98805 7.78884 5.24132 7.54411 5.24132 7.24246ZM6.94593 7.24246C6.94024 6.93512 6.68697 6.69038 6.37962 6.69607H6.37678C6.06944 6.69038 5.81616 6.93512 5.81047 7.24246C5.81047 7.54411 6.06375 7.78884 6.37678 7.78884C6.68697 7.79454 6.94024 7.5498 6.94593 7.24246ZM8.65054 7.24246C8.64485 6.93512 8.39158 6.69038 8.08423 6.69607C7.77689 6.69038 7.52362 6.93227 7.51508 7.23961V7.24246C7.51508 7.54411 7.76836 7.78884 8.08139 7.78884C8.39158 7.79454 8.64485 7.5498 8.65054 7.24246ZM20.5487 5C21.3483 5 22 5.62891 22 6.40011V18.5999C22 19.3711 21.3483 20 20.5487 20H3.45134C2.64883 20 2 19.3739 2 18.6027V6.40011C2 5.62891 2.64883 5 3.45134 5H20.5487Z" fill="#86888C"/>
</svg>
