<svg width="28" height="28" viewBox="0 0 28 28" fill="none" xmlns="http://www.w3.org/2000/svg">
<path d="M24.8003 11.8858H22.5412C22.3874 10.9321 22.1208 10.0672 21.7448 9.31178L23.4161 7.64022C23.8878 7.16508 23.8878 6.39937 23.4161 5.92423L22.0729 4.58425C21.5978 4.11252 20.8322 4.11252 20.3572 4.58425L18.6858 6.2558C17.8895 5.86612 17.0692 5.61316 16.1122 5.45934V3.19641C16.1122 2.53668 15.5756 2 14.916 2H13.0806C12.421 2 11.8844 2.53668 11.8844 3.19641V5.45934C10.9308 5.61316 10.0661 5.87979 9.31074 6.2558L7.63942 4.58425C7.16434 4.11252 6.39875 4.11252 5.92367 4.58425L4.58388 5.92423C4.11222 6.39937 4.11222 7.16508 4.58388 7.64022L6.25178 9.30836C5.86557 9.99202 5.58872 11.0961 5.45884 11.8858H3.19624C2.5366 11.8858 2 12.4224 2 13.0822V14.9178C2 15.5776 2.5366 16.1142 3.19624 16.1142H5.45884C5.58872 16.9073 5.86557 18.008 6.25178 18.6916L4.58388 20.3598C4.11222 20.8349 4.11222 21.6006 4.58388 22.0758L5.92367 23.4158C6.39875 23.8875 7.16434 23.8875 7.63942 23.4158L9.31074 21.7442C10.0661 22.1202 10.9308 22.3868 11.8844 22.5407V24.8036C11.8844 25.4633 12.421 26 13.0806 26H14.916C15.5756 26 16.1122 25.4633 16.1122 24.8036V22.5407C17.0692 22.3868 17.8895 22.1339 18.6858 21.7442L20.3572 23.4158C20.8322 23.8875 21.5978 23.8875 22.0729 23.4158L23.4127 22.0758C23.8844 21.6006 23.8844 20.8349 23.4127 20.3598L21.7448 18.6916C22.1208 17.9362 22.3874 17.0714 22.5412 16.1176H24.8038C25.4634 16.1176 26 15.581 26 14.9212V13.0856C25.9966 12.4224 25.4634 11.8858 24.8003 11.8858ZM14 10.6688C16.2729 10.6688 17.3324 11.7285 17.3324 14.0017C17.3324 16.2749 16.2729 17.3346 14 17.3346C11.7271 17.3346 10.6676 16.2749 10.6676 14.0017C10.6676 11.7285 11.7271 10.6688 14 10.6688Z" fill="#86888C"/>
</svg>
