<svg width="28" height="28" viewBox="0 0 28 28" fill="none" xmlns="http://www.w3.org/2000/svg">
<path d="M21.0649 2H12.3056C10.9567 2 9.97666 2.33115 9.31417 3.01394C8.66192 3.68307 8.34434 4.66287 8.34434 6.01138V6.01479C7.79454 6.03869 7.36084 6.48933 7.36426 7.03898V7.67738C7.27205 7.70469 7.18327 7.73201 7.09448 7.76273L6.66079 7.32916C6.26124 6.92973 5.61241 6.92973 5.21286 7.32916L4.31816 8.2202C3.91861 8.61963 3.91861 9.26828 4.31816 9.66771L4.75185 10.1013C4.72112 10.19 4.69038 10.2788 4.66648 10.371H4.02447C3.4576 10.371 3 10.8284 3 11.3952V12.6583C3 13.225 3.4576 13.6825 4.02447 13.6825H4.66306C4.69038 13.7747 4.7177 13.8634 4.74843 13.9522L4.31474 14.3858C3.9152 14.7852 3.9152 15.4339 4.31474 15.8333L5.20945 16.7243C5.60899 17.1238 6.25783 17.1238 6.65737 16.7243L7.09106 16.2908C7.17985 16.3215 7.26864 16.3522 7.36084 16.3761V17.0213C7.36084 17.571 7.79454 18.0216 8.34092 18.0455V21.9886C8.34092 24.689 9.63517 26 12.3022 26H21.0615C23.7285 26 25.0228 24.689 25.0228 21.9886V6.01138C25.0262 3.34851 23.6944 2 21.0649 2ZM14.0131 12.6617H12.531C12.4661 13.2626 12.3056 13.7679 12.0598 14.1775L12.9989 15.1164L12.1076 16.0108L11.1685 15.072C10.7484 15.3246 10.243 15.4817 9.65225 15.5431V17.0213H8.38873V15.5397C7.80137 15.4748 7.29254 15.3212 6.87251 15.0686L5.93341 16.0074L5.0387 15.1164L5.9778 14.1775C5.72851 13.7679 5.57143 13.2626 5.50655 12.6617H4.02447V11.3986H5.50655C5.57143 10.7977 5.73193 10.2925 5.9778 9.88279L5.04212 8.94395L5.93682 8.05292L6.87592 8.99175C7.29596 8.73912 7.80137 8.58208 8.39215 8.52063V7.03898H9.65566V8.52063C10.243 8.58549 10.7518 8.73912 11.1719 8.99175L12.111 8.05292L13.0023 8.94395L12.0598 9.8862C12.309 10.2959 12.4696 10.8011 12.531 11.402H14.0131V12.6617ZM17.568 22.6851C17.3631 22.8933 17.066 22.9923 16.6972 22.9923C16.3284 22.9923 16.0313 22.8933 15.8264 22.6851C15.6386 22.4939 15.5327 22.2071 15.5327 21.8248C15.5327 21.0259 15.9903 20.6572 16.6972 20.6572C17.4041 20.6572 17.8617 21.0293 17.8617 21.8248C17.8617 22.2105 17.7558 22.4939 17.568 22.6851Z" fill="#86888C"/>
<path d="M9.0205 10.2583C7.89699 10.2583 7.24816 10.8182 7.24816 12.0302C7.24816 13.2421 7.89699 13.802 9.0205 13.802C10.144 13.802 10.7928 13.2421 10.7928 12.0302C10.7928 10.8182 10.144 10.2583 9.0205 10.2583Z" fill="#86888C"/>
</svg>
