<svg width="20" height="20" viewBox="0 0 20 20" fill="none" xmlns="http://www.w3.org/2000/svg">
<path fill-rule="evenodd" clip-rule="evenodd" d="M10 12.4189C10.856 12.4189 11.3478 11.9454 11.3478 11.1212C11.3478 10.2971 10.856 9.82584 10 9.82584C9.144 9.82584 8.65225 10.2971 8.65225 11.1212C8.65225 11.9454 9.144 12.4189 10 12.4189ZM12.9072 10.3381C13.2214 10.3381 13.4741 10.5817 13.4741 10.8845V11.3603C13.4741 11.6608 13.2214 11.9067 12.9072 11.9067H12.4997C12.4678 12.041 12.4269 12.1662 12.3768 12.2846L12.7069 12.6033C12.9232 12.8082 12.93 13.1474 12.7274 13.3637L12.7069 13.3842L12.3449 13.7325C12.1172 13.9465 11.7621 13.9465 11.5367 13.7325L11.2066 13.4115C11.0791 13.4616 10.9471 13.5003 10.8127 13.5322V13.9237C10.8127 14.2242 10.5578 14.4701 10.2459 14.4701H9.75185C9.43768 14.4701 9.18498 14.2242 9.18498 13.9237V13.5322C9.05066 13.5026 8.91861 13.4616 8.79112 13.4115L8.46101 13.7325C8.23108 13.9397 7.88276 13.9397 7.65282 13.7325L7.29084 13.3819C7.07684 13.1747 7.07001 12.8332 7.2749 12.6192L7.29084 12.6033L7.61867 12.2891C7.56858 12.1662 7.5276 12.0364 7.49801 11.9067H7.0905C6.77632 11.9067 6.52362 11.6608 6.52362 11.3603V10.8845C6.52362 10.584 6.77632 10.3381 7.0905 10.3381H7.49801C7.52533 10.2265 7.56403 10.0876 7.61867 9.95561L7.29084 9.63916C7.18384 9.53899 7.12465 9.39784 7.12465 9.24986C7.12465 9.0996 7.18384 8.96073 7.29311 8.85828L7.65282 8.50996C7.88276 8.30279 8.23108 8.30279 8.46101 8.50996L8.79112 8.82869C8.91406 8.78088 9.0461 8.74217 9.18498 8.7103V8.31873C9.18498 8.01821 9.43996 7.77234 9.75185 7.77234H10.2459C10.56 7.77234 10.8127 8.01821 10.8127 8.31873V8.7103C10.9516 8.74217 11.0791 8.7786 11.2066 8.83096L11.5367 8.50996C11.7644 8.29368 12.1195 8.29368 12.3449 8.50996L12.7069 8.85828C12.9209 9.06318 12.93 9.40239 12.7251 9.61867C12.7183 9.6255 12.7137 9.63233 12.7069 9.63688L12.3745 9.95561C12.4246 10.074 12.4656 10.2015 12.4974 10.3358C12.4997 10.3381 12.9072 10.3381 12.9072 10.3381ZM16.8389 15.0552C16.9391 15.0552 17.0211 14.9778 17.0211 14.8799V7.02561H2.97894V14.8799C2.97894 14.9755 3.0609 15.0552 3.16107 15.0552H16.8389ZM4.59306 5.79397C4.5885 5.54809 4.38816 5.35231 4.14229 5.35686H4.14001C3.89414 5.35231 3.69152 5.54582 3.68469 5.79169V5.79397C3.68469 6.03529 3.88731 6.23108 4.13774 6.23108C4.39044 6.23108 4.59306 6.03529 4.59306 5.79397ZM5.95675 5.79397C5.95219 5.54809 5.74957 5.35231 5.5037 5.35686H5.50142C5.25555 5.35231 5.05293 5.54809 5.04838 5.79397C5.04838 6.03529 5.251 6.23108 5.50142 6.23108C5.74957 6.23563 5.95219 6.03984 5.95675 5.79397ZM7.32043 5.79397C7.31588 5.54809 7.11326 5.35231 6.86739 5.35686C6.62151 5.35231 6.4189 5.54582 6.41207 5.79169V5.79397C6.41207 6.03529 6.61468 6.23108 6.86511 6.23108C7.11326 6.23563 7.31588 6.03984 7.32043 5.79397ZM16.8389 4C17.4787 4 18 4.50313 18 5.12009V14.8799C18 15.4969 17.4787 16 16.8389 16H3.16107C2.51907 16 2 15.4991 2 14.8822V5.12009C2 4.50313 2.51907 4 3.16107 4H16.8389Z" fill="#86888C"/>
</svg>
