<svg width="20" height="20" viewBox="0 0 20 20" fill="none" xmlns="http://www.w3.org/2000/svg">
<path fill-rule="evenodd" clip-rule="evenodd" d="M10.1711 8.84532C11.1618 8.84532 11.7548 9.43351 11.7548 10.417C11.7548 11.403 11.1642 11.9888 10.1711 11.9888C9.1779 11.9888 8.5873 11.4006 8.5873 10.417C8.5873 9.43351 9.18031 8.84532 10.1711 8.84532ZM13.8014 10.675V10.1615C13.799 9.83126 13.5315 9.56368 13.2012 9.56368H12.7842C12.7528 9.42869 12.7118 9.29851 12.6612 9.17075L13.0011 8.83327C13.2374 8.60185 13.2398 8.22338 13.0084 7.98714L13.0035 7.98232L12.6275 7.60868C12.3888 7.37485 12.008 7.37485 11.7693 7.60868L11.4294 7.94616C11.2992 7.89554 11.1666 7.85456 11.0317 7.82322V7.4086C11.0292 7.07834 10.7617 6.81077 10.4314 6.81318H9.91795C9.5877 6.81318 9.31771 7.07834 9.31771 7.4086V7.82322C9.18272 7.85456 9.05014 7.89554 8.91996 7.94616L8.58007 7.60868C8.46677 7.49538 8.31249 7.4327 8.15339 7.4327H8.15098C7.98947 7.4327 7.83519 7.49538 7.72189 7.60868L7.34102 7.97991C7.10478 8.21133 7.10237 8.5898 7.33619 8.82604L7.34102 8.83086L7.6785 9.16593C7.62788 9.2961 7.5869 9.42869 7.55797 9.56368H7.14094C6.81068 9.56368 6.54069 9.82885 6.53828 10.1615V10.675C6.54069 11.0052 6.81068 11.2728 7.14094 11.2704H7.55797C7.58449 11.3885 7.62306 11.5331 7.6785 11.6681L7.34102 12.0032C7.10478 12.2346 7.10237 12.6131 7.33619 12.8493L7.34102 12.8542L7.71707 13.2278C7.83278 13.3411 7.98465 13.4038 8.14616 13.4038H8.14857C8.31008 13.4038 8.46195 13.3411 8.57525 13.2278L8.91514 12.8903C9.03808 12.9385 9.17308 12.9819 9.31289 13.0133V13.4279C9.3153 13.7581 9.58288 14.0257 9.91313 14.0233H10.4266C10.7568 14.0233 11.0244 13.7581 11.0268 13.4279V13.0133C11.1666 12.9819 11.2968 12.9409 11.4246 12.8879L11.7645 13.2278C12.0007 13.4616 12.3864 13.4616 12.6227 13.2278L12.9987 12.8542C13.235 12.6203 13.235 12.2419 13.0011 12.0056L12.9987 12.0032L12.6612 11.6657C12.7094 11.5428 12.7528 11.4126 12.7842 11.2704H13.2012C13.5315 11.2704 13.8014 11.0052 13.8014 10.675ZM14.5994 7.26396C15.8191 7.35556 18.6419 7.96304 18.6419 11.591C18.6419 15.7397 14.9368 15.9518 14.192 15.9518L5.34021 16C3.58047 16 1.7002 15.055 1.7002 12.401C1.7002 10.2314 2.94889 9.38771 3.85287 9.05745C3.94929 4.24588 8.45231 4 9.36351 4C10.0722 4 13.5869 4.1591 14.5994 7.26396Z" fill="#86888C"/>
</svg>
