<svg width="40" height="40" viewBox="0 0 40 40" fill="none" xmlns="http://www.w3.org/2000/svg">
<path fill-rule="evenodd" clip-rule="evenodd" d="M20.3536 17.4982C22.5002 17.4982 23.7851 18.7726 23.7851 20.9036C23.7851 23.0398 22.5054 24.309 20.3536 24.309C18.2017 24.309 16.9221 23.0346 16.9221 20.9036C16.9221 18.7726 18.2069 17.4982 20.3536 17.4982ZM28.2194 21.4624V20.3499C28.2141 19.6344 27.6344 19.0546 26.9188 19.0546H26.0153C25.9474 18.7622 25.8586 18.4801 25.7489 18.2033L26.4853 17.4721C26.9972 16.9707 27.0024 16.1507 26.501 15.6388L26.4906 15.6284L25.6758 14.8188C25.1587 14.3122 24.3335 14.3122 23.8164 14.8188L23.08 15.55C22.7979 15.4403 22.5107 15.3515 22.2182 15.2836V14.3853C22.2129 13.6697 21.6332 13.09 20.9176 13.0952H19.8051C19.0896 13.0952 18.5046 13.6697 18.5046 14.3853V15.2836C18.2121 15.3515 17.9249 15.4403 17.6428 15.55L16.9064 14.8188C16.6609 14.5733 16.3266 14.4375 15.9819 14.4375H15.9767C15.6268 14.4375 15.2925 14.5733 15.047 14.8188L14.2218 15.6231C13.7099 16.1245 13.7047 16.9446 14.2113 17.4564L14.2218 17.4669L14.953 18.1928C14.8433 18.4749 14.7545 18.7622 14.6918 19.0546H13.7883C13.0727 19.0546 12.4877 19.6292 12.4825 20.3499V21.4624C12.4877 22.178 13.0727 22.7577 13.7883 22.7525H14.6918C14.7493 23.0084 14.8329 23.3218 14.953 23.6143L14.2218 24.3403C13.7099 24.8417 13.7047 25.6617 14.2113 26.1736L14.2218 26.184L15.0366 26.9936C15.2873 27.2391 15.6163 27.3749 15.9663 27.3749H15.9715C16.3214 27.3749 16.6505 27.2391 16.8959 26.9936L17.6324 26.2624C17.8988 26.3668 18.1912 26.4608 18.4942 26.5287V27.4271C18.4994 28.1426 19.0792 28.7224 19.7947 28.7172H20.9072C21.6227 28.7172 22.2025 28.1426 22.2077 27.4271V26.5287C22.5107 26.4608 22.7927 26.372 23.0695 26.2571L23.806 26.9936C24.3178 27.5002 25.1535 27.5002 25.6653 26.9936L26.4801 26.184C26.992 25.6774 26.992 24.8574 26.4853 24.3455L26.4801 24.3403L25.7489 23.6091C25.8534 23.3427 25.9474 23.0607 26.0153 22.7525H26.9188C27.6344 22.7525 28.2194 22.178 28.2194 21.4624ZM29.9482 14.0719C32.591 14.2704 38.7071 15.5866 38.7071 23.4472C38.7071 32.4359 30.6794 32.8955 29.0655 32.8955L9.8867 33C6.07393 33 2 30.9526 2 25.2021C2 20.5014 4.7055 18.6734 6.66412 17.9578C6.87304 7.53274 16.6296 7 18.6039 7C20.1394 7 27.7545 7.34472 29.9482 14.0719Z" fill="#86888C"/>
</svg>
