<svg width="40" height="40" viewBox="0 0 40 40" fill="none" xmlns="http://www.w3.org/2000/svg">
<path d="M36.2005 16.8287H32.8117C32.581 15.3981 32.1811 14.1008 31.6172 12.9677L34.1242 10.4603C34.8317 9.74761 34.8317 8.59906 34.1242 7.88634L32.1094 5.87637C31.3968 5.16878 30.2484 5.16878 29.5357 5.87637L27.0288 8.38371C25.8342 7.79917 24.6038 7.41974 23.1683 7.189V3.79462C23.1683 2.80501 22.3634 2 21.374 2H18.6209C17.6314 2 16.8265 2.80501 16.8265 3.79462V7.189C15.3962 7.41974 14.0991 7.81968 12.9661 8.38371L10.4591 5.87637C9.74651 5.16878 8.59812 5.16878 7.8855 5.87637L5.87582 7.88634C5.16833 8.59906 5.16833 9.74761 5.87582 10.4603L8.37767 12.9625C7.79835 13.988 7.38308 15.6442 7.18827 16.8287H3.79436C2.8049 16.8287 2 17.6337 2 18.6233V21.3767C2 22.3663 2.8049 23.1713 3.79436 23.1713H7.18827C7.38308 24.3609 7.79835 26.012 8.37767 27.0375L5.87582 29.5397C5.16833 30.2524 5.16833 31.4009 5.87582 32.1137L7.8855 34.1236C8.59812 34.8312 9.74651 34.8312 10.4591 34.1236L12.9661 31.6163C14.0991 32.1803 15.3962 32.5803 16.8265 32.811V36.2054C16.8265 37.195 17.6314 38 18.6209 38H21.374C22.3634 38 23.1683 37.195 23.1683 36.2054V32.811C24.6038 32.5803 25.8342 32.2008 27.0288 31.6163L29.5357 34.1236C30.2484 34.8312 31.3968 34.8312 32.1094 34.1236L34.1191 32.1137C34.8265 31.4009 34.8265 30.2524 34.1191 29.5397L31.6172 27.0375C32.1811 25.9043 32.581 24.607 32.8117 23.1765H36.2056C37.1951 23.1765 38 22.3715 38 21.3819V18.6284C37.9949 17.6337 37.1951 16.8287 36.2005 16.8287ZM20 15.0033C23.4093 15.0033 24.9986 16.5928 24.9986 20.0026C24.9986 23.4123 23.4093 25.0019 20 25.0019C16.5907 25.0019 15.0014 23.4123 15.0014 20.0026C15.0014 16.5928 16.5907 15.0033 20 15.0033Z" fill="#86888C"/>
</svg>
