<svg width="20" height="20" viewBox="0 0 20 20" fill="none" xmlns="http://www.w3.org/2000/svg">
<path d="M17.2002 8.59051H15.6941C15.5916 7.95471 15.4138 7.37815 15.1632 6.87452L16.2774 5.76015C16.5919 5.44338 16.5919 4.93292 16.2774 4.61615L15.3819 3.72283C15.0652 3.40835 14.5548 3.40835 14.2381 3.72283L13.1239 4.8372C12.593 4.57741 12.0461 4.40877 11.4081 4.30622V2.79761C11.4081 2.35778 11.0504 2 10.6107 2H9.38707C8.94731 2 8.58958 2.35778 8.58958 2.79761V4.30622C7.95386 4.40877 7.37739 4.58653 6.87383 4.8372L5.75961 3.72283C5.44289 3.40835 4.9325 3.40835 4.61578 3.72283L3.72259 4.61615C3.40815 4.93292 3.40815 5.44338 3.72259 5.76015L4.83452 6.87224C4.57704 7.32802 4.39248 8.06409 4.3059 8.59051H2.79749C2.35773 8.59051 2 8.9483 2 9.38812V10.6119C2 11.0517 2.35773 11.4095 2.79749 11.4095H4.3059C4.39248 11.9382 4.57704 12.672 4.83452 13.1278L3.72259 14.2399C3.40815 14.5566 3.40815 15.0671 3.72259 15.3838L4.61578 16.2772C4.9325 16.5917 5.44289 16.5917 5.75961 16.2772L6.87383 15.1628C7.37739 15.4135 7.95386 15.5912 8.58958 15.6938V17.2024C8.58958 17.6422 8.94731 18 9.38707 18H10.6107C11.0504 18 11.4081 17.6422 11.4081 17.2024V15.6938C12.0461 15.5912 12.593 15.4226 13.1239 15.1628L14.2381 16.2772C14.5548 16.5917 15.0652 16.5917 15.3819 16.2772L16.2751 15.3838C16.5896 15.0671 16.5896 14.5566 16.2751 14.2399L15.1632 13.1278C15.4138 12.6241 15.5916 12.0476 15.6941 11.4118H17.2025C17.6423 11.4118 18 11.054 18 10.6142V9.3904C17.9977 8.9483 17.6423 8.59051 17.2002 8.59051ZM10 7.77923C11.5152 7.77923 12.2216 8.48569 12.2216 10.0011C12.2216 11.5166 11.5152 12.223 10 12.223C8.48476 12.223 7.77841 11.5166 7.77841 10.0011C7.77841 8.48569 8.48476 7.77923 10 7.77923Z" fill="#86888C"/>
</svg>
