<svg width="24" height="24" viewBox="0 0 24 24" fill="none" xmlns="http://www.w3.org/2000/svg">
<path fill-rule="evenodd" clip-rule="evenodd" d="M12.0886 10.0566C13.327 10.0566 14.0683 10.7919 14.0683 12.0213C14.0683 13.2537 13.3301 13.9859 12.0886 13.9859C10.8471 13.9859 10.1089 13.2507 10.1089 12.0213C10.1089 10.7919 10.8501 10.0566 12.0886 10.0566ZM16.6266 12.3437V11.7019C16.6235 11.2891 16.2891 10.9546 15.8763 10.9546H15.355C15.3158 10.7859 15.2646 10.6231 15.2013 10.4634L15.6262 10.0416C15.9215 9.75231 15.9245 9.27923 15.6352 8.98393L15.6292 8.9779L15.1591 8.51085C14.8608 8.21856 14.3847 8.21856 14.0864 8.51085L13.6615 8.9327C13.4988 8.86943 13.3331 8.8182 13.1643 8.77903V8.26075C13.1613 7.84793 12.8268 7.51346 12.414 7.51647H11.7722C11.3594 7.51647 11.0219 7.84793 11.0219 8.26075V8.77903C10.8532 8.8182 10.6874 8.86943 10.5247 8.9327L10.0998 8.51085C9.95822 8.36922 9.76537 8.29088 9.56649 8.29088H9.56348C9.36159 8.29088 9.16874 8.36922 9.02712 8.51085L8.55103 8.97489C8.25573 9.26416 8.25271 9.73724 8.545 10.0325L8.55103 10.0386L8.97288 10.4574C8.9096 10.6201 8.85838 10.7859 8.82222 10.9546H8.30093C7.88811 10.9546 7.55062 11.2861 7.54761 11.7019V12.3437C7.55062 12.7565 7.88811 13.091 8.30093 13.088H8.82222C8.85537 13.2356 8.90358 13.4164 8.97288 13.5852L8.55103 14.004C8.25573 14.2933 8.25271 14.7664 8.545 15.0617L8.55103 15.0677L9.02109 15.5348C9.16573 15.6764 9.35557 15.7547 9.55745 15.7547H9.56047C9.76236 15.7547 9.95219 15.6764 10.0938 15.5348L10.5187 15.1129C10.6724 15.1732 10.8411 15.2274 11.0159 15.2666V15.7849C11.0189 16.1977 11.3534 16.5321 11.7662 16.5291H12.408C12.8208 16.5291 13.1553 16.1977 13.1583 15.7849V15.2666C13.3331 15.2274 13.4958 15.1762 13.6555 15.1099L14.0804 15.5348C14.3757 15.827 14.8578 15.827 15.1531 15.5348L15.6231 15.0677C15.9184 14.7754 15.9184 14.3023 15.6262 14.007L15.6231 14.004L15.2013 13.5822C15.2616 13.4285 15.3158 13.2658 15.355 13.088H15.8763C16.2891 13.088 16.6266 12.7565 16.6266 12.3437ZM17.6239 8.07995C19.1487 8.19446 22.6772 8.9538 22.6772 13.4888C22.6772 18.6746 18.0458 18.9397 17.1147 18.9397L6.05002 19C3.85034 19 1.5 17.8188 1.5 14.5012C1.5 11.7893 3.06087 10.7346 4.19084 10.3218C4.31137 4.30735 9.94014 4 11.0792 4C11.965 4 16.3584 4.19887 17.6239 8.07995Z" fill="#86888C"/>
</svg>
