<svg width="40" height="40" viewBox="0 0 40 40" fill="none" xmlns="http://www.w3.org/2000/svg">
<path d="M20.0026 2C8.58418 2 2 7.6861 2 19.9974C2 32.3088 8.58418 38 20.0026 38C31.421 38 38.0051 32.3088 38.0051 19.9974C38.0051 7.6861 31.4158 2 20.0026 2ZM17.5444 19.9974C17.5444 20.3926 17.5085 20.7621 17.4469 21.111L22.2914 23.5333C22.4197 23.3639 22.5582 23.1997 22.7122 23.056C23.4768 22.3324 24.5699 21.9475 25.8683 21.9475C27.1666 21.9475 28.2649 22.3324 29.0244 23.056C29.8455 23.8361 30.2612 24.9497 30.2612 26.3609C30.2612 27.7158 29.8763 28.7934 29.1168 29.5684C28.347 30.3587 27.2231 30.7743 25.8632 30.7743C24.5032 30.7743 23.3793 30.3587 22.6096 29.5684C21.85 28.7934 21.4651 27.7106 21.4651 26.3609C21.4651 26.0428 21.4857 25.74 21.5319 25.4526L16.595 22.9842C16.5334 23.0612 16.4667 23.1381 16.3949 23.21C15.6251 24.0003 14.5012 24.416 13.1413 24.416C11.7813 24.416 10.6574 24.0003 9.88767 23.21C9.12815 22.4351 8.74326 21.3522 8.74326 20.0026C8.74326 18.5913 9.15895 17.4777 9.98004 16.6976C10.7447 15.9741 11.8378 15.5892 13.1361 15.5892C14.4345 15.5892 15.5327 15.9741 16.2922 16.6976C16.4 16.8003 16.5026 16.9081 16.595 17.0261L21.5267 14.5628C21.4857 14.2703 21.46 13.9675 21.46 13.6442C21.46 12.2329 21.8757 11.1193 22.6968 10.3393C23.4614 9.61568 24.5545 9.23079 25.8529 9.23079C27.1512 9.23079 28.2495 9.61568 29.009 10.3393C29.8301 11.1193 30.2458 12.2329 30.2458 13.6442C30.2458 14.999 29.8609 16.0767 29.1014 16.8516C28.3316 17.6419 27.2077 18.0576 25.8478 18.0576C24.4878 18.0576 23.3639 17.6419 22.5942 16.8516C22.4813 16.7336 22.3735 16.6053 22.276 16.477L17.4264 18.9043C17.5136 19.2431 17.5444 19.6074 17.5444 19.9974Z" fill="#86888C"/>
</svg>
