<svg width="28" height="28" viewBox="0 0 28 28" fill="none" xmlns="http://www.w3.org/2000/svg">
<path d="M14.0017 2C6.38945 2 2 5.79073 2 13.9983C2 22.2058 6.38945 26 14.0017 26C21.614 26 26.0034 22.2058 26.0034 13.9983C26.0034 5.79073 21.6105 2 14.0017 2ZM12.3629 13.9983C12.3629 14.2617 12.339 14.5081 12.2979 14.7407L15.5276 16.3555C15.6131 16.2426 15.7055 16.1331 15.8081 16.0373C16.3179 15.555 17.0466 15.2984 17.9122 15.2984C18.7778 15.2984 19.5099 15.555 20.0163 16.0373C20.5637 16.5574 20.8408 17.2998 20.8408 18.2406C20.8408 19.1438 20.5842 19.8623 20.0778 20.3789C19.5646 20.9058 18.8154 21.1829 17.9088 21.1829C17.0021 21.1829 16.2529 20.9058 15.7397 20.3789C15.2334 19.8623 14.9768 19.1404 14.9768 18.2406C14.9768 18.0285 14.9904 17.8267 15.0212 17.6351L11.73 15.9895C11.689 16.0408 11.6445 16.0921 11.5966 16.14C11.0834 16.6669 10.3341 16.944 9.42751 16.944C8.52088 16.944 7.77163 16.6669 7.25845 16.14C6.7521 15.6234 6.49551 14.9015 6.49551 14.0017C6.49551 13.0609 6.77263 12.3185 7.32003 11.7984C7.82979 11.316 8.55852 11.0594 9.42409 11.0594C10.2897 11.0594 11.0218 11.316 11.5282 11.7984C11.6 11.8669 11.6684 11.9387 11.73 12.0174L15.0178 10.3752C14.9904 10.1802 14.9733 9.97833 14.9733 9.76279C14.9733 8.82195 15.2505 8.07954 15.7979 7.55952C16.3076 7.07712 17.0364 6.82053 17.9019 6.82053C18.7675 6.82053 19.4996 7.07712 20.006 7.55952C20.5534 8.07954 20.8305 8.82195 20.8305 9.76279C20.8305 10.666 20.5739 11.3845 20.0676 11.9011C19.5544 12.4279 18.8051 12.7051 17.8985 12.7051C16.9919 12.7051 16.2426 12.4279 15.7294 11.9011C15.6542 11.8224 15.5823 11.7368 15.5173 11.6513L12.2842 13.2696C12.3424 13.4954 12.3629 13.7383 12.3629 13.9983Z" fill="#86888C"/>
</svg>
