<svg width="24" height="24" viewBox="0 0 24 24" fill="none" xmlns="http://www.w3.org/2000/svg">
<path fill-rule="evenodd" clip-rule="evenodd" d="M16.6329 13.2447C17.2931 13.6146 18.1042 13.8195 18.9437 13.8195C19.601 13.8195 20.2072 13.6858 20.745 13.4723V20.3676C20.745 21.2697 20.0535 22.0039 19.2055 22.0039H14.6665V16.2697C14.6665 15.5782 14.1656 15.0176 13.5509 15.0176H10.4661C9.84861 15.0176 9.3506 15.5782 9.3506 16.2697V22.0039H4.786C3.93512 22.0039 3.24644 21.2697 3.24644 20.3676V13.4723C3.78429 13.6886 4.39044 13.8195 5.04781 13.8195C5.89584 13.8195 6.71258 13.6118 7.37279 13.2361C8.03301 13.6089 8.84974 13.8195 9.69778 13.8195C10.3295 13.8195 10.9528 13.7028 11.5077 13.4837C11.6841 13.4126 11.852 13.3329 12.0085 13.2447C12.6688 13.6146 13.4798 13.8195 14.3221 13.8195C15.1645 13.8195 15.9755 13.6146 16.6329 13.2447ZM21.4764 9.59355C21.8093 9.93219 21.9972 10.3619 21.9972 10.8115C21.9972 12.0295 20.6568 12.9857 18.9465 12.9857C18.0444 12.9857 17.2077 12.7097 16.6357 12.2401C16.0666 12.7097 15.2271 12.9857 14.3221 12.9857C13.42 12.9857 12.5834 12.7097 12.0114 12.2401C11.7837 12.4279 11.5077 12.5873 11.2003 12.7097C10.7479 12.8918 10.2271 12.9857 9.70063 12.9857C8.78998 12.9857 7.95048 12.7097 7.37564 12.2287C6.80649 12.7068 5.9613 12.9857 5.05065 12.9857C3.34035 12.9857 2 12.0295 2 10.8115C2 10.379 2.19351 10.0745 2.35003 9.82975C2.41264 9.73014 2.47809 9.63054 2.52647 9.51671C2.62607 9.28621 3.39727 6.79047 3.96357 4.96634C4.24246 4.06708 4.50142 3.23043 4.67786 2.66981C4.80307 2.29417 5.15026 2.04375 5.54297 2.0409L18.4428 2.00391H18.4456C18.8469 2.00391 19.1941 2.25718 19.3164 2.63566L20.597 6.70226C20.6483 6.85877 20.7251 7.14335 20.8162 7.47346C20.9869 8.09383 21.3426 9.38296 21.4764 9.59355Z" fill="#86888C"/>
</svg>
