<svg width="24" height="24" viewBox="0 0 24 24" fill="none" xmlns="http://www.w3.org/2000/svg">
<path fill-rule="evenodd" clip-rule="evenodd" d="M11.9972 3C18.5396 3 22 6.46044 22 13.0028C22 19.5424 18.5396 23 11.9972 23C5.4576 23 2 19.5424 2 13.0028C2 6.46044 5.4576 3 11.9972 3ZM13.9493 7.14058C13.7473 6.97553 13.4713 6.94138 13.2351 7.05521C13.0046 7.1605 12.8566 7.39101 12.8566 7.64713V8.68298H9.1144C8.85259 8.68298 8.60785 8.78543 8.42288 8.96756C8.23791 9.14969 8.13546 9.40011 8.1383 9.65908V18.239C8.1383 18.4696 8.32612 18.6545 8.55378 18.6545H11.5618C11.7923 18.6545 11.9772 18.4667 11.9772 18.239V12.704H12.8594V13.7314C12.8594 13.9846 13.0074 14.2151 13.2351 14.3233C13.4713 14.4343 13.7445 14.403 13.9806 14.2094L17.0968 11.1929C17.2447 11.0677 17.3301 10.8856 17.333 10.6921C17.3358 10.51 17.2561 10.3364 17.1224 10.214L13.9493 7.14058Z" fill="#86888C"/>
</svg>
