<svg width="40" height="40" viewBox="0 0 40 40" fill="none" xmlns="http://www.w3.org/2000/svg">
<path fill-rule="evenodd" clip-rule="evenodd" d="M19.9949 3C31.7712 3 38 9.2288 38 21.0051C38 32.7763 31.7712 39 19.9949 39C8.22368 39 2 32.7763 2 21.0051C2 9.2288 8.22368 3 19.9949 3ZM23.5088 10.453C23.1451 10.1559 22.6483 10.0945 22.2231 10.2994C21.8082 10.4889 21.5418 10.9038 21.5418 11.3648V13.2294H14.8059C14.3347 13.2294 13.8941 13.4138 13.5612 13.7416C13.2282 14.0694 13.0438 14.5202 13.0489 14.9863V30.4303C13.0489 30.8452 13.387 31.1781 13.7968 31.1781H19.2112C19.6261 31.1781 19.959 30.8401 19.959 30.4303V20.4673H21.547V22.3164C21.547 22.7723 21.8133 23.1873 22.2231 23.3819C22.6483 23.5817 23.14 23.5253 23.5652 23.177L29.1742 17.7473C29.4405 17.5219 29.5942 17.1941 29.5993 16.8458C29.6044 16.5179 29.461 16.2055 29.2203 15.9852L23.5088 10.453Z" fill="#86888C"/>
</svg>
