<svg width="40" height="40" viewBox="0 0 40 40" fill="none" xmlns="http://www.w3.org/2000/svg">
<path fill-rule="evenodd" clip-rule="evenodd" d="M27.7013 24.8551C27.6199 24.8551 27.5384 24.8603 27.4569 24.8603H27.2736C24.85 24.8244 22.0242 23.3746 22.0242 19.399C22.0242 19.1582 22.0344 18.9277 22.0548 18.7074C22.3603 15.2442 25.0384 13.989 27.2431 13.9686C27.3755 13.9686 27.5486 13.9685 27.6861 13.9737C29.9518 14.0249 32.5078 15.2647 32.8846 18.5742C32.9151 18.8406 32.9304 19.1275 32.9304 19.4298C32.9406 23.3592 30.1147 24.809 27.7013 24.8551ZM23.2207 29.7221C22.6199 29.9782 21.9275 29.6965 21.6678 29.0919L21.0059 27.5243C20.7513 26.9249 21.0364 26.2281 21.6373 25.9771C22.2381 25.7261 22.9305 26.0027 23.1902 26.6072L23.847 28.1749C24.1067 28.7743 23.8215 29.4659 23.2207 29.7221ZM19.8501 27.5243L19.1882 29.0868C18.9336 29.6913 18.2412 29.9731 17.6353 29.7169C17.0345 29.4659 16.7544 28.7794 16.9988 28.1749V28.1698L17.6607 26.6021C17.9204 26.0027 18.6129 25.7261 19.2137 25.972C19.8247 26.2332 20.1047 26.9249 19.8501 27.5243ZM13.5314 24.8551C13.45 24.8551 13.3685 24.8603 13.2871 24.8603H13.1088C10.6853 24.8244 7.85942 23.3746 7.85942 19.399C7.85942 19.1582 7.86961 18.9277 7.88997 18.7074C8.19547 15.2442 10.8787 13.989 13.0783 13.9686C13.226 13.9634 13.3889 13.9685 13.5213 13.9737C15.787 14.0249 18.343 15.2647 18.7249 18.5742C18.7554 18.8406 18.7707 19.1275 18.7707 19.4298C18.7707 23.3592 15.95 24.809 13.5314 24.8551ZM21.0925 3.02049C20.5986 3 20.0385 3 19.5293 3C16.2402 3.01537 4 4.1527 4 19.3171C4 26.971 7.15169 31.0746 10.6903 33.2416V34.4251C10.6903 35.9261 11.1282 37.0993 12.004 37.8627C12.8288 38.6158 14.0355 39 15.5783 39H25.2777C26.8154 39 28.0068 38.6158 28.8317 37.8627C29.6871 37.0942 30.1097 35.9261 30.1097 34.42V33.2263C33.6483 31.0438 36.8 26.971 36.8 19.4042C36.8 4.36274 24.2951 3.08709 21.0925 3.02049Z" fill="#86888C"/>
</svg>
