<svg width="20" height="20" viewBox="0 0 20 20" fill="none" xmlns="http://www.w3.org/2000/svg">
<path fill-rule="evenodd" clip-rule="evenodd" d="M13.5339 11.7134C13.4977 11.7134 13.4615 11.7157 13.4253 11.7157H13.3438C12.2667 11.6997 11.0108 11.0554 11.0108 9.28846C11.0108 9.18144 11.0153 9.07898 11.0243 8.98107C11.1601 7.44187 12.3504 6.88402 13.3303 6.87491C13.3891 6.87491 13.466 6.87491 13.5271 6.87719C14.5341 6.89996 15.6701 7.45097 15.8376 8.92187C15.8512 9.04027 15.858 9.16778 15.858 9.30212C15.8625 11.0485 14.6066 11.6929 13.5339 11.7134ZM11.5426 13.8765C11.2755 13.9903 10.9678 13.8651 10.8524 13.5964L10.5582 12.8997C10.445 12.6333 10.5718 12.3236 10.8388 12.212C11.1058 12.1005 11.4136 12.2234 11.529 12.4921L11.8209 13.1888C11.9363 13.4552 11.8096 13.7626 11.5426 13.8765ZM10.0445 12.8997L9.75031 13.5941C9.63717 13.8628 9.32941 13.988 9.06012 13.8742C8.79309 13.7626 8.66863 13.4575 8.77725 13.1888V13.1866L9.07143 12.4898C9.18684 12.2234 9.4946 12.1005 9.76163 12.2098C10.0332 12.3259 10.1576 12.6333 10.0445 12.8997ZM7.2362 11.7134C7.19999 11.7134 7.16379 11.7157 7.12758 11.7157H7.04838C5.97122 11.6997 4.7153 11.0554 4.7153 9.28846C4.7153 9.18144 4.71982 9.07898 4.72888 8.98107C4.86465 7.44187 6.05721 6.88402 7.0348 6.87491C7.10042 6.87263 7.17284 6.87491 7.23167 6.87719C8.23868 6.89996 9.37467 7.45097 9.54439 8.92187C9.55796 9.04027 9.56475 9.16778 9.56475 9.30212C9.56475 11.0485 8.31109 11.6929 7.2362 11.7134ZM10.5966 2.00911C10.3771 2 10.1282 2 9.90193 2C8.44008 2.00683 3 2.51231 3 9.25203C3 12.6538 4.40075 14.4776 5.97349 15.4407V15.9667C5.97349 16.6338 6.1681 17.1553 6.55732 17.4945C6.92392 17.8292 7.46023 18 8.1459 18H12.4568C13.1402 18 13.6697 17.8292 14.0363 17.4945C14.4165 17.153 14.6043 16.6338 14.6043 15.9644V15.4339C16.177 14.4639 17.5778 12.6538 17.5778 9.29074C17.5778 2.60566 12.02 2.03871 10.5966 2.00911Z" fill="#86888C"/>
</svg>
