<svg width="24" height="24" viewBox="0 0 24 24" fill="none" xmlns="http://www.w3.org/2000/svg">
<path fill-rule="evenodd" clip-rule="evenodd" d="M18.3897 4C20.1909 4 21.6564 5.41105 21.6564 7.14623V15.8892C21.6564 17.6243 20.1909 19.0354 18.3897 19.0354H8.79089L6.9058 21.3629C6.68485 21.6479 6.27651 22 5.61645 22C4.76621 22 4.05021 21.321 4.05021 20.5191V18.837C2.8112 18.3899 1.98893 17.208 2.00011 15.8892V7.14623C2.00011 5.41105 3.46567 4 5.26964 4H18.3897ZM6.69324 10.9575C5.99683 10.6892 5.71155 10.5355 5.71155 10.0969C5.71155 9.90966 5.71155 9.52127 6.61493 9.52127C6.97852 9.52127 7.2638 9.58553 7.49594 9.65259C7.59943 9.68333 7.7113 9.66936 7.80639 9.61627C7.89869 9.56318 7.96861 9.47656 7.99658 9.37318L8.04972 9.1692C8.10006 8.96523 7.977 8.75846 7.77283 8.70537C6.71562 8.4064 5.73672 8.48184 5.18853 8.95126C4.8585 9.23067 4.6851 9.63862 4.6851 10.1276C4.6851 11.2648 5.60526 11.6197 6.27371 11.8795C6.9953 12.159 7.28897 12.3182 7.28897 12.796C7.28897 13.095 7.17151 13.2375 7.06802 13.3018C6.95894 13.3744 6.7296 13.461 6.26532 13.461C5.90173 13.461 5.54094 13.4052 5.18574 13.2962C5.07946 13.2627 4.96478 13.2738 4.86689 13.3297C4.7718 13.38 4.70188 13.4694 4.67391 13.5756L4.62077 13.7852C4.57322 13.978 4.6823 14.1735 4.86689 14.2378C5.16616 14.3468 5.71434 14.4586 6.27092 14.4586C7.57425 14.4586 8.32381 13.8494 8.32381 12.7876C8.32381 11.5862 7.38127 11.2229 6.69324 10.9575ZM14.0154 8.62155H13.8057C13.6574 8.62155 13.5232 8.69978 13.4505 8.82831L11.8227 11.8069L10.2369 8.82831C10.1669 8.69699 10.0299 8.61875 9.88166 8.61875H9.65512C9.43417 8.61875 9.25517 8.79199 9.25517 9.00714V13.9668C9.25517 14.1791 9.43417 14.3552 9.65512 14.3552H9.86768C10.0886 14.3552 10.2676 14.1819 10.2676 13.9668V11.0301L11.3416 13.0503C11.4115 13.1816 11.5486 13.2599 11.6968 13.2599H11.9234C12.0716 13.2599 12.2059 13.1816 12.2786 13.0531L13.4057 10.991V13.9668C13.4057 14.1819 13.5847 14.3552 13.8057 14.3552H14.0154C14.2364 14.3552 14.4154 14.1819 14.4154 13.9668V9.00993C14.4126 8.79199 14.2336 8.61875 14.0154 8.62155ZM17.4136 10.9575C16.7172 10.6892 16.4347 10.5355 16.4347 10.0969C16.4347 9.90966 16.4347 9.52127 17.3381 9.52127C17.7017 9.52127 17.987 9.58553 18.2191 9.65259C18.3226 9.68333 18.4373 9.66936 18.5323 9.61627C18.6246 9.56318 18.6946 9.47656 18.7197 9.37318L18.7729 9.1692C18.8232 8.96523 18.7002 8.75846 18.496 8.70537C17.4388 8.4064 16.4599 8.48184 15.9117 8.95126C15.5817 9.23067 15.4083 9.63862 15.4083 10.1276C15.4083 11.2648 16.3284 11.6197 16.9969 11.8795C17.7185 12.159 18.0121 12.3182 18.0121 12.796C18.0121 13.095 17.8947 13.2375 17.7884 13.3018C17.6793 13.3744 17.45 13.461 16.9857 13.461C16.6249 13.461 16.2613 13.4052 15.9061 13.2962C15.7998 13.2627 15.6851 13.2738 15.5873 13.3297C15.4922 13.38 15.4222 13.4694 15.3943 13.5756L15.3411 13.7852C15.2936 13.978 15.4027 14.1735 15.5873 14.2378C15.8865 14.3468 16.4347 14.4586 16.9913 14.4586C18.2946 14.4586 19.0442 13.8494 19.0442 12.7876C19.0442 11.5862 18.1016 11.2229 17.4136 10.9575Z" fill="#86888C"/>
</svg>
