<svg width="28" height="28" viewBox="0 0 28 28" fill="none" xmlns="http://www.w3.org/2000/svg">
<path fill-rule="evenodd" clip-rule="evenodd" d="M24.6992 15.6683C25.0201 15.5693 25.2625 15.2825 25.2625 14.9274C25.2625 14.6133 25.0748 14.3436 24.8084 14.2173L25.7644 13.2613C26.0717 12.9541 26.0717 12.4556 25.7644 12.1483C25.4571 11.841 24.9587 11.841 24.6514 12.1483L22.6575 14.1422H22.0122L22.2615 13.893C22.5687 13.5857 22.5687 13.0872 22.2615 12.7799C21.9542 12.4727 21.4557 12.4727 21.1484 12.7799L19.7862 14.1422H15.9555L19.8135 10.2842H22.4049C22.8419 10.2842 23.1935 9.9325 23.1935 9.49548C23.1935 9.06188 22.8419 8.70681 22.4049 8.70681H21.2406C21.3192 8.4405 21.2645 8.14005 21.0528 7.93179C20.8651 7.74401 20.609 7.68597 20.3632 7.72694V6.66513C20.3632 6.23152 20.0115 5.87645 19.5745 5.87645C19.1375 5.87645 18.7858 6.22811 18.7858 6.66513V9.08237L14.7878 13.0804V9.33502L16.2457 7.87375C16.553 7.56647 16.553 7.068 16.2457 6.76072C15.9384 6.45345 15.4399 6.45345 15.1327 6.76072L14.7878 7.10556V6.40565L16.85 4.34348C17.1573 4.0362 17.1573 3.53773 16.85 3.23046C16.5427 2.92318 16.0442 2.92318 15.737 3.23046L14.7434 4.2274C14.6444 3.90305 14.3542 3.66406 14.0026 3.66406C13.6475 3.66406 13.3573 3.90305 13.2617 4.2274L12.2682 3.23046C11.9609 2.92318 11.4624 2.92318 11.1551 3.23046C10.8479 3.53773 10.8479 4.0362 11.1551 4.34348L13.2173 6.40565V6.96557L13.009 6.76072C12.7018 6.45345 12.2033 6.45345 11.896 6.76072C11.5887 7.068 11.5887 7.56647 11.896 7.87375L13.2173 9.19503V13.0257L9.35927 9.16772V6.66171C9.35927 6.22811 9.00761 5.87303 8.57059 5.87303C8.13358 5.87303 7.78192 6.2247 7.78192 6.66171V7.74059C7.51561 7.66207 7.21858 7.72011 7.0069 7.92837C6.79522 8.14005 6.74059 8.43709 6.81912 8.70339H5.74024C5.30322 8.70339 4.95156 9.05505 4.95156 9.49207C4.95156 9.92567 5.30322 10.2807 5.74024 10.2807H8.24625L12.1043 14.1388H8.34867L6.98641 12.7765C6.67914 12.4692 6.18067 12.4692 5.87339 12.7765C5.56611 13.0838 5.56611 13.5823 5.87339 13.8895L6.12263 14.1388H5.33736L3.34348 12.1449C3.0362 11.8376 2.53773 11.8376 2.23046 12.1449C1.92318 12.4522 1.92318 12.9506 2.23046 13.2579L3.18984 14.2139C2.92354 14.3402 2.73234 14.6065 2.73234 14.924C2.73234 15.2791 2.97133 15.5693 3.29568 15.6649L2.23046 16.7301C1.92318 17.0374 1.92318 17.5359 2.23046 17.8432C2.3841 17.9968 2.58553 18.0753 2.78697 18.0753C2.98841 18.0753 3.18984 17.9968 3.34348 17.8432L5.47393 15.7127H6.17384L5.86998 16.0166C5.5627 16.3238 5.5627 16.8223 5.86998 17.1296C6.02361 17.2832 6.22505 17.3583 6.42649 17.3583C6.62792 17.3583 6.82936 17.2832 6.983 17.1296L8.39989 15.7127H12.1452L8.14382 19.7141H5.72658C5.28956 19.7141 4.9379 20.0658 4.9379 20.5028C4.9379 20.9364 5.28956 21.2915 5.72658 21.2915H6.78839C6.74742 21.5339 6.80546 21.7934 6.99324 21.9812C7.14688 22.1348 7.34832 22.2133 7.54975 22.2133C7.62487 22.2133 7.69656 22.1928 7.76826 22.1689V23.3366C7.76826 23.7702 8.11992 24.1253 8.55694 24.1253C8.99395 24.1253 9.34561 23.7736 9.34561 23.3366V20.7452L13.2036 16.8872V20.7179L11.8824 22.0392C11.5751 22.3465 11.5751 22.8449 11.8824 23.1522C12.1896 23.4595 12.6881 23.4595 12.9954 23.1522L13.2036 22.9474V23.5926L11.1415 25.6548C10.8342 25.9621 10.8342 26.4606 11.1415 26.7678C11.4488 27.0751 11.9472 27.0751 12.2545 26.7678L13.2822 25.7402C13.4085 26.0065 13.6748 26.1943 13.9923 26.1943C14.3064 26.1943 14.5727 26.0065 14.6991 25.7402L15.7267 26.7678C15.8804 26.9215 16.0818 27 16.2832 27C16.4847 27 16.6861 26.9249 16.8397 26.7678C17.147 26.4606 17.147 25.9621 16.8397 25.6548L14.7776 23.5926V22.8074L15.1224 23.1522C15.276 23.3059 15.4775 23.3844 15.6789 23.3844C15.8804 23.3844 16.0818 23.3093 16.2354 23.1522C16.5427 22.8449 16.5427 22.3465 16.2354 22.0392L14.7776 20.5779V16.8257L18.7756 20.8272V23.3332C18.7756 23.7668 19.1272 24.1218 19.5643 24.1218C20.0013 24.1218 20.3529 23.7702 20.3529 23.3332V22.1826C20.3973 22.1894 20.4417 22.2099 20.4861 22.2099C20.6875 22.2099 20.889 22.1314 21.0426 21.9777C21.2304 21.79 21.2918 21.5305 21.2475 21.2881H22.3946C22.8316 21.2881 23.1833 20.9364 23.1833 20.4994C23.1833 20.0624 22.8316 19.7107 22.3946 19.7107H19.892L15.8906 15.7093H19.7213L21.1382 17.1262C21.2918 17.2798 21.4933 17.3549 21.6947 17.3549C21.8962 17.3549 22.0976 17.2798 22.2512 17.1262C22.5585 16.8189 22.5585 16.3204 22.2512 16.0132L21.9474 15.7093H22.5073L24.6377 17.8397C24.7914 17.9934 24.9928 18.0719 25.1943 18.0719C25.3957 18.0719 25.5971 17.9934 25.7508 17.8397C26.058 17.5325 26.058 17.034 25.7508 16.7267L24.6992 15.6683Z" fill="#86888C"/>
</svg>
