<svg width="24" height="24" viewBox="0 0 24 24" fill="none" xmlns="http://www.w3.org/2000/svg">
<path d="M11.9972 3C5.4576 3 2 6.4576 2 13.0028C2 19.5452 5.4576 23 11.9972 23C18.5424 23 22 19.5424 22 13.0028C22 6.4576 18.5424 3 11.9972 3ZM12.6773 17.778C12.0228 18.3443 11.0694 18.646 9.91975 18.6488C9.89698 18.6545 9.87991 18.6545 9.86853 18.6545C8.76437 18.6545 7.60899 18.2903 6.6955 17.6528C6.46784 17.4906 6.3597 17.2886 6.3597 17.0296V17.0239C6.37109 16.6483 6.68697 16.3409 7.06261 16.3409H7.07968C7.24474 16.3523 7.40125 16.4035 7.52931 16.4946C8.34035 17.0353 9.17131 17.3085 9.99089 17.3085C11.3654 17.3085 12.2533 16.6312 12.2533 15.5811C12.2533 15.1315 12.1252 14.8042 11.8463 14.5538C11.5105 14.2521 10.9528 14.0529 10.1417 13.9505L9.67786 13.8936C8.67046 13.7655 7.89641 13.4496 7.38418 12.9602C6.86909 12.4707 6.60729 11.8133 6.60729 11.0051C6.60729 10.0973 6.92601 9.32897 7.53216 8.78258C8.13261 8.24189 8.9778 7.95447 9.97666 7.95447C10.9841 7.95447 11.9374 8.20205 12.6574 8.65168C12.922 8.81389 13.07 9.04439 13.07 9.29767C13.07 9.67046 12.7684 9.97211 12.3984 9.97211C12.2476 9.97211 12.111 9.91804 12.0057 9.86682H12.0028L11.9687 9.84974C11.28 9.47695 10.6397 9.30336 9.94821 9.30336C8.73022 9.30336 8.00455 9.91235 8.00455 10.9311C8.00455 11.5913 8.24929 12.2971 10.0706 12.5276L10.5202 12.5845C11.5447 12.7126 12.3301 13.0285 12.8537 13.5208C13.383 14.0188 13.6534 14.6875 13.6534 15.5128C13.6534 16.4405 13.3147 17.2231 12.6773 17.778ZM16.3939 7.39385L14.4132 19.4087C14.3677 19.6847 14.1315 19.8839 13.8526 19.8839C13.8241 19.8839 13.7985 19.881 13.7729 19.8782L13.7587 19.8754C13.4485 19.8213 13.2408 19.5282 13.292 19.218L15.2726 7.20319C15.3011 7.04952 15.3836 6.91861 15.506 6.83324C15.634 6.74502 15.7849 6.71087 15.93 6.73648C16.2373 6.7934 16.4479 7.08651 16.3939 7.39385Z" fill="#86888C"/>
</svg>
