<svg width="20" height="20" viewBox="0 0 20 20" fill="none" xmlns="http://www.w3.org/2000/svg">
<path d="M9.99772 2C4.76608 2 2 4.76608 2 10.0023C2 15.2362 4.76608 18 9.99772 18C15.2339 18 18 15.2339 18 10.0023C18 4.76608 15.2339 2 9.99772 2ZM10.5418 13.8224C10.0182 14.2755 9.25555 14.5168 8.3358 14.5191C8.31759 14.5236 8.30393 14.5236 8.29482 14.5236C7.4115 14.5236 6.48719 14.2322 5.7564 13.7223C5.57427 13.5925 5.48776 13.4308 5.48776 13.2237V13.2191C5.49687 12.9186 5.74957 12.6727 6.05009 12.6727H6.06375C6.19579 12.6818 6.321 12.7228 6.42345 12.7957C7.07228 13.2282 7.73705 13.4468 8.39271 13.4468C9.49232 13.4468 10.2026 12.905 10.2026 12.0649C10.2026 11.7052 10.1002 11.4434 9.87706 11.243C9.60842 11.0017 9.16221 10.8423 8.51338 10.7604L8.14229 10.7149C7.33637 10.6124 6.71713 10.3597 6.30734 9.96813C5.89528 9.57655 5.68583 9.05065 5.68583 8.4041C5.68583 7.67786 5.94081 7.06318 6.42573 6.62607C6.90609 6.19351 7.58224 5.96357 8.38133 5.96357C9.18725 5.96357 9.94991 6.16164 10.5259 6.52134C10.7376 6.65111 10.856 6.83552 10.856 7.03813C10.856 7.33637 10.6147 7.57769 10.3187 7.57769C10.1981 7.57769 10.0888 7.53443 10.0046 7.49345H10.0023L9.97496 7.4798C9.42402 7.18156 8.91178 7.04269 8.35857 7.04269C7.38418 7.04269 6.80364 7.52988 6.80364 8.34491C6.80364 8.87308 6.99943 9.43768 8.45646 9.62208L8.81616 9.66762C9.63574 9.77006 10.2641 10.0228 10.683 10.4166C11.1064 10.815 11.3227 11.35 11.3227 12.0102C11.3227 12.7524 11.0518 13.3785 10.5418 13.8224ZM13.5151 5.51508L11.9306 15.1269C11.8941 15.3478 11.7052 15.5071 11.4821 15.5071C11.4593 15.5071 11.4388 15.5048 11.4183 15.5026L11.4069 15.5003C11.1588 15.457 10.9926 15.2225 11.0336 14.9744L12.6181 5.36255C12.6409 5.23961 12.7069 5.13489 12.8048 5.06659C12.9072 4.99602 13.0279 4.9687 13.144 4.98919C13.3899 5.03472 13.5583 5.26921 13.5151 5.51508Z" fill="#86888C"/>
</svg>
