<svg width="24" height="24" viewBox="0 0 24 24" fill="none" xmlns="http://www.w3.org/2000/svg">
<path d="M5.76096 18.253C5.5403 18.0973 5.43213 17.9242 5.43213 17.6603C5.44078 17.3184 5.72635 17.0459 6.06816 17.0459C6.23258 17.0545 6.39267 17.1064 6.53112 17.2016C7.52195 17.8593 8.91084 18.5169 10.5161 18.5169C12.9174 18.5169 14.3885 17.2838 14.3885 15.4579C14.3885 13.9609 13.5534 12.9052 10.8016 12.5504L10.0964 12.4638C7.16716 12.0917 5.80423 10.6812 5.80423 8.50052C5.80423 5.90447 7.65175 4.29492 10.4944 4.29492C12.078 4.29492 13.4236 4.71462 14.3452 5.28575C14.6308 5.46314 14.7649 5.68381 14.7649 5.90447C14.7649 6.22898 14.5053 6.49724 14.1765 6.49724H14.1722C14.0164 6.49724 13.865 6.43234 13.7308 6.36311C12.7184 5.81361 11.6626 5.48045 10.4512 5.48045C8.2748 5.48045 7.06331 6.69194 7.06331 8.38803C7.06331 9.92835 8.01087 10.9192 10.5853 11.248L11.2689 11.3345C14.2414 11.7066 15.6519 13.1172 15.6519 15.3627C15.6519 17.8939 13.8477 19.6982 10.3689 19.6982C8.51277 19.7068 6.85996 19.0232 5.76096 18.253Z" fill="#86888C"/>
<path d="M10.3344 19.9144C8.69453 19.9144 6.98546 19.3736 5.63551 18.4304C5.34995 18.227 5.21582 17.9847 5.21582 17.6602V17.6559C5.2288 17.2016 5.60955 16.8295 6.06819 16.8295H6.08117C6.28885 16.8425 6.48788 16.9074 6.65663 17.0242C7.93302 17.8722 9.23104 18.3006 10.5204 18.3006C12.74 18.3006 14.1765 17.1843 14.1765 15.4579C14.1765 14.705 13.9559 14.1599 13.4886 13.7358C12.9434 13.2469 12.0564 12.9267 10.78 12.7623L10.0748 12.6758C8.59069 12.4854 7.4614 12.0311 6.70855 11.3129C5.96867 10.6119 5.59225 9.66005 5.59225 8.49616C5.59225 5.80924 7.51765 4.07422 10.4988 4.07422C11.9915 4.07422 13.3977 4.43767 14.4621 5.09966C14.7996 5.30734 14.9856 5.59291 14.9856 5.90011C14.9856 6.34576 14.6265 6.70921 14.1808 6.70921C13.9688 6.70921 13.7785 6.62267 13.6357 6.54912H13.6313C12.554 5.96501 11.5459 5.69242 10.4555 5.69242C8.49982 5.69242 7.28401 6.72219 7.28401 8.38366C7.28401 9.41775 7.66476 10.6509 10.6156 11.0273L11.2992 11.1138C12.8049 11.3042 13.9602 11.7629 14.726 12.4811C15.4875 13.195 15.8726 14.1599 15.8726 15.3541C15.8726 16.6997 15.3837 17.8333 14.4621 18.6337C13.5015 19.4645 12.0867 19.9058 10.3733 19.9058C10.356 19.9144 10.3473 19.9144 10.3344 19.9144ZM5.88647 18.0756C6.49221 18.4996 8.13205 19.4818 10.3344 19.4818C10.3473 19.4818 10.356 19.4818 10.369 19.4818C13.5405 19.4818 15.4356 17.9415 15.4356 15.3627C15.4356 13.182 14.0251 11.897 11.243 11.5508L10.5594 11.4643C8.02821 11.1398 6.847 10.162 6.847 8.38799C6.847 7.47072 7.17584 6.6919 7.79889 6.13808C8.43492 5.56695 9.35652 5.26407 10.4512 5.26407C11.6151 5.26407 12.6924 5.55397 13.8304 6.17269C13.9299 6.22461 14.0554 6.28086 14.1722 6.28086C14.3799 6.28086 14.5486 6.11212 14.5486 5.90443C14.5486 5.753 14.4361 5.59723 14.2328 5.46743C13.2376 4.84871 11.9093 4.51122 10.4945 4.51122C7.73399 4.51122 6.0206 6.03856 6.0206 8.50048C6.0206 10.6422 7.40083 11.9013 10.1224 12.2474L10.8276 12.334C12.1949 12.5114 13.1597 12.8618 13.7698 13.4113C14.3323 13.9132 14.6049 14.5839 14.6049 15.4536C14.6049 17.4439 12.9996 18.7289 10.5161 18.7289C9.14451 18.7289 7.76428 18.2746 6.41 17.379C6.30616 17.3097 6.18501 17.2665 6.05954 17.2578C5.83887 17.2621 5.65282 17.4395 5.64417 17.6602C5.6485 17.8419 5.7134 17.9544 5.88647 18.0756Z" fill="#86888C"/>
<path d="M10.3344 19.9144C8.69453 19.9144 6.98546 19.3736 5.63551 18.4304C5.34995 18.227 5.21582 17.9847 5.21582 17.6602V17.6559C5.2288 17.2016 5.60955 16.8295 6.06819 16.8295H6.08117C6.28885 16.8425 6.48788 16.9074 6.65663 17.0242C7.93302 17.8722 9.23104 18.3006 10.5204 18.3006C12.74 18.3006 14.1765 17.1843 14.1765 15.4579C14.1765 14.705 13.9559 14.1599 13.4886 13.7358C12.9434 13.2469 12.0564 12.9267 10.78 12.7623L10.0748 12.6758C8.59069 12.4854 7.4614 12.0311 6.70855 11.3129C5.96867 10.6119 5.59225 9.66005 5.59225 8.49616C5.59225 5.80924 7.51765 4.07422 10.4988 4.07422C11.9915 4.07422 13.3977 4.43767 14.4621 5.09966C14.7996 5.30734 14.9856 5.59291 14.9856 5.90011C14.9856 6.34576 14.6265 6.70921 14.1808 6.70921C13.9688 6.70921 13.7785 6.62267 13.6357 6.54912H13.6313C12.554 5.96501 11.5459 5.69242 10.4555 5.69242C8.49982 5.69242 7.28401 6.72219 7.28401 8.38366C7.28401 9.41775 7.66476 10.6509 10.6156 11.0273L11.2992 11.1138C12.8049 11.3042 13.9602 11.7629 14.726 12.4811C15.4875 13.195 15.8726 14.1599 15.8726 15.3541C15.8726 16.6997 15.3837 17.8333 14.4621 18.6337C13.5015 19.4645 12.0867 19.9058 10.3733 19.9058C10.356 19.9144 10.3473 19.9144 10.3344 19.9144ZM5.88647 18.0756C6.49221 18.4996 8.13205 19.4818 10.3344 19.4818C10.3473 19.4818 10.356 19.4818 10.369 19.4818C13.5405 19.4818 15.4356 17.9415 15.4356 15.3627C15.4356 13.182 14.0251 11.897 11.243 11.5508L10.5594 11.4643C8.02821 11.1398 6.847 10.162 6.847 8.38799C6.847 7.47072 7.17584 6.6919 7.79889 6.13808C8.43492 5.56695 9.35652 5.26407 10.4512 5.26407C11.6151 5.26407 12.6924 5.55397 13.8304 6.17269C13.9299 6.22461 14.0554 6.28086 14.1722 6.28086C14.3799 6.28086 14.5486 6.11212 14.5486 5.90443C14.5486 5.753 14.4361 5.59723 14.2328 5.46743C13.2376 4.84871 11.9093 4.51122 10.4945 4.51122C7.73399 4.51122 6.0206 6.03856 6.0206 8.50048C6.0206 10.6422 7.40083 11.9013 10.1224 12.2474L10.8276 12.334C12.1949 12.5114 13.1597 12.8618 13.7698 13.4113C14.3323 13.9132 14.6049 14.5839 14.6049 15.4536C14.6049 17.4439 12.9996 18.7289 10.5161 18.7289C9.14451 18.7289 7.76428 18.2746 6.41 17.379C6.30616 17.3097 6.18501 17.2665 6.05954 17.2578C5.83887 17.2621 5.65282 17.4395 5.64417 17.6602C5.6485 17.8419 5.7134 17.9544 5.88647 18.0756Z" fill="#86888C"/>
<path d="M10.3349 20.1303C8.65178 20.1303 6.89512 19.5765 5.51488 18.6073C5.16874 18.365 5 18.0535 5 17.6598V17.6511C5.01298 17.0756 5.49325 16.6127 6.06871 16.6127H6.09034C6.33697 16.6257 6.57494 16.7035 6.77397 16.842C8.01142 17.6641 9.2705 18.0794 10.5123 18.0794C12.6021 18.0794 13.952 17.0497 13.952 15.4531C13.952 14.7652 13.7573 14.2719 13.3333 13.8912C12.8228 13.4325 11.9747 13.1296 10.7416 12.9739L10.0407 12.8873C8.51332 12.6926 7.33644 12.2167 6.54898 11.4682C5.76583 10.724 5.36777 9.72017 5.36777 8.4957C5.36777 7.11546 5.85237 5.94724 6.77397 5.11651C7.68691 4.29442 8.97196 3.85742 10.4906 3.85742C12.0223 3.85742 13.4718 4.23385 14.5708 4.91315C14.9732 5.1641 15.1938 5.51457 15.1938 5.89965C15.1938 6.46645 14.7352 6.92509 14.1727 6.92509C13.9131 6.92509 13.6924 6.82557 13.528 6.74336L13.5237 6.73904C12.4766 6.17223 11.5031 5.9083 10.4474 5.9083C8.62582 5.9083 7.49221 6.85586 7.49221 8.3832C7.49221 9.38701 7.86431 10.46 10.6378 10.8148L11.3214 10.9014C12.8747 11.0961 14.0689 11.5763 14.8693 12.3249C15.6741 13.0821 16.0808 14.0988 16.0808 15.3579C16.0808 16.7684 15.5659 17.9583 14.5924 18.802C13.5929 19.6674 12.1305 20.126 10.3652 20.126L10.3349 20.1303ZM10.3349 19.6976H10.3695C10.694 19.6976 11.0099 19.6803 11.3127 19.6501C11.0099 19.6803 10.694 19.6976 10.3695 19.6976H10.3349ZM5.43267 17.6598C5.43267 17.9107 5.53219 18.0881 5.76151 18.2525C6.41485 18.7112 7.15905 19.0703 7.93786 19.3169C6.89512 18.9837 6.13361 18.5121 5.76151 18.2525C5.53219 18.0881 5.43267 17.915 5.43267 17.6598ZM6.00813 17.8977C6.59657 18.3088 8.18881 19.265 10.3306 19.265H10.3652C13.4025 19.265 15.2198 17.8069 15.2198 15.3622C15.2198 13.307 13.8742 12.0956 11.2175 11.7624L10.5339 11.6759C9.21425 11.5071 8.26237 11.1653 7.61768 10.6331C6.96434 10.0923 6.63118 9.33509 6.63118 8.3832C6.63118 7.40536 6.98598 6.57029 7.6523 5.9732C8.3316 5.36746 9.29646 5.04295 10.4517 5.04295C11.6545 5.04295 12.7579 5.3415 13.9347 5.97753C13.978 5.99916 14.0992 6.05974 14.1727 6.05974C14.2636 6.05974 14.3328 5.99051 14.3328 5.89965C14.3328 5.8434 14.2766 5.74821 14.1165 5.6487C13.1516 5.05161 11.8666 4.72277 10.495 4.72277C7.86864 4.72277 6.23745 6.16791 6.23745 8.4957C6.23745 10.512 7.55278 11.7018 10.1532 12.0307L10.8584 12.1172C12.2733 12.2989 13.2727 12.671 13.9218 13.2508C14.5318 13.796 14.826 14.5185 14.826 15.4531C14.826 16.4959 14.415 17.3785 13.6319 18.0059C12.8617 18.6246 11.7843 18.9491 10.5166 18.9491C9.10176 18.9491 7.67826 18.4818 6.2937 17.5602C6.22014 17.5126 6.14226 17.4824 6.06005 17.478C5.95621 17.4824 5.86968 17.5646 5.86535 17.6641C5.86535 17.7549 5.88266 17.8069 6.00813 17.8977ZM14.389 15.4618C14.389 16.379 14.0169 17.1492 13.3117 17.6987C12.6237 18.2309 11.6632 18.5164 10.5296 18.5164C12.8747 18.5121 14.389 17.3136 14.389 15.4618ZM6.06438 17.0454C5.72689 17.0497 5.44566 17.3223 5.43267 17.6554C5.44133 17.3223 5.72689 17.0497 6.06438 17.0454ZM6.07303 17.0454C6.24178 17.054 6.40187 17.1103 6.536 17.2011C6.66147 17.2833 6.79127 17.3655 6.91675 17.4434C6.79127 17.3655 6.66147 17.2877 6.536 17.2011C6.39754 17.1103 6.23745 17.054 6.07303 17.0454ZM10.9839 11.2994L11.2738 11.334C12.7016 11.5114 13.8006 11.9398 14.5318 12.6061C15.276 13.2854 15.6568 14.2113 15.6568 15.3622C15.6568 14.2286 15.2933 13.3157 14.5794 12.645C13.8482 11.9571 12.7362 11.5158 11.2738 11.334L10.9839 11.2994ZM13.1949 13.2594C13.355 13.3546 13.5021 13.4628 13.6275 13.5753C13.6405 13.5883 13.6535 13.5969 13.6665 13.6099C13.6535 13.5969 13.6405 13.5883 13.6275 13.5753C13.5021 13.4628 13.355 13.3546 13.1949 13.2594ZM10.4171 12.5023L10.7978 12.5499C10.8974 12.5628 10.9925 12.5758 11.0877 12.5888C10.9925 12.5758 10.8974 12.5628 10.7978 12.5499L10.4171 12.5023ZM5.80478 8.50868C5.80478 9.60767 6.15957 10.499 6.85185 11.1566C7.51384 11.7884 8.50034 12.208 9.77673 12.4157C8.53063 12.2167 7.56576 11.81 6.90377 11.2042C6.17688 10.5422 5.8091 9.63363 5.80478 8.50868ZM7.55278 9.95814C7.6523 10.0836 7.76479 10.1961 7.89027 10.3C8.44842 10.7629 9.29214 11.0658 10.469 11.2302C9.14503 11.0485 8.23208 10.6764 7.68258 10.1052C7.63499 10.0577 7.59172 10.0101 7.55278 9.95814ZM5.80478 8.50002C5.80478 8.50002 5.80478 8.50435 5.80478 8.50002C5.80478 8.50435 5.80478 8.50002 5.80478 8.50002ZM5.80478 8.4957C5.80478 8.4957 5.80478 8.50002 5.80478 8.4957C5.80478 8.50002 5.80478 8.4957 5.80478 8.4957ZM5.80478 8.49137C5.80478 8.4957 5.80478 8.4957 5.80478 8.49137C5.80478 8.4957 5.80478 8.4957 5.80478 8.49137ZM7.06386 8.3832C7.06386 8.38753 7.06386 8.38753 7.06386 8.3832C7.06386 8.38753 7.06386 8.38753 7.06386 8.3832ZM10.4431 5.47995C9.4003 5.47995 8.53928 5.76552 7.94219 6.29771C7.83402 6.39722 7.73451 6.50107 7.64364 6.61356C7.74749 6.48376 7.86431 6.36694 7.98978 6.25444C8.58688 5.74821 9.43492 5.47995 10.4431 5.47995ZM14.177 6.49674C14.5015 6.49674 14.7655 6.23281 14.7655 5.90397C14.7655 6.22848 14.5015 6.49674 14.177 6.49674ZM13.7314 6.36261C13.7617 6.37992 13.792 6.3929 13.8266 6.4102C13.792 6.3929 13.7617 6.37992 13.7314 6.36261ZM13.1473 6.07272C13.1516 6.07272 13.1516 6.07272 13.1473 6.07272C13.1516 6.07272 13.1516 6.07272 13.1473 6.07272ZM13.1429 6.06839C13.1429 6.07272 13.1429 6.07272 13.1429 6.06839C13.1429 6.07272 13.1429 6.07272 13.1429 6.06839ZM10.4863 5.47995C11.3993 5.48428 12.2603 5.67466 13.1429 6.06839C12.256 5.67466 11.3993 5.48428 10.4863 5.47995ZM14.7655 5.89965C14.7655 5.89965 14.7655 5.90397 14.7655 5.89965C14.7655 5.90397 14.7655 5.89965 14.7655 5.89965ZM14.389 5.31554C14.4756 5.37611 14.5491 5.44101 14.6097 5.51024C14.5535 5.44101 14.4799 5.37611 14.389 5.31554ZM10.4777 5.47995C10.482 5.47995 10.482 5.47995 10.4863 5.47995C10.482 5.47995 10.4777 5.47995 10.4777 5.47995ZM10.469 5.47995C10.469 5.47995 10.4733 5.47995 10.469 5.47995C10.4733 5.47995 10.469 5.47995 10.469 5.47995ZM10.456 5.47995C10.4604 5.47995 10.4604 5.47995 10.4647 5.47995C10.4604 5.47995 10.456 5.47995 10.456 5.47995ZM10.4474 5.47995C10.4431 5.47995 10.4431 5.47995 10.4474 5.47995C10.4431 5.47995 10.4431 5.47995 10.4474 5.47995ZM10.495 4.29442C10.5036 4.29442 10.5123 4.29442 10.5209 4.29442C10.5123 4.29442 10.5036 4.29442 10.495 4.29442ZM10.495 4.29442C10.495 4.29442 10.4906 4.29442 10.495 4.29442C10.4906 4.29442 10.495 4.29442 10.495 4.29442Z" fill="#86888C"/>
<path d="M16.3181 21.5623C16.0845 21.5233 15.9244 21.2983 15.9634 21.0647L18.9748 2.79715C19.0137 2.56351 19.2387 2.40342 19.4724 2.44236C19.706 2.4813 19.8661 2.70629 19.8271 2.93994L16.8157 21.2075C16.7768 21.4411 16.5518 21.6012 16.3181 21.5623Z" fill="#86888C"/>
<path d="M16.3918 21.7832C16.3572 21.7832 16.3226 21.7789 16.2837 21.7746C15.9332 21.714 15.6909 21.3808 15.7515 21.026L18.7629 2.7585C18.7932 2.58975 18.884 2.43832 19.0268 2.3388C19.1696 2.23929 19.3384 2.19602 19.5114 2.22631C19.8619 2.28688 20.1042 2.62004 20.0436 2.97483L17.0279 21.2424C16.9759 21.5582 16.699 21.7832 16.3918 21.7832ZM16.3529 21.3505C16.4697 21.3678 16.5822 21.29 16.5995 21.1731L19.6153 2.90561C19.6326 2.78878 19.5547 2.67629 19.4379 2.65466C19.3816 2.646 19.3254 2.65898 19.2778 2.6936C19.2302 2.72821 19.1999 2.7758 19.1912 2.83205L16.1798 21.0996C16.1582 21.2164 16.2404 21.3289 16.3529 21.3505Z" fill="#86888C"/>
<path d="M16.3918 21.7832C16.3572 21.7832 16.3226 21.7789 16.2837 21.7746C15.9332 21.714 15.6909 21.3808 15.7515 21.026L18.7629 2.7585C18.7932 2.58975 18.884 2.43832 19.0268 2.3388C19.1696 2.23929 19.3384 2.19602 19.5114 2.22631C19.8619 2.28688 20.1042 2.62004 20.0436 2.97483L17.0279 21.2424C16.9759 21.5582 16.699 21.7832 16.3918 21.7832ZM16.3529 21.3505C16.4697 21.3678 16.5822 21.29 16.5995 21.1731L19.6153 2.90561C19.6326 2.78878 19.5547 2.67629 19.4379 2.65466C19.3816 2.646 19.3254 2.65898 19.2778 2.6936C19.2302 2.72821 19.1999 2.7758 19.1912 2.83205L16.1798 21.0996C16.1582 21.2164 16.2404 21.3289 16.3529 21.3505Z" fill="#86888C"/>
<path d="M16.392 22C16.3444 22 16.2968 21.9957 16.2492 21.987C15.7776 21.9091 15.4617 21.4635 15.5396 20.9919L18.551 2.72433C18.59 2.49501 18.7155 2.29598 18.9015 2.16186C19.0919 2.02773 19.3169 1.97581 19.5462 2.01042C20.0178 2.0883 20.3337 2.53396 20.2558 3.00557L17.2444 21.2731C17.1751 21.6971 16.816 22 16.392 22ZM16.3531 21.5673C16.5694 21.5846 16.7641 21.4375 16.8117 21.2298C16.7901 21.3337 16.7295 21.4245 16.6386 21.4894C16.5564 21.55 16.4569 21.576 16.3531 21.5673ZM15.9593 21.1606C15.968 21.312 16.0545 21.4462 16.1843 21.5197C16.0545 21.4462 15.968 21.312 15.9593 21.1606ZM19.4207 2.43877C19.438 2.43877 19.4553 2.44309 19.4726 2.44309C19.5851 2.4604 19.6847 2.5253 19.7539 2.62049C19.8145 2.70703 19.8447 2.81087 19.8318 2.91471C19.8534 2.68972 19.6976 2.48203 19.4726 2.44309C19.4553 2.43877 19.438 2.43877 19.4207 2.43877ZM19.001 2.71135C18.9924 2.72866 18.988 2.74597 18.9837 2.76327C18.988 2.74597 18.9924 2.72866 19.001 2.71135ZM19.2001 2.48636C19.1828 2.49501 19.1654 2.508 19.1481 2.51665C19.1222 2.53396 19.0962 2.55559 19.0746 2.58155C19.0962 2.55559 19.1222 2.53396 19.1481 2.51665C19.1654 2.508 19.1828 2.49501 19.2001 2.48636Z" fill="#86888C"/>
</svg>
