<svg width="28" height="28" viewBox="0 0 28 28" fill="none" xmlns="http://www.w3.org/2000/svg">
<path d="M4.91315 21.5036C4.64836 21.3167 4.51855 21.109 4.51855 20.7923C4.52894 20.3821 4.87162 20.055 5.28179 20.055C5.47909 20.0654 5.6712 20.1277 5.83735 20.2419C7.02634 21.0311 8.693 21.8203 10.6193 21.8203C13.5009 21.8203 15.2662 20.3406 15.2662 18.1495C15.2662 16.3531 14.2641 15.0862 10.9619 14.6604L10.1156 14.5566C6.60059 14.1101 4.96508 12.4174 4.96508 9.80063C4.96508 6.68537 7.1821 4.75391 10.5933 4.75391C12.4936 4.75391 14.1084 5.25754 15.2143 5.9429C15.557 6.15577 15.7179 6.42057 15.7179 6.68537C15.7179 7.07477 15.4064 7.39668 15.0118 7.39668H15.0066C14.8197 7.39668 14.638 7.3188 14.477 7.23573C13.262 6.57633 11.9952 6.17654 10.5414 6.17654C7.92976 6.17654 6.47598 7.63033 6.47598 9.66563C6.47598 11.514 7.61305 12.703 10.7023 13.0976L11.5227 13.2015C15.0897 13.648 16.7823 15.3406 16.7823 18.0353C16.7823 21.0727 14.6172 23.2378 10.4427 23.2378C8.21533 23.2482 6.23195 22.4278 4.91315 21.5036Z" fill="#86888C"/>
<path d="M10.4015 23.4975C8.43373 23.4975 6.38285 22.8485 4.76291 21.7166C4.42023 21.4726 4.25928 21.1819 4.25928 20.7924V20.7873C4.27485 20.2421 4.73176 19.7956 5.28212 19.7956H5.2977C5.54692 19.8111 5.78575 19.889 5.98825 20.0292C7.51992 21.0469 9.07754 21.5609 10.6248 21.5609C13.2883 21.5609 15.0121 20.2213 15.0121 18.1497C15.0121 17.2462 14.7473 16.592 14.1866 16.0832C13.5324 15.4965 12.468 15.1123 10.9363 14.915L10.09 14.8112C8.30911 14.5827 6.95398 14.0375 6.05055 13.1756C5.1627 12.3345 4.71099 11.1923 4.71099 9.79558C4.71099 6.57129 7.02147 4.48926 10.5988 4.48926C12.3901 4.48926 14.0775 4.92539 15.3548 5.71979C15.7598 5.96901 15.983 6.31168 15.983 6.68032C15.983 7.21511 15.5521 7.65125 15.0173 7.65125C14.7629 7.65125 14.5344 7.5474 14.3631 7.45914H14.3579C13.0651 6.7582 11.8553 6.4311 10.5469 6.4311C8.20008 6.4311 6.7411 7.66682 6.7411 9.66059C6.7411 10.9015 7.19801 12.3812 10.739 12.833L11.5594 12.9368C13.3662 13.1653 14.7525 13.7156 15.6715 14.5775C16.5853 15.4342 17.0474 16.592 17.0474 18.0251C17.0474 19.6398 16.4607 21.0001 15.3548 21.9607C14.2021 22.9576 12.5043 23.4871 10.4483 23.4871C10.4275 23.4975 10.4171 23.4975 10.4015 23.4975ZM5.06405 21.2909C5.79095 21.7997 7.75875 22.9783 10.4015 22.9783C10.4171 22.9783 10.4275 22.9783 10.4431 22.9783C14.2489 22.9783 16.523 21.1299 16.523 18.0354C16.523 15.4186 14.8304 13.8766 11.4919 13.4612L10.6715 13.3574C7.63414 12.968 6.2167 11.7945 6.2167 9.66578C6.2167 8.56506 6.6113 7.63048 7.35896 6.96589C8.1222 6.28053 9.22812 5.91709 10.5417 5.91709C11.9384 5.91709 13.2312 6.26496 14.5967 7.00743C14.7162 7.06973 14.8667 7.13723 15.0069 7.13723C15.2561 7.13723 15.4586 6.93474 15.4586 6.68552C15.4586 6.50379 15.3236 6.31688 15.0796 6.16111C13.8854 5.41864 12.2915 5.01366 10.5936 5.01366C7.28108 5.01366 5.22501 6.84647 5.22501 9.80078C5.22501 12.3709 6.88129 13.8818 10.1471 14.2971L10.9934 14.401C12.6341 14.6139 13.792 15.0344 14.5241 15.6938C15.199 16.2961 15.5261 17.1009 15.5261 18.1445C15.5261 20.5328 13.5999 22.0749 10.6196 22.0749C8.9737 22.0749 7.31742 21.5297 5.6923 20.455C5.56769 20.3719 5.42231 20.32 5.27174 20.3096C5.00694 20.3148 4.78368 20.5277 4.7733 20.7924C4.77849 21.0105 4.85637 21.1455 5.06405 21.2909Z" fill="#86888C"/>
<path d="M10.4015 23.4975C8.43373 23.4975 6.38285 22.8485 4.76291 21.7166C4.42023 21.4726 4.25928 21.1819 4.25928 20.7924V20.7873C4.27485 20.2421 4.73176 19.7956 5.28212 19.7956H5.2977C5.54692 19.8111 5.78575 19.889 5.98825 20.0292C7.51992 21.0469 9.07754 21.5609 10.6248 21.5609C13.2883 21.5609 15.0121 20.2213 15.0121 18.1497C15.0121 17.2462 14.7473 16.592 14.1866 16.0832C13.5324 15.4965 12.468 15.1123 10.9363 14.915L10.09 14.8112C8.30911 14.5827 6.95398 14.0375 6.05055 13.1756C5.1627 12.3345 4.71099 11.1923 4.71099 9.79558C4.71099 6.57129 7.02147 4.48926 10.5988 4.48926C12.3901 4.48926 14.0775 4.92539 15.3548 5.71979C15.7598 5.96901 15.983 6.31168 15.983 6.68032C15.983 7.21511 15.5521 7.65125 15.0173 7.65125C14.7629 7.65125 14.5344 7.5474 14.3631 7.45914H14.3579C13.0651 6.7582 11.8553 6.4311 10.5469 6.4311C8.20008 6.4311 6.7411 7.66682 6.7411 9.66059C6.7411 10.9015 7.19801 12.3812 10.739 12.833L11.5594 12.9368C13.3662 13.1653 14.7525 13.7156 15.6715 14.5775C16.5853 15.4342 17.0474 16.592 17.0474 18.0251C17.0474 19.6398 16.4607 21.0001 15.3548 21.9607C14.2021 22.9576 12.5043 23.4871 10.4483 23.4871C10.4275 23.4975 10.4171 23.4975 10.4015 23.4975ZM5.06405 21.2909C5.79095 21.7997 7.75875 22.9783 10.4015 22.9783C10.4171 22.9783 10.4275 22.9783 10.4431 22.9783C14.2489 22.9783 16.523 21.1299 16.523 18.0354C16.523 15.4186 14.8304 13.8766 11.4919 13.4612L10.6715 13.3574C7.63414 12.968 6.2167 11.7945 6.2167 9.66578C6.2167 8.56506 6.6113 7.63048 7.35896 6.96589C8.1222 6.28053 9.22812 5.91709 10.5417 5.91709C11.9384 5.91709 13.2312 6.26496 14.5967 7.00743C14.7162 7.06973 14.8667 7.13723 15.0069 7.13723C15.2561 7.13723 15.4586 6.93474 15.4586 6.68552C15.4586 6.50379 15.3236 6.31688 15.0796 6.16111C13.8854 5.41864 12.2915 5.01366 10.5936 5.01366C7.28108 5.01366 5.22501 6.84647 5.22501 9.80078C5.22501 12.3709 6.88129 13.8818 10.1471 14.2971L10.9934 14.401C12.6341 14.6139 13.792 15.0344 14.5241 15.6938C15.199 16.2961 15.5261 17.1009 15.5261 18.1445C15.5261 20.5328 13.5999 22.0749 10.6196 22.0749C8.9737 22.0749 7.31742 21.5297 5.6923 20.455C5.56769 20.3719 5.42231 20.32 5.27174 20.3096C5.00694 20.3148 4.78368 20.5277 4.7733 20.7924C4.77849 21.0105 4.85637 21.1455 5.06405 21.2909Z" fill="#86888C"/>
<path d="M10.4019 23.757C8.38213 23.757 6.27414 23.0924 4.61786 21.9294C4.20249 21.6386 4 21.2648 4 20.7923V20.7819C4.01558 20.0914 4.5919 19.5358 5.28245 19.5358H5.30841C5.60436 19.5514 5.88992 19.6448 6.12876 19.811C7.6137 20.7975 9.1246 21.2959 10.6147 21.2959C13.1225 21.2959 14.7425 20.0602 14.7425 18.1443C14.7425 17.3188 14.5088 16.7269 14 16.27C13.3873 15.7196 12.3697 15.3562 10.8899 15.1692L10.0488 15.0654C8.21599 14.8318 6.80373 14.2606 5.85877 13.3624C4.919 12.4694 4.44133 11.2648 4.44133 9.79542C4.44133 8.13914 5.02284 6.73728 6.12876 5.74039C7.22429 4.75389 8.76635 4.22949 10.5888 4.22949C12.4268 4.22949 14.1661 4.68121 15.4849 5.49636C15.9678 5.79751 16.2326 6.21807 16.2326 6.68016C16.2326 7.36033 15.6822 7.91069 15.0073 7.91069C14.6957 7.91069 14.4309 7.79127 14.2336 7.69262L14.2284 7.68743C12.9719 7.00727 11.8037 6.69055 10.5369 6.69055C8.35098 6.69055 6.99065 7.82762 6.99065 9.66043C6.99065 10.865 7.43717 12.1526 10.7653 12.5784L11.5857 12.6822C13.4496 12.9159 14.8826 13.4922 15.8432 14.3904C16.8089 15.299 17.297 16.5192 17.297 18.0301C17.297 19.7227 16.6791 21.1505 15.5109 22.163C14.3115 23.2014 12.5566 23.7518 10.4382 23.7518L10.4019 23.757ZM10.4019 23.2378H10.4434C10.8328 23.2378 11.2118 23.217 11.5753 23.1807C11.2118 23.217 10.8328 23.2378 10.4434 23.2378H10.4019ZM4.51921 20.7923C4.51921 21.0934 4.63863 21.3063 4.91381 21.5036C5.69782 22.054 6.59086 22.4849 7.52544 22.7809C6.27414 22.3811 5.36033 21.8151 4.91381 21.5036C4.63863 21.3063 4.51921 21.0986 4.51921 20.7923ZM5.20976 21.0779C5.91588 21.5711 7.82658 22.7186 10.3967 22.7186H10.4382C14.0831 22.7186 16.2637 20.9688 16.2637 18.0353C16.2637 15.569 14.649 14.1152 11.461 13.7155L10.6407 13.6116C9.05711 13.4091 7.91484 12.9989 7.14122 12.3603C6.35721 11.7113 5.95742 10.8027 5.95742 9.66043C5.95742 8.48701 6.38317 7.48494 7.18276 6.76843C7.99792 6.04154 9.15576 5.65213 10.542 5.65213C11.9854 5.65213 13.3094 6.01038 14.7217 6.77362C14.7736 6.79958 14.919 6.87227 15.0073 6.87227C15.1163 6.87227 15.1994 6.7892 15.1994 6.68016C15.1994 6.61267 15.1319 6.49844 14.9398 6.37902C13.7819 5.66251 12.2399 5.26791 10.594 5.26791C7.44236 5.26791 5.48494 7.00207 5.48494 9.79542C5.48494 12.2149 7.06334 13.6428 10.1838 14.0374L11.0301 14.1412C12.7279 14.3593 13.9273 14.8058 14.7061 15.5015C15.4382 16.1557 15.7913 17.0228 15.7913 18.1443C15.7913 19.3956 15.298 20.4548 14.3582 21.2077C13.434 21.9501 12.1412 22.3395 10.6199 22.3395C8.92211 22.3395 7.21391 21.7788 5.55244 20.6729C5.46417 20.6158 5.37071 20.5794 5.27206 20.5742C5.14745 20.5794 5.04361 20.6781 5.03842 20.7975C5.03842 20.9065 5.05919 20.9688 5.20976 21.0779ZM15.2669 18.1547C15.2669 19.2554 14.8203 20.1796 13.974 20.839C13.1485 21.4776 11.9958 21.8203 10.6355 21.8203C13.4496 21.8151 15.2669 20.3769 15.2669 18.1547ZM5.27726 20.055C4.87227 20.0602 4.53479 20.3873 4.51921 20.7871C4.52959 20.3873 4.87227 20.0602 5.27726 20.055ZM5.28764 20.055C5.49013 20.0654 5.68224 20.1329 5.8432 20.2419C5.99377 20.3406 6.14953 20.4392 6.3001 20.5327C6.14953 20.4392 5.99377 20.3458 5.8432 20.2419C5.67705 20.1329 5.48494 20.0654 5.28764 20.055ZM11.1807 13.1599L11.5285 13.2014C13.2419 13.4143 14.5607 13.9283 15.4382 14.7279C16.3312 15.5431 16.7881 16.6542 16.7881 18.0353C16.7881 16.675 16.352 15.5794 15.4953 14.7746C14.6178 13.9491 13.2835 13.4195 11.5285 13.2014L11.1807 13.1599ZM13.8338 15.5119C14.0259 15.6262 14.2025 15.756 14.353 15.8909C14.3686 15.9065 14.3842 15.9169 14.3998 15.9325C14.3842 15.9169 14.3686 15.9065 14.353 15.8909C14.2025 15.756 14.0259 15.6262 13.8338 15.5119ZM10.5005 14.6033L10.9574 14.6604C11.0768 14.676 11.1911 14.6916 11.3053 14.7071C11.1911 14.6916 11.0768 14.676 10.9574 14.6604L10.5005 14.6033ZM4.96573 9.811C4.96573 11.1298 5.39148 12.1994 6.22222 12.9886C7.01661 13.7466 8.20041 14.2502 9.73208 14.4995C8.23675 14.2606 7.07891 13.7726 6.28452 13.0457C5.41225 12.2513 4.97092 11.1609 4.96573 9.811ZM7.06334 11.5504C7.18276 11.7009 7.31775 11.8359 7.46832 11.9605C8.1381 12.5161 9.15056 12.8795 10.5628 13.0768C8.97403 12.8588 7.8785 12.4122 7.2191 11.7269C7.16199 11.6698 7.11007 11.6127 7.06334 11.5504ZM4.96573 9.80061C4.96573 9.80061 4.96573 9.80581 4.96573 9.80061C4.96573 9.80581 4.96573 9.80061 4.96573 9.80061ZM4.96573 9.79542C4.96573 9.79542 4.96573 9.80061 4.96573 9.79542C4.96573 9.80061 4.96573 9.79542 4.96573 9.79542ZM4.96573 9.79023C4.96573 9.79542 4.96573 9.79542 4.96573 9.79023C4.96573 9.79542 4.96573 9.79542 4.96573 9.79023ZM6.47663 9.66043C6.47663 9.66562 6.47663 9.66562 6.47663 9.66043C6.47663 9.66562 6.47663 9.66562 6.47663 9.66043ZM10.5317 6.17653C9.28036 6.17653 8.24714 6.51921 7.53063 7.15784C7.40083 7.27725 7.28141 7.40186 7.17237 7.53686C7.29698 7.3811 7.43717 7.24091 7.58774 7.10592C8.30425 6.49844 9.3219 6.17653 10.5317 6.17653ZM15.0124 7.39667C15.4018 7.39667 15.7186 7.07995 15.7186 6.68536C15.7186 7.07476 15.4018 7.39667 15.0124 7.39667ZM14.4777 7.23572C14.514 7.25649 14.5503 7.27206 14.5919 7.29283C14.5503 7.27206 14.514 7.25649 14.4777 7.23572ZM13.7767 6.88785C13.7819 6.88785 13.7819 6.88785 13.7767 6.88785C13.7819 6.88785 13.7819 6.88785 13.7767 6.88785ZM13.7715 6.88266C13.7715 6.88785 13.7715 6.88785 13.7715 6.88266C13.7715 6.88785 13.7715 6.88785 13.7715 6.88266ZM10.5836 6.17653C11.6791 6.18172 12.7123 6.41017 13.7715 6.88266C12.7072 6.41017 11.6791 6.18172 10.5836 6.17653ZM15.7186 6.68016C15.7186 6.68016 15.7186 6.68535 15.7186 6.68016C15.7186 6.68535 15.7186 6.68016 15.7186 6.68016ZM15.2669 5.97923C15.3707 6.05192 15.459 6.1298 15.5317 6.21287C15.4642 6.1298 15.3759 6.05192 15.2669 5.97923ZM10.5732 6.17653C10.5784 6.17653 10.5784 6.17653 10.5836 6.17653C10.5784 6.17653 10.5732 6.17653 10.5732 6.17653ZM10.5628 6.17653C10.5628 6.17653 10.568 6.17653 10.5628 6.17653C10.568 6.17653 10.5628 6.17653 10.5628 6.17653ZM10.5472 6.17653C10.5524 6.17653 10.5524 6.17653 10.5576 6.17653C10.5524 6.17653 10.5472 6.17653 10.5472 6.17653ZM10.5369 6.17653C10.5317 6.17653 10.5317 6.17653 10.5369 6.17653C10.5317 6.17653 10.5317 6.17653 10.5369 6.17653ZM10.594 4.75389C10.6044 4.75389 10.6147 4.75389 10.6251 4.75389C10.6147 4.75389 10.6044 4.75389 10.594 4.75389ZM10.594 4.75389C10.594 4.75389 10.5888 4.75389 10.594 4.75389C10.5888 4.75389 10.594 4.75389 10.594 4.75389Z" fill="#86888C"/>
<path d="M17.5822 25.4753C17.3018 25.4286 17.1097 25.1586 17.1564 24.8782L20.7701 2.95717C20.8168 2.6768 21.0868 2.48469 21.3672 2.53142C21.6476 2.57815 21.8397 2.84814 21.793 3.12851L18.1793 25.0496C18.1325 25.3299 17.8625 25.522 17.5822 25.4753Z" fill="#86888C"/>
<path d="M17.6702 25.7404C17.6287 25.7404 17.5871 25.7352 17.5404 25.7301C17.1198 25.6574 16.8291 25.2576 16.9018 24.8318L20.5155 2.91078C20.5518 2.70829 20.6609 2.52657 20.8322 2.40715C21.0035 2.28773 21.206 2.23581 21.4137 2.27215C21.8343 2.34484 22.125 2.74464 22.0523 3.17039L18.4334 25.0914C18.3711 25.4705 18.0388 25.7404 17.6702 25.7404ZM17.6235 25.2212C17.7637 25.242 17.8987 25.1485 17.9194 25.0084L21.5383 3.08731C21.5591 2.94713 21.4656 2.81213 21.3254 2.78617C21.2579 2.77579 21.1904 2.79136 21.1333 2.8329C21.0762 2.87444 21.0399 2.93155 21.0295 2.99905L17.4158 24.9201C17.3898 25.0603 17.4885 25.1953 17.6235 25.2212Z" fill="#86888C"/>
<path d="M17.6702 25.7404C17.6287 25.7404 17.5871 25.7352 17.5404 25.7301C17.1198 25.6574 16.8291 25.2576 16.9018 24.8318L20.5155 2.91078C20.5518 2.70829 20.6609 2.52657 20.8322 2.40715C21.0035 2.28773 21.206 2.23581 21.4137 2.27215C21.8343 2.34484 22.125 2.74464 22.0523 3.17039L18.4334 25.0914C18.3711 25.4705 18.0388 25.7404 17.6702 25.7404ZM17.6235 25.2212C17.7637 25.242 17.8987 25.1485 17.9194 25.0084L21.5383 3.08731C21.5591 2.94713 21.4656 2.81213 21.3254 2.78617C21.2579 2.77579 21.1904 2.79136 21.1333 2.8329C21.0762 2.87444 21.0399 2.93155 21.0295 2.99905L17.4158 24.9201C17.3898 25.0603 17.4885 25.1953 17.6235 25.2212Z" fill="#86888C"/>
<path d="M17.6708 26C17.6137 26 17.5566 25.9948 17.4994 25.9844C16.9335 25.891 16.5545 25.3562 16.6479 24.7902L20.2616 2.8692C20.3084 2.59402 20.4589 2.35518 20.6822 2.19423C20.9107 2.03327 21.1806 1.97097 21.4558 2.0125C22.0218 2.10596 22.4008 2.64075 22.3073 3.20669L18.6936 25.1277C18.6106 25.6366 18.1796 26 17.6708 26ZM17.6241 25.4808C17.8837 25.5016 18.1173 25.325 18.1744 25.0758C18.1485 25.2004 18.0758 25.3095 17.9667 25.3873C17.8681 25.46 17.7487 25.4912 17.6241 25.4808ZM17.1516 24.9927C17.162 25.1745 17.2658 25.3354 17.4216 25.4237C17.2658 25.3354 17.162 25.1745 17.1516 24.9927ZM21.3053 2.52652C21.326 2.52652 21.3468 2.53171 21.3676 2.53171C21.5026 2.55248 21.622 2.63036 21.705 2.74459C21.7777 2.84843 21.8141 2.97304 21.7985 3.09765C21.8245 2.82766 21.6376 2.57844 21.3676 2.53171C21.3468 2.52652 21.326 2.52652 21.3053 2.52652ZM20.8016 2.85362C20.7912 2.87439 20.786 2.89516 20.7809 2.91593C20.786 2.89516 20.7912 2.87439 20.8016 2.85362ZM21.0405 2.58363C21.0197 2.59402 20.9989 2.60959 20.9782 2.61998C20.947 2.64075 20.9158 2.66671 20.8899 2.69786C20.9158 2.66671 20.947 2.64075 20.9782 2.61998C20.9989 2.60959 21.0197 2.59402 21.0405 2.58363Z" fill="#86888C"/>
</svg>
