<svg width="28" height="28" viewBox="0 0 28 28" fill="none" xmlns="http://www.w3.org/2000/svg">
<path d="M13.9966 2C6.14912 2 2 6.14912 2 14.0034C2 21.8543 6.14912 26 13.9966 26C21.8509 26 26 21.8509 26 14.0034C26 6.14912 21.8509 2 13.9966 2ZM14.8127 19.7336C14.0273 20.4132 12.8833 20.7752 11.5037 20.7786C11.4764 20.7854 11.4559 20.7854 11.4422 20.7854C10.1172 20.7854 8.73079 20.3483 7.6346 19.5834C7.36141 19.3887 7.23164 19.1463 7.23164 18.8355V18.8287C7.2453 18.3779 7.62436 18.0091 8.07513 18.0091H8.09562C8.29368 18.0228 8.4815 18.0842 8.63517 18.1935C9.60842 18.8423 10.6056 19.1702 11.5891 19.1702C13.2385 19.1702 14.3039 18.3574 14.3039 17.0973C14.3039 16.5578 14.1503 16.1651 13.8156 15.8645C13.4126 15.5026 12.7433 15.2635 11.7701 15.1406L11.2134 15.0723C10.0046 14.9186 9.0757 14.5396 8.46101 13.9522C7.84291 13.3648 7.52874 12.576 7.52874 11.6061C7.52874 10.5168 7.91121 9.59476 8.63859 8.9391C9.35913 8.29027 10.3734 7.94536 11.572 7.94536C12.7809 7.94536 13.9249 8.24246 14.7888 8.78201C15.1064 8.97667 15.284 9.25327 15.284 9.5572C15.284 10.0046 14.922 10.3665 14.4781 10.3665C14.2971 10.3665 14.1332 10.3017 14.0068 10.2402H14.0034L13.9624 10.2197C13.136 9.77234 12.3677 9.56403 11.5378 9.56403C10.0763 9.56403 9.20546 10.2948 9.20546 11.5174C9.20546 12.3096 9.49915 13.1565 11.6847 13.4331L12.2242 13.5014C13.4536 13.6551 14.3961 14.0341 15.0245 14.6249C15.6596 15.2225 15.9841 16.025 15.9841 17.0154C15.9841 18.1286 15.5777 19.0677 14.8127 19.7336ZM19.2726 7.27262L16.8958 21.6904C16.8412 22.0216 16.5578 22.2607 16.2231 22.2607C16.189 22.2607 16.1582 22.2573 16.1275 22.2538L16.1104 22.2504C15.7382 22.1855 15.4889 21.8338 15.5504 21.4616L17.9271 7.04382C17.9613 6.85942 18.0603 6.70233 18.2072 6.59989C18.3608 6.49402 18.5418 6.45304 18.716 6.48378C19.0848 6.55208 19.3375 6.90381 19.2726 7.27262Z" fill="#86888C"/>
</svg>
