<svg width="40" height="40" viewBox="0 0 40 40" fill="none" xmlns="http://www.w3.org/2000/svg">
<path d="M19.9949 2C8.22368 2 2 8.22368 2 20.0051C2 31.7814 8.22368 38 19.9949 38C31.7763 38 38 31.7763 38 20.0051C38 8.22368 31.7763 2 19.9949 2ZM21.2191 28.6005C20.041 29.6198 18.325 30.1628 16.2555 30.1679C16.2146 30.1781 16.1838 30.1781 16.1633 30.1781C14.1759 30.1781 12.0962 29.5225 10.4519 28.3751C10.0421 28.0831 9.84747 27.7194 9.84747 27.2533V27.243C9.86796 26.5669 10.4365 26.0137 11.1127 26.0137H11.1434C11.4405 26.0341 11.7223 26.1264 11.9528 26.2903C13.4126 27.2635 14.9084 27.7553 16.3836 27.7553C18.8577 27.7553 20.4559 26.5361 20.4559 24.646C20.4559 23.8367 20.2254 23.2476 19.7234 22.7968C19.119 22.2538 18.115 21.8953 16.6551 21.7109L15.8201 21.6084C14.0068 21.3779 12.6135 20.8093 11.6915 19.9283C10.7644 19.0472 10.2931 17.864 10.2931 16.4092C10.2931 14.7752 10.8668 13.3921 11.9579 12.4087C13.0387 11.4354 14.56 10.918 16.358 10.918C18.1713 10.918 19.8873 11.3637 21.1833 12.173C21.6596 12.465 21.926 12.8799 21.926 13.3358C21.926 14.0068 21.383 14.5498 20.7171 14.5498C20.4456 14.5498 20.1998 14.4525 20.0102 14.3603H20.0051L19.9437 14.3295C18.704 13.6585 17.5515 13.346 16.3068 13.346C14.1144 13.346 12.8082 14.4422 12.8082 16.276C12.8082 17.4644 13.2487 18.7348 16.527 19.1497L17.3364 19.2521C19.1804 19.4826 20.5942 20.0512 21.5367 20.9374C22.4895 21.8338 22.9761 23.0376 22.9761 24.5231C22.9761 26.1929 22.3665 27.6016 21.2191 28.6005ZM27.9089 9.90894L24.3438 31.5356C24.2618 32.0324 23.8367 32.391 23.3347 32.391C23.2834 32.391 23.2373 32.3859 23.1912 32.3808L23.1656 32.3756C22.6073 32.2783 22.2334 31.7507 22.3256 31.1924L25.8907 9.56574C25.9419 9.28913 26.0905 9.0535 26.3108 8.89983C26.5413 8.74104 26.8127 8.67957 27.074 8.72567C27.6272 8.82812 28.0063 9.35572 27.9089 9.90894Z" fill="#86888C"/>
</svg>
