<svg width="24" height="24" viewBox="0 0 24 24" fill="none" xmlns="http://www.w3.org/2000/svg">
<path d="M20.3032 3.00001H13.6128C12.679 2.99716 11.9189 3.75107 11.916 4.68422V8.78379C11.916 9.75107 12.6078 10.4794 13.5246 10.4794H14.0911V11.8848C14.0911 12.2859 14.0057 12.67 14.39 12.7326C14.7744 12.7952 15.0762 12.3912 15.3068 12.1152C15.5374 11.8393 16.1865 11.1792 16.7929 10.4794L20.3032 10.4879C21.2399 10.4879 21.9972 9.72831 22 8.79232V4.6956C21.9972 3.75961 21.2399 3.00001 20.3032 3.00001ZM17.1317 9.37838C16.8356 9.37838 16.5964 9.13941 16.5964 8.84353C16.5964 8.54766 16.8356 8.30868 17.1317 8.30868C17.4278 8.30868 17.6669 8.54766 17.6669 8.84353C17.6669 9.13941 17.4249 9.37838 17.1317 9.37838ZM18.0285 6.54766C17.9231 6.65292 17.6384 6.84353 17.6384 7.07397V7.2845C17.6384 7.57184 17.4164 7.80513 17.1288 7.80513C16.8413 7.80513 16.6192 7.57184 16.6192 7.2845V7.07397C16.6192 6.52774 16.9751 6.20911 17.2142 5.97867C17.3082 5.88763 17.5445 5.73685 17.5445 5.51779C17.5445 5.37839 17.4648 5.07682 17.126 5.07682C16.7872 5.07682 16.6164 5.34994 16.6164 5.5121C16.6221 5.79375 16.4 6.02703 16.121 6.03272C15.8391 6.03841 15.6057 5.81651 15.6 5.5377V5.51494C15.6 4.6643 16.1922 4.11238 17.126 4.11238C18 4.11238 18.5865 4.84069 18.5865 5.52063C18.5922 6.09816 18.279 6.2973 18.0285 6.54766ZM8.57082 16.7184C9.72384 16.7184 10.6178 16.3912 11.227 15.7454C11.8021 15.1366 12.0954 14.2774 12.0954 13.1935C12.0954 12.1095 11.8021 11.2532 11.227 10.6415C10.6178 9.99574 9.72384 9.66857 8.57082 9.66857C7.41779 9.66857 6.52384 9.99574 5.91459 10.6415C5.3395 11.2504 5.04626 12.1095 5.04626 13.1935C5.04626 14.2774 5.3395 15.1337 5.91459 15.7454C6.52384 16.3912 7.41779 16.7184 8.57082 16.7184ZM11.2242 17.7198H5.91744C4.6363 17.7198 3.65125 18.0555 2.99359 18.7212C2.33594 19.3869 2 20.3713 2 21.6572V22.7155C2 22.872 2.12811 23 2.2847 23H14.8569C15.0135 23 15.1416 22.872 15.1416 22.7155V21.6572C15.1416 20.3713 14.8085 19.3812 14.148 18.7184C13.4875 18.0555 12.5053 17.7198 11.2242 17.7198Z" fill="#86888C"/>
</svg>
