<svg width="24" height="24" viewBox="0 0 24 24" fill="none" xmlns="http://www.w3.org/2000/svg">
<path d="M14.3198 12.7939C13.8732 12.7939 13.492 12.6459 13.2133 12.3643C12.943 12.0884 12.798 11.7129 12.798 11.2777C12.798 10.8368 12.943 10.4585 13.2218 10.1826C13.5006 9.90665 13.8761 9.76157 14.3198 9.76157C14.738 9.76157 15.0992 9.89242 15.3666 10.1342H17.6309C17.6394 9.98914 17.6451 9.84122 17.6451 9.69046C17.6451 6.80894 16.0578 5.22168 13.1763 5.22168C10.2948 5.22168 8.70752 6.80894 8.70752 9.69046C8.70752 12.572 10.2948 14.1592 13.1763 14.1592C14.957 14.1592 16.2427 13.5534 16.9652 12.407H15.378C15.1077 12.6602 14.7408 12.7939 14.3198 12.7939Z" fill="#86888C"/>
<path d="M17.8586 4.58157C16.772 3.53193 15.1933 3 13.1708 3C11.3531 3 9.88821 3.42953 8.8215 4.28005C7.7036 5.17039 7.03797 6.50164 6.83886 8.23396C6.80472 8.54686 7.03229 8.82563 7.34519 8.85976C7.65524 8.89105 7.93116 8.67202 7.96814 8.36481C8.13028 6.9397 8.65652 5.8673 9.52695 5.17039C10.386 4.4877 11.612 4.13782 13.1651 4.13782C14.8832 4.13782 16.1946 4.56166 17.065 5.4008C17.9667 6.26554 18.4218 7.60816 18.4247 9.38885L18.4162 9.94069V9.94922C18.4162 10.137 18.3849 10.3873 18.2426 10.5324C18.1289 10.6461 17.9383 10.703 17.6823 10.703H15.1136C14.9543 10.4669 14.6784 10.3304 14.32 10.3304C13.734 10.3304 13.3671 10.6945 13.3671 11.2776C13.3671 11.5649 13.4524 11.7982 13.6174 11.966C13.7824 12.1338 14.027 12.2249 14.3172 12.2249C14.6073 12.2249 14.8519 12.1367 15.0169 11.966C15.0539 11.929 15.088 11.8864 15.1165 11.8408H17.6737C18.2426 11.8408 18.7006 11.673 19.0334 11.3431C19.3662 11.0131 19.5454 10.5324 19.5454 9.95776L19.554 9.40592V9.39738C19.5625 7.28957 18.9879 5.67103 17.8586 4.58157ZM21.7642 23H4.56891C4.25601 23 4 22.744 4 22.4311V20.767C4 19.1769 4.4978 17.8172 5.44218 16.8359C6.46907 15.7692 7.99374 15.2059 9.84839 15.2059H16.4847C18.3394 15.2059 19.864 15.7692 20.8909 16.8359C21.8353 17.8172 22.3331 19.1769 22.3331 20.767V22.4311C22.3331 22.7468 22.0799 23 21.7642 23Z" fill="#86888C"/>
</svg>
