<svg width="40" height="40" viewBox="0 0 40 40" fill="none" xmlns="http://www.w3.org/2000/svg">
<path d="M34.9458 2.00001H22.9031C21.2222 1.99489 19.8539 3.35193 19.8488 5.03159V12.4108C19.8488 14.1519 21.0941 15.4629 22.7442 15.4629H23.764V17.9926C23.764 18.7147 23.6103 19.406 24.3021 19.5186C24.9939 19.6313 25.5371 18.9041 25.9522 18.4074C26.3673 17.9107 27.5357 16.7226 28.6272 15.4629L34.9458 15.4782C36.6317 15.4782 37.9949 14.111 38 12.4262V5.05208C37.9949 3.3673 36.6317 2.00001 34.9458 2.00001ZM29.237 13.4811C28.7041 13.4811 28.2736 13.0509 28.2736 12.5184C28.2736 11.9858 28.7041 11.5556 29.237 11.5556C29.77 11.5556 30.2004 11.9858 30.2004 12.5184C30.2004 13.0509 29.7648 13.4811 29.237 13.4811ZM30.8512 8.38579C30.6616 8.57526 30.1492 8.91836 30.1492 9.33315V9.7121C30.1492 10.2293 29.7495 10.6492 29.2319 10.6492C28.7143 10.6492 28.3146 10.2293 28.3146 9.7121V9.33315C28.3146 8.34994 28.9552 7.7764 29.3856 7.36161C29.5547 7.19774 29.9801 6.92633 29.9801 6.53202C29.9801 6.28109 29.8366 5.73828 29.2268 5.73828C28.6169 5.73828 28.3095 6.22988 28.3095 6.52178C28.3197 7.02875 27.92 7.44866 27.4178 7.4589C26.9105 7.46914 26.4902 7.06971 26.48 6.56786V6.5269C26.48 4.99575 27.5459 4.00229 29.2268 4.00229C30.8 4.00229 31.8557 5.31324 31.8557 6.53714C31.8659 7.57668 31.3022 7.93515 30.8512 8.38579ZM13.8275 26.693C15.9029 26.693 17.512 26.1041 18.6087 24.9417C19.6438 23.8458 20.1717 22.2993 20.1717 20.3482C20.1717 18.3972 19.6438 16.8558 18.6087 15.7548C17.512 14.5923 15.9029 14.0034 13.8275 14.0034C11.752 14.0034 10.1429 14.5923 9.04626 15.7548C8.0111 16.8506 7.48327 18.3972 7.48327 20.3482C7.48327 22.2993 8.0111 23.8407 9.04626 24.9417C10.1429 26.1041 11.752 26.693 13.8275 26.693ZM18.6036 28.4956H9.05139C6.74534 28.4956 4.97224 29.0999 3.78847 30.2982C2.6047 31.4964 2 33.2683 2 35.5829V37.4879C2 37.7696 2.2306 38 2.51246 38H25.1425C25.4243 38 25.6549 37.7696 25.6549 37.4879V35.5829C25.6549 33.2683 25.0554 31.4862 23.8665 30.293C22.6776 29.0999 20.9096 28.4956 18.6036 28.4956Z" fill="#86888C"/>
</svg>
