<svg width="20" height="20" viewBox="0 0 20 20" fill="none" xmlns="http://www.w3.org/2000/svg">
<path d="M11.2559 9.83509C10.8987 9.83509 10.5937 9.71676 10.3707 9.49147C10.1545 9.27073 10.0385 8.97035 10.0385 8.62217C10.0385 8.26945 10.1545 7.96679 10.3775 7.74605C10.6006 7.52532 10.9009 7.40926 11.2559 7.40926C11.5905 7.40926 11.8795 7.51394 12.0934 7.70737H13.9048C13.9116 7.59131 13.9162 7.47298 13.9162 7.35237C13.9162 5.04715 12.6464 3.77734 10.3411 3.77734C8.03592 3.77734 6.76611 5.04715 6.76611 7.35237C6.76611 9.65759 8.03592 10.9274 10.3411 10.9274C11.7657 10.9274 12.7943 10.4427 13.3723 9.5256H12.1025C11.8863 9.72813 11.5927 9.83509 11.2559 9.83509Z" fill="#86888C"/>
<path d="M14.0869 3.26525C13.2176 2.42554 11.9546 2 10.3367 2C8.88252 2 7.71057 2.34362 6.8572 3.02404C5.96288 3.73631 5.43038 4.80131 5.27109 6.18717C5.24378 6.43749 5.42583 6.6605 5.67615 6.68781C5.92419 6.71284 6.14493 6.53762 6.17451 6.29185C6.30422 5.15176 6.72522 4.29384 7.42156 3.73631C8.1088 3.19016 9.0896 2.91025 10.3321 2.91025C11.7066 2.91025 12.7557 3.24932 13.452 3.92064C14.1734 4.61243 14.5375 5.68653 14.5398 7.11108L14.5329 7.55255V7.55938C14.5329 7.70957 14.5079 7.90983 14.3941 8.02589C14.3031 8.11691 14.1506 8.16242 13.9458 8.16242H11.8909C11.7635 7.97355 11.5427 7.86432 11.256 7.86432C10.7872 7.86432 10.4937 8.1556 10.4937 8.6221C10.4937 8.85194 10.5619 9.03854 10.6939 9.17281C10.8259 9.30707 11.0216 9.37989 11.2537 9.37989C11.4858 9.37989 11.6816 9.30935 11.8135 9.17281C11.8431 9.14322 11.8704 9.10909 11.8932 9.07268H13.939C14.3941 9.07268 14.7605 8.93842 15.0267 8.67444C15.293 8.41047 15.4364 8.02589 15.4364 7.56621L15.4432 7.12473V7.11791C15.45 5.43166 14.9903 4.13682 14.0869 3.26525ZM17.2113 18H3.45513C3.20481 18 3 17.7952 3 17.5449V16.2136C3 14.9415 3.39824 13.8538 4.15375 13.0687C4.97525 12.2153 6.19499 11.7648 7.67871 11.7648H12.9878C14.4715 11.7648 15.6912 12.2153 16.5127 13.0687C17.2682 13.8538 17.6665 14.9415 17.6665 16.2136V17.5449C17.6665 17.7975 17.4639 18 17.2113 18Z" fill="#86888C"/>
</svg>
