<svg width="40" height="40" viewBox="0 0 40 40" fill="none" xmlns="http://www.w3.org/2000/svg">
<path d="M22.5758 19.6289C21.7719 19.6289 21.0858 19.3627 20.584 18.8558C20.0976 18.3591 19.8365 17.6833 19.8365 16.8999C19.8365 16.1063 20.0976 15.4253 20.5994 14.9286C21.1011 14.432 21.777 14.1708 22.5758 14.1708C23.3284 14.1708 23.9787 14.4064 24.46 14.8416H28.5356C28.551 14.5805 28.5612 14.3142 28.5612 14.0428C28.5612 8.85609 25.7042 5.99902 20.5174 5.99902C15.3307 5.99902 12.4736 8.85609 12.4736 14.0428C12.4736 19.2296 15.3307 22.0866 20.5174 22.0866C23.7227 22.0866 26.037 20.996 27.3375 18.9326H24.4805C23.994 19.3883 23.3335 19.6289 22.5758 19.6289Z" fill="#86888C"/>
<path d="M28.9455 4.84682C26.9896 2.95747 24.1479 2 20.5075 2C17.2357 2 14.5988 2.77315 12.6787 4.30408C10.6665 5.9067 9.46835 8.30294 9.10994 11.4211C9.0485 11.9844 9.45811 12.4861 10.0213 12.5476C10.5794 12.6039 11.0761 12.2096 11.1427 11.6567C11.4345 9.09145 12.3817 7.16114 13.9485 5.9067C15.4948 4.67786 17.7016 4.04807 20.4972 4.04807C23.5898 4.04807 25.9502 4.81098 27.517 6.32143C29.1401 7.87797 29.9593 10.2947 29.9644 13.4999L29.9491 14.4932V14.5086C29.9491 14.8465 29.8928 15.2971 29.6368 15.5582C29.4319 15.7631 29.0889 15.8655 28.6281 15.8655H24.0046C23.7178 15.4405 23.2212 15.1947 22.576 15.1947C21.5213 15.1947 20.8608 15.8501 20.8608 16.8997C20.8608 17.4169 21.0144 17.8367 21.3113 18.1388C21.6083 18.4409 22.0486 18.6048 22.5709 18.6048C23.0932 18.6048 23.5335 18.446 23.8305 18.1388C23.897 18.0723 23.9585 17.9954 24.0097 17.9135H28.6127C29.6368 17.9135 30.4611 17.6114 31.0602 17.0175C31.6592 16.4236 31.9818 15.5582 31.9818 14.524L31.9972 13.5307V13.5153C32.0125 9.72123 30.9782 6.80785 28.9455 4.84682ZM35.9755 38H5.02404C4.46082 38 4 37.5392 4 36.976V33.9807C4 31.1185 4.89603 28.671 6.59593 26.9046C8.44432 24.9845 11.1887 23.9707 14.5271 23.9707H26.4725C29.8108 23.9707 32.5553 24.9845 34.4036 26.9046C36.1035 28.671 36.9996 31.1185 36.9996 33.9807V36.976C36.9996 37.5443 36.5439 38 35.9755 38Z" fill="#86888C"/>
</svg>
