<svg width="24" height="24" viewBox="0 0 24 24" fill="none" xmlns="http://www.w3.org/2000/svg">
<path fill-rule="evenodd" clip-rule="evenodd" d="M21.377 10.8605C21.3599 10.9288 21.2916 10.9687 21.2233 10.9516L20.4748 10.7609L20.9074 9.06468L21.6559 9.25536C21.7242 9.27244 21.764 9.34074 21.747 9.4062C21.747 9.40336 21.377 10.8605 21.377 10.8605ZM22.8085 8.66908C22.6236 8.35601 22.319 8.12832 21.9661 8.0401L21.2176 7.84941L21.4225 7.04113C21.5193 6.65691 21.4624 6.25847 21.2603 5.91694C21.0582 5.57541 20.7366 5.3335 20.3524 5.23673L7.81553 2.0463C7.02432 1.84423 6.21604 2.32237 6.01397 3.11357V3.11927L4.70479 8.27063C4.50272 9.06468 4.9837 9.87296 5.77775 10.0779L11.8085 11.6119L9.66262 17.6939H7.0414V15.1182C7.0414 14.2986 6.37827 13.6326 5.5586 13.6326H4.4828C3.66598 13.6326 3 14.2986 3 15.1154V20.5172C3 21.3369 3.66598 22 4.4828 22H5.55291C6.37258 22 7.03571 21.334 7.03571 20.5144V18.9405H10.0981C10.3627 18.9405 10.599 18.7726 10.6872 18.525L13.0181 11.9193L18.3061 13.2655C18.6875 13.3622 19.0916 13.3053 19.4303 13.1032C19.769 12.9012 20.0109 12.5767 20.1076 12.1925L20.1646 11.9733L20.9131 12.164C21.6502 12.349 22.3987 11.905 22.5866 11.1679L22.9565 9.71073C23.0505 9.35497 22.9935 8.98499 22.8085 8.66908Z" fill="#86888C"/>
</svg>
