<svg width="40" height="40" viewBox="0 0 40 40" fill="none" xmlns="http://www.w3.org/2000/svg">
<path fill-rule="evenodd" clip-rule="evenodd" d="M35.0786 17.949C35.0478 18.0719 34.9249 18.1436 34.8019 18.1129L33.4546 17.7697L34.2333 14.7164L35.5806 15.0597C35.7036 15.0904 35.7753 15.2133 35.7445 15.3312C35.7445 15.326 35.0786 17.949 35.0786 17.949ZM37.6554 14.0043C37.3224 13.4408 36.7742 13.031 36.139 12.8722L34.7917 12.5289L35.1605 11.074C35.3347 10.3824 35.2323 9.66524 34.8685 9.05049C34.5048 8.43574 33.9259 8.0003 33.2343 7.82612L10.6679 2.08335C9.24378 1.71962 7.78888 2.58027 7.42515 4.00443V4.01468L5.06862 13.2871C4.70489 14.7164 5.57066 16.1713 6.99995 16.5402L17.8554 19.3014L13.9927 30.2491H9.27452V25.6128C9.27452 24.1374 8.08088 22.9387 6.60549 22.9387H4.66903C3.19876 22.9387 2 24.1374 2 25.6077V35.331C2 36.8064 3.19876 38 4.66903 38H6.59524C8.07064 38 9.26427 36.8012 9.26427 35.3258V32.4929H14.7765C15.2529 32.4929 15.6781 32.1906 15.837 31.7449L20.0326 19.8547L29.551 22.2778C30.2374 22.452 30.9649 22.3495 31.5745 21.9858C32.1841 21.6221 32.6196 21.0381 32.7938 20.3465L32.8962 19.952L34.2435 20.2953C35.5704 20.6282 36.9177 19.8291 37.2558 18.5022L37.9218 15.8793C38.0908 15.239 37.9884 14.573 37.6554 14.0043Z" fill="#86888C"/>
</svg>
