<svg width="24" height="24" viewBox="0 0 24 24" fill="none" xmlns="http://www.w3.org/2000/svg">
<path fill-rule="evenodd" clip-rule="evenodd" d="M17.9067 7.30554L16.7144 6.10472L18.9737 3.82827L20.166 5.0291L17.9067 7.30554ZM15.3997 8.55759C15.3001 8.66572 15.1579 8.71694 15.0156 8.71694C14.8818 8.71694 14.7396 8.66572 14.6314 8.56612L12.8985 6.83602L13.6639 6.06488L15.3969 7.78644C15.6075 7.99417 15.616 8.34702 15.3997 8.55759ZM14.2814 11.5881C14.1733 11.6877 14.031 11.7475 13.8973 11.7475C13.755 11.7475 13.6156 11.6877 13.5131 11.5881L10.8468 8.9019L11.6123 8.13075L14.2786 10.817C14.4892 11.0247 14.4892 11.369 14.2814 11.5881ZM11.3733 12.7719C11.2737 12.88 11.1314 12.9397 10.9891 12.9397C10.8554 12.9397 10.7131 12.88 10.605 12.7804L8.79519 10.9678L9.56349 10.1966L11.3733 12.0007C11.581 12.217 11.5895 12.5613 11.3733 12.7719ZM10.2379 15.2162C10.1298 15.3243 9.99602 15.3755 9.85658 15.3755C9.72284 15.3755 9.58056 15.3243 9.47243 15.2162L7.02241 12.7548L7.78786 11.9808L10.2379 14.4507C10.457 14.6613 10.457 15.0056 10.2379 15.2162ZM7.88746 16.7186L7.2529 17.356L6.6781 16.7756L7.31266 16.1296C7.32119 16.1211 7.32119 16.1125 7.32973 16.104L7.91307 16.6987C7.90453 16.7101 7.89599 16.7101 7.88746 16.7186ZM21.8165 4.90389L19.116 2.18354C18.8656 1.93882 18.4758 1.93882 18.2254 2.18354C18.0347 2.37704 18.0006 2.67013 18.1172 2.90631L15.8351 5.2169L14.7168 4.09291C14.4749 3.83965 14.0822 3.83965 13.8318 4.09291C13.59 4.33763 13.59 4.73885 13.8318 4.98357L13.9912 5.14292L13.3737 5.76325V5.77179L6.72932 12.456L5.66223 13.5402C5.54556 13.6568 5.48012 13.8162 5.48012 13.9841C5.48012 14.152 5.54556 14.3113 5.66223 14.428L6.4533 15.2247C6.44476 15.2333 6.43622 15.2333 6.42769 15.2418L5.35207 16.3345C5.10166 16.5792 5.10166 16.9804 5.35207 17.2252L5.60248 17.4784L2.18781 20.9244C1.9374 21.1691 1.9374 21.5703 2.18781 21.815C2.30447 21.9402 2.46098 22 2.62887 22C2.78822 22 2.94473 21.9402 3.06993 21.815L6.48744 18.3634L6.81184 18.6906C6.93704 18.8158 7.09639 18.8756 7.2529 18.8756C7.41225 18.8756 7.5716 18.8158 7.69396 18.6906L8.76958 17.6065C8.77812 17.5979 8.77812 17.5894 8.78665 17.5808L9.72853 18.5284C9.85374 18.6451 10.0131 18.7134 10.1696 18.7134C10.3375 18.7134 10.494 18.6451 10.6107 18.5284L18.9453 10.1312L19.1274 10.3161C19.2526 10.4328 19.412 10.5011 19.5685 10.5011C19.7278 10.5011 19.8843 10.4328 20.0095 10.3161C20.2514 10.0629 20.2514 9.6702 20.0095 9.42548L18.7859 8.19051L21.0681 5.88845C21.1591 5.93967 21.2587 5.97098 21.3612 5.97098C21.5291 5.97098 21.6856 5.91122 21.8108 5.78601C22.0583 5.54983 22.0583 5.14861 21.8165 4.90389Z" fill="#86888C"/>
</svg>
