<svg width="40" height="40" viewBox="0 0 40 40" fill="none" xmlns="http://www.w3.org/2000/svg">
<path fill-rule="evenodd" clip-rule="evenodd" d="M15.2543 9.47687C14.6498 9.47687 14.158 8.98505 14.158 8.38053V6.52084C14.158 5.91632 14.6498 5.4245 15.2543 5.4245C15.8588 5.4245 16.3455 5.91632 16.3455 6.52084V8.38053C16.3506 8.98505 15.8588 9.47687 15.2543 9.47687ZM18.3794 9.47687C17.7749 9.47687 17.2882 8.98505 17.2882 8.38053V6.52084C17.2882 5.91632 17.78 5.4245 18.3794 5.4245C18.9839 5.4245 19.4757 5.91632 19.4757 6.52084V8.38053C19.4706 8.98505 18.9839 9.47687 18.3794 9.47687ZM21.4994 9.47687C20.8948 9.47687 20.4081 8.98505 20.4081 8.38053V6.52084C20.4081 5.91632 20.9 5.4245 21.4994 5.4245C22.1039 5.4245 22.5906 5.91632 22.5906 6.52084V8.38053C22.5957 8.98505 22.1039 9.47687 21.4994 9.47687ZM24.6244 9.47687C24.0199 9.47687 23.5332 8.98505 23.5332 8.38053V6.52084C23.5332 5.91632 24.025 5.4245 24.6244 5.4245C25.229 5.4245 25.7157 5.91632 25.7157 6.52084V8.38053C25.7157 8.98505 25.229 9.47687 24.6244 9.47687ZM10.2593 15.5477H29.7424C29.5068 13.9083 28.7229 12.812 27.396 12.2843C27.0169 12.5046 26.5815 12.6481 26.1101 12.6481H13.7737C13.3383 12.6481 12.9284 12.5149 12.5647 12.3253C12.1395 12.5149 11.7347 12.7352 11.4274 13.0425C10.7972 13.6471 10.4181 14.4821 10.2593 15.5477ZM24.3888 22.1873H21.7094V19.4925C21.7094 19.0263 21.3457 18.6165 20.9512 18.6165H18.7175C18.3128 18.6165 17.9439 19.0263 17.9439 19.4925V22.1873H15.2594C14.7932 22.1873 14.3834 22.5356 14.3834 22.9455V25.1843C14.3834 25.6095 14.7932 25.9579 15.2594 25.9579H17.9439L17.9593 28.6526C17.9593 29.1188 18.3128 29.5287 18.7175 29.5287H20.9512C21.3764 29.5287 21.7094 29.1188 21.7094 28.6526V25.9476H24.3888C24.855 25.9476 25.2648 25.5839 25.2648 25.1894V22.9506C25.2648 22.5561 24.855 22.1873 24.3888 22.1873ZM25.106 35.9069C27.4985 35.9069 28.9842 34.954 29.5375 33.0841H10.4488C10.6538 33.7552 10.9714 34.3136 11.412 34.7491C12.2163 35.5073 13.3946 35.9069 14.9264 35.9069H25.106ZM13.3639 4.69702V10.0507C13.3639 10.2709 13.5381 10.4605 13.7737 10.4605H26.1101C26.3304 10.4605 26.52 10.2709 26.52 10.0507V4.69702C26.52 4.47673 26.3304 4.28717 26.1101 4.28717H13.7737C13.5381 4.28717 13.3639 4.47673 13.3639 4.69702ZM28.6614 10.4451C30.8234 11.5107 32.0017 13.6778 32.0017 16.6594L31.9863 31.1373C31.9863 35.4971 29.4197 38.0996 25.106 38.0996H14.9264C12.7952 38.0996 11.1046 37.5002 9.89555 36.3321C8.64039 35.1026 8 33.3607 8 31.1424V16.6646C8 14.4411 8.64551 12.6993 9.91092 11.4749C10.29 11.0958 10.7409 10.8038 11.2224 10.5373C11.1968 10.3785 11.1763 10.2146 11.1763 10.0558V4.70214C11.1763 3.26768 12.3444 2.09961 13.7737 2.09961H26.1101C27.5395 2.09961 28.7076 3.26768 28.7076 4.70214V10.0558C28.7024 10.1839 28.6768 10.3119 28.6614 10.4451Z" fill="#86888C"/>
</svg>
