<svg width="24" height="24" viewBox="0 0 24 24" fill="none" xmlns="http://www.w3.org/2000/svg">
<path fill-rule="evenodd" clip-rule="evenodd" d="M9.03017 6.19809C8.69432 6.19809 8.42109 5.92485 8.42109 5.58901V4.55585C8.42109 4.22 8.69432 3.94677 9.03017 3.94677C9.36602 3.94677 9.6364 4.22 9.6364 4.55585V5.58901C9.63925 5.92485 9.36602 6.19809 9.03017 6.19809ZM10.7663 6.19809C10.4305 6.19809 10.1601 5.92485 10.1601 5.58901V4.55585C10.1601 4.22 10.4333 3.94677 10.7663 3.94677C11.1022 3.94677 11.3754 4.22 11.3754 4.55585V5.58901C11.3726 5.92485 11.1022 6.19809 10.7663 6.19809ZM12.4996 6.19809C12.1638 6.19809 11.8934 5.92485 11.8934 5.58901V4.55585C11.8934 4.22 12.1666 3.94677 12.4996 3.94677C12.8355 3.94677 13.1059 4.22 13.1059 4.55585V5.58901C13.1087 5.92485 12.8355 6.19809 12.4996 6.19809ZM14.2358 6.19809C13.9 6.19809 13.6296 5.92485 13.6296 5.58901V4.55585C13.6296 4.22 13.9028 3.94677 14.2358 3.94677C14.5717 3.94677 14.842 4.22 14.842 4.55585V5.58901C14.842 5.92485 14.5717 6.19809 14.2358 6.19809ZM6.25516 9.57079H17.0791C16.9482 8.66002 16.5127 8.05094 15.7756 7.75778C15.565 7.88017 15.323 7.95986 15.0612 7.95986H8.20763C7.9657 7.95986 7.73801 7.88586 7.53593 7.78055C7.2997 7.88586 7.07485 8.00825 6.90408 8.17902C6.55401 8.51486 6.34339 8.97879 6.25516 9.57079ZM14.1049 13.2594H12.6163V11.7623C12.6163 11.5033 12.4143 11.2756 12.1951 11.2756H10.9542C10.7293 11.2756 10.5244 11.5033 10.5244 11.7623V13.2594H9.03302C8.77401 13.2594 8.54632 13.453 8.54632 13.6807V14.9244C8.54632 15.1607 8.77401 15.3542 9.03302 15.3542H10.5244L10.5329 16.8513C10.5329 17.1103 10.7293 17.338 10.9542 17.338H12.1951C12.4313 17.338 12.6163 17.1103 12.6163 16.8513V15.3485H14.1049C14.3639 15.3485 14.5916 15.1464 14.5916 14.9273V13.6835C14.5916 13.4643 14.3639 13.2594 14.1049 13.2594ZM14.5033 20.8815C15.8325 20.8815 16.6579 20.3521 16.9653 19.3132H6.36047C6.47431 19.6861 6.65078 19.9963 6.89555 20.2382C7.34239 20.6595 7.99701 20.8815 8.84801 20.8815H14.5033ZM7.97993 3.54261V6.51686C7.97993 6.63924 8.0767 6.74455 8.20763 6.74455H15.0612C15.1836 6.74455 15.2889 6.63924 15.2889 6.51686V3.54261C15.2889 3.42023 15.1836 3.31492 15.0612 3.31492H8.20763C8.0767 3.31492 7.97993 3.42023 7.97993 3.54261ZM16.4786 6.73601C17.6797 7.32801 18.3343 8.53194 18.3343 10.1884L18.3257 18.2317C18.3257 20.6538 16.8998 22.0996 14.5033 22.0996H8.84801C7.66401 22.0996 6.72478 21.7666 6.05308 21.1177C5.35577 20.4346 5 19.4669 5 18.2345V10.1913C5 8.95602 5.35862 7.98832 6.06162 7.30809C6.27224 7.09747 6.5227 6.93524 6.79024 6.78724C6.77601 6.69901 6.76462 6.60793 6.76462 6.5197V3.54546C6.76462 2.74854 7.41355 2.09961 8.20763 2.09961H15.0612C15.8553 2.09961 16.5042 2.74854 16.5042 3.54546V6.5197C16.5014 6.59086 16.4871 6.66201 16.4786 6.73601Z" fill="#86888C"/>
</svg>
