<svg width="20" height="20" viewBox="0 0 20 20" fill="none" xmlns="http://www.w3.org/2000/svg">
<path fill-rule="evenodd" clip-rule="evenodd" d="M8.22414 5.37839C7.95546 5.37839 7.73687 5.15981 7.73687 4.89113V4.0646C7.73687 3.79592 7.95546 3.57734 8.22414 3.57734C8.49281 3.57734 8.70912 3.79592 8.70912 4.0646V4.89113C8.7114 5.15981 8.49281 5.37839 8.22414 5.37839ZM9.61306 5.37839C9.34439 5.37839 9.12808 5.15981 9.12808 4.89113V4.0646C9.12808 3.79592 9.34666 3.57734 9.61306 3.57734C9.88174 3.57734 10.1003 3.79592 10.1003 4.0646V4.89113C10.0981 5.15981 9.88174 5.37839 9.61306 5.37839ZM10.9997 5.37839C10.731 5.37839 10.5147 5.15981 10.5147 4.89113V4.0646C10.5147 3.79592 10.7333 3.57734 10.9997 3.57734C11.2684 3.57734 11.4847 3.79592 11.4847 4.0646V4.89113C11.487 5.15981 11.2684 5.37839 10.9997 5.37839ZM12.3886 5.37839C12.12 5.37839 11.9037 5.15981 11.9037 4.89113V4.0646C11.9037 3.79592 12.1222 3.57734 12.3886 3.57734C12.6573 3.57734 12.8736 3.79592 12.8736 4.0646V4.89113C12.8736 5.15981 12.6573 5.37839 12.3886 5.37839ZM6.00413 8.07656H14.6633C14.5586 7.34794 14.2102 6.86067 13.6205 6.62615C13.452 6.72406 13.2584 6.78781 13.049 6.78781H7.5661C7.37256 6.78781 7.19041 6.72861 7.02875 6.64436C6.83976 6.72861 6.65988 6.82652 6.52327 6.96314C6.2432 7.23181 6.07471 7.60295 6.00413 8.07656ZM12.2839 11.0275H11.0931V9.82979C11.0931 9.62259 10.9314 9.44044 10.7561 9.44044H9.76334C9.58346 9.44044 9.41952 9.62259 9.41952 9.82979V11.0275H8.22641C8.01921 11.0275 7.83706 11.1823 7.83706 11.3644V12.3595C7.83706 12.5484 8.01921 12.7033 8.22641 12.7033H9.41952L9.42636 13.9009C9.42636 14.1081 9.58346 14.2903 9.76334 14.2903H10.7561C10.9451 14.2903 11.0931 14.1081 11.0931 13.9009V12.6987H12.2839C12.4911 12.6987 12.6733 12.5371 12.6733 12.3617V11.3667C12.6733 11.1914 12.4911 11.0275 12.2839 11.0275ZM12.6027 17.1251C13.666 17.1251 14.3263 16.7016 14.5722 15.8705H6.08837C6.17945 16.1688 6.32062 16.417 6.51644 16.6105C6.87391 16.9475 7.39761 17.1251 8.07841 17.1251H12.6027ZM7.38395 3.25401V5.63341C7.38395 5.73132 7.46136 5.81556 7.5661 5.81556H13.049C13.1469 5.81556 13.2311 5.73132 13.2311 5.63341V3.25401C13.2311 3.15611 13.1469 3.07186 13.049 3.07186H7.5661C7.46136 3.07186 7.38395 3.15611 7.38395 3.25401ZM14.1829 5.80873C15.1437 6.28233 15.6674 7.24547 15.6674 8.57065L15.6606 15.0053C15.6606 16.9429 14.5199 18.0996 12.6027 18.0996H8.07841C7.13121 18.0996 6.37982 17.8332 5.84246 17.3141C5.28462 16.7676 5 15.9934 5 15.0075V8.57293C5 7.58474 5.28689 6.81058 5.8493 6.26639C6.01779 6.0979 6.21816 5.96812 6.43219 5.84972C6.42081 5.77913 6.4117 5.70627 6.4117 5.63568V3.25629C6.4117 2.61875 6.93084 2.09961 7.5661 2.09961H13.049C13.6842 2.09961 14.2034 2.61875 14.2034 3.25629V5.63568C14.2011 5.69261 14.1897 5.74953 14.1829 5.80873Z" fill="#86888C"/>
</svg>
