<svg width="28" height="28" viewBox="0 0 28 28" fill="none" xmlns="http://www.w3.org/2000/svg">
<path fill-rule="evenodd" clip-rule="evenodd" d="M7.54519 4.11895C7.27875 4.28291 6.4726 4.78504 6.4726 6.60913V20.2146H21.5571C21.5571 15.0464 21.5503 6.59546 21.5503 6.59546C21.5503 6.55106 21.5537 6.50665 21.5571 6.45883C21.5571 6.45883 21.6323 5.22228 20.932 4.44346C20.4846 3.94815 19.7501 3.69538 18.7459 3.69538L9.29412 3.69879C9.25996 3.69879 9.22922 3.69538 9.19506 3.69538H9.14382C8.9252 3.69196 8.17712 3.7227 7.54519 4.11895ZM22.9986 6.59205C22.9986 6.59205 23.0055 16.9661 23.0055 21.7552C23.0055 25.9328 19.7433 26.1992 18.9098 26.1992C18.7869 26.1992 18.7185 26.1958 18.7185 26.1958C18.7185 26.1958 14.1378 26.1992 9.3112 26.1992C4.48455 26.1992 5.01743 21.762 5.01743 21.762V6.61596C5.01743 2.43492 8.37866 2.19922 9.13699 2.19922C9.23263 2.19922 9.28729 2.20264 9.28729 2.20264C9.28729 2.20264 14.1003 2.19922 18.739 2.19922C23.3812 2.1958 22.9986 6.59205 22.9986 6.59205ZM14.0046 22.1992C13.3795 22.1992 13.0038 22.575 13.0038 23.2001C13.0038 23.5041 13.0892 23.75 13.2634 23.9277C13.441 24.1053 13.6972 24.2009 14.0046 24.2009C14.3121 24.2009 14.5682 24.1053 14.7459 23.9277C14.9201 23.75 15.0055 23.5041 15.0055 23.2001C15.0055 22.575 14.6297 22.1992 14.0046 22.1992Z" fill="#86888C"/>
</svg>
