<svg width="24" height="24" viewBox="0 0 24 24" fill="none" xmlns="http://www.w3.org/2000/svg">
<path d="M21.8874 3.36022C21.8817 2.61182 21.2789 2.00285 20.5318 2H12.1015C11.6939 2.09391 11.3204 2.30164 11.0289 2.60613L2.60702 11.0663C1.93066 11.5956 1.80048 12.5688 2.3127 13.2574L10.6865 21.6578C10.9072 21.8798 11.21 22.0021 11.5241 21.9936C11.6147 22.0021 11.7081 22.0021 11.8015 21.9936C12.2203 21.8912 12.5967 21.655 12.874 21.322L21.2874 12.9216C21.5987 12.62 21.8053 12.2301 21.8817 11.8033V3.36307H21.8874V3.36022ZM15.2483 6.72095C15.2795 6.2941 15.4776 5.89286 15.8002 5.61114C16.0832 5.28104 16.4879 5.08469 16.9208 5.06477C17.3623 5.09323 17.7755 5.29527 18.067 5.62821C18.4009 5.92132 18.6047 6.33394 18.6358 6.77786C18.6103 7.20471 18.415 7.60026 18.0924 7.87913C17.8066 8.20923 17.3991 8.40842 16.9633 8.43403C16.5218 8.40842 16.1115 8.20923 15.8172 7.87913C15.4861 7.59172 15.2823 7.18194 15.2483 6.74371V6.72095Z" fill="#86888C"/>
</svg>
