<svg width="20" height="20" viewBox="0 0 20 20" fill="none" xmlns="http://www.w3.org/2000/svg">
<path d="M17.9099 3.08818C17.9054 2.48945 17.4232 2.00228 16.8255 2H10.0812C9.75516 2.07513 9.45632 2.24131 9.22313 2.4849L2.48561 9.25302C1.94453 9.67645 1.84039 10.455 2.25016 11.0059L8.94919 17.7262C9.12578 17.9038 9.36802 18.0017 9.61932 17.9949C9.69177 18.0017 9.76648 18.0017 9.84119 17.9949C10.1763 17.9129 10.4774 17.724 10.6992 17.4576L17.4299 10.7373C17.679 10.496 17.8442 10.1841 17.9054 9.84264V3.09046H17.9099V3.08818ZM12.5987 5.77676C12.6236 5.43528 12.7821 5.11429 13.0401 4.88891C13.2665 4.62484 13.5903 4.46776 13.9367 4.45182C14.2898 4.47458 14.6204 4.63622 14.8536 4.90257C15.1207 5.13705 15.2837 5.46715 15.3086 5.82229C15.2882 6.16377 15.132 6.48021 14.8739 6.7033C14.6453 6.96738 14.3193 7.12674 13.9706 7.14723C13.6175 7.12674 13.2892 6.96738 13.0537 6.7033C12.7888 6.47338 12.6258 6.14556 12.5987 5.79497V5.77676Z" fill="#86888C"/>
</svg>
