<svg width="28" height="28" viewBox="0 0 28 28" fill="none" xmlns="http://www.w3.org/2000/svg">
<path d="M25.8649 3.63227C25.8581 2.73418 25.1347 2.00341 24.2382 2H14.1217C13.6327 2.11269 13.1845 2.36197 12.8347 2.72735L2.72842 12.8795C1.91679 13.5147 1.76058 14.6825 2.37524 15.5089L12.4238 25.5894C12.6887 25.8557 13.052 26.0026 13.429 25.9923C13.5376 26.0026 13.6497 26.0026 13.7618 25.9923C14.2644 25.8694 14.716 25.586 15.0488 25.1864L25.1449 15.106C25.5185 14.744 25.7664 14.2762 25.8581 13.764V3.63568H25.8649V3.63227ZM17.898 7.66514C17.9354 7.15292 18.1731 6.67143 18.5602 6.33337C18.8998 5.93725 19.3854 5.70163 19.905 5.67773C20.4348 5.71188 20.9306 5.95433 21.2804 6.35386C21.6811 6.70558 21.9256 7.20073 21.9629 7.73343C21.9324 8.24565 21.6981 8.72031 21.3109 9.05496C20.9679 9.45107 20.4789 9.69011 19.9559 9.72084C19.4262 9.69011 18.9338 9.45107 18.5806 9.05496C18.1833 8.71006 17.9388 8.21833 17.898 7.69246V7.66514Z" fill="#86888C"/>
</svg>
