<svg width="40" height="40" viewBox="0 0 40 40" fill="none" xmlns="http://www.w3.org/2000/svg">
<path fill-rule="evenodd" clip-rule="evenodd" d="M31.0489 21.1116C30.4496 21.1116 29.9528 20.6147 29.9528 20.0154C29.9528 19.4007 30.4496 18.9192 31.0489 18.9192H31.8941C31.3973 9.67331 24.2464 8.09562 21.0962 7.85999V8.95618C21.0962 9.57086 20.5993 10.0524 20 10.0524C19.3853 10.0524 18.9038 9.57086 18.9038 8.95618V7.82925C16.0507 7.90097 8.33125 9.08936 7.85999 18.9192H8.94593C9.56061 18.9192 10.0421 19.4007 10.0421 20.0154C10.0421 20.6147 9.56061 21.1116 8.94593 21.1116H7.87536C8.50541 30.5316 15.9789 31.8019 18.9038 31.9351V31.0592C18.9038 30.4599 19.3853 29.963 20 29.963C20.5993 29.963 21.0962 30.4599 21.0962 31.0592V31.9095C24.185 31.72 31.2948 30.2294 31.8788 21.1167H31.0489V21.1116ZM36.8987 18.9141C37.5134 18.9141 37.9949 19.3956 37.9949 20.0102C37.9949 20.6096 37.5134 21.1064 36.8987 21.1064H34.0763C33.4462 32.3705 24.1747 33.9072 21.1013 34.0968V36.9038C21.1013 37.5185 20.6044 38 20.0051 38C19.3904 38 18.9089 37.5185 18.9089 36.9038V34.1224C16.1326 34.0046 6.3745 32.7496 5.68298 21.1013H3.09619C2.49687 21.1013 2 20.6044 2 20.0051C2 19.3904 2.49687 18.9089 3.09619 18.9089H5.66761C6.17985 6.8099 16.2453 5.69835 18.9038 5.61127V3.09619C18.9038 2.49687 19.3853 2 20 2C20.5993 2 21.0962 2.49687 21.0962 3.09619V5.65737C24.2413 5.87763 33.5435 7.53216 34.0865 18.9089H36.8987V18.9141ZM23.7598 16.0046C23.7598 17.2903 23.4064 18.2738 22.72 18.9294C22.0489 19.5595 21.0962 19.8822 19.8668 19.8822C18.6374 19.8822 17.6847 19.5595 17.029 18.9294C16.3426 18.2686 15.9892 17.2903 15.9892 16.0046C15.9892 14.7342 16.3426 13.7507 17.029 13.095C17.6898 12.4496 18.6374 12.132 19.8668 12.132C21.0962 12.132 22.0489 12.4548 22.72 13.095C23.4115 13.7507 23.7598 14.7342 23.7598 16.0046ZM26.7718 25.8907V27.1918C26.7718 27.4274 26.5669 27.6272 26.3159 27.6272H13.4178C13.1821 27.6272 12.9772 27.4223 12.9772 27.1918V25.8907C12.9772 24.6614 13.3563 23.6113 14.0888 22.848C14.8776 22.0182 16.066 21.5931 17.4952 21.5931H22.2334C23.6676 21.5931 24.8509 22.0182 25.6397 22.848C26.3773 23.6113 26.7718 24.6665 26.7718 25.8907Z" fill="#86888C"/>
</svg>
