<svg width="20" height="20" viewBox="0 0 20 20" fill="none" xmlns="http://www.w3.org/2000/svg">
<path fill-rule="evenodd" clip-rule="evenodd" d="M14.9106 10.494C14.6443 10.494 14.4234 10.2732 14.4234 10.0068C14.4234 9.73364 14.6443 9.51964 14.9106 9.51964H15.2863C15.0655 5.41036 11.8873 4.70916 10.4872 4.60444V5.09163C10.4872 5.36483 10.2664 5.57883 10 5.57883C9.72681 5.57883 9.51281 5.36483 9.51281 5.09163V4.59078C8.24474 4.62265 4.81389 5.15083 4.60444 9.51964H5.08708C5.36027 9.51964 5.57427 9.73364 5.57427 10.0068C5.57427 10.2732 5.36027 10.494 5.08708 10.494H4.61127C4.89129 14.6807 8.21286 15.2453 9.51281 15.3045V14.9152C9.51281 14.6488 9.72681 14.428 10 14.428C10.2664 14.428 10.4872 14.6488 10.4872 14.9152V15.2931C11.86 15.2089 15.0199 14.5464 15.2795 10.4963H14.9106V10.494ZM17.5105 9.51736C17.7837 9.51736 17.9977 9.73136 17.9977 10.0046C17.9977 10.2709 17.7837 10.4917 17.5105 10.4917H16.2561C15.9761 15.498 11.8554 16.181 10.4895 16.2652V17.5128C10.4895 17.786 10.2686 18 10.0023 18C9.72908 18 9.51508 17.786 9.51508 17.5128V16.2766C8.28116 16.2242 3.94422 15.6665 3.63688 10.4895H2.48719C2.22083 10.4895 2 10.2686 2 10.0023C2 9.72908 2.22083 9.51508 2.48719 9.51508H3.63005C3.85771 4.13774 8.33125 3.64371 9.51281 3.60501V2.48719C9.51281 2.22083 9.72681 2 10 2C10.2664 2 10.4872 2.22083 10.4872 2.48719V3.6255C11.885 3.72339 16.0194 4.45874 16.2607 9.51508H17.5105V9.51736ZM11.671 8.22425C11.671 8.79567 11.5139 9.23278 11.2089 9.52419C10.9106 9.80421 10.4872 9.94764 9.94081 9.94764C9.39442 9.94764 8.97097 9.80421 8.67957 9.52419C8.3745 9.23051 8.21742 8.79567 8.21742 8.22425C8.21742 7.65965 8.3745 7.22254 8.67957 6.93113C8.97325 6.64428 9.39442 6.50313 9.94081 6.50313C10.4872 6.50313 10.9106 6.64656 11.2089 6.93113C11.5162 7.22254 11.671 7.65965 11.671 8.22425ZM13.0097 12.6181V13.1964C13.0097 13.3011 12.9186 13.3899 12.8071 13.3899H7.07456C6.96983 13.3899 6.87877 13.2988 6.87877 13.1964V12.6181C6.87877 12.0717 7.04724 11.605 7.37279 11.2658C7.72339 10.897 8.25156 10.708 8.88674 10.708H10.9926C11.6301 10.708 12.1559 10.897 12.5065 11.2658C12.8344 11.605 13.0097 12.074 13.0097 12.6181Z" fill="#86888C"/>
</svg>
