<svg width="28" height="28" viewBox="0 0 28 28" fill="none" xmlns="http://www.w3.org/2000/svg">
<path fill-rule="evenodd" clip-rule="evenodd" d="M9.92984 8.19212C9.78639 8.05891 9.71809 7.86765 9.71809 7.61491C9.71809 7.35876 9.78981 7.16408 9.92984 7.0343C10.0665 6.90793 10.2646 6.84303 10.5173 6.84303C10.77 6.84303 10.9681 6.90451 11.1047 7.0343C11.2448 7.1675 11.3199 7.36217 11.3199 7.61491C11.3199 7.86765 11.2448 8.06233 11.1047 8.19212C10.9681 8.31849 10.77 8.38338 10.5173 8.38338C10.2646 8.38338 10.0665 8.31849 9.92984 8.19212ZM23.4138 21.0169C23.4719 20.5319 23.284 20.1597 23.0416 19.9343C22.7991 19.7088 22.4063 19.5893 21.8803 19.5893C21.3543 19.5893 20.965 19.7054 20.7191 19.9343C20.4663 20.1699 20.3366 20.5524 20.3366 21.0784C20.3366 21.0955 20.3263 21.1126 20.3263 21.1331L20.1111 23.1789C20.1146 23.6263 20.2239 23.961 20.4424 24.1625C20.6542 24.3572 21.0026 24.4597 21.4705 24.4597C21.935 24.4597 22.2799 24.3572 22.4951 24.1625C22.5463 24.1113 22.5873 24.0498 22.6283 23.9883C22.6283 23.9849 23.3216 21.7752 23.4138 21.0169ZM7.58346 24.1591C7.80205 23.9576 7.90793 23.6263 7.91476 23.1755L7.69959 21.1296C7.69959 21.1126 7.68934 21.0955 7.68934 21.075C7.68934 20.5524 7.55956 20.1665 7.31023 19.9308C7.06091 19.702 6.67155 19.5859 6.14558 19.5859C5.61961 19.5859 5.23025 19.702 4.98435 19.9308C4.74185 20.1563 4.55742 20.5285 4.61207 21.0135C4.70087 21.7752 5.39761 23.9815 5.39761 23.9815C5.43518 24.0464 5.47616 24.1079 5.53081 24.1557C5.74598 24.3504 6.08752 24.4528 6.55543 24.4528C7.02334 24.4597 7.36829 24.3572 7.58346 24.1591ZM5.36687 14.6506C4.03487 16.1568 4.89555 17.2771 5.52739 17.8099L5.72549 17.9738C5.75964 18.0011 5.81429 18.0387 5.8621 18.0694C5.88943 18.0694 5.92017 18.0626 5.94749 18.0626C5.93041 17.8235 5.89967 17.5913 5.89967 17.342C5.89967 15.9553 6.15241 14.7531 6.59983 13.7114C6.15241 13.9744 5.66743 14.3159 5.36687 14.6506ZM7.48783 5.86623C7.80205 5.02263 8.26996 4.30881 8.89156 3.72136C8.40999 3.5301 7.93866 3.67696 7.49466 4.17902C6.95503 4.7938 6.96528 5.35734 7.48783 5.86623ZM14.0112 3.53693C12.2694 3.53693 10.9306 3.96385 10.0289 4.80404C9.09648 5.67155 8.62174 6.99673 8.62174 8.73858C8.62174 10.4804 9.09648 11.7988 10.0289 12.6629C10.7837 13.363 11.8664 13.7558 13.2189 13.8719V10.0535C13.031 9.97495 12.8603 9.87591 12.7168 9.74271C12.529 9.56852 12.4231 9.40458 12.3343 9.15184C12.3343 9.15184 12.2796 8.96741 12.2796 8.82738C12.2796 8.70784 12.3479 8.53707 12.3479 8.53707C12.4367 8.35605 12.529 8.22627 12.6724 8.08965C13.0037 7.78568 13.4545 7.62858 14.0078 7.61833C14.5645 7.62858 15.0154 7.78568 15.3432 8.08965C15.4901 8.22285 15.5823 8.35605 15.6677 8.53707C15.6677 8.53707 15.736 8.71126 15.736 8.82738C15.736 8.964 15.6848 9.15184 15.6848 9.15184C15.596 9.408 15.4901 9.56852 15.3023 9.74271C15.1588 9.87591 14.988 9.97837 14.8002 10.0535V13.8719C16.1527 13.7592 17.2354 13.3664 17.9936 12.6629C18.926 11.7988 19.3973 10.477 19.3973 8.73858C19.3973 6.99673 18.926 5.67155 17.9936 4.80404C17.0919 3.96385 15.7531 3.53693 14.0112 3.53693ZM20.5278 4.17902C20.0838 3.67696 19.6125 3.5301 19.1309 3.72136C19.7525 4.30881 20.2239 5.02263 20.5381 5.86623C21.0606 5.35734 21.0709 4.7938 20.5278 4.17902ZM22.6556 14.6506C22.3585 14.3159 21.8735 13.9744 21.4227 13.7148C21.8701 14.7565 22.1194 15.9587 22.1194 17.3454C22.1194 17.5947 22.0887 17.827 22.0716 18.066C22.0989 18.066 22.1296 18.0729 22.157 18.0729C22.2048 18.0421 22.2628 18.0011 22.2936 17.9772L22.4951 17.8133C23.1269 17.2771 23.9876 16.1568 22.6556 14.6506ZM24.155 18.8277C24.7049 19.34 24.9883 19.9991 25.0122 20.9008C25.0122 20.9384 25.0054 21.0818 24.9917 21.1672C24.9815 21.2628 24.9405 21.4951 24.9405 21.4951L24.1481 24.4904C24.1413 24.5245 24.1174 24.5519 24.1037 24.586C24.0969 24.6099 24.0969 24.6338 24.0832 24.6543C24.0764 24.668 24.0628 24.6782 24.0559 24.6919C24.032 24.7261 24.0115 24.7568 23.9808 24.7841C23.8715 24.9583 23.7554 25.1325 23.6051 25.2725C23.0825 25.7541 22.3653 26 21.4671 26C20.5688 26 19.8482 25.7541 19.329 25.2725C18.9875 24.9583 18.7621 24.5519 18.6323 24.084C17.4198 24.75 15.9136 25.0813 14.0693 25.0813C14.0454 25.0813 14.0317 25.0778 14.0078 25.0778C13.9873 25.0778 13.9668 25.0813 13.9463 25.0813C12.102 25.0813 10.5993 24.75 9.38338 24.084C9.25359 24.5553 9.03159 24.9583 8.69005 25.2725C8.16408 25.7541 7.44343 26 6.55201 26C5.65376 26 4.93653 25.7541 4.41397 25.2725C4.26028 25.1325 4.14757 24.9583 4.03487 24.7841C4.01096 24.7568 3.98363 24.7261 3.96314 24.6919C3.9529 24.6782 3.93923 24.668 3.9324 24.6543C3.92216 24.6338 3.92216 24.6065 3.91191 24.586C3.89825 24.5519 3.87776 24.5245 3.86751 24.4904L3.07514 21.4951C3.07514 21.4951 3.03415 21.2663 3.02049 21.1672C3.00683 21.0818 3 20.9418 3 20.9008C3.02732 20.0026 3.30397 19.3434 3.85726 18.8277C3.93582 18.7559 4.02462 18.7013 4.11342 18.6398C2.99658 17.4683 2.4228 15.5865 4.14074 13.6499C4.87847 12.8166 6.47346 11.8739 7.36146 11.7441C7.42636 11.7339 7.45368 11.71 7.5254 11.6963C7.51174 11.669 7.5254 11.6963 7.51516 11.669C7.18728 10.8186 7.01309 9.84517 7.01309 8.73858C7.01309 8.31165 7.05749 7.91205 7.10872 7.5227C7.08482 7.50904 7.05408 7.51587 7.03017 7.50221C6.84915 7.3895 6.75011 7.31777 6.68863 7.26654L6.51786 7.12993C5.53081 6.29657 4.87505 4.76306 6.27537 3.18514C7.66543 1.61748 9.31849 1.98292 10.326 2.7753C11.3506 2.27665 12.5699 2 14.0112 2C15.4525 2 16.6718 2.27665 17.6965 2.7753C18.704 1.98292 20.3605 1.61748 21.7471 3.18514C23.1474 4.76306 22.4917 6.29657 21.5012 7.12993L21.3339 7.26654C21.269 7.31777 21.1699 7.3895 20.9889 7.50221C20.965 7.51587 20.9377 7.51245 20.9069 7.5227C20.9582 7.91547 21.0026 8.31165 21.0026 8.73858C21.0026 9.84517 20.8284 10.8186 20.5005 11.669L20.4902 11.6963C20.5586 11.71 20.5859 11.7339 20.6508 11.7441C21.5388 11.8739 23.1338 12.8166 23.8749 13.6499C25.5894 15.5865 25.0157 17.4649 23.8988 18.6398C23.9842 18.6979 24.0764 18.7559 24.155 18.8277ZM17.5052 8.38338C17.2525 8.38338 17.0544 8.31849 16.9177 8.19212C16.7743 8.06233 16.7026 7.86765 16.7026 7.61491C16.7026 7.36217 16.7743 7.16408 16.9177 7.03771C17.0544 6.90793 17.2559 6.84303 17.5052 6.84303C17.7579 6.84303 17.956 6.90793 18.0926 7.03771C18.2361 7.1675 18.3044 7.36217 18.3044 7.61491C18.3044 7.86765 18.2327 8.06233 18.0926 8.19212C17.956 8.31849 17.7579 8.38338 17.5052 8.38338Z" fill="#86888C"/>
</svg>
