<svg width="24" height="24" viewBox="0 0 24 24" fill="none" xmlns="http://www.w3.org/2000/svg">
<path fill-rule="evenodd" clip-rule="evenodd" d="M11.4049 13.4445C11.4554 13.3569 11.4899 13.2693 11.5165 13.1843C10.7676 13.6782 9.42917 14.3209 7.52247 14.2571C7.93674 14.5678 8.65109 14.8175 9.80361 14.4988C10.6029 14.2757 11.142 13.9199 11.4049 13.4445ZM12.0316 11.9521C12.1697 11.9866 12.2813 12.0928 12.3211 12.2283C12.3317 12.2601 12.5468 13.0303 12.1007 13.8322C11.7289 14.5015 11.0278 14.9848 10.0187 15.2689C9.56195 15.3964 9.15565 15.4521 8.79449 15.4521C6.89309 15.4521 6.27966 13.9544 6.27169 13.9358C6.21858 13.803 6.24248 13.6543 6.32746 13.5428C6.41509 13.4313 6.55318 13.3702 6.69393 13.3914C9.96294 13.819 11.6333 12.0849 11.6492 12.0663C11.7501 11.9601 11.8935 11.9202 12.0316 11.9521ZM6.07518 11.3891C6.19999 11.3891 6.33542 11.3811 6.46555 11.3652C6.90106 11.3174 7.31267 11.166 7.31267 11.166C7.31267 11.166 7.60213 11.012 7.34454 10.7969C7.34454 10.7969 7.07367 10.4836 6.62223 10.4836C6.35932 10.4836 6.038 10.5871 5.66887 10.9191C5.27585 11.2696 5.6078 11.3891 6.07518 11.3891ZM7.5862 11.9176C7.53574 11.9362 7.07102 12.1035 6.55584 12.1619C6.38853 12.1805 6.22654 12.1911 6.07518 12.1911C5.3741 12.1911 4.93062 11.9627 4.76067 11.5139C4.68631 11.3227 4.58009 10.8288 5.13776 10.3242C5.61045 9.89934 6.1097 9.68424 6.62223 9.68424C7.19052 9.68424 7.65524 9.96573 7.90487 10.226C8.15449 10.4597 8.27665 10.7677 8.24478 11.0811C8.20229 11.4741 7.92611 11.7503 7.6818 11.8777L7.5862 11.9176ZM9.47431 9.97369C9.28577 10.3056 9.40793 10.4251 9.65755 10.4251C9.85937 10.4251 10.1462 10.3481 10.4117 10.2393C10.826 10.0746 11.1792 9.80639 11.1792 9.80639C11.1792 9.80639 11.4155 9.57005 11.0862 9.4054C11.0862 9.4054 10.8393 9.23279 10.5073 9.23279C10.1966 9.23279 9.80892 9.38416 9.47431 9.97369ZM9.65755 11.2245C9.06801 11.2245 8.80245 10.8792 8.71748 10.7305C8.58204 10.4968 8.48378 10.1091 8.78386 9.57801C9.34685 8.58217 10.109 8.43346 10.51 8.43346C10.9827 8.43346 11.3438 8.62466 11.4899 8.7123C11.9042 8.93802 12.0184 9.27793 12.0476 9.46382C12.1272 9.94714 11.8351 10.2817 11.7448 10.372C11.7183 10.3986 11.6891 10.4225 11.6599 10.4464C11.6147 10.4809 11.2058 10.7836 10.7092 10.9828C10.4303 11.0917 10.024 11.2245 9.65755 11.2245ZM19.7514 13.4259C19.8736 13.2029 19.8576 12.9479 19.7063 12.7196C19.5389 12.4328 19.0822 11.9999 18.2908 11.9999C18.0518 11.9999 17.7969 12.0397 17.534 12.1194C16.8568 12.3239 16.8329 12.7647 16.8409 12.8948C16.8807 13.5295 17.7597 13.7048 18.0917 13.7712C18.498 13.8508 18.8963 13.8588 18.9388 13.8588H18.9468C18.9733 13.8588 18.9972 13.8588 19.0238 13.8561C19.3451 13.8269 19.6186 13.6649 19.7514 13.4259ZM17.2791 17.3429C17.295 17.319 17.6535 16.7428 17.3932 16.0364C17.1994 15.5026 16.7161 15.0512 15.9592 14.6953C15.051 14.2651 14.2915 14.2412 13.71 14.3899C13.5373 14.8785 13.2665 15.2795 12.9133 15.6168C15.5689 15.816 16.5594 17.2659 16.5992 17.3243C16.6603 17.4199 16.7692 17.4837 16.894 17.5023C16.9099 17.5049 16.9259 17.5076 16.9418 17.5076C17.0825 17.5076 17.2127 17.4465 17.2791 17.3429ZM9.9178 16.2143C12.584 15.4681 13.71 14.4802 12.892 10.8925C12.3901 8.69371 11.5696 7.06584 11.0889 6.24261C10.5073 7.26501 9.46369 8.05902 8.02171 8.56358C7.24097 8.83445 5.49892 8.93005 3.80997 8.18384C3.8498 9.27793 4.00648 11.5219 4.62789 13.1896C5.68215 16.0098 7.31268 16.9393 9.9178 16.2143ZM13.8879 10.6243C13.7949 10.6217 13.7259 10.6376 13.6489 10.6456C13.6542 10.6695 13.6622 10.6907 13.6648 10.7173C13.8135 11.3652 13.8932 11.9335 13.9251 12.4513C14.3287 12.6505 14.7297 12.778 14.7775 12.7913C14.8014 12.7992 14.8439 12.8098 14.8704 12.8152C14.8704 12.8152 14.9448 12.8311 15.0537 12.8391C15.375 12.8603 15.6698 12.77 15.8636 12.5974C15.9725 12.4991 16.1398 12.2894 16.0708 11.9654C16.0123 11.5166 15.545 10.7252 14.1163 10.6349C14.0472 10.627 13.9702 10.6243 13.8879 10.6243ZM21.443 9.70283C21.5784 9.77187 21.6634 9.90996 21.6634 10.064C21.6634 10.1649 21.6342 12.5841 20.3038 15.6354C19.2229 18.1183 18.0173 19 16.5222 19C15.7733 19 14.9528 18.7796 14.0393 18.4264C12.8363 17.9643 12.013 17.3296 11.5005 16.5091C11.0863 16.687 10.6295 16.8437 10.1302 16.9844C9.49821 17.1623 8.90602 17.25 8.35897 17.25C6.3009 17.25 4.82971 16.0019 3.88433 13.4711C2.98409 11.0545 3.00002 7.666 3.00002 7.5226C3.00267 7.3792 3.07703 7.24907 3.19919 7.17737C3.32134 7.10567 3.47271 7.10567 3.59487 7.17737C5.29178 8.15728 7.1321 8.02184 7.75881 7.80409C8.81839 7.43496 10.1807 6.69406 10.6507 5.27332C10.6985 5.12992 10.8207 5.02635 10.9667 5.00511C11.1128 4.98121 11.2615 5.04229 11.3492 5.16444C11.397 5.22818 12.2494 6.41522 12.9983 8.4547C13.4949 7.66334 13.8905 7.12957 13.9118 7.10302C14.0074 6.97555 14.1747 6.91181 14.3261 6.95696C14.4827 6.99679 14.5996 7.12426 14.6235 7.28359C14.7881 8.36176 16.3177 9.71345 17.2286 10.064C18.1687 10.4251 20.0116 10.5154 21.0234 9.74266C21.1456 9.64971 21.3076 9.63644 21.443 9.70283Z" fill="#86888C"/>
</svg>
