<svg width="40" height="40" viewBox="0 0 40 40" fill="none" xmlns="http://www.w3.org/2000/svg">
<path fill-rule="evenodd" clip-rule="evenodd" d="M34.0858 18.3534C34.5262 17.9488 34.7465 17.37 34.7465 16.6376C34.7465 15.8489 34.3367 15.1677 33.5326 14.6197C33.2714 14.4405 33.0973 14.1536 33.0563 13.8361C33.0154 13.5186 33.1076 13.201 33.3175 12.9603C33.6248 12.6018 33.7836 12.0333 33.7836 11.3111C33.7836 10.2817 32.8771 9.68758 32.1191 9.37004C31.822 9.24712 31.5967 9.0064 31.4942 8.70935C31.3867 8.40717 31.4123 8.07938 31.5659 7.79769C31.7196 7.52113 31.8681 7.07554 31.7145 6.07682C31.2586 4.863 30.8694 4.25352 24.58 4.25352C20.7746 4.25352 19.2638 4.6991 17.927 5.08835L17.5326 5.20102C16.7849 5.41613 16.1908 5.58515 15.5915 5.58515L11.064 5.64661V19.4033C11.064 19.4341 11.0589 19.4597 11.0538 19.4904V19.5058C12.4417 20.2228 15.3816 22.1229 15.6991 25.4469C15.9142 27.6594 15.8835 30.3739 15.8374 32.4891C15.8374 32.5301 15.8323 32.5711 15.8271 32.612C15.8169 32.7913 15.8015 32.9398 15.7862 33.0935L15.7554 33.4417C15.7042 34.1895 15.8528 34.758 16.201 35.1319C16.6773 35.6389 17.4866 35.7465 18.0807 35.7465C19.7093 35.7465 20.4008 35.0346 20.4008 33.2522L20.3905 33.032V32.9705C20.3905 29.6364 20.3752 25.2522 20.3752 25.2522C20.3752 24.6428 20.8566 24.1408 21.4661 24.1255L26.3777 23.977H32.5851C33.2407 23.9411 34.7618 23.6697 34.7618 21.9334C34.7618 21.0627 34.5365 20.3969 34.1063 20.0128C33.8707 19.8028 33.7375 19.5006 33.7375 19.1831C33.7221 18.8707 33.8553 18.5685 34.0858 18.3534ZM5.98848 15.4802C5.16901 15.4802 4.59539 16.0538 4.59539 16.8732C4.59539 17.6927 5.16901 18.2663 5.98848 18.2663C6.80794 18.2663 7.37644 17.6978 7.37644 16.8732C7.37644 16.0538 6.80794 15.4802 5.98848 15.4802ZM36.2983 19.1831C36.6876 19.8131 36.9949 20.7042 36.9949 21.9334C36.9949 24.7298 34.8387 26.1024 32.6364 26.2254H26.3982L22.6133 26.338C22.6184 27.8489 22.6236 30.6402 22.6236 32.9449L22.6338 33.1857C22.6338 33.1908 22.6389 33.3598 22.6389 33.3649C22.6389 36.2638 20.9334 38 18.0704 38C16.5749 38 15.356 37.5391 14.5467 36.6684C14.009 36.0845 13.3841 35.0243 13.507 33.2881L13.5429 32.8681C13.5583 32.7196 13.5736 32.5813 13.5787 32.3969C13.5787 32.3713 13.5839 32.3457 13.5839 32.3201C13.63 30.2868 13.6556 27.7209 13.4558 25.6671C13.2407 23.4136 11.0128 22.0256 10.009 21.5083C9.55826 21.8566 9 22.0717 8.39052 22.0717H3.66325C2.19334 22.0717 1 20.8784 1 19.4033V5.51344C1 4.04353 2.19334 2.85019 3.66325 2.85019H8.40077C9.04609 2.85019 9.63508 3.09091 10.096 3.47503C10.2138 3.44942 10.3214 3.40333 10.4443 3.40333L15.5762 3.33675C15.8732 3.33675 16.3342 3.20871 16.9129 3.03457L17.2971 2.92702C18.7055 2.51729 20.4571 2 24.58 2C31.1818 2 32.831 2.60435 33.8604 5.39565C33.886 5.46223 33.9014 5.52881 33.9168 5.59539C34.0551 6.43022 34.0653 7.14725 33.9373 7.78233C35.2842 8.6274 36.0371 9.87196 36.0371 11.3111C36.0371 12.2074 35.863 12.9091 35.6325 13.4469C36.5237 14.3329 37 15.4392 37 16.6428C36.9949 17.7439 36.6876 18.5736 36.2983 19.1831Z" fill="#86888C"/>
</svg>
