<svg width="20" height="20" viewBox="0 0 20 20" fill="none" xmlns="http://www.w3.org/2000/svg">
<path fill-rule="evenodd" clip-rule="evenodd" d="M16.7048 9.26817C16.9006 9.08835 16.9984 8.83113 16.9984 8.50562C16.9984 8.15507 16.8163 7.85233 16.459 7.60876C16.3429 7.52909 16.2655 7.40162 16.2473 7.26049C16.2291 7.11936 16.27 6.97823 16.3634 6.87125C16.4999 6.71191 16.5705 6.45924 16.5705 6.13828C16.5705 5.68075 16.1676 5.4167 15.8307 5.27557C15.6987 5.22094 15.5985 5.11396 15.553 4.98193C15.5052 4.84763 15.5166 4.70195 15.5849 4.57675C15.6532 4.45383 15.7192 4.2558 15.6509 3.81192C15.4483 3.27244 15.2753 3.00156 12.48 3.00156C10.7887 3.00156 10.1172 3.1996 9.52312 3.3726L9.34784 3.42268C9.01551 3.51828 8.75146 3.5934 8.48513 3.5934L6.4729 3.62071V9.73481C6.4729 9.74847 6.47062 9.75985 6.46835 9.77351V9.78034C7.08522 10.099 8.39181 10.9435 8.53293 12.4208C8.62854 13.4042 8.61488 14.6106 8.59439 15.5507C8.59439 15.5689 8.59212 15.5871 8.58984 15.6053C8.58529 15.685 8.57846 15.751 8.57163 15.8193L8.55797 15.9741C8.53521 16.3064 8.60122 16.5591 8.75601 16.7253C8.9677 16.9506 9.32736 16.9984 9.59141 16.9984C10.3153 16.9984 10.6226 16.682 10.6226 15.8899L10.618 15.792V15.7647C10.618 14.2828 10.6112 12.3343 10.6112 12.3343C10.6112 12.0635 10.8252 11.8404 11.096 11.8335L13.279 11.7675H16.0378C16.3292 11.7516 17.0053 11.631 17.0053 10.8593C17.0053 10.4723 16.9051 10.1764 16.7139 10.0057C16.6092 9.91236 16.55 9.77806 16.55 9.63693C16.5432 9.49808 16.6024 9.36378 16.7048 9.26817ZM4.2171 7.99118C3.8529 7.99118 3.59795 8.24612 3.59795 8.61033C3.59795 8.97453 3.8529 9.22948 4.2171 9.22948C4.58131 9.22948 4.83397 8.97681 4.83397 8.61033C4.83397 8.24612 4.58131 7.99118 4.2171 7.99118ZM17.6881 9.63693C17.8611 9.91692 17.9977 10.313 17.9977 10.8593C17.9977 12.1021 17.0394 12.7122 16.0606 12.7668H13.2881L11.6059 12.8169C11.6082 13.4884 11.6105 14.729 11.6105 15.7533L11.615 15.8603C11.615 15.8626 11.6173 15.9377 11.6173 15.94C11.6173 17.2283 10.8593 18 9.58685 18C8.92218 18 8.38042 17.7951 8.02077 17.4082C7.78176 17.1487 7.50405 16.6775 7.55869 15.9058L7.57462 15.7192C7.58145 15.6532 7.58828 15.5917 7.59055 15.5097C7.59055 15.4984 7.59283 15.487 7.59283 15.4756C7.61332 14.5719 7.6247 13.4315 7.53592 12.5187C7.44032 11.5171 6.45013 10.9003 6.00398 10.6704C5.80367 10.8252 5.55556 10.9208 5.28468 10.9208H3.18367C2.53037 10.9208 2 10.3904 2 9.73481V3.56153C2 2.90824 2.53037 2.37786 3.18367 2.37786H5.28923C5.57604 2.37786 5.83781 2.48485 6.04268 2.65557C6.09503 2.64419 6.14284 2.6237 6.19747 2.6237L8.4783 2.59411C8.61033 2.59411 8.81519 2.5372 9.07241 2.45981L9.24314 2.41201C9.86911 2.2299 10.6476 2 12.48 2C15.4141 2 16.1471 2.2686 16.6046 3.50918C16.616 3.53877 16.6228 3.56836 16.6297 3.59795C16.6911 3.96899 16.6957 4.28767 16.6388 4.56992C17.2374 4.94551 17.5721 5.49865 17.5721 6.13828C17.5721 6.53663 17.4947 6.84848 17.3922 7.08749C17.7883 7.48129 18 7.97297 18 8.5079C17.9977 8.9973 17.8611 9.36605 17.6881 9.63693Z" fill="#86888C"/>
</svg>
