<svg width="20" height="20" viewBox="0 0 20 20" fill="none" xmlns="http://www.w3.org/2000/svg">
<path fill-rule="evenodd" clip-rule="evenodd" d="M16.7069 10.7331C16.9027 10.9129 17.0006 11.1702 17.0006 11.4957C17.0006 11.8463 16.8184 12.1491 16.461 12.3927C16.3449 12.4724 16.2675 12.5999 16.2493 12.741C16.2311 12.8822 16.2721 13.0233 16.3654 13.1303C16.502 13.2897 16.5726 13.5424 16.5726 13.8634C16.5726 14.321 16.1696 14.5851 15.8327 14.7262C15.7006 14.7809 15.6005 14.8879 15.5549 15.0199C15.5071 15.1542 15.5185 15.2999 15.5868 15.4252C15.6551 15.5481 15.7211 15.7462 15.6528 16.1901C15.4502 16.7297 15.2772 17.0006 12.4815 17.0006C10.79 17.0006 10.1184 16.8025 9.52419 16.6295L9.34889 16.5794C9.01651 16.4838 8.75242 16.4087 8.48606 16.4087L6.47353 16.3813V10.2686C6.47353 10.255 6.47126 10.2436 6.46898 10.2299V10.2231C7.08594 9.90438 8.39271 9.05976 8.53386 7.58224C8.62948 6.59875 8.61582 5.39215 8.59533 4.45191C8.59533 4.43369 8.59306 4.41548 8.59078 4.39727C8.58623 4.31759 8.5794 4.25157 8.57257 4.18327L8.55891 4.02846C8.53614 3.69607 8.60216 3.44337 8.75697 3.27718C8.9687 3.05179 9.3284 3.00398 9.59249 3.00398C10.3164 3.00398 10.6238 3.32043 10.6238 4.11269L10.6192 4.21059V4.23791C10.6192 5.71998 10.6124 7.66875 10.6124 7.66875C10.6124 7.93967 10.8264 8.16278 11.0973 8.16961L13.2806 8.23563H16.0398C16.3312 8.25157 17.0074 8.37223 17.0074 9.144C17.0074 9.53102 16.9072 9.82698 16.716 9.99772C16.6113 10.0911 16.5521 10.2254 16.5521 10.3665C16.5452 10.5031 16.6044 10.6375 16.7069 10.7331ZM4.21742 12.0102C3.85316 12.0102 3.59818 11.7553 3.59818 11.391C3.59818 11.0268 3.85316 10.7718 4.21742 10.7718C4.58167 10.7718 4.83438 11.0245 4.83438 11.391C4.83438 11.7553 4.58167 12.0102 4.21742 12.0102ZM17.6904 10.3643C17.8634 10.0842 18 9.68811 18 9.14172C18 7.89869 17.0415 7.28856 16.0626 7.23392H13.2897L11.6073 7.18384C11.6096 6.51224 11.6118 5.27149 11.6118 4.24701L11.6164 4.14001C11.6164 4.13773 11.6187 4.06261 11.6187 4.06033C11.6187 2.77177 10.8606 2 9.58793 2C8.92316 2 8.38133 2.20489 8.02163 2.59192C7.78258 2.85145 7.50484 3.32271 7.55948 4.09448L7.57541 4.28116C7.58224 4.34718 7.58907 4.40865 7.59135 4.49061C7.59135 4.50199 7.59363 4.51338 7.59363 4.52476C7.61412 5.42857 7.6255 6.56915 7.53671 7.48207C7.44109 8.48378 6.45077 9.10074 6.00455 9.33068C5.80421 9.17587 5.55606 9.08025 5.28515 9.08025H3.18384C2.53045 9.08025 2 9.6107 2 10.2664V16.4382C2 17.0916 2.53045 17.6221 3.18384 17.6221H5.2897C5.57655 17.6221 5.83836 17.5151 6.04326 17.3443C6.09562 17.3557 6.14343 17.3762 6.19806 17.3762L8.47923 17.4058C8.61127 17.4058 8.81616 17.4627 9.07342 17.5401L9.24417 17.5879C9.87023 17.7701 10.6488 18 12.4815 18C15.4161 18 16.1491 17.7314 16.6067 16.4906C16.6181 16.461 16.6249 16.4314 16.6318 16.4018C16.6932 16.0307 16.6978 15.712 16.6409 15.4297C17.2396 15.0541 17.5743 14.5009 17.5743 13.8611C17.5743 13.4627 17.4969 13.1508 17.3944 12.9118C17.7906 12.5179 18.0023 12.0262 18.0023 11.4912C18 11.004 17.8634 10.6352 17.6904 10.3643Z" fill="#86888C"/>
</svg>
