<svg width="20" height="20" viewBox="0 0 20 20" fill="none" xmlns="http://www.w3.org/2000/svg">
<path fill-rule="evenodd" clip-rule="evenodd" d="M4.66092 8.86625L8.21471 14.9789L8.21016 6.90609L4.66092 8.86625ZM14.6279 2H16.4469C17.3007 2 17.995 2.69209 17.995 3.54354V15.1246C17.995 15.9761 17.3007 16.6682 16.4469 16.6682H14.6143C14.2227 16.6682 13.8857 16.3882 13.8106 16.0057C13.7446 15.6642 13.4418 15.4183 13.0935 15.4183C12.7452 15.4183 12.4424 15.6642 12.3763 16.0057C12.3012 16.3904 11.962 16.6682 11.5727 16.6682H10.9057C10.8396 16.8139 10.744 16.9414 10.6029 17.0211L9.17771 17.8201C8.96371 17.9408 8.72695 18 8.4879 18C8.36041 18 8.23065 17.9841 8.10316 17.9476C7.7389 17.8452 7.43611 17.6084 7.2517 17.2806L2.1817 8.28799C1.99729 7.96016 1.95176 7.57769 2.05193 7.21571C2.15438 6.85373 2.39115 6.55094 2.72125 6.36653L4.13275 5.57655C4.46741 5.38987 4.88175 5.4741 5.11852 5.77917C5.30293 6.01821 5.64214 6.08879 5.90623 5.93853C6.17032 5.79055 6.2887 5.465 6.17942 5.18497C6.04055 4.82527 6.1817 4.42686 6.51864 4.24018L7.93013 3.4502C8.01892 3.40011 8.11682 3.37052 8.21471 3.34092C8.31488 2.58736 8.95916 2.00228 9.74231 2.00228H11.5613C11.9711 2.00228 12.3126 2.29824 12.3718 2.70575C12.4242 3.0609 12.7361 3.32954 13.0958 3.32954C13.4577 3.32954 13.7696 3.0609 13.822 2.70575C13.8766 2.29596 14.2181 2 14.6279 2ZM10.2386 4.96414C10.0519 4.96414 9.90168 5.1144 9.90168 5.30108V13.4058C9.90168 13.5925 10.0519 13.7427 10.2386 13.7427H16.044C16.2306 13.7427 16.3809 13.5925 16.3809 13.4058V5.2988C16.3809 5.11212 16.2306 4.96187 16.044 4.96187H10.2386V4.96414Z" fill="#86888C"/>
</svg>
