<svg width="40" height="40" viewBox="0 0 40 40" fill="none" xmlns="http://www.w3.org/2000/svg">
<path fill-rule="evenodd" clip-rule="evenodd" d="M8.98708 17.4491L16.9831 31.2026L16.9729 13.0387L8.98708 17.4491ZM31.4128 2H35.5056C37.4265 2 38.9888 3.5572 38.9888 5.47297V31.5304C38.9888 33.4462 37.4265 35.0034 35.5056 35.0034H31.3821C30.501 35.0034 29.7429 34.3734 29.5739 33.5128C29.4253 32.7445 28.7441 32.1912 27.9603 32.1912C27.1766 32.1912 26.4953 32.7445 26.3468 33.5128C26.1777 34.3785 25.4145 35.0034 24.5386 35.0034H23.0377C22.8892 35.3312 22.674 35.6181 22.3565 35.7974L19.1499 37.5953C18.6684 37.8668 18.1356 38 17.5978 38C17.3109 38 17.019 37.9641 16.7321 37.8822C15.9125 37.6517 15.2312 37.119 14.8163 36.3813L3.40882 16.148C2.99391 15.4104 2.89146 14.5498 3.11685 13.7353C3.34735 12.9209 3.88008 12.2396 4.62282 11.8247L7.79869 10.0472C8.55168 9.62721 9.48395 9.81673 10.0167 10.5031C10.4316 11.041 11.1948 11.1998 11.789 10.8617C12.3832 10.5287 12.6496 9.79624 12.4037 9.16619C12.0912 8.35686 12.4088 7.46044 13.1669 7.04041L16.3428 5.26295C16.5426 5.15026 16.7628 5.08367 16.9831 5.01707C17.2085 3.32157 18.6581 2.00512 20.4202 2.00512H24.513C25.435 2.00512 26.2034 2.67103 26.3365 3.58793C26.4544 4.38702 27.1561 4.99146 27.9655 4.99146C28.7799 4.99146 29.4817 4.38702 29.5995 3.58793C29.7224 2.66591 30.4908 2 31.4128 2ZM21.5369 8.66932C21.1168 8.66932 20.7788 9.0074 20.7788 9.42743V27.6631C20.7788 28.0831 21.1168 28.4212 21.5369 28.4212H34.5989C35.0189 28.4212 35.357 28.0831 35.357 27.6631V9.42231C35.357 9.00228 35.0189 8.6642 34.5989 8.6642H21.5369V8.66932Z" fill="#86888C"/>
</svg>
