<svg width="24" height="24" viewBox="0 0 24 24" fill="none" xmlns="http://www.w3.org/2000/svg">
<path d="M5.25172 2C4.49372 2 4 2.39538 4 3.24964C4 3.65945 4.11326 3.96248 4.31656 4.17027C4.53438 4.3925 4.85675 4.49928 5.25172 4.49928C5.6467 4.49928 5.96907 4.3925 6.18689 4.17027C6.39018 3.96537 6.50345 3.65945 6.50345 3.24964C6.50345 2.39538 6.00973 2 5.25172 2ZM8.93429 2C8.17628 2 7.68257 2.39538 7.68257 3.24964C7.68257 3.65945 7.79583 3.96248 7.99913 4.17027C8.21694 4.3925 8.53931 4.49928 8.93429 4.49928C9.32926 4.49928 9.65163 4.3925 9.86945 4.17027C10.0727 3.96537 10.186 3.65945 10.186 3.24964C10.186 2.39538 9.6952 2 8.93429 2ZM12.6139 2C11.8559 2 11.3622 2.39538 11.3622 3.24964C11.3622 3.65945 11.4755 3.96248 11.6788 4.17027C11.8966 4.3925 12.219 4.49928 12.6139 4.49928C13.0089 4.49928 13.3313 4.3925 13.5491 4.17027C13.7524 3.96537 13.8657 3.65945 13.8657 3.24964C13.8657 2.39538 13.372 2 12.6139 2ZM5.25172 5.37662C4.49372 5.37662 4 5.77489 4 6.62626C4 7.03607 4.11326 7.34199 4.31656 7.5469C4.53438 7.76912 4.85675 7.8759 5.25172 7.8759C5.6467 7.8759 5.96907 7.76912 6.18689 7.5469C6.39018 7.34199 6.50345 7.03607 6.50345 6.62626C6.50345 5.77201 6.00973 5.37662 5.25172 5.37662ZM8.93429 5.37662C8.17628 5.37662 7.68257 5.77489 7.68257 6.62626C7.68257 7.03607 7.79583 7.34199 7.99913 7.5469C8.21694 7.76912 8.53931 7.8759 8.93429 7.8759C9.32926 7.8759 9.65163 7.76912 9.86945 7.5469C10.0727 7.34199 10.186 7.03607 10.186 6.62626C10.186 5.77201 9.6952 5.37662 8.93429 5.37662ZM5.25172 8.75325C4.49372 8.75325 4 9.15152 4 10.0029C4 10.4127 4.11326 10.7186 4.31656 10.9235C4.53438 11.1457 4.85675 11.2554 5.25172 11.2554C5.6467 11.2554 5.96907 11.1486 6.18689 10.9235C6.39018 10.7186 6.50345 10.4127 6.50345 10.0029C6.50345 9.14863 6.00973 8.75325 5.25172 8.75325ZM8.93429 8.75325C8.17628 8.75325 7.68257 9.15152 7.68257 10.0029C7.68257 10.4127 7.79583 10.7186 7.99913 10.9235C8.21694 11.1457 8.53931 11.2554 8.93429 11.2554C9.32926 11.2554 9.65163 11.1486 9.86945 10.9235C10.0727 10.7186 10.186 10.4127 10.186 10.0029C10.186 9.14863 9.6952 8.75325 8.93429 8.75325Z" fill="#86888C"/>
<path d="M18.7332 22.0002H12.0476C11.3767 22.0002 11.0805 21.371 10.9556 21.1055C10.8366 20.8486 10.4096 19.9973 9.91882 19.0131C9.12887 17.4316 8.14433 15.4634 7.56058 14.2397C7.21788 13.5182 7.35438 12.7678 7.91199 12.3263C8.48993 11.8674 9.31764 11.8789 9.92172 12.3551C10.2354 12.6033 10.4968 12.9439 10.7872 13.4316V7.19207V7.15456C10.8598 6.01747 11.5278 5.36523 12.6139 5.36523C13.7437 5.36523 14.4465 6.06653 14.4465 7.19207V9.64518C14.6382 9.59323 14.8357 9.56726 15.0332 9.57014C15.8928 9.57014 16.494 9.99438 16.7031 10.713C16.918 10.6437 17.1445 10.612 17.3711 10.612C18.2365 10.612 18.8377 11.042 19.0439 11.7664C19.2588 11.7 19.4825 11.6654 19.709 11.6683C20.7894 11.6683 21.4573 12.3349 21.4573 13.4114V19.3219C21.4573 20.1445 21.225 20.7967 20.7632 21.2671C20.3014 21.7375 19.5754 22.0002 18.7332 22.0002Z" fill="#86888C"/>
</svg>
