<svg width="20" height="20" viewBox="0 0 20 20" fill="none" xmlns="http://www.w3.org/2000/svg">
<path d="M4.00138 2C3.39498 2 3 2.31631 3 2.99971C3 3.32756 3.09061 3.56999 3.25325 3.73622C3.4275 3.914 3.6854 3.99942 4.00138 3.99942C4.31736 3.99942 4.57526 3.914 4.74951 3.73622C4.91215 3.57229 5.00276 3.32756 5.00276 2.99971C5.00276 2.31631 4.60778 2 4.00138 2ZM6.94743 2C6.34103 2 5.94605 2.31631 5.94605 2.99971C5.94605 3.32756 6.03666 3.56999 6.1993 3.73622C6.37355 3.914 6.63145 3.99942 6.94743 3.99942C7.26341 3.99942 7.52131 3.914 7.69556 3.73622C7.8582 3.57229 7.94881 3.32756 7.94881 2.99971C7.94881 2.31631 7.55616 2 6.94743 2ZM9.89116 2C9.28476 2 8.88978 2.31631 8.88978 2.99971C8.88978 3.32756 8.98039 3.56999 9.14303 3.73622C9.31728 3.914 9.57518 3.99942 9.89116 3.99942C10.2071 3.99942 10.465 3.914 10.6393 3.73622C10.8019 3.57229 10.8925 3.32756 10.8925 2.99971C10.8925 2.31631 10.4976 2 9.89116 2ZM4.00138 4.7013C3.39498 4.7013 3 5.01991 3 5.70101C3 6.02886 3.09061 6.27359 3.25325 6.43752C3.4275 6.6153 3.6854 6.70072 4.00138 6.70072C4.31736 6.70072 4.57526 6.6153 4.74951 6.43752C4.91215 6.27359 5.00276 6.02886 5.00276 5.70101C5.00276 5.0176 4.60778 4.7013 4.00138 4.7013ZM6.94743 4.7013C6.34103 4.7013 5.94605 5.01991 5.94605 5.70101C5.94605 6.02886 6.03666 6.27359 6.1993 6.43752C6.37355 6.6153 6.63145 6.70072 6.94743 6.70072C7.26341 6.70072 7.52131 6.6153 7.69556 6.43752C7.8582 6.27359 7.94881 6.02886 7.94881 5.70101C7.94881 5.0176 7.55616 4.7013 6.94743 4.7013ZM4.00138 7.4026C3.39498 7.4026 3 7.72121 3 8.40231C3 8.73016 3.09061 8.97489 3.25325 9.13882C3.4275 9.31659 3.6854 9.40433 4.00138 9.40433C4.31736 9.40433 4.57526 9.3189 4.74951 9.13882C4.91215 8.97489 5.00276 8.73016 5.00276 8.40231C5.00276 7.7189 4.60778 7.4026 4.00138 7.4026ZM6.94743 7.4026C6.34103 7.4026 5.94605 7.72121 5.94605 8.40231C5.94605 8.73016 6.03666 8.97489 6.1993 9.13882C6.37355 9.31659 6.63145 9.40433 6.94743 9.40433C7.26341 9.40433 7.52131 9.3189 7.69556 9.13882C7.8582 8.97489 7.94881 8.73016 7.94881 8.40231C7.94881 7.7189 7.55616 7.4026 6.94743 7.4026Z" fill="#86888C"/>
<path d="M14.7865 17.9998H9.43809C8.90139 17.9998 8.66441 17.4965 8.5645 17.2841C8.46924 17.0786 8.12771 16.3975 7.73505 15.6102C7.10309 14.345 6.31546 12.7704 5.84846 11.7915C5.57431 11.2143 5.6835 10.614 6.12959 10.2607C6.59195 9.89363 7.25411 9.90286 7.73738 10.2838C7.9883 10.4824 8.19741 10.7548 8.42975 11.145V6.15337V6.12335C8.48783 5.21368 9.02221 4.69189 9.89115 4.69189C10.795 4.69189 11.3572 5.25293 11.3572 6.15337V8.11585C11.5106 8.07429 11.6685 8.05351 11.8265 8.05582C12.5143 8.05582 12.9952 8.39521 13.1625 8.97011C13.3344 8.91469 13.5156 8.8893 13.6969 8.8893C14.3892 8.8893 14.8702 9.23331 15.0351 9.81282C15.2071 9.75972 15.386 9.73201 15.5672 9.73432C16.4315 9.73432 16.9659 10.2677 16.9659 11.1288V15.8573C16.9659 16.5153 16.78 17.0371 16.4106 17.4134C16.0412 17.7897 15.4603 17.9998 14.7865 17.9998Z" fill="#86888C"/>
</svg>
