<svg width="40" height="40" viewBox="0 0 40 40" fill="none" xmlns="http://www.w3.org/2000/svg">
<path fill-rule="evenodd" clip-rule="evenodd" d="M37.1981 28.3309C37.8304 28.3309 38.3404 28.8463 38.3404 29.4839C38.3404 30.1214 37.8304 30.6368 37.1981 30.6368H20.3343C19.9943 31.0725 19.5108 31.3913 18.9423 31.4922C17.529 31.7472 15.5366 32.2892 14.1074 33.4262C13.6239 33.8087 13.0501 34 12.4763 34C11.9025 34 11.3287 33.8087 10.8452 33.4262C9.41594 32.2892 7.42884 31.7472 6.01025 31.4922C4.91044 31.2956 4.11347 30.334 4.11347 29.2076V27.0133L10.877 30.0577C11.3499 30.2755 11.8546 30.3818 12.3806 30.3818C12.8907 30.3818 13.4114 30.2702 13.8789 30.0577L20.8338 26.9336L23.0918 25.9188C24.4201 25.3237 25.2808 23.9901 25.2808 22.5184C25.2808 21.0307 24.4467 19.7237 23.0918 19.118L13.8736 14.9738C13.4008 14.7613 12.896 14.6497 12.3753 14.6497C11.8546 14.6497 11.3552 14.756 10.8717 14.9685L5.45769 17.4019V11.5362C5.45769 9.79355 5.92524 8.42277 6.83909 7.48235C7.78482 6.50474 9.17685 6.01063 10.978 6.01063L32.7032 6C34.5044 6 35.8964 6.49943 36.8421 7.47173C37.7613 8.41746 38.2235 9.78292 38.2235 11.5256V21.8383C38.2235 23.5863 37.7613 24.9571 36.8421 25.9135C35.8911 26.907 34.4991 27.4118 32.6979 27.4118L20.8178 27.4171V28.3309H37.1981ZM12.3806 28.8463C12.0778 28.8463 11.7803 28.7825 11.4987 28.655L2.28577 24.5108C1.49412 24.1495 1 23.3898 1 22.5131C1 21.6417 1.4888 20.8767 2.28046 20.5207L11.4987 16.3712C12.0565 16.1214 12.6994 16.1214 13.2573 16.3712L22.4755 20.5154C23.2672 20.8713 23.7613 21.6364 23.7613 22.5131C23.7613 23.3738 23.2565 24.1602 22.4755 24.5055L13.2573 28.6497C12.981 28.7825 12.6782 28.8463 12.3806 28.8463Z" fill="#86888C"/>
</svg>
