<svg width="40" height="40" viewBox="0 0 40 40" fill="none" xmlns="http://www.w3.org/2000/svg">
<path fill-rule="evenodd" clip-rule="evenodd" d="M37.0588 21.4831C37.6863 22.1006 38 23.007 38 24.1673V31.4831C38 32.6484 37.6863 33.5597 37.0588 34.1872C36.4114 34.8396 35.4502 35.1683 34.1952 35.1683L18.1295 35.1783C16.8795 35.1783 15.9183 34.8496 15.2659 34.1972C14.6434 33.5697 14.3247 32.6633 14.3247 31.493V24.1773C14.3247 23.0119 14.6434 22.1105 15.2659 21.488C15.9133 20.8506 16.8745 20.5269 18.1245 20.5269L34.1902 20.5169C35.4502 20.5219 36.4163 20.8456 37.0588 21.4831ZM36.75 36.1892C37.3526 36.1892 37.8357 36.6623 37.8357 37.245C37.8357 37.8277 37.3476 38.3008 36.75 38.3008H15.7689C15.1663 38.3008 14.6833 37.8277 14.6833 37.245C14.6833 36.6623 15.1713 36.1892 15.7689 36.1892H36.75ZM17.7908 19.6504C15.2908 19.6504 13.3137 18.9582 11.9143 17.5986C10.4602 16.1793 9.71813 14.1225 9.71813 11.488C9.71813 8.85357 10.4552 6.7968 11.9094 5.36751C13.3088 3.99799 15.2859 3.30078 17.7859 3.30078C20.2859 3.30078 22.2679 3.99301 23.6723 5.36253C25.1365 6.79182 25.8785 8.84859 25.8785 11.4831C25.8785 14.1175 25.1365 16.1743 23.6723 17.5986C22.2729 18.9582 20.2908 19.6504 17.7908 19.6504ZM13.9163 21.1992C13.3586 22.0109 13.0697 23.0269 13.0697 24.242V31.5578C13.0697 32.6683 13.3137 33.6145 13.7769 34.4014H4.92231C3.86155 34.4014 3 33.5647 3 32.5388V30.1733C3 27.6335 3.83167 25.4472 5.41036 23.8536C7.11853 22.1205 9.62351 21.2091 12.6514 21.2091H13.9163V21.1992Z" fill="#86888C"/>
</svg>
