<svg width="20" height="20" viewBox="0 0 20 20" fill="none" xmlns="http://www.w3.org/2000/svg">
<path fill-rule="evenodd" clip-rule="evenodd" d="M17.5697 10.6127C17.8566 10.895 18 11.3093 18 11.8398V15.1841C18 15.7168 17.8566 16.1335 17.5697 16.4203C17.2738 16.7185 16.8344 16.8688 16.2607 16.8688L8.91633 16.8733C8.34491 16.8733 7.90552 16.7231 7.60729 16.4249C7.32271 16.138 7.17701 15.7237 7.17701 15.1887V11.8443C7.17701 11.3116 7.32271 10.8995 7.60729 10.615C7.90324 10.3235 8.34263 10.1756 8.91406 10.1756L16.2584 10.171C16.8344 10.1733 17.276 10.3213 17.5697 10.6127ZM17.4286 17.3355C17.704 17.3355 17.9249 17.5518 17.9249 17.8181C17.9249 18.0845 17.7018 18.3008 17.4286 18.3008H7.83722C7.56175 18.3008 7.34092 18.0845 7.34092 17.8181C7.34092 17.5518 7.56403 17.3355 7.83722 17.3355H17.4286ZM8.76153 9.77488C7.61867 9.77488 6.71485 9.45844 6.07513 8.83692C5.41036 8.18809 5.07114 7.24785 5.07114 6.04352C5.07114 4.8392 5.40808 3.89896 6.07285 3.24557C6.71258 2.61951 7.61639 2.30078 8.75925 2.30078C9.90211 2.30078 10.8082 2.61723 11.4502 3.2433C12.1195 3.89668 12.4587 4.83692 12.4587 6.04125C12.4587 7.24557 12.1195 8.18581 11.4502 8.83692C10.8105 9.45844 9.90438 9.77488 8.76153 9.77488ZM6.99032 10.4829C6.73534 10.854 6.6033 11.3184 6.6033 11.8739V15.2183C6.6033 15.7259 6.71485 16.1585 6.92658 16.5182H2.87877C2.39385 16.5182 2 16.1357 2 15.6667V14.5854C2 13.4243 2.38019 12.4249 3.10188 11.6963C3.88275 10.9041 5.02789 10.4875 6.41207 10.4875H6.99032V10.4829Z" fill="#86888C"/>
</svg>
