<svg width="20" height="20" viewBox="0 0 20 20" fill="none" xmlns="http://www.w3.org/2000/svg">
<path fill-rule="evenodd" clip-rule="evenodd" d="M16.9798 9.51806C16.8413 9.32093 16.6794 9.1238 16.4846 8.92432C14.6377 7.03981 12.9949 6.3827 12.0444 6.15271V9.51806H16.9798ZM15.9073 13.2073C16.095 13.0805 16.3907 12.8576 16.6771 12.5666H3.00914V13.3082C11.8097 13.3082 14.6776 13.3223 15.506 13.3293H15.513C15.6538 13.3293 15.7876 13.2894 15.9073 13.2073ZM3.00914 9.46174H4.68712V7.07502H3.00914V9.46174ZM5.85114 9.46174H7.65585V7.07502H5.85114V9.46174ZM8.71193 9.46174H10.519V7.07502H8.71193V9.46174ZM2.14785 14.1882C2.05398 14.092 2 13.9606 2 13.8245V5.51672C2 5.23276 2.2253 5.00042 2.50457 5.00042H11.162C11.2582 4.99807 14.0017 4.93002 17.1957 8.19445C18.1462 9.16604 18.578 10.1705 18.4771 11.1773C18.3339 12.6112 17.1511 13.6039 16.4611 14.0686C16.1772 14.2587 15.8486 14.3596 15.513 14.3596H15.499C14.6541 14.3525 11.6971 14.3384 2.50457 14.3384C2.3708 14.3384 2.24407 14.2845 2.14785 14.1882ZM17.9866 14.9674C18.2659 14.9674 18.4912 15.1974 18.4912 15.4837C18.4912 15.77 18.2659 16 17.9866 16H2.50457C2.2253 16 2 15.77 2 15.4837C2 15.1974 2.2253 14.9674 2.50457 14.9674H17.9866Z" fill="#86888C"/>
</svg>
