<svg width="24" height="24" viewBox="0 0 24 24" fill="none" xmlns="http://www.w3.org/2000/svg">
<path fill-rule="evenodd" clip-rule="evenodd" d="M21.489 13.1712C21.8297 13.5064 22 13.9984 22 14.6283V18.5997C22 19.2323 21.8297 19.7271 21.489 20.0677C21.1376 20.4219 20.6158 20.6003 19.9345 20.6003L11.2131 20.6057C10.5346 20.6057 10.0128 20.4273 9.65865 20.0731C9.32072 19.7325 9.14769 19.2405 9.14769 18.6051V14.6337C9.14769 14.0011 9.32072 13.5118 9.65865 13.1739C10.0101 12.8278 10.5319 12.6521 11.2104 12.6521L19.9318 12.6467C20.6158 12.6494 21.1403 12.8251 21.489 13.1712ZM21.3214 21.1545C21.6485 21.1545 21.9108 21.4113 21.9108 21.7276C21.9108 22.044 21.6458 22.3008 21.3214 22.3008H9.9317C9.60458 22.3008 9.34234 22.044 9.34234 21.7276C9.34234 21.4113 9.60728 21.1545 9.9317 21.1545H21.3214ZM11.0293 12.1763C9.67217 12.1763 8.59889 11.8005 7.83921 11.0624C7.0498 10.292 6.64698 9.17543 6.64698 7.74529C6.64698 6.31515 7.0471 5.19862 7.83651 4.42272C8.59619 3.67927 9.66946 3.30078 11.0266 3.30078C12.3837 3.30078 13.4597 3.67656 14.2221 4.42002C15.0169 5.19591 15.4197 6.31245 15.4197 7.74258C15.4197 9.17272 15.0169 10.2893 14.2221 11.0624C13.4624 11.8005 12.3865 12.1763 11.0293 12.1763ZM8.92601 13.0171C8.62322 13.4577 8.46642 14.0092 8.46642 14.6689V18.6403C8.46642 19.2432 8.59889 19.7568 8.85031 20.184H4.04354C3.4677 20.184 3 19.7298 3 19.1729V17.8887C3 16.5099 3.45148 15.3231 4.30848 14.458C5.23577 13.5172 6.59562 13.0225 8.23933 13.0225H8.92601V13.0171Z" fill="#86888C"/>
</svg>
