<svg width="40" height="40" viewBox="0 0 40 40" fill="none" xmlns="http://www.w3.org/2000/svg">
<path fill-rule="evenodd" clip-rule="evenodd" d="M34.6832 17.8576C34.3811 17.4275 34.0278 16.9974 33.6028 16.5621C29.5731 12.4505 25.9888 11.0168 23.9151 10.515V17.8576H34.6832ZM32.3432 25.9068C32.7528 25.6303 33.398 25.1439 34.0227 24.5089H4.20175V26.127C23.4031 26.127 29.6601 26.1577 31.4676 26.173H31.483C31.7902 26.173 32.0821 26.086 32.3432 25.9068ZM4.20175 17.7347H7.8628V12.5273H4.20175V17.7347ZM10.4025 17.7347H14.34V12.5273H10.4025V17.7347ZM16.6442 17.7347H20.5869V12.5273H16.6442V17.7347ZM2.32258 28.0471C2.11777 27.8372 2 27.5504 2 27.2534V9.1274C2 8.50783 2.49155 8.00092 3.10088 8.00092H21.9898C22.1998 7.9958 28.1855 7.84731 35.1543 14.9697C37.228 17.0895 38.1702 19.2811 37.95 21.4777C37.6376 24.6062 35.057 26.7721 33.5516 27.786C32.932 28.2007 32.2152 28.4209 31.483 28.4209H31.4523C29.6089 28.4055 23.1573 28.3748 3.10088 28.3748C2.80902 28.3748 2.53252 28.257 2.32258 28.0471ZM36.8798 29.747C37.4891 29.747 37.9807 30.2488 37.9807 30.8735C37.9807 31.4982 37.4891 32 36.8798 32H3.10088C2.49155 32 2 31.4982 2 30.8735C2 30.2488 2.49155 29.747 3.10088 29.747H36.8798Z" fill="#86888C"/>
</svg>
