<svg width="20" height="20" viewBox="0 0 20 20" fill="none" xmlns="http://www.w3.org/2000/svg">
<path fill-rule="evenodd" clip-rule="evenodd" d="M12.848 5.34198H7.14969V3.86902C7.14969 3.52525 7.22482 3.2771 7.37507 3.13823C7.56403 2.9652 7.83722 2.98114 7.88503 2.98342L12.1013 2.98114C12.3449 2.98114 12.5202 3.04033 12.6386 3.16555C12.8298 3.36816 12.8549 3.72559 12.848 3.87812V5.34198ZM12.1582 14.1798C12.1582 14.4507 11.9397 14.6692 11.6688 14.6692C11.4001 14.6692 11.1793 14.4507 11.1793 14.1798V9.17124C11.1793 8.90032 11.3978 8.68177 11.6688 8.68177C11.9374 8.68177 12.1582 8.90032 12.1582 9.17124V14.1798ZM8.81844 14.1798C8.81844 14.4507 8.59989 14.6692 8.32897 14.6692C8.05805 14.6692 7.8395 14.4507 7.8395 14.1798V9.17124C7.8395 8.90032 8.05805 8.68177 8.32897 8.68177C8.59989 8.68177 8.81844 8.90032 8.81844 9.17124V14.1798ZM17.5105 5.34198H13.8247V3.91C13.8315 3.82348 13.868 3.04944 13.3557 2.50078C13.144 2.27311 12.7547 2.0022 12.1013 2.0022L7.93284 2.00675C7.86227 1.99537 7.22937 1.94984 6.72624 2.40743C6.3597 2.73982 6.17302 3.23157 6.17302 3.86902V5.34198H2.48947C2.21855 5.34198 2 5.56054 2 5.83145C2 6.10237 2.21855 6.32092 2.48947 6.32092H3.67331L3.67558 15.3317C3.67331 15.3773 3.60729 16.4678 4.33808 17.2486C4.80478 17.7472 5.46955 18.0022 6.3119 18.0022H13.6608C13.6653 18.0022 13.6836 18.0045 13.7131 18.0045C13.9499 18.0045 14.897 17.9612 15.5913 17.2964C16.0808 16.8275 16.329 16.1741 16.329 15.3545V6.32092H17.5128C17.7814 6.32092 18.0023 6.10237 18.0023 5.83145C18 5.56281 17.7814 5.34198 17.5105 5.34198Z" fill="#86888C"/>
</svg>
