<svg width="24" height="24" viewBox="0 0 24 24" fill="none" xmlns="http://www.w3.org/2000/svg">
<path fill-rule="evenodd" clip-rule="evenodd" d="M15.5563 6.17631H8.43531V4.33562C8.43531 3.90603 8.52919 3.59593 8.71696 3.42238C8.95309 3.20617 9.29449 3.22608 9.35423 3.22893L14.6231 3.22608C14.9275 3.22608 15.1466 3.30005 15.2945 3.45652C15.5335 3.70973 15.5648 4.15639 15.5563 4.347V6.17631ZM14.6942 17.2205C14.6942 17.559 14.4211 17.8321 14.0826 17.8321C13.7469 17.8321 13.4709 17.559 13.4709 17.2205V10.9615C13.4709 10.623 13.744 10.3499 14.0826 10.3499C14.4183 10.3499 14.6942 10.623 14.6942 10.9615V17.2205ZM10.5207 17.2205C10.5207 17.559 10.2476 17.8321 9.909 17.8321C9.57045 17.8321 9.29733 17.559 9.29733 17.2205V10.9615C9.29733 10.623 9.57045 10.3499 9.909 10.3499C10.2476 10.3499 10.5207 10.623 10.5207 10.9615V17.2205ZM21.3827 6.17631H16.7767V4.38683C16.7853 4.27872 16.8308 3.31143 16.1907 2.62579C15.9261 2.3413 15.4396 2.00275 14.6231 2.00275L9.41398 2.00844C9.32578 1.99421 8.53488 1.93731 7.90615 2.50915C7.44811 2.92452 7.21482 3.53903 7.21482 4.33562V6.17631H2.61167C2.27312 6.17631 2 6.44943 2 6.78798C2 7.12653 2.27312 7.39964 2.61167 7.39964H4.09105L4.09389 18.66C4.09105 18.7169 4.00854 20.0796 4.92178 21.0555C5.505 21.6785 6.33573 21.9972 7.38836 21.9972H16.5719C16.5776 21.9972 16.6004 22 16.6373 22C16.9332 22 18.1167 21.9459 18.9844 21.1152C19.5961 20.5292 19.9062 19.7126 19.9062 18.6885V7.39964H21.3856C21.7213 7.39964 21.9973 7.12653 21.9973 6.78798C21.9944 6.45227 21.7213 6.17631 21.3827 6.17631Z" fill="#86888C"/>
</svg>
