<svg width="40" height="40" viewBox="0 0 40 40" fill="none" xmlns="http://www.w3.org/2000/svg">
<path fill-rule="evenodd" clip-rule="evenodd" d="M24.0549 19.6517C23.4197 19.6517 22.9074 20.169 22.9074 20.8042V22.3921C22.9022 23.8981 21.6829 25.1172 20.1716 25.1172H19.8181C18.3119 25.1172 17.0926 23.8981 17.0875 22.3921V20.8042C17.0875 20.169 16.5752 19.6568 15.9399 19.6517H4.72036L7.21019 4.85316C7.22044 4.79169 7.22556 4.7251 7.22556 4.66363C7.22556 4.46898 7.38437 4.31019 7.57905 4.31019L32.4158 4.3358C32.6566 4.3358 32.8923 4.60216 32.9486 4.93512L35.2848 19.6568H24.0549V19.6517ZM37.9795 22.1053C37.9795 22.0694 37.9846 22.0438 37.9846 22.008L35.213 4.54069C34.9415 3.06033 33.7939 2.02561 32.4158 2.02561L7.58418 2C6.15995 2 4.99189 3.13204 4.93041 4.55094L2.02049 21.8799C2.01025 21.926 2.02562 21.9721 2.02562 22.0182C2.01537 22.1104 2 22.2026 2 22.2948V35.3364C2 36.8065 3.19368 38 4.65376 38H35.3462C36.8114 38 38 36.8065 38 35.3364V22.2999C38 22.2385 37.9846 22.1668 37.9795 22.1053Z" fill="#86888C"/>
</svg>
