<svg width="28" height="28" viewBox="0 0 28 28" fill="none" xmlns="http://www.w3.org/2000/svg">
<path fill-rule="evenodd" clip-rule="evenodd" d="M16.7033 13.7678C16.2798 13.7678 15.9382 14.1127 15.9382 14.5361V15.5948C15.9348 16.5987 15.122 17.4115 14.1144 17.4115H13.8788C12.8746 17.4115 12.0618 16.5987 12.0583 15.5948V14.5361C12.0583 14.1127 11.7168 13.7712 11.2933 13.7678H3.81358L5.47346 3.90211C5.48029 3.86113 5.48371 3.81673 5.48371 3.77575C5.48371 3.64599 5.58958 3.54013 5.71937 3.54013L22.2772 3.5572C22.4377 3.5572 22.5948 3.73478 22.6324 3.95674L24.1898 13.7712H16.7033V13.7678ZM25.9863 15.4035C25.9863 15.3796 25.9898 15.3625 25.9898 15.3386L24.142 3.6938C23.961 2.70689 23.196 2.01707 22.2772 2.01707L5.72278 2C4.7733 2 3.99459 2.7547 3.95361 3.70063L2.01366 15.2533C2.00683 15.284 2.01708 15.3147 2.01708 15.3455C2.01025 15.4069 2 15.4684 2 15.5299V24.2242C2 25.2043 2.79579 26 3.76918 26H24.2308C25.2076 26 26 25.2043 26 24.2242V15.5333C26 15.4923 25.9898 15.4445 25.9863 15.4035Z" fill="#86888C"/>
</svg>
