<svg width="28" height="28" viewBox="0 0 28 28" fill="none" xmlns="http://www.w3.org/2000/svg">
<path fill-rule="evenodd" clip-rule="evenodd" d="M20.3192 6.60054C18.8 2.22542 13.8771 2 12.8734 2C11.5795 2 5.22617 2.35179 4.99061 9.186C3.68649 9.70855 2 10.9825 2 14.0564C2 17.9704 4.73457 19.3639 7.29161 19.3639H13.1807V17.523L10.2583 14.5652C9.97155 14.2749 9.97496 13.8036 10.2617 13.5167C10.5485 13.2298 11.0162 13.2298 11.303 13.5201L13.1807 15.4191V11.061C13.1807 10.6512 13.5084 10.3199 13.9181 10.3199C14.3243 10.3199 14.6555 10.6512 14.6555 11.061V12.3213L16.1098 10.337C16.3522 10.0091 16.8131 9.93738 17.1408 10.1799C17.4686 10.4224 17.5368 10.8869 17.2945 11.2182L14.6828 14.7804C14.676 14.7907 14.6623 14.7941 14.6555 14.8043V19.3502L13.1841 19.3639V25.2589C13.1841 25.6687 13.5118 26 13.9215 26C14.3277 26 14.6589 25.6687 14.6589 25.2589V19.3605L19.5818 19.3297C22.5451 19.3297 26 17.6494 26 12.9156C25.9932 8.63612 23.1562 6.86694 20.3192 6.60054Z" fill="#86888C"/>
</svg>
