<svg width="24" height="24" viewBox="0 0 24 24" fill="none" xmlns="http://www.w3.org/2000/svg">
<path fill-rule="evenodd" clip-rule="evenodd" d="M19.1719 8.09562C19.1719 5.71941 17.5441 4.69493 15.8765 4.49573C15.1252 2.66591 13.1503 2 11.4713 2C9.39385 2 6.98349 3.02447 6.77291 5.93569C5.66022 6.40808 5.05122 7.37564 5.05122 8.70746C5.05122 9.68924 5.37564 10.3466 5.7712 10.7792C5.25896 11.3853 5 12.1793 5 13.1411C5 15.5316 6.62777 16.5504 8.29539 16.7382C8.89015 18.1838 10.2504 18.8953 11.6221 19.1315V21.391C11.6221 21.7268 11.9095 22 12.2624 22C12.6153 22 12.9027 21.7268 12.9027 21.391V19.2225C12.9027 19.2225 12.436 19.2026 12.2026 19.1855C11.9636 19.1685 11.6249 19.1315 11.6249 19.1315V16.667L9.0922 14.2425C8.84462 14.0034 8.84462 13.6192 9.09505 13.3802C9.34548 13.144 9.74957 13.1468 10 13.383L11.6278 14.9397V9.74616C11.6278 9.41036 11.9152 9.13717 12.2681 9.13717C12.6209 9.13717 12.9084 9.41036 12.9084 9.74616V11.5931L14.1719 9.96813C14.3825 9.69778 14.7809 9.64087 15.0655 9.84007C15.35 10.0393 15.4098 10.4206 15.1992 10.691L12.9311 13.6135C12.9254 13.6221 12.9141 13.6249 12.9084 13.6335V19.2282C14.9374 19.1628 17.1998 18.1155 17.4018 15.3011C18.1844 14.971 19.1235 14.2225 19.1235 12.5293C19.1235 11.5475 18.7991 10.8902 18.4035 10.4576C18.9129 9.84291 19.1719 9.05464 19.1719 8.09562Z" fill="#86888C"/>
</svg>
