<svg width="24" height="24" viewBox="0 0 24 24" fill="none" xmlns="http://www.w3.org/2000/svg">
<path fill-rule="evenodd" clip-rule="evenodd" d="M17.266 5.83378C16 2.18785 11.8976 2 11.0612 2C9.98293 2 4.68848 2.29315 4.49218 7.98833C3.40541 8.42379 2 9.48541 2 12.047C2 15.3087 4.27881 16.4699 6.40967 16.4699H11.3172V14.9358L8.88193 12.471C8.64296 12.2291 8.6458 11.8363 8.88478 11.5973C9.12376 11.3582 9.51351 11.3582 9.75249 11.6001L11.3172 13.1826V9.55087C11.3172 9.20934 11.5903 8.93326 11.9317 8.93326C12.2703 8.93326 12.5462 9.20934 12.5462 9.55087V10.6011L13.7582 8.94749C13.9602 8.67426 14.3442 8.61449 14.6174 8.81656C14.8905 9.01864 14.9474 9.40572 14.7454 9.6818L12.569 12.6503C12.5633 12.6589 12.5519 12.6617 12.5462 12.6703V16.4585L11.3201 16.4699V21.3824C11.3201 21.7239 11.5932 22 11.9346 22C12.2731 22 12.5491 21.7239 12.5491 21.3824V16.4671L16.6515 16.4414C19.1209 16.4414 22 15.0411 22 11.0963C21.9943 7.5301 19.6302 6.05578 17.266 5.83378Z" fill="#86888C"/>
</svg>
