<svg width="28" height="28" viewBox="0 0 28 28" fill="none" xmlns="http://www.w3.org/2000/svg">
<path fill-rule="evenodd" clip-rule="evenodd" d="M17.9789 13.5048H10.029V11.4252C10.029 10.6944 10.4525 9.93625 11.1559 9.93625H16.8554C17.5589 9.93625 17.9824 10.6944 17.9824 11.4252C17.9789 11.4252 17.9789 13.5048 17.9789 13.5048ZM17.9789 20.8332C17.9789 21.6836 17.494 22.3221 16.8554 22.3221H11.1559C10.5139 22.3221 10.029 21.6836 10.029 20.8332V14.8264H17.9824V20.8332H17.9789ZM11.6579 6.856H16.35V3.48549H11.6579V6.856ZM19.5259 6.86625H17.8492V3.0757C17.8492 2.50199 17.3301 2 16.7393 2H11.2652C10.6608 2 10.1554 2.49175 10.1554 3.0757V6.86625H8.47866C7.69323 6.86625 7 7.6346 7 8.51224V23.6164C7 24.5111 7.67615 25.2658 8.47866 25.2658H9.79681C9.89584 25.9351 10.4696 26 10.6335 26H10.7154C10.8725 25.9966 11.453 25.9351 11.5521 25.2658H16.4969C16.5959 25.9351 17.1696 25.9966 17.3335 26H17.4155C17.5726 25.9966 18.1531 25.9351 18.2521 25.2658H19.5259C20.3284 25.2658 21.0046 24.5111 21.0046 23.6164V8.51224C21.0046 7.6346 20.3147 6.86625 19.5259 6.86625Z" fill="#86888C"/>
</svg>
