<svg width="20" height="20" viewBox="0 0 20 20" fill="none" xmlns="http://www.w3.org/2000/svg">
<path fill-rule="evenodd" clip-rule="evenodd" d="M12.3193 9.66989H7.01935V8.28344C7.01935 7.79624 7.30165 7.29084 7.77063 7.29084H11.5703C12.0393 7.29084 12.3216 7.79624 12.3216 8.28344C12.3193 8.28344 12.3193 9.66989 12.3193 9.66989ZM12.3193 14.5555C12.3193 15.1224 11.996 15.5481 11.5703 15.5481H7.77063C7.34263 15.5481 7.01935 15.1224 7.01935 14.5555V10.5509H12.3216V14.5555H12.3193ZM8.10529 5.23734H11.2334V2.99032H8.10529V5.23734ZM13.3506 5.24417H12.2328V2.71713C12.2328 2.33466 11.8867 2 11.4929 2H7.84348C7.44052 2 7.10359 2.32783 7.10359 2.71713V5.24417H5.98577C5.46215 5.24417 5 5.7564 5 6.34149V16.4109C5 17.0074 5.45077 17.5105 5.98577 17.5105H6.86454C6.93056 17.9567 7.31303 18 7.42231 18H7.47695C7.58167 17.9977 7.9687 17.9567 8.03472 17.5105H11.3312C11.3973 17.9567 11.7797 17.9977 11.889 18H11.9437C12.0484 17.9977 12.4354 17.9567 12.5014 17.5105H13.3506C13.8856 17.5105 14.3364 17.0074 14.3364 16.4109V6.34149C14.3364 5.7564 13.8765 5.24417 13.3506 5.24417Z" fill="#86888C"/>
</svg>
