<svg width="24" height="24" viewBox="0 0 24 24" fill="none" xmlns="http://www.w3.org/2000/svg">
<path fill-rule="evenodd" clip-rule="evenodd" d="M15.1491 11.5874H8.52419V9.8543C8.52419 9.2453 8.87706 8.61355 9.46329 8.61355H14.2129C14.7991 8.61355 15.152 9.2453 15.152 9.8543C15.1491 9.8543 15.1491 11.5874 15.1491 11.5874ZM15.1491 17.6944C15.1491 18.403 14.745 18.9351 14.2129 18.9351H9.46329C8.92829 18.9351 8.52419 18.403 8.52419 17.6944V12.6887H15.152V17.6944H15.1491ZM9.88162 6.04667H13.7917V3.23791H9.88162V6.04667ZM16.4382 6.05521H15.041V2.89641C15.041 2.41833 14.6084 2 14.1161 2H9.55435C9.05065 2 8.62948 2.40979 8.62948 2.89641V6.05521H7.23221C6.57769 6.05521 6 6.6955 6 7.42686V20.0137C6 20.7592 6.56346 21.3882 7.23221 21.3882H8.33068C8.4132 21.9459 8.89129 22 9.02789 22H9.09619C9.22709 21.9972 9.71087 21.9459 9.7934 21.3882H13.9141C13.9966 21.9459 14.4747 21.9972 14.6113 22H14.6796C14.8105 21.9972 15.2943 21.9459 15.3768 21.3882H16.4382C17.107 21.3882 17.6705 20.7592 17.6705 20.0137V7.42686C17.6705 6.6955 17.0956 6.05521 16.4382 6.05521Z" fill="#86888C"/>
</svg>
