<svg width="40" height="40" viewBox="0 0 40 40" fill="none" xmlns="http://www.w3.org/2000/svg">
<path d="M25.5679 34.6211H15.0169C14.4758 34.6211 14.0331 34.1783 14.0331 33.637C14.0331 33.0958 14.4758 32.653 15.0169 32.653H25.5679C26.1089 32.653 26.5516 33.0958 26.5516 33.637C26.5516 34.1783 26.1089 34.6211 25.5679 34.6211ZM37.5798 15.8649V24.5394C37.5798 26.4977 37.1125 28.023 36.1976 29.0759C35.2089 30.2076 33.7332 30.7833 31.8001 30.7833H8.7797C6.85149 30.7833 5.37091 30.2076 4.38221 29.0808C3.46729 28.023 3 26.4977 3 24.5394V15.8649C3 13.9067 3.46729 12.3814 4.38221 11.3284C5.37091 10.1968 6.84657 9.62109 8.7797 9.62109H31.8001C33.7283 9.62109 35.2089 10.1968 36.1976 11.3284C37.1125 12.3814 37.5798 13.9067 37.5798 15.8649ZM17.0877 23.5996C17.1812 23.3782 17.3484 23.1962 17.5599 23.0781L24.2693 19.9488C24.4956 19.8602 24.7415 19.8504 24.9727 19.9193C24.9727 19.9193 26.5762 20.5097 27.5748 20.0472C28.5684 19.5847 29.1488 17.9708 29.1488 17.9708C29.2177 17.774 29.1242 17.6855 28.9324 17.774L27.9634 18.2267C27.742 18.3152 27.4961 18.3054 27.2846 18.207L26.3155 17.6904C26.1237 17.5772 26.0204 17.3558 26.0598 17.1393L26.286 16.0667C26.35 15.8403 26.5025 15.6435 26.7091 15.5353L27.6781 15.0826C27.8699 14.9941 27.865 14.8612 27.6633 14.7923C27.6633 14.7923 26.0598 14.2019 25.0612 14.6644C24.0627 15.1269 23.4872 16.7408 23.4872 16.7408C23.3937 16.9622 23.2265 17.1442 23.015 17.2574L16.3007 20.3867C16.0744 20.4753 15.8285 20.4851 15.5973 20.4162C15.5973 20.4162 13.9937 19.8258 12.9952 20.2883C11.9967 20.7508 11.4211 22.3646 11.4211 22.3646C11.3523 22.5615 11.4457 22.65 11.6376 22.5615L12.6066 22.1088C12.8279 22.0202 13.0739 22.0301 13.2854 22.1285L14.2495 22.6451C14.4413 22.7583 14.5446 22.9797 14.5053 23.1962L14.279 24.2688C14.2151 24.4951 14.0626 24.6919 13.856 24.8002L12.887 25.2529C12.6951 25.3414 12.7001 25.4743 12.9017 25.5481C12.9017 25.5481 14.5053 26.1385 15.5038 25.676C16.5024 25.2135 17.0877 23.5996 17.0877 23.5996Z" fill="#86888C"/>
</svg>
