<svg width="28" height="28" viewBox="0 0 28 28" fill="none" xmlns="http://www.w3.org/2000/svg">
<path fill-rule="evenodd" clip-rule="evenodd" d="M7.8206 16.74C5.58034 11.2179 7.38689 7.11643 8.53092 5.30647L13.4076 13.4411L7.8206 16.74ZM5.99697 6.48465C4.9588 9.01519 4.30653 12.881 6.32481 17.6211L3.7533 19.1408C3.64402 19.2056 3.58255 19.2637 3.31959 19.192C3.17274 19.1442 3.06346 19.0485 3.01224 18.929C2.01163 16.5624 1.75209 14.3153 2.23702 12.2526C2.72537 10.1285 3.99576 8.199 5.99697 6.48465ZM21.1904 8.84102L14.8897 12.5634L9.94133 4.31269C11.9494 4.04291 16.6006 4.09413 21.1904 8.84102ZM24.8753 6.03387C24.9675 6.1329 25.0119 6.2695 24.9982 6.38903C24.9777 6.53588 24.8923 6.65199 24.7591 6.73395L22.6896 7.95653C19.2029 4.23756 15.6478 2.96717 12.9431 2.64616C15.0536 2.01779 17.0719 1.92217 18.9673 2.37637C21.1153 2.89204 23.1029 4.12145 24.8753 6.03387ZM8.39774 5.1323L7.94354 4.37416C7.7079 3.97802 7.85133 3.46918 8.26797 3.24037C8.6846 3.01498 9.21734 3.15158 9.4564 3.55114L9.88328 4.26488L8.39774 5.1323ZM14.8965 12.5941L22.2423 24.8507C22.4813 25.2502 22.3345 25.7557 21.9178 25.9845C21.7812 26.0562 21.6344 26.0938 21.4875 26.0938C21.1836 26.0938 20.8933 25.9435 20.7328 25.6771L13.411 13.465L14.8965 12.5941Z" fill="#86888C"/>
</svg>
