<svg width="28" height="28" viewBox="0 0 28 28" fill="none" xmlns="http://www.w3.org/2000/svg">
<path fill-rule="evenodd" clip-rule="evenodd" d="M14.8378 5.06661C16.5281 5.82472 19.9977 8.45762 20.7831 14.6932C20.7865 14.7103 20.7968 14.724 20.7968 14.7376L14.8309 14.7206C14.8343 14.724 14.8378 5.06661 14.8378 5.06661ZM7.01762 14.7035C7.94989 8.88448 11.5424 5.99888 13.3011 5.10418L13.3079 14.7206L7.01762 14.7035ZM25.9738 12.5999C26.0626 13.1087 25.9226 13.6483 25.5879 14.0683C25.2123 14.5054 24.6864 14.7445 24.1263 14.7479L22.2652 14.7445C22.2823 14.6693 22.2891 14.5908 22.2823 14.5122C21.3022 6.73309 16.5452 4.04897 14.8412 3.45819C18.3927 3.61186 21.1758 4.69097 23.136 6.69211C24.6044 8.19126 25.5606 10.1821 25.9738 12.5999ZM13.2942 3.46161C11.6414 4.16166 6.58051 7.25216 5.48433 14.6932V14.7001L3.88274 14.6967C3.531 14.6898 3.18951 14.5942 2.889 14.4132C2.72167 14.3108 2.57483 14.181 2.44847 14.0342C2.07966 13.5868 1.93282 13.0438 2.02844 12.5214C2.45872 10.1036 3.43197 8.12296 4.91745 6.63747C6.8981 4.63975 9.71881 3.57771 13.2942 3.46161ZM18.099 22.5236C18.5122 22.5202 18.8503 22.8549 18.8537 23.2681C18.8537 24.774 17.6107 26 16.0842 26C14.5782 26 13.3454 24.8082 13.3147 23.3295L13.3113 23.2783V14.7206H14.8207V23.2681C14.8207 23.9511 15.3841 24.5111 16.0808 24.5111C16.774 24.5111 17.3375 23.9545 17.3375 23.2681C17.3477 22.8549 17.6858 22.5202 18.099 22.5236ZM14.8173 3.45819H13.3215C13.3215 3.44453 13.3147 3.43087 13.3147 3.41721V2.74448C13.3181 2.33127 13.6562 1.99661 14.0694 2.00003C14.4826 1.99661 14.8207 2.33127 14.8241 2.74448V3.4138C14.8275 3.43087 14.8207 3.44112 14.8173 3.45819Z" fill="#86888C"/>
</svg>
