<svg width="40" height="40" viewBox="0 0 40 40" fill="none" xmlns="http://www.w3.org/2000/svg">
<path fill-rule="evenodd" clip-rule="evenodd" d="M32.9901 18.6323C32.9952 18.6323 32.9901 28.0729 32.9952 32.7291C32.9952 34.3682 32.4983 35.6693 31.5097 36.6016C29.8757 38.1485 27.5143 37.9949 27.4169 37.9898L11.4761 38C9.67305 38 8.2644 37.4622 7.29115 36.4018C5.86713 34.8497 6.00031 32.7649 6.00544 32.6779L6.00031 18.5248C6.00031 16.8702 6.50743 15.5589 7.50117 14.6318C8.42832 13.7661 9.58597 13.4536 10.426 13.346V11.169C10.426 4.46898 14.8876 2.04098 19.0624 2C19.3287 2 19.6104 2.00512 19.8563 2.00512C23.2166 2.08708 27.1967 3.82869 28.2724 8.47467C28.4107 9.06887 28.047 9.66306 27.463 9.80137C26.8842 9.93967 26.2951 9.57598 26.1517 8.98179C25.1528 4.66875 21.0396 4.23847 19.8 4.20774C19.5797 4.20262 19.3185 4.20262 19.0777 4.20262C17.1312 4.21799 12.5979 4.93512 12.5979 11.1639V13.2948C15.5689 13.2897 23.6417 13.2795 27.4835 13.2795C29.3225 13.2795 30.7516 13.8224 31.73 14.8981C33.1489 16.4604 32.9952 18.535 32.9901 18.6323ZM19.426 28.0831H19.047C16.5678 28.0472 16.5678 26.0956 16.5678 25.3631C16.5678 24.6357 16.5678 22.6995 19.0009 22.6739H19.0777C19.1802 22.6739 19.2877 22.679 19.3851 22.679C21.9001 22.7405 21.9001 24.7382 21.9001 25.3939C21.9053 26.1161 21.9053 28.0421 19.426 28.0831ZM19.4414 20.4764C19.3338 20.4713 19.2058 20.4713 19.0828 20.4713H18.9855C18.0123 20.4815 14.3959 20.8196 14.3959 25.3631C14.3959 29.922 18.0481 30.2755 19.0214 30.2908H19.467C20.389 30.2755 24.0925 29.922 24.0925 25.3939C24.0823 20.881 20.389 20.502 19.4414 20.4764Z" fill="#86888C"/>
</svg>
