<svg width="20" height="20" viewBox="0 0 20 20" fill="none" xmlns="http://www.w3.org/2000/svg">
<path fill-rule="evenodd" clip-rule="evenodd" d="M15.9956 9.39215C15.9979 9.39215 15.9956 13.5879 15.9979 15.6574C15.9979 16.3859 15.777 16.9641 15.3376 17.3785C14.6114 18.066 13.5619 17.9977 13.5186 17.9954L6.43383 18C5.63247 18 5.0064 17.761 4.57384 17.2897C3.94095 16.5999 4.00014 15.6733 4.00242 15.6346L4.00014 9.34434C4.00014 8.60899 4.22552 8.02618 4.66719 7.61412C5.07925 7.22937 5.59376 7.0905 5.96713 7.04269V6.07513C5.96713 3.09732 7.95005 2.01821 9.80549 2C9.92387 2 10.0491 2.00228 10.1584 2.00228C11.6518 2.0387 13.4207 2.81275 13.8988 4.87763C13.9603 5.14172 13.7987 5.40581 13.5391 5.46727C13.2819 5.52874 13.0201 5.3671 12.9563 5.10302C12.5124 3.18611 10.6843 2.99488 10.1333 2.98122C10.0354 2.97894 9.91932 2.97894 9.81232 2.97894C8.94721 2.98577 6.93241 3.3045 6.93241 6.07285V7.01992C8.25284 7.01764 11.8408 7.01309 13.5482 7.01309C14.3655 7.01309 15.0007 7.25441 15.4355 7.7325C16.0662 8.42686 15.9979 9.34889 15.9956 9.39215ZM9.96713 13.5925H9.79866C8.69678 13.5766 8.69678 12.7092 8.69678 12.3836C8.69678 12.0603 8.69678 11.1998 9.77817 11.1884H9.81232C9.85785 11.1884 9.90566 11.1907 9.94892 11.1907C11.0667 11.218 11.0667 12.1059 11.0667 12.3973C11.069 12.7183 11.069 13.5743 9.96713 13.5925ZM9.97396 10.2117C9.92615 10.2094 9.86923 10.2094 9.8146 10.2094H9.77134C9.33878 10.214 7.7315 10.3643 7.7315 12.3836C7.7315 14.4098 9.35472 14.5669 9.78728 14.5737H9.98534C10.3951 14.5669 12.0411 14.4098 12.0411 12.3973C12.0366 10.3916 10.3951 10.2231 9.97396 10.2117Z" fill="#86888C"/>
</svg>
