<svg width="40" height="40" viewBox="0 0 40 40" fill="none" xmlns="http://www.w3.org/2000/svg">
<path fill-rule="evenodd" clip-rule="evenodd" d="M20.2714 25.9488C20.2919 25.9334 20.3073 25.9232 20.3278 25.9129C20.338 25.9078 20.3534 25.8976 20.3688 25.8924C20.4046 25.8771 20.4353 25.8668 20.4712 25.8566C20.5787 25.831 20.6914 25.8259 20.7939 25.8515C20.8348 25.8617 20.8758 25.872 20.9168 25.8873H20.9219C20.9629 25.9027 20.9987 25.9232 21.0346 25.9488C21.1216 26.0102 21.1985 26.0922 21.2548 26.1844C21.2753 26.2151 21.306 26.2407 21.3163 26.2766L21.3214 26.2817L21.3316 26.2971V26.3022L21.5519 26.8143C21.5877 26.9065 21.6082 27.0038 21.6082 27.1012C21.6082 27.388 21.4443 27.6594 21.1626 27.7772C21.0755 27.8079 20.9731 27.8335 20.886 27.8335C20.758 27.8335 20.63 27.7977 20.5224 27.7362C20.507 27.7311 20.4968 27.7209 20.4866 27.7106C20.4507 27.6901 20.42 27.6645 20.3892 27.6389C20.3124 27.5723 20.251 27.4853 20.21 27.3828L20.1997 27.3572L20.1946 27.3624L20.1844 27.3777C20.1383 27.4955 20.0615 27.5928 19.9693 27.6645C19.9641 27.6697 19.959 27.6697 19.9539 27.6748L19.9078 27.7055C19.8976 27.7106 19.8873 27.7209 19.8771 27.726C19.7644 27.7926 19.6364 27.8284 19.5134 27.8284C19.452 27.8284 19.3956 27.8182 19.3393 27.8028C19.3086 27.7926 19.2727 27.7823 19.242 27.7721H19.2369H19.2318H19.2266C19.2113 27.767 19.1908 27.7567 19.1754 27.7465C19.1344 27.7209 19.1037 27.6901 19.0627 27.6645C19.0474 27.6543 19.0269 27.644 19.0064 27.6287C19.0013 27.6236 18.991 27.6184 18.9859 27.6133C18.9501 27.5775 18.9296 27.5314 18.904 27.4904L18.8579 27.4136C18.8271 27.3572 18.8067 27.3009 18.7913 27.2394C18.781 27.1985 18.7759 27.1524 18.7759 27.1063C18.7759 27.0141 18.7913 26.9219 18.8271 26.8348C18.8271 26.8297 18.8323 26.8246 18.8323 26.8195L18.8425 26.799L18.8528 26.7682L19.0525 26.2766C19.1293 26.0973 19.2779 25.9693 19.4469 25.8976C19.452 25.8976 19.452 25.8924 19.4571 25.8924H19.4622C19.4725 25.8924 19.4827 25.8924 19.4878 25.8873C19.6159 25.8412 19.7542 25.831 19.8924 25.8617C19.9334 25.872 19.9744 25.8822 20.0102 25.8976C20.0768 25.9283 20.128 25.9744 20.1844 26.0154C20.2202 25.9898 20.2458 25.9693 20.2714 25.9488ZM16.2766 25.4725C16.21 25.4571 16.1434 25.4264 16.0819 25.3956C16.0154 25.3649 15.9539 25.3342 15.8976 25.283C15.8054 25.1857 15.749 25.073 15.7234 24.9552C15.7132 24.9091 15.7029 24.8579 15.7029 24.8118C15.7029 24.7964 15.6927 24.7811 15.6927 24.7657V24.7196C15.7029 24.5455 15.7746 24.3764 15.8976 24.2484L16.4968 23.6492L15.8976 23.0499C15.7849 22.9373 15.7183 22.7939 15.6978 22.6453C15.6927 22.6095 15.6876 22.5685 15.6876 22.5327C15.6876 22.5275 15.6927 22.5275 15.6927 22.5224C15.6927 22.4814 15.6978 22.4353 15.7081 22.3944C15.7337 22.2561 15.7951 22.1178 15.9027 22.0102C16.0102 21.9078 16.1383 21.8464 16.2714 21.8156C16.3432 21.8003 16.4149 21.7951 16.4866 21.8003C16.6504 21.8156 16.8143 21.8822 16.9373 22.0051L17.5365 22.6044L18.1357 22.0051C18.2586 21.8822 18.4174 21.8156 18.5813 21.8003C18.6479 21.7951 18.7196 21.7951 18.7862 21.8105C18.9245 21.8361 19.0576 21.9027 19.1703 22.0051C19.283 22.1229 19.3342 22.2663 19.3547 22.42C19.3598 22.4405 19.3598 22.4558 19.3649 22.4763C19.37 22.5019 19.37 22.5275 19.37 22.5583V22.5787C19.3598 22.7529 19.2983 22.9168 19.1703 23.0448L18.5711 23.644L19.1703 24.2433C19.283 24.356 19.3496 24.5045 19.37 24.6581C19.3752 24.6889 19.3752 24.7247 19.3752 24.7554C19.3752 24.7862 19.37 24.822 19.3598 24.8528C19.3547 24.8732 19.3496 24.8886 19.3444 24.9091C19.3188 25.0423 19.2676 25.1754 19.1652 25.283C19.114 25.3291 19.0525 25.3598 18.9962 25.3905C18.9398 25.4213 18.8784 25.452 18.822 25.4674C18.8169 25.4674 18.8118 25.4725 18.8015 25.4725C18.7503 25.4878 18.6991 25.493 18.6479 25.493C18.5147 25.493 18.3867 25.4469 18.2689 25.37C18.2586 25.3649 18.2484 25.3547 18.233 25.3444C18.1972 25.3188 18.1613 25.3086 18.1306 25.2779L17.5365 24.6786L16.9424 25.2779C16.9065 25.3188 16.8604 25.3342 16.8143 25.3649H16.8092C16.6914 25.4417 16.5583 25.493 16.4251 25.493C16.3688 25.4878 16.3227 25.4827 16.2766 25.4725C16.3227 25.4827 16.3739 25.493 16.42 25.493C16.5583 25.493 16.6863 25.4417 16.8041 25.3649L16.8092 25.3598L16.2766 25.4725ZM18.0999 18.548C16.5583 19.0192 14.6889 20.2945 14.6889 23.7158C14.6889 25.4059 15.1549 26.5839 15.8054 27.388C15.8566 27.4494 15.9078 27.5058 15.959 27.5672C16.251 27.8899 16.5736 28.146 16.9065 28.3508V28.7452C16.9065 28.8886 16.9168 29.0218 16.9424 29.1447C16.9885 29.3752 17.0704 29.5749 17.1985 29.7337C17.2446 29.79 17.2907 29.8412 17.347 29.8873C17.6236 30.1383 18.0179 30.2663 18.525 30.2663H21.7311C22.2433 30.2663 22.6325 30.1332 22.9142 29.8873C22.9603 29.8515 23.0013 29.8054 23.0371 29.7644C23.242 29.5186 23.3393 29.1703 23.3393 28.7503V28.356C24.5173 27.6236 25.5519 26.2663 25.5519 23.7516C25.5519 21.8617 24.9629 20.6223 24.1741 19.8131C24.0359 19.6697 23.8873 19.5416 23.7388 19.4238C22.484 18.4405 20.9424 18.3073 20.3483 18.2971C20.3278 18.2971 20.3124 18.2919 20.2919 18.2919C20.1485 18.2817 19.9846 18.2817 19.8412 18.2817C19.5032 18.2868 18.8835 18.3227 18.1869 18.5275C18.1511 18.5275 18.1255 18.5378 18.0999 18.548ZM15.2625 9.32394C14.6581 9.32394 14.1716 8.83227 14.1716 8.22791V6.22023C14.1716 5.61588 14.6633 5.1242 15.2625 5.1242C15.8668 5.1242 16.3534 5.61588 16.3534 6.22023V8.22791C16.3534 8.83227 15.8668 9.32394 15.2625 9.32394ZM18.3816 9.32394C17.7772 9.32394 17.2907 8.83227 17.2907 8.22791V6.22023C17.2907 5.61588 17.7823 5.1242 18.3816 5.1242C18.9859 5.1242 19.4725 5.61588 19.4725 6.22023V8.22791C19.4725 8.83227 18.9859 9.32394 18.3816 9.32394ZM21.5006 9.32394C20.8963 9.32394 20.4097 8.83227 20.4097 8.22791V6.22023C20.4097 5.61588 20.9014 5.1242 21.5006 5.1242C22.105 5.1242 22.5915 5.61588 22.5915 6.22023V8.22791C22.5967 8.83227 22.105 9.32394 21.5006 9.32394ZM24.6248 9.32394C24.0205 9.32394 23.5339 8.83227 23.5339 8.22791V6.22023C23.5339 5.61588 24.0256 5.1242 24.6248 5.1242C25.2292 5.1242 25.7157 5.61588 25.7157 6.22023V8.22791C25.7157 8.83227 25.2241 9.32394 24.6248 9.32394ZM10.274 15.4545H29.726C29.4904 13.8207 28.7068 12.7196 27.3956 12.1972C27.0166 12.4174 26.5762 12.5608 26.0999 12.5608H13.7721C13.3367 12.5608 12.9424 12.4277 12.5787 12.2382C12.1434 12.4277 11.749 12.6479 11.4315 12.9552C10.8118 13.5544 10.4225 14.3892 10.274 15.4545ZM25.1063 35.8079C27.493 35.8079 28.968 34.8604 29.5365 32.9859H10.4635C10.6684 33.6569 10.9859 34.2151 11.4264 34.6556C12.21 35.4136 13.3931 35.8079 14.9193 35.8079H25.1063ZM13.3777 4.60691V9.95903C13.3777 10.1793 13.5519 10.3688 13.7721 10.3688H26.0999C26.3355 10.3688 26.5096 10.1793 26.5096 9.95903V4.60691C26.5096 4.38668 26.3355 4.19718 26.0999 4.19718H13.7721C13.5519 4.19718 13.3777 4.38668 13.3777 4.60691ZM28.6607 10.338C30.8169 11.4033 31.9949 13.5851 31.9949 16.5506L31.9795 31.0397C31.9795 35.3982 29.4033 38 25.1063 38H14.9193C12.8041 38 11.1191 37.4008 9.91037 36.233C8.64533 35.0038 8 33.2676 8 31.0448V16.5506C8 14.3432 8.6402 12.6069 9.92574 11.3726C10.3047 10.9936 10.7554 10.7017 11.2369 10.4353C11.2113 10.2919 11.1959 10.1127 11.1959 9.95391V4.60179C11.1959 3.16773 12.3483 2 13.7721 2H26.0999C27.5288 2 28.6965 3.16773 28.6965 4.60179V9.95391C28.6914 10.0871 28.6761 10.2202 28.6607 10.338ZM21.1729 23.0448C21.0346 22.9065 20.9629 22.717 20.9629 22.5275C20.9629 22.5224 20.968 22.5224 20.968 22.5173C20.9731 22.3329 21.0397 22.1485 21.1729 22.0051C21.4648 21.7286 21.9309 21.7286 22.2074 22.0051L22.8067 22.6044L23.4059 22.0051C23.6825 21.7286 24.1485 21.7286 24.4405 22.0051C24.5378 22.1127 24.589 22.2407 24.6197 22.3739C24.6402 22.461 24.6453 22.548 24.63 22.6351C24.6044 22.7836 24.5531 22.9321 24.4405 23.0397L23.8412 23.6389L24.4405 24.2382C24.5634 24.3611 24.6248 24.525 24.6351 24.6889C24.6453 24.7759 24.6351 24.8579 24.6095 24.9449C24.5787 25.0627 24.5275 25.1805 24.4353 25.2779C24.3841 25.3239 24.3278 25.3496 24.2663 25.3803C24.1537 25.4417 24.0359 25.4878 23.9129 25.4878C23.7644 25.4878 23.6261 25.4315 23.4981 25.3393C23.4674 25.3188 23.4264 25.3035 23.3956 25.2779L22.7964 24.6786L22.1972 25.2779C22.1562 25.3137 22.1152 25.3342 22.0743 25.3547C21.9565 25.4315 21.8233 25.4827 21.685 25.4827C21.5672 25.4827 21.4545 25.4469 21.347 25.3854C21.2804 25.3547 21.219 25.3239 21.1626 25.2727C21.0397 25.1396 20.9782 24.9706 20.9629 24.7964C20.9629 24.7811 20.9526 24.7657 20.9526 24.7503C20.9526 24.5608 21.0243 24.3713 21.1626 24.233L21.7618 23.6338L21.1729 23.0448Z" fill="#86888C"/>
</svg>
