<svg width="24" height="24" viewBox="0 0 24 24" fill="none" xmlns="http://www.w3.org/2000/svg">
<path fill-rule="evenodd" clip-rule="evenodd" d="M18.9503 11.8993C18.8144 12.0269 18.6201 12.0907 18.3704 12.0907C18.1207 12.0907 17.9264 12.0269 17.7905 11.8993C17.6489 11.7661 17.5796 11.5718 17.5796 11.3138C17.5796 11.0557 17.6517 10.8587 17.7905 10.7255C17.9264 10.5979 18.1207 10.5313 18.3704 10.5313C18.6201 10.5313 18.8144 10.5979 18.9503 10.7255C19.0918 10.8587 19.164 11.0557 19.164 11.3138C19.1612 11.5718 19.0891 11.7688 18.9503 11.8993ZM17.3465 10.3454C17.2133 10.473 17.0163 10.5368 16.7665 10.5368C16.5196 10.5368 16.3226 10.473 16.1866 10.3454C16.0479 10.2122 15.9785 10.0124 15.9785 9.75987C15.9785 9.50459 16.0506 9.30758 16.1866 9.17439C16.3226 9.04397 16.5168 8.98015 16.7665 8.98015C17.0163 8.98015 17.2105 9.04397 17.3465 9.17439C17.488 9.30758 17.5574 9.50459 17.5574 9.75987C17.5574 10.0152 17.488 10.2122 17.3465 10.3454ZM17.3465 13.4559C17.2133 13.5863 17.0163 13.6502 16.7665 13.6502C16.5196 13.6502 16.3226 13.5863 16.1866 13.4559C16.0479 13.3227 15.9785 13.1257 15.9785 12.8704C15.9785 12.6152 16.0506 12.4181 16.1866 12.285C16.3226 12.1545 16.5168 12.0907 16.7665 12.0907C17.0163 12.0907 17.2105 12.1573 17.3465 12.285C17.488 12.4181 17.5574 12.6152 17.5574 12.8704C17.5574 13.1257 17.488 13.3227 17.3465 13.4559ZM15.7426 11.8993C15.6067 12.0269 15.4124 12.0907 15.1627 12.0907C14.913 12.0907 14.7187 12.0269 14.5828 11.8993C14.444 11.7661 14.3719 11.5718 14.3719 11.3138C14.3719 11.0557 14.444 10.8587 14.5828 10.7255C14.7187 10.5979 14.913 10.5313 15.1627 10.5313C15.4124 10.5313 15.6067 10.5979 15.7426 10.7255C15.8814 10.8587 15.9535 11.0557 15.9535 11.3138C15.9563 11.5718 15.8842 11.7688 15.7426 11.8993ZM10.8784 12.0852C10.6925 12.26 10.4206 12.3488 10.0681 12.3488H9.95716L9.95993 12.371C9.97381 12.432 9.97936 12.4958 9.97936 12.5458C9.97936 12.9065 9.88224 13.1812 9.69355 13.3588C9.51041 13.5336 9.23571 13.6224 8.8833 13.6224C8.52813 13.6224 8.2562 13.5336 8.07306 13.3588C7.88715 13.1868 7.79003 12.9093 7.79003 12.5458C7.79003 12.5125 7.80113 12.4265 7.80668 12.3904C7.76505 12.3959 7.73453 12.3959 7.64019 12.3959C7.28501 12.3959 7.01308 12.3072 6.82717 12.1323C6.64125 11.9575 6.54414 11.6828 6.54414 11.3193C6.54414 10.9558 6.64125 10.6839 6.82994 10.5007C7.0103 10.3287 7.28501 10.2399 7.63741 10.2399C7.66794 10.2399 7.75395 10.2482 7.7817 10.251H7.80113C7.79558 10.2011 7.79003 10.1511 7.79003 10.0928C7.79003 9.72935 7.88715 9.45464 8.07861 9.27705C8.25897 9.10502 8.5309 9.01622 8.88608 9.01622C9.23848 9.01622 9.51041 9.10502 9.69632 9.27983C9.88779 9.46019 9.98213 9.7349 9.98213 10.0956C9.98213 10.115 9.97935 10.165 9.97658 10.2011C9.99323 10.1983 10.0265 10.1955 10.0709 10.1955C10.4233 10.1955 10.6953 10.2843 10.8812 10.4591C11.0726 10.645 11.167 10.9197 11.167 11.2777C11.1642 11.6301 11.0671 11.9048 10.8784 12.0852ZM20.3932 8.29477C20.335 8.15325 20.285 8.03116 20.2434 7.93682C20.2045 7.84525 20.1879 7.82028 20.1768 7.79808L20.1185 7.68709C19.9687 7.4207 19.7966 7.17375 19.5774 6.96564C18.9032 6.32465 17.9486 6 16.7388 6C16.2421 6 15.7981 6.06937 15.3902 6.17481C15.1488 6.23863 14.6133 6.47449 14.6022 6.48004C14.6022 6.48004 14.1915 6.71035 14.0611 6.79915C13.6643 7.06553 13.2065 7.19872 12.7486 7.19872C12.288 7.19872 11.8302 7.06553 11.4361 6.79915C11.3029 6.71035 10.895 6.48004 10.895 6.48004C10.8867 6.47449 10.3512 6.23863 10.1098 6.17481C9.70187 6.0666 9.2579 6 8.76121 6C7.55139 6 6.59686 6.32465 5.92535 6.96564C5.70614 7.17375 5.5341 7.4207 5.38149 7.68709L5.32599 7.79808C5.31489 7.82028 5.29824 7.84803 5.2594 7.93682C5.21778 8.03116 5.16505 8.15325 5.10678 8.29477C4.55182 9.62668 2.96185 12.8815 3.0007 15.7229C3.00625 16.1336 3.16164 16.9494 3.28373 17.3434C3.52514 18.1287 4.08843 18.6337 4.70721 18.8363C4.95972 18.9195 5.30102 18.9778 5.54798 18.9972C5.57295 18.9972 5.59792 19 5.62567 19C5.97252 19 6.56633 18.8585 6.87434 18.7197C7.06303 18.6337 7.32663 18.495 7.63741 18.2286C7.82332 18.0677 7.90379 17.9622 8.2118 17.5821C8.42823 17.3157 8.6197 17.0243 8.86943 16.7857C9.44382 16.2363 10.1764 15.845 11.0449 15.6036C11.5998 15.451 12.177 15.3705 12.7542 15.3705C13.3313 15.3705 13.9057 15.4482 14.4607 15.6036C15.332 15.8478 16.0617 16.2363 16.6361 16.7857C16.8886 17.0243 17.0801 17.3157 17.2965 17.5821C17.6045 17.9594 17.685 18.0677 17.8709 18.2286C18.1817 18.495 18.4592 18.6337 18.6479 18.7197C18.9809 18.8668 19.6302 18.9972 19.9604 18.9972C20.2073 18.9972 20.5486 18.9195 20.8011 18.8363C21.4171 18.6337 21.9832 18.1287 22.2246 17.3434C22.3439 16.9522 22.4993 16.1336 22.5049 15.7229C22.5382 12.8843 20.9482 9.62946 20.3932 8.29477Z" fill="#86888C"/>
</svg>
