<svg width="40" height="40" viewBox="0 0 40 40" fill="none" xmlns="http://www.w3.org/2000/svg">
<path fill-rule="evenodd" clip-rule="evenodd" d="M33.9061 35.2441C36.9707 34.9998 37.4648 32.5459 37.537 31.0802H33.9061V35.2441ZM3.45459 31.1135C3.51011 31.8186 3.72663 33.1066 4.5816 34.0227C5.16454 34.6389 6.00286 35.022 7.09101 35.1719V31.1135H3.45459ZM5.12568 5.19227C4.7315 5.4421 3.61004 6.20825 3.4657 8.77317H7.09101V4.53716C6.52473 4.60378 5.78634 4.76479 5.12568 5.19227ZM37.5536 8.74541C37.5203 8.0792 37.3482 6.70236 36.4544 5.73635C35.877 5.109 35.022 4.72037 33.9117 4.56492V8.74541H37.5536ZM33.9061 28.6041H37.5536V24.4681H33.9061V28.6041ZM33.9061 15.3631H37.5536V11.2271H33.9061V15.3631ZM33.9061 21.9809H37.5536V17.8448H33.9061V21.9809ZM3.43794 28.6319H7.08546V24.4958H3.43794V28.6319ZM3.43794 15.3798H7.09101V11.2548H3.43794V15.3798ZM3.43794 17.8614V22.0086H7.08546V17.8614H3.43794ZM32.7791 2.00555C40.5571 2.00555 39.9909 9.3339 39.9909 9.3339C39.9909 9.3339 39.9964 22.1308 39.9964 30.3807C39.9964 37.1428 35.1553 37.7535 33.4064 37.7535C33.0234 37.7535 32.7846 37.7202 32.7846 37.7202H8.1736C0.517702 37.7202 1.00626 30.4196 1.00626 30.4196C1.00626 30.4196 1.00071 17.223 1.00071 9.28949C1.00071 2.48301 6.26379 2 7.75722 2C8.0015 2 8.14585 2.0111 8.14585 2.0111C8.14585 2.0111 25.001 2.00555 32.7791 2.00555ZM16.0349 24.9955V14.7635L24.7346 19.8823L16.0349 24.9955ZM27.788 18.8052L15.4242 11.5435C15.0467 11.3214 14.5804 11.3214 14.2028 11.5435C13.8253 11.7656 13.5921 12.1764 13.5921 12.6206V27.1496C13.5921 27.5937 13.8253 28.0045 14.2028 28.2211C14.3916 28.3321 14.6026 28.3876 14.8135 28.3876C15.0245 28.3876 15.2355 28.3321 15.4242 28.2211L27.7825 20.9593C28.16 20.7373 28.3932 20.3264 28.3932 19.8823C28.3932 19.4381 28.1656 19.0273 27.788 18.8052V18.8052Z" fill="#86888C"/>
</svg>
