<svg width="29" height="28" viewBox="0 0 29 28" fill="none" xmlns="http://www.w3.org/2000/svg">
<path d="M26.0431 13.5493L26.0363 13.5428C22.2115 9.86513 18.2463 8 14.2606 8C12.6889 8 11.0966 8.29605 9.5352 8.87829L8.86407 9.14145L8.85379 9.14474C6.6863 10.0658 4.52222 11.5592 2.41293 13.5855C2.29651 13.6974 2.22803 13.8586 2.22803 14.0197C2.22803 14.1776 2.29309 14.3355 2.40951 14.4507L2.41636 14.4572C6.24115 18.1349 10.2063 20 14.1921 20C15.7672 20 17.356 19.7039 18.9174 19.1217L19.5886 18.8586L19.5988 18.8553C21.7663 17.9309 23.9338 16.4375 26.0397 14.4145C26.1595 14.2993 26.228 14.1414 26.228 13.977C26.2246 13.8224 26.1595 13.6645 26.0431 13.5493ZM17.5032 17.2829C16.7294 18.0263 15.6028 18.4046 14.1544 18.4046C12.706 18.4046 11.5794 18.0263 10.8056 17.2829C10.0317 16.5395 9.63793 15.4572 9.63793 14.0658C9.63793 12.6743 10.0317 11.5921 10.8056 10.8487C11.5794 10.102 12.706 9.72697 14.1544 9.72697C15.572 9.72697 16.6849 10.0921 17.4587 10.8092C18.2634 11.5559 18.6709 12.6513 18.6709 14.0691C18.6743 15.4572 18.2805 16.5395 17.5032 17.2829Z" fill="#86888C"/>
<path d="M14.1541 10.8159C13.0412 10.8159 12.1955 11.0758 11.6373 11.5922C11.0621 12.1251 10.771 12.9574 10.771 14.0659C10.771 15.1745 11.0621 16.0067 11.6373 16.5396C12.192 17.0528 13.0378 17.3126 14.1541 17.3126C15.2669 17.3126 16.1161 17.0528 16.6708 16.5396C17.2461 16.0067 17.5372 15.1778 17.5372 14.0692C17.5372 12.9607 17.2461 12.1284 16.6708 11.5955C16.1161 11.0791 15.2669 10.8159 14.1541 10.8159ZM14.1541 15.737C13.0173 15.737 12.4146 15.158 12.4146 14.0659C12.4146 12.9738 13.0173 12.3949 14.1541 12.3949C14.7088 12.3949 15.1402 12.533 15.4347 12.806C15.7395 13.0889 15.8936 13.5133 15.8936 14.0659C15.8936 15.158 15.2943 15.737 14.1541 15.737Z" fill="#86888C"/>
</svg>
