<svg width="41" height="40" viewBox="0 0 41 40" fill="none" xmlns="http://www.w3.org/2000/svg">
<path d="M28.9704 27.3029C31.9897 25.8452 34.9833 23.638 37.9256 20.6917C38.1204 20.4966 38.228 20.2348 38.228 19.9628C38.228 19.6907 38.1204 19.429 37.9256 19.239C32.1947 13.4901 26.2588 10.5797 20.2819 10.5797C18.0213 10.5797 15.7658 10.9955 13.5206 11.827L4.00163 2.30028C3.6018 1.89991 2.95592 1.89991 2.55609 2.30028C2.15626 2.70065 2.15626 3.35253 2.55609 3.75291L11.4907 12.6997C8.46639 14.1574 5.47279 16.3646 2.53046 19.3109C2.3408 19.506 2.22803 19.7677 2.22803 20.0398C2.22803 20.3118 2.33567 20.5736 2.53046 20.7635C8.26647 26.5073 14.2024 29.4177 20.1793 29.4177C22.4399 29.4177 24.6953 29.0019 26.9405 28.1704L36.4544 37.6972C36.6543 37.8973 36.9158 38 37.1772 38C37.4386 38 37.7 37.8973 37.9 37.6972C38.2998 37.2968 38.2998 36.6449 37.9 36.2445L28.9704 27.3029ZM22.6244 20.9483L19.2618 17.5811C19.554 17.4682 19.8513 17.4579 20.1845 17.4579C21.7325 17.4579 22.7321 18.4588 22.7321 20.0141C22.7321 20.3272 22.7218 20.6403 22.6244 20.9483V20.9483ZM25.7359 24.064L24.598 22.9245C24.9465 22.1751 25.1208 21.2614 25.1208 20.1835C25.1208 18.4332 24.6595 17.1037 23.747 16.2363C22.8807 15.4099 21.6095 14.9941 19.9692 14.9941C18.8927 14.9941 17.97 15.1737 17.2216 15.533L16.0836 14.3935C17.1294 13.7673 18.4314 13.4491 19.9692 13.4491C24.2238 13.4491 26.6637 15.9026 26.6637 20.1835C26.6586 21.7183 26.3459 23.0169 25.7359 24.064V24.064Z" fill="#86888C"/>
</svg>
