<svg width="40" height="40" viewBox="0 0 40 40" fill="none" xmlns="http://www.w3.org/2000/svg">
<path fill-rule="evenodd" clip-rule="evenodd" d="M16.2839 27.0705C16.883 26.8862 17.5179 27.219 17.7022 27.8232C17.8815 28.4121 17.5537 29.0419 16.9495 29.2211L15.2444 29.7485C15.3673 30.5166 15.3366 31.1772 15.1983 31.7507L16.6474 32.5187C17.2056 32.8055 17.4155 33.4968 17.1134 34.0395C16.9188 34.4338 16.5245 34.6437 16.12 34.6437C15.9408 34.6437 15.7565 34.613 15.5926 34.5209L14.1179 33.7425C13.6058 34.2802 13.0016 34.6591 12.5203 34.9151L13.0477 36.6305C13.2269 37.2194 12.8992 37.8492 12.295 38.0438C12.1875 38.0745 12.0697 38.0898 11.9622 38.0898C11.4808 38.0898 11.0302 37.7724 10.8766 37.291L10.3492 35.5757C10.0932 35.6064 9.82179 35.6371 9.51968 35.6371C9.15613 35.6371 8.76697 35.591 8.37269 35.504L7.57389 36.9941C7.37932 37.3679 6.98504 37.5983 6.58052 37.5983C6.4013 37.5983 6.21696 37.5522 6.05311 37.46C5.51033 37.1733 5.30039 36.482 5.58202 35.9444L6.36546 34.4543C5.93021 34.0651 5.53594 33.5377 5.2031 32.8465C5.2031 32.8465 5.2031 32.8618 5.18774 32.8618L3.46725 33.3892C3.34436 33.4353 3.24195 33.4507 3.13442 33.4507C2.65309 33.4507 2.20249 33.1383 2.04888 32.6519C1.86966 32.0528 2.19737 31.4178 2.80159 31.2386L4.52208 30.7112C4.53744 30.6958 4.53744 30.7112 4.5528 30.6958C4.42991 29.9431 4.44527 29.2979 4.56816 28.7244L3.10882 27.941C2.55068 27.6543 2.34074 26.963 2.64285 26.4202C2.9296 25.8621 3.62087 25.6521 4.16364 25.9389L5.6281 26.7223C6.14015 26.1642 6.74437 25.7904 7.24106 25.5497L6.71365 23.8344C6.53443 23.2455 6.86727 22.6157 7.46636 22.4365C8.05522 22.2521 8.69016 22.585 8.88474 23.1738L9.41215 24.9046C9.66818 24.8738 9.93957 24.8431 10.257 24.8431C10.6001 24.8431 10.9944 24.8892 11.3887 24.9762L12.1721 23.4862C12.4742 22.9332 13.1501 22.7181 13.7083 23.0049C14.251 23.307 14.461 23.9829 14.1742 24.541L13.4061 26.0003C13.8414 26.3895 14.251 26.922 14.5839 27.6133L16.2839 27.0705ZM37.1909 24.075C37.79 24.2696 38.1279 24.9046 37.9436 25.4883C37.79 25.9696 37.3394 26.2871 36.858 26.2871C36.7556 26.2871 36.6327 26.2717 36.5303 26.2256L35.0403 25.7597C34.8559 26.241 34.5743 26.707 34.2261 27.1576L35.3731 28.3046C35.8083 28.7398 35.8083 29.4464 35.3731 29.897C35.1478 30.107 34.861 30.2299 34.5743 30.2299C34.2875 30.2299 34.0008 30.107 33.7755 29.897L32.6439 28.7705C32.2547 29.088 31.7836 29.385 31.2562 29.6001L31.7068 31.0594C31.886 31.6431 31.5583 32.2934 30.9695 32.4727C30.8466 32.5034 30.7442 32.5187 30.6213 32.5187C30.1399 32.5187 29.6996 32.2218 29.5511 31.7404L29.0083 30.0404C28.4809 30.0251 27.892 29.9329 27.2622 29.7229C27.0523 29.6615 26.8423 29.5745 26.6119 29.4823L26.4788 30.6088C26.4173 31.1823 25.9206 31.5868 25.3625 31.5868H25.2294C24.6098 31.51 24.1592 30.9416 24.2514 30.322L24.492 28.3967C23.8417 27.9922 23.1658 27.5109 22.4438 26.9374L21.6758 28.4582C21.4812 28.8473 21.0767 29.0726 20.667 29.0726C20.5032 29.0726 20.3239 29.0266 20.155 28.9498C19.5968 28.663 19.3715 27.9871 19.6583 27.429L20.6568 25.4576C19.9348 24.8277 19.1513 24.1058 18.3525 23.3223L16.8625 24.8124C16.6372 25.0223 16.3504 25.1452 16.0637 25.1452C15.7769 25.1452 15.4748 25.0223 15.2649 24.8124C14.8296 24.3618 14.8296 23.6552 15.2649 23.2199L16.7601 21.7298C15.9613 20.9208 15.2546 20.1527 14.6043 19.4154L12.6278 20.4088C12.4793 20.4958 12.3001 20.5265 12.1311 20.5265C11.7113 20.5265 11.317 20.3012 11.1224 19.9121C10.8357 19.3539 11.061 18.678 11.6191 18.3913L13.1245 17.6232C12.9914 17.444 12.8531 17.275 12.72 17.0958C12.3257 16.5684 11.998 16.0768 11.6959 15.5904L9.75011 15.831H9.60161C9.04348 15.831 8.56215 15.4112 8.48534 14.8377C8.41366 14.2232 8.8489 13.6651 9.46848 13.5883L10.6155 13.4398C10.5233 13.2452 10.467 13.0506 10.4055 12.8663C10.1956 12.216 10.1034 11.6169 10.0881 11.0741L8.34197 10.5211C7.73775 10.3367 7.42028 9.70691 7.60462 9.10782C7.78384 8.51896 8.41878 8.17589 9.023 8.37046L10.5438 8.83131C10.7537 8.31926 11.0558 7.86866 11.3579 7.49486L10.1802 6.3069C9.74499 5.87166 9.74499 5.14967 10.1802 4.71443C10.6155 4.27919 11.3426 4.27919 11.7778 4.71443L12.9709 5.90238C13.3652 5.60027 13.8004 5.31353 14.3125 5.10359L13.8311 3.55207C13.6366 2.96834 13.9694 2.3334 14.5736 2.13882C15.1625 1.9596 15.8077 2.28731 15.992 2.87617L16.5501 4.67858C17.0929 4.69395 17.6664 4.78611 18.2962 4.98069C18.4959 5.03702 18.6905 5.11383 18.9004 5.19063L19.0489 4.00268C19.1411 3.38822 19.6992 2.94786 20.3137 3.02466C20.9333 3.11683 21.3685 3.66985 21.2968 4.28943L21.0408 6.30178C21.686 6.69094 22.367 7.17739 23.0736 7.7304L23.8724 6.15329C24.1438 5.59515 24.8197 5.36985 25.3932 5.6566C25.9514 5.94335 26.1613 6.61925 25.8899 7.17739L24.8658 9.20511C25.5878 9.84005 26.3559 10.5467 27.1547 11.3404L28.6908 9.78884C29.1414 9.3536 29.8481 9.3536 30.2884 9.78884C30.739 10.2394 30.739 10.9461 30.2884 11.3813L28.7523 12.9175C29.5357 13.7111 30.2423 14.4843 30.8926 15.2012L32.9255 14.1822C33.4836 13.9108 34.1646 14.1361 34.4514 14.6943C34.7228 15.2524 34.4975 15.9283 33.9393 16.1997L32.3725 16.9831C32.9306 17.7051 33.4273 18.381 33.8216 19.0313L35.8237 18.7753C36.4382 18.7139 37.0014 19.1338 37.0731 19.7533C37.1653 20.3678 36.7147 20.9413 36.0951 21.0181L34.9327 21.1666C35.2656 22.0115 35.4448 22.7898 35.4755 23.5271L37.1909 24.075Z" fill="#86888C"/>
</svg>
