<svg width="20" height="20" viewBox="0 0 20 20" fill="none" xmlns="http://www.w3.org/2000/svg">
<path fill-rule="evenodd" clip-rule="evenodd" d="M8.34838 13.1924C8.61465 13.1104 8.89685 13.2584 8.97877 13.5269C9.05843 13.7886 8.91278 14.0685 8.64424 14.1482L7.8864 14.3826C7.94102 14.724 7.92737 15.0175 7.86592 15.2724L8.50996 15.6138C8.75802 15.7412 8.85133 16.0485 8.71706 16.2897C8.63058 16.4649 8.45535 16.5582 8.27556 16.5582C8.19591 16.5582 8.11398 16.5446 8.04115 16.5036L7.38573 16.1577C7.15815 16.3967 6.88961 16.5651 6.67569 16.6789L6.91009 17.4412C6.98975 17.703 6.8441 17.9829 6.57555 18.0694C6.52776 18.083 6.47542 18.0898 6.42763 18.0898C6.2137 18.0898 6.01344 17.9487 5.94516 17.7348L5.71076 16.9724C5.59697 16.9861 5.47635 16.9997 5.34208 16.9997C5.1805 16.9997 5.00754 16.9793 4.83231 16.9406L4.47729 17.6028C4.39081 17.769 4.21557 17.8714 4.03579 17.8714C3.95613 17.8714 3.87421 17.8509 3.80138 17.8099C3.56015 17.6825 3.46684 17.3752 3.59201 17.1363L3.9402 16.474C3.74676 16.3011 3.57153 16.0667 3.4236 15.7594C3.4236 15.7594 3.4236 15.7663 3.41677 15.7663L2.65211 16.0007C2.59749 16.0212 2.55198 16.028 2.50419 16.028C2.29026 16.028 2.09 15.8892 2.02172 15.673C1.94207 15.4067 2.08772 15.1245 2.35626 15.0449L3.12092 14.8104C3.12775 14.8036 3.12775 14.8104 3.13458 14.8036C3.07996 14.4691 3.08679 14.1823 3.14141 13.9274L2.49281 13.5793C2.24475 13.4518 2.15144 13.1446 2.28571 12.9033C2.41316 12.6553 2.72039 12.562 2.96162 12.6894L3.61249 13.0376C3.84007 12.7896 4.10861 12.6234 4.32936 12.5165L4.09496 11.7541C4.0153 11.4924 4.16323 11.2124 4.4295 11.1328C4.69121 11.0509 4.97341 11.1988 5.05989 11.4605L5.29429 12.2297C5.40808 12.2161 5.5287 12.2024 5.66979 12.2024C5.82227 12.2024 5.99751 12.2229 6.17274 12.2616L6.52094 11.5993C6.65521 11.3535 6.95561 11.258 7.20367 11.3854C7.4449 11.5197 7.53821 11.8201 7.41076 12.0681L7.0694 12.7167C7.26284 12.8897 7.4449 13.1264 7.59283 13.4336L8.34838 13.1924ZM17.6404 11.861C17.9067 11.9475 18.0569 12.2297 17.9749 12.4892C17.9067 12.7031 17.7064 12.8442 17.4925 12.8442C17.4469 12.8442 17.3923 12.8373 17.3468 12.8169L16.6846 12.6098C16.6026 12.8237 16.4775 13.0308 16.3227 13.2311L16.8325 13.7408C17.0259 13.9343 17.0259 14.2483 16.8325 14.4486C16.7323 14.5419 16.6049 14.5965 16.4775 14.5965C16.35 14.5965 16.2226 14.5419 16.1224 14.4486L15.6195 13.9479C15.4465 14.089 15.2372 14.221 15.0028 14.3166L15.203 14.9652C15.2827 15.2246 15.137 15.5137 14.8753 15.5933C14.8207 15.607 14.7752 15.6138 14.7206 15.6138C14.5066 15.6138 14.3109 15.4818 14.2449 15.2679L14.0037 14.5123C13.7693 14.5055 13.5076 14.4645 13.2277 14.3712C13.1343 14.3439 13.041 14.3052 12.9386 14.2643L12.8795 14.7649C12.8521 15.0198 12.6314 15.1996 12.3833 15.1996H12.3242C12.0488 15.1655 11.8485 14.9129 11.8895 14.6375L11.9965 13.7818C11.7074 13.602 11.407 13.3881 11.0861 13.1332L10.7448 13.8091C10.6583 13.9821 10.4785 14.0822 10.2964 14.0822C10.2236 14.0822 10.144 14.0617 10.0689 14.0276C9.82081 13.9001 9.72068 13.5997 9.84812 13.3517L10.2919 12.4755C9.97101 12.1956 9.62282 11.8747 9.2678 11.5265L8.60555 12.1888C8.50541 12.2821 8.37797 12.3367 8.25053 12.3367C8.12308 12.3367 7.98881 12.2821 7.8955 12.1888C7.70206 11.9885 7.70206 11.6744 7.8955 11.481L8.56003 10.8187C8.20501 10.4592 7.89095 10.1178 7.60193 9.79008L6.72348 10.2316C6.65748 10.2703 6.57783 10.2839 6.50273 10.2839C6.31611 10.2839 6.14088 10.1838 6.0544 10.0108C5.92696 9.76277 6.02709 9.46237 6.27515 9.33493L6.94423 8.99356C6.88506 8.91391 6.82361 8.83881 6.76444 8.75916C6.58921 8.52475 6.44356 8.30628 6.30929 8.09008L5.44449 8.19704H5.37849C5.13043 8.19704 4.91651 8.01043 4.88238 7.75554C4.85051 7.48244 5.04396 7.23439 5.31932 7.20025L5.8291 7.13425C5.78813 7.04777 5.7631 6.96129 5.73579 6.87936C5.64248 6.59034 5.60152 6.32407 5.59469 6.08284L4.81865 5.83706C4.55011 5.75513 4.40901 5.47521 4.49094 5.20894C4.57059 4.94723 4.85279 4.79475 5.12133 4.88123L5.79724 5.08605C5.89054 4.85847 6.02482 4.6582 6.15909 4.49207L5.63566 3.96409C5.44222 3.77065 5.44222 3.44977 5.63566 3.25633C5.8291 3.06288 6.15226 3.06288 6.3457 3.25633L6.87596 3.78431C7.05119 3.65004 7.24463 3.52259 7.47221 3.42928L7.25829 2.73972C7.17181 2.48029 7.31973 2.19809 7.58827 2.11161C7.84999 2.03196 8.13674 2.17761 8.21867 2.43932L8.46672 3.2404C8.70796 3.24722 8.96284 3.28819 9.24276 3.37467C9.33152 3.3997 9.418 3.43384 9.51131 3.46797L9.5773 2.93999C9.61827 2.6669 9.86633 2.47118 10.1394 2.50532C10.4148 2.54628 10.6082 2.79207 10.5764 3.06744L10.4626 3.96182C10.7493 4.13478 11.052 4.35097 11.3661 4.59676L11.7211 3.89582C11.8417 3.64776 12.1421 3.54763 12.397 3.67507C12.6451 3.80251 12.7384 4.10292 12.6177 4.35097L12.1626 5.25218C12.4835 5.53438 12.8248 5.84844 13.1799 6.20118L13.8626 5.51162C14.0629 5.31818 14.3769 5.31818 14.5726 5.51162C14.7729 5.71189 14.7729 6.02595 14.5726 6.21939L13.8899 6.90212C14.2381 7.25487 14.5522 7.59851 14.8412 7.91712L15.7447 7.46424C15.9927 7.34362 16.2954 7.44376 16.4228 7.69182C16.5435 7.93988 16.4433 8.24028 16.1953 8.36089L15.4989 8.70909C15.7469 9.02997 15.9677 9.33038 16.1429 9.6194L17.0328 9.50561C17.3058 9.4783 17.5562 9.66492 17.588 9.94028C17.629 10.2134 17.4287 10.4683 17.1534 10.5024L16.6368 10.5684C16.7847 10.9439 16.8643 11.2898 16.878 11.6175L17.6404 11.861Z" fill="#86888C"/>
</svg>
