<svg width="28" height="28" viewBox="0 0 28 28" fill="none" xmlns="http://www.w3.org/2000/svg">
<path fill-rule="evenodd" clip-rule="evenodd" d="M16.4826 12.4193V11.5075C16.4826 11.1523 16.1924 10.8654 15.8372 10.8654H15.0586C15.0108 10.3395 14.9049 9.82384 14.7103 9.36281L15.7245 9.05887C16.008 8.9735 16.1992 8.70713 16.1821 8.41343L16.107 7.04059C16.0865 6.68884 15.7758 6.4532 15.4274 6.43613C15.0723 6.4532 14.7991 6.75373 14.8162 7.10889L14.864 7.98314L14.3312 8.14364C14.3449 8.04461 14.3551 7.94899 14.3551 7.83971C14.3551 5.82484 12.3813 5.82484 11.5378 5.82484C10.6944 5.82484 8.72054 5.82484 8.72054 7.83971C8.72054 7.9524 8.7342 8.05144 8.74786 8.15389L8.18099 7.98314L8.2288 7.10889C8.24587 6.75373 7.97268 6.4532 7.61753 6.43613C7.28287 6.4293 6.95845 6.68543 6.93796 7.04059L6.86283 8.41343C6.84917 8.71054 7.03699 8.97691 7.32043 9.06229L8.35856 9.37306C8.16391 9.83067 8.06147 10.3429 8.01024 10.8688H7.23164C6.87649 10.8688 6.58623 11.1523 6.58623 11.5075V12.4193C6.58623 12.7744 6.87649 13.0579 7.23164 13.0579C7.58679 13.0579 7.87706 12.7744 7.87706 12.4193V12.1495H7.96585C7.97268 12.7983 8.0239 13.4301 8.17416 13.9936L7.31702 14.2497C7.03358 14.3351 6.84234 14.6049 6.85942 14.8986L6.93455 16.268C6.95504 16.6095 7.23847 16.8759 7.57996 16.8759H7.61753C7.97268 16.8588 8.24587 16.5549 8.2288 16.2031L8.18099 15.3323L8.7342 15.165C9.25669 15.8377 10.1172 16.2646 11.5344 16.2646C12.9448 16.2646 13.8053 15.8411 14.3278 15.1718L14.8606 15.3323L14.8127 16.2031C14.7957 16.5583 15.0689 16.8588 15.424 16.8759H15.4616C15.8031 16.8759 16.0865 16.6129 16.107 16.268L16.1821 14.8952C16.1958 14.5981 16.008 14.3317 15.7245 14.2463L14.8913 13.997C15.045 13.4301 15.0962 12.7983 15.0996 12.1461H15.1884V12.4159C15.1884 12.771 15.4787 13.0545 15.8372 13.0545C16.1924 13.0613 16.4826 12.7744 16.4826 12.4193ZM25.7814 24.7373C26.0717 25.0242 26.0717 25.4886 25.7883 25.7755L25.7814 25.7823C25.4912 26.0726 25.0199 26.0726 24.7262 25.7823L17.6232 18.7405C15.9089 20.1509 13.7575 20.9193 11.5413 20.9159C6.26864 20.9159 2 16.6812 2 11.4562C2 6.23464 6.26864 2 11.5378 2C16.8071 2 21.0757 6.23464 21.0757 11.4562C21.0757 13.7614 20.2254 15.988 18.6853 17.7057C18.6887 17.7057 25.7814 24.7373 25.7814 24.7373ZM10.0216 7.84995V7.82946C10.0216 7.406 10.0216 7.09864 11.5447 7.09864C12.4974 7.09864 12.856 7.21817 12.9892 7.41283C13.0711 7.52894 13.0711 7.67237 13.0711 7.82946L13.0677 7.84995H10.0216ZM12.1457 13.9014V10.4864C12.1457 10.1312 11.8554 9.84775 11.5003 9.84775C11.1451 9.84775 10.8549 10.1312 10.8549 10.4864V13.9014C10.8549 14.2566 11.1451 14.5434 11.5003 14.5434C11.8554 14.5434 12.1457 14.2566 12.1457 13.9014ZM13.0882 9.27402C13.5936 9.65309 13.8122 10.4522 13.8122 11.9446C13.8122 14.3283 13.3238 14.9805 11.5413 14.9805C9.75868 14.9805 9.27034 14.3283 9.27034 11.9446C9.27034 10.459 9.48207 9.65992 9.98406 9.28085C10.3119 9.03155 10.8207 8.91203 11.5413 8.91203C12.2516 8.91203 12.7604 9.03155 13.0882 9.27402Z" fill="#86888C"/>
</svg>
