<svg width="28" height="28" viewBox="0 0 28 28" fill="none" xmlns="http://www.w3.org/2000/svg">
<path fill-rule="evenodd" clip-rule="evenodd" d="M11.5226 18.7436C11.922 18.6207 12.3453 18.8426 12.4682 19.2454C12.5876 19.638 12.3692 20.0579 11.9664 20.1774L10.8296 20.529C10.9115 21.041 10.891 21.4814 10.7989 21.8637L11.7649 22.3758C12.137 22.5669 12.277 23.0278 12.0756 23.3896C11.9459 23.6525 11.683 23.7924 11.4133 23.7924C11.2939 23.7924 11.171 23.772 11.0617 23.7105L10.0786 23.1916C9.73723 23.5501 9.33442 23.8027 9.01353 23.9734L9.36514 25.1169C9.48462 25.5095 9.26614 25.9294 8.86333 26.0591C8.79164 26.0796 8.71313 26.0898 8.64144 26.0898C8.32056 26.0898 8.02015 25.8782 7.91774 25.5573L7.56614 24.4137C7.39545 24.4342 7.21453 24.4547 7.01312 24.4547C6.77075 24.4547 6.51131 24.424 6.24846 24.3659L5.71593 25.3593C5.58621 25.6085 5.32336 25.7621 5.05368 25.7621C4.9342 25.7621 4.81131 25.7314 4.70207 25.67C4.34022 25.4788 4.20026 25.018 4.38801 24.6595L4.9103 23.6661C4.62014 23.4067 4.35729 23.0551 4.1354 22.5942C4.1354 22.5942 4.1354 22.6045 4.12516 22.6045L2.97817 22.9561C2.89624 22.9868 2.82797 22.9971 2.75628 22.9971C2.4354 22.9971 2.13499 22.7888 2.03258 22.4645C1.91311 22.0651 2.13158 21.6418 2.53439 21.5224L3.68138 21.1708C3.69163 21.1605 3.69163 21.1707 3.70187 21.1605C3.61994 20.6587 3.63018 20.2286 3.71211 19.8462L2.73921 19.324C2.36712 19.1328 2.22716 18.6719 2.42857 18.3101C2.61973 17.938 3.08058 17.798 3.44243 17.9892L4.41874 18.5115C4.7601 18.1394 5.16292 17.8902 5.49404 17.7298L5.14243 16.5862C5.02296 16.1936 5.24484 15.7737 5.64424 15.6543C6.03681 15.5314 6.46011 15.7533 6.58983 16.1458L6.94144 17.2997C7.11212 17.2792 7.29304 17.2587 7.50469 17.2587C7.73341 17.2587 7.99626 17.2894 8.25911 17.3474L8.7814 16.3541C8.98281 15.9854 9.43341 15.842 9.8055 16.0332C10.1674 16.2346 10.3073 16.6852 10.1161 17.0573L9.6041 18.0302C9.89426 18.2896 10.1674 18.6446 10.3892 19.1055L11.5226 18.7436ZM25.4606 16.7466C25.86 16.8764 26.0853 17.2997 25.9624 17.6888C25.86 18.0097 25.5596 18.2213 25.2387 18.2213C25.1704 18.2213 25.0885 18.2111 25.0202 18.1804L24.0268 17.8697C23.9039 18.1906 23.7162 18.5013 23.4841 18.8017L24.2487 19.5663C24.5389 19.8565 24.5389 20.3276 24.2487 20.628C24.0985 20.7679 23.9074 20.8499 23.7162 20.8499C23.525 20.8499 23.3339 20.7679 23.1837 20.628L22.4292 19.877C22.1698 20.0886 21.8557 20.2866 21.5041 20.43L21.8045 21.4029C21.924 21.792 21.7055 22.2256 21.313 22.3451C21.231 22.3655 21.1628 22.3758 21.0808 22.3758C20.76 22.3758 20.4664 22.1778 20.3674 21.8569L20.0055 20.7236C19.6539 20.7133 19.2614 20.6519 18.8415 20.5119C18.7015 20.4709 18.5616 20.4129 18.4079 20.3515L18.3192 21.1025C18.2782 21.4848 17.9471 21.7545 17.575 21.7545H17.4863C17.0732 21.7033 16.7728 21.3244 16.8342 20.9113L16.9947 19.6278C16.5611 19.3581 16.1105 19.0372 15.6292 18.6549L15.1172 19.6687C14.9874 19.9282 14.7178 20.0784 14.4447 20.0784C14.3354 20.0784 14.216 20.0477 14.1033 19.9964C13.7312 19.8053 13.581 19.3547 13.7722 18.9826L14.4378 17.6683C13.9565 17.2484 13.4342 16.7671 12.9017 16.2448L11.9083 17.2382C11.7581 17.3782 11.567 17.4601 11.3758 17.4601C11.1846 17.4601 10.9832 17.3782 10.8433 17.2382C10.5531 16.9378 10.5531 16.4667 10.8433 16.1766L11.84 15.1832C11.3075 14.6438 10.8364 14.1318 10.4029 13.6402L9.08522 14.3025C8.98622 14.3605 8.86674 14.381 8.75409 14.381C8.47417 14.381 8.21132 14.2308 8.0816 13.9713C7.89044 13.5992 8.04064 13.1486 8.41273 12.9575L9.41634 12.4454C9.32759 12.3259 9.23542 12.2133 9.14666 12.0938C8.88381 11.7422 8.66534 11.4145 8.46393 11.0902L7.16674 11.2506H7.06774C6.69565 11.2506 6.37477 10.9707 6.32356 10.5884C6.27577 10.1787 6.56593 9.80666 6.97899 9.75545L7.74365 9.65645C7.6822 9.52674 7.64465 9.39702 7.60369 9.27412C7.46373 8.84059 7.40228 8.44119 7.39204 8.07934L6.22798 7.71066C5.82517 7.58777 5.61352 7.16789 5.73641 6.76849C5.85589 6.37592 6.27918 6.1472 6.682 6.27692L7.69586 6.58415C7.83582 6.24279 8.03722 5.94239 8.23863 5.69319L7.45349 4.90122C7.16332 4.61106 7.16332 4.12973 7.45349 3.83957C7.74365 3.5494 8.22839 3.5494 8.51855 3.83957L9.31393 4.63154C9.57679 4.43013 9.86695 4.23897 10.2083 4.09901L9.88743 3.06466C9.75771 2.67551 9.9796 2.25221 10.3824 2.12249C10.775 2.00301 11.2051 2.22149 11.328 2.61406L11.7001 3.81567C12.0619 3.82591 12.4443 3.88736 12.8641 4.01708C12.9973 4.05463 13.127 4.10583 13.267 4.15704L13.366 3.36507C13.4274 2.95543 13.7995 2.66185 14.2091 2.71306C14.6222 2.7745 14.9123 3.14318 14.8646 3.55623L14.6939 4.8978C15.124 5.15724 15.578 5.48154 16.0491 5.85022L16.5816 4.79881C16.7626 4.42672 17.2132 4.27652 17.5955 4.46768C17.9676 4.65885 18.1075 5.10945 17.9266 5.48154L17.2439 6.83335C17.7252 7.25665 18.2373 7.72773 18.7698 8.25685L19.7939 7.22251C20.0943 6.93235 20.5654 6.93235 20.859 7.22251C21.1594 7.52291 21.1594 7.994 20.859 8.28416L19.8349 9.30826C20.3571 9.83738 20.8282 10.3528 21.2618 10.8308L22.617 10.1514C22.9891 9.97051 23.4431 10.1207 23.6343 10.4928C23.8152 10.8649 23.665 11.3155 23.2929 11.4964L22.2483 12.0187C22.6204 12.5 22.9515 12.9506 23.2144 13.3842L24.5491 13.2135C24.9588 13.1725 25.3343 13.4525 25.3821 13.8655C25.4435 14.2751 25.1431 14.6575 24.7301 14.7087L23.9552 14.8077C24.177 15.3709 24.2965 15.8898 24.317 16.3814L25.4606 16.7466Z" fill="#86888C"/>
</svg>
