<svg width="20" height="20" viewBox="0 0 20 20" fill="none" xmlns="http://www.w3.org/2000/svg">
<path fill-rule="evenodd" clip-rule="evenodd" d="M11.6551 8.94618V8.3383C11.6551 8.10153 11.4616 7.91028 11.2248 7.91028H10.7057C10.6739 7.55967 10.6033 7.21589 10.4735 6.90854L11.1497 6.70592C11.3386 6.649 11.4661 6.47142 11.4547 6.27562L11.4047 5.36039C11.391 5.12589 11.1838 4.9688 10.9516 4.95742C10.7149 4.9688 10.5327 5.16915 10.5441 5.40593L10.576 5.98876L10.2208 6.09576C10.2299 6.02974 10.2368 5.96599 10.2368 5.89314C10.2368 4.54989 8.92089 4.54989 8.35856 4.54989C7.79624 4.54989 6.48036 4.54989 6.48036 5.89314C6.48036 5.96827 6.48947 6.03429 6.49858 6.10259L6.12066 5.98876L6.15253 5.40593C6.16391 5.16915 5.98179 4.9688 5.74502 4.95742C5.52191 4.95287 5.30563 5.12362 5.29197 5.36039L5.24189 6.27562C5.23278 6.47369 5.358 6.65128 5.54695 6.70819L6.23904 6.91537C6.10928 7.22045 6.04098 7.56195 6.00683 7.91256H5.48776C5.25099 7.91256 5.05748 8.10153 5.05748 8.3383V8.94618C5.05748 9.18295 5.25099 9.37192 5.48776 9.37192C5.72453 9.37192 5.91804 9.18295 5.91804 8.94618V8.76632H5.97723C5.98179 9.19889 6.01593 9.62008 6.11611 9.99573L5.54468 10.1665C5.35572 10.2234 5.22823 10.4033 5.23961 10.5991L5.2897 11.512C5.30336 11.7397 5.49232 11.9173 5.71998 11.9173H5.74502C5.98179 11.9059 6.16391 11.7032 6.15253 11.4687L6.12066 10.8882L6.48947 10.7766C6.83779 11.2251 7.4115 11.5097 8.35629 11.5097C9.29653 11.5097 9.87023 11.2274 10.2186 10.7812L10.5737 10.8882L10.5418 11.4687C10.5304 11.7055 10.7126 11.9059 10.9493 11.9173H10.9744C11.202 11.9173 11.391 11.742 11.4047 11.512L11.4547 10.5968C11.4639 10.3987 11.3386 10.2211 11.1497 10.1642L10.5942 9.99801C10.6966 9.62008 10.7308 9.19889 10.7331 8.76404H10.7923V8.9439C10.7923 9.18068 10.9858 9.36964 11.2248 9.36964C11.4616 9.3742 11.6551 9.18295 11.6551 8.94618ZM17.8543 17.1582C18.0478 17.3494 18.0478 17.6591 17.8588 17.8503L17.8543 17.8549C17.6608 18.0484 17.3466 18.0484 17.1508 17.8549L12.4155 13.1603C11.2726 14.1006 9.83836 14.6129 8.36084 14.6106C4.84576 14.6106 2 11.7875 2 8.30415C2 4.82309 4.84576 2 8.35856 2C11.8714 2 14.7171 4.82309 14.7171 8.30415C14.7171 9.84092 14.1503 11.3253 13.1235 12.4705C13.1258 12.4705 17.8543 17.1582 17.8543 17.1582ZM7.34775 5.89997V5.88631C7.34775 5.604 7.34775 5.3991 8.36312 5.3991C8.99829 5.3991 9.23733 5.47878 9.32612 5.60855C9.38076 5.68596 9.38076 5.78158 9.38076 5.88631L9.37848 5.89997H7.34775ZM8.7638 9.93426V7.65757C8.7638 7.4208 8.57029 7.23183 8.33352 7.23183C8.09675 7.23183 7.90324 7.4208 7.90324 7.65757V9.93426C7.90324 10.171 8.09675 10.3623 8.33352 10.3623C8.57029 10.3623 8.7638 10.171 8.7638 9.93426ZM9.39214 6.84935C9.72908 7.10206 9.87478 7.63481 9.87478 8.62972C9.87478 10.2188 9.54923 10.6537 8.36084 10.6537C7.17245 10.6537 6.8469 10.2188 6.8469 8.62972C6.8469 7.63936 6.98805 7.10661 7.32271 6.8539C7.54126 6.6877 7.88048 6.60802 8.36084 6.60802C8.83437 6.60802 9.17359 6.6877 9.39214 6.84935Z" fill="#86888C"/>
</svg>
