<svg width="24" height="24" viewBox="0 0 24 24" fill="none" xmlns="http://www.w3.org/2000/svg">
<path fill-rule="evenodd" clip-rule="evenodd" d="M9.93548 15.968C10.2683 15.8656 10.6211 16.0505 10.7235 16.3862C10.823 16.7133 10.641 17.0632 10.3053 17.1628L9.358 17.4558C9.42628 17.8825 9.40921 18.2495 9.3324 18.5681L10.1375 18.9948C10.4475 19.1541 10.5642 19.5381 10.3963 19.8397C10.2882 20.0587 10.0692 20.1753 9.84445 20.1753C9.74488 20.1753 9.64247 20.1583 9.55144 20.1071L8.73216 19.6747C8.44769 19.9734 8.11201 20.1839 7.84461 20.3261L8.13762 21.2791C8.23718 21.6062 8.05512 21.9561 7.71944 22.0642C7.6597 22.0813 7.59427 22.0898 7.53453 22.0898C7.26713 22.0898 7.0168 21.9135 6.93145 21.6461L6.63845 20.6931C6.49621 20.7102 6.34544 20.7272 6.1776 20.7272C5.97563 20.7272 5.75943 20.7016 5.54039 20.6533L5.09661 21.4811C4.98851 21.6887 4.76947 21.8168 4.54473 21.8168C4.44517 21.8168 4.34276 21.7911 4.25173 21.7399C3.95019 21.5806 3.83355 21.1966 3.99001 20.8979L4.42525 20.0701C4.18345 19.8539 3.96441 19.5609 3.7795 19.1768C3.7795 19.1768 3.7795 19.1854 3.77097 19.1854L2.81514 19.4784C2.74687 19.504 2.68997 19.5125 2.63023 19.5125C2.36283 19.5125 2.1125 19.339 2.02715 19.0687C1.92759 18.7359 2.10965 18.3832 2.44533 18.2836L3.40115 17.9906C3.40969 17.9821 3.40969 17.9906 3.41822 17.9821C3.34995 17.5639 3.35848 17.2055 3.42676 16.8868L2.61601 16.4516C2.30594 16.2923 2.1893 15.9083 2.35714 15.6067C2.51645 15.2966 2.90048 15.18 3.20202 15.3393L4.01561 15.7746C4.30009 15.4645 4.63576 15.2568 4.9117 15.1231L4.6187 14.1701C4.51913 13.843 4.70404 13.4931 5.03687 13.3935C5.36401 13.2911 5.71676 13.476 5.82486 13.8032L6.11786 14.7647C6.2601 14.7476 6.41087 14.7305 6.58724 14.7305C6.77784 14.7305 6.99688 14.7562 7.21593 14.8045L7.65117 13.9767C7.81901 13.6695 8.19451 13.55 8.50459 13.7093C8.80613 13.8771 8.92276 14.2526 8.76345 14.5627L8.33675 15.3735C8.57855 15.5897 8.80613 15.8855 8.99103 16.2695L9.93548 15.968ZM21.5505 14.3038C21.8833 14.4119 22.0711 14.7647 21.9687 15.089C21.8833 15.3564 21.633 15.5328 21.3656 15.5328C21.3087 15.5328 21.2404 15.5242 21.1835 15.4986L20.3557 15.2398C20.2533 15.5072 20.0968 15.766 19.9034 16.0164L20.5406 16.6536C20.7824 16.8954 20.7824 17.288 20.5406 17.5383C20.4154 17.6549 20.2561 17.7232 20.0968 17.7232C19.9375 17.7232 19.7782 17.6549 19.6531 17.5383L19.0244 16.9124C18.8082 17.0888 18.5465 17.2538 18.2534 17.3733L18.5038 18.184C18.6033 18.5083 18.4213 18.8696 18.0941 18.9692C18.0259 18.9863 17.969 18.9948 17.9007 18.9948C17.6333 18.9948 17.3887 18.8298 17.3062 18.5624L17.0046 17.6179C16.7116 17.6094 16.3845 17.5582 16.0346 17.4416C15.9179 17.4074 15.8013 17.3591 15.6733 17.3079L15.5993 17.9337C15.5652 18.2523 15.2892 18.477 14.9792 18.477H14.9052C14.561 18.4344 14.3107 18.1186 14.3619 17.7744L14.4956 16.7048C14.1343 16.4801 13.7588 16.2126 13.3577 15.894L12.931 16.7389C12.8229 16.9551 12.5981 17.0803 12.3706 17.0803C12.2795 17.0803 12.18 17.0547 12.0861 17.012C11.776 16.8527 11.6508 16.4772 11.8102 16.1671L12.3649 15.0719C11.9638 14.722 11.5285 14.3209 11.0847 13.8857L10.2569 14.7135C10.1318 14.8301 9.97246 14.8984 9.81316 14.8984C9.65385 14.8984 9.48601 14.8301 9.36938 14.7135C9.12758 14.4631 9.12758 14.0706 9.36938 13.8288L10.2 13.001C9.75626 12.5515 9.36369 12.1248 9.00241 11.7151L7.90435 12.267C7.82185 12.3154 7.72229 12.3324 7.62841 12.3324C7.39514 12.3324 7.1761 12.2073 7.068 11.9911C6.9087 11.681 7.03386 11.3055 7.34394 11.1462L8.18029 10.7195C8.10632 10.6199 8.02952 10.526 7.95555 10.4265C7.73651 10.1335 7.55445 9.86038 7.38661 9.59014L6.30561 9.72384H6.22312C5.91304 9.72384 5.64564 9.49057 5.60297 9.17196C5.56314 8.83059 5.80494 8.52052 6.14916 8.47785L6.78637 8.39535C6.73517 8.28725 6.70388 8.17915 6.66974 8.07674C6.55311 7.71546 6.5019 7.38263 6.49337 7.08109L5.52332 6.77386C5.18764 6.67145 5.01127 6.32155 5.11368 5.98872C5.21324 5.66157 5.56599 5.47098 5.90166 5.57908L6.74655 5.8351C6.86318 5.55063 7.03102 5.30029 7.19886 5.09263L6.54457 4.43265C6.30277 4.19085 6.30277 3.78975 6.54457 3.54795C6.78637 3.30614 7.19032 3.30614 7.43213 3.54795L8.09495 4.20792C8.31399 4.04008 8.55579 3.88078 8.84026 3.76414L8.57286 2.90219C8.46476 2.5779 8.64967 2.22515 8.98534 2.11705C9.31249 2.01749 9.67092 2.19955 9.77333 2.52669L10.0834 3.52803C10.3849 3.53657 10.7036 3.58777 11.0535 3.69587C11.1644 3.72716 11.2725 3.76983 11.3891 3.81251L11.4716 3.15253C11.5228 2.81116 11.8329 2.56652 12.1743 2.60919C12.5185 2.66039 12.7603 2.96762 12.7205 3.31183L12.5782 4.42981C12.9367 4.64601 13.315 4.91626 13.7076 5.22349L14.1514 4.34731C14.3021 4.03724 14.6776 3.91207 14.9962 4.07138C15.3063 4.23068 15.4229 4.60618 15.2722 4.91626L14.7032 6.04277C15.1043 6.39551 15.531 6.78808 15.9748 7.22902L16.8282 6.36707C17.0786 6.12526 17.4711 6.12526 17.7158 6.36707C17.9661 6.6174 17.9661 7.00997 17.7158 7.25177L16.8624 8.10519C17.2976 8.54612 17.6902 8.97568 18.0515 9.37394L19.1808 8.80784C19.4909 8.65707 19.8692 8.78223 20.0286 9.09231C20.1793 9.40238 20.0542 9.77789 19.7441 9.92866L18.8736 10.3639C19.1837 10.765 19.4596 11.1405 19.6787 11.5018L20.7909 11.3596C21.1323 11.3254 21.4452 11.5587 21.4851 11.9029C21.5363 12.2443 21.2859 12.5629 20.9417 12.6055L20.296 12.688C20.4809 13.1574 20.5804 13.5898 20.5975 13.9995L21.5505 14.3038Z" fill="#86888C"/>
</svg>
