<svg width="40" height="40" viewBox="0 0 40 40" fill="none" xmlns="http://www.w3.org/2000/svg">
<path fill-rule="evenodd" clip-rule="evenodd" d="M23.724 17.6289V16.2612C23.724 15.7284 23.2886 15.2981 22.7558 15.2981H21.5879C21.5162 14.5093 21.3574 13.7358 21.0654 13.0442L22.5868 12.5883C23.0119 12.4602 23.2988 12.0607 23.2732 11.6201L23.1605 9.56088C23.1298 9.03326 22.6636 8.6798 22.1411 8.65419C21.6084 8.6798 21.1986 9.13059 21.2242 9.66333L21.296 10.9747L20.4969 11.2155C20.5174 11.0669 20.5327 10.9235 20.5327 10.7596C20.5327 7.73726 17.572 7.73726 16.3068 7.73726C15.0415 7.73726 12.0808 7.73726 12.0808 10.7596C12.0808 10.9286 12.1013 11.0772 12.1218 11.2308L11.2715 10.9747L11.3432 9.66333C11.3688 9.13059 10.959 8.6798 10.4263 8.65419C9.9243 8.64395 9.43768 9.02814 9.40694 9.56088L9.29425 11.6201C9.27376 12.0658 9.55549 12.4654 9.98065 12.5934L11.5378 13.0596C11.2459 13.746 11.0922 14.5144 11.0154 15.3033H9.84746C9.31474 15.3033 8.87934 15.7284 8.87934 16.2612V17.6289C8.87934 18.1616 9.31474 18.5868 9.84746 18.5868C10.3802 18.5868 10.8156 18.1616 10.8156 17.6289V17.2242H10.9488C10.959 18.1975 11.0359 19.1452 11.2612 19.9904L9.97552 20.3746C9.55037 20.5027 9.26351 20.9073 9.28913 21.3479L9.40182 23.402C9.43255 23.9143 9.85771 24.3138 10.3699 24.3138H10.4263C10.959 24.2882 11.3688 23.8323 11.3432 23.3047L11.2715 21.9984L12.1013 21.7474C12.885 22.7566 14.1759 23.3969 16.3016 23.3969C18.4172 23.3969 19.708 22.7617 20.4917 21.7577L21.2908 21.9984L21.2191 23.3047C21.1935 23.8374 21.6033 24.2882 22.136 24.3138H22.1924C22.7046 24.3138 23.1298 23.9194 23.1605 23.402L23.2732 21.3427C23.2937 20.8971 23.0119 20.4975 22.5868 20.3695L21.3369 19.9955C21.5674 19.1452 21.6443 18.1975 21.6494 17.2191H21.7826V17.6238C21.7826 18.1565 22.218 18.5817 22.7558 18.5817C23.2886 18.5919 23.724 18.1616 23.724 17.6289ZM37.6722 36.1059C38.1076 36.5362 38.1076 37.2329 37.6824 37.6632L37.6722 37.6734C37.2368 38.1089 36.5299 38.1089 36.0893 37.6734L25.4348 27.1107C22.8634 29.2264 19.6363 30.3789 16.3119 30.3738C8.40296 30.3738 2 24.0218 2 16.1843C2 8.35196 8.40296 2 16.3068 2C24.2106 2 30.6135 8.35196 30.6135 16.1843C30.6135 19.6421 29.3381 22.982 27.0279 25.5586C27.033 25.5586 37.6722 36.1059 37.6722 36.1059ZM14.0324 10.7749V10.7442C14.0324 10.109 14.0324 9.64797 16.317 9.64797C17.7462 9.64797 18.284 9.82726 18.4838 10.1192C18.6067 10.2934 18.6067 10.5086 18.6067 10.7442L18.6016 10.7749H14.0324ZM17.2185 19.8521V14.7295C17.2185 14.1968 16.7831 13.7716 16.2504 13.7716C15.7177 13.7716 15.2823 14.1968 15.2823 14.7295V19.8521C15.2823 20.3848 15.7177 20.8151 16.2504 20.8151C16.7831 20.8151 17.2185 20.3848 17.2185 19.8521ZM18.6323 12.911C19.3904 13.4796 19.7183 14.6783 19.7183 16.9169C19.7183 20.4924 18.9858 21.4708 16.3119 21.4708C13.638 21.4708 12.9055 20.4924 12.9055 16.9169C12.9055 14.6886 13.2231 13.4899 13.9761 12.9213C14.4678 12.5473 15.2311 12.368 16.3119 12.368C17.3773 12.368 18.1406 12.5473 18.6323 12.911Z" fill="#86888C"/>
</svg>
