<svg width="24" height="24" viewBox="0 0 24 24" fill="none" xmlns="http://www.w3.org/2000/svg">
<path fill-rule="evenodd" clip-rule="evenodd" d="M14.0689 10.6827V9.92288C14.0689 9.62691 13.827 9.38786 13.531 9.38786H12.8822C12.8423 8.94959 12.7541 8.51987 12.5919 8.13568L13.4371 7.88239C13.6733 7.81125 13.8327 7.58927 13.8184 7.34453L13.7558 6.20049C13.7388 5.90737 13.4798 5.711 13.1895 5.69677C12.8936 5.711 12.6659 5.96144 12.6801 6.25741L12.72 6.98595L12.276 7.1197C12.2874 7.03717 12.296 6.95749 12.296 6.86642C12.296 5.18736 10.6511 5.18736 9.9482 5.18736C9.2453 5.18736 7.60045 5.18736 7.60045 6.86642C7.60045 6.96034 7.61184 7.04287 7.62322 7.12824L7.15082 6.98595L7.19066 6.25741C7.20489 5.96144 6.97723 5.711 6.68127 5.69677C6.40239 5.69108 6.13204 5.90452 6.11497 6.20049L6.05236 7.34453C6.04098 7.59212 6.19749 7.81409 6.43369 7.88524L7.2988 8.14421C7.13659 8.52556 7.05122 8.95244 7.00854 9.3907H6.3597C6.06374 9.3907 5.82185 9.62691 5.82185 9.92288V10.6827C5.82185 10.9787 6.06374 11.2149 6.3597 11.2149C6.65566 11.2149 6.89755 10.9787 6.89755 10.6827V10.4579H6.97154C6.97723 10.9986 7.01992 11.5251 7.14513 11.9947L6.43085 12.2081C6.19465 12.2793 6.03529 12.5041 6.04952 12.7488L6.11212 13.89C6.1292 14.1746 6.36539 14.3966 6.64997 14.3966H6.68127C6.97723 14.3823 7.20489 14.1291 7.19066 13.8359L7.15082 13.1102L7.61184 12.9708C8.04724 13.5314 8.76437 13.8872 9.94536 13.8872C11.1207 13.8872 11.8378 13.5343 12.2732 12.9765L12.7171 13.1102L12.6773 13.8359C12.6631 14.1319 12.8907 14.3823 13.1867 14.3966H13.218C13.5026 14.3966 13.7388 14.1774 13.7558 13.89L13.8184 12.746C13.8298 12.4984 13.6733 12.2764 13.4371 12.2053L12.7427 11.9975C12.8708 11.5251 12.9135 10.9986 12.9163 10.4551H12.9903V10.6799C12.9903 10.9758 13.2322 11.2121 13.531 11.2121C13.827 11.2177 14.0689 10.9787 14.0689 10.6827ZM21.8179 20.9477C22.0598 21.1868 22.0598 21.5738 21.8236 21.8129L21.8179 21.8186C21.576 22.0605 21.1833 22.0605 20.9385 21.8186L15.0193 15.9504C13.5908 17.1258 11.7979 17.7661 9.95105 17.7632C5.5572 17.7632 2 14.2344 2 9.88019C2 5.52887 5.5572 2 9.9482 2C14.3392 2 17.8964 5.52887 17.8964 9.88019C17.8964 11.8011 17.1878 13.6566 15.9044 15.0881C15.9072 15.0881 21.8179 20.9477 21.8179 20.9477ZM8.68469 6.87496V6.85788C8.68469 6.505 8.68469 6.24887 9.9539 6.24887C10.7479 6.24887 11.0467 6.34848 11.1577 6.51069C11.226 6.60745 11.226 6.72697 11.226 6.85788L11.2231 6.87496H8.68469ZM10.4548 11.9178V9.07196C10.4548 8.776 10.2129 8.53979 9.9169 8.53979C9.62094 8.53979 9.37905 8.776 9.37905 9.07196V11.9178C9.37905 12.2138 9.62094 12.4528 9.9169 12.4528C10.2129 12.4528 10.4548 12.2138 10.4548 11.9178ZM11.2402 8.06168C11.6614 8.37757 11.8435 9.04351 11.8435 10.2871C11.8435 12.2736 11.4365 12.8171 9.95105 12.8171C8.46556 12.8171 8.05862 12.2736 8.05862 10.2871C8.05862 9.0492 8.23506 8.38327 8.65338 8.06738C8.92658 7.85963 9.35059 7.76002 9.95105 7.76002C10.543 7.76002 10.967 7.85963 11.2402 8.06168Z" fill="#86888C"/>
</svg>
