<svg width="40" height="40" viewBox="0 0 40 40" fill="none" xmlns="http://www.w3.org/2000/svg">
<path fill-rule="evenodd" clip-rule="evenodd" d="M36.2796 28.0646V22.7029C36.2796 22.4688 36.0924 22.2764 35.8636 22.2764H21.0786C19.5185 22.2764 18.2443 23.5817 18.2443 25.1835V25.5787C18.2443 27.1805 19.5133 28.4858 21.0786 28.4858H35.8636C36.0924 28.491 36.2796 28.2986 36.2796 28.0646ZM7.07369 12.1771C7.07369 12.2187 7.05809 12.2499 7.05289 12.2863L30.6371 12.2915V9.94087C30.6371 9.66525 30.3927 9.43642 30.0962 9.43642L29.5658 9.47803H29.5554L7.68735 11.0434C7.31292 11.0486 7.06849 11.2774 7.06849 11.5478V12.1771H7.07369ZM4.84269 11.4594C4.89469 9.95647 6.1116 8.74476 7.61454 8.74476L28.4425 7.25222V5.86369L6.67326 7.39783C5.97119 7.40303 5.37834 7.65266 4.9363 8.1103C4.49425 8.56794 4.24983 9.1712 4.24983 9.81606V9.87846C4.24983 10.4609 4.46825 11.0174 4.84269 11.4594ZM35.8636 19.9778C37.3301 19.9778 38.521 21.1999 38.521 22.7081V28.0698C38.521 29.5727 37.3301 30.7948 35.8636 30.7948H35.7024L35.7076 33.7591C35.7076 35.0176 35.2343 36.2033 34.3658 37.0926C33.4974 37.9871 32.3428 38.4759 31.1207 38.4759L6.59005 38.4863C5.20672 38.4759 3.99501 37.9663 3.16293 37.0614C2.33605 36.1565 1.93562 34.9344 2.00842 33.5199V9.81606C2.00842 8.55754 2.48687 7.37183 3.35015 6.48255C4.21863 5.59327 5.36793 5.09922 6.59525 5.09922L29.4826 3.48707C29.8154 3.47667 30.0962 3.57548 30.3251 3.7939C30.5539 4.01232 30.6787 4.31395 30.6787 4.63638V7.22622C31.9528 7.51224 32.8733 8.62515 32.8733 9.94607V12.6243C33.5078 12.8583 34.0694 13.2172 34.5167 13.706C35.3435 14.6109 35.7388 15.8382 35.666 17.2632L35.6712 19.983H35.8636V19.9778ZM21.4374 23.6805C22.4359 23.6805 23.242 24.5126 23.242 25.5371C23.242 26.5616 22.4359 27.3937 21.4374 27.3937C20.4389 27.3937 19.6329 26.5616 19.6329 25.5371C19.6277 24.5126 20.4389 23.6805 21.4374 23.6805Z" fill="#86888C"/>
</svg>
