<svg width="40" height="40" viewBox="0 0 40 40" fill="none" xmlns="http://www.w3.org/2000/svg">
<path fill-rule="evenodd" clip-rule="evenodd" d="M10.2778 31.7909C9.51971 31.7909 9.06382 32.252 9.06382 33.0153C9.06382 33.3893 9.16627 33.6864 9.37629 33.9067C9.59143 34.127 9.89877 34.2397 10.2727 34.2397C10.6466 34.2397 10.9591 34.1219 11.1691 33.9067C11.3792 33.6916 11.4867 33.3893 11.4867 33.0153C11.4918 32.2469 11.0411 31.7909 10.2778 31.7909ZM16.3428 33.2766V18.8861C16.3428 17.9844 16.1532 17.3543 15.7691 16.9649C15.3849 16.5756 14.7599 16.386 13.8584 16.386H6.70238C5.8162 16.386 5.19127 16.5807 4.79684 16.9803C4.40754 17.3748 4.21801 17.9998 4.21801 18.8809V33.2715C4.21801 34.1834 4.40754 34.8135 4.79172 35.1977C5.1759 35.5819 5.80084 35.7664 6.70238 35.7664H13.8584C14.7599 35.7664 15.3849 35.5819 15.7639 35.1977C16.1532 34.8186 16.3428 34.1885 16.3428 33.2766ZM37.273 14.2446C37.9901 14.9772 38.195 16.0172 37.8057 16.9496C37.3806 17.9383 36.3971 18.5787 35.3162 18.5633H34.8603V28.3175C34.8603 29.7315 33.6617 30.8841 32.1864 30.8841H18.5608V33.2766C18.5608 34.8135 18.1612 35.961 17.3263 36.7858C16.5118 37.6055 15.3746 38 13.8584 38H6.70238C5.18615 38 4.04897 37.6004 3.22938 36.7858C2.40467 35.961 2 34.8135 2 33.2766V18.8861C2 17.385 2.39955 16.2477 3.21914 15.4127C4.04897 14.5674 5.18615 14.1575 6.69726 14.1575H11.0667L22.1772 2.77422C23.1863 1.74449 25.0816 1.73937 26.0856 2.77422L37.273 14.2446ZM24.4977 20.4332H24.385C23.4988 20.4383 22.6024 21.0172 22.6024 22.2877C22.6024 23.5582 23.5039 24.1371 24.5182 24.1474C25.4043 24.1269 26.2956 23.548 26.2956 22.2929C26.2956 21.0377 25.3992 20.4588 24.4977 20.4332ZM24.3799 11.5858C19.9695 11.6319 17.6029 14.2036 17.5056 14.3112C17.229 14.6135 17.2546 15.0848 17.5568 15.3614C17.8539 15.6381 18.32 15.6176 18.5966 15.3205L18.6018 15.3153C18.6837 15.2231 20.6559 13.1176 24.4362 13.0766C24.4618 13.0766 28.0117 12.9126 30.2911 15.4741C30.5626 15.7815 31.0288 15.8071 31.331 15.5356L31.3361 15.5305C31.6383 15.2539 31.6691 14.7877 31.3924 14.4803C28.6263 11.3655 24.5182 11.5755 24.3799 11.5858ZM24.3901 14.5315C21.0554 14.5674 19.1038 16.7088 19.0218 16.7959C18.7503 17.1033 18.7759 17.5746 19.0884 17.8461C19.2216 17.9639 19.3957 18.0305 19.575 18.0305C19.785 18.0305 19.9848 17.9434 20.1231 17.7897C20.1385 17.7744 21.7418 16.0428 24.4311 16.0172C24.4669 15.9967 27.1408 15.9198 28.7749 17.759C29.0464 18.0613 29.5176 18.092 29.8199 17.8154C30.1221 17.5387 30.1528 17.0725 29.8762 16.7651C27.7811 14.4086 24.5182 14.5315 24.3901 14.5315ZM24.4106 17.5438C22.1823 17.5695 20.871 19.0039 20.8146 19.0654C20.538 19.3676 20.5637 19.8389 20.8659 20.1156C21.1681 20.3922 21.6394 20.3666 21.916 20.0644C22.5973 19.4035 23.5039 19.0346 24.4516 19.0295C24.4669 19.009 26.0498 18.9885 26.9872 20.0387C27.2587 20.3461 27.7299 20.3666 28.0321 20.1002C28.3344 19.8236 28.3651 19.3574 28.0936 19.05C26.6696 17.4619 24.4669 17.5387 24.4106 17.5438Z" fill="#86888C"/>
</svg>
