<svg width="40" height="40" viewBox="0 0 40 40" fill="none" xmlns="http://www.w3.org/2000/svg">
<path fill-rule="evenodd" clip-rule="evenodd" d="M30.4966 20.0872C30.9525 19.703 31.0088 19.0217 30.6195 18.5658C30.6093 18.5504 30.599 18.5402 30.5836 18.5299C26.3627 13.976 20.0927 14.2833 19.898 14.2987C13.1721 14.3653 9.56583 18.1252 9.41727 18.284C9.00747 18.7143 9.02284 19.3956 9.45313 19.8054C9.4685 19.8208 9.47874 19.8311 9.49411 19.8413C9.96538 20.2511 10.6774 20.2152 11.1128 19.7645C11.1436 19.7337 14.1812 16.5629 19.9697 16.5014C20.0312 16.4963 25.4099 16.2555 28.8727 20.0001C29.1032 20.246 29.4106 20.3689 29.7282 20.3689C30.0048 20.3689 30.2763 20.2767 30.4966 20.0872ZM28.1863 23.4322C28.6422 23.048 28.6986 22.3667 28.3144 21.9108C28.3041 21.8954 28.2939 21.8852 28.2785 21.8698C25.0872 18.4275 20.0824 18.5812 19.9083 18.5965C14.8267 18.6529 11.8454 21.7827 11.7224 21.9159C11.3177 22.3462 11.3331 23.0275 11.7685 23.4322C11.7839 23.4425 11.7941 23.4578 11.8095 23.4681C12.0195 23.6525 12.2961 23.7549 12.5779 23.7549C12.8904 23.7549 13.1977 23.6371 13.4231 23.3963C13.4487 23.3707 15.8871 20.8504 19.9646 20.8095C20.0158 20.8095 24.1139 20.6916 26.5676 23.3451C26.9927 23.801 27.715 23.842 28.1863 23.4322ZM25.456 26.767C25.9119 26.3828 25.9682 25.7015 25.584 25.2507C25.5738 25.2353 25.5584 25.2251 25.5482 25.2097C23.3967 22.8841 20.0466 23.0019 19.939 23.007C16.5427 23.048 14.5398 25.1483 14.4579 25.2353C14.0481 25.6708 14.0737 26.3521 14.5091 26.7619L14.5398 26.7926C14.755 26.9873 15.0367 27.0795 15.3133 27.0795C15.6207 27.0795 15.9332 26.9616 16.1585 26.7209C16.22 26.6594 17.6082 25.2405 20.0056 25.2149C20.0363 25.2149 22.4388 25.1585 23.8475 26.685C24.2727 27.1358 24.9796 27.1717 25.456 26.767ZM20.0978 32.535C21.3835 32.5145 22.6796 31.7051 22.6796 29.9532C22.6796 28.2115 21.3835 27.4022 20.0056 27.3663C19.9953 27.3612 19.9031 27.3612 19.9031 27.3612C18.6174 27.3714 17.3214 28.1757 17.3214 29.943C17.3214 31.7154 18.6225 32.5145 19.9083 32.535H20.0978ZM37.1354 17.4388C37.9909 18.2789 38.2316 19.4622 37.7706 20.5328C37.2788 21.6598 36.1109 22.3872 34.7841 22.3872H33.8621V35.0655C33.8621 36.6894 32.4226 38.0059 30.6502 38.0059H9.14578C7.37337 38.0059 5.92882 36.6842 5.92882 35.0604V22.3821H5.21678C3.89004 22.3821 2.7221 21.6547 2.23033 20.5277C1.7693 19.4622 2.01006 18.2789 2.86553 17.4337L17.6492 2.90102C18.8581 1.70747 21.1428 1.70747 22.3568 2.90102L37.1354 17.4388Z" fill="#86888C"/>
</svg>
