<svg width="20" height="20" viewBox="0 0 20 20" fill="none" xmlns="http://www.w3.org/2000/svg">
<path fill-rule="evenodd" clip-rule="evenodd" d="M5.67904 15.2404C5.3421 15.2404 5.13947 15.4453 5.13947 15.7846C5.13947 15.9508 5.18501 16.0829 5.27835 16.1808C5.37397 16.2787 5.51057 16.3288 5.67676 16.3288C5.84295 16.3288 5.98183 16.2764 6.07517 16.1808C6.16851 16.0851 6.21632 15.9508 6.21632 15.7846C6.2186 15.4431 6.01825 15.2404 5.67904 15.2404ZM8.37457 15.9007V9.50492C8.37457 9.10419 8.29033 8.82413 8.11959 8.65108C7.94884 8.47804 7.67109 8.3938 7.2704 8.3938H4.08995C3.69609 8.3938 3.41834 8.48032 3.24304 8.65791C3.07002 8.83324 2.98578 9.11102 2.98578 9.50264V15.8984C2.98578 16.3037 3.07002 16.5838 3.24076 16.7545C3.41151 16.9253 3.68926 17.0073 4.08995 17.0073H7.2704C7.67109 17.0073 7.94884 16.9253 8.11731 16.7545C8.29033 16.5861 8.37457 16.306 8.37457 15.9007ZM17.6769 7.44206C17.9956 7.76765 18.0867 8.22986 17.9137 8.64425C17.7247 9.08369 17.2876 9.3683 16.8072 9.36147H16.6046V13.6967C16.6046 14.3251 16.0719 14.8374 15.4162 14.8374H9.36035V15.9007C9.36035 16.5838 9.18277 17.0938 8.81168 17.4604C8.4497 17.8247 7.94428 18 7.2704 18H4.08995C3.41606 18 2.91065 17.8224 2.54639 17.4604C2.17985 17.0938 2 16.5838 2 15.9007V9.50492C2 8.83779 2.17758 8.33232 2.54184 7.96119C2.91065 7.5855 3.41606 7.40335 4.08767 7.40335H6.02964L10.9677 2.3441C11.4161 1.88644 12.2585 1.88416 12.7047 2.3441L17.6769 7.44206ZM11.999 10.1925H11.9489C11.555 10.1948 11.1566 10.4521 11.1566 11.0168C11.1566 11.5814 11.5573 11.8387 12.0081 11.8433C12.4019 11.8342 12.7981 11.5769 12.7981 11.0191C12.7981 10.4612 12.3997 10.2039 11.999 10.1925ZM11.9466 6.26035C9.98642 6.28084 8.93462 7.42384 8.89136 7.47165C8.76843 7.60599 8.77981 7.81546 8.91413 7.93842C9.04617 8.06137 9.25335 8.05226 9.37629 7.9202L9.37856 7.91793C9.41499 7.87694 10.2915 6.94114 11.9716 6.92292C11.983 6.92292 13.5607 6.85006 14.5738 7.98851C14.6945 8.12512 14.9017 8.13651 15.036 8.01583L15.0383 8.01356C15.1726 7.8906 15.1862 7.68341 15.0633 7.54679C13.8339 6.16244 12.0081 6.2558 11.9466 6.26035ZM11.9512 7.56956C10.4691 7.5855 9.60167 8.53724 9.56525 8.57595C9.44458 8.71256 9.45597 8.92203 9.59484 9.04271C9.65404 9.09508 9.73144 9.12468 9.81112 9.12468C9.90446 9.12468 9.99325 9.08597 10.0547 9.01766C10.0616 9.01083 10.7741 8.24124 11.9694 8.22986C11.9853 8.22075 13.1737 8.1866 13.9 9.004C14.0206 9.13834 14.2301 9.152 14.3644 9.02905C14.4987 8.9061 14.5124 8.6989 14.3894 8.56229C13.4583 7.51492 12.0081 7.56956 11.9512 7.56956ZM11.9603 8.90837C10.9699 8.91976 10.3871 9.55729 10.3621 9.58461C10.2391 9.71895 10.2505 9.92842 10.3848 10.0514C10.5192 10.1743 10.7286 10.1629 10.8515 10.0286C11.1543 9.73488 11.5573 9.57095 11.9785 9.56867C11.9853 9.55956 12.6888 9.55046 13.1054 10.0172C13.2261 10.1538 13.4355 10.1629 13.5698 10.0445C13.7042 9.92159 13.7178 9.71439 13.5972 9.57778C12.9643 8.87194 11.9853 8.9061 11.9603 8.90837Z" fill="#86888C"/>
</svg>
