<svg width="28" height="28" viewBox="0 0 28 28" fill="none" xmlns="http://www.w3.org/2000/svg">
<path fill-rule="evenodd" clip-rule="evenodd" d="M8.51855 21.8606C8.01314 21.8606 7.70921 22.168 7.70921 22.6769C7.70921 22.9262 7.77751 23.1243 7.91752 23.2711C8.06095 23.418 8.26585 23.4931 8.51514 23.4931C8.76443 23.4931 8.97274 23.4146 9.11276 23.2711C9.25277 23.1277 9.32448 22.9262 9.32448 22.6769C9.3279 22.1646 9.02738 21.8606 8.51855 21.8606ZM12.5619 22.8511V13.2574C12.5619 12.6563 12.4355 12.2362 12.1794 11.9766C11.9233 11.7171 11.5066 11.5907 10.9056 11.5907H6.13492C5.54414 11.5907 5.12751 11.7205 4.86456 11.9869C4.60503 12.2499 4.47867 12.6665 4.47867 13.254V22.8476C4.47867 23.4556 4.60503 23.8757 4.86115 24.1318C5.11727 24.388 5.53389 24.5109 6.13492 24.5109H10.9056C11.5066 24.5109 11.9233 24.388 12.176 24.1318C12.4355 23.8791 12.5619 23.459 12.5619 22.8511ZM26.5153 10.1631C26.9934 10.6515 27.13 11.3448 26.8705 11.9664C26.587 12.6255 25.9314 13.0525 25.2108 13.0422H24.9069V19.545C24.9069 20.4876 24.1078 21.2561 23.1243 21.2561H14.0405V22.8511C14.0405 23.8757 13.7742 24.6407 13.2175 25.1906C12.6745 25.737 11.9164 26 10.9056 26H6.13492C5.1241 26 4.36598 25.7336 3.81959 25.1906C3.26978 24.6407 3 23.8757 3 22.8511V13.2574C3 12.2567 3.26637 11.4985 3.81276 10.9418C4.36598 10.3782 5.1241 10.105 6.13151 10.105H9.04446L16.4515 2.51614C17.1242 1.82966 18.3878 1.82625 19.0571 2.51614L26.5153 10.1631ZM17.9984 14.2888H17.9233C17.3325 14.2922 16.7349 14.6782 16.7349 15.5252C16.7349 16.3722 17.3359 16.7581 18.0121 16.7649C18.6029 16.7513 19.1971 16.3653 19.1971 15.5286C19.1971 14.6918 18.5995 14.3059 17.9984 14.2888ZM17.9199 8.39052C14.9796 8.42126 13.4019 10.1358 13.337 10.2075C13.1526 10.409 13.1697 10.7232 13.3712 10.9076C13.5693 11.0921 13.88 11.0784 14.0644 10.8803L14.0678 10.8769C14.1225 10.8154 15.4372 9.41171 17.9575 9.38439C17.9745 9.38439 20.3411 9.27509 21.8608 10.9828C22.0417 11.1877 22.3525 11.2048 22.554 11.0237L22.5574 11.0203C22.7589 10.8359 22.7794 10.5251 22.595 10.3202C20.7509 8.24366 18.0121 8.38369 17.9199 8.39052ZM17.9267 10.3543C15.7036 10.3782 14.4025 11.8059 14.3479 11.8639C14.1669 12.0688 14.184 12.3831 14.3923 12.5641C14.4811 12.6426 14.5972 12.687 14.7167 12.687C14.8567 12.687 14.9899 12.629 15.0821 12.5265C15.0923 12.5162 16.1612 11.3619 17.9541 11.3448C17.978 11.3311 19.7606 11.2799 20.8499 12.506C21.0309 12.7075 21.3451 12.728 21.5466 12.5436C21.7481 12.3591 21.7686 12.0483 21.5841 11.8434C20.1874 10.2724 18.0121 10.3543 17.9267 10.3543ZM17.9404 12.3626C16.4549 12.3796 15.5807 13.3359 15.5431 13.3769C15.3587 13.5784 15.3758 13.8926 15.5772 14.0771C15.7787 14.2615 16.0929 14.2444 16.2773 14.0429C16.7315 13.6023 17.3359 13.3564 17.9677 13.353C17.978 13.3393 19.0332 13.3257 19.6581 14.0258C19.8391 14.2307 20.1533 14.2444 20.3548 14.0668C20.5562 13.8824 20.5767 13.5716 20.3957 13.3667C19.4464 12.3079 17.978 12.3591 17.9404 12.3626Z" fill="#86888C"/>
</svg>
