<svg width="24" height="24" viewBox="0 0 24 24" fill="none" xmlns="http://www.w3.org/2000/svg">
<path fill-rule="evenodd" clip-rule="evenodd" d="M18.8314 13.051C19.0847 12.8376 19.116 12.4591 18.8997 12.2058C18.894 12.1973 18.8883 12.1916 18.8798 12.1859C16.5348 9.65593 13.0515 9.82668 12.9433 9.83522C9.20672 9.87221 7.20324 11.9611 7.12071 12.0493C6.89304 12.2883 6.90158 12.6668 7.14063 12.8945C7.14917 12.9031 7.15486 12.9087 7.16339 12.9144C7.42521 13.1421 7.82079 13.1222 8.06269 12.8717C8.07976 12.8547 9.76736 11.0931 12.9832 11.0589C13.0173 11.0561 16.0055 10.9223 17.9293 13.0027C18.0574 13.1393 18.2281 13.2076 18.4045 13.2076C18.5582 13.2076 18.7091 13.1563 18.8314 13.051ZM17.5479 14.9094C17.8012 14.6959 17.8325 14.3174 17.6191 14.0642C17.6134 14.0556 17.6077 14.0499 17.5992 14.0414C15.8262 12.129 13.0458 12.2144 12.949 12.2229C10.1259 12.2542 8.46965 13.993 8.40134 14.067C8.17652 14.3061 8.18506 14.6846 8.42696 14.9094C8.43549 14.9151 8.44119 14.9236 8.44972 14.9293C8.5664 15.0318 8.72008 15.0887 8.8766 15.0887C9.0502 15.0887 9.22095 15.0232 9.34617 14.8895C9.3604 14.8752 10.715 13.4751 12.9803 13.4523C13.0088 13.4523 15.2855 13.3869 16.6487 14.861C16.8849 15.1143 17.2861 15.1371 17.5479 14.9094ZM16.0311 16.762C16.2844 16.5486 16.3157 16.1701 16.1022 15.9197C16.0966 15.9111 16.088 15.9054 16.0823 15.8969C14.8871 14.6049 13.0259 14.6703 12.9661 14.6732C11.0793 14.6959 9.96657 15.8627 9.92103 15.9111C9.69337 16.153 9.70759 16.5315 9.94949 16.7592L9.96657 16.7763C10.0861 16.8844 10.2426 16.9356 10.3963 16.9356C10.567 16.9356 10.7406 16.8702 10.8659 16.7364C10.9 16.7023 11.6712 15.914 13.0031 15.8997C13.0202 15.8997 14.3549 15.8684 15.1375 16.7165C15.3737 16.9669 15.7664 16.9869 16.0311 16.762ZM13.0543 19.9665C13.7686 19.9551 14.4886 19.5054 14.4886 18.5322C14.4886 17.5646 13.7686 17.1149 13.0031 17.095C12.9974 17.0922 12.9462 17.0922 12.9462 17.0922C12.2319 17.0979 11.5119 17.5447 11.5119 18.5265C11.5119 19.5111 12.2347 19.9551 12.949 19.9665H13.0543ZM22.5197 11.5797C22.9949 12.0464 23.1287 12.7038 22.8725 13.2986C22.5993 13.9247 21.9505 14.3288 21.2134 14.3288H20.7012V21.3723C20.7012 22.2745 19.9015 23.0059 18.9168 23.0059H6.96988C5.98521 23.0059 5.18268 22.2716 5.18268 21.3695V14.326H4.7871C4.05002 14.326 3.40117 13.9219 3.12796 13.2958C2.87184 12.7038 3.00559 12.0464 3.48085 11.5769L11.694 3.50317C12.3656 2.84009 13.6349 2.84009 14.3094 3.50317L22.5197 11.5797Z" fill="#86888C"/>
</svg>
