<svg width="24" height="24" viewBox="0 0 24 24" fill="none" xmlns="http://www.w3.org/2000/svg">
<path fill-rule="evenodd" clip-rule="evenodd" d="M7.5988 19.5505C7.17762 19.5505 6.92434 19.8067 6.92434 20.2307C6.92434 20.4385 6.98126 20.6036 7.09794 20.726C7.21746 20.8483 7.38821 20.911 7.59595 20.911C7.80369 20.911 7.97729 20.8455 8.09396 20.726C8.21064 20.6064 8.2704 20.4385 8.2704 20.2307C8.27325 19.8038 8.02282 19.5505 7.5988 19.5505ZM10.9682 20.3759V12.3811C10.9682 11.8802 10.8629 11.5302 10.6495 11.3139C10.436 11.0976 10.0889 10.9922 9.588 10.9922H5.61243C5.12011 10.9922 4.77293 11.1004 4.5538 11.3224C4.33752 11.5415 4.23223 11.8888 4.23223 12.3783V20.373C4.23223 20.8796 4.33752 21.2297 4.55096 21.4432C4.76439 21.6566 5.11158 21.7591 5.61243 21.7591H9.588C10.0889 21.7591 10.436 21.6566 10.6466 21.4432C10.8629 21.2326 10.9682 20.8825 10.9682 20.3759ZM22.5961 9.80257C22.9945 10.2096 23.1083 10.7873 22.8921 11.3053C22.6559 11.8546 22.1095 12.2104 21.509 12.2018H21.2557V17.6208C21.2557 18.4064 20.5898 19.0467 19.7702 19.0467H12.2004V20.3759C12.2004 21.2297 11.9785 21.8672 11.5146 22.3255C11.0621 22.7808 10.4304 23 9.588 23H5.61243C4.77008 23 4.13832 22.778 3.68299 22.3255C3.22482 21.8672 3 21.2297 3 20.3759V12.3811C3 11.5472 3.22197 10.9154 3.6773 10.4515C4.13832 9.98187 4.77008 9.75419 5.60959 9.75419H8.03705L14.2096 3.43012C14.7702 2.85805 15.8231 2.8552 16.3809 3.43012L22.5961 9.80257ZM15.4987 13.2407H15.4361C14.9438 13.2435 14.4458 13.5651 14.4458 14.271C14.4458 14.9768 14.9466 15.2984 15.5101 15.3041C16.0024 15.2927 16.4976 14.9711 16.4976 14.2738C16.4976 13.5765 15.9996 13.2549 15.4987 13.2407ZM15.4333 8.32544C12.983 8.35105 11.6683 9.7798 11.6142 9.83957C11.4605 10.0075 11.4748 10.2693 11.6427 10.423C11.8077 10.5767 12.0667 10.5653 12.2204 10.4003L12.2232 10.3974C12.2687 10.3462 13.3644 9.17642 15.4646 9.15366C15.4788 9.15366 17.4509 9.06258 18.7173 10.4856C18.8681 10.6564 19.1271 10.6706 19.295 10.5198L19.2978 10.5169C19.4657 10.3633 19.4828 10.1043 19.3291 9.93349C17.7924 8.20305 15.5101 8.31974 15.4333 8.32544ZM15.4389 9.96195C13.5863 9.98187 12.5021 11.1715 12.4566 11.2199C12.3057 11.3907 12.32 11.6525 12.4936 11.8034C12.5675 11.8688 12.6643 11.9058 12.7639 11.9058C12.8806 11.9058 12.9916 11.8575 13.0684 11.7721C13.0769 11.7635 13.9677 10.8016 15.4617 10.7873C15.4816 10.7759 16.9671 10.7332 17.8749 11.755C18.0258 11.9229 18.2876 11.94 18.4555 11.7863C18.6234 11.6326 18.6405 11.3736 18.4868 11.2029C17.3229 9.89364 15.5101 9.96195 15.4389 9.96195ZM15.4503 11.6355C14.2124 11.6497 13.4839 12.4466 13.4526 12.4808C13.2989 12.6487 13.3131 12.9105 13.481 13.0642C13.6489 13.2179 13.9108 13.2037 14.0644 13.0358C14.4429 12.6686 14.9466 12.4637 15.4731 12.4608C15.4816 12.4495 16.361 12.4381 16.8818 13.0215C17.0326 13.1923 17.2944 13.2037 17.4623 13.0557C17.6302 12.902 17.6473 12.643 17.4965 12.4722C16.7053 11.5899 15.4816 11.6326 15.4503 11.6355Z" fill="#86888C"/>
</svg>
