<svg width="24" height="24" viewBox="0 0 24 24" fill="none" xmlns="http://www.w3.org/2000/svg">
<path d="M3.54639 9.34418C3.40671 9.34418 3.26703 9.29214 3.16022 9.18533C2.94659 8.9717 2.94659 8.62387 3.16022 8.41025L3.17665 8.39108C4.40911 7.16684 5.83875 6.20552 7.42725 5.53178C9.08148 4.83065 10.8425 4.47461 12.6556 4.47461C14.455 4.47461 16.2051 4.82517 17.8538 5.51809C19.4286 6.18087 20.8473 7.12576 22.0633 8.32535C22.2797 8.53897 22.2824 8.88406 22.0688 9.10042C21.8552 9.31679 21.5101 9.31953 21.2937 9.1059C20.1763 8.00491 18.8754 7.13671 17.4293 6.5287C15.9148 5.8933 14.3071 5.57012 12.6556 5.57012C10.9877 5.57012 9.37453 5.89604 7.8545 6.53966C6.39473 7.15862 5.08011 8.04051 3.94899 9.16615L3.93256 9.18259C3.82848 9.2894 3.68607 9.34418 3.54639 9.34418Z" fill="#86888C"/>
<path d="M5.962 12.3349C5.82232 12.3349 5.68265 12.2802 5.57583 12.1733C5.36221 11.9597 5.36221 11.6119 5.57583 11.3983L5.58953 11.3846C6.49881 10.478 7.55598 9.76595 8.73092 9.26475C9.97159 8.73617 11.2917 8.46777 12.6529 8.46777C13.9976 8.46777 15.3013 8.73069 16.5337 9.24832C17.695 9.7413 18.7439 10.437 19.6477 11.3243C19.8641 11.5352 19.8668 11.883 19.6559 12.0994C19.4451 12.3158 19.0972 12.3185 18.8809 12.1076C18.0757 11.3188 17.1445 10.6971 16.1092 10.2617C15.0137 9.79882 13.8497 9.56602 12.6529 9.56602C11.4396 9.56602 10.2646 9.80429 9.16091 10.2754C8.11469 10.7218 7.17255 11.3572 6.36187 12.1624L6.35091 12.1733C6.2441 12.2829 6.10442 12.3349 5.962 12.3349ZM8.38035 15.3284C8.24067 15.3284 8.101 15.2737 7.99418 15.1668C7.78056 14.9532 7.78056 14.6054 7.99418 14.3918C8.58576 13.8002 9.27046 13.3319 10.0346 13.0032C10.8617 12.6444 11.7436 12.4637 12.6501 12.4637C13.5375 12.4637 14.4002 12.6389 15.2136 12.9813C15.9641 13.2962 16.6433 13.7481 17.2321 14.3178C17.4485 14.5287 17.454 14.8765 17.2431 15.0929C17.0322 15.3093 16.6844 15.3147 16.468 15.1038C15.9777 14.6273 15.4108 14.2521 14.7864 13.9892C14.1099 13.7016 13.3896 13.5564 12.6501 13.5564C11.8915 13.5564 11.1602 13.7071 10.47 14.0056C9.83465 14.2795 9.26224 14.6711 8.76926 15.1641C8.65971 15.2764 8.52003 15.3284 8.38035 15.3284Z" fill="#86888C"/>
<path d="M12.6145 20.4746C11.96 20.4746 11.4396 20.2939 11.0671 19.9351C10.6809 19.5626 10.4837 19.0258 10.4837 18.3438C10.4837 17.6619 10.6809 17.1251 11.0671 16.7526C11.4396 16.3938 11.96 16.2131 12.6145 16.2131C13.2691 16.2131 13.7895 16.3938 14.1619 16.7526C14.5481 17.1251 14.7453 17.6619 14.7453 18.3438C14.7453 19.0258 14.5481 19.5626 14.1619 19.9351C13.7895 20.2939 13.2691 20.4746 12.6145 20.4746Z" fill="#86888C"/>
</svg>
