<svg width="24" height="24" viewBox="0 0 24 24" fill="none" xmlns="http://www.w3.org/2000/svg">
<path fill-rule="evenodd" clip-rule="evenodd" d="M9.99087 17.8919C5.57749 17.8919 2 14.3144 2 9.90099C2 7.78131 2.84159 5.75008 4.33935 4.24947C7.51173 1.17979 12.5699 1.26252 15.6395 4.43205C18.5066 7.39182 18.6348 12.0153 16.0239 15.1237L21.8331 20.933C22.0556 21.1555 22.0556 21.5178 21.8331 21.7403C21.7218 21.8487 21.5792 21.9086 21.428 21.9086C21.2768 21.9086 21.1313 21.8487 21.0257 21.7403L15.2241 15.9386C13.7786 17.1979 11.9202 17.8971 9.99087 17.8919ZM14.8721 5.09392C17.5139 7.75834 17.5225 12.0436 14.9034 14.7135C14.8917 14.7226 14.8804 14.7322 14.8693 14.7422C14.8463 14.7635 14.8255 14.7862 14.8068 14.8101C12.1173 17.4467 7.80196 17.4203 5.14671 14.7452C3.86292 13.4585 3.14115 11.7183 3.14115 9.90099C3.14115 6.11809 6.20797 3.05127 9.99087 3.05127C11.8081 3.04556 13.5512 3.76734 14.835 5.05683C14.8387 5.06053 14.8427 5.06424 14.8468 5.06804C14.8554 5.07595 14.8644 5.08428 14.8721 5.09392ZM14.1703 5.82701C11.8909 3.54757 8.19641 3.54757 5.91698 5.82701C3.63754 8.10645 3.63754 11.8009 5.91698 14.0803C8.19641 16.3598 11.8909 16.3598 14.1703 14.0803C15.2658 12.9848 15.8792 11.5014 15.8792 9.95225C15.8849 8.406 15.2687 6.91966 14.1703 5.82701ZM14.5383 9.51266H10.4859V5.46029C10.4717 5.19136 10.2412 4.98647 9.97368 5.0007C9.72609 5.0135 9.52689 5.21271 9.51408 5.46029V9.51408H5.46029C5.19136 9.52831 4.98647 9.75882 5.0007 10.0263C5.0135 10.2739 5.21271 10.4731 5.46029 10.4859H9.51408V14.5397C9.52831 14.8086 9.75882 15.0135 10.0263 14.9993C10.2739 14.9865 10.4731 14.7873 10.4859 14.5397V10.4859H14.5397C14.8086 10.4717 15.0135 10.2412 14.9993 9.97368C14.9851 9.72467 14.7873 9.52689 14.5383 9.51266Z" fill="#86888C"/>
</svg>
