<svg width="28" height="28" viewBox="0 0 28 28" fill="none" xmlns="http://www.w3.org/2000/svg">
<path fill-rule="evenodd" clip-rule="evenodd" d="M11.589 21.0702C6.29299 21.0702 2 16.7772 2 11.4812C2 8.93758 3.00991 6.50009 4.80722 4.69936C8.61408 1.01575 14.6838 1.11503 18.3674 4.91846C21.808 8.47018 21.9617 14.0183 18.8287 17.7485L25.7997 24.7195C26.0668 24.9866 26.0668 25.4214 25.7997 25.6884C25.6662 25.8185 25.495 25.8904 25.3136 25.8904C25.1322 25.8904 24.9576 25.8185 24.8309 25.6884L17.8689 18.7264C16.1343 20.2375 13.9042 21.0765 11.589 21.0702ZM17.3682 17.3721C14.1408 20.536 8.96237 20.5044 5.77605 17.2942C4.2355 15.7502 3.36937 13.6619 3.36937 11.4812C3.36937 6.94171 7.04957 3.26152 11.589 3.26152C13.7698 3.25467 15.8615 4.1208 17.402 5.6682C17.4065 5.67264 17.4113 5.67709 17.4162 5.68165C17.4265 5.69114 17.4373 5.70114 17.4465 5.7127C20.6167 8.91001 20.627 14.0524 17.484 17.2563C17.4701 17.2671 17.4564 17.2786 17.4431 17.2907C17.4156 17.3162 17.3906 17.3434 17.3682 17.3721ZM6.70152 6.59149C9.43684 3.85617 13.8702 3.85617 16.6055 6.59149C17.9235 7.90267 18.663 9.68628 18.6562 11.5418C18.6562 13.4007 17.9201 15.1809 16.6055 16.4955C13.8702 19.2308 9.43684 19.2308 6.70152 16.4955C3.96619 13.7602 3.96619 9.32682 6.70152 6.59149ZM12.0345 10.9639H16.4921C16.766 10.9795 16.9836 11.1971 16.9992 11.471C17.0149 11.7653 16.7895 12.0188 16.4937 12.0345H12.0345V16.4936C12.0204 16.766 11.8013 16.9851 11.529 16.9992C11.2347 17.0148 10.9811 16.7895 10.9655 16.4936V12.0345H6.50632C6.23398 12.0204 6.01485 11.8013 6.00077 11.5289C5.98512 11.2347 6.2105 10.9811 6.50632 10.9655H10.9655V6.50628C10.9796 6.23394 11.1987 6.01482 11.471 6.00073C11.7653 5.98508 12.0189 6.21046 12.0345 6.50628V10.9639Z" fill="#86888C"/>
</svg>
