<svg width="24" height="24" viewBox="0 0 24 24" fill="none" xmlns="http://www.w3.org/2000/svg">
<path fill-rule="evenodd" clip-rule="evenodd" d="M17.6232 19.7234H17.6147C17.3772 19.7262 17.0973 19.6436 16.8004 19.4641C16.7382 19.427 16.6788 19.3871 16.6195 19.3444C16.2972 19.1107 15.8533 19.1563 15.5847 19.4527C15.35 19.7205 15.3754 20.1308 15.644 20.3673C15.6638 20.3844 15.6808 20.3987 15.7034 20.4129C15.7882 20.4756 15.8844 20.5411 15.9918 20.6067C16.1756 20.7178 16.3594 20.8033 16.5403 20.8774C16.1643 21.4871 15.5281 21.792 14.612 21.792C13.4811 21.792 13.04 20.6921 12.9411 20.3987C12.9439 20.1479 12.9495 19.4954 12.9411 19.333V18.0194H14.4141C14.6601 18.3898 15.1012 18.6377 15.6016 18.6377C16.3763 18.6377 17.0068 18.0536 17.0068 17.3355C17.0068 16.6175 16.3763 16.0334 15.6016 16.0334C15.0983 16.0334 14.6601 16.2841 14.4141 16.6517H12.9411V9.65354H13.9844V11.8675C13.6309 12.1069 13.3991 12.4887 13.3991 12.919C13.3991 13.637 14.0296 14.224 14.8043 14.224C15.3047 14.224 15.743 13.9761 15.9918 13.6085L18.6693 13.6028V15.019C18.2678 15.2498 17.9992 15.6572 17.9992 16.1245C17.9992 16.8426 18.6269 17.4267 19.4044 17.4267C20.1763 17.4267 20.8068 16.8426 20.8068 16.1245C20.8068 15.6601 20.541 15.2526 20.1424 15.0218V12.919C20.1396 12.7337 20.0632 12.5599 19.9275 12.4346C19.7833 12.3063 19.5995 12.2351 19.4073 12.2351L16.0003 12.2408C15.8646 12.0385 15.678 11.8789 15.4602 11.7735V9.65354H18.0671C18.4742 9.65354 18.8022 9.3458 18.8022 8.96968V7.29993C19.2037 7.06912 19.4723 6.66451 19.4723 6.1972C19.4723 5.47915 18.8418 4.89502 18.0671 4.89502C17.2952 4.89502 16.6647 5.47915 16.6647 6.1972C16.6647 6.66166 16.9305 7.06912 17.3291 7.29993V8.28582H12.9382V4.67562C12.9382 4.47616 12.9439 3.74671 12.9467 3.45322C13.0768 3.15688 13.5829 2.21658 14.6092 2.21658C15.5253 2.21658 16.1558 2.52147 16.5375 3.13124C15.791 3.44468 15.203 4.0516 14.9146 4.81239L14.8382 5.0261C14.7195 5.38797 14.9372 5.76979 15.3245 5.88092C15.3952 5.90087 15.4687 5.90941 15.5422 5.90941C15.8561 5.90941 16.1473 5.72135 16.2463 5.42786L16.3056 5.25975C16.4187 4.96056 16.7976 4.24821 17.6204 4.27385H17.6232C21.2111 4.27385 21.4911 7.52503 21.4911 8.51947C21.4911 8.8842 21.4373 9.98407 20.9256 10.97C20.3318 10.5967 19.6278 10.3545 18.8333 10.2719C18.4318 10.2234 18.0643 10.4998 18.0219 10.8731C17.9766 11.2464 18.2678 11.5854 18.6722 11.6282C19.4582 11.708 20.0887 11.9815 20.5439 12.4346C21.4232 13.5259 21.4911 15.0389 21.4911 15.4806C21.4882 16.4722 21.2111 19.6692 17.6232 19.7234ZM9.79135 21.7892C8.89224 21.7892 8.26173 21.4985 7.88004 20.9116C8.09492 20.8346 8.31545 20.7349 8.53034 20.6038C8.86962 20.3958 8.96575 19.9712 8.74239 19.6578C8.51903 19.3415 8.06382 19.2532 7.72453 19.4612C7.42483 19.6436 7.16188 19.7262 6.90459 19.7262C6.86784 19.7205 6.83673 19.7347 6.80281 19.7347L6.77736 19.7319C3.18941 19.7319 2.9095 16.4807 2.9095 15.4863C2.9095 15.1273 2.96322 14.0644 3.44388 13.0928C3.49194 13.8023 4.01501 14.3123 4.64834 14.5403L4.7784 14.583C4.85474 14.6058 4.92825 14.6201 5.00176 14.6201C5.29581 14.6172 5.55593 14.432 5.65772 14.1556C5.79626 13.808 5.55593 13.4034 5.18272 13.2666C5.09507 13.2409 5.0159 13.1868 4.96218 13.1127C5.44284 13.0928 5.87542 12.993 6.24016 12.7879C6.58792 12.5913 6.69819 12.1696 6.48614 11.8476C6.27409 11.5256 5.8217 11.423 5.47394 11.6196C5.26471 11.7393 4.97632 11.782 4.61159 11.7536C4.26382 11.7251 3.99522 11.6339 3.81144 11.4971C2.98301 10.4143 2.91233 8.95258 2.91233 8.51947C2.91233 7.52503 3.19224 4.27385 6.87349 4.27385H6.87632C7.12795 4.2824 7.34283 4.31944 7.5351 4.42202C7.65385 4.48756 7.78391 4.5189 7.91114 4.5189C8.16278 4.5189 8.40593 4.39923 8.54447 4.18837C8.75087 3.86354 8.63778 3.44468 8.29001 3.25092C8.16278 3.18253 8.03272 3.12269 7.897 3.07425C8.2787 2.50152 8.90355 2.21658 9.79417 2.21658C10.9251 2.21658 11.3662 3.31645 11.4652 3.60994C11.4595 3.96612 11.4595 4.31944 11.4652 4.67562V5.54469H10.1306C9.85921 5.15147 9.41531 4.92067 8.94031 4.92637C8.1656 4.92637 7.53792 5.5105 7.53792 6.22855C7.53792 6.9466 8.1656 7.53073 8.94031 7.53073C9.44358 7.53073 9.88182 7.28283 10.1306 6.91241H11.4652V8.28297H6.40132C6.13272 7.88975 5.68599 7.65895 5.21099 7.66465C4.43629 7.66465 3.80578 8.24878 3.80578 8.96683C3.80578 9.68488 4.43346 10.269 5.21099 10.269C5.71426 10.269 6.15251 10.0211 6.40132 9.65069H11.4652V10.8047H8.96858C8.56144 10.8047 8.23346 11.1124 8.23346 11.4886V13.5857C7.8348 13.8165 7.5662 14.2211 7.5662 14.6884C7.5662 15.4065 8.1967 15.9906 8.96858 15.9906C9.74328 15.9906 10.371 15.4065 10.371 14.6884C10.371 14.2211 10.1024 13.8137 9.7037 13.5829V12.1639H11.4652V17.6319H6.07051L6.06769 17.4666L6.06486 17.4552C6.472 17.2273 6.74626 16.817 6.74626 16.344C6.74626 15.6259 6.11575 15.0389 5.34388 15.0389C4.56917 15.0389 3.9415 15.623 3.9415 16.344C3.9415 16.8113 4.20727 17.2159 4.60593 17.4467C4.60593 17.4609 4.59745 17.4723 4.59745 17.4866L4.60876 18.3243C4.61441 18.6976 4.94239 18.9967 5.34388 18.9967H11.4623V19.3273C11.4623 19.5267 11.4567 20.2562 11.4538 20.5497C11.321 20.8517 10.8149 21.7892 9.79135 21.7892Z" fill="#86888C"/>
<path d="M14.6091 22C13.3509 22 12.859 20.8232 12.7374 20.4613C12.7289 20.4385 12.7261 20.4157 12.7261 20.3901C12.7289 20.0681 12.7317 19.4811 12.7261 19.3387V18.0137C12.7261 17.8969 12.8194 17.8 12.9381 17.8H14.4112C14.4819 17.8 14.5469 17.8342 14.5865 17.894C14.807 18.2217 15.1831 18.4183 15.5987 18.4183C16.2575 18.4183 16.7919 17.9282 16.7919 17.327C16.7919 16.7257 16.2575 16.2385 15.5987 16.2385C15.1859 16.2385 14.807 16.4351 14.5865 16.7628C14.5469 16.8226 14.4819 16.8568 14.4112 16.8568H12.9381C12.8222 16.8568 12.7261 16.7628 12.7261 16.6431V9.65351C12.7261 9.53669 12.8194 9.43981 12.9381 9.43981H13.9814C14.0974 9.43981 14.1935 9.53384 14.1935 9.65351V11.8675C14.1935 11.9387 14.1596 12.0043 14.1002 12.0442C13.7892 12.255 13.6082 12.5742 13.6082 12.9189C13.6082 13.5202 14.1426 14.0103 14.8014 14.0103C15.2142 14.0103 15.5931 13.8165 15.8136 13.4888C15.8532 13.4318 15.9182 13.3948 15.9889 13.3948L18.6664 13.3891C18.723 13.3891 18.7767 13.4119 18.8163 13.4518C18.8559 13.4917 18.8785 13.5458 18.8785 13.6028V15.0189C18.8785 15.0959 18.8389 15.1671 18.771 15.2042C18.4176 15.4065 18.2084 15.7512 18.2084 16.1245C18.2084 16.7257 18.7428 17.2158 19.4015 17.2158C20.0575 17.2158 20.5919 16.7257 20.5919 16.1245C20.5919 15.7541 20.3826 15.4093 20.0349 15.207C19.9698 15.17 19.9303 15.0987 19.9303 15.0218V12.9189C19.9303 12.7964 19.8765 12.6767 19.7832 12.5941C19.6814 12.5001 19.5486 12.4488 19.41 12.4488H19.4072L15.9974 12.4545C15.9267 12.4545 15.8617 12.4203 15.8221 12.3605C15.7061 12.1895 15.5506 12.0527 15.3669 11.9672C15.2934 11.933 15.2453 11.8561 15.2453 11.7763V9.65351C15.2453 9.53669 15.3386 9.43981 15.4573 9.43981H18.0642C18.3526 9.43981 18.5901 9.22895 18.5901 8.96965V7.2999C18.5901 7.22297 18.6297 7.15173 18.6975 7.11469C19.0509 6.91238 19.2602 6.57045 19.2602 6.19718C19.2602 5.59595 18.7258 5.10871 18.067 5.10871C17.4111 5.10871 16.8767 5.59595 16.8767 6.19718C16.8767 6.57045 17.0859 6.91238 17.4337 7.11469C17.4987 7.15173 17.5411 7.22297 17.5411 7.2999V8.2858C17.5411 8.40262 17.4478 8.4995 17.3291 8.4995H12.9381C12.8222 8.4995 12.7261 8.40547 12.7261 8.2858V4.6756C12.7261 4.47044 12.7317 3.72104 12.7346 3.45035C12.7346 3.42185 12.7402 3.39051 12.7544 3.36487C12.8986 3.04573 13.4556 2.0057 14.6091 2.0057C15.5874 2.0057 16.2971 2.34763 16.7155 3.02009C16.7495 3.07423 16.7579 3.13691 16.7381 3.19675C16.7184 3.25659 16.6759 3.30503 16.6166 3.32782C15.9267 3.61561 15.3782 4.18265 15.1096 4.88645L15.0361 5.09446C14.9993 5.20559 15.0106 5.32241 15.0643 5.42499C15.1265 5.54466 15.2425 5.63585 15.381 5.67574C15.4319 5.68998 15.4856 5.69853 15.5393 5.69853C15.7684 5.69853 15.9776 5.55891 16.0426 5.3623V5.35945L16.102 5.19134C16.102 5.18849 16.102 5.18849 16.1048 5.18564C16.2094 4.91495 16.625 4.03448 17.6231 4.06297H17.6372C18.4996 4.06582 19.2432 4.25103 19.8483 4.61576C20.3628 4.92634 20.7785 5.36515 21.0867 5.92079C21.621 6.88674 21.7002 7.96381 21.7002 8.5223C21.7002 8.85283 21.6578 10.0182 21.1093 11.0725C21.081 11.1238 21.0329 11.1637 20.9764 11.1779C20.9198 11.1922 20.8605 11.1836 20.8096 11.1523C20.2271 10.7876 19.5542 10.5625 18.8078 10.4855H18.805C18.5222 10.4513 18.2564 10.6423 18.2282 10.9016C18.214 11.0155 18.248 11.1295 18.3215 11.2235C18.4091 11.3318 18.542 11.403 18.689 11.4173C19.5231 11.5028 20.1932 11.7934 20.688 12.2864L20.705 12.3035C21.6295 13.4489 21.7002 15.0275 21.7002 15.4834C21.7002 16.0333 21.621 17.0962 21.0838 18.0564C20.7756 18.6092 20.36 19.0452 19.8483 19.3586C19.2404 19.729 18.4911 19.9228 17.6231 19.937H17.5977C17.3149 19.937 17.0011 19.8373 16.6873 19.6464C16.6194 19.6065 16.5544 19.5609 16.4922 19.5153C16.2575 19.3444 15.9323 19.3785 15.7372 19.5922C15.6609 19.6806 15.6242 19.7917 15.6326 19.9057C15.6411 20.0225 15.692 20.1279 15.7797 20.2049C15.791 20.2163 15.8051 20.2248 15.8192 20.2362C15.8221 20.2362 15.8221 20.2391 15.8249 20.2391C15.9012 20.2961 15.9889 20.3559 16.0963 20.4243C16.249 20.5155 16.413 20.5952 16.6137 20.6779C16.6703 20.7007 16.7155 20.7491 16.7353 20.8089C16.7551 20.8688 16.7466 20.9343 16.7127 20.9885C16.2999 21.6581 15.5902 22 14.6091 22ZM13.1474 20.3587C13.2633 20.6836 13.6648 21.5754 14.6091 21.5754C15.3358 21.5754 15.8645 21.376 16.2122 20.9628C16.0935 20.9058 15.9861 20.8488 15.8814 20.7862C15.8814 20.7862 15.8786 20.7862 15.8786 20.7833C15.7627 20.7092 15.6637 20.6437 15.5817 20.581C15.5563 20.5639 15.5309 20.544 15.5054 20.5212C15.152 20.2077 15.1181 19.6635 15.4291 19.3073L15.4319 19.3045C15.7712 18.9283 16.3367 18.8714 16.7466 19.1677C16.8003 19.2076 16.8569 19.2446 16.9134 19.2788C17.1594 19.4298 17.3997 19.5096 17.6061 19.5096H17.6372C21.016 19.4469 21.2789 16.4123 21.2789 15.4834C21.2789 15.0645 21.2139 13.617 20.3855 12.5799C20.3176 12.5143 20.2469 12.4516 20.1706 12.3946C20.2837 12.5428 20.3459 12.728 20.3487 12.9161V14.905C20.7672 15.1899 21.0131 15.6401 21.0131 16.1245C21.0131 16.9594 20.2893 17.6404 19.4015 17.6404C18.5109 17.6404 17.7871 16.9594 17.7871 16.1245C17.7871 15.6344 18.0359 15.1871 18.4572 14.9021V13.8165L16.0963 13.8222C15.791 14.2097 15.316 14.4377 14.8014 14.4377C13.9108 14.4377 13.187 13.7567 13.187 12.9218C13.187 12.4744 13.4047 12.0499 13.7722 11.7592V9.86722H13.153V16.4351H14.3094C14.6148 16.0447 15.0898 15.8168 15.6044 15.8168C16.495 15.8168 17.2188 16.4949 17.2188 17.3327C17.2188 18.1675 16.495 18.8486 15.6044 18.8486C15.0898 18.8486 14.612 18.6178 14.3094 18.2302H13.153V19.3273C13.1559 19.5068 13.1502 20.1764 13.1474 20.3587ZM15.6609 11.6481C15.8277 11.7478 15.9776 11.8761 16.0963 12.0299L19.3987 12.0242C19.427 12.0242 19.4581 12.0242 19.4864 12.0271C19.2319 11.9359 18.952 11.8732 18.6466 11.8419C18.3865 11.8162 18.149 11.688 17.9907 11.4885C17.8436 11.3033 17.7786 11.0782 17.8069 10.8503C17.8663 10.3545 18.3328 10.0011 18.853 10.061C19.5797 10.1351 20.2441 10.3402 20.8322 10.6708C21.2422 9.75894 21.2761 8.80439 21.2761 8.51945C21.2761 7.57344 21.0131 4.48468 17.6203 4.48468H17.5977C16.888 4.47329 16.5798 5.12865 16.5006 5.33381L16.4441 5.49622C16.3197 5.8695 15.955 6.12025 15.5422 6.12025C15.4489 6.12025 15.3584 6.10885 15.2679 6.0832C15.0163 6.01197 14.807 5.84385 14.6911 5.6216C14.5809 5.41359 14.5611 5.17709 14.6346 4.95484C14.6346 4.95199 14.6346 4.95199 14.6374 4.94914L14.7137 4.73543C14.7137 4.73258 14.7137 4.73258 14.7166 4.72973C14.9936 4.00028 15.5309 3.39906 16.2151 3.04288C15.8645 2.62687 15.3386 2.42456 14.6091 2.42456C13.7496 2.42456 13.2972 3.19675 13.1559 3.49594C13.153 3.79798 13.1474 4.47899 13.1474 4.6699V8.06924H17.1085V7.41103C16.6901 7.12609 16.4441 6.67873 16.4441 6.19148C16.4441 5.3566 17.1679 4.6756 18.0557 4.6756C18.9463 4.6756 19.6701 5.35375 19.6701 6.19148C19.6701 6.67873 19.4213 7.12894 19 7.41388V8.96965C19 9.4626 18.5759 9.86437 18.0529 9.86437H15.6581V11.6481H15.6609ZM9.79127 22C8.8243 22 8.12311 21.6723 7.70466 21.0284C7.6679 20.9742 7.65942 20.9058 7.68204 20.8431C7.70183 20.7805 7.7499 20.732 7.8121 20.7092C8.03546 20.6294 8.23621 20.5354 8.42281 20.4214C8.54156 20.3502 8.6179 20.2419 8.64618 20.1137C8.6688 19.9969 8.64335 19.88 8.57267 19.7803C8.41433 19.5552 8.0807 19.4925 7.83472 19.6407C7.50109 19.843 7.20421 19.937 6.90451 19.9342H6.88189C6.8621 19.937 6.83665 19.9427 6.80555 19.9427H6.78576L6.77162 19.9399C5.90645 19.937 5.16284 19.7518 4.55496 19.3871C4.04037 19.0765 3.62475 18.6377 3.31656 18.0821C2.78219 17.1161 2.70302 16.039 2.70302 15.4806C2.70302 15.1614 2.74261 14.0331 3.26002 12.9902C3.30243 12.9047 3.39573 12.8591 3.48903 12.8762C3.58234 12.8961 3.65302 12.9759 3.65868 13.07C3.69543 13.6313 4.09409 14.1043 4.72177 14.3322L4.849 14.375C4.8999 14.3921 4.95362 14.4006 5.00734 14.4006C5.21091 14.3978 5.39469 14.2696 5.4682 14.0758V14.0729C5.51627 13.9533 5.48517 13.8421 5.45406 13.7681C5.39186 13.6313 5.27028 13.5173 5.12326 13.4632C4.99603 13.4233 4.88011 13.3435 4.79811 13.2352C4.75005 13.1725 4.74156 13.0871 4.77549 13.0158C4.80942 12.9446 4.88011 12.899 4.95645 12.8933C5.42579 12.8733 5.82445 12.7736 6.14112 12.5941C6.2627 12.5257 6.34469 12.4203 6.37296 12.2949C6.40124 12.1809 6.37862 12.0613 6.31076 11.9587C6.15808 11.7279 5.83011 11.6566 5.57847 11.7991C5.33531 11.9387 5.01299 11.9929 4.59737 11.9615C4.2185 11.933 3.91031 11.8333 3.68695 11.6652C3.66999 11.6538 3.65868 11.6396 3.64454 11.6253C2.76805 10.4798 2.7002 8.95826 2.7002 8.5166C2.7002 7.95811 2.78219 6.88104 3.32787 5.91509C3.64171 5.35945 4.06865 4.92064 4.59454 4.61006C5.21656 4.24249 5.98278 4.05727 6.87341 4.05727H6.88189C7.20139 4.06867 7.43323 4.12281 7.63398 4.23109C7.71597 4.27668 7.8121 4.30232 7.90823 4.30232C8.09484 4.30232 8.27014 4.21114 8.36627 4.06582C8.4313 3.96324 8.45109 3.84357 8.42281 3.72959C8.39171 3.60422 8.30689 3.49879 8.18531 3.43325C8.06939 3.37057 7.94781 3.31643 7.82341 3.27084C7.76121 3.24804 7.71597 3.1996 7.69335 3.13691C7.67356 3.07423 7.68204 3.00584 7.7188 2.9517C8.14008 2.32198 8.83561 2 9.79127 2C11.0495 2 11.5414 3.17681 11.663 3.53868C11.6715 3.56148 11.6743 3.58712 11.6743 3.60992C11.6686 3.96039 11.6686 4.31657 11.6743 4.66705V5.53897C11.6743 5.65579 11.581 5.75267 11.4622 5.75267H10.1277C10.0599 5.75267 9.99484 5.71848 9.95526 5.66149C9.72341 5.32526 9.34454 5.12865 8.94023 5.13435C8.28145 5.13435 7.74424 5.6216 7.74424 6.22282C7.74424 6.82405 8.27862 7.3113 8.9374 7.3113C9.35302 7.3113 9.73189 7.11469 9.95243 6.78701C9.99201 6.72717 10.057 6.69298 10.1277 6.69298H11.4622C11.5782 6.69298 11.6743 6.78701 11.6743 6.90668V8.27725C11.6743 8.39407 11.581 8.49095 11.4622 8.49095H6.40124C6.33338 8.49095 6.26835 8.45676 6.22877 8.39977C5.99975 8.06924 5.62653 7.87263 5.22787 7.87263H5.21656C4.55778 7.87263 4.02058 8.35988 4.02058 8.96111C4.02058 9.56233 4.55496 10.0496 5.21374 10.0496C5.62936 10.0496 6.00823 9.85297 6.22877 9.52529C6.26835 9.46545 6.33338 9.43126 6.40406 9.43126H11.4679C11.5838 9.43126 11.68 9.52529 11.68 9.64496V10.799C11.68 10.9158 11.5867 11.0127 11.4679 11.0127H8.97133C8.68293 11.0127 8.44543 11.2235 8.44543 11.4828V13.5857C8.44543 13.6626 8.40585 13.7339 8.33799 13.7709C7.9874 13.9732 7.77817 14.318 7.77817 14.6913C7.77817 15.2925 8.31255 15.7797 8.97133 15.7797C9.63011 15.7797 10.1645 15.2925 10.1645 14.6913C10.1645 14.318 9.95526 13.9732 9.60466 13.7709C9.53963 13.7339 9.49722 13.6626 9.49722 13.5857V12.1667C9.49722 12.0499 9.59052 11.953 9.70927 11.953H11.4707C11.5867 11.953 11.6828 12.047 11.6828 12.1667V17.6319C11.6828 17.7487 11.5895 17.8456 11.4707 17.8456H6.07043C5.95451 17.8456 5.86121 17.7515 5.85838 17.6347L5.85555 17.4865C5.84142 17.3982 5.88383 17.3099 5.96299 17.2671C6.32207 17.0677 6.53695 16.72 6.53695 16.3411C6.53695 15.7399 6.00258 15.2498 5.3438 15.2498C4.68502 15.2498 4.15064 15.7399 4.15064 16.3411C4.15064 16.7143 4.35987 17.0563 4.70764 17.2586C4.77832 17.2985 4.8179 17.3754 4.81225 17.4552C4.81225 17.4751 4.80659 17.4922 4.80377 17.5065L4.81508 18.3214C4.8179 18.5779 5.0554 18.7859 5.34097 18.7859H11.4594C11.5753 18.7859 11.6715 18.8799 11.6715 18.9996V19.3301C11.6715 19.5011 11.6658 20.0339 11.663 20.3872L11.6602 20.5525C11.6602 20.581 11.6545 20.6123 11.6404 20.638C11.5047 20.9571 10.9448 22 9.79127 22ZM8.21924 21.0056C8.56701 21.3874 9.08442 21.5754 9.79127 21.5754C10.6508 21.5754 11.1032 20.8004 11.2445 20.5041V20.3844C11.2474 20.0539 11.253 19.4982 11.253 19.3301V19.2104H8.50764C8.66597 19.276 8.81017 19.3871 8.91478 19.5353C9.05332 19.7319 9.10421 19.9684 9.05615 20.202C9.00525 20.4442 8.85823 20.6522 8.6377 20.7862C8.50481 20.8688 8.36627 20.94 8.21924 21.0056ZM5.03278 19.1591C5.49365 19.3814 6.06761 19.5153 6.77728 19.5153H6.80838C6.831 19.5125 6.87058 19.5039 6.91582 19.5096C7.1307 19.5096 7.35406 19.4355 7.61418 19.276C7.65942 19.2503 7.70183 19.2275 7.7499 19.2076H5.34662C5.23636 19.2104 5.13174 19.1933 5.03278 19.1591ZM3.40704 13.7396C3.14692 14.5175 3.12148 15.2441 3.12148 15.4834C3.12148 16.1844 3.26567 18.0593 4.71895 18.9853C4.52386 18.8229 4.39945 18.5893 4.39662 18.3271L4.38531 17.5578C3.97252 17.2728 3.72936 16.8255 3.72936 16.3411C3.72936 15.5062 4.45317 14.8252 5.3438 14.8252C6.23442 14.8252 6.95823 15.5062 6.95823 16.3411C6.95823 16.7542 6.78293 17.1389 6.47475 17.4182H11.253V12.3775H9.91567V13.466C10.337 13.751 10.5829 14.2012 10.5829 14.6884C10.5829 15.5233 9.85912 16.2043 8.9685 16.2043C8.07787 16.2043 7.35406 15.5233 7.35406 14.6884C7.35406 14.2012 7.60005 13.751 8.02133 13.466V11.4828C8.02133 10.9899 8.44543 10.5881 8.9685 10.5881H11.253V9.85867H6.50868C6.20332 10.249 5.72832 10.477 5.21374 10.477C4.32311 10.477 3.5993 9.79883 3.5993 8.96111C3.5993 8.12338 4.32311 7.44522 5.21374 7.44522C5.71984 7.43952 6.19484 7.67032 6.50868 8.06354H11.2559V7.11754H10.238C9.93264 7.50791 9.45764 7.73586 8.94023 7.73586C8.0496 7.73586 7.32579 7.0577 7.32579 6.21997C7.32579 5.38225 8.0496 4.70409 8.94023 4.70409C9.44633 4.69839 9.92133 4.92919 10.2352 5.32241H11.253V4.66705C11.2474 4.32512 11.2474 3.97749 11.253 3.63556C11.1371 3.30788 10.7356 2.41886 9.79409 2.41886C9.09573 2.41886 8.58398 2.60123 8.23621 2.9745C8.2871 3.00014 8.34082 3.02579 8.39171 3.05428C8.6179 3.17966 8.77624 3.37911 8.83561 3.62131C8.89499 3.85212 8.8554 4.09147 8.72534 4.29377C8.55005 4.56447 8.24752 4.72404 7.91389 4.72404C7.74424 4.72404 7.58026 4.68129 7.43606 4.60151C7.29752 4.52458 7.12505 4.48753 6.87624 4.47899C3.49469 4.48184 3.12996 7.2999 3.12996 8.5109C3.12996 8.91267 3.18933 10.2975 3.96686 11.3347C4.12237 11.4429 4.35421 11.5113 4.63412 11.5313C4.95927 11.5569 5.20808 11.5199 5.37773 11.423C5.8188 11.1722 6.39841 11.3033 6.66984 11.7165C6.80273 11.9188 6.84514 12.1553 6.78859 12.3889C6.73204 12.6311 6.57653 12.8335 6.35034 12.9617C6.12415 13.0899 5.86686 13.1839 5.5813 13.2409C5.69156 13.3349 5.78204 13.4546 5.84142 13.5857C5.93472 13.7937 5.9432 14.0188 5.86403 14.2211C5.72832 14.5801 5.39469 14.8166 5.01299 14.8195C4.91686 14.8195 4.82073 14.8052 4.7246 14.7739L4.59454 14.7312C4.59171 14.7312 4.59171 14.7312 4.58889 14.7283C4.04037 14.5431 3.62758 14.1841 3.40704 13.7396Z" fill="#86888C"/>
</svg>
