<svg width="40" height="40" viewBox="0 0 40 40" fill="none" xmlns="http://www.w3.org/2000/svg">
<path fill-rule="evenodd" clip-rule="evenodd" d="M29.7043 33.902H29.6891C29.2641 33.9072 28.7632 33.7584 28.232 33.4353C28.1207 33.3686 28.0144 33.2968 27.9082 33.2199C27.3314 32.7993 26.5371 32.8814 26.0564 33.4148C25.6365 33.8969 25.682 34.6355 26.1626 35.0612C26.1981 35.0919 26.2284 35.1176 26.2689 35.1432C26.4207 35.2561 26.5927 35.374 26.785 35.492C27.1138 35.692 27.4427 35.8459 27.7665 35.9792C27.0936 37.0768 25.9552 37.6256 24.3159 37.6256C22.2921 37.6256 21.5028 35.6459 21.3257 35.1176C21.3308 34.6662 21.3409 33.4917 21.3257 33.1994V30.8349H23.9618C24.4019 31.5017 25.1912 31.9479 26.0868 31.9479C27.4731 31.9479 28.6013 30.8965 28.6013 29.604C28.6013 28.3115 27.4731 27.2601 26.0868 27.2601C25.1862 27.2601 24.4019 27.7114 23.9618 28.373H21.3257V15.7764H23.1927V19.7616C22.5603 20.1924 22.1454 20.8797 22.1454 21.6541C22.1454 22.9466 23.2737 24.0032 24.66 24.0032C25.5555 24.0032 26.3397 23.557 26.785 22.8953L31.5763 22.8851V25.4342C30.8579 25.8496 30.3772 26.583 30.3772 27.4242C30.3772 28.7167 31.5004 29.7681 32.8918 29.7681C34.2731 29.7681 35.4013 28.7167 35.4013 27.4242C35.4013 26.5882 34.9257 25.8547 34.2123 25.4393V21.6541C34.2073 21.3207 34.0707 21.0079 33.8278 20.7822C33.5698 20.5514 33.2409 20.4232 32.8969 20.4232L26.8001 20.4334C26.5573 20.0693 26.2234 19.7821 25.8338 19.5923V15.7764H30.4987C31.2272 15.7764 31.8141 15.2224 31.8141 14.5454V11.5399C32.5326 11.1244 33.0132 10.3961 33.0132 9.55497C33.0132 8.26248 31.885 7.21104 30.4987 7.21104C29.1174 7.21104 27.9891 8.26248 27.9891 9.55497C27.9891 10.391 28.4647 11.1244 29.1781 11.5399V13.3145H21.3207V6.81612C21.3207 6.45709 21.3308 5.14408 21.3359 4.6158C21.5686 4.08239 22.4743 2.38984 24.3109 2.38984C25.9501 2.38984 27.0784 2.93864 27.7615 4.03623C26.4257 4.60042 25.3734 5.69288 24.8573 7.0623L24.7207 7.44697C24.5082 8.09835 24.8978 8.78563 25.5909 8.98566C25.7174 9.02156 25.849 9.03695 25.9805 9.03695C26.5421 9.03695 27.0632 8.69844 27.2403 8.17015L27.3466 7.86755C27.549 7.32901 28.2269 6.04678 29.6993 6.09294H29.7043C36.1248 6.09294 36.6257 11.9451 36.6257 13.7351C36.6257 14.3916 36.5296 16.3713 35.6138 18.1459C34.5513 17.474 33.2915 17.0381 31.8698 16.8893C31.1513 16.8022 30.4936 17.2997 30.4177 17.9716C30.3368 18.6434 30.8579 19.2538 31.5814 19.3307C32.9879 19.4743 34.1162 19.9667 34.9308 20.7822C36.5043 22.7466 36.6257 25.4701 36.6257 26.265C36.6207 28.0499 36.1248 33.8046 29.7043 33.902ZM15.6894 37.6205C14.0805 37.6205 12.9522 37.0974 12.2692 36.0408C12.6537 35.9023 13.0484 35.7228 13.4329 35.4869C14.04 35.1125 14.212 34.3482 13.8123 33.7841C13.4126 33.2147 12.5981 33.0558 11.9909 33.4302C11.4546 33.7584 10.9841 33.9072 10.5237 33.9072C10.4579 33.8969 10.4022 33.9225 10.3415 33.9225L10.296 33.9174C3.87544 33.9174 3.37455 28.0653 3.37455 26.2753C3.37455 25.6291 3.47068 23.716 4.3308 21.967C4.41681 23.2441 5.35282 24.1622 6.48616 24.5725L6.71889 24.6494C6.8555 24.6905 6.98705 24.7161 7.1186 24.7161C7.64479 24.711 8.11026 24.3776 8.29241 23.8801C8.54032 23.2544 8.11026 22.526 7.44241 22.2799C7.28556 22.2337 7.14389 22.1362 7.04776 22.0029C7.90788 21.967 8.68199 21.7875 9.33467 21.4182C9.95699 21.0643 10.1543 20.3052 9.77485 19.7256C9.39538 19.1461 8.58586 18.9614 7.96354 19.3153C7.58913 19.5307 7.07306 19.6077 6.42038 19.5564C5.79806 19.5051 5.31741 19.341 4.98854 19.0948C3.5061 17.1458 3.37961 14.5146 3.37961 13.7351C3.37961 11.9451 3.8805 6.09294 10.468 6.09294H10.4731C10.9234 6.10832 11.3079 6.175 11.6519 6.35964C11.8644 6.47761 12.0972 6.53402 12.3248 6.53402C12.7751 6.53402 13.2103 6.31861 13.4582 5.93907C13.8275 5.35437 13.6251 4.60042 13.0028 4.25165C12.7751 4.12855 12.5424 4.02085 12.2995 3.93365C12.9826 2.90274 14.1007 2.38984 15.6945 2.38984C17.7183 2.38984 18.5076 4.36961 18.6847 4.89789C18.6746 5.53901 18.6746 6.175 18.6847 6.81612V8.38044H16.2966C15.8109 7.67265 15.0165 7.2572 14.1665 7.26746C12.7802 7.26746 11.657 8.31889 11.657 9.61139C11.657 10.9039 12.7802 11.9553 14.1665 11.9553C15.0671 11.9553 15.8513 11.5091 16.2966 10.8423H18.6847V13.3093H9.62306C9.14241 12.6016 8.343 12.1861 7.493 12.1964C6.10669 12.1964 4.97842 13.2478 4.97842 14.5403C4.97842 15.8328 6.10163 16.8842 7.493 16.8842C8.3936 16.8842 9.17782 16.438 9.62306 15.7712H18.6847V17.8485H14.2171C13.4885 17.8485 12.9016 18.4024 12.9016 19.0794V22.8543C12.1882 23.2697 11.7076 23.9981 11.7076 24.8392C11.7076 26.1317 12.8359 27.1831 14.2171 27.1831C15.6034 27.1831 16.7266 26.1317 16.7266 24.8392C16.7266 23.9981 16.246 23.2646 15.5326 22.8492V20.295H18.6847V30.1374H9.0311L9.02604 29.8399L9.02098 29.8194C9.74955 29.4091 10.2403 28.6705 10.2403 27.8191C10.2403 26.5266 9.11205 25.4701 7.7308 25.4701C6.34449 25.4701 5.22128 26.5215 5.22128 27.8191C5.22128 28.6603 5.69687 29.3886 6.41026 29.804C6.41026 29.8297 6.39508 29.8502 6.39508 29.8758L6.41532 31.3837C6.42544 32.0556 7.01235 32.5942 7.7308 32.5942H18.6796V33.1891C18.6796 33.5481 18.6695 34.8611 18.6644 35.3894C18.4266 35.9331 17.521 37.6205 15.6894 37.6205Z" fill="#86888C"/>
<path d="M24.3107 38C22.0592 38 21.1789 35.8817 20.9613 35.2304C20.9461 35.1893 20.9411 35.1483 20.9411 35.1022C20.9461 34.5226 20.9512 33.466 20.9411 33.2096V30.8246C20.9411 30.6143 21.108 30.44 21.3205 30.44H23.9565C24.083 30.44 24.1994 30.5015 24.2702 30.6092C24.6649 31.199 25.3378 31.5529 26.0815 31.5529C27.2604 31.5529 28.2167 30.6708 28.2167 29.5885C28.2167 28.5063 27.2604 27.6293 26.0815 27.6293C25.3429 27.6293 24.6649 27.9832 24.2702 28.573C24.1994 28.6807 24.083 28.7423 23.9565 28.7423H21.3205C21.1131 28.7423 20.9411 28.573 20.9411 28.3576V15.7763C20.9411 15.566 21.108 15.3917 21.3205 15.3917H23.1875C23.3949 15.3917 23.567 15.5609 23.567 15.7763V19.7615C23.567 19.8897 23.5063 20.0077 23.4 20.0795C22.8435 20.459 22.5196 21.0335 22.5196 21.6541C22.5196 22.7363 23.4759 23.6185 24.6548 23.6185C25.3935 23.6185 26.0714 23.2697 26.4661 22.6799C26.5369 22.5773 26.6533 22.5106 26.7798 22.5106L31.5711 22.5004C31.6723 22.5004 31.7685 22.5414 31.8393 22.6132C31.9101 22.685 31.9506 22.7824 31.9506 22.885V25.4341C31.9506 25.5726 31.8798 25.7008 31.7583 25.7675C31.1259 26.1316 30.7515 26.7522 30.7515 27.4241C30.7515 28.5063 31.7077 29.3885 32.8866 29.3885C34.0604 29.3885 35.0167 28.5063 35.0167 27.4241C35.0167 26.7574 34.6423 26.1368 34.0199 25.7726C33.9036 25.7059 33.8327 25.5777 33.8327 25.4392V21.6541C33.8327 21.4335 33.7366 21.2181 33.5696 21.0694C33.3875 20.9001 33.1497 20.8078 32.9018 20.8078H32.8967L26.7949 20.8181C26.6685 20.8181 26.5521 20.7565 26.4813 20.6488C26.2738 20.3411 25.9955 20.0949 25.6667 19.941C25.5351 19.8795 25.4491 19.741 25.4491 19.5974V15.7763C25.4491 15.566 25.6161 15.3917 25.8286 15.3917H30.4935C31.0095 15.3917 31.4345 15.0121 31.4345 14.5454V11.5398C31.4345 11.4013 31.5054 11.2731 31.6268 11.2064C32.2592 10.8423 32.6336 10.2268 32.6336 9.55492C32.6336 8.47272 31.6774 7.59567 30.4985 7.59567C29.3247 7.59567 28.3685 8.47272 28.3685 9.55492C28.3685 10.2268 28.7429 10.8423 29.3652 11.2064C29.4815 11.2731 29.5574 11.4013 29.5574 11.5398V13.3144C29.5574 13.5247 29.3905 13.6991 29.178 13.6991H21.3205C21.1131 13.6991 20.9411 13.5298 20.9411 13.3144V6.81607C20.9411 6.44679 20.9512 5.09788 20.9562 4.61063C20.9562 4.55934 20.9664 4.50292 20.9917 4.45676C21.2497 3.88232 22.2464 2.01026 24.3107 2.01026C26.0613 2.01026 27.3313 2.62573 28.0801 3.83616C28.1408 3.93361 28.156 4.04645 28.1205 4.15415C28.0851 4.26186 28.0092 4.34905 27.903 4.39008C26.6685 4.90811 25.6869 5.92876 25.2062 7.19561L25.0747 7.57002C25.0089 7.77005 25.0292 7.98034 25.1253 8.16498C25.2366 8.3804 25.444 8.54452 25.692 8.61633C25.783 8.64197 25.8792 8.65736 25.9753 8.65736C26.3851 8.65736 26.7595 8.40604 26.8759 8.05214V8.04702L26.9821 7.74441C26.9821 7.73928 26.9821 7.73928 26.9872 7.73415C27.1744 7.2469 27.9182 5.66206 29.7042 5.71335H29.7295C31.2726 5.71848 32.6033 6.05186 33.686 6.70836C34.6068 7.26742 35.3506 8.05727 35.9021 9.05742C36.8583 10.7961 37 12.7349 37 13.7401C37 14.3351 36.9241 16.4328 35.9426 18.3305C35.892 18.4229 35.806 18.4947 35.7048 18.5203C35.6036 18.5459 35.4973 18.5306 35.4062 18.4741C34.364 17.8176 33.1598 17.4125 31.8241 17.274H31.819C31.3131 17.2124 30.8375 17.5561 30.7869 18.0228C30.7616 18.228 30.8223 18.4331 30.9539 18.6024C31.1107 18.7973 31.3485 18.9255 31.6116 18.9511C33.1042 19.105 34.3033 19.6282 35.1887 20.5155L35.219 20.5462C36.8735 22.6081 37 25.4495 37 26.2701C37 27.26 36.8583 29.1731 35.897 30.9016C35.3455 31.8966 34.6018 32.6813 33.686 33.2455C32.5982 33.9122 31.2574 34.261 29.7042 34.2867H29.6586C29.1527 34.2867 28.5911 34.1071 28.0295 33.7635C27.908 33.6917 27.7917 33.6096 27.6804 33.5276C27.2604 33.2198 26.6786 33.2814 26.3295 33.666C26.1929 33.825 26.1271 34.0251 26.1423 34.2302C26.1574 34.4405 26.2485 34.6303 26.4054 34.7688C26.4256 34.7893 26.4509 34.8047 26.4762 34.8252C26.4812 34.8252 26.4813 34.8303 26.4863 34.8303C26.6229 34.9329 26.7798 35.0406 26.972 35.1637C27.2452 35.3278 27.5387 35.4714 27.8979 35.6202C27.9991 35.6612 28.0801 35.7484 28.1155 35.8561C28.1509 35.9638 28.1357 36.0818 28.075 36.1792C27.3363 37.3845 26.0664 38 24.3107 38ZM21.6949 35.0457C21.9024 35.6304 22.6208 37.2358 24.3107 37.2358C25.611 37.2358 26.5571 36.8768 27.1795 36.1331C26.967 36.0305 26.7747 35.9279 26.5875 35.8151C26.5875 35.8151 26.5824 35.8151 26.5824 35.8099C26.375 35.6766 26.1979 35.5586 26.0512 35.4458C26.0057 35.415 25.9601 35.3791 25.9146 35.3381C25.2821 34.7739 25.2214 33.7943 25.778 33.1532L25.783 33.148C26.3902 32.471 27.4021 32.3684 28.1357 32.9018C28.2318 32.9736 28.333 33.0403 28.4342 33.1019C28.8744 33.3737 29.3045 33.5173 29.6738 33.5173H29.7295C35.7756 33.4045 36.2461 27.9422 36.2461 26.2701C36.2461 25.5162 36.1298 22.9107 34.6473 21.0437C34.5259 20.9258 34.3994 20.8129 34.2628 20.7104C34.4652 20.9771 34.5765 21.3104 34.5815 21.649V25.229C35.3304 25.7418 35.7705 26.5522 35.7705 27.4241C35.7705 28.9269 34.4753 30.1527 32.8866 30.1527C31.2929 30.1527 29.9976 28.9269 29.9976 27.4241C29.9976 26.542 30.4429 25.7367 31.1967 25.2238V23.2697L26.972 23.28C26.4256 23.9775 25.5756 24.3878 24.6548 24.3878C23.061 24.3878 21.7658 23.162 21.7658 21.6592C21.7658 20.854 22.1554 20.0898 22.8131 19.5666V16.161H21.7051V27.9832H23.7744C24.3208 27.2805 25.1708 26.8702 26.0917 26.8702C27.6854 26.8702 28.9807 28.0909 28.9807 29.5988C28.9807 31.1016 27.6854 32.3274 26.0917 32.3274C25.1708 32.3274 24.3158 31.912 23.7744 31.2144H21.7051V33.1891C21.7101 33.5122 21.7 34.7175 21.6949 35.0457ZM26.1929 19.3666C26.4914 19.5461 26.7595 19.7769 26.972 20.0539L32.8815 20.0436C32.9321 20.0436 32.9878 20.0436 33.0384 20.0487C32.583 19.8846 32.0821 19.7718 31.5357 19.7153C31.0702 19.6692 30.6452 19.4384 30.3619 19.0794C30.0988 18.746 29.9824 18.3408 30.033 17.9305C30.1393 17.038 30.9741 16.4021 31.9051 16.5098C33.2054 16.6431 34.3943 17.0124 35.4467 17.6074C36.1804 15.9661 36.2411 14.2479 36.2411 13.735C36.2411 12.0322 35.7705 6.47243 29.6991 6.47243H29.6586C28.3887 6.45192 27.8372 7.63157 27.6955 8.00086L27.5943 8.2932C27.3717 8.9651 26.719 9.41644 25.9804 9.41644C25.8134 9.41644 25.6515 9.39593 25.4896 9.34977C25.0393 9.22154 24.6649 8.91894 24.4574 8.51888C24.2601 8.14447 24.2247 7.71876 24.3563 7.31871C24.3563 7.31358 24.3563 7.31358 24.3613 7.30845L24.4979 6.92378C24.4979 6.91865 24.4979 6.91865 24.503 6.91352C24.9988 5.60051 25.9601 4.51831 27.1845 3.87719C26.5571 3.12837 25.6161 2.76421 24.3107 2.76421C22.7726 2.76421 21.9631 4.15415 21.7101 4.69269C21.7051 5.23636 21.6949 6.46217 21.6949 6.80581V12.9246H28.7833V11.7399C28.0345 11.227 27.5943 10.4217 27.5943 9.54467C27.5943 8.04189 28.8896 6.81607 30.4783 6.81607C32.072 6.81607 33.3673 8.03676 33.3673 9.54467C33.3673 10.4217 32.922 11.2321 32.1682 11.745V14.5454C32.1682 15.4327 31.4092 16.1559 30.4732 16.1559H26.1878V19.3666H26.1929ZM15.6893 38C13.9589 38 12.7042 37.4102 11.9554 36.251C11.8896 36.1536 11.8744 36.0305 11.9149 35.9177C11.9503 35.8048 12.0363 35.7176 12.1476 35.6766C12.5473 35.533 12.9065 35.3637 13.2405 35.1586C13.453 35.0303 13.5896 34.8354 13.6402 34.6046C13.6807 34.3944 13.6351 34.1841 13.5086 34.0046C13.2253 33.5994 12.6283 33.4865 12.1881 33.7532C11.5911 34.1174 11.0598 34.2867 10.5235 34.2815H10.483C10.4476 34.2867 10.4021 34.2969 10.3464 34.2969H10.311L10.2857 34.2918C8.7375 34.2867 7.40685 33.9533 6.31905 33.2968C5.39821 32.7377 4.65446 31.9479 4.10298 30.9477C3.14673 29.209 3.00506 27.2703 3.00506 26.265C3.00506 25.6906 3.07589 23.6595 4.00179 21.7823C4.07768 21.6284 4.24464 21.5464 4.41161 21.5772C4.57857 21.6131 4.70506 21.7567 4.71518 21.9259C4.78095 22.9363 5.49435 23.7877 6.61756 24.198L6.84524 24.275C6.93631 24.3057 7.03244 24.3211 7.12857 24.3211C7.49286 24.316 7.82173 24.0852 7.95327 23.7364V23.7313C8.03929 23.5159 7.98363 23.3159 7.92798 23.1825C7.81667 22.9363 7.59911 22.7312 7.33601 22.6337C7.10833 22.5619 6.90089 22.4183 6.75417 22.2234C6.66815 22.1106 6.65298 21.9567 6.71369 21.8285C6.77441 21.7002 6.90089 21.6182 7.0375 21.6079C7.87738 21.572 8.59077 21.3925 9.15744 21.0694C9.375 20.9463 9.52173 20.7565 9.57232 20.5308C9.62292 20.3257 9.58244 20.1103 9.46101 19.9256C9.1878 19.5102 8.60089 19.382 8.1506 19.6384C7.71548 19.8897 7.13869 19.9872 6.39494 19.9308C5.71696 19.8795 5.16548 19.7 4.76577 19.3974C4.73542 19.3768 4.71518 19.3512 4.68988 19.3255C3.12143 17.2637 3 14.5249 3 13.7299C3 12.7246 3.14673 10.7859 4.12321 9.04716C4.68482 8.04702 5.44881 7.25716 6.38988 6.69811C7.50298 6.03647 8.87411 5.70309 10.4679 5.70309H10.483C11.0548 5.72361 11.4696 5.82106 11.8289 6.01596C11.9756 6.09802 12.1476 6.14418 12.3196 6.14418C12.6536 6.14418 12.9673 5.98005 13.1393 5.71848C13.2557 5.53384 13.2911 5.31842 13.2405 5.11326C13.1848 4.88759 13.033 4.69782 12.8155 4.57985C12.608 4.46702 12.3905 4.36957 12.1679 4.28751C12.0565 4.24647 11.9756 4.15928 11.9351 4.04645C11.8997 3.93361 11.9149 3.81051 11.9807 3.71306C12.7345 2.57957 13.9792 2 15.6893 2C17.9408 2 18.8211 4.11825 19.0387 4.76963C19.0539 4.81066 19.0589 4.85682 19.0589 4.89785C19.0488 5.52871 19.0488 6.16983 19.0589 6.80068V8.37014C19.0589 8.58043 18.892 8.75481 18.6795 8.75481H16.2914C16.1699 8.75481 16.0536 8.69326 15.9827 8.59068C15.5679 7.98547 14.8899 7.63157 14.1664 7.64183C12.9875 7.64183 12.0262 8.51888 12.0262 9.60108C12.0262 10.6833 12.9824 11.5603 14.1613 11.5603C14.9051 11.5603 15.583 11.2064 15.9777 10.6166C16.0485 10.5089 16.1649 10.4474 16.2914 10.4474H18.6795C18.8869 10.4474 19.0589 10.6166 19.0589 10.832V13.299C19.0589 13.5093 18.892 13.6837 18.6795 13.6837H9.62292C9.50149 13.6837 9.38512 13.6222 9.31429 13.5196C8.90446 12.9246 8.23661 12.5707 7.52321 12.5707H7.50298C6.32411 12.5707 5.3628 13.4478 5.3628 14.53C5.3628 15.6122 6.31905 16.4892 7.49792 16.4892C8.24167 16.4892 8.91964 16.1353 9.31429 15.5455C9.38512 15.4378 9.50149 15.3763 9.62798 15.3763H18.6896C18.897 15.3763 19.069 15.5455 19.069 15.7609V17.8382C19.069 18.0484 18.9021 18.2228 18.6896 18.2228H14.222C13.706 18.2228 13.281 18.6024 13.281 19.0691V22.8543C13.281 22.9927 13.2101 23.121 13.0887 23.1876C12.4613 23.5518 12.0869 24.1724 12.0869 24.8443C12.0869 25.9265 13.0432 26.8035 14.222 26.8035C15.4009 26.8035 16.3571 25.9265 16.3571 24.8443C16.3571 24.1724 15.9827 23.5518 15.3554 23.1876C15.239 23.121 15.1631 22.9927 15.1631 22.8543V20.3C15.1631 20.0898 15.3301 19.9154 15.5426 19.9154H18.6946C18.9021 19.9154 19.0741 20.0846 19.0741 20.3V30.1373C19.0741 30.3476 18.9071 30.522 18.6946 30.522H9.03095C8.82351 30.522 8.65655 30.3528 8.65149 30.1425L8.64643 29.8758C8.62113 29.7168 8.69702 29.5578 8.83869 29.4808C9.48125 29.1218 9.86577 28.4961 9.86577 27.8139C9.86577 26.7317 8.90952 25.8496 7.73065 25.8496C6.55179 25.8496 5.59554 26.7317 5.59554 27.8139C5.59554 28.4858 5.96994 29.1013 6.59226 29.4655C6.71875 29.5373 6.78958 29.6757 6.77946 29.8193C6.77946 29.8553 6.76935 29.886 6.76429 29.9117L6.78452 31.3785C6.78958 31.8402 7.21458 32.2146 7.7256 32.2146H18.6744C18.8818 32.2146 19.0539 32.3838 19.0539 32.5992V33.1942C19.0539 33.5019 19.0438 34.461 19.0387 35.097L19.0336 35.3945C19.0336 35.4458 19.0235 35.5022 18.9982 35.5484C18.7554 36.1228 17.7536 38 15.6893 38ZM12.8762 36.21C13.4985 36.8973 14.4244 37.2358 15.6893 37.2358C17.2274 37.2358 18.0369 35.8407 18.2899 35.3073V35.0919C18.2949 34.4969 18.3051 33.4968 18.3051 33.1942V32.9788H13.3923C13.6756 33.0967 13.9336 33.2968 14.1208 33.5635C14.3688 33.9174 14.4598 34.3431 14.3738 34.7636C14.2827 35.1996 14.0196 35.574 13.625 35.8151C13.3872 35.9638 13.1393 36.092 12.8762 36.21ZM7.17411 32.8864C7.99881 33.2865 9.02589 33.5276 10.2958 33.5276H10.3515C10.392 33.5224 10.4628 33.5071 10.5438 33.5173C10.9283 33.5173 11.328 33.384 11.7935 33.0967C11.8744 33.0506 11.9503 33.0095 12.0363 32.9736H7.73571C7.53839 32.9788 7.35119 32.948 7.17411 32.8864ZM4.26488 23.1312C3.7994 24.5314 3.75387 25.8393 3.75387 26.2701C3.75387 27.5318 4.0119 30.9067 6.6125 32.5736C6.26339 32.2812 6.04077 31.8607 6.03571 31.3888L6.01548 30.004C5.27679 29.4911 4.84167 28.6859 4.84167 27.8139C4.84167 26.3112 6.1369 25.0853 7.73065 25.0853C9.3244 25.0853 10.6196 26.3112 10.6196 27.8139C10.6196 28.5576 10.306 29.25 9.75446 29.7527H18.3051V20.6796H15.9119V22.6388C16.6658 23.1517 17.106 23.9621 17.106 24.8392C17.106 26.3419 15.8107 27.5677 14.217 27.5677C12.6232 27.5677 11.328 26.3419 11.328 24.8392C11.328 23.9621 11.7682 23.1517 12.522 22.6388V19.0691C12.522 18.1818 13.281 17.4586 14.217 17.4586H18.3051V16.1456H9.81518C9.26875 16.8483 8.41875 17.2586 7.49792 17.2586C5.90417 17.2586 4.60893 16.0379 4.60893 14.53C4.60893 13.0221 5.90417 11.8014 7.49792 11.8014C8.40357 11.7911 9.25357 12.2066 9.81518 12.9144H18.3101V11.2116H16.4887C15.9423 11.9142 15.0923 12.3245 14.1664 12.3245C12.5726 12.3245 11.2774 11.1039 11.2774 9.59595C11.2774 8.08805 12.5726 6.86736 14.1664 6.86736C15.072 6.8571 15.922 7.27255 16.4836 7.98034H18.3051V6.80068C18.2949 6.18521 18.2949 5.55948 18.3051 4.94401C18.0976 4.35418 17.3792 2.75395 15.6943 2.75395C14.4446 2.75395 13.5289 3.08221 12.9065 3.7541C12.9976 3.80026 13.0938 3.84642 13.1848 3.89771C13.5896 4.12338 13.8729 4.4824 13.9792 4.91836C14.0854 5.33381 14.0146 5.76464 13.7818 6.12879C13.4682 6.61604 12.9268 6.90326 12.3298 6.90326C12.0262 6.90326 11.7327 6.82633 11.4747 6.68272C11.2268 6.54424 10.9182 6.47756 10.4729 6.46217C4.42173 6.4673 3.76905 11.5398 3.76905 13.7196C3.76905 14.4428 3.8753 16.9355 5.26667 18.8024C5.54494 18.9973 5.95982 19.1204 6.46071 19.1563C7.04256 19.2025 7.4878 19.1358 7.79137 18.9614C8.58065 18.51 9.61786 18.746 10.1036 19.4897C10.3414 19.8538 10.4173 20.2795 10.3161 20.7001C10.2149 21.1361 9.93661 21.5002 9.53185 21.731C9.12708 21.9618 8.66667 22.1311 8.15565 22.2337C8.35298 22.4029 8.51488 22.6183 8.62113 22.8543C8.7881 23.2287 8.80327 23.6339 8.66161 23.998C8.41875 24.6443 7.82173 25.07 7.13869 25.0751C6.96667 25.0751 6.79464 25.0494 6.62262 24.993L6.38988 24.9161C6.38482 24.9161 6.38482 24.9161 6.37976 24.911C5.39821 24.5776 4.65952 23.9313 4.26488 23.1312Z" fill="#86888C"/>
</svg>
