<svg width="40" height="40" viewBox="0 0 40 40" fill="none" xmlns="http://www.w3.org/2000/svg">
<path fill-rule="evenodd" clip-rule="evenodd" d="M35.7282 27.8317V22.5825C35.7282 22.0396 35.2008 21.3636 34.8986 20.959C33.1164 18.634 31.3547 16.2987 29.6033 13.9481C29.3165 13.5435 28.7583 13.2567 28.2154 13.1953V25.353C30.5814 25.6552 32.1536 27.0994 32.5736 29.368H34.2021C34.5504 29.368 34.9396 29.1888 35.2468 28.8867C35.549 28.5845 35.7282 28.1902 35.7282 27.8317ZM27.309 33.7416C29.3779 33.7416 30.4176 32.7019 30.4176 30.6432C30.4176 28.5845 29.3779 27.5295 27.309 27.5295C25.2451 27.5295 24.2004 28.5845 24.2004 30.6432C24.2055 32.7019 25.2451 33.7416 27.309 33.7416ZM9.45135 33.7416C11.5203 33.7416 12.5599 32.7019 12.5599 30.6432C12.5599 28.5845 11.5152 27.5295 9.45135 27.5295C7.3875 27.5295 6.33254 28.5845 6.33254 30.6432C6.32742 32.7019 7.3875 33.7416 9.45135 33.7416ZM36.6808 19.5865C37.1468 20.1704 37.9918 21.2714 37.9918 22.5671V27.8317C37.9918 28.7996 37.5821 29.7573 36.86 30.4793C36.1226 31.2014 35.1547 31.6214 34.2072 31.6214H32.6094C32.2305 34.3459 30.2844 36 27.3141 36C24.2055 36 22.2339 34.1922 21.9881 31.2475H14.7774C14.5367 34.1973 12.5599 36 9.45135 36C6.32742 36 4.35063 34.182 4.10994 31.2168C2.92182 31.0632 2 30.126 2 28.9737V8.25845C2 7.00888 3.08569 6 4.41209 6H25.8033C27.1297 6 28.2154 7.02424 28.2154 8.27381V10.9215C29.4804 10.9983 30.7197 11.6282 31.4264 12.6217C32.1127 13.5538 36.1533 18.8952 36.6808 19.5865ZM21.1584 14.3834H17.9167V11.1468C17.9167 10.3633 17.297 9.6719 16.5903 9.6719H13.6354C12.9286 9.6719 12.309 10.3633 12.309 11.1468V14.3783H9.06726C8.26835 14.3783 7.60259 14.9775 7.60259 15.6996V18.6494C7.60259 19.3715 8.26835 19.9706 9.06726 19.9706H12.309L12.3243 23.2072C12.3243 24.0061 12.9286 24.6821 13.6354 24.6821H16.6057C17.3175 24.6821 17.9218 24.0061 17.9218 23.2072V19.9706H21.1635C21.9471 19.9706 22.6436 19.3561 22.6436 18.6494V15.7047C22.6333 14.998 21.942 14.3834 21.1584 14.3834Z" fill="#86888C"/>
</svg>
