<svg width="24" height="24" viewBox="0 0 24 24" fill="none" xmlns="http://www.w3.org/2000/svg">
<path d="M9.73239 21.9392H9.70598C9.24044 21.9327 8.78811 21.7089 8.35889 21.281L2.41253 15.3766L2.39272 15.3569C2.01632 14.9488 1.87435 14.5242 1.9668 14.0898C2.05264 13.6948 2.32338 13.3789 2.58091 13.1222L2.59742 13.1057L8.62302 7.45474L5.58216 4.42356L5.57225 4.41369C5.19916 4.02533 5.0902 3.3638 5.31472 2.8405C5.52273 2.35341 5.98166 2.06378 6.53965 2.06378L20.7931 2.06378C21.1233 2.04074 21.4204 2.14606 21.6383 2.36328C21.8562 2.5805 21.9619 2.88 21.9355 3.20582L21.9289 17.4764C21.9421 17.9635 21.6548 18.4078 21.2058 18.5987C20.6676 18.8389 19.971 18.7303 19.5483 18.3453L19.5285 18.3288L16.7254 15.5313L11.0795 21.2942L11.0729 21.3008C10.6536 21.7253 10.2012 21.9392 9.73239 21.9392Z" fill="#86888C"/>
</svg>
