<svg width="24" height="24" viewBox="0 0 24 24" fill="none" xmlns="http://www.w3.org/2000/svg">
<path d="M11.9442 22C11.6607 22 11.3914 21.8746 11.21 21.6579L2.26308 12.3535C2.25174 12.3421 2.24323 12.3307 2.23189 12.3193C1.97959 12.0086 1.92856 11.581 2.10149 11.2218C2.26024 10.874 2.60326 10.6517 2.98314 10.6517H6.9633V3.93843C6.9633 2.86944 7.82794 2 8.89102 2H14.9945C16.0604 2 16.9222 2.86659 16.9222 3.93843L16.9194 10.6517H20.9279C21.3078 10.6517 21.6536 10.874 21.8124 11.2218C21.9853 11.581 21.9343 12.0114 21.682 12.3193C21.6735 12.3307 21.6621 12.3421 21.6508 12.3535L12.6813 21.6579C12.497 21.8746 12.2277 22 11.9442 22Z" fill="#86888C"/>
</svg>
