<svg width="40" height="40" viewBox="0 0 40 40" fill="none" xmlns="http://www.w3.org/2000/svg">
<path fill-rule="evenodd" clip-rule="evenodd" d="M27.0034 8.20319C26.1838 8.19294 25.5179 8.84861 25.5077 9.66306L25.4872 29.9425C25.4872 33.4411 23.8173 35.07 20.2419 35.07C16.6614 35.07 14.9915 33.4411 14.9915 29.9425V8.01366C14.9915 5.8469 15.934 4.92487 18.152 4.92487C20.3699 4.92487 21.3125 5.8469 21.3125 8.01878L21.3586 28.7849C21.3586 29.4661 21.2151 29.6044 20.5185 29.6044C19.8219 29.6044 19.6836 29.4661 19.6836 28.7849V9.76039C19.6733 8.94593 19.0074 8.29027 18.1878 8.29539C17.3734 8.28515 16.7023 8.94081 16.6921 9.75526V28.7797C16.6921 31.0899 18.1571 32.5242 20.5236 32.5242C22.885 32.5242 24.3552 31.0899 24.3552 28.7797L24.3091 8.01366C24.3039 4.24872 22.004 2 18.152 2C14.2999 2 12 4.24872 12 8.01366V29.9425C12 35.0598 15.0017 38 20.2419 38C25.4769 38 28.4787 35.0649 28.4787 29.9476L28.4991 9.66818C28.4889 8.84861 27.823 8.19806 27.0034 8.20319Z" fill="#86888C"/>
</svg>
