<svg width="28" height="28" viewBox="0 0 28 28" fill="none" xmlns="http://www.w3.org/2000/svg">
<path d="M18.8979 19.9834V21.7518C19.41 21.6289 19.7105 21.2978 19.7105 20.8301C19.7105 20.4887 19.6046 20.1575 18.8979 19.9834Z" fill="#86888C"/>
<path d="M23.4691 8.60121L16.8119 2.28542C16.6856 2.16594 16.5183 2.09766 16.3442 2.09766H7.34851C6.65548 2.09766 6 2.75313 6 3.44616V24.7491C6 25.4661 6.63158 26.0977 7.34851 26.0977H22.3357C23.0526 26.0977 23.6842 25.4661 23.6842 24.7491V9.09623C23.6842 8.90847 23.6057 8.73094 23.4691 8.60121ZM10.8341 22.7179C10.8341 23.0934 10.5269 23.4006 10.1514 23.4006C9.77582 23.4006 9.46856 23.0934 9.46856 22.7179V8.79239C9.46856 8.41686 9.77582 8.10961 10.1514 8.10961C10.5269 8.10961 10.8341 8.41686 10.8341 8.79239V22.7179ZM14.1969 22.7349C14.1969 23.1105 13.8896 23.4177 13.5141 23.4177C13.1385 23.4177 12.8313 23.1105 12.8313 22.7349V14.1352C12.8313 13.7597 13.1385 13.4524 13.5141 13.4524C13.8896 13.4524 14.1969 13.7597 14.1969 14.1352V22.7349ZM20.103 22.2399C19.7957 22.5062 19.3861 22.6803 18.8979 22.752V23.1275C18.8979 23.4109 18.6691 23.6396 18.3858 23.6396C18.1024 23.6396 17.8737 23.4109 17.8737 23.1275V22.7622C17.324 22.6837 16.7983 22.4789 16.3408 22.1648C16.1804 22.0521 16.0984 21.9019 16.0984 21.7142C16.1018 21.4342 16.3306 21.2089 16.6105 21.2089C16.7266 21.2123 16.8427 21.2499 16.9383 21.3147C17.2216 21.5093 17.5391 21.6527 17.8703 21.7381V19.816C16.5388 19.5326 16.2452 18.6962 16.2452 18.0203C16.2452 17.0029 16.8666 16.2928 17.8703 16.1119V15.7363C17.8703 15.453 18.099 15.2243 18.3824 15.2243C18.6657 15.2243 18.8945 15.453 18.8945 15.7363V16.1016C19.3383 16.1631 19.7479 16.2996 20.0825 16.5045C20.3351 16.6581 20.3727 16.8629 20.3727 16.9722C20.3727 17.2453 20.1508 17.4672 19.8777 17.4672C19.7752 17.4638 19.6762 17.4365 19.5841 17.3853L19.5772 17.3819C19.3622 17.2624 19.1334 17.1736 18.8945 17.1156V18.9318C20.4034 19.1776 20.7277 20.0686 20.7277 20.789C20.7312 21.383 20.5127 21.8849 20.103 22.2399ZM19.3314 9.07916C18.536 9.07916 17.8703 8.82995 17.4026 8.36224C16.9349 7.89453 16.6856 7.22539 16.6856 6.43336V4.04702L21.9909 9.07916H19.3314Z" fill="#86888C"/>
<path d="M17.8738 18.7437C17.3515 18.5594 17.2661 18.2589 17.2661 17.9756C17.2661 17.5591 17.4846 17.2655 17.8738 17.1357V18.7437Z" fill="#86888C"/>
</svg>
