<svg width="20" height="20" viewBox="0 0 20 20" fill="none" xmlns="http://www.w3.org/2000/svg">
<path fill-rule="evenodd" clip-rule="evenodd" d="M15.474 15.413C17.0358 13.8512 17.0881 12.3372 15.6333 10.7845C15.5946 10.7412 15.5719 10.7208 15.5514 10.7025L15.4762 10.6297L14.9663 10.122L10.1761 14.9098L10.3104 15.0419C10.4038 15.1489 10.4744 15.2126 10.5449 15.2809L10.6884 15.4198C12.298 17.0249 13.8643 17.0249 15.474 15.413ZM3.30055 6.89138C3.31421 7.6609 3.72401 8.45318 4.5163 9.24546L4.65062 9.38434C4.71892 9.45492 4.78495 9.5255 4.8578 9.58924L4.90106 9.6325L9.69346 4.84237L9.22447 4.37337C8.44812 3.62207 7.68316 3.24641 6.91364 3.24641C6.11908 3.24641 5.32452 3.64939 4.5163 4.45761C3.69442 5.27721 3.28689 6.09682 3.30055 6.89138ZM16.6032 9.91708C18.5315 11.9752 18.4655 14.261 16.3937 16.3305C15.326 17.4005 14.2013 17.9355 13.0766 17.9355C11.9565 17.9355 10.8341 17.4028 9.7686 16.335L9.64793 16.2189C9.54548 16.121 9.44531 16.0231 9.35879 15.923L8.82605 15.3902C8.81694 15.3811 8.80556 15.3788 8.79645 15.3697L4.43661 11.0122C4.42978 11.0053 4.42751 10.9962 4.42068 10.9894L3.97217 10.5409C3.90159 10.4817 3.8037 10.3815 3.7058 10.2791L3.59424 10.163C2.55835 9.12708 2.02106 8.03427 2.00057 6.91642C1.98008 5.75532 2.5151 4.61698 3.59652 3.53783C5.69789 1.43418 8.02238 1.40003 10.1351 3.44676L11.0572 4.36882C11.0617 4.37337 11.0686 4.37337 11.0731 4.37792L15.433 8.73549C15.4352 8.73776 15.4375 8.74459 15.4421 8.74915L16.4506 9.75544C16.503 9.81008 16.5577 9.86017 16.6032 9.91708ZM9.60923 9.52322C9.41571 9.71674 9.41571 10.0309 9.60923 10.2244C9.80275 10.418 10.1147 10.418 10.3104 10.2244C10.504 10.0309 10.504 9.71674 10.3104 9.52322C10.1147 9.3297 9.80047 9.3297 9.60923 9.52322ZM9.16983 11.7862C8.97631 11.9798 8.97631 12.2939 9.16983 12.4875C9.36335 12.681 9.67753 12.681 9.87105 12.4875C10.0646 12.2939 10.0646 11.9798 9.87105 11.7862C9.67525 11.5927 9.36335 11.5927 9.16983 11.7862ZM12.6281 9.02918C12.4346 8.83566 12.1204 8.83566 11.9269 9.02918C11.7334 9.2227 11.7334 9.53688 11.9269 9.7304C12.1204 9.92391 12.4346 9.92391 12.6281 9.7304C12.8216 9.5346 12.8216 9.2227 12.6281 9.02918ZM7.39174 9.99221C7.19823 10.1857 7.19823 10.4999 7.39174 10.6934C7.58526 10.8869 7.89944 10.8869 8.09296 10.6934C8.28648 10.4999 8.28648 10.1857 8.09296 9.99221C7.89944 9.7987 7.58526 9.7987 7.39174 9.99221ZM10.1488 7.23288C9.95528 7.4264 9.95528 7.74058 10.1488 7.9341C10.3423 8.12761 10.6565 8.12761 10.85 7.9341C11.0435 7.74058 11.0435 7.4264 10.85 7.23288C10.6565 7.04164 10.3423 7.04164 10.1488 7.23288Z" fill="#86888C"/>
</svg>
