<svg width="40" height="40" viewBox="0 0 40 40" fill="none" xmlns="http://www.w3.org/2000/svg">
<path fill-rule="evenodd" clip-rule="evenodd" d="M29.1873 31.8788C29.1873 33.2464 28.885 34.2146 28.255 34.8241C27.6301 35.4337 26.6568 35.7257 25.2789 35.7257H15.2083C13.8304 35.7257 12.852 35.4337 12.2322 34.8241C11.6022 34.2146 11.2999 33.2464 11.2999 31.8788V12.0194C11.2999 10.6875 11.6022 9.73478 12.2373 9.10985C12.8725 8.47467 13.8458 8.16733 15.2083 8.16733H25.284C26.667 8.16733 27.6403 8.46955 28.2652 9.08423C28.8902 9.70404 29.1924 10.6619 29.1924 12.0194L29.1873 31.8788ZM17.6261 5.08367C17.6261 4.85828 17.6517 4.56631 17.7849 4.43825C17.918 4.30507 18.2203 4.27433 18.4456 4.27433H22.3745C22.564 4.27433 22.9072 4.29482 23.0353 4.428C23.1736 4.56118 23.1941 4.89414 23.1941 5.08367V5.89812H17.6261V5.08367ZM29.8941 7.48093C28.8543 6.45646 27.4098 5.94935 25.4991 5.90837V5.08367C25.4991 4.1309 25.2225 3.37279 24.6693 2.8247C24.1212 2.27661 23.3478 2 22.3745 2H18.4456C17.4775 2 16.704 2.28173 16.1508 2.83495C15.5976 3.38304 15.321 4.13603 15.321 5.08367V5.89812H15.2083C13.2003 5.89812 11.6892 6.42573 10.5982 7.51167C9.52248 8.58224 9 10.0575 9 12.0194V31.8788C9 33.8867 9.5276 35.3773 10.6135 36.4377C11.6892 37.4878 13.1952 38 15.2134 38H25.2891C27.3073 38 28.8133 37.4878 29.889 36.4377C30.975 35.3722 31.5026 33.8816 31.5026 31.8788V12.0194C31.4923 10.0319 30.9698 8.54639 29.8941 7.48093Z" fill="#86888C"/>
</svg>
