<svg width="28" height="28" viewBox="0 0 28 28" fill="none" xmlns="http://www.w3.org/2000/svg">
<path fill-rule="evenodd" clip-rule="evenodd" d="M20.465 21.9192V8.67957C20.465 7.77462 20.2635 7.13603 19.8469 6.72624C19.4303 6.31303 18.7814 6.11497 17.8594 6.11497H11.1423C10.2339 6.11497 9.58509 6.31986 9.16164 6.74331C8.74161 7.15993 8.54013 7.7951 8.54013 8.68298V21.9226C8.54013 22.8344 8.74161 23.4798 9.16164 23.8862C9.57484 24.2925 10.2271 24.4872 11.1457 24.4872H17.8628C18.7814 24.4872 19.4303 24.2891 19.8469 23.8862C20.2635 23.4764 20.465 22.831 20.465 21.9192ZM12.7541 3.6255C12.6653 3.71087 12.6483 3.90894 12.6483 4.05578V4.59875H16.3637V4.05578C16.3637 3.93284 16.35 3.71087 16.2612 3.62208C16.169 3.52988 15.9437 3.51964 15.8173 3.51964H13.1981C13.041 3.51622 12.8429 3.5333 12.7541 3.6255ZM20.9363 5.65396C21.6534 6.36426 22.0017 7.35117 22.0017 8.67957V21.9192C22.0017 23.2578 21.65 24.2516 20.926 24.9585C20.2089 25.6585 19.2049 26 17.8594 26H11.1423C9.79681 26 8.79283 25.6585 8.0757 24.9585C7.35174 24.2516 7 23.2544 7 21.9192V8.67957C7 7.37507 7.34832 6.39158 8.06545 5.67444C8.786 4.95731 9.78315 4.60558 11.1047 4.59875V4.05578C11.1047 3.42743 11.2925 2.92203 11.6579 2.55663C12.0302 2.18782 12.5458 2 13.1878 2H15.8071C16.4593 2 16.975 2.18441 17.3404 2.5498C17.7057 2.91178 17.8902 3.41719 17.8902 4.05236V4.59533C19.2288 4.60558 20.226 4.95048 20.9363 5.65396ZM18.7849 20.041C19.2083 20.041 19.5532 20.3791 19.5532 20.7991V21.1577C19.5532 22.6431 18.4058 23.852 16.9989 23.852H12.0097C10.6027 23.852 9.45532 22.6431 9.45532 21.1577V20.7991C9.45532 20.3825 9.80023 20.041 10.2237 20.041H18.7849Z" fill="#86888C"/>
</svg>
