<svg width="28" height="28" viewBox="0 0 28 28" fill="none" xmlns="http://www.w3.org/2000/svg">
<path d="M25.4188 12C25.012 11.6 24.4786 11.3538 23.9111 11.3094C23.5624 11.2821 23.2137 11.3402 22.8889 11.4769V6.64274C22.8889 5.25128 22.506 4.07179 21.7538 3.27521C20.9538 2.42735 19.7949 2 18.3145 2H6.57436C5.09402 2 3.93504 2.42735 3.13504 3.27521C2.38291 4.07179 2 5.25128 2 6.64274V21.4256C2 22.8171 2.38291 23.9282 3.13504 24.7248C3.93504 25.5727 5.0906 26 6.57436 26H18.3145C19.7949 26 20.9538 25.5727 21.7538 24.7248C22.506 23.9282 22.8889 22.8171 22.8889 21.4256V17.5624C24.1641 16.4274 25.2479 15.4598 25.412 15.2991C25.8701 14.8479 26.1128 14.2872 26.1162 13.6786C26.1094 13.0496 25.8598 12.4479 25.4188 12ZM6.64274 7.12479H18.3145C18.6906 7.12479 18.9983 7.43248 18.9983 7.80855C18.9983 8.18462 18.6906 8.49231 18.3145 8.49231H6.64274C6.26667 8.49231 5.95897 8.18462 5.95897 7.80855C5.95897 7.43248 6.26667 7.12479 6.64274 7.12479ZM6.64274 11.2752H18.3145C18.6906 11.2752 18.9983 11.5829 18.9983 11.959C18.9983 12.335 18.6906 12.6427 18.3145 12.6427H6.64274C6.26667 12.6427 5.95897 12.335 5.95897 11.959C5.95897 11.5829 6.26667 11.2752 6.64274 11.2752ZM6.64274 15.4256H18.2803C17.7709 15.8769 17.2444 16.3419 16.7316 16.7932H6.64274C6.26667 16.7932 5.95897 16.4855 5.95897 16.1094C5.95897 15.7333 6.26667 15.4256 6.64274 15.4256ZM14.1265 20.9436H6.64274C6.26667 20.9436 5.95897 20.6359 5.95897 20.2598C5.95897 19.8838 6.26667 19.5761 6.64274 19.5761H14.5846L14.1265 20.9436ZM24.4513 14.3248C24.1744 14.5983 20.2325 18.0957 17.5795 20.441L15.5077 21.1248L16.188 19.0974C17.3026 18.1128 22.7077 13.3402 23.0838 12.9641C23.2991 12.7487 23.5419 12.653 23.8085 12.6701C24.335 12.7077 24.7419 13.1419 24.7453 13.6684C24.7453 13.9111 24.6462 14.1333 24.4513 14.3248Z" fill="#86888C"/>
</svg>
