<svg width="28" height="28" viewBox="0 0 28 28" fill="none" xmlns="http://www.w3.org/2000/svg">
<path fill-rule="evenodd" clip-rule="evenodd" d="M13.5413 26.2852C12.4516 26.2852 11.4199 26.087 10.4838 25.6771C9.76642 25.3594 9.2369 24.7479 8.90553 23.8562C8.63223 23.1149 8.55708 22.2609 8.69031 21.3146C8.80304 20.522 8.69714 20.0847 8.38285 20.0061C8.20521 19.9617 8.06514 20.0335 7.81576 20.1667L7.66544 20.2487C6.85922 20.6621 6.33653 21.4136 5.78311 22.2062C5.66012 22.3838 5.53714 22.5615 5.40732 22.7391C4.51569 23.969 3.54548 23.7708 2.88957 23.3882C1.83054 22.7733 1.92619 21.7655 2.12775 21.3214C2.83491 19.3946 4.26972 17.8334 6.15547 16.9589C7.28624 16.4396 8.5195 16.2005 9.72884 16.2654C9.73909 16.2654 9.75275 16.2654 9.763 16.2688C10.5726 16.2312 11.8674 16.4191 12.718 16.6104C12.9503 16.6719 13.1519 16.73 13.3364 16.7881C14.4569 16.8256 14.7985 16.6138 14.9147 16.4874C15.0991 16.2825 15.0342 15.8315 14.9659 15.3498C14.9078 14.9331 14.8395 14.465 14.9181 14.0141C14.9112 13.8535 14.9352 13.5666 14.9796 13.2762C15.1709 11.838 15.6662 10.6969 16.4485 9.88047C16.3392 9.71308 16.2367 9.54226 16.1377 9.36462C15.1435 7.52669 14.9181 5.40864 15.5057 3.40332C15.7346 2.74399 16.5374 1.96851 17.8594 2.41945C18.5154 2.64492 18.8023 3.02753 18.9253 3.31108C19.1474 3.81668 19.0005 4.29495 18.9458 4.44526C18.6418 5.52137 18.7647 6.64873 19.2908 7.62235C19.4548 7.91956 19.6495 8.19627 19.8682 8.43541C20.3055 8.41491 20.6778 8.44566 20.9272 8.4764C21.0878 8.50032 21.2449 8.52765 21.3781 8.5379C23.9437 8.96151 26.4649 10.8268 25.9422 14.8101C25.8944 15.1722 25.8227 15.5343 25.7304 15.8759C25.727 15.8896 25.7236 15.8998 25.7202 15.9135C25.2419 18.8207 23.5884 21.4956 21.0604 23.4531C18.6315 25.3013 15.9566 26.2852 13.5413 26.2852Z" fill="#86888C"/>
</svg>
