<svg width="24" height="24" viewBox="0 0 24 24" fill="none" xmlns="http://www.w3.org/2000/svg">
<path fill-rule="evenodd" clip-rule="evenodd" d="M20.5204 20.3896C20.5204 20.6314 20.3412 20.8448 20.1363 20.8448H3.84948C3.64462 20.8448 3.4682 20.6314 3.4682 20.3896V8.76058C3.4682 8.51873 3.64462 8.30533 3.84948 8.30533H8.97396V10.8064C8.97396 11.1507 9.30403 11.4295 9.71091 11.4295H13.9562C14.3631 11.4295 14.6931 11.1507 14.6931 10.8064L14.6903 8.30533H20.1363C20.3412 8.30533 20.5204 8.51873 20.5204 8.76058V20.3896ZM4.88519 3.6674C4.89942 3.61903 4.90511 3.57066 4.90511 3.52229C4.90511 3.42554 4.999 3.34587 5.11282 3.34587H9.4406L9.04794 7.05906H3.92631L4.88519 3.6674ZM19.0864 3.52229C19.0864 3.5735 19.092 3.62187 19.1091 3.67025L20.0908 7.05622H14.6078L14.1383 3.34303H18.8758C18.9925 3.34587 19.0864 3.4227 19.0864 3.52229ZM21.963 8.48174C21.9744 8.40492 21.9744 8.32809 21.9516 8.24842L20.5574 3.43693C20.5033 2.69144 19.7721 2.09961 18.8786 2.09961H5.11566C4.21938 2.09961 3.48528 2.69429 3.4369 3.43977L2.08252 8.25411C2.07967 8.26834 2.08252 8.27972 2.07967 8.29395C2.0313 8.44475 2 8.60124 2 8.76628V20.3952C2 21.3342 2.83084 22.0996 3.85517 22.0996H20.142C21.1663 22.0996 21.9972 21.3342 21.9972 20.3952V8.76628C21.9943 8.66384 21.9801 8.57279 21.963 8.48174Z" fill="#86888C"/>
</svg>
