<svg width="28" height="28" viewBox="0 0 28 28" fill="none" xmlns="http://www.w3.org/2000/svg">
<path fill-rule="evenodd" clip-rule="evenodd" d="M17.2149 19.7762V18.0446C21.006 17.7782 24.657 16.8253 27.0034 15.5002V24.3119C27.0034 25.2989 26.2076 26.1016 25.2274 26.1016H4.77601C3.79579 26.1016 3 25.2989 3 24.3119V15.2679C5.33613 16.6956 8.99061 17.7236 12.7851 18.0241V19.7762C12.7851 20.1998 12.9764 20.5515 13.3145 20.7735C13.5638 20.9341 13.8746 21.016 14.2742 21.016H15.736C16.1254 21.016 16.4464 20.9341 16.6855 20.7735C17.027 20.5515 17.2149 20.1998 17.2149 19.7762ZM19.51 8.21854V7.79161C19.51 5.48622 17.5359 3.61117 15.1144 3.61117H14.889C12.4641 3.61117 10.4934 5.48622 10.4934 7.79161V8.21854H19.51ZM25.2274 8.21854C26.2076 8.21854 27.0034 9.02116 27.0034 10.0082V13.7207C24.6741 15.408 19.7423 16.617 15.0939 16.617C10.3568 16.617 5.31564 15.2884 3 13.4475V10.0082C3 9.02116 3.79579 8.21854 4.77942 8.21854H8.99402V7.79161C8.99402 4.65286 11.641 2.10156 14.8924 2.10156H15.1178C18.3693 2.10156 21.0162 4.65628 21.0162 7.79161V8.21854H25.2274ZM14.2845 19.5064V18.1266H15.7155V19.5064H14.2845Z" fill="#86888C"/>
</svg>
