<svg width="24" height="24" viewBox="0 0 24 24" fill="none" xmlns="http://www.w3.org/2000/svg">
<path fill-rule="evenodd" clip-rule="evenodd" d="M16.8042 7.71429C16.8042 7.94479 16.6192 8.12977 16.3916 8.12977H13.7621C13.5344 8.12977 13.3495 7.94195 13.3495 7.71429V5.05635C13.3495 4.82584 13.5344 4.64087 13.7621 4.64087H16.3916C16.6192 4.64087 16.8042 4.82584 16.8042 5.05635V7.71429ZM16.8042 12.9334C16.8042 13.1639 16.6192 13.3489 16.3916 13.3489H13.7621C13.5344 13.3489 13.3495 13.1611 13.3495 12.9334V10.2726C13.3495 10.0421 13.5344 9.85714 13.7621 9.85714H16.3916C16.6192 9.85714 16.8042 10.045 16.8042 10.2726V12.9334ZM11.605 7.71429C11.605 7.94479 11.42 8.12977 11.1924 8.12977H8.56289C8.33523 8.12977 8.15026 7.94195 8.15026 7.71429V5.05635C8.15026 4.82584 8.33523 4.64087 8.56289 4.64087H11.1924C11.42 4.64087 11.605 4.82584 11.605 5.05635V7.71429ZM11.605 12.9334C11.605 13.1639 11.42 13.3489 11.1924 13.3489H8.56289C8.33523 13.3489 8.15026 13.1611 8.15026 12.9334V10.2726C8.15026 10.0421 8.33523 9.85714 8.56289 9.85714H11.1924C11.42 9.85714 11.605 10.045 11.605 10.2726V12.9334ZM18.7621 2H6.23506C5.58907 2 5 2.58338 5 3.22083V20.7792C5 21.4308 5.57769 22 6.23506 22H10.35V16.4052C10.35 16.1747 10.535 15.9898 10.7627 15.9898H14.2373C14.465 15.9898 14.65 16.1747 14.65 16.4052V22H18.7649C19.4223 22 20 21.428 20 20.7792V3.22083C19.9972 2.58338 19.4081 2 18.7621 2Z" fill="#86888C"/>
</svg>
