<svg width="40" height="40" viewBox="0 0 40 40" fill="none" xmlns="http://www.w3.org/2000/svg">
<path fill-rule="evenodd" clip-rule="evenodd" d="M28.2476 12.2857C28.2476 12.7006 27.9146 13.0336 27.5048 13.0336H22.7718C22.362 13.0336 22.029 12.6955 22.029 12.2857V7.50142C22.029 7.08651 22.362 6.75356 22.7718 6.75356H27.5048C27.9146 6.75356 28.2476 7.08651 28.2476 7.50142V12.2857ZM28.2476 21.6801C28.2476 22.095 27.9146 22.428 27.5048 22.428H22.7718C22.362 22.428 22.029 22.0899 22.029 21.6801V16.8907C22.029 16.4758 22.362 16.1429 22.7718 16.1429H27.5048C27.9146 16.1429 28.2476 16.4809 28.2476 16.8907V21.6801ZM18.889 12.2857C18.889 12.7006 18.5561 13.0336 18.1463 13.0336H13.4132C13.0034 13.0336 12.6705 12.6955 12.6705 12.2857V7.50142C12.6705 7.08651 13.0034 6.75356 13.4132 6.75356H18.1463C18.5561 6.75356 18.889 7.08651 18.889 7.50142V12.2857ZM18.889 21.6801C18.889 22.095 18.5561 22.428 18.1463 22.428H13.4132C13.0034 22.428 12.6705 22.0899 12.6705 21.6801V16.8907C12.6705 16.4758 13.0034 16.1429 13.4132 16.1429H18.1463C18.5561 16.1429 18.889 16.4809 18.889 16.8907V21.6801ZM31.7718 2H9.22311C8.06033 2 7 3.05009 7 4.1975V35.8025C7 36.9755 8.03984 38 9.22311 38H16.6301V27.9294C16.6301 27.5145 16.963 27.1816 17.3728 27.1816H23.6272C24.037 27.1816 24.37 27.5145 24.37 27.9294V38H31.7769C32.9602 38 34 36.9704 34 35.8025V4.1975C33.9949 3.05009 32.9345 2 31.7718 2Z" fill="#86888C"/>
</svg>
