<svg width="24" height="24" viewBox="0 0 24 24" fill="none" xmlns="http://www.w3.org/2000/svg">
<path fill-rule="evenodd" clip-rule="evenodd" d="M17.1743 17.5043C18.4831 17.3877 20.7111 16.7247 20.7111 13.5493C20.7111 10.3881 18.4945 9.70522 17.1743 9.57718V17.5043ZM17.1743 8.33091C18.5344 8.45327 22 9.19021 22 13.5493C22 17.9852 18.4262 18.6567 17.1202 18.7535C17.0092 19.6981 16.682 20.4436 16.1073 20.9927C15.3959 21.6699 14.3972 22 13.0485 22H6.12292C4.77422 22 3.7755 21.6699 3.06416 20.9927C2.34713 20.3099 2 19.3396 2 18.0307V7.30659C2 6.9623 2.29023 6.68345 2.6459 6.68345H16.5255C16.8812 6.68345 17.1714 6.9623 17.1714 7.30659V8.33091H17.1743ZM7.54275 5.65628C7.54275 5.44288 7.46024 5.31484 7.30374 5.08436C7.13587 4.84536 6.92816 4.54659 6.92531 4.11694C6.92246 3.67876 7.13871 3.38853 7.29521 3.17229C7.44601 2.96742 7.5456 2.83084 7.54275 2.54346C7.53991 2.2447 7.78745 2.00285 8.0976 2H8.10329C8.41058 2 8.66098 2.23901 8.66382 2.53208C8.66951 3.1666 8.39351 3.54503 8.20857 3.79542C8.08337 3.96329 8.04353 4.02589 8.04638 4.10841C8.04638 4.21084 8.11182 4.30758 8.23417 4.48399C8.41628 4.74577 8.66667 5.10428 8.66382 5.65628C8.66382 5.95504 8.41343 6.19405 8.10329 6.19405C7.79314 6.1969 7.54275 5.95504 7.54275 5.65628ZM10.3198 5.70465C10.3027 5.63636 10.1889 5.4628 10.1292 5.37175C9.98976 5.15834 9.85603 4.95917 9.85033 4.723C9.83895 4.43278 10.0125 4.18523 10.1633 3.96899C10.2174 3.88932 10.3113 3.75843 10.3255 3.70721C10.3113 3.40845 10.5474 3.18367 10.8547 3.16944C11.1478 3.17798 11.4238 3.4113 11.438 3.71006C11.4551 4.04866 11.2531 4.33604 11.0909 4.56936C11.0653 4.60635 11.034 4.65187 11.0055 4.69455C11.0255 4.72585 11.0482 4.75999 11.0738 4.79698C11.2246 5.02746 11.4153 5.31199 11.4352 5.62498C11.4551 5.92374 11.2246 6.17983 10.9145 6.19974C10.9003 6.19974 10.8889 6.20259 10.8747 6.20259C10.5873 6.1969 10.3426 5.9835 10.3198 5.70465Z" fill="#86888C"/>
</svg>
