<svg width="29" height="28" viewBox="0 0 29 28" fill="none" xmlns="http://www.w3.org/2000/svg">
<path d="M24.3545 23.9308C26.1732 22.036 26.0425 20.3122 24.3545 18.6364C24.0279 18.3046 23.66 18.0173 23.2612 17.7779C21.8586 16.9092 20.3871 17.1007 18.9157 18.5645C18.7232 18.7561 18.5444 18.9579 18.3794 19.1733C17.348 20.1207 14.8899 17.966 12.6484 15.7395L12.5452 15.6369C10.3037 13.4103 8.14124 10.9649 9.09354 9.93542C9.31013 9.77125 9.51297 9.5934 9.70549 9.40187C11.1769 7.93803 11.3729 6.4742 10.4962 5.07876C10.259 4.6786 9.96678 4.31264 9.6333 3.99115C7.94871 2.31526 6.216 2.18187 4.31139 3.99115C3.92634 4.35711 3.52754 4.93854 3.51379 4.9488C1.88077 7.30188 3.52754 12.6852 9.51985 18.6466L9.62298 18.7492C15.6153 24.714 21.0266 26.3489 23.3919 24.7243C23.4056 24.714 23.9901 24.3138 24.3545 23.9308Z" fill="#86888C"/>
<path d="M21.2019 26C20.1396 26 18.9226 25.7401 17.6127 25.2202C14.9346 24.1565 12.002 22.0873 9.1348 19.2349L9.12792 19.228L9.0351 19.1391L9.02822 19.1323C6.16099 16.2798 4.08104 13.3659 3.01185 10.6981C1.99079 8.14667 1.96672 5.96801 2.94309 4.5589L2.97747 4.50759C3.10467 4.34685 3.46222 3.85092 3.83695 3.49522C4.90271 2.48285 5.98909 1.98008 7.0686 2.0006C8.10686 2.02112 9.1348 2.52731 10.1215 3.5089C10.4928 3.87144 10.8194 4.28186 11.0841 4.72991C11.6135 5.57811 11.8061 6.45368 11.6548 7.33266C11.5035 8.21165 11.0119 9.07011 10.1868 9.89096C9.99428 10.0825 9.79144 10.2638 9.57829 10.4313C9.49922 10.575 9.54735 11.0265 10.1868 11.9567C10.926 13.0307 12.1636 14.2996 13.03 15.1615L13.1331 15.2641C13.9995 16.1259 15.2749 17.3538 16.3544 18.0925C17.2861 18.7287 17.7434 18.7766 17.8878 18.6979C18.0562 18.4859 18.235 18.2841 18.431 18.0925C19.2561 17.2717 20.119 16.7826 21.0025 16.6321C21.8861 16.4816 22.7662 16.6732 23.6188 17.1999C24.0692 17.4667 24.4783 17.7881 24.8461 18.1609C25.8328 19.1425 26.3416 20.1652 26.3623 21.1981C26.3829 22.2686 25.8775 23.3528 24.8564 24.413C24.4989 24.7858 24.0004 25.1415 23.8354 25.2612L23.8147 25.2749C23.8044 25.2818 23.7941 25.2886 23.7838 25.2989C23.0928 25.764 22.2161 26 21.2019 26ZM10.1112 18.2704C12.8443 20.9894 15.6153 22.9526 18.1215 23.9479C20.2049 24.7756 21.9755 24.8542 22.9896 24.1702L23.0309 24.1428C23.4022 23.8761 23.6807 23.6469 23.8594 23.4622C25.3584 21.9026 25.3618 20.603 23.8698 19.122C23.5844 18.8313 23.2647 18.5816 22.9174 18.373L22.8968 18.3627C22.3261 18.0105 21.7795 17.8839 21.2294 17.9763C20.6347 18.0754 20.0193 18.438 19.4004 19.0536C19.2251 19.2246 19.0635 19.4059 18.9157 19.6008C18.8916 19.6282 18.8676 19.6556 18.8435 19.6795C18.5513 19.9497 18.0253 20.2267 17.1933 20.0147C16.7223 19.895 16.1929 19.635 15.5775 19.2144C14.4051 18.414 13.0678 17.1246 12.1636 16.2251L12.0605 16.1225C11.1563 15.223 9.8602 13.8926 9.05573 12.7229C8.63286 12.1107 8.36814 11.5839 8.25125 11.1154C8.04154 10.2877 8.32001 9.76441 8.58817 9.47369C8.61223 9.44633 8.63974 9.42239 8.66724 9.40187C8.8632 9.2548 9.04541 9.09406 9.21731 8.91963C9.83614 8.30399 10.2006 7.69178 10.3003 7.10009C10.3931 6.54944 10.2659 6.00905 9.91177 5.4413L9.90146 5.42078C9.69174 5.07534 9.44077 4.75385 9.14855 4.47339C7.65993 2.99246 6.35351 2.99588 4.78582 4.48707C4.60017 4.66492 4.36639 4.94196 4.10167 5.31134L4.07073 5.35238C3.38315 6.35791 3.46566 8.12272 4.2942 10.1954C5.29463 12.6887 7.268 15.4453 10.0012 18.1644L10.063 18.2259L10.1112 18.2704Z" fill="#86888C"/>
</svg>
