<svg width="28" height="28" viewBox="0 0 28 28" fill="none" xmlns="http://www.w3.org/2000/svg">
<path fill-rule="evenodd" clip-rule="evenodd" d="M19.8497 18.7945C20.1434 19.0882 20.1434 19.5629 19.8497 19.8566C19.7029 20.0034 19.5117 20.0751 19.3204 20.0751C19.1258 20.0751 18.938 20.0034 18.7877 19.8566L13.9932 15.062L9.21229 19.8429C9.06545 19.9898 8.87422 20.0615 8.68298 20.0615C8.49175 20.0615 8.30051 19.9863 8.15367 19.8429C7.85999 19.5492 7.85999 19.0746 8.15367 18.7809L12.9345 14L8.15367 9.21912C7.85999 8.92544 7.85999 8.45077 8.15367 8.1605C8.44735 7.86682 8.92203 7.86682 9.21229 8.1605L13.9932 12.9414L18.7877 8.14343C19.0814 7.84974 19.5561 7.84974 19.8497 8.14343C20.1434 8.43711 20.1434 8.91178 19.8497 9.20546L15.0518 14L19.8497 18.7945ZM13.9966 2C6.41548 2 2 5.82812 2 14.0034C2 22.1787 6.41548 26 13.9966 26C21.5777 26 26 22.1787 26 14.0034C26 5.82812 21.5777 2 13.9966 2Z" fill="#86888C"/>
</svg>
