<svg width="40" height="40" viewBox="0 0 40 40" fill="none" xmlns="http://www.w3.org/2000/svg">
<path fill-rule="evenodd" clip-rule="evenodd" d="M28.7019 33.7592C26.3621 33.7592 25.1739 32.5763 25.1739 30.2417C25.1739 27.9071 26.3621 26.7242 28.7019 26.7242C31.0417 26.7242 32.2298 27.9071 32.2298 30.2417C32.2298 32.5763 31.0417 33.7592 28.7019 33.7592ZM11.0205 33.7592C8.68068 33.7592 7.49254 32.5763 7.49254 30.2417C7.49254 27.9071 8.68068 26.7242 11.0205 26.7242C13.3603 26.7242 14.5484 27.9071 14.5484 30.2417C14.5484 32.5763 13.3603 33.7592 11.0205 33.7592ZM37.1387 19.0221C36.5134 18.2144 31.7504 11.9141 30.9375 10.7885C30.088 9.60557 28.5716 8.84474 27.0812 8.84474H19.0769C18.4568 8.84474 17.9565 9.34501 17.9565 9.95993V18.8137L10.145 7.50548C9.93657 7.20323 9.59784 7.02606 9.22785 7.02084L6.54411 7H6.53369C6.42947 7 6.34088 7.0469 6.24187 7.07296C6.15849 7.08859 6.07511 7.10422 5.99694 7.13549C5.99173 7.1407 5.98652 7.14591 5.9761 7.15112C5.60611 7.33351 5.34034 7.7035 5.34034 8.14645L5.32471 15.9527C5.32992 16.0309 5.30907 16.3801 5.16837 16.5312C5.10584 16.5989 4.98077 16.6302 4.79838 16.6302C4.6212 16.5781 4.47008 16.6146 4.3867 16.526C4.26685 16.3957 4.23037 16.0674 4.246 15.8954C4.31375 15.2857 3.87601 14.7281 3.2611 14.6552C2.64097 14.5926 2.08859 15.0199 2.01563 15.6349C2 15.7808 1.87493 17.0836 2.71393 18.0164C3.06307 18.4072 3.70404 18.8658 4.78796 18.8658H4.81402C5.84582 18.8606 6.47637 18.4124 6.81509 18.0424C7.63324 17.1565 7.57071 15.9267 7.56029 15.8746L7.5655 12.7323L10.8485 19.34H3.1204C2.50027 19.34 2 19.8403 2 20.4552V28.6419C2 29.7102 2.469 30.7889 3.29236 31.607C3.94897 32.2636 4.78275 32.6701 5.72597 32.8212C6.55454 34.8275 8.42013 36 11.0101 36C13.5687 36 15.4135 34.8483 16.2577 32.8942H23.4386C24.2828 34.8535 26.1276 36 28.6863 36C31.2449 36 33.0897 34.8483 33.9339 32.8942H34.3508C35.419 32.8942 36.5082 32.4252 37.3263 31.607C38.1497 30.7889 38.6187 29.7049 38.6187 28.6419V22.425C38.6343 20.9554 37.6598 19.6943 37.1387 19.0221Z" fill="#86888C"/>
</svg>
