<svg width="40" height="40" viewBox="0 0 40 40" fill="none" xmlns="http://www.w3.org/2000/svg">
<path d="M15.8561 31.9513C14.9385 31.9513 14.2055 32.2127 13.6724 32.7253C13.1136 33.2636 12.8317 34.0171 12.8317 34.9757C12.8317 35.9342 13.1136 36.6877 13.6724 37.226C14.2055 37.7386 14.9436 38 15.8561 38C16.7685 38 17.5066 37.7386 18.0397 37.226C18.5985 36.6877 18.8804 35.9342 18.8804 34.9757C18.8804 34.0171 18.5985 33.2636 18.0397 32.7253C17.5066 32.2127 16.7736 31.9513 15.8561 31.9513ZM25.8518 31.9513C24.9342 31.9513 24.2012 32.2127 23.6681 32.7253C23.1094 33.2636 22.8274 34.0171 22.8274 34.9757C22.8274 35.9342 23.1094 36.6877 23.6681 37.226C24.2012 37.7386 24.9393 38 25.8518 38C26.7642 38 27.5024 37.7386 28.0355 37.226C28.5891 36.6877 28.8761 35.9342 28.8761 34.9757C28.8761 34.0171 28.5942 33.2636 28.0355 32.7253C27.5024 32.2127 26.7693 31.9513 25.8518 31.9513ZM36.1243 10.8526C35.9295 10.6015 35.6322 10.4579 35.3144 10.4579H29.0914V8.27937C29.0914 7.40795 28.3225 6.73131 26.8001 6.2751C25.6057 5.91628 24.0269 5.71636 22.3661 5.71636C20.7053 5.71636 19.1264 5.91628 17.9321 6.2751C16.4097 6.73131 15.6408 7.40795 15.6408 8.27937V10.4579H9.68433C9.28963 8.16147 8.97181 6.34173 8.87955 5.84451C8.47972 3.61469 6.37805 2 3.87143 2H1.40069C0.83683 2 0.375488 2.46134 0.375488 3.0252C0.375488 3.58906 0.83683 4.05041 1.40069 4.05041H3.87656C5.3631 4.05041 6.6446 4.97821 6.86502 6.20333C7.14183 7.75139 9.60231 22.0068 9.85861 23.6369C10.1559 25.513 10.8531 26.9842 11.9398 28.0094C12.9752 28.9885 14.3388 29.5011 15.8714 29.5011H27.3178C28.8351 29.5011 30.1217 28.9833 31.1469 27.9633C32.1158 26.9944 32.8232 25.6104 33.3101 23.7394C33.5254 22.9039 34.2379 20.0487 34.9248 17.2807C35.4938 15.0047 36.0269 12.8518 36.3088 11.7394C36.3857 11.4267 36.3191 11.1038 36.1243 10.8526ZM18.6805 7.65912C19.6954 7.39769 21.0026 7.25417 22.361 7.25417C23.7194 7.25417 25.0265 7.39769 26.0414 7.65912C26.9795 7.90004 27.3588 8.15634 27.4972 8.27937L27.4921 8.28449L27.487 8.28962L27.4716 8.29987L27.4665 8.305C27.4562 8.31525 27.4408 8.3255 27.4255 8.33575L27.4203 8.34088L27.3998 8.35626L27.3947 8.36138L27.3742 8.37676L27.364 8.38189L27.3434 8.39727L27.3383 8.40239C27.3178 8.41264 27.2973 8.42802 27.2768 8.4434L27.2666 8.44853L27.2409 8.4639L27.2255 8.46903L27.1999 8.48441L27.1845 8.49466L27.1538 8.51004L27.1435 8.51516L27.1025 8.53567L27.0923 8.54079L27.0564 8.5613L27.041 8.57155L27.0103 8.58693L26.9897 8.59718L26.959 8.59206L26.9385 8.60231L26.8975 8.61769L26.8821 8.62281L26.8206 8.64844L26.8001 8.65357L26.754 8.66895L26.7283 8.6792L26.6873 8.69458L26.6617 8.70483L26.6156 8.72021L26.5899 8.73046L26.5335 8.75096L26.513 8.75609L26.4361 8.78172L26.4105 8.79197L26.3541 8.80735L26.3234 8.8176L26.267 8.83298L26.2311 8.84323L26.1696 8.85861L26.1388 8.86886L26.0414 8.89449C25.0265 9.15592 23.7194 9.29945 22.361 9.29945C21.0026 9.29945 19.6954 9.15592 18.6805 8.89449L18.5831 8.86886L18.5523 8.85861L18.4908 8.84323L18.4549 8.83298L18.3986 8.8176L18.3678 8.80735L18.3114 8.79197L18.2858 8.78172L18.2089 8.75609L18.1884 8.75096L18.132 8.73046L18.1064 8.72021L18.0602 8.70483L18.0346 8.69458L17.9936 8.6792L17.968 8.66895L17.9218 8.65357L17.9013 8.64844L17.8398 8.62281L17.8244 8.61769L17.7834 8.60231L17.7629 8.59206L17.7322 8.57668L17.7117 8.56643L17.6809 8.55105L17.6655 8.54079L17.6297 8.52542L17.6194 8.52029L17.5733 8.49979L17.563 8.49466L17.5323 8.47928L17.5169 8.46903L17.4912 8.45365L17.4759 8.44853L17.4502 8.43315L17.44 8.42802C17.4195 8.41264 17.3939 8.40239 17.3785 8.38701L17.3734 8.38189L17.3528 8.36651L17.3426 8.36138L17.3221 8.34601L17.317 8.34088L17.2965 8.3255L17.2913 8.32038C17.276 8.31012 17.2657 8.29987 17.2503 8.28962L17.2452 8.28449L17.2298 8.27424L17.2247 8.26912L17.2196 8.26399C17.3631 8.15122 17.7424 7.90004 18.6805 7.65912ZM27.5536 22.5297C27.487 22.6066 27.164 22.9141 26.0414 23.2063C25.0265 23.4678 23.7194 23.6113 22.361 23.6113C21.0026 23.6113 19.6954 23.4678 18.6805 23.2063C17.5579 22.9193 17.2401 22.6117 17.1683 22.5297V19.5515L17.1888 19.5617C17.2298 19.5822 17.276 19.5976 17.317 19.613L17.358 19.6284C17.4092 19.6489 17.4656 19.6694 17.522 19.6899L17.5425 19.695C17.5938 19.7155 17.645 19.7309 17.6963 19.7463L17.7424 19.7616C17.8039 19.7821 17.8603 19.8026 17.9218 19.818C19.1162 20.1768 20.695 20.3768 22.3558 20.3768C24.0167 20.3768 25.6006 20.182 26.795 19.8232C26.8565 19.8027 26.918 19.7873 26.9744 19.7668L27.0205 19.7514C27.0718 19.736 27.123 19.7155 27.1743 19.7001L27.1948 19.695C27.2512 19.6745 27.3024 19.654 27.3588 19.6335L27.3998 19.6181C27.446 19.6027 27.487 19.5822 27.528 19.5669L27.5485 19.5566L27.5536 22.5297ZM27.5536 17.7625L27.5434 17.7727L27.5382 17.7779V17.783L27.528 17.7933L27.5229 17.7984L27.5126 17.8086L27.5075 17.8138L27.4972 17.824L27.4921 17.8291L27.4818 17.8394L27.4767 17.8445L27.4665 17.8548L27.4562 17.8599L27.4408 17.8701L27.4306 17.8753L27.4152 17.8855L27.405 17.8906L27.3896 17.9009L27.3793 17.9111L27.364 17.9214L27.3486 17.9317L27.3332 17.9419L27.3178 17.9522L27.2973 17.9624L27.2819 17.9727L27.2614 17.9829L27.2461 17.9932L27.2255 18.0034L27.205 18.0137L27.1845 18.0239L27.164 18.0342L27.1384 18.0444L27.1128 18.0547L27.0871 18.0649L27.0615 18.0752L27.0359 18.0854L27.0103 18.1008L26.9846 18.1111L26.9539 18.1264L26.9231 18.1367L26.8924 18.1521L26.8616 18.1623L26.8257 18.1777L26.795 18.188L26.7591 18.2033L26.7232 18.2136L26.6822 18.229L26.6463 18.2443L26.6053 18.2597L26.5694 18.2751L26.5284 18.2905L26.4925 18.3007L26.4464 18.3161L26.3951 18.3315L26.3439 18.3469L26.2977 18.3622L26.2465 18.3776L26.185 18.393L26.144 18.4032L26.0414 18.4289C25.0265 18.6903 23.7194 18.8338 22.361 18.8338C21.0026 18.8338 19.6954 18.6903 18.6805 18.4289L18.578 18.4032L18.537 18.393L18.4754 18.3776L18.4242 18.3622L18.378 18.3469L18.3268 18.3315L18.2858 18.3212L18.2396 18.3059L18.2038 18.2956L18.1628 18.2802L18.1269 18.2648L18.0859 18.2495L18.05 18.2341L18.009 18.2187L17.9731 18.2085L17.9372 18.1931L17.9065 18.1828L17.8706 18.1674L17.8398 18.1572L17.8091 18.1418L17.7783 18.1316L17.7475 18.1162L17.7219 18.1059L17.6963 18.0906L17.6707 18.0803L17.645 18.0701L17.6194 18.0598L17.5938 18.0496L17.5681 18.0393L17.5476 18.029L17.5271 18.0188L17.5066 18.0085L17.4861 17.9983L17.4656 17.988L17.4451 17.9778L17.4297 17.9675L17.4092 17.9573L17.3939 17.947L17.3734 17.9368L17.358 17.9265L17.3426 17.9163L17.3323 17.906L17.317 17.8958L17.3067 17.8906L17.2913 17.8804L17.2811 17.8753L17.2657 17.865L17.2606 17.8599L17.2503 17.8496L17.2452 17.8445L17.2349 17.8343L17.2298 17.8291L17.2196 17.8189L17.2144 17.8138L17.2042 17.8035L17.1991 17.7984L17.1888 17.7881V17.783L17.1837 17.7779L17.1786 17.7727L17.1734 17.7676V14.7843L17.1939 14.7945C17.2349 14.815 17.2811 14.8304 17.3221 14.8458L17.3631 14.8612C17.4144 14.8817 17.4707 14.9022 17.5271 14.9227L17.5476 14.9278C17.5989 14.9483 17.6502 14.9637 17.7014 14.9791L17.7475 14.9944C17.8091 15.015 17.8654 15.0355 17.927 15.0508C19.1213 15.4097 20.7001 15.6096 22.3661 15.6096C24.032 15.6096 25.6006 15.4148 26.795 15.056C26.8565 15.0355 26.918 15.0201 26.9744 14.9996L27.0205 14.9842C27.0718 14.9688 27.123 14.9483 27.1743 14.9329L27.1948 14.9278C27.2512 14.9073 27.3024 14.8868 27.3588 14.8663L27.3998 14.8509C27.446 14.8355 27.487 14.815 27.528 14.7997L27.5485 14.7894L27.5536 17.7625ZM27.5536 12.9953L27.5434 13.0056L27.5382 13.0107V13.0158L27.528 13.0261L27.5229 13.0312L27.5126 13.0414L27.5075 13.0466L27.4972 13.0568L27.4921 13.0619L27.4818 13.0722L27.4767 13.0773L27.4665 13.0876L27.4562 13.0927L27.4408 13.1029L27.4306 13.1081L27.4152 13.1183L27.405 13.1235L27.3896 13.1337L27.3793 13.144L27.364 13.1542L27.3486 13.1645L27.3332 13.1747L27.3178 13.185L27.2973 13.1952L27.2819 13.2055L27.2614 13.2157L27.2461 13.226L27.2255 13.2362L27.205 13.2465L27.1845 13.2567L27.164 13.267L27.1384 13.2772L27.1128 13.2875L27.0871 13.2977L27.0615 13.308L27.0359 13.3182L27.0103 13.3336L26.9846 13.3439L26.9539 13.3592L26.9231 13.3695L26.8924 13.3849L26.8616 13.3951L26.8257 13.4105L26.795 13.4208L26.7591 13.4361L26.7232 13.4464L26.6822 13.4618L26.6463 13.4771L26.6053 13.4925L26.5694 13.5079L26.5284 13.5233L26.4925 13.5335L26.4464 13.5489L26.4054 13.5592L26.3541 13.5745L26.308 13.5899L26.2567 13.6053L26.1952 13.6207L26.1542 13.6309L26.0517 13.6566C25.0367 13.918 23.7296 14.0615 22.3712 14.0615C21.0128 14.0615 19.7057 13.918 18.6907 13.6566L18.5882 13.6309L18.5472 13.6207L18.4857 13.6053L18.4344 13.5899L18.3883 13.5745L18.337 13.5592L18.296 13.5489L18.2499 13.5335L18.214 13.5233L18.173 13.5079L18.1371 13.4925L18.0961 13.4771L18.0602 13.4618L18.0192 13.4464L17.9833 13.4361L17.9475 13.4208L17.9167 13.4105L17.8808 13.3951L17.8501 13.3849L17.8193 13.3695L17.7886 13.3592L17.7578 13.3439L17.7322 13.3336L17.7065 13.3182L17.6809 13.308L17.6553 13.2977L17.6297 13.2875L17.604 13.2772L17.5784 13.267L17.5579 13.2567L17.5374 13.2465L17.5169 13.2362L17.4964 13.226L17.4759 13.2157L17.4554 13.2055L17.44 13.1952L17.4195 13.185L17.4041 13.1747L17.3836 13.1645L17.3682 13.1542L17.3528 13.144L17.3426 13.1337L17.3272 13.1235L17.317 13.1183L17.3016 13.1081L17.2913 13.1029L17.276 13.0927L17.2708 13.0876L17.2606 13.0773L17.2555 13.0722L17.2452 13.0619L17.2401 13.0568L17.2298 13.0466L17.2247 13.0414L17.2144 13.0312L17.2093 13.0261L17.1991 13.0158V13.0107L17.1939 13.0056L17.1888 13.0004L17.1837 12.9953V10.012L17.2042 10.0222C17.2452 10.0376 17.2913 10.0581 17.3323 10.0735L17.3734 10.0889C17.4246 10.1094 17.481 10.1299 17.5374 10.1504L17.5579 10.1555C17.6091 10.176 17.6604 10.1914 17.7117 10.2067L17.7578 10.2221C17.8193 10.2426 17.8757 10.2631 17.9372 10.2785C19.1316 10.6373 20.7104 10.8372 22.3763 10.8372C24.0423 10.8372 25.616 10.6373 26.8103 10.2785C26.8719 10.258 26.9334 10.2426 26.9897 10.2221L27.0359 10.2067C27.0871 10.1914 27.1384 10.1709 27.1897 10.1555L27.2102 10.1504C27.2666 10.1299 27.3178 10.1094 27.3742 10.0889L27.4152 10.0735C27.4613 10.0581 27.5024 10.0376 27.5434 10.0222L27.5639 10.012L27.5536 12.9953Z" fill="#86888C"/>
</svg>
