<svg width="28" height="28" viewBox="0 0 28 28" fill="none" xmlns="http://www.w3.org/2000/svg">
<path d="M10.3174 21.9687C9.70591 21.9687 9.21737 22.1429 8.86206 22.4846C8.48968 22.8433 8.30178 23.3455 8.30178 23.9843C8.30178 24.6232 8.48968 25.1254 8.86206 25.4841C9.21737 25.8258 9.70932 26 10.3174 26C10.9256 26 11.4175 25.8258 11.7728 25.4841C12.1452 25.1254 12.3331 24.6232 12.3331 23.9843C12.3331 23.3455 12.1452 22.8433 11.7728 22.4846C11.4175 22.1429 10.929 21.9687 10.3174 21.9687ZM16.9794 21.9687C16.3678 21.9687 15.8793 22.1429 15.524 22.4846C15.1516 22.8433 14.9637 23.3455 14.9637 23.9843C14.9637 24.6232 15.1516 25.1254 15.524 25.4841C15.8793 25.8258 16.3712 26 16.9794 26C17.5875 26 18.0794 25.8258 18.4347 25.4841C18.8037 25.1254 18.995 24.6232 18.995 23.9843C18.995 23.3455 18.8071 22.8433 18.4347 22.4846C18.0794 22.1429 17.5909 21.9687 16.9794 21.9687ZM23.8258 7.9069C23.6959 7.7395 23.4978 7.64384 23.286 7.64384H19.159V4.24797C19.159 2.75502 18.4108 2 16.9349 2H12.3638C10.9085 2 10.1398 2.77893 10.1398 4.24797V7.64384H6.20413C5.94107 6.11331 5.72925 4.9005 5.66776 4.56911C5.40128 3.08299 4.00057 2.00683 2.32996 2.00683H0.683274C0.307473 2.00683 0 2.31431 0 2.69011C0 3.06591 0.307473 3.37338 0.683274 3.37338H2.33338C3.32413 3.37338 4.17822 3.99174 4.32512 4.80826C4.50961 5.84 6.14947 15.3409 6.32028 16.4273C6.51843 17.6777 6.98306 18.6582 7.70733 19.3415C8.39744 19.994 9.30619 20.3357 10.3277 20.3357H17.9564C18.9677 20.3357 19.8252 19.9906 20.5085 19.3107C21.1542 18.6651 21.6256 17.7426 21.9502 16.4957C22.0937 15.9388 22.5685 14.0359 23.0263 12.191C23.4021 10.6742 23.7609 9.2427 23.9488 8.49794C24 8.28954 23.9556 8.07431 23.8258 7.9069ZM11.1647 4.24797C11.1647 3.34263 11.479 3.02491 12.3638 3.02491H16.9384C17.8437 3.02491 18.1375 3.32214 18.1375 4.24797V13.2501C18.1375 14.1759 17.8471 14.4732 16.9384 14.4732H12.3638C11.4585 14.4732 11.1647 14.1759 11.1647 13.2501V4.24797Z" fill="#86888C"/>
<path d="M14.6496 11.9453C14.2123 11.9453 13.9321 12.1742 13.9321 12.6662C13.9321 12.9019 13.997 13.0795 14.1132 13.1991C14.2396 13.3289 14.4241 13.3904 14.6496 13.3904C14.875 13.3904 15.0595 13.3289 15.1859 13.1991C15.3021 13.0795 15.367 12.9053 15.367 12.6662C15.3704 12.1742 15.0869 11.9453 14.6496 11.9453Z" fill="#86888C"/>
</svg>
