<svg width="20" height="20" viewBox="0 0 20 20" fill="none" xmlns="http://www.w3.org/2000/svg">
<path d="M16.4993 1.69922H4.4383C3.0947 1.69922 2 2.78667 2 4.12544V12.4505C2 13.6442 2.79746 14.6133 3.88733 14.8308V16.8583C3.88733 17.2981 4.30298 17.6992 4.75729 17.6992C5.20435 17.6992 5.42184 17.4092 5.49434 17.3126L7.39858 14.8767H16.4993C17.8429 14.8767 18.9352 13.7892 18.9352 12.4505V4.12302C18.9352 2.78667 17.8429 1.69922 16.4993 1.69922ZM15.61 6.90689H5.31551C5.04969 6.90689 4.8322 6.6894 4.8322 6.42358C4.8322 6.15776 5.04969 5.94027 5.31551 5.94027H15.61C15.8759 5.94027 16.0933 6.15776 16.0933 6.42358C16.0933 6.6894 15.8759 6.90689 15.61 6.90689ZM12.3114 10.6767H5.31551C5.04969 10.6767 4.8322 10.4592 4.8322 10.1934C4.8322 9.92758 5.04969 9.71009 5.31551 9.71009H12.3114C12.5773 9.71009 12.7947 9.92758 12.7947 10.1934C12.7947 10.4592 12.5773 10.6767 12.3114 10.6767Z" fill="#86888C"/>
</svg>
