<svg width="40" height="40" viewBox="0 0 40 40" fill="none" xmlns="http://www.w3.org/2000/svg">
<path fill-rule="evenodd" clip-rule="evenodd" d="M24.2321 33.8976H24.0016C23.3409 33.8822 22.6136 33.6722 22.0605 33.201C21.5022 32.7298 21.1181 32.0077 21.1181 30.9168C21.1181 28.7554 22.6597 27.9667 23.9862 27.9667H24.2321C25.5586 27.9974 27.0951 28.8015 27.0951 30.9321C27.0951 33.0781 25.5534 33.8668 24.2321 33.8976ZM15.9299 20.3969L16.5496 19.5621C16.7033 19.3675 16.7801 19.1216 16.7801 18.8809V4.27401H23.1873V18.8809C23.1873 19.137 23.2641 19.3675 23.4177 19.5621L24.0477 20.4123C21.5176 20.7913 18.4241 20.7913 15.9299 20.3969ZM16.2679 29.2215H16.1296C15.177 29.2061 14.2039 28.5864 14.2039 27.2241C14.2039 25.8771 15.1719 25.2574 16.1296 25.2574H16.2679C17.2359 25.2727 18.209 25.8924 18.209 27.2394C18.209 28.5864 17.2359 29.2061 16.2679 29.2215ZM37.5995 34.5019L26.9875 20.4994L25.492 18.5173V4.27401H26.926C27.5765 4.27401 28.0835 3.75672 28.0835 3.137C28.0835 2.51729 27.5765 2 26.926 2H13.0823C12.4523 2 11.9248 2.51729 11.9248 3.137C11.9248 3.75672 12.4472 4.27401 13.0823 4.27401H14.4651V18.5173L12.9849 20.484L2.31145 34.8041C1.91196 35.4545 1.89148 36.2689 2.28072 36.9245C2.64948 37.5903 3.37675 38 4.145 38H35.6892C36.5342 38 37.323 37.5595 37.7225 36.8323C38.122 36.1101 38.0912 35.2599 37.5995 34.5019Z" fill="#86888C"/>
</svg>
