<svg width="24" height="24" viewBox="0 0 24 24" fill="none" xmlns="http://www.w3.org/2000/svg">
<path fill-rule="evenodd" clip-rule="evenodd" d="M15.7451 20.9546C17.4555 22.3264 19.368 23.0977 21.0414 23.0977C21.1183 23.0977 21.1951 23.0948 21.2691 23.092C21.4313 23.0834 21.585 23.0322 21.7159 22.9468C22.0119 22.7504 22.0859 22.3662 21.881 22.0845C21.7074 21.8426 21.383 21.7572 21.1126 21.8568C19.7579 21.8967 18.0873 21.2165 16.5789 20.0041L16.5106 19.95C15.6625 19.2698 14.9482 18.4673 14.3534 17.5878C14.5725 17.7785 14.7917 17.9464 15.0165 18.0774C15.9158 18.6067 16.8095 18.8771 17.6007 18.8771C18.0446 18.8771 18.4573 18.7917 18.8216 18.6181C19.3708 18.3563 20.0453 17.7785 20.236 16.5149C21.2065 15.6355 21.3118 14.776 21.2179 14.1983C21.0471 13.1339 20.0767 12.1691 18.5569 11.5544C17.6974 11.2043 16.4708 11.1246 15.2698 11.1645C16.2773 10.5355 17.2307 9.79271 17.7145 9.03568C18.5825 7.69523 18.7874 6.37185 18.2808 5.40991C18.0048 4.88625 17.4014 4.24306 16.0724 4.06092C15.1474 3.13313 14.2481 3.03352 13.6419 3.12459C12.5263 3.28681 11.516 4.2146 10.8699 5.6632C10.5028 6.48 10.4203 7.64969 10.4629 8.79662C9.80268 7.83753 9.02288 6.92682 8.22885 6.46577C6.82009 5.64043 5.4341 5.44122 4.42378 5.92503C3.87451 6.18686 3.20001 6.7646 3.00933 8.02821C2.03885 8.90762 1.93355 9.7671 2.02747 10.3448C2.19823 11.4092 3.17155 12.3712 4.68846 12.9859C5.41418 13.2819 6.40743 13.3872 7.42629 13.3872C7.61127 13.3872 7.79342 13.3815 7.97841 13.3758C6.97093 14.0048 6.01468 14.7504 5.53087 15.5074C4.66284 16.8479 4.45793 18.1713 4.96452 19.1332C5.24058 19.6569 5.84677 20.3001 7.17299 20.4794C7.93002 21.2392 8.66998 21.4413 9.24771 21.4413C9.37293 21.4413 9.49531 21.4328 9.60346 21.4157C10.7219 21.2535 11.7322 20.3257 12.3754 18.8771C12.5604 18.4673 12.6714 17.9635 12.734 17.4256C13.4711 18.7433 14.4672 19.9272 15.6796 20.8977" fill="#86888C"/>
</svg>
