<svg width="28" height="28" viewBox="0 0 28 28" fill="none" xmlns="http://www.w3.org/2000/svg">
<path d="M19.9064 25.9005C19.5196 25.9005 19.208 25.589 19.208 25.2021V2.79755C19.208 2.41068 19.5196 2.09912 19.9064 2.09912C20.2933 2.09912 20.6049 2.41068 20.6049 2.79755V25.2021C20.6049 25.589 20.2933 25.9005 19.9064 25.9005Z" fill="#86888C"/>
<path d="M21.8414 11.1342H20.1193C19.7325 11.1342 19.4209 10.8226 19.4209 10.4357C19.4209 10.0489 19.7325 9.7373 20.1193 9.7373H21.8414C22.2283 9.7373 22.5399 10.0489 22.5399 10.4357C22.5399 10.8226 22.2283 11.1342 21.8414 11.1342Z" fill="#86888C"/>
<path d="M19.1946 26H8.56063C6.59544 26 5 24.4011 5 22.4394V5.23538C5 4.37261 5.33552 3.5612 5.94494 2.94836C6.55435 2.33552 7.36576 2 8.23195 2H19.1946C21.0365 2 22.5395 3.49957 22.5395 5.34494V22.6585C22.5395 24.5004 21.0399 26 19.1946 26ZM8.23195 3.39686C7.74237 3.39686 7.28017 3.58859 6.93438 3.93438C6.58859 4.28017 6.39686 4.74237 6.39686 5.23538V22.4394C6.39686 23.6342 7.36919 24.6066 8.56405 24.6066H19.198C20.273 24.6066 21.1461 23.7335 21.1461 22.6585V5.34494C21.1461 4.2699 20.273 3.39686 19.198 3.39686H8.23195Z" fill="#86888C"/>
<path d="M17.0581 2.05469H8.04357C6.39335 2.05469 5.05469 3.39335 5.05127 5.04698V22.655C5.05469 24.4729 6.52688 25.9451 8.34485 25.9486H17.0581C18.7665 25.9451 20.1497 24.562 20.1497 22.857V5.14627C20.1497 3.43785 18.7665 2.05469 17.0581 2.05469ZM12.8573 7.9845C14.7471 7.9845 15.8324 9.06981 15.8324 10.9597C15.8324 12.8496 14.7471 13.9246 12.8573 13.9246C10.9674 13.9246 9.89235 12.8461 9.89235 10.9597C9.89235 9.07323 10.9742 7.9845 12.8573 7.9845ZM17.1848 18.8718C17.1848 19.2416 16.9246 19.5428 16.6062 19.5428H9.1186C8.8002 19.5428 8.54 19.2416 8.54 18.8718V17.7831C8.54 16.8963 8.79335 16.1329 9.26582 15.5748C9.77595 14.9791 10.5189 14.6641 11.4159 14.6641H14.3055C15.2025 14.6641 15.9454 14.9791 16.4555 15.5748C16.9314 16.1294 17.1814 16.8929 17.1814 17.7831L17.1848 18.8718Z" fill="#86888C"/>
<path d="M21.7931 18.266H20.071C19.6841 18.266 19.3726 17.9544 19.3726 17.5676C19.3726 17.1807 19.6841 16.8691 20.071 16.8691H21.7931C22.18 16.8691 22.4915 17.1807 22.4915 17.5676C22.4915 17.9544 22.18 18.266 21.7931 18.266Z" fill="#86888C"/>
</svg>
