<svg width="20" height="20" viewBox="0 0 20 20" fill="none" xmlns="http://www.w3.org/2000/svg">
<path fill-rule="evenodd" clip-rule="evenodd" d="M16.4954 14.2682C17.0535 14.2608 17.3376 13.9504 17.3376 13.3446C17.3376 12.7413 17.0585 12.4334 16.5102 12.4284C16.5003 12.4284 16.4929 12.4235 16.483 12.4235C16.4583 13.0616 16.404 13.6798 16.3027 14.2608C16.3324 14.2633 16.3645 14.2657 16.3842 14.2657L16.4954 14.2682ZM16.0557 9.55076C16.2039 9.40675 16.278 9.19074 16.278 8.91018C16.278 8.62961 16.2039 8.4136 16.0557 8.26711C15.9125 8.12559 15.705 8.05358 15.4432 8.05358C15.3815 8.05358 15.3272 8.05607 15.2728 8.066C15.258 8.06848 15.2531 8.066 15.2457 8.05607C15.2358 8.04614 15.2407 8.04365 15.2432 8.02876C15.2555 7.93937 15.2629 7.84502 15.2629 7.74571C15.2629 7.32858 15.1518 7.00829 14.932 6.7898C14.7196 6.58372 14.4158 6.47696 14.0231 6.47696C13.6329 6.47696 13.3266 6.58372 13.1167 6.79228C13.0056 6.90649 12.9241 7.04802 12.8673 7.21437C12.8623 7.22679 12.8623 7.23672 12.8524 7.24417C12.8376 7.25161 12.8253 7.24665 12.8105 7.24417C12.7314 7.23175 12.6475 7.22679 12.5585 7.22679C12.1683 7.22679 11.8645 7.33355 11.6521 7.54211C11.5855 7.60667 11.5311 7.68364 11.4842 7.76805C11.4842 7.77054 11.4817 7.77302 11.4817 7.7755C11.4768 7.7904 11.4718 7.7904 11.457 7.79288C11.4373 7.79536 11.4348 7.78792 11.42 7.77302C11.2298 7.58432 10.9557 7.48997 10.605 7.48997C10.2518 7.48997 9.97763 7.58432 9.78993 7.77302C9.70349 7.85495 9.64421 7.96172 9.59729 8.07841C9.59729 8.07841 9.57259 8.10076 9.54789 8.09579C9.52319 8.08835 9.51578 8.06352 9.51578 8.06352C9.50096 7.77054 9.4244 7.53218 9.25893 7.37328C9.09098 7.20444 8.844 7.12002 8.53034 7.12002C8.21668 7.12002 7.97217 7.20444 7.80176 7.37328C7.70791 7.46514 7.64369 7.58432 7.59677 7.72336C7.5943 7.72833 7.59183 7.73329 7.58689 7.73578C7.57701 7.74074 7.5696 7.73329 7.56466 7.73329C7.42882 7.62405 7.25841 7.56942 7.03119 7.56942C6.76939 7.56942 6.5644 7.64143 6.42363 7.78047C6.34953 7.85495 6.2952 7.9493 6.26062 8.05607C6.25815 8.06848 6.25568 8.07593 6.2458 8.0809C6.23345 8.08835 6.22357 8.08338 6.20875 8.08338C6.15936 8.07593 6.10749 8.07345 6.05069 8.07345C5.78889 8.07345 5.58637 8.14545 5.44559 8.28449C5.40608 8.32174 5.38138 8.36643 5.35668 8.41609C5.34433 8.43595 5.34186 8.45084 5.31964 8.45829C5.29494 8.46823 5.27271 8.45581 5.24554 8.44836C5.17145 8.42353 5.08748 8.40615 4.99116 8.40615C4.77382 8.40615 4.60587 8.46574 4.48732 8.57996C4.45028 8.61968 4.41817 8.66437 4.391 8.71651C4.37618 8.74134 4.38112 8.76369 4.35395 8.7761C4.32679 8.78852 4.29715 8.78107 4.26751 8.77362C4.20577 8.76121 4.13908 8.75376 4.06252 8.75376C3.84765 8.75376 3.67724 8.81335 3.56116 8.92756C3.44014 9.04674 3.37839 9.2255 3.37839 9.45641V9.76181H8.01416C8.02404 9.75932 8.03639 9.75684 8.04874 9.75684H9.39476C9.40464 9.75932 9.41699 9.75932 9.42687 9.76181H15.4482C15.71 9.75684 15.9125 9.6898 16.0557 9.55076ZM2.96841 14.2682C2.98323 14.2682 3.00546 14.2657 3.02275 14.2633C2.92395 13.7021 2.86962 13.0889 2.84245 12.4309C2.2991 12.4408 2.02249 12.7462 2.02249 13.3446C2.02249 13.9504 2.30651 14.2608 2.86468 14.2682H2.96841ZM16.5176 11.3856C17.3672 11.3931 18.3576 11.912 18.3576 13.3471C18.3576 14.7797 17.3623 15.3036 16.5102 15.316H16.4509C16.3743 15.316 16.1916 15.3135 16.0459 15.2986C15.589 16.694 14.6998 17.7194 12.9661 17.9454C12.9117 17.9677 12.85 17.9801 12.7907 17.9801H12.5981C12.482 17.9876 12.3289 17.9975 12.1659 17.9975C12.0028 17.9975 11.8522 17.9876 11.704 17.9801L7.58936 17.9826C7.47081 17.9901 7.32015 18 7.15715 18C4.93435 18 3.80566 16.9944 3.26478 15.2912C3.07214 15.316 3.02028 15.316 2.91161 15.316H2.84739C1.99532 15.3036 1 14.7797 1 13.3471C1 11.9269 1.97309 11.4055 2.81775 11.3881V10.6556C2.76342 10.6184 2.70908 10.5762 2.66216 10.5265C2.46952 10.3329 2.36085 10.0647 2.36085 9.78663V9.45641C2.36085 8.80341 2.63005 8.3987 2.8548 8.17773C3.04991 7.98158 3.38827 7.75316 3.91186 7.71591C4.13167 7.54211 4.46262 7.37576 4.93682 7.36334C5.11958 7.23175 5.36656 7.11009 5.6901 7.05795L5.71727 7.03312C5.94943 6.80221 6.36682 6.5291 7.03366 6.5291C7.08799 6.5291 7.13986 6.53158 7.1942 6.53406C7.45846 6.30812 7.8882 6.07969 8.53034 6.07969C9.18977 6.07969 9.62198 6.32053 9.88625 6.54896C10.0888 6.48689 10.3283 6.44964 10.6025 6.44964C10.8544 6.44964 11.0767 6.48192 11.2669 6.53654C11.5114 6.38012 11.8374 6.24605 12.2646 6.20384C12.3091 6.1517 12.356 6.09707 12.4054 6.0499C12.6845 5.77182 13.1933 5.44159 14.0207 5.44159C14.848 5.44159 15.3568 5.77182 15.6359 6.04742C15.8582 6.26591 16.1126 6.62096 16.2237 7.16471C16.4608 7.26155 16.6361 7.3981 16.7596 7.51977C17.0066 7.7606 17.2956 8.20007 17.2956 8.91514C17.2956 9.6327 17.0017 10.0697 16.7572 10.313C16.688 10.38 16.5991 10.4496 16.5003 10.5141V11.3931H16.5176V11.3856ZM9.11568 3.10769C8.54516 3.27156 8.33029 3.63406 8.47354 4.18526L8.50071 4.28706L10.2542 3.78055C10.2345 3.7433 10.2123 3.71351 10.1999 3.67378C10.0468 3.13252 9.68126 2.9463 9.11568 3.10769ZM3.29936 6.85435C3.07461 6.85435 2.86962 6.7029 2.80788 6.47447C2.73131 6.19639 2.88938 5.90589 3.16105 5.82892L7.52021 4.5701C7.51033 4.53286 7.49798 4.49065 7.4881 4.44596C7.26829 3.61171 7.49057 2.48697 8.84153 2.09964C10.195 1.70734 10.9483 2.54407 11.1829 3.37832C11.1952 3.42301 11.1928 3.46522 11.1928 3.50743L15.4778 2.27096C15.752 2.19399 16.0335 2.35537 16.1076 2.63097C16.1842 2.90906 16.0286 3.19955 15.7569 3.27652L3.43767 6.83697C3.39074 6.84939 3.34629 6.85435 3.29936 6.85435Z" fill="#86888C"/>
</svg>
