<svg width="20" height="20" viewBox="0 0 20 20" fill="none" xmlns="http://www.w3.org/2000/svg">
<path fill-rule="evenodd" clip-rule="evenodd" d="M10.0948 15.5874L3.91314 12.4166L4.70571 12.0081L9.45024 14.4399C9.65274 14.5421 9.87483 14.5964 10.0969 14.5964C10.3147 14.5964 10.5324 14.5464 10.7327 14.4443L15.5752 12.0037L16.3874 12.4166L10.0948 15.5874ZM10.0948 4.4126L16.3852 7.60944L10.0948 10.778L3.91314 7.60944L10.0948 4.4126ZM3.91314 10.013L4.70571 9.60447L9.45024 12.0385C9.65274 12.1428 9.87483 12.195 10.0969 12.195C10.3147 12.195 10.5324 12.145 10.7327 12.0428L15.5752 9.6023L16.3874 10.0152L10.0969 13.186L3.91314 10.013ZM17.8005 10.0152C17.8005 9.51754 17.5327 9.06551 17.1103 8.81124C17.5305 8.55914 17.8005 8.10928 17.8005 7.61378C17.8027 7.08134 17.5022 6.59236 17.0276 6.35113L10.7371 3.1543C10.5368 3.05216 10.3168 3 10.0969 3C9.87483 3 9.65056 3.05216 9.44589 3.15865L3.26428 6.35548C2.79396 6.59888 2.50001 7.08351 2.50001 7.61378C2.50219 8.10928 2.76783 8.55914 3.18807 8.81124C2.76565 9.06551 2.49784 9.51971 2.50001 10.0152C2.50219 10.5107 2.76783 10.9606 3.18807 11.2148C2.76565 11.4713 2.49784 11.9211 2.50001 12.421C2.50219 12.9491 2.79832 13.4337 3.26863 13.6749L9.45024 16.8435C9.65274 16.9478 9.87483 17 10.0969 17C10.3147 17 10.5324 16.95 10.7327 16.8479L17.0232 13.6771C17.5001 13.4381 17.8005 12.9513 17.8005 12.4188C17.8005 11.919 17.5327 11.4691 17.1103 11.2127C17.5305 10.9606 17.8005 10.5129 17.8005 10.0152Z" fill="#86888C"/>
</svg>
