<svg width="20" height="20" viewBox="0 0 20 20" fill="none" xmlns="http://www.w3.org/2000/svg">
<path fill-rule="evenodd" clip-rule="evenodd" d="M8.37769 4.71866C7.38039 4.43404 6.77473 4.04924 6.61079 3.60524C6.61079 3.59841 6.61079 3.59841 6.60396 3.5893C6.76562 3.1453 7.37128 2.75139 8.36175 2.46677C9.41369 2.16849 10.8026 2 12.2758 2C13.749 2 15.1402 2.16622 16.183 2.46677C17.2258 2.76733 17.8178 3.15896 17.9476 3.62573C17.9476 3.62573 17.9385 3.63256 17.9385 3.63939C17.7632 4.06973 17.1644 4.44087 16.1898 4.71866C15.1379 5.01693 13.7581 5.18543 12.2826 5.18543C10.8072 5.18543 9.42963 5.01693 8.37769 4.71866ZM6.41497 12.2257C6.41497 13.2868 6.95916 13.8036 8.07713 13.8036C9.1951 13.8036 9.74157 13.289 9.74157 12.2257C9.74157 11.1646 9.19738 10.6478 8.07713 10.6478C6.95916 10.6478 6.41497 11.1646 6.41497 12.2257ZM10.7753 12.2257C10.7753 13.8287 9.76661 14.7872 8.07713 14.7872C6.38765 14.7872 5.37897 13.8309 5.37897 12.2257C5.37897 10.6205 6.38765 9.66415 8.07713 9.66415C9.76889 9.66415 10.7753 10.6205 10.7753 12.2257ZM6.13263 15.1971C6.43546 15.3383 6.78839 15.443 7.18002 15.5022C7.43048 15.5409 7.61264 15.7458 7.61264 15.9872V16.9822L8.50292 17.0186C8.52341 17.0186 8.53935 17.0027 8.53935 16.9822V15.9872C8.53935 15.7458 8.72378 15.5409 8.97424 15.5022C9.15184 15.4749 9.31578 15.4362 9.47517 15.3929C9.66643 15.3405 9.84858 15.2768 10.0262 15.1948C10.2243 15.1015 10.4634 15.1402 10.6182 15.2882L11.1851 15.8278L11.3423 15.9758L11.3946 16.0259L12.08 15.4339L11.3058 14.637C11.2512 14.5846 11.2147 14.5208 11.1897 14.4548C11.1442 14.3319 11.1442 14.1952 11.2079 14.0723C11.2648 13.9653 11.3081 13.8469 11.3514 13.7285C11.4265 13.5258 11.4903 13.3118 11.529 13.0795C11.5699 12.8405 11.7863 12.6651 12.0413 12.6651H13.0909L13.1296 11.8227L12.0435 11.7863C11.7885 11.7863 11.5722 11.6109 11.5312 11.3719C11.4675 11.0007 11.3605 10.666 11.2102 10.3768C11.1897 10.3381 11.1783 10.2971 11.1715 10.2562C11.1624 10.2174 11.1624 10.181 11.1624 10.1446C11.1669 10.0216 11.2125 9.90095 11.3081 9.80988L11.6952 9.44329L12.0845 9.07443L11.4629 8.42322L10.6227 9.15867C10.4656 9.30667 10.2288 9.34538 10.0307 9.2543C9.71652 9.10858 9.38864 9.01295 9.0084 8.95375L8.98107 8.94692C8.73061 8.90821 8.54618 8.70329 8.54618 8.46193V7.46464L7.6559 7.43048V7.4487L7.61719 8.46421C7.61719 8.70556 7.43504 8.91049 7.18457 8.9492C6.79294 9.0084 6.44002 9.11086 6.13718 9.2543C5.93909 9.34766 5.69774 9.31123 5.54063 9.16095L4.76419 8.4255L4.07884 9.01523L4.853 9.81215C5.01693 9.96926 5.05337 10.2083 4.93724 10.4019C4.80063 10.6296 4.6845 11.0554 4.62986 11.3764C4.58887 11.6132 4.37256 11.7885 4.11982 11.7885H3.07243L3.03373 12.6333L4.11982 12.6674C4.37256 12.6674 4.59115 12.8427 4.62986 13.0795C4.6845 13.4006 4.80063 13.8241 4.93724 14.0541C5.05109 14.2453 5.01693 14.4867 4.853 14.6415L4.07884 15.377L4.70044 16.0282L5.54063 15.2905C5.63854 15.1971 5.77288 15.147 5.90494 15.147C5.98008 15.147 6.05977 15.1629 6.13263 15.1971ZM12.376 10.1878C13.8924 10.181 15.3246 10.008 16.4153 9.69375C17.0437 9.51843 17.581 9.27024 17.9886 8.97197V12.2075C17.7951 12.549 17.2281 12.9999 16.1921 13.3004C15.1834 13.5896 13.8469 13.7535 12.4261 13.7626C12.3851 13.9038 12.3418 14.0472 12.2872 14.1793L12.6105 14.4844C14.0381 14.4616 15.3793 14.2954 16.4153 13.9994C17.0437 13.8241 17.581 13.5691 17.9886 13.2708V16.1489C17.9886 16.7158 17.383 17.1826 16.1853 17.5264C15.1333 17.827 13.7444 17.9932 12.2781 17.9932C11.1851 17.9932 10.1355 17.8998 9.23154 17.7268C9.04027 17.8953 8.78526 18 8.50519 18H7.65362C7.06162 18 6.58119 17.5423 6.58119 16.9822V16.3857C6.38537 16.3401 6.20094 16.2855 6.02106 16.2194L5.49509 16.7181C5.08752 17.1052 4.37712 17.1074 3.96727 16.7181L3.34567 16.1261C3.14302 15.9325 3.02917 15.673 3.02917 15.3997C3.02917 15.1242 3.14302 14.8669 3.34794 14.6734L3.86936 14.1793C3.79422 13.9972 3.73958 13.8082 3.69859 13.642H3.07243C2.48043 13.642 2 13.1843 2 12.6242V11.8159C2 11.2535 2.48043 10.7981 3.07243 10.7981H3.69859C3.73958 10.6341 3.7965 10.4451 3.86936 10.2607L3.34794 9.76661C3.1453 9.57307 3.03145 9.3135 3.03145 9.04027C3.03145 8.76476 3.1453 8.50747 3.35022 8.31393L3.97182 7.72648C4.38167 7.33941 5.09207 7.33941 5.49964 7.72648L6.02562 8.22513C6.20549 8.16138 6.38992 8.10445 6.58574 8.05664V7.48513L6.5698 7.48285L6.54248 4.73232C6.92956 5.02149 7.46008 5.26512 8.14544 5.44727C9.26797 5.75694 10.7366 5.92088 12.2781 5.90721C13.8218 5.89355 15.2859 5.70457 16.4016 5.37441C17.0687 5.1786 17.5879 4.9418 17.9681 4.64579L18 7.85171C17.811 8.19553 17.2486 8.65319 16.2149 8.96058C15.3519 9.2156 14.2453 9.3727 13.0545 9.42735C12.9999 9.55258 12.9224 9.66643 12.8177 9.76434L12.376 10.1878Z" fill="#86888C"/>
</svg>
