<svg width="20" height="20" viewBox="0 0 20 20" fill="none" xmlns="http://www.w3.org/2000/svg">
<path fill-rule="evenodd" clip-rule="evenodd" d="M16.9572 12.095C17.1917 11.3209 17.3101 10.4374 17.3101 9.43556C17.3101 8.61359 17.235 7.86675 17.0756 7.19278H14.5117C14.637 7.89408 14.7053 8.64091 14.7053 9.4219C14.7053 10.3714 14.6005 11.2685 14.4229 12.0973H16.9572V12.095ZM12.4784 15.9134C14.5573 15.5218 15.9758 14.4721 16.709 12.769H14.2476C13.8605 14.1147 13.2435 15.2121 12.4784 15.9134ZM10.8254 16.0614C11.9798 15.8451 12.968 14.5723 13.5281 12.769H10.8254V16.0614ZM13.6442 6.51881C13.1183 4.49006 12.0686 3.03738 10.8163 2.80741L10.8231 6.51881H13.6442ZM14.0108 9.41962C14.0108 8.63863 13.9357 7.88497 13.7968 7.19051H10.8231V12.095H13.7125C13.9015 11.2708 14.0108 10.3691 14.0108 9.41962ZM16.8729 6.51881C16.1944 4.5652 14.7235 3.3812 12.483 2.95541C13.3255 3.72957 13.9903 4.98188 14.3637 6.51881H16.8729ZM7.11399 6.51881H10.1355L10.1286 2.80741C8.84218 3.0351 7.69461 4.51739 7.11399 6.51881ZM6.38082 6.51881C6.78156 5.00465 7.48057 3.75689 8.36402 2.9759C6.18045 3.41308 4.74826 4.59936 4.07884 6.51881H6.38082ZM6.01423 9.19876C6.02789 8.49746 6.0962 7.82577 6.22143 7.19278H3.8853C3.73275 7.81894 3.65761 8.51796 3.65078 9.28756C4.1221 9.20559 4.64579 9.16005 5.19909 9.16005C5.48143 9.15777 5.75011 9.17143 6.01423 9.19876ZM17.6676 6.76016C17.8816 7.55481 18 8.44282 18 9.43328C18 14.2285 15.402 16.7673 10.4725 16.7673C9.74612 16.7673 9.06304 16.7081 8.43233 16.5988C8.41867 16.592 8.41184 16.5851 8.39818 16.5851V17.0701C8.39818 17.3866 8.05892 17.6485 7.3895 17.8374C6.80205 18.0059 6.02106 18.1016 5.19909 18.1016C4.38395 18.1016 3.60296 18.0059 3.00868 17.8374C2.33926 17.6485 2 17.3866 2 17.0701V15.4672C2.22769 15.622 2.5328 15.7632 2.89939 15.8656C3.52099 16.0478 4.34296 16.1411 5.2082 16.1411C6.07798 16.1411 6.8954 16.0455 7.52384 15.8656C7.87676 15.77 8.17276 15.6288 8.40045 15.4626V15.9476C8.44827 15.9339 8.50519 15.9271 8.55984 15.9339C9.04255 16.0227 9.57535 16.0637 10.1355 16.0819V12.769H8.40729C8.32532 12.769 8.2479 12.7348 8.19325 12.6893C8.02021 12.8305 7.76519 12.9716 7.3986 13.0787C6.81116 13.2403 6.03017 13.3359 5.2082 13.3359C4.38622 13.3359 3.61207 13.2403 3.02462 13.0787C2.49865 12.9238 2.1184 12.6961 2.00228 12.4662V10.6605C2.21631 10.829 2.51459 10.9634 2.90167 11.0704C3.52327 11.2526 4.34524 11.3482 5.21047 11.3482C6.07343 11.3482 6.89768 11.2548 7.52611 11.0704C7.89953 10.9634 8.1887 10.8359 8.40273 10.6742V12.095H10.1378V7.19278H6.94322C6.79749 7.85309 6.71553 8.55211 6.70869 9.28073C6.95233 9.32171 7.18457 9.36042 7.39405 9.4219C7.97467 9.59039 8.3071 9.8067 8.38224 10.0685L8.37541 10.0754C8.2775 10.3167 7.94735 10.5262 7.40088 10.681C6.8066 10.8495 6.03245 10.9429 5.21047 10.9429C4.3885 10.9429 3.61434 10.8495 3.0269 10.681C2.46677 10.5194 2.12751 10.3053 2.03871 10.0549L2.03188 10.0481C2.12068 9.81125 2.43945 9.59722 2.95859 9.44239V9.43556C2.95859 8.44509 3.07699 7.55709 3.29785 6.76244C3.30468 6.74878 3.30468 6.72829 3.31151 6.71463C4.16764 3.69086 6.60168 2.10156 10.4793 2.10156C14.3706 2.10156 16.8046 3.69086 17.6607 6.71463C17.663 6.72601 17.663 6.7465 17.6676 6.76016ZM3.01779 15.4763C2.49409 15.3237 2.11612 15.1006 2 14.8683V13.0604C2.22769 13.2198 2.52825 13.3564 2.89483 13.4589C3.52327 13.6365 4.34296 13.7367 5.2082 13.7367C6.07571 13.7367 6.89768 13.6388 7.52156 13.4589C7.87448 13.361 8.17504 13.2221 8.40273 13.0559V14.8638C8.29572 15.055 7.97695 15.3078 7.3986 15.4763C6.81343 15.6425 6.03472 15.7358 5.21047 15.7358C4.37939 15.7381 3.60751 15.6448 3.01779 15.4763Z" fill="#86888C"/>
</svg>
