<svg width="20" height="20" viewBox="0 0 20 20" fill="none" xmlns="http://www.w3.org/2000/svg">
<path d="M7.8787 8.65883L10.1237 8.66543C10.1787 8.66543 10.2227 8.71164 10.2249 8.76446L10.2315 9.22879C10.2315 9.2838 10.2689 9.30141 10.3129 9.2684L11.6291 8.28912C11.6731 8.25611 11.6731 8.2033 11.6291 8.17029L10.3217 7.19101C10.2777 7.158 10.2425 7.17561 10.2447 7.23062L10.2513 7.73016C10.2513 7.78518 10.2073 7.82919 10.1545 7.82919L7.89851 7.83139C7.81487 7.81819 7.75105 7.89081 7.75325 7.95903L7.75105 8.51139C7.74004 8.60381 7.80827 8.66543 7.8787 8.65883ZM11.5939 12.017L9.34893 12.0236C9.2939 12.0236 9.24988 12.0698 9.24768 12.1226L9.24108 12.5869C9.24108 12.642 9.20366 12.6596 9.15965 12.6266L7.84349 11.6473C7.79947 11.6143 7.79947 11.5614 7.84349 11.5284L9.15084 10.5492C9.19486 10.5162 9.23008 10.5338 9.22788 10.5888L9.22127 11.0883C9.22127 11.1433 9.26529 11.1873 9.31811 11.1873L11.5741 11.1895C11.6577 11.1763 11.7215 11.249 11.7193 11.3172L11.7215 11.8695C11.7325 11.9598 11.6621 12.0214 11.5939 12.017Z" fill="#86888C"/>
<path d="M7.31306 7.79618C7.31086 7.69275 7.35268 7.58932 7.42751 7.5123C7.51335 7.42428 7.63 7.38247 7.74885 7.39347L8.82731 7.39127C8.84932 7.33845 8.86252 7.27904 8.86252 7.21742V5.63077C8.86252 4.53486 8.25946 3.92969 7.1612 3.92969H3.70132C2.58765 3.92969 2 4.51725 2 5.63077V12.0808C2 12.6464 2.14306 13.0623 2.43579 13.3528C2.72631 13.641 3.14009 13.7797 3.70132 13.7797H7.1612C7.82148 13.7797 8.27927 13.586 8.56539 13.1899C8.64903 13.0733 8.66664 12.928 8.62702 12.8004L7.36148 11.8585C7.27565 11.7947 7.22723 11.7001 7.22723 11.5989C7.22723 11.4976 7.27565 11.403 7.36148 11.3392L8.29468 10.6394L8.29688 10.5602C8.32329 10.569 8.3519 10.5734 8.37831 10.5756L8.85372 10.2191C8.85812 10.1927 8.86252 10.1663 8.86252 10.1376V9.09455L7.71803 9.09015C7.60138 9.09675 7.48694 9.04834 7.4077 8.95811C7.33507 8.87669 7.29986 8.76666 7.30866 8.65663L7.31306 7.79618ZM5.74159 12.4153C5.67556 12.4835 5.57652 12.5165 5.45547 12.5165C5.33442 12.5165 5.23538 12.4835 5.16935 12.4153C5.10772 12.3515 5.07251 12.259 5.07251 12.1314C5.07251 11.8673 5.22437 11.7463 5.45547 11.7463C5.68877 11.7463 5.83843 11.8695 5.83843 12.1314C5.83843 12.259 5.80542 12.3515 5.74159 12.4153ZM17.0038 6.50882C16.7133 6.22054 16.2995 6.0797 15.7382 6.0797H12.2784C11.5785 6.0797 11.0855 6.30856 10.8148 6.76189C10.7773 6.82571 10.7575 6.89613 10.7531 6.96435L12.1111 7.98104C12.1969 8.04485 12.2454 8.13948 12.2454 8.24071C12.2454 8.34194 12.1969 8.43656 12.1111 8.50038L11.1185 9.23979V9.24419C11.1163 9.24419 11.1141 9.24419 11.1119 9.24199L10.5793 9.63811C10.5793 9.64911 10.5771 9.66011 10.5771 9.67112V10.745L11.7215 10.7472C11.8426 10.7362 11.9592 10.778 12.0429 10.8661C12.1177 10.9431 12.1595 11.0465 12.1573 11.1499L12.1595 12.0126C12.1683 12.1226 12.1331 12.2326 12.0605 12.3141C11.9812 12.4021 11.8668 12.4527 11.7502 12.4461L10.5749 12.4505V14.2286C10.5749 15.3245 11.1779 15.9297 12.2762 15.9297H15.736C16.8497 15.9297 17.4374 15.3421 17.4374 14.2286V7.78078C17.4396 7.21522 17.2965 6.7993 17.0038 6.50882ZM14.2944 14.5521C14.2284 14.6203 14.1294 14.6533 14.0083 14.6533C13.8873 14.6533 13.7882 14.6203 13.7222 14.5521C13.6606 14.4883 13.6253 14.3959 13.6253 14.2682C13.6253 14.0041 13.7772 13.8831 14.0083 13.8831C14.2416 13.8831 14.3913 14.0063 14.3913 14.2682C14.3913 14.3959 14.3583 14.4905 14.2944 14.5521Z" fill="#86888C"/>
</svg>
