<svg width="28" height="28" viewBox="0 0 28 28" fill="none" xmlns="http://www.w3.org/2000/svg">
<path fill-rule="evenodd" clip-rule="evenodd" d="M11.5665 6.07798C10.0706 5.65106 9.16209 5.07386 8.91618 4.40786C8.91618 4.39761 8.91618 4.39761 8.90593 4.38395C9.14843 3.71795 10.0569 3.12708 11.5426 2.70016C13.1205 2.25274 15.2039 2 17.4137 2C19.6235 2 21.7103 2.24932 23.2745 2.70016C24.8388 3.15099 25.7268 3.73844 25.9214 4.43859C25.9214 4.43859 25.9078 4.44884 25.9078 4.45909C25.6448 5.1046 24.7465 5.66131 23.2848 6.07798C21.7068 6.5254 19.6371 6.77814 17.4239 6.77814C15.2108 6.77814 13.1444 6.5254 11.5665 6.07798ZM8.62246 17.3386C8.62246 18.9301 9.43874 19.7054 11.1157 19.7054C12.7927 19.7054 13.6124 18.9335 13.6124 17.3386C13.6124 15.747 12.7961 14.9717 11.1157 14.9717C9.43874 14.9717 8.62246 15.747 8.62246 17.3386ZM15.1629 17.3386C15.1629 19.743 13.6499 21.1809 11.1157 21.1809C8.58147 21.1809 7.06845 19.7464 7.06845 17.3386C7.06845 14.9307 8.58147 13.4962 11.1157 13.4962C13.6533 13.4962 15.1629 14.9307 15.1629 17.3386ZM8.19895 21.7956C8.65319 22.0074 9.18258 22.1645 9.77003 22.2533C10.1457 22.3114 10.419 22.6188 10.419 22.9808V24.4733L11.7544 24.528C11.7851 24.528 11.809 24.5041 11.809 24.4733V22.9808C11.809 22.6188 12.0857 22.3114 12.4614 22.2533C12.7278 22.2123 12.9737 22.1543 13.2128 22.0894C13.4996 22.0108 13.7729 21.9152 14.0393 21.7922C14.3364 21.6522 14.695 21.7103 14.9273 21.9323L15.7777 22.7417L16.0134 22.9637L16.0919 23.0388L17.12 22.1508L15.9587 20.9555C15.8768 20.8769 15.8221 20.7813 15.7845 20.6822C15.7162 20.4978 15.7162 20.2929 15.8119 20.1084C15.8973 19.9479 15.9621 19.7703 16.027 19.5927C16.1397 19.2887 16.2354 18.9677 16.2934 18.6193C16.3549 18.2607 16.6794 17.9977 17.0619 17.9977H18.6364L18.6945 16.734L17.0653 16.6794C16.6828 16.6794 16.3583 16.4164 16.2969 16.0578C16.2012 15.5011 16.0407 14.999 15.8153 14.5652C15.7845 14.5072 15.7675 14.4457 15.7572 14.3842C15.7436 14.3262 15.7436 14.2715 15.7436 14.2169C15.7504 14.0324 15.8187 13.8514 15.9621 13.7148L16.5428 13.1649L17.1268 12.6116L16.1944 11.6348L14.9341 12.738C14.6984 12.96 14.3432 13.0181 14.0461 12.8815C13.5748 12.6629 13.083 12.5194 12.5126 12.4306L12.4716 12.4204C12.0959 12.3623 11.8193 12.0549 11.8193 11.6929V10.197L10.4838 10.1457V10.173L10.4258 11.6963C10.4258 12.0583 10.1526 12.3657 9.77686 12.4238C9.18941 12.5126 8.66003 12.6663 8.20578 12.8815C7.90864 13.0215 7.54661 12.9668 7.31094 12.7414L6.14629 11.6383L5.11826 12.5228L6.27949 13.7182C6.5254 13.9539 6.58005 14.3125 6.40586 14.6028C6.20094 14.9444 6.02675 15.583 5.94478 16.0646C5.88331 16.4198 5.55884 16.6828 5.17974 16.6828H3.60865L3.55059 17.9499L5.17974 18.0011C5.55884 18.0011 5.88672 18.2641 5.94478 18.6193C6.02675 19.1009 6.20094 19.7362 6.40586 20.0811C6.57663 20.368 6.5254 20.73 6.27949 20.9623L5.11826 22.0655L6.05066 23.0423L7.31094 21.9357C7.45781 21.7956 7.65931 21.7205 7.85741 21.7205C7.97011 21.7205 8.08965 21.7444 8.19895 21.7956ZM17.564 14.2818C19.8386 14.2715 21.9869 14.012 23.6229 13.5406C24.5655 13.2776 25.3716 12.9054 25.9829 12.4579V17.3112C25.6926 17.8235 24.8422 18.4998 23.2882 18.9506C21.7752 19.3844 19.7703 19.6303 17.6391 19.6439C17.5776 19.8557 17.5127 20.0709 17.4308 20.269L17.9158 20.7266C20.0572 20.6925 22.0689 20.4431 23.6229 19.9991C24.5655 19.7362 25.3716 19.3536 25.9829 18.9062V23.2233C25.9829 24.0737 25.0744 24.7739 23.2779 25.2896C21.7 25.7404 19.6166 25.9898 17.4171 25.9898C15.7777 25.9898 14.2032 25.8497 12.8473 25.5902C12.5604 25.8429 12.1779 26 11.7578 26H10.4804C9.59243 26 8.87178 25.3135 8.87178 24.4733V23.5785C8.57806 23.5102 8.30141 23.4282 8.03159 23.3292L7.24264 24.0771C6.63128 24.6577 5.56567 24.6612 4.9509 24.0771L4.0185 23.1891C3.71453 22.8988 3.54376 22.5095 3.54376 22.0996C3.54376 21.6864 3.71453 21.3004 4.02192 21.0101L4.80404 20.269C4.69133 19.9957 4.60936 19.7123 4.54789 19.4629H3.60865C2.72065 19.4629 2 18.7764 2 17.9362V16.7238C2 15.8802 2.72065 15.1971 3.60865 15.1971H4.54789C4.60936 14.9512 4.69475 14.6677 4.80404 14.3911L4.02192 13.6499C3.71794 13.3596 3.54718 12.9703 3.54718 12.5604C3.54718 12.1471 3.71794 11.7612 4.02533 11.4709L4.95773 10.5897C5.57251 10.0091 6.63811 10.0091 7.24947 10.5897L8.03842 11.3377C8.30824 11.2421 8.58489 11.1567 8.87861 11.085V10.2277L8.8547 10.2243L8.81372 6.09848C9.39434 6.53223 10.1901 6.89768 11.2182 7.17091C12.9019 7.63541 15.1049 7.88131 17.4171 7.86082C19.7327 7.84033 21.9288 7.55685 23.6024 7.06162C24.6031 6.76789 25.3818 6.41269 25.9522 5.96869L26 10.7776C25.7165 11.2933 24.8729 11.9798 23.3223 12.4409C22.0279 12.8234 20.368 13.0591 18.5818 13.141C18.4998 13.3289 18.3837 13.4996 18.2266 13.6465L17.564 14.2818Z" fill="#86888C"/>
</svg>
