<svg width="20" height="20" viewBox="0 0 20 20" fill="none" xmlns="http://www.w3.org/2000/svg">
<path fill-rule="evenodd" clip-rule="evenodd" d="M7.1976 14.105C8.21069 14.105 8.48844 13.7339 8.48844 12.3748C8.48844 11.5233 8.3655 11.068 8.07865 10.8517C7.89197 10.7128 7.60284 10.6445 7.1976 10.6445C6.79009 10.6445 6.49868 10.7151 6.312 10.8563C6.02742 11.0748 5.90676 11.5279 5.90676 12.3748C5.90904 13.7339 6.18451 14.105 7.1976 14.105ZM7.19988 9.61552C6.33249 9.61552 6.33249 9.79082 6.33249 10.0344C6.33249 10.039 6.33477 10.0435 6.33477 10.0481C6.57836 9.96612 6.86066 9.92059 7.1976 9.92059C7.53454 9.92059 7.81911 9.96612 8.06499 10.0481L8.06727 10.0321C8.06499 9.79082 8.06499 9.61552 7.19988 9.61552ZM9.05759 9.62008C9.04621 9.41973 9.19874 9.24899 9.39908 9.23988H9.40136C9.6017 9.21256 9.77244 9.38331 9.78383 9.58365L9.82481 10.3668C9.83391 10.533 9.72691 10.6833 9.56755 10.7311L8.98929 10.9064C9.10085 11.1682 9.16004 11.4641 9.18963 11.7646H9.6313C9.83164 11.7646 9.99328 11.9263 9.99328 12.1266V12.6457C9.99328 12.846 9.83164 13.0077 9.6313 13.0077C9.43095 13.0077 9.26931 12.846 9.26931 12.6457V12.4886H9.2124C9.20785 12.862 9.1737 13.2217 9.08719 13.5449L9.56983 13.6907C9.72919 13.7385 9.83619 13.891 9.82708 14.0572L9.7861 14.8381C9.77472 15.0316 9.61536 15.1818 9.42412 15.1818H9.40591C9.20557 15.1727 9.05304 15.002 9.06214 14.8016L9.08946 14.3031L8.77301 14.2074C8.47705 14.5854 7.99897 14.8312 7.20215 14.8312C6.40306 14.8312 5.92498 14.5831 5.62902 14.2029L5.30119 14.3031L5.32851 14.8016C5.33989 15.002 5.18508 15.1704 4.98701 15.1818H4.96425C4.77074 15.1818 4.61365 15.0316 4.60227 14.8381L4.56129 14.0572C4.55218 13.891 4.65691 13.7385 4.81855 13.6907L5.31485 13.5427C5.23061 13.2194 5.19646 12.8597 5.19191 12.4886H5.13499V12.6457C5.13499 12.846 4.97335 13.0077 4.77301 13.0077C4.57267 13.0077 4.41103 12.846 4.41103 12.6457V12.1266C4.41103 11.9263 4.57267 11.7646 4.77301 11.7646H5.21695C5.24427 11.4641 5.30346 11.1704 5.41502 10.9109L4.8231 10.7311C4.66374 10.6833 4.55674 10.533 4.56584 10.3668L4.60682 9.58365C4.6182 9.38331 4.7844 9.21484 4.98929 9.23988C5.18963 9.25127 5.34444 9.42201 5.33306 9.62235L5.30574 10.1209L5.63129 10.2211C5.62446 10.1619 5.61763 10.1027 5.61763 10.039C5.61763 8.89384 6.73317 8.89384 7.20898 8.89384C7.68479 8.89384 8.80033 8.89384 8.80033 10.039C8.80033 10.1004 8.79123 10.1574 8.78667 10.2165L9.09402 10.1232L9.05759 9.62008ZM7.17711 11.1841C7.37745 11.1841 7.53909 11.3457 7.53909 11.5461V13.488C7.53909 13.6884 7.37745 13.85 7.17483 13.85C6.97449 13.85 6.81285 13.6884 6.81058 13.4903V11.5461C6.81285 11.3457 6.97677 11.1841 7.17711 11.1841ZM9.23972 4.90067C8.33135 4.62975 7.77586 4.25866 7.63016 3.83294C7.63016 3.82611 7.63016 3.82611 7.62333 3.81928C7.76903 3.39355 8.32225 3.01791 9.22606 2.747C10.1868 2.46014 11.4526 2.30078 12.7958 2.30078C14.139 2.30078 15.407 2.46014 16.3587 2.747C17.3103 3.03157 17.8498 3.40949 17.9682 3.8557C17.9682 3.8557 17.9614 3.86253 17.9614 3.86936C17.7998 4.28143 17.2557 4.63658 16.3655 4.90067C15.407 5.18752 14.1458 5.34688 12.8026 5.34688C11.4594 5.34916 10.2004 5.18752 9.23972 4.90067ZM11.4025 9.37193V9.12833C10.4304 9.12833 9.81798 8.71854 9.26931 8.35884C9.15776 8.28598 9.04621 8.21313 8.93238 8.14256C8.91872 8.13573 8.90506 8.12662 8.89367 8.11524C8.77529 8.04694 8.65235 7.98319 8.52942 7.924C8.52031 7.9149 8.50893 7.90807 8.49527 7.90351C8.36322 7.84432 8.23118 7.78513 8.08092 7.74643C7.91929 7.69862 7.75309 7.66675 7.58462 7.64853H7.57779C7.45258 7.63487 7.3342 7.62121 7.19532 7.62121C6.23687 7.62121 5.69504 7.97637 5.12133 8.35884C4.56584 8.72765 3.9466 9.13516 3.00181 9.13516H2.98815C2.99498 10.2211 3.04051 12.6958 3.24541 13.8591C3.47079 15.15 5.99783 16.6616 7.19532 17.2535C7.47307 17.1169 7.81001 16.9303 8.18565 16.714H8.19248C8.4634 16.5501 8.7548 16.3725 9.0371 16.1744C9.04393 16.1676 9.05759 16.1608 9.07125 16.1494C9.49242 15.8694 9.89083 15.5552 10.2596 15.2091L10.2801 15.1887C10.5123 14.9724 10.7104 14.7424 10.8607 14.5102C10.8675 14.5102 10.8675 14.5034 10.8743 14.4966C10.9472 14.385 11.0064 14.2735 11.0587 14.1596C11.0997 14.0617 11.1384 13.957 11.1521 13.8568C11.1726 13.7453 11.1908 13.6132 11.2044 13.4744V13.4675C11.2181 13.3628 11.2318 13.2513 11.2454 13.1329C11.2454 13.1056 11.2522 13.0737 11.2522 13.0395C11.2841 12.6844 11.3092 12.2905 11.3319 11.8807C11.3388 11.8216 11.3388 11.7624 11.3388 11.7032C11.3524 11.5461 11.3592 11.3867 11.3592 11.2274C11.3638 11.109 11.3729 10.9974 11.3729 10.8859C11.3797 10.7925 11.3797 10.7015 11.3797 10.6104C11.3866 10.5102 11.3866 10.4123 11.3866 10.3144C11.3911 10.2348 11.3911 10.1505 11.3911 10.0708V10.0663C11.3979 9.80676 11.3979 9.58137 11.4025 9.37193ZM12.8026 9.43795C12.6637 9.43795 12.5249 9.43112 12.3928 9.43112C12.386 9.63374 12.386 9.8705 12.3792 10.1278C12.518 10.1278 12.6569 10.1346 12.8026 10.1346C14.2164 10.1346 15.5505 9.97067 16.5658 9.66105C17.1395 9.49714 17.629 9.26037 17.9978 8.97124V12.0697C17.8248 12.3975 17.3103 12.8255 16.3609 13.1147C15.4093 13.397 14.1413 13.5632 12.8003 13.5632C12.5954 13.5632 12.3974 13.5495 12.1948 13.5427C12.1743 13.7134 12.1538 13.8842 12.1287 14.023V14.0299C12.1151 14.0959 12.09 14.1687 12.0695 14.2348C12.3131 14.2484 12.5522 14.2621 12.8026 14.2621C14.2164 14.2621 15.5505 14.0891 16.5658 13.7885C17.1395 13.6155 17.629 13.3742 17.9978 13.0896V15.8398C17.9978 16.3862 17.4492 16.8324 16.3541 17.1625C15.3957 17.4448 14.1276 17.6019 12.7935 17.6019C11.4936 17.6019 10.271 17.4516 9.31257 17.183C8.69789 17.5791 8.06044 17.9365 7.40477 18.2552C7.33875 18.2848 7.2659 18.2985 7.19305 18.3008C7.1202 18.2985 7.04962 18.2826 6.98132 18.2552C6.54421 18.0458 2.63983 16.1517 2.27102 14.0253C1.98645 12.4317 2.0001 8.75496 2.0001 8.5956C2.00238 8.32241 2.22549 8.10158 2.49868 8.10385C2.53511 8.10385 2.57153 8.10841 2.60568 8.11751C3.49128 8.25639 3.96482 7.93994 4.57267 7.53926C5.2124 7.11808 5.93864 6.63772 7.19305 6.63772H7.19988C7.33192 6.63772 7.45713 6.64455 7.57552 6.65821V4.87562C7.92612 5.15792 8.40648 5.39469 9.03482 5.57454C10.0593 5.88416 11.3934 6.04808 12.7981 6.04808C14.2027 6.04808 15.5391 5.88416 16.5613 5.57454C17.1669 5.39697 17.645 5.17158 17.9933 4.89156V7.96271C17.8203 8.28371 17.3057 8.71854 16.3564 9.00767C15.4116 9.28769 14.1435 9.43795 12.8026 9.43795Z" fill="#86888C"/>
</svg>
