<svg width="25" height="24" viewBox="0 0 25 24" fill="none" xmlns="http://www.w3.org/2000/svg">
<path d="M5.84068 17.1878C5.76625 17.1169 5.68826 17.046 5.61383 16.9751C5.45432 16.8156 5.30545 16.649 5.15658 16.4824C5.7946 16.1279 6.54251 15.8231 7.36486 15.5785C7.4393 15.8231 7.52082 16.0641 7.60235 16.2981L8.6161 15.7876C8.55939 15.6281 8.50976 15.4686 8.46014 15.302C8.49913 15.2949 8.53458 15.2879 8.57357 15.2808L6.91824 13.6077C6.96786 13.9055 7.02458 14.1961 7.08484 14.4832C6.11007 14.7668 5.22392 15.1354 4.46183 15.575C3.55087 14.2209 3.01918 12.6507 2.91639 11.0024H5.68118C5.74143 10.889 5.81587 10.7827 5.90449 10.687C6.09235 10.492 6.32629 10.3538 6.58859 10.2935L8.39634 9.87171H7.79376C7.82211 8.8225 7.93554 7.8052 8.13049 6.85525C9.25767 7.10337 10.477 7.24516 11.7389 7.26997V9.85398L13.6742 10.9989H16.8715C16.8644 11.2754 16.8467 11.5448 16.8254 11.8177L17.9916 11.2399C17.9951 11.1584 17.9987 11.0804 18.0022 10.9989H18.4772L20.6287 9.93196C20.6784 9.9107 20.7244 9.88943 20.7741 9.86816H18.0057C17.9738 8.72326 17.8498 7.6138 17.6336 6.57168C18.6367 6.27394 19.5441 5.89112 20.3168 5.42678C21.1392 6.70992 21.6283 8.17384 21.7417 9.7122C22.0856 9.72992 22.4259 9.82208 22.7271 9.98513L22.8937 10.0737C22.8548 8.78706 22.5818 7.53936 22.0856 6.36255C21.561 5.12549 20.8131 4.01249 19.856 3.05544C18.9025 2.10195 17.7895 1.35049 16.5489 0.825891C15.2658 0.283568 13.9046 0.00708919 12.501 0.00708919C12.4939 0.00708919 12.4868 0.0106338 12.4797 0.0106338C12.4443 0.0035446 12.4088 0 12.3698 0C12.3592 0 12.3486 0.00354461 12.3379 0.00354461C12.3273 0.00354461 12.3167 0 12.306 0C12.267 0 12.2316 0.0035446 12.1961 0.0106338C12.1891 0.0106338 12.182 0.00708919 12.1749 0.00708919C10.7712 0.00708919 9.41009 0.283568 8.12695 0.825891C6.88988 1.35049 5.77688 2.0984 4.81984 3.05544C3.86634 4.00894 3.11489 5.12194 2.59029 6.36255C2.04796 7.64924 1.77148 9.01391 1.77148 10.4176C1.77148 11.8212 2.04796 13.1824 2.59029 14.4655C2.97665 15.38 3.48707 16.2272 4.11446 16.9893L5.33381 17.443L5.84068 17.1878ZM19.0549 3.86007C19.2641 4.0692 19.4626 4.28896 19.6504 4.51582C18.9982 4.89155 18.222 5.21765 17.3642 5.4764C17.1338 4.6576 16.8467 3.89197 16.4993 3.20786C16.1945 2.60173 15.8542 2.08068 15.4926 1.6376C16.8218 2.08777 18.0376 2.83922 19.0549 3.86007ZM12.9334 1.19453C13.3162 1.2796 13.6955 1.4781 14.0606 1.78648C14.5923 2.2331 15.0744 2.88176 15.4926 3.71828C15.801 4.33504 16.0633 5.0227 16.2724 5.76352C15.2161 5.99392 14.0925 6.12152 12.9299 6.14633V1.19453H12.9334ZM12.9334 7.27352C14.1918 7.24516 15.4111 7.10337 16.5418 6.8588C16.7332 7.80875 16.8467 8.82605 16.8786 9.87525H12.9334V7.27352ZM10.6117 1.78293C10.9803 1.47455 11.3561 1.27606 11.7389 1.19098V6.14279C10.5763 6.11798 9.45617 5.99037 8.39634 5.75997C8.60547 5.01915 8.86777 4.3315 9.17615 3.71474C9.59796 2.87821 10.08 2.22955 10.6117 1.78293ZM5.61737 3.86007C6.63822 2.83922 7.85401 2.09131 9.17969 1.6376C8.8146 2.07713 8.47786 2.60173 8.17303 3.20786C7.8292 3.89197 7.53854 4.6576 7.30815 5.4764C6.45035 5.21765 5.67054 4.89155 5.02188 4.51582C5.2062 4.28896 5.4047 4.0692 5.61737 3.86007ZM4.3555 5.43032C5.12822 5.89467 6.03918 6.27748 7.03876 6.57523C6.82608 7.61734 6.69848 8.7268 6.66657 9.87171H2.91639C3.00855 8.27664 3.50479 6.756 4.3555 5.43032Z" fill="#86888C"/>
<path d="M17.6511 17.4109L23.964 14.1924C24.4319 13.9585 24.7226 13.4941 24.7332 12.9731C24.7438 12.4556 24.4674 11.9806 24.0101 11.7325L22.2839 10.7896C21.9011 10.5805 21.4155 10.5663 21.022 10.7541L15.8221 13.3311L10.8207 10.3713C10.7781 10.3465 10.7285 10.3252 10.6718 10.3146C10.6115 10.304 10.5513 10.304 10.4946 10.3146L10.4697 10.3182L6.79045 11.176C6.70538 11.1972 6.62386 11.2433 6.56005 11.3106C6.50688 11.3674 6.46789 11.4312 6.45017 11.5021C6.40409 11.6651 6.44663 11.8388 6.56714 11.9593L10.4556 15.8832L5.38679 18.4388L0.626397 16.663C0.445622 16.5956 0.24358 16.6488 0.119519 16.7871C-0.00808621 16.9288 -0.036443 17.138 0.0486274 17.3081L2.80987 22.8341C2.88785 22.9936 3.04736 23.0929 3.22813 23.0929H5.99292C6.0709 23.0929 6.15242 23.0716 6.21977 23.0326L12.1251 19.7574L11.8557 23.497C11.845 23.6636 11.923 23.8231 12.0613 23.9188C12.1995 24.0109 12.3803 24.0216 12.5292 23.9471L16.212 22.1039C16.329 22.0437 16.4176 21.9374 16.453 21.8097L17.6511 17.4109Z" fill="#86888C"/>
<path d="M16.212 22.1074L12.5292 23.9506C12.3803 24.025 12.1995 24.0144 12.0613 23.9222C11.923 23.83 11.845 23.667 11.8557 23.5004L12.1251 19.7608L6.21977 23.0361C6.14888 23.075 6.0709 23.0963 5.99292 23.0963H3.22813C3.0509 23.0963 2.8914 22.9971 2.80987 22.8376L0.0486274 17.308C-0.036443 17.1378 -0.00808621 16.9287 0.119519 16.7869C0.24358 16.6487 0.445622 16.5955 0.626397 16.6629L5.38679 18.4387L10.4556 15.8831L6.57423 11.9627C6.45726 11.8422 6.41118 11.6685 6.45726 11.5055C6.47853 11.4346 6.51397 11.3708 6.56714 11.3141C6.63095 11.2467 6.70893 11.2006 6.79754 11.1794L10.4768 10.3216L10.5016 10.318C10.5584 10.3074 10.6186 10.3074 10.6789 10.318C10.732 10.3287 10.7817 10.3464 10.8278 10.3747L15.8292 13.3345L21.0291 10.7576C21.4226 10.5697 21.9117 10.5839 22.291 10.793L24.0172 11.7359C24.4709 11.984 24.7474 12.459 24.7403 12.9765C24.7297 13.494 24.4355 13.9619 23.9711 14.1958L17.6511 17.4108L16.453 21.8132C16.4176 21.9408 16.329 22.0471 16.212 22.1074Z" fill="#86888C"/>
</svg>
