<svg width="20" height="20" viewBox="0 0 20 20" fill="none" xmlns="http://www.w3.org/2000/svg">
<path fill-rule="evenodd" clip-rule="evenodd" d="M17.4968 9.56762H15.4908C15.4498 9.56762 15.418 9.58128 15.3838 9.58811C15.2745 8.22651 14.8487 7.24515 14.2704 6.54158C14.2909 6.52792 14.3045 6.52109 14.3182 6.50743L15.7595 5.07296C15.9553 4.88397 15.9621 4.57203 15.7732 4.37622L15.7595 4.36256C15.5682 4.16446 15.254 4.15991 15.0559 4.35117L15.0445 4.36256L13.6032 5.79702C13.5896 5.81068 13.5828 5.83118 13.5691 5.84939C12.4853 5.00465 11.192 4.79745 10.5043 4.74963V2.60476C10.5021 2.32698 10.2766 2.10384 9.99886 2.10156C9.72108 2.10156 9.49566 2.3247 9.49338 2.60249V4.74508C8.79436 4.78606 7.51928 4.9796 6.44912 5.81068C6.43546 5.79702 6.42863 5.77198 6.40814 5.75831L5.00783 4.36256C4.81656 4.16446 4.50007 4.15991 4.30425 4.35117L4.29287 4.36256C4.09933 4.56065 4.09933 4.87714 4.29287 5.07296L5.69318 6.46644C5.71368 6.4801 5.73417 6.48693 5.75466 6.50743C5.18998 7.21327 4.77103 8.20602 4.67767 9.58584C4.64352 9.57901 4.61847 9.56762 4.58432 9.56762H2.50548C2.22769 9.56762 2.00228 9.79304 2 10.0708C2 10.3441 2.22997 10.5717 2.50548 10.5717H4.58659C4.61392 10.5717 4.63896 10.5581 4.66629 10.5581C4.72776 11.947 5.09207 12.9648 5.6226 13.7048C5.60894 13.7185 5.58844 13.723 5.57023 13.7435L4.1813 15.1256C3.98548 15.3146 3.97865 15.6288 4.16992 15.8246C4.17447 15.8292 4.17675 15.8337 4.1813 15.836C4.27693 15.9362 4.40444 15.9817 4.53878 15.9817C4.63213 15.9817 4.72776 15.9499 4.80746 15.8952C4.88487 15.8724 4.95318 15.8315 5.0101 15.7745L6.28291 14.5131C6.29657 14.4926 6.3034 14.4721 6.32389 14.4539C7.40771 15.3852 8.75566 15.6083 9.49566 15.6539V17.5984C9.49566 17.8807 9.7188 18.1016 10.0011 18.1016C10.2789 18.1016 10.5043 17.8784 10.5066 17.5984V15.6675C10.5066 15.6607 10.4998 15.6607 10.4998 15.6539C11.2125 15.6129 12.6151 15.3988 13.7399 14.4471C13.7535 14.4676 13.7604 14.4949 13.7808 14.5131L15.0468 15.7745C15.147 15.8747 15.2745 15.9203 15.4043 15.9203C15.5386 15.9203 15.6661 15.8747 15.7618 15.7745C15.9576 15.5856 15.9644 15.2736 15.7754 15.0778L15.7618 15.0641L14.4935 13.805C14.4662 13.7777 14.4343 13.764 14.3979 13.7435C14.9512 12.999 15.3405 11.9652 15.3952 10.5513C15.4293 10.5581 15.4567 10.5717 15.4885 10.5717H17.4945C17.7723 10.5695 17.9977 10.3463 18 10.0685C18 9.79304 17.7746 9.56762 17.4968 9.56762Z" fill="#86888C"/>
</svg>
