<svg width="24" height="24" viewBox="0 0 24 24" fill="none" xmlns="http://www.w3.org/2000/svg">
<path fill-rule="evenodd" clip-rule="evenodd" d="M13.6731 19.3844C11.6787 19.4773 10.0414 19.9969 9.08343 20.3772V12.9658C10.8049 12.1269 12.7354 12.005 13.6731 12.002V19.3844ZM7.83514 20.3743C6.36912 19.7966 4.81892 19.4599 3.24839 19.3815V12.005C3.7419 12.0079 4.5112 12.0456 5.3792 12.1995C5.5708 12.2343 5.7653 12.272 5.9627 12.3185C5.99173 12.3243 6.02076 12.3359 6.04979 12.3417C6.22397 12.3852 6.39815 12.4288 6.57524 12.4839C6.65652 12.5101 6.74071 12.5391 6.82489 12.5681C6.95263 12.6088 7.07746 12.6494 7.20519 12.6988C7.41711 12.7801 7.62903 12.87 7.83804 12.9717L7.83514 20.3743ZM19.1307 17.123C20.1758 17.123 21.0003 16.8123 21.5722 16.1998C22.1208 15.6134 22.4024 14.7918 22.4024 13.7555V8.34136C22.4024 7.30499 22.1208 6.48634 21.5693 5.90574C20.9974 5.30191 20.1787 5 19.1307 5L7.94836 5.00581C6.90037 5.00581 6.08172 5.31062 5.50983 5.91154C4.95826 6.49505 4.67667 7.3137 4.67667 8.35007V10.8002C3.49805 10.6725 2.64457 10.7334 2.57489 10.7392C2.24395 10.7683 1.99429 11.047 2.0001 11.3779V20.0114C2.0001 20.3656 2.27879 20.653 2.62425 20.653C5.7653 20.653 8.14866 21.91 8.17189 21.9245C8.26188 21.9739 8.36058 21.9971 8.46219 22C8.4709 22 8.4767 21.9942 8.48541 21.9942C8.57831 21.9913 8.6683 21.9681 8.75249 21.9274C8.77571 21.9158 11.1417 20.6559 14.3001 20.6559C14.6485 20.6501 14.9301 20.3627 14.9243 20.0143V19.216H21.7812C22.1295 19.2102 22.4111 18.9228 22.4053 18.5745C22.4111 18.2261 22.1324 17.9358 21.7812 17.9329H14.9214V17.1288L19.1307 17.123Z" fill="#86888C"/>
</svg>
