<svg width="28" height="28" viewBox="0 0 28 28" fill="none" xmlns="http://www.w3.org/2000/svg">
<path fill-rule="evenodd" clip-rule="evenodd" d="M6.08558 11.8884C6.23563 11.8884 6.4914 11.8884 6.4914 10.7582C6.4914 9.62448 6.23904 9.62448 6.08558 9.62448C5.93211 9.62448 5.67634 9.62448 5.67634 10.7582C5.67634 11.8884 5.92188 11.8884 6.08558 11.8884ZM6.08558 8.48398C6.79492 8.48398 7.64069 8.87667 7.64069 10.7582C7.64069 12.6362 6.79492 13.0289 6.08558 13.0289C5.37282 13.0289 4.52705 12.6328 4.52705 10.7582C4.52705 8.87667 5.37282 8.48398 6.08558 8.48398ZM9.62891 11.8884C9.77896 11.8884 10.0347 11.8884 10.0347 10.7582C10.0347 9.62448 9.78237 9.62448 9.62891 9.62448C9.47544 9.62448 9.21967 9.62448 9.21967 10.7582C9.21967 11.8884 9.46521 11.8884 9.62891 11.8884ZM9.62891 8.48398C10.3383 8.48398 11.184 8.87667 11.184 10.7582C11.184 12.6362 10.3383 13.0289 9.62891 13.0289C8.91615 13.0289 8.07039 12.6328 8.07039 10.7582C8.07039 8.87667 8.91615 8.48398 9.62891 8.48398ZM6.71649 17.8197C6.99272 17.8197 7.21439 18.0417 7.21439 18.3183V18.448C7.21439 18.7246 6.99272 18.9466 6.71649 18.9466H5.46831C5.19207 18.9466 4.9704 18.7246 4.9704 18.448V18.3183C4.9704 18.0417 5.19207 17.8197 5.46831 17.8197H5.57062V15.6412H5.50923C5.23299 15.6412 5.01132 15.4192 5.01132 15.1426V15.0333C5.01132 14.7772 5.20571 14.5621 5.46148 14.5382C5.68657 14.5177 5.8946 14.5075 5.97644 14.5075C6.67215 14.5075 6.70967 15.0607 6.70967 15.1699L6.71649 17.8197ZM9.62891 17.8744C9.77896 17.8744 10.0347 17.8744 10.0347 16.7441C10.0347 15.6104 9.78237 15.6104 9.62891 15.6104C9.47544 15.6104 9.21967 15.6104 9.21967 16.7441C9.21967 17.8744 9.46521 17.8744 9.62891 17.8744ZM9.62891 14.4699C10.3383 14.4699 11.184 14.8626 11.184 16.7441C11.184 18.6222 10.3383 19.0149 9.62891 19.0149C8.91615 19.0149 8.07039 18.6188 8.07039 16.7441C8.07039 14.866 8.91615 14.4699 9.62891 14.4699ZM22.67 13.4865C22.67 11.2328 21.0978 10.8606 20.16 10.8333H19.8599C18.9425 10.8435 17.3874 11.1918 17.3874 13.466V14.0738L22.6666 14.0636V13.4865H22.67ZM13.9464 16.5495C13.9464 15.5831 14.3454 15.0129 14.6728 14.7055C15.0616 14.347 15.5288 14.1865 15.8971 14.1284V13.4694C15.8971 10.4474 18.0286 9.35814 19.8531 9.34106H20.1907C22.022 9.39228 24.1637 10.4986 24.1637 13.4899V14.1763C24.2626 14.1967 24.3615 14.2172 24.4536 14.2548V7.4425C24.4536 7.3025 24.3445 7.18299 24.1944 7.18299H13.4689C13.0597 7.18299 12.7221 6.84493 12.7221 6.43517V4.75856C12.7221 4.60832 12.6129 4.49905 12.4629 4.49905H3.75973C3.60968 4.49905 3.49031 4.60832 3.49031 4.75856V21.2276C3.49031 21.3778 3.60968 21.4871 3.75973 21.4871H13.9464V18.9227C13.8952 18.9329 13.8577 18.9534 13.7963 18.9534H12.5516C12.2719 18.9534 12.0537 18.7246 12.0537 18.4548V18.3251C12.0537 18.0451 12.2719 17.8265 12.5516 17.8265H12.6505V15.6412H12.5891C12.3094 15.6412 12.0912 15.4192 12.0912 15.1426V15.0333C12.0912 14.7738 12.289 14.5655 12.5379 14.5348C12.7664 14.5143 12.9779 14.5041 13.0563 14.5041C13.752 14.5041 13.7929 15.0641 13.7929 15.1733V17.8265C13.8441 17.8265 13.8918 17.8368 13.943 17.8573V16.5495H13.9464ZM25.9473 16.2182C25.9678 16.4265 25.9678 16.5768 25.9576 16.6178V22.5012C25.9678 23.4608 25.5688 24.0276 25.2414 24.3383C24.4741 25.0554 23.4101 25.0076 23.2907 24.994H16.5587C15.5015 24.994 14.8945 24.5876 14.5773 24.2359C14.1885 23.8261 14.0385 23.3378 13.9805 22.9793H3.76314C2.78779 22.9793 2 22.1905 2 21.2242V4.75515C2 3.78538 2.78438 3 3.76314 3H12.4663C13.4314 3 14.2192 3.78538 14.2192 4.75515V5.68394H24.1978C25.1664 5.68394 25.9508 6.47273 25.9508 7.43909V16.2182H25.9473ZM20.0168 20.7359H19.8906C19.0482 20.7222 19.0482 20.0666 19.0482 19.8207C19.0482 19.5749 19.0482 18.9227 19.8735 18.9158H20.0065C20.8625 18.9363 20.8625 19.5851 20.8625 19.8276C20.8625 20.0734 20.8625 20.7188 20.0168 20.7359ZM20.0406 17.4202H19.8633C18.714 17.4304 17.5545 18.1748 17.5545 19.8207C17.5545 21.4632 18.7174 22.2144 19.8804 22.2315H20.0441C21.1967 22.211 22.3563 21.4598 22.3563 19.831C22.3563 18.2056 21.1933 17.4475 20.0406 17.4202Z" fill="#86888C"/>
</svg>
