<svg width="24" height="24" viewBox="0 0 24 24" fill="none" xmlns="http://www.w3.org/2000/svg">
<path d="M21.9862 8.18529V8.17674C21.9862 8.16248 21.9862 8.15108 21.9834 8.13682V8.12257L21.9748 8.07125C21.972 8.05415 21.9663 8.03989 21.9634 8.02279C21.9634 8.01709 21.9606 8.01424 21.9577 8.00853C21.9549 7.99713 21.9492 7.98573 21.9435 7.97147L21.9378 7.96007C21.9321 7.94297 21.9235 7.92871 21.915 7.91446L21.8893 7.87169L21.8808 7.86029C21.8722 7.84889 21.8665 7.84033 21.858 7.82893L21.8494 7.81753C21.838 7.80327 21.8266 7.79187 21.8152 7.78047L16.256 2.2213C16.2446 2.2099 16.2304 2.1985 16.219 2.18709L16.2076 2.17854C16.1962 2.16999 16.1876 2.16429 16.1762 2.15573L16.1648 2.14718L16.122 2.12152C16.1078 2.11297 16.0907 2.10727 16.0764 2.09872L16.065 2.09302C16.0536 2.08731 16.0422 2.08446 16.028 2.07876H16.0166C16.0023 2.07306 15.9852 2.07021 15.9681 2.06736L15.9168 2.05881H15.9025C15.8883 2.05881 15.8769 2.05595 15.8626 2.05595H15.8541C13.0232 2.0531 9.82165 2.05595 9.22867 2.05595C8.50456 2.05595 8.05697 2.50354 8.05697 3.2248V5.5454C4.98375 6.63442 3.37017 10.007 4.4592 13.0831C4.69012 13.7359 5.03222 14.3431 5.4741 14.8762L2.15286 18.3229C1.93904 18.5538 1.95045 18.913 2.18136 19.1297C2.40658 19.3378 2.75724 19.3321 2.9739 19.1155L6.28089 15.6802C6.81115 16.1164 7.41268 16.4585 8.05982 16.6865V20.8744C8.05982 21.6014 8.51026 22.0547 9.23437 22.0547H20.8345C21.5301 22.0547 21.9834 21.6014 21.9834 20.9029C21.9862 20.4525 21.9862 12.5214 21.9862 8.18529ZM20.0391 7.61512H18.6365C17.9722 7.61512 17.4163 7.407 17.0258 7.01644C16.6352 6.62587 16.4299 6.0671 16.4299 5.40286V4.00024L18.2345 5.80483L20.0391 7.61512ZM6.65435 7.74626C8.51596 5.88465 11.5322 5.88465 13.3909 7.74626C15.2497 9.60786 15.2525 12.6241 13.3909 14.4828C11.5293 16.3416 8.51311 16.3444 6.65435 14.4828C5.76204 13.5905 5.26029 12.3789 5.26029 11.1131C5.25743 9.85019 5.75919 8.63857 6.65435 7.74626Z" fill="#86888C"/>
</svg>
