<svg width="24" height="24" viewBox="0 0 24 24" fill="none" xmlns="http://www.w3.org/2000/svg">
<path d="M18.5611 3.84519C18.008 3.27604 17.1927 3 16.0637 3H9.30706C7.11186 3 6 4.12408 6 6.34377V19.6562C6 21.9072 7.0805 23 9.30706 23H16.0637C18.2903 23 19.3708 21.9072 19.3708 19.6562V6.34377C19.3708 5.21969 19.1057 4.40296 18.5611 3.84519ZM13.5264 20.325C13.3268 20.527 13.0389 20.6352 12.6911 20.6352C12.3433 20.6352 12.0525 20.527 11.8558 20.325C11.6591 20.1229 11.5621 19.8469 11.5621 19.5026C11.5621 18.794 11.9841 18.3699 12.6939 18.3699C13.4038 18.3699 13.8229 18.794 13.8229 19.5026C13.8201 19.8469 13.7203 20.1229 13.5264 20.325ZM16.4372 13.0882L13.0703 16.9585C12.9733 17.0694 12.8336 17.1349 12.6854 17.1349C12.5371 17.1349 12.3975 17.0694 12.3005 16.9585L8.94214 13.0882C8.75683 12.8748 8.77964 12.5532 8.99346 12.3711C9.08754 12.2914 9.20443 12.2459 9.32702 12.2459H10.7895V7.24587C10.781 7.01537 10.8665 6.78771 11.0262 6.61981C11.22 6.41207 11.4966 6.30393 11.7817 6.32669H13.649C14.1394 6.32669 14.5356 6.71941 14.5385 7.20888C14.5385 7.24018 14.5385 7.26864 14.5328 7.29994V12.2459H16.0495C16.3317 12.2459 16.5598 12.4735 16.5598 12.7524C16.5626 12.8776 16.517 12.9943 16.4372 13.0882Z" fill="#86888C"/>
</svg>
