<svg width="20" height="20" viewBox="0 0 20 20" fill="none" xmlns="http://www.w3.org/2000/svg">
<path fill-rule="evenodd" clip-rule="evenodd" d="M16.3267 5.07223C16.0763 5.31808 12.0785 8.85336 11.3591 9.50897L9.20546 10.2192L9.90894 8.12263C10.3961 7.69239 14.6443 3.94996 14.922 3.67451C15.4343 3.16459 16.0581 3.40362 16.329 3.67451C16.5134 3.86118 16.6295 4.13435 16.6272 4.39386C16.6272 4.65109 16.5179 4.89695 16.3267 5.07223ZM14.9972 14.7197C14.9972 15.3229 14.8355 15.7737 14.4986 16.0992C14.1343 16.452 13.5743 16.6296 12.8367 16.6296H5.53102C4.7934 16.6296 4.23335 16.452 3.8691 16.0992C3.53443 15.7759 3.37052 15.3252 3.37052 14.722V6.33109C3.37052 4.72166 4.54525 4.38248 5.53102 4.38248H12.074C11.1679 5.18605 10.0455 6.17629 8.96414 7.12783C8.80933 7.26442 8.69323 7.4397 8.62721 7.63775L7.78258 10.1486C7.57314 10.761 7.89869 11.4303 8.51338 11.6397C8.75925 11.7239 9.02334 11.7239 9.26921 11.642L11.7985 10.8088C11.9488 10.7587 12.0877 10.679 12.2015 10.5766C12.2265 10.5538 13.6585 9.29043 14.9994 8.10214C14.9972 8.09986 14.9972 14.7197 14.9972 14.7197ZM18 4.39613C17.9954 3.76101 17.745 3.15549 17.2988 2.70248C16.4769 1.88069 15.0017 1.6576 13.9522 2.70248C13.918 2.73663 13.7928 2.85045 13.5993 3.02345C13.3443 3.01435 13.0916 3.0098 12.8367 3.0098H5.53102C3.38645 3.01207 2 4.31418 2 6.33109V14.7197C2 15.7008 2.30734 16.4976 2.91747 17.0826C3.54809 17.6927 4.42686 18 5.5333 18H12.8389C13.9431 18 14.8241 17.6927 15.4548 17.0849C16.0626 16.4976 16.3722 15.7031 16.3722 14.7197L16.3654 6.88198C16.8526 6.44719 17.2077 6.12849 17.2897 6.04881C17.7427 5.61857 17.9977 5.02215 18 4.39613Z" fill="#86888C"/>
</svg>
