<svg width="24" height="24" viewBox="0 0 24 24" fill="none" xmlns="http://www.w3.org/2000/svg">
<path fill-rule="evenodd" clip-rule="evenodd" d="M19.5757 20.2871C20.0247 20.2871 20.3913 20.6703 20.3913 21.1421C20.3913 21.6168 20.0247 22 19.5757 22L3.81557 22C3.36658 22 3 21.6168 3 21.1421C3 20.6703 3.36658 20.2871 3.81557 20.2871L19.5757 20.2871ZM6.21398 12.9494L4.70787 17.785L4.75334 17.9022H4.75902L9.19494 16.3123C11.3376 14.2619 17.6462 8.19674 18.0725 7.74206C18.493 7.30741 18.7289 6.72405 18.7261 6.11496C18.7232 5.48585 18.493 4.87961 18.0781 4.40778C17.6831 3.97598 17.129 3.72719 16.5465 3.71576C16.0009 3.71576 15.4893 3.95596 15.0745 4.40778C14.5857 4.93394 6.55499 12.6234 6.21398 12.9494ZM4.7505 19.6151C4.30435 19.6151 3.86672 19.4178 3.55129 19.0775C3.10514 18.5856 2.95453 17.8908 3.15629 17.2559L4.64251 12.4547C4.73345 12.1573 4.89827 11.8885 5.11992 11.6797C9.15232 7.81641 13.6024 3.5356 13.898 3.21533C14.6198 2.4318 15.5575 2 16.5436 2C17.5496 2 18.5357 2.44324 19.2461 3.21247C19.9594 4.01029 20.3544 5.04261 20.3544 6.11496C20.3572 7.16729 19.9537 8.17672 19.2319 8.93738C18.6721 9.53789 10.3885 17.4847 10.3061 17.5619C10.1384 17.7278 9.93947 17.8507 9.72066 17.9279L5.28474 19.5179C5.11424 19.5836 4.93521 19.6151 4.7505 19.6151Z" fill="#86888C"/>
</svg>
