<svg width="24" height="24" viewBox="0 0 24 24" fill="none" xmlns="http://www.w3.org/2000/svg">
<path fill-rule="evenodd" clip-rule="evenodd" d="M19.9084 5.84029C19.5953 6.1476 14.5982 10.5667 13.6989 11.3862L11.0068 12.274L11.8862 9.65329C12.4952 9.11548 17.8053 4.43745 18.1525 4.09314C18.7928 3.45574 19.5726 3.75452 19.9112 4.09314C20.1417 4.32647 20.2869 4.66793 20.284 4.99232C20.284 5.31387 20.1474 5.62118 19.9084 5.84029ZM18.2464 17.8996C18.2464 18.6537 18.0444 19.2171 17.6232 19.624C17.1679 20.065 16.4678 20.287 15.5458 20.287H6.41377C5.49175 20.287 4.79169 20.065 4.33637 19.624C3.91804 19.2199 3.71315 18.6565 3.71315 17.9024V7.41386C3.71315 5.40208 5.18156 4.97809 6.41377 4.97809H14.5925C13.4599 5.98256 12.0569 7.22037 10.7052 8.40979C10.5117 8.58052 10.3665 8.79963 10.284 9.04719L9.22823 12.1858C8.96642 12.9512 9.37336 13.7878 10.1417 14.0496C10.4491 14.1549 10.7792 14.1549 11.0865 14.0525L14.2481 13.011C14.436 12.9484 14.6096 12.8488 14.7519 12.7208C14.7832 12.6923 16.5731 11.113 18.2493 9.62768C18.2464 9.62483 18.2464 17.8996 18.2464 17.8996ZM22 4.99517C21.9943 4.20127 21.6813 3.44436 21.1235 2.8781C20.0962 1.85087 18.2521 1.57201 16.9402 2.8781C16.8976 2.92078 16.741 3.06306 16.4991 3.27932C16.1804 3.26794 15.8645 3.26225 15.5458 3.26225H6.41377C3.73307 3.26509 2 4.89273 2 7.41386V17.8996C2 19.126 2.38418 20.122 3.14684 20.8533C3.93512 21.6159 5.03358 22 6.41662 22H15.5487C16.9289 22 18.0302 21.6159 18.8184 20.8561C19.5783 20.122 19.9653 19.1289 19.9653 17.8996L19.9567 8.10248C20.5657 7.55898 21.0097 7.16061 21.1121 7.06102C21.6784 6.52321 21.9972 5.77769 22 4.99517Z" fill="#86888C"/>
</svg>
