<svg width="28" height="28" viewBox="0 0 28 28" fill="none" xmlns="http://www.w3.org/2000/svg">
<path fill-rule="evenodd" clip-rule="evenodd" d="M3.47866 17.9784C3.47866 18.7911 4.13773 19.4536 4.95048 19.4536H16.9539C17.7666 19.4536 18.4257 18.7911 18.4257 17.9784V12.9858C18.4257 12.173 17.7666 11.5105 16.9539 11.5105H4.95048C4.13773 11.5105 3.47866 12.1696 3.47866 12.9858V17.9784ZM23.8998 8.89129L18.8799 4.03529V6.18668C18.8799 6.98919 19.1429 7.66534 19.6414 8.14684C20.1468 8.63176 20.8571 8.89129 21.7006 8.89129H23.8998ZM25.9419 9.02447C25.9795 9.11668 26 9.21229 26 9.31133V24.313C26 25.2282 25.2146 26 24.2823 26H9.43426C8.51907 26 7.71656 25.2112 7.71656 24.313L7.75754 20.9323H4.9539C3.32157 20.9289 2.00341 19.6073 2 17.9784V12.9892C2 11.3569 3.32157 10.0353 4.95048 10.0319H7.71315V3.68697C7.71315 2.8025 8.53273 2 9.43085 2H18.4701C18.7536 2 19.0165 2.10586 19.218 2.30051L25.6756 8.5498C25.8122 8.6864 25.8907 8.85031 25.9419 9.02447Z" fill="#86888C"/>
<path d="M5.17188 13.2485H6.72224C7.42913 13.2485 7.87649 13.3475 8.16675 13.6173C8.40921 13.8427 8.52873 14.191 8.52873 14.6725C8.52873 15.154 8.41604 15.516 8.19066 15.7687C7.92771 16.0658 7.51792 16.2058 6.92372 16.2058H6.19976V17.763H5.17188V13.2485ZM6.70859 15.4306C7.03983 15.4306 7.17643 15.3828 7.30961 15.2598C7.42913 15.1403 7.48719 14.9491 7.48719 14.6861C7.48719 14.4437 7.43596 14.2627 7.31644 14.1534C7.19009 14.0407 6.99885 13.9963 6.68468 13.9963H6.19976V15.434H6.70859V15.4306ZM9.09219 17.6195L9.24928 16.8341C9.64541 16.9741 10.1645 17.0595 10.4957 17.0595C11.1036 17.0595 11.387 16.9024 11.387 16.4858C11.387 15.6423 9.08536 16.2536 9.08536 14.4812C9.08536 13.566 9.80591 13.1631 10.7655 13.1631C11.2026 13.1631 11.6773 13.228 12.0256 13.3475L11.8685 14.1124C11.4997 14.0134 11.1036 13.9553 10.786 13.9553C10.2328 13.9553 10.0552 14.1534 10.0552 14.4368C10.0552 15.3213 12.3568 14.7135 12.3568 16.4756C12.3568 16.8785 12.2168 17.1995 11.9812 17.4249C11.6636 17.722 11.2368 17.8552 10.5879 17.8552C10.0142 17.8518 9.54638 17.78 9.09219 17.6195ZM13.1491 13.2485H14.539C15.3961 13.2485 15.963 13.3816 16.3386 13.7573C16.7006 14.1124 16.885 14.6725 16.885 15.4852C16.885 16.3048 16.7074 16.8717 16.3386 17.2542C16.0006 17.5956 15.4815 17.763 14.6756 17.763H13.1457V13.2485H13.1491ZM14.6141 17.0083C15.0751 17.0083 15.4064 16.8683 15.5839 16.6053C15.7615 16.3424 15.823 16.0384 15.823 15.4852C15.823 14.8398 15.724 14.5359 15.5054 14.2968C15.3005 14.0783 14.9966 13.9997 14.4946 13.9997H14.177V17.0083H14.6141Z" fill="#86888C"/>
</svg>
