<svg width="28" height="28" viewBox="0 0 28 28" fill="none" xmlns="http://www.w3.org/2000/svg">
<path fill-rule="evenodd" clip-rule="evenodd" d="M3.47866 18.2831C3.47866 19.0958 4.13773 19.7583 4.95048 19.7583H16.9539C17.7666 19.7583 18.4257 19.0958 18.4257 18.2831V13.2939C18.4257 12.4811 17.7666 11.8186 16.9539 11.8186H4.95048C4.13773 11.8186 3.47866 12.4777 3.47866 13.2939V18.2831ZM23.8964 9.19598L18.8799 4.33997V6.49137C18.8799 7.29387 19.1429 7.97003 19.638 8.45153C20.1434 8.93645 20.8537 9.19598 21.6972 9.19598H23.8964ZM25.9419 9.32916C25.9795 9.42136 26 9.51698 26 9.61601V24.6177C26 25.5329 25.2146 26.3047 24.2823 26.3047H9.43426C8.51907 26.3047 7.71656 25.5158 7.71656 24.6177L7.75754 21.237H4.9539C3.32157 21.2335 2.00341 19.912 2 18.2831V13.2939C2 11.6615 3.32157 10.34 4.95048 10.3366H7.71315V3.99165C7.71315 3.10719 8.53273 2.30469 9.43085 2.30469H18.4701C18.7536 2.30469 19.0165 2.41055 19.218 2.6052L25.6756 8.85449C25.8122 8.98767 25.8907 9.155 25.9419 9.32916Z" fill="#86888C"/>
<path d="M5.91699 17.552C5.53794 17.1456 5.37402 16.5651 5.37402 15.7899C5.37402 14.3932 6.00578 13.4541 7.53566 13.4541C7.92155 13.4541 8.41671 13.5395 8.70356 13.6556L8.5738 14.4C8.22889 14.301 7.89423 14.2429 7.61421 14.2429C6.65462 14.2429 6.43265 14.8747 6.43265 15.7626C6.43265 16.2919 6.53168 16.7358 6.75365 16.9817C6.9483 17.2037 7.23174 17.3027 7.73373 17.3027C7.94887 17.3027 8.29377 17.2617 8.55672 17.2105L8.66258 17.955C8.39622 18.0335 7.90447 18.0916 7.53908 18.0916C6.74682 18.0916 6.25166 17.9037 5.91699 17.552ZM9.24995 17.8628L9.40703 17.0876C9.79975 17.2242 10.3154 17.3095 10.6398 17.3095C11.2408 17.3095 11.5209 17.1525 11.5209 16.7427C11.5209 15.906 9.24312 16.5139 9.24312 14.7586C9.24312 13.8502 9.95342 13.4541 10.9062 13.4541C11.3365 13.4541 11.8077 13.519 12.1526 13.6385L11.9955 14.3966C11.6301 14.2976 11.2374 14.2395 10.9233 14.2395C10.3735 14.2395 10.1993 14.4342 10.1993 14.7176C10.1993 15.5918 12.477 14.9908 12.477 16.7358C12.477 17.1354 12.3404 17.453 12.1048 17.6749C11.7906 17.9686 11.3672 18.0984 10.7286 18.0984C10.1617 18.0916 9.70072 18.0198 9.24995 17.8628ZM13.102 17.8628L13.2591 17.0876C13.6518 17.2242 14.1674 17.3095 14.4918 17.3095C15.0929 17.3095 15.3729 17.1525 15.3729 16.7427C15.3729 15.906 13.0951 16.5139 13.0951 14.7586C13.0951 13.8502 13.8054 13.4541 14.7582 13.4541C15.1885 13.4541 15.6597 13.519 16.0046 13.6385L15.8476 14.3966C15.4822 14.2976 15.0894 14.2395 14.7753 14.2395C14.2255 14.2395 14.0513 14.4342 14.0513 14.7176C14.0513 15.5918 16.3291 14.9908 16.3291 16.7358C16.3291 17.1354 16.1925 17.453 15.9568 17.6749C15.6427 17.9686 15.2192 18.0984 14.5806 18.0984C14.0172 18.0916 13.5527 18.0198 13.102 17.8628Z" fill="#86888C"/>
</svg>
