<svg width="40" height="40" viewBox="0 0 40 40" fill="none" xmlns="http://www.w3.org/2000/svg">
<path fill-rule="evenodd" clip-rule="evenodd" d="M4.21767 26.1724C4.21767 27.3913 5.20615 28.3849 6.4251 28.3849H25.0371C26.2561 28.3849 27.2446 27.3913 27.2446 26.1724V18.6846C27.2446 17.4656 26.2561 16.472 25.0371 16.472H6.4251C5.20615 16.472 4.21767 17.4656 4.21767 18.6846V26.1724ZM34.8451 12.5437L27.3214 5.25562V8.48225C27.3214 9.68584 27.7157 10.6999 28.4584 11.4221C29.2164 12.1545 30.2817 12.5386 31.5519 12.5386H34.8451V12.5437ZM37.9078 12.7383C37.9641 12.8715 37.9949 13.02 37.9949 13.1737V35.673C37.9949 37.0456 36.8169 38.2031 35.4187 38.2031H13.1447C11.7721 38.2031 10.5685 37.02 10.5685 35.673L10.63 30.6077H6.4251C3.9872 30.6077 2 28.6154 2 26.1724V18.6846C2 16.2415 3.9872 14.2492 6.4251 14.2492H10.5685V4.73321C10.5685 3.40671 11.7977 2.20312 13.1447 2.20312H26.7017C27.1216 2.20312 27.516 2.3619 27.8182 2.64871L37.5083 12.0316C37.7132 12.2313 37.831 12.4771 37.9078 12.7383Z" fill="#86888C"/>
<path d="M5.33301 19.499H9.3535L9.25106 20.4824H6.69024V21.9267H8.7389V22.9459H6.69024V24.467H9.39959V25.4504H5.33301V19.499ZM10.4086 19.499H11.4073L14.2293 23.3146V19.499H15.4226V25.4555H14.3317L11.5968 21.8396V25.4555H10.4034V19.499H10.4086ZM16.7184 19.499H20.7389L20.6365 20.4824H18.0756V21.9267H20.1243V22.9459H18.0756V24.467H20.785V25.4504H16.7184V19.499ZM23.2485 22.4849L21.4303 19.499H22.849L24.0321 21.4657L25.1128 19.499H26.5571L24.6057 22.4132L26.5059 25.4504H25.0001L23.817 23.4324L22.7466 25.4504H21.2767L23.2485 22.4849Z" fill="#86888C"/>
</svg>
