<svg width="28" height="28" viewBox="0 0 28 28" fill="none" xmlns="http://www.w3.org/2000/svg">
<path fill-rule="evenodd" clip-rule="evenodd" d="M17.9926 4.03529V6.18668C17.9926 6.98919 18.2521 7.66534 18.7405 8.14684C19.2356 8.63176 19.9357 8.89129 20.7689 8.89129H22.9306L17.9926 4.03529ZM24.9419 9.02106C24.9795 9.10985 25 9.20888 25 9.31133V24.313C25 25.2282 24.2248 26 23.3096 26H8.69038C7.78884 26 7 25.2112 7 24.313V3.68697C7 2.8025 7.80592 2 8.69038 2H17.5896C17.8662 2 18.1292 2.10586 18.3273 2.30393L24.6824 8.55322C24.8156 8.68298 24.8941 8.85031 24.9419 9.02106ZM19.4439 14.5805L14.8816 13.3238V12.5794L19.4439 13.8361V14.5805ZM18.5014 22.0046H18.3751C17.7501 21.9943 17.436 21.6494 17.436 20.9767C17.436 20.7274 17.436 19.9693 18.358 19.959H18.4946C19.1264 19.9761 19.4439 20.321 19.4439 20.9835C19.4439 21.6494 19.1264 21.9909 18.5014 22.0046ZM12.6892 19.5561H12.5492C11.9277 19.5458 11.6101 19.2009 11.6101 18.5282C11.6101 18.2789 11.6101 17.5208 12.5322 17.5139H12.6653C13.2971 17.5276 13.6181 17.8759 13.6181 18.5418C13.6181 19.2009 13.3005 19.5424 12.6892 19.5561ZM19.9391 12.6409L14.6631 11.1861L14.4991 11.1622C14.0142 11.1622 13.6215 11.5618 13.6215 12.0569V16.4348C13.321 16.3051 13.0034 16.2368 12.6995 16.2299H12.5253C11.5213 16.2402 10.35 16.848 10.35 18.5316C10.35 20.2151 11.5248 20.8298 12.5322 20.8435H12.7063C13.6727 20.823 14.786 20.2425 14.8714 18.716L14.8884 14.6557L19.4508 15.9158V18.8867C19.1503 18.757 18.8327 18.6887 18.5287 18.6818L18.3546 18.6784C17.3506 18.6887 16.1793 19.2965 16.1793 20.9801C16.1793 22.6636 17.3574 23.2783 18.3614 23.292H18.5356C19.543 23.2715 20.7177 22.6602 20.7177 20.9903V13.5356C20.7075 13.0711 20.3694 12.6955 19.9391 12.6409Z" fill="#86888C"/>
</svg>
