<svg width="40" height="40" viewBox="0 0 40 40" fill="none" xmlns="http://www.w3.org/2000/svg">
<path fill-rule="evenodd" clip-rule="evenodd" d="M4.21799 26.1707C4.21799 27.3898 5.2066 28.3835 6.42573 28.3835H24.4308C25.65 28.3835 26.6386 27.3898 26.6386 26.1707V18.6818C26.6386 17.4627 25.65 16.4689 24.436 16.4689H6.42573C5.2066 16.4689 4.21799 17.4575 4.21799 18.6818V26.1707ZM34.8497 12.5401L27.3199 5.25606V8.48315C27.3199 9.6869 27.7143 10.7011 28.4622 11.4234C29.2203 12.1559 30.2857 12.5401 31.5509 12.5401H34.8497ZM37.9129 12.7347C37.9693 12.8679 38 13.0164 38 13.1701V35.6727C38 37.0455 36.8219 38.2031 35.4235 38.2031H13.1514C11.7786 38.2031 10.5748 37.0199 10.5748 35.6727L10.6363 30.6015H6.43085C3.98236 30.5964 2.00512 28.6141 2 26.1707V18.6869C2 16.2435 3.98236 14.2612 6.42573 14.2509H10.5697V4.73357C10.5697 3.40688 11.7991 2.20312 13.1463 2.20312H26.7052C27.1252 2.20312 27.5196 2.36192 27.8219 2.64877L37.5134 12.0329C37.7131 12.2225 37.831 12.4735 37.9129 12.7347Z" fill="#86888C"/>
<path d="M5.82584 25.4992L5.72852 24.4645C6 24.5157 6.30222 24.5362 6.43028 24.5362C7.00399 24.5362 7.18327 24.3825 7.18327 23.7217V19.5214H8.53557V23.7525C8.53557 24.4901 8.41264 24.8896 8.11042 25.1918C7.83893 25.4531 7.40865 25.576 6.73762 25.576C6.44565 25.576 6.251 25.5555 5.82584 25.4992ZM9.79568 19.5214H11.8344C12.7615 19.5214 13.3506 19.6494 13.7348 20.008C14.0575 20.3051 14.2112 20.761 14.2112 21.3962C14.2112 22.0313 14.0626 22.5077 13.7706 22.8356C13.4223 23.2249 12.8845 23.4093 12.1059 23.4093H11.1531V25.4582H9.8008V19.5214H9.79568ZM11.8139 22.3899C12.2493 22.3899 12.4286 22.3284 12.6027 22.1645C12.7564 22.0109 12.8384 21.7547 12.8384 21.4115C12.8384 21.0888 12.7666 20.8583 12.613 20.7098C12.4491 20.5612 12.1981 20.4998 11.778 20.4998H11.1429V22.3899H11.8139ZM15.1639 19.5214H19.1696L19.0672 20.4998H16.5162V21.9391H18.5549V22.9534H16.5162V24.4696H19.2157V25.448H15.1639V19.5214ZM19.9738 22.5231C19.9738 20.6688 20.9522 19.4087 22.9755 19.4087C23.5646 19.4087 24.2664 19.5316 24.6505 19.6955L24.4764 20.6842C24.0512 20.5612 23.539 20.469 23.0729 20.469C21.8742 20.469 21.3825 21.181 21.3825 22.4719C21.3825 23.1378 21.4696 23.6859 21.7308 24.0496C21.9459 24.3518 22.3045 24.5259 22.8782 24.5259C23.0933 24.5259 23.3904 24.5003 23.6005 24.4645V23.2146H22.7655V22.2414H24.9425V25.2687C24.3791 25.4428 23.4775 25.5709 22.827 25.5709C20.6961 25.576 19.9738 24.403 19.9738 22.5231Z" fill="#86888C"/>
</svg>
