<svg width="40" height="40" viewBox="0 0 40 40" fill="none" xmlns="http://www.w3.org/2000/svg">
<path fill-rule="evenodd" clip-rule="evenodd" d="M3.14905 9.47789C2.54887 9.48302 2.0513 9.00083 2.04617 8.39553C2.04617 7.80049 2.53861 7.3183 3.14905 7.3183H5.07267C5.20091 6.68735 5.43688 6.08205 5.79595 5.51778C6.58079 4.30205 7.82217 3.4454 9.23796 3.13762C10.6589 2.81445 12.1516 3.0658 13.3879 3.83525C14.6344 4.59957 15.4962 5.79992 15.8193 7.20544C15.8296 7.24135 15.8245 7.28239 15.8296 7.3183H36.8971C37.5024 7.3183 38 7.80562 38 8.40066C38 8.9957 37.5076 9.48302 36.8971 9.48302H15.8347C15.7065 10.1242 15.4602 10.7295 15.1063 11.2784C14.3215 12.4993 13.1006 13.3457 11.6643 13.6586C10.2434 13.9817 8.75064 13.7304 7.51439 12.9609C6.28327 12.2069 5.41123 10.9963 5.08293 9.59074C5.07267 9.55483 5.07267 9.51892 5.06754 9.47789H3.14905ZM36.8561 18.8754C37.4665 18.8754 37.959 19.3576 37.959 19.9578C37.959 20.5528 37.4665 21.035 36.8561 21.035H34.876C34.3682 23.4921 32.1419 25.3491 29.4848 25.3491C26.8276 25.3491 24.6064 23.4921 24.0935 21.035H3.10288C2.50271 21.0402 2.00513 20.558 2 19.9527C2 19.3576 2.49245 18.8703 3.10288 18.8703H24.0883C24.6013 16.4132 26.8225 14.5563 29.4796 14.5563C32.1368 14.5563 34.3631 16.4132 34.8709 18.8703H36.8561V18.8754ZM36.851 30.4069C37.4614 30.4069 37.9538 30.8891 37.9538 31.4893C37.9538 32.0843 37.4614 32.5716 36.851 32.5716H20.7694C20.2565 35.0288 18.0353 36.8857 15.3782 36.8857C12.721 36.8857 10.4999 35.0288 9.98689 32.5716H3.10288C2.50271 32.5768 2.00513 32.0946 2 31.4893C2 30.8942 2.49245 30.4121 3.10288 30.4121H9.98689C10.4999 27.9549 12.721 26.098 15.3782 26.098C18.0353 26.098 20.2565 27.9549 20.7694 30.4121L36.851 30.4069Z" fill="#86888C"/>
</svg>
