<svg width="40" height="40" viewBox="0 0 40 40" fill="none" xmlns="http://www.w3.org/2000/svg">
<path fill-rule="evenodd" clip-rule="evenodd" d="M34.7863 12.3245L28.6018 12.3091V4.26986H34.4327C34.5352 4.3006 34.7863 4.59778 34.7863 4.93595V12.3245ZM34.7863 24.5038L21.5565 24.427V14.6917C21.5565 14.6456 21.5412 14.5995 21.5412 14.5687L34.7863 14.5995V24.5038ZM34.7863 35.0743C34.7863 35.4535 34.5506 35.725 34.4737 35.7404H28.6018V26.743L34.7863 26.7737V35.0743ZM26.3729 35.7404H16.5762C16.6069 35.7097 16.6479 35.6789 16.6786 35.6482C18.057 34.3877 18.8716 32.6251 18.9331 30.7549C18.9895 29.3151 18.595 27.8907 17.8059 26.6815L26.3781 26.7276L26.3729 35.7404ZM12.7897 15.6396C12.8614 15.4705 12.8358 15.2758 12.7128 15.1375C12.6052 14.9889 12.4156 14.9223 12.2363 14.9735C10.3405 15.4295 8.4088 16.398 6.71793 17.684V14.5175L19.3533 14.5483C19.3533 14.5944 19.3225 14.6405 19.3225 14.6866V24.4219L16.817 24.4065H15.6129L15.3926 24.2272C10.6684 20.7327 12.7026 15.8548 12.7897 15.6396ZM6.72306 4.93595C6.72306 4.6029 6.97413 4.3006 7.03561 4.26986H12.4515V12.2681L6.72818 12.2528V4.93595H6.72306ZM14.6701 4.26986H26.3729V12.2938L14.6701 12.263V4.26986ZM34.4737 2H7.03561C5.70342 2 4.49932 3.39368 4.49932 4.93595V19.7131C0.0774557 24.7088 0.287532 31.4159 2.69061 34.5209C3.89471 36.0683 5.60094 37.1546 7.48138 37.7028C7.15858 37.5132 6.86652 37.2878 6.60521 37.0214C5.13467 35.5508 5.06294 33.1734 6.4105 31.585C6.66157 31.3134 6.92801 31.0572 7.22519 30.8266C9.04927 29.3715 8.23459 27.3015 8.23459 27.281C8.13211 27.0248 8.17822 26.7327 8.35243 26.5226C8.53177 26.3228 8.80333 26.2357 9.06465 26.2921C10.0894 26.5636 11.1244 27.1426 12.016 27.9266C13.9733 29.6687 15.5309 33.7575 13.6044 36.4219C13.0868 37.1341 12.3746 37.6772 11.5702 38H34.4686C35.8315 38 37.0049 36.6473 37.0049 35.064V4.93595C37.01 3.40905 35.7956 2 34.4737 2Z" fill="#86888C"/>
</svg>
