<svg width="24" height="24" viewBox="0 0 24 24" fill="none" xmlns="http://www.w3.org/2000/svg">
<path fill-rule="evenodd" clip-rule="evenodd" d="M8.61473 4.42275V6.09132H15.9535V4.42275C15.9125 4.39641 15.8305 4.36713 15.7164 4.36713H8.85477C8.73768 4.36421 8.65571 4.39641 8.61473 4.42275ZM21.047 6.09132C21.8871 6.09132 22.5692 6.7646 22.5692 7.59595V19.5979C22.5692 20.4263 21.8871 21.0996 21.047 21.0996H3.51829C2.67816 21.0996 1.99609 20.4263 1.99609 19.5979V7.59595C1.99609 6.76752 2.67816 6.09132 3.51829 6.09132H7.32672V4.35542C7.32672 3.65287 7.99414 3.09961 8.84892 3.09961H15.7105C16.5653 3.09961 17.2356 3.65287 17.2356 4.35542V6.09132H21.047ZM16.1291 11.6737H14.2264V9.80021C14.2264 9.22353 13.7551 8.71711 13.2194 8.71711H11.3371C10.8014 8.71711 10.3331 9.22353 10.3331 9.80021V11.6766H8.43324C7.83607 11.6766 7.3355 12.1303 7.3355 12.669V14.5249C7.3355 15.0635 7.83899 15.5172 8.43617 15.5172H10.3389V17.3907C10.3389 17.9791 10.7985 18.4738 11.343 18.4738H13.2282C13.7726 18.4738 14.2322 17.9762 14.2322 17.3878V15.5114H16.1321C16.7175 15.5114 17.2298 15.0489 17.2298 14.519V12.6631C17.2298 12.1362 16.7146 11.6737 16.1291 11.6737Z" fill="#86888C"/>
</svg>
