<svg width="20" height="20" viewBox="0 0 20 20" fill="none" xmlns="http://www.w3.org/2000/svg">
<path fill-rule="evenodd" clip-rule="evenodd" d="M9.81786 7.52989C9.81786 8.03985 9.43084 8.47241 8.97324 8.47241H4.9095C4.4519 8.47241 4.0626 8.03985 4.0626 7.52989V5.0188C4.0626 4.51795 4.45646 4.07628 4.9095 4.07628H8.97324C9.42401 4.07628 9.81786 4.51795 9.81786 5.0188V7.52989ZM17.0188 7.30451C17.0188 7.31134 17.0142 7.31817 17.0142 7.325V7.44111C16.996 7.80764 16.864 8.40639 15.9488 8.42232L15.8281 8.4246H15.7826C14.7148 8.40866 14.7148 7.57998 14.7148 7.26808C14.7148 6.95619 14.7148 6.13206 15.7621 6.12523H15.7985L15.9305 6.12751C16.3221 6.13661 16.568 6.25044 16.7296 6.40525L16.7683 6.44623C17.0142 6.71942 17.0165 7.09506 17.0165 7.28174C17.0188 7.28402 17.0188 7.2954 17.0188 7.30451ZM17.9954 7.35915C17.9954 7.32955 18 7.30451 18 7.27491C18 6.56689 17.786 6.09791 17.4969 5.77919C17.4946 5.77691 17.4946 5.77691 17.4946 5.77463L17.4877 5.7678C17.4673 5.74504 17.4468 5.72455 17.424 5.70406L13.9021 2.14572C13.7131 1.95449 13.4012 1.94994 13.2077 2.14117C13.0142 2.3324 13.0142 2.64202 13.2032 2.83326L15.498 5.15084C14.8924 5.21914 13.7313 5.57201 13.7313 7.25898C13.7313 9.23507 15.3386 9.38988 15.7666 9.39671H15.8258C15.8736 9.39671 15.9214 9.39671 15.9624 9.39443C16.1491 9.38988 16.5885 9.35573 17.0119 9.13262L17.0165 15.7143C17.0165 16.8275 16.2402 17.0097 15.778 17.0188H15.63C15.1679 17.012 14.3938 16.8321 14.3938 15.7052V12.5566C14.3938 11.3273 13.3921 10.3278 12.1605 10.3278H11.7712V3.13377C11.7712 2.54868 11.2248 2.01368 10.6261 2.01368H3.14513C2.54639 2.01368 2 2.54868 2 3.13377V16.8799C2 17.4764 2.535 18 3.14513 18H10.6261C11.2362 18 11.7712 17.4764 11.7712 16.8799V11.3091H12.1605C12.8503 11.3091 13.4126 11.8691 13.4126 12.5566V15.7052C13.4126 17.3762 14.601 17.9863 15.6801 18H15.7962C16.8116 17.9818 17.9977 17.3717 17.9977 15.7143L17.9954 7.35915Z" fill="#86888C"/>
</svg>
