<svg width="40" height="40" viewBox="0 0 40 40" fill="none" xmlns="http://www.w3.org/2000/svg">
<path fill-rule="evenodd" clip-rule="evenodd" d="M2 14.1967C2 12.8443 3.04504 11.7532 4.34109 11.7532H4.8175V30.4512H4.34109C3.05016 30.4512 2 29.3549 2 28.0076V14.1967ZM35.6614 11.7481C36.9524 11.7481 38.0025 12.8443 38.0025 14.1916V27.9974C38.0025 29.3498 36.9524 30.4409 35.6614 30.4409H35.2209V11.743H35.6614V11.7481ZM13.0548 11.5432V16.6915H13.0805V25.5077H13.0548V30.6561C13.0548 32.0085 12.0098 33.0996 10.7138 33.0996H8.70565C7.44034 33.0996 6.41067 32.0443 6.37481 30.7329V11.4715C6.41067 10.1549 7.44034 9.09963 8.70565 9.09963H10.7138C12.0047 9.0945 13.0548 10.1908 13.0548 11.5432ZM14.6378 24.7905V17.4036H25.416V24.7905H14.6378ZM33.6585 11.5432V11.7481H33.6636V30.446H33.6585V30.6509C33.6585 32.0033 32.6083 33.0945 31.3174 33.0945H29.3093C28.0183 33.0945 26.9682 31.9982 26.9682 30.6509V11.5432C26.9682 10.1908 28.0132 9.09963 29.3093 9.09963H31.3174C32.6134 9.0945 33.6585 10.1908 33.6585 11.5432Z" fill="#86888C"/>
</svg>
