<svg width="40" height="40" viewBox="0 0 40 40" fill="none" xmlns="http://www.w3.org/2000/svg">
<path fill-rule="evenodd" clip-rule="evenodd" d="M31.2994 15.6389C30.7814 15.6389 30.3095 15.7106 29.8839 15.854C29.4479 14.2868 28.1606 13.3547 26.3143 13.3547C25.7963 13.3547 25.3193 13.4315 24.8936 13.5698C24.4525 12.0179 23.1704 11.096 21.3343 11.096C20.883 11.096 20.4624 11.1524 20.0829 11.2599V5.9539C20.0829 3.516 18.5853 2 16.1748 2C13.8566 2 12.436 3.40845 12.277 5.87196V19.4545C11.6564 18.3995 11.0974 17.662 10.4306 17.1293C9.77415 16.6018 8.98946 16.3406 8.22015 16.3406C7.48161 16.3406 6.75333 16.5813 6.14815 17.0679C4.95828 18.0205 4.66595 19.644 5.39935 21.2061C6.64563 23.854 8.74328 28.1101 10.4306 31.5314C11.482 33.662 12.3898 35.5058 12.6462 36.0589C12.9129 36.6428 13.5438 38 14.9747 38H29.2325C31.0327 38 32.5662 37.4366 33.556 36.4174C34.5407 35.4033 35.0382 33.9846 35.0382 32.2074V19.4136C35.028 17.0832 33.6022 15.6389 31.2994 15.6389Z" fill="#86888C"/>
</svg>
