<svg width="40" height="40" viewBox="0 0 40 40" fill="none" xmlns="http://www.w3.org/2000/svg">
<path fill-rule="evenodd" clip-rule="evenodd" d="M20 14.8287C21.6955 14.8287 21.6955 14.1167 21.6955 13.8145C21.6955 13.5122 21.6955 12.7951 20 12.7951C18.3045 12.7951 18.3045 13.5071 18.3045 13.8145C18.3045 14.1218 18.3045 14.8287 20 14.8287ZM20 11.2891C22.8839 11.2891 23.1964 13.0512 23.1964 13.8093C23.1964 14.5675 22.8839 16.3295 20 16.3295C17.1161 16.3295 16.8088 14.5675 16.8088 13.8093C16.8088 13.0512 17.1161 11.2891 20 11.2891ZM9.15083 6.86341C8.26466 6.86341 7.75242 6.5407 7.75242 5.85431C7.75242 5.16279 8.26978 4.84008 9.15083 4.84008C10.0319 4.84008 10.5492 5.16279 10.5492 5.85431C10.5492 6.5407 10.037 6.86341 9.15083 6.86341ZM30.1423 4.84008C31.0233 4.84008 31.5407 5.16279 31.5407 5.85431C31.5407 6.5407 31.0233 6.86341 30.1423 6.86341C29.2561 6.86341 28.7439 6.5407 28.7439 5.85431C28.7388 5.16279 29.2561 4.84008 30.1423 4.84008ZM31.7405 22.3842C31.7405 21.6927 32.2578 21.37 33.1389 21.37C34.0199 21.37 34.5373 21.6927 34.5373 22.3842C34.5373 23.0706 34.0199 23.3933 33.1389 23.3933C32.2527 23.3984 31.7405 23.0706 31.7405 22.3842ZM20 19.6335C28.4826 19.6335 28.4826 15.2538 28.4826 13.8145C28.4826 12.3751 28.4826 7.99033 20 7.99033C11.5174 7.99033 11.5174 12.3751 11.5174 13.8145C11.5174 14.6084 11.6352 15.3358 11.8657 15.9607C11.8708 15.9659 11.8657 15.9761 11.8708 15.9812C12.8236 15.6022 13.6841 15.469 14.2425 15.8378C14.6164 16.0786 14.8418 16.4627 14.8776 16.9186C14.9186 17.4052 14.7137 17.9943 14.3756 18.609L14.4166 18.6295C15.8048 19.2954 17.6847 19.6335 20 19.6335ZM20 5.73137C29.3381 5.73137 30.7314 10.7923 30.7314 13.8093C30.7314 16.8264 29.3381 21.8822 20 21.8822C17.3466 21.8822 15.1389 21.4724 13.4485 20.6579L13.1719 20.5196C13.1411 20.5043 13.1207 20.4735 13.0899 20.4531C11.9067 21.9078 10.5544 23.1525 10.4519 23.2447C9.80649 23.8389 9.0535 24.136 8.2749 24.136C7.63973 24.136 6.98406 23.9363 6.35913 23.5316C5.4115 22.9118 5.1605 22.2254 5.12464 21.7593C5.08879 21.3034 5.2066 20.6118 5.99032 19.8947C6.02618 19.864 7.89072 18.2248 9.90894 16.9852C9.85259 16.9033 9.786 16.8315 9.75014 16.7291C9.42743 15.8532 9.26352 14.8645 9.26352 13.8042C9.26864 10.7923 10.6619 5.73137 20 5.73137ZM35.7103 24.6739C35.8845 24.6739 36.0535 24.6995 36.2123 24.7354L33.6767 4.58396C33.5743 4.04099 33.1747 3.6312 32.7137 3.6312L7.29141 3.60046C6.856 3.60046 6.50256 3.95903 6.50256 4.39443L3.79283 24.7302C3.95674 24.6944 4.12578 24.6688 4.29482 24.6688H35.7103V24.6739ZM31.8224 33.7968C33.062 33.7968 33.8304 33.0285 33.8304 31.7837C33.8304 30.5441 33.062 29.7706 31.8224 29.7706C30.5828 29.7706 29.8145 30.539 29.8145 31.7837C29.8145 33.0233 30.5828 33.7968 31.8224 33.7968ZM37.9949 26.897C37.9949 26.9226 38 26.9431 38 26.9687V35.7997C38 37.0649 36.9755 38.0996 35.7103 38.0996H4.2897C3.02447 38.0996 2 37.07 2 35.7997V26.9687C2 26.9226 2.01024 26.8867 2.01024 26.8406C2.01024 26.8099 2.00512 26.7843 2.00512 26.7536L5.00171 4.29711C4.99658 3.13433 6.02106 2.09961 7.28628 2.09961L32.7086 2.13034C33.9072 2.13034 34.9112 3.04212 35.152 4.35345L37.9385 26.4821C37.959 26.564 37.9641 26.6511 37.9693 26.7331L37.9846 26.8765C37.9949 26.8816 37.9949 26.8919 37.9949 26.897Z" fill="#86888C"/>
</svg>
