<svg width="20" height="20" viewBox="0 0 20 20" fill="none" xmlns="http://www.w3.org/2000/svg">
<path fill-rule="evenodd" clip-rule="evenodd" d="M10.3348 2.00683C11.9012 2.04326 18.0003 2.66251 18.0003 10.0207C18.0003 17.3925 11.8943 17.9662 10.3667 17.9958C10.1481 17.9981 9.8795 18.0026 9.63362 17.9981C8.0263 17.9753 2 17.3947 2 9.97512C2 2.56461 7.97166 2.01594 9.57671 2C9.82714 2 10.1026 2.00228 10.3348 2.00683ZM13.1078 5.8225H11.3525C11.1681 5.8225 11.0201 5.97276 11.0201 6.15489V8.95973H8.97567V6.15489C8.97567 5.97049 8.82541 5.8225 8.64328 5.8225H6.88798C6.70357 5.8225 6.55559 5.97276 6.55559 6.15489V13.85C6.55559 14.0344 6.70584 14.1824 6.88798 14.1824H8.64328C8.82769 14.1824 8.97567 14.0321 8.97567 13.85V10.9427H11.0201V13.85C11.0201 14.0344 11.1704 14.1824 11.3525 14.1824H13.1078C13.2922 14.1824 13.4402 14.0321 13.4402 13.85V6.15489C13.4402 5.97049 13.2922 5.8225 13.1078 5.8225Z" fill="#86888C"/>
</svg>
