<svg width="24" height="24" viewBox="0 0 24 24" fill="none" xmlns="http://www.w3.org/2000/svg">
<path fill-rule="evenodd" clip-rule="evenodd" d="M18.3914 15.5738H18.376C16.7715 15.5676 14.0758 13.6066 12.8094 12.5C14.0789 11.3904 16.7808 9.42316 18.3883 9.42316H18.3945C19.332 9.42623 20.0543 9.69057 20.54 10.2131C21.0256 10.7357 21.2685 11.5072 21.2685 12.5061C21.2592 14.5164 20.2664 15.5738 18.3914 15.5738ZM5.22645 15.5738H5.21108C3.33608 15.5738 2.34326 14.5133 2.33711 12.5092C2.33403 11.5072 2.57994 10.7357 3.06559 10.2162C3.55125 9.69365 4.27051 9.4293 5.21108 9.42623H5.21723C6.82789 9.42623 9.52973 11.3934 10.7961 12.5031C9.52973 13.6066 6.83403 15.5676 5.22645 15.5738ZM21.4867 9.21107C20.7521 8.42418 19.6824 8.00615 18.3945 8H18.3853C16.1537 8 13.0185 10.4713 11.8012 11.5533C10.584 10.4713 7.45186 8 5.21416 8H5.20494C3.91703 8.00307 2.84735 8.42418 2.11272 9.21107C1.38117 9.99795 0.996945 11.1383 1.00002 12.5123C1.00924 15.3217 2.58301 17 5.21108 17H5.22953C7.46108 16.9939 10.584 14.5287 11.8012 13.4467C13.0185 14.5256 16.1414 16.9939 18.373 17H18.3914C21.0226 17 22.5963 15.3248 22.6025 12.5123C22.6056 11.1383 22.2213 9.99795 21.4867 9.21107Z" fill="#86888C"/>
</svg>
