<svg width="28" height="28" viewBox="0 0 28 28" fill="none" xmlns="http://www.w3.org/2000/svg">
<path fill-rule="evenodd" clip-rule="evenodd" d="M21.3238 18.4153H21.3067C19.5239 18.4085 16.5287 16.2295 15.1216 15C16.5321 13.7671 19.5342 11.5813 21.3204 11.5813H21.3272C22.3689 11.5847 23.1715 11.8784 23.7111 12.459C24.2507 13.0396 24.5205 13.8969 24.5205 15.0068C24.5103 17.2404 23.4071 18.4153 21.3238 18.4153ZM6.69606 18.4153H6.67898C4.59565 18.4153 3.49251 17.237 3.48568 15.0102C3.48226 13.8969 3.75548 13.0396 4.2951 12.4624C4.83472 11.8818 5.6339 11.5881 6.67898 11.5847H6.68581C8.47543 11.5847 11.4775 13.7705 12.8846 15.0034C11.4775 16.2295 8.48226 18.4085 6.69606 18.4153ZM24.763 11.3456C23.9467 10.4713 22.7582 10.0068 21.3272 10H21.317C18.8375 10 15.3538 12.7459 14.0014 13.9481C12.6489 12.7459 9.16874 10 6.6824 10H6.67215C5.24114 10.0034 4.05262 10.4713 3.23636 11.3456C2.42352 12.2199 1.99661 13.487 2.00002 15.0137C2.01027 18.1352 3.7589 20 6.67898 20H6.69947C9.17898 19.9932 12.6489 17.2541 14.0014 16.0519C15.3538 17.2507 18.8238 19.9932 21.3033 20H21.3238C24.2473 20 25.9959 18.1387 26.0028 15.0137C26.0062 13.487 25.5793 12.2199 24.763 11.3456Z" fill="#86888C"/>
</svg>
