<svg width="28" height="28" viewBox="0 0 28 28" fill="none" xmlns="http://www.w3.org/2000/svg">
<path d="M2.68259 25.9898C2.30717 25.9898 2 25.686 2 25.3072C2 25.1263 2.07167 24.9522 2.20137 24.8225L7.84642 19.1775C8.11263 18.9113 8.54607 18.9113 8.81229 19.1775C9.0785 19.4437 9.0785 19.8771 8.81229 20.1433L3.16382 25.7884C3.03754 25.9181 2.86348 25.9898 2.68259 25.9898ZM8.81911 25.9932C8.44369 25.9932 8.13652 25.6894 8.13652 25.3106C8.13652 25.1331 8.20478 24.959 8.33106 24.8328L11.1263 21.9693C11.3823 21.6928 11.8123 21.6724 12.0921 21.9283C12.3686 22.1843 12.3891 22.6143 12.1331 22.8942C12.1229 22.9044 12.116 22.9147 12.1058 22.9215L9.31058 25.7884C9.18089 25.9215 9.00341 25.9932 8.81911 25.9932ZM2.74403 19.9181C2.3686 19.9181 2.06143 19.6143 2.06143 19.2355C2.06143 19.058 2.12969 18.884 2.25597 18.7577L5.05119 15.8942C5.31399 15.6246 5.74744 15.6212 6.01706 15.884C6.28669 16.1468 6.2901 16.5802 6.0273 16.8498L3.23208 19.7133C3.1058 19.8464 2.92833 19.9181 2.74403 19.9181ZM24.2969 2H15.0546C14.1126 2 13.3481 2.76451 13.3481 3.70648C13.3481 4.16041 13.529 4.59386 13.8464 4.91468L14.6962 5.7645L7.11604 13.3447C6.45051 14.0102 6.45051 15.0921 7.11604 15.7577L12.2287 20.8737C12.8942 21.5392 13.9761 21.5392 14.6416 20.8737L22.2218 13.2901L23.0853 14.157C23.4027 14.4778 23.8362 14.6587 24.2901 14.6587C25.2321 14.6587 25.9966 13.8942 26 12.9522V3.70648C26 2.76451 25.2389 2 24.2969 2Z" fill="#86888C"/>
</svg>
