<svg width="20" height="20" viewBox="0 0 20 20" fill="none" xmlns="http://www.w3.org/2000/svg">
<path d="M15.5707 10.3362C15.5593 9.44811 15.3004 8.75987 14.7984 8.29195C14.3191 7.84221 13.6354 7.61279 12.7723 7.61279H6.77797C5.91255 7.61279 5.23112 7.84221 4.75412 8.29195C4.2544 8.76441 4 9.45266 4 10.3408V10.3453C4 10.3453 4.00227 10.4453 4.00227 10.6951L4 15.2721C4 16.1602 4.2544 16.8507 4.75412 17.3209C5.23112 17.7707 5.91255 18.0001 6.77797 18.0001H12.7723C13.6377 18.0001 14.3191 17.7729 14.7984 17.3232C15.2981 16.853 15.5593 16.1648 15.5707 15.2789V10.3408V10.3362ZM10.7984 14.5838C10.5508 14.8223 10.2124 14.9427 9.78989 14.9427C9.36741 14.9427 9.02896 14.8223 8.78137 14.5838C8.5247 14.3362 8.39523 13.9864 8.39523 13.5458C8.39523 13.1051 8.5247 12.7553 8.78137 12.5077C9.02896 12.2692 9.36741 12.1489 9.78989 12.1489C10.2124 12.1489 10.5508 12.2692 10.7984 12.5077C11.0574 12.7553 11.1846 13.1051 11.1846 13.5458C11.1846 13.9864 11.0574 14.3362 10.7984 14.5838Z" fill="#86888C"/>
<path d="M6.2739 8.55082C6.01495 8.55082 5.80371 8.33958 5.80371 8.08064V5.6661C5.80371 3.64452 7.55499 2 9.70831 2H9.86277C12.0161 2 13.7674 3.64452 13.7674 5.6661V8.06247C13.7674 8.32141 13.5561 8.53265 13.2972 8.53265C13.0382 8.53265 12.827 8.32141 12.827 8.06247V5.6661C12.827 4.16468 11.4982 2.94037 9.86277 2.94037H9.70831C8.07288 2.94037 6.74409 4.16241 6.74409 5.6661V8.08064C6.74409 8.34185 6.53284 8.55082 6.2739 8.55082Z" fill="#86888C"/>
</svg>
