<svg width="40" height="40" viewBox="0 0 40 40" fill="none" xmlns="http://www.w3.org/2000/svg">
<path fill-rule="evenodd" clip-rule="evenodd" d="M38.6751 31.4443C38.7222 31.847 38.7954 33.1023 37.9429 34.1275C37.4826 34.6819 36.583 35.3461 34.925 35.3775C33.9574 35.3932 30.3223 35.3984 25.9079 35.3984C17.3824 35.3984 5.9489 35.3775 5.22712 35.3775C5.11205 35.3827 3.99276 35.3723 3.07745 34.4831C2.36612 33.7875 2 32.7937 2 31.5228V13.8442L16.9849 23.2902C17.0634 23.3477 18.3291 24.2421 20.0813 24.2421C20.96 24.2421 21.9642 24.0172 22.9998 23.3373L38.7013 13.771L38.6751 31.4443ZM21.7968 21.4544C19.9924 22.6312 18.3762 21.5276 18.2559 21.4439L2.31905 11.3964C2.4655 11.0198 2.67471 10.638 2.98853 10.3085C3.55341 9.71226 4.3275 9.39844 5.23235 9.39844L35.5212 9.40367C36.2064 9.4089 37.65 9.78025 38.3299 11.386L21.7968 21.4544Z" fill="#86888C"/>
</svg>
