<svg width="20" height="20" viewBox="0 0 20 20" fill="none" xmlns="http://www.w3.org/2000/svg">
<path fill-rule="evenodd" clip-rule="evenodd" d="M12.352 11.6596C12.739 11.6596 13.0805 11.9693 13.0805 12.3221V13.465C13.0805 13.8247 12.7482 14.1275 12.352 14.1275H11.2433L11.2456 15.2248C11.2456 15.6141 10.9382 15.9419 10.5763 15.9419H9.42203C9.05777 15.9419 8.75271 15.6141 8.75271 15.2248V14.1252H7.644C7.25242 14.1252 6.92004 13.8224 6.92004 13.4627V12.3244C6.92004 11.9647 7.25242 11.6619 7.644 11.6619H8.75271V10.5646C8.75271 10.173 9.06005 9.84291 9.42203 9.84291H10.5717C10.936 9.84291 11.241 10.173 11.241 10.5646V11.6596H12.352ZM15.2957 17.0097C16.9986 17.0097 16.9986 15.5413 16.9986 15.0586L16.9963 8.95731H3.00199V15.0746C3.00199 15.0973 3.00199 15.1201 2.99972 15.1429C2.99972 15.1429 2.96329 15.9852 3.4687 16.5111C3.77832 16.8344 4.27689 16.9983 4.94166 16.9983H15.0361C15.0771 16.9983 15.1181 17.0006 15.1591 17.0074C15.1705 17.0051 15.2205 17.0097 15.2957 17.0097ZM15.0384 3.73478C18.2302 3.73478 17.9957 6.66022 17.9957 6.66022L17.998 15.0586C17.998 17.7564 16.0128 18 15.2957 18C15.1363 18 15.0407 17.9886 15.0407 17.9886H4.94394C1.80222 17.9886 2.00256 15.0746 2.00256 15.0746V6.64428C2.00256 3.92829 4.16079 3.73478 4.7732 3.73478C4.87564 3.73478 4.93483 3.73933 4.93483 3.73933H5.90239V2.4963C5.90239 2.22311 6.1255 2 6.40325 2C6.67872 2 6.9041 2.22083 6.9041 2.4963V3.73933L13.1056 3.73705V2.4963C13.1056 2.22311 13.3287 2 13.6064 2C13.8819 2 14.1073 2.22083 14.1073 2.4963V3.73705C14.1027 3.73478 15.0384 3.73478 15.0384 3.73478Z" fill="#86888C"/>
</svg>
