<svg width="28" height="28" viewBox="0 0 28 28" fill="none" xmlns="http://www.w3.org/2000/svg">
<path fill-rule="evenodd" clip-rule="evenodd" d="M9.22493 19.8472C13.1413 19.8472 14.9646 18.041 14.9646 14.1622C14.9646 10.2834 13.1413 8.47375 9.22493 8.47375C5.31199 8.47375 3.48869 10.28 3.48869 14.1622C3.48869 18.041 5.31199 19.8472 9.22493 19.8472ZM24.8357 3.16432C25.6176 3.94281 26 5.03542 26 6.50021V21.4998C26 22.9816 25.6176 24.0777 24.8254 24.8562C24.0401 25.6244 22.9373 26 21.4554 26H13.8856C12.4003 26 11.3009 25.6244 10.519 24.8562C9.81562 24.1665 9.43662 23.2241 9.35809 21.9812V21.312C9.3137 21.312 9.26931 21.3154 9.22151 21.3154C4.65984 21.3154 2 19.0346 2 14.1622C2 9.28639 4.65984 7.00555 9.22151 7.00555C9.26248 7.00555 9.30346 7.00896 9.34443 7.00896V6.50021C9.34443 5.05591 9.72685 3.97012 10.5087 3.18481C11.3043 2.38924 12.4072 2 13.8856 2H21.4554C22.9441 2.00341 24.0504 2.38242 24.8357 3.16432ZM17.6722 20.0418C16.8698 20.0418 16.3884 20.5198 16.3884 21.3188C16.3884 21.7081 16.5011 22.0222 16.723 22.2441C16.9484 22.4729 17.2761 22.5924 17.6722 22.5924C18.0683 22.5924 18.3961 22.4729 18.6214 22.2441C18.8434 22.0188 18.956 21.7081 18.956 21.3188C18.956 20.5198 18.478 20.0418 17.6722 20.0418ZM7.00555 10.7102C7.41528 10.7102 7.74648 11.038 7.74648 11.4443V17.1874C7.74648 17.5937 7.41528 17.9249 7.00555 17.9249C6.59582 17.9249 6.26462 17.5971 6.26462 17.1874V11.4477C6.26462 11.0414 6.59923 10.7102 7.00555 10.7102ZM11.2121 10.6931C11.6219 10.6931 11.9531 11.0243 11.9531 11.4272V17.1703C11.9531 17.5766 11.6219 17.9078 11.2121 17.9078C10.8024 17.9078 10.4712 17.58 10.4712 17.1703V11.4272C10.4712 11.0209 10.8024 10.6931 11.2121 10.6931Z" fill="#86888C"/>
</svg>
