<svg width="28" height="28" viewBox="0 0 28 28" fill="none" xmlns="http://www.w3.org/2000/svg">
<path d="M22.0429 2H13.2912C11.9434 2 10.9642 2.33115 10.3023 3.01394C9.65057 3.68307 9.33325 4.66287 9.33325 6.01138V11.7809L6.02361 15.0925C5.91102 15.0822 5.79501 15.0754 5.68241 15.0754C4.00371 15.0754 2.53996 16.2122 2.11687 17.8373C1.95992 18.4518 1.95992 19.1004 2.1237 19.7149C2.27041 20.2612 2.82998 20.5855 3.3759 20.4387C3.54991 20.3909 3.70687 20.3021 3.83652 20.1724L4.63493 19.377L5.01366 19.4316L5.06825 19.8105L4.26985 20.6094C3.87064 21.0088 3.87064 21.6575 4.26985 22.0569C4.39609 22.1832 4.55645 22.2754 4.73047 22.3232C6.68895 22.8523 8.70886 21.695 9.23772 19.7354C9.27866 19.5852 9.30937 19.435 9.32984 19.278V21.9886C9.32984 24.689 10.623 26 13.2878 26H22.0395C24.7043 26 25.9975 24.689 25.9975 21.9886V6.01138C26.0009 3.34851 24.6702 2 22.0429 2ZM14.656 11.6683L9.33666 16.9906H9.33325V16.994L8.25506 18.0728C8.6372 19.493 7.79444 20.9542 6.37505 21.3331C5.92467 21.4526 5.44699 21.456 4.9966 21.3331L6.15668 20.1724L5.92125 18.5235L4.27326 18.2879L3.11318 19.4486C2.73103 18.0285 3.5738 16.5673 4.99319 16.1883C5.44357 16.0654 5.92125 16.0654 6.37164 16.1883L12.7691 9.78378C12.387 8.36358 13.2298 6.90242 14.6491 6.52006C15.0995 6.39715 15.5772 6.39715 16.0276 6.52006L14.8675 7.6808L15.1029 9.32973L16.7509 9.56529L17.911 8.40455C18.2932 9.82475 17.4504 11.2859 16.031 11.6649C15.584 11.7912 15.1064 11.7912 14.656 11.6683ZM18.5491 22.6851C18.3443 22.8933 18.0475 22.9923 17.679 22.9923C17.3105 22.9923 17.0137 22.8933 16.8089 22.6851C16.6213 22.4939 16.5155 22.2071 16.5155 21.8248C16.5155 21.0259 16.9727 20.6572 17.679 20.6572C18.3853 20.6572 18.8425 21.0293 18.8425 21.8248C18.8425 22.2105 18.7367 22.4939 18.5491 22.6851Z" fill="#86888C"/>
</svg>
