<svg width="85" height="28" viewBox="0 0 85 28" fill="none" xmlns="http://www.w3.org/2000/svg">
<path d="M7.11357 3.12154C5.395 3.12154 2.12152 4.02175 0.648455 10.0777C-0.00624005 12.6965 -0.251752 15.4789 0.321106 18.7524C0.812128 21.7804 1.71233 24.3991 2.36703 25.7904C2.61254 26.2814 2.93989 26.7724 3.1854 27.0998C3.92193 28 5.06765 27.9181 5.6405 27.6726C6.21336 27.4271 6.78622 26.7724 6.62255 25.2175C6.54071 24.481 6.21336 23.4171 6.04969 22.8442C5.47683 21.0438 4.7403 18.9161 4.7403 17.3612C4.65846 15.3152 5.47683 14.9879 6.04969 14.9061C6.9499 14.7424 7.68643 15.7244 8.42296 16.952C9.32317 18.425 10.7962 21.1257 11.9419 23.0898C13.0058 24.8902 15.0518 26.8542 18.2434 26.7724C21.5169 26.6087 23.972 25.3812 25.1995 21.453C26.0997 18.5069 26.7544 16.2973 27.8183 14.0058C28.964 11.3871 30.6008 9.99585 31.9101 10.405C33.1377 10.8142 33.465 12.0418 33.465 13.7603C33.465 15.3152 33.3014 17.0338 33.1377 18.3432C33.0559 18.8342 32.974 19.7344 33.0559 20.2255C33.1377 21.2075 33.5469 22.2714 34.6926 22.4351C35.9202 22.5987 36.9022 21.6167 37.2295 20.471C37.3932 19.9799 37.4751 19.3252 37.5569 18.8342C37.8842 16.2973 37.9661 14.5787 37.8842 12.0418C37.7206 9.0138 37.0659 6.23135 36.0838 3.85808C35.1018 1.56665 33.465 0.0935724 31.501 0.0117355C29.2095 -0.151938 26.6726 1.40297 25.2814 4.26726C24.0538 6.96788 22.9899 9.66849 22.4171 11.0597C21.7624 12.4509 20.8622 13.3511 19.4709 13.5148C17.7524 13.6785 16.2793 12.4509 15.2154 10.7324C14.3152 9.17747 12.433 6.31318 11.4509 5.2493C10.387 4.18542 9.32317 3.0397 7.11357 3.12154Z" fill="#86888C"/>
<path d="M45.6587 5.41309H50.4871C52.8603 5.41309 54.4971 5.82227 55.3973 6.80431C56.2157 7.62268 56.6248 8.93207 56.6248 10.487C56.6248 12.2874 56.2157 13.5968 55.2336 14.5788C54.3334 15.479 52.9422 15.97 50.9781 15.97H47.8683V22.1896H45.6587V5.41309ZM50.2416 14.1696C51.7965 14.1696 52.7785 13.9241 53.515 13.3513C54.0879 12.7784 54.4152 11.8782 54.4152 10.5688C54.4152 9.4231 54.1697 8.60472 53.5969 8.03186C52.9422 7.37717 51.9601 7.13167 50.3234 7.13167H47.8683V14.1696H50.2416Z" fill="#86888C"/>
<path d="M60.5528 4.67627H58.5068V22.1894H60.5528V4.67627Z" fill="#86888C"/>
<path d="M63.5812 21.371C63.0083 20.7982 62.5991 19.898 62.5991 18.7523C62.5991 17.6065 63.0083 16.7063 63.663 16.1335C64.5632 15.3151 65.9544 14.9878 67.7548 14.9878H70.2918V14.2512C70.2918 13.2692 70.1281 12.6963 69.7189 12.2053C69.2279 11.7143 68.4095 11.4688 67.182 11.4688C66.2818 11.4688 65.1361 11.5506 63.9085 11.7961L63.8267 10.2412C64.9724 9.99571 66.3636 9.83203 67.5093 9.83203C69.3097 9.83203 70.5373 10.2412 71.2738 10.8959C72.0104 11.6324 72.3377 12.6145 72.3377 14.1694V22.1894H70.701L70.6191 21.371C69.5552 22.0257 68.3277 22.5168 66.8546 22.5168C65.3816 22.5168 64.3177 22.1076 63.5812 21.371ZM70.2099 20.0616V16.4608H68.0003C66.7728 16.4608 65.8726 16.6245 65.2997 17.0337C64.8905 17.361 64.645 17.8521 64.645 18.5886C64.645 20.0617 65.5452 20.7163 67.1002 20.7163C68.164 20.88 69.3097 20.5527 70.2099 20.0616Z" fill="#86888C"/>
<path d="M77.3296 27.7541L77.1659 26.1992C77.7388 26.281 78.8845 26.3629 79.4574 26.3629C80.5213 26.3629 81.4215 26.1992 81.9943 25.7082C82.4853 25.2172 82.7308 24.4806 82.7308 23.0894V21.4527C81.5033 22.1074 80.1939 22.5165 78.8845 22.5165C77.5751 22.5165 76.5931 22.1892 75.8566 21.4527C75.2019 20.798 74.8745 19.8159 74.8745 18.3429V10.1592H76.9204V18.0974C76.9204 19.1612 77.0841 19.7341 77.4933 20.1433C77.9025 20.5525 78.5572 20.7161 79.4574 20.7161C80.5213 20.7161 81.7488 20.3888 82.7308 19.8978V10.1592H84.7768V23.0894C84.7768 24.7261 84.4494 25.8719 83.7129 26.6902C82.8945 27.5904 81.667 27.9996 79.7847 27.9996C78.9664 27.9996 77.9025 27.9178 77.3296 27.7541Z" fill="#86888C"/>
</svg>
