<svg width="20" height="20" viewBox="0 0 20 20" fill="none" xmlns="http://www.w3.org/2000/svg">
<path d="M13.622 15C13.5468 15 13.4692 14.9882 13.3987 14.9671L2.59438 11.7206C2.26056 11.6195 2.02783 11.3022 2.02783 10.9449V8.05338C2.02783 7.6984 2.26056 7.3787 2.59438 7.27996L13.3987 4.0335C13.629 3.96298 13.8806 4.00529 14.0757 4.14634C14.2873 4.29914 14.4119 4.54598 14.4119 4.80692V14.1937C14.4119 14.4546 14.2873 14.7014 14.0757 14.8542C13.9417 14.9483 13.7842 15 13.622 15Z" fill="#86888C"/>
<path d="M2.45841 12.2494C2.20452 12.2494 2 12.0567 2 11.8169V7.19285C2 6.95542 2.20452 6.7603 2.45841 6.7603C2.71229 6.7603 2.91681 6.95307 2.91681 7.19285V11.8169C2.91681 12.0567 2.71229 12.2494 2.45841 12.2494ZM18.0771 9.73877H16.2435C15.9896 9.73877 15.7851 9.53425 15.7851 9.28036C15.7851 9.02648 15.9896 8.82196 16.2435 8.82196H18.0771C18.331 8.82196 18.5356 9.02648 18.5356 9.28036C18.5356 9.53425 18.331 9.73877 18.0771 9.73877ZM7.9969 14.5932C7.92873 14.5932 7.8582 14.5838 7.79003 14.5603L5.88588 13.9632C5.52385 13.8503 5.32169 13.4624 5.43452 13.1004L5.63199 12.4728C5.74483 12.1107 6.13271 11.9086 6.49474 12.0214L8.39889 12.6185C8.5752 12.6726 8.7186 12.7925 8.80323 12.957C8.88785 13.1192 8.90431 13.3073 8.85024 13.4812L8.65277 14.1089C8.59871 14.2852 8.47882 14.4286 8.31426 14.5133C8.21553 14.5673 8.10739 14.5932 7.9969 14.5932ZM6.37955 13.1592L7.84645 13.6199L7.90522 13.4319L6.43832 12.9711L6.37955 13.1592ZM17.4777 14.431C17.3602 14.431 17.2426 14.3863 17.1533 14.297L15.8885 13.0322C15.7099 12.8536 15.7099 12.5621 15.8885 12.3834C16.0672 12.2048 16.3587 12.2048 16.5374 12.3834L17.8021 13.6482C17.9808 13.8268 17.9808 14.1183 17.8021 14.297C17.7128 14.3863 17.5952 14.431 17.4777 14.431ZM16.1871 6.29014C16.0696 6.29014 15.952 6.24547 15.8627 6.15614C15.684 5.97748 15.684 5.68598 15.8627 5.50732L17.1603 4.20968C17.339 4.03102 17.6305 4.03102 17.8092 4.20968C17.9878 4.38834 17.9878 4.67984 17.8092 4.8585L16.5115 6.15614C16.4222 6.24547 16.3046 6.29014 16.1871 6.29014Z" fill="#86888C"/>
</svg>
