<svg width="40" height="40" viewBox="0 0 40 40" fill="none" xmlns="http://www.w3.org/2000/svg">
<path d="M27.3579 32C27.1938 32 27.0245 31.9744 26.8706 31.9282L3.29762 24.845C2.5693 24.6245 2.06152 23.932 2.06152 23.1524V16.8437C2.06152 16.0692 2.5693 15.3717 3.29762 15.1563L26.8706 8.07309C27.3733 7.91922 27.9221 8.01155 28.3478 8.31929C28.8094 8.65267 29.0812 9.19122 29.0812 9.76054V30.2407C29.0812 30.8101 28.8094 31.3486 28.3478 31.682C28.0554 31.8872 27.7118 32 27.3579 32Z" fill="#86888C"/>
<path d="M3.00016 25.9987C2.44623 25.9987 2 25.5781 2 25.0549V14.9661C2 14.4481 2.44623 14.0224 3.00016 14.0224C3.55409 14.0224 4.00032 14.443 4.00032 14.9661V25.0549C4.00032 25.5781 3.55409 25.9987 3.00016 25.9987ZM37.0774 20.5209H33.0768C32.5228 20.5209 32.0766 20.0746 32.0766 19.5207C32.0766 18.9668 32.5228 18.5205 33.0768 18.5205H37.0774C37.6313 18.5205 38.0776 18.9668 38.0776 19.5207C38.0776 20.0746 37.6313 20.5209 37.0774 20.5209ZM15.0841 31.1123C14.9354 31.1123 14.7815 31.0918 14.6328 31.0405L10.4783 29.7377C9.68841 29.4915 9.24731 28.6452 9.49351 27.8554L9.92435 26.4859C10.1705 25.6961 11.0168 25.255 11.8067 25.5011L15.9612 26.8039C16.3459 26.9219 16.6588 27.1835 16.8434 27.5425C17.028 27.8964 17.0639 28.3067 16.946 28.6863L16.5151 30.0557C16.3972 30.4404 16.1356 30.7533 15.7766 30.9379C15.5611 31.0559 15.3252 31.1123 15.0841 31.1123ZM11.5554 27.9836L14.7559 28.9889L14.8841 28.5786L11.6836 27.5733L11.5554 27.9836ZM35.7695 30.7584C35.5131 30.7584 35.2566 30.6609 35.0617 30.466L32.3023 27.7066C31.9125 27.3168 31.9125 26.6808 32.3023 26.291C32.6921 25.9012 33.3281 25.9012 33.7179 26.291L36.4773 29.0504C36.8671 29.4402 36.8671 30.0762 36.4773 30.466C36.2824 30.6609 36.026 30.7584 35.7695 30.7584ZM32.9537 12.9966C32.6972 12.9966 32.4408 12.8991 32.2459 12.7042C31.8561 12.3144 31.8561 11.6784 32.2459 11.2886L35.0771 8.45739C35.4669 8.06759 36.1029 8.06759 36.4927 8.45739C36.8825 8.8472 36.8825 9.4832 36.4927 9.87301L33.6615 12.7042C33.4666 12.8991 33.2101 12.9966 32.9537 12.9966Z" fill="#86888C"/>
</svg>
