<svg width="20" height="20" viewBox="0 0 20 20" fill="none" xmlns="http://www.w3.org/2000/svg">
<path fill-rule="evenodd" clip-rule="evenodd" d="M17.2215 13.543C17.1123 13.4429 16.9506 13.4247 16.8209 13.4975C15.6577 14.1576 14.4057 14.2783 13.757 14.2942C13.5954 14.301 13.3928 14.301 13.2107 14.301C11.9064 14.2828 7.65429 13.8003 7.65429 8.47375C7.65429 4.54489 9.92374 3.23602 11.8267 2.82857C12.0111 2.78987 12.1272 2.60777 12.0885 2.42339C12.0589 2.28909 11.9519 2.18438 11.8176 2.15934C11.162 2.0387 10.6248 2.01366 10.3585 2.00683L9.6301 2C7.84094 2.02504 2 2.66695 2 9.97838C2 11.2963 2.37103 17.8794 9.68474 18C9.92602 18 10.1855 18 10.3949 17.9932C11.5832 17.975 15.5917 17.6221 17.2989 13.9368C17.3626 13.8025 17.3308 13.6432 17.2215 13.543Z" fill="#86888C"/>
</svg>
