<svg width="24" height="24" viewBox="0 0 24 24" fill="none" xmlns="http://www.w3.org/2000/svg">
<path fill-rule="evenodd" clip-rule="evenodd" d="M21.0269 16.4288C20.8903 16.3036 20.6883 16.2808 20.5261 16.3719C19.0721 17.197 17.5072 17.3478 16.6963 17.3678C16.4942 17.3763 16.241 17.3763 16.0134 17.3763C14.383 17.3535 9.06786 16.7503 9.06786 10.0922C9.06786 5.18111 11.9047 3.54503 14.2834 3.03571C14.5139 2.98734 14.659 2.75971 14.6106 2.52924C14.5736 2.36136 14.4399 2.23047 14.272 2.19917C13.4526 2.04837 12.781 2.01707 12.4481 2.00854L11.5376 2C9.30118 2.0313 2 2.83369 2 11.973C2 13.6204 2.46379 21.8492 11.6059 22C11.9075 22 12.2319 22 12.4937 21.9915C13.9789 21.9687 18.9896 21.5277 21.1236 16.921C21.2033 16.7532 21.1635 16.554 21.0269 16.4288Z" fill="#86888C"/>
</svg>
