<svg width="24" height="24" viewBox="0 0 24 24" fill="none" xmlns="http://www.w3.org/2000/svg">
<path fill-rule="evenodd" clip-rule="evenodd" d="M17.2954 7.74844L13.1577 3.679V5.4889C13.1577 6.15196 13.3739 6.72681 13.7866 7.12806C14.1964 7.52931 14.7854 7.75128 15.4769 7.75128H17.2954V7.74844ZM18.7353 7.46386C18.9032 7.62607 19 7.85657 19 8.09277V20.5999C19 21.3625 18.3569 22 17.5914 22H5.40011C4.65168 22 4 21.3426 4 20.5999V3.40011C4 2.6716 4.66875 2 5.40011 2H12.8247C13.0581 2 13.2743 2.08822 13.4365 2.25327L18.7353 7.46386ZM15.4172 13.4826C15.2635 13.6306 13.5731 15.1616 10.8924 17.5777L8.87194 18.2806L9.53216 16.2829C9.92772 15.93 13.8492 12.4069 14.1053 12.148C14.3472 11.9032 14.6033 11.852 14.7911 11.8691C15.0245 11.8776 15.2493 11.9829 15.42 12.1565C15.5965 12.3273 15.7018 12.5919 15.7018 12.8367C15.7018 13.0814 15.6022 13.2948 15.4172 13.4826ZM16.2709 11.28C15.531 10.5259 14.202 10.321 13.2516 11.28C13.226 11.3028 13.1633 11.3597 13.0666 11.4593H7.00512C6.67501 11.4593 6.40182 11.7382 6.40182 12.074C6.40182 12.4183 6.67501 12.6887 7.00512 12.6887H11.7149C11.3449 13.0159 10.9408 13.3859 10.5083 13.7701H7.00512C6.67501 13.7701 6.40182 14.0404 6.40182 14.3847C6.40182 14.7205 6.67501 14.9994 7.00512 14.9994H9.13944L8.70404 15.3921C8.56744 15.5145 8.46215 15.6796 8.3967 15.8589L8.32555 16.0723H7.00512C6.67501 16.0723 6.40182 16.3426 6.40182 16.687C6.40182 17.0228 6.67501 17.3017 7.00512 17.3017H7.9243L7.63404 18.1952C7.61127 18.2521 7.60273 18.3176 7.59419 18.3745H7.00512C6.67501 18.3745 6.40182 18.6534 6.40182 18.9892C6.40182 19.325 6.67501 19.6039 7.00512 19.6039H8.49345C8.51053 19.6039 8.52476 19.6039 8.54183 19.5953C8.5646 19.6039 8.59875 19.6039 8.63005 19.6039C8.73534 19.6039 8.84633 19.5868 8.96016 19.5555L11.2567 18.7786C11.3933 18.7388 11.5157 18.6648 11.6266 18.5652L11.6978 18.4997C13.6614 16.7297 16.0461 14.5754 16.2624 14.3648C16.6807 13.9493 16.9084 13.4229 16.9084 12.8423C16.9084 12.2703 16.675 11.6898 16.2709 11.28Z" fill="#86888C"/>
</svg>
