<svg width="41" height="40" viewBox="0 0 41 40" fill="none" xmlns="http://www.w3.org/2000/svg">
<path fill-rule="evenodd" clip-rule="evenodd" d="M4.43655 18.9366C4.43655 24.275 6.94228 26.7597 12.3124 26.7597C17.6826 26.7597 20.1883 24.275 20.1883 18.9366C20.1883 13.5982 17.6826 11.1135 12.3124 11.1135C6.94228 11.1135 4.43655 13.5982 4.43655 18.9366ZM37.8206 30.7353C38.1896 31.0273 38.3228 31.514 38.1588 31.9546C38.0102 32.3952 37.6003 32.6924 37.1237 32.6924H27.562C27.5005 33.6965 27.2238 35.1771 26.1734 36.3401C25.1946 37.4416 23.7752 38 21.9715 38C20.1627 38 18.7433 37.4416 17.7646 36.3401C16.7141 35.1771 16.4476 33.6914 16.3913 32.6924H6.82955C6.35812 32.6924 5.94306 32.4004 5.78934 31.9546C5.63049 31.514 5.76372 31.0273 6.13266 30.7353C6.88591 30.1154 7.51106 29.3111 8.02861 28.353C4.31357 27.1337 2.22803 24.0598 2.22803 18.9417C2.22803 12.8554 5.18981 9.66363 10.355 9.04372C13.1118 1.80465 21.1926 1.96859 21.9766 2.0147C22.6428 1.96859 27.4698 1.84051 30.9747 5.08861C33.3113 7.2506 34.5002 10.3706 34.5002 14.3821V21.3394C34.4745 21.4675 34.1517 27.7485 37.8206 30.7353ZM15.4177 23.404C15.1359 23.404 14.8489 23.2964 14.6337 23.0813L11.5284 19.9971C11.3183 19.7922 11.2005 19.5104 11.2005 19.2184V15.043C11.2005 14.4333 11.6975 13.9415 12.3124 13.9415C12.9273 13.9415 13.4244 14.4333 13.4244 15.043V18.7624L16.2068 21.5238C16.6424 21.9542 16.6424 22.6509 16.2068 23.0813C15.9865 23.2964 15.7046 23.404 15.4177 23.404Z" fill="#86888C"/>
</svg>
