<svg width="41" height="40" viewBox="0 0 41 40" fill="none" xmlns="http://www.w3.org/2000/svg">
<path fill-rule="evenodd" clip-rule="evenodd" d="M19.9114 35.7926C21.0929 35.7926 21.9478 35.4905 22.523 34.8759C23.1241 34.2306 23.3158 33.3446 23.3728 32.6992H16.4553C16.5071 33.3394 16.6936 34.2306 17.2947 34.8759C17.8699 35.4956 18.7248 35.7926 19.9114 35.7926ZM5.30426 2.36973L36.3218 36.105C36.7312 36.5455 36.7001 37.2318 36.2545 37.6364L36.2286 37.662C35.757 38.0666 35.042 38.0256 34.6223 37.5698L30.1453 32.7044H25.6631C25.5958 33.6979 25.3056 35.1832 24.2381 36.3406C23.2225 37.4418 21.7665 38 19.9166 38C18.0616 38 16.6055 37.4418 15.5899 36.3406C14.5225 35.1832 14.2375 33.6979 14.1753 32.7044H4.36638C3.88966 32.7095 3.45958 32.4124 3.29377 31.972C3.13313 31.5315 3.27304 31.0399 3.64612 30.7531C7.43912 27.7519 7.08158 21.5088 7.0764 21.4422L7.07122 14.4309C7.07122 13.7804 7.11267 13.1607 7.18003 12.5615C7.20076 12.3976 7.22149 12.2389 7.24221 12.0801C7.26294 11.9264 7.2733 11.7677 7.29921 11.614L7.32512 11.6448C7.48057 10.6563 7.75002 9.68835 8.12828 8.76136L3.60467 3.82936C3.19531 3.38891 3.2264 2.70263 3.67203 2.29803L3.69794 2.27242C4.17465 1.87295 4.88454 1.91904 5.30426 2.36973ZM36.1871 30.7428C36.5602 31.0348 36.7001 31.5264 36.5395 31.9669C36.4877 32.1 36.4048 32.2229 36.3063 32.3254L11.0404 4.84854C14.5795 1.93953 19.2223 2.03683 19.9166 2.07269C20.6317 2.03683 25.5647 1.92416 29.14 5.14046C31.5391 7.29661 32.7568 10.4207 32.7568 14.4257V21.3654C32.7517 21.4985 32.4097 27.7621 36.1871 30.7428Z" fill="#86888C"/>
</svg>
