<svg width="28" height="28" viewBox="0 0 28 28" fill="none" xmlns="http://www.w3.org/2000/svg">
<path fill-rule="evenodd" clip-rule="evenodd" d="M17.7251 12.7507L17.0797 13.3961L17.7251 12.7507L18.1554 12.3205L19.9448 10.5345L18.1554 12.3205L19.9448 10.5345L18.9306 9.47925L16.1098 12.3C15.3552 11.7228 14.2692 11.3233 12.7018 11.2857C12.5071 11.2823 11.9471 11.2789 11.9471 11.2789C6.98862 11.3233 6.98862 15.3495 6.98862 16.6711C6.98862 18.0029 6.98862 22.053 12.0324 22.1247L12.2647 22.1281L12.7701 22.1247C17.831 22.0359 17.831 18.0404 17.831 16.7291C17.831 16.0393 17.8241 14.6187 17.0899 13.3996L17.7251 12.7507ZM19.9448 10.5345C21.041 11.9243 21.8162 13.8947 21.8162 16.7257C21.8162 25.3996 14.6346 26.0757 12.8384 26.1065C12.6676 26.1099 12.4764 26.1133 12.2817 26.1133C12.1793 26.1133 12.0768 26.1133 11.9778 26.1099C10.0894 26.0825 3 25.3996 3 16.6676C3 7.94937 10.0245 7.30395 11.9129 7.28687H12.1076C12.3466 7.28687 12.5925 7.29029 12.8042 7.29712C13.8697 7.32102 16.7211 7.58738 18.934 9.47925L18.3705 10.0427L18.934 9.47925L20.1224 8.29086V4.44567C20.1224 4.3159 20.1668 4.19979 20.2248 4.09052C20.2282 4.08369 20.2316 4.08027 20.2351 4.07344C20.2795 4.00173 20.3273 3.94026 20.3921 3.88562C20.399 3.87879 20.4024 3.86855 20.4126 3.86172L22.325 2.33525C22.3421 2.32159 22.366 2.31818 22.3865 2.30452C22.5162 2.18841 22.6836 2.11328 22.8748 2.11328C23.2777 2.11328 23.609 2.44111 23.609 2.84749V4.85204C23.889 4.67788 24.2578 4.70178 24.5037 4.94424C24.7086 5.14914 24.7598 5.44282 24.671 5.69894L26.2726 5.71601C26.6756 5.71943 27 6.05067 26.9966 6.45705C26.9966 6.50827 26.9761 6.54925 26.9659 6.59706C26.9624 6.62097 26.9556 6.64828 26.9488 6.67219C26.9351 6.71658 26.918 6.75756 26.8941 6.79854C26.8771 6.83269 26.8702 6.87025 26.8497 6.90099L25.4633 8.90896C25.4565 8.9192 25.4462 8.9192 25.4394 8.92945C25.3062 9.11727 25.0979 9.25045 24.852 9.25045H21.2288L19.9448 10.5345L18.1554 12.3205L19.9448 10.5345ZM24.2749 7.96985L25.0911 6.96246L23.5339 6.94538L22.5094 7.96985H24.2749ZM22.3216 6.08141V4.17247L21.403 4.97839V7.00002L22.3216 6.08141ZM11.6602 14.687C11.2573 14.7211 10.9602 15.0763 10.9943 15.4792L11.1787 17.5931C11.1855 17.6648 11.2026 17.7331 11.2265 17.798L11.2368 17.8185C11.2675 17.8902 11.3119 17.9516 11.3597 18.0097C11.3768 18.0302 11.3939 18.0438 11.4143 18.0609C11.4622 18.1053 11.5134 18.1395 11.5714 18.1702C11.5919 18.1804 11.609 18.1941 11.6295 18.2009C11.6397 18.2043 11.6466 18.2112 11.6568 18.2146C11.7183 18.2385 11.7832 18.2419 11.848 18.2487C11.8651 18.2487 11.8788 18.259 11.8958 18.259L14.2624 18.3H14.276C14.6756 18.3 15.0034 17.979 15.0102 17.5794C15.0171 17.1765 14.6961 16.8418 14.2897 16.835L13.6477 16.8247L16.0006 14.4718C16.2703 15.0934 16.3557 15.8549 16.3557 16.7257C16.3557 19.0444 15.741 20.6016 12.7462 20.6563L12.2681 20.6597L12.0427 20.6563C9.05464 20.6153 8.44337 19.0308 8.44337 16.6676C8.44337 14.3318 9.03756 12.7678 11.9402 12.7405C12.0154 12.7405 12.4832 12.7439 12.6574 12.7473C13.7297 12.7712 14.498 12.9829 15.0546 13.3449L12.5003 15.8993L12.4525 15.3529C12.4217 14.9499 12.0871 14.6631 11.6602 14.687Z" fill="#86888C"/>
</svg>
