<svg width="20" height="20" viewBox="0 0 20 20" fill="none" xmlns="http://www.w3.org/2000/svg">
<path fill-rule="evenodd" clip-rule="evenodd" d="M4.9391 9.30915L15.0768 9.30687L10.6944 4.93641C10.4849 5.04112 10.2504 5.10713 10 5.10713C9.74957 5.10713 9.51736 5.04112 9.30791 4.93641L4.9391 9.30915ZM14.6557 14.7358V12.3093C14.6557 12.1272 14.51 11.9838 14.3301 11.9838H14.2322C14.0524 11.9838 13.9067 12.1295 13.9067 12.3093V13.4406L13.0393 12.1272C12.9778 12.0384 12.8776 11.9815 12.7684 11.9815H12.691C12.5111 11.9815 12.3654 12.1272 12.3654 12.307V14.7335C12.3654 14.9134 12.5111 15.059 12.691 15.059H12.7911C12.971 15.059 13.1167 14.9134 13.1167 14.7335V13.6022L13.9818 14.9134C14.041 15.0044 14.1434 15.059 14.2527 15.059H14.3347C14.51 15.0613 14.6557 14.9156 14.6557 14.7358ZM11.9419 14.7358V14.6402C11.9419 14.4604 11.7962 14.3147 11.6164 14.3147H10.8515V13.8777H11.3887C11.5686 13.8777 11.7143 13.732 11.7143 13.5521V13.4565C11.7143 13.2767 11.5686 13.131 11.3887 13.131H10.8515V12.7327H11.5595C11.712 12.7327 11.8441 12.6257 11.8782 12.4777L11.8987 12.3821C11.9192 12.2865 11.8964 12.1841 11.8349 12.1067C11.7735 12.0316 11.6801 11.9861 11.58 11.9861H10.4212C10.2413 11.9861 10.0956 12.1317 10.0956 12.3116V14.7381C10.0956 14.9179 10.2413 15.0636 10.4212 15.0636H11.6164C11.7962 15.0613 11.9419 14.9156 11.9419 14.7358ZM9.44678 13.8048C9.6107 13.6182 9.69266 13.37 9.69266 13.04C9.69266 12.7054 9.60387 12.4436 9.4263 12.2569C9.25327 12.0726 9.00057 11.9838 8.65225 11.9838H7.97837C7.79852 11.9838 7.65282 12.1295 7.65282 12.3093V14.7358C7.65282 14.9156 7.79852 15.0613 7.97837 15.0613H8.08537C8.26522 15.0613 8.41093 14.9156 8.41093 14.7358V14.0962H8.72738C9.037 14.0962 9.28059 13.996 9.44678 13.8048ZM6.01594 15.1114C6.46215 15.1114 7.21116 14.9065 7.21116 13.5271C7.21116 12.1431 6.46215 11.9383 6.01594 11.9383C5.56744 11.9383 4.81844 12.1454 4.81844 13.5271C4.81844 14.9043 5.56744 15.1114 6.01594 15.1114ZM10 2.9788C9.68355 2.9788 9.42402 3.2383 9.42402 3.5547C9.42402 3.87111 9.68128 4.1306 10 4.1306C10.3187 4.1306 10.576 3.87111 10.576 3.5547C10.576 3.2383 10.3187 2.9788 10 2.9788ZM17.9841 11.3419L18 16.0652C18 16.5819 17.7997 17.0667 17.4354 17.4309C17.0711 17.7951 16.5885 17.9954 16.0717 17.9977L3.92373 18C3.34775 17.9954 2.84234 17.7906 2.49858 17.4241C2.15253 17.0531 1.98406 16.55 2.01594 15.9673L2 11.244C2 10.7273 2.20034 10.2424 2.5646 9.87594C2.82869 9.61417 3.15424 9.4389 3.50711 9.3615L8.6181 4.24669C8.51338 4.03727 8.44735 3.80509 8.44735 3.5547C8.44735 2.69654 9.144 2 10 2C10.856 2 11.5526 2.69654 11.5526 3.5547C11.5526 3.80509 11.4889 4.03727 11.3842 4.24669L16.502 9.35012C16.8981 9.42751 17.2442 9.60962 17.5014 9.88277C17.8475 10.2538 18.0159 10.7591 17.9841 11.3419ZM6.01594 12.694C6.16619 12.694 6.44622 12.694 6.44622 13.5248C6.44622 14.3488 6.17758 14.3488 6.01594 14.3488C5.8543 14.3488 5.58338 14.3488 5.58338 13.5248C5.58338 12.694 5.8543 12.694 6.01594 12.694ZM8.63859 12.7304C8.82072 12.7304 8.86397 12.7691 8.86397 12.7691C8.89357 12.8032 8.92544 12.8943 8.92544 13.0468C8.92544 13.2335 8.89812 13.2813 8.87308 13.3086C8.85714 13.3268 8.83893 13.3496 8.68184 13.3496H8.40865V12.7304H8.63859Z" fill="#86888C"/>
</svg>
