<svg width="24" height="24" viewBox="0 0 24 24" fill="none" xmlns="http://www.w3.org/2000/svg">
<path fill-rule="evenodd" clip-rule="evenodd" d="M6.67388 11.1364L19.346 11.1336L13.868 5.67051C13.6061 5.80139 13.313 5.88391 13 5.88391C12.687 5.88391 12.3967 5.80139 12.1349 5.67051L6.67388 11.1364ZM18.8196 17.9198V14.8866C18.8196 14.659 18.6375 14.4797 18.4126 14.4797H18.2903C18.0655 14.4797 17.8833 14.6618 17.8833 14.8866V16.3008L16.7991 14.659C16.7223 14.548 16.597 14.4769 16.4604 14.4769H16.3637C16.1389 14.4769 15.9567 14.659 15.9567 14.8838V17.9169C15.9567 18.1417 16.1389 18.3238 16.3637 18.3238H16.4889C16.7137 18.3238 16.8958 18.1417 16.8958 17.9169V16.5028L17.9772 18.1417C18.0512 18.2555 18.1793 18.3238 18.3159 18.3238H18.4183C18.6375 18.3266 18.8196 18.1445 18.8196 17.9198ZM15.4274 17.9198V17.8003C15.4274 17.5755 15.2453 17.3934 15.0205 17.3934H14.0643V16.8471H14.7359C14.9607 16.8471 15.1429 16.665 15.1429 16.4402V16.3207C15.1429 16.0959 14.9607 15.9138 14.7359 15.9138H14.0643V15.4158H14.9493C15.14 15.4158 15.3051 15.2821 15.3478 15.0972L15.3734 14.9777C15.399 14.8582 15.3705 14.7301 15.2937 14.6334C15.2168 14.5395 15.1002 14.4826 14.975 14.4826H13.5265C13.3017 14.4826 13.1195 14.6647 13.1195 14.8895V17.9226C13.1195 18.1474 13.3017 18.3295 13.5265 18.3295H15.0205C15.2453 18.3266 15.4274 18.1445 15.4274 17.9198ZM12.3085 16.756C12.5134 16.5227 12.6158 16.2125 12.6158 15.8C12.6158 15.3817 12.5048 15.0545 12.2829 14.8212C12.0666 14.5907 11.7507 14.4797 11.3153 14.4797H10.473C10.2482 14.4797 10.066 14.6618 10.066 14.8866V17.9198C10.066 18.1445 10.2482 18.3266 10.473 18.3266H10.6067C10.8315 18.3266 11.0137 18.1445 11.0137 17.9198V17.1202H11.4092C11.7962 17.1202 12.1007 16.995 12.3085 16.756ZM8.01992 18.3892C8.57769 18.3892 9.51394 18.1332 9.51394 16.4089C9.51394 14.6789 8.57769 14.4228 8.01992 14.4228C7.45931 14.4228 6.52305 14.6817 6.52305 16.4089C6.52305 18.1303 7.45931 18.3892 8.01992 18.3892ZM13 3.2235C12.6044 3.2235 12.28 3.54787 12.28 3.94338C12.28 4.33888 12.6016 4.66325 13 4.66325C13.3984 4.66325 13.72 4.33888 13.72 3.94338C13.72 3.54787 13.3984 3.2235 13 3.2235ZM22.9801 13.6773L23 19.5814C23 20.2273 22.7496 20.8334 22.2943 21.2887C21.8389 21.7439 21.2356 21.9943 20.5896 21.9972L5.40467 22C4.68469 21.9943 4.05293 21.7382 3.62322 21.2801C3.19067 20.8163 2.98008 20.1875 3.01992 19.4591L3 13.555C3 12.9091 3.25043 12.303 3.70575 11.8449C4.03586 11.5177 4.4428 11.2986 4.88389 11.2019L11.2726 4.80837C11.1417 4.54659 11.0592 4.25637 11.0592 3.94338C11.0592 2.87068 11.93 2 13 2C14.07 2 14.9408 2.87068 14.9408 3.94338C14.9408 4.25637 14.8611 4.54659 14.7302 4.80837L21.1275 11.1877C21.6227 11.2844 22.0552 11.512 22.3768 11.8535C22.8093 12.3173 23.0199 12.9489 22.9801 13.6773ZM8.01992 15.3675C8.20774 15.3675 8.55777 15.3675 8.55777 16.406C8.55777 17.4361 8.22197 17.4361 8.01992 17.4361C7.81787 17.4361 7.47923 17.4361 7.47923 16.406C7.47923 15.3675 7.81787 15.3675 8.01992 15.3675ZM11.2982 15.413C11.5259 15.413 11.58 15.4614 11.58 15.4614C11.617 15.5041 11.6568 15.6179 11.6568 15.8085C11.6568 16.0418 11.6227 16.1016 11.5913 16.1357C11.5714 16.1585 11.5487 16.1869 11.3523 16.1869H11.0108V15.413H11.2982Z" fill="#86888C"/>
</svg>
