<svg width="20" height="20" viewBox="0 0 20 20" fill="none" xmlns="http://www.w3.org/2000/svg">
<path d="M15.8743 3.97326C14.5155 2.66458 12.5377 2 10 2C7.4623 2 5.48449 2.66458 4.12575 3.97326C2.71465 5.33428 2 7.36216 2 10C2 11.8572 2.35505 13.4117 3.05605 14.643L6.02162 11.6C6.10811 11.5135 6.22418 11.4634 6.34708 11.4634C6.46771 11.4634 6.58606 11.5112 6.67027 11.6L6.82731 11.7593C7.37582 10.6691 7.94481 9.06003 8.09957 6.9229C7.96074 6.86373 7.83329 6.77496 7.72859 6.66572C7.50782 6.43585 7.3963 6.13314 7.3963 5.76444C7.3963 5.39573 7.50782 5.09531 7.72859 4.86316C7.94936 4.63329 8.25206 4.50811 8.59573 4.50811C8.9394 4.50811 9.23983 4.63101 9.46287 4.86316C9.68592 5.09531 9.79516 5.39801 9.79516 5.76444C9.79516 6.13087 9.68364 6.43357 9.46287 6.66572C9.3377 6.79772 9.18065 6.89787 9.00768 6.95477C8.88478 8.68449 8.50697 10.0979 8.07226 11.1926L12.0233 7.29161C11.9573 7.13912 11.9232 6.97525 11.93 6.8091C11.9391 6.49047 12.0757 6.19915 12.3397 5.93969C12.6037 5.68023 12.895 5.54595 13.2137 5.53912C13.5368 5.53001 13.8373 5.65292 14.0808 5.89417C14.3243 6.13542 14.4518 6.43585 14.4427 6.75903C14.4336 7.07767 14.297 7.36899 14.033 7.62845C13.769 7.88791 13.4777 8.01991 13.159 8.02902C12.9906 8.03357 12.8222 8.00171 12.6674 7.93343L8.79374 11.757C9.87482 11.3428 11.2495 10.9832 12.9201 10.8649C12.9792 10.6919 13.0771 10.5349 13.2091 10.4097C13.439 10.1889 13.7417 10.0774 14.1104 10.0774C14.4791 10.0774 14.7818 10.1912 15.0117 10.4119C15.2415 10.6327 15.3667 10.9354 15.3667 11.2791C15.3667 11.6228 15.2438 11.9232 15.0117 12.1485C14.7795 12.3738 14.4791 12.4808 14.1104 12.4808C13.7417 12.4808 13.4413 12.367 13.2091 12.1485C13.0999 12.0438 13.0111 11.9164 12.9519 11.7775C10.808 11.9323 9.19659 12.5058 8.10413 13.0566L8.2862 13.241C8.45918 13.4185 8.46145 13.7007 8.28848 13.8782L5.32518 16.9235C6.5633 17.6381 8.12916 18 10 18C12.5377 18 14.5155 17.3354 15.8743 16.0267C17.2853 14.668 18 12.6401 18 10C18 7.35989 17.2853 5.33428 15.8743 3.97326Z" fill="#86888C"/>
<path d="M13.8465 11.493C13.867 11.5135 13.9307 11.5727 14.1173 11.5727C14.304 11.5727 14.3677 11.5135 14.3882 11.493C14.4246 11.4566 14.4633 11.4042 14.4633 11.2813C14.4633 11.1584 14.4246 11.1061 14.3882 11.0697C14.3677 11.0492 14.304 10.99 14.1173 10.99C13.9307 10.99 13.867 11.0492 13.8465 11.0697C13.8101 11.1061 13.7714 11.1584 13.7714 11.2791V11.2904C13.7737 11.4088 13.8124 11.4589 13.8465 11.493ZM13.1387 7.12087C13.1683 7.12087 13.2593 7.1186 13.3959 6.98204C13.5324 6.84548 13.5324 6.76355 13.5347 6.73624C13.537 6.68844 13.5256 6.62699 13.4436 6.54506C13.3617 6.46312 13.2934 6.44947 13.2411 6.45174C13.2115 6.45174 13.1205 6.45402 12.9839 6.59058C12.8473 6.72713 12.8473 6.80907 12.8451 6.83638C12.8428 6.88418 12.8542 6.94563 12.9361 7.02756L12.9384 7.02984C13.0226 7.11405 13.0863 7.12315 13.1387 7.12087ZM8.58902 6.11035H8.60268C8.72331 6.11035 8.77565 6.07166 8.81207 6.03524C8.83255 6.01476 8.89173 5.95331 8.89173 5.7644C8.89173 5.5755 8.83255 5.51405 8.81207 5.49356C8.77565 5.45715 8.72331 5.41846 8.6004 5.41846C8.4775 5.41846 8.42516 5.45715 8.38874 5.49356C8.36826 5.51405 8.30908 5.5755 8.30908 5.7644C8.30908 5.95331 8.36826 6.01476 8.38874 6.03524C8.42288 6.07166 8.47295 6.10807 8.58902 6.11035Z" fill="#86888C"/>
</svg>
