<svg width="28" height="28" viewBox="0 0 28 28" fill="none" xmlns="http://www.w3.org/2000/svg">
<path fill-rule="evenodd" clip-rule="evenodd" d="M21.0102 17.3822C20.6927 17.6997 20.3069 17.9489 19.8835 18.1606C19.6718 18.2665 19.4601 18.3689 19.2245 18.4475C18.685 18.6216 18.0807 18.7206 17.4319 18.7445C17.3192 18.7513 17.2202 18.7684 17.1041 18.7684H10.9035C10.7875 18.7684 10.6884 18.7479 10.5758 18.7445C9.9236 18.7172 9.31925 18.6216 8.78318 18.4475C8.54759 18.3689 8.33589 18.2665 8.1242 18.1606C7.70081 17.9489 7.31498 17.7031 6.99744 17.3822C6.68673 16.969 6.52283 16.3988 6.52283 15.6579C6.52283 14.9204 6.69014 14.3501 6.99744 13.9302C7.72813 13.1927 8.76953 12.7522 10.0192 12.6088C9.97823 12.8854 9.95092 13.1688 9.95092 13.4726C9.95092 14.7633 10.3265 15.774 11.064 16.4807C11.7708 17.1568 12.761 17.5017 14.0038 17.5017C15.2501 17.5017 16.2369 17.1568 16.9437 16.4807C17.6812 15.774 18.0534 14.7633 18.0534 13.4726C18.0534 13.1688 18.0295 12.8819 17.9885 12.6088C19.2382 12.7556 20.2761 13.1927 21.0102 13.9302C21.321 14.3467 21.4883 14.9204 21.4883 15.6579C21.4848 16.3988 21.3175 16.969 21.0102 17.3822ZM16.7695 20.8478C16.7627 21.6297 16.4759 23.4428 14.0038 23.453C11.5284 23.4428 11.245 21.6297 11.2382 20.8478L11.2279 20.2776L11.4738 20.2742H16.7764L16.7695 20.8478ZM22.1336 12.9297C22.1165 12.9093 22.1029 12.8888 22.0824 12.8683C22.0141 12.7863 21.956 12.7419 21.8809 12.6702C21.8195 12.6088 21.7478 12.5439 21.6726 12.4893C20.7781 11.7586 19.6376 11.2976 18.3197 11.1235C18.8114 10.3314 19.0674 9.33777 19.0674 8.14955C19.0674 6.52769 18.6031 5.26094 17.688 4.38002C16.8071 3.53324 15.5676 3.09961 14.0004 3.09961C12.4332 3.09961 11.1938 3.52983 10.3163 4.38002C9.39778 5.26094 8.93342 6.53111 8.93342 8.14955C8.93342 9.33777 9.1895 10.3314 9.68118 11.1235C8.36321 11.2976 7.22279 11.7586 6.32821 12.4893C6.24968 12.5405 6.18139 12.6088 6.11993 12.6702C6.04481 12.7419 5.98677 12.7863 5.91848 12.8683C5.89799 12.8888 5.88775 12.9093 5.86726 12.9297C5.30047 13.6195 5 14.5277 5 15.6613C5 16.7949 5.30388 17.6997 5.86726 18.3928C5.88434 18.4133 5.89799 18.4338 5.91848 18.4543C6.04823 18.5874 6.18481 18.7138 6.32821 18.8299C6.50918 18.9801 6.77892 19.1542 7.05207 19.3181C7.28425 19.4581 7.51985 19.5879 7.70423 19.6801V20.2912L7.71788 21.1483C7.7452 24.0198 9.40802 27.086 13.9834 27.0996H14.0107C18.586 27.086 20.2488 24.0198 20.2761 21.1483L20.2864 20.281V19.6835C20.4708 19.5913 20.7098 19.4615 20.9385 19.3215C21.2117 19.1577 21.4814 18.9835 21.6624 18.8333C21.8058 18.7172 21.9424 18.5874 22.0721 18.4577L22.1233 18.3962C22.6901 17.7065 22.994 16.8017 22.994 15.6647C23.0009 14.5243 22.7004 13.616 22.1336 12.9297Z" fill="#86888C"/>
</svg>
