<svg width="31" height="20" viewBox="0 0 31 20" fill="none" xmlns="http://www.w3.org/2000/svg">
<path d="M12.6078 0.883762C12.0157 0.287331 11.1624 0 10 0H3.48716C2.33348 0 1.48019 0.296038 0.879408 0.901175C0.287331 1.50196 0 2.34654 0 3.4828V16.5085C0 17.6752 0.291685 18.5329 0.888115 19.1249C1.48019 19.7127 2.32913 19.9956 3.48716 19.9956H10C11.158 19.9956 12.0113 19.7127 12.599 19.1249C13.1955 18.5329 13.4872 17.6796 13.4872 16.5085V3.4828C13.4872 2.32477 13.1998 1.47584 12.6078 0.883762ZM11.9373 3.4828V16.5085C11.9373 17.9582 11.4497 18.4458 10 18.4458H3.48716C2.03744 18.4458 1.54985 17.9582 1.54985 16.5085V3.4828C1.54985 2.06791 2.07662 1.54549 3.48716 1.54549H10C10.7314 1.54549 11.2233 1.68481 11.5107 1.97649C11.798 2.26382 11.9373 2.75577 11.9373 3.4828Z" fill="#86888C"/>
<path d="M6.72218 15.4897C6.17799 15.4897 5.84277 15.8293 5.84277 16.3735C5.84277 16.6391 5.92114 16.8524 6.07351 17.0091C6.23024 17.1702 6.45226 17.2529 6.71783 17.2529C6.98339 17.2529 7.20977 17.1702 7.36215 17.0091C7.51452 16.8524 7.59288 16.6391 7.59288 16.3735C7.60159 15.8293 7.26637 15.4897 6.72218 15.4897Z" fill="#86888C"/>
<path d="M29.6863 0.883762C29.0942 0.287331 28.241 0 27.0786 0H20.5657C19.4121 0 18.5588 0.296038 17.958 0.901175C17.3659 1.50196 17.0742 2.34654 17.0742 3.48716V16.5128C17.0742 17.6796 17.3659 18.5372 17.9623 19.1293C18.5544 19.717 19.4033 20 20.5614 20H27.0742C28.2323 20 29.0855 19.717 29.6733 19.1293C30.2697 18.5372 30.5614 17.6839 30.5614 16.5128V3.4828C30.5657 2.32477 30.2784 1.47584 29.6863 0.883762ZM29.0159 3.4828V16.5085C29.0159 17.9582 28.5283 18.4458 27.0786 18.4458H20.5657C19.116 18.4458 18.6284 17.9582 18.6284 16.5085V3.4828C18.6284 2.06791 19.1552 1.54549 20.5657 1.54549H27.0786C27.81 1.54549 28.3019 1.68481 28.5892 1.97649C28.8766 2.26382 29.0159 2.75577 29.0159 3.4828Z" fill="#86888C"/>
<path d="M23.7441 15.4897C23.1651 15.4897 22.8037 15.8511 22.8037 16.4301C22.8037 16.7131 22.8864 16.9395 23.0519 17.1093C23.2173 17.279 23.4567 17.3705 23.7441 17.3705C24.027 17.3705 24.2665 17.279 24.4363 17.1093C24.6017 16.9395 24.6844 16.7131 24.6844 16.4301C24.6801 15.8511 24.3231 15.4897 23.7441 15.4897Z" fill="#86888C"/>
<path d="M22.7688 8.23232C22.7688 11.0142 20.5137 13.2693 17.7318 13.2693H13.0692C10.2873 13.2693 8.03223 11.0142 8.03223 8.23232C8.03223 5.45043 10.2873 3.19531 13.0692 3.19531H17.7318C20.5137 3.19531 22.7688 5.45043 22.7688 8.23232Z" fill="#86888C"/>
<path d="M13.2306 9.14684C12.9998 8.88563 12.8779 8.49381 12.8779 7.98445C12.8779 7.37061 13.0434 6.94396 13.3046 6.68275C13.5701 6.42154 13.9315 6.33447 14.3015 6.33447C14.5453 6.33447 14.8327 6.37801 15.046 6.45202L14.9937 6.75676C14.7978 6.70452 14.5453 6.66534 14.3407 6.66534C13.9794 6.66534 13.7399 6.76112 13.5745 6.95267C13.3873 7.17034 13.3002 7.50556 13.3002 7.95833C13.3002 8.38497 13.3786 8.69407 13.5397 8.89869C13.7007 9.10766 13.9489 9.20343 14.3407 9.20343C14.4757 9.20343 14.6411 9.19037 14.7586 9.17296V8.22825H14.2362V7.91479H15.1505V9.41675C14.9371 9.48641 14.5889 9.5343 14.3102 9.5343C13.8052 9.53865 13.4569 9.40369 13.2306 9.14684Z" fill="white"/>
<path d="M15.8823 6.39551H16.7051C17.1056 6.39551 17.3668 6.46516 17.5279 6.62624C17.6542 6.75249 17.7195 6.93534 17.7195 7.16172C17.7195 7.48388 17.5714 7.71897 17.3102 7.83652C17.6933 7.92794 17.9197 8.19786 17.9197 8.60709C17.9197 8.88136 17.8414 9.09033 17.6846 9.23399C17.5061 9.39507 17.2319 9.47779 16.8096 9.47779H15.8779V6.39551H15.8823ZM16.679 7.72768C16.9489 7.72768 17.1013 7.68414 17.2014 7.57966C17.2841 7.49259 17.3233 7.36634 17.3233 7.20961C17.3233 7.04853 17.2841 6.92228 17.197 6.83956C17.0969 6.74379 16.9402 6.70896 16.6746 6.70896H16.2828V7.72768H16.679ZM16.692 9.15998C17.0534 9.15998 17.2319 9.12515 17.3538 9.01632C17.4495 8.92925 17.5061 8.79864 17.5061 8.60273C17.5061 8.42424 17.4626 8.29364 17.3712 8.20221C17.2493 8.08467 17.0751 8.04549 16.7443 8.04549H16.2828V9.15998H16.692Z" fill="white"/>
</svg>
