<svg width="40" height="40" viewBox="0 0 40 40" fill="none" xmlns="http://www.w3.org/2000/svg">
<path fill-rule="evenodd" clip-rule="evenodd" d="M4.32556 24.9892V4.75583C4.32556 4.5202 4.52021 4.32556 4.75583 4.32556H24.9841C25.2197 4.32556 25.4143 4.5202 25.4143 4.75583V24.9892C25.4143 25.2248 25.2197 25.4195 24.9841 25.4195H4.75583C4.51508 25.4195 4.32556 25.2299 4.32556 24.9892ZM35.3261 12.2447H27.7501V4.76096C27.7501 3.23961 26.5105 2 24.9892 2H4.76096C3.23961 2 2 3.23961 2 4.76096V24.9943C2 26.5157 3.23961 27.7553 4.76096 27.7553H12.2396V35.3312C12.2396 36.8014 13.4382 38 14.9084 38H35.321C36.7911 38 37.9898 36.8014 37.9898 35.3312V14.9135C37.9949 13.4434 36.7962 12.2447 35.3261 12.2447Z" fill="#86888C"/>
</svg>
