<svg width="24" height="24" viewBox="0 0 24 24" fill="none" xmlns="http://www.w3.org/2000/svg">
<path fill-rule="evenodd" clip-rule="evenodd" d="M8.72728 19.4271L7.03666 17.7564L16.5258 8.36971L18.1908 10.0176L8.72728 19.4271ZM5.00734 20.3606L3.61272 18.9973L4.00549 16.4841L7.44366 19.8853L5.00734 20.3606ZM13.9386 5.81101L15.652 7.50733L6.16573 16.894L4.45234 15.2005L13.9386 5.81101ZM20.7381 3.517C20.6613 3.43731 20.5673 3.34339 20.4848 3.26369C19.093 1.90607 16.8218 1.22869 14.6331 3.39462L3.14026 14.765C3.08618 14.8191 3.04633 14.8817 3.01502 14.95C3.00649 14.9728 3.00079 14.9956 2.99226 15.0184C2.98372 15.0468 2.96949 15.0724 2.96379 15.1037L2.00748 21.297C1.97617 21.4934 2.04448 21.6898 2.18679 21.8292C2.30348 21.9402 2.45718 22 2.61656 22C2.65356 22 2.69056 21.9972 2.73041 21.9886L8.69028 20.8957C8.70166 20.8957 8.71305 20.9014 8.72443 20.9014C8.83543 20.9014 8.94074 20.8615 9.03751 20.8046C9.04605 20.8018 9.05174 20.7961 9.06028 20.7904C9.09443 20.7676 9.13143 20.7534 9.16274 20.7221C9.16843 20.7164 9.16843 20.7107 9.17413 20.7078C9.17982 20.7021 9.18836 20.6993 9.19405 20.6936L20.6157 9.33741C22.7816 7.19994 22.0986 4.93155 20.7381 3.517Z" fill="#86888C"/>
</svg>
