<svg width="28" height="28" viewBox="0 0 28 28" fill="none" xmlns="http://www.w3.org/2000/svg">
<path fill-rule="evenodd" clip-rule="evenodd" d="M13.389 7.9343C11.5208 7.9343 10.404 6.80724 10.404 4.91856C10.404 3.95544 10.6772 3.19723 11.2203 2.66444C11.7462 2.14873 12.4737 1.88916 13.389 1.88916C14.3043 1.88916 15.0318 2.14873 15.5577 2.65761C16.1042 3.18699 16.3808 3.94861 16.3808 4.91514C16.3808 6.80724 15.2606 7.9343 13.389 7.9343ZM19.7927 16.0423C19.9533 16.5204 19.9191 17.0259 19.7039 17.4699C19.4888 17.9105 19.1199 18.2384 18.6623 18.392C18.471 18.4706 18.2661 18.5082 18.0612 18.4979L18.2661 19.2664C18.3242 19.4884 18.2798 19.724 18.1397 19.905C18.0031 20.086 17.7879 20.1919 17.5625 20.1919H17.0741L17.0537 24.0342C17.0537 24.6148 16.8761 25.0998 16.5448 25.431C16.333 25.6394 15.9573 25.8887 15.346 25.8887H15.3016C14.3624 25.8682 13.6793 25.0895 13.6793 24.0308L13.6964 20.1919H13.1226L13.1431 24.0273C13.1431 24.6011 12.9553 25.0998 12.6103 25.4413C12.3098 25.7384 11.9033 25.8989 11.4798 25.8887H11.4354C10.4621 25.8648 9.73118 25.0656 9.73118 24.0308L9.71069 20.1953H9.2223C8.99347 20.1953 8.78172 20.0895 8.64511 19.9085C8.50508 19.7274 8.46068 19.4918 8.51874 19.2698L8.72366 18.5013H8.72024C8.51191 18.5013 8.30699 18.4638 8.10548 18.392C7.66491 18.2418 7.29605 17.9139 7.08089 17.4767C6.8623 17.0327 6.82815 16.5239 6.98867 16.056L8.85003 10.7007C8.87393 10.6222 8.90467 10.547 8.94907 10.4514C9.49211 9.18772 10.7353 8.36463 12.1117 8.36463H14.6697C16.053 8.36463 17.2996 9.19797 17.846 10.4856C17.8733 10.5402 17.9075 10.6222 17.9382 10.7212C17.9416 10.7144 19.7927 16.0423 19.7927 16.0423Z" fill="#86888C"/>
</svg>
