<svg width="24" height="24" viewBox="0 0 24 24" fill="none" xmlns="http://www.w3.org/2000/svg">
<path fill-rule="evenodd" clip-rule="evenodd" d="M12.4169 7.03761C10.8601 7.03761 9.92944 6.0984 9.92944 4.5245C9.92944 3.7219 10.1571 3.09006 10.6097 2.64607C11.048 2.2163 11.6542 2 12.4169 2C13.1797 2 13.7859 2.2163 14.2242 2.64037C14.6796 3.08152 14.9101 3.7162 14.9101 4.52165C14.9101 6.0984 13.9766 7.03761 12.4169 7.03761ZM17.7534 13.7943C17.8872 14.1927 17.8587 14.614 17.6794 14.984C17.5001 15.3511 17.1927 15.6243 16.8113 15.7524C16.652 15.8179 16.4812 15.8492 16.3104 15.8406L16.4812 16.481C16.5296 16.666 16.4926 16.8624 16.3759 17.0132C16.262 17.1641 16.0827 17.2523 15.8949 17.2523H15.4879L15.4708 20.4542C15.4708 20.938 15.3228 21.3422 15.0467 21.6182C14.8703 21.7918 14.5572 21.9996 14.0478 21.9996H14.0108C13.2281 21.9825 12.6589 21.3336 12.6589 20.4513L12.6731 17.2523H12.1949L12.212 20.4485C12.212 20.9266 12.0555 21.3422 11.768 21.6268C11.5176 21.8744 11.1789 22.0082 10.826 21.9996H10.789C9.97783 21.9797 9.36876 21.3137 9.36876 20.4513L9.35168 17.2551H8.94469C8.754 17.2551 8.57754 17.1669 8.4637 17.0161C8.34701 16.8652 8.31001 16.6688 8.35839 16.4839L8.52916 15.8435H8.52631C8.3527 15.8435 8.18193 15.8122 8.01401 15.7524C7.64686 15.6272 7.33948 15.3539 7.16018 14.9896C6.97803 14.6197 6.94957 14.1956 7.08333 13.8057L8.63446 9.34296C8.65439 9.2775 8.68 9.21489 8.717 9.1352C9.16953 8.08214 10.2055 7.39622 11.3525 7.39622H13.4842C14.6369 7.39622 15.6757 8.09067 16.1311 9.16366C16.1539 9.2092 16.1823 9.2775 16.208 9.36004C16.2108 9.35435 17.7534 13.7943 17.7534 13.7943Z" fill="#86888C"/>
</svg>
