<svg width="20" height="20" viewBox="0 0 20 20" fill="none" xmlns="http://www.w3.org/2000/svg">
<path fill-rule="evenodd" clip-rule="evenodd" d="M10.1854 3C11.1712 3 11.9421 3.27098 12.4748 3.80827C13.0307 4.36658 13.3134 5.1912 13.3134 6.25876C13.3134 7.32633 13.0307 8.15094 12.4748 8.70458C11.9421 9.2372 11.1712 9.50818 10.1854 9.50818C9.19964 9.50818 8.42875 9.2372 7.89847 8.70458C7.34717 8.15094 7.06685 7.32633 7.06685 6.25876C7.06685 5.18886 7.34717 4.36424 7.89847 3.80827C8.43109 3.27098 9.19964 3 10.1854 3ZM5.37323 7.05301C5.89182 7.05301 6.29829 7.19551 6.57862 7.47817C6.87062 7.77017 7.01779 8.20467 7.01779 8.76766C7.01779 9.33064 6.87062 9.7628 6.57628 10.0548C6.29596 10.3351 5.88949 10.4776 5.37089 10.4776C4.85229 10.4776 4.44816 10.3351 4.16783 10.0548C3.87583 9.7628 3.72866 9.33064 3.72866 8.76766C3.72866 8.20467 3.87583 7.77017 4.1655 7.47817C4.45049 7.19551 4.85463 7.05301 5.37323 7.05301ZM15.0023 7.07637C15.5139 7.07637 15.9157 7.21887 16.1937 7.49686C16.481 7.78652 16.6259 8.21635 16.6259 8.77233C16.6259 9.3283 16.481 9.75813 16.1914 10.0455C15.9157 10.3234 15.5139 10.4636 15 10.4636C14.4861 10.4636 14.0843 10.3234 13.8063 10.0455C13.5166 9.75579 13.3718 9.3283 13.3718 8.77233C13.3718 8.21635 13.519 7.78652 13.8063 7.49686C14.0866 7.21653 14.4907 7.07637 15.0023 7.07637ZM12.0893 10.6271C13.2456 10.6271 14.1964 11.0149 14.8388 11.7508C15.4275 12.4259 15.7382 13.3626 15.7382 14.4606V15.6075C15.7382 15.8248 15.5793 16 15.3831 16H4.99946C4.80323 16 4.64438 15.8248 4.64438 15.6075V14.4606C4.64438 13.3626 4.95274 12.4282 5.53908 11.7531C6.17682 11.0173 7.12525 10.6295 8.28392 10.6295H12.0893V10.6271ZM5.0345 11.2462C5.02983 11.2509 5.02282 11.2555 5.01815 11.2625C4.315 12.0731 3.94358 13.1804 3.94358 14.4606V15.0843H2.71716C2.32237 15.0843 2 14.7502 2 14.3367V13.7504C2 13.0449 2.21725 12.4376 2.63073 11.989C3.07925 11.5031 3.72399 11.2462 4.49721 11.2462H5.0345ZM17.7869 11.975C18.2004 12.4235 18.4176 13.0332 18.4176 13.7364V14.3227C18.4176 14.7362 18.0952 15.0703 17.7004 15.0703H16.4367V14.4582C16.4367 13.1781 16.0629 12.0731 15.3551 11.2602L15.327 11.2322H15.9204C16.696 11.2322 17.3407 11.4891 17.7869 11.975Z" fill="#86888C"/>
</svg>
