<svg width="28" height="28" viewBox="0 0 28 28" fill="none" xmlns="http://www.w3.org/2000/svg">
<path fill-rule="evenodd" clip-rule="evenodd" d="M19.9392 16.4929C20.2022 17.4798 19.6114 18.494 18.6245 18.757C18.1328 18.8936 17.6034 18.8219 17.1663 18.5521V24.1525C17.1663 25.2043 16.4116 26 15.4111 26C14.4139 26 13.6626 25.2043 13.6626 24.1525V18.7228H13.3211V24.1525C13.3211 25.2077 12.5938 25.9727 11.5966 25.9727C10.5926 25.9727 9.83452 25.1907 9.83452 24.1525V18.5521L9.78672 18.5828C9.34961 18.8253 8.8442 18.8902 8.36953 18.7536C7.38603 18.4906 6.80208 17.4798 7.06162 16.4963L8.46856 11.3637C8.48222 11.3022 8.50271 11.2442 8.52661 11.1861C8.87493 9.60842 10.3058 8.46784 11.9415 8.46784H15.0662C16.7019 8.46784 18.1293 9.60501 18.4777 11.1793C18.5118 11.2578 18.5357 11.333 18.5494 11.4081C18.5494 11.4149 19.9392 16.4929 19.9392 16.4929ZM13.2016 8.04439C11.2961 8.04439 10.1555 6.91406 10.1555 5.02561C10.1555 4.05919 10.4355 3.30108 10.9888 2.77177C11.5249 2.25953 12.2694 2 13.2016 2C14.1373 2 14.8818 2.25953 15.4145 2.76836C15.9677 3.29767 16.2511 4.05578 16.2511 5.0222C16.2511 6.91406 15.114 8.04098 13.2016 8.04439Z" fill="#86888C"/>
</svg>
