<svg width="40" height="40" viewBox="0 0 40 40" fill="none" xmlns="http://www.w3.org/2000/svg">
<path fill-rule="evenodd" clip-rule="evenodd" d="M19.6302 6C21.7535 6 23.4138 6.58365 24.561 7.74088C25.7585 8.9434 26.3673 10.7195 26.3673 13.0189C26.3673 15.3182 25.7585 17.0943 24.561 18.2868C23.4138 19.434 21.7535 20.0176 19.6302 20.0176C17.5069 20.0176 15.8465 19.434 14.7044 18.2868C13.517 17.0943 12.9132 15.3182 12.9132 13.0189C12.9132 10.7145 13.517 8.93836 14.7044 7.74088C15.8516 6.58365 17.5069 6 19.6302 6ZM9.26541 14.7296C10.3824 14.7296 11.2579 15.0365 11.8616 15.6453C12.4906 16.2742 12.8075 17.2101 12.8075 18.4226C12.8075 19.6352 12.4906 20.566 11.8566 21.195C11.2528 21.7987 10.3774 22.1057 9.26038 22.1057C8.1434 22.1057 7.27296 21.7987 6.66918 21.195C6.04025 20.566 5.72327 19.6352 5.72327 18.4226C5.72327 17.2101 6.04025 16.2742 6.66415 15.6453C7.27799 15.0365 8.14843 14.7296 9.26541 14.7296ZM30.005 14.7799C31.1069 14.7799 31.9723 15.0868 32.5711 15.6855C33.1899 16.3094 33.5019 17.2352 33.5019 18.4327C33.5019 19.6302 33.1899 20.556 32.566 21.1748C31.9723 21.7736 31.1069 22.0755 30 22.0755C28.8931 22.0755 28.0277 21.7736 27.4289 21.1748C26.805 20.5509 26.4931 19.6302 26.4931 18.4327C26.4931 17.2352 26.8101 16.3094 27.4289 15.6855C28.0327 15.0818 28.9031 14.7799 30.005 14.7799ZM23.7308 22.4277C26.2214 22.4277 28.2692 23.2629 29.6528 24.8478C30.9208 26.3019 31.5899 28.3195 31.5899 30.6843V33.1547C31.5899 33.6226 31.2478 34 30.8252 34H8.46038C8.03774 34 7.6956 33.6226 7.6956 33.1547V30.6843C7.6956 28.3195 8.35975 26.3069 9.62264 24.8528C10.9962 23.2679 13.039 22.4327 15.5346 22.4327H23.7308V22.4277ZM8.53585 23.761C8.52579 23.7711 8.51069 23.7811 8.50063 23.7962C6.98616 25.5421 6.18616 27.927 6.18616 30.6843V32.0277H3.54465C2.69434 32.0277 2 31.3082 2 30.4176V29.1547C2 27.6352 2.46792 26.327 3.35849 25.361C4.32453 24.3145 5.71321 23.761 7.37862 23.761H8.53585ZM36.0025 25.3308C36.8931 26.2969 37.361 27.6101 37.361 29.1245V30.3874C37.361 31.278 36.6667 31.9975 35.8164 31.9975H33.0943V30.6792C33.0943 27.922 32.2893 25.5421 30.7648 23.7912L30.7044 23.7308H31.9824C33.6528 23.7308 35.0415 24.2843 36.0025 25.3308Z" fill="#86888C"/>
</svg>
