<svg width="20" height="20" viewBox="0 0 20 20" fill="none" xmlns="http://www.w3.org/2000/svg">
<path d="M11.5552 12.5648C10.9081 13.8994 10.4132 15.599 10.084 17.621C10.0348 17.8539 9.80637 18.0039 9.57349 17.9546C9.35405 17.9098 9.20626 17.7038 9.23313 17.4822C9.5914 15.2855 10.1848 13.2881 10.9618 11.8281" fill="#86888C"/>
<path d="M8.63325 9.84912C9.68792 12.0055 9.91184 14.8224 10.0014 16.419C10.026 16.8713 10.0484 17.2609 10.0843 17.4804C10.1335 17.7133 9.9835 17.9417 9.75062 17.9909C9.51774 18.0402 9.28934 17.8902 9.24007 17.6573C9.23784 17.6438 9.2356 17.6327 9.23336 17.6192C9.19081 17.355 9.16842 16.9631 9.13931 16.466C9.05422 14.9702 8.92658 12.4847 8.01074 10.5075" fill="#86888C"/>
<path d="M7.79958 10.1176C7.17932 8.96883 6.32617 8.18063 5.26254 7.77533C5.04086 7.69024 4.9289 7.44168 5.01399 7.21776C5.09908 6.99608 5.34764 6.88412 5.57156 6.96921C6.83448 7.45288 7.83989 8.3732 8.55868 9.70777L8.63257 9.84885C9.01772 9.27113 9.21701 8.51875 9.21701 7.60067C9.21701 6.42284 8.89456 5.51371 8.2631 4.89793C7.64955 4.30229 6.76506 4 5.63202 4H3.31218C2.58892 4 2 4.58668 2 5.30994V7.61858C2 9.92722 3.28307 11.1991 5.61186 11.1991C6.61279 11.1991 7.41891 10.964 8.01455 10.5094C7.98992 10.4825 7.972 10.4512 7.95633 10.4176C7.90483 10.3168 7.85332 10.2161 7.79958 10.1176ZM17.7126 7.48423C17.7104 6.76096 17.1237 6.17428 16.4004 6.17428H14.0784C12.9453 6.17428 12.0608 6.47658 11.4473 7.07221C10.8136 7.688 10.4934 8.59712 10.4934 9.77495C10.4934 10.5923 10.6523 11.2819 10.9614 11.8306C11.9354 9.98768 13.1827 8.91509 14.6718 8.64414C14.9069 8.6016 15.1308 8.75611 15.1733 8.99122C15.2159 9.22634 15.0614 9.45026 14.8263 9.49281C13.5633 9.72345 12.4863 10.7087 11.6242 12.4239C11.5995 12.471 11.5906 12.5314 11.5548 12.565C12.1638 13.1092 13.0058 13.3734 14.1007 13.3734C16.4295 13.3734 17.7126 12.1015 17.7126 9.79286V7.48423Z" fill="#86888C"/>
</svg>
