<svg width="40" height="40" viewBox="0 0 40 40" fill="none" xmlns="http://www.w3.org/2000/svg">
<path d="M33.5888 6.43667C30.5058 3.49424 26.0181 2 20.2445 2C14.4709 2 9.98837 3.49424 6.9105 6.43667C3.71385 9.4968 2.09229 14.0563 2.09229 20.0026C2.09229 25.9488 3.71385 30.5083 6.9105 33.5633C9.99354 36.5058 14.4812 38 20.2497 38C26.0181 38 30.511 36.5058 33.594 33.5633C36.7958 30.5083 38.4174 25.9437 38.4174 20.0026C38.4174 14.0614 36.7907 9.4968 33.5888 6.43667ZM19.3098 6.99957C19.3098 6.43667 19.7746 5.97612 20.3426 5.97612C20.9107 5.97612 21.3755 6.43667 21.3755 6.99957V14.4861C21.3755 15.049 20.9107 15.5096 20.3426 15.5096C19.7746 15.5096 19.3098 15.049 19.3098 14.4861V6.99957ZM28.6054 28.3846C26.6946 30.2115 23.9318 31.1326 20.3891 31.1326C16.8465 31.1326 14.0888 30.2064 12.178 28.3795C10.1949 26.4861 9.18792 23.6716 9.18792 20.0281C9.18792 16.9987 9.88509 14.5373 11.2639 12.7053C12.6273 10.8989 14.6207 9.72196 17.1976 9.21535C17.7554 9.10277 18.3028 9.4661 18.4112 10.0188C18.5248 10.5714 18.1582 11.1139 17.6004 11.2213C13.3245 12.0657 11.2484 14.9467 11.2484 20.0281C11.2484 23.0985 12.0437 25.4115 13.6085 26.9058C15.1216 28.3488 17.4042 29.0806 20.3891 29.0806C23.374 29.0806 25.6566 28.3488 27.1697 26.9058C28.7345 25.4115 29.5298 23.0934 29.5298 20.0281C29.5298 14.8751 27.3918 11.9838 22.997 11.1855C22.4341 11.0832 22.0623 10.551 22.1656 9.99318C22.2689 9.43539 22.806 9.06695 23.3689 9.1693C26.0129 9.65032 28.058 10.8119 29.4575 12.6235C30.8776 14.4657 31.5955 16.9527 31.5955 20.023C31.6006 23.6768 30.5936 26.4861 28.6054 28.3846Z" fill="#86888C"/>
</svg>
