<svg width="40" height="40" viewBox="0 0 40 40" fill="none" xmlns="http://www.w3.org/2000/svg">
<path d="M33.5096 3.51088C32.4955 2.49168 31.0154 2 28.9872 2H17.0026C14.9949 2 13.5198 2.50704 12.4904 3.54161C11.5634 4.47887 11.0717 5.77977 10.9949 7.51088C8.6338 7.67478 6.75416 8.40717 5.40717 9.70807C3.80922 11.2497 3 13.5288 3 16.4891C3 19.4494 3.80922 21.7286 5.40717 23.2702C6.75416 24.5659 8.62868 25.3035 10.9846 25.4673V31.9821C10.9846 34.0205 11.4814 35.5058 12.4955 36.5147C13.5045 37.5134 14.9795 38 17.0026 38H28.9872C31.0102 38 32.4853 37.5134 33.4942 36.5147C34.5134 35.5058 35.0051 34.0205 35.0051 31.9821V8.0128C35.0051 6 34.5186 4.52497 33.5096 3.51088ZM17.1972 21.8003C16.0551 22.9014 14.3086 23.4597 12.0141 23.4597C9.71959 23.4597 7.97311 22.9014 6.83099 21.8003C5.64789 20.6633 5.04866 18.8758 5.04866 16.4942C5.04866 14.1127 5.64789 12.3252 6.83099 11.1882C7.97311 10.0871 9.71959 9.52881 12.0141 9.52881C14.3086 9.52881 16.0551 10.0871 17.1972 11.1882C18.3803 12.3252 18.9795 14.1127 18.9795 16.4942C18.9795 18.8758 18.3803 20.6633 17.1972 21.8003ZM24.5006 33.1805C24.1421 33.5442 23.6248 33.7388 23 33.7388C22.3752 33.7388 21.8579 33.5442 21.4994 33.1805C21.1408 32.8169 20.9718 32.3201 20.9718 31.7004C20.9718 30.4251 21.7298 29.662 23.0051 29.662C24.2804 29.662 25.0384 30.4251 25.0384 31.7004C25.0282 32.3201 24.8489 32.8169 24.5006 33.1805Z" fill="#86888C"/>
<path d="M12.6542 15.7466V13.0885C13.0281 13.1704 13.3866 13.3087 13.7247 13.4931L13.7349 13.4982C13.8681 13.5699 14.0166 13.6109 14.1651 13.616C14.5697 13.616 14.9026 13.2882 14.9026 12.8785C14.9026 12.7197 14.8463 12.4176 14.4724 12.1871C13.9654 11.8747 13.3354 11.6647 12.6542 11.5827V11.0142C12.6542 10.6608 12.3674 10.374 12.014 10.374C11.6606 10.374 11.3738 10.6608 11.3738 11.0142V11.5827C9.80661 11.7978 8.82326 12.8631 8.82326 14.4201C8.82326 15.4444 9.27908 16.7146 11.3738 17.0987V19.9105C10.8668 19.8081 10.3546 19.593 9.85271 19.2549C9.7093 19.1576 9.54029 19.1064 9.36615 19.1013C8.9513 19.0962 8.60815 19.4342 8.60303 19.8491C8.60303 20.1256 8.72595 20.351 8.96154 20.5149C9.67857 21.0117 10.5083 21.319 11.3738 21.4163V22.0001C11.3738 22.3535 11.6606 22.6403 12.014 22.6403C12.3674 22.6403 12.6542 22.3535 12.6542 22.0001V21.4009C13.402 21.2985 14.032 21.0373 14.498 20.6327C15.1024 20.1103 15.4251 19.3676 15.4251 18.4918C15.4302 17.4214 14.9385 16.0898 12.6542 15.7466ZM11.3738 15.5264C10.3341 15.2191 10.3341 14.6506 10.3341 14.3535C10.3341 13.6928 10.7131 13.2421 11.3738 13.0782V15.5264ZM12.6542 19.9105V17.2985C13.7503 17.5494 13.9142 18.0411 13.9142 18.5482C13.9142 19.2498 13.4481 19.7415 12.6542 19.9105Z" fill="#86888C"/>
</svg>
