<svg width="28" height="28" viewBox="0 0 28 28" fill="none" xmlns="http://www.w3.org/2000/svg">
<path d="M23.3397 3.00726C22.6637 2.32778 21.6769 2 20.3248 2H12.335C10.9966 2 10.0132 2.33803 9.32693 3.02774C8.70892 3.65258 8.38113 4.51985 8.32992 5.67392C6.75587 5.78318 5.50277 6.27145 4.60478 7.13871C3.53948 8.16645 3 9.68587 3 11.6594C3 13.6329 3.53948 15.1524 4.60478 16.1801C5.50277 17.044 6.75245 17.5356 8.32309 17.6449V21.9881C8.32309 23.347 8.65429 24.3372 9.33034 25.0098C10.003 25.6756 10.9863 26 12.335 26H20.3248C21.6735 26 22.6568 25.6756 23.3295 25.0098C24.009 24.3372 24.3367 23.347 24.3367 21.9881V6.00854C24.3367 4.66667 24.0124 3.68331 23.3397 3.00726ZM12.4648 15.2002C11.7034 15.9343 10.5391 16.3064 9.00939 16.3064C7.47973 16.3064 6.31541 15.9343 5.55399 15.2002C4.76526 14.4422 4.36577 13.2505 4.36577 11.6628C4.36577 10.0751 4.76526 8.88348 5.55399 8.12548C6.31541 7.39138 7.47973 7.01921 9.00939 7.01921C10.5391 7.01921 11.7034 7.39138 12.4648 8.12548C13.2535 8.88348 13.653 10.0751 13.653 11.6628C13.653 13.2505 13.2535 14.4422 12.4648 15.2002ZM17.3338 22.787C17.0947 23.0294 16.7499 23.1592 16.3333 23.1592C15.9168 23.1592 15.5719 23.0294 15.3329 22.787C15.0939 22.5446 14.9812 22.2134 14.9812 21.8003C14.9812 20.9501 15.4866 20.4413 16.3367 20.4413C17.1869 20.4413 17.6923 20.9501 17.6923 21.8003C17.6854 22.2134 17.5659 22.5446 17.3338 22.787Z" fill="#86888C"/>
<path d="M9.43616 11.1638V9.39168C9.68542 9.44631 9.92443 9.5385 10.1498 9.66142L10.1566 9.66483C10.2454 9.71263 10.3444 9.73995 10.4434 9.74336C10.7132 9.74336 10.9351 9.52484 10.9351 9.25169C10.9351 9.14584 10.8975 8.94439 10.6483 8.79074C10.3103 8.58246 9.89028 8.44247 9.43616 8.38784V8.00883C9.43616 7.77324 9.24495 7.58203 9.00936 7.58203C8.77376 7.58203 8.58256 7.77324 8.58256 8.00883V8.38784C7.53774 8.53124 6.88217 9.24144 6.88217 10.2794C6.88217 10.9623 7.18606 11.8091 8.58256 12.0652V13.9397C8.24453 13.8714 7.90308 13.728 7.56847 13.5026C7.47287 13.4378 7.36019 13.4036 7.2441 13.4002C6.96753 13.3968 6.73877 13.6221 6.73535 13.8987C6.73535 14.0831 6.8173 14.2333 6.97436 14.3426C7.45238 14.6738 8.00552 14.8787 8.58256 14.9435V15.3328C8.58256 15.5684 8.77376 15.7596 9.00936 15.7596C9.24495 15.7596 9.43616 15.5684 9.43616 15.3328V14.9333C9.93467 14.865 10.3546 14.6909 10.6654 14.4211C11.0683 14.0729 11.2834 13.5778 11.2834 12.9939C11.2868 12.2803 10.959 11.3925 9.43616 11.1638ZM8.58256 11.0169C7.88943 10.8121 7.88943 10.4331 7.88943 10.235C7.88943 9.79458 8.14209 9.49411 8.58256 9.38485V11.0169ZM9.43616 13.9397V12.1983C10.1668 12.3656 10.2761 12.6934 10.2761 13.0315C10.2761 13.4992 9.9654 13.827 9.43616 13.9397Z" fill="#86888C"/>
</svg>
