<svg width="28" height="28" viewBox="0 0 28 28" fill="none" xmlns="http://www.w3.org/2000/svg">
<path fill-rule="evenodd" clip-rule="evenodd" d="M3.50212 24.0063V16.7381H13.1669V25.9966H5.27052C4.31463 25.9966 3.50212 25.0919 3.50212 24.0063ZM14.6929 25.9966V16.7381H24.4123V24.0165C24.4123 25.0919 23.61 26 22.6405 26H14.6929V25.9966ZM20.0493 5.92282C20.1449 5.48584 20.0118 4.99424 19.6601 4.46508C19.3085 3.93593 18.9022 3.61843 18.4584 3.52626C18.0112 3.43067 17.5128 3.5604 16.97 3.90861C16.1063 4.45825 15.2255 6.35297 14.7987 7.55808C16.0926 7.65708 18.2365 7.64343 19.09 7.10062C19.6328 6.75581 19.9571 6.3598 20.0493 5.92282ZM8.56835 7.10062C9.42525 7.64343 11.5658 7.6605 12.8596 7.55808C12.4329 6.35638 11.5521 4.45825 10.6884 3.90861C10.2617 3.6355 9.8554 3.49895 9.4867 3.49895C9.38769 3.49895 9.2921 3.50919 9.19993 3.52967C8.75271 3.62185 8.34987 3.93934 7.99482 4.4685C7.64319 4.99765 7.51004 5.48925 7.60563 5.92623C7.70122 6.3598 8.02554 6.75581 8.56835 7.10062ZM24.2245 7.7356C25.1497 7.7356 25.9929 8.68467 25.9929 9.7225V13.3208C25.9929 14.2664 25.3682 15.0823 24.5659 15.2701C24.525 15.2633 24.4874 15.2462 24.4464 15.2462H14.6929V8.47983H13.1669V15.2428H3.35873C2.59061 15.0277 2 14.2357 2 13.3173V9.71908C2 8.68125 2.84323 7.73219 3.7684 7.73219H6.97748C6.53708 7.28838 6.23324 6.78312 6.11376 6.23007C5.93623 5.40391 6.14107 4.50946 6.7146 3.64916C7.28814 2.78544 8.03579 2.23921 8.88243 2.06169C9.72908 1.88417 10.6406 2.09242 11.5214 2.6523C12.5046 3.27704 13.2966 4.67333 13.8292 5.89209C14.3652 4.66992 15.1538 3.27704 16.137 2.6523C17.0178 2.09242 17.9327 1.88417 18.7759 2.06169C19.6192 2.2358 20.3702 2.78544 20.9438 3.64916C21.5173 4.51288 21.7255 5.40391 21.5446 6.23007C21.4251 6.78312 21.1213 7.28497 20.6775 7.73219H24.2245V7.7356Z" fill="#86888C"/>
</svg>
