<svg width="24" height="24" viewBox="0 0 24 24" fill="none" xmlns="http://www.w3.org/2000/svg">
<path fill-rule="evenodd" clip-rule="evenodd" d="M3.25177 20.3386V14.2817H11.3057V21.9972H4.72543C3.92886 21.9972 3.25177 21.2432 3.25177 20.3386ZM12.5774 21.9972V14.2817H20.6769V20.3471C20.6769 21.2432 20.0084 22 19.2004 22H12.5774V21.9972ZM17.0411 5.26902C17.1208 4.90487 17.0098 4.4952 16.7168 4.05423C16.4238 3.61327 16.0852 3.34869 15.7154 3.27188C15.3427 3.19222 14.9273 3.30033 14.475 3.59051C13.7552 4.04854 13.0212 5.62748 12.6656 6.63173C13.7438 6.71424 15.5304 6.70286 16.2417 6.25051C16.694 5.96318 16.9643 5.63317 17.0411 5.26902ZM7.47363 6.25051C8.1877 6.70286 9.97147 6.71708 11.0497 6.63173C10.6941 5.63032 9.96009 4.04854 9.24033 3.59051C8.88471 3.36292 8.54616 3.24912 8.23891 3.24912C8.15641 3.24912 8.07675 3.25766 7.99994 3.27473C7.62725 3.35154 7.29155 3.61612 6.99568 4.05708C6.70266 4.49804 6.5917 4.90771 6.67136 5.27186C6.75102 5.63317 7.02129 5.96318 7.47363 6.25051ZM20.5204 6.77967C21.2914 6.77967 21.9941 7.57056 21.9941 8.43541V11.434C21.9941 12.222 21.4735 12.9019 20.8049 13.0584C20.7708 13.0527 20.7395 13.0385 20.7054 13.0385H12.5774V7.39986H11.3057V13.0357H3.13228C2.49217 12.8564 2 12.1964 2 11.4311V8.43257C2 7.56771 2.7027 6.77682 3.47367 6.77682H6.1479C5.7809 6.40698 5.5277 5.98594 5.42813 5.52506C5.28019 4.83659 5.45089 4.09122 5.92884 3.3743C6.40678 2.65453 7.02982 2.19935 7.73536 2.05141C8.4409 1.90347 9.2005 2.07701 9.93449 2.54358C10.7538 3.0642 11.4138 4.22777 11.8577 5.24341C12.3043 4.22493 12.9615 3.0642 13.7808 2.54358C14.5148 2.07701 15.2772 1.90347 15.9799 2.05141C16.6826 2.1965 17.3085 2.65453 17.7865 3.3743C18.2644 4.09406 18.438 4.83659 18.2872 5.52506C18.1876 5.98594 17.9344 6.40414 17.5646 6.77682H20.5204V6.77967Z" fill="#86888C"/>
</svg>
