<svg width="20" height="20" viewBox="0 0 20 20" fill="none" xmlns="http://www.w3.org/2000/svg">
<path fill-rule="evenodd" clip-rule="evenodd" d="M15.2208 8.44508C14.7883 8.44508 14.4263 8.31531 14.1736 8.06716C13.9232 7.82584 13.7934 7.4798 13.7934 7.07228V6.14798L16.1565 8.44508H15.2208ZM11.7945 4.67957H8.54582C7.99032 4.67957 7.50541 5.15993 7.50541 5.70632V13.8293L4.01537 13.8429L4.01764 3.0222L11.7945 3.00854V4.67957ZM17.6272 8.5794C17.5976 8.46917 17.5395 8.36868 17.4587 8.28799L13.9437 4.87308C13.8162 4.74787 13.6431 4.67957 13.4656 4.67957H12.8122V3.00854C12.8122 2.46215 12.3455 2 11.7923 2H4.01992C3.4667 2 3 2.46215 3 3.00854V13.8429C3 14.3779 3.47581 14.8492 4.01764 14.8492H7.50541V16.9733C7.50541 17.531 7.98122 18 8.54582 18H16.6278C17.1924 18 17.6659 17.531 17.6659 16.9733V8.77974C17.6659 8.71144 17.6522 8.64314 17.6272 8.5794Z" fill="#86888C"/>
</svg>
