<svg width="28" height="28" viewBox="0 0 28 28" fill="none" xmlns="http://www.w3.org/2000/svg">
<path fill-rule="evenodd" clip-rule="evenodd" d="M21.3312 11.6676C20.6824 11.6676 20.1394 11.473 19.7604 11.1007C19.3847 10.7388 19.1901 10.2197 19.1901 9.60842V8.22197L22.7348 11.6676H21.3312ZM16.1918 6.01935H11.3187C10.4855 6.01935 9.75811 6.7399 9.75811 7.55948V19.7439L4.52305 19.7644L4.52647 3.5333L16.1918 3.51281V6.01935ZM24.9408 11.8691C24.8963 11.7038 24.8092 11.553 24.6881 11.432L19.4155 6.30962C19.2242 6.1218 18.9647 6.01935 18.6983 6.01935H17.7183V3.51281C17.7183 2.69323 17.0182 2 16.1884 2H4.52988C3.70006 2 3 2.69323 3 3.51281V19.7644C3 20.5669 3.71372 21.2738 4.52647 21.2738H9.75811V24.4599C9.75811 25.2965 10.4718 26 11.3187 26H23.4417C24.2886 26 24.9989 25.2965 24.9989 24.4599V12.1696C24.9989 12.0672 24.9784 11.9647 24.9408 11.8691Z" fill="#86888C"/>
</svg>
