<svg width="24" height="24" viewBox="0 0 24 24" fill="none" xmlns="http://www.w3.org/2000/svg">
<path fill-rule="evenodd" clip-rule="evenodd" d="M13.5726 13.1044C12.2125 14.6779 12.1613 14.7405 12.1613 16.2088C12.1613 16.4336 11.9791 16.6157 11.7543 16.6157H11.3048C11.1084 16.6157 10.9405 16.4791 10.9064 16.2856C10.8666 16.0836 10.8495 15.8901 10.8495 15.6426C10.8495 14.5414 11.2365 13.8897 12.1043 12.8454L12.2694 12.6463C13.6978 10.956 13.9681 10.4865 13.9681 9.68695C13.9681 9.1207 13.8059 8.75078 13.4247 8.44631C13.2056 8.27274 12.8214 8.07071 11.7714 8.07071C11.2023 8.07071 10.6958 8.13616 10.0784 8.29266C9.97022 8.31827 9.85356 8.30119 9.75966 8.23859C9.66576 8.17884 9.60031 8.08209 9.58039 7.97112L9.51495 7.62112C9.4808 7.43901 9.57186 7.2569 9.73974 7.17723C10.1239 6.99511 11.0629 6.80731 11.9706 6.80731C12.9267 6.80731 13.6893 7.02072 14.2413 7.43616C14.9498 7.95689 15.2828 8.67965 15.2828 9.70402C15.2799 10.956 14.7592 11.7016 13.5726 13.1044ZM11.5865 19.4185C11.043 19.4185 10.6987 19.0799 10.6987 18.5791V18.5137C10.6987 18.01 11.0515 17.6572 11.5552 17.6572C12.093 17.6572 12.443 18.01 12.443 18.5137C12.443 19.0828 12.0987 19.4185 11.5865 19.4185ZM12.406 3.04557C12.1271 3.03988 11.7942 3.03134 11.4983 3.03703C9.91047 3.05126 2 3.59475 2 13.0048C2 22.4177 9.96453 23.0095 11.5609 23.0323C11.6548 23.0352 11.7543 23.0352 11.8483 23.0352C12.056 23.0352 12.2608 23.0323 12.4373 23.0295C14.0336 23.001 21.9953 22.3835 21.9953 13.0617C21.9981 3.74556 14.008 3.08256 12.406 3.04557Z" fill="#86888C"/>
</svg>
