<svg width="28" height="28" viewBox="0 0 28 28" fill="none" xmlns="http://www.w3.org/2000/svg">
<path fill-rule="evenodd" clip-rule="evenodd" d="M25.7054 20.3316C26.0982 20.7243 26.0982 21.3561 25.7054 21.7487L21.754 25.7063C21.5593 25.9044 21.3031 26 21.047 26C20.7908 26 20.5347 25.9044 20.34 25.7063L18.267 23.6302L16.0744 23.5005C15.8285 23.4868 15.5996 23.3809 15.4255 23.2102L12.4268 20.2087C12.0375 19.816 12.0375 19.1843 12.4268 18.7916L12.8845 18.3307L11.2486 16.6916C11.0607 16.5038 10.9549 16.2511 10.9549 15.9814C10.9549 15.715 11.0607 15.4623 11.2486 15.2711L15.2 11.3101C15.5894 10.9174 16.2246 10.9174 16.614 11.3101L18.2499 12.9491L18.7075 12.4916C19.0969 12.0989 19.7321 12.0989 20.1215 12.4916L23.1167 15.4931C23.2806 15.657 23.383 15.8755 23.4035 16.1043L23.6085 18.235L25.7054 20.3316ZM14.0798 9.95789C14.0628 9.97837 14.0457 9.99545 14.0286 10.0125L8.9091 15.1379C8.71443 15.3326 8.45829 15.4316 8.20214 15.4316C7.946 15.4316 7.68985 15.3326 7.49518 15.1379L4.66392 12.3003C4.49315 12.1296 4.38728 11.9008 4.37362 11.6584L4.23701 9.62325L2.29371 7.67347C2.10587 7.48567 2 7.22957 2 6.96322C2 6.69688 2.10587 6.44078 2.29371 6.25297L6.24519 2.29195C6.63453 1.90268 7.26977 1.90268 7.65911 2.29195L9.58874 4.22466L11.6891 4.28612C11.9453 4.29295 12.1878 4.3988 12.3654 4.57978L15.1966 7.41737C15.5894 7.80664 15.5894 8.44177 15.1966 8.83446L14.0798 9.95789Z" fill="#86888C"/>
</svg>
