<svg width="24" height="24" viewBox="0 0 24 24" fill="none" xmlns="http://www.w3.org/2000/svg">
<path fill-rule="evenodd" clip-rule="evenodd" d="M21.7545 17.2764C22.0818 17.6036 22.0818 18.13 21.7545 18.4573L18.4616 21.7553C18.2994 21.9203 18.086 22 17.8725 22C17.659 22 17.4456 21.9203 17.2834 21.7553L15.5558 20.0252L13.7286 19.9171C13.5237 19.9057 13.333 19.8175 13.1879 19.6752L10.689 17.1739C10.3646 16.8467 10.3646 16.3203 10.689 15.993L11.0704 15.6089L9.70714 14.243C9.55061 14.0865 9.46238 13.8759 9.46238 13.6511C9.46238 13.4292 9.55061 13.2186 9.70714 13.0593L13 9.75841C13.3245 9.43117 13.8539 9.43117 14.1783 9.75841L15.5416 11.1243L15.9229 10.743C16.2474 10.4157 16.7768 10.4157 17.1012 10.743L19.5972 13.2442C19.7338 13.3808 19.8192 13.5629 19.8363 13.7536L20.007 15.5292L21.7545 17.2764ZM12.0665 8.63157C12.0523 8.64864 12.0381 8.66287 12.0238 8.6771L7.75759 12.9483C7.59536 13.1105 7.38191 13.193 7.16845 13.193C6.955 13.193 6.74154 13.1105 6.57932 12.9483L4.21993 10.5836C4.07763 10.4413 3.9894 10.2507 3.97801 10.0487L3.86417 8.35271L2.24476 6.72789C2.08823 6.57139 2 6.35797 2 6.13602C2 5.91406 2.08823 5.70065 2.24476 5.54414L5.53766 2.2433C5.86211 1.9189 6.39148 1.9189 6.71593 2.2433L8.32395 3.85388L10.0743 3.9051C10.2877 3.91079 10.4898 3.999 10.6378 4.14982L12.9972 6.51448C13.3245 6.83887 13.3245 7.36814 12.9972 7.69538L12.0665 8.63157Z" fill="#86888C"/>
</svg>
