<svg width="28" height="28" viewBox="0 0 28 28" fill="none" xmlns="http://www.w3.org/2000/svg">
<path fill-rule="evenodd" clip-rule="evenodd" d="M25.0049 6.82852C25.0049 7.15639 25.0254 14.8954 24.4584 18.2424C23.7002 22.6447 15.1757 26.7601 14.8137 26.9308C14.619 27.0231 14.3902 27.0231 14.1921 26.9308C13.8301 26.7567 5.31581 22.6413 4.55762 18.239C3.97702 14.892 3.99751 7.15298 4.00093 6.82511C4.00093 6.5997 4.1068 6.38795 4.28098 6.24793C4.45516 6.11132 4.6874 6.06009 4.90256 6.11473C6.86976 6.42552 7.908 5.72539 9.22288 4.84425C10.5173 3.9836 11.9824 3 14.4995 3H14.5063C17.0234 3.00342 18.4851 3.9836 19.7795 4.85108C21.0944 5.73222 22.136 6.42894 24.1271 6.11473C24.537 6.04643 24.9263 6.32648 24.9946 6.73631L25.0049 6.82852ZM12.6894 17.2963L10.2441 14.8237C9.964 14.5402 9.50977 14.5368 9.2263 14.8134L9.21605 14.8237C8.93258 15.1106 8.93258 15.575 9.21605 15.8619L12.1771 18.8571C12.4571 19.1406 12.9182 19.1406 13.1983 18.8605L13.2017 18.8571L19.7932 12.1905C20.0766 11.9036 20.0766 11.4391 19.7932 11.1523C19.5131 10.8688 19.0589 10.8654 18.7754 11.142L18.7652 11.1523C18.7617 11.1488 12.6894 17.2963 12.6894 17.2963Z" fill="#86888C"/>
</svg>
