<svg width="24" height="24" viewBox="0 0 24 24" fill="none" xmlns="http://www.w3.org/2000/svg">
<path fill-rule="evenodd" clip-rule="evenodd" d="M11.7479 22C11.6597 22 11.5687 21.9801 11.4861 21.9402C10.7292 21.5788 4.08431 18.3062 3.46393 14.6978C2.983 11.9118 3.00008 5.47183 3.00008 5.19863C3.00008 5.00512 3.08829 4.82584 3.23912 4.70632C3.38994 4.58964 3.5863 4.5498 3.76843 4.59533C5.3962 4.85714 6.25562 4.27376 7.3484 3.53956C8.42694 2.81673 9.64777 2 11.7451 2H11.7536C13.851 2.00285 15.0718 2.81958 16.1475 3.5424C17.2403 4.27661 18.1054 4.85145 19.7559 4.59249C19.9323 4.56403 20.1287 4.61241 20.2653 4.73193C20.4019 4.85145 20.4958 5.01935 20.4987 5.20148C20.4987 5.47467 20.5157 11.9146 20.0433 14.7006C19.423 18.309 12.7696 21.5817 12.0126 21.9431C11.9272 21.9801 11.8362 22 11.7479 22Z" fill="#86888C"/>
</svg>
