<svg width="24" height="24" viewBox="0 0 24 24" fill="none" xmlns="http://www.w3.org/2000/svg">
<path fill-rule="evenodd" clip-rule="evenodd" d="M20.5041 5.19044C20.5041 5.46366 20.5211 11.9128 20.0487 14.702C19.4169 18.3706 12.3131 21.8001 12.0114 21.9424C11.8492 22.0192 11.6585 22.0192 11.4934 21.9424C11.1917 21.7972 4.09651 18.3677 3.46468 14.6991C2.98085 11.91 2.99793 5.46081 3.00077 5.18759C3.00077 4.99975 3.089 4.82329 3.23415 4.70661C3.3793 4.59276 3.57283 4.55007 3.75213 4.59561C5.39146 4.8546 6.25667 4.27116 7.3524 3.53687C8.43106 2.81967 9.65202 2 11.7496 2H11.7553C13.8528 2.00285 15.0709 2.81967 16.1496 3.54257C17.2453 4.27685 18.1134 4.85745 19.7726 4.59561C20.1141 4.53869 20.4386 4.77207 20.4955 5.11359L20.5041 5.19044ZM10.2412 13.9136L8.20337 11.8531C7.97 11.6168 7.59147 11.614 7.35525 11.8445L7.34671 11.8531C7.11049 12.0921 7.11049 12.4792 7.34671 12.7183L9.81425 15.2143C10.0476 15.4505 10.4318 15.4505 10.6652 15.2171L10.6681 15.2143L16.161 9.65876C16.3972 9.41969 16.3972 9.03262 16.161 8.79355C15.9276 8.55733 15.5491 8.55448 15.3128 8.78501L15.3043 8.79355C15.3015 8.79071 10.2412 13.9136 10.2412 13.9136Z" fill="#86888C"/>
</svg>
