<svg width="24" height="24" viewBox="0 0 24 24" fill="none" xmlns="http://www.w3.org/2000/svg">
<path d="M18.0541 2H10.7547C9.63062 2 8.81389 2.27596 8.26181 2.84495C7.71827 3.40256 7.45361 4.21906 7.45361 5.34282V5.34566C6.99545 5.36558 6.63403 5.74111 6.63688 6.19915V6.73115C6.56005 6.75391 6.48606 6.77667 6.41207 6.80228L6.05065 6.44097C5.7177 6.10811 5.17701 6.10811 4.84405 6.44097L4.09846 7.1835C3.76551 7.51636 3.76551 8.0569 4.09846 8.38976L4.45987 8.75107C4.43426 8.82504 4.40865 8.899 4.38873 8.97582H3.85373C3.38133 8.97582 3 9.35704 3 9.8293V10.8819C3 11.3542 3.38133 11.7354 3.85373 11.7354H4.38589C4.40865 11.8122 4.43142 11.8862 4.45703 11.9602L4.09562 12.3215C3.76266 12.6543 3.76266 13.1949 4.09562 13.5277L4.84121 14.2703C5.17416 14.6031 5.71485 14.6031 6.04781 14.2703L6.40922 13.909C6.48321 13.9346 6.5572 13.9602 6.63404 13.9801V14.5178C6.63404 14.9758 6.99545 15.3514 7.45077 15.3713V18.6572C7.45077 20.9075 8.52931 22 10.7518 22H18.0512C20.2738 22 21.3523 20.9075 21.3523 18.6572V5.34282C21.3552 3.12376 20.2453 2 18.0541 2ZM12.1776 10.8848H10.9425C10.8884 11.3855 10.7547 11.8065 10.5498 12.1479L11.3324 12.9303L10.5896 13.6757L9.80706 12.8933C9.45703 13.1038 9.03586 13.2347 8.54354 13.2859V14.5178H7.49061V13.2831C7.00114 13.229 6.57712 13.101 6.22709 12.8905L5.44451 13.6728L4.69892 12.9303L5.4815 12.1479C5.27376 11.8065 5.14286 11.3855 5.08879 10.8848H3.85373V9.83215H5.08879C5.14286 9.33144 5.27661 8.91038 5.4815 8.56899L4.70176 7.78663L5.44735 7.0441L6.22994 7.82646C6.57997 7.61593 7.00114 7.48506 7.49345 7.43385V6.19915H8.54639V7.43385C9.03586 7.48791 9.45987 7.61593 9.8099 7.82646L10.5925 7.0441L11.3352 7.78663L10.5498 8.57183C10.7575 8.91323 10.8913 9.33428 10.9425 9.83499H12.1776V10.8848ZM15.14 19.2376C14.9693 19.4111 14.7217 19.4936 14.4143 19.4936C14.107 19.4936 13.8594 19.4111 13.6887 19.2376C13.5322 19.0782 13.4439 18.8393 13.4439 18.5206C13.4439 17.8549 13.8253 17.5477 14.4143 17.5477C15.0034 17.5477 15.3847 17.8578 15.3847 18.5206C15.3847 18.8421 15.2965 19.0782 15.14 19.2376Z" fill="#86888C"/>
<path d="M8.01708 8.88193C7.08083 8.88193 6.54013 9.34851 6.54013 10.3585C6.54013 11.3684 7.08083 11.835 8.01708 11.835C8.95334 11.835 9.49403 11.3684 9.49403 10.3585C9.49403 9.34851 8.95334 8.88193 8.01708 8.88193Z" fill="#86888C"/>
</svg>
