<svg width="20" height="20" viewBox="0 0 20 20" fill="none" xmlns="http://www.w3.org/2000/svg">
<path fill-rule="evenodd" clip-rule="evenodd" d="M9.99772 2C15.2316 2 18 4.76836 18 10.0023C18 15.2339 15.2316 18 9.99772 18C4.76608 18 2 15.2339 2 10.0023C2 4.76836 4.76608 2 9.99772 2ZM11.5595 5.31246C11.3978 5.18042 11.177 5.1531 10.988 5.24417C10.8036 5.3284 10.6853 5.51281 10.6853 5.7177V6.54639H7.69152C7.48207 6.54639 7.28628 6.62834 7.1383 6.77405C6.99032 6.91975 6.90837 7.12009 6.91064 7.32726V14.1912C6.91064 14.3756 7.0609 14.5236 7.24303 14.5236H9.6494C9.83381 14.5236 9.98179 14.3734 9.98179 14.1912V9.76323H10.6875V10.5851C10.6875 10.7877 10.8059 10.9721 10.988 11.0586C11.177 11.1474 11.3956 11.1224 11.5845 10.9676L14.0774 8.55435C14.1958 8.45418 14.2641 8.30848 14.2664 8.15367C14.2686 8.00797 14.2049 7.8691 14.0979 7.7712L11.5595 5.31246Z" fill="#86888C"/>
</svg>
