<svg width="28" height="28" viewBox="0 0 28 28" fill="none" xmlns="http://www.w3.org/2000/svg">
<path fill-rule="evenodd" clip-rule="evenodd" d="M19.8009 17.5701C19.7466 17.5701 19.6923 17.5735 19.638 17.5735H19.5158C17.9 17.5496 16.0161 16.583 16.0161 13.9327C16.0161 13.7722 16.0229 13.6185 16.0365 13.4716C16.2402 11.1628 18.0256 10.326 19.4954 10.3124C19.5836 10.3124 19.6991 10.3124 19.7907 10.3158C21.3012 10.3499 23.0052 11.1765 23.2564 13.3828C23.2767 13.5604 23.2869 13.7517 23.2869 13.9532C23.2937 16.5728 21.4098 17.5393 19.8009 17.5701ZM16.8138 20.8147C16.4133 20.9855 15.9517 20.7976 15.7785 20.3946L15.3373 19.3495C15.1675 18.9499 15.3576 18.4854 15.7582 18.3181C16.1587 18.1507 16.6203 18.3351 16.7935 18.7382L17.2313 19.7833C17.4045 20.1829 17.2144 20.6439 16.8138 20.8147ZM14.5667 19.3495L14.1255 20.3912C13.9557 20.7942 13.4941 20.9821 13.0902 20.8113C12.6896 20.6439 12.5029 20.1863 12.6659 19.7833V19.7798L13.1072 18.7347C13.2803 18.3351 13.7419 18.1507 14.1424 18.3146C14.5498 18.4888 14.7365 18.9499 14.5667 19.3495ZM10.3543 17.5701C10.3 17.5701 10.2457 17.5735 10.1914 17.5735H10.0726C8.45684 17.5496 6.57295 16.583 6.57295 13.9327C6.57295 13.7722 6.57974 13.6185 6.59331 13.4716C6.79698 11.1628 8.58582 10.326 10.0522 10.3124C10.1506 10.309 10.2593 10.3124 10.3475 10.3158C11.858 10.3499 13.562 11.1765 13.8166 13.3828C13.8369 13.5604 13.8471 13.7517 13.8471 13.9532C13.8471 16.5728 11.9666 17.5393 10.3543 17.5701ZM15.395 3.01366C15.0657 3 14.6923 3 14.3529 3C12.1601 3.01025 4 3.76846 4 13.878C4 18.9806 6.10113 21.7164 8.46023 23.1611V23.9501C8.46023 24.9508 8.75215 25.7329 9.33598 26.2418C9.88587 26.7438 10.6903 27 11.7188 27H18.1852C19.2103 27 20.0046 26.7438 20.5544 26.2418C21.1247 25.7295 21.4064 24.9508 21.4064 23.9466V23.1508C23.7655 21.6959 25.8667 18.9806 25.8667 13.9361C25.8667 3.9085 17.53 3.05806 15.395 3.01366Z" fill="#86888C"/>
</svg>
