<svg width="20" height="20" viewBox="0 0 20 20" fill="none" xmlns="http://www.w3.org/2000/svg">
<path fill-rule="evenodd" clip-rule="evenodd" d="M16.4241 5C15.5546 5 14.849 5.70334 14.8467 6.57284C14.8467 6.95296 14.9879 7.29894 15.2155 7.5698L13.2716 10.8202C13.151 10.7906 13.0303 10.7747 12.9074 10.7747C12.4499 10.7747 12.0402 10.975 11.7534 11.2868L8.39833 9.81639C8.40061 9.77314 8.41199 9.73217 8.41199 9.68665C8.41199 8.81942 7.70637 8.11381 6.8346 8.11381C5.9651 8.11381 5.25948 8.81715 5.25721 9.68665C5.25721 10.0736 5.40971 10.4378 5.66009 10.7223L3.86874 13.8839C3.77314 13.8657 3.67527 13.8543 3.57739 13.8543C2.70789 13.8543 2.00228 14.5577 2 15.4272C2.00228 16.2944 2.70789 17 3.57967 17C4.44917 17 5.15478 16.2967 5.15706 15.4272C5.15706 15.0266 5.00228 14.6669 4.75417 14.3892L6.55008 11.2231C6.6434 11.2413 6.739 11.2595 6.8346 11.2595C7.29211 11.2595 7.70182 11.0592 7.9909 10.7473L11.3437 12.2155C11.3414 12.2587 11.33 12.2997 11.33 12.3452C11.33 13.2147 12.0357 13.9226 12.9052 13.9226C13.7747 13.9226 14.4825 13.217 14.4825 12.3475V12.3452C14.4825 11.9742 14.3483 11.6373 14.132 11.3687L16.0804 8.10698C16.1897 8.13202 16.3035 8.14795 16.4219 8.14795C17.2914 8.14795 17.9947 7.44461 17.997 6.57511C17.9992 5.70561 17.2936 5 16.4241 5Z" fill="#86888C"/>
</svg>
