<svg width="40" height="40" viewBox="0 0 40 40" fill="none" xmlns="http://www.w3.org/2000/svg">
<path fill-rule="evenodd" clip-rule="evenodd" d="M35.6563 5C33.6275 5 31.981 6.64112 31.9757 8.66995C31.9757 9.5569 32.305 10.3642 32.8361 10.9962L28.3005 18.5804C28.019 18.5114 27.7375 18.4742 27.4507 18.4742C26.3832 18.4742 25.4272 18.9416 24.758 19.6692L16.9294 16.2382C16.9348 16.1373 16.9613 16.0417 16.9613 15.9355C16.9613 13.912 15.3149 12.2656 13.2807 12.2656C11.2519 12.2656 9.60546 13.9067 9.60015 15.9355C9.60015 16.8384 9.95599 17.6882 10.5402 18.352L6.36039 25.7291C6.13733 25.6866 5.90895 25.6601 5.68058 25.6601C3.65174 25.6601 2.00531 27.3012 2 29.33C2.00531 31.3536 3.65175 33 5.68589 33C7.71472 33 9.36115 31.3589 9.36647 29.33C9.36647 28.3953 9.00531 27.5561 8.4264 26.9082L12.6168 19.5205C12.8346 19.563 13.0577 19.6055 13.2807 19.6055C14.3483 19.6055 15.3043 19.1381 15.9788 18.4105L23.802 21.8361C23.7967 21.937 23.7701 22.0326 23.7701 22.1388C23.7701 24.1677 25.4165 25.8194 27.4454 25.8194C29.4742 25.8194 31.1259 24.173 31.1259 22.1442V22.1388C31.1259 21.2731 30.8126 20.4871 30.308 19.8604L34.8543 12.2496C35.1093 12.308 35.3748 12.3452 35.651 12.3452C37.6798 12.3452 39.3209 10.7041 39.3263 8.67527C39.3316 6.64643 37.6851 5 35.6563 5Z" fill="#86888C"/>
</svg>
