<svg width="20" height="20" viewBox="0 0 20 20" fill="none" xmlns="http://www.w3.org/2000/svg">
<path fill-rule="evenodd" clip-rule="evenodd" d="M9.88178 3.51648V4.35576H5.40321V3.51648C5.40321 3.23194 5.63276 3 5.9173 3H9.36769C9.65223 3 9.88178 3.23194 9.88178 3.51648ZM12.7081 14.6208C13.2772 14.6208 13.7387 14.1546 13.7387 13.5831C13.7387 13.0116 13.2772 12.5453 12.7081 12.5453C12.139 12.5453 11.6775 13.0116 11.6775 13.5831C11.6775 14.1546 12.139 14.6208 12.7081 14.6208ZM9.26248 14.6208C9.83156 14.6208 10.293 14.1546 10.293 13.5831C10.293 13.0116 9.82917 12.5453 9.26248 12.5453C8.69339 12.5453 8.2319 13.0116 8.2319 13.5831C8.2319 14.1546 8.69578 14.6208 9.26248 14.6208ZM5.81688 14.6208C6.38596 14.6208 6.84745 14.1546 6.84745 13.5831C6.84745 13.0116 6.38596 12.5453 5.81688 12.5453C5.24779 12.5453 4.7863 13.0116 4.7863 13.5831C4.7863 14.1546 5.25018 14.6208 5.81688 14.6208ZM18.2913 10.1997C18.5759 10.1997 18.8054 10.4316 18.8054 10.7161C18.8054 12.9877 18.222 14.6926 17.0719 15.7853C15.8811 16.9187 14.4703 17 14.0901 17C14.0352 17 14.0017 16.9976 13.9945 16.9976H3.39945C2.58408 16.9976 2.2565 16.2492 2.23259 15.7471L2.00065 10.7209C1.99348 10.5798 2.04608 10.4412 2.14173 10.3383C2.23976 10.2355 2.37366 10.1781 2.51235 10.1781L3.66009 10.1805L3.67682 8.10982C3.66009 7.93527 3.70073 7.70094 3.85855 7.50965C3.9781 7.36379 4.20765 7.18685 4.6261 7.18207C4.73609 7.17968 5.02063 7.17968 5.40082 7.17728V5.38873H9.87939V7.17968C10.9195 7.18207 11.7277 7.18207 11.821 7.18207C11.8592 7.18446 13.2748 7.13185 14.2743 8.09786C14.8147 8.61913 15.1112 9.32929 15.1877 10.1949L18.2913 10.1997ZM5.81688 13.234C6.00816 13.234 6.16359 13.3894 6.16359 13.5807C6.16359 13.772 6.00816 13.9274 5.81688 13.9274C5.62559 13.9274 5.47255 13.772 5.47255 13.5807C5.47255 13.3894 5.62798 13.234 5.81688 13.234ZM9.26248 13.234C9.45377 13.234 9.6068 13.3894 9.6068 13.5807C9.6068 13.772 9.45138 13.9274 9.26248 13.9274C9.07119 13.9274 8.91816 13.772 8.91816 13.5807C8.91816 13.3894 9.07358 13.234 9.26248 13.234ZM12.7081 13.234C12.8994 13.234 13.0548 13.3894 13.0548 13.5807C13.0548 13.772 12.8994 13.9274 12.7081 13.9274C12.5168 13.9274 12.3638 13.772 12.3638 13.5807C12.3638 13.3894 12.5168 13.234 12.7081 13.234Z" fill="#86888C"/>
</svg>
