<svg width="20" height="20" viewBox="0 0 20 20" fill="none" xmlns="http://www.w3.org/2000/svg">
<path fill-rule="evenodd" clip-rule="evenodd" d="M7.99658 2.68526C7.81673 2.68298 7.67331 2.52817 7.67558 2.33694C7.67786 2.15026 7.82129 2 8.00114 2H8.30165C8.63404 2 8.91634 2.23449 9.0074 2.58509C9.03699 2.69892 9.07797 2.90837 9.12351 3.15196H11.4525C11.5549 3.15196 11.6505 3.20205 11.712 3.28856C11.7735 3.37507 11.7917 3.48435 11.7644 3.58907C11.7644 3.58907 11.5367 4.43142 11.4138 4.86853C11.2954 5.2988 11.0063 5.55606 10.6443 5.55606H9.52874C9.05521 5.55606 8.77974 5.10985 8.72055 4.6955C8.68412 4.45874 8.60444 3.98976 8.53159 3.56631C8.52931 3.55948 8.52931 3.55265 8.52703 3.54354C8.46784 3.20433 8.40865 2.89698 8.3745 2.76266C8.35401 2.68754 8.3062 2.68298 8.29482 2.68298C8.13546 2.68754 7.99658 2.68526 7.99658 2.68526ZM9.572 5.85657H9.59476C9.65623 5.85885 9.89528 5.88389 9.89528 6.18668C9.89528 6.49175 9.65623 6.51679 9.59704 6.51679H9.56744C9.5037 6.51451 9.26921 6.49175 9.26921 6.18441C9.26921 5.87934 9.5037 5.85657 9.56517 5.8543H9.572V5.85657ZM10.5737 5.85657H10.5965C10.6579 5.85885 10.897 5.88389 10.897 6.18668C10.897 6.49175 10.6579 6.51679 10.5987 6.51679H10.5714C10.5077 6.51451 10.2732 6.49175 10.2732 6.18441C10.2732 5.87934 10.5077 5.85657 10.5692 5.8543H10.5737V5.85657ZM15.4092 16.9323H17.0233V10.642H15.4092V16.9323ZM12.0239 16.9437V13.5492H8.17871V16.9596L12.0239 16.9437ZM9.46044 9.40808C9.32157 9.54923 9.251 9.79283 9.251 10.1298C9.251 10.4667 9.32157 10.7057 9.46044 10.8469C9.59476 10.9858 9.82015 11.0541 10.1298 11.0541C10.4394 11.0541 10.6648 10.9858 10.8014 10.8469C10.9402 10.7057 11.0108 10.4667 11.0108 10.1298C11.0108 9.79283 10.9402 9.55151 10.8014 9.41036C10.6648 9.27149 10.4394 9.20091 10.1298 9.20091C9.82015 9.20091 9.59476 9.27149 9.46044 9.40808ZM2.97894 16.9323H4.59306V10.642H2.97894V16.9323ZM17.5128 9.61298C17.7814 9.61298 18.0023 9.84291 18.0023 10.1275V17.4468C18.0023 17.7314 17.7814 17.9977 17.5105 17.9977H12.675L12.5111 18H7.68697C7.66648 18 7.65282 17.9909 7.63233 17.9886L4.7934 18H4.79112C4.7251 18 4.49061 17.9977 4.49061 17.9977H2.48947C2.22083 17.9977 2 17.7314 2 17.4468V10.1275C2 9.84291 2.21855 9.61298 2.48947 9.61298H4.77063V7.68469C4.77063 7.18156 5.26238 6.74217 5.82015 6.74217H14.3574C14.9175 6.74217 15.4069 7.18384 15.4069 7.68697V9.61525H17.5128V9.61298Z" fill="#86888C"/>
</svg>
