<svg width="28" height="28" viewBox="0 0 28 28" fill="none" xmlns="http://www.w3.org/2000/svg">
<path fill-rule="evenodd" clip-rule="evenodd" d="M21.088 8.36665L19.6573 6.92566L22.3685 4.19392L23.7992 5.63492L21.088 8.36665ZM18.0797 9.8691C17.9602 9.99886 17.7894 10.0603 17.6187 10.0603C17.4582 10.0603 17.2875 9.99886 17.1577 9.87935L15.0782 7.80323L15.9967 6.87785L18.0763 8.94373C18.3289 9.193 18.3392 9.61642 18.0797 9.8691ZM16.7377 13.5057C16.608 13.6252 16.4372 13.6969 16.2767 13.6969C16.106 13.6969 15.9387 13.6252 15.8158 13.5057L12.6162 10.2823L13.5348 9.3569L16.7343 12.5804C16.987 12.8296 16.987 13.2428 16.7377 13.5057ZM13.2479 14.9262C13.1284 15.056 12.9577 15.1277 12.7869 15.1277C12.6264 15.1277 12.4557 15.056 12.326 14.9365L10.1542 12.7613L11.0762 11.836L13.2479 14.0009C13.4972 14.2604 13.5074 14.6735 13.2479 14.9262ZM11.8855 17.8594C11.7557 17.9892 11.5952 18.0507 11.4279 18.0507C11.2674 18.0507 11.0967 17.9892 10.9669 17.8594L8.02689 14.9057L8.94544 13.977L11.8855 16.9409C12.1484 17.1936 12.1484 17.6067 11.8855 17.8594ZM9.06495 19.6624L8.30348 20.4273L7.61372 19.7307L8.37519 18.9555C8.38543 18.9453 8.38543 18.9351 8.39567 18.9248L9.09568 19.6385C9.08544 19.6521 9.07519 19.6521 9.06495 19.6624ZM25.7798 5.48467L22.5392 2.22025C22.2387 1.92658 21.7709 1.92658 21.4704 2.22025C21.2417 2.45244 21.2007 2.80415 21.3407 3.08757L18.6021 5.86028L17.2602 4.51149C16.9699 4.20758 16.4987 4.20758 16.1982 4.51149C15.9079 4.80515 15.9079 5.28662 16.1982 5.58028L16.3894 5.7715L15.6484 6.5159V6.52614L7.67518 14.5472L6.39468 15.8482C6.25468 15.9882 6.17614 16.1794 6.17614 16.3809C6.17614 16.5823 6.25468 16.7736 6.39468 16.9136L7.34396 17.8697C7.33371 17.8799 7.32347 17.8799 7.31322 17.8902L6.02248 19.2014C5.72199 19.4951 5.72199 19.9765 6.02248 20.2702L6.32297 20.5741L2.22537 24.7093C1.92488 25.0029 1.92488 25.4844 2.22537 25.778C2.36537 25.9283 2.55318 26 2.75464 26C2.94586 26 3.13367 25.9283 3.28392 25.778L7.38493 21.6361L7.77421 22.0287C7.92445 22.179 8.11567 22.2507 8.30348 22.2507C8.4947 22.2507 8.68592 22.179 8.83275 22.0287L10.1235 20.7278C10.1337 20.7175 10.1337 20.7073 10.144 20.697L11.2742 21.8341C11.4245 21.9741 11.6157 22.0561 11.8035 22.0561C12.005 22.0561 12.1928 21.9741 12.3328 21.8341L22.3344 11.7574L22.5529 11.9794C22.7031 12.1194 22.8944 12.2013 23.0822 12.2013C23.2734 12.2013 23.4612 12.1194 23.6114 11.9794C23.9017 11.6755 23.9017 11.2042 23.6114 10.9106L22.1431 9.42861L24.8817 6.66615C24.991 6.72761 25.1105 6.76517 25.2334 6.76517C25.4349 6.76517 25.6227 6.69346 25.7729 6.54322C26.07 6.2598 26.07 5.77833 25.7798 5.48467Z" fill="#86888C"/>
</svg>
