<svg width="28" height="28" viewBox="0 0 28 28" fill="none" xmlns="http://www.w3.org/2000/svg">
<path fill-rule="evenodd" clip-rule="evenodd" d="M10.8362 7.01778C10.4332 7.01778 10.1053 6.6899 10.1053 6.28689V5.0471C10.1053 4.64408 10.4332 4.3162 10.8362 4.3162C11.2392 4.3162 11.5637 4.64408 11.5637 5.0471V6.28689C11.5671 6.6899 11.2392 7.01778 10.8362 7.01778ZM12.9196 7.01778C12.5166 7.01778 12.1921 6.6899 12.1921 6.28689V5.0471C12.1921 4.64408 12.52 4.3162 12.9196 4.3162C13.3226 4.3162 13.6505 4.64408 13.6505 5.0471V6.28689C13.6471 6.6899 13.3226 7.01778 12.9196 7.01778ZM14.9996 7.01778C14.5966 7.01778 14.2721 6.6899 14.2721 6.28689V5.0471C14.2721 4.64408 14.6 4.3162 14.9996 4.3162C15.4026 4.3162 15.7271 4.64408 15.7271 5.0471V6.28689C15.7305 6.6899 15.4026 7.01778 14.9996 7.01778ZM17.083 7.01778C16.6799 7.01778 16.3555 6.6899 16.3555 6.28689V5.0471C16.3555 4.64408 16.6834 4.3162 17.083 4.3162C17.486 4.3162 17.8104 4.64408 17.8104 5.0471V6.28689C17.8104 6.6899 17.486 7.01778 17.083 7.01778ZM7.50619 11.065H20.4949C20.3378 9.9721 19.8153 9.24121 18.9307 8.88942C18.678 9.03628 18.3876 9.13191 18.0734 9.13191H9.84915C9.55884 9.13191 9.28561 9.04311 9.04312 8.91674C8.75964 9.04311 8.48983 9.18997 8.2849 9.3949C7.86481 9.79791 7.61207 10.3546 7.50619 11.065ZM16.9259 15.4914H15.1396V13.6949C15.1396 13.3841 14.8971 13.1109 14.6341 13.1109H13.145C12.8752 13.1109 12.6293 13.3841 12.6293 13.6949V15.4914H10.8396C10.5288 15.4914 10.2556 15.7236 10.2556 15.9969V17.4894C10.2556 17.7729 10.5288 18.0051 10.8396 18.0051H12.6293L12.6395 19.8016C12.6395 20.1124 12.8752 20.3856 13.145 20.3856H14.6341C14.9176 20.3856 15.1396 20.1124 15.1396 19.8016V17.9983H16.9259C17.2367 17.9983 17.5099 17.7558 17.5099 17.4928V16.0003C17.5099 15.7373 17.2367 15.4914 16.9259 15.4914ZM17.404 24.6378C18.999 24.6378 19.9895 24.0026 20.3583 22.7559H7.63256C7.76918 23.2034 7.98093 23.5756 8.27465 23.8659C8.81087 24.3714 9.59641 24.6378 10.6176 24.6378H17.404ZM9.57592 3.83122V7.40031C9.57592 7.54717 9.69204 7.67354 9.84915 7.67354H18.0734C18.2203 7.67354 18.3467 7.54717 18.3467 7.40031V3.83122C18.3467 3.68435 18.2203 3.55798 18.0734 3.55798H9.84915C9.69204 3.55798 9.57592 3.68435 9.57592 3.83122ZM19.7743 7.66329C21.2156 8.37369 22.0011 9.81841 22.0011 11.8062L21.9909 21.4581C21.9909 24.3646 20.2798 26.0996 17.404 26.0996H10.6176C9.19681 26.0996 8.06973 25.7 7.2637 24.9213C6.42692 24.1016 6 22.9404 6 21.4615V11.8096C6 10.3273 6.43034 9.16607 7.27394 8.34979C7.52668 8.09705 7.82724 7.90237 8.14829 7.72477C8.13121 7.61889 8.11755 7.5096 8.11755 7.40372V3.83463C8.11755 2.87832 8.89626 2.09961 9.84915 2.09961H18.0734C19.0263 2.09961 19.805 2.87832 19.805 3.83463V7.40372C19.8016 7.48911 19.7845 7.57449 19.7743 7.66329Z" fill="#86888C"/>
</svg>
