<svg width="20" height="20" viewBox="0 0 20 20" fill="none" xmlns="http://www.w3.org/2000/svg">
<path fill-rule="evenodd" clip-rule="evenodd" d="M5.69679 3.47904C5.51917 3.58835 4.98173 3.9231 4.98173 5.13916V14.2095H15.0381C15.0381 10.764 15.0335 5.13005 15.0335 5.13005C15.0335 5.10044 15.0358 5.07084 15.0381 5.03896C15.0381 5.03896 15.0882 4.21459 14.6214 3.69538C14.323 3.36518 13.8334 3.19666 13.1639 3.19666L6.86275 3.19894C6.83997 3.19894 6.81948 3.19666 6.79671 3.19666H6.76255C6.6168 3.19438 6.11808 3.21488 5.69679 3.47904ZM15.9991 5.12777C15.9991 5.12777 16.0037 12.0438 16.0037 15.2365C16.0037 18.0216 13.8289 18.1992 13.2732 18.1992C13.1912 18.1992 13.1457 18.1969 13.1457 18.1969C13.1457 18.1969 10.0919 18.1992 6.87413 18.1992C3.65637 18.1992 4.01162 15.2411 4.01162 15.2411V5.14371C4.01162 2.35635 6.25244 2.19922 6.75799 2.19922C6.82176 2.19922 6.85819 2.2015 6.85819 2.2015C6.85819 2.2015 10.0668 2.19922 13.1594 2.19922C16.2541 2.19694 15.9991 5.12777 15.9991 5.12777ZM10.0031 15.5326C9.58634 15.5326 9.33585 15.7831 9.33585 16.1998C9.33585 16.4025 9.39278 16.5664 9.50892 16.6848C9.62733 16.8033 9.79813 16.867 10.0031 16.867C10.208 16.867 10.3788 16.8033 10.4972 16.6848C10.6134 16.5664 10.6703 16.4025 10.6703 16.1998C10.6703 15.7831 10.4198 15.5326 10.0031 15.5326Z" fill="#86888C"/>
</svg>
