<svg width="24" height="24" viewBox="0 0 24 24" fill="none" xmlns="http://www.w3.org/2000/svg">
<path fill-rule="evenodd" clip-rule="evenodd" d="M18.1383 12.6175C17.8054 12.6175 17.5293 12.3415 17.5293 12.0085C17.5293 11.667 17.8054 11.3995 18.1383 11.3995H18.6079C18.3318 6.26295 14.3591 5.38645 12.609 5.25555V5.86454C12.609 6.20603 12.333 6.47354 12 6.47354C11.6585 6.47354 11.391 6.20603 11.391 5.86454V5.23847C9.80592 5.27832 5.51736 5.93853 5.25555 11.3995H5.85885C6.20034 11.3995 6.46784 11.667 6.46784 12.0085C6.46784 12.3415 6.20034 12.6175 5.85885 12.6175H5.26409C5.61411 17.8509 9.76608 18.5566 11.391 18.6306V18.144C11.391 17.811 11.6585 17.535 12 17.535C12.333 17.535 12.609 17.811 12.609 18.144V18.6164C14.325 18.5111 18.2749 17.683 18.5993 12.6204H18.1383V12.6175ZM21.3882 11.3967C21.7297 11.3967 21.9972 11.6642 21.9972 12.0057C21.9972 12.3386 21.7297 12.6147 21.3882 12.6147H19.8201C19.4701 18.8725 14.3193 19.7262 12.6118 19.8315V21.391C12.6118 21.7325 12.3358 22 12.0028 22C11.6614 22 11.3939 21.7325 11.3939 21.391V19.8458C9.85145 19.7803 4.43028 19.0831 4.0461 12.6118H2.60899C2.27604 12.6118 2 12.3358 2 12.0028C2 11.6614 2.27604 11.3939 2.60899 11.3939H4.03756C4.32214 4.67217 9.91406 4.05464 11.391 4.00626V2.60899C11.391 2.27604 11.6585 2 12 2C12.333 2 12.609 2.27604 12.609 2.60899V4.03187C14.3563 4.15424 19.5242 5.07342 19.8258 11.3939H21.3882V11.3967ZM14.0888 9.78031C14.0888 10.4946 13.8924 11.041 13.5111 11.4052C13.1383 11.7553 12.609 11.9345 11.926 11.9345C11.243 11.9345 10.7137 11.7553 10.3495 11.4052C9.96813 11.0381 9.77177 10.4946 9.77177 9.78031C9.77177 9.07456 9.96813 8.52817 10.3495 8.16392C10.7166 7.80535 11.243 7.62891 11.926 7.62891C12.609 7.62891 13.1383 7.8082 13.5111 8.16392C13.8953 8.52817 14.0888 9.07456 14.0888 9.78031ZM15.7621 15.2726V15.9954C15.7621 16.1264 15.6483 16.2373 15.5088 16.2373H8.3432C8.21229 16.2373 8.09846 16.1235 8.09846 15.9954V15.2726C8.09846 14.5896 8.30905 14.0063 8.71599 13.5822C9.15424 13.1212 9.81446 12.885 10.6084 12.885H13.2408C14.0376 12.885 14.6949 13.1212 15.1332 13.5822C15.543 14.0063 15.7621 14.5925 15.7621 15.2726Z" fill="#86888C"/>
</svg>
