<svg width="28" height="28" viewBox="0 0 28 28" fill="none" xmlns="http://www.w3.org/2000/svg">
<path fill-rule="evenodd" clip-rule="evenodd" d="M25.2702 20.3556C25.6767 20.3556 26.0046 20.6869 26.0046 21.0968C26.0046 21.5066 25.6767 21.8379 25.2702 21.8379H14.4292C14.2106 22.118 13.8998 22.323 13.5343 22.3879C12.6258 22.5518 11.345 22.9002 10.4262 23.6311C10.1154 23.877 9.74649 24 9.37761 24C9.00873 24 8.63985 23.877 8.32903 23.6311C7.41025 22.9002 6.13283 22.5518 5.22087 22.3879C4.51385 22.2615 4.00152 21.6433 4.00152 20.9192V19.5085L8.34953 21.4657C8.65351 21.6057 8.97799 21.674 9.31613 21.674C9.64402 21.674 9.97875 21.6023 10.2793 21.4657L14.7503 19.4573L16.2019 18.8049C17.0558 18.4224 17.6091 17.5651 17.6091 16.619C17.6091 15.6626 17.0729 14.8224 16.2019 14.433L10.2759 11.7689C9.97192 11.6323 9.64744 11.5605 9.31272 11.5605C8.97799 11.5605 8.65693 11.6288 8.34611 11.7655L4.86566 13.3298V9.55901C4.86566 8.43871 5.16622 7.5575 5.7537 6.95294C6.36167 6.32448 7.25655 6.00683 8.41442 6.00683L22.3806 6C23.5385 6 24.4334 6.32106 25.0414 6.94611C25.6323 7.55408 25.9294 8.43188 25.9294 9.55218V16.1818C25.9294 17.3055 25.6323 18.1867 25.0414 18.8015C24.43 19.4402 23.5351 19.7647 22.3772 19.7647L14.74 19.7681V20.3556H25.2702ZM9.31613 20.6869C9.12144 20.6869 8.93017 20.6459 8.74915 20.5639L2.82657 17.8998C2.31765 17.6676 2 17.1791 2 16.6156C2 16.0554 2.31423 15.5636 2.82315 15.3347L8.74915 12.6672C9.10778 12.5066 9.52106 12.5066 9.8797 12.6672L15.8057 15.3313C16.3146 15.5602 16.6323 16.052 16.6323 16.6156C16.6323 17.1689 16.3078 17.6744 15.8057 17.8964L9.8797 20.5605C9.70209 20.6459 9.5074 20.6869 9.31613 20.6869Z" fill="#86888C"/>
</svg>
