<svg width="20" height="20" viewBox="0 0 20 20" fill="none" xmlns="http://www.w3.org/2000/svg">
<path fill-rule="evenodd" clip-rule="evenodd" d="M11.8022 9.84519C11.5199 9.84519 11.2922 10.0751 11.2922 10.3574V11.0632C11.2899 11.7325 10.748 12.2743 10.0763 12.2743H9.91917C9.24975 12.2743 8.70784 11.7325 8.70556 11.0632V10.3574C8.70556 10.0751 8.47787 9.84747 8.19553 9.84519H3.20905L4.31564 3.26807C4.32019 3.24075 4.32247 3.21116 4.32247 3.18384C4.32247 3.09733 4.39306 3.02675 4.47958 3.02675L15.5181 3.03813C15.6252 3.03813 15.7299 3.15652 15.7549 3.3045L16.7932 9.84747H11.8022V9.84519ZM17.9909 10.9357C17.9909 10.9198 17.9932 10.9084 17.9932 10.8924L16.7613 3.1292C16.6407 2.47126 16.1306 2.01138 15.5181 2.01138L4.48186 2C3.84887 2 3.32973 2.50313 3.3024 3.13375L2.00911 10.8355C2.00455 10.856 2.01138 10.8765 2.01138 10.897C2.00683 10.938 2 10.9789 2 11.0199V16.8162C2 17.4696 2.53053 18 3.17945 18H16.8205C17.4718 18 18 17.4696 18 16.8162V11.0222C18 10.9949 17.9932 10.963 17.9909 10.9357Z" fill="#86888C"/>
</svg>
