<svg width="40" height="40" viewBox="0 0 40 40" fill="none" xmlns="http://www.w3.org/2000/svg">
<path fill-rule="evenodd" clip-rule="evenodd" d="M32.5094 12.9721C32.5094 8.69493 29.5794 6.85088 26.5777 6.49232C25.2254 3.19863 21.6705 2 18.6483 2C14.9089 2 10.5703 3.84405 10.1912 9.08423C8.18839 9.93455 7.0922 11.6762 7.0922 14.0734C7.0922 15.8406 7.67615 17.0239 8.38816 17.8025C7.46613 18.8936 7 20.3227 7 22.0541C7 26.3569 9.92999 28.1907 12.9317 28.5287C14.0023 31.1309 16.4508 32.4115 18.9197 32.8367V36.9038C18.9197 37.5083 19.4371 38 20.0723 38C20.7075 38 21.2248 37.5083 21.2248 36.9038V33.0006C21.2248 33.0006 20.3847 32.9647 19.9647 32.934C19.5344 32.9032 18.9249 32.8367 18.9249 32.8367V28.4007L14.366 24.0364C13.9203 23.6061 13.9203 22.9146 14.3711 22.4843C14.8219 22.0592 15.5492 22.0643 16 22.4895L18.93 25.2914V15.9431C18.93 15.3386 19.4474 14.8469 20.0825 14.8469C20.7177 14.8469 21.2351 15.3386 21.2351 15.9431V19.2675L23.5094 16.3426C23.8884 15.856 24.6056 15.7536 25.1178 16.1121C25.6301 16.4707 25.7376 17.1571 25.3586 17.6437L21.276 22.9044C21.2658 22.9198 21.2453 22.9249 21.2351 22.9402V33.0108C24.8873 32.893 28.9596 31.008 29.3233 25.9419C30.7319 25.3478 32.4223 24.0006 32.4223 20.9528C32.4223 19.1855 31.8384 18.0023 31.1264 17.2237C32.0433 16.1172 32.5094 14.6983 32.5094 12.9721Z" fill="#86888C"/>
</svg>
