<svg width="20" height="20" viewBox="0 0 20 20" fill="none" xmlns="http://www.w3.org/2000/svg">
<path d="M14.9166 14.2472H4.73555C3.84459 14.2472 3.15511 13.9981 2.68277 13.5066C2.22834 13.0331 2 12.3598 2 11.5025V6.72227C2 4.96503 2.97155 4 4.73555 4L14.9166 4.00673C16.6806 4.00673 17.6522 4.97176 17.6522 6.72676V11.507C17.6522 12.3643 17.4216 13.0376 16.9672 13.5089C16.4971 13.9981 15.8076 14.2472 14.9166 14.2472Z" fill="#86888C"/>
<path d="M11.7759 16H7.86733C7.62108 16 7.42185 15.8003 7.42185 15.5534C7.42185 15.3065 7.62108 15.1068 7.86733 15.1068H11.7759C12.0221 15.1068 12.2214 15.3065 12.2214 15.5534C12.2214 15.8003 12.0221 16 11.7759 16Z" fill="#86888C"/>
</svg>
