<svg width="40" height="40" viewBox="0 0 40 40" fill="none" xmlns="http://www.w3.org/2000/svg">
<path d="M32.1388 31.9102H8.38295C6.30405 31.9102 4.69525 31.329 3.59313 30.1822C2.53278 29.0772 2 27.5063 2 25.5059V14.352C2 10.2517 4.26694 8 8.38295 8L32.1388 8.01571C36.2548 8.01571 38.5217 10.2674 38.5217 14.3624V25.5164C38.5217 27.5167 37.9837 29.0877 36.9234 30.1874C35.8265 31.329 34.2177 31.9102 32.1388 31.9102Z" fill="#86888C"/>
<path d="M24.8104 36H15.6904C15.1159 36 14.651 35.5339 14.651 34.9579C14.651 34.3819 15.1159 33.9158 15.6904 33.9158H24.8104C25.385 33.9158 25.8499 34.3819 25.8499 34.9579C25.8499 35.5339 25.385 36 24.8104 36Z" fill="#86888C"/>
</svg>
