<svg width="24" height="24" viewBox="0 0 24 24" fill="none" xmlns="http://www.w3.org/2000/svg">
<path fill-rule="evenodd" clip-rule="evenodd" d="M12.6981 5.55551C14.1068 6.18727 16.9981 8.38135 17.6526 13.5777C17.6554 13.5919 17.664 13.6033 17.664 13.6147L12.6924 13.6005C12.6953 13.6033 12.6981 5.55551 12.6981 5.55551ZM6.18135 13.5862C6.95824 8.73707 9.95198 6.3324 11.4175 5.58681L11.4232 13.6005L6.18135 13.5862ZM21.9781 11.8333C22.0521 12.2573 21.9355 12.7069 21.6566 13.0569C21.3435 13.4212 20.9053 13.6204 20.4386 13.6232L18.8877 13.6204C18.9019 13.5578 18.9076 13.4923 18.9019 13.4269C18.0852 6.94424 14.121 4.70748 12.701 4.21516C15.6606 4.34322 17.9799 5.24248 19.6133 6.91009C20.837 8.15938 21.6338 9.81845 21.9781 11.8333ZM11.4119 4.21801C10.0345 4.80139 5.81709 7.3768 4.90361 13.5777V13.5834L3.56895 13.5805C3.27583 13.5749 2.99126 13.4952 2.74083 13.3443C2.60139 13.259 2.47902 13.1508 2.37373 13.0285C2.06639 12.6557 1.94402 12.2032 2.0237 11.7678C2.38227 9.753 3.19331 8.10246 4.43121 6.86456C6.08175 5.19979 8.43234 4.31476 11.4119 4.21801ZM15.4158 20.103C15.7602 20.1002 16.0419 20.3791 16.0447 20.7234C16.0447 21.9784 15.0089 23 13.7368 23C12.4819 23 11.4545 22.0068 11.4289 20.7746L11.4261 20.7319V13.6005H12.6839V20.7234C12.6839 21.2925 13.1535 21.7593 13.734 21.7593C14.3117 21.7593 14.7812 21.2954 14.7812 20.7234C14.7898 20.3791 15.0715 20.1002 15.4158 20.103ZM12.6811 4.21516H11.4346C11.4346 4.20378 11.4289 4.19239 11.4289 4.18101V3.6204C11.4318 3.27606 11.7135 2.99718 12.0578 3.00002C12.4022 2.99718 12.6839 3.27606 12.6868 3.6204V4.17816C12.6896 4.19239 12.6839 4.20093 12.6811 4.21516Z" fill="#86888C"/>
</svg>
