<svg width="20" height="20" viewBox="0 0 20 20" fill="none" xmlns="http://www.w3.org/2000/svg">
<path d="M2.47809 7.49818C2.35587 7.49818 2.23365 7.45264 2.14019 7.35918C1.95327 7.17226 1.95327 6.86791 2.14019 6.68099L2.15457 6.66421C3.23297 5.59301 4.48391 4.75185 5.87384 4.16233C7.32129 3.54884 8.8622 3.2373 10.4486 3.2373C12.0231 3.2373 13.5544 3.54405 14.9971 4.15035C16.375 4.73029 17.6164 5.55706 18.6804 6.6067C18.8697 6.79362 18.8721 7.09557 18.6852 7.28489C18.4983 7.47421 18.1963 7.47661 18.007 7.28968C17.0293 6.32632 15.891 5.56664 14.6256 5.03463C13.3004 4.47866 11.8937 4.19588 10.4486 4.19588C8.98922 4.19588 7.57771 4.48106 6.24769 5.04422C4.97039 5.58582 3.8201 6.35747 2.83037 7.34241L2.81599 7.35679C2.72492 7.45025 2.60031 7.49818 2.47809 7.49818Z" fill="#86888C"/>
<path d="M4.59175 10.1151C4.46953 10.1151 4.34732 10.0672 4.25385 9.9737C4.06693 9.78678 4.06693 9.48243 4.25385 9.29551L4.26584 9.28352C5.06145 8.4903 5.98648 7.86723 7.01455 7.42868C8.10014 6.96617 9.25522 6.73132 10.4463 6.73132C11.6229 6.73132 12.7636 6.96137 13.842 7.4143C14.8581 7.84566 15.7759 8.45436 16.5668 9.2308C16.7561 9.41533 16.7585 9.71968 16.5739 9.909C16.3894 10.0983 16.0851 10.1007 15.8958 9.91618C15.1912 9.22601 14.3764 8.68202 13.4706 8.30098C12.512 7.89599 11.4935 7.69229 10.4463 7.69229C9.38463 7.69229 8.35656 7.90078 7.39079 8.31297C6.47535 8.70359 5.65098 9.25956 4.94163 9.96411L4.93205 9.9737C4.83859 10.0696 4.71637 10.1151 4.59175 10.1151ZM6.70781 12.7344C6.58559 12.7344 6.46337 12.6865 6.36991 12.593C6.18299 12.4061 6.18299 12.1017 6.36991 11.9148C6.88754 11.3972 7.48665 10.9874 8.15526 10.6998C8.87898 10.3859 9.65064 10.2277 10.4439 10.2277C11.2203 10.2277 11.9752 10.3811 12.6869 10.6806C13.3435 10.9562 13.9379 11.3517 14.4531 11.8501C14.6424 12.0346 14.6472 12.339 14.4627 12.5283C14.2782 12.7176 13.9738 12.7224 13.7845 12.5379C13.3555 12.1209 12.8595 11.7926 12.3131 11.5625C11.7212 11.3109 11.0909 11.1839 10.4439 11.1839C9.78004 11.1839 9.14019 11.3157 8.53629 11.5769C7.98032 11.8166 7.47946 12.1593 7.0481 12.5906C6.95224 12.6889 6.83003 12.7344 6.70781 12.7344Z" fill="#86888C"/>
<path d="M10.4127 17.2373C9.83996 17.2373 9.38464 17.0791 9.05872 16.7652C8.72082 16.4393 8.54828 15.9696 8.54828 15.3729C8.54828 14.7762 8.72082 14.3065 9.05872 13.9805C9.38464 13.6666 9.83996 13.5084 10.4127 13.5084C10.9855 13.5084 11.4408 13.6666 11.7667 13.9805C12.1046 14.3065 12.2771 14.7762 12.2771 15.3729C12.2771 15.9696 12.1046 16.4393 11.7667 16.7652C11.4408 17.0791 10.9855 17.2373 10.4127 17.2373Z" fill="#86888C"/>
</svg>
