<svg width="20" height="20" viewBox="0 0 20 20" fill="none" xmlns="http://www.w3.org/2000/svg">
<path fill-rule="evenodd" clip-rule="evenodd" d="M13.0293 6.59582H14.4555L11.2047 3.34528V4.78845C11.2047 5.32337 11.3748 5.77636 11.695 6.09731C12.0218 6.42282 12.483 6.59582 13.0293 6.59582ZM15.5951 6.36819C15.7272 6.50021 15.8033 6.68459 15.8033 6.87352V16.8778C15.8033 17.4856 15.2973 18 14.6973 18H5.106C4.51718 18 4 17.4765 4 16.8778V3.12221C4 2.53493 4.52613 2 5.106 2H6.90828V4.59269H6.1605C5.89855 4.59269 5.68586 4.81349 5.68586 5.08436C5.68586 5.35524 5.89855 5.57604 6.1605 5.57604H6.90828V6.81434H6.1605C5.89855 6.81434 5.68586 7.03514 5.68586 7.30602C5.68586 7.5769 5.89855 7.7977 6.1605 7.7977H6.90828V9.03599H6.1605C5.89855 9.03599 5.68586 9.25679 5.68586 9.52767C5.68586 9.79855 5.89855 10.0193 6.1605 10.0193H6.90828V11.5285H6.16722C5.90527 11.5285 5.69258 11.7493 5.69258 12.0202V13.8617C5.69258 14.1326 5.90527 14.3534 6.16722 14.3534H8.56504C8.82699 14.3534 9.03968 14.1326 9.03968 13.8617V12.0202C9.03968 11.7493 8.82699 11.5285 8.56504 11.5285H7.85756V11.1279H8.58295C8.8449 11.1279 9.05759 10.9071 9.05759 10.6362C9.05759 10.3653 8.8449 10.1445 8.58295 10.1445H7.85756V8.90625H8.58295C8.8449 8.90625 9.05759 8.68545 9.05759 8.41457C9.05759 8.14369 8.8449 7.92289 8.58295 7.92289H7.85756V6.68459H8.58295C8.8449 6.68459 9.05759 6.46379 9.05759 6.19291C9.05759 5.92204 8.8449 5.70124 8.58295 5.70124H7.85756V4.46294H8.58295C8.8449 4.46294 9.05759 4.24214 9.05759 3.97126C9.05759 3.70038 8.8449 3.47958 8.58295 3.47958H7.85756V2H10.9449C11.1241 2 11.2942 2.07056 11.4241 2.19804L15.5951 6.36819ZM6.6441 13.37V12.7076H8.0904V13.37H6.6441Z" fill="#86888C"/>
</svg>
