<svg width="40" height="40" viewBox="0 0 40 40" fill="none" xmlns="http://www.w3.org/2000/svg">
<path d="M26.0197 38C25.8246 38 25.6345 37.9386 25.4701 37.8106C25.4239 37.7747 25.3828 37.7338 25.3417 37.6877L17.2518 29.5109C17.2415 29.5006 17.2313 29.4853 17.221 29.475C16.9898 29.1883 16.9436 28.8094 17.1028 28.4715C17.2569 28.1489 17.5651 27.9543 17.9144 27.9543L22.0287 27.9185L22.0184 21.7232C22.0184 20.7555 22.8095 19.967 23.7802 19.967H28.2901C29.2609 19.967 30.0519 20.7555 30.0519 21.7232L30.057 27.9236L34.1765 27.9595C34.5206 27.9595 34.8288 28.1592 34.9829 28.4766C35.1421 28.8094 35.0959 29.1934 34.8647 29.4801C34.8545 29.4955 34.8442 29.5057 34.8288 29.516L26.6978 37.6877C26.5231 37.8925 26.2766 38 26.0197 38ZM18.1661 28.9784L26.0249 36.9145L33.9248 28.9784L29.9337 28.9477H29.9235C29.4201 28.9323 29.0246 28.5176 29.0349 28.0158L29.0246 21.7283C29.0246 21.3238 28.6958 20.9961 28.2901 20.9961H23.7802C23.3745 20.9961 23.0457 21.3238 23.0457 21.7283L23.056 28.0158C23.0663 28.5176 22.6708 28.9323 22.1674 28.9477H22.1571L18.1661 28.9784ZM11.7866 20.0284C10.8158 20.0284 10.0248 19.2399 10.0248 18.2722L10.0197 12.0769L5.90021 12.0411C5.55607 12.0411 5.24788 11.8414 5.09378 11.5239C4.93455 11.1911 4.98078 10.8071 5.21192 10.5204C5.2222 10.505 5.23247 10.4948 5.24788 10.4845L13.3789 2.31285C13.5227 2.14389 13.7282 2.03637 13.9491 2.00565C14.1853 1.98005 14.4165 2.04149 14.6065 2.18997C14.6527 2.22581 14.6938 2.26677 14.7349 2.31285L22.8249 10.4897C22.8351 10.4999 22.8454 10.5153 22.8557 10.5255C23.0868 10.8122 23.1331 11.1911 22.9738 11.529C22.8197 11.8516 22.5115 12.0462 22.1623 12.0462L18.048 12.082L18.0582 18.2722C18.0582 19.2399 17.2672 20.0284 16.2964 20.0284H11.7866ZM11.0469 11.9847L11.0521 18.2722C11.0521 18.6767 11.3808 19.0044 11.7866 19.0044H16.2964C16.7022 19.0044 17.0309 18.6767 17.0309 18.2722L17.0207 11.9899C17.0104 11.4932 17.4059 11.0734 17.9093 11.058H17.9195L21.9106 11.0273L14.0518 3.09111L6.1519 11.017L10.1429 11.0478H10.1532C10.6566 11.0682 11.0521 11.483 11.0469 11.9847ZM22.1623 11.0222C22.1623 11.0222 22.1571 11.0222 22.1623 11.0222V11.0222Z" fill="#86888C"/>
</svg>
