<svg width="20" height="20" viewBox="0 0 20 20" fill="none" xmlns="http://www.w3.org/2000/svg">
<path fill-rule="evenodd" clip-rule="evenodd" d="M2.47304 10.3796L16.5329 10.3796L10.0627 17.1632C9.85935 17.3226 9.82509 17.6185 9.98501 17.8211C10.0558 17.9099 10.1586 17.9714 10.2706 17.9919C10.4534 18.026 10.6384 17.9509 10.7458 17.8029L17.9722 10.2294C17.995 10.2134 18.011 10.1907 18.0202 10.1634C18.0225 10.1383 18.0225 10.1133 18.0202 10.0882C18.0681 9.97443 18.0681 9.84467 18.0202 9.73085C18.0225 9.70581 18.0225 9.68077 18.0202 9.65573C18.0087 9.62842 17.9928 9.60338 17.9722 9.58061L10.8783 2.1505C10.7892 2.05261 10.6613 1.9957 10.5265 2.00025C10.2729 1.99343 10.0604 2.19375 10.0536 2.44643C10.049 2.57618 10.1015 2.6991 10.1952 2.79016L16.5329 9.44175L2.47304 9.44175C2.21259 9.44175 2.00012 9.65118 2.00012 9.91069C2.00012 10.1679 2.21259 10.3796 2.47304 10.3796C2.47304 10.3773 2.47304 10.3773 2.47304 10.3796Z" fill="#86888C"/>
</svg>
