<svg width="40" height="40" viewBox="0 0 40 40" fill="none" xmlns="http://www.w3.org/2000/svg">
<path d="M37.9561 15.318C37.9561 16.1604 37.3073 16.8071 36.9324 17.1927L36.9265 17.1986L25.7972 28.1441C25.7199 28.2212 25.6722 28.322 25.6722 28.4288C25.6722 28.4822 25.6782 28.5831 25.7615 28.6602L31.6535 34.5334L31.6654 34.5452C32.201 35.1029 32.3557 36.0936 32.0284 36.853C31.7249 37.553 31.0821 37.9564 30.2668 37.9505H3.49115C3.03884 37.9861 2.63414 37.8497 2.34847 37.5649C2.0628 37.2801 1.92591 36.8708 1.96162 36.4259L1.97353 9.59906V9.57533C1.97353 8.88122 2.34252 8.31763 2.97932 8.03287C3.77087 7.68286 4.83023 7.84304 5.44323 8.40663L5.46108 8.42442L10.9067 13.8527C10.984 13.9298 11.0852 13.9417 11.1388 13.9417C11.2459 13.9357 11.3471 13.8942 11.4244 13.8111L22.2442 3.06737C23.6249 1.69103 25.1009 1.70289 26.5054 3.10297L37.2478 13.7933L37.2657 13.8111C37.7716 14.3629 37.9561 14.8671 37.9561 15.318ZM36.0932 16.3502C36.9503 15.49 36.9324 15.2053 36.4027 14.6239L25.6722 3.93352C25.2021 3.46485 24.7676 3.22755 24.3748 3.22161C23.9761 3.21568 23.5595 3.43519 23.0953 3.89792L12.2696 14.6476C11.9779 14.9383 11.5851 15.1104 11.1804 15.1222C10.7579 15.1341 10.3651 14.9798 10.0675 14.6891L4.62788 9.26684C4.36006 9.02954 3.81848 8.95241 3.46139 9.11259C3.19357 9.23124 3.15787 9.42702 3.15787 9.58126V9.58719L3.14596 36.4436C3.14596 36.4614 3.14596 36.4852 3.14001 36.503C3.12811 36.6038 3.14596 36.6809 3.18167 36.7165C3.21738 36.7521 3.3007 36.7699 3.39592 36.7581C3.41378 36.7581 3.43758 36.7521 3.45544 36.7521H30.2549C30.6001 36.7521 30.8084 36.6335 30.9214 36.3725C31.0762 36.0165 30.975 35.5538 30.7905 35.358L24.9045 29.4908C24.6129 29.2001 24.4581 28.8026 24.47 28.3814C24.482 27.972 24.6486 27.5864 24.9462 27.2957L36.0932 16.3502Z" fill="#86888C"/>
</svg>
