<svg width="24" height="24" viewBox="0 0 24 24" fill="none" xmlns="http://www.w3.org/2000/svg">
<path fill-rule="evenodd" clip-rule="evenodd" d="M5.01166 18.8259L17.5143 6.31694L17.8142 18.13C17.7755 18.4531 18.0091 18.7478 18.3321 18.7864C18.4743 18.8027 18.6206 18.7661 18.7385 18.6848C18.9315 18.5526 19.029 18.3209 18.9924 18.0933L18.6601 4.90223C18.6662 4.86768 18.6601 4.83313 18.6439 4.80061C18.6236 4.77622 18.6012 4.75386 18.5769 4.73354C18.518 4.58923 18.4022 4.47339 18.2579 4.41445C18.2376 4.39006 18.2153 4.36771 18.1909 4.34738C18.1564 4.33316 18.1198 4.32503 18.0812 4.323L5.14266 4.0007C4.97608 3.99258 4.81153 4.0556 4.69572 4.17959C4.46412 4.39912 4.45394 4.767 4.67332 4.9987C4.78505 5.11861 4.94147 5.18161 5.10602 5.17956L16.6774 5.4796L4.17474 17.9886C3.94313 18.2203 3.94108 18.5963 4.17265 18.828C4.4022 19.0577 4.78005 19.0577 5.01166 18.8259C5.00963 18.8239 5.00963 18.8239 5.01166 18.8259Z" fill="#86888C"/>
</svg>
