<svg width="24" height="24" viewBox="0 0 24 24" fill="none" xmlns="http://www.w3.org/2000/svg">
<path fill-rule="evenodd" clip-rule="evenodd" d="M18.8259 17.9883L6.31694 5.48571L18.13 5.18584C18.4531 5.22446 18.7478 4.99086 18.7864 4.66785C18.8027 4.52565 18.7661 4.37938 18.6848 4.26155C18.5526 4.06855 18.3209 3.97102 18.0933 4.00757L4.90223 4.33986C4.86768 4.33376 4.83313 4.33985 4.80061 4.3561C4.77622 4.37641 4.75386 4.39876 4.73354 4.42314C4.58923 4.48204 4.47339 4.59783 4.41445 4.74206C4.39006 4.76237 4.36771 4.78472 4.34738 4.80909C4.33316 4.84363 4.32503 4.88019 4.323 4.91879L4.0007 17.8573C3.99258 18.0239 4.0556 18.1885 4.17959 18.3043C4.39912 18.5359 4.767 18.5461 4.9987 18.3267C5.11861 18.215 5.18161 18.0585 5.17956 17.894L5.4796 6.32263L17.9886 18.8253C18.2203 19.0569 18.5963 19.0589 18.828 18.8273C19.0577 18.5978 19.0577 18.2199 18.8259 17.9883C18.8239 17.9904 18.8239 17.9904 18.8259 17.9883Z" fill="#86888C"/>
</svg>
