<svg width="24" height="24" viewBox="0 0 24 24" fill="none" xmlns="http://www.w3.org/2000/svg">
<path d="M1.89404 11.9874C1.89404 11.7763 1.98803 11.5793 2.15323 11.4442L11.7288 2.2949L11.7459 2.27802C11.9795 2.08946 12.3013 2.05287 12.5719 2.18233C12.8282 2.29772 12.9934 2.551 12.9934 2.82962L12.9934 7.02014C12.9934 7.10738 13.0789 7.18056 13.1814 7.18056L20.1851 7.18056C21.1279 7.18056 21.894 7.93761 21.894 8.86915L21.894 15.1085C21.894 16.04 21.1279 16.7971 20.1851 16.7971L13.1843 16.7943C13.0789 16.7943 12.9963 16.8646 12.9963 16.9547L12.9963 21.1705C12.9934 21.4491 12.8311 21.7024 12.5719 21.8178C12.3013 21.9473 11.9795 21.9107 11.7459 21.7193L11.7288 21.7024L2.15323 12.5278C1.99088 12.3955 1.89689 12.1985 1.89404 11.9874ZM12.1134 2.71142L2.54058 11.8579L2.52349 11.8748C2.48647 11.903 2.46653 11.9452 2.46368 11.9902C2.46368 12.0353 2.48647 12.0775 2.52349 12.1056L2.54058 12.1225L12.1134 21.2915C12.176 21.3366 12.2586 21.3422 12.327 21.3112C12.3839 21.2887 12.4238 21.2324 12.4238 21.1705L12.4238 16.9519C12.4238 16.5522 12.7656 16.2286 13.1814 16.2286L20.1794 16.2314C20.8089 16.2314 21.3187 15.7276 21.3187 15.1057L21.3187 8.86915C21.3187 8.24718 20.8089 7.74342 20.1794 7.74342L13.1843 7.74342C12.7656 7.74342 12.4267 7.41977 12.4267 7.02014L12.4267 2.83244C12.4267 2.77052 12.3868 2.71424 12.3298 2.69172C12.2586 2.65795 12.176 2.66639 12.1134 2.71142Z" fill="#86888C"/>
</svg>
