<svg width="24" height="24" viewBox="0 0 24 24" fill="none" xmlns="http://www.w3.org/2000/svg">
<path fill-rule="evenodd" clip-rule="evenodd" d="M11.5845 22C8.63062 22 7 20.5202 7 17.8281V5.33523C7 3.18384 8.30336 2 10.671 2C13.0359 2 14.3392 3.18384 14.3392 5.33808V16.1577C14.3392 17.7399 13.3432 18.6505 11.6016 18.6505C9.85999 18.6505 8.86397 17.7427 8.86397 16.1577V7.03415C8.86397 6.80364 9.06887 6.61867 9.32214 6.61867C9.57541 6.61867 9.77746 6.80649 9.77746 7.03415V16.1577C9.77746 17.2903 10.358 17.8167 11.5987 17.8167C12.8423 17.8167 13.42 17.2903 13.42 16.1577V5.33808C13.42 3.65339 12.5179 2.83381 10.6653 2.83381C8.81275 2.83381 7.91064 3.65339 7.91064 5.33808V17.831C7.91064 20.045 9.1457 21.169 11.5788 21.169C14.012 21.169 15.247 20.045 15.247 17.831L15.2356 7.02846C15.2356 6.79795 15.4405 6.61298 15.691 6.61298H15.6938C15.9471 6.61298 16.152 6.79795 16.152 7.02846L16.1662 17.8338C16.169 20.5202 14.5384 22 11.5845 22Z" fill="#86888C"/>
</svg>
