<svg width="20" height="20" viewBox="0 0 20 20" fill="none" xmlns="http://www.w3.org/2000/svg">
<path d="M10.9443 15.1893C10.8851 15.1483 10.8555 15.1005 10.8555 15.0299C10.8577 14.9365 10.9352 14.8636 11.0263 14.8636C11.0718 14.8659 11.1128 14.8796 11.1516 14.9046C11.418 15.0823 11.7916 15.2599 12.2243 15.2599C12.8711 15.2599 13.2674 14.9274 13.2674 14.4354C13.2674 14.0323 13.0419 13.7476 12.3017 13.6542L12.1127 13.6315C11.3246 13.5312 10.958 13.1509 10.958 12.5656C10.958 11.8663 11.4567 11.4336 12.2197 11.4336C12.6456 11.4336 13.0078 11.5452 13.256 11.7001C13.3335 11.7479 13.3676 11.8071 13.3676 11.8663C13.3676 11.9552 13.297 12.0258 13.2082 12.0258C13.1672 12.0235 13.1262 12.0098 13.0898 11.9893C12.8165 11.8413 12.5318 11.7525 12.2061 11.7525C11.6185 11.7525 11.295 12.0781 11.295 12.5337C11.295 12.9482 11.5501 13.2147 12.2425 13.3035L12.427 13.3263C13.2264 13.4265 13.6068 13.8068 13.6068 14.4104C13.6068 15.0914 13.1217 15.5765 12.1856 15.5765C11.7392 15.5765 11.3087 15.4399 10.9443 15.1893Z" fill="#86888C"/>
<path d="M12.1834 15.6835C11.7188 15.679 11.2678 15.5377 10.8875 15.2735C10.7986 15.2121 10.7554 15.1323 10.7554 15.0298C10.7576 14.8795 10.8784 14.7611 11.0287 14.7611C11.0947 14.7634 11.1562 14.7839 11.2109 14.8203C11.548 15.0458 11.8896 15.1597 12.2244 15.1597C12.8052 15.1597 13.1651 14.8841 13.1651 14.4377C13.1651 14.1575 13.0603 13.8569 12.2882 13.7567L12.0991 13.7339C11.0697 13.6018 10.8533 13.0256 10.8533 12.5655C10.8533 11.8162 11.3885 11.3311 12.2176 11.3311C12.6275 11.3311 13.0147 11.4313 13.3085 11.6135C13.4133 11.6772 13.4702 11.7684 13.4702 11.8663C13.4702 12.0098 13.3541 12.1282 13.2083 12.1282C13.1514 12.1259 13.0944 12.11 13.0443 12.0827L13.0421 12.0804C12.7596 11.9278 12.4954 11.8549 12.2085 11.8549C11.7097 11.8549 11.3999 12.1145 11.3999 12.5336C11.3999 12.7933 11.4979 13.1053 12.2586 13.2032L12.4431 13.226C13.0216 13.2989 13.7117 13.5631 13.7117 14.4126C13.7071 15.1961 13.1218 15.6835 12.1834 15.6835ZM11.0287 14.9661C10.9922 14.9661 10.9626 14.9934 10.9604 15.0298C10.9604 15.0595 10.9672 15.08 11.0059 15.105C11.1653 15.2166 11.6004 15.4763 12.1857 15.4763C13.0125 15.4763 13.5044 15.0777 13.5044 14.4126C13.5044 13.8432 13.1491 13.5221 12.4157 13.431L12.2312 13.4082C11.5343 13.3194 11.1949 13.0324 11.1949 12.5359C11.1949 11.9984 11.5935 11.6522 12.2085 11.6522C12.5251 11.6522 12.8302 11.7342 13.1377 11.9004C13.1605 11.9118 13.1833 11.9209 13.2083 11.9232C13.2402 11.9232 13.2653 11.8982 13.2653 11.8663C13.2653 11.8412 13.2425 11.8116 13.2015 11.7866C12.9396 11.6249 12.5911 11.536 12.2176 11.536C11.5024 11.536 11.0583 11.9301 11.0583 12.5655C11.0583 13.1144 11.4159 13.4401 12.1242 13.5312L12.3132 13.554C13.033 13.6451 13.3678 13.9275 13.3678 14.4377C13.3678 15.0002 12.9191 15.3646 12.2221 15.3646C11.8441 15.3646 11.4637 15.2394 11.0925 14.9911C11.0765 14.9752 11.0515 14.9683 11.0287 14.9661Z" fill="#86888C"/>
<path d="M12.2107 16.2011C12.0854 16.2011 11.9829 16.0986 11.9829 15.9733V11.0423C11.9829 10.9171 12.0854 10.8146 12.2107 10.8146C12.3359 10.8146 12.4384 10.9171 12.4384 11.0423V15.9733C12.4384 16.0986 12.3359 16.2011 12.2107 16.2011ZM6.67161 16.2011C6.54634 16.2011 6.44385 16.0986 6.44385 15.9733V6.4553C6.44385 6.33003 6.54634 6.22754 6.67161 6.22754C6.79687 6.22754 6.89936 6.33003 6.89936 6.4553V15.9733C6.89936 16.0986 6.79687 16.2011 6.67161 16.2011ZM8.91502 16.2125C8.78976 16.2125 8.68726 16.11 8.68726 15.9847V10.0197C8.68726 9.89444 8.78976 9.79195 8.91502 9.79195C9.04029 9.79195 9.14278 9.89444 9.14278 10.0197V15.9847C9.14278 16.11 9.04029 16.2125 8.91502 16.2125Z" fill="#86888C"/>
<path d="M14.8868 18H4.67189C4.32114 18 4 17.6789 4 17.3281V2.67189C4 2.33253 4.33253 2 4.67189 2H10.8897C10.9512 2 11.0081 2.02505 11.0514 2.06605L15.4927 6.50733C15.5359 6.5506 15.5587 6.60754 15.5587 6.66904V17.3281C15.5587 17.6857 15.2444 18 14.8868 18ZM4.67189 2.45552C4.58534 2.45552 4.45552 2.58534 4.45552 2.67189V17.3281C4.45552 17.4261 4.57395 17.5445 4.67189 17.5445H14.8868C14.9916 17.5445 15.1032 17.4329 15.1032 17.3281V6.76242L10.794 2.45552H4.67189Z" fill="#86888C"/>
<path d="M15.3311 6.8968H13.1105C12.3953 6.8968 11.7827 6.66221 11.3386 6.22036C10.8944 5.77851 10.6621 5.16584 10.6621 4.4484V2.22776C10.6621 2.10249 10.7646 2 10.8899 2C11.0151 2 11.1176 2.10249 11.1176 2.22776V4.4484C11.1176 5.65779 11.9011 6.44128 13.1105 6.44128H15.3311C15.4564 6.44128 15.5589 6.54377 15.5589 6.66904C15.5589 6.79431 15.4564 6.8968 15.3311 6.8968Z" fill="#86888C"/>
</svg>
