<svg width="28" height="28" viewBox="0 0 28 28" fill="none" xmlns="http://www.w3.org/2000/svg">
<path fill-rule="evenodd" clip-rule="evenodd" d="M24.4323 19.3393C24.1181 19.6569 23.6605 19.8379 23.0764 19.8789C22.9637 19.8857 21.9528 19.8857 21.8537 19.8857C21.782 19.8857 20.7949 19.8857 20.6993 19.8823C20.0811 19.8516 19.5995 19.6706 19.2717 19.3393C18.9848 19.0558 18.8072 18.6459 18.7354 18.1302L24.9617 18.1336C24.8934 18.6494 24.7158 19.0558 24.4323 19.3393ZM21.3585 8.89498L24.7363 17.0851L18.8857 17.0817L21.3585 8.89498ZM17.9772 24.4111C18.6296 24.4111 19.1214 24.5751 19.4459 24.9064C19.6918 25.1591 19.8489 25.5075 19.9172 25.9583H8.07599C8.1443 25.5109 8.30141 25.1591 8.54732 24.9064C8.87178 24.5785 9.36701 24.4111 10.0159 24.4111H17.9772ZM13.1 7.8567H14.8931V23.366H13.1V7.8567ZM13.3015 5.6401C13.1479 5.48299 13.1137 5.17219 13.1137 4.93653C13.1137 4.70428 13.1479 4.38665 13.3015 4.22954C13.4484 4.08268 13.7216 4.04853 13.9334 4.04511H14.029C14.2476 4.04511 14.5379 4.07585 14.6916 4.22954C14.8453 4.38665 14.8795 4.70428 14.8795 4.93653C14.8795 5.17219 14.8453 5.48299 14.6916 5.6401C14.5379 5.7938 14.2476 5.82795 14.029 5.82795H13.9197C13.708 5.82112 13.445 5.78355 13.3015 5.6401ZM9.11086 17.0851L3.26028 17.0885L6.63811 8.89839L9.11086 17.0851ZM8.72492 19.3393C8.39704 19.6706 7.91205 19.8516 7.29387 19.8823C7.19824 19.8857 6.21119 19.8857 6.14288 19.8857C6.04383 19.8857 5.02946 19.8857 4.92016 19.8789C4.33613 19.8379 3.87847 19.6569 3.56425 19.3393C3.27736 19.0558 3.10317 18.6494 3.03145 18.1336L9.25772 18.1302C9.18941 18.6459 9.01181 19.0558 8.72492 19.3393ZM26 17.6077C26 17.5837 25.9898 17.5633 25.9863 17.5393C25.9795 17.4915 25.9761 17.4437 25.959 17.4027L22.0484 7.91817C22.4924 7.98648 22.8749 8.12651 23.1379 8.38608C23.2335 8.48513 23.3599 8.53294 23.4863 8.53294C23.6195 8.53294 23.7493 8.4783 23.8483 8.37242C24.0396 8.16067 24.0361 7.83279 23.8312 7.63128C23.3326 7.13263 22.6461 6.85598 21.7922 6.815C21.7273 6.81158 16.7443 6.80817 14.5789 6.80817C14.9068 6.73644 15.18 6.60324 15.3884 6.39149C15.7197 6.0602 15.8836 5.57179 15.8836 4.93653C15.8836 4.30127 15.7162 3.80945 15.3884 3.48157C15.0741 3.16052 14.6165 3 14.029 3H13.9266C13.3596 3.00683 12.9156 3.16735 12.6048 3.48157C12.2769 3.81286 12.1096 4.30127 12.1096 4.93653C12.1096 5.57521 12.2769 6.0602 12.6048 6.39149C12.8131 6.59983 13.0864 6.73644 13.4177 6.80817C11.2523 6.80817 6.27266 6.81158 6.20435 6.815C5.3505 6.85598 4.66401 7.12922 4.16536 7.63128C3.96385 7.83279 3.96044 8.16067 4.14829 8.37242C4.24733 8.4783 4.38053 8.53294 4.51032 8.53294C4.63669 8.53294 4.75964 8.48513 4.85869 8.38608C5.11826 8.12651 5.50078 7.98648 5.9482 7.91817L2.04098 17.4027C2.02049 17.4437 2.02049 17.4915 2.01366 17.5393C2.01025 17.5633 2 17.5837 2 17.6077V17.6111C2 18.6767 2.29372 19.5134 2.87093 20.0975C3.35933 20.5859 4.02533 20.8659 4.85869 20.924C4.95432 20.9308 6.04042 20.9343 6.14629 20.9343C6.21802 20.9343 7.26654 20.9343 7.33827 20.9308C8.21261 20.8899 8.91618 20.6064 9.42166 20.0975C9.99203 19.5237 10.2823 18.7074 10.2926 17.6623V17.6486C10.2926 17.6316 10.296 17.6213 10.296 17.6077C10.296 17.5769 10.2858 17.553 10.2823 17.5257C10.2789 17.4984 10.2823 17.4745 10.2755 17.4505L7.37925 7.86011C8.59855 7.86011 10.5522 7.8567 12.1027 7.8567V23.366H10.0194C9.10061 23.366 8.37313 23.6324 7.85399 24.155C7.31436 24.698 7.03771 25.4801 7.03771 26.4774C7.03771 26.7678 7.26313 27 7.53977 27H20.4636C20.7403 27 20.9657 26.7678 20.9657 26.4774C20.9657 25.4801 20.6925 24.698 20.1528 24.155C19.6337 23.6324 18.9028 23.366 17.9841 23.366H15.9007V7.8567C17.4513 7.8567 19.4049 7.86011 20.6242 7.86011L17.7313 17.4505C17.7245 17.4745 17.7279 17.4984 17.7245 17.5257C17.7211 17.553 17.7074 17.5769 17.7074 17.6077C17.7074 17.6213 17.7108 17.635 17.7108 17.6486V17.6623C17.7211 18.704 18.0114 19.5237 18.5818 20.0975C19.0906 20.6064 19.7908 20.8899 20.6651 20.9308C20.7403 20.9343 21.7854 20.9343 21.8605 20.9343C21.963 20.9343 23.0491 20.9308 23.1481 20.924C23.9781 20.8659 24.6475 20.5859 25.1325 20.0975C25.7063 19.5134 26 18.6767 26 17.6077Z" fill="#86888C"/>
</svg>
