<svg width="40" height="40" viewBox="0 0 40 40" fill="none" xmlns="http://www.w3.org/2000/svg">
<path fill-rule="evenodd" clip-rule="evenodd" d="M33.4097 33.4105C37.3795 29.4458 37.5075 25.4248 33.8041 21.4705C33.7222 21.3731 33.6505 21.3117 33.5839 21.2451L33.42 21.0863L31.6835 19.3498L19.3542 31.6842L20.2096 32.5345C20.4043 32.7599 20.5836 32.929 20.768 33.1031L21.0958 33.4207C25.1782 37.5031 29.3222 37.498 33.4097 33.4105ZM6.58955 18.9144L6.90201 19.2372C7.07616 19.4164 7.2452 19.6008 7.4296 19.7596L8.0289 20.3589L20.3633 8.02451L18.7242 6.38539C16.747 4.46966 14.7493 3.50668 12.7568 3.50668C10.6976 3.50668 8.63333 4.52601 6.58955 6.57491C2.49686 10.6727 2.49686 14.8218 6.58955 18.9144ZM9.11482 21.4397L18.2734 30.5983L30.6027 18.2639L21.4441 9.10531L9.11482 21.4397ZM34.9413 20.4511C39.1671 24.9638 39.0186 29.958 34.4854 34.4912C32.1496 36.827 29.691 38 27.2374 38C24.7838 38 22.3354 36.8372 20.0048 34.5015L19.7025 34.2095C19.4823 33.9995 19.262 33.7895 19.0776 33.5744L17.7817 32.2784C17.7612 32.2631 17.7356 32.2528 17.7202 32.2375L7.48082 21.998C7.46545 21.9827 7.46033 21.9571 7.43984 21.9366L6.38978 20.8865C6.20538 20.7328 6.00049 20.5177 5.79047 20.2975L5.50363 20.0004C0.832124 15.3289 0.832124 10.181 5.50363 5.50436C10.1085 0.899446 15.1796 0.832857 19.7896 5.30459L21.9461 7.46107C21.9563 7.47131 21.9717 7.47643 21.9819 7.48668L32.2316 17.721C32.2367 17.7261 32.2367 17.7363 32.247 17.7466L34.6391 20.1335C34.7415 20.236 34.8491 20.3384 34.9413 20.4511ZM19.0879 19.0271C19.5438 18.5713 20.2814 18.5713 20.7321 19.0271C21.188 19.483 21.188 20.2206 20.7321 20.6765C20.2762 21.1324 19.5386 21.1324 19.0879 20.6765C18.6371 20.2155 18.6371 19.483 19.0879 19.0271ZM18.0583 24.344C18.5142 23.8882 19.2467 23.8882 19.7025 24.344C20.1584 24.7999 20.1584 25.5375 19.7025 25.9883C19.2467 26.4442 18.5091 26.4442 18.0583 25.9883C17.6024 25.5375 17.6024 24.7999 18.0583 24.344ZM26.1822 17.8644C26.6381 18.3203 26.6381 19.0579 26.1822 19.5138C25.7263 19.9696 24.9887 19.9696 24.538 19.5138C24.0821 19.0579 24.0821 18.3203 24.538 17.8644C24.9938 17.4085 25.7263 17.4085 26.1822 17.8644ZM13.8836 20.1284C14.3395 19.6725 15.0771 19.6725 15.5279 20.1284C15.9838 20.5843 15.9838 21.3219 15.5279 21.7727C15.072 22.2234 14.3344 22.2286 13.8836 21.7727C13.4329 21.3219 13.4329 20.5843 13.8836 20.1284ZM20.3633 13.6488C20.8192 13.1929 21.5568 13.1929 22.0076 13.6488C22.4634 14.1046 22.4634 14.8422 22.0076 15.293C21.5517 15.7489 20.8192 15.7489 20.3633 15.293C19.9074 14.8422 19.9074 14.1046 20.3633 13.6488Z" fill="#86888C"/>
</svg>
