<svg width="24" height="24" viewBox="0 0 24 24" fill="none" xmlns="http://www.w3.org/2000/svg">
<path fill-rule="evenodd" clip-rule="evenodd" d="M19.4498 19.4503C21.6553 17.2477 21.7264 15.0138 19.669 12.8169C19.6234 12.7629 19.5836 12.7287 19.5466 12.6917L19.4555 12.6035L18.4908 11.6388L11.6412 18.4912L12.1165 18.9636C12.2246 19.0888 12.3242 19.1828 12.4267 19.2795L12.6088 19.4559C14.8768 21.724 17.179 21.7211 19.4498 19.4503ZM4.54975 11.3969L4.72334 11.5762C4.82009 11.6758 4.914 11.7782 5.01644 11.8665L5.34939 12.1994L12.2018 5.34695L11.2912 4.43633C10.1928 3.37204 9.08295 2.83704 7.97597 2.83704C6.832 2.83704 5.68518 3.40334 4.54975 4.54162C2.27603 6.81818 2.27603 9.1232 4.54975 11.3969ZM5.95268 12.7998L11.0408 17.888L17.8904 11.0355L12.8023 5.9474L5.95268 12.7998ZM20.3007 12.2506C22.6484 14.7577 22.5659 17.5322 20.0474 20.0507C18.7498 21.3483 17.3839 22 16.0208 22C14.6577 22 13.2974 21.354 12.0026 20.0564L11.8347 19.8942C11.7124 19.7775 11.59 19.6608 11.4876 19.5413L10.7676 18.8214C10.7562 18.8128 10.742 18.8071 10.7335 18.7986L5.0449 13.11C5.03636 13.1015 5.03352 13.0873 5.02214 13.0759L4.43877 12.4925C4.33632 12.4071 4.22249 12.2876 4.10582 12.1653L3.94646 12.0002C1.35118 9.40492 1.35118 6.54499 3.94646 3.94687C6.50475 1.38858 9.32199 1.35159 11.8831 3.83588L13.0812 5.03393C13.0869 5.03962 13.0954 5.04246 13.1011 5.04815L18.7953 10.7339C18.7982 10.7367 18.7982 10.7424 18.8039 10.7481L20.1328 12.0742C20.1897 12.1311 20.2495 12.188 20.3007 12.2506ZM11.4933 11.4595C11.7465 11.2063 12.1563 11.2063 12.4067 11.4595C12.66 11.7128 12.66 12.1226 12.4067 12.3758C12.1535 12.6291 11.7437 12.6291 11.4933 12.3758C11.2428 12.1197 11.2428 11.7128 11.4933 11.4595ZM10.9213 14.4134C11.1745 14.1601 11.5815 14.1601 11.8347 14.4134C12.088 14.6666 12.088 15.0764 11.8347 15.3268C11.5815 15.5801 11.1717 15.5801 10.9213 15.3268C10.668 15.0764 10.668 14.6666 10.9213 14.4134ZM15.4346 10.8135C15.6878 11.0668 15.6878 11.4766 15.4346 11.7299C15.1813 11.9831 14.7715 11.9831 14.5211 11.7299C14.2678 11.4766 14.2678 11.0668 14.5211 10.8135C14.7744 10.5603 15.1813 10.5603 15.4346 10.8135ZM8.60203 12.0713C8.8553 11.8181 9.26508 11.8181 9.5155 12.0713C9.76877 12.3246 9.76877 12.7344 9.5155 12.9848C9.26223 13.2352 8.85245 13.2381 8.60203 12.9848C8.35161 12.7344 8.35161 12.3246 8.60203 12.0713ZM12.2018 8.47153C12.4551 8.21827 12.8649 8.21827 13.1153 8.47153C13.3686 8.7248 13.3686 9.13458 13.1153 9.385C12.862 9.63827 12.4551 9.63827 12.2018 9.385C11.9486 9.13458 11.9486 8.7248 12.2018 8.47153Z" fill="#86888C"/>
</svg>
