<svg width="40" height="40" viewBox="0 0 40 40" fill="none" xmlns="http://www.w3.org/2000/svg">
<path fill-rule="evenodd" clip-rule="evenodd" d="M33.2476 18.7348C32.1975 17.9562 31.0245 17.6232 30.0307 17.4952C30.2459 16.6295 29.9232 15.7843 29.3341 15.185C29.329 15.1799 29.2112 15.0569 29.206 15.0569C28.8782 14.7393 28.4121 14.7957 28.074 15.1081C27.741 15.4206 27.7923 15.9994 28.1098 16.3273C28.5709 16.8036 28.4223 17.1878 28.2328 17.4337C28.1559 17.4388 28.0637 17.4439 28.0074 17.4491C27.8076 17.4696 27.5771 17.4952 27.3722 17.5259C27.1264 17.5566 26.8805 17.6027 26.6397 17.6591C26.1941 17.7513 25.9072 18.1867 25.9994 18.6374C25.9994 18.6426 25.9994 18.6477 26.0046 18.6528C26.107 19.0985 26.5731 19.3751 27.0188 19.2726C27.2544 19.2214 27.4593 19.1907 27.6079 19.1702C27.7923 19.1446 27.9972 19.119 28.1816 19.1036C28.868 19.0268 31.2345 18.9294 32.7661 20.543C34.1952 22.4075 34.3079 24.9789 34.3079 25.7268C34.3079 27.4121 33.8469 32.8725 27.9818 32.9698H27.9715C27.5259 33.0262 27.0393 32.8264 26.5117 32.4883C25.9636 32.14 25.605 31.7456 25.4565 31.3204C25.2977 30.885 24.8213 30.6596 24.3808 30.8031C23.9454 30.9414 23.7097 31.4024 23.848 31.8378C23.848 31.8429 23.8532 31.848 23.8532 31.8532C24.1246 32.6318 24.7086 33.3182 25.5845 33.8714C25.9431 34.1019 26.3068 34.276 26.6653 34.399C26.0455 35.6744 24.9289 36.3557 23.2641 36.3557C21.2407 36.3557 20.498 34.2863 20.3546 33.8201C20.3597 33.4513 20.3648 32.3142 20.3546 32.0324V7.98293C20.3546 7.63973 20.3648 6.35401 20.3699 5.91861C20.5646 5.44223 21.42 3.65452 23.2692 3.65452C24.9237 3.65452 26.0404 4.33068 26.6602 5.5959C25.3079 6.06716 24.432 7.19408 24.0376 8.29539L23.9198 8.63859C23.7866 9.07399 24.0324 9.535 24.4678 9.66818C24.473 9.66818 24.4781 9.66818 24.4781 9.67331C24.56 9.69892 24.6471 9.70916 24.7291 9.70916C25.0979 9.70916 25.4257 9.47866 25.5384 9.12521L25.6357 8.84348C25.8355 8.29027 26.5373 7.02504 27.9972 7.03016C33.8571 7.04553 34.3182 12.5879 34.3182 14.2886C34.3028 14.9391 34.2157 16.988 33.2476 18.7348ZM15.7393 36.3455C14.1002 36.3455 12.9886 35.6847 12.3637 34.4451C12.7786 34.3221 13.1935 34.1326 13.6033 33.8662C14.4792 33.3079 15.0632 32.6266 15.3347 31.848C15.4832 31.4178 15.2527 30.9516 14.8224 30.8031C14.8173 30.8031 14.8122 30.798 14.8019 30.798C14.3614 30.6494 13.885 30.8799 13.7262 31.3153C13.5777 31.7405 13.2242 32.1349 12.671 32.4883C12.1485 32.8264 11.6568 33.0211 11.2163 32.9698C11.1804 32.9698 11.1497 32.9852 11.119 32.9903C11.0882 32.9852 11.0575 32.975 11.0267 32.975C5.14627 32.975 4.68526 27.4223 4.68526 25.7166C4.68526 25.0404 4.78771 22.8839 5.84804 21.1013C6.31929 21.3216 6.8469 21.4855 7.47183 21.5367C7.53842 21.5418 7.59989 21.5418 7.66648 21.5418C7.63574 22.6944 8.39897 23.5293 9.35174 23.893L9.52077 23.9545C9.60785 23.9852 9.69493 24.0006 9.77689 24.0006C10.1047 24.0006 10.3865 23.7752 10.5196 23.4371C10.6836 23.012 10.3865 22.5151 9.95617 22.3512C9.26466 22.0848 9.29539 21.6187 9.38247 21.3113C10.9038 20.7786 11.6209 19.4263 11.749 18.1559L11.7746 17.8742C11.8053 17.4132 11.4622 17.0188 11.0011 16.9829H10.9909C10.5299 16.9419 10.1252 17.28 10.0842 17.741L10.0637 18.0023C9.96642 18.9448 9.48492 20.0512 7.61525 19.8822C6.98008 19.831 6.5037 19.6517 6.17075 19.3802C4.79795 17.5259 4.68014 15.0211 4.68014 14.2886C4.68014 12.5879 5.14115 7.03016 11.1651 7.03016H11.1702C12.794 6.99943 13.3523 8.28514 13.5521 8.84861L13.6494 9.13034C13.7928 9.57086 14.2641 9.81673 14.7097 9.67843C15.1605 9.54525 15.4064 9.07911 15.2681 8.64371L15.1503 8.30563C14.7405 7.1531 13.8082 5.97496 12.3534 5.55492C12.9784 4.32043 14.0899 3.66477 15.7291 3.66477C17.7524 3.66477 18.4952 5.73421 18.6386 6.20034C18.6335 6.56915 18.6232 7.70632 18.6386 7.98805V32.0171C18.6386 32.3603 18.6283 33.646 18.6232 34.0814C18.4439 34.5578 17.5885 36.3455 15.7393 36.3455ZM35.9983 14.2834C35.9983 12.8389 35.6346 5.78031 28.4479 5.40125C27.6386 3.20376 25.8201 2 23.259 2C21.3534 2 20.1702 3.10643 19.4838 4.07456C18.7462 2.99886 17.5322 2 15.7393 2C13.1781 2 11.3597 3.19863 10.5504 5.38589C3.37393 5.69323 3 12.8287 3 14.2886C3 15.1081 3.11781 17.7974 4.55208 19.9949C3.12294 22.1975 3 24.8919 3 25.7166C3 27.1611 3.36369 34.2197 10.5504 34.5987C11.3597 36.7962 13.1781 38 15.7444 38C17.6448 38 18.8281 36.8936 19.5145 35.9254C20.2521 37.0011 21.4713 38 23.259 38C25.815 38 27.6335 36.8065 28.4479 34.6141C35.6295 34.3119 35.9983 27.1713 35.9983 25.7166C35.9983 24.897 35.8805 22.2077 34.4462 20.0051C35.8805 17.8025 35.9983 15.1081 35.9983 14.2834Z" fill="#86888C"/>
</svg>
