<svg width="20" height="20" viewBox="0 0 20 20" fill="none" xmlns="http://www.w3.org/2000/svg">
<path fill-rule="evenodd" clip-rule="evenodd" d="M16.75 13.7758C16.556 13.9719 16.3097 14.0846 16.0719 14.0846H15.9384C15.9488 13.9782 15.9634 13.8739 15.9634 13.7591C15.9634 12.357 15.1392 11.5203 13.758 11.5203C12.3767 11.5203 11.5525 12.357 11.5525 13.7591C11.5525 13.8739 11.5671 13.9782 11.5776 14.0846H8.71074C8.72117 13.9782 8.73577 13.8739 8.73577 13.7591C8.73577 12.357 7.91161 11.5203 6.53035 11.5203C5.14909 11.5203 4.32492 12.357 4.32492 13.7591C4.32492 13.8551 4.33744 13.9406 4.34579 14.0303C4.18304 13.9803 4.03907 13.8989 3.91597 13.7758C3.72193 13.5797 3.61134 13.3293 3.61134 13.0893V9.93873H12.6646C12.6959 9.93873 15.9655 9.81354 17.0546 12.117V13.0893C17.0546 13.3293 16.942 13.5797 16.75 13.7758ZM13.7559 15.3803C12.7126 15.3803 12.1597 14.8211 12.1597 13.7591C12.1597 12.6992 12.7126 12.1379 13.7559 12.1379C14.7991 12.1379 15.352 12.6992 15.352 13.7591C15.352 14.819 14.8012 15.3803 13.7559 15.3803ZM6.52826 15.3803C5.48502 15.3803 4.93209 14.8211 4.93209 13.7591C4.93209 12.6992 5.48502 12.1379 6.52826 12.1379C7.57151 12.1379 8.12443 12.6992 8.12443 13.7591C8.12443 14.819 7.5736 15.3803 6.52826 15.3803ZM3.91388 5.92849C4.10793 5.73236 4.35413 5.61969 4.58991 5.61969H7.2794V9.32113H3.60926V6.61703C3.60926 6.375 3.72193 6.12462 3.91388 5.92849ZM7.89074 9.32113H11.5338V5.61969H7.89074V9.32113ZM13.0965 5.61969C13.2572 5.61969 17.0546 5.6802 17.0546 10.5V10.9924C15.5294 9.20429 12.7711 9.31487 12.65 9.32113H12.143V5.61969H13.0965ZM16.2221 6.34788C14.893 5.00417 13.1466 5.00626 13.0965 5H4.592C4.19556 5 3.79078 5.17735 3.48407 5.49033C3.17735 5.80121 3 6.21225 3 6.61703V13.0893C3 13.492 3.17527 13.9031 3.48407 14.214C3.74697 14.481 4.08706 14.6375 4.46889 14.6834C4.76309 15.5201 5.4871 16 6.52826 16C7.56316 16 8.28509 15.5305 8.58346 14.7043H11.7028C12.0011 15.5285 12.721 16 13.758 16C14.7929 16 15.5148 15.5305 15.8111 14.7043H16.0719C16.4704 14.7043 16.8731 14.5248 17.1798 14.214C17.4865 13.9031 17.6639 13.492 17.6639 13.0893V10.5C17.6639 8.71187 17.1777 7.31601 16.2221 6.34788Z" fill="#86888C"/>
</svg>
