<svg width="28" height="28" viewBox="0 0 28 28" fill="none" xmlns="http://www.w3.org/2000/svg">
<path d="M21.1052 25.8626C20.2401 25.8626 19.2665 25.6828 18.2183 25.3232C15.8674 24.5192 13.2451 22.857 10.6398 20.5231C10.5007 20.3975 10.4905 20.1838 10.616 20.0447C10.7416 19.909 10.9519 19.8955 11.091 20.0176C13.6318 22.2905 16.1727 23.9052 18.4388 24.6821C20.4369 25.3673 22.1059 25.3538 23.1372 24.6482L23.1813 24.6176C23.5782 24.3327 23.8767 24.0816 24.0735 23.8781C24.925 22.9859 25.332 22.1514 25.3185 21.327C25.3049 20.5366 24.8978 19.753 24.0803 18.9354C23.7682 18.6166 23.4188 18.3384 23.0354 18.1111L23.0252 18.1043C22.3773 17.7006 21.7192 17.5514 21.0746 17.6599C20.3928 17.7753 19.7041 18.1789 19.0189 18.8642C18.8323 19.0474 18.6593 19.2475 18.4999 19.4545C18.4897 19.468 18.4761 19.4816 18.4625 19.4952C17.9673 19.9531 17.2345 19.926 16.2813 19.4172C15.5824 19.0406 14.7343 18.3995 13.6963 17.4496C13.5572 17.3275 13.5402 17.1104 13.6658 16.9713C13.7879 16.8322 14.005 16.8152 14.1441 16.9407C14.1475 16.9441 14.1509 16.9475 14.1543 16.9475C16.6375 19.2136 17.6077 19.329 17.9842 19.0135C18.1538 18.793 18.3404 18.5826 18.5406 18.3859C19.6261 17.3003 21.3494 16.2691 23.378 17.5276C23.8089 17.7854 24.2058 18.0975 24.5586 18.4571C26.4685 20.3704 26.4719 22.3515 24.562 24.3496C24.3347 24.5871 24.0022 24.8619 23.5748 25.174L23.5477 25.1943L23.5307 25.2079C22.8895 25.6421 22.0652 25.8626 21.1052 25.8626ZM7.80378 17.5548C7.7088 17.5548 7.6172 17.514 7.55275 17.4428C5.19846 14.8239 3.52264 12.1915 2.70848 9.83038C1.94181 7.6084 1.98252 5.71547 2.82382 4.49762C2.82721 4.49083 2.83399 4.48405 2.83739 4.48065L2.85774 4.45351C3.16644 4.02269 3.44462 3.69024 3.68208 3.46295C5.68017 1.55306 7.6613 1.55645 9.57459 3.46634C9.93418 3.81915 10.2463 4.21605 10.5041 4.64688C11.766 6.6755 10.7348 8.39881 9.64583 9.48436C9.44907 9.68451 9.24214 9.8677 9.01824 10.0373C8.70275 10.4139 8.81809 11.3841 11.074 13.8571C11.2029 13.9928 11.1961 14.2065 11.0604 14.3354C10.9247 14.4643 10.711 14.4575 10.5821 14.3218L10.5753 14.3151C9.62886 13.277 8.98771 12.4323 8.61455 11.7335C8.1057 10.7836 8.08195 10.0543 8.53653 9.559C8.5501 9.54543 8.56028 9.53186 8.57724 9.52168C8.78756 9.36224 8.98432 9.18923 9.16751 9.00265C9.84937 8.32079 10.2564 7.62875 10.3718 6.94689C10.4803 6.30234 10.3311 5.64762 9.92739 4.99629L9.92061 4.98611C9.69332 4.60278 9.41515 4.25337 9.09627 3.94127C8.27871 3.12372 7.49508 2.71663 6.70466 2.70306C5.88032 2.6861 5.0458 3.09318 4.15362 3.94806C3.94329 4.1516 3.69226 4.45012 3.41069 4.84703C3.39712 4.86399 3.38695 4.87756 3.38016 4.89113C2.67116 5.92919 2.66098 7.605 3.35302 9.60988C4.13666 11.8861 5.76498 14.4372 8.05821 16.9882C8.18372 17.1273 8.17355 17.341 8.03446 17.4666C7.97001 17.5242 7.88859 17.5548 7.80378 17.5548Z" fill="#86888C"/>
<path d="M20.2164 5.09467C20.4437 5.09467 20.5013 5.22697 20.3385 5.3898L19.5142 6.21414C19.3513 6.37698 19.2462 6.69246 19.2801 6.91975L19.4497 8.10368C19.4836 8.33097 19.694 8.54129 19.9213 8.57522L21.1052 8.74483C21.1323 8.74823 21.1628 8.75162 21.19 8.75162C21.4037 8.75162 21.6683 8.65324 21.8108 8.51076L22.6351 7.68642C22.6962 7.62197 22.7573 7.59483 22.8047 7.59483C22.8794 7.59483 22.9303 7.66946 22.9303 7.80855C22.9303 7.80855 22.937 9.67773 22.089 10.5258C21.2544 11.3603 19.4361 11.3671 19.3751 11.3671H19.3717C19.1444 11.3671 18.8255 11.4994 18.6627 11.6589L9.23536 21.0828C9.07253 21.2456 8.94362 21.5645 8.94362 21.7918C8.94362 21.7918 8.9504 23.661 8.10232 24.5091C7.2678 25.3436 5.4495 25.3504 5.38844 25.3504C5.16115 25.3504 5.10348 25.2147 5.26632 25.0552L6.09066 24.2309C6.25349 24.0681 6.35865 23.7526 6.32473 23.5253L6.15511 22.3414C6.12119 22.1141 5.91086 21.9037 5.68357 21.8698L4.49965 21.7002C4.47251 21.6968 4.44198 21.6934 4.41484 21.6934C4.20112 21.6934 3.93652 21.7918 3.79404 21.9343L2.9663 22.7586C2.90185 22.8197 2.84418 22.8502 2.79669 22.8502C2.72206 22.8502 2.67117 22.7756 2.67117 22.6365C2.67117 22.6365 2.66439 20.7673 3.51247 19.9192C4.34699 19.0847 6.16529 19.0779 6.22635 19.0779H6.23313C6.46042 19.0779 6.7793 18.9456 6.94213 18.7862L16.3661 9.35885C16.5289 9.19602 16.6578 8.87714 16.6578 8.64985C16.6578 8.64985 16.651 6.78067 17.4991 5.93258C18.337 5.10485 20.1553 5.09467 20.2164 5.09467ZM20.2164 4.4162C19.8161 4.42299 19.4192 4.46369 19.0257 4.53833C18.1437 4.70455 17.4686 5.01325 17.0242 5.45765C16.573 5.90883 16.2609 6.59409 16.0981 7.49306C16.0268 7.87639 15.9895 8.26651 15.9861 8.65663C15.9726 8.73805 15.942 8.81947 15.8911 8.88731L6.46381 18.3079C6.39597 18.3553 6.31794 18.3893 6.23313 18.4028H6.22974C5.82944 18.4096 5.42915 18.4503 5.03564 18.5216C4.15363 18.6878 3.47855 18.9965 3.03415 19.4409C2.58297 19.8921 2.27087 20.5773 2.10804 21.4763C2.0368 21.8596 1.99949 22.2498 1.99609 22.6399C1.99949 23.2268 2.40318 23.5355 2.80008 23.5355C2.96291 23.5355 3.20716 23.4846 3.44802 23.2437L4.26897 22.4228C4.31307 22.3956 4.36056 22.3821 4.41144 22.3753L5.4936 22.5313L5.64965 23.6169C5.64626 23.6678 5.6293 23.7153 5.60216 23.7594L4.7846 24.5769C4.50982 24.8517 4.42162 25.2079 4.55053 25.5234C4.67944 25.8389 4.99154 26.0288 5.38166 26.0322H5.38505C5.78534 26.0254 6.18564 25.9847 6.57915 25.9135C7.46116 25.7473 8.13624 25.4386 8.58064 24.9942C9.03182 24.543 9.34391 23.8577 9.50675 22.9588C9.57799 22.5754 9.6153 22.1853 9.6187 21.7952C9.63226 21.7138 9.6628 21.6324 9.71368 21.5645L19.141 12.1372C19.2089 12.0897 19.2869 12.0558 19.3717 12.0422H19.3751C19.7754 12.0354 20.1757 11.9947 20.5692 11.9235C21.4512 11.7572 22.1263 11.4485 22.5707 11.0041C23.0219 10.553 23.334 9.8677 23.4968 8.96873C23.568 8.58539 23.6053 8.19527 23.6087 7.80515C23.6053 7.22167 23.2017 6.91636 22.8047 6.91636C22.6419 6.91636 22.3977 6.96724 22.1568 7.2081L21.3325 8.02566C21.2884 8.0528 21.2409 8.06636 21.19 8.07315L20.1044 7.9171L19.9484 6.83155C19.9552 6.78067 19.9687 6.73317 19.9959 6.68907L20.8168 5.86812C21.0916 5.59334 21.1798 5.23715 21.0509 4.92166C20.922 4.60617 20.6099 4.4162 20.2198 4.41281L20.2164 4.4162Z" fill="#86888C"/>
</svg>
