<svg width="24" height="24" viewBox="0 0 24 24" fill="none" xmlns="http://www.w3.org/2000/svg">
<path fill-rule="evenodd" clip-rule="evenodd" d="M19.5942 10.3262L17.7901 9.44979C17.662 9.39003 17.5141 9.39857 17.3917 9.47255C17.2722 9.54938 17.2011 9.68313 17.2011 9.82825L17.2352 21.4154H7.0225L7.05665 9.82825C7.05665 9.68597 6.98551 9.55223 6.86599 9.4754C6.74648 9.39857 6.59851 9.39003 6.46762 9.44979L4.618 10.3376L2.93913 6.59854L8.50219 3.36599C8.73837 5.32373 10.0046 6.39082 12.1303 6.39082C14.2502 6.39082 15.5108 5.32373 15.7498 3.38022L21.071 6.60139L19.5942 10.3262ZM21.7966 6.06642L15.5962 2.31029C15.5933 2.30744 15.5876 2.30744 15.5848 2.30744C15.5535 2.29037 15.5222 2.28183 15.4852 2.27329C15.4624 2.2676 15.4397 2.26191 15.414 2.25907C15.4055 2.25907 15.3998 2.25338 15.3913 2.25338C15.3771 2.25338 15.3657 2.25907 15.3514 2.26191C15.3173 2.26476 15.2832 2.27045 15.249 2.28183C15.2348 2.28752 15.2234 2.29321 15.212 2.2989C15.175 2.31598 15.1409 2.33874 15.1096 2.37004C15.1039 2.37289 15.0982 2.38143 15.0925 2.38712C15.0726 2.40988 15.047 2.42695 15.0327 2.45541C15.0242 2.47248 15.0214 2.48671 15.0157 2.50378C15.0157 2.50663 15.0128 2.50948 15.0128 2.50948C14.9901 2.5607 14.9815 2.61476 14.9815 2.67167C14.9815 4.61234 14.051 5.55422 12.1331 5.55422C10.2181 5.55422 9.28756 4.6095 9.28756 2.66883C9.28756 2.51801 9.21073 2.38143 9.08268 2.30744C8.95463 2.23346 8.79813 2.23346 8.67008 2.30744L2.20782 6.06358C2.02286 6.17171 1.94887 6.4022 2.03708 6.59854L4.0432 11.0689C4.08873 11.1714 4.17125 11.2482 4.27654 11.288C4.37898 11.3279 4.49565 11.3222 4.59524 11.2738L6.23428 10.4884L6.20013 21.8337C6.20013 21.9446 6.24282 22.0528 6.31965 22.1296C6.39648 22.2093 6.50176 22.252 6.60989 22.252H17.6507C17.7588 22.252 17.8641 22.2093 17.9409 22.1296C18.0177 22.0499 18.0604 21.9446 18.0604 21.8337L18.0263 10.4941L19.634 11.2738C19.7365 11.3222 19.8531 11.3279 19.9613 11.2852C20.0665 11.2453 20.1519 11.16 20.1946 11.0518L21.9674 6.58431C22.0442 6.38797 21.9731 6.17171 21.7966 6.06642Z" fill="#86888C"/>
</svg>
