<svg width="40" height="40" viewBox="0 0 40 40" fill="none" xmlns="http://www.w3.org/2000/svg">
<path fill-rule="evenodd" clip-rule="evenodd" d="M37.097 28.8972C37.097 29.4809 36.8208 30.0958 36.3362 30.57C35.8516 31.0494 35.2367 31.3256 34.6478 31.3256H34.3143C34.3403 31.065 34.3768 30.8097 34.3768 30.5335C34.3768 27.1098 32.3184 25.0722 28.8634 25.0722C25.4137 25.0722 23.35 27.115 23.35 30.5335C23.35 30.8149 23.3865 31.065 23.4126 31.3256H16.2629C16.2889 31.065 16.3254 30.8097 16.3254 30.5335C16.3254 27.1098 14.267 25.0722 10.812 25.0722C7.36227 25.0722 5.30386 27.115 5.30386 30.5335C5.30386 30.7628 5.33513 30.9765 5.35598 31.1953C4.95472 31.0807 4.58473 30.867 4.28769 30.5752C3.80827 30.0958 3.52686 29.4861 3.52686 28.9024V21.3358H19.0404C19.4625 21.3358 19.8013 20.9971 19.8013 20.5802V10.6791H27.2115C28.113 10.6791 29.0927 11.1689 29.6034 11.8672C30.4424 13.0189 35.3305 19.4546 35.9714 20.2832C36.3935 20.8252 37.1022 21.7371 37.1022 22.5865C37.097 22.5813 37.097 28.8972 37.097 28.8972ZM28.8634 34.4836C26.2579 34.4836 24.8769 33.1182 24.8769 30.5335C24.8769 27.9488 26.2579 26.5835 28.8634 26.5835C31.469 26.5835 32.85 27.9488 32.85 30.5335C32.85 33.1182 31.469 34.4836 28.8634 34.4836ZM10.812 34.4836C8.20647 34.4836 6.83073 33.1182 6.83073 30.5335C6.83073 27.9488 8.20647 26.5835 10.812 26.5835C13.4228 26.5835 14.7986 27.9488 14.7986 30.5335C14.7986 33.1182 13.4228 34.4836 10.812 34.4836ZM8.62336 8.53208L16.242 19.5119L13.0059 19.5067L7.5186 8.52165L8.62336 8.53208ZM37.1804 19.3556C36.5447 18.5323 31.6722 12.1278 30.8437 10.9813C30.0464 9.87655 28.6185 9.16783 27.2167 9.16783H19.0404C18.6183 9.16783 18.2796 9.50656 18.2796 9.92345V19.7725L9.65517 7.34915C9.51447 7.14591 9.27996 7.02084 9.02983 7.02084L6.29398 7H6.28877C6.18455 7.00521 6.08032 7.03127 5.98652 7.07817C5.67385 7.17197 5.45499 7.45858 5.45499 7.78688L5.43935 15.687C5.44978 15.7912 5.42893 16.2863 5.1788 16.5572C5.12668 16.6093 4.97035 16.7761 4.52219 16.7813H4.51177C4.02713 16.7813 3.8708 16.6093 3.81869 16.552C3.57376 16.281 3.56334 15.7651 3.57898 15.614C3.62588 15.1971 3.33405 14.8219 2.91716 14.775H2.91195C2.50027 14.7229 2.11986 15.0095 2.06774 15.4264V15.4368C2.05211 15.5671 1.93747 16.7344 2.68266 17.5578C2.99012 17.8965 3.55292 18.2925 4.51698 18.2925H4.53783C5.45499 18.2873 6.00216 17.9017 6.3044 17.5838C7.03396 16.7969 6.97664 15.6974 6.96622 15.6349L6.97664 10.8354L11.4634 19.8246H2.76083C2.33872 19.8246 2 20.1633 2 20.5802V28.8972C2 29.8821 2.43774 30.8827 3.20377 31.6435C3.86038 32.2949 4.70458 32.6753 5.66343 32.7899C6.3982 34.8327 8.20647 36 10.8068 36C13.3916 36 15.1946 34.8535 15.9398 32.842H23.7305C24.4757 34.8588 26.2787 36 28.8634 36C31.4482 36 33.2512 34.8535 33.9964 32.842H34.6478C35.6431 32.842 36.6541 32.4095 37.4149 31.6487C38.181 30.8879 38.6239 29.8873 38.6239 28.9024V22.5813C38.6239 21.2212 37.7172 20.0539 37.1804 19.3556Z" fill="#86888C"/>
</svg>
