<svg width="20" height="20" viewBox="0 0 20 20" fill="none" xmlns="http://www.w3.org/2000/svg">
<path fill-rule="evenodd" clip-rule="evenodd" d="M17.0582 15.6414C17.2267 15.3956 17.5818 14.6648 16.917 13.4058C16.0155 11.6847 14.2989 11.5595 14.2238 11.5549C14.1077 11.5458 14.003 11.4798 13.9461 11.3773C13.8846 11.2612 12.3183 8.50655 8.4731 8.50655C6.55392 8.50655 5.24488 9.42857 4.47766 10.2003C3.29838 11.3978 2.68825 12.955 2.6928 13.8702C2.65182 14.683 2.71329 15.3045 2.7611 15.6392H4.04283C4.17032 14.5874 4.89655 13.9454 6.02348 13.9454C7.14357 13.9454 7.87436 14.5874 8.00412 15.6392H11.1367C11.2665 14.5942 11.9905 13.9522 13.1106 13.9522C14.2375 13.9522 14.9614 14.5965 15.0912 15.6392C15.0912 15.6414 17.0582 15.6414 17.0582 15.6414ZM13.1106 17.317C13.9848 17.317 14.4401 16.8526 14.4401 15.9761C14.4401 15.1019 13.987 14.6375 13.1106 14.6375C12.2409 14.6375 11.7878 15.1019 11.7878 15.9784C11.7878 16.8526 12.2432 17.317 13.1106 17.317ZM6.02348 17.3102C6.89086 17.3102 7.35301 16.8458 7.35301 15.9693C7.35301 15.0928 6.89314 14.6306 6.02348 14.6306C5.15609 14.6306 4.69394 15.095 4.69394 15.9693C4.69394 16.8435 5.15609 17.3102 6.02348 17.3102ZM12.3456 2.68298C9.04909 2.68298 7.3735 4.3654 7.3735 7.6938C7.3735 7.77575 7.38033 7.85088 7.38033 7.92601C7.74004 7.85999 8.10657 7.82584 8.4731 7.82356C12.2363 7.82356 14.0349 10.2413 14.4469 10.8924C14.7474 10.9334 15.3712 11.0837 16.0223 11.4798C16.8829 10.6534 17.3246 9.37621 17.3246 7.6938C17.3223 4.3654 15.6467 2.68298 12.3456 2.68298ZM16.5778 11.8896C16.958 12.2311 17.2767 12.6363 17.5203 13.0848C18.5835 15.1155 17.4999 16.1878 17.452 16.2288C17.3906 16.2903 17.3086 16.3244 17.2221 16.3244H15.0912C14.9614 17.3648 14.2284 18 13.1106 18C11.9973 18 11.2665 17.3648 11.1367 16.3244H8.00412C7.86753 17.3694 7.15723 17.9932 6.02348 17.9932C4.88972 17.9932 4.17259 17.3717 4.04283 16.3244H2.46969C2.3126 16.3244 2.17601 16.2129 2.14414 16.0581C2.13048 16.0239 1.94835 15.1633 2.01437 13.8589C2.00754 12.8526 2.62678 11.111 3.99502 9.72453C4.59377 9.12351 5.4953 8.44052 6.70873 8.08537C6.7019 7.95561 6.69508 7.82584 6.69508 7.69607C6.69508 3.96927 8.6484 2 12.3456 2C16.0405 2 18.0007 3.96927 18.0007 7.6938C18.0007 9.51736 17.5135 10.9266 16.5778 11.8896ZM13.9711 8.39727C13.9074 8.46329 13.8186 8.49972 13.7275 8.49972C13.6387 8.49744 13.5522 8.46101 13.4885 8.39727L12.0588 6.95618C11.9927 6.89243 11.954 6.80137 11.9563 6.7103V4.7547C11.9563 4.56346 12.1066 4.4132 12.2955 4.4132C12.4868 4.4132 12.6347 4.56346 12.6347 4.7547V6.57371L13.9711 7.91463C14.1009 8.04895 14.1009 8.26067 13.9711 8.39727Z" fill="#86888C"/>
</svg>
