<svg width="20" height="20" viewBox="0 0 20 20" fill="none" xmlns="http://www.w3.org/2000/svg">
<path d="M13.2192 14.0028H7.88968C7.2679 14.0028 6.71673 13.7956 6.29993 13.4016C5.8558 12.9825 5.56883 12.3744 5.44356 11.5909C5.37295 11.1377 4.92883 8.45922 4.56897 6.31146C4.55758 6.28413 4.55303 6.25452 4.55303 6.22491V6.21125C4.33893 4.9358 4.16128 3.86989 4.11117 3.59886C4.05423 3.28456 3.86975 2.99758 3.59189 2.78804C3.30719 2.57395 2.9405 2.45552 2.56014 2.45552H1.22776C1.10249 2.45552 1 2.35302 1 2.22776C1 2.10249 1.10249 2 1.22776 2H2.56014C3.03843 2 3.50306 2.15032 3.86747 2.42591C4.23872 2.70377 4.4847 3.09324 4.55986 3.51915C4.60541 3.77879 4.77623 4.7832 4.97893 5.99715H16.7722C16.8975 5.99715 17 6.09964 17 6.22491C17 6.24313 16.9977 6.26363 16.9932 6.28185C16.8679 6.77836 16.631 7.73267 16.3782 8.74391C16.073 9.97381 15.7564 11.2447 15.6608 11.6137C15.4558 12.4063 15.1597 12.987 14.7611 13.3879C14.3489 13.7956 13.8319 14.0028 13.2192 14.0028ZM5.05637 6.45267C5.40712 8.56171 5.82619 11.0807 5.89452 11.518C6.0995 12.8253 6.80783 13.5473 7.88968 13.5473H13.2192C13.7135 13.5473 14.112 13.3879 14.4377 13.0622C14.7748 12.7251 15.0367 12.199 15.2189 11.4975C15.3146 11.1308 15.6289 9.85993 15.9364 8.63231C16.1459 7.78961 16.3463 6.98335 16.4807 6.45267H5.05637ZM7.88968 18C7.18135 18 6.77367 17.5923 6.77367 16.884C6.77367 16.1757 7.18135 15.768 7.88968 15.768C8.59801 15.768 9.00569 16.1757 9.00569 16.884C9.00569 17.5923 8.59801 18 7.88968 18ZM7.88968 16.2235C7.43189 16.2235 7.22918 16.4262 7.22918 16.884C7.22918 17.3418 7.43189 17.5445 7.88968 17.5445C8.34747 17.5445 8.55018 17.3418 8.55018 16.884C8.55018 16.4262 8.34747 16.2235 7.88968 16.2235ZM12.331 18C11.6226 18 11.2149 17.5923 11.2149 16.884C11.2149 16.1757 11.6226 15.768 12.331 15.768C13.0393 15.768 13.447 16.1757 13.447 16.884C13.447 17.5923 13.0393 18 12.331 18ZM12.331 16.2235C11.8732 16.2235 11.6705 16.4262 11.6705 16.884C11.6705 17.3418 11.8732 17.5445 12.331 17.5445C12.7888 17.5445 12.9915 17.3418 12.9915 16.884C12.9915 16.4262 12.7888 16.2235 12.331 16.2235Z" fill="#86888C"/>
</svg>
