<svg width="28" height="28" viewBox="0 0 28 28" fill="none" xmlns="http://www.w3.org/2000/svg">
<path d="M18.3288 20.0043H10.3345C9.40185 20.0043 8.57509 19.6934 7.94989 19.1024C7.2837 18.4737 6.85324 17.5616 6.66534 16.3863C6.55943 15.7065 5.89324 11.6888 5.35345 8.46719C5.33637 8.42619 5.32954 8.38178 5.32954 8.33737V8.31687C5.0084 6.4037 4.74192 4.80484 4.66676 4.39829C4.58135 3.92683 4.30463 3.49637 3.88783 3.18206C3.46078 2.86093 2.91075 2.68327 2.34021 2.68327H0.341637C0.153737 2.68327 0 2.52954 0 2.34164C0 2.15374 0.153737 2 0.341637 2H2.34021C3.05765 2 3.75459 2.22548 4.30121 2.63886C4.85808 3.05566 5.22705 3.63986 5.33979 4.27872C5.40811 4.66818 5.66434 6.1748 5.9684 7.99573H23.6584C23.8463 7.99573 24 8.14947 24 8.33737C24 8.3647 23.9966 8.39544 23.9898 8.42278C23.8019 9.16754 23.4465 10.599 23.0673 12.1159C22.6095 13.9607 22.1347 15.867 21.9912 16.4205C21.6837 17.6094 21.2396 18.4806 20.6417 19.0819C20.0233 19.6934 19.2478 20.0043 18.3288 20.0043ZM6.08456 8.679C6.61068 11.8426 7.23929 15.6211 7.34178 16.277C7.64925 18.238 8.71174 19.321 10.3345 19.321H18.3288C19.0702 19.321 19.668 19.0819 20.1566 18.5933C20.6622 18.0877 21.0551 17.2985 21.3284 16.2463C21.4719 15.6962 21.9433 13.7899 22.4046 11.9485C22.7189 10.6844 23.0195 9.47502 23.2211 8.679H6.08456ZM10.3345 26C9.27203 26 8.6605 25.3885 8.6605 24.326C8.6605 23.2635 9.27203 22.652 10.3345 22.652C11.397 22.652 12.0085 23.2635 12.0085 24.326C12.0085 25.3885 11.397 26 10.3345 26ZM10.3345 23.3352C9.64783 23.3352 9.34377 23.6393 9.34377 24.326C9.34377 25.0127 9.64783 25.3167 10.3345 25.3167C11.0212 25.3167 11.3253 25.0127 11.3253 24.326C11.3253 23.6393 11.0212 23.3352 10.3345 23.3352ZM16.9964 26C15.934 26 15.3224 25.3885 15.3224 24.326C15.3224 23.2635 15.934 22.652 16.9964 22.652C18.0589 22.652 18.6705 23.2635 18.6705 24.326C18.6705 25.3885 18.0589 26 16.9964 26ZM16.9964 23.3352C16.3098 23.3352 16.0057 23.6393 16.0057 24.326C16.0057 25.0127 16.3098 25.3167 16.9964 25.3167C17.6831 25.3167 17.9872 25.0127 17.9872 24.326C17.9872 23.6393 17.6831 23.3352 16.9964 23.3352Z" fill="#86888C"/>
</svg>
