<svg width="28" height="28" viewBox="0 0 28 28" fill="none" xmlns="http://www.w3.org/2000/svg">
<path fill-rule="evenodd" clip-rule="evenodd" d="M24.1298 21.1695C24.403 21.1695 24.6247 20.9509 24.628 20.6777V13.6387H3.9546V20.6745C3.9546 20.9477 4.17638 21.1662 4.45279 21.1662H24.1298V21.1695ZM4.44958 7.03366C4.17638 7.03366 3.9546 7.25223 3.95139 7.52543V9.16785H24.6247V7.52543C24.6247 7.25223 24.3998 7.03045 24.1266 7.03366H4.44958ZM3.9546 12.7034H24.6312V10.1032H3.9546V12.7034ZM25.589 9.63712V13.1727C25.589 13.208 25.5761 13.237 25.5697 13.2659V20.6745C25.5697 21.462 24.9237 22.1016 24.133 22.1016H4.44958C3.65568 22.1016 3.01286 21.462 3.01286 20.6745V13.2305C3.00964 13.2112 3 13.192 3 13.1727V9.63712C3 9.61783 3.00964 9.59855 3.01286 9.57926V7.52864C3.01286 6.74118 3.6589 6.10156 4.44958 6.10156H24.1298C24.9237 6.10156 25.5665 6.74118 25.5665 7.52864V9.54391C25.5761 9.57284 25.589 9.60498 25.589 9.63712ZM20.9381 18.971C21.5038 18.9613 22.4552 18.7396 22.4552 17.3864C22.4552 16.03 21.4974 15.8018 20.9253 15.789L20.7421 15.7858C20.5749 15.789 20.0671 15.8404 19.6943 16.1747C19.8517 16.5057 19.9482 16.9043 19.9482 17.3864C19.9482 17.8621 19.855 18.2542 19.7039 18.5821C20.08 18.9131 20.5942 18.971 20.7613 18.9742L20.9381 18.971ZM17.4861 18.971C18.0518 18.9613 19.0032 18.7396 19.0032 17.3864C19.0032 16.03 18.0454 15.8018 17.4733 15.789L17.2901 15.7858C16.7308 15.7922 15.7923 16.0043 15.7923 17.3703C15.7923 18.7428 16.7437 18.9613 17.3094 18.971H17.4861ZM20.9446 14.8537C22.0791 14.8826 23.3969 15.5608 23.3969 17.3832C23.3969 19.2088 22.0824 19.8806 20.9542 19.9031H20.7485C20.4239 19.8967 19.7071 19.8195 19.1221 19.3374C18.6561 19.7231 18.0583 19.8934 17.5022 19.9031H17.2965C16.1683 19.8838 14.8505 19.212 14.8505 17.3703C14.8505 15.5254 16.1619 14.8601 17.2836 14.8505L17.4926 14.8537C18.0454 14.8665 18.64 15.0401 19.1061 15.4194C19.6878 14.9308 20.4078 14.8537 20.7356 14.8505L20.9446 14.8537Z" fill="#86888C"/>
</svg>
