<svg width="20" height="20" viewBox="0 0 20 20" fill="none" xmlns="http://www.w3.org/2000/svg">
<path fill-rule="evenodd" clip-rule="evenodd" d="M14.966 17.3284C15.1339 17.3284 15.2904 17.1781 15.2904 17.0211V7.36596H13.2306C12.4434 7.36596 11.7651 7.10871 11.2683 6.62151C10.7692 6.13204 10.5061 5.46044 10.5061 4.68412V2.67388H4.98453C4.83708 2.67388 4.66014 2.84007 4.66014 2.98122V7.6642L4.69416 14.2869L4.66014 17.0233C4.66014 17.1713 4.82347 17.3261 4.98453 17.3261H14.966V17.3284ZM15.118 6.69209L11.1685 2.81958V4.68184C11.1685 5.27376 11.3613 5.77689 11.7288 6.1366C12.0986 6.49858 12.6181 6.69209 13.2283 6.69209H15.118ZM15.9278 6.67843C15.946 6.71941 15.9551 6.76266 15.9551 6.81047V17.0211C15.9551 17.5515 15.5036 18 14.9683 18H4.9868C4.46051 18 4 17.5424 4 17.0211L4.03403 14.2869L4 7.66875V2.97894C4 2.4667 4.47185 2 4.9868 2H11.0619C11.2071 2 11.3477 2.05692 11.4498 2.15709L15.7895 6.41207C15.862 6.48492 15.9029 6.57826 15.9278 6.67843ZM12.1621 14.8423L12.8858 15.111L11.8695 12.8731C11.4793 13.2305 10.9462 13.4308 10.2951 13.49L11.3568 15.8304L11.6267 15.0905C11.7084 14.8719 11.9489 14.7627 12.1621 14.8423ZM8.21716 15.8281L9.28563 13.4764C8.64137 13.3853 8.1355 13.1349 7.77253 12.7274L6.68819 15.1155L7.41411 14.8423C7.62508 14.7627 7.86554 14.8742 7.94721 15.0882L8.21716 15.8281ZM9.88679 8.43142C8.34647 8.43142 7.62735 9.15993 7.62735 10.724C7.62735 12.288 8.3442 13.0142 9.88679 13.0142C11.4294 13.0142 12.1462 12.2857 12.1462 10.724C12.1462 9.15993 11.4294 8.43142 9.88679 8.43142ZM12.2256 12.4519L13.4189 15.0837C13.4869 15.2316 13.4642 15.4001 13.3644 15.5253C13.2646 15.6505 13.1035 15.7052 12.9515 15.671L12.0646 15.3432L11.7447 16.2129C11.6585 16.3813 11.5178 16.4678 11.3659 16.4678H11.3545C11.1957 16.4633 11.0551 16.37 10.987 16.222L9.78697 13.5811L8.58693 16.2242C8.52114 16.3699 8.3805 16.4633 8.2217 16.4701H8.21036C8.0561 16.4701 7.91772 16.3836 7.84286 16.247L7.50939 15.3478L6.65416 15.6665C6.46587 15.7143 6.30934 15.6551 6.20953 15.5299C6.10972 15.4024 6.0893 15.2339 6.15509 15.0882L7.43453 12.2721C7.43906 12.2629 7.44814 12.2561 7.45267 12.2493C7.25078 11.8418 7.13281 11.3432 7.13281 10.7285C7.13281 8.82299 8.14684 7.93284 9.88906 7.93284C11.6313 7.93284 12.6453 8.82527 12.6453 10.7285C12.6453 11.4434 12.5001 12.0171 12.2256 12.4519ZM9.43309 10.4189L8.97711 10.4917L9.33327 10.8856C9.38998 10.9425 9.41721 11.0359 9.40359 11.1155L9.31966 11.6369L9.76656 11.4069C9.80285 11.3865 9.84595 11.3751 9.88906 11.3751C9.91628 11.3751 9.9435 11.3796 9.96845 11.3887L10.4494 11.6528L10.37 11.1155C10.3564 11.0359 10.3859 10.9425 10.4426 10.8856L10.7987 10.5191L10.3019 10.4166C10.2225 10.4052 10.1477 10.3483 10.1114 10.2755L9.88906 9.79738L9.65994 10.2709C9.62137 10.3574 9.53063 10.4189 9.43309 10.4189ZM8.89318 11.1542L8.62096 10.8742C8.48258 10.7308 8.43948 10.5282 8.50073 10.3392C8.55971 10.1548 8.71397 10.0228 8.90225 9.99317L9.26975 9.93626L9.43535 9.57883C9.60322 9.21912 10.1704 9.21685 10.3405 9.57883L10.5084 9.93853L10.8759 9.99317C11.0619 10.0228 11.2161 10.1548 11.2774 10.3392C11.3386 10.5259 11.2933 10.7308 11.1572 10.8719L10.8849 11.1542L10.9507 11.5526C10.9825 11.7507 10.9031 11.9465 10.742 12.0626C10.5855 12.1719 10.3768 12.1833 10.2157 12.0945L9.89132 11.9146L9.56693 12.0968C9.49207 12.1377 9.40813 12.1582 9.32647 12.1582C9.22665 12.1582 9.12457 12.1264 9.03836 12.0649C8.8773 11.9511 8.7979 11.7553 8.82966 11.5549L8.89318 11.1542Z" fill="#86888C"/>
</svg>
