<svg width="28" height="28" viewBox="0 0 28 28" fill="none" xmlns="http://www.w3.org/2000/svg">
<path fill-rule="evenodd" clip-rule="evenodd" d="M8.03769 24.9691H19.9506V22.7163H8.03769V24.9691ZM9.80245 21.6922H18.1893V19.8592H9.80245V21.6922ZM11.2532 18.7771L12.2567 10.1991H15.8477L16.8512 18.7771C16.8546 18.801 16.8649 18.8181 16.8717 18.8386H11.2327C11.2395 18.8181 11.2498 18.7976 11.2532 18.7771ZM11.1985 9.1785H16.9058V7.48884H11.1985V9.1785ZM9.04125 3.02062H10.2872V4.42355C10.2872 4.70687 10.5193 4.93557 10.806 4.93557H12.9462C13.233 4.93557 13.4651 4.70687 13.4651 4.42355V3.02062H14.4106V4.52254C14.4106 4.65908 14.4652 4.79221 14.5642 4.88778C14.6632 4.98336 14.7793 5.02432 14.9363 5.03456L17.1175 5.00043C17.4008 4.99701 17.6295 4.76831 17.6295 4.48841V3.01721H18.971V6.46139H9.04125V3.02062ZM20.4695 21.6922H19.227V19.3472C19.227 19.0639 18.9949 18.8352 18.7081 18.8352H17.8684C17.8855 18.7771 17.8923 18.7191 17.8855 18.6577L16.8956 10.1957H17.4247C17.7114 10.1957 17.9435 9.967 17.9435 9.68369V7.48201H19.4967C19.7834 7.48201 20.0155 7.25331 20.0155 6.96999V2.51202C20.0155 2.2287 19.7834 2 19.4967 2H17.1141C16.8273 2 16.5952 2.2287 16.5952 2.51202V3.99004L15.4551 4.00711V2.51202C15.4551 2.2287 15.223 2 14.9363 2H12.9531C12.6663 2 12.4342 2.2287 12.4342 2.51202V3.91836H11.3317V2.51202C11.3317 2.2287 11.0996 2 10.8128 2H8.52581C8.23908 2 8.00697 2.2287 8.00697 2.51202V6.97682C8.00697 7.26013 8.23908 7.48884 8.52581 7.48884H10.1574V9.69051C10.1574 9.97383 10.3896 10.2025 10.6763 10.2025H11.2088L10.2189 18.6645C10.2121 18.7259 10.2189 18.7874 10.2325 18.842H9.28019C8.99346 18.842 8.76134 19.0707 8.76134 19.354V21.699H7.51885C7.23211 21.699 7 21.9277 7 22.2111V25.488C7 25.7713 7.23211 26 7.51885 26H20.4729C20.7596 26 20.9918 25.7713 20.9918 25.488V22.2111C20.9918 21.9209 20.7596 21.6922 20.4695 21.6922Z" fill="#86888C"/>
</svg>
