<svg width="28" height="28" viewBox="0 0 28 28" fill="none" xmlns="http://www.w3.org/2000/svg">
<path fill-rule="evenodd" clip-rule="evenodd" d="M24.9653 23.3773C24.955 23.9715 24.7194 24.9755 23.2476 24.9755C21.7792 24.9755 21.5504 23.992 21.5401 23.3978V23.2032C21.5606 22.609 21.7997 21.6255 23.2066 21.5948C23.2271 21.605 23.2373 21.605 23.2578 21.605C23.2681 21.605 23.2886 21.605 23.2988 21.5948C24.716 21.6255 24.955 22.609 24.9653 23.1895V23.3773ZM6.44963 23.2032V23.3773C6.44963 23.9818 6.21059 24.9755 4.73193 24.9755C3.27376 24.9755 3.03813 23.992 3.03813 23.3978V23.2032C3.04838 22.5987 3.29767 21.5948 4.75583 21.5948C6.21059 21.5948 6.43939 22.5987 6.44963 23.2032ZM8.71372 14.7547C7.75071 14.7547 5.50711 14.4474 5.50711 11.5993C5.50711 9.99772 6.21059 8.98691 7.57655 8.60785C7.80194 8.54639 7.94878 8.2288 7.94878 8.00342C7.94878 3.38304 12.0228 3.02447 13.2658 3.02447C13.9795 3.02447 17.5481 3.17814 18.3984 6.31303C18.4633 6.52817 18.6579 6.68184 18.8833 6.68867C20.0751 6.71941 22.8583 7.18042 22.8583 10.6841C22.8583 14.403 19.7131 14.6898 18.7399 14.6898L8.71372 14.7547ZM23.7769 20.6215V17.3534C23.7701 17.07 23.5413 16.8446 23.2612 16.8412H14.4644V15.745L18.7365 15.7143C19.597 15.7143 23.8896 15.4787 23.8896 10.6841C23.8896 7.27262 21.5811 5.88275 19.2863 5.68469C18.0877 2.18441 14.082 2 13.2658 2C12.2208 2 7.08139 2.27661 6.91406 7.7473C5.86909 8.14684 4.4724 9.14058 4.4724 11.5993C4.4724 14.683 6.66818 15.7792 8.71372 15.7792L13.4331 15.7484V16.8446H4.72851C4.5885 16.848 4.45532 16.9027 4.35629 16.9983C4.26409 17.0973 4.20945 17.2305 4.21286 17.3637L4.22311 20.6215C2.63859 20.8469 2.02049 22.0968 2 23.1827V23.4081C2.01024 24.6067 2.73421 26 4.72851 26C6.73648 26 7.47069 24.5965 7.48093 23.3978V23.1725C7.46044 22.0865 6.84917 20.8401 5.25441 20.6113L5.24417 17.8657H22.7388V20.6215C21.1542 20.8469 20.5361 22.0831 20.5054 23.1827V23.4081C20.5157 24.6067 21.2396 26 23.2476 26C25.2453 26 25.9761 24.5965 26 23.3978V23.1725C25.9795 22.0865 25.3614 20.8367 23.7769 20.6215Z" fill="#86888C"/>
</svg>
