<svg width="28" height="28" viewBox="0 0 28 28" fill="none" xmlns="http://www.w3.org/2000/svg">
<rect width="28" height="28" fill="white"/>
<path fill-rule="evenodd" clip-rule="evenodd" d="M19.5372 20.3997L16.8579 20.4104L16.8686 18.3893H19.0007C19.3262 18.3893 19.6195 18.1925 19.7447 17.8777C19.8699 17.5737 19.8091 17.2159 19.5873 16.9763L14.2215 11.2455C14.0641 11.081 13.853 10.9951 13.6348 10.9951C13.413 10.9951 13.2163 11.081 13.0589 11.2455L7.5678 17.0872C7.33528 17.3268 7.27089 17.6846 7.39967 17.9886C7.52488 18.3034 7.81821 18.5109 8.14374 18.5109H10.2865V20.4569L6.40163 20.4784C5.09951 20.4784 2.05528 20.042 2.05528 15.9961C2.05528 13.721 3.01041 12.2865 4.8813 11.7428C5.10309 11.6784 5.26049 11.4602 5.26049 11.2205L5.24976 11.0667C5.24976 4.58472 10.7122 4.0839 12.3828 4.0839C13.3272 4.0839 18.1063 4.31285 19.2403 8.70569C19.3047 8.94537 19.5015 9.10634 19.734 9.10634C21.3509 9.16 25.0998 9.8039 25.0998 14.7405C25.0927 19.9883 20.8393 20.3997 19.5372 20.3997ZM15.8062 20.9005L15.7954 23.9125H11.3311V18.2569C11.3311 17.7919 10.9626 17.4198 10.5226 17.4198H8.70537L13.6312 12.1792L18.4319 17.3018H16.6254C16.1854 17.3018 15.8169 17.681 15.8169 18.1389L15.8062 20.9005ZM20.1454 8.04748C18.6429 3.25041 13.4237 3 12.3756 3C11.0198 3 4.34114 3.37919 4.20163 10.8163C2.85659 11.3278 1 12.6335 1 15.9925C1 20.092 3.79382 21.5623 6.39805 21.5623L10.2829 21.5408V24.1629C10.2829 24.6315 10.6514 25 11.0914 25H16.0387C16.493 25 16.8472 24.6315 16.8472 24.1629L16.8579 21.4979L19.5372 21.4872C20.639 21.4872 26.1444 21.1616 26.1444 14.7441C26.1408 9.13496 21.9519 8.18699 20.1454 8.04748Z" fill="#86888C"/>
</svg>
