<svg width="20" height="20" viewBox="0 0 20 20" fill="none" xmlns="http://www.w3.org/2000/svg">
<path fill-rule="evenodd" clip-rule="evenodd" d="M9.485 14.4462C9.08432 15.3432 8.49239 15.9283 7.89819 16.0171C7.45197 16.0808 7.00803 15.8714 6.57547 15.3865L6.48213 15.2817L6.3387 15.2704C5.67392 15.2134 5.23453 14.9903 5.03419 14.6079C4.76554 14.0956 4.92491 13.2965 5.45992 12.4656C6.14974 11.391 8.45369 10.2231 9.44858 9.81327C9.67624 10.8241 10.0064 13.2874 9.485 14.4462ZM4.36486 9.1872C3.42233 8.807 2.80536 8.2424 2.71657 7.67552C2.64828 7.25206 2.87139 6.82861 3.37908 6.41654L3.48835 6.32775L3.50201 6.19115C3.56121 5.55825 3.7957 5.13935 4.19639 4.94811C4.36713 4.86615 4.57203 4.82517 4.79742 4.82517C5.27551 4.82517 5.85378 5.0073 6.4457 5.35335C7.57491 6.0113 8.80201 8.2037 9.2323 9.15078C8.16911 9.36933 5.58058 9.68351 4.36486 9.1872ZM9.88569 4.31065C10.2864 3.41366 10.8783 2.82629 11.4725 2.73978C11.5249 2.73067 11.5772 2.72839 11.6296 2.72839C12.0212 2.72839 12.4128 2.94467 12.7952 3.3704L12.8886 3.47513L13.032 3.48879C13.6968 3.5457 14.1362 3.76882 14.3365 4.15129C14.6052 4.66353 14.4458 5.46263 13.9085 6.2936C13.2187 7.36817 10.917 8.53608 9.91984 8.94588C9.69673 7.93505 9.36434 5.47174 9.88569 4.31065ZM15.0058 9.56968C15.9461 9.95215 16.5631 10.5168 16.6541 11.0814C16.7224 11.5048 16.4993 11.9283 15.9939 12.3403L15.8823 12.4291L15.8687 12.5657C15.8095 13.1986 15.575 13.6175 15.172 13.8088C14.6347 14.066 13.7947 13.9135 12.9227 13.4012C11.8664 12.7888 10.7372 10.8491 10.2431 9.81783C10.2408 9.81555 10.2408 9.81328 10.2386 9.811C10.2044 9.74042 10.1657 9.66074 10.1384 9.60155C11.2039 9.38755 13.7901 9.07109 15.0058 9.56968ZM13.1709 16.3427C14.5391 17.4377 16.0599 18.0547 17.3849 18.0547C17.4441 18.0547 17.5056 18.0524 17.5648 18.0501C17.6627 18.0456 17.7583 18.0137 17.838 17.9636C18.0019 17.8612 18.0451 17.6494 17.9359 17.4969C17.8357 17.3558 17.6809 17.3649 17.4896 17.3785C16.3126 17.4172 14.9079 16.8526 13.6285 15.8259L13.5716 15.7803C12.456 14.8856 11.5954 13.7473 11.0331 12.4815C11.4998 13.1076 12.0212 13.6699 12.5539 13.9795C13.2619 14.3961 13.9609 14.6079 14.5733 14.6079C14.9102 14.6079 15.2198 14.5441 15.493 14.4144C15.9119 14.214 16.4287 13.7655 16.5608 12.7638C17.3417 12.0808 17.4259 11.4206 17.3553 10.9789C17.2256 10.1684 16.4697 9.42852 15.2859 8.94815C14.4458 8.60666 13.1549 8.58845 12.003 8.67724C12.9956 8.11491 14.0405 7.38866 14.5164 6.64648C15.1925 5.6015 15.3587 4.58157 14.9717 3.8485C14.7622 3.45009 14.291 2.95833 13.2392 2.83084C12.5198 2.08638 11.8277 2.00442 11.3655 2.075C10.514 2.20021 9.73771 2.91963 9.23457 4.04884C8.87487 4.84794 8.85438 6.07732 8.95 7.17238C8.36035 6.22758 7.59768 5.23497 6.81907 4.78192C5.72173 4.13763 4.64944 3.97827 3.88221 4.34708C3.46331 4.54742 2.94651 4.99592 2.81447 5.99764C2.03358 6.68063 1.94935 7.34085 2.01993 7.78252C2.14969 8.593 2.90554 9.33291 4.09166 9.811C4.66537 10.0478 5.45309 10.1297 6.26129 10.1297C6.63466 10.1297 7.0103 10.1115 7.37457 10.0819C6.37968 10.6442 5.33698 11.3705 4.85889 12.1127C4.18273 13.1576 4.01653 14.1776 4.40356 14.9107C4.61301 15.3091 5.08427 15.8008 6.13608 15.926C6.728 16.5407 7.30399 16.7024 7.74793 16.7024C7.84128 16.7024 7.93006 16.6933 8.01202 16.6819C8.86348 16.5589 9.63982 15.8372 10.143 14.7103C10.3592 14.2299 10.4503 13.5925 10.4708 12.9232C11.0764 14.214 11.9734 15.3774 13.1208 16.2971" fill="#86888C"/>
</svg>
