<svg width="28" height="28" viewBox="0 0 28 28" fill="none" xmlns="http://www.w3.org/2000/svg">
<path fill-rule="evenodd" clip-rule="evenodd" d="M24.4701 22.1244C24.7604 22.1244 24.9994 21.8956 24.9994 21.6122V9.99464H3.00057V21.6122C3.00057 21.8956 3.2362 22.1244 3.52988 22.1244H24.4701ZM3.52988 6.06749C3.23961 6.06749 3.00057 6.29971 3.00057 6.57973V9.02822H24.9994V6.57973C24.9994 6.29629 24.7638 6.06749 24.4701 6.06749H3.52988ZM24.4701 5.09766C25.3136 5.09766 26 5.76356 26 6.57973V21.6156C26 22.4317 25.3136 23.0977 24.4701 23.0977H3.52988C2.6864 23.0977 2 22.4317 2 21.6156V6.57973C2 5.76356 2.6864 5.09766 3.52988 5.09766H24.4701ZM7.77803 16.1654L10.2334 18.3646C10.4348 18.5456 10.4485 18.8529 10.2607 19.051C10.1616 19.1534 10.0285 19.2047 9.89186 19.2047C9.77234 19.2047 9.6494 19.1603 9.55037 19.0749L6.6955 16.5171C6.59306 16.4249 6.535 16.2952 6.535 16.1586C6.535 16.022 6.59647 15.8922 6.69892 15.8L9.55379 13.2866C9.75868 13.109 10.0763 13.1227 10.2607 13.3208C10.4485 13.5188 10.4314 13.8262 10.2265 14.0072L7.77803 16.1654ZM7.11212 8.29401C6.72624 8.29401 6.41548 7.99009 6.41548 7.62128C6.41548 7.24905 6.72624 6.94512 7.11212 6.94512C7.49801 6.94512 7.80535 7.24564 7.80535 7.62128C7.80535 7.99009 7.49459 8.29401 7.11212 8.29401ZM9.19864 8.29401C8.81275 8.29401 8.50199 7.99009 8.50199 7.62128C8.50199 7.24905 8.81275 6.94512 9.19864 6.94512C9.58452 6.94512 9.89528 7.24564 9.89528 7.62128C9.89528 7.99009 9.58452 8.29401 9.19864 8.29401ZM5.0222 8.29401C4.63631 8.29401 4.32556 7.99009 4.32556 7.62128C4.32556 7.24905 4.63631 6.94512 5.0222 6.94512C5.40808 6.94512 5.71884 7.24564 5.71884 7.62128C5.71884 7.99009 5.40808 8.29401 5.0222 8.29401ZM18.3882 13.29L21.243 15.8034C21.3455 15.8956 21.4069 16.022 21.4069 16.162C21.4069 16.2986 21.3489 16.4283 21.2464 16.5205L18.3916 19.0783C18.296 19.1637 18.173 19.2081 18.0501 19.2081C17.9135 19.2081 17.7803 19.1568 17.6813 19.0544C17.4935 18.8563 17.5071 18.549 17.7086 18.368L20.1673 16.1654L17.7154 14.0106C17.5105 13.8296 17.4935 13.5222 17.6813 13.3242C17.8691 13.1261 18.1867 13.1125 18.3882 13.29ZM15.3352 13.2354C15.5879 13.3447 15.7006 13.6315 15.5879 13.8774L13.2726 18.8871C13.1907 19.0681 13.0063 19.1739 12.815 19.1739C12.7467 19.1739 12.6784 19.1603 12.6101 19.1295C12.3574 19.0203 12.2447 18.7334 12.3574 18.4875L14.6727 13.4778C14.7854 13.2354 15.0825 13.1261 15.3352 13.2354Z" fill="#86888C"/>
</svg>
