<svg width="24" height="24" viewBox="0 0 24 24" fill="none" xmlns="http://www.w3.org/2000/svg">
<path d="M9.92565 17.8638C5.54778 17.8638 2 14.316 2 9.93812C2 7.83731 2.83578 5.82178 4.3197 4.33501C7.40695 1.23354 12.4244 1.21933 15.5259 4.30658C18.6274 7.39383 18.6416 12.4113 15.5543 15.5128L15.5259 15.5412C14.0448 17.0337 12.0265 17.8695 9.92565 17.8638ZM9.92565 2.58386C5.86333 2.58386 2.56855 5.87579 2.56855 9.93812C2.56855 11.8883 3.34463 13.7616 4.72338 15.1404C7.59458 18.0144 12.2539 18.0144 15.1251 15.1404C17.9963 12.2663 17.9991 7.60988 15.1251 4.73868C13.7492 3.35425 11.8758 2.57818 9.92565 2.58386Z" fill="#86888C"/>
<path d="M21.7008 22.0005C21.624 22.0005 21.5529 21.9692 21.4989 21.9152L15.1254 15.5445C15.0174 15.4308 15.0203 15.2517 15.1311 15.1437C15.242 15.0385 15.4154 15.0385 15.5263 15.1437L21.8998 21.5144C22.0106 21.6252 22.0106 21.8043 21.9026 21.9152C21.8486 21.9692 21.7775 22.0005 21.7008 22.0005ZM7.97018 12.5397C7.87352 12.4715 7.8252 12.3948 7.8252 12.2754C7.83088 12.1218 7.95596 11.9996 8.10947 12.0025C8.18338 12.0053 8.25445 12.028 8.31415 12.0707C8.75194 12.3635 9.36882 12.6563 10.0824 12.6563C11.1456 12.6563 11.7994 12.1105 11.7994 11.3031C11.7994 10.6408 11.4298 10.1746 10.2074 10.0182L9.89473 9.9784C8.59559 9.81352 7.99008 9.18811 7.99008 8.22441C7.99008 7.07593 8.80879 6.36523 10.0681 6.36523C10.7703 6.36523 11.3673 6.55001 11.7766 6.80302C11.9046 6.87978 11.9614 6.97927 11.9614 7.07593C11.9614 7.22091 11.8449 7.33746 11.6999 7.34031H11.6971C11.6288 7.33462 11.5606 7.31472 11.5009 7.28061C11.0517 7.03613 10.5827 6.89115 10.0454 6.89115C9.07886 6.89115 8.54157 7.42559 8.54157 8.17608C8.54157 8.85835 8.9623 9.29613 10.1023 9.44112L10.4036 9.48091C11.7226 9.64579 12.3452 10.2712 12.3452 11.2633C12.3452 12.3834 11.5435 13.1822 10.0028 13.1822C9.2807 13.1765 8.57 12.9519 7.97018 12.5397Z" fill="#86888C"/>
<path d="M10.0079 13.3238C9.2489 13.3181 8.50978 13.085 7.88721 12.6558C7.74791 12.5591 7.67969 12.434 7.67969 12.2748C7.68253 12.0417 7.873 11.8569 8.1061 11.8598C8.20844 11.8626 8.3051 11.8939 8.39038 11.9508C8.95041 12.3232 9.51896 12.5108 10.079 12.5108C10.5651 12.5108 10.9688 12.3914 11.2474 12.1697C11.5146 11.9564 11.6539 11.6551 11.6539 11.2998C11.6539 10.8279 11.4805 10.319 10.187 10.1541L9.87431 10.1143C8.94756 9.99777 7.84741 9.57136 7.84741 8.22104C7.84741 7.00433 8.72014 6.21973 10.0676 6.21973C10.7385 6.21973 11.3696 6.38176 11.85 6.68026C12.0121 6.77975 12.103 6.91905 12.103 7.07256C12.103 7.29714 11.9211 7.47623 11.6965 7.47908C11.6056 7.47623 11.5174 7.45065 11.4378 7.40516L11.435 7.40232C10.9659 7.14931 10.5253 7.02992 10.0477 7.02992C9.2091 7.02992 8.68603 7.4677 8.68603 8.17271C8.68603 8.6105 8.85091 9.13357 10.1245 9.29845L10.4258 9.33825C11.1052 9.42353 11.6226 9.63105 11.9694 9.95513C12.3163 10.2792 12.4925 10.7198 12.4925 11.26C12.4925 12.5335 11.543 13.3238 10.0079 13.3238ZM8.04925 12.4227C8.31647 12.6074 9.03853 13.0395 10.0079 13.0395C11.3867 13.0395 12.2082 12.3743 12.2082 11.2628C12.2082 10.8023 12.0632 10.4327 11.7761 10.1655C11.4748 9.88122 11.0086 9.69928 10.3889 9.62253L10.0847 9.58273C9.49906 9.50882 9.07833 9.35531 8.79974 9.11651C8.52968 8.8834 8.39891 8.57639 8.39891 8.17555C8.39891 7.30851 9.04422 6.74848 10.0449 6.74848C10.5651 6.74848 11.0597 6.88209 11.5658 7.155C11.6056 7.17774 11.651 7.19196 11.6965 7.19764C11.7619 7.19764 11.8159 7.14647 11.8188 7.07824V7.0754C11.8188 7.00717 11.7449 6.95032 11.7022 6.92473C11.2673 6.65467 10.6873 6.50685 10.0676 6.50685C8.87365 6.50685 8.13169 7.16637 8.13169 8.22388C8.13169 9.1421 8.73151 9.68507 9.91126 9.83573L10.224 9.87553C11.3952 10.0262 11.941 10.4782 11.941 11.3026C11.941 11.7461 11.7648 12.1242 11.4265 12.3942C11.0967 12.6586 10.6305 12.7979 10.079 12.7979C9.46211 12.7979 8.83954 12.5932 8.23403 12.1895C8.19707 12.164 8.15443 12.1498 8.10895 12.1441C8.03503 12.1412 7.97249 12.2009 7.96681 12.2748C7.96396 12.3317 7.97818 12.3715 8.04925 12.4227Z" fill="#86888C"/>
<path d="M10.1466 14.2455C9.99023 14.2455 9.8623 14.1176 9.8623 13.9612V5.85361C9.8623 5.69726 9.99023 5.56934 10.1466 5.56934C10.3029 5.56934 10.4309 5.69726 10.4309 5.85361V13.9612C10.4309 14.1176 10.3029 14.2455 10.1466 14.2455Z" fill="#86888C"/>
</svg>
