<svg width="28" height="28" viewBox="0 0 28 28" fill="none" xmlns="http://www.w3.org/2000/svg">
<path fill-rule="evenodd" clip-rule="evenodd" d="M13.8912 19.5632L3.22083 14.0239L5.91825 12.6101L13.3319 16.4589C13.5092 16.5511 13.6968 16.5955 13.8912 16.5955C14.0787 16.5955 14.2697 16.5511 14.4402 16.4623L21.9971 12.6066L24.7456 14.0239L13.8912 19.5632ZM24.7456 18.2245L13.8912 23.7637L3.22083 18.2245L5.91825 16.8106L13.3319 20.6628C13.5092 20.755 13.6968 20.7994 13.8912 20.7994C14.0787 20.7994 14.2697 20.755 14.4402 20.6697L21.9971 16.8106L24.7456 18.2245ZM13.8912 4.23626L24.7456 9.82335L13.8912 15.366L3.22083 9.82335L13.8912 4.23626ZM25.9665 14.0273C25.9665 13.5629 25.7073 13.1326 25.2981 12.9242L23.3475 11.9202L25.2947 10.9264C25.7073 10.7181 25.9631 10.2878 25.9665 9.82335C25.9665 9.35889 25.7073 8.93201 25.2981 8.72027L14.4436 3.13319C14.2697 3.0444 14.0787 3 13.8912 3C13.6968 3 13.5058 3.0444 13.3285 3.14002L2.66157 8.7271C2.25576 8.93884 2 9.36231 2 9.82676C2 10.2878 2.25917 10.7113 2.66498 10.923L4.58489 11.9202L2.66157 12.9277C2.25576 13.1428 2 13.5663 2 14.0273C2 14.4884 2.25917 14.9118 2.66498 15.1236L4.58489 16.1208L2.66157 17.1282C2.25576 17.34 2 17.7668 2 18.2279C2 18.6889 2.25917 19.1124 2.66498 19.3241L13.3319 24.8634C13.5092 24.9522 13.6968 25 13.8912 25C14.0787 25 14.2697 24.9556 14.4402 24.8668L25.2947 19.3275C25.7073 19.1158 25.9631 18.6889 25.9665 18.2245C25.9665 17.76 25.7073 17.3331 25.2981 17.1214L23.3475 16.1174L25.2947 15.1236C25.7073 14.9152 25.9665 14.4918 25.9665 14.0273Z" fill="#86888C"/>
</svg>
