<svg width="40" height="40" viewBox="0 0 40 40" fill="none" xmlns="http://www.w3.org/2000/svg">
<path d="M9.99598 25.2093C10.5403 25.2093 10.8896 25.4968 10.8896 26.1078C10.8896 26.4005 10.8074 26.6213 10.6636 26.7702C10.5095 26.9294 10.2784 27.0064 9.99598 27.0064C9.71353 27.0064 9.48243 26.9294 9.32837 26.7702C9.18457 26.6213 9.1024 26.4057 9.1024 26.1078C9.09727 25.4968 9.45162 25.2093 9.99598 25.2093ZM30.0091 30.2003C30.5535 30.2003 30.9027 30.4878 30.9027 31.0989C30.9027 31.3915 30.8205 31.6123 30.6767 31.7612C30.5227 31.9204 30.2915 31.9974 30.0091 31.9974C29.7266 31.9974 29.4955 31.9204 29.3415 31.7612C29.1977 31.6123 29.1155 31.3967 29.1155 31.0989C29.1104 30.4827 29.4647 30.2003 30.0091 30.2003ZM20.7549 21.0193C20.3903 21.0193 20.113 20.7214 20.1078 20.3312L20.0873 19.0372L15.2702 19.0167H15.2239C14.9672 19.0167 14.7207 18.9037 14.5461 18.7086C14.3766 18.5186 14.2944 18.2619 14.315 18.0051L14.3201 15.9923C14.315 15.751 14.4125 15.5096 14.5871 15.3299C14.7874 15.1245 15.0596 15.027 15.3369 15.0526L20.1592 15.0475L20.1438 13.7587C20.1386 13.4968 20.2465 13.3325 20.3389 13.2401C20.457 13.122 20.6111 13.0552 20.7806 13.0552C20.9346 13.0552 21.0836 13.1117 21.2222 13.2093L25.5155 16.4288C25.7158 16.5777 25.8288 16.7985 25.8288 17.0347C25.8288 17.2709 25.7158 17.4917 25.5155 17.6406L21.1863 20.8601C21.0579 20.9628 20.9038 21.0193 20.7549 21.0193ZM15.3472 17.9897L20.2722 18.0103C20.7292 18.0154 21.1092 18.3903 21.1144 18.8472L21.1247 19.638L24.6168 17.0398L21.1863 14.4621L21.1965 15.2272C21.2017 15.4532 21.1144 15.6637 20.9552 15.8229C20.796 15.982 20.5854 16.0693 20.3595 16.0745L15.3523 16.0796L15.3472 17.9897ZM19.2091 28.8498C19.055 28.8498 18.9061 28.7985 18.7674 28.6958L14.4382 25.4763C14.2379 25.3274 14.1249 25.1066 14.1249 24.8704C14.1249 24.6342 14.2379 24.4134 14.4382 24.2645L18.7315 21.0449C18.8702 20.9422 19.0191 20.8909 19.1732 20.8909C19.3426 20.8909 19.4967 20.9576 19.6148 21.0757C19.7072 21.1682 19.8151 21.3325 19.81 21.5944L19.7946 22.8832L24.6168 22.8883C24.8993 22.8627 25.1714 22.9602 25.3666 23.1656C25.5412 23.3453 25.6388 23.5867 25.6336 23.828L25.6388 25.8408C25.6593 26.0976 25.5771 26.3543 25.4077 26.5443C25.2228 26.7497 24.9557 26.8678 24.6836 26.8524L19.8664 26.8729L19.8459 28.1669C19.851 28.5571 19.5737 28.8498 19.2091 28.8498ZM15.3472 24.8704L18.8393 27.4686L18.8496 26.6778C18.8548 26.2208 19.2348 25.846 19.6867 25.8408L24.6117 25.8203L24.6065 23.9153L19.5994 23.9102C19.3734 23.9102 19.1629 23.8229 19.0037 23.6637C18.8445 23.5045 18.7623 23.2888 18.7623 23.068L18.7726 22.303L15.3472 24.8704Z" fill="#86888C"/>
<path d="M14.2174 29.9384H5.76433C3.23252 29.9384 2 28.706 2 26.1746V10.7189C2 8.18743 3.23252 6.95508 5.76433 6.95508H14.2225C16.7235 6.95508 17.9869 8.22337 17.9869 10.7189V15.5661C17.9869 15.8485 17.7558 16.0796 17.4733 16.0796C17.1909 16.0796 16.9598 15.8485 16.9598 15.5661V10.7189C16.9598 8.79847 16.1432 7.98204 14.2225 7.98204H5.76433C4.77318 7.98204 4.08502 8.19256 3.65877 8.61875C3.23252 9.04494 3.0271 9.733 3.0271 10.7189V26.1695C3.0271 28.1412 3.79743 28.9063 5.76433 28.9063H14.2225C15.9224 28.9063 16.703 28.3415 16.9084 26.9653C16.9495 26.6829 17.2114 26.4929 17.4939 26.534C17.7763 26.5751 17.9663 26.837 17.9252 27.1194C17.6377 29.0193 16.4257 29.9384 14.2174 29.9384Z" fill="#86888C"/>
<path d="M17.4733 23.1451C17.1908 23.1451 16.9597 22.914 16.9597 22.6316V18.5083C16.9597 18.2259 17.1908 17.9949 17.4733 17.9949C17.7557 17.9949 17.9868 18.2259 17.9868 18.5083V22.6316C17.9868 22.9191 17.7557 23.1451 17.4733 23.1451Z" fill="#86888C"/>
<path d="M34.2356 34.9551H25.7774C23.2456 34.9551 22.0131 33.7227 22.0131 31.1913V26.344C22.0131 26.0616 22.2442 25.8306 22.5267 25.8306C22.8091 25.8306 23.0402 26.0616 23.0402 26.344V31.1913C23.0402 33.163 23.8105 33.9281 25.7774 33.9281H34.2356C36.2077 33.9281 36.9729 33.1579 36.9729 31.1913V15.7356C36.9729 13.8152 36.1563 12.9987 34.2356 12.9987H25.7774C23.6667 12.9987 23.2354 13.9846 23.0916 14.9499C23.0505 15.2324 22.7886 15.4223 22.5061 15.3813C22.2237 15.3402 22.0336 15.0783 22.0747 14.7959C22.2185 13.846 22.6088 13.122 23.2354 12.6547C23.8516 12.1977 24.6784 11.9718 25.7723 11.9718H34.2305C36.7315 11.9718 37.9948 13.2401 37.9948 15.7356V31.1861C38 33.7227 36.7674 34.9551 34.2356 34.9551Z" fill="#86888C"/>
<path d="M22.5267 23.9101C22.2442 23.9101 22.0131 23.6791 22.0131 23.3967V19.2272C22.0131 18.9448 22.2442 18.7137 22.5267 18.7137C22.8091 18.7137 23.0402 18.9448 23.0402 19.2272V23.3967C23.0402 23.6842 22.8091 23.9101 22.5267 23.9101Z" fill="#86888C"/>
</svg>
