<svg width="20" height="20" viewBox="0 0 20 20" fill="none" xmlns="http://www.w3.org/2000/svg">
<path fill-rule="evenodd" clip-rule="evenodd" d="M15.8527 16.0735C14.9831 16.333 13.8403 16.4742 12.6314 16.4742C11.7049 16.4742 10.8193 16.3899 10.0612 16.2328C10.9582 15.534 11.7595 14.6871 11.9121 13.8152C11.9325 13.6968 11.9485 13.5784 11.9644 13.46C12.1875 13.4691 12.4106 13.4805 12.6405 13.4805C13.9154 13.4805 15.1265 13.328 16.0508 13.0503C16.5585 12.8977 16.991 12.686 17.3279 12.4356V14.8965C17.3302 15.3837 16.8316 15.7775 15.8527 16.0735ZM2.92661 13.6991C2.86059 13.2779 2.81278 12.8522 2.78774 12.4265H6.7193V17.107C5.40347 16.4104 3.14971 14.9762 2.92661 13.6991ZM4.90036 7.96678C5.42624 7.62074 5.9248 7.29292 6.7193 7.21325V11.7617H2.74449C2.6853 10.5893 2.66936 9.32814 2.66709 8.72031C3.67103 8.76584 4.29708 8.36517 4.90036 7.96678ZM7.93952 5.01184C8.25823 5.25543 8.6885 5.45804 9.23259 5.62195C10.1569 5.89969 11.368 6.05222 12.6428 6.05222C13.9177 6.05222 15.1288 5.89969 16.0531 5.62195C16.5949 5.46032 17.016 5.26226 17.3302 5.0255V7.75278C17.1708 8.04645 16.7133 8.43574 15.8618 8.68844C14.999 8.94796 13.8562 9.09138 12.6451 9.09138C12.488 9.09138 12.3355 9.08227 12.1807 9.07772C12.183 8.66339 12.183 8.38566 12.183 8.34468C12.1784 8.24679 12.1329 8.15573 12.0555 8.09426C11.9781 8.0328 11.8779 8.00548 11.7777 8.02141C10.7988 8.17166 10.2912 7.83701 9.64692 7.4113C9.18251 7.10397 8.67029 6.76705 7.93952 6.61452V5.01184ZM9.41243 3.06769C10.2775 2.81044 11.4181 2.66702 12.6314 2.66702C13.8448 2.66702 14.9876 2.81044 15.8505 3.06769C16.6928 3.32039 17.1754 3.64821 17.296 4.0466C17.2938 4.05115 17.2892 4.0557 17.2869 4.06026C17.1458 4.42905 16.6518 4.74777 15.8573 4.9868C14.9945 5.24405 13.8517 5.38747 12.6405 5.38747C11.4294 5.38747 10.2866 5.24405 9.42382 4.9868C8.60882 4.74094 8.11026 4.41312 7.98278 4.03066C7.98278 4.02839 7.9805 4.02611 7.97822 4.02383C8.10798 3.64365 8.59971 3.31356 9.41243 3.06769ZM12.1693 9.74247C12.3264 9.74702 12.4835 9.75613 12.6428 9.75613C13.9177 9.75613 15.1288 9.6036 16.0531 9.32586C16.563 9.17334 16.9933 8.96162 17.3302 8.71348V11.4772C17.1708 11.7709 16.7087 12.1579 15.8618 12.4128C14.999 12.6724 13.8562 12.8135 12.6451 12.8135C12.4379 12.8135 12.2399 12.8021 12.0395 12.7953C12.1169 11.83 12.1534 10.6485 12.1693 9.74247ZM7.38633 7.20869C8.22181 7.27471 8.73858 7.61164 9.27812 7.96905C9.87457 8.36289 10.4938 8.77267 11.5114 8.71575C11.5114 8.87511 11.5091 9.08683 11.5068 9.32586C11.5023 9.34635 11.4932 9.36684 11.4909 9.38733C11.4886 9.4192 11.4977 9.4488 11.5046 9.47839C11.4955 10.241 11.4727 11.0014 11.4363 11.7617H7.38633V7.20869ZM7.38633 17.1435V12.4265H11.3953C11.3794 12.6405 11.3634 12.8454 11.3429 13.0366C11.3384 13.0571 11.3293 13.0753 11.327 13.0935C11.327 13.1095 11.3315 13.1231 11.3315 13.1368C11.3088 13.3439 11.286 13.5352 11.2564 13.6991C11.0288 14.999 8.68622 16.4651 7.38633 17.1435ZM12.6337 2C11.3589 2 10.1478 2.15253 9.22348 2.43026C8.14669 2.75353 7.50698 3.23615 7.32486 3.8622V3.86448C7.29071 3.98741 7.2725 4.11262 7.2725 4.2401V6.53484C7.21331 6.53256 7.1564 6.52574 7.09265 6.52574C5.87016 6.52574 5.15988 6.9947 4.53384 7.40903C3.88958 7.83474 3.38419 8.17394 2.41439 8.02141C2.23455 7.97816 2.05242 8.08743 2.00917 8.26728C2.00234 8.29232 2.00006 8.31964 2.00006 8.34468C2.00006 8.50176 1.98868 12.2102 2.27097 13.8129C2.63521 15.9164 6.76939 17.8856 6.94696 17.9676C7.03802 18.0108 7.14274 18.0108 7.23152 17.9676C7.31575 17.9266 8.30604 17.4553 9.3578 16.7451C10.2684 16.9978 11.4203 17.1412 12.6314 17.1412C13.9017 17.1412 15.1151 16.9887 16.044 16.7109C17.3393 16.3216 17.9949 15.7115 17.9949 14.8988V4.24238C17.9949 3.42966 17.3393 2.81955 16.044 2.43026C15.122 2.15253 13.9086 2 12.6337 2Z" fill="#86888C"/>
</svg>
