<svg width="40" height="40" viewBox="0 0 40 40" fill="none" xmlns="http://www.w3.org/2000/svg">
<path fill-rule="evenodd" clip-rule="evenodd" d="M14.4568 28.8928C16.8178 28.8928 17.4683 28.0272 17.4683 24.8775C17.4683 22.9109 17.1815 21.861 16.5054 21.354C16.0701 21.0262 15.3992 20.8674 14.462 20.8674C13.5145 20.8674 12.8436 21.0313 12.4031 21.3642C11.7373 21.8713 11.4505 22.9263 11.4505 24.8775C11.4454 28.0272 12.0907 28.8928 14.4568 28.8928ZM14.462 18.5218C12.4185 18.5218 12.4185 18.9776 12.4185 19.5512C12.4185 19.6076 12.4236 19.6383 12.4287 19.6844C12.9972 19.4795 13.663 19.3669 14.4568 19.3669C15.2609 19.3669 15.9267 19.4795 16.4952 19.6895C16.5003 19.6434 16.5054 19.6076 16.5054 19.5512C16.5054 18.9725 16.5054 18.5218 14.462 18.5218ZM19.9931 23.5613C20.408 23.5613 20.746 23.8942 20.746 24.3091V25.487C20.746 25.9018 20.408 26.2347 19.9983 26.2347C19.5834 26.2347 19.2454 25.9018 19.2454 25.487V25.0517H18.9637C18.9535 26.0043 18.8664 26.8493 18.6616 27.5817L19.8293 27.9351C20.157 28.0375 20.3772 28.3499 20.3619 28.693L20.2646 30.4702C20.2441 30.8697 19.9112 31.1821 19.5168 31.1821H19.4759C19.061 31.1616 18.7435 30.8082 18.764 30.3934L18.8254 29.2001L18.0316 28.9594C17.3658 29.8607 16.2596 30.3831 14.4568 30.3831C12.6438 30.3831 11.5376 29.8607 10.8718 28.9542L10.0524 29.2001L10.1138 30.3934C10.1343 30.8031 9.82192 31.1565 9.40709 31.1821H9.36099C8.96152 31.1821 8.63375 30.8697 8.61326 30.4753L8.52107 28.6982C8.50059 28.355 8.72081 28.0426 9.04858 27.9402L10.2419 27.5817C10.0421 26.8493 9.95508 26.0094 9.94484 25.0568H9.66316V25.487C9.66316 25.9018 9.32514 26.2347 8.91543 26.2347C8.50059 26.2347 8.16257 25.9018 8.16257 25.487V24.3039C8.16257 23.8891 8.50059 23.5562 8.9103 23.5562H9.98581C10.0473 22.8238 10.1958 22.1171 10.4723 21.4871L9.04346 21.0569C8.71569 20.9545 8.49547 20.6421 8.51595 20.299L8.60814 18.5218C8.62862 18.107 8.97688 17.7638 9.39684 17.8099C9.81168 17.8304 10.1292 18.1838 10.1087 18.5986L10.0473 19.7919L10.9538 20.0634C10.9282 19.8944 10.9128 19.7202 10.9128 19.5461C10.9128 17.0161 13.3967 17.0161 14.462 17.0161C15.5221 17.0161 18.006 17.0161 18.006 19.5461C18.006 19.7254 17.9906 19.8892 17.965 20.0531L18.8254 19.7919L18.764 18.5986C18.7435 18.1838 19.061 17.8304 19.4707 17.8099C19.8702 17.7741 20.2236 18.0711 20.2595 18.4757V18.5218L20.3568 20.299C20.3721 20.6421 20.157 20.9545 19.8241 21.0569L18.4208 21.482C18.7025 22.112 18.8511 22.8238 18.9125 23.5613H19.9931ZM14.4056 22.24C14.8205 22.24 15.1585 22.5729 15.1585 22.9877V27.4127C15.1585 27.8275 14.8205 28.1655 14.4056 28.1655C13.9908 28.1655 13.6528 27.8275 13.6528 27.4127V22.9877C13.6579 22.578 13.9908 22.24 14.4056 22.24ZM37.4932 14.9419V8.79617C36.7813 9.33393 35.8287 9.78461 34.62 10.1482C32.5458 10.7731 29.8212 11.1162 26.9481 11.1162C24.0749 11.1162 21.3554 10.7731 19.2761 10.1534C18.0521 9.78461 17.0841 9.32368 16.3671 8.78081V12.3863C18.0163 12.7346 19.1635 13.4925 20.2134 14.1839C21.6627 15.1417 22.7997 15.8945 25.0019 15.5565C25.2273 15.5258 25.4526 15.5821 25.6267 15.7255C25.7906 15.8689 25.9084 16.0686 25.9135 16.2889C25.9135 16.3811 25.9135 17.0059 25.9084 17.938C26.2567 17.9482 26.5998 17.9636 26.9532 17.9636C29.6829 17.9636 32.2539 17.6409 34.1898 17.0622C36.1001 16.4784 37.1295 15.6026 37.4932 14.9419ZM37.4932 23.3206V17.1032C36.7403 17.6665 35.7672 18.1428 34.62 18.486C32.5458 19.1108 29.8212 19.4539 26.9481 19.4539C26.5896 19.4539 26.2362 19.4334 25.8828 19.4232C25.8521 21.4615 25.7701 24.1145 25.5806 26.2859C26.0313 26.3064 26.482 26.332 26.9481 26.332C29.6727 26.332 32.2437 26.0094 34.1847 25.4307C36.095 24.8519 37.1347 23.9762 37.4932 23.3206ZM37.4932 31.0131V25.4819C36.7403 26.0452 35.7672 26.5215 34.62 26.8647C32.5407 27.4895 29.8212 27.8326 26.9481 27.8326C26.4308 27.8326 25.9289 27.8019 25.427 27.7814C25.3912 28.0682 25.3502 28.3345 25.3092 28.5804C24.9661 30.5368 23.1633 32.4419 21.1455 34.0193C22.8458 34.3727 24.8432 34.5673 26.9276 34.5673C29.6471 34.5673 32.2181 34.2447 34.1693 33.6608C36.3767 33.0002 37.4932 32.109 37.4932 31.0131ZM14.4568 36.4162C17.161 35.0897 23.2811 31.4842 23.8291 28.3243C23.8957 27.9555 23.9469 27.5253 23.9981 27.0593C23.9981 27.0286 23.9828 26.9927 23.9879 26.962C23.993 26.921 24.0135 26.8852 24.0237 26.8442C24.2644 24.4525 24.3566 21.1133 24.3873 18.8342C24.372 18.7625 24.3515 18.6908 24.3566 18.6191C24.3566 18.5679 24.3771 18.5269 24.3925 18.4757C24.3976 17.9431 24.4027 17.4719 24.4027 17.1134C22.1083 17.2363 20.7204 16.3196 19.3786 15.4336C18.0265 14.5424 16.7461 13.6974 14.462 13.6923H14.4517C12.1624 13.6923 10.8821 14.5373 9.53 15.4336C8.17281 16.3298 6.79002 17.2312 4.50585 17.1237C4.51609 19.3617 4.59292 25.5024 5.0897 28.3243C5.64281 31.4791 11.7527 35.0846 14.4568 36.4162ZM19.6858 4.40196C17.8524 4.95508 16.7461 5.69769 16.4593 6.55298C16.4593 6.5581 16.4696 6.56322 16.4696 6.56834C16.7513 7.42362 17.8729 8.16623 19.7115 8.71935C21.6525 9.29808 24.2183 9.62073 26.9481 9.62073C29.6778 9.62073 32.2488 9.29808 34.1847 8.71935C35.9721 8.1816 37.0834 7.46459 37.401 6.63492C37.4061 6.62468 37.4163 6.61443 37.4215 6.60419C37.1551 5.71306 36.0694 4.97557 34.1693 4.40196C32.2334 3.82324 29.6573 3.50059 26.9276 3.50059C24.1927 3.50059 21.6218 3.81812 19.6858 4.40196ZM34.6047 2.96796C37.5188 3.84372 38.9937 5.21115 38.9937 7.04463V31.0131C38.9937 32.8465 37.5188 34.2191 34.6047 35.0949C32.5151 35.7197 29.7905 36.0628 26.9276 36.0628C24.1979 36.0628 21.6064 35.7402 19.5578 35.1717C18.0316 36.2011 16.4337 37.1178 14.7744 37.927C14.5695 38.0243 14.3339 38.0243 14.1342 37.927C13.7398 37.7375 4.43415 33.3075 3.6096 28.5804C2.97454 24.9749 3.00014 16.632 3.00014 16.2786C3.00526 15.8638 3.34328 15.5258 3.75812 15.5309C3.81445 15.5309 3.87079 15.536 3.92713 15.5514C6.10887 15.8945 7.25095 15.1365 8.70032 14.1788C10.1087 13.2467 11.7066 12.1917 14.4517 12.1917H14.462C14.6054 12.1917 14.7334 12.2071 14.8614 12.2122V7.04463C14.8614 6.75271 14.9024 6.47103 14.9792 6.19959L14.9844 6.19447C15.3941 4.78095 16.8332 3.6952 19.2505 2.97308C21.3247 2.34314 24.0545 2 26.9276 2C29.8058 2 32.5305 2.34314 34.6047 2.96796Z" fill="#86888C"/>
</svg>
