<svg width="28" height="28" viewBox="0 0 28 28" fill="none" xmlns="http://www.w3.org/2000/svg">
<path fill-rule="evenodd" clip-rule="evenodd" d="M24.4562 16.857H20.7266C20.993 15.6343 21.1433 14.292 21.1433 12.878C21.1433 11.7168 21.0443 10.6034 20.8598 9.56169H24.627C24.8627 10.5624 24.9856 11.6758 24.9856 12.9088C24.9856 14.3911 24.8046 15.706 24.4562 16.857ZM17.8816 22.5368C18.9984 21.4951 19.9035 19.8625 20.4841 17.8577H24.101C23.0149 20.3919 20.9418 21.9562 17.8816 22.5368ZM15.443 22.7588V17.8577H19.4185C18.6022 20.5456 17.1405 22.4377 15.443 22.7588ZM15.443 9.56511H19.8215C20.0162 10.6068 20.1255 11.7168 20.1255 12.8815C20.1255 14.292 19.9752 15.6479 19.6883 16.8604H15.443V9.56511ZM15.443 3.05194C17.2737 3.39348 18.8277 5.54518 19.5995 8.56098H15.443V3.05194ZM24.3469 8.56098H20.6583C20.1084 6.27608 19.1214 4.41469 17.8953 3.27053C21.1843 3.89555 23.3496 5.66814 24.3469 8.56098ZM14.4286 8.56098H9.98861C10.8527 5.59641 12.5399 3.39348 14.4286 3.04853V8.56098ZM14.4286 16.857H11.9286V14.4935C11.9286 13.6704 11.3001 13.0693 10.0467 12.7004C9.83151 12.639 9.61634 12.5877 9.39775 12.5502C9.41483 11.546 9.53095 10.5453 9.74271 9.56511H14.4286V16.857ZM14.4286 22.7895C13.6158 22.769 12.8336 22.7007 12.1198 22.5812C12.0549 22.5709 11.99 22.5709 11.9251 22.5812V17.8577H14.4252C14.4286 17.8577 14.4286 22.7895 14.4286 22.7895ZM10.9108 17.4991C10.7673 17.7177 10.3814 17.9977 9.7632 18.189C8.27067 18.633 5.66814 18.633 4.18585 18.189C3.48228 17.9806 3.13733 17.7177 3.01437 17.5196V15.5386C3.26028 15.6787 3.54376 15.7982 3.88871 15.8973C4.72207 16.1466 5.81841 16.2866 6.96599 16.2866C8.11356 16.2866 9.2099 16.1466 10.0433 15.8973C10.3882 15.7948 10.6649 15.6753 10.9074 15.5455C10.9108 15.5455 10.9108 17.4991 10.9108 17.4991ZM10.9108 20.7642C10.781 20.9725 10.4224 21.256 9.7632 21.4575C8.26725 21.8981 5.66814 21.8981 4.18585 21.4575C3.48228 21.2492 3.12708 20.9759 3.01437 20.7744V18.7798C3.26711 18.9199 3.55401 19.0497 3.88871 19.1487C4.72207 19.3912 5.81841 19.5312 6.96599 19.5312C8.11356 19.5312 9.2099 19.3912 10.0535 19.1521C10.3711 19.0531 10.6546 18.9233 10.9074 18.7798C10.9108 18.7798 10.9108 20.7642 10.9108 20.7642ZM10.9108 23.8278C10.9108 24.2479 10.1901 24.5314 9.75295 24.6612C8.26042 25.1017 5.66814 25.1017 4.17561 24.6612C3.73844 24.5314 3.01779 24.2513 3.01779 23.8278V22.0484C3.27053 22.1884 3.55742 22.308 3.89213 22.407C4.72549 22.6563 5.82183 22.7998 6.9694 22.7998C8.11698 22.7998 9.21332 22.6563 10.0569 22.407C10.3746 22.3182 10.658 22.1884 10.9108 22.0484V23.8278ZM4.17561 13.6602C5.66814 13.2196 8.26042 13.2196 9.75295 13.6602C10.1184 13.7695 10.699 13.9915 10.8595 14.3091C10.7673 14.4696 10.5146 14.7087 9.75295 14.9409C8.27067 15.3815 5.66814 15.3815 4.18585 14.9409C3.58474 14.7599 3.20905 14.5311 3.07927 14.2886C3.20905 14.0632 3.58474 13.8309 4.17561 13.6602ZM5.24121 9.56511H8.68735C8.51316 10.5009 8.4107 11.447 8.38338 12.3999C7.22556 12.2872 6.05749 12.3179 4.9065 12.4921C4.91675 11.5051 5.02946 10.5248 5.24121 9.56511ZM11.8261 3.29444C10.5351 4.45567 9.50021 6.30682 8.90935 8.56098H5.53494C6.51174 5.70571 8.62587 3.95361 11.8261 3.29444ZM25.5048 8.92301C25.4945 8.90252 25.4945 8.88203 25.4843 8.8547C24.224 4.35662 20.6481 2 14.9375 2C9.22698 2 5.64764 4.35662 4.40102 8.85129C4.38053 8.88203 4.38053 8.91276 4.37029 8.92984C4.06632 10.0603 3.90579 11.3138 3.88188 12.697C2.85385 13.0078 2.23566 13.4757 2.05123 14.0973C2.02049 14.2305 2 14.3637 2 14.4935V23.8278C2 24.6407 2.63185 25.2418 3.88188 25.6106C4.72549 25.86 5.81158 26 6.95916 26C8.10673 26 9.20649 25.86 10.0501 25.6106C11.3001 25.2384 11.9286 24.6407 11.9286 23.8278V23.558H11.9388C12.8541 23.7288 13.8685 23.8073 14.9375 23.8073C22.1713 23.8073 26.0034 20.0401 26.0034 12.9088C26.0034 11.4299 25.8292 10.1082 25.5048 8.92301Z" fill="#86888C"/>
</svg>
