<svg width="40" height="40" viewBox="0 0 40 40" fill="none" xmlns="http://www.w3.org/2000/svg">
<path fill-rule="evenodd" clip-rule="evenodd" d="M20.6173 32.3391H19.5312C16.4318 32.293 9.24918 31.1403 9.24918 21.2886C9.24918 11.4573 16.3703 10.3303 19.439 10.2995H19.6542C19.9616 10.2995 20.2741 10.2995 20.5507 10.3149C23.6656 10.3917 30.8943 11.611 30.8943 21.35C30.8994 31.089 23.7117 32.2776 20.6173 32.3391ZM37.2315 20.2383H32.6361C32.5593 20.2383 32.4824 20.2691 32.4005 20.2844C32.2007 16.77 31.0992 14.3058 29.5828 12.61C29.6135 12.5947 29.6442 12.5793 29.6596 12.5639L32.9896 9.26465C33.2816 8.95726 33.2816 8.46545 32.9896 8.16831C32.6822 7.86092 32.1853 7.86092 31.8881 8.16831L28.5581 11.4676C28.5428 11.4983 28.5274 11.5291 28.512 11.5444C25.7404 9.23391 22.2721 8.83431 20.7813 8.77283V3.87003C20.7813 3.43969 20.4278 3.10156 20.0077 3.10156C19.5773 3.10156 19.2341 3.43969 19.2341 3.87003V8.77283C17.7023 8.80357 14.2801 9.15706 11.5546 11.4676C11.5238 11.4368 11.5085 11.4061 11.4777 11.3754L8.2553 8.16831C7.96328 7.86092 7.46634 7.86092 7.1692 8.16831C6.86182 8.46032 6.86182 8.95214 7.1692 9.26465L10.3916 12.4717C10.4224 12.4871 10.4531 12.5024 10.4838 12.5332C9.01352 14.2289 7.92742 16.7085 7.74299 20.2896C7.68151 20.2742 7.62004 20.2434 7.55856 20.2434H2.77359C2.33812 20.2434 2 20.5969 2 21.0119C2 21.4474 2.34325 21.7804 2.77359 21.7804H7.55856C7.62004 21.7804 7.66614 21.765 7.71738 21.7496C7.80959 25.3563 8.79835 27.882 10.197 29.6699C10.1662 29.6853 10.1355 29.7007 10.1047 29.7314L6.89768 32.9026C6.60054 33.21 6.60054 33.7069 6.89768 33.999C7.05137 34.1527 7.25117 34.2295 7.44073 34.2295C7.62516 34.2295 7.79935 34.1527 7.93767 34.0451C8.06062 33.999 8.16821 33.9529 8.26042 33.8606L11.1857 30.9507C11.2165 30.92 11.2318 30.8739 11.2626 30.8278C14.0188 33.3688 17.6101 33.8145 19.2341 33.876V38.3331C19.2341 38.7481 19.5773 39.1016 20.0077 39.1016C20.4278 39.1016 20.7813 38.7481 20.7813 38.3331V33.876C22.3028 33.8299 26.0324 33.4149 28.8655 30.8073C28.8963 30.8534 28.927 30.9149 28.9731 30.961L31.883 33.8606C32.0418 34.0143 32.2263 34.0758 32.4261 34.0758C32.6259 34.0758 32.8308 34.0143 32.9845 33.8606C33.2765 33.5533 33.2765 33.0768 32.9845 32.7643L30.0592 29.8646C30.0131 29.8031 29.9516 29.7724 29.8696 29.7417C31.3246 27.9537 32.3492 25.3973 32.4261 21.7445C32.4875 21.7599 32.549 21.7752 32.6259 21.7752H37.2213C37.6567 21.7752 37.9949 21.4371 37.9949 21.0068C38.0051 20.5969 37.667 20.2383 37.2315 20.2383Z" fill="#86888C"/>
</svg>
