<svg width="40" height="40" viewBox="0 0 40 40" fill="none" xmlns="http://www.w3.org/2000/svg">
<path d="M23.9307 38.2539H10.7844C8.90851 38.2539 7.56056 37.8132 6.66876 36.9113C5.77696 36.0093 5.35156 34.6462 5.35156 32.745V7.7628C5.35156 4.05775 7.13004 2.25391 10.7844 2.25391H23.9307C27.6363 2.25391 29.3635 4.0065 29.3635 7.7628V10.7607C29.3635 11.0425 29.1329 11.2731 28.851 11.2731C28.5691 11.2731 28.3385 11.0425 28.3385 10.7607V7.7628C28.3385 4.57533 27.0623 3.27882 23.9307 3.27882H10.7844C7.69382 3.27882 6.37662 4.62145 6.37662 7.7628V32.745C6.37662 34.3644 6.70976 35.4918 7.40168 36.1938C8.09359 36.8959 9.19553 37.2341 10.7844 37.2341H23.9307C25.5196 37.2341 26.6266 36.8959 27.3134 36.1938C28.0002 35.4918 28.3385 34.3644 28.3385 32.745V25.75C28.3385 25.4681 28.5691 25.2375 28.851 25.2375C29.1329 25.2375 29.3635 25.4681 29.3635 25.75V32.745C29.3635 34.6462 28.933 36.0093 28.0412 36.9113C27.1494 37.8132 25.8066 38.2539 23.9307 38.2539Z" fill="#86888C"/>
<path d="M17.3601 30.9207C16.4375 30.9207 15.8379 31.4075 15.8379 32.4478C15.8379 32.95 15.9763 33.319 16.2223 33.5701C16.4888 33.8417 16.8783 33.9749 17.3601 33.9749C17.8419 33.9749 18.2314 33.8417 18.4979 33.5701C18.7439 33.319 18.8823 32.9449 18.8823 32.4478C18.8772 31.4075 18.2775 30.9207 17.3601 30.9207ZM32.5156 26.2624H25.1608C24.0281 26.2624 23.3259 25.5604 23.3259 24.4279V13.7585C23.3259 13.6202 23.3823 13.4921 23.4746 13.3947L26.4728 10.4071C26.5702 10.3097 26.6984 10.2585 26.8367 10.2585H32.5156C33.6482 10.2585 34.3504 10.9605 34.3504 12.0931V24.433C34.3504 25.5604 33.6431 26.2624 32.5156 26.2624ZM24.3561 13.9686V24.4279C24.3561 24.9967 24.597 25.2375 25.1659 25.2375H32.5156C33.0845 25.2375 33.3253 24.9967 33.3253 24.4279V12.0879C33.3253 11.5191 33.0845 11.2783 32.5156 11.2783H27.052L24.3561 13.9686Z" fill="#86888C"/>
<path d="M31.9261 23.5106H25.7502C25.4683 23.5106 25.2376 23.28 25.2376 22.9981V16.5104C25.2376 16.2286 25.4683 15.998 25.7502 15.998H31.9261C32.208 15.998 32.4387 16.2286 32.4387 16.5104V22.993C32.4387 23.28 32.208 23.5106 31.9261 23.5106ZM26.2678 22.4857H31.4136V17.0229H26.2627L26.2678 22.4857Z" fill="#86888C"/>
<path d="M27.8055 19.0829C27.5236 19.0829 27.293 18.8523 27.293 18.5705V16.5155C27.293 16.2337 27.5236 16.0031 27.8055 16.0031C28.0874 16.0031 28.318 16.2337 28.318 16.5155V18.5705C28.318 18.8523 28.0874 19.0829 27.8055 19.0829ZM29.8607 19.0829C29.5788 19.0829 29.3482 18.8523 29.3482 18.5705V16.5155C29.3482 16.2337 29.5788 16.0031 29.8607 16.0031C30.1426 16.0031 30.3733 16.2337 30.3733 16.5155V18.5705C30.3733 18.8523 30.1426 19.0829 29.8607 19.0829ZM27.8055 23.5105C27.5236 23.5105 27.293 23.2799 27.293 22.9981V20.9431C27.293 20.6613 27.5236 20.4307 27.8055 20.4307C28.0874 20.4307 28.318 20.6613 28.318 20.9431V22.9981C28.318 23.2799 28.0874 23.5105 27.8055 23.5105ZM29.8607 23.5105C29.5788 23.5105 29.3482 23.2799 29.3482 22.9981V20.9431C29.3482 20.6613 29.5788 20.4307 29.8607 20.4307C30.1426 20.4307 30.3733 20.6613 30.3733 20.9431V22.9981C30.3733 23.2799 30.1426 23.5105 29.8607 23.5105Z" fill="#86888C"/>
<path d="M31.9261 19.0829H25.7502C25.4683 19.0829 25.2376 18.8523 25.2376 18.5705C25.2376 18.2886 25.4683 18.058 25.7502 18.058H31.9261C32.208 18.058 32.4387 18.2886 32.4387 18.5705C32.4387 18.8523 32.208 19.0829 31.9261 19.0829ZM31.9261 21.4505H25.7502C25.4683 21.4505 25.2376 21.2199 25.2376 20.938C25.2376 20.6562 25.4683 20.4256 25.7502 20.4256H31.9261C32.208 20.4256 32.4387 20.6562 32.4387 20.938C32.4387 21.2199 32.208 21.4505 31.9261 21.4505Z" fill="#86888C"/>
</svg>
