<svg width="40" height="40" viewBox="0 0 40 40" fill="none" xmlns="http://www.w3.org/2000/svg">
<path fill-rule="evenodd" clip-rule="evenodd" d="M36.7701 32.5038V9.49621C36.7807 9.03414 36.4143 8.64643 35.9469 8.63581H3.37936C2.91199 8.64643 2.54552 9.02883 2.55615 9.49621V32.5038C2.55615 32.9818 2.92792 33.3642 3.37936 33.3642H35.9469C36.409 33.3536 36.7807 32.9659 36.7701 32.5038ZM35.9469 7C37.2587 7 38.3262 8.12064 38.3262 9.49621V32.5038C38.3262 33.8794 37.2587 35 35.9469 35H3.38467C2.06753 35 1 33.8794 1 32.5038V9.49621C1 8.12064 2.06753 7 3.37936 7H35.9469ZM17.7618 23.6396C18.192 23.6396 18.5372 24.0061 18.5372 24.4575C18.5372 24.909 18.192 25.2754 17.7618 25.2754H5.12671C4.68589 25.2648 4.33536 24.8983 4.34598 24.4575C4.34598 24.0061 4.6912 23.6396 5.1214 23.6396H17.7618ZM5.12671 18.7375C4.68589 18.7269 4.34067 18.3604 4.35129 17.9196C4.35129 17.4681 4.70182 17.1017 5.12671 17.1017H13.6988C14.129 17.1017 14.4742 17.4681 14.4742 17.9196C14.4742 18.371 14.129 18.7375 13.6988 18.7375H5.12671ZM27.0137 16.0341C26.7162 16.3422 26.6525 16.9158 26.6525 17.346C26.6525 17.7709 26.7162 18.3445 27.0137 18.6472C27.3058 18.9393 27.8369 19.003 28.2352 19.003C28.6335 19.003 29.17 18.9393 29.4621 18.6472C29.7011 18.4029 29.8285 17.9674 29.8285 17.346C29.8285 16.7246 29.7064 16.2838 29.4621 16.0395C29.1646 15.7367 28.6335 15.673 28.2352 15.673C27.8369 15.673 27.3058 15.7367 27.0137 16.0341ZM28.2299 20.6335C27.2367 20.6335 26.4613 20.3574 25.9302 19.8156C25.3725 19.258 25.091 18.4241 25.091 17.3407C25.091 16.2572 25.3725 15.4181 25.9302 14.8551C26.4613 14.3134 27.242 14.0372 28.2299 14.0372C29.2231 14.0372 29.9985 14.3134 30.5349 14.8551C31.0926 15.4181 31.3794 16.2572 31.3794 17.3407C31.3794 18.4241 31.0979 19.258 30.5349 19.8156C29.9985 20.3627 29.2231 20.6335 28.2299 20.6335ZM24.2147 25.5835H32.2557C32.2344 25.1692 32.1335 24.6593 31.7883 24.2876C31.3528 23.8149 30.6571 23.7193 30.1472 23.7193H26.3126C25.8027 23.7193 25.1017 23.8202 24.6768 24.2876C24.3422 24.654 24.236 25.1692 24.2147 25.5835ZM30.1472 22.0781C31.3103 22.0781 32.2663 22.4499 32.909 23.151C33.5038 23.7989 33.8171 24.6912 33.8171 25.7428V26.8369C33.8225 27.0387 33.6631 27.2086 33.4613 27.214H23.0091C22.8073 27.2086 22.648 27.0387 22.6533 26.8369V25.7428C22.6533 24.6912 22.9666 23.7989 23.5561 23.151C24.1988 22.4446 25.1548 22.0781 26.3179 22.0781H30.1472Z" fill="#86888C"/>
</svg>
