<svg width="20" height="20" viewBox="0 0 20 20" fill="none" xmlns="http://www.w3.org/2000/svg">
<path fill-rule="evenodd" clip-rule="evenodd" d="M16.6126 13.7503V11.6685C16.6126 11.6554 16.6126 11.5924 16.6061 11.5142C16.593 11.3925 16.5562 11.2208 16.4281 11.0861C16.2827 10.9274 16.0397 10.8492 15.7164 10.8492H11.2267C11.1182 10.8492 10.8209 10.8688 10.6169 11.0535C10.4781 11.1882 10.4065 11.3925 10.4065 11.6598V15.5474C10.4065 15.5735 10.3869 15.906 10.5974 16.1276C10.745 16.2819 10.9793 16.358 11.2961 16.358H15.7164C15.7359 16.358 16.1504 16.3841 16.4043 16.1407C16.5431 16.0059 16.6147 15.8082 16.6147 15.5409L16.6126 13.7503ZM15.443 9.66487C15.443 7.99159 14.1909 7.7808 13.6441 7.76993L13.4466 7.76341C12.9193 7.76993 11.6781 7.96116 11.6781 9.65183V10.2125H15.443V9.66487ZM9.77066 11.6619C9.77066 11.2012 9.90954 10.8383 10.1895 10.5819C10.4694 10.3277 10.8057 10.2429 11.0423 10.2233V9.64965C11.0423 7.8047 12.2813 7.13539 13.4466 7.12235L13.6614 7.12887C14.831 7.15495 16.0788 7.8373 16.0788 9.66269V10.2364C16.2827 10.269 16.4542 10.3385 16.6061 10.4276V5.72505C16.6061 5.53382 16.4542 5.38823 16.2697 5.38823H9.29327C9.11533 5.38823 8.97645 5.24046 8.97645 5.06878V3.97572C8.97645 3.78449 8.82455 3.63672 8.6401 3.63672H2.97215C2.7877 3.63672 2.6358 3.78449 2.6358 3.97572V14.713C2.6358 14.8998 2.7877 15.052 2.97215 15.052H9.77066V11.6619ZM17.2419 11.4468C17.2549 11.5728 17.2484 11.6685 17.2484 11.6945V15.5452C17.2484 15.9972 17.1073 16.3536 16.8361 16.6166C16.3847 17.0382 15.7598 16.999 15.6903 16.999H11.2961C10.7949 16.999 10.3999 16.8513 10.133 16.5579C9.85312 16.258 9.78368 15.8951 9.77066 15.6908H2.97215C2.43833 15.6887 2 15.2497 2 14.713V3.97572C2 3.43244 2.43833 3 2.97215 3H8.63793C9.17175 3 9.61008 3.43462 9.61008 3.97572V4.74716H16.2675C16.8014 4.74716 17.2397 5.18178 17.2397 5.72288L17.2419 11.4468ZM13.5529 14.5565C13.8806 14.55 14.269 14.4131 14.269 13.7981C14.269 13.1809 13.8784 13.0418 13.5486 13.0332H13.4574C13.1363 13.0353 12.7544 13.1701 12.7544 13.7916C12.7544 14.4152 13.1428 14.5521 13.4683 14.5565H13.5529ZM13.5616 12.3964C14.1822 12.4117 14.9048 12.7876 14.9048 13.7981C14.9048 14.8107 14.1822 15.1823 13.5659 15.1932H13.4553C12.839 15.1845 12.1164 14.8107 12.1164 13.7916C12.1164 12.768 12.8347 12.4008 13.4509 12.3943L13.5616 12.3964ZM4.06798 8.37622C4.22205 8.37622 4.4564 8.37622 4.4564 7.48308C4.4564 6.5856 4.22205 6.5856 4.06798 6.5856C3.91174 6.5856 3.67522 6.5856 3.67522 7.48308C3.67739 8.37405 3.91391 8.37405 4.06798 8.37622ZM4.06798 6.00321C4.71463 6.00321 5.04013 6.49867 5.04013 7.48091C5.04013 8.4588 4.71246 8.95427 4.06798 8.95427C3.41916 8.95427 3.09149 8.4588 3.09149 7.48091C3.09366 6.50085 3.42133 6.00321 4.06798 6.00321ZM6.53306 8.37405C6.68713 8.37405 6.92149 8.37405 6.92149 7.48091C6.92149 6.58342 6.68713 6.58342 6.53306 6.58342C6.37683 6.58342 6.1403 6.58342 6.1403 7.48091C6.1403 8.37405 6.37683 8.37405 6.53306 8.37405ZM6.53306 6.00321C7.17972 6.00321 7.50521 6.49867 7.50521 7.48091C7.50521 8.4588 7.17755 8.95427 6.53306 8.95427C5.88424 8.95427 5.55658 8.4588 5.55658 7.48091C5.55658 6.50085 5.88424 6.00321 6.53306 6.00321ZM4.50631 12.5116C4.63868 12.5116 4.74501 12.6181 4.74501 12.7507V12.8419C4.74501 12.9745 4.63868 13.081 4.50631 13.081H3.63833C3.50596 13.081 3.39963 12.9745 3.39963 12.8419V12.7507C3.39963 12.6181 3.50596 12.5116 3.63833 12.5116H3.81626V10.7797H3.66654C3.53417 10.7797 3.42784 10.6732 3.42784 10.5406V10.4646C3.42784 10.3429 3.51898 10.2386 3.64267 10.2255C3.79456 10.2103 3.93561 10.2038 3.98986 10.2038C4.3631 10.2038 4.39131 10.4754 4.39131 10.558V12.5138C4.39348 12.5116 4.50631 12.5116 4.50631 12.5116ZM6.53306 12.5486C6.68713 12.5486 6.92149 12.5486 6.92149 11.6554C6.92149 10.7579 6.68713 10.7579 6.53306 10.7579C6.37683 10.7579 6.1403 10.7579 6.1403 11.6554C6.1403 12.5486 6.37683 12.5486 6.53306 12.5486ZM6.53306 10.1777C7.17972 10.1777 7.50521 10.6732 7.50521 11.6554C7.50521 12.6333 7.17755 13.1288 6.53306 13.1288C5.88424 13.1288 5.55658 12.6333 5.55658 11.6554C5.55658 10.6754 5.88424 10.1777 6.53306 10.1777ZM9.43214 12.5116C9.56451 12.5116 9.67084 12.6181 9.67084 12.7507V12.8419C9.67084 12.9745 9.56451 13.081 9.43214 13.081H8.56633C8.43396 13.081 8.32763 12.9745 8.32763 12.8419V12.7507C8.32763 12.6181 8.43396 12.5116 8.56633 12.5116H8.74426V10.7797H8.59454C8.46217 10.7797 8.35584 10.6732 8.35584 10.5406V10.4646C8.35584 10.3429 8.44698 10.2386 8.57067 10.2255C8.72256 10.2103 8.86361 10.2038 8.91786 10.2038C9.2911 10.2038 9.3193 10.4754 9.3193 10.558V12.5138C9.32148 12.5116 9.43214 12.5116 9.43214 12.5116Z" fill="#86888C"/>
</svg>
