<svg width="40" height="40" viewBox="0 0 40 40" fill="none" xmlns="http://www.w3.org/2000/svg">
<path fill-rule="evenodd" clip-rule="evenodd" d="M36.4713 35.7723L36.4867 14.1521L31.2314 14.1214C29.5258 14.1061 28.1685 13.599 27.1543 12.5746C25.4333 10.8177 25.464 8.23108 25.464 8.11327L25.4026 3.60588L13.0585 3.62125C12.5258 3.62125 12.0853 4.04638 12.0802 4.58419V10.956L13.2429 8.68694C13.5912 7.97498 14.4465 7.68302 15.1585 8.03132C15.1636 8.03644 15.1687 8.03644 15.179 8.04156C15.4658 8.17474 15.7014 8.4001 15.8397 8.7023L26.7394 30.4966C26.9033 30.809 26.9494 31.2034 26.8316 31.5619C26.6575 32.1715 26.094 32.5915 25.4589 32.5812H25.4077L12.0955 32.5351V35.5418C12.0802 35.9003 12.157 36.1564 12.3209 36.3254C12.5207 36.5508 12.8331 36.5969 13.0585 36.5969L35.6825 36.5662C36.1281 36.5662 36.4713 36.2025 36.4713 35.7723ZM3.52124 31.0651H12.0955L25.4384 31.0805L14.4978 9.35792L12.0802 14.1368L10.5692 17.1127L3.52124 31.0651ZM27.0263 3.96442C26.9955 3.92857 26.9597 3.89784 26.9238 3.87223L26.9853 8.10815C26.9853 8.24132 27.0006 10.2543 28.2555 11.5194C28.9675 12.2416 29.9766 12.6155 31.2417 12.6155L36.0257 12.6463C36.0205 12.6463 27.0263 3.96442 27.0263 3.96442ZM37.5418 12.0163C37.8286 12.3031 37.9977 12.6975 37.9977 13.097L37.9823 35.7671C37.9823 37.0272 36.9579 38.0669 35.6876 38.0669L13.0482 38.0977C12.3107 38.0977 11.6602 37.8262 11.2248 37.3652C10.774 36.8837 10.5589 36.2384 10.5897 35.5008V32.5403L3.4649 32.5095C2.66586 32.571 2.01537 31.8795 2 31.0805C2 30.8397 2.06146 30.6144 2.16903 30.389L10.5743 13.9063V4.57907C10.5743 3.22685 11.6909 2.11537 13.0482 2.11537L26.1504 2.1C26.888 2.06927 27.5231 2.34074 28.0814 2.89392L37.5418 12.0163ZM14.5746 25.226C14.1597 25.2209 13.8268 24.8879 13.8217 24.473V16.2983C13.8217 15.8834 14.1597 15.5453 14.5746 15.5453C14.9895 15.5453 15.3275 15.8834 15.3275 16.2983V24.473C15.3275 24.8777 14.9946 25.2209 14.5746 25.226ZM14.5848 28.5246C13.9395 28.5246 13.4119 28.0021 13.4068 27.3568C13.4068 26.7063 13.9343 26.1787 14.5848 26.1787C15.2353 26.1787 15.7629 26.7063 15.7629 27.3568C15.7629 28.0021 15.2405 28.5246 14.5848 28.5246Z" fill="#86888C"/>
</svg>
