<svg width="20" height="20" viewBox="0 0 20 20" fill="none" xmlns="http://www.w3.org/2000/svg">
<path d="M16.5851 18H8.02948C7.57041 18 7.31689 17.7442 7.31689 17.2828V13.391C7.31689 13.2654 7.41967 13.1626 7.54529 13.1626C7.6709 13.1626 7.77368 13.2654 7.77368 13.391V17.2828C7.77368 17.493 7.82393 17.5432 8.03177 17.5432H17.3251C17.5078 17.5432 17.5604 17.4884 17.5626 17.3057V6.77901L13.2391 2.4578H8.0272C7.83078 2.4578 7.77368 2.5149 7.77368 2.70904V4.90162C7.77368 5.02723 7.6709 5.13001 7.54529 5.13001C7.41967 5.13001 7.31689 5.02723 7.31689 4.90162V4.12965V2.70904C7.31689 2.26138 7.57726 2.0033 8.0272 2.00102C8.50226 2.00102 11.0671 1.99873 13.3351 2.00102C13.3967 2.00102 13.4538 2.02614 13.4972 2.06725L17.9509 6.52093C17.9943 6.56432 18.0171 6.62142 18.0171 6.68309V17.3057C18.0171 17.7465 17.7636 18 17.3251 18H16.5851Z" fill="#86888C"/>
<path d="M17.7889 6.91144H15.5621C14.8449 6.91144 14.2305 6.6762 13.7852 6.23311C13.3398 5.79003 13.1068 5.17565 13.1068 4.45621V3.22974V2.22937C13.1068 2.10375 13.2096 2.00098 13.3352 2.00098C13.3946 2.00098 13.454 2.02382 13.4951 2.06721L17.9488 6.52089C18.0379 6.60996 18.0379 6.75385 17.9488 6.84292C17.9077 6.88632 17.8483 6.91144 17.7889 6.91144ZM13.5636 2.7798V4.45621C13.5636 5.66898 14.347 6.45466 15.5621 6.45466H17.2385L13.5636 2.7798ZM8.66229 13.5326C6.17508 13.5326 4.16064 11.5181 4.16064 9.03094C4.16064 6.54373 6.17508 4.5293 8.66229 4.5293C11.1495 4.5293 13.1639 6.54373 13.1639 9.03094C13.1639 10.2254 12.6889 11.3697 11.8461 12.2147C11.0033 13.0598 9.85679 13.5349 8.66229 13.5326ZM8.66229 4.98608C6.42859 4.98608 4.61743 6.79725 4.61743 9.03094C4.61743 11.2646 6.42859 13.0758 8.66229 13.0758C10.896 13.0758 12.7071 11.2646 12.7071 9.03094C12.7071 7.95749 12.28 6.92971 11.5218 6.16916C10.7658 5.40861 9.73574 4.9838 8.66229 4.98608Z" fill="#86888C"/>
<path d="M2.22839 15.8073C2.10278 15.8073 2 15.7068 2 15.5789C2 15.5196 2.02284 15.4602 2.06623 15.4191L5.47844 11.8927C5.56751 11.8036 5.7114 11.8013 5.80047 11.8904C5.88955 11.9772 5.89183 12.1211 5.80504 12.2124L2.39284 15.7365C2.34944 15.7822 2.29006 15.8073 2.22839 15.8073Z" fill="#86888C"/>
</svg>
