<svg width="24" height="24" viewBox="0 0 24 24" fill="none" xmlns="http://www.w3.org/2000/svg">
<path fill-rule="evenodd" clip-rule="evenodd" d="M21.1507 21.8058L21.1593 9.7946L18.2397 9.77752C17.2921 9.76899 16.538 9.48727 15.9746 8.91816C15.0185 7.94213 15.0356 6.50511 15.0356 6.43966L15.0014 3.93556L8.14359 3.9441C7.84765 3.9441 7.60294 4.18028 7.60009 4.47906V8.01896L8.24604 6.75837C8.43953 6.36283 8.91474 6.20064 9.31028 6.39414C9.31313 6.39698 9.31597 6.39698 9.32166 6.39983C9.48101 6.47381 9.61191 6.59902 9.68874 6.76691L15.7441 18.8748C15.8352 19.0484 15.8608 19.2675 15.7953 19.4667C15.6986 19.8053 15.3856 20.0387 15.0327 20.033H15.0043L7.60863 20.0074V21.6777C7.60009 21.8769 7.64277 22.0192 7.73383 22.1131C7.84481 22.2383 8.01839 22.2639 8.14359 22.2639L20.7125 22.2468C20.9601 22.2468 21.1507 22.0448 21.1507 21.8058ZM2.84514 19.1907H7.60863L15.0213 19.1992L8.9432 7.13114L7.60009 9.78606L6.76065 11.4393L2.84514 19.1907ZM15.9035 4.13475C15.8864 4.11483 15.8665 4.09776 15.8466 4.08353L15.8807 6.43682C15.8807 6.5108 15.8892 7.62911 16.5864 8.33197C16.9819 8.7332 17.5425 8.94092 18.2454 8.94092L20.9031 8.958C20.9003 8.958 15.9035 4.13475 15.9035 4.13475ZM21.7454 8.60799C21.9048 8.76734 21.9987 8.98645 21.9987 9.20841L21.9902 21.8029C21.9902 22.5029 21.421 23.0806 20.7153 23.0806L8.1379 23.0977C7.72814 23.0977 7.36675 22.9468 7.12488 22.6907C6.87447 22.4233 6.75495 22.0647 6.77203 21.655V20.0102L2.81383 19.9931C2.36992 20.0273 2.00854 19.6431 2 19.1992C2 19.0655 2.03415 18.9403 2.0939 18.8151L6.76349 9.65801V4.47622C6.76349 3.72499 7.38383 3.1075 8.1379 3.1075L15.4169 3.09896C15.8266 3.08189 16.1795 3.2327 16.4897 3.54002L21.7454 8.60799ZM8.98588 15.9467C8.75539 15.9439 8.57043 15.7589 8.56759 15.5284V10.9869C8.56759 10.7564 8.75539 10.5686 8.98588 10.5686C9.21638 10.5686 9.40418 10.7564 9.40418 10.9869V15.5284C9.40418 15.7532 9.21922 15.9439 8.98588 15.9467ZM8.99158 17.7793C8.63303 17.7793 8.33994 17.489 8.33709 17.1305C8.33709 16.7691 8.63019 16.476 8.99158 16.476C9.35296 16.476 9.64606 16.7691 9.64606 17.1305C9.64606 17.489 9.35581 17.7793 8.99158 17.7793Z" fill="#86888C"/>
</svg>
