<svg width="40" height="40" viewBox="0 0 40 40" fill="none" xmlns="http://www.w3.org/2000/svg">
<path fill-rule="evenodd" clip-rule="evenodd" d="M31.7453 36.494C32.1239 36.494 32.482 36.1559 32.482 35.7974V14.0581H27.8266C26.0514 14.0581 24.5217 13.4792 23.4065 12.3882C22.281 11.2869 21.6876 9.78088 21.6876 8.02903V3.50085H9.22539C8.88774 3.50085 8.48871 3.87991 8.48871 4.1975V35.7974C8.48871 36.1406 8.86216 36.494 9.22539 36.494H31.7453ZM32.0932 12.5572L23.1763 3.83381V8.03415C23.1763 9.36596 23.6162 10.5031 24.445 11.3125C25.2789 12.1269 26.4504 12.5623 27.8317 12.5623H32.0932V12.5572ZM33.5972 11.9323C33.8326 12.1628 33.9707 12.4855 33.9707 12.8184V35.7974C33.9707 36.9909 32.9526 38 31.7453 38H9.22539C8.03851 38 7 36.9704 7 35.7974V4.20262C7 3.05009 8.05898 2 9.22539 2H22.9307C23.253 2 23.5702 2.12806 23.8004 2.35344L33.5972 11.9323ZM13.8041 22.4895C13.6608 22.638 13.4664 22.7097 13.2771 22.7097C13.0878 22.7097 12.8986 22.638 12.7502 22.4895C12.4586 22.1975 12.4586 21.7211 12.7502 21.424L14.4742 19.6773L12.7502 17.9306C12.4586 17.6335 12.4586 17.1622 12.7502 16.8651C13.0418 16.568 13.5125 16.568 13.8041 16.8651L15.5281 18.6118L17.2521 16.8651C17.5437 16.568 18.0144 16.568 18.306 16.8651C18.5976 17.1571 18.5976 17.6335 18.306 17.9306L16.582 19.6773L18.306 21.424C18.5976 21.716 18.5976 22.1924 18.306 22.4895C18.1628 22.638 17.9735 22.7097 17.7791 22.7097C17.5898 22.7097 17.4005 22.638 17.2521 22.4895L15.5281 20.7427L13.8041 22.4895ZM28.466 16.8702C28.7576 17.1622 28.7576 17.6386 28.466 17.9357L26.742 19.6824L28.466 21.4291C28.7576 21.7262 28.7576 22.1975 28.466 22.4946C28.3228 22.6431 28.1284 22.7149 27.9391 22.7149C27.7498 22.7149 27.5605 22.6431 27.4122 22.4946L25.6881 20.7479L23.9641 22.4946C23.8209 22.6431 23.6265 22.7149 23.4372 22.7149C23.2479 22.7149 23.0586 22.6431 22.9102 22.4946C22.6186 22.2026 22.6186 21.7262 22.9102 21.4291L24.6343 19.6824L22.9102 17.9357C22.6186 17.6437 22.6186 17.1673 22.9102 16.8702C23.2019 16.5783 23.6725 16.5783 23.9641 16.8702L25.6881 18.617L27.4122 16.8702C27.7089 16.5731 28.1796 16.5731 28.466 16.8702ZM24.8952 26.0598C26.2202 26.0905 27.7703 26.905 27.7703 29.0871C27.7703 29.502 27.4378 29.8401 27.0285 29.8401C26.6141 29.8401 26.2867 29.502 26.2867 29.0871C26.2867 27.8577 25.5142 27.5811 24.8645 27.5657H24.6854C24.046 27.5709 23.2939 27.8372 23.2939 29.0717C23.2939 31.2999 21.7541 32.099 20.4342 32.1093H20.1989C18.8739 32.0785 17.3238 31.2641 17.3238 29.082C17.3238 27.8526 16.5513 27.576 15.9016 27.5606H15.7225C15.0779 27.5657 14.331 27.8321 14.331 29.0666C14.331 29.4815 13.9985 29.8196 13.5892 29.8196C13.1748 29.8196 12.8474 29.4815 12.8474 29.0666C12.8474 26.8537 14.3873 26.0649 15.7072 26.0546H15.9425C17.2675 26.0854 18.8176 26.8998 18.8176 29.082C18.8176 30.3113 19.5901 30.5879 20.2398 30.6033H20.4342C21.3448 30.5982 21.8103 30.0859 21.8103 29.0973C21.8103 26.8589 23.3502 26.0649 24.6701 26.0546L24.8952 26.0598Z" fill="#86888C"/>
</svg>
