<svg width="40" height="40" viewBox="0 0 40 40" fill="none" xmlns="http://www.w3.org/2000/svg">
<path d="M26.545 38.2539H13.5224C11.6371 38.2539 10.2757 37.8183 9.36647 36.9164C8.44693 36.0094 8 34.6411 8 32.745V7.7628C8 5.91796 8.44693 4.57021 9.36134 3.64779C10.2912 2.70999 11.6525 2.25391 13.5224 2.25391H26.545C28.4355 2.25391 29.7968 2.69974 30.7112 3.61704C31.6256 4.53433 32.0674 5.88722 32.0674 7.7628V32.745C32.0674 34.6411 31.6205 36.0042 30.7009 36.9164C29.7917 37.8183 28.4303 38.2539 26.545 38.2539ZM13.5224 3.27882C11.9402 3.27882 10.8203 3.63241 10.0908 4.36522C9.37161 5.08779 9.02229 6.19981 9.02229 7.7628V32.745C9.02229 35.9325 10.3271 37.229 13.5173 37.229H26.5399C29.7352 37.229 31.0349 35.9325 31.0349 32.745V7.7628C31.0349 6.16907 30.6907 5.04679 29.9817 4.3396C29.2728 3.63241 28.1478 3.27882 26.545 3.27882H13.5224Z" fill="#86888C"/>
<path d="M20.0466 30.9207C19.1219 30.9207 18.5208 31.4075 18.5208 32.4478C18.5208 32.95 18.6595 33.319 18.9061 33.5701C19.1732 33.8417 19.5637 33.9749 20.0466 33.9749C20.5294 33.9749 20.9199 33.8417 21.187 33.5701C21.4336 33.319 21.5671 32.95 21.5671 32.4478C21.5671 31.4075 20.9712 30.9207 20.0466 30.9207ZM20.0363 27.4975C19.8873 27.4975 19.7486 27.436 19.651 27.3232L13.3426 20.1437C13.1577 19.9285 13.1782 19.6056 13.3888 19.4212C13.4813 19.3392 13.6046 19.2931 13.7279 19.2931H16.9232V9.57177C16.9078 9.22843 17.0465 8.89533 17.3033 8.6596C17.5756 8.39825 17.9455 8.27013 18.3205 8.31113H21.8548C22.2093 8.31113 22.5483 8.45974 22.7795 8.72622C23.0055 8.98245 23.1134 9.32067 23.0723 9.66401V19.2931H26.3652C26.6478 19.2931 26.8789 19.5237 26.8789 19.8055C26.8789 19.9285 26.8327 20.0515 26.7505 20.1437L20.4216 27.3284C20.324 27.436 20.1853 27.4975 20.0363 27.4975ZM14.8581 20.318L20.0363 26.2112L25.2299 20.318H22.5586C22.2761 20.318 22.0449 20.0874 22.0449 19.8055V9.62814C22.0449 9.60252 22.0449 9.5769 22.05 9.55127C22.0603 9.50003 22.0449 9.44366 22.0089 9.40266C21.973 9.36166 21.9267 9.33604 21.8754 9.33604H18.2897C18.2691 9.33604 18.2486 9.33604 18.2229 9.33092C18.1458 9.32067 18.0636 9.34629 18.0071 9.40266C17.9712 9.42828 17.9506 9.46928 17.9455 9.5154V19.8055C17.9455 20.0874 17.7143 20.318 17.4318 20.318H14.8581Z" fill="#86888C"/>
</svg>
