<svg width="28" height="28" viewBox="0 0 28 28" fill="none" xmlns="http://www.w3.org/2000/svg">
<path d="M19.3633 26H10.6816C9.42472 26 8.51716 25.7096 7.91098 25.1083C7.29795 24.5036 7 23.5915 7 22.3274V5.6726C7 4.4427 7.29795 3.5442 7.90756 2.92925C8.52744 2.30406 9.435 2 10.6816 2H19.3633C20.6236 2 21.5312 2.29722 22.1408 2.90875C22.7504 3.52028 23.0449 4.42221 23.0449 5.6726V22.3274C23.0449 23.5915 22.747 24.5002 22.134 25.1083C21.5278 25.7096 20.6202 26 19.3633 26ZM10.6816 2.68327C9.62678 2.68327 8.88019 2.919 8.39387 3.40754C7.91441 3.88925 7.68152 4.6306 7.68152 5.6726V22.3274C7.68152 24.4524 8.55141 25.3167 10.6782 25.3167H19.3599C21.4901 25.3167 22.3566 24.4524 22.3566 22.3274V5.6726C22.3566 4.61011 22.1271 3.86192 21.6545 3.39046C21.1819 2.919 20.4319 2.68327 19.3633 2.68327H10.6816Z" fill="#86888C"/>
<path d="M15.031 21.1112C14.4146 21.1112 14.0139 21.4357 14.0139 22.1293C14.0139 22.4641 14.1064 22.71 14.2707 22.8774C14.4488 23.0585 14.7091 23.1473 15.031 23.1473C15.353 23.1473 15.6132 23.0585 15.7913 22.8774C15.9557 22.71 16.0448 22.4641 16.0448 22.1293C16.0448 21.4357 15.6475 21.1112 15.031 21.1112ZM15.0242 18.829C14.9249 18.829 14.8324 18.788 14.7673 18.7129L10.5617 13.9265C10.4384 13.7831 10.4521 13.5678 10.5926 13.4448C10.6542 13.3902 10.7364 13.3594 10.8186 13.3594H12.9488V6.87858C12.9385 6.64968 13.031 6.42762 13.2022 6.27046C13.3837 6.09623 13.6303 6.01082 13.8803 6.03815H16.2365C16.4729 6.03815 16.6989 6.13722 16.853 6.31488C17.0037 6.48569 17.0756 6.71117 17.0482 6.94007V13.3594H19.2435C19.4318 13.3594 19.5859 13.5132 19.5859 13.7011C19.5859 13.7831 19.5551 13.8651 19.5003 13.9265L15.281 18.7163C15.216 18.788 15.1235 18.829 15.0242 18.829ZM11.572 14.0427L15.0242 17.9715L18.4866 14.0427H16.7057C16.5174 14.0427 16.3633 13.889 16.3633 13.7011V6.91616C16.3633 6.89907 16.3633 6.88199 16.3667 6.86491C16.3735 6.83075 16.3633 6.79317 16.3393 6.76584C16.3153 6.73851 16.2845 6.72142 16.2502 6.72142H13.8598C13.8461 6.72142 13.8324 6.72142 13.8152 6.71801C13.7639 6.71117 13.7091 6.72826 13.6714 6.76584C13.6474 6.78292 13.6337 6.81025 13.6303 6.841V13.7011C13.6303 13.889 13.4762 14.0427 13.2878 14.0427H11.572Z" fill="#86888C"/>
</svg>
