<svg width="28" height="28" viewBox="0 0 28 28" fill="none" xmlns="http://www.w3.org/2000/svg">
<path fill-rule="evenodd" clip-rule="evenodd" d="M24.6003 25.3006C24.853 25.3006 25.0955 25.0751 25.0955 24.8395V10.3548H21.9636C20.7682 10.3548 19.7367 9.96884 18.9853 9.23794C18.2271 8.50705 17.8241 7.49951 17.8241 6.33144V3.31906H9.43247C9.20705 3.31906 8.93724 3.56838 8.93724 3.78014V10.5119H17.1103C18.6335 10.5119 19.8733 11.7517 19.8733 13.2784V18.3741C19.8733 19.9008 18.6335 21.1406 17.1103 21.1406H8.98164L8.93724 24.8497C8.93724 25.0717 9.18656 25.304 9.43247 25.304H24.6003V25.3006ZM3.10374 18.3673C3.10374 19.3373 3.88928 20.1262 4.85925 20.1262H17.1137C18.0803 20.1262 18.8692 19.3373 18.8692 18.3673V13.2715C18.8692 12.3016 18.0837 11.5126 17.1137 11.5126H4.85925C3.89269 11.5126 3.10374 12.3016 3.10374 13.2715V18.3673ZM24.8291 9.34382L18.8316 3.53765V6.32803C18.8316 7.21603 19.1254 7.97083 19.6855 8.51046C20.2456 9.05351 21.0346 9.34382 21.9636 9.34382H24.8291ZM26.0586 9.31991C26.0859 9.38139 26.0996 9.44628 26.0996 9.51801V24.8361C26.0996 25.6319 25.4131 26.3047 24.6003 26.3047H9.43588C8.63668 26.3047 7.93652 25.6182 7.93652 24.8361L7.98092 21.1338H4.86267C3.3394 21.1338 2.09961 19.894 2.09961 18.3673V13.2715C2.09961 11.7448 3.3394 10.5051 4.86267 10.5051H7.93652V3.77331C7.93652 3.00484 8.65034 2.30469 9.43588 2.30469H18.6643C18.8863 2.30469 19.1015 2.39349 19.2552 2.54718L25.8469 8.92714C25.9562 9.03302 26.0211 9.17305 26.0586 9.31991Z" fill="#86888C"/>
<path d="M6.01375 17.5545C5.63464 17.1481 5.4707 16.5675 5.4707 15.7922C5.4707 14.3953 6.10255 13.4561 7.63265 13.4561C8.01859 13.4561 8.51382 13.5414 8.80072 13.6576L8.67093 14.4021C8.32598 14.3031 7.99127 14.245 7.7112 14.245C6.75148 14.245 6.52948 14.8769 6.52948 15.7649C6.52948 16.2943 6.62852 16.7383 6.85052 16.9842C7.0452 17.2062 7.32868 17.3052 7.83074 17.3052C8.04591 17.3052 8.39087 17.2642 8.65385 17.213L8.75973 17.9575C8.49333 18.0361 8.00151 18.0942 7.63607 18.0942C6.84369 18.0942 6.34846 17.9063 6.01375 17.5545ZM9.34718 17.8653L9.50429 17.09C9.89706 17.2267 10.4128 17.312 10.7372 17.312C11.3384 17.312 11.6184 17.1549 11.6184 16.7451C11.6184 15.9083 9.34035 16.5163 9.34035 14.7607C9.34035 13.8522 10.0508 13.4561 11.0036 13.4561C11.434 13.4561 11.9053 13.5209 12.2503 13.6405L12.0932 14.3987C11.7277 14.2997 11.3349 14.2416 11.0207 14.2416C10.4708 14.2416 10.2967 14.4363 10.2967 14.7198C10.2967 15.5941 12.5747 14.993 12.5747 16.7383C12.5747 17.1379 12.4381 17.4555 12.2025 17.6775C11.8882 17.9712 11.4647 18.101 10.826 18.101C10.2591 18.0942 9.79801 18.0224 9.34718 17.8653ZM13.1997 17.8653L13.3569 17.09C13.7496 17.2267 14.2654 17.312 14.5898 17.312C15.1909 17.312 15.471 17.1549 15.471 16.7451C15.471 15.9083 13.1929 16.5163 13.1929 14.7607C13.1929 13.8522 13.9033 13.4561 14.8562 13.4561C15.2866 13.4561 15.7579 13.5209 16.1028 13.6405L15.9457 14.3987C15.5803 14.2997 15.1875 14.2416 14.8733 14.2416C14.3234 14.2416 14.1492 14.4363 14.1492 14.7198C14.1492 15.5941 16.4273 14.993 16.4273 16.7383C16.4273 17.1379 16.2907 17.4555 16.055 17.6775C15.7408 17.9712 15.3173 18.101 14.6786 18.101C14.1151 18.0942 13.6506 18.0224 13.1997 17.8653Z" fill="#86888C"/>
</svg>
