<svg width="20" height="20" viewBox="0 0 20 20" fill="none" xmlns="http://www.w3.org/2000/svg">
<path fill-rule="evenodd" clip-rule="evenodd" d="M17.0026 17.7367C17.1711 17.7367 17.3328 17.5864 17.3328 17.4293V7.77146H15.2445C14.4475 7.77146 13.762 7.51413 13.2588 7.0268C12.7532 6.53719 12.4845 5.8654 12.4845 5.08886V3.07804H6.88927C6.73897 3.07804 6.55907 3.24428 6.55907 3.38547V7.87166H12.0085C13.0242 7.87166 13.8508 8.69831 13.8508 9.71624V13.1139C13.8508 14.1318 13.0242 14.9585 12.0085 14.9585H6.58867L6.55907 17.4316C6.55907 17.5796 6.72531 17.7345 6.88927 17.7345H17.0026V17.7367ZM2.66951 13.1139C2.66951 13.7606 3.19328 14.2867 3.84002 14.2867H12.0108C12.6553 14.2867 13.1813 13.7606 13.1813 13.1139V9.71624C13.1813 9.0695 12.6576 8.54345 12.0108 8.54345H3.84002C3.19556 8.54345 2.66951 9.0695 2.66951 9.71624V13.1139ZM17.1551 7.0974L13.1563 3.22378V5.08658C13.1563 5.67867 13.3521 6.18194 13.7256 6.54175C14.1013 6.90383 14.6274 7.0974 15.2445 7.0974H17.1551ZM17.9749 7.08146C17.9932 7.12245 18.0023 7.16571 18.0023 7.21354V17.427C18.0023 17.9576 17.5445 18.4062 17.0026 18.4062H6.89155C6.35867 18.4062 5.89183 17.9485 5.89183 17.427L5.92143 14.9585H3.8423C2.82664 14.9585 2 14.1318 2 13.1139V9.71624C2 8.69831 2.82664 7.87166 3.8423 7.87166H5.89183V3.38547C5.89183 2.87309 6.36778 2.40625 6.89155 2.40625H13.0447C13.1927 2.40625 13.3316 2.46318 13.4364 2.56338L17.8338 6.82185C17.9066 6.88789 17.9499 6.98353 17.9749 7.08146Z" fill="#86888C"/>
<path d="M3.25244 10.0918H5.04009L4.99454 10.529H3.85591V11.1712H4.76682V11.6244H3.85591V12.3007H5.06058V12.738H3.25244V10.0918ZM5.5092 10.0918H5.95327L7.20803 11.7884V10.0918H7.73864V12.7402H7.25358L6.03753 11.1325V12.7402H5.50692V10.0918H5.5092ZM8.31478 10.0918H10.1024L10.0569 10.529H8.91825V11.1712H9.82916V11.6244H8.91825V12.3007H10.1229V12.738H8.31478V10.0918ZM11.2183 11.4194L10.4099 10.0918H11.0407L11.5667 10.9663L12.0472 10.0918H12.6894L11.8218 11.3876L12.6666 12.738H11.9971L11.4711 11.8407L10.9951 12.738H10.3415L11.2183 11.4194Z" fill="#86888C"/>
</svg>
