<svg width="20" height="20" viewBox="0 0 20 20" fill="none" xmlns="http://www.w3.org/2000/svg">
<path fill-rule="evenodd" clip-rule="evenodd" d="M15.0097 17.3284C15.1781 17.3284 15.3352 17.1781 15.3352 17.0211V7.36596H13.2681C12.4781 7.36596 11.7974 7.10871 11.2988 6.62151C10.798 6.13204 10.5339 5.46272 10.5339 4.68412V2.67388H4.9926C4.84462 2.67388 4.66705 2.84007 4.66705 2.98122V17.0211C4.66705 17.1736 4.83096 17.3284 4.9926 17.3284H15.0097ZM15.1622 6.69209L11.1986 2.81958V4.68184C11.1986 5.27376 11.3921 5.77689 11.761 6.1366C12.132 6.49858 12.6534 6.69209 13.2658 6.69209H15.1622ZM15.975 6.67843C15.9932 6.71941 16.0023 6.76266 16.0023 6.81047V17.0211C16.0023 17.5515 15.5492 18 15.0097 18H4.9926C4.46443 18 4 17.5424 4 17.0211V2.97894C4 2.4667 4.47353 2 4.9926 2H11.0894C11.2351 2 11.3717 2.05692 11.4764 2.15709L15.8338 6.41434C15.9089 6.48492 15.9499 6.57826 15.975 6.67843ZM11.7154 15.5481C12.0569 15.5413 12.4599 15.3978 12.4599 14.7536C12.4599 14.107 12.0524 13.9636 11.7109 13.9545H11.6153C11.2829 13.9567 10.8822 14.0979 10.8822 14.749C10.8822 15.4001 11.2851 15.5435 11.6244 15.5481H11.7154ZM9.13375 9.51281L12.4599 10.4257V9.81332L9.13375 8.90268V9.51281ZM7.72453 13.8816C8.06375 13.8771 8.46898 13.7336 8.46898 13.0894C8.46898 12.4428 8.06147 12.2994 7.71998 12.2903L7.62208 12.288C7.2897 12.2903 6.89129 12.4337 6.89129 13.0825C6.89129 13.7359 7.29425 13.8793 7.63347 13.8839L7.72453 13.8816ZM12.6784 9.17359C12.9289 9.20091 13.1246 9.41719 13.1246 9.67672V14.7536C13.1246 15.8167 12.3711 16.2083 11.7268 16.2197H11.613C10.9687 16.2106 10.2151 15.819 10.2151 14.7467C10.2151 13.6722 10.9641 13.2874 11.6061 13.2806H11.7223C11.9681 13.2874 12.2277 13.3466 12.4576 13.4787V11.1178L9.13147 10.2072L9.12009 13.2055C9.06318 14.173 8.35287 14.5418 7.73364 14.5509H7.62436C6.97553 14.5418 6.22197 14.1503 6.22197 13.078C6.22197 12.0034 6.97097 11.6187 7.61298 11.6118L7.73364 11.6141C7.97723 11.6209 8.23449 11.6824 8.46215 11.8122V8.67501C8.46215 8.39499 8.68754 8.16733 8.96528 8.16733L9.05179 8.17871L12.6784 9.17359Z" fill="#86888C"/>
</svg>
