<svg width="20" height="20" viewBox="0 0 20 20" fill="none" xmlns="http://www.w3.org/2000/svg">
<path fill-rule="evenodd" clip-rule="evenodd" d="M17.1 17.6353C17.2685 17.6353 17.4302 17.485 17.4302 17.3279V7.67142H15.3422C14.5453 7.67142 13.8577 7.41412 13.3568 6.92686C12.8513 6.4396 12.5826 5.7679 12.5826 4.98919V2.98094H6.98818C6.8379 2.98094 6.65803 3.14715 6.65803 3.28832V7.77615H12.1067C13.1222 7.77615 13.9488 8.60268 13.9488 9.62047V13.0177C13.9488 14.0354 13.1222 14.862 12.1067 14.862H6.68763L6.65803 17.3347C6.65803 17.4827 6.82424 17.6375 6.98818 17.6375H17.1V17.6353ZM2.76903 13.0131C2.76903 13.6597 3.29272 14.1857 3.93937 14.1857H12.109C12.7534 14.1857 13.2793 13.6597 13.2793 13.0131V9.61592C13.2793 8.96927 12.7556 8.4433 12.109 8.4433H3.93937C3.295 8.4433 2.76903 8.96927 2.76903 9.61592V13.0131ZM17.2526 6.99744L13.2543 3.12666V4.98691C13.2543 5.57892 13.4501 6.08212 13.8235 6.44187C14.1969 6.8039 14.7229 6.99744 15.3422 6.99744H17.2526ZM18.0723 6.9815C18.0905 7.02249 18.0996 7.06575 18.0996 7.11357V17.3256C18.0996 17.8561 17.6419 18.3047 17.1 18.3047H6.99046C6.45766 18.3047 5.99089 17.847 5.99089 17.3256L6.02049 14.8574H3.94165C2.92614 14.8574 2.09961 14.0309 2.09961 13.0131V9.61592C2.09961 8.59813 2.92614 7.7716 3.94165 7.7716H5.99089V3.28377C5.99089 2.77146 6.46676 2.30469 6.99046 2.30469H13.1427C13.2907 2.30469 13.4342 2.36389 13.5366 2.46635L17.9311 6.71966C18.004 6.79024 18.0472 6.8836 18.0723 6.9815Z" fill="#86888C"/>
<path d="M4.7092 12.4711C4.45646 12.2001 4.34717 11.8131 4.34717 11.2962C4.34717 10.3649 4.7684 9.73877 5.78847 9.73877C6.04576 9.73877 6.37591 9.79569 6.56718 9.87311L6.48065 10.3695C6.25068 10.3034 6.02754 10.2647 5.84084 10.2647C5.20102 10.2647 5.05302 10.686 5.05302 11.278C5.05302 11.6309 5.11905 11.9269 5.26705 12.0908C5.39683 12.2388 5.58582 12.3049 5.92053 12.3049C6.06397 12.3049 6.29394 12.2775 6.46927 12.2434L6.53985 12.7398C6.36225 12.7921 6.03437 12.8308 5.79074 12.8308C5.26249 12.8308 4.93234 12.7056 4.7092 12.4711ZM6.93149 12.6783L7.03622 12.1614C7.29807 12.2525 7.64189 12.3094 7.8582 12.3094C8.25894 12.3094 8.44564 12.2047 8.44564 11.9315C8.44564 11.3736 6.92693 11.7789 6.92693 10.6086C6.92693 10.0029 7.40053 9.73877 8.0358 9.73877C8.32269 9.73877 8.63691 9.78203 8.86688 9.86172L8.76214 10.3672C8.51851 10.3012 8.25666 10.2625 8.04718 10.2625C7.6806 10.2625 7.56447 10.3922 7.56447 10.5812C7.56447 11.1641 9.08319 10.7634 9.08319 11.9269C9.08319 12.1933 8.99211 12.4051 8.835 12.5531C8.62552 12.7489 8.34318 12.8354 7.9174 12.8354C7.53943 12.8308 7.23204 12.783 6.93149 12.6783ZM9.49987 12.6783L9.6046 12.1614C9.86645 12.2525 10.2103 12.3094 10.4266 12.3094C10.8273 12.3094 11.014 12.2047 11.014 11.9315C11.014 11.3736 9.49531 11.7789 9.49531 10.6086C9.49531 10.0029 9.96891 9.73877 10.6042 9.73877C10.8911 9.73877 11.2053 9.78203 11.4353 9.86172L11.3305 10.3672C11.0869 10.3012 10.825 10.2625 10.6156 10.2625C10.249 10.2625 10.1329 10.3922 10.1329 10.5812C10.1329 11.1641 11.6516 10.7634 11.6516 11.9269C11.6516 12.1933 11.5605 12.4051 11.4034 12.5531C11.1939 12.7489 10.9116 12.8354 10.4858 12.8354C10.1101 12.8308 9.80042 12.783 9.49987 12.6783Z" fill="#86888C"/>
</svg>
