<svg width="40" height="40" viewBox="0 0 40 40" fill="none" xmlns="http://www.w3.org/2000/svg">
<path fill-rule="evenodd" clip-rule="evenodd" d="M32.4977 35.7971V14.0803H27.8408C26.0579 14.0803 24.5312 13.4911 23.4093 12.3999C22.2873 11.2933 21.6879 9.79735 21.6879 8.04013V3.51644H9.22342C8.89555 3.51644 8.49082 3.89555 8.49082 4.21318V14.7463L8.56767 29.6545L8.49082 35.8124C8.49082 36.1454 8.86481 36.4938 9.22342 36.4938H31.765C32.139 36.4938 32.4977 36.1608 32.4977 35.7971ZM23.189 3.84431V8.03501C23.189 9.36701 23.6244 10.5043 24.4646 11.3035C25.2895 12.1181 26.4729 12.5587 27.8459 12.5587H32.0929L23.189 3.84431ZM33.9372 12.5177C33.968 12.6253 33.9987 12.7124 33.9987 12.82V35.7919C33.9987 36.9856 32.9639 38 31.7702 38H9.22855C8.04511 38 7 36.9703 7 35.7919L7.07685 29.6494L7 14.7565V4.20805C7 3.05536 8.0656 2 9.22855 2H22.9533C23.271 2 23.5988 2.13832 23.8191 2.36374L33.6247 11.9286C33.7835 12.0925 33.8758 12.3077 33.9372 12.5177ZM26.3756 26.3347C26.3756 27.139 25.8069 27.7128 25.0435 27.7128C24.2495 27.7128 23.6808 27.139 23.6808 26.3654V26.3347C23.6808 25.5765 24.2648 24.972 25.0128 24.972C25.7915 24.9771 26.3756 25.5816 26.3756 26.3347ZM21.36 26.3347C21.36 27.139 20.776 27.7128 20.0127 27.7128C19.234 27.7128 18.6499 27.139 18.6499 26.3654V26.3347C18.6499 25.5765 19.234 24.972 19.9973 24.972C20.7658 24.9771 21.36 25.5816 21.36 26.3347ZM16.3343 26.3347C16.3343 27.139 15.7502 27.7128 14.9869 27.7128C14.2082 27.7128 13.6242 27.139 13.6242 26.3654V26.3347C13.6242 25.5765 14.2236 24.972 14.9715 24.972C15.7502 24.9771 16.3343 25.5816 16.3343 26.3347Z" fill="#86888C"/>
</svg>
