<svg width="20" height="20" viewBox="0 0 20 20" fill="none" xmlns="http://www.w3.org/2000/svg">
<path fill-rule="evenodd" clip-rule="evenodd" d="M4.25898 3.41353C4.02168 3.7809 3.9441 4.21901 4.04221 4.64571C4.14033 5.07012 4.40274 5.43293 4.77695 5.66567C5.15345 5.89842 5.5984 5.97372 6.03194 5.87788C6.46549 5.78205 6.83514 5.5242 7.07245 5.15683C7.30975 4.78946 7.38505 4.35136 7.28922 3.92466C7.1911 3.50024 6.92869 3.13744 6.55448 2.90469C6.28522 2.73812 5.97946 2.65141 5.67142 2.65141C5.5482 2.65141 5.4227 2.6651 5.29949 2.69248C4.86594 2.78832 4.49629 3.04616 4.25898 3.41353ZM2.35596 4.61376C2.17114 4.61376 2.02282 4.46773 2.02282 4.28746C2.02282 4.1072 2.17114 3.96117 2.35596 3.96117H3.3668C3.41244 3.64856 3.52196 3.3428 3.69766 3.0667C4.0308 2.55101 4.54649 2.19277 5.15345 2.05814C5.76041 1.92124 6.38334 2.02848 6.91044 2.35478C7.43754 2.68108 7.80262 3.18764 7.93953 3.78319C7.95322 3.84251 7.95322 3.90184 7.96235 3.96117H17.6669C17.8517 3.96117 18 4.1072 18 4.28746C18 4.46773 17.8517 4.61376 17.6669 4.61376H7.9692C7.92356 4.92637 7.81631 5.22985 7.63833 5.50595C7.30747 6.02163 6.7895 6.38216 6.18254 6.51679C6.00913 6.55558 5.83571 6.57383 5.66229 6.57383C5.22647 6.57383 4.79977 6.4529 4.42327 6.22015C3.89618 5.89385 3.53109 5.38729 3.39418 4.79174C3.38049 4.7347 3.38049 4.67309 3.37136 4.61376H2.35596ZM14.3035 11.1671C15.2208 11.1671 15.9669 10.4346 15.9669 9.53333C15.9669 8.63202 15.2208 7.89956 14.3035 7.89956C13.3862 7.89956 12.6378 8.63202 12.6378 9.53333C12.6378 10.4346 13.3862 11.1671 14.3035 11.1671ZM17.6463 9.20703C17.8311 9.20703 17.9795 9.35307 17.9795 9.53333C17.9795 9.71359 17.8311 9.85963 17.6463 9.85963H16.599C16.437 10.964 15.474 11.8197 14.3035 11.8197C13.1329 11.8197 12.17 10.964 12.008 9.85963H2.33542C2.1506 9.85963 2.00228 9.71359 2.00228 9.53333C2.00228 9.35307 2.1506 9.20703 2.33542 9.20703H12.008C12.17 8.10264 13.1329 7.24696 14.3035 7.24696C15.474 7.24696 16.437 8.10264 16.599 9.20703H17.6463ZM7.90074 16.4061C8.81803 16.4061 9.56418 15.6737 9.56418 14.7723C9.56418 13.871 8.81803 13.1386 7.90074 13.1386C6.98346 13.1386 6.23503 13.871 6.23503 14.7723C6.23731 15.6737 6.98346 16.4061 7.90074 16.4061ZM17.644 14.4461C17.8289 14.4461 17.9772 14.5921 17.9772 14.7723C17.9772 14.9526 17.8289 15.0986 17.644 15.0986H10.1962C10.0342 16.203 9.07131 17.0587 7.90074 17.0587C6.73018 17.0587 5.76726 16.203 5.60525 15.0986H2.33314C2.14832 15.0986 2 14.9526 2 14.7723C2 14.5921 2.14832 14.4461 2.33314 14.4461H5.60525C5.76726 13.3417 6.73018 12.486 7.90074 12.486C9.07131 12.486 10.0342 13.3417 10.1962 14.4461H17.644Z" fill="#86888C"/>
</svg>
