<svg width="40" height="40" viewBox="0 0 40 40" fill="none" xmlns="http://www.w3.org/2000/svg">
<path fill-rule="evenodd" clip-rule="evenodd" d="M7.08272 6.18045C6.54877 7.00704 6.37422 7.99277 6.59498 8.95284C6.81574 9.90778 7.40616 10.7241 8.24815 11.2478C9.09526 11.7714 10.0964 11.9409 11.0719 11.7252C12.0473 11.5096 12.8791 10.9295 13.413 10.1029C13.9469 9.27629 14.1164 8.29055 13.9007 7.33048C13.68 6.37555 13.0896 5.55923 12.2476 5.03556C11.6418 4.66077 10.9538 4.46568 10.2607 4.46568C9.98346 4.46568 9.70108 4.49648 9.42384 4.55809C8.44837 4.77372 7.61666 5.35387 7.08272 6.18045ZM2.80091 8.88097C2.38505 8.88097 2.05134 8.55239 2.05134 8.1468C2.05134 7.74121 2.38505 7.41263 2.80091 7.41263H5.0753C5.17798 6.70926 5.42441 6.0213 5.81974 5.40008C6.56931 4.23978 7.72961 3.43373 9.09526 3.13082C10.4609 2.82278 11.8625 3.06408 13.0485 3.79825C14.2345 4.53242 15.0559 5.67218 15.3639 7.01217C15.3948 7.14566 15.3948 7.27914 15.4153 7.41263H37.2504C37.6663 7.41263 38 7.74121 38 8.1468C38 8.55239 37.6663 8.88097 37.2504 8.88097H15.4307C15.328 9.58433 15.0867 10.2672 14.6863 10.8884C13.9418 12.0487 12.7764 12.8599 11.4107 13.1628C11.0205 13.25 10.6303 13.2911 10.2402 13.2911C9.25955 13.2911 8.29949 13.019 7.45237 12.4953C6.2664 11.7612 5.44495 10.6214 5.13691 9.28142C5.1061 9.15307 5.1061 9.01445 5.08557 8.88097H2.80091ZM29.6828 23.626C31.7467 23.626 33.4256 21.9779 33.4256 19.95C33.4256 17.922 31.7467 16.274 29.6828 16.274C27.6189 16.274 25.935 17.922 25.935 19.95C25.935 21.9779 27.6189 23.626 29.6828 23.626ZM37.2042 19.2158C37.6201 19.2158 37.9538 19.5444 37.9538 19.95C37.9538 20.3556 37.6201 20.6842 37.2042 20.6842H34.8477C34.4832 23.169 32.3166 25.0943 29.6828 25.0943C27.0491 25.0943 24.8825 23.169 24.518 20.6842H2.75471C2.33885 20.6842 2.00513 20.3556 2.00513 19.95C2.00513 19.5444 2.33885 19.2158 2.75471 19.2158H24.518C24.8825 16.7309 27.0491 14.8057 29.6828 14.8057C32.3166 14.8057 34.4832 16.7309 34.8477 19.2158H37.2042ZM15.2767 35.4138C17.3406 35.4138 19.0194 33.7657 19.0194 31.7378C19.0194 29.7098 17.3406 28.0618 15.2767 28.0618C13.2128 28.0618 11.5288 29.7098 11.5288 31.7378C11.5339 33.7657 13.2128 35.4138 15.2767 35.4138ZM37.1991 31.0036C37.6149 31.0036 37.9487 31.3322 37.9487 31.7378C37.9487 32.1434 37.6149 32.472 37.1991 32.472H20.4415C20.077 34.9568 17.9104 36.8821 15.2767 36.8821C12.6429 36.8821 10.4763 34.9568 10.1118 32.472H2.74957C2.33371 32.472 2 32.1434 2 31.7378C2 31.3322 2.33371 31.0036 2.74957 31.0036H10.1118C10.4763 28.5187 12.6429 26.5935 15.2767 26.5935C17.9104 26.5935 20.077 28.5187 20.4415 31.0036H37.1991Z" fill="#86888C"/>
</svg>
