<svg width="40" height="40" viewBox="0 0 40 40" fill="none" xmlns="http://www.w3.org/2000/svg">
<path fill-rule="evenodd" clip-rule="evenodd" d="M31.7626 10.5092C31.5168 10.5092 31.2914 10.3862 31.1531 10.1865C29.304 7.46145 26.2716 5.22305 23.0395 4.20374C18.2195 2.6722 12.9795 3.6659 8.682 6.92874C7.45268 7.87123 6.31555 8.93152 5.29111 10.0943C5.02476 10.3965 4.56376 10.4272 4.26155 10.166L4.24618 10.1506C3.93885 9.87401 3.91836 9.40277 4.18984 9.09031C5.28087 7.85586 6.48458 6.72386 7.79074 5.72503C12.4776 2.17534 18.199 1.09968 23.48 2.76952C27.0195 3.89128 30.3387 6.34481 32.3722 9.33106C32.6027 9.67424 32.5207 10.1352 32.1827 10.376C32.0546 10.4631 31.9112 10.5092 31.7626 10.5092ZM20.9292 38C20.8728 38 20.8114 37.9949 20.755 37.9795C17.8559 37.2675 14.8799 35.7155 12.37 33.6C6.78679 28.8927 2.32023 17.9773 7.71391 10.8984C10.7206 6.95436 16.0631 5.07963 20.9855 6.23213C21.006 6.23213 28.6125 7.42047 30.7177 16.2563C30.7433 16.3433 31.5116 19.1247 30.0826 21.0763C29.2374 22.2236 27.8544 22.8127 25.9745 22.8332C26.0053 22.8383 24.6786 22.9971 23.4442 21.9931C22.3275 21.0916 21.6617 19.5703 21.4619 17.4805C21.3902 16.7429 21.088 16.1589 20.5604 15.744C19.8638 15.2062 18.7983 14.9962 17.7022 15.1857C17.3693 15.2165 14.9669 15.5187 14.7569 18.2693C14.5111 21.486 17.0005 26.9514 23.1112 28.4573C23.5056 28.5803 23.7259 29.0054 23.603 29.3998C23.4903 29.7584 23.1317 29.9735 22.7629 29.9121C15.8275 28.191 13.0103 21.8753 13.292 18.1464C13.5378 14.8733 16.1707 13.7976 17.528 13.69C18.9776 13.4339 20.4323 13.7464 21.467 14.5455C22.3224 15.2113 22.8346 16.1692 22.9422 17.3268C23.0959 18.9608 23.5825 20.1594 24.3508 20.7945C24.776 21.1582 25.3291 21.3529 25.8875 21.3272C27.3627 21.3068 28.3512 20.9226 28.9044 20.1696C29.8879 18.8327 29.304 16.6507 29.2989 16.6302C27.4139 8.73688 20.7909 7.7022 20.7243 7.69707C16.2731 6.66239 11.5504 8.31174 8.89201 11.8051C4.10276 18.09 8.31833 28.2268 13.3227 32.4527C15.6584 34.4196 18.4244 35.8692 21.1033 36.5248C21.5029 36.6273 21.7436 37.0268 21.6514 37.4263C21.5746 37.7593 21.2724 38 20.9292 38ZM22.1534 34.1276C22.0868 34.1276 22.0202 34.1174 21.9536 34.0969C17.2924 32.7856 13.0666 29.3742 10.9307 25.1996C9.25569 21.9214 8.97909 18.4537 10.1418 15.1601C11.366 11.4414 15.4075 9.1108 19.5103 9.7562C23.7157 10.4118 26.9887 14.0537 26.9529 18.049C26.9529 18.4588 26.6251 18.7918 26.2153 18.7969H26.2102C25.8004 18.7918 25.4726 18.4537 25.4777 18.0388C25.5033 14.7708 22.7834 11.7795 19.2901 11.2365C15.8838 10.714 12.5493 12.6041 11.5453 15.6467C10.5209 18.551 10.7667 21.609 12.2522 24.5081C14.1986 28.3293 18.071 31.4538 22.348 32.6575C22.7424 32.7702 22.9729 33.1851 22.8602 33.5795C22.7783 33.8971 22.4863 34.1225 22.1534 34.1276ZM25.8823 26.6338C23.7361 26.6338 21.928 26.0397 20.4835 24.8513C17.3283 22.2595 17.1234 17.8288 17.1131 17.6393C17.0978 17.2295 17.4154 16.8812 17.8251 16.8607C18.2349 16.8504 18.573 17.168 18.5935 17.5778C18.5935 17.6188 18.7881 21.5321 21.4209 23.6886C23.019 24.9947 25.2318 25.4199 27.9773 24.9384C28.382 24.8513 28.7815 25.1125 28.8686 25.5172C28.9557 25.9219 28.6944 26.3214 28.2898 26.4085C28.2693 26.4136 28.2488 26.4136 28.2334 26.4187C27.4497 26.557 26.666 26.6287 25.8823 26.6338Z" fill="#86888C"/>
</svg>
