<svg width="24" height="24" viewBox="0 0 24 24" fill="none" xmlns="http://www.w3.org/2000/svg">
<path fill-rule="evenodd" clip-rule="evenodd" d="M20.7741 20.8816H17.234V15.4178L21.1583 15.4377V20.2954C21.1611 20.617 20.9278 20.8816 20.7741 20.8816ZM10.9021 20.6227C11.6847 19.9141 12.1486 18.918 12.1884 17.8623C12.2226 16.9659 11.9323 16.1093 11.4001 15.3893L16.3945 15.4121V20.8788H10.5891C10.6916 20.7991 10.7968 20.7194 10.9021 20.6227ZM7.11159 21.1406C6.94653 21.1463 6.77863 21.1349 6.61073 21.095C6.60789 21.095 6.20379 21.0239 5.84238 20.6653C5.34722 20.1702 5.3216 19.3762 5.78262 18.8497H5.78546C5.88222 18.7359 5.9932 18.6363 6.10988 18.5452C6.74448 18.0672 7.10874 17.3073 7.08028 16.5105C7.29656 16.6301 7.50999 16.778 7.70635 16.9488C8.50601 17.6517 9.21745 19.4047 8.46048 20.4405C8.15598 20.856 7.68074 21.1064 7.16281 21.1406C7.14289 21.1377 7.12866 21.1406 7.11159 21.1406ZM3.66822 19.4673C1.79286 17.074 3.46048 13.1952 5.43259 11.576C6.14403 10.9926 6.94653 10.5316 7.81164 10.2157C7.59821 11.317 7.57829 13.346 9.69554 14.8941C9.98865 15.1019 10.2562 15.3352 10.4923 15.5913C11.0643 16.1947 11.3717 17 11.3432 17.831C11.3119 18.6591 10.9477 19.4388 10.333 19.9966C10.0143 20.2897 9.65001 20.5316 9.25729 20.7166C10.0939 19.2652 9.28859 17.2191 8.25843 16.3113C7.77465 15.8873 7.19411 15.5714 6.63065 15.4291C6.40299 15.3751 6.17533 15.5145 6.11842 15.7422C6.0985 15.8275 6.10419 15.9186 6.13834 16.0011C6.14118 16.0125 6.57658 17.1081 5.5948 17.8765C5.43259 18.0017 5.28461 18.1411 5.15086 18.292C4.64431 18.8754 4.48495 19.6836 4.73253 20.4149C4.32559 20.1616 3.96702 19.8401 3.66822 19.4673ZM5.20777 2.84804H8.49178V8.26352L4.8236 8.25498V3.43426C4.8236 3.11269 5.07972 2.84804 5.20777 2.84804ZM21.1583 3.43426V8.29482L17.234 8.28628V2.85088H20.7712C20.9021 2.84804 21.1583 3.11554 21.1583 3.43426ZM9.33413 8.26636V2.84804L16.3916 2.85088V8.28344L9.33413 8.26636ZM10.7599 14.5384C10.7143 14.5384 10.6745 14.5498 10.6375 14.5612C10.4924 14.436 10.3415 14.3164 10.185 14.2055C7.70635 12.3956 8.76213 9.87137 8.80766 9.76608C8.87311 9.6181 8.8475 9.44735 8.74505 9.32499C8.64261 9.19977 8.4804 9.1457 8.32388 9.1827C7.14005 9.46443 5.92491 10.082 4.89759 10.9215C4.87197 10.9442 4.84636 10.9698 4.82075 10.9926V9.10586L12.3962 9.12294V14.547L10.7599 14.5384ZM13.2414 14.5498V9.12294L21.1583 9.14286V14.5896L13.2414 14.5498ZM20.7741 2.00285L5.21062 2C4.56748 2 3.98125 2.68298 3.98125 3.43426V11.8435C2.18273 13.9863 1.09281 17.5521 3.008 19.9909C3.93857 21.1776 5.40698 21.8862 6.92377 21.9801C6.96361 21.9829 7.00345 21.9943 7.04329 21.9943C7.05752 21.9943 7.07175 21.9915 7.08882 21.9915C7.14574 21.9915 7.19981 22 7.25672 22C7.65228 22 8.04784 21.9573 8.43771 21.8662C8.6796 21.8236 8.9158 21.7581 9.14346 21.6756C9.20038 21.7097 9.26583 21.7268 9.33128 21.7268H20.7712C21.4258 21.7268 21.9978 21.0581 21.9978 20.2925V3.43426C22.0006 2.68298 21.4144 2.00285 20.7741 2.00285Z" fill="#86888C"/>
</svg>
