<svg width="24" height="24" viewBox="0 0 24 24" fill="none" xmlns="http://www.w3.org/2000/svg">
<path fill-rule="evenodd" clip-rule="evenodd" d="M12.4796 19.0201V16.5923C12.4796 16.3617 12.2917 16.1767 12.0612 16.1767C11.8307 16.1767 11.6428 16.3617 11.6428 16.5923V19.0258C10.0433 18.9888 5.35847 18.3654 4.99132 12.6447H7.44187C7.67241 12.6447 7.86025 12.4597 7.86025 12.2291C7.86025 11.9986 7.67241 11.8136 7.44187 11.8136H4.96001C5.02547 5.47232 10.0546 4.90309 11.6428 4.88317V7.41056C11.6428 7.6411 11.8307 7.8261 12.0612 7.8261C12.2917 7.8261 12.4796 7.6411 12.4796 7.41056V4.8917C14.1702 4.95432 19.0685 5.67725 19.1595 11.8107H16.5724C16.3418 11.8107 16.154 11.9986 16.154 12.2263C16.154 12.4568 16.3418 12.6418 16.5724 12.6418H19.1339C18.7838 18.3398 14.0877 18.9774 12.4796 19.0201ZM21.5902 11.8107H19.9935C19.8967 4.75224 13.9055 4.11185 12.4767 4.05778V2.41554C12.4767 2.185 12.2889 2 12.0583 2C11.8278 2 11.64 2.185 11.64 2.41554V4.04924C10.3563 4.06062 4.19155 4.51886 4.12039 11.8107H2.41839C2.18785 11.8107 2 11.9986 2 12.2263C2 12.454 2.18785 12.6418 2.41839 12.6418H4.1517C4.54732 19.2819 10.2966 19.8227 11.6371 19.8568V21.5845C11.6371 21.815 11.825 22 12.0555 22C12.286 22 12.4739 21.815 12.4739 21.5845V19.8511C13.8173 19.8141 19.5865 19.2563 19.9621 12.639H21.5845C21.815 12.639 22.0028 12.454 22.0028 12.2234C22.0085 11.9986 21.8207 11.8107 21.5902 11.8107Z" fill="#86888C"/>
</svg>
