<svg width="28" height="28" viewBox="0 0 28 28" fill="none" xmlns="http://www.w3.org/2000/svg">
<path d="M17.2507 12.355C17.2132 12.355 17.1756 12.3516 17.138 12.3448C16.6563 12.2594 16.6563 11.8152 16.6563 11.6683V10.0114H16.1814C15.3137 10.0114 14.6577 9.31103 14.6577 8.3852V3.62619C14.6577 2.72769 15.3888 2 16.2839 2H24.3739C25.2724 2 26.0001 2.72769 26.0001 3.62619V8.3852C26.0001 9.2837 25.2724 10.0114 24.3739 10.0114H19.181C18.7779 10.6127 17.9989 11.7811 17.9545 11.8528C17.8589 11.9963 17.6265 12.355 17.2507 12.355ZM16.2839 2.68327C15.7612 2.68327 15.341 3.1069 15.341 3.62619V8.3852C15.341 8.94206 15.686 9.32811 16.1814 9.32811H16.9979C17.1858 9.32811 17.3396 9.48185 17.3396 9.66975V11.5385C17.3498 11.5214 17.3635 11.5043 17.3771 11.4838C17.4421 11.3814 18.6617 9.55701 18.7129 9.48185C18.7779 9.38619 18.8838 9.32811 18.9965 9.33153H24.3739C24.8932 9.33153 25.3168 8.9079 25.3168 8.38861V3.62619C25.3168 3.1069 24.8932 2.68327 24.3739 2.68327H16.2839Z" fill="#86888C"/>
<path d="M17.6642 6.68004C18.0322 6.68004 18.3304 6.38178 18.3304 6.01385C18.3304 5.64592 18.0322 5.34766 17.6642 5.34766C17.2963 5.34766 16.998 5.64592 16.998 6.01385C16.998 6.38178 17.2963 6.68004 17.6642 6.68004Z" fill="#86888C"/>
<path d="M17.6641 7.02249C17.1072 7.02249 16.6562 6.57153 16.6562 6.01467C16.6562 5.4578 17.1072 5.00684 17.6641 5.00684C18.2209 5.00684 18.6719 5.4578 18.6719 6.01467C18.6719 6.57153 18.2209 7.02249 17.6641 7.02249ZM17.6641 5.69011C17.4864 5.69011 17.3395 5.83701 17.3395 6.01467C17.3395 6.19232 17.4864 6.33922 17.6641 6.33922C17.8417 6.33922 17.9886 6.19232 17.9886 6.01467C17.9886 5.83701 17.8417 5.69011 17.6641 5.69011Z" fill="#86888C"/>
<path d="M20.3283 6.68004C20.6962 6.68004 20.9945 6.38178 20.9945 6.01385C20.9945 5.64592 20.6962 5.34766 20.3283 5.34766C19.9604 5.34766 19.6621 5.64592 19.6621 6.01385C19.6621 6.38178 19.9604 6.68004 20.3283 6.68004Z" fill="#86888C"/>
<path d="M20.3291 7.02249C19.7722 7.02249 19.3213 6.57153 19.3213 6.01467C19.3213 5.4578 19.7722 5.00684 20.3291 5.00684C20.886 5.00684 21.3369 5.4578 21.3369 6.01467C21.3369 6.57153 20.886 7.02249 20.3291 7.02249ZM20.3291 5.69011C20.1515 5.69011 20.0046 5.83701 20.0046 6.01467C20.0046 6.19232 20.1515 6.33922 20.3291 6.33922C20.5068 6.33922 20.6537 6.19232 20.6537 6.01467C20.6537 5.83701 20.5068 5.69011 20.3291 5.69011Z" fill="#86888C"/>
<path d="M22.9938 6.68004C23.3618 6.68004 23.66 6.38178 23.66 6.01385C23.66 5.64592 23.3618 5.34766 22.9938 5.34766C22.6259 5.34766 22.3276 5.64592 22.3276 6.01385C22.3276 6.38178 22.6259 6.68004 22.9938 6.68004Z" fill="#86888C"/>
<path d="M22.9936 7.02249C22.4367 7.02249 21.9858 6.57153 21.9858 6.01467C21.9858 5.4578 22.4367 5.00684 22.9936 5.00684C23.5505 5.00684 24.0014 5.4578 24.0014 6.01467C24.0014 6.57153 23.5505 7.02249 22.9936 7.02249ZM22.9936 5.69011C22.8159 5.69011 22.669 5.83701 22.669 6.01467C22.669 6.19232 22.8159 6.33922 22.9936 6.33922C23.1712 6.33922 23.3181 6.19232 23.3181 6.01467C23.3181 5.83701 23.1712 5.69011 22.9936 5.69011ZM9.88498 18.4571C8.50135 18.4571 7.42861 18.0642 6.69751 17.2887C6.00399 16.5576 5.65552 15.5293 5.65552 14.2276C5.65552 12.926 6.0074 11.8977 6.69751 11.1631C7.42861 10.3876 8.50135 9.99474 9.88498 9.99474C11.2686 9.99474 12.3414 10.3876 13.0725 11.1631C13.7626 11.8942 14.1144 12.926 14.1144 14.2276C14.1144 15.5293 13.7626 16.5576 13.0725 17.2921C12.3414 18.0642 11.2686 18.4571 9.88498 18.4571ZM9.88498 10.678C6.95374 10.678 6.33879 12.6083 6.33879 14.2276C6.33879 17.1589 8.26904 17.7738 9.88498 17.7738C12.8162 17.7738 13.4312 15.8436 13.4312 14.2276C13.4312 12.6117 12.8162 10.678 9.88498 10.678ZM17.4283 26.0004H2.34164C2.15374 26.0004 2 25.8467 2 25.6588V24.3879C2 22.8437 2.39972 21.6548 3.19231 20.8588C3.98491 20.0628 5.16356 19.6596 6.70093 19.6596H13.069C14.6064 19.6596 15.7885 20.0628 16.5777 20.8622C17.3668 21.6616 17.77 22.8437 17.77 24.3913V25.6622C17.77 25.8467 17.6162 26.0004 17.4283 26.0004ZM2.68327 25.3172H17.0867V24.3879C17.0867 23.0282 16.7519 22.0033 16.0959 21.3405C15.44 20.6777 14.4185 20.3429 13.069 20.3429H6.70093C5.35146 20.3429 4.33338 20.6777 3.67402 21.3405C3.01466 22.0033 2.68327 23.0316 2.68327 24.3879V25.3172Z" fill="#86888C"/>
</svg>
