<svg width="24" height="24" viewBox="0 0 24 24" fill="none" xmlns="http://www.w3.org/2000/svg">
<path fill-rule="evenodd" clip-rule="evenodd" d="M19.3744 10.3962C20.1853 10.3792 21.1528 10.0434 21.1528 8.51823C21.1528 6.99306 20.1768 6.64876 19.3601 6.62885L19.1695 6.626H19.1296C18.3301 6.63454 17.3768 6.96461 17.3768 8.50116C17.3768 10.0462 18.3415 10.382 19.1524 10.3934L19.3744 10.3962ZM13.2139 20.7765V3.23991C13.2139 3.06349 12.9892 2.85293 12.7985 2.85293H3.252C3.06136 2.85293 2.83656 3.06064 2.83656 3.23991V20.7765C2.83656 20.9699 3.04713 21.1634 3.252 21.1634L12.7985 21.1663C13.0034 21.1634 13.2139 20.9699 13.2139 20.7765ZM21.9893 8.57798L21.9979 19.2911C21.9979 21.2516 20.5951 21.9744 19.3943 21.9943L19.2492 21.9972H19.1609C17.9089 21.9801 16.563 21.2545 16.563 19.2769V15.262C16.5602 14.2661 15.7521 13.4608 14.7562 13.4636H14.0477V20.7793C14.0477 21.4281 13.4643 22 12.7985 22H3.252C2.58616 22 2 21.4281 2 20.7793V3.23991C2 2.59968 2.59755 2.01921 3.252 2.01921H12.7985C13.453 2.01921 14.0505 2.59968 14.0505 3.23991V12.6271H14.759C16.2159 12.6271 17.3968 13.8051 17.3996 15.262V19.2769C17.3996 20.9557 18.6459 21.1549 19.1837 21.1634H19.38C19.9178 21.1521 21.1641 20.95 21.1641 19.2911L21.1585 10.6068C20.5182 11.1531 19.6902 11.2243 19.3886 11.2299H19.1382C18.5919 11.2214 16.5374 11.0251 16.5374 8.504C16.5374 5.98577 18.5691 5.79797 19.1183 5.79228H19.1666L19.326 5.79513L16.2358 2.71065C16.0736 2.54846 16.0736 2.28383 16.2358 2.12164C16.398 1.95945 16.6626 1.95945 16.8248 2.12164L21.0162 6.30446C21.0276 6.313 21.0304 6.32723 21.0389 6.33576C21.5568 6.72275 21.9865 7.38289 21.9865 8.51823L21.9836 8.54668C21.9865 8.55806 21.9893 8.5666 21.9893 8.57798ZM10.7185 8.84261V5.63863C10.7185 5.5618 10.6673 5.48497 10.6388 5.4679L5.49991 5.47644C5.51698 5.48497 5.46577 5.55895 5.46577 5.63863V8.84261C5.46577 8.92228 5.5056 8.98204 5.52837 9.0048H10.6872C10.6673 8.99627 10.7185 8.93082 10.7185 8.84261ZM10.6843 4.64272C11.1481 4.64272 11.555 5.10653 11.555 5.63863V8.84261C11.555 9.3804 11.1567 9.83852 10.6843 9.83852H5.49991C5.02757 9.83852 4.6292 9.38325 4.6292 8.84261V5.63578C4.6292 5.10653 5.0361 4.63987 5.49991 4.63987L10.6843 4.64272Z" fill="#86888C"/>
</svg>
