<svg width="40" height="40" viewBox="0 0 40 40" fill="none" xmlns="http://www.w3.org/2000/svg">
<path fill-rule="evenodd" clip-rule="evenodd" d="M33.2738 17.1132C34.7336 17.0825 36.475 16.4781 36.475 13.7328C36.475 10.9875 34.7182 10.3678 33.2482 10.3319L32.9051 10.3268H32.8334C31.3941 10.3422 29.6783 10.9363 29.6783 13.7021C29.6783 16.4832 31.4146 17.0876 32.8743 17.1081L33.2738 17.1132ZM22.1851 35.7976V4.23183C22.1851 3.91428 21.7805 3.53527 21.4373 3.53527H4.2536C3.91044 3.53527 3.50582 3.90916 3.50582 4.23183V35.7976C3.50582 36.1459 3.88483 36.4942 4.2536 36.4942L21.4373 36.4993C21.8061 36.4942 22.1851 36.1459 22.1851 35.7976ZM37.9808 13.8404L37.9962 33.124C37.9962 36.653 35.4711 37.9539 33.3097 37.9898L33.0485 37.9949H32.8897C30.6361 37.9641 28.2135 36.6581 28.2135 33.0984V25.8715C28.2084 24.0789 26.7538 22.6294 24.9611 22.6345H23.6858V35.8027C23.6858 36.9705 22.6358 38 21.4373 38H4.2536C3.0551 38 2 36.9705 2 35.8027V4.23183C2 3.07942 3.07558 2.03457 4.2536 2.03457H21.4373C22.6153 2.03457 23.6909 3.07942 23.6909 4.23183V21.1287H24.9662C27.5886 21.1287 29.7142 23.2492 29.7193 25.8715V33.0984C29.7193 36.1203 31.9627 36.4788 32.9307 36.4942H33.2841C34.2521 36.4737 36.4955 36.11 36.4955 33.124L36.4852 17.4922C35.3328 18.4756 33.8424 18.6037 33.2994 18.6139H32.8487C31.8653 18.5985 28.1674 18.2451 28.1674 13.7072C28.1674 9.17439 31.8244 8.83635 32.8129 8.82611H32.8999L33.1868 8.83123L27.6245 3.27917C27.3325 2.98723 27.3325 2.5109 27.6245 2.21896C27.9164 1.92701 28.3927 1.92701 28.6847 2.21896L36.2291 9.74804C36.2496 9.7634 36.2547 9.78901 36.2701 9.80437C37.2023 10.5009 37.9757 11.6892 37.9757 13.7328L37.9706 13.784C37.9757 13.8045 37.9808 13.8199 37.9808 13.8404ZM17.6933 14.3167V8.54953C17.6933 8.41124 17.6011 8.27295 17.5499 8.24222L8.29984 8.25758C8.33057 8.27295 8.23838 8.40612 8.23838 8.54953V14.3167C8.23838 14.4601 8.31008 14.5677 8.35106 14.6086H17.6369C17.6011 14.5933 17.6933 14.4755 17.6933 14.3167ZM17.6318 6.75689C18.4667 6.75689 19.1991 7.59175 19.1991 8.54953V14.3167C19.1991 15.2847 18.482 16.1093 17.6318 16.1093H8.29984C7.44962 16.1093 6.73256 15.2898 6.73256 14.3167V8.54441C6.73256 7.59175 7.46498 6.75177 8.29984 6.75177L17.6318 6.75689Z" fill="#86888C"/>
</svg>
