<svg width="40" height="40" viewBox="0 0 40 40" fill="none" xmlns="http://www.w3.org/2000/svg">
<path fill-rule="evenodd" clip-rule="evenodd" d="M30.7069 24.4883C30.9835 24.181 31.4599 24.1554 31.7672 24.432C32.0746 24.7086 32.1002 25.185 31.8236 25.4923C31.6596 25.6716 27.7871 29.8924 21.1178 29.9693C21.0256 29.9744 20.9334 29.9744 20.8412 29.9744C19.5145 29.9744 13.8953 29.7183 10.1764 25.5589C9.89983 25.2516 9.93056 24.7752 10.2379 24.4986C10.5452 24.222 11.0216 24.2527 11.2982 24.56C14.9863 28.6887 21.0154 28.4787 21.0768 28.4684C27.0854 28.4018 30.671 24.5242 30.7069 24.4883ZM20.9949 37.4991C31.9465 37.4991 37.4991 31.9516 37.4991 21.0051C37.4991 10.0535 31.9465 4.50085 20.9949 4.50085C10.0484 4.50085 4.50085 10.0535 4.50085 21.0051C4.50085 31.9516 10.0484 37.4991 20.9949 37.4991ZM20.9949 3C32.3665 3 39 8.74217 39 21.0051C39 33.2681 32.3665 39 20.9949 39C9.62322 39 3 33.2681 3 21.0051C3 8.74217 9.62322 3 20.9949 3ZM15.5396 18.1571C14.9402 18.1571 14.4434 17.9727 14.1002 17.6244C13.7621 17.2812 13.5931 16.8048 13.5931 16.2055C13.5931 14.9863 14.3204 14.2538 15.5396 14.2538C16.7587 14.2538 17.4861 14.9863 17.4861 16.2055C17.4861 16.8048 17.317 17.276 16.9789 17.6244C16.6357 17.9727 16.1389 18.1571 15.5396 18.1571ZM26.4604 18.1571C25.8611 18.1571 25.3643 17.9727 25.0211 17.6244C24.683 17.2812 24.5139 16.8048 24.5139 16.2055C24.5139 14.9863 25.2413 14.2538 26.4604 14.2538C27.6796 14.2538 28.4069 14.9863 28.4069 16.2055C28.4069 16.8048 28.2379 17.276 27.8998 17.6244C27.5566 17.9727 27.0598 18.1571 26.4604 18.1571Z" fill="#86888C"/>
</svg>
