<svg width="28" height="28" viewBox="0 0 28 28" fill="none" xmlns="http://www.w3.org/2000/svg">
<path fill-rule="evenodd" clip-rule="evenodd" d="M24.4703 24.9996C24.7606 24.9996 24.9962 24.764 24.9962 24.4703V18.6146L24.9859 18.5292C24.9586 18.2629 24.7401 18.0546 24.4703 18.0546H3.52625C3.23602 18.0546 2.99701 18.2936 2.99701 18.5839V24.4703C2.99701 24.7606 3.23261 24.9996 3.52625 24.9996H24.4703ZM4.99787 3.53308L3.19163 17.0918C3.3009 17.0679 3.41016 17.0508 3.52625 17.0508H24.4703C24.5864 17.0508 24.6991 17.0679 24.805 17.0918L23.1148 3.65941C23.0465 3.29748 22.7802 3.02433 22.4729 3.02433L5.5271 3.00726C5.23346 3.00384 4.99787 3.24285 4.99787 3.53308ZM25.9932 18.5327C25.9932 18.5497 25.9966 18.5634 25.9966 18.5805V24.4703C25.9966 25.3137 25.3137 26 24.4703 26H3.52625C2.68289 26 2 25.3137 2 24.4703V18.5805C2 18.5497 2.00683 18.5224 2.00683 18.4951C2.00683 18.4746 2 18.4575 2.00341 18.4336L4.00085 3.46479C3.99744 2.6863 4.68032 2 5.52369 2L22.4695 2.01707C23.2685 2.01707 23.9377 2.62825 24.0982 3.49893L25.9556 18.2493C25.9693 18.3039 25.9693 18.3619 25.9761 18.4166L25.9863 18.5122C25.9932 18.5224 25.9898 18.5292 25.9932 18.5327ZM13.9983 9.13274C12.8681 9.13274 12.8681 9.60734 12.8681 9.80879C12.8681 10.0102 12.8681 10.4883 13.9983 10.4883C15.1285 10.4883 15.1285 10.0137 15.1285 9.80879C15.1285 9.60393 15.1285 9.13274 13.9983 9.13274ZM13.9983 11.4887C12.076 11.4887 11.8711 10.3141 11.8711 9.80879C11.8711 9.30346 12.0794 8.12889 13.9983 8.12889C15.9206 8.12889 16.1289 9.30346 16.1289 9.80879C16.1289 10.3141 15.9206 11.4887 13.9983 11.4887ZM21.5442 22.5787C22.1793 22.5787 22.4388 22.3192 22.4388 21.6842C22.4388 21.0491 22.1793 20.7896 21.5442 20.7896C20.9023 20.7896 20.653 21.0423 20.653 21.6842C20.653 22.3295 20.9023 22.5787 21.5442 22.5787ZM21.5442 19.7892C22.729 19.7892 23.4358 20.4994 23.4358 21.6842C23.4358 22.8724 22.729 23.5792 21.5442 23.5792C20.3594 23.5792 19.6526 22.8724 19.6526 21.6842C19.6526 20.4959 20.3594 19.7892 21.5442 19.7892ZM6.76654 5.17883C6.17926 5.17883 5.8344 4.96372 5.8344 4.50619C5.8344 4.04524 6.17926 3.83013 6.76654 3.83013C7.35723 3.83013 7.69868 4.04524 7.69868 4.50619C7.69868 4.96031 7.35723 5.17883 6.76654 5.17883ZM20.7554 5.17883C20.1682 5.17883 19.8233 4.96372 19.8233 4.50619C19.8233 4.04524 20.1682 3.83013 20.7554 3.83013C21.3461 3.83013 21.6876 4.04524 21.6876 4.50619C21.691 4.96031 21.3461 5.17883 20.7554 5.17883ZM22.7563 16.1972C22.169 16.1972 21.8242 15.9821 21.8242 15.5245C21.8242 15.0636 22.169 14.8485 22.7563 14.8485C23.347 14.8485 23.6884 15.0636 23.6884 15.5245C23.6884 15.9821 23.3436 16.1972 22.7563 16.1972ZM5.33589 14.6095C5.16517 14.7665 5.07298 14.9202 5.07981 15.0294C5.09006 15.1524 5.22663 15.306 5.45198 15.4528C5.82757 15.6987 6.39778 15.8796 6.96116 15.3641C8.2245 14.2066 9.68246 12.4038 9.58685 11.9531C9.56978 11.9496 9.5493 11.9462 9.52539 11.9462C8.88348 11.9496 6.33291 13.6978 5.33589 14.6095ZM8.34059 11.3282C8.344 11.3385 8.344 11.3487 8.344 11.3624C9.07469 11.0312 9.7405 10.8878 10.1571 11.1609C10.4063 11.3214 10.5566 11.5775 10.5805 11.8813C10.6112 12.2604 10.4166 12.735 10.1195 13.2266L10.1741 13.2539C11.1302 13.7115 12.4174 13.9437 13.9983 13.9437C17.9181 13.9437 19.9018 12.554 19.9018 9.81221C19.9018 7.07042 17.9146 5.68075 13.9983 5.68075C10.0819 5.68075 8.09475 7.07042 8.09475 9.81221C8.09475 10.3722 8.1767 10.8809 8.34059 11.3282ZM4.90909 16.2962C4.27401 15.8831 4.11012 15.4221 4.08621 15.1114C4.06231 14.8075 4.14085 14.3466 4.66325 13.8685C4.68715 13.8481 6.06658 12.6462 7.48698 11.8096C7.45284 11.7687 7.42211 11.7243 7.40162 11.6731C7.19676 11.1165 7.09432 10.4883 7.09432 9.80879C7.09432 7.4665 8.29279 4.6735 13.9983 4.6735C19.7038 4.6735 20.9023 7.4665 20.9023 9.80879C20.9023 12.1511 19.7038 14.9407 13.9983 14.9407C12.2672 14.9407 10.8331 14.6743 9.7405 14.1519L9.56295 14.0632C9.55612 14.0598 9.55271 14.0529 9.54247 14.0461C8.723 15.0977 7.70892 16.0367 7.63722 16.1016C7.207 16.4977 6.70166 16.6957 6.18609 16.6957C5.75928 16.6991 5.32565 16.5659 4.90909 16.2962Z" fill="#86888C"/>
</svg>
