<svg width="28" height="28" viewBox="0 0 28 28" fill="none" xmlns="http://www.w3.org/2000/svg">
<path fill-rule="evenodd" clip-rule="evenodd" d="M18.1857 24.9943H21.2488C21.7405 24.9943 22.14 24.6597 22.14 24.2465V14.8661C22.1434 14.586 22.3756 14.3607 22.6591 14.3641H24.066C24.5235 14.3641 24.7967 14.108 24.9026 13.8689C25.0187 13.6128 24.9538 13.3123 24.7421 13.1279L14.6753 3.23871C14.3338 2.90406 13.6645 2.90406 13.3265 3.23871L3.25626 13.1313C3.04796 13.3157 2.98308 13.6162 3.09577 13.8724C3.20163 14.1114 3.47481 14.3675 3.93239 14.3675H5.19586C5.4827 14.3675 5.71491 14.5929 5.71491 14.8695V24.2499C5.71491 24.6631 6.11444 24.9977 6.60275 24.9977H9.87412V20.0634C9.87753 19.7833 10.1097 19.558 10.3932 19.5614H17.6632C17.9501 19.5614 18.1823 19.7868 18.1823 20.0634L18.1857 24.9943ZM21.2488 25.9983H17.6667C17.3832 26.0017 17.151 25.7797 17.1476 25.4963V20.5687H10.9156V25.4997C10.9088 25.7831 10.6766 26.0051 10.3966 26.0017H6.60617C5.54075 26.0017 4.67681 25.2163 4.67681 24.2499V15.3714H3.93239C3.13675 15.3714 2.4333 14.9378 2.13621 14.2651C1.86303 13.6333 2.00645 12.9299 2.51526 12.4347L12.582 2.53527C13.3094 1.82158 14.689 1.82158 15.4163 2.53527L25.4865 12.4279C25.9919 12.9265 26.1387 13.6265 25.8621 14.2582C25.5685 14.9309 24.865 15.368 24.066 15.368H23.1815V24.2465C23.1815 25.2129 22.3142 25.9983 21.2488 25.9983Z" fill="#86888C"/>
</svg>
