<svg width="40" height="40" viewBox="0 0 40 40" fill="none" xmlns="http://www.w3.org/2000/svg">
<path fill-rule="evenodd" clip-rule="evenodd" d="M20.7913 36.484C24.4737 36.4174 36.4942 35.0346 36.4942 20.0487C36.4942 13.5595 34.2714 8.87324 29.8976 6.12804C26.3227 3.88476 22.2868 3.55698 20.7145 3.51601C20.2638 3.50576 19.8182 3.50064 19.3675 3.50064H19.0551C17.493 3.51601 13.4878 3.78745 9.96415 6C5.67221 8.6991 3.50064 13.3905 3.50064 19.9411C3.50064 26.4968 5.69782 31.2036 10.0307 33.9385C13.5851 36.1767 17.6261 36.4686 19.1985 36.4942C19.3777 36.4994 19.557 36.4994 19.7362 36.4994C20.1101 36.4942 20.4738 36.4891 20.7913 36.484ZM20.7503 2.02049C24.274 2.10243 37.9949 3.49552 37.9949 20.0487C37.9949 36.6376 24.2586 37.9232 20.822 37.9898C20.4942 37.9949 20.1152 38 19.7362 38C19.5467 38 19.3572 38 19.1729 37.9949C15.557 37.9385 2 36.6325 2 19.9411C2 3.27529 15.4341 2.03073 19.0448 2H19.3675C19.8387 2 20.3252 2.00512 20.7503 2.02049ZM27.8848 29.7439V10.251H23.4341V18.1997H16.5608V10.251H12.1101V29.7439H16.5608V21.5391H23.4341V29.749L27.8848 29.7439ZM27.8848 8.75544C28.7145 8.75544 29.3854 9.42638 29.3854 10.2561V29.749C29.3854 30.5787 28.7145 31.2497 27.8848 31.2497H23.4341C22.6044 31.2497 21.9334 30.5787 21.9334 29.749V23.0397H18.0615V29.749C18.0615 30.5787 17.3905 31.2497 16.5608 31.2497H12.1152C11.2855 31.2497 10.6146 30.5787 10.6146 29.749V10.251C10.6146 9.42125 11.2855 8.75032 12.1152 8.75032H16.5659C17.3956 8.75032 18.0666 9.42125 18.0666 10.251V16.6991H21.9385V10.251C21.9385 9.42125 22.6095 8.75032 23.4392 8.75032C23.4341 8.75544 27.8848 8.75544 27.8848 8.75544Z" fill="#86888C"/>
</svg>
