<svg width="20" height="20" viewBox="0 0 20 20" fill="none" xmlns="http://www.w3.org/2000/svg">
<path fill-rule="evenodd" clip-rule="evenodd" d="M10.3517 17.3262C11.9883 17.2966 17.3308 16.682 17.3308 10.0216C17.3308 7.13757 16.3429 5.05477 14.3989 3.83468C12.8101 2.83767 11.0164 2.69199 10.3175 2.67378C10.1172 2.66923 9.91919 2.66695 9.71888 2.66695H9.58003C8.88576 2.67378 7.1057 2.79442 5.53962 3.77778C3.6321 4.97738 2.66695 7.06246 2.66695 9.97382C2.66695 12.8875 3.64348 14.9794 5.56921 16.1949C7.14895 17.1896 8.94494 17.3194 9.64376 17.3308C9.72343 17.333 9.8031 17.333 9.88277 17.333C10.0489 17.3308 10.2106 17.3285 10.3517 17.3262ZM10.3335 2.00911C11.8996 2.04553 17.9977 2.66467 17.9977 10.0216C17.9977 17.3945 11.8927 17.9659 10.3653 17.9954C10.2197 17.9977 10.0512 18 9.88277 18C9.79855 18 9.71433 18 9.63238 17.9977C8.02532 17.9727 2 17.3922 2 9.97382C2 2.56679 7.97069 2.01366 9.57547 2H9.71888C9.9283 2 10.1445 2.00228 10.3335 2.00911ZM13.5043 14.3306V5.66709H11.5262V9.19989H8.47147V5.66709H6.49338V14.3306H8.47147V10.684H11.5262V14.3329L13.5043 14.3306ZM13.5043 5.00242C13.8731 5.00242 14.1713 5.30061 14.1713 5.66937V14.3329C14.1713 14.7017 13.8731 14.9999 13.5043 14.9999H11.5262C11.1575 14.9999 10.8593 14.7017 10.8593 14.3329V11.351H9.13843V14.3329C9.13843 14.7017 8.84023 14.9999 8.47147 14.9999H6.49566C6.1269 14.9999 5.82871 14.7017 5.82871 14.3329V5.66709C5.82871 5.29834 6.1269 5.00014 6.49566 5.00014H8.47375C8.84251 5.00014 9.1407 5.29834 9.1407 5.66709V8.53293H10.8616V5.66709C10.8616 5.29834 11.1598 5.00014 11.5285 5.00014C11.5262 5.00242 13.5043 5.00242 13.5043 5.00242Z" fill="#86888C"/>
</svg>
