<svg width="28" height="28" viewBox="0 0 28 28" fill="none" xmlns="http://www.w3.org/2000/svg">
<path fill-rule="evenodd" clip-rule="evenodd" d="M13.9548 17.8552C14.424 17.8552 14.7261 18.1058 14.7261 18.6457C14.7261 18.906 14.6554 19.0988 14.53 19.2306C14.3951 19.372 14.1958 19.4394 13.9516 19.4394C13.7074 19.4394 13.5081 19.372 13.3732 19.2306C13.2478 19.0988 13.1771 18.906 13.1771 18.6457C13.1804 18.1058 13.4856 17.8552 13.9548 17.8552ZM14.6521 7.48524C14.6521 7.75196 14.4433 7.96726 14.183 7.96726C7.2868 7.96726 3.93834 11.4218 3.93834 18.5268C3.93834 18.7935 3.72946 19.0121 3.46917 19.0121C3.20888 19.0121 3 18.7967 3 18.5268C3 10.8787 6.76301 7 14.183 7C14.4433 7.00321 14.6521 7.21852 14.6521 7.48524ZM14.6329 11.4089C14.6329 11.6756 14.424 11.8909 14.1637 11.8909C9.79976 11.8909 7.67885 14.0793 7.67885 18.575C7.67885 18.8417 7.46997 19.057 7.20968 19.057C6.94939 19.057 6.74051 18.8417 6.74051 18.575C6.74051 13.5684 9.30809 10.9237 14.1637 10.9237C14.4208 10.9237 14.6329 11.139 14.6329 11.4089ZM24.6461 20.3232V16.8494C24.6429 16.6373 24.479 16.4541 24.2766 16.4348H23.1518V20.7441H24.2541C24.4694 20.7409 24.6461 20.5513 24.6461 20.3232ZM21.5965 22.0327C21.9404 22.0327 22.2231 21.7371 22.2231 21.3772V21.2229H22.2135V15.8275C22.2135 15.4644 21.9307 15.1719 21.5869 15.1719H14.771C12.724 15.2394 11.6797 16.3931 11.6797 18.5975C11.6797 20.802 12.724 21.9556 14.7871 22.0327H21.5965ZM24.2412 15.4611C24.9675 15.4611 25.5684 16.0781 25.5845 16.8365V20.3232C25.5845 21.0848 24.9867 21.7082 24.2509 21.7082H23.1261C22.9783 22.4441 22.3485 23 21.5933 23H14.7485C12.1617 22.9036 10.7349 21.3386 10.7349 18.5975C10.7349 15.85 12.1617 14.2882 14.7485 14.2047H21.5804C22.3228 14.2047 22.9462 14.7445 23.1068 15.4644H23.4764V15.4611H24.2412Z" fill="#86888C"/>
</svg>
