<svg width="40" height="40" viewBox="0 0 40 40" fill="none" xmlns="http://www.w3.org/2000/svg">
<path d="M20.0609 38C19.989 38 19.9222 38 19.8606 37.9949H19.8349C19.6089 37.9846 19.3829 37.9486 19.162 37.8973C18.3659 37.7175 17.6108 37.3785 16.9482 36.8957C16.2907 36.4231 15.4381 35.6167 14.8525 35.0157C11.8785 31.9492 10.1424 29.7765 7.96965 26.3967C5.24732 22.1848 3.38278 17.9986 2.42226 13.9664C1.41551 9.72883 2.22193 6.22575 4.70285 4.10439C6.14107 2.86649 8.11347 2.12684 10.2554 2.01384C12.5308 1.90084 14.8936 2.48126 17.092 3.70374C17.8676 4.13007 18.6638 4.59235 19.537 5.106C19.8811 5.29605 20.3023 5.30118 20.6465 5.11114C21.5145 4.59235 22.3158 4.1352 23.0966 3.70374C25.2899 2.48126 27.6578 1.90084 29.9332 2.01384C32.0751 2.12171 34.0424 2.86649 35.4858 4.09925C37.9615 6.22061 38.768 9.72369 37.7612 13.9664C36.8007 17.9934 34.9362 22.1745 32.219 26.3967C30.0565 29.756 28.3255 31.9235 25.3874 34.9592C25.372 34.9798 25.3566 34.9952 25.3412 35.0157C24.7608 35.6167 23.903 36.4282 23.2455 36.8957C22.5829 37.3785 21.8279 37.7175 21.0317 37.8973C20.8108 37.9486 20.5848 37.9795 20.3588 37.9949H20.3332C20.2612 38 20.1842 38 20.0969 38H20.0609ZM10.8307 3.03086C10.656 3.03086 10.4814 3.036 10.3068 3.04627C8.39598 3.14386 6.63931 3.7962 5.3706 4.88513C4.27139 5.82511 3.55228 7.07841 3.22868 8.60394C2.91022 10.1038 2.977 11.8296 3.42901 13.7301C4.36385 17.6493 6.18216 21.7225 8.83258 25.842C10.9899 29.1961 12.6336 31.2507 15.587 34.3017C16.1367 34.8719 16.9431 35.6321 17.544 36.0635C18.0937 36.4642 18.7152 36.7467 19.3778 36.8905L19.3932 36.8957C19.5575 36.9367 19.727 36.9573 19.8966 36.9676H19.912C19.9582 36.9676 20.0198 36.9727 20.0866 36.9727H20.0917C20.1585 36.9727 20.215 36.9727 20.2664 36.9676H20.2869C20.4564 36.9573 20.6259 36.9367 20.7903 36.8957L20.8057 36.8905C21.4683 36.7416 22.0898 36.4591 22.6394 36.0635C23.2199 35.6424 23.9955 34.9181 24.5451 34.3531C24.5605 34.3326 24.5759 34.3171 24.5913 34.3017C27.5499 31.2507 29.1884 29.1961 31.3509 25.842C34.0065 21.7174 35.8248 17.6441 36.7596 13.7301C37.2116 11.8296 37.2784 10.1038 36.9599 8.60394C36.6363 7.07841 35.9121 5.82511 34.8129 4.88513C33.5442 3.7962 31.7926 3.14386 29.8767 3.04627C27.7913 2.93841 25.6186 3.47774 23.5897 4.60262C22.8192 5.02895 22.0231 5.4861 21.1601 5.99975L21.1499 6.00488C20.4872 6.37984 19.6705 6.37471 19.0131 5.99975L19.0079 5.99461C18.145 5.48096 17.354 5.02895 16.5887 4.60262C14.7344 3.57019 12.7517 3.03086 10.8307 3.03086Z" fill="#86888C"/>
</svg>
