<svg width="24" height="24" viewBox="0 0 24 24" fill="none" xmlns="http://www.w3.org/2000/svg">
<path fill-rule="evenodd" clip-rule="evenodd" d="M19.1662 20.56V3.4428C19.1662 3.10985 18.8987 2.83381 18.7621 2.83381H6.23507C6.09847 2.83381 5.83097 3.10985 5.83097 3.4428V20.5572C5.83097 20.9044 6.07571 21.1662 6.23507 21.1662L18.7621 21.169C18.9215 21.1662 19.1662 20.9072 19.1662 20.56ZM18.7564 2C19.4052 2 20 2.68867 20 3.4428V20.56C20 21.3284 19.4195 22 18.7564 22L6.24361 21.9972C5.58055 21.9972 5.00001 21.3256 5.00001 20.5572V3.4428C4.99716 2.68867 5.59193 2 6.24076 2H18.7564ZM8.17019 8.66762C7.70917 8.66762 7.33638 8.29482 7.33638 7.83381C7.33638 7.37279 7.70917 7 8.17019 7C8.6312 7 9.00399 7.37279 9.00399 7.83381C9.00399 8.29482 8.6312 8.66762 8.17019 8.66762ZM8.17019 11.1662C8.6312 11.1662 9.00399 11.539 9.00399 12C9.00399 12.461 8.6312 12.8338 8.17019 12.8338C7.70917 12.8338 7.33638 12.461 7.33638 12C7.33638 11.539 7.71202 11.1662 8.17019 11.1662ZM11.0928 8.66762C10.8623 8.66762 10.6716 8.48264 10.6716 8.25213C10.6716 8.02163 10.8594 7.83665 11.0928 7.83665H16.9152C17.1486 7.83665 17.3364 8.02447 17.3364 8.25213C17.3364 8.47979 17.1486 8.66762 16.9152 8.66762H11.0928ZM16.9152 12C17.1486 12 17.3364 12.1878 17.3364 12.4155C17.3364 12.6431 17.1486 12.831 16.9152 12.831H11.0928C10.8623 12.831 10.6716 12.646 10.6716 12.4155C10.6716 12.185 10.8594 12 11.0928 12H16.9152ZM8.17019 15.3352C8.6312 15.3352 9.00399 15.708 9.00399 16.169C9.00399 16.6301 8.6312 17.0028 8.17019 17.0028C7.70917 17.0028 7.33638 16.6272 7.33638 16.1662C7.33638 15.7052 7.71202 15.3352 8.17019 15.3352ZM16.9152 16.1662C17.1486 16.1662 17.3364 16.354 17.3364 16.5817C17.3364 16.8122 17.1486 16.9972 16.9152 16.9972H11.0928C10.8623 16.9972 10.6716 16.8122 10.6716 16.5817C10.6716 16.3512 10.8594 16.1662 11.0928 16.1662H16.9152Z" fill="#86888C"/>
</svg>
