<svg width="28" height="28" viewBox="0 0 28 28" fill="none" xmlns="http://www.w3.org/2000/svg">
<path fill-rule="evenodd" clip-rule="evenodd" d="M13.4698 24.7692C15.3618 22.6381 20.9935 15.1622 21.0071 10.579C21.0208 5.70551 18.3638 3.01432 13.5244 3.00066H13.4868C8.66797 3.00066 6.00752 5.67477 5.99386 10.538C5.9802 15.1622 11.5846 22.6415 13.4698 24.7692ZM13.5244 2C18.8487 2.01708 22.018 5.22396 22.001 10.5824C21.9839 15.7975 15.4813 24.1818 13.8215 25.8518C13.6303 26.0465 13.3195 26.0499 13.1248 25.8587L13.118 25.8518C11.4582 24.1886 4.98296 15.8009 5.00003 10.5312C5.01711 5.18639 8.18984 2 13.4868 2H13.5244ZM13.5005 12.0885C14.829 12.0885 15.5325 11.3816 15.5325 10.0428C15.5325 8.70406 14.829 7.99711 13.5005 7.99711C12.172 7.99711 11.465 8.70406 11.465 10.0428C11.465 11.3816 12.1686 12.0885 13.5005 12.0885ZM13.5005 6.99646C15.3959 6.99646 16.5264 8.13714 16.5264 10.0428C16.5264 11.9485 15.3959 13.0892 13.5005 13.0892C11.6051 13.0892 10.4746 11.9485 10.4746 10.0428C10.4746 8.13714 11.6051 6.99646 13.5005 6.99646Z" fill="#86888C"/>
</svg>
