<svg width="24" height="24" viewBox="0 0 24 24" fill="none" xmlns="http://www.w3.org/2000/svg">
<path fill-rule="evenodd" clip-rule="evenodd" d="M9.56688 18.1204C11.243 18.1204 11.7297 17.4886 11.7297 15.3031C11.7297 13.9371 11.5219 13.1972 11.0324 12.8358C10.7137 12.5996 10.2356 12.4858 9.56688 12.4858C8.89243 12.4858 8.4115 12.6024 8.09562 12.8415C7.61184 13.2086 7.40694 13.9428 7.40694 15.3031C7.4041 17.4886 7.88788 18.1204 9.56688 18.1204ZM9.56972 10.8921C8.16961 10.8921 8.07001 11.1909 8.07001 11.6861C8.07001 11.7715 8.0757 11.8455 8.08708 11.9081C8.48833 11.743 8.97211 11.6548 9.56688 11.6548C10.1645 11.6548 10.6511 11.743 11.0524 11.9109C11.0637 11.8483 11.0694 11.7743 11.0694 11.6861C11.0694 11.1909 10.9698 10.8921 9.56972 10.8921ZM13.3688 14.5006C13.5993 14.5006 13.7871 14.6884 13.7871 14.916V15.7185C13.7871 15.949 13.5993 16.134 13.3688 16.134H13.366C13.1355 16.134 12.9476 15.949 12.9476 15.7185V15.3287H12.5635C12.5606 16.043 12.4952 16.6719 12.333 17.2012L13.2237 17.4687C13.4087 17.5228 13.531 17.6963 13.5225 17.8899L13.457 19.0993C13.4428 19.3213 13.2607 19.4949 13.0387 19.492H13.0159C12.7854 19.4806 12.609 19.2843 12.6204 19.0538L12.6688 18.1716L11.9829 17.9667C11.5418 18.5928 10.7962 18.9513 9.56688 18.9513C8.33182 18.9513 7.58623 18.5899 7.14513 17.9638L6.44223 18.1744L6.48776 19.0566C6.49915 19.2871 6.32271 19.4835 6.0922 19.4949H6.06944C5.84747 19.4949 5.66534 19.3241 5.65111 19.1021L5.58566 17.8927C5.57427 17.6992 5.69664 17.5256 5.88162 17.4715L6.79226 17.1983C6.63005 16.669 6.5646 16.043 6.56175 15.3315H6.18327V15.7185C6.18327 15.949 5.99545 16.134 5.76494 16.134H5.76209C5.53159 16.134 5.34377 15.949 5.34377 15.7185V14.9132C5.34377 14.6827 5.53159 14.4977 5.76209 14.4977H6.59306C6.63574 13.9428 6.74104 13.4049 6.97154 12.9439L5.88446 12.6195C5.69949 12.5654 5.57712 12.3918 5.5885 12.1983L5.65396 10.9889C5.66249 10.7641 5.85031 10.5876 6.07797 10.5933H6.09505C6.32555 10.6047 6.50199 10.8011 6.49061 11.0316L6.44508 11.9138L7.29596 12.1699C7.25327 12.0105 7.23335 11.8455 7.23335 11.6804C7.23335 10.0555 8.81275 10.0555 9.57257 10.0555C10.3295 10.0555 11.9089 10.0555 11.9089 11.6804C11.9089 11.8568 11.8862 12.0134 11.8492 12.1585L12.6688 11.9138L12.6204 11.0316C12.609 10.8011 12.7854 10.6076 13.0159 10.5933C13.2834 10.5819 13.4456 10.7555 13.457 10.986L13.5225 12.1955C13.5339 12.389 13.4087 12.5626 13.2237 12.6167L12.1565 12.9354C12.387 13.3964 12.4952 13.9371 12.5378 14.4949C12.5378 14.5006 13.3688 14.5006 13.3688 14.5006ZM9.53273 13.607C9.76323 13.607 9.95105 13.7948 9.95105 14.0225V17.0247C9.95105 17.2552 9.76323 17.4402 9.53557 17.4402H9.53273C9.30222 17.4402 9.1144 17.2552 9.1144 17.0247V14.0225C9.1144 13.792 9.30222 13.6041 9.53273 13.607ZM20.9954 18.8489C21.2089 18.5928 21.1548 18.2086 21.1548 18.2057L21.1577 9.72537L16.8463 12.4118C16.9374 12.7732 17.0171 13.146 17.0626 13.5501C17.1081 13.9456 17.1309 14.364 17.1309 14.7965C17.1309 16.5182 16.7496 17.9724 16.0211 19.142C17.8708 19.142 19.8486 19.1391 20.2015 19.1335C20.5771 19.1249 20.8446 19.031 20.9954 18.8489ZM9.88275 21.4641C10.7336 21.4499 13.6278 21.2194 15.2072 18.8944C15.9271 17.8301 16.2943 16.4527 16.2943 14.7937C16.2943 14.3953 16.2715 14.0082 16.2288 13.644C15.6483 8.62121 11.2032 8.12605 9.8543 8.0919C9.6864 8.08621 9.51565 8.08621 9.34775 8.08621H9.19124C7.82812 8.09759 3.3432 8.54438 2.87649 13.8147C2.85088 14.1278 2.83665 14.4408 2.83665 14.7538C2.83665 20.895 7.7399 21.4442 9.2453 21.467C9.45874 21.467 9.69493 21.467 9.88275 21.4641ZM4.69778 7.88985C4.50427 8.02645 4.39044 8.33095 4.3819 8.7635V8.90294C5.74787 7.76179 7.51508 7.27232 9.1827 7.25809C9.41036 7.25525 9.66363 7.25809 9.87137 7.26379C12.5009 7.32639 15.4064 8.53584 16.5817 11.595L21.1292 8.76066L21.1548 8.75212C21.1434 8.33095 21.0324 8.02645 20.8219 7.87847L20.7308 7.82156L13.7871 3.43624C13.7672 3.42201 13.346 3.13743 12.7769 3.13743C12.1907 3.13743 11.7752 3.42201 11.7723 3.42486C11.7695 3.42201 4.69778 7.88985 4.69778 7.88985ZM21.9858 18.1374C21.9915 18.1431 22.0968 18.8346 21.6414 19.381C21.3284 19.7567 20.8475 19.953 20.2157 19.9644C19.823 19.9701 17.4183 19.9729 15.4149 19.9758C13.5652 22.056 10.7706 22.2837 9.89983 22.2979C9.76608 22.3008 9.60956 22.3008 9.45589 22.3008H9.23392C8.02447 22.2809 2 21.8341 2 14.7538C2 14.401 2.01707 14.0623 2.04269 13.7407C2.19351 12.0418 2.75128 10.7356 3.5424 9.75098V8.75212C3.56232 7.85286 3.92373 7.41461 4.22538 7.20118L4.34775 7.1215L11.2999 2.73334C11.7382 2.45445 12.2447 2.30363 12.7627 2.30078C13.6221 2.30078 14.2282 2.72765 14.2538 2.74472L21.2943 7.1898C21.6101 7.41461 21.9715 7.85286 21.9915 8.74358L21.9858 18.1374Z" fill="#86888C"/>
</svg>
