<svg width="20" height="20" viewBox="0 0 20 20" fill="none" xmlns="http://www.w3.org/2000/svg">
<path fill-rule="evenodd" clip-rule="evenodd" d="M17.8404 17.0296C17.6979 17.2006 17.4461 17.2909 17.0945 17.298C16.4033 17.3099 12.802 17.3099 10.7116 17.3075H10.6784C7.56652 17.3099 4.16961 17.3075 3.60187 17.298C3.2503 17.2909 3.00088 17.203 2.85835 17.0319C2.65169 16.7849 2.70632 16.4191 2.71107 16.3597L2.70395 8.77008L8.91104 12.6872C8.93479 12.7038 9.4764 13.0934 10.2389 13.0934C10.6879 13.0934 11.1202 12.9604 11.5169 12.7015L17.9924 8.6608L17.9901 16.4191C17.9901 16.4238 18.0423 16.7849 17.8404 17.0296ZM3.00325 7.02173L9.42176 2.96444C9.70207 2.79103 10.0251 2.69601 10.3529 2.69364C10.8803 2.69364 11.2699 2.95969 11.2889 2.97157L17.6789 7.01223C17.876 7.15238 17.9829 7.43982 17.9924 7.83414V7.85315C17.9806 7.8579 17.9663 7.86027 17.9544 7.8674L11.1392 12.1171C10.8542 12.3048 10.5501 12.3998 10.2389 12.3998C9.71394 12.3998 9.32674 12.129 9.30299 12.1147L2.70157 7.95054V7.84127C2.71107 7.43982 2.82034 7.15238 3.00325 7.02173ZM18.6813 16.3621L18.6885 7.82702C18.6695 7.03361 18.3488 6.63928 18.0685 6.43974L11.6785 2.39908C11.2794 2.14015 10.8162 2.00238 10.3411 2C9.58329 2 9.03931 2.38245 9.03219 2.3872L2.72295 6.37561L2.6113 6.44687C2.34525 6.63691 2.02456 7.02886 2.00556 7.83177L2.01744 16.3027C2.00556 16.3716 1.91292 16.9868 2.31675 17.4714C2.59467 17.8063 3.02226 17.9798 3.58999 17.9893C4.04133 17.9964 6.12699 17.9988 8.35043 17.9988H10.6784V17.6519L10.714 17.9988C12.802 18.0011 16.4104 18.0011 17.1064 17.9893C17.6718 17.9798 18.0993 17.804 18.3773 17.4714C18.7811 16.9868 18.6885 16.3716 18.6813 16.3621Z" fill="#86888C"/>
</svg>
