<svg width="28" height="28" viewBox="0 0 28 28" fill="none" xmlns="http://www.w3.org/2000/svg">
<path fill-rule="evenodd" clip-rule="evenodd" d="M25.0006 23.9932L20.4142 23.2385V3.08941L25.0006 3.84415V23.9932ZM3.00062 3.84756L7.82615 3.086V23.235L3.00062 23.9966V3.84756ZM14.4992 4.70817L19.4136 3.17821V23.2931L14.4992 24.8196V4.70817ZM8.82677 3.18845L13.502 4.70475V24.8128L8.82677 23.2965V3.18845ZM25.5812 2.92549L19.9941 2.00683C19.9805 2.00342 19.9702 2.01025 19.96 2.01025C19.9429 2.01025 19.9326 2 19.9156 2C19.8814 2 19.8541 2.01366 19.8234 2.01708C19.8063 2.02049 19.7858 2.01366 19.7687 2.02049L14.004 3.81341L8.47843 2.02391C8.46135 2.01708 8.44086 2.02391 8.42379 2.02049C8.38964 2.01366 8.3589 2 8.32475 2C8.31109 2 8.29743 2.00683 8.28035 2.01025C8.27011 2.01025 8.25645 2.00683 8.2462 2.00683L2.42347 2.92549C2.17758 2.96306 2 3.17479 2 3.42068V24.5806C2 24.8572 2.2254 25.0792 2.4986 25.0792C2.52592 25.0792 2.54983 25.0758 2.57715 25.0724L8.28377 24.1742L13.8435 25.9739C13.9426 26.0081 14.0484 26.0081 14.1441 25.9774L19.9463 24.1742L25.4173 25.0758C25.6871 25.1202 25.9466 24.9392 25.991 24.6694C25.9944 24.6421 25.9979 24.6113 25.9979 24.584V3.42068C26.0013 3.17479 25.8237 2.96647 25.5812 2.92549Z" fill="#86888C"/>
</svg>
