<svg width="28" height="28" viewBox="0 0 28 28" fill="none" xmlns="http://www.w3.org/2000/svg">
<path fill-rule="evenodd" clip-rule="evenodd" d="M22.0097 24.6204V5.15879C22.0097 5.05976 21.6921 4.75583 21.2413 4.75583H17.6522C17.6693 4.87536 17.683 4.99146 17.6898 5.1144L17.7001 5.34661L17.6966 5.45931C17.642 7.05065 16.1804 7.37849 14.0051 7.37849C11.8298 7.37849 10.3682 7.04724 10.3102 5.43882V5.20319L10.317 5.0905C10.3204 4.97097 10.3443 4.86511 10.358 4.75583H6.76209C6.31133 4.75583 5.99374 5.06318 5.99374 5.15879V24.6204C5.99374 24.757 6.3284 25.0233 6.76209 25.0233H21.2413C21.675 25.0233 22.0097 24.7536 22.0097 24.6204ZM13.9983 2.97666C12.2225 2.97666 11.3688 3.66989 11.2971 5.15879L11.2903 5.34661C11.3073 5.8247 11.3278 6.40182 13.9949 6.40182C16.6619 6.40182 16.6858 5.8247 16.6995 5.40467V5.24417C16.6927 4.95731 16.6483 4.67388 16.5663 4.40068C16.2658 3.44109 15.4257 2.97666 13.9983 2.97666ZM21.2379 3.77917C22.1599 3.77917 22.9966 4.43825 22.9966 5.15879V24.6204C22.9966 25.3717 22.1907 26 21.2379 26H6.75868C5.80592 26 5 25.3682 5 24.6204V5.15879C5 4.43483 5.84007 3.77575 6.75868 3.77575H10.6039C11.1161 2.62493 12.2806 2 14.0017 2C16.095 2 17.0034 2.90495 17.3927 3.77917H21.2379ZM12.8987 5.57541C12.6289 5.57541 12.4069 5.36027 12.4035 5.08708C12.4035 4.8173 12.6255 4.59875 12.8987 4.59875H15.0945C15.3677 4.59875 15.5896 4.8173 15.5896 5.08708C15.5896 5.35686 15.3677 5.57541 15.0945 5.57541H12.8987ZM20.9818 16.1446C21.255 16.1446 21.4769 16.3631 21.4769 16.6329C21.4769 16.9027 21.255 17.1212 20.9818 17.1212H17.4917C17.2834 17.1212 17.0956 16.9915 17.0239 16.7968L16.4229 15.1064L15.9277 16.7729C15.8628 16.9812 15.6716 17.1246 15.453 17.1212H14.6403L13.8446 19.6961C13.7797 19.901 13.5885 20.041 13.3699 20.041H13.346C13.1207 20.0307 12.9294 19.8702 12.885 19.6483L11.6386 13.5014L10.6312 16.7114C10.5663 16.9163 10.3751 17.0563 10.1565 17.0563H7.0148C6.74502 17.0598 6.52305 16.8412 6.51964 16.568C6.51964 16.2982 6.73819 16.0797 7.0148 16.0797H9.79112L11.2664 11.3773C11.3312 11.1588 11.5396 11.0154 11.7649 11.0359C11.9903 11.0461 12.1816 11.2066 12.226 11.4286L13.469 17.5583L13.7968 16.4929C13.8617 16.288 14.0563 16.148 14.2715 16.148H15.0808L15.9038 13.3785C15.9653 13.1736 16.1531 13.0336 16.3648 13.0302C16.58 13.0233 16.7746 13.1531 16.8463 13.3546L17.8401 16.148L20.9818 16.1446Z" fill="#86888C"/>
</svg>
