<svg width="24" height="24" viewBox="0 0 24 24" fill="none" xmlns="http://www.w3.org/2000/svg">
<path fill-rule="evenodd" clip-rule="evenodd" d="M15.0491 16.5312C15.0889 16.5284 15.1259 16.5113 15.1486 16.48L15.143 15.0374C15.1173 15.0118 15.0832 14.9976 15.0491 14.9947H13.1797C12.9492 14.9947 12.7642 14.8069 12.7642 14.5793V12.7128C12.7642 12.6729 12.7443 12.6359 12.713 12.6132L11.2534 12.6189C11.2647 12.6217 11.2334 12.6644 11.2334 12.7128V14.5822C11.2334 14.8126 11.0456 14.9976 10.818 14.9976H8.94862C8.8974 14.9976 8.86041 15.0289 8.85188 15.0431L8.85472 16.5113C8.85472 16.5085 8.85757 16.5085 8.85757 16.5085C8.86895 16.5085 8.90309 16.5284 8.94577 16.5284H10.8152C11.0456 16.5284 11.2306 16.7162 11.2306 16.9438V18.816C11.2306 18.8673 11.2619 18.9043 11.2733 18.9099L12.7443 18.9071C12.7329 18.9043 12.7642 18.8673 12.7642 18.816L12.7614 16.9466C12.7614 16.8357 12.8069 16.7304 12.8837 16.6507C12.9634 16.5739 13.0687 16.5284 13.1797 16.5284L15.0491 16.5312ZM15.0491 14.161C15.5442 14.161 15.9766 14.5622 15.9766 15.0147V16.5113C15.9766 16.9666 15.5442 17.3649 15.0491 17.3649H13.5979L13.6008 18.816C13.6008 19.3197 13.211 19.7408 12.7472 19.7408H11.2534C10.7924 19.7408 10.3998 19.3168 10.3998 18.816V17.3649H8.94577C8.44499 17.3649 8.02103 16.9723 8.02103 16.5113V15.0203C8.02103 14.5566 8.44499 14.1667 8.94577 14.1667H10.3998V12.7128C10.3998 12.2091 10.7896 11.7852 11.2534 11.7852H12.7443C13.2081 11.7852 13.5979 12.2091 13.5979 12.7128V14.161H15.0491ZM18.6171 21.1635C19.778 21.1635 21.1609 20.6627 21.1609 18.2811V10.3682H2.83395V18.3579C2.83395 18.3636 2.7742 19.5957 3.53106 20.3952C4.00055 20.8932 4.72611 21.1464 5.68215 21.1464H18.3013C18.3354 21.1464 18.3696 21.1492 18.4037 21.1521C18.4151 21.1549 18.4948 21.1635 18.6171 21.1635ZM3.89242 5.23517C3.18962 5.68189 2.83395 6.49566 2.83395 7.65657V9.5345H21.158V7.67364C21.158 7.65087 21.158 7.62811 21.1609 7.60819C21.1609 7.59966 21.2349 6.379 20.4865 5.57946C20.0142 5.07298 19.2773 4.8169 18.2956 4.8169H16.9185V5.41727C16.9185 5.64774 16.7307 5.83269 16.503 5.83269C16.2754 5.83269 16.0876 5.6449 16.0876 5.41727V4.8169C13.4272 4.8169 10.0896 4.81975 7.9186 4.81975V5.41727C7.9186 5.64774 7.73081 5.83269 7.50318 5.83269C7.27555 5.83269 7.08776 5.6449 7.08776 5.41727V4.82259H5.66792C5.64232 4.82259 5.61671 4.82259 5.59395 4.81975C5.58541 4.81975 5.53988 4.8169 5.4659 4.8169C5.19275 4.8169 4.48995 4.85674 3.89242 5.23517ZM18.2956 3.98321C22.2848 3.98321 21.9917 7.67648 21.9917 7.67648L21.9946 18.284C21.9946 21.6927 19.5134 22 18.6171 22C18.4208 22 18.2985 21.9858 18.2985 21.9858H5.67931C1.75556 21.9829 2.00311 18.3039 2.00311 18.3039V7.65657C2.00311 4.22507 4.7005 3.98321 5.4659 3.98321C5.59395 3.98321 5.66792 3.9889 5.66792 3.9889H7.08491V2.41542C7.08491 2.18495 7.27271 2 7.50033 2C7.72796 2 7.9186 2.18495 7.9186 2.41542V3.98606L16.0876 3.98321V2.41542C16.0876 2.18495 16.2754 2 16.503 2C16.7307 2 16.9185 2.18779 16.9185 2.41542V3.98321H18.2956Z" fill="#86888C"/>
</svg>
