<svg width="24" height="24" viewBox="0 0 24 24" fill="none" xmlns="http://www.w3.org/2000/svg">
<path fill-rule="evenodd" clip-rule="evenodd" d="M15.4827 13.3404V6.44508C15.4827 4.05179 14.2817 2.8395 11.9169 2.8395C9.55209 2.8395 8.35118 4.05179 8.35118 6.44508V13.3432C8.35118 15.7336 9.55209 16.9488 11.9169 16.9488C14.2817 16.9488 15.4827 15.7336 15.4827 13.3404ZM11.9169 2C14.7513 2 16.3108 3.5794 16.3108 6.44508V13.3432C16.3108 16.2089 14.7513 17.7883 11.9141 17.7883C9.0797 17.7883 7.52022 16.2089 7.52022 13.3432V6.44508C7.52022 3.5794 9.08254 2 11.9169 2ZM11.9397 20.0364C12.4747 20.0364 12.9101 20.4747 12.9101 21.0182C12.9101 21.5589 12.4747 22 11.9397 22C11.4018 21.9972 10.9664 21.5561 10.9693 21.0182C10.9693 20.4747 11.4047 20.0364 11.9397 20.0364ZM15.3204 19.0546C15.8555 19.0546 16.2909 19.4929 16.2909 20.0364C16.2909 20.5771 15.8555 21.0182 15.3204 21.0182C14.7826 21.0154 14.3472 20.5771 14.35 20.0364C14.35 19.4929 14.7854 19.0546 15.3204 19.0546ZM18.0353 16.7154C18.5703 16.7154 19.0057 17.1537 19.0057 17.6972C19.0057 18.2379 18.5703 18.679 18.0353 18.679C17.4975 18.6762 17.0621 18.2351 17.0649 17.6972C17.0649 17.1565 17.4975 16.7154 18.0353 16.7154ZM19.0057 13.3745C19.4667 13.3773 19.8367 13.753 19.8338 14.2112C19.8367 14.6722 19.4667 15.0478 19.0057 15.0507C18.5447 15.0478 18.1747 14.6722 18.1776 14.2112C18.1747 13.7501 18.5447 13.3773 19.0057 13.3745ZM8.51055 19.0546C9.04555 19.0546 9.48095 19.4929 9.48095 20.0364C9.48095 20.5771 9.04555 21.0182 8.51055 21.0182C7.9727 21.0154 7.5373 20.5771 7.54014 20.0364C7.54014 19.4929 7.97554 19.0546 8.51055 19.0546ZM5.79854 16.7154C6.33354 16.7154 6.76894 17.1537 6.76894 17.6972C6.76894 18.2379 6.33354 18.679 5.79854 18.679C5.26069 18.6762 4.82529 18.2351 4.82813 17.6972C4.82813 17.1565 5.26353 16.7154 5.79854 16.7154ZM5.65625 14.2112C5.65909 14.6722 5.28915 15.0478 4.82813 15.0507C4.36712 15.0478 3.99717 14.6722 4.00002 14.2112C3.99717 13.7501 4.36712 13.3773 4.82813 13.3745C5.28915 13.3773 5.65909 13.7501 5.65625 14.2112Z" fill="#86888C"/>
</svg>
