<svg width="20" height="20" viewBox="0 0 20 20" fill="none" xmlns="http://www.w3.org/2000/svg">
<path d="M12.7054 18H7.29456C6.51121 18 5.94557 17.8064 5.56777 17.4056C5.1857 17.0024 5 16.3943 5 15.5516V4.4484C5 3.62847 5.1857 3.02947 5.56563 2.6195C5.95197 2.2027 6.51761 2 7.29456 2H12.7054C13.4909 2 14.0566 2.19815 14.4365 2.60584C14.8164 3.01352 15 3.6148 15 4.4484V15.5516C15 16.3943 14.8143 17.0001 14.4322 17.4056C14.0544 17.8064 13.4888 18 12.7054 18ZM7.29456 2.45552C6.63714 2.45552 6.17183 2.61267 5.86873 2.93836C5.5699 3.2595 5.42476 3.75374 5.42476 4.4484V15.5516C5.42476 16.9683 5.96692 17.5445 7.29242 17.5445H12.7033C14.0309 17.5445 14.571 16.9683 14.571 15.5516V4.4484C14.571 3.74007 14.428 3.24128 14.1334 2.92698C13.8388 2.61267 13.3714 2.45552 12.7054 2.45552H7.29456Z" fill="#86888C"/>
<path d="M10.0053 14.7408C9.62113 14.7408 9.3714 14.9572 9.3714 15.4195C9.3714 15.6427 9.42903 15.8067 9.53148 15.9183C9.64248 16.039 9.8047 16.0982 10.0053 16.0982C10.206 16.0982 10.3682 16.039 10.4792 15.9183C10.5816 15.8067 10.6371 15.6427 10.6371 15.4195C10.6371 14.9572 10.3895 14.7408 10.0053 14.7408Z" fill="#86888C"/>
</svg>
