<svg width="24" height="24" viewBox="0 0 24 24" fill="none" xmlns="http://www.w3.org/2000/svg">
<path fill-rule="evenodd" clip-rule="evenodd" d="M7.46464 18.0808C7.99687 18.0808 8.31564 18.3996 8.31564 18.9318C8.31564 19.1908 8.24164 19.4015 8.09648 19.5523C7.94564 19.706 7.72933 19.7857 7.46748 19.7857C7.20564 19.7857 6.98933 19.706 6.83848 19.5523C6.69048 19.4015 6.61648 19.1937 6.61648 18.9318C6.61648 18.3968 6.9324 18.0808 7.46464 18.0808ZM14.5487 16.0117C18.9233 16.0117 21.1348 13.8059 21.1348 9.43703C21.1348 5.0767 18.9233 2.86523 14.5487 2.86523C11.5062 2.86523 9.51387 3.96385 8.58602 6.08994H9.97495C10.9455 6.08994 11.6656 6.3404 12.175 6.85271C12.6873 7.36217 12.9293 8.07087 12.9293 9.03857V15.8864C13.433 15.9661 13.9767 16.0117 14.5487 16.0117ZM12.0612 19.0542V9.03857C12.0612 8.31279 11.8961 7.79479 11.5574 7.4561C11.2187 7.12025 10.6979 6.95517 9.97211 6.95517H4.95432C4.23424 6.95517 3.72193 7.12879 3.3747 7.47318C3.03885 7.82041 2.86523 8.32987 2.86523 9.03857V19.0542C2.86523 19.78 3.03031 20.298 3.3747 20.6367C3.71339 20.9725 4.2257 21.1376 4.95432 21.1376H9.97211C10.7007 21.1376 11.2216 20.9725 11.5603 20.6367C11.8961 20.298 12.0612 19.78 12.0612 19.0542ZM14.5487 2C19.4299 2 22.0028 4.57578 22.0028 9.43703C22.0028 14.3068 19.4299 16.8741 14.5487 16.8741C13.9767 16.8741 13.4416 16.8285 12.9293 16.7517V19.0514C12.9293 20.0276 12.6788 20.7448 12.1665 21.2486C11.6627 21.7581 10.9426 22 9.97495 22H4.95432C3.99232 22 3.27224 21.7552 2.75993 21.2486C2.25046 20.7477 2 20.0219 2 19.0542V9.03857C2 8.08795 2.25046 7.37925 2.76277 6.86979C3.27508 6.3404 3.99516 6.08994 4.95717 6.08994H7.64394C8.63726 3.41739 11.0138 2 14.5487 2ZM16.4073 12.0953L14.2442 9.93795C14.1617 9.85541 14.1161 9.74726 14.1161 9.63057V6.71325C14.1161 6.47417 14.3097 6.28063 14.5487 6.28063C14.7878 6.28063 14.9814 6.47417 14.9814 6.71325V9.45411L17.0164 11.4863C17.1843 11.6542 17.1843 11.9303 17.0164 12.0982C16.8484 12.2633 16.5752 12.2633 16.4073 12.0953Z" fill="#86888C"/>
</svg>
