<svg width="28" height="28" viewBox="0 0 28 28" fill="none" xmlns="http://www.w3.org/2000/svg">
<path fill-rule="evenodd" clip-rule="evenodd" d="M8.723 17.5971C9.12591 17.5971 9.39223 17.8634 9.39223 18.2424C9.39223 18.6658 9.13274 18.9219 8.74691 18.9219C8.33717 18.9219 8.07768 18.6658 8.07768 18.2868V18.2424C8.07768 17.8634 8.344 17.5971 8.723 17.5971ZM10.6624 10.3005C11.178 10.6795 11.417 11.2019 11.417 11.9462C11.417 12.851 11.0414 13.3871 10.1912 14.3978C9.22493 15.5143 9.19078 15.5553 9.19078 16.5933C9.19078 16.7742 9.04738 16.9176 8.86641 16.9176H8.54545C8.39181 16.9176 8.25523 16.8084 8.22791 16.6547C8.19718 16.5011 8.18353 16.344 8.18694 16.1869C8.18694 15.388 8.46692 14.9202 9.09176 14.1656L9.21127 14.0222C10.2254 12.8203 10.4166 12.4891 10.4166 11.9292C10.4166 11.5365 10.3039 11.2804 10.041 11.0687C9.89074 10.9458 9.621 10.8092 8.88007 10.8092C8.47375 10.8092 8.11524 10.857 7.6816 10.9663C7.50747 11.0107 7.32992 10.9014 7.28553 10.7273C7.28553 10.7239 7.28212 10.717 7.28212 10.7136L7.23432 10.4644C7.207 10.3175 7.28212 10.1741 7.41528 10.1093C7.69526 9.9761 8.37473 9.83952 9.02347 9.83952C9.70977 9.84294 10.2629 9.99659 10.6624 10.3005ZM24.9962 21.6569V6.33974C24.9962 5.18907 24.7367 4.36961 24.1869 3.81989C23.6372 3.27017 22.8178 3.00043 21.6569 3.00043H14.0085C12.8681 3.00043 12.0384 3.28041 11.4887 3.84038C10.939 4.40034 10.6692 5.20956 10.6692 6.33974V6.94067C14.4388 7.38114 16.6001 9.71319 16.6001 14.1622C16.6001 18.6112 14.4388 20.9432 10.6795 21.3837V22.0939C10.7409 23.0124 11.0004 23.7055 11.4887 24.1835C12.0282 24.723 12.8579 24.9962 14.0085 24.9962H21.6569C22.8075 24.9962 23.6372 24.723 24.1869 24.1835C24.7367 23.644 24.9962 22.8143 24.9962 21.6569ZM9.30004 20.4652C13.5408 20.4652 15.5997 18.4029 15.5997 14.1622C15.5997 9.92147 13.5408 7.85916 9.30004 7.85916C5.05933 7.85916 3.00043 9.92147 3.00043 14.1622C3.00043 18.4029 5.05933 20.4652 9.30004 20.4652ZM24.8971 3.11993C25.6381 3.86086 25.9966 4.91933 25.9966 6.33974V21.6569C25.9966 23.0977 25.6381 24.1562 24.8869 24.8971C24.146 25.6381 23.0875 26 21.6569 26H14.0085C12.5779 26 11.5262 25.6381 10.7785 24.9006C10.1195 24.2416 9.76099 23.3402 9.67904 22.1315V21.4622C9.5493 21.4622 9.42979 21.4725 9.30004 21.4725C4.68715 21.4656 2 19.1438 2 14.1622C2 9.19078 4.68715 6.85873 9.30004 6.85873C9.42979 6.85873 9.5493 6.86897 9.6688 6.86897V6.33974C9.6688 4.93982 10.0273 3.88818 10.7785 3.137C11.5262 2.36876 12.5881 2 14.0085 2H21.6569C23.0977 2 24.1562 2.36876 24.8971 3.11993ZM16.8767 22.4114C16.6513 22.1827 16.5386 21.8651 16.5386 21.4656C16.5386 20.6496 17.0235 20.1647 17.8361 20.1647C18.6487 20.1647 19.1336 20.653 19.1336 21.4656C19.1336 21.8651 19.0209 22.1827 18.7956 22.4114C18.5668 22.647 18.2356 22.77 17.8361 22.77C17.4366 22.77 17.1054 22.6436 16.8767 22.4114Z" fill="#86888C"/>
</svg>
