<svg width="40" height="40" viewBox="0 0 40 40" fill="none" xmlns="http://www.w3.org/2000/svg">
<path d="M26.255 30.8174H6.72043C4.79411 30.8174 3.33074 30.2587 2.36758 29.1572C1.46296 28.1195 1 26.587 1 24.6021V15.2153C1 13.2305 1.45763 11.6979 2.36758 10.6603C3.33074 9.55874 4.79411 9 6.72043 9H26.42C28.3463 9 29.8097 9.55874 30.7728 10.6603C31.6774 11.6979 32.1404 13.2305 32.1404 15.2153V16.2902C32.1404 16.5829 31.9009 16.8223 31.6083 16.8223C31.3156 16.8223 31.0761 16.5829 31.0761 16.2902V15.2153C31.0761 11.6979 29.5968 10.0589 26.42 10.0589H6.72043C3.54359 10.0589 2.06427 11.6979 2.06427 15.2153V24.5968C2.06427 28.1142 3.54359 29.7532 6.72043 29.7532H26.255C26.5477 29.7532 26.7871 29.9926 26.7871 30.2853C26.7871 30.578 26.553 30.8174 26.255 30.8174ZM21.7638 35H11.3872C11.0946 35 10.8551 34.7605 10.8551 34.4679C10.8551 34.1752 11.0946 33.9357 11.3872 33.9357H21.7638C22.0565 33.9357 22.2959 34.1752 22.2959 34.4679C22.2959 34.7605 22.0565 35 21.7638 35Z" fill="#86888C"/>
<path d="M34.9336 34.9901H29.3515C27.0314 34.9901 25.9033 33.8619 25.9033 31.5418V19.2123C25.9033 18.0682 26.1853 17.2328 26.7654 16.6421C27.3507 16.0515 28.1968 15.7588 29.3515 15.7588H34.9336C36.099 15.7588 36.9451 16.0408 37.5251 16.6208C38.0998 17.2009 38.3818 18.047 38.3818 19.207V31.5365C38.3818 33.8619 37.2537 34.9901 34.9336 34.9901ZM29.3515 16.8284C27.6594 16.8284 26.9676 17.5201 26.9676 19.2123V31.5418C26.9676 33.2606 27.6381 33.9258 29.3515 33.9258H34.9336C36.6524 33.9258 37.3176 33.2553 37.3176 31.5418V19.2123C37.3176 17.4935 36.6471 16.8284 34.9336 16.8284H29.3515Z" fill="#86888C"/>
<path d="M32.147 30.4775C31.6095 30.4775 31.2583 30.7596 31.2583 31.3715C31.2583 31.6642 31.3381 31.8824 31.4818 32.026C31.6361 32.1857 31.8649 32.2602 32.147 32.2602C32.429 32.2602 32.6525 32.1857 32.8121 32.026C32.9558 31.877 33.0356 31.6642 33.0356 31.3715C33.0303 30.7596 32.6844 30.4775 32.147 30.4775Z" fill="#86888C"/>
</svg>
