<svg width="40" height="40" viewBox="0 0 40 40" fill="none" xmlns="http://www.w3.org/2000/svg">
<path fill-rule="evenodd" clip-rule="evenodd" d="M3.6263 36.4637H36.3643V32.5104H3.6263V36.4637ZM8.09173 30.9741H11.0465V15.5448H8.09173V30.9741ZM19.9978 3.70526L34.787 14.0085H32.7387C32.7336 14.0085 32.7284 14.0034 32.7233 14.0034C32.7182 14.0034 32.7131 14.0085 32.7079 14.0085H28.2579C28.2528 14.0085 28.2476 14.0034 28.2425 14.0034C28.2374 14.0034 28.2323 14.0085 28.2271 14.0085H22.2818C22.2767 14.0085 22.2715 14.0034 22.2664 14.0034C22.2613 14.0034 22.2562 14.0085 22.251 14.0085H17.801C17.7959 14.0085 17.7907 14.0034 17.7856 14.0034C17.7805 14.0034 17.7754 14.0085 17.7703 14.0085H11.8249C11.8198 14.0085 11.8146 14.0034 11.8095 14.0034C11.8044 14.0034 11.7993 14.0085 11.7941 14.0085H7.34408C7.33896 14.0085 7.33384 14.0034 7.32872 14.0034C7.32359 14.0034 7.31847 14.0085 7.31335 14.0085H5.20354L19.9978 3.70526ZM23.0345 30.9741H27.4846V15.5448H23.0345V30.9741ZM18.5538 30.9741H21.5085V15.5448H18.5538V30.9741ZM12.5725 30.9741H17.0226V15.5448H12.5725V30.9741ZM29.0107 30.9741H31.9654V15.5448H29.0107V30.9741ZM37.1324 30.9741H33.4914V15.5448H37.2297C37.5626 15.5448 37.8596 15.3297 37.9569 15.0071C38.0542 14.6845 37.9364 14.3363 37.665 14.1468L20.4331 2.13826C20.172 1.95391 19.8237 1.95391 19.5626 2.13826L2.33071 14.1468C2.05418 14.3363 1.9364 14.6845 2.03369 15.0071C2.13611 15.3297 2.428 15.5448 2.76598 15.5448H6.5657V30.9741H2.86328C2.43825 30.9741 2.10027 31.3172 2.10027 31.7422V37.2319C2.10027 37.6569 2.44337 38 2.86328 38H37.1324C37.5574 38 37.8954 37.6569 37.8954 37.2319V31.7422C37.8954 31.3172 37.5523 30.9741 37.1324 30.9741Z" fill="#86888C"/>
</svg>
