<svg width="40" height="40" viewBox="0 0 40 40" fill="none" xmlns="http://www.w3.org/2000/svg">
<path fill-rule="evenodd" clip-rule="evenodd" d="M34.6785 10.8246H30.8524L32.5785 9.11387L35.8361 9.1446C35.831 9.1446 34.6785 10.8246 34.6785 10.8246ZM20.1371 19.3426C19.3739 18.8252 18.3137 18.5691 16.8744 18.5384C16.5978 18.5333 15.8039 18.5282 15.809 18.5282C12.8331 18.5538 11.2197 19.3887 11.2197 23.727C11.2197 28.1166 12.8843 28.972 15.9319 29.0129L16.27 29.0181L16.9973 29.0129C20.5674 28.9515 21.7762 27.6402 21.7762 23.8141C21.7762 22.3594 21.5866 21.2633 21.1513 20.454L23.3742 18.2516C24.3628 19.6038 24.8801 21.4375 24.8801 23.8141C24.8801 29.2895 22.3191 32.0042 17.0639 32.0913L16.2905 32.0964L15.9217 32.0913C10.6716 32.0196 8.12082 29.2793 8.12082 23.727C8.12082 18.2055 10.6255 15.4959 15.7783 15.4498C15.8756 15.4498 16.6695 15.4549 16.9563 15.4601C19.2817 15.5164 21.0539 16.0952 22.3498 17.1555L20.1371 19.3426ZM20.2703 23.809C20.2703 27.0051 19.5634 27.4712 16.9768 27.5173L16.2802 27.5224L15.9524 27.5173C13.7755 27.4866 12.7255 27.3124 12.7255 23.7219C12.7255 20.1979 13.668 20.034 15.8141 20.0187C15.9063 20.0187 16.5978 20.0187 16.8436 20.0238C17.8168 20.0494 18.5442 20.1365 19.0666 20.4028L16.2853 23.1636L16.2802 21.9599C16.2751 21.5502 15.9422 21.2172 15.5324 21.2172H15.5222C15.1073 21.2172 14.7743 21.5502 14.7743 21.9599V21.965L14.7795 24.9665V24.9768C14.7795 25.11 14.8307 25.2278 14.8921 25.3353C15.0253 25.5658 15.2661 25.7041 15.5273 25.7092H15.5375L18.5493 25.6631C18.9642 25.658 19.292 25.32 19.292 24.9051C19.2817 24.4953 18.9488 24.1675 18.539 24.1726H18.5288L17.3712 24.1931L19.9937 21.5911C20.1781 22.1341 20.2703 22.8358 20.2703 23.809ZM29.4848 23.809C29.4848 28.8951 27.7484 32.5523 24.3167 34.6677C21.5149 36.3989 18.3546 36.6396 17.1305 36.6601C16.8795 36.6653 16.5927 36.6653 16.3007 36.6653L15.8551 36.6601C14.6156 36.6448 11.4297 36.4143 8.6279 34.6677C5.22688 32.542 3.50588 28.8593 3.50588 23.7219C3.50588 18.5947 5.21151 14.9274 8.57668 12.8273C11.3477 11.0961 14.5131 10.881 15.7475 10.8758H16.0344C16.3878 10.8758 16.7566 10.881 17.069 10.8861C18.3085 10.9168 21.4996 11.1729 24.3167 12.9298C24.7879 13.2217 25.2182 13.5495 25.6279 13.903L23.4357 16.0747C21.6071 14.5279 19.1895 14.0208 16.9871 13.9696C16.6746 13.9644 15.7731 13.9593 15.7731 13.9593C11.5884 13.9952 6.60983 15.7162 6.60983 23.727C6.60983 31.7686 11.6601 33.5255 15.8909 33.5869L16.27 33.592L17.0741 33.5818C21.3203 33.5101 26.3809 31.7532 26.3809 23.8141C26.3809 20.7767 25.633 18.646 24.4755 17.1555L26.6831 14.9632C28.5372 17.1196 29.4848 20.0801 29.4848 23.809ZM29.6692 5.71284L31.2724 4.45282V8.29946L29.6692 9.88729V5.71284ZM37.9105 8.06897C37.7825 7.82312 37.5264 7.67458 37.2498 7.66945L34.0639 7.6336L34.2637 7.43384C34.5556 7.14701 34.5556 6.67578 34.2688 6.38383L34.2637 6.3787C33.9666 6.08675 33.4954 6.08675 33.1983 6.3787L32.7731 6.80383V2.91109C32.7731 2.62426 32.6092 2.36303 32.348 2.2401C32.0868 2.11718 31.7795 2.14791 31.5541 2.32718L28.445 4.76526C28.2658 4.90868 28.1633 5.12381 28.1582 5.34918V11.3778L26.6728 12.8529C23.2411 9.85656 18.7593 9.43655 17.0946 9.39558C16.7361 9.38533 16.3775 9.38021 16.019 9.38021L15.727 9.38533C12.8228 9.41094 2 10.3995 2 23.727C2 37.075 12.9202 38.1199 15.8295 38.1609C15.9831 38.166 16.1419 38.166 16.2956 38.166C16.5978 38.166 16.8949 38.1609 17.1561 38.1609C19.922 38.1097 30.9856 37.0801 30.9856 23.8192C30.9856 19.1838 29.6231 16.0593 27.7331 13.9183L29.3414 12.3203H35.0729C35.3239 12.3203 35.5544 12.1973 35.6927 11.9924L37.8593 8.83728C38.0232 8.60679 38.0386 8.31483 37.9105 8.06897Z" fill="#86888C"/>
</svg>
