<svg width="28" height="28" viewBox="0 0 28 28" fill="none" xmlns="http://www.w3.org/2000/svg">
<path fill-rule="evenodd" clip-rule="evenodd" d="M24.7857 7.93842H22.2349L23.3857 6.79792L25.5574 6.81841C25.554 6.81841 24.7857 7.93842 24.7857 7.93842ZM15.0914 13.617C14.5826 13.2722 13.8758 13.1014 12.9162 13.0809C12.7319 13.0775 12.2026 13.0741 12.206 13.0741C10.2221 13.0912 9.14643 13.6478 9.14643 16.54C9.14643 19.4664 10.2562 20.0367 12.2879 20.064L12.5133 20.0674L12.9982 20.064C15.3782 20.023 16.1841 19.1488 16.1841 16.5981C16.1841 15.6283 16.0578 14.8976 15.7675 14.358L17.2495 12.8897C17.9085 13.7912 18.2534 15.0137 18.2534 16.5981C18.2534 20.2484 16.5461 22.0581 13.0426 22.1162L12.527 22.1196L12.2811 22.1162C8.78106 22.0684 7.08055 20.2415 7.08055 16.54C7.08055 12.859 8.75033 11.0526 12.1855 11.0219C12.2504 11.0219 12.7797 11.0253 12.9709 11.0287C14.5211 11.0663 15.7026 11.4521 16.5665 12.159L15.0914 13.617ZM15.1802 16.5947C15.1802 18.7254 14.709 19.0362 12.9845 19.0669L12.5201 19.0703L12.3016 19.0669C10.8504 19.0464 10.1504 18.9303 10.1504 16.5366C10.1504 14.1873 10.7787 14.078 12.2094 14.0678C12.2709 14.0678 12.7319 14.0678 12.8958 14.0712C13.5445 14.0883 14.0294 14.1463 14.3777 14.3239L12.5236 16.1644L12.5201 15.3619C12.5167 15.0888 12.2948 14.8668 12.0216 14.8668H12.0148C11.7382 14.8668 11.5162 15.0888 11.5162 15.3619V15.3654L11.5196 17.3664V17.3732C11.5196 17.462 11.5538 17.5405 11.5948 17.6122C11.6835 17.7659 11.844 17.8581 12.0182 17.8615H12.025L14.0328 17.8308C14.3094 17.8274 14.528 17.602 14.528 17.3254C14.5211 17.0522 14.2992 16.8337 14.026 16.8371H14.0192L13.2475 16.8508L14.9958 15.1161C15.1187 15.478 15.1802 15.9459 15.1802 16.5947ZM21.3232 16.5947C21.3232 19.9854 20.1656 22.4235 17.8778 23.8338C16.01 24.9879 13.9031 25.1484 13.087 25.1621C12.9197 25.1655 12.7284 25.1655 12.5338 25.1655L12.2367 25.1621C11.4104 25.1519 9.28644 24.9982 7.4186 23.8338C5.15125 22.4167 4.00392 19.9615 4.00392 16.5366C4.00392 13.1185 5.14101 10.6736 7.38446 9.27356C9.2318 8.1194 11.3421 7.97598 12.165 7.97257H12.3562C12.5919 7.97257 12.8377 7.97598 13.046 7.9794C13.8724 7.99989 15.9997 8.17062 17.8778 9.34186C18.1919 9.53649 18.4788 9.75503 18.7519 9.99065L17.2905 11.4385C16.0714 10.4072 14.4597 10.0692 12.9914 10.035C12.7831 10.0316 12.1821 10.0282 12.1821 10.0282C9.39229 10.0521 6.07322 11.1994 6.07322 16.54C6.07322 21.9011 9.4401 23.0723 12.2606 23.1133L12.5133 23.1167L13.0494 23.1099C15.8802 23.0621 19.2539 21.8908 19.2539 16.5981C19.2539 14.5732 18.7554 13.1526 17.9836 12.159L19.4554 10.6975C20.6915 12.1351 21.3232 14.1088 21.3232 16.5947ZM21.4461 4.53057L22.5149 3.69055V6.25498L21.4461 7.31353V4.53057ZM26.9404 6.10132C26.855 5.93742 26.6843 5.83839 26.4999 5.83498L24.3759 5.81107L24.5091 5.6779C24.7037 5.48668 24.7037 5.17253 24.5125 4.97789L24.5091 4.97447C24.3111 4.77984 23.9969 4.77984 23.7988 4.97447L23.5154 5.25789V2.66273C23.5154 2.47151 23.4062 2.29736 23.232 2.21541C23.0579 2.13346 22.853 2.15394 22.7027 2.27346L20.63 3.89885C20.5105 3.99446 20.4422 4.13788 20.4388 4.28812V8.30721L19.4485 9.29064C17.1607 7.29305 14.1729 7.01304 13.0631 6.98572C12.8241 6.9789 12.585 6.97548 12.346 6.97548L12.1514 6.9789C10.2152 6.99597 3 7.655 3 16.54C3 25.4387 10.2801 26.1353 12.2197 26.1626C12.3221 26.166 12.4279 26.166 12.5304 26.166C12.7319 26.166 12.9299 26.1626 13.1041 26.1626C14.948 26.1285 22.3237 25.4421 22.3237 16.6015C22.3237 13.5112 21.4154 11.4282 20.1554 10.0009L21.2276 8.93551H25.0486C25.2159 8.93551 25.3696 8.85356 25.4618 8.71697L26.9062 6.61352C27.0155 6.45986 27.0257 6.26523 26.9404 6.10132Z" fill="#86888C"/>
</svg>
