<svg width="28" height="28" viewBox="0 0 28 28" fill="none" xmlns="http://www.w3.org/2000/svg">
<path d="M7.78943 23.8335C7.60153 23.8335 7.44779 23.6798 7.44779 23.4919C7.44779 23.3996 7.48538 23.3142 7.55029 23.2493L11.5064 19.3444L10.5294 18.3536L10.198 18.0188L9.55228 17.3629L5.73619 21.1277C5.43897 21.425 5.38772 21.2644 5.25449 21.1312C5.12125 20.9979 5.11783 20.7827 5.25107 20.6494L5.2579 20.6426L9.31313 16.6386C9.44637 16.5054 9.66502 16.5088 9.79484 16.642L10.362 17.216C11.2844 15.5112 12.3195 12.826 12.545 9.14311C12.2888 9.08162 12.0565 8.94838 11.8754 8.76048C11.6055 8.48033 11.4689 8.10453 11.4689 7.64674C11.4689 7.18895 11.6055 6.81315 11.8754 6.533C12.1453 6.25286 12.504 6.10596 12.9311 6.10596C13.3581 6.10596 13.7134 6.24944 13.9867 6.533C14.26 6.81656 14.3933 7.18895 14.3933 7.64674C14.3933 8.10453 14.2566 8.48033 13.9867 8.76048C13.7852 8.97571 13.5187 9.11578 13.2249 9.16361C13.0028 12.8362 11.995 15.5591 11.0657 17.339L18.4963 10.004C18.3426 9.77514 18.264 9.50183 18.2743 9.2251C18.2845 8.83905 18.4588 8.47692 18.7867 8.15236C19.1147 7.82781 19.4768 7.66041 19.8663 7.65016C20.2626 7.63991 20.6179 7.78681 20.9185 8.08404C21.2192 8.38126 21.3729 8.73656 21.3627 9.12944C21.3524 9.51549 21.1782 9.87763 20.8502 10.2022C20.5222 10.5267 20.1601 10.6941 19.7706 10.7044C19.4905 10.7146 19.2172 10.6361 18.9815 10.4823L11.6602 17.7148C13.4435 16.806 16.1185 15.846 19.6955 15.6308C19.7433 15.3404 19.8868 15.0739 20.0986 14.8689C20.3788 14.5991 20.7546 14.4624 21.2123 14.4624C21.6701 14.4624 22.0494 14.5991 22.3295 14.8689C22.6096 15.1388 22.7565 15.4976 22.7565 15.9246C22.7565 16.3517 22.6131 16.707 22.3295 16.9803C22.0459 17.2536 21.6736 17.3868 21.2123 17.3868C20.7511 17.3868 20.3753 17.2502 20.0986 16.9803C19.9073 16.7992 19.7741 16.5669 19.716 16.3072C16.0263 16.5327 13.341 17.5713 11.6328 18.4971L12.2307 19.1018C12.364 19.2351 12.3605 19.4537 12.2273 19.5835L8.02858 23.7344C7.96708 23.7993 7.87826 23.8335 7.78943 23.8335ZM20.3548 15.9451V15.9485C20.3583 16.1774 20.43 16.3517 20.5735 16.4883C20.7238 16.6318 20.9356 16.7035 21.2158 16.7035C21.4959 16.7035 21.7077 16.6318 21.858 16.4883C22.0084 16.3448 22.0767 16.1672 22.0767 15.9246C22.0767 15.682 22.0084 15.5044 21.858 15.3609C21.7077 15.2174 21.4959 15.1457 21.2158 15.1457C20.9356 15.1457 20.7238 15.2174 20.5735 15.3609C20.4232 15.5044 20.3548 15.682 20.3548 15.9246V15.9451ZM19.2035 9.78539C19.3743 9.95279 19.5486 10.028 19.757 10.0245C19.9654 10.0211 20.1704 9.91863 20.3753 9.71706C20.5803 9.51549 20.6794 9.32076 20.6828 9.11236C20.6862 8.90396 20.6111 8.73998 20.4437 8.57258C20.2763 8.40517 20.0952 8.33001 19.8902 8.33343C19.6852 8.33685 19.4768 8.43934 19.2719 8.6409C19.0669 8.84247 18.9678 9.0372 18.9644 9.2456C18.9575 9.44717 19.0327 9.61799 19.2035 9.78539ZM12.914 8.50083H12.9311C13.1736 8.50083 13.3513 8.43251 13.4948 8.28218C13.6383 8.13186 13.71 7.92005 13.71 7.63991C13.71 7.35976 13.6383 7.14795 13.4948 6.99763C13.3513 6.84731 13.1736 6.77898 12.9311 6.77898C12.6885 6.77898 12.5109 6.84731 12.3674 6.99763C12.2239 7.14795 12.1521 7.35976 12.1521 7.63991C12.1521 7.92005 12.2239 8.13186 12.3674 8.28218C12.504 8.42226 12.6783 8.494 12.9072 8.50083H12.914Z" fill="#86888C"/>
<path d="M21.1819 17.4488C20.7036 17.4488 20.3142 17.3053 20.0238 17.0251C19.7334 16.745 19.5865 16.3897 19.5762 15.9592V15.9524V15.9216C19.5762 15.4741 19.7266 15.1051 20.0238 14.8182C20.321 14.5312 20.7071 14.3945 21.1819 14.3945C21.6568 14.3945 22.0497 14.538 22.3401 14.8182C22.6305 15.0983 22.7876 15.4741 22.7876 15.9216C22.7876 16.3692 22.6373 16.7382 22.3401 17.0251C22.0429 17.3121 21.6602 17.4488 21.1819 17.4488ZM20.3859 15.9456C20.3893 16.1574 20.4542 16.3179 20.5841 16.4409C20.7207 16.5742 20.9189 16.6391 21.1819 16.6391C21.445 16.6391 21.6431 16.5742 21.7798 16.4409C21.9165 16.3077 21.9779 16.1471 21.9779 15.9251C21.9779 15.703 21.9165 15.5356 21.7798 15.4092C21.6431 15.2828 21.445 15.211 21.1819 15.211C20.9189 15.211 20.7207 15.276 20.5841 15.4092C20.4474 15.5424 20.3859 15.703 20.3859 15.9285V15.9456ZM12.9007 9.24947H12.8631C12.4326 9.23923 12.0739 9.09232 11.7972 8.80193C11.5204 8.51154 11.3735 8.11866 11.3735 7.64378C11.3735 7.1689 11.517 6.77602 11.7972 6.48563C12.0773 6.19524 12.4531 6.03809 12.9007 6.03809C13.3482 6.03809 13.7172 6.18841 14.0041 6.48563C14.2911 6.78285 14.4278 7.1689 14.4278 7.64378C14.4278 8.11866 14.2843 8.51154 14.0041 8.80193C13.724 9.09232 13.3448 9.24947 12.9007 9.24947ZM12.9007 6.84435C12.6786 6.84435 12.5112 6.90926 12.3848 7.0425C12.2584 7.17574 12.1866 7.3773 12.1866 7.64036C12.1866 7.90342 12.2515 8.10157 12.3848 8.23823C12.5112 8.36805 12.6683 8.43296 12.8802 8.43638H12.9007C13.1227 8.43638 13.2867 8.37147 13.4165 8.23823C13.5463 8.10499 13.6147 7.90342 13.6147 7.64036C13.6147 7.3773 13.5498 7.17915 13.4165 7.0425C13.2833 6.90584 13.1227 6.84435 12.9007 6.84435ZM19.6992 10.7698C19.3029 10.7698 18.951 10.6194 18.647 10.3188L18.6436 10.3154C18.3259 10.0011 18.1721 9.63552 18.1824 9.22214C18.1926 8.81901 18.3703 8.44321 18.7119 8.10841C19.0535 7.7736 19.4293 7.59595 19.8359 7.5857C20.2493 7.57545 20.6182 7.72577 20.936 8.04008C21.2537 8.35439 21.4074 8.71994 21.3972 9.13332C21.3869 9.53645 21.2058 9.91225 20.8676 10.2471C20.5294 10.5819 20.1502 10.7595 19.7436 10.7698H19.6992ZM19.2107 9.73802C19.3678 9.89175 19.5284 9.9635 19.7197 9.95666C19.9145 9.95325 20.1024 9.85759 20.2937 9.66969C20.485 9.48179 20.5807 9.2973 20.5841 9.1094C20.5909 8.92492 20.5192 8.76777 20.362 8.61403C20.2049 8.46029 20.0443 8.38855 19.853 8.39538C19.6582 8.3988 19.4703 8.49446 19.2756 8.68236C19.0809 8.87026 18.9886 9.05474 18.9852 9.24264C18.9852 9.42713 19.0535 9.58428 19.2107 9.73802Z" fill="#86888C"/>
<path d="M14.9983 26C7.15089 26 3 21.8525 3 14.0051C3 6.15772 7.15089 2 14.9983 2C18.828 2 21.7969 2.99075 23.8262 4.94833C25.9307 6.97765 27 10.0251 27 14.0017C27 21.8525 22.8491 26 14.9983 26ZM14.9983 2.68327C11.353 2.68327 8.54135 3.61253 6.64527 5.44028C4.68085 7.33637 3.68327 10.2164 3.68327 14.0017C3.68327 17.787 4.68085 20.6705 6.64527 22.5631C8.54135 24.3909 11.353 25.3167 14.9983 25.3167C18.6436 25.3167 21.4552 24.3909 23.3547 22.5631C25.3226 20.667 26.3201 17.787 26.3201 14.0051C26.3201 10.2232 25.3226 7.33979 23.3547 5.4437C21.4552 3.61253 18.6436 2.68327 14.9983 2.68327Z" fill="#86888C"/>
</svg>
