<svg width="40" height="40" viewBox="0 0 40 40" fill="none" xmlns="http://www.w3.org/2000/svg">
<path fill-rule="evenodd" clip-rule="evenodd" d="M29.0558 33.4308C32.6209 31.4741 34.506 28.0729 34.506 23.5754C34.506 15.5538 28.0518 13.0848 25.2755 12.3984C23.9078 12.0603 22.4735 11.8862 20.9983 11.8862C19.3847 11.8862 17.7456 12.1116 16.1884 12.5726C16.1628 12.5828 16.132 12.5879 16.1064 12.5982C11.4143 14.012 7.50085 17.572 7.50085 23.5754C7.50085 28.0063 9.42174 31.4024 13.0535 33.4052C13.0637 33.4155 13.074 33.4257 13.0842 33.4308H29.0558ZM29.3529 36.5043C29.7832 36.5043 30.1366 36.1508 30.1366 35.7154C30.1366 35.28 29.7832 34.9317 29.3529 34.9317H12.7103C12.2749 34.9317 11.9266 35.2851 11.9266 35.7154C11.9266 36.1508 12.28 36.5043 12.7103 36.5043H29.3529ZM16.6289 5.55492V10.9027C18.0632 10.5595 19.5435 10.3853 20.9983 10.3853C22.2789 10.3853 23.5236 10.539 24.7325 10.7746V5.55492C24.7325 4.41776 23.8105 3.49573 22.6733 3.49573H18.683C17.5509 3.49573 16.6289 4.42288 16.6289 5.55492ZM36.0017 23.5754C36.0017 28.1599 34.2345 31.7456 30.8947 34.0455C31.3455 34.4604 31.6323 35.0546 31.6323 35.7154C31.6323 36.9755 30.6079 38 29.3478 38H12.7103C11.4502 38 10.4257 36.9755 10.4257 35.7154C10.4257 35.0393 10.7279 34.44 11.1941 34.0199C8.61241 32.2476 6 29.0922 6 23.5754C6 16.988 10.1133 13.0233 15.1281 11.3381V5.55492C15.1281 3.59306 16.7262 2 18.683 2H22.6733C24.6352 2 26.2282 3.59306 26.2282 5.55492V11.1076C32.3597 12.8594 36.0017 17.4747 36.0017 23.5754ZM26.6841 26.3978V21.0859C26.6841 20.1434 25.9158 19.3751 24.9732 19.3751H16.5726C15.6301 19.3751 14.8617 20.1434 14.8617 21.0859V26.3978C14.8617 27.3455 15.6301 28.1138 16.5726 28.1138H24.9732C25.9158 28.1138 26.6841 27.3455 26.6841 26.3978ZM24.9732 17.8742C26.7456 17.8742 28.185 19.3136 28.185 21.0808V26.3927C28.185 28.1651 26.7456 29.6044 24.9732 29.6044H16.5726C14.8002 29.6044 13.3608 28.1651 13.3608 26.3927V21.0808C13.3608 19.3085 14.8002 17.8742 16.5726 17.8742H24.9732ZM21.0598 7.25555C21.0598 7.72681 21.4439 8.10586 21.9101 8.10586C22.3813 8.10586 22.7604 7.72168 22.7604 7.25555C22.7604 6.78429 22.3762 6.40524 21.9101 6.40524C21.4439 6.40524 21.0598 6.78941 21.0598 7.25555ZM24.2612 7.25555C24.2612 8.55151 23.206 9.60672 21.9101 9.60672C20.6141 9.60672 19.564 8.55151 19.564 7.25555C19.564 5.95959 20.6192 4.90438 21.9101 4.90438C23.2112 4.9095 24.2612 5.95959 24.2612 7.25555ZM28.8509 6.27718C28.6614 6.27718 28.4667 6.20546 28.3233 6.05691C28.0313 5.76494 28.0313 5.28856 28.3233 4.99659L29.819 3.50085C30.111 3.20888 30.5822 3.20888 30.8793 3.50085C31.1713 3.79283 31.1713 4.26921 30.8793 4.56118L29.3836 6.05691C29.2351 6.20546 29.0455 6.27718 28.8509 6.27718ZM28.6921 7.21457C28.6921 6.79966 29.025 6.4667 29.44 6.4667H32.1753C32.5902 6.4667 32.9232 6.79966 32.9232 7.21457C32.9232 7.62948 32.5902 7.96244 32.1753 7.96244H29.44C29.0302 7.96244 28.6921 7.62948 28.6921 7.21457ZM28.4104 8.45418C28.7023 8.16221 29.1787 8.16221 29.4707 8.45418L31.0484 10.037C31.3404 10.329 31.3404 10.8002 31.0484 11.0973C30.8998 11.2408 30.7103 11.3176 30.5208 11.3176C30.3312 11.3176 30.1366 11.2459 29.9932 11.0973L28.4155 9.51451C28.1184 9.22254 28.1184 8.74616 28.4104 8.45418ZM18.3705 22.9146C17.9556 22.9146 17.6227 22.5766 17.6227 22.1668C17.6227 21.757 17.9556 21.4189 18.3705 21.4189H23.1702C23.5851 21.4189 23.918 21.7519 23.918 22.1668C23.918 22.5817 23.5851 22.9146 23.1702 22.9146H18.3705ZM24.9784 24.3847C25.3933 24.3847 25.7262 24.7177 25.7262 25.1326C25.7262 25.5475 25.3933 25.8805 24.9784 25.8805H16.5674C16.1525 25.8805 15.8196 25.5475 15.8196 25.1326C15.8196 24.7177 16.1525 24.3847 16.5674 24.3847H24.9784Z" fill="#86888C"/>
</svg>
