<svg width="28" height="28" viewBox="0 0 28 28" fill="none" xmlns="http://www.w3.org/2000/svg">
<path d="M9.93602 21.02C9.73764 21.02 9.57689 20.8592 9.57689 20.6608C9.57689 20.5685 9.61451 20.4796 9.67608 20.4112C10.5175 19.539 11.7693 19.0978 13.4042 19.0978C15.0322 19.0978 16.284 19.5356 17.122 20.4043C17.2588 20.548 17.2554 20.7737 17.1152 20.9139C16.9715 21.0507 16.7458 21.0473 16.6055 20.9071C15.9044 20.1854 14.827 19.8195 13.4042 19.8195C11.9813 19.8195 10.8937 20.1888 10.196 20.9139C10.1276 20.9789 10.0318 21.02 9.93602 21.02ZM8.14038 18.188C7.942 18.188 7.78125 18.0272 7.78125 17.8289C7.78125 17.7365 7.81887 17.6476 7.88044 17.5792C9.11857 16.2932 10.9792 15.6433 13.4042 15.6433C15.8223 15.6433 17.6761 16.2897 18.9142 17.5689C19.051 17.7126 19.0476 17.9383 18.9074 18.0785C18.7637 18.2153 18.538 18.2119 18.3978 18.0717C17.2998 16.9396 15.6171 16.365 13.4042 16.365C11.181 16.365 9.49822 16.943 8.40032 18.082C8.33191 18.1504 8.23957 18.188 8.14038 18.188Z" fill="#86888C"/>
<path d="M17.9218 26H8.85122C7.6336 26 6.68277 25.6785 6.02608 25.0458C5.34545 24.3891 5 23.4109 5 22.1454L5.00342 15.062C5 14.6721 5 14.5182 5 14.5182V14.5148C5 13.2459 5.34545 12.2711 6.02608 11.6144C6.68277 10.9817 7.6336 10.6602 8.85122 10.6602H17.9218C19.1394 10.6602 20.0902 10.9817 20.7503 11.6144C21.4344 12.2677 21.7867 13.2425 21.8038 14.5114V22.1488C21.7867 23.4177 21.4344 24.3925 20.7503 25.0458C20.0902 25.682 19.1394 26 17.9218 26ZM5.71484 14.5148C5.71484 14.5353 5.71826 14.6926 5.71826 15.062V15.0655L5.71484 22.1522C5.71484 23.216 5.98504 24.0197 6.52202 24.5362C7.03848 25.0355 7.82172 25.2886 8.8478 25.2886H17.9183C20.0218 25.2886 21.0547 24.2626 21.0821 22.1522V14.5251C21.0547 12.4148 20.0218 11.3887 17.9183 11.3887H8.85122C7.82514 11.3887 7.0419 11.6418 6.52544 12.1411C5.98846 12.6473 5.71484 13.4477 5.71484 14.5148Z" fill="#86888C"/>
<path d="M8.08519 11.3578C7.89707 11.3578 7.74658 11.2074 7.74658 11.0192V7.28431C7.74658 4.37024 10.2297 2 13.284 2H13.5166C16.5674 2 19.054 4.37024 19.054 7.28089C19.054 7.469 18.9035 7.6195 18.7154 7.6195C18.5273 7.6195 18.3768 7.469 18.3768 7.28089C18.3768 4.73963 16.1981 2.67721 13.5166 2.67721H13.284C10.6059 2.67721 8.42379 4.74305 8.42379 7.28089V11.0158C8.42379 11.2074 8.2733 11.3578 8.08519 11.3578ZM13.4003 22.0086C13.0514 22.0086 12.8223 22.1898 12.8223 22.5832C12.8223 22.7713 12.8736 22.9115 12.9693 23.0038C13.0719 23.1065 13.219 23.1543 13.4003 23.1543C13.5816 23.1543 13.732 23.1065 13.8312 23.0038C13.9236 22.9081 13.9783 22.7713 13.9783 22.5832C13.9783 22.1898 13.7491 22.0086 13.4003 22.0086Z" fill="#86888C"/>
</svg>
