<svg width="40" height="40" viewBox="0 0 40 40" fill="none" xmlns="http://www.w3.org/2000/svg">
<path d="M13.4035 30.5301C13.106 30.5301 12.8648 30.2889 12.8648 29.9914C12.8648 29.8529 12.9213 29.7195 13.0136 29.6169C14.2757 28.3086 16.1534 27.6468 18.6058 27.6468C21.0478 27.6468 22.9256 28.3035 24.1825 29.6066C24.3877 29.8221 24.3826 30.1607 24.1722 30.371C23.9568 30.5762 23.6182 30.5711 23.4078 30.3608C22.3561 29.2783 20.74 28.7293 18.6058 28.7293C16.4715 28.7293 14.84 29.2834 13.7934 30.371C13.6908 30.4685 13.5472 30.5301 13.4035 30.5301ZM10.7101 26.2821C10.4125 26.2821 10.1714 26.041 10.1714 25.7434C10.1714 25.6049 10.2278 25.4715 10.3202 25.3689C12.1774 23.4399 14.9683 22.4651 18.6058 22.4651C22.2329 22.4651 25.0136 23.4347 26.8708 25.3535C27.076 25.569 27.0709 25.9076 26.8606 26.1179C26.6451 26.3231 26.3065 26.318 26.0961 26.1077C24.4493 24.4095 21.9251 23.5476 18.6058 23.5476C15.271 23.5476 12.7468 24.4146 11.1 26.1231C10.9974 26.2257 10.8589 26.2821 10.7101 26.2821Z" fill="#86888C"/>
<path d="M25.3826 38.0001H11.7768C9.95041 38.0001 8.52416 37.5178 7.53912 36.5687C6.51817 35.5837 6 34.1164 6 32.2181L6.00513 21.5931C6 21.0082 6 20.7773 6 20.7773V20.7722C6 18.8688 6.51817 17.4067 7.53912 16.4216C8.52416 15.4725 9.95041 14.9902 11.7768 14.9902H25.3826C27.2091 14.9902 28.6353 15.4725 29.6255 16.4216C30.6516 17.4015 31.18 18.8637 31.2056 20.7671V32.2232C31.18 34.1266 30.6516 35.5888 29.6255 36.5687C28.6353 37.5229 27.2091 38.0001 25.3826 38.0001ZM7.07225 20.7722C7.07225 20.803 7.07738 21.039 7.07738 21.5931V21.5982L7.07225 32.2284C7.07225 33.8239 7.47755 35.0296 8.28303 35.8043C9.05772 36.5533 10.2326 36.9329 11.7717 36.9329H25.3775C28.5327 36.9329 30.0821 35.3938 30.1231 32.2284V20.7876C30.0821 17.6221 28.5327 16.083 25.3775 16.083H11.7768C10.2377 16.083 9.06285 16.4627 8.28816 17.2117C7.48268 17.971 7.07225 19.1715 7.07225 20.7722Z" fill="#86888C"/>
<path d="M10.628 16.0368C10.3459 16.0368 10.1201 15.811 10.1201 15.5289V9.92646C10.1201 5.55537 13.8448 2 18.4262 2H18.7751C23.3514 2 27.0812 5.55537 27.0812 9.92133C27.0812 10.2035 26.8555 10.4292 26.5733 10.4292C26.2911 10.4292 26.0654 10.2035 26.0654 9.92133C26.0654 6.10945 22.7973 3.01582 18.7751 3.01582H18.4262C14.4091 3.01582 11.1359 6.11458 11.1359 9.92133V15.5237C11.1359 15.811 10.9102 16.0368 10.628 16.0368ZM18.6007 32.0128C18.0774 32.0128 17.7336 32.2847 17.7336 32.8747C17.7336 33.1569 17.8106 33.3673 17.9542 33.5058C18.1081 33.6597 18.3288 33.7315 18.6007 33.7315C18.8726 33.7315 19.0983 33.6597 19.2471 33.5058C19.3856 33.3621 19.4677 33.1569 19.4677 32.8747C19.4677 32.2847 19.124 32.0128 18.6007 32.0128Z" fill="#86888C"/>
</svg>
