<svg width="28" height="28" viewBox="0 0 28 28" fill="none" xmlns="http://www.w3.org/2000/svg">
<path fill-rule="evenodd" clip-rule="evenodd" d="M13.9323 9.14933C13.6557 9.14592 13.4303 8.92735 13.4337 8.65756L13.4508 5.48494C13.4542 5.21515 13.6762 5 13.9528 5H13.9562C14.2328 5.00342 14.4582 5.21857 14.4548 5.49177L14.4378 8.66439C14.4343 8.93077 14.2089 9.14933 13.9323 9.14933ZM10.8417 9.95529L9.42782 8.56194C9.23316 8.37069 9.23316 8.05992 9.43123 7.86867C9.62931 7.67743 9.94691 7.68084 10.1416 7.87209L11.5554 9.26545C11.7501 9.45669 11.7467 9.76746 11.552 9.95871C11.453 10.0509 11.3266 10.0987 11.2002 10.0987C11.0705 10.0987 10.9407 10.0509 10.8417 9.95529ZM16.6815 10.0987C16.5551 10.0987 16.4253 10.0509 16.3297 9.95529C16.1316 9.76746 16.1316 9.45669 16.3263 9.26203L17.7401 7.87209C17.9348 7.67743 18.2524 7.67743 18.4505 7.86867C18.6486 8.0565 18.6486 8.36728 18.4539 8.56194L17.04 9.95529C16.941 10.0509 16.8112 10.0987 16.6815 10.0987ZM5.62341 12.3288C5.32971 12.6054 5.18286 13.0562 5.18286 13.6743C5.18286 14.2925 5.32971 14.7432 5.61999 15.0165C5.90345 15.2828 6.36107 15.416 6.9792 15.416C7.59733 15.416 8.05837 15.2828 8.34523 15.013C8.63893 14.7432 8.78578 14.2925 8.78578 13.6743C8.78578 13.0562 8.63552 12.602 8.34523 12.3288C8.05837 12.0624 7.60074 11.9224 6.98261 11.9224C6.36448 11.9258 5.90686 12.0624 5.62341 12.3288ZM6.98261 16.3962C6.09469 16.3962 5.40484 16.1708 4.92673 15.7234C4.43154 15.2589 4.17883 14.5725 4.17883 13.6777C4.17883 12.783 4.43154 12.0931 4.92673 11.6253C5.40484 11.1779 6.09469 10.9491 6.98261 10.9491C7.86712 10.9491 8.56038 11.1779 9.04191 11.6253C9.54051 12.0931 9.79323 12.783 9.79323 13.6777C9.79323 14.5725 9.54051 15.2589 9.04191 15.7268C8.56038 16.1708 7.86712 16.3962 6.98261 16.3962ZM24.9426 26.0233L24.9972 20.6172C24.9972 20.0093 24.8162 19.5039 24.4747 19.1555C23.9966 18.6706 23.2623 18.5681 22.733 18.5681H18.3924C18.1943 18.5681 17.8836 18.493 17.7436 18.4008C17.5557 18.2779 17.3645 18.0012 17.3645 18.0012L14.5026 14.2515V17.8032L16.0224 19.7464V19.2204C16.0224 18.9506 16.2477 18.7321 16.5244 18.7321C16.801 18.7321 17.0264 18.9506 17.0264 19.2204V21.1807C17.0264 21.1909 17.0332 21.1978 17.0332 21.2114V21.3549C17.0332 21.4368 17.0366 21.5188 17.0366 21.6076L17.0298 22.1984V23.0795H17.0196L16.982 26.0233H21.9236V22.1677C21.9236 21.8979 22.149 21.6793 22.4256 21.6793C22.7023 21.6793 22.9277 21.8979 22.9277 22.1677V26.0199H24.9426V26.0233ZM13.4952 17.6461V14.2515L10.6333 18.0012C10.6333 18.0012 10.4421 18.2779 10.2543 18.4008C10.1143 18.493 9.80006 18.5681 9.6054 18.5681H5.27165C4.74232 18.5681 4.00807 18.6706 3.52996 19.1555C3.18845 19.5039 3.00745 20.0093 3.00745 20.6172L3.06209 26.0233H5.08041V22.1711C5.08041 21.9013 5.30581 21.6827 5.58243 21.6827C5.85905 21.6827 6.08445 21.9013 6.08445 22.1711V26.0233H11.0227L10.9885 23.0795H10.9783V22.195L10.9714 21.6076C10.9714 21.5222 10.9749 21.4402 10.9749 21.3583V21.2148C10.9749 21.2046 10.9783 21.1943 10.9783 21.1841V19.2238C10.9783 18.9541 11.2037 18.7355 11.4803 18.7355C11.7569 18.7355 11.9823 18.9541 11.9823 19.2238V19.7498L13.502 17.8066V17.6461H13.4952ZM25.1953 18.4794C25.7212 19.0121 26.0012 19.7498 26.0012 20.6172L25.9398 26.6892C25.9398 26.86 25.7998 27 25.6222 27H16.2887C16.1146 27 15.9711 26.86 15.9711 26.6892L16.0258 22.2018V21.3583L14.0006 18.7696L11.9789 21.3549V22.195L12.0335 26.6858C12.0335 26.8566 11.8901 26.9966 11.7159 26.9966H2.37907C2.20491 26.9966 2.05806 26.8566 2.05806 26.6858L2 20.6138C2 19.7464 2.27662 19.0087 2.80255 18.4759C3.37628 17.8954 4.23005 17.588 5.26824 17.588H8.69016C9.02484 17.588 9.34927 17.5641 9.63272 17.4241C9.80689 17.3387 10.1552 16.987 10.1552 16.987L13.5908 12.4859L13.5942 12.479C13.6181 12.4483 13.6455 12.4244 13.6728 12.4005C13.7206 12.3595 13.7718 12.3288 13.8367 12.3049C13.8401 12.3049 13.864 12.2946 13.8674 12.2946C13.9016 12.2844 13.9528 12.2844 14.0075 12.2844C14.0553 12.2844 14.1065 12.2912 14.1509 12.3049L14.1645 12.3083C14.1645 12.3083 14.2636 12.3459 14.3011 12.38C14.3387 12.4073 14.3729 12.4381 14.4002 12.4722L14.4036 12.479C14.407 12.4825 14.407 12.4825 14.4104 12.4825L14.4138 12.4893V12.4927L17.846 16.9904C17.846 16.9904 18.1978 17.3421 18.3685 17.4275C18.652 17.5675 18.9798 17.5914 19.3111 17.5914H22.7296C23.7712 17.5914 24.625 17.8988 25.1953 18.4794ZM19.656 12.3356C19.3623 12.6122 19.212 13.063 19.212 13.6812C19.212 14.2959 19.3623 14.7501 19.6526 15.0199C19.9395 15.2862 20.3971 15.4194 21.0186 15.4194C21.6402 15.4194 22.0944 15.2862 22.3778 15.0199C22.6681 14.7467 22.815 14.2959 22.815 13.6777C22.815 13.0596 22.6681 12.6054 22.3744 12.3322C22.091 12.0658 21.6333 11.9292 21.0152 11.9292C20.4005 11.9292 19.9429 12.0658 19.656 12.3356ZM18.9627 15.7268C18.4641 15.2623 18.208 14.5725 18.208 13.6777C18.208 12.783 18.4607 12.0931 18.9627 11.6253C19.4409 11.1779 20.1341 10.9491 21.0186 10.9491C21.9031 10.9491 22.5964 11.1745 23.0745 11.6253C23.5697 12.0897 23.8224 12.7796 23.8224 13.6743C23.8224 14.5691 23.5697 15.2589 23.0745 15.7234C22.5964 16.1708 21.9066 16.3962 21.0186 16.3962C20.1341 16.3996 19.4409 16.1742 18.9627 15.7268Z" fill="#86888C"/>
</svg>
