<svg width="20" height="20" viewBox="0 0 20 20" fill="none" xmlns="http://www.w3.org/2000/svg">
<path fill-rule="evenodd" clip-rule="evenodd" d="M13.3414 12.1399C13.305 12.1376 13.2686 12.1422 13.2321 12.1513C12.1803 12.486 10.935 11.9464 9.5303 10.5394C8.13244 9.14156 7.63613 7.60255 7.96397 6.55529C7.9799 6.50065 8.69477 5.78578 10.1063 4.41069C10.1791 4.32645 10.2611 4.25132 10.3431 4.17164L10.4819 4.03504C11.3926 3.12666 12.3078 2.67133 13.223 2.67133C14.1382 2.67133 15.0534 3.12666 15.9618 4.03504C17.7536 5.82676 17.7809 7.64125 16.0483 9.4307L13.3414 12.1399ZM9.51664 15.9647L9.45062 16.0307C9.41874 16.0671 9.38232 16.1013 9.34589 16.1331C7.58832 17.7792 5.80343 17.7222 4.03902 15.9601C2.21998 14.1411 2.21771 12.2993 4.03219 10.4848L4.17107 10.3391C4.24848 10.2571 4.32361 10.1774 4.42378 10.0909L7.1512 7.3635C7.10795 8.48589 7.73402 9.71072 9.04537 11.0221C10.2953 12.2742 11.4723 12.9094 12.5514 12.9276L9.51664 15.9647ZM10.0016 3.55694L9.8718 3.67988C9.7739 3.7755 9.67601 3.86657 9.60771 3.94853L3.96845 9.59006C3.87283 9.6743 3.77949 9.76992 3.68387 9.87009L3.5541 10.0021C1.48007 12.0762 1.48235 14.3619 3.55865 16.4382C4.59908 17.4809 5.69642 18 6.78922 18C7.81143 18 8.82909 17.5469 9.79667 16.6408C9.84903 16.5976 9.89456 16.5498 9.94237 16.4974L16.531 9.90879C18.5185 7.85753 18.4866 5.60137 16.4399 3.55922C14.3659 1.48064 12.0801 1.48064 10.0016 3.55694Z" fill="#86888C"/>
</svg>
