<svg width="28" height="28" viewBox="0 0 28 28" fill="none" xmlns="http://www.w3.org/2000/svg">
<path fill-rule="evenodd" clip-rule="evenodd" d="M19.4977 10.9079C19.3747 11.0206 19.3133 11.188 19.3406 11.3553L21.0207 22.0506L20.0509 22.5253L16.3082 14.6336C16.2399 14.4901 16.1101 14.3911 15.9565 14.3569C15.8028 14.3228 15.6423 14.3672 15.5228 14.4731C14.4232 15.4497 13.3578 16.4605 12.3299 17.5123C11.3635 18.4855 10.602 19.2539 9.21896 20.3159C9.08578 20.4183 9.01065 20.5822 9.02431 20.753L9.31116 24.4615L8.50867 24.8474L6.45292 21.3881C6.41536 21.3233 6.36072 21.2686 6.29926 21.2276L3.19173 19.1856L3.61518 18.5367L7.0676 18.7894C7.23493 18.8031 7.39884 18.728 7.49787 18.5948C8.52574 17.2664 9.30433 16.5083 10.2912 15.5487C11.1176 14.7462 12.0499 13.8379 13.3748 12.3695C13.5592 12.1612 13.5422 11.8436 13.3339 11.6592C13.2963 11.6285 13.2587 11.6012 13.2143 11.5807L5.37724 7.95751L5.99875 6.9672L16.6531 8.53462C16.8136 8.55511 16.9809 8.50047 17.0902 8.38095C18.743 6.59498 21.2973 3.85626 21.5534 3.62747C22.0383 3.19036 22.5301 2.9923 22.9979 3.00596C23.4726 3.02987 23.9336 3.2894 24.3707 3.77431C25.2449 4.74413 25.1937 5.72077 24.2238 6.59498C23.8858 6.8989 19.4977 10.9079 19.4977 10.9079ZM25.1151 3.10499C24.5039 2.42544 23.7902 2.04639 23.0526 2.00541C22.3115 1.95419 21.5637 2.26835 20.8875 2.87961C20.546 3.18695 17.401 6.57449 16.5404 7.50675L5.82459 5.92908C5.62994 5.90518 5.43871 5.99396 5.32944 6.15788L4.22985 7.90628C4.08301 8.13849 4.15131 8.44583 4.38352 8.59608C4.40401 8.60974 4.4245 8.61999 4.44499 8.63023L12.1762 12.2056C11.343 13.1071 10.4825 13.9847 9.59459 14.835C8.6316 15.7707 7.85985 16.5186 6.87295 17.7752L3.39321 17.5225C3.21222 17.5089 3.03807 17.5942 2.93904 17.7479L2.08191 19.0558C1.93165 19.288 1.99312 19.5953 2.22533 19.749L5.65385 22.0028L7.88375 25.7557C8.01693 25.9777 8.29695 26.0631 8.52916 25.9504L10.0522 25.2162C10.2366 25.1274 10.3493 24.9328 10.3322 24.7279L10.0419 20.9442C11.343 19.9266 12.0977 19.1685 13.0402 18.2192C13.7368 17.5157 14.5154 16.7303 15.6901 15.6683L19.3679 23.4132C19.4874 23.6624 19.7845 23.7683 20.0338 23.6522C20.0338 23.6522 20.0372 23.6522 20.0372 23.6488L21.7959 22.7882C21.9939 22.6926 22.1032 22.4775 22.0691 22.2589L20.3719 11.4646C21.229 10.6791 24.5961 7.60578 24.8932 7.33942C26.2864 6.08275 26.3684 4.49826 25.1151 3.10499Z" fill="#86888C"/>
</svg>
