<svg width="28" height="28" viewBox="0 0 28 28" fill="none" xmlns="http://www.w3.org/2000/svg">
<path d="M13.9983 26C6.15089 26 2 21.8525 2 14.0017C2 6.15089 6.14747 2 13.9983 2C17.828 2 20.7969 2.99075 22.8262 4.94833C24.9307 6.97765 26 10.0251 26 14.0017C26.0034 21.8491 21.8525 26 13.9983 26ZM13.9983 2.68327C6.49253 2.68327 2.68327 6.49253 2.68327 14.0017C2.68327 21.5075 6.48911 25.3167 13.9983 25.3167C21.5109 25.3167 25.3167 21.5109 25.3167 14.0017C25.3201 6.48911 21.5109 2.68327 13.9983 2.68327Z" fill="#86888C"/>
<path d="M10.2879 19.2765C10.2333 19.2765 10.1786 19.2628 10.1308 19.2355C10.0317 19.1774 9.97363 19.0749 9.97363 18.9622V8.92148C9.97363 8.80874 10.0351 8.70283 10.1308 8.64817C10.2299 8.59009 10.3494 8.59009 10.4485 8.64817L19.1432 13.6668C19.2422 13.7249 19.3003 13.8274 19.3003 13.9401C19.3003 14.0529 19.2388 14.1588 19.1432 14.2134L10.4451 19.2355C10.3973 19.2628 10.3426 19.2765 10.2879 19.2765ZM10.6057 9.47152V18.4122L18.3472 13.9435L10.6057 9.47152Z" fill="#86888C"/>
</svg>
