<svg width="40" height="40" viewBox="0 0 40 40" fill="none" xmlns="http://www.w3.org/2000/svg">
<path fill-rule="evenodd" clip-rule="evenodd" d="M20.7479 2H19.0831C2.8247 2.14855 2 16.9983 2 20C2 23.0017 2.8247 37.79 19.206 38H20.8093C23.6881 38 38 36.8475 38 20C38 3.15253 23.6318 2.0922 20.7479 2ZM20.7479 36.4991H19.247C15.4974 36.4991 3.49573 35.1212 3.49573 20C3.49573 4.87877 15.4974 3.50085 19.0985 3.50085H20.7171C24.4974 3.6033 36.4991 5.00171 36.4991 20C36.4991 34.9983 24.5026 36.4991 20.794 36.4991H20.7479ZM14.4371 13.0539C12.1577 13.0539 9.50428 14.2679 9.50428 19.9998C9.50428 24.6048 11.1844 26.9458 14.4986 26.9458C16.7627 26.9458 19.4622 25.7318 19.4622 19.9998C19.4622 14.2679 16.7012 13.0539 14.4371 13.0539ZM14.4371 25.2964C12.9363 25.2964 11.1537 24.697 11.1537 20.0306C11.1537 15.3641 12.9107 14.7187 14.4371 14.7187C15.9687 14.7187 17.7052 15.318 17.7052 20.0306C17.7052 24.7431 15.9482 25.2964 14.4371 25.2964ZM29.5072 13.295H30.0194H30.0553C30.3524 13.3002 30.588 13.5512 30.5778 13.8483V26.1676C30.5778 26.4749 30.3319 26.7208 30.0245 26.7208H29.6045C29.415 26.7208 29.2408 26.6234 29.1384 26.4647L22.761 16.8039V26.1471C22.761 26.4595 22.5049 26.7156 22.1924 26.7156H21.6801C21.3728 26.7105 21.1269 26.4544 21.1269 26.1471V13.8483C21.1269 13.546 21.3728 13.295 21.6801 13.295H22.0848C22.2692 13.295 22.4434 13.3821 22.551 13.5358L28.9949 23.2068V13.8483C28.9949 13.5614 29.2203 13.3207 29.5072 13.295Z" fill="#86888C"/>
</svg>
