<svg width="20" height="20" viewBox="0 0 20 20" fill="none" xmlns="http://www.w3.org/2000/svg">
<path fill-rule="evenodd" clip-rule="evenodd" d="M10.3324 2H9.59249C2.36653 2.06602 2 8.66591 2 10C2 11.3341 2.36653 17.9067 9.64713 18H10.3597C11.6392 18 18 17.4878 18 10C18 2.51224 11.6141 2.04098 10.3324 2ZM10.3324 17.333H9.66534C7.99886 17.333 2.66477 16.7205 2.66477 10C2.66477 3.27945 7.99886 2.66705 9.59932 2.66705H10.3187C11.9989 2.71258 17.333 3.33409 17.333 10C17.333 16.6659 12.0011 17.333 10.3529 17.333H10.3324ZM7.52761 6.91284C6.51452 6.91284 5.33524 7.4524 5.33524 9.99992C5.33524 12.0466 6.08196 13.087 7.55493 13.087C8.56119 13.087 9.76096 12.5474 9.76096 9.99992C9.76096 7.4524 8.53387 6.91284 7.52761 6.91284ZM7.52761 12.3539C6.86056 12.3539 6.0683 12.0876 6.0683 10.0136C6.0683 7.93959 6.84918 7.65274 7.52761 7.65274C8.20831 7.65274 8.98008 7.9191 8.98008 10.0136C8.98008 12.1081 8.19921 12.3539 7.52761 12.3539ZM14.2254 7.02002H14.4531H14.469C14.6011 7.0223 14.7058 7.13385 14.7012 7.26589V12.7411C14.7012 12.8777 14.5919 12.987 14.4554 12.987H14.2687C14.1844 12.987 14.107 12.9438 14.0615 12.8732L11.2271 8.5795V12.732C11.2271 12.8709 11.1133 12.9847 10.9744 12.9847H10.7467C10.6101 12.9825 10.5009 12.8686 10.5009 12.732V7.26589C10.5009 7.13157 10.6101 7.02002 10.7467 7.02002H10.9266C11.0085 7.02002 11.0859 7.05872 11.1338 7.12702L13.9977 11.4253V7.26589C13.9977 7.1384 14.0979 7.0314 14.2254 7.02002Z" fill="#86888C"/>
</svg>
