<svg width="40" height="40" viewBox="0 0 40 40" fill="none" xmlns="http://www.w3.org/2000/svg">
<path fill-rule="evenodd" clip-rule="evenodd" d="M28.9556 13.7507C28.9556 17.5208 27.6391 20.2459 25.0472 21.8389C24.8218 21.9772 24.6835 22.218 24.6835 22.4843V25.235C24.6835 25.9675 24.494 26.5054 24.115 26.8486C23.741 27.1918 23.1519 27.3659 22.3682 27.3659H16.1702C15.3813 27.3659 14.7923 27.1918 14.3978 26.8383C14.0085 26.5003 13.8139 25.9624 13.8139 25.2402V22.4997C13.8139 22.2333 13.6756 21.9875 13.4502 21.8543C10.8634 20.2715 9.54695 17.5259 9.54695 13.6175C9.54695 13.4741 9.66477 13.3512 9.81844 13.3512L28.6943 13.3614C28.8429 13.3614 28.9658 13.4792 28.9658 13.6278C28.9556 13.6226 28.9556 13.7507 28.9556 13.7507ZM17.7479 36.4786H20.7496V28.8822H17.7479V36.4786ZM12.6101 4.61241C12.6101 4.01309 13.107 3.52134 13.7114 3.52134C14.321 3.52134 14.8179 4.01309 14.8179 4.61241V11.8298H12.6101V4.61241ZM23.4029 4.61241C23.4029 4.01309 23.8998 3.52134 24.5043 3.52134C25.1138 3.52134 25.6107 4.01309 25.6107 4.61241V11.8349H23.4081L23.4029 4.61241ZM28.6892 11.8349H27.1525V4.61241C27.1525 3.17302 25.9692 2 24.5043 2C23.0495 2 21.8611 3.1679 21.8611 4.61241V11.8349L16.3597 11.8298V4.61241C16.3597 3.17302 15.1764 2 13.7114 2C12.2516 2 11.0683 3.1679 11.0683 4.61241V11.8298H9.81332C8.81446 11.8298 8 12.6289 8 13.6944C8 18.8526 10.2436 21.5367 12.2721 22.9095V25.235C12.2721 26.4029 12.6562 27.3506 13.3682 27.9653C14.0393 28.5748 14.9818 28.8822 16.1753 28.8822H16.2111V36.6118C16.2111 37.375 16.8412 38 17.6198 38H20.8879C21.6613 38.0051 22.2914 37.3853 22.2965 36.6118V28.8822H22.3785C23.5617 28.8822 24.4991 28.5748 25.165 27.9653C25.8668 27.3403 26.2356 26.3927 26.2356 25.2299V22.889C28.2641 21.5111 30.5077 18.8423 30.5077 13.7456V13.6175C30.4974 12.6391 29.6881 11.8349 28.6892 11.8349Z" fill="#86888C"/>
</svg>
