<svg width="20" height="20" viewBox="0 0 20 20" fill="none" xmlns="http://www.w3.org/2000/svg">
<path fill-rule="evenodd" clip-rule="evenodd" d="M17.3028 9.59403C17.3028 9.88083 17.098 10.0971 16.9637 10.0971H10.299V6.66002H16.9637C17.0775 6.66002 17.3028 6.88764 17.3028 7.16305V9.59403ZM16.2285 16.8232C16.2285 17.11 16.0236 17.3262 15.8893 17.3262H10.3013V10.7708H16.2285V16.8232ZM3.7208 16.8209V10.8437C3.7208 10.8163 3.7117 10.7936 3.70487 10.7685H9.60931V17.324H4.05768C3.92566 17.324 3.71852 17.1077 3.7208 16.8209ZM2.69424 9.59403V7.16078C2.69424 6.88536 2.91958 6.65774 3.03339 6.65774H9.60931V10.0948H3.03111C2.8991 10.0948 2.69424 9.87855 2.69424 9.59403ZM5.7284 3.43238C6.00382 3.02039 6.32704 2.77456 6.69123 2.69944C6.7709 2.68351 6.85056 2.67668 6.93251 2.67668C7.22841 2.67668 7.5448 2.78139 7.87712 2.9908C8.59868 3.44603 9.28153 5.03026 9.54785 5.84059C8.69883 5.93163 6.91202 5.97716 6.18591 5.51964C5.76254 5.25333 5.50761 4.93694 5.4325 4.58641C5.35511 4.23132 5.45298 3.84437 5.7284 3.43238ZM12.0721 2.98852C12.4955 2.71993 12.8938 2.62205 13.258 2.69944C13.6222 2.77456 13.9454 3.02039 14.2209 3.43238C14.774 4.25864 14.6169 4.97791 13.7656 5.51737C13.0395 5.97716 11.255 5.93164 10.4037 5.83831C10.6677 5.02799 11.3483 3.44604 12.0721 2.98852ZM16.966 5.98626H14.2709C14.7672 5.63801 15.0904 5.20553 15.1951 4.72298C15.3089 4.19718 15.1723 3.62358 14.799 3.06363C14.4257 2.50597 13.9409 2.15088 13.3992 2.03935C12.8597 1.92554 12.2679 2.05983 11.692 2.4263C10.934 2.9043 10.3286 4.11979 9.97122 5.01888C9.61613 4.11751 9.01067 2.9043 8.25497 2.4263C7.6791 2.06211 7.08956 1.92554 6.54783 2.03935C6.0061 2.15088 5.52127 2.50597 5.14797 3.06363C4.77468 3.6213 4.63811 4.1949 4.75191 4.72298C4.85662 5.20553 5.18211 5.63573 5.67605 5.98626H3.03111C2.49166 5.98626 2 6.54621 2 7.16078V9.59403C2 10.22 2.48255 10.7708 3.03111 10.7708H3.04022C3.03339 10.7959 3.02429 10.8186 3.02429 10.8459V16.8232C3.02429 17.4492 3.50684 18 4.05768 18H15.887C16.4356 18 16.9182 17.4514 16.9182 16.8255V10.7708H16.9637C17.5122 10.7708 17.9948 10.2223 17.9948 9.5963V7.16078C17.9971 6.54621 17.5054 5.98626 16.966 5.98626Z" fill="#86888C"/>
</svg>
