<svg width="40" height="40" viewBox="0 0 40 40" fill="none" xmlns="http://www.w3.org/2000/svg">
<path d="M11.6318 17.2667C11.4979 17.174 11.436 17.071 11.436 16.9112C11.4412 16.7051 11.6112 16.5403 11.8173 16.5454C11.9152 16.5506 12.0131 16.5815 12.0955 16.633C12.6881 17.0246 13.5125 17.4213 14.4708 17.4213C15.9032 17.4213 16.7843 16.6845 16.7843 15.5974C16.7843 14.706 16.2845 14.0722 14.646 13.8661L14.2235 13.8146C12.4768 13.5931 11.6627 12.7532 11.6627 11.4497C11.6627 9.89878 12.7654 8.94043 14.4605 8.94043C15.4086 8.94043 16.2072 9.18775 16.7585 9.53296C16.9285 9.63601 17.0058 9.76997 17.0058 9.89878C17.0058 10.0946 16.8512 10.2543 16.6554 10.2543H16.6503C16.5575 10.2491 16.47 10.2234 16.3875 10.177C15.7847 9.84726 15.1509 9.65146 14.4296 9.65146C13.1312 9.65146 12.4047 10.3728 12.4047 11.3827C12.4047 12.2998 12.9715 12.8923 14.5069 13.0881L14.9139 13.1397C16.6864 13.3612 17.5262 14.2011 17.5262 15.5407C17.5262 17.0503 16.4493 18.1272 14.3729 18.1272C13.394 18.1221 12.4356 17.8232 11.6318 17.2667Z" fill="#86888C"/>
<path d="M14.3774 18.3895C13.3418 18.3792 12.337 18.0649 11.4869 17.4775C11.2808 17.3333 11.1777 17.1478 11.1777 16.9108C11.1829 16.5604 11.4663 16.2822 11.8166 16.2873C11.9661 16.2925 12.1103 16.3389 12.234 16.4213C12.9759 16.9159 13.7282 17.1684 14.465 17.1684C15.7325 17.1684 16.5208 16.5656 16.5208 15.6021C16.5208 14.9941 16.2941 14.3397 14.6041 14.1233L14.1868 14.0718C11.8836 13.7781 11.3993 12.4848 11.3993 11.4544C11.3993 9.77466 12.5998 8.6875 14.4547 8.6875C15.3667 8.6875 16.2323 8.90905 16.8866 9.3161C17.1236 9.46552 17.2576 9.67161 17.2576 9.90347C17.2576 10.2435 16.9845 10.5166 16.6445 10.5166C16.5105 10.5115 16.3817 10.4754 16.2683 10.4084L16.2632 10.4033C15.6449 10.0684 15.0627 9.90862 14.4289 9.90862C13.3263 9.90862 12.6616 10.4599 12.6616 11.3822C12.6616 12.4488 13.6097 12.7167 14.5371 12.8352L14.9442 12.8867C16.2374 13.0516 17.7831 13.6441 17.7831 15.5454C17.7831 17.3024 16.4796 18.3895 14.3774 18.3895ZM11.7806 17.055C12.5431 17.5806 13.45 17.8691 14.3774 17.8743C16.191 17.8743 17.2731 17.0035 17.2731 15.5454C17.2731 14.3036 16.4899 13.5978 14.8875 13.3968L14.4804 13.3453C12.9141 13.1443 12.1567 12.5003 12.1567 11.3822C12.1567 10.1714 13.0532 9.39338 14.4392 9.39338C15.1503 9.39338 15.8252 9.57372 16.5156 9.94984C16.562 9.97561 16.6084 9.99106 16.6599 10.0014C16.7114 10.0014 16.7578 9.96015 16.7578 9.90862V9.90347C16.7578 9.8571 16.7114 9.80558 16.629 9.75405C16.0519 9.39853 15.2842 9.20274 14.465 9.20274C12.8986 9.20274 11.9248 10.0632 11.9248 11.4544C11.9248 12.6703 12.6874 13.3607 14.2589 13.5617L14.6762 13.6132C16.2889 13.8193 17.0412 14.4531 17.0412 15.6021C17.0412 16.2203 16.7939 16.751 16.325 17.122C15.8664 17.4878 15.2275 17.6836 14.4701 17.6836C13.6251 17.6836 12.775 17.4054 11.9506 16.8541C11.9094 16.8283 11.863 16.8129 11.8166 16.8077C11.7548 16.8077 11.6981 16.8541 11.693 16.9159C11.6878 16.9674 11.6981 17.0035 11.7806 17.055Z" fill="#86888C"/>
<path d="M14.5633 22.1513C11.8377 22.1513 9.72005 21.4403 8.27222 20.044C6.76256 18.591 6 16.4167 6 13.5829C6 10.749 6.76256 8.57986 8.26707 7.12687C9.72005 5.72541 11.8377 5.01953 14.5582 5.01953C17.2787 5.01953 19.4015 5.73057 20.8493 7.12687C22.3538 8.57986 23.1215 10.7542 23.1215 13.5829C23.1215 16.4115 22.359 18.591 20.8493 20.0389C19.4066 21.4403 17.289 22.1513 14.5633 22.1513ZM14.5633 6.04486C12.1159 6.04486 10.2353 6.658 8.98325 7.86367C7.68484 9.11571 7.03049 11.0376 7.03049 13.5777C7.03049 16.1179 7.69 18.0449 8.98325 19.2918C10.2353 20.4974 12.1108 21.1106 14.5633 21.1106C17.0159 21.1106 18.8914 20.4974 20.1434 19.2918C21.4418 18.0397 22.0962 16.1179 22.0962 13.5777C22.0962 11.0376 21.4367 9.11056 20.1434 7.86367C18.8862 6.658 17.0107 6.05002 14.5633 6.04486Z" fill="#86888C"/>
<path d="M14.5641 19.5186C14.2807 19.5186 14.0488 19.2868 14.0488 19.0034V8.06993C14.0488 7.78655 14.2807 7.55469 14.5641 7.55469C14.8475 7.55469 15.0793 7.78655 15.0793 8.06993V19.0034C15.0793 19.2868 14.8475 19.5186 14.5641 19.5186Z" fill="#86888C"/>
<path d="M21.5969 38C21.3238 38 21.061 37.8918 20.8652 37.696L8.53033 25.3663C8.17481 25.0107 8.25725 24.6758 8.31393 24.547C8.3706 24.4182 8.54579 24.1194 9.05072 24.1194H14.0486V21.6204C14.0486 21.3371 14.2804 21.1052 14.5638 21.1052C14.8472 21.1052 15.0791 21.3371 15.0791 21.6204V24.1194C15.0791 24.6861 14.6153 25.1498 14.0486 25.1498H9.78237L21.5969 36.9644L33.4114 25.1498H29.1452C28.5784 25.1498 28.1147 24.6861 28.1147 24.1194V4.03521C28.1147 3.32417 27.8262 3.03564 27.11 3.03564H16.058C15.347 3.03564 15.0791 3.30872 15.0791 4.04036V5.55002C15.0791 5.83341 14.8472 6.06526 14.5638 6.06526C14.2804 6.06526 14.0486 5.83341 14.0486 5.55002V4.03521C14.0486 2.74195 14.7802 2 16.058 2H27.11C28.4084 2 29.1503 2.74195 29.1503 4.03521V24.1194H34.1482C34.6531 24.1194 34.8283 24.4182 34.885 24.547C34.9417 24.6758 35.0241 25.0107 34.6686 25.3663L22.3234 37.696C22.1327 37.8918 21.87 38 21.5969 38Z" fill="#86888C"/>
</svg>
