<svg width="24" height="24" viewBox="0 0 24 24" fill="none" xmlns="http://www.w3.org/2000/svg">
<path fill-rule="evenodd" clip-rule="evenodd" d="M12.4326 22.1577C14.4815 22.115 21.1662 21.3523 21.1662 13.0256C21.1662 4.69892 14.4502 3.89072 12.3927 3.84234C12.1167 3.83381 11.7923 3.83381 11.502 3.83381C9.47012 3.85088 2.83381 4.56517 2.83381 12.9659C2.83381 21.3836 9.5185 22.1349 11.5674 22.1577C11.8606 22.1662 12.1736 22.1577 12.4326 22.1577ZM12.4069 3.00854C14.0148 3.05122 22 3.71713 22 13.0256C22 22.3426 14.0404 22.9602 12.4496 22.9915C12.2675 22.9915 12.0569 23 11.8492 23C11.7496 23 11.65 23 11.5589 22.9915C2.4667 22.8662 2 14.6135 2 12.9659C2 11.3182 2.45817 3.08253 11.4906 3H11.7666C11.9829 3 12.2163 3 12.4069 3.00854ZM11.5845 17.9289C11.9858 17.9289 12.2419 18.1878 12.2419 18.5948V18.6602C12.2419 19.0501 11.9829 19.309 11.5845 19.309C11.1434 19.309 10.8845 19.0501 10.8845 18.6602V18.5948C10.8845 18.1878 11.1434 17.9289 11.5418 17.9289H11.5845ZM14.1571 7.45361C14.8315 7.94593 15.1417 8.61184 15.1417 9.60216C15.1417 10.8088 14.6494 11.5088 13.4513 12.9317C12.0683 14.5225 11.9602 14.6562 11.9602 16.2385C11.9602 16.3523 11.8691 16.4462 11.7524 16.4462H11.2971C11.1975 16.4462 11.115 16.3808 11.0894 16.2783C11.0552 16.0962 11.0381 15.9027 11.0381 15.6608C11.0381 14.6961 11.3142 14.0785 12.2703 12.9374L12.4439 12.7297C13.918 10.9909 14.2168 10.4559 14.2168 9.58224C14.2168 8.93341 14.0262 8.49801 13.5851 8.14798C13.3347 7.94878 12.8936 7.71542 11.7695 7.71542C11.1861 7.71542 10.654 7.78941 9.98805 7.94878C9.93113 7.96585 9.87137 7.95731 9.82015 7.92316C9.77746 7.88902 9.74616 7.84064 9.72908 7.78941L9.66363 7.43085C9.64656 7.33125 9.69778 7.24018 9.78885 7.1975C10.1559 7.0296 11.095 6.84747 11.9715 6.84747C12.8993 6.85316 13.6335 7.05521 14.1571 7.45361Z" fill="#86888C"/>
</svg>
