<svg width="28" height="28" viewBox="0 0 28 28" fill="none" xmlns="http://www.w3.org/2000/svg">
<path fill-rule="evenodd" clip-rule="evenodd" d="M25.5849 2.05649C25.3185 1.94722 25.0078 1.99844 24.7961 2.19309L21.3608 5.45083C19.2538 3.83903 16.6415 2.97167 13.954 2.99216C7.90975 2.98191 2.81483 7.32899 2.08747 13.1137C1.36011 18.8984 5.23935 24.2939 11.1094 25.67C16.9795 27.0462 22.993 23.9729 25.1068 18.5126C25.24 18.1642 25.059 17.7749 24.697 17.6418C24.5229 17.5769 24.3248 17.5803 24.1541 17.6554C23.9833 17.7306 23.8468 17.8671 23.7819 18.0379C22.1871 22.1323 18.0484 24.7788 13.5169 24.6012C8.98542 24.4236 5.08227 21.4595 3.84269 17.2559C2.59969 13.0488 4.29686 8.54808 8.04976 6.09623C11.8027 3.64439 16.7678 3.78781 20.3602 6.45821L17.1913 9.4735C16.9829 9.66473 16.9181 9.96182 17.0273 10.2179C17.1366 10.474 17.3961 10.6414 17.683 10.6414L24.8951 10.2077C25.2502 10.1872 25.5371 9.91401 25.5576 9.56912L25.9947 2.78044C26.0322 2.47652 25.8683 2.18626 25.5849 2.05649Z" fill="#86888C"/>
</svg>
