<svg width="40" height="40" viewBox="0 0 40 40" fill="none" xmlns="http://www.w3.org/2000/svg">
<path fill-rule="evenodd" clip-rule="evenodd" d="M36.1931 30.4599C36.5158 30.1372 36.5158 29.6147 36.1931 29.292L29.8463 22.94L27.1006 25.6345C26.7932 25.9367 26.3015 25.9367 25.9992 25.6294L25.9941 25.6242C25.6919 25.3169 25.697 24.82 26.0043 24.5178L28.7398 21.8284L25.9839 19.0674L21.8448 23.2013C21.5375 23.5086 21.0406 23.5086 20.7384 23.2013C20.431 22.8939 20.431 22.397 20.7384 22.0948L24.8723 17.9558L22.1215 15.205L19.6831 17.6075C19.3758 17.9097 18.8789 17.9046 18.5766 17.5972C18.2744 17.2899 18.2744 16.7981 18.5818 16.4907L18.5869 16.4856L21.015 14.0985L18.259 11.3426L13.6744 15.9324C13.367 16.2397 12.8701 16.2397 12.5679 15.9324C12.2605 15.625 12.2605 15.1281 12.5679 14.8259L17.1526 10.2412L14.3966 7.48018L12.112 9.72898C11.8046 10.0312 11.3077 10.0261 11.0004 9.71873C10.6982 9.41138 10.7033 8.91449 11.0106 8.60714L13.2902 6.36858L10.8057 3.88415C10.483 3.56142 9.96052 3.56143 9.6378 3.87902L9.63267 3.88415L3.80834 9.71361C3.48561 10.0363 3.48561 10.564 3.80834 10.8867L29.1957 36.2894C29.5184 36.607 30.0409 36.607 30.3636 36.2894L36.1931 30.4599ZM37.2996 28.1753C37.7504 28.6261 38.0014 29.2305 38.0014 29.8708C38.0014 30.5112 37.7555 31.1156 37.2996 31.5664L31.4752 37.3959C31.0244 37.8466 30.42 38.0977 29.7797 38.0977C29.1393 38.0977 28.54 37.8518 28.0892 37.3959L2.70186 11.9931C2.25108 11.5475 1.99495 10.9379 2.00008 10.3027C2.00008 9.66238 2.24596 9.06304 2.70186 8.60714L8.5262 2.77767C9.42777 1.87098 11.0106 1.87098 11.9122 2.77767L37.2996 28.1753ZM30.9527 30.5163C31.214 30.0553 31.0603 29.4662 30.5993 29.1998C30.1434 28.9334 29.5543 29.0922 29.293 29.5481C29.293 29.5481 29.293 29.5532 29.2879 29.5532C29.0215 30.0143 29.1803 30.5982 29.6362 30.8646C30.1024 31.1361 30.6864 30.9722 30.9527 30.5163ZM31.1884 28.1804C32.2129 28.7695 32.5663 30.0757 31.9824 31.1003C31.3933 32.1248 30.087 32.4782 29.0625 31.8942C28.5656 31.6125 28.207 31.1412 28.0585 30.588C27.9099 30.0399 27.9868 29.4559 28.2736 28.9641C28.8627 27.9448 30.1639 27.5913 31.1832 28.1753C31.1832 28.1804 31.1832 28.1804 31.1884 28.1804Z" fill="#86888C"/>
</svg>
