<svg width="24" height="24" viewBox="0 0 24 24" fill="none" xmlns="http://www.w3.org/2000/svg">
<path fill-rule="evenodd" clip-rule="evenodd" d="M14.8332 20.8429L14.173 17.6502C15.4763 17.249 16.9958 16.3271 17.6388 14.247L20.8429 14.9072C19.9067 18.8226 17.0754 20.2965 14.8332 20.8429ZM12.443 21.1616C12.147 21.1672 11.8511 21.1672 11.5552 21.1644C11.0288 21.153 10.5023 21.1046 9.98161 21.0193L10.6361 17.8522C11.0601 17.9262 11.4869 17.9632 11.9165 17.9632C12.0417 17.9632 12.1669 17.9604 12.2751 17.9604C12.6421 17.9518 13.0064 17.912 13.3677 17.8466L14.0222 21.0164C13.3791 21.1189 12.8271 21.153 12.443 21.1616ZM3.16381 14.9072L6.34791 14.2499C6.91986 16.1136 8.1861 17.0498 9.37837 17.5108C9.52918 17.5677 9.6743 17.6104 9.82226 17.6531L9.16211 20.8514C8.30846 20.6437 7.35806 20.3108 6.46173 19.7445C4.76297 18.6746 3.6703 17.047 3.16381 14.9072ZM2.976 10.0328L6.14019 10.6873C6.08044 11.0885 6.03776 11.5096 6.03776 11.9791C6.03776 12.5169 6.09467 12.9893 6.17149 13.436L3.0073 14.0905C2.89349 13.3877 2.83658 12.6763 2.83658 11.9649C2.83373 11.282 2.89064 10.6446 2.976 10.0328ZM6.42759 4.22233C7.32676 3.65608 8.27716 3.326 9.13365 3.12682L9.79665 6.32515C8.46781 6.72637 6.9227 7.67391 6.31377 9.87348L3.11543 9.21333C3.59632 6.98815 4.69753 5.31215 6.42759 4.22233ZM11.4783 2.83373H11.6491C11.9023 2.83373 12.1669 2.83658 12.3946 2.84227C12.7503 2.8508 13.3393 2.89349 14.0364 3.01584L13.3848 6.17149C13.0092 6.10036 12.6279 6.05767 12.2438 6.04345C12.1043 6.0406 11.945 6.03776 11.7913 6.03776H11.6804C11.319 6.04345 10.9576 6.07759 10.5991 6.13735L9.94462 2.96178C10.5962 2.86218 11.1397 2.83658 11.4783 2.83373ZM12.2552 17.1238C12.1527 17.1266 12.0332 17.1266 11.9137 17.1266H11.7401C11.0373 17.1153 10.3401 16.9815 9.68283 16.734C7.81903 16.0112 6.87149 14.412 6.87149 11.9791C6.87149 7.40644 10.2434 6.88002 11.6946 6.86864H11.7999C11.9478 6.86864 12.1015 6.87149 12.2324 6.87149C13.7064 6.90848 17.1323 7.48042 17.1323 12.0133C17.1266 16.5462 13.7206 17.0982 12.2552 17.1238ZM20.8571 9.21902L17.6673 9.87633C17.047 7.74505 15.5161 6.79181 14.1929 6.37352L14.8502 3.19511C15.6897 3.40852 16.6145 3.74429 17.4966 4.29631C19.2437 5.38614 20.3591 7.04221 20.8571 9.21902ZM17.8494 10.6901L21.0079 10.0357C21.1018 10.6645 21.1644 11.319 21.1644 12.0247C21.1644 12.7816 21.0933 13.4531 20.9908 14.0905L17.8323 13.4389C17.9177 12.9694 17.9604 12.4913 17.9604 12.0161C17.9604 11.5296 17.9148 11.097 17.8494 10.6901ZM12.4174 2.01138C12.1812 2.00569 11.9109 2 11.6491 2H11.4698C9.46373 2.01707 2 2.70568 2 11.9678C2 21.2412 9.53202 21.9697 11.5409 21.9981C11.8454 22.001 12.1499 22.001 12.4572 21.9953C14.3665 21.9611 22.001 21.2441 22.001 12.0275C21.9981 2.83088 14.3751 2.05691 12.4174 2.01138Z" fill="#86888C"/>
</svg>
