<svg width="20" height="20" viewBox="0 0 20 20" fill="none" xmlns="http://www.w3.org/2000/svg">
<path fill-rule="evenodd" clip-rule="evenodd" d="M2 8.35825C2 11.8577 4.83594 14.6937 8.33542 14.6937C9.93813 14.698 11.4808 14.0897 12.6494 12.9971L17.5863 17.9318C17.6295 17.975 17.6863 18 17.7477 18C17.809 18 17.8658 17.975 17.909 17.9318C17.9953 17.8432 17.9953 17.7 17.9067 17.6114L12.9704 12.6773C15.3241 10.1822 15.2663 6.25224 12.8143 3.82937C10.326 1.37065 6.31527 1.39337 3.85427 3.87937C2.66808 5.06783 2 6.67895 2 8.35825ZM2.45448 8.35825C2.45448 5.111 5.08818 2.47957 8.33542 2.47957C9.89428 2.47503 11.3918 3.09539 12.4916 4.20205C14.789 6.49716 14.7867 10.2193 12.4916 12.5167C10.1965 14.8141 6.47206 14.8141 4.17695 12.5167C3.07484 11.4123 2.45448 9.91711 2.45448 8.35825Z" fill="#86888C"/>
</svg>
