<svg width="40" height="40" viewBox="0 0 40 40" fill="none" xmlns="http://www.w3.org/2000/svg">
<path d="M34.5819 32H5.41808C3.53224 32 2 30.443 2 28.5268V24.7724C2 22.8562 3.53224 21.2992 5.41808 21.2992H18.2602C18.5421 21.2992 18.7727 21.5335 18.7727 21.8199C18.7727 22.1063 18.5421 22.3406 18.2602 22.3406H5.41808C4.09594 22.3406 3.02491 23.4289 3.02491 24.7724V28.5268C3.02491 29.8703 4.09594 30.9586 5.41808 30.9586H34.5819C35.9041 30.9586 36.9751 29.8703 36.9751 28.5268V24.7724C36.9751 23.4289 35.9041 22.3406 34.5819 22.3406H30.8564C30.5745 22.3406 30.3439 22.1063 30.3439 21.8199C30.3439 21.5335 30.5745 21.2992 30.8564 21.2992H34.5819C36.4678 21.2992 38 22.8562 38 24.7724V28.5268C38 30.443 36.4678 32 34.5819 32Z" fill="#86888C"/>
<path d="M6.87859 29.1829C7.33992 29.1829 7.7139 28.8029 7.7139 28.3341C7.7139 27.8654 7.33992 27.4854 6.87859 27.4854C6.41727 27.4854 6.04329 27.8654 6.04329 28.3341C6.04329 28.8029 6.41727 29.1829 6.87859 29.1829Z" fill="#86888C"/>
<path d="M9.97896 29.1829C10.4403 29.1829 10.8143 28.8029 10.8143 28.3341C10.8143 27.8654 10.4403 27.4854 9.97896 27.4854C9.51763 27.4854 9.14365 27.8654 9.14365 28.3341C9.14365 28.8029 9.51763 29.1829 9.97896 29.1829Z" fill="#86888C"/>
<path d="M12.9768 29.1829C13.4381 29.1829 13.8121 28.8029 13.8121 28.3341C13.8121 27.8654 13.4381 27.4854 12.9768 27.4854C12.5155 27.4854 12.1415 27.8654 12.1415 28.3341C12.1415 28.8029 12.5155 29.1829 12.9768 29.1829Z" fill="#86888C"/>
<path d="M33.4801 28.3341C33.4801 28.9434 32.9933 29.4381 32.3937 29.4381H27.5357C26.9361 29.4381 26.4492 28.9434 26.4492 28.3341C26.4492 27.7249 26.9361 27.2302 27.5357 27.2302H32.3937C32.9933 27.2302 33.4801 27.7249 33.4801 28.3341ZM25.4858 9.04144V11.3014C26.3673 11.4003 27.1308 11.6346 27.7611 12.02L29.1704 10.588L30.513 11.9471L29.1038 13.379C29.4779 14.0039 29.7187 14.7746 29.811 15.691H32.035V17.6177H29.811C29.7136 18.5342 29.4727 19.3048 29.1038 19.9297L30.513 21.3617L29.1704 22.7208L27.7611 21.2888C27.1308 21.6741 26.3724 21.9136 25.4858 22.0074V24.2673H23.5897V22.0074C22.7083 21.9084 21.9448 21.6741 21.3144 21.2888L19.9052 22.7208L18.5677 21.3617L19.9769 19.9297C19.6028 19.3048 19.362 18.5342 19.2697 17.6177H17.0457V15.691H19.2646C19.362 14.7746 19.6028 14.0039 19.9718 13.379L18.5677 11.9471L19.9052 10.588L21.3144 12.02C21.9448 11.6346 22.7032 11.3951 23.5897 11.3014V9.04144H25.4858ZM25.4858 8H23.5897C23.026 8 22.5648 8.46865 22.5648 9.04144V10.4213C22.2061 10.5047 21.8576 10.614 21.5194 10.7546L20.6329 9.85376C20.2332 9.4476 19.5823 9.4476 19.1826 9.85376L17.8451 11.2128C17.4454 11.619 17.4454 12.2803 17.8451 12.6865L18.7317 13.5873C18.5933 13.931 18.4806 14.2851 18.4037 14.6496H17.0457C16.482 14.6496 16.0208 15.1182 16.0208 15.691V17.6177C16.0208 18.1905 16.482 18.6591 17.0457 18.6591H18.4037C18.4857 19.0237 18.5933 19.3777 18.7317 19.7214L17.8451 20.6223C17.4454 21.0284 17.4454 21.6897 17.8451 22.0959L19.1826 23.455C19.5823 23.8611 20.2332 23.8611 20.6329 23.455L21.5194 22.5593C21.8576 22.6999 22.2061 22.8145 22.5648 22.8926V24.2725C22.5648 24.8453 23.026 25.314 23.5897 25.314H25.4858C26.0495 25.314 26.5107 24.8453 26.5107 24.2725V22.8926C26.8695 22.8093 27.2179 22.6999 27.5561 22.5593L28.4427 23.4602C28.8424 23.8664 29.4932 23.8664 29.893 23.4602L31.2356 22.1011C31.6353 21.6949 31.6353 21.0336 31.2356 20.6275L30.349 19.7266C30.4874 19.3829 30.6001 19.0289 30.677 18.6644H32.035C32.5987 18.6644 33.0599 18.1957 33.0599 17.6229V15.6962C33.0599 15.1235 32.5987 14.6548 32.035 14.6548H30.677C30.595 14.2903 30.4874 13.9362 30.349 13.5925L31.2356 12.6917C31.6353 12.2855 31.6353 11.6242 31.2356 11.2181L29.8878 9.85376C29.4881 9.4476 28.8373 9.4476 28.4376 9.85376L27.551 10.7546C27.2128 10.614 26.8643 10.4995 26.5056 10.4213V9.04144C26.5107 8.46865 26.0495 8 25.4858 8Z" fill="#86888C"/>
<path d="M24.5378 13.9518C26.2238 13.9518 27.1974 14.8058 27.1974 16.6544C27.1974 18.5029 26.2238 19.3569 24.5378 19.3569C22.8518 19.3569 21.8782 18.5029 21.8782 16.6544C21.8782 14.8058 22.8518 13.9518 24.5378 13.9518ZM24.5378 12.9104C23.4053 12.9104 22.5085 13.228 21.8628 13.8581C21.1915 14.5142 20.8532 15.4567 20.8532 16.6544C20.8532 17.852 21.1915 18.7893 21.8628 19.4506C22.5085 20.0807 23.4053 20.3984 24.5378 20.3984C25.6703 20.3984 26.5671 20.0807 27.2077 19.4506C27.879 18.7945 28.2172 17.852 28.2172 16.6544C28.2172 15.4567 27.879 14.5194 27.2077 13.8581C26.562 13.2332 25.6652 12.9104 24.5378 12.9104Z" fill="#86888C"/>
</svg>
