<svg width="24" height="24" viewBox="0 0 24 24" fill="none" xmlns="http://www.w3.org/2000/svg">
<path fill-rule="evenodd" clip-rule="evenodd" d="M11.9972 22.1662C18.0814 22.1662 21.1633 19.0842 21.1633 13.0028C21.1633 6.91861 18.0785 3.83665 11.9972 3.83665C5.91577 3.83665 2.83381 6.92146 2.83381 13.0028C2.83381 19.0842 5.91861 22.1662 11.9972 22.1662ZM11.9972 3C18.5424 3 22 6.46044 22 13.0028C22 19.5424 18.5424 23 11.9972 23C5.4576 23 2 19.5424 2 13.0028C2 6.46044 5.4576 3 11.9972 3ZM13.7928 13.5094L16.5248 10.8685L13.7928 8.21912V9.21799C13.7928 9.44849 13.5424 9.68754 13.3147 9.68754H9.21116C9.17416 9.68754 9.13717 9.70176 9.10871 9.73022C9.08025 9.75583 9.06602 9.79283 9.06602 9.83267V18.0085H11.2373V12.465C11.2373 12.2345 11.4252 12.0495 11.6528 12.0495H13.309C13.4314 12.0581 13.5481 12.1121 13.6335 12.1975C13.7131 12.2772 13.7871 12.4081 13.7871 12.5191C13.7928 12.5191 13.7928 13.5094 13.7928 13.5094ZM14.0518 7.31133L17.2248 10.3876C17.4895 10.6323 17.5065 11.045 17.2618 11.3096C17.2447 11.3295 17.2248 11.3495 17.202 11.3665L14.0803 14.3887C13.8441 14.5822 13.5709 14.6135 13.3375 14.5054C13.107 14.3973 12.9562 14.1668 12.9562 13.9106V12.8833H12.074V18.424C12.074 18.6545 11.8862 18.8395 11.6585 18.8395H8.6477C8.41719 18.8395 8.23221 18.6517 8.23221 18.424V9.82982C8.23221 9.56801 8.33466 9.32328 8.51964 9.1383C8.70461 8.95333 8.94935 8.85088 9.21116 8.85088L12.959 8.85373V7.81787C12.959 7.56175 13.1042 7.33694 13.3375 7.22595C13.5709 7.11212 13.8469 7.14627 14.0518 7.31133Z" fill="#86888C"/>
</svg>
