<svg width="28" height="28" viewBox="0 0 28 28" fill="none" xmlns="http://www.w3.org/2000/svg">
<path fill-rule="evenodd" clip-rule="evenodd" d="M9.75599 16.2586C10.4585 16.2449 12.0978 15.9819 12.0978 13.7995C12.0978 13.6424 12.091 13.4921 12.074 13.3555C11.8704 11.5692 10.3737 11.3404 9.73902 11.3267L9.4743 11.3233C8.83626 11.3302 7.33617 11.5453 7.16987 13.417C7.15969 13.5297 7.15629 13.6526 7.15629 13.7824C7.15629 15.9853 8.79553 16.2517 9.50145 16.262L9.75599 16.2586ZM13.1193 13.2325C13.1397 13.4101 13.1499 13.598 13.1499 13.7961C13.1499 16.344 11.3307 17.2798 9.76957 17.3071H9.4777C7.84185 17.2832 6.09401 16.3405 6.09401 13.779C6.09401 13.6185 6.1008 13.4682 6.11438 13.3213C6.31122 11.0911 7.97082 10.2816 9.45733 10.268L9.75939 10.2714C11.2255 10.3055 12.875 11.1013 13.1193 13.2325ZM20.3211 16.2586C21.0202 16.2449 22.6629 15.9819 22.6629 13.7995C22.6629 13.6424 22.6527 13.4921 22.6357 13.3521C22.4321 11.5692 20.9354 11.3404 20.3007 11.3267L20.036 11.3233H20.0326C19.398 11.3302 17.8945 11.5453 17.7316 13.417C17.7214 13.5297 17.7146 13.6526 17.7146 13.7824C17.7146 15.9853 19.3538 16.2517 20.0598 16.262L20.3211 16.2586ZM23.6844 13.2325C23.7048 13.4135 23.715 13.598 23.715 13.7961C23.715 16.344 21.8958 17.2798 20.3347 17.3071H20.0428C18.407 17.2832 16.6591 16.3405 16.6591 13.779C16.6591 13.6185 16.6659 13.4682 16.6795 13.3213C16.8763 11.0877 18.5359 10.2816 20.0224 10.268L20.3245 10.2714C21.7906 10.3055 23.4401 11.1013 23.6844 13.2325ZM14.1443 18.5606C14.4124 18.6733 14.5379 18.9806 14.426 19.247L13.9847 20.2887C13.8592 20.5517 13.5469 20.6644 13.2822 20.5415C13.0379 20.4254 12.9191 20.1385 13.0141 19.8823L13.4553 18.8406C13.5707 18.5742 13.8795 18.4478 14.1443 18.5606ZM16.0923 18.8406L16.5335 19.8823C16.6455 20.1487 16.52 20.4561 16.2552 20.5688H16.2519C15.9837 20.6815 15.6783 20.5551 15.5629 20.2887L15.1217 19.247C15.0097 18.9806 15.1319 18.6733 15.4 18.5571C15.4 18.5571 15.4034 18.5571 15.4034 18.5537C15.6681 18.4478 15.9769 18.5708 16.0923 18.8406ZM20.8505 22.2594C23.4774 20.6371 24.8112 17.8365 24.8112 13.9395C24.8112 4.96727 17.5856 4.11342 15.3694 4.0656C15.0538 4.05536 14.7076 4.05536 14.392 4.05536H14.3581C13.4248 4.05877 11.0321 4.21588 8.91432 5.54447C6.35195 7.15312 5.0521 9.95716 5.0521 13.878C5.0521 17.8365 6.38249 20.6576 9.00934 22.2663L9.51164 22.5736V23.9501C9.51164 24.6468 9.68472 25.1523 10.0309 25.4528C10.4823 25.8661 11.195 25.9481 11.7176 25.9481H18.183C18.933 25.9481 19.493 25.7841 19.8392 25.4665C20.1819 25.1591 20.3482 24.6502 20.3482 23.9466V22.56C20.3516 22.5668 20.8505 22.2594 20.8505 22.2594ZM15.3932 3.01025C17.5313 3.05465 25.8667 3.90508 25.8667 13.9361C25.8667 18.9806 23.7659 21.6959 21.4071 23.1508V23.9501C21.4071 24.9508 21.1288 25.7329 20.5553 26.2418C20.0055 26.7438 19.2113 27 18.1864 27H11.7143C10.6859 27 9.88157 26.7438 9.33176 26.2418C8.74802 25.7295 8.45614 24.9508 8.45614 23.9466V23.1577C6.1008 21.7164 4 18.9806 4 13.878C4 3.76846 12.1588 3.01025 14.3547 3C14.6907 3 15.0674 3 15.3932 3.01025Z" fill="#86888C"/>
</svg>
