<svg width="28" height="28" viewBox="0 0 28 28" fill="none" xmlns="http://www.w3.org/2000/svg">
<path fill-rule="evenodd" clip-rule="evenodd" d="M21.8377 21.6672C23.0998 20.4537 23.7747 18.5427 23.8493 15.9763L2.97395 15.9536L3.26921 22.4426C3.2757 22.54 3.32436 23.0396 3.70073 23.0396H18.4179C18.4569 23.0331 20.3257 23.1175 21.8377 21.6672ZM5.42033 11.7811C5.29055 11.7843 5.24837 11.8103 5.24513 11.8103L5.24837 14.9088L18.8722 14.8893C18.7943 13.9711 18.4861 13.2444 17.9507 12.7252C16.9319 11.7324 15.407 11.7811 15.3875 11.7811C15.3583 11.8038 11.3416 11.7746 8.40855 11.7746C6.92904 11.7746 5.71883 11.7746 5.42033 11.7811ZM7.66231 6.88832H11.4909V5.96038H7.66231V6.88832ZM7.66231 10.811H11.4909V7.84546H7.66231V10.811ZM24.3295 15.0159C24.5923 15.0159 24.8032 15.23 24.8032 15.4961C24.8032 18.5881 24.0213 20.9015 22.4769 22.3745C21.4062 23.3933 19.9915 23.974 18.5153 24C18.4439 24 18.4017 23.9968 18.3887 23.9968H3.70073C2.66248 23.9968 2.34452 23.0072 2.3218 22.4848L2.00059 15.4961C1.98762 15.2333 2.18878 15.0094 2.44834 14.9964H2.4743L4.29773 14.9997L4.32368 11.8362C4.31719 11.8362 4.27826 11.4956 4.5216 11.1971C4.65462 11.0316 4.91743 10.8337 5.40411 10.8272C5.57932 10.8239 6.05951 10.8239 6.7149 10.8239V5.48019C6.7149 5.21414 6.92904 5 7.18861 5H11.9678C12.2306 5 12.4415 5.21414 12.4415 5.48019V10.8175L15.3681 10.8207C15.42 10.8239 17.2856 10.7526 18.5996 12.0277C19.3491 12.7544 19.745 13.7667 19.8098 15.0126L24.3295 15.0159ZM7.05234 19.0002C6.78628 19.0034 6.57214 19.2176 6.57539 19.4836C6.57539 19.7497 6.78953 19.967 7.05234 19.967C7.31514 19.967 7.53253 19.7497 7.53253 19.4836C7.52928 19.2143 7.31514 18.9969 7.05234 19.0002ZM7.05234 20.9274C6.26067 20.9209 5.6215 20.2753 5.62474 19.4836C5.62474 18.6887 6.26391 18.0398 7.05234 18.0398C7.84076 18.0398 8.47993 18.6887 8.47993 19.4836C8.47993 20.2785 7.83751 20.9274 7.05234 20.9274ZM11.8218 18.9969C11.5558 19.0002 11.3416 19.2143 11.3416 19.4804C11.3416 19.7464 11.5558 19.9638 11.8218 19.9638C12.0846 19.9638 12.302 19.7464 12.302 19.4804C12.302 19.2143 12.0879 18.9969 11.8218 18.9969ZM11.8218 20.9274C11.0334 20.9274 10.3942 20.2785 10.3942 19.4836C10.3942 18.6887 11.0366 18.0398 11.8218 18.0398C12.607 18.0398 13.2494 18.6887 13.2494 19.4836C13.2494 20.2785 12.6102 20.9274 11.8218 20.9274ZM16.5945 18.9969C16.3285 18.9969 16.1143 19.2143 16.1143 19.4804C16.1143 19.7464 16.3285 19.9638 16.5945 19.9638C16.8573 19.9638 17.0715 19.7464 17.0715 19.4804C17.0715 19.2143 16.8573 18.9969 16.5945 18.9969ZM16.5945 20.9274C15.8028 20.9209 15.1637 20.2753 15.1669 19.4836C15.1669 18.6887 15.8061 18.0398 16.5945 18.0398C17.3797 18.0398 18.0221 18.6887 18.0221 19.4836C18.0221 20.2785 17.3797 20.9274 16.5945 20.9274Z" fill="#86888C"/>
</svg>
