<svg width="28" height="28" viewBox="0 0 28 28" fill="none" xmlns="http://www.w3.org/2000/svg">
<path fill-rule="evenodd" clip-rule="evenodd" d="M21.2463 8.60724L19.4261 6.77678L22.5542 3.61787L24.3744 5.45858L21.2463 8.60724ZM11.7627 20.7306L7.49052 16.4277L8.20426 15.7071L10.6563 18.1864C10.7587 18.2889 10.8919 18.3401 11.0251 18.3401C11.1583 18.3401 11.2812 18.2889 11.3837 18.1864C11.5886 17.9815 11.5886 17.6605 11.3837 17.4556L8.918 14.9865L10.7177 13.1766L12.4048 14.8431C12.5072 14.9455 12.6301 14.9968 12.7633 14.9968C12.8965 14.9968 13.0297 14.9455 13.1322 14.8431C13.3268 14.6382 13.3268 14.3069 13.1219 14.1123L11.4451 12.4423L13.2449 10.6324C13.2551 10.6426 13.2653 10.6631 13.2756 10.6733L15.9632 13.378C16.0657 13.4805 16.1886 13.5317 16.3218 13.5317C16.455 13.5317 16.5882 13.4805 16.6906 13.378C16.8853 13.1834 16.8853 12.8521 16.6906 12.6472L13.9927 9.9391C13.9825 9.92885 13.9723 9.91861 13.9518 9.90836L15.7617 8.0984L17.3463 9.67273C17.4488 9.76493 17.5717 9.81616 17.7049 9.81616C17.8381 9.81616 17.9713 9.76493 18.0737 9.66248C18.2684 9.46782 18.2684 9.13657 18.0635 8.94191L16.4789 7.37782L17.5307 6.31916L21.8029 10.6221L11.7627 20.7306ZM8.18377 20.9253L7.11145 19.8564L8.27598 18.6713L9.3483 19.7505L8.18377 20.9253ZM25.8532 5.47907L22.5406 2.14599C22.3357 1.95134 22.0078 1.95134 21.8166 2.14599C21.6117 2.35089 21.6117 2.68215 21.8166 2.87681L21.8268 2.8973L18.6987 6.04596L17.1448 4.48188C16.9502 4.28722 16.6223 4.28722 16.4311 4.48188C16.2262 4.68678 16.2262 5.01804 16.4311 5.21269L16.8101 5.59518L6.40454 16.0588C6.20988 16.2637 6.20988 16.595 6.40454 16.7897L7.55882 17.9542L6.02889 19.4841C5.93668 19.5866 5.87521 19.7095 5.87521 19.8564C5.87521 19.9895 5.93668 20.1227 6.02889 20.2149L6.52065 20.7101L2.14599 25.1258C1.95134 25.3204 1.95134 25.6517 2.14599 25.8463C2.24844 25.9488 2.38163 26 2.50116 26C2.63434 26 2.76753 25.9488 2.86998 25.8463L7.24464 21.4409L7.81836 22.0181C7.92081 22.1205 8.04376 22.1717 8.18719 22.1717C8.32037 22.1717 8.45356 22.1205 8.54576 22.0181L10.0791 20.4847L11.4076 21.8234C11.51 21.9259 11.633 21.9771 11.7661 21.9771C11.8993 21.9771 12.0325 21.9259 12.135 21.8234L22.5269 11.3461L22.9367 11.7593C23.0289 11.8618 23.1621 11.913 23.2953 11.913C23.4285 11.913 23.5514 11.8618 23.6539 11.7593C23.8588 11.5544 23.8588 11.2334 23.6539 11.0285L21.9771 9.34147L25.1053 6.18256L25.136 6.2133C25.2384 6.31575 25.3614 6.36697 25.4946 6.36697C25.6278 6.36697 25.7609 6.31575 25.8634 6.2133C26.0478 6.01523 26.0478 5.68738 25.8532 5.47907Z" fill="#86888C"/>
</svg>
