<svg width="28" height="28" viewBox="0 0 28 28" fill="none" xmlns="http://www.w3.org/2000/svg">
<path d="M26.0033 3.63591H25.993V13.7793C25.9008 14.2915 25.6515 14.7594 25.2758 15.1215L15.1222 25.2136C14.7021 25.6781 14.1181 25.9581 13.4966 25.9991C13.1209 26.0127 12.7589 25.8727 12.4856 25.6166L2.37986 15.5245C1.75828 14.698 1.91539 13.5231 2.73505 12.8879L12.8989 2.70696C13.2509 2.3484 13.7014 2.10236 14.1933 2L24.3674 2C25.269 2 26.0033 2.73087 26.0033 3.63591ZM24.9923 13.629V3.63591C24.9923 3.29097 24.7123 3.01092 24.3674 3.01092H14.3743C14.084 3.07581 13.821 3.2295 13.6161 3.44466L3.42152 13.588C2.97753 14.032 2.87508 14.5887 3.07658 14.7868L13.1824 24.8823C13.3839 25.0838 13.961 24.9711 14.3948 24.5408L24.5689 14.3872C24.7874 14.1857 24.9343 13.9193 24.9923 13.629ZM20.0231 4.66391C20.8086 4.72538 21.5429 5.09082 22.062 5.68507C22.6631 6.21786 23.0252 6.9658 23.073 7.76497C23.0525 8.56414 22.7075 9.31892 22.1133 9.85512C21.5907 10.4289 20.8667 10.7704 20.0914 10.8148C19.2889 10.7704 18.5341 10.405 17.9979 9.80389C17.3968 9.26769 17.0348 8.51633 16.987 7.71374C17.0075 6.91457 17.3558 6.1598 17.9467 5.6236C18.4828 5.03959 19.2308 4.69465 20.0231 4.66391ZM21.4268 9.06619C21.8127 8.73149 22.0484 8.25335 22.0723 7.74448C22.0347 7.2117 21.7888 6.71307 21.3858 6.3613C21.0375 5.96171 20.5423 5.71581 20.0129 5.67483C19.4904 5.70557 19.002 5.94463 18.657 6.34081C18.2643 6.68233 18.0252 7.16388 17.9911 7.683C18.0286 8.21579 18.2745 8.71442 18.6775 9.06619C19.0327 9.46236 19.5313 9.70143 20.0607 9.73217C20.5832 9.68435 21.0682 9.4487 21.4268 9.06619Z" fill="#86888C"/>
</svg>
