<svg width="24" height="24" viewBox="0 0 24 24" fill="none" xmlns="http://www.w3.org/2000/svg">
<path d="M22.0027 3.36326H21.9942V11.816C21.9173 12.243 21.7096 12.6329 21.3965 12.9345L12.9352 21.3446C12.5851 21.7317 12.0984 21.9651 11.5805 21.9992C11.2674 22.0106 10.9657 21.8939 10.738 21.6805L2.31655 13.2704C1.79857 12.5816 1.92949 11.6026 2.61254 11.0732L11.0824 2.58913C11.3757 2.29033 11.7511 2.0853 12.1611 2L20.6395 2C21.3908 2 22.0027 2.60906 22.0027 3.36326ZM21.1603 11.6908V3.36326C21.1603 3.07581 20.9269 2.84243 20.6395 2.84243H12.3119C12.07 2.89651 11.8508 3.02458 11.6801 3.20388L3.1846 11.6567C2.81461 12.0267 2.72923 12.4906 2.89715 12.6556L11.3186 21.0686C11.4865 21.2365 11.9675 21.1426 12.329 20.784L20.8074 12.3226C20.9895 12.1547 21.1119 11.9327 21.1603 11.6908ZM17.0193 4.21992C17.6739 4.27115 18.2858 4.57568 18.7184 5.07089C19.2193 5.51488 19.521 6.13817 19.5608 6.80414C19.5437 7.47012 19.2563 8.0991 18.7611 8.54593C18.3256 9.02407 17.7223 9.30867 17.0762 9.34567C16.4074 9.30867 15.7784 9.00414 15.3316 8.50324C14.8307 8.05641 14.529 7.43028 14.4891 6.76145C14.5062 6.09548 14.7965 5.4665 15.2889 5.01967C15.7357 4.53299 16.359 4.24554 17.0193 4.21992ZM18.189 7.88849C18.5106 7.60958 18.707 7.21113 18.7269 6.78707C18.6956 6.34308 18.4907 5.92756 18.1549 5.63441C17.8646 5.30143 17.4519 5.09651 17.0107 5.06236C16.5753 5.08797 16.1683 5.28719 15.8809 5.61734C15.5536 5.90194 15.3543 6.30324 15.3259 6.73584C15.3572 7.17982 15.5621 7.59535 15.8979 7.88849C16.1939 8.21863 16.6094 8.41786 17.0506 8.44347C17.486 8.40363 17.8902 8.20725 18.189 7.88849Z" fill="#86888C"/>
</svg>
