<svg width="20" height="20" viewBox="0 0 20 20" fill="none" xmlns="http://www.w3.org/2000/svg">
<path fill-rule="evenodd" clip-rule="evenodd" d="M4.08824 10.797C4.45488 10.797 4.71221 11.0521 4.71221 11.421C4.71221 11.7899 4.45716 12.045 4.08824 12.045C3.72161 12.045 3.46428 11.7876 3.46428 11.421C3.46428 11.0544 3.71933 10.797 4.08824 10.797ZM16.9843 10.6194C16.85 10.4942 16.8409 10.2847 16.9661 10.148L16.9843 10.1298C17.2166 9.91802 17.3396 9.5696 17.3396 9.12326C17.3396 8.15315 16.4537 8.03017 16.1805 8.01423H13.3498L11.1227 7.94819C10.9428 7.94136 10.7993 7.79562 10.8016 7.61571C10.8016 7.61571 10.8084 5.62084 10.8084 4.10646V4.08824L10.813 3.98804C10.813 3.06576 10.4213 2.66268 9.57871 2.66268C9.1392 2.66268 8.79761 2.77882 8.59266 2.99972C8.39909 3.20695 8.31483 3.50982 8.34443 3.90379L8.3581 4.07003C8.36721 4.14062 8.37176 4.20666 8.37632 4.28864C8.37859 4.30231 8.37859 4.31597 8.38087 4.32963C8.40137 5.2838 8.41503 6.50897 8.32166 7.50868C8.17592 9.02078 6.75491 9.8497 6.20837 10.1161V10.2163C6.20837 10.23 6.21292 10.2414 6.21292 10.2551V16.604C6.21292 16.6177 6.21065 16.6291 6.20837 16.6428V16.7042L8.44691 16.7338C8.69285 16.7338 8.95246 16.8067 9.27583 16.9001L9.45801 16.9525C10.0774 17.1346 10.7788 17.3396 12.5369 17.3396C15.5998 17.3396 15.7227 17.0094 15.9664 16.349C16.0211 15.9869 15.996 15.6954 15.8708 15.4631C15.7842 15.3015 15.8457 15.0988 16.0074 15.0122L16.0347 14.9986C16.431 14.8323 16.9024 14.5181 16.9024 13.9488C16.9024 13.5776 16.8158 13.277 16.6473 13.0834C16.5266 12.9445 16.5426 12.7373 16.6815 12.6166C16.6906 12.6075 16.702 12.6006 16.7111 12.5938C16.998 12.398 17.3396 12.0518 17.3396 11.5258C17.3419 11.1432 17.2235 10.838 16.9843 10.6194ZM5.20182 16.9547C5.38628 16.9547 5.53886 16.809 5.54796 16.6223V10.2368C5.53886 10.0524 5.38628 9.90663 5.20182 9.90663H3.0111C2.81753 9.90663 2.66268 10.0638 2.66268 10.2573V16.6063C2.66268 16.7999 2.81981 16.957 3.0111 16.957L5.20182 16.9547ZM17.6516 10.3735C17.8406 10.6308 18.0046 11.0065 18.0046 11.528C18.0046 12.0632 17.7723 12.5574 17.3441 12.9399C17.4671 13.1745 17.5673 13.5024 17.5673 13.9488C17.5673 14.5841 17.2212 15.1147 16.5881 15.4654C16.6724 15.7615 16.6769 16.0985 16.6063 16.5152C16.1805 17.6789 15.5998 18 12.5391 18C10.6832 18 9.90208 17.77 9.27355 17.5855L9.10276 17.5354C8.81127 17.4535 8.60404 17.3943 8.44463 17.3943L6.115 17.3646C6.04441 17.3624 5.97609 17.3487 5.91233 17.3214C5.72331 17.5104 5.46826 17.6151 5.20182 17.6151H3.0111C2.45317 17.6151 2 17.1597 2 16.6018V10.2551C2 9.69713 2.45317 9.24167 3.0111 9.24167H5.20182C5.47509 9.24167 5.72104 9.35098 5.90322 9.52633C6.32679 9.32138 7.54967 8.63137 7.66354 7.44492C7.75463 6.4953 7.74324 5.32024 7.72274 4.39112C7.72047 4.30686 7.71363 4.2226 7.70225 4.13834L7.68631 3.94933C7.64532 3.37546 7.79334 2.89041 8.11215 2.54882C8.44691 2.18901 8.95474 2 9.58326 2C10.7879 2 11.4802 2.70367 11.4802 3.92656L11.4779 4.00399L11.4734 4.11329C11.4734 5.25648 11.4688 6.66838 11.4688 7.29462L13.3635 7.35155H16.2032C17.0458 7.3971 18.0068 7.88898 18.0068 9.12326C18.0046 9.70851 17.8406 10.1093 17.6516 10.3735Z" fill="#86888C"/>
</svg>
