<svg width="24" height="24" viewBox="0 0 24 24" fill="none" xmlns="http://www.w3.org/2000/svg">
<path fill-rule="evenodd" clip-rule="evenodd" d="M19.2711 21.0655C20.4788 21.0251 21.8355 20.4384 21.8976 18.0354H19.2618L19.2711 21.0655ZM1.91005 18.0354C1.91005 18.3272 1.95662 19.4542 2.67068 20.2242C3.13327 20.7209 3.82871 20.9879 4.72284 21.0376L4.71352 18.0385H1.91005V18.0354ZM3.06807 3.39087C2.31675 3.87519 1.93488 4.75691 1.91936 5.99876H4.67627L4.66385 2.93139C4.31924 2.9407 3.65485 3.01211 3.06807 3.39087ZM21.91 6.00186C21.9163 5.86526 21.9473 4.6172 21.1742 3.77585C20.7303 3.29463 20.0659 3.02763 19.2152 2.95622L19.2245 6.00186H21.91ZM19.2494 14.3347L19.2556 17.1102H21.9069V14.3316C21.9069 14.3347 19.2494 14.3347 19.2494 14.3347ZM21.9038 6.92704H19.2245L19.2339 9.70568H21.9069L21.9038 6.92704ZM19.237 10.6309L19.2463 13.4095H21.9069V10.6309H19.237ZM5.5735 2.93139L5.62939 21.0562H18.3584L18.3025 2.92518C14.4683 2.92518 7.58841 2.93139 5.5735 2.93139ZM1.91315 17.1102H4.70731L4.698 14.3316H1.91315V17.1102ZM4.68558 9.70568L4.67627 6.92704H1.91005V9.70568H4.68558ZM1.91315 10.6309V13.4095H4.698L4.68869 10.6309H1.91315ZM18.7806 2C23.1333 2 22.8135 6.10121 22.8135 6.10121L22.8166 17.8771C22.8166 21.6585 20.1094 22 19.1314 22C18.9141 22 18.7837 21.9814 18.7837 21.9814H5.01467C0.730288 21.9814 1.0035 17.8988 1.0035 17.8988V6.07637C1.0035 2.267 3.94668 2 4.78183 2C4.92153 2 5.00225 2.00621 5.00225 2.00621C5.00225 2.00621 14.4279 2 18.7806 2ZM9.18729 15.263L14.7384 12L9.18729 8.73704V15.263ZM15.8747 11.5995C16.0951 11.7299 16.1696 12.0155 16.0361 12.2391C15.9957 12.3043 15.9399 12.3601 15.8747 12.4005L8.96065 16.4676C8.82094 16.5514 8.64708 16.5514 8.50738 16.4676C8.36767 16.3837 8.28074 16.2316 8.28074 16.0671V7.93604C8.28074 7.7715 8.36767 7.61937 8.50738 7.53555C8.64708 7.45172 8.82094 7.45172 8.96065 7.53555L15.8747 11.5995Z" fill="#86888C"/>
</svg>
