<svg width="24" height="24" viewBox="0 0 24 24" fill="none" xmlns="http://www.w3.org/2000/svg">
<path fill-rule="evenodd" clip-rule="evenodd" d="M16.7723 8.98079C17.022 8.98079 17.2163 9.04462 17.3523 9.17229C17.4939 9.30551 17.566 9.50256 17.566 9.76067C17.566 10.016 17.4939 10.2131 17.3523 10.3463C17.2163 10.474 17.022 10.5378 16.7723 10.5378C16.5225 10.5378 16.3282 10.474 16.1922 10.3463C16.0534 10.2131 15.9813 10.0188 15.9813 9.76067C15.9813 9.50256 16.0534 9.30551 16.1922 9.17229C16.3282 9.04462 16.5225 8.98079 16.7723 8.98079ZM15.1709 10.535C15.4206 10.535 15.6149 10.5988 15.7509 10.7293C15.8925 10.8625 15.9646 11.0596 15.9646 11.3177C15.9646 11.573 15.8925 11.7701 15.7509 11.9033C15.6149 12.031 15.4206 12.0948 15.1709 12.0948C14.9211 12.0948 14.7268 12.031 14.5908 11.9033C14.452 11.7701 14.3771 11.5758 14.3771 11.3177C14.3771 11.0596 14.4492 10.8625 14.5908 10.7293C14.724 10.6016 14.9183 10.535 15.1709 10.535ZM16.7723 12.092C17.022 12.092 17.2163 12.1559 17.3523 12.2835C17.4939 12.4167 17.566 12.6138 17.566 12.8719C17.566 13.1272 17.4939 13.3243 17.3523 13.4575C17.2163 13.5852 17.022 13.649 16.7723 13.649C16.5225 13.649 16.3282 13.5852 16.1922 13.4575C16.0534 13.3243 15.9813 13.13 15.9813 12.8719C15.9813 12.6166 16.0534 12.4167 16.1922 12.2835C16.3282 12.1559 16.5225 12.092 16.7723 12.092ZM18.3764 10.535C18.6262 10.535 18.8205 10.5988 18.9565 10.7293C19.0981 10.8625 19.1702 11.0596 19.1702 11.3177C19.1702 11.573 19.0981 11.7701 18.9565 11.9033C18.8205 12.031 18.6262 12.0948 18.3764 12.0948C18.1239 12.0948 17.9324 12.031 17.7964 11.9033C17.6548 11.7701 17.5855 11.5758 17.5855 11.3177C17.5855 11.0596 17.6576 10.8625 17.7964 10.7293C17.9324 10.6016 18.1267 10.535 18.3764 10.535ZM10.1224 11.6535C10.2084 11.5702 10.2223 11.3787 10.2223 11.2705C10.2223 11.165 10.2084 10.9708 10.1224 10.8875C10.0586 10.8264 9.91979 10.7931 9.73383 10.7931C9.6811 10.7931 9.67 10.7987 9.65057 10.7987H9.62004C9.60894 10.7987 9.59784 10.7987 9.60061 10.7959C9.56453 10.7987 9.53123 10.8015 9.49792 10.8015C9.40911 10.8015 9.32862 10.7848 9.26201 10.7432C9.15655 10.6766 9.08439 10.56 9.04553 10.399C9.02888 10.3352 9.02888 10.2797 9.02888 10.2242C9.02888 10.2131 9.02611 10.202 9.02611 10.1936C9.02888 10.1825 9.02888 10.1742 9.02888 10.1659C9.03166 10.1381 9.03721 10.1076 9.03721 10.0909C9.03721 9.98271 9.02333 9.78843 8.93729 9.70517C8.87346 9.64411 8.73469 9.6108 8.54874 9.6108C8.36556 9.6108 8.22956 9.64411 8.16573 9.70517C8.07692 9.78843 8.06581 9.98271 8.06581 10.0909C8.06581 10.1548 8.07414 10.2047 8.08247 10.2575C8.08247 10.2602 8.08247 10.263 8.08524 10.2658C8.08802 10.2852 8.08247 10.2991 8.08524 10.3185C8.09634 10.4545 8.07414 10.5711 8.01031 10.6599C7.9326 10.7654 7.80493 10.8292 7.63285 10.8542C7.62453 10.857 7.6162 10.857 7.6051 10.857C7.58289 10.857 7.56347 10.8542 7.53849 10.8542H7.53571C7.50796 10.8542 7.4802 10.857 7.45523 10.857C7.4358 10.857 7.41915 10.8542 7.39972 10.8514H7.39694C7.36641 10.8486 7.33866 10.8403 7.30258 10.8403C7.1194 10.8403 6.98341 10.8736 6.91957 10.9374C6.83354 11.0207 6.81966 11.2122 6.81966 11.3205C6.81966 11.5036 6.85574 11.6424 6.9168 11.7035C6.98063 11.7617 7.1194 11.7978 7.30258 11.7978C7.39417 11.7978 7.39417 11.7978 7.46078 11.7867H7.46355C7.47743 11.7867 7.52184 11.7812 7.53571 11.7812H7.53849C7.56624 11.7784 7.59677 11.7784 7.62453 11.7784C7.71334 11.7784 7.79383 11.795 7.85766 11.8367C7.96313 11.9033 8.03529 12.0171 8.07414 12.1781C8.08802 12.2308 8.08524 12.2724 8.08802 12.3168C8.08802 12.3335 8.09079 12.3474 8.09079 12.3612C8.08524 12.3918 8.08247 12.4195 8.07969 12.4473C8.07414 12.4806 8.06581 12.5194 8.06581 12.5472C8.06581 12.7304 8.1019 12.8719 8.16295 12.9302C8.22679 12.9885 8.36556 13.0218 8.54596 13.0218C8.72914 13.0218 8.87068 12.9885 8.93452 12.9274C9.02055 12.8442 9.03443 12.6526 9.03443 12.5444C9.03443 12.5167 9.02055 12.475 9.01778 12.4389C9.015 12.4195 9.01223 12.4001 9.00945 12.3779C9.00668 12.3529 9.00668 12.3279 9.00668 12.3002C9.00668 12.2669 8.99835 12.2363 9.00113 12.2003C9.01778 12.0365 9.07606 11.9088 9.1732 11.8311C9.25369 11.7645 9.36471 11.734 9.49515 11.734H9.53956C9.54788 11.734 9.57564 11.7368 9.58396 11.7368H9.58674C9.62004 11.7451 9.63947 11.7451 9.66445 11.7451H9.73661C9.91701 11.7479 10.0586 11.7118 10.1224 11.6535ZM9.84763 9.99381C10.2029 10.0105 10.4832 10.1187 10.6858 10.3102C10.9189 10.5322 11.0355 10.8542 11.0355 11.2705C11.0355 11.6896 10.9189 12.0115 10.683 12.2336C10.486 12.4195 10.214 12.525 9.8504 12.5444C9.8504 12.9635 9.73106 13.2854 9.49792 13.5075C9.27589 13.7156 8.95395 13.8239 8.54596 13.8239C8.13798 13.8239 7.82158 13.7184 7.59677 13.5075C7.37751 13.2965 7.25817 12.9885 7.24985 12.5971C6.86684 12.586 6.56432 12.4806 6.35061 12.278C6.12026 12.0587 6.00091 11.7368 6.00091 11.3177C6.00091 10.9014 6.12026 10.5766 6.35061 10.3574C6.56432 10.1548 6.86684 10.0465 7.24985 10.0354C7.25817 9.64411 7.37474 9.33881 7.59677 9.12788C7.82158 8.91418 8.13798 8.80594 8.54596 8.80594C8.95395 8.80594 9.27589 8.91418 9.49792 9.12788C9.71441 9.33049 9.83375 9.62191 9.84763 9.99381ZM21.4488 17.1155C21.5515 16.7769 21.6903 16.0386 21.6958 15.7167C21.7264 13.3881 20.5385 10.6488 19.8974 9.17784C19.803 8.95858 19.717 8.76708 19.6504 8.60333L19.6198 8.52562C19.5782 8.42293 19.5393 8.33412 19.5088 8.26196C19.4922 8.2231 19.4811 8.2009 19.4727 8.18702L19.4644 8.17037L19.4422 8.12596L19.4006 8.05103C19.284 7.84565 19.1591 7.67635 19.0203 7.54313C18.5041 7.0491 17.7381 6.80209 16.7473 6.80209C16.3615 6.80209 15.9896 6.84927 15.6094 6.94919C15.49 6.98249 15.1542 7.11849 14.9794 7.1962C14.885 7.24893 14.6241 7.39603 14.5297 7.45986C14.0024 7.81234 13.389 8.00107 12.7535 8.00107C12.1179 8.00107 11.5045 7.81234 10.98 7.45986C10.8829 7.39603 10.622 7.24616 10.5276 7.19342C10.3666 7.12126 10.0197 6.97972 9.89758 6.94641C9.52013 6.8465 9.14822 6.79932 8.76244 6.79932C7.76885 6.79932 7.00561 7.0491 6.48938 7.54035C6.35061 7.67079 6.22572 7.84287 6.0925 8.07878L6.06197 8.13706L6.0592 8.13984L6.03699 8.18702C6.02867 8.20367 6.02034 8.2231 6.00091 8.26196C5.96483 8.34244 5.9232 8.44236 5.87602 8.55337L5.85659 8.60056C5.78721 8.76708 5.70394 8.95858 5.60958 9.17784C4.97124 10.6488 3.78059 13.3881 3.81112 15.7195C3.81389 16.0414 3.95266 16.7797 4.05535 17.1183C4.20245 17.5929 4.52995 17.9426 4.96014 18.0841C5.12388 18.1368 5.39587 18.1896 5.60681 18.2035C5.83161 18.2035 6.30898 18.0952 6.53102 17.9953C6.72529 17.9093 6.90847 17.7899 7.0972 17.629C7.20266 17.5374 7.24985 17.4819 7.47743 17.2015L7.57179 17.0877C7.63285 17.01 7.69391 16.9323 7.75219 16.8546C7.90484 16.6548 8.07969 16.4272 8.29895 16.219C8.96505 15.5863 9.81155 15.1228 10.819 14.8397C11.4435 14.6648 12.0929 14.576 12.7479 14.576C13.4029 14.576 14.0524 14.6648 14.6768 14.8397C15.6871 15.1228 16.5336 15.5863 17.1969 16.219C17.4162 16.4272 17.5882 16.6548 17.7437 16.8574C17.8019 16.9351 17.863 17.0128 17.9241 17.0877L18.0156 17.2015C18.2432 17.4819 18.2904 17.5374 18.3987 17.629C18.6373 17.8316 18.8427 17.937 18.9787 17.9953C19.2091 18.098 19.7419 18.2035 19.9557 18.2035C20.0639 18.2035 20.3054 18.1618 20.5385 18.0841C20.9715 17.9398 21.3017 17.5873 21.4488 17.1155ZM20.4025 8.29526C20.9576 9.62746 22.5479 12.883 22.509 15.7278C22.5035 16.1386 22.3481 16.9545 22.2259 17.3459C21.9845 18.1313 21.4211 18.6364 20.8022 18.839C20.5496 18.9223 20.2082 19 19.9612 19C19.6309 19 18.9815 18.8696 18.6484 18.7197C18.4597 18.6336 18.1822 18.4921 17.8713 18.2284C17.6854 18.0675 17.6021 17.962 17.2968 17.5818C17.0803 17.3153 16.8888 17.0239 16.639 16.7852C16.0645 16.2357 15.3318 15.8444 14.4631 15.6029C13.908 15.4503 13.3308 15.3698 12.7563 15.3698C12.179 15.3698 11.6045 15.4475 11.0494 15.6029C10.1807 15.8471 9.45074 16.2357 8.87346 16.7852C8.62367 17.0239 8.43217 17.3126 8.21291 17.5818C7.90484 17.9592 7.82436 18.0675 7.6384 18.2284C7.32756 18.4921 7.06389 18.6336 6.87517 18.7197C6.5671 18.8585 5.97316 19 5.62346 19H5.54575C5.30151 18.9778 4.95736 18.9223 4.7048 18.839C4.08866 18.6364 3.52525 18.1313 3.28102 17.3459C3.16167 16.9545 3.00625 16.1358 3.0007 15.7278C2.96184 12.8858 4.55215 9.63023 5.10723 8.29526C5.16552 8.15371 5.21547 8.0316 5.2571 7.93723C5.29596 7.84842 5.31261 7.82067 5.32371 7.79846L5.382 7.68745C5.53187 7.42101 5.70394 7.174 5.92598 6.96584C6.59763 6.32472 7.55514 6 8.76522 6C9.26202 6 9.7033 6.06939 10.1141 6.17763C10.3555 6.24146 10.8912 6.47737 10.9023 6.48292C10.9023 6.48292 11.313 6.71328 11.4407 6.80209C11.8376 7.06853 12.2955 7.20175 12.7535 7.20175C13.2114 7.20175 13.6721 7.06853 14.0662 6.80209C14.1967 6.71328 14.6074 6.48292 14.6074 6.48292C14.6158 6.47737 15.1514 6.24146 15.3929 6.17763C15.8036 6.06939 16.2449 6 16.7417 6C17.9518 6 18.9065 6.32472 19.581 6.96584C19.7975 7.174 19.9723 7.42101 20.1222 7.68745L20.1777 7.79846C20.1888 7.82067 20.2054 7.84842 20.2443 7.93723C20.2943 8.0316 20.3442 8.15649 20.4025 8.29526Z" fill="#86888C"/>
</svg>
