<svg width="40" height="40" viewBox="0 0 40 40" fill="none" xmlns="http://www.w3.org/2000/svg">
<path fill-rule="evenodd" clip-rule="evenodd" d="M33.6588 36.3179C35.8175 36.2453 38.2426 35.1891 38.3536 30.8637H33.6421L33.6588 36.3179ZM2.62667 30.8637C2.62667 31.389 2.70991 33.4176 3.98626 34.8035C4.81312 35.6976 6.05618 36.1782 7.6544 36.2676L7.63775 30.8693H2.62667V30.8637ZM4.69658 4.50357C3.35363 5.37535 2.67106 6.96243 2.64331 9.19776H7.57116L7.54896 3.6765C6.93298 3.69326 5.74542 3.82179 4.69658 4.50357ZM38.3758 9.20335C38.3868 8.95747 38.4423 6.71096 37.0605 5.19652C36.267 4.33033 35.0794 3.84974 33.5589 3.7212L33.5755 9.20335H38.3758ZM33.6199 24.2024L33.631 29.1984H38.3702V24.1968C38.3702 24.2024 33.6199 24.2024 33.6199 24.2024ZM38.3647 10.8687H33.5755L33.5922 15.8702H38.3702L38.3647 10.8687ZM33.5977 17.5355L33.6144 22.5371H38.3702V17.5355H33.5977ZM9.17493 3.6765L9.27482 36.3011H32.0273L31.9274 3.66532C25.0739 3.66532 12.7765 3.6765 9.17493 3.6765ZM2.63222 29.1984H7.62665L7.61001 24.1968H2.63222V29.1984ZM7.58781 15.8702L7.57116 10.8687H2.62667V15.8702H7.58781ZM2.63222 17.5355V22.5371H7.61001L7.59336 17.5355H2.63222ZM32.782 2C40.5622 2 39.9906 9.38218 39.9906 9.38218L39.9962 30.5787C39.9962 37.3853 35.1571 38 33.4091 38C33.0206 38 32.7875 37.9665 32.7875 37.9665H8.17604C0.517903 37.9665 1.00625 30.6178 1.00625 30.6178V9.33747C1.00625 2.4806 6.26706 2 7.75984 2C8.00956 2 8.15385 2.01118 8.15385 2.01118C8.15385 2.01118 25.0018 2 32.782 2ZM15.6344 25.8733L25.5567 20L15.6344 14.1267V25.8733ZM27.5878 19.2791C27.9818 19.5138 28.115 20.0279 27.8763 20.4303C27.8042 20.5477 27.7043 20.6482 27.5878 20.7209L15.2293 28.0416C14.9796 28.1925 14.6688 28.1925 14.4191 28.0416C14.1694 27.8907 14.014 27.6169 14.014 27.3207V12.6849C14.014 12.3887 14.1694 12.1149 14.4191 11.964C14.6688 11.8131 14.9796 11.8131 15.2293 11.964L27.5878 19.2791Z" fill="#86888C"/>
</svg>
