<svg width="40" height="40" viewBox="0 0 40 40" fill="none" xmlns="http://www.w3.org/2000/svg">
<path fill-rule="evenodd" clip-rule="evenodd" d="M16.2547 30.5608C8.38087 30.5608 2 24.1799 2 16.3061C2 12.5276 3.50319 8.90261 6.17211 6.22858C11.7094 0.635087 20.7336 0.583958 26.3322 6.11609C31.8491 11.5675 31.9792 20.41 26.6834 26.0239L37.7901 37.1257C37.9895 37.3252 37.9895 37.6473 37.7952 37.8467C37.6981 37.9438 37.5703 38 37.4322 38C37.2942 38 37.1664 37.9438 37.0692 37.8467L25.9611 26.7435C23.3318 29.2018 19.8608 30.5705 16.2547 30.5608ZM16.2547 3.07904C8.9484 3.07904 3.02258 8.99976 3.02258 16.3061C3.02258 19.8135 4.41839 23.1778 6.89814 25.6626C12.0621 30.8318 20.4422 30.8318 25.6062 25.6626C30.7702 20.4935 30.7753 12.1186 25.6062 6.95461C23.1315 4.46463 19.7621 3.06882 16.2547 3.07904ZM17.0673 15.9351H24.4363C24.7484 15.9351 25.0024 16.1891 25 16.5012C25 16.8133 24.746 17.0673 24.4339 17.0673H17.0673V24.4339C17.0673 24.746 16.8133 25 16.5012 25C16.1891 25 15.9351 24.746 15.9351 24.4339V17.0673H8.5661C8.25402 17.0673 8 16.8133 8 16.5012C8 16.1867 8.25402 15.9351 8.5661 15.9351H15.9351V8.5661C15.9351 8.25402 16.1891 8 16.5012 8C16.8133 8 17.0673 8.25402 17.0673 8.5661V15.9351Z" fill="#86888C"/>
</svg>
