<svg width="24" height="24" viewBox="0 0 24 24" fill="none" xmlns="http://www.w3.org/2000/svg">
<path fill-rule="evenodd" clip-rule="evenodd" d="M9.91928 17.8671C5.54493 17.8671 2 14.3222 2 9.94781C2 7.84869 2.8351 5.83478 4.31784 4.34921C7.39409 1.24171 12.4075 1.21331 15.5179 4.28672C18.5829 7.3153 18.6551 12.2277 15.713 15.3466L21.8834 21.5143C21.9942 21.6251 21.9942 21.804 21.8863 21.9148C21.8323 21.9688 21.7613 22 21.6846 22C21.6079 22 21.5369 21.9688 21.4829 21.9148L15.3117 15.7463C13.851 17.1121 11.9227 17.8725 9.91928 17.8671ZM9.91928 2.59947C5.86022 2.59947 2.5681 5.88875 2.5681 9.94781C2.5681 11.8964 3.34355 13.7654 4.72119 15.1459C7.59008 18.0176 12.2456 18.0176 15.1145 15.1459C17.9834 12.2742 17.9863 7.62145 15.1145 4.75256C13.7397 3.36924 11.8679 2.59379 9.91928 2.59947ZM5.333 9.7H14.6684C14.852 9.7 15.0014 9.84942 15 10.033C15 10.2166 14.8506 10.366 14.667 10.366H5.333C5.14942 10.366 5 10.2166 5 10.033C5 9.848 5.14942 9.7 5.333 9.7Z" fill="#86888C"/>
</svg>
