<svg width="28" height="28" viewBox="0 0 28 28" fill="none" xmlns="http://www.w3.org/2000/svg">
<path d="M24.1118 24.1118C24.3816 23.8421 24.5284 23.4802 24.5284 23.1012L24.5045 15.9752C24.5318 15.4665 24.4157 15.0875 24.1767 14.8314C23.9309 14.5719 23.5621 14.4319 23.1012 14.4285L4.8886 14.4319C4.50619 14.4319 4.14767 14.5822 3.87793 14.8519C3.60819 15.1251 3.46137 15.4836 3.46137 15.8626L3.48528 22.9885C3.45796 23.4938 3.57405 23.8762 3.81306 24.1323C4.0589 24.3918 4.43107 24.5318 4.8886 24.5352L23.1012 24.5318C23.4836 24.5284 23.8455 24.3816 24.1118 24.1118ZM13.9983 3.4682C13.5203 3.4682 13.1344 3.85403 13.1344 4.33205C13.1344 4.80666 13.5203 5.1959 13.9983 5.1959C14.4763 5.1959 14.8621 4.81007 14.8621 4.33205C14.8621 3.85745 14.4763 3.4682 13.9983 3.4682ZM13.9983 6.66411C13.6227 6.66411 13.2744 6.5685 12.9603 6.41144L6.40802 12.9671L21.6125 12.9637L15.0363 6.40802C14.7222 6.56509 14.3739 6.66411 13.9983 6.66411ZM25.9727 16.0128L25.9966 23.0977C25.9966 23.8728 25.6961 24.6001 25.1498 25.1464C24.6035 25.6927 23.8762 25.9932 23.1046 25.9966L4.88519 26C4.02134 25.9932 3.26334 25.6859 2.74776 25.1327C2.22877 24.5762 1.9761 23.8216 2.0239 22.9475L2 15.8626C2 15.0875 2.30047 14.3602 2.84678 13.8139C3.23944 13.4213 3.7277 13.1583 4.26035 13.0388L11.9257 5.37004C11.7687 5.05591 11.6697 4.70764 11.6697 4.33205C11.6697 3.04481 12.7145 2 13.9983 2C15.2821 2 16.3269 3.04481 16.3269 4.33205C16.3269 4.70764 16.2313 5.05591 16.0743 5.37004L23.7499 13.0252C24.344 13.1413 24.863 13.4178 25.2488 13.8276C25.7678 14.3807 26.0205 15.1353 25.9727 16.0128Z" fill="#86888C"/>
<path d="M6.64703 17.9045C6.60947 17.7645 6.57874 17.6484 6.55142 17.563C6.52411 17.4709 6.48996 17.3855 6.4524 17.3035C6.40802 17.2114 6.34656 17.1362 6.27485 17.0782C6.19291 17.0133 6.09047 16.9792 5.97097 16.9792C5.85488 16.9792 5.75245 17.0133 5.6705 17.0782C5.59538 17.1362 5.53734 17.2148 5.49295 17.3104C5.45539 17.3923 5.41783 17.4948 5.38369 17.6177L4.51301 20.7453C4.47887 20.8614 4.45496 20.9501 4.44131 21.0184C4.42423 21.0901 4.41741 21.1618 4.41741 21.2335C4.41741 21.3667 4.45838 21.4862 4.5335 21.5921C4.64276 21.7389 4.76568 21.7696 4.85104 21.7696C4.99444 21.7696 5.10712 21.7047 5.17199 21.5818C5.21638 21.4965 5.27101 21.3394 5.33247 21.1106L5.45198 20.6531H6.49679L6.6163 21.1004V21.1038C6.63678 21.1721 6.66068 21.2506 6.688 21.3394C6.71873 21.4384 6.74604 21.5101 6.77677 21.5613C6.81092 21.6228 6.85531 21.6706 6.90652 21.7082C6.96457 21.7491 7.03286 21.7696 7.11139 21.7696C7.20016 21.7696 7.32991 21.7389 7.43917 21.5852C7.51429 21.4794 7.55526 21.3565 7.55526 21.2267C7.55526 21.114 7.52112 20.9501 7.45624 20.7214L6.64703 17.9045ZM6.25778 19.7141H5.68757L5.97097 18.601L6.25778 19.7141Z" fill="#86888C"/>
<path d="M10.0717 19.2259C10.3073 19.0005 10.4268 18.683 10.4268 18.2869C10.4268 18.1503 10.4097 18.0172 10.379 17.8908C10.3449 17.7645 10.2971 17.6484 10.2356 17.5426C10.1707 17.4367 10.0956 17.3445 10.0137 17.2762C9.91123 17.1875 9.79514 17.1294 9.6654 17.0987C9.54589 17.0714 9.40931 17.0577 9.25225 17.0577H8.24841C8.02306 17.0577 7.90697 17.1567 7.84892 17.2421C7.77039 17.3514 7.73283 17.5118 7.73283 17.7372V21.0185C7.73283 21.237 7.77039 21.3975 7.84209 21.5067C7.90014 21.5921 8.01964 21.6979 8.24841 21.6979H9.19079C9.36151 21.6979 9.51175 21.6843 9.64149 21.6604C9.77807 21.633 9.90099 21.5887 10.0137 21.5238C10.1878 21.4179 10.3244 21.2506 10.4234 21.0321C10.519 20.8204 10.5668 20.578 10.5668 20.3151C10.5702 19.8132 10.4029 19.4512 10.0717 19.2259ZM8.63082 18.8469V17.9899H9.003C9.20103 17.9899 9.34785 18.0206 9.43663 18.0752C9.52199 18.1333 9.54248 18.2835 9.54248 18.3996C9.54248 18.4849 9.52882 18.5601 9.5015 18.6283V18.6318C9.47077 18.7137 9.42639 18.7718 9.37517 18.7957C9.33078 18.8161 9.24201 18.8435 9.0747 18.8435H8.63082V18.8469ZM9.6654 20.2468C9.6654 20.6053 9.51516 20.7555 9.16689 20.7555H8.63082V19.7551H9.14299C9.32395 19.7551 9.45712 19.7927 9.54248 19.8678C9.62442 19.9395 9.6654 20.0658 9.6654 20.2468Z" fill="#86888C"/>
<path d="M11.3112 16.9792C11.2156 16.9792 11.079 17.0133 10.9731 17.1772C10.9014 17.2899 10.8639 17.4469 10.8639 17.6518V21.0936C10.8639 21.3018 10.898 21.4589 10.9731 21.5716C11.079 21.7355 11.2156 21.7696 11.3112 21.7696C11.4102 21.7696 11.5468 21.7355 11.6526 21.575C11.7277 21.4623 11.7619 21.3052 11.7619 21.097V17.6518C11.7619 17.4435 11.7243 17.2865 11.6526 17.1738C11.5468 17.0133 11.4068 16.9792 11.3112 16.9792Z" fill="#86888C"/>
<path d="M14.4046 20.718H13.0832V19.7483H14.2441C14.4216 19.7483 14.5172 19.6663 14.5685 19.598C14.6333 19.5127 14.6641 19.4034 14.6641 19.2737C14.6641 19.1439 14.6299 19.0347 14.565 18.9493C14.5138 18.8844 14.4182 18.8059 14.2441 18.8059H13.0832V18.0069H14.3534C14.5309 18.0069 14.6299 17.9284 14.6846 17.8601C14.7528 17.7747 14.787 17.6621 14.787 17.5289C14.787 17.3957 14.7528 17.2865 14.6846 17.2011C14.6333 17.1328 14.5343 17.0543 14.3534 17.0543H12.7042C12.5881 17.0543 12.4925 17.0816 12.4105 17.1328C12.3286 17.1875 12.2671 17.2694 12.2296 17.3787C12.1989 17.4743 12.1818 17.5904 12.1818 17.7338V21.015C12.1818 21.237 12.2193 21.3974 12.2945 21.5067C12.3525 21.5921 12.472 21.6945 12.7008 21.6945H14.3977C14.5753 21.6945 14.6743 21.6125 14.7289 21.5443C14.7972 21.4555 14.8314 21.3428 14.8314 21.2096C14.8314 21.0731 14.7972 20.957 14.7289 20.8682C14.6811 20.7999 14.5821 20.718 14.4046 20.718Z" fill="#86888C"/>
<path d="M20.4379 17.2079C20.3833 17.1362 20.2774 17.0543 20.0896 17.0543H18.1024C17.9215 17.0543 17.819 17.1362 17.761 17.2011C17.6859 17.2899 17.6483 17.4094 17.6483 17.5562C17.6483 17.563 17.6483 17.5699 17.6483 17.5767C17.6312 17.546 17.6108 17.5152 17.5903 17.4845C17.5049 17.3616 17.4059 17.266 17.2932 17.1977C17.1976 17.1362 17.0918 17.0953 16.9757 17.0748C16.8698 17.0577 16.7401 17.0475 16.5933 17.0475H15.5758C15.3504 17.0475 15.2309 17.1499 15.1728 17.2318C15.0943 17.3411 15.0568 17.5016 15.0568 17.7235V21.0833C15.0568 21.2882 15.0909 21.4418 15.1592 21.5545C15.2377 21.6877 15.3606 21.7594 15.5075 21.7594C15.6031 21.7594 15.7431 21.7252 15.8455 21.5682C15.9172 21.4555 15.9548 21.2984 15.9548 21.0833V19.8268H16.0367C16.1221 19.8268 16.1938 19.8405 16.245 19.8712C16.2825 19.8917 16.3406 19.9395 16.4123 20.059C16.4806 20.1648 16.5557 20.3253 16.6445 20.5336L16.8937 21.1243C16.9552 21.2677 16.9996 21.3735 17.0371 21.4452C17.0781 21.5306 17.1293 21.6023 17.1874 21.6604C17.2591 21.7321 17.3547 21.7696 17.4605 21.7696C17.5493 21.7696 17.6278 21.7457 17.6961 21.6945C17.761 21.6467 17.8088 21.5852 17.8463 21.5067C17.8805 21.4316 17.8976 21.3565 17.8976 21.2779C17.8976 21.2336 17.8907 21.1482 17.8259 20.9331C17.7815 20.7794 17.7166 20.6087 17.6347 20.4209C17.5527 20.2331 17.4571 20.0522 17.3547 19.8849C17.2966 19.7893 17.2352 19.7073 17.1703 19.6356C17.3615 19.5434 17.5151 19.4137 17.6244 19.2498C17.7678 19.0347 17.8429 18.7444 17.8429 18.3928C17.8429 18.2391 17.8259 18.0889 17.7917 17.9455C17.8532 18.0035 17.9488 18.0581 18.1024 18.0581H18.6487V21.0936C18.6487 21.3018 18.6829 21.4589 18.758 21.5716C18.8638 21.7321 19.0004 21.7662 19.0994 21.7662C19.195 21.7662 19.3316 21.7321 19.4375 21.5716C19.5092 21.4589 19.5467 21.3018 19.5467 21.0901V18.0547H20.093C20.2808 18.0547 20.3833 17.9728 20.4379 17.9045C20.5096 17.8123 20.5472 17.6962 20.5472 17.5562C20.5437 17.4162 20.5096 17.3001 20.4379 17.2079ZM16.9381 18.4474C16.9381 18.5771 16.9176 18.6761 16.8767 18.741C16.8391 18.8025 16.7845 18.8469 16.7128 18.8708C16.6274 18.9015 16.5147 18.9186 16.3816 18.9186H15.9582V17.9899H16.3986C16.6615 17.9899 16.7435 18.024 16.7606 18.0377C16.8152 18.0684 16.8562 18.1162 16.8869 18.1845C16.921 18.2596 16.9381 18.3484 16.9381 18.4474Z" fill="#86888C"/>
<path d="M23.5519 18.1298C23.4255 17.7679 23.2377 17.4845 22.9885 17.2831C22.7358 17.0816 22.4285 16.9792 22.0802 16.9792C21.8207 16.9792 21.5886 17.0372 21.3803 17.1533C21.1754 17.2694 21.0013 17.4333 20.8613 17.6484C20.7247 17.8567 20.6189 18.1128 20.5472 18.4064C20.4755 18.6966 20.4413 19.0176 20.4413 19.3624C20.4413 19.7005 20.4755 20.018 20.5438 20.3082C20.612 20.6053 20.7145 20.8614 20.8511 21.0731C20.991 21.2916 21.1652 21.4623 21.3769 21.5852C21.5886 21.7082 21.8276 21.7696 22.0939 21.7696C22.3602 21.7696 22.5992 21.7082 22.8075 21.5921C23.0158 21.4726 23.1899 21.3018 23.3299 21.0833C23.4665 20.8682 23.5689 20.6121 23.6372 20.3219C23.7021 20.0385 23.7362 19.7175 23.7362 19.3693C23.7362 18.8981 23.6748 18.4815 23.5519 18.1298ZM22.8314 19.3624C22.8314 19.6902 22.7939 19.9702 22.7187 20.1921C22.647 20.4038 22.5549 20.5609 22.4388 20.6565C22.3295 20.7487 22.2134 20.7931 22.0871 20.7931C21.9881 20.7931 21.8993 20.7692 21.8139 20.7146C21.7286 20.6599 21.65 20.5746 21.5817 20.4619C21.51 20.3424 21.452 20.1887 21.411 20.0044C21.37 19.8131 21.3496 19.598 21.3496 19.359C21.3496 19.1234 21.37 18.9117 21.411 18.7239C21.452 18.543 21.5066 18.3927 21.5749 18.2767C21.6398 18.1674 21.7183 18.0854 21.8037 18.0308C21.889 17.9762 21.9778 17.9523 22.0768 17.9523C22.2202 17.9523 22.3432 18.0001 22.4524 18.0991C22.5685 18.2015 22.6607 18.3586 22.7256 18.5703C22.7973 18.7922 22.8314 19.0586 22.8314 19.3624Z" fill="#86888C"/>
</svg>
