<svg width="20" height="20" viewBox="0 0 20 20" fill="none" xmlns="http://www.w3.org/2000/svg">
<path d="M10.0356 18.0493C7.48152 18.0493 5.49553 17.386 4.13259 16.0775C2.71697 14.7212 2 12.6947 2 10.0527C2 7.41076 2.71697 5.38198 4.13259 4.02339C5.49553 2.71494 7.48381 2.04932 10.0356 2.04932C12.5897 2.04932 14.5756 2.71266 15.9409 4.02111C17.3588 5.37971 18.0758 7.40848 18.0758 10.0505C18.0758 12.6924 17.3565 14.7189 15.9409 16.0775C14.5756 17.386 12.5897 18.0493 10.0356 18.0493ZM10.0356 2.93605C5.29395 2.93605 2.88877 5.32956 2.88877 10.0527C2.88877 14.7714 5.29395 17.1649 10.0356 17.1649C14.7795 17.1649 17.187 14.7714 17.187 10.0527C17.187 5.33184 14.7795 2.93605 10.0356 2.93605Z" fill="#86888C"/>
<path d="M8.86764 13.5814C8.73936 13.5814 8.61796 13.5244 8.53778 13.4241L6.38 10.7252C6.23568 10.5451 6.26546 10.2807 6.44642 10.137C6.62738 9.99344 6.8931 10.0231 7.03741 10.2032L8.85618 12.4781L13.2474 6.62885C13.3871 6.44421 13.6505 6.40546 13.836 6.54451C14.0216 6.68356 14.0605 6.94571 13.9208 7.13035L9.20665 13.4127C9.12877 13.5176 9.00737 13.5791 8.8768 13.5814H8.86764Z" fill="#86888C"/>
</svg>
