<svg width="28" height="28" viewBox="0 0 28 28" fill="none" xmlns="http://www.w3.org/2000/svg">
<path fill-rule="evenodd" clip-rule="evenodd" d="M18.2202 25.1798C20.2486 22.8884 25.4973 15.9322 25.5076 11.6499C25.5178 9.35854 24.8895 7.57596 23.6465 6.34318C22.4069 5.10699 20.597 4.48207 18.2714 4.46841C15.9732 4.46841 14.136 5.0865 12.8827 6.31245C11.6294 7.53498 10.9909 9.31756 10.9909 11.6124C10.9806 11.947 11.0318 12.3295 11.1001 12.7188C13.0193 13.1115 15.922 14.4433 15.922 18.9373C15.922 20.0062 15.7512 20.8975 15.4746 21.6317C16.3283 22.8645 17.2435 24.046 18.2202 25.1798ZM9.73076 23.8172C11.4792 23.7899 14.4331 23.1137 14.4331 18.9407C14.4331 14.7677 11.4621 14.0711 9.68978 14.0233H9.13315C7.39156 14.0438 4.48889 14.6926 4.48889 18.9032C4.48889 23.1342 7.43254 23.8001 9.18096 23.8309H9.36878C9.49172 23.8275 9.62149 23.8275 9.73076 23.8172ZM24.7119 5.30164C26.2145 6.80078 27.0101 8.99314 26.9999 11.6602C26.9897 17.2811 19.7706 25.7774 18.7495 26.7848C18.6095 26.9248 18.4183 26.9999 18.2236 26.9999C18.0255 27.0033 17.8343 26.9248 17.6977 26.7848C17.1821 26.2862 16.0278 24.9441 14.6858 23.083C13.1354 25.0534 10.5981 25.2788 9.76491 25.2856C9.64539 25.2959 9.50538 25.2959 9.37561 25.2959H9.1673C7.87306 25.2754 3 24.8144 3 18.8998C3 13.0022 7.82183 12.5617 9.11267 12.5515H9.56002C9.51562 12.2373 9.49513 11.9197 9.49855 11.6021C9.49855 8.94875 10.3045 6.75297 11.8241 5.26408C13.3471 3.77518 15.5907 3.01024 18.2782 3C20.976 3.01024 23.2025 3.8025 24.7119 5.30164ZM18.2509 9.36537C17.0489 9.36537 16.4649 9.94249 16.4649 11.124C16.4649 12.3056 17.0489 12.8827 18.2509 12.8827C19.453 12.8827 20.0369 12.3056 20.0369 11.124C20.0369 9.94249 19.4496 9.36537 18.2509 9.36537ZM18.2509 14.3579C16.2293 14.3579 14.9726 13.1183 14.9726 11.1275C14.9726 9.13657 16.2293 7.89696 18.2509 7.89696C20.2725 7.89696 21.5292 9.13657 21.5292 11.1275C21.5258 13.1183 20.2725 14.3579 18.2509 14.3579ZM12.6812 18.169C13.091 18.1656 13.4223 18.4934 13.4257 18.9032C13.4223 19.313 13.091 19.6408 12.6812 19.6374H10.2054V22.0893C10.202 22.4991 9.87077 22.8269 9.46098 22.8235C9.0512 22.8269 8.71995 22.4991 8.71654 22.0893V19.6408H6.24074C5.83095 19.6442 5.4997 19.3164 5.49629 18.9066C5.4997 18.4968 5.83436 18.169 6.24074 18.1724H8.71312V15.7615C8.71654 15.3517 9.04778 15.0239 9.45757 15.0273C9.86736 15.0239 10.1986 15.3517 10.202 15.7615V18.1724H12.6812V18.169Z" fill="#86888C"/>
</svg>
