<svg width="24" height="24" viewBox="0 0 24 24" fill="none" xmlns="http://www.w3.org/2000/svg">
<path fill-rule="evenodd" clip-rule="evenodd" d="M14.6835 20.4831C16.3739 18.5736 20.7478 12.7768 20.7563 9.20828C20.7649 7.29878 20.2412 5.8133 19.2054 4.78599C18.1724 3.75583 16.6641 3.23505 14.7262 3.22367C12.811 3.22367 11.28 3.73875 10.2356 4.76037C9.1912 5.77915 8.65905 7.26463 8.65905 9.17697C8.65051 9.45586 8.6932 9.77458 8.75011 10.099C10.3494 10.4263 12.7683 11.5361 12.7683 15.2811C12.7683 16.1718 12.626 16.9146 12.3955 17.5264C13.107 18.5537 13.8696 19.5383 14.6835 20.4831ZM7.60897 19.3477C9.06599 19.3249 11.5276 18.7614 11.5276 15.2839C11.5276 11.8064 9.05176 11.2259 7.57482 11.1861H7.11096C5.65963 11.2031 3.24075 11.7438 3.24075 15.2526C3.24075 18.7785 5.69378 19.3334 7.1508 19.3591H7.30732C7.40977 19.3562 7.5179 19.3562 7.60897 19.3477ZM20.0933 3.91803C21.3454 5.16732 22.0084 6.99429 21.9999 9.21681C21.9914 13.9009 15.9755 20.9811 15.1246 21.8206C15.0079 21.9373 14.8485 21.9999 14.6863 21.9999C14.5213 22.0028 14.3619 21.9373 14.2481 21.8206C13.8184 21.4051 12.8565 20.2868 11.7381 18.7358C10.4462 20.3778 8.33179 20.5657 7.63743 20.5713C7.53782 20.5799 7.42115 20.5799 7.31301 20.5799H7.13942C6.06088 20.5628 2 20.1786 2 15.2498C2 10.3352 6.0182 9.96809 7.09389 9.95956H7.46668C7.42969 9.69775 7.41261 9.43309 7.41546 9.16844C7.41546 6.95729 8.08705 5.12748 9.35341 3.88673C10.6226 2.64598 12.4923 2.00854 14.7319 2C16.98 2.00854 18.8354 2.66875 20.0933 3.91803ZM14.7091 7.30447C13.7074 7.30447 13.2208 7.7854 13.2208 8.77003C13.2208 9.75466 13.7074 10.2356 14.7091 10.2356C15.7108 10.2356 16.1974 9.75466 16.1974 8.77003C16.1974 7.7854 15.708 7.30447 14.7091 7.30447ZM14.7091 11.465C13.0244 11.465 11.9772 10.4319 11.9772 8.77288C11.9772 7.11381 13.0244 6.0808 14.7091 6.0808C16.3938 6.0808 17.441 7.11381 17.441 8.77288C17.4382 10.4319 16.3938 11.465 14.7091 11.465ZM10.0677 14.6408C10.4092 14.638 10.6852 14.9112 10.6881 15.2526C10.6852 15.5941 10.4092 15.8673 10.0677 15.8645H8.00453V17.9077C8.00168 18.2492 7.72564 18.5224 7.38415 18.5196C7.04266 18.5224 6.76663 18.2492 6.76378 17.9077V15.8673H4.70061C4.35912 15.8702 4.08309 15.597 4.08024 15.2555C4.08309 14.914 4.36197 14.6408 4.70061 14.6437H6.76094V12.6346C6.76378 12.2931 7.03982 12.0199 7.38131 12.0227C7.7228 12.0199 7.99884 12.2931 8.00168 12.6346V14.6437H10.0677V14.6408Z" fill="#86888C"/>
</svg>
