<svg width="40" height="40" viewBox="0 0 40 40" fill="none" xmlns="http://www.w3.org/2000/svg">
<path fill-rule="evenodd" clip-rule="evenodd" d="M28.8127 32.4627H28.8025C28.4388 32.4678 28.0085 32.3347 27.5578 32.0427C27.4604 31.9812 27.3682 31.9146 27.2812 31.848C26.7894 31.469 26.0928 31.5458 25.6932 32.0222C25.3142 32.4883 25.3808 33.1696 25.8469 33.5487C25.8571 33.5538 25.8623 33.564 25.8725 33.5692C26.0006 33.6716 26.1491 33.774 26.313 33.8816C26.5948 34.0609 26.8765 34.1992 27.1531 34.317C26.5743 35.3005 25.6061 35.7923 24.1975 35.7923C22.461 35.7923 21.7849 34.0199 21.6363 33.5435C21.6414 33.1389 21.6466 32.0837 21.6363 31.8275V29.7069H23.8953C24.2743 30.3062 24.9454 30.7057 25.7188 30.7057C26.9072 30.7057 27.8702 29.7632 27.8702 28.6005C27.8702 27.4377 26.9021 26.4952 25.7188 26.4952C24.9454 26.4952 24.2743 26.8998 23.8953 27.494H21.6312V16.2094H23.2294V19.7849C22.6915 20.169 22.333 20.7888 22.333 21.4855C22.333 22.6431 23.3011 23.5908 24.4844 23.5908C25.2527 23.5908 25.9237 23.1912 26.3028 22.597L30.4109 22.5868V24.8714C29.7962 25.2402 29.3813 25.901 29.3813 26.654C29.3813 27.8116 30.3443 28.7593 31.5379 28.7593C32.7211 28.7593 33.6892 27.8167 33.6892 26.654C33.6892 25.9061 33.2795 25.2504 32.6699 24.8765V21.4804C32.6699 21.1884 32.5521 20.9067 32.3421 20.7018C32.1269 20.4969 31.8401 20.3791 31.543 20.3791L26.3182 20.3893C26.1133 20.0666 25.8264 19.8053 25.4883 19.6363V16.2094H29.4838C30.1087 16.2094 30.6107 15.7177 30.6107 15.1081V12.4087C31.2254 12.0398 31.6403 11.3842 31.6403 10.6261C31.6403 9.46329 30.6722 8.52077 29.4889 8.52077C28.3056 8.52077 27.3375 9.46329 27.3375 10.6261C27.3375 11.3739 27.7473 12.0347 28.3569 12.4035V14.0017H21.6261V8.17245C21.6261 7.84974 21.6363 6.6716 21.6414 6.20034C21.8463 5.72396 22.6147 4.20774 24.1924 4.20774C25.5959 4.20774 26.5692 4.69949 27.148 5.68298C25.8879 6.22595 25.0478 7.31702 24.6585 8.39271L24.5407 8.73591C24.3563 9.31986 24.6944 9.93455 25.2886 10.1138C25.8776 10.2982 26.5077 9.97553 26.6972 9.38645L26.7894 9.11497C26.9636 8.63347 27.5475 7.48093 28.8025 7.52191H28.8076C34.309 7.52191 34.7393 12.7672 34.7393 14.3756C34.7393 14.9647 34.6574 16.7422 33.8736 18.3352C32.9106 17.7052 31.8093 17.321 30.6619 17.2083C30.0524 17.1366 29.494 17.5669 29.4172 18.1816C29.3506 18.7911 29.7962 19.3341 30.4007 19.4007H30.4109C31.6198 19.5287 32.5828 19.9693 33.2846 20.7018C34.6318 22.4587 34.7393 24.9072 34.7393 25.6192C34.7445 27.2174 34.3142 32.3756 28.8127 32.4627ZM16.8059 35.7974C15.428 35.7974 14.4599 35.3312 13.8759 34.3836C14.2089 34.2556 14.5418 34.0968 14.8748 33.8867C15.3819 33.5692 15.5356 32.893 15.218 32.3859C15.2129 32.3756 15.2077 32.3705 15.2026 32.3603C14.8543 31.848 14.1628 31.7097 13.6403 32.0427C13.1793 32.3398 12.7746 32.473 12.3853 32.4678C12.329 32.4627 12.2829 32.4832 12.2316 32.4832C12.2163 32.4832 12.206 32.4781 12.1907 32.4781C6.68924 32.4781 6.25896 27.2328 6.25896 25.6244C6.25896 25.0455 6.34092 23.3295 7.07854 21.757C7.15026 22.9044 7.95447 23.724 8.9226 24.0928C8.93796 24.0979 9.107 24.1594 9.12237 24.1594C9.23506 24.1952 9.34775 24.2157 9.46557 24.2157C9.91121 24.2157 10.3005 23.9135 10.4696 23.4678C10.6796 22.9044 10.3159 22.2538 9.74217 22.0336C9.60387 21.9926 9.48606 21.9004 9.4041 21.7826C10.1366 21.7519 10.8076 21.5879 11.366 21.2601C11.8833 20.9579 12.0626 20.292 11.7604 19.7746L11.745 19.7439C11.4121 19.2214 10.7257 19.0575 10.1981 19.3751C9.87536 19.5646 9.43483 19.6363 8.87137 19.5902C8.33865 19.5441 7.92886 19.4007 7.642 19.1804C6.37166 17.4286 6.26409 15.0723 6.26409 14.3705C6.26409 12.7672 6.69437 7.51679 12.3392 7.51679C12.7234 7.53216 13.0563 7.5885 13.3483 7.75754C13.881 8.07001 14.5674 7.90097 14.8953 7.37849C15.2077 6.86625 15.0438 6.19522 14.5316 5.87763C14.5213 5.87251 14.5162 5.86739 14.506 5.86227C14.3113 5.74957 14.1116 5.65737 13.9015 5.57541C14.4906 4.65339 15.4485 4.19237 16.811 4.19237C18.5475 4.19237 19.2237 5.96471 19.3773 6.44109C19.3722 6.84576 19.3671 7.90097 19.3773 8.15709V9.56062H17.3284C16.934 8.93569 16.2425 8.56175 15.5048 8.56175C14.3164 8.56175 13.3534 9.50427 13.3534 10.667C13.3534 11.8247 14.3164 12.7672 15.5048 12.7672C16.2425 12.7672 16.9289 12.3933 17.3284 11.7684H19.3773V13.9812H11.6016C11.2072 13.3563 10.5157 12.9824 9.77803 12.9824C8.58964 12.9824 7.62151 13.9249 7.62151 15.0876C7.62151 16.2453 8.58452 17.1878 9.77803 17.1878C10.5515 17.1878 11.2225 16.7883 11.6016 16.189H19.3671V18.0535H15.5407C14.926 18.0484 14.4189 18.5401 14.4087 19.1548V22.5458C13.7786 22.9198 13.3893 23.5959 13.3842 24.3284C13.3842 25.4861 14.3523 26.4286 15.5356 26.4286C16.7188 26.4286 17.687 25.4861 17.687 24.3284C17.687 23.5703 17.2772 22.9146 16.6625 22.5458V20.2561H19.362V29.0768H11.0996V28.8105C11.0996 28.8054 11.0945 28.7951 11.0945 28.79C11.7348 28.4212 12.1343 27.7348 12.1394 26.9972C12.1394 25.8344 11.1713 24.8919 9.98805 24.8919C8.80478 24.8919 7.83665 25.8344 7.83665 26.9972C7.83665 27.7501 8.24644 28.4058 8.856 28.7746C8.856 28.8002 8.84576 28.8156 8.84576 28.8412L8.86625 30.1986C8.88162 30.8082 9.38361 31.2897 9.99317 31.2846H19.3773V31.8224C19.3773 32.1451 19.3671 33.3233 19.362 33.7945C19.1468 34.2863 18.3785 35.7974 16.8059 35.7974ZM36.9983 14.3756C36.9983 10.3904 35.0467 5.77006 29.4991 5.36027C28.6335 3.18839 26.774 2 24.1924 2C22.4047 2 21.2163 2.93227 20.4735 3.84917C19.6898 2.85544 18.5065 2 16.8059 2C14.2703 2 12.3802 3.20376 11.5043 5.34491C5.98236 5.69323 4 10.3597 4 14.3756C4 15.4052 4.15367 17.8691 5.47012 19.9949C4.15367 22.1155 4 24.5896 4 25.6192C4 29.6044 5.95162 34.2299 11.4991 34.6397C12.3648 36.8167 14.2242 38 16.811 38C18.5987 38 19.7871 37.0677 20.5248 36.1508C21.3085 37.1446 22.4969 38 24.1975 38C26.774 38 28.6283 36.8219 29.4991 34.6551C35.0211 34.3017 37.0034 29.6352 37.0034 25.6244C37.0034 24.5948 36.8497 22.1309 35.5333 20.0051C36.8446 17.8845 36.9983 15.4104 36.9983 14.3756Z" fill="#86888C"/>
</svg>
