<svg width="20" height="20" viewBox="0 0 20 20" fill="none" xmlns="http://www.w3.org/2000/svg">
<path fill-rule="evenodd" clip-rule="evenodd" d="M8.39135 8.19919C8.39135 8.38359 8.23881 8.53157 8.05441 8.53157C7.87 8.53157 7.71747 8.38359 7.71519 8.19919C7.71519 8.01478 7.86773 7.86681 8.05441 7.86681C8.12498 7.86681 8.18873 7.89412 8.24564 7.93283C8.2593 7.94876 8.26613 7.96925 8.28207 7.98291C8.29573 7.9943 8.31166 8.00113 8.32532 8.01023C8.36403 8.06487 8.39135 8.12861 8.39135 8.19919ZM14.117 13.0711L14.1079 17.0005H8.37313V15.1747C5.75276 15.1747 5.95538 13.7882 5.95538 13.7882L5.92806 11.9374L4.01344 11.4388C4.5325 10.9015 4.98099 10.2959 5.34297 9.64256C5.65942 9.0643 5.86432 8.42913 5.90302 7.77347C6.06238 5.03016 7.48298 3.52077 9.86431 3.11554V5.63573L8.56664 6.96527C8.40273 6.89925 8.22971 6.8651 8.05441 6.8651C7.30768 6.8651 6.70211 7.46157 6.70211 8.19691C6.70211 8.93226 7.30768 9.531 8.05441 9.531C8.79886 9.531 9.40671 8.93226 9.40671 8.19691C9.40671 8.00796 9.36573 7.8281 9.29288 7.66419L10.5883 6.33693H12.0111C12.1181 6.63061 12.323 6.87648 12.5917 7.03585L11.6742 9.52873C10.9958 9.5993 10.4631 10.1593 10.4631 10.8492C10.4631 11.5845 11.0686 12.1832 11.8154 12.1832C12.38 12.1832 12.8649 11.8372 13.0675 11.35H15.9793C15.5467 12.1241 14.9206 12.6955 14.117 13.0711ZM13.2792 6.22765C13.0948 6.22765 12.9423 6.07967 12.9423 5.89527C12.9423 5.71086 13.0948 5.56288 13.2792 5.56288C13.4659 5.56288 13.6184 5.71314 13.6184 5.89527C13.6184 6.07967 13.4659 6.22765 13.2792 6.22765ZM11.8131 10.5145C11.9998 10.5145 12.15 10.6648 12.15 10.8492C12.15 11.0336 11.9975 11.1815 11.8131 11.1815C11.6287 11.1815 11.4761 11.0336 11.4761 10.8492C11.4761 10.6648 11.6264 10.5168 11.8131 10.5145ZM16.6509 8.30847C16.6509 9.07796 16.5507 9.75183 16.3754 10.3483H13.0652C12.9764 10.1366 12.833 9.9499 12.6509 9.80875L13.6184 7.18155C14.2012 7.03129 14.6338 6.5145 14.6338 5.89527C14.6338 5.15992 14.0282 4.56118 13.2815 4.56118C12.7374 4.56118 12.2707 4.8799 12.0567 5.3375H10.8797V3.01081C11.0094 3.00626 11.1369 2.99943 11.2712 2.99943C14.6679 2.99943 16.6509 4.69322 16.6509 8.30847ZM11.2667 2C7.36915 2 5.10393 4.03073 4.88993 7.71427C4.86033 8.19464 4.71463 8.68411 4.45055 9.16447C4.12954 9.74273 3.73342 10.2755 3.27582 10.7513C3.02995 11.0062 2.94116 11.3728 3.03905 11.712C3.13922 12.0535 3.41014 12.3153 3.75618 12.4041L4.92636 12.7091L4.94229 13.7564C4.91953 14.2777 5.10165 14.7877 5.45225 15.177C5.87798 15.6596 6.5177 15.9692 7.36232 16.1013V17.0005C7.36232 17.5515 7.81536 18 8.37541 18H14.1079C14.6634 18.0045 15.1164 17.5583 15.121 17.0028L15.1301 13.6608C16.3936 12.8731 17.6662 11.3272 17.6662 8.30847C17.6639 4.29937 15.3327 2 11.2667 2Z" fill="#86888C"/>
</svg>
