<svg width="28" height="28" viewBox="0 0 28 28" fill="none" xmlns="http://www.w3.org/2000/svg">
<path fill-rule="evenodd" clip-rule="evenodd" d="M21.5231 25.4225V23.6197H6.49744V25.4225H21.5231ZM13.9863 16.4836L13.177 18.7747H14.8093L13.9863 16.4836ZM14.9186 22.0457H15.9772L15.3694 20.3521H12.6204L12.0228 22.0457H14.9186ZM12.9311 10.9215L8.97325 22.0423H10.4143L13.276 13.9535C13.2795 13.9433 13.2863 13.9399 13.2897 13.9296C13.3102 13.875 13.3409 13.8306 13.3751 13.7862C13.399 13.7487 13.4229 13.7077 13.4536 13.6736C13.4809 13.6428 13.5185 13.6258 13.5526 13.5984C13.6005 13.5643 13.6448 13.5267 13.6995 13.5028C13.7097 13.4994 13.7131 13.4926 13.72 13.4892C13.7507 13.4755 13.7849 13.4789 13.8156 13.4721C13.8736 13.4585 13.9283 13.4448 13.9863 13.4448C14.0376 13.4448 14.0854 13.455 14.1332 13.4687C14.1707 13.4789 14.2083 13.4721 14.2459 13.4892C14.2561 13.4926 14.2595 13.4994 14.2698 13.5028C14.321 13.5233 14.362 13.5609 14.4098 13.5916C14.4439 13.6189 14.4849 13.6394 14.5157 13.6701C14.5464 13.7009 14.5669 13.7453 14.5942 13.7828C14.6249 13.8306 14.6591 13.8716 14.6796 13.9262C14.683 13.9365 14.6898 13.9399 14.6932 13.9501L17.5891 22.0423H18.996L15.0313 10.9215C14.7205 11.0171 14.3688 11.0752 13.9761 11.0752C13.5868 11.0752 13.2419 11.0206 12.9311 10.9215ZM13.0507 7.26813C12.8389 7.48665 12.7911 7.92711 12.7911 8.2583C12.7911 8.5895 12.8355 9.02996 13.0472 9.24507C13.2692 9.46701 13.7234 9.50115 13.9761 9.50115C14.2869 9.50115 14.7001 9.45676 14.9118 9.24165C15.1269 9.02996 15.1713 8.5895 15.1713 8.2583C15.1713 7.92711 15.1269 7.48665 14.9118 7.26813C14.7001 7.05302 14.2869 7.00863 13.9795 7.00863C13.6722 7.01205 13.259 7.05643 13.0507 7.26813ZM22.2777 22.0457C22.6944 22.0457 23.0324 22.3974 23.0324 22.8344V26.2113C23.0324 26.6449 22.6944 27 22.2777 27H5.74616C5.32954 27 4.99146 26.6483 4.99146 26.2113V22.8344C4.99146 22.4008 5.32954 22.0457 5.74616 22.0457H7.36483L11.6744 9.93819C11.4183 9.49774 11.2851 8.93777 11.2851 8.26172C11.2851 7.33641 11.5276 6.6228 12.0023 6.14137C12.4633 5.67701 13.1258 5.44142 13.9761 5.44142C14.8264 5.44142 15.4923 5.67701 15.9533 6.14137C16.4348 6.62622 16.6739 7.33983 16.6739 8.26513C16.6739 8.94119 16.5407 9.49774 16.2846 9.94161L20.5942 22.0491H22.2777V22.0457ZM4.78998 12.161C5.0905 12.4614 5.09733 12.9634 4.81047 13.2775C4.66022 13.438 4.46557 13.5165 4.2675 13.5165C4.07968 13.5165 3.89186 13.4448 3.74502 13.2946C2.58736 12.1268 2 10.4333 2 8.26172C2 6.09015 2.58736 4.39661 3.74502 3.22205C4.04553 2.91817 4.52021 2.92841 4.81047 3.24254C5.10074 3.55666 5.0905 4.05175 4.7934 4.35563C3.93967 5.21948 3.50939 6.53403 3.50939 8.26172C3.50598 9.98941 3.93967 11.3005 4.78998 12.161ZM7.68241 11.8229C7.49459 11.8229 7.30677 11.7512 7.15993 11.601C6.38133 10.8191 5.98862 9.69236 5.98862 8.25489C5.98862 6.82084 6.38133 5.69408 7.15993 4.90877C7.46044 4.6083 7.93512 4.61513 8.22538 4.92926C8.51565 5.23997 8.50541 5.73847 8.20831 6.04235C7.73705 6.52037 7.49801 7.26471 7.49801 8.2583C7.49801 9.2519 7.73705 9.99624 8.20831 10.4708C8.50541 10.7713 8.51565 11.2732 8.2288 11.5839C8.07854 11.741 7.88048 11.8229 7.68241 11.8229ZM24.255 3.22205C25.4126 4.39319 26 6.08674 26 8.26172C26 10.4333 25.4126 12.1268 24.255 13.2946C24.1116 13.4414 23.9203 13.5165 23.7325 13.5165C23.5344 13.5165 23.3364 13.4345 23.1895 13.2741C22.8993 12.9599 22.9095 12.4649 23.21 12.161C24.0637 11.3005 24.494 9.98941 24.494 8.26172C24.494 6.53061 24.0637 5.21607 23.21 4.35222C22.9095 4.04834 22.9027 3.54983 23.1929 3.23912C23.4832 2.92841 23.9579 2.91817 24.255 3.22205ZM19.7336 11.5839C19.4468 11.2698 19.4536 10.7747 19.7541 10.4708C20.2254 9.99624 20.4678 9.2519 20.4678 8.26172C20.4678 7.27154 20.2288 6.52378 19.7541 6.04918C19.4536 5.7453 19.4468 5.2468 19.7371 4.93267C20.0273 4.61854 20.502 4.61172 20.8025 4.9156C21.5811 5.70091 21.9738 6.82767 21.9738 8.26172C21.9738 9.69919 21.5777 10.8225 20.7991 11.6078C20.6522 11.7547 20.4644 11.8264 20.2766 11.8264C20.082 11.8229 19.8805 11.741 19.7336 11.5839Z" fill="#86888C"/>
</svg>
