<svg width="40" height="40" viewBox="0 0 40 40" fill="none" xmlns="http://www.w3.org/2000/svg">
<path fill-rule="evenodd" clip-rule="evenodd" d="M18.5932 3.54183L18.5932 32.8776L4.58165 19.6363C3.94617 19.0677 2.97243 19.1138 2.39844 19.749C1.84495 20.3637 1.87058 21.3011 2.45994 21.8799L19.0749 37.58C19.1466 37.6466 19.2389 37.6824 19.3209 37.7388C19.3978 37.79 19.4695 37.8515 19.5566 37.8873C19.7411 37.959 19.9359 38 20.1358 38H20.146C20.3407 37.9949 20.5304 37.9539 20.7149 37.8822C20.8071 37.8463 20.8789 37.7849 20.9557 37.7285C21.0326 37.6773 21.1249 37.6466 21.1966 37.58L37.5143 22.1616C38.1344 21.5777 38.1652 20.6044 37.5809 19.9846C37.5809 19.9846 37.5809 19.9795 37.5758 19.9795C36.9916 19.3597 36.0127 19.3341 35.3926 19.918L21.6784 32.8776L21.6784 3.54183C21.6784 2.69152 20.9865 2 20.1306 2C19.2799 2 18.588 2.69152 18.5932 3.54183Z" fill="#86888C"/>
</svg>
