<svg width="28" height="28" viewBox="0 0 28 28" fill="none" xmlns="http://www.w3.org/2000/svg">
<path d="M17.9736 26C17.7759 26 17.5747 25.9352 17.4043 25.8023C17.36 25.7682 17.3225 25.7307 17.285 25.6898L12.2257 20.5623C12.2087 20.5453 12.195 20.5282 12.1814 20.5112C11.953 20.2282 11.9052 19.8294 12.0621 19.4987C12.2189 19.1714 12.5359 18.9702 12.8905 18.9668L15.1099 18.9464L15.1065 15.4213C15.1065 14.6133 15.761 13.9587 16.569 13.9587H19.3918C20.1998 13.9587 20.8544 14.6133 20.8544 15.4213L20.8578 18.9566L23.0806 18.9736C23.4386 18.9736 23.7556 19.1782 23.9124 19.5055C24.0693 19.8362 24.0215 20.235 23.7897 20.518C23.7761 20.5351 23.7624 20.5521 23.7454 20.5657L18.6623 25.6898C18.4816 25.8943 18.2293 26 17.9736 26ZM13.9098 20.3271L17.9736 24.4454L22.0612 20.3271L20.418 20.3135H20.4044C19.893 20.2998 19.4873 19.8771 19.4941 19.3657L19.4907 15.4213C19.4907 15.3667 19.4464 15.3224 19.3918 15.3224H16.569C16.5145 15.3224 16.4702 15.3667 16.4702 15.4213L16.477 19.3657C16.4838 19.8737 16.0815 20.2998 15.5701 20.3135H15.5565L13.9098 20.3271ZM11.428 14.0337H8.60855C7.80057 14.0337 7.146 13.3792 7.146 12.5712L7.14259 9.03925L4.9232 9.0222C4.56524 9.0222 4.24818 8.81765 4.09136 8.49036C3.93454 8.15967 3.98227 7.7608 4.21409 7.47783C4.22773 7.46079 4.24136 7.44374 4.25841 7.4301L9.33811 2.30949C9.48812 2.13903 9.69267 2.03335 9.91768 2.00607C10.1597 1.9788 10.4018 2.04357 10.5927 2.19699C10.637 2.23108 10.6745 2.26858 10.712 2.30949L15.7679 7.4301C15.7849 7.44715 15.7985 7.4642 15.8122 7.48124C16.0406 7.76421 16.0883 8.16308 15.9315 8.49377C15.7747 8.82106 15.4576 9.0222 15.1031 9.02561L12.8871 9.04265L12.8905 12.5712C12.8905 13.3757 12.2359 14.0337 11.428 14.0337ZM8.50627 8.62673L8.50968 12.5678C8.50968 12.6223 8.554 12.6666 8.60855 12.6666H11.428C11.4825 12.6666 11.5268 12.6223 11.5268 12.5678L11.5234 8.62673C11.5166 8.11876 11.9189 7.69261 12.4303 7.67898H12.4439L14.0871 7.66534L10.0268 3.55044L5.94596 7.66534L7.58579 7.67898H7.59942C8.1108 7.69261 8.51309 8.11876 8.50627 8.62673Z" fill="#86888C"/>
</svg>
