<svg width="28" height="28" viewBox="0 0 28 28" fill="none" xmlns="http://www.w3.org/2000/svg">
<path d="M26.0146 14.0153C26.0146 14.3574 25.8641 14.6824 25.6042 14.9013L14.4388 25.6972C14.4251 25.7109 14.4115 25.7211 14.3978 25.7348C14.0249 26.0393 13.5118 26.1009 13.0808 25.8922C12.6635 25.7006 12.3966 25.2867 12.3966 24.8283L12.3966 20.0256L4.34076 20.0256C3.05798 20.0256 2.01465 18.9823 2.01465 17.6995L2.01465 10.3346C2.01465 9.0484 3.05456 8.00849 4.34076 8.00849L12.3966 8.01191L12.3966 3.17497C12.3966 2.71659 12.6635 2.29926 13.0808 2.1077C13.5118 1.89903 14.0283 1.96061 14.3978 2.26505C14.4115 2.27531 14.4251 2.289 14.4388 2.30268L25.6042 13.1259C25.8641 13.3483 26.0146 13.6733 26.0146 14.0153ZM13.7273 24.5376L24.6121 14.0119L13.7273 3.45889L13.7273 8.15217C13.7273 8.80553 13.18 9.33917 12.5095 9.33917L4.34418 9.33575C3.79344 9.33575 3.34532 9.78045 3.34532 10.3312L3.34532 17.6961C3.34532 18.2468 3.79344 18.6915 4.34076 18.6915L12.5061 18.6915C13.1766 18.6915 13.7239 19.2251 13.7239 19.8785L13.7239 24.5376L13.7273 24.5376Z" fill="#86888C"/>
</svg>
