<svg width="40" height="40" viewBox="0 0 40 40" fill="none" xmlns="http://www.w3.org/2000/svg">
<path d="M37.9434 15.7663C37.9434 15.9208 37.9255 16.0694 37.8958 16.2239C37.7413 16.937 37.254 17.5074 36.7905 17.9709L36.7608 18.0007L25.9101 28.2096L31.383 33.6825L31.4008 33.7004C32.0723 34.4016 32.2684 35.596 31.8643 36.5408C31.484 37.4203 30.658 37.9432 29.6478 37.9372H4.00658C3.41235 37.9788 2.87753 37.7887 2.48534 37.3965C2.09314 37.0043 1.90299 36.4695 1.95053 35.8753L1.96241 10.1092C1.95647 9.20598 2.4378 8.4513 3.26379 8.08287C4.23239 7.64908 5.48623 7.84518 6.24685 8.54043C6.25873 8.55232 6.27062 8.5642 6.2825 8.57015L11.3216 13.6271L21.483 3.22203L21.4949 3.21014C22.2734 2.43169 23.0994 2.04544 23.961 2.05733C24.7989 2.06921 25.613 2.46735 26.3855 3.2458L37.0936 13.9064L37.1293 13.942C37.67 14.5303 37.9434 15.1483 37.9434 15.7663ZM35.1861 16.3546C35.5426 15.9921 35.6318 15.8317 35.6556 15.7723C35.6377 15.7366 35.5902 15.6475 35.4595 15.4989L24.7692 4.85617C24.4364 4.5234 24.1333 4.33919 23.9194 4.33324C23.652 4.3273 23.3311 4.58877 23.1112 4.81458L12.8072 15.3623L12.7953 15.3741C11.9812 16.1882 10.6739 16.2061 9.87762 15.4098L4.68401 10.2162C4.59487 10.1508 4.36906 10.1211 4.23239 10.1508L4.2205 35.6554H29.6478C29.7013 35.6554 29.737 35.6494 29.7548 35.6435C29.7964 35.5663 29.7904 35.3523 29.737 35.2691L24.1096 29.6417C23.7233 29.2555 23.5094 28.7088 23.5272 28.1561C23.545 27.6154 23.7649 27.1103 24.1512 26.724L24.1749 26.7003L35.1861 16.3546Z" fill="#86888C"/>
</svg>
