<svg width="24" height="24" viewBox="0 0 24 24" fill="none" xmlns="http://www.w3.org/2000/svg">
<path d="M9.61623 2C9.70206 2 9.78459 2.0099 9.87043 2.02641C10.2666 2.11224 10.5835 2.38295 10.841 2.64046L10.8575 2.65696L16.5292 8.68515L19.5697 5.64464L19.5796 5.63474C19.9691 5.26169 20.6327 5.15275 21.1576 5.37724C21.6462 5.58852 21.9367 6.0474 21.9334 6.60863L21.9334 20.8538C21.9565 21.1839 21.8509 21.481 21.633 21.6989C21.4151 21.9168 21.118 22.0224 20.7878 21.996L6.47338 21.9894C5.97158 21.9927 5.55232 21.7253 5.34764 21.2664C5.10664 20.7283 5.21558 20.0317 5.60184 19.6092C5.60844 19.6026 5.61504 19.596 5.61834 19.5894L8.42776 16.7899L2.64717 11.1446L2.64056 11.138C2.20809 10.7055 1.99351 10.2467 2.00011 9.76798C2.00671 9.30249 2.2279 8.85021 2.66037 8.42104L8.58292 2.47209L8.60272 2.45228C8.92955 2.15186 9.27289 2 9.61623 2ZM9.94305 3.53181C9.74167 3.33373 9.65254 3.28421 9.61953 3.271C9.59972 3.28091 9.5502 3.30732 9.46767 3.37995L3.55503 9.319C3.37015 9.50387 3.26781 9.67224 3.26451 9.79109C3.26121 9.93964 3.40647 10.1179 3.53192 10.2401L9.39174 15.9645L9.39834 15.9711C9.85062 16.4234 9.86052 17.1497 9.41815 17.5921L6.5328 20.4774C6.49649 20.5269 6.47998 20.6524 6.49649 20.7283L20.6657 20.7349V6.60863C20.6657 6.57891 20.6624 6.5591 20.6591 6.5492C20.6162 6.52609 20.4973 6.5294 20.4511 6.55911L17.3248 9.68544C17.1102 9.90003 16.8065 10.0189 16.4994 10.009C16.199 9.99907 15.9184 9.87692 15.7038 9.66233L15.6906 9.64913L9.94305 3.53181Z" fill="#86888C"/>
</svg>
