<svg width="24" height="24" viewBox="0 0 24 24" fill="none" xmlns="http://www.w3.org/2000/svg">
<path d="M11.9994 22C11.7144 22 11.4436 21.8746 11.2611 21.6579L2.26454 12.3535C2.25314 12.3421 2.24458 12.3307 2.23318 12.3193C1.97948 12.0086 1.92817 11.581 2.10205 11.2218C2.26169 10.874 2.60661 10.6517 2.9886 10.6517H6.99088V3.93843C6.99088 2.86944 7.86032 2 8.9293 2H15.0667C16.1385 2 17.0051 2.86659 17.0051 3.93843L17.0023 10.6517H21.0331C21.415 10.6517 21.7628 10.874 21.9225 11.2218C22.0963 11.581 22.045 12.0114 21.7913 12.3193C21.7828 12.3307 21.7714 12.3421 21.76 12.3535L12.7406 21.6579C12.5553 21.8746 12.2845 22 11.9994 22ZM3.2309 11.7605L12.0023 20.8312L20.7965 11.7605H16.8854C16.3409 11.7605 15.8962 11.3044 15.8962 10.7457L15.8991 3.94128C15.8991 3.48233 15.5285 3.10889 15.0696 3.10889H8.93215C8.4732 3.10889 8.10262 3.48233 8.10262 3.93843V10.7429C8.10262 11.3016 7.65792 11.7577 7.11345 11.7577H3.2309V11.7605Z" fill="#86888C"/>
</svg>
