<svg width="28" height="28" viewBox="0 0 28 28" fill="none" xmlns="http://www.w3.org/2000/svg">
<path fill-rule="evenodd" clip-rule="evenodd" d="M14.4946 26C11.0046 26 9 24.0945 9 20.7684V5.84519C9 3.40353 10.4718 2 13.0364 2C15.601 2 17.0729 3.40011 17.0729 5.84519L17.1036 19.3204C17.1036 20.741 16.1781 21.6221 14.6892 21.6221C13.2003 21.6221 12.2749 20.741 12.2749 19.3238V7.03358C12.2749 6.62038 12.6266 6.28913 13.0569 6.28913C13.4906 6.28913 13.8389 6.62379 13.8389 7.03358V19.3204C13.8389 19.9249 14.0541 20.1264 14.6858 20.1264C15.321 20.1264 15.5327 19.9249 15.5327 19.3204L15.4986 5.84519C15.4986 4.24018 14.7131 3.49232 13.0296 3.49232C11.346 3.49232 10.5606 4.24018 10.5606 5.84519V20.7684C10.5606 23.2851 11.8446 24.5077 14.4878 24.5077C17.1309 24.5077 18.4149 23.2851 18.4149 20.7684L18.4286 6.9687C18.4286 6.55549 18.7803 6.22425 19.2106 6.22425C19.6443 6.22425 19.9926 6.55891 19.9926 6.97211L19.9789 20.7718C19.9892 24.0945 17.9846 26 14.4946 26Z" fill="#86888C"/>
</svg>
