<svg width="24" height="24" viewBox="0 0 24 24" fill="none" xmlns="http://www.w3.org/2000/svg">
<path fill-rule="evenodd" clip-rule="evenodd" d="M11.5788 22C8.67046 22 7 20.4121 7 17.6403V5.20433C7 3.16961 8.22652 2 10.3637 2C12.5009 2 13.7274 3.16676 13.7274 5.20433L13.753 16.4337C13.753 17.6175 12.9818 18.3517 11.741 18.3517C10.5003 18.3517 9.72908 17.6175 9.72908 16.4365V6.19465C9.72908 5.85031 10.0222 5.57427 10.3808 5.57427C10.7422 5.57427 11.0324 5.85316 11.0324 6.19465V16.4337C11.0324 16.9374 11.2117 17.1053 11.7382 17.1053C12.2675 17.1053 12.4439 16.9374 12.4439 16.4337L12.4155 5.20433C12.4155 3.86682 11.761 3.2436 10.358 3.2436C8.95504 3.2436 8.30051 3.86682 8.30051 5.20433V17.6403C8.30051 19.7376 9.37052 20.7564 11.5731 20.7564C13.7758 20.7564 14.8458 19.7376 14.8458 17.6403L14.8571 6.14058C14.8571 5.79624 15.1503 5.5202 15.5088 5.5202C15.8702 5.5202 16.1605 5.79909 16.1605 6.14343L16.1491 17.6431C16.1577 20.4121 14.4872 22 11.5788 22Z" fill="#86888C"/>
</svg>
