<svg width="28" height="28" viewBox="0 0 28 28" fill="none" xmlns="http://www.w3.org/2000/svg">
<path d="M16.4881 21.8561C16.3994 21.7947 16.355 21.723 16.355 21.6172C16.3584 21.4772 16.4745 21.368 16.611 21.368C16.6793 21.3714 16.7408 21.3919 16.7988 21.4294C17.1982 21.6957 17.7581 21.962 18.4068 21.962C19.3763 21.962 19.9703 21.4635 19.9703 20.7261C19.9703 20.1219 19.6324 19.6951 18.5228 19.5552L18.2395 19.521C17.0583 19.3708 16.5086 18.8007 16.5086 17.9233C16.5086 16.8752 17.2563 16.2266 18.3999 16.2266C19.0383 16.2266 19.5812 16.3938 19.9533 16.626C20.0693 16.6977 20.1206 16.7864 20.1206 16.8752C20.1206 17.0084 20.0147 17.1142 19.8816 17.1142C19.8201 17.1108 19.7587 17.0903 19.7041 17.0596C19.2944 16.8377 18.8676 16.7045 18.3794 16.7045C17.4987 16.7045 17.0139 17.1927 17.0139 17.8755C17.0139 18.4968 17.3962 18.8963 18.4341 19.0294L18.7106 19.0635C19.9089 19.2138 20.479 19.7839 20.479 20.6886C20.479 21.7094 19.7519 22.4365 18.3487 22.4365C17.6796 22.4365 17.0344 22.2351 16.4881 21.8561Z" fill="#86888C"/>
<path d="M18.345 22.6981C17.6281 22.6913 16.9316 22.4728 16.341 22.0665C16.1806 21.9539 16.0986 21.8037 16.0986 21.6159C16.102 21.3359 16.3308 21.1106 16.6107 21.1106C16.7268 21.114 16.8429 21.1516 16.9385 21.2165C17.4267 21.5408 17.9183 21.7047 18.403 21.7047C19.2087 21.7047 19.7106 21.3291 19.7106 20.7249C19.7106 20.3288 19.5638 19.9431 18.4884 19.8065L18.205 19.7724C16.5868 19.5675 16.2488 18.6492 16.2488 17.9186C16.2488 16.734 17.0921 15.9658 18.3962 15.9658C19.0278 15.9658 19.6286 16.1194 20.0861 16.4028C20.3387 16.5564 20.3763 16.7613 20.3763 16.8705C20.3763 17.1436 20.1544 17.3655 19.8813 17.3655C19.7789 17.3621 19.6799 17.3348 19.5877 17.2836L19.5809 17.2802C19.1746 17.0583 18.7922 16.9559 18.3791 16.9559C17.6827 16.9559 17.2696 17.2973 17.2696 17.8708C17.2696 18.2395 17.413 18.6355 18.4679 18.7721L18.7444 18.8062C20.39 19.0145 20.7348 19.9431 20.7348 20.6839C20.7348 21.2779 20.5163 21.7798 20.1066 22.1348C19.6833 22.5069 19.0756 22.6981 18.345 22.6981ZM16.6346 21.6466C16.8634 21.8037 17.1092 21.93 17.372 22.0187C17.1194 21.9197 16.8804 21.7934 16.6585 21.6432C16.6449 21.633 16.6278 21.6261 16.6141 21.6227V21.6261C16.6176 21.633 16.6244 21.6398 16.6346 21.6466ZM18.7444 19.3286C19.6047 19.4754 20.0827 19.8406 20.1988 20.4313C20.052 19.5505 19.1439 19.3832 18.7444 19.3286ZM16.7712 18.1132C16.8497 18.7618 17.3277 19.1374 18.2358 19.2603C17.3481 19.1135 16.8668 18.7379 16.7712 18.1132Z" fill="#86888C"/>
<path d="M18.386 23.5419C18.1026 23.5419 17.8739 23.3131 17.8739 23.0298V15.6386C17.8739 15.3552 18.1026 15.1265 18.386 15.1265C18.6693 15.1265 18.8981 15.3552 18.8981 15.6386V23.0298C18.8981 23.3131 18.6693 23.5419 18.386 23.5419ZM10.1515 23.3029C9.776 23.3029 9.46875 22.9956 9.46875 22.6201V8.69463C9.46875 8.3191 9.776 8.01184 10.1515 8.01184C10.5271 8.01184 10.8343 8.3191 10.8343 8.69463V22.6201C10.8343 22.9956 10.5271 23.3029 10.1515 23.3029ZM13.5143 23.32C13.1387 23.32 12.8315 23.0127 12.8315 22.6372V14.0374C12.8315 13.6619 13.1387 13.3547 13.5143 13.3547C13.8898 13.3547 14.1971 13.6619 14.1971 14.0374V22.6372C14.1971 23.0161 13.8932 23.32 13.5143 23.32ZM22.6602 10.347H19.3316C18.1675 10.347 17.1638 9.9612 16.4366 9.23062C15.7094 8.50004 15.3202 7.49975 15.3202 6.3356V3.00701C15.3202 2.63147 15.6275 2.32422 16.003 2.32422C16.3786 2.32422 16.6858 2.63147 16.6858 3.00701V6.3356C16.6858 7.13105 16.935 7.79676 17.4027 8.26447C17.8705 8.73218 18.5396 8.9814 19.3316 8.9814H22.6602C23.0357 8.9814 23.343 9.28866 23.343 9.66419C23.343 10.0397 23.0392 10.347 22.6602 10.347Z" fill="#86888C"/>
<path d="M22.3357 26H7.34851C6.63158 26 6 25.3684 6 24.6515V3.34851C6 2.65548 6.65548 2 7.34851 2H16.3442C16.5183 2 16.689 2.06828 16.8154 2.18777L23.4725 8.50356C23.6091 8.63329 23.6842 8.81081 23.6842 8.99858V24.6515C23.6842 25.3684 23.0526 26 22.3357 26ZM7.38265 24.6344H22.3118L22.3186 24.6276V9.29218L16.0711 3.36558H7.39289C7.38265 3.3724 7.3724 3.38265 7.36558 3.39289V24.6208C7.36899 24.6242 7.37582 24.631 7.38265 24.6344Z" fill="#86888C"/>
</svg>
