<svg width="20" height="20" viewBox="0 0 20 20" fill="none" xmlns="http://www.w3.org/2000/svg">
<path fill-rule="evenodd" clip-rule="evenodd" d="M13.5795 16.7378C13.4224 16.5808 13.2061 16.4829 12.9649 16.4829C12.7031 16.4829 12.4755 16.6058 12.3161 16.7902H7.6338C7.47446 16.6058 7.24683 16.4829 6.98506 16.4829C6.74833 16.4829 6.53436 16.5785 6.37729 16.731C4.93641 16.4624 3.44089 15.2787 3.44089 13.9221V12.1967H16.5432L16.5455 13.9221C16.55 15.2901 15.0294 16.4806 13.5795 16.7378ZM3.33845 10.5395H16.6547C16.8391 10.5395 16.9871 10.6875 16.9871 10.8696C16.9871 11.0517 16.8391 11.1996 16.6547 11.1996H3.33845C3.15408 11.1996 3.00612 11.0517 3.00612 10.8696C3.00612 10.6852 3.15635 10.5395 3.33845 10.5395ZM10.9458 9.37407C11.0573 9.27846 11.3077 9.27391 11.4033 9.28757C11.5422 9.31033 11.681 9.27391 11.788 9.18741C11.8973 9.10319 11.9678 8.97799 11.9792 8.84141C12.0043 8.58192 12.1021 8.51363 12.134 8.49087C12.2979 8.37478 12.5961 8.4112 12.6849 8.42941C12.8556 8.47038 13.04 8.42258 13.1652 8.29738C13.4679 7.99464 13.6796 8.00602 13.7456 8.01512C14.062 8.04016 14.3579 8.35884 14.4444 8.47721C14.5492 8.62517 14.7267 8.70711 14.9088 8.68663C15.3299 8.64338 15.6418 8.71167 15.8421 8.88694C16.0788 9.09636 16.1243 9.42414 16.1334 9.53796H10.8707C10.8889 9.42642 10.9276 9.38772 10.9458 9.37407ZM7.11026 5.62275C7.17172 5.29724 7.45853 5.0514 7.80225 5.0514C8.14824 5.0514 8.43505 5.29952 8.49651 5.62275H7.11026ZM17.9954 10.8673C17.9954 10.3028 17.6381 9.82249 17.1373 9.63129C17.1396 9.61763 17.1464 9.60397 17.1464 9.59031C17.1487 9.50154 17.1396 8.70711 16.5272 8.15625C16.1585 7.82619 15.6645 7.66002 15.0773 7.67823C14.8428 7.43012 14.408 7.07047 13.8321 7.02266C13.5408 6.9999 13.1014 7.05226 12.6439 7.42101C12.3639 7.39597 11.9246 7.41874 11.5536 7.67596C11.3897 7.78977 11.1962 7.98326 11.0778 8.29738C10.832 8.3247 10.5361 8.40664 10.2902 8.61606C10.1058 8.77313 9.89643 9.06449 9.86911 9.54023H4.46066V4.6098C4.46066 3.83131 5.1003 3.19851 5.88334 3.19851C6.50249 3.19851 7.03514 3.59913 7.22635 4.15682C6.56395 4.39356 6.08821 5.01271 6.08821 5.75022V5.9346C6.08821 6.31474 6.40006 6.62204 6.78475 6.62204H8.82202C9.20444 6.62204 9.51629 6.31474 9.51629 5.9346V5.75022C9.51629 4.97173 8.98136 4.31844 8.2575 4.1204C8.02532 3.02323 7.04425 2.19922 5.88562 2.19922C4.54489 2.19922 3.45455 3.28045 3.45455 4.6098V9.54023H3.34073C2.60094 9.54023 2 10.1343 2 10.8696C2 11.2566 2.17072 11.6048 2.43932 11.8461V13.9244C2.43932 15.8455 4.33774 17.3866 6.22478 17.7212C6.36591 18.0012 6.65272 18.1992 6.98961 18.1992C7.29691 18.1992 7.55413 18.0308 7.70892 17.7918H12.2501C12.4026 18.0308 12.6598 18.1992 12.9671 18.1992C13.3017 18.1992 13.5863 18.0035 13.7297 17.728C15.6304 17.4093 17.5584 15.8638 17.5584 13.9244L17.5561 11.8507C17.8224 11.6048 17.9954 11.2566 17.9954 10.8673Z" fill="#86888C"/>
</svg>
