<svg width="20" height="20" viewBox="0 0 20 20" fill="none" xmlns="http://www.w3.org/2000/svg">
<path fill-rule="evenodd" clip-rule="evenodd" d="M15.7174 15.3874C14.2399 15.3874 13.5519 14.6704 13.5519 13.1301C13.5519 12.2345 13.7909 11.6261 14.2737 11.2664L15.2949 13.3354C15.3698 13.4923 15.5291 13.5913 15.7005 13.5937C15.7705 13.5937 15.8429 13.5768 15.9105 13.5406C16.1375 13.415 16.2244 13.1301 16.1085 12.8984L15.1308 10.9212C15.3118 10.8898 15.5025 10.8729 15.7174 10.8729C17.1973 10.8729 17.8853 11.5899 17.8853 13.1326C17.8853 14.6704 17.1973 15.3874 15.7174 15.3874ZM10.3796 11.8168C10.3483 11.8168 10.3217 11.8241 10.2903 11.8241L8.58348 8.19073H12.2796L10.4738 11.8241C10.4424 11.8241 10.4134 11.8192 10.3796 11.8168ZM10.3796 12.7704C10.7249 12.7704 10.8335 12.8863 10.8335 13.2436C10.8335 13.6057 10.7273 13.7168 10.3796 13.7168C10.032 13.7168 9.92577 13.6057 9.92577 13.2436C9.92577 12.8839 10.0368 12.7704 10.3796 12.7704ZM5.21811 15.3874C3.74063 15.3874 3.05017 14.6704 3.05017 13.1301C3.05017 11.5899 3.73821 10.8705 5.21811 10.8705C5.41607 10.8705 5.59714 10.885 5.76854 10.9115L4.79563 12.9032C4.7232 13.0505 4.73044 13.2243 4.81494 13.3667C4.89702 13.5068 5.04429 13.5937 5.20362 13.5937H7.35949C7.22671 14.8128 6.53867 15.3874 5.21811 15.3874ZM6.63282 11.2423C7.04323 11.532 7.28224 11.9907 7.35708 12.6401H5.94719L6.63282 11.2423ZM7.84233 8.77496L9.43086 12.1524C9.28601 12.2876 9.17496 12.4542 9.10978 12.6425H8.40725C8.30344 11.5537 7.86406 10.7377 7.11566 10.2645L7.84233 8.77496ZM15.7174 9.77443C15.3191 9.77443 14.9666 9.83479 14.6383 9.92411L13.4867 7.59925V5.4458C13.8005 5.41924 14.1868 5.4458 14.3848 5.61238C14.45 5.6679 14.5248 5.75964 14.5248 5.99382C14.5248 6.25696 14.73 6.46941 14.9811 6.46941C15.2394 6.46458 15.4422 6.25214 15.4374 5.99382C15.4374 5.39993 15.1742 5.0547 14.9545 4.87122C14.252 4.28216 13.0618 4.54048 12.929 4.56945C12.7166 4.62256 12.5693 4.8157 12.5717 5.03297V7.23954H8.13686L7.62022 6.13626H8.25998C8.5183 6.13143 8.72109 5.91898 8.71626 5.66066C8.72109 5.40234 8.5183 5.18989 8.25998 5.18507H5.90374C5.64542 5.18989 5.44263 5.40234 5.44746 5.66066C5.44746 5.92381 5.65266 6.13626 5.90374 6.13626H6.60144L7.33776 7.70548L6.25862 9.91446C5.92064 9.82272 5.57058 9.77685 5.22052 9.77443C3.17329 9.77443 2 10.9984 2 13.1301C2 15.2619 3.17329 16.4835 5.22052 16.4835C7.11083 16.4835 8.24308 15.4309 8.40725 13.5913H9.04701C9.1484 14.1707 9.51053 14.5424 10.073 14.639L10.6211 15.7809C10.6983 15.9427 10.8576 16.0441 11.0291 16.0441H11.7268C11.9851 16.0392 12.1879 15.8268 12.183 15.5709V15.5685C12.1879 15.3102 11.9851 15.0977 11.7268 15.0929H11.3091L11.0387 14.528C11.4902 14.3179 11.7485 13.8737 11.7485 13.2436C11.7485 12.7704 11.6012 12.4011 11.3381 12.1572L13.0328 8.75323L13.7909 10.2862C12.9556 10.8343 12.5017 11.8072 12.5017 13.1326C12.5017 15.2643 13.675 16.4883 15.7198 16.4883C17.767 16.4883 18.9403 15.2667 18.9403 13.1326C18.9379 10.9984 17.7646 9.77443 15.7174 9.77443Z" fill="#86888C"/>
</svg>
