<svg width="24" height="24" viewBox="0 0 24 24" fill="none" xmlns="http://www.w3.org/2000/svg">
<path fill-rule="evenodd" clip-rule="evenodd" d="M18.0036 18.2039C16.2799 18.2039 15.4772 17.3674 15.4772 15.5705C15.4772 14.5255 15.756 13.8158 16.3193 13.3961L17.5107 15.8099C17.5981 15.9929 17.7839 16.1084 17.9839 16.1112C18.0656 16.1112 18.1501 16.0915 18.229 16.0493C18.4937 15.9028 18.5951 15.5705 18.4599 15.3001L17.3192 12.9933C17.5305 12.9567 17.753 12.937 18.0036 12.937C19.7302 12.937 20.5329 13.7735 20.5329 15.5733C20.5329 17.3674 19.7302 18.2039 18.0036 18.2039ZM11.7762 14.0383C11.7396 14.0383 11.7086 14.0467 11.672 14.0467L9.68073 9.8078H13.9929L11.8861 14.0467C11.8495 14.0467 11.8157 14.0411 11.7762 14.0383ZM11.7762 15.1508C12.179 15.1508 12.3058 15.286 12.3058 15.7028C12.3058 16.1253 12.1818 16.2549 11.7762 16.2549C11.3707 16.2549 11.2467 16.1253 11.2467 15.7028C11.2467 15.2832 11.3763 15.1508 11.7762 15.1508ZM5.75446 18.2039C4.03073 18.2039 3.2252 17.3674 3.2252 15.5705C3.2252 13.7735 4.02792 12.9342 5.75446 12.9342C5.98542 12.9342 6.19666 12.9511 6.39663 12.9821L5.26156 15.3057C5.17707 15.4775 5.18552 15.6803 5.2841 15.8465C5.37986 16.0098 5.55167 16.1112 5.73756 16.1112H8.25274C8.09783 17.5336 7.29511 18.2039 5.75446 18.2039ZM7.40496 13.3679C7.88377 13.7059 8.16261 14.241 8.24992 14.9987H6.60506L7.40496 13.3679ZM8.81605 10.4894L10.6693 14.4298C10.5003 14.5875 10.3708 14.7818 10.2947 15.0015H9.47512C9.35401 13.7313 8.8414 12.7793 7.96827 12.2272L8.81605 10.4894ZM18.0036 11.6555C17.5389 11.6555 17.1277 11.7259 16.7446 11.8301L15.4011 9.11775V6.60538C15.7673 6.5744 16.2179 6.60538 16.4489 6.79973C16.5249 6.86451 16.6123 6.97154 16.6123 7.24474C16.6123 7.55174 16.8517 7.7996 17.1446 7.7996C17.446 7.79397 17.6825 7.54611 17.6769 7.24474C17.6769 6.55187 17.3699 6.1491 17.1136 5.93505C16.294 5.24781 14.9054 5.54918 14.7505 5.58298C14.5027 5.64494 14.3309 5.87026 14.3337 6.12375V8.69808H9.15967L8.55693 7.41092H9.30331C9.60468 7.40528 9.84127 7.15743 9.83564 6.85606C9.84127 6.55469 9.60468 6.30683 9.30331 6.3012H6.55436C6.25299 6.30683 6.0164 6.55469 6.02203 6.85606C6.02203 7.16306 6.26144 7.41092 6.55436 7.41092H7.36834L8.22739 9.24167L6.96839 11.8188C6.57408 11.7118 6.16568 11.6583 5.75728 11.6555C3.36884 11.6555 2 13.0834 2 15.5705C2 18.0575 3.36884 19.4826 5.75728 19.4826C7.96264 19.4826 9.2836 18.2546 9.47512 16.1084H10.2215C10.3398 16.7844 10.7623 17.2181 11.4185 17.3308L12.0579 18.663C12.148 18.8517 12.3339 18.97 12.5339 18.97H13.3479C13.6492 18.9644 13.8858 18.7165 13.8802 18.418V18.4152C13.8858 18.1138 13.6492 17.8659 13.3479 17.8603H12.8606L12.5452 17.2012C13.0719 16.9562 13.3732 16.438 13.3732 15.7028C13.3732 15.1508 13.2014 14.7199 12.8944 14.4354L14.8716 10.4641L15.756 12.2526C14.7815 12.8919 14.252 14.027 14.252 15.5733C14.252 18.0603 15.6208 19.4883 18.0065 19.4883C20.3949 19.4883 21.7637 18.0631 21.7637 15.5733C21.7609 13.0834 20.3921 11.6555 18.0036 11.6555Z" fill="#86888C"/>
</svg>
