<svg width="40" height="40" viewBox="0 0 40 40" fill="none" xmlns="http://www.w3.org/2000/svg">
<path d="M26.4718 38H8.86154C6.64103 38 4.90256 37.359 3.70256 36.0872C2.57436 34.8923 2 33.2256 2 31.1385V8.9641C2 4.60513 4.5641 2 8.86154 2H26.4718C30.7692 2 33.3333 4.60513 33.3333 8.9641V17.8103C33.3333 18.3744 32.8718 18.8359 32.3077 18.8359C31.7436 18.8359 31.2821 18.3744 31.2821 17.8103V8.9641C31.2821 7.40513 30.8923 6.19487 30.1282 5.3641C29.3282 4.49231 28.0974 4.05128 26.4718 4.05128H8.86154C7.2359 4.05128 6.00513 4.49231 5.20513 5.3641C4.44103 6.19487 4.05128 7.40513 4.05128 8.9641V31.1385C4.05128 34.3282 5.67179 35.9487 8.86154 35.9487H26.4718C29.6615 35.9487 31.2821 34.3282 31.2821 31.1385V25.4513C31.2821 24.8872 31.7436 24.4256 32.3077 24.4256C32.8718 24.4256 33.3333 24.8872 33.3333 25.4513V31.1385C33.3333 33.2256 32.759 34.8923 31.6308 36.0872C30.4308 37.3538 28.6923 38 26.4718 38Z" fill="#86888C"/>
<path d="M26.4728 11.7373H8.96509C8.40099 11.7373 7.93945 11.2758 7.93945 10.7117C7.93945 10.1476 8.40099 9.68604 8.96509 9.68604H26.4728C27.0369 9.68604 27.4984 10.1476 27.4984 10.7117C27.4984 11.2758 27.0369 11.7373 26.4728 11.7373ZM26.4728 17.963H8.96509C8.40099 17.963 7.93945 17.5014 7.93945 16.9373C7.93945 16.3732 8.40099 15.9117 8.96509 15.9117H26.4728C27.0369 15.9117 27.4984 16.3732 27.4984 16.9373C27.4984 17.5014 27.0369 17.963 26.4728 17.963ZM26.4523 24.1886H8.96509C8.40099 24.1886 7.93945 23.7271 7.93945 23.163C7.93945 22.5989 8.40099 22.1373 8.96509 22.1373H26.4523C27.0164 22.1373 27.4779 22.5989 27.4779 23.163C27.4779 23.7271 27.0164 24.1886 26.4523 24.1886ZM21.1446 30.4142H8.96509C8.40099 30.4142 7.93945 29.9527 7.93945 29.3886C7.93945 28.8245 8.40099 28.363 8.96509 28.363H21.1446C21.7087 28.363 22.1702 28.8245 22.1702 29.3886C22.1702 29.9527 21.7087 30.4142 21.1446 30.4142Z" fill="#86888C"/>
<path d="M20.637 33.335C20.0729 33.335 19.6113 32.8786 19.6113 32.3094C19.6113 32.1966 19.6267 32.0889 19.6626 31.9812L21.4216 26.735C21.478 26.5658 21.5806 26.412 21.7139 26.294C25.6883 22.7863 31.7549 17.4171 32.1703 17.0017C33.719 15.453 35.9036 15.7863 37.1241 17.0017C37.7857 17.6735 38.16 18.5761 38.1652 19.5197C38.16 20.4325 37.7959 21.2735 37.1088 21.9504C36.519 22.535 27.5857 30.4427 26.5703 31.3402C26.4677 31.4325 26.3447 31.5043 26.2113 31.5453L20.9549 33.2838C20.8524 33.3145 20.7447 33.335 20.637 33.335ZM23.2831 27.653L22.2626 30.694L25.3703 29.6684C29.3447 26.1504 35.2626 20.9043 35.678 20.494C35.9703 20.2017 36.1241 19.8735 36.1241 19.5145C36.119 19.1197 35.96 18.7402 35.6831 18.453C35.3959 18.1658 34.4729 17.612 33.6318 18.453C33.0626 19.0171 24.9549 26.1761 23.2831 27.653Z" fill="#86888C"/>
</svg>
