<svg width="40" height="40" viewBox="0 0 40 40" fill="none" xmlns="http://www.w3.org/2000/svg">
<path fill-rule="evenodd" clip-rule="evenodd" d="M25.5103 34.6204C25.6639 34.8764 25.8944 35.2451 26.0685 35.4602C26.2067 35.6394 26.345 35.7572 26.473 35.8084L26.5345 35.7879C26.5293 35.7572 26.6727 35.6394 26.8007 35.4755C27.0312 35.1888 27.2718 34.774 27.4101 34.5384L27.5125 34.3695C28.5213 32.5363 29.1306 31.2049 29.8885 29.1515C30.3698 27.8714 30.7744 26.5809 31.1277 25.1881C31.2147 24.8758 31.3018 24.5071 31.3991 24.1026L31.5988 23.4778C33.4064 20.3542 34.6814 17.2716 35.3932 14.317C36.2534 10.7069 35.5878 7.74719 33.5139 5.98569C32.3105 4.95131 30.6566 4.33172 28.849 4.23954C26.8827 4.13201 24.8498 4.62871 22.9602 5.67845C22.2587 6.07274 21.5418 6.47727 20.7532 6.94837C20.6252 7.02518 20.3692 7.1788 20.0005 7.1788C19.6165 7.1788 19.3553 7.02006 19.2324 6.94837C18.4438 6.48239 17.7269 6.07274 17.0254 5.67845C15.1359 4.62871 13.103 4.12177 11.1418 4.23954C9.32906 4.33172 7.67509 4.95131 6.47686 5.98057C4.39788 7.74719 3.73219 10.7018 4.59246 14.317C5.30423 17.2665 6.57927 20.3491 8.38686 23.4778L8.50464 23.7697L8.59169 24.1333C8.68898 24.5276 8.77603 24.886 8.85284 25.1779C9.21129 26.5861 9.61582 27.8816 10.092 29.1464C10.855 31.2049 11.4593 32.5363 12.4987 34.4155L12.5756 34.5436C12.7138 34.7791 12.9596 35.1939 13.1747 35.4653C13.3129 35.6445 13.4512 35.7623 13.5792 35.8135L13.6407 35.793C13.6355 35.7623 13.7789 35.6445 13.9069 35.4806C14.0861 35.2553 14.3166 34.8918 14.4702 34.6357V34.6204L14.6085 34.3695C14.6955 34.2158 14.9515 33.5297 15.182 32.9254C17.0971 27.8816 18.3056 25.48 19.9903 25.48C21.6801 25.48 22.8885 27.8816 24.8037 32.9254C25.0341 33.5297 25.2901 34.2158 25.3772 34.3695L25.5103 34.6204ZM26.5498 38H26.3399C26.0531 38 25.838 37.9283 25.7049 37.8822C25.1468 37.662 24.7013 37.319 24.3223 36.8376C23.9588 36.3921 23.5491 35.6803 23.4365 35.4704L23.2982 35.1683C23.1651 34.8713 22.991 34.4155 22.7196 33.6987C22.2382 32.4287 20.8505 28.7777 19.9851 27.8253C19.1197 28.7777 17.7372 32.4339 17.2558 33.6987C16.9896 34.4053 16.8155 34.8559 16.6823 35.1529L16.667 35.2246L16.5338 35.4704C16.4212 35.6803 16.0115 36.3921 15.6377 36.8479C15.2741 37.3138 14.8286 37.6569 14.3268 37.8566C14.1374 37.9232 13.9223 37.9949 13.6509 37.9949H13.4461C13.1593 37.9949 12.9442 37.9232 12.8111 37.8771C12.253 37.6569 11.8075 37.3138 11.4337 36.8325C11.1418 36.474 10.8397 35.962 10.6604 35.6547L10.5785 35.5165C9.45196 33.4785 8.81188 32.0754 8.00794 29.9043C7.50611 28.5678 7.07598 27.2005 6.70217 25.7207C6.62536 25.4288 6.53319 25.0499 6.43077 24.6402L6.37957 24.4303C4.50541 21.1684 3.17916 17.9322 2.43155 14.8137C1.36645 10.3536 2.28817 6.61041 5.02772 4.28563C6.59464 2.9389 8.72483 2.13496 11.024 2.01718C13.3897 1.88917 15.8477 2.47804 18.1059 3.7326C18.7152 4.07568 19.3297 4.42389 19.9903 4.81306C20.6713 4.41365 21.2807 4.07056 21.8747 3.73772C24.1329 2.48316 26.5959 1.88917 28.9668 2.01718C31.2608 2.13496 33.391 2.9389 34.963 4.29075C37.6975 6.61553 38.6192 10.3536 37.5541 14.8137C36.8065 17.9322 35.4751 21.1633 33.6061 24.4303L33.56 24.6095C33.4576 25.0345 33.3654 25.4237 33.2784 25.736C32.9097 27.1903 32.4846 28.5575 31.9726 29.9094C31.1738 32.0703 30.5337 33.4733 29.4327 35.4653L29.3252 35.6496C29.146 35.9569 28.8439 36.4638 28.5417 36.8376C28.1782 37.3036 27.7327 37.6467 27.2309 37.8464C27.0414 37.9283 26.8212 38 26.5498 38Z" fill="#86888C"/>
</svg>
