<svg width="24" height="24" viewBox="0 0 24 24" fill="none" xmlns="http://www.w3.org/2000/svg">
<path fill-rule="evenodd" clip-rule="evenodd" d="M16.7536 18.9143C16.7507 18.9143 16.745 18.9115 16.7422 18.9115C16.5714 18.9115 16.3324 18.8432 16.0905 18.6867C15.8372 18.5244 15.675 18.348 15.6124 18.1659C15.49 17.813 15.0973 17.6252 14.7388 17.7447C14.3773 17.8642 14.1838 18.2456 14.309 18.5984C14.4741 19.0737 14.8184 19.4806 15.3364 19.8136C15.4701 19.8989 15.6067 19.9701 15.7405 20.0298C15.4274 20.5079 14.9209 20.7498 14.2038 20.7498C13.3045 20.7498 12.9431 19.8278 12.8577 19.5631C12.8606 19.3326 12.8634 18.7635 12.8577 18.624V5.57054C12.8577 5.39411 12.8634 4.76235 12.8662 4.49485C12.9829 4.22734 13.3927 3.44476 14.2038 3.44476C14.9266 3.44476 15.4246 3.67811 15.7348 4.1562C15.0632 4.47493 14.6107 5.08107 14.4001 5.6673L14.3375 5.85227L15.6522 6.25353L15.6978 6.11408C15.8116 5.80105 16.0933 5.28881 16.7393 5.28028H16.7479C19.6392 5.28028 19.9522 7.87845 19.9522 8.99684C19.9522 9.30987 19.9095 10.2376 19.5139 11.0856C19.0558 10.7982 18.572 10.6332 18.1309 10.5506C18.1651 10.0896 17.9744 9.65421 17.6642 9.33548C17.6614 9.33264 17.5959 9.26434 17.5931 9.26149C17.3312 8.99115 16.9271 9.01391 16.6511 9.27003C16.3751 9.52615 16.395 9.98432 16.6568 10.2518C16.7507 10.3486 16.7706 10.4169 16.7507 10.4823H16.745C16.6397 10.4937 16.5117 10.5079 16.3921 10.5222C16.2869 10.5364 16.1446 10.562 15.9738 10.599C15.6039 10.6815 15.3734 11.0429 15.4587 11.4072C15.5441 11.7715 15.9197 11.9991 16.284 11.9109C16.4035 11.8853 16.5031 11.8654 16.5771 11.8568C16.6767 11.8454 16.7877 11.8312 16.8845 11.8227C17.2316 11.7857 18.4098 11.7373 19.1668 12.5256C19.8924 13.4789 19.9493 14.8079 19.9493 15.1949C19.9579 16.3104 19.6477 18.8659 16.7536 18.9143ZM10.1315 20.7527C9.42288 20.7527 8.93341 20.525 8.62038 20.064C8.77974 19.9985 8.94195 19.9189 9.10131 19.8164C9.61924 19.4835 9.96642 19.0765 10.1286 18.6013C10.251 18.2484 10.0575 17.8671 9.69892 17.7476C9.33751 17.628 8.94764 17.8158 8.82527 18.1687C8.76266 18.3509 8.60046 18.5273 8.34718 18.6895C8.10529 18.846 7.87479 18.9143 7.6955 18.9115C7.6642 18.9086 7.63574 18.92 7.60444 18.9228C7.5959 18.9228 7.58736 18.92 7.58167 18.92C4.69038 18.92 4.37735 16.319 4.37735 15.2034C4.37735 14.8762 4.42288 13.8716 4.87536 12.9923C5.0774 13.0634 5.29653 13.1147 5.53557 13.1403C5.60102 13.7663 6.04496 14.216 6.57997 14.4152C6.59135 14.4209 6.6881 14.455 6.69949 14.4579C6.77063 14.4835 6.84178 14.492 6.91007 14.492C7.18327 14.492 7.42516 14.3127 7.53045 14.0367C7.66135 13.6923 7.43938 13.2939 7.08936 13.163C6.95845 13.1147 6.91292 13.0577 6.90438 12.9866C7.74104 12.6423 8.1309 11.854 8.20774 11.1283L8.22481 10.9462C8.24474 10.5762 7.95731 10.2575 7.57598 10.2347C7.18327 10.2148 6.87023 10.4966 6.84747 10.8693L6.83608 10.9917C6.74217 11.8938 6.00228 11.8284 5.75754 11.8141C5.47866 11.7914 5.26807 11.7145 5.12578 11.6064C4.4428 10.6588 4.38304 9.37817 4.38304 8.99968C4.38304 7.8813 4.69607 5.28312 7.66705 5.28312H7.67274C8.31872 5.28312 8.62891 5.80105 8.7399 6.11124L8.79397 6.27629C8.88788 6.55518 9.14969 6.72592 9.43426 6.72592C9.50825 6.72592 9.58509 6.71454 9.65908 6.68893C10.0205 6.5751 10.2112 6.17669 10.0945 5.82382L10.0433 5.67299C9.82413 5.06115 9.35458 4.44362 8.63176 4.13628C8.94764 3.6838 9.43995 3.45045 10.1372 3.45045C11.0364 3.45045 11.3978 4.37532 11.4832 4.63713C11.4804 4.86764 11.4775 5.43679 11.4832 5.57624V18.6326C11.4832 18.809 11.4775 19.4379 11.4747 19.7083C11.3552 19.9701 10.9454 20.7527 10.1315 20.7527ZM21.3352 8.99684C21.3352 6.77715 20.2538 4.20458 17.1776 3.95984C16.6796 2.77032 15.6209 2.10156 14.2038 2.10156C13.2334 2.10156 12.576 2.58534 12.1548 3.08335C11.7109 2.55119 11.0563 2.10156 10.1315 2.10156C8.71713 2.10156 7.66135 2.76747 7.1605 3.95131C4.10131 4.16758 3 6.76292 3 8.99968C3 9.56884 3.08537 10.9234 3.79966 12.0987C3.08537 13.2769 3 14.6343 3 15.2034C3 17.4231 4.08139 19.9957 7.15766 20.2433C7.65566 21.43 8.71429 22.1016 10.1315 22.1016C11.1019 22.1016 11.7592 21.6178 12.1804 21.1198C12.6244 21.6519 13.2789 22.1016 14.2038 22.1016C15.6181 22.1016 16.6739 21.4357 17.1747 20.2518C20.2368 20.0355 21.3352 17.4402 21.3352 15.2034C21.3352 14.6343 21.2499 13.2826 20.5356 12.1044C21.2499 10.9234 21.3352 9.56599 21.3352 8.99684Z" fill="#86888C"/>
</svg>
