<svg width="24" height="24" viewBox="0 0 24 24" fill="none" xmlns="http://www.w3.org/2000/svg">
<path fill-rule="evenodd" clip-rule="evenodd" d="M13.0528 17.8354C13.3106 17.5807 13.7267 17.5807 13.9814 17.8354C14.2391 18.0901 14.2391 18.5031 13.9814 18.7547C13.354 19.3727 12.677 19.6957 11.9658 19.705H11.9255C11.205 19.705 10.5124 19.3851 9.87267 18.7516C9.61491 18.4969 9.61491 18.087 9.87267 17.8323C10.1304 17.5776 10.5466 17.5776 10.8012 17.8323C11.1925 18.2205 11.5807 18.4068 11.9441 18.4068C12.3043 18.4006 12.677 18.2081 13.0528 17.8354ZM20.4689 16.5807C21.1584 16.5714 21.5093 16.1988 21.5093 15.4752C21.5093 14.7578 21.1677 14.3944 20.4938 14.382L20.4503 14.7671C20.4472 14.8665 20.4348 14.9441 20.4317 15.0435C20.4037 15.5031 20.354 16.028 20.264 16.5745C20.2888 16.5745 20.3075 16.5776 20.323 16.5776L20.4689 16.5807ZM19.1801 12.8292V11.8882C19.1739 11.8509 19.1677 11.8137 19.1677 11.7733C19.1646 11.6553 19.1553 11.5528 19.1522 11.4379H4.60559L4.59627 13.7733C4.60559 13.8106 4.6087 13.8478 4.6087 13.8851C4.73602 18.6615 5.97515 20.7019 8.74534 20.7019C8.91925 20.7019 9.08385 20.6925 9.24224 20.6832L14.4969 20.6801C14.9006 20.705 15.2081 20.705 15.5311 20.6832H15.6429C15.6739 20.677 15.705 20.6708 15.736 20.6677C17.1366 20.528 19.0155 19.6708 19.1677 13.8882C19.1677 13.8478 19.1708 13.8106 19.1801 13.7733V12.8292ZM8.74534 4.95963C5.95031 4.95963 4.86025 6.28571 4.64286 10.1398H7.5559C7.73602 8.21429 8.40062 6.67702 9.5559 5.57143C9.75155 5.38509 9.96273 5.21739 10.1832 5.0559C9.81056 5.01242 9.43168 4.96894 9.02174 4.96894L8.74534 4.95963ZM12.0652 5.52174C11.4565 5.77019 10.9099 6.08385 10.4689 6.50311C9.57143 7.36335 9.04348 8.58385 8.87578 10.1366H15.2516C15.0838 8.58385 14.5559 7.36025 13.6584 6.50311C13.2205 6.08385 12.6739 5.77019 12.0652 5.52174ZM15.0714 4.96584C14.6615 4.96584 14.3199 5.01242 13.9472 5.0559C14.1677 5.21739 14.3789 5.38509 14.5714 5.57143C15.7267 6.67702 16.3944 8.21429 16.5714 10.1398H19.059C18.6211 5.8354 16.9876 5.12422 15.7329 4.99689L15.5714 4.98137C15.3975 4.96894 15.2516 4.96584 15.1056 4.96584H15.0714ZM3.49689 16.5807C3.50311 16.5807 3.51242 16.5776 3.51863 16.5776C3.44099 16.0683 3.38509 15.559 3.35093 15.0559C3.35093 14.9503 3.3323 14.8851 3.3323 14.7826L3.28571 14.3882C2.64907 14.4161 2.31677 14.7764 2.31677 15.4752C2.31677 16.1988 2.6646 16.5714 3.35714 16.5807H3.49689ZM20.5 13.0776C21.5745 13.087 22.8261 13.7205 22.8261 15.4721C22.8261 17.2236 21.5683 17.8634 20.4876 17.8789H20.3043C20.2329 17.8789 20.1335 17.8727 20.0124 17.8571C20.0062 17.8571 20.0031 17.854 19.9969 17.8509C19.4814 19.7578 18.3913 21.6149 16.0435 21.9348C15.972 21.9627 15.8944 21.9783 15.8137 21.9783H15.5745C15.4286 21.9907 15.236 22 15.0342 22C14.8323 22 14.6429 21.9876 14.4565 21.9783H9.28882C9.14286 21.9907 8.95031 22 8.74534 22C5.75155 22 4.40062 20.118 3.78882 17.8571C3.67702 17.8696 3.58385 17.8758 3.51863 17.8758H3.3354C2.25776 17.8602 1 17.2205 1 15.4689C1 13.7391 2.2236 13.1025 3.28571 13.0776L3.29193 11.4348H1.65839C1.29503 11.4348 1 11.1429 1 10.7857C1 10.4255 1.29503 10.1366 1.65839 10.1366H3.32298C3.50932 6.68012 4.43168 3.65839 8.74534 3.65839C8.95031 3.65839 9.14286 3.6677 9.3323 3.68323H10.8975C10.8292 3.52484 10.7826 3.34783 10.7826 3.13043C10.7826 2.76087 10.8851 2.47205 11.087 2.2795C11.2826 2.09317 11.5652 2 11.9255 2C12.2857 2 12.5683 2.09317 12.764 2.2795C12.9658 2.47516 13.0714 2.76087 13.0714 3.13043C13.0714 3.34472 13.028 3.52484 12.9596 3.68323H14.4969C14.7857 3.66149 15.2422 3.66149 15.6211 3.68634L15.8199 3.69876C15.9037 3.70807 15.9752 3.71739 16.0559 3.72981C19.6149 4.2236 20.3199 8.24845 20.472 10.6149C20.4752 10.7143 20.4907 10.7888 20.5 10.8975L20.4969 12.8385L20.5 13.0776ZM9.92236 15.441C9.92236 15.8012 9.62733 16.0901 9.26398 16.0901C8.90062 16.0901 8.60559 15.7981 8.60559 15.441V13.4099C8.60559 13.0497 8.90062 12.7609 9.26398 12.7609C9.62733 12.7609 9.92236 13.0528 9.92236 13.4099V15.441ZM14.5062 12.7609C14.8696 12.7609 15.1646 13.0528 15.1646 13.4099V15.441C15.1646 15.8012 14.8696 16.0901 14.5062 16.0901C14.1429 16.0901 13.8478 15.7981 13.8478 15.441V13.4099C13.8478 13.0528 14.1429 12.7609 14.5062 12.7609Z" fill="#86888C"/>
</svg>
