<svg width="40" height="40" viewBox="0 0 40 40" fill="none" xmlns="http://www.w3.org/2000/svg">
<path fill-rule="evenodd" clip-rule="evenodd" d="M21.8799 29.1284C22.3051 28.7082 22.9915 28.7082 23.4115 29.1284C23.8367 29.5486 23.8367 30.2301 23.4115 30.6452C22.3768 31.6649 21.2601 32.1978 20.0871 32.2132H20.0205C18.8321 32.2132 17.6898 31.6854 16.6346 30.6401C16.2094 30.2199 16.2094 29.5435 16.6346 29.1233C17.0598 28.7031 17.7462 28.7031 18.1662 29.1233C18.8116 29.7638 19.4519 30.0713 20.0512 30.0713C20.6454 30.061 21.2601 29.7433 21.8799 29.1284ZM34.1121 27.0582C35.2493 27.0429 35.8281 26.4279 35.8281 25.234C35.8281 24.0503 35.2647 23.4508 34.1531 23.4303L34.0814 24.0657C34.0763 24.2297 34.0558 24.3578 34.0507 24.5217C34.0046 25.2801 33.9226 26.1461 33.774 27.048C33.815 27.048 33.8458 27.0531 33.8714 27.0531L34.1121 27.0582ZM31.9863 20.8682V19.3155C31.9761 19.254 31.9659 19.1925 31.9659 19.1259C31.9607 18.9312 31.9454 18.7621 31.9402 18.5725H7.94707L7.9317 22.4259C7.94707 22.4874 7.95219 22.5489 7.95219 22.6104C8.16221 30.4915 10.206 33.8581 14.7752 33.8581C15.062 33.8581 15.3335 33.8427 15.5948 33.8273L24.2618 33.8222C24.9277 33.8632 25.4348 33.8632 25.9676 33.8273H26.152C26.2032 33.8171 26.2544 33.8068 26.3056 33.8017C28.6158 33.5711 31.7149 32.1568 31.9659 22.6155C31.9659 22.5489 31.971 22.4874 31.9863 22.4259V20.8682ZM14.7752 7.88338C10.1651 7.88338 8.3671 10.0714 8.00854 16.4306H12.8133C13.1104 13.2536 14.2066 10.7171 16.1121 8.89286C16.4348 8.5854 16.7832 8.3087 17.1468 8.04224C16.5322 7.9705 15.9072 7.89876 15.2311 7.89876L14.7752 7.88338ZM20.251 8.81087C19.247 9.22081 18.3455 9.73835 17.6181 10.4301C16.1377 11.8495 15.2669 13.8634 14.9903 16.4255H25.5065C25.2299 13.8634 24.3591 11.8444 22.8788 10.4301C22.1565 9.73835 21.255 9.22081 20.251 8.81087ZM25.2094 7.89363C24.5333 7.89363 23.9698 7.9705 23.3552 8.04224C23.7188 8.3087 24.0672 8.5854 24.3847 8.89286C26.2903 10.7171 27.3916 13.2536 27.6836 16.4306H31.7866C31.0643 9.32842 28.3699 8.15497 26.3005 7.94488L26.0341 7.91925C25.7473 7.89876 25.5065 7.89363 25.2658 7.89363H25.2094ZM6.11838 27.0582C6.12863 27.0582 6.144 27.0531 6.15424 27.0531C6.02618 26.2127 5.93398 25.3724 5.87763 24.5422C5.87763 24.368 5.8469 24.2604 5.8469 24.0913L5.77006 23.4405C4.71998 23.4866 4.17188 24.0811 4.17188 25.234C4.17188 26.4279 4.74559 27.0429 5.88788 27.0582H6.11838ZM34.1633 21.2781C35.9357 21.2935 38 22.3388 38 25.2289C38 28.1189 35.9254 29.1745 34.1429 29.2002H33.8406C33.7228 29.2002 33.5589 29.1899 33.3591 29.1643C33.3489 29.1643 33.3438 29.1592 33.3335 29.154C32.4832 32.3003 30.6853 35.3646 26.8127 35.8924C26.6949 35.9385 26.5669 35.9641 26.4337 35.9641H26.0393C25.7985 35.9846 25.4809 36 25.148 36C24.815 36 24.5026 35.9795 24.1952 35.9641H15.6716C15.4308 35.9846 15.1133 36 14.7752 36C9.83722 36 7.60899 32.8947 6.59989 29.1643C6.41548 29.1848 6.26181 29.195 6.15424 29.195H5.85202C4.07456 29.1694 2 28.1138 2 25.2238C2 22.3696 4.01821 21.3191 5.77006 21.2781L5.78031 18.5674H3.08594C2.48662 18.5674 2 18.0857 2 17.4964C2 16.902 2.48662 16.4255 3.08594 16.4255H5.83153C6.13887 10.7222 7.66022 5.73634 14.7752 5.73634C15.1133 5.73634 15.4308 5.75171 15.7433 5.77733H18.325C18.2123 5.51599 18.1355 5.22391 18.1355 4.86522C18.1355 4.25543 18.3045 3.77888 18.6374 3.46118C18.9602 3.15373 19.4263 3 20.0205 3C20.6147 3 21.0808 3.15373 21.4035 3.46118C21.7365 3.78401 21.9106 4.25543 21.9106 4.86522C21.9106 5.21879 21.8389 5.51599 21.7262 5.77733H24.2618C24.7382 5.74146 25.4912 5.74146 26.1161 5.78245L26.4439 5.80295C26.5822 5.81832 26.7001 5.8337 26.8332 5.85419C32.7035 6.66894 33.8662 13.3099 34.1172 17.2146C34.1224 17.3786 34.148 17.5016 34.1633 17.6809L34.1582 20.8835L34.1633 21.2781ZM16.7166 25.1776C16.7166 25.7721 16.2299 26.2486 15.6306 26.2486C15.0313 26.2486 14.5447 25.7669 14.5447 25.1776V21.8264C14.5447 21.232 15.0313 20.7554 15.6306 20.7554C16.2299 20.7554 16.7166 21.2371 16.7166 21.8264V25.1776ZM24.2772 20.7554C24.8765 20.7554 25.3631 21.2371 25.3631 21.8264V25.1776C25.3631 25.7721 24.8765 26.2486 24.2772 26.2486C23.6779 26.2486 23.1912 25.7669 23.1912 25.1776V21.8264C23.1912 21.2371 23.6779 20.7554 24.2772 20.7554Z" fill="#86888C"/>
</svg>
