<svg width="28" height="28" viewBox="0 0 28 28" fill="none" xmlns="http://www.w3.org/2000/svg">
<path fill-rule="evenodd" clip-rule="evenodd" d="M15.4634 21.0025C15.7727 20.6969 16.272 20.6969 16.5776 21.0025C16.887 21.3081 16.887 21.8037 16.5776 22.1056C15.8248 22.8472 15.0124 23.2348 14.159 23.246H14.1106C13.246 23.246 12.4149 22.8621 11.6472 22.1019C11.3379 21.7963 11.3379 21.3043 11.6472 20.9988C11.9565 20.6932 12.4559 20.6932 12.7615 20.9988C13.2311 21.4646 13.6969 21.6882 14.1329 21.6882C14.5652 21.6807 15.0124 21.4497 15.4634 21.0025ZM24.3627 19.4969C25.1901 19.4857 25.6112 19.0385 25.6112 18.1702C25.6112 17.3093 25.2012 16.8733 24.3925 16.8584L24.3404 17.3205C24.3366 17.4398 24.3217 17.5329 24.318 17.6522C24.2845 18.2037 24.2248 18.8335 24.1168 19.4894C24.1466 19.4894 24.1689 19.4932 24.1876 19.4932L24.3627 19.4969ZM22.8162 14.995V13.8658C22.8087 13.8211 22.8012 13.7764 22.8012 13.728C22.7975 13.5863 22.7863 13.4634 22.7826 13.3255H5.32671L5.31553 16.128C5.32671 16.1727 5.33043 16.2174 5.33043 16.2621C5.48323 21.9938 6.97019 24.4422 10.2944 24.4422C10.5031 24.4422 10.7006 24.4311 10.8907 24.4199L17.1963 24.4161C17.6807 24.446 18.0497 24.446 18.4373 24.4199H18.5714C18.6087 24.4124 18.646 24.405 18.6832 24.4012C20.364 24.2335 22.6186 23.205 22.8012 16.2658C22.8012 16.2174 22.805 16.1727 22.8162 16.128V14.995ZM10.2944 5.55155C6.94037 5.55155 5.6323 7.14286 5.37143 11.7677H8.86708C9.08323 9.45714 9.88075 7.61242 11.2671 6.28571C11.5019 6.06211 11.7553 5.86087 12.0199 5.66708C11.5727 5.61491 11.118 5.56273 10.6261 5.56273L10.2944 5.55155ZM14.2783 6.22609C13.5478 6.52422 12.8919 6.90062 12.3627 7.40373C11.2857 8.43603 10.6522 9.90062 10.4509 11.764H18.1019C17.9006 9.90062 17.2671 8.4323 16.1901 7.40373C15.6646 6.90062 15.0087 6.52422 14.2783 6.22609ZM17.8857 5.55901C17.3938 5.55901 16.9839 5.61491 16.5366 5.66708C16.8012 5.86087 17.0547 6.06211 17.2857 6.28571C18.6721 7.61242 19.4733 9.45714 19.6857 11.7677H22.6708C22.1453 6.60248 20.1851 5.74907 18.6795 5.59627L18.4857 5.57764C18.277 5.56273 18.1019 5.55901 17.9267 5.55901H17.8857ZM3.99627 19.4969C4.00373 19.4969 4.01491 19.4932 4.02236 19.4932C3.92919 18.882 3.86211 18.2708 3.82112 17.6671C3.82112 17.5404 3.79876 17.4621 3.79876 17.3391L3.74286 16.8658C2.97888 16.8994 2.58012 17.3317 2.58012 18.1702C2.58012 19.0385 2.99752 19.4857 3.82857 19.4969H3.99627ZM24.4 15.2932C25.6894 15.3043 27.1913 16.0646 27.1913 18.1665C27.1913 20.2683 25.682 21.036 24.3851 21.0547H24.1652C24.0795 21.0547 23.9602 21.0472 23.8149 21.0286C23.8075 21.0286 23.8037 21.0248 23.7963 21.0211C23.1776 23.3093 21.8696 25.5379 19.0522 25.9217C18.9665 25.9553 18.8733 25.9739 18.7764 25.9739H18.4894C18.3143 25.9888 18.0832 26 17.841 26C17.5988 26 17.3714 25.9851 17.1478 25.9739H10.9466C10.7714 25.9888 10.5404 26 10.2944 26C6.70186 26 5.08075 23.7416 4.34658 21.0286C4.21242 21.0435 4.10062 21.0509 4.02236 21.0509H3.80248C2.50932 21.0323 1 20.2646 1 18.1627C1 16.087 2.46832 15.323 3.74286 15.2932L3.75031 13.3217H1.79006C1.35404 13.3217 1 12.9714 1 12.5429C1 12.1106 1.35404 11.764 1.79006 11.764H3.78758C4.01118 7.61615 5.11801 3.99006 10.2944 3.99006C10.5404 3.99006 10.7714 4.00124 10.9988 4.01988H12.877C12.795 3.82981 12.7391 3.61739 12.7391 3.35652C12.7391 2.91304 12.8621 2.56646 13.1043 2.3354C13.3391 2.1118 13.6783 2 14.1106 2C14.5429 2 14.882 2.1118 15.1168 2.3354C15.359 2.57019 15.4857 2.91304 15.4857 3.35652C15.4857 3.61366 15.4335 3.82981 15.3516 4.01988H17.1963C17.5429 3.99379 18.0907 3.99379 18.5453 4.0236L18.7839 4.03851C18.8845 4.04969 18.9702 4.06087 19.0671 4.07578C23.3379 4.66832 24.1839 9.49814 24.3665 12.3379C24.3702 12.4571 24.3888 12.5466 24.4 12.677L24.3963 15.0062L24.4 15.2932ZM11.7068 18.1292C11.7068 18.5615 11.3528 18.9081 10.9168 18.9081C10.4807 18.9081 10.1267 18.5578 10.1267 18.1292V15.6919C10.1267 15.2596 10.4807 14.913 10.9168 14.913C11.3528 14.913 11.7068 15.2634 11.7068 15.6919V18.1292ZM17.2075 14.913C17.6435 14.913 17.9975 15.2634 17.9975 15.6919V18.1292C17.9975 18.5615 17.6435 18.9081 17.2075 18.9081C16.7714 18.9081 16.4174 18.5578 16.4174 18.1292V15.6919C16.4174 15.2634 16.7714 14.913 17.2075 14.913Z" fill="#86888C"/>
</svg>
