<svg width="28" height="28" viewBox="0 0 28 28" fill="none" xmlns="http://www.w3.org/2000/svg">
<path fill-rule="evenodd" clip-rule="evenodd" d="M23.8893 20.2588C23.6571 20.4943 23.354 20.6362 23.0734 20.6491C23.0766 20.562 23.0927 20.4846 23.0927 20.3975C23.0927 18.1786 21.7253 16.7982 19.5225 16.7982C17.3197 16.7982 15.949 18.1786 15.949 20.3975C15.949 20.4878 15.9651 20.5684 15.9716 20.6555H12.1272C12.1304 20.5684 12.1465 20.4878 12.1465 20.3975C12.1465 18.1786 10.7791 16.7982 8.57629 16.7982C6.37351 16.7982 5.00605 18.1786 5.00605 20.3975V20.4072C4.93187 20.3588 4.84479 20.3265 4.78029 20.2588C4.52872 20.0073 4.38682 19.6912 4.38682 19.3913V14.8889H17.8744C17.9196 14.8889 22.6767 14.718 24.2796 17.9915V19.3913C24.2796 19.6912 24.1377 20.0073 23.8893 20.2588ZM19.5192 22.6035C18.0679 22.6035 17.3326 21.8617 17.3326 20.4007C17.3326 18.9397 18.0679 18.1979 19.5192 18.1979C20.9706 18.1979 21.7059 18.9397 21.7059 20.4007C21.7059 21.8617 20.9706 22.6035 19.5192 22.6035ZM8.57307 22.6035C7.12175 22.6035 6.38641 21.8617 6.38641 20.4007C6.38641 18.9397 7.12175 18.1979 8.57307 18.1979C10.0244 18.1979 10.7597 18.9397 10.7597 20.4007C10.7597 21.8617 10.0244 22.6035 8.57307 22.6035ZM4.78029 8.79016C5.02862 8.5386 5.34469 8.39347 5.6414 8.39347H9.48256V13.4924H4.38682V9.65773C4.38682 9.36424 4.53195 9.0385 4.78029 8.79016ZM10.8662 13.4924H15.92V8.39347H10.8662V13.4924ZM24.2796 15.4985V15.6662C21.8478 13.3376 18.0067 13.4828 17.8389 13.4924H17.3036V8.39347H18.5162C18.7517 8.3967 24.2796 8.49345 24.2796 15.4985ZM23.4152 9.09333C21.335 7.00665 18.613 6.99698 18.5195 7.0002H5.6414C4.97702 7.0002 4.30619 7.29369 3.79984 7.80327C3.29026 8.31284 3 8.99012 3 9.66096V19.3913C3 20.0589 3.29026 20.7361 3.79984 21.2489C4.20943 21.6618 4.72546 21.9133 5.30599 22.0069C5.81879 23.2614 6.97339 24 8.57629 24C10.1598 24 11.3016 23.2776 11.824 22.052H16.2747C16.7972 23.2776 17.9389 24 19.5225 24C21.106 24 22.2477 23.2776 22.7702 22.052H23.0282C23.6926 22.052 24.3634 21.7585 24.873 21.2457C25.3794 20.7361 25.6696 20.0589 25.6696 19.388V15.4953C25.6664 12.7474 24.9085 10.593 23.4152 9.09333Z" fill="#86888C"/>
</svg>
