<svg width="41" height="40" viewBox="0 0 41 40" fill="none" xmlns="http://www.w3.org/2000/svg">
<path d="M30.5289 38C28.9441 38 27.1286 37.6102 25.1745 36.8305C21.1792 35.2352 16.8044 32.1318 12.5271 27.8537L12.5168 27.8434L12.3783 27.7101L12.3681 27.6998C8.09072 23.4217 4.98784 19.0462 3.39281 15.0503C1.87471 11.2236 1.8388 7.95607 3.29536 5.84782L3.32614 5.80165L3.34665 5.77087C3.52616 5.52465 4.05954 4.78086 4.61857 4.24739C6.20848 2.72903 7.83429 1.97498 9.43958 2.00063C10.9885 2.03141 12.5219 2.79059 13.9939 4.26278C14.5478 4.80651 15.035 5.42206 15.4351 6.09403C16.2249 7.36617 16.5121 8.67934 16.2864 9.99764C16.0608 11.3159 15.3274 12.6035 14.0965 13.8346C13.8093 14.1218 13.5067 14.3937 13.1887 14.645C13.0707 14.8605 13.1425 15.5376 14.0965 16.9328C15.1991 18.5435 17.0455 20.4466 18.3379 21.7392L18.4918 21.8931C19.7842 23.1858 21.687 25.0273 23.2974 26.1353C24.6873 27.0894 25.3694 27.1612 25.5848 27.0432C25.8361 26.7252 26.1028 26.4225 26.3951 26.1353C27.626 24.9042 28.9134 24.1707 30.2314 23.945C31.5495 23.7193 32.8625 24.0065 34.1344 24.7965C34.8011 25.1966 35.4166 25.6788 35.9654 26.2379C37.4373 27.7101 38.1964 29.2387 38.2271 30.7929C38.2579 32.3985 37.504 34.0246 35.9807 35.6147C35.4474 36.1739 34.7037 36.7073 34.4575 36.8869L34.4267 36.9074C34.4113 36.9177 34.396 36.9279 34.3806 36.9433C33.3446 37.6461 32.0367 38 30.5289 38ZM13.9785 26.4123C18.0558 30.4903 22.1896 33.4347 25.9284 34.9274C29.0364 36.1636 31.6829 36.2816 33.1907 35.2557L33.2523 35.2146C33.8062 34.8145 34.2216 34.4709 34.4883 34.1939C36.7244 31.8548 36.7295 29.9055 34.5037 27.6844C34.078 27.2484 33.601 26.8739 33.083 26.561L33.0522 26.5457C32.2009 26.0173 31.3854 25.8275 30.5648 25.966C29.6775 26.1148 28.7595 26.6585 27.8363 27.5818C27.5748 27.8383 27.3337 28.1102 27.1132 28.4026C27.0773 28.4436 27.0414 28.4846 27.0055 28.5205C26.5695 28.9258 25.7848 29.3413 24.5437 29.0232C23.841 28.8437 23.0512 28.4539 22.1332 27.8229C20.3843 26.6226 18.3892 24.6887 17.0404 23.3397L16.8865 23.1858C15.5376 21.8367 13.6041 19.8413 12.404 18.087C11.7731 17.1688 11.3782 16.3788 11.2039 15.6761C10.891 14.4347 11.3064 13.6499 11.7065 13.2139C11.7424 13.1729 11.7834 13.1369 11.8244 13.1062C12.1168 12.8856 12.3886 12.6445 12.645 12.3829C13.5682 11.4596 14.1118 10.5414 14.2606 9.65396C14.3991 8.8281 14.2093 8.01763 13.681 7.16612L13.6656 7.13534C13.3528 6.61725 12.9784 6.13507 12.5425 5.71445C10.3217 3.49334 8.3728 3.49847 6.0341 5.73496C5.75715 6.0017 5.41353 6.4172 5.01349 6.97119L4.96733 7.03275C3.94158 8.54084 4.06467 11.1877 5.3007 14.2962C6.79315 18.0357 9.73704 22.1701 13.8144 26.2481L13.8862 26.32L13.9067 26.3405L13.9785 26.4123Z" fill="#86888C"/>
</svg>
