<svg width="20" height="20" viewBox="0 0 20 20" fill="none" xmlns="http://www.w3.org/2000/svg">
<path d="M11.7529 16.2771C11.1975 16.2771 10.567 16.1405 9.88635 15.8697C8.5092 15.3212 7.00685 14.2538 5.53865 12.7858L5.48402 12.7311C4.01582 11.2632 2.95052 9.76102 2.40193 8.38407C1.86928 7.0458 1.86018 5.89644 2.37917 5.14765C2.38372 5.14082 2.38827 5.13627 2.39283 5.12944L2.39966 5.12034C2.46112 5.03385 2.64777 4.77667 2.84581 4.58776C3.41033 4.04836 3.9885 3.78207 4.5644 3.79345C5.12209 3.80483 5.6684 4.0734 6.18967 4.59459C6.38543 4.78577 6.55615 5.00427 6.69728 5.23869C7.26407 6.15363 7.09563 7.13456 6.22609 8.00626C6.13276 8.09957 6.03488 8.18833 5.93245 8.27027C5.93017 8.32261 5.95521 8.54794 6.34218 9.07141C6.72004 9.5835 7.28228 10.1616 7.67381 10.5508L7.72616 10.6031C8.11541 10.9923 8.69358 11.5568 9.20575 11.9346C9.72929 12.3215 9.95464 12.3465 10.007 12.3442C10.0889 12.2418 10.1777 12.144 10.271 12.0506C11.1406 11.1789 12.1217 11.0128 13.0367 11.5772C13.2735 11.7183 13.4897 11.889 13.6809 12.0848C14.2022 12.606 14.4731 13.1522 14.4822 13.7098C14.4936 14.2856 14.225 14.866 13.6877 15.4282C13.4988 15.6262 13.2393 15.8128 13.1551 15.8742L13.1278 15.8947C12.7567 16.1496 12.2901 16.2771 11.7529 16.2771ZM6.18739 12.1462C7.15026 13.109 8.63212 14.3903 10.2255 15.0253C11.2498 15.435 12.1148 15.4805 12.602 15.1505L12.6224 15.1368C12.8501 14.973 12.9707 14.8637 13.0299 14.8C13.7515 14.0444 13.7538 13.4435 13.0367 12.7289C12.8979 12.5878 12.7431 12.4649 12.5746 12.3624L12.561 12.3556C12.215 12.1394 11.6664 11.9391 10.913 12.6947C10.8265 12.7789 10.7468 12.87 10.6739 12.9656C10.658 12.9838 10.6421 13.002 10.6261 13.0179C10.4577 13.1727 10.1572 13.3343 9.68832 13.2137C9.43565 13.1499 9.15567 13.0111 8.83243 12.788C8.3658 12.4694 7.82632 11.9937 7.0797 11.2472L7.02734 11.1949C6.28072 10.4484 5.80725 9.90896 5.4863 9.44239C5.26322 9.1192 5.12437 8.83926 5.06063 8.58663C4.94226 8.11778 5.1016 7.81735 5.25639 7.64893C5.27233 7.63072 5.29054 7.61479 5.30875 7.60114C5.40435 7.5283 5.4954 7.44865 5.57962 7.36216C6.33307 6.60882 6.13504 6.06031 5.91879 5.71436L5.91196 5.70071C5.80953 5.53229 5.68661 5.37525 5.54548 5.23869C4.82845 4.52176 4.22979 4.52404 3.47406 5.24552C3.4126 5.30469 3.30334 5.42304 3.13717 5.65291L3.12351 5.6734C2.79573 6.15818 2.84125 7.02304 3.24871 8.0495C3.88379 9.64267 5.16534 11.1243 6.12821 12.0893L6.15325 12.1121L6.18739 12.1462ZM16.7107 7.56472H14.4913C13.7151 7.56472 13.0458 7.30754 12.561 6.82048C12.0761 6.33343 11.8166 5.66657 11.8166 4.89047V2.67141C11.8166 2.42105 12.0215 2.21621 12.2719 2.21621C12.5223 2.21621 12.7272 2.42105 12.7272 2.67141V4.89047C12.7272 5.42077 12.8933 5.86458 13.2052 6.17638C13.517 6.48819 13.9632 6.65434 14.4913 6.65434H16.7107C16.961 6.65434 17.1659 6.85917 17.1659 7.10953C17.1659 7.35988 16.9633 7.56472 16.7107 7.56472Z" fill="#86888C"/>
<path d="M16.4944 18H6.50152C6.0235 18 5.60239 17.5789 5.60239 17.101V13.1044C5.60239 12.8541 5.80725 12.6492 6.05764 12.6492C6.30803 12.6492 6.5129 12.8541 6.5129 13.1044V17.0805C6.51517 17.0851 6.51973 17.0873 6.522 17.0896H16.4785L16.483 17.0851V6.86145L12.3174 2.91038H6.53111C6.52428 2.91494 6.51745 2.92176 6.5129 2.92859V5.01792C6.5129 5.26828 6.30803 5.47312 6.05764 5.47312C5.80725 5.47312 5.60239 5.26828 5.60239 5.01792V2.899C5.60239 2.43698 6.03943 2 6.50152 2H12.4995C12.6156 2 12.7294 2.04552 12.8137 2.12518L17.2524 6.3357C17.3435 6.42219 17.3935 6.54054 17.3935 6.66572V17.101C17.3935 17.5789 16.9724 18 16.4944 18Z" fill="#86888C"/>
</svg>
