<svg width="25" height="24" viewBox="0 0 25 24" fill="none" xmlns="http://www.w3.org/2000/svg">
<path d="M17.9507 22C17.0703 22 16.0617 21.7834 14.9761 21.3503C12.7565 20.464 10.326 18.7399 7.94972 16.3632L7.94402 16.3575L7.86709 16.2834L7.86139 16.2777C5.48508 13.901 3.76126 11.4701 2.87513 9.25015C2.03174 7.12423 2.01179 5.30893 2.82099 4.13768L2.83809 4.11203L2.84948 4.09493C2.94921 3.95814 3.24554 3.54492 3.55611 3.24855C4.43939 2.40502 5.34262 1.9861 6.23444 2.00035C7.09493 2.01745 7.94687 2.43922 8.76462 3.2571C9.07234 3.55917 9.34302 3.90114 9.56527 4.27446C10.0041 4.98121 10.1636 5.71075 10.0383 6.44313C9.91288 7.17552 9.50543 7.89082 8.8216 8.57476C8.66204 8.73435 8.49393 8.88538 8.31728 9.02502C8.25174 9.14471 8.29163 9.52088 8.8216 10.296C9.4342 11.1908 10.4599 12.2481 11.178 12.9662L11.2634 13.0517C11.9815 13.7699 13.0386 14.7929 13.9332 15.4085C14.7054 15.9386 15.0843 15.9784 15.204 15.9129C15.3436 15.7362 15.4918 15.5681 15.6542 15.4085C16.338 14.7246 17.0532 14.317 17.7855 14.1916C18.5177 14.0663 19.2472 14.2258 19.9538 14.6647C20.3242 14.887 20.6661 15.1549 20.971 15.4655C21.7887 16.2834 22.2104 17.1326 22.2275 17.9961C22.2446 18.8881 21.8258 19.7914 20.9795 20.6749C20.6832 20.9855 20.2701 21.2819 20.1333 21.3816L20.1162 21.393C20.1077 21.3987 20.0991 21.4044 20.0906 21.4129C19.515 21.8034 18.7884 22 17.9507 22ZM8.75607 15.5624C11.0213 17.8279 13.3178 19.4637 15.3949 20.293C17.1216 20.9798 18.5918 21.0453 19.4295 20.4754L19.4637 20.4526C19.7714 20.2303 20.0022 20.0394 20.1504 19.8855C21.3927 18.586 21.3955 17.5031 20.1589 16.2691C19.9224 16.0269 19.6575 15.8189 19.3697 15.645L19.3526 15.6365C18.8796 15.3429 18.4266 15.2375 17.9707 15.3145C17.4778 15.3971 16.9677 15.6992 16.4549 16.2121C16.3095 16.3546 16.1756 16.5057 16.0531 16.6681C16.0332 16.6909 16.0132 16.7137 15.9933 16.7336C15.7511 16.9588 15.3151 17.1896 14.6256 17.0129C14.2353 16.9132 13.7965 16.6966 13.2864 16.3461C12.3148 15.6792 11.2065 14.6049 10.4571 13.8554L10.3716 13.7699C9.62225 13.0204 8.54807 11.9118 7.88134 10.9372C7.53087 10.4271 7.31148 9.98824 7.2146 9.59782C7.04079 8.90818 7.27159 8.47217 7.49383 8.22994C7.51378 8.20714 7.53657 8.18719 7.55937 8.17009C7.72177 8.04755 7.87279 7.91361 8.01525 7.76828C8.52812 7.25532 8.83015 6.74521 8.91278 6.2522C8.98971 5.79339 8.88429 5.34313 8.59081 4.87006L8.58226 4.85297C8.40845 4.56514 8.20046 4.29726 7.95827 4.06358C6.72452 2.82963 5.64179 2.83248 4.34251 4.07498C4.18865 4.22317 3.99775 4.454 3.7755 4.76177L3.74986 4.79597C3.18 5.6338 3.24839 7.10428 3.93507 8.83124C4.76421 10.9087 6.3997 13.2056 8.66489 15.4712L8.70478 15.5111L8.71618 15.5225L8.75607 15.5624Z" fill="#86888C"/>
</svg>
