<svg width="25" height="24" viewBox="0 0 25 24" fill="none" xmlns="http://www.w3.org/2000/svg">
<path d="M18.9331 22.0151C18.0518 22.0151 17.0483 21.7988 15.9623 21.3633C13.7448 20.478 11.317 18.7531 8.94325 16.3762L8.85796 16.2908C6.48417 13.9168 4.76424 11.4859 3.87727 9.26567C3.03294 7.13933 3.0102 5.32327 3.82041 4.15051L3.84884 4.10781C3.9455 3.97118 4.244 3.55844 4.55387 3.2624C5.438 2.41984 6.33635 1.99856 7.229 2.01564C8.09039 2.03271 8.94041 2.454 9.75631 3.27094C10.0662 3.57552 10.3334 3.9171 10.5552 4.28714C10.993 4.99307 11.1522 5.72462 11.0271 6.45617C10.902 7.18772 10.4955 7.9022 9.81317 8.58536C9.65397 8.74476 9.48624 8.89562 9.30998 9.0351C9.24175 9.15466 9.28439 9.53324 9.81317 10.3075C10.4272 11.2013 11.4507 12.2602 12.1671 12.9775L12.2523 13.0629C12.9687 13.7802 14.0263 14.805 14.9189 15.4198C15.6922 15.9492 16.0703 15.9891 16.1897 15.9236C16.329 15.7471 16.4768 15.5764 16.6389 15.4198C17.3212 14.7366 18.0376 14.3267 18.7682 14.2043C19.4988 14.0819 20.2266 14.2385 20.9344 14.6769C21.3069 14.8989 21.648 15.1665 21.9493 15.4767C22.7652 16.2937 23.186 17.1448 23.203 18.0073C23.2201 18.9011 22.7994 19.8006 21.9579 20.6858C21.6622 20.9961 21.25 21.2921 21.1135 21.3918L21.0965 21.4031C21.088 21.4088 21.0794 21.4145 21.0709 21.4231C20.4966 21.8187 19.7717 22.0151 18.9331 22.0151ZM9.75062 15.5735C12.0135 17.8422 14.3077 19.4761 16.383 20.3044C18.1086 20.9932 19.5756 21.0616 20.4142 20.4894L20.4483 20.4666C20.7553 20.2446 20.9856 20.0539 21.1363 19.8973C21.7646 19.237 22.0801 18.6079 22.0687 18.0272C22.0574 17.4636 21.756 16.8914 21.1477 16.2794C20.9117 16.0375 20.6473 15.8297 20.3573 15.6561L20.3403 15.6475C19.8684 15.3515 19.4164 15.249 18.9587 15.3259C18.4668 15.4084 17.958 15.713 17.4434 16.2254C17.2984 16.3677 17.1648 16.5185 17.0426 16.6808C17.0227 16.7036 17.0028 16.7263 16.9829 16.7463C16.7412 16.9711 16.3063 17.2017 15.6183 17.0252C15.2288 16.9256 14.791 16.7064 14.2793 16.3563C13.307 15.6902 12.2012 14.6142 11.4507 13.8656L11.3654 13.7802C10.6177 13.0316 9.54594 11.9215 8.87786 10.9508C8.52819 10.4384 8.30929 10.0001 8.20979 9.6101C8.03638 8.92124 8.26665 8.48573 8.49124 8.24093C8.51114 8.21816 8.53388 8.19823 8.55662 8.18115C8.71866 8.05875 8.86934 7.92497 9.01148 7.7798C9.52319 7.26743 9.82454 6.7579 9.90982 6.26261C9.98658 5.80433 9.8814 5.35173 9.58858 4.87921L9.58005 4.86214C9.40664 4.57179 9.19627 4.30707 8.95747 4.07081C8.34341 3.46735 7.77199 3.16562 7.2091 3.15424C6.62916 3.1457 5.99805 3.45596 5.34134 4.08789C5.18499 4.23591 4.99451 4.46647 4.77277 4.77674L4.74719 4.8109C4.17861 5.65062 4.244 7.11941 4.93197 8.84723C5.75924 10.9252 7.39389 13.2223 9.65681 15.4881L9.70798 15.5394L9.75062 15.5735Z" fill="#86888C"/>
<path d="M13.9893 12.0239C13.5657 12.0296 13.2161 11.6909 13.2104 11.2668C13.2104 11.2041 13.2161 11.1415 13.2303 11.0789L14.2139 6.47041C14.2736 6.18576 14.4641 5.97512 14.7199 5.90396C14.9758 5.83279 15.2459 5.92388 15.442 6.14022L16.1215 6.89169L19.1975 4.24445C19.3851 4.06227 19.6438 3.97403 19.9025 3.9968C20.1697 4.01957 20.4142 4.15621 20.5734 4.36969L21.7248 5.65346C21.9067 5.85841 21.992 6.12883 21.9579 6.39925C21.9266 6.65259 21.793 6.88315 21.5855 7.03402L18.5237 9.72965L19.1946 10.4754C19.3908 10.6946 19.4505 10.9736 19.351 11.2241C19.2515 11.4746 19.0184 11.6368 18.7227 11.6596L14.0547 12.0211C14.032 12.0239 14.0092 12.0239 13.9893 12.0239ZM15.1549 7.51792L14.4442 10.8512L17.7703 10.5921L17.486 10.279C17.1733 9.92891 17.1989 9.39092 17.5486 9.0778C17.5514 9.07496 17.5543 9.07211 17.5571 9.07211L20.744 6.26262L19.8087 5.2208L16.6588 7.93351C16.3034 8.23524 15.7746 8.20108 15.4591 7.85665L15.1549 7.51792Z" fill="#86888C"/>
</svg>
