<svg width="20" height="20" viewBox="0 0 20 20" fill="none" xmlns="http://www.w3.org/2000/svg">
<path d="M14.5071 17.9951C13.9106 17.9951 13.2464 17.8702 12.5324 17.6202C10.9666 17.0749 9.22916 15.9594 7.50298 14.3962L8.1085 13.7214C9.7443 15.2051 11.3756 16.2547 12.8284 16.7614C14.0598 17.1908 15.0742 17.1976 15.6865 16.7773L15.7136 16.7591C15.9577 16.5819 16.1429 16.4297 16.2604 16.3047C16.762 15.7776 17.0105 15.2732 17.0038 14.8075C16.9947 14.3553 16.7552 13.8987 16.2695 13.4102C16.0819 13.217 15.8718 13.0489 15.6413 12.9103L15.6278 12.9035C15.2505 12.6672 14.8912 12.5832 14.5252 12.6445C14.1321 12.7127 13.7276 12.9535 13.3187 13.3647C13.2035 13.4783 13.0973 13.601 13.0001 13.7283C12.9843 13.7464 12.9685 13.7646 12.9527 13.7805C12.7945 13.9259 12.5189 14.0918 12.0941 14.0463C11.841 14.0191 11.5631 13.9214 11.2491 13.751C10.7723 13.4897 10.1984 13.0466 9.49803 12.3991L10.1103 11.7289C10.7565 12.3264 11.2717 12.7263 11.6829 12.9512C11.9811 13.1148 12.2296 13.1807 12.3268 13.1239C12.4375 12.9808 12.555 12.8467 12.6838 12.7195C13.226 12.1742 13.7977 11.8447 14.3783 11.747C14.959 11.6494 15.5397 11.7743 16.1023 12.1265C16.3982 12.3037 16.6694 12.5195 16.9111 12.7649C17.5618 13.4193 17.8985 14.0986 17.9098 14.7893C17.9233 15.5027 17.589 16.2252 16.9179 16.9318C16.6829 17.1795 16.3531 17.418 16.2469 17.4953L16.2333 17.5044C16.2265 17.5089 16.2198 17.5134 16.213 17.5203C15.7769 17.8224 15.2301 17.9815 14.5885 17.9928C14.5591 17.9951 14.5342 17.9951 14.5071 17.9951ZM5.53956 12.415C3.99864 10.6883 2.90057 8.94791 2.36284 7.38249C2.10752 6.63726 1.98551 5.94657 1.99681 5.33085C2.01037 4.68787 2.16853 4.14031 2.46677 3.70408L2.48936 3.67C2.56844 3.56094 2.80568 3.2315 3.05195 2.99521C3.75689 2.31814 4.47538 1.98188 5.18483 1.99552C5.86943 2.00915 6.54725 2.34541 7.19796 2.99975C7.44423 3.24286 7.65662 3.5155 7.83511 3.81314C8.18306 4.37887 8.30958 4.96278 8.21243 5.54669C8.11527 6.1306 7.78766 6.70542 7.24541 7.25071C7.11888 7.38022 6.98557 7.49836 6.84323 7.60969C6.78449 7.70966 6.85679 7.96867 7.0285 8.28221C7.26348 8.70708 7.67695 9.23646 8.29151 9.90444L7.6295 10.5224C6.96524 9.79992 6.50884 9.21147 6.23997 8.72298C6.06148 8.40035 5.9598 8.11635 5.92817 7.85734C5.87621 7.42111 6.0434 7.13711 6.19026 6.97579C6.20608 6.95762 6.22415 6.94171 6.24223 6.92808C6.37102 6.83039 6.49076 6.7236 6.60599 6.60773C7.01495 6.19649 7.25444 5.7898 7.32222 5.39447C7.38323 5.02867 7.29963 4.66515 7.06465 4.28572L7.05787 4.27208C6.92005 4.04034 6.75285 3.82904 6.56081 3.64046C6.07277 3.15425 5.61863 2.91341 5.16901 2.90433C4.70584 2.89524 4.20425 3.14743 3.68007 3.65182C3.5558 3.76997 3.40442 3.95627 3.22819 4.20165L3.20785 4.22892C2.79438 4.84236 2.79664 5.85569 3.21915 7.0894C3.71622 8.54122 4.75102 10.1725 6.21286 11.8107L5.53956 12.415Z" fill="#86888C"/>
<path d="M14.6314 3.4519C14.7828 3.4519 14.8212 3.54051 14.7128 3.64957L14.1637 4.20167C14.0553 4.31073 13.9853 4.52203 14.0078 4.67425L14.1208 5.46719C14.1434 5.61942 14.2835 5.76028 14.4349 5.783L15.2234 5.8966C15.2415 5.89888 15.2618 5.90115 15.2799 5.90115C15.4222 5.90115 15.5985 5.83526 15.6934 5.73983L16.2424 5.18773C16.2831 5.14456 16.3237 5.12639 16.3554 5.12639C16.4051 5.12639 16.439 5.17637 16.439 5.26953C16.439 5.26953 16.4435 6.52141 15.8786 7.08942C15.3228 7.64833 14.1118 7.65288 14.0711 7.65288H14.0689C13.9175 7.65288 13.7051 7.74149 13.5989 7.84827L7.3155 14.16C7.20705 14.269 7.12119 14.4826 7.12119 14.6348C7.12119 14.6348 7.12571 15.8867 6.56086 16.4547C6.00504 17.0136 4.794 17.0182 4.75333 17.0182C4.60195 17.0182 4.56354 16.9273 4.672 16.8205L5.22103 16.2684C5.32948 16.1593 5.39952 15.948 5.37693 15.7958L5.26396 15.0029C5.24137 14.8507 5.10128 14.7098 4.9499 14.6871L4.16137 14.5735C4.1433 14.5712 4.12296 14.5689 4.10489 14.5689C3.96254 14.5689 3.78631 14.6348 3.69141 14.7302L3.14012 15.2846C3.09945 15.3255 3.05878 15.346 3.02715 15.346C2.97744 15.346 2.94355 15.296 2.94355 15.2028C2.94355 15.2028 2.93903 13.9509 3.50388 13.3829C4.0597 12.824 5.27074 12.8195 5.31141 12.8195H5.31593C5.46731 12.8195 5.67969 12.7309 5.78814 12.6241L12.0648 6.31011C12.1732 6.20106 12.2591 5.98748 12.2591 5.83526C12.2591 5.83526 12.2546 4.58337 12.8194 4.01537C13.3775 3.45645 14.5885 3.4519 14.6314 3.4519ZM14.6292 2.54309C14.3355 2.54764 14.0417 2.57718 13.7525 2.6317C13.0725 2.75894 12.546 3.00886 12.1823 3.37466C11.8162 3.74272 11.5654 4.28347 11.4389 4.97871C11.3937 5.2309 11.3666 5.4831 11.3576 5.73983L5.21877 11.9129C4.95668 11.922 4.69459 11.9516 4.43702 11.9993C3.7592 12.1265 3.2305 12.3764 2.86673 12.7399C2.50071 13.108 2.24992 13.6488 2.12565 14.344C2.07368 14.628 2.04657 14.9188 2.04205 15.2074C2.03979 15.4096 2.09402 15.6095 2.19795 15.7822C2.28475 15.9264 2.40709 16.0457 2.55314 16.1285C2.69919 16.2113 2.86401 16.2548 3.03167 16.2548C3.30506 16.2548 3.57393 16.1389 3.78405 15.9253L4.20882 15.4982L4.42798 15.53L4.45961 15.7504L4.03033 16.1775C3.71853 16.4911 3.62137 16.9227 3.77727 17.3044C3.93317 17.6861 4.30597 17.9247 4.74656 17.9247H4.75107C5.04706 17.9202 5.34078 17.8906 5.62998 17.8361C6.31006 17.7089 6.8365 17.4589 7.20027 17.0931C7.56629 16.7251 7.81708 16.1843 7.94361 15.4914C7.9888 15.2392 8.01591 14.987 8.02495 14.7302L14.166 8.55487C14.4281 8.54579 14.6879 8.51625 14.9455 8.46854C15.6256 8.3413 16.152 8.09138 16.5158 7.72786C16.8818 7.35979 17.1326 6.81905 17.2569 6.12381C17.3088 5.8398 17.3359 5.54898 17.3405 5.26044C17.3427 5.05823 17.2885 4.85829 17.1846 4.68334C17.0083 4.39025 16.692 4.21076 16.3531 4.21076C16.0797 4.21076 15.8109 4.32663 15.6007 4.54021L15.176 4.97189L14.9568 4.94008L14.9252 4.72197L15.3499 4.29483C15.6617 3.98129 15.7589 3.54733 15.603 3.16563C15.4471 2.78393 15.0743 2.54537 14.6337 2.54309H14.6292Z" fill="#86888C"/>
</svg>
