<svg width="24" height="24" viewBox="0 0 24 24" fill="none" xmlns="http://www.w3.org/2000/svg">
<path fill-rule="evenodd" clip-rule="evenodd" d="M19.3331 9.84292L17.7594 9.07741C17.5687 8.98635 17.3496 9.00058 17.1732 9.11156C16.9967 9.22539 16.8914 9.42175 16.8914 9.63234L16.9256 20.7763H7.32399L7.35814 9.63234C7.35814 9.42175 7.25285 9.22539 7.07641 9.11156C6.90282 8.99773 6.68085 8.9835 6.49303 9.07457L4.86241 9.85431L3.37977 6.55038L8.41392 3.62779C8.74403 5.46899 10.0332 6.46785 12.1276 6.46785C14.1794 6.46785 15.4771 5.44623 15.8243 3.63917L20.6364 6.55892L19.3331 9.84292ZM21.7036 5.77349L15.6251 2.09108C15.6165 2.08823 15.6108 2.08823 15.6023 2.08254C15.5568 2.05977 15.5141 2.04555 15.4629 2.03132C15.4287 2.01993 15.3946 2.01424 15.3576 2.0114C15.3462 2.00855 15.3348 2.00286 15.3206 2.00286C15.2978 2.00286 15.2807 2.01424 15.258 2.01424C15.2096 2.01993 15.1612 2.02847 15.1128 2.04555C15.0901 2.05408 15.0701 2.06547 15.0474 2.07685C14.999 2.10246 14.9535 2.13092 14.9108 2.17076C14.8966 2.18499 14.8823 2.19922 14.8709 2.21629C14.8453 2.24475 14.814 2.26752 14.7941 2.30166C14.7827 2.32158 14.7799 2.34435 14.7742 2.36143C14.7656 2.3785 14.7628 2.39273 14.7571 2.40696C14.7343 2.47241 14.7201 2.53502 14.7173 2.60047C14.7173 2.60616 14.7144 2.60901 14.7144 2.6147C14.7144 4.40468 13.892 5.23849 12.1276 5.23849C10.3633 5.23849 9.54084 4.40468 9.54084 2.6147C9.54084 2.39557 9.42701 2.19353 9.23919 2.08254C9.05137 1.9744 8.82086 1.97156 8.63589 2.0797L2.30408 5.76211C2.03373 5.91862 1.92559 6.26011 2.05365 6.54754L4.02007 10.9272C4.08837 11.078 4.21073 11.1918 4.3644 11.2487C4.51807 11.3056 4.68597 11.2971 4.83111 11.226L6.14869 10.597L6.11739 21.3853C6.11739 21.5475 6.18 21.704 6.29383 21.8207C6.40766 21.9374 6.56133 22 6.72354 22H17.5346C17.6968 22 17.8504 21.9345 17.9643 21.8207C18.0781 21.704 18.1407 21.5475 18.1407 21.3853L18.1066 10.6027L19.3929 11.226C19.5437 11.3 19.7201 11.3056 19.8738 11.2459C20.0303 11.1833 20.1527 11.0609 20.2153 10.9044L21.954 6.52477C22.065 6.24873 21.9569 5.92716 21.7036 5.77349Z" fill="#86888C"/>
</svg>
