<svg width="40" height="40" viewBox="0 0 40 40" fill="none" xmlns="http://www.w3.org/2000/svg">
<path fill-rule="evenodd" clip-rule="evenodd" d="M27.7158 30.8066C28.2126 30.489 28.1665 30.4121 27.9872 30.0637C27.8079 29.7307 27.4904 29.6231 27.178 29.7307L21.7183 31.6418C21.6569 31.6571 21.6005 31.6418 21.5391 31.6571C21.1037 31.9133 20.6223 32.0824 20.0948 32.0824H13.2522C12.6376 32.0824 12.1255 31.5803 12.1255 30.945C12.1255 30.325 12.6376 29.8076 13.2522 29.8076H20.0948C20.3969 29.8076 20.7247 29.4745 20.7247 29.1722C20.7247 28.9161 20.5916 28.624 20.2894 28.6087L19.9155 28.624C18.758 28.6394 16.3355 28.7009 14.0359 27.2561C14.0205 27.2407 12.9398 26.6617 9.63124 26.5439V32.2822L15.977 35.3614C16.4277 35.6176 16.9552 35.7252 17.5851 35.7252C18.1434 35.7252 18.5941 35.6483 18.9526 35.4844C18.9782 35.4639 25.6569 32.1131 27.7158 30.8066ZM7.3726 34.5263V25.9035C7.3726 25.6627 7.19334 25.4782 6.9475 25.4782H4.67862C4.45327 25.4782 4.25352 25.6627 4.25352 25.9035V34.5263C4.25352 34.7517 4.44814 34.9362 4.67862 34.9362H6.9475C7.19334 34.9362 7.3726 34.7517 7.3726 34.5263ZM26.4353 27.5737C27.7772 27.1024 29.2471 27.6506 29.9232 28.8802C30.7375 30.4582 30.3432 31.8262 28.9142 32.7331C26.7631 34.101 20.1921 37.4057 19.9104 37.544C19.219 37.8463 18.4507 38 17.58 38C16.5403 38 15.6389 37.7899 14.9168 37.3647L9.59539 34.7978C9.45711 36.1504 8.33035 37.211 6.9475 37.211H4.67862C3.20359 37.211 2 36.0121 2 34.5263V25.9035C2 24.4177 3.20359 23.2034 4.67862 23.2034H6.9475C7.80794 23.2034 8.5557 23.6133 9.0525 24.2486C13.5186 24.3254 15.0038 25.1759 15.2599 25.3399C16.9449 26.4004 18.8502 26.3543 19.8592 26.3441C20.0384 26.3287 20.2074 26.3287 20.3099 26.3287C21.6773 26.3595 22.7631 27.4046 22.9424 28.788L26.4353 27.5737ZM5.82586 26.5541C6.34315 26.5541 6.71703 26.9282 6.71703 27.4508C6.71703 27.9733 6.34827 28.3576 5.82586 28.3576C5.30858 28.3576 4.92446 27.9733 4.92446 27.4508C4.92446 26.9282 5.30858 26.5541 5.82586 26.5541ZM35.7465 14.099V5.47615C35.7465 5.25071 35.5672 5.06627 35.3368 5.06627H33.0679C32.8271 5.06627 32.6428 5.25071 32.6428 5.47615V14.099C32.6428 14.3244 32.8271 14.5242 33.0679 14.5242H35.3368C35.5621 14.5242 35.7465 14.3244 35.7465 14.099ZM30.3892 13.4585V7.72023L24.0435 4.64102C23.5775 4.38485 23.0653 4.27725 22.4353 4.27725C21.8822 4.27725 21.4264 4.3541 21.0679 4.51806C21.0371 4.53343 14.3483 7.88931 12.3047 9.19579C11.8079 9.51345 11.8387 9.5903 12.0333 9.9387C12.2023 10.2717 12.5301 10.3793 12.8476 10.2717L18.3022 8.36067C18.3636 8.3453 18.42 8.3453 18.4814 8.3453C18.9014 8.07375 19.3982 7.92005 19.9104 7.92005H26.7682C27.3828 7.92005 27.895 8.42215 27.895 9.05746C27.895 9.6774 27.3828 10.1949 26.7682 10.1949H19.9104C19.6236 10.1949 19.2958 10.5279 19.2958 10.8148C19.2958 11.0864 19.4289 11.3784 19.7311 11.3784H20.0896C21.2625 11.3477 23.6799 11.3015 25.9846 12.7412C26 12.7617 27.0704 13.3407 30.3892 13.4585ZM35.3368 2.79144C36.8118 2.79144 38 3.99034 38 5.47615V14.099C38 15.5848 36.8118 16.799 35.3368 16.799H33.0679C32.2074 16.799 31.4443 16.3738 30.9629 15.7538C26.4968 15.677 25.0115 14.8265 24.7554 14.6625C23.0704 13.602 21.1652 13.6276 20.1562 13.6583H19.6901C18.3227 13.643 17.2369 12.5824 17.0781 11.1991L13.5903 12.4287C13.2574 12.5363 12.9296 12.5978 12.612 12.5978C11.5877 12.5978 10.6146 12.0496 10.0973 11.1273C9.28297 9.53394 9.67734 8.18134 11.0909 7.27449C13.2574 5.90652 19.8284 2.60187 20.1101 2.46354C21.6159 1.78212 23.7618 1.85897 25.1037 2.64799L30.4251 5.21485C30.5583 3.86225 31.6901 2.80169 33.073 2.80169H35.3368V2.79144ZM34.2612 11.6397C34.7734 11.6397 35.137 12.0188 35.137 12.5363C35.137 13.0487 34.7734 13.4175 34.2612 13.4175C33.7542 13.4175 33.3854 13.0487 33.3854 12.5363C33.3905 12.0188 33.7542 11.6397 34.2612 11.6397ZM17.6108 17.67C17.3444 17.9006 17.411 18.3771 17.4725 18.6435C17.6312 19.3198 17.9539 20.0371 18.42 20.7697C18.8041 21.3743 19.1012 21.7483 19.6338 22.3017C19.6697 22.3375 19.7977 22.4759 19.9104 22.5527C19.9513 22.563 19.9923 22.5681 20.0282 22.5783C20.1408 22.4656 20.2586 22.3375 20.2945 22.3017C20.8374 21.7381 21.1242 21.3692 21.5083 20.7697C21.9744 20.0371 22.2971 19.3198 22.4558 18.6435C22.5173 18.3771 22.5839 17.8955 22.3227 17.67C22.2049 17.5676 22.0205 17.501 21.8207 17.4907C21.5595 17.4805 21.2779 17.5522 21.0064 17.7008L20.3099 18.1106L19.7004 18.126L18.927 17.7008C18.6812 17.5624 18.4251 17.4907 18.1793 17.4907H18.1178C17.9129 17.5061 17.7286 17.5676 17.6108 17.67ZM18.128 23.7926C17.493 23.1317 17.1088 22.6449 16.6479 21.9225C16.0538 20.9849 15.6389 20.0473 15.4289 19.1405C15.1319 17.8852 15.4289 16.7632 16.2382 16.0613C16.7093 15.6514 17.3342 15.4106 18.0051 15.3747C18.6504 15.344 19.3316 15.5028 19.9462 15.8461L19.9616 15.8563C19.9667 15.8512 19.977 15.8512 19.9821 15.8461C20.5916 15.5028 21.2727 15.344 21.9232 15.3747C22.589 15.4106 23.2138 15.6514 23.685 16.0613C24.4994 16.7632 24.7964 17.8852 24.4994 19.1405C24.2843 20.0524 23.8745 20.99 23.2753 21.9225C22.8195 22.6398 22.4353 23.1214 21.8207 23.767C21.7337 23.8592 21.4674 24.1205 21.2471 24.2844C20.991 24.474 20.6889 24.6072 20.3918 24.6738L19.9718 24.7199H19.9667C19.7414 24.7097 19.6338 24.6943 19.5314 24.6738C19.2394 24.6123 18.9424 24.474 18.6812 24.2844C18.4661 24.1307 18.2049 23.8694 18.128 23.7926Z" fill="#86888C"/>
</svg>
