<svg width="20" height="20" viewBox="0 0 20 20" fill="none" xmlns="http://www.w3.org/2000/svg">
<path fill-rule="evenodd" clip-rule="evenodd" d="M13.4292 14.8029C13.65 14.6618 13.6295 14.6276 13.5499 14.4728C13.4702 14.3248 13.3291 14.2769 13.1902 14.3248L10.7637 15.1741C10.7364 15.1809 10.7113 15.1741 10.684 15.1809C10.4905 15.2948 10.2766 15.3699 10.0421 15.3699H7.001C6.72784 15.3699 6.50021 15.1468 6.50021 14.8644C6.50021 14.5889 6.72784 14.3589 7.001 14.3589H10.0421C10.1764 14.3589 10.3221 14.2109 10.3221 14.0766C10.3221 13.9627 10.2629 13.8329 10.1286 13.8261L9.96244 13.8329C9.448 13.8397 8.37132 13.8671 7.34927 13.2249C7.34244 13.2181 6.86214 12.9608 5.39166 12.9084V15.4588L8.21198 16.8273C8.41229 16.9411 8.64675 16.989 8.92673 16.989C9.17485 16.989 9.37516 16.9548 9.5345 16.8819C9.54588 16.8728 12.5142 15.3836 13.4292 14.8029ZM4.38782 16.4561V12.6238C4.38782 12.5167 4.30815 12.4348 4.19889 12.4348H3.1905C3.09034 12.4348 3.00156 12.5167 3.00156 12.6238V16.4561C3.00156 16.5563 3.08806 16.6383 3.1905 16.6383H4.19889C4.30815 16.6383 4.38782 16.5563 4.38782 16.4561ZM12.8602 13.3661C13.4565 13.1566 14.1098 13.4003 14.4103 13.9468C14.7722 14.6481 14.597 15.2561 13.9619 15.6591C13.0058 16.2671 10.0854 17.7359 9.96017 17.7973C9.65287 17.9317 9.31142 18 8.92446 18C8.46237 18 8.06174 17.9066 7.74079 17.7176L5.37573 16.5768C5.31427 17.178 4.81349 17.6493 4.19889 17.6493H3.1905C2.53493 17.6493 2 17.1165 2 16.4561V12.6238C2 11.9634 2.53493 11.4237 3.1905 11.4237H4.19889C4.58131 11.4237 4.91364 11.6059 5.13444 11.8883C7.11936 11.9224 7.77949 12.3004 7.8933 12.3733C8.6422 12.8446 9.48898 12.8241 9.9374 12.8196C10.0171 12.8128 10.0922 12.8128 10.1377 12.8128C10.7455 12.8264 11.2281 13.291 11.3077 13.9058L12.8602 13.3661ZM3.70038 12.913C3.93029 12.913 4.09646 13.0792 4.09646 13.3114C4.09646 13.5437 3.93257 13.7145 3.70038 13.7145C3.47048 13.7145 3.29976 13.5437 3.29976 13.3114C3.29976 13.0792 3.47048 12.913 3.70038 12.913ZM16.9984 7.37732V3.54495C16.9984 3.44476 16.9188 3.36279 16.8163 3.36279H15.8079C15.701 3.36279 15.619 3.44476 15.619 3.54495V7.37732C15.619 7.47751 15.701 7.56632 15.8079 7.56632H16.8163C16.9165 7.56632 16.9984 7.47751 16.9984 7.37732ZM14.6174 7.09268V4.54233L11.7971 3.17379C11.59 3.05993 11.3624 3.01211 11.0824 3.01211C10.8365 3.01211 10.6339 3.04627 10.4746 3.11914C10.4609 3.12597 7.48812 4.61747 6.57988 5.19813C6.35908 5.33931 6.37274 5.37347 6.45924 5.52831C6.53436 5.67632 6.68004 5.72414 6.82117 5.67632L9.24541 4.82696C9.27273 4.82013 9.29777 4.82013 9.32508 4.82013C9.51174 4.69945 9.73254 4.63113 9.96017 4.63113H13.0081C13.2813 4.63113 13.5089 4.85429 13.5089 5.13665C13.5089 5.41218 13.2813 5.64217 13.0081 5.64217H9.96017C9.83269 5.64217 9.68701 5.79018 9.68701 5.91769C9.68701 6.03838 9.74619 6.16818 9.8805 6.16818H10.0398C10.5611 6.15451 11.6355 6.13402 12.6598 6.77389C12.6667 6.78299 13.1424 7.04031 14.6174 7.09268ZM16.8163 2.35175C17.4719 2.35175 18 2.88459 18 3.54495V7.37732C18 8.03768 17.4719 8.57735 16.8163 8.57735H15.8079C15.4255 8.57735 15.0864 8.38835 14.8724 8.11282C12.8875 8.07867 12.2273 7.70067 12.1135 7.6278C11.3646 7.15644 10.5179 7.16782 10.0694 7.18149H9.86229C9.25452 7.17466 8.77194 6.7033 8.70138 6.08848L7.15123 6.63498C7.00327 6.6828 6.85759 6.71013 6.71646 6.71013C6.2612 6.71013 5.82871 6.46648 5.59881 6.0566C5.23688 5.34842 5.41215 4.74726 6.0404 4.34422C7.00327 3.73623 9.92375 2.2675 10.0489 2.20602C10.7182 1.90316 11.6719 1.93732 12.2683 2.28799L14.6334 3.42882C14.6926 2.82767 15.1956 2.35631 15.8102 2.35631H16.8163V2.35175ZM16.3383 6.28431C16.5659 6.28431 16.7276 6.45281 16.7276 6.6828C16.7276 6.91051 16.5659 7.07446 16.3383 7.07446C16.113 7.07446 15.9491 6.91051 15.9491 6.6828C15.9513 6.45281 16.113 6.28431 16.3383 6.28431ZM8.93811 8.96446C8.81975 9.06693 8.84934 9.2787 8.87665 9.39711C8.94722 9.69768 9.09062 10.0165 9.29777 10.3421C9.46849 10.6108 9.60051 10.777 9.83725 11.023C9.85318 11.0389 9.91009 11.1004 9.96017 11.1345C9.97838 11.1391 9.99659 11.1414 10.0125 11.1459C10.0626 11.0958 10.115 11.0389 10.1309 11.023C10.3722 10.7725 10.4996 10.6085 10.6704 10.3421C10.8775 10.0165 11.0209 9.69768 11.0915 9.39711C11.1188 9.2787 11.1484 9.06465 11.0323 8.96446C10.9799 8.91892 10.898 8.88931 10.8092 8.88476C10.6931 8.88021 10.5679 8.91208 10.4473 8.97812L10.1377 9.16029L9.86684 9.16712L9.52312 8.97812C9.41386 8.91664 9.30004 8.88476 9.19078 8.88476H9.16347C9.07241 8.89159 8.99047 8.91892 8.93811 8.96446ZM9.16802 11.6856C8.88576 11.3918 8.71504 11.1755 8.51017 10.8545C8.24612 10.4377 8.06174 10.021 7.96842 9.61799C7.83639 9.0601 7.96842 8.56141 8.32807 8.24945C8.53749 8.06728 8.81519 7.96026 9.11339 7.94432C9.4002 7.93065 9.70295 8.00124 9.9761 8.15381L9.98293 8.15836C9.9852 8.15609 9.98976 8.15609 9.99203 8.15381C10.2629 8.00124 10.5657 7.93065 10.8547 7.94432C11.1507 7.96026 11.4284 8.06728 11.6378 8.24945C11.9997 8.56141 12.1317 9.0601 11.9997 9.61799C11.9041 10.0233 11.722 10.44 11.4557 10.8545C11.2531 11.1732 11.0824 11.3873 10.8092 11.6742C10.7705 11.7152 10.6522 11.8313 10.5543 11.9042C10.4405 11.9885 10.3062 12.0477 10.1741 12.0773L9.98748 12.0978H9.9852C9.88505 12.0932 9.83725 12.0864 9.79172 12.0773C9.66197 12.0499 9.52995 11.9885 9.41386 11.9042C9.31825 11.8359 9.20216 11.7198 9.16802 11.6856Z" fill="#86888C"/>
</svg>
