<svg width="28" height="28" viewBox="0 0 28 28" fill="none" xmlns="http://www.w3.org/2000/svg">
<path d="M18.3447 20.3419H10.7071C9.68489 20.3419 8.77891 19.9966 8.08489 19.347C7.36352 18.6667 6.89515 17.6855 6.69686 16.4308C6.53959 15.4291 4.92592 6.06496 4.70028 4.80342C4.55327 3.98291 3.69857 3.36752 2.70711 3.36752H1.05925C0.683181 3.36752 0.375488 3.05983 0.375488 2.68376C0.375488 2.30769 0.683181 2 1.05925 2H2.71053C4.37891 2 5.78404 3.07692 6.0507 4.5641C6.23532 5.59658 7.87976 15.1282 8.05412 16.2188C8.20455 17.1658 8.52934 17.8803 9.02848 18.3521C9.46609 18.7658 10.0336 18.9778 10.7105 18.9778H18.3447C19.1789 18.9778 20.3618 18.6872 21.0148 16.1573C21.1584 15.6068 21.6302 13.7026 22.0917 11.8598C22.355 10.8034 22.608 9.78462 22.8028 9.01197H19.3669C18.9909 9.01197 18.6832 8.70428 18.6832 8.32821C18.6832 7.95214 18.9909 7.64445 19.3669 7.64445H23.6781C24.0541 7.64445 24.3618 7.95214 24.3618 8.32821C24.3618 8.38633 24.355 8.44103 24.3413 8.49573C24.1533 9.24103 23.7977 10.6701 23.4182 12.188C22.9567 14.0342 22.4849 15.9419 22.3379 16.4991C22.0131 17.7504 21.5413 18.6701 20.8952 19.3162C20.2148 19.9966 19.3567 20.3419 18.3447 20.3419Z" fill="#86888C"/>
<path d="M10.7 9.00892H6.13933C5.76326 9.00892 5.45557 8.70123 5.45557 8.32516C5.45557 7.94909 5.76326 7.6414 6.13933 7.6414H10.7C11.0761 7.6414 11.3838 7.94909 11.3838 8.32516C11.3838 8.70123 11.0761 9.00892 10.7 9.00892ZM10.7069 26.0004C10.0949 26.0004 9.60599 25.826 9.25044 25.4841C8.87779 25.1252 8.68976 24.6226 8.68976 23.9833C8.68976 23.344 8.87779 22.8414 9.25044 22.4824C9.60599 22.1405 10.0983 21.9662 10.7069 21.9662C11.3154 21.9662 11.8077 22.1405 12.1633 22.4824C12.5359 22.8414 12.7239 23.344 12.7239 23.9833C12.7239 24.6226 12.5359 25.1252 12.1633 25.4841C11.8111 25.826 11.3188 26.0004 10.7069 26.0004ZM10.7069 23.3337C10.2077 23.3337 10.0573 23.4841 10.0573 23.9833C10.0573 24.4824 10.2077 24.6329 10.7069 24.6329C11.206 24.6329 11.3564 24.4824 11.3564 23.9833C11.3564 23.4841 11.206 23.3337 10.7069 23.3337ZM17.3735 26.0004C16.7616 26.0004 16.2727 25.826 15.9171 25.4841C15.5445 25.1252 15.3564 24.6226 15.3564 23.9833C15.3564 23.344 15.5445 22.8414 15.9171 22.4824C16.2727 22.1405 16.765 21.9662 17.3735 21.9662C17.9821 21.9662 18.4744 22.1405 18.8299 22.4824C19.1992 22.8414 19.3906 23.344 19.3906 23.9833C19.3906 24.6226 19.2026 25.1252 18.8299 25.4841C18.4778 25.826 17.9855 26.0004 17.3735 26.0004ZM17.3735 23.3337C16.8744 23.3337 16.7239 23.4841 16.7239 23.9833C16.7239 24.4824 16.8744 24.6329 17.3735 24.6329C17.8727 24.6329 18.0231 24.4824 18.0231 23.9833C18.0231 23.4841 17.8727 23.3337 17.3735 23.3337ZM15.0385 7.89439C13.9274 7.89439 12.8778 7.76106 12.0778 7.52174C11.0624 7.21747 10.5496 6.76618 10.5496 6.18499C10.5496 5.60379 11.0624 5.15251 12.0778 4.84824C12.8744 4.60892 13.9274 4.47559 15.0351 4.47559C16.1427 4.47559 17.1957 4.60892 17.9923 4.84824C19.0077 5.15251 19.5205 5.60379 19.5205 6.18499C19.5205 6.76618 19.0077 7.21747 17.9923 7.52174C17.2026 7.76448 16.1496 7.89439 15.0385 7.89439ZM11.6128 6.18499C11.7051 6.26704 11.9581 6.43798 12.5838 6.59866C13.2607 6.77302 14.1325 6.86875 15.0385 6.86875C15.9445 6.86875 16.8163 6.77302 17.4932 6.59866C18.1188 6.43798 18.3718 6.26704 18.4641 6.18499C18.3718 6.10294 18.1188 5.93542 17.4932 5.77131C16.8163 5.59695 15.9445 5.50123 15.0385 5.50123C14.1325 5.50123 13.2607 5.59695 12.5838 5.77131C11.9581 5.93542 11.7051 6.10294 11.6128 6.18499Z" fill="#86888C"/>
<path d="M15.039 11.0769C13.9279 11.0769 12.8784 10.9435 12.0784 10.7042C11.063 10.3999 10.5502 9.94866 10.5502 9.36746V6.18798C10.5399 5.90422 10.7587 5.6649 11.0425 5.65464C11.3262 5.64439 11.5655 5.86319 11.5758 6.14695C11.6168 6.19823 11.8288 6.40336 12.5843 6.59823C13.2613 6.77259 14.1331 6.86832 15.039 6.86832C15.945 6.86832 16.8168 6.77259 17.4937 6.59823C18.2493 6.40336 18.4613 6.19481 18.5023 6.14695C18.5125 5.86319 18.7519 5.64439 19.0356 5.65464C19.3194 5.6649 19.5382 5.90422 19.5279 6.18798V9.36746C19.5279 9.94866 19.0151 10.3999 17.9997 10.7042C17.2031 10.9435 16.1502 11.0769 15.039 11.0769ZM11.5758 9.32986C11.6202 9.38456 11.8356 9.58627 12.5843 9.78114C13.2613 9.9555 14.1331 10.0512 15.039 10.0512C15.945 10.0512 16.8168 9.9555 17.4937 9.78114C18.2425 9.58969 18.4578 9.38456 18.5023 9.32986V7.34353C18.3382 7.41191 18.1707 7.47345 17.9997 7.52473C17.2031 7.76405 16.1502 7.89738 15.0425 7.89738C13.9348 7.89738 12.8818 7.76405 12.0852 7.52473C11.9143 7.47345 11.7467 7.41191 11.5826 7.34353L11.5758 9.32986Z" fill="#86888C"/>
<path d="M15.039 14.2566C13.9279 14.2566 12.8784 14.1232 12.0784 13.8839C11.063 13.5796 10.5502 13.1283 10.5502 12.5472V9.36766C10.5399 9.0839 10.7587 8.84459 11.0425 8.83433C11.3262 8.82407 11.5655 9.04288 11.5758 9.32664C11.6168 9.37792 11.8288 9.58305 12.5843 9.77792C13.2613 9.95228 14.1331 10.048 15.039 10.048C15.945 10.048 16.8168 9.95228 17.4937 9.77792C18.2493 9.58305 18.4613 9.3745 18.5023 9.32664C18.5125 9.04288 18.7519 8.82407 19.0356 8.83433C19.3194 8.84459 19.5382 9.0839 19.5279 9.36766V12.5472C19.5279 13.1283 19.0151 13.5796 17.9997 13.8839C17.2031 14.1232 16.1502 14.2566 15.039 14.2566ZM11.5758 12.5095C11.6202 12.5608 11.8356 12.766 12.5843 12.9608C13.2613 13.1352 14.1331 13.2309 15.039 13.2309C15.945 13.2309 16.8168 13.1352 17.4937 12.9608C18.2425 12.7694 18.4578 12.5642 18.5023 12.5095V10.5232C18.3382 10.5916 18.1707 10.6531 17.9997 10.7044C17.2031 10.9437 16.1502 11.0771 15.0425 11.0771C13.9348 11.0771 12.8818 10.9437 12.0818 10.7044C11.9108 10.6531 11.7433 10.5916 11.5792 10.5232L11.5758 12.5095Z" fill="#86888C"/>
<path d="M15.039 17.4362C13.9279 17.4362 12.8784 17.3029 12.0784 17.0636C11.063 16.7593 10.5502 16.308 10.5502 15.7268V12.5474C10.5399 12.2636 10.7587 12.0243 11.0425 12.014C11.3262 12.0038 11.5655 12.2226 11.5758 12.5063C11.6168 12.5576 11.8288 12.7627 12.5843 12.9576C13.2613 13.132 14.1331 13.2277 15.039 13.2277C15.945 13.2277 16.8168 13.132 17.4937 12.9576C18.2493 12.7627 18.4613 12.5542 18.5023 12.5063C18.5125 12.2226 18.7519 12.0038 19.0356 12.014C19.3194 12.0243 19.5382 12.2636 19.5279 12.5474V15.7268C19.5279 16.308 19.0151 16.7593 17.9997 17.0636C17.2031 17.3063 16.1502 17.4362 15.039 17.4362ZM11.5758 15.6927C11.6202 15.7439 11.8356 15.9491 12.5843 16.1439C13.2613 16.3183 14.1331 16.414 15.039 16.414C15.945 16.414 16.8168 16.3183 17.4937 16.1439C18.2425 15.9525 18.4578 15.7474 18.5023 15.6927V13.7063C18.3382 13.7747 18.1707 13.8362 17.9997 13.8875C17.2031 14.1268 16.1502 14.2602 15.0425 14.2602C13.9348 14.2602 12.8818 14.1268 12.0818 13.8875C11.9108 13.8362 11.7433 13.7747 11.5792 13.7063L11.5758 15.6927Z" fill="#86888C"/>
</svg>
