<svg width="20" height="20" viewBox="0 0 20 20" fill="none" xmlns="http://www.w3.org/2000/svg">
<path d="M12.9778 14.2306H7.88057C7.19957 14.2306 6.59601 14.0006 6.13367 13.5678C5.6531 13.1146 5.34107 12.4609 5.20897 11.6251C5.10192 10.9327 4.0269 4.69438 3.88114 3.86762C3.7832 3.321 3.21381 2.91103 2.55331 2.91103H1.45552C1.20498 2.91103 1 2.70605 1 2.45552C1 2.20498 1.20498 2 1.45552 2H2.55103C3.66249 2 4.59858 2.71744 4.77623 3.70819C4.92427 4.53722 6.00157 10.7892 6.11089 11.4838C6.2111 12.1147 6.42747 12.5907 6.76 12.9051C7.05153 13.1806 7.42961 13.3196 7.88057 13.3196H12.9755C13.5312 13.3196 14.3193 13.126 14.7543 11.4406C14.85 11.0739 15.1643 9.80527 15.4717 8.57765C15.6471 7.8716 15.8157 7.19516 15.9455 6.68043H13.5768C13.3263 6.68043 13.1213 6.47545 13.1213 6.22491C13.1213 5.97438 13.3263 5.7694 13.5768 5.7694H16.5285C16.7791 5.7694 16.9841 5.97438 16.9841 6.22491C16.9841 6.26363 16.9795 6.30007 16.9704 6.33651C16.8451 6.83302 16.6083 7.78733 16.3554 8.7963C16.0503 10.0262 15.7337 11.2971 15.638 11.6683C15.4216 12.5019 15.1096 13.1169 14.6769 13.5473C14.2236 14.0006 13.652 14.2306 12.9778 14.2306Z" fill="#86888C"/>
<path d="M6.98788 6.68056H4.83784C4.58731 6.68056 4.38232 6.47558 4.38232 6.22505C4.38232 5.97451 4.58731 5.76953 4.83784 5.76953H6.98788C7.23841 5.76953 7.44339 5.97451 7.44339 6.22505C7.44339 6.47558 7.23841 6.68056 6.98788 6.68056ZM7.88069 18.0001C7.473 18.0001 7.14731 17.884 6.91044 17.6562C6.66218 17.4171 6.53692 17.0823 6.53692 16.6564C6.53692 16.2305 6.66218 15.8957 6.91044 15.6565C7.14731 15.4287 7.47528 15.3126 7.88069 15.3126C8.2861 15.3126 8.61407 15.4287 8.85094 15.6565C9.09919 15.8957 9.22446 16.2305 9.22446 16.6564C9.22446 17.0823 9.09919 17.4171 8.85094 17.6562C8.61635 17.884 8.28837 18.0001 7.88069 18.0001ZM7.88069 16.2236C7.54816 16.2236 7.44795 16.3238 7.44795 16.6564C7.44795 16.9889 7.54816 17.0891 7.88069 17.0891C8.21321 17.0891 8.31343 16.9889 8.31343 16.6564C8.31343 16.3238 8.21321 16.2236 7.88069 16.2236ZM12.322 18.0001C11.9143 18.0001 11.5886 17.884 11.3517 17.6562C11.1035 17.4171 10.9782 17.0823 10.9782 16.6564C10.9782 16.2305 11.1035 15.8957 11.3517 15.6565C11.5886 15.4287 11.9166 15.3126 12.322 15.3126C12.7274 15.3126 13.0554 15.4287 13.2922 15.6565C13.5382 15.8957 13.6657 16.2305 13.6657 16.6564C13.6657 17.0823 13.5405 17.4171 13.2922 17.6562C13.0576 17.884 12.7297 18.0001 12.322 18.0001ZM12.322 16.2236C11.9894 16.2236 11.8892 16.3238 11.8892 16.6564C11.8892 16.9889 11.9894 17.0891 12.322 17.0891C12.6545 17.0891 12.7547 16.9889 12.7547 16.6564C12.7547 16.3238 12.6545 16.2236 12.322 16.2236Z" fill="#86888C"/>
<path d="M12.7365 11.4471H7.73261C7.33631 11.4471 7.09033 11.2011 7.09033 10.8025V2.65335C7.09033 2.26616 7.34087 2.01562 7.73033 2.01562H10.9827C11.0738 2.01562 11.1604 2.05207 11.2241 2.11584L13.6725 4.56424C13.7363 4.62801 13.7728 4.71456 13.7728 4.80566V10.8162C13.7728 11.1966 13.5268 11.4448 13.1441 11.4448L12.7365 11.4471ZM12.1671 10.7638H13.0918V4.94915L10.8461 2.70118H7.78044V10.7638H12.1671Z" fill="#86888C"/>
<path d="M12.1124 6.56688H8.55941C8.37037 6.56688 8.21777 6.41428 8.21777 6.22524C8.21777 6.03621 8.37037 5.88361 8.55941 5.88361H12.1124C12.3015 5.88361 12.4541 6.03621 12.4541 6.22524C12.4541 6.41428 12.2992 6.56688 12.1124 6.56688ZM12.1124 8.12247H8.55941C8.37037 8.12247 8.21777 7.96987 8.21777 7.78083C8.21777 7.59179 8.37037 7.4392 8.55941 7.4392H12.1124C12.3015 7.4392 12.4541 7.59179 12.4541 7.78083C12.4541 7.96987 12.2992 8.12247 12.1124 8.12247ZM12.1124 9.67578H8.55941C8.37037 9.67578 8.21777 9.52318 8.21777 9.33414C8.21777 9.1451 8.37037 8.99251 8.55941 8.99251H12.1124C12.3015 8.99251 12.4541 9.1451 12.4541 9.33414C12.4541 9.52318 12.2992 9.67578 12.1124 9.67578ZM12.1534 5.15023H11.871C11.3335 5.14795 11.0465 4.90197 10.9008 4.69699C10.7299 4.45329 10.6457 4.12532 10.6434 3.69258V2.36019C10.6434 2.17115 10.796 2.01855 10.985 2.01855C11.0761 2.01855 11.1627 2.055 11.2265 2.11877L13.6726 4.56717C13.807 4.70154 13.8047 4.91791 13.6726 5.05001C13.6088 5.11379 13.5223 5.15023 13.4312 5.15023H12.1534ZM11.3267 3.18468V3.6903C11.3289 4.40546 11.5863 4.46695 11.8733 4.46695H12.6067L11.3267 3.18468Z" fill="#86888C"/>
</svg>
