<svg width="28" height="28" viewBox="0 0 28 28" fill="none" xmlns="http://www.w3.org/2000/svg">
<path fill-rule="evenodd" clip-rule="evenodd" d="M23.9221 20.6378C24.0602 20.6378 24.1759 20.5253 24.1759 20.3871V13.7783H4.39438V20.3871C4.39438 20.5285 4.51004 20.641 4.65141 20.6378H23.9221ZM4.65141 7.36225C4.51004 7.36225 4.39438 7.4747 4.39438 7.61606V8.98474H24.1791V7.61606C24.1791 7.4747 24.0667 7.36225 23.9253 7.36225H4.65141ZM4.39438 12.4161H24.1791V10.347H4.39438V12.4161ZM25.5799 9.66586V13.0972C25.5799 13.1325 25.5639 13.1614 25.5606 13.1936V20.3871C25.5606 21.2771 24.8281 22 23.9221 22H4.65141C3.74859 22 3.01285 21.2771 3.01285 20.3871V13.1518C3.00964 13.1357 3 13.1165 3 13.0972V9.66586C3 9.64659 3.00964 9.62731 3.01285 9.60803V7.61606C3.01285 6.7261 3.74538 6 4.65141 6H23.9221C24.8249 6 25.5606 6.72289 25.5606 7.61285V9.56948C25.5639 9.60161 25.5799 9.63052 25.5799 9.66586ZM20.6129 18.6329C21.2008 18.6233 21.9012 18.3823 21.9012 17.2932C21.9012 16.204 21.1944 15.9566 20.6 15.9438H20.4394C20.3012 15.9438 19.9253 15.9727 19.6233 16.188C19.7518 16.4996 19.8321 16.8626 19.8321 17.2932C19.8321 17.7173 19.755 18.0739 19.6329 18.3823C19.9414 18.6008 20.3237 18.6329 20.4554 18.6329H20.6129ZM17.3454 18.6329C17.9333 18.6233 18.6337 18.3823 18.6337 17.2932C18.6337 16.204 17.9269 15.9566 17.3325 15.9438H17.1655C16.5871 15.947 15.8996 16.1815 15.8996 17.2835C15.8996 18.3855 16.6 18.6265 17.1847 18.6361C17.1815 18.6329 17.3454 18.6329 17.3454 18.6329ZM20.6353 14.7679C21.7695 14.7936 23.0996 15.4715 23.0996 17.2964C23.0996 19.1245 21.7695 19.796 20.6321 19.8153H20.4329C20.1277 19.812 19.4627 19.7446 18.8908 19.3237C18.4442 19.6386 17.9108 19.812 17.3614 19.8153H17.1622C16.0249 19.7992 14.6948 19.1277 14.6948 17.2835C14.6948 15.4394 16.0185 14.7743 17.1494 14.7647C17.2201 14.7647 17.2908 14.7647 17.3614 14.7679C17.9044 14.7775 18.4313 14.9478 18.8747 15.2594C19.4723 14.8193 20.1759 14.7679 20.4233 14.7679C20.494 14.7614 20.5711 14.7647 20.6353 14.7679Z" fill="#86888C"/>
</svg>
