<svg width="24" height="24" viewBox="0 0 24 24" fill="none" xmlns="http://www.w3.org/2000/svg">
<path fill-rule="evenodd" clip-rule="evenodd" d="M21.7571 15.7652L21.3269 19.2603C21.2763 19.6568 20.936 19.952 20.5367 19.9492H17.0332C16.5973 19.952 16.243 19.6033 16.2374 19.1675C16.2374 18.7373 16.5973 18.3858 17.0332 18.3858H18.9227L13.9176 11.4096L7.0989 14.348C6.72211 14.5055 6.28628 14.362 6.0782 14.0134L2.10224 7.12153C1.88854 6.74474 2.0207 6.26953 2.39748 6.05583C2.4003 6.05302 2.40311 6.05302 2.40592 6.05021C2.78833 5.83932 3.26916 5.96867 3.48848 6.34545L7.11296 12.6243L13.8698 9.71968C14.2157 9.56784 14.6206 9.6775 14.8427 9.98399L19.98 17.157L20.1712 15.5768C20.2331 15.1437 20.6267 14.8372 21.0626 14.8879C21.4928 14.9357 21.8049 15.3265 21.7571 15.7567V15.7652Z" fill="#86888C"/>
</svg>
