<svg width="40" height="40" viewBox="0 0 40 40" fill="none" xmlns="http://www.w3.org/2000/svg">
<path d="M7.88452 38C6.88497 38 6.00332 37.1491 6.00332 36.1803V31.9053C3.69154 31.4337 2 29.3731 2 26.8307V9.17714C2 6.32203 4.3374 4 7.2079 4H32.7963C35.6668 4 37.9991 6.32203 37.9991 9.17714V26.8358C37.9991 29.6909 35.6668 32.013 32.7963 32.013H13.5025L9.47354 37.1696C8.84818 38 8.12031 38 7.88452 38ZM7.20277 6.05035C5.4651 6.05035 4.05035 7.45485 4.05035 9.17714V26.8358C4.05035 28.6196 5.33183 29.9626 7.02849 29.9626C7.59234 29.9626 8.05367 30.4239 8.05367 30.9878V35.6575L12.1954 30.3624C12.3902 30.1164 12.6875 29.9677 13.0053 29.9677H32.7912C34.5289 29.9677 35.9436 28.5632 35.9436 26.8409V9.17714C35.9436 7.44972 34.5289 6.05035 32.7912 6.05035H7.20277Z" fill="#86888C"/>
<path d="M30.9108 15.0816H9.07449C8.51065 15.0816 8.04932 14.6203 8.04932 14.0564C8.04932 13.4926 8.51065 13.0312 9.07449 13.0312H30.9108C31.4746 13.0312 31.9359 13.4926 31.9359 14.0564C31.9359 14.6203 31.4746 15.0816 30.9108 15.0816ZM23.9139 23.078H9.07449C8.51065 23.078 8.04932 22.6167 8.04932 22.0528C8.04932 21.489 8.51065 21.0276 9.07449 21.0276H23.9139C24.4778 21.0276 24.9391 21.489 24.9391 22.0528C24.9391 22.6167 24.4778 23.078 23.9139 23.078Z" fill="#86888C"/>
</svg>
