<svg width="20" height="20" viewBox="0 0 20 20" fill="none" xmlns="http://www.w3.org/2000/svg">
<path fill-rule="evenodd" clip-rule="evenodd" d="M3.10512 16.9915H16.981L12.4483 11.0222C11.7357 11.218 10.8479 11.325 9.90763 11.325C9.03796 11.325 8.20928 11.2294 7.52629 11.0632L3.10512 16.9915ZM8.47109 9.79966L8.19106 10.1685C9.28611 10.3574 10.7158 10.3506 11.7767 10.148L11.5172 9.79966C11.4512 9.71542 11.4147 9.6107 11.4147 9.5037V3.00854H8.57353V8.6955C8.57353 8.70233 8.5667 8.72282 8.5667 8.73648C8.5667 8.75014 8.57353 8.7638 8.57353 8.77746V9.5037C8.57353 9.60842 8.53711 9.71315 8.47109 9.79966ZM17.8234 16.4382C18.0419 16.782 18.0556 17.1645 17.878 17.4809C17.7005 17.7974 17.359 18 16.981 18H2.95259C2.60882 18 2.29465 17.811 2.1239 17.5219C1.95316 17.2282 1.95999 16.8617 2.13756 16.5726L7.54451 9.33295V8.78201C7.53768 8.74559 7.53768 8.70916 7.54451 8.67501V3.00854H6.92072C6.64069 3.00854 6.41303 2.78315 6.40848 2.50313C6.41076 2.22083 6.64297 2 6.92299 2H13.0789C13.3567 2 13.5843 2.22538 13.5843 2.50541C13.5843 2.78543 13.359 3.01081 13.0789 3.01081H12.4438V9.33523L17.8234 16.4382ZM12.8126 14.856C12.8126 13.9522 12.0613 13.8771 11.8678 13.8702C11.8427 13.8702 11.8177 13.868 11.7927 13.868H11.7744C11.5764 13.8702 10.8433 13.9363 10.8433 14.8469C10.8433 15.7575 11.5855 15.8304 11.7836 15.8327H11.8746C12.0613 15.8327 12.8126 15.7621 12.8126 14.856ZM11.7949 13.1964L11.886 13.1986C12.6874 13.2191 13.4978 13.7382 13.4978 14.856C13.4978 15.9761 12.6874 16.4952 11.886 16.5088H11.7722C10.9685 16.4974 10.1581 15.9806 10.1581 14.8515C10.1581 13.72 10.9662 13.2055 11.7699 13.1986L11.7949 13.1964ZM8.33677 13.7587C8.44149 13.7564 8.86039 13.7177 8.86039 13.2123C8.86039 12.7092 8.44149 12.6682 8.33449 12.6659H8.28213C8.17285 12.6659 7.76306 12.7046 7.76306 13.21C7.76306 13.7177 8.1774 13.7564 8.28668 13.7587H8.33677ZM8.3527 11.9943C8.92641 12.008 9.54565 12.395 9.54565 13.2146C9.54565 14.0364 8.92413 14.4212 8.34815 14.4326H8.27758C7.69932 14.4234 7.08008 14.0387 7.08008 13.2123C7.08008 12.3813 7.69932 11.9989 8.2753 11.9943H8.3527Z" fill="#86888C"/>
</svg>
