<svg width="16" height="16" viewBox="0 0 16 16" fill="none" xmlns="http://www.w3.org/2000/svg">
<path fill-rule="evenodd" clip-rule="evenodd" d="M14 12.3477C14 12.5304 13.9215 12.7045 13.7866 12.8274C13.5134 13.0716 13.0968 13.0545 12.8441 12.7899L7.9558 7.61682L3.1614 12.7865C2.91041 13.0528 2.49381 13.0716 2.21891 12.8291C1.95256 12.5953 1.92524 12.1906 2.15915 11.9243C2.16428 11.9192 2.16769 11.914 2.17281 11.9089L7.45723 6.21344C7.58358 6.07686 7.76115 6.00003 7.94726 6.00003C8.13337 5.99832 8.31264 6.07344 8.4407 6.20832L13.8224 11.9055C13.9366 12.0244 14.0003 12.1829 14 12.3477Z" fill="#86888C"/>
</svg>
