<svg width="28" height="28" viewBox="0 0 28 28" fill="none" xmlns="http://www.w3.org/2000/svg">
<path fill-rule="evenodd" clip-rule="evenodd" d="M19.6953 1.99949C20.0607 1.99949 20.409 2.15657 20.6549 2.42634C21.1432 2.97271 21.109 3.80593 20.5797 4.31132L10.2328 14.0879L20.5729 23.6767C21.1056 24.1787 21.1432 25.0119 20.6583 25.5617C20.1904 26.0944 19.3811 26.149 18.8484 25.6812C18.8382 25.671 18.8279 25.6641 18.8177 25.6539L7.42584 15.085C7.15265 14.8323 6.99899 14.4772 6.99899 14.105C6.99557 13.7328 7.14582 13.3742 7.41559 13.1181L18.8109 2.35463C19.0486 2.12625 19.3656 1.99895 19.6953 1.99949Z" fill="#86888C"/>
</svg>
