<svg width="20" height="20" viewBox="0 0 20 20" fill="none" xmlns="http://www.w3.org/2000/svg">
<path fill-rule="evenodd" clip-rule="evenodd" d="M6.33868 18C6.1038 18 5.87991 17.8953 5.72186 17.7154C5.40796 17.3512 5.42992 16.7957 5.77015 16.4587L12.4212 9.94081L5.77454 3.54809C5.43211 3.21343 5.40796 2.65794 5.71967 2.2914C6.02039 1.93625 6.54062 1.89983 6.88305 2.21172C6.88964 2.21855 6.89623 2.22311 6.90281 2.22994L14.2256 9.27604C14.4012 9.44451 14.5 9.68127 14.5 9.92942C14.5022 10.1776 14.4056 10.4166 14.2322 10.5874L6.9072 17.7632C6.75438 17.9155 6.55059 18.0004 6.33868 18Z" fill="#86888C"/>
</svg>
