<svg width="40" height="40" viewBox="0 0 40 40" fill="none" xmlns="http://www.w3.org/2000/svg">
<path fill-rule="evenodd" clip-rule="evenodd" d="M31.07 35.8435C31.4952 35.8435 31.8025 35.613 31.8486 35.531L31.8332 7.00455C31.8332 7.03016 31.4798 6.76892 31.07 6.76892H26.2294C26.2345 6.82015 26.2447 6.86625 26.2499 6.9226L26.255 7.06602L26.2601 7.27604L26.255 7.47069C26.1628 10.2316 23.4326 10.6209 20.5026 10.6209C17.5726 10.6209 14.8475 10.2316 14.745 7.42459V7.27604L14.7501 7.04553L14.7604 6.86113C14.7604 6.82527 14.7706 6.79966 14.7758 6.7638H9.92999C9.53557 6.7638 9.20262 7.00455 9.14627 7.10188L9.16676 35.6079C9.1975 35.613 9.50484 35.8435 9.92999 35.8435H31.07ZM20.5026 4.15652C17.4445 4.15652 16.9835 5.6881 16.922 7.02504L16.9118 7.28116C16.9323 7.77291 16.9528 8.47467 20.5026 8.47467C24.0524 8.47467 24.0728 7.77291 24.0882 7.35287V7.13773C24.078 6.74844 24.0216 6.36426 23.9089 5.99032C23.7655 5.53443 23.3352 4.15652 20.5026 4.15652ZM31.07 4.61753C32.6323 4.61753 34 5.73421 34 7.00455V35.613C34 36.9089 32.6579 38 31.07 38H9.92999C8.34206 38 7 36.9038 7 35.613V6.99943C7 5.72908 8.37279 4.61241 9.92999 4.61241H15.3341C16.1946 2.94252 17.9721 2 20.5026 2C23.5862 2 25.0154 3.29596 25.6762 4.61753H31.07ZM19.2271 7.72681C18.6688 7.72681 18.218 7.27604 18.218 6.72282C18.218 6.16961 18.6688 5.71884 19.2271 5.71884H21.7729C22.3312 5.71884 22.7871 6.16961 22.7871 6.72282C22.7871 7.27604 22.3312 7.72681 21.7729 7.72681H19.2271Z" fill="#86888C"/>
</svg>
