<svg width="37" height="28" viewBox="0 0 37 28" fill="none" xmlns="http://www.w3.org/2000/svg">
<path d="M7.99493 18.2534C8.53783 18.2534 8.89122 18.5402 8.89122 19.1548C8.89122 19.4519 8.80928 19.667 8.66587 19.8155C8.5071 19.9743 8.27662 20.0511 7.99493 20.0511C7.71324 20.0511 7.48276 19.9743 7.32399 19.8155C7.18058 19.667 7.09863 19.4468 7.09863 19.1548C7.10375 18.5402 7.45203 18.2534 7.99493 18.2534Z" fill="#86888C"/>
<path d="M28.0047 23.2422C28.5476 23.2422 28.901 23.529 28.901 24.1436C28.901 24.4407 28.819 24.6558 28.6756 24.8043C28.5169 24.9631 28.2864 25.0399 28.0047 25.0399C27.723 25.0399 27.4925 24.9631 27.3338 24.8043C27.1903 24.6558 27.1084 24.4355 27.1084 24.1436C27.1135 23.529 27.4618 23.2422 28.0047 23.2422Z" fill="#86888C"/>
<path d="M18.7553 14.064C18.3916 14.064 18.1151 13.7669 18.1099 13.3725L18.0894 12.0819L13.2699 12.0614C13.2546 12.0614 13.2392 12.0614 13.229 12.0614C12.9729 12.0614 12.727 11.9487 12.5529 11.7541C12.3839 11.5646 12.3019 11.3085 12.3224 11.0524L12.3275 9.03446C12.3224 8.80398 12.4197 8.56326 12.5939 8.37888C12.7936 8.17401 13.0599 8.0767 13.3468 8.10231L18.1663 8.09719L18.1509 6.81164C18.1458 6.55044 18.2533 6.38142 18.3455 6.28923C18.5709 6.06388 18.9396 6.04339 19.2265 6.26362L23.5236 9.48004C23.7233 9.62857 23.836 9.8488 23.836 10.0895C23.836 10.3251 23.7182 10.5454 23.5184 10.6939L19.1906 13.9154C19.0574 14.0127 18.9038 14.064 18.7553 14.064ZM13.3519 11.037L18.2738 11.0575C18.7348 11.0626 19.1087 11.4365 19.1138 11.8924L19.124 12.6811L22.617 10.0793L19.1855 7.50819L19.1957 8.27133C19.2008 8.49668 19.1138 8.70667 18.955 8.87056C18.7962 9.02933 18.5862 9.12153 18.3609 9.12153L13.3519 9.12665V11.037Z" fill="#86888C"/>
<path d="M17.2094 21.9001C17.0557 21.9001 16.9072 21.8489 16.7689 21.7464L12.4462 18.5198C12.2465 18.3712 12.1338 18.151 12.1338 17.9154C12.1338 17.6798 12.2465 17.4596 12.4462 17.311L16.7433 14.0946C17.0301 13.8795 17.404 13.8949 17.6242 14.1202C17.7164 14.2124 17.824 14.3763 17.8189 14.6426L17.8035 15.9282L22.623 15.9333C22.9149 15.9077 23.1761 16.005 23.3759 16.2099C23.55 16.3891 23.6525 16.635 23.6422 16.8808L23.6473 18.8834C23.6678 19.1446 23.5859 19.3956 23.4169 19.5851C23.2427 19.7797 22.9969 19.8924 22.7408 19.8924C22.7306 19.8924 22.7152 19.8924 22.6998 19.8924L17.8803 19.9129L17.8598 21.2035C17.8496 21.603 17.573 21.9001 17.2094 21.9001ZM13.3476 17.9154L16.8406 20.5172L16.8509 19.7285C16.856 19.2726 17.235 18.8988 17.6908 18.8936L22.6179 18.8732L22.6128 16.9679L17.6038 16.9628C17.3784 16.9628 17.1684 16.8757 17.0096 16.7118C16.8509 16.553 16.7638 16.3379 16.7689 16.1126L16.7792 15.3494L13.3476 17.9154Z" fill="#86888C"/>
<path d="M12.2203 22.9861H3.76444C1.2292 22.9861 0 21.7518 0 19.2166V3.76444C0 1.2292 1.2292 0 3.76444 0H12.2203C14.7197 0 15.9848 1.26506 15.9848 3.76444V8.60956C15.9848 8.89125 15.7543 9.12173 15.4726 9.12173C15.1909 9.12173 14.9604 8.89125 14.9604 8.60956V3.76444C14.9604 1.84381 14.141 1.02434 12.2203 1.02434H3.76444C1.79259 1.02434 1.02434 1.79259 1.02434 3.76444V19.2166C1.02434 21.1884 1.79259 21.9567 3.76444 21.9567H12.2203C13.9207 21.9567 14.6992 21.3933 14.9041 20.0156C14.9451 19.7339 15.2063 19.5444 15.488 19.5853C15.7697 19.6263 15.9643 19.8875 15.9182 20.1692C15.6365 22.0642 14.4278 22.9861 12.2203 22.9861Z" fill="#86888C"/>
<path d="M15.4731 16.1947C15.1914 16.1947 14.9609 15.9642 14.9609 15.6825V11.5595C14.9609 11.2778 15.1914 11.0474 15.4731 11.0474C15.7548 11.0474 15.9853 11.2778 15.9853 11.5595V15.6825C15.9853 15.9642 15.7548 16.1947 15.4731 16.1947Z" fill="#86888C"/>
<path d="M32.236 27.9996H23.7801C21.2448 27.9996 20.0156 26.7704 20.0156 24.2351V19.39C20.0156 19.1083 20.2461 18.8778 20.5278 18.8778C20.8095 18.8778 21.04 19.1083 21.04 19.39V24.2351C21.04 26.207 21.8082 26.9752 23.7801 26.9752H32.236C34.2078 26.9752 34.9761 26.207 34.9761 24.2351V8.78299C34.9761 6.86236 34.1566 6.04289 32.236 6.04289H23.7801C22.1053 6.04289 21.3012 6.62676 21.0963 7.99426C21.0553 8.27595 20.7941 8.46545 20.5124 8.42448C20.2307 8.3835 20.0361 8.1223 20.0822 7.8406C20.369 5.94046 21.5777 5.01855 23.7852 5.01855H32.2411C34.7405 5.01855 36.0055 6.28361 36.0055 8.78299V24.2351C36.0004 26.7704 34.7712 27.9996 32.236 27.9996Z" fill="#86888C"/>
<path d="M20.5278 16.958C20.2461 16.958 20.0156 16.7276 20.0156 16.4459V12.2768C20.0156 11.9951 20.2461 11.7646 20.5278 11.7646C20.8095 11.7646 21.04 11.9951 21.04 12.2768V16.4459C21.04 16.7276 20.8095 16.958 20.5278 16.958Z" fill="#86888C"/>
</svg>
