<svg width="24" height="24" viewBox="0 0 24 24" fill="none" xmlns="http://www.w3.org/2000/svg">
<path fill-rule="evenodd" clip-rule="evenodd" d="M18.505 8.68677H17.0028C16.9886 8.68677 16.9716 8.68108 16.9573 8.68108H5.71693C5.7027 8.68108 5.68848 8.68677 5.67141 8.68677H4.16643V7.58293H18.505V8.68677ZM16.9545 10.9087H14.6671C14.6501 10.9087 14.6358 10.903 14.6216 10.903H8.04979C8.03556 10.903 8.02134 10.9087 8.00427 10.9087H5.71408V9.93286H16.9545V10.9087ZM8.04979 18.8347H14.6216V12.1576H8.04979V18.8347ZM16.9317 20.9485H5.73684V20.0836H7.97297C7.99858 20.0865 8.02134 20.0922 8.04694 20.0922H14.6188C14.6444 20.0922 14.67 20.0865 14.6927 20.0836H16.9289V20.9485H16.9317ZM9.05121 3.45206L9.43528 3.86458L8.77809 4.57012L8.39403 4.15761L9.05121 3.45206ZM13.2418 3.86458L13.6259 3.45206L14.2831 4.15761L13.899 4.57012L13.2418 3.86458ZM18.505 6.33399H15.9189V5.73655C15.9189 5.57155 15.8563 5.41223 15.7482 5.29559L15.2674 4.7778C15.5292 4.29985 15.4893 3.6825 15.1053 3.27283L14.4481 2.56728C14.229 2.33399 13.9331 2.20312 13.6259 2.20312C13.3186 2.20312 13.0228 2.33399 12.8037 2.56728L12.4196 2.9798C11.9673 3.46628 11.9673 4.25718 12.4196 4.74367L13.0768 5.44921C13.2959 5.68534 13.5918 5.81621 13.899 5.81621C14.0925 5.81621 14.2774 5.75931 14.4452 5.66258L14.7525 5.99544V6.33399H7.91323V5.99544L8.22333 5.66258C8.39118 5.75931 8.57895 5.81906 8.7724 5.81906C9.07966 5.81906 9.37553 5.68819 9.59459 5.45206L10.2518 4.74651C10.707 4.26002 10.707 3.46913 10.2518 2.98264L9.86771 2.57012C9.64865 2.33684 9.35277 2.20597 9.04552 2.20597C8.73826 2.20597 8.44239 2.33684 8.22333 2.57012L7.56614 3.27567C7.18492 3.68534 7.14225 4.29985 7.40398 4.7778L6.92034 5.29843C6.81223 5.41507 6.74964 5.57439 6.74964 5.7394V6.33684H4.16358C3.52063 6.33684 3 6.89729 3 7.58577V8.68961C3 9.38093 3.52063 9.93854 4.16358 9.93854H4.5505V10.9144C4.5505 11.6057 5.07112 12.1633 5.71408 12.1633H6.8862V18.8404H5.73684C5.09388 18.8404 4.57326 19.4008 4.57326 20.0893V20.9542C4.57326 21.6427 5.09388 22.2031 5.73684 22.2031H16.9317C17.5747 22.2031 18.0953 21.6427 18.0953 20.9542V20.0893C18.0953 19.4008 17.5747 18.8404 16.9317 18.8404H15.7824V12.1633H16.9545C17.5974 12.1633 18.1181 11.6057 18.1181 10.9144V9.93854H18.505C19.1479 9.93854 19.6686 9.38093 19.6686 8.68961V7.58577C19.6657 6.89445 19.1451 6.33399 18.505 6.33399Z" fill="#86888C"/>
</svg>
