<svg width="24" height="24" viewBox="0 0 24 24" fill="none" xmlns="http://www.w3.org/2000/svg">
<path fill-rule="evenodd" clip-rule="evenodd" d="M17.9355 18.5156C16.5269 18.5156 15.3827 17.3551 15.3827 15.9266C15.3827 14.498 16.5297 13.3375 17.9355 13.3375C19.344 13.3375 20.4911 14.498 20.4911 15.9266C20.4911 17.3523 19.344 18.5156 17.9355 18.5156ZM8.49452 9.39123C8.49733 8.01401 9.59662 6.90198 10.9546 6.89913C12.3125 6.89913 13.4118 8.01401 13.4146 9.39123C13.4118 10.7684 12.3125 11.8833 10.9546 11.8833C9.59662 11.8833 8.49452 10.7684 8.49452 9.39123ZM4.78899 16.6252C3.95398 16.6252 3.27922 15.938 3.27922 15.0911C3.30734 14.2443 4.00459 13.5799 4.8396 13.6084C5.63525 13.6341 6.27626 14.2842 6.30157 15.0911C6.30157 15.9408 5.624 16.6252 4.78899 16.6252ZM10.9658 20.7055C10.3923 20.7055 9.92557 20.2321 9.92557 19.6505C9.92557 19.0659 10.3923 18.5955 10.9686 18.5955C11.5422 18.5955 12.0089 19.0688 12.0089 19.6505C12.0089 20.2321 11.5422 20.7055 10.9658 20.7055ZM4.7918 5.35939C4.21826 5.35939 3.75436 4.88606 3.75155 4.30438C3.75155 3.71985 4.21826 3.24937 4.79461 3.24937C5.36815 3.24937 5.83486 3.7227 5.83486 4.30438C5.83486 4.88606 5.36534 5.35939 4.7918 5.35939ZM19.1697 5.87548C19.8304 5.87548 20.3646 6.4201 20.3646 7.08732C20.3646 7.75739 19.8276 8.29915 19.1697 8.29915C18.509 8.29915 17.9748 7.75739 17.9748 7.08732C17.9748 6.41725 18.509 5.87548 19.1697 5.87548ZM17.9355 12.0459C17.0077 12.0459 16.1671 12.3966 15.5035 12.9554L13.9769 11.5953C14.438 10.9538 14.6882 10.1839 14.6882 9.39123C14.6882 9.29428 14.6657 9.20304 14.6601 9.10894L17.0695 8.38754C17.5138 9.13175 18.3094 9.58797 19.1697 9.59082C20.5333 9.59082 21.6382 8.46738 21.6382 7.08732C21.6016 5.7044 20.4686 4.61233 19.1051 4.64654C17.7893 4.68076 16.7322 5.75288 16.6984 7.08732C16.6984 7.10728 16.704 7.12724 16.704 7.15005L14.3537 7.85434C13.7548 6.49138 12.4222 5.61316 10.9518 5.61031C9.95649 5.61031 9.0034 6.01235 8.30615 6.72805L6.81044 5.42782C6.99319 5.09136 7.10846 4.71212 7.10846 4.30153C7.08316 3.007 6.02604 1.97481 4.74682 2.00047C3.50133 2.02328 2.49763 3.04122 2.47514 4.30438C2.47514 5.5989 3.51539 6.65106 4.78899 6.65106C5.19665 6.65106 5.57339 6.53415 5.90515 6.34596L7.57798 7.80016C7.34181 8.29915 7.22092 8.84376 7.21811 9.39408C7.21811 10.201 7.47395 10.9481 7.9013 11.564L6.53773 12.9155C6.04572 12.5021 5.4272 12.274 4.78618 12.274C3.25111 12.274 2.00281 13.5371 2 15.094C2.00281 16.6537 3.2483 17.9168 4.78618 17.9197C6.32406 17.9197 7.57236 16.6537 7.57236 15.094C7.57236 14.6834 7.47958 14.2927 7.32495 13.942L8.80097 12.4793C10.0718 13.4003 11.7783 13.4117 13.0632 12.5106L14.6657 13.9392C14.3171 14.5208 14.1062 15.1995 14.1062 15.9294C14.1062 16.4341 14.2075 16.9103 14.3818 17.3523L12.7146 18.1307C12.2788 17.6089 11.6406 17.3095 10.9658 17.3066C9.68659 17.3066 8.65197 18.3559 8.64915 19.6533C8.65197 20.9478 9.68659 22 10.9658 22C12.2422 22 13.2797 20.9507 13.2797 19.6533C13.2797 19.5336 13.2628 19.4195 13.2459 19.3055L15.0565 18.4614C15.7566 19.2798 16.78 19.8101 17.9327 19.8101C20.0441 19.8101 21.7591 18.0737 21.7619 15.9294C21.7619 13.7852 20.0497 12.0487 17.9355 12.0459Z" fill="#86888C"/>
</svg>
