<svg width="28" height="28" viewBox="0 0 28 28" fill="none" xmlns="http://www.w3.org/2000/svg">
<path d="M19.9064 25.6781C19.5196 25.6781 19.208 25.3666 19.208 24.9797V3.02363C19.208 2.63675 19.5196 2.3252 19.9064 2.3252C20.2933 2.3252 20.6049 2.63675 20.6049 3.02363V24.9797C20.6049 25.3631 20.2933 25.6781 19.9064 25.6781Z" fill="#86888C"/>
<path d="M21.8414 11.1342H20.1193C19.7325 11.1342 19.4209 10.8226 19.4209 10.4357C19.4209 10.0489 19.7325 9.7373 20.1193 9.7373H21.8414C22.2283 9.7373 22.5399 10.0489 22.5399 10.4357C22.5399 10.8226 22.2283 11.1342 21.8414 11.1342Z" fill="#86888C"/>
<path d="M19.1946 26H8.56063C6.59544 26 5 24.4011 5 22.4394V5.23538C5 4.37261 5.33552 3.5612 5.94494 2.94836C6.55435 2.33552 7.36576 2 8.23195 2H19.1946C21.0365 2 22.5395 3.49957 22.5395 5.34494V22.6585C22.5395 24.5004 21.0399 26 19.1946 26ZM8.23195 3.39686C7.74237 3.39686 7.28017 3.58859 6.93438 3.93438C6.58859 4.28017 6.39686 4.74237 6.39686 5.23538V22.4394C6.39686 23.6342 7.36919 24.6066 8.56405 24.6066H19.198C20.273 24.6066 21.1461 23.7335 21.1461 22.6585V5.34494C21.1461 4.2699 20.273 3.39686 19.198 3.39686H8.23195Z" fill="#86888C"/>
<path d="M16.5788 19.3852H9.15631C8.81394 19.3852 8.53662 19.1079 8.53662 18.7655V17.6802C8.53662 15.8212 9.67328 14.6195 11.4365 14.6195H14.3021C16.0619 14.6195 17.202 15.8212 17.202 17.6802V18.7655C17.1985 19.1079 16.9212 19.3852 16.5788 19.3852ZM9.77599 18.1459H15.9592V17.6802C15.9592 16.9989 15.7435 15.8588 14.2987 15.8588H11.4331C9.98826 15.8588 9.77257 16.9989 9.77257 17.6802V18.1459H9.77599ZM12.8573 13.9245C10.9743 13.9245 9.8924 12.8426 9.8924 10.9595C9.8924 9.06968 10.9743 7.98779 12.8573 7.98779C14.7472 7.98779 15.8291 9.06968 15.8291 10.9595C15.8291 12.8426 14.7472 13.9245 12.8573 13.9245ZM12.8573 9.32303C11.7172 9.32303 11.2276 9.81261 11.2276 10.9595C11.2276 12.0996 11.7138 12.5892 12.8573 12.5892C14.0042 12.5892 14.4938 12.1031 14.4938 10.9595C14.4938 9.81261 14.0042 9.32303 12.8573 9.32303ZM21.7931 18.2657H20.071C19.6841 18.2657 19.3726 17.9541 19.3726 17.5673C19.3726 17.1804 19.6841 16.8688 20.071 16.8688H21.7931C22.18 16.8688 22.4915 17.1804 22.4915 17.5673C22.4915 17.9541 22.18 18.2657 21.7931 18.2657Z" fill="#86888C"/>
</svg>
