<svg width="24" height="24" viewBox="0 0 24 24" fill="none" xmlns="http://www.w3.org/2000/svg">
<path fill-rule="evenodd" clip-rule="evenodd" d="M19.5492 20.8253C18.7752 20.8253 18.3796 20.4611 18.3711 19.744V19.5874C18.3825 19.0866 18.5959 18.4976 19.515 18.4776C19.5293 18.4776 19.5406 18.4862 19.5549 18.4862C19.5691 18.4862 19.5833 18.4776 19.5976 18.4776C20.5195 18.4947 20.7273 19.0809 20.7358 19.5874V19.724C20.7273 20.4554 20.3289 20.8253 19.5492 20.8253ZM5.6396 19.5789V19.7269C5.62821 20.4582 5.22982 20.8282 4.45011 20.8282C3.67325 20.8282 3.2777 20.4639 3.27201 19.744V19.7411L3.27486 19.5931C3.28624 19.0838 3.50251 18.4776 4.46149 18.4776C5.41764 18.4748 5.62821 19.0752 5.6396 19.5789ZM8.98609 11.7078V10.598C9.12268 10.6521 9.25643 10.709 9.4101 10.7574C10.1101 10.9679 11.0207 11.0818 11.9769 11.0818C12.933 11.0818 13.8436 10.9651 14.5408 10.7574C14.6888 10.7147 14.8197 10.6578 14.9534 10.6009V11.705C14.9534 11.8188 14.7087 12.0123 14.1737 12.1717C12.9985 12.5217 10.9439 12.5217 9.77149 12.1717C9.23082 12.018 8.98609 11.8216 8.98609 11.7078ZM9.76865 3.60338C10.3549 3.42695 11.1346 3.33305 11.9683 3.33305C12.8021 3.33305 13.5875 3.4298 14.1709 3.60338C14.5152 3.70583 14.7258 3.8225 14.8453 3.9221C14.7457 4.00462 14.5522 4.11845 14.1766 4.22943C13.0099 4.57945 10.9439 4.57945 9.77719 4.22943C9.4101 4.12129 9.2109 4.00462 9.10276 3.91356C9.2109 3.82535 9.40725 3.71152 9.76865 3.60338ZM8.98609 7.93163C9.12268 7.9857 9.25643 8.04261 9.4101 8.08814C10.1101 8.29872 11.0207 8.41255 11.9769 8.41255C12.933 8.41255 13.8436 8.29588 14.5408 8.08814C14.6888 8.04546 14.8197 7.98854 14.9534 7.93163V9.12965C14.8481 9.24917 14.6034 9.4256 14.1766 9.55366C13.0099 9.90367 10.9439 9.90367 9.77719 9.55366C9.29627 9.40853 9.07431 9.24063 8.98609 9.14388V7.93163ZM9.4101 5.43314C10.1101 5.64372 11.0207 5.75755 11.9769 5.75755C12.933 5.75755 13.8436 5.64088 14.5408 5.43314C14.6945 5.38761 14.8225 5.33355 14.9534 5.27948V6.46043C14.851 6.57994 14.6006 6.75637 14.1766 6.88443C13.0099 7.23445 10.9468 7.23445 9.77719 6.88443C9.29342 6.74215 9.07431 6.57141 8.98894 6.4775V5.27379C9.12268 5.3307 9.25358 5.38761 9.4101 5.43314ZM22.0021 19.5561C21.9879 18.6171 21.4899 17.5414 20.1895 17.2796V15.3389C20.1895 14.9917 19.9049 14.71 19.5577 14.71H12.5802C12.583 14.6844 12.5972 14.6616 12.5972 14.6332V13.6884C13.3172 13.6486 13.9916 13.5461 14.538 13.3839C15.9267 12.9684 16.2198 12.2428 16.2198 11.7107V4.07292C16.2198 3.54078 15.9267 2.81514 14.538 2.39967C13.1351 1.98136 10.8073 1.98136 9.4044 2.39967C8.49095 2.67285 7.94458 3.10824 7.77384 3.69445C7.73969 3.81396 7.71977 3.94202 7.71977 4.07292V11.7107C7.71977 12.2428 8.01288 12.9684 9.4044 13.3839C9.94508 13.5461 10.6138 13.6486 11.3281 13.6884V14.6332C11.3281 14.6588 11.3395 14.6815 11.3423 14.71H4.44158C4.27368 14.71 4.11148 14.7754 3.99196 14.895C3.87244 15.0145 3.80699 15.1738 3.80699 15.3417L3.81553 17.2825C2.52645 17.55 2.02561 18.6228 2.00285 19.5561C2 19.6188 2 19.6899 2 19.7553C2.01138 20.831 2.65735 22.0859 4.44442 22.0859C6.23434 22.0859 6.886 20.8253 6.90022 19.744V19.5561C6.8803 18.6171 6.38231 17.5386 5.08185 17.2796L5.07616 15.9678H18.9203V17.2825C17.6284 17.55 17.1247 18.6256 17.1019 19.5675V19.7553C17.1104 20.831 17.7564 22.0859 19.5463 22.0859C21.3334 22.0859 21.9879 20.8253 22.0021 19.744C22.005 19.6757 22.005 19.6045 22.0021 19.5561Z" fill="#86888C"/>
</svg>
