<svg width="24" height="24" viewBox="0 0 24 24" fill="none" xmlns="http://www.w3.org/2000/svg">
<path fill-rule="evenodd" clip-rule="evenodd" d="M8.42026 18.3693C8.08166 18.3693 7.80851 18.0962 7.80851 17.7576V13.8054C7.80851 13.4668 8.08451 13.1936 8.42026 13.1936C8.75601 13.1936 9.03201 13.4668 9.03201 13.8054V17.7576C9.03486 18.0933 8.75886 18.3693 8.42026 18.3693ZM8.42026 18.7108C8.76455 18.7108 9.04339 18.9896 9.04339 19.3339C9.04339 19.6782 8.76455 19.957 8.42026 19.957C8.07597 19.957 7.79713 19.6782 7.79713 19.3339C7.79713 18.9896 8.07597 18.7108 8.42026 18.7108ZM20.7748 9.60563V6.45583C20.3907 6.68345 19.924 6.88832 19.3521 7.05904C18.1343 7.42609 16.5494 7.62242 14.8792 7.62242C13.2118 7.62242 11.6241 7.42609 10.4149 7.05904C9.84294 6.88547 9.35923 6.67492 8.97511 6.43875V9.36093C9.12306 9.45198 9.24541 9.58003 9.32793 9.73652L9.53279 10.1519C9.86001 10.3568 10.284 10.5446 10.7677 10.6897C11.8717 11.0255 13.3342 11.2047 14.8878 11.2047C16.4413 11.2047 17.8953 11.0255 18.9993 10.6897C20.0151 10.3881 20.5699 9.93 20.7748 9.60563ZM20.7748 14.4285V11.236C20.3736 11.4807 19.8927 11.7027 19.3521 11.8648C18.14 12.2234 16.5551 12.4282 14.8878 12.4282C13.2204 12.4282 11.627 12.2234 10.4149 11.8648C10.4063 11.8563 10.3892 11.8563 10.3836 11.8478L12.3781 15.854C13.1549 15.9678 14.0228 16.0333 14.8878 16.0333C16.4413 16.0333 17.8953 15.8455 18.9993 15.5183C20.0151 15.2224 20.5699 14.7643 20.7748 14.4285ZM20.7748 18.9185V16.0617C20.3736 16.315 19.8927 16.5284 19.3521 16.6906C18.14 17.0576 16.5551 17.2625 14.8878 17.2625C14.2419 17.2625 13.6301 17.2198 13.024 17.1657L14.7398 20.6029C14.7711 20.6598 14.7711 20.7253 14.7882 20.7822H14.8678C16.4129 20.7822 17.8782 20.6029 18.9879 20.27C19.8017 20.0196 20.7748 19.5871 20.7748 18.9185ZM8.46294 10.7466L3.4039 20.7224L13.4508 20.7623L8.46294 10.7466ZM10.762 3.7442C9.82302 4.02874 9.23403 4.40717 9.05478 4.80552C9.2255 5.22094 9.82302 5.60506 10.7705 5.88106C11.8745 6.21682 13.337 6.39607 14.8821 6.39607C16.4356 6.39607 17.8981 6.21682 19.0021 5.88106C19.9354 5.60506 20.5386 5.22948 20.7179 4.81975C20.4959 4.30474 19.6879 3.95476 18.9936 3.74136C17.8896 3.41414 16.4271 3.22635 14.8735 3.22635C13.32 3.22919 11.8546 3.41699 10.762 3.7442ZM19.3436 2.56907C21.1105 3.09831 22.0011 3.94907 22.0011 5.09859V18.9156C22.0011 20.0595 21.1105 20.9074 19.3436 21.4366C18.1258 21.8037 16.5324 22 14.8707 22C14.7085 22 14.1451 22 13.9715 21.9915C13.9545 21.9915 13.9317 21.9829 13.9061 21.9829H13.8634L2.95718 21.9431H2.94011C2.43363 21.9431 2.00968 21.5248 2.00114 21.0041C1.9926 20.8419 2.03244 20.6854 2.10642 20.546L7.6008 9.72229C7.64063 9.65685 7.69185 9.59994 7.74876 9.54304V5.0929C7.74876 4.91364 7.77437 4.73439 7.82274 4.55513V4.54659C8.07597 3.67307 8.94096 3.00441 10.3978 2.56338C11.6156 2.20202 13.2005 2 14.8678 2C16.5409 2.00569 18.1343 2.21056 19.3436 2.56907Z" fill="#86888C"/>
</svg>
