<svg width="24" height="24" viewBox="0 0 24 24" fill="none" xmlns="http://www.w3.org/2000/svg">
<path fill-rule="evenodd" clip-rule="evenodd" d="M16.4821 14.9511V11.3768C16.4821 10.8076 16.1747 10.0421 14.6693 9.59818C13.1241 9.13717 10.5458 9.13717 8.98919 9.59818C8.0074 9.89414 7.40979 10.3552 7.23335 10.9812C7.19067 11.1064 7.17359 11.2373 7.17359 11.3768V14.9994H6.42516C5.46898 14.9994 3.24929 14.6949 3.24929 11.8776C3.24929 10.2954 3.94081 9.29937 5.29539 8.91235C5.56289 8.83836 5.74502 8.59932 5.74502 8.32043L5.73648 8.21229C5.73648 3.58509 9.82015 3.23221 11.0751 3.23221C11.7809 3.23221 15.3665 3.38873 16.206 6.51053C16.28 6.77519 16.5134 6.96301 16.798 6.97154C17.9875 7.00569 20.7564 7.45817 20.7564 10.9499C20.7564 14.6551 17.6147 14.9425 16.65 14.9425L16.4821 14.9511ZM9.35344 10.7849C10.0108 10.5885 10.893 10.4804 11.8321 10.4804C12.7627 10.4804 13.6448 10.5885 14.3108 10.7763C14.7262 10.9101 15.0194 11.0581 15.1588 11.2146C15.0336 11.3369 14.7775 11.4963 14.3108 11.6357C12.996 12.0313 10.6767 12.0313 9.36198 11.6357C8.88674 11.4963 8.62208 11.3312 8.50541 11.2089C8.63062 11.0723 8.88958 10.9186 9.35344 10.7849ZM15.2328 14.0632C15.1332 14.2026 14.8571 14.4246 14.3079 14.584C12.9932 14.9795 10.6739 14.9795 9.35914 14.584C8.77575 14.4104 8.51964 14.2055 8.41719 14.0803V12.5976C8.59078 12.6801 8.78429 12.7541 8.99203 12.8196C9.76323 13.0415 10.7706 13.1725 11.8293 13.1725C12.885 13.1725 13.8896 13.0501 14.6636 12.8196C14.8799 12.7541 15.0649 12.6801 15.2299 12.6061V14.0632H15.2328ZM15.2328 17.0256C15.1332 17.1651 14.8571 17.387 14.3079 17.5435C12.9932 17.9391 10.6739 17.9391 9.35914 17.5435C8.77575 17.3699 8.5111 17.1651 8.41719 17.0427V15.5515C8.59078 15.6255 8.78429 15.6995 9.00057 15.7649C9.76608 15.9954 10.7706 16.1178 11.8378 16.1178C12.885 16.1178 13.8981 15.9954 14.675 15.7649C14.8742 15.708 15.0563 15.634 15.2328 15.5515V17.0256ZM15.2328 19.8685C15.2328 20.0649 14.8828 20.2897 14.3079 20.4604C12.9789 20.856 10.6739 20.856 9.3506 20.4604C8.7786 20.2869 8.42003 20.0649 8.42003 19.8685V18.5196C8.59363 18.5936 8.78714 18.6676 9.00342 18.7331C9.76892 18.9636 10.7735 19.0859 11.8406 19.0859C12.8879 19.0859 13.901 18.9636 14.6779 18.7331C14.8771 18.6762 15.0592 18.5993 15.2356 18.5196V19.8685H15.2328ZM11.0751 2C9.99374 2 4.69778 2.28742 4.49573 7.88788C3.40581 8.31474 2 9.36198 2 11.8805C2 15.0905 4.28799 16.2373 6.42516 16.2373H7.17359V19.8685C7.17359 20.4291 7.48947 21.1947 8.99488 21.6471C9.76608 21.8776 10.7735 22 11.8321 22C12.8793 22 13.8867 21.8776 14.6665 21.6471C16.1719 21.1947 16.4792 20.4291 16.4792 19.8685V16.189L16.6443 16.1804C19.1144 16.1804 22 14.8145 22 10.9528C22 7.43825 19.638 5.98691 17.276 5.76494C16.0068 2.18213 11.9089 2 11.0751 2Z" fill="#86888C"/>
</svg>
