<svg width="20" height="20" viewBox="0 0 20 20" fill="none" xmlns="http://www.w3.org/2000/svg">
<path fill-rule="evenodd" clip-rule="evenodd" d="M16.0393 17.0774C15.4201 17.0774 15.1037 16.786 15.0969 16.2124V16.0871C15.106 15.6865 15.2767 15.2152 16.012 15.1993C16.0234 15.1993 16.0325 15.2061 16.0439 15.2061C16.0553 15.2061 16.0667 15.1993 16.078 15.1993C16.8156 15.213 16.9818 15.6819 16.9887 16.0871V16.1964C16.9818 16.7815 16.6631 17.0774 16.0393 17.0774ZM4.91168 16.0803V16.1987C4.90257 16.7838 4.58386 17.0797 3.96009 17.0797C3.3386 17.0797 3.02216 16.7883 3.01761 16.2124V16.2101L3.01988 16.0917C3.02899 15.6842 3.20201 15.1993 3.9692 15.1993C4.73411 15.197 4.90257 15.6774 4.91168 16.0803ZM7.58887 9.78344V8.8956C7.69815 8.93885 7.80514 8.98438 7.92808 9.02308C8.4881 9.19155 9.21659 9.28261 9.9815 9.28261C10.7464 9.28261 11.4749 9.18927 12.0327 9.02308C12.151 8.98893 12.2558 8.9434 12.3628 8.89787V9.78117C12.3628 9.87223 12.167 10.027 11.739 10.1545C10.7988 10.4345 9.15512 10.4345 8.2172 10.1545C7.78466 10.0316 7.58887 9.8745 7.58887 9.78344ZM8.21492 3.2999C8.68388 3.15875 9.30765 3.08363 9.97467 3.08363C10.6417 3.08363 11.27 3.16103 11.7367 3.2999C12.0122 3.38185 12.1806 3.47519 12.2762 3.55487C12.1966 3.62089 12.0418 3.71195 11.7413 3.80073C10.8079 4.08074 9.15512 4.08074 8.22175 3.80073C7.92808 3.71422 7.76872 3.62089 7.68221 3.54804C7.76872 3.47746 7.9258 3.3864 8.21492 3.2999ZM7.58887 6.76249C7.69815 6.80575 7.80514 6.85128 7.92808 6.8877C8.4881 7.05616 9.21659 7.14723 9.9815 7.14723C10.7464 7.14723 11.4749 7.05389 12.0327 6.8877C12.151 6.85355 12.2558 6.80802 12.3628 6.76249V7.72091C12.2785 7.81652 12.0827 7.95767 11.7413 8.06011C10.8079 8.34013 9.15512 8.34013 8.22175 8.06011C7.83702 7.94401 7.65945 7.8097 7.58887 7.73229V6.76249ZM7.92808 4.7637C8.4881 4.93217 9.21659 5.02323 9.9815 5.02323C10.7464 5.02323 11.4749 4.92989 12.0327 4.7637C12.1556 4.72728 12.258 4.68402 12.3628 4.64077V5.58553C12.2808 5.68114 12.0805 5.82229 11.7413 5.92473C10.8079 6.20474 9.1574 6.20474 8.22175 5.92473C7.83474 5.8109 7.65945 5.67431 7.59115 5.59919V4.63622C7.69815 4.68175 7.80287 4.72728 7.92808 4.7637ZM18.0017 16.0621C17.9903 15.3109 17.5919 14.4503 16.5516 14.2409V12.6883C16.5516 12.4106 16.3239 12.1852 16.0462 12.1852H10.4641C10.4664 12.1647 10.4778 12.1465 10.4778 12.1237V11.3679C11.0537 11.336 11.5933 11.2541 12.0304 11.1243C13.1413 10.7919 13.3758 10.2114 13.3758 9.78572V3.67552C13.3758 3.24981 13.1413 2.6693 12.0304 2.33692C10.9081 2.00228 9.04585 2.00228 7.92352 2.33692C7.19276 2.55547 6.75566 2.90378 6.61907 3.37274C6.59175 3.46836 6.57582 3.5708 6.57582 3.67552V9.78572C6.57582 10.2114 6.8103 10.7919 7.92352 11.1243C8.35606 11.2541 8.89105 11.336 9.46246 11.3679V12.1237C9.46246 12.1442 9.47156 12.1624 9.47384 12.1852H3.95326C3.81894 12.1852 3.68918 12.2375 3.59357 12.3332C3.49795 12.4288 3.44559 12.5563 3.44559 12.6906L3.45242 14.2432C2.42116 14.4572 2.02049 15.3154 2.00228 16.0621C2 16.1122 2 16.1691 2 16.2215C2.00911 17.082 2.52588 18.0859 3.95554 18.0859C5.38747 18.0859 5.9088 17.0774 5.92018 16.2124V16.0621C5.90424 15.3109 5.50585 14.448 4.46548 14.2409L4.46093 13.1914H15.5362V14.2432C14.5027 14.4572 14.0997 15.3177 14.0815 16.0712V16.2215C14.0884 17.082 14.6051 18.0859 16.0371 18.0859C17.4667 18.0859 17.9903 17.0774 18.0017 16.2124C18.004 16.1577 18.004 16.1008 18.0017 16.0621Z" fill="#86888C"/>
</svg>
