<svg width="40" height="40" viewBox="0 0 40 40" fill="none" xmlns="http://www.w3.org/2000/svg">
<path fill-rule="evenodd" clip-rule="evenodd" d="M11.6734 28.87C13.3539 28.8393 13.3539 27.7275 13.3539 27.1895C13.3539 26.6515 13.3539 25.5294 11.6529 25.4885L11.4172 25.4833H11.3557C9.72128 25.4987 9.72128 26.5798 9.72128 27.1639C9.72128 27.748 9.72128 28.8444 11.3864 28.87H11.6734ZM11.699 23.4288C12.4624 23.4441 15.4239 23.7362 15.4239 27.1895C15.4239 30.6531 12.4522 30.9195 11.7092 30.9349H11.3557C10.5769 30.9246 7.64109 30.6531 7.64109 27.169C7.64109 23.6901 10.5462 23.4339 11.325 23.4288H11.4069C11.5145 23.4236 11.6119 23.4288 11.699 23.4288ZM32.5828 34.8954C34.0482 34.4394 35.7902 33.6452 35.78 32.4361L35.7338 27.3073C35.0114 27.7633 34.1558 28.163 33.1772 28.4601C30.9894 29.1365 28.1202 29.5259 25.1023 29.5515H24.7591C23.6524 29.5515 22.5815 29.4849 21.5414 29.3926V32.1543C21.5414 33.676 20.9164 34.5777 20.3938 35.0594C20.2093 35.2284 20.0146 35.3668 19.8148 35.4897C21.4134 35.7562 23.2169 35.9048 25.1382 35.8843C27.9408 35.8638 30.5795 35.5102 32.5828 34.8954ZM4.62841 33.4198C4.94095 33.7477 5.45844 33.9065 6.17062 33.9065L17.3503 33.9014C17.6782 33.9168 18.4417 33.8656 18.8823 33.4454C19.1743 33.1687 19.3178 32.7486 19.3178 32.1645C19.3127 28.9623 19.3178 22.445 19.3178 22.445C19.3229 22.3579 19.3588 21.6611 18.9233 21.2051C18.6107 20.8772 18.083 20.7081 17.3503 20.7081L6.19624 20.7184H6.16037C6.10913 20.7184 6.0579 20.7133 5.98617 20.7133C5.67875 20.7133 5.04342 20.7901 4.65403 21.1488C4.36198 21.4203 4.21852 21.8456 4.21852 22.4399V32.185C4.21852 32.2567 4.1929 32.9638 4.62841 33.4198ZM11.4838 12.9817C9.92622 12.9971 7.30806 13.5863 7.30806 17.3983V18.5101L16.1975 18.4999C16.2078 18.4794 16.2231 18.4589 16.2283 18.4384V17.429C16.2283 13.5095 13.2514 13.0125 11.9757 12.9817H11.4838ZM17.4067 5.30144C15.7313 5.82405 14.6604 6.50036 14.3274 7.22279C14.6297 7.96571 15.7261 8.65228 17.463 9.14927C19.4561 9.72824 22.1102 10.0613 24.9128 9.99979C27.7256 9.97417 30.3643 9.62064 32.3471 9.00581C34.0328 8.4832 35.1139 7.79664 35.4315 7.06908C35.0319 6.14171 33.5614 5.52175 32.2959 5.15798C30.2977 4.58413 27.6437 4.28696 24.841 4.30746C22.0333 4.3382 19.3895 4.68661 17.4067 5.30144ZM21.5414 22.5373C21.5466 22.5373 21.5466 24.725 21.5466 27.1792C22.684 27.292 23.8624 27.3586 25.087 27.3483C27.8896 27.3227 30.5334 26.9692 32.5213 26.3543C34.3453 25.7907 35.3496 24.9607 35.7082 24.3664L35.657 18.6177C34.9346 19.0737 34.0789 19.4682 33.1003 19.7705C30.9125 20.4468 28.0484 20.8362 25.0255 20.867H24.672C23.473 20.867 22.3202 20.7952 21.2084 20.6876C21.5978 21.5791 21.5517 22.4143 21.5414 22.5373ZM14.2403 11.1628C16.4844 11.9109 18.457 13.8118 18.457 17.4341V18.0182C20.3271 18.4486 22.6072 18.6792 24.9999 18.6587C27.8076 18.6331 30.4514 18.2795 32.4342 17.6647C34.2582 17.1011 35.2625 16.2762 35.6211 15.6767L35.5699 10.01C34.8782 10.4353 34.0379 10.8093 33.0132 11.1219C30.8254 11.7982 27.9613 12.1876 24.9384 12.2183H24.5849C21.6951 12.2183 18.9591 11.8853 16.8482 11.2756C15.8081 10.9784 14.9422 10.6095 14.2352 10.1791L14.2403 11.1628ZM37.7679 7.54046L38.0036 32.4156C38.0241 34.4753 36.4204 36.0226 33.2438 37.0063C31.0406 37.6826 28.1714 38.072 25.1638 38.0977H24.8308C21.9411 38.0977 19.2 37.7646 17.0737 37.1549C16.0746 36.868 15.2497 36.5093 14.5631 36.1097L6.18086 36.1148C4.81798 36.1148 3.74715 35.7101 2.9991 34.9108C1.91802 33.758 1.99488 32.2619 2.00512 32.0979L2 22.4348C2 20.8977 2.6302 19.9959 3.16306 19.5092C3.77789 18.9507 4.4952 18.6997 5.08954 18.587V17.3932C5.08954 12.5462 8.52748 10.7939 11.4684 10.7683L12.0115 10.7735L11.9808 7.78126C11.9808 7.44823 12.0218 7.12544 12.1089 6.81803V6.8129C12.5546 5.22971 14.1122 4.01029 16.7457 3.19564C18.9335 2.51932 21.8027 2.12992 24.8257 2.10431C27.8742 2.04282 30.7229 2.41172 32.921 3.04193C36.1181 3.96418 37.7474 5.48076 37.7679 7.54046Z" fill="#86888C"/>
</svg>
