<svg width="40" height="40" viewBox="0 0 40 40" fill="none" xmlns="http://www.w3.org/2000/svg">
<path fill-rule="evenodd" clip-rule="evenodd" d="M29.1127 12.4468L31.2231 5.92602L34.9624 12.4468H29.1127ZM28.4007 14.6494H34.7217L23.2373 30.5902L28.4007 14.6494ZM11.5891 14.6494L16.7524 30.5902L5.27319 14.6494H11.5891ZM12.7979 11.1508L10.58 4.29711H17.8793L12.7979 11.1508ZM22.1104 4.29711H29.4098L27.1918 11.1508L22.1104 4.29711ZM14.601 12.4468L19.9949 5.17303L25.3887 12.4468H14.601ZM26.0598 14.6494L19.9949 33.3819L13.93 14.6494H26.0598ZM8.76665 5.92602L10.8771 12.4468H5.0222L8.76665 5.92602ZM37.9898 13.5686C37.9898 13.5635 37.9949 13.5532 37.9949 13.5481C37.9949 13.5276 37.9846 13.5122 37.9846 13.4918C37.9795 13.3893 37.9539 13.2817 37.9232 13.1844C37.9129 13.1486 37.8975 13.1127 37.8822 13.082C37.8719 13.0564 37.8668 13.0307 37.8514 13.0103L31.9095 2.65795C31.8993 2.63746 31.8736 2.62721 31.8583 2.60672C31.7814 2.48379 31.679 2.38646 31.5561 2.3045C31.5048 2.27377 31.4587 2.24816 31.4126 2.22255C31.3665 2.19693 31.3307 2.1662 31.2795 2.15083C31.1975 2.12522 31.1207 2.13034 31.0438 2.12522C31.008 2.1201 30.9772 2.09961 30.9414 2.09961H9.0535C9.01764 2.09961 8.98691 2.12522 8.95617 2.12522C8.87422 2.13034 8.79738 2.12522 8.71542 2.15083C8.6642 2.1662 8.62834 2.20206 8.58224 2.22255C8.53102 2.24816 8.48492 2.26865 8.43882 2.3045C8.31588 2.38646 8.21343 2.48891 8.1366 2.60672C8.12123 2.62209 8.09562 2.63234 8.08537 2.65795L2.14343 13.0103C2.12806 13.0359 2.12806 13.0615 2.11269 13.082C2.09732 13.1178 2.08708 13.1486 2.07171 13.1844C2.03586 13.2817 2.01537 13.3893 2.01024 13.4918C2.01024 13.5122 2 13.5327 2 13.5532C2 13.5583 2.00512 13.5686 2.00512 13.5737C2.01024 13.7069 2.03586 13.8298 2.08196 13.9528C2.09732 13.9835 2.11269 14.0091 2.12294 14.0347C2.14855 14.0859 2.16904 14.1423 2.20489 14.1935L19.0882 37.6386L19.0933 37.6437C19.1855 37.7667 19.3085 37.864 19.4417 37.9408C19.4775 37.9562 19.5083 37.9767 19.5441 37.992C19.6824 38.0535 19.8361 38.0996 19.9949 38.0996C20.1588 38.0996 20.3073 38.0535 20.4508 37.992C20.4866 37.9767 20.5174 37.9613 20.5481 37.9408C20.6813 37.864 20.8042 37.7667 20.8964 37.6437L20.9015 37.6386L37.7849 14.1935C37.8207 14.1423 37.8412 14.0859 37.8668 14.0347C37.8822 14.0091 37.8975 13.9835 37.9078 13.9528C37.959 13.8247 37.9898 13.7018 37.9898 13.5686Z" fill="#86888C"/>
</svg>
