<svg width="28" height="28" viewBox="0 0 28 28" fill="none" xmlns="http://www.w3.org/2000/svg">
<path fill-rule="evenodd" clip-rule="evenodd" d="M24.0708 16.768L17.4161 16.7714C17.2215 16.7714 17.0337 16.8499 16.8971 16.9865C16.7606 17.1231 16.682 17.3109 16.682 17.5055L16.6854 24.1636C16.6854 24.4197 16.5216 24.6041 16.4703 24.6246H11.557C11.4887 24.6041 11.3282 24.4197 11.3282 24.1636L11.3248 17.5089C11.3248 17.3143 11.2463 17.1265 11.1097 16.9899C10.9731 16.8533 10.7853 16.7748 10.5907 16.7748L3.93257 16.7782C3.6799 16.7782 3.4921 16.6143 3.47503 16.5665V11.6498C3.49552 11.5849 3.68331 11.421 3.93598 11.421L10.5873 11.4176C10.9936 11.4176 11.3214 11.0898 11.3214 10.6835L11.318 4.02535C11.318 3.79658 11.4887 3.5883 11.5331 3.5644L16.4294 3.56098C16.5045 3.58488 16.6752 3.79316 16.6752 4.02193L16.6786 10.6732C16.6786 10.8679 16.7571 11.0556 16.8937 11.1922C17.0303 11.3288 17.2181 11.4073 17.4127 11.4073L24.0743 11.4039C24.303 11.4039 24.5113 11.5746 24.5352 11.619L24.5386 16.5153C24.5079 16.5938 24.2996 16.768 24.0708 16.768ZM24.0708 9.94255L18.1468 9.94596L18.1434 4.02876C18.1434 3.0215 17.341 2.09961 16.4601 2.09961H11.5297C10.6487 2.09961 9.84635 3.01809 9.84635 4.02876L9.84977 9.95279L3.93257 9.9562C2.88775 9.9562 2.00341 10.7279 2.00341 11.6395L2 16.5699C2 17.4816 2.88092 18.2533 3.92915 18.2533L9.85318 18.2498L9.85659 24.1705C9.85659 25.2153 10.6283 26.0996 11.5399 26.0996H16.4703C17.382 26.0996 18.1537 25.2153 18.1537 24.1705L18.1502 18.2464L24.0708 18.243C25.0781 18.243 26 17.4406 26 16.5597V11.6293C26 10.7449 25.0815 9.94255 24.0708 9.94255Z" fill="#86888C"/>
</svg>
