<svg width="20" height="20" viewBox="0 0 20 20" fill="none" xmlns="http://www.w3.org/2000/svg">
<path fill-rule="evenodd" clip-rule="evenodd" d="M16.9091 6.79294C16.8386 6.86577 16.6997 6.87943 16.595 6.87943V6.88853H10.9851V6.87943C10.8827 6.87943 10.7461 6.86577 10.6755 6.79522C10.6027 6.72239 10.5891 6.57674 10.5891 6.46522C10.5891 6.35598 10.605 6.20805 10.6778 6.1375C10.7484 6.06695 10.8849 6.05329 10.9873 6.05329H16.5973C16.702 6.05329 16.8386 6.06695 16.9091 6.13978C16.9819 6.21033 16.9979 6.35826 16.9979 6.4675C16.9956 6.57674 16.9819 6.72239 16.9091 6.79294ZM16.1763 11.158C16.0033 14.8768 16.0033 14.8836 16.0033 14.9041C15.9874 16.7134 15.5641 16.9046 15.0566 16.9592C15.0429 16.9615 15.0315 16.9637 15.0179 16.9637H14.9974C14.8973 16.9706 14.8199 16.9728 14.656 16.9615L12.824 16.9637C12.7739 16.9683 12.7238 16.9706 12.6692 16.9706H12.6396C12.758 16.7134 12.8422 16.4244 12.9264 16.1194L12.9491 16.0443C13.2222 15.9555 13.4566 15.819 13.6524 15.6255C14.0279 15.2523 14.2168 14.7266 14.2168 14.0597C14.2168 13.5431 14.0984 13.113 13.8731 12.7693C14.3033 12.7466 14.7129 12.544 15.0884 12.1526C15.4981 11.7293 15.7006 11.265 15.6915 10.7802C15.6824 10.3137 15.4799 9.8699 15.0862 9.46252C14.6924 9.05742 14.2646 8.84804 13.8162 8.84121C13.3383 8.84349 12.9036 9.04376 12.4962 9.46935C12.3824 9.58769 12.2869 9.70831 12.2072 9.83348C11.9523 9.57404 11.6519 9.38059 11.3037 9.24859C11.2832 8.71832 11.265 8.25632 11.2559 7.9286H16.3288C16.2946 8.62045 16.2355 9.89038 16.1763 11.158ZM12.8945 10.8189C12.8922 10.6255 12.9946 10.4161 13.204 10.1999C13.4111 9.98369 13.6091 9.87672 13.7957 9.87672H13.8048C13.9846 9.879 14.1804 9.98597 14.3806 10.1953C14.5855 10.407 14.6879 10.6095 14.6924 10.7984C14.697 10.9919 14.59 11.2013 14.3806 11.4198C14.1735 11.636 13.9846 11.727 13.7844 11.7384C13.6023 11.7361 13.4088 11.6269 13.204 11.4175C13.0015 11.2081 12.8968 11.0055 12.8945 10.8189ZM11.5131 15.1089H3.91627C3.62951 15.0884 3.39965 15.0202 3.25627 14.8768C3.08786 14.7084 3.00365 14.433 3.00365 14.0597C3.00365 13.7502 3.0651 13.5135 3.18117 13.3428C3.28813 13.5613 3.43379 13.7753 3.62951 13.9778C4.05282 14.417 4.51027 14.6378 4.98819 14.6378H5.01778C5.48888 14.6287 5.93722 14.4079 6.35143 13.9778C6.64957 13.6683 6.83846 13.3406 6.92722 12.9992H12.2345C12.5554 13.006 12.8035 13.0857 12.9582 13.2382C13.1289 13.4088 13.2154 13.6865 13.2154 14.0597C13.2154 14.433 13.1289 14.7084 12.9582 14.8768C12.8148 15.0202 12.585 15.0884 12.2982 15.1089H11.5131ZM11.752 16.5131C11.62 16.809 11.4539 16.8977 11.0397 16.9455L10.8508 16.9478L10.2682 16.9569L9.6628 16.9546L6.53122 16.9569C6.42198 16.9637 5.73923 16.9706 5.63226 16.9706C4.81295 16.9706 4.59447 16.8158 4.36233 16.1467H11.8818C11.834 16.2946 11.7953 16.4152 11.752 16.5131ZM5.83709 12.9992C5.78474 13.0811 5.72329 13.1608 5.64364 13.245C5.42061 13.4771 5.20212 13.5977 5.00185 13.6023C4.75833 13.6091 4.56716 13.4862 4.3373 13.245C4.25537 13.1631 4.1962 13.0811 4.14158 12.9992H5.83709ZM5.95316 10.0816C6.01233 10.0747 6.30364 10.0793 6.56081 10.0838L9.69238 10.0816C9.78341 10.0861 9.879 10.0838 9.97914 10.0838C10.1043 10.0838 10.2181 10.0793 10.3319 10.0907C10.7461 10.1293 11.0784 10.2454 11.3446 10.4502C11.7338 10.7484 11.9864 11.2331 12.1389 11.9637H4.08468C4.38282 10.5595 5.0064 10.1862 5.83936 10.0952L5.95316 10.0816ZM13.5636 3.27903C13.5636 3.14703 13.666 3.04006 13.7935 3.04006C13.9209 3.04006 14.0233 3.14703 14.0233 3.27903V5.02233H13.5636V3.27903ZM15.027 17.9924H15.1157C15.1658 17.9924 15.2022 17.9924 15.2546 17.9833C16.7703 17.7648 16.9888 16.3106 17.0024 14.9246C17.0047 14.8426 17.0889 13.0288 17.1731 11.2058C17.2732 9.0688 17.3165 8.14253 17.3347 7.73515C17.4303 7.68053 17.5213 7.61908 17.601 7.5417C17.7808 7.36191 17.9947 7.02963 17.9947 6.46522C17.9947 5.90309 17.7808 5.56854 17.601 5.39102C17.4212 5.20895 17.1913 5.05192 16.9182 5.01778C16.8932 5.01323 16.8431 5.01323 16.8158 5.01323H15.0202V3.27675C15.0202 2.57351 14.4694 2 13.7912 2C13.1153 2 12.5622 2.57124 12.5622 3.27675V5.01323H10.9851C10.5663 5.01323 10.2272 5.1384 9.97914 5.39102C9.80162 5.56854 9.58769 5.90309 9.58769 6.46522C9.58769 7.02963 9.80162 7.35963 9.98141 7.5417C10.0611 7.61908 10.1498 7.68053 10.2454 7.73515C10.2545 7.96728 10.2682 8.36556 10.2932 9.05287C10.1885 9.04604 10.0907 9.04149 9.97914 9.04149C9.85624 9.04149 9.74473 9.04604 9.65597 9.04376L6.59267 9.04604C6.36053 9.04604 6.08288 9.04149 5.91674 9.04376C5.8826 9.04376 5.80978 9.04832 5.77791 9.05059C5.73467 9.05514 5.66185 9.06425 5.6095 9.07562C3.72737 9.34645 3.22213 10.9031 3.02869 12.1708C2.85572 12.2573 2.69413 12.3574 2.55986 12.494C2.1889 12.8672 2 13.3952 2 14.062C2 14.7288 2.19117 15.2568 2.55986 15.6278C2.75558 15.8235 2.9991 15.9624 3.27675 16.0511C3.60675 17.1617 3.95496 17.997 5.62771 17.997C5.74605 17.997 6.48798 18.0038 6.56308 17.997L9.62638 17.9947H15.027V17.9924Z" fill="#86888C"/>
</svg>
