<svg width="40" height="40" viewBox="0 0 40 40" fill="none" xmlns="http://www.w3.org/2000/svg">
<path d="M29.7072 39.0771C29.0762 39.0771 28.4451 38.9181 27.8654 38.6L21.0368 34.86C21.0163 34.8497 20.9907 34.8497 20.9701 34.86L14.1416 38.6C12.8487 39.308 11.2891 39.2208 10.0834 38.364C8.80596 37.4611 8.17492 35.922 8.43657 34.3521L9.73969 26.4307C9.74995 26.3692 9.72943 26.3127 9.69352 26.2717L4.17321 20.6642C3.08556 19.5611 2.72131 17.9553 3.21895 16.4675C3.69608 15.031 4.90172 14.0049 6.35876 13.7843L13.9877 12.6299C14.0236 12.6248 14.0544 12.5992 14.0697 12.5684C14.0697 12.5633 14.0697 12.5633 14.0749 12.5581L17.4866 5.34991C18.1433 3.94419 19.4977 3.07715 21.006 3.07715C22.5144 3.07715 23.8688 3.94419 24.5306 5.34478L27.9423 12.553C27.9423 12.5581 27.9423 12.5581 27.9475 12.5633C27.9629 12.594 27.9936 12.6197 28.0296 12.6248L35.6585 13.7792C37.1155 13.9998 38.3211 15.031 38.7983 16.4675C39.2908 17.9553 38.9265 19.5611 37.8389 20.6642L32.3186 26.2717C32.2775 26.3127 32.2621 26.3692 32.2724 26.4307L33.5755 34.3572C33.832 35.9271 33.201 37.4662 31.9287 38.3692C31.2617 38.8412 30.487 39.0771 29.7072 39.0771ZM21.006 32.8591C21.3498 32.8591 21.6884 32.9463 22.0013 33.1156L28.8248 36.8557C29.7328 37.3533 30.4921 36.9429 30.7743 36.7428C31.2822 36.3837 31.7645 35.6552 31.6054 34.6804L30.3023 26.7591C30.1895 26.0819 30.4049 25.379 30.8872 24.8865L30.8923 24.8813L36.4178 19.2687C37.0847 18.5915 37.1052 17.7039 36.9051 17.0985C36.6589 16.3649 36.0843 15.8621 35.3609 15.7544L27.7269 14.5949H27.7166C27.024 14.482 26.434 14.0408 26.1416 13.4046L22.7299 6.20156C22.3964 5.49357 21.75 5.07287 21.006 5.07287C20.2621 5.07287 19.6208 5.49357 19.2874 6.20156L15.8756 13.4046C15.5781 14.0408 14.9932 14.482 14.3006 14.5949H14.2904L6.65632 15.7492C5.93293 15.857 5.3532 16.3597 5.11207 17.0934C4.91199 17.6988 4.93251 18.5863 5.59946 19.2636L11.1198 24.8762L11.1249 24.8813C11.6072 25.3739 11.8226 26.0767 11.7098 26.7591L10.4066 34.6804C10.2476 35.65 10.7299 36.3837 11.2378 36.7428C11.5199 36.9429 12.2741 37.3533 13.1873 36.8557L20.0159 33.1156C20.3237 32.9463 20.6623 32.8591 21.006 32.8591Z" fill="#86888C"/>
</svg>
