<svg width="28" height="28" viewBox="0 0 28 28" fill="none" xmlns="http://www.w3.org/2000/svg">
<path fill-rule="evenodd" clip-rule="evenodd" d="M23.0142 24.5179C23.1303 24.5179 23.2464 24.4018 23.2464 24.313V10.3734H20.4701C19.2544 10.3734 18.2026 9.9704 17.4308 9.21229C16.6488 8.44394 16.239 7.39898 16.239 6.18668V3.48207H8.39497C8.30618 3.48207 8.16958 3.61525 8.16275 3.68697V24.313C8.16275 24.3847 8.28228 24.5179 8.39497 24.5179H23.0142ZM22.6317 8.89129L17.6938 4.03187V6.18327C17.6938 6.98577 17.9533 7.66192 18.4416 8.14343C18.9368 8.63176 19.6369 8.88788 20.4701 8.88788H22.6317V8.89129ZM24.6431 9.02106C24.6807 9.10985 24.7012 9.20888 24.7012 9.31133V24.313C24.7012 25.2282 23.926 26 23.0108 26H8.39155C7.49343 26 6.70117 25.2112 6.70117 24.313V3.68697C6.70117 2.8025 7.50709 2 8.39155 2H17.2908C17.5708 2 17.8304 2.10586 18.0284 2.30393L24.3836 8.55322C24.5168 8.67957 24.5919 8.8469 24.6431 9.02106ZM20.8321 21.967V12.7228L10.5737 12.7057V21.9533L20.8321 21.967ZM20.8492 11.4217C21.5116 11.4217 22.0956 11.9545 22.0956 12.5623V22.1104C22.0956 22.7183 21.5116 23.251 20.8492 23.251H10.56C9.88387 23.251 9.31358 22.7285 9.31358 22.1104V12.5623C9.31358 11.9442 9.88728 11.4217 10.56 11.4217H20.8492ZM12.79 16.7968C12.2128 16.7968 11.7416 16.3187 11.7416 15.7314C11.7416 15.144 12.2094 14.6659 12.79 14.6659C13.3671 14.6659 13.8349 15.144 13.8349 15.7314C13.8349 16.3187 13.3671 16.7968 12.79 16.7968ZM11.8679 21.0142C11.6869 21.0142 11.506 20.9357 11.383 20.782C11.161 20.5088 11.1986 20.1059 11.465 19.8771L14.4428 17.3534C14.6887 17.1485 15.0472 17.1588 15.2794 17.3808L15.6073 17.6949L17.5094 16.1548C17.7348 15.9704 18.0558 15.967 18.2846 16.148L20.1149 17.5754C20.3916 17.7906 20.4462 18.1935 20.2345 18.4769C20.0227 18.7604 19.6232 18.8116 19.35 18.5965L17.9089 17.4764L16.5361 18.5862L17.4103 19.4229C17.6665 19.6653 17.6767 20.0717 17.4377 20.3312C17.1986 20.5874 16.7991 20.601 16.5464 20.3586L14.8252 18.7092L12.2777 20.8674C12.1548 20.9664 12.0114 21.0142 11.8679 21.0142Z" fill="#86888C"/>
</svg>
