<svg width="40" height="40" viewBox="0 0 40 40" fill="none" xmlns="http://www.w3.org/2000/svg">
<path fill-rule="evenodd" clip-rule="evenodd" d="M31.519 35.4696V14.56H27.3546C25.5259 14.56 23.9533 13.9556 22.7957 12.8184C21.6278 11.6659 21.0079 10.0985 21.0079 8.28002V4.22311H9.24187C9.10868 4.22311 8.90379 4.42288 8.89355 4.53045V35.4696C8.89355 35.5771 9.07283 35.7769 9.24187 35.7769H31.1707C31.3449 35.7769 31.519 35.6027 31.519 35.4696ZM23.1901 5.05293V8.28002C23.1901 9.48378 23.5794 10.498 24.3119 11.2203C25.0546 11.9476 26.1047 12.3369 27.3546 12.3369H30.597L23.1901 5.05293ZM33.6141 12.5316C33.6704 12.6648 33.7012 12.8133 33.7012 12.967V35.4696C33.7012 36.8423 32.5384 38 31.1656 38H9.23674C7.88444 38 6.70117 36.8167 6.70117 35.4696V4.53045C6.70117 3.20376 7.91005 2 9.23674 2H22.5856C23.0005 2 23.395 2.15879 23.6921 2.45589L33.2248 11.8298C33.4246 12.0245 33.5424 12.2755 33.6141 12.5316ZM25.3671 20.8708V19.7541L18.5236 17.8691V18.9858L25.3671 20.8708ZM23.9533 32.0068C24.8907 31.9863 25.3671 31.4741 25.3671 30.4804C25.3671 29.4866 24.8856 28.9641 23.9431 28.9437H23.7382C22.3551 28.959 22.3551 30.0962 22.3551 30.4701C22.3551 31.4792 22.8264 31.9966 23.7638 32.012H23.9533V32.0068ZM15.235 28.3341C16.1519 28.3136 16.6283 27.8014 16.6283 26.8076C16.6283 25.8088 16.1468 25.2914 15.1992 25.2658H14.9994C13.6164 25.276 13.6164 26.4183 13.6164 26.7871C13.6164 27.7962 14.0876 28.3136 15.025 28.329H15.235V28.3341ZM26.1098 17.9613C26.7604 18.0433 27.2624 18.6118 27.2624 19.2931V30.4752C27.2624 32.9801 25.5003 33.9021 23.9892 33.9277H23.7279C22.2219 33.9072 20.4547 32.9852 20.4547 30.4599C20.4547 27.9345 22.2168 27.0176 23.7177 27.0074L23.9789 27.0125C24.4399 27.0228 24.9163 27.1303 25.362 27.3199V22.8634L18.5185 20.9732L18.4929 27.0637C18.3699 29.3534 16.7 30.2242 15.2453 30.255H14.984C13.4781 30.2345 11.7108 29.3125 11.7108 26.7871C11.7108 24.2618 13.4678 23.35 14.9738 23.3347H15.235C15.696 23.3449 16.1724 23.4525 16.6181 23.642V17.0751C16.6181 16.3375 17.2071 15.7331 17.9345 15.7331L18.1804 15.7689L26.1098 17.9613Z" fill="#86888C"/>
</svg>
