<svg width="40" height="40" viewBox="0 0 40 40" fill="none" xmlns="http://www.w3.org/2000/svg">
<path fill-rule="evenodd" clip-rule="evenodd" d="M35.4187 35.8788C35.598 35.8788 35.7721 35.7046 35.7721 35.5715V14.6649H31.5416C29.6876 14.6649 28.0896 14.0606 26.9117 12.9236C25.7234 11.7712 25.0935 10.204 25.0935 8.38581V4.32948H13.1447C13.0115 4.32948 12.8015 4.52922 12.7913 4.63677V14.1477H24.4277C26.8707 14.1477 28.8528 16.14 28.8528 18.583V26.0657C28.8528 28.5087 26.8707 30.5011 24.4277 30.5011H12.8528L12.7913 35.5817C12.7913 35.6739 12.9757 35.8736 13.1447 35.8736H35.4187V35.8788ZM4.21767 26.0708C4.21767 27.2898 5.20615 28.2834 6.4251 28.2834H24.4277C25.6466 28.2834 26.6351 27.2898 26.6351 26.0708V18.5881C26.6351 17.3692 25.6466 16.3756 24.4277 16.3756H6.4251C5.20615 16.3756 4.21767 17.3692 4.21767 18.5881V26.0708ZM34.8451 12.4422L27.3214 5.15406V8.38069C27.3214 9.58428 27.7157 10.5984 28.4584 11.3205C29.2164 12.0529 30.2817 12.437 31.5467 12.437H34.8451V12.4422ZM37.9078 12.6368C37.9641 12.7699 37.9949 12.9185 37.9949 13.0721V35.5715C37.9949 36.9441 36.8169 38.1016 35.4187 38.1016H13.1447C11.7721 38.1016 10.5685 36.9185 10.5685 35.5715L10.63 30.5011H6.4251C3.9872 30.5011 2 28.5087 2 26.0657V18.583C2 16.14 3.9872 14.1477 6.4251 14.1477H10.5685V4.63165C10.5685 3.30515 11.7977 2.10156 13.1447 2.10156H26.7017C27.1216 2.10156 27.516 2.26033 27.8182 2.54715L37.5083 11.93C37.7081 12.1246 37.8259 12.3756 37.9078 12.6368Z" fill="#86888C"/>
<path d="M5.82583 25.4002L5.72852 24.3656C5.99996 24.4168 6.30214 24.4373 6.43018 24.4373C7.0038 24.4373 7.18306 24.2837 7.18306 23.623V19.4232H8.53517V23.6537C8.53517 24.3912 8.41225 24.7907 8.11008 25.0929C7.83863 25.3541 7.40841 25.477 6.73748 25.477C6.44555 25.477 6.25092 25.4565 5.82583 25.4002ZM9.7951 19.4232H11.8335C12.7605 19.4232 13.3495 19.5513 13.7336 19.9098C14.0563 20.2068 14.21 20.6627 14.21 21.2977C14.21 21.9328 14.0614 22.4091 13.7695 22.7369C13.4212 23.1262 12.8834 23.3105 12.105 23.3105H11.1523V25.3592H9.80022V19.4232H9.7951ZM11.813 22.2913C12.2484 22.2913 12.4276 22.2299 12.6018 22.066C12.7554 21.9123 12.8374 21.6563 12.8374 21.3131C12.8374 20.9904 12.7656 20.76 12.612 20.6114C12.4481 20.4629 12.1971 20.4015 11.7772 20.4015H11.1421V22.2913H11.813ZM15.1626 19.4232H19.1677L19.0653 20.4015H16.5147V21.8406H18.5531V22.8547H16.5147V24.3707H19.2138V25.349H15.1626V19.4232ZM19.9718 22.4245C19.9718 20.5705 20.95 19.3105 22.9731 19.3105C23.5621 19.3105 24.2637 19.4335 24.6479 19.5974L24.4737 20.5858C24.0486 20.4629 23.5365 20.3707 23.0704 20.3707C21.8719 20.3707 21.3802 21.0826 21.3802 22.3733C21.3802 23.0391 21.4673 23.5871 21.7285 23.9508C21.9436 24.2529 22.3021 24.4271 22.8758 24.4271C23.0909 24.4271 23.3879 24.4015 23.5979 24.3656V23.1159H22.7631V22.1428H24.9398V25.1697C24.3764 25.3438 23.475 25.4719 22.8245 25.4719C20.6939 25.477 19.9718 24.3041 19.9718 22.4245Z" fill="#86888C"/>
</svg>
