<svg width="24" height="24" viewBox="0 0 24 24" fill="none" xmlns="http://www.w3.org/2000/svg">
<path fill-rule="evenodd" clip-rule="evenodd" d="M11.8757 11.6892C11.8349 11.5698 11.7767 11.4504 11.6835 11.366L8.34989 8.06148C8.20723 7.91591 8.00051 7.83148 7.79962 7.83148H5.70046V7.08906C5.70046 6.466 5.83439 6.00599 6.09933 5.73232C6.37301 5.44117 6.84175 5.2956 7.47354 5.2956L19.3756 5.28686C20.0161 5.28686 20.4761 5.43244 20.7498 5.72358C21.0176 5.99726 21.1487 6.45727 21.1487 7.08032V12.8101C21.1487 13.4419 21.0147 13.9048 20.7498 14.1843C20.4674 14.4842 20.0074 14.6297 19.3756 14.6297L11.9252 14.6385V11.9483C11.9281 11.8522 11.9106 11.7678 11.8757 11.6892ZM8.2509 10.2887V9.74139L10.0007 11.4679H9.46789C9.20295 11.4679 8.84192 11.4184 8.56825 11.1505C8.35862 10.938 8.2509 10.6469 8.2509 10.2887ZM10.6761 19.7248H3.24902V9.10961H6.99897V10.2887C6.99897 10.9962 7.24062 11.6135 7.69772 12.0647C8.149 12.516 8.75749 12.7489 9.46498 12.7489H10.6732V19.7248H10.6761ZM19.3785 15.9079C20.3626 15.9079 21.1283 15.6254 21.6465 15.0723C22.156 14.5424 22.4064 13.7825 22.4064 12.8101V7.07741C22.4064 6.10207 22.156 5.35092 21.6465 4.82103C21.1312 4.27368 20.3626 4 19.3785 4L7.47645 4.00873C6.49238 4.00873 5.72667 4.28241 5.20843 4.82685C4.70766 5.348 4.44854 6.1079 4.44854 7.08032V7.82274H3.12382C2.52406 7.82274 2 8.35263 2 8.96695V19.8645C2 20.4788 2.51533 21 3.12382 21H10.8013C11.4098 21 11.9252 20.4788 11.9252 19.8645V18.0099H21.7775C22.1269 18.0099 22.4035 17.7275 22.4035 17.3694C22.4035 17.02 22.1298 16.7289 21.7775 16.7289H11.9281V15.9079H19.3785Z" fill="#86888C"/>
</svg>
