<svg width="20" height="20" viewBox="0 0 20 20" fill="none" xmlns="http://www.w3.org/2000/svg">
<path fill-rule="evenodd" clip-rule="evenodd" d="M16.8528 17.2152C16.9324 17.2152 17.0098 17.1378 17.0098 17.0786V7.78685H15.1296C14.3056 7.78685 13.5931 7.51825 13.0696 7.01291C12.5415 6.50303 12.2638 5.80648 12.2638 4.99613V3.19331H6.95319C6.89401 3.19331 6.80068 3.28208 6.79613 3.32989V7.55695H11.9678C13.0536 7.55695 13.9346 8.44242 13.9346 9.52821V12.8561C13.9346 13.9419 13.0514 14.8274 11.9678 14.8274H6.82345L6.79613 17.0855C6.79613 17.1264 6.87808 17.2152 6.95319 17.2152H16.8528ZM2.98563 12.8561C2.98563 13.3979 3.42495 13.8395 3.96671 13.8395H11.9678C12.5096 13.8395 12.9489 13.3979 12.9489 12.8561V9.52821C12.9489 8.98645 12.5096 8.54485 11.9678 8.54485H3.96671C3.42495 8.54485 2.98563 8.98645 2.98563 9.52821V12.8561ZM16.5955 6.79894L13.2517 3.56207V4.99613C13.2517 5.53105 13.4269 5.98176 13.757 6.30271C14.0939 6.62822 14.5674 6.79894 15.1319 6.79894H16.5955ZM17.959 6.88544C17.9841 6.94462 17.9977 7.01064 17.9977 7.07893V17.0786C17.9977 17.6887 17.4742 18.2031 16.8528 18.2031H6.95319C6.34315 18.2031 5.80822 17.6773 5.80822 17.0786L5.83554 14.8251H3.96671C2.8832 14.8251 2 13.9396 2 12.8539V9.52593C2 8.44014 2.8832 7.55467 3.96671 7.55467H5.80822V3.32761C5.80822 2.73805 6.35453 2.20312 6.95319 2.20312H12.9785C13.1674 2.20312 13.345 2.27369 13.477 2.40571L17.7815 6.57131C17.8725 6.66009 17.9249 6.77163 17.959 6.88544Z" fill="#86888C"/>
<path d="M4.61095 12.3692C4.35828 12.0984 4.24902 11.7114 4.24902 11.1947C4.24902 10.2637 4.67014 9.6377 5.68991 9.6377C5.94713 9.6377 6.27719 9.6946 6.4684 9.772L6.3819 10.2682C6.152 10.2022 5.92892 10.1635 5.74227 10.1635C5.10263 10.1635 4.95467 10.5846 4.95467 11.1765C4.95467 11.5293 5.02068 11.8252 5.16864 11.9891C5.29839 12.1371 5.48732 12.2031 5.82194 12.2031C5.96534 12.2031 6.19525 12.1758 6.37052 12.1416L6.44109 12.6378C6.26353 12.6902 5.93575 12.7289 5.69219 12.7289C5.16409 12.7289 4.83403 12.6037 4.61095 12.3692ZM6.83261 12.5764L6.93731 12.0597C7.19909 12.1507 7.54281 12.2076 7.75905 12.2076C8.15968 12.2076 8.34633 12.1029 8.34633 11.8298C8.34633 11.2721 6.82805 11.6772 6.82805 10.5072C6.82805 9.90174 7.30152 9.6377 7.9366 9.6377C8.22342 9.6377 8.53754 9.68094 8.76745 9.76061L8.66274 10.2659C8.41918 10.1999 8.1574 10.1612 7.94798 10.1612C7.5815 10.1612 7.46541 10.291 7.46541 10.4799C7.46541 11.0626 8.98369 10.662 8.98369 11.8252C8.98369 12.0915 8.89264 12.3032 8.73558 12.4512C8.52616 12.6469 8.2439 12.7334 7.81824 12.7334C7.44037 12.7289 7.13308 12.6811 6.83261 12.5764ZM9.40025 12.5764L9.50496 12.0597C9.76674 12.1507 10.1105 12.2076 10.3267 12.2076C10.7273 12.2076 10.914 12.1029 10.914 11.8298C10.914 11.2721 9.3957 11.6772 9.3957 10.5072C9.3957 9.90174 9.86917 9.6377 10.5043 9.6377C10.7911 9.6377 11.1052 9.68094 11.3351 9.76061L11.2304 10.2659C10.9868 10.1999 10.7251 10.1612 10.5156 10.1612C10.1492 10.1612 10.0331 10.291 10.0331 10.4799C10.0331 11.0626 11.5513 10.662 11.5513 11.8252C11.5513 12.0915 11.4603 12.3032 11.3032 12.4512C11.0938 12.6469 10.8115 12.7334 10.3859 12.7334C10.0103 12.7289 9.70072 12.6811 9.40025 12.5764Z" fill="#86888C"/>
</svg>
