<svg width="20" height="20" viewBox="0 0 20 20" fill="none" xmlns="http://www.w3.org/2000/svg">
<path fill-rule="evenodd" clip-rule="evenodd" d="M16.9566 17.0121C17.0363 17.0121 17.1137 16.9347 17.1137 16.8755V7.58372H15.2334C14.4094 7.58372 13.697 7.31512 13.1757 6.80979C12.6476 6.29762 12.3676 5.60108 12.3676 4.793V2.99018H7.05703C6.99785 2.99018 6.90452 3.07896 6.89997 3.12676V7.35382H12.0717C13.1575 7.35382 14.0384 8.2393 14.0384 9.32508V12.6507C14.0384 13.7365 13.1552 14.622 12.0717 14.622H6.92728L6.89997 16.8801C6.89997 16.921 6.98192 17.0098 7.05703 17.0098H16.9566V17.0121ZM3.08947 12.653C3.08947 13.1948 3.52879 13.6364 4.07055 13.6364H12.0717C12.6134 13.6364 13.0528 13.1948 13.0528 12.653V9.32736C13.0528 8.7856 12.6134 8.344 12.0717 8.344H4.07055C3.52879 8.344 3.08947 8.7856 3.08947 9.32736V12.653ZM16.6994 6.59582L13.3555 3.35667V4.79072C13.3555 5.32337 13.5308 5.77636 13.8608 6.09731C14.1977 6.42282 14.6712 6.59354 15.2334 6.59354H16.6994V6.59582ZM18.0629 6.68232C18.0879 6.7415 18.1016 6.80751 18.1016 6.8758V16.8755C18.1016 17.4856 17.578 18 16.9566 18H7.05703C6.44699 18 5.91206 17.4742 5.91206 16.8755L5.93938 14.622H4.06827C2.98476 14.622 2.10156 13.7365 2.10156 12.6507V9.32508C2.10156 8.2393 2.98476 7.35382 4.06827 7.35382H5.90979V3.12448C5.90979 2.53493 6.45382 2 7.05476 2H13.0801C13.269 2 13.4466 2.07056 13.5786 2.20259L17.883 6.36819C17.9764 6.45696 18.0287 6.56623 18.0629 6.68232Z" fill="#86888C"/>
<path d="M4.28906 9.56396H5.34071C5.821 9.56396 6.12375 9.62998 6.32178 9.81436C6.48795 9.96687 6.56762 10.2036 6.56762 10.5314C6.56762 10.8592 6.49251 11.105 6.33999 11.2757C6.16017 11.4783 5.88246 11.5716 5.47956 11.5716H4.98788V12.6278H4.28906V9.56396ZM5.3316 11.0458C5.55468 11.0458 5.65028 11.014 5.73906 10.9297C5.81873 10.8501 5.8597 10.7203 5.8597 10.5405C5.8597 10.3743 5.82328 10.2537 5.74361 10.1786C5.65939 10.1034 5.52964 10.0716 5.31339 10.0716H4.98561V11.0481H5.3316V11.0458ZM7.06385 9.56396H8.1155C8.59579 9.56396 8.89854 9.62998 9.09657 9.81436C9.26274 9.96687 9.34241 10.2036 9.34241 10.5314C9.34241 10.8592 9.2673 11.105 9.11478 11.2757C8.93496 11.4783 8.65725 11.5716 8.25435 11.5716H7.76267V12.6278H7.06385V9.56396ZM8.10639 11.0458C8.32947 11.0458 8.42507 11.014 8.51385 10.9297C8.59352 10.8501 8.63449 10.7203 8.63449 10.5405C8.63449 10.3743 8.59807 10.2537 8.5184 10.1786C8.43418 10.1034 8.30443 10.0716 8.08818 10.0716H7.7604V11.0481H8.10639V11.0458ZM10.517 10.0693H9.56777V9.56396H12.1969L12.1422 10.0693H11.2158V12.6278H10.517V10.0693Z" fill="#86888C"/>
</svg>
