<svg width="28" height="28" viewBox="0 0 28 28" fill="none" xmlns="http://www.w3.org/2000/svg">
<path fill-rule="evenodd" clip-rule="evenodd" d="M15.1688 18.0125C15.1688 18.6648 14.6839 19.1599 14.059 19.1599C13.417 19.1599 12.9321 18.6648 12.9321 18.033V18.0125C12.9321 17.3808 13.417 16.8754 14.0488 16.8754C14.6839 16.8788 15.1688 17.3808 15.1688 18.0125ZM21.7835 24.3199V10.3734H19.014C17.7915 10.3734 16.7397 9.97723 15.9748 9.21571C15.1859 8.44394 14.7795 7.39556 14.7795 6.17985V3.48207H6.93208C6.84329 3.48207 6.70669 3.61184 6.69986 3.69038V10.5714L6.75109 20.3073L6.69986 24.3301C6.69986 24.3882 6.81597 24.5179 6.93208 24.5179H21.5513C21.6777 24.5179 21.7835 24.4086 21.7835 24.3199ZM16.2377 4.03529V6.17985C16.2377 6.9926 16.4904 7.66192 16.9856 8.14684C17.4807 8.63176 18.1808 8.88788 19.0175 8.88788H21.1723L16.2377 4.03529ZM23.1802 9.01764C23.2178 9.10643 23.2383 9.20546 23.2383 9.31474V24.3199C23.2383 25.2282 22.4699 26 21.5479 26H6.92866C6.03396 26 5.23828 25.218 5.23828 24.3199L5.2895 20.2971L5.23828 10.5714V3.68014C5.23828 2.79909 6.0442 2 6.92866 2H15.8279C16.1079 2 16.3811 2.10928 16.5758 2.30734L22.9275 8.55322C23.0539 8.68298 23.1324 8.84007 23.1802 9.01764ZM18.956 18.0125C18.956 18.6648 18.4711 19.1599 17.8496 19.1599C17.2075 19.1599 16.7226 18.6648 16.7226 18.033V18.0125C16.7226 17.3808 17.2075 16.8754 17.8393 16.8754C18.4711 16.8788 18.956 17.3808 18.956 18.0125ZM11.3783 18.0125C11.3783 18.6648 10.8934 19.1599 10.2616 19.1599C9.62986 19.1599 9.14494 18.6648 9.14494 18.033V18.0125C9.14494 17.3808 9.62986 16.8754 10.2514 16.8754C10.8934 16.8788 11.3783 17.3808 11.3783 18.0125Z" fill="#86888C"/>
</svg>
