<svg width="40" height="40" viewBox="0 0 40 40" fill="none" xmlns="http://www.w3.org/2000/svg">
<path fill-rule="evenodd" clip-rule="evenodd" d="M35.4136 35.8788C35.5928 35.8788 35.767 35.7046 35.767 35.5715V14.6649H31.5365C29.6825 14.6649 28.0794 14.0606 26.9014 12.9236C25.7132 11.7712 25.0832 10.204 25.0832 8.38581V4.32948H13.1344C13.0013 4.32948 12.7913 4.52922 12.781 4.63677V14.1477H24.4174C26.8604 14.1477 28.8425 16.14 28.8425 18.583V26.0657C28.8425 28.5087 26.8553 30.5011 24.4174 30.5011H12.8425L12.781 35.5817C12.781 35.6739 12.9654 35.8736 13.1344 35.8736H35.4136V35.8788ZM4.21255 26.0708C4.21255 27.2898 5.20102 28.2834 6.41997 28.2834H24.4225C25.6415 28.2834 26.63 27.2898 26.63 26.0708V18.5881C26.63 17.3692 25.6415 16.3756 24.4225 16.3756H6.41997C5.20102 16.3756 4.21255 17.3692 4.21255 18.5881V26.0708ZM34.8348 12.4422L27.3111 5.15918V8.38581C27.3111 9.5894 27.7055 10.6035 28.4481 11.3256C29.2061 12.058 30.2715 12.4422 31.5416 12.4422H34.8348ZM37.9027 12.6368C37.959 12.7699 37.9898 12.9185 37.9898 13.0721V35.5715C37.9898 36.9441 36.8118 38.1016 35.4136 38.1016H13.1396C11.767 38.1016 10.5685 36.9185 10.5685 35.5715L10.63 30.5011H6.4251C3.9872 30.5011 2 28.5087 2 26.0657V18.583C2 16.14 3.9872 14.1477 6.4251 14.1477H10.5685V4.63165C10.5685 3.30515 11.7926 2.10156 13.1396 2.10156H26.6965C27.1165 2.10156 27.5314 2.27058 27.8284 2.56251L37.5032 11.93C37.7081 12.1297 37.8259 12.3756 37.9027 12.6368Z" fill="#86888C"/>
<path d="M6.14404 19.0792H7.35787L9.49359 22.8539L11.6959 19.0792H12.879V25.8347H11.4705V21.9422L10.0672 24.293H8.88412L7.43982 21.9012V25.8347H6.14404V19.0792ZM14.3489 19.0792H16.669C17.7241 19.0792 18.395 19.2277 18.8303 19.6324C19.194 19.9704 19.3732 20.4928 19.3732 21.2149C19.3732 21.9371 19.2042 22.48 18.8713 22.8539C18.4769 23.2994 17.8624 23.5043 16.9763 23.5043H15.8905V25.8347H14.3489V19.0792ZM16.6536 22.3468C17.1453 22.3468 17.3553 22.2751 17.5499 22.0907C17.7292 21.9115 17.8163 21.6247 17.8163 21.2303C17.8163 20.8667 17.7394 20.6003 17.5602 20.4313C17.3707 20.2623 17.0839 20.1957 16.6127 20.1957H15.8905V22.3519H16.6536V22.3468ZM20.6075 25.8142V24.7489C21.0019 24.8206 21.468 24.8667 21.9597 24.8667C22.5128 24.8667 22.8406 24.795 23.0762 24.6413C23.3118 24.4825 23.4398 24.2265 23.4398 23.8628C23.4398 23.5094 23.3118 23.2687 23.1018 23.1202C22.8559 22.9409 22.4769 22.8846 21.7855 22.8846H21.596V21.8961H21.8316C22.4513 21.8961 22.7689 21.8193 23.0096 21.6093C23.1684 21.471 23.2759 21.2457 23.2759 20.9179C23.2759 20.6618 23.2042 20.4416 23.0506 20.3033C22.8508 20.124 22.5179 20.0472 21.9853 20.0472C21.5499 20.0472 21.0583 20.0882 20.6639 20.1445V19.0997C21.1197 19.0024 21.6933 18.9512 22.2157 18.9512C23.0659 18.9512 23.7881 19.1509 24.2029 19.5658C24.4898 19.8526 24.669 20.2469 24.669 20.8103C24.669 21.512 24.3617 22.0037 23.7727 22.3007C24.4846 22.5568 24.9097 23.0895 24.9097 23.9704C24.9097 24.4928 24.751 24.9486 24.4334 25.2764C23.9878 25.7425 23.2657 25.9781 22.2414 25.9781C21.6524 25.9729 21.0583 25.9115 20.6075 25.8142Z" fill="#86888C"/>
</svg>
