<svg width="40" height="40" viewBox="0 0 40 40" fill="none" xmlns="http://www.w3.org/2000/svg">
<path fill-rule="evenodd" clip-rule="evenodd" d="M18.8467 19.1168C18.7772 18.9132 18.6779 18.7095 18.5189 18.5655L12.8322 12.9284C12.5888 12.6801 12.2362 12.536 11.8935 12.536H8.31255V11.2696C8.31255 10.2067 8.54102 9.42199 8.99298 8.95513C9.45984 8.45847 10.2595 8.21014 11.3372 8.21014L31.6407 8.19524C32.7333 8.19524 33.5181 8.44357 33.9849 8.94023C34.4419 9.40709 34.6654 10.1918 34.6654 11.2547V21.0289C34.6654 22.1067 34.4369 22.8964 33.9849 23.3732C33.5032 23.8847 32.7184 24.1331 31.6407 24.1331L18.9312 24.148V19.5588C18.9361 19.3949 18.9063 19.2509 18.8467 19.1168ZM12.6633 16.7279V15.7941L15.6482 18.7393H14.7393C14.2874 18.7393 13.6715 18.6549 13.2047 18.198C12.8471 17.8354 12.6633 17.3388 12.6633 16.7279ZM16.8005 32.8246H4.13067V14.7164H10.5277V16.7279C10.5277 17.9347 10.9399 18.9877 11.7196 19.7575C12.4895 20.5273 13.5275 20.9246 14.7344 20.9246H16.7955V32.8246H16.8005ZM31.6457 26.3134C33.3244 26.3134 34.6306 25.8316 35.5146 24.888C36.3838 23.9841 36.8109 22.6878 36.8109 21.0289V11.2497C36.8109 9.58589 36.3838 8.3045 35.5146 7.40058C34.6356 6.46686 33.3244 6 31.6457 6L11.3422 6.0149C9.66347 6.0149 8.35725 6.48176 7.4732 7.41052C6.61894 8.29954 6.17691 9.59582 6.17691 11.2547V12.5212H3.91711C2.89399 12.5212 2 13.4251 2 14.473V33.063C2 34.111 2.87909 35 3.91711 35H17.014C18.0521 35 18.9312 34.111 18.9312 33.063V29.8993H35.7381C36.3341 29.8993 36.806 29.4175 36.806 28.8066C36.806 28.2107 36.3391 27.714 35.7381 27.714H18.9361V26.3134H31.6457Z" fill="#86888C"/>
</svg>
