<svg width="40" height="40" viewBox="0 0 40 40" fill="none" xmlns="http://www.w3.org/2000/svg">
<path fill-rule="evenodd" clip-rule="evenodd" d="M7.65802 6.66673C7.19122 7.38899 7.03733 8.27004 7.23226 9.10498C7.42719 9.94505 7.94528 10.6622 8.68909 11.1232C9.43802 11.5893 10.3254 11.7379 11.177 11.5432C12.0388 11.3537 12.7672 10.8466 13.2442 10.1141C13.711 9.38671 13.8649 8.52103 13.67 7.67584C13.4751 6.83577 12.9518 6.1084 12.2132 5.65763C11.4694 5.19661 10.5768 5.04807 9.72528 5.23759C8.87375 5.422 8.12995 5.93424 7.65802 6.66673ZM3.14905 9.46867C2.54887 9.47379 2.0513 8.99229 2.04617 8.38785C2.04617 7.79366 2.53861 7.31215 3.14905 7.31215H5.07267C5.20091 6.6821 5.43688 6.07766 5.79595 5.5142C6.58079 4.3002 7.82217 3.44477 9.23796 3.13742C10.6589 2.81471 12.1516 3.06571 13.3879 3.83407C14.6344 4.5973 15.4962 5.79593 15.8193 7.19946C15.8296 7.23532 15.8245 7.2763 15.8296 7.31215H36.8971C37.5024 7.31215 38 7.79878 38 8.39297C38 8.98717 37.5076 9.47379 36.8971 9.47379H15.8347C15.7065 10.1141 15.4602 10.7185 15.1063 11.2666C14.3215 12.4857 13.1006 13.3309 11.6643 13.6434C10.2434 13.9661 8.75064 13.7151 7.51439 12.9468C6.28327 12.1938 5.41123 10.9849 5.08293 9.58136C5.07267 9.54551 5.07267 9.50965 5.06754 9.46867H3.14905ZM29.4848 23.1659C31.3058 23.1659 32.7883 21.7163 32.7883 19.9337C32.7883 18.1511 31.3058 16.7015 29.4848 16.7015C27.6637 16.7015 26.1812 18.1511 26.1812 19.9337C26.1812 21.7111 27.6637 23.1659 29.4848 23.1659ZM36.8561 18.8528C37.4665 18.8528 37.959 19.3344 37.959 19.9337C37.959 20.5279 37.4665 21.0094 36.8561 21.0094H34.876C34.3682 23.463 32.1419 25.3173 29.4848 25.3173C26.8276 25.3173 24.6064 23.463 24.0935 21.0094H3.10288C2.50271 21.0145 2.00513 20.533 2 19.9285C2 19.3344 2.49245 18.8477 3.10288 18.8477H24.0883C24.6013 16.3941 26.8225 14.5398 29.4796 14.5398C32.1368 14.5398 34.3631 16.3941 34.8709 18.8477H36.8561V18.8528ZM15.3782 34.6758C17.1992 34.6758 18.6817 33.2262 18.6817 31.4436C18.6817 29.661 17.1992 28.2114 15.3782 28.2114C13.5571 28.2114 12.0747 29.661 12.0747 31.4436C12.0747 33.2262 13.5571 34.6758 15.3782 34.6758ZM36.851 30.3679C37.4614 30.3679 37.9538 30.8494 37.9538 31.4488C37.9538 32.0429 37.4614 32.5296 36.851 32.5296H20.7694C20.2565 34.9832 18.0353 36.8375 15.3782 36.8375C12.721 36.8375 10.4999 34.9832 9.98689 32.5296H3.10288C2.50271 32.5347 2.00513 32.0532 2 31.4488C2 30.8546 2.49245 30.3731 3.10288 30.3731H9.98689C10.4999 27.9194 12.721 26.0651 15.3782 26.0651C18.0353 26.0651 20.2565 27.9194 20.7694 30.3731L36.851 30.3679Z" fill="#86888C"/>
</svg>
