<svg width="20" height="20" viewBox="0 0 20 20" fill="none" xmlns="http://www.w3.org/2000/svg">
<path fill-rule="evenodd" clip-rule="evenodd" d="M14.4135 15.5572C13.9878 15.9487 13.5006 16.2675 12.9724 16.502C14.0925 14.6989 13.0612 12.083 11.7612 10.9378C11.1602 10.4074 10.443 10.0181 9.74407 9.8382C9.48226 9.77218 9.21589 9.93382 9.15214 10.1956C9.1271 10.2981 9.13621 10.4051 9.17491 10.5007C9.17946 10.5144 9.73497 11.9145 8.48281 12.8957C8.28019 13.0506 8.09578 13.2236 7.93186 13.4125C7.28301 14.1616 7.09633 15.2088 7.44921 16.1354C6.90281 15.803 6.41106 15.3887 6.0172 14.8855C3.65403 11.8644 5.75083 6.97873 8.23238 4.94112C9.14304 4.18983 10.1744 3.60473 11.2854 3.20632C11.0076 4.56548 10.937 7.14492 13.6121 9.10284C13.9786 9.36466 14.3179 9.66062 14.6138 9.97936C15.3469 10.7625 15.7271 11.7711 15.6907 12.8161C15.652 13.861 15.1989 14.8332 14.4135 15.5572ZM9.72358 16.9436C9.71903 16.9436 9.20451 16.8526 8.74007 16.3927C8.10489 15.7666 8.07301 14.7421 8.66266 14.0637C8.78333 13.9248 8.9222 13.795 9.07702 13.6766C10.0651 12.9003 10.3087 11.8895 10.2723 11.0904C10.5773 11.252 10.8619 11.4478 11.1214 11.6777C12.1346 12.5702 13.0293 14.7922 12.0708 16.1058C11.6792 16.6363 11.0714 16.9641 10.4134 17.0028C10.3838 17.0028 10.3519 17.0051 10.3223 17.0028C10.27 17.0051 10.2153 17.0028 10.1607 17.0006C10.0287 16.9914 9.90116 16.9687 9.77139 16.9527C9.75773 16.9482 9.73952 16.9482 9.72358 16.9436ZM15.3241 9.30547C14.9758 8.93437 14.5933 8.5997 14.179 8.30374C11.0509 6.01798 12.385 2.82384 12.4419 2.68952C12.517 2.51877 12.4897 2.3207 12.3713 2.17727C12.2529 2.03384 12.064 1.97009 11.8841 2.01335C10.4089 2.36395 8.89261 3.13574 7.61541 4.183C4.76504 6.52567 2.48611 11.9646 5.25224 15.5002C6.34731 16.9004 8.04342 17.7746 9.82376 17.9613C9.97402 17.9818 10.122 17.9977 10.27 17.9977C10.3041 17.9977 10.336 17.9932 10.3679 17.9909C10.4248 17.9932 10.4817 18 10.5386 18C11.0327 18 11.5244 17.9476 12.0093 17.8361C12.0754 17.827 13.6463 17.597 15.0692 16.2834C16.0481 15.3819 16.615 14.1638 16.6628 12.8548C16.7129 11.5434 16.2371 10.2821 15.3241 9.30547Z" fill="#86888C"/>
</svg>
