<svg width="24" height="24" viewBox="0 0 24 24" fill="none" xmlns="http://www.w3.org/2000/svg">
<path fill-rule="evenodd" clip-rule="evenodd" d="M18.0169 18.9464C17.4847 19.4359 16.8757 19.8343 16.2155 20.1275C17.6156 17.8736 16.3264 14.6037 14.7015 13.1723C13.9502 12.5092 13.0538 12.0226 12.1801 11.7978C11.8528 11.7152 11.5199 11.9173 11.4402 12.2445C11.4089 12.3726 11.4203 12.5064 11.4686 12.6259C11.4743 12.643 12.1687 14.3931 10.6035 15.6197C10.3502 15.8132 10.1197 16.0295 9.91482 16.2657C9.10377 17.202 8.87041 18.511 9.31151 19.6693C8.62852 19.2538 8.01382 18.7359 7.52149 18.1069C4.56754 14.3305 7.18853 8.22341 10.2905 5.67641C11.4288 4.73729 12.718 4.00591 14.1067 3.50789C13.7595 5.20685 13.6713 8.43115 17.0151 10.8786C17.4733 11.2058 17.8973 11.5758 18.2673 11.9742C19.1836 12.9532 19.6589 14.2139 19.6134 15.5201C19.565 16.8263 18.9987 18.0415 18.0169 18.9464ZM12.1545 20.6795C12.1488 20.6795 11.5056 20.5657 10.9251 19.9909C10.1311 19.2083 10.0913 17.9276 10.8283 17.0796C10.9792 16.906 11.1528 16.7438 11.3463 16.5958C12.5814 15.6254 12.8859 14.3618 12.8403 13.363C13.2217 13.565 13.5774 13.8097 13.9018 14.0972C15.1682 15.2127 16.2866 17.9902 15.0885 19.6323C14.599 20.2954 13.8392 20.7052 13.0168 20.7535C12.9798 20.7535 12.9399 20.7564 12.9029 20.7535C12.8375 20.7564 12.7692 20.7535 12.7009 20.7507C12.5358 20.7393 12.3765 20.7108 12.2142 20.6909C12.1972 20.6852 12.1744 20.6852 12.1545 20.6795ZM19.1552 11.1318C18.7198 10.668 18.2417 10.2496 17.7237 9.87967C13.8136 7.02248 15.4812 3.0298 15.5524 2.86189C15.6463 2.64846 15.6121 2.40087 15.4642 2.22159C15.3162 2.0423 15.08 1.96262 14.8552 2.01669C13.0111 2.45494 11.1158 3.41967 9.51926 4.72875C5.9563 7.65709 3.10764 14.4557 6.5653 18.8753C7.93414 20.6255 10.0543 21.7183 12.2797 21.9516C12.4675 21.9772 12.6525 21.9972 12.8375 21.9972C12.8802 21.9972 12.92 21.9915 12.9598 21.9886C13.031 21.9915 13.1021 22 13.1733 22C13.7908 22 14.4055 21.9345 15.0117 21.7951C15.0942 21.7837 17.0578 21.4963 18.8365 19.8543C20.0602 18.7273 20.7688 17.2048 20.8285 15.5685C20.8911 13.9293 20.2964 12.3527 19.1552 11.1318Z" fill="#86888C"/>
</svg>
