<svg width="20" height="20" viewBox="0 0 20 20" fill="none" xmlns="http://www.w3.org/2000/svg">
<path fill-rule="evenodd" clip-rule="evenodd" d="M16.0468 9.72335C16.0332 9.75068 16.0013 9.79622 15.9307 9.79622H3.94265V3.0656C3.94265 2.99502 3.99957 2.9381 4.07243 2.9381H15.933C16.0036 2.9381 16.0354 2.98363 16.0491 3.01096C16.065 3.04511 16.0764 3.09293 16.0764 3.09976L13.5559 5.60894C13.1437 6.02106 13.1415 6.69276 13.5536 7.11399L16.0332 9.58902C16.0741 9.64138 16.0628 9.69148 16.0468 9.72335ZM14.2253 6.45596C14.1729 6.40131 14.1706 6.31934 14.223 6.26925L16.7823 3.71225C17.0305 3.38893 17.0737 2.96087 16.8916 2.59428C16.7094 2.22769 16.3428 2 15.9307 2H4.07016C3.48043 2 3 2.47816 3 3.06333V17.5332C3 17.7905 3.21175 18 3.47132 18C3.7309 18 3.94265 17.7905 3.94265 17.5332V10.7298H15.9307C16.3405 10.7298 16.7094 10.5021 16.8916 10.1355C17.0737 9.76889 17.0305 9.34083 16.7436 8.97197L14.2253 6.45596Z" fill="#86888C"/>
</svg>
