<svg width="40" height="40" viewBox="0 0 40 40" fill="none" xmlns="http://www.w3.org/2000/svg">
<path fill-rule="evenodd" clip-rule="evenodd" d="M21.2038 31.9966V28.0933C21.2038 27.4838 20.7069 26.992 20.0973 26.992C19.4878 26.992 18.9909 27.4838 18.9909 28.0933V32.0017C15.9994 31.848 8.79738 30.5111 8.01878 21.5009H11.9528C12.5623 21.5009 13.0592 21.0091 13.0592 20.3995C13.0592 19.79 12.5623 19.2982 11.9528 19.2982H7.96756C8.26466 9.24815 15.9892 7.94195 18.996 7.82413V11.9067C18.996 12.5162 19.4929 13.008 20.1024 13.008C20.712 13.008 21.2089 12.5162 21.2089 11.9067V7.84974C24.3643 8.05976 31.8941 9.60159 32.2271 19.2982H28.0575C27.4479 19.2982 26.9511 19.79 26.9511 20.3995C26.9511 21.0091 27.4479 21.5009 28.0575 21.5009H32.1861C31.428 30.465 24.2055 31.8275 21.2038 31.9966ZM36.8987 19.2982H34.4348C34.0711 7.42459 24.2977 5.84178 21.2038 5.64713V3.10131C21.2038 2.49175 20.7069 2 20.0973 2C19.4878 2 18.9909 2.49175 18.9909 3.10131V5.62151C16.1019 5.73421 6.07228 7.01992 5.7547 19.2982H3.10643C2.49687 19.2982 2 19.79 2 20.3995C2 21.0091 2.49687 21.5009 3.10643 21.5009H5.81104C6.65623 32.6779 16.0455 34.0609 18.9909 34.2043V36.8987C18.9909 37.5083 19.4878 38 20.0973 38C20.7069 38 21.2038 37.5083 21.2038 36.8987V34.1992C24.1491 34.0404 33.5691 32.6318 34.3836 21.5009H36.8987C37.5083 21.5009 38.0051 21.0091 38.0051 20.3995C38.0051 19.79 37.5134 19.2982 36.8987 19.2982Z" fill="#86888C"/>
</svg>
