<svg width="40" height="40" viewBox="0 0 40 40" fill="none" xmlns="http://www.w3.org/2000/svg">
<path fill-rule="evenodd" clip-rule="evenodd" d="M4.6793 7.43641C4.48463 7.43641 4.33607 7.58498 4.33607 7.77965V32.4313C4.33607 32.626 4.48463 32.7745 4.6793 32.7745H35.3299C35.5195 32.7745 35.6732 32.6208 35.6732 32.4313V11.796C35.6732 11.6014 35.5246 11.4528 35.3299 11.4528H19.249C18.6035 11.4528 18.0809 10.9303 18.0809 10.2848V7.77965C18.0809 7.58498 17.9324 7.43641 17.7377 7.43641H4.6793ZM35.3299 35.1055H4.6793C3.20389 35.1055 2 33.9067 2 32.4262V7.77965C2 6.30424 3.19877 5.10547 4.6793 5.10547H17.7377C19.2131 5.10547 20.417 6.30424 20.417 7.77965V9.11674H35.3299C36.8053 9.11674 38.0041 10.3155 38.0041 11.7909V32.4313C38.0041 33.9067 36.8053 35.1055 35.3299 35.1055Z" fill="#86888C"/>
</svg>
