<svg width="24" height="24" viewBox="0 0 24 24" fill="none" xmlns="http://www.w3.org/2000/svg">
<path fill-rule="evenodd" clip-rule="evenodd" d="M3.51827 5.32087C3.40796 5.32087 3.32377 5.40505 3.32377 5.51537V19.4846C3.32377 19.5949 3.40796 19.6791 3.51827 19.6791H20.887C20.9944 19.6791 21.0815 19.592 21.0815 19.4846V7.79133C21.0815 7.68101 20.9973 7.59682 20.887 7.59682H11.7744C11.4086 7.59682 11.1125 7.30072 11.1125 6.93494V5.51537C11.1125 5.40505 11.0283 5.32087 10.918 5.32087H3.51827ZM20.887 21H3.51827C2.68221 21 2 20.3207 2 19.4817V5.51537C2 4.6793 2.6793 4 3.51827 4H10.918C11.7541 4 12.4363 4.6793 12.4363 5.51537V6.27305H20.887C21.723 6.27305 22.4023 6.95236 22.4023 7.78842V19.4846C22.4023 20.3207 21.723 21 20.887 21Z" fill="#86888C"/>
</svg>
