<svg width="40" height="40" viewBox="0 0 40 40" fill="none" xmlns="http://www.w3.org/2000/svg">
<path fill-rule="evenodd" clip-rule="evenodd" d="M33.6925 28.0054H35.6963V14.1938H33.6925V28.0054ZM29.3414 30.6601V23.1009C29.3414 23.0855 29.3466 23.0804 29.3466 23.065V19.1393C29.3466 19.124 29.3414 19.1188 29.3414 19.1035V11.5442H31.3504V14.1528C31.3504 14.1682 31.3453 14.1784 31.3453 14.1989V28.0106C31.3453 28.0259 31.3504 28.0413 31.3504 28.0567V30.6653H29.3414V30.6601ZM13.075 23.065H27.0045V19.1393H13.075V23.065ZM8.72389 30.6601V11.5442H10.7329V18.8677C10.7226 18.96 10.7072 19.0471 10.7072 19.1393V23.065C10.7072 23.1573 10.7226 23.2495 10.7329 23.3366V30.655H8.72389V30.6601ZM4.35746 28.0054H6.36643V14.1938H4.35746V28.0054ZM35.6912 11.7492H33.6874V11.5442C33.6874 10.1912 32.6368 9.09961 31.3453 9.09961H29.3363C28.0448 9.09961 26.9942 10.1963 26.9942 11.5442V16.6947H13.0647V11.5442C13.0647 10.1912 12.0141 9.09961 10.7226 9.09961H8.71364C7.42217 9.09961 6.37156 10.1963 6.37156 11.5442V11.7543C6.36131 11.7543 6.35618 11.7492 6.35106 11.7492H4.34209C3.05061 11.7492 2 12.8459 2 14.1938V28.0054C2 29.3584 3.04548 30.45 4.34209 30.45H6.35106C6.36131 30.45 6.36643 30.4449 6.37156 30.4449V30.655C6.37156 32.008 7.42217 33.0996 8.71364 33.0996H10.7226C12.0141 33.0996 13.0647 32.0029 13.0647 30.655V25.5096H26.9942V30.655C26.9942 32.008 28.0397 33.0996 29.3363 33.0996H31.3453C32.6368 33.0996 33.6874 32.0029 33.6874 30.655V30.45H35.6912C36.9827 30.45 38.0333 29.3533 38.0333 28.0054V14.1938C38.0333 12.8459 36.9827 11.7492 35.6912 11.7492Z" fill="#86888C"/>
</svg>
