<svg width="40" height="40" viewBox="0 0 40 40" fill="none" xmlns="http://www.w3.org/2000/svg">
<path fill-rule="evenodd" clip-rule="evenodd" d="M7.21873 7.7934C7.21873 6.61013 7.49356 5.74957 8.05851 5.1605C8.61327 4.5868 9.59556 4.25896 10.7662 4.25896H24.8541C24.9915 4.39727 25.1595 4.76608 25.2154 4.89414C25.475 5.4576 26.2995 7.14798 27.4345 9.47353L27.4854 9.57598C29.1395 12.9567 31.1957 17.1622 32.407 19.7695C32.5393 20.0563 32.7989 20.7684 32.2899 21.1781C32.0507 21.3728 31.7912 21.4138 31.613 21.4138C31.328 21.4138 31.0328 21.3062 30.7936 21.1116C30.3966 20.794 30.0047 20.2817 29.4907 19.4007C29.2955 19.0656 29.0167 18.7877 28.6819 18.5945C28.3471 18.4014 27.968 18.2996 27.5821 18.2994C27.3887 18.2994 27.1902 18.325 26.9968 18.3813C26.0349 18.6528 25.3681 19.539 25.3681 20.5532V33.9943C25.2765 35.4644 24.6709 35.7564 23.714 35.7564C22.5485 35.7564 22.0497 35.2493 22.0497 34.0558V28.749C22.0497 28.0472 21.724 27.3762 21.1692 26.9511C20.7824 26.654 20.3091 26.4952 19.8307 26.4952C19.6271 26.4952 19.4286 26.5259 19.2301 26.5822C19.0418 26.6335 18.828 26.6642 18.5837 26.6642C17.4233 26.6642 17.2554 26.07 17.1841 25.819C17.0161 25.2299 16.6243 24.7382 16.0898 24.4513C15.7641 24.2772 15.4129 24.1901 15.0516 24.1901C14.8175 24.1901 14.5833 24.226 14.3543 24.3028C14.1507 24.3694 13.9115 24.4052 13.6367 24.4052C12.4712 24.4052 12.3083 23.8315 12.232 23.5498C12.0691 22.9556 11.6721 22.4587 11.1377 22.1719C10.812 21.9926 10.4557 21.9055 10.0943 21.9055C9.86021 21.9055 9.62609 21.9414 9.39706 22.0182C9.19857 22.0848 8.95936 22.1207 8.68961 22.1207C7.63607 22.1207 7.20346 21.6801 7.20346 20.6044V7.7934H7.21873ZM8.70488 24.3591C9.21893 24.3591 9.68717 24.2874 10.1096 24.144C10.5422 25.7114 11.8197 26.6437 13.6519 26.6437C14.166 26.6437 14.6444 26.572 15.0618 26.4286C15.4995 27.9858 16.7718 28.9027 18.5939 28.9027C19.0418 28.9027 19.4591 28.8463 19.8358 28.7388V34.0455C19.8358 36.4838 21.3219 38 23.714 38C26.0145 38 27.4243 36.5913 27.5821 34.1275V34.0455C27.5821 33.5743 27.5872 24.6101 27.5821 20.543C28.1979 21.5982 28.7527 22.3358 29.4194 22.8685C30.0709 23.391 30.8496 23.6574 31.613 23.6574C32.3459 23.6574 33.0686 23.4166 33.6692 22.93C34.85 21.9772 35.1401 20.3534 34.4123 18.7911C33.1755 16.1429 31.0939 11.8862 29.4194 8.46443C28.3761 6.33352 27.4752 4.49459 27.2207 3.93626C26.9561 3.35743 26.3301 2 24.9101 2H10.7611C8.97463 2 7.45285 2.56346 6.47056 3.58281C5.49336 4.60216 4.99968 6.01594 4.99968 7.7934V20.5891C5.00477 22.9146 6.42476 24.3591 8.70488 24.3591Z" fill="#86888C"/>
</svg>
