<svg width="24" height="24" viewBox="0 0 24 24" fill="none" xmlns="http://www.w3.org/2000/svg">
<path fill-rule="evenodd" clip-rule="evenodd" d="M19.3021 19.7345C19.9407 19.7345 20.4079 19.5777 20.723 19.2556C21.0327 18.9392 21.2096 18.379 21.2096 17.7114V9.67705C21.1349 9.59868 20.9359 9.5029 20.8668 9.47097C20.5627 9.32294 19.6504 8.85272 18.3954 8.20544L18.3401 8.17642C16.5155 7.23308 14.2459 6.06044 12.8388 5.36963C12.684 5.29416 12.2998 5.14613 12.0786 5.43639C11.9736 5.57281 11.9514 5.72084 11.9514 5.82243C11.9514 5.98497 12.0095 6.15332 12.1145 6.28974C12.2859 6.51614 12.5624 6.73964 13.0379 7.0328C13.2187 7.14411 13.3687 7.30311 13.4729 7.49404C13.5772 7.68496 13.6321 7.90119 13.6322 8.12127C13.6322 8.23157 13.6184 8.34477 13.588 8.45507C13.4415 9.00365 12.9632 9.38389 12.4159 9.38389H5.16194C4.36854 9.43614 4.21097 9.78154 4.21097 10.3272C4.21097 10.9919 4.48465 11.2764 5.12877 11.2764H7.99827C8.377 11.2764 8.73914 11.4621 8.96859 11.7785C9.12893 11.9991 9.21463 12.2691 9.21463 12.5419C9.21463 12.6551 9.19804 12.7712 9.16763 12.8844C9.13999 12.9918 9.1234 13.1137 9.1234 13.253C9.1234 13.9148 9.44408 14.0106 9.57954 14.0512C9.89745 14.147 10.1628 14.3705 10.3176 14.6753C10.4116 14.8611 10.4586 15.0613 10.4586 15.2674C10.4586 15.4009 10.4393 15.5344 10.3978 15.6651C10.3619 15.7812 10.3425 15.9176 10.3425 16.0743C10.3425 16.739 10.6521 16.8319 10.8042 16.8754C11.1249 16.9683 11.393 17.1947 11.5478 17.4995C11.6446 17.6853 11.6916 17.8884 11.6916 18.0945C11.6916 18.228 11.6722 18.3616 11.6308 18.4922C11.5948 18.6054 11.5755 18.7418 11.5755 18.8956C11.5755 19.4965 11.8132 19.7432 12.3937 19.7432H19.3021V19.7345ZM10.3619 18.8869C10.3619 18.5938 10.4006 18.3267 10.478 18.0858C9.63206 17.8391 9.12893 17.1105 9.12893 16.0656C9.12893 15.7725 9.16763 15.4996 9.24504 15.2616C8.40464 15.012 7.90981 14.2863 7.90981 13.2472C7.90981 12.9918 7.94022 12.7538 7.99827 12.539H5.1343C3.81842 12.539 3.00014 11.6914 3.00014 10.3272C3.00014 9.01526 3.76036 8.21125 5.09007 8.12127H5.1343C5.38863 8.12127 10.2264 8.11837 12.4214 8.12127C11.8519 7.77006 11.4538 7.45368 11.1663 7.07344C10.8844 6.70191 10.7406 6.25782 10.7406 5.82243C10.7406 5.40446 10.8705 4.99229 11.1332 4.64979C11.6473 3.97639 12.5237 3.81094 13.3668 4.22601C14.7961 4.93134 17.0933 6.11849 18.94 7.07344C20.09 7.66847 21.0824 8.18222 21.3837 8.32735C21.6961 8.47829 22.4287 8.8353 22.4287 9.64512V17.7143C22.4287 18.7331 22.1246 19.601 21.5745 20.1612C21.0244 20.7185 20.2614 21 19.3021 21H12.3965C11.1415 20.9971 10.3619 20.1873 10.3619 18.8869Z" fill="#86888C"/>
</svg>
