<svg width="24" height="24" viewBox="0 0 24 24" fill="none" xmlns="http://www.w3.org/2000/svg">
<path fill-rule="evenodd" clip-rule="evenodd" d="M17.3237 13.7985C17.5555 13.5424 17.9533 13.5225 18.2108 13.7558C18.4655 13.9863 18.4884 14.3791 18.2566 14.6352C18.1621 14.7376 15.9387 17.148 12.1242 17.1907C12.1099 17.1907 12.0556 17.1935 11.9668 17.1935C11.2143 17.1935 7.98926 17.0484 5.85453 14.6722C5.62275 14.4132 5.64564 14.0205 5.90318 13.79C6.16358 13.5595 6.55848 13.5822 6.79027 13.8412C8.78478 16.0581 12.0584 15.9442 12.0899 15.9442C15.3549 15.9044 17.3037 13.8184 17.3237 13.7985ZM12.0527 20.7507C17.9733 20.7507 20.8549 17.8879 20.8549 12.0028C20.8549 6.11497 17.9761 3.25213 12.0527 3.25213C6.13497 3.25213 3.25623 6.11497 3.25623 12.0028C3.25623 17.8879 6.13497 20.7507 12.0527 20.7507ZM12.0527 2C18.4054 2 22.1111 5.1901 22.1111 12.0028C22.1111 18.8156 18.4054 22 12.0527 22C5.70001 22 2 18.8156 2 12.0028C2 5.1901 5.70001 2 12.0527 2ZM9.00512 10.5259C8.6417 10.5259 8.33838 10.4121 8.12662 10.1986C7.91773 9.98805 7.81471 9.69778 7.81471 9.33921C7.81471 8.60501 8.27256 8.14969 9.00512 8.14969C9.74055 8.14969 10.1955 8.60501 10.1955 9.33921C10.1955 9.70063 10.0897 9.98805 9.88362 10.1986C9.67187 10.4092 9.36854 10.5259 9.00512 10.5259ZM15.106 10.5259C14.7426 10.5259 14.4392 10.4121 14.2275 10.1986C14.0186 9.98805 13.9127 9.69778 13.9127 9.33921C13.9127 8.60501 14.3706 8.14969 15.1031 8.14969C15.8386 8.14969 16.2935 8.60501 16.2935 9.33921C16.2935 9.69778 16.1877 9.98805 15.9816 10.1986C15.7727 10.4092 15.4694 10.5259 15.106 10.5259Z" fill="#86888C"/>
</svg>
