<svg width="24" height="24" viewBox="0 0 24 24" fill="none" xmlns="http://www.w3.org/2000/svg">
<path fill-rule="evenodd" clip-rule="evenodd" d="M16.9851 17.1319H16.7539C16.7127 17.1319 16.6715 17.1319 16.6303 17.1251C16.5914 17.1114 16.5502 17.1046 16.509 17.1046C16.1748 17.009 15.8338 16.5924 15.8338 14.562C15.8338 12.0125 16.3671 12.0011 16.8111 11.9852H16.9004L16.9897 11.992C17.8778 12.0285 19.0657 12.338 19.0657 14.562C19.0612 16.7768 17.8732 17.0886 16.9851 17.1319ZM7.09463 11.992C7.10837 11.992 7.17703 11.9852 7.19077 11.9852H7.33268C7.7218 11.9989 8.25512 12.0125 8.25512 14.562C8.25512 17.1046 7.7218 17.1159 7.27775 17.1319H7.09234C6.20653 17.0886 5.02544 16.7768 5.02544 14.562C5.02544 12.338 6.20653 12.0262 7.09463 11.992ZM18.4798 11.3137C18.4065 6.59724 16.1061 4 11.9586 4C7.79047 4 5.48094 6.63366 5.44203 11.4161C4.50585 11.9852 4 13.046 4 14.562C4 16.7927 5.08495 18.0743 7.05343 18.163L7.28004 18.1699H7.3693C8.95553 18.1152 9.28285 16.688 9.28285 14.562C9.28285 12.4291 8.95553 11.0018 7.39677 10.9472C7.31437 10.9404 7.23197 10.9404 7.15186 10.9472C7.11066 10.9472 7.06945 10.9472 7.05572 10.954C6.86116 10.9632 6.6666 10.9859 6.47433 11.0246C6.6254 7.05477 8.46341 5.04026 11.9609 5.04026C15.4584 5.04026 17.2941 7.04794 17.452 11.0041C17.3216 10.9905 17.2003 10.9632 17.0629 10.9563C17.0217 10.9495 16.9828 10.9495 16.9531 10.9495C16.8752 10.9427 16.7974 10.9427 16.7219 10.9495C15.1311 11.0041 14.8106 12.4314 14.8106 14.5642C14.8106 15.955 14.9548 17.0431 15.4996 17.6463C14.79 18.0401 13.9362 18.2973 12.9383 18.4294C12.8147 17.965 12.4462 17.6873 11.8854 17.6736C11.1689 17.6532 10.7249 18.0561 10.7043 18.8027C10.6905 19.1623 10.7798 19.4537 10.9698 19.6608C11.1621 19.868 11.4482 19.9932 11.8098 20H11.8648C12.1989 20 12.4736 19.9044 12.6705 19.7155C12.7323 19.654 12.7735 19.5721 12.8147 19.4878C14.3505 19.3285 15.6301 18.8801 16.6189 18.1585C16.6532 18.1676 16.6738 18.1721 16.7081 18.1721H16.8111L17.0355 18.1653C19.0016 18.0743 20.0889 16.795 20.0889 14.5642C20.0866 12.9549 19.5121 11.8464 18.4798 11.3137Z" fill="#86888C"/>
</svg>
