<svg width="40" height="40" viewBox="0 0 40 40" fill="none" xmlns="http://www.w3.org/2000/svg">
<path fill-rule="evenodd" clip-rule="evenodd" d="M31.206 27.3299H31.1752C28.1988 27.3197 23.1322 23.4057 21.1138 21.5C23.1373 19.5943 28.2193 15.6701 31.1957 15.6701H31.206C32.9068 15.6752 34.2285 16.1824 35.125 17.1814C36.0267 18.1803 36.4775 19.6352 36.4724 21.5154C36.4672 25.2654 34.5922 27.3299 31.206 27.3299ZM8.80331 27.3299H8.77257C7.082 27.3299 5.77052 26.8279 4.87401 25.8443C3.96724 24.8555 3.50618 23.4006 3.50106 21.5205C3.49593 19.6455 3.94675 18.1855 4.84839 17.1865C5.75003 16.1875 7.06663 15.6803 8.76745 15.6752H8.7777C11.7541 15.6752 16.8361 19.5943 18.8597 21.5051C16.8463 23.4006 11.7849 27.3197 8.80331 27.3299ZM36.206 16.0031C35.0277 14.6967 33.3064 14.0051 31.2162 14H31.2009C27.3535 14 21.8207 18.6516 19.997 20.3781C18.1681 18.6516 12.6404 14 8.79306 14H8.7777C6.68753 14.0051 4.9611 14.7018 3.78794 16.0031C2.61479 17.3094 1.99491 19.2152 2.00003 21.5205C2.00515 23.8258 2.63528 25.7316 3.81868 27.0277C4.99696 28.3186 6.71315 29 8.78794 29H8.81868C12.6711 28.9846 18.1783 24.3432 20.0021 22.6219C21.8259 24.3432 27.3381 28.9846 31.1804 29H31.2162C35.4529 29 37.9888 26.208 38.0041 21.5205C37.999 19.2203 37.3791 17.3094 36.206 16.0031Z" fill="#86888C"/>
</svg>
