<svg width="24" height="24" viewBox="0 0 24 24" fill="none" xmlns="http://www.w3.org/2000/svg">
<path fill-rule="evenodd" clip-rule="evenodd" d="M10.0994 19.7982L12.0233 14.7749C12.0859 14.607 12.0774 14.4192 11.9977 14.2598C11.918 14.1004 11.7729 13.9837 11.6021 13.941L7.77417 12.9933L13.9216 6.39333L12.0774 11.0722C12.0119 11.2401 12.0205 11.4308 12.1002 11.5902C12.1798 11.7524 12.325 11.8691 12.4958 11.9118L16.7079 12.9506L10.0994 19.7982ZM18.4781 12.4355C18.4184 12.2192 18.2505 12.0541 18.037 12L13.4634 10.873L16.2269 3.85751C16.3351 3.58144 16.2383 3.26268 15.9935 3.10046C15.7488 2.93824 15.43 2.97523 15.228 3.19153L6.169 12.9165C6.01816 13.0758 5.96408 13.3092 6.02385 13.5227C6.08362 13.7361 6.25153 13.9012 6.46214 13.9524L10.6401 14.9855L7.89655 22.149C7.79124 22.4251 7.88801 22.7382 8.12992 22.8975C8.23238 22.9658 8.34622 23 8.46007 23C8.6166 23 8.77028 22.9374 8.88982 22.8179L18.3245 13.0445C18.4781 12.8852 18.5379 12.6518 18.4781 12.4355Z" fill="#86888C"/>
</svg>
