<svg width="24" height="24" viewBox="0 0 24 24" fill="none" xmlns="http://www.w3.org/2000/svg">
<path fill-rule="evenodd" clip-rule="evenodd" d="M7.81892 11.0016C8.08361 10.7739 8.11492 10.3783 7.88438 10.1164C7.65669 9.8546 7.25824 9.82614 6.99355 10.051C6.54102 10.4381 5.8181 11.1097 5.34849 11.5765C3.46437 13.4521 2.47108 14.8695 2.13239 16.173C2.04416 16.5117 2.00146 16.8418 2.00146 17.1691C2.00146 18.299 2.52515 19.3692 3.58675 20.4251C6.54671 23.3679 9.28467 21.851 12.4865 18.669C15.6856 15.4871 17.2111 12.7633 14.2511 9.8233C13.2835 8.86416 12.3215 8.35185 11.3054 8.26363C10.9582 8.23232 10.6508 8.48847 10.6195 8.83285C10.5996 9.17154 10.8472 9.48461 11.1944 9.51307C11.9031 9.57568 12.6118 9.9656 13.3575 10.7084C14.4105 11.753 14.7549 12.6922 14.4817 13.7566C14.2056 14.8182 13.2891 16.0961 11.5929 17.781C9.89658 19.4659 8.61299 20.3767 7.54569 20.6499C6.47555 20.926 5.53065 20.5816 4.47758 19.5342C3.42452 18.4869 3.08014 17.5476 3.35622 16.486C3.63229 15.4244 4.54874 14.1465 6.24502 12.4616C6.68617 12.0233 7.39485 11.3659 7.81892 11.0016ZM20.4158 3.57323C19.0468 2.21279 17.6494 1.74033 16.1381 2.13025C14.826 2.46894 13.4001 3.4537 11.5132 5.32928C9.50951 7.32156 8.16045 9.13454 8.16045 10.9333C8.16045 12.0063 8.64145 13.0764 9.74858 14.1778C10.6736 15.1 11.5957 15.6038 12.5691 15.7261C12.9163 15.7688 13.2322 15.5241 13.2721 15.1797C13.3062 14.8381 13.07 14.5222 12.7228 14.4795C12.0426 14.397 11.3595 14.0071 10.6394 13.2927C8.61583 11.2777 9.04559 9.56145 12.404 6.22012C15.7653 2.87878 17.4929 2.45186 19.5193 4.46406C21.5429 6.47342 21.116 8.19532 17.7547 11.5338C17.1627 12.1201 16.6419 12.5954 16.1609 12.9882C15.8933 13.2102 15.8535 13.6058 16.0755 13.8733C16.2975 14.1408 16.6959 14.1807 16.9635 13.9587C17.4758 13.5403 18.0251 13.0394 18.6455 12.4218C21.8503 9.23984 23.3758 6.51611 20.4158 3.57323Z" fill="#86888C"/>
</svg>
