<svg width="40" height="40" viewBox="0 0 40 40" fill="none" xmlns="http://www.w3.org/2000/svg">
<path fill-rule="evenodd" clip-rule="evenodd" d="M13.5771 14.0683C12.7627 14.0683 12.107 13.4126 12.107 12.6033C12.107 11.794 12.7627 11.1383 13.5771 11.1383C14.3916 11.1383 15.0472 11.794 15.0472 12.6033C15.0472 13.4075 14.3865 14.0683 13.5771 14.0683ZM13.5874 18.6016C14.4018 18.6016 15.0575 19.2573 15.0575 20.0666C15.0575 20.8759 14.4018 21.5316 13.5874 21.5316C12.7729 21.5316 12.1172 20.8759 12.1172 20.0666C12.1172 19.2573 12.7729 18.6016 13.5874 18.6016ZM18.5714 13.7968C17.9619 13.7968 17.465 13.3051 17.465 12.6955C17.465 12.0859 17.9619 11.5942 18.5714 11.5942H28.7445C29.354 11.5942 29.8509 12.0859 29.8509 12.6955C29.8509 13.3051 29.354 13.7968 28.7445 13.7968H18.5714ZM28.893 18.9653C29.5026 18.9653 29.9994 19.457 29.9994 20.0666C29.9994 20.6762 29.5026 21.1679 28.893 21.1679H18.72C18.1104 21.1679 17.6135 20.6762 17.6135 20.0666C17.6135 19.457 18.1104 18.9653 18.72 18.9653H28.893ZM13.5874 25.9368C14.4018 25.9368 15.0575 26.5925 15.0575 27.4018C15.0575 28.2112 14.4018 28.8668 13.5874 28.8668C12.7729 28.8668 12.1172 28.2112 12.1172 27.4018C12.1172 26.5925 12.7729 25.9368 13.5874 25.9368ZM28.893 26.3005C29.5026 26.3005 29.9994 26.7923 29.9994 27.4018C29.9994 28.0114 29.5026 28.5031 28.893 28.5031H18.72C18.1104 28.5031 17.6135 28.0114 17.6135 27.4018C17.6135 26.7923 18.1104 26.3005 18.72 26.3005H28.893ZM31.7871 35.0905V4.9095C31.7871 4.55606 31.5208 4.23847 31.4081 4.1975L9.54582 4.20262C9.4741 4.23847 9.20774 4.55606 9.20774 4.9095V35.0905C9.20774 35.4644 9.44849 35.7564 9.55606 35.7974H31.4542C31.5361 35.7718 31.7871 35.49 31.7871 35.0905ZM31.4542 2C32.786 2 34 3.38816 34 4.9095V35.0905C34 36.6682 32.8321 38 31.4542 38H9.54582C8.16278 38 7 36.6682 7 35.0905V4.9095C7 3.38816 8.214 2 9.54582 2H31.4542Z" fill="#86888C"/>
</svg>
