<svg width="28" height="28" viewBox="0 0 28 28" fill="none" xmlns="http://www.w3.org/2000/svg">
<path fill-rule="evenodd" clip-rule="evenodd" d="M13.9966 24.5282C20.9835 24.5282 24.5282 20.9869 24.5282 14.0034C24.5282 7.01651 20.9869 3.47183 13.9966 3.47183C7.01309 3.47183 3.47183 7.01651 3.47183 14.0034C3.47183 20.9869 7.01309 24.5282 13.9966 24.5282ZM13.9966 2C21.8475 2 26 6.14912 26 14.0034C26 21.8509 21.8509 26 13.9966 26C6.14912 26 2 21.8509 2 14.0034C2 6.14912 6.14912 2 13.9966 2ZM14.0512 4.48947C14.4576 4.48947 14.7888 4.82072 14.7888 5.22709V8.9152C14.7888 9.32157 14.461 9.65282 14.0512 9.65282C13.6414 9.65282 13.3136 9.32499 13.3136 8.9152V5.22709C13.317 4.82072 13.6448 4.48947 14.0512 4.48947ZM9.6494 13.9488C9.6494 14.3552 9.31816 14.6864 8.91178 14.6864H5.22368C4.8173 14.6864 4.48606 14.3586 4.48606 13.9488C4.48606 13.539 4.81389 13.2112 5.22368 13.2112H8.91178C9.32157 13.2146 9.6494 13.5424 9.6494 13.9488ZM9.84747 17.0393C10.1343 16.7524 10.6022 16.7524 10.889 17.0393C11.1759 17.3261 11.1759 17.794 10.889 18.0808L8.28344 20.6864C7.99658 20.9732 7.53216 20.9732 7.2453 20.6898L7.24189 20.6864C6.95504 20.3995 6.95504 19.9317 7.24189 19.6448L9.84747 17.0393ZM13.9488 18.3506C14.3552 18.3506 14.683 18.6818 14.683 19.0882V22.7729C14.6693 23.1793 14.3278 23.4969 13.9215 23.4798C13.5356 23.4661 13.2282 23.1554 13.2146 22.7729V19.0882C13.2146 18.6818 13.5424 18.3506 13.9488 18.3506ZM18.0808 17.1144L20.6864 19.72C20.963 20.0205 20.9425 20.4849 20.6454 20.7615C20.362 21.0211 19.9283 21.0211 19.6483 20.7615L17.0393 18.1525C16.7388 17.8759 16.7217 17.4115 16.9983 17.111C17.2749 16.8105 17.7393 16.7934 18.0398 17.07C18.0535 17.0837 18.0672 17.1007 18.0808 17.1144ZM22.7729 13.317C23.1793 13.3307 23.4969 13.6722 23.4798 14.0785C23.4661 14.4644 23.1554 14.7718 22.7729 14.7854H19.0848C18.6784 14.7718 18.3608 14.4303 18.3779 14.0239C18.3916 13.638 18.7023 13.3307 19.0848 13.317H22.7729ZM17.6335 11.1759C17.2271 11.1759 16.8993 10.848 16.8958 10.4417C16.8958 10.247 16.9744 10.0558 17.111 9.91918L19.7166 7.31019C20.0034 7.02334 20.4713 7.02334 20.7581 7.31019C21.045 7.59704 21.045 8.06147 20.7581 8.35174L18.1525 10.9607C18.0159 11.0973 17.8281 11.1759 17.6335 11.1759Z" fill="#86888C"/>
</svg>
