<svg width="28" height="28" viewBox="0 0 28 28" fill="none" xmlns="http://www.w3.org/2000/svg">
<path fill-rule="evenodd" clip-rule="evenodd" d="M13.4861 3.46841C8.96133 3.46841 6.46162 6.00228 6.44796 10.6056C6.4343 14.6966 11.304 21.6767 13.4656 24.1833C15.4326 21.8884 20.5379 14.9357 20.5515 10.65C20.5652 6.03301 18.0689 3.48549 13.5202 3.46841H13.4861ZM13.469 26C13.2778 26 13.09 25.9215 12.9568 25.7849C11.3347 24.1389 4.98296 15.8406 5.00003 10.6022C5.01711 5.21343 8.18956 2 13.4861 2H13.5237C18.8441 2.01707 22.0131 5.251 21.9961 10.6534C21.9824 16.2743 14.9784 24.774 13.9813 25.7849C13.8447 25.9215 13.6603 26 13.469 26ZM13.4998 8.36198C12.3353 8.36198 11.765 8.9391 11.765 10.1207C11.765 11.3056 12.3319 11.8828 13.4998 11.8828C14.6677 11.8828 15.2345 11.3056 15.2345 10.1241C15.2345 8.9391 14.6642 8.3654 13.4998 8.36198ZM13.4998 13.3546C11.5362 13.3546 10.3171 12.115 10.3171 10.1241C10.3171 8.13318 11.5362 6.89357 13.4998 6.89357C15.4633 6.89357 16.6824 8.13318 16.6824 10.1241C16.6824 12.115 15.4633 13.3546 13.4998 13.3546Z" fill="#86888C"/>
</svg>
