<svg width="28" height="28" viewBox="0 0 28 28" fill="none" xmlns="http://www.w3.org/2000/svg">
<path fill-rule="evenodd" clip-rule="evenodd" d="M24.046 20.3511C23.8692 20.5601 23.506 20.6083 23.236 20.6147C21.5004 20.6436 5.15007 20.6115 4.97008 20.6147C4.84151 20.5986 4.72259 20.544 4.62938 20.4572C4.42367 20.2579 4.38189 19.8883 4.38189 19.6151V9.61912L12.2212 14.5464C12.2694 14.5818 13.0504 15.1346 14.1272 15.1346C14.6671 15.1346 15.2843 14.9932 15.9207 14.5785L24.2003 9.5902L24.1874 19.6151L24.1971 19.7244C24.1939 19.7276 24.2485 20.1165 24.046 20.3511ZM4.98293 7.37244L23.6442 7.37565C23.6603 7.37565 24.0364 7.38851 24.1617 8.00884L15.1814 13.4215C14.0725 14.1446 13.0761 13.4665 13.0022 13.4118L4.4076 8.00884C4.43653 7.82242 4.4976 7.61671 4.61331 7.49458C4.67116 7.43994 4.76437 7.37244 4.98293 7.37244ZM25.5695 19.5701L25.5856 8.35275C25.5342 6.38891 24.181 5.97107 23.6282 6.00321L4.98615 6C4.43331 6 3.95441 6.19285 3.60728 6.55926C2.95159 7.24709 2.99659 8.29168 3.00302 8.36882V19.6119C3.00302 20.3929 3.2248 21.0068 3.66513 21.4343C4.22761 21.9807 4.93151 22 4.98615 21.9839C5.4297 21.9839 12.4655 22 17.7141 22C20.4301 22 22.6671 21.9968 23.2618 21.9839C24.2839 21.9679 24.8367 21.5564 25.1195 21.219C25.6402 20.589 25.6017 19.8176 25.5695 19.5701Z" fill="#86888C"/>
</svg>
