<svg width="24" height="24" viewBox="0 0 24 24" fill="none" xmlns="http://www.w3.org/2000/svg">
<path fill-rule="evenodd" clip-rule="evenodd" d="M20.7278 19.8625L17.4575 19.3246V3.39177L20.7278 3.9297V19.8625ZM3.28077 3.93255L6.7474 3.38608V19.3218L3.28077 19.8711V3.93255ZM12.6418 4.60709L16.1796 3.50562V19.3986L12.6418 20.5001V4.60709ZM8.02248 3.51701L11.3667 4.60139V20.4858L8.02248 19.4015V3.51701ZM21.4706 2.75708L16.9224 2.00854C16.9082 2.00569 16.8911 2.01138 16.8769 2.01138C16.857 2.00854 16.8399 2 16.82 2C16.7773 2 16.7403 2.01423 16.7004 2.02277C16.6777 2.02846 16.6521 2.01992 16.6293 2.02846L12.0071 3.46577L7.58133 2.03131C7.55571 2.02277 7.53294 2.03131 7.50733 2.02562C7.46464 2.01708 7.42764 2 7.3821 2C7.36217 2 7.3451 2.00854 7.32802 2.01138C7.31379 2.01423 7.29956 2.00569 7.28248 2.00854L2.53793 2.75708C2.22769 2.80546 2 3.07585 2 3.38893V20.6139C2 20.8018 2.08254 20.9782 2.22485 21.0978C2.36716 21.2202 2.555 21.2714 2.74 21.2429L7.33371 20.5171L11.8079 21.9687C11.8705 21.9886 11.9388 22 12.0043 22C12.0669 22 12.1323 21.9886 12.195 21.9715L16.8655 20.5171L21.2628 21.2429C21.4478 21.2714 21.6357 21.2201 21.7808 21.1006C21.9232 20.9782 22.0057 20.8018 22.0057 20.6139V3.38608C22.0057 3.073 21.778 2.80831 21.4706 2.75708Z" fill="#86888C"/>
</svg>
