<svg width="24" height="24" viewBox="0 0 24 24" fill="none" xmlns="http://www.w3.org/2000/svg">
<path fill-rule="evenodd" clip-rule="evenodd" d="M14.8091 16.169V15.1474H13.1387C12.7943 15.1474 12.5154 14.8714 12.5126 14.527V12.8765H11.4853V14.5299C11.4853 14.8714 11.2064 15.1503 10.8592 15.1503H9.19159V16.1662H10.8592C11.2035 16.1662 11.4853 16.4451 11.4853 16.7866V18.4371H12.5183L12.5126 16.7894C12.5154 16.4451 12.7943 16.169 13.1387 16.169H14.8091ZM14.94 13.9095C15.5462 13.9095 16.0584 14.3819 16.0584 14.9454V16.3711C16.0584 16.9317 15.5462 17.4069 14.94 17.4069H13.7647L13.7676 18.5709C13.7676 19.1713 13.2895 19.675 12.7203 19.675H11.2775C10.7112 19.675 10.2331 19.1713 10.2331 18.5709V17.4069H9.05784C8.44316 17.4069 7.94231 16.9431 7.94231 16.3711V14.9482C7.94231 14.3876 8.4517 13.9124 9.05784 13.9124H10.236V12.7456C10.236 12.1451 10.7141 11.6386 11.2832 11.6386H12.7203C13.2866 11.6386 13.7647 12.1451 13.7647 12.7456V13.9095H14.94ZM18.6196 20.7621C20.7482 20.7621 20.7482 18.9266 20.7482 18.3233V10.6966H3.25249V18.3404C3.25249 18.3688 3.25249 18.3973 3.24965 18.4257C3.24965 18.4257 3.20411 19.4787 3.83587 20.136C4.2229 20.5401 4.84612 20.745 5.67708 20.745H18.298C18.3492 20.745 18.4005 20.7479 18.4517 20.7564C18.4631 20.7564 18.5285 20.7621 18.6196 20.7621ZM4.1176 5.75925C3.90417 5.893 3.25249 6.30279 3.25249 7.80535V9.45874H20.7454V7.82527C20.7454 7.79397 20.7454 7.75982 20.7482 7.72851C20.7482 7.72851 20.8023 6.68697 20.1791 6.0296C19.7864 5.61696 19.1546 5.40922 18.2952 5.40922H17.1284V5.59135C17.1284 5.93284 16.8495 6.20888 16.5023 6.20888C16.158 6.20888 15.8791 5.93284 15.8763 5.59135V5.40922L8.12443 5.41491V5.59419C8.12443 5.93569 7.84555 6.21172 7.49837 6.21172C7.15403 6.21172 6.87514 5.93569 6.8723 5.59419V5.41491C6.12102 5.41491 5.66285 5.41776 5.66285 5.41776C5.62586 5.41776 5.58886 5.41491 5.55187 5.41207C5.54902 5.41207 5.51487 5.40922 5.46365 5.40922C5.2303 5.40637 4.62415 5.44052 4.1176 5.75925ZM18.298 4.16847C22.2878 4.16847 21.9947 7.82242 21.9947 7.82242L21.9975 18.3233C21.9975 21.6955 19.516 22 18.6196 22C18.4232 22 18.3009 21.9829 18.3009 21.9829H5.67993C1.75278 21.9829 2.0032 18.3404 2.0032 18.3404V7.8025C2.0032 4.41036 4.70098 4.16847 5.46649 4.16847C5.59455 4.16847 5.6657 4.17416 5.6657 4.17416L6.87514 4.17131V2.62038C6.87514 2.27888 7.15403 2 7.50121 2C7.84839 2 8.12728 2.27604 8.12728 2.62038V4.17416L15.882 4.16847V2.62038C15.882 2.27888 16.1609 2 16.508 2C16.8552 2 17.1341 2.27604 17.1341 2.62038V4.17131H18.298V4.16847Z" fill="#86888C"/>
</svg>
