<svg width="28" height="28" viewBox="0 0 28 28" fill="none" xmlns="http://www.w3.org/2000/svg">
<path fill-rule="evenodd" clip-rule="evenodd" d="M16.9893 18.4507C21.9471 18.4507 24.4703 15.9411 24.4703 10.997C24.4703 6.03927 21.9471 3.52283 16.9927 3.52283C13.7047 3.52283 11.4853 4.63252 10.3653 6.8041H11.6184C12.8306 6.8041 13.7251 7.11822 14.3773 7.77038C15.0158 8.41912 15.3333 9.3137 15.3333 10.5224V18.3449C15.8626 18.4097 16.3986 18.4507 16.9893 18.4507ZM13.8037 22.2817V10.519C13.8037 9.7405 13.6398 9.19078 13.2949 8.84592C12.9501 8.50107 12.4003 8.32693 11.615 8.32693H5.7149C4.93982 8.32693 4.40376 8.49765 4.04524 8.85617C3.69014 9.21127 3.52625 9.75758 3.52625 10.519V22.2817C3.52625 23.0636 3.69014 23.6201 4.04524 23.9684C4.3901 24.303 4.93982 24.4772 5.7149 24.4772H11.6184C12.3935 24.4772 12.9398 24.303 13.2881 23.9684C13.6432 23.6201 13.8037 23.0636 13.8037 22.2817ZM16.9893 2C22.7904 2 25.9966 5.19932 25.9966 10.997C25.9966 16.7845 22.7904 19.9735 16.9893 19.9735C16.4089 19.9735 15.8592 19.9326 15.3299 19.8711V22.2817C15.3299 23.5006 15.0158 24.4021 14.3636 25.044C13.7251 25.6825 12.8169 26 11.615 26H5.7149C4.51302 26 3.61844 25.6859 2.96628 25.044C2.31754 24.4021 2 23.5006 2 22.2817V10.519C2 9.33077 2.31754 8.43961 2.95604 7.79087C3.61502 7.13188 4.51302 6.8041 5.7149 6.8041H8.70593C9.94878 3.67648 12.7998 2 16.9893 2ZM8.66496 21.1379C9.2898 21.1379 9.66197 21.5134 9.66197 22.1383C9.66197 22.4456 9.57661 22.688 9.40248 22.8656C9.22834 23.0431 8.97226 23.1387 8.66496 23.1387C8.35766 23.1387 8.10158 23.0431 7.92744 22.8656C7.75331 22.688 7.66795 22.4456 7.66795 22.1383C7.66795 21.51 8.04012 21.1379 8.66496 21.1379ZM19.2394 14.2885L16.7025 11.7584C16.5591 11.615 16.4772 11.4238 16.4772 11.219V7.79087C16.4772 7.37089 16.8186 7.02603 17.242 7.02603C17.662 7.02603 18.0068 7.36748 18.0068 7.79087V10.9048L20.3218 13.213C20.6189 13.5066 20.6223 13.988 20.3286 14.2885C20.1852 14.4353 19.9872 14.5173 19.7823 14.5139C19.5775 14.5105 19.3828 14.4319 19.2394 14.2885Z" fill="#86888C"/>
</svg>
