<svg width="40" height="40" viewBox="0 0 40 40" fill="none" xmlns="http://www.w3.org/2000/svg">
<path fill-rule="evenodd" clip-rule="evenodd" d="M24.484 26.93C31.9206 26.93 35.7055 23.1656 35.7055 15.7494C35.7055 8.3128 31.9206 4.53816 24.4891 4.53816C19.557 4.53816 16.2279 6.20269 14.548 9.46005H16.4277C18.2458 9.46005 19.5877 9.93124 20.5659 10.9095C21.5237 11.8826 22 13.2245 22 15.0375V26.7712C22.7939 26.8685 23.5979 26.93 24.484 26.93ZM19.7055 32.6764V15.0324C19.7055 13.8647 19.4597 13.0401 18.9424 12.5228C18.4251 12.0055 17.6005 11.7443 16.4225 11.7443H7.57234C6.40973 11.7443 5.60563 12.0004 5.06786 12.5382C4.53521 13.0708 4.28937 13.8903 4.28937 15.0324V32.6764C4.28937 33.8493 4.53521 34.6841 5.06786 35.2065C5.58515 35.7085 6.40973 35.9697 7.57234 35.9697H16.4277C17.5903 35.9697 18.4097 35.7085 18.9321 35.2065C19.4648 34.6841 19.7055 33.8493 19.7055 32.6764ZM24.484 2.25391C33.1857 2.25391 37.9949 7.05288 37.9949 15.7494C37.9949 24.4306 33.1857 29.2142 24.484 29.2142C23.6133 29.2142 22.7887 29.1528 21.9949 29.0606V32.6764C21.9949 34.5049 21.5237 35.857 20.5455 36.8198C19.5877 37.7776 18.2254 38.2539 16.4225 38.2539H7.57234C5.76953 38.2539 4.42766 37.7827 3.44942 36.8198C2.47631 35.857 2 34.5049 2 32.6764V15.0324C2 13.2501 2.47631 11.9133 3.43406 10.9402C4.42253 9.95173 5.76953 9.46005 7.57234 9.46005H12.0589C13.9232 4.76863 18.1997 2.25391 24.484 2.25391ZM11.9974 30.9607C12.9347 30.9607 13.493 31.5241 13.493 32.4613C13.493 32.9223 13.3649 33.2859 13.1037 33.5522C12.8425 33.8186 12.4584 33.962 11.9974 33.962C11.5365 33.962 11.1524 33.8186 10.8912 33.5522C10.63 33.2859 10.5019 32.9223 10.5019 32.4613C10.5019 31.5189 11.0602 30.9607 11.9974 30.9607ZM27.8592 20.6867L24.0538 16.8915C23.8387 16.6764 23.7157 16.3896 23.7157 16.0823V10.9402C23.7157 10.3102 24.2279 9.79296 24.863 9.79296C25.493 9.79296 26.0102 10.3051 26.0102 10.9402V15.6111L29.4827 19.0734C29.9283 19.5138 29.9334 20.236 29.493 20.6867C29.2778 20.9069 28.9808 21.0298 28.6735 21.0247C28.3662 21.0196 28.0743 20.9018 27.8592 20.6867Z" fill="#86888C"/>
</svg>
