<svg width="24" height="24" viewBox="0 0 24 24" fill="none" xmlns="http://www.w3.org/2000/svg">
<path fill-rule="evenodd" clip-rule="evenodd" d="M17.0504 20.7082L16.8085 20.7111C16.009 20.6997 14.6716 20.3952 14.6716 18.4718C14.6716 16.5568 15.9919 16.2581 16.7801 16.2495L17.039 16.2524C17.8442 16.2723 19.1958 16.5881 19.1958 18.486C19.1929 20.3867 17.8528 20.694 17.0504 20.7082ZM10.1248 4.85674V3.36577L19.1929 5.79001V7.28098L10.1248 4.85674ZM6.68758 16.4942C6.6136 16.4971 6.52824 16.4971 6.44288 16.4942C5.64333 16.4829 4.30602 16.1756 4.30602 14.2549C4.30602 12.3372 5.63195 12.0384 6.42012 12.0327L6.67335 12.0356C7.46436 12.0526 8.77892 12.3685 8.8216 14.1895V14.3545C8.77892 16.1727 7.47574 16.4772 6.68758 16.4942ZM20.4989 5.6136C20.4989 5.05591 20.0636 4.59496 19.5116 4.5409L10.0849 2.02276L9.91421 2C9.311 2 8.8216 2.48371 8.8216 3.07839V11.4409C8.18993 10.9828 7.42453 10.7665 6.70181 10.7495C6.61076 10.7466 6.49979 10.7466 6.40589 10.7466C4.83525 10.758 3 11.6856 3 14.2549C3 16.8215 4.84379 17.7576 6.42012 17.7803H6.71034C8.22407 17.7519 9.95974 16.8755 10.1049 14.5679H10.1248V14.3545C10.1248 14.3261 10.1333 14.3005 10.1333 14.272C10.1333 14.2436 10.1248 14.2208 10.1248 14.1923V6.19121L19.1929 8.61545V15.6634C18.5584 15.2024 17.7902 14.9834 17.0674 14.9663L16.7715 14.9634C15.2009 14.9748 13.3656 15.9024 13.3656 18.4718C13.3656 21.0383 15.2094 21.9772 16.7914 22H16.8711L17.076 21.9972C18.6551 21.9687 20.4961 21.0326 20.4961 18.4888C20.4961 18.4376 20.4847 18.3978 20.4819 18.3494H20.4961V5.6136H20.4989Z" fill="#86888C"/>
</svg>
