<svg width="21" height="20" viewBox="0 0 21 20" fill="none" xmlns="http://www.w3.org/2000/svg">
<path fill-rule="evenodd" clip-rule="evenodd" d="M5.34213 14.6583H16.6148C15.4334 12.9579 15.5586 10.6771 15.5654 10.5655V7.50841C15.5654 6.01058 15.1443 4.86104 14.3179 4.09619C12.9908 2.86697 11.0308 2.98534 11.0103 2.98534C10.9967 2.98534 10.9921 2.97851 10.9762 2.97851C10.9648 2.97851 10.9511 2.98534 10.9443 2.98534C10.8191 2.97851 8.08745 2.82828 6.91966 5.03631C7.87575 5.07046 11.1173 5.48247 11.1173 9.45011C11.1173 13.5088 7.72323 13.8298 6.87414 13.8411H6.46439C6.31414 13.8411 6.08878 13.8275 5.82472 13.7888C5.68814 14.1098 5.52196 14.3966 5.34213 14.6583ZM12.1144 16.6046C12.3716 16.3178 12.4581 15.924 12.4786 15.6372H9.47377C9.50109 15.924 9.58076 16.3246 9.84482 16.6114C10.0884 16.8869 10.4572 17.0166 10.9807 17.0166C11.4952 17.0166 11.864 16.8869 12.1144 16.6046ZM3.21826 9.4228C3.21826 12.3775 5.26473 12.8487 6.48487 12.8601H6.85592C8.0829 12.8418 10.1294 12.3638 10.1294 9.44784C10.1294 6.52731 8.06469 6.04245 6.83544 6.01058H6.44617C5.23741 6.01741 3.21826 6.47495 3.21826 9.4228ZM18.0489 14.7699C18.2083 14.8996 18.2675 15.1227 18.2014 15.3208C18.1286 15.5165 17.9419 15.644 17.7325 15.6417H13.4734C13.4415 16.0856 13.3163 16.7457 12.8542 17.2625C12.4126 17.7519 11.7775 18 10.9807 18C10.1749 18 9.54206 17.7519 9.10044 17.2625C8.63834 16.7457 8.51313 16.0856 8.48582 15.6417H4.22897C4.01954 15.6463 3.83288 15.5165 3.76004 15.3208C3.68719 15.125 3.74638 14.9019 3.91028 14.7722C4.28588 14.4717 4.59775 14.0528 4.84132 13.5566C3.61435 13.115 2.22803 12.0497 2.22803 9.4228C2.22803 6.01058 4.53856 5.23891 5.81789 5.07729C7.06535 1.92002 10.637 1.98376 10.9807 2.00425C11.2835 1.99059 13.4301 1.9314 14.9872 3.37004C16.0298 4.33065 16.5579 5.72376 16.5579 7.50841V10.5997C16.5579 10.6497 16.4054 13.4405 18.0489 14.7699ZM7.16551 11.6263C7.16324 11.8972 6.94243 12.118 6.66926 12.1157C6.39837 12.1157 6.17756 11.8972 6.17528 11.6263V9.91448H4.45661C4.18344 9.91448 3.96264 9.69596 3.96264 9.4228C3.96264 9.15191 4.18344 8.93339 4.45661 8.93339H6.17756V7.24663C6.17984 6.97575 6.40065 6.75494 6.67154 6.75722C6.9447 6.75722 7.16779 6.97575 7.16779 7.24663V8.93339H8.89102C9.16418 8.93339 9.38499 9.15419 9.38499 9.42507C9.38272 9.69596 9.16191 9.91676 8.89102 9.91676H7.16779V11.6263H7.16551Z" fill="#86888C"/>
</svg>
