<svg width="20" height="20" viewBox="0 0 20 20" fill="none" xmlns="http://www.w3.org/2000/svg">
<path fill-rule="evenodd" clip-rule="evenodd" d="M16.033 6.07251L14.863 6.0543L15.555 5.36233L16.5497 5.37371L16.033 6.07251ZM10.9092 11.7426C10.9092 13.2882 10.4995 14.3262 8.50321 14.3626L8.18454 14.3671L8.03431 14.3648C6.0426 14.3353 5.63515 13.2814 5.63515 11.7062C5.63515 10.1493 6.03122 9.10674 7.96374 9.08853C8.01382 9.08853 8.32567 9.0908 8.44403 9.09308C9.15877 9.10901 9.67092 9.25014 10.0419 9.49142L8.33932 11.1918L8.30746 10.8276C8.28469 10.559 8.05935 10.3632 7.77709 10.3837C7.5085 10.4065 7.31046 10.6432 7.33323 10.9118L7.45614 12.3208C7.4607 12.3686 7.47208 12.4141 7.49029 12.4574L7.49712 12.471C7.5176 12.5188 7.54492 12.5598 7.57906 12.5985C7.59044 12.6121 7.60182 12.6235 7.61548 12.6326C7.64735 12.6622 7.68149 12.685 7.72019 12.7055C7.73384 12.7123 7.74523 12.7214 7.75888 12.726C7.76571 12.7282 7.77026 12.7328 7.77709 12.7351C7.81807 12.751 7.86131 12.7533 7.90456 12.7578C7.91594 12.7578 7.92505 12.7647 7.93643 12.7647L9.51386 12.792H9.52297C9.78929 12.792 10.0078 12.578 10.0124 12.3117C10.0169 12.0431 9.80294 11.82 9.53207 11.8155L9.10414 11.8086L10.6725 10.2403C10.85 10.6546 10.9092 11.1622 10.9092 11.7426ZM13.5678 11.7426C13.5678 16.4226 10.0533 16.9916 8.54191 17.0212C8.43493 17.0235 8.31201 17.0235 8.18909 17.0235L8.00016 17.0212C6.49102 17.0007 2.97878 16.4385 2.97878 11.7039C2.97878 6.98073 6.45687 6.43899 7.95236 6.4276H8.07073C8.22096 6.4276 8.37574 6.42988 8.51232 6.43443C9.35225 6.45492 10.8022 6.6484 11.9358 7.59759L10.7408 8.79262C10.2377 8.40793 9.51386 8.13934 8.46907 8.11657C8.33932 8.11202 7.96602 8.10974 7.96602 8.10974C4.66092 8.13934 4.66092 10.823 4.66092 11.7039C4.66092 12.5917 4.66092 15.2913 8.02293 15.3391L8.17771 15.3414L8.51459 15.3368C11.888 15.2776 11.888 12.6167 11.888 11.7403C11.888 11.2805 11.8834 10.3336 11.394 9.52101L12.6027 8.31233C13.1741 9.09536 13.5678 10.1902 13.5678 11.7426ZM14.0481 4.1286L14.7583 3.53451V4.77506L14.0982 5.43516L14.0481 4.1286ZM17.9473 4.6749C17.8654 4.51101 17.6992 4.40631 17.5148 4.40403L16.4473 4.39265C16.5042 4.22193 16.47 4.02617 16.3335 3.8896C16.1696 3.72799 15.9237 3.71205 15.7371 3.82814V2.48971C15.7371 2.30078 15.6278 2.12779 15.4548 2.04585C15.2864 1.96618 15.0815 1.99122 14.9359 2.11413L13.2401 3.52995C13.124 3.62556 13.058 3.77123 13.0648 3.92374L13.1604 6.37297L12.6232 6.91017C11.1482 5.65141 9.24754 5.47386 8.53508 5.45793C8.39395 5.45337 8.23006 5.4511 8.07073 5.4511H7.94098C6.68222 5.46248 2 5.89496 2 11.7039C2 17.5243 6.72547 17.9795 7.98651 17.9977C8.05252 18 8.1208 18 8.18909 18C8.31884 18 8.44858 17.9977 8.56012 17.9954C9.75742 17.975 14.5466 17.5243 14.5466 11.7426C14.5466 9.85562 14.0299 8.54223 13.2992 7.6158L13.9025 7.0126L16.2697 7.05129H16.2766C16.4314 7.05129 16.577 6.97845 16.6704 6.85326L17.9018 5.1825C18.0111 5.03455 18.027 4.83879 17.9473 4.6749Z" fill="#86888C"/>
</svg>
