<svg width="20" height="20" viewBox="0 0 20 20" fill="none" xmlns="http://www.w3.org/2000/svg">
<path d="M8.84375 18.0004C7.39308 18.0004 6.26354 17.6187 5.48431 16.8686C4.67364 16.0871 4.2627 14.9262 4.2627 13.4194V9.8623C4.2627 8.3555 4.67364 7.19451 5.48431 6.41304C6.26354 5.66076 7.39533 5.28125 8.84375 5.28125C10.2922 5.28125 11.424 5.663 12.2032 6.41304C13.0139 7.19227 13.4248 8.35325 13.4248 9.8623V11.3848C13.4248 11.6318 13.2227 11.834 12.9757 11.834C12.7287 11.834 12.5266 11.6318 12.5266 11.3848V9.8623C12.5266 8.60701 12.2077 7.66609 11.5812 7.05978C10.9748 6.47592 10.0541 6.1795 8.84375 6.1795C7.63336 6.1795 6.71266 6.47592 6.10634 7.05978C5.47982 7.66609 5.16094 8.60701 5.16094 9.8623V13.4194C5.16094 14.6747 5.47982 15.6156 6.10634 16.2219C6.71266 16.8057 7.63336 17.1022 8.84375 17.1022C9.76894 17.1022 10.5302 16.927 11.1051 16.5834C11.3184 16.4577 11.5946 16.5318 11.7181 16.7451C11.8416 16.9562 11.772 17.2257 11.5654 17.3537C10.8491 17.7848 9.93287 18.0004 8.84375 18.0004Z" fill="#86888C"/>
<path d="M8.84379 9.92702C8.59677 9.92702 8.39467 9.72491 8.39467 9.47789V7.48603C8.39467 7.23902 8.59677 7.03691 8.84379 7.03691C9.09081 7.03691 9.29291 7.23902 9.29291 7.48603V9.47789C9.29291 9.72491 9.09081 9.92702 8.84379 9.92702ZM8.83032 6.04884C8.5833 6.04884 8.38119 5.84674 8.38119 5.59972V4.98442C8.38119 4.68126 8.38119 4.11986 7.07874 4.11986H6.19396C5.42147 4.11986 4.91846 4.00533 4.56589 3.75158C4.18639 3.47537 4 3.05095 4 2.44912C4 2.20211 4.20211 2 4.44912 2C4.69614 2 4.89825 2.20211 4.89825 2.44912C4.89825 2.88253 4.89825 3.22386 6.19172 3.22386H7.07649C7.81754 3.22386 8.35874 3.37881 8.73375 3.69544C9.09305 3.9986 9.27719 4.43425 9.27719 4.98667V5.60196C9.27719 5.84898 9.07733 6.04884 8.83032 6.04884ZM8.84379 11.4316C7.44028 11.4338 6.03902 11.3373 4.64898 11.1441C4.40421 11.1105 4.2313 10.8814 4.26723 10.6366C4.30091 10.3919 4.52996 10.2189 4.77474 10.2549C6.12435 10.4413 7.48295 10.5356 8.84379 10.5333C10.2046 10.5356 11.5655 10.4435 12.9151 10.2549C13.1599 10.2212 13.3889 10.3919 13.4226 10.6366C13.4563 10.8814 13.2856 11.1105 13.0408 11.1441C11.6486 11.3395 10.2473 11.4338 8.84379 11.4316Z" fill="#86888C"/>
<path d="M12.998 17.8876C12.6701 17.8876 12.5017 17.5822 12.367 17.3374C12.3423 17.2925 12.3064 17.2274 12.2749 17.178C12.221 17.2072 12.1537 17.2476 12.1065 17.2746C11.8707 17.416 11.5788 17.5934 11.2981 17.4318C11.0174 17.2701 11.0241 16.9242 11.0308 16.6458C11.0308 16.5919 11.0331 16.5155 11.0308 16.4549C10.9702 16.4527 10.8939 16.4549 10.84 16.4549C10.5615 16.4616 10.2179 16.4684 10.054 16.1877C9.89007 15.907 10.0697 15.615 10.2112 15.3793C10.2404 15.3321 10.2808 15.2647 10.3078 15.2108C10.2584 15.1794 10.1932 15.1435 10.1483 15.1188C9.90355 14.984 9.59814 14.8156 9.59814 14.4878C9.59814 14.1599 9.90355 13.9915 10.1483 13.8567C10.1932 13.832 10.2584 13.7961 10.3078 13.7647C10.2786 13.7108 10.2381 13.6434 10.2112 13.5962C10.0697 13.3605 9.89232 13.0685 10.054 12.7878C10.2157 12.5071 10.5615 12.5139 10.84 12.5206C10.8939 12.5206 10.9702 12.5228 11.0308 12.5206C11.0331 12.46 11.0308 12.3836 11.0308 12.3297C11.0241 12.0535 11.0174 11.7077 11.2981 11.5438C11.5788 11.3798 11.8707 11.5595 12.1065 11.7009C12.1537 11.7301 12.221 11.7706 12.2749 11.7975C12.3064 11.7481 12.3423 11.683 12.367 11.6381C12.5017 11.3933 12.6701 11.0879 12.998 11.0879C13.3259 11.0879 13.4943 11.3933 13.629 11.6381C13.6537 11.683 13.6897 11.7481 13.7211 11.7975C13.775 11.7683 13.8424 11.7279 13.8895 11.7009C14.1253 11.5595 14.4172 11.3821 14.6979 11.5438C14.9786 11.7054 14.9719 12.0513 14.9652 12.3297C14.9652 12.3836 14.9629 12.46 14.9652 12.5206C15.0258 12.5228 15.1021 12.5206 15.156 12.5206C15.4323 12.5139 15.7781 12.5071 15.942 12.7878C16.1059 13.0685 15.9263 13.3605 15.7848 13.5962C15.7556 13.6434 15.7152 13.7108 15.6883 13.7647C15.7377 13.7961 15.8028 13.832 15.8477 13.8567C16.0925 13.9915 16.3979 14.1599 16.3979 14.4878C16.3979 14.8156 16.0925 14.984 15.8477 15.1188C15.8028 15.1435 15.7377 15.1794 15.6883 15.2108C15.7174 15.2647 15.7579 15.3321 15.7848 15.3793C15.9263 15.615 16.1037 15.907 15.942 16.1877C15.7803 16.4684 15.4345 16.4616 15.156 16.4549C15.1021 16.4549 15.0258 16.4527 14.9652 16.4549C14.9629 16.5155 14.9652 16.5919 14.9652 16.6458C14.9719 16.922 14.9786 17.2678 14.6979 17.4318C14.4172 17.5957 14.1253 17.416 13.8895 17.2746C13.8424 17.2454 13.775 17.2049 13.7211 17.178C13.6897 17.2274 13.6537 17.2925 13.629 17.3374C13.4943 17.5822 13.3259 17.8876 12.998 17.8876ZM15.0325 13.9466C14.9786 13.7422 15.421 13.3313 15.3155 13.1539C15.2099 12.9765 14.6328 13.1516 14.4868 13.0034C14.3409 12.8552 14.5183 12.2781 14.3364 12.1748C14.1545 12.0715 13.748 12.5139 13.5437 12.4577C13.3461 12.4038 13.2113 11.8155 12.998 11.8155C12.7847 11.8155 12.6499 12.4038 12.4523 12.4577C12.248 12.5116 11.837 12.0692 11.6596 12.1748C11.4822 12.2803 11.6574 12.8574 11.5092 13.0034C11.361 13.1494 10.7838 12.972 10.6805 13.1539C10.5772 13.3358 11.0196 13.7445 10.9635 13.9466C10.9096 14.1442 10.3212 14.2789 10.3212 14.4922C10.3212 14.7056 10.9096 14.8403 10.9635 15.0379C11.0174 15.2423 10.575 15.6532 10.6805 15.8306C10.7861 16.008 11.3632 15.8329 11.5092 15.9811C11.6551 16.1293 11.4777 16.7064 11.6596 16.8097C11.8415 16.913 12.248 16.4706 12.4523 16.5268C12.6499 16.5784 12.7847 17.169 12.998 17.169C13.2113 17.169 13.3461 16.5807 13.5437 16.5268C13.748 16.4729 14.159 16.9153 14.3364 16.8097C14.5138 16.7042 14.3386 16.127 14.4868 15.9811C14.6351 15.8351 15.2122 16.0103 15.3155 15.8306C15.4188 15.651 14.9764 15.2423 15.0325 15.0379C15.0842 14.8403 15.6748 14.7056 15.6748 14.4922C15.6748 14.2789 15.0842 14.1442 15.0325 13.9466Z" fill="#86888C"/>
<path d="M12.0687 15.905C11.9452 15.905 11.8441 15.8039 11.8441 15.6804C11.8441 15.631 11.8598 15.5816 11.8913 15.5412L13.7506 13.1653C13.827 13.0687 13.9684 13.0508 14.065 13.1271C14.1616 13.2035 14.1795 13.345 14.1032 13.4415L12.2438 15.8174C12.2034 15.8735 12.1383 15.905 12.0687 15.905ZM12.2326 14.2005C11.871 14.2005 11.6465 13.976 11.6465 13.6144C11.6465 13.2529 11.871 13.0283 12.2326 13.0283C12.5941 13.0283 12.8187 13.2529 12.8187 13.6144C12.8187 13.976 12.5941 14.2005 12.2326 14.2005ZM12.2326 13.4797C12.1203 13.4797 12.0956 13.5021 12.0956 13.6167C12.0956 13.7312 12.1181 13.7537 12.2326 13.7537C12.3471 13.7537 12.3696 13.7312 12.3696 13.6167C12.3696 13.5021 12.3449 13.4797 12.2326 13.4797ZM13.7461 15.9341C13.3846 15.9341 13.16 15.7096 13.16 15.348C13.16 14.9865 13.3846 14.7619 13.7461 14.7619C14.1077 14.7619 14.3322 14.9865 14.3322 15.348C14.3322 15.7096 14.1054 15.9341 13.7461 15.9341ZM13.7461 15.2133C13.6339 15.2133 13.6092 15.2358 13.6092 15.3503C13.6092 15.4648 13.6316 15.4873 13.7461 15.4873C13.8607 15.4873 13.8831 15.4648 13.8831 15.3503C13.8831 15.2358 13.8584 15.2133 13.7461 15.2133Z" fill="#86888C"/>
</svg>
