<svg width="24" height="24" viewBox="0 0 24 24" fill="none" xmlns="http://www.w3.org/2000/svg">
<path fill-rule="evenodd" clip-rule="evenodd" d="M17.3438 13.9095C17.0791 14.1742 16.7575 14.3819 16.4047 14.5583C16.2282 14.6466 16.0518 14.7319 15.8554 14.7974C15.4087 14.9425 14.905 15.025 14.3614 15.045C14.2675 15.0507 14.185 15.0649 14.0882 15.0649H8.92032C8.82641 15.0649 8.74104 15.0478 8.64713 15.045C8.10359 15.0222 7.59989 14.9425 7.1531 14.7974C6.95674 14.7319 6.78031 14.6466 6.60387 14.5583C6.251 14.3819 5.92943 14.177 5.66477 13.9095C5.40581 13.5652 5.26921 13.0899 5.26921 12.4724C5.26921 11.8577 5.40865 11.3825 5.66762 11.0324C6.27661 10.4178 7.14456 10.0507 8.18611 9.93113C8.15196 10.1616 8.1292 10.3978 8.1292 10.654C8.1292 11.7297 8.44223 12.572 9.05692 13.1611C9.64599 13.7245 10.4713 14.012 11.5071 14.012C12.5458 14.012 13.3682 13.7245 13.9573 13.1611C14.572 12.572 14.8822 11.7297 14.8822 10.654C14.8822 10.4007 14.8623 10.1616 14.8281 9.93113C15.8697 10.0535 16.7348 10.4178 17.3466 11.0324C17.6056 11.3796 17.745 11.8577 17.745 12.4724C17.7393 13.0899 17.6027 13.5652 17.3438 13.9095ZM9.39556 16.3227H13.613L13.6101 16.5817C13.6044 17.3187 13.3199 18.5481 11.5043 18.5481C9.68867 18.5481 9.4041 17.3187 9.39841 16.5817L9.39556 16.3227ZM15.6961 16.8179C15.6847 18.0017 15.255 20.7479 11.5043 20.7479C7.75071 20.7479 7.32385 18.0017 7.31246 16.8179L7.30108 16.1434C7.56574 16.2032 7.84178 16.2487 8.12635 16.2772L8.13204 16.5931C8.14627 18.0729 9.03699 19.7974 11.5014 19.8002C13.9687 19.8002 14.8594 18.0757 14.8708 16.5931L14.8765 16.2772C15.1611 16.2487 15.4371 16.2032 15.7018 16.1434L15.6961 16.8179ZM9.31303 3.96927C9.8025 3.49687 10.5424 3.25783 11.5043 3.25783C12.469 3.25783 13.206 3.49972 13.6955 3.96927C14.202 4.45874 14.461 5.21286 14.461 6.21172C14.461 7.02277 14.2817 7.66306 13.9459 8.1383C13.8691 8.24644 13.7894 8.35743 13.6955 8.44849C13.6955 8.44849 13.6528 8.4798 13.5987 8.52817C13.4252 8.61639 13.2886 8.77006 13.2544 8.97496C13.2316 9.11725 13.2686 9.25384 13.3312 9.37052C13.3426 9.4132 13.3569 9.44735 13.3682 9.47012C13.4536 9.63517 13.465 9.67217 13.5162 9.87422C13.576 10.1076 13.613 10.3608 13.613 10.6511C13.613 11.3739 13.4308 11.9118 13.0751 12.2533C12.7279 12.5862 12.1986 12.7541 11.5014 12.7541C10.8042 12.7541 10.2749 12.5862 9.93056 12.2533C9.572 11.9118 9.38987 11.3711 9.38987 10.6511C9.38987 10.3608 9.42971 10.1047 9.48947 9.87422C9.54069 9.67217 9.55492 9.63517 9.63745 9.47012C9.65168 9.44735 9.66306 9.4132 9.67729 9.37052C9.74274 9.25384 9.77689 9.11725 9.75413 8.97496C9.71998 8.77006 9.58338 8.61639 9.40979 8.52817C9.35572 8.4798 9.31303 8.44849 9.31303 8.44849C9.21628 8.35743 9.13944 8.24644 9.06261 8.1383C8.72681 7.66306 8.54752 7.02277 8.54752 6.21172C8.54752 5.21286 8.80364 4.45874 9.31303 3.96927ZM18.28 10.1958C18.2658 10.1787 18.2544 10.1616 18.2373 10.1446C18.1804 10.0763 18.132 10.0393 18.0666 9.97951C18.0154 9.92829 17.9585 9.87422 17.893 9.82869C17.1474 9.21969 16.1969 8.83552 15.0985 8.69038C15.5083 8.03017 15.7217 7.20205 15.7217 6.21172C15.7217 4.85999 15.3347 3.80137 14.572 3.06716C13.8378 2.35857 12.8048 2 11.4986 2C10.1924 2 9.15936 2.35857 8.428 3.06716C7.66534 3.80137 7.27832 4.85999 7.27832 6.21172C7.27832 7.20205 7.4889 8.03017 7.90154 8.69038C6.80307 8.83552 5.85544 9.21969 5.107 9.82869C5.04155 9.87137 4.98463 9.92829 4.93341 9.97951C4.8708 10.0393 4.82242 10.0763 4.76551 10.1446C4.74843 10.1616 4.7399 10.1787 4.72282 10.1958C4.25327 10.7706 4 11.5276 4 12.4724C4 13.4172 4.25327 14.1742 4.72282 14.749L4.76551 14.8002C4.87365 14.9112 4.98748 15.0165 5.107 15.1133C5.38589 15.3438 5.69323 15.5401 6.02618 15.7052L6.04326 16.8293C6.06318 19.3307 7.50882 22 11.4986 22C15.4883 22 16.934 19.3307 16.9539 16.8293L16.971 15.7052C17.3039 15.5373 17.6113 15.3409 17.8902 15.1133C18.0097 15.0165 18.1235 14.9084 18.2316 14.8002L18.2743 14.749C18.7467 14.1742 19 13.4172 19 12.4724C19.0028 11.5276 18.7524 10.7706 18.28 10.1958Z" fill="#86888C"/>
</svg>
