<svg width="28" height="28" viewBox="0 0 28 28" fill="none" xmlns="http://www.w3.org/2000/svg">
<path fill-rule="evenodd" clip-rule="evenodd" d="M20.432 24.5316C20.5788 24.5316 20.6984 24.4121 20.6984 24.2618C20.6984 24.1116 20.5788 23.992 20.432 23.992H9.61013C9.46329 23.992 9.34035 24.115 9.34035 24.2618C9.34035 24.4087 9.45988 24.5316 9.61013 24.5316H20.432ZM6.465 16.3358C6.465 19.1258 7.66363 21.2635 9.93113 22.527H20.1759C22.3751 21.2908 23.543 19.1565 23.543 16.3358C23.543 11.2749 19.4792 9.71087 17.7274 9.27035H17.724C16.8497 9.05521 15.9345 8.94252 14.9989 8.94252C13.9812 8.94252 12.9431 9.08594 11.9562 9.37621C11.9459 9.37962 11.9357 9.37962 11.9254 9.38304C8.95105 10.2743 6.465 12.5282 6.465 16.3358ZM12.4001 4.56801V7.75413C13.2573 7.56972 14.1315 7.47752 14.9989 7.47752C15.7433 7.47752 16.4707 7.56289 17.1844 7.68583V4.56801C17.1844 3.96016 16.6927 3.46841 16.0882 3.46841H13.4929C12.8919 3.46841 12.4001 3.96016 12.4001 4.56801ZM25.0011 16.3358C25.0011 19.3136 23.8981 21.6699 21.8014 23.2203C22.0233 23.5105 22.1599 23.8725 22.1599 24.2652C22.1599 25.2214 21.3847 26 20.432 26H9.61013C8.65737 26 7.87877 25.2214 7.87877 24.2652C7.87877 23.8589 8.02561 23.49 8.25783 23.1929C6.14741 21.6221 5 19.2316 5 16.3358C5 11.9784 7.66022 9.3284 10.9385 8.16733V4.56801C10.9385 3.15083 12.0859 2 13.4929 2H16.0882C17.4986 2 18.6426 3.15083 18.6426 4.56801V8.01024C22.638 9.22254 25.0011 12.2925 25.0011 16.3358ZM11.2493 14.7103V18.1799C11.2493 18.6614 11.6386 19.0541 12.1201 19.0541H17.584C18.0655 19.0541 18.4548 18.6614 18.4548 18.1799V14.7103C18.4548 14.2288 18.0655 13.8361 17.584 13.8361H12.1201C11.6386 13.8361 11.2493 14.2288 11.2493 14.7103ZM12.1201 20.5191C10.8327 20.5191 9.78771 19.4707 9.78771 18.1799V14.7103C9.78771 13.4195 10.8327 12.3677 12.1201 12.3677H17.584C18.868 12.3677 19.9163 13.4195 19.9163 14.7103V18.1799C19.9163 19.4707 18.8714 20.5191 17.584 20.5191H12.1201ZM15.1013 5.48662C15.1013 5.71884 15.2755 5.91007 15.4872 5.91007C15.6989 5.91007 15.8731 5.71884 15.8731 5.48662C15.8731 5.25441 15.6989 5.05976 15.4872 5.05976C15.2755 5.05976 15.1013 5.251 15.1013 5.48662ZM16.8463 5.48662C16.8463 6.25839 16.2351 6.89015 15.4872 6.89015C14.7359 6.89015 14.1281 6.25839 14.1281 5.48662C14.1281 4.71144 14.7393 4.0831 15.4872 4.0831C16.2385 4.07968 16.8463 4.71144 16.8463 5.48662ZM20.1076 4.54752C19.9198 4.54752 19.7319 4.47581 19.5919 4.33238C19.3051 4.04553 19.3051 3.5811 19.5919 3.29425L20.4593 2.42003C20.7462 2.13318 21.2072 2.13318 21.494 2.42003C21.7809 2.70689 21.7809 3.17131 21.494 3.45817L20.6266 4.32897C20.4832 4.47581 20.2954 4.54752 20.1076 4.54752ZM20.3261 5.28515C20.3261 4.87877 20.654 4.55094 21.0569 4.55094H22.6483C23.0512 4.55094 23.3791 4.87877 23.3791 5.28515C23.3791 5.69152 23.0512 6.01935 22.6483 6.01935H21.0569C20.6505 6.01594 20.3261 5.6881 20.3261 5.28515ZM19.6534 6.24132C19.9402 5.95447 20.4013 5.95447 20.6881 6.24132L21.6067 7.16335C21.8936 7.4502 21.8936 7.91463 21.6067 8.20148C21.4633 8.34491 21.2789 8.41662 21.0911 8.41662C20.9032 8.41662 20.7154 8.34491 20.5754 8.20148L19.6568 7.27945C19.37 6.9926 19.37 6.52817 19.6534 6.24132ZM13.8071 15.9021C13.5373 15.9021 13.3187 15.6836 13.3187 15.4138C13.3187 15.144 13.5373 14.9254 13.8071 14.9254H15.8458C16.1155 14.9254 16.3341 15.144 16.3341 15.4138C16.3341 15.6836 16.1155 15.9021 15.8458 15.9021H13.8071ZM13.0387 17.8418C12.7689 17.8418 12.5504 17.6232 12.5504 17.3534C12.5504 17.0837 12.7689 16.8651 13.0387 16.8651H16.6073C16.8771 16.8651 17.0956 17.0837 17.0956 17.3534C17.0956 17.6232 16.8771 17.8418 16.6073 17.8418H13.0387Z" fill="#86888C"/>
</svg>
