<svg width="62" height="40" viewBox="0 0 62 40" fill="none" xmlns="http://www.w3.org/2000/svg">
<path d="M20 40H6.68712C4.44347 40 2.80456 39.4566 1.68273 38.3523C0.552147 37.2305 0 35.5828 0 33.3129V6.68712C0 4.47853 0.543383 2.85714 1.67397 1.71779C2.81332 0.560911 4.45224 0 6.68712 0H20C22.2524 0 23.8913 0.552147 25.0219 1.68273C26.1437 2.80456 26.6871 4.44347 26.6871 6.68712V33.3129C26.6871 35.5741 26.135 37.2217 25.0044 38.3436C23.8826 39.4566 22.2436 40 20 40ZM6.68712 2.2787C3.55828 2.2787 2.2787 3.55828 2.2787 6.68712V33.3129C2.2787 36.5294 3.47064 37.7213 6.68712 37.7213H20C23.2165 37.7213 24.4084 36.5294 24.4084 33.3129V6.68712C24.4084 5.0745 24.0841 3.96144 23.4093 3.28659C22.7344 2.61174 21.6214 2.2787 20 2.2787H6.68712Z" fill="#86888C"/>
<path d="M13.339 31.2969C12.3135 31.2969 11.6475 31.8315 11.6475 32.9884C11.6475 33.5405 11.8052 33.9612 12.0769 34.2329C12.3749 34.5309 12.8043 34.6799 13.339 34.6799C13.8736 34.6799 14.303 34.5309 14.601 34.2329C14.8727 33.9524 15.0305 33.5405 15.0305 32.9884C15.0305 31.8315 14.3644 31.2969 13.339 31.2969Z" fill="#86888C"/>
<path d="M13.3393 35.2587C12.6469 35.2587 12.0685 35.0483 11.6741 34.6364C11.2797 34.2332 11.0869 33.6811 11.0869 32.9887C11.0869 31.5689 11.9283 30.7275 13.3393 30.7275C14.7504 30.7275 15.5917 31.5777 15.5917 32.9887C15.5917 33.6811 15.3902 34.2332 15.0045 34.6364C14.6189 35.0395 14.0405 35.2587 13.3393 35.2587ZM13.3393 31.8669C12.5681 31.8669 12.2175 32.2175 12.2175 32.9975C12.2175 33.3831 12.3051 33.6723 12.4804 33.8476C12.6557 34.0317 12.9449 34.1281 13.3306 34.1281C13.7162 34.1281 14.0054 34.0317 14.1807 33.8476C14.356 33.6723 14.4436 33.3831 14.4436 32.9975C14.4611 32.2175 14.1193 31.8669 13.3393 31.8669Z" fill="#86888C"/>
<path d="M54.916 40H41.6031C39.3595 40 37.7206 39.4566 36.5988 38.3523C35.4682 37.2305 34.916 35.5828 34.916 33.3216V6.68712C34.916 4.47853 35.4594 2.85714 36.59 1.71779C37.7293 0.560911 39.3683 0 41.6031 0H54.916C57.1684 0 58.8073 0.552147 59.9379 1.68273C61.0598 2.80456 61.6031 4.44347 61.6031 6.68712V33.3129C61.6031 35.5741 61.051 37.2217 59.9204 38.3436C58.7986 39.4566 57.1684 40 54.916 40ZM41.6031 2.2787C38.4743 2.2787 37.1947 3.55828 37.1947 6.68712V33.3129C37.1947 36.5294 38.3867 37.7213 41.6031 37.7213H54.916C58.1325 37.7213 59.3244 36.5294 59.3244 33.3129V6.68712C59.3244 5.0745 59.0002 3.96144 58.3253 3.28659C57.6505 2.61174 56.5374 2.2787 54.916 2.2787H41.6031Z" fill="#86888C"/>
<path d="M48.2638 31.2969C47.2383 31.2969 46.5723 31.8315 46.5723 32.9884C46.5723 33.5405 46.73 33.9612 47.0017 34.2329C47.2997 34.5309 47.7291 34.6799 48.2638 34.6799C48.7984 34.6799 49.2278 34.5309 49.5258 34.2329C49.7975 33.9524 49.9553 33.5405 49.9553 32.9884C49.9465 31.8315 49.2804 31.2969 48.2638 31.2969Z" fill="#86888C"/>
<path d="M48.2641 35.2587C47.5718 35.2587 46.9933 35.0483 46.5989 34.6364C46.2045 34.2332 46.0117 33.6811 46.0117 32.9887C46.0117 31.5689 46.8531 30.7275 48.2641 30.7275C49.6752 30.7275 50.5165 31.5777 50.5165 32.9887C50.5165 33.6811 50.315 34.2332 49.9293 34.6364C49.5349 35.0395 48.9565 35.2587 48.2641 35.2587ZM48.2641 31.8669C47.4929 31.8669 47.1423 32.2175 47.1423 32.9975C47.1423 33.3831 47.23 33.6723 47.4052 33.8476C47.5805 34.0317 47.8697 34.1281 48.2554 34.1281C48.641 34.1281 48.9302 34.0317 49.1055 33.8476C49.2808 33.6723 49.3684 33.3831 49.3684 32.9975C49.3772 32.2175 49.0354 31.8669 48.2641 31.8669Z" fill="#86888C"/>
<path d="M45.2848 15.9765C45.2848 21.4016 40.8851 25.81 35.4513 25.81H26.354C20.9289 25.81 16.5205 21.4104 16.5205 15.9765C16.5205 10.5515 20.9202 6.14307 26.354 6.14307H35.4513C40.8763 6.15183 45.2848 10.5515 45.2848 15.9765Z" fill="#86888C"/>
<path d="M26.7999 18.2642C26.3617 17.7559 26.1338 17.0285 26.1338 16.0644C26.1338 15.5035 26.2039 15.0127 26.3441 14.6008C26.4844 14.1889 26.6859 13.8558 26.9401 13.6017C27.3783 13.1634 28.0093 12.9443 28.8244 12.9443C29.061 12.9443 29.2977 12.9619 29.5518 13.0057C29.806 13.0495 30.0339 13.1021 30.2267 13.1634L30.1215 13.7419C29.9375 13.6893 29.7271 13.6455 29.508 13.6192C29.2802 13.5841 29.0786 13.5754 28.8945 13.5754C28.5615 13.5754 28.2723 13.6192 28.0356 13.7068C27.799 13.7945 27.6062 13.9347 27.4484 14.1187C27.1066 14.5131 26.9313 15.1442 26.9313 16.0206C26.9313 16.8181 27.0803 17.4141 27.3783 17.7997C27.5273 18.0013 27.7289 18.1415 27.9743 18.2379C28.2197 18.3343 28.5264 18.3782 28.8945 18.3782C29.1662 18.3782 29.4291 18.3606 29.6833 18.3168V16.5289H28.6929V15.9329H30.4195V18.7726C30.2179 18.8339 29.9725 18.8865 29.6745 18.9303C29.3766 18.9741 29.0961 18.9917 28.8332 18.9917C27.9129 19.0004 27.2293 18.755 26.7999 18.2642Z" fill="white"/>
<path d="M31.8135 13.0586H33.3735C33.7591 13.0586 34.0747 13.0936 34.3288 13.1638C34.5742 13.2339 34.7758 13.339 34.9335 13.4968C35.1789 13.7422 35.3016 14.0752 35.3016 14.5135C35.3016 14.8202 35.2315 15.0831 35.1001 15.2935C34.9686 15.5126 34.7758 15.6703 34.5216 15.7843C34.881 15.8719 35.1702 16.0384 35.3718 16.2838C35.5733 16.5292 35.6697 16.8535 35.6697 17.2391C35.6697 17.7562 35.5208 18.1506 35.2315 18.4223C35.065 18.5713 34.8371 18.694 34.5742 18.7641C34.3025 18.843 33.9782 18.878 33.5839 18.878H31.8135V13.0586ZM33.3209 15.5827C33.5751 15.5827 33.7767 15.5564 33.9344 15.5126C34.0834 15.4688 34.2149 15.3986 34.3113 15.3022C34.4603 15.1357 34.5392 14.9078 34.5392 14.6011C34.5392 14.2856 34.4603 14.0577 34.3025 13.9C34.2149 13.8123 34.0922 13.7422 33.9344 13.7071C33.7767 13.6721 33.5751 13.6546 33.3209 13.6546H32.5847V15.5739H33.3209V15.5827ZM33.3472 18.2908C33.689 18.2908 33.9607 18.2733 34.1448 18.2295C34.3288 18.1857 34.4866 18.1156 34.5917 18.0192C34.7846 17.8439 34.881 17.5809 34.881 17.2391C34.881 16.9061 34.7933 16.6519 34.6268 16.4854C34.5129 16.3802 34.3639 16.3014 34.1886 16.2575C34.0045 16.2137 33.7591 16.1874 33.4524 16.1874H32.576V18.2996H33.3472V18.2908Z" fill="white"/>
</svg>
