<svg width="24" height="24" viewBox="0 0 24 24" fill="none" xmlns="http://www.w3.org/2000/svg">
<path fill-rule="evenodd" clip-rule="evenodd" d="M19.7338 8.50831L19.0565 9.18276L14.8078 4.97955L15.5021 4.29087C17.3946 2.41551 19.0053 3.57943 19.6143 4.1685C19.6883 4.24249 19.7708 4.32502 19.8391 4.39617C20.431 5.0137 21.612 6.65002 19.7338 8.50831ZM3.54134 19.4788L4.52313 20.452L3.35637 20.6655L3.54134 19.4788ZM6.15945 16.9233L4.4463 15.23L13.9341 5.84466L15.6444 7.5379L6.15945 16.9233ZM5.99725 20.1817L3.77185 17.979L3.99667 16.5163L7.43436 19.917C7.43721 19.917 5.99725 20.1817 5.99725 20.1817ZM8.72065 19.4588L7.03026 17.7884L16.5152 8.40302L18.18 10.0507C18.1828 10.0507 8.72065 19.4588 8.72065 19.4588ZM20.7298 3.55097C20.6473 3.4656 20.5619 3.38022 20.4765 3.2977C19.0821 1.94311 16.814 1.26297 14.6256 3.4286L3.13724 14.7975C3.08317 14.8487 3.04049 14.9113 3.01203 14.9796C3.00349 15.0024 2.9978 15.0251 2.99211 15.0479C2.98357 15.0764 2.96934 15.1048 2.96365 15.1333L2.00747 21.3314C1.97617 21.5277 2.04446 21.7269 2.1896 21.8635C2.33473 22.0001 2.53678 22.0599 2.7303 22.0257L8.69219 20.9301C8.70358 20.9301 8.71211 20.9358 8.7235 20.9358C8.83448 20.933 8.93978 20.8988 9.03369 20.8391C9.04507 20.8334 9.05645 20.822 9.07068 20.8163C9.10198 20.7964 9.13613 20.7821 9.16175 20.7565C9.16459 20.7537 9.16744 20.748 9.17028 20.7451C9.17597 20.7394 9.18451 20.7338 9.1902 20.7281L20.6131 9.37342C22.7731 7.23056 22.0901 4.96247 20.7298 3.55097Z" fill="#86888C"/>
</svg>
