<svg width="40" height="40" viewBox="0 0 40 40" fill="none" xmlns="http://www.w3.org/2000/svg">
<path d="M20.0028 20.0256C17.1556 20.0256 14.9383 19.278 13.402 17.798C11.8094 16.2617 11.0003 13.9829 11.0003 11.023C11.0003 8.06316 11.8094 5.77923 13.402 4.23784C14.9383 2.75277 17.1556 2 20.0028 2C22.8501 2 25.0725 2.75277 26.6139 4.23784C28.2168 5.77923 29.0259 8.06316 29.0259 11.023C29.0259 13.9829 28.2117 16.2617 26.6088 17.798C25.0725 19.278 22.8501 20.0256 20.0028 20.0256ZM20.0028 4.04836C17.7087 4.04836 15.9676 4.60654 14.8256 5.71266C13.6478 6.85462 13.0486 8.64182 13.0486 11.0282C13.0486 13.4145 13.6478 15.1915 14.8256 16.3283C15.9624 17.4242 17.7036 17.9824 20.0028 17.9824C22.3021 17.9824 24.0484 17.4242 25.1954 16.3283C26.3784 15.1915 26.9826 13.4094 26.9826 11.0333C26.9775 6.33229 24.6936 4.04836 20.0028 4.04836ZM34.9815 38H5.02418C4.46088 38 4 37.5391 4 36.9758V33.9801C4 31.1124 4.89104 28.6697 6.58094 26.9081C8.42447 24.9878 11.159 23.9687 14.4979 23.9687H25.4822C28.8211 23.9687 31.5659 24.9826 33.4094 26.903C35.1095 28.6697 36.0057 31.1124 36.0057 33.9801V36.9758C36.0057 37.5391 35.5448 38 34.9815 38ZM6.04836 35.9516H33.9573V33.9801C33.9573 31.6552 33.2558 29.699 31.9346 28.3215C30.4597 26.7903 28.2885 26.0171 25.4822 26.0171H14.4979C11.6916 26.0171 9.52546 26.7903 8.06088 28.3215C6.74481 29.6939 6.04836 31.6501 6.04836 33.9801V35.9516Z" fill="#86888C"/>
</svg>
