<svg width="24" height="24" viewBox="0 0 24 24" fill="none" xmlns="http://www.w3.org/2000/svg">
<path d="M21.6538 11.1957C21.3483 11.1957 21.1034 10.9479 21.1034 10.6453V7.48396C21.1034 7.16984 20.8411 6.91336 20.5184 6.91336H17.5587C17.2533 6.91336 17.0083 6.66552 17.0083 6.36293C17.0083 6.06034 17.2561 5.8125 17.5587 5.8125H20.5155C21.4463 5.8125 22.2042 6.56177 22.2042 7.48396V10.6453C22.2042 10.9479 21.9593 11.1957 21.6538 11.1957Z" fill="#86888C"/>
<path d="M17.5589 14.9913C14.5647 14.9913 12.9163 13.363 12.9163 10.4034C12.9163 7.44377 14.5647 5.81266 17.5589 5.81266C17.8644 5.81266 18.1094 6.06049 18.1094 6.36308C18.1094 6.66567 17.8615 6.91351 17.5589 6.91351C15.1757 6.91351 14.0172 8.05471 14.0172 10.4005C14.0172 12.7463 15.1757 13.8846 17.5589 13.8846C19.9422 13.8846 21.1036 12.7434 21.1036 10.4005C21.1036 10.095 21.3514 9.85009 21.654 9.85009C21.9566 9.85009 22.2044 10.0979 22.2044 10.4005C22.2044 13.3601 20.5532 14.9913 17.5589 14.9913ZM2.55331 8.43223C2.24784 8.43223 2 8.18439 2 7.87892V4.68586C2.00288 3.75504 2.7608 3 3.68875 3H6.64549C6.95097 3 7.1988 3.24784 7.1988 3.55331C7.1988 3.85878 6.95097 4.10662 6.64549 4.10662H3.68875C3.36886 4.10662 3.1095 4.36886 3.10662 4.68875V7.87892C3.10662 8.18439 2.85878 8.43223 2.55331 8.43223Z" fill="#86888C"/>
<path d="M6.64794 12.2651C3.65084 12.2651 2.00244 10.6195 2.00244 7.63397C2.00244 7.32849 2.25028 7.08066 2.55575 7.08066C2.86122 7.08066 3.10906 7.32561 3.10906 7.63108C3.10906 10.0028 4.26755 11.1556 6.64794 11.1556C9.02832 11.1556 10.1839 10.0028 10.1839 7.63108C10.1839 5.25935 9.02832 4.10662 6.64794 4.10662C6.34246 4.10662 6.09463 3.85878 6.09463 3.55331C6.09463 3.24784 6.34246 3 6.64794 3C9.64215 3 11.2905 4.64552 11.2905 7.63397C11.2905 10.6195 9.64215 12.2651 6.64794 12.2651ZM11.8294 20.9998C11.8006 20.9998 11.7689 20.997 11.7401 20.9912C11.4375 20.9422 11.2329 20.6569 11.2819 20.3543C11.4231 19.4955 11.8467 16.8875 12.8957 14.3774C13.4778 12.9797 14.1695 11.8328 14.9447 10.9625C15.9187 9.87314 17.0398 9.20456 18.279 8.97978C18.5816 8.92502 18.8697 9.12387 18.9245 9.42646C18.9792 9.72905 18.7804 10.0172 18.4778 10.072C16.6248 10.4092 15.0888 12.0028 13.9188 14.8039C12.9188 17.1958 12.5096 19.7059 12.377 20.533C12.3309 20.8068 12.0946 20.9998 11.8294 20.9998Z" fill="#86888C"/>
<path d="M11.8271 20.9997C11.559 20.9997 11.3256 20.8066 11.2795 20.5328C11.2248 20.1928 11.1959 19.6884 11.1585 19.0487C11.0691 17.455 10.9337 15.0429 10.2392 12.8211C9.43803 10.2534 8.06628 8.58478 6.17005 7.85857C5.88475 7.74906 5.74065 7.42918 5.85016 7.14099C5.95967 6.85569 6.27955 6.7116 6.56774 6.82111C11.6945 8.78075 12.0835 15.6741 12.268 18.9853C12.2997 19.5674 12.3285 20.0688 12.3746 20.3513C12.4236 20.6538 12.219 20.9391 11.9164 20.9881C11.8876 20.9968 11.8559 20.9997 11.8271 20.9997Z" fill="#86888C"/>
</svg>
