<svg width="40" height="40" viewBox="0 0 40 40" fill="none" xmlns="http://www.w3.org/2000/svg">
<path fill-rule="evenodd" clip-rule="evenodd" d="M30.5305 16.4932C30.341 16.4984 30.136 16.4932 29.9619 16.4881C29.9106 16.4881 29.8338 16.483 29.7672 16.4779C30.7354 13.8241 31.0787 10.4634 31.1146 6.58005V5.704C32.8154 5.84745 35.7048 6.72862 35.7048 11.0628C35.7048 15.8938 32.0879 16.4676 30.5305 16.4932ZM28.8092 6.55956C28.7118 16.898 26.4884 20.5046 20.0589 20.6378C20.0384 20.6327 19.7669 20.6481 19.6952 20.6481C12.9276 20.6481 10.6273 17.0056 10.5761 6.22143V4.26953H28.8092C28.8143 5.21218 28.8143 6.41611 28.8092 6.55956ZM25.5099 35.7253H14.4901C14.8282 32.7283 16.6059 31.3195 19.9974 31.3195C23.394 31.3195 25.1718 32.7283 25.5099 35.7253ZM9.4746 16.4932C7.91718 16.4727 4.30027 15.899 4.30027 11.0679C4.30027 7.22044 6.58005 6.09335 8.28092 5.78597V6.22655C8.30141 10.2687 8.63953 13.7524 9.64366 16.4881C9.5873 16.4881 9.53095 16.4932 9.4746 16.4932ZM31.1146 3.42934V3.13733C31.1146 2.50719 30.5971 2 29.967 2H9.42849C8.79322 2 8.28092 2.51231 8.28092 3.13733V3.49082C5.06873 3.90579 2 6.04725 2 11.0679C2 16.6674 5.84232 18.7167 9.43873 18.7679H9.6744C9.81784 18.7679 9.95617 18.7679 10.074 18.7628C10.2431 18.7628 10.4787 18.7474 10.7298 18.7218C12.3179 21.2167 14.8641 22.6973 18.8499 22.8869V29.1268C14.5208 29.5315 12.1284 32.2211 12.1284 36.8627C12.1284 37.4928 12.6458 38 13.2811 38H26.7189C27.3542 38 27.8665 37.4877 27.8665 36.8627C27.8665 32.2211 25.474 29.5366 21.145 29.1268V22.8612C24.8593 22.5539 27.2261 21.0784 28.7272 18.6449L28.9731 18.691C29.3676 18.7423 29.7006 18.7576 29.9106 18.7628C30.0387 18.7679 30.177 18.7679 30.3256 18.7679H30.5613C34.1577 18.7167 38 16.6623 38 11.0679C38.0051 5.72961 34.5368 3.63939 31.1146 3.42934Z" fill="#86888C"/>
</svg>
