<svg width="40" height="40" viewBox="0 0 40 40" fill="none" xmlns="http://www.w3.org/2000/svg">
<path d="M9.17995 20.2C9.0468 20.1078 8.98535 20.0054 8.98535 19.8466C8.99047 19.6418 9.15946 19.4779 9.3643 19.483C9.4616 19.4882 9.55889 19.5189 9.64083 19.5752C10.2297 19.9644 11.0491 20.3587 12.0016 20.3587C13.4252 20.3587 14.2957 19.6264 14.2957 18.5459C14.2957 17.66 13.799 17.0301 12.1706 16.8253L11.7506 16.7741C10.0147 16.5539 9.20555 15.7192 9.20555 14.4236C9.20555 12.8822 10.3014 11.9297 11.9862 11.9297C12.9285 11.9297 13.7222 12.1755 14.2701 12.5186C14.4391 12.621 14.5159 12.7542 14.5159 12.8822C14.5159 13.0768 14.3623 13.2355 14.1677 13.2355H14.1626C14.0704 13.2304 13.9834 13.2048 13.9014 13.1587C13.3023 12.831 12.6724 12.6364 11.9555 12.6364C10.665 12.6364 9.94296 13.3533 9.94296 14.357C9.94296 15.2685 10.5063 15.8574 12.0323 16.052L12.4368 16.1032C14.2036 16.3234 15.0383 17.1581 15.0383 18.4896C15.0383 19.99 13.968 21.0603 11.9043 21.0603C10.9313 21.05 9.98393 20.753 9.17995 20.2Z" fill="#86888C"/>
<path d="M11.9111 21.4449C10.8562 21.4346 9.83205 21.112 8.96149 20.5129C8.72081 20.3439 8.60303 20.1237 8.60303 19.8471C8.60815 19.4272 8.94613 19.0944 9.36604 19.0995C9.54015 19.1046 9.70914 19.1558 9.85253 19.2531C10.5695 19.7294 11.2915 19.97 12.0033 19.97C13.1811 19.97 13.9134 19.4221 13.9134 18.5413C13.9134 17.9626 13.6983 17.3993 12.1211 17.1996L11.7063 17.1484C9.32508 16.8412 8.82323 15.4944 8.82323 14.419C8.82323 12.6727 10.0676 11.541 11.9879 11.541C12.92 11.541 13.8008 11.7715 14.4767 12.1862C14.8505 12.4167 14.9069 12.7188 14.9069 12.8776C14.9069 13.2872 14.5791 13.615 14.1695 13.615C14.0158 13.6099 13.8673 13.5689 13.7393 13.4972L13.7291 13.4921C13.135 13.1695 12.5717 13.0158 11.9675 13.0158C10.9484 13.0158 10.339 13.5177 10.339 14.3524C10.339 14.7057 10.339 15.4431 12.0904 15.6685L12.4949 15.7197C14.9171 16.0269 15.4292 17.3942 15.4292 18.4901C15.4292 19.3658 15.1066 20.1032 14.5023 20.6306C13.8827 21.1632 12.9916 21.4449 11.9111 21.4449ZM9.40189 19.883C9.59648 20.0212 9.80644 20.139 10.0215 20.2414C9.81668 20.139 9.61697 20.0212 9.42237 19.8881C9.41213 19.8779 9.39677 19.8727 9.38141 19.8676L9.40189 19.883ZM12.8995 16.5646C13.6522 16.7541 14.1643 17.0818 14.4409 17.553C14.0978 16.9282 13.4167 16.6773 12.8995 16.5646ZM9.71426 15.1513C9.92934 15.7094 10.421 16.0781 11.2044 16.2779C10.4414 16.0577 9.94983 15.689 9.71426 15.1513Z" fill="#86888C"/>
<path d="M12.0141 22.6386C11.6608 22.6386 11.374 22.3518 11.374 21.9985V11.0141C11.374 10.6608 11.6608 10.374 12.0141 10.374C12.3675 10.374 12.6543 10.6608 12.6543 11.0141V21.9985C12.6543 22.3518 12.3675 22.6386 12.0141 22.6386Z" fill="#86888C"/>
<path d="M12.0128 25.5061C9.16558 25.5061 6.9431 24.7533 5.40683 23.2734C3.8091 21.732 3 19.4532 3 16.4933C3 13.5334 3.8091 11.2546 5.40683 9.71319C6.9431 8.23324 9.16558 7.48047 12.0128 7.48047C14.86 7.48047 17.0825 8.23324 18.6188 9.71319C20.2165 11.2546 21.0256 13.5334 21.0256 16.4933C21.0256 19.4532 20.2165 21.732 18.6188 23.2734C17.0825 24.7533 14.86 25.5061 12.0128 25.5061ZM12.0128 9.52883C9.71351 9.52883 7.9724 10.087 6.83044 11.188C5.64751 12.3249 5.04836 14.112 5.04836 16.4933C5.04836 18.8745 5.64751 20.6617 6.83044 21.7985C7.9724 22.8995 9.71864 23.4577 12.0128 23.4577C14.307 23.4577 16.0532 22.8995 17.1952 21.7985C18.3781 20.6617 18.9772 18.8745 18.9772 16.4933C18.9772 14.112 18.3781 12.3249 17.1952 11.188C16.0532 10.087 14.3121 9.52883 12.0128 9.52883Z" fill="#86888C"/>
<path d="M28.9824 38H16.9995C14.9767 38 13.5019 37.5135 12.4931 36.5149C11.474 35.5061 10.9824 34.0211 10.9824 31.9829V25.0697C10.9824 24.5064 11.4433 24.0455 12.0066 24.0455C12.5699 24.0455 13.0308 24.5064 13.0308 25.0697V31.9829C13.0308 34.8762 14.1062 35.9516 16.9995 35.9516H28.9824C31.8757 35.9516 32.9511 34.8762 32.9511 31.9829V8.01707C32.9511 6.56785 32.6541 5.56415 32.0499 4.95477C31.4456 4.34538 30.4368 4.04836 28.9824 4.04836H16.9995C14.183 4.04836 13.0308 5.20057 13.0308 8.01707C13.0308 8.58037 12.5699 9.04125 12.0066 9.04125C11.4433 9.04125 10.9824 8.58037 10.9824 8.01707C10.9824 6.03016 11.474 4.5707 12.488 3.54139C13.5173 2.50697 14.9921 2 16.9995 2H28.9824C31.0103 2 32.4851 2.49161 33.4991 3.51067C34.513 4.52973 34.9995 5.99943 34.9995 8.01707V31.9829C34.9995 34.0211 34.5028 35.5061 33.4888 36.5149C32.48 37.5135 31.0052 38 28.9824 38Z" fill="#86888C"/>
<path d="M22.9911 30.1641C22.0694 30.1641 21.4702 30.6505 21.4702 31.6901C21.4702 32.1919 21.6085 32.5606 21.8543 32.8116C22.1206 33.083 22.5098 33.2161 22.9911 33.2161C23.4725 33.2161 23.8617 33.083 24.128 32.8116C24.3738 32.5606 24.512 32.1868 24.512 31.6901C24.512 30.6505 23.9129 30.1641 22.9911 30.1641Z" fill="#86888C"/>
<path d="M22.9927 33.7335C22.368 33.7335 21.8456 33.5389 21.4923 33.1753C21.139 32.8117 20.9648 32.315 20.9648 31.6954C20.9648 30.4202 21.7227 29.6572 22.9978 29.6572C24.273 29.6572 25.0308 30.4202 25.0308 31.6954C25.0308 32.3201 24.8516 32.8168 24.5034 33.1753C24.1552 33.5338 23.6226 33.7335 22.9927 33.7335ZM22.9927 30.6814C22.2963 30.6814 21.9839 30.9938 21.9839 31.6954C21.9839 32.0436 22.0658 32.2996 22.2195 32.4584C22.3731 32.6171 22.6394 32.7093 22.9876 32.7093C23.3358 32.7093 23.597 32.6274 23.7557 32.4584C23.9145 32.2894 23.9913 32.0385 23.9913 31.6954C24.0015 30.9938 23.6892 30.6763 22.9927 30.6814Z" fill="#86888C"/>
</svg>
