<svg width="20" height="20" viewBox="0 0 20 20" fill="none" xmlns="http://www.w3.org/2000/svg">
<path fill-rule="evenodd" clip-rule="evenodd" d="M10.3349 17.036C11.9035 17.0064 17.0215 16.419 17.0215 10.0398C17.0215 3.66284 11.8785 3.04359 10.303 3.00489C10.089 3.00033 9.8363 2.99578 9.60636 2.99806C8.05139 3.01399 2.97897 3.55584 2.97897 9.99654C2.97897 16.4441 8.09465 17.0178 9.66327 17.0406C9.88866 17.0451 10.1345 17.0406 10.3349 17.036ZM10.3258 2.02819C11.6076 2.05779 18.0004 2.58825 18.0004 10.0398C18.0004 17.4982 11.6303 17.9922 10.3508 18.015C10.2097 18.0173 10.0435 18.0195 9.87956 18.0195C9.80215 18.0195 9.72474 18.0195 9.64961 18.0173C8.3724 18.0013 2 17.5278 2 9.99654C2 2.46531 8.32914 2.03275 9.59953 2.02136C9.8363 2.01681 10.1027 2.02136 10.3258 2.02819ZM9.64278 13.7189C10.0731 13.7189 10.3531 14.0012 10.3531 14.4065C10.3531 14.8595 10.0776 15.1304 9.66783 15.1304C9.23071 15.1304 8.95751 14.8595 8.95751 14.4588V14.4065C8.95978 14.0012 9.23981 13.7189 9.64278 13.7189ZM11.792 5.54337C12.3589 5.96228 12.6252 6.53828 12.6252 7.35788C12.6252 8.35962 12.2109 8.9561 11.2615 10.0762C10.1732 11.3352 10.13 11.3853 10.13 12.5601C10.13 12.7399 9.98428 12.8856 9.80443 12.8856H9.44471C9.2899 12.8856 9.15558 12.7764 9.1237 12.6215C9.09183 12.4531 9.07589 12.28 9.07817 12.107C9.07817 11.2259 9.3878 10.7046 10.0822 9.86905L10.2142 9.70968C11.3571 8.35734 11.5734 7.97941 11.5734 7.34194C11.5734 6.88889 11.4436 6.59292 11.1386 6.34932C10.9633 6.21044 10.6559 6.04879 9.81581 6.04879C9.3582 6.04879 8.95523 6.10116 8.46119 6.22638C8.28589 6.26963 8.11058 6.16491 8.06505 5.99188C8.06277 5.98505 8.06278 5.97822 8.0605 5.97139L8.00813 5.69363C7.98081 5.54793 8.05367 5.40222 8.18799 5.33847C8.49534 5.19277 9.24892 5.04251 9.97518 5.04251C10.7401 5.04023 11.3503 5.2087 11.792 5.54337Z" fill="#86888C"/>
</svg>
