<svg width="40" height="40" viewBox="0 0 40 40" fill="none" xmlns="http://www.w3.org/2000/svg">
<path fill-rule="evenodd" clip-rule="evenodd" d="M20.7535 36.8066C24.2829 36.74 35.7983 35.4184 35.7983 21.0651C35.7983 6.71698 24.2266 5.32366 20.6818 5.23658C20.2003 5.22633 19.6317 5.21609 19.1143 5.22121C15.6156 5.25707 4.20268 6.47623 4.20268 20.9678C4.20268 35.4748 15.713 36.7656 19.2424 36.8169C19.7495 36.8271 20.3027 36.8169 20.7535 36.8066ZM20.733 3.03902C23.617 3.10562 38.001 4.29916 38.001 21.0651C38.001 37.8465 23.6682 38.9581 20.7894 39.0093C20.4718 39.0144 20.0978 39.0195 19.729 39.0195C19.5548 39.0195 19.3807 39.0195 19.2116 39.0144C16.3379 38.9786 2 37.9131 2 20.9678C2 4.02254 16.2406 3.04927 19.0989 3.02366C19.6317 3.01341 20.231 3.02366 20.733 3.03902ZM19.1963 29.3431C20.1644 29.3431 20.7945 29.9783 20.7945 30.8901C20.7945 31.9095 20.1747 32.5191 19.2526 32.5191C18.2691 32.5191 17.6544 31.9095 17.6544 31.0079V30.8901C17.6595 29.9783 18.2896 29.3431 19.1963 29.3431ZM24.0319 10.9482C25.3074 11.8907 25.9068 13.1867 25.9068 15.0308C25.9068 17.2847 24.9745 18.6268 22.8384 21.1471C20.3898 23.9798 20.2925 24.0925 20.2925 26.7358C20.2925 27.1404 19.9646 27.4683 19.56 27.4683H18.7506C18.4023 27.4683 18.1 27.2224 18.0283 26.8741C17.9566 26.495 17.9208 26.1057 17.9259 25.7164C17.9259 23.734 18.6225 22.5609 20.1849 20.6809L20.482 20.3224C23.0535 17.2796 23.5402 16.4293 23.5402 14.995C23.5402 13.9756 23.2482 13.3097 22.5618 12.7615C22.1673 12.4491 21.4758 12.0854 19.5856 12.0854C18.556 12.0854 17.6493 12.2032 16.5377 12.4849C16.1432 12.5823 15.7488 12.3466 15.6464 11.9573C15.6412 11.9419 15.6412 11.9266 15.6361 11.9112L15.5183 11.2863C15.4568 10.9584 15.6208 10.6306 15.923 10.4872C16.6145 10.1593 18.3101 9.82123 19.9442 9.82123C21.6653 9.8161 23.0381 10.1952 24.0319 10.9482Z" fill="#86888C"/>
</svg>
