<svg width="40" height="40" viewBox="0 0 40 40" fill="none" xmlns="http://www.w3.org/2000/svg">
<path fill-rule="evenodd" clip-rule="evenodd" d="M31.3743 36.1928L36.5698 31.0544L33.3945 27.9139C33.2702 27.7909 33.1925 27.627 33.1769 27.4579L32.8195 23.8257L28.7947 19.845L27.4842 21.1412C27.1785 21.4229 26.7072 21.4229 26.4067 21.1412L23.2366 17.9956L18.0411 23.1341L21.2216 26.2796C21.5168 26.5717 21.5168 27.0481 21.2216 27.3401L19.9059 28.6414L23.9152 32.6067L27.7017 32.827C27.8882 32.8372 28.0643 32.914 28.1938 33.0472L31.3743 36.1928ZM38.1808 30.5216C38.476 30.8136 38.476 31.29 38.1808 31.582L31.9182 37.781C31.6229 38.073 31.1412 38.073 30.8408 37.781L27.3391 34.3075L23.5474 34.0872C23.3609 34.077 23.1848 34.0001 23.0553 33.8669L18.3052 29.1639C18.01 28.8719 18.01 28.3955 18.3052 28.1035L19.621 26.8022L16.4405 23.6566C16.1452 23.3646 16.1452 22.8881 16.4405 22.5961L22.7082 16.3972C23.0035 16.1052 23.4852 16.1052 23.7805 16.3972L26.9558 19.5428L28.2663 18.2466C28.5616 17.9546 29.0433 17.9546 29.3386 18.2466L34.0886 22.9496C34.2129 23.0726 34.2906 23.2365 34.3062 23.4107L34.6584 27.0379L38.1808 30.5216ZM18.5332 12.1348C18.5487 12.1143 18.5694 12.0938 18.585 12.0733L19.9007 10.772L16.1607 7.07315L12.5037 6.96556C12.312 6.96044 12.1255 6.87847 11.9857 6.74527L9.01756 3.80973L3.83241 8.94308L6.80054 11.8786C6.93004 12.0067 7.00774 12.1809 7.0181 12.3602L7.26155 15.8593L11.0119 19.5684L12.3172 18.2774L18.5332 12.1348ZM19.7142 13.0774C19.6987 13.0979 19.6779 13.1184 19.6624 13.1389L11.5454 21.1565C11.2501 21.4486 10.7736 21.4537 10.4783 21.1617L10.4731 21.1565L5.98728 16.7199C5.85778 16.5919 5.78008 16.4228 5.76972 16.2384L5.52108 12.7393L2.22144 9.47076C1.92619 9.17874 1.92619 8.70229 2.22144 8.41027L8.48403 2.21133C8.78446 1.92956 9.25584 1.92956 9.55628 2.21133L12.8456 5.46962L16.5026 5.5772C16.6943 5.58233 16.8808 5.65917 17.0206 5.7975L21.5065 10.2392C21.8017 10.5312 21.8017 11.0077 21.5065 11.2997L19.7142 13.0774Z" fill="#86888C"/>
</svg>
