<svg width="40" height="40" viewBox="0 0 40 40" fill="none" xmlns="http://www.w3.org/2000/svg">
<path fill-rule="evenodd" clip-rule="evenodd" d="M21.8705 36.0542V21.6276H33.92C33.8124 23.103 33.6792 24.4504 33.505 25.475C32.8237 29.4249 25.9024 33.8871 21.8705 36.0542ZM8.02789 25.475C7.84858 24.4504 7.71025 23.103 7.60267 21.6276H19.6471V36.0542C15.6203 33.8871 8.70926 29.4249 8.02789 25.475ZM14.068 7.64665C15.6767 6.56568 17.2085 5.54106 19.6522 5.30027V19.3785H7.46947C7.28504 15.7821 7.24405 11.9398 7.22868 10.0135C10.2974 10.1723 12.2186 8.88644 14.068 7.64665ZM34.2889 10.0135C34.2786 11.9398 34.2376 15.7821 34.0532 19.3785H21.8705V5.30027C24.3091 5.54106 25.8409 6.5708 27.4547 7.64665C29.299 8.88644 31.2048 10.1775 34.2889 10.0135ZM36.5123 8.75836C36.5123 8.43048 36.3381 8.12822 36.0922 7.91817C35.8463 7.70813 35.4877 7.61591 35.17 7.66714C32.2038 8.13334 30.6412 7.09335 28.674 5.7716C26.7374 4.47033 24.5396 3 20.7639 3H20.7485C16.9728 3 14.775 4.47033 12.8333 5.7716C10.8661 7.09335 9.31378 8.13334 6.38337 7.67226C6.05549 7.59029 5.702 7.66202 5.43048 7.87207C5.16407 8.08723 5.00526 8.40999 5.00014 8.75324C5.00014 9.24506 4.9694 20.8437 5.8352 25.8541C6.95203 32.3502 18.9145 38.2418 20.2772 38.8924C20.2823 38.8975 20.2875 38.8924 20.2926 38.8975C20.4309 38.9641 20.5846 39 20.7485 39C20.9073 39 21.061 38.959 21.1994 38.8975C21.2045 38.8924 21.2147 38.8975 21.2199 38.8924C22.5826 38.2418 34.5604 32.3502 35.6772 25.8541C36.543 20.8437 36.5123 9.25018 36.5123 8.75836Z" fill="#86888C"/>
</svg>
