<svg width="24" height="24" viewBox="0 0 24 24" fill="none" xmlns="http://www.w3.org/2000/svg">
<path fill-rule="evenodd" clip-rule="evenodd" d="M12.3725 20.3635V12.3487H19.0667C19.0069 13.1684 18.9329 13.9169 18.8361 14.4861C18.4576 16.6805 14.6124 19.1595 12.3725 20.3635ZM4.68216 14.4861C4.58254 13.9169 4.5057 13.1684 4.44593 12.3487H11.1373V20.3635C8.90017 19.1595 5.0607 16.6805 4.68216 14.4861ZM8.03779 4.58147C8.93148 3.98093 9.78248 3.4117 11.1401 3.27793V11.0992H4.37193C4.26946 9.10118 4.2467 6.96656 4.23816 5.8964C5.94301 5.98463 7.01032 5.27024 8.03779 4.58147ZM19.2716 5.8964C19.2659 6.96656 19.2431 9.10118 19.1407 11.0992H12.3725V3.27793C13.7273 3.4117 14.5783 3.98378 15.4748 4.58147C16.4994 5.27024 17.5582 5.98748 19.2716 5.8964ZM20.5068 5.19909C20.5068 5.01693 20.4101 4.84901 20.2734 4.73232C20.1368 4.61563 19.9376 4.56439 19.7611 4.59286C18.1132 4.85186 17.2451 4.27409 16.1522 3.53978C15.0764 2.81685 13.8553 2 11.7577 2H11.7492C9.65156 2 8.43056 2.81685 7.35186 3.53978C6.25893 4.27409 5.39655 4.85186 3.76854 4.5957C3.58639 4.55016 3.39 4.59001 3.23915 4.7067C3.09115 4.82624 3.00292 5.00555 3.00008 5.19624C3.00008 5.46948 2.983 11.9132 3.464 14.6967C4.08446 18.3057 10.7303 21.5788 11.4873 21.9402C11.4902 21.9431 11.493 21.9402 11.4959 21.9431C11.5727 21.9801 11.6581 22 11.7492 22C11.8374 22 11.9228 21.9772 11.9996 21.9431C12.0025 21.9402 12.0082 21.9431 12.011 21.9402C12.7681 21.5788 19.4224 18.3057 20.0429 14.6967C20.5239 11.9132 20.5068 5.47232 20.5068 5.19909Z" fill="#86888C"/>
</svg>
