<svg width="20" height="20" viewBox="0 0 20 20" fill="none" xmlns="http://www.w3.org/2000/svg">
<path fill-rule="evenodd" clip-rule="evenodd" d="M15.6603 11.9875C15.954 10.2595 16.004 6.53045 16.0086 5.11895C14.6472 5.18497 13.7935 4.6181 12.9693 4.06716C12.152 3.5185 11.3803 3.00171 9.99835 2.99943H9.9938C8.6119 2.99943 7.84013 3.51622 7.02055 4.06716C6.19869 4.6181 5.35863 5.19636 3.98355 5.11895C3.99038 6.53045 4.04047 10.2618 4.33871 11.9875C4.67109 13.9158 8.35009 16.1264 9.99608 16.9482C11.6443 16.1241 15.3302 13.9158 15.6603 11.9875ZM16.9989 4.55891C16.9989 4.77746 17.0149 9.92943 16.6347 12.1582C16.1384 15.045 10.8157 17.6631 10.2101 17.9522C10.1441 17.9841 10.0712 18 10.0006 18C9.92778 18 9.8572 17.9841 9.7889 17.9522C9.18333 17.6631 3.86745 15.045 3.37115 12.1582C2.9864 9.92943 3.00006 4.77746 3.00006 4.55891C3.00006 4.40637 3.07063 4.26067 3.1913 4.16733C3.31196 4.07399 3.46676 4.03984 3.61474 4.07627C4.92152 4.28571 5.60905 3.81901 6.48327 3.23164C7.34383 2.65339 8.32277 2 10.0006 2H10.0052C11.683 2.00228 12.6597 2.65566 13.5203 3.23392C14.3945 3.81901 15.0866 4.28344 16.407 4.07399C16.5482 4.05122 16.7052 4.08993 16.8168 4.18554C16.9215 4.27888 16.9966 4.4132 16.9989 4.55891ZM9.99835 12.4041C11.2687 12.4041 11.6147 11.9306 11.6147 10.2003C11.6147 9.11668 11.4622 8.53614 11.1002 8.26067C10.8657 8.0831 10.506 7.99659 9.99608 7.99659C9.48384 7.99659 9.11958 8.08537 8.88737 8.26523C8.53222 8.5407 8.37968 9.11895 8.37968 10.2003C8.38196 11.9306 8.728 12.4041 9.99835 12.4041ZM10.0006 6.68071C8.91696 6.68071 8.91696 6.90381 8.91696 7.21343C8.91696 7.21799 8.91924 7.22254 8.91924 7.22709C9.22658 7.12237 9.57946 7.06773 9.99835 7.06773C10.4218 7.06773 10.777 7.12464 11.0843 7.22937C11.0843 7.22254 11.0866 7.22026 11.0866 7.21343C11.0843 6.90381 11.0843 6.68071 10.0006 6.68071ZM12.3319 6.68298C12.3182 6.42573 12.5117 6.20717 12.7667 6.19351C13.0262 6.19579 13.238 6.37564 13.2516 6.63517L13.304 7.63233C13.3154 7.84633 13.181 8.03984 12.9784 8.10359L12.2567 8.32669C12.3956 8.65908 12.4685 9.03472 12.5049 9.41719H13.0581C13.3131 9.41719 13.5203 9.62664 13.5203 9.88389V10.5464C13.5203 10.8036 13.3131 11.0131 13.0581 11.0131C12.8031 11.0131 12.5982 10.8036 12.5982 10.5464V10.3506H12.5345C12.5299 10.8241 12.4935 11.284 12.3842 11.6961L12.9784 11.8782C13.181 11.9419 13.3154 12.1355 13.304 12.3495L13.2516 13.3466C13.238 13.5948 13.0353 13.7883 12.7917 13.7883H12.7667C12.5117 13.7746 12.3182 13.5561 12.3319 13.2988L12.366 12.6659L11.9881 12.5498C11.617 13.0347 11.0023 13.3421 9.99835 13.3421C8.98981 13.3421 8.37741 13.0324 8.00632 12.5452L7.61247 12.6659L7.64662 13.2988C7.66028 13.5561 7.46449 13.7746 7.21178 13.7883H7.18674C6.94314 13.7883 6.74053 13.5948 6.72687 13.3466L6.6745 12.3495C6.66312 12.1355 6.79744 11.9419 7.00006 11.8782L7.61019 11.6915C7.50319 11.2817 7.46676 10.8241 7.46221 10.3529H7.39847V10.5487C7.39847 10.8059 7.1913 11.0154 6.93859 11.0154C6.68361 11.0154 6.47644 10.8059 6.47644 10.5487V9.88617C6.47644 9.62891 6.68361 9.41947 6.93859 9.41947H7.49181C7.52823 9.03699 7.59881 8.66591 7.73768 8.33352L7.00006 8.10586C6.79744 8.04212 6.66312 7.84861 6.6745 7.6346L6.72687 6.63745C6.74053 6.38019 6.96136 6.20262 7.21178 6.19579C7.46676 6.20945 7.66028 6.43028 7.64662 6.68526L7.61247 7.31816L8.01543 7.44337C8.0086 7.37052 7.99721 7.29539 7.99721 7.21571C7.99721 6.38475 8.45026 6.03415 8.95339 5.87706C8.82818 5.69721 8.83728 5.44678 8.99664 5.28515C9.1765 5.10302 9.4679 5.10302 9.64775 5.28515L9.97103 5.6107C9.97786 5.61753 9.98014 5.62891 9.98697 5.63574C9.9938 5.62664 9.99608 5.61753 10.0052 5.6107L10.3285 5.28515C10.5083 5.10302 10.7997 5.10302 10.9796 5.28515C11.1389 5.44451 11.148 5.6881 11.0297 5.87023C11.5419 6.02049 12.0109 6.37109 12.0109 7.21571C12.0109 7.29311 12.0018 7.36369 11.9927 7.43654L12.3706 7.32043L12.3319 6.68298ZM9.97103 8.67501C10.226 8.67501 10.4309 8.88446 10.4309 9.14172V11.6232C10.4309 11.8805 10.226 12.0899 9.97103 12.0899C9.71605 12.0899 9.51116 11.8805 9.51116 11.6232V9.14172C9.51116 8.88446 9.71833 8.67501 9.97103 8.67501Z" fill="#86888C"/>
</svg>
