<svg width="20" height="20" viewBox="0 0 20 20" fill="none" xmlns="http://www.w3.org/2000/svg">
<path d="M13.976 18H8.1691C6.401 18 5.54299 17.126 5.54299 15.3257V12.5741C5.54299 12.3238 5.74674 12.1189 5.99577 12.1189C6.24479 12.1189 6.44854 12.3238 6.44854 12.5741V15.3257C6.44854 15.9812 6.57532 16.4296 6.83567 16.6959C7.09601 16.9622 7.53295 17.0896 8.1691 17.0896H13.976C14.6144 17.0896 15.0491 16.9599 15.3094 16.6959C15.5698 16.4319 15.6965 15.9812 15.6965 15.3257V4.67425C15.6965 3.40427 15.2143 2.91038 13.976 2.91038H8.1691C7.53068 2.91038 7.09375 3.04239 6.8334 3.31095C6.57306 3.57952 6.44854 4.0256 6.44854 4.67425V4.79943C6.44854 5.04979 6.24479 5.25462 5.99577 5.25462C5.74674 5.25462 5.54299 5.04979 5.54299 4.79943V4.67425C5.54299 3.77525 5.75353 3.12205 6.18593 2.67596C6.62513 2.22077 7.27486 2 8.1691 2H13.976C15.7192 2 16.6021 2.899 16.6021 4.67425V15.3257C16.6021 17.126 15.7441 18 13.976 18Z" fill="#86888C"/>
<path d="M11.0827 14.4381C11.5491 14.4381 11.8547 14.6862 11.8547 15.2165C11.8547 15.4714 11.7845 15.6603 11.66 15.79C11.5242 15.9289 11.3272 15.9949 11.0827 15.9949C10.8382 15.9949 10.6413 15.9289 10.5054 15.79C10.3809 15.6626 10.3107 15.4714 10.3107 15.2165C10.3107 14.6839 10.6141 14.4381 11.0827 14.4381ZM6.41006 5.33656V6.32433C6.79944 6.36757 7.13676 6.46999 7.41522 6.63841L8.03779 6.01252L8.62867 6.60654L8.0061 7.23471C8.17136 7.50783 8.27776 7.84467 8.31851 8.24524H9.30104V9.08734H8.31851C8.2755 9.48791 8.1691 9.82475 8.0061 10.0979L8.62867 10.7238L8.03779 11.3178L7.41522 10.6919C7.13676 10.8603 6.80171 10.965 6.41006 11.006V11.9937H5.57242V11.006C5.18303 10.9627 4.84571 10.8603 4.56725 10.6919L3.94468 11.3178L3.35154 10.7238L3.97411 10.0979C3.80885 9.82475 3.70471 9.48791 3.66169 9.08734H2.67917V8.24524H3.66169C3.70471 7.84467 3.81111 7.50783 3.97411 7.23471L3.35381 6.60882L3.94694 6.01479L4.56951 6.64068C4.84797 6.47226 5.18303 6.36757 5.57468 6.3266V5.33883L6.41006 5.33656ZM6.41006 4.65377H5.57242C5.19661 4.65377 4.89325 4.95875 4.89325 5.33656V5.76216C4.83213 5.78037 4.77326 5.79858 4.7144 5.81906L4.42689 5.53002C4.16201 5.26373 3.73188 5.26373 3.467 5.53002L2.87613 6.12632C2.61125 6.3926 2.61125 6.82504 2.87613 7.09132L3.16364 7.38037C3.14326 7.43955 3.12289 7.49872 3.10704 7.56017H2.67917C2.30336 7.56017 2 7.86515 2 8.24296V9.08507C2 9.46288 2.30336 9.76785 2.67917 9.76785H3.10251C3.12063 9.8293 3.13874 9.88848 3.15911 9.94766L2.87386 10.239C2.60899 10.5053 2.60899 10.9377 2.87386 11.204L3.467 11.798C3.73188 12.0643 4.16201 12.0643 4.42689 11.798L4.7144 11.509C4.77326 11.5294 4.83213 11.5499 4.89325 11.5659V11.9915C4.89325 12.3693 5.19661 12.6743 5.57242 12.6743H6.41006C6.78586 12.6743 7.08922 12.3693 7.08922 11.9915V11.5659C7.15035 11.5477 7.20921 11.5294 7.26807 11.509L7.55558 11.798C7.82046 12.0643 8.2506 12.0643 8.51547 11.798L9.10635 11.204C9.37122 10.9377 9.37122 10.5053 9.10635 10.239L8.81883 9.94993C8.83921 9.89076 8.85958 9.83158 8.87543 9.77013H9.29878C9.67458 9.77013 9.97795 9.46515 9.97795 9.08734V8.24524C9.97795 7.86743 9.67458 7.56245 9.29878 7.56245H8.87543C8.85732 7.501 8.83921 7.44182 8.81883 7.38265L9.10635 7.0936C9.37122 6.82731 9.37122 6.39488 9.10635 6.12859L8.51547 5.53457C8.2506 5.26828 7.82046 5.26828 7.55558 5.53457L7.26807 5.82361C7.20921 5.80313 7.15035 5.78265 7.08922 5.76672V5.34111C7.08922 4.95875 6.7836 4.65377 6.41006 4.65377Z" fill="#86888C"/>
<path d="M5.99124 7.48506C6.73606 7.48506 7.1662 7.85832 7.1662 8.66629C7.1662 9.47425 6.73606 9.84751 5.99124 9.84751C5.24642 9.84751 4.81628 9.47425 4.81628 8.66629C4.81628 7.85832 5.24642 7.48506 5.99124 7.48506ZM5.99124 6.80227C5.43206 6.80227 4.98155 6.96387 4.65328 7.28023C4.31144 7.61252 4.13712 8.07681 4.13712 8.66629C4.13712 9.25576 4.31144 9.72006 4.65328 10.0523C4.98155 10.371 5.43206 10.5303 5.99124 10.5303C6.55042 10.5303 7.00094 10.3687 7.3292 10.0523C7.67105 9.72006 7.84537 9.25576 7.84537 8.66629C7.84537 8.07681 7.67105 7.61252 7.3292 7.28023C7.00094 6.96159 6.55042 6.80227 5.99124 6.80227Z" fill="#86888C"/>
</svg>
