<svg width="24" height="24" viewBox="0 0 24 24" fill="none" xmlns="http://www.w3.org/2000/svg">
<path d="M17.97 22H10.7114C8.50125 22 7.42873 20.9075 7.42873 18.6572V15.2176C7.42873 14.9047 7.68342 14.6486 7.99471 14.6486C8.30599 14.6486 8.56068 14.9047 8.56068 15.2176V18.6572C8.56068 19.4765 8.71915 20.037 9.04458 20.3698C9.37002 20.7027 9.91618 20.862 10.7114 20.862H17.97C18.768 20.862 19.3113 20.6999 19.6368 20.3698C19.9622 20.0398 20.1207 19.4765 20.1207 18.6572V5.34282C20.1207 3.75533 19.5179 3.13798 17.97 3.13798H10.7114C9.91335 3.13798 9.36719 3.30299 9.04176 3.63869C8.71632 3.9744 8.56068 4.53201 8.56068 5.34282V5.49929C8.56068 5.81223 8.30599 6.06828 7.99471 6.06828C7.68342 6.06828 7.42873 5.81223 7.42873 5.49929V5.34282C7.42873 4.21906 7.69191 3.40256 8.23241 2.84495C8.78141 2.27596 9.59358 2 10.7114 2H17.97C20.149 2 21.2526 3.12376 21.2526 5.34282V18.6572C21.2526 20.9075 20.1801 22 17.97 22Z" fill="#86888C"/>
<path d="M14.3534 17.5477C14.9364 17.5477 15.3184 17.8578 15.3184 18.5206C15.3184 18.8393 15.2307 19.0754 15.075 19.2376C14.9052 19.4111 14.659 19.4936 14.3534 19.4936C14.0478 19.4936 13.8016 19.4111 13.6318 19.2376C13.4761 19.0782 13.3884 18.8393 13.3884 18.5206C13.3884 17.8549 13.7676 17.5477 14.3534 17.5477ZM8.51257 6.1707V7.40541C8.99931 7.45946 9.42095 7.58748 9.76903 7.79801L10.5472 7.01565L11.2858 7.75818L10.5076 8.54339C10.7142 8.88478 10.8472 9.30583 10.8981 9.80655H12.1263V10.8592H10.8981C10.8444 11.3599 10.7114 11.7809 10.5076 12.1223L11.2858 12.9047L10.5472 13.6472L9.76903 12.8649C9.42095 13.0754 9.00214 13.2063 8.51257 13.2575V14.4922H7.46552V13.2575C6.97878 13.2034 6.55714 13.0754 6.20906 12.8649L5.43085 13.6472L4.68943 12.9047L5.46764 12.1223C5.26106 11.7809 5.13089 11.3599 5.07712 10.8592H3.84896V9.80655H5.07712C5.13089 9.30583 5.26389 8.88478 5.46764 8.54339L4.69226 7.76103L5.43368 7.01849L6.21189 7.80086C6.55997 7.59033 6.97878 7.45946 7.46835 7.40825V6.17354L8.51257 6.1707ZM8.51257 5.31721H7.46552C6.99576 5.31721 6.61656 5.69844 6.61656 6.1707V6.7027C6.54016 6.72546 6.46658 6.74822 6.393 6.77383L6.03361 6.41252C5.70252 6.07966 5.16484 6.07966 4.83375 6.41252L4.09516 7.1579C3.76406 7.49076 3.76406 8.0313 4.09516 8.36416L4.45455 8.72546C4.42908 8.79943 4.40361 8.8734 4.3838 8.95022H3.84896C3.3792 8.95022 3 9.33144 3 9.8037V10.8563C3 11.3286 3.3792 11.7098 3.84896 11.7098H4.37814C4.40078 11.7866 4.42342 11.8606 4.44889 11.9346L4.09233 12.2987C3.76123 12.6316 3.76123 13.1721 4.09233 13.505L4.83375 14.2475C5.16484 14.5804 5.70252 14.5804 6.03361 14.2475L6.393 13.8862C6.46658 13.9118 6.54016 13.9374 6.61656 13.9573V14.4893C6.61656 14.9616 6.99576 15.3428 7.46552 15.3428H8.51257C8.98233 15.3428 9.36153 14.9616 9.36153 14.4893V13.9573C9.43793 13.9346 9.51151 13.9118 9.58509 13.8862L9.94448 14.2475C10.2756 14.5804 10.8132 14.5804 11.1443 14.2475L11.8829 13.505C12.214 13.1721 12.214 12.6316 11.8829 12.2987L11.5235 11.9374C11.549 11.8634 11.5745 11.7895 11.5943 11.7127H12.1235C12.5932 11.7127 12.9724 11.3314 12.9724 10.8592V9.80655C12.9724 9.33428 12.5932 8.95306 12.1235 8.95306H11.5943C11.5716 8.87625 11.549 8.80228 11.5235 8.72831L11.8829 8.367C12.214 8.03414 12.214 7.4936 11.8829 7.16074L11.1443 6.41821C10.8132 6.08535 10.2756 6.08535 9.94448 6.41821L9.58509 6.77952C9.51151 6.75391 9.43793 6.72831 9.36153 6.70839V6.17639C9.36153 5.69844 8.9795 5.31721 8.51257 5.31721Z" fill="#86888C"/>
<path d="M7.98905 8.85633C8.92008 8.85633 9.45775 9.3229 9.45775 10.3329C9.45775 11.3428 8.92008 11.8094 7.98905 11.8094C7.05803 11.8094 6.52035 11.3428 6.52035 10.3329C6.52035 9.3229 7.05803 8.85633 7.98905 8.85633ZM7.98905 8.00284C7.29008 8.00284 6.72693 8.20484 6.3166 8.60028C5.88929 9.01565 5.6714 9.59602 5.6714 10.3329C5.6714 11.0697 5.88929 11.6501 6.3166 12.0654C6.72693 12.4637 7.29008 12.6629 7.98905 12.6629C8.68803 12.6629 9.25117 12.4609 9.6615 12.0654C10.0888 11.6501 10.3067 11.0697 10.3067 10.3329C10.3067 9.59602 10.0888 9.01565 9.6615 8.60028C9.25117 8.20199 8.68803 8.00284 7.98905 8.00284Z" fill="#86888C"/>
</svg>
