<svg width="40" height="40" viewBox="0 0 40 40" fill="none" xmlns="http://www.w3.org/2000/svg">
<path d="M25.8682 21.9496C24.5652 21.9496 23.4726 22.3343 22.7134 23.0576C22.5595 23.2063 22.4159 23.3653 22.2928 23.5346L17.4504 21.1134C17.5171 20.7646 17.5479 20.3953 17.5479 20.0003C17.5479 19.6104 17.5171 19.2411 17.4504 18.8974L22.2979 16.4711C22.3954 16.6045 22.5031 16.7276 22.616 16.8456C23.3854 17.6355 24.5088 18.051 25.8682 18.051C27.2275 18.051 28.3509 17.6355 29.1204 16.8456C29.8796 16.071 30.2643 14.9886 30.2643 13.6395C30.2643 12.2289 29.8488 11.1157 29.028 10.336C28.2637 9.61275 27.1711 9.22803 25.8733 9.22803C24.5704 9.22803 23.4777 9.61275 22.7186 10.336C21.8978 11.1157 21.4823 12.2289 21.4823 13.6395C21.4823 13.9627 21.5028 14.2653 21.549 14.5577L16.6194 17.02C16.5271 16.9071 16.4245 16.7943 16.3167 16.6917C15.5524 15.9684 14.4598 15.5837 13.162 15.5837C11.8642 15.5837 10.7664 15.9684 10.0072 16.6917C9.1865 17.4714 8.771 18.5845 8.771 19.9952C8.771 21.3494 9.15572 22.4266 9.91491 23.2012C10.6844 23.9912 11.8078 24.4067 13.1671 24.4067C14.5265 24.4067 15.6499 23.9912 16.4193 23.2012C16.4911 23.1294 16.5527 23.0524 16.6194 22.9755L21.5541 25.4429C21.5131 25.7301 21.4874 26.0328 21.4874 26.3508C21.4874 27.705 21.8722 28.7823 22.6314 29.5568C23.4008 30.3468 24.5242 30.7623 25.8836 30.7623C27.2429 30.7623 28.3663 30.3468 29.1358 29.5568C29.895 28.7823 30.2797 27.6999 30.2797 26.3508C30.2797 24.9401 29.8642 23.827 29.0434 23.0473C28.2637 22.3343 27.1711 21.9496 25.8682 21.9496ZM25.8682 11.285C27.4686 11.285 28.2124 12.0339 28.2124 13.6447C28.2124 14.4398 28.0226 15.0399 27.6533 15.4195C27.2737 15.8094 26.6735 16.0043 25.8682 16.0043C25.0628 16.0043 24.4626 15.8094 24.083 15.4195C23.7137 15.0399 23.5239 14.4449 23.5239 13.6447C23.5239 12.0339 24.2677 11.285 25.8682 11.285ZM13.1466 22.3599C12.3412 22.3599 11.7411 22.165 11.3615 21.7752C10.9921 21.3956 10.8023 20.8005 10.8023 20.0003C10.8023 18.3896 11.5461 17.6407 13.1466 17.6407C14.2187 17.6407 14.9061 17.9792 15.2446 18.6871C15.26 18.7333 15.2754 18.7794 15.3011 18.8256C15.3062 18.8359 15.3113 18.8461 15.3165 18.8513C15.4344 19.1693 15.4909 19.5489 15.4909 20.0003C15.4909 20.4722 15.4242 20.8723 15.2959 21.2006C15.2805 21.2314 15.2652 21.2622 15.2549 21.293C15.1677 21.4776 15.0651 21.6418 14.9317 21.7752C14.5521 22.165 13.952 22.3599 13.1466 22.3599ZM27.6533 28.1359C27.2737 28.5258 26.6735 28.7207 25.8682 28.7207C25.0628 28.7207 24.4626 28.5258 24.083 28.1359C23.7137 27.7563 23.5239 27.1613 23.5239 26.3611C23.5239 24.7503 24.2677 24.0014 25.8682 24.0014C27.4686 24.0014 28.2124 24.7503 28.2124 26.3611C28.2124 27.1613 28.0226 27.7563 27.6533 28.1359Z" fill="#86888C"/>
<path d="M20 38C14.265 38 9.81248 36.5124 6.76546 33.5782C3.60559 30.5312 2 25.9658 2 20C2 14.0393 3.60046 9.46879 6.76546 6.42177C9.80735 3.4876 14.2599 2 20 2C25.7401 2 30.1875 3.4876 33.2345 6.42177C36.3944 9.46879 38 14.0342 38 20C38 25.9658 36.3944 30.5312 33.2345 33.5782C30.1875 36.5124 25.735 38 20 38ZM20 4.057C14.8139 4.057 10.8384 5.34967 8.19151 7.90425C5.44714 10.546 4.057 14.619 4.057 20.0051C4.057 25.3913 5.44714 29.4591 8.19151 32.106C10.8384 34.6606 14.8139 35.9533 20 35.9533C25.1861 35.9533 29.1616 34.6606 31.8085 32.106C34.5529 29.4642 35.943 25.3913 35.943 20.0051C35.943 14.619 34.5529 10.5512 31.8085 7.90425C29.1616 5.34967 25.1861 4.057 20 4.057Z" fill="#86888C"/>
</svg>
