<svg width="24" height="24" viewBox="0 0 24 24" fill="none" xmlns="http://www.w3.org/2000/svg">
<path fill-rule="evenodd" clip-rule="evenodd" d="M11.5874 11.5674C11.4991 11.6557 11.4508 11.8719 11.4508 12.1594C11.4508 12.4468 11.4991 12.6602 11.5874 12.7513C11.6727 12.8367 11.8748 12.8879 12.1423 12.8879C12.4098 12.8879 12.6118 12.8367 12.7001 12.7484C12.7883 12.6602 12.8367 12.4468 12.8367 12.1594C12.8367 11.8719 12.7854 11.6585 12.6972 11.5703C12.609 11.4792 12.4069 11.4308 12.1423 11.4308C11.8776 11.4308 11.6727 11.4792 11.5874 11.5674ZM12.1423 14.1742C11.539 14.1742 11.0637 14.0091 10.7393 13.6762C10.4007 13.3347 10.2299 12.8253 10.2299 12.1622C10.2299 11.502 10.4007 10.9898 10.7393 10.6483C11.0637 10.3153 11.539 10.1474 12.1423 10.1474C12.7456 10.1474 13.218 10.3153 13.5452 10.6483C13.8867 10.9926 14.0575 11.502 14.0575 12.1622C14.0575 12.8253 13.8839 13.3347 13.5452 13.6762C13.218 14.0063 12.7456 14.1742 12.1423 14.1742ZM13.2721 4.29653H11.0495C11.132 4.786 11.2003 5.20148 11.206 5.23847C11.2146 5.30108 11.2857 5.59135 11.4109 5.59135H12.8054C12.8964 5.59135 12.9505 5.4576 12.9846 5.34377C13.0615 5.05919 13.1781 4.63517 13.2721 4.29653ZM9.49004 2.85657C9.26523 2.85373 9.08594 2.66022 9.08879 2.42117C9.09163 2.18782 9.27376 2 9.49573 2H9.87137C10.2869 2 10.6397 2.29311 10.7536 2.73136C10.7906 2.87649 10.8418 3.13546 10.8987 3.43711H13.8127C13.9408 3.43711 14.0603 3.49972 14.1372 3.60785C14.214 3.71599 14.2396 3.85259 14.2026 3.98349C14.2026 3.98349 13.918 5.03358 13.7615 5.58281C13.6135 6.12066 13.2521 6.44508 12.8025 6.44508H11.4081C10.8162 6.44508 10.4718 5.88446 10.4007 5.36938C10.3523 5.07342 10.2584 4.49004 10.1645 3.95788C10.1616 3.94935 10.1616 3.94081 10.1588 3.92943C10.0848 3.50541 10.0108 3.12408 9.96813 2.95618C9.94252 2.86227 9.88275 2.85657 9.86853 2.85657C9.66648 2.85942 9.49004 2.85657 9.49004 2.85657ZM11.465 6.82072H11.4935C11.5703 6.82356 11.8691 6.85487 11.8691 7.23335C11.8691 7.61468 11.5703 7.64599 11.4963 7.64599H11.4622C11.3825 7.64314 11.0894 7.61468 11.0894 7.23051C11.0894 6.84917 11.3825 6.82072 11.4593 6.81787H11.465V6.82072ZM12.7171 6.82072H12.7456C12.8224 6.82356 13.1212 6.85487 13.1212 7.23335C13.1212 7.61468 12.8224 7.64599 12.7484 7.64599H12.7114C12.6318 7.64314 12.3386 7.61468 12.3386 7.23051C12.3386 6.84917 12.6318 6.82072 12.7114 6.81787H12.7171V6.82072ZM18.7587 20.6653H20.7792V12.8025H18.7587V20.6653ZM9.72055 20.6966L14.5299 20.6796V16.4337H9.72055V20.6966ZM6.68412 9.23392V20.708L8.49687 20.7023V15.7906C8.49687 15.4348 8.77006 15.1474 9.10871 15.1474H15.1389C15.4747 15.1474 15.7507 15.4348 15.7507 15.7906V20.6739L17.5407 20.6682V19.9567V9.23392C17.5151 9.22254 17.4809 9.21116 17.4496 9.21116H6.77519C6.74104 9.21116 6.70973 9.22254 6.68412 9.23392ZM3.22083 20.6653H5.24132V12.8025H3.22083V20.6653ZM21.3882 11.5162C21.7268 11.5162 22 11.8036 22 12.1594V21.3085C22 21.6614 21.7211 22 21.3853 22H2.61468C2.27888 22 2 21.6614 2 21.3085V12.1594C2 11.8036 2.27319 11.5162 2.61184 11.5162H5.46329V9.10586C5.46329 8.47695 6.07797 7.92772 6.77519 7.92772H17.4496C18.1497 7.92772 18.7615 8.4798 18.7615 9.10871V11.5191H21.3882V11.5162Z" fill="#86888C"/>
</svg>
