<svg width="40" height="40" viewBox="0 0 40 40" fill="none" xmlns="http://www.w3.org/2000/svg">
<path d="M20.5126 22.0866C15.3258 22.0866 12.4688 19.2296 12.4688 14.0428C12.4688 8.85609 15.3309 5.99902 20.5126 5.99902C25.6942 5.99902 28.5564 8.85609 28.5564 14.0428C28.5564 19.2296 25.6993 22.0866 20.5126 22.0866ZM20.5126 8.0471C18.531 8.0471 17.0308 8.52839 16.0478 9.47563C15.034 10.4536 14.5168 11.9896 14.5168 14.048C14.5168 16.1063 15.0288 17.6423 16.0478 18.6203C17.0308 19.5675 18.531 20.0488 20.5126 20.0488C22.4941 20.0488 23.9943 19.5675 24.9774 18.6203C25.9912 17.6423 26.5083 16.1063 26.5083 14.048C26.5083 11.9896 25.9963 10.4536 24.9774 9.47563C23.9994 8.52327 22.4992 8.0471 20.5126 8.0471Z" fill="#86888C"/>
<path d="M28.6225 17.9135H23.7737C23.2105 17.9135 22.7497 17.4527 22.7497 16.8895C22.7497 16.3263 23.2105 15.8655 23.7737 15.8655H28.6225C29.0885 15.8655 29.4264 15.763 29.6312 15.5582C29.8923 15.3022 29.9435 14.8465 29.9435 14.5137V14.4984L29.9589 13.505C29.9589 10.2947 29.1397 7.87797 27.5268 6.32143C25.96 4.81098 23.5996 4.04807 20.507 4.04807C17.7114 4.04807 15.5046 4.67274 13.9583 5.9067C12.3864 7.15602 11.4443 9.09145 11.1525 11.6567C11.0859 12.2199 10.579 12.6193 10.0158 12.5578C9.45257 12.4913 9.05319 11.9844 9.11463 11.4211C9.47305 8.29782 10.6712 5.9067 12.6783 4.30408C14.5983 2.77315 17.2352 2 20.507 2C24.1475 2 26.9892 2.95747 28.9451 4.84682C30.9778 6.80785 32.007 9.72123 32.007 13.5102V13.5255L31.9916 14.5188C31.9916 15.5582 31.669 16.4184 31.07 17.0124C30.4709 17.6063 29.6466 17.9135 28.6225 17.9135Z" fill="#86888C"/>
<path d="M22.5758 15.7065C21.8487 15.7065 21.3726 16.0854 21.3726 16.8995C21.3726 17.2887 21.4801 17.5805 21.6747 17.7751C21.8846 17.985 22.1918 18.0874 22.5707 18.0874C22.9496 18.0874 23.2568 17.985 23.4667 17.7751C23.6613 17.5805 23.7688 17.2887 23.7688 16.8995C23.7739 16.0854 23.3029 15.7065 22.5758 15.7065Z" fill="#86888C"/>
<path d="M22.576 18.6044C22.0538 18.6044 21.6134 18.4457 21.3165 18.1384C21.0195 17.8312 20.8659 17.4216 20.8659 16.8994C20.8659 15.8497 21.5213 15.1943 22.5811 15.1943C23.641 15.1943 24.2964 15.8497 24.2964 16.8994C24.2964 17.4165 24.1428 17.8363 23.8458 18.1384C23.5489 18.4405 23.0983 18.6044 22.576 18.6044ZM22.576 16.2184C22.0845 16.2184 21.8848 16.4181 21.8848 16.8994C21.8848 17.14 21.936 17.3141 22.0384 17.4165C22.1715 17.5496 22.4019 17.5803 22.5709 17.5803C22.7399 17.5803 22.9703 17.5547 23.1034 17.4165C23.2058 17.3141 23.257 17.14 23.257 16.8994C23.2621 16.4129 23.0624 16.2184 22.576 16.2184ZM35.9755 37.9996H5.02404C4.46082 37.9996 4 37.5388 4 36.9756V33.9803C4 31.1181 4.89603 28.6707 6.59593 26.9042C8.44432 24.9841 11.1887 23.9703 14.5271 23.9703H26.4725C29.8108 23.9703 32.5553 24.9841 34.4036 26.9042C36.1035 28.6707 36.9996 31.1181 36.9996 33.9803V36.9756C36.9996 37.5439 36.5439 37.9996 35.9755 37.9996ZM6.04807 35.9516H34.9515V33.9803C34.9515 31.6557 34.25 29.6998 32.929 28.3276C31.4544 26.7967 29.2835 26.0184 26.4725 26.0184H14.5322C11.7212 26.0184 9.55028 26.7967 8.07566 28.3276C6.74954 29.6998 6.04807 31.6557 6.04807 33.9803V35.9516Z" fill="#86888C"/>
</svg>
