<svg width="24" height="24" viewBox="0 0 24 24" fill="none" xmlns="http://www.w3.org/2000/svg">
<path d="M13.1739 14.1592C10.2923 14.1592 8.70508 12.572 8.70508 9.69046C8.70508 6.80894 10.2952 5.22168 13.1739 5.22168C16.0525 5.22168 17.6426 6.80894 17.6426 9.69046C17.6426 12.572 16.0554 14.1592 13.1739 14.1592ZM13.1739 6.3595C12.073 6.3595 11.2396 6.62689 10.6934 7.15313C10.1302 7.69643 9.8429 8.5498 9.8429 9.69331C9.8429 10.8368 10.1274 11.6902 10.6934 12.2335C11.2396 12.7597 12.073 13.0271 13.1739 13.0271C14.2747 13.0271 15.1082 12.7597 15.6543 12.2335C16.2175 11.6902 16.5048 10.8368 16.5048 9.69331C16.5048 8.5498 16.2204 7.69643 15.6543 7.15313C15.111 6.62404 14.2775 6.3595 13.1739 6.3595Z" fill="#86888C"/>
<path d="M17.6791 11.8408H14.9853C14.6724 11.8408 14.4164 11.5848 14.4164 11.2719C14.4164 10.959 14.6724 10.703 14.9853 10.703H17.6791C17.9379 10.703 18.1257 10.6461 18.2394 10.5324C18.3845 10.3901 18.413 10.137 18.413 9.95207V9.94354L18.4215 9.39169C18.4215 7.60816 17.9664 6.26554 17.0703 5.4008C16.1999 4.56166 14.8886 4.13782 13.1705 4.13782C11.6173 4.13782 10.3913 4.48485 9.53229 5.17039C8.65902 5.86446 8.13562 6.9397 7.97348 8.36481C7.9365 8.67771 7.65489 8.89959 7.34199 8.86545C7.02909 8.82847 6.80722 8.54686 6.84135 8.23396C7.04047 6.49879 7.7061 5.17039 8.82116 4.28005C9.88786 3.42953 11.3528 3 13.1705 3C15.1929 3 16.7717 3.53193 17.8583 4.58157C18.9876 5.67103 19.5593 7.28958 19.5593 9.39454V9.40307L19.5508 9.95491C19.5508 10.5324 19.3716 11.0102 19.0388 11.3402C18.706 11.6702 18.248 11.8408 17.6791 11.8408Z" fill="#86888C"/>
<path d="M14.3198 10.6147C13.9159 10.6147 13.6514 10.8252 13.6514 11.2775C13.6514 11.4937 13.7111 11.6558 13.8192 11.7639C13.9358 11.8806 14.1065 11.9375 14.317 11.9375C14.5275 11.9375 14.6982 11.8806 14.8148 11.7639C14.9229 11.6558 14.9826 11.4937 14.9826 11.2775C14.9855 10.8252 14.7238 10.6147 14.3198 10.6147Z" fill="#86888C"/>
<path d="M14.32 12.2245C14.0299 12.2245 13.7852 12.1364 13.6203 11.9657C13.4553 11.795 13.3699 11.5675 13.3699 11.2773C13.3699 10.6942 13.734 10.3301 14.3229 10.3301C14.9117 10.3301 15.2758 10.6942 15.2758 11.2773C15.2758 11.5646 15.1904 11.7979 15.0255 11.9657C14.8605 12.1335 14.6102 12.2245 14.32 12.2245ZM14.32 10.899C14.0469 10.899 13.936 11.0099 13.936 11.2773C13.936 11.411 13.9644 11.5077 14.0213 11.5646C14.0953 11.6386 14.2233 11.6556 14.3172 11.6556C14.411 11.6556 14.539 11.6414 14.613 11.5646C14.6699 11.5077 14.6983 11.411 14.6983 11.2773C14.7012 11.0071 14.5902 10.899 14.32 10.899ZM21.7642 22.9997H4.56891C4.25601 22.9997 4 22.7437 4 22.4308V20.7667C4 19.1766 4.4978 17.8169 5.44218 16.8356C6.46907 15.7688 7.99374 15.2056 9.84839 15.2056H16.4847C18.3394 15.2056 19.864 15.7688 20.8909 16.8356C21.8353 17.8169 22.3331 19.1766 22.3331 20.7667V22.4308C22.3331 22.7465 22.0799 22.9997 21.7642 22.9997ZM5.13782 21.8619H21.1953V20.7667C21.1953 19.4753 20.8056 18.3887 20.0717 17.6263C19.2525 16.7758 18.0464 16.3434 16.4847 16.3434H9.85123C8.28957 16.3434 7.08349 16.7758 6.26426 17.6263C5.52752 18.3887 5.13782 19.4753 5.13782 20.7667V21.8619Z" fill="#86888C"/>
</svg>
