<svg width="40" height="40" viewBox="0 0 40 40" fill="none" xmlns="http://www.w3.org/2000/svg">
<path fill-rule="evenodd" clip-rule="evenodd" d="M27.8669 35.7561C29.6754 35.7561 31.8322 34.9876 31.8322 31.34V31.2785H9.20858V31.34C9.20858 31.4322 9.20346 31.5244 9.19321 31.6166C9.19321 31.6166 9.02415 33.4251 10.0283 34.5778C10.7045 35.3514 11.8623 35.7458 13.471 35.7458L27.58 35.7407C27.6364 35.7407 27.6927 35.7407 27.7542 35.7458L27.8669 35.7561ZM10.8172 4.88943C10.4176 5.13534 9.20858 5.88843 9.20858 8.62416V29.0295H31.8322C31.8322 21.2833 31.8219 8.60367 31.8219 8.60367C31.8219 8.53707 31.8271 8.47047 31.8322 8.39875C31.8322 8.39875 31.9449 6.54419 30.8947 5.37612C30.2184 4.63327 29.1118 4.25416 27.6107 4.25416H13.4351C13.3839 4.25416 13.3378 4.24904 13.2866 4.24904H13.2097C12.887 4.24904 11.765 4.29515 10.8172 4.88943ZM33.9941 8.59855C33.9941 8.59855 34.0044 24.1574 34.0044 31.3349C34.0044 37.6004 29.1118 38 27.8618 38C27.6773 38 27.5749 37.9949 27.5749 37.9949C27.5749 37.9949 20.7048 38 13.4659 38C6.22694 38 7.02614 31.34 7.02614 31.34V8.62416C7.03127 2.35349 12.0673 2 13.2046 2C13.348 2 13.43 2.00512 13.43 2.00512L27.6056 2C34.573 2.00512 33.9941 8.59855 33.9941 8.59855ZM20.505 32.1853C21.3401 32.1853 21.8421 32.7027 21.8421 33.5736C21.8421 33.9989 21.7243 34.337 21.4938 34.5829C21.2581 34.8288 20.92 34.962 20.505 34.962C20.09 34.962 19.7519 34.8339 19.5163 34.5829C19.2857 34.337 19.1679 33.9989 19.1679 33.5736C19.1679 32.7027 19.6699 32.1853 20.505 32.1853Z" fill="#86888C"/>
</svg>
