<svg width="24" height="24" viewBox="0 0 24 24" fill="none" xmlns="http://www.w3.org/2000/svg">
<path fill-rule="evenodd" clip-rule="evenodd" d="M16.5927 20.7534C17.5974 20.7534 18.7957 20.3265 18.7957 18.3V18.2658H6.22699V18.3C6.22699 18.3512 6.22415 18.4024 6.21845 18.4537C6.21845 18.4537 6.12453 19.4584 6.68238 20.0988C7.05807 20.5285 7.7013 20.7477 8.595 20.7477L16.4333 20.7448C16.4646 20.7448 16.496 20.7448 16.5301 20.7477L16.5927 20.7534ZM7.12069 3.60524C6.89869 3.74185 6.22699 4.16024 6.22699 5.68009V17.0164H18.7957C18.7957 12.713 18.79 5.66871 18.79 5.66871C18.79 5.63171 18.7928 5.59471 18.7957 5.55486C18.7957 5.55486 18.8583 4.52455 18.2748 3.87562C17.8991 3.46293 17.2843 3.25231 16.4504 3.25231H8.57508C8.54662 3.25231 8.521 3.24947 8.49254 3.24947H8.44985C8.27054 3.24947 7.64723 3.27508 7.12069 3.60524ZM19.9967 5.66586C19.9967 5.66586 20.0024 14.3097 20.0024 18.2971C20.0024 21.778 17.2843 22 16.5899 22C16.4874 22 16.4305 21.9972 16.4305 21.9972C16.4305 21.9972 12.6138 22 8.59215 22C4.57052 22 5.01452 18.3 5.01452 18.3V5.68009C5.01737 2.19639 7.81515 2 8.447 2C8.52669 2 8.57223 2.00285 8.57223 2.00285L16.4476 2C20.3184 2.00285 19.9967 5.66586 19.9967 5.66586ZM12.5028 18.7696C12.9667 18.7696 13.2456 19.0571 13.2456 19.5409C13.2456 19.7771 13.1802 19.965 13.0521 20.1016C12.9212 20.2382 12.7333 20.3122 12.5028 20.3122C12.2722 20.3122 12.0844 20.2411 11.9535 20.1016C11.8254 19.965 11.7599 19.7771 11.7599 19.5409C11.7599 19.0571 12.0389 18.7696 12.5028 18.7696Z" fill="#86888C"/>
</svg>
