<svg width="24" height="24" viewBox="0 0 24 24" fill="none" xmlns="http://www.w3.org/2000/svg">
<path fill-rule="evenodd" clip-rule="evenodd" d="M8.77449 7.1623C8.6549 7.05125 8.59795 6.8918 8.59795 6.68109C8.59795 6.46754 8.6549 6.30524 8.77449 6.19419C8.88838 6.08884 9.05353 6.03474 9.26424 6.03474C9.47494 6.03474 9.64009 6.08884 9.75399 6.19419C9.87073 6.30524 9.93337 6.46754 9.93337 6.67825C9.93337 6.88895 9.87073 7.05125 9.75399 7.15945C9.64009 7.26481 9.4721 7.31891 9.26424 7.31891C9.05353 7.32175 8.89123 7.26765 8.77449 7.1623ZM20.0131 17.8485C20.0615 17.4442 19.9049 17.1338 19.7027 16.9487C19.5006 16.7608 19.176 16.664 18.7375 16.664C18.299 16.664 17.9744 16.7608 17.7694 16.9516C17.5587 17.1481 17.4505 17.467 17.4505 17.9026C17.4505 17.9169 17.4419 17.9311 17.4419 17.9482L17.2625 19.6509C17.2654 20.0268 17.3565 20.303 17.5387 20.471C17.7153 20.6333 18.0057 20.7187 18.3958 20.7187C18.783 20.7187 19.0706 20.6361 19.25 20.471C19.2927 20.4282 19.3269 20.377 19.361 20.3257C19.3582 20.3229 19.9362 18.4835 20.0131 17.8485ZM16.2005 17.1851C16.3058 16.7181 16.5137 16.3252 16.8411 16.0233C17.0433 15.8354 17.2825 15.6987 17.5473 15.5934C17.5729 15.3343 17.5985 15.0723 17.5985 14.7904C17.5985 13.4237 17.2853 12.3246 16.6987 11.4903C16.6048 11.5957 16.5308 11.7181 16.4254 11.8149C15.4174 12.7489 13.988 13.2215 12.1771 13.2215C10.369 13.2215 8.93679 12.7489 7.93166 11.8149C7.82631 11.7181 7.74943 11.5985 7.65547 11.4903C7.07175 12.3246 6.75569 13.4208 6.75569 14.7904C6.75569 15.0723 6.78132 15.3343 6.80695 15.5934C7.07175 15.6987 7.31093 15.8383 7.5131 16.0233C7.8377 16.3252 8.04841 16.7181 8.15376 17.1851C8.16515 17.2192 8.18508 17.2506 8.18793 17.2876L8.19077 17.3161C8.19647 17.3531 8.19932 17.3958 8.20216 17.4328L8.35023 18.8394C9.22722 19.5797 10.4544 19.9499 12.1259 19.9499C12.1429 19.9499 12.16 19.947 12.1771 19.947C12.197 19.947 12.2084 19.9499 12.2284 19.9499C13.8969 19.9499 15.127 19.5769 16.0011 18.8394L16.1492 17.4328C16.1549 17.3958 16.1577 17.3531 16.1634 17.3161L16.1663 17.2876C16.1691 17.2506 16.1891 17.2221 16.2005 17.1851ZM6.81834 20.471C7.00057 20.303 7.08884 20.0268 7.09453 19.6509L6.91515 17.9482C6.91515 17.9339 6.90376 17.9169 6.90376 17.9026C6.90376 17.467 6.79556 17.1452 6.5877 16.9516C6.37984 16.7608 6.05524 16.664 5.61674 16.664C5.17825 16.664 4.85364 16.7608 4.65148 16.9487C4.44932 17.1367 4.29556 17.4442 4.34112 17.8485C4.418 18.4835 4.99601 20.3229 4.99601 20.3229C5.02733 20.377 5.0615 20.4282 5.10706 20.4681C5.28645 20.6304 5.57118 20.7158 5.96128 20.7158C6.35421 20.7187 6.6418 20.6333 6.81834 20.471ZM4.97323 12.5438C3.86276 13.7995 4.5803 14.7335 5.10706 15.1777L5.27221 15.3144C5.30068 15.3371 5.34909 15.3685 5.38611 15.3941C5.40888 15.3912 5.43451 15.3884 5.45729 15.3884C5.4459 15.1862 5.41743 14.9983 5.41743 14.7876C5.41743 13.6287 5.62813 12.6293 6.00114 11.7608C5.62813 11.9772 5.2238 12.2648 4.97323 12.5438ZM6.74146 5.22323C7.00057 4.52278 7.39066 3.92483 7.90888 3.43793C7.5074 3.27847 7.11446 3.40091 6.74431 3.81948C6.29727 4.32631 6.30296 4.79898 6.74146 5.22323ZM12.1771 3.28132C10.7249 3.28132 9.60877 3.6344 8.85706 4.3377C8.07973 5.06093 7.68394 6.16572 7.68394 7.61788C7.68394 9.07005 8.07973 10.1691 8.85706 10.8895C9.48633 11.4732 10.3861 11.8007 11.5165 11.8946V8.71128C11.3599 8.64579 11.2175 8.56321 11.0979 8.45216C10.9413 8.30695 10.8531 8.17027 10.779 7.95957C10.779 7.95957 10.7335 7.80581 10.7335 7.68907C10.7335 7.58941 10.7904 7.44704 10.7904 7.44704C10.8645 7.29613 10.9413 7.18793 11.0609 7.07403C11.3371 6.82062 11.713 6.68964 12.1743 6.68109C12.6384 6.68964 13.0142 6.82062 13.2876 7.07403C13.41 7.18508 13.4869 7.29613 13.5609 7.44704C13.5609 7.44704 13.6179 7.58941 13.6179 7.68907C13.6179 7.80296 13.5752 7.95957 13.5752 7.95957C13.5011 8.17312 13.4129 8.30695 13.2563 8.45216C13.1367 8.56321 12.9943 8.64579 12.8377 8.71128V11.8946C13.9653 11.8007 14.8679 11.4732 15.4972 10.8895C16.2745 10.1691 16.6674 9.07005 16.6674 7.61788C16.6674 6.16572 16.2745 5.06093 15.4972 4.3377C14.7454 3.63724 13.6293 3.28132 12.1771 3.28132ZM17.6099 3.81663C17.2398 3.39806 16.8468 3.27847 16.4453 3.43508C16.9636 3.92198 17.3565 4.51993 17.6156 5.22039C18.0513 4.79898 18.0598 4.32631 17.6099 3.81663ZM19.381 12.5438C19.1333 12.2648 18.7289 11.9801 18.3531 11.7637C18.7261 12.6321 18.9339 13.6315 18.9339 14.7904C18.9339 14.9983 18.9083 15.1891 18.8941 15.3912C18.9169 15.3912 18.9425 15.3941 18.9653 15.3969C19.0051 15.3713 19.0535 15.3371 19.0792 15.3172L19.2472 15.1805C19.7739 14.7306 20.4915 13.7995 19.381 12.5438ZM20.631 16.0233C21.0923 16.4505 21.3257 17 21.3457 17.7489C21.3457 17.7802 21.34 17.8998 21.3286 17.971C21.32 18.0507 21.2859 18.2443 21.2859 18.2443L20.6253 20.7415C20.6196 20.7699 20.5997 20.7927 20.5883 20.8212C20.5826 20.8411 20.5826 20.861 20.5712 20.8781C20.5626 20.8895 20.5513 20.8981 20.5484 20.9095C20.5285 20.9379 20.5114 20.9607 20.4858 20.9863C20.3946 21.1315 20.2978 21.2768 20.1726 21.3935C19.7369 21.795 19.139 22 18.3901 22C17.6441 22 17.0404 21.795 16.6076 21.3935C16.3229 21.1315 16.135 20.7956 16.0268 20.4026C15.0159 20.9579 13.7603 21.2341 12.2255 21.2341C12.2056 21.2341 12.1942 21.2312 12.1743 21.2312C12.1572 21.2312 12.1429 21.2341 12.123 21.2341C10.5854 21.2341 9.33257 20.9579 8.31891 20.4026C8.21071 20.7956 8.02563 21.1315 7.74089 21.3935C7.30239 21.795 6.70444 22 5.95843 22C5.21241 22 4.61162 21.795 4.17597 21.3935C4.04784 21.2768 3.95387 21.1344 3.85991 20.9863C3.83998 20.9607 3.8172 20.9379 3.80011 20.9095C3.79442 20.8981 3.78018 20.8895 3.77449 20.8781C3.76595 20.8582 3.76595 20.8383 3.7574 20.8212C3.74601 20.7927 3.72893 20.7699 3.72039 20.7415L3.06264 18.2443C3.06264 18.2443 3.02563 18.0535 3.01708 17.971C3.00569 17.8998 3 17.783 3 17.7489C3.02278 17 3.25342 16.4505 3.71469 16.0233C3.78018 15.9636 3.85421 15.9151 3.9254 15.8667C2.99431 14.8901 2.51595 13.324 3.94818 11.7096C4.56321 11.0148 5.89294 10.2289 6.63041 10.1207C6.68451 10.1122 6.70729 10.0923 6.76708 10.0809L6.75854 10.0581C6.48519 9.34909 6.33713 8.53759 6.33713 7.61788C6.33713 7.25911 6.37415 6.93166 6.41686 6.60421C6.39693 6.59282 6.3713 6.59852 6.35137 6.58713C6.20046 6.49317 6.11788 6.43337 6.06663 6.39066L5.92426 6.27677C5.10137 5.582 4.55467 4.30353 5.7221 2.98804C6.88098 1.68109 8.25911 1.98576 9.09909 2.64636C9.9533 2.23064 10.9698 2 12.1714 2C13.373 2 14.3895 2.23064 15.2437 2.64636C16.0837 1.98576 17.4618 1.68109 18.6179 2.98804C19.7825 4.30353 19.2386 5.582 18.4157 6.27677L18.2762 6.39066C18.2221 6.43337 18.1395 6.49317 17.9886 6.58713C17.9687 6.59852 17.9459 6.59567 17.9231 6.60421C17.963 6.93166 18.0028 7.25911 18.0028 7.61788C18.0028 8.54043 17.8576 9.34909 17.5843 10.0581L17.5757 10.0809C17.6327 10.0923 17.6555 10.1122 17.7096 10.1207C18.4499 10.2289 19.7796 11.0148 20.3946 11.7096C21.824 13.324 21.3457 14.8901 20.4146 15.8667C20.4886 15.918 20.5655 15.9636 20.631 16.0233ZM15.09 7.31891C14.8793 7.31891 14.7141 7.26481 14.6002 7.15945C14.4806 7.05125 14.4208 6.88895 14.4208 6.6754C14.4208 6.46469 14.4806 6.30239 14.6002 6.19419C14.7141 6.08599 14.8821 6.03189 15.09 6.03189C15.3007 6.03189 15.4658 6.08599 15.5797 6.19419C15.6993 6.30239 15.7563 6.46469 15.7563 6.67825C15.7563 6.88895 15.6993 7.05125 15.5797 7.15945C15.4658 7.26765 15.3007 7.31891 15.09 7.31891Z" fill="#86888C"/>
</svg>
