<svg width="40" height="40" viewBox="0 0 40 40" fill="none" xmlns="http://www.w3.org/2000/svg">
<path fill-rule="evenodd" clip-rule="evenodd" d="M6.98919 18.2686C7.80876 18.2686 8.38247 17.6949 8.38247 16.8754C8.38247 16.0558 7.80876 15.4821 6.98919 15.4821C6.16961 15.4821 5.5959 16.0558 5.5959 16.8754C5.5959 17.7001 6.16448 18.2686 6.98919 18.2686ZM35.0905 18.3557C34.6346 18.7809 34.609 19.498 35.0341 19.9539L35.0956 20.0154C35.5208 20.4047 35.7513 21.0706 35.7513 21.9363C35.7513 23.6727 34.2299 23.9442 33.5743 23.9801H27.3711L22.4587 24.1235C21.8492 24.1389 21.3626 24.6409 21.3677 25.2555C21.3677 27.8475 21.3728 30.4445 21.383 33.0364L21.3933 33.2567C21.3984 35.0393 20.7018 35.7513 19.0729 35.7513C18.4735 35.7513 17.6642 35.6488 17.1929 35.1366C16.8446 34.7627 16.6961 34.1941 16.7473 33.4411L16.778 33.0928C16.7934 32.9391 16.8088 32.7906 16.819 32.6113C16.8241 32.5703 16.8293 32.5293 16.8293 32.4883C16.8754 30.3728 16.9061 27.6579 16.6961 25.4451C16.3785 22.1155 13.4382 20.2151 12.0501 19.5031V19.4878C12.0501 19.457 12.0603 19.4314 12.0603 19.4007V5.64713L16.5885 5.58566C17.1878 5.58566 17.782 5.41662 18.5299 5.20148L18.9243 5.08879C20.2612 4.69949 21.7723 4.25384 25.5783 4.25384C31.8685 4.25384 32.2629 4.8634 32.7137 6.0774C32.8674 7.07627 32.7188 7.52191 32.5652 7.79852C32.2681 8.34661 32.473 9.02789 33.0159 9.32499C33.0518 9.34548 33.0825 9.36084 33.1184 9.37621C33.8765 9.68867 34.7832 10.288 34.7832 11.3176C34.7832 12.0398 34.6192 12.6084 34.317 12.967C34.1121 13.2077 34.0148 13.5304 34.0558 13.8429C34.0968 14.1554 34.2709 14.4422 34.5322 14.6266C35.3364 15.1799 35.7462 15.8611 35.7462 16.6448C35.7564 17.3722 35.531 17.9459 35.0905 18.3557ZM9.3967 5.09903C9.61696 5.09903 9.79112 5.27832 9.80649 5.49345V19.4263C9.79624 19.6466 9.61696 19.8207 9.3967 19.8207H4.65851C4.428 19.8207 4.2436 19.6312 4.2436 19.4007V5.51907C4.2436 5.28856 4.43312 5.10415 4.65851 5.10415L9.3967 5.09903ZM37.3034 19.1855C37.6927 18.576 38 17.7462 38 16.6397C38 15.4411 37.5185 14.3295 36.6323 13.4434C36.8628 12.9055 37.037 12.2038 37.037 11.3073C37.037 9.86796 36.284 8.62322 34.9368 7.77803C35.0649 7.14286 35.0546 6.42573 34.9163 5.59078C34.9061 5.52419 34.8856 5.45248 34.86 5.39101C33.8304 2.60444 32.1861 2 25.5783 2C21.4496 2 19.6978 2.51224 18.2891 2.92715L17.9101 3.03472C17.3312 3.20376 16.8651 3.33694 16.5731 3.33694L11.4456 3.40353C11.3227 3.40353 11.21 3.44963 11.0922 3.47524C10.6158 3.0757 10.0165 2.85544 9.3967 2.85031H4.65851C3.19351 2.85031 2 4.04382 2 5.51394V19.4007C2 20.8708 3.19351 22.0643 4.65851 22.0643H9.3967C10.0063 22.0643 10.5646 21.8492 11.0154 21.5009C12.0194 22.0131 14.2476 23.4064 14.4627 25.6602C14.6625 27.7143 14.6369 30.2806 14.5908 32.3142L14.5857 32.391C14.5805 32.5805 14.5652 32.7188 14.5498 32.8674L14.5139 33.2874C14.391 35.0239 15.0159 36.0842 15.5538 36.6682C16.3631 37.539 17.5822 38 19.078 38C21.9363 38 23.6471 36.2686 23.6471 33.3643L23.642 33.185L23.6318 32.9442C23.6318 30.6443 23.6266 27.8475 23.6215 26.3364L27.4069 26.2237H33.646C35.8486 26.1059 38.0051 24.7279 38.0051 21.9311C38 20.7069 37.6875 19.8207 37.3034 19.1855Z" fill="#86888C"/>
</svg>
