<svg width="20" height="20" viewBox="0 0 20 20" fill="none" xmlns="http://www.w3.org/2000/svg">
<path fill-rule="evenodd" clip-rule="evenodd" d="M17.009 15.0185V3.67571C17.009 3.29776 16.6993 2.98812 16.3191 2.98812H14.5387C14.4522 3.72124 13.7965 4.28815 13.0338 4.28815C12.271 4.28588 11.6222 3.72807 11.506 2.97219L9.74839 2.98812C9.36817 2.98812 9.05853 3.29776 9.05853 3.67571V6.83357C9.06081 6.86089 9.05853 6.88594 9.05853 6.91326V15.0162C9.05853 15.3965 9.36817 15.7038 9.74839 15.7038H11.5448C11.6631 15.0026 12.2984 14.4789 13.0338 14.4789C13.7691 14.4789 14.4044 15.0003 14.5478 15.7198L16.3191 15.7038C16.6993 15.7061 17.009 15.3987 17.009 15.0185ZM8.79443 16.9401L9.3363 16.635C8.59407 16.4506 8.07042 15.7835 8.06814 15.0162V14.9684C8.00667 14.9297 7.9543 14.8774 7.9156 14.8136L4.6826 9.08301C4.54827 8.84623 4.63251 8.54569 4.8693 8.41136H4.87157L8.06814 6.62183V4.47485L7.05498 5.04404C7.269 5.69291 6.99579 6.40326 6.39928 6.74022C5.80277 7.07263 5.04233 6.93375 4.60519 6.41692L3.27784 7.15915C3.00918 7.30941 2.91128 7.64865 3.06155 7.91731V7.91958L8.02944 16.7284C8.18426 16.9947 8.52349 17.0904 8.79443 16.9401ZM8.06814 13.0696V7.75566L5.79138 9.03292L8.06814 13.0696ZM16.3191 2.00001C17.2458 2.00001 17.9994 2.74906 18.0016 3.67571V15.0185C17.9994 15.9452 17.2458 16.6942 16.3191 16.6942H14.5228C14.0628 16.6942 13.6621 16.3664 13.5733 15.911C13.5119 15.6128 13.2204 15.4215 12.9222 15.483C12.7059 15.5285 12.5374 15.697 12.4942 15.911C12.4054 16.3641 12.0069 16.6919 11.5448 16.6942H11.0052C10.9255 16.8285 10.8162 16.9424 10.675 17.0198L9.27938 17.8007C8.91965 18.0033 8.49617 18.0534 8.10002 17.9419C7.70386 17.8326 7.3669 17.5685 7.16655 17.2088L2.19866 8.40453C1.99603 8.04708 1.94594 7.62361 2.05978 7.22973C2.16906 6.83357 2.43316 6.49889 2.79289 6.29853L4.17716 5.52443C4.57559 5.29676 5.07876 5.40149 5.35425 5.76805C5.48402 5.93425 5.72991 5.98434 5.91433 5.87961C6.10102 5.7726 6.18299 5.54492 6.11013 5.34457C5.94165 4.92109 6.11468 4.43842 6.51312 4.21757L7.89739 3.44348C7.96113 3.40705 8.03399 3.39111 8.10229 3.36379C8.25256 2.57148 8.94469 2.00001 9.74839 2.00001H11.5311C12.016 2.00001 12.419 2.34835 12.4873 2.83103C12.5283 3.09741 12.7605 3.30004 13.0338 3.30004C13.307 3.30004 13.5392 3.09969 13.5802 2.83103C13.6462 2.35291 14.056 1.99773 14.5387 2.00001H16.3191ZM10.7342 12.8419H15.4266V5.89099H10.7342V12.8419ZM15.923 4.90288C16.1962 4.90288 16.4193 5.12372 16.4193 5.39693V13.336C16.4193 13.6092 16.1962 13.83 15.923 13.83H10.2402C9.96696 13.83 9.74384 13.6092 9.74384 13.336V5.39693C9.74384 5.12372 9.96696 4.90288 10.2402 4.90288H15.923Z" fill="#86888C"/>
</svg>
