<svg width="20" height="20" viewBox="0 0 20 20" fill="none" xmlns="http://www.w3.org/2000/svg">
<path d="M3.99524 2C3.39255 2 3 2.31631 3 2.99971C3 3.32756 3.09006 3.56999 3.2517 3.73622C3.42488 3.914 3.68119 3.99942 3.99524 3.99942C4.30928 3.99942 4.56559 3.914 4.73878 3.73622C4.90041 3.57229 4.99047 3.32756 4.99047 2.99971C4.99047 2.31631 4.59792 2 3.99524 2ZM6.92321 2C6.32053 2 5.92798 2.31631 5.92798 2.99971C5.92798 3.32756 6.01803 3.56999 6.17967 3.73622C6.35286 3.914 6.60917 3.99942 6.92321 3.99942C7.23726 3.99942 7.49357 3.914 7.66675 3.73622C7.82839 3.57229 7.91845 3.32756 7.91845 2.99971C7.91845 2.31631 7.52821 2 6.92321 2ZM9.84888 2C9.2462 2 8.85365 2.31631 8.85365 2.99971C8.85365 3.32756 8.9437 3.56999 9.10534 3.73622C9.27853 3.914 9.53484 3.99942 9.84888 3.99942C10.1629 3.99942 10.4192 3.914 10.5924 3.73622C10.7541 3.57229 10.8441 3.32756 10.8441 2.99971C10.8441 2.31631 10.4516 2 9.84888 2ZM3.99524 4.7013C3.39255 4.7013 3 5.01991 3 5.70101C3 6.02886 3.09006 6.27359 3.2517 6.43752C3.42488 6.6153 3.68119 6.70072 3.99524 6.70072C4.30928 6.70072 4.56559 6.6153 4.73878 6.43752C4.90041 6.27359 4.99047 6.02886 4.99047 5.70101C4.99047 5.0176 4.59792 4.7013 3.99524 4.7013ZM6.92321 4.7013C6.32053 4.7013 5.92798 5.01991 5.92798 5.70101C5.92798 6.02886 6.01803 6.27359 6.17967 6.43752C6.35286 6.6153 6.60917 6.70072 6.92321 6.70072C7.23726 6.70072 7.49357 6.6153 7.66675 6.43752C7.82839 6.27359 7.91845 6.02886 7.91845 5.70101C7.91845 5.0176 7.52821 4.7013 6.92321 4.7013ZM14.7142 18H9.3986C8.86519 18 8.62966 17.4967 8.53037 17.2843C8.43338 17.0788 8.09625 16.3977 7.7037 15.6081C7.07562 14.3429 6.29282 12.7683 5.82869 11.7893C5.55621 11.2121 5.66474 10.6118 6.10809 10.2586C6.56761 9.89149 7.22571 9.90072 7.70601 10.2817C7.9554 10.4802 8.16322 10.7527 8.39413 11.1429V6.15123V6.12121C8.45186 5.21154 8.98296 4.68975 9.84657 4.68975C10.7448 4.68975 11.3036 5.25079 11.3036 6.15123V8.11371C11.456 8.07215 11.6131 8.05137 11.7701 8.05368C12.4536 8.05368 12.9316 8.39307 13.0978 8.96797C13.2687 8.91255 13.4488 8.88716 13.6289 8.88716C14.3171 8.88716 14.795 9.23117 14.959 9.81068C15.1299 9.75758 15.3077 9.72987 15.4878 9.73218C16.3468 9.73218 16.8779 10.2655 16.8779 11.1267V15.8551C16.8779 16.5131 16.6908 17.0349 16.326 17.4113C15.9612 17.7876 15.3839 18 14.7142 18ZM9.46557 17.0765H14.7142C15.1299 17.0765 15.4762 16.9657 15.6656 16.7694C15.8549 16.5732 15.9565 16.2661 15.9565 15.8574V11.1267C15.9565 10.7781 15.8342 10.6557 15.4901 10.6557C15.146 10.6557 15.0236 10.7781 15.0236 11.1267C15.0236 11.3807 14.8158 11.5885 14.5618 11.5885C14.3078 11.5885 14.1 11.3807 14.1 11.1267V10.2817C14.1 9.93304 13.9776 9.81068 13.6335 9.81068C13.2895 9.81068 13.1671 9.93304 13.1671 10.2817C13.1671 10.5356 12.9593 10.7434 12.7053 10.7434C12.4513 10.7434 12.2435 10.5356 12.2435 10.2817V9.44589C12.2435 9.09726 12.1211 8.97489 11.777 8.97489C11.4329 8.97489 11.3106 9.09726 11.3106 9.44589C11.3106 9.69986 11.1027 9.90765 10.8487 9.90765C10.5947 9.90765 10.3869 9.69986 10.3869 9.44589V6.15123C10.3869 5.75873 10.2414 5.61328 9.8535 5.61328C9.44248 5.61328 9.3478 5.80721 9.3224 6.16739C9.3224 6.486 9.32009 11.5238 9.3224 11.8563C9.32471 12.2488 9.11227 12.5651 8.79361 12.6459C8.62735 12.6874 8.20709 12.7175 7.86765 12.0895C7.56977 11.5377 7.35502 11.1844 7.13565 11.0113C6.97632 10.8866 6.78928 10.9027 6.68537 10.9859C6.55606 11.0874 6.60455 11.2652 6.6669 11.3968C7.12873 12.3688 7.9069 13.9388 8.53499 15.1994C8.94601 16.026 9.26929 16.6771 9.37089 16.8941C9.39398 16.9564 9.42631 17.0164 9.46557 17.0765ZM3.99524 7.4026C3.39255 7.4026 3 7.72121 3 8.40231C3 8.73016 3.09006 8.97489 3.2517 9.13882C3.42488 9.31659 3.68119 9.40433 3.99524 9.40433C4.30928 9.40433 4.56559 9.3189 4.73878 9.13882C4.90041 8.97489 4.99047 8.73016 4.99047 8.40231C4.99047 7.7189 4.59792 7.4026 3.99524 7.4026Z" fill="#86888C"/>
<path d="M6.92346 7.40283C6.32077 7.40283 5.92822 7.72145 5.92822 8.40254C5.92822 8.73039 6.01828 8.97513 6.17992 9.13905C6.3531 9.31683 6.60942 9.40456 6.92346 9.40456C7.2375 9.40456 7.49381 9.31914 7.667 9.13905C7.82864 8.97513 7.91869 8.73039 7.91869 8.40254C7.91869 7.71914 7.52845 7.40283 6.92346 7.40283Z" fill="#86888C"/>
</svg>
