<svg width="24" height="24" viewBox="0 0 24 24" fill="none" xmlns="http://www.w3.org/2000/svg">
<path fill-rule="evenodd" clip-rule="evenodd" d="M13.4965 6.31177H3.28435V7.08836H12.1106C12.466 7.08836 12.7527 7.38107 12.7527 7.74547V11.3327C12.7527 11.6941 12.466 11.9898 12.1106 11.9898H3.28435V13.322H21.5491C21.6208 13.1308 21.6745 12.9367 21.6954 12.7306C21.7163 12.5125 21.7074 12.2885 21.6626 12.0645H14.1386C13.7832 12.0645 13.4965 11.7718 13.4965 11.4074V6.31177ZM21.0652 10.7503C20.889 10.4994 20.6829 10.2485 20.435 9.99458C18.0843 7.59613 15.9935 6.7598 14.7838 6.47008V10.7503H21.0652ZM19.7002 15.4456C19.9391 15.2873 20.3155 15.0036 20.6769 14.6302H3.28435V15.5741C14.4851 15.5741 18.1351 15.592 19.1894 15.6009H19.1984C19.3776 15.6009 19.5479 15.5502 19.7002 15.4456ZM5.14219 10.6786V8.40258H3.28435V10.6786H5.14219ZM6.42654 10.6786H8.42177V8.40258H6.42654V10.6786ZM9.70613 10.6786H11.4684V8.40258H9.70613V10.6786ZM2.18817 16.6941C2.0687 16.5717 2 16.4044 2 16.2312V7.74547V5.65765C2 5.29624 2.28674 5.00054 2.64218 5.00054H13.6607C13.7832 4.99755 17.2749 4.91093 21.34 9.06567C22.5497 10.3022 23.0993 11.5806 22.9708 12.862C22.7886 14.687 21.2832 15.9504 20.4051 16.5418C20.0437 16.7837 19.6255 16.9122 19.1984 16.9122H19.1805C18.1052 16.9032 14.3418 16.8853 2.64218 16.8853C2.47193 16.8853 2.31063 16.8166 2.18817 16.6941ZM22.3466 17.6858C22.702 17.6858 22.9887 17.9785 22.9887 18.3429C22.9887 18.7073 22.702 19 22.3466 19H2.64218C2.28674 19 2 18.7073 2 18.3429C2 17.9785 2.28674 17.6858 2.64218 17.6858H22.3466Z" fill="#86888C"/>
</svg>
