<svg width="24" height="24" viewBox="0 0 24 24" fill="none" xmlns="http://www.w3.org/2000/svg">
<path fill-rule="evenodd" clip-rule="evenodd" d="M4.15962 18.659H9.17115C9.15223 18.5265 9.14142 18.3914 9.13871 18.2562V14.234C9.13871 14.0475 9.16304 13.8772 9.18737 13.715H8.14127C6.85731 13.715 5.8058 14.0962 5.11652 14.8125C4.4894 15.4693 4.15692 16.3992 4.15692 17.4885L4.15962 18.659ZM10.301 14.234V18.2562C10.301 18.5806 10.3632 18.8212 10.4794 18.9374C10.6335 19.0996 10.9822 19.1239 11.1741 19.1239H19.7375C19.9294 19.1239 20.27 19.0996 20.4322 18.9374C20.5403 18.8212 20.6025 18.5752 20.6025 18.2562V14.2259C20.6025 13.907 20.5403 13.6691 20.4322 13.561C20.316 13.4447 20.0673 13.3744 19.7375 13.3744L11.1741 13.3826C10.8335 13.3826 10.5876 13.4447 10.4794 13.561C10.3659 13.6772 10.301 13.9178 10.301 14.234ZM11.1768 20.2835C10.5578 20.2835 10.0848 20.1295 9.7388 19.8186H4.02988C3.46493 19.8186 3 19.3618 3 18.7968V17.4913C3 16.0911 3.4406 14.8909 4.28397 14.0178C5.19761 13.0582 6.53564 12.5554 8.14398 12.5554H9.89287C10.2172 12.3392 10.6416 12.2229 11.1768 12.2229L19.7402 12.2148C20.4133 12.2148 20.9242 12.3932 21.2621 12.7473C21.5945 13.0879 21.7648 13.5826 21.7648 14.2259V18.2562C21.7648 18.8996 21.6026 19.3942 21.2702 19.7402C20.9215 20.097 20.4025 20.2835 19.7402 20.2835H11.1768ZM8.06559 4.97325C7.49523 5.53009 7.2006 6.38156 7.2006 7.50334C7.2006 8.63053 7.49523 9.482 8.06559 10.0334C8.62242 10.5659 9.44957 10.839 10.5335 10.839C11.6256 10.839 12.4527 10.5686 13.0095 10.0334C13.5907 9.4766 13.8853 8.62512 13.8853 7.50334C13.8853 6.37886 13.5907 5.53009 13.0095 4.97325C12.4527 4.43264 11.6174 4.16233 10.5335 4.16233C9.46038 4.16233 8.62512 4.43264 8.06559 4.97325ZM10.5335 11.9986C9.14142 11.9986 8.04396 11.6201 7.26277 10.8687C6.44914 10.0875 6.04097 8.9576 6.04097 7.50334C6.04097 6.05449 6.44914 4.91919 7.26277 4.138C8.04396 3.38114 9.14142 3 10.5335 3C11.9256 3 13.0339 3.37843 13.8151 4.138C14.6341 4.91919 15.045 6.05719 15.045 7.50334C15.045 8.9576 14.6341 10.0875 13.8151 10.8687C13.0339 11.6201 11.9337 11.9986 10.5335 11.9986ZM21.9973 21.4188C21.9973 21.7432 21.7351 22 21.4161 22H9.52796C9.20629 22 8.94679 21.7405 8.94679 21.4188C8.94679 21.0972 9.20629 20.8377 9.52796 20.8377H21.4161C21.7324 20.8404 21.9973 21.1026 21.9973 21.4188Z" fill="#86888C"/>
</svg>
