<svg width="28" height="28" viewBox="0 0 28 28" fill="none" xmlns="http://www.w3.org/2000/svg">
<path fill-rule="evenodd" clip-rule="evenodd" d="M19.58 17.8486L14.6557 17.8793V14.8025C14.6625 14.7923 14.6762 14.7888 14.683 14.7786L17.2954 11.2168C17.5378 10.8856 17.4661 10.4246 17.1383 10.1787C16.8139 9.93625 16.3529 10.0046 16.1104 10.329L16.107 10.3324L14.6522 12.3164V11.0563C14.6522 10.6466 14.3244 10.3153 13.9146 10.3153C13.5083 10.3187 13.177 10.65 13.177 11.0563V15.4138L11.3022 13.5151C11.0188 13.2248 10.5544 13.2214 10.2641 13.5048L10.2573 13.5117C9.96699 13.8019 9.96699 14.2698 10.2538 14.56L13.177 17.5174V17.8793H7.29311C6.1457 17.8793 3.47183 17.5071 3.47183 14.0546C3.47183 12.115 4.29824 10.8924 5.92715 10.428C6.25156 10.3358 6.47012 10.0353 6.46329 9.70063L6.45646 9.5811C6.45646 3.9226 11.3671 3.48549 12.8731 3.48549C13.7268 3.48549 18.0364 3.68014 19.0575 7.50484C19.1394 7.81901 19.4229 8.04439 19.7473 8.05464C21.185 8.09562 24.5248 8.64883 24.5248 12.9209C24.5282 17.4935 20.741 17.8486 19.58 17.8486ZM20.3244 6.6033C18.8048 2.2288 13.8805 2 12.8765 2C11.5822 2 5.22709 2.35174 4.99146 9.18497C3.68697 9.71087 2 10.9846 2 14.0546C2 17.9681 4.73534 19.3648 7.29311 19.3648H13.1804V25.259C13.1804 25.6688 13.5117 26 13.918 26C14.3244 26 14.6557 25.6653 14.6557 25.259V19.3614L19.58 19.3307C22.5407 19.3307 26 17.6505 26 12.9175C26 8.63517 23.1622 6.86625 20.3244 6.6033Z" fill="#86888C"/>
</svg>
