<svg width="24" height="24" viewBox="0 0 24 24" fill="none" xmlns="http://www.w3.org/2000/svg">
<path fill-rule="evenodd" clip-rule="evenodd" d="M20.6036 12.2787C20.5268 12.3669 20.43 12.3868 20.3646 12.3868L18.5236 12.3811C17.9119 8.95248 16.3555 6.93513 14.9186 5.77707C16.4352 6.14412 17.6843 6.80708 18.6346 7.77735C19.6789 8.84436 20.3617 10.2813 20.6634 12.0511C20.6747 12.1307 20.6491 12.2218 20.6036 12.2787ZM12.6395 5.80552C13.9512 6.41443 16.4095 8.10741 17.2461 12.3811L12.6395 12.3698V5.80552ZM6.60161 12.3527C7.41253 8.22407 10.0616 6.44003 11.379 5.79698V12.3669L6.60161 12.3527ZM3.3323 12.2958C3.32091 12.2872 3.29246 12.2673 3.26116 12.2332C3.20141 12.1592 3.1758 12.0738 3.19003 11.9942C3.50302 10.23 4.19728 8.79883 5.25576 7.74036C6.24878 6.7388 7.56334 6.06729 9.16527 5.723C7.6487 6.89814 5.93295 8.94395 5.32689 12.347L3.50302 12.3413C3.44611 12.3413 3.37782 12.3242 3.3323 12.2958ZM21.9011 11.8405C21.5568 9.82601 20.7601 8.16716 19.5366 6.91805C17.9062 5.25352 15.5901 4.35439 12.6395 4.2235V3.62029C12.6395 3.27884 12.3578 3 12.0106 3C11.6635 3 11.3818 3.27884 11.3818 3.62029V4.2235C8.3828 4.31171 6.01546 5.19946 4.35947 6.87253C3.12174 8.1131 2.31081 9.76341 1.9523 11.7779C1.87547 12.2104 1.99498 12.66 2.30228 13.0356C2.42178 13.1693 2.54129 13.2717 2.66933 13.3486C2.91118 13.4965 3.20141 13.5819 3.49733 13.5847L11.3818 13.6075V20.7323C11.3818 20.7465 11.3818 20.7607 11.3846 20.7749C11.4103 22.007 12.4374 23 13.6922 23C14.9641 23 15.9998 21.9785 15.9998 20.7237C15.9998 20.3823 15.7181 20.1034 15.371 20.1034C15.0239 20.1034 14.7422 20.3823 14.7422 20.7237C14.7422 21.2928 14.2698 21.7566 13.6922 21.7566C13.1146 21.7566 12.6423 21.2928 12.6423 20.7237V13.6103L20.3674 13.6302C20.8341 13.6274 21.2751 13.4282 21.5824 13.064C21.8612 12.7112 21.9779 12.2645 21.9011 11.8405Z" fill="#86888C"/>
</svg>
