<svg width="20" height="20" viewBox="0 0 20 20" fill="none" xmlns="http://www.w3.org/2000/svg">
<path fill-rule="evenodd" clip-rule="evenodd" d="M16.1854 5.73307L14.9879 6.45706C12.9684 4.25322 10.9103 3.50191 9.34167 3.31294C10.5643 2.94184 11.7322 2.88492 12.8318 3.15357C14.0749 3.45865 15.2246 4.18719 16.2537 5.31871C16.3061 5.37563 16.3311 5.45759 16.3243 5.52816C16.3106 5.61468 16.2605 5.68981 16.1854 5.73307ZM7.60455 4.29875C8.76794 4.13938 11.4613 4.16898 14.1182 6.9807L10.4686 9.18226C10.4709 9.18226 7.60455 4.29875 7.60455 4.29875ZM6.37741 11.6525C5.0797 8.38314 6.1247 5.95846 6.78949 4.88386L9.6126 9.69907C9.61487 9.69907 6.37741 11.6525 6.37741 11.6525ZM4.02331 13.0754C3.95956 13.1141 3.92314 13.1483 3.7706 13.105C3.69091 13.0822 3.62716 13.0253 3.59301 12.9479C3.01473 11.5477 2.8622 10.2204 3.14451 8.99785C3.42682 7.74111 4.16219 6.59821 5.32103 5.58508C4.71998 7.08542 4.34205 9.37123 5.50999 12.1761L4.02331 13.0754ZM17.005 4.66302C15.8439 3.38352 14.5212 2.55252 13.0754 2.19736C11.1767 1.73291 9.13449 2.09035 6.98984 3.24692L6.73485 2.80979C6.59142 2.57301 6.28635 2.49105 6.04729 2.62765C5.81279 2.75515 5.72628 3.05112 5.85377 3.28562C5.85605 3.29017 5.85833 3.29245 5.8606 3.297L6.12925 3.75462C3.93907 5.14113 2.60038 6.83271 2.16325 8.78156C1.83541 10.1977 2.0016 11.7231 2.65957 13.3122C2.79617 13.6469 3.08303 13.9087 3.46324 14.0385C3.6044 14.0794 3.73645 14.0999 3.86166 14.0999C4.09616 14.0999 4.33977 14.0339 4.54923 13.911L10.1157 10.5506L14.339 17.7517C14.4802 17.9885 14.7852 18.0705 15.0266 17.9339C15.2634 17.8064 15.3499 17.5127 15.2224 17.2759L15.2155 17.2623L10.9718 10.036L16.7182 6.56861C17.046 6.36827 17.2668 6.0427 17.3238 5.65566C17.3647 5.29366 17.2509 4.93167 17.005 4.66302Z" fill="#86888C"/>
</svg>
