<svg width="40" height="40" viewBox="0 0 40 40" fill="none" xmlns="http://www.w3.org/2000/svg">
<path fill-rule="evenodd" clip-rule="evenodd" d="M16.3042 28.1599C22.9593 28.1599 28.3798 22.7917 28.3798 16.189C28.3798 9.59135 22.9645 4.22311 16.3042 4.22311C9.64905 4.22311 4.22863 9.59135 4.22863 16.189C4.23375 22.7917 9.64905 28.1599 16.3042 28.1599ZM37.6734 36.1098C38.1089 36.5452 38.1089 37.247 37.6734 37.6773C37.4531 37.8924 37.1713 38 36.8844 38C36.5975 38 36.3106 37.8924 36.0954 37.6773L25.439 27.115C22.9593 29.1486 19.7829 30.3728 16.3093 30.3728C8.4041 30.3728 2 24.0211 2 16.1838C2 8.35174 8.40922 2 16.3093 2C24.2094 2 30.6186 8.35174 30.6186 16.1838C30.6186 19.7797 29.2558 23.0529 27.0323 25.5578L37.6734 36.1098ZM16.3042 21.4752C18.9785 21.4752 19.7112 20.4969 19.7112 16.9215C19.7112 14.6779 19.3884 13.4843 18.6302 12.9158C18.1383 12.5521 17.3801 12.3728 16.3042 12.3728C15.2232 12.3728 14.4598 12.5521 13.968 12.926C13.22 13.4946 12.8972 14.6932 12.8972 16.9215C12.8972 20.4969 13.6298 21.4752 16.3042 21.4752ZM16.3144 9.65282C14.0295 9.65282 14.0295 10.1138 14.0295 10.7541V10.7797C14.675 10.5646 15.4179 10.4468 16.3042 10.4468C17.1956 10.4468 17.9436 10.5646 18.5943 10.7797C18.5943 10.7644 18.5994 10.7592 18.5994 10.749C18.5994 10.1138 18.5994 9.65282 16.3144 9.65282ZM22.7544 15.3028C23.2923 15.3028 23.7278 15.7331 23.7278 16.2658V17.6335C23.7278 18.1662 23.2923 18.5965 22.7544 18.5965C22.2165 18.5965 21.7861 18.1662 21.7861 17.6335V17.2288H21.6529C21.6427 18.2072 21.5658 19.1548 21.3353 20.0051L22.5905 20.3842C23.0157 20.5122 23.3026 20.9118 23.277 21.3523L23.1643 23.4115C23.1335 23.9237 22.7083 24.3233 22.196 24.3233H22.1447C21.6068 24.2925 21.1969 23.8418 21.2277 23.3142L21.2994 22.0028L20.5002 21.7621C19.7163 22.7661 18.4252 23.4013 16.3042 23.4013C14.178 23.4013 12.887 22.761 12.1031 21.7519L11.2731 21.9977L11.3449 23.3039C11.3705 23.8367 10.9606 24.2874 10.4278 24.3182H10.3766C9.86423 24.3182 9.439 23.9186 9.40826 23.4064L9.29555 21.3472C9.26993 20.9067 9.55684 20.502 9.98207 20.3739L11.268 19.9846C11.0477 19.1394 10.9657 18.1918 10.9555 17.2186H10.8223V17.6232C10.8223 18.1559 10.3868 18.5862 9.85399 18.5862C9.31604 18.5862 8.88056 18.1559 8.88056 17.6232V16.2556C8.88056 15.7228 9.31604 15.2925 9.85399 15.2925H11.0221C11.0938 14.5037 11.2475 13.7353 11.5395 13.0489L9.98207 12.5777C9.55171 12.4496 9.26993 12.0501 9.29555 11.6044L9.40826 9.54525C9.439 9.01252 9.92571 8.62834 10.4278 8.63859C10.9657 8.66932 11.3705 9.12009 11.3449 9.65282L11.2731 10.959L12.1236 11.2151C12.1082 11.0615 12.0826 10.9078 12.0826 10.7439C12.0826 7.72169 15.0439 7.72168 16.3093 7.72168C17.5748 7.72168 20.536 7.72169 20.536 10.7439C20.536 10.9027 20.5155 11.0512 20.5002 11.1998L21.2994 10.959L21.2277 9.6477C21.1969 9.11497 21.6119 8.6642 22.1447 8.63859C22.6724 8.66932 23.1386 9.01764 23.1643 9.55037L23.277 11.6096C23.2975 12.0501 23.0157 12.4496 22.5905 12.5777L21.0637 13.0336C21.3609 13.7251 21.5146 14.4935 21.5863 15.2874H22.7544V15.3028ZM16.253 13.7763C16.7909 13.7763 17.2213 14.2066 17.2213 14.7393V19.8617C17.2213 20.3944 16.7858 20.8247 16.253 20.8247C15.715 20.8247 15.2847 20.3944 15.2847 19.8617V14.7393C15.2795 14.2066 15.715 13.7763 16.253 13.7763Z" fill="#86888C"/>
</svg>
