<svg width="20" height="20" viewBox="0 0 20 20" fill="none" xmlns="http://www.w3.org/2000/svg">
<path d="M2.47809 6.57142C2.35587 6.57142 2.23365 6.52589 2.14019 6.43242C1.95327 6.2455 1.95327 5.94115 2.14019 5.75423L2.15457 5.73746C3.23297 4.66625 4.48391 3.8251 5.87385 3.23557C7.3213 2.62208 8.85981 2.31055 10.4487 2.31055C12.0231 2.31055 13.5544 2.61729 14.9971 3.22359C16.375 3.80353 17.6164 4.6303 18.6804 5.67994C18.8697 5.86686 18.8721 6.16882 18.6852 6.35813C18.4983 6.54745 18.1963 6.54985 18.007 6.36293C17.0293 5.39956 15.891 4.63989 14.6256 4.10788C13.3004 3.5519 11.8937 3.26912 10.4487 3.26912C8.98922 3.26912 7.57772 3.5543 6.24769 4.11746C4.97039 4.65906 3.8201 5.43071 2.83037 6.41565L2.81599 6.43003C2.72253 6.52349 2.60031 6.57142 2.47809 6.57142Z" fill="#86888C"/>
<path d="M4.59175 9.19072C4.46953 9.19072 4.34971 9.14519 4.25625 9.05413C4.06693 8.8696 4.06453 8.56525 4.25145 8.37593L4.26823 8.35916C5.06385 7.56833 5.98887 6.94526 7.01455 6.50671C8.10014 6.0442 9.25522 5.80935 10.4463 5.80935C11.6229 5.80935 12.7636 6.0394 13.842 6.49233C14.8605 6.92129 15.7759 7.52999 16.5668 8.30644C16.7561 8.49096 16.7585 8.79531 16.574 8.98463C16.3894 9.17395 16.0851 9.17634 15.8958 8.99182C15.1912 8.30164 14.3764 7.75765 13.4706 7.37662C12.512 6.97162 11.4935 6.76792 10.4463 6.76792C9.38463 6.76792 8.35656 6.97641 7.39079 7.3886C6.47535 7.77922 5.65097 8.33519 4.94163 9.03975L4.93204 9.04933C4.83858 9.14279 4.71636 9.19072 4.59175 9.19072ZM6.70541 11.8076C6.58319 11.8076 6.46097 11.7597 6.36751 11.6662C6.18059 11.4793 6.18059 11.175 6.36751 10.9881C6.88514 10.4704 7.48425 10.0606 8.15286 9.77306C8.87658 9.45912 9.64824 9.30096 10.4415 9.30096C11.2179 9.30096 11.9728 9.45433 12.6845 9.75389C13.3412 10.0295 13.9355 10.4249 14.4507 10.9233C14.64 11.1079 14.6448 11.4122 14.4603 11.6015C14.2758 11.7909 13.9714 11.7957 13.7821 11.6111C13.3531 11.1941 12.8571 10.8658 12.3107 10.6358C11.7188 10.3841 11.0885 10.2571 10.4415 10.2571C9.77765 10.2571 9.1354 10.3889 8.53389 10.6502C7.97792 10.8898 7.47706 11.2325 7.0457 11.6638C6.95224 11.7621 6.83002 11.8076 6.70541 11.8076Z" fill="#86888C"/>
<path d="M10.4103 16.3105C9.83755 16.3105 9.38223 16.1524 9.05631 15.8385C8.71841 15.5125 8.54587 15.0428 8.54587 14.4461C8.54587 13.8494 8.71841 13.3797 9.05631 13.0538C9.38223 12.7399 9.83755 12.5817 10.4103 12.5817C10.983 12.5817 11.4384 12.7399 11.7643 13.0538C12.1022 13.3797 12.2747 13.8494 12.2747 14.4461C12.2747 15.0428 12.1022 15.5125 11.7643 15.8385C11.4408 16.1524 10.9854 16.3105 10.4103 16.3105ZM10.4103 13.5403C9.76805 13.5403 9.50445 13.8039 9.50445 14.4461C9.50445 15.0884 9.76805 15.352 10.4103 15.352C11.0525 15.352 11.3162 15.0884 11.3162 14.4461C11.3162 14.1178 11.2443 13.883 11.0981 13.744C10.9591 13.6074 10.729 13.5403 10.4103 13.5403Z" fill="#86888C"/>
</svg>
