<svg width="28" height="28" viewBox="0 0 28 28" fill="none" xmlns="http://www.w3.org/2000/svg">
<path fill-rule="evenodd" clip-rule="evenodd" d="M25.5045 11.39C25.5318 11.3217 25.5216 11.267 25.4601 11.2056L18.0019 3.55902C17.8823 3.43607 17.6262 3.43607 17.5101 3.55902L11.1071 10.1229C12.0189 10.1571 12.7189 10.4166 13.2312 10.9323C13.7776 11.4856 14.0439 12.2472 14.0439 13.2615V19.7708H23.1311C23.3121 19.7708 23.435 19.6546 23.435 19.5488V12.3018C23.435 11.892 23.7663 11.5573 24.1761 11.5573H25.2176C25.4225 11.5539 25.4908 11.4275 25.5045 11.39ZM12.5619 22.8478V13.2546C12.5619 12.6536 12.4355 12.2335 12.1794 11.974C11.9233 11.7144 11.5066 11.588 10.9056 11.588H6.13492C5.54414 11.588 5.12751 11.7178 4.86456 11.9842C4.60503 12.2472 4.47867 12.6638 4.47867 13.2512V22.8444C4.47867 23.4523 4.60503 23.8724 4.86115 24.1285C5.11727 24.3846 5.53389 24.5076 6.13492 24.5076H10.9056C11.5066 24.5076 11.9233 24.3846 12.176 24.1285C12.4355 23.8758 12.5619 23.4557 12.5619 22.8478ZM26.5153 10.1605C26.9934 10.6489 27.13 11.3422 26.8705 11.9637C26.5973 12.616 25.945 13.0395 25.2142 13.0395H24.9103V19.5419C24.9103 20.4845 24.1112 21.2529 23.1277 21.2529H14.0405V22.8478C14.0405 23.8724 13.7707 24.6374 13.2175 25.1906C12.6745 25.737 11.9164 26 10.9056 26H6.13492C5.1241 26 4.36598 25.737 3.81959 25.1906C3.26637 24.6408 3 23.8758 3 22.8512V13.2581C3 12.2574 3.26637 11.4993 3.81276 10.9426C4.36598 10.3791 5.12751 10.1059 6.13492 10.1059H9.04787L16.4515 2.5174C17.1242 1.82753 18.3878 1.82753 19.0571 2.5174L26.5153 10.1605ZM8.51855 21.8574C9.02397 21.8574 9.3279 22.1648 9.3279 22.6736C9.3279 22.9229 9.25618 23.121 9.11617 23.2679C8.97616 23.4147 8.76785 23.4899 8.51855 23.4899C8.26926 23.4899 8.06437 23.4113 7.92094 23.2679C7.78093 23.1244 7.70921 22.9229 7.70921 22.6736C7.71263 22.1614 8.01314 21.8574 8.51855 21.8574ZM17.937 15.7682C18.2102 15.7648 18.2102 15.6418 18.2102 15.5223C18.2102 15.4028 18.2102 15.2798 17.9848 15.273H17.9301C17.7355 15.273 17.7218 15.372 17.7218 15.5155C17.7184 15.6657 17.7355 15.7682 17.937 15.7682ZM17.9984 14.286C18.6029 14.3031 19.1971 14.6924 19.1971 15.5257C19.1971 16.3624 18.6029 16.7483 18.0121 16.762C17.3359 16.7552 16.7349 16.3693 16.7349 15.5223C16.7349 14.6753 17.3325 14.2894 17.9233 14.286H17.9984ZM17.9199 8.38805C18.0121 8.38122 20.7509 8.2412 22.5916 10.3142C22.7725 10.5191 22.7555 10.8333 22.5506 11.0143C22.4584 11.0997 22.3388 11.1407 22.2227 11.1407C22.0896 11.1407 21.953 11.086 21.8539 10.9767C20.3377 9.27257 17.9677 9.37844 17.9506 9.37844C15.4338 9.40576 14.1157 10.8128 14.0644 10.8709C13.88 11.0724 13.5693 11.0894 13.3678 10.9016C13.1663 10.7172 13.1526 10.4064 13.3336 10.2049C13.4053 10.1298 14.9796 8.41878 17.9199 8.38805ZM17.9267 10.3518C18.0155 10.3518 20.1908 10.2698 21.5841 11.8408C21.7651 12.0457 21.7481 12.3565 21.5432 12.5409C21.3417 12.7219 21.0275 12.7048 20.8465 12.4999C19.7571 11.2773 17.9745 11.3285 17.9506 11.3422C16.1578 11.3626 15.0889 12.5136 15.0787 12.5238C14.9831 12.6331 14.8465 12.6843 14.7133 12.6843C14.5937 12.6843 14.4776 12.6399 14.382 12.558C14.1805 12.3735 14.1635 12.0628 14.3445 11.8613C14.4025 11.8032 15.7036 10.3757 17.9267 10.3518ZM17.9404 12.3599C17.9814 12.353 19.4498 12.3018 20.3889 13.3639C20.5699 13.5688 20.5528 13.8796 20.3479 14.064C20.1465 14.245 19.8323 14.228 19.6513 14.0231C19.0263 13.3229 17.9711 13.3366 17.9643 13.3503C16.9091 13.3605 16.3012 14.0128 16.2739 14.0401C16.1749 14.146 16.0417 14.2006 15.9085 14.2006C15.789 14.2006 15.6729 14.1562 15.5772 14.0743C15.3758 13.8899 15.3621 13.5791 15.5431 13.3776C15.5772 13.3332 16.4549 12.3769 17.9404 12.3599Z" fill="#86888C"/>
</svg>
