<svg width="20" height="20" viewBox="0 0 20 20" fill="none" xmlns="http://www.w3.org/2000/svg">
<path d="M16.7412 16.7412C16.921 16.5614 17.0189 16.3201 17.0189 16.0674L17.003 11.3168C17.0212 10.9777 16.9438 10.725 16.7845 10.5543C16.6206 10.3813 16.3747 10.2879 16.0674 10.2857L3.92574 10.288C3.67079 10.288 3.43178 10.3881 3.25196 10.5679C3.07213 10.75 2.97425 10.989 2.97425 11.2417L2.99018 15.9923C2.97197 16.3292 3.04937 16.5842 3.20871 16.7549C3.3726 16.9279 3.62071 17.0212 3.92574 17.0235L16.0674 17.0212C16.3224 17.0189 16.5637 16.921 16.7412 16.7412ZM9.99886 2.9788C9.68018 2.9788 9.42296 3.23602 9.42296 3.5547C9.42296 3.87111 9.68018 4.1306 9.99886 4.1306C10.3175 4.1306 10.5748 3.87338 10.5748 3.5547C10.5748 3.2383 10.3175 2.9788 9.99886 2.9788ZM9.99886 5.1094C9.74847 5.1094 9.51629 5.04567 9.30687 4.94096L4.93868 9.31142L15.075 9.30915L10.6909 4.93868C10.4814 5.04339 10.2493 5.1094 9.99886 5.1094ZM17.9818 11.3419L17.9977 16.0652C17.9977 16.5819 17.7974 17.0667 17.4332 17.4309C17.069 17.7951 16.5842 17.9954 16.0697 17.9977L3.92346 18C3.34756 17.9954 2.84223 17.7906 2.49851 17.4218C2.15251 17.0508 1.98407 16.5477 2.01593 15.965L2 11.2417C2 10.725 2.20031 10.2401 2.56452 9.87594C2.82629 9.61417 3.1518 9.4389 3.5069 9.35923L8.61716 4.24669C8.51245 4.03727 8.44644 3.80509 8.44644 3.5547C8.44644 2.69654 9.14298 2 9.99886 2C10.8547 2 11.5513 2.69654 11.5513 3.5547C11.5513 3.80509 11.4876 4.03727 11.3828 4.24669L16.4999 9.35012C16.896 9.42751 17.242 9.61189 17.4992 9.88505C17.8452 10.2538 18.0137 10.7569 17.9818 11.3419Z" fill="#86888C"/>
<path d="M5.09802 12.603C5.07298 12.5097 5.05249 12.4323 5.03428 12.3754C5.01607 12.3139 4.99331 12.257 4.96827 12.2024C4.93868 12.1409 4.8977 12.0908 4.8499 12.0521C4.79527 12.0089 4.72698 11.9861 4.64731 11.9861C4.56992 11.9861 4.50163 12.0089 4.447 12.0521C4.39692 12.0908 4.35823 12.1432 4.32863 12.2069C4.30359 12.2615 4.27856 12.3298 4.25579 12.4118L3.67534 14.4969C3.65258 14.5742 3.63664 14.6334 3.62754 14.679C3.61616 14.7268 3.6116 14.7746 3.6116 14.8224C3.6116 14.9111 3.63892 14.9908 3.689 15.0614C3.76184 15.1593 3.84378 15.1797 3.90069 15.1797C3.9963 15.1797 4.07141 15.1365 4.11466 15.0545C4.14425 14.9976 4.18067 14.8929 4.22165 14.7404L4.30132 14.4354H4.99786L5.07753 14.7336V14.7359C5.09119 14.7814 5.10712 14.8337 5.12533 14.8929C5.14582 14.9589 5.16403 15.0067 5.18452 15.0409C5.20728 15.0819 5.23687 15.1137 5.27101 15.1388C5.30971 15.1661 5.35524 15.1797 5.40759 15.1797C5.46678 15.1797 5.55327 15.1593 5.62612 15.0568C5.67619 14.9863 5.70351 14.9043 5.70351 14.8178C5.70351 14.7427 5.68075 14.6334 5.6375 14.4809L5.09802 12.603ZM4.83852 13.8094H4.45838L4.64731 13.0674L4.83852 13.8094Z" fill="#86888C"/>
<path d="M7.38114 13.4839C7.53821 13.3337 7.61788 13.122 7.61788 12.8579C7.61788 12.7669 7.60649 12.6781 7.58601 12.5939C7.56324 12.5097 7.53138 12.4323 7.4904 12.3617C7.44715 12.2911 7.39708 12.2297 7.34245 12.1842C7.27416 12.125 7.19676 12.0863 7.11026 12.0658C7.03059 12.0476 6.93954 12.0385 6.83483 12.0385H6.16561C6.01537 12.0385 5.93798 12.1045 5.89928 12.1614C5.84693 12.2342 5.82189 12.3412 5.82189 12.4915V14.679C5.82189 14.8246 5.84693 14.9316 5.89473 15.0045C5.93343 15.0614 6.01309 15.1319 6.16561 15.1319H6.79386C6.90768 15.1319 7.00783 15.1228 7.09433 15.1069C7.18538 15.0887 7.26733 15.0591 7.34245 15.0159C7.45854 14.9453 7.54959 14.8338 7.6156 14.6881C7.67934 14.5469 7.7112 14.3853 7.7112 14.2101C7.71348 13.8754 7.60194 13.6342 7.38114 13.4839ZM6.42055 13.2312V12.6599H6.66867C6.80069 12.6599 6.89857 12.6804 6.95775 12.7168C7.01466 12.7555 7.02832 12.8557 7.02832 12.9331C7.02832 12.99 7.01921 13.04 7.001 13.0856V13.0878C6.98052 13.1425 6.95092 13.1812 6.91678 13.1971C6.88719 13.2108 6.828 13.229 6.71647 13.229H6.42055V13.2312ZM7.11026 14.1645C7.11026 14.4035 7.01011 14.5037 6.77793 14.5037H6.42055V13.8367H6.76199C6.88264 13.8367 6.97141 13.8618 7.02832 13.9119C7.08295 13.9597 7.11026 14.0439 7.11026 14.1645Z" fill="#86888C"/>
<path d="M8.20744 11.9861C8.14371 11.9861 8.05265 12.0089 7.98209 12.1181C7.93429 12.1933 7.90925 12.298 7.90925 12.4345V14.729C7.90925 14.8679 7.93201 14.9726 7.98209 15.0477C8.05265 15.157 8.14371 15.1797 8.20744 15.1797C8.27345 15.1797 8.36451 15.157 8.43507 15.05C8.48515 14.9749 8.50791 14.8702 8.50791 14.7313V12.4345C8.50791 12.2957 8.48287 12.191 8.43507 12.1159C8.36451 12.0089 8.27118 11.9861 8.20744 11.9861Z" fill="#86888C"/>
<path d="M10.2697 14.4786H9.38879V13.8322H10.1627C10.2811 13.8322 10.3448 13.7775 10.379 13.732C10.4222 13.6751 10.4427 13.6023 10.4427 13.5158C10.4427 13.4293 10.4199 13.3564 10.3767 13.2995C10.3426 13.2563 10.2788 13.2039 10.1627 13.2039H9.38879V12.6713H10.2356C10.3539 12.6713 10.4199 12.6189 10.4564 12.5734C10.5019 12.5165 10.5247 12.4414 10.5247 12.3526C10.5247 12.2638 10.5019 12.191 10.4564 12.1341C10.4222 12.0885 10.3562 12.0362 10.2356 12.0362H9.13613C9.05873 12.0362 8.995 12.0544 8.94036 12.0885C8.88573 12.125 8.84476 12.1796 8.81972 12.2524C8.79924 12.3162 8.78785 12.3936 8.78785 12.4892V14.6767C8.78785 14.8246 8.81289 14.9316 8.86297 15.0045C8.90167 15.0614 8.98134 15.1297 9.13385 15.1297H10.2652C10.3835 15.1297 10.4495 15.075 10.486 15.0295C10.5315 14.9703 10.5542 14.8952 10.5542 14.8064C10.5542 14.7154 10.5315 14.638 10.486 14.5788C10.4541 14.5333 10.3881 14.4786 10.2697 14.4786Z" fill="#86888C"/>
<path d="M14.2919 12.1386C14.2555 12.0908 14.1849 12.0362 14.0598 12.0362H12.735C12.6143 12.0362 12.546 12.0908 12.5073 12.1341C12.4572 12.1933 12.4322 12.2729 12.4322 12.3708C12.4322 12.3754 12.4322 12.3799 12.4322 12.3845C12.4208 12.364 12.4072 12.3435 12.3935 12.323C12.3366 12.2411 12.2706 12.1773 12.1955 12.1318C12.1317 12.0908 12.0612 12.0635 11.9838 12.0499C11.9132 12.0385 11.8267 12.0316 11.7288 12.0316H11.0505C10.9003 12.0316 10.8206 12.0999 10.7819 12.1546C10.7295 12.2274 10.7045 12.3344 10.7045 12.4824V14.7222C10.7045 14.8588 10.7273 14.9612 10.7728 15.0363C10.8252 15.1251 10.9071 15.1729 11.005 15.1729C11.0687 15.1729 11.162 15.1502 11.2303 15.0454C11.2781 14.9703 11.3032 14.8656 11.3032 14.7222V13.8845H11.3578C11.4147 13.8845 11.4625 13.8936 11.4967 13.9141C11.5217 13.9278 11.5604 13.9597 11.6082 14.0393C11.6537 14.1099 11.7038 14.2169 11.763 14.3557L11.9291 14.7495C11.9701 14.8451 11.9997 14.9157 12.0248 14.9635C12.0521 15.0204 12.0862 15.0682 12.1249 15.1069C12.1727 15.1547 12.2364 15.1797 12.307 15.1797C12.3662 15.1797 12.4186 15.1638 12.4641 15.1297C12.5073 15.0978 12.5392 15.0568 12.5642 15.0045C12.587 14.9544 12.5984 14.9043 12.5984 14.852C12.5984 14.8224 12.5938 14.7655 12.5506 14.6221C12.521 14.5196 12.4777 14.4058 12.4231 14.2806C12.3685 14.1554 12.3047 14.0348 12.2364 13.9232C12.1978 13.8595 12.1568 13.8049 12.1135 13.7571C12.241 13.6956 12.3434 13.6091 12.4163 13.4998C12.5119 13.3564 12.562 13.163 12.562 12.9285C12.562 12.8261 12.5506 12.7259 12.5278 12.6303C12.5688 12.669 12.6325 12.7054 12.735 12.7054H13.0992V14.729C13.0992 14.8679 13.1219 14.9726 13.172 15.0477C13.2426 15.1547 13.3336 15.1775 13.3996 15.1775C13.4634 15.1775 13.5544 15.1547 13.625 15.0477C13.6728 14.9726 13.6978 14.8679 13.6978 14.7268V12.7031H14.062C14.1872 12.7031 14.2555 12.6485 14.2919 12.603C14.3397 12.5415 14.3648 12.4641 14.3648 12.3708C14.3625 12.2775 14.3397 12.2001 14.2919 12.1386ZM11.9587 12.9649C11.9587 13.0514 11.9451 13.1174 11.9178 13.1607C11.8927 13.2017 11.8563 13.2312 11.8085 13.2472C11.7516 13.2677 11.6765 13.279 11.5877 13.279H11.3054V12.6599H11.5991C11.7744 12.6599 11.829 12.6827 11.8404 12.6918C11.8768 12.7123 11.9041 12.7441 11.9246 12.7896C11.9474 12.8397 11.9587 12.8989 11.9587 12.9649Z" fill="#86888C"/>
<path d="M16.3679 12.7532C16.2837 12.5119 16.1585 12.323 15.9923 12.1887C15.8239 12.0544 15.619 11.9861 15.3868 11.9861C15.2138 11.9861 15.059 12.0248 14.9202 12.1022C14.7836 12.1796 14.6675 12.2889 14.5742 12.4323C14.4831 12.5711 14.4126 12.7418 14.3648 12.9376C14.317 13.1311 14.2942 13.3451 14.2942 13.575C14.2942 13.8003 14.317 14.012 14.3625 14.2055C14.408 14.4035 14.4763 14.5742 14.5674 14.7154C14.6607 14.8611 14.7768 14.9749 14.9179 15.0568C15.059 15.1388 15.2184 15.1797 15.3959 15.1797C15.5735 15.1797 15.7328 15.1388 15.8717 15.0614C16.0105 14.9817 16.1266 14.8679 16.22 14.7222C16.311 14.5788 16.3793 14.4081 16.4248 14.2146C16.4681 14.0257 16.4908 13.8117 16.4908 13.5795C16.4908 13.2654 16.4499 12.9877 16.3679 12.7532ZM15.8876 13.575C15.8876 13.7935 15.8626 13.9801 15.8125 14.1281C15.7647 14.2692 15.7032 14.3739 15.6258 14.4377C15.553 14.4991 15.4756 14.5287 15.3914 14.5287C15.3254 14.5287 15.2662 14.5128 15.2093 14.4764C15.1524 14.4399 15.1 14.383 15.0545 14.3079C15.0067 14.2283 14.968 14.1258 14.9407 14.0029C14.9134 13.8754 14.8997 13.732 14.8997 13.5727C14.8997 13.4156 14.9134 13.2745 14.9407 13.1493C14.968 13.0287 15.0044 12.9285 15.0499 12.8511C15.0932 12.7783 15.1455 12.7236 15.2025 12.6872C15.2594 12.6508 15.3185 12.6349 15.3846 12.6349C15.4802 12.6349 15.5621 12.6667 15.6349 12.7327C15.7123 12.801 15.7738 12.9057 15.817 13.0469C15.8649 13.1948 15.8876 13.3724 15.8876 13.575Z" fill="#86888C"/>
</svg>
