<svg width="20" height="20" viewBox="0 0 20 20" fill="none" xmlns="http://www.w3.org/2000/svg">
<path fill-rule="evenodd" clip-rule="evenodd" d="M13.9863 9.47638C14.2618 9.47638 14.4872 9.69949 14.4872 9.97723C14.4872 10.255 14.2641 10.4781 13.9863 10.4781H10.4963V13.975C10.4963 14.2504 10.2732 14.4758 9.99545 14.4758C9.71998 14.4758 9.49459 14.2527 9.49459 13.975V10.4758H6.01138C5.73591 10.4758 5.51053 10.2527 5.51053 9.97496C5.51053 9.69721 5.73364 9.4741 6.01138 9.4741H9.49459V6.02504C9.49459 5.74957 9.7177 5.52419 9.99545 5.52419C10.2732 5.52419 10.4963 5.7473 10.4963 6.02504V9.47638H13.9863ZM10.346 16.996C12.3472 16.9596 16.9983 16.206 16.9983 10.0205C16.9983 3.83495 12.3199 3.05407 10.3096 3.00626C10.1184 3.00171 9.92715 2.99943 9.73591 2.99943H9.58566C7.60501 3.01764 3.00171 3.73022 3.00171 9.97496C3.00171 16.2288 7.65054 16.971 9.6494 16.9983C9.88162 17.0006 10.1138 17.0006 10.346 16.996ZM10.3324 2.00683C11.9032 2.04553 18 2.66477 18 10.0205C18 17.3944 11.8919 17.9659 10.3665 17.9954C10.2231 17.9977 10.0592 18 9.893 18C9.80649 18 9.71998 18 9.63347 17.9977C8.02618 17.975 2 17.3944 2 9.97496C2 2.5646 7.96927 2.01366 9.57655 2H9.73591C9.94081 2 10.1525 2.00228 10.3324 2.00683Z" fill="#86888C"/>
</svg>
