<svg width="40" height="40" viewBox="0 0 40 40" fill="none" xmlns="http://www.w3.org/2000/svg">
<path fill-rule="evenodd" clip-rule="evenodd" d="M32.5462 30.9689L11.8026 10.2306L31.0733 9.68612C31.9247 9.63882 32.5806 8.91787 32.5374 8.06308C32.4941 7.23727 31.8131 6.59271 30.9871 6.60016L8.13695 7.24693C8.03913 7.25057 7.94854 7.29044 7.85072 7.30857C7.76014 7.32671 7.66594 7.33397 7.57898 7.37021C7.39781 7.44994 7.23113 7.55865 7.0898 7.69994L7.08255 7.70719C6.94847 7.84848 6.84336 8.0115 6.76361 8.19262C6.72374 8.28318 6.71647 8.37736 6.70195 8.47153C6.68382 8.56209 6.64032 8.64903 6.63667 8.74682L6.00071 31.1819C5.97514 32.0331 6.64159 32.7428 7.49297 32.768C7.49297 32.768 7.4966 32.7716 7.50022 32.768C8.35161 32.7931 9.06188 32.1193 9.08745 31.2681L9.62108 12.4116L30.3646 33.1499C30.9659 33.751 31.9441 33.7507 32.5493 33.1457C33.1508 32.5443 33.1511 31.5664 32.5462 30.9689Z" fill="#86888C"/>
</svg>
