<svg width="20" height="20" viewBox="0 0 20 20" fill="none" xmlns="http://www.w3.org/2000/svg">
<path d="M2.00977 9.98972C2.00977 9.76167 2.11011 9.54502 2.28343 9.39907L9.72698 2.2018C9.73611 2.19268 9.74523 2.18584 9.75435 2.17672C10.0029 1.97375 10.345 1.93271 10.6323 2.07182C10.9106 2.19952 11.0884 2.47546 11.0884 2.78105L11.0884 5.98288L16.459 5.98288C17.3142 5.98288 18.0098 6.67843 18.0098 7.53362L18.0098 12.4435C18.0098 13.301 17.3165 13.9943 16.459 13.9943L11.0884 13.992L11.0884 17.2166C11.0884 17.5222 10.9106 17.8004 10.6323 17.9281C10.345 18.0673 10.0006 18.0262 9.75435 17.8232C9.74523 17.8164 9.73611 17.8073 9.72698 17.7982L2.28343 10.5826C2.11011 10.4344 2.00977 10.2178 2.00977 9.98972ZM10.2013 2.97489L2.94477 9.992L10.2013 17.0273L10.2013 13.8985C10.2013 13.4629 10.5662 13.1072 11.0132 13.1072L16.4567 13.1094C16.8239 13.1094 17.1227 12.813 17.1227 12.4458L17.1227 7.5359C17.1227 7.16874 16.8239 6.87227 16.459 6.87227L11.0155 6.87227C10.5685 6.87227 10.2036 6.51651 10.2036 6.08094L10.2036 2.97489L10.2013 2.97489Z" fill="#86888C"/>
</svg>
