<svg width="20" height="20" viewBox="0 0 20 20" fill="none" xmlns="http://www.w3.org/2000/svg">
<path fill-rule="evenodd" clip-rule="evenodd" d="M10.6253 17.3147V4.27661L16.8526 10.1616C17.135 10.4143 17.5678 10.3939 17.8229 10.1116C18.0689 9.83836 18.0575 9.42174 17.7956 9.16449L10.4112 2.18668C10.3793 2.15709 10.3383 2.14115 10.3018 2.11611C10.2677 2.09334 10.2358 2.06602 10.1971 2.05009C10.1151 2.01821 10.0285 2 9.93967 2H9.93511C9.84856 2.00228 9.76428 2.02049 9.68228 2.05236C9.64128 2.0683 9.60939 2.09562 9.57523 2.12066C9.54106 2.14343 9.50006 2.15709 9.46817 2.18668L2.21586 9.03927C1.94025 9.29881 1.92659 9.73136 2.18625 10.0068C2.18625 10.0068 2.18625 10.0091 2.18853 10.0091C2.44819 10.2846 2.88324 10.296 3.15884 10.0364L9.25407 4.27661L9.25407 17.3147C9.25407 17.6927 9.56156 18 9.94194 18C10.32 18 10.6275 17.6927 10.6253 17.3147Z" fill="#86888C"/>
</svg>
