<svg width="40" height="40" viewBox="0 0 40 40" fill="none" xmlns="http://www.w3.org/2000/svg">
<path d="M15.7092 2C15.8637 2 16.0123 2.01783 16.1668 2.04754C16.8798 2.20204 17.4503 2.68931 17.9138 3.15282L17.9435 3.18253L28.1525 14.0333L33.6254 8.56036L33.6432 8.54253C34.3444 7.87105 35.5388 7.67495 36.4837 8.07903C37.3631 8.45934 37.8861 9.28533 37.8801 10.2955V35.9368C37.9217 36.531 37.7316 37.0658 37.3394 37.458C36.9472 37.8502 36.4124 38.0404 35.8181 37.9928L10.0521 37.9809C9.14885 37.9869 8.39417 37.5056 8.02574 36.6796C7.59195 35.711 7.78805 34.4571 8.4833 33.6965C8.49519 33.6846 8.50707 33.6727 8.51302 33.6609L13.57 28.6217L3.1649 18.4603L3.15302 18.4484C2.37457 17.67 1.98831 16.844 2.0002 15.9824C2.01208 15.1445 2.41022 14.3304 3.18867 13.5579L13.8492 2.84975L13.8849 2.8141C14.4732 2.27335 15.0912 2 15.7092 2ZM16.2975 4.75725C15.935 4.40071 15.7746 4.31157 15.7151 4.2878C15.6795 4.30563 15.5904 4.35317 15.4418 4.4839L4.79905 15.1742C4.46627 15.507 4.28206 15.81 4.27612 16.024C4.27018 16.2914 4.53164 16.6122 4.75745 16.8321L15.3051 27.1362L15.317 27.148C16.1311 27.9621 16.1489 29.2695 15.3527 30.0657L10.159 35.2594C10.0937 35.3485 10.064 35.5743 10.0937 35.711L35.5983 35.7229V10.2955C35.5983 10.242 35.5923 10.2064 35.5864 10.1886C35.5091 10.147 35.2952 10.1529 35.212 10.2064L29.5846 15.8338C29.1983 16.2201 28.6516 16.434 28.099 16.4161C27.5583 16.3983 27.0532 16.1785 26.6669 15.7922L26.6431 15.7684L16.2975 4.75725Z" fill="#86888C"/>
</svg>
