<svg width="20" height="20" viewBox="0 0 20 20" fill="none" xmlns="http://www.w3.org/2000/svg">
<path d="M9.99954 18C9.77149 18 9.55484 17.8997 9.40889 17.7263L2.21163 10.2828C2.20251 10.2737 2.19567 10.2645 2.18655 10.2554C1.98358 10.0068 1.94253 9.66477 2.08164 9.37742C2.20935 9.0992 2.48529 8.92132 2.79088 8.92132H5.9927V3.55074C5.9927 2.69555 6.68825 2 7.54344 2H12.4534C13.3108 2 14.0041 2.69327 14.0041 3.55074L14.0018 8.92132H17.2265C17.532 8.92132 17.8103 9.0992 17.938 9.37742C18.0771 9.66477 18.036 10.0091 17.8331 10.2554C17.8262 10.2645 17.8171 10.2737 17.808 10.2828L10.5925 17.7263C10.4442 17.8997 10.2276 18 9.99954 18ZM2.98472 9.80844L10.0018 17.065L17.0372 9.80844H13.9083C13.4727 9.80844 13.117 9.44356 13.117 8.99658L13.1193 3.55302C13.1193 3.18586 12.8228 2.88712 12.4556 2.88712H7.54572C7.17856 2.88712 6.8821 3.18586 6.8821 3.55074V8.9943C6.8821 9.44128 6.52634 9.80616 6.09076 9.80616H2.98472V9.80844Z" fill="#86888C"/>
</svg>
