<svg width="20" height="20" viewBox="0 0 20 20" fill="none" xmlns="http://www.w3.org/2000/svg">
<path fill-rule="evenodd" clip-rule="evenodd" d="M9.99607 18C7.66938 18 6.33301 16.7297 6.33301 14.5122V4.56346C6.33301 2.93569 7.31423 2 9.02396 2C10.7337 2 11.7149 2.93341 11.7149 4.56346L11.7354 13.547C11.7354 14.494 11.1184 15.0814 10.1258 15.0814C9.13324 15.0814 8.51628 14.494 8.51628 13.5492V5.35572C8.51628 5.08025 8.75077 4.85942 9.03762 4.85942C9.32675 4.85942 9.55896 5.08253 9.55896 5.35572V13.547C9.55896 13.9499 9.70239 14.0842 10.1236 14.0842C10.547 14.0842 10.6882 13.9499 10.6882 13.547L10.6654 4.56346C10.6654 3.49345 10.1418 2.99488 9.0194 2.99488C7.89704 2.99488 7.37342 3.49345 7.37342 4.56346V14.5122C7.37342 16.1901 8.22942 17.0051 9.99152 17.0051C11.7536 17.0051 12.6096 16.1901 12.6096 14.5122L12.6187 5.31246C12.6187 5.03699 12.8532 4.81616 13.1401 4.81616C13.4292 4.81616 13.6614 5.03927 13.6614 5.31474L13.6523 14.5145C13.6591 16.7297 12.3228 18 9.99607 18Z" fill="#86888C"/>
</svg>
