<svg width="20" height="20" viewBox="0 0 20 20" fill="none" xmlns="http://www.w3.org/2000/svg">
<path fill-rule="evenodd" clip-rule="evenodd" d="M16.6837 12.7061C16.5107 12.8792 16.2533 12.9816 15.9163 13.0044C15.8275 13.009 15.1944 13.0112 15.1329 13.0112C15.0874 13.0112 14.4611 13.009 14.3905 13.0067C14.0353 12.9907 13.762 12.8883 13.5776 12.7061C13.4614 12.59 13.3772 12.4329 13.3248 12.2394H16.9342C16.8841 12.4329 16.7999 12.59 16.6837 12.7061ZM14.8369 6.58346L16.7338 11.1897H13.4478L14.8369 6.58346ZM12.6188 16.3173C12.9923 16.3173 13.2701 16.4084 13.45 16.5883C13.5411 16.6817 13.6095 16.8023 13.6573 16.9526H6.34045C6.386 16.8023 6.45659 16.6817 6.5454 16.5883C6.72303 16.4084 7.00313 16.3173 7.3766 16.3173H12.6188ZM9.55593 5.56568H9.69485C9.70168 5.56568 9.70851 5.57023 9.71534 5.57023C9.72217 5.57023 9.89069 5.56795 10.0342 5.56795V5.57023H10.2847C10.2915 5.57023 10.2983 5.56568 10.3052 5.56568H10.4418V15.2677H9.55593V5.56568ZM6.54768 11.1897H3.2616L5.15855 6.58346L6.54768 11.1897ZM6.41788 12.7061C6.2357 12.8883 5.96015 12.9885 5.60717 13.0067C5.53658 13.009 4.91033 13.0112 4.86479 13.0112C4.8033 13.0112 4.17022 13.009 4.08141 13.0044C3.74438 12.9816 3.48705 12.8815 3.3117 12.7061C3.19556 12.59 3.1113 12.4329 3.0612 12.2394H6.67065C6.61828 12.4329 6.53402 12.59 6.41788 12.7061ZM18 11.7134C18 11.6906 17.9886 11.6701 17.9863 11.6451C17.9818 11.5973 17.9772 11.5517 17.959 11.5085L15.5588 5.6818C15.6681 5.72961 15.7683 5.78426 15.8457 5.8594C15.9436 5.95731 16.0666 6.00512 16.1919 6.00512C16.3239 6.00512 16.456 5.95048 16.5562 5.84346C16.7475 5.63626 16.7407 5.30383 16.5403 5.10118C16.185 4.74598 15.7022 4.55016 15.1033 4.52056C15.0555 4.51829 12.3934 4.51601 10.8494 4.51601C10.9109 4.47502 10.9678 4.43404 11.0179 4.38395C11.2479 4.1517 11.3664 3.80788 11.3664 3.36388C11.3664 2.91533 11.2502 2.57151 11.0179 2.33926C10.797 2.11385 10.4759 2 10.066 2C10.0638 2 10.0592 2 10.0569 2.00228V2H9.93851C9.52861 2 9.20751 2.11385 8.98662 2.33926C8.75662 2.57151 8.6382 2.91533 8.6382 3.36388C8.6382 3.80788 8.75434 4.1517 8.98662 4.38395C9.03444 4.43404 9.09365 4.4773 9.15514 4.51601C7.60888 4.51601 4.94677 4.51601 4.90122 4.52056C4.30231 4.55016 3.81953 4.74598 3.46428 5.10118C3.2616 5.30155 3.25705 5.63398 3.44833 5.84346C3.54626 5.95275 3.67834 6.00512 3.81042 6.00512C3.93567 6.00512 4.06092 5.95731 4.15656 5.8594C4.23171 5.78426 4.33419 5.72734 4.44122 5.6818L2.04099 11.5085C2.02277 11.5517 2.0205 11.5995 2.01366 11.6451C2.01139 11.6679 2 11.6906 2 11.7134V11.7157C2 12.4625 2.20951 13.0499 2.61714 13.4621C2.96556 13.8127 3.43467 14.0108 4.01309 14.0518C4.07913 14.0564 4.79875 14.0609 4.86707 14.0609C4.91489 14.0609 5.60034 14.0586 5.65044 14.0564C6.26075 14.0268 6.75491 13.8287 7.11699 13.4644C7.52007 13.0613 7.72274 12.4898 7.73413 11.7726C7.73413 11.768 7.73413 11.7635 7.73641 11.7589C7.73641 11.743 7.73869 11.7316 7.73869 11.7157C7.73869 11.6861 7.7273 11.661 7.72274 11.6337C7.71819 11.6087 7.72274 11.5836 7.71591 11.5563L5.90777 5.56795C6.65016 5.56795 7.68175 5.56795 8.55394 5.56568V15.2677H7.38116C6.73669 15.2677 6.22431 15.4589 5.85084 15.8346C5.46371 16.224 5.26786 16.7773 5.26786 17.4763C5.26786 17.7655 5.49331 18 5.77114 18C5.78708 18 5.80074 17.9932 5.81668 17.9909C5.83034 17.9932 5.84401 18 5.85995 18H14.1446C14.1605 18 14.1742 17.9932 14.1902 17.9909C14.2038 17.9932 14.2175 18 14.2334 18C14.5112 18 14.7367 17.7655 14.7367 17.4763C14.7367 16.775 14.5408 16.224 14.1537 15.8346C13.7802 15.4589 13.2679 15.2677 12.6257 15.2677H11.4506V5.56568C12.3228 5.56568 13.3567 5.56568 14.0991 5.56795L12.2932 11.5563C12.2841 11.5836 12.2886 11.6087 12.2841 11.6337C12.2795 11.661 12.2681 11.6861 12.2681 11.7157C12.2681 11.7293 12.2704 11.743 12.2704 11.7589C12.2704 11.7635 12.2704 11.768 12.2727 11.7726C12.2841 12.4898 12.489 13.0613 12.8898 13.4644C13.2542 13.8287 13.7484 14.0268 14.3587 14.0564C14.4065 14.0586 15.0919 14.0609 15.1398 14.0609C15.2081 14.0609 15.9254 14.0564 15.9915 14.0518C16.5676 14.0108 17.039 13.8127 17.3874 13.4621C17.7905 13.0477 18 12.4602 18 11.7134Z" fill="#86888C"/>
</svg>
