<svg width="24" height="24" viewBox="0 0 24 24" fill="none" xmlns="http://www.w3.org/2000/svg">
<path fill-rule="evenodd" clip-rule="evenodd" d="M18.8425 19.1513C20.9344 17.0594 21.0027 15.0329 19.0531 12.9496C19.0047 12.8926 18.9706 12.8642 18.9393 12.8329L18.851 12.7475L18.0513 11.9477L11.6417 18.3573L11.9576 18.6732C12.0715 18.8013 12.1654 18.8923 12.2622 18.9834L12.4386 19.1542C13.4889 20.2044 14.5448 20.7452 15.5836 20.7623C16.6282 20.7736 17.7553 20.2414 18.8425 19.1513ZM10.7623 17.4806L17.169 11.0682L12.4842 6.38348L6.07749 12.7959L10.7623 17.4806ZM5.00733 11.7229L5.19803 11.9136L11.6076 5.50117L10.8619 4.75547C9.82018 3.74794 8.79272 3.24132 7.76526 3.24132C6.7008 3.24132 5.63918 3.78209 4.56049 4.86078C2.4031 7.01817 2.4031 9.11294 4.56049 11.2703L4.73126 11.4468C4.82233 11.5464 4.91056 11.6403 5.00733 11.7229ZM19.9838 12.1213C22.3632 14.6601 22.2807 17.4749 19.7248 20.0308C18.4099 21.3457 17.0352 22.0117 15.6406 22.0117H15.5637C14.1919 21.9889 12.8456 21.3229 11.562 20.0393L11.4055 19.8885C11.2803 19.7661 11.155 19.6466 11.0469 19.5242L10.3524 18.8297C10.341 18.8212 10.3268 18.8155 10.3183 18.8069L4.75403 13.2399C4.74549 13.2313 4.74264 13.2199 4.73695 13.2114L4.16203 12.6365C4.06526 12.5568 3.94856 12.4344 3.83187 12.312L3.68103 12.1555C2.39456 10.869 1.73141 9.52279 1.70579 8.15094C1.68018 6.72501 2.34333 5.32471 3.68103 3.98701C6.27387 1.39132 9.13426 1.35432 11.7385 3.87317L12.914 5.04863C12.9196 5.05432 12.9282 5.05717 12.9339 5.06001L18.4981 10.6271C18.501 10.6328 18.5038 10.6385 18.5067 10.6413L19.796 11.9306C19.8614 11.9932 19.924 12.0559 19.9838 12.1213ZM11.2063 11.4809C11.4539 11.2333 11.8523 11.2333 12.1 11.4809C12.3476 11.7286 12.3476 12.127 12.1 12.3746C11.8523 12.6223 11.4539 12.6223 11.2063 12.3746C10.9615 12.1299 10.9615 11.7286 11.2063 11.4809ZM10.6456 14.3726C10.8932 14.125 11.2945 14.125 11.5393 14.3726C11.7869 14.6203 11.7869 15.0187 11.5393 15.2663C11.2916 15.5139 10.8932 15.5139 10.6456 15.2663C10.4008 15.0216 10.4008 14.6203 10.6456 14.3726ZM15.0628 10.8519C15.3104 11.0996 15.3104 11.498 15.0628 11.7456C14.8152 11.9932 14.4167 11.9932 14.1691 11.7456C13.9215 11.498 13.9215 11.0967 14.1691 10.8519C14.4167 10.6043 14.8152 10.6043 15.0628 10.8519ZM8.37718 12.0815C8.6248 11.8339 9.02326 11.8339 9.27088 12.0815C9.51849 12.3291 9.51849 12.7276 9.27088 12.9752C9.02326 13.2228 8.6248 13.2228 8.37718 12.9752C8.12957 12.7276 8.12957 12.3291 8.37718 12.0815ZM11.9007 8.55794C12.1483 8.31032 12.5468 8.31032 12.7944 8.55794C13.042 8.80555 13.042 9.20402 12.7944 9.45163C12.5468 9.69925 12.1455 9.69925 11.9007 9.45163C11.6531 9.20686 11.6531 8.80555 11.9007 8.55794Z" fill="#86888C"/>
</svg>
