<svg width="40" height="40" viewBox="0 0 40 40" fill="none" xmlns="http://www.w3.org/2000/svg">
<path fill-rule="evenodd" clip-rule="evenodd" d="M29.9074 32.1341C29.9074 33.6454 29.5539 34.7212 28.8264 35.418C28.104 36.1147 27.0026 36.4528 25.4656 36.4528H15.0299C13.493 36.4528 12.3915 36.1147 11.6691 35.418C10.9417 34.7161 10.5882 33.6454 10.5882 32.1341V11.8466C10.5882 10.3763 10.9417 9.3209 11.6691 8.60367C12.4069 7.88131 13.5032 7.52782 15.0299 7.52782H25.4656C27.0077 7.52782 28.1092 7.87107 28.8315 8.57806C29.5539 9.28504 29.9074 10.3506 29.9074 11.8466V32.1341ZM17.1355 4.76135C17.1355 4.10559 17.3506 3.89555 17.4172 3.82895C17.489 3.75722 17.7041 3.54718 18.3855 3.54718H22.4533C23.15 3.54718 23.3549 3.7521 23.4266 3.8187C23.4932 3.8853 23.7033 4.09022 23.7033 4.76135V5.98065H17.1355V4.76135ZM29.9586 7.48684C28.9186 6.47246 27.4483 5.98065 25.4605 5.98065H25.2914V4.76135C25.2914 3.89042 25.0404 3.20905 24.5486 2.72748C24.0568 2.24591 23.3498 2 22.4533 2H18.3855C17.489 2 16.7871 2.25103 16.285 2.73773C15.7932 3.22442 15.5422 3.90579 15.5422 4.75623V5.97552H15.0299C13.0575 5.97552 11.5923 6.47759 10.5369 7.51245C9.50206 8.53195 9 9.95105 9 11.8415V32.1289C9 34.0757 9.51231 35.5102 10.5523 36.5143C11.5872 37.5133 13.0524 38 15.0299 38H25.4656C27.4431 38 28.9084 37.5133 29.9432 36.5143C30.9883 35.5102 31.4955 34.0757 31.4955 32.1289V11.8415C31.4955 9.92031 30.9935 8.49609 29.9586 7.48684Z" fill="#86888C"/>
</svg>
