<svg width="28" height="28" viewBox="0 0 28 28" fill="none" xmlns="http://www.w3.org/2000/svg">
<path fill-rule="evenodd" clip-rule="evenodd" d="M20.9377 22.0871V8.56253C20.9377 7.56551 20.7021 6.8519 20.2207 6.38412C19.7392 5.91293 19.0051 5.68417 17.9774 5.68417H11.0222C10.0047 5.68417 9.27401 5.91976 8.78233 6.4012C8.29748 6.87921 8.06189 7.58259 8.06189 8.56253V22.0837C8.06189 23.0875 8.29748 23.8045 8.78233 24.2723C9.26376 24.7367 9.99445 24.962 11.0222 24.962H17.974C19.0017 24.962 19.7324 24.7367 20.2138 24.2723C20.6987 23.8079 20.9377 23.0909 20.9377 22.0871ZM12.3094 3.84038V4.65301H16.6867V3.84038C16.6867 3.39309 16.5467 3.25651 16.5023 3.21212C16.4545 3.16773 16.318 3.03116 15.857 3.03116H13.1426C12.6884 3.03116 12.545 3.17115 12.5006 3.21895C12.4528 3.26334 12.3094 3.40333 12.3094 3.84038ZM20.9718 5.65685C21.6615 6.32949 21.9962 7.2787 21.9962 8.56594V22.0871C21.9962 23.3811 21.6581 24.3372 20.9616 25.0098C20.2753 25.6756 19.2953 26 17.974 26H11.0222C9.70081 26 8.72429 25.6756 8.03457 25.0098C7.33803 24.3406 7 23.3846 7 22.0905V8.56253C7 7.29919 7.33803 6.35339 8.02774 5.67392C8.73111 4.98421 9.70764 4.64959 11.0222 4.64959H11.251V3.84038C11.251 3.26675 11.4183 2.81263 11.7461 2.49168C12.0738 2.16731 12.545 2 13.1426 2H15.857C16.4545 2 16.9257 2.16389 17.2535 2.48485C17.5881 2.80922 17.7486 3.25309 17.7486 3.84038V4.65301H17.974C19.2988 4.65301 20.2787 4.98079 20.9718 5.65685ZM17.3389 22.77C18.114 22.77 18.7559 22.1963 18.831 21.4588H10.1618C10.2403 22.1963 10.8788 22.77 11.6539 22.77H17.3389ZM19.3705 20.4277C19.6641 20.4277 19.8997 20.6598 19.8997 20.9432V21.3086C19.8997 22.6846 18.7525 23.8011 17.3389 23.8011H11.6573C10.2437 23.8011 9.09304 22.6846 9.09304 21.3086V20.9432C9.09304 20.6598 9.33205 20.4277 9.62228 20.4277H19.3705Z" fill="#86888C"/>
</svg>
