<svg width="20" height="20" viewBox="0 0 20 20" fill="none" xmlns="http://www.w3.org/2000/svg">
<path d="M12.8764 18H5.04957C4.06268 18 3.29003 17.7151 2.7567 17.1499C2.25527 16.6188 2 15.8781 2 14.9504V5.09516C2 3.15783 3.1396 2 5.04957 2H12.8764C14.7863 2 15.9259 3.15783 15.9259 5.09516V9.02678C15.9259 9.27749 15.7208 9.48262 15.4701 9.48262C15.2194 9.48262 15.0142 9.27749 15.0142 9.02678V5.09516C15.0142 4.40228 14.841 3.86439 14.5014 3.49516C14.1459 3.10769 13.5989 2.91168 12.8764 2.91168H5.04957C4.32707 2.91168 3.78006 3.10769 3.4245 3.49516C3.0849 3.86439 2.91168 4.40228 2.91168 5.09516V14.9504C2.91168 16.3681 3.63191 17.0883 5.04957 17.0883H12.8764C14.294 17.0883 15.0142 16.3681 15.0142 14.9504V12.4228C15.0142 12.1721 15.2194 11.967 15.4701 11.967C15.7208 11.967 15.9259 12.1721 15.9259 12.4228V14.9504C15.9259 15.8781 15.6707 16.6188 15.1692 17.1499C14.6359 17.7128 13.8632 18 12.8764 18Z" fill="#86888C"/>
<path d="M12.8762 6.32818H5.095C4.84429 6.32818 4.63916 6.12306 4.63916 5.87234C4.63916 5.62163 4.84429 5.4165 5.095 5.4165H12.8762C13.1269 5.4165 13.332 5.62163 13.332 5.87234C13.332 6.12306 13.1269 6.32818 12.8762 6.32818ZM12.8762 9.09514H5.095C4.84429 9.09514 4.63916 8.89001 4.63916 8.6393C4.63916 8.38858 4.84429 8.18346 5.095 8.18346H12.8762C13.1269 8.18346 13.332 8.38858 13.332 8.6393C13.332 8.89001 13.1269 9.09514 12.8762 9.09514ZM12.8671 11.8621H5.095C4.84429 11.8621 4.63916 11.657 4.63916 11.4062C4.63916 11.1555 4.84429 10.9504 5.095 10.9504H12.8671C13.1178 10.9504 13.3229 11.1555 13.3229 11.4062C13.3229 11.657 13.1178 11.8621 12.8671 11.8621ZM10.5081 14.629H5.095C4.84429 14.629 4.63916 14.4239 4.63916 14.1732C4.63916 13.9225 4.84429 13.7174 5.095 13.7174H10.5081C10.7588 13.7174 10.9639 13.9225 10.9639 14.1732C10.9639 14.4239 10.7588 14.629 10.5081 14.629Z" fill="#86888C"/>
<path d="M10.2825 15.926C10.0318 15.926 9.82666 15.7231 9.82666 15.4701C9.82666 15.42 9.8335 15.3721 9.84945 15.3242L10.6312 12.9926C10.6563 12.9174 10.7019 12.849 10.7611 12.7966C12.5275 11.2376 15.2238 8.85131 15.4084 8.66669C16.0967 7.97837 17.0677 8.12652 17.6101 8.66669C17.9042 8.96527 18.0705 9.36641 18.0728 9.78578C18.0705 10.1915 17.9087 10.5653 17.6033 10.8661C17.3412 11.126 13.3708 14.6405 12.9195 15.0393C12.874 15.0804 12.8193 15.1123 12.76 15.1305L10.4238 15.9032C10.3782 15.9168 10.3304 15.926 10.2825 15.926ZM11.4586 13.4006L11.005 14.7522L12.3862 14.2963C14.1526 12.7328 16.7828 10.4012 16.9674 10.2188C17.0973 10.0889 17.1657 9.94305 17.1657 9.7835C17.1634 9.608 17.0928 9.43934 16.9697 9.31171C16.842 9.18407 16.4318 8.93792 16.058 9.31171C15.805 9.56242 12.2016 12.7442 11.4586 13.4006Z" fill="#86888C"/>
</svg>
