<svg width="24" height="24" viewBox="0 0 24 24" fill="none" xmlns="http://www.w3.org/2000/svg">
<path fill-rule="evenodd" clip-rule="evenodd" d="M12.249 16.6727C12.6353 16.6727 13.0159 16.8179 13.3056 17.111L16.9073 20.7166C16.9386 20.7365 17.0238 20.7052 17.0664 20.6824C17.1402 20.6483 17.1885 20.5743 17.1857 20.4917V3.50256C17.1857 3.38589 17.0948 3.29198 16.9783 3.28913H7.49693C7.38047 3.28913 7.28674 3.38019 7.28674 3.49687V20.4917C7.28674 20.6056 7.36059 20.6625 7.40604 20.6824C7.45149 20.7052 7.53954 20.7336 7.62759 20.6625L11.1838 17.1081C11.4707 16.8293 11.8513 16.6727 12.249 16.6727ZM16.9727 22C16.6517 22 16.3336 21.8947 16.0637 21.687L12.3967 18.0245C12.3115 17.9391 12.178 17.9419 12.0899 18.0302L8.47404 21.6329C7.95708 22.037 7.35207 22.0968 6.83511 21.8406C6.32099 21.5874 5.99718 21.0637 6.00002 20.4917V3.50256C6.00002 2.67445 6.67036 2 7.49693 2H16.9783C17.8021 2 18.4752 2.67445 18.4752 3.50541V20.4917C18.4752 21.0694 18.1543 21.5845 17.6373 21.8406C17.4243 21.9488 17.1999 22 16.9727 22Z" fill="#86888C"/>
</svg>
