<svg width="28" height="28" viewBox="0 0 28 28" fill="none" xmlns="http://www.w3.org/2000/svg">
<path fill-rule="evenodd" clip-rule="evenodd" d="M11.2502 24.631V19.2756C11.2502 18.8692 11.5746 18.5413 11.9708 18.5413H16.0283C16.4279 18.5413 16.749 18.8692 16.749 19.2756V24.6276H21.3154C21.4349 24.6276 21.5544 24.491 21.5544 24.4158V3.77657C21.5476 3.70485 21.4042 3.56481 21.3154 3.56481H6.68038C6.58816 3.56481 6.44471 3.70143 6.4413 3.77657V24.4158C6.4413 24.491 6.56425 24.6276 6.68038 24.6276L11.2502 24.631ZM21.3188 26.0996H6.68379C5.78554 26.0996 5 25.3141 5 24.4192V3.77998C5 2.89881 5.80262 2.09961 6.68379 2.09961H21.3188C22.1999 2.09961 23.0026 2.90223 23.0026 3.77998V24.4192C22.9991 25.3141 22.2136 26.0996 21.3188 26.0996ZM12.6949 24.5934H15.3077V20.01H12.6949V24.5934ZM10.1231 8.32588H11.7522V6.66941H10.1231V8.32588ZM12.4763 9.7945H9.40245C9.00285 9.7945 8.6818 9.46662 8.6818 9.06019V5.9351C8.6818 5.52867 9.00626 5.20079 9.40245 5.20079H12.4763C12.8759 5.20079 13.197 5.52867 13.197 5.9351V9.06019C13.197 9.46662 12.8725 9.7945 12.4763 9.7945ZM16.1957 8.32588H17.8248V6.66941H16.1957V8.32588ZM18.5489 9.7945H15.475C15.0754 9.7945 14.7544 9.46662 14.7544 9.06019V5.9351C14.7544 5.52867 15.0788 5.20079 15.475 5.20079H18.5489C18.9485 5.20079 19.2695 5.52867 19.2695 5.9351V9.06019C19.2695 9.46662 18.9451 9.7945 18.5489 9.7945ZM10.1231 14.4599H11.7522V12.8035H10.1231V14.4599ZM12.4763 15.9286H9.40245C9.00285 15.9286 8.6818 15.6007 8.6818 15.1942V12.0692C8.6818 11.6627 9.00626 11.3348 9.40245 11.3348H12.4763C12.8759 11.3348 13.197 11.6627 13.197 12.0692V15.1942C13.197 15.6007 12.8725 15.9286 12.4763 15.9286ZM16.1957 14.4599H17.8248V12.8035H16.1957V14.4599ZM18.5489 15.9286H15.475C15.0754 15.9286 14.7544 15.6007 14.7544 15.1942V12.0692C14.7544 11.6627 15.0788 11.3348 15.475 11.3348H18.5489C18.9485 11.3348 19.2695 11.6627 19.2695 12.0692V15.1942C19.2695 15.6007 18.9451 15.9286 18.5489 15.9286Z" fill="#86888C"/>
</svg>
