<svg width="21" height="20" viewBox="0 0 21 20" fill="none" xmlns="http://www.w3.org/2000/svg">
<path fill-rule="evenodd" clip-rule="evenodd" d="M16.4085 16.138C16.9457 15.5758 17.212 15.0249 17.2006 14.4946C17.1915 13.987 16.9252 13.468 16.4108 12.9513C16.215 12.751 15.9942 12.5757 15.7529 12.4323C15.3204 12.166 14.8925 12.0727 14.4714 12.1409C14.0321 12.2161 13.5859 12.4733 13.1512 12.908C13.0442 13.0127 12.9463 13.1266 12.853 13.2426C12.812 13.295 12.7597 13.3382 12.7028 13.3701C12.3659 13.5613 11.8901 13.4338 11.2118 12.9695C10.5062 12.4847 9.69128 11.6948 9.14043 11.1462L9.07442 11.0802C8.52585 10.5339 7.73826 9.72129 7.25115 9.0111C6.78679 8.33278 6.65932 7.85932 6.84825 7.51788C6.88012 7.4587 6.92337 7.40862 6.978 7.36765C7.11685 7.25839 7.19424 7.18783 7.31261 7.06946C7.74737 6.6347 8.00686 6.19083 8.0797 5.74924C8.15254 5.32358 8.05921 4.90703 7.79517 4.48137C7.64949 4.23554 7.47194 4.01019 7.26936 3.81216C6.7572 3.3 6.23822 3.03368 5.73061 3.02457C5.2048 3.01092 4.6494 3.27951 4.08716 3.81671C3.95514 3.94418 3.80036 4.13083 3.62281 4.37894C3.097 5.13465 3.13342 6.32513 3.70248 7.75006C4.33983 9.35026 5.59176 11.1098 7.32171 12.8397L7.34675 12.8671L7.38317 12.9035C9.11539 14.6334 10.8749 15.8854 12.4751 16.5227C13.8864 17.0849 15.0996 17.1214 15.8235 16.6206C15.9441 16.5341 16.2241 16.3315 16.4085 16.138ZM17.1346 12.2297C17.8448 12.9399 18.2113 13.6933 18.2249 14.4764C18.2409 15.2844 17.8789 16.0834 17.1483 16.8459C16.9002 17.1054 16.5747 17.3422 16.4517 17.4309C15.8918 17.8202 15.2544 18 14.5124 18C13.7794 18 12.9668 17.8247 12.095 17.4765C10.3651 16.7868 8.48715 15.4574 6.65932 13.6296L6.59786 13.5681C6.57965 13.5522 6.56144 13.5363 6.54779 13.5158C4.745 11.7016 3.43161 9.84193 2.75101 8.12792C2.04992 6.37521 2.05448 4.84557 2.76011 3.82126C2.8671 3.67103 3.11293 3.33187 3.37925 3.07693C4.14407 2.34625 4.93848 1.98888 5.74882 2.00026C6.52958 2.0162 7.28529 2.38267 7.99548 3.09059C8.25725 3.35008 8.48715 3.64144 8.67608 3.95784C9.06304 4.5838 9.20644 5.25074 9.09263 5.92451C8.98109 6.57779 8.62828 7.20831 8.03873 7.79559C7.97499 7.8616 7.90671 7.92306 7.83842 7.98451C7.87939 8.07784 7.95678 8.22352 8.09791 8.43066C8.53495 9.07028 9.27928 9.83738 9.80282 10.3564L9.86883 10.4224C10.3878 10.9414 11.1572 11.688 11.7945 12.125C12.0017 12.2661 12.1474 12.3435 12.2407 12.3845C12.2976 12.3208 12.3568 12.257 12.4319 12.1842C13.0192 11.5969 13.6497 11.2418 14.303 11.1303C14.979 11.0165 15.6437 11.1599 16.281 11.5537C16.5633 11.7221 16.8546 11.9497 17.1346 12.2297ZM11.9175 7.28798C11.8605 7.33123 11.8492 7.35399 11.8446 7.37903C11.8401 7.40635 11.8492 7.43594 11.8674 7.45643L12.6185 8.29408C12.6595 8.34644 12.6823 8.36692 12.7187 8.3692C12.7255 8.36237 12.7938 8.33506 12.8006 8.32823L14.8015 6.60966C15.0109 6.42756 15.3295 6.44805 15.5162 6.65291L15.8963 7.07174L16.5155 4.1718L16.5064 4.16953L13.5837 4.39715L13.9501 4.80688C14.1391 5.01857 14.1209 5.34179 13.9114 5.53072L13.9092 5.533L11.9175 7.28798ZM11.8287 8.94281L11.1071 8.14385C10.6928 7.68405 10.7293 6.97614 11.1891 6.56186C11.2164 6.53682 11.246 6.51178 11.2778 6.48902L12.8462 5.10734L12.7551 5.00718C12.4979 4.72038 12.4228 4.33114 12.5571 3.9897C12.6937 3.64827 13.0169 3.41609 13.4038 3.3865L16.4426 3.15204L16.5246 3.14977C16.8205 3.14977 17.1027 3.27496 17.2939 3.49348C17.5056 3.73476 17.5876 4.06027 17.5193 4.38122L16.8774 7.37903C16.7977 7.75006 16.5314 8.03914 16.1786 8.13247C15.828 8.22807 15.4525 8.11198 15.1975 7.82745L15.0905 7.70909L13.4676 9.10443C13.2422 9.31384 12.9395 9.41627 12.6322 9.38668C12.3135 9.36164 12.0222 9.19775 11.8287 8.94281Z" fill="#86888C"/>
</svg>
