<svg width="40" height="40" viewBox="0 0 40 40" fill="none" xmlns="http://www.w3.org/2000/svg">
<path d="M11.4432 38.1151C10.8638 38.1151 10.2279 38.0125 10.0074 37.9766L9.98171 37.9715L9.93556 37.9612C7.94581 37.5971 6.15607 35.7766 4.8894 32.833C3.58684 29.7971 2.89453 25.7458 2.89453 21.1099V20.9458C2.89453 16.3099 3.58171 12.2587 4.8894 9.21763C6.15607 6.27404 7.94581 4.45353 9.93556 4.08942L9.98171 4.0843L10.0074 4.07917C10.2381 4.04327 10.9407 3.92532 11.5458 3.94071C14.9715 4.01763 16.7766 5.83814 16.7766 9.19199C16.7817 9.80225 16.7099 10.4074 16.5612 11.0022C16.2894 12.1612 15.7099 13.0587 14.8433 13.674C13.9766 14.2894 12.8535 14.5971 11.4843 14.5971C11.1868 14.5971 10.8843 14.5817 10.5868 14.5458C10.5099 14.6074 10.1766 14.9561 9.95094 16.4279C9.73043 17.8433 9.70479 19.6843 9.70479 20.9407V21.1048C9.70479 22.3663 9.73043 24.2022 9.95094 25.6176C10.1817 27.0894 10.5099 27.4381 10.5868 27.4997C10.8843 27.4638 11.1817 27.4484 11.4843 27.4484C12.8484 27.4484 13.9817 27.7561 14.8433 28.3715C15.7048 28.9869 16.2894 29.8894 16.5612 31.0433C16.7099 31.633 16.7817 32.2433 16.7766 32.8535C16.7766 36.2125 14.9663 38.0279 11.5458 38.1048L11.4432 38.1151ZM10.274 36.0433L10.3304 36.0535C10.833 36.1356 11.2279 36.1715 11.5099 36.1664C12.7048 36.1407 13.5766 35.8535 14.0945 35.3151C14.5971 34.792 14.8381 33.992 14.8381 32.8638C14.8433 32.4176 14.792 31.9766 14.6843 31.5407C14.6791 31.5305 14.6791 31.5202 14.6791 31.5099C14.4689 30.6074 13.9099 29.4074 11.4997 29.4074C11.2279 29.4074 10.9612 29.4228 10.6894 29.4587C10.6381 29.4638 10.5868 29.4689 10.5356 29.4638C10.033 29.4433 9.32017 29.2279 8.77658 28.3151C8.47915 27.8228 8.25863 27.1612 8.09966 26.3048C7.86889 25.0638 7.76633 23.4638 7.76633 21.1099V20.9458C7.76633 18.592 7.86889 16.9869 8.09966 15.751C8.25863 14.8946 8.47915 14.233 8.77658 13.7407C9.32017 12.8279 10.033 12.6125 10.5356 12.592C10.5868 12.592 10.6381 12.592 10.6894 12.5971C10.9561 12.633 11.2279 12.6484 11.4997 12.6484C13.915 12.6484 14.474 11.4484 14.6791 10.5458C14.6791 10.5356 14.6843 10.5253 14.6843 10.5151C14.792 10.0843 14.8433 9.63814 14.8381 9.19199C14.8381 8.05866 14.592 7.25866 14.0945 6.74071C13.5715 6.20225 12.6997 5.91507 11.5048 5.8843C11.2227 5.87917 10.8227 5.91507 10.3253 5.99712L10.2689 6.00737C8.96633 6.25866 7.66376 7.70481 6.67915 9.98686C5.84325 11.9356 4.84325 15.4176 4.84325 20.9356V21.1099C4.84325 26.6279 5.84325 30.1099 6.67915 32.0587C7.65863 34.3407 8.96633 35.7869 10.2638 36.0381L10.274 36.0433ZM20.8945 38.9407C20.3561 38.9407 19.9202 38.5048 19.9202 37.9663C19.9202 37.4279 20.3561 36.992 20.8945 36.992C29.7356 36.992 36.9048 29.8228 36.8997 20.9817C36.8997 16.7356 35.2125 12.6638 32.2125 9.66378C29.2176 6.65353 25.1407 4.96122 20.8945 4.9766C20.3561 4.9766 19.9202 4.54071 19.9202 4.00225C19.9202 3.46378 20.3561 3.02789 20.8945 3.02789C30.8125 3.03301 38.8535 11.0843 38.8433 21.0022C38.8381 28.2125 34.5253 34.7202 27.8843 37.5304C25.674 38.4638 23.2945 38.9458 20.8945 38.9407Z" fill="#86888C"/>
<path d="M20.8945 38.9404C20.3561 38.9404 19.9202 38.5045 19.9202 37.9661C19.9202 37.4276 20.3561 36.9917 20.8945 36.9917C21.8125 36.9917 22.7202 36.6173 23.592 35.884C24.5099 35.1148 25.3407 33.9917 26.0638 32.5507C27.6125 29.4737 28.4638 25.3661 28.4638 20.9814C28.4638 16.5968 27.6125 12.484 26.0638 9.41221C25.3407 7.97118 24.5048 6.8481 23.592 6.07887C22.7202 5.34554 21.8125 4.97118 20.8945 4.97118C20.3561 4.97118 19.9202 4.53528 19.9202 3.99682C19.9202 3.45836 20.3561 3.02246 20.8945 3.02246C23.5612 3.02246 26.0176 4.98144 27.8074 8.53528C29.4894 11.8789 30.4125 16.2943 30.4125 20.9814C30.4125 25.6686 29.4894 30.0891 27.8074 33.4276C26.0176 36.9814 23.5612 38.9404 20.8945 38.9404Z" fill="#86888C"/>
<path d="M20.8945 15.566C20.3561 15.566 19.9202 15.1302 19.9202 14.5917C19.9202 14.0532 20.3561 13.6173 20.8945 13.6173C23.4894 13.6173 25.9715 13.325 28.2689 12.7404C30.433 12.1917 32.3458 11.4019 33.8125 10.443C34.2586 10.1404 34.8638 10.2635 35.1663 10.7096C35.4689 11.1558 35.3458 11.7609 34.8997 12.0635C34.8945 12.0686 34.8843 12.0737 34.8792 12.0789C31.4792 14.2943 26.3817 15.566 20.8945 15.566ZM34.3458 32.0943C34.1561 32.0943 33.9715 32.0378 33.8125 31.9353C32.3458 30.9814 30.433 30.1866 28.2689 29.6378C25.9715 29.0584 23.4894 28.7609 20.8945 28.7609C20.3561 28.7609 19.9202 28.325 19.9202 27.7866C19.9202 27.2481 20.3561 26.8122 20.8945 26.8122C26.3817 26.8122 31.4792 28.084 34.8792 30.2994C35.3304 30.5917 35.4586 31.1968 35.1612 31.6481C34.9817 31.9302 34.674 32.0943 34.3458 32.0943Z" fill="#86888C"/>
<path d="M20.6689 39.0122C20.1304 39.0122 19.6945 38.5763 19.6945 38.0378V3.98657C19.6945 3.4481 20.1304 3.01221 20.6689 3.01221C21.2074 3.01221 21.6433 3.4481 21.6433 3.98657V38.0378C21.6433 38.5763 21.2074 39.0122 20.6689 39.0122Z" fill="#86888C"/>
<path d="M37.3356 21.9917H21.0279C20.4894 21.9917 20.0535 21.5558 20.0535 21.0173C20.0535 20.4789 20.4894 20.043 21.0279 20.043H37.3356C37.874 20.043 38.3099 20.4789 38.3099 21.0173C38.3099 21.5558 37.874 21.9917 37.3356 21.9917Z" fill="#86888C"/>
</svg>
