<svg width="21" height="20" viewBox="0 0 21 20" fill="none" xmlns="http://www.w3.org/2000/svg">
<path fill-rule="evenodd" clip-rule="evenodd" d="M16.4443 16.1742C16.9861 15.6073 17.2548 15.0472 17.2457 14.51C17.2366 13.9932 16.9657 13.4673 16.4466 12.9482C16.2485 12.7456 16.0254 12.5703 15.7818 12.4246C15.3447 12.1537 14.9099 12.0581 14.4819 12.1286C14.0357 12.2038 13.5872 12.4656 13.1455 12.905C13.0385 13.012 12.9383 13.1235 12.845 13.2419C12.8063 13.2897 12.7562 13.3307 12.7016 13.3626C12.3692 13.5515 11.9025 13.4217 11.2286 12.9619C10.5229 12.4769 9.70555 11.687 9.15461 11.1338L9.09087 11.07C8.53765 10.5168 7.74539 9.70176 7.26275 8.99602C6.80288 8.32442 6.67311 7.85771 6.85979 7.52533C6.88939 7.47069 6.93037 7.4206 6.98045 7.3819C7.11933 7.27035 7.20128 7.1975 7.31967 7.08139C7.75905 6.642 8.02086 6.19351 8.09599 5.74502C8.16884 5.31702 8.07095 4.88219 7.80686 4.45646C7.66343 4.20831 7.48586 3.98065 7.27869 3.78031C6.75734 3.26124 6.23145 2.99032 5.71466 2.98122C5.16144 2.96756 4.61733 3.24075 4.05046 3.78258C3.87744 3.95788 3.72035 4.14684 3.5792 4.34946C3.04875 5.11668 3.0829 6.31645 3.6566 7.75527C4.29633 9.358 5.55074 11.1224 7.28096 12.8571L7.29918 12.8731L7.35609 12.93C9.09542 14.6693 10.8643 15.9283 12.4716 16.568C13.8945 17.1349 15.1193 17.169 15.8524 16.6636C15.8661 16.65 15.882 16.6386 15.8979 16.6295C16.0163 16.5452 16.269 16.3563 16.4443 16.1742ZM17.1387 12.2538C17.8444 12.9596 18.211 13.7109 18.2246 14.4917C18.2406 15.2954 17.8786 16.0899 17.1523 16.8503C16.9019 17.1121 16.565 17.358 16.4557 17.4377L16.4375 17.4491C16.4307 17.4559 16.4215 17.4604 16.4147 17.4673C15.9025 17.8201 15.2673 18 14.5274 18C13.7943 18 12.9839 17.8224 12.1097 17.4764C10.3794 16.7866 8.49895 15.4548 6.66628 13.6221L6.61619 13.5697C6.61164 13.5674 6.60709 13.5606 6.60253 13.5561C4.77214 11.7279 3.44033 9.84519 2.75051 8.11497C2.0516 6.36198 2.05387 4.83438 2.75734 3.81446C2.86662 3.6642 3.10794 3.32726 3.37658 3.07228C4.13697 2.34377 4.92012 2.00455 5.73515 2C6.51375 2.01366 7.2673 2.38019 7.97305 3.08594C8.2508 3.36369 8.48074 3.65509 8.65148 3.95105C9.03851 4.57484 9.17966 5.23734 9.06582 5.90666C8.95655 6.55777 8.60367 7.18384 8.01631 7.7712C7.94801 7.8395 7.87744 7.9078 7.80458 7.97154C7.84556 8.06716 7.92297 8.21742 8.07322 8.44052C8.51033 9.07797 9.26161 9.84974 9.78751 10.3756L9.85125 10.4394C10.3772 10.963 11.1489 11.7143 11.7886 12.1537C12.0095 12.3039 12.1597 12.3813 12.2554 12.4223C12.3168 12.3517 12.3783 12.288 12.458 12.2106C13.0431 11.6255 13.6714 11.2703 14.3225 11.1611C14.9941 11.0472 15.6566 11.1907 16.2918 11.5822C16.5718 11.7484 16.8632 11.9761 17.1387 12.2538ZM14.1108 3.18839C12.0732 3.18839 11.1649 4.09676 11.1649 6.1366C11.1649 8.17416 12.0732 9.08253 14.1108 9.08253C16.1506 9.08253 17.059 8.17416 17.059 6.1366C17.0613 4.09676 16.1506 3.18611 14.1108 3.18839ZM14.1108 10.0637C11.6293 10.0637 10.1836 8.81161 10.1836 6.1366C10.1836 3.45931 11.6293 2.20717 14.1108 2.20717C16.5923 2.20717 18.0425 3.46158 18.0425 6.1366C18.0425 8.81161 16.5923 10.0637 14.1108 10.0637ZM12.4284 7.81673C12.2371 7.6255 12.2371 7.31588 12.4284 7.12464L13.4164 6.1366L12.4284 5.14855C12.2371 4.95731 12.2371 4.6477 12.4284 4.45646C12.6196 4.26522 12.9292 4.26522 13.1205 4.45646L14.1085 5.44451L15.1011 4.45191C15.2923 4.26067 15.602 4.26067 15.7932 4.45191C15.9844 4.64314 15.9844 4.95276 15.7932 5.144L14.8006 6.1366L15.7932 7.1292C15.9844 7.32043 15.9844 7.63005 15.7932 7.82356C15.602 8.0148 15.2923 8.0148 15.0988 7.82356L14.1108 6.82869L13.1227 7.81673C12.9292 8.00797 12.6196 8.00797 12.4284 7.81673Z" fill="#86888C"/>
</svg>
