<svg width="20" height="20" viewBox="0 0 20 20" fill="none" xmlns="http://www.w3.org/2000/svg">
<path fill-rule="evenodd" clip-rule="evenodd" d="M13.8998 6.09562C14.0956 6.29141 14.0956 6.60785 13.8998 6.80137L10.7012 10L13.8976 13.1964C14.0956 13.3876 14.1024 13.704 13.9089 13.9044C13.7177 14.1024 13.4013 14.1093 13.2009 13.9158L13.1895 13.9044L9.99545 10.708L6.8082 13.8953C6.61468 14.0911 6.29824 14.0911 6.10245 13.8976L6.10017 13.8953C5.90438 13.6995 5.90438 13.383 6.10017 13.1873L9.28742 10L6.10017 6.81275C5.89755 6.62379 5.88617 6.30734 6.07513 6.107C6.26409 5.90438 6.58054 5.893 6.78088 6.08196L6.80592 6.107L9.99317 9.29425L13.1895 6.09789C13.3876 5.89983 13.704 5.89983 13.8998 6.09562C13.8976 6.09562 13.8976 6.09562 13.8998 6.09562ZM9.99772 17.0006C14.708 17.0006 17.0006 14.7103 17.0006 10.0023C17.0006 5.29198 14.7103 2.99943 10 2.99943C5.2897 2.99943 3.00171 5.2897 3.00171 10.0023C2.99943 14.7103 5.2897 17.0006 9.99772 17.0006ZM9.99772 2C15.0518 2 18 4.55435 18 10.0023C18 15.4525 15.0518 18 9.99772 18C4.94365 18 2 15.4525 2 10.0023C2 4.55435 4.94365 2 9.99772 2Z" fill="#86888C"/>
</svg>
