<svg width="28" height="28" viewBox="0 0 28 28" fill="none" xmlns="http://www.w3.org/2000/svg">
<path fill-rule="evenodd" clip-rule="evenodd" d="M19.4761 12.0433C19.2849 12.0433 19.0936 11.9715 18.9468 11.8213L16.8398 9.70063C16.6998 9.56061 16.6212 9.36938 16.6212 9.1679V6.29254C16.6212 5.87592 16.9559 5.54126 17.3691 5.54126C17.7823 5.54126 18.117 5.87934 18.117 6.29254V8.85373L20.0054 10.7558C20.2957 11.0495 20.2957 11.5242 20.0054 11.8213C19.8586 11.9681 19.6673 12.0433 19.4761 12.0433ZM24.2263 22.0319C24.4551 21.6392 24.7658 20.6864 23.936 19.1224C22.6622 16.7046 20.2103 16.5339 20.1898 16.5339C19.9303 16.5236 19.7015 16.3734 19.5717 16.1411C19.4829 15.9806 17.2393 12.0569 11.7516 12.0569C9.02307 12.0569 7.1517 13.3717 6.05551 14.4747C4.39245 16.1616 3.50457 18.4189 3.51482 19.6824C3.46359 20.7069 3.51482 21.5196 3.58312 22.0319H5.01738C5.28716 20.4849 6.4414 19.5526 8.15568 19.5526C9.86997 19.5526 11.0242 20.4849 11.294 22.0319H15.4465C15.706 20.4849 16.8535 19.5629 18.5643 19.5629C20.2786 19.5629 21.4329 20.4849 21.6924 22.0319H24.2263ZM20.2718 22.7832V22.7729C20.2718 21.6187 19.7152 21.0689 18.5677 21.0689C17.4203 21.0689 16.874 21.6221 16.874 22.7729V22.7832C16.874 23.9271 17.4203 24.4906 18.5677 24.4906C19.7152 24.4906 20.2718 23.9271 20.2718 22.7832ZM9.85972 22.7832V22.7627C9.85972 21.6084 9.30309 21.0586 8.15568 21.0586C7.01169 21.0586 6.45164 21.6118 6.45164 22.7627C6.45164 23.9169 7.00827 24.4804 8.15568 24.4804C9.29285 24.4804 9.84948 23.9271 9.85972 22.7832ZM10.389 10.609V10.6466C10.8159 10.5783 11.2769 10.5475 11.7516 10.5475C17.2223 10.5475 19.9405 13.959 20.6782 15.0723C21.146 15.1542 21.9417 15.3557 22.8091 15.8475C23.936 14.6625 24.5029 12.9038 24.5029 10.609C24.5029 5.893 22.1227 3.50256 17.4408 3.50256C12.7692 3.50256 10.389 5.88958 10.389 10.609ZM24.0248 16.7627C24.4721 17.1929 24.9024 17.7359 25.261 18.4189C26.9138 21.5606 25.1824 23.2578 25.1107 23.3295C24.9707 23.4593 24.7931 23.5413 24.5917 23.5413H21.6924C21.4124 25.078 20.2684 26 18.5643 26C16.8603 26 15.7163 25.078 15.4465 23.5413H11.2837C11.0037 25.0677 9.85972 25.9898 8.15568 25.9898C6.45164 25.9898 5.30765 25.0677 5.02762 23.5413H2.9377C2.58938 23.5413 2.28886 23.292 2.21032 22.9471C2.20008 22.8993 1.92005 21.6016 2.0225 19.6551C2.01226 18.1389 2.9377 15.5094 5.0003 13.4229C5.86769 12.5384 7.16194 11.5344 8.90696 10.9812C8.89672 10.8617 8.89672 10.7319 8.89672 10.6124C8.89672 5.06318 11.936 2 17.4442 2C22.9627 2 26.002 5.06318 26.002 10.6124C25.9986 13.2385 25.3327 15.3079 24.0248 16.7627Z" fill="#86888C"/>
</svg>
