<svg width="40" height="40" viewBox="0 0 40 40" fill="none" xmlns="http://www.w3.org/2000/svg">
<path fill-rule="evenodd" clip-rule="evenodd" d="M34.7485 31.8131C36.0044 30.1336 36.7175 27.8906 36.8718 25.111H34.2376C34.078 26.973 33.5778 28.5345 32.7104 29.7579L34.7485 31.8131ZM26.4523 35.5961C29.1982 35.4405 31.4279 34.7375 33.0882 33.4873L31.0447 31.4214C29.8261 32.2799 28.2882 32.7843 26.4523 32.9399V35.5961ZM20.9924 29.6023C22.0514 30.2892 23.4722 30.6594 25.2709 30.6594C27.5006 30.6594 29.1822 30.1228 30.2784 29.0657C31.4066 27.9711 31.9813 26.2325 31.9813 23.9037C31.9813 21.5749 31.4066 19.831 30.2784 18.731C30.1454 18.6022 29.9751 18.5002 29.8261 18.3875C29.6771 19.8578 29.3898 21.21 28.9481 22.4227C28.3255 24.1291 27.4102 25.5779 26.2022 26.753C25.553 27.3755 24.8239 27.9121 24.0257 28.3682C23.1104 28.8887 22.094 29.2965 20.9924 29.6023ZM24.1055 35.5961V32.9399C22.2696 32.7897 20.7264 32.2853 19.5077 31.4267L17.459 33.4926C19.1299 34.7429 21.3596 35.4458 24.1055 35.5961ZM15.804 31.8238L17.427 30.1872C16.9428 30.214 16.4532 30.2355 15.9476 30.2355C15.5645 30.2355 15.1973 30.214 14.8301 30.1979C15.1069 30.7936 15.4368 31.3248 15.804 31.8238ZM11.5681 27.3272C12.329 27.5364 13.1592 27.6813 14.0372 27.7672C14.2873 27.7886 14.5375 27.8155 14.7929 27.8316V25.1754C14.5108 25.1486 14.1969 25.154 13.9308 25.1164C13.8403 25.1003 13.7658 25.0735 13.6807 25.0574C12.8399 24.9125 12.0896 24.6603 11.3978 24.3437C11.3712 24.333 11.3392 24.3169 11.3179 24.3062C10.9188 24.1237 10.5463 23.9091 10.1951 23.6676L8.14633 25.7335C9.1042 26.4418 10.2536 26.973 11.5681 27.3272ZM4.37871 17.3412C4.53835 20.1261 5.24611 22.3744 6.49667 24.054L8.5348 21.9988C7.67272 20.77 7.1725 19.2085 7.01817 17.3466H4.37871V17.3412ZM6.47006 8.23521C5.23015 9.92547 4.52239 12.1792 4.37339 14.9694H7.00753C7.15653 13.0967 7.64611 11.5192 8.50287 10.285L6.47006 8.23521ZM14.7982 4.4093C12.031 4.55955 9.78535 5.27858 8.11972 6.55031L10.1685 8.61619C11.3924 7.73618 12.9463 7.21568 14.8035 7.06543V4.4093H14.7982ZM15.9583 9.35132C13.7339 9.35132 12.0523 9.88791 10.9614 10.9504C9.83857 12.0504 9.26385 13.7943 9.26385 16.1231C9.26385 18.4573 9.83325 20.1959 10.9561 21.2851C11.0944 21.4193 11.2647 21.5159 11.4191 21.6339C12.031 22.0954 12.7867 22.4227 13.6807 22.6266C13.8563 22.6642 14.0106 22.7071 14.1969 22.7393C14.7397 22.8252 15.3144 22.8788 15.953 22.8788C16.0807 22.8788 16.1818 22.8574 16.3042 22.852C16.7991 22.8359 17.2727 22.8037 17.7144 22.7339C18.0496 22.6803 18.3636 22.6105 18.6669 22.5193C19.5929 22.2564 20.3698 21.8486 20.9605 21.2798C21.8598 20.4051 22.3867 19.1173 22.5729 17.4646C22.6208 17.0353 22.6581 16.5953 22.6581 16.1178C22.6581 15.7368 22.6155 15.3934 22.5889 15.0446C22.4984 14.0358 22.2802 13.1665 21.9397 12.4314C21.6736 11.8626 21.3596 11.3528 20.9552 10.945C20.737 10.7357 20.4869 10.564 20.2261 10.3977C19.1672 9.7162 17.7516 9.35132 15.9583 9.35132ZM17.1397 4.4093V7.06543C18.9969 7.22105 20.5454 7.74154 21.7694 8.62155L23.8128 6.56104C22.1419 5.28395 19.9015 4.56491 17.1397 4.4093ZM23.7756 25.7174L21.7321 23.6515C21.4714 23.834 21.2053 24.011 20.9126 24.1559C20.2368 24.5101 19.4758 24.773 18.6456 24.9501C18.4328 24.9984 18.1933 25.0145 17.9698 25.052C17.8315 25.0735 17.6931 25.0949 17.5494 25.111C17.4111 25.1271 17.2833 25.154 17.1397 25.1701V27.8262C17.8953 27.7779 18.6084 27.6921 19.2842 27.5633C20.4816 27.3379 21.5512 26.9838 22.4931 26.5008C22.9507 26.2647 23.3818 26.0125 23.7756 25.7174ZM23.4031 21.9881L24.2864 22.8788L25.4412 24.0432C25.7286 23.6569 25.984 23.2383 26.2128 22.793C26.6119 22.0256 26.9365 21.1778 27.16 20.2334C27.3676 19.3534 27.5006 18.4036 27.5592 17.3787V17.3358H24.925C24.8771 17.9368 24.7867 18.5002 24.6643 19.0368C24.4035 20.169 23.9884 21.1564 23.4031 21.9881ZM25.4572 8.24594L23.898 9.81816L23.4297 10.2904C23.6904 10.6713 23.9086 11.0899 24.1055 11.5245C24.2066 11.7392 24.329 11.9323 24.4088 12.1631C24.6802 12.9411 24.8239 13.8319 24.9144 14.7763C25.0368 14.7709 25.1432 14.7494 25.2656 14.7494C25.6807 14.7494 26.0585 14.8031 26.447 14.8353C26.8248 14.8675 27.2079 14.8943 27.5592 14.9587V14.9694H27.6071C27.5911 14.9641 27.5751 14.9587 27.5592 14.9587C27.5059 13.9928 27.3889 13.0806 27.2026 12.2436C27.0164 11.4118 26.7716 10.6445 26.4523 9.94157V9.90401H26.4416C26.4257 9.87181 26.415 9.83962 26.3938 9.80742C26.1277 9.23864 25.8084 8.72351 25.4572 8.24594ZM33.1254 14.3309C32.1623 13.5958 31.0022 13.0538 29.6771 12.6943C29.8314 13.6387 29.9113 14.6529 29.9325 15.7207C30.3423 15.9138 30.7255 16.1339 31.082 16.3914L33.1254 14.3309ZM36.8718 22.7447C36.7228 19.9598 36.015 17.7061 34.7698 16.0158L32.7423 18.0656C33.6044 19.2997 34.094 20.872 34.243 22.7447H36.8718ZM35.5095 13.2792C37.9946 15.6992 39.2558 19.2729 39.2558 23.9037C39.2558 28.5399 37.9946 32.1082 35.5095 34.5175C33.1254 36.8302 29.6771 38 25.2656 38C20.8487 38 17.4057 36.8249 15.0324 34.5121C13.7605 33.278 12.8186 31.7219 12.196 29.8867C9.55121 29.3931 7.36939 28.3521 5.72505 26.7423C3.25055 24.3384 2 20.77 2 16.1339C2 11.4977 3.25587 7.92398 5.72505 5.50932C8.10376 3.1805 11.5468 2 15.9583 2C20.3698 2 23.8181 3.1805 26.2075 5.50932C27.4793 6.74348 28.4266 8.29423 29.0492 10.124C31.6833 10.6177 33.8598 11.664 35.5095 13.2792ZM13.4944 13.628C13.223 13.8587 13.3135 14.3953 13.3667 14.6207C13.404 14.7816 13.4838 14.9533 13.537 15.1197C13.7286 15.6938 13.984 16.2734 14.3672 16.8743C14.5321 17.1426 14.6918 17.3626 14.8514 17.5773C15.0802 17.8778 15.3197 18.1568 15.6496 18.5002C15.6922 18.5485 15.8253 18.688 15.937 18.7739L15.9743 18.8007H15.9796C16.1126 18.688 16.251 18.5432 16.2882 18.5002C16.6661 18.0978 16.9321 17.7919 17.1876 17.4378C17.31 17.2661 17.4377 17.089 17.5707 16.8797C17.9219 16.327 18.1614 15.7904 18.353 15.2646C18.4275 15.0499 18.5233 14.8353 18.5711 14.626C18.6297 14.3631 18.6935 13.8909 18.4594 13.6602C18.4541 13.6548 18.4541 13.6387 18.4434 13.6333C18.3264 13.5314 18.1401 13.467 17.9379 13.4563C17.6558 13.4348 17.3791 13.5206 17.1024 13.6709C17.0332 13.7085 16.9641 13.7514 16.8949 13.7943C16.8044 13.8426 16.7193 13.8909 16.6288 13.9499L16.3468 14.1216L15.6869 14.1324L15.4581 14.025L15.3836 13.9928C15.1388 13.848 14.9845 13.7567 14.8355 13.6763C14.7982 13.6548 14.761 13.6494 14.7184 13.628C14.5002 13.526 14.2714 13.4616 14.0585 13.4616H13.9947C13.7978 13.4616 13.6062 13.526 13.4944 13.628ZM11.0838 15.168C10.7645 13.805 11.0891 12.5923 11.9672 11.825C12.478 11.385 13.1539 11.1221 13.8776 11.0845C14.6013 11.047 15.3091 11.224 15.9689 11.5943C16.6288 11.224 17.3525 11.047 18.0603 11.0845C18.1135 11.0899 18.1667 11.1113 18.2199 11.1167C18.8798 11.1865 19.5024 11.4226 19.9707 11.825C20.2634 12.0826 20.4709 12.4045 20.6359 12.748C20.9658 13.4402 21.0616 14.2611 20.8487 15.168C20.8115 15.3397 20.7264 15.5168 20.6731 15.6938C20.5348 16.1446 20.3592 16.6007 20.1303 17.0568C19.9547 17.4163 19.7738 17.7866 19.5397 18.1514C19.4758 18.248 19.4173 18.3339 19.3587 18.4197C18.9437 19.0476 18.5552 19.5198 17.9805 20.1261C17.8847 20.2334 17.6026 20.5124 17.3632 20.6895C17.1184 20.8666 16.8417 20.9846 16.5596 21.0651C16.5117 21.0759 16.4692 21.0973 16.4266 21.1081C16.3414 21.1295 16.219 21.151 16.0913 21.1564L15.9743 21.1617L15.804 21.1564C15.7082 21.151 15.5805 21.1295 15.4687 21.0973C15.176 21.0383 14.8567 20.8934 14.5694 20.6895C14.3512 20.5232 14.1171 20.2978 14.0053 20.1851L13.9574 20.1368C13.2922 19.45 12.8825 18.9295 12.3876 18.1514C12.3184 18.0441 12.2758 17.9368 12.212 17.8295C11.6904 16.9387 11.2913 16.0426 11.0838 15.168Z" fill="#86888C"/>
</svg>
