<svg width="20" height="20" viewBox="0 0 20 20" fill="none" xmlns="http://www.w3.org/2000/svg">
<path fill-rule="evenodd" clip-rule="evenodd" d="M16.3839 15.0635C16.4789 15.0635 16.5584 14.9861 16.5584 14.8912V10.3476H2.95863V14.8912C2.95863 14.9884 3.03815 15.0657 3.13534 15.0635H16.3839ZM3.13534 5.93655C3.03815 5.93655 2.95863 6.01386 2.95863 6.11104V7.05201H16.5606V6.11104C16.5606 6.01386 16.4833 5.93655 16.3861 5.93655H3.13534ZM2.95863 9.41104H16.5606V7.98855H2.95863V9.41104ZM17.5237 7.52028V9.87932C17.5237 9.90361 17.5127 9.92349 17.5104 9.94558V14.8912C17.5104 15.503 17.0068 16 16.3839 16H3.13534C2.51466 16 2.00884 15.503 2.00884 14.8912V9.91687C2.00663 9.90582 2 9.89257 2 9.87932V7.52028C2 7.50703 2.00663 7.49377 2.00884 7.48052V6.11104C2.00884 5.4992 2.51245 5 3.13534 5H16.3839C17.0046 5 17.5104 5.49699 17.5104 6.10884V7.45402C17.5127 7.4761 17.5237 7.49598 17.5237 7.52028ZM14.1088 13.6851C14.5131 13.6785 14.9946 13.5129 14.9946 12.7641C14.9946 12.0153 14.5086 11.8452 14.1 11.8363H13.9896C13.8946 11.8363 13.6361 11.8562 13.4285 12.0042C13.5169 12.2185 13.5721 12.4681 13.5721 12.7641C13.5721 13.0556 13.5191 13.3008 13.4351 13.5129C13.6472 13.6631 13.91 13.6851 14.0006 13.6851H14.1088ZM11.8624 13.6851C12.2667 13.6785 12.7482 13.5129 12.7482 12.7641C12.7482 12.0153 12.2622 11.8452 11.8536 11.8363H11.7388C11.3412 11.8386 10.8685 11.9998 10.8685 12.7574C10.8685 13.5151 11.35 13.6807 11.752 13.6873C11.7498 13.6851 11.8624 13.6851 11.8624 13.6851ZM14.1243 11.0279C14.904 11.0456 15.8185 11.5116 15.8185 12.7663C15.8185 14.0231 14.904 14.4847 14.1221 14.498H13.9851C13.7753 14.4958 13.3181 14.4494 12.9249 14.16C12.6179 14.3765 12.2512 14.4958 11.8735 14.498H11.7365C10.9546 14.4869 10.0402 14.0253 10.0402 12.7574C10.0402 11.4896 10.9502 11.0323 11.7277 11.0257C11.7763 11.0257 11.8249 11.0257 11.8735 11.0279C12.2468 11.0345 12.609 11.1516 12.9139 11.3659C13.3247 11.0633 13.8084 11.0279 13.9785 11.0279C14.0271 11.0235 14.0801 11.0257 14.1243 11.0279Z" fill="#86888C"/>
</svg>
