<svg width="24" height="24" viewBox="0 0 24 24" fill="none" xmlns="http://www.w3.org/2000/svg">
<path fill-rule="evenodd" clip-rule="evenodd" d="M20.3068 18.808C20.4277 18.808 20.5289 18.7096 20.5289 18.5888V12.806H3.22008V18.5888C3.22008 18.7125 3.32129 18.8108 3.44498 18.808H20.3068ZM3.44498 7.19197C3.32129 7.19197 3.22008 7.29036 3.22008 7.41406V8.61165H20.5317V7.41406C20.5317 7.29036 20.4333 7.19197 20.3096 7.19197H3.44498ZM3.22008 11.6141H20.5317V9.80361H3.22008V11.6141ZM21.7574 9.20763V12.21C21.7574 12.241 21.7434 12.2663 21.7406 12.2944V18.5888C21.7406 19.3675 21.0996 20 20.3068 20H3.44498C2.65502 20 2.01124 19.3675 2.01124 18.5888V12.2578C2.00843 12.2438 2 12.2269 2 12.21V9.20763C2 9.19076 2.00843 9.1739 2.01124 9.15703V7.41406C2.01124 6.63534 2.65221 6 3.44498 6H20.3068C21.0968 6 21.7406 6.63253 21.7406 7.41125V9.12329C21.7434 9.15141 21.7574 9.17671 21.7574 9.20763ZM17.4112 17.0538C17.9257 17.0454 18.5386 16.8345 18.5386 15.8815C18.5386 14.9285 17.9201 14.712 17.4 14.7008H17.2594C17.1386 14.7008 16.8096 14.7261 16.5454 14.9145C16.6578 15.1871 16.7281 15.5048 16.7281 15.8815C16.7281 16.2526 16.6606 16.5647 16.5538 16.8345C16.8237 17.0257 17.1582 17.0538 17.2735 17.0538H17.4112ZM14.5522 17.0538C15.0667 17.0454 15.6795 16.8345 15.6795 15.8815C15.6795 14.9285 15.061 14.712 14.541 14.7008H14.3948C13.8888 14.7036 13.2871 14.9088 13.2871 15.8731C13.2871 16.8373 13.9 17.0482 14.4116 17.0566C14.4088 17.0538 14.5522 17.0538 14.5522 17.0538ZM17.4309 13.6719C18.4233 13.6944 19.5871 14.2875 19.5871 15.8843C19.5871 17.4839 18.4233 18.0715 17.4281 18.0884H17.2538C16.9867 18.0855 16.4048 18.0265 15.9044 17.6582C15.5137 17.9337 15.047 18.0855 14.5663 18.0884H14.392C13.3968 18.0743 12.2329 17.4867 12.2329 15.8731C12.2329 14.2594 13.3912 13.6775 14.3807 13.6691C14.4426 13.6691 14.5044 13.6691 14.5663 13.6719C15.0414 13.6803 15.5024 13.8293 15.8904 14.102C16.4133 13.7169 17.0289 13.6719 17.2454 13.6719C17.3072 13.6663 17.3747 13.6691 17.4309 13.6719Z" fill="#86888C"/>
</svg>
