<svg width="40" height="40" viewBox="0 0 40 40" fill="none" xmlns="http://www.w3.org/2000/svg">
<path fill-rule="evenodd" clip-rule="evenodd" d="M31.3779 35.7769C31.5514 35.7769 31.7249 35.6027 31.7249 35.4696V14.56H27.576C25.7593 14.56 24.1875 13.9556 23.0342 12.8184C21.8707 11.6659 21.2532 10.0985 21.2532 8.28002V4.22311H9.53118C9.3985 4.22311 9.19437 4.42288 9.18416 4.53045V14.8571L9.25561 29.4456L9.18416 35.4798C9.18416 35.572 9.36277 35.7718 9.53118 35.7718H31.3779V35.7769ZM30.8063 12.3369L23.422 5.04781V8.2749C23.422 9.47866 23.8099 10.4929 24.5396 11.2151C25.2796 11.9476 26.3309 12.3318 27.5709 12.3318H30.8063V12.3369ZM33.8121 12.5316C33.8683 12.6648 33.8989 12.8133 33.8989 12.967V35.4696C33.8989 36.8423 32.7405 38 31.3728 38H9.52608C8.18394 38 7 36.8167 7 35.4696L7.07144 29.4405L7 14.8623V4.53045C7 3.20376 8.20435 2 9.52608 2H22.825C23.2383 2 23.6415 2.16904 23.9324 2.46101L33.4243 11.8298C33.6233 12.0194 33.7407 12.2703 33.8121 12.5316ZM25.9532 30.4548L27.127 30.8953L25.101 26.403C24.2998 27.0842 23.2587 27.4889 21.9983 27.6323L24.111 32.3193L24.5498 31.1053C24.7693 30.5367 25.4021 30.2447 25.9532 30.4548ZM17.2778 32.3244L19.416 27.5862C18.176 27.3813 17.1604 26.905 16.4103 26.1315L14.2567 30.9055L15.4356 30.4599C15.9918 30.255 16.6195 30.5418 16.8338 31.1104L17.2778 32.3244ZM20.9164 16.8702C17.7473 16.8702 16.3337 18.3147 16.3337 21.5521C16.3337 24.7894 17.7473 26.2288 20.9164 26.2288C24.0855 26.2288 25.499 24.7843 25.499 21.5521C25.499 18.3147 24.0855 16.8702 20.9164 16.8702ZM26.1676 25.2248L28.811 31.0899C28.9845 31.4792 28.9335 31.9249 28.6681 32.2578C28.4079 32.5908 27.9843 32.7291 27.5811 32.6471L25.7899 31.9761L25.152 33.7177C24.9224 34.1736 24.5549 34.399 24.1518 34.399H24.1212C23.7027 34.3887 23.3353 34.1377 23.1567 33.7536L20.6969 28.2982L18.2372 33.7536C18.0637 34.1377 17.6912 34.3887 17.2727 34.399H17.2421C16.8389 34.399 16.4715 34.1736 16.2776 33.8048L15.604 31.9761L13.8995 32.6164C13.4045 32.7342 12.9809 32.5857 12.7207 32.2578C12.4553 31.9249 12.4043 31.4792 12.5778 31.0899L15.3794 24.8816C15.4049 24.8201 15.456 24.774 15.4917 24.7228C15.1039 23.8571 14.8844 22.8173 14.8844 21.5572C14.8844 17.362 17.1043 15.395 20.9164 15.395C24.7285 15.395 26.9534 17.362 26.9534 21.5572C26.9534 23.0427 26.6626 24.2362 26.1318 25.1736C26.142 25.189 26.1573 25.2043 26.1676 25.2248ZM19.9213 20.9579L18.9312 21.1167L19.7529 21.8594C19.8906 22.0028 19.957 22.2282 19.9264 22.428L19.7426 23.5754L20.5387 23.0478C20.5643 23.0324 20.5847 23.012 20.6102 22.9966L20.6153 22.9915C20.8143 22.8788 21.0695 22.8839 21.2634 23.0222L22.1003 23.4883L21.9013 22.428C21.8707 22.2282 21.9421 21.9977 22.0799 21.8543L22.8607 21.045L21.8145 20.9425C21.6155 20.9118 21.4318 20.7735 21.345 20.5942L20.8551 19.539L20.4877 20.584C20.3907 20.8042 20.1611 20.9579 19.9213 20.9579ZM18.6659 22.5202L18.0943 21.9311C17.7779 21.5982 17.6708 21.1218 17.8136 20.6813C17.9565 20.2459 18.3138 19.9334 18.7526 19.8668L19.5181 19.749L19.8651 19.0011C20.253 18.1508 21.5798 18.1508 21.9778 19.0011L22.33 19.7592L23.0954 19.8771C23.5292 19.9437 23.8915 20.251 24.0344 20.6864C24.1773 21.132 24.0701 21.6084 23.7537 21.9363L23.1822 22.5304L23.32 23.3756C23.3914 23.8469 23.2077 24.3028 22.8352 24.5743C22.4677 24.8355 21.9829 24.8611 21.6053 24.646L20.9317 24.2669L20.253 24.646C20.0795 24.7433 19.8855 24.7945 19.6916 24.7945C19.4569 24.7945 19.2221 24.7228 19.018 24.5743C18.6455 24.3079 18.4617 23.8469 18.5383 23.3808L18.6659 22.5202Z" fill="#86888C"/>
</svg>
