<svg width="20" height="20" viewBox="0 0 20 20" fill="none" xmlns="http://www.w3.org/2000/svg">
<path fill-rule="evenodd" clip-rule="evenodd" d="M17.5298 6.47288V9.29468C17.5298 9.55322 17.3088 9.76756 17.0392 9.76756C16.774 9.77198 16.5531 9.55985 16.5486 9.29468V7.85616L12.2331 13.8047C12.0983 13.9925 11.8508 14.061 11.6387 13.9682L5.95969 11.553L2.9147 16.7613C2.82631 16.9116 2.665 17.0022 2.49044 17C2.40647 17 2.32471 16.9801 2.24737 16.9425C2.01977 16.821 1.93359 16.5381 2.05512 16.3105C2.05954 16.3039 2.06175 16.2973 2.06617 16.2929L5.3255 10.72C5.45366 10.5056 5.71883 10.4194 5.94643 10.5189L11.663 12.9473L16.0205 6.95018H14.1644C13.8992 6.9546 13.6782 6.74246 13.6738 6.4773V6.47509C13.6738 6.20992 13.8904 6 14.1644 6H17.0392C17.3066 6 17.5298 6.20771 17.5298 6.47288Z" fill="#86888C"/>
</svg>
