<svg width="28" height="28" viewBox="0 0 28 28" fill="none" xmlns="http://www.w3.org/2000/svg">
<path fill-rule="evenodd" clip-rule="evenodd" d="M3.65768 24.4872H24.4716L17.6725 15.5333C16.6036 15.827 15.2718 15.9875 13.8614 15.9875C12.5569 15.9875 11.3139 15.8441 10.2894 15.5948L3.65768 24.4872ZM11.7066 13.6995L11.2866 14.2527C12.9292 14.5361 15.0737 14.5259 16.6651 14.222L16.2758 13.6995C16.1768 13.5731 16.1221 13.416 16.1221 13.2555V3.51281H11.8603V12.0433C11.8603 12.0535 11.8501 12.0842 11.8501 12.1047C11.8501 12.1252 11.8603 12.1457 11.8603 12.1662V13.2555C11.8603 13.4126 11.8057 13.5697 11.7066 13.6995ZM25.7351 23.6574C26.0629 24.173 26.0834 24.7467 25.817 25.2214C25.5507 25.6961 25.0384 26 24.4716 26H3.42888C2.91323 26 2.44197 25.7166 2.18586 25.2829C1.92974 24.8423 1.93998 24.2925 2.20634 23.8588L10.3168 12.9994V12.173C10.3065 12.1184 10.3065 12.0637 10.3168 12.0125V3.51281H9.38108C8.96104 3.51281 8.61955 3.17473 8.61272 2.7547C8.61614 2.33125 8.96446 2 9.38449 2H18.6184C19.035 2 19.3765 2.33808 19.3765 2.75811C19.3765 3.17814 19.0384 3.51622 18.6184 3.51622H17.6657V13.0028L25.7351 23.6574ZM18.2189 21.284C18.2189 19.9283 17.0919 19.8156 16.8017 19.8054C16.7641 19.8054 16.7266 19.8019 16.689 19.8019H16.6617C16.3646 19.8053 15.265 19.9044 15.265 21.2703C15.265 22.6363 16.3782 22.7456 16.6753 22.749H16.8119C17.0919 22.749 18.2189 22.6431 18.2189 21.284ZM16.6924 18.7945L16.829 18.798C18.031 18.8287 19.2468 19.6073 19.2468 21.284C19.2468 22.9641 18.031 23.7427 16.829 23.7632H16.6583C15.4528 23.7462 14.2371 22.971 14.2371 21.2772C14.2371 19.58 15.4494 18.8082 16.6548 18.798L16.6924 18.7945ZM11.5051 19.638C11.6622 19.6346 12.2906 19.5766 12.2906 18.8184C12.2906 18.0637 11.6622 18.0023 11.5017 17.9989H11.4232C11.2593 17.9989 10.6446 18.0569 10.6446 18.815C10.6446 19.5766 11.2661 19.6346 11.43 19.638H11.5051ZM11.5291 16.9915C12.3896 17.012 13.3185 17.5925 13.3185 18.8219C13.3185 20.0546 12.3862 20.6318 11.5222 20.6488H11.4164C10.549 20.6352 9.62012 20.0581 9.62012 18.8184C9.62012 17.572 10.549 16.9983 11.4129 16.9915H11.5291Z" fill="#86888C"/>
</svg>
