<svg width="20" height="20" viewBox="0 0 20 20" fill="none" xmlns="http://www.w3.org/2000/svg">
<path fill-rule="evenodd" clip-rule="evenodd" d="M18 15.1613C18 15.3962 17.8953 15.6201 17.7154 15.7781C17.3512 16.092 16.7957 16.0701 16.4588 15.7298L9.94106 9.07877L3.54853 15.7255C3.21388 16.0679 2.65841 16.092 2.29188 15.7803C1.93674 15.4796 1.90032 14.9594 2.2122 14.6169C2.21903 14.6104 2.22359 14.6038 2.23042 14.5972L9.27631 7.27442C9.44478 7.09881 9.68153 7.00004 9.92968 7.00004C10.1778 6.99784 10.4169 7.09443 10.5876 7.26784L17.7633 14.5928C17.9155 14.7456 18.0004 14.9494 18 15.1613Z" fill="#86888C"/>
</svg>
