<svg width="20" height="20" viewBox="0 0 20 20" fill="none" xmlns="http://www.w3.org/2000/svg">
<path fill-rule="evenodd" clip-rule="evenodd" d="M13.6613 2C13.8962 2 14.1201 2.10472 14.2781 2.28458C14.592 2.64883 14.5701 3.20433 14.2298 3.54126L7.57877 10.0592L14.2255 16.4519C14.5679 16.7866 14.592 17.3421 14.2803 17.7086C13.9796 18.0637 13.4594 18.1002 13.1169 17.7883C13.1104 17.7814 13.1038 17.7769 13.0972 17.7701L5.77442 10.724C5.59882 10.5555 5.50004 10.3187 5.50004 10.0706C5.49784 9.82243 5.59443 9.58338 5.76784 9.41264L13.0928 2.23677C13.2456 2.08451 13.4494 1.99964 13.6613 2Z" fill="#86888C"/>
</svg>
