<svg width="24" height="24" viewBox="0 0 24 24" fill="none" xmlns="http://www.w3.org/2000/svg">
<path fill-rule="evenodd" clip-rule="evenodd" d="M11.9972 20.7507C17.8879 20.7507 20.7507 17.8879 20.7507 12.0028C20.7507 6.11212 17.8879 3.24929 11.9972 3.24929C6.11212 3.24929 3.24929 6.11212 3.24929 12.0028C3.24929 17.8879 6.11212 20.7507 11.9972 20.7507ZM11.9972 2C18.3147 2 22 5.1901 22 12.0028C22 18.8156 18.3147 22 11.9972 22C5.67957 22 2 18.8156 2 12.0028C2 5.1901 5.67957 2 11.9972 2ZM12.6261 12.0171L15.5202 14.9141C15.7735 15.1503 15.7877 15.5458 15.5515 15.7962C15.3153 16.0495 14.9198 16.0637 14.6693 15.8275L14.638 15.7962L11.5589 12.7171C11.4422 12.6005 11.3768 12.4411 11.3768 12.276V8.10985C11.3768 7.76551 11.6557 7.48378 12.0028 7.48378C12.35 7.48378 12.6289 7.76266 12.6289 8.10985L12.6261 12.0171Z" fill="#86888C"/>
</svg>
