<svg width="40" height="40" viewBox="0 0 40 40" fill="none" xmlns="http://www.w3.org/2000/svg">
<path fill-rule="evenodd" clip-rule="evenodd" d="M19.9949 35.7513C30.5982 35.7513 35.7513 30.5982 35.7513 20.0051C35.7513 9.40182 30.5982 4.24872 19.9949 4.24872C9.40182 4.24872 4.24872 9.40182 4.24872 20.0051C4.24872 30.5982 9.40182 35.7513 19.9949 35.7513ZM19.9949 2C31.3665 2 38 7.74217 38 20.0051C38 32.2681 31.3665 38 19.9949 38C8.62322 38 2 32.2681 2 20.0051C2 7.74217 8.62322 2 19.9949 2ZM21.1269 20.0307L26.3364 25.2453C26.7923 25.6705 26.8179 26.3825 26.3927 26.8332C25.9676 27.2891 25.2556 27.3147 24.8048 26.8896L24.7484 26.8332L19.206 21.2908C18.996 21.0808 18.8782 20.794 18.8782 20.4969V12.9977C18.8782 12.3779 19.3802 11.8708 20.0051 11.8708C20.6301 11.8708 21.132 12.3728 21.132 12.9977L21.1269 20.0307Z" fill="#86888C"/>
</svg>
