<svg width="28" height="28" viewBox="0 0 28 28" fill="none" xmlns="http://www.w3.org/2000/svg">
<path d="M10.1876 15.1788C10.0707 15.0962 10.0122 15.0034 10.0122 14.8589C10.0191 14.6732 10.1704 14.5254 10.3561 14.5288C10.4455 14.5322 10.5315 14.5597 10.6037 14.6113C11.1334 14.9656 11.8797 15.3198 12.7394 15.3198C14.0257 15.3198 14.8167 14.6595 14.8167 13.6828C14.8167 12.8814 14.3696 12.3174 12.8908 12.1283L12.5125 12.0801C10.9408 11.8807 10.2082 11.124 10.2082 9.95818C10.2082 8.56877 11.2021 7.70898 12.7222 7.70898C13.5717 7.70898 14.2939 7.93253 14.7892 8.23861C14.9439 8.33147 15.0127 8.45184 15.0127 8.56877C15.0127 8.74416 14.8717 8.88517 14.6963 8.88861H14.6929C14.6103 8.88173 14.5278 8.85766 14.4556 8.81639C13.9122 8.52062 13.3447 8.34522 12.6947 8.34522C11.5254 8.34522 10.8754 8.99178 10.8754 9.89971C10.8754 10.7251 11.3844 11.2547 12.7635 11.4301L13.1281 11.4783C14.7273 11.6777 15.4804 12.4309 15.4804 13.6346C15.4804 14.9896 14.5106 15.956 12.6466 15.956C11.773 15.9492 10.9133 15.6775 10.1876 15.1788Z" fill="#86888C"/>
<path d="M12.6529 16.266C11.7072 16.2591 10.7855 15.9703 10.0083 15.4337C9.8019 15.2893 9.69873 15.0967 9.69873 14.8628C9.70217 14.5052 9.9945 14.2197 10.3522 14.2232C10.5035 14.2266 10.6479 14.2748 10.7717 14.3573C11.4252 14.7906 12.0855 15.0107 12.7355 15.0107C13.8257 15.0107 14.5032 14.5017 14.5032 13.6832C14.5032 13.1467 14.3037 12.6205 12.849 12.4348L12.4707 12.3867C10.3418 12.115 9.89476 10.9147 9.89476 9.95864C9.89476 8.40415 11.0056 7.39648 12.7217 7.39648C13.5574 7.39648 14.3484 7.60283 14.9503 7.97426C15.2736 8.17373 15.3217 8.43166 15.3217 8.56923C15.3217 8.91658 15.0397 9.19859 14.6924 9.19859C14.5617 9.19515 14.4344 9.15732 14.3175 9.09542L14.3072 9.09198C13.7638 8.79621 13.2514 8.65865 12.6977 8.65865C11.7519 8.65865 11.1879 9.12293 11.1879 9.90361C11.1879 10.4057 11.3805 10.9457 12.8077 11.1279L13.1723 11.1761C15.3389 11.4478 15.7929 12.6652 15.7929 13.6385C15.7929 14.4158 15.5074 15.0761 14.9675 15.5438C14.4241 16.015 13.6193 16.266 12.6529 16.266ZM10.3625 14.9248C10.672 15.1414 11.518 15.647 12.6529 15.647C13.468 15.647 14.1318 15.4475 14.5651 15.0692C14.964 14.7253 15.1738 14.23 15.1738 13.6351C15.1738 12.5689 14.4929 11.9637 13.0966 11.7883L12.7286 11.7401C11.2739 11.5544 10.5688 10.9526 10.5688 9.90018C10.5688 9.35335 10.7683 8.88563 11.1432 8.55203C11.518 8.21844 12.058 8.03616 12.6977 8.03616C13.3477 8.03616 13.9701 8.20124 14.5995 8.54172C14.627 8.55891 14.6614 8.56923 14.6924 8.57611H14.6958L14.6992 8.57267C14.6786 8.54516 14.6545 8.52108 14.6236 8.50389C14.3312 8.32161 13.695 8.01897 12.7183 8.01897C12.0442 8.01897 11.4836 8.20124 11.095 8.54516C10.7133 8.88219 10.5138 9.37055 10.5138 9.95864C10.5138 11.0041 11.1776 11.5957 12.5463 11.7711L12.9246 11.8192C13.6984 11.9189 14.2487 12.1219 14.6098 12.4451C14.9537 12.7547 15.1222 13.1605 15.1222 13.6832C15.1222 14.2576 14.8815 14.7631 14.4482 15.1105C14.0217 15.4509 13.4302 15.6298 12.732 15.6298C11.9582 15.6298 11.181 15.3753 10.4209 14.8697C10.3969 14.8525 10.3728 14.8422 10.3453 14.8388C10.3315 14.8388 10.3178 14.8457 10.3143 14.8594C10.3212 14.8869 10.3212 14.8904 10.3625 14.9248Z" fill="#86888C"/>
<path d="M12.8217 17.3635C12.5638 17.3635 12.3574 17.1537 12.3574 16.8992V7.09077C12.3574 6.83283 12.5672 6.62305 12.8217 6.62305C13.0796 6.62305 13.2894 6.83283 13.2894 7.09077V16.8992C13.286 17.1571 13.0796 17.3635 12.8217 17.3635Z" fill="#86888C"/>
<path d="M12.633 21.7475C7.31268 21.7475 3 17.4349 3 12.1145C3 9.55924 4.01455 7.11057 5.82009 5.30159C9.64441 1.60108 15.742 1.70081 19.4425 5.52169C23.0605 9.25659 23.0605 15.1891 19.4425 18.924C17.6404 20.7364 15.1883 21.7544 12.633 21.7475ZM12.633 3.85715C8.07273 3.85715 4.37565 7.55422 4.37565 12.1145C4.37565 14.3052 5.24576 16.4031 6.79337 17.9542C10.0296 21.1663 15.2605 21.1457 18.4727 17.9095C21.6676 14.6904 21.6676 9.49733 18.4727 6.2783C16.9251 4.72037 14.8238 3.85027 12.633 3.85715Z" fill="#86888C"/>
<path d="M26.4206 26.5892C26.2383 26.5892 26.0629 26.517 25.9357 26.3863L18.4727 18.9234C18.2148 18.6448 18.2354 18.208 18.514 17.9501C18.7788 17.7093 19.1812 17.7093 19.446 17.9501L26.9089 25.413C27.1772 25.6813 27.1772 26.118 26.9089 26.3863C26.7748 26.517 26.6028 26.5892 26.4206 26.5892Z" fill="#86888C"/>
</svg>
