<svg width="24" height="24" viewBox="0 0 24 24" fill="none" xmlns="http://www.w3.org/2000/svg">
<path d="M7.98991 12.0813C7.89247 12.0125 7.84375 11.9351 7.84375 11.8147C7.84948 11.66 7.97558 11.5368 8.13034 11.5396C8.20486 11.5425 8.27651 11.5654 8.33669 11.6084C8.77805 11.9036 9.39996 12.1988 10.1164 12.1988C11.1883 12.1988 11.8475 11.6485 11.8475 10.8346C11.8475 10.1668 11.4749 9.69681 10.2425 9.53919L9.92729 9.49906C8.61756 9.33284 8.00711 8.70233 8.00711 7.73077C8.00711 6.57293 8.83537 5.85645 10.1021 5.85645C10.81 5.85645 11.4119 6.04273 11.8246 6.2978C11.9535 6.37518 12.0108 6.47549 12.0108 6.57293C12.0108 6.7191 11.8933 6.8366 11.7472 6.83947H11.7443C11.6755 6.83373 11.6067 6.81367 11.5466 6.77928C11.0937 6.53281 10.6209 6.38665 10.0792 6.38665C9.10477 6.38665 8.5631 6.92544 8.5631 7.68205C8.5631 8.36988 8.98726 8.81124 10.1365 8.9574L10.4403 8.99752C11.773 9.16375 12.4006 9.79139 12.4006 10.7945C12.4006 11.9237 11.5924 12.729 10.0391 12.729C9.31111 12.7233 8.59463 12.4968 7.98991 12.0813Z" fill="#86888C"/>
<path d="M10.0439 12.986C9.25574 12.9803 8.48767 12.7395 7.83997 12.2924C7.66801 12.1721 7.58203 12.0116 7.58203 11.8167C7.5849 11.5186 7.8285 11.2808 8.12656 11.2836C8.25266 11.2865 8.37303 11.3266 8.47621 11.3954C9.02074 11.7565 9.571 11.9399 10.1127 11.9399C11.0212 11.9399 11.5858 11.5158 11.5858 10.8337C11.5858 10.3866 11.4195 9.9481 10.2072 9.79334L9.89198 9.75322C8.11796 9.52681 7.74539 8.52659 7.74539 7.72986C7.74539 6.43445 8.67109 5.59473 10.1012 5.59473C10.7976 5.59473 11.4568 5.76668 11.9583 6.07621C12.2277 6.24243 12.2679 6.45738 12.2679 6.57201C12.2679 6.86147 12.0328 7.09648 11.7434 7.09648C11.6345 7.09362 11.5284 7.06209 11.431 7.0105L11.4224 7.00764C10.9696 6.76117 10.5426 6.64653 10.0811 6.64653C9.293 6.64653 8.82299 7.03343 8.82299 7.684C8.82299 8.10243 8.98348 8.55238 10.1728 8.70428L10.4766 8.7444C12.2822 8.97081 12.6605 9.98536 12.6605 10.7964C12.6605 11.4441 12.4226 11.9944 11.9727 12.3842C11.5198 12.7768 10.8492 12.986 10.0439 12.986ZM8.13516 11.8683C8.39309 12.0488 9.09812 12.4701 10.0439 12.4701C10.7231 12.4701 11.2762 12.3039 11.6373 11.9887C11.9698 11.7021 12.1446 11.2894 12.1446 10.7936C12.1446 9.90511 11.5772 9.4007 10.4136 9.25454L10.1069 9.21442C8.89463 9.05966 8.30712 8.55812 8.30712 7.68114C8.30712 7.22545 8.47334 6.83568 8.78573 6.55768C9.09812 6.27969 9.54807 6.12779 10.0811 6.12779C10.6228 6.12779 11.1415 6.26536 11.666 6.54909C11.6889 6.56342 11.7176 6.57201 11.7434 6.57775H11.7463L11.7491 6.57488C11.7319 6.55195 11.7119 6.53189 11.6861 6.51756C11.4425 6.36567 10.9123 6.11346 10.0983 6.11346C9.53661 6.11346 9.06946 6.26536 8.74561 6.55195C8.42749 6.83282 8.26126 7.23978 8.26126 7.72986C8.26126 8.6011 8.81439 9.09405 9.95504 9.24021L10.2703 9.28033C10.9151 9.36345 11.3737 9.53254 11.6746 9.80194C11.9612 10.0599 12.1016 10.3981 12.1016 10.8337C12.1016 11.3123 11.901 11.7336 11.5399 12.023C11.1845 12.3068 10.6916 12.4558 10.1098 12.4558C9.46496 12.4558 8.81725 12.2437 8.18388 11.8224C8.16382 11.8081 8.14376 11.7995 8.12083 11.7966C8.10937 11.7966 8.0979 11.8024 8.09504 11.8138C8.10077 11.8368 8.10077 11.8396 8.13516 11.8683Z" fill="#86888C"/>
<path d="M10.1848 13.9005C9.96981 13.9005 9.79785 13.7257 9.79785 13.5136V5.33996C9.79785 5.12502 9.97267 4.9502 10.1848 4.9502C10.3997 4.9502 10.5745 5.12502 10.5745 5.33996V13.5136C10.5717 13.7286 10.3997 13.9005 10.1848 13.9005Z" fill="#86888C"/>
<path d="M10.0275 17.5546C5.5939 17.5546 2 13.9607 2 9.52707C2 7.39767 2.84545 5.35712 4.35008 3.84963C7.53701 0.765872 12.6183 0.848984 15.7021 4.03305C18.7171 7.14547 18.7171 12.0892 15.7021 15.2016C14.2003 16.712 12.1569 17.5603 10.0275 17.5546ZM10.0275 2.64593C6.22727 2.64593 3.14638 5.72683 3.14638 9.52707C3.14638 11.3527 3.87146 13.1009 5.16114 14.3934C7.858 17.0702 12.2171 17.053 14.8939 14.3562C17.5564 11.6737 17.5564 7.34609 14.8939 4.66356C13.6042 3.36529 11.8531 2.6402 10.0275 2.64593Z" fill="#86888C"/>
<path d="M21.5174 21.59C21.3655 21.59 21.2193 21.5298 21.1133 21.4209L14.8942 15.2018C14.6792 14.9696 14.6964 14.6056 14.9286 14.3907C15.1493 14.1901 15.4846 14.1901 15.7052 14.3907L21.9244 20.6098C22.1479 20.8333 22.1479 21.1973 21.9244 21.4209C21.8126 21.5298 21.6693 21.59 21.5174 21.59Z" fill="#86888C"/>
</svg>
