<svg width="20" height="20" viewBox="0 0 20 20" fill="none" xmlns="http://www.w3.org/2000/svg">
<path d="M13.9378 17.7854C13.6799 17.7854 13.4722 17.5777 13.4722 17.3198V2.68242C13.4722 2.4245 13.6799 2.2168 13.9378 2.2168C14.1957 2.2168 14.4034 2.4245 14.4034 2.68242V17.3198C14.4034 17.5754 14.1957 17.7854 13.9378 17.7854Z" fill="#86888C"/>
<path d="M15.2275 8.08944H14.0794C13.8215 8.08944 13.6138 7.88174 13.6138 7.62382C13.6138 7.36591 13.8215 7.1582 14.0794 7.1582H15.2275C15.4854 7.1582 15.6931 7.36591 15.6931 7.62382C15.6931 7.88174 15.4854 8.08944 15.2275 8.08944Z" fill="#86888C"/>
<path d="M13.4631 18H6.37375C5.06362 18 4 16.9341 4 15.6262V4.15692C4 3.58174 4.22368 3.0408 4.62996 2.63224C5.03623 2.22368 5.57718 2 6.15464 2H13.4631C14.691 2 15.693 2.99971 15.693 4.22996V15.7723C15.693 17.0003 14.6933 18 13.4631 18ZM6.15464 2.93124C5.82825 2.93124 5.52011 3.05906 5.28959 3.28959C5.05906 3.52011 4.93124 3.82825 4.93124 4.15692V15.6262C4.93124 16.4228 5.57946 17.071 6.37603 17.071H13.4653C14.182 17.071 14.7641 16.489 14.7641 15.7723V4.22996C14.7641 3.51327 14.182 2.93124 13.4653 2.93124H6.15464Z" fill="#86888C"/>
<path d="M11.7194 13.5905H6.77103C6.54279 13.5905 6.35791 13.4056 6.35791 13.1774V12.4538C6.35791 11.2144 7.11568 10.4133 8.29115 10.4133H10.2016C11.3747 10.4133 12.1348 11.2144 12.1348 12.4538V13.1774C12.1325 13.4056 11.9476 13.5905 11.7194 13.5905ZM7.18416 12.7642H11.3063V12.4538C11.3063 11.9996 11.1625 11.2395 10.1993 11.2395H8.28887C7.32567 11.2395 7.18188 11.9996 7.18188 12.4538V12.7642H7.18416ZM9.23837 9.94996C7.98302 9.94996 7.26176 9.22871 7.26176 7.97336C7.26176 6.71344 7.98302 5.99219 9.23837 5.99219C10.4983 5.99219 11.2195 6.71344 11.2195 7.97336C11.2195 9.22871 10.4983 9.94996 9.23837 9.94996ZM9.23837 6.88234C8.47831 6.88234 8.15192 7.20873 8.15192 7.97336C8.15192 8.73341 8.47603 9.05981 9.23837 9.05981C10.003 9.05981 10.3294 8.7357 10.3294 7.97336C10.3294 7.20873 10.003 6.88234 9.23837 6.88234ZM15.1956 12.8441H14.0475C13.7896 12.8441 13.5819 12.6364 13.5819 12.3785C13.5819 12.1206 13.7896 11.9129 14.0475 11.9129H15.1956C15.4535 11.9129 15.6612 12.1206 15.6612 12.3785C15.6612 12.6364 15.4535 12.8441 15.1956 12.8441Z" fill="#86888C"/>
</svg>
