<svg width="28" height="28" viewBox="0 0 28 28" fill="none" xmlns="http://www.w3.org/2000/svg">
<path fill-rule="evenodd" clip-rule="evenodd" d="M25.5877 10.684V15.0062C25.5877 15.0415 25.5716 15.0672 25.5684 15.1026V20.4273C25.5684 21.3496 24.8036 22.1016 23.8652 22.1016H4.71922C3.77767 22.1016 3.01285 21.3496 3.01285 20.4273V15.0608C3.00964 15.0415 3 15.0254 3 15.0062V10.684C3 10.6647 3.00964 10.6487 3.01285 10.6294V7.77579C3.01285 6.85031 3.77767 6.10156 4.71922 6.10156H23.8652C24.8036 6.10156 25.5684 6.85031 25.5684 7.77579V10.5876C25.5716 10.6197 25.5877 10.6487 25.5877 10.684ZM23.8652 20.6844C24.0098 20.6844 24.1287 20.5687 24.132 20.4241V15.7131H4.4525V20.4273C4.4525 20.5719 4.57461 20.6908 4.71922 20.6876C4.71922 20.6844 23.8652 20.6844 23.8652 20.6844ZM4.71922 7.5155C4.57461 7.51229 4.4525 7.63119 4.4525 7.77579V9.97704H24.1287V7.77579C24.1287 7.63119 24.0098 7.5155 23.862 7.5155H4.71922ZM4.4525 14.2992H24.1287V11.391H4.4525V14.2992Z" fill="#86888C"/>
</svg>
