<svg width="40" height="40" viewBox="0 0 40 40" fill="none" xmlns="http://www.w3.org/2000/svg">
<path fill-rule="evenodd" clip-rule="evenodd" d="M14.5903 28.653C16.8439 28.653 17.4636 27.8233 17.4636 24.7964C17.4636 22.8963 17.1921 21.8822 16.5519 21.4008C16.1371 21.0883 15.4969 20.9347 14.5903 20.9347C13.6787 20.9347 13.0334 21.0884 12.6185 21.4059C11.9834 21.8924 11.7171 22.9014 11.7171 24.7913C11.7171 27.8284 12.3317 28.653 14.5903 28.653ZM14.5955 18.6402C12.6646 18.6402 12.6646 19.0294 12.6646 19.5775C12.6646 19.5928 12.6646 19.598 12.6697 19.6082C13.2126 19.4238 13.8426 19.3265 14.5903 19.3265C15.3432 19.3265 15.9732 19.4289 16.5212 19.6133V19.5775C16.5212 19.0294 16.5212 18.6402 14.5955 18.6402ZM20.0142 23.4289C20.4597 23.4289 20.8234 23.7926 20.8234 24.2382V25.3956C20.8234 25.8412 20.4597 26.2049 20.0142 26.2049C19.5686 26.2049 19.2049 25.8464 19.2049 25.3956V25.0474H19.0718C19.0615 25.8822 18.9847 26.6812 18.7901 27.4033L19.8656 27.7311C20.2241 27.8387 20.4597 28.1767 20.4393 28.5455L20.3471 30.2868C20.3215 30.717 19.9681 31.0499 19.5378 31.0499H19.4969C19.0513 31.0243 18.7081 30.6453 18.7338 30.1997L18.7901 29.0883L18.0833 28.8732C17.4277 29.7183 16.3624 30.2715 14.5852 30.2715C12.8029 30.2715 11.7376 29.7183 11.082 28.8681L10.3496 29.0883L10.406 30.1997C10.4316 30.6453 10.0884 31.0243 9.64284 31.0499H9.59675C9.16653 31.0499 8.81314 30.717 8.78753 30.2868L8.69534 28.5455C8.67485 28.1767 8.91045 27.8387 9.26896 27.7311L10.3752 27.3982C10.1857 26.6761 10.1089 25.8771 10.0987 25.0525H9.96551V25.4008C9.96551 25.8464 9.60187 26.21 9.15629 26.21C8.71071 26.21 8.34707 25.8515 8.34707 25.4008V24.2433C8.34707 23.7977 8.71071 23.4341 9.15629 23.4341H10.1448C10.2062 22.7631 10.3394 22.1127 10.5852 21.5288L9.26896 21.1293C8.91045 21.0218 8.67485 20.6837 8.69534 20.315L8.78753 18.5685C8.81314 18.1229 9.18702 17.7849 9.63772 17.8054C10.0833 17.831 10.4265 18.21 10.4008 18.6556L10.3445 19.767L11.0718 19.9872C11.0564 19.854 11.0411 19.7209 11.0411 19.5775C11.0411 17.0269 13.525 17.0269 14.5903 17.0269C15.6556 17.0269 18.1396 17.0269 18.1396 19.5775C18.1396 19.7157 18.1243 19.8438 18.1089 19.9718L18.7901 19.767L18.7338 18.6556C18.7081 18.21 19.0513 17.831 19.4969 17.8054C19.9476 17.7849 20.3266 18.1229 20.3471 18.5685L20.4393 20.315C20.4597 20.6837 20.2241 21.0218 19.8656 21.1293L18.575 21.5186C18.8259 22.1024 18.954 22.7631 19.0206 23.4341H20.0142V23.4289ZM14.5443 22.1383C14.9898 22.1383 15.3535 22.4968 15.3535 22.9475V27.2804C15.3535 27.726 14.9898 28.0896 14.5443 28.0896C14.0987 28.0896 13.735 27.7311 13.735 27.2804V22.9475C13.7299 22.5019 14.0935 22.1383 14.5443 22.1383ZM33.7965 33.0423C35.1588 32.6325 36.7875 31.9104 36.7875 30.8041V26.0666C36.1166 26.4712 35.333 26.8195 34.4521 27.0858C32.3829 27.7055 29.6736 28.0487 26.8311 28.0487C26.4316 28.0487 26.0475 28.023 25.6582 28.0128C25.6326 28.1716 25.6121 28.3355 25.5865 28.484C25.269 30.3022 23.7837 32.0435 22.0218 33.5288C23.4815 33.7746 25.1051 33.9129 26.8055 33.9129C29.4329 33.9129 31.9169 33.6056 33.7965 33.0423ZM14.5903 35.685C17.2587 34.3534 22.9079 30.9885 23.4098 28.105C23.4713 27.7516 23.5276 27.3367 23.5737 26.8963C23.5737 26.8656 23.5583 26.84 23.5635 26.8092C23.5686 26.7682 23.5891 26.7375 23.5942 26.6965C23.8349 24.356 23.9271 21.0832 23.9578 18.84C23.9476 18.7734 23.922 18.7068 23.9271 18.6351C23.9322 18.5839 23.9527 18.5429 23.9629 18.4968C23.9681 18.1485 23.9681 17.8259 23.9732 17.5493H23.9681C21.8067 17.5493 20.4444 16.6479 19.2152 15.8387C17.9399 14.9936 16.7312 14.1997 14.5955 14.1946H14.5903C12.4597 14.1946 11.251 14.9936 9.97063 15.8335C8.73119 16.653 7.35347 17.5647 5.23823 17.5647H5.21775C5.23311 19.9923 5.3253 25.5032 5.78113 28.0999C6.23183 30.7068 11.2306 34.0256 14.5903 35.685ZM16.8285 9.71319V12.2689C18.3394 12.6428 19.4354 13.3496 20.429 14.0051C21.7811 14.9014 22.8567 15.6082 24.8592 15.2907C25.1819 15.2446 25.5199 15.3316 25.7658 15.5365C26.0116 15.7465 26.1704 16.0435 26.1755 16.3662C26.1755 16.443 26.1755 16.9193 26.1704 17.6261C26.3906 17.6312 26.6057 17.6415 26.8259 17.6415C29.4636 17.6415 31.9425 17.3342 33.8119 16.7708C35.5327 16.2535 36.4597 15.4904 36.7824 14.9373V9.7388C36.1422 10.1127 35.3688 10.4405 34.4418 10.717C32.3727 11.3367 29.6685 11.6799 26.8208 11.6799C23.9732 11.6799 21.269 11.3367 19.1998 10.717C18.2677 10.4353 17.479 10.0973 16.8285 9.71319ZM19.8195 5.08323C18.2574 5.55442 17.2792 6.16901 16.9668 6.83483C17.2638 7.50576 18.2574 8.1306 19.84 8.60691C21.7094 9.16517 24.1883 9.47759 26.8259 9.47759C29.4636 9.47759 31.9425 9.1703 33.8119 8.61204C35.3688 8.14597 36.3727 7.52625 36.68 6.86044C36.3061 6.01537 34.9642 5.43662 33.7965 5.08835C31.9271 4.53009 29.4431 4.21767 26.8055 4.21767C24.1729 4.21767 21.6889 4.52497 19.8195 5.08323ZM26.1448 19.8233C26.1089 21.6466 26.0372 23.8848 25.8836 25.8156C26.2011 25.8259 26.5084 25.8464 26.8259 25.8464C29.4636 25.8464 31.9425 25.5391 33.8119 24.9757C35.5276 24.4584 36.4546 23.6953 36.7824 23.1472V17.8617C36.1115 18.2663 35.3279 18.6146 34.4469 18.8809C32.3778 19.5006 29.6685 19.8438 26.8259 19.8438C26.5955 19.8438 26.3752 19.8335 26.1448 19.8233ZM34.4316 2.97823C37.4585 3.88476 38.995 5.34955 38.995 7.32138V30.8041C38.995 32.7759 37.4585 34.2407 34.4316 35.1473C32.3522 35.767 29.6428 36.1101 26.8055 36.1101C24.1781 36.1101 21.6889 35.8079 19.6813 35.2702C17.525 36.7094 15.5071 37.6876 15.0615 37.8976C14.913 37.9693 14.7542 38 14.5903 38C14.4316 38 14.2677 37.9641 14.1192 37.8924C13.1307 37.4264 4.42901 33.2061 3.60443 28.4738C2.97959 24.9091 3.00008 16.7042 3.00008 16.356C3.00008 16.0179 3.15885 15.7004 3.42005 15.4955C3.68638 15.2855 4.03465 15.2138 4.36243 15.2907C6.32914 15.598 7.39444 14.8912 8.74656 13.9949C10.1704 13.0525 11.7888 11.9872 14.5852 11.9872H14.6211V7.31114C14.6211 6.98848 14.6672 6.67606 14.7542 6.37388C15.1896 4.863 16.68 3.71575 19.1845 2.96287C21.2536 2.34315 23.9629 2 26.8106 2C29.6531 2.01536 32.3624 2.35851 34.4316 2.97823Z" fill="#86888C"/>
</svg>
