<svg width="40" height="40" viewBox="0 0 40 40" fill="none" xmlns="http://www.w3.org/2000/svg">
<path fill-rule="evenodd" clip-rule="evenodd" d="M13.5565 31.4648C12.947 31.4648 12.4553 30.9731 12.4553 30.3636V23.2497C12.4553 22.6402 12.9521 22.1485 13.5565 22.1485C14.1608 22.1485 14.6576 22.6402 14.6576 23.2497V30.3636C14.6627 30.968 14.1659 31.4648 13.5565 31.4648ZM13.5565 32.0794C14.1762 32.0794 14.6781 32.5813 14.6781 33.201C14.6781 33.8207 14.1762 34.3227 13.5565 34.3227C12.9368 34.3227 12.4348 33.8207 12.4348 33.201C12.4348 32.5813 12.9368 32.0794 13.5565 32.0794ZM35.7946 15.6901V10.0205C35.1032 10.4302 34.2633 10.799 33.2338 11.1063C31.0417 11.767 28.189 12.1204 25.1826 12.1204C22.1813 12.1204 19.3234 11.767 17.1467 11.1063C16.1173 10.7939 15.2466 10.4149 14.5552 9.98976V15.2497C14.8215 15.4136 15.0417 15.644 15.1903 15.9257L15.559 16.6735C16.148 17.0423 16.9111 17.3803 17.7818 17.6415C19.769 18.2458 22.4015 18.5685 25.198 18.5685C27.9944 18.5685 30.6115 18.2458 32.5987 17.6415C34.4271 17.0986 35.4259 16.274 35.7946 15.6901ZM35.7946 24.3713V18.6248C35.0725 19.0653 34.2069 19.4648 33.2338 19.7567C31.052 20.402 28.1992 20.7708 25.198 20.7708C22.1967 20.7708 19.3286 20.402 17.1467 19.7567C17.1314 19.7414 17.1006 19.7414 17.0904 19.726L20.6807 26.9373C22.0789 27.1421 23.641 27.2599 25.198 27.2599C27.9944 27.2599 30.6115 26.9219 32.5987 26.3329C34.4271 25.8003 35.4259 24.9757 35.7946 24.3713ZM35.7946 32.4533V27.3111C35.0725 27.767 34.2069 28.1511 33.2338 28.443C31.052 29.1037 28.1992 29.4725 25.198 29.4725C24.0353 29.4725 22.9342 29.3956 21.8433 29.2983L24.9316 35.4853C24.988 35.5877 24.988 35.7055 25.0187 35.8079H25.1621C27.9432 35.8079 30.5808 35.4853 32.5782 34.886C34.043 34.4353 35.7946 33.6569 35.7946 32.4533ZM13.6333 17.7439L4.52702 35.7004L22.6115 35.7721L13.6333 17.7439ZM17.7716 5.13956C16.0814 5.65173 15.0213 6.33291 14.6986 7.04994C15.0059 7.79769 16.0814 8.48912 17.7869 8.98591C19.7741 9.59027 22.4067 9.91293 25.1877 9.91293C27.9841 9.91293 30.6167 9.59027 32.6038 8.98591C34.2837 8.48912 35.3695 7.81306 35.6922 7.07554C35.2927 6.14853 33.8382 5.51857 32.5885 5.13444C30.6013 4.54545 27.9688 4.20743 25.1723 4.20743C22.3759 4.21255 19.7383 4.55058 17.7716 5.13956ZM33.2184 3.02433C36.399 3.97695 38.0021 5.50832 38.0021 7.57746V32.4481C38.0021 34.507 36.399 36.0333 33.2184 36.9859C31.0264 37.6466 28.1583 38 25.1672 38C24.8753 38 23.8612 38 23.5488 37.9846C23.5181 37.9846 23.4771 37.9693 23.431 37.9693H23.3542L3.72292 37.8976H3.69219C2.78054 37.8976 2.01742 37.1447 2.00205 36.2074C1.98669 35.9155 2.05839 35.6338 2.19155 35.3828L12.0814 15.9001C12.1531 15.7823 12.2453 15.6799 12.3478 15.5775V7.56722C12.3478 7.24456 12.3939 6.92189 12.4809 6.59923V6.58387C12.9368 5.01152 14.4937 3.80794 17.116 3.01408C19.3081 2.36364 22.1608 2 25.1621 2C28.1736 2.01024 31.0417 2.379 33.2184 3.02433Z" fill="#86888C"/>
</svg>
