<svg width="40" height="40" viewBox="0 0 40 40" fill="none" xmlns="http://www.w3.org/2000/svg">
<path fill-rule="evenodd" clip-rule="evenodd" d="M32.8017 33.0269C30.922 33.5851 28.438 33.8976 25.8106 33.8976C24.1103 33.8976 22.4867 33.7542 21.027 33.5134C22.7838 32.0282 24.269 30.2919 24.5866 28.4686C24.6122 28.3252 24.6327 28.1665 24.6583 28.0077C25.0475 28.023 25.4368 28.0384 25.8311 28.0384C28.6736 28.0384 31.383 27.6953 33.4521 27.0755C34.3382 26.8092 35.1218 26.4661 35.7876 26.0563V30.7939C35.7927 31.9001 34.164 32.6172 32.8017 33.0269ZM4.78119 28.0896C4.66852 27.4443 4.57633 26.6248 4.50463 25.7132H12.4073V35.0448C9.53408 33.4622 5.22166 30.5941 4.78119 28.0896ZM4.2383 17.5544C6.35354 17.5544 7.73126 16.6428 8.9707 15.8233C9.9899 15.1524 10.9733 14.5173 12.4073 14.2817V23.5109H4.37146C4.26391 21.2574 4.22806 18.9219 4.21781 17.5493H4.2383V17.5544ZM15.8337 9.6927C16.4841 10.0819 17.2729 10.42 18.2101 10.6965C20.2793 11.3163 22.9835 11.6594 25.8311 11.6594C28.6736 11.6594 31.383 11.3163 33.4521 10.6965C34.3791 10.42 35.1576 10.0922 35.7927 9.71831V14.9219C35.4649 15.475 34.543 16.2382 32.8222 16.7554C30.7991 17.3649 27.9822 17.6722 25.1807 17.6108C25.1858 16.8988 25.1858 16.4225 25.1858 16.3457C25.1858 16.023 25.0219 15.726 24.7761 15.516C24.5302 15.3111 24.1922 15.2292 23.8695 15.2702C21.8619 15.5826 20.7914 14.8809 19.4393 13.9846C18.4457 13.3291 17.3548 12.6223 15.8388 12.2484V9.6927H15.8337ZM18.8247 5.06786C20.6941 4.5096 23.1781 4.19718 25.8106 4.19718C28.4483 4.19718 30.9323 4.50448 32.8017 5.06786C33.9643 5.41613 35.3062 5.99488 35.6852 6.84507C35.3779 7.50576 34.374 8.12548 32.817 8.59667C30.9476 9.15493 28.4688 9.46223 25.8311 9.46223C23.1935 9.46223 20.7146 9.15493 18.8452 8.59155C17.2677 8.12036 16.269 7.4904 15.972 6.81946C16.2844 6.15877 17.2626 5.53905 18.8247 5.06786ZM25.15 19.8131C25.3753 19.8182 25.6007 19.8284 25.8311 19.8284C28.6736 19.8284 31.383 19.4853 33.4521 18.8656C34.3382 18.5992 35.1218 18.251 35.7876 17.8463V23.1319C35.4598 23.6799 34.5328 24.4481 32.817 24.9654C30.9476 25.5237 28.4688 25.8361 25.8311 25.8361C25.5136 25.8361 25.2012 25.8207 24.8887 25.8105C25.0424 23.8796 25.1141 21.6364 25.15 19.8131ZM14.6147 14.2561C16.141 14.4661 17.1551 15.1268 18.2153 15.8233C19.4393 16.6325 20.8068 17.5339 22.963 17.5339H22.9681C22.9579 18.8963 22.922 21.2522 22.8145 23.5109H14.6096V14.2561H14.6147ZM14.6147 35.137V25.7132H22.6864C22.6147 26.6248 22.5277 27.4443 22.415 28.0896C21.9694 30.6453 17.488 33.5698 14.6147 35.137ZM33.4368 2.96287C31.3676 2.34315 28.6583 2 25.8106 2C22.963 2 20.2588 2.34315 18.1845 2.96287C15.68 3.71575 14.1896 4.863 13.7543 6.37388C13.6672 6.67093 13.6211 6.98848 13.6211 7.31114V11.9821H13.5853C10.7889 11.9821 9.17556 13.0474 7.74662 13.9898C6.39451 14.886 5.33945 15.6031 3.37274 15.2907C3.04496 15.2087 2.69669 15.2804 2.42524 15.4904C2.15892 15.7004 2.00014 16.0179 2.00014 16.356C2.00014 16.7042 1.97454 24.9091 2.6045 28.4738C3.4342 33.2061 12.1307 37.4264 13.1192 37.8924C13.2677 37.9641 13.4316 38 13.5904 38C13.7543 38 13.9131 37.9641 14.0616 37.8976C14.5072 37.6876 16.5251 36.7093 18.6813 35.2702C20.6941 35.8028 23.1832 36.1101 25.8055 36.1101C28.6429 36.1101 31.3471 35.767 33.4316 35.1472C36.4585 34.2356 37.9899 32.7759 37.9899 30.8041V7.32138C38.0001 5.33419 36.4637 3.87452 33.4368 2.96287Z" fill="#86888C"/>
</svg>
