<svg width="28" height="28" viewBox="0 0 28 28" fill="none" xmlns="http://www.w3.org/2000/svg">
<path fill-rule="evenodd" clip-rule="evenodd" d="M10.8151 19.8065C12.434 19.8065 13.223 19.0312 13.223 17.4396C13.223 15.8481 12.434 15.0728 10.8151 15.0728C9.19623 15.0728 8.40728 15.8481 8.40728 17.4396C8.40728 19.0346 9.19623 19.8065 10.8151 19.8065ZM10.8151 13.6042C13.2605 13.6042 14.7223 15.0386 14.7223 17.4431C14.7223 19.8475 13.2605 21.282 10.8151 21.282C8.36971 21.282 6.90792 19.8475 6.90792 17.4431C6.90792 15.0386 8.36971 13.6042 10.8151 13.6042ZM24.5074 11.2065V7.42912C24.0395 7.70918 23.4692 7.95168 22.7758 8.1566C21.297 8.59377 19.3639 8.83285 17.3249 8.83285C15.2893 8.83285 13.3528 8.59377 11.8773 8.1566C11.1772 7.95168 10.5965 7.69894 10.1218 7.40863V8.79186C10.1491 8.78845 10.173 8.78503 10.2004 8.78503H11.4333C12.2906 8.78503 12.9873 9.46811 12.9873 10.3117V11.2031C13.2708 11.2714 13.5372 11.3534 13.7968 11.4559L14.5584 10.7079C15.1698 10.1102 16.1602 10.1102 16.7716 10.7079L17.6732 11.5959C17.967 11.8828 18.1309 12.2687 18.1309 12.682C18.1309 12.8323 18.1036 12.9757 18.0626 13.1157C19.6644 13.0645 21.1808 12.8664 22.3489 12.5215C23.5785 12.1492 24.2615 11.6027 24.5074 11.2065ZM24.5074 17.0025V13.1704C24.019 13.471 23.4384 13.7305 22.7792 13.9252C21.297 14.3624 19.3604 14.6014 17.3283 14.6014C17.1985 14.6014 17.0687 14.598 16.9389 14.598C17.0243 14.8269 17.1029 15.0625 17.1643 15.3084H18.0728C18.9301 15.3084 19.6268 15.9915 19.6268 16.8351V18.0476C19.6268 18.3311 19.5415 18.594 19.4048 18.8229C20.4978 18.7238 21.5121 18.5565 22.3489 18.3071C23.5785 17.9451 24.2615 17.3987 24.5074 17.0025ZM24.5074 22.3851V18.9663C24.0156 19.2669 23.4384 19.5264 22.7792 19.7211C21.297 20.1583 19.3639 20.3974 17.3283 20.3974C17.1951 20.3974 17.0653 20.3905 16.9321 20.3905L17.6732 21.1214C17.967 21.4083 18.1309 21.7943 18.1309 22.2075C18.1309 22.6174 17.967 23.0067 17.6732 23.2936L16.7716 24.1782C16.5291 24.4139 16.2114 24.53 15.887 24.5744C16.3549 24.6051 16.8296 24.6222 17.3112 24.6222C19.1999 24.6222 20.9862 24.4036 22.3352 24.0074C23.3257 23.7103 24.5074 23.1912 24.5074 22.3851ZM14.4969 22.0333L15.6206 23.1365L16.6145 22.2519L15.4908 21.0565C15.262 20.8345 15.2039 20.4896 15.3474 20.2095C15.5659 19.7792 15.723 19.2771 15.8153 18.7204C15.8733 18.3652 16.1875 18.1022 16.5564 18.1022H18.0763L18.1309 16.8351L16.5564 16.7805C16.1875 16.7805 15.8733 16.5175 15.8153 16.1623C15.723 15.6056 15.5659 15.1035 15.3474 14.6732C15.2039 14.3897 15.262 14.0482 15.4908 13.8262L16.6145 12.723L15.7128 11.7462L14.4969 12.8493C14.2715 13.0713 13.9231 13.126 13.6397 12.9894C13.1752 12.7674 12.6902 12.6205 12.1198 12.5283C11.7544 12.4702 11.488 12.1629 11.488 11.8008V10.3083L10.2004 10.2536L10.1457 11.7974C10.1457 12.1594 9.87931 12.4668 9.51386 12.5249C8.95032 12.6137 8.44143 12.7674 7.99743 12.9825C7.71054 13.1226 7.36217 13.0645 7.13334 12.8425L6.00967 11.7393L5.01579 12.6239L6.13604 13.8159C6.37512 14.0482 6.42293 14.4102 6.25899 14.6971C6.0609 15.042 5.89355 15.6773 5.81499 16.1554C5.75352 16.5107 5.44272 16.7736 5.07385 16.7736H3.554L3.49936 18.0407L5.07385 18.0954C5.4393 18.0954 5.75352 18.355 5.81499 18.7136C5.89355 19.1951 6.06432 19.8304 6.25899 20.1719C6.42293 20.4588 6.37512 20.8209 6.13604 21.0531L5.01579 22.1563L5.91746 23.1331L7.13334 22.0299C7.27678 21.8899 7.46804 21.8148 7.66272 21.8148C7.77543 21.8148 7.89155 21.8387 7.99401 21.8899C8.4346 22.1051 8.94349 22.2588 9.51045 22.3476C9.87248 22.4056 10.1389 22.713 10.1389 23.075V24.5676L11.4265 24.6222C11.4538 24.6222 11.4811 24.5983 11.4811 24.5676V23.075C11.4811 22.713 11.7475 22.4056 12.113 22.3476C12.6833 22.2588 13.1649 22.1085 13.6328 21.8865C13.9231 21.7533 14.2715 21.8113 14.4969 22.0333ZM12.9873 24.1714C13.6226 24.3182 14.3227 24.4275 15.0707 24.5027C14.8829 24.4309 14.7087 24.3217 14.5618 24.1782L13.8002 23.4302C13.5372 23.5327 13.2708 23.6147 12.9907 23.683V24.1714H12.9873ZM12.294 4.18108C11.1498 4.51921 10.4326 4.97004 10.214 5.45844C10.4224 5.95026 11.1533 6.4045 12.3077 6.74946C13.6499 7.14564 15.4293 7.36423 17.3249 7.36423C19.2204 7.36423 21.0032 7.14564 22.3421 6.74946C23.4828 6.41133 24.2137 5.9605 24.4323 5.47552C24.1659 4.8505 23.1823 4.43382 22.3318 4.18108C20.9896 3.7849 19.2067 3.56631 17.3112 3.56631C15.4191 3.56631 13.6362 3.7849 12.294 4.18108ZM22.7656 2.77052C24.9139 3.40579 26.0068 4.42699 26.0068 5.79998V22.3851C26.0068 23.7581 24.9173 24.7793 22.7656 25.4146C21.2799 25.8517 19.3434 26.0908 17.3112 26.0908C15.5967 26.0908 13.9505 25.9098 12.5775 25.5888C12.294 25.8996 11.8876 26.0977 11.4299 26.0977H10.2004C9.34309 26.0977 8.64635 25.4146 8.64635 24.571V23.6796C8.36288 23.6113 8.09306 23.5259 7.83349 23.4302L7.07186 24.1782C6.481 24.7588 5.45296 24.7588 4.85868 24.1782L3.95702 23.2936C3.6633 23.0033 3.49936 22.6174 3.49936 22.2075C3.49936 21.7943 3.6633 21.4083 3.96044 21.118L4.71182 20.3769C4.60594 20.1036 4.52398 19.8167 4.4625 19.5743H3.554C2.69674 19.5743 2 18.8878 2 18.0476V16.8351C2 15.9949 2.69674 15.3084 3.554 15.3084H4.4625C4.52398 15.0625 4.60594 14.779 4.71182 14.5024L3.95702 13.7613C3.6633 13.471 3.49936 13.085 3.49936 12.6717C3.49936 12.2585 3.6633 11.8725 3.96044 11.5857L4.85868 10.7011C5.46662 10.1034 6.4605 10.1034 7.07186 10.7011L7.83349 11.4525C8.08965 11.3534 8.36288 11.2714 8.64635 11.2031V10.4517C8.63952 10.4176 8.62586 10.3834 8.62586 10.3493V5.79998C8.62586 5.57798 8.6566 5.35939 8.71808 5.15447C9.02546 4.10253 10.0842 3.29991 11.8671 2.77394C13.3459 2.33677 15.2825 2.09769 17.318 2.09769C19.3502 2.09428 21.2867 2.33335 22.7656 2.77052Z" fill="#86888C"/>
</svg>
