<svg width="40" height="40" viewBox="0 0 40 40" fill="none" xmlns="http://www.w3.org/2000/svg">
<path d="M24.0808 38.2539H10.9419C6.94138 38.2539 5 36.2875 5 32.2368V8.27098C5 4.27667 6.99772 2.25391 10.9419 2.25391H24.0808C26.1042 2.25391 27.5743 2.75063 28.568 3.77482C29.5464 4.77851 30.0228 6.24822 30.0228 8.27098V10.8622C30.0228 11.4255 29.5618 11.8863 28.9983 11.8863C28.4348 11.8863 27.9738 11.4255 27.9738 10.8622V8.27098C27.9738 6.81152 27.687 5.8027 27.103 5.20355C26.5191 4.6044 25.5253 4.30227 24.0808 4.30227H10.9419C8.14001 4.30227 7.04895 5.41351 7.04895 8.27098V32.2368C7.04895 33.7117 7.3358 34.7205 7.92487 35.3196C8.51394 35.9188 9.49744 36.2055 10.9419 36.2055H24.0808C25.5253 36.2055 26.5088 35.9137 27.0979 35.3196C27.687 34.7256 27.9738 33.7117 27.9738 32.2368V27.0698C27.9738 26.5065 28.4348 26.0457 28.9983 26.0457C29.5618 26.0457 30.0228 26.5065 30.0228 27.0698V32.2368C30.0228 36.2875 28.0763 38.2539 24.0808 38.2539Z" fill="#86888C"/>
<path d="M17.4935 30.2397C16.4383 30.2397 15.7467 30.7979 15.7467 31.991C15.7467 32.5646 15.9055 32.9896 16.1873 33.2815C16.4946 33.5939 16.9402 33.7424 17.4935 33.7424C18.0467 33.7424 18.4923 33.5939 18.7997 33.2815C19.0814 32.9947 19.2402 32.5646 19.2402 31.991C19.2351 30.7927 18.5487 30.2397 17.4935 30.2397ZM33.1423 27.5051H24.7928C23.5225 27.5051 22.7029 26.6858 22.7029 25.4158V14.2573C22.7029 14.0166 22.8156 13.7862 23.0103 13.6428L27.0057 10.6573C27.1389 10.56 27.3028 10.5037 27.4667 10.5037H33.1423C34.4126 10.5037 35.2322 11.323 35.2322 12.593V25.4209C35.2271 26.6858 34.4075 27.5051 33.1423 27.5051ZM24.2396 14.6414V25.4158C24.2396 25.8459 24.3626 25.9688 24.7928 25.9688H33.1423C33.5726 25.9688 33.6955 25.8459 33.6955 25.4158V12.593C33.6955 12.1629 33.5726 12.04 33.1423 12.04H27.7228L24.2396 14.6414Z" fill="#86888C"/>
<path d="M32.0717 24.7296H25.8993C25.6176 24.7296 25.3871 24.4991 25.3871 24.2175V17.7395C25.3871 17.4579 25.6176 17.2274 25.8993 17.2274H32.0717C32.3535 17.2274 32.584 17.4579 32.584 17.7395V24.2175C32.584 24.5043 32.3535 24.7296 32.0717 24.7296ZM26.4166 23.7054H31.5595V18.2516H26.4115L26.4166 23.7054Z" fill="#86888C"/>
<path d="M27.9534 20.3051C27.6716 20.3051 27.4411 20.0747 27.4411 19.793V17.7395C27.4411 17.4579 27.6716 17.2274 27.9534 17.2274C28.2351 17.2274 28.4656 17.4579 28.4656 17.7395V19.793C28.4656 20.0798 28.2351 20.3051 27.9534 20.3051ZM30.0074 20.3051C29.7257 20.3051 29.4952 20.0747 29.4952 19.793V17.7395C29.4952 17.4579 29.7257 17.2274 30.0074 17.2274C30.2892 17.2274 30.5197 17.4579 30.5197 17.7395V19.793C30.5197 20.0798 30.2892 20.3051 30.0074 20.3051ZM27.9534 24.7296C27.6716 24.7296 27.4411 24.4991 27.4411 24.2175V22.164C27.4411 21.8824 27.6716 21.6519 27.9534 21.6519C28.2351 21.6519 28.4656 21.8824 28.4656 22.164V24.2175C28.4656 24.5043 28.2351 24.7296 27.9534 24.7296ZM30.0074 24.7296C29.7257 24.7296 29.4952 24.4991 29.4952 24.2175V22.164C29.4952 21.8824 29.7257 21.6519 30.0074 21.6519C30.2892 21.6519 30.5197 21.8824 30.5197 22.164V24.2175C30.5197 24.5043 30.2892 24.7296 30.0074 24.7296Z" fill="#86888C"/>
<path d="M32.0717 20.3051H25.8993C25.6176 20.3051 25.3871 20.0747 25.3871 19.793C25.3871 19.5114 25.6176 19.2809 25.8993 19.2809H32.0717C32.3535 19.2809 32.584 19.5114 32.584 19.793C32.584 20.0747 32.3535 20.3051 32.0717 20.3051ZM32.0717 22.6761H25.8993C25.6176 22.6761 25.3871 22.4457 25.3871 22.164C25.3871 21.8824 25.6176 21.6519 25.8993 21.6519H32.0717C32.3535 21.6519 32.584 21.8824 32.584 22.164C32.584 22.4457 32.3535 22.6761 32.0717 22.6761Z" fill="#86888C"/>
</svg>
