<svg width="24" height="24" viewBox="0 0 24 24" fill="none" xmlns="http://www.w3.org/2000/svg">
<path d="M15.965 23H9.33111C8.21129 23 7.39481 22.7297 6.83632 22.175C6.27216 21.6145 6 20.7895 6 19.6572V6.34282C6 5.23898 6.27216 4.42816 6.83349 3.85633C7.40048 3.28165 8.21696 3 9.33111 3H15.965C17.0876 3 17.9041 3.27312 18.4654 3.83926C19.0268 4.40541 19.2961 5.22191 19.2961 6.34282V19.6572C19.2961 20.7895 19.0211 21.6145 18.4598 22.175C17.8984 22.7297 17.0848 23 15.965 23ZM9.33111 4.13798C7.77187 4.13798 7.13399 4.77809 7.13399 6.34282V19.6572C7.13399 21.2646 7.72934 21.862 9.33111 21.862H15.965C17.5667 21.862 18.1621 21.2646 18.1621 19.6572V6.34282C18.1621 5.5377 17.9977 4.98009 17.6631 4.64154C17.3286 4.30299 16.7701 4.13798 15.965 4.13798H9.33111Z" fill="#86888C"/>
<path d="M12.648 18.6472C12.1377 18.6472 11.8061 18.9175 11.8061 19.495C11.8061 19.7738 11.8826 19.9787 12.0187 20.1181C12.1661 20.2688 12.3816 20.3428 12.648 20.3428C12.9145 20.3428 13.13 20.2688 13.2774 20.1181C13.4135 19.9787 13.49 19.771 13.49 19.495C13.4872 18.9175 13.1583 18.6472 12.648 18.6472Z" fill="#86888C"/>
<path d="M12.648 20.6302C12.3022 20.6302 12.013 20.522 11.8174 20.3201C11.6218 20.1181 11.5254 19.8421 11.5254 19.4979C11.5254 18.7895 11.945 18.3656 12.6509 18.3656C13.3568 18.3656 13.7735 18.7895 13.7735 19.4979C13.7735 19.845 13.6743 20.1209 13.4815 20.3201C13.2888 20.5192 12.9939 20.6302 12.648 20.6302ZM12.648 18.9346C12.2625 18.9346 12.0896 19.1081 12.0896 19.4979C12.0896 19.6913 12.1349 19.8336 12.22 19.9218C12.305 20.01 12.4524 20.0612 12.6452 20.0612C12.838 20.0612 12.9826 20.0156 13.0705 19.9218C13.1583 19.8279 13.2009 19.6885 13.2009 19.4979C13.2037 19.1081 13.0336 18.9317 12.648 18.9346ZM12.6424 17.1309C12.495 17.1309 12.356 17.0654 12.2597 16.9545L8.92004 13.0853C8.73576 12.872 8.75844 12.5505 8.97107 12.3684C9.06462 12.2888 9.18086 12.2432 9.30276 12.2432H10.7571V7.24467C10.7486 6.99147 10.8478 6.74964 11.0321 6.5761C11.222 6.39403 11.48 6.30299 11.7408 6.32575H13.6006C14.0882 6.32575 14.4823 6.71835 14.4851 7.20768C14.4851 7.23898 14.4851 7.26743 14.4794 7.29872V12.2432H15.9877C16.2683 12.2432 16.4951 12.468 16.4951 12.7496C16.4951 12.872 16.4526 12.9915 16.3704 13.0853L13.0223 16.9545C12.9287 17.0654 12.7898 17.1309 12.6424 17.1309ZM10.4141 13.2617L12.6424 15.8478L14.8792 13.2617H13.9748C13.6942 13.2617 13.4674 13.0341 13.4674 12.7525V7.34424H11.772V12.7525C11.772 13.0341 11.5452 13.2617 11.2646 13.2617H10.4141Z" fill="#86888C"/>
</svg>
