<svg width="20" height="20" viewBox="0 0 20 20" fill="none" xmlns="http://www.w3.org/2000/svg">
<path fill-rule="evenodd" clip-rule="evenodd" d="M16.7139 11.8785L12.2774 11.8808C12.1477 11.8808 12.0225 11.9332 11.9314 12.0242C11.8404 12.1153 11.788 12.2405 11.788 12.3702L11.7903 16.809C11.7903 16.9797 11.681 17.1026 11.6469 17.1163H8.37132C8.32579 17.1026 8.21881 16.9797 8.21881 16.809L8.21653 12.3725C8.21653 12.2427 8.16418 12.1175 8.07313 12.0265C7.98207 11.9354 7.85688 11.8831 7.72713 11.8831L3.28838 11.8854C3.11993 11.8854 2.99474 11.7761 2.98335 11.7442V8.46637C2.99701 8.42313 3.12221 8.31386 3.29065 8.31386L7.72485 8.31159C7.99573 8.31159 8.21425 8.09306 8.21425 7.82219L8.21198 3.38343C8.21198 3.23092 8.32579 3.09207 8.35538 3.07614L11.6196 3.07386C11.6697 3.08979 11.7835 3.22865 11.7835 3.38116L11.7857 7.81536C11.7857 7.94511 11.8381 8.0703 11.9292 8.16135C12.0202 8.2524 12.1454 8.30476 12.2751 8.30476L16.7162 8.30248C16.8687 8.30248 17.0075 8.4163 17.0235 8.44589L17.0257 11.7101C17.0053 11.7624 16.8664 11.8785 16.7139 11.8785ZM16.7139 7.32823L12.7645 7.33051L12.7623 3.38571C12.7623 2.71421 12.2273 2.09961 11.6401 2.09961H8.35311C7.76583 2.09961 7.2309 2.71193 7.2309 3.38571L7.23318 7.33506L3.28838 7.33734C2.59183 7.33734 2.00228 7.85178 2.00228 8.45955L2 11.7465C2 12.3543 2.58728 12.8687 3.2861 12.8687L7.23545 12.8664L7.23773 16.8135C7.23773 17.5101 7.75217 18.0996 8.35994 18.0996H11.6469C12.2547 18.0996 12.7691 17.5101 12.7691 16.8135L12.7668 12.8642L16.7139 12.8619C17.3854 12.8619 18 12.327 18 11.7397V8.45272C18 7.86316 17.3877 7.32823 16.7139 7.32823Z" fill="#86888C"/>
</svg>
