<svg width="20" height="20" viewBox="0 0 20 20" fill="none" xmlns="http://www.w3.org/2000/svg">
<path fill-rule="evenodd" clip-rule="evenodd" d="M9.14501 3.1358C9.0471 3.21547 9.08581 3.41806 9.10403 3.50228C9.17461 3.79593 9.31578 4.10323 9.52071 4.42418C9.69375 4.68823 9.82581 4.84985 10.0626 5.09114C10.0763 5.10707 10.1218 5.15487 10.1651 5.18902C10.2083 5.1526 10.2516 5.10707 10.2675 5.09114C10.5066 4.84757 10.6364 4.68596 10.8049 4.42646C11.0121 4.1055 11.151 3.7982 11.2239 3.50456C11.2421 3.42034 11.2808 3.21775 11.1829 3.13808C11.1419 3.10166 11.0713 3.07889 10.9962 3.07434C10.8891 3.06524 10.7776 3.0971 10.6637 3.15856C10.5977 3.19498 10.5339 3.23141 10.4634 3.27238L10.3358 3.3475L10.0262 3.35433L9.88046 3.28148C9.79166 3.22913 9.72791 3.19271 9.66415 3.15856C9.55941 3.10393 9.45695 3.07434 9.35677 3.07434H9.33172C9.25658 3.07662 9.18827 3.09938 9.14501 3.1358ZM8.61221 5.00464C8.33898 4.58352 8.14999 4.16241 8.04981 3.7504C7.91091 3.17222 8.05208 2.64867 8.43689 2.32089C8.6623 2.13196 8.96058 2.01814 9.27707 2.00221C9.56852 1.98627 9.88274 2.05684 10.1628 2.20707C10.4429 2.05684 10.7571 1.98627 11.0531 2.00221C11.3673 2.01814 11.6656 2.13196 11.891 2.32089C12.2781 2.64867 12.417 3.17222 12.2781 3.7504C12.1779 4.16241 11.9889 4.58352 11.7179 5.00464C11.5085 5.3256 11.3354 5.54184 11.0508 5.83321C11.0075 5.87646 10.8869 5.9971 10.7821 6.06994C10.6569 6.15872 10.5134 6.22018 10.3677 6.25205L10.1674 6.27481L9.94877 6.24977C9.81443 6.22018 9.67098 6.15872 9.54803 6.06994C9.44329 5.99483 9.32034 5.87418 9.28618 5.84004C9.00156 5.54867 8.82396 5.33015 8.61221 5.00464ZM5.0397 7.46759C4.84389 7.65652 4.74598 7.98203 4.74598 8.43729C4.74598 8.89027 4.84389 9.21806 5.0397 9.40471C5.22869 9.58454 5.55201 9.67787 5.99602 9.67787C6.44002 9.67787 6.76334 9.58454 6.9546 9.40244C7.15042 9.21578 7.2506 8.89027 7.2506 8.43729C7.2506 7.98203 7.15042 7.65652 6.95233 7.46759C6.75879 7.28321 6.43774 7.18988 5.99374 7.18988C5.55429 7.18988 5.23097 7.28321 5.0397 7.46759ZM5.99602 10.6726C5.28334 10.6726 4.72776 10.4882 4.34752 10.1195C3.94905 9.73705 3.74641 9.17026 3.74641 8.43729C3.74641 7.70205 3.94678 7.13525 4.34524 6.75283C4.72776 6.38407 5.28334 6.19742 5.99602 6.19742C6.70642 6.19742 7.26199 6.38407 7.64679 6.75283C8.04753 7.13525 8.25018 7.70205 8.25018 8.43729C8.25018 9.17026 8.04753 9.73705 7.64679 10.1195C7.26199 10.486 6.70642 10.6726 5.99602 10.6726ZM13.0408 7.46759C12.845 7.65652 12.7471 7.98203 12.7471 8.43729C12.7471 8.89027 12.845 9.21806 13.0408 9.40471C13.2298 9.58454 13.5532 9.67787 13.9972 9.67787C14.4412 9.67787 14.7645 9.58454 14.9557 9.40244C15.1516 9.21578 15.2517 8.89027 15.2517 8.43729C15.2517 7.98203 15.1516 7.65652 14.9535 7.46759C14.7599 7.28321 14.4389 7.18988 13.9949 7.18988C13.5554 7.18988 13.2321 7.28321 13.0408 7.46759ZM12.3464 10.1195C11.9479 9.73705 11.7453 9.17026 11.7453 8.43729C11.7453 7.70205 11.9456 7.13525 12.3441 6.75283C12.7266 6.38407 13.2822 6.19742 13.9949 6.19742C14.7053 6.19742 15.2609 6.38407 15.6457 6.75283C16.0464 7.13525 16.249 7.70205 16.249 8.43729C16.249 9.17026 16.0464 9.73705 15.6457 10.1195C15.2609 10.486 14.7053 10.6726 13.9949 10.6726C13.2845 10.6726 12.7289 10.486 12.3464 10.1195ZM10.4019 10.7455C10.4429 10.7045 10.4884 10.5838 10.4884 10.363C10.4884 10.14 10.4429 10.017 10.3996 9.97606C10.3563 9.93281 10.2311 9.88956 10.0125 9.88956C9.79394 9.88956 9.67098 9.93281 9.63 9.97379C9.58674 10.0148 9.5412 10.1377 9.5412 10.3608C9.5412 10.5838 9.58446 10.7045 9.62772 10.7455C9.66871 10.7864 9.79394 10.8297 10.0125 10.8297C10.2334 10.8297 10.3586 10.7864 10.4019 10.7455ZM10.0125 8.8971C10.477 8.8971 10.8413 9.02002 11.0941 9.26131C11.3559 9.5117 11.4903 9.88274 11.4903 10.363C11.4903 10.8433 11.3559 11.2121 11.0941 11.4625C10.8413 11.7015 10.477 11.8244 10.0125 11.8244C9.54803 11.8244 9.186 11.7015 8.93326 11.4625C8.67141 11.2121 8.54162 10.8433 8.54162 10.363C8.54162 9.88046 8.67369 9.5117 8.93326 9.26131C9.186 9.02002 9.54803 8.8971 10.0125 8.8971ZM17.0004 17.0053V14.3511C17.0004 14.037 16.9344 13.5976 16.6293 13.2835C16.2923 12.933 15.7572 12.8579 15.3701 12.8579H12.6242C12.4238 12.8579 12.1847 12.8806 11.9547 12.9489C12.0458 13.0081 12.1323 13.0764 12.2098 13.156C12.4875 13.4429 12.6333 13.8389 12.6333 14.3056V17.0053H17.0004ZM11.6314 17.0053V14.3033C11.6314 14.1622 11.6064 13.9664 11.4857 13.8435C11.4106 13.7638 11.2739 13.7228 11.1168 13.6978C11.0485 13.6864 10.987 13.6705 10.9096 13.6705H9.11313C9.02433 13.6705 8.95375 13.6864 8.87861 13.7001C8.73289 13.7274 8.60993 13.7661 8.53935 13.8412C8.42095 13.9641 8.3959 14.1599 8.3959 14.3033V17.0166H11.6291V17.0053H11.6314ZM7.81984 13.156C7.8927 13.0809 7.97467 13.0172 8.06347 12.958C7.82439 12.8829 7.57621 12.8579 7.369 12.8579H4.62303C4.23595 12.8579 3.70314 12.933 3.36616 13.2812C3.06333 13.5954 2.99957 14.037 2.99957 14.3511V17.0053H7.40088V14.3033C7.3986 13.8389 7.54205 13.4406 7.81984 13.156ZM12.5035 17.9977H2.25502C2.11385 17.9977 2 17.8839 2 17.7428V14.3511C2 13.6386 2.22314 13.0331 2.64437 12.5961C3.10431 12.1181 3.78967 11.8654 4.62303 11.8654H7.369C8.20464 11.8654 8.89 12.1181 9.34994 12.5961C9.37498 12.6211 9.3932 12.653 9.41597 12.6803H10.5795C10.6022 12.653 10.6205 12.6211 10.6432 12.5961C11.1032 12.1181 11.7885 11.8654 12.6219 11.8654H15.3679C16.2035 11.8654 16.8889 12.1181 17.3488 12.5961C17.7746 13.0354 18 13.6409 18 14.3534V17.7451C18 17.8862 17.8839 18 17.7427 18H12.5035V17.9977Z" fill="#86888C"/>
</svg>
