<svg width="28" height="28" viewBox="0 0 28 28" fill="none" xmlns="http://www.w3.org/2000/svg">
<path fill-rule="evenodd" clip-rule="evenodd" d="M25.3637 9.18942C25.2578 9.29866 25.0496 9.31914 24.8926 9.31914V9.3328H16.4776V9.31914C16.324 9.31914 16.1192 9.29866 16.0133 9.19283C15.9041 9.08359 15.8836 8.86511 15.8836 8.69783C15.8836 8.53397 15.9075 8.31208 16.0167 8.20625C16.1226 8.10042 16.3274 8.07994 16.481 8.07994H24.896C25.053 8.07994 25.2578 8.10042 25.3637 8.20966C25.4729 8.31549 25.4968 8.53739 25.4968 8.70125C25.4934 8.86511 25.4729 9.08359 25.3637 9.18942ZM24.2644 15.737C24.005 21.3152 24.005 21.3254 24.005 21.3561C23.9811 24.0701 23.3461 24.3568 22.5848 24.4388C22.5644 24.4422 22.5473 24.4456 22.5268 24.4456H22.4961C22.3459 24.4558 22.2298 24.4592 21.984 24.4422L19.2359 24.4456C19.1608 24.4524 19.0857 24.4558 19.0038 24.4558H18.9594C19.1369 24.0701 19.2632 23.6365 19.3896 23.1791L19.4237 23.0664C19.8333 22.9333 20.185 22.7285 20.4785 22.4383C21.0418 21.8784 21.3252 21.0898 21.3252 20.0896C21.3252 19.3147 21.1476 18.6695 20.8097 18.154C21.4549 18.1199 22.0694 17.816 22.6326 17.2289C23.2471 16.5939 23.5509 15.8975 23.5373 15.1704C23.5236 14.4705 23.2198 13.8048 22.6292 13.1938C22.0386 12.5861 21.3969 12.2721 20.7243 12.2618C20.0074 12.2652 19.3554 12.5656 18.7443 13.204C18.5737 13.3815 18.4303 13.5625 18.3108 13.7502C17.9285 13.3611 17.4778 13.0709 16.9555 12.8729C16.9248 12.0775 16.8975 11.3845 16.8838 10.8929H24.4931C24.4419 11.9307 24.3532 13.8356 24.2644 15.737ZM19.3418 15.2284C19.3383 14.9382 19.492 14.6242 19.806 14.2998C20.1167 13.9755 20.4137 13.8151 20.6936 13.8151H20.7073C20.977 13.8185 21.2705 13.9789 21.571 14.293C21.8782 14.6105 22.0318 14.9143 22.0386 15.1977C22.0455 15.4878 21.885 15.8019 21.571 16.1296C21.2603 16.4539 20.977 16.5905 20.6765 16.6076C20.4034 16.6041 20.1133 16.4403 19.806 16.1262C19.5022 15.8121 19.3452 15.5083 19.3418 15.2284ZM17.2696 21.6634H5.8744C5.44427 21.6326 5.09947 21.5302 4.88441 21.3152C4.63179 21.0625 4.50548 20.6495 4.50548 20.0896C4.50548 19.6253 4.59765 19.2703 4.77175 19.0143C4.9322 19.342 5.15068 19.6629 5.44427 19.9667C6.07923 20.6256 6.7654 20.9567 7.48229 20.9567H7.52667C8.23332 20.9431 8.90584 20.6119 9.52714 19.9667C9.97435 19.5024 10.2577 19.0109 10.3908 18.4988H18.3518C18.8331 18.509 19.2052 18.6285 19.4373 18.8572C19.6934 19.1133 19.8231 19.5298 19.8231 20.0896C19.8231 20.6495 19.6934 21.0625 19.4373 21.3152C19.2223 21.5302 18.8775 21.6326 18.4473 21.6634H17.2696ZM17.628 23.7697C17.43 24.2135 17.1808 24.3466 16.5595 24.4183L16.2762 24.4217L15.4023 24.4354L14.4942 24.4319L9.79683 24.4354C9.63297 24.4456 8.60884 24.4558 8.44839 24.4558C7.21943 24.4558 6.89171 24.2237 6.5435 23.22H17.8226C17.7509 23.4419 17.6929 23.6229 17.628 23.7697ZM8.75563 18.4988C8.67711 18.6217 8.58494 18.7412 8.46546 18.8675C8.13091 19.2157 7.80319 19.3966 7.50277 19.4034C7.1375 19.4137 6.85074 19.2293 6.50595 18.8675C6.38305 18.7446 6.2943 18.6217 6.21237 18.4988H8.75563ZM8.92973 14.1223C9.01849 14.1121 9.45546 14.1189 9.84121 14.1257L14.5386 14.1223C14.6751 14.1292 14.8185 14.1257 14.9687 14.1257C15.1565 14.1257 15.3272 14.1189 15.4978 14.136C16.1192 14.194 16.6176 14.3681 17.017 14.6754C17.6007 15.1226 17.9797 15.8497 18.2084 16.9455H6.12702C6.57423 14.8392 7.5096 14.2794 8.75904 14.1428L8.92973 14.1223ZM20.3454 3.91854C20.3454 3.72054 20.499 3.5601 20.6902 3.5601C20.8814 3.5601 21.035 3.72054 21.035 3.91854V6.5335H20.3454V3.91854ZM22.5405 25.9886H22.6736C22.7487 25.9886 22.8033 25.9886 22.8818 25.975C25.1554 25.6472 25.4831 23.4658 25.5036 21.3868C25.507 21.264 25.6334 18.5432 25.7597 15.8087C25.9099 12.6032 25.9747 11.2138 26.002 10.6027C26.1454 10.5208 26.282 10.4286 26.4015 10.3126C26.6711 10.0429 26.992 9.54445 26.992 8.69783C26.992 7.85463 26.6711 7.3528 26.4015 7.08653C26.1318 6.81343 25.787 6.57788 25.3773 6.52667C25.3398 6.51984 25.2647 6.51984 25.2237 6.51984H22.5302V3.91513C22.5302 2.86027 21.7041 2 20.6868 2C19.6729 2 18.8433 2.85686 18.8433 3.91513V6.51984H16.4776C15.8495 6.51984 15.3408 6.7076 14.9687 7.08653C14.7024 7.3528 14.3815 7.85463 14.3815 8.69783C14.3815 9.54445 14.7024 10.0394 14.9721 10.3126C15.0916 10.4286 15.2247 10.5208 15.3681 10.6027C15.3818 10.9509 15.4023 11.5483 15.4398 12.5793C15.2828 12.5691 15.136 12.5622 14.9687 12.5622C14.7844 12.5622 14.6171 12.5691 14.484 12.5656L9.88901 12.5691C9.5408 12.5691 9.12432 12.5622 8.87511 12.5656C8.82391 12.5656 8.71467 12.5725 8.66687 12.5759C8.60201 12.5827 8.49277 12.5964 8.41425 12.6134C5.59106 13.0197 4.8332 15.3547 4.54303 17.2562C4.28358 17.3859 4.0412 17.5361 3.83979 17.7409C3.28334 18.3008 3 19.0928 3 20.093C3 21.0933 3.28676 21.8853 3.83979 22.4417C4.13337 22.7353 4.49865 22.9435 4.91513 23.0767C5.41013 24.7426 5.93244 25.9954 8.44156 25.9954C8.61908 25.9954 9.73197 26.0057 9.84463 25.9954L14.4396 25.992H22.5405V25.9886Z" fill="#86888C"/>
</svg>
