<svg width="20" height="20" viewBox="0 0 20 20" fill="none" xmlns="http://www.w3.org/2000/svg">
<path d="M13.8699 18.0771C13.5894 18.0771 13.3089 18.0065 13.0513 17.8651L10.0164 16.2028C10.0072 16.1983 9.99584 16.1983 9.98672 16.2028L6.95181 17.8651C6.3772 18.1798 5.68403 18.141 5.14819 17.7602C4.58043 17.3589 4.29996 16.6748 4.41625 15.9771L4.99542 12.4565C4.99998 12.4291 4.99086 12.4041 4.9749 12.3858L2.52143 9.89359C2.03803 9.40336 1.87614 8.68966 2.09731 8.02841C2.30937 7.38996 2.84521 6.93392 3.49278 6.83588L6.8834 6.32284C6.89937 6.32056 6.91305 6.30916 6.91989 6.29548C6.91989 6.29319 6.91989 6.29319 6.92217 6.29091L8.43848 3.08727C8.73035 2.4625 9.33231 2.07715 10.0027 2.07715C10.6731 2.07715 11.275 2.4625 11.5692 3.08499L13.0855 6.28863C13.0855 6.29092 13.0855 6.29091 13.0878 6.29319C13.0946 6.30688 13.1083 6.31828 13.1242 6.32056L16.5149 6.8336C17.1624 6.93164 17.6983 7.38996 17.9103 8.02841C18.1292 8.68966 17.9673 9.40336 17.4839 9.89359L15.0305 12.3858C15.0122 12.4041 15.0054 12.4291 15.01 12.4565L15.5891 15.9794C15.7031 16.6771 15.4227 17.3612 14.8572 17.7625C14.5608 17.9723 14.2165 18.0771 13.8699 18.0771ZM10.0027 15.3136C10.1555 15.3136 10.3059 15.3523 10.445 15.4276L13.4777 17.0898C13.8813 17.311 14.2187 17.1286 14.3441 17.0397C14.5699 16.8801 14.7842 16.5563 14.7135 16.123L14.1344 12.6024C14.0842 12.3015 14.18 11.9891 14.3943 11.7702L14.3966 11.7679L16.8523 9.27339C17.1488 8.9724 17.1579 8.57793 17.069 8.30887C16.9595 7.98281 16.7041 7.75935 16.3826 7.71146L12.9897 7.19615H12.9852C12.6773 7.14598 12.4151 6.94989 12.2851 6.66714L10.7688 3.46578C10.6206 3.15111 10.3333 2.96414 10.0027 2.96414C9.67206 2.96414 9.38704 3.15111 9.23883 3.46578L7.72251 6.66714C7.59026 6.94989 7.33032 7.14598 7.02249 7.19615H7.01793L3.62503 7.70918C3.30353 7.75707 3.04587 7.98053 2.9387 8.30659C2.84977 8.57565 2.85889 8.97012 3.15531 9.27111L5.60879 11.7656L5.61107 11.7679C5.8254 11.9868 5.92117 12.2992 5.87101 12.6024L5.29184 16.123C5.22115 16.554 5.43549 16.8801 5.66123 17.0397C5.78664 17.1286 6.12183 17.311 6.5277 17.0898L9.56261 15.4276C9.69942 15.3523 9.84991 15.3136 10.0027 15.3136Z" fill="#86888C"/>
</svg>
