<svg width="20" height="20" viewBox="0 0 20 20" fill="none" xmlns="http://www.w3.org/2000/svg">
<path fill-rule="evenodd" clip-rule="evenodd" d="M16.7531 17.0121C16.8328 17.0121 16.9102 16.9347 16.9102 16.8755V7.58372H15.0323C14.2083 7.58372 13.4958 7.31512 12.9722 6.80979C12.4441 6.2999 12.1664 5.60108 12.1664 4.793V2.99018H6.85586C6.79668 2.99018 6.70335 3.07896 6.6988 3.12676V7.35382H11.8705C12.9563 7.35382 13.8372 8.2393 13.8372 9.32508V12.6507C13.8372 13.7365 12.954 14.622 11.8705 14.622H6.72611L6.6988 16.8801C6.6988 16.921 6.78074 17.0098 6.85586 17.0098H16.7531V17.0121ZM2.88602 12.653C2.88602 13.1948 3.32534 13.6364 3.8671 13.6364H11.8682C12.41 13.6364 12.8493 13.1948 12.8493 12.653V9.32736C12.8493 8.7856 12.41 8.344 11.8682 8.344H3.8671C3.32534 8.344 2.88602 8.7856 2.88602 9.32736V12.653ZM16.4982 6.59582L13.1543 3.35894V4.793C13.1543 5.32793 13.3296 5.77863 13.6597 6.09959C13.9966 6.4251 14.47 6.59582 15.0345 6.59582H16.4982ZM17.8594 6.68232C17.8845 6.7415 17.8981 6.80751 17.8981 6.8758V16.8755C17.8981 17.4856 17.3746 18 16.7531 18H6.85358C6.24354 18 5.70861 17.4742 5.70861 16.8755L5.73593 14.622H3.8671C2.78359 14.622 1.90039 13.7365 1.90039 12.6507V9.32508C1.90039 8.2393 2.78359 7.35382 3.8671 7.35382H5.70861V3.12448C5.70861 2.53493 6.25492 2 6.85358 2H12.8789C13.0678 2 13.2431 2.07284 13.3797 2.20259L17.6841 6.36819C17.7729 6.45696 17.8253 6.56623 17.8594 6.68232Z" fill="#86888C"/>
<path d="M6.83095 9.4502H7.60717L8.72255 12.5414H7.96682L7.7096 11.7652H6.70576L6.46675 12.5414H5.79297L6.83095 9.4502ZM7.54115 11.253L7.20199 10.2219H7.19288L6.87193 11.253H7.54115ZM9.0913 9.4502H9.79695V12.5414H9.0913V9.4502Z" fill="#86888C"/>
</svg>
