<svg width="40" height="40" viewBox="0 0 40 40" fill="none" xmlns="http://www.w3.org/2000/svg">
<path fill-rule="evenodd" clip-rule="evenodd" d="M31.473 35.7817C31.6523 35.7817 31.8214 35.6075 31.8214 35.4743V14.5618H27.6563C25.8274 14.5618 24.2546 13.9573 23.0968 12.82C21.9287 11.6673 21.3088 10.0996 21.3088 8.28092V4.22342H9.53593C9.40786 4.22342 9.19781 4.42835 9.18756 4.53081V35.4743C9.18756 35.5819 9.36687 35.7817 9.53593 35.7817H31.473ZM30.8992 12.3384L23.4912 5.05337V8.28092C23.4912 9.48484 23.8806 10.4992 24.6183 11.2216C25.3612 11.9491 26.4114 12.3384 27.6614 12.3384H30.8992ZM33.9219 12.5331C33.9782 12.6714 34.0038 12.8149 34.0038 12.9634V35.4692C33.9885 36.8627 32.8614 37.9846 31.4679 38H9.53593C8.18344 38 7 36.8166 7 35.4692V4.52569C7 3.20393 8.20905 2 9.53593 2H22.8867C23.3017 2 23.6962 2.15882 23.9933 2.45083L33.5274 11.8261C33.7323 12.031 33.845 12.2769 33.9219 12.5331ZM25.602 21.6061H27.1338L26.2219 19.7976L25.602 21.6061ZM24.9923 23.3787L23.3017 28.343L26.852 23.3787H24.9923ZM16.0884 23.3787H14.1672L17.8097 28.4249L16.0884 23.3787ZM17.0157 20.6839L18.778 18.4349H16.2523C16.2472 18.44 17.0157 20.6839 17.0157 20.6839ZM24.065 20.6942L24.8386 18.44H22.2771L24.065 20.6942ZM18.5321 21.6061H22.5384L20.525 19.065L18.5321 21.6061ZM23.1429 23.3787H17.9378L20.5403 30.9967C20.5403 31.0019 23.1429 23.3787 23.1429 23.3787ZM14.8537 19.7669L13.8957 21.6061H15.4787L14.8537 19.7669ZM29.3521 22.1133C29.4084 22.2311 29.4443 22.3643 29.4443 22.4924C29.4443 22.5026 29.4392 22.5129 29.434 22.5282C29.434 22.5641 29.4187 22.5948 29.4135 22.6307C29.3982 22.7434 29.3572 22.851 29.3008 22.9483C29.2855 22.9688 29.2906 22.9945 29.2752 23.0149L21.2473 34.2345C21.2473 34.2396 21.2422 34.2396 21.2422 34.2396C21.1705 34.337 21.0783 34.419 20.9707 34.4753L20.8938 34.5112C20.7863 34.5624 20.6633 34.5931 20.5403 34.5983H20.5352C20.4123 34.5931 20.2893 34.5675 20.1817 34.5112L20.1049 34.4753C19.9973 34.4138 19.9051 34.337 19.8334 34.2396H19.8282L11.7337 23.0201C11.7184 22.9996 11.7235 22.974 11.7132 22.9535C11.6466 22.8561 11.6057 22.7434 11.5954 22.6256C11.5903 22.5948 11.5749 22.5641 11.5749 22.5334C11.5749 22.518 11.5698 22.5078 11.5698 22.4975C11.5698 22.3643 11.6057 22.2311 11.662 22.1133C11.6671 22.103 11.662 22.0928 11.6671 22.0825L14.2441 17.1388C14.2492 17.1234 14.2697 17.1183 14.2799 17.1029C14.3619 16.9646 14.4848 16.8467 14.6334 16.775C14.6693 16.7596 14.6949 16.7289 14.7308 16.7135C14.8076 16.6879 14.8844 16.6879 14.9613 16.6828C14.9818 16.6777 14.9972 16.6623 15.0176 16.6623H26.063C26.0835 16.6623 26.0989 16.6777 26.1194 16.6777C26.1962 16.6828 26.2731 16.6828 26.3551 16.7135C26.396 16.7289 26.4217 16.7596 26.4575 16.775C26.4934 16.7955 26.5241 16.816 26.56 16.8365C26.6624 16.9133 26.7547 17.0056 26.8161 17.1234C26.8213 17.1285 26.8315 17.1336 26.8366 17.1439L26.8418 17.1644L29.3367 22.0877C29.3521 22.0979 29.3469 22.103 29.3521 22.1133Z" fill="#86888C"/>
</svg>
