<svg width="24" height="24" viewBox="0 0 24 24" fill="none" xmlns="http://www.w3.org/2000/svg">
<path fill-rule="evenodd" clip-rule="evenodd" d="M20.4663 20.7651C20.5659 20.7651 20.6627 20.6684 20.6627 20.5944V8.97966H18.3152C17.2852 8.97966 16.3946 8.6439 15.7402 8.01224C15.0801 7.37488 14.7329 6.50135 14.7329 5.49125V3.23773H8.09473C8.02075 3.23773 7.90409 3.3487 7.8984 3.40845V8.69228H14.363C15.7203 8.69228 16.8214 9.79912 16.8214 11.1564V15.3134C16.8214 16.6707 15.7174 17.7775 14.363 17.7775H7.93254L7.8984 20.6001C7.8984 20.6513 8.00083 20.7623 8.09473 20.7623H20.4663V20.7651ZM3.13243 15.3163C3.13243 15.9935 3.68158 16.5455 4.35878 16.5455H14.3602C15.0374 16.5455 15.5865 15.9935 15.5865 15.3163V11.1592C15.5865 10.482 15.0374 9.93001 14.3602 9.93001H4.35878C3.68158 9.93001 3.13243 10.482 3.13243 11.1592V15.3163ZM20.1477 7.74477L15.9678 3.69868V5.49125C15.9678 6.15991 16.1869 6.72329 16.5995 7.12448C17.0206 7.53137 17.6124 7.74477 18.3181 7.74477H20.1477ZM21.8492 7.8529C21.8805 7.92688 21.8975 8.00939 21.8975 8.09475V20.5944C21.8975 21.357 21.2431 22 20.4663 22H8.09188C7.32933 22 6.66067 21.3427 6.66067 20.5944L6.69481 17.7775H4.35878C3.00439 17.7775 1.90039 16.6707 1.90039 15.3134V11.1564C1.90039 9.79912 3.00439 8.69228 4.35878 8.69228H6.66067V3.40561C6.66067 2.66866 7.34356 2 8.09188 2H15.6235C15.8597 2 16.0788 2.09105 16.2495 2.25324L21.6301 7.46024C21.7411 7.57121 21.8065 7.70778 21.8492 7.8529Z" fill="#86888C"/>
<path d="M8.0636 11.3125H9.03386L10.4281 15.1765H9.48343L9.1619 14.2062H7.9071L7.60834 15.1765H6.76611L8.0636 11.3125ZM8.95135 13.566L8.52739 12.2771H8.51601L8.11481 13.566H8.95135ZM10.889 11.3125H11.7711V15.1765H10.889V11.3125Z" fill="#86888C"/>
</svg>
