<svg width="20" height="20" viewBox="0 0 20 20" fill="none" xmlns="http://www.w3.org/2000/svg">
<path fill-rule="evenodd" clip-rule="evenodd" d="M16.6491 17.1138C16.7288 17.1138 16.8062 17.0364 16.8062 16.9772V7.68677H14.9262C14.1023 7.68677 13.39 7.41821 12.8665 6.91294C12.3385 6.40085 12.0585 5.70441 12.0585 4.89644V3.09388H6.74872C6.68954 3.09388 6.59623 3.18264 6.59168 3.23044V7.4569H11.7627C12.8483 7.4569 13.7291 8.34225 13.7291 9.42788V12.7553C13.7291 13.841 12.846 14.7263 11.7627 14.7263H6.61899L6.59168 16.9841C6.59168 17.025 6.67361 17.1138 6.74872 17.1138H16.6491ZM2.784 12.7553C2.784 13.297 3.22326 13.7385 3.76493 13.7385H11.7649C12.3066 13.7385 12.7459 13.297 12.7459 12.7553V9.42788C12.7459 8.8862 12.3066 8.44466 11.7649 8.44466H3.76493C3.22326 8.44466 2.784 8.8862 2.784 9.42788V12.7553ZM16.392 6.699L13.0486 3.46259V4.89644C13.0486 5.43129 13.2238 5.88193 13.5538 6.20284C13.8907 6.52831 14.3641 6.699 14.9285 6.699H16.392ZM17.7553 6.78549C17.7803 6.84466 17.794 6.91067 17.794 6.97895V16.9772C17.794 17.5872 17.2705 18.1016 16.6491 18.1016H6.75099C6.14104 18.1016 5.60846 17.5758 5.60846 16.9772L5.63577 14.724H3.76721C2.68385 14.724 1.80078 13.8387 1.80078 12.7531V9.4256C1.80078 8.33997 2.68385 7.45462 3.76721 7.45462H5.60846V3.22589C5.60846 2.63869 6.15242 2.10156 6.75099 2.10156H12.7755C12.9644 2.10156 13.1419 2.17212 13.2739 2.30412L17.5777 6.46913C17.6688 6.55789 17.7211 6.66941 17.7553 6.78549Z" fill="#86888C"/>
<path d="M3.57129 9.60335H4.10842L5.05294 11.2739L6.02933 9.60335H6.55507V12.594H5.92918V10.8711L5.30785 11.9112H4.7821L4.14255 10.8529V12.594H3.57129V9.60335ZM7.20372 9.60335H8.23246C8.7013 9.60335 8.99718 9.66935 9.19063 9.84915C9.35223 9.99709 9.43189 10.2292 9.43189 10.5479C9.43189 10.8665 9.35678 11.1078 9.20884 11.2739C9.03359 11.4696 8.76275 11.563 8.36901 11.563H7.88879V12.594H7.206V9.60335H7.20372ZM8.22108 11.0509C8.43957 11.0509 8.53061 11.0213 8.61937 10.9371C8.69903 10.8574 8.73772 10.7322 8.73772 10.557C8.73772 10.3954 8.70358 10.277 8.62392 10.2019C8.54199 10.1268 8.41453 10.0972 8.20514 10.0972H7.88651V11.0509H8.22108ZM11.0956 11.9066H9.78011C9.77101 11.877 9.7619 11.811 9.7619 11.7541C9.7619 11.6312 9.78466 11.4924 9.85294 11.2989L10.4743 9.60107H11.0774L10.4037 11.4378H11.0956V10.7254H11.7215V11.4378H12.072V11.9066H11.7215V12.594H11.0956V11.9066Z" fill="#86888C"/>
</svg>
