<svg width="28" height="28" viewBox="0 0 28 28" fill="none" xmlns="http://www.w3.org/2000/svg">
<path fill-rule="evenodd" clip-rule="evenodd" d="M21.3154 24.5211C21.4349 24.5211 21.5476 24.405 21.5476 24.3162V10.3746H18.7709C17.5516 10.3746 16.5031 9.97154 15.7312 9.21332C14.9525 8.44486 14.5392 7.39974 14.5392 6.18728V3.48228H6.69062C6.60524 3.48228 6.46521 3.6189 6.45837 3.68721V24.3162C6.45837 24.3879 6.57791 24.5211 6.69062 24.5211H21.3154ZM20.9328 8.89227L15.9942 4.03558V6.18728C15.9942 6.9899 16.2537 7.66614 16.7456 8.14772C17.2408 8.6327 17.9409 8.89227 18.7743 8.89227H20.9328ZM22.9479 9.02206C22.9855 9.11427 23.0026 9.2099 23.0026 9.30895V24.3128C22.9923 25.2418 22.2409 25.9898 21.3119 26H6.69062C5.78896 26 5 25.211 5 24.3128V3.68379C5 2.80262 5.80603 2 6.69062 2H15.5911C15.8678 2 16.1308 2.10588 16.3289 2.30055L22.6849 8.55073C22.8215 8.68735 22.8967 8.85129 22.9479 9.02206ZM17.4013 15.0707H18.4225L17.8146 13.8651L17.4013 15.0707ZM16.9949 16.2525L15.8678 19.562L18.2347 16.2525H16.9949ZM11.0589 16.2525H9.77814L12.2065 19.6166L11.0589 16.2525ZM11.6771 14.456L12.852 12.9566H11.1682C11.1648 12.96 11.6771 14.456 11.6771 14.456ZM16.3767 14.4628L16.8924 12.96H15.1847L16.3767 14.4628ZM12.6881 15.0707H15.3589L14.0166 13.3767L12.6881 15.0707ZM15.7619 16.2525H12.2919L14.0269 21.3312C14.0269 21.3346 15.7619 16.2525 15.7619 16.2525ZM10.2358 13.8446L9.59712 15.0707H10.6525L10.2358 13.8446ZM19.9014 15.4089C19.9389 15.4874 19.9629 15.5762 19.9629 15.6616C19.9629 15.6684 19.9594 15.6753 19.956 15.6855C19.956 15.7094 19.9458 15.7299 19.9424 15.7538C19.9321 15.8289 19.9048 15.9007 19.8672 15.9656C19.857 15.9792 19.8604 15.9963 19.8501 16.01L14.4982 23.4897C14.4982 23.4931 14.4948 23.4931 14.4948 23.4931C14.447 23.558 14.3855 23.6126 14.3138 23.6502L14.2626 23.6741C14.1908 23.7083 14.1089 23.7288 14.0269 23.7322H14.0235C13.9415 23.7288 13.8595 23.7117 13.7878 23.6741L13.7366 23.6502C13.6649 23.6092 13.6034 23.558 13.5556 23.4931H13.5522L8.15583 16.0134C8.14558 15.9997 8.149 15.9826 8.14217 15.969C8.09777 15.9041 8.07044 15.8289 8.06361 15.7504C8.0602 15.7299 8.04995 15.7094 8.04995 15.6889C8.04995 15.6787 8.04653 15.6718 8.04653 15.665C8.04653 15.5762 8.07044 15.4874 8.10801 15.4089C8.11143 15.402 8.10801 15.3952 8.11143 15.3884L9.82937 12.0925C9.83279 12.0823 9.84645 12.0788 9.85328 12.0686C9.90793 11.9764 9.9899 11.8978 10.0889 11.85C10.1129 11.8398 10.1299 11.8193 10.1538 11.809C10.2051 11.7919 10.2563 11.7919 10.3075 11.7885C10.3212 11.7851 10.3314 11.7749 10.3451 11.7749H17.7087C17.7224 11.7749 17.7326 11.7851 17.7463 11.7851C17.7975 11.7885 17.8487 11.7885 17.9034 11.809C17.9307 11.8193 17.9478 11.8398 17.9717 11.85C17.9956 11.8637 18.0161 11.8773 18.04 11.891C18.1083 11.9422 18.1698 12.0037 18.2108 12.0823C18.2142 12.0857 18.221 12.0891 18.2244 12.0959L18.2278 12.1096L19.8911 15.3918C19.9014 15.3986 19.898 15.402 19.9014 15.4089Z" fill="#86888C"/>
</svg>
