<svg width="40" height="40" viewBox="0 0 40 40" fill="none" xmlns="http://www.w3.org/2000/svg">
<path fill-rule="evenodd" clip-rule="evenodd" d="M35.3191 35.7772C35.4983 35.7772 35.6725 35.6031 35.6725 35.4699V14.5634H31.4471C29.5931 14.5634 27.99 13.959 26.812 12.822C25.6238 11.6748 24.999 10.1024 24.999 8.28425V4.22791H13.0502C12.917 4.22791 12.7071 4.42766 12.6968 4.53521V14.0461H24.3332C26.7762 14.0461 28.7583 16.0384 28.7583 18.4814V25.9641C28.7583 28.4072 26.7711 30.3995 24.3332 30.3995H12.7583L12.6968 35.4802C12.6968 35.5723 12.8812 35.7721 13.0502 35.7721H35.3191V35.7772ZM4.11806 25.9693C4.11806 27.1882 5.10654 28.1818 6.32549 28.1818H24.328C25.547 28.1818 26.5355 27.1882 26.5355 25.9693V18.4866C26.5355 17.2676 25.547 16.274 24.328 16.274H6.32549C5.10654 16.274 4.11806 17.2676 4.11806 18.4866V25.9693ZM34.7455 12.3406L27.2218 5.05762V8.28425C27.2218 9.48784 27.6161 10.5019 28.3588 11.2241C29.1168 11.9565 30.1821 12.3406 31.4522 12.3406H34.7455ZM37.8082 12.5352C37.8645 12.6684 37.8953 12.8169 37.8953 12.9706V35.4699C37.8953 36.8425 36.7173 38 35.3191 38H13.0451C11.6725 38 10.4689 36.8169 10.4689 35.4699L10.5304 30.3995H6.32549C3.88759 30.3995 1.90039 28.4072 1.90039 25.9641V18.4814C1.90039 16.0384 3.88759 14.0461 6.32549 14.0461H10.4689V4.53009C10.4689 3.20359 11.6981 2 13.0451 2H26.6021C27.0272 2 27.4215 2.16389 27.7288 2.45583L37.4138 11.8284C37.6136 12.0282 37.7314 12.274 37.8082 12.5352Z" fill="#86888C"/>
<path d="M12.9942 18.7627H14.7406L17.2502 25.7179H15.5499L14.9711 23.9714H12.7125L12.1747 25.7179H10.6587L12.9942 18.7627ZM14.5921 22.819L13.829 20.4989H13.8085L13.0863 22.819H14.5921ZM18.0799 18.7627H19.6677V25.7179H18.0799V18.7627Z" fill="#86888C"/>
</svg>
