<svg width="24" height="24" viewBox="0 0 24 24" fill="none" xmlns="http://www.w3.org/2000/svg">
<path fill-rule="evenodd" clip-rule="evenodd" d="M18.5961 20.7676C18.6957 20.7676 18.7897 20.6708 18.7897 20.5968V8.9788H16.4757C15.4597 8.9788 14.5859 8.64295 13.9426 8.0111C13.2937 7.37071 12.9493 6.49979 12.9493 5.4894V3.23524H6.40885C6.3377 3.23524 6.221 3.34908 6.21531 3.40601V20.5968C6.21531 20.6566 6.31493 20.7676 6.40885 20.7676H18.5961ZM18.2774 7.74356L14.1618 3.69631V5.4894C14.1618 6.15825 14.3781 6.72179 14.788 7.1231C15.2007 7.52725 15.7841 7.74356 16.4786 7.74356H18.2774ZM19.9566 7.85172C19.9879 7.92856 20.0021 8.00825 20.0021 8.09079V20.594C19.9936 21.3682 19.3674 21.9915 18.5933 22H6.40885C5.65746 22 5 21.3425 5 20.594V3.40316C5 2.66885 5.67169 2 6.40885 2H13.826C14.0565 2 14.2757 2.08823 14.4407 2.25046L19.7374 7.45894C19.8513 7.57279 19.9139 7.70941 19.9566 7.85172ZM15.3344 12.8923H16.1854L15.6788 11.8876L15.3344 12.8923ZM14.9957 13.877L14.0565 16.635L16.0289 13.877H14.9957ZM10.0491 13.877H8.98178L11.0054 16.6805L10.0491 13.877ZM10.5643 12.38L11.5433 11.1305H10.1402C10.1373 11.1333 10.5643 12.38 10.5643 12.38ZM14.4806 12.3857L14.9103 11.1333H13.4873L14.4806 12.3857ZM11.4067 12.8923H13.6324L12.5139 11.4806L11.4067 12.8923ZM13.9683 13.877H11.0766L12.5224 18.1093C12.5224 18.1121 13.9683 13.877 13.9683 13.877ZM9.36317 11.8705L8.83094 12.8923H9.7104L9.36317 11.8705ZM17.4178 13.174C17.4491 13.2395 17.469 13.3135 17.469 13.3847C17.469 13.3904 17.4662 13.396 17.4634 13.4046C17.4634 13.4245 17.4548 13.4416 17.452 13.4615C17.4434 13.5241 17.4207 13.5839 17.3894 13.638C17.3808 13.6494 17.3837 13.6636 17.3751 13.675L12.9152 19.9081C12.9152 19.9109 12.9123 19.9109 12.9123 19.9109C12.8725 19.965 12.8213 20.0105 12.7615 20.0418L12.7188 20.0618C12.659 20.0902 12.5907 20.1073 12.5224 20.1101H12.5196C12.4513 20.1073 12.383 20.0931 12.3232 20.0618L12.2805 20.0418C12.2207 20.0077 12.1695 19.965 12.1296 19.9109H12.1268L7.62986 13.6778C7.62132 13.6664 7.62416 13.6522 7.61847 13.6408C7.58147 13.5867 7.5587 13.5241 7.55301 13.4587C7.55016 13.4416 7.54163 13.4245 7.54163 13.4074C7.54163 13.3989 7.53878 13.3932 7.53878 13.3875C7.53878 13.3135 7.5587 13.2395 7.59001 13.174C7.59286 13.1684 7.59001 13.1627 7.59286 13.157L9.02448 10.4104C9.02732 10.4019 9.03871 10.399 9.0444 10.3905C9.08994 10.3136 9.15825 10.2482 9.24079 10.2083C9.26071 10.1998 9.27494 10.1827 9.29486 10.1742C9.33755 10.16 9.38025 10.16 9.42294 10.1571C9.43432 10.1543 9.44286 10.1457 9.45425 10.1457H15.5906C15.602 10.1457 15.6105 10.1543 15.6219 10.1543C15.6646 10.1571 15.7073 10.1571 15.7528 10.1742C15.7756 10.1827 15.7898 10.1998 15.8097 10.2083C15.8297 10.2197 15.8467 10.2311 15.8667 10.2425C15.9236 10.2852 15.9748 10.3364 16.009 10.4019C16.0118 10.4047 16.0175 10.4076 16.0203 10.4133L16.0232 10.4246L17.4093 13.1598C17.4178 13.1655 17.415 13.1684 17.4178 13.174Z" fill="#86888C"/>
</svg>
