<svg width="20" height="20" viewBox="0 0 20 20" fill="none" xmlns="http://www.w3.org/2000/svg">
<path fill-rule="evenodd" clip-rule="evenodd" d="M14.8769 17.0141C14.9566 17.0141 15.0317 16.9367 15.0317 16.8775V7.58304H13.1806C12.3677 7.58304 11.6687 7.31436 11.1541 6.80888C10.635 6.29657 10.3595 5.59983 10.3595 4.79152V2.98819H5.12708C5.07016 2.98819 4.9768 3.07927 4.97225 3.1248V16.8775C4.97225 16.9253 5.05194 17.0141 5.12708 17.0141H14.8769ZM14.6219 6.59485L11.3294 3.35705V4.79152C11.3294 5.3266 11.5025 5.77743 11.8304 6.09848C12.1605 6.4218 12.6273 6.59485 13.1829 6.59485H14.6219ZM15.9653 6.68137C15.9903 6.74285 16.0017 6.8066 16.0017 6.87263V16.8752C15.9949 17.4945 15.494 17.9932 14.8746 18H5.12708C4.52597 18 4 17.474 4 16.8752V3.12253C4 2.53508 4.53736 2 5.12708 2H11.0608C11.2452 2 11.4205 2.07058 11.5526 2.20037L15.79 6.36716C15.881 6.45823 15.9311 6.56752 15.9653 6.68137ZM12.2675 10.7138H12.9483L12.543 9.91006L12.2675 10.7138ZM11.9966 11.5016L11.2452 13.708L12.8231 11.5016H11.9966ZM8.03928 11.5016H7.18543L8.80433 13.7444L8.03928 11.5016ZM8.4514 10.304L9.23467 9.3044H8.11214C8.10986 9.30667 8.4514 10.304 8.4514 10.304ZM11.5845 10.3085L11.9283 9.30667H10.7898L11.5845 10.3085ZM9.12537 10.7138H10.9059L10.0111 9.58446L9.12537 10.7138ZM11.1746 11.5016H8.86125L10.0179 14.8874C10.0179 14.8897 11.1746 11.5016 11.1746 11.5016ZM7.49054 9.8964L7.06475 10.7138H7.76832L7.49054 9.8964ZM13.9343 10.9392C13.9593 10.9916 13.9752 11.0508 13.9752 11.1077C13.9752 11.1123 13.973 11.1168 13.9707 11.1237C13.9707 11.1396 13.9639 11.1533 13.9616 11.1692C13.9547 11.2193 13.9365 11.2671 13.9115 11.3104C13.9047 11.3195 13.9069 11.3309 13.9001 11.34L10.3321 16.3265C10.3321 16.3287 10.3299 16.3287 10.3299 16.3287C10.298 16.372 10.257 16.4084 10.2092 16.4335L10.175 16.4494C10.1272 16.4722 10.0726 16.4858 10.0179 16.4881H10.0157C9.96101 16.4858 9.90636 16.4745 9.85854 16.4494L9.82439 16.4335C9.77658 16.4061 9.73559 16.372 9.70371 16.3287H9.70144L6.10388 11.3423C6.09705 11.3331 6.09933 11.3218 6.09478 11.3127C6.06518 11.2694 6.04696 11.2193 6.04241 11.1669C6.04013 11.1533 6.0333 11.1396 6.0333 11.1259C6.0333 11.1191 6.03102 11.1146 6.03102 11.11C6.03102 11.0508 6.04696 10.9916 6.07201 10.9392C6.07428 10.9347 6.07201 10.9301 6.07428 10.9256L7.21958 8.72833C7.22186 8.7215 7.23097 8.71923 7.23552 8.71239C7.27195 8.65092 7.3266 8.59855 7.39263 8.56667C7.40857 8.55984 7.41995 8.54618 7.43589 8.53935C7.47004 8.52796 7.5042 8.52796 7.53835 8.52569C7.54746 8.52341 7.55429 8.51658 7.5634 8.51658H12.4725C12.4816 8.51658 12.4884 8.52341 12.4975 8.52341C12.5317 8.52569 12.5658 8.52569 12.6022 8.53935C12.6205 8.54618 12.6318 8.55984 12.6478 8.56667C12.6637 8.57578 12.6774 8.58489 12.6933 8.59399C12.7389 8.62815 12.7798 8.66913 12.8072 8.7215C12.8094 8.72378 12.814 8.72606 12.8163 8.73061L12.8186 8.73972L13.9274 10.9278C13.9343 10.9324 13.932 10.9347 13.9343 10.9392Z" fill="#86888C"/>
</svg>
