<svg width="40" height="40" viewBox="0 0 40 40" fill="none" xmlns="http://www.w3.org/2000/svg">
<path d="M31.9189 11.1697C31.5703 11.1697 31.2268 11.0005 31.0115 10.6929C29.2223 8.08863 26.2848 5.95085 23.1524 4.97168C18.477 3.51061 13.4017 4.46415 9.2287 7.59135C8.08035 8.44749 6.96788 9.4728 5.91693 10.6468C5.51194 11.0979 4.81472 11.1389 4.36359 10.7288C3.91245 10.3238 3.87656 9.6266 4.28156 9.17546C5.42991 7.89382 6.65516 6.7711 7.9163 5.82781C12.6635 2.2751 18.4565 1.19852 23.8189 2.86979C27.4075 3.9925 30.7757 6.44813 32.8365 9.44204C33.18 9.94445 33.057 10.6263 32.5546 10.9749C32.3546 11.1031 32.1342 11.1697 31.9189 11.1697Z" fill="#86888C"/>
<path d="M21.1694 38.1007C21.0822 38.1007 20.9951 38.0905 20.9079 38.07C17.9755 37.3625 14.9662 35.8092 12.4337 33.7073C9.45517 31.2311 7.02518 27.2991 5.92809 23.1978C4.66183 18.4711 5.31291 14.1238 7.75828 10.9556C10.8188 6.9876 16.2479 5.0959 21.2719 6.24425C21.6154 6.30064 23.4353 6.64925 25.4603 7.93089C27.4802 9.21253 30.1255 11.704 31.2482 16.3231C31.3354 16.6512 32.0223 19.399 30.5561 21.3676C29.6538 22.5775 28.1979 23.2081 26.2344 23.2337C25.8807 23.2644 24.6349 23.285 23.4404 22.3365C22.2511 21.383 21.5385 19.8091 21.3334 17.656C21.277 17.0357 21.0207 16.5538 20.5798 16.2154C19.9698 15.7489 19.0162 15.5695 18.0268 15.7335L17.9704 15.7438H17.9345C17.873 15.7489 17.2681 15.8258 16.6683 16.1949C15.8993 16.6666 15.484 17.3945 15.4071 18.4198C15.3097 19.6861 15.7045 21.7572 17.1091 23.772C18.1447 25.2587 20.0774 27.2017 23.4251 28.0168C24.0146 28.1603 24.3786 28.755 24.2351 29.3497C24.0915 29.9392 23.4968 30.3032 22.9022 30.1597C18.8881 29.1805 16.5555 26.8325 15.2995 25.0382C13.8281 22.921 13.0438 20.3884 13.2078 18.2558C13.3821 16.0104 14.6125 14.8415 15.6173 14.2571C16.5503 13.7137 17.4424 13.5855 17.6936 13.5547C19.2828 13.2933 20.8208 13.6265 21.9179 14.4673C22.8509 15.185 23.4046 16.2154 23.5225 17.4458C23.666 18.9581 24.112 20.0552 24.8092 20.6089C25.4039 21.0857 26.0242 21.0395 26.0294 21.0395L26.096 21.0293H26.1627C27.4289 21.019 28.3107 20.6858 28.7875 20.0501C29.5206 19.0709 29.2694 17.4099 29.1207 16.9024L29.1104 16.8562C27.3059 9.39708 20.9746 8.42304 20.9079 8.41278L20.8618 8.40766L20.8156 8.3974C16.6016 7.42336 12.0595 8.99209 9.50131 12.2987C7.48657 14.9081 6.97391 18.5736 8.05562 22.6236C9.02454 26.2481 11.2443 29.8418 13.8435 32.0052C16.1197 33.8969 18.8112 35.2914 21.4257 35.9219C22.0153 36.0655 22.3792 36.6602 22.2357 37.2497C22.1178 37.7624 21.6667 38.1007 21.1694 38.1007Z" fill="#86888C"/>
<path d="M22.3779 34.3054C22.2805 34.3054 22.1831 34.2901 22.0806 34.2644C17.359 32.952 13.0783 29.5429 10.9098 25.3596C9.19751 22.0632 8.92067 18.5669 10.1049 15.2449C10.7355 13.3583 12.0838 11.7639 13.9037 10.7489C15.6775 9.75944 17.7743 9.39033 19.8146 9.70305C21.8704 10.0209 23.7928 11.0308 25.2232 12.5534C26.7201 14.1427 27.5301 16.1471 27.5147 18.1926C27.5096 18.7976 27.0175 19.2846 26.4125 19.2846H26.4023C25.7922 19.2795 25.3052 18.7822 25.3103 18.1721C25.3359 15.1475 22.7727 12.3842 19.4763 11.8767C16.2619 11.3846 13.1296 13.1327 12.1914 15.9523L12.1812 15.9728C11.2071 18.7053 11.4429 21.6018 12.863 24.3445C14.7291 27.9434 18.5791 31.0039 22.6701 32.142C23.2546 32.3061 23.598 32.911 23.4391 33.4954C23.3058 33.9825 22.8649 34.3054 22.3779 34.3054Z" fill="#86888C"/>
<path d="M26.0796 26.9685C23.865 26.9685 21.9938 26.3584 20.4866 25.1383C17.2261 22.493 17.0159 17.997 17.0108 17.8073C16.9851 17.1972 17.4619 16.6897 18.0668 16.6641C18.6769 16.6384 19.1844 17.1152 19.21 17.7201C19.2152 17.7765 19.4049 21.442 21.8861 23.4414C23.3882 24.6513 25.4798 25.0358 28.0944 24.5897C28.6942 24.4872 29.2632 24.8871 29.3658 25.4869C29.4683 26.0867 29.0684 26.6558 28.4686 26.7583C27.633 26.8967 26.8384 26.9685 26.0796 26.9685Z" fill="#86888C"/>
</svg>
