<svg width="24" height="24" viewBox="0 0 24 24" fill="none" xmlns="http://www.w3.org/2000/svg">
<path fill-rule="evenodd" clip-rule="evenodd" d="M20.5932 20.4889H17.3319V15.5572L20.7639 15.5743V20.1246C20.7668 20.3238 20.6359 20.4747 20.5932 20.4889ZM3.98818 19.2026C2.24657 16.9829 3.82028 13.3688 5.66717 11.8549C6.24771 11.3796 6.8937 10.9898 7.55961 10.7109C7.41163 12.0028 7.73889 13.7615 9.54595 15.0791C9.81914 15.2726 10.0696 15.4917 10.2887 15.7251C10.8123 16.2829 11.0827 17 11.057 17.7399C11.0286 18.4826 10.7042 19.1742 10.1436 19.6892C9.98988 19.8315 9.83337 19.9482 9.67685 20.0507C10.0724 18.6306 9.33251 16.926 8.41333 16.115C7.92102 15.6824 7.3291 15.3608 6.75141 15.2129C6.52375 15.1531 6.2904 15.2299 6.13673 15.4064C5.98305 15.58 5.94037 15.8304 6.02574 16.0467C6.06274 16.1434 6.36439 16.9972 5.57042 17.6175C5.40252 17.7456 5.246 17.8936 5.10941 18.0501C4.68539 18.5367 4.50326 19.1542 4.54879 19.7547C4.34105 19.5896 4.15038 19.4104 3.98818 19.2026ZM5.34845 3.2436H8.35926V7.62607L5.1777 7.61753V3.60785C5.17486 3.42857 5.3143 3.26067 5.34845 3.2436ZM20.7668 3.6107V7.65452L17.3348 7.64599V3.24075H20.5704C20.6273 3.26352 20.7668 3.42857 20.7668 3.6107ZM13.4219 14.2908V8.94935C13.4219 8.92373 13.4105 8.90666 13.4076 8.88105L20.7668 8.89812V14.325L13.4219 14.2908ZM16.0969 15.5487V20.4889H11.0827C11.8169 19.7604 12.2523 18.8127 12.2893 17.7883C12.3177 16.9858 12.1071 16.206 11.6888 15.5287L16.0969 15.5487ZM9.59432 7.62891V3.2436H16.0969V7.64599L9.59432 7.62891ZM8.90849 9.37336C8.75767 9.19124 8.51863 9.11155 8.29097 9.16562C7.22096 9.42174 6.13103 9.95959 5.1777 10.6796V8.86397L12.201 8.88105C12.1982 8.90666 12.1868 8.92658 12.1868 8.95219V14.2851L10.7895 14.2795H10.7867C10.7156 14.2795 10.6501 14.2965 10.5875 14.3193C10.4822 14.2339 10.3798 14.1457 10.2688 14.0689C8.00923 12.4212 8.95972 10.119 9.00241 10.025C9.09062 9.80592 9.05647 9.55549 8.90849 9.37336ZM7.16404 20.745C7.01606 20.7507 6.86524 20.7393 6.71157 20.7023C6.70872 20.7023 6.37577 20.6397 6.07981 20.3438C5.6871 19.9539 5.66433 19.2965 6.03143 18.8754C6.11111 18.7843 6.20502 18.6961 6.31885 18.6079C6.99045 18.0842 7.25795 17.4297 7.32341 16.8406C7.41732 16.9061 7.50838 16.9801 7.5966 17.0541C8.32227 17.6944 8.93695 19.2738 8.29666 20.1503C8.03769 20.506 7.62506 20.7194 7.17543 20.745H7.16404ZM20.5932 2H5.3456C4.60855 2 3.93695 2.76836 3.93695 3.6107V11.8492C2.1612 13.9949 1.10542 17.535 3.01777 19.9738C3.96256 21.1776 5.45659 21.8947 6.98761 21.9829C7.02176 21.9829 7.05875 21.9943 7.0929 21.9943C7.10713 21.9943 7.11851 21.9915 7.13274 21.9915C7.18966 21.9915 7.24657 22 7.30064 22C7.69336 22 8.08892 21.9573 8.47309 21.8691C8.49586 21.8663 8.7719 21.8207 9.16177 21.687C9.23291 21.7154 9.3069 21.7325 9.38658 21.7325H20.5932C21.3558 21.7325 22.0018 20.9954 22.0018 20.1218V3.6107C22.0018 2.76836 21.3302 2 20.5932 2Z" fill="#86888C"/>
</svg>
