<svg width="24" height="24" viewBox="0 0 24 24" fill="none" xmlns="http://www.w3.org/2000/svg">
<path fill-rule="evenodd" clip-rule="evenodd" d="M19.3085 11.6542C19.2914 11.6883 19.2516 11.7453 19.1634 11.7453H4.17831V3.33201C4.17831 3.24377 4.24947 3.17262 4.34054 3.17262H19.1662C19.2544 3.17262 19.2943 3.22954 19.3114 3.2637C19.3313 3.30639 19.3455 3.36616 19.3455 3.3747L16.1948 6.51117C15.6797 7.02633 15.6768 7.86595 16.192 8.39249L19.2914 11.4863C19.3427 11.5517 19.3284 11.6143 19.3085 11.6542ZM17.0316 7.56995C16.9661 7.50164 16.9633 7.39918 17.0287 7.33656L20.2278 4.14032C20.5381 3.73616 20.5921 3.20108 20.3645 2.74285C20.1368 2.28462 19.6785 2 19.1634 2H4.3377C3.60054 2 3 2.59769 3 3.32916V21.4165C3 21.7382 3.26469 22 3.58916 22C3.91362 22 4.17831 21.7382 4.17831 21.4165V12.9122H19.1634C19.6757 12.9122 20.1368 12.6276 20.3645 12.1693C20.5921 11.7111 20.5381 11.176 20.1795 10.715L17.0316 7.56995Z" fill="#86888C"/>
</svg>
