<svg width="24" height="24" viewBox="0 0 24 24" fill="none" xmlns="http://www.w3.org/2000/svg">
<path fill-rule="evenodd" clip-rule="evenodd" d="M19.2766 18.5117C19.2681 18.5487 19.2652 18.5885 19.2652 18.6255C19.2652 18.6853 19.2168 18.7308 19.1542 18.7308H4.14855C4.10017 18.7308 4.05748 18.6995 4.04326 18.6568L5.52874 10.6204C5.53443 10.5805 5.54013 10.5435 5.54013 10.5037C5.54013 10.4439 5.5885 10.3984 5.65111 10.3984H20.6369C20.6881 10.3984 20.7279 10.4297 20.7422 10.4724L19.2766 18.5117ZM3.43995 6.2749H9.66648C9.77462 6.2749 9.84861 6.34035 9.84861 6.40011V7.44451C9.84861 7.79454 10.1303 8.07911 10.4775 8.07911H18.3233C18.4314 8.07911 18.5054 8.14456 18.5083 8.25555L18.5737 9.1292V9.13204H5.65111C4.91975 9.13204 4.31929 9.71258 4.28515 10.4411L3.71884 13.5088L3.26067 6.40296C3.25783 6.34035 3.33182 6.2749 3.43995 6.2749ZM20.634 9.1292H19.8145C19.8173 9.09505 19.8287 9.06375 19.8258 9.0296L19.7604 8.20433C19.7604 7.43597 19.1144 6.80706 18.3204 6.80706H11.1036V6.39727C11.1036 5.62891 10.4576 5 9.66363 5H3.43711C2.64314 5 2 5.62607 2 6.43711L2.78258 18.5771C2.78258 18.5913 2.77689 18.6056 2.77689 18.6227C2.77689 19.3825 3.39158 20 4.1457 20H19.1514C19.8828 20 20.4832 19.4166 20.5174 18.691L21.9886 10.6175C21.9972 10.5805 22 10.5407 22 10.5037C22.0028 9.74673 21.3882 9.1292 20.634 9.1292Z" fill="#86888C"/>
</svg>
