<svg width="40" height="40" viewBox="0 0 40 40" fill="none" xmlns="http://www.w3.org/2000/svg">
<path fill-rule="evenodd" clip-rule="evenodd" d="M33.0979 30.321C33.0825 30.3876 33.0774 30.4593 33.0774 30.5259C33.0774 30.6335 32.9903 30.7154 32.8776 30.7154H5.86739C5.78031 30.7154 5.70347 30.6591 5.67786 30.5822L8.35174 16.1167C8.36198 16.045 8.37223 15.9784 8.37223 15.9067C8.37223 15.7991 8.45931 15.7171 8.572 15.7171H35.5464C35.6386 15.7171 35.7103 15.7735 35.7359 15.8503L33.0979 30.321ZM4.59192 8.29482H15.7997C15.9943 8.29482 16.1275 8.41264 16.1275 8.52021V10.4001C16.1275 11.0302 16.6346 11.5424 17.2595 11.5424H31.3819C31.5765 11.5424 31.7097 11.6602 31.7149 11.86L31.8327 13.4326V13.4377H8.572C7.25555 13.4377 6.17473 14.4826 6.11326 15.794L5.09391 21.3159L4.26921 8.52533C4.26409 8.41264 4.39727 8.29482 4.59192 8.29482ZM35.5413 13.4326H34.066C34.0711 13.3711 34.0916 13.3147 34.0865 13.2533L33.9687 11.7678C33.9687 10.3847 32.8059 9.2527 31.3768 9.2527H18.3865V8.51508C18.3865 7.13204 17.2237 6 15.7945 6H4.5868C3.15766 6 2 7.12692 2 8.5868L3.40865 30.4388C3.40865 30.4644 3.39841 30.49 3.39841 30.5208C3.39841 31.8884 4.50484 33 5.86227 33H32.8725C34.189 33 35.2698 31.9499 35.3312 30.6437L37.9795 16.1116C37.9949 16.045 38 15.9733 38 15.9067C38.0051 14.5441 36.8987 13.4326 35.5413 13.4326Z" fill="#86888C"/>
</svg>
