<svg width="24" height="24" viewBox="0 0 24 24" fill="none" xmlns="http://www.w3.org/2000/svg">
<path d="M14.9129 6.16957C15.2194 6.16957 15.4679 5.92109 15.4679 5.61457C15.4679 5.30805 15.2194 5.05957 14.9129 5.05957C14.6064 5.05957 14.3579 5.30805 14.3579 5.61457C14.3579 5.92109 14.6064 6.16957 14.9129 6.16957Z" fill="#86888C"/>
<path d="M14.9129 6.45463C14.4489 6.45463 14.0732 6.07893 14.0732 5.61501C14.0732 5.15108 14.4489 4.77539 14.9129 4.77539C15.3768 4.77539 15.7525 5.15108 15.7525 5.61501C15.7525 6.07893 15.3768 6.45463 14.9129 6.45463ZM14.9129 5.34462C14.7649 5.34462 14.6425 5.46701 14.6425 5.61501C14.6425 5.76301 14.7649 5.88539 14.9129 5.88539C15.0609 5.88539 15.1832 5.76301 15.1832 5.61501C15.1832 5.46701 15.0637 5.34462 14.9129 5.34462Z" fill="#86888C"/>
<path d="M17.1331 6.16957C17.4396 6.16957 17.6881 5.92109 17.6881 5.61457C17.6881 5.30805 17.4396 5.05957 17.1331 5.05957C16.8266 5.05957 16.5781 5.30805 16.5781 5.61457C16.5781 5.92109 16.8266 6.16957 17.1331 6.16957Z" fill="#86888C"/>
<path d="M17.1326 6.45463C16.6687 6.45463 16.293 6.07893 16.293 5.61501C16.293 5.15108 16.6687 4.77539 17.1326 4.77539C17.5965 4.77539 17.9722 5.15108 17.9722 5.61501C17.9722 6.07893 17.5965 6.45463 17.1326 6.45463ZM17.1326 5.34462C16.9846 5.34462 16.8622 5.46701 16.8622 5.61501C16.8622 5.76301 16.9846 5.88539 17.1326 5.88539C17.2806 5.88539 17.403 5.76301 17.403 5.61501C17.403 5.46701 17.2834 5.34462 17.1326 5.34462Z" fill="#86888C"/>
<path d="M19.3529 6.16957C19.6594 6.16957 19.9079 5.92109 19.9079 5.61457C19.9079 5.30805 19.6594 5.05957 19.3529 5.05957C19.0463 5.05957 18.7979 5.30805 18.7979 5.61457C18.7979 5.92109 19.0463 6.16957 19.3529 6.16957Z" fill="#86888C"/>
<path d="M19.3533 6.45463C18.8894 6.45463 18.5137 6.07893 18.5137 5.61501C18.5137 5.15108 18.8894 4.77539 19.3533 4.77539C19.8172 4.77539 20.1929 5.15108 20.1929 5.61501C20.1929 6.07893 19.8172 6.45463 19.3533 6.45463ZM19.3533 5.34462C19.2053 5.34462 19.0829 5.46701 19.0829 5.61501C19.0829 5.76301 19.2053 5.88539 19.3533 5.88539C19.5013 5.88539 19.6237 5.76301 19.6237 5.61501C19.6237 5.46701 19.5041 5.34462 19.3533 5.34462Z" fill="#86888C"/>
<path d="M14.802 11.7367C14.765 11.7367 14.7252 11.7339 14.6882 11.7282C14.267 11.6656 13.9254 11.2586 13.9254 10.826V9.24064H13.8144C12.9293 9.24064 12.2604 8.53479 12.2604 7.60125V3.63939C12.2604 2.73431 12.9947 2 13.8998 2H20.3691C21.2742 2 22.0085 2.73431 22.0085 3.63939V7.6041C22.0085 8.50918 21.2742 9.24349 20.3691 9.24349H17.0277C16.709 9.74726 16.0344 10.8089 15.9007 11.011C15.6047 11.4635 15.1834 11.7367 14.802 11.7367ZM13.8998 3.13847C13.6237 3.13847 13.3989 3.36331 13.3989 3.63939V7.6041C13.3989 7.85456 13.527 8.10502 13.8144 8.10502H14.4947C14.8077 8.10502 15.0639 8.36118 15.0639 8.67426V10.2083C15.3969 9.69034 16.2251 8.38395 16.2337 8.36972C16.339 8.20464 16.5183 8.10502 16.7147 8.10502H20.3691C20.6452 8.10502 20.8701 7.88018 20.8701 7.6041V3.63939C20.8701 3.36331 20.6452 3.13847 20.3691 3.13847H13.8998ZM8.6771 15.34C7.44187 15.34 6.47986 14.9842 5.81386 14.2784C5.18486 13.6152 4.86893 12.6902 4.86893 11.5318C4.86893 10.3734 5.1877 9.44841 5.81386 8.78526C6.47986 8.07941 7.44187 7.72079 8.6771 7.72079C9.91234 7.72079 10.8743 8.07941 11.5403 8.78241C12.1665 9.44557 12.4853 10.3706 12.4853 11.529C12.4853 12.6873 12.1665 13.6124 11.5403 14.2755C10.8743 14.9842 9.90949 15.34 8.6771 15.34ZM8.6771 8.85926C6.90394 8.85926 6.0074 9.75865 6.0074 11.529C6.0074 13.2993 6.90679 14.1987 8.6771 14.1987C10.4474 14.1987 11.3468 13.2993 11.3468 11.529C11.3468 9.75865 10.4474 8.85926 8.6771 8.85926ZM14.7821 22H2.56923C2.25615 22 2 21.7438 2 21.4308V20.3748C2 19.0087 2.36146 17.9528 3.07585 17.2355C3.79024 16.5183 4.84332 16.1511 6.20094 16.1511H11.1504C12.5109 16.1511 13.5611 16.5154 14.2755 17.2355C14.9899 17.9556 15.3514 19.0087 15.3514 20.3748V21.4308C15.3514 21.7467 15.0981 22 14.7821 22ZM3.13847 20.8615H14.2129V20.3748C14.2129 19.3218 13.9624 18.5334 13.47 18.0381C12.9777 17.5429 12.1978 17.2896 11.1533 17.2896H6.20094C5.1564 17.2896 4.37655 17.5401 3.88416 18.0381C3.39177 18.5362 3.13847 19.3218 3.13847 20.3748V20.8615Z" fill="#86888C"/>
</svg>
