<svg width="24" height="24" viewBox="0 0 24 24" fill="none" xmlns="http://www.w3.org/2000/svg">
<path fill-rule="evenodd" clip-rule="evenodd" d="M21.1379 15.8468C21.6102 15.8638 21.9801 16.2622 21.963 16.7374C21.9459 17.1841 21.5874 17.5455 21.1379 17.5625H16.5597V22.1435C16.5597 22.6159 16.1756 23 15.7004 23C15.2281 23 14.8439 22.6159 14.8439 22.1435V16.7032C14.8439 16.2281 15.2281 15.8468 15.7004 15.8468H21.1379ZM8.29392 15.8468C8.76625 15.8468 9.15038 16.2309 9.15038 16.7032V22.1407C9.12477 22.613 8.72073 22.9772 8.2484 22.9516C7.81021 22.9289 7.46308 22.5789 7.43747 22.1407V17.5597H2.85645C2.38128 17.5426 2.01138 17.1443 2.0313 16.6719C2.04837 16.2252 2.40689 15.8638 2.85645 15.8468H8.29392ZM8.29392 3C8.76625 3 9.15038 3.38412 9.15038 3.85645V9.29392C9.15038 9.76625 8.76625 10.1504 8.29392 10.1504H2.85645C2.38412 10.1504 2 9.76625 2 9.29108C2 8.81875 2.38412 8.43463 2.85645 8.43463H7.43463V3.85645C7.43463 3.38412 7.81875 3 8.29392 3ZM15.7032 10.1504C15.2309 10.1504 14.8468 9.76625 14.8468 9.29392V3.85645C14.8724 3.38412 15.2764 3.01992 15.7488 3.04553C16.1869 3.06829 16.5341 3.41827 16.5597 3.85645V8.43463H21.1407C21.613 8.4517 21.9829 8.85005 21.9659 9.32522C21.9488 9.77194 21.5903 10.1333 21.1407 10.1504H15.7032Z" fill="#86888C"/>
</svg>
