<svg width="28" height="28" viewBox="0 0 28 28" fill="none" xmlns="http://www.w3.org/2000/svg">
<path fill-rule="evenodd" clip-rule="evenodd" d="M3.02774 10.5805C2.46095 10.5805 2 10.1195 2 9.55271V3.02774C2 2.46095 2.46095 2 3.02774 2H9.55612C10.1229 2.02049 10.5668 2.49851 10.5463 3.06872C10.5258 3.60478 10.0956 4.03841 9.55612 4.0589H4.05548V9.55612C4.05548 10.1195 3.59454 10.5805 3.02774 10.5805ZM9.56637 23.9411C10.1332 23.9616 10.577 24.4396 10.5566 25.0098C10.5361 25.5459 10.1058 25.9795 9.56637 26H3.03457C2.46778 26 2.00683 25.5391 2.00683 24.9723V18.4439C2.00683 17.8771 2.46778 17.4161 3.03457 17.4161C3.60137 17.4161 4.06231 17.8771 4.06231 18.4439V23.9411H9.56637ZM24.962 17.3991C25.5288 17.3991 25.9898 17.86 25.9898 18.4268V24.9518C25.9898 25.5186 25.5288 25.9795 24.962 25.9795H18.4302C17.8634 25.9488 17.4264 25.4639 17.4571 24.8971C17.4844 24.3713 17.9044 23.9548 18.4302 23.924H23.9309V18.4268C23.9343 17.86 24.3918 17.3991 24.962 17.3991ZM24.9688 2.02732C25.5356 2.02732 25.9966 2.48485 25.9966 3.05506V9.58003C25.9761 10.1468 25.4981 10.5907 24.9279 10.5702C24.3918 10.5497 23.9582 10.1195 23.9377 9.58003V4.08621H18.437C17.8702 4.08621 17.4093 3.62527 17.4093 3.05847C17.4093 2.49168 17.8702 2.03073 18.437 2.03073H24.9688V2.02732Z" fill="#86888C"/>
</svg>
