<svg width="20" height="20" viewBox="0 0 20 20" fill="none" xmlns="http://www.w3.org/2000/svg">
<path fill-rule="evenodd" clip-rule="evenodd" d="M17.0009 9.89854C16.9576 10.0078 16.821 10.133 16.5866 10.133H15.6668C15.3959 10.133 15.1774 10.3516 15.1774 10.6225V16.7418C15.1774 16.9193 14.9793 17.0673 14.7449 17.0673H14.1325V10.6908C14.1325 10.4199 13.9139 10.2013 13.643 10.2013H6.33536C6.06445 10.2013 5.84591 10.4199 5.84591 10.6908V17.0673H5.16295C4.92847 17.0673 4.73041 16.9193 4.73041 16.7418V10.6225C4.73041 10.3516 4.51186 10.133 4.24096 10.133H3.41458C3.17782 10.133 3.0435 10.0055 3.00025 9.89854C2.957 9.79609 2.98204 9.70048 3.0731 9.6117L9.65909 3.15547C9.83438 2.98245 10.1668 2.98245 10.342 3.15547L16.928 9.6117C17.0191 9.70048 17.0419 9.79837 17.0009 9.89854ZM6.82481 12.4983H13.1536V11.1825H6.82481V12.4983ZM6.82481 17.0673H13.1536V15.7606H6.82481V17.0673ZM6.82481 14.784H13.1536V13.4772H6.82481V14.784ZM17.6133 8.9128L11.0273 2.45885C10.4718 1.91476 9.52933 1.91476 8.97386 2.45885L2.38559 8.91508C2.01224 9.2816 1.90069 9.80065 2.09192 10.2719C2.30136 10.7841 2.8204 11.1165 3.4123 11.1165H3.74923V16.7463C3.74923 17.4657 4.3821 18.0508 5.16067 18.0508H6.33309C6.33764 18.0508 6.33991 18.0485 6.34447 18.0485C6.34674 18.0485 6.34902 18.0508 6.3513 18.0508H13.602C13.6089 18.0508 13.6134 18.0485 13.618 18.0485C13.6248 18.0485 13.6316 18.0508 13.6385 18.0508H14.7403C15.5189 18.0508 16.1517 17.4657 16.1517 16.7463V11.1165H16.582C17.1739 11.1165 17.693 10.7864 17.9024 10.2719C18.1005 9.79837 17.9866 9.27932 17.6133 8.9128Z" fill="#86888C"/>
</svg>
