<svg width="40" height="40" viewBox="0 0 40 40" fill="none" xmlns="http://www.w3.org/2000/svg">
<path fill-rule="evenodd" clip-rule="evenodd" d="M35.2576 35.8205C35.4625 35.8205 35.6264 35.6515 35.6264 35.4466V26.8832L35.611 26.7808C35.5956 26.5913 35.4471 26.4376 35.2525 26.4376H4.53803C4.33317 26.4376 4.16928 26.6066 4.16928 26.8115V35.4466C4.16928 35.6515 4.33829 35.8205 4.53803 35.8205H35.2576ZM7.10398 4.7475L4.51755 24.1688C4.52779 24.1688 4.53291 24.1636 4.54316 24.1636H35.2576C35.2679 24.1636 35.2781 24.1688 35.2883 24.1688L32.8709 4.98309C32.8146 4.67579 32.579 4.40435 32.328 4.40435L7.47786 4.37874C7.27299 4.37362 7.10398 4.54263 7.10398 4.7475ZM37.8901 26.704C37.8953 26.7449 37.9004 26.7757 37.9004 26.8166V35.4517C37.9004 36.9114 36.7173 38.0996 35.2576 38.0996H4.54316C3.08861 38.0996 1.90039 36.9114 1.90039 35.4517V26.8166C1.90039 26.7603 1.91576 26.704 1.92088 26.6476C1.92088 26.6118 1.91063 26.581 1.91576 26.5503L4.84533 4.59897C4.83509 3.29295 6.02331 2.09961 7.47786 2.09961L32.328 2.12522C33.6955 2.12522 34.8428 3.15467 35.1142 4.6297L37.8389 26.2533C37.8543 26.3147 37.8543 26.3813 37.8645 26.4479L37.8901 26.6681C37.8953 26.6835 37.8901 26.6886 37.8901 26.704ZM19.903 12.978C18.2691 12.978 18.2691 13.6591 18.2691 13.9511C18.2691 14.243 18.2691 14.9191 19.903 14.9191C21.5368 14.9191 21.5368 14.243 21.5368 13.9511C21.5368 13.6591 21.5368 12.978 19.903 12.978ZM19.903 16.4351C17.0656 16.4351 16.7583 14.6988 16.7583 13.9511C16.7583 13.2033 17.0656 11.462 19.903 11.462C22.7455 11.462 23.0528 13.2033 23.0528 13.9511C23.0476 14.6988 22.7403 16.4351 19.903 16.4351ZM30.9708 32.6502C31.8927 32.6502 32.2563 32.2917 32.2563 31.3595C32.2563 30.4325 31.8927 30.074 30.9708 30.074C30.0489 30.074 29.6853 30.4376 29.6853 31.3595C29.6853 32.2917 30.0438 32.6502 30.9708 32.6502ZM30.9708 28.558C32.7224 28.558 33.7672 29.6079 33.7672 31.3595C33.7672 33.1163 32.7224 34.1662 30.9708 34.1662C29.2192 34.1662 28.1744 33.1163 28.1744 31.3595C28.1693 29.6079 29.2192 28.558 30.9708 28.558ZM9.29604 7.15467C8.43048 7.15467 7.92856 6.83713 7.92856 6.16619C7.92856 5.49013 8.43048 5.17771 9.29604 5.17771C10.1565 5.17771 10.6635 5.49526 10.6635 6.16619C10.6635 6.84225 10.1616 7.15467 9.29604 7.15467ZM29.8133 7.15467C28.9478 7.15467 28.4458 6.83713 28.4458 6.16619C28.4458 5.49013 28.9478 5.17771 29.8133 5.17771C30.6738 5.17771 31.1808 5.49526 31.1808 6.16619C31.1808 6.84225 30.6738 7.15467 29.8133 7.15467ZM32.7429 23.3186C31.8773 23.3186 31.3754 23.001 31.3754 22.3301C31.3754 21.654 31.8773 21.3416 32.7429 21.3416C33.6085 21.3416 34.1104 21.654 34.1104 22.3301C34.1104 23.0061 33.6085 23.3186 32.7429 23.3186ZM7.50346 20.5017C7.25762 20.727 7.12446 20.9421 7.13471 21.0958C7.15007 21.2648 7.34981 21.4901 7.66736 21.7001C8.21025 22.0535 9.03483 22.3198 9.8543 21.5721C11.6878 19.8922 13.8184 17.2648 13.6955 16.5938C13.675 16.5887 13.6494 16.5887 13.6238 16.5887C12.7224 16.5887 8.96313 19.1649 7.50346 20.5017ZM11.6469 13.9511C11.6469 14.5862 11.7442 15.1649 11.8927 15.6924C12.9683 15.2059 13.9567 14.9959 14.5764 15.4005C14.9452 15.6412 15.1706 16.0202 15.2064 16.476C15.2525 17.0753 14.9247 17.8333 14.4279 18.6118L14.4638 18.6271C15.8108 19.2725 17.6443 19.6002 19.8978 19.6002C28.1539 19.6002 28.1539 15.3442 28.1539 13.9511C28.1539 12.5529 28.1539 8.29167 19.8978 8.29167C11.6469 8.29679 11.6469 12.5529 11.6469 13.9511ZM6.84789 22.9754C5.91063 22.3659 5.66992 21.6848 5.62894 21.2238C5.59309 20.7731 5.71089 20.0919 6.48426 19.38C6.51499 19.3544 8.06684 17.9972 9.85942 16.8294C9.85942 16.8243 9.8543 16.8243 9.8543 16.8192C9.54188 15.9588 9.37798 14.9908 9.37798 13.946C9.37798 10.9805 10.7455 6.01254 19.8978 6.01254C29.0604 6.01254 30.4279 10.9805 30.4279 13.946C30.4279 16.9063 29.0604 21.8743 19.8978 21.8743C17.3012 21.8743 15.1398 21.4748 13.4804 20.6758L13.209 20.5426C13.1475 20.5119 13.1117 20.4607 13.0604 20.4197C12.0156 21.6335 10.9606 22.6066 10.8735 22.6835C10.2384 23.2673 9.49578 23.5644 8.72754 23.5644C8.10269 23.5695 7.46249 23.3749 6.84789 22.9754Z" fill="#86888C"/>
</svg>
