<svg width="28" height="28" viewBox="0 0 28 28" fill="none" xmlns="http://www.w3.org/2000/svg">
<path fill-rule="evenodd" clip-rule="evenodd" d="M21.4707 18.8866H21.4502C19.4659 18.8798 16.0881 16.2705 14.7425 15C16.0916 13.7295 19.4795 11.1134 21.4638 11.1134H21.4707C22.6045 11.1168 23.4857 11.4549 24.0834 12.1209C24.6845 12.7869 24.985 13.7568 24.9816 15.0102C24.9782 17.5102 23.7282 18.8866 21.4707 18.8866ZM6.53554 18.8866H6.51505C5.388 18.8866 4.51368 18.5519 3.916 17.8962C3.3115 17.237 3.00412 16.2671 3.0007 15.0137C2.99729 13.7637 3.29784 12.7903 3.89893 12.1243C4.50002 11.4583 5.37775 11.1202 6.51163 11.1168H6.51846C8.50275 11.1168 11.8907 13.7295 13.2398 15.0034C11.8976 16.2671 8.52325 18.8798 6.53554 18.8866ZM24.804 11.3354C24.0185 10.4645 22.8709 10.0034 21.4775 10H21.4672C18.9023 10 15.2138 13.1011 13.998 14.252C12.7787 13.1011 9.0936 10 6.52871 10H6.51846C5.12502 10.0034 3.97406 10.4679 3.19196 11.3354C2.40986 12.2063 1.99661 13.4768 2.00002 15.0137C2.00344 16.5505 2.42352 17.821 3.21245 18.6851C3.99797 19.5458 5.1421 20 6.52529 20H6.54579C9.11409 19.9898 12.7855 16.8955 14.0014 15.748C15.2172 16.8955 18.8921 19.9898 21.4536 20H21.4775C24.3019 20 25.9925 18.1387 26.0028 15.0137C25.9993 13.4802 25.5861 12.2063 24.804 11.3354Z" fill="#86888C"/>
</svg>
