<svg width="40" height="40" viewBox="0 0 40 40" fill="none" xmlns="http://www.w3.org/2000/svg">
<path fill-rule="evenodd" clip-rule="evenodd" d="M33.753 31.8295C34.8493 31.8295 35.7407 32.6953 35.7407 33.7661C35.7407 34.8214 34.8544 35.6872 33.753 35.6872C32.6669 35.6872 31.7806 34.8214 31.7806 33.7661C31.7806 32.6953 32.6669 31.8295 33.753 31.8295ZM13.445 28.5456C15.8529 28.0026 18.0814 27.7977 19.3161 27.7208V35.8819C16.8467 35.2364 14.7104 32.4648 13.445 28.5456ZM7.29216 30.9176C8.49609 30.1543 9.87932 29.5805 11.2779 29.1245C12.1232 31.6912 13.3118 33.8532 14.7565 35.4362C11.5187 34.6626 9.03401 33.1513 7.29216 30.9176ZM4.29515 21.4963H10.0023C10.0791 23.4328 10.3199 25.2822 10.7093 26.9985C9.11598 27.4954 7.51758 28.1614 6.1036 29.0426C5.03287 26.9882 4.41298 24.4625 4.29515 21.4963ZM6.06774 11.5011C7.51245 12.3976 9.11086 13.0585 10.6888 13.5555C10.2994 15.3485 10.0433 17.2697 9.98178 19.2933H4.27978C4.38224 16.2246 4.98677 13.6272 6.06774 11.5011ZM14.7719 5.07161C13.3118 6.65465 12.1232 8.82684 11.2779 11.4294C9.87932 10.9734 8.49609 10.3996 7.26142 9.62092C9.00327 7.36163 11.5033 5.85032 14.7719 5.07161ZM19.3161 4.61565V12.8229C18.0814 12.7511 15.8682 12.5565 13.445 12.0185C14.7104 8.06862 16.8314 5.27653 19.3161 4.61565ZM12.2411 19.2933C12.3025 17.49 12.5126 15.743 12.8558 14.1395C15.5506 14.7696 17.9892 14.9643 19.3109 15.0207V19.2933H12.2411ZM19.3161 21.4963V25.5179C17.9892 25.5947 15.5506 25.8099 12.8763 26.4144C12.528 24.8877 12.3179 23.2279 12.2616 21.4963H19.3161ZM33.753 5.11259C34.8493 5.11259 35.7407 5.9784 35.7407 7.03376C35.7407 8.10448 34.8544 8.97029 33.753 8.97029C32.6669 8.97029 31.7806 8.10448 31.7806 7.03376C31.7806 5.98352 32.6669 5.11259 33.753 5.11259ZM33.753 18.5197C34.8493 18.5197 35.7407 19.3855 35.7407 20.4563C35.7407 21.527 34.8544 22.3928 33.753 22.3928C32.6669 22.3928 31.7806 21.527 31.7806 20.4563C31.7806 19.3855 32.6669 18.5197 33.753 18.5197ZM29.6852 21.5577C30.1822 23.3047 31.8062 24.5957 33.7478 24.5957C36.0942 24.5957 37.9898 22.7309 37.9898 20.4563C37.9898 18.1816 36.0942 16.3168 33.7478 16.3168C31.8062 16.3168 30.1822 17.6078 29.6852 19.3548H21.5702V17.3414H26.7958C27.4106 17.3414 27.9075 16.8547 27.9229 16.2553L27.9997 8.13522H29.6852C30.1822 9.8822 31.8062 11.1732 33.7478 11.1732C36.0942 11.1732 37.9898 9.32378 37.9898 7.03376C37.9898 4.7591 36.0942 2.90966 33.7478 2.90966C31.8062 2.90966 30.1822 4.20068 29.6852 5.93229H26.888C26.2732 5.93229 25.7609 6.41898 25.7609 7.03376L25.6738 15.1385H21.5805V3.35537C21.5805 2.7406 21.0835 2.25391 20.4534 2.25391C8.38338 2.25391 2 8.47847 2 20.2462V20.4255C2.03074 24.816 2.94777 28.4124 4.71012 31.1994C4.74086 31.2558 4.75623 31.3326 4.80233 31.3736C4.83307 31.4043 4.86381 31.4043 4.87918 31.4299C7.84545 35.9229 13.0813 38.2539 20.4585 38.2539C21.0938 38.2539 21.5856 37.757 21.5856 37.1524V25.6665H25.679L25.766 33.7814C25.766 34.3808 26.2784 34.8675 26.8931 34.8675H29.6955C30.1924 36.6145 31.8164 37.8902 33.7581 37.8902C36.1045 37.8902 38 36.0407 38 33.7661C38 31.4914 36.1045 29.6266 33.7581 29.6266C31.8164 29.6266 30.1924 30.9176 29.6955 32.6646H28.01L27.9331 24.5496C27.9177 23.9502 27.4208 23.4635 26.806 23.4635H21.5805V21.5577H29.6852Z" fill="#86888C"/>
</svg>
