<svg width="24" height="24" viewBox="0 0 24 24" fill="none" xmlns="http://www.w3.org/2000/svg">
<path fill-rule="evenodd" clip-rule="evenodd" d="M21.0982 17.6592C17.3303 17.7695 14.3112 18.8001 12.8482 19.4068V6.99104C16.0269 5.43218 19.6816 5.31896 21.0982 5.34509V17.6592ZM3.2976 5.34509C4.71422 5.32767 8.36027 5.42927 11.5477 6.99104V19.4068C10.0875 18.803 7.06558 17.7695 3.2976 17.6592V5.34509ZM21.8007 4.08523C21.583 4.06781 16.561 3.71075 12.1979 5.88213C7.83775 3.70785 2.81572 4.06781 2.598 4.08523C2.25836 4.11135 2 4.39003 2 4.72677V18.295C2 18.6491 2.29029 18.9394 2.65025 18.9394C7.89291 18.9394 11.8583 20.9598 11.8989 20.9802C11.9947 21.0295 12.0963 21.0527 12.2008 21.0527C12.227 21.0527 12.2502 21.0353 12.2792 21.0324C12.3576 21.0237 12.4331 21.015 12.5056 20.9773C12.5085 20.9773 12.526 20.9685 12.5376 20.9598C12.8772 20.7915 16.7061 18.9365 21.7514 18.9365C22.1114 18.9365 22.4016 18.6491 22.4016 18.2921V4.72387C22.3987 4.39003 22.1375 4.11135 21.8007 4.08523Z" fill="#86888C"/>
</svg>
