<svg width="20" height="20" viewBox="0 0 20 20" fill="none" xmlns="http://www.w3.org/2000/svg">
<path d="M10.0546 18.4766H10.0409C9.9998 18.4766 9.96324 18.4766 9.92898 18.4743H9.91527C9.80562 18.4674 9.69597 18.4537 9.5886 18.4286C9.21395 18.3441 8.85758 18.1864 8.54689 17.9603C8.17453 17.6907 7.73592 17.2475 7.61027 17.1196C6.31499 15.7832 5.55884 14.8352 4.6108 13.364C3.42518 11.5227 2.60963 9.69289 2.18929 7.92702C1.73241 6.00809 2.10934 4.41583 3.24699 3.43809C3.90719 2.87383 4.80955 2.53345 5.78272 2.48319C6.80843 2.43065 7.87298 2.69108 8.85986 3.23934C9.19567 3.42438 9.54062 3.62541 9.91756 3.84701C9.99294 3.88813 10.0843 3.88813 10.162 3.84701C10.5366 3.62313 10.8839 3.42438 11.222 3.23706C12.2066 2.69108 13.2711 2.43065 14.2968 2.48319C15.2723 2.53345 16.1724 2.87383 16.8326 3.44038C17.9702 4.41583 18.3471 6.01037 17.8903 7.9293C17.4699 9.69289 16.6567 11.5204 15.4687 13.364C14.5298 14.8237 13.7783 15.7672 12.5013 17.0853C12.4921 17.0968 12.483 17.1082 12.4716 17.1196C12.3459 17.2498 11.9096 17.6907 11.5372 17.958C11.2265 18.1842 10.8702 18.3441 10.4955 18.4263C10.3882 18.4514 10.2785 18.4674 10.1688 18.472H10.1551C10.1209 18.4766 10.0889 18.4766 10.0546 18.4766ZM10.0409 17.5628H10.1117C10.1711 17.5605 10.2282 17.5514 10.2854 17.5377L10.2991 17.5354C10.5526 17.4783 10.7925 17.3709 11.0027 17.2156C11.238 17.0465 11.5624 16.7404 11.7839 16.5142C11.7931 16.5028 11.8022 16.4914 11.8114 16.4822C13.0747 15.1801 13.776 14.3006 14.6989 12.8683C15.8297 11.1092 16.6041 9.37535 17.0016 7.71456C17.1889 6.92872 17.2186 6.21825 17.0884 5.60602C16.9582 4.99836 16.6726 4.50264 16.2409 4.13028C15.7315 3.69395 15.0256 3.43352 14.2534 3.3924C13.3945 3.35128 12.499 3.57287 11.6629 4.0389C11.3316 4.22165 10.9912 4.41812 10.6212 4.63742L10.612 4.64199C10.2534 4.84302 9.81476 4.84302 9.4561 4.63742L9.45153 4.63514C9.08145 4.41583 8.74335 4.21937 8.41439 4.0389C7.58057 3.57287 6.68507 3.35128 5.83069 3.39469C5.05627 3.43352 4.35037 3.69623 3.84323 4.13256C3.40918 4.50492 3.12363 5.00065 2.99342 5.60831C2.8632 6.22054 2.89062 6.931 3.07794 7.71685C3.47543 9.37992 4.24757 11.1138 5.37837 12.8705C6.30129 14.3029 7.00261 15.1801 8.2659 16.4845C8.48521 16.713 8.83245 17.0396 9.07917 17.2178C9.28933 17.3709 9.5292 17.4805 9.78277 17.5377L9.79648 17.5399C9.85359 17.5536 9.91299 17.5605 9.9701 17.5651H10.0409V17.5628Z" fill="#86888C"/>
</svg>
