<svg width="24" height="24" viewBox="0 0 24 24" fill="none" xmlns="http://www.w3.org/2000/svg">
<path fill-rule="evenodd" clip-rule="evenodd" d="M8.65396 8.70461C8.20148 8.70461 7.83722 8.34035 7.83722 7.89072C7.83722 7.44109 8.20148 7.07684 8.65396 7.07684C9.10643 7.07684 9.47069 7.44109 9.47069 7.89072C9.47069 8.33751 9.10359 8.70461 8.65396 8.70461ZM8.65965 11.2231C9.11212 11.2231 9.47638 11.5874 9.47638 12.037C9.47638 12.4866 9.11212 12.8509 8.65965 12.8509C8.20717 12.8509 7.84291 12.4866 7.84291 12.037C7.84291 11.5874 8.20717 11.2231 8.65965 11.2231ZM11.4286 8.55378C11.0899 8.55378 10.8139 8.28059 10.8139 7.94195C10.8139 7.6033 11.0899 7.33011 11.4286 7.33011H17.0803C17.4189 7.33011 17.6949 7.6033 17.6949 7.94195C17.6949 8.28059 17.4189 8.55378 17.0803 8.55378H11.4286ZM17.1628 11.4252C17.5014 11.4252 17.7775 11.6983 17.7775 12.037C17.7775 12.3756 17.5014 12.6488 17.1628 12.6488H11.5111C11.1725 12.6488 10.8964 12.3756 10.8964 12.037C10.8964 11.6983 11.1725 11.4252 11.5111 11.4252H17.1628ZM8.65965 15.2982C9.11212 15.2982 9.47638 15.6625 9.47638 16.1121C9.47638 16.5618 9.11212 16.926 8.65965 16.926C8.20717 16.926 7.84291 16.5618 7.84291 16.1121C7.84291 15.6625 8.20717 15.2982 8.65965 15.2982ZM17.1628 15.5003C17.5014 15.5003 17.7775 15.7735 17.7775 16.1121C17.7775 16.4508 17.5014 16.724 17.1628 16.724H11.5111C11.1725 16.724 10.8964 16.4508 10.8964 16.1121C10.8964 15.7735 11.1725 15.5003 11.5111 15.5003H17.1628ZM18.7706 20.3836V3.61639C18.7706 3.42003 18.6227 3.2436 18.56 3.22083L6.41434 3.22368C6.3745 3.2436 6.22652 3.42003 6.22652 3.61639V20.3836C6.22652 20.5913 6.36027 20.7536 6.42003 20.7763H18.5857C18.6312 20.7621 18.7706 20.6056 18.7706 20.3836ZM18.5857 2C19.3256 2 20 2.7712 20 3.61639V20.3836C20 21.2601 19.3512 22 18.5857 22H6.41434C5.64599 22 5 21.2601 5 20.3836V3.61639C5 2.7712 5.67445 2 6.41434 2H18.5857Z" fill="#86888C"/>
</svg>
