<svg width="20" height="20" viewBox="0 0 20 20" fill="none" xmlns="http://www.w3.org/2000/svg">
<path fill-rule="evenodd" clip-rule="evenodd" d="M9.65739 2.97894C6.64089 2.97894 4.97441 4.66818 4.9653 7.73705C4.9562 10.4644 8.20264 15.1178 9.64373 16.7888C10.9551 15.259 14.3586 10.6238 14.3677 7.76665C14.3768 4.68867 12.7126 2.99032 9.68016 2.97894H9.65739ZM9.64601 18C9.51852 18 9.39331 17.9476 9.30452 17.8566C8.22313 16.7592 3.98864 11.2271 4.00002 7.73478C4.01141 4.14229 6.12637 2 9.65739 2H9.68244C13.2294 2.01138 15.3421 4.16733 15.3307 7.76892C15.3216 11.5162 10.6523 17.1827 9.9875 17.8566C9.89644 17.9476 9.7735 18 9.64601 18ZM9.6665 6.24132C8.89018 6.24132 8.50998 6.62607 8.50998 7.41377C8.50998 8.20376 8.8879 8.5885 9.6665 8.5885C10.4451 8.5885 10.823 8.20376 10.823 7.41605C10.823 6.62607 10.4428 6.2436 9.6665 6.24132ZM9.6665 9.56972C8.35745 9.56972 7.5447 8.74331 7.5447 7.41605C7.5447 6.08879 8.35745 5.26238 9.6665 5.26238C10.9755 5.26238 11.7883 6.08879 11.7883 7.41605C11.7883 8.74331 10.9755 9.56972 9.6665 9.56972Z" fill="#86888C"/>
</svg>
