<svg width="20" height="20" viewBox="0 0 20 20" fill="none" xmlns="http://www.w3.org/2000/svg">
<path fill-rule="evenodd" clip-rule="evenodd" d="M8.09275 14.4677C9.34452 14.4677 9.68819 14.0148 9.68819 12.3579C9.68819 11.3223 9.5357 10.767 9.18065 10.503C8.94851 10.3323 8.59346 10.2481 8.09275 10.2481C7.58748 10.2481 7.23016 10.3323 6.99801 10.5075C6.64523 10.7738 6.49502 11.3269 6.49502 12.3579C6.49502 14.0148 6.83869 14.4677 8.09275 14.4677ZM8.09502 8.99858C7.01849 8.99858 7.01849 9.23073 7.01849 9.52205C7.01849 9.53798 7.02077 9.54708 7.02077 9.56074C7.32347 9.45605 7.67397 9.39915 8.09275 9.39915C8.5138 9.39915 8.86657 9.45605 9.16927 9.56302C9.16927 9.54708 9.17155 9.53798 9.17155 9.52205C9.17155 9.23073 9.17155 8.99858 8.09502 8.99858ZM11.0697 11.6296C11.3064 11.6296 11.4953 11.8185 11.4953 12.0552V12.6834C11.4953 12.9178 11.3041 13.1067 11.0697 13.1067C10.833 13.1067 10.6441 12.9178 10.6441 12.6834V12.4785H10.5394C10.5349 12.9405 10.4984 13.3866 10.3892 13.7849L10.9878 13.9647C11.1767 14.0216 11.3018 14.1969 11.2905 14.3926L11.2404 15.3394C11.229 15.5647 11.0401 15.74 10.8148 15.74H10.792C10.5576 15.7263 10.3778 15.5283 10.3892 15.2939L10.4233 14.6794L10.0228 14.5587C9.66543 15.0208 9.07141 15.3166 8.09502 15.3166C7.11636 15.3166 6.52233 15.0208 6.16501 14.5542L5.74851 14.6794L5.78265 15.2939C5.79403 15.5283 5.61422 15.7286 5.3798 15.74H5.35704C5.13172 15.74 4.94282 15.5647 4.93144 15.3394L4.88137 14.3926C4.86999 14.1969 4.99516 14.0193 5.18407 13.9647L5.79858 13.7804C5.68933 13.3821 5.65519 12.9383 5.65064 12.4785H5.54595V12.6834C5.54595 12.9178 5.35477 13.1067 5.12034 13.1067C4.88364 13.1067 4.69474 12.9178 4.69474 12.6834V12.0552C4.69474 11.8208 4.88592 11.6296 5.12034 11.6296H5.67795C5.71209 11.2563 5.7872 10.8945 5.92603 10.569L5.18634 10.3482C4.99744 10.2913 4.87226 10.1138 4.88364 9.91807L4.93371 8.97127C4.94509 8.73684 5.14538 8.58435 5.38208 8.5707C5.61878 8.58208 5.79858 8.78236 5.78492 9.01678L5.75078 9.63129L6.19004 9.7633C6.17866 9.68592 6.16956 9.60626 6.16956 9.52205C6.16956 8.14964 7.52376 8.14964 8.09957 8.14964C8.67767 8.14964 10.0296 8.14964 10.0296 9.52205C10.0296 9.60398 10.0205 9.68137 10.0114 9.75647L10.4256 9.63357L10.3915 9.01906C10.3801 8.78464 10.5599 8.58435 10.7943 8.57297C11.0378 8.58663 11.2313 8.73912 11.2427 8.97354L11.2927 9.92034C11.3041 10.1161 11.1789 10.2936 10.99 10.3505L10.264 10.5667C10.4051 10.8899 10.4802 11.2563 10.5144 11.6319H11.0697V11.6296ZM8.06543 10.9286C8.30213 10.9286 8.49104 11.1175 8.49104 11.3519V13.7053C8.49104 13.9397 8.29986 14.1286 8.06543 14.1286C7.83101 14.1286 7.63983 13.9397 7.63983 13.7053V11.3519C7.63983 11.1175 7.83101 10.9286 8.06543 10.9286ZM16.9166 15.0344C17.0373 14.8933 17.0077 14.6543 17.0077 14.6521L17.0009 14.5747L17.0054 8.28165L13.9829 10.1639C14.0421 10.4188 14.0945 10.6805 14.1263 10.9605C14.1627 11.2768 14.1809 11.6137 14.1809 11.955C14.1809 13.2182 13.9169 14.297 13.4276 15.196C14.7886 15.196 16.1633 15.1937 16.4205 15.1892C16.5866 15.1915 16.8097 15.1596 16.9166 15.0344ZM8.33855 17.0213C8.98492 17.01 11.1835 16.837 12.3761 15.0799C12.9223 14.2765 13.2 13.2273 13.2 11.9596C13.2 11.6523 13.1841 11.3565 13.1522 11.0765C12.7129 7.2734 9.33997 6.89787 8.31579 6.87055C8.19516 6.86828 8.05633 6.866 7.92432 6.866H7.8037C6.77041 6.87511 3.3724 7.21195 3.01735 11.204C2.99687 11.4339 2.98549 11.6751 2.98549 11.9255C2.98549 16.5889 6.70441 17.0054 7.84467 17.0213C8.01081 17.0259 8.19061 17.0236 8.33855 17.0213ZM9.90896 3.1835L4.36472 6.6862C4.301 6.73172 4.2532 6.83642 4.22361 6.9798C5.27511 6.22873 6.56785 5.901 7.79232 5.88962C7.96984 5.88734 8.17013 5.88962 8.33855 5.89417C10.4051 5.94424 12.6856 6.87055 13.6757 9.20569L17.0009 7.13229C16.9826 6.91152 16.9212 6.74538 16.8165 6.67027L16.7528 6.6293L11.311 3.19488C11.2882 3.17895 10.9969 2.98321 10.6077 2.98321C10.2048 2.98549 9.91351 3.18122 9.90896 3.1835ZM17.9863 14.5451C18.0068 14.7135 18.0296 15.2324 17.6791 15.6535C17.4879 15.8834 17.1192 16.1587 16.4387 16.1701C16.136 16.1747 14.3038 16.177 12.7471 16.177C11.2541 17.8043 9.04865 17.9841 8.35676 17.9954C8.25206 17.9977 8.12916 18 8.00626 18C7.94708 18 7.88791 18 7.82873 17.9977C6.85462 17.9818 2 17.6245 2 11.9232C2 11.641 2.01138 11.3724 2.03414 11.1152C2.15249 9.77013 2.58947 8.73229 3.20853 7.94253V7.21878C3.22674 6.44723 3.54538 6.06259 3.80939 5.87141L3.91408 5.80313L9.36046 2.36415C9.39232 2.34139 9.89075 2 10.5917 2C11.3041 2 11.8026 2.34139 11.8572 2.38009L17.365 5.85775C17.6518 6.06031 17.9704 6.44723 17.9886 7.2074L17.9863 14.5451Z" fill="#86888C"/>
</svg>
