<svg width="28" height="28" viewBox="0 0 28 28" fill="none" xmlns="http://www.w3.org/2000/svg">
<path fill-rule="evenodd" clip-rule="evenodd" d="M23.4097 24.418C22.658 24.4323 19.2488 24.4358 14.0549 24.4323H14.0014C9.44874 24.4323 4.4721 24.4323 3.62782 24.418C3.33214 24.4145 2.94028 24.3575 2.74435 24.1295C2.52704 23.873 2.57692 23.4491 2.57692 23.4491L2.5876 23.3849L2.58048 12.6978L11.2442 18.1554C11.3332 18.223 12.1704 18.8037 13.3567 18.8037C14.0727 18.8037 14.7567 18.5935 15.3765 18.1874L24.4535 12.5304L24.4428 23.3172L24.4535 23.4491C24.4535 23.4526 24.5069 23.8659 24.2931 24.1223C24.1008 24.3575 23.7054 24.4109 23.4097 24.418ZM12.3164 3.91299C12.6798 3.68857 13.1002 3.57101 13.5241 3.56744C14.2045 3.56744 14.7139 3.90943 14.746 3.93437L24.1043 9.84435C24.2967 9.97972 24.4107 10.2861 24.4392 10.6922L14.5251 16.8729C14.1796 17.108 13.7735 17.2363 13.3567 17.2398C12.6834 17.2398 12.1775 16.8943 12.1348 16.8658L2.58048 10.8454V10.8418C2.59117 10.3502 2.71229 9.99753 2.89397 9.86572L12.3164 3.91299ZM26.028 10.8026C25.9995 9.5273 25.4687 8.88251 24.9914 8.54764L15.6295 2.63766C14.9989 2.22443 14.2615 2.00356 13.5063 2C12.3271 2 11.4935 2.56998 11.4401 2.61273L2.18149 8.45858L2.00694 8.56902C1.56876 8.88607 1.03441 9.53086 1.00591 10.824L1.0166 23.2709C0.984535 23.5488 0.938224 24.4145 1.52602 25.1234C1.84307 25.5045 2.45936 25.9605 3.59932 25.9855C4.24054 25.9962 7.18663 25.9997 10.5353 25.9997H14.0513C16.5094 25.9997 22.3517 26.0033 23.4382 25.9855C24.5746 25.9641 25.1909 25.5045 25.5079 25.1234C26.0957 24.4145 26.053 23.5488 26.0209 23.2709C26.0173 23.2674 26.028 10.8026 26.028 10.8026Z" fill="#86888C"/>
</svg>
