<svg width="20" height="20" viewBox="0 0 20 20" fill="none" xmlns="http://www.w3.org/2000/svg">
<path fill-rule="evenodd" clip-rule="evenodd" d="M16.4691 13.8664C16.3476 14.01 16.0979 14.0432 15.9123 14.0476C14.719 14.0675 3.47817 14.0454 3.35443 14.0476C3.26604 14.0366 3.18428 13.999 3.1202 13.9393C2.97877 13.8023 2.95005 13.5482 2.95005 13.3604V6.48815L8.33956 9.87565C8.37271 9.89996 8.90967 10.28 9.64993 10.28C10.0212 10.28 10.4454 10.1828 10.883 9.89775L16.5752 6.46826L16.5664 13.3604L16.573 13.4355C16.5708 13.4377 16.6083 13.7051 16.4691 13.8664ZM3.36327 4.94355L16.1929 4.94576C16.204 4.94576 16.4625 4.9546 16.5487 5.38108L10.3747 9.10225C9.61236 9.59944 8.92735 9.13319 8.87652 9.09562L2.96773 5.38108C2.98761 5.25291 3.0296 5.11149 3.10915 5.02752C3.14892 4.98996 3.213 4.94355 3.36327 4.94355ZM17.5165 13.3294L17.5276 5.61752C17.4922 4.26738 16.5619 3.98011 16.1819 4.00221L3.36548 4C2.9854 4 2.65615 4.13258 2.4175 4.38449C1.96672 4.85737 1.99766 5.57553 2.00208 5.62857V13.3582C2.00208 13.8951 2.15455 14.3172 2.45728 14.6111C2.84398 14.9867 3.32791 15 3.36548 14.989C3.67042 14.989 8.5075 15 12.116 15C13.9832 15 15.5212 14.9978 15.93 14.989C16.6327 14.9779 17.0127 14.6951 17.2072 14.463C17.5652 14.0299 17.5386 13.4996 17.5165 13.3294Z" fill="#86888C"/>
</svg>
