<svg width="20" height="20" viewBox="0 0 20 20" fill="none" xmlns="http://www.w3.org/2000/svg">
<path fill-rule="evenodd" clip-rule="evenodd" d="M16.9822 16.29L14.366 15.8597V3.11342L16.9822 3.54376V16.29ZM3.02462 3.54604L5.79792 3.10887V15.8574L3.02462 16.2969V3.54604ZM10.5134 4.08567L13.3437 3.2045V15.9189L10.5134 16.8001V4.08567ZM6.81799 3.2136L9.49338 4.08112V16.7887L6.81799 15.9212V3.2136ZM17.5765 2.60566L13.938 2.00683C13.9266 2.00455 13.9129 2.00911 13.9015 2.00911C13.8856 2.00683 13.8719 2 13.856 2C13.8218 2 13.7922 2.01138 13.7604 2.01822C13.7421 2.02277 13.7216 2.01594 13.7034 2.02277L10.0057 3.17262L6.46506 2.02505C6.44457 2.01822 6.42636 2.02505 6.40586 2.02049C6.37171 2.01366 6.34211 2 6.30568 2C6.28974 2 6.27608 2.00683 6.26242 2.00911C6.25103 2.01138 6.23965 2.00455 6.22599 2.00683L2.43034 2.60566C2.18215 2.64437 2 2.86068 2 3.11114V16.8911C2 17.0414 2.06603 17.1826 2.17988 17.2782C2.29372 17.3761 2.444 17.4171 2.592 17.3943L6.26697 16.8137L9.84631 17.975C9.8964 17.9909 9.95105 18 10.0034 18C10.0535 18 10.1059 17.9909 10.156 17.9772L13.8924 16.8137L17.4103 17.3943C17.5583 17.4171 17.7086 17.3761 17.8247 17.2805C17.9385 17.1826 18.0046 17.0414 18.0046 16.8911V3.10887C18.0046 2.8584 17.8224 2.64665 17.5765 2.60566Z" fill="#86888C"/>
</svg>
