<svg width="40" height="40" viewBox="0 0 40 40" fill="none" xmlns="http://www.w3.org/2000/svg">
<path fill-rule="evenodd" clip-rule="evenodd" d="M22.8877 24.9067C23.318 24.5021 23.5382 23.79 23.5382 22.786C23.5382 21.7871 23.3231 21.0699 22.8825 20.6601C22.4574 20.2555 21.7402 20.0557 20.7464 20.0557C19.7526 20.0557 19.0355 20.2555 18.6154 20.655C18.18 21.0648 17.9649 21.782 17.9649 22.786C17.9649 23.79 18.1851 24.5021 18.6154 24.9119C19.1379 25.4036 20.06 25.5061 20.7464 25.5061C21.4328 25.5061 22.36 25.4036 22.8877 24.9067ZM20.7464 17.7044C22.3856 17.7044 23.6663 18.1296 24.5576 18.9646C25.4797 19.8303 25.9509 21.1212 25.9509 22.786C25.9509 24.456 25.4797 25.7417 24.5576 26.6074C23.6714 27.4373 22.3908 27.8625 20.7515 27.8625C19.1072 27.8625 17.8317 27.4373 16.9455 26.6074C16.0234 25.7417 15.5573 24.456 15.5573 22.786C15.5573 21.1212 16.0234 19.8303 16.9455 18.9646C17.8266 18.1245 19.1021 17.7044 20.7464 17.7044ZM13.9385 35.6436H27.5697C27.5594 34.9572 27.4006 34.0403 26.7501 33.3795C25.9919 32.6059 24.7881 32.4471 23.9122 32.4471H17.5807C16.7099 32.4471 15.506 32.6059 14.7582 33.3743C14.1076 34.0351 13.9488 34.9572 13.9385 35.6436ZM23.9122 30.0908C25.8382 30.0908 27.4211 30.6594 28.4866 31.7454C29.465 32.7391 29.9824 34.1171 29.9824 35.7358V37.4263C29.9824 37.7439 29.716 38 29.3933 38H12.12C11.7922 38 11.5309 37.7439 11.5309 37.4263V35.7358C11.5309 34.1171 12.0432 32.734 13.0216 31.7454C14.082 30.6594 15.6597 30.0908 17.5858 30.0908H23.9122ZM33.1942 7.04438C33.6348 7.53103 33.5938 8.2738 33.0969 8.71434C32.8664 8.91412 32.5795 9.01144 32.2927 9.01144C31.9597 9.01144 31.6319 8.87826 31.3962 8.61701C27.2367 4.06305 20.7823 4.34992 20.7157 4.36529C13.79 4.44212 10.1325 8.29941 10.1018 8.33527C9.65097 8.81679 8.8877 8.84752 8.39594 8.41723C7.90417 7.98181 7.86319 7.23392 8.31398 6.7524C8.48814 6.56286 12.7245 2.09599 20.6389 2.00891C20.8796 1.99866 28.2407 1.62472 33.1942 7.04438ZM20.644 7.18781C20.8591 7.17757 26.7142 6.97779 30.4588 11.0707C30.8993 11.5574 30.8584 12.3001 30.3615 12.7355C29.8595 13.171 29.1013 13.13 28.6557 12.6433C25.6948 9.39564 20.7567 9.54419 20.7054 9.54419C15.798 9.59542 12.8628 12.6741 12.8372 12.7048C12.5964 12.9609 12.2686 13.089 11.9407 13.089C11.6488 13.089 11.3619 12.9866 11.1314 12.7868C10.6396 12.3514 10.5986 11.6086 11.0443 11.1271C11.1929 10.9683 14.6813 7.24929 20.644 7.18781ZM27.1291 16.7414C26.6271 17.1768 25.869 17.1358 25.4233 16.6492C23.7021 14.7692 20.7772 14.8358 20.7413 14.8358C17.8317 14.8717 16.1464 16.6236 16.0747 16.6953C15.839 16.9463 15.5112 17.0744 15.1833 17.0744C14.8965 17.0744 14.6045 16.9719 14.374 16.7721C13.8873 16.3316 13.8463 15.5939 14.292 15.1124C14.3893 15.0048 16.7201 12.5204 20.6798 12.4794C20.8028 12.4845 24.7164 12.336 27.2213 15.0766C27.6619 15.5632 27.626 16.3111 27.1291 16.7414Z" fill="#86888C"/>
</svg>
