<svg width="40" height="40" viewBox="0 0 40 40" fill="none" xmlns="http://www.w3.org/2000/svg">
<path d="M25.9872 38H14.0128C11.9915 38 10.5177 37.5135 9.50959 36.5149C8.49126 35.5061 8 34.0211 8 31.9829V8.01707C8 6.03016 8.49126 4.5707 9.50448 3.54139C10.5279 2.50697 12.0017 2 14.0128 2H25.9872C28.0136 2 29.4874 2.49161 30.5006 3.51067C31.5139 4.52973 32 5.99943 32 8.01707V31.9829C32 34.0211 31.5036 35.5061 30.4904 36.5149C29.4772 37.5135 28.0085 38 25.9872 38ZM14.0128 4.04836C11.1983 4.04836 10.0469 5.20057 10.0469 8.01707V31.9829C10.0469 34.8762 11.1215 35.9516 14.0128 35.9516H25.9872C28.8785 35.9516 29.9531 34.8762 29.9531 31.9829V8.01707C29.9531 6.56785 29.6563 5.56415 29.0525 4.95477C28.4486 4.34538 27.4405 4.04836 25.9872 4.04836H14.0128Z" fill="#86888C"/>
<path d="M20 30.165C19.0789 30.165 18.4802 30.6515 18.4802 31.691C18.4802 32.1929 18.6183 32.5616 18.864 32.8125C19.1301 33.0839 19.519 33.2171 20 33.2171C20.481 33.2171 20.8699 33.0839 21.136 32.8125C21.3817 32.5616 21.5198 32.1878 21.5198 31.691C21.5147 30.6515 20.9211 30.165 20 30.165Z" fill="#86888C"/>
<path d="M20 33.7343C19.3757 33.7343 18.8537 33.5397 18.5006 33.1761C18.1475 32.8125 17.9736 32.3158 17.9736 31.6962C17.9736 30.421 18.7309 29.658 20.0051 29.658C21.2793 29.658 22.0316 30.421 22.0316 31.6962C22.0316 32.3209 21.8525 32.8176 21.5045 33.1761C21.1565 33.5346 20.6243 33.7343 20 33.7343ZM20 30.6822C19.3041 30.6822 18.9919 30.9946 18.9919 31.6962C18.9919 32.0444 19.0738 32.3004 19.2273 32.4592C19.3808 32.6179 19.6469 32.7101 19.9949 32.7101C20.3429 32.7101 20.6038 32.6282 20.7625 32.4592C20.9211 32.2902 20.9979 32.0393 20.9979 31.6962C21.003 30.9946 20.6959 30.6771 20 30.6822Z" fill="#86888C"/>
</svg>
