<svg width="24" height="24" viewBox="0 0 24 24" fill="none" xmlns="http://www.w3.org/2000/svg">
<path d="M12.7734 22.3979C10.9648 22.3979 9.55499 21.9279 8.58376 21.0051C7.5698 20.0424 7.05713 18.6098 7.05713 16.7499V12.3637C7.05713 10.5038 7.5698 9.07119 8.58376 8.1085C9.55784 7.18284 10.9677 6.71289 12.7734 6.71289C14.582 6.71289 15.9919 7.18284 16.9631 8.10566C17.9771 9.06835 18.4898 10.501 18.4898 12.3609V16.7442C18.4898 18.6724 18.0426 20.0624 17.1198 20.988C16.1827 21.9365 14.7615 22.3979 12.7734 22.3979ZM12.7734 7.82938C9.67462 7.82938 8.17077 9.31329 8.17077 12.3666V16.7499C8.17077 19.8003 9.67746 21.2842 12.7734 21.2842C14.4482 21.2842 15.6131 20.9311 16.3308 20.2076C17.0343 19.4984 17.3761 18.3677 17.3761 16.7471V12.3637C17.379 9.31044 15.8723 7.82938 12.7734 7.82938Z" fill="#86888C"/>
<path d="M12.773 12.6861C12.4654 12.6861 12.2148 12.4355 12.2148 12.1279V9.20277C12.2148 8.89516 12.4654 8.64452 12.773 8.64452C13.0806 8.64452 13.3312 8.89516 13.3312 9.20277V12.1279C13.3312 12.4355 13.0806 12.6861 12.773 12.6861ZM12.8043 7.67329C12.4967 7.67329 12.2461 7.42265 12.2461 7.11504V6.36027C12.2461 6.34034 12.2347 6.04697 12.0866 5.77354C11.91 5.446 11.6166 5.29505 11.1609 5.29505H9.20991C8.29849 5.29505 7.51809 5.09283 6.95414 4.71117C6.33893 4.29249 6 3.66873 6 2.95668C6 2.64908 6.25064 2.39844 6.55825 2.39844C6.86585 2.39844 7.11649 2.64908 7.11649 2.95668C7.11649 3.85956 8.1988 4.18141 9.21276 4.18141H11.1638C12.0467 4.18141 12.7331 4.5773 13.0948 5.29505C13.354 5.80487 13.3597 6.30046 13.3597 6.35742V7.11504C13.3597 7.42265 13.1119 7.67329 12.8043 7.67329ZM12.8271 14.3039H12.7189C10.9929 14.3039 9.24979 14.1843 7.53802 13.9507C7.23327 13.908 7.01965 13.6289 7.06238 13.3241C7.1051 13.0193 7.38422 12.8057 7.68898 12.8485C9.34947 13.0763 11.0441 13.1902 12.7217 13.1902H12.8243C14.5047 13.1902 16.1965 13.0763 17.857 12.8485C18.1618 12.8057 18.4437 13.0193 18.4836 13.3241C18.5235 13.6289 18.3127 13.9108 18.008 13.9507C16.2991 14.1843 14.5531 14.3039 12.8271 14.3039Z" fill="#86888C"/>
</svg>
