<svg width="40" height="40" viewBox="0 0 40 40" fill="none" xmlns="http://www.w3.org/2000/svg">
<path fill-rule="evenodd" clip-rule="evenodd" d="M29.21 30.4764H31.3515V16.1164H29.21V30.4764ZM4.3425 35.8506H35.6702V32.7306H4.3425V35.8506ZM8.71762 30.4764H10.8591V16.1164H8.71762V30.4764ZM18.9587 30.4764H21.1001V16.1164H18.9587V30.4764ZM13.1081 30.4764H16.7199V16.1164H13.1081V30.4764ZM23.3492 30.4764H26.961V16.1164H23.3492V30.4764ZM20.0038 4.59968L33.2982 13.8622H32.4888C32.4837 13.8622 32.4785 13.8571 32.4734 13.8571C32.4683 13.8571 32.4632 13.8622 32.4581 13.8622H28.0983C28.0932 13.8622 28.0881 13.8571 28.0829 13.8571C28.0778 13.8571 28.0727 13.8622 28.0676 13.8622H22.2426C22.2375 13.8622 22.2324 13.8571 22.2272 13.8571C22.2221 13.8571 22.217 13.8622 22.2119 13.8622H17.8521C17.847 13.8622 17.8419 13.8571 17.8367 13.8571C17.8316 13.8571 17.8265 13.8622 17.8214 13.8622H11.9964C11.9913 13.8622 11.9862 13.8571 11.981 13.8571C11.9759 13.8571 11.9708 13.8622 11.9657 13.8622H7.60591C7.60079 13.8622 7.59567 13.8571 7.59054 13.8571C7.58542 13.8571 7.58542 13.8622 7.57517 13.8622H6.70937L20.0038 4.59968ZM36.8844 16.1164C37.3762 16.1164 37.8117 15.7988 37.9551 15.3274C38.0986 14.8561 37.9244 14.3489 37.5248 14.062L20.6442 2.29941C20.26 2.03301 19.7528 2.03301 19.3634 2.29941L2.48282 14.062C2.07809 14.3438 1.90391 14.8561 2.05248 15.3223C2.20105 15.7936 2.63139 16.1113 3.1232 16.1113H6.46859V30.4713H3.21542C2.59552 30.4713 2.09346 30.9785 2.09346 31.5984V36.9725C2.09346 37.5924 2.59552 38.0996 3.21542 38.0996H36.7871C37.407 38.0996 37.909 37.5924 37.909 36.9725V31.5984C37.909 30.9785 37.407 30.4713 36.7871 30.4713H33.5954V16.1113H36.8844V16.1164Z" fill="#86888C"/>
</svg>
