<svg width="28" height="28" viewBox="0 0 28 28" fill="none" xmlns="http://www.w3.org/2000/svg">
<path fill-rule="evenodd" clip-rule="evenodd" d="M19.8604 25.4499L19.5702 25.4533C18.6108 25.4396 17.006 25.0743 17.006 22.7661C17.006 20.4682 18.5903 20.1097 19.5361 20.0994L19.8468 20.1029C20.8131 20.1268 22.4349 20.5058 22.4349 22.7832C22.4315 25.064 20.8233 25.4328 19.8604 25.4499ZM11.5497 6.42808V4.63892L22.4315 7.54802V9.33717L11.5497 6.42808ZM7.4251 20.3931C7.33632 20.3965 7.23389 20.3965 7.13145 20.3931C6.172 20.3794 4.56722 20.0107 4.56722 17.7059C4.56722 15.4046 6.15834 15.0461 7.10414 15.0393L7.40802 15.0427C8.35723 15.0632 9.9347 15.4422 9.98592 17.6274V17.8254C9.9347 20.0073 8.37089 20.3726 7.4251 20.3931ZM23.9987 7.33632C23.9987 6.66709 23.4763 6.11396 22.8139 6.04908L11.5019 3.02732L11.2971 3C10.5732 3 9.98592 3.58045 9.98592 4.29407V14.3291C9.22791 13.7793 8.30943 13.5198 7.44217 13.4994C7.33291 13.4959 7.19974 13.4959 7.08707 13.4959C5.2023 13.5096 3 14.6227 3 17.7059C3 20.7857 5.21255 21.9091 7.10414 21.9364H7.45241C9.26889 21.9023 11.3517 20.8506 11.5258 18.0815H11.5497V17.8254C11.5497 17.7913 11.56 17.7606 11.56 17.7264C11.56 17.6923 11.5497 17.665 11.5497 17.6308V8.02945L22.4315 10.9385V19.3961C21.6701 18.8429 20.7482 18.58 19.8809 18.5595L19.5258 18.5561C17.6411 18.5698 15.4388 19.6829 15.4388 22.7661C15.4388 25.8459 17.6513 26.9727 19.5497 27H19.6453L19.8912 26.9966C21.7862 26.9624 23.9953 25.8391 23.9953 22.7866C23.9953 22.7251 23.9816 22.6773 23.9782 22.6193H23.9953V7.33632H23.9987Z" fill="#86888C"/>
</svg>
