<svg width="24" height="24" viewBox="0 0 24 24" fill="none" xmlns="http://www.w3.org/2000/svg">
<path d="M15.6844 19C15.5986 19 15.5099 18.9861 15.424 18.9612L2.69817 15.1293C2.3075 15.0102 2.0332 14.6306 2.0332 14.2067V10.7932C2.0332 10.3637 2.29919 9.99522 2.6954 9.87054H2.69817L15.424 6.03866C15.6955 5.95554 15.9865 6.00818 16.2164 6.17996C16.4602 6.36006 16.6043 6.65098 16.6043 6.9613V18.0413C16.6043 18.3489 16.4602 18.6426 16.2192 18.8199C16.0585 18.939 15.8729 19 15.6844 19ZM3.09161 14.143L15.5459 17.8945V7.10815L3.09161 10.8569V14.143Z" fill="#86888C"/>
<path d="M2.5292 15.642C2.23551 15.642 2 15.4037 2 15.1128V9.88727C2 9.59358 2.23828 9.35807 2.5292 9.35807C2.82013 9.35807 3.05841 9.59635 3.05841 9.88727V15.1128C3.05841 15.4065 2.8229 15.642 2.5292 15.642ZM20.9377 12.8104H18.7766C18.4774 12.8104 18.2363 12.5693 18.2363 12.2701C18.2363 11.9708 18.4774 11.7298 18.7766 11.7298H20.9377C21.237 11.7298 21.478 11.9708 21.478 12.2701C21.478 12.5693 21.237 12.8104 20.9377 12.8104ZM9.05698 18.5319C8.97663 18.5319 8.89351 18.5208 8.81316 18.4931L6.56889 17.7893C6.1422 17.6563 5.90392 17.1992 6.03691 16.7725L6.26965 16.0327C6.40265 15.606 6.85981 15.3677 7.2865 15.5007L9.53077 16.2045C9.73857 16.2682 9.90758 16.4095 10.0073 16.6035C10.1071 16.7946 10.1265 17.0163 10.0627 17.2213L9.83 17.9611C9.76628 18.1689 9.62497 18.3379 9.43102 18.4377C9.31465 18.5014 9.1872 18.5319 9.05698 18.5319ZM7.15073 16.8417L8.87965 17.3848L8.94892 17.1631L7.22 16.6201L7.15073 16.8417ZM20.2312 18.3407C20.0927 18.3407 19.9541 18.288 19.8489 18.1828L18.3582 16.6921C18.1477 16.4815 18.1477 16.138 18.3582 15.9274C18.5688 15.7168 18.9124 15.7168 19.1229 15.9274L20.6136 17.418C20.8241 17.6286 20.8241 17.9722 20.6136 18.1828C20.5083 18.288 20.3698 18.3407 20.2312 18.3407ZM18.7101 8.74574C18.5716 8.74574 18.433 8.6931 18.3277 8.58781C18.1172 8.37724 18.1172 8.03367 18.3277 7.8231L19.8572 6.29367C20.0677 6.0831 20.4113 6.0831 20.6219 6.29367C20.8325 6.50425 20.8325 6.84781 20.6219 7.05839L19.0925 8.58781C18.9872 8.6931 18.8486 8.74574 18.7101 8.74574Z" fill="#86888C"/>
</svg>
