<svg width="40" height="40" viewBox="0 0 40 40" fill="none" xmlns="http://www.w3.org/2000/svg">
<path fill-rule="evenodd" clip-rule="evenodd" d="M18.8628 5.35857C15.0467 5.47639 4.26409 7.06944 4.26409 21.0535C4.26409 35.4781 15.7843 36.7945 19.3187 36.8509C19.8105 36.8509 20.3586 36.8509 20.8196 36.8355C22.8122 36.7997 28.7797 36.3079 32.56 31.8156C30.8389 32.292 29.292 32.4149 28.3136 32.4354C27.955 32.4508 27.4838 32.4508 27.0484 32.4508C20.2203 32.3432 12.9465 28.4246 12.9465 17.7342C12.9414 10.9368 15.7792 7.29995 18.8628 5.35857ZM19.2931 39.0996C10.9232 38.9562 2 34.1463 2 21.0535C2 7.9761 10.8668 3.20718 19.1651 3.09961L20.7735 3.11498C21.383 3.12522 22.5817 3.18669 24.0569 3.45818C24.5896 3.5555 24.9738 4.01139 24.9841 4.54924C24.9892 5.08709 24.6204 5.55322 24.0928 5.66592C20.0359 6.5316 15.2003 9.32841 15.2003 17.7393C15.2003 29.1366 24.2823 30.1611 27.0586 30.2072C27.4479 30.2072 27.8833 30.2072 28.2419 30.1969C29.6403 30.1662 32.3244 29.8998 34.8139 28.4861C35.239 28.2402 35.7769 28.3068 36.1355 28.6346C36.4991 28.9624 36.6016 29.49 36.3967 29.9357C32.5447 38.2595 23.5344 39.0484 20.8657 39.0945C20.4047 39.0996 19.831 39.0996 19.2931 39.0996Z" fill="#86888C"/>
</svg>
