<svg width="28" height="28" viewBox="0 0 28 28" fill="none" xmlns="http://www.w3.org/2000/svg">
<path fill-rule="evenodd" clip-rule="evenodd" d="M22.5521 24.3199V10.3734H19.7689C18.5498 10.3734 17.5083 9.9704 16.7262 9.20546C15.9545 8.44735 15.5378 7.39556 15.5378 6.18668V3.47524H7.68014C7.59476 3.47524 7.45817 3.61184 7.44792 3.68014V24.3199C7.44792 24.3882 7.56403 24.5282 7.68014 24.5282H22.3096C22.436 24.5248 22.5521 24.4086 22.5521 24.3199ZM21.9545 8.89812L16.9892 4.0148V6.18668C16.9892 6.98236 17.2487 7.67217 17.7439 8.15367C18.2356 8.63517 18.9425 8.90154 19.7723 8.90154H21.9545V8.89812ZM23.6824 8.55663C23.8839 8.75128 24 9.02789 24 9.31133V24.3199C24 25.2351 23.2282 26 22.3096 26H7.68014C6.78201 26 6 25.2112 6 24.3199V3.68014C6 2.80592 6.8025 2 7.68014 2H16.5896C16.8697 2 17.1292 2.10586 17.3238 2.30393L23.6824 8.55663ZM19.7006 15.7792C19.9226 15.5538 20.0387 15.2977 20.0387 15.004C20.0387 14.7103 19.9124 14.3961 19.7006 14.1878C19.4991 13.9829 19.226 13.8532 18.9459 13.8429C18.724 13.8224 18.4132 13.8839 18.1229 14.1776C17.8122 14.4917 13.1098 18.7194 12.6352 19.1394L11.8429 21.5367L14.2675 20.6932C17.4878 17.794 19.5196 15.9567 19.7006 15.7792ZM20.7251 13.136C21.2066 13.6278 21.49 14.3244 21.49 15.004C21.49 15.7006 21.2203 16.3324 20.7149 16.831C20.4553 17.0871 17.5936 19.6722 15.2373 21.7928L15.152 21.8714C15.0154 21.9909 14.8719 22.0763 14.708 22.1275L11.9522 23.0598C11.819 23.1007 11.6824 23.1178 11.5561 23.1178C11.5185 23.1178 11.4775 23.1178 11.4502 23.1076C11.4297 23.1178 11.4126 23.1178 11.3921 23.1178H9.60615C9.21002 23.1178 8.88219 22.7832 8.88219 22.3802C8.88219 21.9772 9.21002 21.6426 9.60615 21.6426H10.313C10.3233 21.5743 10.3335 21.4957 10.3608 21.4274L10.7092 20.3552H9.60615C9.21002 20.3552 8.88219 20.0205 8.88219 19.6175C8.88219 19.2043 9.21002 18.8799 9.60615 18.8799H11.1907L11.276 18.6238C11.3546 18.4087 11.4775 18.2106 11.6448 18.0637L12.1673 17.5925H9.60615C9.21002 17.5925 8.88219 17.2578 8.88219 16.8549C8.88219 16.4417 9.21002 16.1172 9.60615 16.1172H13.8099C14.3324 15.6562 14.8139 15.2123 15.2578 14.8196H9.60615C9.21002 14.8196 8.88219 14.4952 8.88219 14.082C8.88219 13.679 9.21002 13.3443 9.60615 13.3443H16.8799C16.996 13.2248 17.0746 13.1565 17.1019 13.1292C18.2425 11.9852 19.8372 12.2311 20.7251 13.136Z" fill="#86888C"/>
</svg>
