<svg width="21" height="20" viewBox="0 0 21 20" fill="none" xmlns="http://www.w3.org/2000/svg">
<path fill-rule="evenodd" clip-rule="evenodd" d="M11.7379 16.5632C11.4847 16.8369 11.1083 16.9715 10.5883 16.9715C10.066 16.9715 9.68965 16.8392 9.43648 16.5632C9.1719 16.2758 9.08979 15.8789 9.06698 15.5938H12.1119C12.0868 15.8835 12.0047 16.2758 11.7379 16.5632ZM6.53771 3.35699C8.09732 1.90067 10.3057 1.99077 10.5771 2.00673C10.8485 1.99077 13.0381 1.92234 14.6119 3.35471C15.6565 4.30354 16.188 5.68345 16.188 7.45567V10.6101C16.1857 10.6602 16.026 13.5889 17.7959 15.0007C17.9077 15.0896 17.9488 15.2402 17.9009 15.3725C17.853 15.5048 17.723 15.5937 17.5793 15.5937L12.9971 15.5914C12.9925 16.0065 12.9035 16.7433 12.3904 17.3021C11.9661 17.7651 11.3548 18 10.5725 18C9.78791 18 9.17664 17.7651 8.75241 17.2998C8.23922 16.7387 8.15483 15.9997 8.15255 15.5914H3.57033C3.42892 15.5914 3.29891 15.5048 3.24873 15.3702C3.19856 15.2356 3.24189 15.0851 3.35365 14.9984C5.12359 13.5866 4.96393 10.658 4.96165 10.6283V7.45338C4.96165 5.66748 5.50449 4.32179 6.53771 3.35699ZM13.9685 4.06941C12.6274 2.84459 10.6385 2.96092 10.618 2.96092C10.5951 2.9632 10.5723 2.9632 10.5495 2.96092C10.529 2.96092 8.54011 2.84459 7.19897 4.06941C6.96405 4.28381 6.76561 4.53014 6.59683 4.80384C6.31221 5.26539 6.31256 5.27597 6.15891 5.79601C6.01066 6.29779 5.93311 6.85888 5.93311 7.48155V10.5744C5.93995 10.661 6.06768 12.9373 4.87023 14.6388H16.2995C15.0998 12.9373 15.2275 10.6565 15.2367 10.5424L15.2344 7.48155C15.2344 5.98531 14.8079 4.83805 13.9685 4.06941Z" fill="#86888C"/>
</svg>
