<svg width="28" height="28" viewBox="0 0 28 28" fill="none" xmlns="http://www.w3.org/2000/svg">
<path fill-rule="evenodd" clip-rule="evenodd" d="M24.0495 8.10877L22.2945 8.08145L23.3325 7.04349L24.8246 7.06056L24.0495 8.10877ZM16.3638 16.6139C16.3638 18.9323 15.7492 20.4892 12.7548 20.5439L12.2768 20.5507L12.0515 20.5473C9.0639 20.5029 8.45273 18.922 8.45273 16.5593C8.45273 14.2239 9.04683 12.6601 11.9456 12.6328C12.0207 12.6328 12.4885 12.6362 12.666 12.6396C13.7382 12.6635 14.5064 12.8752 15.0629 13.2371L12.509 15.7877L12.4612 15.2414C12.427 14.8385 12.089 14.5448 11.6656 14.5756C11.2627 14.6097 10.9657 14.9648 10.9998 15.3677L11.1842 17.4812C11.191 17.5529 11.2081 17.6212 11.2354 17.686L11.2457 17.7065C11.2764 17.7782 11.3174 17.8397 11.3686 17.8977C11.3857 17.9182 11.4027 17.9353 11.4232 17.9489C11.471 17.9933 11.5222 18.0275 11.5803 18.0582C11.6008 18.0684 11.6178 18.0821 11.6383 18.0889C11.6486 18.0923 11.6554 18.0992 11.6656 18.1026C11.7271 18.1265 11.792 18.1299 11.8568 18.1367C11.8739 18.1367 11.8876 18.147 11.9046 18.147L14.2708 18.188H14.2845C14.6839 18.188 15.0117 17.867 15.0185 17.4675C15.0254 17.0646 14.7044 16.73 14.2981 16.7232L13.6562 16.7129L16.0087 14.3605C16.275 14.9819 16.3638 15.7433 16.3638 16.6139ZM20.3518 16.6139C20.3518 23.6339 15.08 24.4874 12.8129 24.5318C12.6524 24.5352 12.468 24.5352 12.2836 24.5352L12.0002 24.5318C9.73653 24.5011 4.46817 23.6578 4.46817 16.5559C4.46817 9.4711 9.68531 8.65848 11.9285 8.64141H12.1061C12.3314 8.64141 12.5636 8.64482 12.7685 8.65165C14.0284 8.68238 16.2033 8.9726 17.9037 10.3964L16.1111 12.1889C15.3566 11.6119 14.2708 11.209 12.7036 11.1749C12.509 11.168 11.949 11.1646 11.949 11.1646C6.99138 11.209 6.99138 15.2345 6.99138 16.5559C6.99138 17.8875 6.99138 21.9369 12.0344 22.0086L12.2666 22.012L12.7719 22.0052C17.832 21.9164 17.832 17.925 17.832 16.6105C17.832 15.9208 17.8251 14.5004 17.0911 13.2815L18.9041 11.4685C19.7611 12.643 20.3518 14.2853 20.3518 16.6139ZM21.0722 5.19291L22.1375 4.30176V6.16258L21.1473 7.15275L21.0722 5.19291ZM26.921 6.01235C26.7981 5.76652 26.5488 5.60946 26.2723 5.60604L24.6709 5.58897C24.7563 5.33289 24.7051 5.03926 24.5002 4.8344C24.2544 4.59198 23.8856 4.56808 23.6056 4.74221V2.73457C23.6056 2.45118 23.4418 2.19169 23.1823 2.06877C22.9296 1.94927 22.6223 1.98682 22.4038 2.1712L19.8601 4.29493C19.686 4.43833 19.5869 4.65685 19.5972 4.88561L19.7406 8.55946L18.9348 9.36525C16.7223 7.47711 13.8713 7.21079 12.8026 7.18689C12.5909 7.18006 12.3451 7.17665 12.1061 7.17665H11.9115C10.0233 7.19372 3 7.84245 3 16.5559C3 25.2864 10.0882 25.9693 11.9798 25.9966C12.0788 26 12.1812 26 12.2836 26C12.4783 26 12.6729 25.9966 12.8402 25.9932C14.6361 25.9624 21.8199 25.2864 21.8199 16.6139C21.8199 13.7834 21.0449 11.8133 19.9489 10.4237L20.8537 9.5189L24.4046 9.57694H24.4149C24.647 9.57694 24.8655 9.46768 25.0055 9.27989L26.8527 6.77375C27.0166 6.55182 27.0405 6.25819 26.921 6.01235Z" fill="#86888C"/>
</svg>
