<svg width="40" height="40" viewBox="0 0 40 40" fill="none" xmlns="http://www.w3.org/2000/svg">
<path d="M15.8982 38.0009C12.6342 38.0009 10.0927 37.142 8.33945 35.4544C6.51545 33.6961 5.59082 31.0839 5.59082 27.6936V19.6902C5.59082 16.2999 6.51545 13.6877 8.33945 11.9293C10.0927 10.2367 12.6392 9.38281 15.8982 9.38281C19.1571 9.38281 21.7037 10.2418 23.4569 11.9293C25.2809 13.6826 26.2056 16.2948 26.2056 19.6902V23.1159C26.2056 23.6717 25.7508 24.1264 25.195 24.1264C24.6392 24.1264 24.1845 23.6717 24.1845 23.1159V19.6902C24.1845 16.8658 23.467 14.7487 22.0574 13.3845C20.6931 12.0708 18.6216 11.4039 15.8982 11.4039C13.1748 11.4039 11.1032 12.0708 9.73903 13.3845C8.32935 14.7487 7.61187 16.8658 7.61187 19.6902V27.6936C7.61187 30.518 8.32935 32.635 9.73903 33.9992C11.1032 35.3129 13.1748 35.9799 15.8982 35.9799C17.9799 35.9799 19.6927 35.5858 20.9862 34.8127C21.4662 34.5298 22.0877 34.6965 22.3656 35.1765C22.6435 35.6514 22.4868 36.2578 22.022 36.5458C20.4102 37.5159 18.3487 38.0009 15.8982 38.0009Z" fill="#86888C"/>
<path d="M15.8985 19.8358C15.3427 19.8358 14.888 19.3811 14.888 18.8253V14.3436C14.888 13.7878 15.3427 13.3331 15.8985 13.3331C16.4543 13.3331 16.9091 13.7878 16.9091 14.3436V18.8253C16.9091 19.3811 16.4543 19.8358 15.8985 19.8358ZM15.8682 11.1099C15.3124 11.1099 14.8577 10.6552 14.8577 10.0994V8.71495C14.8577 8.03284 14.8577 6.76968 11.9272 6.76968H9.93642C8.19832 6.76968 7.06653 6.512 6.27326 5.94105C5.41937 5.31958 5 4.36463 5 3.01053C5 2.45474 5.45474 2 6.01053 2C6.56632 2 7.02105 2.45474 7.02105 3.01053C7.02105 3.98568 7.02105 4.75368 9.93137 4.75368H11.9221C13.5895 4.75368 14.8072 5.10232 15.6509 5.81474C16.4594 6.49684 16.8737 7.47705 16.8737 8.72V10.1044C16.8737 10.6602 16.424 11.1099 15.8682 11.1099ZM15.8985 23.2211C12.7406 23.2261 9.58779 23.0088 6.46021 22.5743C5.90947 22.4985 5.52042 21.9832 5.60126 21.4324C5.67705 20.8817 6.19242 20.4926 6.74316 20.5735C9.77979 20.9928 12.8366 21.2051 15.8985 21.2C18.9604 21.2051 22.0223 20.9979 25.0589 20.5735C25.6097 20.4977 26.1251 20.8817 26.2008 21.4324C26.2766 21.9832 25.8926 22.4985 25.3419 22.5743C22.2093 23.0139 19.0564 23.2261 15.8985 23.2211Z" fill="#86888C"/>
<path d="M25.2464 37.7466C24.5087 37.7466 24.1297 37.0595 23.8266 36.5087C23.771 36.4077 23.6902 36.2612 23.6194 36.15C23.4982 36.2157 23.3466 36.3066 23.2405 36.3673C22.7099 36.6856 22.0531 37.0847 21.4215 36.721C20.7899 36.3572 20.8051 35.5791 20.8203 34.9525C20.8203 34.8313 20.8253 34.6595 20.8203 34.5231C20.6838 34.518 20.512 34.5231 20.3908 34.5231C19.7643 34.5382 18.9912 34.5534 18.6224 33.9218C18.2535 33.2902 18.6577 32.6334 18.976 32.1028C19.0417 31.9967 19.1327 31.8452 19.1933 31.7239C19.0822 31.6532 18.9356 31.5723 18.8346 31.5167C18.2838 31.2136 17.5967 30.8346 17.5967 30.097C17.5967 29.3593 18.2838 28.9803 18.8346 28.6772C18.9356 28.6216 19.0822 28.5407 19.1933 28.47C19.1276 28.3487 19.0367 28.1972 18.976 28.0911C18.6577 27.5605 18.2586 26.9037 18.6224 26.2721C18.9862 25.6405 19.7643 25.6557 20.3908 25.6708C20.512 25.6708 20.6838 25.6759 20.8203 25.6708C20.8253 25.5344 20.8203 25.3626 20.8203 25.2414C20.8051 24.6199 20.7899 23.8418 21.4215 23.473C22.0531 23.1041 22.7099 23.5083 23.2405 23.8266C23.3466 23.8923 23.4982 23.9833 23.6194 24.0439C23.6902 23.9327 23.771 23.7862 23.8266 23.6852C24.1297 23.1344 24.5087 22.4473 25.2464 22.4473C25.984 22.4473 26.363 23.1344 26.6662 23.6852C26.7217 23.7862 26.8026 23.9327 26.8733 24.0439C26.9946 23.9782 27.1462 23.8873 27.2523 23.8266C27.7828 23.5083 28.4396 23.1092 29.0712 23.473C29.7028 23.8367 29.6876 24.6148 29.6725 25.2414C29.6725 25.3626 29.6674 25.5344 29.6725 25.6708C29.8089 25.6759 29.9807 25.6708 30.1019 25.6708C30.7234 25.6557 31.5015 25.6405 31.8704 26.2721C32.2392 26.9037 31.835 27.5605 31.5167 28.0911C31.451 28.1972 31.36 28.3487 31.2994 28.47C31.4106 28.5407 31.5571 28.6216 31.6582 28.6772C32.2089 28.9803 32.8961 29.3593 32.8961 30.097C32.8961 30.8346 32.2089 31.2136 31.6582 31.5167C31.5571 31.5723 31.4106 31.6532 31.2994 31.7239C31.3651 31.8452 31.456 31.9967 31.5167 32.1028C31.835 32.6334 32.2342 33.2902 31.8704 33.9218C31.5066 34.5534 30.7285 34.5382 30.1019 34.5231C29.9807 34.5231 29.8089 34.518 29.6725 34.5231C29.6674 34.6595 29.6725 34.8313 29.6725 34.9525C29.6876 35.574 29.7028 36.3521 29.0712 36.721C28.4396 37.0898 27.7828 36.6856 27.2523 36.3673C27.1462 36.3016 26.9946 36.2106 26.8733 36.15C26.8026 36.2612 26.7217 36.4077 26.6662 36.5087C26.363 37.0595 25.984 37.7466 25.2464 37.7466ZM29.824 28.8793C29.7028 28.4195 30.6982 27.4948 30.4607 27.0957C30.2232 26.6965 28.9247 27.0906 28.5963 26.7572C28.2678 26.4237 28.667 25.1252 28.2577 24.8927C27.8485 24.6603 26.9339 25.6557 26.4742 25.5294C26.0295 25.4081 25.7264 24.0843 25.2464 24.0843C24.7664 24.0843 24.4632 25.4081 24.0186 25.5294C23.5588 25.6506 22.6342 24.6553 22.235 24.8927C21.8358 25.1302 22.2299 26.4287 21.8965 26.7572C21.563 27.0856 20.2645 26.6864 20.032 27.0957C19.7996 27.505 20.795 28.4245 20.6687 28.8793C20.5474 29.3239 19.2236 29.6271 19.2236 30.1071C19.2236 30.5871 20.5474 30.8902 20.6687 31.3348C20.7899 31.7946 19.7946 32.7193 20.032 33.1184C20.2695 33.5176 21.568 33.1235 21.8965 33.457C22.2249 33.7904 21.8257 35.089 22.235 35.3214C22.6443 35.5538 23.5588 34.5584 24.0186 34.6847C24.4632 34.801 24.7664 36.1298 25.2464 36.1298C25.7264 36.1298 26.0295 34.806 26.4742 34.6847C26.9339 34.5635 27.8586 35.5588 28.2577 35.3214C28.6569 35.0839 28.2628 33.7854 28.5963 33.457C28.9297 33.1285 30.2283 33.5226 30.4607 33.1184C30.6931 32.7142 29.6977 31.7946 29.824 31.3348C29.9403 30.8902 31.2691 30.5871 31.2691 30.1071C31.2691 29.6271 29.9403 29.3239 29.824 28.8793Z" fill="#86888C"/>
<path d="M23.1545 33.2859C22.8766 33.2859 22.6492 33.0585 22.6492 32.7806C22.6492 32.6695 22.6846 32.5583 22.7553 32.4674L26.9389 27.1217C27.1107 26.9044 27.429 26.864 27.6463 27.0358C27.8635 27.2076 27.904 27.5259 27.7322 27.7432L23.5486 33.0888C23.4576 33.2152 23.3111 33.2859 23.1545 33.2859ZM23.5233 29.451C22.7099 29.451 22.2046 28.9457 22.2046 28.1322C22.2046 27.3187 22.7099 26.8135 23.5233 26.8135C24.3368 26.8135 24.8421 27.3187 24.8421 28.1322C24.8421 28.9457 24.3368 29.451 23.5233 29.451ZM23.5233 27.8291C23.2707 27.8291 23.2151 27.8796 23.2151 28.1373C23.2151 28.395 23.2656 28.4455 23.5233 28.4455C23.781 28.4455 23.8315 28.395 23.8315 28.1373C23.8315 27.8796 23.776 27.8291 23.5233 27.8291ZM26.9288 33.3516C26.1153 33.3516 25.6101 32.8463 25.6101 32.0328C25.6101 31.2194 26.1153 30.7141 26.9288 30.7141C27.7423 30.7141 28.2475 31.2194 28.2475 32.0328C28.2475 32.8463 27.7372 33.3516 26.9288 33.3516ZM26.9288 31.7297C26.6762 31.7297 26.6206 31.7802 26.6206 32.0379C26.6206 32.2956 26.6711 32.3461 26.9288 32.3461C27.1865 32.3461 27.237 32.2956 27.237 32.0379C27.237 31.7802 27.1814 31.7297 26.9288 31.7297Z" fill="#86888C"/>
</svg>
