<svg width="24" height="24" viewBox="0 0 24 24" fill="none" xmlns="http://www.w3.org/2000/svg">
<path fill-rule="evenodd" clip-rule="evenodd" d="M20.7052 20.5174C20.7052 20.6227 20.6198 20.7052 20.5174 20.7052H9.17701C9.07171 20.7052 8.98919 20.6198 8.98919 20.5174V16.3056H14.7746C15.6198 16.3056 16.3085 15.617 16.3085 14.7718V8.98634H20.5174C20.6227 8.98634 20.7052 9.06887 20.7052 9.17416V20.5174ZM3.29482 14.7746V3.53386C3.29482 3.40296 3.40296 3.29482 3.53386 3.29482H14.7718C14.9027 3.29482 15.0108 3.40296 15.0108 3.53386V14.7746C15.0108 14.9055 14.9027 15.0137 14.7718 15.0137H3.53102C3.40011 15.0108 3.29482 14.9055 3.29482 14.7746C3.29198 14.7746 3.29198 14.7746 3.29482 14.7746ZM20.5174 7.69152H16.3056V3.53386C16.3056 2.68583 15.617 2 14.7718 2H3.53102C2.68583 2 2 2.68583 2 3.53386V14.7746C2 15.6198 2.68867 16.3085 3.53386 16.3085H7.69152V20.5174C7.69152 21.3341 8.35743 22 9.17416 22H20.5145C21.3341 22 21.9972 21.3341 21.9972 20.5174V9.17416C22 8.35743 21.3341 7.69152 20.5174 7.69152Z" fill="#86888C"/>
</svg>
