<svg width="28" height="28" viewBox="0 0 28 28" fill="none" xmlns="http://www.w3.org/2000/svg">
<path fill-rule="evenodd" clip-rule="evenodd" d="M24.4462 24.2208C24.4462 24.3472 24.3438 24.4462 24.2208 24.4462H10.6124C10.4861 24.4462 10.387 24.3438 10.387 24.2208V19.1668H17.3295C18.3438 19.1668 19.1702 18.3404 19.1702 17.3261V10.3836H24.2208C24.3472 10.3836 24.4462 10.4826 24.4462 10.609V24.2208ZM3.55379 17.3295V3.84064C3.55379 3.68355 3.68355 3.55378 3.84064 3.55378H17.3261C17.4832 3.55378 17.613 3.68355 17.613 3.84064V17.3295C17.613 17.4866 17.4832 17.6164 17.3261 17.6164H3.83722C3.68014 17.613 3.55379 17.4866 3.55379 17.3295C3.55037 17.3295 3.55037 17.3295 3.55379 17.3295ZM24.2208 8.82982H19.1668V3.84064C19.1668 2.82299 18.3404 2 17.3261 2H3.83722C2.82299 2 2 2.82299 2 3.84064V17.3295C2 18.3438 2.82641 19.1702 3.84064 19.1702H8.82982V24.2208C8.82982 25.2009 9.62891 26 10.609 26H24.2174C25.2009 26 25.9966 25.2009 25.9966 24.2208V10.609C26 9.62891 25.2009 8.82982 24.2208 8.82982Z" fill="#86888C"/>
</svg>
