<svg width="40" height="40" viewBox="0 0 40 40" fill="none" xmlns="http://www.w3.org/2000/svg">
<path fill-rule="evenodd" clip-rule="evenodd" d="M28.8526 17.7718C28.4962 18.1048 28.4249 18.7554 28.4249 19.2471C28.4249 19.7338 28.4962 20.3844 28.8526 20.7071C29.2039 21.0349 29.8709 21.1015 30.3699 21.1015C30.8689 21.1015 31.5308 21.0349 31.877 20.7122C32.2283 20.3844 32.2996 19.7389 32.2996 19.2471C32.2996 18.7554 32.2232 18.1048 31.8719 17.7718C31.5206 17.444 30.8587 17.3825 30.3648 17.3825C29.8709 17.3825 29.209 17.444 28.8526 17.7718ZM27.3048 22.2797C26.5614 21.5933 26.1847 20.5739 26.1847 19.2471C26.1847 17.9204 26.5614 16.8958 27.3048 16.2043C28.0176 15.5383 29.0512 15.2054 30.3699 15.2054C31.6937 15.2054 32.7171 15.5383 33.435 16.2094C34.1733 16.901 34.5449 17.9255 34.5449 19.2523C34.5449 20.579 34.1682 21.5984 33.435 22.2848C32.7222 22.9457 31.6937 23.2838 30.3699 23.2838C29.0461 23.2786 28.0176 22.9405 27.3048 22.2797ZM7.91124 17.7564C7.55993 18.0894 7.48356 18.74 7.48356 19.2318C7.48356 19.7184 7.55993 20.369 7.90615 20.6968C8.25237 21.0196 8.91936 21.0862 9.41324 21.0862C9.90712 21.0862 10.5741 21.0196 10.9305 20.6917C11.2818 20.3639 11.3582 19.7184 11.3582 19.2318C11.3582 18.7451 11.2818 18.0894 10.9305 17.7564C10.5741 17.4286 9.91221 17.362 9.41833 17.362C8.92445 17.362 8.25747 17.4286 7.91124 17.7564ZM9.41833 23.2684C8.09963 23.2684 7.07114 22.9303 6.35833 22.2695C5.62006 21.583 5.24329 20.5636 5.24329 19.2369C5.24329 17.9101 5.62006 16.8856 6.35833 16.194C7.07114 15.5281 8.09963 15.19 9.41833 15.19C10.737 15.19 11.7706 15.523 12.4834 16.1889C13.2268 16.8805 13.6036 17.905 13.6036 19.2318C13.6036 20.5585 13.2268 21.5779 12.4834 22.2695C11.7655 22.9303 10.737 23.2684 9.41833 23.2684ZM19.7643 12.8797C19.1431 12.8746 18.6441 12.3879 18.6492 11.7835L18.6747 7.08088C18.6798 6.48153 19.1788 6 19.7948 6H19.7999C20.4211 6.00512 20.9201 6.49177 20.915 7.09624L20.8895 11.7988C20.8844 12.3982 20.3854 12.8797 19.7694 12.8797H19.7643ZM14.8968 13.9657L12.794 11.9013C12.3612 11.4761 12.3612 10.7897 12.8042 10.3645C13.2421 9.94443 13.9549 9.94443 14.3876 10.3696L16.4904 12.434C16.9232 12.8592 16.9232 13.5508 16.4853 13.9759C16.2664 14.186 15.9813 14.2935 15.6962 14.2935C15.4059 14.2935 15.1157 14.1808 14.8968 13.9657ZM23.8579 14.2884C23.5778 14.2884 23.2876 14.186 23.0687 13.9759C22.6257 13.5559 22.6257 12.8695 23.0585 12.4391L25.1613 10.3747C25.5941 9.94443 26.3069 9.94443 26.7498 10.3645C27.1877 10.7845 27.1928 11.4761 26.7549 11.9013L24.6521 13.9657C24.4383 14.1808 24.1481 14.2884 23.8579 14.2884ZM35.4665 36.8229L35.5378 29.5334C35.5378 29.0365 35.441 28.3449 34.9675 27.8685C34.438 27.3306 33.5572 27.2231 32.9106 27.2231H27.819C27.7529 27.2231 27.6714 27.2179 27.6001 27.2231H27.5797C27.3455 27.2282 27.0961 27.2179 26.8466 27.2231C26.5767 27.2282 26.1643 27.2231 25.925 27.136C25.7315 27.0694 25.3751 26.8184 25.2377 26.6647C25.0849 26.4957 24.6776 25.9373 24.6776 25.9373L21.0422 21.1937V23.7909L23.6033 27.054L24.7132 28.4627C24.7132 28.4627 24.9729 28.7599 25.0696 28.9853C25.1613 29.1902 25.1867 29.6307 25.1867 29.769L25.1613 32.064L25.1104 36.8229H31.3373V31.8334C31.3373 31.229 31.8413 30.7474 32.4574 30.7474C33.0735 30.7474 33.5775 31.2341 33.5775 31.8334V36.8229H35.4665ZM18.7409 23.7755V21.1784L15.1055 25.927C15.1055 25.927 14.6982 26.4854 14.5455 26.6545C14.408 26.8133 14.0516 27.0591 13.8581 27.1257C13.6188 27.2128 13.2013 27.2179 12.9366 27.2128C12.6871 27.2077 12.4325 27.2179 12.2034 27.2128H6.87257C6.22595 27.2128 5.35021 27.3255 4.8156 27.8634C4.34719 28.3398 4.24536 29.0314 4.24536 29.5283L4.31664 36.8178H6.20559V31.8283C6.20559 31.229 6.70965 30.7423 7.32572 30.7423C7.94179 30.7423 8.44585 31.229 8.44585 31.8283V36.8178H14.6728L14.6269 32.0537L14.5964 29.7588C14.5964 29.6205 14.6269 29.1799 14.7135 28.975C14.8102 28.7496 15.0699 28.4525 15.0699 28.4525L16.1799 27.0438L18.7409 23.7755ZM36.5866 26.3625C37.3707 27.1514 37.7831 28.2476 37.7831 29.5385L37.6915 38.5441C37.6915 38.7951 37.4776 39 37.218 39H23.3232C23.0636 39 22.8497 38.7951 22.8497 38.5441L22.9363 29.7946L19.8865 25.9117L16.8468 29.7844L16.9385 38.5338C16.9385 38.79 16.7246 38.9898 16.4599 38.9898H2.56516C2.3004 38.9898 2.09165 38.7849 2.09165 38.5338L2 29.5231C2 28.2373 2.41241 27.1411 3.1965 26.3471C4.05188 25.4865 5.31966 25.0306 6.86748 25.0306H11.959C12.3001 25.0306 12.626 25.0613 12.9366 25.1074L18.9496 17.2595L18.9547 17.2544L18.9649 17.2391C18.9802 17.2186 19.0056 17.2032 19.0209 17.1878C19.0769 17.1212 19.138 17.0546 19.2093 17.0085C19.2399 16.988 19.2704 16.9778 19.301 16.9624C19.362 16.9266 19.4282 16.8856 19.5046 16.86C19.5097 16.8549 19.5199 16.86 19.525 16.8549C19.5403 16.8497 19.5504 16.8497 19.5657 16.8497C19.6624 16.8241 19.7643 16.8036 19.8661 16.8036C19.8916 16.8036 19.9119 16.8139 19.9374 16.8139C20.029 16.819 20.1156 16.8292 20.2021 16.8549C20.2072 16.8549 20.2072 16.86 20.2072 16.86L20.2021 16.8549H20.2123C20.2174 16.8549 20.2174 16.86 20.2174 16.86C20.2327 16.8651 20.2378 16.8651 20.2531 16.8651C20.2582 16.8702 20.2683 16.8651 20.2734 16.8702C20.3498 16.8958 20.4109 16.9368 20.4822 16.9727C20.5076 16.988 20.5433 16.9983 20.5687 17.0188C20.64 17.07 20.7011 17.1315 20.7571 17.1981C20.7775 17.2186 20.7979 17.2288 20.8131 17.2544L20.8233 17.2647L20.8284 17.2698L26.8415 25.1228C27.1521 25.0767 27.4779 25.0511 27.819 25.0511H32.9106C34.4635 25.0459 35.7313 25.5019 36.5866 26.3625Z" fill="#86888C"/>
</svg>
