<svg width="40" height="40" viewBox="0 0 40 40" fill="none" xmlns="http://www.w3.org/2000/svg">
<path fill-rule="evenodd" clip-rule="evenodd" d="M34.786 8.8479C34.2891 9.2986 27.8398 15.1833 27.8398 15.1833C27.5683 15.4343 27.4352 15.803 27.4915 16.1718L29.9247 31.6185L29.0744 32.0333L23.7264 20.771C23.5779 20.4585 23.291 20.2332 22.9478 20.1615C22.6097 20.0898 22.2563 20.1871 22.0001 20.4176C19.8077 22.3587 18.4707 23.7108 17.2925 24.899C15.8787 26.3228 14.7671 27.4444 12.7539 28.986C12.4568 29.2165 12.298 29.575 12.3236 29.9489L12.7232 35.1473L12.0777 35.4597L9.22961 30.671C9.14252 30.5276 9.02471 30.4047 8.8864 30.3125L4.62444 27.511L4.92667 27.05L9.78797 27.4034C10.1517 27.4239 10.5154 27.2703 10.7408 26.9783C12.2314 25.0475 13.3686 23.9412 14.8081 22.543C16.0272 21.3599 17.4052 20.0232 19.362 17.8517C19.5977 17.5905 19.695 17.2319 19.6233 16.8939C19.5515 16.5508 19.3262 16.2588 19.0086 16.1154L7.86189 10.9631L8.42537 10.0668L23.8442 12.3306C24.2028 12.3767 24.5665 12.2538 24.8124 11.9874C27.138 9.47785 30.9697 5.37033 31.3488 5.02719C32.6294 3.87483 33.8178 3.93629 34.9704 5.21669C36.1281 6.50221 36.0666 7.69042 34.786 8.8479ZM36.6148 3.74167C34.6426 1.55475 32.0659 1.41646 29.8837 3.38828C29.3868 3.83386 25.1556 8.38695 23.5984 10.0668L8.04118 7.7826C7.61088 7.72115 7.18059 7.91577 6.95007 8.28452L5.33135 10.8504C5.1623 11.1219 5.1162 11.4497 5.20841 11.7518C5.29549 12.054 5.51576 12.3101 5.80262 12.4381L16.7085 17.4829C15.3152 18.9784 14.2446 20.0232 13.2713 20.9605C11.8882 22.3074 10.7715 23.3932 9.36279 25.1602L4.44002 24.8068C4.04559 24.7863 3.65627 24.9655 3.44113 25.3036L2.18098 27.2293C1.84801 27.7363 1.98632 28.4226 2.49858 28.7555L7.46745 32.0231L10.7049 37.4622C10.9098 37.8054 11.2786 38 11.6526 38C11.8114 38 11.9753 37.9641 12.129 37.8924L14.3624 36.8169C14.7722 36.6223 15.0181 36.1921 14.9822 35.7363L14.5673 30.3791C16.4063 28.9297 17.4974 27.8285 18.8549 26.4611C19.8026 25.5084 20.8527 24.4483 22.3741 23.0603L27.5632 33.9949C27.6913 34.2612 27.9167 34.4661 28.1984 34.5634C28.475 34.6607 28.7824 34.6402 29.0436 34.5122L31.6254 33.2523C32.0608 33.0372 32.3067 32.566 32.2299 32.0897L29.7659 16.4279C31.2258 15.0962 35.8464 10.8812 36.2664 10.5022C38.4435 8.51499 38.5818 5.93371 36.6148 3.74167Z" fill="#86888C"/>
</svg>
