<svg width="20" height="20" viewBox="0 0 20 20" fill="none" xmlns="http://www.w3.org/2000/svg">
<path fill-rule="evenodd" clip-rule="evenodd" d="M16.5716 5.04351C16.3507 5.24382 13.4844 7.85925 13.4844 7.85925C13.3637 7.97078 13.3045 8.13468 13.3296 8.29857L14.411 15.1638L14.0331 15.3482L11.6562 10.3427C11.5902 10.2038 11.4627 10.1036 11.3101 10.0718C11.1599 10.0399 11.0028 10.0832 10.8889 10.1856C9.91452 11.0483 9.32031 11.6492 8.79667 12.1773C8.1683 12.8101 7.67426 13.3086 6.77952 13.9938C6.64747 14.0962 6.5769 14.2555 6.58828 14.4217L6.76586 16.7321L6.479 16.871L5.21316 14.7427C5.17446 14.6789 5.12209 14.6243 5.06062 14.5833L3.16642 13.3382L3.30074 13.1333L5.46132 13.2904C5.62296 13.2995 5.78461 13.2312 5.88478 13.1015C6.5473 12.2433 7.05272 11.7517 7.69247 11.1302C8.23433 10.6044 8.84676 10.0103 9.71645 9.04518C9.82118 8.92909 9.86443 8.76975 9.83256 8.61952C9.80069 8.46701 9.70051 8.33726 9.55936 8.27353L4.60528 5.98361L4.85572 5.58526L11.7086 6.59137C11.8679 6.61185 12.0296 6.55722 12.1388 6.43886C13.1725 5.32349 14.8754 3.49793 15.0439 3.34542C15.6131 2.83326 16.1413 2.86057 16.6535 3.42964C17.1681 4.00098 17.1407 4.52907 16.5716 5.04351ZM17.3843 2.77407C16.5078 1.80211 15.3626 1.74065 14.3928 2.61701C14.1719 2.81505 12.2914 4.83865 11.5993 5.58526L4.68497 4.57005C4.49373 4.54273 4.30248 4.62923 4.20003 4.79312L3.4806 5.93353C3.40547 6.05417 3.38498 6.19985 3.42596 6.33415C3.46466 6.46845 3.56256 6.58226 3.69005 6.63917L8.53713 8.88129C7.91787 9.54596 7.44204 10.0103 7.00947 10.4269C6.39476 11.0255 5.89844 11.5081 5.27235 12.2934L3.08446 12.1363C2.90915 12.1272 2.73612 12.2069 2.6405 12.3571L2.08044 13.213C1.93245 13.4384 1.99392 13.7434 2.22159 13.8913L4.42998 15.3436L5.86885 17.761C5.95991 17.9135 6.12383 18 6.29003 18C6.36061 18 6.43346 17.9841 6.50177 17.9522L7.4944 17.4742C7.67654 17.3877 7.78582 17.1965 7.76988 16.9939L7.58547 14.6129C8.4028 13.9687 8.88774 13.4793 9.49106 12.8716C9.91225 12.4482 10.379 11.977 11.0551 11.3601L13.3614 16.22C13.4183 16.3383 13.5185 16.4294 13.6437 16.4726C13.7667 16.5159 13.9033 16.5068 14.0194 16.4499L15.1668 15.8899C15.3604 15.7943 15.4696 15.5849 15.4355 15.3732L14.3404 8.41238C14.9893 7.82055 17.0428 5.94719 17.2295 5.77874C18.1971 4.89555 18.2586 3.74832 17.3843 2.77407Z" fill="#86888C"/>
</svg>
