<svg width="24" height="24" viewBox="0 0 24 24" fill="none" xmlns="http://www.w3.org/2000/svg">
<path fill-rule="evenodd" clip-rule="evenodd" d="M6.97716 9.5C6.97716 8.11929 8.09645 7 9.47716 7H14.4772C15.8579 7 16.9772 8.11929 16.9772 9.5V14.5C16.9772 15.8807 15.8579 17 14.4772 17H9.47716C8.09645 17 6.97716 15.8807 6.97716 14.5V9.5ZM9.47716 8H14.4772C15.3056 8 15.9772 8.67157 15.9772 9.5V14.5C15.9772 15.3284 15.3056 16 14.4772 16H9.47716C8.64873 16 7.97716 15.3284 7.97716 14.5V9.5C7.97716 8.67157 8.64873 8 9.47716 8Z" fill="#86888C"/>
<path fill-rule="evenodd" clip-rule="evenodd" d="M4.74511 19.5348C6.44258 21.1697 8.91344 22 12.0894 22C15.2654 22 17.7363 21.1726 19.4366 19.5377C21.1995 17.8402 22.0923 15.304 22.0923 12.0028C22.0923 8.69889 21.1995 6.16548 19.4366 4.46517C17.7363 2.83025 15.2654 2 12.0894 2C8.91344 2 6.44258 2.83025 4.74511 4.46233C2.98509 6.16264 2.09229 8.69889 2.09229 12C2.09229 15.304 2.98509 17.8374 4.74511 19.5348ZM3.19834 12.0028C3.19834 6.10009 6.18953 3.10606 12.0894 3.10606C17.9922 3.10606 20.9834 6.10009 20.9862 12.0028C20.9862 17.9028 17.9922 20.8939 12.0894 20.8939C6.18953 20.8939 3.19834 17.9028 3.19834 12.0028Z" fill="#86888C"/>
</svg>
