<svg width="28" height="28" viewBox="0 0 28 28" fill="none" xmlns="http://www.w3.org/2000/svg">
<path d="M13.9949 26C10.1824 26 7.21784 25.005 5.18336 23.0423C3.07024 21.0078 2 17.9681 2 14.0051C2 10.0422 3.07024 6.999 5.18336 4.96111C7.21784 2.99843 10.1858 2 13.9949 2C17.8074 2 20.7719 2.99501 22.8098 4.95769C24.9263 6.99558 25.9966 10.0388 25.9966 14.0017C25.9966 17.9647 24.9229 21.0044 22.8098 23.0423C20.7719 25.005 17.8074 26 13.9949 26ZM13.9949 3.3301C6.91694 3.3301 3.32668 6.92036 3.32668 14.0051C3.32668 21.0831 6.91694 24.6733 13.9949 24.6733C21.0762 24.6733 24.6699 21.0831 24.6699 14.0051C24.6699 6.92378 21.0762 3.3301 13.9949 3.3301Z" fill="#86888C"/>
<path d="M10.5788 19.2607C10.4763 19.2607 10.3737 19.2333 10.2814 19.182C10.0967 19.076 9.98389 18.8811 9.98389 18.6691V9.29002C9.98389 9.07803 10.0967 8.88313 10.2814 8.77713C10.466 8.67113 10.6917 8.67113 10.8729 8.77713L18.9937 13.465C19.1784 13.571 19.2912 13.7659 19.2912 13.9779C19.2912 14.1899 19.1784 14.3848 18.9937 14.4908L10.8729 19.182C10.7806 19.2333 10.678 19.2607 10.5788 19.2607ZM11.1704 10.3158V17.6399L17.5132 13.9779L11.1704 10.3158Z" fill="#86888C"/>
</svg>
