<svg width="20" height="20" viewBox="0 0 20 20" fill="none" xmlns="http://www.w3.org/2000/svg">
<path d="M5.71388 8.95386C5.65474 8.91292 5.62744 8.86742 5.62744 8.79691C5.62972 8.70592 5.70478 8.63313 5.79577 8.63541C5.83899 8.63768 5.8822 8.65133 5.9186 8.67635C6.18019 8.84922 6.54413 9.02437 6.96722 9.02437C7.59958 9.02437 7.98854 8.6991 7.98854 8.21914C7.98854 7.82562 7.7679 7.54584 7.04456 7.45485L6.85804 7.43211C6.08692 7.3343 5.72753 6.96353 5.72753 6.38804C5.72753 5.70336 6.21431 5.28027 6.96267 5.28027C7.38121 5.28027 7.73378 5.38946 7.97717 5.54186C8.05224 5.58735 8.08635 5.64649 8.08635 5.70336C8.08635 5.7898 8.01812 5.86031 7.93168 5.86031H7.9294C7.88846 5.85804 7.84979 5.84667 7.8134 5.82619C7.54726 5.68061 7.26748 5.59418 6.94902 5.59418C6.37581 5.59418 6.05508 5.91263 6.05508 6.35847C6.05508 6.76336 6.30529 7.02494 6.98314 7.11138L7.16284 7.13413C7.94533 7.23194 8.3161 7.60271 8.3161 8.19412C8.3161 8.8606 7.84069 9.336 6.924 9.336C6.49181 9.33373 6.06873 9.19952 5.71388 8.95386Z" fill="#86888C"/>
<path d="M6.92598 9.50663C6.4574 9.50208 6.00246 9.35877 5.61577 9.09264C5.50886 9.01757 5.45654 8.91976 5.45654 8.79693C5.45882 8.61041 5.60895 8.46255 5.79547 8.46483C5.87281 8.4671 5.94787 8.48985 6.01156 8.53307C6.33001 8.74461 6.65074 8.85152 6.96692 8.85152C7.49009 8.85152 7.81765 8.60813 7.81765 8.21689C7.81765 7.95985 7.72211 7.70964 7.02151 7.62093L6.83727 7.59818C5.77955 7.46398 5.55663 6.86346 5.55663 6.38578C5.55663 5.61012 6.10937 5.10742 6.96237 5.10742C7.37636 5.10742 7.7676 5.20978 8.06786 5.39403C8.23391 5.49639 8.25893 5.63059 8.25893 5.70111C8.25893 5.88081 8.11335 6.02866 7.93138 6.02866C7.86314 6.02639 7.79717 6.00819 7.73803 5.97634L7.73348 5.97407C7.46962 5.83077 7.21941 5.76253 6.951 5.76253C6.49834 5.76253 6.22765 5.98544 6.22765 6.35621C6.22765 6.51317 6.22765 6.84072 7.00559 6.9408L7.18529 6.96355C8.26121 7.10003 8.48867 7.70736 8.48867 8.19414C8.48867 8.58311 8.34537 8.91066 8.07696 9.14495C7.80172 9.38152 7.40366 9.50663 6.92598 9.50663ZM5.81139 8.81513C5.89783 8.87654 5.99109 8.92886 6.08663 8.97435C5.99564 8.92886 5.90693 8.87654 5.82049 8.8174C5.81594 8.81285 5.80912 8.81058 5.80229 8.8083L5.81139 8.81513ZM7.36499 7.34114C7.69936 7.42531 7.92683 7.57088 8.04966 7.78015C7.89726 7.50037 7.59473 7.38891 7.36499 7.34114ZM5.95015 6.71106C6.04568 6.959 6.26405 7.12278 6.61207 7.21149C6.27315 7.11595 6.05251 6.9499 5.95015 6.71106Z" fill="#86888C"/>
<path d="M7.00796 11.3375C5.74325 11.3375 4.75604 11.0032 4.07137 10.3435C3.3594 9.65655 3 8.64433 3 7.32957C3 6.01482 3.3594 5.00031 4.07137 4.31336C4.75604 3.65371 5.74325 3.31934 7.00796 3.31934C8.27267 3.31934 9.25988 3.65371 9.94455 4.31336C10.6565 4.99804 11.0159 6.01254 11.0159 7.3273C11.0159 8.64205 10.6542 9.65656 9.94455 10.3412C9.25988 11.0032 8.2704 11.3375 7.00796 11.3375ZM7.00796 4.2292C4.92437 4.2292 3.90987 5.2437 3.90987 7.32957C3.90987 9.41544 4.92437 10.4299 7.00796 10.4299C9.09155 10.4299 10.1061 9.41544 10.1061 7.32957C10.1061 5.2437 9.09155 4.2292 7.00796 4.2292Z" fill="#86888C"/>
<path d="M7.00797 10.0046C6.85101 10.0046 6.72363 9.87718 6.72363 9.72023V4.89566C6.72363 4.73871 6.85101 4.61133 7.00797 4.61133C7.16492 4.61133 7.2923 4.73871 7.2923 4.89566V9.7225C7.2923 9.87718 7.16492 10.0046 7.00797 10.0046Z" fill="#86888C"/>
<path d="M10.1127 18C9.99894 18 9.88748 17.9568 9.80332 17.8794L4.03704 12.5544C3.85279 12.3838 3.84142 12.0972 4.01202 11.9107C4.09846 11.8175 4.21902 11.7651 4.3464 11.7651H6.55282V10.9758C6.55282 10.7256 6.75754 10.5209 7.00776 10.5209C7.25797 10.5209 7.46269 10.7256 7.46269 10.9758V12.2178C7.46269 12.468 7.25797 12.6727 7.00776 12.6727H5.50875L10.1127 16.9241L14.7166 12.6727H13.2176C12.9674 12.6727 12.7627 12.468 12.7627 12.2178V3.12596C12.7627 3.01223 12.7399 2.95991 12.7263 2.94626C12.7126 2.93261 12.6603 2.90987 12.5466 2.90987H7.66741C7.55367 2.90987 7.50591 2.93261 7.49681 2.94171C7.48771 2.95081 7.46269 3.00313 7.46269 3.12596V3.56952C7.46269 3.81973 7.25797 4.02445 7.00776 4.02445C6.75754 4.02445 6.55282 3.81973 6.55282 3.56952V3.12596C6.55282 2.43219 6.98046 2 7.66741 2H12.5466C13.2403 2 13.6725 2.43219 13.6725 3.12596V11.7651H15.879C16.1292 11.7651 16.3339 11.9676 16.3362 12.2178C16.3362 12.3452 16.2838 12.468 16.1883 12.5544L10.4198 17.8794C10.3356 17.9568 10.2264 18 10.1127 18Z" fill="#86888C"/>
</svg>
