<svg width="24" height="24" viewBox="0 0 24 24" fill="none" xmlns="http://www.w3.org/2000/svg">
<path d="M7.39223 11.6926C7.3183 11.6414 7.28418 11.5845 7.28418 11.4964C7.28702 11.3826 7.38085 11.2917 7.49459 11.2945C7.54861 11.2973 7.60263 11.3144 7.64813 11.3457C7.97511 11.5618 8.43004 11.7807 8.9589 11.7807C9.74935 11.7807 10.2356 11.3741 10.2356 10.7742C10.2356 10.2823 9.95976 9.93255 9.05558 9.81881L8.82242 9.79038C7.85853 9.66812 7.40929 9.20465 7.40929 8.48529C7.40929 7.62945 8.01776 7.10059 8.95322 7.10059C9.47639 7.10059 9.91711 7.23707 10.2213 7.42757C10.3152 7.48444 10.3578 7.55836 10.3578 7.62945C10.3578 7.73749 10.2725 7.82564 10.1645 7.82564H10.1616C10.1105 7.82279 10.0621 7.80858 10.0166 7.78299C9.68395 7.60101 9.33422 7.49297 8.93616 7.49297C8.21964 7.49297 7.81873 7.89103 7.81873 8.44833C7.81873 8.95444 8.13149 9.28142 8.97881 9.38947L9.20343 9.4179C10.1815 9.54016 10.645 10.0036 10.645 10.7429C10.645 11.576 10.0507 12.1702 8.90488 12.1702C8.36465 12.1674 7.83579 11.9996 7.39223 11.6926Z" fill="#86888C"/>
<path d="M8.90759 12.3838C8.32187 12.3781 7.7532 12.199 7.26983 11.8663C7.1362 11.7725 7.0708 11.6502 7.0708 11.4967C7.07364 11.2635 7.2613 11.0787 7.49446 11.0815C7.59113 11.0844 7.68496 11.1128 7.76457 11.1668C8.16264 11.4313 8.56355 11.5649 8.95877 11.5649C9.61274 11.5649 10.0222 11.2607 10.0222 10.7716C10.0222 10.4503 9.90276 10.1375 9.02701 10.0266L8.7967 9.99821C7.47455 9.83046 7.19591 9.07982 7.19591 8.48272C7.19591 7.51314 7.88684 6.88477 8.95309 6.88477C9.47057 6.88477 9.95963 7.01272 10.3349 7.24303C10.5425 7.37098 10.5738 7.53873 10.5738 7.62688C10.5738 7.8515 10.3918 8.03632 10.1643 8.03632C10.079 8.03347 9.99659 8.01073 9.92266 7.97092L9.91698 7.96807C9.58715 7.78895 9.27438 7.70364 8.93887 7.70364C8.37305 7.70364 8.03469 7.98229 8.03469 8.44575C8.03469 8.64194 8.03469 9.05138 9.00711 9.17649L9.23173 9.20492C10.5766 9.37552 10.861 10.1347 10.861 10.7432C10.861 11.2294 10.6818 11.6388 10.3463 11.9317C10.0023 12.2274 9.50469 12.3838 8.90759 12.3838ZM7.51436 11.5194C7.62241 11.5962 7.73898 11.6616 7.8584 11.7184C7.74467 11.6616 7.63378 11.5962 7.52573 11.5222C7.52005 11.5166 7.51152 11.5137 7.50299 11.5109L7.51436 11.5194ZM9.45636 9.67692C9.87433 9.78212 10.1587 9.96409 10.3122 10.2257C10.1217 9.87595 9.74353 9.73663 9.45636 9.67692ZM7.6878 8.88931C7.80722 9.19924 8.08018 9.40396 8.51521 9.51485C8.09156 9.39543 7.81575 9.18786 7.6878 8.88931Z" fill="#86888C"/>
<path d="M9.00995 14.6722C7.42906 14.6722 6.19505 14.2542 5.33921 13.4296C4.44925 12.5709 4 11.3057 4 9.66221C4 8.01876 4.44925 6.75064 5.33921 5.89195C6.19505 5.06738 7.42906 4.64941 9.00995 4.64941C10.5908 4.64941 11.8248 5.06738 12.6807 5.89195C13.5707 6.74779 14.0199 8.01592 14.0199 9.65937C14.0199 11.3028 13.5678 12.5709 12.6807 13.4268C11.8248 14.2542 10.588 14.6722 9.00995 14.6722ZM9.00995 5.78675C6.40546 5.78675 5.13733 7.05487 5.13733 9.66221C5.13733 12.2695 6.40546 13.5377 9.00995 13.5377C11.6144 13.5377 12.8826 12.2695 12.8826 9.66221C12.8826 7.05487 11.6144 5.78675 9.00995 5.78675Z" fill="#86888C"/>
<path d="M9.00971 13.0052C8.81352 13.0052 8.6543 12.846 8.6543 12.6498V6.61909C8.6543 6.4229 8.81352 6.26367 9.00971 6.26367C9.2059 6.26367 9.36513 6.4229 9.36513 6.61909V12.6526C9.36513 12.846 9.2059 13.0052 9.00971 13.0052Z" fill="#86888C"/>
<path d="M12.8907 23C12.7486 23 12.6092 22.946 12.504 22.8493L5.29618 16.1931C5.06587 15.9798 5.05165 15.6216 5.2649 15.3884C5.37295 15.2718 5.52365 15.2064 5.68287 15.2064H8.44091V14.2198C8.44091 13.907 8.69681 13.6511 9.00957 13.6511C9.32234 13.6511 9.57824 13.907 9.57824 14.2198V15.7722C9.57824 16.085 9.32234 16.3409 9.00957 16.3409H7.13582L12.8907 21.6551L18.6456 16.3409H16.7719C16.4591 16.3409 16.2032 16.085 16.2032 15.7722V4.40745C16.2032 4.26528 16.1748 4.19989 16.1577 4.18283C16.1406 4.16577 16.0753 4.13733 15.9331 4.13733H9.83414C9.69197 4.13733 9.63226 4.16577 9.62089 4.17714C9.60951 4.18851 9.57824 4.25391 9.57824 4.40745V4.9619C9.57824 5.27467 9.32234 5.53057 9.00957 5.53057C8.69681 5.53057 8.44091 5.27467 8.44091 4.9619V4.40745C8.44091 3.54023 8.97545 3 9.83414 3H15.9331C16.8003 3 17.3405 3.54023 17.3405 4.40745V15.2064H20.0986C20.4113 15.2064 20.6672 15.4595 20.6701 15.7722C20.6701 15.9315 20.6047 16.085 20.4853 16.1931L13.2746 22.8493C13.1694 22.946 13.0329 23 12.8907 23Z" fill="#86888C"/>
</svg>
