<svg width="24" height="24" viewBox="0 0 24 24" fill="none" xmlns="http://www.w3.org/2000/svg">
<path fill-rule="evenodd" clip-rule="evenodd" d="M12.4186 21.7901C14.3794 21.7531 20.7768 21.0189 20.7768 13.0449C20.7768 5.07367 14.3481 4.2996 12.3788 4.25122C12.1113 4.24553 11.7954 4.23984 11.5079 4.24269C9.56424 4.26261 3.22371 4.93992 3.22371 12.9908C3.22371 21.0502 9.61831 21.7674 11.5791 21.7958C11.8608 21.8015 12.1682 21.7958 12.4186 21.7901ZM12.4072 3.03036C14.0094 3.06736 22.0006 3.73044 22.0006 13.0449C22.0006 22.3678 14.0379 22.9854 12.4385 23.0138C12.2621 23.0167 12.0543 23.0195 11.8494 23.0195C11.7527 23.0195 11.6559 23.0195 11.562 23.0167C9.9655 22.9968 2 22.4048 2 12.9908C2 3.57676 9.91143 3.03605 11.4994 3.02182C11.7954 3.01613 12.1283 3.02182 12.4072 3.03036ZM11.5535 17.6437C12.0913 17.6437 12.4414 17.9966 12.4414 18.5032C12.4414 19.0695 12.097 19.4082 11.5848 19.4082C11.0384 19.4082 10.6969 19.0695 10.6969 18.5686V18.5032C10.6997 17.9966 11.0498 17.6437 11.5535 17.6437ZM14.24 7.42433C14.9486 7.94797 15.2815 8.66797 15.2815 9.69247C15.2815 10.9446 14.7636 11.6902 13.5769 13.0904C12.2166 14.6641 12.1625 14.7268 12.1625 16.1952C12.1625 16.42 11.9804 16.6022 11.7555 16.6022H11.3059C11.1124 16.6022 10.9445 16.4656 10.9046 16.272C10.8648 16.0615 10.8449 15.8452 10.8477 15.6289C10.8477 14.5275 11.2347 13.8759 12.1027 12.8314L12.2678 12.6322C13.6964 10.9418 13.9668 10.4694 13.9668 9.67255C13.9668 9.10623 13.8045 8.73627 13.4232 8.43176C13.2041 8.25817 12.8199 8.05611 11.7698 8.05611C11.1977 8.05611 10.694 8.12157 10.0765 8.27809C9.85736 8.33216 9.63823 8.20125 9.58131 7.98496C9.57847 7.97643 9.57847 7.96789 9.57562 7.95935L9.51017 7.61216C9.47602 7.43003 9.56708 7.24789 9.73499 7.16821C10.1192 6.98608 11.0611 6.79825 11.969 6.79825C12.9252 6.7954 13.6879 7.006 14.24 7.42433Z" fill="#86888C"/>
</svg>
