<svg width="24" height="24" viewBox="0 0 24 24" fill="none" xmlns="http://www.w3.org/2000/svg">
<path fill-rule="evenodd" clip-rule="evenodd" d="M12.0882 13.5965C15.8617 13.6363 18.0757 16.0495 18.1696 16.152C18.4001 16.4109 18.3802 16.8036 18.1241 17.0341C18.0046 17.1423 17.8537 17.1935 17.7057 17.1935C17.535 17.1935 17.3671 17.1252 17.2419 16.9886C17.222 16.9687 15.284 14.8799 12.0569 14.8458C12.0057 14.8515 8.73876 14.7433 6.76665 16.9488C6.53614 17.2077 6.14343 17.2277 5.88446 17C5.62834 16.7695 5.60558 16.3739 5.83324 16.1178C8.20376 13.4599 11.9317 13.5908 12.0882 13.5965ZM11.9972 20.7507C17.885 20.7507 20.7507 17.8879 20.7507 12.0028C20.7507 6.11497 17.8879 3.24929 11.9972 3.24929C6.11212 3.24929 3.24929 6.11212 3.24929 12.0028C3.24929 17.8879 6.11212 20.7507 11.9972 20.7507ZM11.9972 2C18.3147 2 22 5.1901 22 12.0028C22 18.8156 18.3147 22 11.9972 22C5.67957 22 2 18.8156 2 12.0028C2 5.1901 5.67957 2 11.9972 2ZM8.96642 10.5259C8.60501 10.5259 8.30336 10.4121 8.09277 10.1986C7.88503 9.98805 7.78258 9.69778 7.78258 9.33921C7.78258 8.60501 8.23791 8.14969 8.96642 8.14969C9.69778 8.14969 10.1503 8.60501 10.1503 9.33921C10.1503 9.69778 10.045 9.98805 9.84007 10.1986C9.62948 10.4121 9.32783 10.5259 8.96642 10.5259ZM15.0336 10.5259C14.6722 10.5259 14.3705 10.4121 14.1599 10.1986C13.9522 9.9852 13.8497 9.69493 13.8497 9.33921C13.8497 8.60501 14.3051 8.14969 15.0336 8.14969C15.7649 8.14969 16.2174 8.60501 16.2174 9.33921C16.2174 9.69778 16.1121 9.98805 15.9044 10.1986C15.6966 10.4121 15.395 10.5259 15.0336 10.5259Z" fill="#86888C"/>
</svg>
