<svg width="28" height="28" viewBox="0 0 28 28" fill="none" xmlns="http://www.w3.org/2000/svg">
<path fill-rule="evenodd" clip-rule="evenodd" d="M15.1059 16.9158C19.634 16.9636 22.2908 19.8594 22.4035 19.9824C22.6801 20.2931 22.6562 20.7644 22.3489 21.041C22.2055 21.1707 22.0245 21.2322 21.8469 21.2322C21.642 21.2322 21.4405 21.1503 21.2903 20.9863C21.2664 20.9624 18.9408 18.4559 15.0683 18.4149C15.0068 18.4217 11.0865 18.292 8.71998 20.9385C8.44337 21.2493 7.97211 21.2732 7.66135 21C7.35401 20.7234 7.32669 20.2487 7.59989 19.9414C10.4445 16.7519 14.918 16.9089 15.1059 16.9158ZM14.9966 25.5009C22.062 25.5009 25.5009 22.0655 25.5009 15.0034C25.5009 7.93796 22.0655 4.49915 14.9966 4.49915C7.93455 4.49915 4.49915 7.93455 4.49915 15.0034C4.49915 22.0655 7.93455 25.5009 14.9966 25.5009ZM14.9966 3C22.5777 3 27 6.82812 27 15.0034C27 23.1787 22.5777 27 14.9966 27C7.41548 27 3 23.1787 3 15.0034C3 6.82812 7.41548 3 14.9966 3ZM11.3597 13.2311C10.926 13.2311 10.564 13.0945 10.3113 12.8384C10.062 12.5857 9.9391 12.2373 9.9391 11.8071C9.9391 10.926 10.4855 10.3796 11.3597 10.3796C12.2373 10.3796 12.7803 10.926 12.7803 11.8071C12.7803 12.2373 12.654 12.5857 12.4081 12.8384C12.1554 13.0945 11.7934 13.2311 11.3597 13.2311ZM18.6403 13.2311C18.2066 13.2311 17.8446 13.0945 17.5919 12.8384C17.3426 12.5822 17.2197 12.2339 17.2197 11.8071C17.2197 10.926 17.7661 10.3796 18.6403 10.3796C19.5179 10.3796 20.0609 10.926 20.0609 11.8071C20.0609 12.2373 19.9345 12.5857 19.6853 12.8384C19.436 13.0945 19.074 13.2311 18.6403 13.2311Z" fill="#86888C"/>
</svg>
