<svg width="20" height="20" viewBox="0 0 20 20" fill="none" xmlns="http://www.w3.org/2000/svg">
<path fill-rule="evenodd" clip-rule="evenodd" d="M10.0706 11.2772C13.0894 11.309 14.8606 13.2396 14.9357 13.3216C15.1201 13.5287 15.1042 13.8429 14.8993 14.0273C14.8036 14.1138 14.683 14.1548 14.5646 14.1548C14.428 14.1548 14.2937 14.1002 14.1935 13.9909C14.1776 13.975 12.6272 12.3039 10.0455 12.2766C10.0046 12.2812 7.39101 12.1947 5.81332 13.959C5.62891 14.1662 5.31474 14.1821 5.10757 14C4.90268 13.8156 4.88446 13.4991 5.06659 13.2943C6.96301 11.1679 9.94536 11.2726 10.0706 11.2772ZM9.99772 17.0006C14.708 17.0006 17.0006 14.7103 17.0006 10.0023C17.0006 5.29198 14.7103 2.99943 9.99772 2.99943C5.2897 2.99943 2.99943 5.2897 2.99943 10.0023C2.99943 14.7103 5.2897 17.0006 9.99772 17.0006ZM9.99772 2C15.0518 2 18 4.55208 18 10.0023C18 15.4525 15.0518 18 9.99772 18C4.94365 18 2 15.4525 2 10.0023C2 4.55208 4.94365 2 9.99772 2ZM7.57314 8.82072C7.28401 8.82072 7.04269 8.72965 6.87422 8.55891C6.70803 8.39044 6.62607 8.15822 6.62607 7.87137C6.62607 7.28401 6.99032 6.91975 7.57314 6.91975C8.15822 6.91975 8.52021 7.28401 8.52021 7.87137C8.52021 8.15822 8.43597 8.39044 8.27206 8.55891C8.10359 8.72965 7.86227 8.82072 7.57314 8.82072ZM12.4269 8.82072C12.1377 8.82072 11.8964 8.72965 11.7279 8.55891C11.5618 8.38816 11.4798 8.15595 11.4798 7.87137C11.4798 7.28401 11.8441 6.91975 12.4269 6.91975C13.012 6.91975 13.3739 7.28401 13.3739 7.87137C13.3739 8.15822 13.2897 8.39044 13.1235 8.55891C12.9573 8.72965 12.716 8.82072 12.4269 8.82072Z" fill="#86888C"/>
</svg>
