<svg width="24" height="24" viewBox="0 0 24 24" fill="none" xmlns="http://www.w3.org/2000/svg">
<path fill-rule="evenodd" clip-rule="evenodd" d="M2 9.90099C2 14.3144 5.57749 17.8919 9.99087 17.8919C11.9202 17.8971 13.7786 17.1979 15.2241 15.9386L21.0257 21.7403C21.1313 21.8487 21.2768 21.9086 21.428 21.9086C21.5792 21.9086 21.7218 21.8487 21.8331 21.7403C22.0556 21.5178 22.0556 21.1555 21.8331 20.933L16.0239 15.1237C18.6348 12.0153 18.5066 7.39182 15.6395 4.43205C12.5699 1.26252 7.51173 1.17979 4.33935 4.24947C2.84159 5.75008 2 7.78131 2 9.90099ZM3.14115 9.90099C3.14115 6.11809 6.20797 3.05127 9.99087 3.05127C11.8081 3.04556 13.5512 3.76734 14.835 5.05968C17.4853 7.72996 17.4853 12.0378 14.835 14.7081C12.1705 17.3926 7.83125 17.4097 5.14671 14.7452C3.86292 13.4585 3.14115 11.7183 3.14115 9.90099Z" fill="#86888C"/>
</svg>
