<svg width="20" height="20" viewBox="0 0 20 20" fill="none" xmlns="http://www.w3.org/2000/svg">
<path fill-rule="evenodd" clip-rule="evenodd" d="M2 8.32079C2 11.8515 4.86199 14.7135 8.3927 14.7135C9.93615 14.7176 11.4229 14.1583 12.5793 13.1509L17.2206 17.7923C17.305 17.879 17.4214 17.9269 17.5424 17.9269C17.6634 17.9269 17.7775 17.879 17.8665 17.7923C18.0445 17.6142 18.0445 17.3244 17.8665 17.1464L13.2191 12.499C15.3078 10.0122 15.2053 6.31346 12.9116 3.94564C10.4559 1.41002 6.40939 1.34383 3.87148 3.79958C2.67328 5.00006 2 6.62505 2 8.32079ZM2.91292 8.32079C2.91292 5.29448 5.36638 2.84101 8.3927 2.84101C9.84652 2.83645 11.241 3.41387 12.268 4.44775C14.3883 6.58397 14.3883 10.0302 12.268 12.1665C10.1364 14.3141 6.665 14.3278 4.51737 12.1961C3.49034 11.1668 2.91292 9.77461 2.91292 8.32079Z" fill="#86888C"/>
</svg>
