<svg width="20" height="20" viewBox="0 0 20 20" fill="none" xmlns="http://www.w3.org/2000/svg">
<path fill-rule="evenodd" clip-rule="evenodd" d="M3.98583 5.11668C3.99266 6.52817 4.04275 10.2595 4.34098 11.9852C4.67337 13.9158 8.35236 16.1241 9.99835 16.9437C11.6443 16.1218 15.3302 13.9135 15.6626 11.9852C15.9562 10.2573 16.004 6.5259 16.0109 5.1144C14.6517 5.1827 13.7957 4.61355 12.9739 4.06261C12.1566 3.51394 11.3848 2.99715 10.0029 2.99488H9.99835C8.61873 2.99488 7.84468 3.51394 7.02738 4.06261C6.20325 4.61582 5.34724 5.19863 3.98583 5.11668ZM9.99835 18C9.92778 18 9.85493 17.9841 9.7889 17.9522C9.18333 17.6631 3.86745 15.045 3.37115 12.1582C2.9864 9.92943 3.00006 4.77746 3.00006 4.55891C3.00006 4.4041 3.07063 4.26067 3.1913 4.16505C3.31196 4.07171 3.46904 4.03984 3.61474 4.07627C4.91696 4.28571 5.6045 3.81901 6.47872 3.23164C7.34155 2.65339 8.31822 2 9.99608 2H10.0029C11.6808 2.00228 12.6574 2.65566 13.518 3.23392C14.3922 3.82129 15.0843 4.28116 16.4047 4.07399C16.5459 4.05122 16.703 4.08993 16.8122 4.18554C16.9215 4.28116 16.9966 4.41548 16.9966 4.56118C16.9966 4.77974 17.0103 9.9317 16.6324 12.1605C16.1361 15.0472 10.8134 17.6653 10.2078 17.9545C10.1418 17.9841 10.0689 18 9.99835 18Z" fill="#86888C"/>
</svg>
