<svg width="20" height="20" viewBox="0 0 20 20" fill="none" xmlns="http://www.w3.org/2000/svg">
<path fill-rule="evenodd" clip-rule="evenodd" d="M15.679 11.992C15.975 10.2573 16.0228 6.50541 16.0296 5.10074C14.6637 5.16676 13.8077 4.60216 12.9813 4.04895C12.1617 3.50028 11.3876 2.98122 10.0012 2.97894H9.99663C8.61018 2.97894 7.83613 3.49801 7.01428 4.04895C6.19014 4.59989 5.34325 5.16448 3.96818 5.10074C3.97501 6.50541 4.02281 10.2573 4.32333 11.992C4.65799 13.9317 8.35292 16.1446 9.99891 16.9664C11.6472 16.1446 15.3467 13.9271 15.679 11.992ZM16.9995 4.55208C16.9995 4.77063 17.0154 9.92943 16.6352 12.1605C16.1298 15.095 10.4497 17.8384 10.2084 17.9545C10.1423 17.9863 10.0718 18 10.0012 18C9.93061 18 9.86004 17.9841 9.79401 17.9522C9.55269 17.8384 3.87711 15.0928 3.3717 12.1605C2.98468 9.92943 2.99834 4.77063 3.00062 4.55208C3.00062 4.40182 3.07119 4.26067 3.1873 4.16733C3.30568 4.07399 3.45822 4.04439 3.60164 4.07854C4.91297 4.28571 5.60506 3.81901 6.48155 3.23164C7.34438 2.65339 8.32105 2 9.99891 2H10.0057C11.6836 2.00228 12.658 2.65566 13.5208 3.23392C14.3973 3.82129 15.0917 4.28571 16.4189 4.07854C16.5578 4.05578 16.7126 4.09448 16.8196 4.18782C16.9244 4.27661 16.9972 4.41093 16.9995 4.55208ZM8.79003 11.5299L12.8401 7.43199C13.0291 7.24075 13.3364 7.24075 13.5254 7.43199C13.7143 7.62322 13.7143 7.93284 13.5254 8.12408L9.1338 12.568C9.04273 12.6591 8.9198 12.7114 8.79231 12.7114C8.66482 12.7114 8.5396 12.6591 8.45082 12.568L6.47927 10.5714C6.29032 10.3802 6.29032 10.0706 6.47927 9.87934C6.66823 9.68811 6.97557 9.68811 7.16453 9.87934L8.79003 11.5299Z" fill="#86888C"/>
</svg>
