<svg width="24" height="24" viewBox="0 0 24 24" fill="none" xmlns="http://www.w3.org/2000/svg">
<path fill-rule="evenodd" clip-rule="evenodd" d="M18.8488 14.49C19.2188 12.3216 19.2785 7.63176 19.2871 5.87592C17.5796 5.95845 16.5096 5.2527 15.4766 4.56118C14.4521 3.87536 13.4846 3.22652 11.7515 3.22368H11.7458C10.0127 3.22368 9.04517 3.87251 8.01785 4.56118C6.98768 5.24986 5.92906 5.95561 4.21022 5.87592C4.21876 7.63176 4.27852 12.3216 4.65416 14.49C5.07248 16.9146 9.69115 19.6807 11.7486 20.708C13.809 19.6807 18.4333 16.9089 18.8488 14.49ZM20.4993 5.1901C20.4993 5.46329 20.5193 11.9118 20.044 14.7006C19.4123 18.3688 12.3121 21.798 12.0104 21.9431C11.9279 21.9829 11.8397 22 11.7515 22C11.6633 22 11.575 21.9801 11.4925 21.9402C11.1909 21.798 4.09639 18.366 3.46463 14.7006C2.98085 11.9118 2.99793 5.46329 3.00077 5.1901C3.00077 5.00228 3.08899 4.82584 3.23412 4.70916C3.3821 4.59249 3.57277 4.55549 3.75205 4.59818C5.39121 4.85714 6.25632 4.27376 7.35194 3.53956C8.43048 2.81673 9.65131 2 11.7486 2H11.7572C13.8545 2.00285 15.0725 2.81958 16.151 3.5424C17.2466 4.27661 18.1146 4.85714 19.7737 4.59818C19.9473 4.56972 20.1408 4.6181 20.2745 4.73478C20.4054 4.84576 20.4965 5.01366 20.4993 5.1901ZM10.2375 13.9124L15.3001 8.78998C15.5363 8.55094 15.9205 8.55094 16.1567 8.78998C16.3929 9.02903 16.3929 9.41605 16.1567 9.65509L10.6672 15.21C10.5534 15.3238 10.3997 15.3893 10.2404 15.3893C10.081 15.3893 9.9245 15.3238 9.81352 15.21L7.34909 12.7143C7.11289 12.4752 7.11289 12.0882 7.34909 11.8492C7.58529 11.6101 7.96947 11.6101 8.20567 11.8492L10.2375 13.9124Z" fill="#86888C"/>
</svg>
