<svg width="28" height="28" viewBox="0 0 28 28" fill="none" xmlns="http://www.w3.org/2000/svg">
<path fill-rule="evenodd" clip-rule="evenodd" d="M22.9904 17.9812C23.4309 15.3893 23.5061 9.79567 23.5129 7.67843C21.4708 7.77746 20.1902 6.92715 18.954 6.10074C17.728 5.27775 16.5704 4.50256 14.4975 4.49915H14.4907C12.4178 4.49915 11.2602 5.27433 10.0308 6.10074C8.79804 6.92715 7.53794 7.79454 5.47533 7.67843C5.48558 9.79567 5.5607 15.3927 6.00806 17.9812C6.50664 20.8736 12.0251 24.1895 14.4941 25.4223C16.9665 24.1861 22.4953 20.8736 22.9904 17.9812ZM24.9984 6.83836C24.9984 7.16619 25.0223 14.8941 24.452 18.2373C23.7075 22.5674 15.7235 26.4946 14.8151 26.9283C14.7161 26.9761 14.6068 27 14.5009 27C14.3917 27 14.2858 26.9761 14.1834 26.9283C13.275 26.4946 5.30117 22.5674 4.55672 18.2373C3.9796 14.8941 4.00009 7.16619 4.00009 6.83836C4.00009 6.60956 4.10595 6.39101 4.28694 6.251C4.46793 6.11098 4.70015 6.05976 4.92212 6.1144C6.88228 6.42857 7.91358 5.72851 9.22491 4.84747C10.5157 3.98008 11.9842 3 14.5009 3H14.5078C17.0246 3.00341 18.4896 3.98349 19.7804 4.85088C21.0917 5.72851 22.1299 6.42516 24.1105 6.11098C24.3222 6.07684 24.5579 6.13489 24.7252 6.27832C24.8823 6.41833 24.995 6.61981 24.9984 6.83836ZM14.4975 18.6061C16.403 18.6061 16.9221 17.8958 16.9221 15.3005C16.9221 13.675 16.6933 12.8042 16.1503 12.391C15.7986 12.1246 15.2591 11.9949 14.4941 11.9949C13.7258 11.9949 13.1794 12.1281 12.8311 12.3978C12.2983 12.811 12.0695 13.6784 12.0695 15.3005C12.0729 17.8958 12.592 18.6061 14.4975 18.6061ZM14.5009 10.0211C12.8754 10.0211 12.8754 10.3557 12.8754 10.8201C12.8754 10.827 12.8789 10.8338 12.8789 10.8406C13.3399 10.6836 13.8692 10.6016 14.4975 10.6016C15.1327 10.6016 15.6654 10.687 16.1264 10.8441C16.1264 10.8338 16.1299 10.8304 16.1299 10.8201C16.1264 10.3557 16.1264 10.0211 14.5009 10.0211ZM17.9978 10.0245C17.9773 9.63859 18.2676 9.31076 18.6501 9.29027C19.0394 9.29368 19.3569 9.56346 19.3774 9.95276L19.456 11.4485C19.4731 11.7695 19.2716 12.0598 18.9676 12.1554L17.8851 12.49C18.0934 12.9886 18.2027 13.5521 18.2573 14.1258H19.0872C19.4696 14.1258 19.7804 14.44 19.7804 14.8258V15.8196C19.7804 16.2055 19.4696 16.5196 19.0872 16.5196C18.7047 16.5196 18.3974 16.2055 18.3974 15.8196V15.5259H18.3017C18.2949 16.2362 18.2403 16.926 18.0764 17.5441L18.9676 17.8173C19.2716 17.9129 19.4731 18.2032 19.456 18.5242L19.3774 20.0199C19.3569 20.3921 19.053 20.6824 18.6876 20.6824H18.6501C18.2676 20.6619 17.9773 20.3341 17.9978 19.9482L18.049 18.9989L17.4822 18.8247C16.9255 19.5521 16.0035 20.0131 14.4975 20.0131C12.9847 20.0131 12.0661 19.5487 11.5095 18.8179L10.9187 18.9989L10.9699 19.9482C10.9904 20.3341 10.6967 20.6619 10.3177 20.6824H10.2801C9.91472 20.6824 9.61079 20.3921 9.5903 20.0199L9.51176 18.5242C9.49468 18.2032 9.69616 17.9129 10.0001 17.8173L10.9153 17.5373C10.7548 16.9226 10.7001 16.2362 10.6933 15.5293H10.5977V15.823C10.5977 16.2089 10.2869 16.5231 9.90789 16.5231C9.52542 16.5231 9.21466 16.2089 9.21466 15.823V14.8293C9.21466 14.4434 9.52542 14.1292 9.90789 14.1292H10.7377C10.7923 13.5555 10.8982 12.9989 11.1065 12.5003L10.0001 12.1588C9.69616 12.0632 9.49468 11.7729 9.51176 11.4519L9.5903 9.95618C9.61079 9.57029 9.94204 9.30393 10.3177 9.29368C10.7001 9.31417 10.9904 9.64542 10.9699 10.0279L10.9187 10.9772L11.5231 11.1651C11.5129 11.0558 11.4958 10.9431 11.4958 10.8236C11.4958 9.57712 12.1754 9.05122 12.9301 8.81559C12.7423 8.54582 12.7559 8.17018 12.995 7.92772C13.2647 7.65452 13.7019 7.65452 13.9716 7.92772L14.4565 8.41605C14.4668 8.42629 14.4702 8.44337 14.4805 8.45361C14.4907 8.43995 14.4941 8.42629 14.5078 8.41605L14.9927 7.92772C15.2625 7.65452 15.6996 7.65452 15.9694 7.92772C16.2084 8.16676 16.2221 8.53216 16.0445 8.80535C16.8128 9.03073 17.5163 9.55663 17.5163 10.8236C17.5163 10.9397 17.5027 11.0455 17.489 11.1548L18.0559 10.9806L17.9978 10.0245ZM14.4565 13.0125C14.839 13.0125 15.1464 13.3267 15.1464 13.7126V17.4348C15.1464 17.8207 14.839 18.1349 14.4565 18.1349C14.0741 18.1349 13.7667 17.8207 13.7667 17.4348V13.7126C13.7667 13.3267 14.0775 13.0125 14.4565 13.0125Z" fill="#86888C"/>
</svg>
