<svg width="40" height="40" viewBox="0 0 40 40" fill="none" xmlns="http://www.w3.org/2000/svg">
<path d="M29.9459 38H16.8805C12.9023 38 10.9717 36.0336 10.9717 31.9829V25.7917C10.9717 25.2284 11.4302 24.7676 11.9905 24.7676C12.5508 24.7676 13.0092 25.2284 13.0092 25.7917V31.9829C13.0092 33.4578 13.2945 34.4666 13.8803 35.0657C14.466 35.6649 15.4491 35.9516 16.8805 35.9516H29.9459C31.3824 35.9516 32.3604 35.6597 32.9462 35.0657C33.5319 34.4717 33.8172 33.4578 33.8172 31.9829V8.01707C33.8172 5.1596 32.7322 4.04836 29.9459 4.04836H16.8805C15.444 4.04836 14.4609 4.34538 13.8752 4.94964C13.2894 5.55391 13.0092 6.55761 13.0092 8.01707V8.29872C13.0092 8.86202 12.5508 9.3229 11.9905 9.3229C11.4302 9.3229 10.9717 8.86202 10.9717 8.29872V8.01707C10.9717 5.99431 11.4454 4.52461 12.4183 3.52091C13.4065 2.49673 14.8684 2 16.8805 2H29.9459C33.8681 2 35.8547 4.02276 35.8547 8.01707V31.9829C35.8547 36.0336 33.9242 38 29.9459 38Z" fill="#86888C"/>
<path d="M23.4361 29.9858C24.4854 29.9858 25.1731 30.544 25.1731 31.7371C25.1731 32.3107 25.0152 32.7357 24.735 33.0276C24.4294 33.34 23.9862 33.4885 23.4361 33.4885C22.886 33.4885 22.4428 33.34 22.1372 33.0276C21.8571 32.7408 21.6992 32.3107 21.6992 31.7371C21.6992 30.5388 22.3817 29.9858 23.4361 29.9858ZM12.9226 9.50726V11.7297C13.7988 11.827 14.5577 12.0575 15.1842 12.4364L16.585 11.0282L17.9145 12.3647L16.5137 13.7781C16.8856 14.3926 17.125 15.1505 17.2167 16.0518H19.4273V17.9465H17.2167C17.1199 18.8478 16.8805 19.6057 16.5137 20.2202L17.9145 21.6285L16.585 22.965L15.1842 21.5568C14.5577 21.9357 13.8038 22.1713 12.9226 22.2634V24.4859H11.0379V22.2634C10.1618 22.1662 9.40284 21.9357 8.77631 21.5568L7.37553 22.965L6.04097 21.6285L7.44175 20.2202C7.06991 19.6057 6.83559 18.8478 6.73881 17.9465H4.52813V16.0518H6.73881C6.83559 15.1505 7.075 14.3926 7.44175 13.7781L6.04606 12.3698L7.38063 11.0333L8.78141 12.4415C9.40794 12.0626 10.1618 11.827 11.043 11.7349V9.51238L12.9226 9.50726ZM12.9226 7.97098H11.0379C10.1924 7.97098 9.50981 8.65719 9.50981 9.50726V10.4649C9.37228 10.5058 9.23984 10.5468 9.10741 10.5929L8.4605 9.94254C7.86453 9.34339 6.89672 9.34339 6.30075 9.94254L4.97128 11.2842C4.37531 11.8834 4.37531 12.8563 4.97128 13.4555L5.61819 14.1058C5.57234 14.239 5.5265 14.3721 5.49084 14.5104H4.52813C3.68256 14.5104 3 15.1966 3 16.0467V17.9414C3 18.7915 3.68256 19.4777 4.52813 19.4777H5.48066C5.52141 19.6159 5.56216 19.7491 5.608 19.8822L4.96619 20.5377C4.37022 21.1368 4.37022 22.1098 4.96619 22.709L6.30075 24.0455C6.89672 24.6447 7.86453 24.6447 8.4605 24.0455L9.10741 23.3952C9.23984 23.4413 9.37228 23.4873 9.50981 23.5232V24.4808C9.50981 25.3309 10.1924 26.0171 11.0379 26.0171H12.9226C13.7682 26.0171 14.4508 25.3309 14.4508 24.4808V23.5232C14.5883 23.4822 14.7207 23.4413 14.8532 23.3952L15.5001 24.0455C16.096 24.6447 17.0638 24.6447 17.6598 24.0455L18.9893 22.709C19.5853 22.1098 19.5853 21.1368 18.9893 20.5377L18.3424 19.8873C18.3882 19.7542 18.4341 19.6211 18.4697 19.4828H19.4223C20.2678 19.4828 20.9504 18.7966 20.9504 17.9465V16.0518C20.9504 15.2017 20.2678 14.5155 19.4223 14.5155H18.4697C18.429 14.3772 18.3882 14.2441 18.3424 14.111L18.9893 13.4606C19.5853 12.8615 19.5853 11.8885 18.9893 11.2893L17.6598 9.95278C17.0638 9.35363 16.096 9.35363 15.5001 9.95278L14.8532 10.6031C14.7207 10.557 14.5883 10.511 14.4508 10.4751V9.5175C14.4508 8.65719 13.7631 7.97098 12.9226 7.97098Z" fill="#86888C"/>
<path d="M11.9803 14.3414C13.6561 14.3414 14.6239 15.1812 14.6239 16.9991C14.6239 18.8171 13.6561 19.6569 11.9803 19.6569C10.3044 19.6569 9.33664 18.8171 9.33664 16.9991C9.33664 15.1812 10.3044 14.3414 11.9803 14.3414ZM11.9803 12.8051C10.7221 12.8051 9.70848 13.1687 8.96989 13.8805C8.20073 14.6282 7.80851 15.6728 7.80851 16.9991C7.80851 18.3255 8.20073 19.3701 8.96989 20.1178C9.70848 20.8347 10.7221 21.1932 11.9803 21.1932C13.2384 21.1932 14.2521 20.8296 14.9907 20.1178C15.7599 19.3701 16.1521 18.3255 16.1521 16.9991C16.1521 15.6728 15.7599 14.6282 14.9907 13.8805C14.2521 13.1636 13.2384 12.8051 11.9803 12.8051Z" fill="#86888C"/>
</svg>
