<svg width="24" height="24" viewBox="0 0 24 24" fill="none" xmlns="http://www.w3.org/2000/svg">
<path fill-rule="evenodd" clip-rule="evenodd" d="M19.5526 20.342V13.1024C19.3051 13.1451 19.0575 13.1678 18.8071 13.1707C17.9419 13.1707 17.1309 12.9231 16.5418 12.4934C15.9499 12.9231 15.1389 13.1707 14.2766 13.1707C13.4115 13.1707 12.6005 12.9231 12.0114 12.4934C11.4195 12.9231 10.6084 13.1707 9.74616 13.1707C8.87536 13.1707 8.06147 12.9202 7.46955 12.482C6.87763 12.9174 6.06375 13.1707 5.19294 13.1707C4.93398 13.1707 4.6864 13.1422 4.44735 13.1024V20.3391C4.44735 20.581 4.66648 20.7774 4.93682 20.7774H9.20262V16.0107C9.20262 15.3164 9.78315 14.7501 10.5003 14.7501H13.5196C14.2368 14.7501 14.8173 15.3164 14.8173 16.0107V20.7774H19.0575C19.3335 20.7802 19.5526 20.581 19.5526 20.342ZM13.5965 20.7802V16.0107C13.5965 16.005 13.5737 15.9737 13.5225 15.9737H10.5031C10.4519 15.9737 10.4291 16.005 10.4291 16.0107V20.7774C10.4263 20.7802 13.5965 20.7802 13.5965 20.7802ZM3.40865 10.4188C3.28628 10.6123 3.22652 10.7119 3.22652 10.8343C3.22652 11.3579 4.03472 11.9441 5.19579 11.9441C5.92999 11.9441 6.60444 11.6994 6.95731 11.3067C6.95731 11.3067 7.14798 11.1644 7.20774 11.1274C7.3045 11.0705 7.47809 11.0733 7.47809 11.0733C7.67729 11.0762 7.86511 11.1616 7.99602 11.3095C8.3432 11.6966 9.01764 11.9413 9.75185 11.9413C10.4804 11.9413 11.152 11.6994 11.5077 11.3124C11.5077 11.3124 11.6557 11.1644 11.7524 11.116C11.8406 11.0733 12.0142 11.0876 12.0142 11.0876C12.1935 11.1217 12.3956 11.1673 12.5265 11.3095C12.885 11.7023 13.5566 11.9441 14.2851 11.9441C15.0108 11.9441 15.691 11.6909 16.041 11.3209C16.041 11.3209 16.2146 11.1758 16.2829 11.1331C16.3739 11.0762 16.5504 11.0904 16.5504 11.0904C16.7439 11.0904 16.9317 11.1729 17.0626 11.3152C17.4155 11.7023 18.0871 11.9441 18.8156 11.9441C19.9767 11.9441 20.7849 11.3579 20.7849 10.8315C20.7849 10.6152 20.654 10.4359 20.543 10.3221L20.5401 10.3192C20.3238 10.0944 20.1616 9.63339 19.6693 7.84341C19.5811 7.53037 19.51 7.26287 19.4616 7.11205L18.2294 3.22758L5.77063 3.26458C5.59989 3.80243 5.36084 4.57932 5.10188 5.41313C4.29937 7.99708 3.76722 9.71307 3.65623 9.96919C3.58509 10.1314 3.49687 10.2765 3.40865 10.4188ZM22 10.8371C22 11.5941 21.5191 12.2515 20.7763 12.6755V20.342C20.7763 21.2583 20.008 22.0039 19.0632 22.0039H4.93682C3.99203 22.0039 3.22368 21.2583 3.22368 20.342V12.6755C2.48093 12.2486 2 11.5941 2 10.8343C2 10.3505 2.21628 10.0119 2.37279 9.76145C2.42971 9.67323 2.48662 9.58501 2.53216 9.48256C2.6346 9.23783 3.38589 6.81609 3.93227 5.04602C4.20546 4.16384 4.45874 3.3471 4.63233 2.79503C4.78315 2.33971 5.20148 2.03806 5.67672 2.03806L18.3147 2.00391H18.3176C18.7985 2.00391 19.2197 2.3084 19.3677 2.76657L20.6227 6.75063C20.6739 6.90715 20.7507 7.19173 20.8418 7.52468C20.9983 8.08814 21.3142 9.24067 21.4508 9.51387C21.8093 9.90089 22 10.3562 22 10.8371Z" fill="#86888C"/>
</svg>
