<svg width="20" height="20" viewBox="0 0 20 20" fill="none" xmlns="http://www.w3.org/2000/svg">
<path fill-rule="evenodd" clip-rule="evenodd" d="M16.9039 10.3848H17.1521C17.3503 10.3848 17.5097 10.2254 17.5097 10.0272C17.5097 9.82909 17.3503 9.66965 17.1521 9.66965H16.9995L17.9038 8.76542C18.045 8.62648 18.045 8.39871 17.9038 8.25978C17.7648 8.12084 17.5371 8.12084 17.3981 8.25978L15.986 9.67193H15.0385L15.5145 9.1959C15.6534 9.05696 15.6534 8.82919 15.5145 8.69026C15.3733 8.55132 15.1478 8.55132 15.0089 8.69026L14.0272 9.67193H10.9068L13.8974 6.68136H15.74C15.9381 6.68136 16.0976 6.52192 16.0976 6.32376C16.0976 6.12561 15.9381 5.96617 15.74 5.96617H14.6148L14.69 5.89101C14.8312 5.74979 14.8312 5.52431 14.69 5.38537C14.5511 5.24415 14.3233 5.24415 14.1843 5.38537L14.1684 5.40131V4.39459C14.1684 4.19643 14.009 4.03699 13.8108 4.03699C13.6127 4.03699 13.4532 4.19643 13.4532 4.39459V6.11878L10.3624 9.20045V6.13927L11.4102 5.09155C11.5491 4.95261 11.5491 4.72485 11.4102 4.58591C11.2712 4.44697 11.0435 4.44697 10.9045 4.58591L10.3624 5.12799V4.14404L11.8224 2.68406C11.9636 2.54513 11.9636 2.31736 11.8224 2.17842C11.6835 2.03948 11.4557 2.03948 11.3168 2.17842L10.3647 3.13048V2.88222C10.3647 2.68406 10.2053 2.52463 10.0071 2.52463C9.80896 2.52463 9.64952 2.68406 9.64952 2.88222V3.13048L8.69746 2.17842C8.55853 2.03948 8.33076 2.03948 8.19182 2.17842C8.05288 2.31736 8.05288 2.54513 8.19182 2.68406L9.6518 4.14404V5.03233L9.20538 4.58591C9.06644 4.44697 8.83868 4.44697 8.69974 4.58591C8.5608 4.72712 8.5608 4.95261 8.69974 5.09155L9.6518 6.04589V9.16629L6.66123 6.17572V4.39231C6.66123 4.19415 6.5018 4.03472 6.30364 4.03472C6.10548 4.03472 5.94605 4.19415 5.94605 4.39231V5.45825L5.87089 5.38309C5.73195 5.24188 5.50418 5.24188 5.36524 5.38309C5.22631 5.52203 5.22631 5.74979 5.36524 5.88873L5.44041 5.96389H4.37446C4.17631 5.96389 4.01687 6.12333 4.01687 6.32149C4.01687 6.51964 4.17631 6.67908 4.37446 6.67908H6.15787L9.14844 9.66965H6.08043L5.09876 8.68798C4.95754 8.54904 4.73205 8.54904 4.59312 8.68798C4.4519 8.82691 4.4519 9.05468 4.59312 9.19362L5.06915 9.66965H4.02598L2.61383 8.2575C2.47489 8.11856 2.24713 8.11856 2.10819 8.2575C1.96697 8.39871 1.96697 8.6242 2.10819 8.76314L3.01242 9.66737H2.85982C2.66166 9.66737 2.50222 9.82681 2.50222 10.025C2.50222 10.2231 2.66166 10.3826 2.85982 10.3826H3.1058L2.10591 11.3825C1.9647 11.5237 1.9647 11.7492 2.10591 11.8904C2.17652 11.961 2.26763 11.9951 2.35873 11.9951C2.44984 11.9951 2.54322 11.961 2.61155 11.8904L4.11936 10.3848H5.10331L4.59084 10.8973C4.44962 11.0362 4.44962 11.264 4.59084 11.4029C4.66145 11.4736 4.75255 11.5077 4.84366 11.5077C4.93477 11.5077 5.02815 11.4736 5.09648 11.4029L6.1146 10.3848H9.17577L6.08954 13.4711H4.36535C4.16719 13.4711 4.00776 13.6305 4.00776 13.8287C4.00776 14.0268 4.16719 14.1863 4.36535 14.1863H5.37208L5.35613 14.2022C5.2172 14.3411 5.2172 14.5689 5.35613 14.7078C5.42674 14.7784 5.51785 14.8126 5.60895 14.8126C5.70006 14.8126 5.79344 14.7784 5.86177 14.7078L5.93694 14.6327V15.7578C5.93694 15.956 6.09637 16.1154 6.29453 16.1154C6.49269 16.1154 6.65212 15.956 6.65212 15.7578V13.9152L9.64269 10.9246V14.045L8.69063 14.9971C8.55169 15.1383 8.55169 15.3638 8.69063 15.5027C8.82957 15.644 9.05733 15.644 9.19627 15.5027L9.64269 15.0563V16.0038L8.18271 17.4638C8.04377 17.6027 8.04377 17.8305 8.18271 17.9694C8.32165 18.1084 8.54942 18.1084 8.68835 17.9694L9.64041 17.0174V17.17C9.64041 17.3681 9.79985 17.5276 9.99801 17.5276C10.1962 17.5276 10.3556 17.3681 10.3556 17.17V17.0174L11.3077 17.9694C11.3783 18.0378 11.4694 18.0742 11.5605 18.0742C11.6516 18.0742 11.745 18.0401 11.8133 17.9694C11.9545 17.8282 11.9545 17.6027 11.8133 17.4638L10.3533 16.0038V14.9607L10.8954 15.5005C10.966 15.5711 11.0571 15.6052 11.1482 15.6052C11.2393 15.6052 11.3304 15.5711 11.401 15.5005C11.54 15.3615 11.54 15.1338 11.401 14.9948L10.3533 13.9471V10.8859L13.4396 13.9722V15.7533C13.4396 15.9514 13.599 16.1109 13.7971 16.1109C13.9953 16.1109 14.1547 15.9514 14.1547 15.7533V14.6873L14.1707 14.7033C14.2413 14.7739 14.3324 14.8081 14.4235 14.8081C14.5146 14.8081 14.608 14.7739 14.6763 14.7033C14.8175 14.5643 14.8175 14.3366 14.6763 14.1976L14.6604 14.1817H15.7263C15.9245 14.1817 16.0839 14.0223 16.0839 13.8241C16.0839 13.6259 15.9245 13.4665 15.7263 13.4665H13.9452L10.8704 10.3848H13.9907L15.0089 11.4029C15.0795 11.4736 15.1706 11.5077 15.2617 11.5077C15.3528 11.5077 15.4462 11.4736 15.5145 11.4029C15.6534 11.264 15.6534 11.0362 15.5145 10.8973L15.002 10.3848H15.8903L17.3959 11.8926C17.4665 11.9633 17.5576 11.9974 17.6487 11.9974C17.7398 11.9974 17.8332 11.9633 17.9015 11.8926C18.0427 11.7514 18.0427 11.5259 17.9015 11.3847L16.9039 10.3848Z" fill="#86888C"/>
</svg>
