<svg width="24" height="24" viewBox="0 0 24 24" fill="none" xmlns="http://www.w3.org/2000/svg">
<path fill-rule="evenodd" clip-rule="evenodd" d="M20.6298 13.4625H20.9402C21.1879 13.4625 21.3872 13.2632 21.3872 13.0155C21.3872 12.7678 21.1879 12.5685 20.9402 12.5685H20.7494L21.8797 11.4382C22.0562 11.2645 22.0562 10.9798 21.8797 10.8062C21.706 10.6325 21.4213 10.6325 21.2477 10.8062L19.4825 12.5714H18.2981L18.8931 11.9763C19.0668 11.8026 19.0668 11.5179 18.8931 11.3443C18.7166 11.1706 18.4347 11.1706 18.2611 11.3443L17.034 12.5714H13.1335L16.8717 8.83314H19.175C19.4227 8.83314 19.622 8.63385 19.622 8.38615C19.622 8.13846 19.4227 7.93916 19.175 7.93916H17.7685L17.8625 7.84521C18.039 7.66869 18.039 7.38683 17.8625 7.21316C17.6888 7.03664 17.4041 7.03664 17.2304 7.21316L17.2105 7.23309V5.97468C17.2105 5.72698 17.0112 5.52769 16.7635 5.52769C16.5158 5.52769 16.3165 5.72698 16.3165 5.97468V8.12991L12.453 11.982V8.15554L13.7627 6.84588C13.9364 6.67221 13.9364 6.3875 13.7627 6.21383C13.589 6.04016 13.3043 6.04016 13.1306 6.21383L12.453 6.89144V5.6615L14.278 3.83652C14.4545 3.66285 14.4545 3.37814 14.278 3.20447C14.1043 3.0308 13.8196 3.0308 13.646 3.20447L12.4559 4.39455V4.08422C12.4559 3.83652 12.2566 3.63723 12.0089 3.63723C11.7612 3.63723 11.5619 3.83652 11.5619 4.08422V4.39455L10.3718 3.20447C10.1982 3.0308 9.91345 3.0308 9.73978 3.20447C9.56611 3.37814 9.56611 3.66285 9.73978 3.83652L11.5648 5.6615V6.77186L11.0067 6.21383C10.8331 6.04016 10.5483 6.04016 10.3747 6.21383C10.201 6.39035 10.201 6.67221 10.3747 6.84588L11.5648 8.03881V11.9393L7.82654 8.20109V5.97183C7.82654 5.72414 7.62725 5.52484 7.37955 5.52484C7.13186 5.52484 6.93256 5.72414 6.93256 5.97183V7.30426L6.83861 7.21031C6.66494 7.03379 6.38023 7.03379 6.20656 7.21031C6.03288 7.38398 6.03288 7.66869 6.20656 7.84236L6.30051 7.93631H4.96808C4.72038 7.93631 4.52109 8.13561 4.52109 8.38331C4.52109 8.631 4.72038 8.8303 4.96808 8.8303H7.19734L10.9355 12.5685H7.10054L5.87345 11.3414C5.69693 11.1677 5.41507 11.1677 5.2414 11.3414C5.06488 11.5151 5.06488 11.7998 5.2414 11.9735L5.83644 12.5685H4.53247L2.76729 10.8033C2.59362 10.6296 2.30891 10.6296 2.13524 10.8033C1.95872 10.9798 1.95872 11.2617 2.13524 11.4354L3.26553 12.5657H3.07477C2.82708 12.5657 2.62778 12.765 2.62778 13.0127C2.62778 13.2603 2.82708 13.4596 3.07477 13.4596H3.38226L2.13239 14.7095C1.95587 14.886 1.95587 15.1679 2.13239 15.3444C2.22065 15.4327 2.33453 15.4754 2.44841 15.4754C2.5623 15.4754 2.67903 15.4327 2.76444 15.3444L4.6492 13.4625H5.87914L5.23855 14.1031C5.06203 14.2768 5.06203 14.5615 5.23855 14.7351C5.32681 14.8234 5.44069 14.8661 5.55458 14.8661C5.66846 14.8661 5.78519 14.8234 5.8706 14.7351L7.14324 13.4625H10.9697L7.11193 17.3203H4.95669C4.70899 17.3203 4.5097 17.5196 4.5097 17.7673C4.5097 18.015 4.70899 18.2143 4.95669 18.2143H6.2151L6.19517 18.2342C6.0215 18.4079 6.0215 18.6926 6.19517 18.8662C6.28343 18.9545 6.39731 18.9972 6.51119 18.9972C6.62508 18.9972 6.74181 18.9545 6.82722 18.8662L6.92117 18.7723V20.1787C6.92117 20.4264 7.12047 20.6257 7.36816 20.6257C7.61586 20.6257 7.81515 20.4264 7.81515 20.1787V17.8755L11.5534 14.1372V18.0377L10.3633 19.2278C10.1896 19.4043 10.1896 19.6862 10.3633 19.8599C10.537 20.0364 10.8217 20.0364 10.9953 19.8599L11.5534 19.3018V20.4862L9.72839 22.3112C9.55472 22.4849 9.55472 22.7696 9.72839 22.9433C9.90206 23.1169 10.1868 23.1169 10.3604 22.9433L11.5505 21.7532V21.9439C11.5505 22.1916 11.7498 22.3909 11.9975 22.3909C12.2452 22.3909 12.4445 22.1916 12.4445 21.9439V21.7532L13.6346 22.9433C13.7228 23.0287 13.8367 23.0742 13.9506 23.0742C14.0645 23.0742 14.1812 23.0315 14.2666 22.9433C14.4431 22.7667 14.4431 22.4849 14.2666 22.3112L12.4417 20.4862V19.1823L13.1193 19.857C13.2075 19.9453 13.3214 19.988 13.4353 19.988C13.5492 19.988 13.663 19.9453 13.7513 19.857C13.925 19.6834 13.925 19.3986 13.7513 19.225L12.4417 17.9153V14.0888L16.2994 17.9466V20.173C16.2994 20.4207 16.4987 20.62 16.7464 20.62C16.9941 20.62 17.1934 20.4207 17.1934 20.173V18.8406L17.2134 18.8605C17.3016 18.9488 17.4155 18.9915 17.5294 18.9915C17.6433 18.9915 17.76 18.9488 17.8454 18.8605C18.0219 18.6869 18.0219 18.4022 17.8454 18.2285L17.8255 18.2086H19.1579C19.4056 18.2086 19.6049 18.0093 19.6049 17.7616C19.6049 17.5139 19.4056 17.3146 19.1579 17.3146H16.9315L13.0879 13.4625H16.9884L18.2611 14.7351C18.3493 14.8234 18.4632 14.8661 18.5771 14.8661C18.691 14.8661 18.8077 14.8234 18.8931 14.7351C19.0668 14.5615 19.0668 14.2768 18.8931 14.1031L18.2525 13.4625H19.3629L21.2448 15.3473C21.3331 15.4355 21.447 15.4782 21.5608 15.4782C21.6747 15.4782 21.7915 15.4355 21.8769 15.3473C22.0534 15.1707 22.0534 14.8889 21.8769 14.7124L20.6298 13.4625Z" fill="#86888C"/>
</svg>
