<svg width="20" height="20" viewBox="0 0 20 20" fill="none" xmlns="http://www.w3.org/2000/svg">
<path d="M4.44565 15.1131C4.26521 14.9858 4.17676 14.8442 4.17676 14.6284C4.18383 14.3489 4.41735 14.126 4.69686 14.126C4.83131 14.1331 4.96222 14.1755 5.07544 14.2534C5.88566 14.7912 7.02139 15.329 8.33403 15.329C10.2977 15.329 11.5006 14.3206 11.5006 12.8275C11.5006 11.6033 10.8178 10.74 8.56754 10.4499L7.99083 10.3792C5.59554 10.0749 4.48103 8.92146 4.48103 7.13825C4.48103 5.01539 5.99181 3.69922 8.31634 3.69922C9.61128 3.69922 10.7116 4.04241 11.4653 4.50944C11.6988 4.65451 11.8084 4.83495 11.8084 5.01539C11.8084 5.28075 11.5962 5.50011 11.3273 5.50011H11.3237C11.1964 5.50011 11.0725 5.44704 10.9628 5.39043C10.1349 4.94109 9.27163 4.66866 8.28096 4.66866C6.50129 4.66866 5.51062 5.65933 5.51062 7.04626C5.51062 8.30583 6.28547 9.11605 8.39064 9.38495L8.94966 9.45571C11.3803 9.75999 12.5338 10.9134 12.5338 12.7497C12.5338 14.8195 11.0584 16.2949 8.21373 16.2949C6.69589 16.3019 5.34433 15.7429 4.44565 15.1131Z" fill="#86888C"/>
<path d="M8.18558 16.4715C6.84463 16.4715 5.44708 16.0293 4.3432 15.258C4.10968 15.0917 4 14.8936 4 14.6282V14.6247C4.01061 14.2532 4.32197 13.9489 4.69701 13.9489H4.70762C4.87745 13.9595 5.0402 14.0126 5.17819 14.1081C6.22193 14.8016 7.28336 15.1518 8.33771 15.1518C10.1528 15.1518 11.3274 14.239 11.3274 12.8273C11.3274 12.2117 11.147 11.7659 10.7649 11.4191C10.3191 11.0193 9.59374 10.7575 8.55 10.6231L7.97329 10.5523C6.75972 10.3966 5.83628 10.0251 5.22065 9.4378C4.61563 8.86463 4.30781 8.08625 4.30781 7.1345C4.30781 4.93733 5.88227 3.51855 8.32002 3.51855C9.54067 3.51855 10.6906 3.81576 11.5609 4.35708C11.8369 4.52691 11.989 4.76043 11.989 5.01163C11.989 5.37606 11.6954 5.67326 11.3309 5.67326C11.1576 5.67326 11.0019 5.6025 10.8851 5.54235H10.8816C10.0006 5.06471 9.17624 4.84181 8.28464 4.84181C6.68542 4.84181 5.69121 5.68387 5.69121 7.0425C5.69121 7.88811 6.00257 8.89647 8.41555 9.20429L8.97457 9.27505C10.2058 9.43072 11.1505 9.80576 11.7767 10.3931C12.3995 10.9769 12.7143 11.7659 12.7143 12.7424C12.7143 13.8427 12.3145 14.7697 11.5609 15.4243C10.7755 16.1036 9.61851 16.4645 8.21742 16.4645C8.20327 16.4715 8.19619 16.4715 8.18558 16.4715ZM4.54841 14.9679C5.04374 15.3146 6.38468 16.1177 8.18558 16.1177C8.19619 16.1177 8.20327 16.1177 8.21388 16.1177C10.8073 16.1177 12.357 14.8582 12.357 12.7495C12.357 10.9663 11.2036 9.91544 8.92858 9.6324L8.36956 9.56163C6.29977 9.29628 5.33386 8.49667 5.33386 7.04604C5.33386 6.29597 5.60276 5.65911 6.11225 5.20623C6.63235 4.7392 7.38596 4.49153 8.2811 4.49153C9.23285 4.49153 10.1138 4.72859 11.0444 5.23453C11.1257 5.27699 11.2283 5.32299 11.3239 5.32299C11.4937 5.32299 11.6317 5.185 11.6317 5.01517C11.6317 4.89134 11.5397 4.76397 11.3734 4.65782C10.5596 4.15187 9.47345 3.8759 8.31649 3.8759C6.05918 3.8759 4.65809 5.12485 4.65809 7.13803C4.65809 8.88939 5.78674 9.91898 8.01221 10.202L8.58892 10.2728C9.70696 10.4179 10.496 10.7044 10.9948 11.1538C11.4548 11.5642 11.6777 12.1126 11.6777 12.8238C11.6777 14.4513 10.365 15.5021 8.33418 15.5021C7.2126 15.5021 6.08394 15.1306 4.97652 14.3982C4.8916 14.3416 4.79254 14.3062 4.68993 14.2992C4.50949 14.3027 4.35735 14.4478 4.35027 14.6282C4.35381 14.7768 4.40688 14.8688 4.54841 14.9679Z" fill="#86888C"/>
<path d="M13.0791 17.8193C12.888 17.7875 12.7571 17.6035 12.789 17.4125L15.2515 2.47459C15.2833 2.28353 15.4673 2.15262 15.6584 2.18446C15.8494 2.2163 15.9803 2.40029 15.9485 2.59134L13.486 17.5292C13.4541 17.7203 13.2701 17.8512 13.0791 17.8193Z" fill="#86888C"/>
<path d="M13.1391 18C13.1108 18 13.0825 17.9965 13.0507 17.9929C12.7641 17.9434 12.566 17.671 12.6155 17.3808L15.078 2.44296C15.1028 2.30498 15.1771 2.18114 15.2939 2.09977C15.4106 2.01839 15.5486 1.98301 15.6901 2.00778C15.9767 2.05731 16.1748 2.32974 16.1253 2.61987L13.6592 17.5577C13.6168 17.816 13.3904 18 13.1391 18ZM13.1073 17.6462C13.2028 17.6603 13.2948 17.5967 13.309 17.5011L15.775 2.56326C15.7892 2.46773 15.7255 2.37574 15.63 2.35805C15.584 2.35097 15.538 2.36159 15.4991 2.38989C15.4601 2.4182 15.4354 2.45712 15.4283 2.50311L12.9658 17.441C12.9481 17.5365 13.0153 17.6285 13.1073 17.6462Z" fill="#86888C"/>
</svg>
