<svg width="28" height="28" viewBox="0 0 28 28" fill="none" xmlns="http://www.w3.org/2000/svg">
<path fill-rule="evenodd" clip-rule="evenodd" d="M9.92939 8.19476C9.78588 8.0615 9.71754 7.87016 9.71754 7.61731C9.71754 7.36105 9.78588 7.16629 9.92939 7.03303C10.0661 6.90661 10.2642 6.84169 10.5171 6.84169C10.7699 6.84169 10.9681 6.90661 11.1048 7.03303C11.2449 7.16629 11.32 7.36105 11.32 7.6139C11.32 7.86674 11.2449 8.0615 11.1048 8.19134C10.9681 8.31777 10.7665 8.38269 10.5171 8.38269C10.2642 8.38611 10.0695 8.32119 9.92939 8.19476ZM23.4157 21.0182C23.4738 20.533 23.2859 20.1606 23.0433 19.9385C22.8007 19.713 22.4112 19.5968 21.885 19.5968C21.3588 19.5968 20.9692 19.713 20.7232 19.9419C20.4704 20.1777 20.3405 20.5604 20.3405 21.0831C20.3405 21.1002 20.3303 21.1173 20.3303 21.1378L20.115 23.1811C20.1185 23.6321 20.2278 23.9636 20.4465 24.1651C20.6583 24.3599 21.0068 24.4624 21.4749 24.4624C21.9396 24.4624 22.2847 24.3633 22.5 24.1651C22.5513 24.1139 22.5923 24.0524 22.6333 23.9909C22.6298 23.9875 23.3235 21.7802 23.4157 21.0182ZM18.8405 20.2221C18.967 19.6617 19.2164 19.1902 19.6093 18.828C19.8519 18.6025 20.139 18.4385 20.4567 18.3121C20.4875 18.0011 20.5182 17.6868 20.5182 17.3485C20.5182 15.7084 20.1424 14.3895 19.4385 13.3884C19.3257 13.5148 19.2369 13.6617 19.1105 13.7779C17.9009 14.8986 16.1856 15.4658 14.0125 15.4658C11.8428 15.4658 10.1241 14.8986 8.918 13.7779C8.79157 13.6617 8.69932 13.5182 8.58656 13.3884C7.88611 14.3895 7.50683 15.705 7.50683 17.3485C7.50683 17.6868 7.53759 18.0011 7.56834 18.3121C7.88611 18.4385 8.17312 18.6059 8.41572 18.828C8.80524 19.1902 9.05809 19.6617 9.18451 20.2221C9.19818 20.2631 9.2221 20.3007 9.22551 20.3451L9.22893 20.3793C9.23576 20.4237 9.23918 20.4749 9.2426 20.5194L9.42027 22.2073C10.4727 23.0957 11.9453 23.5399 13.951 23.5399C13.9715 23.5399 13.992 23.5364 14.0125 23.5364C14.0364 23.5364 14.0501 23.5399 14.074 23.5399C16.0763 23.5399 17.5524 23.0923 18.6014 22.2073L18.779 20.5194C18.7859 20.4749 18.7893 20.4237 18.7961 20.3793L18.7995 20.3451C18.803 20.3007 18.8269 20.2665 18.8405 20.2221ZM7.582 24.1651C7.80068 23.9636 7.90661 23.6321 7.91344 23.1811L7.69818 21.1378C7.69818 21.1207 7.68451 21.1002 7.68451 21.0831C7.68451 20.5604 7.55467 20.1743 7.30524 19.9419C7.05581 19.713 6.66629 19.5968 6.14009 19.5968C5.6139 19.5968 5.22437 19.713 4.98178 19.9385C4.73918 20.164 4.55467 20.533 4.60934 21.0182C4.70159 21.7802 5.39522 23.9875 5.39522 23.9875C5.4328 24.0524 5.4738 24.1139 5.52847 24.1617C5.74374 24.3565 6.08542 24.459 6.55353 24.459C7.02506 24.4624 7.37016 24.3599 7.582 24.1651ZM5.36788 14.6526C4.03531 16.1595 4.89636 17.2802 5.52847 17.8132L5.72665 17.9772C5.76082 18.0046 5.81891 18.0421 5.86333 18.0729C5.89066 18.0695 5.92141 18.0661 5.94875 18.0661C5.93508 17.8235 5.90091 17.5979 5.90091 17.3451C5.90091 15.9544 6.15376 14.7551 6.60137 13.713C6.15376 13.9727 5.66857 14.3178 5.36788 14.6526ZM7.48975 5.86788C7.80068 5.02734 8.26879 4.3098 8.89066 3.72551C8.40888 3.53417 7.93736 3.68109 7.49317 4.18337C6.95672 4.79157 6.96355 5.35877 7.48975 5.86788ZM14.0125 3.53759C12.2699 3.53759 10.9305 3.96128 10.0285 4.80524C9.09567 5.67312 8.62073 6.99886 8.62073 8.74146C8.62073 10.4841 9.09567 11.803 10.0285 12.6674C10.7836 13.3679 11.8633 13.7608 13.2198 13.8736V10.0535C13.0319 9.97494 12.861 9.87585 12.7175 9.7426C12.5296 9.56834 12.4237 9.40433 12.3349 9.15148C12.3349 9.15148 12.2802 8.96697 12.2802 8.82688C12.2802 8.70729 12.3485 8.53645 12.3485 8.53645C12.4374 8.35535 12.5296 8.22551 12.6731 8.08884C13.0046 7.78474 13.4556 7.62756 14.0091 7.61731C14.5661 7.62756 15.0171 7.78474 15.3451 8.08884C15.492 8.2221 15.5843 8.35535 15.6731 8.53645C15.6731 8.53645 15.7415 8.70729 15.7415 8.82688C15.7415 8.96355 15.6902 9.15148 15.6902 9.15148C15.6014 9.40775 15.4954 9.56834 15.3075 9.7426C15.164 9.87585 14.9932 9.97494 14.8052 10.0535V13.8736C16.1583 13.7608 17.2415 13.3679 17.9966 12.6674C18.9294 11.803 19.4009 10.4841 19.4009 8.74146C19.4009 6.99886 18.9294 5.67312 17.9966 4.80524C17.0945 3.96469 15.7551 3.53759 14.0125 3.53759ZM20.5319 4.17995C20.0877 3.67768 19.6162 3.53417 19.1344 3.7221C19.7563 4.30638 20.2278 5.02392 20.5387 5.86447C21.0615 5.35877 21.0718 4.79157 20.5319 4.17995ZM22.6572 14.6526C22.3599 14.3178 21.8747 13.9761 21.4237 13.7164C21.8713 14.7585 22.1207 15.9579 22.1207 17.3485C22.1207 17.5979 22.09 17.8269 22.0729 18.0695C22.1002 18.0695 22.131 18.0729 22.1583 18.0763C22.2062 18.0456 22.2642 18.0046 22.295 17.9806L22.4966 17.8166C23.1287 17.2768 23.9898 16.1595 22.6572 14.6526ZM24.1572 18.828C24.7107 19.3405 24.9909 20 25.0148 20.8986C25.0148 20.9362 25.008 21.0797 24.9943 21.1651C24.9841 21.2608 24.9431 21.4932 24.9431 21.4932L24.1503 24.4898C24.1435 24.5239 24.1196 24.5513 24.1059 24.5854C24.0991 24.6093 24.0991 24.6333 24.0854 24.6538C24.0752 24.6674 24.0615 24.6777 24.0581 24.6913C24.0342 24.7255 24.0137 24.7528 23.9829 24.7836C23.8736 24.9579 23.7574 25.1321 23.6071 25.2722C23.0843 25.754 22.3667 26 21.4681 26C20.5729 26 19.8485 25.754 19.3292 25.2722C18.9875 24.9579 18.762 24.5547 18.6321 24.0831C17.4191 24.7494 15.9123 25.0809 14.0706 25.0809C14.0467 25.0809 14.033 25.0774 14.0091 25.0774C13.9886 25.0774 13.9715 25.0809 13.9476 25.0809C12.1025 25.0809 10.5991 24.7494 9.38269 24.0831C9.25285 24.5547 9.03075 24.9579 8.68907 25.2722C8.16287 25.754 7.44533 26 6.55011 26C5.6549 26 4.93394 25.754 4.41116 25.2722C4.2574 25.1321 4.14465 24.9613 4.03189 24.7836C4.00797 24.7528 3.98064 24.7255 3.96014 24.6913C3.9533 24.6777 3.93622 24.6674 3.92939 24.6538C3.91913 24.6298 3.91913 24.6059 3.90888 24.5854C3.89522 24.5513 3.87472 24.5239 3.86446 24.4898L3.07517 21.4932C3.07517 21.4932 3.03075 21.2642 3.0205 21.1651C3.00683 21.0797 3 20.9396 3 20.8986C3.02733 20 3.3041 19.3405 3.85763 18.828C3.93622 18.7563 4.02506 18.6982 4.11048 18.6401C2.99317 17.4681 2.41913 15.5888 4.13781 13.6515C4.87585 12.8178 6.47153 11.8747 7.35649 11.7449C7.42141 11.7346 7.44875 11.7107 7.5205 11.697L7.51025 11.6697C7.18223 10.8189 7.00456 9.8451 7.00456 8.74146C7.00456 8.31093 7.04898 7.918 7.10023 7.52506C7.07631 7.51139 7.04556 7.51822 7.02164 7.50456C6.84055 7.3918 6.74146 7.32005 6.67995 7.26879L6.50911 7.13212C5.52164 6.29841 4.8656 4.76424 6.26652 3.18565C7.65718 1.61731 9.31093 1.98292 10.3189 2.77563C11.344 2.27677 12.5638 2 14.0057 2C15.4476 2 16.6674 2.27677 17.6925 2.77563C18.7005 1.98292 20.3542 1.61731 21.7415 3.18565C23.139 4.76424 22.4863 6.29841 21.4989 7.13212L21.3314 7.26879C21.2665 7.32005 21.1674 7.3918 20.9863 7.50456C20.9624 7.51822 20.9351 7.51481 20.9077 7.52506C20.9556 7.918 21.0034 8.31093 21.0034 8.74146C21.0034 9.84852 20.8292 10.8189 20.5011 11.6697L20.4909 11.697C20.5592 11.7107 20.5866 11.7346 20.6515 11.7449C21.5399 11.8747 23.1355 12.8178 23.8736 13.6515C25.5888 15.5888 25.0148 17.4681 23.8975 18.6401C23.9863 18.7016 24.0786 18.7563 24.1572 18.828ZM17.508 8.38269C17.2551 8.38269 17.0569 8.31777 16.9203 8.19134C16.7768 8.0615 16.705 7.86674 16.705 7.61048C16.705 7.35763 16.7768 7.16287 16.9203 7.03303C17.0569 6.90319 17.2585 6.83827 17.508 6.83827C17.7608 6.83827 17.959 6.90319 18.0957 7.03303C18.2392 7.16287 18.3075 7.35763 18.3075 7.6139C18.3075 7.86674 18.2392 8.0615 18.0957 8.19134C17.959 8.32119 17.7608 8.38269 17.508 8.38269Z" fill="#86888C"/>
</svg>
