<svg width="24" height="24" viewBox="0 0 24 24" fill="none" xmlns="http://www.w3.org/2000/svg">
<path fill-rule="evenodd" clip-rule="evenodd" d="M4.77177 11.0381C5.22709 11.0381 5.54582 10.7194 5.54582 10.2641C5.54582 9.80876 5.22709 9.49004 4.77177 9.49004C4.31645 9.49004 3.99772 9.80876 3.99772 10.2641C3.99772 10.7223 4.3136 11.0381 4.77177 11.0381ZM20.3836 11.0865C20.1303 11.3227 20.1161 11.7211 20.3523 11.9744L20.3865 12.0085C20.6227 12.2248 20.7507 12.5948 20.7507 13.0757C20.7507 14.0404 19.9055 14.1912 19.5413 14.2112H16.095L13.366 14.2908C13.0273 14.2994 12.757 14.5783 12.7598 14.9198C12.7598 16.3597 12.7627 17.8025 12.7684 19.2425L12.774 19.3648C12.7769 20.3552 12.3899 20.7507 11.4849 20.7507C11.152 20.7507 10.7023 20.6938 10.4405 20.4092C10.247 20.2015 10.1645 19.8856 10.1929 19.4673L10.21 19.2738C10.2186 19.1884 10.2271 19.1059 10.2328 19.0063C10.2356 18.9835 10.2385 18.9607 10.2385 18.938C10.2641 17.7627 10.2812 16.2544 10.1645 15.025C9.98805 13.1753 8.35458 12.1195 7.58338 11.724V11.7154C7.58338 11.6983 7.58907 11.6841 7.58907 11.667V4.02618L10.1047 3.99203C10.4377 3.99203 10.7678 3.89812 11.1833 3.7786L11.4024 3.71599C12.1451 3.49972 12.9846 3.25213 15.099 3.25213C18.5936 3.25213 18.8127 3.59078 19.0632 4.26522C19.1485 4.82015 19.066 5.06773 18.9806 5.2214C18.8156 5.5259 18.9294 5.90438 19.2311 6.06944C19.251 6.08082 19.2681 6.08936 19.288 6.09789C19.7092 6.27149 20.2129 6.60444 20.2129 7.17644C20.2129 7.57769 20.1218 7.89357 19.9539 8.09277C19.8401 8.22652 19.786 8.40581 19.8088 8.5794C19.8315 8.75299 19.9283 8.91235 20.0734 9.0148C20.5202 9.32214 20.7479 9.70063 20.7479 10.136C20.7536 10.5401 20.6283 10.8589 20.3836 11.0865ZM6.10928 3.72168C6.23164 3.72168 6.3284 3.82129 6.33694 3.94081V11.6813C6.33125 11.8036 6.23164 11.9004 6.10928 11.9004H3.47695C3.34889 11.9004 3.24644 11.7951 3.24644 11.667V3.95504C3.24644 3.82698 3.35174 3.72453 3.47695 3.72453L6.10928 3.72168ZM21.613 11.5475C21.8293 11.2089 22 10.7479 22 10.1332C22 9.46727 21.7325 8.84974 21.2402 8.35743C21.3682 8.05862 21.465 7.66875 21.465 7.17075C21.465 6.37109 21.0467 5.67957 20.2982 5.21002C20.3694 4.85714 20.3637 4.45874 20.2869 3.99488C20.2812 3.95788 20.2698 3.91804 20.2555 3.88389C19.6835 2.3358 18.7701 2 15.099 2C12.8053 2 11.8321 2.28458 11.0495 2.51508L10.8389 2.57484C10.5174 2.66875 10.2584 2.74274 10.0962 2.74274L7.24758 2.77974C7.17928 2.77974 7.11668 2.80535 7.05122 2.81958C6.78657 2.59761 6.45361 2.47524 6.10928 2.4724H3.47695C2.66306 2.4724 2 3.13546 2 3.95219V11.667C2 12.4838 2.66306 13.1468 3.47695 13.1468H6.10928C6.44792 13.1468 6.75811 13.0273 7.00854 12.8338C7.56631 13.1184 8.80421 13.8924 8.92373 15.1446C9.03472 16.2857 9.02049 17.7114 8.99488 18.8412L8.99203 18.8839C8.98919 18.9892 8.98065 19.066 8.97211 19.1485L8.95219 19.3819C8.88389 20.3466 9.23108 20.9357 9.52988 21.2601C9.97951 21.7439 10.6568 22 11.4878 22C13.0757 22 14.0262 21.0381 14.0262 19.4246L14.0233 19.325L14.0176 19.1912C14.0176 17.9135 14.0148 16.3597 14.012 15.5202L16.115 15.4576H19.5811C20.8048 15.3921 22.0028 14.6266 22.0028 13.0729C22 12.3927 21.8264 11.9004 21.613 11.5475Z" fill="#86888C"/>
</svg>
