<svg width="24" height="24" viewBox="0 0 24 24" fill="none" xmlns="http://www.w3.org/2000/svg">
<path fill-rule="evenodd" clip-rule="evenodd" d="M18.6841 18.6854V7.39858H5.31178V18.7024C5.30893 18.748 5.26626 19.6442 5.81822 20.2275C6.16249 20.5916 6.68884 20.7737 7.38591 20.7737H16.5986C16.6327 20.7737 17.5517 20.7993 18.1463 20.2246C18.5048 19.8775 18.6841 19.3597 18.6841 18.6854ZM8.43578 4.33433V6.17516H15.5572V4.34287C15.5658 4.15508 15.5373 3.70555 15.2955 3.45517C15.1504 3.29869 14.9313 3.22471 14.6269 3.22471L9.35761 3.22756C9.30071 3.22471 8.95644 3.2048 8.72029 3.42103C8.53251 3.59743 8.43578 3.90471 8.43578 4.33433ZM21.3842 6.178C21.7227 6.178 21.9959 6.45114 21.9959 6.78971C21.9959 7.12829 21.7227 7.40142 21.3842 7.40142H19.9047V18.6882C19.9047 19.7125 19.5945 20.529 18.9828 21.1152C18.1151 21.9459 16.9315 22 16.6356 22C16.5986 22 16.5758 22 16.5701 21.9972H7.38591C6.3332 21.9972 5.50241 21.6813 4.92199 21.0554C4.00869 20.0795 4.0912 18.7167 4.09405 18.6598L4.0912 7.39858H2.61171C2.27314 7.39858 2 7.12544 2 6.78687C2 6.44829 2.27314 6.17516 2.61171 6.17516H7.2152V4.33433C7.2152 3.53768 7.4485 2.92313 7.90942 2.50773C8.5382 1.9387 9.32916 1.9956 9.41736 2.00698L14.6269 2.00129C15.4434 2.00129 15.93 2.33987 16.1917 2.62438C16.8319 3.31007 16.7835 4.27743 16.7778 4.38554L16.7807 6.17516H21.3842V6.178ZM9.91242 17.8318C9.57385 17.8318 9.30071 17.5587 9.30071 17.2201V10.9607C9.30071 10.6222 9.57385 10.349 9.91242 10.349C10.2482 10.349 10.5241 10.6222 10.5241 10.9607V17.2201C10.5213 17.5587 10.2482 17.8318 9.91242 17.8318ZM14.0834 17.8318C13.7449 17.8318 13.4717 17.5587 13.4717 17.2201V10.9607C13.4717 10.6222 13.7449 10.349 14.0834 10.349C14.4192 10.349 14.6952 10.6222 14.6952 10.9607V17.2201C14.6952 17.5587 14.422 17.8318 14.0834 17.8318Z" fill="#86888C"/>
</svg>
