<svg width="40" height="40" viewBox="0 0 40 40" fill="none" xmlns="http://www.w3.org/2000/svg">
<path fill-rule="evenodd" clip-rule="evenodd" d="M32.0314 32.0337V11.7174H7.9612V32.0644C7.95608 32.1463 7.87926 33.7596 8.8728 34.8094C9.49248 35.465 10.4399 35.7927 11.6946 35.7927H28.2774C28.3389 35.7927 29.9931 35.8388 31.0634 34.8043C31.7087 34.1795 32.0314 33.2474 32.0314 32.0337ZM13.5844 6.20179V9.51528H26.403V6.21716C26.4184 5.87915 26.3672 5.06999 25.9319 4.61931C25.6707 4.33764 25.2763 4.20448 24.7284 4.20448L15.2437 4.20961C15.1413 4.20448 14.5216 4.16864 14.0965 4.55785C13.7585 4.87538 13.5844 5.42848 13.5844 6.20179ZM36.8915 9.5204C37.5009 9.5204 37.9926 10.012 37.9926 10.6215C37.9926 11.2309 37.5009 11.7226 36.8915 11.7226H34.2284V32.0388C34.2284 33.8825 33.6702 35.3523 32.5691 36.4073C31.0071 37.9027 28.8766 38 28.344 38C28.2774 38 28.2365 38 28.2262 37.9949H11.6946C9.79975 37.9949 8.30433 37.4264 7.25958 36.2997C5.61564 34.5431 5.76416 32.09 5.76928 31.9876L5.76416 11.7174H3.10108C2.49165 11.7174 2 11.2258 2 10.6164C2 10.0069 2.49165 9.51528 3.10108 9.51528H11.3874V6.20179C11.3874 4.76783 11.8073 3.66163 12.637 2.91391C13.7688 1.88965 15.1925 1.99208 15.3513 2.01256L24.7284 2.00232C26.1982 2.00232 27.0739 2.61176 27.5451 3.12389C28.6974 4.35812 28.6103 6.09937 28.6001 6.29398L28.6052 9.51528H36.8915V9.5204ZM16.2424 30.4973C15.6329 30.4973 15.1413 30.0056 15.1413 29.3962V18.1293C15.1413 17.5199 15.6329 17.0282 16.2424 17.0282C16.8467 17.0282 17.3434 17.5199 17.3434 18.1293V29.3962C17.3383 30.0056 16.8467 30.4973 16.2424 30.4973ZM23.7502 30.4973C23.1408 30.4973 22.6491 30.0056 22.6491 29.3962V18.1293C22.6491 17.5199 23.1408 17.0282 23.7502 17.0282C24.3545 17.0282 24.8513 17.5199 24.8513 18.1293V29.3962C24.8513 30.0056 24.3596 30.4973 23.7502 30.4973Z" fill="#86888C"/>
</svg>
