<svg width="24" height="24" viewBox="0 0 24 24" fill="none" xmlns="http://www.w3.org/2000/svg">
<path fill-rule="evenodd" clip-rule="evenodd" d="M20.5261 20.7194H3.47958C3.37431 20.7194 3.28041 20.6255 3.28041 20.5202V13.2777C3.28041 13.1753 3.37431 13.0842 3.47958 13.0842H9.11339V13.3261C9.11339 14.8657 10.3653 16.1207 11.9047 16.1207H12.101C13.6403 16.1207 14.8952 14.8685 14.8952 13.3261V13.0842H20.529C20.6428 13.0842 20.7082 13.1668 20.7224 13.2237L20.7281 20.5231C20.7253 20.6283 20.6371 20.7194 20.5261 20.7194ZM4.89942 3.5794C4.90511 3.5424 4.90795 3.50825 4.90795 3.4741C4.90795 3.36596 4.99616 3.27775 5.10428 3.27775L18.8986 3.29197C19.0323 3.29197 19.1603 3.43995 19.1973 3.62493L20.4948 11.8008H14.2578C13.905 11.8008 13.6204 12.0882 13.6204 12.4411V13.3204C13.6204 14.1571 12.9404 14.8344 12.101 14.8344H11.9047C11.0681 14.8344 10.3881 14.1542 10.3881 13.3204V12.4411C10.3881 12.0882 10.1036 11.8008 9.75075 11.8008H3.51942L4.89942 3.5794ZM21.9886 13.1668C21.9858 13.1468 21.9943 13.1326 21.9915 13.1127L20.4521 3.4115C20.3013 2.58907 19.664 2.01423 18.8986 2.01423L5.10428 2C4.31327 2 3.66453 2.62891 3.63323 3.41719L2.01423 13.0444C2.01138 13.07 2.01707 13.0956 2.01707 13.1212C2.01138 13.1725 2 13.2237 2 13.2777V20.5202C2 21.3369 2.66012 22 3.47389 22H20.5261C21.3399 22 22 21.3369 22 20.5202V13.2777C22 13.2379 21.9915 13.2009 21.9886 13.1668Z" fill="#86888C"/>
</svg>
