<svg width="40" height="40" viewBox="0 0 40 40" fill="none" xmlns="http://www.w3.org/2000/svg">
<path fill-rule="evenodd" clip-rule="evenodd" d="M28.3699 25.7729L20.9835 25.819V21.2038C20.9937 21.1884 21.0142 21.1833 21.0245 21.1679L24.9431 15.8253C25.3068 15.3284 25.1992 14.6369 24.7075 14.2681C24.2208 13.9044 23.5293 14.0068 23.1656 14.4935L23.1605 14.4986L20.9784 17.4747V15.5845C20.9784 14.9698 20.4866 14.473 19.8719 14.473C19.2624 14.4781 18.7655 14.975 18.7655 15.5845V22.1207L15.9533 19.2726C15.5282 18.8372 14.8315 18.8321 14.3961 19.2573L14.3859 19.2675C13.9505 19.7029 13.9505 20.4047 14.3808 20.8401L18.7655 25.276V25.819H9.93967C8.21855 25.819 4.20774 25.2607 4.20774 20.082C4.20774 17.1725 5.44735 15.3386 7.89072 14.642C8.37735 14.5037 8.70518 14.0529 8.69493 13.5509L8.68469 13.3717C8.68469 4.88389 16.0507 4.22823 18.3096 4.22823C19.5902 4.22823 26.0546 4.5202 27.5862 10.2573C27.7092 10.7285 28.1343 11.0666 28.6209 11.082C30.7775 11.1434 35.7871 11.9732 35.7871 18.3813C35.7923 25.2402 30.1116 25.7729 28.3699 25.7729ZM29.4866 8.90495C27.2072 2.3432 19.8207 2 18.3147 2C16.3734 2 6.84064 2.5276 6.48719 12.7775C4.53045 13.5663 2 15.4769 2 20.082C2 25.9522 6.10302 28.0472 9.93967 28.0472H18.7706V36.8884C18.7706 37.5031 19.2675 38 19.8771 38C20.4866 38 20.9835 37.498 20.9835 36.8884V28.0421L28.3699 27.996C32.811 27.996 38 25.4758 38 18.3762C38 11.9528 33.7433 9.29937 29.4866 8.90495Z" fill="#86888C"/>
</svg>
