<svg width="40" height="40" viewBox="0 0 40 40" fill="none" xmlns="http://www.w3.org/2000/svg">
<path d="M32.1388 31.8887L8.38295 31.873C6.30405 31.873 4.69525 31.2924 3.59313 30.1521C2.53278 29.0536 2 27.4844 2 25.481V14.3396C2 10.2492 4.26694 8 8.38295 8L32.1388 8.01569C36.2548 8.01569 38.5217 10.2649 38.5217 14.3553V25.4967C38.5217 27.4949 37.9837 29.0641 36.9286 30.1678C35.8265 31.3133 34.2177 31.8887 32.1388 31.8887ZM8.38295 10.0818C6.88384 10.0818 5.77649 10.4427 5.08701 11.1489C4.41842 11.8341 4.0789 12.9064 4.0789 14.3396V25.481C4.0789 28.4207 5.44742 29.7911 8.38295 29.7911L32.1388 29.8068C35.0743 29.8068 36.4428 28.4364 36.4428 25.4967V14.3553C36.4428 12.9221 36.1033 11.8498 35.4347 11.1646C34.7453 10.4584 33.6327 10.0975 32.1388 10.0975L8.38295 10.0818Z" fill="#86888C"/>
<path d="M24.8104 36L15.6904 35.9843C15.1159 35.9843 14.651 35.5188 14.651 34.9434C14.651 34.368 15.1159 33.9025 15.6904 33.9025L24.8104 33.9182C25.385 33.9182 25.8499 34.3837 25.8499 34.9591C25.8499 35.5345 25.385 36 24.8104 36Z" fill="#86888C"/>
</svg>
