<svg width="20" height="20" viewBox="0 0 20 20" fill="none" xmlns="http://www.w3.org/2000/svg">
<path fill-rule="evenodd" clip-rule="evenodd" d="M15.7264 16.8726C17.0972 16.7633 17.3182 15.6657 17.3529 15.0101H15.7264V16.8726ZM2.10042 15.025C2.12525 15.3404 2.2221 15.9165 2.60453 16.3262C2.86528 16.6044 3.24026 16.7732 3.72699 16.8403V15.025H2.10042ZM2.8479 3.42542C2.67158 3.53717 2.16995 3.87987 2.10539 5.02716H3.72699V3.13239C3.47369 3.16219 3.14341 3.23421 2.8479 3.42542ZM17.3579 5.01474C17.343 4.71675 17.266 4.10088 16.8637 3.66879C16.603 3.38817 16.2206 3.21434 15.7239 3.14481V5.01474H17.3579ZM15.7264 13.9H17.3604V12.05H15.7264V13.9ZM15.7264 7.97734H17.3579V6.12479H15.7264V7.97734ZM15.7264 10.9375H17.3579V9.0849H15.7264V10.9375ZM4.81717 3.11501V16.8726H14.6362V3.11004C11.6314 3.11004 6.56294 3.11501 4.81717 3.11501ZM2.09297 13.9149H3.72699V12.0649H2.09297V13.9149ZM2.09297 7.98479H3.72699V6.13969H2.09297V7.98479ZM2.09297 9.09483V10.9524H3.72699V9.09483H2.09297ZM15.2223 2C18.7039 2 18.4481 5.28046 18.4481 5.28046C18.4481 5.28046 18.4506 11.007 18.4506 14.6997C18.4506 17.7244 16.2851 18 15.5029 18C15.3315 18 15.2247 17.9851 15.2247 17.9851H4.21124C0.784264 17.9851 1.0028 14.7171 1.0028 14.7171C1.0028 14.7171 1.00031 8.81173 1.00031 5.26308C1.00031 2.21605 3.3545 2 4.02251 2C4.13426 2 4.19634 2.00497 4.19634 2.00497C4.19634 2.00497 11.7407 2 15.2223 2ZM7.7301 12.2884L11.6239 9.99876L7.7301 7.70914V12.2884ZM12.9873 9.517C13.1561 9.61633 13.2604 9.80009 13.2604 9.99876C13.2604 10.1974 13.1561 10.3812 12.9873 10.4805L7.45693 13.7312C7.3725 13.7808 7.27813 13.8057 7.18377 13.8057C7.0894 13.8057 6.99504 13.7808 6.9106 13.7312C6.74174 13.6318 6.63744 13.4481 6.63744 13.2494V6.7481C6.63744 6.54943 6.74174 6.36567 6.9106 6.26634C7.07947 6.167 7.28807 6.167 7.45693 6.26634L12.9873 9.517Z" fill="#86888C"/>
</svg>
