<svg width="28" height="28" viewBox="0 0 28 28" fill="none" xmlns="http://www.w3.org/2000/svg">
<path fill-rule="evenodd" clip-rule="evenodd" d="M23.5475 18.54V15.1723C23.5475 15.022 23.4299 14.9044 23.2862 14.9044H13.9932C13.01 14.9044 12.2129 15.7243 12.2129 16.7304V16.9786C12.2129 17.9847 13.0132 18.8046 13.9932 18.8046H23.2862C23.4299 18.8078 23.5475 18.687 23.5475 18.54ZM21.7771 22.12L21.7738 20.2549H13.9932C12.2358 20.2549 10.8018 18.785 10.8018 16.9819V16.7336C10.8018 14.9273 12.2325 13.4606 13.9932 13.4606H21.7575L21.7542 11.7131C21.7804 11.1807 21.6628 10.7789 21.4145 10.5045C21.163 10.2269 20.7776 10.0799 20.3039 10.0766L4.88956 10.0799V10.0701C4.3604 10.0701 3.85737 9.91328 3.41313 9.64217V22.0089C3.387 22.5316 3.50459 22.9333 3.75611 23.2045C4.01089 23.4854 4.41266 23.6389 4.88956 23.6422L20.3039 23.6389C20.6992 23.6389 21.0683 23.4821 21.3459 23.1947C21.6236 22.9072 21.7771 22.525 21.7771 22.12ZM3.41313 7.06494V7.10414C3.41313 7.47324 3.54705 7.82275 3.7855 8.1004C3.81817 7.1564 4.58252 6.39532 5.52652 6.39532L18.6185 5.45458V4.5857L4.9353 5.54931C4.49432 5.55257 4.12195 5.70936 3.8443 5.99354C3.56665 6.28099 3.41313 6.6599 3.41313 7.06494ZM19.3207 6.85589L5.57552 7.84235C5.34033 7.84562 5.18681 7.98608 5.18681 8.1592V8.55444C5.18681 8.5773 5.17701 8.60017 5.17375 8.62303L19.9969 8.6263V7.14987C19.9969 6.97674 19.8434 6.83302 19.6572 6.83302L19.324 6.85589H19.3207ZM23.2862 13.4574C24.2073 13.4574 24.9554 14.225 24.9554 15.1723V18.54C24.9554 19.484 24.2041 20.2549 23.2862 20.2549H23.1849L23.1882 22.12C23.1882 22.9105 22.891 23.6552 22.3455 24.2138C21.8 24.7756 21.0748 25.0827 20.3039 25.0827L4.88303 25.0859C4.01416 25.0794 3.24981 24.7593 2.73044 24.1909C2.21108 23.6226 1.95956 22.855 2.00529 21.9665V7.06494C2.00529 6.27446 2.3058 5.52971 2.84803 4.97114C3.39353 4.40932 4.11868 4.10227 4.88956 4.10227L19.275 3.0864C19.4841 3.07987 19.6637 3.14193 19.8042 3.27912C19.9479 3.41631 20.0263 3.60577 20.0263 3.80829V5.43498C20.8298 5.6179 21.408 6.31365 21.408 7.1466V8.82882C21.8065 8.97908 22.1593 9.20446 22.4402 9.50824C22.9596 10.0766 23.2078 10.8475 23.1621 11.7458L23.1653 13.4574H23.2862ZM14.2153 15.7864C14.8424 15.7864 15.352 16.309 15.352 16.9525C15.352 17.596 14.8424 18.1186 14.2153 18.1186C13.5881 18.1186 13.0818 17.596 13.0818 16.9525C13.0818 16.309 13.5881 15.7864 14.2153 15.7864Z" fill="#86888C"/>
</svg>
