<svg width="20" height="20" viewBox="0 0 20 20" fill="none" xmlns="http://www.w3.org/2000/svg">
<path fill-rule="evenodd" clip-rule="evenodd" d="M17.6709 13.3252V10.876C17.6709 10.7667 17.5854 10.6812 17.4809 10.6812H10.7223C10.0072 10.6812 9.4276 11.2775 9.4276 12.0092V12.1897C9.4276 12.9214 10.0096 13.5177 10.7223 13.5177H17.4809C17.5854 13.52 17.6709 13.4321 17.6709 13.3252ZM16.3834 15.9289L16.381 14.5724H10.7223C9.44422 14.5724 8.40134 13.5034 8.40134 12.1921V12.0115C8.40134 10.6978 9.44185 9.63118 10.7223 9.63118H16.3691L16.3667 8.36023C16.3857 7.97301 16.3002 7.68081 16.1197 7.48126C15.9367 7.27934 15.6564 7.17243 15.312 7.17006L4.1015 7.17243V7.16531C3.71665 7.16531 3.35081 7.05128 3.02773 6.8541V15.8481C3.00873 16.2282 3.09425 16.5204 3.27717 16.7176C3.46247 16.9219 3.75466 17.0335 4.1015 17.0359L15.312 17.0335C15.5994 17.0335 15.8678 16.9195 16.0698 16.7105C16.2717 16.5014 16.3834 16.2235 16.3834 15.9289ZM3.02773 4.97976V5.00826C3.02773 5.27671 3.12513 5.5309 3.29855 5.73282C3.3223 5.04627 3.8782 4.49276 4.56474 4.49276L14.0861 3.80859V3.17668L4.13476 3.87748C3.81405 3.87985 3.54324 3.99388 3.34131 4.20056C3.13938 4.40961 3.02773 4.68518 3.02773 4.97976ZM14.5969 4.82772L4.60038 5.54515C4.42933 5.54752 4.31768 5.64968 4.31768 5.77558V6.06303C4.31768 6.07966 4.31055 6.09629 4.30818 6.11292L15.0886 6.11529V5.04152C15.0886 4.91562 14.977 4.81109 14.8416 4.81109L14.5993 4.82772H14.5969ZM17.4809 9.6288C18.1508 9.6288 18.6948 10.1871 18.6948 10.876V13.3252C18.6948 14.0118 18.1484 14.5724 17.4809 14.5724H17.4072L17.4096 15.9289C17.4096 16.5038 17.1934 17.0454 16.7967 17.4517C16.4 17.8603 15.8726 18.0836 15.312 18.0836L4.09675 18.0859C3.46484 18.0812 2.90895 17.8484 2.53123 17.435C2.15351 17.0217 1.97059 16.4634 2.00385 15.8172V4.97976C2.00385 4.40486 2.2224 3.86322 2.61675 3.457C3.01348 3.04839 3.54086 2.82509 4.1015 2.82509L14.5636 2.08628C14.7157 2.08153 14.8463 2.12666 14.9485 2.22644C15.053 2.32621 15.11 2.464 15.11 2.61128V3.79433C15.6944 3.92737 16.1149 4.43337 16.1149 5.03915V6.26258C16.4047 6.37186 16.6613 6.53577 16.8656 6.7567C17.2433 7.17006 17.4239 7.7307 17.3906 8.38399L17.393 9.6288H17.4809ZM10.8838 11.3226C11.34 11.3226 11.7105 11.7027 11.7105 12.1707C11.7105 12.6387 11.34 13.0188 10.8838 13.0188C10.4277 13.0188 10.0595 12.6387 10.0595 12.1707C10.0595 11.7027 10.4277 11.3226 10.8838 11.3226Z" fill="#86888C"/>
</svg>
