<svg width="40" height="40" viewBox="0 0 40 40" fill="none" xmlns="http://www.w3.org/2000/svg">
<path fill-rule="evenodd" clip-rule="evenodd" d="M16.3836 30.6053C8.43948 30.6053 2 24.1659 2 16.2218C2 12.4064 3.51487 8.75014 6.21083 6.04905C11.9211 0.523622 21.0257 0.672541 26.5512 6.3777C31.712 11.7053 31.9426 20.0275 27.243 25.6227L37.6996 36.0793C38.1001 36.4799 38.1001 37.132 37.6996 37.5326C37.4993 37.7277 37.2426 37.8355 36.9704 37.8355C36.6982 37.8355 36.4363 37.7277 36.2463 37.5326L25.8033 27.0895C23.2015 29.3563 19.8563 30.6147 16.3836 30.6053ZM16.3836 3.89228C9.57435 3.89228 4.05406 9.41257 4.05406 16.2218C4.05406 19.4929 5.35325 22.6253 7.66407 24.9413C12.4963 29.7375 20.3068 29.7067 25.1031 24.8745C29.8736 20.068 29.8736 12.3139 25.1031 7.50743C22.7922 5.18121 19.6547 3.88201 16.3836 3.89228ZM16.7615 15.7011C18.1692 15.7005 19.5575 15.7 24.2151 15.7C24.6384 15.7241 24.9746 16.0604 24.9988 16.4837C25.023 16.9384 24.6747 17.3303 24.2175 17.3545H8.78249C8.3616 17.3327 8.02296 16.9941 8.00119 16.5732C7.977 16.1184 8.32532 15.7266 8.78249 15.7024C13.8463 15.7024 15.3141 15.7017 16.7615 15.7011Z" fill="#86888C"/>
</svg>
