<svg width="24" height="24" viewBox="0 0 24 24" fill="none" xmlns="http://www.w3.org/2000/svg">
<path d="M12.0445 22.5244C8.8519 22.5244 6.36941 21.6952 4.66574 20.0597C2.89622 18.3643 2 15.8312 2 12.5287C2 9.22622 2.89622 6.69025 4.66574 4.992C6.36941 3.35644 8.85476 2.52441 12.0445 2.52441C15.2371 2.52441 17.7196 3.35359 19.4261 4.98915C21.1985 6.6874 22.0947 9.22337 22.0947 12.5258C22.0947 15.8283 21.1956 18.3614 19.4261 20.0597C17.7196 21.6952 15.2371 22.5244 12.0445 22.5244ZM12.0445 3.63283C6.11744 3.63283 3.11096 6.62471 3.11096 12.5287C3.11096 18.427 6.11744 21.4188 12.0445 21.4188C17.9744 21.4188 20.9837 18.427 20.9837 12.5287C20.9837 6.62756 17.9744 3.63283 12.0445 3.63283Z" fill="#86888C"/>
<path d="M10.5842 16.9397C10.4238 16.9397 10.2721 16.8684 10.1719 16.743L7.47463 13.3693C7.29424 13.1442 7.33146 12.8137 7.55766 12.6342C7.78387 12.4547 8.11601 12.4917 8.2964 12.7168L10.5699 15.5605L16.0588 8.24896C16.2335 8.01816 16.5628 7.96972 16.7947 8.14353C17.0266 8.31735 17.0753 8.64503 16.9006 8.87583L11.008 16.7288C10.9106 16.8599 10.7588 16.9368 10.5956 16.9397H10.5842Z" fill="#86888C"/>
</svg>
