<svg width="24" height="24" viewBox="0 0 24 24" fill="none" xmlns="http://www.w3.org/2000/svg">
<path fill-rule="evenodd" clip-rule="evenodd" d="M21.0766 11.0253H12.9718V2.92058C12.9434 2.38273 12.4824 1.97294 11.9474 2.0014C11.4522 2.02701 11.0538 2.42542 11.0282 2.92058V11.0282H2.92058C2.38273 11.0566 1.97294 11.5176 2.0014 12.0526C2.02701 12.5478 2.42542 12.9462 2.92058 12.9718H11.0282V21.0794C11.0566 21.6173 11.5176 22.0271 12.0526 21.9986C12.5478 21.973 12.9462 21.5746 12.9718 21.0794V12.9718H21.0794C21.6173 12.9434 22.0271 12.4824 21.9986 11.9474C21.9701 11.4493 21.5746 11.0538 21.0766 11.0253Z" fill="#86888C"/>
</svg>
