<svg width="20" height="20" viewBox="0 0 20 20" fill="none" xmlns="http://www.w3.org/2000/svg">
<path fill-rule="evenodd" clip-rule="evenodd" d="M12.1468 16.7865C13.4991 15.2589 16.9982 10.6215 17.0051 7.76662C17.0119 6.23903 16.593 5.05064 15.7643 4.22879C14.9379 3.40466 13.7313 2.98804 12.1809 2.97894C10.6488 2.97894 9.42399 3.391 8.58847 4.2083C7.75296 5.02332 7.32724 6.21171 7.32724 7.74158C7.32041 7.96469 7.35456 8.21967 7.40009 8.4792C8.67954 8.74101 10.6146 9.62888 10.6146 12.6249C10.6146 13.3375 10.5008 13.9316 10.3164 14.4211C10.8856 15.243 11.4957 16.0307 12.1468 16.7865ZM6.48717 15.8781C7.65279 15.8599 9.62205 15.4092 9.62205 12.6272C9.62205 9.84516 7.64141 9.38073 6.45985 9.34886H6.08877C4.9277 9.36252 2.9926 9.79507 2.9926 12.6021C2.9926 15.4228 4.95502 15.8668 6.12064 15.8872H6.24585C6.32781 15.885 6.41432 15.885 6.48717 15.8781ZM16.4746 3.53443C17.4763 4.53385 18.0068 5.99543 17.9999 7.77345C17.9931 11.5207 13.1804 17.1849 12.4997 17.8565C12.4063 17.9498 12.2788 17.9999 12.1491 17.9999C12.017 18.0022 11.8895 17.9498 11.7985 17.8565C11.4547 17.5241 10.6852 16.6294 9.79052 15.3887C8.75694 16.7023 7.06543 16.8525 6.50994 16.8571C6.43026 16.8639 6.33692 16.8639 6.25041 16.8639H6.11154C5.24871 16.8502 2 16.5429 2 12.5998C2 8.66816 5.21456 8.37447 6.07511 8.36764H6.37334C6.34375 8.1582 6.33009 7.94647 6.33237 7.73475C6.33237 5.96583 6.86964 4.50198 7.88273 3.50938C8.89809 2.51679 10.3938 2.00683 12.1855 2C13.984 2.00683 15.4684 2.535 16.4746 3.53443ZM12.1673 6.24358C11.3659 6.24358 10.9766 6.62832 10.9766 7.41603C10.9766 8.20373 11.3659 8.58847 12.1673 8.58847C12.9686 8.58847 13.3579 8.20373 13.3579 7.41603C13.3579 6.62832 12.9664 6.24358 12.1673 6.24358ZM12.1673 9.57196C10.8195 9.57196 9.98175 8.74556 9.98175 7.4183C9.98175 6.09105 10.8195 5.26464 12.1673 5.26464C13.515 5.26464 14.3528 6.09105 14.3528 7.4183C14.3505 8.74556 13.515 9.57196 12.1673 9.57196ZM8.45415 12.1126C8.72735 12.1104 8.94818 12.3289 8.95045 12.6021C8.94818 12.8753 8.72735 13.0939 8.45415 13.0916H6.80362V14.7262C6.80134 14.9994 6.58051 15.2179 6.30732 15.2156C6.03413 15.2179 5.8133 14.9994 5.81102 14.7262V13.0939H4.16049C3.8873 13.0961 3.66647 12.8776 3.66419 12.6044C3.66647 12.3312 3.88958 12.1126 4.16049 12.1149H5.80875V10.5076C5.81102 10.2345 6.03185 10.0159 6.30505 10.0182C6.57824 10.0159 6.79907 10.2345 6.80134 10.5076V12.1149H8.45415V12.1126Z" fill="#86888C"/>
</svg>
