<svg width="20" height="20" viewBox="0 0 20 20" fill="none" xmlns="http://www.w3.org/2000/svg">
<path fill-rule="evenodd" clip-rule="evenodd" d="M17.2613 9.22026H10.7775V2.73646C10.7547 2.30618 10.3859 1.97835 9.95788 2.00112C9.56175 2.02161 9.24303 2.34033 9.22254 2.73646V9.22254H2.73646C2.30618 9.2453 1.97835 9.61411 2.00112 10.0421C2.02161 10.4382 2.34033 10.757 2.73646 10.7775H9.22254V17.2635C9.2453 17.6938 9.61411 18.0216 10.0421 17.9989C10.4382 17.9784 10.757 17.6597 10.7775 17.2635V10.7775H17.2635C17.6938 10.7547 18.0216 10.3859 17.9989 9.95788C17.9761 9.55947 17.6597 9.24303 17.2613 9.22026Z" fill="#86888C"/>
</svg>
