<svg width="24" height="24" viewBox="0 0 24 24" fill="none" xmlns="http://www.w3.org/2000/svg">
<path fill-rule="evenodd" clip-rule="evenodd" d="M16.9829 11.3455C17.3273 11.3455 17.609 11.6244 17.609 11.9715C17.609 12.3187 17.3301 12.5976 16.9829 12.5976H12.6204V16.9687C12.6204 17.313 12.3415 17.5948 11.9943 17.5948C11.65 17.5948 11.3682 17.3159 11.3682 16.9687V12.5948H7.01423C6.66989 12.5948 6.38816 12.3159 6.38816 11.9687C6.38816 11.6215 6.66705 11.3426 7.01423 11.3426H11.3682V7.0313C11.3682 6.68697 11.6471 6.40524 11.9943 6.40524C12.3415 6.40524 12.6204 6.68412 12.6204 7.0313V11.3455H16.9829ZM12.4326 20.745C14.934 20.6995 20.7479 19.7575 20.7479 12.0256C20.7479 4.29368 14.8998 3.31759 12.387 3.25783C12.148 3.25213 11.9089 3.24929 11.6699 3.24929H11.4821C9.00626 3.27205 3.25213 4.16278 3.25213 11.9687C3.25213 19.786 9.06318 20.7137 11.5618 20.7479C11.852 20.7507 12.1423 20.7507 12.4326 20.745ZM12.4155 2.00854C14.3791 2.05692 22 2.83096 22 12.0256C22 21.243 14.3648 21.9573 12.4582 21.9943C12.2789 21.9972 12.074 22 11.8663 22C11.7581 22 11.65 22 11.5418 21.9972C9.53273 21.9687 2 21.243 2 11.9687C2 2.70575 9.46158 2.01707 11.4707 2H11.6699C11.926 2 12.1907 2.00285 12.4155 2.00854Z" fill="#86888C"/>
</svg>
