<svg width="40" height="40" viewBox="0 0 40 40" fill="none" xmlns="http://www.w3.org/2000/svg">
<path fill-rule="evenodd" clip-rule="evenodd" d="M25.8303 36.2696C28.873 32.8325 36.746 22.3983 36.7614 15.9749C36.7767 12.5378 35.8342 9.86394 33.9697 8.01478C32.1103 6.16049 29.3954 5.2231 25.9071 5.20261C22.4598 5.20261 19.704 6.12975 17.8241 7.96867C15.9442 9.80247 14.9863 12.4763 14.9863 15.9186C14.9709 16.4205 15.0478 16.9942 15.1502 17.5782C18.029 18.1673 22.383 20.165 22.383 26.906C22.383 28.5093 22.1268 29.8462 21.7119 30.9475C22.9925 32.7967 24.3653 34.569 25.8303 36.2696ZM13.0961 34.2258C15.7188 34.1848 20.1496 33.1706 20.1496 26.9111C20.1496 20.6516 15.6932 19.6066 13.0347 19.5349H12.1997C9.58734 19.5657 5.23334 20.5389 5.23334 26.8548C5.23334 33.2013 9.6488 34.2002 12.2714 34.2463H12.5532C12.7376 34.2412 12.9322 34.2412 13.0961 34.2258ZM35.5679 6.45246C37.8217 8.70117 39.0152 11.9897 38.9998 15.9903C38.9845 24.4216 28.1558 37.166 26.6243 38.6771C26.4142 38.8871 26.1274 38.9998 25.8354 38.9998C25.5383 39.005 25.2515 38.8871 25.0466 38.6771C24.2731 37.9293 22.5417 35.9162 20.5287 33.1245C18.2031 36.0801 14.3972 36.4182 13.1474 36.4284C12.9681 36.4438 12.7581 36.4438 12.5634 36.4438H12.251C10.3096 36.4131 3 35.7215 3 26.8496C3 18.0033 10.2328 17.3426 12.169 17.3272H12.84C12.7734 16.8559 12.7427 16.3796 12.7478 15.9032C12.7478 11.9231 13.9567 8.62946 16.2361 6.39611C18.5207 4.16277 21.8861 3.01537 25.9174 3C29.964 3.01537 33.3038 4.20375 35.5679 6.45246ZM25.8764 12.5481C24.0733 12.5481 23.1974 13.4137 23.1974 15.1861C23.1974 16.9584 24.0733 17.8241 25.8764 17.8241C27.6795 17.8241 28.5554 16.9584 28.5554 15.1861C28.5554 13.4137 27.6743 12.5481 25.8764 12.5481ZM25.8764 20.0369C22.844 20.0369 20.9589 18.1775 20.9589 15.1912C20.9589 12.2049 22.844 10.3454 25.8764 10.3454C28.9088 10.3454 30.7938 12.2049 30.7938 15.1912C30.7887 18.1775 28.9088 20.0369 25.8764 20.0369ZM17.5218 25.7535C18.1365 25.7483 18.6334 26.2401 18.6385 26.8548C18.6334 27.4694 18.1365 27.9612 17.5218 27.9561H13.8081V31.6339C13.803 32.2486 13.3062 32.7403 12.6915 32.7352C12.0768 32.7403 11.5799 32.2486 11.5748 31.6339V27.9612H7.86111C7.24642 27.9663 6.74956 27.4746 6.74443 26.8599C6.74956 26.2452 7.25155 25.7535 7.86111 25.7586H11.5697V22.1422C11.5748 21.5275 12.0717 21.0358 12.6864 21.0409C13.301 21.0358 13.7979 21.5275 13.803 22.1422V25.7586H17.5218V25.7535Z" fill="#86888C"/>
</svg>
