<svg width="40" height="40" viewBox="0 0 40 40" fill="none" xmlns="http://www.w3.org/2000/svg">
<path fill-rule="evenodd" clip-rule="evenodd" d="M36.3378 18.2456H21.7493V3.65704C21.6981 2.68891 20.8682 1.95129 19.9052 2.00251C19.0139 2.04862 18.2968 2.76575 18.2507 3.65704V18.2507H3.65704C2.68891 18.3019 1.95129 19.1318 2.00251 20.0948C2.04862 20.9861 2.76575 21.7032 3.65704 21.7493H18.2507V36.343C18.3019 37.3111 19.1318 38.0487 20.0948 37.9975C20.9861 37.9514 21.7032 37.2343 21.7493 36.343V21.7493H36.343C37.3111 21.6981 38.0487 20.8682 37.9975 19.9052C37.9463 19.0088 37.2343 18.2968 36.3378 18.2456Z" fill="#86888C"/>
</svg>
