<svg width="24" height="24" viewBox="0 0 24 24" fill="none" xmlns="http://www.w3.org/2000/svg">
<path fill-rule="evenodd" clip-rule="evenodd" d="M16.7849 18.9237H16.7792C16.5771 18.9266 16.3381 18.8526 16.0876 18.6904C16.0336 18.6562 15.9824 18.6192 15.934 18.5822C15.6608 18.3717 15.2738 18.4143 15.0518 18.679C14.8412 18.938 14.8782 19.3165 15.1372 19.527C15.1429 19.5299 15.1457 19.5356 15.1514 19.5384C15.2225 19.5953 15.3051 19.6522 15.3961 19.712C15.5526 19.8116 15.7092 19.8884 15.8628 19.9539C15.5413 20.5003 15.0034 20.7735 14.2208 20.7735C13.2561 20.7735 12.8805 19.7888 12.798 19.5242C12.8008 19.2994 12.8036 18.7131 12.798 18.5709V17.3927H14.0529C14.2635 17.7257 14.6363 17.9476 15.066 17.9476C15.7262 17.9476 16.2612 17.424 16.2612 16.778C16.2612 16.132 15.7234 15.6084 15.066 15.6084C14.6363 15.6084 14.2635 15.8332 14.0529 16.1633H12.7951V9.89414H13.683V11.8805C13.3842 12.0939 13.185 12.4382 13.185 12.8253C13.185 13.4684 13.7228 13.9949 14.3802 13.9949C14.8071 13.9949 15.1799 13.7729 15.3904 13.4428L17.6727 13.4371V14.7063C17.3312 14.9112 17.1007 15.2783 17.1007 15.6966C17.1007 16.3398 17.6357 16.8663 18.2988 16.8663C18.9562 16.8663 19.494 16.3426 19.494 15.6966C19.494 15.2812 19.2664 14.9169 18.9277 14.7092V12.8224C18.9277 12.6602 18.8623 12.5037 18.7456 12.3899C18.6261 12.276 18.4667 12.2106 18.3017 12.2106L15.399 12.2163C15.2851 12.037 15.1258 11.8919 14.938 11.798V9.89414H17.1577C17.5048 9.89414 17.7837 9.62094 17.7837 9.2823V7.78258C18.1252 7.57769 18.3557 7.21343 18.3557 6.79226C18.3557 6.14627 17.8179 5.62265 17.1605 5.62265C16.5031 5.62265 15.9653 6.14627 15.9653 6.79226C15.9653 7.20774 16.1929 7.57484 16.5316 7.77974V8.66762H12.7923V5.42914C12.7923 5.24986 12.798 4.59533 12.8008 4.33352C12.9146 4.06887 13.3415 3.22652 14.218 3.22652C14.9977 3.22652 15.5384 3.49972 15.86 4.0461C15.1599 4.34775 14.6932 4.9539 14.4769 5.55151L14.4115 5.74217C14.309 6.06659 14.4969 6.40808 14.827 6.50768C15.1542 6.61013 15.5043 6.43085 15.6096 6.10359L15.6608 5.95276C15.7575 5.68526 16.082 5.04496 16.7792 5.06773H16.782C19.8384 5.06773 20.0774 7.98179 20.0774 8.87536C20.0774 9.20262 20.0319 10.1901 19.5965 11.0751C19.0615 10.7251 18.4496 10.5117 17.8122 10.4491C17.4735 10.4092 17.1633 10.6483 17.1207 10.9898C17.0837 11.3284 17.3312 11.6301 17.667 11.667H17.6727C18.3443 11.7382 18.8793 11.9829 19.2692 12.3899C20.0176 13.366 20.0774 14.7262 20.0774 15.1218C20.0802 16.0097 19.8412 18.8754 16.7849 18.9237ZM10.1144 20.7763C9.34889 20.7763 8.81104 20.5174 8.48662 19.9909C8.6716 19.9198 8.85657 19.8315 9.04155 19.7149C9.32328 19.5384 9.40865 19.1628 9.23221 18.881C9.22937 18.8754 9.22652 18.8725 9.22368 18.8668C9.03016 18.5822 8.64599 18.5054 8.35572 18.6904C8.0996 18.8554 7.87479 18.9294 7.65851 18.9266C7.62721 18.9237 7.60159 18.9351 7.57314 18.9351C7.5646 18.9351 7.55891 18.9323 7.55037 18.9323C4.49402 18.9323 4.25498 16.0182 4.25498 15.1246C4.25498 14.8031 4.30051 13.8497 4.7103 12.9761C4.75014 13.6135 5.19693 14.0689 5.73478 14.2738C5.74331 14.2766 5.83722 14.3108 5.84576 14.3108C5.90837 14.3307 5.97097 14.3421 6.03643 14.3421C6.28401 14.3421 6.50028 14.1742 6.59419 13.9266C6.71087 13.6135 6.50882 13.2521 6.1901 13.1298C6.11326 13.107 6.04781 13.0558 6.00228 12.9903C6.40922 12.9733 6.78201 12.8822 7.0922 12.7001C7.37962 12.5322 7.47923 12.1622 7.31133 11.8748L7.30279 11.8577C7.11781 11.5674 6.73648 11.4764 6.44337 11.6528C6.26409 11.7581 6.01935 11.798 5.70632 11.7723C5.41036 11.7467 5.1827 11.667 5.02334 11.5447C4.31759 10.5714 4.25783 9.26238 4.25783 8.87251C4.25783 7.98179 4.49687 5.06488 7.6329 5.06488C7.84633 5.07342 8.0313 5.10472 8.19351 5.19863C8.48947 5.37223 8.8708 5.27832 9.05293 4.98805C9.22652 4.70347 9.13546 4.33068 8.85088 4.15424C8.84519 4.15139 8.84234 4.14855 8.83665 4.1457C8.72851 4.0831 8.61753 4.03187 8.50085 3.98634C8.82812 3.4741 9.36027 3.21799 10.1172 3.21799C11.082 3.21799 11.4576 4.20262 11.543 4.46727C11.5401 4.69209 11.5373 5.27832 11.543 5.4206V6.20034H10.4047C10.1855 5.85316 9.80137 5.64542 9.39158 5.64542C8.73136 5.64542 8.19636 6.16904 8.19636 6.81503C8.19636 7.45817 8.73136 7.98179 9.39158 7.98179C9.80137 7.98179 10.1827 7.77405 10.4047 7.42686H11.543V8.65623H7.22311C7.00398 8.30905 6.61981 8.10131 6.21002 8.10131C5.5498 8.10131 5.01195 8.62493 5.01195 9.27092C5.01195 9.91406 5.54696 10.4377 6.21002 10.4377C6.63973 10.4377 7.01252 10.2157 7.22311 9.88275H11.5373V10.9186H9.4115C9.07001 10.9158 8.78828 11.189 8.78258 11.5304V13.4143C8.43256 13.6221 8.21628 13.9977 8.21343 14.4047C8.21343 15.0478 8.75128 15.5714 9.40865 15.5714C10.066 15.5714 10.6039 15.0478 10.6039 14.4047C10.6039 13.9835 10.3762 13.6192 10.0347 13.4143V12.1423H11.5344V17.0427H6.94422V16.8947C6.94422 16.8919 6.94138 16.8862 6.94138 16.8833C7.2971 16.6784 7.51907 16.2971 7.52191 15.8873C7.52191 15.2413 6.98406 14.7177 6.32669 14.7177C5.66932 14.7177 5.13147 15.2413 5.13147 15.8873C5.13147 16.3056 5.35913 16.6699 5.69778 16.8748C5.69778 16.889 5.69209 16.8976 5.69209 16.9118L5.70347 17.6659C5.71201 18.0046 5.99089 18.2721 6.32954 18.2692H11.543V18.568C11.543 18.7473 11.5373 19.4018 11.5344 19.6636C11.4149 19.9368 10.988 20.7763 10.1144 20.7763ZM21.3324 8.87536C21.3324 6.66135 20.2481 4.09448 17.1662 3.86682C16.6853 2.66022 15.6522 2 14.218 2C13.2248 2 12.5646 2.51793 12.152 3.02732C11.7166 2.47524 11.0592 2 10.1144 2C8.70575 2 7.65566 2.66875 7.16904 3.85828C4.10131 4.05179 3 6.64428 3 8.87536C3 9.44735 3.08537 10.8162 3.81673 11.9972C3.08537 13.1753 3 14.5498 3 15.1218C3 17.3358 4.08423 19.9055 7.16619 20.1332C7.64713 21.3426 8.68014 22 10.1172 22C11.1104 22 11.7706 21.4821 12.1804 20.9727C12.6158 21.5248 13.276 22 14.2208 22C15.6522 22 16.6824 21.3455 17.1662 20.1417C20.2339 19.9454 21.3352 17.3529 21.3352 15.1246C21.3352 14.5526 21.2499 13.1838 20.5185 12.0028C21.247 10.8247 21.3324 9.4502 21.3324 8.87536Z" fill="#86888C"/>
</svg>
