<svg width="28" height="28" viewBox="0 0 28 28" fill="none" xmlns="http://www.w3.org/2000/svg">
<path fill-rule="evenodd" clip-rule="evenodd" d="M19.5418 22.3085H19.535C19.2925 22.3119 19.0057 22.2231 18.7052 22.0285C18.6403 21.9875 18.5788 21.9431 18.5208 21.8987C18.1929 21.646 17.7285 21.6972 17.4622 22.0148C17.2094 22.3256 17.2538 22.7797 17.5646 23.0324C17.5714 23.0359 17.5748 23.0427 17.5817 23.0461C17.667 23.1144 17.7661 23.1827 17.8754 23.2544C18.0632 23.3739 18.251 23.4661 18.4354 23.5447C18.0495 24.2003 17.4041 24.5282 16.465 24.5282C15.3073 24.5282 14.8566 23.3466 14.7575 23.029C14.761 22.7592 14.7644 22.0558 14.7575 21.885V20.4713H16.2635C16.5162 20.8708 16.9636 21.1372 17.4792 21.1372C18.2715 21.1372 18.9135 20.5088 18.9135 19.7336C18.9135 18.9585 18.2681 18.3301 17.4792 18.3301C16.9636 18.3301 16.5162 18.5999 16.2635 18.996H14.7541V11.473H15.8196V13.8566C15.461 14.1127 15.222 14.5259 15.222 14.9903C15.222 15.7621 15.8674 16.3939 16.6562 16.3939C17.1685 16.3939 17.6158 16.1275 17.8685 15.7314L20.6073 15.7245V17.2476C20.1975 17.4935 19.9209 17.934 19.9209 18.436C19.9209 19.2077 20.5629 19.8395 21.3586 19.8395C22.1474 19.8395 22.7928 19.2112 22.7928 18.436C22.7928 17.9374 22.5196 17.5003 22.1133 17.251V14.9869C22.1133 14.7923 22.0347 14.6044 21.8947 14.4678C21.7513 14.3312 21.56 14.2527 21.362 14.2527L17.8788 14.2595C17.7422 14.0444 17.5509 13.8702 17.3256 13.7575V11.473H19.9892C20.4058 11.473 20.7405 11.1451 20.7405 10.7388V8.9391C21.1503 8.69323 21.4269 8.25612 21.4269 7.75071C21.4269 6.97553 20.7814 6.34718 19.9926 6.34718C19.2038 6.34718 18.5583 6.97553 18.5583 7.75071C18.5583 8.24929 18.8315 8.68981 19.2379 8.93569V10.0011H14.7507V6.11497C14.7507 5.89983 14.7575 5.1144 14.761 4.80023C14.8976 4.48264 15.4098 3.47183 16.4616 3.47183C17.3973 3.47183 18.0461 3.79966 18.432 4.45532C17.5919 4.8173 17.0319 5.54468 16.7723 6.26181L16.6938 6.49061C16.5709 6.87991 16.7962 7.2897 17.1924 7.40922C17.5851 7.53216 18.0051 7.31702 18.1315 6.9243L18.1929 6.74331C18.3091 6.42231 18.6983 5.65396 19.535 5.68127H19.5384C23.206 5.68127 23.4929 9.17814 23.4929 10.2504C23.4929 10.6431 23.4382 11.8281 22.9158 12.8902C22.2738 12.4701 21.5396 12.214 20.7746 12.1389C20.3682 12.0911 19.996 12.3779 19.9448 12.7877C19.9004 13.1941 20.1975 13.5561 20.6005 13.6005H20.6073C21.4132 13.6858 22.0552 13.9795 22.5231 14.4678C23.4212 15.6392 23.4929 17.2715 23.4929 17.7462C23.4963 18.8116 23.2094 22.2504 19.5418 22.3085ZM11.5373 24.5316C10.6187 24.5316 9.97325 24.2208 9.58395 23.5891C9.80592 23.5037 10.0279 23.3978 10.2499 23.2578C10.5879 23.0461 10.6904 22.5953 10.4787 22.2573C10.4752 22.2504 10.4718 22.247 10.4684 22.2402C10.2362 21.8987 9.77518 21.8065 9.42686 22.0285C9.11952 22.2265 8.84974 22.3153 8.59021 22.3119C8.55265 22.3085 8.52191 22.3221 8.48776 22.3221C8.47752 22.3221 8.47069 22.3187 8.46044 22.3187C4.79283 22.3187 4.50598 18.8219 4.50598 17.7496C4.50598 17.3637 4.56061 16.2197 5.05236 15.1713C5.10017 15.9363 5.63631 16.4826 6.28173 16.7285C6.29198 16.7319 6.40467 16.7729 6.41491 16.7729C6.49004 16.7968 6.56517 16.8105 6.64371 16.8105C6.94081 16.8105 7.20034 16.609 7.31303 16.3119C7.45304 15.9363 7.21059 15.5026 6.82812 15.3557C6.73591 15.3284 6.65737 15.2669 6.60273 15.1884C7.09106 15.1679 7.53842 15.0586 7.91064 14.8401C8.25555 14.6386 8.37507 14.1946 8.17359 13.8497L8.16335 13.8293C7.94138 13.4809 7.48378 13.3717 7.13204 13.5834C6.9169 13.7097 6.62322 13.7575 6.24758 13.7268C5.89243 13.6961 5.61924 13.6005 5.428 13.4536C4.5811 12.2857 4.50939 10.7149 4.50939 10.247C4.50939 9.17814 4.79624 5.67786 8.55948 5.67786C8.81559 5.6881 9.03756 5.72567 9.23221 5.83836C9.58736 6.04667 10.045 5.93398 10.2635 5.58566C10.4718 5.24417 10.3625 4.79681 10.0211 4.58509C10.0142 4.58167 10.0108 4.57826 10.004 4.57484C9.87422 4.49972 9.74104 4.43825 9.60102 4.38361C9.99374 3.76892 10.6323 3.46158 11.5407 3.46158C12.6983 3.46158 13.1491 4.64314 13.2516 4.96073C13.2482 5.23051 13.2447 5.93398 13.2516 6.10472V7.04041H11.8856C11.6227 6.62379 11.1616 6.3745 10.6699 6.3745C9.87763 6.3745 9.23563 7.00285 9.23563 7.77803C9.23563 8.5498 9.87763 9.17814 10.6699 9.17814C11.1616 9.17814 11.6192 8.92886 11.8856 8.51224H13.2516V9.98748H8.06773C7.80478 9.57086 7.34377 9.32157 6.85202 9.32157C6.05976 9.32157 5.41434 9.94991 5.41434 10.7251C5.41434 11.4969 6.05635 12.1252 6.85202 12.1252C7.36767 12.1252 7.81503 11.8589 8.06773 11.4593H13.2447V12.7023H10.6938C10.284 12.6989 9.94593 13.0267 9.9391 13.4365V15.6972C9.51907 15.9465 9.25953 16.3973 9.25612 16.8856C9.25612 17.6574 9.90154 18.2857 10.6904 18.2857C11.4792 18.2857 12.1246 17.6574 12.1246 16.8856C12.1246 16.3802 11.8515 15.9431 11.4417 15.6972V14.1707H13.2413V20.0512H7.73307V19.8736C7.73307 19.8702 7.72965 19.8634 7.72965 19.86C8.15652 19.6141 8.42288 19.1565 8.42629 18.6648C8.42629 17.8896 7.78088 17.2612 6.99203 17.2612C6.20319 17.2612 5.55777 17.8896 5.55777 18.6648C5.55777 19.1668 5.83096 19.6039 6.23734 19.8497C6.23734 19.8668 6.23051 19.8771 6.23051 19.8941L6.24417 20.7991C6.25441 21.2055 6.58907 21.5265 6.99545 21.5231H13.2516V21.8816C13.2516 22.0968 13.2447 22.8822 13.2413 23.1964C13.0979 23.5242 12.5857 24.5316 11.5373 24.5316ZM24.9989 10.2504C24.9989 7.59363 23.6978 4.51338 19.9994 4.24018C19.4223 2.79226 18.1827 2 16.4616 2C15.2698 2 14.4775 2.62151 13.9824 3.23278C13.4599 2.57029 12.671 2 11.5373 2C9.8469 2 8.5868 2.8025 8.00285 4.22994C4.32157 4.46215 3 7.57314 3 10.2504C3 10.9368 3.10245 12.5794 3.98008 13.9966C3.10245 15.4104 3 17.0598 3 17.7462C3 20.403 4.30108 23.4866 7.99943 23.7598C8.57655 25.2112 9.81616 26 11.5407 26C12.7325 26 13.5248 25.3785 14.0165 24.7672C14.539 25.4297 15.3312 26 16.465 26C18.1827 26 19.4189 25.2146 19.9994 23.7701C23.6807 23.5344 25.0023 20.4235 25.0023 17.7496C25.0023 17.0632 24.8998 15.4206 24.0222 14.0034C24.8964 12.5896 24.9989 10.9402 24.9989 10.2504Z" fill="#86888C"/>
</svg>
