<svg width="40" height="40" viewBox="0 0 40 40" fill="none" xmlns="http://www.w3.org/2000/svg">
<path fill-rule="evenodd" clip-rule="evenodd" d="M16.1305 15.9482C16.1305 16.3631 15.7873 16.696 15.3724 16.696C14.9575 16.696 14.6143 16.3631 14.6092 15.9482C14.6092 15.5333 14.9524 15.2003 15.3724 15.2003C15.5312 15.2003 15.6746 15.2618 15.8027 15.3489C15.8334 15.3847 15.8488 15.4308 15.8847 15.4616C15.9154 15.4872 15.9512 15.5025 15.982 15.523C16.0691 15.646 16.1305 15.7894 16.1305 15.9482ZM29.0133 26.91L28.9928 35.7512H16.0895V31.6431C10.1937 31.6431 10.6496 28.5236 10.6496 28.5236L10.5881 24.3591L6.28024 23.2373C7.44813 22.0284 8.45724 20.6659 9.27169 19.1958C9.9837 17.8947 10.4447 16.4655 10.5318 14.9903C10.8904 8.81786 14.0867 5.42173 19.4447 4.50995V10.1804L16.5249 13.1719C16.1561 13.0233 15.7668 12.9465 15.3724 12.9465C13.6923 12.9465 12.3297 14.2885 12.3297 15.9431C12.3297 17.5976 13.6923 18.9448 15.3724 18.9448C17.0474 18.9448 18.4151 17.5976 18.4151 15.9431C18.4151 15.5179 18.3229 15.1132 18.159 14.7444L21.0736 11.7581H24.2751C24.5158 12.4189 24.9768 12.9721 25.5813 13.3307L23.517 18.9396C21.9905 19.0984 20.7919 20.3585 20.7919 21.9106C20.7919 23.5651 22.1544 24.9123 23.8346 24.9123C25.1049 24.9123 26.196 24.1337 26.6518 23.0375H33.2033C32.2301 24.7791 30.8214 26.0648 29.0133 26.91ZM27.1282 11.5122C26.7133 11.5122 26.3701 11.1793 26.3701 10.7644C26.3701 10.3494 26.7133 10.0165 27.1282 10.0165C27.5483 10.0165 27.8915 10.3546 27.8915 10.7644C27.8915 11.1793 27.5483 11.5122 27.1282 11.5122ZM23.8294 21.1576C24.2495 21.1576 24.5875 21.4957 24.5875 21.9106C24.5875 22.3255 24.2443 22.6585 23.8294 22.6585C23.4145 22.6585 23.0713 22.3255 23.0713 21.9106C23.0713 21.4957 23.4094 21.1627 23.8294 21.1576ZM34.7144 16.194C34.7144 17.9254 34.4891 19.4416 34.0946 20.7837H26.6467C26.447 20.3073 26.1242 19.8873 25.7145 19.5697L27.8915 13.6585C29.2028 13.3204 30.176 12.1576 30.176 10.7644C30.176 9.10983 28.8135 7.76265 27.1334 7.76265C25.9091 7.76265 24.859 8.47978 24.3775 9.50938H21.7293V4.27433C22.0212 4.26408 22.3081 4.24871 22.6103 4.24871C30.2529 4.24871 34.7144 8.05975 34.7144 16.194ZM22.6001 2C13.8306 2 8.73384 6.56914 8.25234 14.8571C8.18575 15.9379 7.85792 17.0392 7.26373 18.1201C6.54148 19.4211 5.65019 20.6198 4.62059 21.6903C4.06738 22.264 3.86761 23.0887 4.08787 23.852C4.31325 24.6203 4.92281 25.2094 5.70141 25.4092L8.3343 26.0956L8.37016 28.4519C8.31893 29.6249 8.72872 30.7723 9.51757 31.6482C10.4754 32.7341 11.9148 33.4308 13.8152 33.7279V35.7512C13.8152 36.9908 14.8346 37.9999 16.0947 37.9999H28.9928C30.2426 38.0102 31.262 37.0062 31.2722 35.7563L31.2927 28.2367C34.1356 26.4644 36.999 22.9863 36.999 16.194C36.9939 7.17358 31.7486 2 22.6001 2Z" fill="#86888C"/>
</svg>
