<svg width="40" height="40" viewBox="0 0 40 40" fill="none" xmlns="http://www.w3.org/2000/svg">
<path fill-rule="evenodd" clip-rule="evenodd" d="M35.2884 28.9725C35.5854 28.6754 35.7647 28.2913 35.7647 27.9481L35.7494 22.7441C35.7494 22.2114 35.2423 21.5404 34.9298 21.1562C33.173 18.8513 31.4263 16.5361 29.6899 14.2158C29.439 13.8931 29.0958 13.6626 28.7065 13.5499V25.5254C30.827 25.9249 32.2459 27.3386 32.63 29.4437H34.2435C34.602 29.4489 34.9862 29.2696 35.2884 28.9725ZM27.4209 33.7719C29.4646 33.7719 30.5095 32.7475 30.5095 30.714C30.5095 28.6806 29.4646 27.6408 27.4209 27.6408C25.3772 27.6408 24.3476 28.6806 24.3476 30.714C24.3476 32.7475 25.3772 33.7719 27.4209 33.7719ZM22.2271 29.4489C22.6266 27.2361 24.1683 25.7917 26.463 25.4793V8.61738C26.463 8.43811 26.2377 8.2281 25.9252 8.2281H4.78129C4.46884 8.2281 4.24347 8.41762 4.24347 8.60201V29.0596C4.24347 29.1928 4.39201 29.3106 4.57128 29.372C5.063 26.9032 6.94793 25.4024 9.7497 25.4024C12.5822 25.4024 14.4825 26.9186 14.9589 29.4437H22.2271V29.4489ZM9.7497 33.7719C11.7934 33.7719 12.8383 32.7475 12.8383 30.714C12.8383 28.6806 11.7934 27.6408 9.7497 27.6408C7.70599 27.6408 6.67646 28.6806 6.67646 30.714C6.67646 32.7475 7.70599 33.7719 9.7497 33.7719ZM37.9877 22.7492L38.0031 27.9532C38.0031 28.8854 37.5831 29.8381 36.8711 30.5501C36.154 31.2621 35.1962 31.677 34.2435 31.677H32.6761C32.2868 34.3661 30.3609 36 27.4209 36C24.4808 36 22.5549 34.3661 22.181 31.677H14.9896C14.6157 34.3661 12.6898 36 9.7497 36C6.79426 36 4.86836 34.3507 4.50982 31.6462C3.10637 31.5131 2 30.4118 2 29.0596V8.60201C2 7.15759 3.23954 6 4.77617 6H25.9252C27.4618 6 28.7014 7.17296 28.7014 8.61738V11.2911C29.8078 11.4396 30.868 12.0338 31.5083 12.9097C33.2242 15.2146 34.9554 17.5093 36.7021 19.7886C37.1528 20.3725 37.9877 21.4533 37.9877 22.7492ZM20.9312 18.3186V16.5003L17.3816 16.5054C16.7669 16.5054 16.265 16.0085 16.2599 15.3888V11.8648H14.4364V15.399C14.4364 16.0137 13.9344 16.5156 13.3198 16.5156L9.77019 16.5207V18.3288H13.3249C13.9447 18.3288 14.4415 18.8257 14.4415 19.4403L14.4466 22.9746H16.265L16.2599 19.4403C16.2599 18.8257 16.7618 18.3237 17.3765 18.3237H20.9312V18.3186ZM21.341 14.2773C22.3346 14.2773 23.1695 15.0456 23.1695 15.9522V18.8718C23.1695 19.7784 22.3295 20.5467 21.341 20.5467H18.5085V23.3741C18.5085 24.3626 17.735 25.1975 16.8284 25.1975H13.8986C12.9869 25.1975 12.2185 24.3626 12.2185 23.3741V20.5518H9.37579C8.38723 20.5518 7.54721 19.7886 7.54721 18.8769V15.9573C7.54721 15.0507 8.38723 14.2824 9.37579 14.2824H12.2134V11.455C12.2134 10.4665 12.9869 9.63155 13.8986 9.63155H16.8284C17.7401 9.63155 18.5136 10.4665 18.5136 11.455V14.2773H21.341Z" fill="#86888C"/>
</svg>
