<svg width="20" height="20" viewBox="0 0 20 20" fill="none" xmlns="http://www.w3.org/2000/svg">
<path fill-rule="evenodd" clip-rule="evenodd" d="M16.425 13.9548C16.5537 13.826 16.6314 13.6596 16.6314 13.5108L16.6247 11.2558C16.6247 11.0249 16.405 10.7342 16.2696 10.5677C15.5083 9.56889 14.7514 8.56565 13.999 7.56018C13.8902 7.42035 13.7415 7.32047 13.5728 7.27164V12.461C14.4917 12.6341 15.1065 13.2467 15.273 14.159H15.9722C16.1275 14.1612 16.294 14.0835 16.425 13.9548ZM13.0157 16.0345C13.9013 16.0345 14.3541 15.5906 14.3541 14.7094C14.3541 13.8282 13.9013 13.3777 13.0157 13.3777C12.1301 13.3777 11.684 13.8282 11.684 14.7094C11.684 15.5906 12.1301 16.0345 13.0157 16.0345ZM10.7651 14.1612C10.9382 13.2023 11.6063 12.5764 12.6006 12.441V5.1342C12.6006 5.05651 12.503 4.96551 12.3676 4.96551H3.20522C3.06983 4.96551 2.97217 5.04764 2.97217 5.12754V13.9925C2.97217 14.0502 3.03654 14.1012 3.11422 14.1279C3.3273 13.0581 4.1441 12.4077 5.3582 12.4077C6.58562 12.4077 7.40908 13.0647 7.6155 14.159H10.7651V14.1612ZM5.3582 16.0345C6.24381 16.0345 6.6966 15.5906 6.6966 14.7094C6.6966 13.8282 6.24381 13.3777 5.3582 13.3777C4.4726 13.3777 4.02646 13.8282 4.02646 14.7094C4.02646 15.5906 4.4726 16.0345 5.3582 16.0345ZM17.5947 11.258L17.6013 13.5131C17.6013 13.917 17.4193 14.3299 17.1108 14.6384C16.8001 14.9469 16.385 15.1267 15.9722 15.1267H15.293C15.1243 16.292 14.2897 17 13.0157 17C11.7417 17 10.9071 16.292 10.7451 15.1267H7.62882C7.46679 16.292 6.63223 17 5.3582 17C4.07751 17 3.24296 16.2853 3.08759 15.1134C2.47943 15.0557 2 14.5785 2 13.9925V5.12754C2 4.50162 2.53713 4 3.203 4H12.3676C13.0335 4 13.5706 4.50828 13.5706 5.1342V6.29281C14.05 6.35718 14.5095 6.61465 14.7869 6.99419C15.5305 7.993 16.2807 8.98737 17.0376 9.97507C17.2329 10.2281 17.5947 10.6964 17.5947 11.258ZM10.2035 9.33806V8.55011L8.66536 8.55233C8.39901 8.55233 8.18149 8.33703 8.17927 8.06847V6.5414H7.38911V8.0729C7.38911 8.33925 7.17159 8.55677 6.90524 8.55677L5.36708 8.55899V9.3425H6.90746C7.17603 9.3425 7.39133 9.55779 7.39133 9.82414L7.39355 11.3556H8.18149L8.17927 9.82414C8.17927 9.55779 8.39679 9.34028 8.66314 9.34028H10.2035V9.33806ZM10.3811 7.58682C10.8117 7.58682 11.1735 7.91975 11.1735 8.31262V9.57777C11.1735 9.97063 10.8095 10.3036 10.3811 10.3036H9.15366V11.5288C9.15366 11.9571 8.81851 12.3189 8.42564 12.3189H7.15605C6.76097 12.3189 6.42803 11.9571 6.42803 11.5288V10.3058H5.19618C4.7678 10.3058 4.40379 9.97507 4.40379 9.57999V8.31484C4.40379 7.92197 4.7678 7.58904 5.19618 7.58904H6.42582V6.36384C6.42582 5.93546 6.76097 5.57367 7.15605 5.57367H8.42564C8.82073 5.57367 9.15588 5.93546 9.15588 6.36384V7.58682H10.3811Z" fill="#86888C"/>
</svg>
