<svg width="28" height="28" viewBox="0 0 28 28" fill="none" xmlns="http://www.w3.org/2000/svg">
<path fill-rule="evenodd" clip-rule="evenodd" d="M24.1922 20.315C24.3903 20.117 24.5098 19.8608 24.5098 19.6321L24.4996 16.1627C24.4996 15.8076 24.1615 15.3603 23.9532 15.1041C22.782 13.5675 21.6175 12.0241 20.46 10.4772C20.2926 10.2621 20.0639 10.1084 19.8043 10.0333V18.0169C21.218 18.2833 22.1639 19.2257 22.42 20.6292H23.4956C23.7347 20.6326 23.9908 20.5131 24.1922 20.315ZM18.9472 23.5146C20.3097 23.5146 21.0063 22.8317 21.0063 21.476C21.0063 20.1204 20.3097 19.4272 18.9472 19.4272C17.5848 19.4272 16.8984 20.1204 16.8984 21.476C16.8984 22.8317 17.5848 23.5146 18.9472 23.5146ZM15.4847 20.6326C15.7511 19.1574 16.7789 18.1945 18.3087 17.9862V6.74492C18.3087 6.62541 18.1584 6.4854 17.9501 6.4854H3.85419C3.64589 6.4854 3.49565 6.61175 3.49565 6.73468V20.3731C3.49565 20.4618 3.59467 20.5404 3.71419 20.5814C4.042 18.9355 5.29862 17.9349 7.16647 17.9349C9.05481 17.9349 10.3217 18.9457 10.6392 20.6292H15.4847V20.6326ZM7.16647 23.5146C8.52894 23.5146 9.22554 22.8317 9.22554 21.476C9.22554 20.1204 8.52894 19.4272 7.16647 19.4272C5.804 19.4272 5.11764 20.1204 5.11764 21.476C5.11764 22.8317 5.804 23.5146 7.16647 23.5146ZM25.9918 16.1661L26.002 19.6355C26.002 20.257 25.722 20.8921 25.2474 21.3667C24.7693 21.8414 24.1308 22.118 23.4956 22.118H22.4507C22.1912 23.9107 20.9073 25 18.9472 25C16.9872 25 15.7033 23.9107 15.454 22.118H10.6597C10.4104 23.9107 9.12652 25 7.16647 25C5.19618 25 3.91224 23.9005 3.67321 22.0975C2.73758 22.0087 2 21.2745 2 20.3731V6.73468C2 5.77173 2.82636 5 3.85078 5H17.9501C18.9746 5 19.8009 5.78197 19.8009 6.74492V8.5274C20.5385 8.62643 21.2453 9.02254 21.6722 9.60645C22.8161 11.1431 23.9703 12.6729 25.1347 14.1924C25.4352 14.5817 25.9918 15.3022 25.9918 16.1661ZM14.6208 13.2124V12.0002L12.2544 12.0036C11.8446 12.0036 11.51 11.6724 11.5066 11.2592V8.90985H10.2909V11.266C10.2909 11.6758 9.95629 12.0104 9.54653 12.0104L7.18013 12.0138V13.2192H9.54994C9.96312 13.2192 10.2943 13.5505 10.2943 13.9602L10.2978 16.3164H11.51L11.5066 13.9602C11.5066 13.5505 11.8412 13.2158 12.251 13.2158H14.6208V13.2124ZM14.894 10.5182C15.5564 10.5182 16.113 11.0304 16.113 11.6348V13.5812C16.113 14.1856 15.553 14.6978 14.894 14.6978H13.0056V16.5827C13.0056 17.2418 12.49 17.7984 11.8856 17.7984H9.93239C9.32457 17.7984 8.81236 17.2418 8.81236 16.5827V14.7012H6.91719C6.25815 14.7012 5.69814 14.1924 5.69814 13.5846V11.6382C5.69814 11.0338 6.25815 10.5216 6.91719 10.5216H8.80895V8.63667C8.80895 7.97763 9.32457 7.42103 9.93239 7.42103H11.8856C12.4934 7.42103 13.009 7.97763 13.009 8.63667V10.5182H14.894Z" fill="#86888C"/>
</svg>
