<svg width="40" height="40" viewBox="0 0 40 40" fill="none" xmlns="http://www.w3.org/2000/svg">
<path fill-rule="evenodd" clip-rule="evenodd" d="M35.7526 12.7279V9.56679C35.7526 9.34649 35.5681 9.16717 35.3376 9.16717H4.67438C4.44383 9.16717 4.25939 9.34649 4.25939 9.56679V12.7279H35.7526ZM35.7526 20.4795V14.9002H4.25427V31.4281C4.25427 31.6484 4.43871 31.8277 4.66926 31.8277H23.6717C23.7588 31.6535 23.8613 31.4844 24.0047 31.3461L24.681 30.7006C24.6144 30.5161 24.5581 30.3317 24.5068 30.1575H23.7486C22.7598 30.1575 21.9503 29.3839 21.9503 28.4258V27.2167C21.9503 26.2638 22.7546 25.485 23.7486 25.485H24.5068C24.5529 25.3108 24.6144 25.1264 24.681 24.9419L24.0047 24.2913C23.6666 23.9634 23.477 23.5279 23.477 23.0617C23.477 22.5954 23.6666 22.16 24.0047 21.8269L24.9218 20.9457C25.6237 20.2695 26.7713 20.2643 27.4784 20.9457L28.1546 21.5964C28.334 21.5349 28.5235 21.4786 28.7131 21.4273V20.6998C28.7131 19.7469 29.5175 18.9681 30.5114 18.9681H31.7666C32.7554 18.9681 33.5649 19.7469 33.5649 20.6998V21.4273C33.7545 21.4786 33.9389 21.5349 34.1233 21.5964L34.7996 20.9457C35.0712 20.6998 35.399 20.5461 35.7526 20.4795ZM35.7526 31.4281V22.7082L35.0507 23.3844C34.7535 23.6662 34.3027 23.7431 33.9287 23.5638C33.4727 23.3486 33.0013 23.2102 32.4378 23.1231C31.9664 23.0514 31.6129 22.6569 31.6129 22.1907V20.8535H30.6753V22.1907C30.6753 22.6518 30.3269 23.0463 29.8556 23.1231C29.292 23.2102 28.7951 23.3588 28.375 23.5638C28.0009 23.7431 27.545 23.6765 27.2478 23.3844L26.2078 22.3854L25.5008 23.0668L26.5408 24.0658C26.8482 24.3681 26.9148 24.8292 26.6996 25.193C26.5408 25.4645 26.3666 26.0383 26.2744 26.5814C26.1975 27.0374 25.7877 27.3704 25.3112 27.3704H23.9228V28.2721H25.3112C25.7877 28.2721 26.2027 28.6102 26.2744 29.0611C26.3666 29.6042 26.5408 30.178 26.6996 30.4495C26.9199 30.8184 26.8533 31.2795 26.5408 31.5818L26.2795 31.8328H35.3376C35.563 31.8277 35.7526 31.6484 35.7526 31.4281ZM35.3324 7C36.808 7 38.0068 8.15275 38.0068 9.57192V31.4281C38.0068 32.8472 36.808 34 35.3324 34H4.67438C3.19886 34 2 32.8472 2 31.4281V9.57192C2 8.15275 3.19886 7 4.67438 7H35.3324ZM9.60816 9.93055C10.1871 9.93055 10.6533 10.3814 10.6533 10.9347C10.6533 11.488 10.1871 11.944 9.60816 11.944C9.02922 11.944 8.563 11.488 8.563 10.9347C8.563 10.3814 9.02922 9.93055 9.60816 9.93055ZM12.7488 9.93055C13.3277 9.93055 13.7939 10.3814 13.7939 10.9347C13.7939 11.488 13.3277 11.944 12.7488 11.944C12.1698 11.944 11.7036 11.488 11.7036 10.9347C11.6985 10.3814 12.1647 9.93055 12.7488 9.93055ZM6.47268 9.93055C7.05161 9.93055 7.51784 10.3814 7.51784 10.9347C7.51784 11.488 7.05161 11.944 6.47268 11.944C5.89374 11.944 5.42751 11.488 5.42751 10.9347C5.42751 10.3814 5.89374 9.93055 6.47268 9.93055ZM31.2184 29.4454C32.4326 29.4454 32.9501 28.9484 32.9501 27.7803C32.9501 26.6121 32.4326 26.1101 31.2184 26.1101C30.0042 26.1101 29.4867 26.607 29.4867 27.7803C29.4867 28.9484 30.0042 29.4454 31.2184 29.4454ZM31.2184 24.2247C33.4932 24.2247 34.9072 25.5875 34.9072 27.7751C34.9072 29.9628 33.4932 31.3256 31.2184 31.3256C28.9436 31.3256 27.5296 29.9628 27.5296 27.7751C27.5296 25.5875 28.9436 24.2247 31.2184 24.2247Z" fill="#86888C"/>
<path d="M8.11726 18.9937H9.77722L12.1596 25.5977H10.5457L9.99752 23.9378H7.85597L7.34363 25.5977H5.9091L8.11726 18.9937ZM9.63377 22.8465L8.91137 20.6435H8.89088L8.20435 22.8465H9.63377ZM12.9281 18.9937H15.1977C16.2326 18.9937 16.8884 19.1372 17.3137 19.5368C17.6723 19.8647 17.8465 20.377 17.8465 21.0841C17.8465 21.7911 17.6825 22.3188 17.3546 22.6877C16.9704 23.1232 16.371 23.323 15.5 23.323H14.4395V25.6029H12.9332V18.9937H12.9281ZM15.1772 22.1907C15.6588 22.1907 15.8637 22.1241 16.0533 21.9397C16.2275 21.7655 16.3146 21.4837 16.3146 21.0994C16.3146 20.7408 16.2378 20.4795 16.0636 20.3156C15.8791 20.1516 15.6025 20.085 15.1362 20.085H14.4292V22.1907H15.1772ZM18.9275 18.9937H20.4338V25.5977H18.9275V18.9937Z" fill="#86888C"/>
</svg>
