<svg width="24" height="24" viewBox="0 0 24 24" fill="none" xmlns="http://www.w3.org/2000/svg">
<path fill-rule="evenodd" clip-rule="evenodd" d="M5.46217 18.7479L16.9864 7.22369L17.2889 17.9296C17.3152 18.4026 17.7158 18.767 18.1908 18.743C18.6497 18.7189 19.0079 18.3406 19.0038 17.8817L18.6444 5.18719C18.6423 5.13285 18.6202 5.08252 18.6101 5.02818C18.6 4.97786 18.596 4.92552 18.5759 4.87721C18.5315 4.77656 18.4711 4.68396 18.3926 4.60545L18.3886 4.60142C18.3101 4.52693 18.2195 4.46853 18.1188 4.42423C18.0685 4.40208 18.0162 4.39804 17.9639 4.38997C17.9135 4.3799 17.8652 4.35573 17.8109 4.35371L5.34378 4.0004C4.87078 3.98619 4.47637 4.35644 4.4624 4.82943C4.4624 4.82943 4.46039 4.83145 4.4624 4.83346C4.44843 5.30645 4.8229 5.70104 5.2959 5.71525L15.7744 6.01171L4.25019 17.5359C3.91615 17.8699 3.91629 18.4134 4.2525 18.7496C4.5867 19.0838 5.13014 19.0839 5.46217 18.7479Z" fill="#86888C"/>
</svg>
