<svg width="24" height="24" viewBox="0 0 24 24" fill="none" xmlns="http://www.w3.org/2000/svg">
<path fill-rule="evenodd" clip-rule="evenodd" d="M2.85657 12.7816L19.1542 12.7816L11.798 20.5657C11.4821 20.9188 11.5077 21.4598 11.8606 21.7786C12.202 22.0861 12.7228 22.0719 13.0444 21.7445L21.7666 12.5139C21.8036 12.4741 21.8236 12.4228 21.8549 12.3773C21.8833 12.3346 21.9175 12.2947 21.9374 12.2463C21.9772 12.1438 22 12.0356 22 11.9246V11.9189C21.9972 11.8107 21.9744 11.7053 21.9345 11.6029C21.9146 11.5516 21.8805 11.5117 21.8492 11.469C21.8207 11.4263 21.8036 11.3751 21.7666 11.3352L13.2009 2.26982C12.8765 1.92532 12.3358 1.90823 11.9915 2.23281C11.9915 2.23281 11.9886 2.23281 11.9886 2.23566C11.6443 2.56024 11.6301 3.10404 11.9545 3.44855L19.1542 11.0676L2.85657 11.0676C2.38418 11.0676 2 11.452 2 11.9274C2 12.4001 2.38418 12.7844 2.85657 12.7816Z" fill="#86888C"/>
</svg>
