<svg width="24" height="24" viewBox="0 0 24 24" fill="none" xmlns="http://www.w3.org/2000/svg">
<path fill-rule="evenodd" clip-rule="evenodd" d="M11.2184 2.85657L11.2184 19.1542L3.43425 11.798C3.0812 11.4821 2.54024 11.5077 2.22136 11.8606C1.91386 12.202 1.9281 12.7228 2.25552 13.0444L11.4861 21.7666C11.5259 21.8036 11.5772 21.8236 11.6227 21.8549C11.6654 21.8833 11.7053 21.9175 11.7537 21.9374C11.8562 21.9772 11.9644 22 12.0754 22H12.0811C12.1893 21.9972 12.2947 21.9744 12.3971 21.9345C12.4484 21.9146 12.4883 21.8805 12.531 21.8492C12.5737 21.8207 12.6249 21.8036 12.6648 21.7666L21.7302 13.2009C22.0747 12.8765 22.0918 12.3358 21.7672 11.9915C21.7672 11.9915 21.7672 11.9886 21.7643 11.9886C21.4398 11.6443 20.896 11.6301 20.5514 11.9545L12.9324 19.1542L12.9324 2.85657C12.9324 2.38418 12.548 2 12.0726 2C11.5999 2 11.2156 2.38418 11.2184 2.85657Z" fill="#86888C"/>
</svg>
