<svg width="28" height="28" viewBox="0 0 28 28" fill="none" xmlns="http://www.w3.org/2000/svg">
<path d="M25.9619 11.1776C25.9619 11.2806 25.95 11.3796 25.9302 11.4826C25.8272 11.958 25.5024 12.3383 25.1934 12.6473L25.1736 12.6671L17.9397 19.4731L21.5883 23.1217L21.6002 23.1336C22.0479 23.601 22.1786 24.3973 21.9092 25.0272C21.6557 25.6135 21.105 25.9621 20.4316 25.9582H3.33739C2.94124 25.9859 2.5847 25.8591 2.32323 25.5977C2.06177 25.3362 1.935 24.9797 1.96669 24.5835L1.97462 7.40614C1.97065 6.80398 2.29154 6.30087 2.8422 6.05525C3.48793 5.76605 4.32383 5.89679 4.83091 6.36029C4.83883 6.36821 4.84675 6.37614 4.85468 6.3801L8.21409 9.75139L14.9884 2.81469L14.9963 2.80676C15.5153 2.2878 16.0659 2.03029 16.6403 2.03822C17.1989 2.04614 17.7417 2.31157 18.2567 2.83053L25.3954 9.93759L25.4192 9.96135C25.7797 10.3535 25.9619 10.7656 25.9619 11.1776ZM24.1237 11.5698C24.3614 11.3281 24.4209 11.2211 24.4367 11.1815C24.4248 11.1577 24.3931 11.0983 24.306 10.9993L17.1791 3.90412C16.9573 3.68227 16.7552 3.55946 16.6126 3.5555C16.4343 3.55154 16.2204 3.72585 16.0738 3.87639L9.20448 10.9082L9.19655 10.9161C8.65382 11.4588 7.78227 11.4707 7.25142 10.9399L3.78901 7.47745C3.72959 7.43387 3.57905 7.41407 3.48793 7.43387L3.48001 24.4369H20.4316C20.4672 24.4369 20.491 24.433 20.5029 24.429C20.5306 24.3775 20.5266 24.2349 20.491 24.1794L16.7394 20.4278C16.4819 20.1703 16.3393 19.8059 16.3511 19.4374C16.363 19.0769 16.5096 18.7402 16.7671 18.4827L16.783 18.4668L24.1237 11.5698Z" fill="#86888C"/>
</svg>
