<svg width="40" height="40" viewBox="0 0 40 40" fill="none" xmlns="http://www.w3.org/2000/svg">
<path fill-rule="evenodd" clip-rule="evenodd" d="M21.4068 36.4582L21.4068 7.12237L35.4183 20.3637C36.0538 20.9323 37.0276 20.8862 37.6016 20.251C38.155 19.6363 38.1294 18.6989 37.5401 18.1201L20.9251 2.42003C20.8534 2.35344 20.7611 2.31759 20.6791 2.26124C20.6022 2.21002 20.5305 2.14855 20.4434 2.11269C20.2589 2.04098 20.0641 2 19.8642 2H19.854C19.6593 2.00512 19.4696 2.0461 19.2851 2.11781C19.1929 2.15367 19.1211 2.21514 19.0443 2.27149C18.9674 2.32271 18.8751 2.35344 18.8034 2.42003L2.48568 17.8384C1.86557 18.4223 1.83482 19.3956 2.41906 20.0154C2.41906 20.0154 2.41906 20.0205 2.42418 20.0205C3.00842 20.6403 3.98728 20.6659 4.6074 20.082L18.3216 7.12237L18.3216 36.4582C18.3216 37.3085 19.0135 38 19.8694 38C20.7201 38 21.412 37.3085 21.4068 36.4582Z" fill="#86888C"/>
</svg>
