<svg width="28" height="28" viewBox="0 0 28 28" fill="none" xmlns="http://www.w3.org/2000/svg">
<path fill-rule="evenodd" clip-rule="evenodd" d="M6.7546 22.6975L20.5836 8.86843L20.9467 21.7155C20.9782 22.2831 21.459 22.7204 22.029 22.6916C22.5797 22.6627 23.0095 22.2088 23.0045 21.6581L22.5732 6.42463C22.5708 6.35942 22.5442 6.29903 22.5321 6.23381C22.52 6.17343 22.5152 6.11063 22.491 6.05265C22.4379 5.93188 22.3654 5.82075 22.2711 5.72653L22.2663 5.7217C22.1721 5.63231 22.0634 5.56224 21.9426 5.50907C21.8822 5.48249 21.8194 5.47764 21.7566 5.46797C21.6962 5.45588 21.6383 5.42688 21.573 5.42445L6.61254 5.00047C6.04494 4.98343 5.57165 5.42772 5.55488 5.99532C5.55488 5.99532 5.55247 5.99773 5.55488 6.00015C5.53812 6.56774 5.98748 7.04125 6.55508 7.0583L19.1293 7.41405L5.30022 21.2431C4.89938 21.6439 4.89955 22.2961 5.303 22.6995C5.70404 23.1006 6.35617 23.1007 6.7546 22.6975Z" fill="#86888C"/>
</svg>
