<svg width="20" height="20" viewBox="0 0 20 20" fill="none" xmlns="http://www.w3.org/2000/svg">
<path d="M18.0098 10.0102C18.0098 10.2383 17.9094 10.4549 17.7361 10.6009L10.2925 17.7981C10.2834 17.8073 10.2743 17.8141 10.2652 17.8232C10.0166 18.0262 9.67453 18.0672 9.38719 17.9281C9.10897 17.8004 8.93109 17.5245 8.93109 17.2189L8.93109 14.0171L3.56051 14.0171C2.70532 14.0171 2.00977 13.3215 2.00977 12.4663L2.00977 7.5564C2.00977 6.69894 2.70304 6.00566 3.56051 6.00566L8.93109 6.00794L8.93109 2.78331C8.93109 2.47773 9.10897 2.19951 9.38719 2.0718C9.67453 1.93269 10.0189 1.97374 10.2652 2.1767C10.2743 2.18354 10.2834 2.19267 10.2925 2.20179L17.7361 9.41729C17.9094 9.56553 18.0098 9.78217 18.0098 10.0102ZM9.8182 17.025L17.0748 10.0079L9.8182 2.9726L9.8182 6.10144C9.8182 6.53702 9.45332 6.89278 9.00634 6.89278L3.56279 6.8905C3.19563 6.8905 2.89688 7.18696 2.89688 7.55412L2.89688 12.464C2.89688 12.8312 3.19563 13.1277 3.56051 13.1277L9.00406 13.1277C9.45104 13.1277 9.81592 13.4834 9.81592 13.919L9.81592 17.025L9.8182 17.025Z" fill="#86888C"/>
</svg>
