<svg width="40" height="40" viewBox="0 0 40 40" fill="none" xmlns="http://www.w3.org/2000/svg">
<path fill-rule="evenodd" clip-rule="evenodd" d="M7.45396 9.63123L28.1975 30.3695L8.92685 30.914C8.07544 30.9613 7.41951 31.6822 7.46277 32.537C7.50604 33.3628 8.187 34.0074 9.01303 33.9999L31.8632 33.3532C31.961 33.3495 32.0516 33.3097 32.1494 33.2915C32.24 33.2734 32.3342 33.2661 32.4212 33.2299C32.6023 33.1502 32.769 33.0415 32.9103 32.9002L32.9176 32.8929C33.0517 32.7516 33.1568 32.5886 33.2365 32.4075C33.2764 32.3169 33.2837 32.2227 33.2982 32.1286C33.3163 32.038 33.3598 31.9511 33.3635 31.8533L33.9994 9.41819C34.025 8.56701 33.3586 7.85725 32.5072 7.83211C32.5072 7.83211 32.5035 7.82849 32.4999 7.83211C31.6485 7.80697 30.9383 8.48085 30.9127 9.33203L30.3791 28.1885L9.63552 7.45022C9.03426 6.84911 8.05606 6.84936 7.45088 7.45439C6.84932 8.05579 6.84907 9.03375 7.45396 9.63123Z" fill="#86888C"/>
</svg>
