<svg width="40" height="40" viewBox="0 0 40 40" fill="none" xmlns="http://www.w3.org/2000/svg">
<path d="M38.0029 14.0425C38.0029 14.3391 37.9058 14.6408 37.7063 14.8965C37.6552 14.963 37.5989 15.0192 37.5376 15.0755L29.8464 22.6644C29.8209 22.6899 29.7953 22.7104 29.7697 22.7309C29.3453 23.0735 28.747 23.1451 28.2509 22.9098C27.76 22.6746 27.4583 22.199 27.4532 21.6672L27.4225 18.3381L22.1348 18.3432C20.9229 18.3432 19.941 17.3614 19.941 16.1494V11.9152C19.941 10.7032 20.9229 9.72136 22.1348 9.72136L27.4378 9.71624L27.4634 6.38205C27.4634 5.8451 27.7702 5.36952 28.2611 5.13428C28.7572 4.89905 29.3555 4.97064 29.7799 5.31838C29.8055 5.33883 29.8311 5.35929 29.8515 5.38486L37.5376 13.0095C37.8444 13.2806 38.0029 13.659 38.0029 14.0425ZM29.4936 20.1382L35.671 14.0425L29.4936 7.91107L29.4731 10.3759V10.3964C29.4527 11.1634 28.8186 11.772 28.0515 11.7618L22.1348 11.7669C22.053 11.7669 21.9865 11.8334 21.9865 11.9152V16.1494C21.9865 16.2312 22.053 16.2977 22.1348 16.2977L28.0515 16.2875C28.8134 16.2772 29.4527 16.8807 29.4731 17.6477V17.6682L29.4936 20.1382ZM20.0535 23.861V28.0901C20.0535 29.3021 19.0717 30.2839 17.8597 30.2839L12.5618 30.289L12.5362 33.6181C12.5362 34.1551 12.2294 34.6307 11.7385 34.8659C11.2424 35.1011 10.6441 35.0295 10.2197 34.6818C10.1941 34.6613 10.1685 34.6409 10.1481 34.6153L2.46717 26.9958C2.21148 26.7708 2.05295 26.4639 2.01204 26.1264C1.97113 25.7633 2.06829 25.4003 2.29841 25.1139C2.34955 25.0474 2.4058 24.9911 2.46717 24.9349L10.1481 17.3511C10.1737 17.3256 10.1992 17.3051 10.2248 17.2847C10.6492 16.942 11.2476 16.8704 11.7436 17.1057C12.2345 17.3409 12.5362 17.8165 12.5413 18.3483L12.5669 21.6723L17.8597 21.6672C19.0665 21.6672 20.0535 22.649 20.0535 23.861ZM11.943 28.2435L17.8546 28.2384C17.9364 28.2384 18.0029 28.1719 18.0029 28.0901V23.861C18.0029 23.7792 17.9364 23.7127 17.8546 23.7127L11.943 23.7178C11.1811 23.728 10.5418 23.1246 10.5214 22.3575V22.3371L10.5009 19.8722L4.32859 25.9628L10.5009 32.084L10.5214 29.6242V29.6038C10.5418 28.8367 11.1811 28.2333 11.943 28.2435Z" fill="#86888C"/>
</svg>
