<svg width="28" height="28" viewBox="0 0 28 28" fill="none" xmlns="http://www.w3.org/2000/svg">
<path fill-rule="evenodd" clip-rule="evenodd" d="M13.0621 3.02789L13.0621 22.5851L3.7211 13.7575C3.29744 13.3785 2.64829 13.4092 2.26563 13.8327C1.89664 14.2425 1.91372 14.8674 2.30663 15.2533L13.3833 25.72C13.4311 25.7644 13.4926 25.7883 13.5473 25.8258C13.5985 25.86 13.6463 25.901 13.7044 25.9249C13.8274 25.9727 13.9573 26 14.0905 26H14.0973C14.2272 25.9966 14.3536 25.9693 14.4766 25.9215C14.5381 25.8976 14.5859 25.8566 14.6372 25.819C14.6884 25.7849 14.7499 25.7644 14.7977 25.72L25.6762 15.4411C26.0896 15.0518 26.1101 14.403 25.7206 13.9898C25.7206 13.9898 25.7206 13.9863 25.7172 13.9863C25.3277 13.5731 24.6751 13.5561 24.2617 13.9454L15.1189 22.5851L15.1189 3.02789C15.1189 2.46101 14.6577 2 14.0871 2C13.5199 2 13.0587 2.46101 13.0621 3.02789Z" fill="#86888C"/>
</svg>
