<svg width="20" height="20" viewBox="0 0 20 20" fill="none" xmlns="http://www.w3.org/2000/svg">
<path fill-rule="evenodd" clip-rule="evenodd" d="M17.3147 9.37473H4.27661L10.1616 3.1474C10.4143 2.86496 10.3939 2.43219 10.1116 2.17709C9.83836 1.93109 9.42174 1.94248 9.16449 2.20442L2.18668 9.58884C2.15709 9.62073 2.14115 9.66173 2.11611 9.69817C2.09334 9.73234 2.06602 9.76423 2.05009 9.80295C2.01821 9.88495 2 9.9715 2 10.0603V10.0649C2.00228 10.1514 2.02049 10.2357 2.05236 10.3177C2.0683 10.3587 2.09562 10.3906 2.12066 10.4248C2.14343 10.4589 2.15709 10.4999 2.18668 10.5318L9.03927 17.7841C9.29881 18.0597 9.73136 18.0734 10.0068 17.8138C10.0068 17.8138 10.0091 17.8138 10.0091 17.8115C10.2846 17.5518 10.296 17.1168 10.0364 16.8412L4.27661 10.7459H17.3147C17.6927 10.7459 18 10.4384 18 10.0581C18 9.67995 17.6927 9.37246 17.3147 9.37473Z" fill="#86888C"/>
</svg>
