<svg width="20" height="20" viewBox="0 0 20 20" fill="none" xmlns="http://www.w3.org/2000/svg">
<path d="M8.09298 2C8.16165 2 8.22767 2.00792 8.29634 2.02113C8.61327 2.0898 8.86681 2.30636 9.07281 2.51236L9.08601 2.52557L13.6233 7.34812L16.0557 4.91572L16.0637 4.90779C16.3753 4.60935 16.9061 4.5222 17.3261 4.70179C17.7169 4.87082 17.9494 5.23792 17.9467 5.6869V17.083C17.9652 17.3471 17.8807 17.5848 17.7064 17.7591C17.5321 17.9334 17.2944 18.0179 17.0303 17.9968L5.5787 17.9915C5.17727 17.9942 4.84185 17.7802 4.67811 17.4131C4.48531 16.9827 4.57247 16.4254 4.88147 16.0873C4.88675 16.0821 4.89203 16.0768 4.89467 16.0715L7.1422 13.8319L2.51773 9.3157L2.51245 9.31042C2.16647 8.96444 1.99481 8.59733 2.00009 8.21438C2.00537 7.84199 2.18232 7.48017 2.5283 7.13683L7.26633 2.37767L7.28218 2.36182C7.54364 2.12149 7.81831 2 8.09298 2ZM8.35444 3.22545C8.19334 3.06698 8.12203 3.02737 8.09562 3.0168C8.07977 3.02473 8.04016 3.04585 7.97413 3.10396L3.24402 7.8552C3.09612 8.0031 3.01425 8.13779 3.01161 8.23287C3.00897 8.35172 3.12517 8.49433 3.22553 8.59205L7.91339 13.1716L7.91867 13.1769C8.28049 13.5387 8.28842 14.1198 7.93452 14.4737L5.62624 16.7819C5.59719 16.8215 5.58399 16.9219 5.59719 16.9827L16.9326 16.9879V5.6869C16.9326 5.66313 16.9299 5.64728 16.9273 5.63936C16.8929 5.62087 16.7979 5.62352 16.7609 5.64728L14.2598 8.14835C14.0882 8.32002 13.8452 8.4151 13.5996 8.40718C13.3592 8.39925 13.1347 8.30154 12.9631 8.12987L12.9525 8.1193L8.35444 3.22545Z" fill="#86888C"/>
</svg>
