<svg width="28" height="28" viewBox="0 0 28 28" fill="none" xmlns="http://www.w3.org/2000/svg">
<path d="M11.1395 2C11.2425 2 11.3415 2.01188 11.4445 2.03169C11.9199 2.13469 12.3002 2.45954 12.6092 2.76855L12.629 2.78835L19.435 10.0222L23.0836 6.37357L23.0955 6.36169C23.5629 5.91403 24.3592 5.7833 24.9891 6.05268C25.5754 6.30622 25.924 6.85688 25.9201 7.53035L25.9201 24.6245C25.9478 25.0207 25.821 25.3772 25.5596 25.6387C25.2981 25.9001 24.9416 26.0269 24.5454 25.9952L7.36806 25.9873C6.7659 25.9913 6.26278 25.6704 6.01716 25.1197C5.72797 24.474 5.8587 23.6381 6.3222 23.131C6.33013 23.1231 6.33805 23.1152 6.34201 23.1072L9.7133 19.7478L2.7766 12.9735L2.76868 12.9656C2.24971 12.4467 1.99221 11.896 2.00013 11.3216C2.00805 10.763 2.27348 10.2203 2.79244 9.70525L9.8995 2.5665L9.92327 2.54274C10.3155 2.18223 10.7275 2 11.1395 2ZM11.5317 3.83817C11.29 3.60048 11.183 3.54105 11.1434 3.5252C11.1197 3.53709 11.0602 3.56878 10.9612 3.65594L3.86603 10.7828C3.64418 11.0046 3.52137 11.2067 3.51741 11.3493C3.51345 11.5276 3.68776 11.7415 3.8383 11.8881L10.8701 18.7574L10.878 18.7654C11.4207 19.3081 11.4326 20.1796 10.9018 20.7105L7.43936 24.1729C7.39579 24.2323 7.37598 24.3829 7.39579 24.474L24.3988 24.4819L24.3988 7.53035C24.3988 7.4947 24.3949 7.47093 24.3909 7.45904C24.3394 7.43131 24.1968 7.43527 24.1413 7.47093L20.3897 11.2225C20.1322 11.48 19.7678 11.6227 19.3993 11.6108C19.0388 11.5989 18.7021 11.4523 18.4446 11.1948L18.4288 11.179L11.5317 3.83817Z" fill="#86888C"/>
</svg>
