<svg width="20" height="20" viewBox="0 0 20 20" fill="none" xmlns="http://www.w3.org/2000/svg">
<path fill-rule="evenodd" clip-rule="evenodd" d="M5.16973 15.7983L14.3891 6.57895L14.6311 15.1437C14.6522 15.5221 14.9727 15.8136 15.3527 15.7944C15.7198 15.7752 16.0063 15.4725 16.003 15.1054L15.7155 4.94975C15.7139 4.90628 15.6961 4.86602 15.6881 4.82254C15.68 4.78228 15.6768 4.74042 15.6607 4.70177C15.6252 4.62125 15.5769 4.54717 15.5141 4.48435L15.5109 4.48113C15.4481 4.42154 15.3756 4.37483 15.2951 4.33938C15.2548 4.32166 15.2129 4.31843 15.1711 4.31198C15.1308 4.30392 15.0922 4.28458 15.0487 4.28296L5.07503 4.00032C4.69663 3.98895 4.3811 4.28515 4.36992 4.66354C4.36992 4.66354 4.36831 4.66515 4.36992 4.66677C4.35874 5.04516 4.65832 5.36083 5.03672 5.3722L13.4195 5.60937L4.20015 14.8287C3.93292 15.0959 3.93303 15.5307 4.202 15.7997C4.46936 16.067 4.90412 16.0671 5.16973 15.7983Z" fill="#86888C"/>
</svg>
