<svg width="28" height="28" viewBox="0 0 28 28" fill="none" xmlns="http://www.w3.org/2000/svg">
<path d="M1.96191 16.8224C1.96191 16.7194 1.9738 16.6204 1.99361 16.5174C2.09661 16.042 2.42146 15.6617 2.73046 15.3527L2.75027 15.3329L9.98409 8.52692L6.33549 4.87832L6.3236 4.86643C5.87595 4.39897 5.74521 3.60269 6.0146 2.9728C6.26814 2.38649 6.8188 2.03787 7.49227 2.04183L24.5864 2.04183C24.9826 2.0141 25.3391 2.14087 25.6006 2.40234C25.8621 2.6638 25.9888 3.02034 25.9571 3.4165L25.9492 20.5939C25.9532 21.196 25.6323 21.6991 25.0816 21.9448C24.4359 22.2339 23.6 22.1032 23.0929 21.6397C23.085 21.6318 23.0771 21.6239 23.0692 21.6199L19.7097 18.2486L12.9355 25.1853L12.9275 25.1932C12.4086 25.7122 11.8579 25.9697 11.2835 25.9618C10.7249 25.9539 10.1822 25.6884 9.66717 25.1695L2.52842 18.0624L2.50465 18.0386C2.14415 17.6465 1.96191 17.2344 1.96191 16.8224ZM3.80008 16.4302C3.56239 16.6719 3.50296 16.7789 3.48712 16.8185C3.499 16.8423 3.53069 16.9017 3.61785 17.0007L10.7447 24.0959C10.9666 24.3177 11.1686 24.4405 11.3112 24.4445C11.4895 24.4485 11.7034 24.2742 11.85 24.1236L18.7193 17.0918L18.7273 17.0839C19.27 16.5412 20.1416 16.5293 20.6724 17.0601L24.1348 20.5226C24.1942 20.5661 24.3448 20.5859 24.4359 20.5661L24.4438 3.56308L7.49227 3.56308C7.45661 3.56308 7.43284 3.56704 7.42096 3.571C7.39322 3.6225 7.39719 3.76512 7.43284 3.82058L11.1844 7.57218C11.4419 7.82968 11.5846 8.19415 11.5727 8.56257C11.5608 8.92308 11.4142 9.25981 11.1567 9.51731L11.1409 9.53316L3.80008 16.4302Z" fill="#86888C"/>
</svg>
