<svg width="24" height="24" viewBox="0 0 24 24" fill="none" xmlns="http://www.w3.org/2000/svg">
<path d="M15.6447 22C15.4799 22 15.3123 21.946 15.1702 21.8352C15.1333 21.8068 15.102 21.7756 15.0708 21.7415L10.8548 17.4686C10.8405 17.4544 10.8292 17.4402 10.8178 17.426C10.6275 17.1902 10.5877 16.8578 10.7184 16.5822C10.8491 16.3095 11.1133 16.1419 11.4087 16.139L13.2582 16.122L13.2554 13.1844C13.2554 12.5111 13.8009 11.9656 14.4742 11.9656H16.8265C17.4998 11.9656 18.0453 12.5111 18.0453 13.1844L18.0482 16.1305L19.9005 16.1447C20.1988 16.1447 20.463 16.3152 20.5937 16.5879C20.7244 16.8635 20.6846 17.1959 20.4914 17.4317C20.4801 17.4459 20.4687 17.4601 20.4545 17.4715L16.2186 21.7415C16.068 21.9119 15.8577 22 15.6447 22ZM12.2582 17.2726L15.6447 20.7045L19.051 17.2726L17.6817 17.2612H17.6703C17.2442 17.2499 16.9061 16.8976 16.9118 16.4714L16.9089 13.1844C16.9089 13.1389 16.872 13.102 16.8265 13.102H14.4742C14.4287 13.102 14.3918 13.1389 14.3918 13.1844L14.3975 16.4714C14.4032 16.8947 14.0679 17.2499 13.6418 17.2612H13.6304L12.2582 17.2726ZM10.19 12.0281H7.84045C7.16714 12.0281 6.62167 11.4826 6.62167 10.8093L6.61883 7.86604L4.76934 7.85183C4.47103 7.85183 4.20682 7.68137 4.07613 7.40864C3.94545 7.13306 3.98522 6.80066 4.17841 6.56486C4.18977 6.55066 4.20114 6.53645 4.21534 6.52509L8.44843 2.25791C8.57343 2.11586 8.74389 2.02779 8.9314 2.00506C9.13311 1.98233 9.33482 2.03631 9.49392 2.16416C9.53085 2.19257 9.5621 2.22382 9.59335 2.25791L13.8066 6.52509C13.8208 6.53929 13.8321 6.5535 13.8435 6.5677C14.0338 6.8035 14.0736 7.1359 13.9429 7.41148C13.8122 7.68421 13.548 7.85183 13.2526 7.85467L11.4059 7.86888L11.4087 10.8093C11.4087 11.4798 10.8633 12.0281 10.19 12.0281ZM7.75522 7.52228L7.75807 10.8065C7.75807 10.8519 7.795 10.8889 7.84045 10.8889H10.19C10.2354 10.8889 10.2723 10.8519 10.2723 10.8065L10.2695 7.52228C10.2638 7.09897 10.5991 6.74384 11.0252 6.73248H11.0366L12.4059 6.72112L9.02231 3.29203L5.62164 6.72112L6.98816 6.73248H6.99952C7.42567 6.74384 7.76091 7.09897 7.75522 7.52228Z" fill="#86888C"/>
</svg>
