<svg width="20" height="20" viewBox="0 0 20 20" fill="none" xmlns="http://www.w3.org/2000/svg">
<path fill-rule="evenodd" clip-rule="evenodd" d="M15.7983 14.8333L6.57895 5.61396L15.1437 5.37191C15.5221 5.35089 15.8136 5.03038 15.7944 4.65038C15.7752 4.28326 15.4725 3.99672 15.1054 4.00003L4.94975 4.28755C4.90628 4.28917 4.86602 4.3069 4.82254 4.31496C4.78228 4.32302 4.74042 4.32625 4.70177 4.34236C4.62125 4.3778 4.54717 4.42613 4.48435 4.48894L4.48113 4.49216C4.42154 4.55498 4.37483 4.62745 4.33938 4.70797C4.32166 4.74823 4.31843 4.79009 4.31198 4.83196C4.30392 4.87222 4.28458 4.91087 4.28296 4.95434L4.00032 14.928C3.98895 15.3064 4.28515 15.6219 4.66354 15.6331C4.66354 15.6331 4.66515 15.6347 4.66677 15.6331C5.04516 15.6443 5.36083 15.3447 5.3722 14.9663L5.60937 6.58354L14.8287 15.8029C15.0959 16.0701 15.5307 16.07 15.7997 15.801C16.067 15.5337 16.0671 15.0989 15.7983 14.8333Z" fill="#86888C"/>
</svg>
