<svg width="40" height="40" viewBox="0 0 40 40" fill="none" xmlns="http://www.w3.org/2000/svg">
<path fill-rule="evenodd" clip-rule="evenodd" d="M31.3688 7.45396L10.6305 28.1974L10.086 8.92684C10.0387 8.07544 9.31777 7.4195 8.46298 7.46277C7.63717 7.50604 6.99261 8.18699 7.00006 9.01302L7.64683 31.8631C7.65047 31.9609 7.69034 32.0515 7.70847 32.1493C7.72661 32.2399 7.73388 32.3341 7.77012 32.421C7.84985 32.6022 7.95855 32.7689 8.09984 32.9102L8.10709 32.9175C8.24838 33.0515 8.4114 33.1566 8.59252 33.2364C8.68308 33.2763 8.77726 33.2835 8.87143 33.2981C8.96199 33.3162 9.04893 33.3597 9.14673 33.3633L31.5818 33.9993C32.433 34.0249 33.1427 33.3584 33.1679 32.507C33.1679 32.507 33.1715 32.5034 33.1679 32.4998C33.193 31.6484 32.5192 30.9381 31.668 30.9126L12.8115 30.3789L33.5498 9.63551C34.1509 9.03425 34.1506 8.05605 33.5456 7.45087C32.9442 6.84932 31.9663 6.84908 31.3688 7.45396Z" fill="#86888C"/>
</svg>
