<svg width="20" height="20" viewBox="0 0 20 20" fill="none" xmlns="http://www.w3.org/2000/svg">
<path fill-rule="evenodd" clip-rule="evenodd" d="M14.8333 4.20176L5.61396 13.4211L5.37191 4.85638C5.35089 4.47797 5.03038 4.18645 4.65038 4.20568C4.28326 4.22491 3.99672 4.52755 4.00003 4.89468L4.28755 15.0503C4.28917 15.0938 4.3069 15.134 4.31496 15.1775C4.32302 15.2178 4.32625 15.2596 4.34236 15.2983C4.3778 15.3788 4.42613 15.4529 4.48894 15.5157L4.49216 15.5189C4.55498 15.5785 4.62745 15.6252 4.70797 15.6607C4.74823 15.6784 4.79009 15.6816 4.83196 15.6881C4.87222 15.6961 4.91087 15.7155 4.95434 15.7171L14.928 15.9997C15.3064 16.0111 15.6219 15.7149 15.6331 15.3365C15.6331 15.3365 15.6347 15.3349 15.6331 15.3333C15.6443 14.9549 15.3447 14.6392 14.9663 14.6279L6.58354 14.3907L15.8029 5.17134C16.0701 4.90411 16.07 4.46936 15.801 4.20039C15.5337 3.93303 15.0989 3.93292 14.8333 4.20176Z" fill="#86888C"/>
</svg>
