<svg width="28" height="28" viewBox="0 0 28 28" fill="none" xmlns="http://www.w3.org/2000/svg">
<path fill-rule="evenodd" clip-rule="evenodd" d="M22.6975 21.25L8.86843 7.42093L21.7155 7.05787C22.2831 7.02633 22.7204 6.54557 22.6916 5.97557C22.6627 5.42489 22.2088 4.99508 21.6581 5.00004L6.42463 5.43133C6.35942 5.43376 6.29903 5.46034 6.23381 5.47244C6.17343 5.48453 6.11063 5.48937 6.05265 5.51354C5.93188 5.56671 5.82075 5.63919 5.72653 5.73341L5.7217 5.73825C5.63231 5.83247 5.56224 5.94117 5.50907 6.06195C5.48249 6.12234 5.47764 6.18514 5.46797 6.24794C5.45588 6.30832 5.42688 6.3663 5.42445 6.43151L5.00047 21.392C4.98343 21.9596 5.42772 22.4329 5.99532 22.4497C5.99532 22.4497 5.99773 22.4521 6.00015 22.4497C6.56774 22.4664 7.04125 22.0171 7.0583 21.4495L7.41405 8.87531L21.2431 22.7043C21.6439 23.1052 22.2961 23.105 22.6995 22.7016C23.1006 22.3005 23.1007 21.6484 22.6975 21.25Z" fill="#86888C"/>
</svg>
