<svg width="40" height="40" viewBox="0 0 40 40" fill="none" xmlns="http://www.w3.org/2000/svg">
<path d="M25.9604 38C25.6638 38 25.3621 37.9028 25.1064 37.7034C25.0399 37.6523 24.9837 37.596 24.9274 37.5346L17.3386 29.8435C17.313 29.8179 17.2925 29.7924 17.2721 29.7668C16.9295 29.3423 16.8579 28.744 17.0931 28.248C17.3283 27.7571 17.8039 27.4554 18.3357 27.4502L21.6648 27.4196L21.6597 22.1319C21.6597 20.9199 22.6416 19.9381 23.8535 19.9381H28.0878C29.2997 19.9381 30.2816 20.9199 30.2816 22.1319L30.2867 27.4349L33.6209 27.4605C34.1578 27.4605 34.6334 27.7673 34.8686 28.2582C35.1039 28.7543 35.0323 29.3526 34.6846 29.777C34.6641 29.8026 34.6436 29.8282 34.6181 29.8486L26.9934 37.5346C26.7224 37.8415 26.344 38 25.9604 38ZM19.8648 29.4906L25.9604 35.6681L32.0919 29.4906L29.627 29.4702H29.6066C28.8395 29.4497 28.2309 28.8156 28.2412 28.0486L28.2361 22.1319C28.2361 22.0501 28.1696 21.9836 28.0878 21.9836H23.8535C23.7717 21.9836 23.7052 22.0501 23.7052 22.1319L23.7155 28.0486C23.7257 28.8105 23.1223 29.4497 22.3552 29.4702H22.3347L19.8648 29.4906ZM16.1419 20.0506H11.9128C10.7008 20.0506 9.719 19.0687 9.719 17.8568L9.71389 12.5589L6.38481 12.5333C5.84786 12.5333 5.37227 12.2265 5.13704 11.7355C4.90181 11.2395 4.9734 10.6412 5.32114 10.2167C5.34159 10.1912 5.36205 10.1656 5.38762 10.1452L13.0072 2.46424C13.2322 2.20855 13.539 2.05002 13.8765 2.00911C14.2396 1.9682 14.6027 2.06536 14.889 2.29548C14.9555 2.34662 15.0118 2.40287 15.068 2.46424L22.6518 10.1452C22.6774 10.1707 22.6978 10.1963 22.7183 10.2219C23.0609 10.6463 23.1325 11.2446 22.8973 11.7407C22.662 12.2316 22.1864 12.5333 21.6546 12.5384L18.3306 12.564L18.3357 17.8568C18.3357 19.0636 17.3539 20.0506 16.1419 20.0506ZM11.7594 11.9401L11.7645 17.8516C11.7645 17.9335 11.831 17.9999 11.9128 17.9999H16.1419C16.2237 17.9999 16.2902 17.9335 16.2902 17.8516L16.2851 11.9401C16.2749 11.1781 16.8783 10.5389 17.6454 10.5185H17.6658L20.1307 10.498L14.0402 4.32566L7.91895 10.498L10.3787 10.5185H10.3991C11.1662 10.5389 11.7696 11.1781 11.7594 11.9401Z" fill="#86888C"/>
</svg>
