<svg width="20" height="20" viewBox="0 0 20 20" fill="none" xmlns="http://www.w3.org/2000/svg">
<path fill-rule="evenodd" clip-rule="evenodd" d="M9.37473 2.68526V15.7234L3.1474 9.83836C2.86496 9.58566 2.43219 9.60615 2.17709 9.88845C1.93109 10.1616 1.94248 10.5783 2.20442 10.8355L9.58884 17.8133C9.62073 17.8429 9.66173 17.8589 9.69817 17.8839C9.73234 17.9067 9.76423 17.934 9.80295 17.9499C9.88495 17.9818 9.9715 18 10.0603 18H10.0649C10.1514 17.9977 10.2357 17.9795 10.3177 17.9476C10.3587 17.9317 10.3906 17.9044 10.4248 17.8793C10.4589 17.8566 10.4999 17.8429 10.5318 17.8133L17.7841 10.9607C18.0597 10.7012 18.0734 10.2686 17.8138 9.99317C17.8138 9.99317 17.8138 9.99089 17.8115 9.99089C17.5518 9.71542 17.1168 9.70404 16.8412 9.96357L10.7459 15.7234L10.7459 2.68526C10.7459 2.30734 10.4384 2 10.0581 2C9.67995 2 9.37246 2.30734 9.37473 2.68526Z" fill="#86888C"/>
</svg>
