<svg width="28" height="28" viewBox="0 0 28 28" fill="none" xmlns="http://www.w3.org/2000/svg">
<path fill-rule="evenodd" clip-rule="evenodd" d="M21.25 5.30264L7.42093 19.1317L7.05787 6.28457C7.02633 5.71696 6.54557 5.27967 5.97557 5.30852C5.42489 5.33736 4.99508 5.79133 5.00004 6.34202L5.43133 21.5755C5.43376 21.6407 5.46034 21.7011 5.47244 21.7663C5.48453 21.8267 5.48937 21.8895 5.51354 21.9474C5.56671 22.0682 5.63919 22.1793 5.73341 22.2736L5.73825 22.2784C5.83247 22.3678 5.94117 22.4379 6.06195 22.491C6.12234 22.5176 6.18514 22.5225 6.24794 22.5321C6.30832 22.5442 6.3663 22.5732 6.43151 22.5757L21.392 22.9996C21.9596 23.0167 22.4329 22.5724 22.4497 22.0048C22.4497 22.0048 22.4521 22.0024 22.4497 21.9999C22.4664 21.4324 22.0171 20.9588 21.4495 20.9418L8.87531 20.586L22.7043 6.75701C23.1052 6.35617 23.105 5.70404 22.7016 5.30058C22.3005 4.89954 21.6484 4.89938 21.25 5.30264Z" fill="#86888C"/>
</svg>
