<svg width="20" height="20" viewBox="0 0 20 20" fill="none" xmlns="http://www.w3.org/2000/svg">
<path d="M12.3157 18C12.1839 18 12.0498 17.9568 11.9362 17.8682C11.9066 17.8454 11.8816 17.8204 11.8566 17.7932L8.4838 14.3749C8.47244 14.3635 8.46335 14.3522 8.45426 14.3408C8.30198 14.1522 8.27016 13.8862 8.37471 13.6658C8.47926 13.4476 8.69063 13.3135 8.927 13.3112L10.4066 13.2976L10.4043 10.9475C10.4043 10.4089 10.8407 9.97248 11.3793 9.97248H13.2612C13.7999 9.97248 14.2363 10.4089 14.2363 10.9475L14.2385 13.3044L15.7204 13.3158C15.959 13.3158 16.1704 13.4521 16.275 13.6703C16.3795 13.8908 16.3477 14.1567 16.1931 14.3453C16.184 14.3567 16.175 14.3681 16.1636 14.3772L12.7748 17.7932C12.6544 17.9295 12.4862 18 12.3157 18ZM9.60657 14.2181L12.3157 16.9636L15.0408 14.2181L13.9453 14.209H13.9362C13.5953 14.1999 13.3249 13.9181 13.3294 13.5771L13.3271 10.9475C13.3271 10.9111 13.2976 10.8816 13.2612 10.8816H11.3793C11.343 10.8816 11.3134 10.9111 11.3134 10.9475L11.318 13.5771C11.3225 13.9158 11.0543 14.1999 10.7134 14.209H10.7043L9.60657 14.2181ZM7.95197 10.0225H6.07236C5.53371 10.0225 5.09733 9.5861 5.09733 9.04745L5.09506 6.69283L3.61547 6.68147C3.37683 6.68147 3.16546 6.5451 3.06091 6.32691C2.95636 6.10645 2.98818 5.84053 3.14273 5.65189C3.15182 5.64052 3.16091 5.62916 3.17227 5.62007L6.55874 2.20633C6.65875 2.09269 6.79511 2.02223 6.94512 2.00405C7.10649 1.98587 7.26786 2.02905 7.39513 2.13132C7.42468 2.15405 7.44968 2.17905 7.47468 2.20633L10.8452 5.62007C10.8566 5.63143 10.8657 5.6428 10.8748 5.65416C11.0271 5.8428 11.0589 6.10872 10.9543 6.32918C10.8498 6.54737 10.6384 6.68147 10.402 6.68374L8.92473 6.6951L8.927 9.04745C8.927 9.58383 8.49062 10.0225 7.95197 10.0225ZM6.00418 6.41782L6.00645 9.04518C6.00645 9.08154 6.036 9.11109 6.07236 9.11109H7.95197C7.98833 9.11109 8.01788 9.08154 8.01788 9.04518L8.01561 6.41782C8.01106 6.07917 8.27925 5.79507 8.62017 5.78598H8.62926L9.72475 5.77689L7.01785 3.03363L4.29731 5.77689L5.39052 5.78598H5.39962C5.74054 5.79507 6.00873 6.07917 6.00418 6.41782Z" fill="#86888C"/>
</svg>
