<svg width="28" height="28" viewBox="0 0 28 28" fill="none" xmlns="http://www.w3.org/2000/svg">
<path d="M2.01465 13.9846C2.01465 13.6425 2.16516 13.3176 2.42514 13.0986L13.5905 2.30274C13.6042 2.28905 13.6178 2.27879 13.6315 2.26511C14.0044 1.96066 14.5175 1.89909 14.9485 2.10775C15.3658 2.29932 15.6327 2.71323 15.6327 3.17161L15.6327 7.97434L23.6885 7.97434C24.9713 7.97434 26.0146 9.01767 26.0146 10.3005L26.0146 17.6653C26.0146 18.9515 24.9747 19.9914 23.6885 19.9914L15.6327 19.988L15.6327 24.825C15.6327 25.2833 15.3658 25.7007 14.9485 25.8922C14.5175 26.1009 14.001 26.0393 13.6315 25.7349C13.6178 25.7246 13.6042 25.7109 13.5905 25.6973L2.42514 14.874C2.16516 14.6517 2.01465 14.3267 2.01465 13.9846ZM14.302 3.46237L3.41716 13.988L14.302 24.541L14.302 19.8478C14.302 19.1944 14.8493 18.6608 15.5198 18.6608L23.6851 18.6642C24.2359 18.6642 24.684 18.2195 24.684 17.6688L24.684 10.3039C24.684 9.75313 24.2359 9.30844 23.6885 9.30844L15.5232 9.30844C14.8527 9.30844 14.3054 8.7748 14.3054 8.12144L14.3054 3.46237L14.302 3.46237Z" fill="#86888C"/>
</svg>
