<svg width="40" height="40" viewBox="0 0 40 40" fill="none" xmlns="http://www.w3.org/2000/svg">
<path d="M19.999 38C19.4859 38 18.9984 37.7742 18.67 37.3843L2.47617 20.6363C2.45565 20.6157 2.44025 20.5952 2.41973 20.5747C1.96306 20.0154 1.8707 19.2457 2.1837 18.5992C2.47104 17.9732 3.09191 17.573 3.77948 17.573H10.9836V5.48917C10.9836 3.56499 12.5486 2 14.4727 2H25.5201C27.4494 2 29.0092 3.55986 29.0092 5.48917L29.0041 17.573H36.2595C36.9471 17.573 37.5731 17.9732 37.8604 18.5992C38.1734 19.2457 38.0811 20.0205 37.6244 20.5747C37.609 20.5952 37.5885 20.6157 37.568 20.6363L21.3331 37.3843C20.9995 37.7742 20.5121 38 19.999 38ZM4.21562 19.569L20.0041 35.8962L35.8336 19.569H28.7937C27.8137 19.569 27.0132 18.748 27.0132 17.7423L27.0184 5.4943C27.0184 4.66819 26.3513 3.99601 25.5252 3.99601H14.4779C13.6518 3.99601 12.9847 4.66819 12.9847 5.48917V17.7372C12.9847 18.7429 12.1843 19.5639 11.2042 19.5639H4.21562V19.569Z" fill="#86888C"/>
</svg>
