<svg width="28" height="28" viewBox="0 0 28 28" fill="none" xmlns="http://www.w3.org/2000/svg">
<path d="M14.03 2C14.3721 2 14.697 2.15051 14.916 2.41049L25.7119 13.5758C25.7255 13.5895 25.7358 13.6032 25.7495 13.6169C26.0539 13.9897 26.1155 14.5029 25.9068 14.9339C25.7153 15.3512 25.3014 15.618 24.843 15.618L20.0402 15.618L20.0402 23.6739C20.0402 24.9567 18.9969 26 17.7141 26L10.3493 26C9.06305 26 8.02314 24.9601 8.02314 23.6739L8.02656 15.618L3.18962 15.618C2.73124 15.618 2.31391 15.3512 2.12235 14.9339C1.91368 14.5028 1.97526 13.9863 2.2797 13.6169C2.28996 13.6032 2.30365 13.5895 2.31733 13.5758L13.1406 2.41049C13.3629 2.15051 13.6879 2 14.03 2ZM24.5522 14.2873L14.0266 3.40251L3.47354 14.2873L8.16682 14.2873C8.82018 14.2873 9.35382 14.8347 9.35382 15.5051L9.3504 23.6705C9.3504 24.2212 9.79509 24.6693 10.3458 24.6693L17.7107 24.6693C18.2615 24.6693 18.7062 24.2212 18.7062 23.6739L18.7062 15.5086C18.7062 14.8381 19.2398 14.2908 19.8932 14.2908L24.5522 14.2908L24.5522 14.2873Z" fill="#86888C"/>
</svg>
