<svg width="40" height="40" viewBox="0 0 40 40" fill="none" xmlns="http://www.w3.org/2000/svg">
<path d="M20.045 2C20.5581 2 21.0455 2.22577 21.3739 2.61574L37.5678 19.3637C37.5883 19.3843 37.6037 19.4048 37.6242 19.4253C38.0809 19.9846 38.1732 20.7543 37.8603 21.4008C37.5729 22.0268 36.952 22.427 36.2645 22.427L29.0604 22.427L29.0604 34.5108C29.0604 36.435 27.4954 38 25.5712 38L14.5239 38C12.5946 38 11.0347 36.4401 11.0347 34.5108L11.0398 22.427L3.78443 22.427C3.09686 22.427 2.47086 22.0268 2.18352 21.4008C1.87052 20.7543 1.96288 19.9795 2.41955 19.4253C2.43495 19.4048 2.45547 19.3843 2.476 19.3637L18.7109 2.61574C19.0444 2.22577 19.5319 2 20.045 2ZM35.8283 20.431L20.0398 4.10376L4.21032 20.431L11.2502 20.431C12.2303 20.431 13.0307 21.252 13.0307 22.2577L13.0256 34.5057C13.0256 35.3318 13.6926 36.004 14.5188 36.004L25.5661 36.004C26.3922 36.004 27.0592 35.3318 27.0592 34.5108L27.0592 22.2628C27.0592 21.2571 27.8597 20.4361 28.8397 20.4361L35.8283 20.4361L35.8283 20.431Z" fill="#86888C"/>
</svg>
