<svg width="40" height="40" viewBox="0 0 40 40" fill="none" xmlns="http://www.w3.org/2000/svg">
<path fill-rule="evenodd" clip-rule="evenodd" d="M20.2419 38C15.0068 38 12 35.1417 12 30.1525V7.76779C12 4.10529 14.2077 2 18.0546 2C21.9015 2 24.1093 4.10017 24.1093 7.76779L24.1554 27.9806C24.1554 30.1116 22.7672 31.4331 20.5339 31.4331C18.3005 31.4331 16.9124 30.1116 16.9124 27.9858V9.55037C16.9124 8.93056 17.44 8.43369 18.0854 8.43369C18.7359 8.43369 19.2584 8.93569 19.2584 9.55037V27.9806C19.2584 28.8873 19.5811 29.1895 20.5287 29.1895C21.4815 29.1895 21.7991 28.8873 21.7991 27.9806L21.7479 7.76779C21.7479 5.36027 20.5697 4.23847 18.0444 4.23847C15.5191 4.23847 14.3409 5.36027 14.3409 7.76779V30.1525C14.3409 33.9277 16.2669 35.7615 20.2316 35.7615C24.1964 35.7615 26.1224 33.9277 26.1224 30.1525L26.1429 9.45304C26.1429 8.83324 26.6705 8.33637 27.3159 8.33637C27.9664 8.33637 28.4889 8.83836 28.4889 9.45817L28.4684 30.1577C28.4838 35.1417 25.4769 38 20.2419 38Z" fill="#86888C"/>
</svg>
