<svg width="28" height="28" viewBox="0 0 28 28" fill="none" xmlns="http://www.w3.org/2000/svg">
<path fill-rule="evenodd" clip-rule="evenodd" d="M15.4515 25.4874C18.4362 25.4328 25.3734 24.3026 25.3734 15.029C25.3734 5.75203 18.3955 4.58088 15.3938 4.50918C15.1256 4.50235 14.8166 4.49893 14.5177 4.49893H14.3106C11.3565 4.52625 4.48726 5.59838 4.48726 14.9573C4.48726 24.3367 11.421 25.4499 14.4023 25.4908L14.752 25.4942C14.9999 25.4942 15.241 25.4908 15.4515 25.4874ZM15.4312 3.01366C17.7707 3.06829 26.864 3.99701 26.864 15.0324C26.864 26.0918 17.7537 26.9488 15.4787 26.9932C15.2614 26.9966 15.0101 27 14.7588 27C14.6332 27 14.5076 26.9966 14.3853 26.9966C11.9914 26.959 3 26.0883 3 14.9607C3 3.84678 11.9066 3.02049 14.3004 3H14.5177C14.8301 3 15.1527 3.00341 15.4312 3.01366ZM14.9286 19.2595C14.5177 19.2595 14.1816 18.9249 14.1816 18.5083V8.14895C14.1816 7.73581 14.5143 7.39778 14.9286 7.39778C15.3429 7.39778 15.6756 7.73239 15.6756 8.14895V18.5083C15.6722 18.9215 15.3395 19.2595 14.9286 19.2595ZM14.9286 20.2804C15.3972 20.2804 15.7775 20.6628 15.7809 21.134C15.7809 21.6052 15.4006 21.9876 14.932 21.991H14.9286C14.46 21.991 14.0797 21.6086 14.0797 21.134C14.0797 20.6628 14.46 20.2804 14.9286 20.2804Z" fill="#86888C"/>
</svg>
