<svg width="28" height="28" viewBox="0 0 28 28" fill="none" xmlns="http://www.w3.org/2000/svg">
<path fill-rule="evenodd" clip-rule="evenodd" d="M22.6492 6.13067C22.7825 6.25364 25.9422 9.20158 25.9968 14.2298C26.0037 14.3972 26.1745 19.3503 22.6936 22.5168C22.4477 22.7389 22.1403 22.8516 21.8362 22.8516C21.481 22.8516 21.1292 22.7013 20.8764 22.4144C20.405 21.8746 20.4494 21.048 20.9789 20.5663C23.5647 18.2162 23.4315 14.3391 23.4281 14.3015C23.3837 10.4142 21.0267 8.16314 20.9242 8.0675C20.405 7.58244 20.364 6.75578 20.8422 6.2229C21.317 5.69685 22.1232 5.65244 22.6492 6.13067ZM21.6381 14.2742C21.6415 14.3733 21.7577 17.7277 19.3904 19.8763C19.1445 20.0984 18.8371 20.2111 18.5331 20.2111C18.1778 20.2111 17.826 20.0642 17.5732 19.7739C17.1018 19.2376 17.1428 18.4109 17.6757 17.9258C19.1206 16.6107 19.0694 14.3665 19.0659 14.3425C19.042 12.0846 17.6586 10.7558 17.6415 10.7422C17.1154 10.2605 17.071 9.43386 17.5459 8.89415C18.0172 8.35785 18.8337 8.31344 19.3597 8.79509C19.4554 8.8839 21.6005 10.8856 21.6381 14.2742ZM13.8327 20.4912V7.62684C11.5851 7.72932 10.0342 8.4979 9.04704 9.96675C8.85917 10.4416 8.4151 10.7763 7.87538 10.7763C7.86855 10.7763 7.86172 10.7695 7.8583 10.7695C7.84806 10.7695 7.84122 10.7763 7.83098 10.7763H4.56877L4.57902 17.3554L7.82073 17.352C8.30237 17.352 8.70887 17.6355 8.9309 18.0352C8.9514 18.0761 9.00264 18.0966 9.01972 18.1376C9.98301 19.6065 11.6022 20.3956 13.8327 20.4912ZM14.2666 5C15.4861 5 16.4049 5.93596 16.4049 7.08371V21.0446C16.4049 22.1889 15.4929 23.118 14.369 23.118C10.4578 23.118 8.31604 21.5262 7.14779 19.9686L3.29463 19.972C2.58754 19.972 2.01025 19.3879 2.01025 18.6671L2 9.47144C2 9.12643 2.13322 8.79509 2.37575 8.54914C2.61828 8.3032 2.94279 8.16314 3.28439 8.16314L7.16487 8.15973C8.33653 6.60207 10.4646 5 14.2666 5Z" fill="#86888C"/>
</svg>
