<svg width="40" height="40" viewBox="0 0 40 40" fill="none" xmlns="http://www.w3.org/2000/svg">
<path fill-rule="evenodd" clip-rule="evenodd" d="M32.9739 7.696C33.1737 7.88046 37.9133 12.3024 37.9953 19.8447C38.0055 20.0958 38.2617 27.5254 33.0405 32.2753C32.6715 32.6083 32.2104 32.7774 31.7544 32.7774C31.2215 32.7774 30.6937 32.5519 30.3146 32.1215C29.6075 31.312 29.6741 30.072 30.4683 29.3495C34.3471 25.8243 34.1472 20.0087 34.1421 19.9523C34.0755 14.1213 30.54 10.7447 30.3863 10.6012C29.6075 9.87365 29.546 8.63367 30.2633 7.83435C30.9755 7.04527 32.1848 6.97866 32.9739 7.696ZM31.4572 19.9113C31.4623 20.0599 31.6365 25.0916 28.0857 28.3145C27.7168 28.6476 27.2556 28.8166 26.7996 28.8166C26.2667 28.8166 25.7389 28.5963 25.3598 28.1608C24.6527 27.3563 24.7142 26.1164 25.5135 25.3888C27.6809 23.4161 27.604 20.0497 27.5989 20.0138C27.563 16.6269 25.4879 14.6337 25.4622 14.6132C24.6732 13.8908 24.6066 12.6508 25.3188 11.8412C26.0259 11.0368 27.2505 10.9702 28.0396 11.6926C28.183 11.8259 31.4008 14.8284 31.4572 19.9113ZM19.7491 29.2368V9.94026C16.3776 10.094 14.0514 11.2469 12.5706 13.4501C12.2888 14.1623 11.6226 14.6645 10.8131 14.6645C10.8028 14.6645 10.7926 14.6542 10.7875 14.6542C10.7721 14.6542 10.7618 14.6645 10.7465 14.6645H5.85316L5.86853 24.5331L10.7311 24.5279C11.4536 24.5279 12.0633 24.9532 12.3964 25.5527C12.4271 25.6142 12.504 25.645 12.5296 25.7064C13.9745 27.9097 16.4032 29.0933 19.7491 29.2368ZM20.3999 6C22.2291 6 23.6074 7.40394 23.6074 9.12557V30.0669C23.6074 31.7834 22.2393 33.1771 20.5536 33.1771C14.6867 33.1771 11.4741 30.7893 9.72169 28.4528L3.94195 28.458C2.88131 28.458 2.01537 27.5818 2.01537 26.5006L2 12.7072C2 12.1896 2.19983 11.6926 2.56363 11.3237C2.92742 10.9548 3.41419 10.7447 3.92658 10.7447L9.74731 10.7396C11.5048 8.4031 14.697 6 20.3999 6Z" fill="#86888C"/>
</svg>
