<svg width="20" height="20" viewBox="0 0 20 20" fill="none" xmlns="http://www.w3.org/2000/svg">
<path fill-rule="evenodd" clip-rule="evenodd" d="M15.7662 4.75378C15.855 4.83576 17.9615 6.80105 17.9979 10.1532C18.0024 10.2648 18.1163 13.5669 15.7958 15.6779C15.6318 15.8259 15.4268 15.9011 15.2242 15.9011C14.9873 15.9011 14.7528 15.8009 14.5842 15.6096C14.27 15.2498 14.2996 14.6987 14.6526 14.3776C16.3765 12.8108 16.2877 10.2261 16.2854 10.201C16.2558 7.60949 14.6845 6.10876 14.6161 6.045C14.27 5.72162 14.2427 5.17052 14.5615 4.81527C14.878 4.46457 15.4155 4.43496 15.7662 4.75378ZM15.0921 10.1828C15.0944 10.2489 15.1718 12.4851 13.5936 13.9176C13.4297 14.0656 13.2247 14.1407 13.022 14.1407C12.7852 14.1407 12.5506 14.0428 12.3821 13.8492C12.0679 13.4917 12.0952 12.9406 12.4504 12.6172C13.4137 11.7405 13.3796 10.2443 13.3773 10.2284C13.3614 8.72308 12.4391 7.83722 12.4277 7.82811C12.077 7.50701 12.0474 6.95591 12.3639 6.5961C12.6782 6.23857 13.2224 6.20896 13.5731 6.53006C13.6369 6.58927 15.067 7.92375 15.0921 10.1828ZM9.8885 14.3275V5.75123C8.39005 5.81955 7.35616 6.33194 6.69803 7.31117C6.57278 7.62771 6.27673 7.85088 5.91692 7.85088C5.91237 7.85088 5.90781 7.84633 5.90554 7.84633C5.8987 7.84633 5.89415 7.85088 5.88732 7.85088H3.71251L3.71935 12.2369L5.88049 12.2346C6.20158 12.2346 6.47258 12.4237 6.6206 12.6901C6.63427 12.7174 6.66842 12.7311 6.67981 12.7584C7.322 13.7376 8.40143 14.2637 9.8885 14.3275ZM10.1777 4C10.9907 4 11.6033 4.62397 11.6033 5.38914V14.6964C11.6033 15.4593 10.9953 16.0787 10.246 16.0787C7.63855 16.0787 6.21069 15.0175 5.43186 13.979L2.86309 13.9813C2.39169 13.9813 2.00683 13.5919 2.00683 13.1114L2 6.98096C2 6.75095 2.08881 6.53006 2.2505 6.36609C2.41219 6.20213 2.62853 6.10876 2.85626 6.10876L5.44325 6.10648C6.22435 5.06804 7.6431 4 10.1777 4Z" fill="#86888C"/>
</svg>
