<svg width="20" height="20" viewBox="0 0 20 20" fill="none" xmlns="http://www.w3.org/2000/svg">
<path fill-rule="evenodd" clip-rule="evenodd" d="M11.2749 9.358C11.4912 9.35344 12.3631 9.27149 12.3631 8.20376C12.3631 7.14058 11.4935 7.04952 11.2703 7.04496C11.243 7.04496 11.2112 7.04269 11.1816 7.04269H11.1633C10.9334 7.04496 10.0842 7.12464 10.0842 8.19693C10.0842 9.26921 10.9425 9.35572 11.1725 9.358H11.2749ZM11.2908 6.24587C12.2242 6.26864 13.1645 6.88332 13.1645 8.20603C13.1645 9.53102 12.2242 10.1411 11.2863 10.1594L11.2043 10.1616H11.1611C10.2277 10.148 9.28515 9.53785 9.28515 8.20148C9.28515 6.86511 10.2254 6.25726 11.1565 6.24815H11.1838L11.2908 6.24587ZM7.7712 10.1981C7.89186 10.1958 8.37678 10.1503 8.37678 9.55606C8.37678 8.96414 7.89414 8.91406 7.76892 8.91178H7.70973C7.58224 8.91406 7.11098 8.95731 7.11098 9.55378C7.11098 10.1525 7.58907 10.1981 7.71656 10.2003H7.7712V10.1981ZM7.78941 8.10814C8.45646 8.12635 9.17587 8.58623 9.17587 9.55378C9.17587 10.5282 8.45418 10.9835 7.78486 10.9972H7.70063C7.02903 10.988 6.30734 10.5305 6.30734 9.55151C6.30734 8.61127 7.00854 8.11497 7.69607 8.11042H7.72567L7.78941 8.10814ZM11.5048 13.0962C11.6528 13.0438 12.2265 12.7843 11.9784 12.0558C11.8145 11.5777 11.4935 11.4752 11.2476 11.4752C11.1224 11.4752 11.0176 11.5026 10.963 11.5185C10.9402 11.5253 10.9129 11.5344 10.8879 11.5413C10.7331 11.5959 10.1707 11.8463 10.4189 12.5794C10.5828 13.0598 10.9015 13.1645 11.1451 13.1645C11.2703 13.1645 11.3773 13.1372 11.432 13.119C11.457 13.1121 11.4821 13.103 11.5048 13.0962ZM11.2476 10.6739C11.9397 10.6739 12.4974 11.095 12.7365 11.7985C13.0916 12.8412 12.4861 13.5925 11.7712 13.8497L11.6801 13.8816C11.5618 13.9203 11.3728 13.9659 11.1474 13.9659C10.4599 13.9659 9.90438 13.5424 9.66306 12.8367C9.30563 11.7871 9.91121 11.0381 10.6352 10.7832L10.7262 10.7536C10.8423 10.7171 11.0268 10.6739 11.2476 10.6739ZM10.2664 14.6693C11.5936 14.642 14.6898 14.1412 14.6898 10.0182C14.6898 5.88845 11.5731 5.3671 10.2322 5.33523C10.1116 5.33523 9.97268 5.3284 9.83153 5.3284H9.73136C8.41548 5.34206 5.35344 5.82242 5.35344 9.98406C5.35344 11.3728 5.78828 14.6147 9.77689 14.6693H10.2664ZM17.4991 9.49915C17.7723 9.49915 18 9.72681 18 10C18 10.2732 17.7723 10.5009 17.4991 10.5009H15.6779C15.5982 11.9875 15.1451 13.0575 14.5168 13.811L15.6574 14.9516C15.8509 15.1451 15.8509 15.4661 15.6574 15.6574C15.5572 15.7507 15.4297 15.8054 15.3045 15.8054C15.177 15.8054 15.045 15.753 14.9516 15.6574L13.8042 14.51C12.6295 15.4229 11.2157 15.6255 10.5009 15.6574V17.4991C10.5009 17.7723 10.2732 18 10 18C9.72681 18 9.49915 17.7723 9.49915 17.4991V15.6642C8.74559 15.6164 7.35686 15.4115 6.20945 14.4963L5.04838 15.6574C4.95504 15.7507 4.82072 15.8054 4.69323 15.8054C4.56801 15.8054 4.44052 15.753 4.34035 15.6574C4.14684 15.4639 4.14684 15.1451 4.34035 14.9516L5.50142 13.7906C4.89357 13.0347 4.45418 11.9738 4.36767 10.5009H2.50085C2.22766 10.5009 2 10.2732 2 10C2 9.72681 2.22766 9.49915 2.50085 9.49915H4.36995C4.44963 8.01707 4.88446 6.95162 5.49004 6.19579L4.34263 5.04838C4.14912 4.85487 4.14912 4.54069 4.34263 4.34263C4.53614 4.14684 4.85714 4.14684 5.05065 4.34263L6.19124 5.48321C7.35231 4.57029 8.75925 4.36995 9.50142 4.3358V2.50085C9.50142 2.22766 9.72681 2 10.0023 2C10.2755 2 10.5031 2.22766 10.5031 2.50085V4.34946C11.2294 4.39044 12.6249 4.60216 13.786 5.51053L14.9539 4.34263C15.1474 4.14684 15.4684 4.14684 15.6619 4.34263C15.8554 4.54297 15.8554 4.85487 15.6619 5.04838L14.5077 6.20262C15.1338 6.95618 15.5936 8.01707 15.6756 9.49915H17.4991Z" fill="#86888C"/>
</svg>
