<svg width="24" height="24" viewBox="0 0 24 24" fill="none" xmlns="http://www.w3.org/2000/svg">
<path fill-rule="evenodd" clip-rule="evenodd" d="M13.5936 11.1975C13.864 11.1918 14.9539 11.0894 14.9539 9.7547C14.9539 8.42573 13.8668 8.3119 13.5879 8.3062C13.5538 8.3062 13.5139 8.30336 13.4769 8.30336H13.4542C13.1668 8.3062 12.1053 8.40581 12.1053 9.74616C12.1053 11.0865 13.1781 11.1947 13.4656 11.1975H13.5936ZM13.6135 7.30734C14.7803 7.3358 15.9556 8.10416 15.9556 9.75754C15.9556 11.4138 14.7803 12.1764 13.6079 12.1992L13.5054 12.202H13.4513C12.2846 12.185 11.1064 11.4223 11.1064 9.75185C11.1064 8.08139 12.2817 7.32157 13.4456 7.31019H13.4798L13.6135 7.30734ZM9.214 12.2476C9.36483 12.2447 9.97097 12.1878 9.97097 11.4451C9.97097 10.7052 9.36767 10.6426 9.21116 10.6397H9.13717C8.9778 10.6426 8.38873 10.6966 8.38873 11.4422C8.38873 12.1907 8.98634 12.2476 9.1457 12.2504H9.214V12.2476ZM9.23677 9.63517C10.0706 9.65794 10.9698 10.2328 10.9698 11.4422C10.9698 12.6602 10.0677 13.2294 9.23108 13.2464H9.12578C8.28628 13.2351 7.38418 12.6631 7.38418 11.4394C7.38418 10.2641 8.26067 9.64371 9.12009 9.63802H9.15709L9.23677 9.63517ZM13.881 15.8702C14.066 15.8048 14.7832 15.4804 14.473 14.5697C14.2681 13.9721 13.8668 13.8441 13.5595 13.8441C13.403 13.8441 13.2721 13.8782 13.2038 13.8981C13.1753 13.9067 13.1411 13.918 13.1098 13.9266C12.9163 13.9949 12.2134 14.3079 12.5236 15.2242C12.7285 15.8247 13.1269 15.9556 13.4314 15.9556C13.5879 15.9556 13.7217 15.9215 13.79 15.8987C13.8213 15.8902 13.8526 15.8788 13.881 15.8702ZM13.5595 12.8423C14.4246 12.8423 15.1218 13.3688 15.4206 14.2481C15.8645 15.5515 15.1076 16.4906 14.214 16.8122L14.1002 16.852C13.9522 16.9004 13.716 16.9573 13.4343 16.9573C12.5748 16.9573 11.8805 16.428 11.5788 15.5458C11.132 14.2339 11.889 13.2977 12.794 12.9789L12.9078 12.9419C13.0529 12.8964 13.2834 12.8423 13.5595 12.8423ZM12.333 17.8367C13.992 17.8025 17.8623 17.1764 17.8623 12.0228C17.8623 6.86056 13.9664 6.20888 12.2903 6.16904C12.1394 6.16904 11.9659 6.1605 11.7894 6.1605H11.6642C10.0194 6.17758 6.1918 6.77803 6.1918 11.9801C6.1918 13.716 6.73534 17.7684 11.7211 17.8367H12.333ZM21.3739 11.3739C21.7154 11.3739 22 11.6585 22 12C22 12.3415 21.7154 12.6261 21.3739 12.6261H19.0973C18.9977 14.4843 18.4314 15.8219 17.646 16.7638L19.0717 18.1895C19.3136 18.4314 19.3136 18.8327 19.0717 19.0717C18.9465 19.1884 18.7871 19.2567 18.6306 19.2567C18.4713 19.2567 18.3062 19.1912 18.1895 19.0717L16.7553 17.6375C15.2869 18.7786 13.5196 19.0319 12.6261 19.0717V21.3739C12.6261 21.7154 12.3415 22 12 22C11.6585 22 11.3739 21.7154 11.3739 21.3739V19.0803C10.432 19.0205 8.69607 18.7644 7.26181 17.6204L5.81047 19.0717C5.6938 19.1884 5.5259 19.2567 5.36653 19.2567C5.21002 19.2567 5.05065 19.1912 4.92544 19.0717C4.68355 18.8298 4.68355 18.4314 4.92544 18.1895L6.37678 16.7382C5.61696 15.7934 5.06773 14.4673 4.95959 12.6261H2.62607C2.28458 12.6261 2 12.3415 2 12C2 11.6585 2.28458 11.3739 2.62607 11.3739H4.96244C5.06204 9.52134 5.60558 8.18953 6.36255 7.24474L4.92829 5.81047C4.6864 5.56858 4.6864 5.17587 4.92829 4.92829C5.17018 4.68355 5.57143 4.68355 5.81332 4.92829L7.23904 6.35401C8.69038 5.21286 10.4491 4.96244 11.3768 4.91975V2.62607C11.3768 2.28458 11.6585 2 12.0028 2C12.3443 2 12.6289 2.28458 12.6289 2.62607V4.93682C13.5367 4.98805 15.2812 5.2527 16.7325 6.38816L18.1924 4.92829C18.4343 4.68355 18.8355 4.68355 19.0774 4.92829C19.3193 5.17871 19.3193 5.56858 19.0774 5.81047L17.6346 7.25327C18.4172 8.19522 18.992 9.52134 19.0945 11.3739H21.3739Z" fill="#86888C"/>
</svg>
