<svg width="40" height="40" viewBox="0 0 40 40" fill="none" xmlns="http://www.w3.org/2000/svg">
<path fill-rule="evenodd" clip-rule="evenodd" d="M22.8685 18.5555C23.3552 18.5452 25.317 18.3608 25.317 15.9585C25.317 13.5663 23.3603 13.3614 22.8583 13.3512C22.7968 13.3512 22.7251 13.346 22.6585 13.346H22.6175C22.1002 13.3512 20.1895 13.5304 20.1895 15.9431C20.1895 18.3557 22.1207 18.5504 22.638 18.5555H22.8685ZM22.9044 11.5532C25.0046 11.6044 27.1201 12.9875 27.1201 15.9636C27.1201 18.9448 25.0046 20.3176 22.8941 20.3586L22.7097 20.3637H22.6124C20.5122 20.333 18.3916 18.9602 18.3916 15.9533C18.3916 12.9465 20.5071 11.5788 22.6022 11.5583H22.6636L22.9044 11.5532ZM14.9852 20.4456C15.2567 20.4405 16.3478 20.3381 16.3478 19.0011C16.3478 17.6693 15.2618 17.5566 14.9801 17.5515H14.8469C14.56 17.5566 13.4997 17.654 13.4997 18.996C13.4997 20.3432 14.5754 20.4456 14.8623 20.4508H14.9852V20.4456ZM15.0262 15.7433C16.527 15.7843 18.1457 16.819 18.1457 18.996C18.1457 21.1884 16.5219 22.2129 15.0159 22.2436H14.8264C13.3153 22.2231 11.6915 21.1935 11.6915 18.9909C11.6915 16.8754 13.2692 15.7587 14.8162 15.7484H14.8828L15.0262 15.7433ZM23.3859 26.9664C23.7188 26.8486 25.0097 26.2647 24.4513 24.6255C24.0825 23.5498 23.3603 23.3193 22.8071 23.3193C22.5253 23.3193 22.2897 23.3808 22.1668 23.4166C22.1155 23.432 22.0541 23.4525 21.9977 23.4678C21.6494 23.5908 20.3842 24.1542 20.9425 25.8036C21.3113 26.8845 22.0285 27.1201 22.5766 27.1201C22.8583 27.1201 23.099 27.0586 23.222 27.0176C23.2783 27.0023 23.3347 26.9818 23.3859 26.9664ZM22.8071 21.5162C24.3643 21.5162 25.6192 22.4639 26.1571 24.0467C26.9562 26.3927 25.5936 28.0831 23.9852 28.6619L23.7803 28.7336C23.5139 28.8207 23.0888 28.9232 22.5817 28.9232C21.0347 28.9232 19.7849 27.9704 19.2419 26.3825C18.4377 24.0211 19.8002 22.3358 21.4291 21.7621L21.634 21.6955C21.8953 21.6135 22.3102 21.5162 22.8071 21.5162ZM20.5993 30.506C23.5857 30.4445 30.5521 29.3176 30.5521 20.041C30.5521 10.749 23.5396 9.57598 20.5225 9.50427C20.251 9.50427 19.9385 9.4889 19.6209 9.4889H19.3956C16.4348 9.51964 9.54525 10.6005 9.54525 19.9641C9.54525 23.0888 10.5236 30.383 19.498 30.506H20.5993ZM36.8731 18.8731C37.4878 18.8731 38 19.3853 38 20C38 20.6147 37.4878 21.1269 36.8731 21.1269H32.7752C32.5959 24.4718 31.5765 26.8793 30.1628 28.5748L32.7291 31.1412C33.1645 31.5766 33.1645 32.2988 32.7291 32.7291C32.5037 32.9391 32.2168 33.062 31.9351 33.062C31.6483 33.062 31.3512 32.9442 31.1412 32.7291L28.5595 30.1474C25.9163 32.2015 22.7353 32.6574 21.1269 32.7291V36.8731C21.1269 37.4878 20.6147 38 20 38C19.3853 38 18.8731 37.4878 18.8731 36.8731V32.7445C17.1776 32.6369 14.0529 32.1759 11.4713 30.1167L8.85885 32.7291C8.64883 32.9391 8.34661 33.062 8.05976 33.062C7.77803 33.062 7.49118 32.9442 7.26579 32.7291C6.83039 32.2937 6.83039 31.5766 7.26579 31.1412L9.8782 28.5287C8.51053 26.8281 7.52191 24.4411 7.32726 21.1269H3.12692C2.51224 21.1269 2 20.6147 2 20C2 19.3853 2.51224 18.8731 3.12692 18.8731H7.33238C7.51167 15.5384 8.49004 13.1411 9.85259 11.4405L7.27092 8.85885C6.83552 8.42345 6.83552 7.71656 7.27092 7.27092C7.70632 6.83039 8.42857 6.83039 8.86397 7.27092L11.4303 9.83722C14.0427 7.78315 17.2083 7.33238 18.8782 7.25555V3.12692C18.8782 2.51224 19.3853 2 20.0051 2C20.6198 2 21.132 2.51224 21.132 3.12692V7.28628C22.7661 7.37849 25.9061 7.85487 28.5185 9.89869L31.1463 7.27092C31.5817 6.83039 32.3039 6.83039 32.7393 7.27092C33.1747 7.72168 33.1747 8.42345 32.7393 8.85885L30.1423 11.4559C31.5509 13.1514 32.5857 15.5384 32.7701 18.8731H36.8731Z" fill="#86888C"/>
</svg>
