<svg width="24" height="24" viewBox="0 0 24 24" fill="none" xmlns="http://www.w3.org/2000/svg">
<path fill-rule="evenodd" clip-rule="evenodd" d="M20.3547 15.3827C20.1383 15.599 19.8167 15.7271 19.3954 15.7555C19.2844 15.7612 18.493 15.7641 18.4162 15.7641C18.3592 15.7641 17.5764 15.7612 17.4882 15.7584C17.0441 15.7384 16.7025 15.6104 16.472 15.3827C16.3268 15.2375 16.2215 15.0411 16.156 14.7992H20.6678C20.6052 15.0411 20.4999 15.2375 20.3547 15.3827ZM18.0461 7.72933L20.4173 13.4871H16.3097L18.0461 7.72933ZM15.2736 19.8967C15.7404 19.8967 16.0877 20.0105 16.3126 20.2354C16.4264 20.3521 16.5118 20.5029 16.5716 20.6908H7.42556C7.48249 20.5029 7.57074 20.3521 7.68175 20.2354C7.90379 20.0105 8.25391 19.8967 8.72075 19.8967H15.2736ZM11.4449 6.45709H11.6186C11.6271 6.45709 11.6356 6.46279 11.6442 6.46279C11.6527 6.46279 11.8634 6.45994 12.0427 6.45994V6.46279H12.3558C12.3644 6.46279 12.3729 6.45709 12.3814 6.45709H12.5522V18.5846H11.4449V6.45709ZM7.6846 13.4871H3.577L5.94819 7.72933L7.6846 13.4871ZM7.52235 15.3827C7.29462 15.6104 6.95019 15.7356 6.50897 15.7584C6.42072 15.7612 5.63792 15.7641 5.58099 15.7641C5.50413 15.7641 4.71278 15.7612 4.60176 15.7555C4.18047 15.7271 3.85881 15.6018 3.63962 15.3827C3.49445 15.2375 3.38913 15.0411 3.3265 14.7992H7.83832C7.77284 15.0411 7.66752 15.2375 7.52235 15.3827ZM22 14.1417C22 14.1133 21.9858 14.0877 21.9829 14.0564C21.9772 13.9966 21.9715 13.9397 21.9488 13.8856L18.9485 6.60225C19.0851 6.66202 19.2104 6.73033 19.3071 6.82425C19.4295 6.94663 19.5833 7.0064 19.7398 7.0064C19.9049 7.0064 20.07 6.9381 20.1953 6.80433C20.4344 6.54533 20.4258 6.12979 20.1753 5.87648C19.7313 5.43247 19.1278 5.1877 18.3792 5.1507C18.3194 5.14786 14.9917 5.14501 13.0618 5.14501C13.1386 5.09378 13.2098 5.04255 13.2724 4.97993C13.5599 4.68963 13.7079 4.25985 13.7079 3.70485C13.7079 3.14416 13.5628 2.71439 13.2724 2.42408C12.9963 2.14231 12.5949 2 12.0826 2C12.0797 2 12.074 2 12.0712 2.00285V2H11.9231C11.4108 2 11.0094 2.14231 10.7333 2.42408C10.4458 2.71439 10.2978 3.14416 10.2978 3.70485C10.2978 4.25985 10.4429 4.68963 10.7333 4.97993C10.7931 5.04255 10.8671 5.09663 10.9439 5.14501C9.0111 5.14501 5.68346 5.14501 5.62653 5.1507C4.87788 5.1877 4.27441 5.43247 3.83034 5.87648C3.577 6.12694 3.57131 6.54248 3.81042 6.80433C3.93282 6.94094 4.09792 7.0064 4.26302 7.0064C4.41958 7.0064 4.57615 6.94663 4.6957 6.82425C4.78964 6.73033 4.91773 6.65917 5.05152 6.60225L2.05124 13.8856C2.02847 13.9397 2.02562 13.9994 2.01708 14.0564C2.01423 14.0848 2 14.1133 2 14.1417V14.1446C2 15.0781 2.26188 15.8124 2.77142 16.3276C3.20695 16.7659 3.79334 17.0135 4.51637 17.0647C4.59892 17.0704 5.49843 17.0761 5.58383 17.0761C5.64361 17.0761 6.50043 17.0733 6.56305 17.0704C7.32593 17.0334 7.94364 16.7858 8.39624 16.3304C8.90009 15.8267 9.15343 15.1123 9.16766 14.2157C9.16766 14.21 9.16766 14.2044 9.17051 14.1987C9.17051 14.1787 9.17336 14.1645 9.17336 14.1446C9.17336 14.1076 9.15912 14.0763 9.15343 14.0421C9.14774 14.0108 9.15343 13.9795 9.14489 13.9454L6.88471 6.45994C7.8127 6.45994 9.10219 6.45994 10.1924 6.45709V18.5846H8.72644C7.92087 18.5846 7.28039 18.8237 6.81355 19.2933C6.32963 19.78 6.08483 20.4716 6.08483 21.3454C6.08483 21.7068 6.36664 22 6.71392 22C6.73385 22 6.75093 21.9915 6.77085 21.9886C6.78793 21.9915 6.80501 22 6.82494 22H17.1808C17.2007 22 17.2178 21.9915 17.2377 21.9886C17.2548 21.9915 17.2718 22 17.2918 22C17.6391 22 17.9209 21.7068 17.9209 21.3454C17.9209 20.4688 17.6761 19.78 17.1921 19.2933C16.7253 18.8237 16.0848 18.5846 15.2821 18.5846H13.8133V6.45709C14.9035 6.45709 16.1958 6.45709 17.1238 6.45994L14.8665 13.9454C14.8551 13.9795 14.8608 14.0108 14.8551 14.0421C14.8494 14.0763 14.8352 14.1076 14.8352 14.1446C14.8352 14.1617 14.838 14.1787 14.838 14.1987C14.838 14.2044 14.838 14.21 14.8409 14.2157C14.8551 15.1123 15.1113 15.8267 15.6123 16.3304C16.0677 16.7858 16.6855 17.0334 17.4483 17.0704C17.5081 17.0733 18.3649 17.0761 18.4247 17.0761C18.5101 17.0761 19.4068 17.0704 19.4893 17.0647C20.2095 17.0135 20.7987 16.7659 21.2343 16.3276C21.7381 15.8096 22 15.0753 22 14.1417Z" fill="#86888C"/>
</svg>
