<svg width="20" height="20" viewBox="0 0 20 20" fill="none" xmlns="http://www.w3.org/2000/svg">
<path d="M10.9916 15.2374C10.9324 15.1965 10.9028 15.1487 10.9028 15.0781C10.9051 14.9848 10.9825 14.912 11.0735 14.912C11.119 14.9142 11.16 14.9279 11.1987 14.9529C11.465 15.1305 11.8383 15.308 12.2707 15.308C12.9171 15.308 13.3131 14.9757 13.3131 14.4841C13.3131 14.0812 13.0878 13.7968 12.3481 13.7034L12.1592 13.6807C11.3717 13.5805 11.0053 13.2004 11.0053 12.6155C11.0053 11.9168 11.5037 11.4844 12.2661 11.4844C12.6917 11.4844 13.0536 11.5959 13.3017 11.7507C13.3791 11.7985 13.4132 11.8576 13.4132 11.9168C13.4132 12.0056 13.3427 12.0761 13.2539 12.0761C13.2129 12.0738 13.172 12.0602 13.1355 12.0397C12.8624 11.8918 12.5779 11.803 12.2525 11.803C11.6653 11.803 11.3421 12.1285 11.3421 12.5837C11.3421 12.9979 11.597 13.2642 12.2889 13.3529L12.4732 13.3757C13.2721 13.4758 13.6522 13.8559 13.6522 14.4591C13.6522 15.1396 13.1674 15.6243 12.232 15.6243C11.7859 15.6243 11.3557 15.4901 10.9916 15.2374Z" fill="#86888C"/>
<path d="M12.23 15.7987C11.7521 15.7942 11.2878 15.6485 10.894 15.3777C10.787 15.3026 10.7324 15.2024 10.7324 15.0773C10.7347 14.8906 10.8872 14.7404 11.0738 14.7404C11.1512 14.7427 11.2286 14.7677 11.2923 14.811C11.6178 15.0272 11.9455 15.1364 12.2687 15.1364C12.8058 15.1364 13.1404 14.8861 13.1404 14.4832C13.1404 14.2192 13.0425 13.962 12.3256 13.871L12.1367 13.8482C11.0579 13.7117 10.8326 13.0995 10.8326 12.6124C10.8326 11.8226 11.3947 11.3105 12.2641 11.3105C12.6852 11.3105 13.0858 11.413 13.3907 11.6019C13.5592 11.7043 13.5842 11.8408 13.5842 11.9137C13.5842 12.0958 13.4363 12.2437 13.2542 12.2437C13.1859 12.2414 13.1199 12.2232 13.0585 12.1891L13.0539 12.1868C12.7831 12.0389 12.5282 11.9706 12.2528 11.9706C11.7885 11.9706 11.5131 12.1982 11.5131 12.5805C11.5131 12.8263 11.6087 13.0903 12.3119 13.1814L12.4963 13.2041C13.5933 13.343 13.8232 13.962 13.8232 14.4559C13.8232 14.8519 13.6775 15.1865 13.4044 15.4232C13.1222 15.6713 12.7171 15.7987 12.23 15.7987ZM11.0897 15.0977C11.2422 15.2024 11.4061 15.2866 11.5814 15.3458C11.4129 15.2798 11.2536 15.1956 11.1057 15.0955C11.0966 15.0886 11.0852 15.0841 11.0761 15.0818V15.0841C11.0784 15.0886 11.0829 15.0932 11.0897 15.0977ZM12.4963 13.5524C13.0698 13.6502 13.3885 13.8938 13.4658 14.2875C13.368 13.7003 12.7626 13.5888 12.4963 13.5524ZM11.1808 12.7421C11.2331 13.1746 11.5518 13.4249 12.1572 13.5068C11.5654 13.409 11.2445 13.1586 11.1808 12.7421Z" fill="#86888C"/>
<path d="M12.2573 16.3609C12.0684 16.3609 11.9159 16.2084 11.9159 16.0195V11.0921C11.9159 10.9032 12.0684 10.7507 12.2573 10.7507C12.4462 10.7507 12.5987 10.9032 12.5987 11.0921V16.0195C12.5987 16.2084 12.4462 16.3609 12.2573 16.3609ZM6.76769 16.2016C6.51734 16.2016 6.3125 15.9968 6.3125 15.7464V6.46276C6.3125 6.21241 6.51734 6.00757 6.76769 6.00757C7.01805 6.00757 7.22288 6.21241 7.22288 6.46276V15.7464C7.22288 15.9968 7.01805 16.2016 6.76769 16.2016ZM9.00951 16.213C8.75916 16.213 8.55432 16.0081 8.55432 15.7578V10.0246C8.55432 9.77428 8.75916 9.56945 9.00951 9.56945C9.25987 9.56945 9.4647 9.77428 9.4647 10.0246V15.7578C9.4647 16.0104 9.26214 16.213 9.00951 16.213ZM15.1068 7.56433H12.8877C12.1116 7.56433 11.4425 7.30714 10.9577 6.82009C10.473 6.33303 10.2135 5.66618 10.2135 4.89007V2.67101C10.2135 2.42066 10.4183 2.21582 10.6687 2.21582C10.919 2.21582 11.1239 2.42066 11.1239 2.67101V4.89007C11.1239 5.42037 11.29 5.86418 11.6018 6.17599C11.9136 6.4878 12.3597 6.65394 12.8877 6.65394H15.1068C15.3572 6.65394 15.562 6.85878 15.562 7.10913C15.562 7.35949 15.3594 7.56433 15.1068 7.56433Z" fill="#86888C"/>
<path d="M14.8905 18H4.899C4.42105 18 4 17.5789 4 17.101V2.899C4 2.43698 4.43698 2 4.899 2H10.8962C11.0122 2 11.126 2.04552 11.2102 2.12518L15.6484 6.3357C15.7394 6.42219 15.7895 6.54054 15.7895 6.66572V17.101C15.7895 17.5789 15.3684 18 14.8905 18ZM4.92176 17.0896H14.8745L14.8791 17.0851V6.86145L10.7141 2.91038H4.92859C4.92176 2.91494 4.91494 2.92176 4.91038 2.92859V17.0805C4.91266 17.0828 4.91721 17.0873 4.92176 17.0896Z" fill="#86888C"/>
</svg>
