<svg width="28" height="28" viewBox="0 0 28 28" fill="none" xmlns="http://www.w3.org/2000/svg">
<path fill-rule="evenodd" clip-rule="evenodd" d="M24.0256 19.0592C23.766 19.3188 23.38 19.4725 22.8745 19.5066C22.7412 19.5134 21.7916 19.5169 21.6994 19.5169C21.6311 19.5169 20.6917 19.5134 20.5858 19.51C20.0529 19.4861 19.643 19.3324 19.3664 19.0592C19.1921 18.885 19.0658 18.6494 18.9872 18.359H24.4014C24.3262 18.6494 24.1998 18.885 24.0256 19.0592ZM21.2553 9.8752L24.1008 16.7845H19.1716L21.2553 9.8752ZM17.9283 24.476C18.4885 24.476 18.9052 24.6126 19.1751 24.8825C19.3117 25.0225 19.4142 25.2035 19.4859 25.4289H8.51068C8.57899 25.2035 8.68489 25.0225 8.8181 24.8825C9.08454 24.6126 9.5047 24.476 10.0649 24.476H17.9283ZM13.3339 8.34851H13.5423C13.5525 8.34851 13.5628 8.35534 13.573 8.35534C13.5833 8.35534 13.836 8.35193 14.0512 8.35193V8.35534H14.427C14.4372 8.35534 14.4475 8.34851 14.4577 8.34851H14.6627V22.9015H13.3339V8.34851ZM8.82152 16.7845H3.8924L6.73783 9.8752L8.82152 16.7845ZM8.62682 19.0592C8.35354 19.3324 7.94022 19.4827 7.41076 19.51C7.30487 19.5134 6.3655 19.5169 6.29718 19.5169C6.20495 19.5169 5.25534 19.5134 5.12212 19.5066C4.61657 19.4725 4.23057 19.3222 3.96755 19.0592C3.79334 18.885 3.66695 18.6494 3.5918 18.359H9.00598C8.92741 18.6494 8.80103 18.885 8.62682 19.0592ZM26 17.5701C26 17.5359 25.9829 17.5052 25.9795 17.4676C25.9727 17.3959 25.9658 17.3276 25.9385 17.2627L22.3382 8.5227C22.5021 8.59442 22.6524 8.67639 22.7686 8.7891C22.9155 8.93596 23.0999 9.00768 23.2878 9.00768C23.4859 9.00768 23.684 8.92571 23.8343 8.76519C24.1213 8.45439 24.111 7.95574 23.8104 7.65177C23.2775 7.11897 22.5534 6.82525 21.655 6.78084C21.5833 6.77743 17.5901 6.77401 15.2741 6.77401C15.3664 6.71254 15.4518 6.65106 15.5269 6.57592C15.8719 6.22755 16.0495 5.71183 16.0495 5.04582C16.0495 4.37299 15.8753 3.85726 15.5269 3.50889C15.1956 3.17077 14.7139 3 14.0991 3C14.0956 3 14.0888 3 14.0854 3.00342V3H13.9078C13.2929 3 12.8113 3.17077 12.4799 3.50889C12.1349 3.85726 11.9573 4.37299 11.9573 5.04582C11.9573 5.71183 12.1315 6.22755 12.4799 6.57592C12.5517 6.65106 12.6405 6.71595 12.7327 6.77401C10.4133 6.77401 6.42015 6.77401 6.35184 6.78084C5.45346 6.82525 4.72929 7.11897 4.19641 7.65177C3.8924 7.95233 3.88557 8.45097 4.1725 8.76519C4.31939 8.92913 4.51751 9.00768 4.71563 9.00768C4.9035 9.00768 5.09138 8.93596 5.23484 8.7891C5.34757 8.67639 5.50128 8.59101 5.66183 8.5227L2.06149 17.2627C2.03416 17.3276 2.03074 17.3993 2.0205 17.4676C2.01708 17.5018 2 17.5359 2 17.5701V17.5735C2 18.6938 2.31426 19.5749 2.9257 20.1931C3.44833 20.7191 4.15201 21.0162 5.01964 21.0777C5.1187 21.0845 6.19812 21.0914 6.3006 21.0914C6.37233 21.0914 7.40051 21.0879 7.47566 21.0845C8.39112 21.0401 9.13237 20.743 9.67549 20.1965C10.2801 19.592 10.5841 18.7347 10.6012 17.6589C10.6012 17.6521 10.6012 17.6452 10.6046 17.6384C10.6046 17.6145 10.608 17.5974 10.608 17.5735C10.608 17.5291 10.5909 17.4915 10.5841 17.4505C10.5773 17.413 10.5841 17.3754 10.5739 17.3344L7.86166 8.35193C8.97524 8.35193 10.5226 8.35193 11.8309 8.34851V22.9015H10.0717C9.10504 22.9015 8.33647 23.1884 7.77626 23.752C7.19556 24.336 6.90179 25.1659 6.90179 26.2145C6.90179 26.6482 7.23997 27 7.6567 27C7.68062 27 7.70111 26.9898 7.72502 26.9863C7.74552 26.9898 7.76601 27 7.78992 27H20.2169C20.2408 27 20.2613 26.9898 20.2852 26.9863C20.3057 26.9898 20.3262 27 20.3501 27C20.7669 27 21.105 26.6482 21.105 26.2145C21.105 25.1625 20.8113 24.336 20.2306 23.752C19.6704 23.1884 18.9018 22.9015 17.9385 22.9015H16.1759V8.34851C17.4842 8.34851 19.035 8.34851 20.1486 8.35193L17.4398 17.3344C17.4261 17.3754 17.433 17.413 17.4261 17.4505C17.4193 17.4915 17.4022 17.5291 17.4022 17.5735C17.4022 17.594 17.4056 17.6145 17.4056 17.6384C17.4056 17.6452 17.4056 17.6521 17.4091 17.6589C17.4261 18.7347 17.7336 19.592 18.3348 20.1965C18.8813 20.743 19.6225 21.0401 20.538 21.0845C20.6097 21.0879 21.6379 21.0914 21.7097 21.0914C21.8121 21.0914 22.8881 21.0845 22.9872 21.0777C23.8514 21.0162 24.5585 20.7191 25.0811 20.1931C25.6857 19.5715 26 18.6903 26 17.5701Z" fill="#86888C"/>
</svg>
