<svg width="40" height="40" viewBox="0 0 40 40" fill="none" xmlns="http://www.w3.org/2000/svg">
<path fill-rule="evenodd" clip-rule="evenodd" d="M35.0384 26.0888C34.649 26.4782 34.07 26.7087 33.3117 26.7599C33.1119 26.7702 31.6874 26.7753 31.5491 26.7753C31.4466 26.7753 30.0376 26.7702 29.8787 26.765C29.0794 26.7292 28.4646 26.4986 28.0495 26.0888C27.7882 25.8275 27.5986 25.474 27.4808 25.0386H35.6021C35.4893 25.474 35.2997 25.8275 35.0384 26.0888ZM30.883 12.3128L35.1512 22.6768H27.7575L30.883 12.3128ZM25.8924 34.214C26.7327 34.214 27.3578 34.419 27.7626 34.8237C27.9676 35.0337 28.1213 35.3053 28.2289 35.6434H11.766C11.8685 35.3053 12.0273 35.0337 12.2272 34.8237C12.6268 34.419 13.257 34.214 14.0974 34.214H25.8924ZM19.0009 10.0228H19.3134C19.3288 10.0228 19.3442 10.033 19.3595 10.033C19.3749 10.033 19.7541 10.0279 20.0769 10.0279V10.033H20.6405C20.6558 10.033 20.6712 10.0228 20.6866 10.0228H20.994V31.8523H19.0009V10.0228ZM12.2323 22.6768H4.8386L9.10675 12.3128L12.2323 22.6768ZM11.9402 26.0888C11.5303 26.4986 10.9103 26.7241 10.1161 26.765C9.9573 26.7702 8.54825 26.7753 8.44577 26.7753C8.30743 26.7753 6.88301 26.7702 6.68318 26.7599C5.92485 26.7087 5.34586 26.4833 4.95132 26.0888C4.69001 25.8275 4.50043 25.474 4.3877 25.0386H12.509C12.3911 25.474 12.2015 25.8275 11.9402 26.0888ZM38 23.8551C38 23.8039 37.9744 23.7578 37.9693 23.7014C37.959 23.5939 37.9488 23.4914 37.9078 23.3941L32.5073 10.284C32.7532 10.3916 32.9787 10.5146 33.1529 10.6836C33.3732 10.9039 33.6499 11.0115 33.9317 11.0115C34.2289 11.0115 34.5261 10.8886 34.7515 10.6478C35.1819 10.1816 35.1665 9.43361 34.7156 8.97766C33.9163 8.17845 32.8301 7.73787 31.4825 7.67127C31.3749 7.66614 25.3851 7.66102 21.9112 7.66102C22.0495 7.56881 22.1776 7.47659 22.2904 7.36388C22.8079 6.84133 23.0743 6.06774 23.0743 5.06874C23.0743 4.05948 22.813 3.2859 22.2904 2.76334C21.7933 2.25615 21.0709 2 20.1486 2C20.1435 2 20.1332 2 20.1281 2.00512V2H19.8617C18.9394 2 18.2169 2.25615 17.7199 2.76334C17.2024 3.2859 16.936 4.05948 16.936 5.06874C16.936 6.06774 17.1973 6.84133 17.7199 7.36388C17.8275 7.47659 17.9607 7.57393 18.0991 7.66102C14.62 7.66102 8.63023 7.66102 8.52775 7.67127C7.18019 7.73787 6.09394 8.17845 5.29462 8.97766C4.8386 9.42849 4.82835 10.1765 5.25875 10.6478C5.47908 10.8937 5.77626 11.0115 6.07344 11.0115C6.35525 11.0115 6.63706 10.9039 6.85226 10.6836C7.02135 10.5146 7.25192 10.3865 7.49274 10.284L2.09223 23.3941C2.05124 23.4914 2.04611 23.599 2.03074 23.7014C2.02562 23.7527 2 23.8039 2 23.8551V23.8603C2 25.5406 2.47139 26.8624 3.38856 27.7897C4.1725 28.5786 5.22801 29.0243 6.52946 29.1166C6.67805 29.1268 8.29718 29.137 8.4509 29.137C8.5585 29.137 10.1008 29.1319 10.2135 29.1268C11.5867 29.0602 12.6985 28.6145 13.5132 27.7948C14.4202 26.888 14.8762 25.6021 14.9018 23.9883C14.9018 23.9781 14.9018 23.9678 14.9069 23.9576C14.9069 23.9217 14.912 23.8961 14.912 23.8603C14.912 23.7937 14.8864 23.7373 14.8762 23.6758C14.8659 23.6195 14.8762 23.5631 14.8608 23.5016L10.7925 10.0279C12.4629 10.0279 14.7839 10.0279 16.7464 10.0228V31.8523H14.1076C12.6576 31.8523 11.5047 32.2826 10.6644 33.1279C9.79334 34.004 9.35269 35.2489 9.35269 36.8217C9.35269 37.4723 9.85995 38 10.4851 38C10.5209 38 10.5517 37.9846 10.5875 37.9795C10.6183 37.9846 10.649 38 10.6849 38H29.3254C29.3612 38 29.392 37.9846 29.4278 37.9795C29.4586 37.9846 29.4893 38 29.5252 38C30.1503 38 30.6576 37.4723 30.6576 36.8217C30.6576 35.2438 30.2169 34.004 29.3459 33.1279C28.5056 32.2826 27.3527 31.8523 25.9078 31.8523H23.2639V10.0228C25.2263 10.0228 27.5525 10.0228 29.2229 10.0279L25.1597 23.5016C25.1392 23.5631 25.1494 23.6195 25.1392 23.6758C25.129 23.7373 25.1033 23.7937 25.1033 23.8603C25.1033 23.891 25.1085 23.9217 25.1085 23.9576C25.1085 23.9678 25.1085 23.9781 25.1136 23.9883C25.1392 25.6021 25.6003 26.888 26.5021 27.7948C27.3219 28.6145 28.4338 29.0602 29.807 29.1268C29.9146 29.1319 31.4569 29.137 31.5645 29.137C31.7182 29.137 33.3322 29.1268 33.4808 29.1166C34.7771 29.0243 35.8377 28.5786 36.6217 27.7897C37.5286 26.8573 38 25.5355 38 23.8551Z" fill="#86888C"/>
</svg>
