<svg width="20" height="20" viewBox="0 0 20 20" fill="none" xmlns="http://www.w3.org/2000/svg">
<path fill-rule="evenodd" clip-rule="evenodd" d="M15.415 15.7234C17.0886 14.0499 17.1432 12.4287 15.5835 10.762C15.5448 10.7165 15.5175 10.6937 15.4924 10.6686L15.4218 10.6003L14.782 9.96051L9.65439 15.0881L9.90713 15.3409C9.99821 15.4433 10.0733 15.5162 10.1508 15.5891L10.2919 15.7257C11.1321 16.5659 11.9769 16.9985 12.8079 17.0121C13.6436 17.0213 14.5452 16.5955 15.415 15.7234ZM8.95082 14.3869L14.0762 9.25694L10.3284 5.50912L5.20301 10.639L8.95082 14.3869ZM4.34688 9.78064L4.49944 9.93319L9.62707 4.80328L9.03052 4.20672C8.19716 3.40069 7.37519 2.9954 6.55322 2.9954C5.70165 2.9954 4.85236 3.42801 3.98941 4.29097C2.2635 6.01688 2.2635 7.6927 3.98941 9.4186L4.12602 9.55977C4.19888 9.63947 4.26947 9.7146 4.34688 9.78064ZM16.3281 10.0994C18.2316 12.1304 18.1655 14.3823 16.1209 16.427C15.0689 17.4789 13.9692 18.0117 12.8535 18.0117H12.792C11.6945 17.9935 10.6175 17.4607 9.59064 16.4338L9.46541 16.3131C9.36522 16.2152 9.26504 16.1196 9.17852 16.0217L8.62295 15.4661C8.61384 15.4593 8.60246 15.4547 8.59562 15.4479L4.14424 10.9942C4.13741 10.9874 4.13513 10.9783 4.13057 10.9715L3.67064 10.5115C3.59322 10.4478 3.49987 10.3499 3.40651 10.252L3.28584 10.1267C2.25667 9.09756 1.72614 8.02057 1.70565 6.92309C1.68516 5.78236 2.21568 4.66211 3.28584 3.59195C5.36011 1.5154 7.64842 1.4858 9.73181 3.50088L10.6722 4.44125C10.6767 4.4458 10.6836 4.44808 10.6881 4.45035L15.1395 8.90402C15.1418 8.90857 15.1441 8.91313 15.1463 8.9154L16.1778 9.94685C16.2302 9.99694 16.2802 10.047 16.3281 10.0994ZM9.30602 9.5871C9.50412 9.389 9.82289 9.389 10.021 9.5871C10.2191 9.78519 10.2191 10.104 10.021 10.3021C9.82289 10.5001 9.50412 10.5001 9.30602 10.3021C9.11021 10.1062 9.11021 9.78519 9.30602 9.5871ZM8.85747 11.9005C9.05556 11.7024 9.37661 11.7024 9.57243 11.9005C9.77052 12.0985 9.77052 12.4173 9.57243 12.6154C9.37433 12.8135 9.05556 12.8135 8.85747 12.6154C8.66166 12.4196 8.66166 12.0985 8.85747 11.9005ZM12.3913 9.0839C12.5894 9.28199 12.5894 9.60076 12.3913 9.79885C12.1932 9.99694 11.8744 9.99694 11.6763 9.79885C11.4782 9.60076 11.4782 9.27971 11.6763 9.0839C11.8744 8.8858 12.1932 8.8858 12.3913 9.0839ZM7.04276 10.0675C7.24085 9.86944 7.55962 9.86944 7.75772 10.0675C7.95581 10.2656 7.95581 10.5844 7.75772 10.7825C7.55962 10.9806 7.24085 10.9806 7.04276 10.7825C6.84467 10.5844 6.84467 10.2656 7.04276 10.0675ZM9.86159 7.2487C10.0597 7.0506 10.3785 7.0506 10.5765 7.2487C10.7746 7.44679 10.7746 7.76556 10.5765 7.96365C10.3785 8.16174 10.0574 8.16174 9.86159 7.96365C9.6635 7.76783 9.6635 7.44679 9.86159 7.2487Z" fill="#86888C"/>
</svg>
