<svg width="20" height="20" viewBox="0 0 20 20" fill="none" xmlns="http://www.w3.org/2000/svg">
<path fill-rule="evenodd" clip-rule="evenodd" d="M14.5578 8.1428C14.5213 8.1428 14.4917 8.13824 14.4576 8.13824L15.1929 7.28451C15.3569 7.10694 15.4593 6.87017 15.4593 6.61064C15.4593 6.06425 15.0222 5.62259 14.4804 5.62259H14.469L12.1013 5.63397C12.1127 3.96977 12.8913 3.19117 14.5578 3.19117C16.2129 3.19117 17.0188 4.00165 17.0188 5.66812C17.0188 7.35509 16.2356 8.1428 14.5578 8.1428ZM9.87023 11.9447L6.5646 8.44558H12.889L9.87023 11.9447ZM8.88674 17.2105L9.89072 16.7461L10.9789 17.206L8.88674 17.2105ZM14.4758 6.61064L13.7314 7.46892C13.7109 7.46664 13.6927 7.45754 13.6722 7.45754H5.63119L4.8708 6.65389C4.8708 6.65617 14.4758 6.61064 14.4758 6.61064ZM14.5578 2.20312C12.3495 2.20312 11.1315 3.42339 11.1201 5.63625L6.90837 5.65674L5.38759 4.12686C5.16676 3.90603 4.86625 3.78081 4.55208 3.78081H2.49175C2.22083 3.78081 2 4.00165 2 4.27484C2 4.54803 2.22083 4.76886 2.49175 4.76886H4.55208C4.60444 4.76886 4.6568 4.78935 4.69323 4.82578L5.52419 5.66357L4.86853 5.66585C4.47695 5.66812 4.12408 5.90489 3.96927 6.26687C3.81673 6.62885 3.89186 7.04775 4.1605 7.3346L9.15993 12.6277C9.22595 12.6983 9.30791 12.7552 9.39215 12.803V15.8901L6.43256 17.2606C6.1844 17.3767 6.0774 17.6704 6.19351 17.9185C6.27319 18.0916 6.44622 18.2008 6.63517 18.2031L13.4058 18.1895C13.6403 18.1895 13.8406 18.0233 13.8862 17.7911C13.9317 17.5611 13.8088 17.3312 13.5948 17.2401L10.3711 15.8764V12.7894C10.4622 12.737 10.5418 12.671 10.6101 12.5936L13.6699 9.04889C13.9454 9.09897 14.239 9.12857 14.5555 9.12857C16.7752 9.12857 17.9977 7.8992 17.9977 5.66585C18 3.43477 16.7775 2.20312 14.5578 2.20312Z" fill="#86888C"/>
</svg>
