<svg width="28" height="28" viewBox="0 0 28 28" fill="none" xmlns="http://www.w3.org/2000/svg">
<path fill-rule="evenodd" clip-rule="evenodd" d="M20.8367 11.1126C20.782 11.1126 20.7376 11.1058 20.6864 11.1058L21.7894 9.82521C22.0353 9.55885 22.189 9.20369 22.189 8.81439C22.189 7.99482 21.5333 7.33232 20.7205 7.33232H20.7035L17.152 7.3494C17.169 4.8531 18.3369 3.6852 20.8367 3.6852C23.3193 3.6852 24.5282 4.90091 24.5282 7.40062C24.5282 9.93107 23.3534 11.1126 20.8367 11.1126ZM13.8054 16.8155L8.8469 11.5668H18.3335L13.8054 16.8155ZM12.3301 24.7142L13.8361 24.0176L15.4684 24.7074L12.3301 24.7142ZM20.7137 8.81439L19.597 10.1018C19.5663 10.0984 19.539 10.0847 19.5083 10.0847H7.44678L6.3062 8.87928C6.3062 8.88269 20.7137 8.81439 20.7137 8.81439ZM20.8367 2.20312C17.5242 2.20312 15.6972 4.03352 15.6801 7.35281L9.36255 7.38355L7.08139 5.08873C6.75014 4.75748 6.29937 4.56966 5.82812 4.56966H2.73762C2.33125 4.56966 2 4.90091 2 5.31069C2 5.72048 2.33125 6.05173 2.73762 6.05173H5.82812C5.90666 6.05173 5.9852 6.08246 6.03984 6.1371L7.28628 7.39379L6.30279 7.39721C5.71542 7.40062 5.18611 7.75577 4.9539 8.29874C4.7251 8.84171 4.83779 9.47006 5.24075 9.90034L12.7399 17.84C12.8389 17.9459 12.9619 18.0312 13.0882 18.103V22.7336L8.64883 24.7894C8.27661 24.9635 8.11611 25.404 8.29027 25.7763C8.40979 26.0358 8.66932 26.1997 8.95276 26.2031L19.1087 26.1826C19.4604 26.1826 19.761 25.9333 19.8293 25.585C19.8976 25.2401 19.7131 24.8952 19.3921 24.7586L14.5566 22.7131V18.0825C14.6932 18.0039 14.8127 17.9049 14.9152 17.7888L19.5048 12.4718C19.918 12.5469 20.3586 12.5913 20.8332 12.5913C24.1628 12.5913 25.9966 10.7472 25.9966 7.39721C26 4.05059 24.1662 2.20312 20.8367 2.20312Z" fill="#86888C"/>
</svg>
