<svg width="40" height="40" viewBox="0 0 40 40" fill="none" xmlns="http://www.w3.org/2000/svg">
<path fill-rule="evenodd" clip-rule="evenodd" d="M30.255 15.5674C30.173 15.5674 30.1064 15.5571 30.0296 15.5571L31.6841 13.6362C32.0529 13.2367 32.2834 12.704 32.2834 12.12C32.2834 10.8907 31.2999 9.89692 30.0808 9.89692H30.0552L24.7279 9.92253C24.7536 6.17808 26.5054 4.42623 30.255 4.42623C33.9789 4.42623 35.7923 6.2498 35.7923 9.99937C35.7923 13.795 34.0302 15.5674 30.255 15.5674ZM19.708 24.1217L12.2703 16.2487H26.5003L19.708 24.1217ZM17.4952 35.9698L19.7541 34.9248L22.2026 35.9595L17.4952 35.9698ZM30.0706 12.12L28.3956 14.0512C28.3495 14.046 28.3085 14.0255 28.2624 14.0255H10.1702L8.45931 12.2174C8.45931 12.2225 30.0706 12.12 30.0706 12.12ZM30.255 2.20312C25.2863 2.20312 22.5458 4.94871 22.5202 9.92766L13.0438 9.97376L9.62208 6.53153C9.12521 6.03466 8.44906 5.75293 7.74217 5.75293H3.10643C2.49687 5.75293 2 6.2498 2 6.86448C2 7.47916 2.49687 7.97603 3.10643 7.97603H7.74217C7.85999 7.97603 7.9778 8.02213 8.05976 8.10409L9.92943 9.98912L8.45418 9.99425C7.57314 9.99937 6.77917 10.5321 6.43085 11.3466C6.08765 12.161 6.25669 13.1035 6.86113 13.7489L18.1098 25.6584C18.2584 25.8172 18.4428 25.9453 18.6323 26.0529V32.9988L11.9732 36.0825C11.4149 36.3437 11.1742 37.0045 11.4354 37.5628C11.6147 37.9521 12.004 38.198 12.4291 38.2031L27.6631 38.1724C28.1907 38.1724 28.6414 37.7985 28.7439 37.276C28.8463 36.7586 28.5697 36.2413 28.0882 36.0364L20.8349 32.9681V26.0221C21.0398 25.9043 21.2191 25.7558 21.3728 25.5816L28.2573 17.6061C28.8771 17.7188 29.5378 17.7854 30.2499 17.7854C35.2442 17.7854 37.9949 15.0193 37.9949 9.99425C38 4.97433 35.2493 2.20312 30.255 2.20312Z" fill="#86888C"/>
</svg>
