<svg width="40" height="40" viewBox="0 0 40 40" fill="none" xmlns="http://www.w3.org/2000/svg">
<path fill-rule="evenodd" clip-rule="evenodd" d="M29.9014 32.1306V11.8489C29.9014 10.3534 29.548 9.28297 28.831 8.58131C28.1037 7.87452 27.0026 7.53137 25.4609 7.53137H15.0333C13.507 7.53137 12.411 7.88476 11.6735 8.60691C10.9462 9.32394 10.5928 10.379 10.5928 11.8489V32.1306C10.5928 33.6364 10.9462 34.7119 11.6735 35.4136C12.3956 36.1101 13.4917 36.4481 15.0333 36.4481H25.4661C27.0077 36.4481 28.1037 36.1101 28.8259 35.4136C29.548 34.7119 29.9014 33.6364 29.9014 32.1306ZM16.9641 4.76056V5.97951H23.5301V4.76056C23.5301 4.08963 23.3201 3.88476 23.2535 3.81818C23.1818 3.7516 22.977 3.54673 22.2855 3.54673H18.2138C17.5326 3.54673 17.3227 3.75672 17.251 3.82843C17.1793 3.89501 16.9641 4.10499 16.9641 4.76056ZM29.9577 7.48527C30.9923 8.49424 31.4942 9.91805 31.4942 11.8489V32.1306C31.4942 34.0717 30.9872 35.5058 29.9424 36.5147C28.9129 37.5134 27.443 38 25.4661 38H15.0333C13.0512 38 11.5864 37.5134 10.5519 36.5147C9.50704 35.5109 9 34.0768 9 32.1357V11.854C9 9.95903 9.50704 8.54033 10.5416 7.52113C11.5967 6.48656 13.0615 5.98464 15.0333 5.98464H15.3764V4.76056C15.3764 3.90525 15.6274 3.22407 16.1191 2.73752C16.6108 2.25096 17.3175 2 18.2138 2H22.2855C23.1818 2 23.8886 2.24584 24.3803 2.72727C24.8822 3.21383 25.1229 3.87964 25.1229 4.76056V5.97951H25.4661C27.4481 5.97951 28.9181 6.47119 29.9577 7.48527ZM20.8464 27.7875L24.2778 20.0794L20.114 20.6428C19.8835 20.6735 19.653 20.6069 19.4789 20.4584C19.3047 20.3099 19.2074 20.0947 19.2074 19.8694L19.2535 15.7567L16.1805 23.0141L19.9501 22.507C20.1754 22.4763 20.4059 22.5429 20.58 22.6914C20.7542 22.8399 20.8515 23.0499 20.8515 23.2753L20.8464 27.7875ZM25.4609 18.3585C25.7426 18.3227 26.0243 18.4353 26.2036 18.6607C26.3777 18.8809 26.4136 19.178 26.3009 19.4341L20.7746 31.8438C20.621 32.1869 20.2471 32.3713 19.8835 32.2945C19.5198 32.2228 19.2535 31.9052 19.2484 31.5365L19.2638 24.1613L15.0282 24.7298C14.7465 24.7708 14.4699 24.6581 14.2907 24.4379C14.1165 24.2228 14.0755 23.9257 14.1831 23.6697L19.3662 11.4392C19.5147 11.0909 19.8886 10.8963 20.2625 10.9731C20.6312 11.0448 20.8976 11.3675 20.8976 11.7414L20.8156 18.9885L25.4609 18.3585Z" fill="#86888C"/>
</svg>
