<svg width="28" height="28" viewBox="0 0 28 28" fill="none" xmlns="http://www.w3.org/2000/svg">
<path fill-rule="evenodd" clip-rule="evenodd" d="M20.9382 22.0894C20.9382 23.0969 20.7026 23.8141 20.2176 24.2786C19.736 24.7431 19.0017 24.9685 17.9771 24.9685H11.0199C9.9953 24.9685 9.26099 24.7431 8.77942 24.2786C8.29444 23.8107 8.05877 23.0969 8.05877 22.0894V8.56439C8.05877 7.58418 8.29444 6.8806 8.77942 6.40245C9.27124 5.92088 10.0021 5.68521 11.0199 5.68521H17.9771C19.0051 5.68521 19.7394 5.91405 20.221 6.38537C20.7026 6.8567 20.9382 7.5671 20.9382 8.56439V22.0894ZM12.4237 3.8409C12.4237 3.40373 12.5671 3.2637 12.6115 3.2193C12.6593 3.17148 12.8028 3.03145 13.257 3.03145H15.9688C16.4333 3.03145 16.5699 3.16807 16.6178 3.21247C16.6622 3.25687 16.8022 3.39348 16.8022 3.8409V4.65376H12.4237V3.8409ZM20.9724 5.65789C20.2791 4.98164 19.2988 4.65376 17.9737 4.65376H17.861V3.8409C17.861 3.26028 17.6936 2.80603 17.3657 2.48499C17.0379 2.16394 16.5665 2 15.9688 2H13.257C12.6593 2 12.1914 2.16735 11.8567 2.49182C11.5288 2.81628 11.3615 3.27053 11.3615 3.83748V4.65035H11.0199C9.705 4.65035 8.72819 4.98506 8.02462 5.67497C7.33471 6.35463 7 7.3007 7 8.56098V22.086C7 23.3838 7.34154 24.3401 8.03487 25.0095C8.72478 25.6755 9.70158 26 11.0199 26H17.9771C19.2954 26 20.2722 25.6755 20.9621 25.0095C21.6589 24.3401 21.997 23.3838 21.997 22.086V8.56098C21.997 7.2802 21.6623 6.33072 20.9724 5.65789Z" fill="#86888C"/>
</svg>
