<svg width="28" height="28" viewBox="0 0 28 28" fill="none" xmlns="http://www.w3.org/2000/svg">
<path fill-rule="evenodd" clip-rule="evenodd" d="M20.9343 22.0871V8.56594C20.9343 7.56893 20.6987 6.85531 20.2172 6.38754C19.7358 5.91635 19.0017 5.68758 17.974 5.68758H11.0222C10.0047 5.68758 9.27401 5.92318 8.78233 6.40461C8.29748 6.88263 8.06189 7.586 8.06189 8.56594V22.0871C8.06189 23.0943 8.29748 23.8079 8.78233 24.2757C9.26376 24.7401 9.99445 24.9654 11.0222 24.9654H17.974C19.0017 24.9654 19.7324 24.7401 20.2138 24.2757C20.6987 23.8079 20.9343 23.0909 20.9343 22.0871ZM12.3094 3.84038V4.65301H16.6867V3.84038C16.6867 3.39309 16.5467 3.25651 16.5023 3.21212C16.458 3.16773 16.318 3.03116 15.857 3.03116H13.1426C12.6884 3.03116 12.5484 3.17115 12.5006 3.21895C12.4494 3.26334 12.3094 3.40333 12.3094 3.84038ZM20.9718 5.65685C21.6615 6.32949 21.9962 7.2787 21.9962 8.56594V22.0871C21.9962 23.3811 21.6581 24.3372 20.9616 25.0098C20.2719 25.6756 19.2953 26 17.974 26H11.0222C9.70081 26 8.72429 25.6756 8.03457 25.0132C7.33803 24.3406 7 23.3846 7 22.0905V8.56936C7 7.30602 7.33803 6.36022 8.02774 5.68075C8.73111 4.99104 9.70764 4.65642 11.0222 4.65642H11.2475V3.84038C11.2475 3.27017 11.4149 2.81605 11.7426 2.49168C12.0738 2.16731 12.545 2 13.1426 2H15.857C16.4545 2 16.9257 2.16389 17.2535 2.48485C17.5813 2.8058 17.7452 3.26334 17.7452 3.84038V4.65301H17.974C19.2988 4.65301 20.2787 4.98079 20.9718 5.65685ZM18.8378 21.3086V15.2685H10.1549V21.3086C10.1549 22.1144 10.8276 22.77 11.6573 22.77H17.3389C18.1652 22.77 18.8378 22.1144 18.8378 21.3086ZM19.3671 14.2373C19.6607 14.2373 19.8997 14.4661 19.8997 14.7529V21.3086C19.8997 22.6846 18.749 23.8011 17.3355 23.8011H11.6573C10.2437 23.8011 9.09304 22.6846 9.09304 21.3086V14.7529C9.09304 14.4661 9.33205 14.2373 9.62228 14.2373H19.3671Z" fill="#86888C"/>
</svg>
