<svg width="24" height="24" viewBox="0 0 24 24" fill="none" xmlns="http://www.w3.org/2000/svg">
<path fill-rule="evenodd" clip-rule="evenodd" d="M17.6119 18.7392V7.47162C17.6119 6.64077 17.4156 6.04609 17.0172 5.65628C16.6132 5.26362 16.0014 5.07298 15.145 5.07298H9.35183C8.50391 5.07298 7.89501 5.26931 7.48528 5.67051C7.08123 6.06886 6.88491 6.655 6.88491 7.47162V18.7392C6.88491 19.5758 7.08123 20.1733 7.48528 20.5631C7.88647 20.9501 8.49538 21.1379 9.35183 21.1379H15.1478C16.0043 21.1379 16.6132 20.9501 17.0144 20.5631C17.4156 20.1733 17.6119 19.5758 17.6119 18.7392ZM10.4245 3.53365V4.21084H14.0723V3.53365C14.0723 3.1609 13.9556 3.04709 13.9186 3.0101C13.8788 2.97311 13.765 2.8593 13.3809 2.8593H11.1188C10.7404 2.8593 10.6237 2.97596 10.5839 3.01579C10.544 3.05278 10.4245 3.16944 10.4245 3.53365ZM17.6432 5.04738C18.218 5.60791 18.4968 6.39892 18.4968 7.47162V18.7392C18.4968 19.8176 18.2151 20.6143 17.6347 21.1748C17.0627 21.7297 16.2461 22 15.1478 22H9.35183C8.25068 22 7.4369 21.7297 6.86214 21.1748C6.28169 20.6172 6 19.8205 6 18.7421V7.47446C6 6.42168 6.28169 5.63352 6.85645 5.06729C7.44259 4.49253 8.25637 4.21369 9.35183 4.21369H9.54247V3.53365C9.54247 3.05847 9.68189 2.68004 9.95504 2.40973C10.2282 2.13942 10.6209 2 11.1188 2H13.3809C13.8788 2 14.2714 2.13658 14.5446 2.40404C14.8234 2.67435 14.9572 3.04425 14.9572 3.53365V4.21084H15.1478C16.249 4.21084 17.0656 4.48399 17.6432 5.04738ZM12.5813 16.3264L14.4877 12.0441L12.1744 12.3571C12.0464 12.3742 11.9183 12.3372 11.8216 12.2547C11.7249 12.1721 11.6708 12.0526 11.6708 11.9274L11.6964 9.64262L9.98919 13.6745L12.0834 13.3928C12.2086 13.3757 12.3366 13.4127 12.4333 13.4952C12.5301 13.5777 12.5842 13.6944 12.5842 13.8196L12.5813 16.3264ZM15.145 11.0881C15.3015 11.0681 15.458 11.1307 15.5575 11.2559C15.6543 11.3783 15.6742 11.5433 15.6116 11.6856L12.5415 18.5799C12.4561 18.7705 12.2484 18.873 12.0464 18.8303C11.8444 18.7904 11.6964 18.614 11.6936 18.4092L11.7021 14.3119L9.34898 14.6277C9.19249 14.6504 9.03884 14.5879 8.93925 14.4655C8.84251 14.346 8.81975 14.181 8.8795 14.0387L11.759 7.24399C11.8415 7.05051 12.0492 6.94238 12.2569 6.98506C12.4618 7.0249 12.6098 7.20415 12.6098 7.41187L12.5642 11.438L15.145 11.0881Z" fill="#86888C"/>
</svg>
