<svg width="20" height="20" viewBox="0 0 20 20" fill="none" xmlns="http://www.w3.org/2000/svg">
<path fill-rule="evenodd" clip-rule="evenodd" d="M14.2908 15.391V6.37564C14.2908 5.71087 14.1338 5.23506 13.8127 4.92316C13.4917 4.60899 13.0023 4.45646 12.317 4.45646H7.67957C7.00114 4.45646 6.51394 4.61355 6.18611 4.93455C5.86283 5.25327 5.70575 5.72225 5.70575 6.37564V15.391C5.70575 16.0626 5.86283 16.5407 6.18611 16.8503C6.50711 17.1599 6.99431 17.3102 7.67957 17.3102H12.317C13 17.3102 13.4895 17.1599 13.8105 16.8503C14.1315 16.5407 14.2886 16.0626 14.2908 15.391ZM8.53785 3.22709V3.76892H11.4565V3.22709C11.4565 2.92886 11.3631 2.83779 11.3335 2.8082C11.3039 2.7786 11.2106 2.68754 10.9032 2.68754H9.09562C8.79283 2.68754 8.69721 2.78088 8.66534 2.81275C8.63347 2.84234 8.53785 2.93569 8.53785 3.22709ZM14.3136 4.43825C14.7735 4.88674 14.9966 5.51964 14.9966 6.37564V15.391C14.9966 16.2561 14.7712 16.8936 14.3068 17.3398C13.8469 17.7837 13.1958 18 12.317 18H7.67957C6.8008 18 6.14969 17.7837 5.68981 17.3398C5.22538 16.8936 5 16.2561 5 15.391V6.37564C5 5.5333 5.22311 4.90495 5.68526 4.45191C6.15196 3.99203 6.80535 3.76892 7.68184 3.76892H7.83438V3.22709C7.83438 2.8469 7.94593 2.54411 8.16448 2.33011C8.38304 2.10928 8.69721 2 9.09334 2H10.901C11.2994 2 11.6135 2.107 11.8321 2.32328C12.0529 2.53728 12.1622 2.84234 12.1622 3.22709V3.76892H12.3147C13.1981 3.76892 13.8537 3.98748 14.3136 4.43825ZM12.893 14.8742V6.30962H7.10131V14.8742C7.10131 15.4115 7.5498 15.8486 8.10302 15.8486H11.8913C12.4422 15.8486 12.893 15.4115 12.893 14.8742ZM13.2459 5.62208C13.4417 5.62208 13.5987 5.77462 13.5987 5.96585V14.8742C13.5987 15.7917 12.8338 16.5361 11.889 16.5361H8.10302C7.1605 16.5361 6.39328 15.7917 6.39328 14.8742V5.96585C6.39328 5.77462 6.55265 5.62208 6.74616 5.62208H13.2459Z" fill="#86888C"/>
</svg>
