<svg width="28" height="28" viewBox="0 0 28 28" fill="none" xmlns="http://www.w3.org/2000/svg">
<path fill-rule="evenodd" clip-rule="evenodd" d="M20.9343 22.0871V8.56594C20.9343 7.56893 20.6987 6.85531 20.2207 6.38754C19.7358 5.91635 19.0017 5.68758 17.974 5.68758H11.0222C10.0047 5.68758 9.27401 5.92318 8.78233 6.40461C8.29748 6.88263 8.06189 7.586 8.06189 8.56594V22.0871C8.06189 23.0909 8.29748 23.8079 8.78233 24.2757C9.26376 24.7401 9.99445 24.9654 11.0222 24.9654H17.9774C19.0051 24.9654 19.7358 24.7401 20.2172 24.2757C20.6987 23.8079 20.9343 23.0909 20.9343 22.0871ZM12.3094 3.84038V4.65301H16.6867V3.84038C16.6867 3.39309 16.5467 3.25651 16.5023 3.21212C16.4545 3.16773 16.318 3.03116 15.857 3.03116H13.1426C12.6884 3.03116 12.5484 3.17115 12.5006 3.21895C12.4528 3.26334 12.3094 3.40333 12.3094 3.84038ZM20.9718 5.65685C21.6615 6.32949 21.9962 7.2787 21.9962 8.56594V22.0871C21.9962 23.3811 21.6581 24.3372 20.9616 25.0098C20.2753 25.6756 19.2953 26 17.9774 26H11.0222C9.70081 26 8.72429 25.6756 8.03457 25.0098C7.33803 24.3406 7 23.3846 7 22.0905V8.56936C7 7.30602 7.33803 6.36022 8.02774 5.68075C8.73111 4.99104 9.70764 4.65642 11.0222 4.65642H11.251V3.84038C11.251 3.27017 11.4183 2.81605 11.7461 2.49168C12.0738 2.16731 12.545 2 13.1426 2H15.857C16.4545 2 16.9257 2.16389 17.2535 2.48485C17.5881 2.80922 17.7486 3.25309 17.7486 3.84038V4.65301H17.9774C19.2988 4.65301 20.2787 4.98079 20.9718 5.65685ZM14.8976 19.1916L17.1852 14.0529L14.4093 14.4285C14.2557 14.449 14.102 14.4046 13.9859 14.3056C13.8698 14.2066 13.805 14.0632 13.805 13.9129L13.8357 11.1711L11.787 16.0094L14.3 15.6714C14.4503 15.6509 14.6039 15.6953 14.72 15.7943C14.8361 15.8933 14.901 16.0333 14.901 16.1835L14.8976 19.1916ZM17.974 12.9057C18.1618 12.8818 18.3496 12.9569 18.4691 13.1071C18.5851 13.2539 18.609 13.452 18.5339 13.6227L14.8498 21.8959C14.7473 22.1246 14.4981 22.2475 14.2557 22.1963C14.0132 22.1485 13.8357 21.9368 13.8323 21.691L13.8425 16.7742L11.0188 17.1532C10.831 17.1805 10.6466 17.1054 10.5271 16.9586C10.411 16.8152 10.3837 16.6172 10.4554 16.4464L13.9108 8.29279C14.0098 8.06061 14.2591 7.93086 14.5083 7.98207C14.7542 8.02988 14.9317 8.24499 14.9317 8.49424L14.8771 13.3257L17.974 12.9057Z" fill="#86888C"/>
</svg>
