<svg width="24" height="24" viewBox="0 0 24 24" fill="none" xmlns="http://www.w3.org/2000/svg">
<path fill-rule="evenodd" clip-rule="evenodd" d="M17.6135 18.7388V7.46955C17.6135 6.63859 17.4172 6.04382 17.0159 5.65396C16.6147 5.26124 16.0028 5.07057 15.1463 5.07057H9.34946C8.50142 5.07057 7.89243 5.26693 7.48264 5.66818C7.07854 6.06659 6.88219 6.65282 6.88219 7.46955V18.7388C6.88219 19.5783 7.07854 20.1759 7.48264 20.5629C7.88389 20.9499 8.49289 21.1377 9.34946 21.1377H15.1463C16 21.1377 16.6118 20.9499 17.0131 20.5629C17.4143 20.1759 17.6107 19.5783 17.6135 18.7388ZM10.4223 3.53386V4.21116H14.0706V3.53386C14.0706 3.16107 13.9539 3.04724 13.9169 3.01024C13.8799 2.97325 13.7632 2.85942 13.3791 2.85942H11.1195C10.741 2.85942 10.6215 2.9761 10.5817 3.01594C10.5418 3.05293 10.4223 3.16961 10.4223 3.53386ZM17.642 5.04781C18.2168 5.60842 18.4957 6.39954 18.4957 7.46955V18.7388C18.4957 19.8201 18.214 20.617 17.6335 21.1747C17.0586 21.7297 16.2447 22 15.1463 22H9.34946C8.251 22 7.43711 21.7297 6.86227 21.1747C6.28173 20.617 6 19.8201 6 18.7388V7.46955C6 6.41662 6.27888 5.63119 6.85657 5.06488C7.43995 4.49004 8.25669 4.21116 9.35231 4.21116H9.54297V3.53386C9.54297 3.05862 9.68241 2.68014 9.95561 2.41264C10.2288 2.1366 10.6215 2 11.1167 2H13.3762C13.8742 2 14.2669 2.13375 14.5401 2.4041C14.8162 2.6716 14.9528 3.05293 14.9528 3.53386V4.21116H15.1434C16.2476 4.21116 17.0672 4.48435 17.642 5.04781ZM15.8663 18.0928V7.38702H8.62664V18.0928C8.62664 18.7644 9.18725 19.3108 9.87877 19.3108H14.6141C15.3028 19.3108 15.8663 18.7644 15.8663 18.0928ZM16.3073 6.5276C16.5521 6.5276 16.7484 6.71827 16.7484 6.95731V18.0928C16.7484 19.2396 15.7923 20.1702 14.6113 20.1702H9.87877C8.70063 20.1702 7.74161 19.2396 7.74161 18.0928V6.95731C7.74161 6.71827 7.94081 6.5276 8.1827 6.5276H16.3073Z" fill="#86888C"/>
</svg>
