<svg width="40" height="40" viewBox="0 0 40 40" fill="none" xmlns="http://www.w3.org/2000/svg">
<path fill-rule="evenodd" clip-rule="evenodd" d="M29.9014 32.1306V11.8489C29.9014 10.3534 29.548 9.28297 28.8259 8.58131C28.1037 7.87452 27.0026 7.53137 25.4609 7.53137H15.0333C13.507 7.53137 12.411 7.88476 11.6735 8.60691C10.9462 9.32394 10.5928 10.379 10.5928 11.8489V32.1306C10.5928 33.6415 10.9462 34.7119 11.6735 35.4136C12.3956 36.1101 13.4917 36.4481 15.0333 36.4481H25.4609C27.0026 36.4481 28.0986 36.1101 28.8207 35.4136C29.548 34.7119 29.9014 33.6364 29.9014 32.1306ZM16.9641 4.76056V5.97951H23.5301V4.76056C23.5301 4.08963 23.3201 3.88476 23.2535 3.81818C23.1869 3.7516 22.977 3.54673 22.2855 3.54673H18.2138C17.5326 3.54673 17.3227 3.75672 17.251 3.82843C17.1741 3.89501 16.9641 4.10499 16.9641 4.76056ZM29.9577 7.48527C30.9923 8.49424 31.4942 9.91805 31.4942 11.8489V32.1306C31.4942 34.0717 30.9872 35.5058 29.9424 36.5147C28.9078 37.5134 27.443 38 25.4609 38H15.0333C13.0512 38 11.5864 37.5134 10.5519 36.5198C9.50704 35.5109 9 34.0768 9 32.1357V11.854C9 9.95903 9.50704 8.54033 10.5416 7.52113C11.5967 6.48656 13.0615 5.98464 15.0333 5.98464H15.3713V4.76056C15.3713 3.90525 15.6223 3.22407 16.114 2.73752C16.6108 2.25096 17.3175 2 18.2138 2H22.2855C23.1818 2 23.8886 2.24584 24.3803 2.72727C24.872 3.20871 25.1178 3.89501 25.1178 4.76056V5.97951H25.4609C27.4481 5.97951 28.9181 6.47119 29.9577 7.48527ZM26.7567 30.9629V21.9027H13.7324V30.9629C13.7324 32.1716 14.7414 33.1549 15.9859 33.1549H24.5083C25.7478 33.1549 26.7567 32.1716 26.7567 30.9629ZM27.5506 20.356C27.991 20.356 28.3496 20.6991 28.3496 21.1293V30.9629C28.3496 33.0269 26.6236 34.7017 24.5032 34.7017H15.9859C13.8656 34.7017 12.1396 33.0269 12.1396 30.9629V21.1293C12.1396 20.6991 12.4981 20.356 12.9334 20.356H27.5506Z" fill="#86888C"/>
</svg>
