<svg width="20" height="20" viewBox="0 0 20 20" fill="none" xmlns="http://www.w3.org/2000/svg">
<path fill-rule="evenodd" clip-rule="evenodd" d="M14.2922 15.3929C14.2922 16.0646 14.1351 16.5428 13.8117 16.8524C13.4907 17.1621 13.0011 17.3124 12.3181 17.3124H7.67995C6.99687 17.3124 6.50733 17.1621 6.18628 16.8524C5.86296 16.5405 5.70585 16.0646 5.70585 15.3929V6.37626C5.70585 5.72278 5.86296 5.25374 6.18628 4.93496C6.51416 4.61392 7.00142 4.45681 7.67995 4.45681H12.3181C13.0034 4.45681 13.493 4.60936 13.814 4.92358C14.1351 5.2378 14.2922 5.7114 14.2922 6.37626V15.3929ZM8.61577 3.22727C8.61577 2.93582 8.7114 2.84246 8.741 2.81286C8.77288 2.78099 8.86851 2.68763 9.17134 2.68763H10.9792C11.2889 2.68763 11.38 2.77871 11.4118 2.80831C11.4414 2.83791 11.5348 2.92899 11.5348 3.22727V3.76918H8.61577V3.22727ZM14.3149 4.43859C13.8527 3.98776 13.1992 3.76918 12.3158 3.76918H12.2406V3.22727C12.2406 2.84019 12.1291 2.53736 11.9105 2.32332C11.6919 2.10929 11.3777 2 10.9792 2H9.17134C8.77288 2 8.46094 2.11157 8.2378 2.32788C8.01921 2.54419 7.90764 2.84702 7.90764 3.22499V3.7669H7.67995C6.80333 3.7669 6.15213 3.99004 5.68308 4.44998C5.22314 4.90309 5 5.5338 5 6.37399V15.3906C5 16.2559 5.22769 16.8934 5.68991 17.3397C6.14985 17.7837 6.80105 18 7.67995 18H12.3181C13.197 18 13.8482 17.7837 14.3081 17.3397C14.7726 16.8934 14.998 16.2559 14.998 15.3906V6.37399C14.998 5.52014 14.7749 4.88715 14.3149 4.43859Z" fill="#86888C"/>
</svg>
