<svg width="28" height="28" viewBox="0 0 28 28" fill="none" xmlns="http://www.w3.org/2000/svg">
<path fill-rule="evenodd" clip-rule="evenodd" d="M21.2899 21.0205C19.3199 21.0205 18.4025 20.0644 18.4025 18.0108C18.4025 16.8166 18.7212 16.0054 19.365 15.5258L20.7266 18.2844C20.8263 18.4936 21.0388 18.6256 21.2673 18.6288C21.3607 18.6288 21.4573 18.6063 21.5474 18.558C21.85 18.3906 21.9658 18.0108 21.8113 17.7018L20.5077 15.0655C20.7491 15.0236 21.0034 15.0011 21.2899 15.0011C23.2631 15.0011 24.1805 15.9571 24.1805 18.014C24.1805 20.0644 23.2631 21.0205 21.2899 21.0205ZM14.1728 16.2597C14.131 16.2597 14.0956 16.2693 14.0538 16.2693L11.778 11.4249H16.7061L14.2984 16.2693C14.2565 16.2693 14.2179 16.2629 14.1728 16.2597ZM14.1728 17.5312C14.6332 17.5312 14.778 17.6857 14.778 18.1621C14.778 18.6449 14.6364 18.793 14.1728 18.793C13.7093 18.793 13.5677 18.6449 13.5677 18.1621C13.5677 17.6824 13.7158 17.5312 14.1728 17.5312ZM7.29081 21.0205C5.32084 21.0205 4.40023 20.0644 4.40023 18.0108C4.40023 15.9571 5.31762 14.9979 7.29081 14.9979C7.55476 14.9979 7.79618 15.0172 8.02472 15.0526L6.7275 17.7082C6.63093 17.9045 6.64059 18.1363 6.75325 18.3262C6.8627 18.5129 7.05905 18.6288 7.2715 18.6288H10.146C9.96895 20.2544 9.05156 21.0205 7.29081 21.0205ZM9.1771 15.4936C9.72431 15.8799 10.043 16.4914 10.1428 17.3573H8.26292L9.1771 15.4936ZM10.7898 12.2039L12.9078 16.7071C12.7147 16.8874 12.5666 17.1095 12.4797 17.3606H11.543C11.4046 15.9088 10.8187 14.8208 9.82088 14.1899L10.7898 12.2039ZM21.2899 13.5365C20.7587 13.5365 20.2888 13.617 19.851 13.7361L18.3156 10.6362V7.76497C18.7341 7.72956 19.2491 7.76497 19.513 7.98708C19.5999 8.06111 19.6997 8.18343 19.6997 8.49566C19.6997 8.84653 19.9733 9.12979 20.3081 9.12979C20.6525 9.12335 20.9229 8.84009 20.9165 8.49566C20.9165 7.70381 20.5656 7.24351 20.2727 6.99887C19.336 6.21345 17.7491 6.55788 17.572 6.5965C17.2888 6.66732 17.0924 6.92483 17.0956 7.21454V10.1566H11.1825L10.4936 8.68558H11.3466C11.6911 8.67914 11.9615 8.39588 11.955 8.05145C11.9615 7.70703 11.6911 7.42377 11.3466 7.41733H8.20498C7.86056 7.42377 7.59017 7.70703 7.59661 8.05145C7.59661 8.40232 7.87022 8.68558 8.20498 8.68558H9.13525L10.117 10.7779L8.67816 13.7232C8.22752 13.6009 7.76077 13.5397 7.29403 13.5365C4.56439 13.5365 3 15.1685 3 18.0108C3 20.8531 4.56439 22.4818 7.29403 22.4818C9.81444 22.4818 11.3241 21.0784 11.543 18.6256H12.396C12.5312 19.3981 13.014 19.8938 13.764 20.0226L14.4947 21.5451C14.5977 21.7608 14.8102 21.896 15.0387 21.896H15.969C16.3134 21.8896 16.5838 21.6063 16.5774 21.2651V21.2619C16.5838 20.9175 16.3134 20.6342 15.969 20.6278H15.4121L15.0516 19.8745C15.6536 19.5945 15.998 19.0022 15.998 18.1621C15.998 17.5312 15.8016 17.0387 15.4508 16.7136L17.7104 12.1749L18.7212 14.2189C17.6074 14.9496 17.0023 16.2468 17.0023 18.014C17.0023 20.8563 18.5667 22.4883 21.2931 22.4883C24.0227 22.4883 25.5871 20.8595 25.5871 18.014C25.5839 15.1685 24.0195 13.5365 21.2899 13.5365Z" fill="#86888C"/>
</svg>
