<svg width="24" height="24" viewBox="0 0 24 24" fill="none" xmlns="http://www.w3.org/2000/svg">
<path d="M15.5954 22H5.81197C4.57835 22 3.61254 21.6439 2.94587 20.9373C2.31909 20.2735 2 19.3476 2 18.188V5.86895C2 3.44729 3.4245 2 5.81197 2H15.5954C17.9829 2 19.4074 3.44729 19.4074 5.86895V10.7835C19.4074 11.0969 19.151 11.3533 18.8376 11.3533C18.5242 11.3533 18.2678 11.0969 18.2678 10.7835V5.86895C18.2678 5.00285 18.0513 4.33048 17.6268 3.86895C17.1823 3.38462 16.4986 3.1396 15.5954 3.1396H5.81197C4.90883 3.1396 4.22507 3.38462 3.78063 3.86895C3.35613 4.33048 3.1396 5.00285 3.1396 5.86895V18.188C3.1396 19.9601 4.03989 20.8604 5.81197 20.8604H15.5954C17.3675 20.8604 18.2678 19.9601 18.2678 18.188V15.0285C18.2678 14.7151 18.5242 14.4587 18.8376 14.4587C19.151 14.4587 19.4074 14.7151 19.4074 15.0285V18.188C19.4074 19.3476 19.0883 20.2735 18.4615 20.9373C17.7949 21.641 16.8291 22 15.5954 22Z" fill="#86888C"/>
<path d="M15.5961 7.40962H5.86961C5.55621 7.40962 5.2998 7.15321 5.2998 6.83982C5.2998 6.52643 5.55621 6.27002 5.86961 6.27002H15.5961C15.9095 6.27002 16.1659 6.52643 16.1659 6.83982C16.1659 7.15321 15.9095 7.40962 15.5961 7.40962ZM15.5961 10.8683H5.86961C5.55621 10.8683 5.2998 10.6119 5.2998 10.2985C5.2998 9.98512 5.55621 9.72871 5.86961 9.72871H15.5961C15.9095 9.72871 16.1659 9.98512 16.1659 10.2985C16.1659 10.6119 15.9095 10.8683 15.5961 10.8683ZM15.5847 14.327H5.86961C5.55621 14.327 5.2998 14.0706 5.2998 13.7572C5.2998 13.4438 5.55621 13.1874 5.86961 13.1874H15.5847C15.8981 13.1874 16.1545 13.4438 16.1545 13.7572C16.1545 14.0706 15.8981 14.327 15.5847 14.327ZM12.636 17.7857H5.86961C5.55621 17.7857 5.2998 17.5293 5.2998 17.2159C5.2998 16.9025 5.55621 16.6461 5.86961 16.6461H12.636C12.9494 16.6461 13.2058 16.9025 13.2058 17.2159C13.2058 17.5293 12.9494 17.7857 12.636 17.7857Z" fill="#86888C"/>
<path d="M12.354 19.4084C12.0406 19.4084 11.7842 19.1548 11.7842 18.8386C11.7842 18.7759 11.7927 18.716 11.8127 18.6562L12.7899 15.7417C12.8212 15.6477 12.8782 15.5622 12.9523 15.4967C15.1602 13.548 18.5306 10.5651 18.7614 10.3343C19.6218 9.47388 20.8355 9.65907 21.5135 10.3343C21.881 10.7075 22.089 11.2089 22.0919 11.7331C22.089 12.2403 21.8867 12.7075 21.505 13.0836C21.1773 13.4084 16.2144 17.8015 15.6503 18.3001C15.5933 18.3514 15.5249 18.3913 15.4508 18.4141L12.5306 19.3799C12.4736 19.397 12.4138 19.4084 12.354 19.4084ZM13.8241 16.2517L13.2571 17.9411L14.9836 17.3713C17.1916 15.4169 20.4793 12.5024 20.7101 12.2745C20.8725 12.1121 20.958 11.9297 20.958 11.7303C20.9551 11.5109 20.8668 11.3001 20.713 11.1405C20.5534 10.981 20.0406 10.6733 19.5734 11.1405C19.2571 11.4539 14.7528 15.4311 13.8241 16.2517Z" fill="#86888C"/>
</svg>
