<svg width="28" height="28" viewBox="0 0 28 28" fill="none" xmlns="http://www.w3.org/2000/svg">
<path fill-rule="evenodd" clip-rule="evenodd" d="M19.5043 22.2769C19.5009 22.2769 19.494 22.2734 19.4906 22.2734C19.2857 22.2734 18.9989 22.1915 18.7086 22.0037C18.4047 21.809 18.21 21.5973 18.1349 21.3787C17.988 20.9553 17.5168 20.7299 17.0865 20.8733C16.6528 21.0168 16.4206 21.4744 16.5709 21.8978C16.7689 22.4681 17.1821 22.9564 17.8036 23.356C17.9641 23.4584 18.1281 23.5438 18.2886 23.6155C17.9129 24.1892 17.3051 24.4795 16.4445 24.4795C15.3654 24.4795 14.9317 23.373 14.8293 23.0555C14.8327 22.7789 14.8361 22.0959 14.8293 21.9285V6.26434C14.8293 6.05262 14.8361 5.2945 14.8395 4.9735C14.9795 4.6525 15.4713 3.7134 16.4445 3.7134C17.3119 3.7134 17.9095 3.99342 18.2817 4.56713C17.4758 4.9496 16.9328 5.67697 16.6801 6.38045L16.605 6.60242L18.1827 7.08392L18.2373 6.91659C18.3739 6.54095 18.712 5.92626 19.4872 5.91602H19.4974C22.967 5.91602 23.3426 9.03383 23.3426 10.3759C23.3426 10.7515 23.2914 11.8648 22.8167 12.8824C22.2669 12.5375 21.6864 12.3395 21.1571 12.2404C21.1981 11.6872 20.9693 11.1647 20.597 10.7823C20.5936 10.7789 20.5151 10.6969 20.5117 10.6935C20.1975 10.3691 19.7126 10.3964 19.3813 10.7037C19.0501 11.0111 19.074 11.5609 19.3882 11.8819C19.5009 11.998 19.5248 12.0799 19.5009 12.1585H19.494C19.3677 12.1721 19.214 12.1892 19.0706 12.2063C18.9442 12.2234 18.7735 12.2541 18.5686 12.2985C18.1246 12.3975 17.848 12.8312 17.9505 13.2683C18.0529 13.7054 18.5037 13.9786 18.9408 13.8728C19.0842 13.842 19.2038 13.8181 19.2925 13.8079C19.4121 13.7942 19.5452 13.7771 19.6614 13.7669C20.078 13.7225 21.4917 13.6645 22.4001 14.6104C23.2709 15.7544 23.3392 17.3491 23.3392 17.8136C23.3495 19.1522 22.9772 22.2188 19.5043 22.2769ZM11.5578 24.4829C10.7075 24.4829 10.1201 24.2097 9.74445 23.6565C9.93569 23.5779 10.1303 23.4823 10.3216 23.3594C10.9431 22.9598 11.3597 22.4715 11.5544 21.9012C11.7012 21.4778 11.469 21.0202 11.0387 20.8767C10.605 20.7333 10.1372 20.9587 9.99032 21.3822C9.9152 21.6007 9.72055 21.8124 9.41662 22.0071C9.12635 22.1949 8.84974 22.2769 8.6346 22.2734C8.59704 22.27 8.56289 22.2837 8.52533 22.2871C8.51508 22.2871 8.50484 22.2837 8.49801 22.2837C5.02846 22.2837 4.65282 19.1625 4.65282 17.8238C4.65282 17.4311 4.70746 16.2256 5.25043 15.1704C5.49289 15.2558 5.75583 15.3173 6.04269 15.348C6.12123 16.0993 6.65396 16.6388 7.29596 16.8779C7.30962 16.8847 7.42573 16.9257 7.43939 16.9291C7.52476 16.9598 7.61013 16.9701 7.69209 16.9701C8.01992 16.9701 8.31019 16.7549 8.43654 16.4237C8.59363 16.0105 8.32726 15.5324 7.90723 15.3753C7.75014 15.3173 7.6955 15.249 7.68526 15.1636C8.68924 14.7504 9.15709 13.8045 9.24929 12.9337L9.26978 12.7151C9.29368 12.2712 8.94878 11.8887 8.49118 11.8614C8.01992 11.8375 7.64428 12.1756 7.61696 12.6229L7.6033 12.7697C7.49061 13.8523 6.60273 13.7737 6.30905 13.7567C5.97439 13.7293 5.72168 13.6371 5.55094 13.5074C4.73136 12.3702 4.65965 10.8335 4.65965 10.3793C4.65965 9.03725 5.03529 5.91943 8.60046 5.91943H8.60729C9.38247 5.91943 9.7547 6.54095 9.88788 6.91317L9.95276 7.11124C10.0655 7.4459 10.3796 7.65079 10.7211 7.65079C10.8099 7.65079 10.9021 7.63713 10.9909 7.6064C11.4246 7.4698 11.6534 6.99172 11.5134 6.56827L11.4519 6.38728C11.189 5.65307 10.6255 4.91203 9.75811 4.54322C10.1372 4.00025 10.7279 3.72023 11.5646 3.72023C12.6437 3.72023 13.0774 4.83008 13.1799 5.14425C13.1764 5.42086 13.173 6.10384 13.1799 6.27117V21.9388C13.1799 22.1505 13.173 22.9052 13.1696 23.2296C13.0262 23.5438 12.5344 24.4829 11.5578 24.4829ZM25.0023 10.3759C25.0023 7.71226 23.7046 4.62518 20.0131 4.3315C19.4155 2.90407 18.1451 2.10156 16.4445 2.10156C15.28 2.10156 14.4912 2.6821 13.9858 3.27971C13.453 2.64112 12.6676 2.10156 11.5578 2.10156C9.86056 2.10156 8.59363 2.90065 7.9926 4.32125C4.32157 4.58079 3 7.69519 3 10.3793C3 11.0623 3.10245 12.6878 3.95959 14.0981C3.10245 15.5119 3 17.1408 3 17.8238C3 20.4874 4.29767 23.5745 7.98919 23.8716C8.5868 25.2956 9.85714 26.1016 11.5578 26.1016C12.7223 26.1016 13.5111 25.521 14.0165 24.9234C14.5492 25.562 15.3347 26.1016 16.4445 26.1016C18.1417 26.1016 19.4086 25.3025 20.0097 23.8819C23.6841 23.6223 25.0023 20.5079 25.0023 17.8238C25.0023 17.1408 24.8998 15.5187 24.0427 14.105C24.8998 12.6878 25.0023 11.0589 25.0023 10.3759Z" fill="#86888C"/>
</svg>
