<svg width="20" height="20" viewBox="0 0 20 20" fill="none" xmlns="http://www.w3.org/2000/svg">
<path fill-rule="evenodd" clip-rule="evenodd" d="M6.26331 12.8777C6.34754 12.8777 6.43632 12.8869 6.52966 12.9096C6.92123 13.0052 7.55411 13.3649 7.36516 14.7035C7.29914 15.1771 7.33101 15.596 7.46077 15.9465C7.59281 16.3062 7.7886 16.5453 8.03902 16.6546C9.72139 17.3922 12.0412 16.8731 14.0901 15.3C15.5835 14.1458 16.5511 12.575 16.8197 10.8744C16.8265 10.8357 16.8356 10.797 16.8516 10.7606C16.8948 10.5875 16.9312 10.4077 16.954 10.2256C17.275 7.78054 15.4834 7.21368 14.6979 7.08392C14.6274 7.07709 14.5067 7.05887 14.3974 7.04294C14.2882 7.02928 14.0309 7.00651 13.7327 7.03156C13.5847 7.04066 13.4458 6.99285 13.3434 6.89269C13.0975 6.65592 12.8835 6.37363 12.7105 6.05264C12.2552 5.21486 12.1528 4.24505 12.4191 3.32305C12.4237 3.30711 12.4305 3.2889 12.435 3.27296C12.4419 3.2502 12.451 3.20239 12.4373 3.17507C12.4237 3.14548 12.3645 3.09767 12.2415 3.05441C12.1505 3.02482 11.8705 2.9292 11.768 3.17052C11.4607 4.22456 11.5836 5.3765 12.1254 6.37363C12.2188 6.54665 12.3258 6.71056 12.4396 6.86764C12.599 7.08392 12.5603 7.3867 12.3554 7.55972C11.8773 7.95811 11.5791 8.59555 11.463 9.45381C11.4379 9.61089 11.4265 9.75204 11.4265 9.87497C11.4265 9.90457 11.4243 9.93416 11.4197 9.96148C11.3924 10.1231 11.4243 10.3485 11.4539 10.5693C11.5153 11.0155 11.595 11.5687 11.2125 11.9967C10.8915 12.3541 10.3406 12.5021 9.48008 12.4702C9.43227 12.468 9.38446 12.4589 9.33893 12.4429C9.2251 12.4042 9.09534 12.3678 8.95419 12.3291C8.46701 12.2221 7.69981 12.1128 7.26044 12.131C7.23995 12.1333 7.21946 12.131 7.19897 12.131C7.18759 12.1333 7.1762 12.131 7.16482 12.131C6.5069 12.0923 5.84214 12.2244 5.2252 12.5089C4.19847 12.9847 3.41989 13.8339 3.02832 14.8993C2.96002 15.0815 3.09889 15.1611 3.16491 15.1998C3.36525 15.3159 3.4768 15.3342 3.71129 15.0109C3.79097 14.9016 3.86837 14.7901 3.94577 14.6785C4.351 14.098 4.76761 13.497 5.48245 13.1304L5.56213 13.0895C5.72832 13.0052 5.9628 12.8777 6.26331 12.8777ZM9.70091 18C8.96785 18 8.26895 17.8657 7.64062 17.5879C7.13523 17.3648 6.74821 16.9209 6.52056 16.304C6.3316 15.7917 6.28152 15.2067 6.3703 14.5624C6.42039 14.1936 6.39079 13.9204 6.29745 13.8976C6.24509 13.8863 6.20412 13.8999 6.04476 13.9887L5.94231 14.0433C5.45285 14.296 5.13641 14.7468 4.77216 15.2681C4.69248 15.3842 4.61053 15.5003 4.52629 15.6164C3.8365 16.568 3.06019 16.3176 2.6618 16.0877C1.92419 15.6597 1.91964 14.9175 2.09493 14.5214C2.56618 13.2329 3.53372 12.1811 4.80631 11.5915C5.56896 11.2409 6.40218 11.0793 7.21491 11.1225H7.23084C7.79543 11.102 8.63092 11.225 9.19323 11.3502C9.34576 11.3912 9.47325 11.4253 9.58708 11.4617C10.3042 11.4822 10.4476 11.3388 10.4636 11.3206C10.5296 11.2455 10.4863 10.9404 10.4544 10.7173C10.4157 10.4487 10.3725 10.1436 10.4157 9.83855C10.418 9.67691 10.4362 9.49707 10.4636 9.31266C10.5842 8.39749 10.8915 7.65761 11.3764 7.10668C11.3264 7.027 11.2808 6.9496 11.2376 6.86992C10.566 5.63147 10.4157 4.20407 10.8119 2.8518C10.9872 2.35096 11.5882 1.76361 12.5625 2.09826C13.0497 2.26445 13.2637 2.55585 13.3571 2.77212C13.5232 3.1523 13.4231 3.50289 13.3775 3.63266C13.1931 4.28831 13.2683 4.97583 13.5915 5.57001C13.6803 5.73164 13.7805 5.87962 13.892 6.00938C14.1538 6.00255 14.3747 6.02076 14.5318 6.03898C14.6388 6.05491 14.7389 6.07085 14.8232 6.07996C16.5852 6.36908 18.3063 7.64395 17.9489 10.3599C17.917 10.6035 17.8692 10.8471 17.8077 11.077C17.8054 11.0838 17.8054 11.0884 17.8032 11.0952C17.4822 13.0303 16.3826 14.8083 14.7002 16.1082C13.0952 17.3466 11.3127 18 9.70091 18Z" fill="#86888C"/>
</svg>
