<svg width="20" height="20" viewBox="0 0 20 20" fill="none" xmlns="http://www.w3.org/2000/svg">
<path fill-rule="evenodd" clip-rule="evenodd" d="M16.0908 15.8276C16.0839 15.8322 15.9451 15.9688 15.7174 15.9779C15.2052 16.0052 14.9048 15.7502 14.643 15.5272L14.5701 15.4657C14.2833 15.2244 13.9851 14.9763 13.35 14.9763H13.3431C13.0358 14.9763 12.3301 14.908 12.2641 14.8989C11.9727 14.8215 11.6745 14.6507 11.6722 13.92C11.5607 11.3886 11.5152 8.40423 11.6768 7.83512C11.7223 7.67577 11.7656 7.55967 11.8065 7.48228C11.8202 7.45496 11.8339 7.42764 11.843 7.39805C11.8885 7.25919 11.9955 6.93821 12.6807 6.93821C13.1064 6.93821 13.3682 7.07935 13.589 7.42309C13.6049 7.44585 13.6231 7.47089 13.6413 7.49138C13.6618 7.51415 15.7607 9.84976 16.2114 12.5132C16.5939 14.7554 16.3548 15.5567 16.0908 15.8276ZM9.20914 9.5652L8.25304 10.0478C8.25304 9.81561 8.25304 9.59024 8.24849 9.37171L8.87223 9.05756C9.01792 8.98244 9.11353 8.82992 9.11353 8.66146V3.88325H9.71451V8.67285C9.71451 8.8413 9.80784 8.99382 9.95581 9.06894L10.575 9.38309C10.5727 9.60163 10.5704 9.82699 10.5704 10.0592L9.59386 9.5652C9.47548 9.50374 9.33207 9.50374 9.20914 9.5652ZM7.15126 13.92C7.15126 14.6143 6.85304 14.7873 6.59353 14.8556C6.49565 14.8715 5.79223 14.9398 5.48264 14.9398H5.47581C4.84296 14.9398 4.54475 15.188 4.25792 15.4293L4.18508 15.4907C3.92557 15.7138 3.62963 15.9688 3.11061 15.9415C2.88296 15.9324 2.7441 15.7958 2.74183 15.7958C2.47548 15.5203 2.23646 14.7213 2.61435 12.4767C3.06508 9.81333 5.16166 7.47772 5.18443 7.45268C5.20264 7.4322 5.22085 7.40943 5.23678 7.38439C5.45532 7.04065 5.71939 6.89951 6.14508 6.89951C6.83256 6.89951 6.93727 7.22276 6.9828 7.35935C6.99191 7.38894 7.00557 7.41854 7.0215 7.44813C7.06248 7.52325 7.10345 7.6348 7.15126 7.7987C7.31061 8.37008 7.26508 11.3545 7.15126 13.92ZM17.2017 12.3402C16.7236 9.51968 14.6885 7.14537 14.4085 6.83122C14.0033 6.21659 13.4387 5.91837 12.6852 5.91837C11.5038 5.91837 11.069 6.59447 10.9119 7.02927C10.8413 7.16813 10.7776 7.33659 10.7161 7.55285C10.6661 7.73041 10.6296 8.03317 10.6091 8.41333L10.5818 8.39968V3.76943C10.5818 3.34602 10.2426 3 9.82605 3H9.00199C8.5854 3 8.24622 3.34602 8.24622 3.76943V8.38829L8.2189 8.40195C8.19613 8.01041 8.16199 7.69854 8.10963 7.51642V7.51415C8.04589 7.29333 7.98443 7.12943 7.91386 6.99285C7.75906 6.55805 7.32426 5.88195 6.1428 5.88195C5.38931 5.88195 4.82475 6.18016 4.41955 6.7948C4.13955 7.11122 2.10443 9.48325 1.62638 12.306C1.24849 14.5415 1.3737 15.839 2.03158 16.5151C2.09987 16.5857 2.47321 16.9363 3.06735 16.9613C3.10378 16.9636 3.1402 16.9636 3.17435 16.9636C4.0189 16.9636 4.5402 16.5174 4.82703 16.2738L4.89077 16.2192C5.13435 16.0166 5.20036 15.962 5.47353 15.962C5.80589 15.9642 6.68004 15.8891 6.81207 15.8527C7.67711 15.625 8.15288 14.9398 8.15288 13.9337C8.17792 13.3691 8.22345 12.2218 8.24394 11.0403L9.40491 10.4553L10.5864 11.0517C10.6069 12.24 10.6524 13.3941 10.6774 13.9587C10.6774 14.9763 11.1532 15.6615 12.0137 15.8868C12.1526 15.9255 13.0335 15.9984 13.35 15.9984H13.3545C13.63 15.9984 13.696 16.053 13.9373 16.2556L14.001 16.3102C14.2878 16.5538 14.8091 17 15.6537 17C15.6878 17 15.7243 16.9977 15.7607 16.9977C16.3548 16.9727 16.7282 16.6221 16.7987 16.5493C17.4566 15.8709 17.5795 14.5733 17.2017 12.3402Z" fill="#86888C"/>
</svg>
