<svg width="28" height="28" viewBox="0 0 28 28" fill="none" xmlns="http://www.w3.org/2000/svg">
<path fill-rule="evenodd" clip-rule="evenodd" d="M8.39496 18.3166C8.52131 18.3166 8.65449 18.3303 8.79449 18.3644C9.38184 18.5079 10.3312 19.0474 10.0477 21.0553C9.94871 21.7656 9.99652 22.3939 10.1912 22.9198C10.3892 23.4594 10.6829 23.8179 11.0585 23.9818C13.5821 25.0882 17.0618 24.3097 20.1352 21.95C22.3753 20.2187 23.8266 17.8625 24.2295 15.3116C24.2398 15.2535 24.2534 15.1955 24.2773 15.1408C24.3422 14.8813 24.3969 14.6115 24.431 14.3383C24.9125 10.6708 22.225 9.82052 21.0469 9.62587C20.9411 9.61563 20.7601 9.58831 20.5962 9.56441C20.4322 9.54392 20.0464 9.50977 19.599 9.54733C19.3771 9.56099 19.1688 9.48928 19.0151 9.33903C18.6463 8.98389 18.3253 8.56045 18.0658 8.07895C17.3828 6.8223 17.2291 5.36758 17.6287 3.98457C17.6355 3.96067 17.6457 3.93335 17.6526 3.90944C17.6628 3.8753 17.6765 3.80358 17.656 3.76261C17.6355 3.71821 17.5467 3.6465 17.3623 3.58162C17.2257 3.53723 16.8057 3.3938 16.652 3.75578C16.191 5.33684 16.3754 7.06475 17.1882 8.56045C17.3282 8.81997 17.4887 9.06584 17.6594 9.30147C17.8984 9.62587 17.8404 10.08 17.5331 10.3396C16.8159 10.9372 16.3686 11.8933 16.1944 13.1807C16.1569 13.4163 16.1398 13.6281 16.1398 13.8125C16.1398 13.8569 16.1364 13.9012 16.1296 13.9422C16.0886 14.1847 16.1364 14.5227 16.1808 14.854C16.273 15.5233 16.3925 16.3531 15.8188 16.9951C15.3373 17.5312 14.5109 17.7532 13.2201 17.7054C13.1484 17.702 13.0767 17.6883 13.0084 17.6644C12.8377 17.6063 12.643 17.5517 12.4313 17.4936C11.7005 17.3332 10.5497 17.1692 9.89066 17.1966C9.85992 17.2 9.82919 17.1966 9.79845 17.1966C9.78138 17.2 9.76431 17.1966 9.74723 17.1966C8.76035 17.1385 7.76321 17.3366 6.83779 17.7634C5.2977 18.4771 4.12983 19.7509 3.54248 21.349C3.44004 21.6222 3.64834 21.7417 3.74737 21.7998C4.04788 21.9739 4.2152 22.0012 4.56693 21.5163C4.68645 21.3524 4.80255 21.1851 4.91866 21.0178C5.5265 20.147 6.15141 19.2455 7.22367 18.6957L7.34319 18.6342C7.59247 18.5079 7.9442 18.3166 8.39496 18.3166ZM13.5514 26C12.4518 26 11.4034 25.7985 10.4609 25.3819C9.70284 25.0473 9.12232 24.3814 8.78083 23.4559C8.4974 22.6876 8.42228 21.81 8.55546 20.8436C8.63058 20.2904 8.58619 19.8806 8.44618 19.8465C8.36764 19.8294 8.30617 19.8499 8.06713 19.9831L7.91347 20.065C7.17928 20.4441 6.70462 21.1202 6.15824 21.9022C6.03872 22.0764 5.91579 22.2505 5.78944 22.4247C4.75475 23.8521 3.59029 23.4764 2.99269 23.1315C1.88629 22.4896 1.87946 21.3763 2.1424 20.7821C2.84927 18.8493 4.30057 17.2717 6.20947 16.3872C7.35343 15.8614 8.60326 15.6189 9.82236 15.6838H9.84626C10.6931 15.6531 11.9464 15.8375 12.7898 16.0253C13.0186 16.0867 13.2099 16.138 13.3806 16.1926C14.4563 16.2233 14.6714 16.0082 14.6953 15.9809C14.7944 15.8682 14.7295 15.4106 14.6817 15.0759C14.6236 14.673 14.5587 14.2154 14.6236 13.7578C14.627 13.5154 14.6543 13.2456 14.6953 12.969C14.8763 11.5962 15.3373 10.4864 16.0647 9.66002C15.9895 9.5405 15.9213 9.4244 15.8564 9.30488C14.849 7.44721 14.6236 5.30611 15.2178 3.2777C15.4807 2.52644 16.3823 1.64541 17.8438 2.14739C18.5746 2.39667 18.8956 2.83377 19.0356 3.15818C19.2849 3.72846 19.1346 4.25434 19.0663 4.44899C18.7897 5.43246 18.9024 6.46374 19.3873 7.35501C19.5205 7.59746 19.6707 7.81943 19.8381 8.01407C20.2308 8.00383 20.562 8.03115 20.7976 8.05847C20.9581 8.08237 21.1084 8.10627 21.2347 8.11993C23.8778 8.55362 26.4594 10.4659 25.9233 14.5398C25.8755 14.9052 25.8038 15.2706 25.7116 15.6155C25.7082 15.6257 25.7082 15.6326 25.7047 15.6428C25.2233 18.5454 23.5739 21.2124 21.0503 23.1623C18.6429 25.0199 15.9691 26 13.5514 26Z" fill="#86888C"/>
</svg>
