<svg width="24" height="24" viewBox="0 0 24 24" fill="none" xmlns="http://www.w3.org/2000/svg">
<path fill-rule="evenodd" clip-rule="evenodd" d="M20.8688 19.4927C20.86 19.4985 20.6815 19.6741 20.3888 19.6859C19.7303 19.721 19.3439 19.3932 19.0073 19.1063L18.9137 19.0273C18.5449 18.7171 18.1615 18.398 17.3449 18.398H17.3361C16.941 18.398 16.0337 18.3102 15.9488 18.2985C15.5742 18.199 15.1907 17.9795 15.1878 17.04C15.0444 13.7854 14.9859 9.94829 15.1937 9.21659C15.2522 9.01171 15.3078 8.86244 15.3605 8.76293C15.3781 8.7278 15.3956 8.69268 15.4073 8.65463C15.4659 8.4761 15.6034 8.06341 16.4844 8.06341C17.0317 8.06341 17.3683 8.24488 17.6522 8.68683C17.6727 8.7161 17.6961 8.74829 17.7195 8.77463C17.7459 8.8039 20.4444 11.8068 21.0239 15.2312C21.5156 18.1141 21.2083 19.1444 20.8688 19.4927ZM12.021 11.441L10.7917 12.0615C10.7917 11.7629 10.7917 11.4732 10.7859 11.1922L11.5878 10.7883C11.7751 10.6917 11.8981 10.4956 11.8981 10.279V4.13561H12.6707V10.2937C12.6707 10.5102 12.7907 10.7063 12.981 10.8029L13.7771 11.2068C13.7742 11.4878 13.7712 11.7776 13.7712 12.0761L12.5156 11.441C12.3634 11.362 12.179 11.362 12.021 11.441ZM9.37514 17.04C9.37514 17.9327 8.99172 18.1551 8.65806 18.2429C8.53221 18.2634 7.62782 18.3512 7.22977 18.3512H7.22099C6.40733 18.3512 6.02392 18.6702 5.65514 18.9805L5.56148 19.0595C5.22782 19.3463 4.84733 19.6741 4.18001 19.639C3.88733 19.6273 3.7088 19.4517 3.70587 19.4517C3.36343 19.0976 3.05611 18.0702 3.54197 15.1844C4.12148 11.76 6.81709 8.75707 6.84636 8.72488C6.86977 8.69854 6.89319 8.66927 6.91367 8.63707C7.19465 8.19512 7.53416 8.01366 8.08148 8.01366C8.96538 8.01366 9.10002 8.42927 9.15855 8.60488C9.17026 8.64293 9.18782 8.68098 9.20831 8.71902C9.26099 8.81561 9.31367 8.95902 9.37514 9.16976C9.58001 9.90439 9.52148 13.7415 9.37514 17.04ZM22.2971 15.0088C21.6825 11.3824 19.0659 8.32976 18.7059 7.92585C18.1849 7.13561 17.459 6.7522 16.4903 6.7522C14.9712 6.7522 14.4122 7.62146 14.2103 8.18049C14.1195 8.35902 14.0376 8.57561 13.9586 8.85366C13.8942 9.08195 13.8473 9.47122 13.821 9.96L13.7859 9.94244V3.98927C13.7859 3.44488 13.3498 3 12.8142 3H11.7546C11.219 3 10.7829 3.44488 10.7829 3.98927V9.92781L10.7478 9.94537C10.7186 9.44195 10.6746 9.04098 10.6073 8.80683V8.8039C10.5254 8.52 10.4464 8.30927 10.3556 8.13366C10.1566 7.57463 9.59758 6.70537 8.07855 6.70537C7.10977 6.70537 6.38392 7.08878 5.86294 7.87902C5.50294 8.28585 2.88636 11.3356 2.27172 14.9649C1.78587 17.839 1.94684 19.5073 2.7927 20.3766C2.8805 20.4673 3.3605 20.918 4.1244 20.9502C4.17123 20.9532 4.21806 20.9532 4.26197 20.9532C5.34782 20.9532 6.01806 20.3795 6.38684 20.0663L6.4688 19.9961C6.78197 19.7356 6.86684 19.6654 7.21806 19.6654C7.64538 19.6683 8.76928 19.5717 8.93904 19.5249C10.0512 19.2322 10.6629 18.3512 10.6629 17.0576C10.6951 16.3317 10.7537 14.8566 10.78 13.3376L12.2727 12.5854L13.7917 13.3522C13.8181 14.88 13.8766 16.3639 13.9088 17.0898C13.9088 18.398 14.5205 19.279 15.6268 19.5688C15.8054 19.6185 16.9381 19.7122 17.3449 19.7122H17.3507C17.7049 19.7122 17.7898 19.7824 18.1 20.0429L18.182 20.1132C18.5507 20.4263 19.221 21 20.3068 21C20.3507 21 20.3976 20.9971 20.4444 20.9971C21.2083 20.9649 21.6883 20.5141 21.779 20.4205C22.6249 19.5483 22.7829 17.88 22.2971 15.0088Z" fill="#86888C"/>
</svg>
