<svg width="40" height="40" viewBox="0 0 40 40" fill="none" xmlns="http://www.w3.org/2000/svg">
<path fill-rule="evenodd" clip-rule="evenodd" d="M35.5445 33.3203C35.5289 33.3307 35.2115 33.6429 34.6912 33.6637C33.5205 33.7262 32.8336 33.1434 32.2353 32.6335L32.0688 32.493C31.4131 31.9415 30.7315 31.3743 29.2798 31.3743H29.2642C28.5618 31.3743 26.9488 31.2182 26.7979 31.1974C26.1318 31.0205 25.4502 30.6302 25.445 28.96C25.1901 23.174 25.086 16.3525 25.4554 15.0517C25.5595 14.6875 25.6583 14.4221 25.752 14.2452C25.7832 14.1828 25.8144 14.1203 25.8353 14.0527C25.9393 13.7353 26.1839 13.0016 27.7501 13.0016C28.7231 13.0016 29.3214 13.3242 29.8261 14.1099C29.8626 14.162 29.9042 14.2192 29.9458 14.266C29.9927 14.318 34.7901 19.6566 35.8203 25.7444C36.6944 30.8696 36.1481 32.7011 35.5445 33.3203ZM19.8151 19.0062L17.6297 20.1093C17.6297 19.5785 17.6297 19.0634 17.6193 18.5639L19.045 17.8459C19.378 17.6741 19.5966 17.3255 19.5966 16.9405V6.01886H20.9702V16.9665C20.9702 17.3515 21.1835 17.7002 21.5218 17.8719L22.937 18.5899C22.9318 19.0894 22.9266 19.6046 22.9266 20.1353L20.6944 19.0062C20.4239 18.8657 20.0961 18.8657 19.8151 19.0062ZM15.1114 28.96C15.1114 30.547 14.4297 30.9424 13.8366 31.0985C13.6128 31.135 12.005 31.2911 11.2974 31.2911H11.2818C9.83526 31.2911 9.15363 31.8582 8.49802 32.4098L8.33152 32.5502C7.73835 33.0602 7.06192 33.6429 5.87558 33.5805C5.35526 33.5597 5.03786 33.2475 5.03265 33.2475C4.42387 32.6179 3.87753 30.7915 4.74127 25.6611C5.77152 19.5733 10.5637 14.2348 10.6157 14.1776C10.6574 14.1307 10.699 14.0787 10.7354 14.0215C11.2349 13.2358 11.8385 12.9132 12.8115 12.9132C14.3829 12.9132 14.6222 13.652 14.7263 13.9642C14.7471 14.0319 14.7783 14.0995 14.8148 14.1672C14.9084 14.3389 15.0021 14.5938 15.1114 14.9685C15.4756 16.2745 15.3715 23.0959 15.1114 28.96ZM38.0837 25.3489C36.991 18.9021 32.3393 13.4751 31.6993 12.7571C30.7731 11.3522 29.4827 10.6706 27.7605 10.6706C25.06 10.6706 24.0662 12.2159 23.7071 13.2098C23.5458 13.5272 23.4001 13.9122 23.2596 14.4065C23.1452 14.8124 23.0619 15.5044 23.0151 16.3733L22.9527 16.3421V5.7587C22.9527 4.79089 22.1774 4 21.2252 4H19.3416C18.3894 4 17.6141 4.79089 17.6141 5.7587V16.3161L17.5517 16.3473C17.4996 15.4524 17.4216 14.7395 17.3019 14.3233V14.318C17.1562 13.8133 17.0157 13.4387 16.8544 13.1265C16.5006 12.1327 15.5068 10.5873 12.8063 10.5873C11.084 10.5873 9.79363 11.2689 8.86745 12.6738C8.22745 13.3971 3.57574 18.8189 2.48306 25.2709C1.61932 30.3805 1.9055 33.3463 3.40924 34.8917C3.56534 35.053 4.41867 35.8543 5.77672 35.9115C5.85997 35.9167 5.94322 35.9167 6.02127 35.9167C7.95168 35.9167 9.14322 34.8969 9.79883 34.3402L9.94452 34.2153C10.5013 33.7522 10.6522 33.6273 11.2766 33.6273C12.0362 33.6325 14.0343 33.4608 14.3361 33.3776C16.3133 32.8572 17.4008 31.2911 17.4008 28.9912C17.458 27.7008 17.5621 25.0784 17.6089 22.3779L20.2626 21.0406L22.9631 22.4039C23.0099 25.12 23.114 27.758 23.1712 29.0485C23.1712 31.3743 24.2587 32.9405 26.2255 33.4556C26.5429 33.5441 28.5566 33.7106 29.2798 33.7106H29.2902C29.9198 33.7106 30.0707 33.8354 30.6222 34.2985L30.7679 34.4234C31.4235 34.9802 32.6151 36 34.5455 36C34.6235 36 34.7068 35.9948 34.7901 35.9948C36.1481 35.9376 37.0014 35.1363 37.1627 34.9698C38.6665 33.4192 38.9474 30.4533 38.0837 25.3489Z" fill="#86888C"/>
</svg>
