<svg width="20" height="20" viewBox="0 0 20 20" fill="none" xmlns="http://www.w3.org/2000/svg">
<path fill-rule="evenodd" clip-rule="evenodd" d="M14.3419 9.196C14.3419 14.3158 13.2628 16.0453 10.0635 16.0453C6.86424 16.0453 5.78522 14.3158 5.78522 9.196C5.78522 8.54326 5.80298 7.96601 5.8385 7.4376C6.91308 7.83946 8.15417 8.0637 9.55956 8.10588L9.59064 13.6986C9.59286 13.9628 9.81044 14.1759 10.0791 14.1759H10.0813C10.3522 14.1737 10.5697 13.9583 10.5675 13.6941L10.5364 8.1081C11.9552 8.06592 13.2051 7.84168 14.2864 7.43316C14.3241 7.96379 14.3419 8.54326 14.3419 9.196ZM17.6344 4.08732C17.408 3.94079 17.1038 4.00295 16.9573 4.22275C15.6473 6.17431 13.325 7.16452 10.0569 7.16452C6.78431 7.16452 4.45976 6.17209 3.14984 4.21609C3.00109 3.99407 2.69914 3.93413 2.47268 4.07844C2.24622 4.22275 2.18406 4.52248 2.33281 4.74228C2.98111 5.70807 3.84477 6.45627 4.8927 7.0091C4.83719 7.65518 4.80833 8.37008 4.80833 9.19156C4.80833 13.8784 5.70307 17 10.0658 17C14.4285 17 15.321 13.8784 15.321 9.19156C15.321 8.38785 15.2943 7.68848 15.241 7.04907C15.2388 7.03352 15.2322 7.0202 15.2277 7.00466C16.269 6.45405 17.1282 5.70807 17.7743 4.74894C17.923 4.53136 17.8587 4.23385 17.6344 4.08732Z" fill="#86888C"/>
</svg>
