<svg width="20" height="20" viewBox="0 0 20 20" fill="none" xmlns="http://www.w3.org/2000/svg">
<path fill-rule="evenodd" clip-rule="evenodd" d="M12.449 16.4979C12.5173 16.6117 12.6197 16.7756 12.6971 16.8712C12.7585 16.9508 12.82 17.0032 12.8769 17.0259L12.9042 17.0168C12.9019 17.0032 12.9656 16.9508 13.0225 16.878C13.125 16.7506 13.2319 16.5662 13.2934 16.4615L13.3389 16.3864C13.7872 15.5717 14.0581 14.98 14.3949 14.0673C14.6088 13.4984 14.7886 12.9249 14.9456 12.3058C14.9843 12.167 15.023 12.0031 15.0663 11.8234L15.155 11.5457C15.9584 10.1574 16.5251 8.78738 16.8414 7.47422C17.2238 5.86975 16.9279 4.55431 16.0062 3.77142C15.4714 3.3117 14.7363 3.03632 13.9329 2.99535C13.059 2.94756 12.1554 3.16832 11.3157 3.63487C11.0039 3.81011 10.6853 3.9899 10.3348 4.19928C10.2779 4.23341 10.1641 4.30169 10.0002 4.30169C9.82953 4.30169 9.71347 4.23114 9.65885 4.19928C9.30837 3.99217 8.98975 3.81011 8.67796 3.63487C7.83817 3.16832 6.93466 2.94301 6.06301 2.99535C5.25736 3.03632 4.52226 3.3117 3.98972 3.76914C3.06572 4.55431 2.76986 5.86747 3.1522 7.47422C3.46855 8.7851 4.03523 10.1552 4.83861 11.5457L4.89095 11.6754L4.92964 11.837C4.97288 12.0123 5.01157 12.1716 5.04571 12.3013C5.20502 12.9271 5.38481 13.5029 5.59646 14.0651C5.93556 14.98 6.20411 15.5717 6.66611 16.4069L6.70025 16.4638C6.7617 16.5685 6.87094 16.7528 6.96652 16.8735C7.02797 16.9531 7.08942 17.0055 7.14631 17.0282L7.17362 17.0191C7.17135 17.0055 7.23507 16.9531 7.29197 16.8803C7.37162 16.7801 7.47403 16.6186 7.54231 16.5048V16.4979L7.60376 16.3864C7.64245 16.3182 7.75624 16.0132 7.85865 15.7446C8.70982 13.5029 9.24692 12.4356 9.99567 12.4356C10.7467 12.4356 11.2838 13.5029 12.135 15.7446C12.2374 16.0132 12.3512 16.3182 12.3899 16.3864L12.449 16.4979ZM12.911 18H12.8177C12.6903 18 12.5947 17.9681 12.5355 17.9477C12.2874 17.8498 12.0894 17.6973 11.921 17.4834C11.7595 17.2854 11.5774 16.969 11.5273 16.8757L11.4659 16.7415C11.4067 16.6095 11.3293 16.4069 11.2087 16.0883C10.9948 15.5239 10.378 13.9012 9.9934 13.4779C9.60878 13.9012 8.9943 15.5262 8.78037 16.0883C8.66203 16.4024 8.58465 16.6026 8.52548 16.7346L8.51865 16.7665L8.45948 16.8757C8.40941 16.969 8.22734 17.2854 8.0612 17.4879C7.89962 17.695 7.70162 17.8475 7.47859 17.9363C7.39438 17.9659 7.29879 17.9977 7.17817 17.9977H7.08714C6.95969 17.9977 6.86411 17.9659 6.80494 17.9454C6.55687 17.8475 6.35887 17.695 6.19273 17.4811C6.06301 17.3218 5.92874 17.0942 5.84908 16.9577L5.81267 16.8962C5.31198 15.9904 5.0275 15.3668 4.67019 14.4019C4.44716 13.8079 4.25599 13.2002 4.08985 12.5425C4.05572 12.4128 4.01475 12.2444 3.96923 12.0623L3.94647 11.969C3.11352 10.5193 2.52407 9.08096 2.1918 7.69497C1.71842 5.71271 2.12807 4.04907 3.34565 3.01584C4.04206 2.41729 4.98881 2.05998 6.01067 2.00764C7.06211 1.95074 8.15451 2.21246 9.15816 2.77004C9.42899 2.92253 9.70209 3.07728 9.99567 3.25025C10.2984 3.07273 10.5692 2.92025 10.8332 2.77232C11.8368 2.21474 12.9315 1.95074 13.9852 2.00764C15.0048 2.05998 15.9516 2.41729 16.6502 3.01811C17.8655 4.05135 18.2752 5.71271 17.8018 7.69497C17.4695 9.08096 16.8778 10.517 16.0471 11.969L16.0267 12.0487C15.9811 12.2376 15.9402 12.4105 15.9015 12.5494C15.7376 13.1957 15.5487 13.8033 15.3211 14.4042C14.9661 15.3646 14.6816 15.9882 14.1923 16.8735L14.1445 16.9554C14.0649 17.0919 13.9306 17.3172 13.7963 17.4834C13.6347 17.6905 13.4367 17.843 13.2137 17.9317C13.1295 17.9681 13.0316 18 12.911 18Z" fill="#86888C"/>
</svg>
