<svg width="24" height="24" viewBox="0 0 24 24" fill="none" xmlns="http://www.w3.org/2000/svg">
<path fill-rule="evenodd" clip-rule="evenodd" d="M15.0613 20.1224C15.1466 20.2647 15.2747 20.4695 15.3714 20.589C15.4482 20.6885 15.525 20.754 15.5961 20.7824L15.6303 20.771C15.6274 20.754 15.7071 20.6885 15.7782 20.5975C15.9062 20.4382 16.0399 20.2078 16.1167 20.0769L16.1736 19.983C16.734 18.9646 17.0726 18.2249 17.4936 17.0842C17.761 16.373 17.9858 15.6561 18.182 14.8823C18.2304 14.7088 18.2788 14.5039 18.3328 14.2792L18.4438 13.9321C19.448 12.1968 20.1563 10.4842 20.5518 8.84277C21.0297 6.83718 20.6599 5.19288 19.5077 4.21427C18.8392 3.63962 17.9203 3.2954 16.9161 3.24419C15.8237 3.18445 14.6943 3.4604 13.6446 4.04358C13.2548 4.26263 12.8566 4.48737 12.4185 4.74909C12.3473 4.79177 12.2051 4.87711 12.0003 4.87711C11.7869 4.87711 11.6418 4.78892 11.5736 4.74909C11.1355 4.49022 10.7372 4.26263 10.3474 4.04358C9.29771 3.4604 8.16832 3.17876 7.07876 3.24419C6.0717 3.2954 5.15283 3.63962 4.48714 4.21143C3.33215 5.19288 2.96233 6.83434 3.44026 8.84277C3.83568 10.4814 4.54404 12.194 5.54826 13.9321L5.61369 14.0943L5.66205 14.2963C5.7161 14.5153 5.76446 14.7145 5.80713 14.8766C6.00627 15.6589 6.23101 16.3787 6.49558 17.0813C6.91945 18.2249 7.25514 18.9646 7.83264 20.0086L7.87531 20.0798C7.95212 20.2106 8.08867 20.441 8.20815 20.5918C8.28496 20.6914 8.36177 20.7568 8.43289 20.7853L8.46703 20.7739C8.46418 20.7568 8.54384 20.6914 8.61496 20.6004C8.71453 20.4752 8.84254 20.2732 8.92789 20.131V20.1224L9.0047 19.983C9.05306 19.8977 9.1953 19.5165 9.32332 19.1808C10.3873 16.3787 11.0586 15.0444 11.9946 15.0444C12.9334 15.0444 13.6047 16.3787 14.6687 19.1808C14.7967 19.5165 14.939 19.8977 14.9873 19.983L15.0613 20.1224ZM15.6388 22H15.5221C15.3628 22 15.2434 21.9602 15.1694 21.9346C14.8593 21.8122 14.6118 21.6216 14.4013 21.3542C14.1993 21.1067 13.9717 20.7113 13.9091 20.5947L13.8323 20.4268C13.7584 20.2618 13.6616 20.0086 13.5109 19.6104C13.2435 18.9049 12.4725 16.8765 11.9917 16.3474C11.511 16.8765 10.7429 18.9077 10.4755 19.6104C10.3275 20.0029 10.2308 20.2533 10.1568 20.4183L10.1483 20.4581L10.0743 20.5947C10.0118 20.7113 9.78417 21.1067 9.5765 21.3599C9.37452 21.6188 9.12702 21.8094 8.84823 21.9203C8.74298 21.9573 8.62349 21.9972 8.47272 21.9972H8.35893C8.19962 21.9972 8.08013 21.9573 8.00617 21.9317C7.69609 21.8094 7.44859 21.6188 7.24092 21.3514C7.07876 21.1522 6.91092 20.8678 6.81135 20.6971L6.76583 20.6203C6.13998 19.488 5.78438 18.7086 5.33774 17.5024C5.05895 16.7599 4.81999 16.0003 4.61232 15.1782C4.56964 15.016 4.51844 14.8055 4.46154 14.5779L4.43309 14.4613C3.39189 12.6491 2.65509 10.8512 2.23975 9.11872C1.64803 6.64089 2.16009 4.56134 3.68206 3.26979C4.55258 2.52161 5.73601 2.07498 7.01333 2.00955C8.32763 1.93843 9.69314 2.26558 10.9477 2.96256C11.2862 3.15316 11.6276 3.3466 11.9946 3.56281C12.3729 3.34091 12.7115 3.15031 13.0415 2.9654C14.296 2.26842 15.6644 1.93843 16.9815 2.00955C18.256 2.07498 19.4394 2.52161 20.3128 3.27264C21.8319 4.56418 22.344 6.64089 21.7523 9.11872C21.3369 10.8512 20.5973 12.6463 19.5589 14.4613L19.5333 14.5608C19.4764 14.7969 19.4252 15.0132 19.3769 15.1867C19.172 15.9946 18.9359 16.7542 18.6514 17.5052C18.2076 18.7057 17.852 19.4852 17.2404 20.5918L17.1807 20.6942C17.0811 20.8649 16.9133 21.1466 16.7454 21.3542C16.5434 21.6131 16.2959 21.8037 16.0171 21.9147C15.9119 21.9602 15.7896 22 15.6388 22Z" fill="#86888C"/>
</svg>
