<svg width="40" height="40" viewBox="0 0 40 40" fill="none" xmlns="http://www.w3.org/2000/svg">
<path fill-rule="evenodd" clip-rule="evenodd" d="M11.5924 26.4749C11.782 26.4749 11.9817 26.4954 12.1917 26.5466C13.0728 26.7618 14.4968 27.5711 14.0716 30.583C13.9231 31.6484 13.9948 32.5909 14.2867 33.3797C14.5838 34.189 15.0243 34.7269 15.5878 34.9728C19.3731 36.6324 24.5927 35.4645 29.2027 31.925C32.5629 29.328 34.7399 25.7937 35.3443 21.9674C35.3597 21.8803 35.3802 21.7932 35.416 21.7112C35.5133 21.322 35.5953 20.9173 35.6465 20.5075C36.3688 15.0062 32.3376 13.7308 30.5704 13.4388C30.4116 13.4234 30.1401 13.3825 29.8942 13.3466C29.6484 13.3159 29.0696 13.2647 28.3985 13.321C28.0656 13.3415 27.7531 13.2339 27.5226 13.0085C26.9694 12.4758 26.4879 11.8407 26.0987 11.1184C25.0742 9.23344 24.8437 7.05137 25.443 4.97685C25.4532 4.941 25.4686 4.90002 25.4789 4.86417C25.4942 4.81294 25.5147 4.70538 25.484 4.64391C25.4532 4.57732 25.3201 4.46975 25.0435 4.37243C24.8386 4.30584 24.2085 4.09071 23.978 4.63366C23.2865 7.00527 23.5631 9.59712 24.7822 11.8407C24.9922 12.23 25.233 12.5988 25.4891 12.9522C25.8477 13.4388 25.7606 14.1201 25.2996 14.5094C24.2239 15.4058 23.5529 16.84 23.2917 18.7711C23.2353 19.1245 23.2097 19.4421 23.2097 19.7187C23.2097 19.7853 23.2046 19.8519 23.1943 19.9133C23.1329 20.277 23.2046 20.7841 23.2712 21.281C23.4095 22.2849 23.5887 23.5296 22.7282 24.4926C22.006 25.2968 20.7664 25.6298 18.8302 25.5581C18.7226 25.5529 18.615 25.5324 18.5126 25.4966C18.2565 25.4095 17.9645 25.3276 17.6469 25.2405C16.5508 24.9997 14.8246 24.7539 13.836 24.7948C13.7899 24.8 13.7438 24.7948 13.6977 24.7948C13.6721 24.8 13.6465 24.7948 13.6208 24.7948C12.1405 24.7078 10.6448 25.0049 9.25669 25.6451C6.94656 26.7157 5.19475 28.6263 4.31372 31.0235C4.16005 31.4333 4.47251 31.6126 4.62106 31.6996C5.07181 31.9609 5.3228 32.0018 5.8504 31.2745C6.02968 31.0286 6.20383 30.7776 6.37799 30.5266C7.28975 29.2205 8.22712 27.8682 9.83551 27.0435L10.0148 26.9513C10.3887 26.7618 10.9163 26.4749 11.5924 26.4749ZM19.327 38C17.6777 38 16.1051 37.6978 14.6914 37.0729C13.5543 36.5709 12.6835 35.5721 12.1713 34.1839C11.7461 33.0314 11.6334 31.715 11.8332 30.2654C11.9459 29.4356 11.8793 28.8209 11.6693 28.7697C11.5515 28.7441 11.4593 28.7748 11.1007 28.9746L10.8702 29.0975C9.76892 29.6661 9.05692 30.6803 8.23736 31.8533C8.05809 32.1145 7.87369 32.3758 7.68416 32.637C6.13212 34.7781 4.38543 34.2147 3.48904 33.6973C1.82943 32.7343 1.81919 31.0645 2.2136 30.1732C3.2739 27.274 5.45086 24.9075 8.3142 23.5809C10.0302 22.792 11.9049 22.4284 13.7335 22.5257H13.7694C15.0397 22.4796 16.9196 22.7562 18.1848 23.0379C18.528 23.1301 18.8148 23.2069 19.0709 23.2889C20.6844 23.335 21.0071 23.0123 21.043 22.9713C21.1915 22.8023 21.0942 22.1159 21.0225 21.6139C20.9354 21.0095 20.8381 20.3231 20.9354 19.6367C20.9405 19.2731 20.9815 18.8684 21.043 18.4535C21.3145 16.3944 22.006 14.7296 23.097 13.49C22.9843 13.3108 22.8819 13.1366 22.7846 12.9573C21.2735 10.1708 20.9354 6.95917 21.8267 3.91655C22.2211 2.78965 23.5734 1.46811 25.7657 2.22108C26.8619 2.59501 27.3434 3.25066 27.5534 3.73727C27.9273 4.59269 27.7019 5.38151 27.5995 5.67348C27.1846 7.14869 27.3536 8.69561 28.081 10.0325C28.2807 10.3962 28.5061 10.7291 28.7571 11.0211C29.3462 11.0057 29.843 11.0467 30.1965 11.0877C30.4372 11.1236 30.6626 11.1594 30.8521 11.1799C34.8167 11.8304 38.6891 14.6989 37.8849 20.8097C37.8132 21.3578 37.7057 21.9059 37.5674 22.4232C37.5622 22.4386 37.5622 22.4488 37.5571 22.4642C36.8349 26.8181 34.3608 30.8186 30.5755 33.7434C26.9643 36.5299 22.9536 38 19.327 38Z" fill="#86888C"/>
</svg>
