<svg width="28" height="28" viewBox="0 0 28 28" fill="none" xmlns="http://www.w3.org/2000/svg">
<path fill-rule="evenodd" clip-rule="evenodd" d="M13.9988 19.6073C14.4624 19.6073 14.9191 19.7814 15.2668 20.1332L19.5888 24.4599C19.6263 24.4838 19.7285 24.4462 19.7797 24.4189C19.8683 24.3779 19.9262 24.2891 19.9228 24.1901V3.80307C19.9228 3.66306 19.8138 3.55037 19.674 3.54695H8.29632C8.15657 3.54695 8.04409 3.65623 8.04409 3.79624V24.1901C8.04409 24.3267 8.13271 24.395 8.18725 24.4189C8.24178 24.4462 8.34745 24.4804 8.45311 24.395L12.7206 20.1298C13.0649 19.7951 13.5216 19.6073 13.9988 19.6073ZM19.6672 26C19.282 26 18.9003 25.8736 18.5765 25.6244L14.176 21.2294C14.0738 21.1269 13.9136 21.1303 13.8079 21.2362L9.46885 25.5595C8.8485 26.0444 8.12248 26.1161 7.50213 25.8088C6.88519 25.5048 6.49661 24.8765 6.50002 24.1901V3.80307C6.50002 2.80933 7.30444 2 8.29632 2H19.674C20.6625 2 21.4703 2.80933 21.4703 3.80649V24.1901C21.4703 24.8833 21.0851 25.5014 20.4648 25.8088C20.2091 25.9385 19.9399 26 19.6672 26Z" fill="#86888C"/>
</svg>
