<svg width="40" height="40" viewBox="0 0 40 40" fill="none" xmlns="http://www.w3.org/2000/svg">
<path fill-rule="evenodd" clip-rule="evenodd" d="M20.2482 28.4109C20.9435 28.4109 21.6286 28.6722 22.1502 29.1998L28.6332 35.6898C28.6894 35.7257 28.8428 35.6693 28.9195 35.6283C29.0524 35.5669 29.1393 35.4337 29.1342 35.2851V4.70461C29.1342 4.49459 28.9706 4.32555 28.761 4.32043H11.6945C11.4849 4.32043 11.3161 4.48435 11.3161 4.69437V35.2851C11.3161 35.49 11.4491 35.5925 11.5309 35.6283C11.6127 35.6693 11.7712 35.7205 11.9297 35.5925L18.3309 29.1947C18.8473 28.6927 19.5324 28.4109 20.2482 28.4109ZM28.7508 38C28.173 38 27.6004 37.8105 27.1147 37.4365L20.5141 30.8441C20.3607 30.6904 20.1204 30.6955 19.9619 30.8543L13.4533 37.3392C12.5228 38.0666 11.4337 38.1742 10.5032 37.7131C9.57778 37.2573 8.99492 36.3147 9.00003 35.2851V4.70461C9.00003 3.214 10.2067 2 11.6945 2H28.761C30.2437 2 31.4554 3.214 31.4554 4.70973V35.2851C31.4554 36.325 30.8777 37.2521 29.9472 37.7131C29.5637 37.9078 29.1598 38 28.7508 38Z" fill="#86888C"/>
</svg>
