<svg width="40" height="40" viewBox="0 0 40 40" fill="none" xmlns="http://www.w3.org/2000/svg">
<path fill-rule="evenodd" clip-rule="evenodd" d="M35.3368 35.0215C35.3368 35.4568 35.0141 35.841 34.6453 35.841H5.32907C4.96031 35.841 4.64277 35.4568 4.64277 35.0215V14.0894C4.64277 13.654 4.96031 13.2699 5.32907 13.2699H14.5531V17.7718C14.5531 18.3915 15.1472 18.8935 15.8796 18.8935H23.5211C24.2535 18.8935 24.8476 18.3915 24.8476 17.7718L24.8425 13.2699H34.6453C35.0141 13.2699 35.3368 13.654 35.3368 14.0894V35.0215ZM7.19334 4.92163C7.21895 4.83456 7.22919 4.7475 7.22919 4.66043C7.22919 4.48629 7.39821 4.34289 7.60819 4.34289H15.3982L14.6914 11.0266H5.47247L7.19334 4.92163ZM22.1997 13.2699V16.6451H17.2061V13.2699H22.1997ZM21.1805 4.34801L22.0307 11.0215H17.3444L18.0512 4.34801H21.1805ZM32.7554 4.66043C32.7554 4.75262 32.7657 4.83969 32.7964 4.92675L34.5634 11.0215H24.694L23.8489 4.33777H32.3764C32.5864 4.34289 32.7554 4.48117 32.7554 4.66043ZM37.9334 13.5874C37.9539 13.4492 37.9539 13.3109 37.9129 13.1675L35.4033 4.50678C35.306 3.16491 33.9898 2.09961 32.3816 2.09961H7.60819C5.99488 2.09961 4.6735 3.17003 4.58643 4.5119L2.14853 13.1777C2.14341 13.2033 2.14853 13.2238 2.14341 13.2494C2.05634 13.5209 2 13.8026 2 14.0996V35.0317C2 36.7219 3.49552 38.0996 5.33931 38.0996H34.6556C36.4994 38.0996 37.9949 36.7219 37.9949 35.0317V14.0996C37.9898 13.9152 37.9641 13.7513 37.9334 13.5874Z" fill="#86888C"/>
</svg>
