<svg width="28" height="28" viewBox="0 0 28 28" fill="none" xmlns="http://www.w3.org/2000/svg">
<path fill-rule="evenodd" clip-rule="evenodd" d="M24.2245 24.0475C24.2245 24.3378 24.0094 24.5938 23.7635 24.5938H4.21938C3.97354 24.5938 3.76184 24.3378 3.76184 24.0475V10.0928C3.76184 9.80255 3.97354 9.54647 4.21938 9.54647H10.3688V12.5478C10.3688 12.9609 10.7648 13.2955 11.2531 13.2955H16.3474C16.8357 13.2955 17.2318 12.9609 17.2318 12.5478L17.2283 9.54647H23.7635C24.0094 9.54647 24.2245 9.80255 24.2245 10.0928V24.0475ZM5.46223 3.98096C5.4793 3.92291 5.48613 3.86487 5.48613 3.80682C5.48613 3.69073 5.5988 3.59513 5.7388 3.59513H10.9321L10.4609 8.05095H4.31498L5.46223 3.98096ZM15.4665 9.54647V11.7966H12.1374V9.54647H15.4665ZM14.787 3.59854L15.3538 8.04754H12.2296L12.7008 3.59854H14.787ZM22.5036 3.80682C22.5036 3.86828 22.5105 3.92633 22.5309 3.98437L23.7089 8.04754H17.1293L16.5659 3.59171H22.251C22.391 3.59513 22.5036 3.68732 22.5036 3.80682ZM25.9556 9.75817C25.9693 9.66598 25.9693 9.57379 25.942 9.47818L24.2689 3.70439C24.204 2.80981 23.3265 2.09961 22.2544 2.09961H5.7388C4.66325 2.09961 3.78233 2.81322 3.72428 3.7078L2.09902 9.48501C2.0956 9.50208 2.09902 9.51574 2.0956 9.53281C2.03756 9.71378 2 9.90157 2 10.0996V24.0544C2 25.1811 2.99701 26.0996 4.22621 26.0996H23.7704C24.9996 26.0996 25.9966 25.1811 25.9966 24.0544V10.0996C25.9932 9.97669 25.9761 9.86743 25.9556 9.75817Z" fill="#86888C"/>
</svg>
