<svg width="20" height="20" viewBox="0 0 20 20" fill="none" xmlns="http://www.w3.org/2000/svg">
<path fill-rule="evenodd" clip-rule="evenodd" d="M10.6422 14.6683C10.8484 14.4646 11.1814 14.4646 11.3851 14.6683C11.5913 14.872 11.5913 15.2025 11.3851 15.4037C10.8832 15.8981 10.3416 16.1565 9.77267 16.164H9.74037C9.16397 16.164 8.60994 15.9081 8.09814 15.4012C7.89193 15.1975 7.89193 14.8696 8.09814 14.6658C8.30435 14.4621 8.63727 14.4621 8.84099 14.6658C9.15404 14.9764 9.4646 15.1255 9.75528 15.1255C10.0435 15.1205 10.3416 14.9665 10.6422 14.6683ZM16.5752 13.6646C17.1267 13.6571 17.4075 13.359 17.4075 12.7801C17.4075 12.2062 17.1342 11.9155 16.595 11.9056L16.5602 12.2137C16.5578 12.2932 16.5478 12.3553 16.5453 12.4348C16.523 12.8025 16.4832 13.2224 16.4112 13.6596C16.4311 13.6596 16.446 13.6621 16.4584 13.6621L16.5752 13.6646ZM15.5441 10.6634V9.91056C15.5391 9.88075 15.5342 9.85093 15.5342 9.81863C15.5317 9.72422 15.5242 9.64224 15.5217 9.55031H3.88447L3.87702 11.4186C3.88447 11.4484 3.88696 11.4783 3.88696 11.5081C3.98882 15.3292 4.98012 16.9615 7.19627 16.9615C7.3354 16.9615 7.46708 16.954 7.59379 16.9466L11.7975 16.9441C12.1205 16.964 12.3665 16.964 12.6248 16.9466H12.7143C12.7391 16.9416 12.764 16.9366 12.7888 16.9342C13.9093 16.8224 15.4124 16.1366 15.5342 11.5106C15.5342 11.4783 15.5366 11.4484 15.5441 11.4186V10.6634ZM7.19627 4.3677C4.96025 4.3677 4.0882 5.42857 3.91429 8.5118H6.24472C6.38882 6.97143 6.9205 5.74161 7.84472 4.85714C8.00124 4.70807 8.17019 4.57391 8.34658 4.44472C8.04845 4.40994 7.74534 4.37516 7.41739 4.37516L7.19627 4.3677ZM9.85217 4.81739C9.36522 5.01615 8.92795 5.26708 8.57515 5.60248C7.85714 6.29068 7.43478 7.26708 7.30062 8.50932H12.4012C12.2671 7.26708 11.8447 6.2882 11.1267 5.60248C10.7764 5.26708 10.3391 5.01615 9.85217 4.81739ZM12.2571 4.37267C11.9292 4.37267 11.6559 4.40994 11.3578 4.44472C11.5342 4.57391 11.7031 4.70807 11.8571 4.85714C12.7814 5.74161 13.3155 6.97143 13.4571 8.5118H15.4472C15.0969 5.06832 13.7901 4.49938 12.7863 4.39752L12.6571 4.38509C12.518 4.37516 12.4012 4.37267 12.2845 4.37267H12.2571ZM2.99752 13.6646C3.00248 13.6646 3.00994 13.6621 3.01491 13.6621C2.95279 13.2547 2.90807 12.8472 2.88075 12.4447C2.88075 12.3602 2.86584 12.3081 2.86584 12.2261L2.82857 11.9106C2.31925 11.9329 2.05342 12.2211 2.05342 12.7801C2.05342 13.359 2.33168 13.6571 2.88571 13.6646H2.99752ZM16.6 10.8621C17.4596 10.8696 18.4609 11.3764 18.4609 12.7776C18.4609 14.1789 17.4547 14.6907 16.5901 14.7031H16.4435C16.3863 14.7031 16.3068 14.6981 16.2099 14.6857C16.205 14.6857 16.2025 14.6832 16.1975 14.6807C15.7851 16.2062 14.913 17.6919 13.0348 17.9478C12.9776 17.9702 12.9155 17.9826 12.8509 17.9826H12.6596C12.5429 17.9925 12.3888 18 12.2273 18C12.0658 18 11.9143 17.9901 11.7652 17.9826H7.63106C7.51429 17.9925 7.36025 18 7.19627 18C4.80124 18 3.7205 16.4944 3.23106 14.6857C3.14161 14.6957 3.06708 14.7006 3.01491 14.7006H2.86832C2.00621 14.6882 1 14.1764 1 12.7752C1 11.3913 1.97888 10.882 2.82857 10.8621L2.83354 9.54783H1.52671C1.23602 9.54783 1 9.31429 1 9.02857C1 8.74037 1.23602 8.50932 1.52671 8.50932H2.85839C3.00745 5.7441 3.74534 3.32671 7.19627 3.32671C7.36025 3.32671 7.51429 3.33416 7.66584 3.34658H8.91801C8.86335 3.21988 8.82609 3.07826 8.82609 2.90435C8.82609 2.6087 8.90807 2.37764 9.06956 2.2236C9.22609 2.07453 9.45217 2 9.74037 2C10.0286 2 10.2547 2.07453 10.4112 2.2236C10.5727 2.38012 10.6571 2.6087 10.6571 2.90435C10.6571 3.07578 10.6224 3.21988 10.5677 3.34658H11.7975C12.0286 3.32919 12.3938 3.32919 12.6969 3.34907L12.8559 3.35901C12.923 3.36646 12.9801 3.37391 13.0447 3.38385C15.8919 3.77888 16.4559 6.99876 16.5776 8.89193C16.5801 8.97143 16.5925 9.03106 16.6 9.11801L16.5975 10.6708L16.6 10.8621ZM8.13789 12.7528C8.13789 13.041 7.90186 13.272 7.61118 13.272C7.3205 13.272 7.08447 13.0385 7.08447 12.7528V11.128C7.08447 10.8398 7.3205 10.6087 7.61118 10.6087C7.90186 10.6087 8.13789 10.8422 8.13789 11.128V12.7528ZM11.805 10.6087C12.0957 10.6087 12.3317 10.8422 12.3317 11.128V12.7528C12.3317 13.041 12.0957 13.272 11.805 13.272C11.5143 13.272 11.2783 13.0385 11.2783 12.7528V11.128C11.2783 10.8422 11.5143 10.6087 11.805 10.6087Z" fill="#86888C"/>
</svg>
