<svg width="20" height="20" viewBox="0 0 20 20" fill="none" xmlns="http://www.w3.org/2000/svg">
<path fill-rule="evenodd" clip-rule="evenodd" d="M17.0006 10.2322C15.6483 11.2248 13.5014 11.6756 10.0615 11.6756C6.535 11.6756 4.34718 11.1998 3.00171 10.1389V7.27262C3.00171 7.17245 3.08822 7.0905 3.18839 7.0905H16.8207C16.9209 7.0905 17.0006 7.17245 17.0006 7.27262V10.2322ZM9.52647 13.6016H10.4804V12.6818H9.52647V13.6016ZM17.0006 16.8048C17.0006 16.9118 16.9209 16.9915 16.8207 16.9915H3.18611C3.08594 16.9915 2.99943 16.9118 2.99943 16.8048V11.3591C4.28571 12.1241 6.02504 12.5339 8.52476 12.6477V13.7814C8.52476 14.0637 8.65225 14.2982 8.87308 14.4462C9.03927 14.5532 9.25327 14.6079 9.51281 14.6079H10.4849C10.7513 14.6079 10.9585 14.5532 11.1246 14.4462C11.3523 14.2982 11.4775 14.0637 11.4775 13.7814V12.6522C13.9636 12.5521 15.7052 12.1628 16.9983 11.4229V16.8048H17.0006ZM6.9926 5.79283C6.9926 4.26295 8.31303 3.00626 9.92715 3.00626H10.0797C11.6938 3.00626 13.0074 4.26295 13.0074 5.79283V6.08196H6.9926V5.79283ZM16.8184 6.08196H14.0068V5.79283C14.0068 3.70518 12.247 2 10.0797 2H9.92715C7.75982 2 5.99317 3.70518 5.99317 5.79283V6.08196H3.18611C2.53273 6.08196 2 6.61241 2 7.27035V16.8048C2 17.4627 2.53273 18 3.18611 18H16.8184C17.4718 18 18 17.465 18 16.8048V7.27035C18 6.61241 17.4741 6.08196 16.8184 6.08196Z" fill="#86888C"/>
</svg>
