<svg width="40" height="40" viewBox="0 0 40 40" fill="none" xmlns="http://www.w3.org/2000/svg">
<path fill-rule="evenodd" clip-rule="evenodd" d="M18.0015 34.9062C24.3751 34.9062 26.3169 32.3394 26.3169 23.9164C26.3169 18.6444 25.5022 15.7701 23.5963 14.3202C22.3616 13.3775 20.5325 12.9215 18.0015 12.9215C15.45 12.9215 13.6056 13.3877 12.3708 14.3458C10.4854 15.806 9.68612 18.6649 9.68612 23.9164C9.68612 32.3394 11.6279 34.9062 18.0015 34.9062ZM18.0169 6.94751C13.001 6.94751 12.1198 8.04393 12.1198 10.3495C12.1198 10.9592 12.1966 11.41 12.3145 11.7636C13.8003 11.0309 15.6754 10.6723 18.0015 10.6723C20.3378 10.6723 22.213 11.0412 23.6988 11.7738C23.8166 11.4254 23.9088 10.9848 23.9088 10.3546C23.914 8.04393 23.0327 6.94751 18.0169 6.94751ZM31.8912 21.3393C32.506 21.3393 33.003 21.8465 33.003 22.4665V25.4739C33.003 26.0939 32.506 26.6011 31.8912 26.6011C31.2764 26.6011 30.7794 26.0939 30.7794 25.4739V23.5936H28.5405C28.5405 23.7064 28.5456 23.8037 28.5456 23.9164C28.5456 26.8163 28.315 29.3165 27.6336 31.3454L31.2456 32.4572C31.7375 32.6109 32.0603 33.0772 32.0347 33.5946L31.7939 38.1238C31.7631 38.7232 31.2713 39.1895 30.6821 39.1895H30.6206C30.0058 39.1536 29.5344 38.6259 29.5651 38.0059L29.7598 34.358L26.6755 33.4102C25.1538 35.8182 22.505 37.1606 17.9964 37.1606C13.4724 37.1606 10.8235 35.808 9.30698 33.3897L6.15093 34.358L6.34562 38.0059C6.38148 38.6259 5.905 39.1587 5.29019 39.1895H5.22871C4.64463 39.1895 4.15278 38.7232 4.11691 38.1238L3.87611 33.5946C3.85049 33.0772 4.17327 32.6058 4.66512 32.4572L8.35402 31.3249C7.68284 29.3012 7.45229 26.806 7.45229 23.9164C7.45229 23.8088 7.45741 23.6961 7.45741 23.5936H5.22358V25.4739C5.22358 26.0939 4.72661 26.6011 4.11179 26.6011C3.49698 26.6011 3 26.0939 3 25.4739V22.4665C3 21.8465 3.49698 21.3393 4.11179 21.3393H7.53426C7.67772 18.9876 8.07735 16.6667 9.11229 14.812L4.67025 13.4492C4.1784 13.2955 3.85562 12.8292 3.88124 12.3118L4.12204 7.78264C4.1579 7.1627 4.68562 6.67597 5.29531 6.71696C5.91013 6.75282 6.38148 7.28054 6.35074 7.90048L6.15605 11.5484L10.3368 12.8344C10.0448 12.1325 9.89106 11.3178 9.89106 10.3546C9.89106 6.99362 11.6791 5.59492 14.1384 5.03646C13.7695 4.59584 13.7798 3.94004 14.1896 3.51992C14.6251 3.0793 15.327 3.0793 15.7625 3.51992L16.9409 4.71368C17.2945 4.69831 17.6531 4.69319 18.0117 4.69319C18.3601 4.69319 18.7034 4.69831 19.0416 4.71368L20.22 3.51992C20.6554 3.0793 21.3625 3.0793 21.798 3.51992C22.2079 3.93492 22.2181 4.5856 21.8543 5.02621C24.3341 5.57442 26.1376 6.97313 26.1376 10.3495C26.1376 11.2922 25.989 12.0966 25.7072 12.7883L29.7598 11.5433L29.5651 7.89535C29.5344 7.27541 30.0058 6.74257 30.6206 6.71183C31.2098 6.66572 31.7631 7.15757 31.7939 7.77751L32.0347 12.3067C32.0654 12.8241 31.7375 13.2955 31.2456 13.4441L26.8753 14.7864C27.7719 16.3644 28.2843 18.4702 28.4585 21.3393H31.8912ZM17.8837 15.3141C18.4985 15.3141 18.9954 15.8213 18.9954 16.4413V30.9509C18.9954 31.5709 18.4985 32.0781 17.8837 32.0781C17.2688 32.0781 16.7719 31.5709 16.7719 30.9509V16.4413C16.7667 15.8213 17.2688 15.3141 17.8837 15.3141Z" fill="#86888C"/>
</svg>
