<svg width="28" height="28" viewBox="0 0 28 28" fill="none" xmlns="http://www.w3.org/2000/svg">
<path fill-rule="evenodd" clip-rule="evenodd" d="M13.001 23.334C17.2501 23.334 18.5446 21.6227 18.5446 16.0074C18.5446 12.4927 18.0015 10.5766 16.7309 9.60993C15.9077 8.98145 14.6883 8.67746 13.001 8.67746C11.3 8.67746 10.0704 8.98829 9.24721 9.62701C7.99025 10.6005 7.45741 12.5064 7.45741 16.0074C7.45741 21.6227 8.75194 23.334 13.001 23.334ZM13.0112 4.69483C9.66733 4.69483 9.07984 5.42577 9.07984 6.96281C9.07984 7.36927 9.13107 7.66985 9.20963 7.90553C10.2002 7.41709 11.4503 7.178 13.001 7.178C14.5585 7.178 15.8087 7.42392 16.7992 7.91236C16.8777 7.6801 16.9392 7.38635 16.9392 6.96623C16.9426 5.42577 16.3552 4.69483 13.0112 4.69483ZM22.2608 14.2894C22.6707 14.2894 23.002 14.6275 23.002 15.0408V17.0458C23.002 17.4591 22.6707 17.7972 22.2608 17.7972C21.8509 17.7972 21.5196 17.4591 21.5196 17.0458V15.7922H20.027C20.027 15.8674 20.0304 15.9323 20.0304 16.0074C20.0304 17.9407 19.8767 19.6075 19.4224 20.9601L21.8304 21.7013C22.1583 21.8038 22.3735 22.1146 22.3564 22.4596L22.1959 25.479C22.1754 25.8786 21.8475 26.1895 21.4547 26.1895H21.4137C21.0038 26.1655 20.6896 25.8137 20.7101 25.4004L20.8399 22.9685L18.7837 22.3366C17.7692 23.942 16.0033 24.8369 12.9976 24.8369C9.98157 24.8369 8.21568 23.9351 7.20465 22.3229L5.10062 22.9685L5.23041 25.4004C5.25432 25.8137 4.93667 26.169 4.52679 26.1895H4.4858C4.09642 26.1895 3.76852 25.8786 3.74461 25.479L3.58407 22.4596C3.567 22.1146 3.78218 21.8004 4.11008 21.7013L6.56934 20.9464C6.1219 19.5973 5.96819 17.9339 5.96819 16.0074C5.96819 15.9357 5.97161 15.8606 5.97161 15.7922H4.48239V17.0458C4.48239 17.4591 4.15107 17.7972 3.74119 17.7972C3.33132 17.7972 3 17.4591 3 17.0458V15.0408C3 14.6275 3.33132 14.2894 3.74119 14.2894H6.02284C6.11848 12.7216 6.3849 11.1743 7.07486 9.93783L4.1135 9.02927C3.7856 8.9268 3.57041 8.61598 3.58749 8.271L3.74803 5.25157C3.77193 4.83828 4.12375 4.5138 4.53021 4.54112C4.94008 4.56503 5.25432 4.91684 5.23383 5.33013L5.10403 7.76207L7.8912 8.6194C7.69651 8.15145 7.59404 7.60837 7.59404 6.96623C7.59404 4.72557 8.7861 3.7931 10.4256 3.42079C10.1797 3.12705 10.1865 2.68984 10.4598 2.40976C10.7501 2.11602 11.218 2.11602 11.5084 2.40976L12.294 3.20561C12.5296 3.19536 12.7687 3.19194 13.0078 3.19194C13.2401 3.19194 13.4689 3.19536 13.6944 3.20561L14.48 2.40976C14.7703 2.11602 15.2417 2.11602 15.532 2.40976C15.8052 2.68643 15.8121 3.12022 15.5696 3.41396C17.2227 3.77943 18.425 4.7119 18.425 6.96281C18.425 7.59129 18.326 8.12754 18.1381 8.58866L20.8399 7.75866L20.7101 5.32672C20.6896 4.91343 21.0038 4.5582 21.4137 4.53771C21.8065 4.50697 22.1754 4.83487 22.1959 5.24816L22.3564 8.26759C22.3769 8.61257 22.1583 8.9268 21.8304 9.02586L18.9169 9.92076C19.5146 10.9728 19.8562 12.3766 19.9723 14.2894H22.2608ZM12.9224 10.2726C13.3323 10.2726 13.6636 10.6107 13.6636 11.024V20.6971C13.6636 21.1104 13.3323 21.4485 12.9224 21.4485C12.5126 21.4485 12.1812 21.1104 12.1812 20.6971V11.024C12.1778 10.6107 12.5126 10.2726 12.9224 10.2726Z" fill="#86888C"/>
</svg>
