<svg width="40" height="40" viewBox="0 0 40 40" fill="none" xmlns="http://www.w3.org/2000/svg">
<path fill-rule="evenodd" clip-rule="evenodd" d="M16.3753 35.8967V27.8637C16.3753 27.254 16.862 26.7622 17.4562 26.7622H23.5425C24.1419 26.7622 24.6235 27.254 24.6235 27.8637V35.8916H31.473C31.6523 35.8916 31.8316 35.6866 31.8316 35.5739V4.61505C31.8214 4.50746 31.6062 4.29742 31.473 4.29742H9.52056C9.38224 4.29742 9.16707 4.50234 9.16195 4.61505V35.5739C9.16195 35.6866 9.34638 35.8916 9.52056 35.8916L16.3753 35.8967ZM31.4782 38.0996H9.52569C8.17831 38.0996 7 36.9213 7 35.579V4.62017C7 3.29841 8.20393 2.09961 9.52569 2.09961H31.4782C32.7999 2.09961 34.0038 3.30354 34.0038 4.62017V35.579C33.9987 36.9213 32.8204 38.0996 31.4782 38.0996ZM18.5423 35.8403H22.4615V28.9651H18.5423V35.8403ZM14.6846 11.439H17.1284V8.95431H14.6846V11.439ZM18.2145 13.6419H13.6037C13.0043 13.6419 12.5227 13.1501 12.5227 12.5405V7.85285C12.5227 7.2432 13.0094 6.75138 13.6037 6.75138H18.2145C18.8139 6.75138 19.2954 7.2432 19.2954 7.85285V12.5405C19.2954 13.1501 18.8087 13.6419 18.2145 13.6419ZM23.7935 11.439H26.2372V8.95431H23.7935V11.439ZM27.3233 13.6419H22.7125C22.1131 13.6419 21.6316 13.1501 21.6316 12.5405V7.85285C21.6316 7.2432 22.1183 6.75138 22.7125 6.75138H27.3233C27.9227 6.75138 28.4043 7.2432 28.4043 7.85285V12.5405C28.4043 13.1501 27.9176 13.6419 27.3233 13.6419ZM14.6846 20.6401H17.1284V18.1554H14.6846V20.6401ZM18.2145 22.843H13.6037C13.0043 22.843 12.5227 22.3512 12.5227 21.7416V17.0539C12.5227 16.4443 13.0094 15.9525 13.6037 15.9525H18.2145C18.8139 15.9525 19.2954 16.4443 19.2954 17.0539V21.7416C19.2954 22.3512 18.8087 22.843 18.2145 22.843ZM23.7935 20.6401H26.2372V18.1554H23.7935V20.6401ZM27.3233 22.843H22.7125C22.1131 22.843 21.6316 22.3512 21.6316 21.7416V17.0539C21.6316 16.4443 22.1183 15.9525 22.7125 15.9525H27.3233C27.9227 15.9525 28.4043 16.4443 28.4043 17.0539V21.7416C28.4043 22.3512 27.9176 22.843 27.3233 22.843Z" fill="#86888C"/>
</svg>
