<svg width="20" height="20" viewBox="0 0 20 20" fill="none" xmlns="http://www.w3.org/2000/svg">
<path fill-rule="evenodd" clip-rule="evenodd" d="M8.16679 17.1205V13.5503C8.16679 13.2793 8.38309 13.0608 8.64722 13.0608H11.3522C11.6186 13.0608 11.8326 13.2793 11.8326 13.5503V17.1183H14.8769C14.9566 17.1183 15.0363 17.0272 15.0363 16.9771V3.21758C15.0317 3.16977 14.9361 3.07641 14.8769 3.07641H5.12025C5.05877 3.07641 4.96314 3.16749 4.96087 3.21758V16.9771C4.96087 17.0272 5.04283 17.1183 5.12025 17.1183L8.16679 17.1205ZM14.8792 18.0996H5.12253C4.52369 18.0996 4 17.5759 4 16.9794V3.21986C4 2.63241 4.53508 2.09961 5.12253 2.09961H14.8792C15.4666 2.09961 16.0017 2.63469 16.0017 3.21986V16.9794C15.9994 17.5759 15.4757 18.0996 14.8792 18.0996ZM9.12993 17.0955H10.8718V14.0398H9.12993V17.0955ZM7.4154 6.25046H8.50149V5.14614H7.4154V6.25046ZM8.9842 7.22954H6.93497C6.66856 7.22954 6.45453 7.01095 6.45453 6.74V4.6566C6.45453 4.38565 6.67084 4.16706 6.93497 4.16706H8.9842C9.2506 4.16706 9.46464 4.38565 9.46464 4.6566V6.74C9.46464 7.01095 9.24833 7.22954 8.9842 7.22954ZM11.4638 6.25046H12.5499V5.14614H11.4638V6.25046ZM13.0326 7.22954H10.9834C10.7169 7.22954 10.5029 7.01095 10.5029 6.74V4.6566C10.5029 4.38565 10.7192 4.16706 10.9834 4.16706H13.0326C13.299 4.16706 13.513 4.38565 13.513 4.6566V6.74C13.513 7.01095 13.2967 7.22954 13.0326 7.22954ZM7.4154 10.3398H8.50149V9.23551H7.4154V10.3398ZM8.9842 11.3189H6.93497C6.66856 11.3189 6.45453 11.1003 6.45453 10.8294V8.74597C6.45453 8.47502 6.67084 8.25643 6.93497 8.25643H8.9842C9.2506 8.25643 9.46464 8.47502 9.46464 8.74597V10.8294C9.46464 11.1003 9.24833 11.3189 8.9842 11.3189ZM11.4638 10.3398H12.5499V9.23551H11.4638V10.3398ZM13.0326 11.3189H10.9834C10.7169 11.3189 10.5029 11.1003 10.5029 10.8294V8.74597C10.5029 8.47502 10.7192 8.25643 10.9834 8.25643H13.0326C13.299 8.25643 13.513 8.47502 13.513 8.74597V10.8294C13.513 11.1003 13.2967 11.3189 13.0326 11.3189Z" fill="#86888C"/>
</svg>
