<svg width="20" height="20" viewBox="0 0 20 20" fill="none" xmlns="http://www.w3.org/2000/svg">
<path fill-rule="evenodd" clip-rule="evenodd" d="M16.5166 13.5792C16.3664 13.7316 16.1702 13.8234 15.9887 13.8317C15.9907 13.7754 16.0012 13.7253 16.0012 13.669C16.0012 12.2332 15.1163 11.34 13.691 11.34C12.2657 11.34 11.3788 12.2332 11.3788 13.669C11.3788 13.7274 11.3892 13.7796 11.3934 13.8359H8.90583C8.90792 13.7796 8.91835 13.7274 8.91835 13.669C8.91835 12.2332 8.03352 11.34 6.60819 11.34C5.18286 11.34 4.29803 12.2332 4.29803 13.669V13.6752C4.25003 13.6439 4.19369 13.6231 4.15195 13.5792C3.98917 13.4165 3.89735 13.2119 3.89735 13.0179V10.1046H12.6246C12.6538 10.1046 15.732 9.994 16.7691 12.1122V13.0179C16.7691 13.2119 16.6773 13.4165 16.5166 13.5792ZM13.6889 15.0964C12.7498 15.0964 12.274 14.6164 12.274 13.6711C12.274 12.7257 12.7498 12.2457 13.6889 12.2457C14.628 12.2457 15.1038 12.7257 15.1038 13.6711C15.1038 14.6164 14.628 15.0964 13.6889 15.0964ZM6.6061 15.0964C5.66701 15.0964 5.19121 14.6164 5.19121 13.6711C5.19121 12.7257 5.66701 12.2457 6.6061 12.2457C7.54519 12.2457 8.021 12.7257 8.021 13.6711C8.021 14.6164 7.54519 15.0964 6.6061 15.0964ZM4.15195 6.15834C4.31264 5.99557 4.51715 5.90166 4.70914 5.90166H7.1946V9.20099H3.89735V6.71971C3.89735 6.5298 3.99126 6.31903 4.15195 6.15834ZM8.08986 9.20099H11.36V5.90166H8.08986V9.20099ZM16.7691 10.499V10.6075C15.1956 9.10082 12.7102 9.19473 12.6017 9.20099H12.2552V5.90166H13.0399C13.1923 5.90374 16.7691 5.96635 16.7691 10.499ZM16.2099 6.35451C14.8638 5.00431 13.1025 4.99804 13.042 5.00013H4.70914C4.27925 5.00013 3.84518 5.19004 3.51754 5.51976C3.18782 5.84949 3 6.28773 3 6.7218V13.0179C3 13.4499 3.18782 13.8881 3.51754 14.2199C3.78257 14.487 4.11647 14.6498 4.49211 14.7103C4.82392 15.5221 5.57102 16 6.60819 16C7.63284 16 8.37159 15.5325 8.70966 14.7395H11.5895C11.9276 15.5325 12.6664 16 13.691 16C14.7157 16 15.4544 15.5325 15.7925 14.7395H15.9594C16.3893 14.7395 16.8234 14.5496 17.1531 14.2178C17.4808 13.8881 17.6686 13.4499 17.6686 13.0158V10.4969C17.6665 8.71893 17.1761 7.3249 16.2099 6.35451Z" fill="#86888C"/>
</svg>
