<svg width="20" height="20" viewBox="0 0 20 20" fill="none" xmlns="http://www.w3.org/2000/svg">
<path fill-rule="evenodd" clip-rule="evenodd" d="M14.1371 14.4035C15.1842 14.3101 16.9666 13.7798 16.9666 11.2394C16.9666 8.71049 15.1933 8.16418 14.1371 8.06174V14.4035ZM13.1037 14.8223V6.73922H3.03343V14.8223C3.03343 15.5894 3.21326 16.1334 3.57974 16.4863C3.94395 16.8345 4.50619 17.003 5.29834 17.003H10.8388C11.631 17.003 12.1932 16.8345 12.5574 16.4863C12.9239 16.1357 13.1037 15.5917 13.1037 14.8223ZM17.9977 11.2394C17.9977 14.7882 15.1387 15.3254 14.0939 15.4028C14.0051 16.1585 13.7434 16.7549 13.2835 17.1942C12.7145 17.736 11.9155 18 10.8365 18H5.29834C4.21938 18 3.4204 17.736 2.85133 17.1942C2.27771 16.6479 2 15.8717 2 14.8246V6.24527C2 5.96984 2.23218 5.74676 2.51672 5.74676H13.6204C13.905 5.74676 14.1371 5.96984 14.1371 6.24527V7.06701C15.2229 7.16034 17.9977 7.74989 17.9977 11.2394ZM6.43192 4.92502C6.43192 4.7543 6.36591 4.65187 6.24072 4.46749C6.10642 4.27628 5.94025 4.03727 5.93797 3.69356C5.9357 3.34301 6.10869 3.11083 6.23389 2.93783C6.35453 2.77394 6.4342 2.66467 6.43192 2.43477C6.42965 2.19576 6.62769 2.00228 6.8758 2H6.88035C7.12619 2 7.3265 2.19121 7.32878 2.42567C7.33333 2.93328 7.11253 3.23602 6.96458 3.43634C6.86442 3.57064 6.83255 3.62071 6.83483 3.68673C6.83483 3.76867 6.88718 3.84607 6.98506 3.9872C7.13074 4.19661 7.33106 4.48343 7.32878 4.92502C7.32878 5.16403 7.12847 5.35524 6.88035 5.35524C6.63224 5.35752 6.43192 5.16403 6.43192 4.92502ZM8.65358 4.96372C8.63992 4.90909 8.54887 4.77024 8.50107 4.6974C8.38953 4.52668 8.28254 4.36734 8.27799 4.1784C8.26889 3.94622 8.40774 3.74819 8.52838 3.57519C8.57163 3.51145 8.64675 3.40674 8.65813 3.36577C8.64675 3.12676 8.83568 2.94693 9.08152 2.93555C9.31598 2.94238 9.53678 3.12904 9.54816 3.36805C9.56182 3.63892 9.4002 3.86883 9.27045 4.05548C9.24996 4.08508 9.22493 4.1215 9.20216 4.15564C9.2181 4.18068 9.23631 4.208 9.25679 4.23759C9.37744 4.42197 9.52995 4.64959 9.54588 4.89999C9.56182 5.139 9.37744 5.34386 9.12932 5.3598C9.11794 5.3598 9.10883 5.36207 9.09745 5.36207C8.86755 5.35752 8.67179 5.1868 8.65358 4.96372Z" fill="#86888C"/>
</svg>
