<svg width="28" height="28" viewBox="0 0 28 28" fill="none" xmlns="http://www.w3.org/2000/svg">
<path fill-rule="evenodd" clip-rule="evenodd" d="M20.2057 21.6052C21.7764 21.4652 24.4499 20.6697 24.4499 16.8592C24.4499 13.0657 21.79 12.2463 20.2057 12.0926V21.6052ZM18.6556 22.2335V10.1088H3.55015V22.2335C3.55015 23.3841 3.81989 24.2002 4.36961 24.7294C4.91592 25.2518 5.75928 25.5045 6.9475 25.5045H15.2582C16.4464 25.5045 17.2898 25.2518 17.8361 24.7294C18.3858 24.2036 18.6556 23.3875 18.6556 22.2335ZM25.9966 16.8592C25.9966 22.1822 21.7081 22.988 20.1408 23.1041C20.0077 24.2377 19.615 25.1323 18.9253 25.7913C18.0717 26.6039 16.8732 27 15.2548 27H6.9475C5.32907 27 4.1306 26.6039 3.277 25.7913C2.41656 24.9718 2 23.8075 2 22.2369V9.3679C2 8.95476 2.34827 8.62015 2.77507 8.62015H19.4306C19.8574 8.62015 20.2057 8.95476 20.2057 9.3679V10.6005C21.8344 10.7405 25.9966 11.6248 25.9966 16.8592ZM8.64789 7.38754C8.64789 7.13146 8.54887 6.97781 8.36108 6.70124C8.15962 6.41443 7.91037 6.05591 7.90696 5.54033C7.90354 5.01451 8.16304 4.66624 8.35083 4.40674C8.5318 4.1609 8.6513 3.99701 8.64789 3.65216C8.64447 3.29364 8.94153 3.00341 9.3137 3H9.32053C9.68929 3 9.98976 3.28681 9.99317 3.6385C10 4.39991 9.6688 4.85403 9.44686 5.1545C9.29663 5.35595 9.24883 5.43107 9.25224 5.53009C9.25224 5.65301 9.33077 5.7691 9.47759 5.98079C9.69612 6.29492 9.99659 6.72514 9.99317 7.38754C9.99317 7.74605 9.6927 8.03286 9.32053 8.03286C8.94836 8.03628 8.64789 7.74605 8.64789 7.38754ZM11.9804 7.44558C11.9599 7.36364 11.8233 7.15536 11.7516 7.04609C11.5843 6.79001 11.4238 6.551 11.417 6.26761C11.4033 5.91933 11.6116 5.62228 11.7926 5.36278C11.8574 5.26718 11.9701 5.11012 11.9872 5.04866C11.9701 4.69014 12.2535 4.4204 12.6223 4.40333C12.974 4.41357 13.3052 4.69356 13.3222 5.05207C13.3427 5.45839 13.1003 5.80324 12.9057 6.08323C12.8749 6.12761 12.8374 6.18225 12.8032 6.23346C12.8271 6.27102 12.8545 6.31199 12.8852 6.35638C13.0662 6.63295 13.2949 6.97439 13.3188 7.34998C13.3427 7.70849 13.0662 8.01579 12.694 8.03969C12.6769 8.03969 12.6633 8.04311 12.6462 8.04311C12.3013 8.03628 12.0077 7.7802 11.9804 7.44558Z" fill="#86888C"/>
</svg>
