<svg width="20" height="20" viewBox="0 0 20 20" fill="none" xmlns="http://www.w3.org/2000/svg">
<path d="M15.4392 17H4.05392C2.92271 17 2 16.0795 2 14.9461V6.05392C2 4.92271 2.92049 4 4.05392 4H15.5035C16.6347 4 17.5574 4.92049 17.5574 6.05392V14.8818C17.5574 16.0485 16.6059 17 15.4392 17ZM4.05392 4.85173C3.39072 4.85173 2.85173 5.39072 2.85173 6.05392V14.9461C2.85173 15.6093 3.39072 16.1483 4.05392 16.1483H15.4392C16.1379 16.1483 16.7057 15.5804 16.7057 14.8818V6.05392C16.7057 5.39072 16.1667 4.85173 15.5035 4.85173H4.05392Z" fill="#86888C"/>
<path d="M16.916 7.89932H2.56964C2.33453 7.89932 2.146 7.70857 2.146 7.47567C2.146 7.24278 2.33453 7.0498 2.56964 7.0498H16.916C17.1511 7.0498 17.3419 7.24056 17.3419 7.47345C17.3419 7.70635 17.1489 7.89932 16.916 7.89932ZM8.23898 14.1808C8.23898 14.0389 8.25895 13.9125 8.30109 13.8016C8.34323 13.6907 8.41421 13.5775 8.51402 13.4578L9.42786 12.3443C9.71177 12.0005 9.90696 11.7388 10.0112 11.5569C10.1177 11.375 10.1687 11.1931 10.1687 11.0112C10.1687 10.8094 10.1066 10.6586 9.98237 10.5565C9.84485 10.4368 9.60752 10.3769 9.26816 10.3769C8.97538 10.3769 8.66707 10.4057 8.34767 10.4656V9.73587C8.49406 9.69816 8.66707 9.66932 8.86669 9.64271C9.06632 9.61831 9.25707 9.605 9.44117 9.605C10.0866 9.605 10.5568 9.75139 10.8496 10.0442C11.0737 10.2682 11.1868 10.5743 11.1868 10.958C11.1868 11.2464 11.1136 11.5236 10.9672 11.7876C10.8208 12.0515 10.5591 12.3887 10.1842 12.8012L9.36575 13.6951H11.2644V14.396H8.2656C8.24786 14.3494 8.23898 14.2762 8.23898 14.1808Z" fill="#86888C"/>
<path d="M6.31771 5.63916C6.12252 5.63916 5.99609 5.74119 5.99609 5.963C5.99609 6.06946 6.02493 6.14709 6.07816 6.20033C6.13361 6.258 6.2179 6.28683 6.31771 6.28683C6.41752 6.28683 6.50181 6.258 6.55726 6.20033C6.60828 6.14709 6.63933 6.06946 6.63933 5.963C6.63933 5.74341 6.5129 5.63916 6.31771 5.63916Z" fill="#86888C"/>
<path d="M6.31853 6.60851C6.07676 6.60851 5.92815 6.5087 5.8483 6.42663C5.77067 6.34678 5.67529 6.20039 5.67529 5.96528C5.67529 5.57934 5.93481 5.31982 6.31853 5.31982C6.70225 5.31982 6.96176 5.57934 6.96176 5.96528C6.96176 6.20039 6.86861 6.34678 6.78876 6.42663C6.70891 6.5087 6.5603 6.60851 6.31853 6.60851Z" fill="#86888C"/>
<path d="M13.2503 5.63916C13.0551 5.63916 12.9287 5.74119 12.9287 5.963C12.9287 6.06946 12.9575 6.14709 13.0108 6.20033C13.0662 6.258 13.1505 6.28683 13.2503 6.28683C13.3501 6.28683 13.4344 6.258 13.4899 6.20033C13.5409 6.14709 13.5719 6.06946 13.5719 5.963C13.5719 5.74341 13.4455 5.63916 13.2503 5.63916Z" fill="#86888C"/>
<path d="M13.2502 6.60851C13.0084 6.60851 12.8598 6.5087 12.7799 6.42663C12.7023 6.34678 12.6069 6.20039 12.6069 5.96528C12.6069 5.57934 12.8664 5.31982 13.2502 5.31982C13.4808 5.31982 13.625 5.41076 13.7049 5.48618C13.7914 5.56825 13.8934 5.71686 13.8934 5.96306C13.8934 6.19817 13.8002 6.34456 13.7204 6.42441C13.6405 6.5087 13.4919 6.60851 13.2502 6.60851Z" fill="#86888C"/>
</svg>
