<svg width="28" height="28" viewBox="0 0 28 28" fill="none" xmlns="http://www.w3.org/2000/svg">
<path d="M22.6757 24H5.15987C3.41955 24 2 22.5839 2 20.8401V7.15987C2 5.41955 3.41614 4 5.15987 4H22.7746C24.5149 4 25.9345 5.41614 25.9345 7.15987V20.7412C25.9345 22.5361 24.4706 24 22.6757 24ZM5.15987 5.31036C4.13957 5.31036 3.31036 6.13957 3.31036 7.15987V20.8401C3.31036 21.8604 4.13957 22.6896 5.15987 22.6896H22.6757C23.7506 22.6896 24.6241 21.8161 24.6241 20.7412V7.15987C24.6241 6.13957 23.7949 5.31036 22.7746 5.31036H5.15987Z" fill="#86888C"/>
<path d="M24.9477 9.99835H2.87638C2.51466 9.99835 2.22461 9.70489 2.22461 9.34658C2.22461 8.98828 2.51466 8.69141 2.87638 8.69141H24.9477C25.3094 8.69141 25.6029 8.98487 25.6029 9.34317C25.6029 9.70147 25.306 9.99835 24.9477 9.99835ZM11.5984 19.6622C11.5984 19.4438 11.6291 19.2493 11.694 19.0787C11.7588 18.9081 11.868 18.7341 12.0216 18.5498L13.4275 16.8368C13.8643 16.3079 14.1646 15.9052 14.3249 15.6254C14.4887 15.3456 14.5672 15.0657 14.5672 14.7859C14.5672 14.4754 14.4717 14.2434 14.2806 14.0864C14.069 13.9021 13.7039 13.81 13.1818 13.81C12.7313 13.81 12.257 13.8543 11.7656 13.9465V12.8238C11.9909 12.7658 12.257 12.7214 12.5641 12.6805C12.8713 12.6429 13.1647 12.6225 13.4479 12.6225C14.441 12.6225 15.1644 12.8477 15.6148 13.2981C15.9595 13.6428 16.1335 14.1137 16.1335 14.704C16.1335 15.1476 16.0209 15.5742 15.7957 15.9803C15.5705 16.3863 15.1678 16.905 14.5911 17.5397L13.3319 18.9149H16.2529V19.9932H11.6394C11.6121 19.9216 11.5984 19.809 11.5984 19.6622Z" fill="#86888C"/>
<path d="M8.64372 6.52197C8.34343 6.52197 8.14893 6.67894 8.14893 7.02018C8.14893 7.18398 8.19329 7.30341 8.27518 7.38531C8.36049 7.47403 8.49016 7.51839 8.64372 7.51839C8.79728 7.51839 8.92695 7.47403 9.01226 7.38531C9.09074 7.30341 9.13852 7.18398 9.13852 7.02018C9.13852 6.68236 8.94401 6.52197 8.64372 6.52197Z" fill="#86888C"/>
<path d="M8.64389 8.01287C8.27194 8.01287 8.04331 7.85931 7.92046 7.73305C7.80103 7.61021 7.6543 7.38499 7.6543 7.02328C7.6543 6.42952 8.05355 6.03027 8.64389 6.03027C9.23423 6.03027 9.63348 6.42952 9.63348 7.02328C9.63348 7.38499 9.49016 7.61021 9.36732 7.73305C9.24447 7.85931 9.01584 8.01287 8.64389 8.01287Z" fill="#86888C"/>
<path d="M19.3088 6.52197C19.0085 6.52197 18.814 6.67894 18.814 7.02018C18.814 7.18398 18.8583 7.30341 18.9402 7.38531C19.0255 7.47403 19.1552 7.51839 19.3088 7.51839C19.4623 7.51839 19.592 7.47403 19.6773 7.38531C19.7558 7.30341 19.8036 7.18398 19.8036 7.02018C19.8036 6.68236 19.6091 6.52197 19.3088 6.52197Z" fill="#86888C"/>
<path d="M19.308 8.01287C18.936 8.01287 18.7074 7.85931 18.5845 7.73305C18.4651 7.61021 18.3184 7.38499 18.3184 7.02328C18.3184 6.42952 18.7176 6.03027 19.308 6.03027C19.6628 6.03027 19.8846 6.17018 20.0075 6.2862C20.1406 6.41246 20.2975 6.64109 20.2975 7.01987C20.2975 7.38158 20.1542 7.6068 20.0314 7.72964C19.9085 7.85931 19.6799 8.01287 19.308 8.01287Z" fill="#86888C"/>
</svg>
