<svg width="28" height="28" viewBox="0 0 28 28" fill="none" xmlns="http://www.w3.org/2000/svg">
<path d="M7.59368 25.4141C7.20735 25.4141 6.78342 25.3457 6.63641 25.3218L6.61932 25.3184L6.58855 25.3116C5.26205 25.0688 4.06889 23.8551 3.22445 21.8927C2.35607 19.8688 1.89453 17.168 1.89453 14.0774V13.968C1.89453 10.8774 2.35265 8.17651 3.22445 6.14916C4.06889 4.18676 5.26205 2.97309 6.58855 2.73035L6.61932 2.72693L6.63641 2.72351C6.79026 2.69958 7.25863 2.62095 7.66205 2.63121C9.94582 2.68249 11.1492 3.89616 11.1492 6.13206C11.1527 6.5389 11.1048 6.94232 11.0056 7.3389C10.8244 8.11155 10.4381 8.70984 9.86034 9.1201C9.28257 9.53035 8.53385 9.73548 7.62103 9.73548C7.42274 9.73548 7.22103 9.72522 7.02274 9.70129C6.97146 9.74232 6.74923 9.9748 6.5988 10.956C6.4518 11.8996 6.4347 13.1269 6.4347 13.9645V14.0739C6.4347 14.915 6.4518 16.1389 6.5988 17.0825C6.75265 18.0637 6.97146 18.2962 7.02274 18.3372C7.22103 18.3133 7.41932 18.303 7.62103 18.303C8.53043 18.303 9.28599 18.5081 9.86034 18.9184C10.4347 19.3286 10.8244 19.9304 11.0056 20.6996C11.1048 21.0927 11.1527 21.4996 11.1492 21.9064C11.1492 24.1457 9.9424 25.356 7.66205 25.4073L7.59368 25.4141ZM6.81419 24.0329L6.8518 24.0398C7.18684 24.0945 7.45009 24.1184 7.63812 24.115C8.4347 24.0979 9.0159 23.9064 9.3612 23.5474C9.69624 23.1987 9.85693 22.6654 9.85693 21.9133C9.86034 21.6158 9.82616 21.3218 9.75436 21.0312C9.75094 21.0244 9.75094 21.0175 9.75094 21.0107C9.61077 20.409 9.23812 19.609 7.63128 19.609C7.45009 19.609 7.27231 19.6192 7.09111 19.6432C7.05693 19.6466 7.02274 19.65 6.98855 19.6466C6.65351 19.6329 6.17829 19.4893 5.8159 18.8808C5.61761 18.5526 5.4706 18.1115 5.36462 17.5406C5.21077 16.7133 5.1424 15.6466 5.1424 14.0774V13.968C5.1424 12.3987 5.21077 11.3286 5.36462 10.5047C5.4706 9.93377 5.61761 9.49275 5.8159 9.16454C6.17829 8.55599 6.65351 8.4124 6.98855 8.39873C7.02274 8.39873 7.05693 8.39873 7.09111 8.40215C7.26889 8.42608 7.45009 8.43634 7.63128 8.43634C9.24154 8.43634 9.61419 7.63634 9.75094 7.03463C9.75094 7.02779 9.75436 7.02095 9.75436 7.01411C9.82616 6.72693 9.86034 6.4295 9.85693 6.13206C9.85693 5.37651 9.69282 4.84317 9.3612 4.49787C9.01248 4.1389 8.43128 3.94745 7.6347 3.92693C7.44667 3.92351 7.18 3.94745 6.84838 4.00215L6.81077 4.00898C5.9424 4.17651 5.07402 5.14061 4.41761 6.66198C3.86034 7.96112 3.19368 10.2825 3.19368 13.9611V14.0774C3.19368 17.756 3.86034 20.0774 4.41761 21.3765C5.0706 22.8979 5.9424 23.862 6.80735 24.0295L6.81419 24.0329ZM13.8945 25.9645C13.5356 25.9645 13.245 25.6739 13.245 25.315C13.245 24.956 13.5356 24.6654 13.8945 24.6654C19.7886 24.6654 24.568 19.8859 24.5646 13.9919C24.5646 11.1611 23.4398 8.44659 21.4398 6.44659C19.4433 4.43975 16.7253 3.31155 13.8945 3.32181C13.5356 3.32181 13.245 3.03121 13.245 2.67223C13.245 2.31326 13.5356 2.02266 13.8945 2.02266C20.5065 2.02608 25.8672 7.3936 25.8603 14.0056C25.8569 18.8124 22.9817 23.1509 18.5544 25.0244C17.0809 25.6466 15.4945 25.968 13.8945 25.9645Z" fill="#86888C"/>
<path d="M13.8945 25.9643C13.5356 25.9643 13.245 25.6737 13.245 25.3148C13.245 24.9558 13.5356 24.6652 13.8945 24.6652C14.5065 24.6652 15.1116 24.4156 15.6928 23.9267C16.3048 23.4139 16.8586 22.6652 17.3407 21.7045C18.3732 19.6532 18.9407 16.9148 18.9407 13.9917C18.9407 11.0686 18.3732 8.32674 17.3407 6.27887C16.8586 5.31819 16.3014 4.56947 15.6928 4.05665C15.1116 3.56776 14.5065 3.31819 13.8945 3.31819C13.5356 3.31819 13.245 3.02759 13.245 2.66862C13.245 2.30964 13.5356 2.01904 13.8945 2.01904C15.6723 2.01904 17.3099 3.32503 18.5031 5.69426C19.6245 7.92332 20.2398 10.8669 20.2398 13.9917C20.2398 17.1165 19.6245 20.0635 18.5031 22.2891C17.3099 24.6584 15.6723 25.9643 13.8945 25.9643Z" fill="#86888C"/>
<path d="M13.8945 10.3814C13.5356 10.3814 13.245 10.0908 13.245 9.73186C13.245 9.37289 13.5356 9.08229 13.8945 9.08229C15.6245 9.08229 17.2792 8.88742 18.8108 8.49767C20.2535 8.13186 21.5287 7.60537 22.5065 6.96605C22.8039 6.76434 23.2074 6.84639 23.4091 7.14383C23.6108 7.44126 23.5287 7.84468 23.2313 8.04639C23.2279 8.04981 23.221 8.05323 23.2176 8.05665C20.9509 9.53357 17.5527 10.3814 13.8945 10.3814ZM22.8621 21.4002C22.7356 21.4002 22.6125 21.3626 22.5065 21.2943C21.5287 20.6584 20.2535 20.1284 18.8108 19.7626C17.2792 19.3763 15.6245 19.178 13.8945 19.178C13.5356 19.178 13.245 18.8874 13.245 18.5284C13.245 18.1695 13.5356 17.8789 13.8945 17.8789C17.5527 17.8789 20.9509 18.7267 23.2176 20.2037C23.5185 20.3985 23.6039 20.8019 23.4057 21.1028C23.286 21.2908 23.0809 21.4002 22.8621 21.4002Z" fill="#86888C"/>
<path d="M13.7441 26.0122C13.3851 26.0122 13.0945 25.7216 13.0945 25.3626V2.66178C13.0945 2.30281 13.3851 2.01221 13.7441 2.01221C14.1031 2.01221 14.3937 2.30281 14.3937 2.66178V25.3626C14.3937 25.7216 14.1031 26.0122 13.7441 26.0122Z" fill="#86888C"/>
<path d="M24.8552 14.6652H13.9834C13.6245 14.6652 13.3339 14.3746 13.3339 14.0156C13.3339 13.6567 13.6245 13.3661 13.9834 13.3661H24.8552C25.2142 13.3661 25.5048 13.6567 25.5048 14.0156C25.5048 14.3746 25.2142 14.6652 24.8552 14.6652Z" fill="#86888C"/>
</svg>
