<svg width="21" height="20" viewBox="0 0 21 20" fill="none" xmlns="http://www.w3.org/2000/svg">
<path d="M14.7921 18.0151C14.087 18.0151 13.2842 17.8421 12.4154 17.4937C10.6415 16.7854 8.69924 15.4055 6.80021 13.504L6.73198 13.4357C4.83295 11.5365 3.457 9.59178 2.74742 7.81556C2.07196 6.11449 2.05376 4.66164 2.70194 3.72344L2.72468 3.68928C2.802 3.57997 3.0408 3.24978 3.2887 3.01295C3.99601 2.3389 4.71468 2.00187 5.42881 2.01554C6.11792 2.0292 6.79793 2.36622 7.45065 3.01978C7.69855 3.26344 7.91233 3.53671 8.08973 3.83274C8.43997 4.39749 8.56733 4.98273 8.46726 5.56797C8.36719 6.15321 8.04197 6.72478 7.49614 7.27131C7.36878 7.39884 7.2346 7.51953 7.09359 7.63111C7.03901 7.72675 7.07312 8.02962 7.49614 8.64902C7.98739 9.36406 8.80613 10.2112 9.37925 10.785L9.44748 10.8533C10.0206 11.4272 10.8666 12.247 11.5808 12.7389C12.1994 13.1624 12.5019 13.1943 12.5974 13.1419C12.7088 13.0007 12.8271 12.8641 12.9567 12.7389C13.5025 12.1923 14.0757 11.8644 14.6602 11.7665C15.2446 11.6686 15.8269 11.7938 16.3932 12.1445C16.6911 12.3221 16.964 12.5362 17.2051 12.7844C17.8578 13.438 18.1944 14.1188 18.208 14.8088C18.2217 15.5239 17.8851 16.2435 17.2119 16.9517C16.9754 17.1999 16.6456 17.4367 16.5364 17.5164L16.5228 17.5255C16.516 17.5301 16.5092 17.5346 16.5023 17.5415C16.0429 17.858 15.463 18.0151 14.7921 18.0151ZM7.4461 12.8618C9.25644 14.6768 11.0918 15.9839 12.752 16.6465C14.1325 17.1976 15.3061 17.2523 15.977 16.7946L16.0043 16.7763C16.2499 16.5987 16.4341 16.4461 16.5546 16.3209C17.0573 15.7926 17.3097 15.2893 17.3006 14.8248C17.2915 14.3739 17.0504 13.9162 16.5637 13.4266C16.375 13.233 16.1635 13.0668 15.9315 12.9279L15.9178 12.921C15.5403 12.6842 15.1787 12.6022 14.8125 12.6637C14.4191 12.7298 14.012 12.9734 13.6003 13.3833C13.4843 13.4972 13.3775 13.6179 13.2797 13.7477C13.2637 13.7659 13.2478 13.7841 13.2319 13.8C13.0386 13.9799 12.6906 14.1644 12.1402 14.0232C11.8287 13.9435 11.4784 13.7682 11.069 13.4881C10.2912 12.9552 9.40654 12.0944 8.80613 11.4955L8.7379 11.4272C8.13976 10.8283 7.28236 9.94019 6.7479 9.16366C6.46816 8.75377 6.29304 8.40308 6.21344 8.0911C6.07471 7.54002 6.25892 7.19161 6.43859 6.99577C6.45451 6.97755 6.47271 6.96161 6.4909 6.94795C6.62054 6.85003 6.74107 6.743 6.85479 6.62686C7.26416 6.21697 7.50524 5.80935 7.57346 5.41312C7.63487 5.04649 7.55072 4.68441 7.31647 4.3064L7.30965 4.29274C7.17092 4.06046 7.00262 3.84868 6.81158 3.65967C6.32033 3.17691 5.8632 2.93552 5.41289 2.92642C4.94893 2.91958 4.44404 3.1678 3.91868 3.67334C3.79359 3.79175 3.64122 3.9762 3.46382 4.22442L3.44335 4.25175C2.9885 4.92352 3.0408 6.09855 3.59118 7.48081C4.253 9.14317 5.56072 10.9809 7.37105 12.7935L7.41199 12.8345L7.4461 12.8618Z" fill="#86888C"/>
<path d="M10.8371 10.0222C10.4982 10.0267 10.2185 9.75574 10.2139 9.41644C10.2139 9.36634 10.2185 9.31624 10.2298 9.26614L11.0167 5.57936C11.0645 5.35163 11.2169 5.18312 11.4216 5.12619C11.6262 5.06926 11.8423 5.14213 11.9992 5.3152L12.5428 5.91638L15.0036 3.79859C15.1537 3.65284 15.3606 3.58225 15.5676 3.60047C15.7814 3.61869 15.977 3.72799 16.1043 3.89878L17.0254 4.9258C17.171 5.08976 17.2392 5.30609 17.2119 5.52242C17.1869 5.7251 17.08 5.90955 16.914 6.03024L14.4646 8.18675L15.0013 8.78337C15.1582 8.95872 15.206 9.18188 15.1264 9.38228C15.0468 9.58267 14.8603 9.71247 14.6238 9.73069L10.8894 10.0199C10.8712 10.0222 10.853 10.0222 10.8371 10.0222ZM11.7695 6.41736L11.201 9.08396L13.8619 8.87674L13.6344 8.62625C13.3843 8.34615 13.4047 7.91576 13.6845 7.66527C13.6868 7.66299 13.689 7.66072 13.6913 7.66072L16.2408 5.41312L15.4925 4.57966L12.9726 6.74984C12.6883 6.99122 12.2653 6.96389 12.0129 6.68835L11.7695 6.41736Z" fill="#86888C"/>
</svg>
