<svg width="25" height="24" viewBox="0 0 25 24" fill="none" xmlns="http://www.w3.org/2000/svg">
<path fill-rule="evenodd" clip-rule="evenodd" d="M20.9536 19.6725C21.6251 18.9697 21.958 18.2812 21.9438 17.6182C21.9324 16.9837 21.5995 16.335 20.9564 15.6891C20.7117 15.4387 20.4358 15.2196 20.1342 15.0404C19.5935 14.7075 19.0586 14.5908 18.5322 14.6762C17.9831 14.7701 17.4254 15.0916 16.882 15.635C16.7482 15.7659 16.6259 15.9082 16.5092 16.0533C16.458 16.1187 16.3926 16.1728 16.3214 16.2126C15.9003 16.4516 15.3057 16.2923 14.4578 15.7119C13.5757 15.1058 12.5571 14.1185 11.8685 13.4328L11.786 13.3503C11.1003 12.6674 10.1158 11.6516 9.50693 10.7639C8.92648 9.91598 8.76715 9.32415 9.00331 8.89736C9.04314 8.82338 9.0972 8.76078 9.16549 8.70957C9.33905 8.57299 9.43579 8.48479 9.58375 8.33683C10.1272 7.79338 10.4516 7.23854 10.5426 6.68655C10.6337 6.15448 10.517 5.63379 10.187 5.10172C10.0049 4.79442 9.78292 4.51274 9.52969 4.26519C8.88949 3.625 8.24076 3.2921 7.60626 3.28072C6.94899 3.26365 6.25474 3.59939 5.55195 4.27089C5.38692 4.43022 5.19344 4.66354 4.97151 4.97368C4.31424 5.91832 4.35976 7.40641 5.07109 9.18758C5.86778 11.1878 7.4327 13.3873 9.59513 15.5497L9.62643 15.5838L9.67195 15.6294C11.8372 17.7918 14.0367 19.3567 16.0369 20.1534C17.801 20.8562 19.3175 20.9017 20.2224 20.2757C20.3732 20.1676 20.7231 19.9144 20.9536 19.6725ZM21.8613 14.7871C22.749 15.6749 23.2071 16.6167 23.2242 17.5955C23.2441 18.6055 22.7917 19.6042 21.8783 20.5574C21.5682 20.8818 21.1613 21.1777 21.0077 21.2887C20.3077 21.7752 19.511 22 18.5835 22C17.6673 22 16.6515 21.7809 15.5617 21.3456C13.3993 20.4835 11.0519 18.8218 8.76715 16.537L8.69032 16.4602C8.66756 16.4403 8.6448 16.4204 8.62773 16.3947C6.37424 14.127 4.7325 11.8024 3.88175 9.6599C3.0054 7.46901 3.01109 5.55696 3.89313 4.27658C4.02686 4.08879 4.33416 3.66483 4.66706 3.34616C5.62308 2.43282 6.61609 1.9861 7.62902 2.00033C8.60496 2.02025 9.54961 2.47834 10.4373 3.36323C10.7646 3.6876 11.0519 4.0518 11.2881 4.44729C11.7718 5.22975 11.951 6.06343 11.8088 6.90564C11.6694 7.72224 11.2283 8.51039 10.4914 9.24448C10.4117 9.327 10.3264 9.40382 10.241 9.48064C10.2922 9.5973 10.389 9.7794 10.5654 10.0383C11.1117 10.8379 12.0421 11.7967 12.6965 12.4455L12.779 12.528C13.4278 13.1767 14.3895 14.11 15.1862 14.6563C15.4451 14.8327 15.6272 14.9294 15.7438 14.9806C15.815 14.901 15.889 14.8213 15.9828 14.7302C16.7169 13.9961 17.5051 13.5523 18.3217 13.4129C19.1667 13.2706 19.9976 13.4498 20.7943 13.9421C21.1471 14.1526 21.5113 14.4372 21.8613 14.7871ZM15.3398 8.60998C15.2687 8.66404 15.2544 8.69249 15.2488 8.72379C15.2431 8.75794 15.2544 8.79492 15.2772 8.82053L16.2162 9.86761C16.2674 9.93305 16.2958 9.95866 16.3414 9.9615C16.3499 9.95296 16.4353 9.91882 16.4438 9.91029L18.9448 7.76208C19.2066 7.53445 19.6049 7.56006 19.8382 7.81614L20.3134 8.33968L21.0873 4.71475L21.0759 4.71191L17.4226 4.99644L17.8807 5.50859C18.1168 5.77321 18.0941 6.17724 17.8323 6.4134L17.8295 6.41625L15.3398 8.60998ZM15.2288 10.6785L14.3269 9.67982C13.809 9.10506 13.8546 8.22017 14.4293 7.70233C14.4635 7.67103 14.5004 7.63973 14.5403 7.61128L16.5007 5.88417L16.3869 5.75898C16.0654 5.40047 15.9715 4.91392 16.1393 4.48713C16.3101 4.06033 16.7141 3.77011 17.1978 3.73312L20.9963 3.44006L21.0987 3.43721C21.4686 3.43721 21.8214 3.5937 22.0604 3.86685C22.325 4.16845 22.4275 4.57533 22.3421 4.97652L21.5397 8.72379C21.4401 9.18758 21.1072 9.54893 20.6662 9.66559C20.228 9.78509 19.7586 9.63998 19.4399 9.28432L19.3062 9.13636L17.2775 10.8805C16.9958 11.1423 16.6174 11.2703 16.2332 11.2334C15.8349 11.2021 15.4707 10.9972 15.2288 10.6785Z" fill="#86888C"/>
</svg>
