<svg width="28" height="28" viewBox="0 0 28 28" fill="none" xmlns="http://www.w3.org/2000/svg">
<path d="M20.7626 25.9951C19.8679 25.9951 18.8715 25.8077 17.8006 25.4328C15.4519 24.6149 12.8457 22.9415 10.2564 20.5968L11.1647 19.5846C13.6184 21.81 16.0653 23.3846 18.2445 24.1446C20.0916 24.7887 21.6133 24.7989 22.5318 24.1684L22.5724 24.1411C22.9384 23.8753 23.2164 23.647 23.3926 23.4595C24.145 22.6689 24.5178 21.9123 24.5076 21.2136C24.494 20.5354 24.1348 19.8504 23.4061 19.1177C23.1248 18.828 22.8097 18.5758 22.464 18.3679L22.4436 18.3577C21.8777 18.0033 21.3388 17.8772 20.7898 17.9692C20.2001 18.0714 19.5934 18.4327 18.98 19.0495C18.8071 19.2199 18.6478 19.404 18.5021 19.5948C18.4784 19.6221 18.4547 19.6493 18.4309 19.6732C18.1937 19.8913 17.7802 20.1401 17.1431 20.0719C16.7635 20.031 16.3466 19.8845 15.8756 19.6289C15.1605 19.237 14.2996 18.5724 13.249 17.6011L14.1674 16.5957C15.1367 17.4921 15.9094 18.0919 16.5263 18.4293C16.9736 18.6747 17.3464 18.7735 17.4922 18.6883C17.6582 18.4736 17.8345 18.2725 18.0276 18.0817C18.841 17.2637 19.6985 16.7696 20.5695 16.623C21.4405 16.4765 22.3115 16.6639 23.1553 17.1922C23.5993 17.458 24.006 17.7817 24.3687 18.1498C25.3447 19.1313 25.8497 20.1503 25.8666 21.1864C25.887 22.2565 25.3854 23.3403 24.3788 24.4002C24.0264 24.7716 23.5315 25.1295 23.3723 25.2453L23.3519 25.259C23.3418 25.2658 23.3316 25.2726 23.3214 25.2828C22.6673 25.7361 21.8472 25.9747 20.8846 25.9917C20.8406 25.9951 20.8033 25.9951 20.7626 25.9951ZM7.31129 17.625C4.99992 15.0349 3.35281 12.4243 2.54621 10.0762C2.16324 8.95834 1.98023 7.92229 1.99717 6.99871C2.01751 6.03424 2.25474 5.2129 2.7021 4.55856L2.736 4.50744C2.85461 4.34385 3.21047 3.84969 3.57988 3.49525C4.63728 2.47966 5.71502 1.97527 6.7792 1.99571C7.8061 2.01616 8.82283 2.52055 9.79889 3.50207C10.1683 3.86673 10.4869 4.27569 10.7546 4.72214C11.2765 5.57075 11.4663 6.44661 11.3206 7.32248C11.1749 8.19834 10.6834 9.06058 9.87006 9.87851C9.68027 10.0728 9.48031 10.25 9.2668 10.417C9.17868 10.5669 9.28713 10.9554 9.54471 11.4258C9.89717 12.0631 10.5174 12.8571 11.4392 13.8591L10.4462 14.7861C9.44981 13.7023 8.76521 12.8196 8.36191 12.0869C8.09417 11.603 7.94166 11.177 7.89421 10.7885C7.81626 10.1341 8.06706 9.7081 8.28735 9.46613C8.31107 9.43887 8.33819 9.41501 8.3653 9.39457C8.55848 9.24802 8.7381 9.08784 8.91094 8.91403C9.52437 8.29718 9.88362 7.68714 9.98529 7.09414C10.0768 6.54545 9.9514 6.00016 9.59893 5.43102L9.58877 5.41057C9.38203 5.06295 9.13124 4.746 8.84316 4.46313C8.11112 3.73381 7.42991 3.37256 6.75547 3.35893C6.06071 3.3453 5.30833 3.72359 4.52205 4.48017C4.33565 4.65739 4.10858 4.93685 3.84423 5.30492L3.81373 5.34582C3.19352 6.26599 3.19691 7.78597 3.83068 9.63654C4.57628 11.8143 6.12849 14.2612 8.32124 16.7184L7.31129 17.625Z" fill="#86888C"/>
<path d="M20.9491 4.1803C21.1762 4.1803 21.2338 4.31321 21.0711 4.4768L20.2476 5.30495C20.0849 5.46854 19.9798 5.78548 20.0137 6.01382L20.1832 7.20323C20.2171 7.43157 20.4272 7.64286 20.6543 7.67695L21.8371 7.84735C21.8642 7.85075 21.8947 7.85416 21.9218 7.85416C22.1353 7.85416 22.3997 7.75533 22.542 7.61219L23.3656 6.78404C23.4266 6.71929 23.4876 6.69202 23.535 6.69202C23.6096 6.69202 23.6604 6.767 23.6604 6.90673C23.6604 6.90673 23.6672 8.78456 22.8199 9.63657C21.9862 10.4749 20.1696 10.4818 20.1086 10.4818H20.1052C19.8782 10.4818 19.5596 10.6147 19.4003 10.7749L9.9752 20.2424C9.81252 20.406 9.68374 20.7263 9.68374 20.9547C9.68374 20.9547 9.69052 22.8325 8.84324 23.6845C8.00952 24.5229 6.19296 24.5297 6.13195 24.5297C5.90488 24.5297 5.84727 24.3934 6.00995 24.2332L6.8335 23.405C6.99618 23.2415 7.10124 22.9245 7.06735 22.6962L6.89789 21.5068C6.864 21.2784 6.65388 21.0671 6.42681 21.033L5.24401 20.8626C5.2169 20.8592 5.18639 20.8558 5.15928 20.8558C4.94577 20.8558 4.68142 20.9547 4.53908 21.0978L3.71213 21.9294C3.65113 21.9907 3.59013 22.0214 3.54268 22.0214C3.46812 22.0214 3.41728 21.9464 3.41728 21.8067C3.41728 21.8067 3.4105 19.9288 4.25778 19.0768C5.0915 18.2385 6.90806 18.2316 6.96906 18.2316H6.97584C7.20291 18.2316 7.52149 18.0987 7.68416 17.9385L17.0991 8.46761C17.2618 8.30402 17.3906 7.98367 17.3906 7.75533C17.3906 7.75533 17.3838 5.8775 18.2311 5.02549C19.0682 4.18711 20.8847 4.1803 20.9491 4.1803ZM20.9457 2.81708C20.5051 2.8239 20.0646 2.8682 19.6308 2.95C18.6106 3.14085 17.821 3.51573 17.2753 4.06443C16.7263 4.61653 16.3501 5.42764 16.1603 6.4705C16.0925 6.84879 16.0519 7.22708 16.0383 7.61219L6.83011 16.8718C6.43697 16.8855 6.04384 16.9298 5.65748 17.0013C4.64075 17.1922 3.8477 17.5671 3.30205 18.1124C2.75302 18.6645 2.37683 19.4756 2.19043 20.5184C2.11248 20.9444 2.07181 21.3807 2.06503 21.8135C2.06164 22.1168 2.14298 22.4167 2.29888 22.6757C2.42908 22.8921 2.61259 23.071 2.83167 23.1952C3.05074 23.3194 3.29797 23.3846 3.54946 23.3846C3.95954 23.3846 4.36284 23.2108 4.67803 22.8904L5.31518 22.2497L5.64392 22.2974L5.69137 22.628L5.04744 23.2687C4.57974 23.739 4.43401 24.3866 4.66786 24.9591C4.90171 25.5317 5.46091 25.8895 6.12179 25.8895H6.12857C6.57254 25.8827 7.01312 25.8384 7.44693 25.7566C8.46705 25.5657 9.25671 25.1909 9.80236 24.6422C10.3514 24.0901 10.7276 23.2789 10.9174 22.2395C10.9852 21.8612 11.0258 21.4829 11.0394 21.0978L20.251 11.8348C20.6441 11.8211 21.0338 11.7768 21.4202 11.7052C22.4403 11.5144 23.23 11.1395 23.7756 10.5942C24.3247 10.0421 24.7009 9.23101 24.8873 8.18815C24.9652 7.76215 25.0059 7.32592 25.0127 6.8931C25.016 6.58978 24.9347 6.28987 24.7788 6.02746C24.5145 5.58782 24.04 5.31858 23.5316 5.31858C23.1215 5.31858 22.7182 5.49239 22.403 5.81275L21.7659 6.46028L21.4372 6.41256L21.3897 6.08539L22.0269 5.44468C22.4946 4.97437 22.6403 4.32344 22.4064 3.75089C22.1726 3.17834 21.6134 2.82049 20.9525 2.81708H20.9457Z" fill="#86888C"/>
</svg>
