<svg width="41" height="40" viewBox="0 0 41 40" fill="none" xmlns="http://www.w3.org/2000/svg">
<path fill-rule="evenodd" clip-rule="evenodd" d="M35.1341 34.8106C36.3427 33.5455 36.942 32.3061 36.9164 31.1128C36.8959 29.9707 36.2967 28.803 35.1392 27.6404C34.6987 27.1897 34.2019 26.7953 33.6591 26.4727C32.686 25.8735 31.7231 25.6635 30.7756 25.8171C29.7872 25.9861 28.7833 26.5649 27.8051 27.5431C27.5644 27.7787 27.3442 28.0347 27.1342 28.2959C27.042 28.4137 26.9242 28.5111 26.7962 28.5828C26.0382 29.013 24.9678 28.7262 23.4416 27.6814C21.8539 26.5905 20.0204 24.8133 18.7809 23.579L18.6324 23.4305C17.3981 22.2013 15.6261 20.3729 14.53 18.775C13.4852 17.2488 13.1984 16.1835 13.6235 15.4152C13.6952 15.2821 13.7925 15.1694 13.9155 15.0772C14.2279 14.8314 14.402 14.6726 14.6683 14.4063C15.6465 13.4281 16.2304 12.4294 16.3943 11.4358C16.5582 10.4781 16.3482 9.54082 15.7541 8.58309C15.4263 8.02996 15.0268 7.52293 14.571 7.07735C13.4187 5.925 12.251 5.32578 11.1088 5.30529C9.92577 5.27456 8.67611 5.87891 7.41109 7.08759C7.11403 7.3744 6.76577 7.79437 6.36629 8.35262C5.18321 10.053 5.26515 12.7315 6.54554 15.9376C7.97958 19.5381 10.7964 23.4971 14.6888 27.3894L14.7452 27.4509L14.8271 27.5328C18.7246 31.4252 22.6836 34.2421 26.284 35.6761C29.4594 36.9411 32.1892 37.0231 33.8178 35.8963C34.0893 35.7017 34.7192 35.2459 35.1341 34.8106ZM36.7678 26.0169C38.3658 27.6148 39.1903 29.31 39.2211 31.0718C39.2569 32.89 38.4426 34.6877 36.7986 36.4034C36.2403 36.9872 35.5079 37.5199 35.2314 37.7196C33.9715 38.5954 32.5374 39 30.8678 39C29.2187 39 27.3903 38.6056 25.4287 37.822C21.5363 36.2702 17.3111 33.2792 13.1984 29.1666L13.0602 29.0283C13.0192 28.9925 12.9782 28.9566 12.9475 28.9105C8.89121 24.8287 5.93608 20.6443 4.40473 16.7878C2.82729 12.8442 2.83754 9.40254 4.42522 7.09784C4.66593 6.75981 5.21906 5.9967 5.81828 5.42309C7.53912 3.77907 9.32655 2.97498 11.1498 3.00059C12.9065 3.03644 14.6069 3.86101 16.2048 5.45382C16.7938 6.03767 17.3111 6.69323 17.7361 7.40513C18.6068 8.81356 18.9295 10.3142 18.6734 11.8302C18.4224 13.3 17.6286 14.7187 16.3021 16.0401C16.1587 16.1886 16.0051 16.3269 15.8514 16.4652C15.9436 16.6751 16.1177 17.0029 16.4353 17.469C17.4186 18.9081 19.0934 20.6341 20.2713 21.8018L20.4198 21.9503C21.5875 23.1181 23.3186 24.7979 24.7527 25.7813C25.2187 26.0988 25.5465 26.2729 25.7565 26.3651C25.8845 26.2217 26.0177 26.0783 26.1867 25.9144C27.5081 24.5931 28.9267 23.7941 30.3966 23.5431C31.9177 23.2871 33.4132 23.6097 34.8473 24.4958C35.4823 24.8748 36.1379 25.3869 36.7678 26.0169ZM25.0292 14.898C24.9012 14.9953 24.8756 15.0465 24.8653 15.1028C24.8551 15.1643 24.8756 15.2309 24.9166 15.277L26.6067 17.1617C26.6989 17.2795 26.7501 17.3256 26.832 17.3307C26.8474 17.3153 27.001 17.2539 27.0164 17.2385L31.5182 13.3717C31.9894 12.962 32.7064 13.0081 33.1264 13.469L33.9817 14.4114L35.3748 7.88656L35.3543 7.88143L28.7782 8.39359L29.6028 9.31547C30.0279 9.79177 29.9869 10.519 29.5157 10.9441L29.5106 10.9492L25.0292 14.898ZM24.8295 18.6213L23.206 16.8237C22.2738 15.7891 22.3558 14.1963 23.3903 13.2642C23.4518 13.2079 23.5184 13.1515 23.5901 13.1003L27.1188 9.99151L26.914 9.76617C26.3352 9.12085 26.1662 8.24506 26.4684 7.47683C26.7757 6.7086 27.5029 6.1862 28.3736 6.11962L35.2109 5.5921L35.3953 5.58698C36.0611 5.58698 36.6961 5.86866 37.1263 6.36033C37.6026 6.90322 37.787 7.6356 37.6334 8.35774L36.1891 15.1028C36.0098 15.9376 35.4106 16.5881 34.6168 16.7981C33.8281 17.0132 32.983 16.752 32.4094 16.1118L32.1687 15.8455L28.517 18.985C28.01 19.4561 27.3288 19.6866 26.6374 19.62C25.9204 19.5637 25.2648 19.1949 24.8295 18.6213Z" fill="#86888C"/>
</svg>
