<svg width="24" height="24" viewBox="0 0 24 24" fill="none" xmlns="http://www.w3.org/2000/svg">
<path d="M6.74929 22.0509C6.42735 22.0509 6.07407 21.9939 5.95157 21.974L5.93732 21.9711L5.91168 21.9654C4.80627 21.7632 3.81197 20.7518 3.10826 19.1164C2.38462 17.4298 2 15.1791 2 12.6036V12.5124C2 9.93694 2.38177 7.68623 3.10826 5.99677C3.81197 4.36145 4.80627 3.35005 5.91168 3.14777L5.93732 3.14492L5.95157 3.14207C6.07977 3.12213 6.47009 3.0566 6.80627 3.06515C8.7094 3.10788 9.71225 4.11928 9.71225 5.98253C9.7151 6.32156 9.67521 6.65774 9.59259 6.98823C9.4416 7.6321 9.11966 8.13068 8.63818 8.47256C8.1567 8.81444 7.53276 8.98538 6.77208 8.98538C6.60684 8.98538 6.43875 8.97683 6.2735 8.95689C6.23077 8.99108 6.04558 9.18481 5.92023 10.0025C5.79772 10.7888 5.78348 11.8116 5.78348 12.5096V12.6008C5.78348 13.3016 5.79772 14.3216 5.92023 15.1079C6.04843 15.9255 6.23077 16.1193 6.2735 16.1535C6.43875 16.1335 6.60399 16.125 6.77208 16.125C7.52991 16.125 8.15954 16.2959 8.63818 16.6378C9.11681 16.9797 9.4416 17.4811 9.59259 18.1221C9.67521 18.4498 9.7151 18.7888 9.71225 19.1278C9.71225 20.9939 8.70655 22.0025 6.80627 22.0452L6.74929 22.0509ZM6.09972 20.8999L6.13105 20.9056C6.41026 20.9512 6.62963 20.9711 6.78633 20.9683C7.45014 20.954 7.93447 20.7945 8.22222 20.4953C8.50142 20.2048 8.63533 19.7603 8.63533 19.1335C8.63818 18.8857 8.60969 18.6406 8.54986 18.3985C8.54701 18.3928 8.54701 18.3871 8.54701 18.3814C8.4302 17.88 8.11966 17.2133 6.78063 17.2133C6.62963 17.2133 6.48148 17.2218 6.33048 17.2418C6.30199 17.2446 6.2735 17.2475 6.24501 17.2446C5.96581 17.2332 5.5698 17.1136 5.26781 16.6065C5.10256 16.333 4.98006 15.9654 4.89174 15.4897C4.76353 14.8002 4.70655 13.9113 4.70655 12.6036V12.5124C4.70655 11.2048 4.76353 10.313 4.89174 9.6264C4.98006 9.15062 5.10256 8.7831 5.26781 8.50959C5.5698 8.00247 5.96581 7.88281 6.24501 7.87142C6.2735 7.87142 6.30199 7.87142 6.33048 7.87427C6.47863 7.89421 6.62963 7.90276 6.78063 7.90276C8.12251 7.90276 8.43305 7.23609 8.54701 6.73467C8.54701 6.72897 8.54986 6.72327 8.54986 6.71757C8.60969 6.47826 8.63818 6.23039 8.63533 5.98253C8.63533 5.3529 8.49858 4.90845 8.22222 4.62071C7.93162 4.32156 7.44729 4.16202 6.78348 4.14492C6.62678 4.14207 6.40456 4.16202 6.12821 4.2076L6.09687 4.2133C5.37322 4.3529 4.64957 5.15632 4.10256 6.42412C3.63818 7.50674 3.08262 9.44122 3.08262 12.5067V12.6036C3.08262 15.6691 3.63818 17.6036 4.10256 18.6862C4.64672 19.954 5.37322 20.7575 6.09402 20.8971L6.09972 20.8999ZM12 22.5096C11.7009 22.5096 11.4587 22.2674 11.4587 21.9683C11.4587 21.6691 11.7009 21.427 12 21.427C16.9117 21.427 20.8946 17.4441 20.8917 12.5324C20.8917 10.1734 19.9544 7.9113 18.2878 6.24464C16.6239 4.57227 14.359 3.6321 12 3.64065C11.7009 3.64065 11.4587 3.39848 11.4587 3.09934C11.4587 2.80019 11.7009 2.55803 12 2.55803C17.51 2.56088 21.9772 7.03381 21.9715 12.5438C21.9687 16.5495 19.5727 20.1649 15.8832 21.7261C14.6553 22.2446 13.3333 22.5124 12 22.5096Z" fill="#86888C"/>
<path d="M12 22.5094C11.7009 22.5094 11.4587 22.2673 11.4587 21.9681C11.4587 21.669 11.7009 21.4268 12 21.4268C12.51 21.4268 13.0142 21.2188 13.4986 20.8114C14.0086 20.3841 14.4701 19.7601 14.8718 18.9596C15.7322 17.2502 16.2051 14.9681 16.2051 12.5322C16.2051 10.0963 15.7322 7.81142 14.8718 6.10487C14.4701 5.3043 14.0057 4.68037 13.4986 4.25302C13.0142 3.84561 12.51 3.63763 12 3.63763C11.7009 3.63763 11.4587 3.39547 11.4587 3.09632C11.4587 2.79718 11.7009 2.55501 12 2.55501C13.4815 2.55501 14.8462 3.64333 15.8405 5.61769C16.7749 7.47524 17.2878 9.92823 17.2878 12.5322C17.2878 15.1362 16.7749 17.5921 15.8405 19.4468C14.8462 21.4211 13.4815 22.5094 12 22.5094Z" fill="#86888C"/>
<path d="M12 9.52367C11.7009 9.52367 11.4587 9.28151 11.4587 8.98236C11.4587 8.68322 11.7009 8.44105 12 8.44105C13.4416 8.44105 14.8205 8.27866 16.0969 7.95387C17.2992 7.64903 18.3618 7.21028 19.1766 6.67752C19.4245 6.50943 19.7607 6.5778 19.9288 6.82567C20.0969 7.07353 20.0285 7.40971 19.7806 7.5778C19.7778 7.58065 19.7721 7.5835 19.7692 7.58635C17.8803 8.81712 15.0484 9.52367 12 9.52367ZM19.4729 18.706C19.3675 18.706 19.265 18.6747 19.1766 18.6177C18.3618 18.0878 17.2992 17.6462 16.0969 17.3413C14.8205 17.0194 13.4416 16.8542 12 16.8542C11.7009 16.8542 11.4587 16.612 11.4587 16.3128C11.4587 16.0137 11.7009 15.7715 12 15.7715C15.0484 15.7715 17.8803 16.4781 19.7692 17.7089C20.0199 17.8713 20.0912 18.2074 19.9259 18.4581C19.8262 18.6148 19.6553 18.706 19.4729 18.706Z" fill="#86888C"/>
<path d="M11.8747 22.5493C11.5755 22.5493 11.3333 22.3072 11.3333 22.008V3.09063C11.3333 2.79148 11.5755 2.54932 11.8747 2.54932C12.1738 2.54932 12.416 2.79148 12.416 3.09063V22.008C12.416 22.3072 12.1738 22.5493 11.8747 22.5493Z" fill="#86888C"/>
<path d="M21.1339 13.0935H12.0741C11.7749 13.0935 11.5328 12.8513 11.5328 12.5522C11.5328 12.253 11.7749 12.0109 12.0741 12.0109H21.1339C21.4331 12.0109 21.6752 12.253 21.6752 12.5522C21.6752 12.8513 21.4331 13.0935 21.1339 13.0935Z" fill="#86888C"/>
</svg>
