<svg width="41" height="40" viewBox="0 0 41 40" fill="none" xmlns="http://www.w3.org/2000/svg">
<path d="M30.4971 38.0151C28.9108 38.0151 27.1044 37.6257 25.1497 36.8418C21.1583 35.2483 16.7883 32.1434 12.5154 27.8651L12.3619 27.7114C8.08909 23.4382 4.99322 19.0626 3.39666 15.0661C1.87687 11.2387 1.83593 7.96977 3.29432 5.85881L3.34549 5.78195C3.51948 5.53602 4.05678 4.79308 4.61455 4.26022C6.20598 2.7436 7.823 1.98529 9.42979 2.01604C10.9803 2.04678 12.5103 2.80508 13.9789 4.27559C14.5367 4.82382 15.0177 5.43867 15.4169 6.10475C16.2049 7.37542 16.4915 8.69221 16.2663 10.009C16.0411 11.3258 15.3094 12.6118 14.0813 13.8415C13.7947 14.1285 13.4928 14.4 13.1755 14.6511C13.0527 14.8663 13.1295 15.5477 14.0813 16.9414C15.1866 18.5502 17.0288 20.4562 18.3183 21.7474L18.4718 21.9011C19.7613 23.1923 21.6649 25.0368 23.2717 26.1435C24.6635 27.0965 25.3441 27.1683 25.5591 27.0504C25.8098 26.7328 26.0759 26.4253 26.3676 26.1435C27.5957 24.9138 28.8852 24.176 30.2003 23.9557C31.5154 23.7354 32.8254 24.0172 34.0996 24.8062C34.7699 25.2059 35.384 25.6875 35.9264 26.246C37.395 27.7165 38.1524 29.2485 38.1831 30.801C38.2138 32.4098 37.4564 34.0289 35.9418 35.6224C35.4096 36.1809 34.6676 36.7137 34.422 36.8931L34.3913 36.9135C34.3759 36.9238 34.3606 36.934 34.3452 36.9494C33.3115 37.6616 32.0067 38.0151 30.4971 38.0151ZM13.9687 26.4202C18.042 30.5038 22.1715 33.4448 25.907 34.9358C29.0131 36.1757 31.6536 36.2987 33.1631 35.2688L33.2245 35.2278C33.7772 34.8282 34.1917 34.4849 34.4629 34.2031C35.5938 33.0144 36.1618 31.8821 36.1413 30.8368C36.1209 29.8223 35.5784 28.7925 34.4834 27.6909C34.0586 27.2554 33.5827 26.8813 33.0608 26.5688L33.0301 26.5534C32.1806 26.0206 31.367 25.8361 30.5432 25.9745C29.6579 26.123 28.7419 26.6713 27.8157 27.5935C27.5547 27.8497 27.3142 28.1213 27.0942 28.4133C27.0584 28.4543 27.0226 28.4953 26.9867 28.5312C26.5518 28.9359 25.7689 29.351 24.5305 29.0333C23.8295 28.854 23.0414 28.4594 22.1203 27.8292C20.3703 26.6303 18.3797 24.6935 17.0288 23.346L16.8752 23.1923C15.5294 21.8447 13.6003 19.8465 12.3977 18.0993C11.7683 17.1771 11.3743 16.388 11.1952 15.6861C10.8831 14.4461 11.2975 13.6622 11.7018 13.2216C11.7376 13.1806 11.7786 13.1447 11.8195 13.114C12.1112 12.8936 12.3824 12.6528 12.6382 12.3915C13.5593 11.4693 14.1017 10.5521 14.2553 9.66059C14.3934 8.83568 14.2041 8.02101 13.677 7.17048L13.6617 7.13973C13.3495 6.61712 12.9709 6.14061 12.541 5.71535C11.4357 4.62912 10.4072 4.08601 9.39397 4.06551C8.35007 4.05014 7.21406 4.60863 6.032 5.74609C5.75055 6.01252 5.4077 6.42754 5.00857 6.98602L4.96251 7.04751C3.93908 8.559 4.05678 11.2028 5.29513 14.3129C6.78422 18.0532 9.72658 22.188 13.7998 26.2665L13.8919 26.3587L13.9687 26.4202Z" fill="#86888C"/>
<path d="M21.5984 20.031C20.8359 20.0412 20.2065 19.4315 20.1963 18.6681C20.1963 18.5553 20.2065 18.4426 20.2321 18.3299L22.0026 10.0346C22.1101 9.52226 22.4529 9.1431 22.9135 9.01501C23.374 8.88692 23.8601 9.05088 24.2132 9.44028L25.4362 10.7929L30.973 6.0279C31.3107 5.69998 31.7764 5.54114 32.242 5.58213C32.7231 5.62312 33.1631 5.86906 33.4497 6.25334L35.5221 8.56413C35.8496 8.93303 36.0032 9.41978 35.9417 9.90654C35.8855 10.3625 35.645 10.7776 35.2714 11.0491L29.7602 15.9013L30.9679 17.2437C31.321 17.6382 31.4284 18.1403 31.2493 18.5912C31.0702 19.0421 30.6506 19.3341 30.1184 19.3751L21.7161 20.0258C21.6751 20.031 21.6342 20.031 21.5984 20.031ZM23.6964 11.9201L22.4171 17.92L28.4042 17.4537L27.8925 16.8901C27.3296 16.2599 27.3756 15.2915 28.005 14.7279C28.0102 14.7228 28.0153 14.7177 28.0204 14.7177L33.7567 9.6606L32.0732 7.78532L26.4034 12.6682C25.7637 13.2113 24.8119 13.1498 24.2439 12.5299L23.6964 11.9201Z" fill="#86888C"/>
</svg>
