<svg width="40" height="40" viewBox="0 0 40 40" fill="none" xmlns="http://www.w3.org/2000/svg">
<path d="M25.9489 35.1235C24.6992 35.1235 23.2806 34.8162 21.7492 34.2068C18.6506 32.9727 15.2703 30.571 11.9668 27.268L11.8439 27.1451C8.54047 23.8421 6.14354 20.4623 4.90923 17.3641C3.71077 14.3531 3.69028 11.767 4.85801 10.0822C4.86826 10.0669 4.8785 10.0566 4.88874 10.0412L4.90411 10.0208C5.04239 9.82617 5.46237 9.24751 5.90795 8.82247C7.17812 7.60881 8.47901 7.00967 9.77479 7.03527C11.0296 7.06088 12.2588 7.66514 13.4316 8.83783C13.8721 9.26799 14.2562 9.7596 14.5738 10.2871C15.8491 12.3457 15.47 14.5528 13.5136 16.5141C13.3036 16.724 13.0834 16.9237 12.8529 17.1081C12.8478 17.2259 12.9041 17.7329 13.7748 18.9107C14.625 20.0629 15.89 21.3636 16.7709 22.2393L16.8887 22.357C17.7645 23.2327 19.0654 24.5027 20.2178 25.3528C21.3958 26.2233 21.9028 26.2796 22.0206 26.2745C22.205 26.0441 22.4048 25.8239 22.6147 25.6139C24.5712 23.6526 26.7786 23.2788 28.8375 24.5488C29.3702 24.8663 29.8567 25.2503 30.287 25.6907C31.4598 26.8634 32.0693 28.0925 32.0898 29.3471C32.1154 30.6427 31.511 31.9485 30.3023 33.2134C29.8772 33.6589 29.2934 34.0788 29.1039 34.2171L29.0424 34.2631C28.2076 34.8367 27.1576 35.1235 25.9489 35.1235ZM13.4265 25.829C15.593 27.9952 18.9272 30.8782 22.5123 32.307C24.817 33.2287 26.7633 33.3311 27.8593 32.5886L27.9054 32.5579C28.4176 32.1892 28.689 31.9434 28.8222 31.8C30.4457 30.0998 30.4508 28.7479 28.8375 27.14C28.5251 26.8225 28.1768 26.5459 27.7978 26.3155L27.7671 26.3001C26.9886 25.8136 25.7543 25.363 24.059 27.0631C23.8644 27.2526 23.6852 27.4575 23.5213 27.6725C23.4854 27.7135 23.4496 27.7545 23.4137 27.7903C23.0347 28.1385 22.3587 28.5021 21.3036 28.2307C20.7351 28.0873 20.1051 27.775 19.3779 27.2731C18.3279 26.5562 17.1141 25.4859 15.4342 23.8062L15.3164 23.6885C13.6365 22.0088 12.5712 20.7952 11.8491 19.7454C11.3471 19.0182 11.0347 18.3883 10.8913 17.8199C10.625 16.765 10.9835 16.089 11.3318 15.7101C11.3676 15.6691 11.4086 15.6333 11.4496 15.6026C11.6647 15.4387 11.8695 15.2595 12.059 15.0649C13.7543 13.3698 13.3087 12.1357 12.8222 11.3573L12.8068 11.3266C12.5763 10.9476 12.2998 10.5943 11.9822 10.2871C10.3689 8.67396 9.02191 8.67908 7.32152 10.3024C7.18324 10.4356 6.9374 10.7018 6.56352 11.2191L6.53279 11.2651C5.79527 12.3559 5.89771 14.3018 6.81448 16.6114C8.24342 20.196 11.1269 23.5297 13.2934 25.701L13.3497 25.7522L13.4265 25.829ZM37.1039 15.5206H32.1103C30.3638 15.5206 28.858 14.942 27.7671 13.8461C26.6762 12.7502 26.0923 11.2498 26.0923 9.50355V4.51066C26.0923 3.94736 26.5533 3.48648 27.1167 3.48648C27.68 3.48648 28.141 3.94736 28.141 4.51066V9.50355C28.141 10.6967 28.5149 11.6953 29.2165 12.3969C29.9182 13.0984 30.922 13.4723 32.1103 13.4723H37.1039C37.6672 13.4723 38.1282 13.9331 38.1282 14.4964C38.1282 15.0597 37.6724 15.5206 37.1039 15.5206Z" fill="#86888C"/>
<path d="M36.6173 39H14.1333C13.0578 39 12.1102 38.0526 12.1102 36.9772V27.9849C12.1102 27.4216 12.5712 26.9607 13.1346 26.9607C13.698 26.9607 14.1589 27.4216 14.1589 27.9849V36.9311C14.164 36.9414 14.1743 36.9465 14.1794 36.9516H36.5814L36.5917 36.9414V13.9383L27.2191 5.04836H14.1999C14.1845 5.05861 14.1691 5.07397 14.1589 5.08933V9.79033C14.1589 10.3536 13.698 10.8145 13.1346 10.8145C12.5712 10.8145 12.1102 10.3536 12.1102 9.79033V5.02276C12.1102 3.98321 13.0936 3 14.1333 3H27.6288C27.89 3 28.1461 3.10242 28.3356 3.28165L38.3228 12.7553C38.5277 12.9499 38.6403 13.2162 38.6403 13.4979V36.9772C38.6403 38.0526 37.6928 39 36.6173 39Z" fill="#86888C"/>
</svg>
