<svg width="28" height="28" viewBox="0 0 28 28" fill="none" xmlns="http://www.w3.org/2000/svg">
<path d="M16.6313 23.4156C15.7982 23.4156 14.8524 23.2108 13.8315 22.8045C11.7658 21.9818 9.51224 20.3806 7.30993 18.1787L7.22798 18.0967C5.02568 15.8947 3.42773 13.6415 2.60485 11.5761C1.80588 9.5687 1.79222 7.84466 2.57071 6.72148C2.57754 6.71123 2.58436 6.70441 2.59119 6.69416L2.60144 6.68051C2.69363 6.55078 2.97361 6.165 3.27066 5.88165C4.11744 5.07254 4.98471 4.67311 5.84856 4.69018C6.68509 4.70725 7.50455 5.1101 8.28646 5.89189C8.5801 6.17866 8.83618 6.5064 9.04787 6.85803C9.89807 8.23044 9.6454 9.70184 8.34109 11.0094C8.2011 11.1494 8.05428 11.2825 7.90063 11.4054C7.89721 11.4839 7.93477 11.8219 8.51522 12.6071C9.08202 13.3752 9.92538 14.2424 10.5127 14.8262L10.5912 14.9047C11.1751 15.4885 12.0423 16.3351 12.8106 16.9018C13.5959 17.4822 13.9339 17.5198 14.0125 17.5164C14.1354 17.3627 14.2685 17.2159 14.4085 17.076C15.7128 15.7684 17.1845 15.5192 18.5571 16.3659C18.9122 16.5775 19.2365 16.8336 19.5233 17.1272C20.3052 17.909 20.7116 18.7283 20.7252 19.5647C20.7423 20.4284 20.3394 21.299 19.5336 22.1422C19.2502 22.4393 18.8609 22.7192 18.7346 22.8114L18.6936 22.8421C18.1371 23.2245 17.4371 23.4156 16.6313 23.4156ZM8.28304 17.2193C9.72734 18.6634 11.9501 20.5855 14.3402 21.538C15.8767 22.1525 17.1742 22.2208 17.9049 21.7257L17.9356 21.7053C18.2771 21.4595 18.458 21.2956 18.5468 21.2C19.6292 20.0666 19.6326 19.1653 18.5571 18.0933C18.3488 17.8816 18.1166 17.6973 17.8639 17.5437L17.8434 17.5334C17.3244 17.2091 16.5016 16.9087 15.3714 18.0421C15.2416 18.1684 15.1221 18.305 15.0129 18.4484C14.989 18.4757 14.9651 18.503 14.9412 18.5269C14.6885 18.759 14.2378 19.0014 13.5344 18.8205C13.1554 18.7249 12.7355 18.5166 12.2506 18.1821C11.5506 17.7041 10.7414 16.9906 9.6215 15.8708L9.54297 15.7923C8.42303 14.6725 7.71283 13.8634 7.2314 13.1636C6.89678 12.6788 6.6885 12.2589 6.5929 11.8799C6.41535 11.1767 6.65436 10.726 6.88654 10.4734C6.91044 10.4461 6.93776 10.4222 6.96507 10.4017C7.10848 10.2925 7.24506 10.173 7.37139 10.0432C8.50156 8.91323 8.20451 8.09047 7.88014 7.57155L7.8699 7.55106C7.71625 7.29843 7.53187 7.06287 7.32017 6.85803C6.24463 5.78264 5.34664 5.78606 4.21305 6.86828C4.12086 6.95704 3.95696 7.13456 3.70771 7.47937L3.68722 7.5101C3.19555 8.23726 3.26384 9.53456 3.87502 11.0742C4.82764 13.464 6.74996 15.6865 8.19427 17.134L8.23183 17.1681L8.28304 17.2193ZM24.0679 10.3471H20.7389C19.5746 10.3471 18.5707 9.9613 17.8434 9.23072C17.1162 8.50014 16.7269 7.49985 16.7269 6.3357V3.00711C16.7269 2.63158 17.0342 2.32432 17.4098 2.32432C17.7854 2.32432 18.0927 2.63158 18.0927 3.00711V6.3357C18.0927 7.13115 18.3419 7.79687 18.8097 8.26458C19.2775 8.73229 19.9467 8.9815 20.7389 8.9815H24.0679C24.4435 8.9815 24.7508 9.28876 24.7508 9.66429C24.7508 10.0398 24.4469 10.3471 24.0679 10.3471Z" fill="#86888C"/>
<path d="M23.7436 26H8.75423C8.0372 26 7.40553 25.3684 7.40553 24.6515V18.6566C7.40553 18.2811 7.71283 17.9738 8.08842 17.9738C8.464 17.9738 8.7713 18.2811 8.7713 18.6566V24.6208C8.77472 24.6276 8.78155 24.631 8.78496 24.6344H23.7197L23.7265 24.6276V9.29218L17.4781 3.36558H8.79862C8.78837 3.3724 8.77813 3.38265 8.7713 3.39289V6.52688C8.7713 6.90242 8.464 7.20967 8.08842 7.20967C7.71283 7.20967 7.40553 6.90242 7.40553 6.52688V3.34851C7.40553 2.65548 8.0611 2 8.75423 2H17.7512C17.9254 2 18.0961 2.06828 18.2224 2.18777L24.8806 8.50356C25.0171 8.63329 25.0923 8.81081 25.0923 8.99858V24.6515C25.0923 25.3684 24.4606 26 23.7436 26Z" fill="#86888C"/>
</svg>
