<svg width="29" height="28" viewBox="0 0 29 28" fill="none" xmlns="http://www.w3.org/2000/svg">
<path d="M21.0741 26.0151C20.0165 26.0151 18.8123 25.7555 17.5091 25.2329C14.8482 24.1706 11.9348 22.1006 9.0863 19.2484L8.98395 19.146C6.1354 16.2972 4.07149 13.3801 3.00712 10.7158C1.99392 8.16417 1.96663 5.98489 2.93889 4.57758L2.973 4.52635C3.08899 4.36239 3.44719 3.8671 3.81904 3.51186C4.88 2.50078 5.95801 1.99524 7.0292 2.01574C8.06287 2.03623 9.08288 2.54177 10.062 3.5221C10.4338 3.88759 10.7545 4.29749 11.0206 4.74154C11.5459 5.58866 11.737 6.46652 11.5869 7.34438C11.4368 8.22224 10.9489 9.07961 10.1302 9.8994C9.93916 10.0907 9.73788 10.2717 9.52637 10.4391C9.4445 10.5826 9.49567 11.0369 10.1302 11.966C10.8671 13.0385 12.0952 14.3092 12.9549 15.17L13.0572 15.2725C13.9169 16.1332 15.1859 17.3629 16.2571 18.1007C17.185 18.7361 17.6388 18.7839 17.782 18.7053C17.9492 18.4936 18.1266 18.2886 18.3211 18.1007C19.1398 17.2809 19.9995 16.7891 20.8762 16.6422C21.753 16.4953 22.6263 16.6832 23.4757 17.2092C23.9226 17.4756 24.332 17.7967 24.6936 18.1691C25.6727 19.1494 26.1776 20.1707 26.1981 21.2057C26.2185 22.2783 25.7136 23.3576 24.7038 24.42C24.3491 24.7923 23.8544 25.1475 23.6906 25.2671L23.6702 25.2807C23.6599 25.2876 23.6497 25.2944 23.6395 25.3047C22.9504 25.7794 22.0805 26.0151 21.0741 26.0151ZM10.0551 18.2852C12.7706 21.0076 15.5237 22.9682 18.014 23.9622C20.0848 24.7889 21.8451 24.8708 22.8514 24.1843L22.8924 24.1569C23.2608 23.8905 23.5371 23.6617 23.7179 23.4738C24.4719 22.6813 24.8505 21.9264 24.8369 21.2296C24.8232 20.5533 24.4616 19.8667 23.7316 19.1323C23.4484 18.842 23.1312 18.5926 22.7832 18.3842L22.7627 18.374C22.1964 18.0188 21.654 17.8958 21.1048 17.988C20.5146 18.0871 19.904 18.4526 19.2865 19.0674C19.1125 19.2382 18.9522 19.4192 18.8055 19.6139C18.7816 19.6413 18.7577 19.6686 18.7338 19.6925C18.4439 19.9623 17.9219 20.239 17.0963 20.0272C16.629 19.9077 16.1036 19.6447 15.4896 19.2245C14.3228 18.4252 12.9958 17.1341 12.0952 16.2357L11.9928 16.1332C11.0956 15.2349 9.80952 13.9027 9.00783 12.7379C8.58823 12.1231 8.32555 11.5971 8.20615 11.1291C7.99805 10.3025 8.27437 9.77985 8.54388 9.48609C8.56776 9.45876 8.59505 9.43485 8.62234 9.41436C8.81679 9.26748 8.9976 9.10693 9.16817 8.93273C9.78223 8.31788 10.1438 7.70646 10.2462 7.11211C10.3383 6.56216 10.2121 6.01905 9.86069 5.45203L9.85046 5.43153C9.64236 5.08312 9.38991 4.76545 9.10335 4.48194C8.36648 3.75779 7.68078 3.39572 7.00532 3.38206C6.30939 3.37181 5.55205 3.74413 4.76401 4.50244C4.57638 4.68006 4.34781 4.95674 4.08172 5.32906L4.05102 5.37005C3.36873 6.37771 3.44719 8.14026 4.27276 10.2137C5.26549 12.7072 7.22706 15.4637 9.94257 18.1827L10.004 18.2442L10.0551 18.2852Z" fill="#86888C"/>
<path d="M15.1416 14.0257C14.6333 14.0325 14.2137 13.626 14.2069 13.1171C14.2069 13.0419 14.2137 12.9668 14.2307 12.8916L15.4111 7.36146C15.4827 7.01988 15.7113 6.76712 16.0183 6.68172C16.3254 6.59633 16.6494 6.70563 16.8848 6.96523L17.7002 7.867L21.3913 4.69031C21.6165 4.4717 21.9269 4.36581 22.2374 4.39313C22.558 4.42046 22.8514 4.58442 23.0425 4.8406L24.4241 6.38113C24.6424 6.62707 24.7448 6.95157 24.7038 7.27607C24.6663 7.58008 24.506 7.85676 24.2569 8.03779L20.5828 11.2726L21.3879 12.1675C21.6233 12.4305 21.695 12.7653 21.5756 13.0658C21.4562 13.3664 21.1764 13.5611 20.8216 13.5885L15.22 14.0223C15.1928 14.0257 15.1655 14.0257 15.1416 14.0257ZM16.5403 8.61848L15.6874 12.6184L19.6788 12.3075L19.3377 11.9318C18.9624 11.5117 18.9931 10.8661 19.4127 10.4903C19.4161 10.4869 19.4195 10.4835 19.4229 10.4835L23.2472 7.11211L22.1248 5.86193L18.3449 9.11718C17.9185 9.47926 17.284 9.43827 16.9053 9.02496L16.5403 8.61848Z" fill="#86888C"/>
</svg>
