<svg width="28" height="28" viewBox="0 0 28 28" fill="none" xmlns="http://www.w3.org/2000/svg">
<path fill-rule="evenodd" clip-rule="evenodd" d="M22.7997 12.4115L20.9113 11.4929C20.6825 11.3836 20.4195 11.4007 20.2078 11.5339C19.9961 11.6705 19.8697 11.9061 19.8697 12.1588L19.9107 25.5316H8.38879L8.42977 12.1588C8.42977 11.9061 8.30342 11.6705 8.09169 11.5339C7.88338 11.3973 7.61702 11.3802 7.39164 11.4895L5.43489 12.4252L3.65573 8.46046L9.6967 4.95335C10.0928 7.16279 11.6398 8.36143 14.1532 8.36143C16.6153 8.36143 18.1725 7.13547 18.5891 4.967L24.3637 8.4707L22.7997 12.4115ZM25.6443 7.52819L18.3501 3.10929C18.3398 3.10588 18.333 3.10588 18.3228 3.09905C18.2681 3.07173 18.2169 3.05466 18.1554 3.03758C18.1145 3.02392 18.0735 3.01709 18.0291 3.01368C18.0154 3.01026 18.0018 3.00343 17.9847 3.00343C17.9574 3.00343 17.9369 3.01709 17.9096 3.01709C17.8515 3.02392 17.7935 3.03417 17.7354 3.05466C17.7081 3.0649 17.6842 3.07856 17.6569 3.09222C17.5988 3.12295 17.5442 3.1571 17.4929 3.20491C17.4759 3.22199 17.4588 3.23906 17.4451 3.25955C17.4144 3.2937 17.3768 3.32102 17.3529 3.362C17.3393 3.3859 17.3359 3.41322 17.329 3.43371C17.3188 3.4542 17.3154 3.47127 17.3085 3.48835C17.2812 3.56689 17.2641 3.64202 17.2607 3.72056C17.2607 3.72739 17.2573 3.73081 17.2573 3.73764C17.2573 5.88562 16.2704 6.88618 14.1532 6.88618C12.0359 6.88618 11.049 5.88562 11.049 3.73764C11.049 3.47469 10.9124 3.23223 10.687 3.09905C10.4616 2.96928 10.185 2.96587 9.96306 3.09563L2.36489 7.51453C2.04047 7.70235 1.91071 8.11214 2.06438 8.45704L4.42408 13.7126C4.50604 13.8936 4.65288 14.0302 4.83729 14.0985C5.02169 14.1668 5.22317 14.1565 5.39733 14.0712L6.97843 13.3165L6.94087 26.2624C6.94087 26.457 7.016 26.6448 7.15259 26.7849C7.28919 26.9249 7.4736 27 7.66825 27H20.6415C20.8361 27 21.0205 26.9215 21.1571 26.7849C21.2937 26.6448 21.3689 26.457 21.3689 26.2624L21.3279 13.3233L22.8714 14.0712C23.0524 14.1599 23.2641 14.1668 23.4485 14.0951C23.6364 14.0199 23.7832 13.8731 23.8583 13.6853L25.9448 8.42972C26.078 8.09848 25.9483 7.71259 25.6443 7.52819Z" fill="#86888C"/>
</svg>
