<svg width="40" height="40" viewBox="0 0 40 40" fill="none" xmlns="http://www.w3.org/2000/svg">
<path fill-rule="evenodd" clip-rule="evenodd" d="M33.1996 16.1173L30.3669 14.7393C30.0237 14.5754 29.6293 14.601 29.3117 14.8008C28.9941 15.0057 28.8046 15.3592 28.8046 15.7382L28.866 35.7974H11.5832L11.6447 15.7382C11.6447 15.3592 11.4551 15.0057 11.1375 14.8008C10.8251 14.5959 10.4255 14.5703 10.0875 14.7342L7.15234 16.1378L4.48359 10.1907L13.5451 4.93002C14.1392 8.24419 16.4597 10.0421 20.2297 10.0421C23.923 10.0421 26.2588 8.20321 26.8837 4.95051L35.5456 10.2061L33.1996 16.1173ZM37.4665 8.79228L26.5251 2.16394C26.5098 2.15882 26.4995 2.15882 26.4841 2.14857C26.4022 2.10759 26.3254 2.08198 26.2331 2.05637C26.1717 2.03588 26.1102 2.02564 26.0436 2.02051C26.0231 2.01539 26.0026 2.00515 25.977 2.00515C25.9361 2.00515 25.9053 2.02564 25.8643 2.02564C25.7773 2.03588 25.6902 2.05125 25.6031 2.08198C25.5621 2.09735 25.5263 2.11784 25.4853 2.13833C25.3982 2.18443 25.3162 2.23565 25.2394 2.30737C25.2138 2.33298 25.1882 2.35859 25.1677 2.38932C25.1216 2.44055 25.0653 2.48153 25.0294 2.543C25.0089 2.57885 25.0038 2.61983 24.9935 2.65057C24.9782 2.6813 24.973 2.70691 24.9628 2.73252C24.9218 2.85034 24.8962 2.96303 24.8911 3.08084C24.8911 3.09109 24.886 3.09621 24.886 3.10646C24.886 6.32842 23.4056 7.82928 20.2297 7.82928C17.0539 7.82928 15.5735 6.32842 15.5735 3.10646C15.5735 2.71203 15.3686 2.34835 15.0305 2.14857C14.6925 1.95392 14.2776 1.9488 13.9446 2.14345L2.54734 8.77179C2.06071 9.05352 1.86606 9.66821 2.09657 10.1856L5.63612 18.0689C5.75906 18.3404 5.97932 18.5453 6.25593 18.6477C6.53254 18.7502 6.83475 18.7348 7.096 18.6067L9.46765 17.4747L9.4113 36.8936C9.4113 37.1855 9.524 37.4673 9.72889 37.6773C9.93379 37.8873 10.2104 38 10.5024 38H29.9622C30.2542 38 30.5308 37.8822 30.7357 37.6773C30.9406 37.4673 31.0533 37.1855 31.0533 36.8936L30.9918 17.4849L33.3071 18.6067C33.5786 18.7399 33.8962 18.7502 34.1728 18.6426C34.4545 18.5299 34.6748 18.3096 34.7875 18.0279L37.9173 10.1446C38.117 9.64772 37.9224 9.06889 37.4665 8.79228Z" fill="#86888C"/>
</svg>
