<svg width="40" height="40" viewBox="0 0 40 40" fill="none" xmlns="http://www.w3.org/2000/svg">
<path fill-rule="evenodd" clip-rule="evenodd" d="M28.7746 11.2151C29.2151 11.6557 29.2151 12.3677 28.7746 12.8031L21.5777 20L28.7695 27.1918C29.2151 27.6221 29.2305 28.3341 28.7951 28.7849C28.3648 29.2305 27.6528 29.2459 27.202 28.8105L27.1764 28.7849L19.9898 21.5931L12.8184 28.7644C12.383 29.2049 11.671 29.2049 11.2305 28.7695L11.2254 28.7644C10.7849 28.3238 10.7849 27.6118 11.2254 27.1713L18.3967 20L11.2254 12.8287C10.7695 12.4035 10.7439 11.6915 11.169 11.2408C11.5942 10.7849 12.3062 10.7592 12.757 11.1844L12.8133 11.2408L19.9846 18.4121L27.1764 11.2203C27.6221 10.7746 28.3341 10.7746 28.7746 11.2151C28.7695 11.2151 28.7695 11.2151 28.7746 11.2151ZM19.9949 35.7513C30.5931 35.7513 35.7513 30.5982 35.7513 20.0051C35.7513 9.40694 30.5982 4.24872 20 4.24872C9.40182 4.24872 4.25384 9.40182 4.25384 20.0051C4.24872 30.5982 9.40182 35.7513 19.9949 35.7513ZM19.9949 2C31.3665 2 38 7.7473 38 20.0051C38 32.2681 31.3665 38 19.9949 38C8.62322 38 2 32.2681 2 20.0051C2 7.7473 8.62322 2 19.9949 2Z" fill="#86888C"/>
</svg>
