<svg width="28" height="28" viewBox="0 0 28 28" fill="none" xmlns="http://www.w3.org/2000/svg">
<path fill-rule="evenodd" clip-rule="evenodd" d="M19.8497 8.14343C20.1434 8.43711 20.1434 8.91178 19.8497 9.20205L15.0518 14L19.8463 18.7945C20.1434 19.0814 20.1537 19.5561 19.8634 19.8566C19.5765 20.1537 19.1019 20.1639 18.8014 19.8736L18.7843 19.8566L13.9932 15.062L9.21229 19.8429C8.92203 20.1366 8.44735 20.1366 8.15367 19.8463L8.15026 19.8429C7.85657 19.5492 7.85657 19.0746 8.15026 18.7809L12.9311 14L8.15026 9.21912C7.84633 8.93569 7.82925 8.46101 8.11269 8.1605C8.39613 7.85657 8.8708 7.8395 9.17131 8.12294L9.20888 8.1605L13.9898 12.9414L18.7843 8.14684C19.0814 7.84974 19.5561 7.84974 19.8497 8.14343C19.8463 8.14343 19.8463 8.14343 19.8497 8.14343ZM13.9966 24.5009C21.062 24.5009 24.5009 21.0655 24.5009 14.0034C24.5009 6.93796 21.0655 3.49915 14 3.49915C6.93455 3.49915 3.50256 6.93455 3.50256 14.0034C3.49915 21.0655 6.93455 24.5009 13.9966 24.5009ZM13.9966 2C21.5777 2 26 5.83153 26 14.0034C26 22.1787 21.5777 26 13.9966 26C6.41548 26 2 22.1787 2 14.0034C2 5.83153 6.41548 2 13.9966 2Z" fill="#86888C"/>
</svg>
