<svg width="40" height="40" viewBox="0 0 40 40" fill="none" xmlns="http://www.w3.org/2000/svg">
<path fill-rule="evenodd" clip-rule="evenodd" d="M19.9949 35.7513C15.2464 35.7513 11.5993 34.7063 9.01252 32.6113L32.6061 9.01764C34.7063 11.6044 35.7513 15.2567 35.7513 20.0102C35.7513 30.5982 30.5931 35.7513 19.9949 35.7513ZM19.9949 4.24872C24.7689 4.24872 28.4263 5.30393 31.0182 7.41947L7.41947 31.0233C5.30393 28.4314 4.24872 24.774 4.24872 20.0051C4.24872 9.40182 9.40182 4.24872 19.9949 4.24872ZM19.9949 2C8.62322 2 2 7.74218 2 20.0051C2 32.2681 8.62322 38 19.9949 38C31.3665 38 38 32.2681 38 20.0051C38 7.74218 31.3665 2 19.9949 2Z" fill="#86888C"/>
</svg>
