<svg width="24" height="24" viewBox="0 0 24 24" fill="none" xmlns="http://www.w3.org/2000/svg">
<path fill-rule="evenodd" clip-rule="evenodd" d="M11.9972 20.7507C9.35913 20.7507 7.33295 20.1702 5.89585 19.0063L19.0034 5.89869C20.1702 7.3358 20.7507 9.36483 20.7507 12.0057C20.7507 17.8879 17.885 20.7507 11.9972 20.7507ZM11.9972 3.24929C14.6494 3.24929 16.6813 3.83552 18.1212 5.01081L5.01081 18.1241C3.83552 16.6841 3.24929 14.6522 3.24929 12.0028C3.24929 6.11212 6.11212 3.24929 11.9972 3.24929ZM11.9972 2C5.67957 2 2 5.1901 2 12.0028C2 18.8156 5.67957 22 11.9972 22C18.3147 22 22 18.8156 22 12.0028C22 5.1901 18.3147 2 11.9972 2" fill="#86888C"/>
</svg>
