<svg width="28" height="28" viewBox="0 0 28 28" fill="none" xmlns="http://www.w3.org/2000/svg">
<path fill-rule="evenodd" clip-rule="evenodd" d="M13.9966 24.5009C10.831 24.5009 8.39954 23.8042 6.67501 22.4075L22.4041 6.67843C23.8042 8.40296 24.5009 10.8378 24.5009 14.0068C24.5009 21.0655 21.062 24.5009 13.9966 24.5009ZM13.9966 3.49915C17.1793 3.49915 19.6175 4.20262 21.3455 5.61298L5.61298 21.3489C4.20262 19.6209 3.49915 17.1827 3.49915 14.0034C3.49915 6.93455 6.93455 3.49915 13.9966 3.49915ZM13.9966 2C6.41548 2 2 5.82812 2 14.0034C2 22.1787 6.41548 26 13.9966 26C21.5777 26 26 22.1787 26 14.0034C26 5.82812 21.5777 2 13.9966 2" fill="#86888C"/>
</svg>
