<svg width="20" height="20" viewBox="0 0 20 20" fill="none" xmlns="http://www.w3.org/2000/svg">
<path fill-rule="evenodd" clip-rule="evenodd" d="M16.8512 12.6961C16.9531 12.5322 17.0708 12.1451 16.6475 11.4462C15.957 10.3102 14.5601 10.1986 14.5466 10.1964C14.3881 10.185 14.2455 10.0985 14.1617 9.95959C14.1142 9.87991 12.9256 7.97439 10.0188 7.97439C8.83247 7.96073 7.69146 8.43654 6.8606 9.29027C6.07277 10.0894 5.66526 11.0797 5.66979 11.6443C5.64942 11.9949 5.65621 12.3455 5.69243 12.6938H6.33538C6.5097 11.8606 7.14359 11.3574 8.08311 11.3574C9.0249 11.3574 9.65653 11.8606 9.83085 12.6938H11.9385C12.1129 11.8651 12.7468 11.362 13.6863 11.362C14.6258 11.362 15.2574 11.8628 15.434 12.6938L16.8512 12.6961ZM13.684 14.0233C14.2523 14.0233 14.5171 13.757 14.5171 13.1833C14.5171 12.6096 14.2523 12.3409 13.684 12.3409C13.1158 12.3409 12.8509 12.6073 12.8509 13.1833C12.8509 13.757 13.1158 14.0233 13.684 14.0233ZM8.08085 14.0188C8.64909 14.0188 8.91397 13.7524 8.91397 13.1764C8.91397 12.6027 8.64909 12.3364 8.08085 12.3364C7.51261 12.3364 7.24773 12.6027 7.24773 13.1764C7.24773 13.7501 7.51261 14.0188 8.08085 14.0188ZM17.4715 10.9385C18.316 12.3341 17.7568 13.2766 17.3425 13.5794C17.2587 13.6409 17.1591 13.6727 17.0572 13.6727H15.4295C15.2529 14.4991 14.6213 15 13.684 15C12.7468 15 12.1151 14.5014 11.9385 13.6727H9.82406C9.64521 14.4969 9.01358 14.9932 8.08085 14.9932C7.14586 14.9932 6.51423 14.4969 6.33764 13.6727H5.27814C5.05401 13.6727 4.85931 13.5202 4.80724 13.3017C4.80045 13.2743 4.64424 12.6118 4.70084 11.6238C4.69405 10.8884 5.14683 9.64997 6.17238 8.60729C6.8923 7.87422 8.1465 7 10.0188 7C12.9324 7 14.413 8.65737 14.8522 9.25384C15.3955 9.34263 16.7109 9.68412 17.4715 10.9385ZM3.88357 11.7649C4.15071 11.7649 4.36805 11.9835 4.36805 12.2521C4.36805 12.5208 4.15071 12.7393 3.88357 12.7393H2.82859C2.56145 12.7393 2.34411 12.5208 2.34411 12.2521C2.34411 11.9835 2.55918 11.7649 2.82859 11.7649H3.88357ZM4.08732 10.1394C4.35446 10.1394 4.5718 10.358 4.5718 10.6266C4.5718 10.8953 4.35446 11.1138 4.08732 11.1138H2.48448C2.21733 11.1161 2 10.8976 2 10.6266C2 10.3557 2.21733 10.1394 2.48448 10.1394H4.08732ZM5.08118 9.0239C5.08118 9.29254 4.86384 9.5111 4.5967 9.5111H3.35155C3.08441 9.5111 2.86708 9.29254 2.86708 9.0239C2.86708 8.75527 3.08441 8.53671 3.35155 8.53671H4.5967C4.86384 8.53443 5.08118 8.75299 5.08118 9.0239Z" fill="#86888C"/>
</svg>
