<svg width="20" height="20" viewBox="0 0 20 20" fill="none" xmlns="http://www.w3.org/2000/svg">
<path fill-rule="evenodd" clip-rule="evenodd" d="M13.6507 8.6955C13.5233 8.6955 13.3958 8.6477 13.2979 8.54752L11.8932 7.13375C11.7999 7.04041 11.7475 6.91292 11.7475 6.7786V4.8617C11.7475 4.58395 11.9706 4.36084 12.2461 4.36084C12.5215 4.36084 12.7447 4.58623 12.7447 4.8617V6.56915L14.0036 7.83722C14.1971 8.03301 14.1971 8.34946 14.0036 8.54752C13.9057 8.64542 13.7782 8.6955 13.6507 8.6955ZM16.8175 15.3546C16.97 15.0928 17.1772 14.4576 16.624 13.4149C15.7748 11.8031 14.1402 11.6892 14.1266 11.6892C13.9535 11.6824 13.801 11.5822 13.7145 11.4274C13.6553 11.3204 12.1596 8.70461 8.50106 8.70461C6.68205 8.70461 5.43447 9.5811 4.70367 10.3164C3.59497 11.4411 3.00305 12.9459 3.00988 13.7883C2.97573 14.4713 3.00988 15.0131 3.05541 15.3546H4.01159C4.19144 14.3233 4.96093 13.7018 6.10379 13.7018C7.24664 13.7018 8.01614 14.3233 8.19599 15.3546H10.9643C11.1374 14.3233 11.9023 13.7086 13.0429 13.7086C14.1857 13.7086 14.9552 14.3233 15.1283 15.3546H16.8175ZM14.1812 15.8554V15.8486C14.1812 15.0791 13.8101 14.7126 13.0452 14.7126C12.2802 14.7126 11.916 15.0814 11.916 15.8486V15.8554C11.916 16.6181 12.2802 16.9937 13.0452 16.9937C13.8101 16.9937 14.1812 16.6181 14.1812 15.8554ZM7.23982 15.8554V15.8418C7.23982 15.0723 6.86873 14.7057 6.10379 14.7057C5.34112 14.7057 4.96776 15.0746 4.96776 15.8418C4.96776 16.6113 5.33885 16.9869 6.10379 16.9869C6.8619 16.9869 7.23299 16.6181 7.23982 15.8554ZM7.59269 7.73933V7.76437C7.87727 7.71884 8.18461 7.69835 8.50106 7.69835C12.1482 7.69835 13.9604 9.97268 14.4521 10.7149C14.764 10.7695 15.2945 10.9038 15.8727 11.2316C16.624 10.4417 17.0019 9.26921 17.0019 7.73933C17.0019 4.59533 15.4151 3.00171 12.2939 3.00171C9.17948 3.00171 7.59269 4.59306 7.59269 7.73933ZM16.6832 11.8418C16.9814 12.1286 17.2683 12.4906 17.5073 12.9459C18.6092 15.0404 17.455 16.1719 17.4071 16.2197C17.3138 16.3062 17.1954 16.3608 17.0611 16.3608H15.1283C14.9416 17.3853 14.1789 18 13.0429 18C11.9069 18 11.1442 17.3853 10.9643 16.3608H8.18916C8.00248 17.3785 7.23982 17.9932 6.10379 17.9932C4.96776 17.9932 4.2051 17.3785 4.01842 16.3608H2.62513C2.39292 16.3608 2.19258 16.1946 2.14021 15.9647C2.13338 15.9328 1.9467 15.0677 2.015 13.7701C2.00817 12.7592 2.62513 11.0063 4.0002 9.61525C4.57846 9.02561 5.4413 8.35629 6.60464 7.98748C6.59781 7.9078 6.59781 7.82129 6.59781 7.7416C6.59781 4.04212 8.62399 2 12.2962 2C15.9752 2 18.0013 4.04212 18.0013 7.7416C17.9991 9.49232 17.5551 10.8719 16.6832 11.8418Z" fill="#86888C"/>
</svg>
