<svg width="40" height="40" viewBox="0 0 40 40" fill="none" xmlns="http://www.w3.org/2000/svg">
<path fill-rule="evenodd" clip-rule="evenodd" d="M35.4152 24.8162C35.6445 24.4474 35.9093 23.5766 34.9568 22.004C33.4032 19.4479 30.2603 19.1969 30.2298 19.1918C29.8732 19.1662 29.5523 18.9715 29.3638 18.6591C29.2569 18.4798 26.5826 14.1924 20.0422 14.1924C17.3731 14.1616 14.8058 15.2322 12.9364 17.1531C11.1637 18.9511 10.2468 21.1793 10.257 22.4496C10.2112 23.2385 10.2265 24.0273 10.308 24.811H11.7546C12.1468 22.9363 13.5731 21.8042 15.687 21.8042C17.806 21.8042 19.2272 22.9363 19.6194 24.811H24.3617C24.7539 22.9465 26.1802 21.8145 28.2941 21.8145C30.4081 21.8145 31.8292 22.9414 32.2265 24.811L35.4152 24.8162ZM28.289 27.8025C29.5676 27.8025 30.1636 27.2032 30.1636 25.9124C30.1636 24.6215 29.5676 24.0171 28.289 24.0171C27.0105 24.0171 26.4145 24.6164 26.4145 25.9124C26.4145 27.2032 27.0105 27.8025 28.289 27.8025ZM15.6819 27.7923C16.9605 27.7923 17.5564 27.1929 17.5564 25.897C17.5564 24.6061 16.9605 24.0068 15.6819 24.0068C14.4034 24.0068 13.8074 24.6061 13.8074 25.897C13.8074 27.1878 14.4034 27.7923 15.6819 27.7923ZM36.8109 20.8617C38.7109 24.0017 37.4528 26.1224 36.5206 26.8036C36.3321 26.9419 36.108 27.0137 35.8788 27.0137H32.2163C31.819 28.8731 30.3979 30 28.289 30C26.1802 30 24.759 28.8782 24.3617 27.0137H19.6041C19.2017 28.868 17.7806 29.9846 15.6819 29.9846C13.5782 29.9846 12.157 28.868 11.7597 27.0137H9.3758C8.87152 27.0137 8.43345 26.6705 8.3163 26.1787C8.30101 26.1172 7.94954 24.6266 8.07689 22.4035C8.06161 20.749 9.08036 17.9624 11.3878 15.6164C13.0077 13.967 15.8296 12 20.0422 12C26.5979 12 29.9292 15.7291 30.9174 17.0711C32.1399 17.2709 35.0994 18.0393 36.8109 20.8617ZM6.23803 22.7211C6.8391 22.7211 7.3281 23.2129 7.3281 23.8173C7.3281 24.4217 6.8391 24.9135 6.23803 24.9135H3.86433C3.26326 24.9135 2.77426 24.4217 2.77426 23.8173C2.77426 23.2129 3.25817 22.7211 3.86433 22.7211H6.23803ZM6.69647 19.0637C7.29754 19.0637 7.78654 19.5555 7.78654 20.1599C7.78654 20.7644 7.29754 21.2561 6.69647 21.2561H3.09007C2.489 21.2612 2 20.7695 2 20.1599C2 19.5504 2.489 19.0637 3.09007 19.0637H6.69647ZM8.93264 16.5538C8.93264 17.1582 8.44364 17.65 7.84257 17.65H5.04099C4.43992 17.65 3.95092 17.1582 3.95092 16.5538C3.95092 15.9493 4.43992 15.4576 5.04099 15.4576H7.84257C8.44364 15.4525 8.93264 15.9442 8.93264 16.5538Z" fill="#86888C"/>
</svg>
