<svg width="28" height="28" viewBox="0 0 28 28" fill="none" xmlns="http://www.w3.org/2000/svg">
<path fill-rule="evenodd" clip-rule="evenodd" d="M24.2768 16.5441C24.4296 16.2982 24.6062 15.7177 23.9712 14.6693C22.9355 12.9653 20.8402 12.798 20.8198 12.7945C20.5821 12.7775 20.3682 12.6477 20.2425 12.4394C20.1712 12.3199 18.3884 9.46158 14.0281 9.46158C12.2487 9.44109 10.5372 10.1548 9.29091 11.4354C8.10915 12.634 7.49789 14.1195 7.50469 14.9664C7.47412 15.4923 7.48431 16.0182 7.53864 16.5407H8.50307C8.76455 15.2908 9.71539 14.5361 11.1247 14.5361C12.5373 14.5361 13.4848 15.2908 13.7463 16.5407H16.9078C17.1693 15.2977 18.1201 14.543 19.5294 14.543C20.9387 14.543 21.8861 15.2943 22.151 16.5407L24.2768 16.5441ZM19.526 18.535C20.3784 18.535 20.7757 18.1355 20.7757 17.2749C20.7757 16.4143 20.3784 16.0114 19.526 16.0114C18.6737 16.0114 18.2763 16.4109 18.2763 17.2749C18.2763 18.1355 18.6737 18.535 19.526 18.535ZM11.1213 18.5282C11.9736 18.5282 12.371 18.1286 12.371 17.2647C12.371 16.4041 11.9736 16.0046 11.1213 16.0046C10.2689 16.0046 9.8716 16.4041 9.8716 17.2647C9.8716 18.1252 10.2689 18.5282 11.1213 18.5282ZM25.2073 13.9078C26.4739 16.0011 25.6352 17.4149 25.0137 17.8691C24.8881 17.9613 24.7387 18.0091 24.5859 18.0091H22.1442C21.8794 19.2487 20.9319 20 19.526 20C18.1201 20 17.1727 19.2521 16.9078 18.0091H13.7361C13.4678 19.2453 12.5204 19.9898 11.1213 19.9898C9.71879 19.9898 8.77134 19.2453 8.50646 18.0091H6.9172C6.58101 18.0091 6.28897 17.7803 6.21086 17.4525C6.20068 17.4115 5.96636 16.4178 6.05126 14.9357C6.04107 13.8327 6.72024 11.975 8.25857 10.4109C9.33845 9.31133 11.2198 8 14.0281 8C18.3986 8 20.6195 10.4861 21.2783 11.3808C22.0933 11.5139 24.0663 12.0262 25.2073 13.9078ZM4.82535 15.1474C5.22606 15.1474 5.55207 15.4752 5.55207 15.8782C5.55207 16.2812 5.22606 16.609 4.82535 16.609H3.24288C2.84217 16.609 2.51617 16.2812 2.51617 15.8782C2.51617 15.4752 2.83878 15.1474 3.24288 15.1474H4.82535ZM5.13098 12.7092C5.53169 12.7092 5.85769 13.037 5.85769 13.44C5.85769 13.8429 5.53169 14.1707 5.13098 14.1707H2.72671C2.326 14.1742 2 13.8463 2 13.44C2 13.0336 2.326 12.7092 2.72671 12.7092H5.13098ZM6.62176 11.0359C6.62176 11.4388 6.29576 11.7666 5.89505 11.7666H4.02733C3.62662 11.7666 3.30061 11.4388 3.30061 11.0359C3.30061 10.6329 3.62662 10.3051 4.02733 10.3051H5.89505C6.29576 10.3017 6.62176 10.6295 6.62176 11.0359Z" fill="#86888C"/>
</svg>
