<svg width="40" height="40" viewBox="0 0 40 40" fill="none" xmlns="http://www.w3.org/2000/svg">
<path fill-rule="evenodd" clip-rule="evenodd" d="M28.2142 17.0649C27.9273 17.0649 27.6405 16.9573 27.4202 16.7319L24.2597 13.5509C24.0497 13.3409 23.9319 13.0541 23.9319 12.7518V8.43882C23.9319 7.81389 24.4339 7.31189 25.0537 7.31189C25.6735 7.31189 26.1755 7.81901 26.1755 8.43882V12.2806L29.0081 15.1337C29.4435 15.5743 29.4435 16.2863 29.0081 16.7319C28.7879 16.9522 28.501 17.0649 28.2142 17.0649ZM35.3394 32.0478C35.6826 31.4587 36.1487 30.0296 34.904 27.6835C32.9933 24.0569 29.3155 23.8008 29.2847 23.8008C28.8954 23.7854 28.5522 23.56 28.3576 23.2117C28.2244 22.971 24.859 17.0854 16.6274 17.0854C12.5346 17.0854 9.72755 19.0575 8.08327 20.712C5.58867 23.2425 4.25686 26.6283 4.27223 28.5236C4.19539 30.0603 4.27223 31.2795 4.37467 32.0478H6.52607C6.93073 29.7274 8.6621 28.329 11.2335 28.329C13.805 28.329 15.5363 29.7274 15.941 32.0478H22.1698C22.5591 29.7274 24.2802 28.3443 26.8465 28.3443C29.4179 28.3443 31.1493 29.7274 31.5386 32.0478H35.3394ZM29.4077 33.1747V33.1594C29.4077 31.428 28.5727 30.6033 26.8516 30.6033C25.1305 30.6033 24.3109 31.4331 24.3109 33.1594V33.1747C24.3109 34.8907 25.1305 35.7359 26.8516 35.7359C28.5727 35.7359 29.4077 34.8907 29.4077 33.1747ZM13.7896 33.1747V33.144C13.7896 31.4126 12.9546 30.5879 11.2335 30.5879C9.51753 30.5879 8.67746 31.4178 8.67746 33.144C8.67746 34.8754 9.51241 35.7205 11.2335 35.7205C12.9393 35.7205 13.7742 34.8907 13.7896 33.1747ZM14.5836 14.9135V14.9698C15.2238 14.8674 15.9154 14.8213 16.6274 14.8213C24.8334 14.8213 28.9108 19.9385 30.0172 21.6084C30.719 21.7314 31.9125 22.0336 33.2136 22.7712C34.904 20.9937 35.7543 18.3557 35.7543 14.9135C35.7543 7.8395 32.184 4.25384 25.1612 4.25384C18.1538 4.25384 14.5836 7.83438 14.5836 14.9135ZM35.0372 24.144C35.7082 24.7894 36.3536 25.6039 36.8915 26.6283C39.3707 31.3409 36.7736 33.8867 36.6661 33.9943C36.4561 34.189 36.1897 34.3119 35.8875 34.3119H31.5386C31.1186 36.617 29.4026 38 26.8465 38C24.2904 38 22.5744 36.617 22.1698 34.3119H15.9256C15.5056 36.6016 13.7896 37.9846 11.2335 37.9846C8.67746 37.9846 6.96147 36.6016 6.54143 34.3119H3.40655C2.88406 34.3119 2.4333 33.938 2.31548 33.4206C2.30011 33.3489 1.88008 31.4024 2.03375 28.4826C2.01838 26.2083 3.40655 22.2641 6.50046 19.1343C7.80154 17.8076 9.74291 16.3016 12.3604 15.4718C12.3451 15.2925 12.3451 15.0979 12.3451 14.9186C12.3451 6.59476 16.904 2 25.1664 2C33.4441 2 38.003 6.59476 38.003 14.9186C37.9979 18.8577 36.999 21.9619 35.0372 24.144Z" fill="#86888C"/>
</svg>
