<svg width="40" height="40" viewBox="0 0 40 40" fill="none" xmlns="http://www.w3.org/2000/svg">
<path fill-rule="evenodd" clip-rule="evenodd" d="M36.3954 28.6444C36.3954 29.124 36.166 29.6297 35.7594 30.0311C35.3736 30.4116 34.8992 30.6306 34.4405 30.6514C34.4457 30.5159 34.4718 30.3908 34.4718 30.25C34.4718 26.7 32.2562 24.5001 28.6957 24.5001C25.1352 24.5001 22.9197 26.7052 22.9197 30.25C22.9197 30.396 22.9458 30.5211 22.951 30.6567H16.7527C16.7579 30.5211 16.784 30.3908 16.784 30.25C16.784 26.7 14.5685 24.5001 11.008 24.5001C7.44749 24.5001 5.23196 26.7052 5.23196 30.25V30.2605C5.11206 30.1823 4.97652 30.1301 4.87226 30.0259C4.46564 29.6245 4.23627 29.1188 4.23627 28.6392V21.5704H19.0673C19.6876 21.5704 20.1881 21.0699 20.1881 20.4548V11.0766H27.0745C27.8408 11.0766 28.6801 11.4936 29.1128 12.0931C29.9416 13.2296 34.7376 19.5738 35.3684 20.3818C35.7542 20.8823 36.3954 21.7163 36.3954 22.4201V28.6444ZM28.701 33.774C26.3603 33.774 25.1717 32.5907 25.1717 30.2553C25.1717 27.9198 26.3603 26.7365 28.701 26.7365C31.0416 26.7365 32.2354 27.9198 32.2354 30.2553C32.2354 32.5907 31.0416 33.774 28.701 33.774ZM11.0132 33.774C8.67255 33.774 7.48398 32.5907 7.48398 30.2553C7.48398 27.9198 8.67255 26.7365 11.0132 26.7365C13.3538 26.7365 14.5424 27.9198 14.5424 30.2553C14.5476 32.5907 13.359 33.774 11.0132 33.774ZM8.62042 9.25202L15.5694 19.3184L13.3382 19.3131L8.33891 9.24681C8.34413 9.24681 8.62042 9.25202 8.62042 9.25202ZM37.146 19.0212C36.5205 18.2132 31.7558 11.9107 30.9425 10.7846C30.0876 9.60129 28.5758 8.84019 27.0849 8.84019H19.0777C18.4574 8.84019 17.9569 9.34064 17.9569 9.95578V18.8179L10.1426 7.50566C9.9341 7.20331 9.59525 7.02085 9.22513 7.02085L6.54042 7H6.53C6.42574 7 6.33711 7.04692 6.23807 7.07298C6.15466 7.08862 6.07125 7.09905 5.99306 7.13554C5.98784 7.13554 5.98263 7.14075 5.9722 7.14596C5.58644 7.32842 5.33622 7.71418 5.33622 8.13644L5.32579 15.9455C5.331 16.0237 5.30494 16.373 5.1694 16.5242C5.10684 16.5919 4.98173 16.6232 4.79928 16.6284C4.62203 16.5711 4.47086 16.6128 4.38745 16.5242C4.26755 16.3939 4.23106 16.0654 4.2467 15.8882C4.31968 15.2731 3.87657 14.7153 3.26144 14.6423C2.6463 14.5693 2.08851 15.0124 2.01553 15.6275C1.99989 15.7787 1.87477 17.082 2.71407 18.0151C3.06334 18.4009 3.70454 18.8648 4.78885 18.8648H4.81491C5.84709 18.8596 6.47265 18.4113 6.81671 18.0412C7.64037 17.155 7.5726 15.9247 7.56217 15.8726L7.56739 12.7239L10.8516 19.334H3.1259C2.50555 19.334 2.0051 19.8344 2.0051 20.4496V28.6392C2.0051 29.7079 2.47427 30.787 3.29793 31.6054C3.95998 32.2623 4.78885 32.6689 5.72719 32.8201C6.55606 34.8219 8.42232 36 11.0132 36C13.5728 36 15.4182 34.8479 16.2627 32.8878H23.4514C24.296 34.8479 26.1414 36 28.701 36C31.2605 36 33.1059 34.8479 33.9505 32.8878H34.3675C35.4362 32.8878 36.5205 32.4187 37.3441 31.6002C38.1678 30.7818 38.637 29.7027 38.637 28.634V22.4253C38.637 20.9552 37.6621 19.6989 37.146 19.0212Z" fill="#86888C"/>
</svg>
