<svg width="28" height="28" viewBox="0 0 28 28" fill="none" xmlns="http://www.w3.org/2000/svg">
<path fill-rule="evenodd" clip-rule="evenodd" d="M24.0811 20.2569C24.6103 19.9223 24.6206 19.7277 24.4055 19.3043C24.1869 18.9219 23.7772 18.7751 23.405 18.9014L18.9082 20.4277C18.7785 20.4755 18.6522 20.5267 18.5258 20.5813C18.181 20.7964 17.7849 20.9125 17.3786 20.9125H11.4682C11.0619 20.9125 10.7341 20.5847 10.7341 20.1784V20.175C10.7341 19.7755 11.0585 19.4375 11.4682 19.4375H17.3786C17.761 19.4375 18.1605 19.038 18.1605 18.6522C18.1605 18.3005 17.942 17.9351 17.5425 17.9351H17.2079C16.2279 17.9556 14.1861 18.0034 12.2569 16.7947C12.2467 16.7845 11.2565 16.2177 8.08792 16.1391V21.4691L13.7115 24.1801C14.1212 24.4157 14.6129 24.525 15.207 24.525C15.7157 24.525 16.1357 24.4464 16.4772 24.2894C16.5079 24.2689 22.2885 21.3939 24.0811 20.2569ZM6.62655 23.5723V15.5177C6.62655 15.3709 6.50704 15.2514 6.36022 15.2514H3.74136C3.59454 15.2514 3.47162 15.3675 3.4682 15.5177V23.5723C3.47162 23.7226 3.59112 23.8455 3.74136 23.8489H6.35339C6.50363 23.8455 6.62655 23.7226 6.62655 23.5723ZM25.6961 18.618C26.0478 19.2872 26.3892 20.5403 24.863 21.5032C23.0158 22.6709 17.3513 25.4981 17.1054 25.6244C16.5591 25.8703 15.9206 26 15.207 26C14.3466 26 13.6125 25.8224 13.0252 25.4776L8.09475 23.1012V23.5723C8.09475 24.5352 7.32309 25.3205 6.35339 25.3205H3.74136C2.7819 25.3205 2 24.5352 2 23.5723V15.5177C2 14.5583 2.77849 13.7798 3.74136 13.7798H6.35339C7.00896 13.7798 7.56551 14.1451 7.8694 14.6743C11.6458 14.7358 12.8579 15.4289 13.073 15.5758C14.589 16.5284 16.2723 16.4908 17.184 16.4703H17.563C18.1195 16.4772 18.6487 16.7128 19.0312 17.1191C19.4033 17.5117 19.6287 18.0615 19.6287 18.659L22.927 17.5117C23.9855 17.1498 25.1191 17.58 25.6483 18.5327C25.6449 18.5292 25.6961 18.618 25.6961 18.618ZM5.02177 16.0538C5.54076 16.0538 5.89245 16.4055 5.89245 16.9279C5.89245 17.4366 5.54076 17.7917 5.02177 17.7917C4.51302 17.7917 4.15109 17.4366 4.15109 16.9279C4.15109 16.4089 4.51302 16.0538 5.02177 16.0538ZM17.901 3.47162C14.3978 3.47162 12.6974 5.18225 12.6974 8.69569C12.6974 12.2091 14.3978 13.9163 17.901 13.9163C21.4076 13.9163 23.1114 12.2091 23.1114 8.69569C23.108 5.18225 21.4042 3.47162 17.901 3.47162ZM17.901 15.3914C13.5988 15.3914 11.2292 13.0149 11.2292 8.6991C11.2258 4.37644 13.5954 2 17.901 2C22.2066 2 24.5762 4.37986 24.5762 8.69569C24.5762 13.0149 22.2032 15.3914 17.901 15.3914ZM15.0773 8.35083V9.04055H16.822C17.2283 9.04055 17.5561 9.36833 17.5561 9.77465L17.5595 11.5262H18.2458V9.77465C18.2458 9.36833 18.5736 9.03713 18.9799 9.03713H20.7247V8.34742H18.9799C18.5736 8.34742 18.2458 8.01622 18.2458 7.6099V5.86172H17.5561L17.5595 7.61332C17.5595 8.01963 17.2318 8.34742 16.8288 8.35083H15.0773ZM16.0913 10.5122H14.7221C14.1212 10.5122 13.6125 10.0376 13.6125 9.47759V7.9172C13.6125 7.35382 14.1212 6.87921 14.7221 6.87921H16.0879V5.5032C16.0879 4.89885 16.5625 4.3901 17.1191 4.3901H18.6761C19.236 4.3901 19.7072 4.89885 19.7072 5.50662V6.8758H21.0764C21.6773 6.8758 22.1861 7.35041 22.1861 7.91037V9.47076C22.1861 10.0307 21.6773 10.5053 21.0764 10.5053H19.7072V11.8813C19.7072 12.4857 19.236 12.9945 18.6761 12.9945H17.1259C16.5659 12.9945 16.0947 12.4857 16.0947 11.8813L16.0913 10.5122Z" fill="#86888C"/>
</svg>
