<svg width="24" height="24" viewBox="0 0 24 24" fill="none" xmlns="http://www.w3.org/2000/svg">
<path fill-rule="evenodd" clip-rule="evenodd" d="M20.4009 17.2141C20.8419 16.9353 20.8505 16.7731 20.6712 16.4203C20.4891 16.1016 20.1477 15.9792 19.8375 16.0845L16.0902 17.3564C15.9821 17.3962 15.8768 17.4389 15.7715 17.4844C15.4841 17.6637 15.1541 17.7604 14.8155 17.7604H9.89017C9.55157 17.7604 9.27842 17.4873 9.27842 17.1487V17.1458C9.27842 16.8129 9.54873 16.5312 9.89017 16.5312H14.8155C15.1342 16.5312 15.4671 16.1983 15.4671 15.8768C15.4671 15.5837 15.285 15.2793 14.9521 15.2793H14.6732C13.8566 15.2963 12.1551 15.3362 10.5474 14.3289C10.5389 14.3204 9.71376 13.8481 7.07327 13.7826V18.2242L11.7596 20.4834C12.101 20.6798 12.5107 20.7708 13.0058 20.7708C13.4298 20.7708 13.7798 20.7054 14.0643 20.5745C14.0899 20.5574 18.9071 18.1616 20.4009 17.2141ZM5.85546 19.977V13.2648C5.85546 13.1424 5.75587 13.0428 5.63352 13.0428H3.45113C3.32878 13.0428 3.22635 13.1396 3.2235 13.2648V19.977C3.22635 20.1021 3.32594 20.2046 3.45113 20.2074H5.62783C5.75302 20.2046 5.85546 20.1021 5.85546 19.977ZM21.7468 15.8483C22.0398 16.406 22.3244 17.4503 21.0525 18.2527C19.5132 19.2258 14.7927 21.5817 14.5878 21.687C14.1326 21.8919 13.6005 22 13.0058 22C12.2888 22 11.6771 21.852 11.1877 21.5647L7.07896 19.5843V19.977C7.07896 20.7793 6.43591 21.4338 5.62783 21.4338H3.45113C2.65159 21.4338 2 20.7793 2 19.977V13.2648C2 12.4652 2.64874 11.8165 3.45113 11.8165H5.62783C6.17414 11.8165 6.63793 12.1209 6.89116 12.562C10.0381 12.6132 11.0482 13.1908 11.2275 13.3131C12.4908 14.107 13.8936 14.0757 14.6533 14.0586H14.9691C15.4329 14.0643 15.8739 14.2606 16.1926 14.5992C16.5028 14.9264 16.6906 15.3845 16.6906 15.8825L19.4392 14.9264C20.3212 14.6248 21.2659 14.9834 21.7069 15.7772C21.7041 15.7744 21.7468 15.8483 21.7468 15.8483ZM4.51814 13.7115C4.95063 13.7115 5.2437 14.0046 5.2437 14.4399C5.2437 14.8638 4.95063 15.1598 4.51814 15.1598C4.09418 15.1598 3.79257 14.8638 3.79257 14.4399C3.79257 14.0074 4.09418 13.7115 4.51814 13.7115ZM15.2508 3.22635C12.3315 3.22635 10.9145 4.65187 10.9145 7.57974C10.9145 10.5076 12.3315 11.9303 15.2508 11.9303C18.173 11.9303 19.5928 10.5076 19.5928 7.57974C19.59 4.65187 18.1702 3.22635 15.2508 3.22635ZM15.2508 13.1595C11.6657 13.1595 9.69099 11.1791 9.69099 7.58259C9.68815 3.98037 11.6628 2 15.2508 2C18.8388 2 20.8135 3.98321 20.8135 7.57974C20.8135 11.1791 18.836 13.1595 15.2508 13.1595ZM12.8977 7.29236V7.86712H14.3517C14.6903 7.86712 14.9634 8.14028 14.9634 8.47887L14.9663 9.93854H15.5382V8.47887C15.5382 8.14028 15.8114 7.86428 16.1499 7.86428H17.6039V7.28951H16.1499C15.8114 7.28951 15.5382 7.01352 15.5382 6.67492V5.2181H14.9634L14.9663 6.67776C14.9663 7.01636 14.6931 7.28952 14.3574 7.29236H12.8977ZM13.7428 9.09347H12.6018C12.101 9.09347 11.6771 8.69797 11.6771 8.23133V6.931C11.6771 6.46152 12.101 6.06601 12.6018 6.06601H13.7399V4.91933C13.7399 4.41571 14.1354 3.99175 14.5992 3.99175H15.8967C16.3634 3.99175 16.756 4.41571 16.756 4.92218V6.06317H17.897C18.3978 6.06317 18.8217 6.45867 18.8217 6.92531V8.22564C18.8217 8.69228 18.3978 9.08778 17.897 9.08778H16.756V10.2345C16.756 10.7381 16.3634 11.162 15.8967 11.162H14.6049C14.1383 11.162 13.7456 10.7381 13.7456 10.2345L13.7428 9.09347Z" fill="#86888C"/>
</svg>
