<svg width="40" height="40" viewBox="0 0 40 40" fill="none" xmlns="http://www.w3.org/2000/svg">
<path d="M26.95 29.5189H15.4813C13.949 29.5189 12.591 29.0013 11.5507 28.0276C10.4695 27.0078 9.7674 25.5371 9.47018 23.6564C9.22932 22.0985 6.81053 8.06235 6.48256 6.20214C6.26221 4.97224 4.98107 4.04982 3.49495 4.04982H1.02491C0.46121 4.04982 0 3.58861 0 3.02491C0 2.46121 0.46121 2 1.02491 2H3.48982C5.99061 2 8.0968 3.61424 8.49651 5.84342C8.82961 7.70876 11.2535 21.7757 11.4995 23.3386C11.725 24.7582 12.2118 25.8292 12.96 26.5364C13.6159 27.1564 14.4666 27.469 15.4813 27.469H26.9449C28.1953 27.469 29.9684 27.0335 30.9472 23.2413C31.1624 22.4162 31.8696 19.5619 32.5614 16.7997C32.956 15.2111 33.3352 13.6891 33.6273 12.531H28.2978C27.7341 12.531 27.2729 12.0698 27.2729 11.5061C27.2729 10.9423 27.7341 10.4811 28.2978 10.4811H34.9392C35.5029 10.4811 35.9641 10.9423 35.9641 11.5061C35.9641 11.5932 35.9539 11.6752 35.9334 11.7572C35.6515 12.8743 35.1186 15.0215 34.5498 17.2917C33.8631 20.0589 33.1507 22.9184 32.9355 23.7537C32.4487 25.6293 31.7466 27.013 30.773 27.9815C29.7532 29.0013 28.4669 29.5189 26.95 29.5189Z" fill="#86888C"/>
<path d="M13.4728 12.5313H8.63526C8.07156 12.5313 7.61035 12.0701 7.61035 11.5064C7.61035 10.9427 8.07156 10.4814 8.63526 10.4814H13.4728C14.0365 10.4814 14.4978 10.9427 14.4978 11.5064C14.4978 12.0701 14.0365 12.5313 13.4728 12.5313ZM15.4817 38.0003C14.5644 38.0003 13.8316 37.739 13.2986 37.2265C12.74 36.6884 12.4582 35.9351 12.4582 34.9768C12.4582 34.0185 12.74 33.2652 13.2986 32.7271C13.8316 32.2147 14.5695 31.9533 15.4817 31.9533C16.3938 31.9533 17.1318 32.2147 17.6647 32.7271C18.2233 33.2652 18.5052 34.0185 18.5052 34.9768C18.5052 35.9351 18.2233 36.6884 17.6647 37.2265C17.1369 37.739 16.399 38.0003 15.4817 38.0003ZM15.4817 34.0032C14.7335 34.0032 14.508 34.2286 14.508 34.9768C14.508 35.725 14.7335 35.9505 15.4817 35.9505C16.2299 35.9505 16.4553 35.725 16.4553 34.9768C16.4553 34.2286 16.2299 34.0032 15.4817 34.0032ZM25.4746 38.0003C24.5573 38.0003 23.8244 37.739 23.2915 37.2265C22.7329 36.6884 22.4511 35.9351 22.4511 34.9768C22.4511 34.0185 22.7329 33.2652 23.2915 32.7271C23.8244 32.2147 24.5624 31.9533 25.4746 31.9533C26.3867 31.9533 27.1247 32.2147 27.6576 32.7271C28.2111 33.2652 28.498 34.0185 28.498 34.9768C28.498 35.9351 28.2162 36.6884 27.6576 37.2265C27.1298 37.739 26.3918 38.0003 25.4746 38.0003ZM25.4746 34.0032C24.7264 34.0032 24.5009 34.2286 24.5009 34.9768C24.5009 35.725 24.7264 35.9505 25.4746 35.9505C26.2227 35.9505 26.4482 35.725 26.4482 34.9768C26.4482 34.2286 26.2227 34.0032 25.4746 34.0032Z" fill="#86888C"/>
<path d="M26.4069 23.2569H15.1483C14.2566 23.2569 13.7031 22.7035 13.7031 21.8067V3.47101C13.7031 2.59983 14.2668 2.03613 15.1431 2.03613H22.461C22.666 2.03613 22.8607 2.11813 23.0042 2.26161L28.5131 7.77051C28.6566 7.914 28.7386 8.10873 28.7386 8.31371V21.8374C28.7386 22.6932 28.1851 23.2518 27.3242 23.2518L26.4069 23.2569ZM25.1258 21.7195H27.2063V8.63656L22.1535 3.57862H15.2559V21.7195H25.1258Z" fill="#86888C"/>
<path d="M25.0032 12.2748H17.0089C16.5836 12.2748 16.2402 11.9314 16.2402 11.5061C16.2402 11.0807 16.5836 10.7374 17.0089 10.7374H25.0032C25.4286 10.7374 25.7719 11.0807 25.7719 11.5061C25.7719 11.9314 25.4234 12.2748 25.0032 12.2748ZM25.0032 15.7748H17.0089C16.5836 15.7748 16.2402 15.4315 16.2402 15.0061C16.2402 14.5808 16.5836 14.2375 17.0089 14.2375H25.0032C25.4286 14.2375 25.7719 14.5808 25.7719 15.0061C25.7719 15.4315 25.4234 15.7748 25.0032 15.7748ZM25.0032 19.2698H17.0089C16.5836 19.2698 16.2402 18.9264 16.2402 18.5011C16.2402 18.0758 16.5836 17.7324 17.0089 17.7324H25.0032C25.4286 17.7324 25.7719 18.0758 25.7719 18.5011C25.7719 18.9264 25.4234 19.2698 25.0032 19.2698ZM25.0955 9.08728H24.46C23.2506 9.08215 22.6049 8.5287 22.277 8.06749C21.8926 7.51917 21.703 6.78123 21.6979 5.80756V2.8097C21.6979 2.38436 22.0412 2.04102 22.4666 2.04102C22.6716 2.04102 22.8663 2.12301 23.0098 2.2665L28.5135 7.77539C28.8159 8.07774 28.8108 8.56457 28.5135 8.8618C28.3701 9.00529 28.1753 9.08728 27.9703 9.08728H25.0955ZM23.2353 4.66479V5.80244C23.2404 7.41155 23.8195 7.54991 24.4651 7.54991H26.1153L23.2353 4.66479Z" fill="#86888C"/>
</svg>
