<svg width="20" height="20" viewBox="0 0 20 20" fill="none" xmlns="http://www.w3.org/2000/svg">
<path d="M12.9795 14.2279H7.88775C7.20627 14.2279 6.60228 13.9977 6.1396 13.5647C5.65869 13.1111 5.34644 12.457 5.21425 11.6205C5.1094 10.9527 4.03362 4.70997 3.88319 3.86895C3.78519 3.32194 3.21538 2.91168 2.55442 2.91168H1.45584C1.20513 2.91168 1 2.70655 1 2.45584C1 2.20513 1.20513 2 1.45584 2H2.5567C3.66895 2 4.6057 2.71795 4.78348 3.7094C4.90655 4.39772 6.00285 10.7521 6.11909 11.4792C6.21937 12.1105 6.4359 12.5869 6.76866 12.9014C7.0604 13.1772 7.43875 13.3185 7.89003 13.3185H12.9795C13.5356 13.3185 14.3242 13.1248 14.7595 11.4382C14.8553 11.0712 15.1698 9.80171 15.4775 8.57322C15.653 7.86895 15.8217 7.18974 15.9516 6.67464H13.661C13.4103 6.67464 13.2051 6.46952 13.2051 6.2188C13.2051 5.96809 13.4103 5.76296 13.661 5.76296H16.535C16.7858 5.76296 16.9909 5.96809 16.9909 6.2188C16.9909 6.25755 16.9863 6.29402 16.9772 6.33049C16.8519 6.82735 16.6148 7.78006 16.3618 8.79202C16.0541 10.0228 15.7396 11.2946 15.6416 11.6661C15.4251 12.5003 15.1105 13.1134 14.6798 13.5442C14.2262 13.9977 13.6541 14.2279 12.9795 14.2279Z" fill="#86888C"/>
<path d="M7.88302 6.67261H4.84256C4.59185 6.67261 4.38672 6.46749 4.38672 6.21677C4.38672 5.96606 4.59185 5.76093 4.84256 5.76093H7.88302C8.13373 5.76093 8.33886 5.96606 8.33886 6.21677C8.33886 6.46749 8.13373 6.67261 7.88302 6.67261ZM7.88757 18.0003C7.4796 18.0003 7.15367 17.884 6.91663 17.6561C6.6682 17.4168 6.54284 17.0817 6.54284 16.6555C6.54284 16.2293 6.6682 15.8943 6.91663 15.655C7.15367 15.427 7.48188 15.3108 7.88757 15.3108C8.29327 15.3108 8.62148 15.427 8.85851 15.655C9.10695 15.8943 9.2323 16.2293 9.2323 16.6555C9.2323 17.0817 9.10695 17.4168 8.85851 17.6561C8.62376 17.884 8.29555 18.0003 7.88757 18.0003ZM7.88757 16.2225C7.55481 16.2225 7.45453 16.3228 7.45453 16.6555C7.45453 16.9883 7.55481 17.0886 7.88757 17.0886C8.22034 17.0886 8.32062 16.9883 8.32062 16.6555C8.32062 16.3228 8.22034 16.2225 7.88757 16.2225ZM12.332 18.0003C11.924 18.0003 11.5981 17.884 11.3611 17.6561C11.1126 17.4168 10.9873 17.0817 10.9873 16.6555C10.9873 16.2293 11.1126 15.8943 11.3611 15.655C11.5981 15.427 11.9263 15.3108 12.332 15.3108C12.7377 15.3108 13.0659 15.427 13.303 15.655C13.5491 15.8943 13.6767 16.2293 13.6767 16.6555C13.6767 17.0817 13.5514 17.4168 13.303 17.6561C13.0682 17.884 12.74 18.0003 12.332 18.0003ZM12.332 16.2225C11.9993 16.2225 11.899 16.3228 11.899 16.6555C11.899 16.9883 11.9993 17.0886 12.332 17.0886C12.6648 17.0886 12.7651 16.9883 12.7651 16.6555C12.7651 16.3228 12.6648 16.2225 12.332 16.2225ZM10.7753 5.92959C10.0346 5.92959 9.33487 5.8407 8.80154 5.68116C8.12461 5.47831 7.78273 5.17746 7.78273 4.78999C7.78273 4.40253 8.12461 4.10167 8.80154 3.89882C9.33259 3.73928 10.0346 3.65039 10.773 3.65039C11.5115 3.65039 12.2135 3.73928 12.7446 3.89882C13.4215 4.10167 13.7634 4.40253 13.7634 4.78999C13.7634 5.17746 13.4215 5.47831 12.7446 5.68116C12.2181 5.84298 11.5161 5.92959 10.7753 5.92959ZM8.49156 4.78999C8.5531 4.84469 8.72176 4.95865 9.13886 5.06578C9.59014 5.18201 10.1713 5.24583 10.7753 5.24583C11.3793 5.24583 11.9605 5.18201 12.4118 5.06578C12.8289 4.95865 12.9975 4.84469 13.0591 4.78999C12.9975 4.73529 12.8289 4.62361 12.4118 4.51421C11.9605 4.39797 11.3793 4.33415 10.7753 4.33415C10.1713 4.33415 9.59014 4.39797 9.13886 4.51421C8.72176 4.62361 8.5531 4.73529 8.49156 4.78999Z" fill="#86888C"/>
<path d="M10.7755 8.05157C10.0348 8.05157 9.33508 7.96268 8.80175 7.80314C8.12483 7.60029 7.78295 7.29943 7.78295 6.91197V4.79231C7.77611 4.60314 7.92198 4.44359 8.11115 4.43675C8.30032 4.42992 8.45987 4.57579 8.46671 4.76496C8.49406 4.79915 8.63537 4.9359 9.13907 5.06581C9.59035 5.18205 10.1716 5.24587 10.7755 5.24587C11.3795 5.24587 11.9607 5.18205 12.412 5.06581C12.9157 4.9359 13.057 4.79687 13.0844 4.76496C13.0912 4.57579 13.2508 4.42992 13.4399 4.43675C13.6291 4.44359 13.775 4.60314 13.7681 4.79231V6.91197C13.7681 7.29943 13.4263 7.60029 12.7493 7.80314C12.2183 7.96268 11.5163 8.05157 10.7755 8.05157ZM8.46671 6.8869C8.49634 6.92336 8.63993 7.05784 9.13907 7.18775C9.59035 7.30399 10.1716 7.36781 10.7755 7.36781C11.3795 7.36781 11.9607 7.30399 12.412 7.18775C12.9112 7.06012 13.0547 6.92336 13.0844 6.8869V5.56268C12.975 5.60826 12.8633 5.64929 12.7493 5.68348C12.2183 5.84302 11.5163 5.93191 10.7778 5.93191C10.0394 5.93191 9.33736 5.84302 8.80631 5.68348C8.69235 5.64929 8.58067 5.60826 8.47127 5.56268L8.46671 6.8869Z" fill="#86888C"/>
<path d="M10.7755 10.1707C10.0348 10.1707 9.33508 10.0818 8.80175 9.92228C8.12483 9.71943 7.78295 9.41857 7.78295 9.03111V6.91145C7.77611 6.72228 7.92198 6.56273 8.11115 6.55589C8.30032 6.54906 8.45987 6.69493 8.46671 6.8841C8.49406 6.91829 8.63537 7.05504 9.13907 7.18495C9.59035 7.30119 10.1716 7.36501 10.7755 7.36501C11.3795 7.36501 11.9607 7.30119 12.412 7.18495C12.9157 7.05504 13.057 6.91601 13.0844 6.8841C13.0912 6.69493 13.2508 6.54906 13.4399 6.55589C13.6291 6.56273 13.775 6.72228 13.7681 6.91145V9.03111C13.7681 9.41857 13.4263 9.71943 12.7493 9.92228C12.2183 10.0818 11.5163 10.1707 10.7755 10.1707ZM8.46671 9.00604C8.49634 9.04023 8.63993 9.17698 9.13907 9.30689C9.59035 9.42313 10.1716 9.48695 10.7755 9.48695C11.3795 9.48695 11.9607 9.42313 12.412 9.30689C12.9112 9.17926 13.0547 9.04251 13.0844 9.00604V7.68182C12.975 7.72741 12.8633 7.76843 12.7493 7.80262C12.2183 7.96216 11.5163 8.05105 10.7778 8.05105C10.0394 8.05105 9.33736 7.96216 8.80403 7.80262C8.69007 7.76843 8.57839 7.72741 8.46899 7.68182L8.46671 9.00604Z" fill="#86888C"/>
<path d="M10.7755 12.2908C10.0348 12.2908 9.33508 12.2019 8.80175 12.0424C8.12483 11.8395 7.78295 11.5387 7.78295 11.1512V9.03157C7.77611 8.84239 7.92198 8.68285 8.11115 8.67601C8.30032 8.66917 8.45987 8.81504 8.46671 9.00422C8.49406 9.03841 8.63537 9.17516 9.13907 9.30507C9.59035 9.42131 10.1716 9.48513 10.7755 9.48513C11.3795 9.48513 11.9607 9.42131 12.412 9.30507C12.9157 9.17516 13.057 9.03613 13.0844 9.00422C13.0912 8.81504 13.2508 8.66917 13.4399 8.67601C13.6291 8.68285 13.775 8.84239 13.7681 9.03157V11.1512C13.7681 11.5387 13.4263 11.8395 12.7493 12.0424C12.2183 12.2042 11.5163 12.2908 10.7755 12.2908ZM8.46671 11.1284C8.49634 11.1626 8.63993 11.2994 9.13907 11.4293C9.59035 11.5455 10.1716 11.6093 10.7755 11.6093C11.3795 11.6093 11.9607 11.5455 12.412 11.4293C12.9112 11.3017 13.0547 11.1649 13.0844 11.1284V9.80422C12.975 9.8498 12.8633 9.89083 12.7493 9.92502C12.2183 10.0846 11.5163 10.1734 10.7778 10.1734C10.0394 10.1734 9.33736 10.0846 8.80403 9.92502C8.69007 9.89083 8.57839 9.8498 8.46899 9.80422L8.46671 11.1284Z" fill="#86888C"/>
</svg>
