<svg width="20" height="20" viewBox="0 0 20 20" fill="none" xmlns="http://www.w3.org/2000/svg">
<path d="M13.3511 14.3529H8.25933C7.57785 14.3529 6.97386 14.1227 6.51118 13.6897C6.03027 13.2361 5.71802 12.582 5.58583 11.7455C5.48098 11.0777 4.4052 4.83497 4.25477 3.99395C4.15677 3.44694 3.58697 3.03668 2.926 3.03668H1.82742C1.57671 3.03668 1.37158 2.83155 1.37158 2.58084C1.37158 2.33013 1.57671 2.125 1.82742 2.125H2.92828C4.04053 2.125 4.97728 2.84295 5.15506 3.8344C5.27813 4.52272 6.37443 10.8771 6.49067 11.6042C6.59095 12.2355 6.80748 12.7119 7.14024 13.0264C7.43198 13.3022 7.81033 13.4435 8.26161 13.4435H13.3511C13.9072 13.4435 14.6958 13.2498 15.1311 11.5632C15.2268 11.1962 15.5414 9.92671 15.8491 8.69594C16.0246 7.99167 16.1932 7.31246 16.3231 6.79964H14.6365C14.3858 6.79964 14.1807 6.59451 14.1807 6.3438C14.1807 6.09309 14.3858 5.88796 14.6365 5.88796H16.9066C17.1573 5.88796 17.3625 6.09309 17.3625 6.3438C17.3625 6.38255 17.3579 6.41902 17.3488 6.45548C17.2234 6.95235 16.9864 7.90506 16.7334 8.91702C16.4257 10.1478 16.1112 11.4219 16.0132 11.7911C15.7966 12.6253 15.4821 13.2384 15.0513 13.6692C14.5978 14.1227 14.0257 14.3529 13.3511 14.3529Z" fill="#86888C"/>
<path d="M7.98109 6.79742H5.21414C4.96343 6.79742 4.7583 6.59229 4.7583 6.34158C4.7583 6.09087 4.96343 5.88574 5.21414 5.88574H7.98109C8.2318 5.88574 8.43693 6.09087 8.43693 6.34158C8.43693 6.59229 8.2318 6.79742 7.98109 6.79742ZM8.25915 18.1251C7.85118 18.1251 7.52525 18.0088 7.28821 17.7809C7.03978 17.5416 6.91443 17.2065 6.91443 16.7803C6.91443 16.3541 7.03978 16.0191 7.28821 15.7798C7.52525 15.5518 7.85346 15.4356 8.25915 15.4356C8.66485 15.4356 8.99306 15.5518 9.23009 15.7798C9.47853 16.0191 9.60388 16.3541 9.60388 16.7803C9.60388 17.2065 9.47853 17.5416 9.23009 17.7809C8.99534 18.0088 8.66713 18.1251 8.25915 18.1251ZM8.25915 16.3473C7.92639 16.3473 7.82611 16.4476 7.82611 16.7803C7.82611 17.1131 7.92639 17.2134 8.25915 17.2134C8.59192 17.2134 8.6922 17.1131 8.6922 16.7803C8.6922 16.4476 8.59192 16.3473 8.25915 16.3473ZM12.7036 18.1251C12.2956 18.1251 11.9697 18.0088 11.7327 17.7809C11.4842 17.5416 11.3589 17.2065 11.3589 16.7803C11.3589 16.3541 11.4842 16.0191 11.7327 15.7798C11.9697 15.5518 12.2979 15.4356 12.7036 15.4356C13.1093 15.4356 13.4375 15.5518 13.6745 15.7798C13.9207 16.0191 14.0483 16.3541 14.0483 16.7803C14.0483 17.2065 13.923 17.5416 13.6745 17.7809C13.4398 18.0088 13.1116 18.1251 12.7036 18.1251ZM12.7036 16.3473C12.3708 16.3473 12.2705 16.4476 12.2705 16.7803C12.2705 17.1131 12.3708 17.2134 12.7036 17.2134C13.0364 17.2134 13.1366 17.1131 13.1366 16.7803C13.1366 16.4476 13.0364 16.3473 12.7036 16.3473Z" fill="#86888C"/>
<path d="M13.5883 11.6861H8.69944C8.14331 11.6861 7.79915 11.3419 7.79915 10.7858V8.13054H6.92166C6.67095 8.13054 6.46582 7.92541 6.46582 7.6747C6.46582 7.55846 6.5114 7.4445 6.59118 7.36017L10.8191 2.91572C10.9057 2.82456 11.0242 2.77441 11.1496 2.77441C11.2749 2.77441 11.3935 2.82684 11.4801 2.91572L12.2436 3.72028V3.6747C12.2436 3.42399 12.4487 3.21886 12.6994 3.21886H14.0328C14.2835 3.21886 14.4886 3.42399 14.4886 3.6747V6.08609L15.6966 7.36017C15.8698 7.5425 15.863 7.83196 15.6806 8.00518C15.5963 8.08495 15.4846 8.13054 15.3661 8.13054H14.4886V10.7858C14.4886 11.3397 14.1422 11.6861 13.5883 11.6861ZM8.71083 10.7744H13.5769V7.6747C13.5769 7.42399 13.7821 7.21886 14.0328 7.21886H14.3063L13.7023 6.58296C13.6225 6.49863 13.5769 6.38695 13.5769 6.26843V4.13054H13.1553V4.86444C13.1553 5.11515 12.9501 5.32028 12.6994 5.32028C12.5741 5.32028 12.4556 5.26786 12.369 5.17897L11.1496 3.8935L7.98377 7.22114H8.25499C8.50571 7.22114 8.71083 7.42627 8.71083 7.67698V10.7744Z" fill="#86888C"/>
</svg>
