<svg width="20" height="20" viewBox="0 0 20 20" fill="none" xmlns="http://www.w3.org/2000/svg">
<path d="M12.7655 14.2254H7.88218C7.20148 14.2254 6.59818 13.9954 6.13603 13.5629C5.65566 13.1098 5.34377 12.4565 5.21172 11.6209C5.10245 10.9289 4.03016 4.69323 3.88219 3.86682C3.78429 3.32043 3.21514 2.91064 2.55492 2.91064H1.45532C1.20489 2.91064 1 2.70575 1 2.45532C1 2.20489 1.20489 2 1.45532 2H2.55492C3.66591 2 4.60159 2.71713 4.77917 3.70746C4.82698 3.96927 4.96585 4.77063 5.1366 5.76779H16.5356C16.786 5.76779 16.9909 5.9704 16.9909 6.22311C16.9909 6.26636 16.9841 6.3119 16.9727 6.35287C16.597 7.61412 15.5885 11.0381 15.4269 11.6642C15.2106 12.4974 14.8964 13.1098 14.4661 13.5401C14.0108 13.9954 13.4394 14.2254 12.7655 14.2254ZM5.29368 6.67843C5.642 8.70689 6.04724 11.0677 6.11098 11.4798C6.21116 12.1104 6.42743 12.5862 6.75982 12.9004C7.0535 13.1759 7.42914 13.3147 7.88218 13.3147H12.7655C13.321 13.3147 14.1087 13.1212 14.5435 11.4365C14.6961 10.8492 15.502 8.10814 15.9254 6.67843H5.29368ZM7.88218 18C7.47467 18 7.14912 17.8839 6.91235 17.6562C6.6642 17.4172 6.53899 17.0825 6.53899 16.6568C6.53899 16.2311 6.6642 15.8964 6.91235 15.6574C7.14912 15.4297 7.47695 15.3136 7.88218 15.3136C8.28742 15.3136 8.61525 15.4297 8.85202 15.6574C9.10017 15.8964 9.22538 16.2311 9.22538 16.6568C9.22538 17.0825 9.10017 17.4172 8.85202 17.6562C8.61525 17.8839 8.2897 18 7.88218 18ZM7.88218 16.2242C7.5498 16.2242 7.44963 16.3244 7.44963 16.6568C7.44963 16.9892 7.5498 17.0894 7.88218 17.0894C8.21457 17.0894 8.31474 16.9892 8.31474 16.6568C8.31474 16.3244 8.21229 16.2242 7.88218 16.2242ZM12.3216 18C11.9141 18 11.5885 17.8839 11.3517 17.6562C11.1036 17.4172 10.9784 17.0825 10.9784 16.6568C10.9784 16.2311 11.1036 15.8964 11.3517 15.6574C11.5885 15.4297 11.9163 15.3136 12.3216 15.3136C12.7268 15.3136 13.0546 15.4297 13.2914 15.6574C13.5373 15.8964 13.6648 16.2311 13.6648 16.6568C13.6648 17.0825 13.5396 17.4172 13.2914 17.6562C13.0546 17.8839 12.7291 18 12.3216 18ZM12.3216 16.2242C11.9892 16.2242 11.889 16.3244 11.889 16.6568C11.889 16.9892 11.9892 17.0894 12.3216 17.0894C12.654 17.0894 12.7541 16.9892 12.7541 16.6568C12.7541 16.3244 12.6517 16.2242 12.3216 16.2242Z" fill="#86888C"/>
</svg>
