<svg width="24" height="24" viewBox="0 0 24 24" fill="none" xmlns="http://www.w3.org/2000/svg">
<path d="M15.3499 17.2849H8.98518C8.13333 17.2849 7.37834 16.9972 6.79999 16.4558C6.19885 15.8889 5.80854 15.0712 5.6433 14.0256C5.51224 13.1909 4.16751 5.38747 3.97948 4.33618C3.85697 3.65242 3.14472 3.1396 2.31851 3.1396H0.945289C0.631899 3.1396 0.375488 2.88319 0.375488 2.5698C0.375488 2.25641 0.631899 2 0.945289 2H2.32136C3.71167 2 4.88261 2.89744 5.10483 4.13675C5.25868 4.99715 6.62905 12.9402 6.77435 13.849C6.89971 14.6382 7.17036 15.2336 7.58632 15.6268C7.95099 15.9715 8.42392 16.1482 8.98803 16.1482H15.3499C16.045 16.1482 17.0308 15.906 17.5749 13.7977C17.6946 13.339 18.0877 11.7521 18.4724 10.2165C18.6917 9.33618 18.9026 8.48718 19.065 7.84331H16.2017C15.8883 7.84331 15.6319 7.5869 15.6319 7.27351C15.6319 6.96012 15.8883 6.70371 16.2017 6.70371H19.7943C20.1077 6.70371 20.3641 6.96012 20.3641 7.27351C20.3641 7.32194 20.3584 7.36752 20.347 7.41311C20.1903 8.03419 19.894 9.22507 19.5778 10.49C19.1932 12.0285 18.8 13.6182 18.6775 14.0826C18.4068 15.1254 18.0137 15.8917 17.4752 16.4302C16.9083 16.9972 16.1932 17.2849 15.3499 17.2849Z" fill="#86888C"/>
<path d="M8.97926 7.84028H5.17869C4.8653 7.84028 4.60889 7.58387 4.60889 7.27048C4.60889 6.95709 4.8653 6.70068 5.17869 6.70068H8.97926C9.29265 6.70068 9.54906 6.95709 9.54906 7.27048C9.54906 7.58387 9.29265 7.84028 8.97926 7.84028ZM8.98496 21.9998C8.47498 21.9998 8.06758 21.8545 7.77128 21.5696C7.46074 21.2705 7.30404 20.8517 7.30404 20.3189C7.30404 19.7862 7.46074 19.3673 7.77128 19.0682C8.06758 18.7833 8.47783 18.638 8.98496 18.638C9.49208 18.638 9.90234 18.7833 10.1986 19.0682C10.5092 19.3673 10.6659 19.7862 10.6659 20.3189C10.6659 20.8517 10.5092 21.2705 10.1986 21.5696C9.90518 21.8545 9.49493 21.9998 8.98496 21.9998ZM8.98496 19.7776C8.569 19.7776 8.44365 19.903 8.44365 20.3189C8.44365 20.7349 8.569 20.8602 8.98496 20.8602C9.40091 20.8602 9.52627 20.7349 9.52627 20.3189C9.52627 19.903 9.40091 19.7776 8.98496 19.7776ZM14.5405 21.9998C14.0305 21.9998 13.6231 21.8545 13.3268 21.5696C13.0163 21.2705 12.8596 20.8517 12.8596 20.3189C12.8596 19.7862 13.0163 19.3673 13.3268 19.0682C13.6231 18.7833 14.0334 18.638 14.5405 18.638C15.0476 18.638 15.4579 18.7833 15.7542 19.0682C16.0619 19.3673 16.2214 19.7862 16.2214 20.3189C16.2214 20.8517 16.0647 21.2705 15.7542 21.5696C15.4607 21.8545 15.0505 21.9998 14.5405 21.9998ZM14.5405 19.7776C14.1246 19.7776 13.9992 19.903 13.9992 20.3189C13.9992 20.7349 14.1246 20.8602 14.5405 20.8602C14.9565 20.8602 15.0818 20.7349 15.0818 20.3189C15.0818 19.903 14.9565 19.7776 14.5405 19.7776ZM12.5946 6.9115C11.6687 6.9115 10.7941 6.80039 10.1274 6.60096C9.28125 6.3474 8.8539 5.97133 8.8539 5.487C8.8539 5.00267 9.28125 4.6266 10.1274 4.37304C10.7912 4.17361 11.6687 4.0625 12.5918 4.0625C13.5149 4.0625 14.3924 4.17361 15.0562 4.37304C15.9023 4.6266 16.3297 5.00267 16.3297 5.487C16.3297 5.97133 15.9023 6.3474 15.0562 6.60096C14.3981 6.80324 13.5206 6.9115 12.5946 6.9115ZM9.73994 5.487C9.81687 5.55538 10.0277 5.69783 10.5491 5.83173C11.1132 5.97703 11.8397 6.0568 12.5946 6.0568C13.3496 6.0568 14.0761 5.97703 14.6402 5.83173C15.1616 5.69783 15.3724 5.55538 15.4493 5.487C15.3724 5.41863 15.1616 5.27902 14.6402 5.14227C14.0761 4.99697 13.3496 4.9172 12.5946 4.9172C11.8397 4.9172 11.1132 4.99697 10.5491 5.14227C10.0277 5.27902 9.81687 5.41863 9.73994 5.487Z" fill="#86888C"/>
<path d="M12.595 9.56373C11.6691 9.56373 10.7945 9.45262 10.1278 9.25319C9.28164 8.99963 8.85429 8.62356 8.85429 8.13923V5.48965C8.84575 5.25319 9.02808 5.05376 9.26455 5.04521C9.50102 5.03666 9.70045 5.219 9.70899 5.45547C9.74318 5.4982 9.91982 5.66914 10.5494 5.83154C11.1136 5.97683 11.84 6.05661 12.595 6.05661C13.35 6.05661 14.0765 5.97683 14.6406 5.83154C15.2702 5.66914 15.4469 5.49535 15.4811 5.45547C15.4896 5.219 15.6891 5.03666 15.9255 5.04521C16.162 5.05376 16.3443 5.25319 16.3358 5.48965V8.13923C16.3358 8.62356 15.9084 8.99963 15.0623 9.25319C14.3985 9.45262 13.521 9.56373 12.595 9.56373ZM9.70899 8.10789C9.74603 8.15347 9.92552 8.32156 10.5494 8.48396C11.1136 8.62926 11.84 8.70903 12.595 8.70903C13.35 8.70903 14.0765 8.62926 14.6406 8.48396C15.2646 8.32441 15.444 8.15347 15.4811 8.10789V6.45262C15.3443 6.5096 15.2047 6.56088 15.0623 6.60362C14.3985 6.80305 13.521 6.91416 12.5979 6.91416C11.6748 6.91416 10.7973 6.80305 10.1335 6.60362C9.99104 6.56088 9.85144 6.5096 9.71469 6.45262L9.70899 8.10789Z" fill="#86888C"/>
<path d="M12.595 12.2141C11.6691 12.2141 10.7945 12.103 10.1278 11.9036C9.28164 11.65 8.85429 11.2739 8.85429 10.7896V8.14005C8.84575 7.90358 9.02808 7.70415 9.26455 7.6956C9.50102 7.68705 9.70045 7.86939 9.70899 8.10586C9.74318 8.14859 9.91982 8.31953 10.5494 8.48193C11.1136 8.62723 11.84 8.707 12.595 8.707C13.35 8.707 14.0765 8.62723 14.6406 8.48193C15.2702 8.31953 15.4469 8.14574 15.4811 8.10586C15.4896 7.86939 15.6891 7.68705 15.9255 7.6956C16.162 7.70415 16.3443 7.90358 16.3358 8.14005V10.7896C16.3358 11.2739 15.9084 11.65 15.0623 11.9036C14.3985 12.103 13.521 12.2141 12.595 12.2141ZM9.70899 10.7583C9.74603 10.801 9.92552 10.972 10.5494 11.1343C11.1136 11.2796 11.84 11.3594 12.595 11.3594C13.35 11.3594 14.0765 11.2796 14.6406 11.1343C15.2646 10.9748 15.444 10.8039 15.4811 10.7583V9.10301C15.3443 9.15999 15.2047 9.21127 15.0623 9.25401C14.3985 9.45344 13.521 9.56455 12.5979 9.56455C11.6748 9.56455 10.7973 9.45344 10.1306 9.25401C9.9882 9.21127 9.84859 9.15999 9.71184 9.10301L9.70899 10.7583Z" fill="#86888C"/>
<path d="M12.595 14.8635C11.6691 14.8635 10.7945 14.7524 10.1278 14.553C9.28164 14.2994 8.85429 13.9234 8.85429 13.439V10.7895C8.84575 10.553 9.02808 10.3536 9.26455 10.345C9.50102 10.3365 9.70045 10.5188 9.70899 10.7553C9.74318 10.798 9.91982 10.9689 10.5494 11.1313C11.1136 11.2766 11.84 11.3564 12.595 11.3564C13.35 11.3564 14.0765 11.2766 14.6406 11.1313C15.2702 10.9689 15.4469 10.7952 15.4811 10.7553C15.4896 10.5188 15.6891 10.3365 15.9255 10.345C16.162 10.3536 16.3443 10.553 16.3358 10.7895V13.439C16.3358 13.9234 15.9084 14.2994 15.0623 14.553C14.3985 14.7553 13.521 14.8635 12.595 14.8635ZM9.70899 13.4105C9.74603 13.4533 9.92552 13.6242 10.5494 13.7866C11.1136 13.9319 11.84 14.0117 12.595 14.0117C13.35 14.0117 14.0765 13.9319 14.6406 13.7866C15.2646 13.6271 15.444 13.4561 15.4811 13.4105V11.7553C15.3443 11.8123 15.2047 11.8635 15.0623 11.9063C14.3985 12.1057 13.521 12.2168 12.5979 12.2168C11.6748 12.2168 10.7973 12.1057 10.1306 11.9063C9.9882 11.8635 9.84859 11.8123 9.71184 11.7553L9.70899 13.4105Z" fill="#86888C"/>
</svg>
