<svg width="24" height="24" viewBox="0 0 24 24" fill="none" xmlns="http://www.w3.org/2000/svg">
<path d="M14.9722 17.2883H8.60071C7.74947 17.2883 6.99502 17.0007 6.41708 16.4598C5.81637 15.8932 5.42633 15.0762 5.26121 14.0313C5.1274 13.1658 3.78363 5.36797 3.60142 4.33452C3.479 3.65125 2.76726 3.13879 1.94164 3.13879H0.569395C0.256228 3.13879 0 2.88256 0 2.5694C0 2.25623 0.256228 2 0.569395 2H1.93879C3.32811 2 4.49822 2.8968 4.72028 4.13523C4.90534 5.17153 6.25196 12.9865 6.38861 13.8548C6.51388 14.6434 6.78434 15.2384 7.2 15.6313C7.56441 15.9758 8.03701 16.1495 8.60071 16.1495H14.9694C15.6641 16.1495 16.6491 15.9075 17.1929 13.8007C17.3125 13.3423 17.7053 11.7566 18.0897 10.2221C18.3089 9.3395 18.5196 8.49395 18.6819 7.85053H15.721C15.4078 7.85053 15.1516 7.59431 15.1516 7.28114C15.1516 6.96797 15.4078 6.71174 15.721 6.71174H19.4107C19.7238 6.71174 19.9801 6.96797 19.9801 7.28114C19.9801 7.32954 19.9744 7.37509 19.963 7.42064C19.8064 8.04128 19.5103 9.23416 19.1943 10.4954C18.8128 12.0327 18.4171 13.6214 18.2975 14.0854C18.027 15.1274 17.637 15.8961 17.0961 16.4342C16.5295 17.0007 15.8149 17.2883 14.9722 17.2883Z" fill="#86888C"/>
<path d="M7.48497 7.8507H4.79742C4.48426 7.8507 4.22803 7.59448 4.22803 7.28131C4.22803 6.96814 4.48426 6.71191 4.79742 6.71191H7.48497C7.79813 6.71191 8.05436 6.96814 8.05436 7.28131C8.05436 7.59448 7.79813 7.8507 7.48497 7.8507ZM8.60098 22.0002C8.09137 22.0002 7.68426 21.855 7.38817 21.5703C7.07785 21.2713 6.92127 20.8528 6.92127 20.3205C6.92127 19.7881 7.07785 19.3696 7.38817 19.0706C7.68426 18.7859 8.09422 18.6407 8.60098 18.6407C9.10774 18.6407 9.51771 18.7859 9.81379 19.0706C10.1241 19.3696 10.2807 19.7881 10.2807 20.3205C10.2807 20.8528 10.1241 21.2713 9.81379 21.5703C9.52056 21.855 9.11059 22.0002 8.60098 22.0002ZM8.60098 19.7795C8.18532 19.7795 8.06006 19.9048 8.06006 20.3205C8.06006 20.7361 8.18532 20.8614 8.60098 20.8614C9.01664 20.8614 9.14191 20.7361 9.14191 20.3205C9.14191 19.9048 9.01664 19.7795 8.60098 19.7795ZM14.1526 22.0002C13.643 22.0002 13.2359 21.855 12.9398 21.5703C12.6295 21.2713 12.4729 20.8528 12.4729 20.3205C12.4729 19.7881 12.6295 19.3696 12.9398 19.0706C13.2359 18.7859 13.6458 18.6407 14.1526 18.6407C14.6593 18.6407 15.0693 18.7859 15.3654 19.0706C15.6729 19.3696 15.8323 19.7881 15.8323 20.3205C15.8323 20.8528 15.6757 21.2713 15.3654 21.5703C15.0722 21.855 14.6622 22.0002 14.1526 22.0002ZM14.1526 19.7795C13.7369 19.7795 13.6117 19.9048 13.6117 20.3205C13.6117 20.7361 13.7369 20.8614 14.1526 20.8614C14.5682 20.8614 14.6935 20.7361 14.6935 20.3205C14.6935 19.9048 14.5682 19.7795 14.1526 19.7795Z" fill="#86888C"/>
<path d="M14.6704 13.8089H8.41564C7.92027 13.8089 7.61279 13.5014 7.61279 13.0032V2.81668C7.61279 2.3327 7.92596 2.01953 8.41279 2.01953H12.4783C12.5922 2.01953 12.7003 2.06508 12.7801 2.1448L15.8406 5.2053C15.9203 5.28501 15.9658 5.3932 15.9658 5.50708V13.0202C15.9658 13.4957 15.6583 13.806 15.1801 13.806L14.6704 13.8089ZM13.9587 12.9548H15.1146V5.68644L12.3075 2.87647H8.47543V12.9548H13.9587Z" fill="#86888C"/>
<path d="M13.8908 7.70787H9.44951C9.21321 7.70787 9.02246 7.51712 9.02246 7.28082C9.02246 7.04452 9.21321 6.85378 9.44951 6.85378H13.8908C14.1271 6.85378 14.3178 7.04452 14.3178 7.28082C14.3178 7.51712 14.1242 7.70787 13.8908 7.70787ZM13.8908 9.65235H9.44951C9.21321 9.65235 9.02246 9.46161 9.02246 9.22531C9.02246 8.98901 9.21321 8.79826 9.44951 8.79826H13.8908C14.1271 8.79826 14.3178 8.98901 14.3178 9.22531C14.3178 9.46161 14.1242 9.65235 13.8908 9.65235ZM13.8908 11.594H9.44951C9.21321 11.594 9.02246 11.4032 9.02246 11.1669C9.02246 10.9306 9.21321 10.7399 9.44951 10.7399H13.8908C14.1271 10.7399 14.3178 10.9306 14.3178 11.1669C14.3178 11.4032 14.1242 11.594 13.8908 11.594ZM13.942 5.93705H13.589C12.9171 5.9342 12.5584 5.62673 12.3762 5.3705C12.1627 5.06588 12.0573 4.65591 12.0545 4.11499V2.44951C12.0545 2.21321 12.2452 2.02246 12.4815 2.02246C12.5954 2.02246 12.7036 2.06801 12.7833 2.14773L15.841 5.20823C16.0089 5.3762 16.0061 5.64666 15.841 5.81178C15.7613 5.8915 15.6531 5.93705 15.5392 5.93705H13.942ZM12.9086 3.48011V4.11214C12.9114 5.00609 13.2331 5.08296 13.5919 5.08296H14.5086L12.9086 3.48011Z" fill="#86888C"/>
</svg>
