<svg width="20" height="20" viewBox="0 0 20 20" fill="none" xmlns="http://www.w3.org/2000/svg">
<path fill-rule="evenodd" clip-rule="evenodd" d="M16.5549 15.2503C17.1131 14.5038 17.43 13.5069 17.4986 12.2716H16.3278C16.2569 13.0991 16.0346 13.7931 15.6491 14.3369L16.5549 15.2503ZM12.8677 16.9316C14.0881 16.8624 15.0791 16.55 15.817 15.9943L14.9088 15.0762C14.3672 15.4577 13.6836 15.6819 12.8677 15.7511V16.9316ZM10.4411 14.2677C10.9117 14.573 11.5432 14.7375 12.3426 14.7375C13.3336 14.7375 14.081 14.499 14.5682 14.0292C15.0696 13.5427 15.325 12.77 15.325 11.735C15.325 10.7 15.0696 9.92488 14.5682 9.43598C14.5091 9.37875 14.4334 9.33343 14.3672 9.28335C14.3009 9.9368 14.1732 10.5378 13.9769 11.0768C13.7002 11.8351 13.2934 12.4791 12.7565 13.0013C12.468 13.278 12.144 13.5165 11.7892 13.7192C11.3824 13.9505 10.9307 14.1318 10.4411 14.2677ZM11.8247 16.9316V15.7511C11.0087 15.6843 10.3228 15.4601 9.78121 15.0786L8.87065 15.9967C9.61329 16.5524 10.6043 16.8648 11.8247 16.9316ZM8.1351 15.255L8.85646 14.5276C8.64123 14.5396 8.42364 14.5491 8.19896 14.5491C8.02867 14.5491 7.86548 14.5396 7.70228 14.5324C7.82527 14.7971 7.9719 15.0332 8.1351 15.255ZM6.25247 13.2565C6.59068 13.3495 6.95964 13.4139 7.34988 13.4521C7.46104 13.4616 7.5722 13.4735 7.68573 13.4807V12.3002C7.56038 12.2883 7.42083 12.2907 7.30258 12.274C7.26237 12.2668 7.22926 12.2549 7.19142 12.2477C6.81773 12.1833 6.48425 12.0712 6.17679 11.9305C6.16496 11.9258 6.15077 11.9186 6.14131 11.9138C5.96393 11.8328 5.79837 11.7374 5.64227 11.6301L4.7317 12.5482C5.15742 12.863 5.66829 13.0991 6.25247 13.2565ZM3.0572 8.8183C3.12816 10.056 3.44272 11.0553 3.99852 11.8018L4.90436 10.8884C4.52121 10.3422 4.29889 9.64823 4.2303 8.82069H3.0572V8.8183ZM3.98669 4.7712C3.43562 5.52243 3.12106 6.52407 3.05484 7.7642H4.22557C4.29179 6.93188 4.50938 6.23074 4.89017 5.68222L3.98669 4.7712ZM7.68809 3.0708C6.45823 3.13758 5.46016 3.45715 4.71988 4.02236L5.63045 4.94053C6.17442 4.54941 6.86503 4.31808 7.69046 4.2513V3.0708H7.68809ZM8.20369 5.26725C7.21507 5.26725 6.46769 5.50574 5.98285 5.97794C5.48381 6.46684 5.22838 7.24191 5.22838 8.27694C5.22838 9.31435 5.48144 10.087 5.98048 10.5712C6.04197 10.6308 6.11766 10.6737 6.18625 10.7262C6.45823 10.9313 6.79408 11.0768 7.19142 11.1674C7.26947 11.1841 7.33806 11.2032 7.42083 11.2175C7.66208 11.2556 7.91751 11.2795 8.20132 11.2795C8.25808 11.2795 8.30302 11.2699 8.35742 11.2676C8.57737 11.2604 8.78787 11.2461 8.98417 11.2151C9.13317 11.1912 9.27272 11.1602 9.40753 11.1197C9.81906 11.0028 10.1644 10.8216 10.4269 10.5688C10.8266 10.1801 11.0607 9.60769 11.1435 8.87316C11.1648 8.68237 11.1814 8.48681 11.1814 8.27456C11.1814 8.10523 11.1624 7.9526 11.1506 7.79759C11.1104 7.34923 11.0134 6.96289 10.8621 6.63616C10.7438 6.38337 10.6043 6.15681 10.4245 5.97556C10.3276 5.88255 10.2164 5.80623 10.1005 5.7323C9.62985 5.42942 9.00073 5.26725 8.20369 5.26725ZM8.72874 3.0708V4.2513C9.55416 4.32047 10.2424 4.5518 10.7864 4.94291L11.6946 4.02713C10.9519 3.45953 9.95623 3.13996 8.72874 3.0708ZM11.678 12.5411L10.7698 11.6229C10.6539 11.704 10.5357 11.7827 10.4056 11.8471C10.1052 12.0045 9.76702 12.1213 9.39807 12.2C9.30346 12.2215 9.19703 12.2286 9.0977 12.2453C9.0362 12.2549 8.97471 12.2644 8.91085 12.2716C8.84936 12.2787 8.7926 12.2907 8.72874 12.2978V13.4783C9.06459 13.4569 9.38151 13.4187 9.68188 13.3615C10.214 13.2613 10.6894 13.1039 11.108 12.8893C11.3114 12.7843 11.503 12.6722 11.678 12.5411ZM11.5125 10.8836L11.9051 11.2795L12.4183 11.797C12.546 11.6253 12.6596 11.4393 12.7613 11.2413C12.9386 10.9003 13.0829 10.5235 13.1822 10.1037C13.2745 9.71263 13.3336 9.29051 13.3596 8.835V8.81592H12.1889C12.1676 9.08302 12.1274 9.33343 12.073 9.57192C11.9571 10.0751 11.7726 10.5139 11.5125 10.8836ZM12.4254 4.77597L11.7324 5.47474L11.5243 5.6846C11.6402 5.85393 11.7372 6.03995 11.8247 6.23312C11.8696 6.32851 11.924 6.41437 11.9595 6.51692C12.0801 6.86272 12.144 7.25861 12.1842 7.67834C12.2386 7.67596 12.2859 7.66642 12.3403 7.66642C12.5247 7.66642 12.6927 7.69027 12.8653 7.70458C13.0332 7.71889 13.2035 7.73081 13.3596 7.75943V7.7642H13.3809C13.3738 7.76181 13.3667 7.75943 13.3596 7.75943C13.336 7.33015 13.2839 6.92473 13.2012 6.55269C13.1184 6.18304 13.0096 5.842 12.8677 5.52959V5.51289H12.863C12.8559 5.49858 12.8511 5.48428 12.8417 5.46997C12.7234 5.21717 12.5815 4.98822 12.4254 4.77597ZM15.8335 7.4804C15.4054 7.15367 14.8899 6.9128 14.3009 6.75302C14.3695 7.17275 14.405 7.62349 14.4145 8.09808C14.5966 8.18393 14.7669 8.28171 14.9253 8.39618L15.8335 7.4804ZM17.4986 11.2199C17.4323 9.98211 17.1178 8.98047 16.5644 8.22925L15.6632 9.14026C16.0464 9.68878 16.264 10.3875 16.3302 11.2199H17.4986ZM16.8931 7.01297C17.9976 8.08854 18.5581 9.67685 18.5581 11.735C18.5581 13.7955 17.9976 15.3814 16.8931 16.4522C15.8335 17.4801 14.3009 18 12.3403 18C10.3772 18 8.847 17.4777 7.79216 16.4498C7.2269 15.9013 6.80827 15.2097 6.53155 14.3941C5.35609 14.1747 4.3864 13.712 3.65558 12.9966C2.5558 11.9282 2 10.3422 2 8.28171C2 6.2212 2.55817 4.63288 3.65558 3.5597C4.71278 2.52467 6.24301 2 8.20369 2C10.1644 2 11.697 2.52467 12.7589 3.5597C13.3242 4.10821 13.7451 4.79744 14.0219 5.61067C15.1926 5.83008 16.1599 6.29513 16.8931 7.01297ZM7.10864 7.16798C6.98802 7.27053 7.02823 7.50902 7.05188 7.60918C7.06843 7.68073 7.10391 7.75704 7.12756 7.83097C7.2127 8.08615 7.32623 8.34372 7.49652 8.61082C7.56984 8.73006 7.64079 8.82784 7.71174 8.92324C7.81344 9.05679 7.91987 9.1808 8.06651 9.33343C8.08543 9.3549 8.14456 9.4169 8.19423 9.45506L8.21078 9.46699H8.21315C8.27227 9.4169 8.33377 9.35251 8.35032 9.33343C8.51825 9.15457 8.6365 9.01863 8.75003 8.86123C8.80442 8.78492 8.86119 8.70622 8.92031 8.61321C9.07641 8.36757 9.18284 8.12908 9.26799 7.89537C9.3011 7.79997 9.34367 7.70458 9.36495 7.61157C9.39097 7.49471 9.41935 7.28484 9.31529 7.18229C9.31292 7.17991 9.31292 7.17275 9.30819 7.17037C9.25616 7.12506 9.17338 7.09644 9.08351 7.09167C8.95816 7.08213 8.83517 7.12029 8.71218 7.18706C8.68144 7.20376 8.65069 7.22284 8.61995 7.24191C8.57974 7.26338 8.5419 7.28484 8.50169 7.31108L8.37634 7.38739L8.08307 7.39216L7.98137 7.34446L7.94825 7.33015C7.83946 7.26576 7.77087 7.22522 7.70465 7.18945C7.68809 7.17991 7.67154 7.17752 7.65262 7.16798C7.55565 7.12267 7.45395 7.09405 7.35934 7.09405H7.33096C7.24345 7.09405 7.15831 7.12267 7.10864 7.16798ZM6.03724 7.85244C5.89534 7.24668 6.03961 6.70771 6.42985 6.36667C6.6569 6.17111 6.95727 6.05426 7.27893 6.03756C7.60058 6.02087 7.91514 6.09957 8.20842 6.26412C8.50169 6.09957 8.82335 6.02087 9.1379 6.03756C9.16156 6.03995 9.18521 6.04949 9.20886 6.05187C9.50213 6.08287 9.77885 6.18781 9.98698 6.36667C10.1171 6.48115 10.2093 6.62424 10.2826 6.77687C10.4293 7.08451 10.4718 7.4494 10.3772 7.85244C10.3607 7.92875 10.3228 8.00745 10.2992 8.08615C10.2377 8.28648 10.1596 8.48919 10.0579 8.69191C9.97988 8.85169 9.89947 9.01625 9.79541 9.17842C9.76702 9.22134 9.74101 9.2595 9.71499 9.29766C9.53051 9.57669 9.35786 9.78656 9.10243 10.056C9.05986 10.1037 8.9345 10.2278 8.82808 10.3065C8.71928 10.3852 8.59629 10.4376 8.47094 10.4734C8.44966 10.4782 8.43074 10.4877 8.41182 10.4925C8.37397 10.502 8.31958 10.5116 8.26281 10.5139L8.21078 10.5163L8.1351 10.5139C8.09253 10.5116 8.03576 10.502 7.9861 10.4877C7.85601 10.4615 7.71411 10.3971 7.58639 10.3065C7.48942 10.2325 7.38536 10.1324 7.33569 10.0823L7.3144 10.0608C7.01877 9.75555 6.83665 9.52422 6.6167 9.17842C6.58595 9.13072 6.56703 9.08302 6.53865 9.03533C6.30687 8.63944 6.12948 8.24117 6.03724 7.85244Z" fill="#86888C"/>
</svg>
