<svg width="24" height="24" viewBox="0 0 24 24" fill="none" xmlns="http://www.w3.org/2000/svg">
<path fill-rule="evenodd" clip-rule="evenodd" d="M17.5433 20.7649C17.6397 20.7649 17.7361 20.6682 17.7361 20.5942V8.9778H15.4311C14.4218 8.9778 13.5486 8.642 12.9079 8.01024C12.2615 7.36995 11.9184 6.49915 11.9184 5.4889V3.23506H5.40621C5.3325 3.23506 5.21909 3.34604 5.21342 3.40581V9.14286L5.25311 17.2476L5.21342 20.5999C5.21342 20.6511 5.31265 20.7621 5.40621 20.7621H17.5433V20.7649ZM17.2257 7.74274L13.1234 3.69323V5.48606C13.1234 6.15481 13.3388 6.71827 13.7442 7.11952C14.1553 7.52647 14.7394 7.7399 15.4283 7.7399H17.2257V7.74274ZM18.8956 7.85088C18.9268 7.92487 18.9438 8.0074 18.9438 8.09277V20.5942C18.9438 21.3569 18.3003 22 17.5404 22H5.40338C4.65774 22 4 21.3426 4 20.5942L4.03969 17.2447L4 9.1457V3.40581C4 2.66875 4.66908 2 5.40338 2H12.7916C13.0213 2 13.2453 2.09391 13.4069 2.25612L18.6802 7.46101C18.7907 7.56631 18.8559 7.70575 18.8956 7.85088ZM14.5296 17.8082L15.1816 18.0529L14.0561 15.5572C13.611 15.9357 13.0326 16.1605 12.3324 16.2402L13.5061 18.8441L13.7499 18.1696C13.8718 17.8537 14.2234 17.6915 14.5296 17.8082ZM9.70989 18.8469L10.8978 16.2146C10.2089 16.1007 9.64469 15.8361 9.22793 15.4064L8.03151 18.0586L8.68642 17.811C8.99545 17.6972 9.34417 17.8566 9.46324 18.1725L9.70989 18.8469ZM11.7313 10.2612C9.97072 10.2612 9.1854 11.0637 9.1854 12.8623C9.1854 14.6608 9.97072 15.4604 11.7313 15.4604C13.4919 15.4604 14.2772 14.6579 14.2772 12.8623C14.2772 11.0637 13.4919 10.2612 11.7313 10.2612ZM14.6486 14.9027L16.1172 18.1611C16.2136 18.3773 16.1853 18.6249 16.0378 18.8099C15.8933 18.9949 15.6579 19.0717 15.434 19.0262L14.4388 18.6534L14.0845 19.6209C13.9569 19.8742 13.7527 19.9994 13.5288 19.9994H13.5118C13.2793 19.9937 13.0752 19.8543 12.9759 19.6409L11.6094 16.6101L10.2429 19.6409C10.1465 19.8543 9.93954 19.9937 9.70706 19.9994H9.69005C9.46607 19.9994 9.26195 19.8742 9.15421 19.6693L8.77998 18.6534L7.83306 19.0091C7.55805 19.0746 7.32274 18.992 7.17815 18.8099C7.03072 18.6249 7.00237 18.3773 7.09877 18.1611L8.65524 14.712C8.66941 14.6779 8.69776 14.6522 8.71761 14.6238C8.50214 14.1429 8.38023 13.5652 8.38023 12.8651C8.38023 10.5344 9.6135 9.44166 11.7313 9.44166C13.8491 9.44166 15.0852 10.5344 15.0852 12.8651C15.0852 13.6904 14.9236 14.3534 14.6288 14.8742C14.6345 14.8828 14.643 14.8913 14.6486 14.9027ZM11.1785 12.5322L10.6285 12.6204L11.0849 13.033C11.1615 13.1127 11.1983 13.2379 11.1813 13.3489L11.0792 13.9863L11.5215 13.6932C11.5357 13.6847 11.547 13.6733 11.5612 13.6648L11.564 13.6619C11.6746 13.5993 11.8164 13.6022 11.9241 13.679L12.3891 13.938L12.2785 13.3489C12.2615 13.2379 12.3012 13.1098 12.3777 13.0302L12.8115 12.5805L12.2303 12.5236C12.1197 12.5065 12.0177 12.4297 11.9695 12.3301L11.6973 11.7439L11.4932 12.3244C11.4393 12.4468 11.3117 12.5322 11.1785 12.5322ZM10.481 13.4001L10.1635 13.0729C9.98773 12.8879 9.9282 12.6232 10.0076 12.3785C10.087 12.1366 10.2854 11.963 10.5292 11.926L10.9545 11.8606L11.1473 11.4451C11.3628 10.9727 12.0999 10.9727 12.321 11.4451L12.5166 11.8663L12.9419 11.9317C13.1829 11.9687 13.3842 12.1394 13.4636 12.3813C13.543 12.6289 13.4834 12.8936 13.3076 13.0757L12.9901 13.4058L13.0667 13.8754C13.1063 14.1372 13.0043 14.3904 12.7973 14.5413C12.5932 14.6864 12.3239 14.7006 12.1141 14.5811L11.7398 14.3705L11.3628 14.5811C11.2664 14.6352 11.1586 14.6636 11.0509 14.6636C10.9205 14.6636 10.7901 14.6238 10.6767 14.5413C10.4697 14.3933 10.3676 14.1372 10.4102 13.8782L10.481 13.4001Z" fill="#86888C"/>
</svg>
