<svg width="20" height="20" viewBox="0 0 20 20" fill="none" xmlns="http://www.w3.org/2000/svg">
<path fill-rule="evenodd" clip-rule="evenodd" d="M14.8346 17.012C14.9117 17.012 14.9889 16.9345 14.9889 16.8754V7.58224H13.1449C12.3375 7.58224 11.6389 7.3136 11.1263 6.8082C10.6092 6.29596 10.3348 5.59932 10.3348 4.79112V2.98805H5.12497C5.066 2.98805 4.97527 3.07684 4.97074 3.12464V7.71429L5.00249 14.1981L4.97074 16.8799C4.97074 16.9209 5.05012 17.0097 5.12497 17.0097H14.8346V17.012ZM14.5806 6.59419L11.2987 3.35458V4.78884C11.2987 5.32385 11.4711 5.77462 11.7954 6.09562C12.1243 6.42117 12.5915 6.59192 13.1426 6.59192H14.5806V6.59419ZM15.9165 6.68071C15.9414 6.7399 15.9551 6.80592 15.9551 6.87422V16.8754C15.9551 17.4855 15.4402 18 14.8324 18H5.1227C4.52619 18 4 17.4741 4 16.8754L4.03175 14.1958L4 7.71656V3.12464C4 2.535 4.53527 2 5.1227 2H11.0333C11.217 2 11.3962 2.07513 11.5255 2.20489L15.7441 6.36881C15.8326 6.45304 15.8847 6.5646 15.9165 6.68071ZM12.4237 14.6466L12.9453 14.8423L12.0449 12.8458C11.6888 13.1485 11.2261 13.3284 10.6659 13.3921L11.6049 15.4752L11.7999 14.9357C11.8975 14.683 12.1787 14.5532 12.4237 14.6466ZM8.56792 15.4775L9.51824 13.3717C8.9671 13.2806 8.51575 13.0689 8.18234 12.7251L7.22521 14.8469L7.74914 14.6488C7.99636 14.5578 8.27533 14.6853 8.37059 14.938L8.56792 15.4775ZM10.1851 8.60899C8.77658 8.60899 8.14832 9.251 8.14832 10.6898C8.14832 12.1286 8.77658 12.7684 10.1851 12.7684C11.5935 12.7684 12.2218 12.1264 12.2218 10.6898C12.2218 9.251 11.5935 8.60899 10.1851 8.60899ZM12.5189 12.3221L13.6938 14.9289C13.7709 15.1019 13.7482 15.2999 13.6303 15.4479C13.5146 15.5959 13.3263 15.6574 13.1472 15.6209L12.3511 15.3227L12.0676 16.0968C11.9655 16.2994 11.8022 16.3995 11.623 16.3995H11.6094C11.4234 16.395 11.2601 16.2834 11.1807 16.1127L10.0875 13.6881L8.99431 16.1127C8.9172 16.2834 8.75163 16.395 8.56565 16.3995H8.55204C8.37286 16.3995 8.20956 16.2994 8.12337 16.1355L7.82398 15.3227L7.06645 15.6073C6.84644 15.6596 6.65819 15.5936 6.54252 15.4479C6.42458 15.2999 6.4019 15.1019 6.47901 14.9289L7.72419 12.1696C7.73553 12.1423 7.75821 12.1218 7.77409 12.099C7.60171 11.7143 7.50419 11.2521 7.50419 10.6921C7.50419 8.82755 8.4908 7.95333 10.1851 7.95333C11.8793 7.95333 12.8682 8.82755 12.8682 10.6921C12.8682 11.3523 12.7389 11.8828 12.503 12.2994C12.5076 12.3062 12.5144 12.313 12.5189 12.3221ZM9.74278 10.4257L9.30277 10.4963L9.66793 10.8264C9.72917 10.8902 9.75866 10.9903 9.74505 11.0791L9.6634 11.5891L10.0172 11.3546C10.0286 11.3478 10.0376 11.3386 10.049 11.3318L10.0512 11.3295C10.1397 11.2795 10.2531 11.2817 10.3393 11.3432L10.7113 11.5504L10.6228 11.0791C10.6092 10.9903 10.6409 10.8879 10.7022 10.8241L11.0492 10.4644L10.5842 10.4189C10.4958 10.4052 10.4141 10.3438 10.3756 10.2641L10.1578 9.79511L9.99454 10.2595C9.95144 10.3574 9.84938 10.4257 9.74278 10.4257ZM9.18483 11.1201L8.93081 10.8583C8.79019 10.7103 8.74256 10.4986 8.80606 10.3028C8.86957 10.1093 9.02834 9.9704 9.22339 9.94081L9.5636 9.88845L9.71783 9.55606C9.89021 9.17814 10.4799 9.17814 10.6568 9.55606L10.8133 9.893L11.1535 9.94536C11.3463 9.97496 11.5073 10.1116 11.5709 10.3051C11.6344 10.5031 11.5867 10.7149 11.4461 10.8606L11.1921 11.1246L11.2533 11.5003C11.2851 11.7097 11.2034 11.9124 11.0379 12.033C10.8746 12.1491 10.6591 12.1605 10.4912 12.0649L10.1919 11.8964L9.89021 12.0649C9.81309 12.1081 9.7269 12.1309 9.64072 12.1309C9.53639 12.1309 9.43205 12.099 9.34133 12.033C9.17576 11.9146 9.09411 11.7097 9.12813 11.5026L9.18483 11.1201Z" fill="#86888C"/>
</svg>
