<svg width="40" height="40" viewBox="0 0 40 40" fill="none" xmlns="http://www.w3.org/2000/svg">
<path d="M34.6331 35H19.8829C18.6904 35 17.9482 34.2528 17.9482 33.0554V6.91489C17.9482 5.73726 18.6904 5.00495 19.878 5H29.0813C29.3436 5 29.5959 5.10391 29.779 5.29193L37.498 13.0109C37.686 13.194 37.7899 13.4463 37.7899 13.7086V33.1C37.7899 33.4711 37.7553 33.951 37.4683 34.3518C37.2605 34.6437 36.8498 34.9951 36.068 34.9951C35.593 35 35.113 35 34.6331 35ZM32.5648 33.0208H35.8107V14.1242L28.6707 6.98417H19.9275V33.0208H32.5648Z" fill="#86888C"/>
<path d="M33.0001 19.4875H22.7378C22.1936 19.4875 21.7482 19.0422 21.7482 18.4979C21.7482 17.9536 22.1936 17.5083 22.7378 17.5083H33.0001C33.5444 17.5083 33.9897 17.9536 33.9897 18.4979C33.9897 19.0422 33.5444 19.4875 33.0001 19.4875ZM33.0001 24.3217H22.7378C22.1936 24.3217 21.7482 23.8764 21.7482 23.3321C21.7482 22.7878 22.1936 22.3425 22.7378 22.3425H33.0001C33.5444 22.3425 33.9897 22.7878 33.9897 23.3321C33.9897 23.8764 33.5444 24.3217 33.0001 24.3217ZM33.0001 29.1857H22.7378C22.1936 29.1857 21.7482 28.7403 21.7482 28.196C21.7482 27.6518 22.1936 27.2064 22.7378 27.2064H33.0001C33.5444 27.2064 33.9897 27.6518 33.9897 28.196C33.9897 28.7403 33.5444 29.1857 33.0001 29.1857ZM12.6983 13.06C12.2876 13.06 11.9561 12.7285 11.9561 12.3178C11.9561 12.1001 12.0501 11.8972 12.2134 11.7537C12.8962 11.1698 13.6829 10.482 13.8116 10.3583L13.8215 10.3484L13.8017 10.3237C13.4058 9.92786 12.2282 8.92835 12.2183 8.91846C11.9066 8.65126 11.867 8.18615 12.1342 7.87442C12.4014 7.56269 12.8665 7.52311 13.1782 7.7903C13.2277 7.83484 14.4103 8.83929 14.8507 9.27966C15.5088 9.9427 15.5137 10.7591 14.8606 11.4123C14.6379 11.6349 13.4207 12.679 13.1832 12.8868C13.0446 12.9956 12.8764 13.06 12.6983 13.06Z" fill="#86888C"/>
<path d="M7.37902 16.8801C6.96833 16.8801 6.63681 16.5486 6.63681 16.1379V14.6684C6.63681 12.991 7.08709 11.6995 7.98268 10.8435C8.83869 10.0221 10.0856 9.60156 11.6987 9.60156H13.8758C14.2865 9.60156 14.618 9.93308 14.618 10.3438C14.618 10.7545 14.2865 11.086 13.8758 11.086H11.6987C10.4864 11.086 9.5809 11.3631 9.01188 11.9123C8.42306 12.4813 8.12123 13.4066 8.12123 14.6684V16.1379C8.12123 16.5486 7.78971 16.8801 7.37902 16.8801ZM9.38793 34.9652H4.50421C3.60366 34.9652 3 34.3566 3 33.4511V19.0424C3 18.1617 3.61851 17.5432 4.50421 17.5432H10.3132C10.5755 17.5432 10.8278 17.6471 11.0158 17.8302L15.3058 22.1201C15.4938 22.3032 15.5977 22.5555 15.5977 22.8178V33.4709C15.5977 34.3467 14.9891 34.9553 14.1133 34.9553L9.38793 34.9652ZM4.97922 32.986H13.6136V23.2334L9.90252 19.5224H4.97922V32.986Z" fill="#86888C"/>
<path d="M12.0404 26.5779H6.57277C6.16209 26.5779 5.83057 26.2464 5.83057 25.8357C5.83057 25.425 6.16209 25.0935 6.57277 25.0935H12.0404C12.4511 25.0935 12.7826 25.425 12.7826 25.8357C12.7826 26.2464 12.4511 26.5779 12.0404 26.5779ZM12.0404 29.1509H6.57277C6.16209 29.1509 5.83057 28.8193 5.83057 28.4087C5.83057 27.998 6.16209 27.6664 6.57277 27.6664H12.0404C12.4511 27.6664 12.7826 27.998 12.7826 28.4087C12.7826 28.8193 12.4511 29.1509 12.0404 29.1509ZM12.0404 31.7238H6.57277C6.16209 31.7238 5.83057 31.3923 5.83057 30.9816C5.83057 30.5709 6.16209 30.2394 6.57277 30.2394H12.0404C12.4511 30.2394 12.7826 30.5709 12.7826 30.9816C12.7826 31.3923 12.4511 31.7238 12.0404 31.7238ZM14.0641 24.1088H12.3471C11.2883 24.1088 10.4619 23.8169 9.89291 23.2478C9.32389 22.6788 9.03195 21.8525 9.03195 20.7936V19.0766C9.03195 18.6659 9.36347 18.3344 9.77416 18.3344C10.1848 18.3344 10.5164 18.6659 10.5164 19.0766V20.7936C10.5164 22.0949 11.0458 22.6244 12.3471 22.6244H14.0641C14.4748 22.6244 14.8063 22.9559 14.8063 23.3666C14.8063 23.7773 14.4699 24.1088 14.0641 24.1088ZM36.8004 14.7026H32.9409C31.4862 14.7026 30.264 14.2473 29.4031 13.3864C28.5421 12.5254 28.0918 11.3033 28.0918 9.85348V5.994C28.0918 5.44972 28.5322 5.00439 29.0814 5.00439C29.6257 5.00439 30.071 5.44477 30.071 5.994V9.85348C30.071 10.7689 30.3234 11.5061 30.8034 11.9861C31.2833 12.466 32.0206 12.7233 32.9409 12.7233H36.8004C37.3447 12.7233 37.79 13.1687 37.79 13.713C37.79 14.2572 37.3447 14.7026 36.8004 14.7026Z" fill="#86888C"/>
</svg>
