<svg width="28" height="28" viewBox="0 0 28 28" fill="none" xmlns="http://www.w3.org/2000/svg">
<path d="M24.089 24H14.2556C13.4606 24 12.9658 23.5019 12.9658 22.7036V5.2766C12.9658 4.49151 13.4606 4.0033 14.2523 4H20.3879C20.5627 4 20.731 4.06927 20.853 4.19462L25.999 9.34059C26.1243 9.46264 26.1936 9.63088 26.1936 9.80571V22.7333C26.1936 22.9807 26.1705 23.3007 25.9792 23.5679C25.8406 23.7625 25.5668 23.9967 25.0456 23.9967C24.729 24 24.409 24 24.089 24ZM22.7102 22.6805H24.8741V10.0828L20.1141 5.32278H14.2853V22.6805H22.7102Z" fill="#86888C"/>
<path d="M23.0001 13.6582H16.1586C15.7957 13.6582 15.4988 13.3613 15.4988 12.9984C15.4988 12.6356 15.7957 12.3387 16.1586 12.3387H23.0001C23.3629 12.3387 23.6598 12.6356 23.6598 12.9984C23.6598 13.3613 23.3629 13.6582 23.0001 13.6582ZM23.0001 16.881H16.1586C15.7957 16.881 15.4988 16.5841 15.4988 16.2212C15.4988 15.8584 15.7957 15.5615 16.1586 15.5615H23.0001C23.3629 15.5615 23.6598 15.8584 23.6598 16.2212C23.6598 16.5841 23.3629 16.881 23.0001 16.881ZM23.0001 20.1236H16.1586C15.7957 20.1236 15.4988 19.8267 15.4988 19.4639C15.4988 19.101 15.7957 18.8041 16.1586 18.8041H23.0001C23.3629 18.8041 23.6598 19.101 23.6598 19.4639C23.6598 19.8267 23.3629 20.1236 23.0001 20.1236ZM9.46551 9.37315C9.19172 9.37315 8.9707 9.15214 8.9707 8.87835C8.9707 8.7332 9.03338 8.59796 9.14224 8.5023C9.59746 8.11305 10.1219 7.65453 10.2077 7.57206L10.2143 7.56547L10.2011 7.54897C9.93722 7.28508 9.15213 6.61874 9.14553 6.61214C8.93772 6.43401 8.91133 6.12393 9.08946 5.91612C9.26759 5.7083 9.57766 5.68191 9.78548 5.86004C9.81847 5.88973 10.6069 6.55936 10.9004 6.85295C11.3392 7.29497 11.3425 7.83926 10.907 8.27469C10.7586 8.42313 9.94712 9.11915 9.78878 9.2577C9.69642 9.33027 9.58426 9.37315 9.46551 9.37315Z" fill="#86888C"/>
<path d="M5.91935 11.9198C5.64555 11.9198 5.42454 11.6988 5.42454 11.425V10.4452C5.42454 9.32699 5.72472 8.46603 6.32179 7.89536C6.89246 7.34777 7.72373 7.06738 8.79911 7.06738H10.2505C10.5243 7.06738 10.7453 7.2884 10.7453 7.56219C10.7453 7.83598 10.5243 8.05699 10.2505 8.05699H8.79911C7.99093 8.05699 7.38727 8.24172 7.00792 8.60787C6.61537 8.98722 6.41415 9.60408 6.41415 10.4452V11.425C6.41415 11.6988 6.19314 11.9198 5.91935 11.9198ZM7.25862 23.9765H4.0028C3.40244 23.9765 3 23.5708 3 22.9671V13.3613C3 12.7741 3.41234 12.3618 4.0028 12.3618H7.87547C8.0503 12.3618 8.21854 12.4311 8.34389 12.5531L11.2039 15.4131C11.3292 15.5351 11.3985 15.7034 11.3985 15.8782V22.9803C11.3985 23.5642 10.9927 23.9699 10.4089 23.9699L7.25862 23.9765ZM4.31948 22.657H10.0757V16.1553L7.60168 13.6813H4.31948V22.657Z" fill="#86888C"/>
<path d="M9.02658 18.3852H5.38152C5.10773 18.3852 4.88672 18.1642 4.88672 17.8904C4.88672 17.6167 5.10773 17.3956 5.38152 17.3956H9.02658C9.30038 17.3956 9.52139 17.6167 9.52139 17.8904C9.52139 18.1642 9.30038 18.3852 9.02658 18.3852ZM9.02658 20.1006H5.38152C5.10773 20.1006 4.88672 19.8796 4.88672 19.6058C4.88672 19.332 5.10773 19.111 5.38152 19.111H9.02658C9.30038 19.111 9.52139 19.332 9.52139 19.6058C9.52139 19.8796 9.30038 20.1006 9.02658 20.1006ZM9.02658 21.8159H5.38152C5.10773 21.8159 4.88672 21.5949 4.88672 21.3211C4.88672 21.0473 5.10773 20.8263 5.38152 20.8263H9.02658C9.30038 20.8263 9.52139 21.0473 9.52139 21.3211C9.52139 21.5949 9.30038 21.8159 9.02658 21.8159ZM10.3758 16.7392H9.2311C8.52518 16.7392 7.9743 16.5446 7.59495 16.1652C7.2156 15.7859 7.02098 15.235 7.02098 14.5291V13.3844C7.02098 13.1106 7.24199 12.8896 7.51578 12.8896C7.78957 12.8896 8.01058 13.1106 8.01058 13.3844V14.5291C8.01058 15.3966 8.36355 15.7496 9.2311 15.7496H10.3758C10.6495 15.7496 10.8706 15.9706 10.8706 16.2444C10.8706 16.5182 10.6462 16.7392 10.3758 16.7392ZM25.5333 10.4684H22.9603C21.9905 10.4684 21.1757 10.1649 20.6017 9.59092C20.0277 9.01695 19.7276 8.20217 19.7276 7.23565V4.66267C19.7276 4.29981 20.0211 4.00293 20.3873 4.00293C20.7502 4.00293 21.047 4.29651 21.047 4.66267V7.23565C21.047 7.84591 21.2153 8.33742 21.5352 8.65739C21.8552 8.97736 22.3467 9.1489 22.9603 9.1489H25.5333C25.8961 9.1489 26.193 9.44578 26.193 9.80864C26.193 10.1715 25.8961 10.4684 25.5333 10.4684Z" fill="#86888C"/>
</svg>
