<svg width="28" height="28" viewBox="0 0 28 28" fill="none" xmlns="http://www.w3.org/2000/svg">
<path fill-rule="evenodd" clip-rule="evenodd" d="M25.5795 17.1674L25.0879 21.1619C25.03 21.615 24.6412 21.9524 24.1849 21.9492H20.1808C19.6827 21.9524 19.2778 21.5539 19.2713 21.0558C19.2713 20.5642 19.6827 20.1625 20.1808 20.1625H22.3403L16.6202 12.1897L8.82732 15.5478C8.3967 15.7278 7.8986 15.5639 7.6608 15.1654L3.11685 7.289C2.87262 6.85838 3.02365 6.31529 3.45427 6.07106C3.45748 6.06785 3.4607 6.06785 3.46391 6.06464C3.90095 5.82362 4.45047 5.97144 4.70112 6.40206L8.84339 13.5779L16.5655 10.2583C16.9608 10.0848 17.4236 10.2101 17.6774 10.5604L23.5486 18.7581L23.7671 16.9521C23.8378 16.4572 24.2877 16.107 24.7858 16.1648C25.2775 16.2194 25.6342 16.6661 25.5795 17.1578V17.1674Z" fill="#86888C"/>
</svg>
