<svg width="20" height="20" viewBox="0 0 20 20" fill="none" xmlns="http://www.w3.org/2000/svg">
<path fill-rule="evenodd" clip-rule="evenodd" d="M18.9346 12.3629L18.5659 15.3587C18.5225 15.6985 18.2309 15.9516 17.8886 15.9492H14.8856C14.512 15.9516 14.2083 15.6528 14.2035 15.2792C14.2035 14.9104 14.512 14.6092 14.8856 14.6092H16.5052L12.2151 8.62955L6.37049 11.1482C6.04753 11.2831 5.67395 11.1602 5.4956 10.8614L2.08763 4.95405C1.90446 4.63109 2.01774 4.22377 2.3407 4.0406C2.34311 4.03819 2.34552 4.03819 2.34793 4.03578C2.67571 3.85502 3.08785 3.96589 3.27584 4.28885L6.38254 9.67074L12.1742 7.18104C12.4706 7.05089 12.8177 7.14489 13.0081 7.4076L17.4114 13.5559L17.5753 12.2014C17.6283 11.8302 17.9658 11.5675 18.3393 11.6109C18.7081 11.6519 18.9756 11.9869 18.9346 12.3557V12.3629Z" fill="#86888C"/>
</svg>
