<svg width="40" height="40" viewBox="0 0 40 40" fill="none" xmlns="http://www.w3.org/2000/svg">
<path fill-rule="evenodd" clip-rule="evenodd" d="M38.6917 25.1788L37.8928 31.6698C37.7988 32.4061 37.1669 32.9544 36.4254 32.9492H29.9188C29.1093 32.9544 28.4514 32.3069 28.4409 31.4975C28.4409 30.6985 29.1093 30.0457 29.9188 30.0457H33.428L24.1328 17.0899L11.4694 22.5469C10.7696 22.8394 9.96023 22.573 9.5738 21.9255L2.18987 9.12636C1.793 8.42661 2.03844 7.54409 2.73819 7.14722C2.74341 7.142 2.74863 7.142 2.75385 7.13677C3.46405 6.74512 4.35701 6.98533 4.76433 7.68508L11.4955 19.3458L24.044 13.9515C24.6863 13.6695 25.4383 13.8732 25.8508 14.4424L35.3914 27.7637L35.7465 24.829C35.8614 24.0248 36.5925 23.4556 37.4019 23.5496C38.2009 23.6383 38.7805 24.3642 38.6917 25.1632V25.1788Z" fill="#86888C"/>
</svg>
