<svg width="28" height="28" viewBox="0 0 28 28" fill="none" xmlns="http://www.w3.org/2000/svg">
<path fill-rule="evenodd" clip-rule="evenodd" d="M24.1769 7.64483V11.4928C24.1769 11.8453 23.8756 12.1376 23.508 12.1376C23.1464 12.1436 22.8451 11.8543 22.8391 11.4928V9.53113L16.9542 17.6428C16.7704 17.8989 16.4329 17.9923 16.1436 17.8658L8.39957 14.5723L4.24732 21.6745C4.12679 21.8794 3.90682 22.003 3.66878 21.9999C3.55427 21.9999 3.44278 21.9728 3.33732 21.9216C3.02695 21.7559 2.90944 21.3702 3.07517 21.0598C3.08119 21.0508 3.0842 21.0417 3.09023 21.0357L7.53477 13.4363C7.70954 13.144 8.07113 13.0265 8.38149 13.1621L16.1768 16.4736L22.1189 8.2957H19.5878C19.2262 8.30172 18.9248 8.01245 18.9188 7.65086V7.64785C18.9188 7.28626 19.2141 7 19.5878 7H23.508C23.8726 7 24.1769 7.28325 24.1769 7.64483Z" fill="#86888C"/>
</svg>
