<svg width="24" height="24" viewBox="0 0 24 24" fill="none" xmlns="http://www.w3.org/2000/svg">
<path fill-rule="evenodd" clip-rule="evenodd" d="M21.3533 7.55886V10.8937C21.3533 11.1993 21.0922 11.4526 20.7736 11.4526C20.4602 11.4578 20.1991 11.2071 20.1938 10.8937V9.19364L15.0936 16.2238C14.9343 16.4457 14.6418 16.5267 14.3911 16.417L7.67963 13.5627L4.08101 19.7179C3.97655 19.8955 3.78591 20.0026 3.57961 20C3.48037 20 3.38374 19.9765 3.29234 19.9321C3.02336 19.7884 2.92151 19.4542 3.06514 19.1852C3.07037 19.1773 3.07298 19.1695 3.0782 19.1643L6.93014 12.5781C7.0816 12.3248 7.39498 12.223 7.66396 12.3405L14.4199 15.2105L19.5697 8.12294H17.3761C17.0627 8.12816 16.8015 7.87746 16.7963 7.56408V7.56147C16.7963 7.24809 17.0522 7 17.3761 7H20.7736C21.0896 7 21.3533 7.24548 21.3533 7.55886Z" fill="#86888C"/>
</svg>
