<svg width="28" height="28" viewBox="0 0 28 28" fill="none" xmlns="http://www.w3.org/2000/svg">
<path d="M6.80763 25C6.16086 25 5.59038 24.4494 5.59038 23.8226V21.0564C4.09453 20.7512 3 19.4179 3 17.7728V6.34992C3 4.50249 4.51244 3 6.36982 3H22.927C24.7844 3 26.2935 4.50249 26.2935 6.34992V17.7761C26.2935 19.6235 24.7844 21.126 22.927 21.126H10.4428L7.83582 24.4627C7.43118 25 6.9602 25 6.80763 25ZM6.3665 4.3267C5.24212 4.3267 4.3267 5.23549 4.3267 6.34992V17.7761C4.3267 18.9303 5.15589 19.7993 6.25373 19.7993C6.61857 19.7993 6.91708 20.0978 6.91708 20.4627V23.4842L9.59702 20.058C9.72305 19.8988 9.91542 19.8027 10.1211 19.8027H22.9237C24.0481 19.8027 24.9635 18.8939 24.9635 17.7794V6.34992C24.9635 5.23217 24.0481 4.3267 22.9237 4.3267H6.3665Z" fill="#86888C"/>
<path d="M21.7063 10.1704H7.57692C7.21208 10.1704 6.91357 9.87194 6.91357 9.5071C6.91357 9.14226 7.21208 8.84375 7.57692 8.84375H21.7063C22.0711 8.84375 22.3696 9.14226 22.3696 9.5071C22.3696 9.87194 22.0711 10.1704 21.7063 10.1704ZM17.1789 15.3446H7.57692C7.21208 15.3446 6.91357 15.0461 6.91357 14.6812C6.91357 14.3164 7.21208 14.0179 7.57692 14.0179H17.1789C17.5438 14.0179 17.8423 14.3164 17.8423 14.6812C17.8423 15.0461 17.5438 15.3446 17.1789 15.3446Z" fill="#86888C"/>
</svg>
