<svg width="40" height="40" viewBox="0 0 40 40" fill="none" xmlns="http://www.w3.org/2000/svg">
<path fill-rule="evenodd" clip-rule="evenodd" d="M4.48652 35.7308H35.7074L25.5087 22.2999C23.9054 22.7405 21.9077 22.9812 19.7922 22.9812C17.8354 22.9812 15.9709 22.7661 14.4342 22.3921L4.48652 35.7308ZM16.5599 19.5492L15.9299 20.3791C18.3938 20.8042 21.6106 20.7888 23.9976 20.333L23.4137 19.5492C23.2651 19.3597 23.1832 19.1241 23.1832 18.8833V4.26921H16.7905V17.0649C16.7905 17.0803 16.7751 17.1264 16.7751 17.1571C16.7751 17.1878 16.7905 17.2186 16.7905 17.2493V18.8833C16.7905 19.119 16.7085 19.3546 16.5599 19.5492ZM37.6026 34.4861C38.0944 35.2595 38.1251 36.1201 37.7256 36.8321C37.326 37.5441 36.5577 38 35.7074 38H4.14332C3.36985 38 2.66296 37.5748 2.27878 36.9243C1.89461 36.2635 1.90997 35.4388 2.30952 34.7883L14.4751 18.4991V17.2595C14.4598 17.1776 14.4598 17.0956 14.4751 17.0188V4.26921H13.0716C12.4416 4.26921 11.9293 3.76209 11.9191 3.13204C11.9242 2.49687 12.4467 2 13.0767 2H26.9276C27.5525 2 28.0648 2.50711 28.0648 3.13717C28.0648 3.76722 27.5577 4.27433 26.9276 4.27433H25.4985V18.5043L37.6026 34.4861ZM26.3283 30.926C26.3283 28.8924 24.6379 28.7234 24.2025 28.708C24.1462 28.708 24.0898 28.7029 24.0335 28.7029H23.9925C23.5469 28.708 21.8975 28.8566 21.8975 30.9055C21.8975 32.9545 23.5673 33.1184 24.013 33.1235H24.2179C24.6379 33.1235 26.3283 32.9647 26.3283 30.926ZM24.0386 27.1918L24.2435 27.1969C26.0466 27.243 27.8701 28.4109 27.8701 30.926C27.8701 33.4462 26.0466 34.6141 24.2435 34.6448H23.9874C22.1792 34.6192 20.3556 33.4565 20.3556 30.9158C20.3556 28.3699 22.1741 27.2123 23.9823 27.1969L24.0386 27.1918ZM16.2577 28.457C16.4934 28.4519 17.4359 28.3648 17.4359 27.2277C17.4359 26.0956 16.4934 26.0034 16.2526 25.9983H16.1348C15.8889 25.9983 14.9669 26.0854 14.9669 27.2225C14.9669 28.3648 15.8992 28.4519 16.145 28.457H16.2577ZM16.2936 24.4872C17.5844 24.5179 18.9777 25.3887 18.9777 27.2328C18.9777 29.082 17.5793 29.9476 16.2833 29.9732H16.1245C14.8235 29.9528 13.4302 29.0871 13.4302 27.2277C13.4302 25.358 14.8235 24.4974 16.1194 24.4872H16.2936Z" fill="#86888C"/>
</svg>
