<svg width="24" height="24" viewBox="0 0 24 24" fill="none" xmlns="http://www.w3.org/2000/svg">
<path fill-rule="evenodd" clip-rule="evenodd" d="M3.3814 20.7393H20.7263L15.0604 13.2777C14.1697 13.5225 13.0598 13.6562 11.8845 13.6562C10.7975 13.6562 9.7616 13.5367 8.90787 13.329L3.3814 20.7393ZM10.0889 11.7496L9.73883 12.2106C11.1076 12.4468 12.8948 12.4382 14.2209 12.185L13.8965 11.7496C13.814 11.6443 13.7684 11.5134 13.7684 11.3796V3.26067H10.2169V10.3694C10.2169 10.3779 10.2084 10.4035 10.2084 10.4206C10.2084 10.4377 10.2169 10.4548 10.2169 10.4718V11.3796C10.2169 11.5105 10.1714 11.6414 10.0889 11.7496ZM21.7792 20.0478C22.0524 20.4775 22.0695 20.9556 21.8475 21.3512C21.6256 21.7467 21.1987 22 20.7263 22H3.19074C2.76103 22 2.36831 21.7638 2.15488 21.4024C1.94145 21.0353 1.94998 20.5771 2.17195 20.2157L8.93063 11.1662V10.4775C8.9221 10.432 8.9221 10.3865 8.93063 10.3438V3.26067H8.1509C7.80087 3.26067 7.51629 2.97894 7.5106 2.62891C7.51345 2.27604 7.80371 2 8.15374 2H15.8487C16.1959 2 16.4804 2.28173 16.4804 2.63176C16.4804 2.98179 16.1987 3.26352 15.8487 3.26352H15.0547V11.169L21.7792 20.0478ZM15.5157 18.07C15.5157 16.9402 14.5766 16.8463 14.3347 16.8378C14.3034 16.8378 14.2721 16.8349 14.2408 16.8349H14.2181C13.9705 16.8378 13.0541 16.9203 13.0541 18.0586C13.0541 19.1969 13.9819 19.288 14.2294 19.2908H14.3433C14.5766 19.2908 15.5157 19.2026 15.5157 18.07ZM14.2437 15.9954L14.3575 15.9983C15.3592 16.0239 16.3723 16.6727 16.3723 18.07C16.3723 19.4701 15.3592 20.119 14.3575 20.136H14.2152C13.2107 20.1218 12.1976 19.4758 12.1976 18.0643C12.1976 16.65 13.2078 16.0068 14.2124 15.9983L14.2437 15.9954ZM9.92096 16.6983C10.0519 16.6955 10.5755 16.6471 10.5755 16.0154C10.5755 15.3865 10.0519 15.3352 9.91811 15.3324H9.85266C9.71606 15.3324 9.20383 15.3808 9.20383 16.0125C9.20383 16.6471 9.72176 16.6955 9.85835 16.6983H9.92096ZM9.94088 14.4929C10.658 14.51 11.4321 14.9937 11.4321 16.0182C11.4321 17.0455 10.6552 17.5265 9.93519 17.5407H9.84697C9.12415 17.5293 8.3501 17.0484 8.3501 16.0154C8.3501 14.9767 9.12415 14.4986 9.84412 14.4929H9.94088Z" fill="#86888C"/>
</svg>
