<svg width="28" height="28" viewBox="0 0 28 28" fill="none" xmlns="http://www.w3.org/2000/svg">
<path fill-rule="evenodd" clip-rule="evenodd" d="M8.50896 24.491H19.495V22.7841H8.50896V24.491ZM10.2091 21.2853H17.7949V19.9915H10.2091V21.2853ZM12.5511 10.528H15.5656L16.4805 18.4893H11.6327L12.5511 10.528ZM11.5542 9.0293H16.559V7.87539H11.5542V9.0293ZM9.47852 3.50213H10.1784V4.62873C10.1784 5.04182 10.5164 5.3798 10.9294 5.3798H12.9949C13.4114 5.3798 13.7459 5.04523 13.7459 4.62873V3.50213H14.1556V4.72432C14.1556 4.92575 14.2376 5.11693 14.3809 5.2569C14.5243 5.39687 14.7189 5.47539 14.9203 5.47198L17.0233 5.44125C17.433 5.43442 17.7642 5.09986 17.7642 4.69019V3.50213H18.5562V6.37667H9.47511V3.50213H9.47852ZM20.2461 21.2853H19.297V19.2404C19.297 18.8273 18.959 18.4893 18.5459 18.4893H17.9963L17.078 10.528H17.3101C17.7266 10.528 18.0612 10.1935 18.0612 9.77696V7.87198H19.3073C19.7238 7.87198 20.0583 7.53741 20.0583 7.12091V2.75107C20.0583 2.33798 19.7203 2 19.3073 2H17.0097C16.5932 2 16.2586 2.33457 16.2586 2.75107V3.95277L15.6578 3.96302V2.75107C15.6578 2.33798 15.3198 2 14.9067 2H12.9949C12.5784 2 12.2438 2.33457 12.2438 2.75107V3.87767H11.6805V2.75107C11.6805 2.33798 11.3425 2 10.9294 2H8.72404C8.30754 2 7.97297 2.33457 7.97297 2.75107V7.12432C7.97297 7.53741 8.31095 7.87539 8.72404 7.87539H10.0486V9.78037C10.0486 10.1935 10.3866 10.5314 10.7997 10.5314H11.0319L10.1135 18.4927H9.45121C9.03471 18.4927 8.70014 18.8273 8.70014 19.2438V21.2888H7.75107C7.33457 21.2888 7 21.6233 7 22.0398V25.2489C7 25.662 7.33798 26 7.75107 26H20.2427C20.6592 26 20.9937 25.6654 20.9937 25.2489V22.0398C21.0006 21.6199 20.6626 21.2853 20.2461 21.2853Z" fill="#86888C"/>
</svg>
