<svg width="20" height="20" viewBox="0 0 20 20" fill="none" xmlns="http://www.w3.org/2000/svg">
<path fill-rule="evenodd" clip-rule="evenodd" d="M6.00597 16.994H13.33V15.856H6.00597V16.994ZM7.1394 14.8569H12.1966V13.9943H7.1394V14.8569ZM8.70071 7.68535H10.7104L11.3203 12.9929H8.08848L8.70071 7.68535ZM8.03613 6.6862H11.3727V5.91693H8.03613V6.6862ZM6.65235 3.00142H7.11892V3.75249C7.11892 4.02788 7.34424 4.2532 7.61963 4.2532H8.99659C9.27425 4.2532 9.4973 4.03016 9.4973 3.75249V3.00142H9.77041V3.81622C9.77041 3.9505 9.82504 4.07795 9.92063 4.17127C10.0162 4.26458 10.1459 4.31693 10.2802 4.31465L11.6822 4.29417C11.9553 4.28962 12.1761 4.06657 12.1761 3.79346V3.00142H12.7041V4.91778H6.65007V3.00142H6.65235ZM13.8307 14.8569H13.198V13.4936C13.198 13.2182 12.9727 12.9929 12.6973 12.9929H12.3309L11.7186 7.68535H11.8734C12.1511 7.68535 12.3741 7.4623 12.3741 7.18464V5.91465H13.2048C13.4825 5.91465 13.7055 5.69161 13.7055 5.41394V2.50071C13.7055 2.22532 13.4802 2 13.2048 2H11.6731C11.3954 2 11.1724 2.22304 11.1724 2.50071V3.30185L10.7718 3.30868V2.50071C10.7718 2.22532 10.5465 2 10.2711 2H8.99659C8.71892 2 8.49587 2.22304 8.49587 2.50071V3.25178H8.12034V2.50071C8.12034 2.22532 7.89502 2 7.61963 2H6.14936C5.87169 2 5.64865 2.22304 5.64865 2.50071V5.41622C5.64865 5.69161 5.87397 5.91693 6.14936 5.91693H7.03243V7.18691C7.03243 7.4623 7.25775 7.68762 7.53314 7.68762H7.68791L7.07568 12.9952H6.63414C6.35647 12.9952 6.13343 13.2182 6.13343 13.4959V14.8592H5.50071C5.22304 14.8592 5 15.0822 5 15.3599V17.4993C5 17.7747 5.22532 18 5.50071 18H13.8285C14.1061 18 14.3292 17.777 14.3292 17.4993V15.3599C14.3337 15.0799 14.1084 14.8569 13.8307 14.8569Z" fill="#86888C"/>
</svg>
