<svg width="40" height="40" viewBox="0 0 40 40" fill="none" xmlns="http://www.w3.org/2000/svg">
<path fill-rule="evenodd" clip-rule="evenodd" d="M11.3713 35.7366H28.6354V33.1761H11.3713V35.7366ZM14.043 30.928H25.9637V28.9872H14.043V30.928ZM17.7233 14.792H22.4605L23.8982 26.734H16.2801L17.7233 14.792ZM16.1567 12.544H24.0216V10.8131H16.1567V12.544ZM12.8949 4.2532H13.9947V5.9431C13.9947 6.56273 14.5258 7.0697 15.175 7.0697H18.4207C19.0752 7.0697 19.601 6.56785 19.601 5.9431V4.2532H20.2448V6.08649C20.2448 6.38862 20.3735 6.67539 20.5989 6.88535C20.8242 7.09531 21.13 7.21309 21.4465 7.20797L24.7513 7.16188C25.395 7.15164 25.9154 6.64979 25.9154 6.03528V4.2532H27.1601V8.56501H12.8895V4.2532H12.8949ZM29.8157 30.928H28.3243V27.8606C28.3243 27.241 27.7931 26.734 27.144 26.734H26.2802L24.8371 14.792H25.2019C25.8564 14.792 26.3822 14.2902 26.3822 13.6654V10.808H28.3404C28.9949 10.808 29.5206 10.3061 29.5206 9.68137V3.1266C29.5206 2.50697 28.9895 2 28.3404 2H24.7298C24.0753 2 23.5495 2.50185 23.5495 3.1266V4.92916L22.6053 4.94452V3.1266C22.6053 2.50697 22.0742 2 21.425 2H18.4207C17.7662 2 17.2404 2.50185 17.2404 3.1266V4.8165H16.3552V3.1266C16.3552 2.50697 15.8241 2 15.175 2H11.7093C11.0547 2 10.529 2.50185 10.529 3.1266V9.68649C10.529 10.3061 11.0601 10.8131 11.7093 10.8131H13.7908V13.6706C13.7908 14.2902 14.322 14.7972 14.9711 14.7972H15.3359L13.8928 26.7391H12.852C12.1975 26.7391 11.6717 27.241 11.6717 27.8657V30.9331H10.1803C9.52576 30.9331 9 31.435 9 32.0597V36.8734C9 37.493 9.53112 38 10.1803 38H29.8103C30.4648 38 30.9906 37.4981 30.9906 36.8734V32.0597C31.0013 31.4299 30.4702 30.928 29.8157 30.928Z" fill="#86888C"/>
</svg>
