<svg width="28" height="28" viewBox="0 0 28 28" fill="none" xmlns="http://www.w3.org/2000/svg">
<path fill-rule="evenodd" clip-rule="evenodd" d="M8.30471 25.9995C7.93932 25.9995 7.59101 25.8425 7.34514 25.5727C6.85682 25.0263 6.89097 24.1931 7.42027 23.6877L17.7672 13.9111L7.4271 4.32231C6.89439 3.82034 6.85682 2.98712 7.34173 2.43734C7.80956 1.90463 8.61887 1.84999 9.15158 2.31782C9.16183 2.32806 9.17207 2.33489 9.18232 2.34514L20.5742 12.914C20.8474 13.1667 21.001 13.5218 21.001 13.894C21.0044 14.2662 20.8542 14.6248 20.5844 14.8809L9.18915 25.6444C8.9514 25.8728 8.63437 26.0001 8.30471 25.9995Z" fill="#86888C"/>
</svg>
