<svg width="16" height="16" viewBox="0 0 16 16" fill="none" xmlns="http://www.w3.org/2000/svg">
<path fill-rule="evenodd" clip-rule="evenodd" d="M5.62899 13.9995C5.45284 13.9995 5.28492 13.921 5.16639 13.7861C4.93098 13.5129 4.94744 13.0963 5.20261 12.8436L10.1908 7.95531L5.2059 3.16091C4.94908 2.90992 4.93098 2.49332 5.16474 2.21842C5.39028 1.95207 5.78044 1.92475 6.03726 2.15867C6.0422 2.16379 6.04714 2.1672 6.05208 2.17232L11.544 7.45674C11.6757 7.58309 11.7498 7.76066 11.7498 7.94677C11.7514 8.13288 11.679 8.31216 11.5489 8.44021L6.05537 13.822C5.94075 13.9361 5.78792 13.9998 5.62899 13.9995Z" fill="#86888C"/>
</svg>
