<svg width="28" height="28" viewBox="0 0 28 28" fill="none" xmlns="http://www.w3.org/2000/svg">
<path fill-rule="evenodd" clip-rule="evenodd" d="M26 20.6954C26 21.0607 25.8429 21.409 25.5732 21.6549C25.0268 22.1432 24.1936 22.109 23.6882 21.5798L13.9116 11.2336L4.3228 21.5729C3.82082 22.1056 2.98761 22.1432 2.43783 21.6583C1.90512 21.1905 1.85048 20.3813 2.31831 19.8486C2.32855 19.8383 2.33538 19.8281 2.34563 19.8179L12.9145 8.42688C13.1672 8.15371 13.5223 8.00006 13.8945 8.00006C14.2667 7.99664 14.6253 8.14688 14.8814 8.41663L25.6449 19.811C25.8733 20.0487 26.0006 20.3658 26 20.6954Z" fill="#86888C"/>
</svg>
