<svg width="40" height="40" viewBox="0 0 40 40" fill="none" xmlns="http://www.w3.org/2000/svg">
<path fill-rule="evenodd" clip-rule="evenodd" d="M1.99997 11.9571C1.99997 11.409 2.23559 10.8865 2.64024 10.5177C3.4598 9.78524 4.70962 9.83646 5.46771 10.6304L20.1326 26.1508L34.5158 10.6406C35.2688 9.84158 36.5186 9.78523 37.3433 10.5126C38.1423 11.2143 38.2243 12.4283 37.5225 13.2274C37.5072 13.2427 37.4969 13.2581 37.4816 13.2735L21.6283 30.3612C21.2493 30.771 20.7165 31.0015 20.1582 31.0015C19.5999 31.0066 19.0621 30.7813 18.6779 30.3766L2.53268 13.2837C2.19012 12.9271 1.99916 12.4516 1.99997 11.9571Z" fill="#86888C"/>
</svg>
