<svg width="24" height="24" viewBox="0 0 24 24" fill="none" xmlns="http://www.w3.org/2000/svg">
<path fill-rule="evenodd" clip-rule="evenodd" d="M22 17.975C22 18.262 21.8691 18.5357 21.6443 18.7288C21.189 19.1125 20.4947 19.0857 20.0735 18.6698L11.9263 10.5407L3.93567 18.6644C3.51735 19.083 2.82301 19.1125 2.36485 18.7315C1.92093 18.364 1.8754 17.7281 2.26526 17.3096C2.27379 17.3016 2.27948 17.2935 2.28802 17.2855L11.0954 8.3354C11.306 8.12077 11.6019 8.00004 11.9121 8.00004C12.2223 7.99736 12.5211 8.11541 12.7345 8.32735L21.7041 17.2801C21.8944 17.4669 22.0005 17.7159 22 17.975Z" fill="#86888C"/>
</svg>
