<svg width="16" height="16" viewBox="0 0 16 16" fill="none" xmlns="http://www.w3.org/2000/svg">
<path fill-rule="evenodd" clip-rule="evenodd" d="M11.122 2.00048C11.2981 2.00048 11.4661 2.07902 11.5846 2.2139C11.82 2.48709 11.8035 2.9037 11.5484 3.15639L6.56021 8.04469L11.5451 12.8391C11.8019 13.0901 11.82 13.5067 11.5862 13.7816C11.3607 14.0479 10.9705 14.0752 10.7137 13.8413C10.7088 13.8362 10.7038 13.8328 10.6989 13.8277L5.20699 8.54325C5.07529 8.41691 5.0012 8.23934 5.0012 8.05323C4.99956 7.86712 5.07199 7.68784 5.20205 7.55979L10.6956 2.17805C10.8102 2.06386 10.9631 2.00021 11.122 2.00048Z" fill="#86888C"/>
</svg>
