<svg width="20" height="20" viewBox="0 0 20 20" fill="none" xmlns="http://www.w3.org/2000/svg">
<path d="M12.8904 16.0091H6.22755C5.97698 16.0091 5.77197 15.8041 5.77197 15.5536V8.55128C5.77197 8.30071 5.97698 8.0957 6.22755 8.0957H12.8904C13.141 8.0957 13.346 8.30071 13.346 8.55128V15.5536C13.346 15.8041 13.1433 16.0091 12.8904 16.0091ZM6.68313 15.098H12.4348V9.00686H6.68313V15.098Z" fill="#86888C"/>
<path d="M8.44435 11.2278C8.19378 11.2278 7.98877 11.0228 7.98877 10.7722V8.55128C7.98877 8.30071 8.19378 8.0957 8.44435 8.0957C8.69492 8.0957 8.89993 8.30071 8.89993 8.55128V10.7722C8.89993 11.0251 8.69492 11.2278 8.44435 11.2278ZM10.6653 11.2278C10.4147 11.2278 10.2097 11.0228 10.2097 10.7722V8.55128C10.2097 8.30071 10.4147 8.0957 10.6653 8.0957C10.9159 8.0957 11.1209 8.30071 11.1209 8.55128V10.7722C11.1209 11.0251 10.9159 11.2278 10.6653 11.2278ZM8.44435 16.0091C8.19378 16.0091 7.98877 15.8041 7.98877 15.5536V13.3326C7.98877 13.082 8.19378 12.877 8.44435 12.877C8.69492 12.877 8.89993 13.082 8.89993 13.3326V15.5536C8.89993 15.8041 8.69492 16.0091 8.44435 16.0091ZM10.6653 16.0091C10.4147 16.0091 10.2097 15.8041 10.2097 15.5536V13.3326C10.2097 13.082 10.4147 12.877 10.6653 12.877C10.9159 12.877 11.1209 13.082 11.1209 13.3326V15.5536C11.1209 15.8041 10.9159 16.0091 10.6653 16.0091Z" fill="#86888C"/>
<path d="M12.8904 11.2276H6.22755C5.97698 11.2276 5.77197 11.0226 5.77197 10.772C5.77197 10.5214 5.97698 10.3164 6.22755 10.3164H12.8904C13.141 10.3164 13.346 10.5214 13.346 10.772C13.346 11.0226 13.1433 11.2276 12.8904 11.2276ZM12.8904 13.7879H6.22755C5.97698 13.7879 5.77197 13.5829 5.77197 13.3324C5.77197 13.0818 5.97698 12.8768 6.22755 12.8768H12.8904C13.141 12.8768 13.346 13.0818 13.346 13.3324C13.346 13.5829 13.1433 13.7879 12.8904 13.7879Z" fill="#86888C"/>
<path d="M13.3326 18H5.78815C5.39636 18 4.8451 17.9134 4.44875 17.4943C4.1549 17.1822 4 16.7403 4 16.2118V5.33713C4 5.20957 4.05239 5.08884 4.14579 5.00228L7.25285 2.12073C7.33713 2.04328 7.44875 2 7.56264 2H13.3326C13.7244 2 14.2756 2.08656 14.672 2.50569C14.9658 2.81777 15.1207 3.25968 15.1207 3.78815V16.2118C15.1207 16.7403 14.9658 17.1822 14.672 17.4943C14.4533 17.7244 14.0433 18 13.3326 18ZM4.91116 5.53531V16.2118C4.91116 16.8178 5.18223 17.0888 5.78815 17.0888H13.3326C13.9385 17.0888 14.2096 16.8178 14.2096 16.2118V3.78815C14.2096 3.18223 13.9385 2.91116 13.3326 2.91116H7.7426L4.91116 5.53531Z" fill="#86888C"/>
</svg>
