<svg width="20" height="20" viewBox="0 0 20 20" fill="none" xmlns="http://www.w3.org/2000/svg">
<path fill-rule="evenodd" clip-rule="evenodd" d="M9.99772 17.0006C14.7103 17.0006 17.0006 14.7103 17.0006 10.0023C17.0006 5.2897 14.7103 2.99943 9.99772 2.99943C5.2897 2.99943 2.99943 5.2897 2.99943 10.0023C2.99943 14.7103 5.2897 17.0006 9.99772 17.0006ZM9.99772 2C15.0518 2 18 4.55208 18 10.0023C18 15.4525 15.0518 18 9.99772 18C4.94365 18 2 15.4525 2 10.0023C2 4.55208 4.94365 2 9.99772 2ZM10.5009 10.0137L12.8162 12.3312C13.0188 12.5202 13.0302 12.8367 12.8412 13.037C12.6522 13.2396 12.3358 13.251 12.1355 13.062L12.1104 13.037L9.64713 10.5737C9.55379 10.4804 9.50142 10.3529 9.50142 10.2208V6.88788C9.50142 6.61241 9.72453 6.38702 10.0023 6.38702C10.28 6.38702 10.5031 6.61013 10.5031 6.88788L10.5009 10.0137Z" fill="#86888C"/>
</svg>
