<svg width="24" height="24" viewBox="0 0 24 24" fill="none" xmlns="http://www.w3.org/2000/svg">
<path fill-rule="evenodd" clip-rule="evenodd" d="M13.3695 12.0005L21.7172 3.65288C22.0957 3.27435 22.0957 2.66243 21.7172 2.2839C21.3386 1.90537 20.7267 1.90537 20.3482 2.2839L12.0005 10.6315L3.65288 2.2839C3.26581 1.91391 2.65105 1.93098 2.2839 2.31805C1.92814 2.69089 1.92814 3.27719 2.2839 3.65288L10.6315 12.0005L2.2839 20.3482C1.90537 20.7267 1.90537 21.3415 2.2839 21.7172C2.66243 22.0928 3.27435 22.0928 3.65288 21.7143L12.0005 13.3667L20.3482 21.7143C20.7239 22.0928 21.3329 22.0957 21.7115 21.72L21.7172 21.7143C22.0957 21.3358 22.0957 20.7239 21.7172 20.3482L13.3695 12.0005Z" fill="#86888C"/>
</svg>
