<svg width="40" height="40" viewBox="0 0 40 40" fill="none" xmlns="http://www.w3.org/2000/svg">
<path fill-rule="evenodd" clip-rule="evenodd" d="M21.4651 20.001L36.4909 4.97518C37.1722 4.29382 37.1722 3.19238 36.4909 2.51102C35.8095 1.82966 34.7081 1.82966 34.0267 2.51102L19.001 17.5368L3.97518 2.51102C3.27846 1.84503 2.17189 1.87577 1.51102 2.5725C0.870644 3.24361 0.870644 4.29895 1.51102 4.97518L16.5368 20.001L1.51102 35.0267C0.82966 35.7081 0.82966 36.8146 1.51102 37.4909C2.19238 38.1671 3.29382 38.1671 3.97518 37.4858L19.001 22.46L34.0267 37.4858C34.703 38.1671 35.7993 38.1722 36.4806 37.496L36.4909 37.4858C37.1722 36.8044 37.1722 35.703 36.4909 35.0267L21.4651 20.001Z" fill="#86888C"/>
</svg>
