<svg width="16" height="16" viewBox="0 0 16 16" fill="none" xmlns="http://www.w3.org/2000/svg">
<path fill-rule="evenodd" clip-rule="evenodd" d="M8.82134 8L13.8297 2.99168C14.0568 2.76457 14.0568 2.39744 13.8297 2.17033C13.6026 1.94322 13.2354 1.94322 13.0083 2.17033L8 7.17865L2.99168 2.17033C2.75944 1.94835 2.39061 1.95859 2.17033 2.19082C1.95688 2.41451 1.95688 2.76628 2.17033 2.99168L7.17866 8L2.17033 13.0083C1.94322 13.2354 1.94322 13.6043 2.17033 13.8297C2.39744 14.0551 2.76457 14.0551 2.99168 13.828L8 8.81964L13.0083 13.828C13.2337 14.0551 13.5991 14.0568 13.8263 13.8314L13.8297 13.828C14.0568 13.6009 14.0568 13.2337 13.8297 13.0083L8.82134 8Z" fill="#86888C"/>
</svg>
