<svg width="28" height="28" viewBox="0 0 28 28" fill="none" xmlns="http://www.w3.org/2000/svg">
<path fill-rule="evenodd" clip-rule="evenodd" d="M15.6434 14.0006L25.6606 3.98346C26.1148 3.52922 26.1148 2.79492 25.6606 2.34068C25.2063 1.88644 24.4721 1.88644 24.0178 2.34068L14.0006 12.3579L3.98346 2.34068C3.51897 1.89669 2.78126 1.91718 2.34068 2.38166C1.91376 2.82907 1.91376 3.53263 2.34068 3.98346L12.3579 14.0006L2.34068 24.0178C1.88644 24.4721 1.88644 25.2098 2.34068 25.6606C2.79492 26.1114 3.52922 26.1114 3.98346 25.6572L14.0006 15.64L24.0178 25.6572C24.4686 26.1114 25.1995 26.1148 25.6538 25.664L25.6606 25.6572C26.1148 25.2029 26.1148 24.4686 25.6606 24.0178L15.6434 14.0006Z" fill="#86888C"/>
</svg>
