<svg width="28" height="28" viewBox="0 0 28 28" fill="none" xmlns="http://www.w3.org/2000/svg">
<rect width="28" height="28" fill="white"/>
<path fill-rule="evenodd" clip-rule="evenodd" d="M19.415 19.9839L17.0572 19.9946V18.5492H18.8998C19.322 18.5492 19.7013 18.2844 19.8658 17.8909C20.0304 17.4866 19.9374 17.0215 19.6512 16.7138L14.3918 11.1181C14.0018 10.7066 13.2791 10.7066 12.8891 11.1181L7.49732 16.8211C7.21109 17.1288 7.11807 17.5939 7.28265 17.9982C7.44723 18.4025 7.82648 18.6565 8.25939 18.6565H10.102V20.0268L6.55277 20.0483C5.34705 20.0483 2.5492 19.6547 2.5492 15.941C2.5492 13.8587 3.41503 12.5564 5.12165 12.0555C5.46154 11.9517 5.68694 11.6297 5.68694 11.2683L5.67621 11.1395C5.67621 5.05725 10.8211 4.59213 12.3989 4.59213C13.2934 4.59213 17.8122 4.79249 18.8819 8.89982C18.9642 9.23971 19.2612 9.48301 19.6011 9.49374C21.1038 9.53667 24.6029 10.1306 24.6029 14.7174C24.5993 19.6011 20.6386 19.9839 19.415 19.9839ZM15.5009 23.4114H11.6404V18.1592C11.6404 17.5653 11.1682 17.0751 10.5814 17.0751L9.41861 17.0644L13.6404 12.6064L17.7263 16.9571H16.5742C15.9982 16.9571 15.5259 17.4365 15.5152 18.0411L15.5009 23.4114ZM20.195 7.93381C18.61 3.24329 13.4544 3 12.3918 3C11.0429 3 4.37388 3.37209 4.13775 10.7174C2.76744 11.2791 1 12.6386 1 15.9374C1 20.1377 3.86225 21.6369 6.5492 21.6369L10.0984 21.6154V23.9195C10.0984 24.5134 10.5599 25 11.1467 25H15.9946C16.5707 25 17.0429 24.5134 17.0429 23.9195V21.5832L19.4115 21.5725C22.5206 21.5725 26.1413 19.78 26.1413 14.7174C26.1449 10.1234 23.1717 8.22361 20.195 7.93381Z" fill="#86888C"/>
</svg>
