<svg width="28" height="28" viewBox="0 0 28 28" fill="none" xmlns="http://www.w3.org/2000/svg">
<path d="M19.6561 22H6.94452C4.21769 22 2 19.7789 2 17.0555C2 15.9518 2.38271 14.8959 3.10714 14.0006C3.7598 13.1908 4.64482 12.5893 5.60161 12.2989C5.66653 10.3136 6.36703 8.50593 7.59377 7.18693C8.90251 5.77568 10.7409 5 12.7638 5C15.6683 5.00342 18.32 6.66412 19.5877 9.28161H19.6595C23.1688 9.28161 26.0221 12.1349 26.0221 15.6442C26.0221 19.1536 23.162 22 19.6561 22ZM12.7604 6.36342C11.9232 6.36342 11.1305 6.5206 10.4094 6.83156C9.7192 7.12884 9.1007 7.56623 8.59156 8.11638C7.5391 9.25085 6.96161 10.8398 6.96161 12.5962C6.96161 12.9345 6.80442 13.3787 6.0595 13.5871C5.33849 13.7922 4.66533 14.2432 4.16643 14.8583C3.80422 15.3093 3.36683 16.0611 3.36683 17.0555C3.37025 19.0306 4.96945 20.6297 6.94452 20.6332H19.6561C22.4103 20.6332 24.6519 18.3916 24.6519 15.6374C24.6519 12.8832 22.4103 10.6416 19.6561 10.6416C19.5946 10.6416 19.5228 10.645 19.4511 10.6484C19.3998 10.6519 19.352 10.6519 19.3007 10.6553C19.1162 10.6621 18.6583 10.6143 18.4328 10.0436L18.4293 10.0334C17.4281 7.80201 15.2105 6.36683 12.7604 6.36342Z" fill="#86888C"/>
</svg>
