<svg width="40" height="40" viewBox="0 0 40 40" fill="none" xmlns="http://www.w3.org/2000/svg">
<path fill-rule="evenodd" clip-rule="evenodd" d="M35.526 33.7789C35.5107 35.0852 34.7874 35.7613 33.3969 35.7613C32.0063 35.7613 31.2983 35.1005 31.2983 33.8097V33.5382C31.3136 32.652 31.6905 31.5814 33.3358 31.5558C33.3663 31.5558 33.3816 31.5712 33.4122 31.5712C33.4427 31.5712 33.458 31.5558 33.4886 31.5558C35.1389 31.5866 35.5158 32.6367 35.5311 33.5228V33.7789H35.526ZM8.50451 33.5228V33.7789C8.47395 35.0852 7.76594 35.7613 6.37539 35.7613C4.98484 35.7613 4.27683 35.1005 4.26155 33.8097V33.5382C4.29211 32.6367 4.66904 31.5405 6.39067 31.5405C8.09703 31.5405 8.48923 32.6213 8.50451 33.5228ZM12.177 20.7425C10.5725 20.7425 7.88819 20.2047 7.88819 16.4858C7.88819 14.3088 8.77957 12.9821 10.6234 12.4545C11.1226 12.3213 11.4537 11.8808 11.4537 11.3737L11.4384 11.2098C11.4384 4.79147 17.1025 4.27923 18.8394 4.27923C20.2147 4.27923 24.8193 4.60706 25.9551 8.83302C26.0927 9.31452 26.5307 9.64747 27.0299 9.66284C29.052 9.71919 32.4698 10.5183 32.4698 15.1489C32.4698 20.1278 28.5274 20.6657 26.8211 20.6657L12.177 20.7425ZM34.5429 29.4044V26.0186C34.5429 25.4039 34.0285 24.8916 33.4122 24.8916H20.9074C20.9227 24.8148 20.9532 24.7431 20.9532 24.6509V22.9554L26.8312 22.9246C30.4681 22.9246 34.7314 20.8962 34.7314 15.1489C34.7314 10.006 31.334 7.83928 27.906 7.46534C25.9704 2.30712 20.0517 2.02539 18.8445 2.02539C14.5251 2.02539 9.51304 4.27923 9.19215 10.5797C7.59276 11.2559 5.62664 12.8336 5.62664 16.491C5.62664 21.3009 9.16159 23.0015 12.1974 23.0015L18.6917 22.9708V24.656C18.6917 24.7482 18.7223 24.8199 18.7375 24.8968H6.36521C6.06468 24.8968 5.77435 25.0146 5.56551 25.2297C5.35667 25.4551 5.23443 25.742 5.23443 26.039L5.24971 29.4096C2.93722 29.8911 2.04584 31.8171 2 33.487V33.8455C2.03056 35.7715 3.17662 38.0254 6.38049 38.0254C9.56907 38.0254 10.7457 35.7562 10.7763 33.8148V33.4818C10.7457 31.7966 9.83903 29.8706 7.51126 29.3891V27.1506H32.2814V29.4044C29.9689 29.8706 29.0622 31.812 29.0317 33.4818C29.0317 33.5843 29.0164 33.7226 29.0317 33.8404C29.047 35.7664 30.193 38.0203 33.3969 38.0203C36.6007 38.0203 37.7621 35.7511 37.7926 33.8097V33.4767C37.7621 31.7966 36.8707 29.8706 34.5429 29.4044Z" fill="#86888C"/>
</svg>
