<svg width="28" height="28" viewBox="0 0 28 28" fill="none" xmlns="http://www.w3.org/2000/svg">
<path fill-rule="evenodd" clip-rule="evenodd" d="M24.3507 23.1944C24.3405 24.0652 23.8583 24.516 22.9313 24.516C22.0042 24.516 21.5322 24.0755 21.5322 23.2149V23.0339C21.5424 22.4431 21.7937 21.7294 22.8905 21.7124C22.9109 21.7124 22.9211 21.7226 22.9414 21.7226C22.9618 21.7226 22.972 21.7124 22.9924 21.7124C24.0926 21.7328 24.3439 22.4329 24.3541 23.0237V23.1944H24.3507ZM6.33634 23.0237V23.1944C6.31597 24.0652 5.84396 24.516 4.91693 24.516C3.9899 24.516 3.51789 24.0755 3.5077 23.2149V23.0339C3.52808 22.4329 3.77936 21.7021 4.92712 21.7021C6.06468 21.7021 6.32615 22.4227 6.33634 23.0237ZM8.78466 14.5035C7.71501 14.5035 5.92546 14.1449 5.92546 11.6657C5.92546 10.2143 6.51971 9.32989 7.74896 8.97815C8.08174 8.88936 8.30247 8.59568 8.30247 8.2576L8.29228 8.14833C8.29228 3.86944 12.0683 3.52795 13.2263 3.52795C14.1431 3.52795 17.2129 3.74651 17.9701 6.56381C18.0618 6.88481 18.3538 7.10678 18.6866 7.11702C20.0347 7.15459 22.3132 7.68731 22.3132 10.7744C22.3132 14.0937 19.6849 14.4523 18.5474 14.4523L8.78466 14.5035ZM23.6953 20.2781V18.0208C23.6953 17.611 23.3523 17.2696 22.9414 17.2696H14.6049C14.6151 17.2183 14.6355 17.1705 14.6355 17.1091V15.9787L18.5542 15.9582C20.9787 15.9582 23.8209 14.6059 23.8209 10.7744C23.8209 7.34582 21.556 5.90132 19.2707 5.65203C17.9803 2.21321 14.0345 2.02539 13.2297 2.02539C10.3501 2.02539 7.0087 3.52795 6.79476 7.72829C5.72851 8.17906 4.41776 9.23085 4.41776 11.6691C4.41776 14.8757 6.77439 16.0095 8.79824 16.0095L13.1278 15.989V17.1125C13.1278 17.1739 13.1482 17.2217 13.1584 17.273H4.91014C4.70979 17.273 4.51623 17.3515 4.37701 17.4949C4.23778 17.6452 4.15629 17.8364 4.15629 18.0345L4.16647 20.2815C2.62481 20.6025 2.03056 21.8865 2 22.9998V23.2388C2.02037 24.5228 2.78441 26.0254 4.92032 26.0254C7.04605 26.0254 7.83046 24.5126 7.85084 23.2183V22.9964C7.83046 21.8729 7.22602 20.5889 5.67418 20.2678V18.7755H22.1876V20.2781C20.6459 20.5888 20.0415 21.8831 20.0211 22.9964C20.0211 23.0647 20.0109 23.1569 20.0211 23.2354C20.0313 24.5194 20.7953 26.022 22.9313 26.022C25.0672 26.022 25.8414 24.5092 25.8618 23.2149V22.9929C25.8414 21.8729 25.2471 20.5888 23.6953 20.2781Z" fill="#86888C"/>
</svg>
