<svg width="40" height="40" viewBox="0 0 40 40" fill="none" xmlns="http://www.w3.org/2000/svg">
<path d="M29.0034 33H9.56221C5.39176 33 2 29.603 2 25.4378C2 23.7497 2.58533 22.1349 3.69327 20.7656C4.69146 19.527 6.04502 18.6072 7.50834 18.163C7.60764 15.1266 8.67899 12.362 10.5552 10.3447C12.5568 8.18633 15.3684 7 18.4623 7C22.9045 7.00523 26.96 9.54513 28.8989 13.5483H29.0086C34.3759 13.5483 38.7397 17.9122 38.7397 23.2794C38.7397 28.6466 34.3654 33 29.0034 33ZM18.4571 9.08523C17.1767 9.08523 15.9642 9.32563 14.8615 9.80121C13.8058 10.2559 12.8599 10.9248 12.0812 11.7662C10.4716 13.5013 9.58834 15.9315 9.58834 18.6177C9.58834 19.1351 9.34794 19.8145 8.20864 20.1333C7.10593 20.4468 6.07638 21.1367 5.31337 22.0774C4.7594 22.7672 4.09045 23.917 4.09045 25.4378C4.09568 28.4585 6.54151 30.9043 9.56221 30.9095H29.0034C33.2157 30.9095 36.644 27.4812 36.644 23.2689C36.644 19.0567 33.2157 15.6283 29.0034 15.6283C28.9093 15.6283 28.7996 15.6336 28.6898 15.6388C28.6115 15.644 28.5383 15.644 28.4599 15.6492C28.1777 15.6597 27.4774 15.5865 27.1325 14.7138L27.1272 14.6981C25.596 11.2854 22.2042 9.09045 18.4571 9.08523Z" fill="#86888C"/>
</svg>
