<svg width="24" height="24" viewBox="0 0 24 24" fill="none" xmlns="http://www.w3.org/2000/svg">
<rect width="24" height="24" fill="white"/>
<path fill-rule="evenodd" clip-rule="evenodd" d="M11.9274 18.0649C10.004 18.0649 8.43904 16.4857 8.43904 14.548C8.43904 12.6075 10.004 11.0312 11.9274 11.0312C13.8509 11.0312 15.413 12.6103 15.413 14.548C15.4158 16.4885 13.8509 18.0649 11.9274 18.0649ZM5.99772 15.2423C4.73439 15.1114 3.2235 14.4541 3.2235 12.0669C3.2235 10.445 3.91208 9.42353 5.27216 9.03656C5.53393 8.95974 5.71603 8.71788 5.71603 8.44188L5.71034 8.32807C5.71034 3.59909 9.80765 3.23488 11.0625 3.23488C11.7738 3.23488 15.3675 3.39707 16.2182 6.5924C16.2894 6.85702 16.5227 7.04197 16.793 7.05051C17.9909 7.08465 20.7737 7.54844 20.7737 11.1165C20.7737 14.9122 17.6153 15.2081 16.645 15.2081H16.5881C16.6166 14.9919 16.6365 14.7728 16.6365 14.5509C16.6365 11.9274 14.5281 9.79912 11.9274 9.79912C9.32679 9.79912 7.21554 11.9274 7.21554 14.5509C7.21554 14.7842 7.2383 15.0118 7.2696 15.2394L5.99772 15.2423ZM16.6479 16.4402C19.1148 16.4402 21.9972 15.046 21.9972 11.1165C21.9972 7.53991 19.6298 6.06317 17.2682 5.84407C16.0048 2.19064 11.899 2 11.0625 2C9.98407 2 4.68886 2.29307 4.49538 8.00085C3.40845 8.43619 2 9.50036 2 12.0669C2 14.5736 3.44829 16.2211 5.93513 16.4743L7.61958 16.4715C8.35083 18.1389 10.004 19.3026 11.9274 19.3026C12.9688 19.3026 13.9277 18.9583 14.7074 18.3807C14.713 18.3864 14.7159 18.3978 14.7216 18.4035L18.1076 21.8207C18.2271 21.9402 18.3836 22 18.54 22C18.6965 22 18.853 21.9402 18.9725 21.8207C19.2116 21.5789 19.2116 21.1891 18.9725 20.9472L15.5894 17.5356C15.854 17.2056 16.076 16.8385 16.2438 16.4459L16.6479 16.4402Z" fill="#86888C"/>
</svg>
