<svg width="20" height="20" viewBox="0 0 20 20" fill="none" xmlns="http://www.w3.org/2000/svg">
<path fill-rule="evenodd" clip-rule="evenodd" d="M9.34097 14.237C8.97902 15.0497 8.43494 15.6006 7.92274 15.6757C7.55395 15.7281 7.16695 15.5414 6.78451 15.1135L6.64792 14.9609L6.43621 14.9427C5.84888 14.8926 5.46644 14.706 5.29798 14.385C5.06578 13.9411 5.22286 13.1989 5.71002 12.4477C6.31328 11.5075 8.30746 10.4535 9.33642 10.0005C9.54585 11.0591 9.79854 13.2217 9.34097 14.237ZM4.55813 8.99888C3.70674 8.65513 3.12852 8.1361 3.04884 7.64666C2.99193 7.29381 3.18998 6.92958 3.63617 6.56534L3.79779 6.43331L3.81601 6.23298C3.86836 5.67297 4.06642 5.30874 4.40106 5.14939C4.5422 5.08109 4.71521 5.04695 4.90643 5.04695C5.34351 5.04695 5.88531 5.21768 6.43393 5.54094C7.41964 6.1146 8.526 8.01545 8.9995 8.9966C7.89087 9.19465 5.62351 9.43368 4.55813 8.99888ZM10.0512 4.44141C10.4132 3.62871 10.9573 3.07781 11.4695 3.00041C11.5104 2.99586 11.5537 2.9913 11.5947 2.9913C11.927 2.9913 12.2662 3.18252 12.6054 3.56269L12.742 3.71522L12.9537 3.73343C13.541 3.78351 13.9235 3.97246 14.0919 4.29116C14.3241 4.73507 14.1671 5.4772 13.6799 6.2307C13.0789 7.17088 11.0847 8.22488 10.0558 8.6779C9.84862 7.61707 9.59594 5.45671 10.0512 4.44141ZM14.8341 9.67726C15.6855 10.021 16.266 10.54 16.3434 11.0295C16.4003 11.3846 16.2022 11.7488 15.7538 12.1131L15.5921 12.2428L15.5716 12.4454C15.5193 13.0032 15.3235 13.3674 14.9866 13.529C14.5245 13.7499 13.7436 13.6019 12.9537 13.1352C11.968 12.5615 10.8616 10.6607 10.3881 9.67726C11.5036 9.48377 13.771 9.24246 14.8341 9.67726ZM12.9947 16.2858C14.3628 17.3831 15.8926 18 17.2312 18C17.2926 18 17.3541 17.9977 17.4133 17.9954C17.5431 17.9886 17.666 17.9476 17.773 17.8793C17.9983 17.7382 18.0644 17.44 17.9232 17.2169C17.9164 17.2078 17.9118 17.1987 17.905 17.1896C17.7616 17.0006 17.5135 16.9278 17.2904 17.0075C16.2068 17.0393 14.8705 16.4953 13.664 15.5255L13.6071 15.4822C12.9401 14.9427 12.3573 14.3053 11.8815 13.5928C12.0568 13.7453 12.2321 13.8796 12.4119 13.9843C13.1313 14.4077 13.8461 14.624 14.4789 14.624C14.8341 14.624 15.1642 14.5557 15.4555 14.4169C15.8949 14.2074 16.4344 13.7453 16.5869 12.7345C17.3632 12.0288 17.4474 11.3436 17.3723 10.8815C17.2357 10.0301 16.4595 9.2584 15.2416 8.76668C14.5541 8.48668 13.5729 8.42294 12.6122 8.45481C13.4181 7.95171 14.1807 7.35755 14.5677 6.75201C15.262 5.6798 15.4282 4.62125 15.023 3.8518C14.8022 3.43294 14.3196 2.91846 13.2565 2.77276C12.5189 2.02836 11.7973 1.94868 11.3124 2.02153C10.42 2.15357 9.61187 2.89341 9.09512 4.05213C8.80145 4.70548 8.73544 5.6411 8.76958 6.55851C8.23917 5.79135 7.61997 5.06288 6.98256 4.69409C5.85571 4.03392 4.74708 3.87457 3.93893 4.26157C3.49958 4.47328 2.96006 4.93312 2.80753 5.94387C2.02899 6.64957 1.94703 7.33479 2.02216 7.79691C2.15874 8.6483 2.93729 9.42002 4.15065 9.91174C4.73114 10.1485 5.52563 10.2327 6.3406 10.2327C6.48629 10.2327 6.63426 10.2282 6.78223 10.2236C5.97637 10.729 5.21148 11.3231 4.82448 11.9287C4.13016 13.0009 3.96625 14.0594 4.37146 14.8289C4.59228 15.2478 5.07716 15.7622 6.13799 15.9057C6.74353 16.5135 7.33541 16.6751 7.79753 16.6751C7.89997 16.6751 7.99331 16.6683 8.08209 16.6546C8.97446 16.5226 9.78488 15.7827 10.2994 14.624C10.4473 14.2962 10.5361 13.8933 10.5862 13.463C11.1849 14.5307 11.9862 15.4754 12.9423 16.2403" fill="#86888C"/>
</svg>
