<svg width="40" height="40" viewBox="0 0 40 40" fill="none" xmlns="http://www.w3.org/2000/svg">
<path fill-rule="evenodd" clip-rule="evenodd" d="M18.5172 30.5333C17.7028 32.3618 16.4786 33.6014 15.3262 33.7704C14.4964 33.8882 13.6256 33.4682 12.7651 32.5053L12.4578 32.1621L11.9815 32.1211C10.66 32.0084 9.79949 31.5884 9.42046 30.8662C8.89801 29.8674 9.25143 28.1976 10.3475 26.5074C11.7049 24.392 16.1918 22.0205 18.5069 21.0012C18.9782 23.3829 19.5467 28.2489 18.5172 30.5333ZM7.7558 18.7475C5.84016 17.9741 4.53916 16.8062 4.35989 15.705C4.23184 14.9111 4.67745 14.0915 5.68137 13.272L6.04504 12.9749L6.08601 12.5242C6.20382 11.2642 6.64944 10.4447 7.40238 10.0861C7.71994 9.93246 8.10922 9.85563 8.53947 9.85563C9.5229 9.85563 10.7419 10.2398 11.9764 10.9671C14.1942 12.2579 16.6835 16.5348 17.7489 18.7424C15.2545 19.188 10.1529 19.7258 7.7558 18.7475ZM20.1153 8.49317C20.9297 6.6646 22.1538 5.42507 23.3063 5.25092C23.3985 5.24067 23.4958 5.23043 23.588 5.23043C24.3358 5.23043 25.099 5.66068 25.8622 6.51606L26.1695 6.85924L26.6459 6.90021C27.9673 7.0129 28.8278 7.43803 29.2069 8.15511C29.7293 9.15391 29.3759 10.8237 28.2798 12.5191C26.9276 14.6345 22.4407 17.006 20.1255 18.0253C19.6594 15.6384 19.0909 10.7776 20.1153 8.49317ZM30.8767 20.2738C32.7923 21.0473 34.0984 22.2151 34.2726 23.3163C34.4006 24.1154 33.955 24.9349 32.946 25.7544L32.5823 26.0464L32.5362 26.5022C32.4184 27.7571 31.9779 28.5767 31.2198 28.9403C30.1801 29.4372 28.4232 29.1042 26.6459 28.0542C24.428 26.7635 21.9387 22.4866 20.8733 20.2738C23.3831 19.8385 28.4847 19.2955 30.8767 20.2738ZM26.7381 35.1431C29.8164 37.6119 33.2584 39 36.2702 39C36.4085 39 36.5467 38.9949 36.6799 38.9898C36.9719 38.9744 37.2485 38.8822 37.4892 38.7285C37.9963 38.411 38.1448 37.74 37.8273 37.238C37.8119 37.2175 37.8017 37.197 37.7863 37.1766C37.4636 36.7514 36.9053 36.5875 36.4033 36.7668C33.9652 36.8385 30.9586 35.6143 28.2439 33.4323L28.1159 33.335C26.6151 32.1211 25.3039 30.6869 24.2334 29.0837C24.6278 29.4269 25.0222 29.7291 25.4268 29.9647C27.0454 30.9174 28.6537 31.404 30.0776 31.404C30.8767 31.404 31.6194 31.2504 32.275 30.9379C33.2635 30.4667 34.4774 29.4269 34.8206 27.1527C36.5672 25.5649 36.7568 24.0232 36.5877 22.9834C36.2804 21.0678 34.5338 19.3314 31.7935 18.225C30.2467 17.595 28.0391 17.4516 25.8776 17.5233C27.6908 16.3913 29.4066 15.0545 30.2774 13.692C31.8396 11.2796 32.2135 8.89781 31.3018 7.16656C30.805 6.2241 29.7191 5.06652 27.3271 4.73871C25.6676 3.06381 24.0439 2.88454 22.9529 3.04844C20.945 3.34552 19.1267 5.01018 17.964 7.6173C17.3033 9.08732 17.1547 11.1925 17.2316 13.2567C16.0381 11.5305 14.6449 9.89148 13.2108 9.06171C10.6754 7.57632 8.18093 7.21778 6.3626 8.08853C5.37405 8.56487 4.16013 9.59952 3.81695 11.8737C2.06522 13.4615 1.88082 15.0033 2.04985 16.043C2.35717 17.9587 4.10891 19.6951 6.83895 20.8014C8.14507 21.3341 9.93266 21.5236 11.7663 21.5236C12.0942 21.5236 12.4271 21.5134 12.76 21.5031C10.9468 22.6402 9.22582 23.9771 8.35507 25.3395C6.79285 27.752 6.42407 30.1338 7.33579 31.865C7.83263 32.8075 8.92362 33.965 11.3105 34.2877C12.6729 35.6553 14.0047 36.019 15.0445 36.019C15.2749 36.019 15.4849 36.0036 15.6847 35.9729C17.6925 35.6758 19.516 34.0111 20.6736 31.404C21.0065 30.6665 21.2063 29.7599 21.3189 28.7918C22.666 31.194 24.469 33.3197 26.6203 35.0407" fill="#86888C"/>
</svg>
