<svg width="28" height="28" viewBox="0 0 28 28" fill="none" xmlns="http://www.w3.org/2000/svg">
<path fill-rule="evenodd" clip-rule="evenodd" d="M13.0115 20.3555C12.4685 21.5746 11.6524 22.4009 10.8841 22.5136C10.3309 22.5921 9.75043 22.3121 9.17676 21.6702L8.97188 21.4414L8.65432 21.4141C7.77333 21.3389 7.19966 21.0589 6.94697 20.5775C6.59867 19.9116 6.83429 18.7984 7.56503 17.6716C8.46992 16.2613 11.4612 14.6803 13.0046 14.0008C13.3188 15.5886 13.6978 18.8326 13.0115 20.3555ZM5.8372 12.4983C4.5601 11.9827 3.69277 11.2042 3.57326 10.47C3.48789 9.94072 3.78497 9.39437 4.45425 8.84802L4.69669 8.64996L4.72401 8.34947C4.80255 7.50946 5.09962 6.96311 5.60158 6.72408C5.81329 6.62164 6.07281 6.57042 6.35964 6.57042C7.01527 6.57042 7.82796 6.82652 8.6509 7.31141C10.1295 8.17191 11.789 11.0232 12.4993 12.4949C10.8363 12.792 7.43527 13.1505 5.8372 12.4983ZM14.0768 5.66211C14.6198 4.44307 15.4359 3.61671 16.2042 3.50061C16.2657 3.49378 16.3305 3.48695 16.392 3.48695C16.8905 3.48695 17.3993 3.77379 17.9081 4.34404L18.113 4.57282L18.4306 4.60014C19.3116 4.67527 19.8852 4.95868 20.1379 5.43674C20.4862 6.10261 20.2506 7.21579 19.5199 8.34606C18.6184 9.75632 15.6271 11.3373 14.0837 12.0168C13.7729 10.4256 13.3939 7.18506 14.0768 5.66211ZM21.2511 13.5159C22.5282 14.0315 23.3989 14.8101 23.515 15.5442C23.6004 16.0769 23.3033 16.6233 22.6306 17.1696L22.3882 17.3643L22.3575 17.6682C22.2789 18.5048 21.9853 19.0511 21.4799 19.2936C20.7867 19.6248 19.6155 19.4028 18.4306 18.7028C16.952 17.8423 15.2925 14.991 14.5822 13.5159C16.2554 13.2256 19.6564 12.8637 21.2511 13.5159ZM18.492 23.4287C20.5443 25.0746 22.8389 26 24.8468 26C24.939 26 25.0312 25.9966 25.1199 25.9932C25.3146 25.9829 25.499 25.9215 25.6595 25.819C25.9975 25.6073 26.0965 25.16 25.8848 24.8253C25.8746 24.8117 25.8678 24.798 25.8575 24.7844C25.6424 24.501 25.2702 24.3917 24.9356 24.5112C23.3102 24.559 21.3057 23.7429 19.496 22.2882L19.4106 22.2234C18.4101 21.4141 17.5359 20.458 16.8223 19.3892C17.0852 19.6179 17.3481 19.8194 17.6179 19.9765C18.6969 20.6116 19.7691 20.936 20.7184 20.936C21.2511 20.936 21.7462 20.8336 22.1833 20.6253C22.8424 20.3111 23.6516 19.6179 23.8804 18.1018C25.0448 17.0433 25.1712 16.0154 25.0585 15.3223C24.8536 14.0452 23.6892 12.8876 21.8623 12.15C20.8311 11.73 19.3594 11.6344 17.9184 11.6822C19.1272 10.9276 20.2711 10.0363 20.8516 9.12802C21.8931 7.5197 22.1423 5.93187 21.5345 4.77771C21.2033 4.1494 20.4794 3.37768 18.8847 3.15914C17.7784 2.04254 16.6959 1.92303 15.9686 2.0323C14.63 2.23035 13.4178 3.34012 12.6427 5.0782C12.2022 6.05821 12.1032 7.46165 12.1544 8.83777C11.3588 7.68702 10.43 6.59432 9.47384 6.04114C7.78357 5.05088 6.12062 4.81185 4.9084 5.39235C4.24937 5.70992 3.44009 6.39968 3.2113 7.9158C2.04348 8.97436 1.92055 10.0022 2.03323 10.6954C2.23812 11.9725 3.40594 13.13 5.22597 13.8676C6.09671 14.2227 7.28844 14.3491 8.5109 14.3491C8.72944 14.3491 8.95139 14.3423 9.17335 14.3354C7.96455 15.0935 6.81721 15.9847 6.23672 16.893C5.19524 18.5013 4.94938 20.0892 5.55719 21.2433C5.88842 21.8716 6.61575 22.6434 8.20699 22.8585C9.1153 23.7702 10.0031 24.0126 10.6963 24.0126C10.85 24.0126 10.99 24.0024 11.1231 23.9819C12.4617 23.7839 13.6773 22.6741 14.449 20.936C14.671 20.4443 14.8042 19.8399 14.8793 19.1945C15.7774 20.796 16.9793 22.2131 18.4135 23.3604" fill="#86888C"/>
</svg>
