<svg width="24" height="24" viewBox="0 0 24 24" fill="none" xmlns="http://www.w3.org/2000/svg">
<path fill-rule="evenodd" clip-rule="evenodd" d="M20.5202 18.8939C20.6483 18.8939 20.7507 18.7943 20.7507 18.6719V9.48297H3.24929V18.6691C3.24929 18.7915 3.35458 18.8911 3.4798 18.8911H20.5202V18.8939ZM3.48264 6.29857C3.35458 6.29857 3.25213 6.39817 3.25213 6.52054V8.27922H20.7536V6.52054C20.7536 6.39817 20.6511 6.29857 20.5231 6.29857H3.48264ZM20.5202 5.09766C21.3369 5.09766 22 5.73795 22 6.52338V18.6719C22 19.4574 21.3369 20.0977 20.5202 20.0977H3.48264C2.66591 20.0977 2 19.4574 2 18.6719V6.52338C2 5.73795 2.66306 5.09766 3.48264 5.09766H20.5202ZM6.22311 7.76413C5.90154 7.76413 5.64542 7.51371 5.64542 7.20636C5.64542 6.89618 5.90438 6.6486 6.22311 6.6486C6.54468 6.6486 6.8008 6.89902 6.8008 7.20636C6.8008 7.51371 6.54468 7.76413 6.22311 7.76413ZM7.95902 7.76413C7.63745 7.76413 7.38133 7.51371 7.38133 7.20636C7.38133 6.89618 7.6403 6.6486 7.95902 6.6486C8.28059 6.6486 8.53671 6.89902 8.53671 7.20636C8.53956 7.51371 8.28059 7.76413 7.95902 7.76413ZM4.48435 7.76413C4.16278 7.76413 3.90666 7.51371 3.90666 7.20636C3.90666 6.89618 4.16278 6.6486 4.48435 6.6486C4.80592 6.6486 5.06204 6.89902 5.06204 7.20636C5.06488 7.51371 4.80592 7.76413 4.48435 7.76413ZM8.99203 11.8165C9.20831 12.047 9.19124 12.3999 8.95219 12.6105L7.04838 14.2752L8.95788 15.9742C9.19408 16.1847 9.20831 16.5405 8.98919 16.7681C8.87536 16.8876 8.71884 16.9474 8.56232 16.9474C8.42288 16.9474 8.27775 16.899 8.16676 16.7966L5.79055 14.6822C5.67103 14.5769 5.60273 14.4261 5.60273 14.2695C5.60273 14.1102 5.67388 13.9622 5.7934 13.8569L8.16961 11.7795C8.40581 11.5689 8.77575 11.586 8.99203 11.8165ZM15.7422 11.7767L18.1184 13.8541C18.2379 13.9594 18.309 14.1102 18.309 14.2667C18.309 14.4261 18.2408 14.574 18.1212 14.6822L15.745 16.7966C15.6312 16.8962 15.4889 16.9446 15.3495 16.9446C15.1929 16.9446 15.0364 16.8848 14.9226 16.7653C14.7035 16.5376 14.7177 16.1819 14.9539 15.9713L16.8634 14.2724L14.9596 12.6076C14.7205 12.3999 14.7035 12.0442 14.9198 11.8136C15.1332 11.586 15.5031 11.5689 15.7422 11.7767ZM13.1582 11.7055C13.4513 11.8336 13.5851 12.1637 13.4513 12.4483L11.5248 16.5917C11.428 16.7994 11.2146 16.9246 10.9926 16.9246C10.9129 16.9246 10.8304 16.9076 10.7536 16.8763C10.4604 16.7482 10.3267 16.4181 10.4604 16.1364L12.387 11.9929C12.5179 11.7055 12.8623 11.5775 13.1582 11.7055Z" fill="#86888C"/>
</svg>
