<svg width="52" height="40" viewBox="0 0 52 40" fill="none" xmlns="http://www.w3.org/2000/svg">
<path d="M11.4211 26.0767C12.1966 26.0767 12.7015 26.4864 12.7015 27.3644C12.7015 27.7888 12.5844 28.0961 12.3796 28.3083C12.1527 28.5351 11.8235 28.6448 11.4211 28.6448C11.0186 28.6448 10.6894 28.5351 10.4626 28.3083C10.2577 28.0961 10.1406 27.7815 10.1406 27.3644C10.1479 26.4864 10.6455 26.0767 11.4211 26.0767Z" fill="#86888C"/>
<path d="M40.008 33.2036C40.7835 33.2036 41.2884 33.6134 41.2884 34.4914C41.2884 34.9157 41.1713 35.223 40.9665 35.4352C40.7396 35.662 40.4104 35.7718 40.008 35.7718C39.6055 35.7718 39.2763 35.662 39.0495 35.4352C38.8446 35.223 38.7275 34.9084 38.7275 34.4914C38.7349 33.6134 39.2324 33.2036 40.008 33.2036Z" fill="#86888C"/>
<path d="M26.7939 20.0915C26.2744 20.0915 25.8793 19.6672 25.872 19.1038L25.8427 17.2599L18.9576 17.2307C18.9357 17.2307 18.9137 17.2307 18.8991 17.2307C18.5332 17.2307 18.182 17.0697 17.9333 16.7917C17.6918 16.5209 17.5748 16.1551 17.604 15.7893L17.6113 12.9065C17.604 12.5772 17.743 12.2333 17.9918 11.9699C18.2772 11.6773 18.6576 11.5382 19.0674 11.5748L25.9524 11.5675L25.9305 9.731C25.9232 9.35784 26.0768 9.11639 26.2085 8.98469C26.5305 8.66275 27.0573 8.63349 27.467 8.94811L33.6058 13.543C33.8911 13.7552 34.0521 14.0698 34.0521 14.4137C34.0521 14.7503 33.8838 15.0649 33.5984 15.2771L27.4158 19.8793C27.2256 20.0184 27.0061 20.0915 26.7939 20.0915ZM19.0747 15.7673L26.1061 15.7966C26.7646 15.8039 27.2987 16.338 27.306 16.9892L27.3207 18.116L32.3107 14.3991L27.4085 10.7261L27.4231 11.8163C27.4304 12.1382 27.306 12.4382 27.0792 12.6723C26.8524 12.8992 26.5524 13.0309 26.2305 13.0309L19.0747 13.0382V15.7673Z" fill="#86888C"/>
<path d="M24.5839 31.2859C24.3644 31.2859 24.1522 31.2127 23.9547 31.0664L17.7793 26.4569C17.494 26.2447 17.333 25.93 17.333 25.5935C17.333 25.2569 17.494 24.9423 17.7793 24.7301L23.9181 20.1352C24.3278 19.8279 24.8619 19.8498 25.1766 20.1718C25.3083 20.3035 25.4619 20.5376 25.4546 20.9181L25.4327 22.7546L32.3177 22.7619C32.7348 22.7253 33.1079 22.8643 33.3933 23.157C33.6421 23.4131 33.7884 23.7643 33.7738 24.1155L33.7811 26.9763C33.8103 27.3495 33.6933 27.708 33.4518 27.9787C33.203 28.2568 32.8518 28.4177 32.486 28.4177C32.4714 28.4177 32.4494 28.4177 32.4275 28.4177L25.5424 28.447L25.5131 30.2908C25.4985 30.8615 25.1034 31.2859 24.5839 31.2859ZM19.0671 25.5935L24.0571 29.3104L24.0717 28.1836C24.0791 27.5324 24.6205 26.9983 25.2717 26.991L32.3104 26.9617L32.3031 24.2399L25.1473 24.2326C24.8254 24.2326 24.5254 24.1082 24.2986 23.874C24.0717 23.6472 23.9474 23.3399 23.9547 23.018L23.9693 21.9278L19.0671 25.5935Z" fill="#86888C"/>
<path d="M17.4578 32.8376H5.37782C1.75602 32.8376 0 31.0743 0 27.4525V5.37782C0 1.75602 1.75602 0 5.37782 0H17.4578C21.0284 0 22.8356 1.80724 22.8356 5.37782V12.2995C22.8356 12.7019 22.5063 13.0311 22.1039 13.0311C21.7015 13.0311 21.3722 12.7019 21.3722 12.2995V5.37782C21.3722 2.63403 20.2016 1.46335 17.4578 1.46335H5.37782C2.56086 1.46335 1.46335 2.56086 1.46335 5.37782V27.4525C1.46335 30.2694 2.56086 31.3669 5.37782 31.3669H17.4578C19.8869 31.3669 20.9991 30.5621 21.2918 28.5939C21.3503 28.1915 21.7234 27.9207 22.1259 27.9793C22.5283 28.0378 22.8063 28.411 22.7405 28.8134C22.3381 31.5206 20.6113 32.8376 17.4578 32.8376Z" fill="#86888C"/>
<path d="M22.1037 23.1356C21.7013 23.1356 21.3721 22.8063 21.3721 22.4039V16.5139C21.3721 16.1115 21.7013 15.7822 22.1037 15.7822C22.5062 15.7822 22.8354 16.1115 22.8354 16.5139V22.4039C22.8354 22.8063 22.5062 23.1356 22.1037 23.1356Z" fill="#86888C"/>
<path d="M46.0515 39.9997H33.9716C30.3498 39.9997 28.5938 38.2437 28.5938 34.6219V27.7002C28.5938 27.2978 28.923 26.9686 29.3254 26.9686C29.7278 26.9686 30.0571 27.2978 30.0571 27.7002V34.6219C30.0571 37.4388 31.1546 38.5364 33.9716 38.5364H46.0515C48.8685 38.5364 49.966 37.4388 49.966 34.6219V12.5472C49.966 9.80347 48.7953 8.63278 46.0515 8.63278H33.9716C31.579 8.63278 30.4303 9.46689 30.1376 11.4205C30.0791 11.8229 29.7059 12.0936 29.3035 12.0351C28.9011 11.9765 28.623 11.6034 28.6889 11.201C29.0986 8.48645 30.8254 7.16943 33.9789 7.16943H46.0588C49.6294 7.16943 51.4367 8.97667 51.4367 12.5472V34.6219C51.4293 38.2437 49.6733 39.9997 46.0515 39.9997Z" fill="#86888C"/>
<path d="M29.3254 24.2258C28.923 24.2258 28.5938 23.8966 28.5938 23.4942V17.5383C28.5938 17.1359 28.923 16.8066 29.3254 16.8066C29.7278 16.8066 30.0571 17.1359 30.0571 17.5383V23.4942C30.0571 23.8966 29.7278 24.2258 29.3254 24.2258Z" fill="#86888C"/>
</svg>
