<svg width="28" height="28" viewBox="0 0 28 28" fill="none" xmlns="http://www.w3.org/2000/svg">
<path fill-rule="evenodd" clip-rule="evenodd" d="M21.606 10.9835H19.8034C19.7863 10.9835 19.7659 10.9767 19.7488 10.9767H6.26031C6.24324 10.9767 6.22617 10.9835 6.20569 10.9835H4.39972V9.65889H21.606V10.9835ZM19.7454 13.6498H17.0006C16.9801 13.6498 16.963 13.643 16.9459 13.643H9.05974C9.04267 13.643 9.0256 13.6498 9.00512 13.6498H6.2569V12.4788H19.7454V13.6498ZM9.05974 23.161H16.9459V15.1485H9.05974V23.161ZM19.7181 25.6976H6.28421V24.6597H8.96757C8.99829 24.6632 9.0256 24.67 9.05633 24.67H16.9425C16.9733 24.67 17.004 24.6632 17.0313 24.6597H19.7147V25.6976H19.7181ZM10.2615 4.70184L10.7223 5.19687L9.93371 6.04352L9.47283 5.5485L10.2615 4.70184ZM15.2902 5.19687L15.7511 4.70184L16.5397 5.5485L16.0788 6.04352L15.2902 5.19687ZM21.606 8.16017H18.5027V7.44324C18.5027 7.24523 18.4276 7.05405 18.2979 6.91408L17.7209 6.29274C18.035 5.7192 17.9872 4.97837 17.5263 4.48677L16.7377 3.64011C16.4748 3.36017 16.1198 3.20312 15.7511 3.20312C15.3824 3.20312 15.0273 3.36017 14.7644 3.64011L14.3036 4.13513C13.7607 4.71891 13.7607 5.66799 14.3036 6.25177L15.0922 7.09843C15.3551 7.38179 15.7101 7.53883 16.0788 7.53883C16.311 7.53883 16.5329 7.47055 16.7343 7.35448L17.103 7.75391V8.16017H8.89587V7.75391L9.26799 7.35448C9.46942 7.47055 9.69474 7.54224 9.92688 7.54224C10.2956 7.54224 10.6506 7.3852 10.9135 7.10184L11.7021 6.25519C12.2484 5.6714 12.2484 4.72233 11.7021 4.13854L11.2413 3.64352C10.9784 3.36358 10.6233 3.20654 10.2546 3.20654C9.88592 3.20654 9.53087 3.36358 9.26799 3.64352L8.47937 4.49018C8.02191 4.98179 7.9707 5.7192 8.28478 6.29274L7.70441 6.91749C7.57468 7.05746 7.49957 7.24864 7.49957 7.44665V8.16358H4.3963C3.62475 8.16358 3 8.83613 3 9.6623V10.9869C3 11.8165 3.62475 12.4856 4.3963 12.4856H4.8606V13.6566C4.8606 14.4862 5.48535 15.1553 6.2569 15.1553H7.66344V23.1678H6.28421C5.51266 23.1678 4.88791 23.8404 4.88791 24.6666V25.7044C4.88791 26.5306 5.51266 27.2031 6.28421 27.2031H19.7181C20.4896 27.2031 21.1144 26.5306 21.1144 25.7044V24.6666C21.1144 23.8404 20.4896 23.1678 19.7181 23.1678H18.3388V15.1553H19.7454C20.5169 15.1553 21.1417 14.4862 21.1417 13.6566V12.4856H21.606C22.3775 12.4856 23.0023 11.8165 23.0023 10.9869V9.6623C22.9989 8.83271 22.3741 8.16017 21.606 8.16017Z" fill="#86888C"/>
</svg>
