<svg width="40" height="40" viewBox="0 0 40 40" fill="none" xmlns="http://www.w3.org/2000/svg">
<path fill-rule="evenodd" clip-rule="evenodd" d="M32.909 13.8737H30.2051C30.1795 13.8737 30.1488 13.8634 30.1232 13.8634H9.89047C9.86486 13.8634 9.83926 13.8737 9.80853 13.8737H7.09957V11.8868H32.909V13.8737ZM30.1181 17.8731H26.0009C25.9701 17.8731 25.9445 17.8629 25.9189 17.8629H14.0896C14.064 17.8629 14.0384 17.8731 14.0077 17.8731H9.88535V16.1166H30.1181V17.8731ZM14.0896 32.14H25.9189V20.1212H14.0896V32.14ZM30.0771 35.9448H9.92632V34.388H13.9514C13.9974 34.3932 14.0384 34.4034 14.0845 34.4034H25.9138C25.9599 34.4034 26.006 34.3932 26.0469 34.388H30.072V35.9448H30.0771ZM15.8922 4.4512L16.5835 5.19374L15.4006 6.46372L14.7092 5.72119L15.8922 4.4512ZM23.4353 5.19374L24.1266 4.4512L25.3095 5.72119L24.6182 6.46372L23.4353 5.19374ZM32.909 9.63869H28.2541V8.5633C28.2541 8.26628 28.1414 7.97951 27.9468 7.76955L27.0814 6.83755C27.5525 5.97724 27.4808 4.866 26.7895 4.12859L25.6065 2.8586C25.2122 2.43869 24.6797 2.20312 24.1266 2.20312C23.5735 2.20312 23.041 2.43869 22.6467 2.8586L21.9553 3.60113C21.1411 4.47681 21.1411 5.90042 21.9553 6.7761L23.1383 8.04608C23.5326 8.47112 24.0651 8.70668 24.6182 8.70668C24.9664 8.70668 25.2993 8.60426 25.6014 8.43015L26.1545 9.0293V9.63869H13.8438V9.0293L14.402 8.43015C14.7041 8.60426 15.0421 8.7118 15.3903 8.7118C15.9434 8.7118 16.476 8.47624 16.8703 8.0512L18.0532 6.78122C18.8725 5.90554 18.8725 4.48193 18.0532 3.60625L17.3619 2.86372C16.9676 2.44381 16.435 2.20825 15.8819 2.20825C15.3289 2.20825 14.7963 2.44381 14.402 2.86372L13.2191 4.13371C12.5329 4.87112 12.456 5.97724 12.9272 6.83755L12.0566 7.77468C11.862 7.98463 11.7494 8.2714 11.7494 8.56842V9.64381H7.09445C5.93713 9.64381 5 10.6526 5 11.8919V13.8788C5 15.1232 5.93713 16.1269 7.09445 16.1269H7.7909V17.8834C7.7909 19.1277 8.72802 20.1314 9.88535 20.1314H11.9952V32.1502H9.92632C8.76899 32.1502 7.83186 33.159 7.83186 34.3983V35.955C7.83186 37.1943 8.76899 38.2031 9.92632 38.2031H30.0771C31.2344 38.2031 32.1715 37.1943 32.1715 35.955V34.3983C32.1715 33.159 31.2344 32.1502 30.0771 32.1502H28.0082V20.1314H30.1181C31.2754 20.1314 32.2125 19.1277 32.2125 17.8834V16.1269H32.909C34.0663 16.1269 35.0034 15.1232 35.0034 13.8788V11.8919C34.9983 10.6475 34.0612 9.63869 32.909 9.63869Z" fill="#86888C"/>
</svg>
