<svg width="20" height="20" viewBox="0 0 20 20" fill="none" xmlns="http://www.w3.org/2000/svg">
<path fill-rule="evenodd" clip-rule="evenodd" d="M14.7484 15.2125C13.6215 15.2125 12.7061 14.2841 12.7061 13.1413C12.7061 11.9984 13.6238 11.07 14.7484 11.07C15.8752 11.07 16.7929 11.9984 16.7929 13.1413C16.7929 14.2818 15.8752 15.2125 14.7484 15.2125ZM7.19562 7.91298C7.19787 6.81121 8.0773 5.92158 9.16365 5.9193C10.25 5.9193 11.1294 6.81121 11.1317 7.91298C11.1294 9.01475 10.25 9.90666 9.16365 9.90666C8.0773 9.90666 7.19562 9.01475 7.19562 7.91298ZM4.23119 13.7001C3.56318 13.7001 3.02338 13.1504 3.02338 12.4729C3.04587 11.7954 3.60367 11.2639 4.27168 11.2867C4.9082 11.3073 5.42101 11.8273 5.44125 12.4729C5.44125 13.1527 4.8992 13.7001 4.23119 13.7001ZM9.17265 16.9644C8.71382 16.9644 8.34045 16.5857 8.34045 16.1204C8.34045 15.6527 8.71382 15.2764 9.1749 15.2764C9.63373 15.2764 10.0071 15.655 10.0071 16.1204C10.0071 16.5857 9.63374 16.9644 9.17265 16.9644ZM4.23344 4.68751C3.77461 4.68751 3.40349 4.30885 3.40124 3.8435C3.40124 3.37588 3.77461 2.9995 4.23569 2.9995C4.69452 2.9995 5.06789 3.37816 5.06789 3.8435C5.06789 4.30885 4.69227 4.68751 4.23344 4.68751ZM15.7358 5.10039C16.2643 5.10039 16.6917 5.53608 16.6917 6.06985C16.6917 6.60591 16.2621 7.03932 15.7358 7.03932C15.2072 7.03932 14.7799 6.60591 14.7799 6.06985C14.7799 5.5338 15.2072 5.10039 15.7358 5.10039ZM14.7484 10.0367C14.0062 10.0367 13.3336 10.3173 12.8028 10.7644L11.5815 9.67627C11.9504 9.16302 12.1506 8.54713 12.1506 7.91298C12.1506 7.83542 12.1326 7.76243 12.1281 7.68715L14.0556 7.11004C14.411 7.7054 15.0475 8.07038 15.7358 8.07266C16.8266 8.07266 17.7106 7.17391 17.7106 6.06985C17.6813 4.96352 16.7749 4.08986 15.684 4.11723C14.6314 4.14461 13.7857 5.0023 13.7587 6.06985C13.7587 6.08582 13.7632 6.10179 13.7632 6.12004L11.8829 6.68347C11.4038 5.59311 10.3377 4.89053 9.16141 4.88825C8.36519 4.88825 7.60272 5.20988 7.04492 5.78244L5.84836 4.74225C5.99455 4.47309 6.08677 4.1697 6.08677 3.84122C6.06653 2.8056 5.22083 1.97984 4.19745 2.00037C3.20106 2.01862 2.39811 2.83298 2.38011 3.8435C2.38011 4.87912 3.21231 5.72085 4.23119 5.72085C4.55732 5.72085 4.85871 5.62732 5.12412 5.47677L6.46238 6.64013C6.27345 7.03932 6.17674 7.47501 6.17449 7.91526C6.17449 8.56081 6.37916 9.15846 6.72104 9.65118L5.63018 10.7324C5.23658 10.4017 4.74176 10.2192 4.22894 10.2192C3.00089 10.2192 2.00225 11.2297 2 12.4752C2.00225 13.7229 2.99864 14.7335 4.22894 14.7357C5.45925 14.7357 6.45788 13.7229 6.45788 12.4752C6.45788 12.1467 6.38366 11.8342 6.25996 11.5536L7.44078 10.3834C8.45741 11.1202 9.82267 11.1293 10.8505 10.4085L12.1326 11.5513C11.8537 12.0167 11.685 12.5596 11.685 13.1435C11.685 13.5473 11.766 13.9282 11.9054 14.2818L10.5716 14.9045C10.223 14.4871 9.71246 14.2476 9.17265 14.2453C8.14927 14.2453 7.32157 15.0848 7.31932 16.1227C7.32157 17.1583 8.14927 18 9.17265 18C10.1938 18 11.0237 17.1606 11.0237 16.1227C11.0237 16.0268 11.0102 15.9356 10.9967 15.8444L12.4452 15.1692C13.0053 15.8238 13.824 16.2481 14.7461 16.2481C16.4353 16.2481 17.8073 14.8589 17.8095 13.1435C17.8095 11.4282 16.4398 10.039 14.7484 10.0367Z" fill="#86888C"/>
</svg>
