<svg width="20" height="20" viewBox="0 0 20 20" fill="none" xmlns="http://www.w3.org/2000/svg">
<path d="M6.79174 9.9828C6.71378 9.92777 6.6748 9.86587 6.6748 9.76957C6.67939 9.64576 6.78027 9.54718 6.90408 9.54947C6.96369 9.55176 7.02101 9.5701 7.06916 9.60449C7.42224 9.84065 7.91977 10.0768 8.49296 10.0768C9.35045 10.0768 9.87779 9.63659 9.87779 8.98545C9.87779 8.45124 9.57973 8.07522 8.59384 7.94912L8.34164 7.91702C7.29385 7.78404 6.80549 7.27964 6.80549 6.50239C6.80549 5.57612 7.4681 5.00293 8.4815 5.00293C9.04781 5.00293 9.52929 5.15196 9.85945 5.35601C9.96262 5.41792 10.0085 5.49817 10.0085 5.57612C10.0085 5.69305 9.91447 5.78705 9.79754 5.78935H9.79525C9.74022 5.78476 9.6852 5.76871 9.63705 5.7412C9.27479 5.54402 8.89649 5.42709 8.46316 5.42709C7.68362 5.42709 7.25029 5.85813 7.25029 6.46342C7.25029 7.01368 7.58961 7.36676 8.50901 7.48369L8.75204 7.51579C9.81818 7.64877 10.3203 8.15089 10.3203 8.95335C10.3203 9.8567 9.67373 10.501 8.43106 10.501C7.8487 10.4964 7.27551 10.3152 6.79174 9.9828Z" fill="#86888C"/>
<path d="M8.43579 10.707C7.80528 10.7024 7.19082 10.5098 6.67266 10.1521C6.53509 10.0558 6.46631 9.92743 6.46631 9.77152C6.4686 9.53308 6.66349 9.34278 6.90193 9.34507C7.00281 9.34736 7.09911 9.37946 7.18165 9.43449C7.61727 9.72337 8.05748 9.87011 8.49081 9.87011C9.21762 9.87011 9.66929 9.53078 9.66929 8.98511C9.66929 8.62744 9.53631 8.27664 8.56647 8.15283L8.31427 8.12074C6.89505 7.93961 6.597 7.13944 6.597 6.50205C6.597 5.46572 7.33756 4.79395 8.48164 4.79395C9.03878 4.79395 9.56612 4.93151 9.96735 5.17913C10.1829 5.31211 10.215 5.48407 10.215 5.57578C10.215 5.80734 10.027 5.99535 9.79539 5.99535C9.70827 5.99306 9.62344 5.96784 9.54548 5.92657L9.5386 5.92427C9.17635 5.7271 8.83473 5.63539 8.46559 5.63539C7.83508 5.63539 7.45907 5.94491 7.45907 6.46537C7.45907 6.80011 7.58747 7.16007 8.53896 7.28159L8.78199 7.31369C10.2264 7.49481 10.5291 8.30645 10.5291 8.9553C10.5291 9.47346 10.3388 9.91367 9.97881 10.2255C9.61656 10.5396 9.08005 10.707 8.43579 10.707ZM6.90881 9.81279C7.11516 9.95724 7.67918 10.2943 8.43579 10.2943C8.97917 10.2943 9.42167 10.1613 9.71056 9.90909C9.97652 9.67981 10.1164 9.34966 10.1164 8.95301C10.1164 8.24225 9.66241 7.83873 8.73155 7.7218L8.48623 7.6897C7.51639 7.56589 7.04638 7.16466 7.04638 6.46307C7.04638 6.09852 7.17936 5.78671 7.42927 5.56431C7.67918 5.34191 8.03914 5.2204 8.46559 5.2204C8.89892 5.2204 9.31391 5.33045 9.73349 5.55743C9.75183 5.5689 9.77476 5.57578 9.79539 5.58036H9.79769L9.79998 5.57807C9.78622 5.55973 9.77017 5.54368 9.74954 5.53221C9.55465 5.4107 9.13049 5.20893 8.47935 5.20893C8.02997 5.20893 7.65625 5.33045 7.39717 5.55973C7.14267 5.78442 7.00969 6.10999 7.00969 6.50205C7.00969 7.19905 7.45219 7.5934 8.36471 7.71033L8.61692 7.74243C9.13279 7.80892 9.49963 7.94419 9.74037 8.15971C9.96964 8.36606 10.082 8.63661 10.082 8.98511C10.082 9.368 9.92149 9.70503 9.63261 9.9366C9.3483 10.1636 8.95395 10.2828 8.48852 10.2828C7.97265 10.2828 7.45449 10.1131 6.94779 9.77611C6.93174 9.76464 6.91569 9.75777 6.89735 9.75547C6.88818 9.75547 6.87901 9.76006 6.87671 9.76923C6.8813 9.78757 6.8813 9.78986 6.90881 9.81279Z" fill="#86888C"/>
<path d="M8.54829 11.4386C8.37633 11.4386 8.23877 11.2987 8.23877 11.1291V4.59014C8.23877 4.41818 8.37863 4.27832 8.54829 4.27832C8.72025 4.27832 8.86011 4.41818 8.86011 4.59014V11.1291C8.85781 11.301 8.72025 11.4386 8.54829 11.4386Z" fill="#86888C"/>
<path d="M8.42201 14.3616C4.87512 14.3616 2 11.4865 2 7.93963C2 6.23611 2.67636 4.60366 3.88006 3.39767C6.42961 0.930666 10.4947 0.997156 12.9617 3.54441C15.3737 6.03434 15.3737 9.98935 12.9617 12.4793C11.7603 13.6876 10.1255 14.3662 8.42201 14.3616ZM8.42201 2.43472C5.38182 2.43472 2.9171 4.89943 2.9171 7.93963C2.9171 9.40011 3.49717 10.7987 4.52891 11.8327C6.6864 13.9742 10.1737 13.9604 12.3151 11.8029C14.4451 9.6569 14.4451 6.19484 12.3151 4.04882C11.2834 3.0102 9.8825 2.43013 8.42201 2.43472Z" fill="#86888C"/>
<path d="M17.6137 17.5897C17.4922 17.5897 17.3753 17.5416 17.2904 17.4545L12.3152 12.4792C12.1432 12.2935 12.157 12.0023 12.3427 11.8303C12.5192 11.6698 12.7875 11.6698 12.964 11.8303L17.9393 16.8056C18.1181 16.9844 18.1181 17.2756 17.9393 17.4545C17.8499 17.5416 17.7352 17.5897 17.6137 17.5897Z" fill="#86888C"/>
</svg>
