<svg width="40" height="40" viewBox="0 0 40 40" fill="none" xmlns="http://www.w3.org/2000/svg">
<path fill-rule="evenodd" clip-rule="evenodd" d="M35.8165 28.9112C37.0704 28.8949 37.7085 28.2213 37.7085 26.9067C37.7085 25.5975 37.0815 24.9293 35.8553 24.9239C35.8331 24.9239 35.8109 24.913 35.7943 24.913C35.7388 26.2928 35.6167 27.64 35.3892 28.9004C35.4614 28.9058 35.5446 28.9112 35.589 28.9166H35.8165V28.9112ZM34.8288 18.6821C35.1618 18.367 35.3282 17.8998 35.3282 17.2914C35.3282 16.683 35.1618 16.2158 34.8288 15.8953C34.5015 15.5911 34.041 15.439 33.4528 15.439C33.3086 15.439 33.1754 15.4498 33.0478 15.4661C33.0256 15.4716 33.0201 15.4661 33.009 15.4498C32.9923 15.4335 32.9979 15.4281 33.0034 15.4009C33.0312 15.1999 33.0533 14.9935 33.0533 14.7708C33.0533 13.869 32.8037 13.1737 32.3099 12.701C31.8327 12.2502 31.1502 12.022 30.268 12.022C29.3914 12.022 28.7089 12.2502 28.2318 12.7065C27.971 12.9618 27.7823 13.2823 27.6603 13.6626C27.6547 13.6734 27.6492 13.6843 27.6381 13.6897C27.627 13.6952 27.6159 13.6952 27.5992 13.6952C27.405 13.668 27.1942 13.6463 26.9778 13.6463C26.1012 13.6463 25.4131 13.8744 24.9415 14.3308C24.7917 14.472 24.6752 14.6295 24.5698 14.8088C24.5476 14.8468 24.542 14.8523 24.4977 14.8577C24.4533 14.8631 24.4477 14.8577 24.4144 14.8251C23.9927 14.4177 23.3713 14.2112 22.5834 14.2112C21.7956 14.2112 21.1797 14.4177 20.758 14.8251C20.6137 14.9663 20.5028 15.1402 20.414 15.3249C20.414 15.3249 20.303 15.3901 20.2309 15.3683C20.1366 15.3357 20.1033 15.2217 20.1033 15.2217C20.0367 14.7056 19.8814 14.2601 19.5706 13.9614C19.1878 13.5974 18.6385 13.4127 17.9338 13.4127C17.2292 13.4127 16.6854 13.5974 16.2971 13.9614C16.0918 14.1624 15.942 14.4231 15.8365 14.7273C15.831 14.7382 15.8254 14.7545 15.8088 14.7545C15.7755 14.7545 15.7589 14.7327 15.7478 14.7327C15.437 14.4992 15.0764 14.3905 14.5659 14.3905C13.9834 14.3905 13.5173 14.5426 13.201 14.8468C13.0401 15.0044 12.9181 15.2054 12.8348 15.439C12.8293 15.4607 12.8237 15.4824 12.796 15.4987C12.7682 15.515 12.7461 15.5096 12.7072 15.5041C12.5962 15.4878 12.4797 15.4824 12.3577 15.4824C11.7695 15.4824 11.309 15.6345 10.9983 15.9387C10.9151 16.0202 10.8596 16.118 10.8041 16.2158C10.7764 16.2647 10.7653 16.2918 10.7153 16.3136C10.6598 16.3299 10.6155 16.319 10.56 16.2973C10.3935 16.2429 10.1938 16.2049 9.97738 16.2049C9.48912 16.2049 9.11182 16.3299 8.8455 16.5852C8.76227 16.6667 8.69014 16.7645 8.63466 16.8731C8.60137 16.9329 8.57917 16.9655 8.51814 16.9926C8.45156 17.0252 8.40717 17.0089 8.32949 16.998C8.19633 16.9709 8.05207 16.96 7.89671 16.96C7.414 16.96 7.03116 17.0904 6.77038 17.3403C6.49851 17.601 6.3598 17.9867 6.3598 18.4865V19.1547H16.7631C16.7853 19.1493 16.8131 19.1438 16.8353 19.1438H19.8647C19.8869 19.1438 19.9146 19.1493 19.9368 19.1547H33.4695C34.0521 19.133 34.507 18.9809 34.8288 18.6821ZM33.5361 23.1312C33.5361 23.0225 33.5361 22.1588 33.5416 21.4037H33.4806C33.4695 21.4037 33.4639 21.4091 33.4528 21.4091H26.9834L24.2868 21.4146H20.0145C19.9535 21.4146 19.9035 21.4091 19.8481 21.4037H16.8574C16.802 21.4091 16.752 21.4146 16.6854 21.4146H12.3632L7.37516 21.4472V22.8541C7.414 31.736 9.29492 34.7347 14.8267 34.7347C15.1374 34.7347 15.4315 34.7184 15.72 34.6967H25.1135C25.8459 34.7401 26.3897 34.7347 26.9667 34.6967H27.172C27.2275 34.6858 27.2774 34.6749 27.3385 34.6695C31.8438 34.2132 33.4639 31.1928 33.5361 23.1312ZM5.44985 28.9112C5.4665 28.9112 5.52198 28.9058 5.54972 28.9058C5.32779 27.6889 5.20572 26.358 5.14469 24.9293C3.92958 24.951 3.30815 25.6138 3.30815 26.9121C3.30815 28.2213 3.94067 28.8949 5.19462 28.9166H5.44985V28.9112ZM35.8664 22.6586C37.7751 22.6749 40 23.7994 40 26.9121C40 30.0194 37.764 31.1548 35.8498 31.1819H35.5224C35.417 31.1765 35.0563 31.1548 34.8011 31.133C33.7746 34.1697 31.7772 36.397 27.8767 36.8859C27.7546 36.9348 27.6214 36.962 27.4827 36.962H27.0499C26.7836 36.9837 26.4452 37 26.079 37C25.7128 37 25.3743 36.9783 25.0414 36.9565L15.7977 36.962C15.5314 36.9837 15.1874 37 14.8267 37C9.83312 37 7.29748 34.8162 6.08237 31.1276C5.78276 31.1656 5.60521 31.1765 5.49424 31.1819H5.15023C3.23602 31.1548 1 30.0194 1 26.9121C1 23.8265 3.18609 22.702 5.08365 22.664V21.0723C4.96159 20.9908 4.83952 20.8985 4.7341 20.7953C4.30132 20.3715 4.05719 19.7903 4.05719 19.1873V18.4756C4.05719 17.0578 4.66197 16.1832 5.16688 15.6997C5.60521 15.276 6.3487 14.7545 7.63594 14.8197C8.11865 14.2384 8.86214 13.8799 9.9219 14.0211C10.2881 13.5105 10.9262 13.228 11.5365 13.2714C11.5531 13.2497 11.6142 13.304 11.6308 13.2823C12.2911 12.3968 13.0512 12.1198 14.5493 12.1198C14.6714 12.1198 14.86 12.1524 14.9821 12.1632C15.5758 11.6743 16.5134 11.0007 17.9616 11.0007C19.443 11.0007 20.3752 11.6689 20.9633 12.1632C21.4238 12.0274 21.9565 11.9459 22.5723 11.9459C23.1383 11.9459 23.6376 12.0166 24.0649 12.1361C24.6142 11.7993 25.3466 11.5059 26.3064 11.4136C26.4063 11.2941 26.5117 11.18 26.6227 11.0768C27.2497 10.4738 28.3927 9.75671 30.2514 9.75671C32.1157 9.75671 33.2531 10.4738 33.8856 11.0768C34.385 11.5494 34.9565 12.3208 35.2062 13.4942C35.7388 13.7115 36.1327 13.9994 36.4102 14.2656C36.9595 14.7871 37.6142 15.7377 37.6142 17.2914C37.6142 18.8505 36.9539 19.7957 36.4046 20.3227C36.2493 20.4639 36.0495 20.616 35.8276 20.7572V22.664C35.8331 22.664 35.8387 22.6586 35.8498 22.6586H35.8664ZM19.2377 4.4004C17.956 4.75893 17.4733 5.54119 17.7951 6.73631L17.8562 6.95904L21.7956 5.8617C21.7567 5.78565 21.7012 5.71503 21.6735 5.62811C21.3295 4.46015 20.5139 4.04186 19.2377 4.4004ZM6.1656 12.5272C5.66624 12.5272 5.20017 12.2013 5.06146 11.7069C4.88946 11.1039 5.24456 10.4738 5.85489 10.3054L15.6479 7.5729L15.5758 7.32301C15.0764 5.4923 15.5758 3.0586 18.6108 2.21659C21.6402 1.36371 23.3436 3.18355 23.8762 4.99253C23.904 5.08488 23.8984 5.17723 23.904 5.26958L33.525 2.58599C34.1464 2.41759 34.7734 2.76526 34.9398 3.36825C35.1118 3.97124 34.7567 4.6014 34.1464 4.7698L6.47076 12.4838C6.37644 12.5163 6.27102 12.5272 6.1656 12.5272Z" fill="#86888C"/>
</svg>
