<svg width="28" height="28" viewBox="0 0 28 28" fill="none" xmlns="http://www.w3.org/2000/svg">
<path fill-rule="evenodd" clip-rule="evenodd" d="M24.5032 21.4534C25.3496 21.4422 25.7804 20.9803 25.7804 20.0789C25.7804 19.1811 25.3571 18.7229 24.5294 18.7192C24.5144 18.7192 24.4994 18.7118 24.4882 18.7118C24.4507 19.6579 24.3683 20.5817 24.2147 21.446C24.2634 21.4497 24.3196 21.4534 24.3496 21.4571H24.5032V21.4534ZM23.8364 14.4391C24.0612 14.2231 24.1735 13.9027 24.1735 13.4855C24.1735 13.0683 24.0612 12.748 23.8364 12.5282C23.6155 12.3196 23.3046 12.2153 22.9076 12.2153C22.8102 12.2153 22.7203 12.2227 22.6341 12.2339C22.6192 12.2376 22.6154 12.2339 22.6079 12.2227C22.5967 12.2116 22.6004 12.2078 22.6042 12.1892C22.6229 12.0514 22.6379 11.9098 22.6379 11.7571C22.6379 11.1387 22.4693 10.6619 22.136 10.3379C21.8139 10.0287 21.3532 9.87223 20.7576 9.87223C20.1658 9.87223 19.7051 10.0287 19.383 10.3416C19.207 10.5167 19.0796 10.7364 18.9972 10.9972C18.9935 11.0046 18.9897 11.0121 18.9823 11.0158C18.9748 11.0195 18.9673 11.0195 18.956 11.0195C18.8249 11.0009 18.6826 10.986 18.5365 10.986C17.9447 10.986 17.4803 11.1425 17.1619 11.4554C17.0608 11.5522 16.9821 11.6603 16.911 11.7832C16.896 11.8093 16.8923 11.813 16.8623 11.8167C16.8323 11.8204 16.8286 11.8167 16.8061 11.7944C16.5214 11.515 16.1019 11.3734 15.5701 11.3734C15.0382 11.3734 14.6225 11.515 14.3378 11.7944C14.2404 11.8912 14.1655 12.0104 14.1056 12.1371C14.1056 12.1371 14.0307 12.1818 13.982 12.1669C13.9183 12.1445 13.8958 12.0663 13.8958 12.0663C13.8509 11.7124 13.746 11.4069 13.5363 11.2021C13.2778 10.9525 12.907 10.8258 12.4313 10.8258C11.9557 10.8258 11.5886 10.9525 11.3264 11.2021C11.1878 11.3399 11.0867 11.5187 11.0155 11.7273C11.0118 11.7348 11.008 11.7459 10.9968 11.7459C10.9743 11.7459 10.9631 11.731 10.9556 11.731C10.7458 11.5709 10.5024 11.4964 10.1578 11.4964C9.76452 11.4964 9.4499 11.6007 9.2364 11.8093C9.12778 11.9173 9.04538 12.0551 8.9892 12.2153C8.98545 12.2302 8.98171 12.2451 8.96298 12.2563C8.94425 12.2674 8.92927 12.2637 8.90305 12.26C8.82814 12.2488 8.74949 12.2451 8.66708 12.2451C8.27006 12.2451 7.95918 12.3494 7.74943 12.558C7.69325 12.6139 7.65579 12.6809 7.61834 12.748C7.59961 12.7815 7.59212 12.8001 7.55841 12.815C7.52095 12.8262 7.49099 12.8187 7.45354 12.8038C7.34117 12.7666 7.20633 12.7405 7.06026 12.7405C6.73065 12.7405 6.47595 12.8262 6.29617 13.0013C6.23999 13.0571 6.19129 13.1242 6.15384 13.1987C6.13137 13.2397 6.11638 13.262 6.07518 13.2807C6.03024 13.303 6.00027 13.2918 5.94784 13.2844C5.85794 13.2657 5.76056 13.2583 5.65568 13.2583C5.32982 13.2583 5.07138 13.3477 4.89534 13.5191C4.71181 13.6979 4.61817 13.9623 4.61817 14.305V14.7632H11.641C11.656 14.7595 11.6747 14.7558 11.6897 14.7558H13.7348C13.7498 14.7558 13.7685 14.7595 13.7835 14.7632H22.9188C23.3121 14.7483 23.6192 14.644 23.8364 14.4391ZM22.9637 17.49C22.9637 17.4155 22.9637 16.8232 22.9675 16.3054H22.9263C22.9188 16.3054 22.9151 16.3091 22.9076 16.3091H18.5403L16.72 16.3128H13.8359C13.7947 16.3128 13.761 16.3091 13.7235 16.3054H11.7047C11.6672 16.3091 11.6335 16.3128 11.5886 16.3128H8.67083L5.30361 16.3352V17.3C5.32982 23.3904 6.59956 25.4467 10.3338 25.4467C10.5436 25.4467 10.7421 25.4355 10.9369 25.4206H17.278C17.7724 25.4504 18.1395 25.4467 18.529 25.4206H18.6676C18.7051 25.4131 18.7388 25.4057 18.78 25.402C21.8214 25.0891 22.9151 23.0179 22.9637 17.49ZM4.00391 21.4534C4.01515 21.4534 4.0526 21.4497 4.07133 21.4497C3.92151 20.6153 3.83911 19.7026 3.7979 18.7229C2.97764 18.7378 2.55814 19.1923 2.55814 20.0826C2.55814 20.9803 2.98513 21.4422 3.83161 21.4571H4.00391V21.4534ZM24.5369 17.1659C25.8253 17.177 27.3273 17.9481 27.3273 20.0826C27.3273 22.2133 25.8178 22.9918 24.5256 23.0105H24.3046C24.2335 23.0068 23.99 22.9918 23.8177 22.9769C23.1248 25.0592 21.7764 26.5865 19.1433 26.9218C19.0609 26.9553 18.971 26.9739 18.8774 26.9739H18.5852C18.4054 26.9888 18.177 27 17.9298 27C17.6826 27 17.4541 26.9851 17.2293 26.9702L10.9893 26.9739C10.8095 26.9888 10.5773 27 10.3338 27C6.96287 27 5.25117 25.5025 4.4309 22.9732C4.22864 22.9993 4.10878 23.0068 4.03387 23.0105H3.80165C2.50945 22.9918 1 22.2133 1 20.0826C1 17.9668 2.47574 17.1957 3.7567 17.1696V16.0782C3.6743 16.0223 3.5919 15.959 3.52074 15.8882C3.22859 15.5976 3.06378 15.199 3.06378 14.7856V14.2976C3.06378 13.3253 3.47204 12.7256 3.81289 12.3941C4.10878 12.1035 4.61068 11.7459 5.47964 11.7906C5.80551 11.392 6.30741 11.1462 7.0228 11.243C7.27 10.8929 7.70074 10.6992 8.11275 10.729C8.12398 10.7141 8.16518 10.7513 8.17642 10.7364C8.62214 10.1293 9.13527 9.93928 10.1466 9.93928C10.229 9.93928 10.3563 9.96163 10.4387 9.96908C10.8395 9.63383 11.4725 9.17192 12.4501 9.17192C13.4501 9.17192 14.0794 9.6301 14.4764 9.96908C14.7873 9.87595 15.1468 9.82008 15.5626 9.82008C15.9446 9.82008 16.2817 9.8685 16.5701 9.95046C16.9409 9.7195 17.4354 9.51835 18.0833 9.45502C18.1507 9.37307 18.2219 9.29485 18.2968 9.22407C18.7201 8.81059 19.4916 8.31888 20.7464 8.31888C22.0049 8.31888 22.7727 8.81059 23.1997 9.22407C23.5368 9.54815 23.9226 10.0771 24.0911 10.8817C24.4507 11.0307 24.7166 11.2281 24.9039 11.4107C25.2747 11.7683 25.7167 12.4202 25.7167 13.4855C25.7167 14.5546 25.271 15.2028 24.9002 15.5641C24.7953 15.661 24.6605 15.7653 24.5106 15.8621V17.1696C24.5144 17.1696 24.5181 17.1659 24.5256 17.1659H24.5369ZM13.3115 4.64599C12.4463 4.89184 12.1205 5.42825 12.3377 6.24776L12.3789 6.40048L15.0382 5.64803C15.012 5.59587 14.9745 5.54745 14.9558 5.48785C14.7236 4.68696 14.173 4.40013 13.3115 4.64599ZM4.48708 10.2187C4.14998 10.2187 3.83536 9.99516 3.74172 9.65618C3.62561 9.2427 3.86532 8.81059 4.27733 8.69511L10.8882 6.82142L10.8395 6.65006C10.5024 5.39472 10.8395 3.7259 12.8883 3.14852C14.9333 2.56369 16.0832 3.81158 16.4428 5.05202C16.4615 5.11534 16.4578 5.17867 16.4615 5.24199L22.9562 3.40182C23.3757 3.28634 23.799 3.52475 23.9114 3.93823C24.0275 4.35171 23.7878 4.78381 23.3757 4.89929L4.69308 10.1889C4.62941 10.2112 4.55825 10.2187 4.48708 10.2187Z" fill="#86888C"/>
</svg>
