<svg width="28" height="28" viewBox="0 0 28 28" fill="none" xmlns="http://www.w3.org/2000/svg">
<path fill-rule="evenodd" clip-rule="evenodd" d="M13.959 19.2695L3.75787 14.0239L5.70079 13.013L13.1606 16.8516C13.4108 16.9814 13.6849 17.0463 13.959 17.0463C14.2297 17.0463 14.5004 16.9814 14.7472 16.8584L22.3543 13.013L24.3384 14.0273L13.959 19.2695ZM24.3384 17.9991L13.959 23.2446L3.75787 17.9991L5.70079 16.9916L13.1606 20.8268C13.4108 20.9565 13.6849 21.0214 13.959 21.0214C14.2297 21.0214 14.5004 20.9565 14.7472 20.8336L22.3543 16.9882L24.3384 17.9991ZM13.959 4.75536L24.3384 10.0453L13.959 15.2943L3.75787 10.0453L13.959 4.75536ZM26.0894 14.0273C26.0894 13.3648 25.7193 12.7603 25.1299 12.4598L24.2904 12.0329L25.1231 11.6129C25.7125 11.3157 26.086 10.7113 26.086 10.0487C26.086 9.38622 25.7159 8.78174 25.1265 8.48122L14.7472 3.19125C14.497 3.06489 14.2263 3 13.9522 3C13.6746 3 13.4005 3.06489 13.1469 3.19808L2.94576 8.48805C2.36323 8.78857 2 9.39304 2 10.0487C2 10.7044 2.36665 11.3055 2.95261 11.606L3.78186 12.0329L2.94576 12.4666C2.36323 12.7672 2 13.3682 2 14.0273C2 14.6864 2.36665 15.2841 2.95261 15.5846L3.78186 16.0115L2.94576 16.4452C2.36323 16.7457 2 17.3502 2 18.0059C2 18.6616 2.36665 19.2627 2.95261 19.5632L13.1538 24.8088C13.4039 24.9385 13.678 25 13.9522 25C14.2229 25 14.4936 24.9385 14.7403 24.8122L25.1196 19.5666C25.709 19.2695 26.0825 18.665 26.0825 18.0025C26.0825 17.34 25.7125 16.7355 25.1231 16.435L24.2835 16.0081L25.1162 15.5846C25.7159 15.2909 26.0894 14.6864 26.0894 14.0273Z" fill="#86888C"/>
</svg>
