<svg width="20" height="20" viewBox="0 0 20 20" fill="none" xmlns="http://www.w3.org/2000/svg">
<path fill-rule="evenodd" clip-rule="evenodd" d="M10.1103 13.3533L3.61865 10.0152L4.85505 9.37193L9.60221 11.8147C9.76139 11.8972 9.93584 11.9385 10.1103 11.9385C10.2826 11.9385 10.4548 11.8972 10.6118 11.819L15.4528 9.37193L16.7153 10.0174L10.1103 13.3533ZM16.7153 12.5449L10.1103 15.883L3.61865 12.5449L4.85505 11.9038L9.60221 14.3443C9.76139 14.4269 9.93584 14.4682 10.1103 14.4682C10.2826 14.4682 10.4548 14.4269 10.6118 14.3486L15.4528 11.9016L16.7153 12.5449ZM10.1103 4.11704L16.7153 7.48339L10.1103 10.8237L3.61865 7.48339L10.1103 4.11704ZM17.8296 10.0174C17.8296 9.59578 17.5941 9.21111 17.219 9.01987L16.6848 8.74821L17.2147 8.48091C17.5897 8.29183 17.8274 7.90717 17.8274 7.48556C17.8274 7.06395 17.5919 6.67929 17.2169 6.48805L10.6118 3.1217C10.4526 3.04129 10.2804 3 10.1059 3C9.9293 3 9.75485 3.04129 9.59349 3.12605L3.10185 6.49239C2.73114 6.68364 2.5 7.0683 2.5 7.48556C2.5 7.90282 2.73332 8.28531 3.10621 8.47656L3.63391 8.74821L3.10185 9.02422C2.73114 9.21546 2.5 9.59795 2.5 10.0174C2.5 10.4368 2.73332 10.8171 3.10621 11.0084L3.63391 11.28L3.10185 11.556C2.73114 11.7473 2.5 12.1319 2.5 12.5492C2.5 12.9665 2.73332 13.349 3.10621 13.5402L9.59785 16.8783C9.75703 16.9609 9.93148 17 10.1059 17C10.2782 17 10.4505 16.9609 10.6075 16.8805L17.2125 13.5424C17.5876 13.3533 17.8252 12.9686 17.8252 12.547C17.8252 12.1254 17.5897 11.7408 17.2147 11.5495L16.6804 11.2779L17.2103 11.0084C17.5919 10.8215 17.8296 10.4368 17.8296 10.0174Z" fill="#86888C"/>
</svg>
