<svg width="40" height="40" viewBox="0 0 40 40" fill="none" xmlns="http://www.w3.org/2000/svg">
<path fill-rule="evenodd" clip-rule="evenodd" d="M19.9821 28.1437L4.21671 20.0369L7.2194 18.4747L18.7482 24.407C19.1348 24.6076 19.5585 24.7079 19.9821 24.7079C20.4005 24.7079 20.8189 24.6076 21.2001 24.4176L32.9567 18.4747L36.0229 20.0422L19.9821 28.1437ZM36.0229 26.1804L19.9821 34.2872L4.21671 26.1804L7.2194 24.6234L18.7482 30.5504C19.1348 30.751 19.5585 30.8513 19.9821 30.8513C20.4005 30.8513 20.8189 30.751 21.2001 30.561L32.9567 24.6181L36.0229 26.1804ZM19.9821 5.71282L36.0229 13.8882L19.9821 22.0003L4.21671 13.8882L19.9821 5.71282ZM38.729 20.0422C38.729 19.0183 38.1571 18.0841 37.2462 17.6197L35.9488 16.96L37.2356 16.3108C38.1465 15.8516 38.7238 14.9174 38.7238 13.8935C38.7238 12.8696 38.1518 11.9354 37.2409 11.471L21.2001 3.29556C20.8136 3.10028 20.3952 3 19.9715 3C19.5426 3 19.1189 3.10028 18.727 3.30612L2.96162 11.4815C2.06135 11.946 1.5 12.8802 1.5 13.8935C1.5 14.9069 2.06664 15.8358 2.97222 16.3002L4.25378 16.96L2.96162 17.6302C2.06135 18.0947 1.5 19.0236 1.5 20.0422C1.5 21.0609 2.06664 21.9845 2.97222 22.4489L4.25378 23.1087L2.96162 23.779C2.06135 24.2434 1.5 25.1776 1.5 26.1909C1.5 27.2043 2.06664 28.1332 2.97222 28.5976L18.7376 36.7044C19.1242 36.905 19.5479 37 19.9715 37C20.3899 37 20.8083 36.905 21.1896 36.7097L37.2304 28.6029C38.1412 28.1437 38.7185 27.2096 38.7185 26.1857C38.7185 25.1618 38.1465 24.2276 37.2356 23.7631L35.9382 23.1034L37.2251 22.4489C38.1518 21.995 38.729 21.0609 38.729 20.0422Z" fill="#86888C"/>
</svg>
