<svg width="24" height="24" viewBox="0 0 24 24" fill="none" xmlns="http://www.w3.org/2000/svg">
<path fill-rule="evenodd" clip-rule="evenodd" d="M11.7847 16.3114L3.43826 12.0196L5.02792 11.1925L11.1314 14.3331C11.3361 14.4393 11.5604 14.4924 11.7847 14.4924C12.0061 14.4924 12.2276 14.4393 12.4295 14.3387L18.6535 11.1925L20.2768 12.0224L11.7847 16.3114ZM20.2768 15.272L11.7847 19.5638L3.43826 15.272L5.02792 14.4477L11.1314 17.5855C11.3361 17.6917 11.5604 17.7448 11.7847 17.7448C12.0061 17.7448 12.2276 17.6917 12.4295 17.5911L18.6535 14.4449L20.2768 15.272ZM11.7847 4.4362L20.2768 8.76436L11.7847 13.059L3.43826 8.76436L11.7847 4.4362ZM21.7095 12.0224C21.7095 11.4803 21.4067 10.9857 20.9245 10.7398L20.2376 10.3906L20.9189 10.0469C21.4011 9.80379 21.7067 9.30922 21.7067 8.76715C21.7067 8.22509 21.4039 7.73052 20.9217 7.48463L12.4295 3.15647C12.2248 3.05309 12.0033 3 11.779 3C11.552 3 11.3277 3.05309 11.1202 3.16206L2.7738 7.49022C2.29718 7.73611 2 8.23067 2 8.76715C2 9.30363 2.29999 9.7954 2.77941 10.0413L3.45789 10.3906L2.7738 10.7454C2.29718 10.9913 2 11.4831 2 12.0224C2 12.5616 2.29999 13.0506 2.77941 13.2965L3.45789 13.6458L2.7738 14.0006C2.29718 14.2465 2 14.7411 2 15.2776C2 15.814 2.29999 16.3058 2.77941 16.5517L11.1258 20.8435C11.3305 20.9497 11.5548 21 11.779 21C12.0005 21 12.222 20.9497 12.4239 20.8463L20.9161 16.5545C21.3983 16.3114 21.7039 15.8168 21.7039 15.2748C21.7039 14.7327 21.4011 14.2381 20.9189 13.9922L20.232 13.643L20.9133 13.2965C21.4039 13.0562 21.7095 12.5616 21.7095 12.0224Z" fill="#86888C"/>
</svg>
