<svg width="20" height="20" viewBox="0 0 20 20" fill="none" xmlns="http://www.w3.org/2000/svg">
<path fill-rule="evenodd" clip-rule="evenodd" d="M17.529 8.25199V11.2235C17.529 11.2478 17.518 11.2655 17.5158 11.2898V14.9505C17.5158 15.5846 16.99 16.1016 16.3448 16.1016H3.18196C2.53465 16.1016 2.00884 15.5846 2.00884 14.9505V11.261C2.00663 11.2478 2 11.2367 2 11.2235V8.25199C2 8.23874 2.00663 8.22769 2.00884 8.21444V6.2526C2.00884 5.61632 2.53465 5.10156 3.18196 5.10156H16.3448C16.99 5.10156 17.5158 5.61632 17.5158 6.2526V8.18572C17.518 8.20781 17.529 8.22769 17.529 8.25199ZM16.3448 15.1273C16.4443 15.1273 16.526 15.0477 16.5282 14.9483V11.7095H2.99859V14.9505C2.99859 15.0499 3.08255 15.1317 3.18196 15.1295C3.18196 15.1273 16.3448 15.1273 16.3448 15.1273ZM3.18196 6.07365C3.08255 6.07144 2.99859 6.15318 2.99859 6.2526V7.76595H16.526V6.2526C16.526 6.15318 16.4443 6.07365 16.3426 6.07365H3.18196ZM2.99859 10.7374H16.526V8.73804H2.99859V10.7374Z" fill="#86888C"/>
</svg>
