<svg width="40" height="40" viewBox="0 0 40 40" fill="none" xmlns="http://www.w3.org/2000/svg">
<path fill-rule="evenodd" clip-rule="evenodd" d="M31.0028 36.4991C34.7217 36.4991 36.4633 34.8088 36.4633 31.1821C36.4633 27.5401 34.7268 25.8497 31.0028 25.8497C27.2686 25.8497 25.527 27.5401 25.527 31.1821C25.527 34.8088 27.2635 36.4991 31.0028 36.4991ZM18.745 21.5009C22.2538 21.5009 24.1901 23.7188 25.4809 26.0137L26.6642 24.9841L4.96585 3.83381C2.95276 6.41036 4.76608 9.15083 6.73819 11.0717L17.5208 21.5777C17.9459 21.5316 18.3608 21.5009 18.745 21.5009ZM13.93 25.7114C14.7291 24.3899 15.564 23.4166 16.5168 22.7302L15.687 21.9363L12.6289 24.9175C13.1207 25.1275 13.5509 25.399 13.93 25.7114ZM9.01252 36.366C12.7314 36.366 14.473 34.6705 14.473 31.0438C14.473 29.5583 14.181 28.4058 13.5817 27.5555C13.5817 27.5401 13.5663 27.5401 13.5663 27.5401C13.5202 27.4479 13.4587 27.3762 13.3973 27.284C12.506 26.2186 11.0615 25.7114 9.01252 25.7114C5.27831 25.7114 3.53671 27.4069 3.53671 31.0438C3.53671 34.6756 5.27831 36.366 9.01252 36.366ZM34.2658 3.83381L20.7018 17.0495L23.5447 19.8207C23.56 19.8053 23.5754 19.7746 23.5908 19.7592L32.4986 11.0666C33.9124 9.70404 34.7883 8.29539 35.07 7.01992C35.2954 5.87251 35.0341 4.82242 34.2658 3.83381ZM31.0028 24.3489C35.4183 24.3489 38 26.5208 38 31.1821C38 35.8281 35.4183 38 31.0028 38C26.572 38 23.9903 35.8281 23.9903 31.1821C23.9903 29.7888 24.2516 28.6517 24.6818 27.6887C24.6357 27.6426 24.5896 27.6016 24.5589 27.5555C23.1451 24.6921 21.634 23.2988 19.5595 23.0427C19.5441 23.0427 19.5134 23.0581 19.498 23.0581C18.8167 23.1605 18.2328 23.3859 17.6642 23.7496C16.6961 24.3796 15.8355 25.399 15.0057 26.9254C15.6511 27.9755 16.0046 29.3381 16.0046 31.0438C16.0046 35.6898 13.4229 37.8617 9.0074 37.8617C4.58167 37.8668 2 35.6898 2 31.0438C2 26.3978 4.58167 24.2106 9.01252 24.2106C9.71941 24.2106 10.3648 24.2823 10.9795 24.4052L14.6113 20.8708L5.64713 12.132C2.01537 8.60273 1.55435 4.98634 4.3819 2.21514C4.68924 1.93341 5.16562 1.93341 5.47297 2.21514L19.6056 15.9892L33.7536 2.21514C34.0558 1.92829 34.527 1.92829 34.8293 2.21514C37.6722 4.99146 37.2163 8.60273 33.5845 12.1372L24.6818 20.8145C24.6511 20.8452 24.6357 20.8452 24.605 20.8606L28.3238 24.4872C28.3699 24.5333 28.416 24.6101 28.4468 24.6665C29.2817 24.4513 30.1423 24.3489 31.0028 24.3489ZM30.9977 33.2003C32.5344 33.2003 33.0774 32.6727 33.0774 31.177C33.0774 29.6966 32.5139 29.1485 30.9977 29.1485C29.461 29.1485 28.918 29.6762 28.918 31.177C28.918 32.6727 29.461 33.2003 30.9977 33.2003ZM30.9977 27.6477C33.2823 27.6477 34.6192 28.7746 34.6192 31.1719C34.6192 33.5743 33.2823 34.6961 30.9977 34.6961C28.7131 34.6961 27.3813 33.5743 27.3813 31.1719C27.3762 28.7746 28.7131 27.6477 30.9977 27.6477ZM9.0074 33.0672C10.5441 33.0672 11.0871 32.5344 11.0871 31.0387C11.0871 29.5635 10.5236 29.0102 9.0074 29.0102C7.47069 29.0102 6.92772 29.5378 6.92772 31.0387C6.9226 32.5396 7.47069 33.0672 9.0074 33.0672ZM9.0074 27.5145C11.292 27.5145 12.6289 28.6363 12.6289 31.0387C12.6289 33.4411 11.292 34.5629 9.0074 34.5629C6.72282 34.5629 5.38589 33.4462 5.38589 31.0438C5.38589 28.6414 6.7177 27.5145 9.0074 27.5145ZM18.535 18.7962C19.0165 18.7962 19.2982 19.037 19.2982 19.5441C19.2982 20.0563 19.0114 20.292 18.535 20.292C18.0535 20.292 17.7718 20.0563 17.7718 19.5441C17.7718 19.037 18.0535 18.7962 18.535 18.7962Z" fill="#86888C"/>
</svg>
