<svg width="20" height="20" viewBox="0 0 20 20" fill="none" xmlns="http://www.w3.org/2000/svg">
<path fill-rule="evenodd" clip-rule="evenodd" d="M14.8902 17.333C16.543 17.333 17.317 16.5817 17.317 14.9698C17.317 13.3512 16.5452 12.5999 14.8902 12.5999C13.2305 12.5999 12.4565 13.3512 12.4565 14.9698C12.4565 16.5817 13.2282 17.333 14.8902 17.333ZM9.44223 10.667C11.0017 10.667 11.8623 11.6528 12.436 12.6727L12.9619 12.2151L3.31816 2.81503C2.42345 3.96016 3.22937 5.17814 4.10586 6.03187L8.89812 10.7012C9.08708 10.6807 9.27149 10.667 9.44223 10.667ZM7.30222 12.5384C7.65737 11.9511 8.02846 11.5185 8.45191 11.2134L8.0831 10.8606L6.72396 12.1855C6.94252 12.2789 7.13375 12.3995 7.30222 12.5384ZM5.11668 17.2738C6.76949 17.2738 7.54354 16.5202 7.54354 14.9084C7.54354 14.2482 7.41377 13.7359 7.14741 13.358C7.14741 13.3512 7.14058 13.3512 7.14058 13.3512C7.12009 13.3102 7.09277 13.2783 7.06545 13.2373C6.66932 12.7638 6.02732 12.5384 5.11668 12.5384C3.45703 12.5384 2.68298 13.292 2.68298 14.9084C2.68298 16.5225 3.45703 17.2738 5.11668 17.2738ZM16.3404 2.81503L10.3119 8.68867L11.5754 9.92032C11.5822 9.91349 11.5891 9.89983 11.5959 9.893L15.5549 6.0296C16.1833 5.42402 16.5726 4.79795 16.6978 4.23108C16.798 3.72112 16.6818 3.25441 16.3404 2.81503ZM14.8902 11.9328C16.8526 11.9328 18 12.8981 18 14.9698C18 17.0347 16.8526 18 14.8902 18C12.9209 18 11.7735 17.0347 11.7735 14.9698C11.7735 14.3506 11.8896 13.8452 12.0808 13.4172C12.0603 13.3967 12.0398 13.3785 12.0262 13.358C11.3978 12.0854 10.7262 11.4661 9.80421 11.3523C9.79738 11.3523 9.78372 11.3591 9.77689 11.3591C9.4741 11.4047 9.21457 11.5048 8.96187 11.6665C8.53159 11.9465 8.14912 12.3995 7.78031 13.078C8.06716 13.5447 8.22425 14.1503 8.22425 14.9084C8.22425 16.9733 7.07684 17.9385 5.1144 17.9385C3.14741 17.9408 2 16.9733 2 14.9084C2 12.8435 3.14741 11.8714 5.11668 11.8714C5.43085 11.8714 5.7177 11.9032 5.99089 11.9579L7.60501 10.387L3.62094 6.50313C2.00683 4.93455 1.80194 3.32726 3.05862 2.09562C3.19522 1.9704 3.40694 1.9704 3.54354 2.09562L9.8247 8.21742L16.1127 2.09562C16.247 1.96813 16.4565 1.96813 16.5908 2.09562C17.8543 3.32954 17.6517 4.93455 16.0376 6.50541L12.0808 10.362C12.0672 10.3756 12.0603 10.3756 12.0467 10.3825L13.6995 11.9943C13.72 12.0148 13.7405 12.0489 13.7541 12.074C14.1252 11.9784 14.5077 11.9328 14.8902 11.9328ZM14.8879 15.8668C15.5709 15.8668 15.8122 15.6323 15.8122 14.9676C15.8122 14.3096 15.5618 14.066 14.8879 14.066C14.2049 14.066 13.9636 14.3005 13.9636 14.9676C13.9636 15.6323 14.2049 15.8668 14.8879 15.8668ZM14.8879 13.399C15.9032 13.399 16.4974 13.8998 16.4974 14.9653C16.4974 16.033 15.9032 16.5316 14.8879 16.5316C13.8725 16.5316 13.2806 16.033 13.2806 14.9653C13.2783 13.8998 13.8725 13.399 14.8879 13.399ZM5.1144 15.8076C5.79738 15.8076 6.0387 15.5709 6.0387 14.9061C6.0387 14.2504 5.78828 14.0046 5.1144 14.0046C4.43142 14.0046 4.1901 14.239 4.1901 14.9061C4.18782 15.5731 4.43142 15.8076 5.1144 15.8076ZM5.1144 13.3398C6.12977 13.3398 6.72396 13.8384 6.72396 14.9061C6.72396 15.9738 6.12977 16.4724 5.1144 16.4724C4.09903 16.4724 3.50484 15.9761 3.50484 14.9084C3.50484 13.8406 4.09676 13.3398 5.1144 13.3398ZM9.34889 9.465C9.56289 9.465 9.68811 9.572 9.68811 9.79738C9.68811 10.025 9.56061 10.1298 9.34889 10.1298C9.13489 10.1298 9.00968 10.025 9.00968 9.79738C9.00968 9.572 9.13489 9.465 9.34889 9.465Z" fill="#86888C"/>
</svg>
