<svg width="24" height="24" viewBox="0 0 24 24" fill="none" xmlns="http://www.w3.org/2000/svg">
<path fill-rule="evenodd" clip-rule="evenodd" d="M8.43908 16.8072C9.69104 16.8072 10.0353 16.3463 10.0353 14.6647C10.0353 13.609 9.88452 13.0457 9.52885 12.7782C9.29838 12.6046 8.94271 12.5193 8.43908 12.5193C7.93261 12.5193 7.57409 12.6046 7.34362 12.7811C6.9908 13.0514 6.84284 13.6119 6.84284 14.6618C6.84284 16.3491 7.18428 16.8072 8.43908 16.8072ZM8.44193 11.2446C7.36923 11.2446 7.36923 11.4608 7.36923 11.7653C7.36923 11.7738 7.36923 11.7766 7.37207 11.7823C7.67368 11.6799 8.02366 11.6258 8.43908 11.6258C8.85735 11.6258 9.20733 11.6827 9.51178 11.7852V11.7653C9.51178 11.4608 9.51178 11.2446 8.44193 11.2446ZM11.4523 13.905C11.6999 13.905 11.9019 14.107 11.9019 14.3545V14.9976C11.9019 15.2451 11.6999 15.4471 11.4523 15.4471C11.2048 15.4471 11.0027 15.248 11.0027 14.9976V14.8041H10.9288C10.9231 15.2679 10.8804 15.7118 10.7723 16.113L11.3698 16.2951C11.569 16.3548 11.6999 16.5426 11.6885 16.7475L11.6373 17.7149C11.623 17.9539 11.4267 18.1389 11.1877 18.1389H11.1649C10.9174 18.1246 10.7267 17.9141 10.741 17.6665L10.7723 17.0491L10.3796 16.9296C10.0154 17.3991 9.42357 17.7064 8.43624 17.7064C7.44605 17.7064 6.85422 17.3991 6.49001 16.9267L6.08313 17.0491L6.11443 17.6665C6.12865 17.9141 5.93801 18.1246 5.69047 18.1389H5.66486C5.42585 18.1389 5.22952 17.9539 5.21529 17.7149L5.16408 16.7475C5.1527 16.5426 5.28358 16.3548 5.48276 16.2951L6.09735 16.1101C5.99208 15.7089 5.9494 15.265 5.94371 14.8069H5.86973V15.0004C5.86973 15.248 5.66771 15.45 5.42016 15.45C5.17261 15.45 4.97059 15.2508 4.97059 15.0004V14.3574C4.97059 14.1098 5.17261 13.9078 5.42016 13.9078H5.96931C6.00346 13.5351 6.07744 13.1737 6.21401 12.8493L5.48276 12.6274C5.28358 12.5676 5.1527 12.3799 5.16408 12.175L5.21529 11.2047C5.22952 10.9572 5.43723 10.7694 5.68762 10.7808C5.93517 10.795 6.12581 11.0055 6.11158 11.2531L6.08028 11.8705L6.48432 11.9929C6.47579 11.9189 6.46725 11.8449 6.46725 11.7653C6.46725 10.3483 7.84725 10.3483 8.43908 10.3483C9.03092 10.3483 10.4109 10.3483 10.4109 11.7653C10.4109 11.8421 10.4024 11.9132 10.3938 11.9844L10.7723 11.8705L10.741 11.2531C10.7267 11.0055 10.9174 10.795 11.1649 10.7808C11.4153 10.7694 11.6259 10.9572 11.6373 11.2047L11.6885 12.175C11.6999 12.3799 11.569 12.5676 11.3698 12.6274L10.6528 12.8436C10.7922 13.168 10.8633 13.5351 10.9003 13.9078H11.4523V13.905ZM8.41347 13.1879C8.66102 13.1879 8.86304 13.3871 8.86304 13.6375V16.0447C8.86304 16.2922 8.66102 16.4942 8.41347 16.4942C8.16593 16.4942 7.96391 16.2951 7.96391 16.0447V13.6375C7.96106 13.39 8.16308 13.1879 8.41347 13.1879ZM19.1092 19.2457C19.866 19.0181 20.7709 18.6169 20.7709 18.0023V15.3703C20.3981 15.5951 19.9628 15.7886 19.4734 15.9365C18.3238 16.2808 16.8187 16.4715 15.2395 16.4715C15.0175 16.4715 14.8041 16.4572 14.5879 16.4516C14.5737 16.5398 14.5623 16.6308 14.5481 16.7133C14.3716 17.7234 13.5465 18.6909 12.5677 19.516C13.3786 19.6526 14.2806 19.7294 15.2253 19.7294C16.6849 19.7294 18.0649 19.5587 19.1092 19.2457ZM8.43908 20.7139C9.92151 19.9741 13.0599 18.1047 13.3388 16.5028C13.3729 16.3064 13.4042 16.076 13.4298 15.8313C13.4298 15.8142 13.4213 15.8 13.4241 15.7829C13.427 15.7601 13.4384 15.7431 13.4412 15.7203C13.5749 14.42 13.6262 12.6018 13.6432 11.3555C13.6375 11.3185 13.6233 11.2815 13.6262 11.2417C13.629 11.2133 13.6404 11.1905 13.6461 11.1649C13.6489 10.9714 13.6489 10.7921 13.6518 10.6385H13.6489C12.4482 10.6385 11.6913 10.1377 11.0084 9.68815C10.2999 9.21867 9.62844 8.77764 8.44193 8.77479H8.43908C7.25541 8.77479 6.58391 9.21867 5.87257 9.6853C5.184 10.1406 4.41859 10.647 3.24346 10.647H3.23208C3.24062 11.9957 3.29183 15.0573 3.54507 16.4999C3.79546 17.9482 6.57253 19.792 8.43908 20.7139ZM9.6825 6.2851V7.70494C10.5219 7.91265 11.1308 8.30531 11.6828 8.66951C12.434 9.16745 13.0315 9.56011 14.144 9.3837C14.3233 9.35809 14.5111 9.40646 14.6476 9.52027C14.7842 9.63693 14.8724 9.80196 14.8753 9.98122C14.8753 10.0239 14.8753 10.2885 14.8724 10.6812C14.9948 10.684 15.1143 10.6897 15.2366 10.6897C16.702 10.6897 18.0791 10.519 19.1177 10.206C20.0737 9.91862 20.5887 9.49467 20.768 9.18737V6.29933C20.4123 6.50704 19.9827 6.68915 19.4677 6.84279C18.3182 7.18708 16.8158 7.37772 15.2338 7.37772C13.6518 7.37772 12.1494 7.18708 10.9999 6.84279C10.482 6.6863 10.0439 6.49851 9.6825 6.2851ZM11.3442 3.7129C10.4764 3.97468 9.93289 4.31612 9.75933 4.68602C9.92436 5.05876 10.4764 5.40589 11.3556 5.67051C12.3941 5.98065 13.7713 6.15422 15.2366 6.15422C16.702 6.15422 18.0791 5.9835 19.1177 5.67335C19.9827 5.41443 20.5404 5.07014 20.7111 4.70024C20.5034 4.23076 19.7579 3.90923 19.1092 3.71575C18.0706 3.40561 16.6906 3.23204 15.2253 3.23204C13.7627 3.23204 12.3827 3.40276 11.3442 3.7129ZM14.8582 11.9018C14.8383 12.9148 14.7984 14.1582 14.7131 15.2309C14.8895 15.2366 15.0602 15.248 15.2366 15.248C16.702 15.248 18.0791 15.0773 19.1177 14.7643C20.0709 14.4769 20.5859 14.0529 20.768 13.7485V10.8121C20.3953 11.0368 19.9599 11.2303 19.4705 11.3783C18.321 11.7226 16.8158 11.9132 15.2366 11.9132C15.1086 11.9132 14.9862 11.9075 14.8582 11.9018ZM19.462 2.54346C21.1436 3.04709 21.9972 3.86086 21.9972 4.95632V18.0023C21.9972 19.0977 21.1436 19.9115 19.462 20.4151C18.3068 20.7594 16.8016 20.9501 15.2253 20.9501C13.7656 20.9501 12.3827 20.7822 11.2674 20.4834C10.0695 21.283 8.9484 21.8264 8.70085 21.9431C8.61834 21.9829 8.53013 22 8.43908 22C8.35088 22 8.25982 21.9801 8.17731 21.9402C7.62816 21.6813 2.7939 19.3367 2.33579 16.7076C1.98866 14.7273 2.00004 10.169 2.00004 9.97553C2.00004 9.78774 2.08825 9.61132 2.23336 9.49751C2.38132 9.38085 2.5748 9.34102 2.75691 9.3837C3.84952 9.55442 4.44136 9.16176 5.19253 8.66382C5.98354 8.14028 6.88267 7.54844 8.43624 7.54844H8.45615V4.95063C8.45615 4.77138 8.48176 4.59781 8.53013 4.42993C8.77199 3.59055 9.59999 2.95319 10.9914 2.53493C12.1409 2.19064 13.6461 2 15.2281 2C16.8073 2.00854 18.3125 2.19917 19.462 2.54346Z" fill="#86888C"/>
</svg>
