<svg width="28" height="28" viewBox="0 0 28 28" fill="none" xmlns="http://www.w3.org/2000/svg">
<path fill-rule="evenodd" clip-rule="evenodd" d="M22.5345 22.6846C21.2814 23.0568 19.6254 23.265 17.8738 23.265C16.7402 23.265 15.6578 23.1694 14.6847 23.009C15.8558 22.0188 16.846 20.8613 17.0577 19.6458C17.0748 19.5501 17.0884 19.4443 17.1055 19.3385C17.365 19.3487 17.6245 19.3589 17.8874 19.3589C19.7824 19.3589 21.5887 19.1302 22.9681 18.717C23.5588 18.5395 24.0812 18.3107 24.5251 18.0376V21.1959C24.5285 21.9334 23.4427 22.4114 22.5345 22.6846ZM3.85413 19.3931C3.77901 18.9629 3.71755 18.4166 3.66975 17.8088H8.93821V24.0299C7.02272 22.9748 4.14777 21.0627 3.85413 19.3931ZM3.4922 12.3696C4.90236 12.3696 5.82084 11.7618 6.64713 11.2155C7.3266 10.7682 7.98217 10.3449 8.93821 10.1878V16.3406H3.58098C3.50927 14.8382 3.48537 13.2813 3.47854 12.3662H3.4922V12.3696ZM11.2225 7.12847C11.6561 7.38796 12.1819 7.61332 12.8068 7.7977C14.1862 8.21084 15.989 8.43961 17.8874 8.43961C19.7824 8.43961 21.5887 8.21084 22.9681 7.7977C23.5861 7.61332 24.1051 7.39479 24.5285 7.14554V10.6146C24.31 10.9834 23.6954 11.4921 22.5481 11.837C21.1994 12.2433 19.3215 12.4481 17.4538 12.4072C17.4572 11.9326 17.4572 11.615 17.4572 11.5638C17.4572 11.3487 17.3479 11.1507 17.184 11.0107C17.0202 10.8741 16.7948 10.8195 16.5797 10.8468C15.2412 11.0551 14.5276 10.5873 13.6262 9.98976C12.9638 9.55271 12.2365 9.08152 11.2259 8.83227V7.12847H11.2225ZM13.2165 4.04524C14.4627 3.67307 16.1187 3.46479 17.8738 3.46479C19.6322 3.46479 21.2882 3.66965 22.5345 4.04524C23.3095 4.27742 24.2041 4.66325 24.4568 5.23005C24.2519 5.67051 23.5827 6.08365 22.5447 6.39778C21.2984 6.76995 19.6458 6.97482 17.8874 6.97482C16.129 6.97482 14.4764 6.76995 13.2301 6.39437C12.1785 6.08024 11.5127 5.66026 11.3146 5.21297C11.5229 4.77251 12.1751 4.35937 13.2165 4.04524ZM17.4333 13.8754C17.5835 13.8788 17.7338 13.8856 17.8874 13.8856C19.7824 13.8856 21.5887 13.6568 22.9681 13.2437C23.5588 13.0662 24.0812 12.834 24.5251 12.5642V16.0879C24.3065 16.4533 23.6885 16.9654 22.5447 17.3103C21.2984 17.6825 19.6458 17.8907 17.8874 17.8907C17.6757 17.8907 17.4674 17.8805 17.2592 17.8737C17.3616 16.5864 17.4094 15.0909 17.4333 13.8754ZM10.4098 10.1707C11.4273 10.3107 12.1034 10.7512 12.8102 11.2155C13.6262 11.755 14.5379 12.356 15.9753 12.356H15.9788C15.9719 13.2642 15.948 14.8348 15.8763 16.3406H10.4064V10.1707H10.4098ZM10.4098 24.0913V17.8088H15.791C15.7432 18.4166 15.6851 18.9629 15.61 19.3931C15.3129 21.0969 12.3253 23.0465 10.4098 24.0913ZM22.9578 2.64191C21.5784 2.22877 19.7722 2 17.8738 2C15.9753 2 14.1725 2.22877 12.7897 2.64191C11.12 3.14383 10.1264 3.90866 9.8362 4.91592C9.77816 5.11396 9.74743 5.32565 9.74743 5.54076V8.65472H9.72353C7.85925 8.65472 6.78371 9.36492 5.83108 9.99317C4.92967 10.5907 4.2263 11.0687 2.91516 10.8604C2.69664 10.8058 2.46446 10.8536 2.28349 10.9936C2.10594 11.1336 2.0001 11.3453 2.0001 11.5706C2.0001 11.8028 1.98302 17.2727 2.403 19.6492C2.95614 22.8041 8.75383 25.6176 9.41281 25.9283C9.51183 25.9761 9.62109 26 9.72694 26C9.8362 26 9.94205 25.9761 10.0411 25.9317C10.3381 25.7917 11.6834 25.1396 13.1209 24.1801C14.4627 24.5352 16.1222 24.7401 17.8703 24.7401C19.7619 24.7401 21.5648 24.5113 22.9544 24.0982C24.9724 23.4904 25.9933 22.5173 25.9933 21.2027V5.54759C26.0001 4.22279 24.9758 3.24968 22.9578 2.64191Z" fill="#86888C"/>
</svg>
