<svg width="28" height="28" viewBox="0 0 28 28" fill="none" xmlns="http://www.w3.org/2000/svg">
<path fill-rule="evenodd" clip-rule="evenodd" d="M19.3785 17.5413V13.2521C19.3785 12.5692 19.0097 11.6505 17.2032 11.1178C15.3489 10.5646 12.255 10.5646 10.387 11.1178C9.20888 11.473 8.49175 12.0262 8.28002 12.7775C8.2288 12.9277 8.20831 13.0848 8.20831 13.2521V17.5993H7.31019C6.16278 17.5993 3.49915 17.2339 3.49915 13.8532C3.49915 11.9545 4.32897 10.7592 5.95447 10.2948C6.27547 10.206 6.49402 9.91918 6.49402 9.58452L6.48378 9.45475C6.48378 3.90211 11.3842 3.47866 12.8902 3.47866C13.7371 3.47866 18.0398 3.66648 19.0472 7.41264C19.136 7.73022 19.416 7.95561 19.7575 7.96585C21.185 8.00683 24.5077 8.5498 24.5077 12.7399C24.5077 17.1861 20.7376 17.531 19.58 17.531L19.3785 17.5413ZM10.8241 12.5418C11.613 12.3062 12.6716 12.1764 13.7985 12.1764C14.9152 12.1764 15.9738 12.3062 16.7729 12.5316C17.2715 12.6921 17.6232 12.8697 17.7906 13.0575C17.6403 13.2043 17.333 13.3956 16.7729 13.5629C15.1952 14.0376 12.4121 14.0376 10.8344 13.5629C10.2641 13.3956 9.9465 13.1975 9.80649 13.0507C9.95674 12.8867 10.2675 12.7023 10.8241 12.5418ZM17.8793 16.4758C17.7598 16.6431 17.4286 16.9095 16.7695 17.1007C15.1918 17.5754 12.4087 17.5754 10.831 17.1007C10.1309 16.8924 9.82356 16.6466 9.70063 16.4963V14.7171C9.90894 14.8162 10.1412 14.905 10.3904 14.9835C11.3159 15.2499 12.5248 15.4069 13.7951 15.4069C15.062 15.4069 16.2675 15.2601 17.1964 14.9835C17.4559 14.905 17.6779 14.8162 17.8759 14.7274V16.4758H17.8793ZM17.8793 20.0307C17.7598 20.1981 17.4286 20.4644 16.7695 20.6522C15.1918 21.1269 12.4087 21.1269 10.831 20.6522C10.1309 20.4439 9.81332 20.1981 9.70063 20.0512V18.2618C9.90894 18.3506 10.1411 18.4394 10.4007 18.5179C11.3193 18.7945 12.5248 18.9414 13.8054 18.9414C15.062 18.9414 16.2777 18.7945 17.21 18.5179C17.4491 18.4496 17.6676 18.3608 17.8793 18.2618V20.0307ZM17.8793 23.4422C17.8793 23.6779 17.4593 23.9476 16.7695 24.1525C15.1747 24.6272 12.4087 24.6272 10.8207 24.1525C10.1343 23.9442 9.70404 23.6779 9.70404 23.4422V21.8236C9.91235 21.9123 10.1446 22.0011 10.4041 22.0797C11.3227 22.3563 12.5282 22.5031 13.8088 22.5031C15.0655 22.5031 16.2812 22.3563 17.2134 22.0797C17.4525 22.0114 17.671 21.9192 17.8828 21.8236V23.4422H17.8793ZM12.8902 2C11.5925 2 5.23734 2.34491 4.99488 9.06545C3.68697 9.57769 2 10.8344 2 13.8566C2 17.7086 4.74559 19.0848 7.31019 19.0848H8.20831V23.4422C8.20831 24.115 8.58736 25.0336 10.3939 25.5766C11.3193 25.8532 12.5282 26 13.7985 26C15.0552 26 16.2641 25.8532 17.1998 25.5766C19.0063 25.0336 19.3751 24.115 19.3751 23.4422V19.0268L19.5731 19.0165C22.5373 19.0165 26 17.3773 26 12.7433C26 8.5259 23.1656 6.78429 20.3312 6.51793C18.8082 2.21855 13.8907 2 12.8902 2Z" fill="#86888C"/>
</svg>
