<svg width="20" height="20" viewBox="0 0 20 20" fill="none" xmlns="http://www.w3.org/2000/svg">
<path fill-rule="evenodd" clip-rule="evenodd" d="M14.9317 15.5777C15.321 15.5777 15.4599 15.4365 15.4599 15.0427C15.4599 14.6488 15.321 14.5077 14.9317 14.5077C14.5424 14.5077 14.4035 14.6488 14.4035 15.0427C14.4058 15.4365 14.5424 15.5777 14.9317 15.5777ZM14.9317 13.7018C15.7627 13.7018 16.2567 14.2026 16.2567 15.0427C16.2567 15.8828 15.7604 16.3836 14.9317 16.3836C14.103 16.3836 13.6067 15.8828 13.6067 15.0427C13.6067 14.2026 14.103 13.7018 14.9317 13.7018ZM14.9317 10.5373C15.321 10.5373 15.4599 10.3961 15.4599 10.0023C15.4599 9.60842 15.321 9.46727 14.9317 9.46727C14.5424 9.46727 14.4035 9.60842 14.4035 10.0023C14.4058 10.3984 14.5424 10.5373 14.9317 10.5373ZM14.9317 8.66136C15.7627 8.66136 16.2567 9.16221 16.2567 10.0023C16.2567 10.8423 15.7604 11.3432 14.9317 11.3432C14.103 11.3432 13.6067 10.8423 13.6067 10.0023C13.6067 9.16449 14.103 8.66136 14.9317 8.66136ZM14.9476 4.43142C14.5583 4.43142 14.4195 4.57257 14.4195 4.96642C14.4195 5.36027 14.5583 5.50142 14.9476 5.50142C15.3369 5.50142 15.4758 5.36027 15.4758 4.96642C15.4758 4.57029 15.3369 4.43142 14.9476 4.43142ZM14.9476 6.30734C14.1167 6.30734 13.6226 5.80649 13.6226 4.96642C13.6226 4.12635 14.1189 3.6255 14.9476 3.6255C15.7763 3.6255 16.2726 4.12635 16.2726 4.96642C16.2726 5.80421 15.7786 6.30734 14.9476 6.30734ZM16.901 16.8093L16.9055 13.185C16.9055 13.0848 16.8258 13.0051 16.7257 13.0051H3.0865C2.98861 13.0051 2.90893 13.0871 2.90893 13.1873L2.90437 16.8116C2.90437 16.9118 2.98406 16.9915 3.08423 16.9915H16.7234C16.8213 16.9892 16.901 16.9072 16.901 16.8093ZM2.90893 3.19067L2.90437 6.81503C2.90437 6.91292 2.98406 6.99715 3.08423 6.99715H16.7234C16.8236 6.99715 16.9032 6.9152 16.9032 6.81503L16.9078 3.19067C16.9078 3.0905 16.8281 3.01081 16.7279 3.01081H3.0865C2.98861 3.01081 2.90893 3.0905 2.90893 3.19067ZM3.08195 11.992H16.7211C16.8213 11.992 16.901 11.9101 16.901 11.8099L16.9055 8.18554C16.9055 8.08537 16.8258 8.00569 16.7257 8.00569H3.0865C2.98861 8.00569 2.90893 8.08537 2.90893 8.18554L2.90437 11.8099C2.90437 11.9124 2.98406 11.992 3.08195 11.992ZM17.9049 8.18782L17.9004 11.8122C17.9004 12.0672 17.8184 12.3017 17.6841 12.4952C17.8207 12.691 17.9049 12.9277 17.9049 13.185L17.9004 16.8093C17.9004 17.465 17.3722 18 16.7211 18H3.08195C2.43312 18 1.90494 17.465 1.90494 16.8093L1.9095 13.185C1.9095 12.93 1.98918 12.6955 2.1235 12.502C1.9869 12.3062 1.90267 12.0694 1.90267 11.8122L1.90722 8.18782C1.90722 7.93284 1.9869 7.69835 2.12122 7.50484C1.98463 7.30905 1.90039 7.07228 1.90039 6.81503L1.90494 3.19067C1.90494 2.535 2.43312 2 3.08195 2H16.7211C17.3699 2 17.8981 2.535 17.8981 3.19067L17.8936 6.81503C17.8936 7.07001 17.8139 7.3045 17.6773 7.49801C17.8207 7.6938 17.9049 7.93056 17.9049 8.18782ZM4.13147 5.46955C3.856 5.46955 3.63289 5.24417 3.63289 4.96414C3.63289 4.68412 3.856 4.45874 4.13147 4.45874H8.7507C9.02617 4.45874 9.24928 4.68412 9.24928 4.96414C9.24928 5.24417 9.02617 5.46955 8.7507 5.46955H4.13147ZM8.7507 9.49915C9.02617 9.49915 9.24928 9.72453 9.24928 10.0046C9.24928 10.2823 9.02617 10.51 8.7507 10.51H4.13147C3.856 10.51 3.63289 10.2846 3.63289 10.0046C3.63289 9.72453 3.856 9.49915 4.13147 9.49915H8.7507ZM8.7507 14.5692C9.02617 14.5692 9.24928 14.7945 9.24928 15.0746C9.24928 15.3546 9.02617 15.58 8.7507 15.58H4.13147C3.856 15.58 3.63289 15.3546 3.63289 15.0746C3.63289 14.7945 3.856 14.5692 4.13147 14.5692H8.7507Z" fill="#86888C"/>
</svg>
