<svg width="20" height="20" viewBox="0 0 20 20" fill="none" xmlns="http://www.w3.org/2000/svg">
<path fill-rule="evenodd" clip-rule="evenodd" d="M16.7048 11.6628H14.6152C14.7608 10.9071 14.8451 10.099 14.8451 9.24541C14.8451 8.54204 14.7927 7.87736 14.6926 7.24456H16.8027C16.9347 7.85688 17.0075 8.52155 17.0075 9.25907C17.0098 10.1582 16.9028 10.9595 16.7048 11.6628ZM13.0468 15.248C13.6068 14.5833 14.062 13.6978 14.3716 12.6416H16.3429C15.7032 13.9641 14.6038 14.8291 13.0468 15.248ZM11.1484 15.4551V12.6462H13.3427C12.8624 14.1212 12.0726 15.1706 11.1484 15.4551ZM11.1484 7.24456H13.6864C13.798 7.87509 13.8572 8.54887 13.8572 9.24541C13.8572 10.099 13.7707 10.9185 13.6136 11.6628L11.1484 11.6697V7.24456ZM11.1484 3.06302C12.1568 3.37032 13.0081 4.58131 13.4747 6.26803H11.1484V3.06302ZM16.509 6.26803H14.5059C14.2032 5.05022 13.716 4.01906 13.0946 3.277C14.7677 3.73908 15.9149 4.74292 16.509 6.26803ZM10.1605 6.26803H7.66112C8.18239 4.59952 9.11111 3.36122 10.1605 3.0562V6.26803ZM10.1605 11.6697H8.76967V10.3471C8.76967 9.92374 8.53976 9.35695 7.43121 9.02461C7.3652 9.00413 7.29236 8.99047 7.22635 8.97909C7.24001 8.38042 7.30602 7.79997 7.41756 7.24456H10.1605V11.6697ZM10.1605 15.5143C9.70522 15.4961 9.26362 15.4619 8.85617 15.3845C8.82885 15.3845 8.79698 15.3914 8.76967 15.3914V12.6485H10.1605V15.5143ZM7.78176 12.2501C7.69526 12.348 7.49723 12.4914 7.15578 12.5961C6.2134 12.8693 4.56537 12.8693 3.62982 12.5961C3.26106 12.4846 3.06302 12.348 2.99018 12.2638V11.2872C3.10172 11.3328 3.21326 11.3783 3.34528 11.417C3.89842 11.5854 4.63138 11.6788 5.38939 11.6788C6.15422 11.6788 6.87808 11.5877 7.44032 11.417C7.56551 11.3828 7.67022 11.3396 7.78404 11.2941V12.2501H7.78176ZM7.78176 14.3739C7.69526 14.4718 7.49723 14.6152 7.15578 14.7199C6.2134 14.993 4.56537 14.993 3.62982 14.7199C3.23602 14.6038 3.0562 14.4672 2.99018 14.3875V13.3974C3.10172 13.4429 3.21326 13.4952 3.34528 13.5271C3.89842 13.6978 4.63138 13.7889 5.38939 13.7889C6.15422 13.7889 6.87808 13.6978 7.44032 13.5271C7.55869 13.4952 7.67022 13.4497 7.78404 13.3974V14.3739H7.78176ZM7.78176 16.4203C7.78176 16.5181 7.58372 16.6729 7.14895 16.805C6.19974 17.0781 4.56537 17.0781 3.62299 16.805C3.18822 16.6729 2.99018 16.5181 2.99018 16.4203V15.5211C3.10172 15.5667 3.21326 15.6122 3.34528 15.6509C3.89842 15.8193 4.63138 15.9126 5.38939 15.9126C6.15422 15.9126 6.87808 15.8216 7.44032 15.6509C7.55869 15.6167 7.67022 15.5667 7.78404 15.5211V16.4203H7.78176ZM3.62071 9.96244C4.55627 9.68246 6.21113 9.68246 7.14668 9.96244C7.43121 10.0467 7.60876 10.1445 7.69981 10.2219C7.62014 10.2925 7.46308 10.3858 7.14668 10.4814C6.21113 10.7546 4.5631 10.7546 3.62754 10.4814C3.3248 10.3904 3.15863 10.2925 3.07441 10.2151C3.1609 10.1445 3.3248 10.0535 3.62071 9.96244ZM4.51074 7.24456H6.40233C6.31583 7.75217 6.26348 8.27344 6.24527 8.81519C5.61246 8.76284 4.93413 8.76284 4.31953 8.8334C4.34002 8.26889 4.3992 7.73396 4.51074 7.24456ZM8.13003 3.30431C7.47674 4.05321 6.95775 5.07754 6.62769 6.27031H4.80211C5.38711 4.77024 6.50249 3.77778 8.13003 3.30431ZM17.6881 6.71646C17.6813 6.65272 17.6608 6.58671 17.629 6.53436C16.7663 3.58885 14.3671 2 10.6544 2C5.93569 2 3.40447 4.43107 3.3248 9.03144C2.60549 9.24541 2.17072 9.59141 2.0387 10.0489V10.0558C2.01138 10.1468 2 10.2447 2 10.3494V16.4225C2 16.8391 2.2299 17.4127 3.33845 17.7382C3.89842 17.9089 4.62456 18 5.38256 18C6.14056 18 6.87125 17.9089 7.43349 17.7382C8.54204 17.4127 8.77194 16.8391 8.77194 16.4225V16.3634C9.35923 16.4612 9.9852 16.5136 10.6567 16.5136C15.4619 16.5136 18 14.0051 18 9.26135C17.9977 8.32807 17.893 7.48129 17.6881 6.71646Z" fill="#86888C"/>
</svg>
