<svg width="40" height="40" viewBox="0 0 40 40" fill="none" xmlns="http://www.w3.org/2000/svg">
<path fill-rule="evenodd" clip-rule="evenodd" d="M28.0677 25.3119V18.8782C28.0677 17.8537 27.5145 16.4758 24.8048 15.6767C22.0233 14.8469 17.3825 14.8469 14.5805 15.6767C12.8133 16.2094 11.7376 17.0393 11.42 18.1662C11.3432 18.3916 11.3125 18.6272 11.3125 18.8782V25.399H9.96528C8.24417 25.399 4.24872 24.8509 4.24872 19.7797C4.24872 16.9317 5.49345 15.1389 7.9317 14.4422C8.4132 14.309 8.74104 13.8788 8.74104 13.3768L8.72567 13.1821C8.72567 4.85316 16.0763 4.21799 18.3352 4.21799C19.6056 4.21799 26.0598 4.49972 27.5709 10.119C27.704 10.5953 28.1241 10.9334 28.6363 10.9488C30.7775 11.0102 35.7615 11.8247 35.7615 18.1098C35.7615 24.7792 30.1064 25.2965 28.3699 25.2965L28.0677 25.3119ZM15.2362 17.8127C16.4195 17.4593 18.0074 17.2647 19.6978 17.2647C21.3728 17.2647 22.9607 17.4593 24.1594 17.7974C24.9072 18.0381 25.4348 18.3045 25.6858 18.5862C25.4604 18.8065 24.9994 19.0933 24.1594 19.3443C21.7928 20.0563 17.6181 20.0563 15.2516 19.3443C14.3961 19.0933 13.9198 18.7962 13.7097 18.576C13.9351 18.3301 14.4013 18.0535 15.2362 17.8127ZM25.819 23.7137C25.6397 23.9647 25.1429 24.3643 24.1542 24.6511C21.7877 25.3631 17.613 25.3631 15.2464 24.6511C14.1964 24.3386 13.7353 23.9698 13.5509 23.7445V21.0757C13.8634 21.2242 14.2117 21.3574 14.5857 21.4752C15.9738 21.8748 17.7871 22.1104 19.6927 22.1104C21.5931 22.1104 23.4013 21.8902 24.7945 21.4752C25.1838 21.3574 25.5168 21.2242 25.8139 21.0911V23.7137H25.819ZM25.819 29.0461C25.6397 29.2971 25.1429 29.6966 24.1542 29.9784C21.7877 30.6904 17.613 30.6904 15.2464 29.9784C14.1964 29.6659 13.72 29.2971 13.5509 29.0768V26.3927C13.8634 26.5259 14.2117 26.6591 14.601 26.7769C15.9789 27.1918 17.7871 27.4121 19.708 27.4121C21.5931 27.4121 23.4166 27.1918 24.815 26.7769C25.1736 26.6744 25.5014 26.5413 25.819 26.3927V29.0461ZM25.819 34.1633C25.819 34.5168 25.189 34.9215 24.1542 35.2288C21.7621 35.9408 17.613 35.9408 15.2311 35.2288C14.2015 34.9163 13.5561 34.5168 13.5561 34.1633V31.7353C13.8685 31.8685 14.2168 32.0017 14.6061 32.1195C15.9841 32.5344 17.7923 32.7547 19.7131 32.7547C21.5982 32.7547 23.4217 32.5344 24.8201 32.1195C25.1787 32.0171 25.5065 31.8788 25.8241 31.7353V34.1633H25.819ZM18.3352 2C16.3887 2 6.856 2.51736 6.49232 12.5982C4.53045 13.3665 2 15.2516 2 19.7849C2 25.5629 6.11838 27.6272 9.96528 27.6272H11.3125V34.1633C11.3125 35.1725 11.881 36.5504 14.5908 37.3648C15.9789 37.7797 17.7923 38 19.6978 38C21.5828 38 23.3961 37.7797 24.7997 37.3648C27.5094 36.5504 28.0626 35.1725 28.0626 34.1633V27.5401L28.3597 27.5248C32.8059 27.5248 38 25.066 38 18.115C38 11.7888 33.7484 9.17644 29.4969 8.77689C27.2123 2.32783 19.8361 2 18.3352 2Z" fill="#86888C"/>
</svg>
