<svg width="20" height="20" viewBox="0 0 20 20" fill="none" xmlns="http://www.w3.org/2000/svg">
<path fill-rule="evenodd" clip-rule="evenodd" d="M7.15127 13.8458C8.15283 13.8458 8.42826 13.477 8.42826 12.1317C8.42826 11.2872 8.30762 10.8365 8.02308 10.6226C7.8387 10.4837 7.55417 10.4154 7.15127 10.4154C6.74609 10.4154 6.45927 10.4837 6.2749 10.6248C5.99264 10.8411 5.87427 11.2895 5.87427 12.1295C5.87427 13.4793 6.14742 13.8458 7.15127 13.8458ZM7.15354 9.39565C6.29538 9.39565 6.29538 9.56864 6.29538 9.81221C6.29538 9.81904 6.29538 9.82131 6.29766 9.82586C6.53894 9.74392 6.81893 9.70067 7.15127 9.70067C7.48588 9.70067 7.76586 9.74619 8.00942 9.82814V9.81221C8.00942 9.56864 8.00942 9.39565 7.15354 9.39565ZM9.56185 11.524C9.75989 11.524 9.9215 11.6856 9.9215 11.8836V12.3981C9.9215 12.5961 9.75989 12.7577 9.56185 12.7577C9.36381 12.7577 9.2022 12.5984 9.2022 12.3981V12.2433H9.14301C9.13846 12.6143 9.10432 12.9694 9.01782 13.2904L9.49584 13.4361C9.65518 13.4839 9.75989 13.6341 9.75078 13.798L9.70981 14.5719C9.69843 14.7631 9.54136 14.9111 9.35016 14.9111H9.33195C9.13391 14.8997 8.9814 14.7313 8.99278 14.5332L9.01782 14.0393L8.70369 13.9437C8.41233 14.3192 7.93886 14.5651 7.14899 14.5651C6.35684 14.5651 5.88338 14.3192 5.59201 13.9414L5.2665 14.0393L5.29154 14.5332C5.30292 14.7313 5.15041 14.8997 4.95237 14.9111H4.93189C4.74068 14.9111 4.58362 14.7631 4.57224 14.5719L4.53126 13.798C4.52216 13.6341 4.62687 13.4839 4.78621 13.4361L5.27788 13.2881C5.19366 12.9671 5.15952 12.612 5.15496 12.2456H5.09578V12.4003C5.09578 12.5984 4.93416 12.76 4.73613 12.76C4.53809 12.76 4.37648 12.6007 4.37648 12.4003V11.8859C4.37648 11.6879 4.53809 11.5262 4.73613 11.5262H5.17545C5.20277 11.2281 5.26195 10.939 5.37121 10.6795L4.78621 10.5019C4.62687 10.4541 4.52216 10.3039 4.53126 10.14L4.57224 9.36378C4.58362 9.16574 4.74979 9.01551 4.9501 9.02461C5.14814 9.03599 5.30065 9.20444 5.28926 9.40248L5.26423 9.89643L5.58746 9.99431C5.58063 9.93513 5.5738 9.87594 5.5738 9.81221C5.5738 8.67862 6.6778 8.67862 7.15127 8.67862C7.62473 8.67862 8.72873 8.67862 8.72873 9.81221C8.72873 9.87367 8.7219 9.93057 8.71507 9.98748L9.01782 9.89643L8.99278 9.40248C8.9814 9.20444 9.13391 9.03599 9.33195 9.02461C9.53226 9.01551 9.7007 9.16574 9.70981 9.36378L9.75078 10.14C9.75989 10.3039 9.65518 10.4541 9.49584 10.5019L8.92221 10.6749C9.03375 10.9344 9.09066 11.2281 9.12025 11.5262H9.56185V11.524ZM7.13078 10.9503C7.32882 10.9503 7.49043 11.1097 7.49043 11.31V13.2357C7.49043 13.4338 7.32882 13.5954 7.13078 13.5954C6.93274 13.5954 6.77113 13.4361 6.77113 13.2357V11.31C6.76885 11.112 6.93047 10.9503 7.13078 10.9503ZM15.6873 15.7966C16.2928 15.6145 17.0167 15.2935 17.0167 14.8018V12.6963C16.7185 12.8761 16.3702 13.0309 15.9787 13.1492C15.0591 13.4247 13.8549 13.5772 12.5916 13.5772C12.414 13.5772 12.2433 13.5658 12.0703 13.5612C12.0589 13.6318 12.0498 13.7047 12.0384 13.7707C11.8973 14.5787 11.2372 15.3527 10.4542 16.0128C11.1029 16.1221 11.8245 16.1835 12.5802 16.1835C13.7479 16.1835 14.8519 16.0469 15.6873 15.7966ZM7.15127 16.9711C8.33721 16.3793 10.848 14.8838 11.071 13.6022C11.0983 13.4452 11.1234 13.2608 11.1439 13.065C11.1439 13.0514 11.137 13.04 11.1393 13.0263C11.1416 13.0081 11.1507 12.9945 11.153 12.9762C11.26 11.936 11.3009 10.4814 11.3146 9.48442C11.31 9.45483 11.2987 9.42524 11.3009 9.39337C11.3032 9.37061 11.3123 9.3524 11.3169 9.33191C11.3191 9.17712 11.3191 9.03372 11.3214 8.9108H11.3191C10.3586 8.9108 9.75306 8.51017 9.20675 8.15052C8.63996 7.77493 8.10275 7.42211 7.15354 7.41983H7.15127C6.20433 7.41983 5.66713 7.77493 5.09806 8.14824C4.5472 8.51245 3.93488 8.91763 2.99477 8.91763H2.98567C2.99249 9.99659 3.03347 12.4459 3.23606 13.5999C3.43637 14.7586 5.65802 16.2336 7.15127 16.9711ZM8.146 5.42808V6.56395C8.81751 6.73012 9.30463 7.04425 9.74623 7.33561C10.3472 7.73396 10.8252 8.04809 11.7152 7.90696C11.8586 7.88647 12.0089 7.92517 12.1181 8.01622C12.2274 8.10955 12.2979 8.24157 12.3002 8.38498C12.3002 8.41912 12.3002 8.63082 12.2979 8.94494C12.3958 8.94722 12.4914 8.95177 12.5893 8.95177C13.7616 8.95177 14.8633 8.81519 15.6942 8.5648C16.459 8.3349 16.871 7.99573 17.0144 7.74989V5.43947C16.7299 5.60563 16.3862 5.75132 15.9741 5.87424C15.0545 6.14967 13.8526 6.30218 12.587 6.30218C11.3214 6.30218 10.1195 6.14967 9.19992 5.87424C8.78564 5.74904 8.43509 5.59881 8.146 5.42808ZM9.47535 3.37032C8.78109 3.57974 8.34631 3.8529 8.20746 4.14881C8.33949 4.44701 8.78108 4.72471 9.48446 4.93641C10.3153 5.18452 11.417 5.32337 12.5893 5.32337C13.7616 5.32337 14.8633 5.1868 15.6942 4.93868C16.3861 4.73154 16.8323 4.45611 16.9689 4.16019C16.8027 3.78461 16.2063 3.52739 15.6873 3.3726C14.8565 3.12448 13.7525 2.98563 12.5802 2.98563C11.4102 2.98563 10.3062 3.12221 9.47535 3.37032ZM12.2866 9.92147C12.2706 10.7318 12.2388 11.7266 12.1705 12.5847C12.3116 12.5893 12.4482 12.5984 12.5893 12.5984C13.7616 12.5984 14.8633 12.4618 15.6942 12.2114C16.4567 11.9815 16.8687 11.6423 17.0144 11.3988V9.04965C16.7162 9.22948 16.3679 9.38426 15.9764 9.50263C15.0568 9.77806 13.8526 9.93057 12.5893 9.93057C12.4869 9.93057 12.389 9.92602 12.2866 9.92147ZM15.9696 2.43477C17.3149 2.83767 17.9978 3.48869 17.9978 4.36506V14.8018C17.9978 15.6782 17.3149 16.3292 15.9696 16.7321C15.0454 17.0075 13.8413 17.1601 12.5802 17.1601C11.4125 17.1601 10.3062 17.0258 9.41389 16.7867C8.45558 17.4264 7.55872 17.8611 7.36068 17.9545C7.29467 17.9863 7.22411 18 7.15127 18C7.0807 18 7.00786 17.9841 6.94185 17.9522C6.50252 17.7451 2.63512 15.8694 2.26864 13.7661C1.99093 12.1818 2.00003 8.53521 2.00003 8.38042C2.00003 8.23019 2.0706 8.08906 2.18669 7.99801C2.30506 7.90468 2.45984 7.87281 2.60553 7.90696C3.47962 8.04353 3.95309 7.72941 4.55403 7.33106C5.18683 6.91222 5.90614 6.43875 7.14899 6.43875H7.16492V4.36051C7.16492 4.2171 7.18541 4.07825 7.22411 3.94395C7.41759 3.27244 8.07999 2.76256 9.19309 2.42794C10.1127 2.15251 11.3169 2 12.5825 2C13.8458 2.00683 15.05 2.15934 15.9696 2.43477Z" fill="#86888C"/>
</svg>
