<svg width="40" height="40" viewBox="0 0 40 40" fill="none" xmlns="http://www.w3.org/2000/svg">
<path fill-rule="evenodd" clip-rule="evenodd" d="M31.2208 32.5498C32.0967 32.5498 32.4092 32.2322 32.4092 31.346C32.4092 30.4599 32.0967 30.1423 31.2208 30.1423C30.3449 30.1423 30.0324 30.4599 30.0324 31.346C30.0376 32.2322 30.3449 32.5498 31.2208 32.5498ZM31.2208 28.329C33.0905 28.329 34.202 29.4559 34.202 31.346C34.202 33.2362 33.0854 34.3631 31.2208 34.3631C29.3563 34.3631 28.2396 33.2362 28.2396 31.346C28.2396 29.4559 29.3563 28.329 31.2208 28.329ZM31.2208 21.2089C32.0967 21.2089 32.4092 20.8913 32.4092 20.0051C32.4092 19.119 32.0967 18.8014 31.2208 18.8014C30.3449 18.8014 30.0324 19.119 30.0324 20.0051C30.0376 20.8964 30.3449 21.2089 31.2208 21.2089ZM31.2208 16.988C33.0905 16.988 34.202 18.115 34.202 20.0051C34.202 21.8953 33.0854 23.0222 31.2208 23.0222C29.3563 23.0222 28.2396 21.8953 28.2396 20.0051C28.2396 18.1201 29.3563 16.988 31.2208 16.988ZM31.2567 7.47069C30.3808 7.47069 30.0683 7.78828 30.0683 8.67445C30.0683 9.56061 30.3808 9.8782 31.2567 9.8782C32.1326 9.8782 32.4451 9.56061 32.4451 8.67445C32.4451 7.78315 32.1326 7.47069 31.2567 7.47069ZM31.2567 11.6915C29.387 11.6915 28.2755 10.5646 28.2755 8.67445C28.2755 6.78429 29.3921 5.65737 31.2567 5.65737C33.1212 5.65737 34.2379 6.78429 34.2379 8.67445C34.2379 10.5595 33.1263 11.6915 31.2567 11.6915ZM35.6517 35.321L35.6619 27.1662C35.6619 26.9408 35.4826 26.7615 35.2572 26.7615H4.56914C4.34888 26.7615 4.1696 26.9459 4.1696 27.1713L4.15935 35.3261C4.15935 35.5515 4.33864 35.7308 4.56402 35.7308H35.2521C35.4724 35.7257 35.6517 35.5413 35.6517 35.321ZM4.1696 4.679L4.15935 12.8338C4.15935 13.0541 4.33864 13.2436 4.56402 13.2436H35.2521C35.4775 13.2436 35.6568 13.0592 35.6568 12.8338L35.667 4.679C35.667 4.45361 35.4878 4.27433 35.2624 4.27433H4.56914C4.34888 4.27433 4.1696 4.45361 4.1696 4.679ZM4.5589 24.4821H35.247C35.4724 24.4821 35.6517 24.2977 35.6517 24.0723L35.6619 15.9175C35.6619 15.6921 35.4826 15.5128 35.2572 15.5128H4.56914C4.34888 15.5128 4.1696 15.6921 4.1696 15.9175L4.15935 24.0723C4.15935 24.3028 4.33864 24.4821 4.5589 24.4821ZM37.9106 15.9226L37.9004 24.0774C37.9004 24.6511 37.716 25.1787 37.4138 25.6141C37.7211 26.0546 37.9106 26.5874 37.9106 27.1662L37.9004 35.321C37.9004 36.7962 36.712 38 35.247 38H4.5589C3.09902 38 1.91064 36.7962 1.91064 35.321L1.92088 27.1662C1.92088 26.5925 2.10016 26.0649 2.40238 25.6295C2.09504 25.189 1.90551 24.6562 1.90551 24.0774L1.91576 15.9226C1.91576 15.3489 2.09504 14.8213 2.39726 14.3859C2.08992 13.9454 1.90039 13.4126 1.90039 12.8338L1.91064 4.679C1.91064 3.20376 3.09902 2 4.5589 2H35.247C36.7069 2 37.8953 3.20376 37.8953 4.679L37.885 12.8338C37.885 13.4075 37.7057 13.9351 37.3984 14.3705C37.7211 14.811 37.9106 15.3438 37.9106 15.9226ZM6.92031 9.80649C6.3005 9.80649 5.79851 9.29937 5.79851 8.66932C5.79851 8.03927 6.3005 7.53216 6.92031 7.53216H17.3136C17.9334 7.53216 18.4354 8.03927 18.4354 8.66932C18.4354 9.29937 17.9334 9.80649 17.3136 9.80649H6.92031ZM17.3136 18.8731C17.9334 18.8731 18.4354 19.3802 18.4354 20.0102C18.4354 20.6352 17.9334 21.1474 17.3136 21.1474H6.92031C6.3005 21.1474 5.79851 20.6403 5.79851 20.0102C5.79851 19.3802 6.3005 18.8731 6.92031 18.8731H17.3136ZM17.3136 30.2806C17.9334 30.2806 18.4354 30.7877 18.4354 31.4178C18.4354 32.0478 17.9334 32.5549 17.3136 32.5549H6.92031C6.3005 32.5549 5.79851 32.0478 5.79851 31.4178C5.79851 30.7877 6.3005 30.2806 6.92031 30.2806H17.3136Z" fill="#86888C"/>
</svg>
