<svg width="20" height="20" viewBox="0 0 20 20" fill="none" xmlns="http://www.w3.org/2000/svg">
<path fill-rule="evenodd" clip-rule="evenodd" d="M15.5975 16.7124C14.7116 16.9766 13.5434 17.1223 12.3069 17.1223C11.0726 17.1223 9.90435 16.9766 9.0185 16.7124C8.36948 16.5166 7.59294 16.1704 7.59294 15.6307V14.7699C7.68631 14.7768 7.7774 14.7836 7.87304 14.7836C8.68602 14.7836 9.44207 14.5399 10.0774 14.1232C10.1048 14.1323 10.1298 14.1482 10.1617 14.1528C10.838 14.2507 11.5622 14.3008 12.3182 14.3008C13.6527 14.3008 14.9212 14.1414 15.8867 13.8499C16.3194 13.7201 16.6997 13.547 17.0231 13.3467V15.6307C17.0231 16.1704 16.2465 16.5189 15.5975 16.7124ZM7.87304 7.69223C9.55821 7.69223 10.9314 9.06313 10.9314 10.7483C10.9314 12.4335 9.56049 13.8044 7.87304 13.8044C6.18787 13.8044 4.81469 12.4335 4.81469 10.7483C4.81469 9.06541 6.18787 7.69223 7.87304 7.69223ZM7.59294 5.6427C7.90492 5.83626 8.2875 6.00478 8.74523 6.14141C9.71534 6.4329 10.9838 6.59231 12.316 6.59231C13.6482 6.59231 14.9166 6.4329 15.8867 6.14141C16.3422 6.00478 16.7156 5.84309 17.0231 5.65636V8.17956C16.8614 8.44372 16.4128 8.80808 15.6066 9.05175C14.7276 9.31591 13.5594 9.46165 12.3182 9.46165C12.2363 9.46621 11.9425 9.46165 11.692 9.45027C11.15 7.86074 9.64475 6.71301 7.87304 6.71301C7.7774 6.71301 7.68631 6.71984 7.59294 6.72667V5.6427ZM9.0185 3.48841C9.89525 3.22425 11.0635 3.07851 12.3069 3.07851C13.5502 3.07851 14.7185 3.22425 15.5975 3.48841C16.1554 3.65693 16.8022 3.93475 16.9752 4.35149C16.834 4.67486 16.3513 4.97546 15.6043 5.20091C14.723 5.46507 13.5548 5.61081 12.316 5.61081C11.0749 5.61081 9.90663 5.46507 9.02761 5.20091C8.26245 4.96863 7.77968 4.6612 7.64987 4.32872C7.79789 4.01218 8.27384 3.71386 9.0185 3.48841ZM11.9106 10.7506C11.9106 10.6458 11.9038 10.5411 11.8947 10.4363C12.0837 10.4409 12.2568 10.4409 12.3182 10.4409C13.6504 10.4409 14.9189 10.2792 15.8867 9.9877C16.3194 9.8579 16.6997 9.68482 17.0231 9.48443V12.0441C16.8614 12.3082 16.4128 12.6726 15.6066 12.9163C14.7276 13.1804 13.5616 13.3262 12.3182 13.3262C11.8719 13.3262 11.4438 13.3011 11.027 13.2647C11.5781 12.5724 11.9106 11.7002 11.9106 10.7506ZM15.8799 2.55246C14.912 2.26097 13.6436 2.10156 12.3069 2.10156C10.9701 2.10156 9.70396 2.26325 8.73612 2.55246C7.57017 2.90316 6.8756 3.43831 6.67521 4.13971V4.14198C6.63649 4.2809 6.616 4.42664 6.616 4.57011V6.91796C5.00598 7.44856 3.83775 8.96521 3.83775 10.7506C3.83775 11.7389 4.19527 12.643 4.78736 13.3467L2.14347 15.9905C1.95218 16.1818 1.95218 16.4915 2.14347 16.6828C2.23911 16.7785 2.36436 16.8263 2.48961 16.8263C2.61486 16.8263 2.74011 16.7785 2.83575 16.6828L5.5047 14.0093C5.83945 14.2553 6.21292 14.4488 6.61372 14.5809V15.6307C6.61372 16.5462 7.32878 17.2248 8.73612 17.6507C9.71079 17.9422 10.9792 18.1016 12.3069 18.1016C13.6345 18.1016 14.9029 17.9422 15.8799 17.6507C17.2872 17.2271 18.0023 16.5462 18.0023 15.6307V4.56783C18.0023 3.65465 17.2872 2.97603 15.8799 2.55246Z" fill="#86888C"/>
</svg>
