<svg width="28" height="28" viewBox="0 0 28 28" fill="none" xmlns="http://www.w3.org/2000/svg">
<path fill-rule="evenodd" clip-rule="evenodd" d="M9.7269 19.7687C11.2292 19.7687 11.6424 19.2155 11.6424 17.1976C11.6424 15.9309 11.4614 15.2548 11.0346 14.9338C10.7581 14.7256 10.3313 14.6231 9.7269 14.6231C9.11913 14.6231 8.68891 14.7256 8.41234 14.9373C7.98896 15.2616 7.8114 15.9343 7.8114 17.1942C7.8114 19.219 8.22114 19.7687 9.7269 19.7687ZM9.73031 13.0935C8.44307 13.0935 8.44307 13.353 8.44307 13.7183C8.44307 13.7286 8.44307 13.732 8.44649 13.7388C8.80842 13.6159 9.22839 13.551 9.7269 13.551C10.2288 13.551 10.6488 13.6193 11.0141 13.7422V13.7183C11.0141 13.353 11.0141 13.0935 9.73031 13.0935ZM13.3428 16.286C13.6398 16.286 13.8823 16.5284 13.8823 16.8254V17.5971C13.8823 17.8942 13.6398 18.1366 13.3428 18.1366C13.0457 18.1366 12.8033 17.8976 12.8033 17.5971V17.3649H12.7145C12.7077 17.9215 12.6565 18.4541 12.5267 18.9356L13.2438 19.1541C13.4828 19.2258 13.6398 19.4511 13.6262 19.697L13.5647 20.8579C13.5476 21.1447 13.312 21.3666 13.0252 21.3666H12.9979C12.7009 21.3496 12.4721 21.0969 12.4892 20.7998L12.5267 20.0589L12.0555 19.9155C11.6185 20.4789 10.9083 20.8476 9.72348 20.8476C8.53526 20.8476 7.82506 20.4789 7.38802 19.9121L6.89975 20.0589L6.93731 20.7998C6.95438 21.0969 6.72562 21.3496 6.42856 21.3666H6.39783C6.11102 21.3666 5.87543 21.1447 5.85835 20.8579L5.79689 19.697C5.78324 19.4511 5.9403 19.2258 6.17931 19.1541L6.91682 18.9321C6.79049 18.4507 6.73927 17.9181 6.73245 17.3683H6.64367V17.6005C6.64367 17.8976 6.40125 18.14 6.10419 18.14C5.80714 18.14 5.56471 17.901 5.56471 17.6005V16.8289C5.56471 16.5318 5.80714 16.2894 6.10419 16.2894H6.76318C6.80415 15.8421 6.89292 15.4085 7.05682 15.0192L6.17931 14.7529C5.9403 14.6812 5.78324 14.4558 5.79689 14.21L5.85835 13.0457C5.87543 12.7486 6.12468 12.5233 6.42515 12.5369C6.7222 12.554 6.95097 12.8067 6.9339 13.1037L6.89634 13.8446L7.38119 13.9915C7.37094 13.9027 7.3607 13.8139 7.3607 13.7183C7.3607 12.0179 9.0167 12.0179 9.7269 12.0179C10.4371 12.0179 12.0931 12.0179 12.0931 13.7183C12.0931 13.8105 12.0829 13.8959 12.0726 13.9812L12.5267 13.8446L12.4892 13.1037C12.4721 12.8067 12.7009 12.554 12.9979 12.5369C13.2984 12.5233 13.5511 12.7486 13.5647 13.0457L13.6262 14.21C13.6398 14.4558 13.4828 14.6812 13.2438 14.7529L12.3833 15.0124C12.5506 15.4016 12.636 15.8421 12.6804 16.2894H13.3428V16.286ZM9.69617 15.4255C9.99322 15.4255 10.2356 15.6645 10.2356 15.965V18.8536C10.2356 19.1507 9.99322 19.3931 9.69617 19.3931C9.39911 19.3931 9.15669 19.1541 9.15669 18.8536V15.965C9.15327 15.6679 9.3957 15.4255 9.69617 15.4255ZM22.531 22.6948C23.4392 22.4217 24.525 21.9402 24.525 21.2027V18.0444C24.0777 18.3141 23.5553 18.5463 22.968 18.7239C21.5886 19.137 19.7824 19.3658 17.8874 19.3658C17.6211 19.3658 17.365 19.3487 17.1055 19.3419C17.0884 19.4477 17.0747 19.557 17.0577 19.656C16.846 20.8681 15.8558 22.029 14.6812 23.0192C15.6543 23.1831 16.7367 23.2753 17.8703 23.2753C19.6219 23.2753 21.2779 23.0704 22.531 22.6948ZM9.7269 24.4567C11.5058 23.5689 15.2719 21.3257 15.6065 19.4033C15.6475 19.1677 15.6851 18.8912 15.7158 18.5975C15.7158 18.577 15.7056 18.56 15.709 18.5395C15.7124 18.5122 15.726 18.4917 15.7295 18.4644C15.8899 16.904 15.9514 14.7222 15.9719 13.2266C15.9651 13.1822 15.948 13.1379 15.9514 13.0901C15.9548 13.0559 15.9685 13.0286 15.9753 12.9979C15.9787 12.7657 15.9787 12.5506 15.9821 12.3662H15.9787C14.5378 12.3662 13.6296 11.7653 12.8101 11.2258C11.9599 10.6624 11.1541 10.1332 9.73031 10.1297H9.7269C8.3065 10.1297 7.50069 10.6624 6.64709 11.2224C5.82079 11.7687 4.90231 12.3764 3.49216 12.3764H3.4785C3.48874 13.9949 3.5502 17.6688 3.85408 19.3999C4.15455 21.1379 7.48703 23.3504 9.7269 24.4567ZM11.219 7.14213V8.84592C12.2263 9.09518 12.9569 9.56637 13.6193 10.0034C14.5208 10.6009 15.2378 11.0721 16.5728 10.8604C16.7879 10.8297 17.0133 10.8878 17.1772 11.0243C17.3411 11.1643 17.4469 11.3624 17.4503 11.5775C17.4503 11.6287 17.4503 11.9462 17.4469 12.4174C17.5937 12.4208 17.7371 12.4277 17.884 12.4277C19.6424 12.4277 21.295 12.2228 22.5412 11.8472C23.6885 11.5023 24.3065 10.9936 24.5216 10.6248V7.1592C24.0948 7.40845 23.5792 7.62697 22.9612 7.81135C21.5818 8.2245 19.779 8.45327 17.8805 8.45327C15.9821 8.45327 14.1793 8.2245 12.7999 7.81135C12.1785 7.62356 11.6526 7.39821 11.219 7.14213ZM13.213 4.05548C12.1716 4.36961 11.5195 4.77934 11.3112 5.22322C11.5092 5.67051 12.1716 6.08707 13.2267 6.40461C14.4729 6.77678 16.1255 6.98506 17.884 6.98506C19.6424 6.98506 21.295 6.7802 22.5412 6.40802C23.5792 6.09731 24.2485 5.68417 24.4533 5.24029C24.2041 4.67691 23.3095 4.29108 22.531 4.0589C21.2847 3.68673 19.6287 3.47845 17.8703 3.47845C16.1153 3.47845 14.4593 3.68331 13.213 4.05548ZM17.4298 13.8822C17.4059 15.0977 17.3581 16.5898 17.2557 17.8771C17.4674 17.8839 17.6723 17.8976 17.884 17.8976C19.6424 17.8976 21.295 17.6927 22.5412 17.3171C23.6851 16.9723 24.3031 16.4635 24.5216 16.0982V12.5745C24.0743 12.8442 23.5519 13.0764 22.9646 13.2539C21.5852 13.6671 19.779 13.8959 17.884 13.8959C17.7303 13.8959 17.5835 13.889 17.4298 13.8822ZM22.9544 2.65216C24.9723 3.25651 25.9966 4.23303 25.9966 5.54759V21.2027C25.9966 22.5173 24.9723 23.4938 22.9544 24.0982C21.5681 24.5113 19.7619 24.7401 17.8703 24.7401C16.1187 24.7401 14.4593 24.5386 13.1208 24.1801C11.6834 25.1396 10.3381 25.7917 10.041 25.9317C9.94201 25.9795 9.83616 26 9.7269 26C9.62105 26 9.51179 25.9761 9.41277 25.9283C8.75379 25.6176 2.95268 22.8041 2.40295 19.6492C1.98639 17.2727 2.00005 11.8028 2.00005 11.5706C2.00005 11.3453 2.1059 11.1336 2.28003 10.997C2.45758 10.857 2.68977 10.8092 2.90829 10.8604C4.21943 11.0653 4.92963 10.5941 5.83104 9.99659C6.78025 9.36833 7.85921 8.65813 9.72348 8.65813H9.74738V5.54076C9.74738 5.32565 9.77811 5.11737 9.83616 4.91592C10.1264 3.90866 11.12 3.14383 12.7896 2.64191C14.1691 2.22877 15.9753 2 17.8737 2C19.7687 2.01024 21.575 2.23901 22.9544 2.65216Z" fill="#86888C"/>
</svg>
