<svg width="20" height="20" viewBox="0 0 20 20" fill="none" xmlns="http://www.w3.org/2000/svg">
<path fill-rule="evenodd" clip-rule="evenodd" d="M7.87675 13.9036C8.95602 13.9036 9.48199 13.3867 9.48199 12.3256C9.48199 11.2646 8.95602 10.7477 7.87675 10.7477C6.79749 10.7477 6.27152 11.2646 6.27152 12.3256C6.27152 13.389 6.79749 13.9036 7.87675 13.9036ZM7.87675 9.76865C9.50703 9.76865 10.4816 10.725 10.4816 12.3279C10.4816 13.9309 9.50703 14.8872 7.87675 14.8872C6.24647 14.8872 5.27195 13.9309 5.27195 12.3279C5.27195 10.725 6.24647 9.76865 7.87675 9.76865ZM17.005 8.17025V5.65197C16.693 5.83867 16.3128 6.00034 15.8506 6.13695C14.8646 6.4284 13.5759 6.58778 12.2166 6.58778C10.8595 6.58778 9.56851 6.4284 8.58488 6.13695C8.11811 6.00034 7.73103 5.83184 7.41454 5.6383V6.56046C7.43275 6.55818 7.44869 6.55591 7.46691 6.55591H8.28888C8.86039 6.55591 9.32488 7.01129 9.32488 7.57369V8.16797C9.51386 8.21351 9.69146 8.26816 9.86451 8.33646L10.3723 7.83782C10.7798 7.43935 11.4401 7.43935 11.8477 7.83782L12.4488 8.42982C12.6446 8.62108 12.7539 8.87837 12.7539 9.15388C12.7539 9.25407 12.7357 9.3497 12.7084 9.44305C13.7763 9.4089 14.7872 9.27684 15.5659 9.04687C16.3856 8.79868 16.841 8.43437 17.005 8.17025ZM17.005 12.0342V9.47948C16.6794 9.67985 16.2923 9.8529 15.8528 9.98268C14.8646 10.2741 13.5736 10.4335 12.2189 10.4335C12.1323 10.4335 12.0458 10.4312 11.9593 10.4312C12.0162 10.5838 12.0686 10.7409 12.1096 10.9048H12.7152C13.2867 10.9048 13.7512 11.3602 13.7512 11.9226V12.7309C13.7512 12.9199 13.6943 13.0952 13.6032 13.2478C14.3318 13.1818 15.0081 13.0702 15.5659 12.904C16.3856 12.6626 16.841 12.2983 17.005 12.0342ZM17.005 15.6226V13.3434C16.6771 13.5438 16.2923 13.7168 15.8528 13.8466C14.8646 14.1381 13.5759 14.2975 12.2189 14.2975C12.1301 14.2975 12.0435 14.2929 11.9547 14.2929L12.4488 14.7802C12.6446 14.9714 12.7539 15.2287 12.7539 15.5042C12.7539 15.7775 12.6446 16.037 12.4488 16.2283L11.8477 16.818C11.6861 16.9751 11.4743 17.0525 11.258 17.0821C11.5699 17.1026 11.8864 17.114 12.2075 17.114C13.4666 17.114 14.6574 16.9683 15.5568 16.7042C16.2171 16.5061 17.005 16.16 17.005 15.6226ZM10.3313 15.3881L11.0804 16.1236L11.743 15.5338L10.9939 14.7369C10.8413 14.5889 10.8026 14.3589 10.8982 14.1722C11.044 13.8853 11.1487 13.5506 11.2102 13.1795C11.2489 12.9427 11.4584 12.7674 11.7043 12.7674H12.7175L12.7539 11.9226L11.7043 11.8862C11.4584 11.8862 11.2489 11.7109 11.2102 11.4741C11.1487 11.1029 11.044 10.7682 10.8982 10.4813C10.8026 10.2923 10.8413 10.0647 10.9939 9.91665L11.743 9.1812L11.1419 8.53L10.3313 9.26545C10.181 9.41345 9.94876 9.44988 9.75977 9.3588C9.45011 9.2108 9.12679 9.1129 8.74654 9.05142C8.50291 9.01271 8.32531 8.80779 8.32531 8.56643V7.57142L7.46691 7.53499L7.43047 8.56416C7.43047 8.80551 7.25287 9.01043 7.00924 9.04914C6.63355 9.10834 6.29429 9.2108 5.99829 9.35425C5.80702 9.4476 5.57478 9.4089 5.42222 9.2609L4.67311 8.52545L4.01053 9.11517L4.75736 9.90982C4.91675 10.0647 4.94862 10.306 4.83933 10.4973C4.70727 10.7272 4.5957 11.1507 4.54333 11.4695C4.50234 11.7063 4.29514 11.8816 4.04924 11.8816H3.036L2.99957 12.7264L4.04924 12.7628C4.29287 12.7628 4.50234 12.9359 4.54333 13.1749C4.5957 13.496 4.70954 13.9195 4.83933 14.1472C4.94862 14.3384 4.91675 14.5798 4.75736 14.7346L4.01053 15.4701L4.61164 16.1213L5.42222 15.3858C5.51785 15.2925 5.64536 15.2424 5.77515 15.2424C5.85029 15.2424 5.9277 15.2583 5.99601 15.2925C6.28973 15.4359 6.629 15.5384 7.00697 15.5976C7.24832 15.6363 7.42592 15.8412 7.42592 16.0826V17.0776L8.28432 17.114C8.30254 17.114 8.32075 17.0981 8.32075 17.0776V16.0826C8.32075 15.8412 8.49835 15.6363 8.74199 15.5976C9.12223 15.5384 9.44328 15.4382 9.75522 15.2902C9.94876 15.2014 10.181 15.2401 10.3313 15.3881ZM9.32488 16.8135C9.74839 16.9114 10.2152 16.9842 10.7138 17.0343C10.5886 16.9865 10.4725 16.9137 10.3745 16.818L9.86679 16.3194C9.69146 16.3877 9.51386 16.4423 9.32716 16.4879V16.8135H9.32488ZM8.86266 3.48661C8.09989 3.71202 7.62174 4.01258 7.47601 4.33818C7.61491 4.66606 8.10217 4.96889 8.87177 5.19886C9.7666 5.46298 10.9529 5.6087 12.2166 5.6087C13.4803 5.6087 14.6688 5.46298 15.5614 5.19886C16.3219 4.97344 16.8091 4.67289 16.9549 4.34956C16.7773 3.93288 16.1215 3.6551 15.5546 3.48661C14.6597 3.22248 13.4712 3.07676 12.2075 3.07676C10.9461 3.07676 9.7575 3.22248 8.86266 3.48661ZM15.8437 2.54624C17.2759 2.96974 18.0045 3.65055 18.0045 4.56587V15.6226C18.0045 16.538 17.2782 17.2188 15.8437 17.6423C14.8533 17.9337 13.5622 18.0931 12.2075 18.0931C11.0645 18.0931 9.96697 17.9724 9.05165 17.7584C8.86266 17.9656 8.59171 18.0977 8.2866 18.0977H7.46691C6.8954 18.0977 6.4309 17.6423 6.4309 17.0799V16.4856C6.24192 16.4401 6.06204 16.3831 5.88899 16.3194L5.38124 16.818C4.98733 17.2051 4.30197 17.2051 3.90579 16.818L3.30468 16.2283C3.10886 16.0348 2.99957 15.7775 2.99957 15.5042C2.99957 15.2287 3.10886 14.9714 3.30696 14.7779L3.80788 14.2838C3.7373 14.1016 3.68265 13.9104 3.64167 13.7487H3.036C2.46449 13.7487 2 13.2911 2 12.7309V11.9226C2 11.3625 2.46449 10.9048 3.036 10.9048H3.64167C3.68265 10.7409 3.7373 10.5519 3.80788 10.3675L3.30468 9.87339C3.10886 9.67985 2.99957 9.42256 2.99957 9.14705C2.99957 8.87154 3.10886 8.61425 3.30696 8.42299L3.90579 7.83326C4.31108 7.4348 4.97367 7.4348 5.38124 7.83326L5.88899 8.33419C6.05976 8.26816 6.24192 8.21351 6.4309 8.16797V7.66705C6.42635 7.64428 6.41724 7.62151 6.41724 7.59874V4.56587C6.41724 4.41787 6.43773 4.27215 6.47872 4.13553C6.68364 3.43424 7.38949 2.89916 8.57805 2.54851C9.56396 2.25707 10.855 2.09768 12.212 2.09768C13.5668 2.0954 14.8578 2.25479 15.8437 2.54624Z" fill="#86888C"/>
</svg>
