<svg width="24" height="24" viewBox="0 0 24 24" fill="none" xmlns="http://www.w3.org/2000/svg">
<path d="M10.3193 12.8641C10.0057 12.8641 9.74912 12.6 9.74912 12.2773V11.1242C9.74912 10.8014 10.0057 10.5373 10.3193 10.5373C10.6329 10.5373 10.8895 10.8014 10.8895 11.1242V12.2773C10.8895 12.6 10.6358 12.8641 10.3193 12.8641Z" fill="#86888C"/>
<path d="M8.68853 17.1333H4.20385C3.47684 17.1333 2.94084 16.9455 2.5645 16.5641C2.18532 16.1738 2 15.6193 2 14.8652V6.26811C2 4.78342 2.76123 4 4.20385 4H8.68567C10.1055 4 10.8895 4.80396 10.8895 6.26811V8.38364C10.8895 8.7064 10.6329 8.97047 10.3193 8.97047C10.0057 8.97047 9.74911 8.7064 9.74911 8.38364V6.26811C9.74911 5.44948 9.48111 5.17367 8.68567 5.17367H4.20385C3.799 5.17367 3.5196 5.25289 3.3685 5.4084C3.21739 5.56391 3.14326 5.85146 3.14326 6.26811V14.8681C3.14326 15.7073 3.3913 15.9626 4.2067 15.9626H8.68853C9.37277 15.9626 9.52958 15.7396 9.5809 15.6662C9.76337 15.4022 10.1197 15.3435 10.3763 15.5313C10.6329 15.7191 10.69 16.0858 10.5075 16.3499C10.1369 16.8751 9.54098 17.1333 8.68853 17.1333ZM13.6807 13.4509C13.3671 13.4509 13.1105 13.1869 13.1105 12.8641V11.6582C13.1105 11.3354 13.3671 11.0713 13.6807 11.0713C13.9943 11.0713 14.2509 11.3354 14.2509 11.6582V12.8641C14.2509 13.1869 13.9972 13.4509 13.6807 13.4509Z" fill="#86888C"/>
<path d="M19.7962 20H15.3143C13.8945 20 13.1105 19.196 13.1105 17.7319V15.7543C13.1105 15.4315 13.3671 15.1674 13.6807 15.1674C13.9943 15.1674 14.2509 15.4315 14.2509 15.7543V17.7319C14.2509 18.5505 14.5189 18.8263 15.3143 18.8263H19.7962C20.201 18.8263 20.4804 18.7471 20.6315 18.5916C20.7826 18.4361 20.8567 18.1485 20.8567 17.7319V9.13186C20.8567 8.29268 20.6087 8.03741 19.7933 8.03741H15.3143C14.593 8.03741 14.4505 8.28388 14.3963 8.37777C14.2338 8.65652 13.8831 8.74748 13.6151 8.58023C13.3443 8.41298 13.2559 8.05208 13.4184 7.77627C13.7691 7.17183 14.4077 6.86668 15.3143 6.86668H19.7962C20.5232 6.86668 21.0592 7.05447 21.4355 7.43591C21.8147 7.82322 22 8.37777 22 9.13186V17.7319C22 19.2166 21.2388 20 19.7962 20ZM6.44476 14.4192C6.74697 14.4192 6.94084 14.5835 6.94084 14.9327C6.94084 15.0999 6.89522 15.2261 6.81539 15.3112C6.72986 15.4022 6.60157 15.4462 6.44476 15.4462C6.28795 15.4462 6.15966 15.4022 6.07413 15.3112C5.9943 15.2261 5.94868 15.1029 5.94868 14.9327C5.94868 14.5835 6.1454 14.4192 6.44476 14.4192Z" fill="#86888C"/>
<path d="M17.5552 17.2712C17.8574 17.2712 18.0513 17.4355 18.0513 17.7847C18.0513 17.952 18.0057 18.0781 17.9259 18.1632C17.8403 18.2542 17.712 18.2982 17.5552 18.2982C17.3984 18.2982 17.2701 18.2542 17.1846 18.1632C17.1048 18.0781 17.0592 17.9549 17.0592 17.7847C17.0592 17.4326 17.2559 17.2712 17.5552 17.2712Z" fill="#86888C"/>
<path d="M12.6144 12.3858C12.3293 12.3858 12.1098 12.1482 12.1069 11.8372L12.0955 11.1858L9.27868 11.1711H9.24732C9.05915 11.1711 8.87669 11.086 8.74839 10.9364C8.62579 10.7926 8.56592 10.6048 8.58018 10.4112L8.58303 9.00862C8.58018 8.8267 8.65145 8.64479 8.77975 8.50981C8.9223 8.35724 9.12187 8.28095 9.32715 8.30149L12.1411 8.29855L12.1326 7.69705C12.1297 7.53567 12.1839 7.38896 12.2837 7.28627C12.3778 7.18944 12.5032 7.13663 12.6343 7.13663C12.7512 7.13663 12.8681 7.1777 12.9708 7.25986L15.6023 9.28737C15.7534 9.40474 15.8389 9.57785 15.8389 9.7627C15.8389 9.94756 15.7505 10.1207 15.5994 10.238L12.948 12.2685C12.8482 12.3448 12.7313 12.3858 12.6144 12.3858ZM9.43549 10.2938L12.3207 10.3085C12.6629 10.3114 12.9451 10.5989 12.948 10.951L12.9508 11.1711L14.7926 9.75977L12.9993 8.37778L13.0021 8.53035C13.005 8.70347 12.9394 8.86778 12.8225 8.99102C12.7056 9.11425 12.546 9.18174 12.3778 9.18174L9.44119 9.18467L9.43549 10.2938Z" fill="#86888C"/>
<path d="M11.3885 16.8634C11.2716 16.8634 11.1547 16.8223 11.052 16.7431L8.40343 14.7126C8.25233 14.5982 8.16394 14.4222 8.16394 14.2373C8.16394 14.0524 8.24948 13.8764 8.40058 13.762L11.0321 11.7345C11.1347 11.6552 11.2516 11.6142 11.3685 11.6142C11.5025 11.6142 11.628 11.667 11.7192 11.7638C11.819 11.8665 11.8731 12.0132 11.8703 12.1746L11.8617 12.779L14.6757 12.782C14.881 12.7643 15.0777 12.8406 15.2231 12.9903C15.3514 13.1253 15.4227 13.3072 15.4198 13.4891L15.4227 14.8916C15.4369 15.0853 15.3771 15.2731 15.2545 15.4168C15.1205 15.5723 14.9266 15.6604 14.7242 15.6486L11.9074 15.6633L11.8959 16.3147C11.8902 16.6257 11.6736 16.8634 11.3885 16.8634ZM9.21027 14.2373L11.052 15.6486L11.0549 15.4256C11.0606 15.0765 11.34 14.7889 11.6793 14.786L14.5645 14.7713L14.5617 13.6622L11.6251 13.6593C11.4569 13.6593 11.3001 13.5918 11.1803 13.4685C11.0634 13.3453 10.9979 13.181 11.0007 13.0079L11.0036 12.8553L9.21027 14.2373Z" fill="#86888C"/>
</svg>
