<svg width="40" height="40" viewBox="0 0 40 40" fill="none" xmlns="http://www.w3.org/2000/svg">
<path fill-rule="evenodd" clip-rule="evenodd" d="M35.0858 23.7414H30.3841C30.7119 22.041 30.9014 20.2228 30.9014 18.3022C30.9014 16.7196 30.7836 15.2241 30.5583 13.8003H35.306C35.6031 15.178 35.767 16.6735 35.767 18.3329C35.7721 20.356 35.5314 22.1588 35.0858 23.7414ZM26.8553 31.8079C28.1152 30.3124 29.1396 28.3201 29.8361 25.9437H34.2714C32.8323 28.9193 30.3585 30.8656 26.8553 31.8079ZM22.5839 32.274V25.9539H27.5211C26.4405 29.2727 24.6632 31.6338 22.5839 32.274ZM22.5839 13.8003H28.2945C28.5455 15.2189 28.6786 16.735 28.6786 18.3022C28.6786 20.2228 28.484 22.0666 28.1306 23.7414L22.5839 23.7567V13.8003ZM22.5839 4.39181C24.8528 5.08323 26.7682 7.80794 27.8182 11.6031H22.5839V4.39181ZM34.6453 11.6031H30.1383C29.4571 8.863 28.3611 6.54289 26.9629 4.87324C30.7273 5.91293 33.3086 8.17157 34.6453 11.6031ZM20.3611 11.6031H14.7375C15.9104 7.84891 18 5.06274 20.3611 4.37644V11.6031ZM20.3611 23.7567H17.2318V20.781C17.2318 19.8284 16.7145 18.5531 14.2202 17.8054C14.0717 17.7593 13.9078 17.7286 13.7593 17.7029C13.79 16.356 13.9385 15.0499 14.1895 13.8003H20.3611V23.7567ZM20.3611 32.4072C19.3367 32.3662 18.3431 32.2894 17.4264 32.1152C17.3649 32.1152 17.2932 32.1306 17.2318 32.1306V25.959H20.3611V32.4072ZM15.009 25.0627C14.8143 25.283 14.3688 25.6056 13.6005 25.8412C11.4802 26.4558 7.77209 26.4558 5.66709 25.8412C4.83739 25.5903 4.39181 25.283 4.22791 25.0935V22.8963C4.47887 22.9987 4.72983 23.1012 5.02689 23.1882C6.27145 23.5672 7.92061 23.7772 9.62612 23.7772C11.347 23.7772 12.9757 23.5723 14.2407 23.1882C14.5224 23.1114 14.758 23.0141 15.0141 22.9116V25.0627H15.009ZM15.009 29.8412C14.8143 30.0615 14.3688 30.3841 13.6005 30.6197C11.4802 31.2343 7.77209 31.2343 5.66709 30.6197C4.78105 30.3585 4.37644 30.0512 4.22791 29.872V27.644C4.47887 27.7465 4.72983 27.8643 5.02689 27.936C6.27145 28.3201 7.92061 28.525 9.62612 28.525C11.347 28.525 12.9757 28.3201 14.2407 27.936C14.507 27.8643 14.758 27.7618 15.0141 27.644V29.8412H15.009ZM15.009 34.4456C15.009 34.6658 14.5634 35.0141 13.5851 35.3111C11.4494 35.9257 7.77209 35.9257 5.65173 35.3111C4.6735 35.0141 4.22791 34.6658 4.22791 34.4456V32.4225C4.47887 32.525 4.72983 32.6274 5.02689 32.7145C6.27145 33.0935 7.92061 33.3035 9.62612 33.3035C11.347 33.3035 12.9757 33.0986 14.2407 32.7145C14.507 32.6376 14.758 32.525 15.0141 32.4225V34.4456H15.009ZM5.64661 19.9155C7.7516 19.2855 11.475 19.2855 13.58 19.9155C14.2202 20.105 14.6197 20.3252 14.8246 20.4994C14.6453 20.6581 14.2919 20.8681 13.58 21.0832C11.475 21.6978 7.76696 21.6978 5.66197 21.0832C4.98079 20.8784 4.60691 20.6581 4.41741 20.484C4.61204 20.3252 4.98079 20.1204 5.64661 19.9155ZM7.64917 13.8003H11.9052C11.7106 14.9424 11.5928 16.1152 11.5519 17.3342C10.128 17.2164 8.60179 17.2164 7.21895 17.3752C7.26504 16.105 7.39821 14.9014 7.64917 13.8003ZM15.7926 4.9347C14.3227 6.61972 13.1549 8.92446 12.4123 11.6082H8.30474C9.621 8.23303 12.1306 6 15.7926 4.9347ZM37.2983 12.612C37.283 12.4686 37.2369 12.3201 37.1652 12.2023C35.2241 5.5749 29.8259 2 21.4725 2C10.8553 2 5.16005 7.46991 4.98079 17.8207C3.36236 18.3022 2.38412 19.0807 2.08707 20.1101V20.1255C2.02561 20.3303 2 20.5506 2 20.7862V34.4507C2 35.388 2.51729 36.6786 5.01152 37.411C6.27145 37.7951 7.90525 38 9.61076 38C11.3163 38 12.9603 37.7951 14.2254 37.411C16.7196 36.6786 17.2369 35.388 17.2369 34.4507V34.3175C18.5583 34.5378 19.9667 34.6556 21.4776 34.6556C32.2894 34.6556 38 29.0115 38 18.338C37.9949 16.2382 37.7593 14.3329 37.2983 12.612Z" fill="#86888C"/>
</svg>
