<svg width="20" height="20" viewBox="0 0 20 20" fill="none" xmlns="http://www.w3.org/2000/svg">
<path fill-rule="evenodd" clip-rule="evenodd" d="M7.13621 15.0955C6.86533 15.0955 6.64681 14.8769 6.64681 14.6061V11.4443C6.64681 11.1734 6.86761 10.9549 7.13621 10.9549C7.40481 10.9549 7.62561 11.1734 7.62561 11.4443V14.6061C7.62789 14.8747 7.40709 15.0955 7.13621 15.0955ZM7.13621 15.3686C7.41164 15.3686 7.63471 15.5917 7.63471 15.8671C7.63471 16.1426 7.41164 16.3656 7.13621 16.3656C6.86078 16.3656 6.6377 16.1426 6.6377 15.8671C6.6377 15.5917 6.86078 15.3686 7.13621 15.3686ZM17.0198 8.08451V5.56466C16.7125 5.74676 16.3392 5.91066 15.8817 6.04723C14.9074 6.34087 13.6396 6.49794 12.3034 6.49794C10.9695 6.49794 9.6993 6.34087 8.73188 6.04723C8.27435 5.90838 7.88738 5.73993 7.58008 5.551V7.88875C7.69845 7.96159 7.79633 8.06402 7.86234 8.18922L8.02624 8.52155C8.28801 8.68545 8.62717 8.83568 9.01414 8.95177C9.89734 9.22037 11.0674 9.36378 12.3102 9.36378C13.5531 9.36378 14.7162 9.22037 15.5994 8.95177C16.4121 8.71049 16.8559 8.344 17.0198 8.08451ZM17.0198 11.9428V9.38882C16.6989 9.58458 16.3142 9.76213 15.8817 9.89188C14.912 10.1787 13.6441 10.3426 12.3102 10.3426C10.9763 10.3426 9.70158 10.1787 8.73188 9.89188C8.72505 9.88505 8.7114 9.88505 8.70684 9.87822L10.3025 13.0832C10.9239 13.1743 11.6182 13.2266 12.3102 13.2266C13.5531 13.2266 14.7162 13.0764 15.5994 12.8146C16.4121 12.5779 16.8559 12.2114 17.0198 11.9428ZM17.0198 15.5348V13.2494C16.6989 13.452 16.3142 13.6227 15.8817 13.7525C14.912 14.0461 13.6441 14.21 12.3102 14.21C11.7935 14.21 11.3041 14.1758 10.8192 14.1326L12.1918 16.8823C12.2169 16.9279 12.2169 16.9802 12.2305 17.0258H12.2943C13.5303 17.0258 14.7026 16.8823 15.5903 16.616C16.2413 16.4157 17.0198 16.0697 17.0198 15.5348ZM7.17035 8.9973L3.12312 16.9779L11.1607 17.0098L7.17035 8.9973ZM9.00959 3.39536C8.25842 3.62299 7.78723 3.92574 7.64382 4.24442C7.7804 4.57675 8.25842 4.88405 9.01642 5.10485C9.89962 5.37345 11.0696 5.51686 12.3056 5.51686C13.5485 5.51686 14.7185 5.37345 15.6017 5.10485C16.3483 4.88405 16.8309 4.58358 16.9743 4.2558C16.7968 3.84379 16.1503 3.56381 15.5949 3.39309C14.7117 3.13131 13.5417 2.98108 12.2988 2.98108C11.056 2.98335 9.88368 3.13359 9.00959 3.39536ZM15.8749 2.45526C17.2884 2.87865 18.0009 3.55925 18.0009 4.47887V15.5325C18.0009 16.4476 17.2884 17.1259 15.8749 17.5493C14.9006 17.8429 13.6259 18 12.2965 18C12.1668 18 11.7161 18 11.5772 17.9932C11.5636 17.9932 11.5454 17.9863 11.5249 17.9863H11.4907L2.76574 17.9545H2.75209C2.34691 17.9545 2.00774 17.6199 2.00091 17.2033C1.99408 17.0736 2.02595 16.9484 2.08513 16.8368L6.48064 8.17783C6.51251 8.12548 6.55348 8.07995 6.59901 8.03443V4.47432C6.59901 4.33091 6.61949 4.18751 6.65819 4.0441V4.03727C6.86078 3.33845 7.55277 2.80353 8.71823 2.4507C9.69247 2.16162 10.9604 2 12.2943 2C13.6327 2.00455 14.9074 2.16844 15.8749 2.45526Z" fill="#86888C"/>
</svg>
