<svg width="28" height="28" viewBox="0 0 28 28" fill="none" xmlns="http://www.w3.org/2000/svg">
<path fill-rule="evenodd" clip-rule="evenodd" d="M24.4767 11.1157C24.2445 11.5153 23.5751 12.0447 22.3968 12.3999C21.1091 12.7892 19.4151 13.001 17.6186 13.0112C17.5879 12.9907 17.5469 12.9703 17.5093 12.9498L10.8049 9.9408C10.7127 9.89981 10.6205 9.86908 10.5317 9.84858V7.39974C10.9893 7.67639 11.5358 7.91888 12.195 8.11356C13.6431 8.55073 15.5318 8.7864 17.5196 8.7864C19.4971 8.7864 21.3824 8.55073 22.8339 8.11356C23.4829 7.91888 24.0327 7.68322 24.4767 7.40999V11.1157ZM24.4767 16.8877C24.2547 17.2771 23.5853 17.8167 22.3968 18.1753C21.0887 18.5749 19.3536 18.7867 17.5196 18.7867C17.1029 18.7867 16.676 18.7764 16.2695 18.7457V16.2559L17.5093 15.706C17.9943 15.4908 18.3222 15.0434 18.3802 14.5208C20.0435 14.4696 21.6078 14.234 22.8339 13.8583C23.4521 13.6738 24.0088 13.4279 24.4767 13.1342V16.8877ZM24.4767 22.2772C24.4767 23.0628 23.3428 23.5717 22.3865 23.8585C21.0682 24.2581 19.3331 24.4733 17.4957 24.4733C15.6684 24.4733 13.9334 24.2581 12.6185 23.8585C11.7851 23.6024 10.8117 23.1857 10.5795 22.5539C10.8732 22.4924 11.1567 22.3694 11.4094 22.1748C12.4545 21.338 13.9163 20.9384 14.9512 20.7574C15.3064 20.6959 15.6206 20.5115 15.8426 20.2587C16.3891 20.2997 16.9492 20.3202 17.5162 20.3202C19.4937 20.3202 21.3892 20.0845 22.8305 19.6474C23.4487 19.4527 24.0054 19.2068 24.4733 18.9233V22.2772H24.4767ZM10.0603 20.9725C8.76249 19.9411 7.04796 19.4732 5.77743 19.176V17.0038L9.58218 18.7081C9.77344 18.8003 9.98861 18.8413 10.1901 18.8413C10.4053 18.8413 10.6068 18.8003 10.8015 18.7081L14.7292 16.9526L14.6882 19.2478C13.4689 19.4732 11.768 19.9411 10.4668 20.9725C10.3472 21.0647 10.1833 21.0647 10.0603 20.9725ZM3.49936 14.3501L10.1935 11.3411L16.8911 14.3091L10.2038 17.3078L3.49936 14.3501ZM12.6185 4.14487C13.9266 3.74527 15.6616 3.5301 17.4957 3.5301C19.3434 3.5301 21.0784 3.74527 22.3865 4.14487C23.1994 4.40102 24.142 4.80746 24.405 5.39832C24.364 5.50078 24.3025 5.593 24.2103 5.68521C23.8961 6.05408 23.2574 6.38879 22.3831 6.64494C21.0852 7.04454 19.3502 7.2563 17.5127 7.2563C15.665 7.2563 13.93 7.04113 12.6321 6.64494C12.1232 6.49125 11.6997 6.31706 11.365 6.11555C10.9688 5.90038 10.7161 5.64764 10.6034 5.39149C10.8117 4.90992 11.5221 4.46933 12.6185 4.14487ZM22.8237 2.68308C21.3824 2.24591 19.4868 2 17.4991 2C15.5113 2 13.626 2.24591 12.1847 2.68308C10.4394 3.20564 9.40458 4.01167 9.10061 5.07044C9.03913 5.28561 9.0084 5.51103 9.0084 5.73303V10.197L2.88117 12.9429C2.33471 13.1991 2 13.7182 2 14.3296C2 14.9204 2.34496 15.4635 2.88117 15.7094L4.26099 16.3208V19.176C4.26099 19.9513 4.80746 20.6242 5.57934 20.7574C6.57322 20.9315 7.97353 21.3072 9.0084 22.0928V22.2772C9.0084 23.6536 10.074 24.6851 12.1847 25.3272C13.6363 25.7575 15.5216 26 17.4991 26C19.4766 26 21.3756 25.7541 22.8237 25.3272C24.9344 24.6851 26 23.6536 26 22.2772V5.73303C26 4.34979 24.9344 3.31834 22.8237 2.68308Z" fill="#86888C"/>
</svg>
