<svg width="24" height="24" viewBox="0 0 24 24" fill="none" xmlns="http://www.w3.org/2000/svg">
<path fill-rule="evenodd" clip-rule="evenodd" d="M19.112 19.2372C18.0678 19.5473 16.6878 19.7209 15.2281 19.7209C14.2835 19.7209 13.3815 19.6412 12.5706 19.5075C13.5465 18.6823 14.3717 17.7177 14.5481 16.7048C14.5623 16.6251 14.5737 16.5369 14.5879 16.4487C14.8042 16.4572 15.0204 16.4658 15.2395 16.4658C16.8187 16.4658 18.3239 16.2751 19.4734 15.9309C19.9657 15.7829 20.401 15.5923 20.7709 15.3646V17.9966C20.7737 18.6112 19.8689 19.0095 19.112 19.2372ZM3.54511 16.4942C3.48251 16.1357 3.43129 15.6805 3.39146 15.174H7.78184V20.3582C6.1856 19.479 3.78981 17.8856 3.54511 16.4942ZM3.2435 10.6413C4.41863 10.6413 5.18403 10.1349 5.87261 9.67961C6.43883 9.30687 6.98514 8.95405 7.78184 8.82316V13.9505H3.31748C3.25773 12.6985 3.23781 11.4011 3.23212 10.6385H3.2435V10.6413ZM9.68538 6.27372C10.0467 6.48997 10.4849 6.67776 11.0056 6.83141C12.1552 7.1757 13.6575 7.36634 15.2395 7.36634C16.8187 7.36634 18.3239 7.1757 19.4734 6.83141C19.9884 6.67776 20.4209 6.49566 20.7737 6.28795V9.17883C20.5916 9.48613 20.0795 9.91009 19.1234 10.1975C17.9995 10.5361 16.4346 10.7068 14.8782 10.6726C14.881 10.2771 14.881 10.0125 14.881 9.96984C14.881 9.79058 14.7899 9.62555 14.6534 9.50889C14.5168 9.39508 14.329 9.34955 14.1497 9.37231C13.0344 9.54588 12.4397 9.15607 11.6885 8.65813C11.1365 8.29393 10.5305 7.90127 9.68823 7.69356V6.27372H9.68538ZM11.3471 3.70437C12.3856 3.39422 13.7656 3.22066 15.2281 3.22066C16.6935 3.22066 18.0735 3.39138 19.112 3.70437C19.7579 3.89785 20.5034 4.21938 20.714 4.69171C20.5433 5.05876 19.9856 5.40304 19.1206 5.66482C18.082 5.97496 16.7049 6.14568 15.2395 6.14568C13.7742 6.14568 12.397 5.97496 11.3585 5.66197C10.4821 5.4002 9.92724 5.05022 9.76221 4.67748C9.93577 4.31043 10.4792 3.96614 11.3471 3.70437ZM14.8611 11.8961C14.9863 11.899 15.1115 11.9047 15.2395 11.9047C16.8187 11.9047 18.3239 11.714 19.4734 11.3698C19.9657 11.2218 20.401 11.0283 20.7709 10.8035V13.7399C20.5888 14.0444 20.0738 14.4712 19.1206 14.7586C18.082 15.0687 16.7049 15.2423 15.2395 15.2423C15.0631 15.2423 14.8895 15.2337 14.716 15.2281C14.8013 14.1554 14.8412 12.9091 14.8611 11.8961ZM9.00819 8.80893C9.8561 8.92559 10.4195 9.29264 11.0085 9.67961C11.6885 10.1292 12.4482 10.63 13.6461 10.63H13.649C13.6433 11.3868 13.6234 12.6957 13.5636 13.9505H9.00534V8.80893H9.00819ZM9.00819 20.4094V15.174H13.4925C13.4526 15.6805 13.4043 16.1357 13.3417 16.4942C13.0941 17.9141 10.6044 19.5388 9.00819 20.4094ZM19.4649 2.53493C18.3153 2.19064 16.8102 2 15.2281 2C13.6461 2 12.1438 2.19064 10.9914 2.53493C9.60002 2.95319 8.77202 3.59055 8.53017 4.42993C8.4818 4.59496 8.45619 4.77138 8.45619 4.95063V7.5456H8.43627C6.88271 7.5456 5.98642 8.13743 5.19257 8.66098C4.44139 9.15891 3.85525 9.55726 2.76264 9.3837C2.58053 9.33817 2.38705 9.37801 2.23624 9.49466C2.08829 9.61132 2.00008 9.78774 2.00008 9.97553C2.00008 10.169 1.98585 14.7273 2.33583 16.7076C2.79678 19.3367 7.62819 21.6813 8.17735 21.9402C8.25986 21.9801 8.35091 22 8.43912 22C8.53017 22 8.61838 21.9801 8.70089 21.9431C8.94844 21.8264 10.0695 21.283 11.2674 20.4834C12.3856 20.7793 13.7685 20.9501 15.2253 20.9501C16.8016 20.9501 18.304 20.7594 19.462 20.4151C21.1436 19.9087 21.9944 19.0977 21.9944 18.0023V4.95632C22.0001 3.85233 21.1465 3.0414 19.4649 2.53493Z" fill="#86888C"/>
</svg>
