<svg width="20" height="20" viewBox="0 0 20 20" fill="none" xmlns="http://www.w3.org/2000/svg">
<path fill-rule="evenodd" clip-rule="evenodd" d="M13.5857 12.3608V9.50142C13.5857 9.0461 13.3398 8.43369 12.1355 8.07854C10.8993 7.70973 8.83665 7.70973 7.59135 8.07854C6.80592 8.31531 6.32783 8.68412 6.18668 9.18498C6.15253 9.28515 6.13887 9.38987 6.13887 9.50142V12.3995H5.54013C4.77519 12.3995 2.99943 12.1559 2.99943 9.90211C2.99943 8.63631 3.55265 7.8395 4.63631 7.52988C4.85031 7.47069 4.99602 7.27945 4.99602 7.05635L4.98919 6.96984C4.98919 3.26807 8.25612 2.98577 9.2601 2.98577C9.8247 2.98577 12.6932 3.11098 13.3648 5.60842C13.424 5.82015 13.6107 5.9704 13.8384 5.97723C14.79 6.00455 17.0051 6.36653 17.0051 9.15993C17.0051 12.1241 14.4917 12.354 13.72 12.354L13.5857 12.3608ZM7.88275 9.02789C8.40865 8.8708 9.1144 8.78429 9.86568 8.78429C10.6101 8.78429 11.3159 8.8708 11.8486 9.02106C12.181 9.12806 12.4155 9.24644 12.527 9.37166C12.4269 9.46955 12.222 9.59704 11.8486 9.70859C10.7968 10.025 8.94138 10.025 7.88959 9.70859C7.50939 9.59704 7.29767 9.465 7.20433 9.3671C7.3045 9.25783 7.51167 9.13489 7.88275 9.02789ZM12.5862 11.6505C12.5065 11.7621 12.2857 11.9397 11.8463 12.0672C10.7945 12.3836 8.9391 12.3836 7.88731 12.0672C7.4206 11.9283 7.21571 11.7644 7.13375 11.6642V10.4781C7.27262 10.5441 7.42743 10.6033 7.59363 10.6557C8.21059 10.8332 9.01651 10.938 9.8634 10.938C10.708 10.938 11.5117 10.8401 12.1309 10.6557C12.3039 10.6033 12.4519 10.5441 12.584 10.4849V11.6505H12.5862ZM12.5862 14.0205C12.5065 14.132 12.2857 14.3096 11.8463 14.4348C10.7945 14.7513 8.9391 14.7513 7.88731 14.4348C7.4206 14.296 7.20888 14.132 7.13375 14.0341V12.8412C7.27262 12.9004 7.42743 12.9596 7.60046 13.012C8.21286 13.1964 9.01651 13.2943 9.87023 13.2943C10.708 13.2943 11.5185 13.1964 12.14 13.012C12.2994 12.9664 12.4451 12.9072 12.5862 12.8412V14.0205ZM12.5862 16.2948C12.5862 16.4519 12.3062 16.6318 11.8463 16.7684C10.7832 17.0848 8.9391 17.0848 7.88048 16.7684C7.42288 16.6295 7.13603 16.4519 7.13603 16.2948V15.2157C7.2749 15.2749 7.42971 15.3341 7.60273 15.3865C8.21514 15.5709 9.01878 15.6688 9.87251 15.6688C10.7103 15.6688 11.5208 15.5709 12.1423 15.3865C12.3017 15.3409 12.4474 15.2795 12.5885 15.2157V16.2948H12.5862ZM9.2601 2C8.39499 2 4.15822 2.22994 3.99659 6.7103C3.12464 7.05179 2 7.88959 2 9.90438C2 12.4724 3.83039 13.3899 5.54013 13.3899H6.13887V16.2948C6.13887 16.7433 6.39158 17.3557 7.5959 17.7177C8.21286 17.9021 9.01878 18 9.86568 18C10.7035 18 11.5094 17.9021 12.1332 17.7177C13.3375 17.3557 13.5834 16.7433 13.5834 16.2948V13.3512L13.7154 13.3443C15.6915 13.3443 18 12.2516 18 9.16221C18 6.3506 16.1104 5.18953 14.2208 5.01195C13.2055 2.1457 9.92715 2 9.2601 2Z" fill="#86888C"/>
</svg>
