<svg width="28" height="28" viewBox="0 0 28 28" fill="none" xmlns="http://www.w3.org/2000/svg">
<path fill-rule="evenodd" clip-rule="evenodd" d="M22.3962 24.0179C21.0675 24.4141 19.3151 24.6327 17.4603 24.6327C15.6089 24.6327 13.8565 24.4141 12.5278 24.0179C11.5542 23.7241 10.3894 23.2049 10.3894 22.3953V21.1041C10.5295 21.1144 10.6661 21.1246 10.8096 21.1246C12.029 21.1246 13.1631 20.7591 14.1161 20.134C14.1571 20.1477 14.1947 20.1716 14.2425 20.1784C15.257 20.3253 16.3433 20.4005 17.4774 20.4005C19.4791 20.4005 21.3817 20.1613 22.8301 19.7241C23.4791 19.5294 24.0495 19.2698 24.5346 18.9692V22.3953C24.5346 23.2049 23.3698 23.7275 22.3962 24.0179ZM10.8096 10.4876C13.3373 10.4876 15.3971 12.5439 15.3971 15.0717C15.3971 17.5994 13.3407 19.6558 10.8096 19.6558C8.28181 19.6558 6.22203 17.5994 6.22203 15.0717C6.22203 12.5473 8.28181 10.4876 10.8096 10.4876ZM10.3894 7.41326C10.8574 7.70361 11.4313 7.95639 12.1178 8.16134C13.573 8.59857 15.4757 8.83769 17.474 8.83769C19.4722 8.83769 21.3749 8.59857 22.8301 8.16134C23.5132 7.95639 24.0734 7.71386 24.5346 7.43376V11.2186C24.2921 11.6148 23.6191 12.1613 22.4099 12.5268C21.0914 12.9231 19.339 13.1417 17.4774 13.1417C17.3544 13.1485 16.9137 13.1417 16.538 13.1246C15.725 10.7403 13.4671 9.01873 10.8096 9.01873C10.6661 9.01873 10.5295 9.02897 10.3894 9.03922V7.41326ZM12.5278 4.18184C13.8429 3.78559 15.5952 3.56698 17.4603 3.56698C19.3254 3.56698 21.0777 3.78559 22.3962 4.18184C23.2331 4.43461 24.2032 4.85135 24.4629 5.47646C24.2511 5.96151 23.5269 6.41241 22.4065 6.75058C21.0845 7.14682 19.3322 7.36544 17.474 7.36544C15.6123 7.36544 13.8599 7.14682 12.5414 6.75058C11.3937 6.40216 10.6695 5.94102 10.4748 5.4423C10.6968 4.96749 11.4108 4.52001 12.5278 4.18184ZM16.8659 15.0751C16.8659 14.918 16.8557 14.7608 16.842 14.6037C17.1255 14.6105 17.3851 14.6105 17.4774 14.6105C19.4757 14.6105 21.3783 14.368 22.8301 13.9308C23.4791 13.7361 24.0495 13.4765 24.5346 13.1759V17.0153C24.2921 17.4116 23.6191 17.9581 22.4099 18.3236C21.0914 18.7198 19.3424 18.9385 17.4774 18.9385C16.8079 18.9385 16.1657 18.9009 15.5406 18.8462C16.3672 17.8078 16.8659 16.4995 16.8659 15.0751ZM22.8198 2.77791C21.3681 2.34067 19.4654 2.10156 17.4603 2.10156C15.4552 2.10156 13.5559 2.34409 12.1042 2.77791C10.3553 3.30395 9.31341 4.10669 9.01281 5.15878V5.16219C8.95474 5.37056 8.924 5.58918 8.924 5.80438V9.32616C6.50897 10.1221 4.75662 12.397 4.75662 15.0751C4.75662 16.5576 5.29291 17.9137 6.18104 18.9692L2.2152 22.935C1.92827 23.222 1.92827 23.6865 2.2152 23.9735C2.35867 24.1169 2.54654 24.1887 2.73441 24.1887C2.92229 24.1887 3.11016 24.1169 3.25363 23.9735L7.25704 19.9632C7.75918 20.3321 8.31938 20.6225 8.92058 20.8206V22.3953C8.92058 23.7685 9.99317 24.7864 12.1042 25.4252C13.5662 25.8625 15.4688 26.1016 17.4603 26.1016C19.4517 26.1016 21.3544 25.8625 22.8198 25.4252C24.9308 24.7899 26.0034 23.7685 26.0034 22.3953V5.80096C26.0034 4.4312 24.9308 3.41326 22.8198 2.77791Z" fill="#86888C"/>
</svg>
