<svg width="40" height="40" viewBox="0 0 40 40" fill="none" xmlns="http://www.w3.org/2000/svg">
<path fill-rule="evenodd" clip-rule="evenodd" d="M32.5944 34.976C30.6012 35.5704 27.9727 35.8983 25.1904 35.8983C22.4133 35.8983 19.7848 35.5704 17.7916 34.976C16.3313 34.5354 14.5841 33.7566 14.5841 32.5422V30.6054C14.7942 30.6208 14.9991 30.6361 15.2143 30.6361C17.0436 30.6361 18.7447 30.0879 20.1742 29.1502C20.2357 29.1707 20.2921 29.2066 20.3638 29.2168C21.8856 29.4372 23.5149 29.5499 25.2161 29.5499C28.2186 29.5499 31.0726 29.1912 33.2451 28.5354C34.2186 28.2433 35.0743 27.8539 35.8019 27.403V32.5422C35.8019 33.7566 34.0547 34.5405 32.5944 34.976ZM15.2143 14.6806C19.006 14.6806 22.0956 17.7651 22.0956 21.5567C22.0956 25.3484 19.0111 28.4329 15.2143 28.4329C11.4227 28.4329 8.33305 25.3484 8.33305 21.5567C8.33305 17.7702 11.4227 14.6806 15.2143 14.6806ZM14.5841 10.0691C15.2861 10.5046 16.1469 10.8838 17.1768 11.1912C19.3595 11.8471 22.2135 12.2057 25.2109 12.2057C28.2084 12.2057 31.0623 11.8471 33.2451 11.1912C34.2699 10.8838 35.1102 10.52 35.8019 10.0999V15.7771C35.4381 16.3714 34.4287 17.1912 32.6149 17.7395C30.6371 18.3338 28.0085 18.6618 25.2161 18.6618C25.0316 18.672 24.3706 18.6618 23.807 18.6361C22.5875 15.0597 19.2007 12.4773 15.2143 12.4773C14.9991 12.4773 14.7942 12.4927 14.5841 12.5081V10.0691ZM17.7916 5.22197C19.7643 4.62761 22.3928 4.29968 25.1904 4.29968C27.988 4.29968 30.6166 4.62761 32.5944 5.22197C33.8497 5.60114 35.3049 6.22624 35.6943 7.1639C35.3766 7.89149 34.2904 8.56783 32.6097 9.07509C30.6268 9.66945 27.9983 9.99738 25.2109 9.99738C22.4184 9.99738 19.7899 9.66945 17.8121 9.07509C16.0905 8.55246 15.0043 7.86074 14.7122 7.11266C15.0453 6.40045 16.1161 5.72923 17.7916 5.22197ZM24.2989 21.5619C24.2989 21.3262 24.2835 21.0905 24.263 20.8548C24.6883 20.865 25.0777 20.865 25.2161 20.865C28.2135 20.865 31.0675 20.5012 33.2451 19.8454C34.2186 19.5533 35.0743 19.1639 35.8019 18.713V24.4722C35.4381 25.0665 34.4287 25.8864 32.6149 26.4346C30.6371 27.029 28.0137 27.3569 25.2161 27.3569C24.2118 27.3569 23.2485 27.3005 22.3108 27.2186C23.5508 25.6609 24.2989 23.6985 24.2989 21.5619ZM33.2297 3.11608C31.0521 2.46023 28.1981 2.10156 25.1904 2.10156C22.1828 2.10156 19.3339 2.46535 17.1563 3.11608C14.5329 3.90515 12.9701 5.10925 12.5192 6.68739V6.69251C12.4321 7.00506 12.386 7.33299 12.386 7.65579V12.9385C8.76345 14.1323 6.13493 17.5448 6.13493 21.5619C6.13493 23.7856 6.93937 25.8197 8.27156 27.403L2.3228 33.3518C1.8924 33.7822 1.8924 34.479 2.3228 34.9094C2.538 35.1246 2.81981 35.2322 3.10162 35.2322C3.38343 35.2322 3.66524 35.1246 3.88044 34.9094L9.88557 28.894C10.6388 29.4474 11.4791 29.8829 12.3809 30.1801V32.5422C12.3809 34.602 13.9898 36.1289 17.1563 37.087C19.3493 37.7429 22.2032 38.1016 25.1904 38.1016C28.1776 38.1016 31.0316 37.7429 33.2297 37.087C36.3962 36.134 38.0051 34.602 38.0051 32.5422V7.65067C38.0051 5.59601 36.3962 4.06911 33.2297 3.11608Z" fill="#86888C"/>
</svg>
