<svg width="24" height="24" viewBox="0 0 24 24" fill="none" xmlns="http://www.w3.org/2000/svg">
<path fill-rule="evenodd" clip-rule="evenodd" d="M12.3202 17.7051H11.7481C7.07471 17.6397 6.57094 13.766 6.57094 12.1039C6.57094 10.4531 7.06902 6.59656 11.6883 6.55386H12.286C13.8514 6.59656 17.5059 7.21702 17.5059 12.1466C17.5059 17.0761 13.8799 17.671 12.3202 17.7051ZM21.371 11.3326H18.8635C18.8123 11.3326 18.7696 11.3497 18.7298 11.3582C18.596 9.65618 18.0638 8.43233 17.3408 7.55287C17.3664 7.53579 17.3835 7.52725 17.4006 7.51018L19.2022 5.71425C19.4555 5.46378 19.4555 5.07101 19.2022 4.82624C18.9575 4.57578 18.5618 4.57578 18.3085 4.82624L16.5069 6.61933C16.4898 6.6364 16.4813 6.66202 16.4642 6.68763C15.1094 5.63171 13.4928 5.37271 12.6333 5.31294V2.629C12.6333 2.28462 12.3458 2 12.0014 2C11.6485 2 11.3696 2.28462 11.3696 2.629V5.30155C10.493 5.35278 8.90195 5.59471 7.56425 6.63356C7.54718 6.61648 7.53864 6.58233 7.51302 6.56809L5.76263 4.8234C5.51786 4.57293 5.1137 4.57293 4.86893 4.8234C4.62416 5.06532 4.62416 5.46094 4.86893 5.7114L6.61933 7.4561C6.64494 7.47318 6.67056 7.48171 6.69617 7.50733C5.99032 8.38679 5.46663 9.62772 5.34994 11.3553C5.30724 11.3468 5.27309 11.3297 5.23324 11.3297H2.63185C2.28746 11.3297 2 11.6143 2 11.9587C2 12.3031 2.28746 12.5877 2.63185 12.5877H5.23324C5.2674 12.5877 5.30155 12.5707 5.33286 12.5707C5.40971 14.3068 5.86225 15.5819 6.52825 16.5012C6.51117 16.5183 6.48556 16.5268 6.45994 16.5524L4.72663 18.2801C4.47332 18.5305 4.47332 18.9261 4.72663 19.1681C4.84332 19.2933 5.00555 19.3531 5.17347 19.3531C5.29017 19.3531 5.40971 19.3104 5.50932 19.2449C5.60324 19.2108 5.69432 19.1681 5.76263 19.0941L7.35364 17.5173C7.37071 17.4917 7.37925 17.4689 7.40487 17.4404C8.75964 18.6045 10.4446 18.8834 11.3696 18.9404V21.371C11.3696 21.7239 11.6485 22 12.0014 22C12.3458 22 12.6333 21.7239 12.6333 21.371V18.9575C12.6333 18.9489 12.6247 18.9489 12.6247 18.9404C13.5184 18.892 15.2688 18.6216 16.6748 17.4319C16.6919 17.4575 16.7004 17.4888 16.7261 17.5144L18.3085 19.0912C18.4338 19.2165 18.596 19.2762 18.7554 19.2762C18.9233 19.2762 19.0827 19.2193 19.1994 19.0912C19.4527 18.8493 19.4527 18.4451 19.1994 18.2032L17.6169 16.6264C17.5828 16.5923 17.5401 16.5752 17.5002 16.5496C18.1918 15.6189 18.6785 14.3267 18.7468 12.5593C18.7895 12.5678 18.8237 12.5849 18.8635 12.5849H21.371C21.7154 12.5849 22.0028 12.3003 22.0028 11.9559C22.0028 11.6172 21.7154 11.3326 21.371 11.3326Z" fill="#86888C"/>
</svg>
