<svg width="40" height="40" viewBox="0 0 40 40" fill="none" xmlns="http://www.w3.org/2000/svg">
<path fill-rule="evenodd" clip-rule="evenodd" d="M30.3882 31.7507C28.6107 28.9949 27.494 25.1633 27.2943 21.0757H35.6437C35.362 25.317 33.3899 29.0871 30.3882 31.7507ZM21.1935 35.6386V21.0706H24.9892C25.2043 25.6653 26.49 30.0142 28.5595 33.144C26.362 34.5936 23.8213 35.4491 21.1935 35.6386ZM14.9135 21.0706H18.8987V35.654C16.2043 35.4644 13.6022 34.5834 11.3483 33.0979C13.4434 29.9425 14.6983 25.6858 14.9135 21.0706ZM4.34604 21.0706H12.6135C12.4189 25.1172 11.2971 28.9283 9.535 31.6841C6.49232 28.959 4.6329 25.1531 4.34604 21.0706ZM9.73478 8.16221C11.4508 10.9641 12.4804 14.7342 12.6289 18.7758H4.36141C4.68412 14.6676 6.61525 10.8515 9.73478 8.16221ZM18.8987 4.36141V18.7758H14.9289C14.7752 14.2271 13.5766 9.95504 11.5737 6.77917C13.7712 5.3654 16.2914 4.53557 18.8987 4.36141ZM24.9943 18.7758H21.1986V4.36141C23.7547 4.55094 26.2186 5.37564 28.3802 6.75356C26.3569 9.93455 25.148 14.2117 24.9943 18.7758ZM35.6437 18.7758H27.2943C27.4479 14.7598 28.5083 10.9027 30.2242 8.11611C33.3643 10.8105 35.3159 14.642 35.6437 18.7758ZM20 2C10.0729 2 2 10.0882 2 20C2 29.9271 10.0729 38 20 38C29.9271 38 38 29.9271 38 20C38 10.0882 29.9271 2 20 2Z" fill="#86888C"/>
</svg>
