<svg width="28" height="28" viewBox="0 0 28 28" fill="none" xmlns="http://www.w3.org/2000/svg">
<path d="M17.7205 26H8.9613C6.29425 26 5 24.689 5 21.9886V6.01138C5 3.34851 6.33182 2 8.9613 2H17.7205C19.0694 2 20.0495 2.33115 20.712 3.01394C21.3643 3.68307 21.6818 4.66287 21.6818 6.01138V7.73883C21.6818 8.11437 21.3745 8.42162 20.9989 8.42162C20.6232 8.42162 20.3159 8.11437 20.3159 7.73883V6.01138C20.3159 5.03841 20.1246 4.36586 19.7353 3.96643C19.346 3.567 18.6836 3.36558 17.7205 3.36558H8.9613C7.09334 3.36558 6.36596 4.1064 6.36596 6.01138V21.9886C6.36596 22.9718 6.5572 23.6444 6.94991 24.0438C7.34263 24.4432 7.99829 24.6344 8.9613 24.6344H17.7205C18.6836 24.6344 19.3392 24.4398 19.7319 24.0438C20.1246 23.6478 20.3159 22.9718 20.3159 21.9886V18.544C20.3159 18.1684 20.6232 17.8612 20.9989 17.8612C21.3745 17.8612 21.6818 18.1684 21.6818 18.544V21.9886C21.6818 24.689 20.3842 26 17.7205 26Z" fill="#86888C"/>
<path d="M13.329 20.6572C12.6255 20.6572 12.1645 21.0293 12.1645 21.8248C12.1645 22.2071 12.2704 22.4905 12.4582 22.6851C12.6631 22.8933 12.9602 22.9923 13.329 22.9923C13.6978 22.9923 13.9949 22.8933 14.1998 22.6851C14.3876 22.4939 14.4935 22.2071 14.4935 21.8248C14.49 21.0259 14.0324 20.6572 13.329 20.6572ZM23.7615 18.8341H18.1952C17.3483 18.8341 16.8019 18.2879 16.8019 17.4413V10.0023C16.8019 9.84182 16.8771 9.68819 17.0068 9.5926L19.6705 7.60228C19.7593 7.53741 19.8685 7.49986 19.9778 7.49986H23.7615C24.6084 7.49986 25.1548 8.04609 25.1548 8.89275V17.4447C25.1514 18.2879 24.605 18.8341 23.7615 18.8341ZM17.8264 10.2583V17.4413C17.8264 17.728 17.9084 17.81 18.1952 17.81H23.7615C24.0484 17.81 24.1303 17.728 24.1303 17.4413V8.89275C24.1303 8.60598 24.0484 8.52404 23.7615 8.52404H20.1486L17.8264 10.2583Z" fill="#86888C"/>
<path d="M23.0478 16.9838H18.9329C18.745 16.9838 18.5914 16.8302 18.5914 16.6424V12.3238C18.5914 12.136 18.745 11.9824 18.9329 11.9824H23.0478C23.2356 11.9824 23.3893 12.136 23.3893 12.3238V16.6424C23.3893 16.8336 23.2356 16.9838 23.0478 16.9838ZM19.2778 16.301H22.7063V12.6651H19.2744L19.2778 16.301Z" fill="#86888C"/>
<path d="M20.3022 14.0341C20.1144 14.0341 19.9608 13.8805 19.9608 13.6927V12.3238C19.9608 12.136 20.1144 11.9824 20.3022 11.9824C20.4901 11.9824 20.6437 12.136 20.6437 12.3238V13.6927C20.6437 13.8839 20.4901 14.0341 20.3022 14.0341ZM21.6716 14.0341C21.4838 14.0341 21.3301 13.8805 21.3301 13.6927V12.3238C21.3301 12.136 21.4838 11.9824 21.6716 11.9824C21.8594 11.9824 22.0131 12.136 22.0131 12.3238V13.6927C22.0131 13.8839 21.8594 14.0341 21.6716 14.0341ZM20.3022 16.9838C20.1144 16.9838 19.9608 16.8302 19.9608 16.6424V15.2734C19.9608 15.0856 20.1144 14.932 20.3022 14.932C20.4901 14.932 20.6437 15.0856 20.6437 15.2734V16.6424C20.6437 16.8336 20.4901 16.9838 20.3022 16.9838ZM21.6716 16.9838C21.4838 16.9838 21.3301 16.8302 21.3301 16.6424V15.2734C21.3301 15.0856 21.4838 14.932 21.6716 14.932C21.8594 14.932 22.0131 15.0856 22.0131 15.2734V16.6424C22.0131 16.8336 21.8594 16.9838 21.6716 16.9838Z" fill="#86888C"/>
<path d="M23.0478 14.0341H18.9329C18.745 14.0341 18.5914 13.8805 18.5914 13.6927C18.5914 13.505 18.745 13.3514 18.9329 13.3514H23.0478C23.2356 13.3514 23.3893 13.505 23.3893 13.6927C23.3893 13.8805 23.2356 14.0341 23.0478 14.0341ZM23.0478 15.6148H18.9329C18.745 15.6148 18.5914 15.4612 18.5914 15.2734C18.5914 15.0856 18.745 14.932 18.9329 14.932H23.0478C23.2356 14.932 23.3893 15.0856 23.3893 15.2734C23.3893 15.4612 23.2356 15.6148 23.0478 15.6148Z" fill="#86888C"/>
</svg>
