<svg width="24" height="24" viewBox="0 0 24 24" fill="none" xmlns="http://www.w3.org/2000/svg">
<path d="M14.6005 22H7.30108C5.07854 22 4 20.9075 4 18.6572V5.34282C4 3.12376 5.10985 2 7.30108 2H14.6005C15.7245 2 16.5413 2.27596 17.0933 2.84495C17.6369 3.40256 17.9015 4.21906 17.9015 5.34282V6.78236C17.9015 7.09531 17.6454 7.35135 17.3324 7.35135C17.0194 7.35135 16.7632 7.09531 16.7632 6.78236V5.34282C16.7632 4.53201 16.6039 3.97155 16.2795 3.63869C15.955 3.30583 15.403 3.13798 14.6005 3.13798H7.30108C5.74445 3.13798 5.1383 3.75533 5.1383 5.34282V18.6572C5.1383 19.4765 5.29767 20.037 5.62493 20.3698C5.95219 20.7027 6.49858 20.862 7.30108 20.862H14.6005C15.403 20.862 15.9493 20.6999 16.2766 20.3698C16.6039 20.0398 16.7632 19.4765 16.7632 18.6572V15.7866C16.7632 15.4737 17.0194 15.2176 17.3324 15.2176C17.6454 15.2176 17.9015 15.4737 17.9015 15.7866V18.6572C17.9015 20.9075 16.8201 22 14.6005 22Z" fill="#86888C"/>
<path d="M10.9408 17.5477C10.3546 17.5477 9.97041 17.8578 9.97041 18.5206C9.97041 18.8393 10.0586 19.0754 10.2151 19.2376C10.3859 19.4111 10.6335 19.4936 10.9408 19.4936C11.2482 19.4936 11.4957 19.4111 11.6665 19.2376C11.823 19.0782 11.9112 18.8393 11.9112 18.5206C11.9084 17.8549 11.527 17.5477 10.9408 17.5477ZM19.6346 16.0285H14.996C14.2903 16.0285 13.835 15.5733 13.835 14.8677V8.66856C13.835 8.53485 13.8976 8.40683 14.0057 8.32717L16.2254 6.66856C16.2994 6.61451 16.3904 6.58322 16.4815 6.58322H19.6346C20.3404 6.58322 20.7957 7.03841 20.7957 7.74396V14.8706C20.7928 15.5733 20.3375 16.0285 19.6346 16.0285ZM14.6887 8.88194V14.8677C14.6887 15.1067 14.757 15.175 14.996 15.175H19.6346C19.8737 15.175 19.942 15.1067 19.942 14.8677V7.74396C19.942 7.50498 19.8737 7.4367 19.6346 7.4367H16.6238L14.6887 8.88194Z" fill="#86888C"/>
<path d="M19.0399 14.4865H15.6107C15.4542 14.4865 15.3261 14.3585 15.3261 14.202V10.6031C15.3261 10.4467 15.4542 10.3186 15.6107 10.3186H19.0399C19.1964 10.3186 19.3244 10.4467 19.3244 10.6031V14.202C19.3244 14.3613 19.1964 14.4865 19.0399 14.4865ZM15.8981 13.9175H18.7553V10.8876H15.8953L15.8981 13.9175Z" fill="#86888C"/>
<path d="M16.7519 12.0284C16.5954 12.0284 16.4673 11.9004 16.4673 11.744V10.6031C16.4673 10.4467 16.5954 10.3186 16.7519 10.3186C16.9084 10.3186 17.0364 10.4467 17.0364 10.6031V11.744C17.0364 11.9033 16.9084 12.0284 16.7519 12.0284ZM17.893 12.0284C17.7365 12.0284 17.6084 11.9004 17.6084 11.744V10.6031C17.6084 10.4467 17.7365 10.3186 17.893 10.3186C18.0495 10.3186 18.1776 10.4467 18.1776 10.6031V11.744C18.1776 11.9033 18.0495 12.0284 17.893 12.0284ZM16.7519 14.4865C16.5954 14.4865 16.4673 14.3585 16.4673 14.202V13.0612C16.4673 12.9047 16.5954 12.7767 16.7519 12.7767C16.9084 12.7767 17.0364 12.9047 17.0364 13.0612V14.202C17.0364 14.3613 16.9084 14.4865 16.7519 14.4865ZM17.893 14.4865C17.7365 14.4865 17.6084 14.3585 17.6084 14.202V13.0612C17.6084 12.9047 17.7365 12.7767 17.893 12.7767C18.0495 12.7767 18.1776 12.9047 18.1776 13.0612V14.202C18.1776 14.3613 18.0495 14.4865 17.893 14.4865Z" fill="#86888C"/>
<path d="M19.0399 12.0285H15.6107C15.4542 12.0285 15.3261 11.9004 15.3261 11.744C15.3261 11.5875 15.4542 11.4595 15.6107 11.4595H19.0399C19.1964 11.4595 19.3244 11.5875 19.3244 11.744C19.3244 11.9004 19.1964 12.0285 19.0399 12.0285ZM19.0399 13.3457H15.6107C15.4542 13.3457 15.3261 13.2176 15.3261 13.0612C15.3261 12.9047 15.4542 12.7767 15.6107 12.7767H19.0399C19.1964 12.7767 19.3244 12.9047 19.3244 13.0612C19.3244 13.2176 19.1964 13.3457 19.0399 13.3457Z" fill="#86888C"/>
</svg>
