<svg width="20" height="20" viewBox="0 0 20 20" fill="none" xmlns="http://www.w3.org/2000/svg">
<path d="M11.4804 18H5.64087C3.86283 18 3 17.126 3 15.3257V4.67425C3 2.899 3.88788 2 5.64087 2H11.4804C12.3796 2 13.033 2.22077 13.4747 2.67596C13.9095 3.12205 14.1212 3.77525 14.1212 4.67425V5.82589C14.1212 6.07624 13.9163 6.28108 13.6659 6.28108C13.4155 6.28108 13.2106 6.07624 13.2106 5.82589V4.67425C13.2106 4.0256 13.0831 3.57724 12.8236 3.31095C12.564 3.04467 12.1224 2.91038 11.4804 2.91038H5.64087C4.39556 2.91038 3.91064 3.40427 3.91064 4.67425V15.3257C3.91064 15.9812 4.03813 16.4296 4.29994 16.6959C4.56175 16.9622 4.99886 17.0896 5.64087 17.0896H11.4804C12.1224 17.0896 12.5595 16.9599 12.8213 16.6959C13.0831 16.4319 13.2106 15.9812 13.2106 15.3257V13.0293C13.2106 12.7789 13.4155 12.5741 13.6659 12.5741C13.9163 12.5741 14.1212 12.7789 14.1212 13.0293V15.3257C14.1212 17.126 13.2561 18 11.4804 18Z" fill="#86888C"/>
<path d="M8.55265 14.4381C8.08367 14.4381 7.77633 14.6862 7.77633 15.2165C7.77633 15.4714 7.8469 15.6603 7.97212 15.79C8.10871 15.9289 8.30678 15.9949 8.55265 15.9949C8.79852 15.9949 8.99659 15.9289 9.13319 15.79C9.2584 15.6626 9.32897 15.4714 9.32897 15.2165C9.3267 14.6839 9.02163 14.4381 8.55265 14.4381ZM15.5077 13.2228H11.7968C11.2322 13.2228 10.868 12.8586 10.868 12.2942V7.33485C10.868 7.22788 10.918 7.12546 11.0046 7.06174L12.7803 5.73485C12.8395 5.69161 12.9124 5.66657 12.9852 5.66657H15.5077C16.0723 5.66657 16.4365 6.03073 16.4365 6.59516V12.2964C16.4343 12.8586 16.07 13.2228 15.5077 13.2228ZM11.5509 7.50555V12.2942C11.5509 12.4853 11.6056 12.54 11.7968 12.54H15.5077C15.6989 12.54 15.7536 12.4853 15.7536 12.2942V6.59516C15.7536 6.40398 15.6989 6.34936 15.5077 6.34936H13.099L11.5509 7.50555Z" fill="#86888C"/>
<path d="M15.0319 11.9892H12.2886C12.1634 11.9892 12.0609 11.8868 12.0609 11.7616V8.8825C12.0609 8.75733 12.1634 8.65491 12.2886 8.65491H15.0319C15.1571 8.65491 15.2595 8.75733 15.2595 8.8825V11.7616C15.2595 11.889 15.1571 11.9892 15.0319 11.9892ZM12.5185 11.534H14.8042V9.1101H12.5162L12.5185 11.534Z" fill="#86888C"/>
<path d="M13.2015 10.0228C13.0763 10.0228 12.9738 9.92034 12.9738 9.79516V8.8825C12.9738 8.75733 13.0763 8.65491 13.2015 8.65491C13.3267 8.65491 13.4292 8.75733 13.4292 8.8825V9.79516C13.4292 9.92262 13.3267 10.0228 13.2015 10.0228ZM14.1144 10.0228C13.9892 10.0228 13.8868 9.92034 13.8868 9.79516V8.8825C13.8868 8.75733 13.9892 8.65491 14.1144 8.65491C14.2396 8.65491 14.3421 8.75733 14.3421 8.8825V9.79516C14.3421 9.92262 14.2396 10.0228 14.1144 10.0228ZM13.2015 11.9892C13.0763 11.9892 12.9738 11.8868 12.9738 11.7616V10.8489C12.9738 10.7238 13.0763 10.6213 13.2015 10.6213C13.3267 10.6213 13.4292 10.7238 13.4292 10.8489V11.7616C13.4292 11.889 13.3267 11.9892 13.2015 11.9892ZM14.1144 11.9892C13.9892 11.9892 13.8868 11.8868 13.8868 11.7616V10.8489C13.8868 10.7238 13.9892 10.6213 14.1144 10.6213C14.2396 10.6213 14.3421 10.7238 14.3421 10.8489V11.7616C14.3421 11.889 14.2396 11.9892 14.1144 11.9892Z" fill="#86888C"/>
<path d="M15.0319 10.0228H12.2886C12.1634 10.0228 12.0609 9.92034 12.0609 9.79516C12.0609 9.66999 12.1634 9.56757 12.2886 9.56757H15.0319C15.1571 9.56757 15.2595 9.66999 15.2595 9.79516C15.2595 9.92034 15.1571 10.0228 15.0319 10.0228ZM15.0319 11.0765H12.2886C12.1634 11.0765 12.0609 10.9741 12.0609 10.8489C12.0609 10.7238 12.1634 10.6213 12.2886 10.6213H15.0319C15.1571 10.6213 15.2595 10.7238 15.2595 10.8489C15.2595 10.9741 15.1571 11.0765 15.0319 11.0765Z" fill="#86888C"/>
</svg>
