<svg width="28" height="28" viewBox="0 0 28 28" fill="none" xmlns="http://www.w3.org/2000/svg">
<path fill-rule="evenodd" clip-rule="evenodd" d="M20.0751 8.99773L21.4821 4.65055L23.975 8.99773H20.0751ZM19.6005 10.4661H23.8145L16.1582 21.0933L19.6005 10.4661ZM8.39271 10.4661L11.8349 21.0933L4.18213 10.4661H8.39271ZM9.19863 8.13376L7.71998 3.56461H12.5862L9.19863 8.13376ZM15.4069 3.56461H20.2732L18.7945 8.13376L15.4069 3.56461ZM10.4007 8.99773L13.9966 4.14856L17.5925 8.99773H10.4007ZM18.0398 10.4661L13.9966 22.9545L9.95333 10.4661H18.0398ZM6.5111 4.65055L7.91804 8.99773H4.0148L6.5111 4.65055ZM25.9932 9.7456C25.9932 9.74218 25.9966 9.73535 25.9966 9.73194C25.9966 9.71828 25.9898 9.70803 25.9898 9.69437C25.9863 9.62607 25.9693 9.55436 25.9488 9.48948C25.9419 9.46557 25.9317 9.44167 25.9215 9.42118C25.9146 9.4041 25.9112 9.38703 25.901 9.37337L21.9397 2.47183C21.9328 2.45818 21.9158 2.45135 21.9055 2.43769C21.8543 2.35573 21.786 2.29084 21.704 2.23621C21.6699 2.21572 21.6392 2.19864 21.6084 2.18157C21.5777 2.16449 21.5538 2.144 21.5196 2.13376C21.465 2.11668 21.4138 2.1201 21.3625 2.11668C21.3386 2.11327 21.3182 2.09961 21.2942 2.09961H6.70233C6.67843 2.09961 6.65794 2.11668 6.63745 2.11668C6.58281 2.1201 6.53159 2.11668 6.47695 2.13376C6.4428 2.144 6.4189 2.16791 6.38816 2.18157C6.35401 2.19864 6.32328 2.2123 6.29254 2.23621C6.21059 2.29084 6.14229 2.35914 6.09106 2.43769C6.08082 2.44793 6.06374 2.45476 6.05691 2.47183L2.09562 9.37337C2.08537 9.39045 2.08537 9.40752 2.07513 9.42118C2.06488 9.44508 2.05805 9.46557 2.04781 9.48948C2.0239 9.55436 2.01024 9.62607 2.00683 9.69437C2.00683 9.70803 2 9.72169 2 9.73535C2 9.73877 2.00341 9.7456 2.00341 9.74901C2.00683 9.8378 2.0239 9.91976 2.05464 10.0017C2.06488 10.0222 2.07513 10.0393 2.08196 10.0564C2.09903 10.0905 2.11269 10.1281 2.1366 10.1622L13.3921 25.7923L13.3956 25.7957C13.457 25.8776 13.539 25.9425 13.6278 25.9937C13.6517 26.004 13.6722 26.0176 13.6961 26.0279C13.7883 26.0689 13.8907 26.0996 13.9966 26.0996C14.1059 26.0996 14.2049 26.0689 14.3005 26.0279C14.3244 26.0176 14.3449 26.0074 14.3654 25.9937C14.4542 25.9425 14.5361 25.8776 14.5976 25.7957L14.601 25.7923L25.8566 10.1622C25.8805 10.1281 25.8941 10.0905 25.9112 10.0564C25.9215 10.0393 25.9317 10.0222 25.9385 10.0017C25.9727 9.91634 25.9932 9.83438 25.9932 9.7456Z" fill="#86888C"/>
</svg>
