<svg width="20" height="20" viewBox="0 0 20 20" fill="none" xmlns="http://www.w3.org/2000/svg">
<path fill-rule="evenodd" clip-rule="evenodd" d="M14.0501 6.69836L14.988 3.80024L16.65 6.69836H14.0501ZM13.7336 7.6773H16.543L11.4388 14.7621L13.7336 7.6773ZM6.26181 7.6773L8.55663 14.7621L3.45475 7.6773H6.26181ZM6.79909 6.12238L5.81332 3.07627H9.05748L6.79909 6.12238ZM10.938 3.07627H14.1821L13.1964 6.12238L10.938 3.07627ZM7.60046 6.69836L9.99772 3.46557L12.395 6.69836H7.60046ZM12.6932 7.6773L9.99772 16.0029L7.30222 7.6773H12.6932ZM5.0074 3.80024L5.94536 6.69836H3.3432L5.0074 3.80024ZM17.9954 7.19693C17.9954 7.19466 17.9977 7.1901 17.9977 7.18783C17.9977 7.17872 17.9932 7.17189 17.9932 7.16279C17.9909 7.11725 17.9795 7.06944 17.9659 7.02619C17.9613 7.01025 17.9545 6.99432 17.9476 6.98066C17.9431 6.96927 17.9408 6.95789 17.934 6.94878L15.2931 2.34776C15.2886 2.33865 15.2772 2.3341 15.2703 2.32499C15.2362 2.27035 15.1907 2.2271 15.136 2.19067C15.1133 2.17701 15.0928 2.16563 15.0723 2.15425C15.0518 2.14286 15.0359 2.12921 15.0131 2.12238C14.9767 2.11099 14.9425 2.11327 14.9084 2.11099C14.8924 2.10872 14.8788 2.09961 14.8628 2.09961H5.13489C5.11895 2.09961 5.10529 2.11099 5.09163 2.11099C5.05521 2.11327 5.02106 2.11099 4.98463 2.12238C4.96187 2.12921 4.94593 2.14514 4.92544 2.15425C4.90267 2.16563 4.88219 2.17474 4.8617 2.19067C4.80706 2.2271 4.76153 2.27263 4.72738 2.32499C4.72055 2.33182 4.70916 2.33638 4.70461 2.34776L2.06375 6.94878C2.05692 6.96017 2.05692 6.97155 2.05009 6.98066C2.04326 6.99659 2.0387 7.01025 2.03187 7.02619C2.01594 7.06944 2.00683 7.11725 2.00455 7.16279C2.00455 7.17189 2 7.181 2 7.1901C2 7.19238 2.00228 7.19693 2.00228 7.19921C2.00455 7.2584 2.01594 7.31304 2.03643 7.36768C2.04326 7.38134 2.05009 7.39272 2.05464 7.40411C2.06602 7.42687 2.07513 7.45191 2.09106 7.47468L9.59476 17.8947L9.59704 17.897C9.63802 17.9516 9.69266 17.9949 9.75185 18.029C9.76779 18.0359 9.78145 18.045 9.79738 18.0518C9.85885 18.0791 9.92715 18.0996 9.99772 18.0996C10.0706 18.0996 10.1366 18.0791 10.2003 18.0518C10.2163 18.045 10.2299 18.0381 10.2436 18.029C10.3028 17.9949 10.3574 17.9516 10.3984 17.897L10.4007 17.8947L17.9044 7.47468C17.9203 7.45191 17.9294 7.42687 17.9408 7.40411C17.9476 7.39272 17.9545 7.38134 17.959 7.36768C17.9818 7.31076 17.9954 7.25613 17.9954 7.19693Z" fill="#86888C"/>
</svg>
