<svg width="28" height="28" viewBox="0 0 28 28" fill="none" xmlns="http://www.w3.org/2000/svg">
<path d="M14.1537 17.2291H11.559C11.1244 17.2291 10.8315 16.9363 10.8315 16.4986V9.02602C10.8315 8.59146 11.1244 8.30176 11.559 8.30176H14.7079C14.8339 8.30176 14.9536 8.35214 15.0417 8.44031L17.1673 10.569C17.2555 10.6572 17.3059 10.7769 17.3059 10.9028V16.5112C17.3059 16.9331 17.0099 17.2291 16.5879 17.2291H14.1537ZM11.7762 16.2844H16.3612V11.0981L14.5096 9.24645H11.7762V16.2844Z" fill="#86888C"/>
<path d="M15.5583 12.6635H12.5825C12.4093 12.6635 12.2676 12.5218 12.2676 12.3486C12.2676 12.1754 12.4093 12.0337 12.5825 12.0337H15.5614C15.7346 12.0337 15.8763 12.1754 15.8763 12.3486C15.8763 12.5218 15.7315 12.6635 15.5583 12.6635ZM15.5583 13.9419H12.5825C12.4093 13.9419 12.2676 13.8002 12.2676 13.627C12.2676 13.4539 12.4093 13.3121 12.5825 13.3121H15.5614C15.7346 13.3121 15.8763 13.4539 15.8763 13.627C15.8763 13.8002 15.7315 13.9419 15.5583 13.9419ZM15.5583 15.2173H12.5825C12.4093 15.2173 12.2676 15.0756 12.2676 14.9024C12.2676 14.7292 12.4093 14.5875 12.5825 14.5875H15.5614C15.7346 14.5875 15.8763 14.7292 15.8763 14.9024C15.8763 15.0756 15.7315 15.2173 15.5583 15.2173ZM16.7297 11.322H15.4166C14.7206 11.322 14.2892 10.8182 14.2892 10.0057V8.87838C14.2892 8.70518 14.4309 8.56348 14.6041 8.56348C14.6891 8.56348 14.7679 8.59812 14.8277 8.6548L16.9501 10.7835C17.0729 10.9063 17.0729 11.1047 16.9501 11.2275C16.8903 11.2873 16.8116 11.322 16.7297 11.322ZM14.919 9.64043V10.0057C14.919 10.4592 15.0859 10.6922 15.4166 10.6922H15.9676L14.919 9.64043Z" fill="#86888C"/>
<path d="M21.4373 19.5438H6.70006C5.46566 19.5438 4.51781 19.1754 3.88487 18.4542C3.29915 17.7772 3 16.801 3 15.5477V9.99606C3 8.74277 3.29915 7.76658 3.88487 7.0927C4.51781 6.36843 5.46251 6 6.70006 6H21.4373C22.6717 6 23.6196 6.36843 24.2525 7.0927C24.8414 7.76658 25.1374 8.74277 25.1374 9.99606V15.5477C25.1374 16.801 24.8382 17.7772 24.2525 18.4511C23.6196 19.1754 22.6717 19.5438 21.4373 19.5438ZM6.70006 7.26274C5.83094 7.26274 5.22318 7.48002 4.83586 7.92403C4.45483 8.35859 4.25959 9.05767 4.25959 9.99606V15.5477C4.25959 16.4861 4.45483 17.1852 4.83586 17.6229C5.22318 18.0669 5.83409 18.2842 6.70006 18.2842H21.4373C22.3033 18.2842 22.9142 18.0669 23.3015 17.6229C23.6825 17.1852 23.8778 16.4861 23.8778 15.5477V9.99606C23.8778 9.05767 23.6825 8.35859 23.3015 7.92088C22.9142 7.47687 22.3033 7.25959 21.4373 7.25959L6.70006 7.26274ZM24.4698 22H3.66759C3.3212 22 3.03779 21.7166 3.03779 21.3702C3.03779 21.0238 3.3212 20.7404 3.66759 20.7404H24.4698C24.8162 20.7404 25.0996 21.0238 25.0996 21.3702C25.0996 21.7166 24.8162 22 24.4698 22Z" fill="#86888C"/>
</svg>
