<svg width="40" height="40" viewBox="0 0 40 40" fill="none" xmlns="http://www.w3.org/2000/svg">
<path d="M20.4272 25.5457H16.3729C15.6939 25.5457 15.2363 25.0881 15.2363 24.4042V12.7283C15.2363 12.0493 15.6939 11.5967 16.3729 11.5967H21.2932C21.49 11.5967 21.677 11.6754 21.8148 11.8132L25.136 15.1393C25.2737 15.2771 25.3524 15.464 25.3524 15.6608V24.4239C25.3524 25.0832 24.8899 25.5457 24.2306 25.5457H20.4272ZM16.7124 24.0696H23.8764V15.9659L20.9832 13.0728H16.7124V24.0696Z" fill="#86888C"/>
<path d="M22.6222 18.4111H17.9725C17.7019 18.4111 17.4805 18.1897 17.4805 17.9191C17.4805 17.6485 17.7019 17.427 17.9725 17.427H22.6271C22.8977 17.427 23.1191 17.6485 23.1191 17.9191C23.1191 18.1897 22.8928 18.4111 22.6222 18.4111ZM22.6222 20.4087H17.9725C17.7019 20.4087 17.4805 20.1873 17.4805 19.9167C17.4805 19.6461 17.7019 19.4247 17.9725 19.4247H22.6271C22.8977 19.4247 23.1191 19.6461 23.1191 19.9167C23.1191 20.1873 22.8928 20.4087 22.6222 20.4087ZM22.6222 22.4015H17.9725C17.7019 22.4015 17.4805 22.18 17.4805 21.9094C17.4805 21.6388 17.7019 21.4174 17.9725 21.4174H22.6271C22.8977 21.4174 23.1191 21.6388 23.1191 21.9094C23.1191 22.18 22.8928 22.4015 22.6222 22.4015ZM24.4525 16.3151H22.4008C21.3134 16.3151 20.6393 15.5278 20.6393 14.2584V12.4969C20.6393 12.2263 20.8607 12.0049 21.1313 12.0049C21.2642 12.0049 21.3872 12.059 21.4807 12.1476L24.7969 15.4737C24.9888 15.6656 24.9888 15.9756 24.7969 16.1674C24.7035 16.2609 24.5804 16.3151 24.4525 16.3151ZM21.6234 13.6876V14.2584C21.6234 14.9669 21.8841 15.331 22.4008 15.331H23.2618L21.6234 13.6876Z" fill="#86888C"/>
<path d="M31.8083 29.1622H8.78134C6.85259 29.1622 5.37158 28.5865 4.3826 27.4597C3.46743 26.4019 3 24.8766 3 22.9183V14.2438C3 12.2856 3.46743 10.7603 4.3826 9.70734C5.37158 8.57567 6.84767 8 8.78134 8H31.8083C33.7371 8 35.2181 8.57567 36.207 9.70734C37.1271 10.7603 37.5896 12.2856 37.5896 14.2438V22.9183C37.5896 24.8766 37.1222 26.4019 36.207 27.4548C35.2181 28.5865 33.7371 29.1622 31.8083 29.1622ZM8.78134 9.97304C7.42334 9.97304 6.47373 10.3125 5.86853 11.0063C5.27317 11.6853 4.96812 12.7776 4.96812 14.2438V22.9183C4.96812 24.3846 5.27317 25.4769 5.86853 26.1608C6.47373 26.8546 7.42826 27.1941 8.78134 27.1941H31.8083C33.1614 27.1941 34.1159 26.8546 34.7211 26.1608C35.3165 25.4769 35.6215 24.3846 35.6215 22.9183V14.2438C35.6215 12.7776 35.3165 11.6853 34.7211 11.0014C34.1159 10.3076 33.1614 9.96812 31.8083 9.96812L8.78134 9.97304ZM36.5465 33H4.0431C3.50187 33 3.05904 32.5572 3.05904 32.0159C3.05904 31.4747 3.50187 31.0319 4.0431 31.0319H36.5465C37.0878 31.0319 37.5306 31.4747 37.5306 32.0159C37.5306 32.5572 37.0878 33 36.5465 33Z" fill="#86888C"/>
</svg>
