<svg width="40" height="40" viewBox="0 0 40 40" fill="none" xmlns="http://www.w3.org/2000/svg">
<path fill-rule="evenodd" clip-rule="evenodd" d="M22.0593 32.5331C18.6571 32.6916 15.8641 33.578 14.2299 34.2268V21.5888C17.1665 20.1576 20.4597 19.9496 22.0593 19.9447V32.5331ZM4.27599 19.9447C5.87555 19.9496 9.15885 20.1527 12.1054 21.5888V34.2268C10.4712 33.578 7.67814 32.6916 4.27599 32.5331V19.9447ZM8.84191 13.7099C8.84191 12.5362 9.11923 11.6547 9.65902 11.0852C10.2186 10.5009 11.1051 10.1988 12.2936 10.1988L31.3694 10.1889C32.5579 10.1889 33.4493 10.486 34.004 11.0753C34.5438 11.6448 34.8161 12.5263 34.8161 13.7V22.9358C34.8161 24.1144 34.5438 25.0058 33.999 25.5852C33.4394 26.1844 32.553 26.4865 31.3694 26.4865L24.1838 26.4915V18.88C24.1838 18.3104 23.7579 17.8301 23.2032 17.7855C22.9754 17.7707 17.7657 17.3794 13.1602 19.6921C11.7241 18.9691 10.2285 18.5085 8.84191 18.2213V13.7099ZM31.3744 28.6803C33.1571 28.6803 34.5586 28.1504 35.5391 27.1055C36.4751 26.1052 36.9505 24.6988 36.9505 22.9358V13.7C36.9505 11.932 36.4701 10.5355 35.5292 9.54508C34.5537 8.51998 33.1571 8 31.3694 8L12.2936 8.0099C10.5058 8.0099 9.10933 8.52988 8.13375 9.55499C7.19283 10.5504 6.71247 11.9469 6.71247 13.7148V17.8895C4.69693 17.6716 3.24099 17.7806 3.12213 17.7905C2.57244 17.835 2.1416 18.3154 2.1416 18.8849V33.6127C2.1416 34.2169 2.61701 34.7071 3.20632 34.7071C8.56459 34.7071 12.6303 36.8564 12.6699 36.8762C12.8235 36.9604 12.9918 37 13.1602 37C13.1899 37 13.2147 36.9802 13.2394 36.9752C13.3831 36.9653 13.5267 36.9406 13.6554 36.8712C13.6951 36.8514 17.7311 34.7022 23.1191 34.7022C23.7084 34.7022 24.1838 34.2119 24.1838 33.6078V32.2459H35.8808C36.4701 32.2459 36.9456 31.7556 36.9456 31.1515C36.9456 30.5473 36.4701 30.057 35.8808 30.057H24.1838V28.6853L31.3744 28.6803Z" fill="#86888C"/>
</svg>
