<svg width="24" height="24" viewBox="0 0 24 24" fill="none" xmlns="http://www.w3.org/2000/svg">
<path d="M12.759 15.8251H10.4885C10.1083 15.8251 9.85205 15.5689 9.85205 15.1859V8.64741C9.85205 8.26717 10.1083 8.01367 10.4885 8.01367H13.2439C13.3541 8.01367 13.4588 8.05776 13.536 8.13491L15.3958 9.99753C15.473 10.0747 15.5171 10.1794 15.5171 10.2896V15.1969C15.5171 15.5661 15.2581 15.8251 14.8889 15.8251H12.759ZM10.6787 14.9985H14.6905V10.4604L13.0703 8.84028H10.6787V14.9985Z" fill="#86888C"/>
<path d="M13.9887 11.8306H11.3849C11.2334 11.8306 11.1094 11.7067 11.1094 11.5551C11.1094 11.4036 11.2334 11.2796 11.3849 11.2796H13.9915C14.143 11.2796 14.267 11.4036 14.267 11.5551C14.267 11.7067 14.1403 11.8306 13.9887 11.8306ZM13.9887 12.9493H11.3849C11.2334 12.9493 11.1094 12.8253 11.1094 12.6738C11.1094 12.5222 11.2334 12.3983 11.3849 12.3983H13.9915C14.143 12.3983 14.267 12.5222 14.267 12.6738C14.267 12.8253 14.1403 12.9493 13.9887 12.9493ZM13.9887 14.0652H11.3849C11.2334 14.0652 11.1094 13.9413 11.1094 13.7897C11.1094 13.6382 11.2334 13.5142 11.3849 13.5142H13.9915C14.143 13.5142 14.267 13.6382 14.267 13.7897C14.267 13.9413 14.1403 14.0652 13.9887 14.0652ZM15.0137 10.6569H13.8647C13.2558 10.6569 12.8783 10.216 12.8783 9.50512V8.5187C12.8783 8.36716 13.0023 8.24316 13.1539 8.24316C13.2282 8.24316 13.2971 8.27347 13.3495 8.32307L15.2066 10.1857C15.3141 10.2932 15.3141 10.4667 15.2066 10.5742C15.1542 10.6266 15.0854 10.6569 15.0137 10.6569ZM13.4294 9.1855V9.50512C13.4294 9.90189 13.5754 10.1058 13.8647 10.1058H14.3469L13.4294 9.1855Z" fill="#86888C"/>
<path d="M19.1327 17.8508H6.23755C5.15745 17.8508 4.32808 17.5284 3.77426 16.8975C3.26176 16.3051 3 15.4509 3 14.3543V9.49656C3 8.39992 3.26176 7.54576 3.77426 6.95611C4.32808 6.32238 5.15469 6 6.23755 6H19.1327C20.2128 6 21.0421 6.32238 21.5959 6.95611C22.1112 7.54576 22.3702 8.39992 22.3702 9.49656V14.3543C22.3702 15.4509 22.1084 16.3051 21.5959 16.8947C21.0421 17.5284 20.2128 17.8508 19.1327 17.8508ZM6.23755 7.1049C5.47707 7.1049 4.94529 7.29502 4.60638 7.68353C4.27298 8.06377 4.10215 8.67546 4.10215 9.49656V14.3543C4.10215 15.1754 4.27298 15.787 4.60638 16.17C4.94529 16.5585 5.47983 16.7487 6.23755 16.7487H19.1327C19.8904 16.7487 20.4249 16.5585 20.7638 16.17C21.0972 15.787 21.2681 15.1754 21.2681 14.3543V9.49656C21.2681 8.67546 21.0972 8.06377 20.7638 7.68077C20.4249 7.29227 19.8904 7.10215 19.1327 7.10215L6.23755 7.1049ZM21.7861 20H3.58414C3.28105 20 3.03306 19.752 3.03306 19.4489C3.03306 19.1458 3.28105 18.8979 3.58414 18.8979H21.7861C22.0892 18.8979 22.3371 19.1458 22.3371 19.4489C22.3371 19.752 22.0892 20 21.7861 20Z" fill="#86888C"/>
</svg>
