<svg width="24" height="24" viewBox="0 0 24 24" fill="none" xmlns="http://www.w3.org/2000/svg">
<path fill-rule="evenodd" clip-rule="evenodd" d="M13.8175 19.3815C11.8231 19.4744 10.1858 19.994 9.22784 20.3743V12.9658C10.9493 12.1269 12.8798 12.005 13.8175 12.002V19.3815ZM3.3928 12.002C4.33047 12.005 6.25516 12.124 7.98245 12.9658V20.3743C7.02446 19.994 5.38716 19.4744 3.3928 19.3815V12.002ZM6.06937 8.34716C6.06937 7.65915 6.23194 7.14242 6.54836 6.80857C6.8764 6.46602 7.39604 6.28893 8.09276 6.28893L19.2751 6.28313C19.9719 6.28313 20.4944 6.45731 20.8195 6.80277C21.136 7.13661 21.2956 7.65335 21.2956 8.34136V13.7555C21.2956 14.4464 21.136 14.9689 20.8166 15.3086C20.4886 15.6598 19.969 15.8369 19.2751 15.8369L15.0629 15.8398V11.3779C15.0629 11.0441 14.8132 10.7625 14.4881 10.7363C14.3545 10.7276 11.3006 10.4983 8.60079 11.854C7.75892 11.4302 6.88221 11.1602 6.06937 10.9918V8.34716ZM19.278 17.123C20.3231 17.123 21.1447 16.8123 21.7195 16.1998C22.2681 15.6134 22.5468 14.7889 22.5468 13.7555V8.34136C22.5468 7.30499 22.2652 6.48634 21.7137 5.90574C21.1418 5.30482 20.3231 5 19.2751 5L8.09276 5.00581C7.04478 5.00581 6.22613 5.31062 5.65424 5.91154C5.10267 6.49505 4.82108 7.3137 4.82108 8.35007V10.7973C3.63955 10.6696 2.78607 10.7334 2.7164 10.7392C2.39416 10.7654 2.1416 11.047 2.1416 11.3808V20.0143C2.1416 20.3685 2.42029 20.6559 2.76575 20.6559C5.9068 20.6559 8.29017 21.9158 8.31339 21.9274C8.40338 21.9768 8.50209 22 8.60079 22C8.61821 22 8.63272 21.9884 8.64724 21.9855C8.73142 21.9797 8.81561 21.9652 8.89109 21.9245C8.91431 21.9129 11.2803 20.653 14.4387 20.653C14.7842 20.653 15.0629 20.3656 15.0629 20.0114V19.2131H21.9198C22.2652 19.2131 22.5439 18.9257 22.5439 18.5715C22.5439 18.2174 22.2652 17.93 21.9198 17.93H15.0629V17.1259L19.278 17.123Z" fill="#86888C"/>
</svg>
