<svg width="28" height="28" viewBox="0 0 28 28" fill="none" xmlns="http://www.w3.org/2000/svg">
<path fill-rule="evenodd" clip-rule="evenodd" d="M15.1911 22.0734C12.9621 22.1773 11.1322 22.758 10.0615 23.1831V14.903C11.9855 13.9653 14.1431 13.8291 15.1911 13.8258V22.0734ZM3.54 13.8258C4.58798 13.8291 6.73911 13.9621 8.66961 14.903V23.1831C7.59891 22.758 5.76899 22.1773 3.54 22.0734V13.8258ZM6.53146 9.74095C6.53146 8.97199 6.71315 8.39447 7.06681 8.02135C7.43344 7.63849 8.01421 7.44057 8.7929 7.44057L21.2908 7.43408C22.0695 7.43408 22.6536 7.62876 23.0169 8.01486C23.3706 8.38798 23.549 8.96551 23.549 9.73446V15.7855C23.549 16.5577 23.3706 17.1417 23.0137 17.5213C22.6471 17.9139 22.0663 18.1118 21.2908 18.1118L16.583 18.1151V13.1282C16.583 12.7551 16.304 12.4404 15.9406 12.4112C15.7914 12.4015 12.3781 12.1451 9.36069 13.6603C8.41978 13.1866 7.43993 12.8849 6.53146 12.6967V9.74095ZM21.2941 19.5492C22.4621 19.5492 23.3803 19.202 24.0227 18.5174C24.636 17.862 24.9474 16.9406 24.9474 15.7855V9.73446C24.9474 8.57616 24.6327 7.6612 24.0163 7.0123C23.3771 6.34068 22.4621 6 21.2908 6L8.7929 6.00649C7.62162 6.00649 6.70666 6.34717 6.06749 7.01878C5.45103 7.67094 5.13631 8.58589 5.13631 9.74419V12.4793C3.81578 12.3366 2.86189 12.408 2.78402 12.4144C2.42388 12.4436 2.1416 12.7584 2.1416 13.1315V22.7807C2.1416 23.1766 2.45308 23.4978 2.83918 23.4978C6.34976 23.4978 9.01353 24.9059 9.03948 24.9189C9.14006 24.974 9.25038 25 9.36069 25C9.38016 25 9.39638 24.987 9.41261 24.9838C9.5067 24.9773 9.60079 24.9611 9.68515 24.9156C9.7111 24.9027 12.3554 23.4945 15.8855 23.4945C16.2716 23.4945 16.583 23.1733 16.583 22.7775V21.8852H24.2466C24.6327 21.8852 24.9442 21.564 24.9442 21.1682C24.9442 20.7724 24.6327 20.4512 24.2466 20.4512H16.583V19.5524L21.2941 19.5492Z" fill="#86888C"/>
</svg>
