<svg width="20" height="20" viewBox="0 0 20 20" fill="none" xmlns="http://www.w3.org/2000/svg">
<path fill-rule="evenodd" clip-rule="evenodd" d="M11.1313 12.5399C10.8307 12.7471 10.5074 12.9498 10.1659 13.1547C9.8266 12.9498 9.501 12.7471 9.20272 12.5399H11.1313ZM8.07336 11.529C7.84339 11.2307 7.68173 10.8982 7.60431 10.518H12.7297C12.6523 10.8982 12.4883 11.2284 12.2606 11.529H8.07336ZM9.17084 7.48513C9.4805 7.2711 9.81294 7.05934 10.1659 6.84759C10.5188 7.05934 10.8535 7.26882 11.1632 7.48513H9.17084ZM12.2789 8.49609C12.5043 8.79436 12.6568 9.12907 12.732 9.50704H7.60204C7.67717 9.12907 7.82973 8.79436 8.05514 8.49609H12.2789ZM13.834 10.0011C13.834 8.16138 12.5225 7.11171 11.1495 6.25331C12.5225 5.39491 13.834 4.34524 13.834 2.50548C13.834 2.22769 13.5995 2 13.3103 2C13.0211 2 12.7866 2.22542 12.7866 2.50548C12.7866 4.00142 11.6003 4.80063 10.1681 5.65675C8.73595 4.79835 7.54967 4.00142 7.54967 2.50548C7.54967 2.22769 7.31514 2 7.02597 2C6.7368 2 6.50228 2.22542 6.50228 2.50548C6.50228 4.34524 7.81379 5.39491 9.18678 6.25331C7.81379 7.11171 6.50228 8.16365 6.50228 10.0011C6.50228 10.9483 6.85065 11.6838 7.37206 12.294C7.40394 12.3441 7.44493 12.3874 7.49274 12.4238C7.9709 12.9384 8.56973 13.3642 9.1845 13.7467C7.81151 14.6051 6.5 15.6548 6.5 17.4945C6.5 17.7723 6.73452 18 7.02369 18C7.31286 18 7.54739 17.7746 7.54739 17.4945C7.54739 15.9986 8.73595 15.2016 10.1659 14.3432C11.5981 15.2016 12.7843 16.0009 12.7843 17.4945C12.7843 17.7723 13.0189 18 13.308 18C13.5972 18 13.8317 17.7746 13.8317 17.4945C13.8317 15.6548 12.5202 14.6051 11.1472 13.7467C12.5225 12.8906 13.834 11.8409 13.834 10.0011Z" fill="#86888C"/>
</svg>
