<svg width="24" height="24" viewBox="0 0 24 24" fill="none" xmlns="http://www.w3.org/2000/svg">
<path fill-rule="evenodd" clip-rule="evenodd" d="M13.2891 15.1749C12.9134 15.4339 12.5092 15.6872 12.0823 15.9434C11.6582 15.6872 11.2512 15.4339 10.8784 15.1749H13.2891ZM9.4667 13.9112C9.17924 13.5384 8.97716 13.1228 8.88039 12.6475H15.2871C15.1903 13.1228 14.9854 13.5355 14.7008 13.9112H9.4667ZM10.8386 8.85641C11.2256 8.58887 11.6412 8.32418 12.0823 8.05948C12.5235 8.32418 12.9419 8.58603 13.3289 8.85641H10.8386ZM14.7236 10.1201C15.0053 10.493 15.196 10.9113 15.29 11.3838H8.87754C8.97147 10.9113 9.16216 10.493 9.44393 10.1201H14.7236ZM16.6675 12.0014C16.6675 9.70172 15.0281 8.38964 13.3119 7.31664C15.0281 6.24363 16.6675 4.93155 16.6675 2.63185C16.6675 2.28462 16.3743 2 16.0129 2C15.6514 2 15.3583 2.28177 15.3583 2.63185C15.3583 4.50178 13.8754 5.50078 12.0852 6.57094C10.2949 5.49794 8.81208 4.50178 8.81208 2.63185C8.81208 2.28462 8.51893 2 8.15746 2C7.796 2 7.50285 2.28177 7.50285 2.63185C7.50285 4.93155 9.14224 6.24363 10.8585 7.31664C9.14224 8.38964 7.50285 9.70457 7.50285 12.0014C7.50285 13.1854 7.93831 14.1047 8.59008 14.8675C8.62993 14.9301 8.68116 14.9842 8.74093 15.0297C9.33862 15.673 10.0872 16.2052 10.8556 16.6834C9.13939 17.7564 7.5 19.0685 7.5 21.3682C7.5 21.7154 7.79315 22 8.15462 22C8.51608 22 8.80924 21.7182 8.80924 21.3682C8.80924 19.4982 10.2949 18.5021 12.0823 17.4291C13.8726 18.5021 15.3554 19.5011 15.3554 21.3682C15.3554 21.7154 15.6486 22 16.01 22C16.3715 22 16.6647 21.7182 16.6647 21.3682C16.6647 19.0685 15.0253 17.7564 13.309 16.6834C15.0281 15.6132 16.6675 14.3011 16.6675 12.0014Z" fill="#86888C"/>
</svg>
