<svg width="28" height="28" viewBox="0 0 28 28" fill="none" xmlns="http://www.w3.org/2000/svg">
<path fill-rule="evenodd" clip-rule="evenodd" d="M15.4469 17.8099C14.9961 18.1207 14.5111 18.4246 13.9988 18.732C13.4899 18.4246 13.0015 18.1207 12.5541 17.8099H15.4469ZM10.86 16.2934C10.5151 15.846 10.2726 15.3474 10.1565 14.777H17.8445C17.7284 15.3474 17.4825 15.8426 17.141 16.2934H10.86ZM12.5063 10.2277C12.9708 9.90665 13.4694 9.58901 13.9988 9.27138C14.5282 9.58901 15.0302 9.90323 15.4947 10.2277H12.5063ZM17.1683 11.7441C17.5064 12.1915 17.7352 12.6936 17.8479 13.2606H10.1531C10.2658 12.6936 10.4946 12.1915 10.8327 11.7441H17.1683ZM19.501 14.0017C19.501 11.2421 17.5337 9.66757 15.4742 8.37996C17.5337 7.09236 19.501 5.51786 19.501 2.75822C19.501 2.34154 19.1492 2 18.7155 2C18.2817 2 17.9299 2.33812 17.9299 2.75822C17.9299 5.00213 16.1505 6.20094 14.0022 7.48513C11.8539 6.19752 10.0745 5.00213 10.0745 2.75822C10.0745 2.34154 9.72271 2 9.28896 2C8.8552 2 8.50342 2.33812 8.50342 2.75822C8.50342 5.51786 10.4707 7.09236 12.5302 8.37996C10.4707 9.66757 8.50342 11.2455 8.50342 14.0017C8.50342 15.4225 9.02597 16.5257 9.8081 17.441C9.85591 17.5162 9.91739 17.581 9.98911 17.6357C10.7063 18.4076 11.6046 19.0462 12.5268 19.62C10.4673 20.9076 8.5 22.4821 8.5 25.2418C8.5 25.6585 8.85179 26 9.28554 26C9.7193 26 10.0711 25.6619 10.0711 25.2418C10.0711 22.9979 11.8539 21.8025 13.9988 20.5149C16.1471 21.8025 17.9265 23.0013 17.9265 25.2418C17.9265 25.6585 18.2783 26 18.712 26C19.1458 26 19.4976 25.6619 19.4976 25.2418C19.4976 22.4821 17.5303 20.9076 15.4708 19.62C17.5337 18.3358 19.501 16.7613 19.501 14.0017Z" fill="#86888C"/>
</svg>
