<svg width="40" height="40" viewBox="0 0 40 40" fill="none" xmlns="http://www.w3.org/2000/svg">
<path fill-rule="evenodd" clip-rule="evenodd" d="M3.71448 8.37981C3.47543 8.38513 3.2842 8.58167 3.28951 8.82072V31.174C3.2842 31.413 3.47543 31.6096 3.71448 31.6149H35.6242C35.8632 31.6096 36.0544 31.413 36.0491 31.174V8.82072C36.0544 8.58167 35.8632 8.38513 35.6242 8.37981H3.71448ZM35.6189 34H3.71448C2.21647 34 1 32.7304 1 31.174V8.82072C1 7.26428 2.21647 6 3.71448 6H35.6242C37.1222 6 38.3386 7.26428 38.3386 8.82072V31.174C38.3333 32.7304 37.1169 34 35.6189 34ZM17.8074 24.5445H5.97211C5.33997 24.5445 4.83001 24.0133 4.83001 23.3546C4.83001 22.6959 5.34529 22.1647 5.97211 22.1647H17.8074C18.4396 22.1647 18.9495 22.6959 18.9495 23.3546C18.9495 24.0133 18.4343 24.5445 17.8074 24.5445ZM14.004 18.1912H5.97211C5.33997 18.1912 4.8247 17.66 4.8247 17.0013C4.8247 16.3426 5.33997 15.8114 5.97211 15.8114H14.004C14.6361 15.8114 15.1514 16.3426 15.1514 17.0013C15.1461 17.66 14.6308 18.1912 14.004 18.1912ZM27.7676 12.7463C28.8459 12.7463 29.6906 13.0438 30.2749 13.6282C30.8805 14.2337 31.1886 15.1368 31.1886 16.3054C31.1886 17.4741 30.8805 18.3718 30.2749 18.9827C29.6906 19.5671 28.8459 19.8592 27.7676 19.8592C26.6892 19.8592 25.8446 19.5618 25.2656 18.9827C24.66 18.3772 24.3572 17.4794 24.3572 16.3054C24.3572 15.1368 24.66 14.239 25.2656 13.6335C25.8499 13.0385 26.6946 12.7463 27.7676 12.7463ZM27.7676 14.8074C27.4595 14.8074 26.907 14.8446 26.6467 15.1102C26.3811 15.3758 26.3386 15.9761 26.3386 16.3054C26.3386 16.6348 26.3811 17.2297 26.6414 17.49C26.838 17.6866 27.2364 17.7928 27.7676 17.7928C28.3041 17.7928 28.7078 17.6866 28.9044 17.49C29.17 17.2244 29.2072 16.6348 29.2072 16.3054C29.2072 15.9761 29.17 15.3811 28.8991 15.1155C28.6335 14.8499 28.081 14.8074 27.7676 14.8074ZM29.8552 21.4104C31.1195 21.4104 32.1607 21.8141 32.8619 22.5684C33.5046 23.2643 33.8446 24.2311 33.8446 25.3626V26.5471C33.8446 26.7703 33.6693 26.9509 33.4568 26.9509H22.0943C21.8765 26.9509 21.7012 26.7703 21.7065 26.5525V25.3626C21.7065 24.2311 22.0465 23.2643 22.6839 22.5684C23.3798 21.8141 24.421 21.4104 25.6853 21.4104H29.8552ZM29.8552 23.4768H25.6853C25.1859 23.4768 24.5113 23.5671 24.1129 24.0027C23.8845 24.2523 23.7729 24.5764 23.7198 24.8898H31.8154C31.7729 24.5604 31.6401 24.2523 31.4223 24.0027C31.0292 23.5671 30.3493 23.4768 29.8552 23.4768Z" fill="#86888C"/>
</svg>
