<svg width="28" height="28" viewBox="0 0 28 28" fill="none" xmlns="http://www.w3.org/2000/svg">
<path fill-rule="evenodd" clip-rule="evenodd" d="M3.74502 6.52988C3.59135 6.5333 3.46841 6.65965 3.47183 6.81332V21.1833C3.46841 21.3369 3.59135 21.4633 3.74502 21.4667H24.2584C24.4121 21.4633 24.535 21.3369 24.5316 21.1833V6.81332C24.535 6.65965 24.4121 6.5333 24.2584 6.52988H3.74502ZM24.255 23H3.74502C2.78201 23 2 22.1838 2 21.1833V6.81332C2 5.81275 2.78201 5 3.74502 5H24.2584C25.2214 5 26.0034 5.81275 26.0034 6.81332V21.1833C26 22.1838 25.218 23 24.255 23ZM12.8048 16.9215H5.19636C4.78998 16.9215 4.46215 16.58 4.46215 16.1565C4.46215 15.7331 4.7934 15.3916 5.19636 15.3916H12.8048C13.2112 15.3916 13.539 15.7331 13.539 16.1565C13.539 16.58 13.2077 16.9215 12.8048 16.9215ZM10.3597 12.8372H5.19636C4.78998 12.8372 4.45874 12.4957 4.45874 12.0723C4.45874 11.6488 4.78998 11.3073 5.19636 11.3073H10.3597C10.7661 11.3073 11.0973 11.6488 11.0973 12.0723C11.0939 12.4957 10.7627 12.8372 10.3597 12.8372ZM19.2077 9.33694C19.901 9.33694 20.4439 9.52817 20.8196 9.90381C21.2089 10.2931 21.4069 10.8736 21.4069 11.6249C21.4069 12.3762 21.2089 12.9533 20.8196 13.346C20.4439 13.7217 19.901 13.9095 19.2077 13.9095C18.5145 13.9095 17.9715 13.7183 17.5993 13.346C17.21 12.9567 17.0154 12.3796 17.0154 11.6249C17.0154 10.8736 17.21 10.2965 17.5993 9.90723C17.975 9.52476 18.5179 9.33694 19.2077 9.33694ZM19.2077 10.6619C19.0097 10.6619 18.6545 10.6858 18.4872 10.8566C18.3164 11.0273 18.2891 11.4132 18.2891 11.6249C18.2891 11.8367 18.3164 12.2191 18.4838 12.3865C18.6101 12.5128 18.8662 12.5811 19.2077 12.5811C19.5526 12.5811 19.8122 12.5128 19.9385 12.3865C20.1093 12.2157 20.1332 11.8367 20.1332 11.6249C20.1332 11.4132 20.1093 11.0307 19.9351 10.86C19.7644 10.6892 19.4092 10.6619 19.2077 10.6619ZM20.5498 14.9067C21.3626 14.9067 22.0319 15.1662 22.4826 15.6511C22.8958 16.0985 23.1144 16.72 23.1144 17.4474V18.2089C23.1144 18.3523 23.0017 18.4684 22.8651 18.4684H15.5606C15.4206 18.4684 15.3079 18.3523 15.3113 18.2123V17.4474C15.3113 16.72 15.5299 16.0985 15.9397 15.6511C16.387 15.1662 17.0563 14.9067 17.8691 14.9067H20.5498ZM20.5498 16.2351H17.8691C17.5481 16.2351 17.1144 16.2931 16.8583 16.5731C16.7114 16.7336 16.6397 16.9419 16.6056 17.1434H21.8099C21.7826 16.9317 21.6972 16.7336 21.5572 16.5731C21.3045 16.2931 20.8674 16.2351 20.5498 16.2351Z" fill="#86888C"/>
</svg>
