<svg width="20" height="20" viewBox="0 0 20 20" fill="none" xmlns="http://www.w3.org/2000/svg">
<path fill-rule="evenodd" clip-rule="evenodd" d="M3.16335 5.01992C3.0609 5.0222 2.97894 5.10643 2.98122 5.20888V14.7888C2.97894 14.8913 3.0609 14.9755 3.16335 14.9778H16.8389C16.9414 14.9755 17.0233 14.8913 17.0211 14.7888V5.20888C17.0233 5.10643 16.9414 5.0222 16.8389 5.01992H3.16335ZM16.8367 16H3.16335C2.52134 16 2 15.4559 2 14.7888V5.20888C2 4.54183 2.52134 4 3.16335 4H16.8389C17.4809 4 18.0023 4.54183 18.0023 5.20888V14.7888C18 15.4559 17.4787 16 16.8367 16ZM9.20319 11.9476H4.1309C3.85999 11.9476 3.64143 11.72 3.64143 11.4377C3.64143 11.1554 3.86227 10.9277 4.1309 10.9277H9.20319C9.4741 10.9277 9.69266 11.1554 9.69266 11.4377C9.69266 11.72 9.47183 11.9476 9.20319 11.9476ZM7.57314 9.22482H4.1309C3.85999 9.22482 3.63916 8.99715 3.63916 8.71486C3.63916 8.43256 3.85999 8.2049 4.1309 8.2049H7.57314C7.84405 8.2049 8.06488 8.43256 8.06488 8.71486C8.06261 8.99715 7.84178 9.22482 7.57314 9.22482ZM13.4718 6.89129C13.934 6.89129 14.296 7.01878 14.5464 7.26921C14.8059 7.52874 14.938 7.91577 14.938 8.41662C14.938 8.91747 14.8059 9.30222 14.5464 9.56403C14.296 9.81446 13.934 9.93967 13.4718 9.93967C13.0097 9.93967 12.6477 9.81218 12.3995 9.56403C12.14 9.3045 12.0102 8.91975 12.0102 8.41662C12.0102 7.91577 12.14 7.53102 12.3995 7.27149C12.65 7.01651 13.012 6.89129 13.4718 6.89129ZM13.4718 7.77462C13.3398 7.77462 13.103 7.79055 12.9915 7.90438C12.8776 8.01821 12.8594 8.27547 12.8594 8.41662C12.8594 8.55777 12.8776 8.81275 12.9892 8.9243C13.0734 9.00854 13.2442 9.05407 13.4718 9.05407C13.7018 9.05407 13.8748 9.00854 13.959 8.9243C14.0729 8.81047 14.0888 8.55777 14.0888 8.41662C14.0888 8.27547 14.0729 8.02049 13.9567 7.90666C13.8429 7.79283 13.6061 7.77462 13.4718 7.77462ZM14.3665 10.6044C14.9084 10.6044 15.3546 10.7775 15.6551 11.1007C15.9306 11.399 16.0763 11.8133 16.0763 12.2982V12.8059C16.0763 12.9015 16.0011 12.9789 15.9101 12.9789H11.0404C10.9471 12.9789 10.8719 12.9015 10.8742 12.8082V12.2982C10.8742 11.8133 11.0199 11.399 11.2931 11.1007C11.5913 10.7775 12.0376 10.6044 12.5794 10.6044H14.3665ZM14.3665 11.49H12.5794C12.3654 11.49 12.0763 11.5287 11.9055 11.7154C11.8076 11.8224 11.7598 11.9613 11.7371 12.0956H15.2066C15.1884 11.9545 15.1315 11.8224 15.0381 11.7154C14.8697 11.5287 14.5783 11.49 14.3665 11.49Z" fill="#86888C"/>
</svg>
