<svg width="28" height="28" viewBox="0 0 28 28" fill="none" xmlns="http://www.w3.org/2000/svg">
<path d="M23.4994 26H10.6886C9.81978 26 9.2793 25.4561 9.2793 24.5838V19.4048C9.2793 19.0285 9.58716 18.7206 9.96345 18.7206C10.3397 18.7206 10.6476 19.0285 10.6476 19.4048V24.6317H24.6179V24.618V9.64196L18.3511 3.37172H10.6476V6.68643C10.6476 7.06271 10.3397 7.37058 9.96345 7.37058C9.58716 7.37058 9.2793 7.06271 9.2793 6.68643V5.53022V3.40251C9.2793 2.54048 9.81978 2.00342 10.6852 2H18.6351C18.8164 2 18.9908 2.07184 19.1174 2.20182L25.7878 8.87229C25.9178 8.99886 25.9897 9.17332 25.9897 9.35462V24.6146C25.9897 25.4527 25.4458 25.9932 24.6111 25.9966C24.2417 26 23.8722 26 23.4994 26Z" fill="#86888C"/>
<path d="M25.3055 10.0417H21.9702C20.8038 10.0417 19.7981 9.65515 19.0694 8.92311C18.3408 8.19107 17.9508 7.18879 17.9508 6.02231V4.18537V2.68708C17.9508 2.3108 18.2587 2.00293 18.635 2.00293C18.8163 2.00293 18.9908 2.07477 19.1173 2.20133L25.7878 8.8718C26.0546 9.13862 26.0546 9.57306 25.7878 9.83987C25.6612 9.96986 25.4868 10.0417 25.3055 10.0417ZM19.3191 4.3393V6.02231C19.3191 6.81935 19.5654 7.4864 20.0341 7.95846C20.5027 8.43052 21.1732 8.67682 21.9668 8.67682H23.6498L19.3191 4.3393ZM11.6361 19.9585C7.72279 19.9585 4.55176 16.7874 4.55176 12.8741C4.55176 8.96074 7.72279 5.7897 11.6361 5.7897C15.5495 5.7897 18.7205 8.96074 18.7205 12.8741C18.7205 14.7521 17.9748 16.5548 16.6441 17.8821C15.3203 19.2162 13.5175 19.9619 11.6361 19.9585ZM11.6361 7.158C8.47878 7.158 5.92006 9.72015 5.92348 12.8775C5.92348 16.0349 8.48562 18.5936 11.643 18.5902C14.8003 18.5867 17.3556 16.028 17.3556 12.8707C17.3556 11.3553 16.7536 9.90145 15.6795 8.83075C14.6088 7.75664 13.1549 7.15116 11.6361 7.158Z" fill="#86888C"/>
<path d="M2.68415 22.6815C2.30787 22.6815 2 22.3771 2 21.9974C2 21.8195 2.06842 21.6485 2.19156 21.5219L6.61802 16.9244C6.88141 16.6507 7.31243 16.6439 7.58609 16.9073C7.85975 17.1707 7.86659 17.6017 7.60319 17.8754L3.17674 22.4729C3.04675 22.6063 2.86887 22.6815 2.68415 22.6815Z" fill="#86888C"/>
</svg>
