<svg width="40" height="40" viewBox="0 0 40 40" fill="none" xmlns="http://www.w3.org/2000/svg">
<path d="M34.2495 38H15.0335C13.7302 38 12.9194 37.1841 12.9194 35.8757V28.1072C12.9194 27.5428 13.3812 27.081 13.9457 27.081C14.5101 27.081 14.9719 27.5428 14.9719 28.1072V35.9475H35.9274V35.927V13.4629L26.5272 4.05758H14.9719V9.02965C14.9719 9.59407 14.5101 10.0559 13.9457 10.0559C13.3812 10.0559 12.9194 9.59407 12.9194 9.02965V7.29532V4.10376C12.9194 2.81072 13.7302 2.00513 15.0283 2H26.9531C27.225 2 27.4867 2.10775 27.6766 2.30274L37.6823 12.3084C37.8772 12.4983 37.985 12.76 37.985 13.0319V35.9219C37.985 37.179 37.1691 37.9897 35.9172 37.9949C35.363 38 34.8088 38 34.2495 38Z" fill="#86888C"/>
<path d="M36.9582 14.0625H31.9553C30.2056 14.0625 28.6971 13.4827 27.6041 12.3847C26.5112 11.2866 25.9263 9.78319 25.9263 8.03347V5.27805V3.03062C25.9263 2.4662 26.3881 2.00439 26.9525 2.00439C27.2244 2.00439 27.4861 2.11215 27.676 2.302L37.6817 12.3077C38.0819 12.7079 38.0819 13.3596 37.6817 13.7598C37.4918 13.9548 37.2301 14.0625 36.9582 14.0625ZM27.9787 5.50896V8.03347C27.9787 9.22902 28.3482 10.2296 29.0511 10.9377C29.7541 11.6458 30.7598 12.0152 31.9502 12.0152H34.4747L27.9787 5.50896ZM16.4542 28.9377C10.5842 28.9377 5.82764 24.1811 5.82764 18.3111C5.82764 12.4411 10.5842 7.68455 16.4542 7.68455C22.3242 7.68455 27.0808 12.4411 27.0808 18.3111C27.0808 21.1281 25.9622 23.8322 23.9662 25.8231C21.9804 27.8242 19.2763 28.9428 16.4542 28.9377ZM16.4542 9.73701C11.7182 9.73701 7.88009 13.5802 7.88522 18.3163C7.88522 23.0523 11.7284 26.8904 16.4645 26.8852C21.2005 26.8801 25.0335 23.042 25.0335 18.306C25.0335 16.0329 24.1304 13.8522 22.5192 12.2461C20.9132 10.635 18.7324 9.72674 16.4542 9.73701Z" fill="#86888C"/>
<path d="M3.02623 33.0221C2.4618 33.0221 2 32.5654 2 31.9958C2 31.729 2.10262 31.4725 2.28734 31.2826L8.92702 24.3864C9.32212 23.9759 9.96864 23.9656 10.3791 24.3607C10.7896 24.7558 10.7999 25.4023 10.4048 25.8128L3.76511 32.7091C3.57013 32.9092 3.30331 33.0221 3.02623 33.0221Z" fill="#86888C"/>
</svg>
