<svg width="40" height="40" viewBox="0 0 40 40" fill="none" xmlns="http://www.w3.org/2000/svg">
<path fill-rule="evenodd" clip-rule="evenodd" d="M29.0239 30.5967C30.2927 30.5711 30.2927 29.6027 30.2927 29.2389C30.2927 28.87 30.2927 27.9017 29.0085 27.8709H28.809C27.5709 27.8812 27.5709 28.8598 27.5709 29.2287C27.5709 29.5976 27.5709 30.5813 28.8346 30.6018L29.0239 30.5967ZM29.0597 25.6268C30.7941 25.6678 32.5336 26.8001 32.5336 29.2389C32.5336 31.6829 30.7941 32.8101 29.0648 32.8408H28.8192C27.0746 32.8152 25.33 31.688 25.33 29.2235C25.33 26.7591 27.0695 25.637 28.7885 25.6216L29.0597 25.6268ZM8.13435 17.3265C8.35947 17.3265 8.74318 17.3265 8.74318 15.6306C8.74318 13.9296 8.36458 13.9296 8.13435 13.9296C7.90412 13.9296 7.5204 13.9296 7.5204 15.6306C7.5204 17.3265 7.88877 17.3265 8.13435 17.3265ZM8.13435 12.2183C9.19853 12.2183 10.4673 12.8075 10.4673 15.6306C10.4673 18.4486 9.19853 19.0378 8.13435 19.0378C7.06506 19.0378 5.79624 18.4435 5.79624 15.6306C5.79624 12.8075 7.06506 12.2183 8.13435 12.2183ZM13.4501 17.3265C13.6752 17.3265 14.0589 17.3265 14.0589 15.6306C14.0589 13.9296 13.6803 13.9296 13.4501 13.9296C13.2199 13.9296 12.8362 13.9296 12.8362 15.6306C12.8362 17.3265 13.2045 17.3265 13.4501 17.3265ZM13.4501 12.2183C14.5143 12.2183 15.7831 12.8075 15.7831 15.6306C15.7831 18.4486 14.5143 19.0378 13.4501 19.0378C12.3808 19.0378 11.112 18.4435 11.112 15.6306C11.112 12.8075 12.3808 12.2183 13.4501 12.2183ZM9.07574 26.2262C9.49015 26.2262 9.8227 26.5593 9.8227 26.9743V27.169C9.8227 27.584 9.49015 27.917 9.07574 27.917H7.20831C6.7939 27.917 6.46135 27.584 6.46135 27.169V26.9743C6.46135 26.5593 6.7939 26.2262 7.20831 26.2262H7.3618V22.9574H7.26971C6.8553 22.9574 6.52274 22.6243 6.52274 22.2093V22.0454C6.52274 21.6611 6.81437 21.3383 7.19808 21.3024C7.53575 21.2717 7.84784 21.2563 7.97063 21.2563C9.01434 21.2563 9.07062 22.0864 9.07062 22.2503L9.07574 26.2262ZM13.4501 26.3082C13.6752 26.3082 14.0589 26.3082 14.0589 24.6123C14.0589 22.9113 13.6803 22.9113 13.4501 22.9113C13.2199 22.9113 12.8362 22.9113 12.8362 24.6123C12.8362 26.3082 13.2045 26.3082 13.4501 26.3082ZM13.4501 21.2C14.5143 21.2 15.7831 21.7892 15.7831 24.6123C15.7831 27.4303 14.5143 28.0195 13.4501 28.0195C12.3808 28.0195 11.112 27.4252 11.112 24.6123C11.112 21.7943 12.3808 21.2 13.4501 21.2ZM35.6954 33.2507V29.1211C35.6954 29.0903 35.6801 29.0801 35.6801 29.0442V24.0026C35.6647 23.7771 35.588 23.4953 35.368 23.2545C35.1122 22.9881 34.6517 22.8395 34.0224 22.8395L23.9691 22.8549H23.8207C23.7798 22.8549 23.7286 22.8395 23.657 22.8549C23.4063 22.8549 22.8486 22.9164 22.5212 23.2135C22.2858 23.4544 22.163 23.8079 22.163 24.3202V33.2814C22.163 33.3429 22.1323 33.9526 22.5058 34.342C22.777 34.6136 23.2067 34.7468 23.836 34.7468H34.0224C34.3192 34.7622 34.9638 34.7161 35.3373 34.3574C35.5931 34.1166 35.6954 33.7579 35.6954 33.2507ZM33.0043 19.7244C33.0043 16.3428 30.6457 15.7894 29.2388 15.7433H28.7885C27.4123 15.7587 25.0844 16.2813 25.0844 19.6936V20.6056L32.9992 20.5903V19.7244H33.0043ZM19.9221 24.3151C19.9221 22.8651 20.5207 22.0095 21.0119 21.5484C21.5951 21.0104 22.2961 20.7696 22.8486 20.6825V19.6936C22.8486 15.1592 26.0462 13.5299 28.7783 13.4992H29.2848C32.0322 13.576 35.2452 15.2361 35.2452 19.7244V20.7542C35.3936 20.785 35.542 20.8157 35.6801 20.8721V10.6556C35.6801 10.4455 35.5164 10.2662 35.2913 10.2662H19.2059C18.5919 10.2662 18.0854 9.75894 18.0854 9.14411V6.62841C18.0854 6.40297 17.9217 6.23902 17.6966 6.23902H4.64509C4.41997 6.23902 4.24091 6.40297 4.24091 6.62841V31.3293C4.24091 31.5548 4.41997 31.7187 4.64509 31.7187H19.9221V27.876C19.8454 27.8914 19.7891 27.9221 19.697 27.9221H17.8296C17.4101 27.9221 17.0826 27.5789 17.0826 27.1741V26.9794C17.0826 26.5593 17.4101 26.2314 17.8296 26.2314H17.978V22.9574H17.8859C17.4663 22.9574 17.1389 22.6243 17.1389 22.2093V22.0454C17.1389 21.656 17.4356 21.3434 17.8091 21.2973C18.1519 21.2666 18.464 21.2512 18.5868 21.2512C19.6305 21.2512 19.6919 22.0915 19.6919 22.2554V26.2365C19.7686 26.2365 19.8403 26.2519 19.917 26.2826V24.3151H19.9221ZM37.921 23.8233C37.9517 24.1358 37.9517 24.3612 37.9364 24.4227V33.2507C37.9517 34.6904 37.3531 35.541 36.8619 36.0072C35.7108 37.0832 34.1145 37.0114 33.9355 36.9909H23.8412C22.2602 36.9909 21.3444 36.3812 20.8686 35.8535C20.2854 35.2387 20.0603 34.5111 19.9733 33.968H4.64509C3.18185 33.968 2 32.7845 2 31.3345V6.63354C2 5.17843 3.17673 4 4.64509 4H17.6966C19.1445 4 20.3263 5.17843 20.3263 6.63354V8.02716H35.2913C36.7392 8.02716 37.921 9.21071 37.921 10.6607V23.8233Z" fill="#86888C"/>
</svg>
