<svg width="28" height="28" viewBox="0 0 28 28" fill="none" xmlns="http://www.w3.org/2000/svg">
<path fill-rule="evenodd" clip-rule="evenodd" d="M24.5168 25.2348V11.3526L21.3347 11.3424C20.1602 11.3321 19.2043 10.9702 18.4941 10.2532C17.3025 9.02754 17.3196 7.2419 17.3196 7.16338L17.2889 4.47638H9.46007C9.35082 4.47638 9.26205 4.51394 9.18352 4.59247C9.11524 4.66075 9.06402 4.75976 9.06402 4.86561L9.07427 7.99645L9.36106 7.43651C9.63761 6.84927 10.358 6.60344 10.9487 6.89707C11.1945 7.01315 11.3823 7.20093 11.5018 7.43651L18.6204 21.6704C18.914 22.2303 18.699 22.9473 18.1151 23.2512C17.9478 23.3502 17.7498 23.398 17.5518 23.398H17.521L9.08451 23.3707V25.0778C9.07427 25.2144 9.08451 25.3509 9.15279 25.4295C9.21083 25.4909 9.32009 25.5285 9.46007 25.5285L24.2368 25.508C24.3973 25.508 24.5168 25.3817 24.5168 25.2348ZM3.6559 21.8787L8.30948 21.8889L17.0943 21.9265L10.4297 8.59394L3.6559 21.8787ZM23.8476 9.88451L18.7707 4.98852L18.8014 7.17703C18.8014 7.20435 18.8014 8.46078 19.5593 9.23581C19.9827 9.65917 20.5665 9.86403 21.345 9.87427L23.8476 9.88451ZM25.6298 9.54992C25.8654 9.79574 25.9951 10.0996 25.9951 10.4205V25.2348C25.9951 26.1942 25.2065 26.9795 24.2505 26.9795L9.46349 27C8.91038 27 8.41874 26.7951 8.08414 26.4401C7.73931 26.0782 7.58225 25.5968 7.61298 25.0368V23.3604L3.19498 23.34H3.17449C2.54286 23.34 2.01024 22.821 2 22.1825C2 21.9777 2.04097 21.7797 2.13657 21.6021L7.59932 10.8883L7.58908 4.86561C7.58908 4.36372 7.7871 3.90621 8.14218 3.55113C8.49726 3.19947 8.9616 3.00144 9.46349 3.00144H18.0195C18.5214 2.98096 19.0438 3.17898 19.4501 3.58869L25.6298 9.54992ZM10.457 18.5874C10.0473 18.5874 9.71614 18.2562 9.71614 17.8533V12.5203C9.71614 12.114 10.0473 11.7862 10.457 11.7862C10.8667 11.7862 11.1979 12.1174 11.1979 12.5203V17.8533C11.1945 18.2596 10.8633 18.5874 10.457 18.5874ZM10.4639 18.9698C10.8906 18.9698 11.2355 19.3146 11.2355 19.738C11.2355 20.1613 10.8906 20.5062 10.4639 20.5062C10.0371 20.5062 9.69224 20.1647 9.69224 19.738C9.69224 19.3146 10.0371 18.9698 10.4639 18.9698Z" fill="#86888C"/>
</svg>
