<svg width="28" height="28" viewBox="0 0 28 28" fill="none" xmlns="http://www.w3.org/2000/svg">
<path fill-rule="evenodd" clip-rule="evenodd" d="M24.5314 24.3196V10.3609H21.7136C20.4807 10.3609 19.4151 9.95788 18.6329 9.19966C17.8508 8.43461 17.4307 7.3895 17.4307 6.17362V3.47204H9.47616C9.38736 3.47204 9.24049 3.60865 9.24049 3.67696V8.49267C10.4735 8.6327 11.2863 9.16209 11.9421 9.61292C12.714 10.1252 13.2741 10.4975 14.35 10.3199C14.5651 10.2892 14.7906 10.3404 14.9579 10.4873C15.115 10.6239 15.2209 10.822 15.2209 11.0371C15.2209 11.1259 15.2209 12.2291 15.1799 13.5748H21.659C22.0586 13.5748 22.3933 13.9095 22.3933 14.3125C22.3933 14.7258 22.0586 15.0502 21.659 15.0502H15.1321C15.1014 15.7777 15.0536 16.5052 14.9852 17.1268H21.6761C22.0859 17.1268 22.4104 17.4513 22.4104 17.8645C22.4104 18.2675 22.0859 18.6022 21.6761 18.6022H14.671C14.3568 19.3195 13.7625 20.0162 13.076 20.6378H21.6761C22.0859 20.6378 22.4104 20.9623 22.4104 21.3756C22.4104 21.7786 22.0859 22.1133 21.6761 22.1133H11.0882C10.3334 22.5948 9.6401 22.9603 9.24049 23.1652V24.3265C9.24049 24.3948 9.35662 24.5314 9.47616 24.5314H24.2889C24.4152 24.5245 24.5314 24.4084 24.5314 24.3196ZM3.77922 17.6562C4.02513 19.0702 6.74381 20.8906 8.60181 21.823C10.4598 20.8906 13.1921 19.0702 13.4346 17.6562C13.5508 16.9492 13.6293 15.8392 13.6806 14.736C13.7181 13.6363 13.7386 12.5331 13.7489 11.8261C12.5637 11.7954 11.8123 11.2967 11.1258 10.8425C10.4017 10.3506 9.76647 9.92714 8.60181 9.92714C7.43715 9.92714 6.81212 10.3506 6.07781 10.8425C5.39131 11.2933 4.61942 11.8056 3.465 11.8363C3.47525 13.2606 3.53673 16.232 3.77922 17.6562ZM18.8959 4.02192V6.17362C18.8959 6.97965 19.1589 7.65931 19.6575 8.14088C20.1562 8.6327 20.87 8.88886 21.7136 8.88886H23.9166L18.8959 4.02192ZM25.6755 8.55415C25.8805 8.73858 26 9.01523 26 9.30895V24.3196C26 25.2247 25.2179 26 24.2889 26H9.47616C8.56765 26 7.77527 25.2145 7.77527 24.3196V23.0628C6.35787 22.3148 2.74776 20.2211 2.33791 17.9123C1.98612 15.887 1.99295 11.2386 2.0032 11.0406C2.0032 10.8151 2.10225 10.6 2.28668 10.4599C2.46087 10.3233 2.68629 10.2755 2.9117 10.3336C3.95 10.4907 4.50671 10.1252 5.27177 9.61634C5.89679 9.19283 6.6516 8.69418 7.77527 8.52682V3.68038C7.77527 2.79579 8.58815 2 9.47616 2H18.4963C18.7695 2 19.0359 2.10588 19.2409 2.29372L25.6755 8.55415ZM11.2556 13.3391C11.5425 13.0522 12.007 13.0522 12.2939 13.3391C12.5808 13.626 12.5808 14.0939 12.2939 14.3808L8.31833 18.3768C8.17488 18.5203 7.98703 18.592 7.79918 18.592C7.61133 18.592 7.42349 18.5203 7.28004 18.3768L5.49377 16.5803C5.20687 16.2934 5.20687 15.8255 5.49377 15.5386C5.78066 15.2517 6.24516 15.2517 6.53206 15.5386L7.79918 16.8126L11.2556 13.3391Z" fill="#86888C"/>
</svg>
