<svg width="40" height="40" viewBox="0 0 40 40" fill="none" xmlns="http://www.w3.org/2000/svg">
<path fill-rule="evenodd" clip-rule="evenodd" d="M35.7382 32.3258V11.6906C35.7382 11.4959 35.5893 11.3473 35.3943 11.3473H19.2823C18.6355 11.3473 18.112 10.8248 18.112 10.1793V7.67418C18.112 7.47951 17.9631 7.33094 17.7681 7.33094H4.67934C4.4843 7.33094 4.33544 7.47951 4.33544 7.67418V32.3258C4.33544 32.5205 4.4843 32.6691 4.67934 32.6691H35.3891C35.5842 32.6691 35.7382 32.5205 35.7382 32.3258ZM35.3891 9.01127C36.8674 9.01127 38.0736 10.21 38.0736 11.6855V32.3258C38.0736 33.8012 36.8725 35 35.3891 35H4.67934C3.20109 35 2 33.8012 2 32.3258V7.67418C2 6.19877 3.20109 5 4.67934 5H17.7681C19.2464 5 20.4474 6.19877 20.4474 7.67418V9.01639H35.3891V9.01127ZM12.5685 17.2643C12.5685 15.2049 13.205 14.1342 14.8783 14.1342C16.5516 14.1342 17.1881 15.2049 17.1881 17.2643C17.1881 19.3238 16.5516 20.3842 14.8783 20.3842C13.205 20.3842 12.5685 19.3238 12.5685 17.2643ZM15.8741 17.2643C15.8741 15.6045 15.5918 15.0564 14.8783 15.0564C14.1648 15.0564 13.8825 15.5994 13.8825 17.2643C13.8825 18.9242 14.1648 19.375 14.8783 19.375C15.5918 19.375 15.8741 18.9242 15.8741 17.2643ZM5.98822 17.2643C5.98822 15.2049 6.62469 14.1342 8.298 14.1342C9.9713 14.1342 10.6078 15.2049 10.6078 17.2643C10.6078 19.3238 9.9713 20.3842 8.298 20.3842C6.62469 20.3842 5.98822 19.3238 5.98822 17.2643ZM9.29377 17.2643C9.29377 15.6045 9.01146 15.0564 8.298 15.0564C7.58453 15.0564 7.30223 15.5994 7.30223 17.2643C7.30223 18.9242 7.58453 19.375 8.298 19.375C9.01146 19.375 9.29377 18.9242 9.29377 17.2643ZM29.2862 17.2643C29.2862 15.2049 29.9227 14.1342 31.596 14.1342C33.2693 14.1342 33.9058 15.2049 33.9058 17.2643C33.9058 19.3238 33.2693 20.3842 31.596 20.3842C29.9175 20.3842 29.2862 19.3238 29.2862 17.2643ZM32.5866 17.2643C32.5866 15.6045 32.3043 15.0564 31.5908 15.0564C30.8774 15.0564 30.5951 15.5994 30.5951 17.2643C30.5951 18.9242 30.8774 19.375 31.5908 19.375C32.3043 19.375 32.5866 18.9242 32.5866 17.2643ZM19.0513 19.4467H20.0625V15.2561H19.0924V14.416C19.4465 14.3648 20.0471 14.3135 20.4731 14.3135C21.089 14.3135 21.2995 14.4621 21.2995 14.9027V19.4518H22.1515V20.3381H19.0462V19.4467H19.0513ZM6.8454 29.3238H7.85657V25.1332H6.8916V24.293C7.24577 24.2418 7.84631 24.1906 8.27233 24.1906C8.88827 24.1906 9.09872 24.3391 9.09872 24.7797V29.3289H9.95077V30.2152H6.8454V29.3238ZM24.3792 19.4467H25.3904V15.2561H24.4254V14.416C24.7796 14.3648 25.3801 14.3135 25.8061 14.3135C26.4221 14.3135 26.6325 14.4621 26.6325 14.9027V19.4518H27.4846V20.3381H24.3792V19.4467ZM12.5685 27.1465C12.5685 25.0871 13.205 24.0164 14.8783 24.0164C16.5516 24.0164 17.1881 25.0871 17.1881 27.1465C17.1881 29.2059 16.5516 30.2664 14.8783 30.2664C13.205 30.2664 12.5685 29.2059 12.5685 27.1465ZM15.8741 27.1465C15.8741 25.4867 15.5918 24.9385 14.8783 24.9385C14.1648 24.9385 13.8825 25.4816 13.8825 27.1465C13.8825 28.8115 14.1648 29.2572 14.8783 29.2572C15.5918 29.2572 15.8741 28.8064 15.8741 27.1465ZM29.2862 27.1465C29.2862 25.0871 29.9227 24.0164 31.596 24.0164C33.2693 24.0164 33.9058 25.0871 33.9058 27.1465C33.9058 29.2059 33.2693 30.2664 31.596 30.2664C29.9175 30.2664 29.2862 29.2059 29.2862 27.1465ZM32.5866 27.1465C32.5866 25.4867 32.3043 24.9385 31.5908 24.9385C30.8774 24.9385 30.5951 25.4816 30.5951 27.1465C30.5951 28.8115 30.8774 29.2572 31.5908 29.2572C32.3043 29.2572 32.5866 28.8064 32.5866 27.1465ZM19.0513 29.3289H20.0625V25.1383H19.0924V24.2982C19.4465 24.2469 20.0471 24.1957 20.4731 24.1957C21.089 24.1957 21.2995 24.3443 21.2995 24.7848V29.334H22.1515V30.2203H19.0462V29.3289H19.0513ZM24.3792 29.3289H25.3904V25.1383H24.4254V24.2982C24.7796 24.2469 25.3801 24.1957 25.8061 24.1957C26.4221 24.1957 26.6325 24.3443 26.6325 24.7848V29.334H27.4846V30.2203H24.3792V29.3289Z" fill="#86888C"/>
</svg>
