<svg width="40" height="40" viewBox="0 0 40 40" fill="none" xmlns="http://www.w3.org/2000/svg">
<path fill-rule="evenodd" clip-rule="evenodd" d="M31.443 35.7871C31.6221 35.7871 31.796 35.6079 31.796 35.4747V14.5549H27.631C25.8094 14.5549 24.2334 13.9556 23.077 12.8133C21.9104 11.6608 21.2964 10.0933 21.2964 8.28002V4.21286H9.5277C9.39467 4.21286 9.17976 4.41776 9.16953 4.52533V35.4747C9.16953 35.5822 9.35373 35.7871 9.5277 35.7871H31.443ZM30.8853 12.3421L23.4608 5.03244V8.2749C23.4608 9.47866 23.8496 10.498 24.5865 11.2203C25.3284 11.9528 26.3825 12.3369 27.631 12.3369C27.631 12.3421 30.8853 12.3421 30.8853 12.3421ZM33.4948 11.8298C33.7967 12.1269 33.9707 12.5418 33.9707 12.967V35.4747C33.9707 36.8423 32.8143 38 31.443 38H9.5277C8.18198 38 7 36.8219 7 35.4747V4.52533C7 3.20376 8.20245 2 9.5277 2H22.8672C23.2817 2 23.6706 2.15879 23.9673 2.45077L33.4948 11.8298ZM12.7001 22.6995C12.2754 22.2641 12.2754 21.5674 12.7001 21.1372L14.1226 19.6875L12.7001 18.2379C12.2754 17.8025 12.2754 17.1059 12.7001 16.6756C13.1146 16.2504 13.7951 16.2402 14.2147 16.6551L14.2352 16.6756L15.6576 18.1252L17.0801 16.6756C17.4946 16.2504 18.1751 16.2453 18.5947 16.6602L18.61 16.6756C19.0347 17.111 19.0347 17.8076 18.61 18.2379L17.1876 19.6875L18.61 21.1372C19.0347 21.5726 19.0347 22.2692 18.61 22.6995C18.1956 23.1246 17.515 23.1298 17.0903 22.7149L17.075 22.6995L15.6525 21.2499L14.23 22.6995C13.8105 23.1246 13.1299 23.1298 12.7052 22.7097C12.7104 22.7046 12.7052 22.6995 12.7001 22.6995ZM28.5111 16.6705C28.9357 17.1059 28.9357 17.8025 28.5111 18.2328L27.0886 19.6824L28.5111 21.132C28.9357 21.5674 28.9357 22.2641 28.5111 22.6944C28.0966 23.1195 27.4161 23.1246 26.9914 22.7097L26.976 22.6944L25.5535 21.2447L24.1311 22.6944C23.7115 23.1195 23.031 23.1246 22.6063 22.7046L22.596 22.6944C22.1713 22.259 22.1713 21.5623 22.596 21.132L24.0185 19.6824L22.596 18.2328C22.1713 17.7974 22.1713 17.1007 22.596 16.6705C23.0105 16.2453 23.691 16.2351 24.1106 16.65L24.1311 16.6705L25.5535 18.1201L26.976 16.6705C27.3905 16.2453 28.071 16.2351 28.4906 16.65L28.5111 16.6705ZM24.7809 25.568C26.3518 25.6039 27.9329 26.6488 27.9329 28.9027C27.938 29.5071 27.4519 30.004 26.8481 30.0091C26.2494 30.0091 25.7633 29.5122 25.7633 28.9027C25.7633 28.5748 25.7633 27.8065 24.7348 27.7809H24.5762C23.5733 27.786 23.5733 28.5595 23.5733 28.8873C23.5733 31.1924 21.9922 32.222 20.4316 32.2322H20.1911C18.6203 32.1912 17.0392 31.1514 17.0392 28.9027C17.0392 28.5748 17.0392 27.8065 16.0107 27.7809H15.8521C14.8492 27.786 14.8492 28.5595 14.8492 28.8873C14.8543 29.4917 14.3682 29.9886 13.7644 29.9937C13.1658 29.9937 12.6797 29.4969 12.6797 28.8873C12.6797 26.6079 14.2556 25.5783 15.8265 25.568H16.0619C17.6327 25.6039 19.2138 26.6488 19.2138 28.9027C19.2138 29.2305 19.2138 29.9989 20.2423 30.0245H20.4009C21.4038 30.0194 21.4038 29.2459 21.4038 28.918C21.4038 26.613 22.9849 25.5834 24.5455 25.5731L24.7809 25.568Z" fill="#86888C"/>
</svg>
