<svg width="24" height="24" viewBox="0 0 24 24" fill="none" xmlns="http://www.w3.org/2000/svg">
<path fill-rule="evenodd" clip-rule="evenodd" d="M20.7761 20.5997V8.96741H18.428C17.4006 8.96741 16.5125 8.63156 15.8608 7.99971C15.209 7.36217 14.8589 6.49125 14.8589 5.47801V3.2267H8.23013C8.15613 3.2267 8.03374 3.34054 8.03374 3.39747V7.41056C9.06122 7.52725 9.73861 7.96841 10.2851 8.3441C10.9283 8.77103 11.3951 9.08126 12.2916 8.93326C12.471 8.90764 12.6588 8.95033 12.7983 9.07272C12.9292 9.18657 13.0174 9.35164 13.0174 9.53095C13.0174 9.60495 13.0174 10.5243 12.9833 11.6457H18.3825C18.7155 11.6457 18.9944 11.9246 18.9944 12.2604C18.9944 12.6048 18.7155 12.8752 18.3825 12.8752H12.9434C12.9178 13.4814 12.878 14.0877 12.821 14.6057H18.3967C18.7383 14.6057 19.0087 14.876 19.0087 15.2204C19.0087 15.5563 18.7383 15.8352 18.3967 15.8352H12.5592C12.2973 16.4329 11.8021 17.0135 11.23 17.5315H18.3967C18.7383 17.5315 19.0087 17.8019 19.0087 18.1463C19.0087 18.4821 18.7383 18.7611 18.3967 18.7611H9.57353C8.94453 19.1624 8.36675 19.4669 8.03374 19.6377V20.6054C8.03374 20.6623 8.13052 20.7761 8.23013 20.7761H20.5741C20.6794 20.7705 20.7761 20.6737 20.7761 20.5997ZM3.48269 15.0468C3.68761 16.2251 5.95318 17.7421 7.50151 18.5191C9.04983 17.7421 11.3268 16.2251 11.5289 15.0468C11.6256 14.4577 11.6911 13.5327 11.7338 12.6133C11.7651 11.6969 11.7822 10.7776 11.7907 10.1884C10.8031 10.1628 10.1769 9.74726 9.60484 9.36872C9.00145 8.95887 8.47206 8.60595 7.50151 8.60595C6.53096 8.60595 6.0101 8.95887 5.39817 9.36872C4.82609 9.74441 4.18285 10.1713 3.22084 10.197C3.22938 11.3838 3.28061 13.86 3.48269 15.0468ZM16.0799 3.68493V5.47801C16.0799 6.14971 16.2991 6.71609 16.7146 7.1174C17.1302 7.52725 17.725 7.74071 18.428 7.74071H20.2638L16.0799 3.68493ZM21.7296 7.46179C21.9004 7.61548 22 7.84602 22 8.09079V20.5997C22 21.3539 21.3482 22 20.5741 22H8.23013C7.47304 22 6.81273 21.3454 6.81273 20.5997V19.5523C5.63156 18.929 2.62314 17.1843 2.28159 15.2603C1.98844 13.5725 1.99413 9.69888 2.00267 9.5338C2.00267 9.34595 2.08521 9.16664 2.2389 9.04995C2.38406 8.9361 2.57191 8.89626 2.75975 8.94464C3.625 9.07557 4.08892 8.77103 4.72647 8.34695C5.24732 7.99402 5.87633 7.57848 6.81273 7.43902V3.40031C6.81273 2.66316 7.49012 2 8.23013 2H15.7469C15.9746 2 16.1966 2.08823 16.3674 2.24477L21.7296 7.46179ZM9.713 11.4493C9.95208 11.2102 10.3392 11.2102 10.5782 11.4493C10.8173 11.6883 10.8173 12.0783 10.5782 12.3173L7.26527 15.6474C7.14573 15.7669 6.98919 15.8267 6.83265 15.8267C6.67611 15.8267 6.51957 15.7669 6.40003 15.6474L4.91147 14.1503C4.67239 13.9112 4.67239 13.5213 4.91147 13.2822C5.15055 13.0431 5.53764 13.0431 5.77672 13.2822L6.83265 14.3438L9.713 11.4493Z" fill="#86888C"/>
</svg>
