<svg width="24" height="24" viewBox="0 0 24 24" fill="none" xmlns="http://www.w3.org/2000/svg">
<path fill-rule="evenodd" clip-rule="evenodd" d="M20.764 21.529V9.96052L18.1123 9.95199C17.1335 9.94345 16.3369 9.64186 15.7451 9.04437C14.7521 8.02295 14.7663 6.53492 14.7663 6.46948L14.7407 4.23032H8.21673C8.12568 4.23032 8.05171 4.26162 7.98627 4.32706C7.92936 4.38396 7.88669 4.46647 7.88669 4.55467L7.89522 7.16371L8.13422 6.6971C8.36468 6.20772 8.96501 6.00287 9.45723 6.24756C9.66208 6.34429 9.81857 6.50078 9.91815 6.6971L15.8504 18.5587C16.095 19.0253 15.9158 19.6228 15.4293 19.876C15.2899 19.9585 15.1248 19.9983 14.9598 19.9983H14.9342L7.90376 19.9756V21.3982C7.89522 21.512 7.90376 21.6258 7.96066 21.6912C8.00903 21.7424 8.10008 21.7737 8.21673 21.7737L20.5307 21.7567C20.6644 21.7567 20.764 21.6514 20.764 21.529ZM3.37991 18.7322L7.2579 18.7408L14.5786 18.7721L9.02476 7.66161L3.37991 18.7322ZM20.2063 8.73709L15.9755 4.6571L16.0012 6.48086C16.0012 6.50362 16.0012 7.55065 16.6328 8.19651C16.9856 8.54931 17.4721 8.72002 18.1208 8.72856L20.2063 8.73709ZM21.6915 8.45826C21.8878 8.66312 21.996 8.91634 21.996 9.18379V21.529C21.996 22.3285 21.3387 22.9829 20.5421 22.9829L8.21957 23C7.75865 23 7.34895 22.8293 7.07012 22.5334C6.78275 22.2318 6.65188 21.8306 6.67748 21.364V19.967L2.99581 19.95H2.97874C2.45238 19.95 2.00854 19.5175 2 18.9854C2 18.8147 2.03414 18.6497 2.11381 18.5018L6.6661 9.57358L6.65757 4.55467C6.65757 4.13643 6.82259 3.75517 7.11849 3.45928C7.41439 3.16622 7.80133 3.0012 8.21957 3.0012H15.3496C15.7678 2.98413 16.2032 3.14915 16.5417 3.49057L21.6915 8.45826ZM9.04752 15.9895C8.7061 15.9895 8.43012 15.7135 8.43012 15.3778V10.9336C8.43012 10.595 8.7061 10.3219 9.04752 10.3219C9.38894 10.3219 9.66493 10.5978 9.66493 10.9336V15.3778C9.66208 15.7163 9.3861 15.9895 9.04752 15.9895ZM9.05321 16.3081C9.40886 16.3081 9.69622 16.5955 9.69622 16.9483C9.69622 17.3011 9.40886 17.5885 9.05321 17.5885C8.69756 17.5885 8.4102 17.3039 8.4102 16.9483C8.4102 16.5955 8.69756 16.3081 9.05321 16.3081Z" fill="#86888C"/>
</svg>
