<svg width="24" height="24" viewBox="0 0 24 24" fill="none" xmlns="http://www.w3.org/2000/svg">
<path d="M19.9165 22H9.24086C8.51681 22 8.06641 21.5467 8.06641 20.8198V16.504C8.06641 16.1904 8.32296 15.9339 8.63653 15.9339C8.9501 15.9339 9.20666 16.1904 9.20666 16.504V20.8597H20.8486V20.8483V8.3683L15.6263 3.1431H9.20666V5.90536C9.20666 6.21893 8.9501 6.47548 8.63653 6.47548C8.32296 6.47548 8.06641 6.21893 8.06641 5.90536V4.94185V3.16876C8.06641 2.4504 8.51681 2.00285 9.23801 2H15.8629C16.014 2 16.1593 2.05986 16.2648 2.16819L21.8235 7.72691C21.9319 7.83238 21.9917 7.97776 21.9917 8.12885V20.8455C21.9917 21.5439 21.5385 21.9943 20.8429 21.9971C20.535 22 20.2272 22 19.9165 22Z" fill="#86888C"/>
<path d="M21.4212 8.70141H18.6419C17.6698 8.70141 16.8317 8.37929 16.2245 7.76926C15.6173 7.15923 15.2924 6.32399 15.2924 5.35193V3.82114V2.57257C15.2924 2.259 15.5489 2.00244 15.8625 2.00244C16.0136 2.00244 16.159 2.0623 16.2644 2.16778L21.8232 7.7265C22.0455 7.94885 22.0455 8.31088 21.8232 8.53323C21.7177 8.64155 21.5723 8.70141 21.4212 8.70141ZM16.4326 3.94942V5.35193C16.4326 6.01612 16.6379 6.572 17.0284 6.96538C17.4189 7.35877 17.9777 7.56401 18.639 7.56401H20.0415L16.4326 3.94942ZM10.0301 16.9654C6.769 16.9654 4.12646 14.3229 4.12646 11.0617C4.12646 7.80062 6.769 5.15809 10.0301 5.15809C13.2912 5.15809 15.9338 7.80062 15.9338 11.0617C15.9338 12.6267 15.3123 14.129 14.2034 15.2351C13.1002 16.3468 11.598 16.9682 10.0301 16.9654ZM10.0301 6.29834C7.39898 6.29834 5.26672 8.43346 5.26957 11.0646C5.26957 13.6957 7.40469 15.828 10.0358 15.8251C12.6669 15.8223 14.7964 13.69 14.7964 11.0589C14.7964 9.79606 14.2947 8.58454 13.3996 7.69229C12.5073 6.7972 11.2958 6.29264 10.0301 6.29834Z" fill="#86888C"/>
<path d="M2.57013 19.2344C2.25656 19.2344 2 18.9807 2 18.6642C2 18.516 2.05701 18.3735 2.15964 18.268L5.84835 14.4368C6.06784 14.2087 6.42702 14.203 6.65507 14.4225C6.88312 14.642 6.88883 15.0012 6.66933 15.2292L2.98062 19.0605C2.87229 19.1717 2.72406 19.2344 2.57013 19.2344Z" fill="#86888C"/>
</svg>
