<svg width="28" height="28" viewBox="0 0 28 28" fill="none" xmlns="http://www.w3.org/2000/svg">
<path d="M18.958 26H10.9973C9.65355 26 8.67378 25.6757 8.00359 25.01C7.32659 24.3374 7 23.3474 7 21.9886V6.01138C7 4.68677 7.32659 3.7138 8.00018 3.0276C8.68058 2.33798 9.66035 2 10.9973 2H18.958C20.3052 2 21.2849 2.32774 21.9585 3.00711C22.6321 3.68649 22.9553 4.66629 22.9553 6.01138V21.9886C22.9553 23.3474 22.6253 24.3374 21.9517 25.01C21.2781 25.6757 20.3018 26 18.958 26ZM10.9973 3.36558C9.12624 3.36558 8.36079 4.13371 8.36079 6.01138V21.9886C8.36079 23.9175 9.07521 24.6344 10.9973 24.6344H18.958C20.8801 24.6344 21.5945 23.9175 21.5945 21.9886V6.01138C21.5945 5.04523 21.3972 4.3761 20.9958 3.96984C20.5943 3.56358 19.9241 3.36558 18.958 3.36558H10.9973Z" fill="#86888C"/>
<path d="M14.9777 20.7767C14.3653 20.7767 13.9673 21.101 13.9673 21.794C13.9673 22.1286 14.0591 22.3744 14.2224 22.5417C14.3993 22.7226 14.6579 22.8114 14.9777 22.8114C15.2974 22.8114 15.556 22.7226 15.7329 22.5417C15.8962 22.3744 15.988 22.1252 15.988 21.794C15.9846 21.101 15.59 20.7767 14.9777 20.7767Z" fill="#86888C"/>
<path d="M14.9777 23.1562C14.5626 23.1562 14.2156 23.0265 13.9809 22.7841C13.7461 22.5417 13.6305 22.2105 13.6305 21.7974C13.6305 20.9474 14.134 20.4387 14.9811 20.4387C15.8281 20.4387 16.3282 20.9474 16.3282 21.7974C16.3282 22.2139 16.2092 22.5451 15.9778 22.7841C15.7465 23.023 15.3927 23.1562 14.9777 23.1562ZM14.9777 21.1215C14.515 21.1215 14.3075 21.3297 14.3075 21.7974C14.3075 22.0296 14.3619 22.2003 14.464 22.3061C14.566 22.4119 14.7429 22.4734 14.9743 22.4734C15.2056 22.4734 15.3791 22.4188 15.4845 22.3061C15.59 22.1935 15.641 22.0262 15.641 21.7974C15.6444 21.3297 15.4403 21.1181 14.9777 21.1215ZM14.9708 18.957C14.7939 18.957 14.6272 18.8785 14.5116 18.7454L10.504 14.1024C10.2829 13.8464 10.3101 13.4606 10.5653 13.2421C10.6775 13.1465 10.817 13.0919 10.9633 13.0919H12.7085V7.0936C12.6983 6.78976 12.8174 6.49957 13.0385 6.29132C13.2665 6.07283 13.576 5.96358 13.889 5.9909H16.1207C16.7059 5.9909 17.1787 6.46202 17.1821 7.04922C17.1821 7.08677 17.1821 7.12091 17.1753 7.15846V13.0919H18.9852C19.322 13.0919 19.5941 13.3616 19.5941 13.6996C19.5941 13.8464 19.5431 13.9898 19.4445 14.1024L15.4267 18.7454C15.3145 18.8785 15.1478 18.957 14.9708 18.957ZM12.2969 14.3141L14.9708 17.4174L17.655 14.3141H16.5698C16.233 14.3141 15.9608 14.041 15.9608 13.703V7.21309H13.9264V13.703C13.9264 14.041 13.6543 14.3141 13.3175 14.3141H12.2969Z" fill="#86888C"/>
</svg>
