<svg width="40" height="40" viewBox="0 0 40 40" fill="none" xmlns="http://www.w3.org/2000/svg">
<path d="M25.937 38.2539H13.996C11.9803 38.2539 10.5107 37.7674 9.50538 36.7688C8.48989 35.76 8 34.275 8 32.2368V8.27098C8 6.28406 8.48989 4.8246 9.50028 3.7953C10.5209 2.76088 11.9905 2.25391 13.996 2.25391H25.937C27.9577 2.25391 29.4274 2.74551 30.4378 3.76457C31.4482 4.78364 31.933 6.25334 31.933 8.27098V32.2368C31.933 34.275 31.438 35.76 30.4276 36.7688C29.4172 37.7674 27.9526 38.2539 25.937 38.2539ZM13.996 4.30227C11.1894 4.30227 10.0412 5.45448 10.0412 8.27098V32.2368C10.0412 35.1301 11.1128 36.2055 13.996 36.2055H25.937C28.8201 36.2055 29.8918 35.1301 29.8918 32.2368V8.27098C29.8918 6.82176 29.5958 5.81806 28.9936 5.20867C28.3915 4.59928 27.3862 4.30227 25.937 4.30227H13.996Z" fill="#86888C"/>
<path d="M19.9665 30.4189C19.0479 30.4189 18.4509 30.9054 18.4509 31.9449C18.4509 32.4468 18.5887 32.8155 18.8336 33.0664C19.099 33.3378 19.4868 33.471 19.9665 33.471C20.4462 33.471 20.834 33.3378 21.0993 33.0664C21.3443 32.8155 21.4821 32.4417 21.4821 31.9449C21.477 30.9054 20.885 30.4189 19.9665 30.4189Z" fill="#86888C"/>
<path d="M19.9665 33.9882C19.3439 33.9882 18.8234 33.7936 18.4713 33.43C18.1192 33.0664 17.9457 32.5697 17.9457 31.9501C17.9457 30.675 18.7009 29.9119 19.9716 29.9119C21.2422 29.9119 21.9924 30.675 21.9924 31.9501C21.9924 32.5748 21.8138 33.0715 21.4668 33.43C21.1198 33.7885 20.589 33.9882 19.9665 33.9882ZM19.9665 30.9361C19.2725 30.9361 18.9612 31.2485 18.9612 31.9501C18.9612 32.2983 19.0428 32.5543 19.1959 32.7131C19.349 32.8718 19.6144 32.964 19.9614 32.964C20.3084 32.964 20.5686 32.8821 20.7268 32.7131C20.885 32.5441 20.9616 32.2932 20.9616 31.9501C20.9667 31.2485 20.6605 30.931 19.9665 30.9361ZM19.9563 27.6895C19.6909 27.6895 19.4409 27.5717 19.2674 27.372L13.2561 20.4075C12.9244 20.0235 12.9652 19.4448 13.3479 19.1171C13.5163 18.9737 13.7255 18.8917 13.945 18.8917H16.5628V9.8943C16.5475 9.43854 16.7261 9.00327 17.0578 8.69089C17.3997 8.36315 17.8641 8.19928 18.3335 8.24025H21.6811C22.5588 8.24025 23.2681 8.94694 23.2732 9.82773C23.2732 9.88406 23.2732 9.93527 23.263 9.9916V18.8917H25.9778C26.483 18.8917 26.8912 19.2963 26.8912 19.8033C26.8912 20.0235 26.8147 20.2385 26.6667 20.4075L20.6401 27.372C20.4717 27.5717 20.2216 27.6895 19.9563 27.6895ZM15.9453 20.725L19.9563 25.3799L23.9825 20.725H22.3547C21.8495 20.725 21.4412 20.3154 21.4412 19.8084V10.0735H18.3897V19.8084C18.3897 20.3154 17.9814 20.725 17.4762 20.725H15.9453Z" fill="#86888C"/>
</svg>
