<svg width="20" height="20" viewBox="0 0 20 20" fill="none" xmlns="http://www.w3.org/2000/svg">
<path d="M12.972 18H7.66489C6.76903 18 6.11585 17.7838 5.66906 17.34C5.21773 16.8916 5 16.2316 5 15.3257V4.67425C5 3.79118 5.21773 3.14253 5.66679 2.68506C6.12039 2.22532 6.77357 2 7.66489 2H12.972C13.8701 2 14.5233 2.21849 14.9723 2.67141C15.4214 3.12432 15.6369 3.77752 15.6369 4.67425V15.3257C15.6369 16.2316 15.4169 16.8916 14.9678 17.34C14.5188 17.7838 13.8678 18 12.972 18ZM7.66489 2.91038C6.41749 2.91038 5.9072 3.42248 5.9072 4.67425V15.3257C5.9072 16.6117 6.38347 17.0896 7.66489 17.0896H12.972C14.2534 17.0896 14.7297 16.6117 14.7297 15.3257V4.67425C14.7297 4.03016 14.5981 3.58407 14.3305 3.31323C14.0629 3.04239 13.6161 2.91038 12.972 2.91038H7.66489Z" fill="#86888C"/>
<path d="M10.3184 14.5178C9.9102 14.5178 9.64484 14.734 9.64484 15.196C9.64484 15.4191 9.70608 15.5829 9.81494 15.6945C9.93288 15.8151 10.1052 15.8743 10.3184 15.8743C10.5316 15.8743 10.704 15.8151 10.8219 15.6945C10.9308 15.5829 10.992 15.4168 10.992 15.196C10.9898 14.734 10.7267 14.5178 10.3184 14.5178Z" fill="#86888C"/>
<path d="M10.3184 16.1041C10.0417 16.1041 9.81041 16.0176 9.65391 15.856C9.49742 15.6945 9.42031 15.4737 9.42031 15.1983C9.42031 14.6316 9.75597 14.2925 10.3207 14.2925C10.8854 14.2925 11.2188 14.6316 11.2188 15.1983C11.2188 15.476 11.1394 15.6967 10.9852 15.856C10.831 16.0154 10.5951 16.1041 10.3184 16.1041ZM10.3184 14.7477C10.01 14.7477 9.87164 14.8865 9.87164 15.1983C9.87164 15.3531 9.90793 15.4669 9.97597 15.5374C10.044 15.608 10.1619 15.6489 10.3162 15.6489C10.4704 15.6489 10.5861 15.6125 10.6564 15.5374C10.7267 15.4623 10.7607 15.3508 10.7607 15.1983C10.763 14.8865 10.6269 14.7454 10.3184 14.7477ZM10.3139 13.3047C10.196 13.3047 10.0848 13.2523 10.0077 13.1636L7.33603 10.0683C7.18861 9.89758 7.20675 9.6404 7.37685 9.49474C7.4517 9.43101 7.54468 9.39459 7.64221 9.39459H8.80569V5.39573C8.79888 5.19317 8.87826 4.99972 9.02568 4.86088C9.17764 4.71522 9.38402 4.64239 9.59268 4.6606H11.0805C11.4706 4.6606 11.7858 4.97468 11.7881 5.36614C11.7881 5.39118 11.7881 5.41394 11.7836 5.43898V9.39459H12.9901C13.2147 9.39459 13.3961 9.5744 13.3961 9.79972C13.3961 9.89758 13.3621 9.99317 13.2963 10.0683L10.6178 13.1636C10.543 13.2523 10.4318 13.3047 10.3139 13.3047ZM8.53126 10.2094L10.3139 12.2782L12.1033 10.2094H11.3799C11.1553 10.2094 10.9739 10.0273 10.9739 9.80199V5.47539H9.61763V9.80199C9.61763 10.0273 9.43619 10.2094 9.21166 10.2094H8.53126Z" fill="#86888C"/>
</svg>
