<svg width="40" height="40" viewBox="0 0 40 40" fill="none" xmlns="http://www.w3.org/2000/svg">
<path fill-rule="evenodd" clip-rule="evenodd" d="M34.5696 35.8799C35.1347 35.8799 35.5868 36.3511 35.5868 36.94C35.5868 37.5238 35.1296 38 34.5696 38L5.01727 38C4.45212 38 4 37.5289 4 36.94C4 36.3562 4.45726 35.8799 5.01727 35.8799L34.5696 35.8799ZM6.76924 33.5704C6.06024 33.5704 5.38719 33.2683 4.89397 32.7459C4.20037 31.9932 3.9589 30.9024 4.26202 29.909L7.05696 21.0651C7.22137 20.5889 7.4988 20.1639 7.87386 19.8361C15.5599 12.6003 23.8163 4.72944 24.3866 4.13542C25.5323 2.81935 27.1455 2.04609 28.8513 2C30.6341 2.01536 32.3295 2.77838 33.5574 4.11494C34.8213 5.45149 35.5509 7.23357 35.5971 9.10782C35.5663 10.9462 34.8367 12.6976 33.5574 13.9727C32.5402 15.1147 17.0036 29.7758 16.8444 29.9243C16.5823 30.1804 16.2689 30.3698 15.9247 30.4723L7.6067 33.4117C7.3344 33.5294 7.05182 33.5755 6.76924 33.5704ZM6.19895 30.5491C6.11675 30.8 6.1784 31.0816 6.36336 31.266C6.51236 31.4299 6.74356 31.4964 6.9542 31.435L15.2722 28.598C15.3493 28.5724 15.4161 28.5263 15.4777 28.47C18.0466 26.0376 31.2352 13.5323 32.1086 12.6003C33.0026 11.6785 33.5061 10.4188 33.4958 9.10782C33.4855 7.79175 32.9974 6.53201 32.1291 5.5744C31.2763 4.66287 30.11 4.14566 28.8872 4.13542C27.6953 4.1559 26.565 4.67312 25.7481 5.5744C24.9928 6.39886 13.5202 17.2552 9.17371 21.3775C9.0915 21.4492 9.02471 21.5465 8.98875 21.6541L6.19895 30.5491Z" fill="#86888C"/>
</svg>
