<svg width="20" height="20" viewBox="0 0 20 20" fill="none" xmlns="http://www.w3.org/2000/svg">
<path d="M17.828 4.22991C17.8212 3.6403 17.5915 3.07346 17.1861 2.65003C16.7919 2.26303 16.2739 2.03311 15.7244 2.00124C15.1185 1.98075 14.5307 2.21523 14.105 2.65003L13.6681 3.05297H5.3529C3.28762 3.03476 2.00385 4.25722 2.00385 6.21499V14.8519C1.96106 15.6965 2.27637 16.5206 2.86871 17.1193C3.55113 17.7339 4.44976 18.0481 5.36417 17.9935H12.81C13.7267 18.0504 14.6276 17.7339 15.3145 17.1193C15.9091 16.5206 16.2221 15.6965 16.1816 14.8519V6.70443L17.1771 5.76425C17.587 5.36131 17.8212 4.80813 17.828 4.22991ZM15.2402 14.8497C15.2739 15.437 15.0645 16.0129 14.6636 16.4386C14.1456 16.878 13.4767 17.0988 12.801 17.0487H5.3529C4.67724 17.0988 4.00833 16.8803 3.49032 16.4386C3.09618 16.0084 2.89348 15.4347 2.93177 14.8497V6.21499C2.93177 4.82406 3.79662 3.97494 5.36191 3.97494H12.6411L9.01276 7.21208C8.88889 7.32819 8.79205 7.47388 8.73349 7.63551L7.87765 10.2216C7.75377 10.5722 7.84386 10.9614 8.10962 11.2187C8.28755 11.4076 8.53304 11.5123 8.78979 11.5101C8.89114 11.5237 8.99475 11.5237 9.0961 11.5101L11.6659 10.6541C11.7898 10.6109 11.9024 10.5448 12.0015 10.4561C12.0015 10.4561 13.7785 8.87619 15.2311 7.56039L15.2402 14.8497ZM8.72448 10.5221L9.59159 7.91779C10.979 6.70443 14.5149 3.5629 14.7672 3.31932C14.9924 3.08029 15.3055 2.9437 15.632 2.9437H15.6883C16.364 2.97785 16.8933 3.54013 16.8978 4.22308C16.8955 4.55316 16.7604 4.86732 16.5262 5.09724C16.2469 5.36131 12.0397 9.12432 11.3776 9.71621L8.80781 10.5722C8.80781 10.5699 8.72448 10.5221 8.72448 10.5221Z" fill="#86888C"/>
</svg>
