<svg width="24" height="24" viewBox="0 0 24 24" fill="none" xmlns="http://www.w3.org/2000/svg">
<path d="M21.7849 4.78738C21.7765 4.05037 21.4893 3.34182 20.9826 2.81254C20.4899 2.32879 19.8424 2.04139 19.1555 2.00155C18.3982 1.97594 17.6634 2.26903 17.1313 2.81254L16.5851 3.31621H6.19113C3.60952 3.29345 2.00482 4.82153 2.00482 7.26874V18.0649C1.95133 19.1206 2.34546 20.1507 3.08588 20.8991C3.93891 21.6674 5.06221 22.0601 6.20521 21.9918H15.5125C16.6583 22.063 17.7844 21.6674 18.6431 20.8991C19.3863 20.1507 19.7777 19.1206 19.727 18.0649V7.88054L20.9713 6.70531C21.4837 6.20164 21.7765 5.51016 21.7849 4.78738ZM18.5502 18.0621C18.5924 18.7962 18.3306 19.5162 17.8295 20.0483C17.182 20.5975 16.3458 20.8735 15.5012 20.8109H6.19113C5.34655 20.8735 4.51041 20.6003 3.8629 20.0483C3.37022 19.5105 3.11685 18.7934 3.16471 18.0621V7.26874C3.16471 5.53008 4.24578 4.46868 6.20239 4.46868H15.3014L10.766 8.51511C10.6111 8.66023 10.4901 8.84235 10.4169 9.04439L9.34706 12.277C9.19222 12.7152 9.30483 13.2018 9.63703 13.5233C9.85944 13.7595 10.1663 13.8904 10.4872 13.8876C10.6139 13.9047 10.7434 13.9047 10.8701 13.8876L14.0824 12.8176C14.2372 12.7636 14.378 12.6811 14.5018 12.5701C14.5018 12.5701 16.7231 10.5952 18.5389 8.95048L18.5502 18.0621ZM10.4056 12.6526L11.4895 9.39724C13.2237 7.88054 17.6437 3.95362 17.959 3.64915C18.2405 3.35036 18.6318 3.17962 19.0401 3.17962H19.1104C19.955 3.22231 20.6166 3.92517 20.6222 4.77884C20.6194 5.19146 20.4505 5.58415 20.1577 5.87155C19.8086 6.20164 14.5497 10.9054 13.722 11.6453L10.5098 12.7152C10.5098 12.7124 10.4056 12.6526 10.4056 12.6526Z" fill="#86888C"/>
</svg>
