<svg width="20" height="20" viewBox="0 0 20 20" fill="none" xmlns="http://www.w3.org/2000/svg">
<path fill-rule="evenodd" clip-rule="evenodd" d="M16.5865 17.0578C16.8377 17.0578 17.0386 17.2671 17.0386 17.5289C17.0386 17.7883 16.8354 18 16.5865 18H3.45212C3.20094 18 3 17.7906 3 17.5289C3 17.2694 3.20323 17.0578 3.45212 17.0578H16.5865ZM4.23077 16.0313C3.91566 16.0313 3.61653 15.897 3.39732 15.6649C3.08905 15.3303 2.98173 14.8455 3.11646 14.404L4.35865 10.4734C4.43172 10.2617 4.55502 10.0728 4.72171 9.92717C8.13774 6.71124 11.8072 3.21309 12.0607 2.94908C12.5699 2.36415 13.2869 2.02048 14.045 2C14.8374 2.00683 15.5909 2.34595 16.1366 2.93997C16.6984 3.534 17.0226 4.32603 17.0432 5.15903C17.0295 5.9761 16.7052 6.75448 16.1366 7.3212C15.6845 7.82873 8.77939 14.3448 8.7086 14.4108C8.59215 14.5246 8.45286 14.6088 8.29987 14.6543L4.60298 15.9607C4.48195 16.0131 4.35636 16.0336 4.23077 16.0313ZM3.97731 14.6885C3.94078 14.8 3.96818 14.9252 4.05038 15.0071C4.1166 15.0799 4.21936 15.1095 4.31298 15.0822L8.00987 13.8213C8.04412 13.81 8.07381 13.7895 8.10121 13.7644C9.24293 12.6834 15.1045 7.12546 15.4927 6.71124C15.89 6.30156 16.1138 5.74168 16.1092 5.15903C16.1047 4.57411 15.8877 4.01422 15.5018 3.58862C15.1228 3.1835 14.6045 2.95363 14.061 2.94908C13.5312 2.95818 13.0289 3.18805 12.6658 3.58862C12.3301 3.95505 7.23122 8.78009 5.29943 10.6122C5.26289 10.6441 5.23321 10.6873 5.21722 10.7351L3.97731 14.6885Z" fill="#86888C"/>
</svg>
