<svg width="28" height="28" viewBox="0 0 28 28" fill="none" xmlns="http://www.w3.org/2000/svg">
<path d="M25.7419 5.34486C25.7318 4.46045 25.3872 3.61019 24.7791 2.97505C24.1879 2.39455 23.4109 2.04966 22.5866 2.00186C21.6778 1.97113 20.7961 2.32284 20.1576 2.97505L19.5022 3.57945H7.02936C3.93143 3.55214 2.00578 5.38583 2.00578 8.32248V21.2779C1.94159 22.5447 2.41456 23.7809 3.30306 24.6789C4.32669 25.6009 5.67465 26.0721 7.04625 25.9902H18.215C19.59 26.0756 20.9413 25.6009 21.9717 24.6789C22.8636 23.7809 23.3332 22.5447 23.2724 21.2779V9.05665L24.7656 7.64637C25.3805 7.04197 25.7318 6.21219 25.7419 5.34486ZM21.8602 21.2745C21.9109 22.1555 21.5967 23.0194 20.9954 23.6579C20.2184 24.317 19.215 24.6482 18.2015 24.5731H7.02936C6.01586 24.6482 5.01249 24.3204 4.23548 23.6579C3.64427 23.0126 3.34022 22.1521 3.39765 21.2745V8.32248C3.39765 6.2361 4.69493 4.96241 7.04287 4.96241H17.9616L12.5191 9.81813C12.3333 9.99228 12.1881 10.2108 12.1002 10.4533L10.8165 14.3324C10.6307 14.8582 10.7658 15.4422 11.1644 15.828C11.4313 16.1114 11.7996 16.2685 12.1847 16.2651C12.3367 16.2856 12.4921 16.2856 12.6441 16.2651L16.4988 14.9812C16.6846 14.9163 16.8535 14.8173 17.0022 14.6841C17.0022 14.6841 19.6677 12.3143 21.8467 10.3406L21.8602 21.2745ZM12.0867 14.7831L13.3874 10.8767C15.4684 9.05665 20.7724 4.34435 21.1508 3.97897C21.4886 3.62043 21.9582 3.41555 22.4481 3.41555H22.5325C23.546 3.46677 24.3399 4.3102 24.3467 5.33461C24.3433 5.82975 24.1406 6.30098 23.7893 6.64586C23.3703 7.04197 17.0596 12.6865 16.0664 13.5743L12.2117 14.8582C12.2117 14.8548 12.0867 14.7831 12.0867 14.7831Z" fill="#86888C"/>
</svg>
