<svg width="24" height="24" viewBox="0 0 24 24" fill="none" xmlns="http://www.w3.org/2000/svg">
<path fill-rule="evenodd" clip-rule="evenodd" d="M19.9831 20.8222C20.2971 20.8222 20.5482 21.0839 20.5482 21.4111C20.5482 21.7354 20.2942 22 19.9831 22L3.56515 22C3.25118 22 3 21.7383 3 21.4111C3 21.0868 3.25403 20.8222 3.56515 20.8222L19.9831 20.8222ZM4.53847 19.5391C4.14458 19.5391 3.77066 19.3713 3.49665 19.0811C3.11132 18.6629 2.97717 18.0569 3.14557 17.505L4.69831 12.5918C4.78965 12.3272 4.94378 12.091 5.15214 11.909C9.42218 7.88905 14.009 3.51636 14.3259 3.18634C14.9624 2.45519 15.8586 2.0256 16.8063 2C17.7967 2.00853 18.7386 2.43243 19.4208 3.17496C20.123 3.9175 20.5283 4.90754 20.554 5.94879C20.5368 6.97013 20.1315 7.9431 19.4208 8.65149C18.8556 9.28592 10.2242 17.431 10.1358 17.5135C9.99019 17.6558 9.81607 17.761 9.62484 17.8179L5.00372 19.4509C4.85244 19.5164 4.69546 19.542 4.53847 19.5391ZM4.22164 17.8606C4.17597 18 4.21022 18.1565 4.31298 18.2589C4.39575 18.3499 4.5242 18.3869 4.64122 18.3528L9.26234 16.7767C9.30515 16.7624 9.34226 16.7368 9.37651 16.7055C10.8037 15.3542 18.1307 8.40683 18.6159 7.88905C19.1125 7.37696 19.3923 6.6771 19.3865 5.94879C19.3808 5.21764 19.1097 4.51778 18.6273 3.98578C18.1535 3.47937 17.5056 3.19203 16.8262 3.18634C16.164 3.19772 15.5361 3.48506 15.0823 3.98578C14.6627 4.44381 8.28902 10.4751 5.87428 12.7653C5.82861 12.8051 5.79151 12.8592 5.77153 12.9189L4.22164 17.8606Z" fill="#86888C"/>
</svg>
