<svg width="40" height="40" viewBox="0 0 40 40" fill="none" xmlns="http://www.w3.org/2000/svg">
<path fill-rule="evenodd" clip-rule="evenodd" d="M35.7458 32.5151H34.8166C34.9706 32.0479 35.1246 31.5859 35.2839 31.432C35.5918 31.5859 35.7458 32.0479 35.7458 32.5151C35.8998 32.5151 35.8998 32.5151 35.7458 32.5151ZM29.6982 27.7047C29.6982 28.0126 29.3902 28.3259 29.077 28.4799C26.4381 28.9471 22.7161 30.0302 19.7693 32.2019C19.3021 32.5098 18.6809 32.5098 18.2189 32.2019C15.4261 29.8763 11.7041 28.9418 8.91125 28.4799C8.6033 28.4799 8.29003 28.1719 8.29003 27.7047V21.811L17.5977 26.0003C17.9057 26.1543 18.3729 26.3082 18.6862 26.3082C19.1534 26.3082 19.4614 26.1543 19.7746 26.0003L29.6133 21.5349L29.6982 27.7047ZM3.32559 16.6926C3.32559 16.5386 3.43178 16.3422 3.63354 16.2254L18.6809 9.40258H18.9888L32.7937 15.6095H18.6755C18.0543 15.6095 17.5871 16.0767 17.5871 16.6926C17.5871 17.3085 18.0543 17.7758 18.6755 17.7758H32.4804L19.1375 23.8234H18.6702L3.62293 17.0006C3.4424 16.8997 3.32559 16.8466 3.32559 16.6926ZM36.675 29.4143V17.4678C36.6537 16.4537 36.6272 14.6962 35.1246 14.0538L20.0773 7.23097C19.3021 6.92301 18.5269 6.92301 17.7517 7.23097L2.70437 14.0538C1.61591 14.521 1 15.4502 1 16.6926C1 17.7758 1.62122 18.8642 2.70437 19.3315L6.11842 20.8819V27.7047C6.11842 29.255 7.20688 30.4975 8.59799 30.8054C10.9236 31.2727 14.3376 32.2019 16.8172 34.2195C17.4384 34.6867 18.2136 34.9947 18.9888 34.9947C19.764 34.9947 20.5392 34.6867 21.1604 34.2195C23.64 32.2019 27.054 31.2727 29.3796 30.8054C30.776 30.4975 31.8592 29.255 31.8592 27.7047V20.7226L34.1848 19.6394V29.4143C32.9423 30.0356 32.3211 31.8939 32.3211 32.9824C32.3211 33.6036 32.4751 34.0655 32.7884 34.3788C33.4096 35 34.1848 35 34.806 35H35.7299C36.3511 35 36.8183 35 37.2803 34.5328C38.2891 33.6832 38.0608 30.1736 36.675 29.4143Z" fill="#86888C"/>
</svg>
