<svg width="24" height="24" viewBox="0 0 24 24" fill="none" xmlns="http://www.w3.org/2000/svg">
<path fill-rule="evenodd" clip-rule="evenodd" d="M12.4297 20.745C14.9311 20.6995 20.745 19.7575 20.745 12.0285C20.745 4.29653 14.897 3.32043 12.3842 3.26067C12.1594 3.25498 11.8976 3.24929 11.6471 3.24929L11.4764 3.25213C9.00341 3.27205 3.24644 4.16847 3.24644 11.9687C3.24644 19.786 9.05748 20.7137 11.5561 20.7479C11.6557 20.7507 11.761 20.7507 11.8634 20.7507C12.0626 20.7507 12.259 20.7479 12.4297 20.745ZM12.4155 2.01138C14.3734 2.05692 21.9972 2.83096 21.9972 12.0285C21.9972 21.243 14.3648 21.9602 12.4553 21.9943C12.276 22 12.0711 22 11.8662 22C11.7581 22 11.6471 22 11.5418 21.9972C9.53273 21.9687 2 21.243 2 11.9687C2 2.70859 9.46443 2.01992 11.4707 2.00285C11.5304 2.00285 11.5874 2 11.65 2C11.9089 2 12.1821 2.00569 12.4155 2.01138ZM17.3472 13.4599C17.4895 13.4599 17.6061 13.3546 17.6204 13.309L17.6175 10.7137C17.6005 10.6653 17.4838 10.5657 17.3472 10.5657H14.0746C13.7302 10.5657 13.4485 10.2869 13.4485 9.93967V6.67558C13.4485 6.5333 13.3432 6.41662 13.2977 6.40239L10.6995 6.40524C10.6625 6.41662 10.56 6.5333 10.56 6.67558V9.94821C10.56 10.2925 10.2812 10.5743 9.93398 10.5743H6.66135C6.50768 10.5743 6.40524 10.6796 6.3967 10.7166V13.3233C6.39954 13.3574 6.50199 13.4627 6.66135 13.4627H9.93398C10.2783 13.4627 10.56 13.7416 10.56 14.0888V17.3614C10.56 17.5151 10.6653 17.6175 10.7023 17.6232H13.3176C13.3517 17.6147 13.457 17.5151 13.457 17.3614L13.4485 14.0916C13.4485 13.9266 13.5139 13.7672 13.6306 13.6505C13.7473 13.531 13.9067 13.4656 14.0746 13.4656H17.3472V13.4599ZM17.3472 9.31645C18.1582 9.31645 18.8697 9.96528 18.8697 10.7052V13.3233C18.8697 14.0632 18.1582 14.712 17.3472 14.712H14.7006L14.7063 17.3557C14.7063 18.1781 14.0689 18.8697 13.3176 18.8697H10.6995C9.94536 18.8697 9.31076 18.1781 9.31076 17.3586V14.712H6.6642C5.84178 14.712 5.15026 14.0774 5.15026 13.3233V10.7137C5.15026 9.96244 5.84178 9.32499 6.6642 9.32499H9.31076V6.67843C9.31076 5.85316 9.94821 5.15879 10.6995 5.15879H13.309C14.0489 5.15879 14.6978 5.87023 14.6978 6.67843V9.31645H17.3472Z" fill="#86888C"/>
</svg>
