<svg width="28" height="28" viewBox="0 0 28 28" fill="none" xmlns="http://www.w3.org/2000/svg">
<path fill-rule="evenodd" clip-rule="evenodd" d="M22.6947 8.25354L22.6525 8.91546C22.6136 9.4995 22.2859 12.5171 19.5636 14.4055L18.5253 15.1225L19.6771 15.632C23.905 17.5171 24.012 21.7871 24.0153 21.9623C24.0153 22.3063 23.7362 22.5886 23.3891 22.5886C23.0451 22.5886 22.7628 22.3095 22.7628 21.9591C22.7563 21.4205 22.5065 17.1732 17.2371 16.2095C17.2955 15.9402 17.3345 15.6514 17.3345 15.3302C17.3345 14.8987 17.2728 14.519 17.169 14.1751C20.9004 12.8837 21.3449 9.73961 21.3968 9.00955L21.4001 8.26003L20.4559 8.2503L22.0263 6.65716L23.6064 8.2503L22.6947 8.25354ZM5.88073 21.9623C5.87424 22.3063 5.5952 22.5853 5.25126 22.5853C4.90732 22.5821 4.62828 22.303 4.62828 21.9688C4.63152 21.7871 4.7386 17.4847 9.04754 15.6157L10.2027 15.1128L9.17084 14.386C6.50046 12.5041 6.16626 9.4995 6.13057 8.91546L6.02025 8.26003L5.17663 8.25354L6.75355 6.6604L8.33047 8.25354L7.33435 8.25679L7.38626 9.0128C7.43818 9.73961 7.87945 12.8805 11.6141 14.1751C11.507 14.519 11.4454 14.8987 11.4454 15.3302C11.4454 15.6449 11.4843 15.9305 11.5395 16.1933C6.14355 17.131 5.88722 21.4205 5.88073 21.9623ZM15.9165 15.3302C15.9165 15.6092 15.8873 15.8493 15.8289 16.044C15.7705 16.2484 15.6829 16.4074 15.5629 16.521C15.2741 16.7968 14.7647 16.852 14.385 16.852C14.0087 16.852 13.496 16.7968 13.2137 16.5242C13.0937 16.4107 13.0061 16.2484 12.9477 16.044C12.8892 15.8461 12.86 15.6125 12.86 15.3334C12.86 15.009 12.9022 14.7462 12.9801 14.532C13.0385 14.3698 13.1131 14.2335 13.2137 14.1394C13.4993 13.8636 14.0087 13.8052 14.385 13.8052C14.7614 13.8052 15.2741 13.8636 15.5596 14.1394C15.6602 14.2367 15.7348 14.373 15.7932 14.532C15.8744 14.7462 15.9165 15.0057 15.9165 15.3302ZM25.5987 8.25354L22.6817 5.3171C22.3929 4.96019 21.8673 4.89854 21.5071 5.18082L18.4636 8.26003C18.256 8.51636 18.217 8.87652 18.3598 9.17503C18.5058 9.47354 18.7946 9.65525 19.1158 9.65525L19.8588 9.66173C19.5895 10.7098 18.7784 12.277 16.3578 12.9713C15.8679 12.5884 15.2124 12.384 14.3883 12.384C13.5641 12.384 12.9152 12.5884 12.4253 12.9681C10.0047 12.2737 9.19355 10.7098 8.92749 9.66173L9.66403 9.65525C9.99174 9.65525 10.2838 9.4703 10.4298 9.17179C10.5725 8.87003 10.5304 8.51312 10.2773 8.20163L7.42844 5.32359L7.28892 5.18407C7.11371 5.04455 6.88983 4.97965 6.66594 5.00561C6.44206 5.03157 6.24413 5.14513 6.15653 5.26194L3.19088 8.25679C2.98322 8.51312 2.94104 8.87003 3.08381 9.17179C3.22658 9.4703 3.5186 9.65525 3.83982 9.65525L4.797 9.66173C4.98195 10.8785 5.57897 13.0654 7.47711 14.824C3.272 17.2867 3.22009 21.9072 3.22009 21.9591C3.22009 23.072 4.1286 23.987 5.26424 23.9968C6.37392 23.9968 7.29217 23.0915 7.30839 21.9786C7.31488 21.5568 7.53227 18.1433 12.2306 17.5204C12.2338 17.5236 12.2371 17.5333 12.2436 17.5366C12.7432 18.02 13.47 18.2634 14.398 18.2634C15.326 18.2634 16.0528 18.02 16.5557 17.5398C16.559 17.5366 16.559 17.5333 16.5622 17.5301C21.0334 18.1466 21.3449 21.2939 21.3546 21.9688C21.3611 23.0882 22.2794 24 23.3988 24C24.5247 24 25.4429 23.0818 25.4429 21.9558C25.4429 21.9072 25.3943 17.3257 21.2703 14.8532C23.2138 13.0751 23.8174 10.8266 24.0023 9.66173L24.9562 9.652C25.2872 9.652 25.5792 9.46705 25.722 9.1653C25.8518 8.87003 25.8096 8.50987 25.5987 8.25354Z" fill="#86888C"/>
</svg>
