<svg width="20" height="20" viewBox="0 0 20 20" fill="none" xmlns="http://www.w3.org/2000/svg">
<path fill-rule="evenodd" clip-rule="evenodd" d="M16.5119 5.39735L16.4808 5.88507C16.4521 6.31542 16.2106 8.53888 14.2047 9.93034L13.4397 10.4587L14.2884 10.8341C17.4037 12.2231 17.4825 15.3695 17.4849 15.4986C17.4849 15.752 17.2793 15.96 17.0235 15.96C16.7701 15.96 16.5621 15.7544 16.5621 15.4962C16.5573 15.0993 16.3732 11.9697 12.4905 11.2596C12.5335 11.0612 12.5622 10.8484 12.5622 10.6117C12.5622 10.2937 12.5168 10.014 12.4403 9.76059C15.1898 8.80905 15.5173 6.49234 15.5555 5.95441L15.5579 5.40213L14.8622 5.39496L16.0194 4.22106L17.1837 5.39496L16.5119 5.39735ZM4.12264 15.4986C4.11786 15.752 3.91225 15.9576 3.65882 15.9576C3.4054 15.9552 3.19978 15.7496 3.19978 15.5033C3.20218 15.3695 3.28107 12.1992 6.45608 10.8221L7.30722 10.4515L6.54693 9.916C4.57929 8.52932 4.33303 6.31542 4.30673 5.88507L4.22545 5.40213L3.60383 5.39735L4.76577 4.22345L5.92771 5.39735L5.19373 5.39974L5.23198 5.9568C5.27024 6.49234 5.59539 8.80666 8.34722 9.76059C8.26832 10.014 8.2229 10.2937 8.2229 10.6117C8.2229 10.8436 8.25159 11.054 8.29223 11.2477C4.3163 11.9386 4.12742 15.0993 4.12264 15.4986ZM11.5175 10.6117C11.5175 10.8173 11.4959 10.9943 11.4529 11.1377C11.4099 11.2883 11.3453 11.4055 11.2569 11.4892C11.0441 11.6924 10.6687 11.733 10.389 11.733C10.1116 11.733 9.7339 11.6924 9.5259 11.4915C9.43744 11.4079 9.37288 11.2883 9.32985 11.1377C9.28681 10.9919 9.2653 10.8197 9.2653 10.6141C9.2653 10.375 9.29638 10.1814 9.35376 10.0236C9.39679 9.90404 9.45178 9.80363 9.5259 9.7343C9.73629 9.53108 10.1116 9.48804 10.389 9.48804C10.6663 9.48804 11.0441 9.53108 11.2545 9.7343C11.3286 9.80602 11.3836 9.90643 11.4266 10.0236C11.4864 10.1814 11.5175 10.3726 11.5175 10.6117ZM18.6517 5.39735L16.5023 3.23365C16.2895 2.97066 15.9022 2.92524 15.6368 3.13324L13.3942 5.40213C13.2412 5.591 13.2125 5.85638 13.3177 6.07634C13.4253 6.29629 13.6381 6.43018 13.8748 6.43018L14.4223 6.43496C14.2239 7.2072 13.6262 8.36196 11.8426 8.8736C11.4816 8.59148 10.9986 8.44086 10.3914 8.44086C9.7841 8.44086 9.30594 8.59148 8.94493 8.87121C7.16137 8.35957 6.56367 7.2072 6.36762 6.43496L6.91034 6.43018C7.15181 6.43018 7.36699 6.2939 7.47457 6.07395C7.57977 5.8516 7.54869 5.58861 7.3622 5.35909L5.26306 3.23843L5.16026 3.13563C5.03115 3.03282 4.86619 2.98501 4.70122 3.00413C4.53625 3.02326 4.39041 3.10694 4.32586 3.19301L2.14065 5.39974C1.98764 5.58861 1.95656 5.8516 2.06175 6.07395C2.16695 6.2939 2.38212 6.43018 2.61882 6.43018L3.32411 6.43496C3.46038 7.33152 3.9003 8.94293 5.29893 10.2388C2.20042 12.0534 2.16217 15.4579 2.16217 15.4962C2.16217 16.3162 2.8316 16.9904 3.66839 16.9976C4.48605 16.9976 5.16265 16.3306 5.1746 15.5105C5.17938 15.1997 5.33957 12.6846 8.80148 12.2255C8.80387 12.2279 8.80626 12.2351 8.81104 12.2375C9.17923 12.5937 9.71477 12.773 10.3985 12.773C11.0823 12.773 11.6179 12.5937 11.9884 12.2399C11.9908 12.2375 11.9908 12.2351 11.9932 12.2327C15.2878 12.687 15.5173 15.0061 15.5245 15.5033C15.5292 16.3282 16.2059 17 17.0307 17C17.8603 17 18.5369 16.3234 18.5369 15.4938C18.5369 15.4579 18.501 12.0821 15.4623 10.2603C16.8944 8.95011 17.3391 7.29327 17.4754 6.43496L18.1783 6.42779C18.4221 6.42779 18.6373 6.29151 18.7425 6.06917C18.8381 5.8516 18.8071 5.58622 18.6517 5.39735Z" fill="#86888C"/>
</svg>
