<svg width="40" height="40" viewBox="0 0 40 40" fill="none" xmlns="http://www.w3.org/2000/svg">
<path fill-rule="evenodd" clip-rule="evenodd" d="M19.0165 28.5697L8.55663 18.0945C7.95219 17.49 7.95731 16.5168 8.55663 15.9124C9.15595 15.3079 10.1343 15.313 10.7388 15.9124L18.5657 23.7496V3.54183C18.5657 2.69152 19.2573 2 20.1127 2C20.963 2 21.6545 2.69152 21.6545 3.54183V23.7496L29.3483 16.0455C29.9425 15.4308 30.9158 15.4155 31.5304 16.0046C32.1451 16.5987 32.1605 17.572 31.5714 18.1867C31.5612 18.202 31.5458 18.2123 31.5304 18.2277L21.2038 28.5697C20.9118 28.8566 20.5174 29.0154 20.1127 29.0205C19.6978 29.0205 19.3085 28.8566 19.0165 28.5697ZM36.4582 27.4428C37.3085 27.4428 38 28.1343 38 28.9846V36.4582C38 37.3085 37.3085 38 36.4582 38H3.54183C2.69152 38 2 37.3085 2 36.4582V28.9846C2.03073 28.1343 2.74787 27.4684 3.6033 27.4991C4.40751 27.5299 5.05805 28.1753 5.08879 28.9846V34.9163H34.9215V28.9846C34.9163 28.1292 35.6079 27.4428 36.4582 27.4428Z" fill="#86888C"/>
</svg>
