<svg width="20" height="20" viewBox="0 0 20 20" fill="none" xmlns="http://www.w3.org/2000/svg">
<path fill-rule="evenodd" clip-rule="evenodd" d="M9.56289 13.8088L4.91406 9.1531C4.64542 8.88446 4.6477 8.45191 4.91406 8.18327C5.18042 7.91463 5.61525 7.9169 5.88389 8.18327L9.36255 11.6665V2.68526C9.36255 2.30734 9.66989 2 10.0501 2C10.428 2 10.7353 2.30734 10.7353 2.68526V11.6665L14.1548 8.24246C14.4189 7.96927 14.8515 7.96244 15.1246 8.22425C15.3978 8.48833 15.4047 8.92089 15.1429 9.19408C15.1383 9.20091 15.1315 9.20546 15.1246 9.21229L10.535 13.8088C10.4052 13.9363 10.2299 14.0068 10.0501 14.0091C9.86568 14.0091 9.69266 13.9363 9.56289 13.8088ZM17.3147 13.3079C17.6927 13.3079 18 13.6153 18 13.9932V17.3147C18 17.6927 17.6927 18 17.3147 18H2.68526C2.30734 18 2 17.6927 2 17.3147V13.9932C2.01366 13.6153 2.33238 13.3193 2.71258 13.333C3.07001 13.3466 3.35913 13.6335 3.37279 13.9932V16.6295H16.6318V13.9932C16.6295 13.613 16.9368 13.3079 17.3147 13.3079Z" fill="#86888C"/>
</svg>
