<svg width="28" height="28" viewBox="0 0 28 28" fill="none" xmlns="http://www.w3.org/2000/svg">
<path fill-rule="evenodd" clip-rule="evenodd" d="M13.7175 4.7037C13.5707 4.82321 13.6287 5.12709 13.656 5.25343C13.7619 5.69389 13.9737 6.15484 14.2811 6.63628C14.5406 7.03235 14.7387 7.27478 15.0939 7.63671C15.1144 7.66061 15.1827 7.73231 15.2476 7.78353C15.3125 7.7289 15.3774 7.66061 15.4013 7.63671C15.7599 7.27136 15.9546 7.02894 16.2073 6.63969C16.5181 6.15825 16.7265 5.6973 16.8358 5.25684C16.8631 5.13051 16.9212 4.82662 16.7743 4.70712C16.7128 4.65248 16.6069 4.61834 16.4942 4.61151C16.3337 4.59785 16.1664 4.64566 15.9956 4.73785C15.8965 4.79248 15.8009 4.84711 15.695 4.90857L15.5038 5.02124L15.0393 5.03149L14.8207 4.92223C14.6875 4.84369 14.5919 4.78906 14.4962 4.73785C14.3391 4.6559 14.1854 4.61151 14.0351 4.61151H13.9976C13.8849 4.61493 13.7824 4.64907 13.7175 4.7037ZM12.9183 7.50696C12.5085 6.87529 12.225 6.24361 12.0747 5.6256C11.8664 4.75833 12.0781 3.97301 12.6553 3.48133C12.9935 3.19793 13.4409 3.02721 13.9156 3.00331C14.3528 2.97941 14.8241 3.08526 15.2442 3.31061C15.6643 3.08526 16.1356 2.97941 16.5796 3.00331C17.0509 3.02721 17.4984 3.19793 17.8365 3.48133C18.4171 3.97301 18.6254 4.75833 18.4171 5.6256C18.2668 6.24361 17.9833 6.87529 17.5769 7.50696C17.2627 7.98839 17.0031 8.31277 16.5762 8.74981C16.5113 8.81469 16.3303 8.99565 16.1732 9.10492C15.9853 9.23808 15.7702 9.33027 15.5516 9.37807L15.251 9.41222L14.9232 9.37466C14.7216 9.33027 14.5065 9.23808 14.322 9.10492C14.1649 8.99224 13.9805 8.81127 13.9293 8.76006C13.5023 8.32301 13.2359 7.99522 12.9183 7.50696ZM7.55956 11.2014C7.26583 11.4848 7.11897 11.973 7.11897 12.6559C7.11897 13.3354 7.26583 13.8271 7.55956 14.1071C7.84303 14.3768 8.32802 14.5168 8.99402 14.5168C9.66003 14.5168 10.145 14.3768 10.4319 14.1037C10.7256 13.8237 10.8759 13.3354 10.8759 12.6559C10.8759 11.973 10.7256 11.4848 10.4285 11.2014C10.1382 10.9248 9.65661 10.7848 8.99061 10.7848C8.33144 10.7848 7.84645 10.9248 7.55956 11.2014ZM8.99402 16.0089C7.925 16.0089 7.09165 15.7323 6.52127 15.1792C5.92358 14.6056 5.61961 13.7554 5.61961 12.6559C5.61961 11.5531 5.92016 10.7029 6.51786 10.1292C7.09165 9.57611 7.925 9.29612 8.99402 9.29612C10.0596 9.29612 10.893 9.57611 11.4702 10.1292C12.0713 10.7029 12.3753 11.5531 12.3753 12.6559C12.3753 13.7554 12.0713 14.6056 11.4702 15.1792C10.893 15.7289 10.0596 16.0089 8.99402 16.0089ZM19.5613 11.2014C19.2675 11.4848 19.1207 11.973 19.1207 12.6559C19.1207 13.3354 19.2675 13.8271 19.5613 14.1071C19.8447 14.3768 20.3297 14.5168 20.9957 14.5168C21.6617 14.5168 22.1467 14.3768 22.4336 14.1037C22.7273 13.8237 22.8776 13.3354 22.8776 12.6559C22.8776 11.973 22.7273 11.4848 22.4302 11.2014C22.1399 10.9248 21.6583 10.7848 20.9923 10.7848C20.3331 10.7848 19.8482 10.9248 19.5613 11.2014ZM18.5196 15.1792C17.9219 14.6056 17.6179 13.7554 17.6179 12.6559C17.6179 11.5531 17.9185 10.7029 18.5162 10.1292C19.0899 9.57611 19.9233 9.29612 20.9923 9.29612C22.0579 9.29612 22.8913 9.57611 23.4685 10.1292C24.0696 10.7029 24.3736 11.5531 24.3736 12.6559C24.3736 13.7554 24.0696 14.6056 23.4685 15.1792C22.8913 15.7289 22.0579 16.0089 20.9923 16.0089C19.9267 16.0089 19.0934 15.7289 18.5196 15.1792ZM15.6028 16.1182C15.6643 16.0567 15.7326 15.8758 15.7326 15.5445C15.7326 15.2099 15.6643 15.0256 15.5994 14.9641C15.5345 14.8992 15.3467 14.8343 15.0188 14.8343C14.6909 14.8343 14.5065 14.8992 14.445 14.9607C14.3801 15.0221 14.3118 15.2065 14.3118 15.5411C14.3118 15.8758 14.3767 16.0567 14.4416 16.1182C14.5031 16.1796 14.6909 16.2445 15.0188 16.2445C15.3501 16.2445 15.5379 16.1796 15.6028 16.1182ZM15.0188 13.3457C15.7155 13.3457 16.262 13.53 16.6411 13.892C17.0339 14.2675 17.2354 14.8241 17.2354 15.5445C17.2354 16.265 17.0339 16.8181 16.6411 17.1937C16.262 17.5522 15.7155 17.7366 15.0188 17.7366C14.322 17.7366 13.779 17.5522 13.3999 17.1937C13.0071 16.8181 12.8124 16.265 12.8124 15.5445C12.8124 14.8207 13.0105 14.2675 13.3999 13.892C13.779 13.53 14.322 13.3457 15.0188 13.3457ZM25.5006 25.5079V21.5266C25.5006 21.0555 25.4016 20.3965 24.9439 19.9253C24.4384 19.3995 23.6358 19.2868 23.0552 19.2868H18.9362C18.6357 19.2868 18.2771 19.3209 17.9321 19.4234C18.0687 19.5121 18.1985 19.6146 18.3146 19.7341C18.7313 20.1643 18.9499 20.7584 18.9499 21.4584V25.5079H25.5006ZM17.4471 25.5079V21.4549C17.4471 21.2433 17.4096 20.9496 17.2285 20.7652C17.1158 20.6457 16.9109 20.5843 16.6753 20.5467C16.5728 20.5296 16.4806 20.5057 16.3645 20.5057H13.6697C13.5365 20.5057 13.4306 20.5296 13.3179 20.5501C13.0993 20.5911 12.9149 20.6491 12.809 20.7618C12.6314 20.9462 12.5939 21.2398 12.5939 21.4549V25.525H17.4437V25.5079H17.4471ZM11.7298 19.7341C11.839 19.6214 11.962 19.5258 12.0952 19.437C11.7366 19.3243 11.3643 19.2868 11.0535 19.2868H6.93454C6.35392 19.2868 5.55472 19.3995 5.04924 19.9219C4.59499 20.3931 4.49936 21.0555 4.49936 21.5266V25.5079H11.1013V21.4549C11.0979 20.7584 11.3131 20.1609 11.7298 19.7341ZM18.7552 26.9966H3.38252C3.17077 26.9966 3 26.8259 3 26.6142V21.5266C3 20.4579 3.33471 19.5497 3.96656 18.8941C4.65647 18.1771 5.6845 17.7981 6.93454 17.7981H11.0535C12.307 17.7981 13.335 18.1771 14.0249 18.8941C14.0625 18.9317 14.0898 18.9795 14.1239 19.0205H15.8692C15.9034 18.9795 15.9307 18.9317 15.9648 18.8941C16.6548 18.1771 17.6828 17.7981 18.9328 17.7981H23.0518C24.3053 17.7981 25.3333 18.1771 26.0232 18.8941C26.6619 19.5531 27 20.4613 27 21.5301V26.6176C27 26.8293 26.8258 27 26.6141 27H18.7552V26.9966Z" fill="#86888C"/>
</svg>
