<svg width="40" height="40" viewBox="0 0 40 40" fill="none" xmlns="http://www.w3.org/2000/svg">
<path fill-rule="evenodd" clip-rule="evenodd" d="M18.0763 5.55555C17.856 5.73481 17.9431 6.19064 17.9841 6.38014C18.1429 7.04083 18.4605 7.73226 18.9216 8.45441C19.3109 9.04853 19.6081 9.41216 20.1409 9.95506C20.1716 9.99091 20.2741 10.0985 20.3714 10.1753C20.4688 10.0933 20.5661 9.99091 20.602 9.95506C21.1399 9.40704 21.4319 9.0434 21.811 8.45953C22.2772 7.73738 22.5897 7.04596 22.7537 6.38526C22.7946 6.19576 22.8817 5.73993 22.6614 5.56067C22.5692 5.47873 22.4104 5.42751 22.2414 5.41727C22.0006 5.39678 21.7495 5.46848 21.4934 5.60677C21.3448 5.68872 21.2014 5.77066 21.0425 5.86285L20.7557 6.03187L20.0589 6.04723L19.731 5.88334C19.5312 5.76554 19.3878 5.68359 19.2443 5.60677C19.0087 5.48385 18.7781 5.41727 18.5527 5.41727H18.4964C18.3273 5.42239 18.1736 5.47361 18.0763 5.55555ZM16.8775 9.76044C16.2627 8.81293 15.8375 7.86542 15.6121 6.9384C15.2996 5.6375 15.6172 4.45952 16.483 3.722C16.9902 3.2969 17.6613 3.04082 18.3734 3.00497C19.0292 2.96911 19.7362 3.12789 20.3663 3.46591C20.9964 3.12789 21.7034 2.96911 22.3694 3.00497C23.0764 3.04082 23.7475 3.2969 24.2547 3.722C25.1257 4.45952 25.4382 5.6375 25.1257 6.9384C24.9002 7.86542 24.475 8.81293 23.8654 9.76044C23.3941 10.4826 23.0047 10.9691 22.3643 11.6247C22.267 11.722 21.9954 11.9935 21.7598 12.1574C21.478 12.3571 21.1553 12.4954 20.8274 12.5671L20.3765 12.6183L19.8847 12.562C19.5825 12.4954 19.2597 12.3571 18.9831 12.1574C18.7474 11.9884 18.4708 11.7169 18.3939 11.6401C17.7535 10.9845 17.3539 10.4928 16.8775 9.76044ZM8.83933 15.3021C8.39875 15.7272 8.17845 16.4596 8.17845 17.4839C8.17845 18.5031 8.39875 19.2406 8.83933 19.6606C9.26455 20.0652 9.99203 20.2752 10.991 20.2752C11.99 20.2752 12.7175 20.0652 13.1479 19.6555C13.5884 19.2355 13.8139 18.5031 13.8139 17.4839C13.8139 16.4596 13.5884 15.7272 13.1427 15.3021C12.7073 14.8872 11.9849 14.6772 10.9859 14.6772C9.99715 14.6772 9.26967 14.8872 8.83933 15.3021ZM10.991 22.5134C9.38751 22.5134 8.13747 22.0985 7.28191 21.2688C6.38537 20.4084 5.92942 19.1331 5.92942 17.4839C5.92942 15.8296 6.38025 14.5543 7.27679 13.6939C8.13747 12.8642 9.38751 12.4442 10.991 12.4442C12.5894 12.4442 13.8395 12.8642 14.7053 13.6939C15.6069 14.5543 16.0629 15.8296 16.0629 17.4839C16.0629 19.1331 15.6069 20.4084 14.7053 21.2688C13.8395 22.0934 12.5894 22.5134 10.991 22.5134ZM26.8419 15.3021C26.4013 15.7272 26.181 16.4596 26.181 17.4839C26.181 18.5031 26.4013 19.2406 26.8419 19.6606C27.2671 20.0652 27.9946 20.2752 28.9936 20.2752C29.9926 20.2752 30.7201 20.0652 31.1504 19.6555C31.591 19.2355 31.8164 18.5031 31.8164 17.4839C31.8164 16.4596 31.591 15.7272 31.1453 15.3021C30.7098 14.8872 29.9875 14.6772 28.9885 14.6772C27.9997 14.6772 27.2722 14.8872 26.8419 15.3021ZM25.2794 21.2688C24.3828 20.4084 23.9269 19.1331 23.9269 17.4839C23.9269 15.8296 24.3777 14.5543 25.2742 13.6939C26.1349 12.8642 27.3849 12.4442 28.9885 12.4442C30.5869 12.4442 31.8369 12.8642 32.7027 13.6939C33.6044 14.5543 34.0603 15.8296 34.0603 17.4839C34.0603 19.1331 33.6044 20.4084 32.7027 21.2688C31.8369 22.0934 30.5869 22.5134 28.9885 22.5134C27.3901 22.5134 26.14 22.0934 25.2794 21.2688ZM20.9042 22.6773C20.9964 22.5851 21.0989 22.3136 21.0989 21.8168C21.0989 21.3149 20.9964 21.0383 20.8991 20.9461C20.8018 20.8488 20.52 20.7515 20.0282 20.7515C19.5364 20.7515 19.2597 20.8488 19.1675 20.941C19.0702 21.0332 18.9677 21.3098 18.9677 21.8117C18.9677 22.3136 19.065 22.5851 19.1624 22.6773C19.2546 22.7695 19.5364 22.8668 20.0282 22.8668C20.5251 22.8668 20.8069 22.7695 20.9042 22.6773ZM20.0282 18.5185C21.0733 18.5185 21.893 18.795 22.4616 19.3379C23.0508 19.9013 23.3531 20.7362 23.3531 21.8168C23.3531 22.8975 23.0508 23.7272 22.4616 24.2906C21.893 24.8284 21.0733 25.1049 20.0282 25.1049C18.9831 25.1049 18.1685 24.8284 17.5998 24.2906C17.0107 23.7272 16.7187 22.8975 16.7187 21.8168C16.7187 20.731 17.0158 19.9013 17.5998 19.3379C18.1685 18.795 18.9831 18.5185 20.0282 18.5185ZM35.751 36.7618V30.79C35.751 30.0832 35.6024 29.0947 34.9159 28.3879C34.1577 27.5992 32.9538 27.4302 32.0828 27.4302H25.9044C25.4535 27.4302 24.9156 27.4814 24.3982 27.635C24.6031 27.7682 24.7978 27.9218 24.972 28.1011C25.597 28.7464 25.9249 29.6376 25.9249 30.6875V36.7618H35.751ZM23.6707 36.7618V30.6824C23.6707 30.3649 23.6143 29.9244 23.3428 29.6478C23.1738 29.4686 22.8664 29.3764 22.5129 29.3201C22.3592 29.2945 22.2209 29.2586 22.0467 29.2586H18.0046C17.8048 29.2586 17.6459 29.2945 17.4769 29.3252C17.149 29.3866 16.8723 29.4737 16.7135 29.6427C16.4471 29.9193 16.3908 30.3598 16.3908 30.6824V36.7874H23.6656V36.7618H23.6707ZM15.0946 28.1011C15.2586 27.9321 15.443 27.7887 15.6428 27.6555C15.1049 27.4865 14.5465 27.4302 14.0803 27.4302H7.90181C7.03088 27.4302 5.83208 27.5992 5.07386 28.3828C4.39249 29.0896 4.24904 30.0832 4.24904 30.79V36.7618H14.152V30.6824C14.1469 29.6376 14.4696 28.7413 15.0946 28.1011ZM25.6328 38.9949H2.57379C2.25615 38.9949 2 38.7388 2 38.4212V30.79C2 29.1869 2.50206 27.8245 3.44984 26.8412C4.4847 25.7656 6.02675 25.1971 7.90181 25.1971H14.0803C15.9604 25.1971 17.5025 25.7656 18.5374 26.8412C18.5937 26.8975 18.6347 26.9692 18.6859 27.0307H21.3038C21.3551 26.9692 21.396 26.8975 21.4473 26.8412C22.4821 25.7656 24.0242 25.1971 25.8992 25.1971H32.0777C33.9579 25.1971 35.4999 25.7656 36.5348 26.8412C37.4928 27.8297 38 29.192 38 30.7951V38.4264C38 38.7439 37.7387 39 37.4211 39H25.6328V38.9949Z" fill="#86888C"/>
</svg>
