<svg width="24" height="24" viewBox="0 0 24 24" fill="none" xmlns="http://www.w3.org/2000/svg">
<path fill-rule="evenodd" clip-rule="evenodd" d="M20.6364 7.99118C20.5482 8.08222 20.3747 8.09928 20.2438 8.09928V8.11066H13.2313V8.09928C13.1033 8.09928 12.9326 8.08222 12.8444 7.99403C12.7534 7.90299 12.7363 7.72092 12.7363 7.58153C12.7363 7.44498 12.7562 7.26006 12.8473 7.17187C12.9355 7.08368 13.1062 7.06662 13.2342 7.06662H20.2466C20.3775 7.06662 20.5482 7.08369 20.6364 7.17472C20.7274 7.26291 20.7473 7.44782 20.7473 7.58437C20.7445 7.72092 20.7274 7.90299 20.6364 7.99118ZM19.7204 13.4475C19.5041 18.096 19.5041 18.1045 19.5041 18.1301C19.4842 20.3917 18.9551 20.6307 18.3207 20.699C18.3036 20.7018 18.2894 20.7047 18.2723 20.7047H18.2467C18.1216 20.7132 18.0248 20.716 17.82 20.7018L15.5299 20.7047C15.4674 20.7104 15.4048 20.7132 15.3365 20.7132H15.2995C15.4474 20.3917 15.5527 20.0304 15.658 19.6492L15.6864 19.5554C16.0278 19.4444 16.3208 19.2737 16.5655 19.0319C17.0348 18.5654 17.271 17.9082 17.271 17.0747C17.271 16.4289 17.123 15.8912 16.8414 15.4617C17.3791 15.4332 17.8911 15.18 18.3605 14.6907C18.8726 14.1616 19.1258 13.5812 19.1144 12.9753C19.103 12.3921 18.8498 11.8374 18.3577 11.3281C17.8655 10.8218 17.3307 10.56 16.7703 10.5515C16.1729 10.5544 15.6295 10.8047 15.1203 11.3367C14.978 11.4846 14.8586 11.6354 14.759 11.7919C14.4404 11.4675 14.0649 11.2257 13.6296 11.0607C13.604 10.3979 13.5812 9.8204 13.5699 9.41074H19.911C19.8683 10.2756 19.7943 11.863 19.7204 13.4475ZM15.6181 13.0237C15.6153 12.7818 15.7433 12.5201 16.005 12.2499C16.2639 11.9796 16.5114 11.8459 16.7447 11.8459H16.7561C16.9808 11.8488 17.2255 11.9825 17.4758 12.2442C17.7318 12.5087 17.8598 12.7619 17.8655 12.9981C17.8712 13.2399 17.7375 13.5016 17.4758 13.7747C17.2169 14.0449 16.9808 14.1587 16.7305 14.173C16.5029 14.1701 16.2611 14.0336 16.005 13.7718C15.7518 13.5101 15.621 13.2569 15.6181 13.0237ZM13.8913 18.3861H4.39533C4.03689 18.3605 3.74956 18.2752 3.57034 18.096C3.35982 17.8854 3.25456 17.5412 3.25456 17.0747C3.25456 16.6878 3.33137 16.3919 3.47646 16.1786C3.61017 16.4517 3.79223 16.7191 4.03689 16.9723C4.56602 17.5213 5.13783 17.7973 5.73524 17.7973H5.77223C6.3611 17.7859 6.92153 17.5099 7.43929 16.9723C7.81196 16.5854 8.04808 16.1757 8.15903 15.749H14.7931C15.1943 15.7575 15.5043 15.8571 15.6978 16.0477C15.9111 16.2611 16.0193 16.6081 16.0193 17.0747C16.0193 17.5412 15.9111 17.8854 15.6978 18.096C15.5186 18.2752 15.2312 18.3605 14.8728 18.3861H13.8913ZM14.19 20.1414C14.025 20.5112 13.8174 20.6222 13.2996 20.6819L13.0635 20.6847L12.3352 20.6961L11.5785 20.6933L7.66403 20.6961C7.52748 20.7047 6.67403 20.7132 6.54033 20.7132C5.51619 20.7132 5.24309 20.5197 4.95292 19.6834H14.3522C14.2924 19.8683 14.2441 20.0191 14.19 20.1414ZM6.79636 15.749C6.73093 15.8514 6.65412 15.951 6.55455 16.0562C6.27576 16.3464 6.00266 16.4972 5.75231 16.5029C5.44792 16.5114 5.20895 16.3578 4.92163 16.0562C4.81921 15.9538 4.74525 15.8514 4.67697 15.749H6.79636ZM6.94144 12.1019C7.01541 12.0934 7.37955 12.0991 7.70101 12.1048L11.6155 12.1019C11.7293 12.1076 11.8488 12.1048 11.9739 12.1048C12.1304 12.1048 12.2726 12.0991 12.4149 12.1133C12.9326 12.1617 13.348 12.3068 13.6808 12.5628C14.1673 12.9355 14.483 13.5414 14.6737 14.4546H4.60585C4.97852 12.6994 5.758 12.2328 6.7992 12.119L6.94144 12.1019ZM16.4545 3.59879C16.4545 3.43379 16.5825 3.30008 16.7418 3.30008C16.9011 3.30008 17.0292 3.43379 17.0292 3.59879V5.77791H16.4545V3.59879ZM18.2837 21.9905H18.3947C18.4573 21.9905 18.5028 21.9905 18.5682 21.9791C20.4629 21.706 20.736 19.8882 20.753 18.1557C20.7559 18.0533 20.8611 15.786 20.9664 13.5073C21.0916 10.836 21.1456 9.67816 21.1684 9.16893C21.2878 9.10066 21.4016 9.02385 21.5012 8.92713C21.726 8.70238 21.9934 8.28704 21.9934 7.58153C21.9934 6.87886 21.726 6.46067 21.5012 6.23877C21.2765 6.01119 20.9891 5.8149 20.6478 5.77223C20.6165 5.76654 20.5539 5.76654 20.5197 5.76654H18.2752V3.59594C18.2752 2.71689 17.5867 2 16.739 2C15.8941 2 15.2028 2.71405 15.2028 3.59594V5.76654H13.2313C12.7079 5.76654 12.284 5.923 11.9739 6.23877C11.752 6.46067 11.4846 6.87886 11.4846 7.58153C11.4846 8.28704 11.752 8.69954 11.9768 8.92713C12.0763 9.02385 12.1873 9.10066 12.3068 9.16893C12.3181 9.45911 12.3352 9.95695 12.3665 10.8161C12.2356 10.8075 12.1133 10.8019 11.9739 10.8019C11.8203 10.8019 11.6809 10.8075 11.57 10.8047L7.74084 10.8075C7.45067 10.8075 7.1036 10.8019 6.89593 10.8047C6.85326 10.8047 6.76222 10.8104 6.72239 10.8132C6.66834 10.8189 6.57731 10.8303 6.51188 10.8445C4.15922 11.1831 3.52767 13.1289 3.28586 14.7135C3.06965 14.8216 2.86767 14.9468 2.69982 15.1174C2.23612 15.584 2 16.244 2 17.0775C2 17.9111 2.23896 18.571 2.69982 19.0348C2.94448 19.2794 3.24887 19.4529 3.59594 19.5639C4.00844 20.9522 4.4437 21.9962 6.53464 21.9962C6.68257 21.9962 7.60998 22.0047 7.70385 21.9962L11.533 21.9934H18.2837V21.9905Z" fill="#86888C"/>
</svg>
