<svg width="24" height="24" viewBox="0 0 24 24" fill="none" xmlns="http://www.w3.org/2000/svg">
<path d="M16.8373 22.0771C16.4868 22.0771 16.1362 21.9888 15.8141 21.8121L12.0205 19.7343C12.0091 19.7286 11.9948 19.7286 11.9834 19.7343L8.18976 21.8121C7.47151 22.2054 6.60504 22.157 5.93524 21.681C5.22553 21.1793 4.87495 20.3243 5.02032 19.4521L5.74427 15.0514C5.74997 15.0172 5.73857 14.9858 5.71862 14.963L2.65178 11.8477C2.04754 11.2349 1.84517 10.3428 2.12164 9.51622C2.38671 8.71816 3.05651 8.14812 3.86598 8.02556L8.10426 7.38426C8.12421 7.38141 8.14131 7.36716 8.14986 7.35006C8.14986 7.34721 8.14986 7.34721 8.15271 7.34436L10.0481 3.3398C10.4129 2.55884 11.1654 2.07715 12.0034 2.07715C12.8413 2.07715 13.5938 2.55884 13.9615 3.33695L15.8569 7.34151C15.8569 7.34436 15.8569 7.34436 15.8597 7.34721C15.8683 7.36431 15.8854 7.37856 15.9053 7.38141L20.1436 8.02271C20.9531 8.14527 21.6229 8.71816 21.8879 9.51622C22.1615 10.3428 21.9592 11.2349 21.3549 11.8477L18.2881 14.963C18.2653 14.9858 18.2567 15.0172 18.2624 15.0514L18.9864 19.4549C19.1289 20.3271 18.7783 21.1822 18.0715 21.6838C17.701 21.946 17.2706 22.0771 16.8373 22.0771ZM12.0034 18.6227C12.1943 18.6227 12.3824 18.6711 12.5563 18.7652L16.3471 20.843C16.8516 21.1195 17.2734 20.8915 17.4302 20.7803C17.7124 20.5808 17.9803 20.1761 17.8919 19.6345L17.168 15.2338C17.1053 14.8575 17.225 14.4671 17.4929 14.1934L17.4957 14.1906L20.5654 11.0724C20.936 10.6962 20.9474 10.2031 20.8362 9.8668C20.6994 9.45922 20.3802 9.1799 19.9783 9.12004L15.7371 8.47589H15.7314C15.3467 8.41319 15.0189 8.16807 14.8564 7.81464L12.961 3.81293C12.7758 3.4196 12.4166 3.18588 12.0034 3.18588C11.5901 3.18588 11.2338 3.4196 11.0485 3.81293L9.15314 7.81464C8.98782 8.16807 8.6629 8.41319 8.27812 8.47589H8.27242L4.03129 9.11719C3.62941 9.17705 3.30733 9.45637 3.17337 9.86395C3.06221 10.2003 3.07361 10.6934 3.44414 11.0696L6.51098 14.1877L6.51383 14.1906C6.78175 14.4642 6.90146 14.8547 6.83876 15.2338L6.1148 19.6345C6.02644 20.1732 6.29436 20.5808 6.57654 20.7803C6.7333 20.8915 7.15228 21.1195 7.65962 20.843L11.4533 18.7652C11.6243 18.6711 11.8124 18.6227 12.0034 18.6227Z" fill="#86888C"/>
</svg>
