<svg width="28" height="28" viewBox="0 0 28 28" fill="none" xmlns="http://www.w3.org/2000/svg">
<path fill-rule="evenodd" clip-rule="evenodd" d="M24.2791 24.7213C24.3986 24.7213 24.5147 24.6052 24.5147 24.5164V10.5787H21.6944C20.4584 10.5787 19.3897 10.1758 18.6044 9.41781C17.8122 8.65298 17.3956 7.60816 17.3956 6.39263V3.6884H9.42979C9.34102 3.6884 9.20102 3.82156 9.1942 3.89327V10.2339H16.9518C18.5805 10.2339 19.9018 11.5621 19.9018 13.1907V18.1826C19.9018 19.8113 18.577 21.1395 16.9518 21.1395H9.23517L9.1942 24.5266C9.1942 24.5881 9.31712 24.7213 9.42979 24.7213H24.2791ZM3.47845 18.1826C3.47845 18.9953 4.13743 19.6577 4.95006 19.6577H16.9518C17.7644 19.6577 18.4234 18.9953 18.4234 18.1826V13.1907C18.4234 12.3781 17.7644 11.7157 16.9518 11.7157H4.95006C4.13743 11.7157 3.47845 12.3781 3.47845 13.1907V18.1826ZM23.8933 9.09685L18.8775 4.24154V6.39263C18.8775 7.19502 19.1404 7.87107 19.6355 8.35251C20.1408 8.84077 20.851 9.09685 21.6978 9.09685H23.8933ZM25.9385 9.2266C25.9761 9.31537 25.9966 9.41439 25.9966 9.51683V24.5164C25.9966 25.4315 25.2113 26.2031 24.2791 26.2031H9.42979C8.51473 26.2031 7.71233 25.4144 7.71233 24.5164L7.75331 21.1361H4.95006C3.3248 21.1361 2 19.8079 2 18.1792V13.1873C2 11.5587 3.3248 10.2304 4.95006 10.2304H7.71233V3.88985C7.71233 3.00552 8.5318 2.20312 9.42979 2.20312H18.4678C18.7512 2.20312 19.0175 2.30897 19.2155 2.50701L25.6722 8.75541C25.8088 8.88857 25.8873 9.05588 25.9385 9.2266Z" fill="#86888C"/>
<path d="M5.91643 17.4523C5.53743 17.046 5.37354 16.4655 5.37354 15.6904C5.37354 14.2939 6.0052 13.355 7.53487 13.355C7.9207 13.355 8.41579 13.4403 8.7026 13.5564L8.57285 14.3008C8.228 14.2018 7.89338 14.1437 7.6134 14.1437C6.65394 14.1437 6.43201 14.7754 6.43201 15.6631C6.43201 16.1924 6.53103 16.6362 6.75296 16.8821C6.94759 17.104 7.23098 17.203 7.7329 17.203C7.94801 17.203 8.29287 17.1621 8.55578 17.1108L8.66163 17.8552C8.3953 17.9337 7.90362 17.9918 7.53828 17.9918C6.74613 17.9918 6.25104 17.804 5.91643 17.4523ZM9.24891 17.763L9.40597 16.9879C9.79863 17.1245 10.3142 17.2099 10.6386 17.2099C11.2395 17.2099 11.5195 17.0528 11.5195 16.6431C11.5195 15.8065 9.24208 16.4143 9.24208 14.6593C9.24208 13.7511 9.95228 13.355 10.9049 13.355C11.3351 13.355 11.8063 13.4199 12.1512 13.5394L11.9941 14.2974C11.6288 14.1983 11.2361 14.1403 10.922 14.1403C10.3723 14.1403 10.1981 14.3349 10.1981 14.6183C10.1981 15.4924 12.4755 14.8915 12.4755 16.6362C12.4755 17.0357 12.339 17.3533 12.1034 17.5752C11.7892 17.8689 11.3659 17.9986 10.7274 17.9986C10.1606 17.9918 9.69961 17.9201 9.24891 17.763ZM13.1004 17.763L13.2574 16.9879C13.6501 17.1245 14.1657 17.2099 14.4901 17.2099C15.091 17.2099 15.371 17.0528 15.371 16.6431C15.371 15.8065 13.0936 16.4143 13.0936 14.6593C13.0936 13.7511 13.8038 13.355 14.7564 13.355C15.1866 13.355 15.6578 13.4199 16.0026 13.5394L15.8456 14.2974C15.4802 14.1983 15.0876 14.1403 14.7735 14.1403C14.2237 14.1403 14.0496 14.3349 14.0496 14.6183C14.0496 15.4924 16.327 14.8915 16.327 16.6362C16.327 17.0357 16.1904 17.3533 15.9548 17.5752C15.6407 17.8689 15.2173 17.9986 14.5788 17.9986C14.0154 17.9918 13.5511 17.9201 13.1004 17.763Z" fill="#86888C"/>
</svg>
