<svg width="24" height="24" viewBox="0 0 24 24" fill="none" xmlns="http://www.w3.org/2000/svg">
<path fill-rule="evenodd" clip-rule="evenodd" d="M20.5688 20.7651C20.6684 20.7651 20.7651 20.6684 20.7651 20.5944V8.97966H18.4149C17.3848 8.97966 16.4942 8.6439 15.8427 8.01224C15.1825 7.37203 14.8326 6.50135 14.8326 5.49125V3.23773H8.19434C8.12036 3.23773 8.0037 3.3487 7.99801 3.40845V8.69228H14.4627C15.8199 8.69228 16.921 9.79912 16.921 11.1564V15.3163C16.921 16.6735 15.817 17.7775 14.4627 17.7775H8.03215L7.99801 20.6001C7.99801 20.6513 8.10044 20.7623 8.19434 20.7623H20.5688V20.7651ZM3.23488 15.3163C3.23488 15.9935 3.78404 16.5426 4.46123 16.5426H14.4627C15.1398 16.5426 15.689 15.9906 15.689 15.3163V11.1564C15.689 10.4792 15.1398 9.92716 14.4627 9.92716H4.46123C3.78404 9.92716 3.23488 10.4792 3.23488 11.1564V15.3163ZM20.2473 7.74477L16.0674 3.69583V5.48841C16.0674 6.15422 16.2865 6.72044 16.6991 7.12164C17.1202 7.52852 17.712 7.74193 18.4149 7.74193H20.2473V7.74477ZM21.9516 7.8529C21.9829 7.92688 22 8.00939 22 8.09475V20.5944C22 21.357 21.3456 22 20.5688 22H8.19434C7.43178 22 6.76312 21.3427 6.76312 20.5944L6.79727 17.7775H4.45839C3.104 17.7775 2 16.6735 2 15.3163V11.1564C2 9.79912 3.104 8.69228 4.45839 8.69228H6.76028V3.40561C6.76028 2.66866 7.44032 2 8.19149 2H15.7231C15.9593 2 16.1813 2.08821 16.3463 2.25324L21.7268 7.46024C21.8435 7.57121 21.9089 7.70778 21.9516 7.8529Z" fill="#86888C"/>
<path d="M4.36133 11.4554H5.64458C6.22788 11.4554 6.60062 11.5379 6.83963 11.7599C7.04165 11.9448 7.14124 12.235 7.14124 12.6334C7.14124 13.0317 7.04734 13.3333 6.8624 13.5411C6.6433 13.7858 6.30471 13.9024 5.8153 13.9024H5.21493V15.1914H4.36133V11.4554ZM5.6332 13.2622C5.90636 13.2622 6.02017 13.2252 6.13114 13.1199C6.23073 13.0204 6.2791 12.8639 6.2791 12.6448C6.2791 12.4427 6.23642 12.2948 6.13683 12.2037C6.0344 12.1098 5.87506 12.0729 5.61328 12.0729H5.21493V13.2622H5.6332ZM7.74161 11.4554H8.37043L10.1402 13.8455V11.4554H10.8886V15.1885H10.2057L8.48994 12.9236V15.1885H7.74161V11.4554ZM11.5373 13.3447C11.5373 12.1753 12.1548 11.3843 13.4266 11.3843C13.7965 11.3843 14.2404 11.4611 14.4794 11.5635L14.3713 12.1867C14.1038 12.1098 13.7823 12.0501 13.4864 12.0501C12.7324 12.0501 12.4222 12.4968 12.4222 13.3106C12.4222 13.7317 12.4763 14.076 12.6413 14.3036C12.7779 14.4942 13.0027 14.6052 13.3612 14.6052C13.4978 14.6052 13.6827 14.5881 13.8136 14.5682V13.7829H13.2901V13.1712H14.6615V15.0775C14.3058 15.1857 13.7396 15.2682 13.3299 15.2682C11.9897 15.2653 11.5373 14.5284 11.5373 13.3447Z" fill="#86888C"/>
</svg>
