<svg width="20" height="20" viewBox="0 0 20 20" fill="none" xmlns="http://www.w3.org/2000/svg">
<path fill-rule="evenodd" clip-rule="evenodd" d="M9.55198 9.87995C9.52081 9.78866 9.47628 9.69738 9.40504 9.63281L6.8558 7.10584C6.7467 6.99452 6.58863 6.92995 6.43501 6.92995H4.82977V6.36222C4.82977 5.88577 4.93218 5.534 5.13478 5.32471C5.34407 5.10207 5.70252 4.99075 6.18565 4.99075L15.2872 4.98407C15.777 4.98407 16.1288 5.09539 16.3381 5.31803C16.5429 5.52732 16.6431 5.87909 16.6431 6.35554V10.7371C16.6431 11.2202 16.5407 11.5742 16.3381 11.788C16.1221 12.0173 15.7703 12.1286 15.2872 12.1286L9.58983 12.1353V10.0781C9.59205 10.0046 9.57869 9.94006 9.55198 9.87995ZM6.7801 8.80904V8.39048L8.11817 9.71074H7.71074C7.50813 9.71074 7.23206 9.67289 7.02278 9.46806C6.86248 9.30553 6.7801 9.08289 6.7801 8.80904ZM8.6347 16.0248H2.95513V7.90735H5.82274V8.80904C5.82274 9.35006 6.00754 9.82206 6.35708 10.1672C6.70217 10.5122 7.16749 10.6904 7.70851 10.6904H8.63247V16.0248H8.6347ZM15.2894 13.106C16.042 13.106 16.6275 12.89 17.0238 12.467C17.4134 12.0618 17.6049 11.4807 17.6049 10.7371V6.35331C17.6049 5.60747 17.4134 5.03305 17.0238 4.62785C16.6297 4.20928 16.042 4 15.2894 4L6.18787 4.00668C5.43535 4.00668 4.8498 4.21596 4.4535 4.6323C4.07056 5.03083 3.87241 5.61192 3.87241 6.35554V6.92327H2.85939C2.40075 6.92327 2 7.32848 2 7.79825V16.1317C2 16.6015 2.39407 17 2.85939 17H8.73043C9.19575 17 9.58983 16.6015 9.58983 16.1317V14.7135H17.124C17.3912 14.7135 17.6027 14.4975 17.6027 14.2237C17.6027 13.9565 17.3934 13.7339 17.124 13.7339H9.59205V13.106H15.2894Z" fill="#86888C"/>
</svg>
