<svg width="24" height="24" viewBox="0 0 24 24" fill="none" xmlns="http://www.w3.org/2000/svg">
<path fill-rule="evenodd" clip-rule="evenodd" d="M20.5688 20.3462C20.6684 20.3462 20.7651 20.2494 20.7651 20.1755V8.56071H18.4177C17.3877 8.56071 16.4971 8.22496 15.8427 7.59329C15.1825 6.95309 14.8326 6.08241 14.8326 5.07231V2.81878H8.19434C8.12036 2.81878 8.0037 2.92975 7.99801 2.98951V8.27333H15.1228C16.4772 8.27333 17.5812 9.38017 17.5812 10.7374V14.8973C17.5812 16.2546 16.4772 17.3614 15.1228 17.3614H8.035L8.00085 20.184C8.00085 20.2352 8.10329 20.3462 8.19718 20.3462H20.5688ZM3.23204 14.8973C3.23204 15.5745 3.78119 16.1265 4.45839 16.1265H15.1171C15.7943 16.1265 16.3434 15.5745 16.3434 14.8973V10.7374C16.3434 10.0602 15.7943 9.50821 15.1171 9.50821H4.45839C3.78119 9.50821 3.23204 10.0602 3.23204 10.7374V14.8973ZM20.2473 7.32583L16.0674 3.27689V5.06946C16.0674 5.73812 16.2865 6.3015 16.6991 6.70269C17.1202 7.10958 17.7121 7.32298 18.4177 7.32298H20.2473V7.32583ZM21.9488 7.43395C21.9801 7.50793 21.9972 7.59045 21.9972 7.67581V20.1755C21.9972 20.938 21.3427 21.5811 20.5688 21.5811H8.19434C7.43178 21.5811 6.76312 20.9238 6.76312 20.1755L6.79727 17.3614H4.45839C3.104 17.3614 2 16.2546 2 14.8973V10.7374C2 9.38017 3.104 8.27333 4.45839 8.27333H6.76028V2.98666C6.76028 2.24971 7.44032 1.58105 8.19149 1.58105H15.7231C15.9565 1.58105 16.1756 1.66926 16.3434 1.8286L21.7268 7.04129C21.8407 7.15226 21.9061 7.28884 21.9488 7.43395Z" fill="#86888C"/>
<path d="M3.875 11.2871H4.59203V12.5675H5.69887V11.2871H6.4159V14.4312H5.69887V13.1081H4.59203V14.4312H3.875V11.2871ZM7.7959 11.805H6.82279V11.2871H9.52018L9.46612 11.805H8.51577V14.4284H7.79874V11.805H7.7959ZM9.89293 11.2871H10.4592L11.4522 13.0427L12.4765 11.2871H13.0285V14.4312H12.3712V12.6216L11.7196 13.7142H11.1676L10.4961 12.6017V14.4312H9.89293V11.2871ZM13.7085 11.2871H14.4256V13.9105H15.817V14.4312H13.7085V11.2871Z" fill="#86888C"/>
</svg>
