<svg width="40" height="40" viewBox="0 0 40 40" fill="none" xmlns="http://www.w3.org/2000/svg">
<path fill-rule="evenodd" clip-rule="evenodd" d="M35.4238 35.3583C35.6031 35.3583 35.7772 35.1841 35.7772 35.051V14.1444H31.5519C29.6978 14.1444 28.0948 13.5401 26.9168 12.4031C25.7286 11.2507 25.0986 9.68349 25.0986 7.86531V3.80897H13.1498C13.0166 3.80897 12.8067 4.00871 12.7964 4.11627V13.6272H25.621C28.0589 13.6272 30.0461 15.6195 30.0461 18.0625V25.5503C30.0461 27.9933 28.0589 29.9857 25.621 29.9857H12.863L12.8015 35.0663C12.8015 35.1585 12.9859 35.3583 13.1549 35.3583H35.4238ZM4.21767 25.5503C4.21767 26.7693 5.20615 27.7629 6.4251 27.7629H25.6108C26.8297 27.7629 27.8182 26.7693 27.8182 25.5503V18.0625C27.8182 16.8435 26.8297 15.8499 25.6108 15.8499H6.4251C5.20615 15.8499 4.21767 16.8435 4.21767 18.0625V25.5503ZM34.8451 11.9216L27.3214 4.63355V7.86018C27.3214 9.06377 27.7157 10.0779 28.4584 10.8C29.2164 11.5324 30.2817 11.9165 31.5519 11.9165H34.8451V11.9216ZM37.9078 12.1163C37.9641 12.2494 37.9949 12.398 37.9949 12.5516V35.051C37.9949 36.4236 36.8169 37.5811 35.4238 37.5811H13.1498C11.7772 37.5811 10.5736 36.398 10.5736 35.051L10.6351 29.9857H6.4251C3.9872 29.9857 2 27.9933 2 25.5503V18.0625C2 15.6195 3.9872 13.6272 6.4251 13.6272H10.5685V4.11114C10.5685 2.78464 11.7926 1.58105 13.1447 1.58105H26.7017C27.1216 1.58105 27.516 1.73983 27.8182 2.02664L37.5083 11.4095C37.7132 11.6092 37.831 11.8551 37.9078 12.1163Z" fill="#86888C"/>
<path d="M5.375 19.0518H6.66565V21.3565H8.65797V19.0518H9.94862V24.7112H8.65797V22.3296H6.66565V24.7112H5.375V19.0518ZM12.4326 19.9839H10.681V19.0518H15.5363L15.439 19.9839H13.7284V24.706H12.4377V19.9839H12.4326ZM16.2073 19.0518H17.2265L19.0139 22.2118L20.8577 19.0518H21.8513V24.7112H20.6682V21.4538L19.4954 23.4205H18.5018L17.2931 21.418V24.7112H16.2073V19.0518ZM23.0754 19.0518H24.366V23.7739H26.8705V24.7112H23.0754V19.0518Z" fill="#86888C"/>
</svg>
