<svg width="40" height="40" viewBox="0 0 40 40" fill="none" xmlns="http://www.w3.org/2000/svg">
<path fill-rule="evenodd" clip-rule="evenodd" d="M22.1341 26.0188C22.1341 26.9972 21.4067 27.7399 20.4694 27.7399C19.5064 27.7399 18.779 26.9972 18.779 26.0495V26.0188C18.779 25.0711 19.5064 24.313 20.454 24.313C21.4068 24.3182 22.1341 25.0711 22.1341 26.0188ZM32.0562 35.4798V14.56H27.9019C26.0681 14.56 24.4904 13.9659 23.343 12.8236C22.1597 11.6659 21.5502 10.0933 21.5502 8.26978V4.22311H9.77898C9.64579 4.22311 9.4409 4.41776 9.43065 4.53557V14.8571L9.50749 29.461L9.43065 35.4952C9.43065 35.5822 9.60481 35.7769 9.77898 35.7769H31.7078C31.8974 35.7769 32.0562 35.613 32.0562 35.4798ZM23.7374 5.05293V8.26978C23.7374 9.4889 24.1165 10.4929 24.8592 11.2203C25.602 11.9476 26.6521 12.3318 27.907 12.3318H31.1392L23.7374 5.05293ZM34.1512 12.5265C34.2075 12.6596 34.2383 12.8082 34.2383 12.9721V35.4798C34.2383 36.8423 33.0858 38 31.7027 38H9.77385C8.43179 38 7.23828 36.827 7.23828 35.4798L7.31512 29.4456L7.23828 14.8571V4.52021C7.23828 3.19863 8.44716 2 9.77385 2H23.1227C23.5428 2 23.9526 2.16392 24.2445 2.46101L33.7721 11.8298C33.9617 12.0245 34.0795 12.2601 34.1512 12.5265ZM27.8148 26.0188C27.8148 26.9972 27.0875 27.7399 26.1552 27.7399C25.1922 27.7399 24.4648 26.9972 24.4648 26.0495V26.0188C24.4648 25.0711 25.1922 24.313 26.1398 24.313C27.0875 24.3182 27.8148 25.0711 27.8148 26.0188ZM16.4483 26.0188C16.4483 26.9972 15.7209 27.7399 14.7733 27.7399C13.8256 27.7399 13.0983 26.9972 13.0983 26.0495V26.0188C13.0983 25.0711 13.8256 24.313 14.7579 24.313C15.7209 24.3182 16.4483 25.0711 16.4483 26.0188Z" fill="#86888C"/>
</svg>
