<svg width="28" height="28" viewBox="0 0 28 28" fill="none" xmlns="http://www.w3.org/2000/svg">
<path fill-rule="evenodd" clip-rule="evenodd" d="M24.2791 24.5181C24.3986 24.5181 24.5147 24.402 24.5147 24.3133V10.3756H21.6944C20.4584 10.3756 19.3897 9.97268 18.6044 9.21468C17.8122 8.44644 17.3922 7.40162 17.3922 6.1895V3.48528H9.42638C9.3376 3.48528 9.19761 3.61844 9.19078 3.69014V10.0307H16.9484C18.577 10.0307 19.8984 11.3589 19.8984 12.9876V17.9795C19.8984 19.6082 18.5736 20.9364 16.9484 20.9364H9.23175L9.19078 24.3235C9.19078 24.385 9.3137 24.5181 9.42638 24.5181H24.2791ZM3.47845 17.9795C3.47845 18.7921 4.13743 19.4545 4.95006 19.4545H16.9518C17.7644 19.4545 18.4234 18.7921 18.4234 17.9795V12.9876C18.4234 12.175 17.7644 11.5126 16.9518 11.5126H4.95006C4.13743 11.5126 3.47845 12.175 3.47845 12.9876V17.9795ZM23.8933 8.89373L18.8775 4.03841V6.1895C18.8775 6.99189 19.1404 7.66795 19.6355 8.14938C20.1408 8.63764 20.851 8.89373 21.6978 8.89373H23.8933ZM25.9385 9.02347C25.9761 9.11225 25.9966 9.21127 25.9966 9.3137V24.3133C25.9966 25.2283 25.2113 26 24.2791 26H9.42979C8.51473 26 7.71233 25.2113 7.71233 24.3133L7.75331 20.933H4.95006C3.3248 20.933 2 19.6048 2 17.9761V12.9842C2 11.3555 3.3248 10.0273 4.95006 10.0273H7.71233V3.68673C7.71233 2.80239 8.5318 2 9.42979 2H18.4678C18.7512 2 19.0175 2.10585 19.2155 2.30388L25.6722 8.55228C25.8088 8.68886 25.8873 8.85275 25.9385 9.02347Z" fill="#86888C"/>
<path d="M5.17188 13.3188H6.72202C7.42881 13.3188 7.8761 13.4178 8.16633 13.6875C8.40875 13.9129 8.52826 14.2611 8.52826 14.7426C8.52826 15.224 8.41558 15.5859 8.19023 15.8386C7.92732 16.1357 7.51759 16.2757 6.92348 16.2757H6.19962V17.8326H5.17188V13.3188ZM6.70837 15.5006C7.03957 15.5006 7.17614 15.4528 7.30931 15.3299C7.42881 15.2104 7.48686 15.0191 7.48686 14.7562C7.48686 14.5138 7.43564 14.3328 7.31613 14.2236C7.1898 14.1109 6.99859 14.0665 6.68447 14.0665H6.19962V15.504H6.70837V15.5006ZM9.09164 17.6892L9.2487 16.9039C9.64477 17.0439 10.1638 17.1293 10.495 17.1293C11.1027 17.1293 11.3861 16.9722 11.3861 16.5556C11.3861 15.7123 9.08481 16.3235 9.08481 14.5514C9.08481 13.6363 9.80525 13.2334 10.7647 13.2334C11.2018 13.2334 11.6764 13.2983 12.0246 13.4178L11.8676 14.1826C11.4988 14.0836 11.1027 14.0255 10.7852 14.0255C10.2321 14.0255 10.0545 14.2236 10.0545 14.507C10.0545 15.3913 12.3558 14.7835 12.3558 16.5454C12.3558 16.9483 12.2158 17.2693 11.9802 17.4946C11.6627 17.7917 11.2359 17.9248 10.5872 17.9248C10.0135 17.9214 9.54575 17.8497 9.09164 17.6892ZM13.148 13.3188H14.5376C15.3947 13.3188 15.9615 13.4519 16.337 13.8275C16.699 14.1826 16.8834 14.7426 16.8834 15.5552C16.8834 16.3747 16.7058 16.9415 16.337 17.3239C15.999 17.6653 15.48 17.8326 14.6742 17.8326H13.1446V13.3188H13.148ZM14.6128 17.078C15.0737 17.078 15.4049 16.9381 15.5825 16.6751C15.76 16.4122 15.8215 16.1083 15.8215 15.5552C15.8215 14.9099 15.7225 14.606 15.5039 14.367C15.2991 14.1485 14.9952 14.0699 14.4933 14.0699H14.1757V17.078H14.6128Z" fill="#86888C"/>
</svg>
