<svg width="40" height="40" viewBox="0 0 40 40" fill="none" xmlns="http://www.w3.org/2000/svg">
<path fill-rule="evenodd" clip-rule="evenodd" d="M35.4187 35.9803C35.598 35.9803 35.7721 35.8062 35.7721 35.673V14.7665H31.5467C29.6927 14.7665 28.0896 14.1622 26.9117 13.0251C25.7234 11.8728 25.0935 10.3056 25.0935 8.48738V4.43104H13.1447C13.0115 4.43104 12.8015 4.63078 12.7913 4.73834V14.2492H25.0371C27.4802 14.2492 29.4674 16.2415 29.4674 18.6846V26.1724C29.4674 28.6154 27.4802 30.6077 25.0371 30.6077H12.8476L12.7862 35.6884C12.7862 35.7806 12.9706 35.9803 13.1396 35.9803H35.4187ZM4.21767 26.1724C4.21767 27.3913 5.20615 28.3849 6.4251 28.3849H25.0371C26.2561 28.3849 27.2446 27.3913 27.2446 26.1724V18.6846C27.2446 17.4656 26.2561 16.472 25.0371 16.472H6.4251C5.20615 16.472 4.21767 17.4656 4.21767 18.6846V26.1724ZM34.8451 12.5437L27.3214 5.25562V8.48225C27.3214 9.68584 27.7157 10.6999 28.4584 11.4221C29.2164 12.1545 30.2817 12.5386 31.5519 12.5386H34.8451V12.5437ZM37.9078 12.7383C37.9641 12.8715 37.9949 13.02 37.9949 13.1737V35.673C37.9949 37.0456 36.8169 38.2031 35.4187 38.2031H13.1447C11.7721 38.2031 10.5685 37.02 10.5685 35.673L10.63 30.6077H6.4251C3.9872 30.6077 2 28.6154 2 26.1724V18.6846C2 16.2415 3.9872 14.2492 6.4251 14.2492H10.5685V4.73321C10.5685 3.40671 11.7926 2.20312 13.1447 2.20312H26.7017C27.1216 2.20312 27.516 2.3619 27.8182 2.64871L37.5083 12.0316C37.7132 12.2313 37.831 12.4771 37.9078 12.7383Z" fill="#86888C"/>
<path d="M5.23242 19.499H9.25291L9.15048 20.4824H6.58966V21.9267H8.63831V22.9459H6.58966V24.467H9.299V25.4504H5.23242V19.499ZM10.308 19.499H11.3067L14.1287 23.3146V19.499H15.3221V25.4555H14.2311L11.4962 21.8396V25.4555H10.3028V19.499H10.308ZM16.6178 19.499H20.6383L20.5359 20.4824H17.9751V21.9267H20.0237V22.9459H17.9751V24.467H20.6844V25.4504H16.6178V19.499ZM23.1479 22.4849L21.3297 19.499H22.7484L23.9315 21.4657L25.0122 19.499H26.4565L24.5051 22.4132L26.4053 25.4504H24.8995L23.7164 23.4324L22.646 25.4504H21.1761L23.1479 22.4849Z" fill="#86888C"/>
</svg>
