<svg width="20" height="20" viewBox="0 0 20 20" fill="none" xmlns="http://www.w3.org/2000/svg">
<path fill-rule="evenodd" clip-rule="evenodd" d="M16.855 16.5931C16.9347 16.5931 17.0121 16.5158 17.0121 16.4566V7.16478H15.1342C14.3101 7.16478 13.5977 6.89618 13.0741 6.39084C12.546 5.87868 12.266 5.18214 12.266 4.37406V2.57124H6.95547C6.89629 2.57124 6.80296 2.66001 6.79841 2.70782V6.93488H12.4982C13.5817 6.93488 14.4649 7.82035 14.4649 8.90614V12.2341C14.4649 13.3199 13.5817 14.2053 12.4982 14.2053H6.828L6.80068 16.4634C6.80068 16.5044 6.88263 16.5931 6.95775 16.5931H16.855ZM2.98563 12.2341C2.98563 12.7758 3.42495 13.2174 3.96671 13.2174H12.4937C13.0354 13.2174 13.4747 12.7758 13.4747 12.2341V8.90614C13.4747 8.36438 13.0354 7.92278 12.4937 7.92278H3.96671C3.42495 7.92278 2.98563 8.36438 2.98563 8.90614V12.2341ZM16.5978 6.17687L13.2539 2.93772V4.37178C13.2539 4.90671 13.4292 5.35741 13.7593 5.67837C14.0962 6.00387 14.5696 6.1746 15.1342 6.1746H16.5978V6.17687ZM17.959 6.26337C17.9841 6.32255 17.9977 6.38857 17.9977 6.45686V16.4566C17.9977 17.0666 17.4742 17.5811 16.855 17.5811H6.95547C6.34543 17.5811 5.8105 17.0552 5.8105 16.4566L5.83782 14.2053H3.96671C2.8832 14.2053 2 13.3199 2 12.2341V8.90614C2 7.82035 2.8832 6.93488 3.96671 6.93488H5.80822V2.70554C5.80822 2.11598 6.35226 1.58105 6.95319 1.58105H12.9785C13.1652 1.58105 13.3404 1.65162 13.4747 1.77909L17.7815 5.94924C17.8725 6.03802 17.9249 6.14728 17.959 6.26337Z" fill="#86888C"/>
<path d="M3.5 9.3457H4.07362V10.37H4.9591V9.3457H5.53272V11.861H4.9591V10.8025H4.07362V11.861H3.5V9.3457ZM6.63672 9.75999H5.85823V9.3457H8.01615L7.9729 9.75999H7.21262V11.8587H6.639V9.75999H6.63672ZM8.31434 9.3457H8.76732L9.56175 10.7502L10.3812 9.3457H10.8228V11.861H10.297V10.4133L9.77572 11.2874H9.33412L8.79691 10.3973V11.861H8.31434V9.3457ZM11.3668 9.3457H11.9405V11.4444H13.0536V11.861H11.3668V9.3457Z" fill="#86888C"/>
</svg>
