<svg width="24" height="24" viewBox="0 0 24 24" fill="none" xmlns="http://www.w3.org/2000/svg">
<path fill-rule="evenodd" clip-rule="evenodd" d="M20.5659 20.9682C20.6655 20.9682 20.7623 20.8715 20.7623 20.7975V9.18278H18.4149C17.3848 9.18278 16.4942 8.84703 15.8398 8.21536C15.1797 7.57516 14.8297 6.70448 14.8297 5.69438V3.44085H8.19149C8.11751 3.44085 8.00085 3.55182 7.99516 3.61158V8.8954H14.7984C16.1556 8.8954 17.2596 10.0022 17.2596 11.3595V15.5194C17.2596 16.8766 16.1556 17.9835 14.7984 17.9835H8.02646L7.99232 20.8061C7.99232 20.8573 8.09475 20.9682 8.18865 20.9682H20.5659ZM3.23204 15.5194C3.23204 16.1966 3.78119 16.7486 4.45839 16.7486H14.7984C15.4756 16.7486 16.0248 16.1966 16.0248 15.5194V11.3595C16.0248 10.6823 15.4756 10.1303 14.7984 10.1303H4.45839C3.78119 10.1303 3.23204 10.6823 3.23204 11.3595V15.5194ZM20.2473 7.9479L16.0674 3.89896V5.69153C16.0674 6.36019 16.2865 6.92357 16.6991 7.32476C17.1202 7.73165 17.7121 7.94505 18.4177 7.94505H20.2473V7.9479ZM21.9488 8.05602C21.9801 8.13 21.9972 8.21252 21.9972 8.29788V20.7975C21.9972 21.5601 21.3427 22.2031 20.5659 22.2031H8.19149C7.42894 22.2031 6.76028 21.5458 6.76028 20.7975L6.79442 17.9835H4.45839C3.104 17.9835 2 16.8766 2 15.5194V11.3595C2 10.0022 3.104 8.8954 4.45839 8.8954H6.76028V3.60873C6.76028 2.87178 7.44032 2.20312 8.19149 2.20312H15.7231C15.9565 2.20312 16.1756 2.29133 16.3434 2.45067L21.7268 7.66336C21.8407 7.77433 21.9061 7.91091 21.9488 8.05602Z" fill="#86888C"/>
<path d="M3.7959 11.812H6.0295L5.9726 12.3583H4.54992V13.1607H5.68806V13.7269H4.54992V14.572H6.05511V15.1183H3.7959V11.812ZM6.61565 11.812H7.17049L8.73828 13.9318V11.812H9.40125V15.1212H8.79519L7.27577 13.1123V15.1212H6.6128V11.812H6.61565ZM10.1211 11.812H12.3547L12.2978 12.3583H10.8751V13.1607H12.0133V13.7269H10.8751V14.572H12.3803V15.1183H10.1211V11.812ZM13.749 13.4709L12.7388 11.812H13.527L14.1843 12.9046L14.7847 11.812H15.5871L14.503 13.431L15.5586 15.1183H14.7221L14.0648 13.9972L13.4701 15.1183H12.6535L13.749 13.4709Z" fill="#86888C"/>
</svg>
