<svg width="20" height="20" viewBox="0 0 20 20" fill="none" xmlns="http://www.w3.org/2000/svg">
<path fill-rule="evenodd" clip-rule="evenodd" d="M16.8549 17.0121C16.9345 17.0121 17.012 16.9347 17.012 16.8755V7.58372H15.1338C14.3096 7.58372 13.597 7.31512 13.0734 6.80979C12.5452 6.2999 12.2675 5.60108 12.2675 4.793V2.99018H6.95618C6.89698 2.99018 6.80364 3.07896 6.79909 3.12676V7.35382H11.9715C13.0575 7.35382 13.9385 8.2393 13.9385 9.32508V12.653C13.9385 13.7388 13.0552 14.6243 11.9715 14.6243H6.82641L6.79909 16.8823C6.79909 16.9233 6.88105 17.0121 6.95618 17.0121H16.8549ZM2.98577 12.653C2.98577 13.1948 3.42516 13.6364 3.96699 13.6364H11.9693C12.5111 13.6364 12.9505 13.1948 12.9505 12.653V9.32508C12.9505 8.78333 12.5111 8.34173 11.9693 8.34173H3.96699C3.42516 8.34173 2.98577 8.78333 2.98577 9.32508V12.653ZM16.5999 6.59582L13.2555 3.35894V4.793C13.2555 5.32793 13.4308 5.77863 13.761 6.09959C14.0979 6.4251 14.5714 6.59582 15.136 6.59582H16.5999ZM17.786 6.37047C17.9249 6.50704 18 6.68687 18 6.8758V16.8755C18 17.4856 17.4764 18 16.8549 18H6.9539C6.34377 18 5.80877 17.4742 5.80877 16.8755L5.83608 14.622H3.96699C2.88332 14.622 2 13.7365 2 12.6507V9.32281C2 8.23702 2.88332 7.35154 3.96699 7.35154H5.80877V3.12448C5.80877 2.53493 6.35515 2 6.9539 2H12.9801C13.1668 2 13.3421 2.07056 13.4764 2.19804L17.786 6.37047Z" fill="#86888C"/>
<path d="M4.71289 12.1276L6.17383 10.0294H4.75613V9.52425H7.01809V9.94524L5.5799 12.0251H7.02719V12.5303H4.71289V12.1276ZM7.52327 9.52197H8.21051V12.5303H7.52327V9.52197ZM8.86816 9.52197H9.90129C10.3723 9.52197 10.6704 9.58797 10.8639 9.76774C11.0277 9.91793 11.1051 10.15 11.1051 10.4709C11.1051 10.7918 11.03 11.033 10.8798 11.2014C10.7046 11.3994 10.4315 11.4927 10.0356 11.4927H9.55085V12.5303H8.86361V9.52197H8.86816ZM9.89446 10.9784C10.1152 10.9784 10.2062 10.9465 10.295 10.8646C10.3746 10.7849 10.4133 10.6575 10.4133 10.4823C10.4133 10.3207 10.3792 10.2001 10.2995 10.125C10.2153 10.0499 10.0879 10.0203 9.87626 10.0203H9.5554V10.9806H9.89446V10.9784Z" fill="#86888C"/>
</svg>
