<svg width="20" height="20" viewBox="0 0 20 20" fill="none" xmlns="http://www.w3.org/2000/svg">
<path fill-rule="evenodd" clip-rule="evenodd" d="M14.7313 16.8754V7.58224H12.8805C12.0677 7.58224 11.3688 7.3136 10.8543 6.8082C10.3352 6.29596 10.0597 5.59932 10.0597 4.79112V2.98805H4.83037C4.77118 2.98805 4.68011 3.07684 4.67556 3.12464V16.8754C4.67556 16.9232 4.75524 17.012 4.83037 17.012H14.5765C14.6539 17.012 14.7313 16.9345 14.7313 16.8754ZM11.0296 3.35686V4.79112C11.0296 5.32612 11.2026 5.77689 11.5281 6.09789C11.8583 6.42117 12.325 6.59419 12.8805 6.59419H14.3215L11.0296 3.35686ZM15.6625 6.68071C15.6875 6.7399 15.7012 6.80592 15.7012 6.87422V16.8754C15.7012 17.4855 15.1844 18 14.5743 18H4.82809C4.22707 18 3.70117 17.4741 3.70117 16.8754V3.12464C3.70117 2.535 4.23845 2 4.82809 2H10.7609C10.9453 2 11.1206 2.07057 11.2527 2.20262L15.4894 6.36881C15.5782 6.45532 15.6306 6.56688 15.6625 6.68071ZM11.9971 10.387V9.89072L8.95558 9.05293V9.54923L11.9971 10.387ZM11.3688 15.3364C11.7854 15.3273 11.9971 15.0996 11.9971 14.6579C11.9971 14.2163 11.7831 13.9841 11.3642 13.975H11.2732C10.6585 13.9818 10.6585 14.4872 10.6585 14.6534C10.6585 15.1019 10.8679 15.3318 11.2846 15.3386H11.3688V15.3364ZM7.494 13.704C7.90151 13.6949 8.11324 13.4673 8.11324 13.0256C8.11324 12.5817 7.89924 12.3517 7.47806 12.3404H7.38928C6.77459 12.3449 6.77459 12.8526 6.77459 13.0165C6.77459 13.465 6.98404 13.6949 7.40066 13.7018H7.494V13.704ZM12.3272 9.09391C12.6164 9.13034 12.8395 9.38304 12.8395 9.68583V14.6557C12.8395 15.7689 12.0563 16.1787 11.3847 16.1901H11.2686C10.5993 16.181 9.81386 15.7712 9.81386 14.6488C9.81386 13.5265 10.597 13.119 11.2641 13.1144L11.3802 13.1167C11.5851 13.1212 11.7968 13.169 11.9949 13.2533V11.2726L8.95331 10.4326L8.94192 13.1394C8.88728 14.1571 8.14511 14.5441 7.49855 14.5578H7.38245C6.71312 14.5487 5.92769 14.1389 5.92769 13.0165C5.92769 11.8941 6.70857 11.4889 7.37789 11.4821H7.494C7.69889 11.4866 7.91062 11.5344 8.10868 11.6187V8.70006C8.10868 8.37223 8.37049 8.10359 8.69377 8.10359L8.80305 8.11952L12.3272 9.09391Z" fill="#86888C"/>
</svg>
