<svg width="28" height="28" viewBox="0 0 28 28" fill="none" xmlns="http://www.w3.org/2000/svg">
<path fill-rule="evenodd" clip-rule="evenodd" d="M24.2823 24.5181C24.4018 24.5181 24.5179 24.402 24.5179 24.3133V10.3756H21.7006C20.4644 10.3756 19.3956 9.97268 18.6101 9.21468C17.8179 8.44985 17.4013 7.40162 17.4013 6.1895V3.48528H9.43426C9.34548 3.48528 9.20546 3.61844 9.19863 3.69014V10.0307H16.9573C18.5862 10.0307 19.9078 11.3589 19.9078 12.9876V17.9795C19.9078 19.6082 18.5828 20.9364 16.9573 20.9364H9.23961L9.19863 24.3235C9.19863 24.385 9.32157 24.5181 9.43426 24.5181H24.2823ZM3.47866 17.9795C3.47866 18.7921 4.13773 19.4545 4.95048 19.4545H16.9539C17.7666 19.4545 18.4257 18.7921 18.4257 17.9795V12.9876C18.4257 12.175 17.7666 11.5126 16.9539 11.5126H4.95048C4.13773 11.5126 3.47866 12.175 3.47866 12.9876V17.9795ZM23.8998 8.89373L18.8833 4.03841V6.1895C18.8833 6.99189 19.1463 7.66795 19.6414 8.14938C20.1468 8.63764 20.8571 8.89373 21.704 8.89373H23.8998ZM25.679 8.5557C25.8873 8.76056 26 9.0303 26 9.3137V24.3133C26 25.2283 25.2146 26 24.2823 26H9.43085C8.51565 26 7.71315 25.2113 7.71315 24.3133L7.75413 20.933H4.95048C3.32499 20.933 2 19.6048 2 17.9761V12.9842C2 11.3555 3.32499 10.0273 4.95048 10.0273H7.71315V3.68673C7.71315 2.80239 8.53273 2 9.43085 2H18.4701C18.7501 2 19.0131 2.10585 19.2146 2.29706L25.679 8.5557Z" fill="#86888C"/>
<path d="M6.06934 17.1916L8.26075 14.0444H6.13419V13.2866H9.52713V13.9181L7.36985 17.038H9.54079V17.7957H6.06934V17.1916ZM10.2849 13.2832H11.3158V17.7957H10.2849V13.2832ZM12.3022 13.2832H13.8519C14.5585 13.2832 15.0057 13.3822 15.2958 13.6519C15.5416 13.8771 15.6576 14.2253 15.6576 14.7066C15.6576 15.1879 15.545 15.5497 15.3197 15.8023C15.0569 16.0993 14.6473 16.2392 14.0533 16.2392H13.3263V17.7957H12.2954V13.2832H12.3022ZM13.8417 15.4678C14.1728 15.4678 14.3093 15.42 14.4425 15.2971C14.5619 15.1777 14.62 14.9865 14.62 14.7237C14.62 14.4813 14.5688 14.3004 14.4493 14.1878C14.323 14.0751 14.1318 14.0307 13.8144 14.0307H13.3331V15.4712H13.8417V15.4678Z" fill="#86888C"/>
</svg>
