<svg width="28" height="28" viewBox="0 0 28 28" fill="none" xmlns="http://www.w3.org/2000/svg">
<path fill-rule="evenodd" clip-rule="evenodd" d="M24.1795 24.5181C24.299 24.5181 24.4151 24.402 24.4151 24.3133V10.3756H21.5982C20.3622 10.3756 19.2935 9.97268 18.5082 9.21468C17.716 8.44985 17.2995 7.40162 17.2995 6.1895V3.48528H9.3336C9.24482 3.48528 9.10483 3.61844 9.098 3.69014V10.0307H16.8556C18.4843 10.0307 19.8056 11.3589 19.8056 12.9876V17.9761C19.8056 19.6048 18.4808 20.933 16.8556 20.933H9.13897L9.098 24.3201C9.098 24.3816 9.22092 24.5147 9.3336 24.5147H24.1795V24.5181ZM3.37884 17.9795C3.37884 18.7921 4.03782 19.4545 4.85045 19.4545H16.8522C17.6648 19.4545 18.3238 18.7921 18.3238 17.9795V12.991C18.3238 12.1784 17.6648 11.516 16.8522 11.516H4.85045C4.03782 11.516 3.37884 12.1784 3.37884 12.991V17.9795ZM23.7971 8.89373L18.7813 4.03841V6.1895C18.7813 6.99189 19.0442 7.66795 19.5393 8.14938C20.0446 8.63764 20.7549 8.89373 21.6016 8.89373H23.7971ZM25.8389 9.02347C25.8765 9.11225 25.897 9.21127 25.897 9.3137V24.3133C25.897 25.2283 25.1117 26 24.1795 26H9.33018C8.41512 26 7.61273 25.2113 7.61273 24.3133L7.6537 20.933H4.85045C3.22519 20.933 1.90039 19.6048 1.90039 17.9761V12.9876C1.90039 11.3589 3.22519 10.0307 4.85045 10.0307H7.61273V3.68673C7.61273 2.80239 8.43219 2 9.33018 2H18.3682C18.6516 2 18.9145 2.10926 19.1193 2.30388L25.576 8.55228C25.7092 8.68545 25.7877 8.84934 25.8389 9.02347Z" fill="#86888C"/>
<path d="M9.29624 13.1753H10.4606L12.1336 17.8121H11L10.6142 16.6478H9.10844L8.74993 17.8121H7.73926L9.29624 13.1753ZM10.3615 15.8795L9.85279 14.3328H9.83913L9.3577 15.8795H10.3615ZM12.6868 13.1753H13.7452V17.8121H12.6868V13.1753Z" fill="#86888C"/>
</svg>
