<svg width="20" height="20" viewBox="0 0 20 20" fill="none" xmlns="http://www.w3.org/2000/svg">
<path fill-rule="evenodd" clip-rule="evenodd" d="M16.8528 17.0121C16.9324 17.0121 17.0098 16.9347 17.0098 16.8755V7.58372H15.1319C14.3079 7.58372 13.5954 7.31512 13.0718 6.80979C12.5437 6.2999 12.2638 5.60108 12.2638 4.793V2.99018H6.95319C6.89401 2.99018 6.80068 3.07896 6.79613 3.12676V7.35382H11.9678C13.0536 7.35382 13.9346 8.2393 13.9346 9.32508V12.653C13.9346 13.7388 13.0514 14.6243 11.9678 14.6243H6.82345L6.79613 16.8823C6.79613 16.9233 6.87808 17.0121 6.95319 17.0121H16.8528ZM2.98563 12.653C2.98563 13.1948 3.42495 13.6364 3.96671 13.6364H11.9678C12.5096 13.6364 12.9489 13.1948 12.9489 12.653V9.32508C12.9489 8.78333 12.5096 8.34173 11.9678 8.34173H3.96671C3.42495 8.34173 2.98563 8.78333 2.98563 9.32508V12.653ZM16.5955 6.59582L13.2517 3.35667V4.79072C13.2517 5.32565 13.4269 5.77636 13.757 6.09731C14.0939 6.42282 14.5674 6.59354 15.1319 6.59354H16.5955V6.59582ZM17.959 6.68232C17.9841 6.7415 17.9977 6.80751 17.9977 6.8758V16.8755C17.9977 17.4856 17.4742 18 16.8528 18H6.95319C6.34315 18 5.80822 17.4742 5.80822 16.8755L5.83554 14.6243H3.96671C2.8832 14.6243 2 13.7388 2 12.653V9.32508C2 8.2393 2.8832 7.35382 3.96671 7.35382H5.80822V3.12448C5.80822 2.53493 6.35453 2 6.95319 2H12.9785C13.1652 2 13.3404 2.07056 13.4747 2.19804L17.7815 6.36819C17.8703 6.45469 17.9226 6.56623 17.959 6.68232Z" fill="#86888C"/>
<path d="M4.1626 9.53467H5.19603C5.66722 9.53467 5.96541 9.60068 6.1589 9.78051C6.32279 9.93074 6.40018 10.1629 6.40018 10.4839C6.40018 10.8048 6.32507 11.0484 6.17483 11.2146C5.99956 11.4126 5.7264 11.5059 5.33033 11.5059H4.84548V12.5439H4.1626V9.53467ZM5.18693 10.9915C5.40772 10.9915 5.49878 10.9596 5.58755 10.8777C5.66722 10.798 5.70592 10.6705 5.70592 10.4953C5.70592 10.3336 5.67177 10.213 5.5921 10.1379C5.50788 10.0628 5.38041 10.0332 5.16872 10.0332H4.84776V10.9938H5.18693V10.9915ZM6.88959 9.53467H7.81831C8.38966 9.53467 8.7698 9.62344 9.02019 9.87383C9.26147 10.1106 9.38667 10.4862 9.38667 11.0279C9.38667 11.5742 9.2683 11.9521 9.02019 12.207C8.79484 12.4369 8.44884 12.5462 7.91164 12.5462H6.88959V9.53467ZM7.86611 12.0454C8.17341 12.0454 8.39421 11.9521 8.51258 11.7768C8.63094 11.6015 8.67192 11.3989 8.67192 11.0279C8.67192 10.5954 8.6059 10.3928 8.46022 10.2358C8.32364 10.0901 8.12106 10.0377 7.78644 10.0377H7.57475V12.0454H7.86611ZM9.91021 9.53467H11.8951L11.8428 10.0309H10.5977V10.7616H11.5833V11.276H10.5977V12.5439H9.91021V9.53467Z" fill="#86888C"/>
</svg>
