<svg width="20" height="20" viewBox="0 0 20 20" fill="none" xmlns="http://www.w3.org/2000/svg">
<path fill-rule="evenodd" clip-rule="evenodd" d="M16.8528 17.1137C16.9324 17.1137 17.0098 17.0363 17.0098 16.9771V7.68529H15.1296C14.3056 7.68529 13.5954 7.41669 13.0718 6.91135C12.5437 6.39919 12.2638 5.70264 12.2638 4.89456V3.09175H6.95319C6.89401 3.09175 6.80068 3.18052 6.79613 3.22832V7.45538H11.9678C13.0536 7.45538 13.9346 8.34086 13.9346 9.42664V12.7523C13.9346 13.8381 13.0536 14.7236 11.9678 14.7236H6.82345L6.79613 16.9816C6.79613 17.0226 6.87808 17.1114 6.95319 17.1114H16.8528V17.1137ZM2.98563 12.7546C2.98563 13.2963 3.42495 13.7379 3.96671 13.7379H11.9678C12.5096 13.7379 12.9489 13.2963 12.9489 12.7546V9.42892C12.9489 8.88717 12.5096 8.44557 11.9678 8.44557H3.96671C3.42495 8.44557 2.98563 8.88717 2.98563 9.42892V12.7546ZM16.5978 6.69738L13.2539 3.45823V4.89229C13.2539 5.42721 13.4292 5.87792 13.7593 6.19887C14.0962 6.52438 14.5696 6.6951 15.1319 6.6951H16.5978V6.69738ZM17.959 6.78388C17.9841 6.84306 17.9977 6.90907 17.9977 6.97736V16.9771C17.9977 17.5871 17.4742 18.1016 16.8528 18.1016H6.95319C6.34315 18.1016 5.80822 17.5757 5.80822 16.9771L5.83554 14.7236H3.96671C2.8832 14.7236 2 13.8381 2 12.7523V9.42664C2 8.34086 2.8832 7.45538 3.96671 7.45538H5.80822V3.22605C5.80822 2.63649 6.35453 2.10156 6.95319 2.10156H12.9785C13.1652 2.10156 13.3404 2.17213 13.4747 2.2996L17.7815 6.46975C17.8703 6.55625 17.9226 6.66779 17.959 6.78388Z" fill="#86888C"/>
<path d="M3.70048 12.4565L3.65723 11.9967C3.77787 12.0195 3.91217 12.0286 3.96908 12.0286C4.22402 12.0286 4.30369 11.9603 4.30369 11.6666V9.80008H4.90463V11.6803C4.90463 12.0081 4.85 12.1856 4.7157 12.3199C4.59506 12.436 4.40385 12.4906 4.10565 12.4906C3.97591 12.4906 3.88941 12.4815 3.70048 12.4565ZM5.4646 9.80008H6.37056C6.78256 9.80008 7.04434 9.85699 7.21506 10.0163C7.35846 10.1484 7.42675 10.3509 7.42675 10.6332C7.42675 10.9155 7.36074 11.1272 7.23099 11.2728C7.07621 11.4458 6.8372 11.5278 6.4912 11.5278H6.06781V12.4383H5.46687V9.80008H5.4646ZM6.36145 11.0748C6.55494 11.0748 6.63461 11.0475 6.712 10.9746C6.78029 10.9064 6.81671 10.7925 6.81671 10.64C6.81671 10.4966 6.78484 10.3942 6.71655 10.3282C6.64371 10.2622 6.53217 10.2348 6.34552 10.2348H6.06326V11.0748H6.36145ZM7.85014 9.80008H9.6302L9.58467 10.2348H8.45108V10.8745H9.35704V11.3252H8.45108V11.999H9.65068V12.4337H7.85014V9.80008ZM9.98757 11.134C9.98757 10.31 10.4223 9.75 11.3215 9.75C11.5832 9.75 11.8951 9.80463 12.0658 9.87747L11.9884 10.3168C11.7995 10.2622 11.5719 10.2212 11.3647 10.2212C10.8321 10.2212 10.6136 10.5376 10.6136 11.1112C10.6136 11.4071 10.6522 11.6507 10.7683 11.8123C10.8639 11.9466 11.0233 12.024 11.2782 12.024C11.3738 12.024 11.5059 12.0126 11.5992 11.9967V11.4413H11.2281V11.0088H12.1956V12.3541C11.9452 12.4315 11.5446 12.4884 11.2555 12.4884C10.3085 12.4906 9.98757 11.9694 9.98757 11.134Z" fill="#86888C"/>
</svg>
