<svg width="40" height="40" viewBox="0 0 40 40" fill="none" xmlns="http://www.w3.org/2000/svg">
<path fill-rule="evenodd" clip-rule="evenodd" d="M35.4238 35.7772C35.6031 35.7772 35.7772 35.6031 35.7772 35.4699V14.5634H31.5467C29.6927 14.5634 28.0896 13.959 26.9168 12.822C25.7286 11.6697 25.0986 10.1024 25.0986 8.28425V4.22791H13.1498C13.0166 4.22791 12.8067 4.42766 12.7964 4.53521V14.0461H24.4328C26.8758 14.0461 28.8579 16.0384 28.8579 18.4814V25.9693C28.8579 28.4123 26.8707 30.3995 24.4328 30.3995H12.8579L12.7964 35.4802C12.7964 35.5723 12.9808 35.7721 13.1498 35.7721H35.4238V35.7772ZM4.22279 25.9693C4.22279 27.1882 5.21127 28.1767 6.43022 28.1767H24.4328C25.6517 28.1767 26.6402 27.1831 26.6402 25.9693V18.4814C26.6402 17.2625 25.6517 16.2689 24.4328 16.2689H6.43022C5.21127 16.2689 4.22279 17.2625 4.22279 18.4814V25.9693ZM34.8451 12.3406L27.3214 5.0525V8.27913C27.3214 9.47759 27.7157 10.4968 28.4584 11.219C29.2164 11.9513 30.2817 12.3355 31.5467 12.3355H34.8451V12.3406ZM37.9129 12.5352C37.9693 12.6684 38 12.8169 38 12.9706V35.4699C38 36.8425 36.822 38 35.4238 38H13.1498C11.7772 38 10.5736 36.8169 10.5736 35.4699L10.6351 30.3995H6.4251C3.9872 30.3995 2 28.4123 2 25.9693V18.4814C2 16.0384 3.9872 14.0461 6.4251 14.0461H10.5685V4.53009C10.5685 3.20359 11.7926 2 13.1447 2H26.7017C27.1268 2 27.5263 2.15877 27.8233 2.45583L37.5083 11.8284C37.7183 12.0282 37.8361 12.274 37.9129 12.5352Z" fill="#86888C"/>
<path d="M6.25049 19.0196H8.56035C9.61028 19.0196 10.2812 19.1682 10.7114 19.5677C11.0751 19.9006 11.2543 20.423 11.2543 21.14C11.2543 21.857 11.0853 22.3999 10.7524 22.7738C10.358 23.2143 9.74857 23.4243 8.86765 23.4243H7.78698V25.7444H6.25049V19.0196ZM8.53986 22.2719C9.03154 22.2719 9.2364 22.2053 9.43615 22.0158C9.61541 21.8365 9.70247 21.5549 9.70247 21.1605C9.70247 20.7969 9.62565 20.5305 9.44639 20.3666C9.26201 20.1976 8.9752 20.131 8.50401 20.131H7.78698V22.2719H8.53986ZM12.335 19.0196H13.4669L16.6525 23.3218V19.0196H17.9995V25.7392H16.7703L13.682 21.6624V25.7392H12.335V19.0196ZM19.1673 22.4204C19.1673 20.3154 20.2787 18.8916 22.568 18.8916C23.2338 18.8916 24.0328 19.0299 24.463 19.2143L24.2684 20.3359C23.787 20.1976 23.2082 20.0901 22.6756 20.0901C21.3184 20.0901 20.7601 20.8942 20.7601 22.359C20.7601 23.117 20.8574 23.7367 21.1545 24.1464C21.4003 24.4896 21.8049 24.6893 22.4502 24.6893C22.6961 24.6893 23.029 24.6586 23.2646 24.6227V23.2091H22.3222V22.108H24.7908V25.5395C24.1506 25.7341 23.1314 25.8826 22.3939 25.8826C19.9816 25.8775 19.1673 24.551 19.1673 22.4204Z" fill="#86888C"/>
</svg>
