<svg width="40" height="40" viewBox="0 0 40 40" fill="none" xmlns="http://www.w3.org/2000/svg">
<path fill-rule="evenodd" clip-rule="evenodd" d="M35.5254 35.7772C35.7046 35.7772 35.8788 35.6031 35.8788 35.4699V14.5634H31.6483C29.7943 14.5634 28.1912 13.959 27.0183 12.822C25.8301 11.6697 25.2002 10.1024 25.2002 8.28425V4.22791H13.2514C13.1182 4.22791 12.9082 4.42766 12.898 4.53521V14.0461H24.5343C26.9774 14.0461 28.9594 16.0384 28.9594 18.4814V25.9641C28.9594 28.4072 26.9722 30.3995 24.5343 30.3995H12.9594L12.898 35.4802C12.898 35.5723 13.0824 35.7721 13.2514 35.7721H35.5254V35.7772ZM4.32435 25.9693C4.32435 27.1882 5.31283 28.1818 6.53178 28.1818H24.5343C25.7533 28.1818 26.7418 27.1882 26.7418 25.9693V18.4866C26.7418 17.2676 25.7533 16.274 24.5343 16.274H6.53178C5.31283 16.274 4.32435 17.2676 4.32435 18.4866V25.9693ZM34.9466 12.3406L27.4229 5.0525V8.27913C27.4229 9.47759 27.8173 10.4968 28.5599 11.219C29.318 11.9513 30.3833 12.3355 31.6483 12.3355H34.9466V12.3406ZM38.0145 12.5352C38.0708 12.6684 38.1016 12.8169 38.1016 12.9706V35.4699C38.1016 36.8425 36.9236 38 35.5254 38H13.2514C11.8788 38 10.6752 36.8169 10.6752 35.4699L10.7366 30.3995H6.52666C4.08876 30.3995 2.10156 28.4072 2.10156 25.9641V18.4814C2.10156 16.0384 4.08876 14.0461 6.52666 14.0461H10.6701V4.53009C10.6701 3.20359 11.8941 2 13.2463 2H26.8032C27.2283 2 27.6278 2.15877 27.9249 2.45583L37.6099 11.8284C37.8199 12.0282 37.9377 12.274 38.0145 12.5352Z" fill="#86888C"/>
<path d="M7.02344 19.019H9.38963C10.4703 19.019 11.1515 19.1676 11.5971 19.5824C11.9709 19.9256 12.1502 20.4582 12.1502 21.1957C12.1502 21.9333 11.9812 22.4864 11.638 22.8705C11.2334 23.3263 10.6086 23.5363 9.70205 23.5363H8.59578V25.9128H7.02344V19.019ZM9.36915 22.3532C9.87107 22.3532 10.0862 22.2815 10.2859 22.092C10.4652 21.9128 10.5574 21.6208 10.5574 21.2162C10.5574 20.8423 10.4754 20.5709 10.2962 20.4019C10.1067 20.2329 9.81473 20.1612 9.32818 20.1612H8.59066V22.3584H9.36915V22.3532ZM13.2667 19.019H15.6329C16.7136 19.019 17.3948 19.1676 17.8403 19.5824C18.2142 19.9256 18.3935 20.4582 18.3935 21.1957C18.3935 21.9333 18.2245 22.4864 17.8813 22.8705C17.4767 23.3263 16.8519 23.5363 15.9453 23.5363H14.8391V25.9128H13.2667V19.019ZM15.6124 22.3532C16.1143 22.3532 16.3295 22.2815 16.5292 22.092C16.7085 21.9128 16.8006 21.6208 16.8006 21.2162C16.8006 20.8423 16.7187 20.5709 16.5394 20.4019C16.3499 20.2329 16.058 20.1612 15.5715 20.1612H14.8339V22.3584H15.6124V22.3532ZM21.0362 20.156H18.9005V19.019H24.816L24.6931 20.156H22.6086V25.9128H21.0362V20.156Z" fill="#86888C"/>
</svg>
