<svg width="24" height="24" viewBox="0 0 24 24" fill="none" xmlns="http://www.w3.org/2000/svg">
<path fill-rule="evenodd" clip-rule="evenodd" d="M20.5659 20.7651C20.6655 20.7651 20.7623 20.6684 20.7623 20.5944V8.97966H18.4149C17.3848 8.97966 16.4942 8.6439 15.8398 8.01224C15.1797 7.37488 14.8297 6.50135 14.8297 5.49125V3.23773H8.19149C8.11751 3.23773 8.00085 3.3487 7.99516 3.40845V8.69228H14.4598C15.817 8.69228 16.9182 9.79912 16.9182 11.1564V15.3163C16.9182 16.6735 15.8142 17.7803 14.4598 17.7803H8.02931L7.99516 20.6029C7.99516 20.6541 8.0976 20.7651 8.19149 20.7651H20.5659ZM3.23204 15.3163C3.23204 15.9935 3.78119 16.5455 4.45839 16.5455H14.4598C15.137 16.5455 15.6862 15.9935 15.6862 15.3163V11.1564C15.6862 10.4792 15.137 9.92716 14.4598 9.92716H4.45839C3.78119 9.92716 3.23204 10.4792 3.23204 11.1564V15.3163ZM20.2444 7.74477L16.0646 3.69583V5.48841C16.0646 6.15706 16.2837 6.72044 16.6963 7.12164C17.1174 7.52852 17.7092 7.74193 18.4149 7.74193H20.2444V7.74477ZM21.9488 7.8529C21.9801 7.92688 21.9972 8.00939 21.9972 8.09475V20.5944C21.9972 21.357 21.3427 22 20.5659 22H8.19149C7.42894 22 6.76028 21.3427 6.76028 20.5944L6.79442 17.7803H4.45839C3.104 17.7803 2 16.6735 2 15.3163V11.1564C2 9.79912 3.104 8.69228 4.45839 8.69228H6.76028V3.40561C6.76028 2.66866 7.44316 2 8.19149 2H15.7231C15.9565 2 16.1756 2.08821 16.3434 2.24755L21.7268 7.46024C21.8378 7.56836 21.9033 7.70778 21.9488 7.8529Z" fill="#86888C"/>
<path d="M4.70312 11.4185H5.99492C6.5839 11.4185 6.95665 11.501 7.1985 11.7258C7.40337 11.9135 7.50011 12.2038 7.50011 12.605C7.50011 13.0062 7.40621 13.3106 7.21842 13.5183C6.99933 13.7659 6.65788 13.8825 6.16279 13.8825H5.55673V15.18H4.70312V11.4185ZM5.98353 13.2395C6.25953 13.2395 6.37335 13.1996 6.48432 13.0972C6.5839 12.9976 6.63228 12.8383 6.63228 12.6192C6.63228 12.4172 6.5896 12.2664 6.49001 12.1725C6.38473 12.0786 6.22539 12.0416 5.96077 12.0416H5.55958V13.2423H5.98353V13.2395ZM8.11186 11.4185H9.27277C9.98695 11.4185 10.4621 11.5294 10.7751 11.8424C11.0767 12.1383 11.2332 12.6078 11.2332 13.285C11.2332 13.9679 11.0853 14.4402 10.7751 14.7589C10.4934 15.0463 10.0609 15.1829 9.38942 15.1829H8.11186V11.4185ZM9.33252 14.5569C9.71664 14.5569 9.99264 14.4402 10.1406 14.2211C10.2886 14.002 10.3398 13.7488 10.3398 13.285C10.3398 12.7444 10.2573 12.4912 10.0752 12.2948C9.90443 12.1127 9.6512 12.0473 9.23293 12.0473H8.96831V14.5569H9.33252ZM11.8876 11.4185H14.3688L14.3034 12.0387H12.7469V12.9521H13.979V13.5952H12.7469V15.18H11.8876V11.4185Z" fill="#86888C"/>
</svg>
