<svg width="40" height="40" viewBox="0 0 40 40" fill="none" xmlns="http://www.w3.org/2000/svg">
<path fill-rule="evenodd" clip-rule="evenodd" d="M35.4187 35.9803C35.598 35.9803 35.7721 35.8062 35.7721 35.673V14.7665H31.5416C29.6876 14.7665 28.0845 14.1622 26.9065 13.0251C25.7183 11.8779 25.0935 10.3107 25.0935 8.48738V4.43104H13.1447C13.0115 4.43104 12.8015 4.63078 12.7913 4.73834V14.2492H24.4277C26.8707 14.2492 28.8528 16.2415 28.8528 18.6846V26.1724C28.8528 28.6154 26.8656 30.6077 24.4277 30.6077H12.8528L12.7913 35.6884C12.7913 35.7806 12.9757 35.9803 13.1447 35.9803H35.4187ZM4.21767 26.1724C4.21767 27.3913 5.20615 28.3849 6.4251 28.3849H24.4277C25.6466 28.3849 26.6351 27.3913 26.6351 26.1724V18.6846C26.6351 17.4656 25.6466 16.472 24.4277 16.472H6.4251C5.20615 16.472 4.21767 17.4656 4.21767 18.6846V26.1724ZM34.84 12.5437L27.3163 5.26074V8.48738C27.3163 9.69096 27.7106 10.705 28.4533 11.4272C29.2113 12.1596 30.2766 12.5437 31.5467 12.5437H34.84ZM37.9078 12.7383C37.9641 12.8715 37.9949 13.02 37.9949 13.1737V35.673C37.9949 37.0456 36.8169 38.2031 35.4187 38.2031H13.1447C11.7721 38.2031 10.5685 37.02 10.5685 35.673L10.63 30.6026H6.4251C3.9872 30.6026 2 28.6103 2 26.1673V18.6794C2 16.2364 3.9872 14.2441 6.4251 14.2441H10.5685V4.73321C10.5685 3.40671 11.7977 2.20312 13.1447 2.20312H26.7017C27.1268 2.20312 27.5263 2.3619 27.8233 2.65895L37.5083 12.0316C37.7132 12.2313 37.831 12.4823 37.9078 12.7383Z" fill="#86888C"/>
<path d="M7.87489 25.0766C7.30639 24.4672 7.06055 23.5965 7.06055 22.4339C7.06055 20.3391 8.00805 18.9307 10.3025 18.9307C10.8813 18.9307 11.6239 19.0587 12.0541 19.2328L11.8595 20.3494C11.3422 20.2008 10.8403 20.1138 10.4203 20.1138C8.98116 20.1138 8.64825 21.0613 8.64825 22.3929C8.64825 23.1867 8.79678 23.8526 9.12969 24.2213C9.42162 24.5542 9.84672 24.7028 10.5996 24.7028C10.9223 24.7028 11.4395 24.6413 11.8339 24.5645L11.9927 25.681C11.5932 25.7988 10.8557 25.8858 10.3077 25.8858C9.11945 25.8858 8.37681 25.6042 7.87489 25.0766ZM12.8736 25.5427L13.1092 24.3801C13.6982 24.585 14.4716 24.713 14.9581 24.713C15.8595 24.713 16.2795 24.4774 16.2795 23.8628C16.2795 22.608 12.8634 23.5197 12.8634 20.8871C12.8634 19.5248 13.9287 18.9307 15.3576 18.9307C16.0029 18.9307 16.7097 19.028 17.227 19.2072L16.9914 20.3442C16.4434 20.1957 15.8544 20.1086 15.3832 20.1086C14.5586 20.1086 14.2974 20.4006 14.2974 20.8257C14.2974 22.1368 17.7136 21.2354 17.7136 23.8526C17.7136 24.4518 17.5087 24.9281 17.1553 25.261C16.6841 25.7015 16.049 25.8961 15.0913 25.8961C14.2411 25.8859 13.5497 25.7783 12.8736 25.5427ZM18.6508 25.5427L18.8864 24.3801C19.4754 24.585 20.2488 24.713 20.7353 24.713C21.6367 24.713 22.0567 24.4774 22.0567 23.8628C22.0567 22.608 18.6406 23.5197 18.6406 20.8871C18.6406 19.5248 19.7059 18.9307 21.1348 18.9307C21.7801 18.9307 22.4869 19.028 23.0042 19.2072L22.7686 20.3442C22.2206 20.1957 21.6316 20.1086 21.1604 20.1086C20.3358 20.1086 20.0746 20.4006 20.0746 20.8257C20.0746 22.1368 23.4908 21.2354 23.4908 23.8526C23.4908 24.4518 23.2859 24.9281 22.9325 25.261C22.4613 25.7015 21.8262 25.8961 20.8685 25.8961C20.0234 25.8859 19.3269 25.7783 18.6508 25.5427Z" fill="#86888C"/>
</svg>
