<svg width="24" height="24" viewBox="0 0 24 24" fill="none" xmlns="http://www.w3.org/2000/svg">
<path fill-rule="evenodd" clip-rule="evenodd" d="M20.5659 20.7651C20.6655 20.7651 20.7623 20.6684 20.7623 20.5944V8.97966H18.412C17.382 8.97966 16.4914 8.6439 15.837 8.01224C15.1768 7.37203 14.8269 6.50135 14.8269 5.49125V3.23773H8.18865C8.11467 3.23773 7.99801 3.3487 7.99232 3.40845V8.69228H14.457C15.8142 8.69228 16.9154 9.79912 16.9154 11.1564V15.3163C16.9154 16.6735 15.8114 17.7803 14.457 17.7803H8.02646L7.99232 20.6029C7.99232 20.6541 8.09475 20.7651 8.18865 20.7651H20.5659ZM3.23204 15.3163C3.23204 15.9935 3.78119 16.5455 4.45839 16.5455H14.4598C15.137 16.5455 15.6862 15.9935 15.6862 15.3163V11.1564C15.6862 10.4792 15.137 9.92716 14.4598 9.92716H4.45839C3.78119 9.92716 3.23204 10.4792 3.23204 11.1564V15.3163ZM20.2444 7.74477L16.0646 3.69868V5.49125C16.0646 6.15991 16.2837 6.72329 16.6963 7.12448C17.1174 7.53137 17.7092 7.74477 18.4149 7.74477H20.2444ZM21.9488 7.8529C21.9801 7.92688 21.9972 8.00939 21.9972 8.09475V20.5944C21.9972 21.357 21.3427 22 20.5659 22H8.19149C7.42894 22 6.76028 21.3427 6.76028 20.5944L6.79442 17.7775H4.45839C3.104 17.7775 2 16.6707 2 15.3134V11.1535C2 9.79627 3.104 8.68943 4.45839 8.68943H6.76028V3.40561C6.76028 2.66866 7.44316 2 8.19149 2H15.7231C15.9593 2 16.1813 2.08821 16.3463 2.25324L21.7268 7.46024C21.8407 7.57405 21.9061 7.71063 21.9488 7.8529Z" fill="#86888C"/>
<path d="M4.64355 11.432H5.93535C6.52433 11.432 6.89708 11.5145 7.13893 11.7393C7.34095 11.9271 7.44054 12.2173 7.44054 12.6185C7.44054 13.0197 7.34664 13.3213 7.15885 13.5318C6.93976 13.7794 6.59831 13.8961 6.10322 13.8961H5.50001V15.1935H4.64355V11.432ZM5.92396 13.2502C6.19996 13.2502 6.31378 13.2103 6.42475 13.1079C6.52433 13.0083 6.57271 12.849 6.57271 12.6299C6.57271 12.4278 6.53003 12.277 6.43044 12.186C6.32516 12.0921 6.16582 12.0551 5.90405 12.0551H5.50001V13.253H5.92396V13.2502ZM7.91002 15.074L8.04091 14.4196C8.37097 14.5363 8.80346 14.6074 9.07946 14.6074C9.58594 14.6074 9.8221 14.4765 9.8221 14.1294C9.8221 13.4266 7.90433 13.9359 7.90433 12.4591C7.90433 11.6966 8.5047 11.3608 9.30425 11.3608C9.66845 11.3608 10.064 11.4149 10.3542 11.5145L10.2233 12.1518C9.916 12.0693 9.58594 12.021 9.32132 12.021C8.86037 12.021 8.71241 12.186 8.71241 12.4222C8.71241 13.1591 10.6302 12.6526 10.6302 14.1208C10.6302 14.4566 10.5135 14.7241 10.3172 14.9118C10.0526 15.1594 9.69691 15.2704 9.15629 15.2704C8.67827 15.2675 8.28845 15.2078 7.91002 15.074ZM11.2903 11.432H12.4484C13.1625 11.432 13.6349 11.5429 13.9479 11.8559C14.2495 12.1518 14.4031 12.6185 14.4031 13.2957C14.4031 13.9786 14.2552 14.4509 13.9479 14.7696C13.6662 15.0541 13.2337 15.1935 12.5622 15.1935H11.2875V11.432H11.2903ZM12.511 14.5647C12.8951 14.5647 13.1711 14.4481 13.319 14.229C13.467 14.0099 13.5182 13.7566 13.5182 13.2957C13.5182 12.7579 13.4357 12.5047 13.2536 12.3055C13.0829 12.1234 12.8296 12.058 12.4114 12.058H12.1468V14.5647H12.511Z" fill="#86888C"/>
</svg>
