<svg width="40" height="40" viewBox="0 0 40 40" fill="none" xmlns="http://www.w3.org/2000/svg">
<path fill-rule="evenodd" clip-rule="evenodd" d="M35.1246 35.8733C35.3039 35.8733 35.4781 35.6992 35.4781 35.566V14.6616H31.247C29.3927 14.6616 27.7945 14.0572 26.6164 12.9149C25.428 11.7675 24.7979 10.1949 24.7979 8.37646V4.32467H12.8474C12.7194 4.32467 12.5042 4.52956 12.494 4.63713V14.1494H24.132C26.5754 14.1545 28.5577 16.1368 28.5577 18.5853V26.0691C28.5577 28.5176 26.5754 30.5 24.132 30.5051H12.5555L12.494 35.5865C12.494 35.6787 12.6733 35.8785 12.8474 35.8785H35.1246V35.8733ZM3.92428 26.0691C3.92428 27.2882 4.9129 28.282 6.13202 28.282H24.132C25.3511 28.282 26.3398 27.2882 26.3398 26.0691V18.5853C26.3398 17.3662 25.3511 16.3725 24.132 16.3725H6.13202C4.9129 16.3725 3.92428 17.3611 3.92428 18.5853V26.0691ZM34.5458 12.4385L27.021 5.15449V8.38159C27.021 9.58534 27.4155 10.5996 28.1633 11.3218C28.9214 12.0543 29.9869 12.4385 31.2521 12.4385H34.5458ZM37.6141 12.6332C37.6704 12.7663 37.7012 12.9149 37.7012 13.0686V35.5711C37.7012 36.9439 36.523 38.1016 35.1246 38.1016H12.8474C11.4746 38.1016 10.276 36.9183 10.276 35.5711L10.3375 30.5051H6.13202C3.68353 30.5 1.70117 28.5125 1.70117 26.0691V18.5853C1.70117 16.1368 3.68353 14.1545 6.1269 14.1494H10.2709V4.63201C10.2709 3.30532 11.5003 2.10156 12.8423 2.10156H26.4012C26.8264 2.10156 27.2208 2.26036 27.523 2.55233L37.2094 11.9263C37.4194 12.126 37.5373 12.3719 37.6141 12.6332Z" fill="#86888C"/>
<path d="M9.39373 19.2305H11.0892L13.5224 25.9664H11.8781L11.3146 24.2709H9.12737L8.60489 25.9664H7.13477L9.39373 19.2305ZM10.9407 23.1593L10.2031 20.9157H10.1826L9.48081 23.1593H10.9407ZM13.2765 19.2305H14.9208L16.4985 24.1172L17.9686 19.2305H19.4643L17.2258 25.9664H15.6225L13.2765 19.2305ZM20.3351 19.2305H21.8718V25.9664H20.3351V19.2305Z" fill="#86888C"/>
</svg>
