<svg width="20" height="20" viewBox="0 0 20 20" fill="none" xmlns="http://www.w3.org/2000/svg">
<path fill-rule="evenodd" clip-rule="evenodd" d="M16.8505 17.1137C16.9301 17.1137 17.0075 17.0363 17.0075 16.9771V7.68529H15.1273C14.3033 7.68529 13.5908 7.41669 13.0673 6.91135C12.5392 6.39919 12.2592 5.70264 12.2592 4.89456V3.09175H6.94864C6.88946 3.09175 6.79613 3.18052 6.79158 3.22832V7.45538H11.9633C13.0491 7.45538 13.93 8.34086 13.93 9.42664V12.7523C13.93 13.8381 13.0468 14.7236 11.9633 14.7236H6.81889L6.79158 16.9816C6.79158 17.0226 6.87352 17.1114 6.94864 17.1114H16.8505V17.1137ZM2.98335 12.7546C2.98335 13.2963 3.42268 13.7379 3.96443 13.7379H11.9656C12.5073 13.7379 12.9466 13.2963 12.9466 12.7546V9.42892C12.9466 8.88717 12.5073 8.44557 11.9656 8.44557H3.96443C3.42268 8.44557 2.98335 8.88717 2.98335 9.42892V12.7546ZM16.5933 6.69738L13.2494 3.4605V4.89456C13.2494 5.42949 13.4247 5.88019 13.7547 6.20115C14.0916 6.52666 14.5651 6.69738 15.1296 6.69738H16.5933ZM17.9568 6.78388C17.9818 6.84306 17.9954 6.90907 17.9954 6.97736V16.9771C17.9954 17.5871 17.4719 18.1016 16.8505 18.1016H6.95092C6.34087 18.1016 5.80822 17.5757 5.80822 16.9771L5.83554 14.7236H3.96671C2.8832 14.7236 2 13.8381 2 12.7523V9.42664C2 8.34086 2.8832 7.45538 3.96671 7.45538H5.80822V3.22605C5.80822 2.63649 6.35226 2.10156 6.95092 2.10156H12.9762C13.1629 2.10156 13.3473 2.17668 13.4793 2.30643L17.7792 6.46975C17.8703 6.55853 17.9226 6.66779 17.9568 6.78388Z" fill="#86888C"/>
<path d="M3.84131 9.64724H4.38079L5.33 11.3249L6.3088 9.64724H6.83462V12.6497H6.20864V10.9197L5.58494 11.9645H5.05912L4.41721 10.9015V12.6497H3.84131V9.64724ZM7.48792 9.64724H8.51907C8.98799 9.64724 9.28618 9.71325 9.47966 9.89308C9.64128 10.0433 9.72095 10.2755 9.72095 10.5964C9.72095 10.9174 9.64583 11.1587 9.49787 11.3249C9.3226 11.5229 9.04945 11.6139 8.65565 11.6139H8.17308V12.6497H7.48792V9.64724ZM8.51224 11.0995C8.73077 11.0995 8.82409 11.0676 8.91059 10.9857C8.99026 10.906 9.02896 10.7786 9.02896 10.6033C9.02896 10.4417 8.99482 10.3233 8.91515 10.2482C8.83092 10.1731 8.70345 10.1435 8.49403 10.1435H8.17308V11.1018H8.51224V11.0995ZM10.2695 12.6406V12.1671C10.4448 12.199 10.652 12.2194 10.8705 12.2194C11.1163 12.2194 11.262 12.1876 11.3667 12.1193C11.4714 12.0487 11.5283 11.9349 11.5283 11.7733C11.5283 11.6162 11.4714 11.5092 11.3781 11.4432C11.2688 11.3636 11.1004 11.3385 10.7931 11.3385H10.7089V10.8992H10.8136C11.089 10.8992 11.2301 10.8651 11.3371 10.7717C11.4077 10.7103 11.4555 10.6101 11.4555 10.4644C11.4555 10.3506 11.4236 10.2527 11.3553 10.1913C11.2665 10.1116 11.1186 10.0775 10.8819 10.0775C10.6884 10.0775 10.4698 10.0957 10.2946 10.1207V9.65634C10.4972 9.61309 10.7521 9.59033 10.9843 9.59033C11.3622 9.59033 11.6831 9.67911 11.8675 9.86349C11.995 9.99096 12.0746 10.1662 12.0746 10.4166C12.0746 10.7285 11.9381 10.947 11.6763 11.079C11.9927 11.1928 12.1816 11.4296 12.1816 11.8211C12.1816 12.0533 12.111 12.2559 11.9699 12.4015C11.7719 12.6087 11.4509 12.7134 10.9957 12.7134C10.7339 12.7111 10.4698 12.6838 10.2695 12.6406Z" fill="#86888C"/>
</svg>
