<svg width="24" height="24" viewBox="0 0 24 24" fill="none" xmlns="http://www.w3.org/2000/svg">
<path fill-rule="evenodd" clip-rule="evenodd" d="M13.5138 15.3438C13.5138 15.8873 13.1097 16.2999 12.5889 16.2999C12.0539 16.2999 11.6498 15.8873 11.6498 15.3608V15.3438C11.6498 14.8173 12.0539 14.3961 12.5803 14.3961C13.1097 14.399 13.5138 14.8173 13.5138 15.3438ZM19.026 20.5999V8.9778H16.7181C15.6993 8.9778 14.8228 8.6477 14.1854 8.01309C13.528 7.36995 13.1893 6.4963 13.1893 5.48321V3.23506H6.64978C6.57579 3.23506 6.46196 3.3432 6.45627 3.40865V9.14286L6.49895 17.2561L6.45627 20.6084C6.45627 20.6568 6.55302 20.7649 6.64978 20.7649H18.8325C18.9378 20.7649 19.026 20.6739 19.026 20.5999ZM14.4045 3.69607V5.48321C14.4045 6.1605 14.6151 6.71827 15.0277 7.12237C15.4403 7.52647 16.0237 7.7399 16.7209 7.7399H18.5166L14.4045 3.69607ZM20.1899 7.84804C20.2212 7.92203 20.2383 8.00455 20.2383 8.09562V20.5999C20.2383 21.3569 19.598 22 18.8296 22H6.64693C5.90134 22 5.23828 21.3483 5.23828 20.5999L5.28097 17.2476L5.23828 9.14286V3.40011C5.23828 2.66591 5.90988 2 6.64693 2H14.063C14.2963 2 14.524 2.09106 14.6862 2.25612L19.9793 7.46101C20.0846 7.56915 20.1501 7.70006 20.1899 7.84804ZM16.6697 15.3438C16.6697 15.8873 16.2656 16.2999 15.7477 16.2999C15.2127 16.2999 14.8086 15.8873 14.8086 15.3608V15.3438C14.8086 14.8173 15.2127 14.3961 15.7391 14.3961C16.2656 14.399 16.6697 14.8173 16.6697 15.3438ZM10.355 15.3438C10.355 15.8873 9.95086 16.2999 9.42439 16.2999C8.89793 16.2999 8.49383 15.8873 8.49383 15.3608V15.3438C8.49383 14.8173 8.89793 14.3961 9.41586 14.3961C9.95086 14.399 10.355 14.8173 10.355 15.3438Z" fill="#86888C"/>
</svg>
