<svg width="24" height="24" viewBox="0 0 24 24" fill="none" xmlns="http://www.w3.org/2000/svg">
<path fill-rule="evenodd" clip-rule="evenodd" d="M20.5631 20.8667C20.6627 20.8667 20.7594 20.7699 20.7594 20.696V9.08122H18.4092C17.3791 9.08122 16.4885 8.74547 15.8341 8.1138C15.174 7.47359 14.824 6.60291 14.824 5.59281V3.33929H8.1858C8.11182 3.33929 7.99516 3.45026 7.98947 3.51001V8.79384H14.4541C15.8114 8.79384 16.9125 9.90068 16.9125 11.2579V15.415C16.9125 16.7722 15.8085 17.8791 14.4541 17.8791H8.02362L7.98947 20.7016C7.98947 20.7529 8.09191 20.8638 8.1858 20.8638H20.5631V20.8667ZM3.22919 15.4178C3.22919 16.095 3.77835 16.647 4.45554 16.647H14.457C15.1342 16.647 15.6833 16.095 15.6833 15.4178V11.2608C15.6833 10.5836 15.1342 10.0316 14.457 10.0316H4.45554C3.77835 10.0316 3.22919 10.5836 3.22919 11.2608V15.4178ZM20.2416 7.84633L16.0617 3.80024V5.59281C16.0617 6.26147 16.2808 6.82485 16.6934 7.22605C17.1145 7.63293 17.7064 7.84633 18.412 7.84633H20.2416ZM21.9459 7.95446C21.9772 8.02844 21.9943 8.11095 21.9943 8.19631V20.696C21.9943 21.4585 21.3399 22.1016 20.5631 22.1016H8.18865C7.42609 22.1016 6.76028 21.4443 6.76028 20.696L6.79442 17.8791H4.45839C3.104 17.8791 2 16.7722 2 15.415V11.2579C2 9.90068 3.104 8.79384 4.45839 8.79384H6.76028V3.50717C6.76028 2.77022 7.44032 2.10156 8.18865 2.10156H15.7203C15.9536 2.10156 16.1841 2.19546 16.3491 2.35764L21.724 7.5618C21.8378 7.67277 21.9033 7.80935 21.9459 7.95446Z" fill="#86888C"/>
<path d="M4.30225 11.5335H4.9766L6.16311 13.6306L7.38661 11.5335H8.04389V15.2866H7.26142V13.1241L6.48179 14.4301H5.82451L5.02212 13.1013V15.2866H4.30225V11.5335ZM8.86051 11.5335H10.1495C10.7356 11.5335 11.1083 11.6161 11.3502 11.8408C11.5522 12.0286 11.6518 12.3189 11.6518 12.72C11.6518 13.1212 11.5579 13.4229 11.373 13.6306C11.1539 13.8781 10.8124 13.9919 10.3202 13.9919H9.71696V15.2866H8.86051V11.5335ZM10.1409 13.3489C10.4141 13.3489 10.5307 13.309 10.6389 13.2066C10.7384 13.107 10.7868 12.9477 10.7868 12.7286C10.7868 12.5266 10.7441 12.3786 10.6445 12.2847C10.5393 12.1908 10.3799 12.1538 10.1182 12.1538H9.71696V13.3517H10.1409V13.3489ZM12.3375 15.2752V14.6833C12.5566 14.7232 12.8155 14.7488 13.0887 14.7488C13.396 14.7488 13.5781 14.709 13.709 14.6236C13.8399 14.5354 13.911 14.3931 13.911 14.1911C13.911 13.9948 13.8399 13.861 13.7232 13.7785C13.5866 13.6789 13.3761 13.6476 12.992 13.6476H12.8867V13.0985H13.0176C13.3619 13.0985 13.5383 13.0558 13.672 12.9391C13.7602 12.8623 13.82 12.7371 13.82 12.555C13.82 12.4128 13.7801 12.2904 13.6948 12.2136C13.5838 12.114 13.3988 12.0713 13.1029 12.0713C12.8611 12.0713 12.5879 12.0941 12.3688 12.1254V11.5449C12.6221 11.4909 12.9407 11.4624 13.231 11.4624C13.7033 11.4624 14.1045 11.5734 14.335 11.8038C14.4943 11.9632 14.5939 12.1823 14.5939 12.4953C14.5939 12.8851 14.4232 13.1582 14.096 13.3233C14.4915 13.4655 14.7276 13.7614 14.7276 14.2509C14.7276 14.5411 14.6394 14.7943 14.463 14.9764C14.2155 15.2353 13.8143 15.3662 13.2452 15.3662C12.918 15.3634 12.5879 15.3292 12.3375 15.2752Z" fill="#86888C"/>
</svg>
