<svg width="28" height="28" viewBox="0 0 28 28" fill="none" xmlns="http://www.w3.org/2000/svg">
<path fill-rule="evenodd" clip-rule="evenodd" d="M24.2791 24.6197C24.3986 24.6197 24.5147 24.5036 24.5147 24.4148V10.4771H21.6944C20.4584 10.4771 19.3931 10.0742 18.6078 9.31624C17.8156 8.548 17.3956 7.50318 17.3956 6.29106V3.58684H9.42979C9.34102 3.58684 9.20102 3.72 9.1942 3.7917V10.1323H16.9518C18.5805 10.1323 19.9018 11.4605 19.9018 13.0892V18.0777C19.9018 19.7063 18.5805 21.0346 16.9518 21.0346H9.23517L9.1942 24.4217C9.1942 24.4831 9.31712 24.6163 9.42979 24.6163H24.2791V24.6197ZM3.47845 18.0811C3.47845 18.8937 4.13743 19.5561 4.95006 19.5561H16.9518C17.7644 19.5561 18.4234 18.8937 18.4234 18.0811V13.0926C18.4234 12.28 17.7644 11.6176 16.9518 11.6176H4.95006C4.13743 11.6176 3.47845 12.28 3.47845 13.0926V18.0811ZM23.8967 8.99529L18.8809 4.13656V6.28765C18.8809 7.09004 19.1438 7.7661 19.6389 8.24753C20.1443 8.73579 20.8545 8.99187 21.6978 8.99187H23.8967V8.99529ZM25.9385 9.12504C25.9761 9.21381 25.9966 9.31283 25.9966 9.41526V24.4148C25.9966 25.3299 25.2113 26.1016 24.2791 26.1016H9.42979C8.51473 26.1016 7.71233 25.3128 7.71233 24.4148L7.75331 21.0346H4.95006C3.3248 21.0346 2 19.7063 2 18.0777V13.0892C2 11.4605 3.3248 10.1323 4.95006 10.1323H7.71233V3.78829C7.71233 2.90395 8.5318 2.10156 9.42979 2.10156H18.4678C18.7478 2.10156 19.0107 2.20741 19.2121 2.39862L25.6722 8.65385C25.8054 8.78359 25.8839 8.9509 25.9385 9.12504Z" fill="#86888C"/>
<path d="M4.55071 17.634L4.48584 16.9443C4.6668 16.9784 4.86826 16.9921 4.95362 16.9921C5.33603 16.9921 5.45554 16.8896 5.45554 16.4492V13.6493H6.35695V16.4697C6.35695 16.9613 6.275 17.2277 6.07355 17.4291C5.89258 17.6032 5.60577 17.6852 5.15848 17.6852C4.96386 17.6852 4.83411 17.6715 4.55071 17.634ZM7.19689 13.6493H8.55584C9.17385 13.6493 9.56651 13.7347 9.82259 13.9737C10.0377 14.1717 10.1401 14.4756 10.1401 14.899C10.1401 15.3224 10.0411 15.6399 9.84649 15.8585C9.61431 16.118 9.25579 16.2409 8.7368 16.2409H8.10172V17.6067H7.20031V13.6493H7.19689ZM8.54218 15.5614C8.8324 15.5614 8.95191 15.5204 9.068 15.4112C9.17043 15.3087 9.22506 15.138 9.22506 14.9093C9.22506 14.6942 9.17726 14.5405 9.07483 14.4415C8.96557 14.3425 8.79826 14.3015 8.51828 14.3015H8.09489V15.5614H8.54218ZM10.7752 13.6493H13.4453L13.377 14.3015H11.6766V15.2609H13.0356V15.937H11.6766V16.9477H13.476V17.5998H10.7752V13.6493ZM13.9814 15.6502C13.9814 14.4142 14.6335 13.5742 15.9822 13.5742C16.3749 13.5742 16.8426 13.6562 17.0987 13.7654L16.9826 14.4244C16.6992 14.3425 16.3578 14.281 16.0471 14.281C15.2481 14.281 14.9203 14.7556 14.9203 15.616C14.9203 16.0599 14.9784 16.4253 15.1525 16.6677C15.2959 16.8691 15.5349 16.9852 15.9173 16.9852C16.0607 16.9852 16.2588 16.9682 16.3988 16.9443V16.1111H15.8422V15.4624H17.2934V17.4803C16.9178 17.5964 16.3168 17.6818 15.8832 17.6818C14.4628 17.6852 13.9814 16.9033 13.9814 15.6502Z" fill="#86888C"/>
</svg>
