<svg width="28" height="28" viewBox="0 0 28 28" fill="none" xmlns="http://www.w3.org/2000/svg">
<path fill-rule="evenodd" clip-rule="evenodd" d="M23.9835 24.6161C24.103 24.6161 24.2191 24.5 24.2191 24.4112V10.4749H21.3984C20.1622 10.4749 19.0967 10.072 18.3113 9.31044C17.519 8.5455 17.099 7.49712 17.099 6.28483V3.58363H9.13202C9.04665 3.58363 8.90322 3.72023 8.89639 3.79194V10.1334H16.6551C18.284 10.1368 19.6056 11.4584 19.6056 13.0907V18.0799C19.6056 19.7123 18.284 21.0338 16.6551 21.0372H8.93737L8.89639 24.4248C8.89639 24.4863 9.01591 24.6195 9.13202 24.6195H23.9835V24.6161ZM3.18324 18.0799C3.18324 18.8927 3.84232 19.5552 4.65507 19.5552H16.6551C17.4678 19.5552 18.1269 18.8927 18.1269 18.0799V13.0907C18.1269 12.278 17.4678 11.6155 16.6551 11.6155H4.65507C3.84232 11.6155 3.18324 12.2746 3.18324 13.0907V18.0799ZM23.5976 8.99285L18.5811 4.13685V6.28824C18.5811 7.09075 18.844 7.7669 19.3426 8.2484C19.848 8.73674 20.5583 8.99285 21.4018 8.99285H23.5976ZM25.6431 9.12262C25.6807 9.21141 25.7012 9.31044 25.7012 9.41289V24.4146C25.7012 25.3298 24.9157 26.1016 23.9835 26.1016H9.13202C8.21682 26.1016 7.41773 25.3127 7.41773 24.4146L7.45871 21.0372H4.65507C3.02274 21.0338 1.70117 19.7088 1.70117 18.0799V13.0907C1.70117 11.4584 3.02274 10.1368 4.65166 10.1334H7.41432V3.78853C7.41432 2.90407 8.2339 2.10156 9.1286 2.10156H18.1679C18.4513 2.10156 18.7143 2.20742 18.9157 2.40207L25.3733 8.65136C25.5134 8.78454 25.5919 8.94846 25.6431 9.12262Z" fill="#86888C"/>
<path d="M6.82971 13.5205H7.96004L9.58213 18.0111H8.48594L8.1103 16.8808H6.65213L6.30381 18.0111H5.32373L6.82971 13.5205ZM7.86101 16.1397L7.36926 14.644H7.3556L6.88776 16.1397H7.86101ZM9.41821 13.5205H10.5144L11.5662 16.7783L12.5463 13.5205H13.5434L12.0511 18.0111H10.9822L9.41821 13.5205ZM14.124 13.5205H15.1484V18.0111H14.124V13.5205Z" fill="#86888C"/>
</svg>
