<svg width="40" height="40" viewBox="0 0 40 40" fill="none" xmlns="http://www.w3.org/2000/svg">
<path fill-rule="evenodd" clip-rule="evenodd" d="M31.1707 35.7769C31.3449 35.7769 31.519 35.6027 31.519 35.4696V14.56H27.3546C25.531 14.56 23.9533 13.9556 22.7957 12.8184C21.6226 11.6659 21.0079 10.0985 21.0079 8.28002V4.22311H9.24187C9.10868 4.22311 8.90379 4.42288 8.89355 4.53045V35.4696C8.89355 35.5771 9.07283 35.7769 9.24187 35.7769H31.1707ZM30.597 12.3369L23.1901 5.04781V8.2749C23.1901 9.47866 23.5794 10.4929 24.3119 11.2151C25.0546 11.9476 26.1047 12.3318 27.3546 12.3318H30.597V12.3369ZM33.6141 12.5316C33.6704 12.6648 33.7012 12.8133 33.7012 12.967V35.4696C33.7012 36.8423 32.5384 38 31.1656 38H9.23674C7.88956 38 6.70117 36.8167 6.70117 35.4696V4.53045C6.70117 3.20376 7.91005 2 9.23674 2H22.5856C23.0057 2 23.395 2.15879 23.6921 2.45589L33.2248 11.8298C33.4246 12.0194 33.5373 12.2703 33.6141 12.5316ZM27.8975 31.9505V18.0842L12.5099 18.0586V31.93L27.8975 31.9505ZM27.9231 16.1326C28.9169 16.1326 29.7928 16.9317 29.7928 17.8435V32.1656C29.7928 33.0774 28.9169 33.8765 27.9231 33.8765H12.4894C11.4752 33.8765 10.6198 33.0928 10.6198 32.1656V17.8435C10.6198 16.9163 11.4803 16.1326 12.4894 16.1326H27.9231ZM15.8344 24.1952C14.9687 24.1952 14.2618 23.4781 14.2618 22.597C14.2618 21.716 14.9636 20.9989 15.8344 20.9989C16.7 20.9989 17.4018 21.716 17.4018 22.597C17.4018 23.4781 16.7 24.1952 15.8344 24.1952ZM14.4513 30.5213C14.1798 30.5213 13.9083 30.4035 13.7239 30.173C13.391 29.7632 13.4473 29.1588 13.8469 28.8156L18.3136 25.0302C18.6824 24.7228 19.2202 24.7382 19.5686 25.0711L20.0603 25.5424L22.9135 23.2322C23.2515 22.9556 23.733 22.9505 24.0762 23.222L26.8218 25.3631C27.2367 25.6858 27.3187 26.2903 27.0011 26.7154C26.6835 27.1406 26.0842 27.2174 25.6744 26.8947L23.5128 25.2146L21.4536 26.8793L22.7649 28.1343C23.1491 28.498 23.1645 29.1076 22.8059 29.4969C22.4473 29.881 21.848 29.9015 21.469 29.5378L18.8873 27.0637L15.066 30.3011C14.8816 30.4496 14.6665 30.5213 14.4513 30.5213Z" fill="#86888C"/>
</svg>
