<svg width="28" height="28" viewBox="0 0 28 28" fill="none" xmlns="http://www.w3.org/2000/svg">
<path fill-rule="evenodd" clip-rule="evenodd" d="M24.2825 24.5181C24.402 24.5181 24.5181 24.402 24.5181 24.3133V10.3756H21.6978C20.4618 10.3756 19.3931 9.97268 18.6112 9.21468C17.819 8.44644 17.3991 7.40162 17.3991 6.1895V3.48528H9.43321C9.34443 3.48528 9.20444 3.61844 9.19761 3.69014V10.0307H16.9552C18.5839 10.0307 19.9052 11.3589 19.9052 12.9876V17.9795C19.9052 19.6082 18.5805 20.933 16.9552 20.933H9.23858L9.19761 24.3201C9.19761 24.3816 9.32053 24.5147 9.43321 24.5147H24.2825V24.5181ZM3.48186 17.9795C3.48186 18.7921 4.14085 19.4511 4.95348 19.4511H16.9552C17.7678 19.4511 18.4268 18.7887 18.4268 17.9795V12.9876C18.4268 12.175 17.7678 11.5126 16.9552 11.5126H4.95348C4.14085 11.5126 3.48186 12.175 3.48186 12.9876V17.9795ZM23.8967 8.89373L18.8809 4.035V6.18609C18.8809 6.98506 19.1438 7.66453 19.6389 8.14597C20.1443 8.63423 20.8545 8.89031 21.6978 8.89031H23.8967V8.89373ZM25.942 9.02347C25.9795 9.11225 26 9.21127 26 9.3137V24.3133C26 25.2283 25.2147 26 24.2825 26H9.43321C8.51814 26 7.71575 25.2113 7.71575 24.3133L7.75672 20.933H4.95006C3.3248 20.933 2 19.6082 2 17.9795V12.9876C2 11.3589 3.3248 10.0307 4.95006 10.0307H7.71233V3.68673C7.71233 2.80239 8.52838 2 9.42979 2H18.4678C18.7512 2 19.0175 2.10585 19.2155 2.30388L25.6722 8.55228C25.8122 8.68545 25.8907 8.84934 25.942 9.02347Z" fill="#86888C"/>
<path d="M4.83398 13.3461H6.37389C7.07385 13.3461 7.52114 13.4451 7.80795 13.7114C8.05037 13.9334 8.16988 14.2817 8.16988 14.7597C8.16988 15.2377 8.0572 15.5996 7.83527 15.8489C7.57235 16.1425 7.16604 16.2825 6.57876 16.2825H5.85831V17.8292H4.83398V13.3461ZM6.36023 15.5143C6.68802 15.5143 6.8246 15.4699 6.95776 15.3435C7.07726 15.224 7.13531 15.0362 7.13531 14.7733C7.13531 14.5309 7.08409 14.3534 6.96459 14.2441C6.84167 14.1314 6.65046 14.087 6.33633 14.087H5.85831V15.5143H6.36023ZM8.89032 13.3461H9.64491L11.7687 16.2142V13.3461H12.6667V17.8258H11.8472L9.78832 15.1079V17.8258H8.89032V13.3461ZM13.4452 15.6133C13.4452 14.21 14.1861 13.2607 15.7123 13.2607C16.1562 13.2607 16.6889 13.3529 16.9757 13.4759L16.8459 14.2236C16.525 14.1314 16.1392 14.0597 15.784 14.0597C14.8792 14.0597 14.5071 14.5958 14.5071 15.5723C14.5071 16.0776 14.5719 16.4908 14.77 16.7639C14.9339 16.9927 15.2036 17.1259 15.6338 17.1259C15.7977 17.1259 16.0196 17.1054 16.1767 17.0815V16.1391H15.5485V15.405H17.1942V17.6927C16.7674 17.8224 16.0879 17.9214 15.5963 17.9214C13.9881 17.918 13.4452 17.0337 13.4452 15.6133Z" fill="#86888C"/>
</svg>
