<svg width="28" height="28" viewBox="0 0 28 28" fill="none" xmlns="http://www.w3.org/2000/svg">
<path fill-rule="evenodd" clip-rule="evenodd" d="M24.2791 24.5181C24.3986 24.5181 24.5147 24.402 24.5147 24.3133V10.3756H21.6978C20.4618 10.3756 19.3931 9.97268 18.6078 9.21468C17.8156 8.44985 17.3956 7.40162 17.3956 6.1895V3.48528H9.42979C9.34102 3.48528 9.20102 3.61844 9.1942 3.69014V10.0307H16.9518C18.5805 10.0307 19.9018 11.3589 19.9018 12.9876V17.9795C19.9018 19.6082 18.577 20.9364 16.9518 20.9364H9.23517L9.1942 24.3235C9.1942 24.385 9.31712 24.5181 9.42979 24.5181H24.2791ZM3.47845 17.9795C3.47845 18.7921 4.13743 19.4545 4.95006 19.4545H16.9518C17.7644 19.4545 18.4234 18.7921 18.4234 17.9795V12.9876C18.4234 12.175 17.7644 11.5126 16.9518 11.5126H4.95006C4.13743 11.5126 3.47845 12.175 3.47845 12.9876V17.9795ZM23.8933 8.89373L18.8775 4.035V6.18609C18.8775 6.98848 19.1404 7.66453 19.6355 8.14597C20.1408 8.63423 20.851 8.89031 21.6978 8.89031H23.8933V8.89373ZM25.9385 9.02347C25.9761 9.11225 25.9966 9.21127 25.9966 9.3137V24.3133C25.9966 25.2283 25.2113 26 24.2791 26H9.42979C8.51473 26 7.71233 25.2113 7.71233 24.3133L7.75331 20.9364H4.95006C3.3248 20.9364 2 19.6082 2 17.9795V12.9876C2 11.3589 3.3248 10.0307 4.95006 10.0307H7.71233V3.68673C7.71233 2.80239 8.5318 2 9.42979 2H18.4678C18.7478 2 19.0107 2.10585 19.2121 2.29706L25.6722 8.55228C25.8054 8.68203 25.8839 8.84934 25.9385 9.02347Z" fill="#86888C"/>
<path d="M5.24414 13.3018H6.79429C7.50108 13.3018 7.94837 13.4008 8.23859 13.6705C8.48443 13.8959 8.60052 14.2441 8.60052 14.7256C8.60052 15.207 8.48785 15.5724 8.26249 15.8216C7.99958 16.1187 7.58985 16.2587 6.99574 16.2587H6.26847V17.8156H5.24414V13.3018ZM6.78063 15.487C7.11183 15.487 7.24841 15.4392 7.38157 15.3163C7.50108 15.1968 7.55912 15.0056 7.55912 14.7426C7.55912 14.5002 7.50791 14.3193 7.3884 14.2066C7.26207 14.0939 7.07086 14.0495 6.75332 14.0495H6.27188V15.4904H6.78063V15.487ZM9.33462 13.3018H10.7277C11.5847 13.3018 12.1549 13.4349 12.5305 13.8105C12.8925 14.1656 13.0802 14.729 13.0802 15.5416C13.0802 16.3611 12.9027 16.9279 12.5305 17.3103C12.1925 17.6552 11.6735 17.819 10.8677 17.819H9.33462V13.3018ZM10.7994 17.0679C11.2604 17.0679 11.5916 16.9279 11.7691 16.665C11.9467 16.4021 12.0081 16.0982 12.0081 15.5416C12.0081 14.8929 11.9091 14.589 11.6906 14.3534C11.4857 14.1349 11.1818 14.0563 10.6799 14.0563H10.3624V17.0679H10.7994ZM13.8656 13.3018H16.8429L16.7644 14.0461H14.8967V15.1421H16.3752V15.9138H14.8967V17.8156H13.8656V13.3018Z" fill="#86888C"/>
</svg>
