<svg width="24" height="24" viewBox="0 0 24 24" fill="none" xmlns="http://www.w3.org/2000/svg">
<path fill-rule="evenodd" clip-rule="evenodd" d="M20.5659 20.9682C20.6655 20.9682 20.7623 20.8715 20.7623 20.7975V9.18278H18.412C17.382 9.18278 16.4914 8.84703 15.837 8.21536C15.1768 7.578 14.8297 6.70732 14.8297 5.69438V3.44085H8.19149C8.11751 3.44085 8.00085 3.55182 7.99516 3.61158V8.8954H14.4598C15.817 8.8954 16.9182 10.0022 16.9182 11.3595V15.5194C16.9182 16.8766 15.8142 17.9835 14.4598 17.9835H8.02931L7.99516 20.8061C7.99516 20.8573 8.0976 20.9682 8.19149 20.9682H20.5659ZM3.23204 15.5194C3.23204 16.1966 3.78119 16.7486 4.45839 16.7486H14.4598C15.137 16.7486 15.6862 16.1966 15.6862 15.5194V11.3595C15.6862 10.6823 15.137 10.1303 14.4598 10.1303H4.45839C3.78119 10.1303 3.23204 10.6823 3.23204 11.3595V15.5194ZM20.2444 7.9479L16.0646 3.9018V5.69438C16.0646 6.36303 16.2837 6.92641 16.6963 7.32761C17.1174 7.7345 17.7092 7.9479 18.4149 7.9479H20.2444ZM21.9488 8.05602C21.9801 8.13 21.9972 8.21252 21.9972 8.29788V20.7975C21.9972 21.5601 21.3427 22.2031 20.5659 22.2031H8.19149C7.42894 22.2031 6.76028 21.5458 6.76028 20.7975L6.79442 17.9806H4.45839C3.104 17.9806 2 16.8738 2 15.5165V11.3566C2 9.9994 3.104 8.89256 4.45839 8.89256H6.76028V3.60873C6.76028 2.87178 7.44316 2.20312 8.19149 2.20312H15.7231C15.9593 2.20312 16.1813 2.29133 16.3463 2.45636L21.7268 7.66336C21.8407 7.77433 21.9061 7.91375 21.9488 8.05602Z" fill="#86888C"/>
<path d="M5.26393 14.9105C4.9481 14.5719 4.81152 14.0882 4.81152 13.4423C4.81152 12.2786 5.33791 11.4961 6.61263 11.4961C6.93416 11.4961 7.34673 11.5672 7.58574 11.664L7.47762 12.2843C7.19024 12.2017 6.9114 12.1534 6.67808 12.1534C5.87853 12.1534 5.69358 12.6798 5.69358 13.4196C5.69358 13.8606 5.7761 14.2305 5.96105 14.4353C6.12323 14.6203 6.3594 14.7028 6.77766 14.7028C6.95692 14.7028 7.2443 14.6687 7.46339 14.626L7.5516 15.2463C7.32966 15.3117 6.91993 15.3601 6.61548 15.3601C5.95536 15.3601 5.54278 15.2036 5.26393 14.9105ZM8.041 15.1694L8.17189 14.5236C8.4991 14.6374 8.92875 14.7085 9.19906 14.7085C9.69984 14.7085 9.93316 14.5776 9.93316 14.2362C9.93316 13.5391 8.03531 14.0455 8.03531 12.583C8.03531 11.8262 8.62714 11.4961 9.421 11.4961C9.77951 11.4961 10.1722 11.5502 10.4596 11.6497L10.3287 12.2814C10.0242 12.1989 9.697 12.1505 9.43523 12.1505C8.97712 12.1505 8.83201 12.3127 8.83201 12.5489C8.83201 13.2773 10.7299 12.7765 10.7299 14.2305C10.7299 14.5634 10.616 14.828 10.4197 15.013C10.1579 15.2577 9.80512 15.3658 9.27304 15.3658C8.80071 15.3601 8.41659 15.3003 8.041 15.1694ZM11.2506 15.1694L11.3814 14.5236C11.7087 14.6374 12.1383 14.7085 12.4086 14.7085C12.9094 14.7085 13.1427 14.5776 13.1427 14.2362C13.1427 13.5391 11.2449 14.0455 11.2449 12.583C11.2449 11.8262 11.8367 11.4961 12.6306 11.4961C12.9891 11.4961 13.3817 11.5502 13.6691 11.6497L13.5382 12.2814C13.2338 12.1989 12.9066 12.1505 12.6448 12.1505C12.1867 12.1505 12.0416 12.3127 12.0416 12.5489C12.0416 13.2773 13.9394 12.7765 13.9394 14.2305C13.9394 14.5634 13.8256 14.828 13.6293 15.013C13.3675 15.2577 13.0147 15.3658 12.4826 15.3658C12.0131 15.3601 11.6261 15.3003 11.2506 15.1694Z" fill="#86888C"/>
</svg>
