<svg width="20" height="20" viewBox="0 0 20 20" fill="none" xmlns="http://www.w3.org/2000/svg">
<path fill-rule="evenodd" clip-rule="evenodd" d="M14.5765 17.012C14.6539 17.012 14.7313 16.9345 14.7313 16.8754V7.58224H12.8805C12.07 7.58224 11.3688 7.3136 10.8543 6.8082C10.3329 6.29596 10.0597 5.59932 10.0597 4.79112V2.98805H4.83037C4.77118 2.98805 4.68011 3.07684 4.67556 3.12464V16.8754C4.67556 16.9232 4.75524 17.012 4.83037 17.012H14.5765ZM14.3215 6.59419L11.0296 3.35458V4.78884C11.0296 5.32385 11.2026 5.77462 11.5281 6.09562C11.8583 6.42117 12.325 6.59192 12.8805 6.59192H14.3215V6.59419ZM15.6625 6.68071C15.6875 6.7399 15.7012 6.80592 15.7012 6.87422V16.8754C15.7012 17.4855 15.1844 18 14.5743 18H4.82809C4.22934 18 3.70117 17.4741 3.70117 16.8754V3.12464C3.70117 2.535 4.23845 2 4.82809 2H10.7609C10.9476 2 11.1206 2.07057 11.2527 2.20262L15.4894 6.36881C15.5782 6.45304 15.6283 6.5646 15.6625 6.68071ZM13.1218 15.3113V9.14855L6.28285 9.13717V15.3022L13.1218 15.3113ZM13.1332 8.28116C13.5748 8.28116 13.9641 8.63631 13.9641 9.04155V15.4069C13.9641 15.8122 13.5748 16.1673 13.1332 16.1673H6.27374C5.82297 16.1673 5.44278 15.819 5.44278 15.4069V9.04155C5.44278 8.62948 5.82525 8.28116 6.27374 8.28116H13.1332ZM7.76036 11.8645C7.37562 11.8645 7.06144 11.5458 7.06144 11.1542C7.06144 10.7627 7.37334 10.4439 7.76036 10.4439C8.14511 10.4439 8.45701 10.7627 8.45701 11.1542C8.45701 11.5458 8.14511 11.8645 7.76036 11.8645ZM7.14568 14.6762C7.02502 14.6762 6.90436 14.6238 6.8224 14.5213C6.67442 14.3392 6.69946 14.0706 6.87704 13.918L8.86224 12.2356C9.02616 12.099 9.2652 12.1059 9.42001 12.2538L9.63856 12.4633L10.9066 11.4365C11.0569 11.3136 11.2709 11.3113 11.4234 11.432L12.6437 12.3836C12.8281 12.527 12.8645 12.7957 12.7234 12.9846C12.5822 13.1736 12.3159 13.2077 12.1337 13.0643L11.173 12.3176L10.2578 13.0575L10.8406 13.6153C11.0114 13.7769 11.0182 14.0478 10.8588 14.2208C10.6995 14.3916 10.4331 14.4007 10.2646 14.239L9.11722 13.1394L7.41887 14.5783C7.33691 14.6443 7.2413 14.6762 7.14568 14.6762Z" fill="#86888C"/>
</svg>
