<svg width="20" height="20" viewBox="0 0 20 20" fill="none" xmlns="http://www.w3.org/2000/svg">
<path fill-rule="evenodd" clip-rule="evenodd" d="M10.8587 12.675C10.8587 13.1098 10.5354 13.44 10.1188 13.44C9.69076 13.44 9.36748 13.1098 9.36748 12.6887V12.675C9.36748 12.2538 9.69076 11.9169 10.1119 11.9169C10.5354 11.9192 10.8587 12.2538 10.8587 12.675ZM15.2684 16.8799V7.58224H13.4221C12.6071 7.58224 11.9059 7.31816 11.3959 6.81047C10.87 6.29596 10.5991 5.59704 10.5991 4.78657V2.98805H5.36748C5.30829 2.98805 5.21722 3.07456 5.21267 3.12692V7.71429L5.24682 14.2049L5.21267 16.8867C5.21267 16.9254 5.29007 17.012 5.36748 17.012H15.1136C15.1979 17.012 15.2684 16.9391 15.2684 16.8799ZM11.5712 3.35686V4.78657C11.5712 5.3284 11.7397 5.77462 12.0698 6.09789C12.3999 6.42117 12.8666 6.59192 13.4244 6.59192H14.8609L11.5712 3.35686ZM16.1996 6.67843C16.2246 6.73762 16.2383 6.80364 16.2383 6.87649V16.8799C16.2383 17.4855 15.726 18 15.1114 18H5.3652C4.76873 18 4.23828 17.4787 4.23828 16.8799L4.27243 14.1981L4.23828 7.71429V3.12009C4.23828 2.53273 4.77556 2 5.3652 2H11.298C11.4847 2 11.6669 2.07285 11.7966 2.20489L16.0311 6.36881C16.1153 6.45532 16.1677 6.56005 16.1996 6.67843ZM13.3834 12.675C13.3834 13.1098 13.0601 13.44 12.6458 13.44C12.2178 13.44 11.8945 13.1098 11.8945 12.6887V12.675C11.8945 12.2538 12.2178 11.9169 12.639 11.9169C13.0601 11.9192 13.3834 12.2538 13.3834 12.675ZM8.33162 12.675C8.33162 13.1098 8.00834 13.44 7.58717 13.44C7.166 13.44 6.84272 13.1098 6.84272 12.6887V12.675C6.84272 12.2538 7.166 11.9169 7.58034 11.9169C8.00834 11.9192 8.33162 12.2538 8.33162 12.675Z" fill="#86888C"/>
</svg>
