<svg width="24" height="24" viewBox="0 0 24 24" fill="none" xmlns="http://www.w3.org/2000/svg">
<path fill-rule="evenodd" clip-rule="evenodd" d="M20.6703 20.7651C20.7699 20.7651 20.8667 20.6684 20.8667 20.5944V8.97966H18.5164C17.4864 8.97966 16.5958 8.6439 15.9442 8.01224C15.2841 7.37203 14.9341 6.50135 14.9341 5.49125V3.23773H8.2959C8.22192 3.23773 8.10526 3.3487 8.09957 3.40845V8.69228H14.5642C15.9215 8.69228 17.0226 9.79912 17.0226 11.1564V15.3134C17.0226 16.6707 15.9186 17.7775 14.5642 17.7775H8.13372L8.09957 20.6001C8.09957 20.6513 8.202 20.7623 8.2959 20.7623H20.6703V20.7651ZM3.33645 15.3163C3.33645 15.9935 3.8856 16.5455 4.56279 16.5455H14.5642C15.2414 16.5455 15.7906 15.9935 15.7906 15.3163V11.1592C15.7906 10.482 15.2414 9.93001 14.5642 9.93001H4.56279C3.8856 9.93001 3.33645 10.482 3.33645 11.1592V15.3163ZM20.3488 7.74477L16.169 3.69583V5.48841C16.169 6.15422 16.3881 6.72044 16.8007 7.12164C17.2218 7.52852 17.8136 7.74193 18.5164 7.74193H20.3488V7.74477ZM22.0532 7.8529C22.0845 7.92688 22.1016 8.00939 22.1016 8.09475V20.5944C22.1016 21.357 21.4471 22 20.6703 22H8.2959C7.53335 22 6.86469 21.3427 6.86469 20.5944L6.89883 17.7775H4.55995C3.20556 17.7775 2.10156 16.6707 2.10156 15.3134V11.1564C2.10156 9.79912 3.20556 8.69228 4.55995 8.69228H6.86184V3.40561C6.86184 2.66866 7.54188 2 8.29306 2H15.8247C16.0609 2 16.2828 2.08821 16.4478 2.25324L21.8284 7.46024C21.9451 7.57121 22.0105 7.70778 22.0532 7.8529Z" fill="#86888C"/>
<path d="M4.83594 11.4551H6.15049C6.75086 11.4551 7.12929 11.5376 7.37684 11.7681C7.58455 11.9587 7.68414 12.2546 7.68414 12.6644C7.68414 13.0741 7.59024 13.3814 7.3996 13.5948C7.17482 13.848 6.82769 13.9647 6.32406 13.9647H5.70946V15.2849H4.83594V11.4551ZM6.13911 13.3074C6.41796 13.3074 6.53746 13.2676 6.64843 13.1623C6.74802 13.0627 6.79923 12.9005 6.79923 12.6757C6.79923 12.468 6.75371 12.3172 6.65412 12.2233C6.54884 12.1294 6.38666 12.0896 6.11635 12.0896H5.70662V13.3102H6.13911V13.3074ZM8.30443 11.4551H9.61898C10.2193 11.4551 10.5978 11.5376 10.8453 11.7681C11.053 11.9587 11.1526 12.2546 11.1526 12.6644C11.1526 13.0741 11.0587 13.3814 10.8681 13.5948C10.6433 13.848 10.2962 13.9647 9.79255 13.9647H9.17795V15.2849H8.30443V11.4551ZM9.6076 13.3074C9.88644 13.3074 10.0059 13.2676 10.1169 13.1623C10.2165 13.0627 10.2677 12.9005 10.2677 12.6757C10.2677 12.468 10.2222 12.3172 10.1226 12.2233C10.0173 12.1294 9.85514 12.0896 9.58484 12.0896H9.1751V13.3102H9.6076V13.3074ZM12.6208 12.0867H11.4343V11.4551H14.7207L14.6524 12.0867H13.4944V15.2849H12.6208V12.0867Z" fill="#86888C"/>
</svg>
