<svg width="20" height="20" viewBox="0 0 20 20" fill="none" xmlns="http://www.w3.org/2000/svg">
<path fill-rule="evenodd" clip-rule="evenodd" d="M4.51468 3.62966C4.30721 3.95066 4.23881 4.34224 4.32545 4.71333C4.41208 5.08669 4.64235 5.40541 4.97293 5.61031C5.30578 5.81748 5.7002 5.8835 6.07865 5.79699C6.46167 5.71276 6.78541 5.48737 6.99744 5.16182C7.2049 4.83854 7.2733 4.45379 7.18666 4.07815C7.10003 3.70479 6.86748 3.38151 6.53919 3.18117C6.20861 2.97627 5.81191 2.91025 5.43346 2.99449C5.055 3.07644 4.72442 3.3041 4.51468 3.62966ZM2.51069 4.87496C2.24394 4.87724 2.0228 4.66324 2.02052 4.3946C2.02052 4.13051 2.23938 3.91651 2.51069 3.91651H3.36563C3.42263 3.63649 3.5275 3.36785 3.68709 3.11742C4.03591 2.57787 4.58763 2.19767 5.21687 2.06108C5.84839 1.91765 6.51183 2.0292 7.06127 2.3707C7.61527 2.70991 7.99829 3.24264 8.14192 3.86643C8.14648 3.88236 8.1442 3.90058 8.14648 3.91651H17.5098C17.7789 3.91651 18 4.13279 18 4.39688C18 4.66096 17.7811 4.87724 17.5098 4.87724H8.14876C8.09176 5.16182 7.98233 5.43046 7.82502 5.67405C7.4762 6.21589 6.9336 6.59153 6.29524 6.7304C5.66372 6.87383 5.00028 6.76227 4.45084 6.42078C3.90368 6.08612 3.5161 5.54884 3.37019 4.92505C3.36563 4.90911 3.36563 4.89318 3.36335 4.87496H2.51069ZM14.2154 10.9626C15.0248 10.9626 15.6837 10.3183 15.6837 9.52607C15.6837 8.73381 15.0248 8.08953 14.2154 8.08953C13.4061 8.08953 12.7472 8.73381 12.7472 9.52607C12.7472 10.3161 13.4061 10.9626 14.2154 10.9626ZM17.4916 9.04571C17.7629 9.04571 17.9818 9.25971 17.9818 9.52607C17.9818 9.79016 17.7629 10.0042 17.4916 10.0042H16.6116C16.3859 11.0947 15.3964 11.9188 14.2154 11.9188C13.0345 11.9188 12.0473 11.0947 11.8193 10.0042H2.49017C2.22343 10.0064 2.00228 9.79244 2 9.5238C2 9.25971 2.21887 9.04343 2.49017 9.04343H11.817C12.045 7.95294 13.0322 7.12881 14.2132 7.12881C15.3941 7.12881 16.3836 7.95294 16.6093 9.04343H17.4916V9.04571ZM7.94585 16.0782C8.7552 16.0782 9.41408 15.4339 9.41408 14.6416C9.41408 13.8494 8.7552 13.2051 7.94585 13.2051C7.13651 13.2051 6.47763 13.8494 6.47763 14.6416C6.47763 15.4339 7.13651 16.0782 7.94585 16.0782ZM17.4893 14.1635C17.7606 14.1635 17.9795 14.3775 17.9795 14.6439C17.9795 14.908 17.7606 15.1243 17.4893 15.1243H10.342C10.114 16.2147 9.12682 17.0389 7.94585 17.0389C6.76489 17.0389 5.77771 16.2147 5.54973 15.1243H2.49017C2.22343 15.1265 2.00228 14.9125 2 14.6439C2 14.3798 2.21887 14.1658 2.49017 14.1658H5.54973C5.77771 13.0753 6.76489 12.2512 7.94585 12.2512C9.12682 12.2512 10.114 13.0753 10.342 14.1658L17.4893 14.1635Z" fill="#86888C"/>
</svg>
