<svg width="20" height="20" viewBox="0 0 20 20" fill="none" xmlns="http://www.w3.org/2000/svg">
<path d="M16.4084 6.13076C16.2535 6.13076 16.1008 6.05557 16.0051 5.91886C15.2099 4.7614 13.9043 3.81127 12.5122 3.37608C10.4342 2.72672 8.17854 3.15051 6.32387 4.54038C5.81349 4.92089 5.31906 5.37658 4.85197 5.89835C4.67197 6.09886 4.3621 6.11709 4.16159 5.93481C3.96109 5.75481 3.94514 5.44494 4.12514 5.24443C4.63552 4.67481 5.18007 4.17583 5.74058 3.75659C7.85044 2.17761 10.4251 1.69913 12.8084 2.44191C14.4033 2.9409 15.9003 4.03228 16.8162 5.36291C16.9689 5.5862 16.9142 5.88924 16.6909 6.04418C16.6021 6.10114 16.5041 6.13076 16.4084 6.13076Z" fill="#86888C"/>
<path d="M11.6303 18.1C11.5916 18.1 11.5529 18.0954 11.5141 18.0863C10.2109 17.7719 8.87339 17.0815 7.74783 16.1473C6.42403 15.0468 5.34404 13.2993 4.85644 11.4765C4.29366 9.37572 4.58303 7.44358 5.66986 6.03548C7.03011 4.27194 9.44301 3.43118 11.6759 3.94156C11.8286 3.96663 12.6374 4.12156 13.5374 4.69118C14.4351 5.2608 15.6108 6.36814 16.1098 8.42104C16.1486 8.56686 16.4539 9.78813 15.8022 10.6631C15.4012 11.2008 14.7541 11.481 13.8815 11.4924C13.7243 11.5061 13.1706 11.5152 12.6397 11.0937C12.1111 10.6699 11.7944 9.9704 11.7033 9.01344C11.6782 8.73775 11.5643 8.52357 11.3683 8.37319C11.0972 8.16585 10.6734 8.08611 10.2336 8.15902L10.2086 8.16357H10.1926C10.1653 8.16585 9.89643 8.20003 9.62985 8.36408C9.28807 8.5737 9.10352 8.89724 9.06934 9.35294C9.02605 9.91572 9.20149 10.8362 9.82579 11.7317C10.286 12.3924 11.145 13.256 12.6329 13.6182C12.8949 13.682 13.0567 13.9463 12.9929 14.2106C12.9291 14.4727 12.6648 14.6344 12.4005 14.5706C10.6164 14.1355 9.57972 13.0919 9.02149 12.2944C8.36757 11.3534 8.01896 10.2279 8.09188 9.28003C8.16934 8.28205 8.71618 7.76256 9.16276 7.50282C9.57744 7.2613 9.9739 7.20434 10.0855 7.19067C10.7919 7.07446 11.4754 7.22256 11.963 7.59623C12.3777 7.91522 12.6238 8.37319 12.6762 8.92003C12.74 9.59218 12.9382 10.0798 13.2481 10.3258C13.5124 10.5377 13.7881 10.5172 13.7903 10.5172L13.82 10.5127H13.8496C14.4124 10.5081 14.8043 10.36 15.0162 10.0775C15.342 9.6423 15.2303 8.90408 15.1643 8.67851L15.1597 8.658C14.3577 5.34282 11.5438 4.90991 11.5141 4.90536L11.4936 4.90308L11.4731 4.89852C9.60023 4.46561 7.5815 5.16282 6.44454 6.63244C5.5491 7.79218 5.32125 9.42129 5.80201 11.2213C6.23264 12.8322 7.21922 14.4294 8.37441 15.3909C9.38605 16.2317 10.5822 16.8514 11.7443 17.1316C12.0063 17.1954 12.1681 17.4597 12.1043 17.7218C12.0519 17.9496 11.8514 18.1 11.6303 18.1Z" fill="#86888C"/>
<path d="M12.168 16.4132C12.1247 16.4132 12.0814 16.4064 12.0358 16.395C9.93733 15.8117 8.03481 14.2965 7.07101 12.4373C6.31 10.9722 6.18696 9.41829 6.71329 7.94184C6.99354 7.10336 7.59278 6.39476 8.40164 5.94362C9.18999 5.50387 10.1219 5.33982 11.0287 5.47881C11.9424 5.62007 12.7968 6.06893 13.4325 6.74564C14.0978 7.45197 14.4578 8.34285 14.451 9.25196C14.4487 9.52082 14.23 9.73728 13.9611 9.73728H13.9566C13.6854 9.735 13.469 9.51399 13.4712 9.24285C13.4826 7.89855 12.3434 6.67045 10.8783 6.44488C9.44974 6.22615 8.05759 7.00311 7.64063 8.25627L7.63607 8.26538C7.20316 9.47981 7.30797 10.7671 7.93911 11.9861C8.76848 13.5856 10.4796 14.9459 12.2978 15.4517C12.5576 15.5246 12.7102 15.7935 12.6396 16.0532C12.5804 16.2697 12.3844 16.4132 12.168 16.4132Z" fill="#86888C"/>
<path d="M13.8133 13.1534C12.829 13.1534 11.9973 12.8823 11.3275 12.34C9.87836 11.1643 9.78494 9.16608 9.78267 9.08178C9.77127 8.81064 9.98317 8.58507 10.252 8.57368C10.5232 8.56229 10.7487 8.77419 10.7601 9.04305C10.7624 9.06811 10.8467 10.6972 11.9495 11.5858C12.6171 12.1235 13.5467 12.2944 14.7087 12.0962C14.9753 12.0506 15.2282 12.2284 15.2738 12.4949C15.3194 12.7615 15.1416 13.0144 14.8751 13.06C14.5037 13.1215 14.1505 13.1534 13.8133 13.1534Z" fill="#86888C"/>
</svg>
