<svg width="40" height="40" viewBox="0 0 40 40" fill="none" xmlns="http://www.w3.org/2000/svg">
<path fill-rule="evenodd" clip-rule="evenodd" d="M34.4677 35.28H28.5975V26.403L34.7751 26.4337V34.6244C34.7802 34.9829 34.5446 35.2544 34.4677 35.28ZM4.57872 32.9647C1.44383 28.9693 4.2765 22.4639 7.60091 19.7388C8.64588 18.8833 9.80866 18.1816 11.0073 17.6796C10.7409 20.0051 11.33 23.1707 14.5827 25.5424C15.0744 25.8907 15.5252 26.2851 15.9196 26.7052C16.8622 27.7092 17.3488 29 17.3027 30.3318C17.2515 31.6688 16.6675 32.9135 15.6584 33.8406C15.3818 34.0968 15.1001 34.3068 14.8183 34.4912C15.5303 31.9351 14.1985 28.8668 12.544 27.4069C11.6578 26.6283 10.5924 26.0495 9.55254 25.7832C9.14275 25.6756 8.72271 25.8139 8.44611 26.1315C8.1695 26.4439 8.09266 26.8947 8.24633 27.284C8.31292 27.4582 8.85589 28.9949 7.42675 30.1116C7.12453 30.3421 6.8428 30.6084 6.59693 30.8902C5.8337 31.7661 5.50587 32.8776 5.58782 33.9585C5.21389 33.6614 4.87069 33.3386 4.57872 32.9647ZM7.02721 4.23847H12.4467V12.1269L6.71987 12.1116V4.89414C6.71475 4.57143 6.96574 4.26921 7.02721 4.23847ZM34.7802 4.89926V12.1781L28.6026 12.1628V4.23335H34.4268C34.5292 4.27433 34.7802 4.57143 34.7802 4.89926ZM21.5594 24.1235V14.5088C21.5594 14.4627 21.5389 14.432 21.5338 14.3859L34.7802 14.4166V24.185L21.5594 24.1235ZM26.3744 26.3876V35.28H17.3488C18.6704 33.9687 19.4541 32.2629 19.5207 30.4189C19.5719 28.9744 19.1928 27.5709 18.4398 26.3517L26.3744 26.3876ZM14.6698 12.132V4.23847H26.3744V12.1628L14.6698 12.132ZM13.4353 15.2721C13.1638 14.9442 12.7335 14.8008 12.3237 14.8981C10.3977 15.3591 8.43586 16.3273 6.71987 17.6232V14.3552L19.3619 14.3859C19.3567 14.432 19.3363 14.4678 19.3363 14.5139V24.1133L16.8212 24.103H16.8161C16.688 24.103 16.5702 24.1338 16.4575 24.1747C16.268 24.0211 16.0836 23.8623 15.8838 23.724C11.8166 20.7581 13.5275 16.6141 13.6043 16.4451C13.7631 16.0507 13.7017 15.5999 13.4353 15.2721ZM10.2953 35.741C10.0289 35.7513 9.75743 35.7308 9.48082 35.6642C9.4757 35.6642 8.87638 35.5515 8.34366 35.0188C7.63677 34.317 7.59579 33.1338 8.25658 32.3756C8.4 32.2117 8.56904 32.0529 8.77394 31.8941C9.98282 30.9516 10.4643 29.7735 10.5821 28.7131C10.7512 28.831 10.9151 28.9641 11.0739 29.0973C12.3801 30.2499 13.4865 33.0928 12.334 34.6705C11.8678 35.3108 11.1251 35.6949 10.3158 35.741H10.2953ZM34.4677 2H7.02209C5.69539 2 4.48652 3.38304 4.48652 4.89926V19.7285C1.29016 23.5908 -0.610241 29.963 2.83199 34.3529C4.53262 36.5196 7.22186 37.8105 9.97769 37.9693C10.0392 37.9693 10.1058 37.9898 10.1672 37.9898C10.1928 37.9898 10.2133 37.9846 10.2389 37.9846C10.3414 37.9846 10.4438 38 10.5412 38C11.248 38 11.96 37.9232 12.6516 37.7644C12.6925 37.7593 13.1894 37.6773 13.8912 37.4365C14.0192 37.4878 14.1524 37.5185 14.2958 37.5185H34.4677C35.8405 37.5185 37.0033 36.1918 37.0033 34.6192V4.89926C37.0033 3.38304 35.7944 2 34.4677 2Z" fill="#86888C"/>
</svg>
