<svg width="40" height="40" viewBox="0 0 40 40" fill="none" xmlns="http://www.w3.org/2000/svg">
<path fill-rule="evenodd" clip-rule="evenodd" d="M30.4303 32.5036C29.4724 33.3847 28.3762 34.1018 27.1878 34.6294C29.7081 30.5724 27.3876 24.6867 24.4627 22.1101C23.1103 20.9166 21.4968 20.0406 19.9242 19.636C19.3351 19.4874 18.7358 19.8511 18.5923 20.4402C18.536 20.6707 18.5565 20.9115 18.6436 21.1266C18.6538 21.1573 19.9037 24.3076 17.0863 26.5154C16.6304 26.8638 16.2155 27.2531 15.8467 27.6782C14.3868 29.3635 13.9667 31.7199 14.7607 33.8047C13.5313 33.0568 12.4249 32.1245 11.5387 30.9925C6.22157 24.195 10.9394 13.2021 16.5229 8.61753C18.5718 6.92712 20.8923 5.61064 23.3921 4.71421C22.7671 7.77232 22.6083 13.5761 28.6272 17.9814C29.452 18.5705 30.2152 19.2364 30.8811 19.9536C32.5306 21.7157 33.386 23.9849 33.3041 26.3361C33.217 28.6874 32.1976 30.8747 30.4303 32.5036ZM19.8781 35.6232C19.8678 35.6232 18.7101 35.4183 17.6652 34.3835C16.236 32.9749 16.1643 30.6698 17.491 29.1433C17.7625 28.8308 18.075 28.5388 18.4233 28.2724C20.6464 26.5257 21.1945 24.2513 21.1126 22.4533C21.799 22.817 22.4393 23.2575 23.0233 23.7749C25.3028 25.7829 27.3159 30.7824 25.1593 33.7381C24.2783 34.9316 22.9106 35.6693 21.4302 35.7564C21.3636 35.7564 21.2919 35.7615 21.2253 35.7564C21.1075 35.7615 20.9845 35.7564 20.8616 35.7512C20.5645 35.7308 20.2776 35.6795 19.9856 35.6437C19.9549 35.6334 19.9139 35.6334 19.8781 35.6232ZM32.4793 18.4373C31.6956 17.6023 30.835 16.8493 29.9027 16.1834C22.8645 11.0405 25.8662 3.85364 25.9943 3.55141C26.1633 3.16722 26.1019 2.72157 25.8355 2.39885C25.5691 2.07614 25.144 1.93271 24.7393 2.03004C21.4199 2.8189 18.0084 4.55541 15.1347 6.91175C8.72133 12.1828 3.59374 24.4203 9.81754 32.3755C12.2814 35.5258 16.0977 37.4929 20.1035 37.9129C20.4415 37.959 20.7745 37.9949 21.1075 37.9949C21.1843 37.9949 21.256 37.9846 21.3277 37.9795C21.4558 37.9846 21.5838 38 21.7119 38C22.8235 38 23.9299 37.8822 25.021 37.6312C25.1696 37.6107 28.7041 37.0933 31.9056 34.1377C34.1083 32.1092 35.3838 29.3686 35.4913 26.4232C35.604 23.4727 34.5334 20.6348 32.4793 18.4373Z" fill="#86888C"/>
</svg>
