<svg width="40" height="40" viewBox="0 0 40 40" fill="none" xmlns="http://www.w3.org/2000/svg">
<path fill-rule="evenodd" clip-rule="evenodd" d="M36.2842 34.3255V12.9922C36.2842 12.758 36.0969 12.5707 35.8628 12.5707H4.70569C4.47154 12.5707 4.28423 12.758 4.28423 12.9922V34.3255C4.28423 34.5545 4.47154 34.7418 4.70569 34.7418H35.8576C36.0917 34.747 36.279 34.5597 36.2842 34.3255ZM13.7646 7.35707V10.3229H26.8091V7.35707C26.679 7.28943 26.5333 7.25301 26.3876 7.25821H14.186C14.0403 7.25301 13.8946 7.28423 13.7646 7.35707ZM35.8628 10.3229C37.3561 10.3229 38.5685 11.5197 38.5685 12.9974V34.3307C38.5685 35.8032 37.3561 37 35.8628 37H4.70569C3.21236 37 2 35.8032 2 34.3307V12.9922C2 11.5197 3.21236 10.3177 4.70569 10.3177H11.4751V7.2322C11.4751 5.98341 12.6615 5 14.1808 5H26.3772C27.8966 5 29.0881 5.98341 29.0881 7.2322V10.3229H35.8628ZM26.7883 24.814V22.4985H22.5997C21.9753 22.5037 21.4654 21.999 21.455 21.3746V17.2433H19.1031V21.3746C19.1031 21.9938 18.5932 22.5037 17.9636 22.5037L13.775 22.5089V24.8244L17.9636 24.8192C18.5984 24.8192 19.1083 25.3239 19.1083 25.9431L19.1135 30.0745L21.4654 30.0797L21.4602 25.9483C21.4602 25.6517 21.5798 25.3603 21.7932 25.1522C22.0065 24.9389 22.2979 24.8192 22.5997 24.8192L26.7883 24.814ZM27.1265 20.2455C28.1619 20.2455 29.0777 21.0676 29.0777 22.0094V25.3135C29.0777 26.2501 28.1619 27.0774 27.1265 27.0774H23.7496V30.4127C23.7496 31.4585 22.9327 32.3379 21.9649 32.3379H18.6192C17.6514 32.3379 16.8345 31.4533 16.8345 30.4127V27.0826H13.4524C12.3909 27.0826 11.4959 26.2761 11.4959 25.3187V22.0146C11.4959 21.0572 12.3909 20.2507 13.4472 20.2507H16.8241V16.9154C16.8241 15.8904 17.6566 14.9902 18.6088 14.9902H21.9545C22.9067 14.9902 23.7392 15.8904 23.7392 16.9154V20.2455H27.1265Z" fill="#86888C"/>
</svg>
