<svg width="20" height="20" viewBox="0 0 20 20" fill="none" xmlns="http://www.w3.org/2000/svg">
<path fill-rule="evenodd" clip-rule="evenodd" d="M12.3926 10.6989C12.4177 10.4212 12.4108 10.1434 12.3744 9.86796C12.3676 9.82243 12.3585 9.77689 12.3516 9.73136C12.3357 9.6403 12.3152 9.54696 12.2902 9.45817C12.2765 9.41264 12.2651 9.36483 12.2492 9.32157C12.2242 9.24872 12.1946 9.17815 12.1627 9.10757C12.1217 9.01651 12.0739 8.92772 12.0193 8.84576L11.9783 8.77974C11.9646 8.76153 11.9532 8.73648 11.9373 8.71827C12.8183 7.71656 13.647 7.05635 14.2481 6.8856C15.5958 6.50085 16.5065 7.02447 16.8821 8.39271C17.2577 9.76551 16.7432 10.6944 15.3955 11.0791C14.7853 11.2499 13.7039 11.1133 12.3926 10.6989ZM15.2088 15.1246C15.1132 15.6369 14.7717 16.0968 14.1957 16.4952C13.0415 17.2943 12.017 17.0939 11.2316 15.9146C10.8536 15.3478 10.6374 14.2049 10.626 12.7456C10.6487 12.741 10.667 12.7319 10.6874 12.7274C10.8058 12.7023 10.9219 12.6682 11.0358 12.6249C11.0767 12.609 11.1154 12.5908 11.1564 12.5748C11.2543 12.5316 11.3477 12.4815 11.4342 12.4269C11.4638 12.4064 11.4956 12.3904 11.523 12.3722C11.6322 12.2925 11.7324 12.206 11.8235 12.1081C11.8417 12.0877 11.8576 12.0626 11.8758 12.0398C11.9441 11.9579 12.0056 11.8691 12.0625 11.7758C12.0739 11.7575 12.0876 11.7439 12.0989 11.7257C13.4262 12.2766 14.3847 12.9004 14.7648 13.4673C15.1542 14.0546 15.3044 14.6124 15.2088 15.1246ZM8.82973 15.9283C8.43816 16.5157 7.98511 16.8617 7.48198 16.9596C6.97885 17.0529 6.43702 16.9027 5.86104 16.502C4.7068 15.7052 4.51101 14.6602 5.29416 13.4787C5.66297 12.9232 6.60776 12.3062 7.91909 11.7575C7.93047 11.778 7.94869 11.794 7.96007 11.8145C8.01471 11.901 8.0739 11.9829 8.13992 12.0603C8.16496 12.0876 8.18545 12.1172 8.2105 12.1446C8.30156 12.2402 8.40173 12.3267 8.51328 12.4018C8.54288 12.42 8.57703 12.436 8.60663 12.4542C8.82973 12.5908 9.07561 12.6841 9.33286 12.7319C9.36701 12.7388 9.39661 12.7524 9.43076 12.7592C9.42165 14.2208 9.20537 15.3614 8.82973 15.9283ZM4.5998 11.0882C3.9282 10.897 3.46149 10.5714 3.21106 10.1184C2.96064 9.66534 2.92877 9.08936 3.11545 8.4041C3.30213 7.72112 3.62313 7.24303 4.06707 6.98805C4.33343 6.84007 4.63622 6.76494 4.94129 6.77177C5.18944 6.77177 5.45808 6.81275 5.74721 6.89698C6.34823 7.07001 7.17236 7.72795 8.04658 8.72738C7.95779 8.84804 7.88722 8.98236 7.82347 9.12806C7.80526 9.16904 7.7916 9.21229 7.77566 9.25555C7.73241 9.37621 7.69598 9.50142 7.66866 9.62664C7.65956 9.67672 7.64817 9.72681 7.63907 9.77917C7.60947 9.96813 7.59353 10.1571 7.59353 10.3483C7.59353 10.4735 7.59809 10.5942 7.60947 10.7126C6.30042 11.1269 5.21903 11.2681 4.5998 11.0882ZM10.0045 3.01309C11.4023 3.01992 12.1376 3.77575 12.1331 5.20091C12.1331 5.84519 11.7142 6.86283 10.9697 8.02846C10.947 8.01935 10.9197 8.01708 10.8969 8.01024C10.7922 7.97837 10.6852 7.95333 10.5782 7.93512C10.5417 7.92829 10.5053 7.92146 10.4689 7.9169C10.3141 7.89414 10.157 7.88503 9.99991 7.88275C9.83144 7.88275 9.67435 7.89641 9.52182 7.91918C9.49223 7.92373 9.46491 7.92829 9.43531 7.93284C9.30782 7.95561 9.18944 7.98293 9.07561 8.01935C9.05739 8.0239 9.0369 8.02618 9.02097 8.03301C8.28107 6.86966 7.86217 5.84747 7.86673 5.18953C7.86673 3.76665 8.60663 3.01309 10.0045 3.01309ZM10.1137 11.7849C10.075 11.7849 10.0386 11.7871 9.99991 11.7917H9.93844C8.9982 11.7712 8.76143 11.3113 8.66582 10.9676C8.66126 10.9493 8.65443 10.9311 8.6476 10.9152C8.63394 10.8628 8.62712 10.8059 8.61801 10.749C8.61346 10.7149 8.60435 10.683 8.5998 10.6466C8.59069 10.5464 8.58386 10.4439 8.58386 10.3415C8.58386 9.77689 8.72956 9.37849 9.01642 9.1531C9.03463 9.13944 9.05739 9.12806 9.09837 9.10302C9.32148 8.96414 9.62427 8.89357 9.99763 8.89357C10.3733 8.89357 10.6715 8.96187 10.8901 9.09619C10.9014 9.10529 10.9538 9.13944 10.9675 9.14627C11.2612 9.3671 11.4114 9.76779 11.4114 10.3415C11.416 10.5418 11.3932 10.7399 11.3431 10.9357V10.938C11.2452 11.3159 11.0153 11.7507 10.1137 11.7849ZM17.8428 8.11952C17.3147 6.19806 15.8736 5.37393 13.984 5.90666C13.6152 6.01138 13.2395 6.22311 12.8707 6.48492C13.0255 6.04098 13.128 5.60387 13.128 5.20546C13.1348 3.2066 11.9692 2.00911 10.009 2H10.0067C8.0443 2 6.87185 3.19294 6.87185 5.18497C6.86957 5.59704 6.97202 6.04553 7.13138 6.49858C6.76257 6.23677 6.38693 6.02504 6.01585 5.91804C5.0961 5.65396 4.25375 5.7177 3.57988 6.10245C2.906 6.48947 2.41198 7.19067 2.157 8.13091C1.6311 10.0569 2.44385 11.5276 4.33343 12.0626C4.58386 12.1355 4.86616 12.1673 5.15756 12.1719C4.88437 12.3995 4.64533 12.6454 4.47231 12.9072C3.3727 14.5669 3.6846 16.2242 5.30327 17.3398C5.92933 17.7769 6.57361 18 7.19285 18C7.35221 18 7.51158 17.9863 7.66639 17.9545C8.42677 17.8088 9.11203 17.3034 9.64931 16.4974C9.8064 16.2607 9.92933 15.9738 10.0318 15.6688C10.132 15.9693 10.2526 16.2516 10.4074 16.4838C11.0745 17.4832 11.9305 17.9954 12.8639 17.9954C13.4717 17.9954 14.1137 17.7769 14.7535 17.333C15.5457 16.7866 16.042 16.0899 16.1855 15.3136C16.3289 14.5418 16.1217 13.704 15.5844 12.8958V12.8936C15.4091 12.6295 15.1655 12.3836 14.8878 12.1537C15.1496 12.1514 15.4091 12.1172 15.6618 12.0512C17.5537 11.5162 18.3687 10.0455 17.8428 8.11952Z" fill="#86888C"/>
</svg>
