<svg width="28" height="28" viewBox="0 0 28 28" fill="none" xmlns="http://www.w3.org/2000/svg">
<path fill-rule="evenodd" clip-rule="evenodd" d="M18.5889 15.0484C18.6265 14.6318 18.6163 14.2151 18.5616 13.8019C18.5514 13.7336 18.5377 13.6653 18.5275 13.597C18.5036 13.4604 18.4728 13.3204 18.4353 13.1873C18.4148 13.119 18.3977 13.0472 18.3738 12.9824C18.3362 12.8731 18.2918 12.7672 18.244 12.6614C18.1826 12.5248 18.1108 12.3916 18.0289 12.2686L17.9674 12.1696C17.9469 12.1423 17.9299 12.1047 17.906 12.0774C19.2275 10.5748 20.4706 9.58452 21.3721 9.3284C23.3937 8.75128 24.7597 9.53671 25.3231 11.5891C25.8866 13.6483 25.1148 15.0415 23.0932 15.6187C22.178 15.8748 20.5559 15.6699 18.5889 15.0484ZM22.8132 21.687C22.6698 22.4553 22.1575 23.1451 21.2935 23.7427C19.5622 24.9414 18.0255 24.6409 16.8473 22.8719C16.2805 22.0216 15.956 20.3073 15.939 18.1184C15.9731 18.1116 16.0004 18.0979 16.0312 18.0911C16.2087 18.0535 16.3829 18.0023 16.5536 17.9374C16.6151 17.9135 16.6732 17.8862 16.7346 17.8623C16.8815 17.7974 17.0215 17.7223 17.1513 17.6403C17.1957 17.6096 17.2435 17.5857 17.2844 17.5583C17.4484 17.4388 17.5986 17.309 17.7352 17.1622C17.7625 17.1315 17.7864 17.0939 17.8138 17.0598C17.9162 16.9368 18.0084 16.8036 18.0938 16.6636C18.1108 16.6363 18.1313 16.6158 18.1484 16.5885C20.1393 17.4149 21.577 18.3506 22.1473 19.2009C22.7312 20.082 22.9566 20.9186 22.8132 21.687ZM13.2446 22.8924C12.6572 23.7735 11.9777 24.2925 11.223 24.4394C10.4683 24.5794 9.65553 24.354 8.79155 23.753C7.06019 22.5578 6.76651 20.9903 7.94124 19.218C8.49446 18.3847 9.91165 17.4593 11.8786 16.6363C11.8957 16.667 11.923 16.691 11.9401 16.7217C12.0221 16.8515 12.1108 16.9744 12.2099 17.0905C12.2474 17.1315 12.2782 17.1759 12.3157 17.2168C12.4523 17.3603 12.6026 17.49 12.7699 17.6027C12.8143 17.6301 12.8655 17.654 12.9099 17.6813C13.2446 17.8862 13.6134 18.0262 13.9993 18.0979C14.0505 18.1081 14.0949 18.1286 14.1461 18.1389C14.1325 20.3312 13.8081 22.0421 13.2446 22.8924ZM6.89969 15.6323C5.89229 15.3455 5.19224 14.8571 4.8166 14.1776C4.44096 13.498 4.39315 12.634 4.67317 11.6061C4.95319 10.5817 5.4347 9.86454 6.1006 9.48207C6.50015 9.2601 6.95433 9.14741 7.41193 9.15766C7.78416 9.15766 8.18712 9.21912 8.62081 9.34548C9.52235 9.60501 10.7585 10.5919 12.0699 12.0911C11.9367 12.2721 11.8308 12.4735 11.7352 12.6921C11.7079 12.7536 11.6874 12.8184 11.6635 12.8833C11.5986 13.0643 11.544 13.2521 11.503 13.44C11.4893 13.5151 11.4723 13.5902 11.4586 13.6688C11.4142 13.9522 11.3903 14.2356 11.3903 14.5225C11.3903 14.7103 11.3971 14.8913 11.4142 15.0689C9.45063 15.6904 7.82855 15.9021 6.89969 15.6323ZM15.0067 3.51964C17.1035 3.52988 18.2065 4.66363 18.1996 6.80137C18.1996 7.76779 17.5713 9.29425 16.4546 11.0427C16.4205 11.029 16.3795 11.0256 16.3453 11.0154C16.1883 10.9676 16.0278 10.93 15.8673 10.9027C15.8126 10.8924 15.758 10.8822 15.7033 10.8754C15.4711 10.8412 15.2355 10.8275 14.9999 10.8241C14.7472 10.8241 14.5115 10.8446 14.2827 10.8788C14.2383 10.8856 14.1974 10.8924 14.153 10.8993C13.9617 10.9334 13.7842 10.9744 13.6134 11.029C13.5861 11.0359 13.5554 11.0393 13.5315 11.0495C12.4216 9.3045 11.7933 7.7712 11.8001 6.78429C11.8001 4.64997 12.9099 3.51964 15.0067 3.51964ZM15.1706 16.6773C15.1126 16.6773 15.0579 16.6807 14.9999 16.6875H14.9077C13.4973 16.6568 13.1422 15.967 12.9987 15.4513C12.9919 15.424 12.9817 15.3967 12.9714 15.3728C12.9509 15.2943 12.9407 15.2089 12.927 15.1235C12.9202 15.0723 12.9065 15.0245 12.8997 14.9698C12.886 14.8196 12.8758 14.6659 12.8758 14.5122C12.8758 13.6653 13.0943 13.0677 13.5246 12.7297C13.5519 12.7092 13.5861 12.6921 13.6476 12.6545C13.9822 12.4462 14.4364 12.3404 14.9964 12.3404C15.5599 12.3404 16.0073 12.4428 16.3351 12.6443C16.3522 12.6579 16.4307 12.7092 16.4512 12.7194C16.8917 13.0507 17.1171 13.6517 17.1171 14.5122C17.1239 14.8127 17.0898 15.1098 17.0147 15.4035V15.4069C16.8678 15.9738 16.5229 16.6261 15.1706 16.6773ZM26.7642 11.1793C25.972 8.2971 23.8103 7.0609 20.976 7.85999C20.4227 8.01707 19.8593 8.33466 19.3061 8.72738C19.5383 8.06147 19.692 7.40581 19.692 6.8082C19.7022 3.8099 17.9538 2.01366 15.0135 2H15.0101C12.0665 2 10.3078 3.78941 10.3078 6.77746C10.3044 7.39556 10.458 8.0683 10.6971 8.74787C10.1439 8.35515 9.5804 8.03756 9.02377 7.87706C7.64414 7.48093 6.38063 7.57655 5.36981 8.15367C4.359 8.73421 3.61796 9.786 3.23549 11.1964C2.44665 14.0854 3.66577 16.2914 6.50015 17.0939C6.87579 17.2032 7.29924 17.251 7.73635 17.2578C7.32656 17.5993 6.96799 17.9681 6.70846 18.3608C5.05906 20.8503 5.5269 23.3364 7.9549 25.0097C8.894 25.6653 9.86042 26 10.7893 26C11.0283 26 11.2674 25.9795 11.4996 25.9317C12.6402 25.7131 13.668 24.955 14.474 23.7462C14.7096 23.391 14.894 22.9607 15.0477 22.5031C15.1979 22.9539 15.3789 23.3773 15.6111 23.7257C16.6117 25.2248 17.8957 25.9932 19.2958 25.9932C20.2076 25.9932 21.1706 25.6653 22.1302 24.9994C23.3186 24.1799 24.063 23.1349 24.2782 21.9704C24.4933 20.8127 24.1826 19.5561 23.3766 18.3438V18.3404C23.1137 17.9442 22.7483 17.5754 22.3317 17.2305C22.7244 17.2271 23.1137 17.1759 23.4928 17.0768C26.3305 16.2743 27.5531 14.0683 26.7642 11.1793Z" fill="#86888C"/>
</svg>
