<svg width="24" height="24" viewBox="0 0 24 24" fill="none" xmlns="http://www.w3.org/2000/svg">
<path fill-rule="evenodd" clip-rule="evenodd" d="M14.9908 12.8736C15.0221 12.5265 15.0135 12.1793 14.968 11.8349C14.9595 11.778 14.9481 11.7211 14.9396 11.6642C14.9196 11.5504 14.894 11.4337 14.8627 11.3227C14.8456 11.2658 14.8314 11.206 14.8115 11.152C14.7802 11.0609 14.7432 10.9727 14.7034 10.8845C14.6521 10.7706 14.5924 10.6596 14.5241 10.5572L14.4729 10.4747C14.4558 10.4519 14.4415 10.4206 14.4216 10.3978C15.5229 9.1457 16.5588 8.32043 17.3101 8.107C18.9948 7.62607 20.1331 8.28059 20.6026 9.99089C21.0722 11.7069 20.429 12.868 18.7443 13.3489C17.9817 13.5623 16.6299 13.3916 14.9908 12.8736ZM18.511 18.4058C18.3915 19.0461 17.9646 19.6209 17.2446 20.119C15.8018 21.1178 14.5212 20.8674 13.5394 19.3933C13.067 18.6847 12.7967 17.2561 12.7825 15.432C12.8109 15.4263 12.8337 15.4149 12.8593 15.4092C13.0073 15.3779 13.1524 15.3352 13.2947 15.2812C13.3459 15.2612 13.3943 15.2385 13.4455 15.2186C13.5679 15.1645 13.6846 15.1019 13.7927 15.0336C13.8297 15.008 13.8696 14.988 13.9037 14.9653C14.0403 14.8657 14.1655 14.7575 14.2793 14.6352C14.3021 14.6096 14.322 14.5783 14.3448 14.5498C14.4302 14.4474 14.507 14.3364 14.5781 14.2197C14.5924 14.1969 14.6094 14.1799 14.6237 14.1571C16.2828 14.8458 17.4808 15.6255 17.9561 16.3341C18.4427 17.0683 18.6305 17.7655 18.511 18.4058ZM10.5372 19.4104C10.0477 20.1446 9.48139 20.5771 8.85248 20.6995C8.22356 20.8162 7.54627 20.6283 6.8263 20.1275C5.3835 19.1315 5.13876 17.8253 6.1177 16.3483C6.57871 15.654 7.75971 14.8828 9.39886 14.1969C9.41309 14.2225 9.43586 14.2425 9.45009 14.2681C9.51838 14.3762 9.59237 14.4787 9.6749 14.5754C9.70621 14.6096 9.73182 14.6466 9.76312 14.6807C9.87695 14.8002 10.0022 14.9084 10.1416 15.0023C10.1786 15.025 10.2213 15.045 10.2583 15.0677C10.5372 15.2385 10.8445 15.3552 11.1661 15.4149C11.2088 15.4234 11.2458 15.4405 11.2884 15.4491C11.2771 17.276 11.0067 18.7018 10.5372 19.4104ZM5.24974 13.3603C4.41025 13.1212 3.82686 12.7143 3.51383 12.148C3.2008 11.5817 3.16096 10.8617 3.39431 10.0051C3.62766 9.15139 4.02891 8.55379 4.58384 8.23506C4.91679 8.05009 5.29528 7.95618 5.67661 7.96471C5.9868 7.96471 6.3226 8.01594 6.68401 8.12123C7.43529 8.33751 8.46545 9.15993 9.55823 10.4092C9.44724 10.56 9.35902 10.7279 9.27934 10.9101C9.25657 10.9613 9.2395 11.0154 9.21958 11.0694C9.16551 11.2203 9.11998 11.3768 9.08583 11.5333C9.07445 11.5959 9.06022 11.6585 9.04883 11.724C9.01184 11.9602 8.99192 12.1964 8.99192 12.4354C8.99192 12.5919 8.99761 12.7427 9.01184 12.8907C7.37553 13.4087 6.02379 13.5851 5.24974 13.3603ZM12.0056 3.26636C13.7529 3.2749 14.6721 4.21969 14.6664 6.00114C14.6664 6.80649 14.1427 8.07854 13.2122 9.53557C13.1837 9.52419 13.1496 9.52134 13.1211 9.51281C12.9902 9.47297 12.8565 9.44166 12.7227 9.4189C12.6772 9.41036 12.6316 9.40182 12.5861 9.39613C12.3926 9.36767 12.1962 9.35629 11.9999 9.35344C11.7893 9.35344 11.5929 9.37052 11.4023 9.39898C11.3653 9.40467 11.3311 9.41036 11.2941 9.41605C11.1348 9.44451 10.9868 9.47866 10.8445 9.52419C10.8217 9.52988 10.7961 9.53273 10.7762 9.54126C9.85134 8.08708 9.32772 6.80933 9.33341 5.98691C9.33341 4.20831 10.2583 3.26636 12.0056 3.26636ZM12.1422 14.2311C12.0938 14.2311 12.0483 14.2339 11.9999 14.2396H11.9231C10.7478 14.214 10.4518 13.6392 10.3323 13.2094C10.3266 13.1867 10.318 13.1639 10.3095 13.144C10.2924 13.0785 10.2839 13.0074 10.2725 12.9363C10.2668 12.8936 10.2554 12.8537 10.2497 12.8082C10.2384 12.683 10.2298 12.5549 10.2298 12.4269C10.2298 11.7211 10.412 11.2231 10.7705 10.9414C10.7933 10.9243 10.8217 10.9101 10.873 10.8788C11.1519 10.7052 11.5303 10.617 11.997 10.617C12.4666 10.617 12.8394 10.7023 13.1126 10.8702C13.1268 10.8816 13.1923 10.9243 13.2093 10.9328C13.5764 11.2089 13.7643 11.7097 13.7643 12.4269C13.7699 12.6773 13.7415 12.9249 13.6789 13.1696V13.1725C13.5565 13.6448 13.2691 14.1884 12.1422 14.2311ZM21.8035 9.6494C21.1433 7.24758 19.3419 6.21742 16.98 6.88332C16.519 7.01423 16.0494 7.27888 15.5884 7.60615C15.7819 7.05122 15.91 6.50484 15.91 6.00683C15.9185 3.50825 14.4615 2.01138 12.0113 2H12.0084C9.55538 2 8.08981 3.49118 8.08981 5.98122C8.08697 6.4963 8.21503 7.05692 8.41423 7.62322C7.95322 7.29596 7.48367 7.0313 7.01981 6.89755C5.87012 6.56744 4.81719 6.64713 3.97484 7.12806C3.1325 7.61184 2.51497 8.48833 2.19624 9.66363C1.53887 12.0711 2.55481 13.9095 4.91679 14.5783C5.22982 14.6693 5.5827 14.7092 5.94696 14.7149C5.60546 14.9994 5.30666 15.3068 5.09038 15.634C3.71588 17.7086 4.10575 19.7803 6.12908 21.1747C6.91167 21.7211 7.71702 22 8.49107 22C8.69027 22 8.88947 21.9829 9.08298 21.9431C10.0335 21.761 10.89 21.1292 11.5616 20.1218C11.758 19.8258 11.9117 19.4673 12.0397 19.0859C12.1649 19.4616 12.3158 19.8145 12.5093 20.1047C13.3431 21.354 14.4131 21.9943 15.5799 21.9943C16.3397 21.9943 17.1422 21.7211 17.9418 21.1662C18.9322 20.4832 19.5525 19.6124 19.7318 18.642C19.9111 17.6773 19.6521 16.6301 18.9805 15.6198V15.617C18.7614 15.2869 18.4569 14.9795 18.1097 14.6921C18.437 14.6892 18.7614 14.6466 19.0773 14.564C21.4421 13.8953 22.4609 12.0569 21.8035 9.6494Z" fill="#86888C"/>
</svg>
