<svg width="40" height="40" viewBox="0 0 40 40" fill="none" xmlns="http://www.w3.org/2000/svg">
<path fill-rule="evenodd" clip-rule="evenodd" d="M26.3834 22.5726C26.4397 21.9476 26.4244 21.3227 26.3424 20.7029C26.3271 20.6005 26.3066 20.498 26.2912 20.3956C26.2553 20.1907 26.2092 19.9806 26.1529 19.7809C26.1222 19.6784 26.0966 19.5709 26.0607 19.4735C26.0043 19.3096 25.9378 19.1508 25.866 18.992C25.7738 18.7871 25.6663 18.5874 25.5433 18.403L25.4511 18.2544C25.4204 18.2134 25.3948 18.1571 25.3589 18.1161C27.3413 15.8623 29.2058 14.3768 30.5581 13.9926C33.5906 13.1269 35.6395 14.3051 36.4847 17.3836C37.3299 20.4724 36.1722 22.5623 33.1398 23.428C31.767 23.8122 29.3339 23.5048 26.3834 22.5726ZM32.7198 32.5304C32.5046 33.683 31.7363 34.7177 30.4403 35.6141C27.8433 37.4121 25.5382 36.9613 23.771 34.3079C22.9207 33.0324 22.4341 30.461 22.4084 27.1776C22.4597 27.1673 22.5006 27.1468 22.5468 27.1366C22.8131 27.0803 23.0744 27.0034 23.3305 26.9061C23.4227 26.8702 23.5098 26.8293 23.602 26.7934C23.8222 26.6961 24.0322 26.5834 24.2269 26.4604C24.2935 26.4143 24.3652 26.3785 24.4267 26.3375C24.6725 26.1582 24.8979 25.9636 25.1028 25.7433C25.1438 25.6972 25.1796 25.6409 25.2206 25.5896C25.3743 25.4052 25.5126 25.2055 25.6407 24.9954C25.6663 24.9545 25.697 24.9237 25.7226 24.8828C28.709 26.1224 30.8655 27.5259 31.7209 28.8014C32.5968 30.1229 32.9349 31.3779 32.7198 32.5304ZM18.3669 34.3386C17.4859 35.6602 16.4665 36.4388 15.3345 36.6591C14.2024 36.8691 12.9833 36.531 11.6873 35.6295C9.09029 33.8367 8.64977 31.4855 10.4119 28.827C11.2417 27.5771 13.3675 26.189 16.318 24.9545C16.3436 25.0006 16.3845 25.0364 16.4102 25.0825C16.5331 25.2772 16.6663 25.4616 16.8148 25.6357C16.8712 25.6972 16.9173 25.7638 16.9736 25.8253C17.1785 26.0404 17.4039 26.2351 17.6549 26.4041C17.7215 26.4451 17.7983 26.4809 17.8649 26.5219C18.3669 26.8293 18.9201 27.0393 19.4989 27.1468C19.5758 27.1622 19.6424 27.1929 19.7192 27.2083C19.6987 30.4969 19.2121 33.0632 18.3669 34.3386ZM8.84954 23.4485C7.33844 23.0182 6.28836 22.2857 5.7249 21.2664C5.16144 20.247 5.08972 18.9511 5.50976 17.4092C5.92979 15.8725 6.65204 14.7968 7.65091 14.2231C8.25022 13.8902 8.9315 13.7211 9.61789 13.7365C10.1762 13.7365 10.7807 13.8287 11.4312 14.0182C12.7835 14.4075 14.6378 15.8879 16.6048 18.1366C16.405 18.4081 16.2462 18.7103 16.1028 19.0381C16.0618 19.1303 16.0311 19.2277 15.9952 19.325C15.8979 19.5965 15.816 19.8782 15.7545 20.1599C15.734 20.2726 15.7084 20.3853 15.6879 20.5031C15.6213 20.9283 15.5855 21.3534 15.5855 21.7837C15.5855 22.0655 15.5957 22.3369 15.6213 22.6033C12.6759 23.5356 10.2428 23.8532 8.84954 23.4485ZM21.01 5.27945C24.1552 5.29482 25.8097 6.99545 25.7995 10.202C25.7995 11.6517 24.8569 13.9414 23.1819 16.564C23.1307 16.5435 23.0692 16.5384 23.018 16.5231C22.7824 16.4513 22.5416 16.395 22.3009 16.354C22.2189 16.3386 22.137 16.3233 22.055 16.313C21.7067 16.2618 21.3532 16.2413 20.9998 16.2362C20.6207 16.2362 20.2673 16.2669 19.9241 16.3182C19.8575 16.3284 19.796 16.3386 19.7294 16.3489C19.4426 16.4001 19.1762 16.4616 18.9201 16.5435C18.8791 16.5538 18.833 16.5589 18.7972 16.5743C17.1324 13.9567 16.1899 11.6568 16.2001 10.1764C16.2001 6.97496 17.8649 5.27945 21.01 5.27945ZM21.2559 25.0159C21.1688 25.0159 21.0869 25.0211 20.9998 25.0313H20.8615C18.746 24.9852 18.2132 23.9505 17.9981 23.177C17.9878 23.136 17.9725 23.095 17.9571 23.0592C17.9264 22.9414 17.911 22.8133 17.8905 22.6853C17.8803 22.6084 17.8598 22.5367 17.8495 22.4548C17.8291 22.2294 17.8137 21.9989 17.8137 21.7684C17.8137 20.498 18.1415 19.6016 18.7869 19.0945C18.8279 19.0637 18.8791 19.0381 18.9713 18.9818C19.4733 18.6693 20.1546 18.5105 20.9947 18.5105C21.8399 18.5105 22.5109 18.6642 23.0026 18.9664C23.0283 18.9869 23.1461 19.0637 23.1768 19.0791C23.8376 19.576 24.1757 20.4775 24.1757 21.7684C24.1859 22.2191 24.1347 22.6648 24.022 23.1053V23.1104C23.8017 23.9607 23.2844 24.9391 21.2559 25.0159ZM38.6464 16.7689C37.458 12.4456 34.2155 10.5913 29.9639 11.79C29.1341 12.0256 28.2889 12.502 27.4591 13.0911C27.8074 12.0922 28.0379 11.1087 28.0379 10.2123C28.0533 5.71485 25.4306 3.02049 21.0203 3H21.0152C16.5997 3 13.9617 5.68412 13.9617 10.1662C13.9565 11.0933 14.187 12.1024 14.5456 13.1218C13.7158 12.5327 12.8706 12.0563 12.0357 11.8156C9.96622 11.2214 8.07094 11.3648 6.55472 12.2305C5.0385 13.1013 3.92694 14.679 3.35324 16.7945C2.16997 21.1281 3.99866 24.4371 8.25022 25.6409C8.81368 25.8048 9.44886 25.8765 10.1045 25.8867C9.48984 26.399 8.95199 26.9522 8.56269 27.5413C6.08858 31.2755 6.79035 35.0046 10.4324 37.5145C11.841 38.498 13.2906 39 14.6839 39C15.0425 39 15.401 38.9693 15.7494 38.8976C17.4602 38.5697 19.0021 37.4326 20.211 35.6192C20.5644 35.0865 20.841 34.4411 21.0715 33.7547C21.2969 34.4308 21.5684 35.066 21.9167 35.5885C23.4176 37.8372 25.3436 38.9898 27.4437 38.9898C28.8114 38.9898 30.2559 38.498 31.6953 37.4991C33.4779 36.2698 34.5946 34.7023 34.9173 32.9556C35.24 31.2191 34.7738 29.3341 33.565 27.5157V27.5105C33.1705 26.9163 32.6224 26.3631 31.9975 25.8458C32.5866 25.8406 33.1705 25.7638 33.7391 25.6153C37.9958 24.4115 39.8296 21.1024 38.6464 16.7689Z" fill="#86888C"/>
</svg>
