<svg width="24" height="24" viewBox="0 0 24 24" fill="none" xmlns="http://www.w3.org/2000/svg">
<path fill-rule="evenodd" clip-rule="evenodd" d="M12.6688 18.6648V16.4963C12.6688 16.1577 12.3927 15.8845 12.0541 15.8845C11.7154 15.8845 11.4394 16.1577 11.4394 16.4963V18.6676C9.77746 18.5822 5.77632 17.8395 5.34377 12.8338H7.52931C7.86796 12.8338 8.144 12.5606 8.144 12.222C8.144 11.8833 7.86796 11.6101 7.52931 11.6101H5.31531C5.48036 6.02675 9.77177 5.30108 11.4422 5.23563V7.5037C11.4422 7.84234 11.7183 8.11554 12.0569 8.11554C12.3956 8.11554 12.6716 7.84234 12.6716 7.5037V5.24986C14.4246 5.36653 18.6079 6.22311 18.7928 11.6101H16.4764C16.1377 11.6101 15.8617 11.8833 15.8617 12.222C15.8617 12.5606 16.1377 12.8338 16.4764 12.8338H18.7701C18.3489 17.8139 14.3364 18.5709 12.6688 18.6648ZM21.3882 11.6101H20.0193C19.8173 5.01366 14.3876 4.13432 12.6688 4.02618V2.61184C12.6688 2.27319 12.3927 2 12.0541 2C11.7154 2 11.4394 2.27319 11.4394 2.61184V4.01195C9.83438 4.07456 4.26238 4.78885 4.08594 11.6101H2.61468C2.27604 11.6101 2 11.8833 2 12.222C2 12.5606 2.27604 12.8338 2.61468 12.8338H4.11725C4.5868 19.0433 9.80307 19.8116 11.4394 19.8913V21.3882C11.4394 21.7268 11.7154 22 12.0541 22C12.3927 22 12.6688 21.7268 12.6688 21.3882V19.8884C14.3051 19.8002 19.5384 19.0176 19.9909 12.8338H21.3882C21.7268 12.8338 22.0028 12.5606 22.0028 12.222C22.0028 11.8833 21.7297 11.6101 21.3882 11.6101Z" fill="#86888C"/>
</svg>
