<svg width="28" height="28" viewBox="0 0 28 28" fill="none" xmlns="http://www.w3.org/2000/svg">
<path fill-rule="evenodd" clip-rule="evenodd" d="M3.7862 5.65943C3.65642 5.65943 3.55738 5.75847 3.55738 5.88826V22.3227C3.55738 22.4525 3.65642 22.5515 3.7862 22.5515H24.2199C24.3463 22.5515 24.4488 22.449 24.4488 22.3227V8.56585C24.4488 8.43607 24.3497 8.33703 24.2199 8.33703H13.4993C13.069 8.33703 12.7206 7.98867 12.7206 7.55834V5.88826C12.7206 5.75847 12.6216 5.65943 12.4918 5.65943H3.7862ZM24.2199 24.1055H3.7862C2.8026 24.1055 2 23.3063 2 22.3193V5.88826C2 4.90465 2.79918 4.10547 3.7862 4.10547H12.4918C13.4754 4.10547 14.278 4.90465 14.278 5.88826V6.77965H24.2199C25.2036 6.77965 26.0027 7.57883 26.0027 8.56244V22.3227C26.0027 23.3063 25.2036 24.1055 24.2199 24.1055Z" fill="#86888C"/>
</svg>
