<svg width="20" height="20" viewBox="0 0 20 20" fill="none" xmlns="http://www.w3.org/2000/svg">
<path fill-rule="evenodd" clip-rule="evenodd" d="M15.9731 15.7101C15.9657 15.7422 15.9632 15.7767 15.9632 15.8088C15.9632 15.8606 15.9213 15.9 15.867 15.9H2.86208C2.82015 15.9 2.78315 15.8729 2.77082 15.8359L4.05824 8.87099C4.06318 8.83646 4.06811 8.8044 4.06811 8.76987C4.06811 8.71808 4.11004 8.67862 4.1643 8.67862H17.152C17.1964 8.67862 17.2309 8.70575 17.2432 8.74274L15.9731 15.7101ZM2.24796 5.10491H7.64428C7.738 5.10491 7.80213 5.16164 7.80213 5.21343V6.11857C7.80213 6.42193 8.04629 6.66856 8.34718 6.66856H15.1468C15.2406 6.66856 15.3047 6.72529 15.3072 6.82148L15.3639 7.57864V7.5811H4.1643C3.53045 7.5811 3.01006 8.08423 2.98046 8.71561L2.48966 11.3743L2.09258 5.2159C2.09012 5.16164 2.15424 5.10491 2.24796 5.10491ZM17.1495 7.57864H16.4392C16.4417 7.54904 16.4515 7.52191 16.4491 7.49232L16.3923 6.77708C16.3923 6.11117 15.8325 5.56612 15.1444 5.56612H8.88977V5.21097C8.88977 4.54506 8.32992 4 7.64181 4H2.24549C1.55739 4 1 4.54259 1 5.24549L1.67824 15.7668C1.67824 15.7792 1.67331 15.7915 1.67331 15.8063C1.67331 16.4648 2.20603 17 2.85961 17H15.8645C16.4984 17 17.0188 16.4944 17.0484 15.8655L18.3235 8.86853C18.3309 8.83646 18.3333 8.80194 18.3333 8.76987C18.3358 8.11383 17.8031 7.57864 17.1495 7.57864Z" fill="#86888C"/>
</svg>
