<svg width="20" height="20" viewBox="0 0 20 20" fill="none" xmlns="http://www.w3.org/2000/svg">
<path d="M12.3302 5.33576C12.5754 5.33576 12.7742 5.13697 12.7742 4.89176C12.7742 4.64654 12.5754 4.44775 12.3302 4.44775C12.085 4.44775 11.8862 4.64654 11.8862 4.89176C11.8862 5.13697 12.085 5.33576 12.3302 5.33576Z" fill="#86888C"/>
<path d="M12.3304 5.5636C11.9592 5.5636 11.6587 5.26305 11.6587 4.89191C11.6587 4.52077 11.9592 4.22021 12.3304 4.22021C12.7015 4.22021 13.0021 4.52077 13.0021 4.89191C13.0021 5.26305 12.7015 5.5636 12.3304 5.5636ZM12.3304 4.6756C12.212 4.6756 12.1141 4.77351 12.1141 4.89191C12.1141 5.01031 12.212 5.10822 12.3304 5.10822C12.4488 5.10822 12.5467 5.01031 12.5467 4.89191C12.5467 4.77351 12.4511 4.6756 12.3304 4.6756Z" fill="#86888C"/>
<path d="M14.1066 5.33576C14.3518 5.33576 14.5506 5.13697 14.5506 4.89176C14.5506 4.64654 14.3518 4.44775 14.1066 4.44775C13.8614 4.44775 13.6626 4.64654 13.6626 4.89176C13.6626 5.13697 13.8614 5.33576 14.1066 5.33576Z" fill="#86888C"/>
<path d="M14.1063 5.5636C13.7351 5.5636 13.4346 5.26305 13.4346 4.89191C13.4346 4.52077 13.7351 4.22021 14.1063 4.22021C14.4774 4.22021 14.778 4.52077 14.778 4.89191C14.778 5.26305 14.4774 5.5636 14.1063 5.5636ZM14.1063 4.6756C13.9879 4.6756 13.89 4.77351 13.89 4.89191C13.89 5.01031 13.9879 5.10822 14.1063 5.10822C14.2247 5.10822 14.3226 5.01031 14.3226 4.89191C14.3226 4.77351 14.2269 4.6756 14.1063 4.6756Z" fill="#86888C"/>
<path d="M15.8825 5.33576C16.1277 5.33576 16.3265 5.13697 16.3265 4.89176C16.3265 4.64654 16.1277 4.44775 15.8825 4.44775C15.6373 4.44775 15.4385 4.64654 15.4385 4.89176C15.4385 5.13697 15.6373 5.33576 15.8825 5.33576Z" fill="#86888C"/>
<path d="M15.8826 5.5636C15.5115 5.5636 15.2109 5.26305 15.2109 4.89191C15.2109 4.52077 15.5115 4.22021 15.8826 4.22021C16.2538 4.22021 16.5543 4.52077 16.5543 4.89191C16.5543 5.26305 16.2538 5.5636 15.8826 5.5636ZM15.8826 4.6756C15.7642 4.6756 15.6663 4.77351 15.6663 4.89191C15.6663 5.01031 15.7642 5.10822 15.8826 5.10822C16.001 5.10822 16.0989 5.01031 16.0989 4.89191C16.0989 4.77351 16.0033 4.6756 15.8826 4.6756Z" fill="#86888C"/>
<path d="M12.2416 9.78938C12.212 9.78938 12.1802 9.78711 12.1506 9.78255C11.8136 9.73246 11.5403 9.40686 11.5403 9.06077V7.79251H11.4515C10.7434 7.79251 10.2083 7.22784 10.2083 6.481V3.31151C10.2083 2.58745 10.7958 2 11.5199 2H16.6953C17.4194 2 18.0068 2.58745 18.0068 3.31151V6.48328C18.0068 7.20734 17.4194 7.79479 16.6953 7.79479H14.0222C13.7672 8.19781 13.2276 9.0471 13.1205 9.20877C12.8837 9.5708 12.5467 9.78938 12.2416 9.78938ZM11.5199 2.91077C11.299 2.91077 11.1191 3.09065 11.1191 3.31151V6.48328C11.1191 6.68365 11.2216 6.88402 11.4515 6.88402H11.9957C12.2462 6.88402 12.4511 7.08894 12.4511 7.33941V8.56667C12.7175 8.15227 13.3801 7.10716 13.3869 7.09577C13.4712 6.96371 13.6146 6.88402 13.7717 6.88402H16.6953C16.9162 6.88402 17.0961 6.70414 17.0961 6.48328V3.31151C17.0961 3.09065 16.9162 2.91077 16.6953 2.91077H11.5199ZM7.34168 12.672C6.35349 12.672 5.58389 12.3874 5.05109 11.8227C4.54789 11.2922 4.29515 10.5522 4.29515 9.62544C4.29515 8.69873 4.55016 7.95873 5.05109 7.42821C5.58389 6.86353 6.35349 6.57663 7.34168 6.57663C8.32987 6.57663 9.09947 6.86353 9.63228 7.42593C10.1332 7.95645 10.3882 8.69646 10.3882 9.62317C10.3882 10.5499 10.1332 11.2899 9.63228 11.8204C9.09947 12.3874 8.32759 12.672 7.34168 12.672ZM7.34168 7.48741C5.92315 7.48741 5.20592 8.20692 5.20592 9.62317C5.20592 11.0394 5.92543 11.7589 7.34168 11.7589C8.75793 11.7589 9.47744 11.0394 9.47744 9.62317C9.47744 8.20692 8.75793 7.48741 7.34168 7.48741ZM12.2257 18H2.45539C2.20492 18 2 17.7951 2 17.5446V16.6999C2 15.6069 2.28917 14.7622 2.86068 14.1884C3.43219 13.6146 4.27465 13.3209 5.36075 13.3209H9.32034C10.4087 13.3209 11.2489 13.6124 11.8204 14.1884C12.3919 14.7645 12.6811 15.6069 12.6811 16.6999V17.5446C12.6811 17.7974 12.4784 18 12.2257 18ZM2.91077 17.0892H11.7703V16.6999C11.7703 15.8574 11.5699 15.2267 11.176 14.8305C10.7821 14.4343 10.1582 14.2317 9.32261 14.2317H5.36075C4.52512 14.2317 3.90124 14.432 3.50733 14.8305C3.11342 15.229 2.91077 15.8574 2.91077 16.6999V17.0892Z" fill="#86888C"/>
</svg>
