<svg width="28" height="28" viewBox="0 0 28 28" fill="none" xmlns="http://www.w3.org/2000/svg">
<path d="M17.4951 7.00388C17.8629 7.00388 18.1611 6.7057 18.1611 6.33788C18.1611 5.97005 17.8629 5.67188 17.4951 5.67188C17.1273 5.67188 16.8291 5.97005 16.8291 6.33788C16.8291 6.7057 17.1273 7.00388 17.4951 7.00388Z" fill="#86888C"/>
<path d="M17.4958 7.34516C16.9391 7.34516 16.4883 6.89433 16.4883 6.33762C16.4883 5.78091 16.9391 5.33008 17.4958 5.33008C18.0525 5.33008 18.5034 5.78091 18.5034 6.33762C18.5034 6.89433 18.0525 7.34516 17.4958 7.34516ZM17.4958 6.01316C17.3182 6.01316 17.1714 6.16002 17.1714 6.33762C17.1714 6.51522 17.3182 6.66208 17.4958 6.66208C17.6734 6.66208 17.8203 6.51522 17.8203 6.33762C17.8203 6.16002 17.6768 6.01316 17.4958 6.01316Z" fill="#86888C"/>
<path d="M20.1601 7.00388C20.528 7.00388 20.8261 6.7057 20.8261 6.33788C20.8261 5.97005 20.528 5.67188 20.1601 5.67188C19.7923 5.67188 19.4941 5.97005 19.4941 6.33788C19.4941 6.7057 19.7923 7.00388 20.1601 7.00388Z" fill="#86888C"/>
<path d="M20.1594 7.34516C19.6027 7.34516 19.1519 6.89433 19.1519 6.33762C19.1519 5.78091 19.6027 5.33008 20.1594 5.33008C20.7161 5.33008 21.1669 5.78091 21.1669 6.33762C21.1669 6.89433 20.7161 7.34516 20.1594 7.34516ZM20.1594 6.01316C19.9818 6.01316 19.8349 6.16002 19.8349 6.33762C19.8349 6.51522 19.9818 6.66208 20.1594 6.66208C20.337 6.66208 20.4839 6.51522 20.4839 6.33762C20.4839 6.16002 20.3404 6.01316 20.1594 6.01316Z" fill="#86888C"/>
<path d="M22.8237 7.00388C23.1915 7.00388 23.4897 6.7057 23.4897 6.33788C23.4897 5.97005 23.1915 5.67188 22.8237 5.67188C22.4559 5.67188 22.1577 5.97005 22.1577 6.33788C22.1577 6.7057 22.4559 7.00388 22.8237 7.00388Z" fill="#86888C"/>
<path d="M22.8239 7.34516C22.2672 7.34516 21.8164 6.89433 21.8164 6.33762C21.8164 5.78091 22.2672 5.33008 22.8239 5.33008C23.3807 5.33008 23.8315 5.78091 23.8315 6.33762C23.8315 6.89433 23.3807 7.34516 22.8239 7.34516ZM22.8239 6.01316C22.6463 6.01316 22.4995 6.16002 22.4995 6.33762C22.4995 6.51522 22.6463 6.66208 22.8239 6.66208C23.0015 6.66208 23.1484 6.51522 23.1484 6.33762C23.1484 6.16002 23.005 6.01316 22.8239 6.01316Z" fill="#86888C"/>
<path d="M17.3625 13.6841C17.3181 13.6841 17.2702 13.6807 17.2258 13.6738C16.7204 13.5987 16.3105 13.1103 16.3105 12.5911V10.6888H16.1773C15.1151 10.6888 14.3125 9.84175 14.3125 8.7215V3.96727C14.3125 2.88117 15.1937 2 16.2798 2H24.043C25.1291 2 26.0102 2.88117 26.0102 3.96727V8.72492C26.0102 9.81101 25.1291 10.6922 24.043 10.6922H20.0333C19.6508 11.2967 18.8413 12.5707 18.6808 12.8131C18.3256 13.3562 17.8201 13.6841 17.3625 13.6841ZM16.2798 3.36616C15.9485 3.36616 15.6787 3.63598 15.6787 3.96727V8.72492C15.6787 9.02547 15.8324 9.32603 16.1773 9.32603H16.9936C17.3693 9.32603 17.6767 9.63341 17.6767 10.0091V11.85C18.0763 11.2284 19.0702 9.66074 19.0804 9.64366C19.2068 9.44557 19.4219 9.32603 19.6576 9.32603H24.043C24.3743 9.32603 24.6441 9.05621 24.6441 8.72492V3.96727C24.6441 3.63598 24.3743 3.36616 24.043 3.36616H16.2798ZM10.0125 18.008C8.53024 18.008 7.37584 17.581 6.57663 16.734C5.82183 15.9382 5.44272 14.8282 5.44272 13.4382C5.44272 12.0481 5.82525 10.9381 6.57663 10.1423C7.37584 9.29529 8.53024 8.86495 10.0125 8.86495C11.4948 8.86495 12.6492 9.29529 13.4484 10.1389C14.1998 10.9347 14.5823 12.0447 14.5823 13.4348C14.5823 14.8248 14.1998 15.9348 13.4484 16.7306C12.6492 17.581 11.4914 18.008 10.0125 18.008ZM10.0125 10.2311C7.88473 10.2311 6.80888 11.3104 6.80888 13.4348C6.80888 15.5591 7.88815 16.6384 10.0125 16.6384C12.1369 16.6384 13.2162 15.5591 13.2162 13.4348C13.2162 11.3104 12.1369 10.2311 10.0125 10.2311ZM17.3386 26H2.68308C2.30739 26 2 25.6926 2 25.3169V24.0498C2 22.4104 2.43376 21.1433 3.29102 20.2826C4.14829 19.4219 5.41198 18.9814 7.04113 18.9814H12.9805C14.6131 18.9814 15.8733 19.4185 16.7306 20.2826C17.5879 21.1467 18.0216 22.4104 18.0216 24.0498V25.3169C18.0216 25.696 17.7177 26 17.3386 26ZM3.36616 24.6338H16.6555V24.0498C16.6555 22.7861 16.3549 21.84 15.7641 21.2458C15.1732 20.6515 14.2374 20.3475 12.9839 20.3475H7.04113C5.78768 20.3475 4.85186 20.6481 4.26099 21.2458C3.67013 21.8435 3.36616 22.7861 3.36616 24.0498V24.6338Z" fill="#86888C"/>
</svg>
