<svg width="20" height="20" viewBox="0 0 20 20" fill="none" xmlns="http://www.w3.org/2000/svg">
<path fill-rule="evenodd" clip-rule="evenodd" d="M2.68516 7.7203C2.3073 7.7203 2 7.413 2 7.03514V2.68516C2 2.3073 2.3073 2 2.68516 2H7.03742C7.41528 2.01366 7.7112 2.33234 7.69754 2.71248C7.68388 3.06985 7.39707 3.35894 7.03742 3.3726H3.37032V7.03742C3.37032 7.413 3.06302 7.7203 2.68516 7.7203ZM7.04425 16.6274C7.42211 16.6411 7.71803 16.9597 7.70437 17.3399C7.69071 17.6973 7.4039 17.9863 7.04425 18H2.68971C2.31185 18 2.00455 17.6927 2.00455 17.3148V12.9626C2.00455 12.5847 2.31185 12.2774 2.68971 12.2774C3.06758 12.2774 3.37488 12.5847 3.37488 12.9626V16.6274H7.04425ZM17.308 12.266C17.6859 12.266 17.9932 12.5733 17.9932 12.9512V17.3012C17.9932 17.679 17.6859 17.9863 17.308 17.9863H12.9535C12.5756 17.9659 12.2843 17.6426 12.3047 17.2648C12.3229 16.9142 12.6029 16.6365 12.9535 16.616H16.6206V12.9512C16.6228 12.5733 16.9279 12.266 17.308 12.266ZM17.3126 2.01821C17.6904 2.01821 17.9977 2.32323 17.9977 2.70337V7.05335C17.9841 7.43121 17.6654 7.72713 17.2852 7.71347C16.9279 7.69981 16.6388 7.413 16.6251 7.05335V3.39081H12.958C12.5802 3.39081 12.2729 3.08351 12.2729 2.70565C12.2729 2.32778 12.5802 2.02049 12.958 2.02049H17.3126V2.01821Z" fill="#86888C"/>
</svg>
