<svg width="24" height="24" viewBox="0 0 24 24" fill="none" xmlns="http://www.w3.org/2000/svg">
<path fill-rule="evenodd" clip-rule="evenodd" d="M2.85645 9.15038C2.38412 9.15038 2 8.76625 2 8.29392V2.85645C2 2.38412 2.38412 2 2.85645 2H8.29677C8.7691 2.01707 9.139 2.41542 9.12192 2.8906C9.10485 3.33732 8.74634 3.69868 8.29677 3.71575H3.7129V8.29677C3.7129 8.76625 3.32878 9.15038 2.85645 9.15038ZM8.30531 20.2843C8.77764 20.3013 9.14753 20.6997 9.13046 21.1748C9.11339 21.6216 8.75487 21.9829 8.30531 22H2.86214C2.38981 22 2.00569 21.6159 2.00569 21.1435V15.7032C2.00569 15.2309 2.38981 14.8468 2.86214 14.8468C3.33447 14.8468 3.71859 15.2309 3.71859 15.7032V20.2843H8.30531ZM21.135 14.8326C21.6073 14.8326 21.9915 15.2167 21.9915 15.689V21.1265C21.9915 21.5988 21.6073 21.9829 21.135 21.9829H15.6918C15.2195 21.9573 14.8553 21.5533 14.8809 21.0809C14.9037 20.6428 15.2537 20.2956 15.6918 20.27H20.2757V15.689C20.2786 15.2167 20.6598 14.8326 21.135 14.8326ZM21.1407 2.02276C21.613 2.02276 21.9972 2.40404 21.9972 2.87921V8.31669C21.9801 8.78902 21.5817 9.15891 21.1066 9.14184C20.6598 9.12477 20.2985 8.76625 20.2814 8.31669V3.73851H15.6975C15.2252 3.73851 14.8411 3.35439 14.8411 2.88206C14.8411 2.40973 15.2252 2.02561 15.6975 2.02561H21.1407V2.02276Z" fill="#86888C"/>
</svg>
