<svg width="28" height="28" viewBox="0 0 28 28" fill="none" xmlns="http://www.w3.org/2000/svg">
<path fill-rule="evenodd" clip-rule="evenodd" d="M24.9654 18.4161C25.5322 18.4366 25.9761 18.9146 25.9556 19.4848C25.9351 20.0209 25.5049 20.4545 24.9654 20.475H19.4716V25.9723C19.4716 26.5391 19.0107 27 18.4405 27C17.8737 27 17.4127 26.5391 17.4127 25.9723V19.4439C17.4127 18.8737 17.8737 18.4161 18.4405 18.4161H24.9654ZM9.55271 18.4161C10.1195 18.4161 10.5805 18.8771 10.5805 19.4439V25.9688C10.5497 26.5356 10.0649 26.9727 9.49808 26.942C8.97226 26.9146 8.5557 26.4947 8.52497 25.9688V20.4716H3.02774C2.45753 20.4511 2.01366 19.9731 2.03756 19.4063C2.05805 18.8703 2.48826 18.4366 3.02774 18.4161H9.55271ZM9.55271 3C10.1195 3 10.5805 3.46095 10.5805 4.02774V10.5527C10.5805 11.1195 10.1195 11.5805 9.55271 11.5805H3.02774C2.46095 11.5805 2 11.1195 2 10.5493C2 9.9825 2.46095 9.52155 3.02774 9.52155H8.52155V4.02774C8.52155 3.46095 8.9825 3 9.55271 3ZM18.4439 11.5805C17.8771 11.5805 17.4161 11.1195 17.4161 10.5527V4.02774C17.4469 3.46095 17.9317 3.0239 18.4985 3.05463C19.0243 3.08195 19.4409 3.50192 19.4716 4.02774V9.52155H24.9688C25.5356 9.54204 25.9795 10.0201 25.959 10.5903C25.9385 11.1263 25.5083 11.56 24.9688 11.5805H18.4439Z" fill="#86888C"/>
</svg>
