<svg width="40" height="40" viewBox="0 0 40 40" fill="none" xmlns="http://www.w3.org/2000/svg">
<path fill-rule="evenodd" clip-rule="evenodd" d="M36.4481 25.1242C37.2983 25.1549 37.9641 25.872 37.9334 26.7273C37.9027 27.5314 37.2574 28.1818 36.4481 28.2125H28.2074V36.4584C28.2074 37.3086 27.516 38 26.6607 38C25.8105 38 25.1191 37.3086 25.1191 36.4584V26.6658C25.1191 25.8105 25.8105 25.1242 26.6607 25.1242H36.4481ZM13.3291 25.1242C14.1793 25.1242 14.8707 25.8156 14.8707 26.6658V36.4533C14.8246 37.3035 14.0973 37.959 13.2471 37.9129C12.4584 37.872 11.8335 37.242 11.7875 36.4533V28.2074H3.54161C2.6863 28.1767 2.02049 27.4597 2.05634 26.6095C2.08707 25.8054 2.73239 25.1549 3.54161 25.1242H13.3291ZM13.3291 2C14.1793 2 14.8707 2.69142 14.8707 3.54161V13.3291C14.8707 14.1793 14.1793 14.8707 13.3291 14.8707H3.54161C2.69142 14.8707 2 14.1793 2 13.3239C2 12.4738 2.69142 11.7823 3.54161 11.7823H11.7823V3.54161C11.7823 2.69142 12.4738 2 13.3291 2ZM26.6658 14.8707C25.8156 14.8707 25.1242 14.1793 25.1242 13.3291V3.54161C25.1703 2.69142 25.8976 2.03585 26.7478 2.08195C27.5365 2.12292 28.1613 2.75288 28.2074 3.54161V11.7823H36.4533C37.3035 11.8131 37.9693 12.5301 37.9385 13.3854C37.9078 14.1895 37.2625 14.8399 36.4533 14.8707H26.6658Z" fill="#86888C"/>
</svg>
