<svg width="40" height="40" viewBox="0 0 40 40" fill="none" xmlns="http://www.w3.org/2000/svg">
<path fill-rule="evenodd" clip-rule="evenodd" d="M3.54161 15.8707C2.69142 15.8707 2 15.1793 2 14.3291V4.54161C2 3.69142 2.69142 3 3.54161 3H13.3342C14.1844 3.03073 14.8502 3.74776 14.8195 4.60307C14.7887 5.40717 14.1434 6.05762 13.3342 6.08835H5.08323V14.3342C5.08323 15.1793 4.39181 15.8707 3.54161 15.8707ZM13.3496 35.9116C14.1997 35.9424 14.8656 36.6594 14.8348 37.5147C14.8041 38.3188 14.1588 38.9693 13.3496 39H3.55186C2.70166 39 2.01024 38.3086 2.01024 37.4584V27.6658C2.01024 26.8156 2.70166 26.1242 3.55186 26.1242C4.40205 26.1242 5.09347 26.8156 5.09347 27.6658V35.9116H13.3496ZM36.443 26.0986C37.2932 26.0986 37.9846 26.79 37.9846 27.6402V37.4277C37.9846 38.2778 37.2932 38.9693 36.443 38.9693H26.6453C25.7951 38.9232 25.1396 38.1959 25.1857 37.3457C25.2266 36.557 25.8566 35.9321 26.6453 35.886H34.8963V27.6402C34.9014 26.79 35.5877 26.0986 36.443 26.0986ZM36.4533 3.04097C37.3035 3.04097 37.9949 3.72727 37.9949 4.58259V14.37C37.9641 15.2202 37.2471 15.886 36.3918 15.8553C35.5877 15.8246 34.9373 15.1793 34.9065 14.37V6.12932H26.6556C25.8054 6.12932 25.114 5.4379 25.114 4.58771C25.114 3.73752 25.8054 3.04609 26.6556 3.04609H36.4533V3.04097Z" fill="#86888C"/>
</svg>
