<svg width="24" height="24" viewBox="0 0 24 24" fill="none" xmlns="http://www.w3.org/2000/svg">
<path fill-rule="evenodd" clip-rule="evenodd" d="M14.934 20.4519L15.6568 18.2322C15.7194 18.0273 15.856 17.8395 16.041 17.7057C16.226 17.572 16.4622 17.5094 16.6699 17.5037H19.3449C18.1781 19.2567 16.4678 20.0763 14.934 20.4519ZM12.5208 20.7479H12.333C12.0882 20.7479 11.8349 20.745 11.6158 20.7393C11.243 20.7308 10.7934 20.6966 10.3039 20.6283C10.2869 20.5572 10.284 20.4861 10.2612 20.4206L9.41605 17.8167C9.33068 17.5464 9.18839 17.296 9.00911 17.074L9.60102 16.1804C9.90837 16.3341 10.2413 16.4308 10.5999 16.4308H13.3773C13.7188 16.4308 14.0433 16.3512 14.3392 16.2146L14.8828 17.1024C14.6978 17.3301 14.5498 17.5834 14.4673 17.8537L13.6192 20.4604C13.5965 20.5344 13.5879 20.6141 13.5709 20.691C13.1838 20.7308 12.8281 20.7479 12.5208 20.7479ZM4.7177 17.461H7.23335C7.44109 17.461 7.65737 17.5322 7.8395 17.6659C8.02447 17.7997 8.16107 17.9875 8.22652 18.2009L8.92089 20.3409C7.44109 19.9226 5.84178 19.0945 4.7177 17.461ZM11.5703 3.25498C11.7467 3.25213 11.9488 3.24929 12.1508 3.24929L12.4411 3.25213C12.9989 3.26067 13.7274 3.31759 14.5157 3.48264L12.6232 4.85714C12.2817 5.11611 11.7353 5.1218 11.3768 4.85145L9.50142 3.49118C10.2869 3.32612 11.0125 3.26636 11.5703 3.25498ZM9.61525 14.4502L9.47297 14.0205L8.76437 11.8321C8.61924 11.391 8.77575 10.9101 9.15424 10.6369L11.3825 9.01764C11.724 8.76153 12.2703 8.75299 12.6318 9.02334L14.8543 10.6397C15.2328 10.9129 15.3893 11.391 15.2442 11.8349L14.3961 14.4417C14.251 14.8856 13.8412 15.1844 13.3773 15.1844H10.6113C10.1559 15.1816 9.75754 14.8884 9.61525 14.4502ZM20.7393 11.7069L18.9977 10.4405C18.8241 10.3182 18.6875 10.1303 18.6164 9.91121C18.5452 9.69493 18.5452 9.46443 18.6192 9.251L19.4388 6.72112C20.1901 7.93056 20.691 9.54696 20.7393 11.7069ZM15.9442 3.90381C16.8719 4.25953 17.7968 4.80876 18.5908 5.63973C18.457 5.83039 18.346 6.03529 18.2749 6.2601L17.4297 8.86113C17.3358 9.13717 17.3045 9.43028 17.3244 9.72339L16.152 10.2157C16.0011 9.99374 15.8162 9.78884 15.5857 9.62664L13.3717 8.01878C13.1497 7.85373 12.8964 7.7399 12.6261 7.6716V6.21742C12.8964 6.14343 13.1497 6.02675 13.3631 5.86454L15.58 4.25384C15.7223 4.15424 15.8332 4.02618 15.9442 3.90381ZM8.07285 3.9095C8.18099 4.02903 8.28913 4.15424 8.42288 4.251L10.634 5.856C10.856 6.0239 11.1093 6.14058 11.3796 6.21457V7.66591C11.1121 7.73705 10.8589 7.84804 10.6426 8.01024L8.42573 9.62094C8.18953 9.78884 7.99886 9.99943 7.84519 10.2299L6.6329 9.66932C6.65566 9.37052 6.62436 9.07171 6.53045 8.79567L5.68526 6.18896C5.62265 5.9926 5.5259 5.81047 5.41491 5.63973C6.20888 4.81446 7.13944 4.26522 8.07285 3.9095ZM4.55265 6.75526L5.34377 9.19693C5.41491 9.39898 5.41207 9.62948 5.34092 9.84861C5.26978 10.0649 5.13603 10.2527 4.9539 10.3836L3.27205 11.6073C3.32328 9.50996 3.81559 7.93341 4.55265 6.75526ZM4.45304 16.2089C4.31929 16.2089 4.18839 16.2231 4.06033 16.2459C3.67615 15.3722 3.40865 14.3364 3.30905 13.0956C3.36027 13.0643 3.42003 13.0415 3.47126 13.0046L5.68241 11.3967C5.89015 11.2487 6.06944 11.0637 6.21742 10.856L7.4667 11.4337C7.45817 11.6955 7.49232 11.9602 7.57769 12.2191L8.56801 15.2698H8.61924C8.63347 15.2925 8.65339 15.3096 8.66762 15.3324L7.99317 16.3512C7.74274 16.2601 7.47809 16.2089 7.21059 16.2117H4.45304V16.2089ZM19.4246 16.2516H16.65C16.3995 16.2516 16.1463 16.2999 15.9072 16.3825L15.3011 15.3978C15.4178 15.2242 15.5174 15.0336 15.5828 14.8287L16.4308 12.222C16.5191 11.9516 16.5504 11.6784 16.5418 11.4081L17.7314 10.9072C17.8822 11.1235 18.0615 11.3113 18.2692 11.4593L20.4861 13.0729C20.5515 13.1212 20.6283 13.1525 20.6966 13.1924C20.597 14.4274 20.3324 15.4576 19.9596 16.3227C19.786 16.28 19.6067 16.2516 19.4246 16.2516ZM12.461 2.00285C12.3586 2 12.2561 2 12.1508 2C11.9374 2 11.7268 2.00285 11.5447 2.00569C9.63517 2.04269 2 2.75697 2 11.9744C2 21.1719 9.62379 21.9459 11.5817 21.9915C11.8122 21.9972 12.074 22 12.3301 22H12.5293C14.5384 21.9829 22 21.2943 22 12.0341C22.0028 2.75697 14.4701 2.0313 12.461 2.00285Z" fill="#86888C"/>
</svg>
