<svg width="20" height="20" viewBox="0 0 20 20" fill="none" xmlns="http://www.w3.org/2000/svg">
<path fill-rule="evenodd" clip-rule="evenodd" d="M12.3472 16.7615L12.9254 14.9858C12.9755 14.8219 13.0848 14.6716 13.2328 14.5646C13.3808 14.4576 13.5697 14.4075 13.7359 14.403H15.8759C14.9425 15.8054 13.5743 16.461 12.3472 16.7615ZM10.4166 16.9983H10.2664C10.0706 16.9983 9.86796 16.996 9.69266 16.9915C9.39442 16.9846 9.03472 16.9573 8.64314 16.9027C8.62948 16.8458 8.62721 16.7888 8.60899 16.7365L7.93284 14.6534C7.86454 14.4371 7.75071 14.2368 7.60729 14.0592L8.08082 13.3443C8.32669 13.4673 8.59306 13.5447 8.87991 13.5447H11.1019C11.3751 13.5447 11.6346 13.4809 11.8714 13.3717L12.3062 14.082C12.1582 14.2641 12.0398 14.4667 11.9738 14.683L11.2954 16.7684C11.2772 16.8275 11.2703 16.8913 11.2567 16.9528C10.9471 16.9846 10.6625 16.9983 10.4166 16.9983ZM4.17416 14.3688H6.18668C6.35287 14.3688 6.5259 14.4257 6.6716 14.5327C6.81958 14.6397 6.92886 14.79 6.98122 14.9607L7.53671 16.6727C6.35287 16.3381 5.07342 15.6756 4.17416 14.3688ZM9.65623 3.00398C9.79738 3.00171 9.95902 2.99943 10.1207 2.99943L10.3529 3.00171C10.7991 3.00854 11.3819 3.05407 12.0125 3.18611L10.4986 4.28571C10.2254 4.49289 9.78828 4.49744 9.50142 4.28116L8.00114 3.19294C8.62948 3.0609 9.21002 3.01309 9.65623 3.00398ZM8.0922 11.9602L7.97837 11.6164L7.4115 9.86568C7.29539 9.51281 7.4206 9.12806 7.72339 8.90951L9.50598 7.61412C9.77917 7.40922 10.2163 7.40239 10.5054 7.61867L12.2834 8.91178C12.5862 9.13034 12.7114 9.51281 12.5953 9.86796L11.9169 11.9533C11.8008 12.3085 11.473 12.5475 11.1019 12.5475H8.88902C8.52476 12.5452 8.20603 12.3108 8.0922 11.9602ZM16.9915 9.76551L15.5982 8.75242C15.4593 8.65453 15.35 8.50427 15.2931 8.32897C15.2362 8.15595 15.2362 7.97154 15.2954 7.8008L15.9511 5.77689C16.5521 6.74445 16.9528 8.03756 16.9915 9.76551ZM13.1554 3.52305C13.8976 3.80763 14.6375 4.24701 15.2726 4.91178C15.1656 5.06431 15.0768 5.22823 15.0199 5.40808L14.3438 7.4889C14.2686 7.70973 14.2436 7.94422 14.2595 8.17871L13.3216 8.57257C13.2009 8.39499 13.0529 8.23108 12.8685 8.10131L11.0973 6.81503C10.9198 6.68298 10.7171 6.59192 10.5009 6.53728V5.37393C10.7171 5.31474 10.9198 5.2214 11.0905 5.09163L12.864 3.80307C12.9778 3.72339 13.0666 3.62094 13.1554 3.52305ZM6.85828 3.5276C6.94479 3.62322 7.0313 3.72339 7.1383 3.8008L8.90723 5.0848C9.0848 5.21912 9.28742 5.31246 9.5037 5.37166V6.53273C9.2897 6.58964 9.08708 6.67843 8.91406 6.8082L7.14058 8.09676C6.95162 8.23108 6.79909 8.39955 6.67615 8.58395L5.70632 8.13546C5.72453 7.89641 5.69949 7.65737 5.62436 7.43654L4.94821 5.35117C4.89812 5.19408 4.82072 5.04838 4.73193 4.91178C5.3671 4.25157 6.11155 3.81218 6.85828 3.5276ZM4.04212 5.80421L4.67501 7.75754C4.73193 7.91918 4.72965 8.10359 4.67274 8.27888C4.61582 8.45191 4.50882 8.60216 4.36312 8.70689L3.01764 9.68583C3.05862 8.00797 3.45248 6.74673 4.04212 5.80421ZM3.96244 13.3671C3.85544 13.3671 3.75071 13.3785 3.64826 13.3967C3.34092 12.6978 3.12692 11.8691 3.04724 10.8765C3.08822 10.8515 3.13603 10.8332 3.17701 10.8036L4.94593 9.51736C5.11212 9.39898 5.25555 9.251 5.37393 9.0848L6.37336 9.54696C6.36653 9.7564 6.39385 9.96813 6.46215 10.1753L7.25441 12.6158H7.29539C7.30677 12.634 7.32271 12.6477 7.33409 12.6659L6.79454 13.4809C6.59419 13.4081 6.38247 13.3671 6.16847 13.3694H3.96244V13.3671ZM15.9397 13.4013H13.72C13.5196 13.4013 13.317 13.44 13.1258 13.506L12.6409 12.7183C12.7342 12.5794 12.8139 12.4269 12.8663 12.2629L13.5447 10.1776C13.6153 9.9613 13.6403 9.74274 13.6335 9.52647L14.5851 9.12578C14.7057 9.29881 14.8492 9.44906 15.0154 9.56744L16.7888 10.8583C16.8412 10.897 16.9027 10.922 16.9573 10.9539C16.8776 11.9419 16.6659 12.7661 16.3677 13.4582C16.2288 13.424 16.0854 13.4013 15.9397 13.4013ZM10.3688 2.00228C10.2869 2 10.2049 2 10.1207 2C9.94992 2 9.78145 2.00228 9.63574 2.00455C8.10814 2.03415 2 2.60558 2 9.97951C2 17.3375 8.09903 17.9567 9.66534 17.9932C9.84974 17.9977 10.0592 18 10.2641 18H10.4234C12.0307 17.9863 18 17.4354 18 10.0273C18.0023 2.60558 11.9761 2.02504 10.3688 2.00228Z" fill="#86888C"/>
</svg>
