<svg width="24" height="24" viewBox="0 0 24 24" fill="none" xmlns="http://www.w3.org/2000/svg">
<path fill-rule="evenodd" clip-rule="evenodd" d="M20.7511 11.8605C20.697 11.9971 20.5263 12.1536 20.2332 12.1536H19.0836C18.7449 12.1536 18.4717 12.4268 18.4717 12.7654V20.4145C18.4717 20.6365 18.2242 20.8215 17.9311 20.8215H17.1656V12.8508C17.1656 12.5121 16.8924 12.2389 16.5538 12.2389H7.4192C7.08057 12.2389 6.80738 12.5121 6.80738 12.8508V20.8215H5.95369C5.66058 20.8215 5.41301 20.6365 5.41301 20.4145V12.7654C5.41301 12.4268 5.13983 12.1536 4.8012 12.1536H3.76822C3.47227 12.1536 3.30438 11.9942 3.25031 11.8605C3.19624 11.7324 3.22755 11.6129 3.34137 11.5019L11.5739 3.43164C11.793 3.21537 12.2084 3.21537 12.4276 3.43164L20.66 11.5019C20.7739 11.6129 20.8023 11.7353 20.7511 11.8605ZM8.03102 15.1102H15.9419V13.4654H8.03102V15.1102ZM8.03102 20.8215H15.9419V19.188H8.03102V20.8215ZM8.03102 17.9673H15.9419V16.3339H8.03102V17.9673ZM21.5166 10.6283L13.2841 2.56087C12.5898 1.88075 11.4117 1.88075 10.7173 2.56087L2.48198 10.6312C2.0153 11.0893 1.87586 11.7381 2.11489 12.3272C2.37669 12.9674 3.0255 13.3829 3.76538 13.3829H4.18653V20.4202C4.18653 21.3194 4.97763 22.0508 5.95084 22.0508H7.41636C7.42205 22.0508 7.42489 22.0479 7.43058 22.0479C7.43343 22.0479 7.43628 22.0508 7.43912 22.0508H16.5025C16.5111 22.0508 16.5168 22.0479 16.5225 22.0479C16.531 22.0479 16.5395 22.0508 16.5481 22.0508H17.9254C18.8986 22.0508 19.6897 21.3194 19.6897 20.4202V13.3829H20.2275C20.9674 13.3829 21.6162 12.9703 21.878 12.3272C22.1256 11.7353 21.9833 11.0865 21.5166 10.6283Z" fill="#86888C"/>
</svg>
