<svg width="28" height="28" viewBox="0 0 28 28" fill="none" xmlns="http://www.w3.org/2000/svg">
<path fill-rule="evenodd" clip-rule="evenodd" d="M24.5013 14.8224C24.4365 14.9863 24.2316 15.1741 23.8798 15.1741H22.5003C22.0939 15.1741 21.7661 15.502 21.7661 15.9083V25.0873C21.7661 25.3536 21.469 25.5756 21.1173 25.5756H20.1987V16.0108C20.1987 15.6044 19.8709 15.2766 19.4645 15.2766H8.50304C8.09668 15.2766 7.76886 15.6044 7.76886 16.0108V25.5756H6.74443C6.3927 25.5756 6.09562 25.3536 6.09562 25.0873V15.9083C6.09562 15.502 5.7678 15.1741 5.36144 15.1741H4.12187C3.76673 15.1741 3.56526 14.9829 3.50037 14.8224C3.43549 14.6688 3.47306 14.5253 3.60965 14.3922L13.4886 4.70781C13.7516 4.44828 14.2501 4.44828 14.5131 4.70781L24.3921 14.3922C24.5287 14.5253 24.5628 14.6722 24.5013 14.8224ZM9.23722 18.7221H18.7303V16.7484H9.23722V18.7221ZM9.23722 25.5756H18.7303V23.6155H9.23722V25.5756ZM9.23722 22.1506H18.7303V20.1905H9.23722V22.1506ZM25.4199 13.3438L15.5409 3.66288C14.7077 2.84675 13.294 2.84675 12.4608 3.66288L2.57838 13.3472C2.01836 13.897 1.85103 14.6756 2.13787 15.3824C2.45203 16.1508 3.23061 16.6493 4.11845 16.6493H4.62384V25.0941C4.62384 26.1732 5.57315 27.0508 6.74101 27.0508H8.49963C8.50646 27.0508 8.50987 27.0474 8.5167 27.0474C8.52012 27.0474 8.52353 27.0508 8.52695 27.0508H19.4031C19.4133 27.0508 19.4201 27.0474 19.427 27.0474C19.4372 27.0474 19.4474 27.0508 19.4577 27.0508H21.1104C22.2783 27.0508 23.2276 26.1732 23.2276 25.0941V16.6493H23.873C24.7609 16.6493 25.5394 16.1542 25.8536 15.3824C26.1507 14.6722 25.9799 13.8936 25.4199 13.3438Z" fill="#86888C"/>
</svg>
