<svg width="20" height="20" viewBox="0 0 20 20" fill="none" xmlns="http://www.w3.org/2000/svg">
<path fill-rule="evenodd" clip-rule="evenodd" d="M15.9441 8.41645C16.8589 8.40052 16.9887 7.80197 17.0091 7.43556V7.3195C17.0091 7.31267 17.0137 7.30584 17.0137 7.29901V7.2717C17.0137 7.08508 17.0114 6.7073 16.7656 6.43647L16.7247 6.39551C16.5654 6.24075 16.3173 6.12696 15.9281 6.11785L15.7938 6.11558H15.7574C14.7083 6.12468 14.7083 6.94853 14.7083 7.25805C14.7083 7.56984 14.7083 8.40052 15.7756 8.41417H15.8189L15.9441 8.41645ZM10.787 16.8757V3.13651C10.7825 3.08871 10.6869 2.99768 10.6254 2.99768H3.14702C3.08557 2.99768 2.98999 3.08871 2.98544 3.13878V16.878C2.98544 16.9281 3.06737 17.0168 3.14702 17.0168H10.6254C10.7051 17.0168 10.787 16.9258 10.787 16.8757ZM17.99 7.35591L17.9969 15.7128C17.9969 17.3673 16.8111 17.9772 15.7938 17.9977H15.6778C14.599 17.9841 13.411 17.3741 13.411 15.7037V12.5585C13.4088 11.8689 12.8489 11.3113 12.1593 11.3113H11.7679V16.8803C11.7679 17.4766 11.2331 18 10.6231 18H3.14475C2.53482 18 2 17.4766 2 16.8803V3.13423C2.00228 2.54934 2.54848 2.0168 3.14702 2.0168H10.6254C11.224 2.0168 11.7702 2.55162 11.7702 3.13651V10.3282H12.1616C13.3928 10.3282 14.3919 11.325 14.3942 12.5562L14.3965 15.7014C14.3965 16.8302 15.1703 17.01 15.6323 17.0168H15.7802C16.2422 17.0077 17.0182 16.8279 17.0182 15.7128L17.0137 9.13561C16.6883 9.29947 16.3287 9.38823 15.9623 9.39734L15.8257 9.39961H15.7688C15.3387 9.39278 13.7319 9.23803 13.7319 7.2626C13.7319 5.5762 14.8949 5.22573 15.498 5.15745L13.2017 2.8361C13.0105 2.64265 13.0128 2.33314 13.2062 2.14197C13.3997 1.9508 13.7092 1.95307 13.9004 2.14652L17.4211 5.70365C17.4416 5.72413 17.4643 5.74462 17.4848 5.76737L17.4893 5.7742L17.4916 5.77875C17.7829 6.0951 17.9946 6.56619 17.9946 7.2717C17.9946 7.30129 17.9923 7.32632 17.99 7.35591ZM8.82751 7.48791L8.83206 5.05049H5.04962L5.04279 7.48563L8.82751 7.48791ZM8.97089 4.07188C9.4215 4.07188 9.81522 4.51111 9.81522 5.01407V7.52432C9.81522 8.03411 9.42833 8.46652 8.97089 8.46652H4.90852C4.45108 8.46652 4.06191 8.03411 4.06191 7.52432V5.01407C4.06191 4.51111 4.4579 4.07188 4.90852 4.07188H8.97089Z" fill="#86888C"/>
<path fill-rule="evenodd" clip-rule="evenodd" d="M15.9441 8.41645C16.8589 8.40052 16.9887 7.80197 17.0091 7.43556V7.3195C17.0091 7.31267 17.0137 7.30584 17.0137 7.29901V7.2717C17.0137 7.08508 17.0114 6.7073 16.7656 6.43647L16.7247 6.39551C16.5654 6.24075 16.3173 6.12696 15.9281 6.11785L15.7938 6.11558H15.7574C14.7083 6.12468 14.7083 6.94853 14.7083 7.25805C14.7083 7.56984 14.7083 8.40052 15.7756 8.41417H15.8189L15.9441 8.41645ZM10.787 16.8757V3.13651C10.7825 3.08871 10.6869 2.99768 10.6254 2.99768H3.14702C3.08557 2.99768 2.98999 3.08871 2.98544 3.13878V16.878C2.98544 16.9281 3.06737 17.0168 3.14702 17.0168H10.6254C10.7051 17.0168 10.787 16.9258 10.787 16.8757ZM17.99 7.35591L17.9969 15.7128C17.9969 17.3673 16.8111 17.9772 15.7938 17.9977H15.6778C14.599 17.9841 13.411 17.3741 13.411 15.7037V12.5585C13.4088 11.8689 12.8489 11.3113 12.1593 11.3113H11.7679V16.8803C11.7679 17.4766 11.2331 18 10.6231 18H3.14475C2.53482 18 2 17.4766 2 16.8803V3.13423C2.00228 2.54934 2.54848 2.0168 3.14702 2.0168H10.6254C11.224 2.0168 11.7702 2.55162 11.7702 3.13651V10.3282H12.1616C13.3928 10.3282 14.3919 11.325 14.3942 12.5562L14.3965 15.7014C14.3965 16.8302 15.1703 17.01 15.6323 17.0168H15.7802C16.2422 17.0077 17.0182 16.8279 17.0182 15.7128L17.0137 9.13561C16.6883 9.29947 16.3287 9.38823 15.9623 9.39734L15.8257 9.39961H15.7688C15.3387 9.39278 13.7319 9.23803 13.7319 7.2626C13.7319 5.5762 14.8949 5.22573 15.498 5.15745L13.2017 2.8361C13.0105 2.64265 13.0128 2.33314 13.2062 2.14197C13.3997 1.9508 13.7092 1.95307 13.9004 2.14652L17.4211 5.70365C17.4416 5.72413 17.4643 5.74462 17.4848 5.76737L17.4893 5.7742L17.4916 5.77875C17.7829 6.0951 17.9946 6.56619 17.9946 7.2717C17.9946 7.30129 17.9923 7.32632 17.99 7.35591ZM8.82751 7.48791L8.83206 5.05049H5.04962L5.04279 7.48563L8.82751 7.48791ZM8.97089 4.07188C9.4215 4.07188 9.81522 4.51111 9.81522 5.01407V7.52432C9.81522 8.03411 9.42833 8.46652 8.97089 8.46652H4.90852C4.45108 8.46652 4.06191 8.03411 4.06191 7.52432V5.01407C4.06191 4.51111 4.4579 4.07188 4.90852 4.07188H8.97089Z" fill="#86888C"/>
</svg>
