<svg width="28" height="28" viewBox="0 0 28 28" fill="none" xmlns="http://www.w3.org/2000/svg">
<path fill-rule="evenodd" clip-rule="evenodd" d="M22.9161 11.6247C24.2884 11.6008 24.483 10.703 24.5137 10.1533V9.97924C24.5137 9.969 24.5205 9.95876 24.5205 9.94852V9.90755C24.5205 9.62763 24.5171 9.06094 24.1484 8.65471L24.087 8.59326C23.848 8.36112 23.4759 8.19044 22.8922 8.17678L22.6908 8.17337H22.6362C21.0624 8.18702 21.0624 9.4228 21.0624 9.88707C21.0624 10.3548 21.0624 11.6008 22.6635 11.6213H22.7283L22.9161 11.6247ZM15.1805 24.3136V3.70476C15.1737 3.63307 15.0303 3.49652 14.9381 3.49652H3.72053C3.62836 3.49652 3.48498 3.63307 3.47816 3.70817V24.317C3.47816 24.3921 3.60105 24.5253 3.72053 24.5253H14.9381C15.0576 24.5253 15.1805 24.3887 15.1805 24.3136ZM25.985 10.0339L25.9953 22.5692C25.9953 25.051 24.2167 25.9659 22.6908 25.9966H22.5167C20.8986 25.9761 19.1166 25.0612 19.1166 22.5555V17.8377C19.1132 16.8033 18.2734 15.967 17.239 15.967H16.6518V24.3204C16.6518 25.2148 15.8496 26 14.9347 26H3.71712C2.80223 26 2 25.2148 2 24.3204V3.70135C2.00341 2.82401 2.82271 2.02519 3.72053 2.02519H14.9381C15.836 2.02519 16.6553 2.82743 16.6553 3.70476V14.4922H17.2424C19.0893 14.4922 20.5879 15.9875 20.5913 17.8343L20.5947 22.5521C20.5947 24.2453 21.7554 24.515 22.4484 24.5253H22.6703C23.3633 24.5116 24.5274 24.2419 24.5274 22.5692L24.5205 12.7034C24.0324 12.9492 23.493 13.0823 22.9434 13.096L22.7386 13.0994H22.6532C22.008 13.0892 19.5979 12.857 19.5979 9.8939C19.5979 7.36431 21.3423 6.83859 22.247 6.73618L18.8025 3.25415C18.5157 2.96398 18.5192 2.49971 18.8093 2.21295C19.0995 1.92619 19.5638 1.92961 19.8505 2.21978L25.1316 7.55548C25.1623 7.5862 25.1965 7.61692 25.2272 7.65106L25.234 7.6613L25.2374 7.66813C25.6744 8.14264 25.9919 8.84929 25.9919 9.90755C25.9919 9.95193 25.9885 9.98948 25.985 10.0339ZM12.2413 10.2319L12.2481 6.57573H6.57443L6.56419 10.2284L12.2413 10.2319ZM12.4563 5.10781C13.1323 5.10781 13.7228 5.76667 13.7228 6.52111V10.2865C13.7228 11.0512 13.1425 11.6998 12.4563 11.6998H6.36278C5.67661 11.6998 5.09286 11.0512 5.09286 10.2865V6.52111C5.09286 5.76667 5.68686 5.10781 6.36278 5.10781H12.4563Z" fill="#86888C"/>
<path fill-rule="evenodd" clip-rule="evenodd" d="M22.9161 11.6247C24.2884 11.6008 24.483 10.703 24.5137 10.1533V9.97924C24.5137 9.969 24.5205 9.95876 24.5205 9.94852V9.90755C24.5205 9.62763 24.5171 9.06094 24.1484 8.65471L24.087 8.59326C23.848 8.36112 23.4759 8.19044 22.8922 8.17678L22.6908 8.17337H22.6362C21.0624 8.18702 21.0624 9.4228 21.0624 9.88707C21.0624 10.3548 21.0624 11.6008 22.6635 11.6213H22.7283L22.9161 11.6247ZM15.1805 24.3136V3.70476C15.1737 3.63307 15.0303 3.49652 14.9381 3.49652H3.72053C3.62836 3.49652 3.48498 3.63307 3.47816 3.70817V24.317C3.47816 24.3921 3.60105 24.5253 3.72053 24.5253H14.9381C15.0576 24.5253 15.1805 24.3887 15.1805 24.3136ZM25.985 10.0339L25.9953 22.5692C25.9953 25.051 24.2167 25.9659 22.6908 25.9966H22.5167C20.8986 25.9761 19.1166 25.0612 19.1166 22.5555V17.8377C19.1132 16.8033 18.2734 15.967 17.239 15.967H16.6518V24.3204C16.6518 25.2148 15.8496 26 14.9347 26H3.71712C2.80223 26 2 25.2148 2 24.3204V3.70135C2.00341 2.82401 2.82271 2.02519 3.72053 2.02519H14.9381C15.836 2.02519 16.6553 2.82743 16.6553 3.70476V14.4922H17.2424C19.0893 14.4922 20.5879 15.9875 20.5913 17.8343L20.5947 22.5521C20.5947 24.2453 21.7554 24.515 22.4484 24.5253H22.6703C23.3633 24.5116 24.5274 24.2419 24.5274 22.5692L24.5205 12.7034C24.0324 12.9492 23.493 13.0823 22.9434 13.096L22.7386 13.0994H22.6532C22.008 13.0892 19.5979 12.857 19.5979 9.8939C19.5979 7.36431 21.3423 6.83859 22.247 6.73618L18.8025 3.25415C18.5157 2.96398 18.5192 2.49971 18.8093 2.21295C19.0995 1.92619 19.5638 1.92961 19.8505 2.21978L25.1316 7.55548C25.1623 7.5862 25.1965 7.61692 25.2272 7.65106L25.234 7.6613L25.2374 7.66813C25.6744 8.14264 25.9919 8.84929 25.9919 9.90755C25.9919 9.95193 25.9885 9.98948 25.985 10.0339ZM12.2413 10.2319L12.2481 6.57573H6.57443L6.56419 10.2284L12.2413 10.2319ZM12.4563 5.10781C13.1323 5.10781 13.7228 5.76667 13.7228 6.52111V10.2865C13.7228 11.0512 13.1425 11.6998 12.4563 11.6998H6.36278C5.67661 11.6998 5.09286 11.0512 5.09286 10.2865V6.52111C5.09286 5.76667 5.68686 5.10781 6.36278 5.10781H12.4563Z" fill="#86888C"/>
</svg>
