<svg width="40" height="40" viewBox="0 0 40 40" fill="none" xmlns="http://www.w3.org/2000/svg">
<path fill-rule="evenodd" clip-rule="evenodd" d="M33.3741 16.437C35.4326 16.4012 35.7245 15.0544 35.7706 14.23V13.9689C35.7706 13.9535 35.7808 13.9381 35.7808 13.9228V13.8613C35.7808 13.4414 35.7757 12.5914 35.2227 11.9821L35.1305 11.8899C34.7721 11.5417 34.2139 11.2857 33.3383 11.2652L33.0362 11.2601H32.9542C30.5936 11.2805 30.5936 13.1342 30.5936 13.8306C30.5936 14.5321 30.5936 16.4012 32.9952 16.4319H33.0925L33.3741 16.437ZM21.7708 35.4704V4.55714C21.7605 4.44961 21.5455 4.24478 21.4072 4.24478H4.5808C4.44254 4.24478 4.22748 4.44961 4.21723 4.56226V35.4755C4.21723 35.5882 4.40158 35.7879 4.5808 35.7879H21.4072C21.5864 35.7879 21.7708 35.5831 21.7708 35.4704ZM37.9776 14.0508L37.9929 32.8538C37.9929 36.5765 35.3251 37.9488 33.0362 37.9949H32.775C30.3478 37.9642 27.6749 36.5918 27.6749 32.8333V25.7566C27.6697 24.205 26.4101 22.9505 24.8585 22.9505H23.9778V35.4806C23.9778 36.8223 22.7744 38 21.4021 38H4.57568C3.20335 38 2 36.8223 2 35.4806V4.55202C2.00512 3.23602 3.23407 2.03779 4.5808 2.03779H21.4072C22.7539 2.03779 23.9829 3.24114 23.9829 4.55714V20.7383H24.8636C27.6339 20.7383 29.8818 22.9812 29.887 25.7514L29.8921 32.8282C29.8921 35.368 31.6331 35.7725 32.6726 35.7879H33.0054C34.0449 35.7674 35.7911 35.3629 35.7911 32.8538L35.7808 18.0551C35.0486 18.4238 34.2395 18.6235 33.4151 18.644L33.1078 18.6491H32.9798C32.012 18.6338 28.3969 18.2856 28.3969 13.8408C28.3969 10.0465 31.0135 9.25788 32.3705 9.10426L27.2038 3.88122C26.7736 3.44596 26.7787 2.74956 27.214 2.31943C27.6493 1.88929 28.3457 1.89441 28.7758 2.32967L36.6974 10.3332C36.7435 10.3793 36.7947 10.4254 36.8408 10.4766L36.851 10.492L36.8562 10.5022C37.5116 11.214 37.9878 12.2739 37.9878 13.8613C37.9878 13.9279 37.9827 13.9842 37.9776 14.0508ZM17.3619 14.3478L17.3721 8.86359H8.86165L8.84629 14.3427L17.3619 14.3478ZM17.6845 6.66172C18.6984 6.66172 19.5843 7.65 19.5843 8.78166V14.4297C19.5843 15.5767 18.7137 16.5497 17.6845 16.5497H8.54417C7.51492 16.5497 6.63929 15.5767 6.63929 14.4297V8.78166C6.63929 7.65 7.53028 6.66172 8.54417 6.66172H17.6845Z" fill="#86888C"/>
<path fill-rule="evenodd" clip-rule="evenodd" d="M33.3741 16.437C35.4326 16.4012 35.7245 15.0544 35.7706 14.23V13.9689C35.7706 13.9535 35.7808 13.9381 35.7808 13.9228V13.8613C35.7808 13.4414 35.7757 12.5914 35.2227 11.9821L35.1305 11.8899C34.7721 11.5417 34.2139 11.2857 33.3383 11.2652L33.0362 11.2601H32.9542C30.5936 11.2805 30.5936 13.1342 30.5936 13.8306C30.5936 14.5321 30.5936 16.4012 32.9952 16.4319H33.0925L33.3741 16.437ZM21.7708 35.4704V4.55714C21.7605 4.44961 21.5455 4.24478 21.4072 4.24478H4.5808C4.44254 4.24478 4.22748 4.44961 4.21723 4.56226V35.4755C4.21723 35.5882 4.40158 35.7879 4.5808 35.7879H21.4072C21.5864 35.7879 21.7708 35.5831 21.7708 35.4704ZM37.9776 14.0508L37.9929 32.8538C37.9929 36.5765 35.3251 37.9488 33.0362 37.9949H32.775C30.3478 37.9642 27.6749 36.5918 27.6749 32.8333V25.7566C27.6697 24.205 26.4101 22.9505 24.8585 22.9505H23.9778V35.4806C23.9778 36.8223 22.7744 38 21.4021 38H4.57568C3.20335 38 2 36.8223 2 35.4806V4.55202C2.00512 3.23602 3.23407 2.03779 4.5808 2.03779H21.4072C22.7539 2.03779 23.9829 3.24114 23.9829 4.55714V20.7383H24.8636C27.6339 20.7383 29.8818 22.9812 29.887 25.7514L29.8921 32.8282C29.8921 35.368 31.6331 35.7725 32.6726 35.7879H33.0054C34.0449 35.7674 35.7911 35.3629 35.7911 32.8538L35.7808 18.0551C35.0486 18.4238 34.2395 18.6235 33.4151 18.644L33.1078 18.6491H32.9798C32.012 18.6338 28.3969 18.2856 28.3969 13.8408C28.3969 10.0465 31.0135 9.25788 32.3705 9.10426L27.2038 3.88122C26.7736 3.44596 26.7787 2.74956 27.214 2.31943C27.6493 1.88929 28.3457 1.89441 28.7758 2.32967L36.6974 10.3332C36.7435 10.3793 36.7947 10.4254 36.8408 10.4766L36.851 10.492L36.8562 10.5022C37.5116 11.214 37.9878 12.2739 37.9878 13.8613C37.9878 13.9279 37.9827 13.9842 37.9776 14.0508ZM17.3619 14.3478L17.3721 8.86359H8.86165L8.84629 14.3427L17.3619 14.3478ZM17.6845 6.66172C18.6984 6.66172 19.5843 7.65 19.5843 8.78166V14.4297C19.5843 15.5767 18.7137 16.5497 17.6845 16.5497H8.54417C7.51492 16.5497 6.63929 15.5767 6.63929 14.4297V8.78166C6.63929 7.65 7.53028 6.66172 8.54417 6.66172H17.6845Z" fill="#86888C"/>
</svg>
