<svg width="24" height="24" viewBox="0 0 24 24" fill="none" xmlns="http://www.w3.org/2000/svg">
<path fill-rule="evenodd" clip-rule="evenodd" d="M19.1668 16.3403H20.2522V8.85895H19.1668V16.3403ZM16.8099 17.7782V13.6836C16.8099 13.6753 16.8127 13.6725 16.8127 13.6642V11.5378C16.8127 11.5295 16.8099 11.5267 16.8099 11.5184V7.42376H17.8981V8.83674C17.8981 8.84507 17.8954 8.85062 17.8954 8.86173V16.343C17.8954 16.3514 17.8981 16.3597 17.8981 16.368V17.781H16.8099V17.7782ZM7.99893 13.6642H15.5441V11.5378H7.99893V13.6642ZM5.64211 17.7782V7.42376H6.7303V11.3907C6.72475 11.4406 6.71642 11.4878 6.71642 11.5378V13.6642C6.71642 13.7142 6.72475 13.7641 6.7303 13.8113V17.7755H5.64211V17.7782ZM3.27696 16.3403H4.36515V8.85895H3.27696V16.3403ZM20.2494 7.5348H19.164V7.42376C19.164 6.6909 18.5949 6.09961 17.8954 6.09961H16.8072C16.1076 6.09961 15.5385 6.69367 15.5385 7.42376V10.2136H7.99338V7.42376C7.99338 6.6909 7.4243 6.09961 6.72475 6.09961H5.63656C4.93701 6.09961 4.36793 6.69367 4.36793 7.42376V7.53758C4.36237 7.53758 4.3596 7.5348 4.35682 7.5348H3.26863C2.56908 7.5348 2 8.12886 2 8.85895V16.3403C2 17.0731 2.5663 17.6644 3.26863 17.6644H4.35682C4.36237 17.6644 4.36515 17.6616 4.36793 17.6616V17.7755C4.36793 18.5083 4.93701 19.0996 5.63656 19.0996H6.72475C7.4243 19.0996 7.99338 18.5055 7.99338 17.7755V14.9884H15.5385V17.7755C15.5385 18.5083 16.1048 19.0996 16.8072 19.0996H17.8954C18.5949 19.0996 19.164 18.5055 19.164 17.7755V17.6644H20.2494C20.949 17.6644 21.518 17.0704 21.518 16.3403V8.85895C21.518 8.12886 20.949 7.5348 20.2494 7.5348Z" fill="#86888C"/>
</svg>
