<svg width="28" height="28" viewBox="0 0 28 28" fill="none" xmlns="http://www.w3.org/2000/svg">
<path fill-rule="evenodd" clip-rule="evenodd" d="M23.1283 19.7035H24.4642V10.4957H23.1283V19.7035ZM20.2276 21.4733V16.4338C20.2276 16.4235 20.231 16.4201 20.231 16.4099V13.7928C20.231 13.7825 20.2276 13.7791 20.2276 13.7688V8.72933H21.5669V10.4684C21.5669 10.4786 21.5635 10.4855 21.5635 10.4991V19.7069C21.5635 19.7172 21.5669 19.7274 21.5669 19.7377V21.4767H20.2276V21.4733ZM9.3833 16.4099H18.6697V13.7928H9.3833V16.4099ZM6.4826 21.4733V8.72933H7.82191V13.6117C7.81508 13.6732 7.80483 13.7313 7.80483 13.7928V16.4099C7.80483 16.4714 7.81508 16.5329 7.82191 16.591V21.4699H6.4826V21.4733ZM3.57164 19.7035H4.91095V10.4957H3.57164V19.7035ZM24.4608 8.866H23.1249V8.72933C23.1249 7.82735 22.4245 7.09961 21.5635 7.09961H20.2242C19.3632 7.09961 18.6628 7.83076 18.6628 8.72933V12.163H9.37647V8.72933C9.37647 7.82735 8.67606 7.09961 7.81508 7.09961H6.47576C5.61478 7.09961 4.91437 7.83076 4.91437 8.72933V8.86942C4.90754 8.86942 4.90412 8.866 4.9007 8.866H3.56139C2.70041 8.866 2 9.59715 2 10.4957V19.7035C2 20.6055 2.69699 21.3332 3.56139 21.3332H4.9007C4.90754 21.3332 4.91095 21.3298 4.91437 21.3298V21.4699C4.91437 22.3719 5.61478 23.0996 6.47576 23.0996H7.81508C8.67606 23.0996 9.37647 22.3685 9.37647 21.4699V18.0396H18.6628V21.4699C18.6628 22.3719 19.3598 23.0996 20.2242 23.0996H21.5635C22.4245 23.0996 23.1249 22.3685 23.1249 21.4699V21.3332H24.4608C25.3218 21.3332 26.0222 20.6021 26.0222 19.7035V10.4957C26.0222 9.59715 25.3218 8.866 24.4608 8.866Z" fill="#86888C"/>
</svg>
