<svg width="28" height="28" viewBox="0 0 28 28" fill="none" xmlns="http://www.w3.org/2000/svg">
<path fill-rule="evenodd" clip-rule="evenodd" d="M22.3217 22.5111C23.0729 22.5111 23.6226 22.3267 23.9933 21.9477C24.3576 21.5755 24.5657 20.9164 24.5657 20.131V10.6789C24.4779 10.5867 24.2438 10.474 24.1625 10.4364C23.8047 10.2623 22.7314 9.70908 21.2549 8.94758L21.1899 8.91343C19.0433 7.80363 16.3732 6.42405 14.7178 5.61133C14.5357 5.52254 14.0836 5.34839 13.8234 5.68987C13.6998 5.85036 13.6738 6.02452 13.6738 6.14403C13.6738 6.33526 13.7421 6.53332 13.8657 6.69382C14.0673 6.96017 14.3926 7.22311 14.9519 7.568C15.1647 7.69895 15.3411 7.88601 15.4638 8.11063C15.5864 8.33525 15.651 8.58963 15.6512 8.84855C15.6512 8.97831 15.6349 9.11149 15.5992 9.24125C15.4268 9.88665 14.8641 10.334 14.2202 10.334H5.68616C4.75274 10.3955 4.56736 10.8018 4.56736 11.4438C4.56736 12.2258 4.88934 12.5604 5.64713 12.5604H9.02301C9.46857 12.5604 9.89463 12.779 10.1646 13.1512C10.3532 13.4107 10.454 13.7283 10.454 14.0493C10.454 14.1825 10.4345 14.3191 10.3987 14.4522C10.3662 14.5786 10.3467 14.722 10.3467 14.8859C10.3467 15.6645 10.724 15.7772 10.8833 15.825C11.2573 15.9377 11.5696 16.2006 11.7517 16.5592C11.8623 16.7777 11.9176 17.0133 11.9176 17.2558C11.9176 17.4129 11.8948 17.5699 11.846 17.7236C11.8037 17.8602 11.781 18.0207 11.781 18.2051C11.781 18.9871 12.1452 19.0964 12.3241 19.1476C12.7014 19.2568 13.0168 19.5232 13.199 19.8818C13.3128 20.1003 13.3681 20.3393 13.3681 20.5818C13.3681 20.7389 13.3453 20.896 13.2965 21.0496C13.2542 21.1828 13.2315 21.3433 13.2315 21.5243C13.2315 22.2311 13.5112 22.5214 14.1942 22.5214H22.3217V22.5111ZM11.8037 21.514C11.8037 21.1691 11.8493 20.855 11.9403 20.5715C10.9451 20.2813 10.3532 19.4242 10.3532 18.1948C10.3532 17.85 10.3987 17.529 10.4898 17.2489C9.5011 16.9553 8.91894 16.1016 8.91894 14.8791C8.91894 14.5786 8.95471 14.2986 9.02301 14.0459H5.65363C4.10554 14.0459 3.14286 13.0488 3.14286 11.4438C3.14286 9.90031 4.03724 8.95441 5.60159 8.84855H5.65363C5.95284 8.84855 11.6444 8.84514 14.2267 8.84855C13.5567 8.43536 13.0884 8.06315 12.7501 7.61581C12.4184 7.17872 12.2493 6.65625 12.2493 6.14403C12.2493 5.6523 12.4021 5.1674 12.7111 4.76446C13.316 3.97222 14.347 3.77758 15.339 4.2659C17.0204 5.09569 19.7231 6.49234 21.8956 7.61581C23.2486 8.31584 24.4161 8.92026 24.7706 9.091C25.1381 9.26857 26 9.68859 26 10.6413V20.1345C26 21.333 25.6422 22.3541 24.995 23.0131C24.3478 23.6688 23.4502 24 22.3217 24H14.1974C12.7209 23.9966 11.8037 23.0439 11.8037 21.514Z" fill="#86888C"/>
</svg>
