<svg width="40" height="40" viewBox="0 0 40 40" fill="none" xmlns="http://www.w3.org/2000/svg">
<path fill-rule="evenodd" clip-rule="evenodd" d="M7.69769 32.6854C6.51443 32.6854 5.65387 32.4105 5.0648 31.8456C4.49109 31.2908 4.16326 30.3086 4.16326 29.138V15.05C4.30156 14.9126 4.67038 14.7447 4.79844 14.6887C5.3619 14.4291 7.05227 13.6046 9.37783 12.4696L9.48028 12.4187C12.861 10.7646 17.0665 8.70843 19.6738 7.49711C19.9606 7.36479 20.6727 7.10522 21.0824 7.61417C21.2771 7.85338 21.3181 8.11295 21.3181 8.29109C21.3181 8.5761 21.2105 8.8713 21.0159 9.11051C20.6983 9.50749 20.186 9.89939 19.305 10.4134C18.9699 10.6086 18.692 10.8874 18.4988 11.2222C18.3057 11.557 18.2039 11.9361 18.2037 12.322C18.2037 12.5154 18.2293 12.7139 18.2856 12.9073C18.5571 13.8693 19.4433 14.536 20.4575 14.536L33.8986 14.536C35.3687 14.6276 35.6607 15.2333 35.6607 16.1901C35.6607 17.3556 35.1536 17.8544 33.9601 17.8544H28.6533C27.9515 17.8544 27.2805 18.1801 26.8553 18.7349C26.5583 19.1217 26.3995 19.595 26.3995 20.0734C26.3995 20.277 26.4302 20.4755 26.4865 20.674C26.5378 20.8623 26.5685 21.0761 26.5685 21.3204C26.5685 22.4808 25.9743 22.6488 25.7233 22.72C25.1342 22.888 24.6425 23.2799 24.3556 23.8143C24.1815 24.14 24.0944 24.4912 24.0944 24.8525C24.0944 25.0867 24.1303 25.3208 24.2071 25.5498C24.2737 25.7534 24.3095 25.9926 24.3095 26.2674C24.3095 27.433 23.7358 27.5958 23.4541 27.6722C22.8599 27.835 22.363 28.232 22.0762 28.7664C21.8969 29.0922 21.8098 29.4484 21.8098 29.8098C21.8098 30.0439 21.8457 30.278 21.9225 30.5071C21.9891 30.7055 22.025 30.9448 22.025 31.2145C22.025 32.268 21.5844 32.7007 20.5087 32.7007H7.69769V32.6854ZM24.2634 31.1992C24.2634 30.6852 24.1917 30.2169 24.0483 29.7945C25.6157 29.3619 26.548 28.0844 26.548 26.2522C26.548 25.7381 26.4763 25.2597 26.3329 24.8424C27.8901 24.4047 28.807 23.1323 28.807 21.3102C28.807 20.8623 28.7506 20.445 28.6431 20.0683H33.9498C36.3881 20.0683 37.9043 18.5822 37.9043 16.1901C37.9043 13.8896 36.4956 12.4798 34.0318 12.322H33.9498C33.4786 12.322 24.5144 12.3169 20.4473 12.322C21.5025 11.7062 22.2401 11.1514 22.7728 10.4847C23.2953 9.83323 23.5617 9.05452 23.5617 8.29109C23.5617 7.55819 23.3209 6.83547 22.8343 6.2349C21.8815 5.05412 20.2577 4.76402 18.6954 5.49182C16.0472 6.72859 11.7905 8.81022 8.36873 10.4847C6.23782 11.5281 4.39889 12.4289 3.84055 12.6834C3.26172 12.948 1.9043 13.5741 1.9043 14.994V29.143C1.9043 30.9295 2.46775 32.4513 3.48711 33.4336C4.50646 34.4108 5.92023 34.9044 7.69769 34.9044H20.4934C22.8189 34.8993 24.2634 33.4794 24.2634 31.1992Z" fill="#86888C"/>
</svg>
