<svg width="40" height="40" viewBox="0 0 40 40" fill="none" xmlns="http://www.w3.org/2000/svg">
<path fill-rule="evenodd" clip-rule="evenodd" d="M32.5899 32.2066C32.5899 33.3899 32.315 34.2504 31.7501 34.8395C31.1953 35.4132 30.213 35.741 29.0424 35.741H14.9545C14.8171 35.6027 14.6491 35.2339 14.5932 35.1059C14.3336 34.5424 13.5091 32.852 12.3741 30.5265L12.3232 30.424C10.6691 27.0433 8.61291 22.8378 7.40159 20.2305C7.26927 19.9437 7.0097 19.2316 7.51865 18.8219C7.75786 18.6272 8.01743 18.5862 8.19557 18.5862C8.48058 18.5862 8.77578 18.6938 9.01499 18.8884C9.41197 19.206 9.80387 19.7183 10.3179 20.5993C10.5131 20.9344 10.7919 21.2123 11.1267 21.4055C11.4615 21.5986 11.8406 21.7004 12.2265 21.7006C12.4199 21.7006 12.6184 21.675 12.8118 21.6187C13.7737 21.3472 14.4405 20.461 14.4405 19.4468V6.00569C14.5321 4.53557 15.1377 4.2436 16.0946 4.2436C17.2601 4.2436 17.7589 4.75071 17.7589 5.94422V11.251C17.7589 11.9528 18.0846 12.6238 18.6394 13.0489C19.0262 13.346 19.4995 13.5048 19.9779 13.5048C20.1815 13.5048 20.38 13.4741 20.5785 13.4178C20.7668 13.3665 20.9806 13.3358 21.2249 13.3358C22.3853 13.3358 22.5532 13.93 22.6245 14.181C22.7924 14.7701 23.1843 15.2618 23.7187 15.5487C24.0445 15.7228 24.3957 15.8099 24.757 15.8099C24.9911 15.8099 25.2253 15.774 25.4543 15.6972C25.6579 15.6306 25.8971 15.5948 26.1719 15.5948C27.3374 15.5948 27.5003 16.1685 27.5766 16.4502C27.7395 17.0444 28.1365 17.5413 28.6709 17.8281C28.9966 18.0074 29.3529 18.0945 29.7143 18.0945C29.9484 18.0945 30.1825 18.0586 30.4115 17.9818C30.61 17.9152 30.8492 17.8793 31.119 17.8793C32.1725 17.8793 32.6051 18.3199 32.6051 19.3956V32.2066H32.5899ZM31.1037 15.6409C30.5897 15.6409 30.1214 15.7126 29.699 15.856C29.2664 14.2886 27.9889 13.3563 26.1567 13.3563C25.6426 13.3563 25.1642 13.428 24.7468 13.5714C24.3091 12.0142 23.0367 11.0973 21.2147 11.0973C20.7668 11.0973 20.3495 11.1537 19.9728 11.2612V5.95447C19.9728 3.51622 18.4867 2 16.0946 2C13.7941 2 12.3843 3.40865 12.2265 5.87251V5.95447C12.2265 6.42573 12.2214 15.3899 12.2265 19.457C11.6107 18.4018 11.0559 17.6642 10.3892 17.1315C9.73771 16.609 8.959 16.3426 8.19557 16.3426C7.46267 16.3426 6.73995 16.5834 6.13938 17.07C4.9586 18.0228 4.6685 19.6466 5.3963 21.2089C6.63307 23.8571 8.7147 28.1138 10.3892 31.5356C11.4325 33.6665 12.3334 35.5054 12.5879 36.0637C12.8525 36.6426 13.4785 38 14.8985 38H29.0475C30.834 38 32.3557 37.4365 33.338 36.4172C34.3152 35.3978 34.8089 33.9841 34.8089 32.2066V19.4109C34.8038 17.0854 33.3838 15.6409 31.1037 15.6409Z" fill="#86888C"/>
</svg>
