<svg width="40" height="40" viewBox="0 0 40 40" fill="none" xmlns="http://www.w3.org/2000/svg">
<path fill-rule="evenodd" clip-rule="evenodd" d="M32.2066 34.6178C33.3899 34.6178 34.2555 34.3228 34.8395 33.7163C35.4132 33.1208 35.741 32.0663 35.741 30.8097V15.6862C35.6027 15.5387 35.2339 15.3584 35.1059 15.2983C34.5424 15.0196 32.852 14.1345 30.5265 12.9161L30.424 12.8615C27.0433 11.0858 22.8378 8.87848 20.2305 7.57812C19.9437 7.43607 19.2316 7.15742 18.8219 7.70379C18.6272 7.96058 18.5862 8.23923 18.5862 8.43046C18.5862 8.73642 18.6938 9.05331 18.8884 9.31011C19.206 9.73627 19.7183 10.157 20.5993 10.7088C20.9344 10.9183 21.2123 11.2176 21.4055 11.577C21.5986 11.9364 21.7004 12.3434 21.7006 12.7577C21.7006 12.9653 21.675 13.1784 21.6187 13.386C21.3472 14.4186 20.461 15.1344 19.4468 15.1344H6.00569C4.53557 15.2327 4.2436 15.8829 4.2436 16.9101C4.2436 18.1613 4.75071 18.6967 5.94423 18.6967H11.2612C11.963 18.6967 12.634 19.0464 13.0592 19.6419C13.3563 20.0572 13.5151 20.5653 13.5151 21.0789C13.5151 21.2919 13.4843 21.5105 13.428 21.7236C13.3768 21.9257 13.346 22.1552 13.346 22.4175C13.346 23.6632 13.9402 23.8435 14.1912 23.92C14.7803 24.1003 15.2721 24.521 15.5589 25.0947C15.7331 25.4443 15.8201 25.8213 15.8201 26.2092C15.8201 26.4606 15.7843 26.7119 15.7075 26.9578C15.6409 27.1763 15.605 27.4331 15.605 27.7281C15.605 28.9793 16.1787 29.1542 16.4604 29.2361C17.0546 29.411 17.5515 29.8371 17.8384 30.4108C18.0176 30.7605 18.1047 31.1429 18.1047 31.5309C18.1047 31.7822 18.0689 32.0335 17.992 32.2794C17.9254 32.4925 17.8896 32.7493 17.8896 33.0388C17.8896 34.1698 18.3301 34.6342 19.4058 34.6342H32.2066V34.6178ZM15.6409 33.0224C15.6409 32.4706 15.7126 31.968 15.856 31.5145C14.2886 31.0501 13.3563 29.6787 13.3563 27.7118C13.3563 27.1599 13.428 26.6463 13.5714 26.1983C12.0142 25.7284 11.0973 24.3625 11.0973 22.4065C11.0973 21.9257 11.1537 21.4777 11.2612 21.0734H5.95447C3.51622 21.0734 2 19.478 2 16.9101C2 14.4405 3.40865 12.9271 5.87251 12.7577H5.95447C6.42573 12.7577 15.3899 12.7522 19.457 12.7577C18.4018 12.0966 17.6642 11.501 17.1315 10.7853C16.609 10.0859 16.3426 9.25001 16.3426 8.43046C16.3426 7.64369 16.5834 6.86784 17.07 6.22313C18.0228 4.95556 19.6466 4.64413 21.2089 5.42544C23.8571 6.75311 28.1138 8.98775 31.5356 10.7853C33.6665 11.9054 35.5054 12.8724 36.0637 13.1456C36.6426 13.4297 38 14.1017 38 15.6261V30.8151C38 32.7329 37.4365 34.3665 36.4172 35.421C35.3978 36.47 33.9841 37 32.2066 37H19.4109C17.0854 36.9945 15.6409 35.4702 15.6409 33.0224Z" fill="#86888C"/>
</svg>
