<svg width="24" height="24" viewBox="0 0 24 24" fill="none" xmlns="http://www.w3.org/2000/svg">
<path fill-rule="evenodd" clip-rule="evenodd" d="M5.23284 5.21855C5.23284 4.56118 5.38553 4.0831 5.69939 3.75583C6.00759 3.43711 6.5533 3.25498 7.20364 3.25498H15.0303C15.1066 3.33182 15.1999 3.53671 15.231 3.60785C15.3752 3.92089 15.8333 4.85999 16.4638 6.15196L16.4921 6.20888C17.411 8.08708 18.5534 10.4234 19.2263 11.8719C19.2998 12.0313 19.444 12.4269 19.1613 12.6545C19.0284 12.7627 18.8842 12.7854 18.7852 12.7854C18.6269 12.7854 18.4629 12.7257 18.33 12.6175C18.1095 12.4411 17.8917 12.1565 17.6061 11.667C17.4977 11.4809 17.3428 11.3265 17.1568 11.2192C16.9708 11.1119 16.7602 11.0553 16.5458 11.0552C16.4384 11.0552 16.3281 11.0694 16.2207 11.1007C15.6862 11.2516 15.3158 11.7439 15.3158 12.3073V19.7746C15.2649 20.5913 14.9285 20.7536 14.3969 20.7536C13.7494 20.7536 13.4723 20.4718 13.4723 19.8088V16.8606C13.4723 16.4707 13.2913 16.0979 12.9831 15.8617C12.7682 15.6966 12.5053 15.6084 12.2395 15.6084C12.1264 15.6084 12.0161 15.6255 11.9058 15.6568C11.8012 15.6853 11.6825 15.7023 11.5467 15.7023C10.9021 15.7023 10.8087 15.3722 10.7692 15.2328C10.6759 14.9055 10.4581 14.6323 10.1612 14.473C9.98028 14.3762 9.78518 14.3278 9.58442 14.3278C9.45436 14.3278 9.32429 14.3478 9.19705 14.3904C9.08395 14.4274 8.95105 14.4474 8.79837 14.4474C8.15086 14.4474 8.06038 14.1286 8.01797 13.9721C7.92749 13.642 7.70694 13.366 7.41005 13.2066C7.22908 13.107 7.03116 13.0586 6.8304 13.0586C6.70033 13.0586 6.57027 13.0785 6.44303 13.1212C6.33275 13.1582 6.19986 13.1781 6.05 13.1781C5.4647 13.1781 5.22436 12.9334 5.22436 12.3358V5.21855H5.23284ZM6.05848 14.4217C6.34406 14.4217 6.6042 14.3819 6.83888 14.3022C7.07922 15.173 7.78894 15.691 8.80685 15.691C9.09243 15.691 9.35822 15.6511 9.59008 15.5714C9.83325 16.4365 10.5401 16.9459 11.5524 16.9459C11.8012 16.9459 12.0331 16.9146 12.2423 16.8549V19.8031C12.2423 21.1577 13.0679 22 14.3969 22C15.6749 22 16.4582 21.2174 16.5458 19.8486V19.8031C16.5458 19.5413 16.5486 14.5612 16.5458 12.3017C16.888 12.8879 17.1962 13.2977 17.5666 13.5936C17.9285 13.8839 18.3611 14.0319 18.7852 14.0319C19.1924 14.0319 19.5939 13.8981 19.9276 13.6278C20.5835 13.0985 20.7447 12.1964 20.3404 11.3284C19.6533 9.85714 18.4968 7.49232 17.5666 5.59135C16.9869 4.40751 16.4864 3.38589 16.3451 3.0757C16.198 2.75413 15.8502 2 15.0614 2H7.20081C6.20834 2 5.36291 2.31303 4.81719 2.87934C4.27431 3.44564 4.00004 4.23108 4.00004 5.21855L4.00004 12.3273C4.00286 13.6192 4.79175 14.4217 6.05848 14.4217Z" fill="#86888C"/>
</svg>
