<svg width="24" height="24" viewBox="0 0 24 24" fill="none" xmlns="http://www.w3.org/2000/svg">
<path fill-rule="evenodd" clip-rule="evenodd" d="M19.3277 18.7814C19.3277 19.4388 19.175 19.9169 18.8612 20.2442C18.553 20.5629 18.0072 20.745 17.3569 20.745H9.53029C9.45394 20.6682 9.36063 20.4633 9.32953 20.3921C9.18533 20.0791 8.72726 19.14 8.09672 17.848L8.06845 17.7911C7.1495 15.9129 6.00717 13.5766 5.33422 12.1281C5.2607 11.9687 5.1165 11.5731 5.39925 11.3455C5.53215 11.2373 5.67635 11.2146 5.77532 11.2146C5.93366 11.2146 6.09765 11.2743 6.23055 11.3825C6.4511 11.5589 6.66882 11.8435 6.9544 12.333C7.06283 12.5191 7.21772 12.6735 7.40371 12.7808C7.5897 12.8881 7.80033 12.9447 8.01473 12.9448C8.12217 12.9448 8.23245 12.9306 8.33989 12.8993C8.8743 12.7484 9.2447 12.2561 9.2447 11.6927V4.22538C9.2956 3.40865 9.63208 3.24644 10.1637 3.24644C10.8112 3.24644 11.0883 3.52817 11.0883 4.19124V7.13944C11.0883 7.52931 11.2692 7.90211 11.5774 8.1383C11.7923 8.30336 12.0553 8.39158 12.3211 8.39158C12.4342 8.39158 12.5444 8.3745 12.6547 8.3432C12.7593 8.31474 12.8781 8.29767 13.0138 8.29767C13.6585 8.29767 13.7518 8.62777 13.7914 8.76722C13.8847 9.09448 14.1024 9.36767 14.3993 9.52703C14.5803 9.62379 14.7754 9.67217 14.9761 9.67217C15.1062 9.67217 15.2363 9.65225 15.3635 9.60956C15.4766 9.57257 15.6095 9.55265 15.7622 9.55265C16.4097 9.55265 16.5002 9.87137 16.5426 10.0279C16.6331 10.358 16.8536 10.634 17.1505 10.7934C17.3315 10.893 17.5294 10.9414 17.7301 10.9414C17.8602 10.9414 17.9903 10.9215 18.1175 10.8788C18.2278 10.8418 18.3607 10.8219 18.5105 10.8219C19.0958 10.8219 19.3362 11.0666 19.3362 11.6642V18.7814H19.3277ZM18.5021 9.57826C18.2165 9.57826 17.9563 9.6181 17.7217 9.69778C17.4813 8.82698 16.7716 8.30905 15.7537 8.30905C15.4681 8.30905 15.2023 8.34889 14.9705 8.42857C14.7273 7.56346 14.0204 7.05407 13.0082 7.05407C12.7593 7.05407 12.5275 7.08537 12.3182 7.14513V4.19693C12.3182 2.84234 11.4926 2 10.1637 2C8.88561 2 8.10238 2.78258 8.01473 4.15139V4.19693C8.01473 4.45874 8.0119 9.43882 8.01473 11.6983C7.67259 11.1121 7.36439 10.7023 6.99398 10.4064C6.63206 10.1161 6.19945 9.96813 5.77532 9.96813C5.36815 9.96813 4.96664 10.1019 4.63299 10.3722C3.977 10.9015 3.81583 11.8036 4.22017 12.6716C4.90726 14.1429 6.06372 16.5077 6.99398 18.4087C7.57363 19.5925 8.0741 20.6141 8.21548 20.9243C8.36251 21.2459 8.7103 22 9.49918 22H17.3597C18.3522 22 19.1976 21.687 19.7434 21.1207C20.2862 20.5544 20.5605 19.7689 20.5605 18.7814V11.6727C20.5577 10.3808 19.7688 9.57826 18.5021 9.57826Z" fill="#86888C"/>
</svg>
