<svg width="28" height="28" viewBox="0 0 28 28" fill="none" xmlns="http://www.w3.org/2000/svg">
<path fill-rule="evenodd" clip-rule="evenodd" d="M21.3884 17.1582C21.6666 16.8509 22.1439 16.827 22.4529 17.107C22.7586 17.3836 22.786 17.8549 22.5079 18.1622C22.3946 18.2851 19.7264 21.1776 15.1491 21.2288C15.1319 21.2288 15.0667 21.2322 14.9602 21.2322C14.0571 21.2322 10.1871 21.0581 7.62544 18.2066C7.3473 17.8958 7.37477 17.4246 7.68382 17.148C7.9963 16.8714 8.47018 16.8987 8.74832 17.2094C11.1417 19.8697 15.0701 19.7331 15.1079 19.7331C19.0259 19.6853 21.3644 17.1821 21.3884 17.1582ZM15.0632 25.5009C22.1679 25.5009 25.6259 22.0655 25.6259 15.0034C25.6259 7.93796 22.1714 4.50256 15.0632 4.50256C7.96196 4.50256 4.50747 7.93796 4.50747 15.0034C4.50747 22.0655 7.96196 25.5009 15.0632 25.5009ZM15.0632 3C22.6865 3 27.1333 6.82812 27.1333 15.0034C27.1333 23.1787 22.6865 27 15.0632 27C7.44001 27 3 23.1787 3 15.0034C3 6.82812 7.44001 3 15.0632 3ZM11.4061 13.2311C10.97 13.2311 10.6061 13.0945 10.3519 12.8384C10.1013 12.5857 9.97765 12.2373 9.97765 11.8071C9.97765 10.926 10.5271 10.3796 11.4061 10.3796C12.2887 10.3796 12.8346 10.926 12.8346 11.8071C12.8346 12.2408 12.7076 12.5857 12.4603 12.8384C12.2062 13.0911 11.8422 13.2311 11.4061 13.2311ZM18.7272 13.2311C18.2911 13.2311 17.9271 13.0945 17.673 12.8384C17.4223 12.5857 17.2953 12.2373 17.2953 11.8071C17.2953 10.926 17.8447 10.3796 18.7238 10.3796C19.6063 10.3796 20.1522 10.926 20.1522 11.8071C20.1522 12.2373 20.0252 12.5857 19.778 12.8384C19.5273 13.0911 19.1633 13.2311 18.7272 13.2311Z" fill="#86888C"/>
</svg>
