<svg width="20" height="20" viewBox="0 0 20 20" fill="none" xmlns="http://www.w3.org/2000/svg">
<path fill-rule="evenodd" clip-rule="evenodd" d="M14.259 11.4388C14.4444 11.2339 14.7626 11.218 14.9686 11.4047C15.1724 11.5891 15.1907 11.9032 15.0053 12.1081C14.9297 12.1901 13.151 14.1184 10.0994 14.1525C10.0879 14.1525 10.0444 14.1548 9.97348 14.1548C9.3714 14.1548 6.79141 14.0387 5.08363 12.1377C4.8982 11.9306 4.91651 11.6164 5.12254 11.432C5.33087 11.2476 5.64678 11.2658 5.83221 11.473C7.42782 13.2464 10.0467 13.1554 10.0719 13.1554C12.684 13.1235 14.2429 11.4548 14.259 11.4388ZM10.0422 17.0006C14.7786 17.0006 17.0839 14.7103 17.0839 10.0023C17.0839 5.29198 14.7809 3.00171 10.0422 3.00171C5.30797 3.00171 3.00498 5.29198 3.00498 10.0023C3.00498 14.7103 5.30797 17.0006 10.0422 17.0006ZM10.0422 2C15.1243 2 18.0889 4.55208 18.0889 10.0023C18.0889 15.4525 15.1243 18 10.0422 18C4.96001 18 2 15.4525 2 10.0023C2 4.55208 4.96001 2 10.0422 2ZM7.6041 8.82072C7.31336 8.82072 7.0707 8.72965 6.9013 8.55891C6.73418 8.39044 6.65177 8.15822 6.65177 7.87137C6.65177 7.28401 7.01805 6.91975 7.6041 6.91975C8.19244 6.91975 8.55643 7.28401 8.55643 7.87137C8.55643 8.1605 8.47173 8.39044 8.3069 8.55891C8.13749 8.72738 7.89483 8.82072 7.6041 8.82072ZM12.4848 8.82072C12.1941 8.82072 11.9514 8.72965 11.782 8.55891C11.6149 8.39044 11.5302 8.15822 11.5302 7.87137C11.5302 7.28401 11.8965 6.91975 12.4825 6.91975C13.0708 6.91975 13.4348 7.28401 13.4348 7.87137C13.4348 8.15822 13.3501 8.39044 13.1853 8.55891C13.0182 8.72738 12.7755 8.82072 12.4848 8.82072Z" fill="#86888C"/>
</svg>
