<svg width="40" height="40" viewBox="0 0 40 40" fill="none" xmlns="http://www.w3.org/2000/svg">
<path fill-rule="evenodd" clip-rule="evenodd" d="M30.5827 24.2373C30.9999 23.7763 31.7158 23.7405 32.1794 24.1605C32.6378 24.5754 32.6791 25.2823 32.2618 25.7433C32.0919 25.9277 28.0897 30.2664 21.2236 30.3432C21.1979 30.3432 21.1 30.3483 20.9403 30.3483C19.5857 30.3483 13.7807 30.0871 9.93816 25.8099C9.52094 25.3438 9.56215 24.6369 10.0257 24.222C10.4944 23.8071 11.2053 23.848 11.6225 24.3142C15.2126 28.3045 21.1052 28.0996 21.1618 28.0996C27.0389 28.0279 30.5466 24.2732 30.5827 24.2373ZM21.0948 36.7513C31.7519 36.7513 36.9388 31.5982 36.9388 21.0051C36.9388 10.4069 31.7571 5.25384 21.0948 5.25384C10.4429 5.25384 5.26121 10.4069 5.26121 21.0051C5.26121 31.5982 10.4429 36.7513 21.0948 36.7513ZM21.0948 3C32.5297 3 39.2 8.74217 39.2 21.0051C39.2 33.2681 32.5297 39 21.0948 39C9.66002 39 3 33.2681 3 21.0051C3 8.74217 9.66002 3 21.0948 3ZM15.6092 18.3466C14.9551 18.3466 14.4091 18.1417 14.0279 17.7575C13.6519 17.3785 13.4665 16.856 13.4665 16.2106C13.4665 14.889 14.2906 14.0694 15.6092 14.0694C16.933 14.0694 17.752 14.889 17.752 16.2106C17.752 16.8611 17.5614 17.3785 17.1905 17.7575C16.8094 18.1366 16.2634 18.3466 15.6092 18.3466ZM26.5908 18.3466C25.9366 18.3466 25.3906 18.1417 25.0095 17.7575C24.6335 17.3785 24.4429 16.856 24.4429 16.2106C24.4429 14.889 25.267 14.0694 26.5856 14.0694C27.9094 14.0694 28.7284 14.889 28.7284 16.2106C28.7284 16.856 28.5378 17.3785 28.1669 17.7575C27.7909 18.1366 27.2449 18.3466 26.5908 18.3466Z" fill="#86888C"/>
</svg>
