<svg width="20" height="20" viewBox="0 0 20 20" fill="none" xmlns="http://www.w3.org/2000/svg">
<path fill-rule="evenodd" clip-rule="evenodd" d="M16.7258 17.0867C16.8169 17.0867 16.8897 17.0115 16.8897 16.9205V13.1145L16.8829 13.069C16.8761 12.9848 16.81 12.9165 16.7235 12.9165H3.07268C2.98163 12.9165 2.90878 12.9916 2.90878 13.0827V16.9205C2.90878 17.0115 2.9839 17.0867 3.07268 17.0867H16.7258ZM4.21309 3.27645L3.06357 11.9081C3.06812 11.9081 3.0704 11.9058 3.07495 11.9058H16.7258C16.7304 11.9058 16.7349 11.9081 16.7395 11.9081L15.6651 3.38116C15.64 3.24458 15.5353 3.12394 15.4238 3.12394L4.37926 3.11256C4.28821 3.11028 4.21309 3.1854 4.21309 3.27645ZM17.8958 13.0349C17.8981 13.0531 17.9004 13.0667 17.9004 13.085V16.9228C17.9004 17.5715 17.3746 18.0996 16.7258 18.0996H3.07495C2.42849 18.0996 1.90039 17.5715 1.90039 16.9228V13.085C1.90039 13.0599 1.90722 13.0349 1.9095 13.0098C1.9095 12.9939 1.90494 12.9802 1.90722 12.9666L3.20925 3.21044C3.2047 2.62998 3.7328 2.09961 4.37926 2.09961L15.4238 2.11099C16.0316 2.11099 16.5414 2.56852 16.6621 3.22409L17.8731 12.8346C17.8799 12.8619 17.8799 12.8915 17.8845 12.9211L17.8958 13.0189C17.8981 13.0258 17.8958 13.028 17.8958 13.0349ZM9.90153 6.93444C9.17539 6.93444 9.17539 7.23718 9.17539 7.36693C9.17539 7.49668 9.17539 7.79715 9.90153 7.79715C10.6277 7.79715 10.6277 7.49668 10.6277 7.36693C10.6277 7.23718 10.6277 6.93444 9.90153 6.93444ZM9.90153 8.47093C8.64047 8.47093 8.50389 7.69927 8.50389 7.36693C8.50389 7.03459 8.64047 6.26066 9.90153 6.26066C11.1649 6.26066 11.3014 7.03459 11.3014 7.36693C11.2992 7.69927 11.1626 8.47093 9.90153 8.47093ZM14.8206 15.6776C15.2303 15.6776 15.3919 15.5183 15.3919 15.104C15.3919 14.692 15.2303 14.5327 14.8206 14.5327C14.4108 14.5327 14.2492 14.6943 14.2492 15.104C14.2492 15.5183 14.4086 15.6776 14.8206 15.6776ZM14.8206 13.8589C15.5991 13.8589 16.0634 14.3255 16.0634 15.104C16.0634 15.8848 15.5991 16.3514 14.8206 16.3514C14.0421 16.3514 13.5777 15.8848 13.5777 15.104C13.5755 14.3255 14.0421 13.8589 14.8206 13.8589ZM5.18734 4.3463C4.80265 4.3463 4.57958 4.20517 4.57958 3.90698C4.57958 3.60651 4.80265 3.46766 5.18734 3.46766C5.56976 3.46766 5.79511 3.60879 5.79511 3.90698C5.79511 4.20745 5.57204 4.3463 5.18734 4.3463ZM14.3061 4.3463C13.9214 4.3463 13.6984 4.20517 13.6984 3.90698C13.6984 3.60651 13.9214 3.46766 14.3061 3.46766C14.6886 3.46766 14.9139 3.60879 14.9139 3.90698C14.9139 4.20745 14.6886 4.3463 14.3061 4.3463ZM15.6082 11.5303C15.2235 11.5303 15.0004 11.3891 15.0004 11.0909C15.0004 10.7905 15.2235 10.6516 15.6082 10.6516C15.9929 10.6516 16.2159 10.7905 16.2159 11.0909C16.2159 11.3914 15.9929 11.5303 15.6082 11.5303ZM4.39065 10.2783C4.28138 10.3785 4.2222 10.4741 4.22675 10.5423C4.23358 10.6175 4.32236 10.7176 4.46349 10.8109C4.70477 10.968 5.07125 11.0864 5.43546 10.754C6.25037 10.0074 7.1973 8.83969 7.14267 8.54149C7.13357 8.53922 7.12219 8.53922 7.1108 8.53922C6.71018 8.53922 5.03939 9.68419 4.39065 10.2783ZM6.23216 7.36693C6.23216 7.64919 6.27541 7.90641 6.34142 8.14087C6.81944 7.92462 7.25876 7.83129 7.53419 8.01112C7.69809 8.1181 7.79824 8.28655 7.81418 8.48914C7.83466 8.75546 7.68898 9.09235 7.46818 9.43835L7.48412 9.44518C8.08278 9.73199 8.89769 9.87767 9.89925 9.87767C13.5686 9.87767 13.5686 7.98608 13.5686 7.36693C13.5686 6.7455 13.5686 4.85164 9.89925 4.85164C6.23216 4.85391 6.23216 6.7455 6.23216 7.36693ZM4.09928 11.3777C3.68272 11.1069 3.57574 10.8041 3.55753 10.5993C3.54159 10.3989 3.59395 10.0962 3.93766 9.77979C3.95132 9.76841 4.64104 9.16519 5.43774 8.6462C5.43774 8.64393 5.43546 8.64393 5.43546 8.64165C5.29661 8.25923 5.22377 7.82902 5.22377 7.36465C5.22377 6.04669 5.83153 3.83869 9.89925 3.83869C13.9715 3.83869 14.5793 6.04669 14.5793 7.36465C14.5793 8.68035 13.9715 10.8883 9.89925 10.8883C8.74518 10.8883 7.78458 10.7108 7.04707 10.3557L6.92643 10.2965C6.89911 10.2829 6.88318 10.2601 6.86041 10.2419C6.39605 10.7814 5.92714 11.2139 5.88844 11.248C5.60618 11.5075 5.27612 11.6395 4.93468 11.6395C4.65697 11.6418 4.37243 11.5553 4.09928 11.3777Z" fill="#86888C"/>
</svg>
