<svg width="40" height="40" viewBox="0 0 40 40" fill="none" xmlns="http://www.w3.org/2000/svg">
<path fill-rule="evenodd" clip-rule="evenodd" d="M31.2165 31.5467H30.6963C30.6036 31.5467 30.5109 31.5467 30.4182 31.5314C30.3307 31.5006 30.238 31.4853 30.1453 31.4853C29.3933 31.2702 28.626 30.3329 28.626 25.7644C28.626 20.0282 29.8259 20.0026 30.8251 19.9667H31.0259L31.2268 19.9821C33.225 20.064 35.8979 20.7606 35.8979 25.7644C35.8876 30.7478 33.2147 31.4494 31.2165 31.5467ZM8.96292 19.9821C8.99382 19.9821 9.14833 19.9667 9.17923 19.9667H9.49853C10.3741 19.9974 11.574 20.0282 11.574 25.7644C11.574 31.4853 10.374 31.5109 9.37493 31.5467H8.95777C6.96469 31.4494 4.30724 30.7478 4.30724 25.7644C4.30724 20.7606 6.96469 20.0589 8.96292 19.9821ZM34.5795 18.4558C34.4147 7.84379 29.2388 2 19.9069 2C10.5286 2 5.33211 7.92573 5.24456 18.6863C3.13817 19.9667 2 22.3534 2 25.7644C2 30.7836 4.44114 33.6671 8.87022 33.8668L9.38008 33.8822H9.58094C13.1499 33.7593 13.8864 30.548 13.8864 25.7644C13.8864 20.9654 13.1499 17.7542 9.64274 17.6312C9.45733 17.6159 9.27193 17.6159 9.09168 17.6312C8.99897 17.6312 8.90627 17.6312 8.87537 17.6466C8.43761 17.6671 7.99986 17.7183 7.56725 17.8054C7.90716 8.87324 12.0427 4.34059 19.912 4.34059C27.7814 4.34059 31.9117 8.85787 32.2671 17.7593C31.9735 17.7286 31.7006 17.6671 31.3916 17.6517C31.2989 17.6364 31.2113 17.6364 31.1444 17.6364C30.9693 17.621 30.7942 17.621 30.6242 17.6364C27.0449 17.7593 26.3239 20.9706 26.3239 25.7695C26.3239 28.8988 26.6483 31.347 27.8741 32.7042C26.2775 33.5903 24.3566 34.169 22.1111 34.4661C21.833 33.4213 21.0038 32.7964 19.7421 32.7657C18.1301 32.7196 17.131 33.6261 17.0846 35.306C17.0537 36.1152 17.2546 36.7708 17.682 37.2369C18.1146 37.7029 18.7584 37.9846 19.5721 38H19.6957C20.4476 38 21.0656 37.7849 21.5085 37.3598C21.6476 37.2215 21.7403 37.0371 21.833 36.8476C25.2887 36.4891 28.1676 35.4802 30.3925 33.8566C30.4697 33.8771 30.5161 33.8873 30.5933 33.8873H30.8251L31.3298 33.872C35.7537 33.6671 38.2 30.7887 38.2 25.7695C38.1948 22.1485 36.9022 19.6543 34.5795 18.4558Z" fill="#86888C"/>
</svg>
