<svg width="20" height="20" viewBox="0 0 20 20" fill="none" xmlns="http://www.w3.org/2000/svg">
<path fill-rule="evenodd" clip-rule="evenodd" d="M14.9851 15.1319H14.7539C14.7127 15.1319 14.6715 15.1319 14.6303 15.1251C14.5914 15.1114 14.5502 15.1046 14.509 15.1046C14.1748 15.009 13.8338 14.5924 13.8338 12.562C13.8338 10.0125 14.3671 10.0011 14.8111 9.9852H14.9004L14.9897 9.99203C15.8778 10.0285 17.0657 10.338 17.0657 12.562C17.0612 14.7768 15.8732 15.0886 14.9851 15.1319ZM5.09463 9.99203C5.10837 9.99203 5.17703 9.9852 5.19077 9.9852H5.33268C5.7218 9.99886 6.25512 10.0125 6.25512 12.562C6.25512 15.1046 5.7218 15.1159 5.27775 15.1319H5.09234C4.20653 15.0886 3.02544 14.7768 3.02544 12.562C3.02544 10.338 4.20653 10.0262 5.09463 9.99203ZM16.4798 9.3137C16.4065 4.59724 14.1061 2 9.95861 2C5.79047 2 3.48094 4.63366 3.44203 9.41613C2.50585 9.9852 2 11.046 2 12.562C2 14.7927 3.08495 16.0743 5.05343 16.163L5.28004 16.1699H5.3693C6.95553 16.1152 7.28285 14.688 7.28285 12.562C7.28285 10.4291 6.95553 9.00185 5.39677 8.94722C5.31437 8.94039 5.23197 8.94039 5.15186 8.94722C5.11066 8.94722 5.06945 8.94722 5.05572 8.95405C4.86116 8.96315 4.6666 8.98592 4.47433 9.02461C4.6254 5.05477 6.46341 3.04026 9.9609 3.04026C13.4584 3.04026 15.2941 5.04794 15.452 9.00413C15.3216 8.99047 15.2003 8.96315 15.0629 8.95632C15.0217 8.94949 14.9828 8.94949 14.9531 8.94949C14.8752 8.94267 14.7974 8.94267 14.7219 8.94949C13.1311 9.00413 12.8106 10.4314 12.8106 12.5642C12.8106 13.955 12.9548 15.0431 13.4996 15.6463C12.79 16.0401 11.9362 16.2973 10.9383 16.4294C10.8147 15.965 10.4462 15.6873 9.88536 15.6736C9.16893 15.6532 8.72488 16.0561 8.70428 16.8027C8.69054 17.1623 8.77981 17.4537 8.96979 17.6608C9.16206 17.868 9.44818 17.9932 9.80983 18H9.86476C10.1989 18 10.4736 17.9044 10.6705 17.7155C10.7323 17.654 10.7735 17.5721 10.8147 17.4878C12.3505 17.3285 13.6301 16.8801 14.6189 16.1585C14.6532 16.1676 14.6738 16.1721 14.7081 16.1721H14.8111L15.0355 16.1653C17.0016 16.0743 18.0889 14.795 18.0889 12.5642C18.0866 10.9549 17.5121 9.84635 16.4798 9.3137Z" fill="#86888C"/>
</svg>
