<svg width="28" height="28" viewBox="0 0 28 28" fill="none" xmlns="http://www.w3.org/2000/svg">
<path fill-rule="evenodd" clip-rule="evenodd" d="M21.4776 22.6978H21.1309C21.0691 22.6978 21.0073 22.6978 20.9455 22.6876C20.8871 22.6671 20.8253 22.6569 20.7635 22.6569C20.2622 22.5134 19.7506 21.8886 19.7506 18.8429C19.7506 15.0188 20.5506 15.0017 21.2167 14.9778H21.3506L21.4845 14.988C22.8167 15.0427 24.5986 15.507 24.5986 18.8429C24.5917 22.1652 22.8098 22.6329 21.4776 22.6978ZM6.64195 14.988C6.66255 14.988 6.76555 14.9778 6.78615 14.9778H6.99902C7.5827 14.9983 8.38268 15.0188 8.38268 18.8429C8.38268 22.6569 7.5827 22.6739 6.91662 22.6978H6.63852C5.30979 22.6329 3.53816 22.1652 3.53816 18.8429C3.53816 15.507 5.30979 15.0393 6.64195 14.988ZM23.7197 13.9706C23.6098 6.89586 20.1592 3 13.9379 3C7.6857 3 4.22141 6.95049 4.16304 14.1242C2.75878 14.9778 2 16.5689 2 18.8429C2 22.1891 3.62743 24.1114 6.58015 24.2446L6.92005 24.2548H7.05396C9.4333 24.1729 9.92427 22.032 9.92427 18.8429C9.92427 15.6436 9.4333 13.5028 7.09516 13.4208C6.97155 13.4106 6.84795 13.4106 6.72778 13.4208C6.66598 13.4208 6.60418 13.4208 6.58358 13.4311C6.29174 13.4447 5.9999 13.4789 5.7115 13.5369C5.9381 7.58216 8.69512 4.56039 13.9413 4.56039C19.1876 4.56039 21.9412 7.57192 22.1781 13.5062C21.9824 13.4857 21.8004 13.4447 21.5944 13.4345C21.5326 13.4242 21.4742 13.4242 21.4296 13.4242C21.3128 13.414 21.1961 13.414 21.0828 13.4242C18.6966 13.5062 18.2159 15.647 18.2159 18.8464C18.2159 20.9326 18.4322 22.5647 19.2494 23.4695C18.185 24.0602 16.9044 24.446 15.4074 24.644C15.222 23.9475 14.6692 23.5309 13.828 23.5105C12.7534 23.4797 12.0873 24.0841 12.0564 25.204C12.0358 25.7435 12.1697 26.1805 12.4547 26.4913C12.7431 26.802 13.1723 26.9898 13.7147 27H13.7971C14.2984 27 14.7104 26.8566 15.0057 26.5732C15.0984 26.481 15.1602 26.3581 15.222 26.2318C17.5258 25.9927 19.4451 25.3201 20.9283 24.2377C20.9798 24.2514 21.0107 24.2582 21.0622 24.2582H21.2167L21.5532 24.248C24.5025 24.1114 26.1333 22.1925 26.1333 18.8464C26.1299 16.4324 25.2681 14.7695 23.7197 13.9706Z" fill="#86888C"/>
</svg>
