<svg width="40" height="40" viewBox="0 0 40 40" fill="none" xmlns="http://www.w3.org/2000/svg">
<path fill-rule="evenodd" clip-rule="evenodd" d="M29.5674 25.1524C27.5836 28.2931 26.0055 30.3105 23.3105 33.1437L23.2272 33.2276L23.1938 33.2667C22.7159 33.764 22.0102 34.4458 21.499 34.8147C21.0711 35.1332 20.5822 35.3567 20.0598 35.4741C19.9709 35.4964 19.8765 35.5076 19.782 35.5132H19.6486L19.5764 35.5188L19.4875 35.5132H19.4653C19.3486 35.5076 19.2319 35.4853 19.1152 35.4629C18.6095 35.3455 18.1372 35.122 17.7204 34.8147C17.1926 34.4291 16.4535 33.7138 15.9812 33.2164C13.2639 30.3496 11.6692 28.3154 9.66875 25.1524C9.29645 24.5657 8.97416 23.9733 8.63519 23.3865H9.02972C9.56873 23.3865 10.0355 23.0289 10.1911 22.5147L12.7138 14.2161L15.82 30.059C15.9312 30.6178 16.3924 31.0258 16.9536 31.0537H17.0147C17.5537 31.0537 18.0205 30.6961 18.1761 30.1763L20.1598 23.5598H22.1936C22.7326 23.5598 23.2049 23.2021 23.3605 22.6712L24.6052 18.3514L26.1111 22.7327C26.2778 23.2245 26.739 23.5598 27.2558 23.5598H30.5009C30.1953 24.0907 29.9119 24.6215 29.5674 25.1524ZM4.63991 13.6908C4.18426 11.7405 3.77862 8.15275 6.19579 6.04595C7.25157 5.12387 8.7241 4.57063 10.3411 4.48681C10.4911 4.48122 10.6356 4.47563 10.7856 4.47563C12.4638 4.47563 14.2086 4.96181 15.8312 5.8783C16.5535 6.28625 17.2981 6.72214 18.1483 7.24185C19.0707 7.77274 20.2099 7.76156 21.1267 7.2195C21.938 6.72772 22.6826 6.29183 23.405 5.8783C25.0331 4.96181 26.7779 4.47563 28.4505 4.47563C28.595 4.47563 28.7505 4.48122 28.895 4.48681C30.512 4.57063 31.9846 5.12387 33.0403 6.04595C35.4575 8.15275 35.0519 11.746 34.5907 13.6908C34.0294 16.0938 33.0848 18.575 31.829 21.0841H28.1115L25.6388 13.9031C25.4832 13.3834 24.9998 13.0425 24.4608 13.0761C23.9329 13.0928 23.4717 13.4505 23.3272 13.9646L21.2823 21.0841H19.2541C18.7151 21.0841 18.2428 21.4418 18.0927 21.9615L17.2537 24.7557L14.153 8.95188C14.0474 8.39863 13.5862 7.99069 13.025 7.95716C12.4638 7.91245 11.947 8.28128 11.797 8.82894L8.12398 20.9109H7.30714C6.11244 18.4576 5.19002 16.0491 4.63991 13.6908ZM37.8358 21.0841H34.5462C35.6131 18.7817 36.4411 16.4961 36.9634 14.2664C37.9747 9.95219 37.1412 6.36448 34.6296 4.16827C33.1681 2.89413 31.1788 2.12853 29.0284 2.01677C28.8395 2.00559 28.645 2 28.456 2C26.3667 2 24.2274 2.58677 22.2325 3.71562C21.4435 4.16268 20.6655 4.61534 19.8931 5.08476C19.7264 5.17976 19.5208 5.17976 19.3541 5.08476C18.5262 4.58181 17.7593 4.13474 17.0203 3.71562C15.0254 2.58677 12.8805 2 10.7912 2C10.6023 2 10.4133 2.00559 10.2244 2.01677C8.07397 2.12853 6.0791 2.89413 4.62324 4.16827C2.10048 6.36448 1.26698 9.95219 2.2783 14.2664C2.78952 16.4458 3.58413 18.67 4.60657 20.9109H1.21697C0.539045 20.9165 -0.00551458 21.4697 4.21503e-05 22.1515C4.21503e-05 22.8333 0.544601 23.3865 1.21697 23.3865H5.81238C6.36805 24.4204 6.96818 25.4542 7.62943 26.4936C9.72431 29.8075 11.3913 31.9367 14.253 34.9432C14.5309 35.2338 15.4978 36.2285 16.3201 36.832C17.0259 37.3518 17.8205 37.715 18.6206 37.8882C18.8596 37.9441 19.1041 37.9776 19.3486 37.9944H19.3819C19.4486 38 19.5208 38 19.5931 38H19.6597C19.7375 38 19.8042 37.9944 19.8765 37.9944H19.9042C20.1487 37.9832 20.3932 37.9441 20.6322 37.8882C21.4268 37.715 22.2269 37.3518 22.9327 36.832C23.755 36.2341 24.7219 35.2338 24.9998 34.9432L25.0664 34.8705C27.8837 31.9031 29.5452 29.7796 31.6234 26.4936C32.2457 25.5157 32.8125 24.5321 33.3404 23.5542H37.8469C38.5193 23.5486 39.0638 22.9953 39.0638 22.3192C39.0583 21.643 38.5137 21.0897 37.8358 21.0841Z" fill="#86888C"/>
</svg>
