<svg width="40" height="40" viewBox="0 0 40 40" fill="none" xmlns="http://www.w3.org/2000/svg">
<path fill-rule="evenodd" clip-rule="evenodd" d="M26.529 35.7856H30.6422C31.1545 35.7856 31.5694 35.4578 31.5694 35.0532V21.2689C31.5796 20.6491 32.0919 20.1523 32.7168 20.1625H34.7811C35.2677 20.1625 35.5546 19.9064 35.657 19.6605C35.7287 19.4864 35.7646 19.2354 35.4982 18.969L20.7151 4.44207C20.3566 4.08863 19.6343 4.08863 19.2758 4.44207L4.49783 18.9793C4.23146 19.2405 4.26732 19.4966 4.34416 19.6708C4.4466 19.9115 4.73345 20.1676 5.22008 20.1676H7.07948C7.69929 20.1574 8.21152 20.6491 8.22176 21.2741V35.0583C8.22176 35.4629 8.63667 35.7908 9.14378 35.7908H13.5644V28.9115C13.5746 28.2917 14.0868 27.7948 14.7118 27.805H25.3867C26.0065 27.7948 26.5187 28.2865 26.529 28.9115V35.7856ZM30.6422 37.9985H25.3816C24.7618 38.0087 24.2496 37.517 24.2393 36.8921V30.0179H15.854V36.8921C15.8438 37.5119 15.3316 38.0087 14.7118 37.9985H9.14378C7.37146 37.9985 5.92696 36.6769 5.92696 35.0583V22.3805H5.22008C3.89851 22.3805 2.72038 21.6531 2.23375 20.5262C1.76762 19.4608 2.00837 18.2724 2.86892 17.4374L17.6469 2.89513C18.8557 1.70162 21.1403 1.70162 22.3543 2.89513L37.1322 17.4323C37.9877 18.2724 38.2335 19.4556 37.7674 20.5211C37.2808 21.648 36.1026 22.3754 34.7811 22.3754H33.8591V35.0532C33.8591 36.6769 32.4146 37.9985 30.6422 37.9985Z" fill="#86888C"/>
</svg>
