<svg width="20" height="20" viewBox="0 0 20 20" fill="none" xmlns="http://www.w3.org/2000/svg">
<path fill-rule="evenodd" clip-rule="evenodd" d="M12.9018 17.0159H14.73C14.9576 17.0159 15.142 16.8702 15.142 16.6904V10.564C15.1466 10.2886 15.3742 10.0677 15.652 10.0723H16.5695C16.7857 10.0723 16.9132 9.95845 16.9588 9.84917C16.9906 9.77177 17.0066 9.66022 16.8882 9.54183L10.3179 3.08537C10.1585 2.92829 9.83753 2.92829 9.67817 3.08537L3.11015 9.54639C2.99177 9.66249 3.0077 9.77632 3.04185 9.85373C3.08739 9.96073 3.21488 10.0746 3.43115 10.0746H4.25756C4.53303 10.07 4.76069 10.2886 4.76525 10.5663V16.6927C4.76525 16.8725 4.94965 17.0182 5.17503 17.0182H7.13975V13.9607C7.1443 13.6853 7.37196 13.4644 7.64971 13.469H12.3942C12.6696 13.4644 12.8973 13.683 12.9018 13.9607V17.0159ZM14.73 17.9994H12.3919C12.1164 18.004 11.8888 17.7854 11.8842 17.5077V14.4525H8.15739V17.5077C8.15284 17.7832 7.92518 18.004 7.64971 17.9994H5.17503C4.38733 17.9994 3.74533 17.4121 3.74533 16.6927V11.0581H3.43115C2.84379 11.0581 2.32017 10.7348 2.10389 10.2339C1.89672 9.76039 2.00372 9.23221 2.38619 8.86113L8.9542 2.39784C9.49148 1.86739 10.5069 1.86739 11.0464 2.39784L17.6144 8.85885C17.9946 9.23221 18.1039 9.75811 17.8967 10.2316C17.6804 10.7325 17.1568 11.0558 16.5695 11.0558H16.1597V16.6904C16.1597 17.4121 15.5177 17.9994 14.73 17.9994Z" fill="#86888C"/>
</svg>
