<svg width="40" height="40" viewBox="0 0 40 40" fill="none" xmlns="http://www.w3.org/2000/svg">
<path fill-rule="evenodd" clip-rule="evenodd" d="M35.7977 35.7055V9.6927V9.60051H32.4072V35.7926H35.7977V35.7055ZM16.6633 35.7977H23.3316V24.9296H16.6633V35.7977ZM9.77465 4.52497V35.7977H14.4661V23.8284C14.4661 23.219 14.9577 22.7273 15.5621 22.7273H24.4225C25.0269 22.7273 25.5186 23.219 25.5186 23.8284V35.7977H30.21V4.53009C30.21 4.40717 30.0512 4.23303 29.9693 4.21255H9.98976C9.93342 4.22791 9.77465 4.40205 9.77465 4.52497ZM4.18694 35.7055V35.7977H7.57747V34.338C7.57747 34.3278 7.57234 34.3227 7.57234 34.3175V9.69782V9.60563H4.18182V35.7055H4.18694ZM36.5659 7.40333C37.4571 7.40333 37.9898 8.25864 37.9898 9.69782V35.7055C37.9898 37.1396 37.4571 38 36.5659 38H3.41869C2.52753 38 2 37.1447 2 35.7055V9.6927C2 8.25864 2.53265 7.39821 3.41869 7.39821H7.58771V4.51985C7.58771 3.19846 8.73496 2 10 2H30C31.265 2 32.4123 3.19846 32.4123 4.51985V7.39821L36.5659 7.40333ZM14.6504 11.7362V13.8259H17.8515C18.4558 13.8259 18.9475 14.3175 18.9475 14.927V18.1434H21.0371L21.0269 14.9321C21.0269 14.6402 21.1396 14.3585 21.3496 14.1537C21.5544 13.9437 21.8361 13.831 22.128 13.831H25.3393V11.7311H22.128C21.5237 11.7311 21.032 11.2394 21.032 10.63V7.41357H18.9475V10.6402C18.9475 11.2497 18.4558 11.7414 17.8515 11.7414H14.6504V11.7362ZM14.4712 16.0333C13.3598 16.0333 12.4584 15.1831 12.4584 14.1383V11.4289C12.4584 10.4046 13.3803 9.53393 14.4712 9.53393H16.7554V7.23944C16.7554 6.13828 17.621 5.20615 18.6402 5.20615H21.3393C22.3636 5.20615 23.2241 6.13828 23.2241 7.23944V9.52369H25.5134C26.6095 9.52369 27.5365 10.3892 27.5365 11.4187V14.1383C27.5365 15.1626 26.6095 16.0333 25.5134 16.0333H23.2292L23.2343 18.3227C23.2343 19.4238 22.3688 20.3508 21.3496 20.3508H18.6402C17.6159 20.3508 16.7554 19.4238 16.7554 18.3278V16.0333H14.4712Z" fill="#86888C"/>
</svg>
