<svg width="20" height="20" viewBox="0 0 20 20" fill="none" xmlns="http://www.w3.org/2000/svg">
<path fill-rule="evenodd" clip-rule="evenodd" d="M9.73481 2C9.93968 2 10.1514 2.00228 10.3335 2.00911C11.8996 2.04553 17.9977 2.66467 17.9977 10.0216C17.9977 17.3945 11.8905 17.9659 10.3653 17.9954C10.206 17.9977 10.0444 18 9.88505 18C9.80082 18 9.7166 18 9.63466 17.9977C8.0276 17.9727 2 17.3922 2 9.97382C2 2.56679 7.97069 2.01366 9.57547 2H9.73481ZM9.73481 2.99929H9.58458C7.60421 3.0175 3.00156 3.73225 3.00156 9.97382C3.00156 16.2268 7.64974 16.9688 9.64831 16.9962C9.72571 16.9984 9.80538 16.9984 9.88505 16.9984C10.0489 16.9984 10.2083 16.9962 10.3494 16.9939C12.348 16.9575 16.9984 16.204 16.9984 10.0193C16.9962 3.83468 12.3207 3.0562 10.3084 3.00612C10.1172 3.00156 9.92602 2.99929 9.73481 2.99929ZM13.1105 5.28695C13.5886 5.28695 13.9778 5.67392 13.9778 6.15422V13.8458C13.9778 14.3238 13.5908 14.713 13.1105 14.713H11.3555C10.8775 14.713 10.4883 14.3261 10.4883 13.8458V11.4716H9.50946V13.8435C9.50946 14.3215 9.12022 14.7108 8.6422 14.7085H6.88718C6.40916 14.7085 6.01992 14.3215 6.01992 13.8412V6.15422C6.01992 5.6762 6.40689 5.28695 6.88718 5.28695H8.6422C9.12022 5.28695 9.50946 5.67392 9.50946 6.15194V8.42595H10.486V6.15422C10.486 5.6762 10.873 5.28695 11.3533 5.28695H13.1105ZM13.1105 6.15422H11.3555V9.29094H8.6422V6.15422H6.88718V13.8458H8.6422V10.6066H11.3555V13.8458H13.1105V6.15422Z" fill="#86888C"/>
</svg>
