<svg width="24" height="24" viewBox="0 0 24 24" fill="none" xmlns="http://www.w3.org/2000/svg">
<path fill-rule="evenodd" clip-rule="evenodd" d="M11.6464 2.175C11.7034 2.12378 11.766 2.07825 11.8342 2.04695C11.9765 1.98435 12.1387 1.98435 12.281 2.04695C12.3521 2.0811 12.4204 2.12378 12.4802 2.175L18.362 8.05677C18.5924 8.28726 18.5924 8.66003 18.362 8.89336C18.1315 9.12385 17.7587 9.12385 17.5254 8.89336L12.6452 4.01039V16.2804C12.6452 16.6048 12.3806 16.8695 12.0562 16.8695C11.7318 16.8695 11.4672 16.6048 11.4672 16.2804V4.01039L6.49313 8.99865C6.26264 9.22914 5.88988 9.22914 5.65654 8.99865C5.42605 8.76816 5.42605 8.39539 5.65654 8.16205L11.6464 2.175ZM21.4095 16.5508C21.7339 16.5508 21.9986 16.8154 21.9986 17.1398V21.411C21.9986 21.7354 21.7339 22 21.4095 22H2.58903C2.26464 22 2 21.7354 2 21.411V17.1398C2 16.8154 2.26464 16.5508 2.58903 16.5508C2.91342 16.5508 3.17806 16.8154 3.17806 17.1398V20.8219H20.8234V17.1398C20.8234 16.8125 21.0852 16.5508 21.4095 16.5508Z" fill="#86888C"/>
</svg>
