<svg width="20" height="20" viewBox="0 0 20 20" fill="none" xmlns="http://www.w3.org/2000/svg">
<path fill-rule="evenodd" clip-rule="evenodd" d="M9.71715 2.14C9.76268 2.09903 9.81276 2.0626 9.8674 2.03756C9.98122 1.98748 10.111 1.98748 10.2248 2.03756C10.2817 2.06488 10.3363 2.09903 10.3841 2.14L15.0896 6.84541C15.274 7.02981 15.274 7.32802 15.0896 7.51469C14.9052 7.69908 14.607 7.69908 14.4203 7.51469L10.5162 3.60831V13.4243C10.5162 13.6839 10.3045 13.8956 10.045 13.8956C9.78544 13.8956 9.57374 13.6839 9.57374 13.4243V3.60831L5.59451 7.59892C5.41012 7.78331 5.1119 7.78331 4.92523 7.59892C4.74084 7.41453 4.74084 7.11631 4.92523 6.92964L9.71715 2.14ZM17.5276 13.6406C17.7872 13.6406 17.9989 13.8523 17.9989 14.1118V17.5288C17.9989 17.7883 17.7872 18 17.5276 18H2.47122C2.21171 18 2 17.7883 2 17.5288V14.1118C2 13.8523 2.21171 13.6406 2.47122 13.6406C2.73074 13.6406 2.94245 13.8523 2.94245 14.1118V17.0576H17.0587V14.1118C17.0587 13.85 17.2681 13.6406 17.5276 13.6406Z" fill="#86888C"/>
</svg>
