<svg width="24" height="24" viewBox="0 0 24 24" fill="none" xmlns="http://www.w3.org/2000/svg">
<path fill-rule="evenodd" clip-rule="evenodd" d="M18.5236 15.998H18.5051C16.7193 15.9918 13.6793 13.6434 12.4683 12.5C13.6824 11.3566 16.7316 9.00205 18.5174 9.00205H18.5236C19.5441 9.00512 20.3371 9.30943 20.875 9.90881C21.416 10.5082 21.6865 11.3811 21.6834 12.5092C21.6803 14.7592 20.5553 15.998 18.5236 15.998ZM5.08199 15.998H5.06354C4.0492 15.998 3.26231 15.6967 2.7244 15.1066C2.18035 14.5133 1.90371 13.6404 1.90063 12.5123C1.89756 11.3873 2.16805 10.5113 2.70904 9.91189C3.25002 9.3125 4.03998 9.0082 5.06047 9.00512H5.06662C6.85248 9.00512 9.90166 11.3566 11.1158 12.5031C9.90781 13.6404 6.87092 15.9918 5.08199 15.998ZM21.5236 9.20184C20.8166 8.41803 19.7838 8.00307 18.5297 8H18.5205C16.2121 8 12.8924 10.791 11.7982 11.8268C10.7008 10.791 7.38424 8 5.07584 8H5.06662C3.81252 8.00307 2.77666 8.42111 2.07276 9.20184C1.36887 9.98566 0.996945 11.1291 1.00002 12.5123C1.00309 13.8955 1.38117 15.0389 2.09121 15.8166C2.79817 16.5912 3.82789 17 5.07277 17H5.09121C7.40268 16.9908 10.707 14.2059 11.8013 13.1732C12.8955 14.2059 16.2029 16.9908 18.5082 17H18.5297C21.0717 17 22.5933 15.3248 22.6025 12.5123C22.5994 11.1322 22.2275 9.98566 21.5236 9.20184Z" fill="#86888C"/>
</svg>
