<svg width="20" height="20" viewBox="0 0 20 20" fill="none" xmlns="http://www.w3.org/2000/svg">
<path fill-rule="evenodd" clip-rule="evenodd" d="M15.6295 13.2206H15.6151C14.2261 13.2158 11.8617 11.3893 10.9198 10.5C11.8641 9.61066 14.2357 7.77937 15.6247 7.77937H15.6295C16.4232 7.78176 17.04 8.01844 17.4583 8.48463C17.8791 8.95082 18.0895 9.62978 18.0871 10.5072C18.0847 12.2572 17.2097 13.2206 15.6295 13.2206ZM5.17488 13.2206H5.16053C4.3716 13.2206 3.75958 12.9863 3.3412 12.5273C2.91805 12.0659 2.70288 11.387 2.70049 10.5096C2.6981 9.63456 2.90848 8.95321 3.32925 8.48702C3.75001 8.02083 4.36443 7.78415 5.15814 7.78176H5.16292C6.55193 7.78176 8.92351 9.61066 9.86784 10.5024C8.92829 11.387 6.56627 13.2158 5.17488 13.2206ZM17.9628 7.93477C17.4129 7.32514 16.6096 7.00239 15.6342 7H15.6271C13.8316 7 11.2497 9.17077 10.3986 9.97643C9.5451 9.17077 6.96552 7 5.1701 7H5.16292C4.18751 7.00239 3.38185 7.32753 2.83437 7.93477C2.2869 8.5444 1.99762 9.43374 2.00001 10.5096C2.00241 11.5854 2.29646 12.4747 2.84872 13.0796C3.39858 13.682 4.19947 14 5.16771 14H5.18205C6.97986 13.9928 9.54988 11.8268 10.401 11.0236C11.2521 11.8268 13.8245 13.9928 15.6175 14H15.6342C17.6114 14 18.7948 12.6971 18.8019 10.5096C18.7995 9.43613 18.5103 8.5444 17.9628 7.93477Z" fill="#86888C"/>
</svg>
