<svg width="20" height="20" viewBox="0 0 20 20" fill="none" xmlns="http://www.w3.org/2000/svg">
<path fill-rule="evenodd" clip-rule="evenodd" d="M16.1124 15.1447C16.5997 15.1447 16.9959 15.5295 16.9959 16.0054C16.9959 16.4745 16.602 16.8593 16.1124 16.8593C15.6297 16.8593 15.2358 16.4745 15.2358 16.0054C15.2358 15.5295 15.6297 15.1447 16.1124 15.1447ZM7.08667 13.6852C8.15682 13.4439 9.14729 13.3528 9.69603 13.3186V16.9458C8.59855 16.6589 7.64907 15.4271 7.08667 13.6852ZM4.35207 14.7394C4.88715 14.4002 5.50192 14.1452 6.12352 13.9425C6.49922 15.0832 7.02747 16.0441 7.66956 16.7477C6.23054 16.4039 5.12623 15.7322 4.35207 14.7394ZM3.02007 10.5522H5.55657C5.59072 11.4128 5.69774 12.2348 5.87078 12.9976C5.16266 13.2184 4.45226 13.5144 3.82382 13.9061C3.34794 12.993 3.07243 11.8705 3.02007 10.5522ZM3.80788 6.10986C4.44998 6.50832 5.16038 6.80205 5.86168 7.02291C5.68863 7.81984 5.57478 8.67369 5.54746 9.57307H3.01323C3.05877 8.20919 3.32745 7.05479 3.80788 6.10986ZM7.67639 3.25231C7.02747 3.95588 6.49922 4.9213 6.12352 6.07798C5.50192 5.87534 4.88715 5.62032 4.33841 5.27423C5.11257 4.2701 6.22371 3.59841 7.67639 3.25231ZM9.69603 3.04967V6.69731C9.14729 6.66543 8.16365 6.57891 7.08667 6.33983C7.64907 4.58432 8.59172 3.34339 9.69603 3.04967ZM6.55159 9.57307C6.57891 8.7716 6.67226 7.99516 6.82482 7.28248C8.02248 7.56254 9.1063 7.64907 9.69375 7.67411V9.57307H6.55159ZM9.69603 10.5522V12.3395C9.1063 12.3737 8.02248 12.4693 6.83393 12.738C6.67909 12.0595 6.58574 11.3218 6.56069 10.5522H9.69603ZM16.1124 3.27053C16.5997 3.27053 16.9959 3.65533 16.9959 4.12438C16.9959 4.60026 16.602 4.98506 16.1124 4.98506C15.6297 4.98506 15.2358 4.60026 15.2358 4.12438C15.2358 3.65761 15.6297 3.27053 16.1124 3.27053ZM16.1124 9.22926C16.5997 9.22926 16.9959 9.61406 16.9959 10.0899C16.9959 10.5658 16.602 10.9506 16.1124 10.9506C15.6297 10.9506 15.2358 10.5658 15.2358 10.0899C15.2358 9.61406 15.6297 9.22926 16.1124 9.22926ZM14.3045 10.5795C14.5254 11.3559 15.2472 11.9297 16.1101 11.9297C17.153 11.9297 17.9954 11.1009 17.9954 10.0899C17.9954 9.07898 17.153 8.25018 16.1101 8.25018C15.2472 8.25018 14.5254 8.82396 14.3045 9.6004H10.6979V8.70556H13.0203C13.2936 8.70556 13.5144 8.48925 13.5213 8.22285L13.5554 4.61392H14.3045C14.5254 5.39035 15.2472 5.96414 16.1101 5.96414C17.153 5.96414 17.9954 5.14217 17.9954 4.12438C17.9954 3.11342 17.153 2.29145 16.1101 2.29145C15.2472 2.29145 14.5254 2.86523 14.3045 3.63484H13.0613C12.7881 3.63484 12.5604 3.85115 12.5604 4.12438L12.5217 7.72648H10.7024V2.48954C10.7024 2.21631 10.4816 2 10.2015 2C4.83706 2 2 4.76647 2 9.99658V10.0763C2.01366 12.0276 2.42123 13.626 3.2045 14.8647C3.21816 14.8897 3.22499 14.9239 3.24548 14.9421C3.25914 14.9557 3.2728 14.9557 3.27964 14.9671C4.59798 16.964 6.925 18 10.2038 18C10.4861 18 10.7047 17.7791 10.7047 17.5105V12.4056H12.524L12.5627 16.0122C12.5627 16.2786 12.7904 16.4949 13.0636 16.4949H14.3091C14.53 17.2714 15.2517 17.8383 16.1147 17.8383C17.1575 17.8383 18 17.0164 18 16.0054C18 14.9944 17.1575 14.1656 16.1147 14.1656C15.2517 14.1656 14.53 14.7394 14.3091 15.5159H13.56L13.5258 11.9092C13.519 11.6428 13.2981 11.4265 13.0249 11.4265H10.7024V10.5795H14.3045Z" fill="#86888C"/>
</svg>
