<svg width="24" height="24" viewBox="0 0 24 24" fill="none" xmlns="http://www.w3.org/2000/svg">
<path fill-rule="evenodd" clip-rule="evenodd" d="M11.7027 15.4339C12.1527 15.4339 12.4452 15.6729 12.4452 16.1876C12.4452 16.4351 12.3777 16.6179 12.2567 16.7416C12.1274 16.8766 11.9361 16.9413 11.7027 16.9413C11.4693 16.9413 11.278 16.8766 11.1487 16.7416C11.0277 16.6179 10.9602 16.4351 10.9602 16.1876C10.9602 15.6729 11.2527 15.4339 11.7027 15.4339ZM11.7927 7.33143C6.01607 7.33143 3.20932 10.2001 3.20932 16.0976C3.20932 16.4379 2.93933 16.7135 2.60466 16.7135C2.26999 16.7135 2 16.4379 2 16.0976C2 9.55602 5.3861 6.09961 11.7899 6.09961C12.1217 6.09961 12.3945 6.37522 12.3945 6.71552C12.3973 7.05582 12.1245 7.33143 11.7927 7.33143ZM12.3777 10.0454C12.3777 10.3857 12.1077 10.6613 11.773 10.6613C8.16754 10.6613 6.41543 12.4528 6.41543 16.1342C6.41543 16.4745 6.14544 16.7501 5.81077 16.7501C5.47891 16.7501 5.20611 16.4745 5.20611 16.1342C5.20611 11.7469 7.47569 9.42946 11.773 9.42946C12.1077 9.42946 12.3777 9.70507 12.3777 10.0454ZM20.5617 17.6191V14.6661C20.5589 14.5958 20.5026 14.5283 20.4351 14.517H19.6842V17.771H20.4267C20.4998 17.771 20.5617 17.7035 20.5617 17.6191ZM18.1487 18.8678C18.3315 18.8678 18.4861 18.7047 18.4861 18.5162V18.3869H18.4777V13.8027C18.4777 13.6115 18.323 13.4512 18.1402 13.4512H12.2961C10.6537 13.5046 9.84652 14.3877 9.84652 16.1567C9.84652 17.92 10.6537 18.8087 12.3158 18.8706H18.1487V18.8678ZM20.4154 13.2852C21.1466 13.2852 21.7541 13.8983 21.7682 14.6549V17.6191C21.7682 18.3812 21.1635 19.0028 20.4239 19.0028H19.6167C19.417 19.6384 18.8349 20.0996 18.1487 20.0996H12.2736C9.96183 20.0152 8.64002 18.5753 8.64002 16.1538C8.64002 13.7268 9.96464 12.2925 12.2764 12.2165H18.1402C18.8152 12.2165 19.3917 12.6637 19.5998 13.2852H20.4154Z" fill="#86888C"/>
</svg>
