<svg width="28" height="28" viewBox="0 0 28 28" fill="none" xmlns="http://www.w3.org/2000/svg">
<path d="M13.9966 25.9434C10.1863 25.9434 7.22124 24.9482 5.18319 22.9851C3.07015 20.9471 2 17.907 2 13.9468C2 9.98653 3.07356 6.94307 5.18659 4.90502C7.22465 2.94194 10.1863 1.94336 13.9966 1.94336C17.8069 1.94336 20.7719 2.93853 22.81 4.90161C24.9264 6.93967 25.9966 9.98312 25.9966 13.9434C25.9966 17.9036 24.923 20.9471 22.81 22.9817C20.7753 24.9482 17.8103 25.9434 13.9966 25.9434ZM13.9966 3.30661C6.94178 3.30661 3.36325 6.88514 3.36325 13.9468C3.36325 21.0016 6.94178 24.5801 13.9966 24.5801C21.0548 24.5801 24.6368 21.0016 24.6368 13.9468C24.6368 6.88855 21.0582 3.30661 13.9966 3.30661Z" fill="#86888C"/>
<path d="M13.9352 25.8343C13.5603 25.8343 13.2536 25.5276 13.2536 25.1527V2.66929C13.2536 2.29439 13.5603 1.98766 13.9352 1.98766C14.3101 1.98766 14.6168 2.29439 14.6168 2.66929V25.1561C14.6168 25.531 14.3135 25.8343 13.9352 25.8343Z" fill="#86888C"/>
<path d="M24.647 10.6579H3.24741C2.87252 10.6579 2.56579 10.3512 2.56579 9.9763C2.56579 9.60141 2.87252 9.29468 3.24741 9.29468H24.647C25.0219 9.29468 25.3286 9.60141 25.3286 9.9763C25.3286 10.3512 25.0253 10.6579 24.647 10.6579Z" fill="#86888C"/>
<path d="M13.8057 25.8309C12.8037 25.8309 11.8392 25.4867 10.9429 24.8119C10.1147 24.1882 9.37857 23.3089 8.75489 22.1944C7.50751 19.9723 6.81907 17.0345 6.81907 13.9229C6.81907 10.8113 7.50751 7.87008 8.75489 5.6514C9.38198 4.53694 10.1181 3.65765 10.9429 3.03396C11.8426 2.35915 12.8037 2.01493 13.8057 2.01493C14.8077 2.01493 15.7722 2.35915 16.6685 3.03396C17.4967 3.65765 18.2329 4.53694 18.8566 5.6514C20.1039 7.87349 20.7924 10.8113 20.7924 13.9229C20.7924 17.0345 20.1039 19.9757 18.8566 22.1944C18.2295 23.3089 17.4933 24.1882 16.6685 24.8119C15.7722 25.4867 14.8077 25.8309 13.8057 25.8309ZM13.8057 3.37818C12.3777 3.37818 11.0077 4.42106 9.94091 6.31939C8.80601 8.34041 8.18232 11.0396 8.18232 13.9229C8.18232 16.8062 8.80601 19.5054 9.94091 21.5264C11.0042 23.4213 12.3777 24.4676 13.8057 24.4676C15.2337 24.4676 16.6038 23.4248 17.6705 21.5264C18.8054 19.5054 19.4291 16.8062 19.4291 13.9229C19.4291 11.0396 18.8054 8.34041 17.6705 6.31939C16.6038 4.42106 15.2337 3.37818 13.8057 3.37818Z" fill="#86888C"/>
<path d="M24.6504 19.3043H3.39393C3.01903 19.3043 2.7123 18.9976 2.7123 18.6227C2.7123 18.2478 3.01903 17.9411 3.39393 17.9411H24.6538C25.0287 17.9411 25.3354 18.2478 25.3354 18.6227C25.3354 18.9976 25.0287 19.3043 24.6504 19.3043Z" fill="#86888C"/>
</svg>
