<svg width="24" height="24" viewBox="0 0 24 24" fill="none" xmlns="http://www.w3.org/2000/svg">
<path fill-rule="evenodd" clip-rule="evenodd" d="M19.6405 18.4309C20.2496 18.4309 20.7448 18.9119 20.7448 19.5068C20.7448 20.0931 20.2525 20.5741 19.6405 20.5741C19.0371 20.5741 18.5448 20.0931 18.5448 19.5068C18.5448 18.9119 19.0371 18.4309 19.6405 18.4309ZM8.35833 16.6065C9.69603 16.3048 10.9341 16.191 11.62 16.1483V20.6822C10.2482 20.3236 9.06134 18.7838 8.35833 16.6065ZM4.94009 17.9243C5.60894 17.5002 6.3774 17.1814 7.1544 16.9281C7.62402 18.3541 8.28433 19.5551 9.08695 20.4346C7.28817 20.0048 5.90778 19.1652 4.94009 17.9243ZM3.27508 12.6902H6.44571C6.4884 13.766 6.62217 14.7935 6.83848 15.747C5.95332 16.0231 5.06532 16.3931 4.27978 16.8826C3.68493 15.7413 3.34054 14.3381 3.27508 12.6902ZM4.25985 7.13733C5.06247 7.63541 5.95048 8.00256 6.8271 8.27864C6.61079 9.2748 6.46848 10.3421 6.43432 11.4663H3.26654C3.32347 9.76149 3.65931 8.31849 4.25985 7.13733ZM9.09549 3.56539C8.28433 4.44486 7.62402 5.65163 7.1544 7.09748C6.3774 6.84417 5.60894 6.5254 4.92301 6.09278C5.89071 4.83763 7.27964 3.99801 9.09549 3.56539ZM11.62 3.31208V7.87164C10.9341 7.83179 9.70457 7.72364 8.35833 7.42479C9.06134 5.2304 10.2396 3.67924 11.62 3.31208ZM7.68948 11.4663C7.72364 10.4645 7.84033 9.49395 8.03102 8.6031C9.52811 8.95318 10.8829 9.06133 11.6172 9.09264V11.4663H7.68948ZM11.62 12.6902V14.9244C10.8829 14.9671 9.52811 15.0867 8.04241 15.4225C7.84887 14.5744 7.73218 13.6522 7.70087 12.6902H11.62ZM19.6405 3.58816C20.2496 3.58816 20.7448 4.06916 20.7448 4.65547C20.7448 5.25032 20.2525 5.73132 19.6405 5.73132C19.0371 5.73132 18.5448 5.25032 18.5448 4.65547C18.5448 4.07201 19.0371 3.58816 19.6405 3.58816ZM19.6405 11.0366C20.2496 11.0366 20.7448 11.5176 20.7448 12.1124C20.7448 12.7073 20.2525 13.1883 19.6405 13.1883C19.0371 13.1883 18.5448 12.7073 18.5448 12.1124C18.5448 11.5176 19.0371 11.0366 19.6405 11.0366ZM17.3807 12.7243C17.6568 13.6949 18.559 14.4121 19.6377 14.4121C20.9412 14.4121 21.9943 13.3761 21.9943 12.1124C21.9943 10.8487 20.9412 9.81272 19.6377 9.81272C18.559 9.81272 17.6568 10.53 17.3807 11.5005H12.8723V10.382H15.7754C16.117 10.382 16.3931 10.1116 16.4016 9.77857L16.4443 5.2674H17.3807C17.6568 6.23794 18.559 6.95517 19.6377 6.95517C20.9412 6.95517 21.9943 5.92771 21.9943 4.65547C21.9943 3.39177 20.9412 2.36431 19.6377 2.36431C18.559 2.36431 17.6568 3.08154 17.3807 4.04355H15.8267C15.4851 4.04355 15.2005 4.31393 15.2005 4.65547L15.1521 9.1581H12.878V2.61193C12.878 2.27039 12.602 2 12.2519 2C5.54632 2 2 5.45809 2 11.9957V12.0953C2.01708 14.5345 2.52654 16.5325 3.50562 18.0808C3.5227 18.1121 3.53124 18.1548 3.55685 18.1776C3.57393 18.1947 3.59101 18.1947 3.59954 18.2089C5.24747 20.705 8.15625 22 12.2547 22C12.6077 22 12.8809 21.7239 12.8809 21.3881V15.007H15.155L15.2034 19.5153C15.2034 19.8483 15.488 20.1187 15.8295 20.1187H17.3864C17.6624 21.0892 18.5647 21.7979 19.6434 21.7979C20.9469 21.7979 22 20.7705 22 19.5068C22 18.2431 20.9469 17.2071 19.6434 17.2071C18.5647 17.2071 17.6624 17.9243 17.3864 18.8948H16.45L16.4073 14.3865C16.3987 14.0535 16.1227 13.7831 15.7811 13.7831H12.878V12.7243H17.3807Z" fill="#86888C"/>
</svg>
