<svg width="40" height="40" viewBox="0 0 40 40" fill="none" xmlns="http://www.w3.org/2000/svg">
<path fill-rule="evenodd" clip-rule="evenodd" d="M9.01665 21.1421C9.85659 21.1421 10.1178 20.8743 10.1178 20C10.1178 19.1202 9.86172 18.8525 9.01665 18.8525C8.17158 18.8525 7.91549 19.1202 7.91549 20C7.91549 20.8689 8.1767 21.1421 9.01665 21.1421ZM9.01665 16.5137C11.1063 16.5137 12.356 17.8142 12.356 19.9945C12.356 22.1421 11.0755 23.4754 9.01665 23.4754C6.95263 23.4754 5.67222 22.1421 5.67222 19.9945C5.67734 17.8142 6.92702 16.5137 9.01665 16.5137ZM33.4213 21.7377L35.2446 19.929L32.8988 17.6503H15.6184C15.178 17.6503 14.7734 17.377 14.5941 16.9563C13.8412 15.1858 12.233 14.3279 9.68758 14.3279C5.97951 14.3279 4.2484 16.1257 4.2484 19.9945C4.2484 23.8579 5.97951 25.6612 9.68758 25.6612C12.0948 25.6612 13.662 24.9454 14.3432 23.5301C14.4149 23.3825 14.5787 22.9454 14.5787 22.9399C14.7478 22.4918 15.1626 22.2022 15.6184 22.2022H23.854L25.5339 19.6831C25.7388 19.377 26.0717 19.1913 26.4251 19.1803C26.758 19.1694 27.1216 19.3388 27.3419 19.6339L28.5915 21.3224L29.5442 19.7268C29.7234 19.4262 30.0307 19.224 30.3688 19.1858C30.7068 19.1475 31.0448 19.2678 31.2855 19.5191L33.4213 21.7377ZM37.6415 19.0656C37.8668 19.2842 37.9949 19.5902 38 19.9126C38 20.235 37.872 20.541 37.6517 20.765L34.1741 24.2131C33.7337 24.6503 33.0371 24.6393 32.6069 24.1913L30.7068 22.2131L29.6466 23.9836C29.452 24.3115 29.114 24.5137 28.7503 24.5355C28.3713 24.5683 28.0333 24.388 27.8079 24.082L26.507 22.3279L25.3649 24.0383C25.1549 24.3552 24.8118 24.541 24.443 24.541H16.3611C16.356 24.5574 16.3457 24.5683 16.3406 24.5847C15.5877 26.1421 13.8259 28 9.68246 28C4.72983 28 2 25.1585 2 20C2 14.8415 4.72983 12 9.68246 12C13.4776 12 15.3624 13.6776 16.2945 15.3224H33.3342C33.6159 15.3224 33.8924 15.4372 34.0973 15.6339L37.6415 19.0656Z" fill="#86888C"/>
</svg>
