<svg width="20" height="20" viewBox="0 0 20 20" fill="none" xmlns="http://www.w3.org/2000/svg">
<path d="M16.8646 2.91013C16.9898 2.91013 17.0921 3.01251 17.0921 3.13766V9.2992C17.0921 9.42435 16.9898 9.52673 16.8646 9.52673H16.8623C16.8032 9.52673 16.744 9.50171 16.7031 9.45848L15.6542 8.40956L15.4881 8.24346C15.4312 8.29352 15.3743 8.34357 15.322 8.40045L9.78612 13.9386C9.69738 14.0273 9.55404 14.0273 9.4653 13.9386L6.05461 10.5279C5.96587 10.4391 5.96587 10.2958 6.05461 10.2071L11.5904 4.67122C11.6792 4.58248 11.6792 4.43914 11.5904 4.3504L10.5415 3.30148C10.4528 3.21274 10.4528 3.0694 10.5415 2.98066C10.5848 2.93743 10.6416 2.91468 10.7031 2.91468H16.8646V2.91013ZM16.8646 2H10.7031C10.0751 2 9.56542 2.50967 9.56542 3.13766C9.56542 3.44027 9.68601 3.72924 9.89761 3.94312L10.4642 4.50967L5.41069 9.56314C4.96701 10.0068 4.96701 10.7281 5.41069 11.1718L8.81911 14.5825C9.2628 15.0262 9.98407 15.0262 10.4278 14.5825L15.4812 9.52673L16.0569 10.1047C16.2685 10.3185 16.5575 10.4391 16.8601 10.4391C17.4881 10.4391 17.9977 9.92947 18 9.30148V3.13766C18 2.50967 17.4926 2 16.8646 2V2ZM2.45506 17.9932C2.20478 17.9932 2 17.7907 2 17.5381C2 17.4175 2.04778 17.3015 2.13424 17.215L5.89761 13.4516C6.07281 13.2719 6.3595 13.2651 6.54152 13.4403C6.72127 13.6155 6.7281 13.9022 6.5529 14.0842L6.54152 14.0956L2.77588 17.8589C2.6917 17.9454 2.57565 17.9932 2.45506 17.9932ZM6.54608 17.9954C6.29579 17.9954 6.09101 17.7907 6.09101 17.5404C6.09101 17.4198 6.13879 17.3038 6.22526 17.2196C7.07167 16.3732 8.07053 15.3288 8.08191 15.3174C8.25256 15.1331 8.54152 15.124 8.72582 15.2947C8.91013 15.4653 8.91923 15.7543 8.74858 15.9386C8.7463 15.9408 8.74403 15.9431 8.74175 15.9477C8.73265 15.959 7.72469 17.0102 6.87145 17.8635C6.78271 17.9477 6.66667 17.9954 6.54608 17.9954ZM2.49602 13.9454C2.24573 13.9454 2.04096 13.7406 2.04096 13.4903C2.04096 13.3697 2.08874 13.2537 2.17292 13.1695C3.01934 12.3231 4.0182 11.2787 4.02958 11.2673C4.20023 11.083 4.48919 11.0739 4.67349 11.2446C4.85779 11.4152 4.86689 11.7042 4.69625 11.8885C4.69397 11.8908 4.69169 11.8931 4.68942 11.8976C4.68032 11.909 3.67235 12.9602 2.81911 13.8134C2.73265 13.8976 2.61661 13.9454 2.49602 13.9454Z" fill="#86888C"/>
</svg>
