<svg width="28" height="28" viewBox="0 0 28 28" fill="none" xmlns="http://www.w3.org/2000/svg">
<path fill-rule="evenodd" clip-rule="evenodd" d="M24.4685 21.0604C20.0356 21.1902 16.4838 22.4025 14.7626 23.1163V8.50956C18.5022 6.67561 22.8019 6.54242 24.4685 6.57315V21.0604ZM3.52659 6.57315C5.1932 6.55266 9.48268 6.67219 13.2326 8.50956V23.1163C11.5147 22.406 7.9595 21.1902 3.52659 21.0604V6.57315ZM25.295 5.09096C25.0389 5.07047 19.1306 4.6504 13.9976 7.20496C8.86794 4.64699 2.95967 5.07047 2.70353 5.09096C2.30395 5.1217 2 5.44956 2 5.84572V21.8083C2 22.225 2.34152 22.5665 2.765 22.5665C8.93283 22.5665 13.598 24.9434 13.6458 24.9674C13.7585 25.0254 13.878 25.0527 14.001 25.0527C14.0317 25.0527 14.059 25.0322 14.0932 25.0288C14.1854 25.0186 14.2742 25.0083 14.3596 24.9639C14.363 24.9639 14.3835 24.9537 14.3971 24.9434C14.7967 24.7454 19.3013 22.5631 25.2369 22.5631C25.6604 22.5631 26.0019 22.225 26.0019 21.8049V5.8423C25.9985 5.44956 25.6912 5.1217 25.295 5.09096Z" fill="#86888C"/>
</svg>
