<svg width="20" height="20" viewBox="0 0 20 20" fill="none" xmlns="http://www.w3.org/2000/svg">
<path fill-rule="evenodd" clip-rule="evenodd" d="M17.728 15.2581C14.6249 15.3489 12.1387 16.1976 10.9338 16.6972V6.47252C13.5515 5.18875 16.5613 5.09551 17.728 5.11703V15.2581ZM3.06861 5.11703C4.23524 5.10268 7.23787 5.18636 9.86279 6.47252V16.6972C8.6603 16.2 6.17165 15.3489 3.06861 15.2581V5.11703ZM18.3065 4.07949C18.1272 4.06515 13.9914 3.7711 10.3983 5.55929C6.80756 3.76871 2.67177 4.06515 2.49247 4.07949C2.21277 4.10101 2 4.33051 2 4.60782V15.7816C2 16.0733 2.23906 16.3124 2.5355 16.3124C6.85298 16.3124 10.1186 17.9762 10.1521 17.993C10.2309 18.0336 10.3146 18.0527 10.4007 18.0527C10.4222 18.0527 10.4413 18.0384 10.4652 18.036C10.5298 18.0288 10.5919 18.0217 10.6517 17.9906C10.6541 17.9906 10.6684 17.9834 10.678 17.9762C10.9577 17.8376 14.1109 16.31 18.2659 16.31C18.5623 16.31 18.8014 16.0733 18.8014 15.7792V4.60543C18.799 4.33051 18.5838 4.10101 18.3065 4.07949Z" fill="#86888C"/>
</svg>
