<svg width="40" height="40" viewBox="0 0 40 40" fill="none" xmlns="http://www.w3.org/2000/svg">
<path fill-rule="evenodd" clip-rule="evenodd" d="M35.7028 29.0642C29.0534 29.2589 23.7257 31.0775 21.1438 32.1481V10.238C26.7533 7.48705 33.2029 7.28726 35.7028 7.33336V29.0642ZM4.28988 7.33336C6.7898 7.30263 13.224 7.48192 18.8488 10.238V32.1481C16.2721 31.0826 10.9393 29.2589 4.28988 29.0642V7.33336ZM36.9425 5.11008C36.5583 5.07934 27.6959 4.44924 19.9963 8.28108C12.3019 4.44411 3.4395 5.07934 3.05529 5.11008C2.45593 5.15618 2 5.64797 2 6.24221V30.1861C2 30.8111 2.51228 31.3234 3.1475 31.3234C12.3992 31.3234 19.397 34.8888 19.4687 34.9247C19.6377 35.0118 19.817 35.0527 20.0015 35.0527C20.0476 35.0527 20.0885 35.022 20.1398 35.0169C20.2781 35.0015 20.4113 34.9861 20.5393 34.9195C20.5445 34.9195 20.5752 34.9042 20.5957 34.8888C21.1951 34.5917 27.952 31.3182 36.8554 31.3182C37.4906 31.3182 38.0029 30.8111 38.0029 30.181V6.23709C37.9978 5.64797 37.5367 5.15618 36.9425 5.11008Z" fill="#86888C"/>
</svg>
