<svg width="40" height="40" viewBox="0 0 40 40" fill="none" xmlns="http://www.w3.org/2000/svg">
<path fill-rule="evenodd" clip-rule="evenodd" d="M16.3789 33.2368L19.842 24.1949C19.9547 23.8926 19.9393 23.5545 19.7959 23.2676C19.6524 22.9808 19.3911 22.7707 19.0838 22.6939L12.1935 20.988L23.2589 9.108L19.9393 17.53C19.8215 17.8323 19.8368 18.1755 19.9803 18.4624C20.1237 18.7544 20.385 18.9644 20.6924 19.0413L28.2742 20.9111L16.3789 33.2368ZM31.4607 19.9839C31.3531 19.5945 31.0508 19.2974 30.6666 19.2001L22.4341 17.1714L27.4085 4.54351C27.6031 4.0466 27.4289 3.47283 26.9884 3.18083C26.5478 2.88882 25.974 2.95542 25.6103 3.34476L9.3042 20.8496C9.03269 21.1365 8.93535 21.5566 9.04293 21.9408C9.15051 22.325 9.45276 22.6222 9.83186 22.7144L17.3522 24.574L12.4138 37.4683C12.2242 37.9652 12.3984 38.5287 12.8339 38.8156C13.0183 38.9385 13.2232 39 13.4281 39C13.7099 39 13.9865 38.8873 14.2017 38.6721L31.184 21.0802C31.4607 20.7933 31.5682 20.3732 31.4607 19.9839Z" fill="#86888C"/>
</svg>
