<svg width="28" height="28" viewBox="0 0 28 28" fill="none" xmlns="http://www.w3.org/2000/svg">
<path d="M14.0819 26.4766H14.0614C13.9997 26.4766 13.9449 26.4766 13.8935 26.4731H13.8729C13.7084 26.4629 13.5439 26.4423 13.3829 26.4046C12.8209 26.2778 12.2864 26.0414 11.8203 25.7021C11.2618 25.2978 10.6039 24.633 10.4154 24.4411C8.47249 22.4365 7.33826 21.0145 5.9162 18.8077C4.13776 16.0458 2.91445 13.3011 2.28394 10.6522C1.59861 7.77385 2.16401 5.38547 3.87048 3.91885C4.86079 3.07247 6.21432 2.5619 7.67408 2.48651C9.21265 2.4077 10.8095 2.79834 12.2898 3.62074C12.7935 3.89829 13.3109 4.19984 13.8763 4.53223C13.9894 4.59391 14.1265 4.59391 14.243 4.53223C14.805 4.19641 15.3258 3.89829 15.833 3.61731C17.3098 2.79834 18.9067 2.4077 20.4452 2.48651C21.9084 2.5619 23.2585 3.07247 24.2488 3.92228C25.9553 5.38547 26.5207 7.77727 25.8354 10.6557C25.2049 13.3011 23.985 16.0424 22.2031 18.8077C20.7948 20.9973 19.6674 22.4125 17.7519 24.3897C17.7382 24.4069 17.7245 24.424 17.7073 24.4411C17.5189 24.6364 16.8644 25.2978 16.3058 25.6987C15.8398 26.0379 15.3053 26.2778 14.7433 26.4012C14.5822 26.4389 14.4177 26.4629 14.2533 26.4697H14.2327C14.1813 26.4766 14.1333 26.4766 14.0819 26.4766ZM14.0614 25.1059H14.1676C14.2567 25.1025 14.3424 25.0888 14.428 25.0682L14.4486 25.0648C14.8289 24.9791 15.1887 24.8181 15.504 24.585C15.8569 24.3315 16.3435 23.8723 16.6759 23.5331C16.6896 23.5159 16.7033 23.4988 16.717 23.4851C18.612 21.5319 19.664 20.2126 21.0483 18.0641C22.7445 15.4256 23.9062 12.8247 24.5024 10.3336C24.7834 9.15479 24.8279 8.0891 24.6326 7.17076C24.4373 6.25926 24.009 5.51568 23.3613 4.95713C22.5972 4.30264 21.5383 3.912 20.3801 3.85032C19.0917 3.78864 17.7485 4.12103 16.4943 4.82007C15.9974 5.0942 15.4869 5.38889 14.9317 5.71785L14.918 5.7247C14.3801 6.02625 13.7221 6.02625 13.1841 5.71785L13.1773 5.71442C12.6222 5.38547 12.115 5.09077 11.6216 4.82007C10.3709 4.12103 9.02761 3.78864 7.74604 3.85375C6.5844 3.912 5.52556 4.30607 4.76484 4.96056C4.11378 5.5191 3.68544 6.26269 3.49012 7.17418C3.2948 8.09253 3.33592 9.15822 3.61691 10.337C4.21315 12.8316 5.37136 15.4324 7.06756 18.0675C8.45193 20.2161 9.50391 21.5319 11.3989 23.4885C11.7278 23.8312 12.2487 24.3212 12.6187 24.5885C12.934 24.8181 13.2938 24.9825 13.6742 25.0682L13.6947 25.0716C13.7804 25.0922 13.8695 25.1025 13.9551 25.1093H14.0614V25.1059Z" fill="#86888C"/>
</svg>
