<svg width="20" height="20" viewBox="0 0 20 20" fill="none" xmlns="http://www.w3.org/2000/svg">
<path fill-rule="evenodd" clip-rule="evenodd" d="M16.3151 12.2428V5.45576C16.3151 4.61254 15.6023 3.9258 14.7243 3.9258H4.54921C3.67122 3.9258 2.9584 4.61254 2.9584 5.45576V12.245C2.9584 12.986 3.45607 13.6011 4.16672 13.7423C4.39056 13.7858 4.55138 13.9749 4.55138 14.1965V15.8395C4.55138 15.9568 4.6883 16.0742 4.82086 16.0742C4.87737 16.0742 4.9643 16.0742 5.06861 15.9395L6.67681 13.9488C6.76808 13.8379 6.90717 13.7706 7.05495 13.7706H14.7265C15.6023 13.7706 16.3151 13.086 16.3151 12.2428ZM14.7243 3C16.1282 3 17.2735 4.10183 17.2735 5.45576V12.245C17.2735 13.5989 16.1304 14.6985 14.7243 14.6985H7.28749L5.82925 16.5023C5.65539 16.7262 5.33375 17 4.82086 17C4.15368 17 3.59298 16.4676 3.59298 15.8373V14.5399C2.63893 14.19 2 13.2925 2 12.2428V5.45576C2 4.10183 3.1453 3 4.54921 3H14.7243ZM11.4927 7.89848C11.5296 7.75287 11.5927 7.39863 11.4232 7.25737C11.3471 7.19435 11.2211 7.15306 11.0863 7.14654L11.0407 7.14436C10.8646 7.14436 10.6756 7.19652 10.4952 7.29432C10.3822 7.35517 10.2648 7.42037 10.1388 7.49208L10.1257 7.50078L10.1105 7.5073C9.95623 7.58988 9.78237 7.63117 9.60633 7.63117C9.42596 7.63117 9.24775 7.58553 9.09128 7.4986C8.94567 7.41602 8.83049 7.35082 8.71748 7.29215C8.5371 7.19435 8.34803 7.14219 8.16982 7.14219L8.12636 7.14436C7.99162 7.15088 7.86557 7.19218 7.78951 7.2552C7.61782 7.39646 7.68302 7.75287 7.71779 7.89631C7.84384 8.40702 8.09376 8.94598 8.46104 9.49798C8.76746 9.95653 9 10.2391 9.42161 10.6585C9.49333 10.728 9.56504 10.7911 9.60851 10.828C9.64763 10.7976 9.7063 10.7454 9.76933 10.6846L9.7715 10.6802L9.8041 10.6498C10.217 10.2347 10.4495 9.95654 10.7538 9.50015C11.1167 8.94815 11.3688 8.40919 11.4927 7.89848ZM11.1363 6.22074C11.484 6.23812 11.81 6.35548 12.0469 6.55324C12.4576 6.89444 12.5924 7.44644 12.4272 8.11363C12.2751 8.72648 11.9839 9.36107 11.5557 10.0022C11.2167 10.5085 10.9472 10.8367 10.4887 11.2952L10.4778 11.3061C10.4322 11.3518 10.2757 11.5061 10.141 11.5973C10.0258 11.6777 9.89537 11.7321 9.76715 11.7603C9.73021 11.7668 9.69109 11.7734 9.6498 11.7755H9.56722H9.56287C9.52158 11.7734 9.48246 11.7668 9.44551 11.7603C9.31512 11.7321 9.1869 11.6777 9.07172 11.5973C8.93915 11.5039 8.7805 11.3496 8.73487 11.3061C8.26979 10.8432 7.99814 10.5129 7.65694 10C7.23098 9.36107 6.9376 8.72431 6.78764 8.11146C6.62248 7.44427 6.75939 6.8901 7.16796 6.55107C7.40484 6.35331 7.72866 6.23595 8.08072 6.21857C8.11332 6.21857 8.14374 6.21639 8.17417 6.21639C8.51537 6.21639 8.86091 6.30549 9.1869 6.47935C9.3086 6.54455 9.43248 6.61409 9.56722 6.69016C9.58026 6.69885 9.59547 6.70102 9.61068 6.70102C9.62807 6.70102 9.64111 6.69668 9.65415 6.69016C9.78889 6.61192 9.91276 6.54238 10.0345 6.47718C10.3604 6.30332 10.7082 6.21422 11.0472 6.21422C11.0733 6.21857 11.1059 6.22074 11.1363 6.22074Z" fill="#86888C"/>
</svg>
