<svg width="40" height="40" viewBox="0 0 40 40" fill="none" xmlns="http://www.w3.org/2000/svg">
<path fill-rule="evenodd" clip-rule="evenodd" d="M12.4743 18.2028C12.9508 17.793 13.0071 17.0809 12.5922 16.6096C12.1823 16.1383 11.4651 16.087 10.9887 16.4917C10.1741 17.1885 8.87288 18.3975 8.02758 19.2377C4.63615 22.6137 2.84822 25.165 2.23859 27.5113C2.07978 28.121 2.00293 28.7152 2.00293 29.3044C2.00293 31.3382 2.94556 33.2645 4.85644 35.1651C10.1844 40.4623 15.1127 37.7317 20.8761 32.0042C26.6343 26.2767 29.3803 21.374 24.0523 16.0819C22.3105 14.3555 20.5789 13.4333 18.75 13.2745C18.125 13.2181 17.5717 13.6792 17.5154 14.2991C17.4795 14.9087 17.9252 15.4723 18.5502 15.5235C19.8259 15.6362 21.1015 16.3381 22.4437 17.6752C24.3392 19.5553 24.9591 21.2459 24.4673 23.1619C23.9704 25.0728 22.3208 27.373 19.2675 30.4058C16.2141 33.4386 13.9037 35.078 11.9825 35.5698C10.0563 36.0667 8.35545 35.4469 6.45994 33.5616C4.56443 31.6763 3.94455 29.9857 4.44148 28.0749C4.93841 26.164 6.58802 23.8637 9.64133 20.8309C10.4354 20.042 11.711 18.8586 12.4743 18.2028ZM35.1488 4.83179C32.6846 2.38299 30.1692 1.53257 27.4489 2.23442C25.0872 2.84406 22.5206 4.61662 19.124 7.99268C15.5174 11.5788 13.0891 14.8421 13.0891 18.0799C13.0891 20.0112 13.9549 21.9375 15.9477 23.9201C17.6127 25.58 19.2726 26.4867 21.0246 26.707C21.6496 26.7839 22.2183 26.3433 22.29 25.7234C22.3515 25.1086 21.9263 24.54 21.3013 24.4631C20.0769 24.3146 18.8474 23.6127 17.5512 22.3268C13.9088 18.6998 14.6824 15.6106 20.7275 9.59618C26.7778 3.58178 29.8874 2.81332 33.535 6.43529C37.1775 10.0521 36.409 13.1515 30.3588 19.1608C29.2932 20.2162 28.3557 21.0717 27.4899 21.7787C27.0083 22.1783 26.9366 22.8904 27.3362 23.3719C27.7358 23.8535 28.453 23.9252 28.9346 23.5256C29.8567 22.7725 30.8454 21.8709 31.9623 20.7592C37.7308 15.0317 40.4767 10.129 35.1488 4.83179Z" fill="#86888C"/>
</svg>
