<svg width="20" height="20" viewBox="0 0 20 20" fill="none" xmlns="http://www.w3.org/2000/svg">
<path fill-rule="evenodd" clip-rule="evenodd" d="M6.92316 7.36369C6.56118 7.36369 6.26978 7.07228 6.26978 6.71258C6.26978 6.35287 6.56118 6.06147 6.92316 6.06147C7.28515 6.06147 7.57655 6.35287 7.57655 6.71258C7.57655 7.07001 7.28287 7.36369 6.92316 7.36369ZM6.92772 9.37849C7.2897 9.37849 7.5811 9.66989 7.5811 10.0296C7.5811 10.3893 7.2897 10.6807 6.92772 10.6807C6.56574 10.6807 6.27433 10.3893 6.27433 10.0296C6.27433 9.66989 6.56574 9.37849 6.92772 9.37849ZM9.14286 7.24303C8.87194 7.24303 8.65111 7.02447 8.65111 6.75356C8.65111 6.48264 8.87194 6.26409 9.14286 6.26409H13.6642C13.9351 6.26409 14.1559 6.48264 14.1559 6.75356C14.1559 7.02447 13.9351 7.24303 13.6642 7.24303H9.14286ZM13.7302 9.54013C14.0011 9.54013 14.222 9.75868 14.222 10.0296C14.222 10.3005 14.0011 10.5191 13.7302 10.5191H9.20888C8.93796 10.5191 8.71713 10.3005 8.71713 10.0296C8.71713 9.75868 8.93796 9.54013 9.20888 9.54013H13.7302ZM6.92772 12.6386C7.2897 12.6386 7.5811 12.93 7.5811 13.2897C7.5811 13.6494 7.2897 13.9408 6.92772 13.9408C6.56574 13.9408 6.27433 13.6494 6.27433 13.2897C6.27433 12.93 6.56574 12.6386 6.92772 12.6386ZM13.7302 12.8002C14.0011 12.8002 14.222 13.0188 14.222 13.2897C14.222 13.5606 14.0011 13.7792 13.7302 13.7792H9.20888C8.93796 13.7792 8.71713 13.5606 8.71713 13.2897C8.71713 13.0188 8.93796 12.8002 9.20888 12.8002H13.7302ZM15.0165 16.7069V3.29311C15.0165 3.13603 14.8981 2.99488 14.848 2.97666L5.13147 2.97894C5.0996 2.99488 4.98122 3.13603 4.98122 3.29311V16.7069C4.98122 16.8731 5.08822 17.0028 5.13603 17.0211H14.8685C14.905 17.0097 15.0165 16.8845 15.0165 16.7069ZM14.8685 2C15.4604 2 16 2.61696 16 3.29311V16.7069C16 17.4081 15.4809 18 14.8685 18H5.13147C4.51679 18 4 17.4081 4 16.7069V3.29311C4 2.61696 4.53956 2 5.13147 2H14.8685Z" fill="#86888C"/>
</svg>
