<svg width="28" height="28" viewBox="0 0 28 28" fill="none" xmlns="http://www.w3.org/2000/svg">
<path fill-rule="evenodd" clip-rule="evenodd" d="M9.38475 10.0455C8.84178 10.0455 8.40467 9.60842 8.40467 9.06887C8.40467 8.52931 8.84178 8.0922 9.38475 8.0922C9.92772 8.0922 10.3648 8.52931 10.3648 9.06887C10.3648 9.60501 9.9243 10.0455 9.38475 10.0455ZM9.39158 13.0677C9.93455 13.0677 10.3717 13.5048 10.3717 14.0444C10.3717 14.584 9.93455 15.0211 9.39158 15.0211C8.84861 15.0211 8.4115 14.584 8.4115 14.0444C8.4115 13.5048 8.84861 13.0677 9.39158 13.0677ZM12.7143 9.86454C12.3079 9.86454 11.9767 9.53671 11.9767 9.13034C11.9767 8.72396 12.3079 8.39613 12.7143 8.39613H19.4963C19.9027 8.39613 20.2339 8.72396 20.2339 9.13034C20.2339 9.53671 19.9027 9.86454 19.4963 9.86454H12.7143ZM19.5953 13.3102C20.0017 13.3102 20.333 13.638 20.333 14.0444C20.333 14.4508 20.0017 14.7786 19.5953 14.7786H12.8133C12.4069 14.7786 12.0757 14.4508 12.0757 14.0444C12.0757 13.638 12.4069 13.3102 12.8133 13.3102H19.5953ZM9.39158 17.9579C9.93455 17.9579 10.3717 18.395 10.3717 18.9345C10.3717 19.4741 9.93455 19.9112 9.39158 19.9112C8.84861 19.9112 8.4115 19.4741 8.4115 18.9345C8.4115 18.395 8.84861 17.9579 9.39158 17.9579ZM19.5953 18.2003C20.0017 18.2003 20.333 18.5282 20.333 18.9345C20.333 19.3409 20.0017 19.6688 19.5953 19.6688H12.8133C12.4069 19.6688 12.0757 19.3409 12.0757 18.9345C12.0757 18.5282 12.4069 18.2003 12.8133 18.2003H19.5953ZM21.5248 24.0603V3.93967C21.5248 3.70404 21.3472 3.49232 21.2721 3.465L6.69721 3.46841C6.6494 3.49232 6.47183 3.70404 6.47183 3.93967V24.0603C6.47183 24.3096 6.63233 24.5043 6.70404 24.5316H21.3028C21.3574 24.5145 21.5248 24.3267 21.5248 24.0603ZM21.3028 2C22.1907 2 23 2.92544 23 3.93967V24.0603C23 25.1121 22.2214 26 21.3028 26H6.69721C5.77519 26 5 25.1121 5 24.0603V3.93967C5 2.92544 5.80933 2 6.69721 2H21.3028Z" fill="#86888C"/>
</svg>
