<svg width="24" height="24" viewBox="0 0 24 24" fill="none" xmlns="http://www.w3.org/2000/svg">
<path fill-rule="evenodd" clip-rule="evenodd" d="M11.9972 20.7735C17.8196 20.7735 20.7735 17.8224 20.7735 12.0028C20.7735 6.18042 17.8224 3.22652 11.9972 3.22652C6.17758 3.22652 3.22652 6.18042 3.22652 12.0028C3.22652 17.8224 6.17758 20.7735 11.9972 20.7735ZM11.9972 2C18.5396 2 22 5.4576 22 12.0028C22 18.5424 18.5424 22 11.9972 22C5.4576 22 2 18.5424 2 12.0028C2 5.4576 5.4576 2 11.9972 2ZM12.0427 4.07456C12.3813 4.07456 12.6574 4.3506 12.6574 4.68924V7.76266C12.6574 8.10131 12.3842 8.37735 12.0427 8.37735C11.7012 8.37735 11.428 8.10416 11.428 7.76266V4.68924C11.4308 4.3506 11.704 4.07456 12.0427 4.07456ZM8.3745 11.9573C8.3745 12.296 8.09846 12.572 7.75982 12.572H4.6864C4.34775 12.572 4.07171 12.2988 4.07171 11.9573C4.07171 11.6158 4.34491 11.3426 4.6864 11.3426H7.75982C8.10131 11.3455 8.3745 11.6187 8.3745 11.9573ZM8.53956 14.5327C8.7786 14.2937 9.16847 14.2937 9.40751 14.5327C9.64656 14.7718 9.64656 15.1616 9.40751 15.4007L7.2362 17.572C6.99715 17.811 6.61013 17.811 6.37109 17.5748L6.36824 17.572C6.1292 17.333 6.1292 16.9431 6.36824 16.704L8.53956 14.5327ZM11.9573 15.6255C12.296 15.6255 12.5692 15.9015 12.5692 16.2402V19.3108C12.5578 19.6494 12.2732 19.9141 11.9345 19.8998C11.613 19.8884 11.3569 19.6295 11.3455 19.3108V16.2402C11.3455 15.9015 11.6187 15.6255 11.9573 15.6255ZM15.4007 14.5953L17.572 16.7666C17.8025 17.0171 17.7854 17.4041 17.5378 17.6346C17.3017 17.8509 16.9402 17.8509 16.7069 17.6346L14.5327 15.4604C14.2823 15.2299 14.2681 14.8429 14.4986 14.5925C14.7291 14.3421 15.1161 14.3278 15.3665 14.5583C15.3779 14.5697 15.3893 14.584 15.4007 14.5953ZM19.3108 11.4308C19.6494 11.4422 19.9141 11.7268 19.8998 12.0655C19.8884 12.387 19.6295 12.6431 19.3108 12.6545H16.2373C15.8987 12.6431 15.634 12.3586 15.6483 12.0199C15.6596 11.6983 15.9186 11.4422 16.2373 11.4308H19.3108ZM15.0279 9.64656C14.6892 9.64656 14.4161 9.37336 14.4132 9.03472C14.4132 8.87251 14.4787 8.71315 14.5925 8.59932L16.7638 6.42516C17.0028 6.18611 17.3927 6.18611 17.6318 6.42516C17.8708 6.6642 17.8708 7.05122 17.6318 7.29311L15.4604 9.46727C15.3466 9.5811 15.1901 9.64656 15.0279 9.64656Z" fill="#86888C"/>
</svg>
