<svg width="20" height="20" viewBox="0 0 20 20" fill="none" xmlns="http://www.w3.org/2000/svg">
<path fill-rule="evenodd" clip-rule="evenodd" d="M9.99772 17.0188C14.6557 17.0188 17.0188 14.6579 17.0188 10.0023C17.0188 5.34434 14.6579 2.98122 9.99772 2.98122C5.34206 2.98122 2.98122 5.34434 2.98122 10.0023C2.98122 14.6579 5.34206 17.0188 9.99772 17.0188ZM9.99772 2C15.2316 2 18 4.76608 18 10.0023C18 15.2339 15.2339 18 9.99772 18C4.76608 18 2 15.2339 2 10.0023C2 4.76608 4.76608 2 9.99772 2ZM10.0341 3.65965C10.3051 3.65965 10.5259 3.88048 10.5259 4.15139V6.61013C10.5259 6.88105 10.3073 7.10188 10.0341 7.10188C9.76096 7.10188 9.5424 6.88332 9.5424 6.61013V4.15139C9.54468 3.88048 9.76323 3.65965 10.0341 3.65965ZM7.0996 9.96585C7.0996 10.2368 6.87877 10.4576 6.60785 10.4576H4.14912C3.8782 10.4576 3.65737 10.239 3.65737 9.96585C3.65737 9.69266 3.87593 9.4741 4.14912 9.4741H6.60785C6.88105 9.47638 7.0996 9.69493 7.0996 9.96585ZM7.23165 12.0262C7.42288 11.8349 7.73478 11.8349 7.92601 12.0262C8.11725 12.2174 8.11725 12.5293 7.92601 12.7205L6.18896 14.4576C5.99772 14.6488 5.68811 14.6488 5.49687 14.4599L5.49459 14.4576C5.30336 14.2664 5.30336 13.9545 5.49459 13.7632L7.23165 12.0262ZM9.96585 12.9004C10.2368 12.9004 10.4553 13.1212 10.4553 13.3921V15.8486C10.4462 16.1195 10.2186 16.3312 9.94764 16.3199C9.69038 16.3108 9.48549 16.1036 9.47638 15.8486V13.3921C9.47638 13.1212 9.69493 12.9004 9.96585 12.9004ZM12.7205 12.0763L14.4576 13.8133C14.642 14.0137 14.6283 14.3233 14.4303 14.5077C14.2413 14.6807 13.9522 14.6807 13.7655 14.5077L12.0262 12.7684C11.8258 12.584 11.8145 12.2743 11.9989 12.074C12.1833 11.8736 12.4929 11.8623 12.6932 12.0467C12.7023 12.0558 12.7114 12.0672 12.7205 12.0763ZM15.8486 9.54468C16.1195 9.55379 16.3312 9.78145 16.3199 10.0524C16.3108 10.3096 16.1036 10.5145 15.8486 10.5236H13.3899C13.119 10.5145 12.9072 10.2869 12.9186 10.0159C12.9277 9.75868 13.1349 9.55379 13.3899 9.54468H15.8486ZM12.4223 8.11725C12.1514 8.11725 11.9328 7.89869 11.9306 7.62777C11.9306 7.49801 11.9829 7.37052 12.074 7.27945L13.811 5.54013C14.0023 5.34889 14.3142 5.34889 14.5054 5.54013C14.6966 5.73136 14.6966 6.04098 14.5054 6.23449L12.7684 7.97382C12.6773 8.06488 12.5521 8.11725 12.4223 8.11725Z" fill="#86888C"/>
</svg>
