<svg width="40" height="40" viewBox="0 0 40 40" fill="none" xmlns="http://www.w3.org/2000/svg">
<path fill-rule="evenodd" clip-rule="evenodd" d="M19.9949 35.7923C30.4752 35.7923 35.7923 30.4804 35.7923 20.0051C35.7923 9.52476 30.4804 4.20774 19.9949 4.20774C9.51964 4.20774 4.20774 9.52476 4.20774 20.0051C4.20774 30.4804 9.51964 35.7923 19.9949 35.7923ZM19.9949 2C31.7712 2 38 8.22368 38 20.0051C38 31.7763 31.7763 38 19.9949 38C8.22368 38 2 31.7763 2 20.0051C2 8.22368 8.22368 2 19.9949 2ZM20.0768 5.73421C20.6864 5.73421 21.1833 6.23108 21.1833 6.84064V12.3728C21.1833 12.9824 20.6915 13.4792 20.0768 13.4792C19.4622 13.4792 18.9704 12.9875 18.9704 12.3728V6.84064C18.9755 6.23108 19.4673 5.73421 20.0768 5.73421ZM13.4741 19.9232C13.4741 20.5327 12.9772 21.0296 12.3677 21.0296H6.83552C6.22595 21.0296 5.72908 20.5378 5.72908 19.9232C5.72908 19.3085 6.22083 18.8167 6.83552 18.8167H12.3677C12.9824 18.8219 13.4741 19.3136 13.4741 19.9232ZM13.7712 24.5589C14.2015 24.1286 14.9032 24.1286 15.3335 24.5589C15.7638 24.9892 15.7638 25.691 15.3335 26.1212L11.4252 30.0296C10.9949 30.4599 10.2982 30.4599 9.86796 30.0347L9.86283 30.0296C9.43256 29.5993 9.43256 28.8976 9.86283 28.4673L13.7712 24.5589ZM19.9232 26.5259C20.5327 26.5259 21.0245 27.0228 21.0245 27.6323V33.1594C21.004 33.7689 20.4917 34.2453 19.8822 34.2197C19.3034 34.1992 18.8423 33.7331 18.8219 33.1594V27.6323C18.8219 27.0228 19.3136 26.5259 19.9232 26.5259ZM26.1212 24.6716L30.0296 28.58C30.4445 29.0307 30.4138 29.7274 29.9681 30.1423C29.543 30.5316 28.8924 30.5316 28.4724 30.1423L24.5589 26.2288C24.1081 25.8139 24.0825 25.1172 24.4974 24.6665C24.9124 24.2157 25.609 24.1901 26.0598 24.605C26.0803 24.6255 26.1007 24.6511 26.1212 24.6716ZM33.1594 18.9755C33.7689 18.996 34.2453 19.5083 34.2197 20.1178C34.1992 20.6966 33.7331 21.1577 33.1594 21.1781H27.6272C27.0176 21.1577 26.5413 20.6454 26.5669 20.0359C26.5874 19.457 27.0535 18.996 27.6272 18.9755H33.1594ZM25.4502 15.7638C24.8406 15.7638 24.3489 15.2721 24.3438 14.6625C24.3438 14.3705 24.4616 14.0837 24.6665 13.8788L28.5748 9.96528C29.0051 9.535 29.7069 9.535 30.1372 9.96528C30.5674 10.3956 30.5674 11.0922 30.1372 11.5276L26.2288 15.4411C26.0239 15.646 25.7422 15.7638 25.4502 15.7638Z" fill="#86888C"/>
</svg>
