<svg width="40" height="40" viewBox="0 0 40 40" fill="none" xmlns="http://www.w3.org/2000/svg">
<path fill-rule="evenodd" clip-rule="evenodd" d="M19.7291 4.20262C12.942 4.20262 9.19242 8.00341 9.17194 14.9084C9.15145 21.045 16.4559 31.5151 19.6984 35.2749C22.6489 31.8327 30.3068 21.4035 30.3273 14.975C30.3478 8.04952 26.6034 4.22823 19.7804 4.20262H19.7291ZM19.7035 38C19.4167 38 19.1349 37.8822 18.9352 37.6773C16.502 35.2083 6.97444 22.761 7.00005 14.9032C7.02566 6.82015 11.7843 2 19.7291 2H19.7855C27.7661 2.02561 32.5197 6.87649 32.4941 14.9801C32.4736 23.4115 21.9676 36.1611 20.4719 37.6773C20.267 37.8822 19.9904 38 19.7035 38ZM19.7496 11.543C18.0029 11.543 17.1475 12.4087 17.1475 14.181C17.1475 15.9585 17.9978 16.8241 19.7496 16.8241C21.5015 16.8241 22.3518 15.9585 22.3518 14.1861C22.3518 12.4087 21.4964 11.5481 19.7496 11.543ZM19.7496 19.0319C16.8043 19.0319 14.9756 17.1725 14.9756 14.1861C14.9756 11.1998 16.8043 9.34035 19.7496 9.34035C22.695 9.34035 24.5237 11.1998 24.5237 14.1861C24.5237 17.1725 22.695 19.0319 19.7496 19.0319Z" fill="#86888C"/>
</svg>
