<svg width="20" height="20" viewBox="0 0 20 20" fill="none" xmlns="http://www.w3.org/2000/svg">
<path fill-rule="evenodd" clip-rule="evenodd" d="M5.76304 11.757C6.14549 11.757 6.30029 11.5999 6.30029 11.2175C6.30029 10.8328 6.14321 10.678 5.76304 10.678C5.38287 10.678 5.22579 10.835 5.22579 11.2175C5.22579 11.5999 5.38059 11.757 5.76304 11.757ZM5.76304 9.68314C6.69185 9.68314 7.29056 10.2841 7.29056 11.2152C7.29056 12.1463 6.68957 12.7473 5.76304 12.7473C4.83424 12.7473 4.23552 12.1463 4.23552 11.2152C4.23552 10.2841 4.83651 9.68314 5.76304 9.68314ZM15.3288 7.95073C15.9662 7.15624 17.0066 5.60368 17.0089 4.67942C17.0134 3.56394 16.4511 2.99938 15.3402 2.99482H15.3311C14.7847 2.99482 14.3659 3.13597 14.0859 3.4137C13.8036 3.6937 13.6602 4.11485 13.6602 4.66804C13.6556 5.59457 14.7073 7.16534 15.3288 7.95073ZM15.3425 2C16.9861 2.00455 18.006 3.03125 17.9991 4.6817C17.9946 6.35264 15.9799 8.75433 15.6749 9.05938C15.4836 9.25288 15.1695 9.25288 14.9782 9.06166L14.976 9.05938C14.9373 9.02068 14.9009 8.9797 14.8667 8.93645C14.8462 9.17548 14.6527 9.36443 14.4114 9.38036C14.3909 9.38264 14.3295 9.38947 14.2384 9.40313C13.9675 9.44183 13.7171 9.25288 13.6784 8.98425C13.6397 8.71335 13.8263 8.46294 14.0973 8.42196C14.1838 8.4083 14.268 8.3992 14.3545 8.39009C14.3818 8.38782 14.4046 8.3992 14.4296 8.3992C13.7353 7.49543 12.6676 5.87458 12.6699 4.66349C12.6722 3.85078 12.9203 3.17467 13.3893 2.70799C13.8537 2.24358 14.5252 2 15.3334 2H15.3425ZM15.3334 4.89114C15.5861 4.89114 15.6908 4.78869 15.6908 4.53373C15.6908 4.28104 15.5883 4.17632 15.3334 4.17632C15.0807 4.17632 14.9782 4.27876 14.9782 4.53373C14.9782 4.78642 15.0807 4.89114 15.3334 4.89114ZM15.3334 3.51386C15.9503 3.51386 16.351 3.91452 16.351 4.53145C16.351 5.15065 15.9526 5.54904 15.3334 5.54904C14.7165 5.54904 14.3181 5.14838 14.3181 4.53145C14.3181 3.91452 14.7165 3.51386 15.3334 3.51386ZM14.7301 14.4205C14.9874 14.5184 15.1148 14.8029 15.0192 15.0602C14.9259 15.3083 14.7756 15.5451 14.5753 15.7636C14.3909 15.964 14.079 15.9753 13.8787 15.7909L13.8764 15.7887C13.6761 15.602 13.6647 15.2878 13.8514 15.0875C13.9652 14.9646 14.0472 14.8371 14.095 14.7096C14.1906 14.4546 14.4751 14.3249 14.7301 14.4205ZM12.9385 15.7113C13.1844 15.5906 13.4826 15.6953 13.601 15.9412C13.7216 16.1871 13.6169 16.4853 13.3711 16.6036C13.1707 16.7015 12.9567 16.7926 12.7314 16.8746C12.4787 16.9702 12.1941 16.845 12.0985 16.59C12.0985 16.5877 12.0962 16.5854 12.0962 16.5832C12.0006 16.3282 12.1281 16.0414 12.3853 15.9457C12.5743 15.8774 12.7587 15.8 12.9385 15.7113ZM11.7798 13.091C11.5294 12.9818 11.4133 12.6881 11.5225 12.4377C11.6273 12.1987 11.8959 12.0826 12.1418 12.1668C12.3353 12.2442 12.5356 12.317 12.7359 12.3876C12.9932 12.4809 13.1275 12.7655 13.0341 13.0227C12.9408 13.28 12.6562 13.4143 12.399 13.321C12.1941 13.2458 11.9824 13.1707 11.7798 13.091ZM12.2761 9.8516C12.0029 9.84932 11.7798 9.62622 11.7821 9.35305C11.7821 9.14133 11.9187 8.95466 12.119 8.88637C12.3398 8.81352 12.5583 8.7475 12.7701 8.69286C13.0341 8.62229 13.3073 8.77937 13.3756 9.04572C13.4439 9.31207 13.2891 9.58297 13.0228 9.65127C12.8315 9.70362 12.6312 9.76054 12.4331 9.82883C12.3831 9.84249 12.3307 9.8516 12.2761 9.8516ZM10.6165 10.8145C10.3433 10.8145 10.1202 10.5915 10.1225 10.3183C10.1225 10.2022 10.1635 10.0884 10.2386 9.99957C10.3911 9.81517 10.5915 9.64216 10.835 9.48281C11.065 9.33256 11.3723 9.3963 11.5225 9.62622C11.6728 9.85615 11.6091 10.1635 11.3791 10.3137C11.2175 10.4207 11.0877 10.53 10.9967 10.6393C10.9011 10.7508 10.7622 10.8145 10.6165 10.8145ZM10.8259 12.5174C10.7121 12.5174 10.6006 12.4764 10.5118 12.4035C10.2841 12.2214 10.0997 11.9915 9.97681 11.7274C9.86527 11.477 9.97454 11.1833 10.2227 11.0695C10.4731 10.958 10.7645 11.0695 10.8783 11.3177C10.9284 11.4292 11.0149 11.5339 11.1424 11.6386C11.3541 11.8139 11.3837 12.1281 11.2084 12.3398C11.1128 12.4513 10.9716 12.5174 10.8259 12.5174ZM13.5372 13.7854C13.2937 13.6602 13.2003 13.3597 13.3255 13.1161C13.4507 12.8725 13.7512 12.7792 13.9948 12.9044C14.2612 13.0432 14.4706 13.1866 14.6391 13.346C14.8371 13.5349 14.8462 13.8514 14.655 14.0494C14.5617 14.1473 14.4342 14.202 14.2976 14.2042C14.1724 14.2042 14.0494 14.1564 13.9584 14.0699C13.8309 13.9561 13.6898 13.8628 13.5372 13.7854ZM9.34395 16.6719C9.62851 16.6401 9.86754 16.8176 9.90624 17.0885C9.94722 17.3594 9.76055 17.6121 9.48965 17.6531C9.262 17.6873 9.04346 17.7169 8.83402 17.7419C8.56312 17.776 8.31726 17.5848 8.28311 17.3139V17.3094C8.24896 17.0385 8.44246 16.7903 8.71337 16.7562C8.91597 16.7334 9.12769 16.7038 9.34395 16.6719ZM11.2038 16.31C11.4679 16.244 11.7365 16.4033 11.8026 16.6674V16.6719C11.8686 16.9383 11.7069 17.2069 11.4429 17.2729C11.2266 17.3276 11.0103 17.3777 10.7918 17.4232C10.5232 17.4778 10.2614 17.3071 10.2067 17.0385C10.1498 16.7698 10.3228 16.508 10.5915 16.4511C10.7963 16.4079 11.0012 16.3601 11.2038 16.31ZM5.75166 16.7607C6.70095 15.6293 8.53125 12.9863 8.5358 11.4338C8.53808 10.5345 8.30132 9.83794 7.83009 9.36215C7.36113 8.88864 6.66908 8.64734 5.76987 8.64506H5.75621C3.95324 8.64506 2.99711 9.60346 2.99028 11.4178C2.98573 12.984 4.80464 15.6293 5.75166 16.7607ZM7.44764 16.8837C7.71854 16.8677 7.95302 17.0703 7.98034 17.3412C8.00083 17.6144 7.79822 17.8534 7.52504 17.8739C7.22682 17.8967 7.01511 17.9081 6.9195 17.9149C6.91039 17.9172 6.90128 17.9172 6.8899 17.9172C6.65542 17.9149 6.45054 17.7578 6.38907 17.5302C6.25931 17.685 6.15687 17.7988 6.09996 17.8534C5.90874 18.0469 5.59686 18.0492 5.40336 17.858L5.3988 17.8534C4.97538 17.4277 1.99318 13.8354 2.00001 11.4133C2.00684 9.0571 3.41143 7.65251 5.75621 7.65251H5.77442C6.9286 7.65479 7.88245 8.00537 8.53352 8.66327C9.18687 9.32118 9.52835 10.2796 9.52607 11.436C9.51924 13.2003 7.90521 15.602 6.8808 16.9224C6.97641 16.9178 7.17446 16.9064 7.44764 16.8837Z" fill="#86888C"/>
</svg>
