<svg width="20" height="20" viewBox="0 0 20 20" fill="none" xmlns="http://www.w3.org/2000/svg">
<path d="M12.7723 18.0001H6.77797C5.91255 18.0001 5.23112 17.7707 4.75412 17.3209C4.2544 16.8485 4 16.1602 4 15.2721L4.00227 10.6951C4 10.4453 4 10.3453 4 10.3453V10.3408C4 9.45266 4.2544 8.76214 4.75412 8.29195C5.23112 7.84221 5.91255 7.61279 6.78024 7.61279H12.7746C13.64 7.61279 14.3214 7.83994 14.8007 8.28968C15.3004 8.75987 15.5616 9.44811 15.5707 10.334V15.2789C15.5593 16.167 15.3004 16.853 14.8007 17.3232C14.3191 17.7729 13.6377 18.0001 12.7723 18.0001ZM4.94037 10.3362C4.94037 10.3544 4.94265 10.4589 4.94265 10.6883V10.6929L4.94037 15.2721C4.94037 15.8922 5.09483 16.351 5.3992 16.6372C5.69676 16.9166 6.16014 17.0597 6.78024 17.0597H12.7746C13.3924 17.0597 13.858 16.9166 14.1579 16.6349C14.4645 16.3487 14.6235 15.8876 14.6326 15.2675V10.3431C14.6235 9.72296 14.4645 9.26186 14.1579 8.97566C13.858 8.694 13.3924 8.55317 12.7746 8.55317H6.77797C6.16014 8.55317 5.69449 8.69627 5.39693 8.97566C5.09483 9.25958 4.94037 9.71842 4.94037 10.3362Z" fill="#86888C"/>
<path d="M6.2739 8.54855C6.01495 8.54855 5.80371 8.33731 5.80371 8.07837V5.66383C5.80371 3.64225 7.55499 2 9.70831 2H9.86277C12.0161 2 13.7674 3.64452 13.7674 5.66383V8.06019C13.7674 8.31914 13.5561 8.53038 13.2972 8.53038C13.0382 8.53038 12.827 8.31914 12.827 8.06019V5.66383C12.827 4.16241 11.4959 2.9381 9.86277 2.9381H9.70831C8.07288 2.9381 6.74409 4.16014 6.74409 5.66383V8.07837C6.74409 8.33958 6.53284 8.54855 6.2739 8.54855ZM9.79008 14.9381C9.3676 14.9381 9.02915 14.8177 8.78156 14.5792C8.52489 14.3316 8.39315 13.9818 8.39315 13.5412C8.39315 13.1005 8.52262 12.7507 8.77929 12.5031C9.02461 12.2646 9.36532 12.1442 9.78781 12.1442C10.2103 12.1442 10.551 12.2646 10.7963 12.5031C11.053 12.7507 11.1847 13.1005 11.1847 13.5412C11.1847 13.9818 11.0553 14.3316 10.7963 14.5792C10.5533 14.8177 10.2126 14.9381 9.79008 14.9381ZM9.79008 13.0869C9.44028 13.0869 9.3358 13.1936 9.3358 13.5434C9.3358 13.8932 9.44255 13.9977 9.79008 13.9977C10.1399 13.9977 10.2466 13.891 10.2466 13.5434C10.2466 13.1936 10.1399 13.0869 9.79008 13.0869Z" fill="#86888C"/>
</svg>
