<svg width="28" height="28" viewBox="0 0 28 28" fill="none" xmlns="http://www.w3.org/2000/svg">
<path d="M18.1584 26.9999H9.16695C7.86882 26.9999 6.84668 26.6557 6.13118 25.9811C5.3816 25.2724 5 24.2401 5 22.9079L5.00341 16.0425C5 15.6677 5 15.5178 5 15.5178V15.5109C5 14.1787 5.3816 13.143 6.13118 12.4377C6.84668 11.7631 7.86882 11.4189 9.17036 11.4189H18.1618C19.46 11.4189 20.4821 11.7597 21.201 12.4343C21.9506 13.1396 22.3424 14.1719 22.356 15.5007V22.9181C22.339 24.2503 21.9506 25.2793 21.201 25.9845C20.4787 26.6592 19.4566 26.9999 18.1584 26.9999ZM6.41056 15.5041C6.41056 15.5314 6.41397 15.6881 6.41397 16.0322V16.039L6.41056 22.9079C6.41056 23.838 6.64225 24.5263 7.09881 24.9556C7.54514 25.3747 8.2402 25.5893 9.17036 25.5893H18.1618C19.0886 25.5893 19.7871 25.3747 20.2368 24.9522C20.6968 24.5229 20.9353 23.8312 20.9489 22.9011V15.5143C20.9353 14.5842 20.6968 13.8925 20.2368 13.4632C19.7871 13.0408 19.0886 12.8295 18.1618 12.8295H9.16695C8.2402 12.8295 7.54174 13.0442 7.0954 13.4632C6.64225 13.8891 6.41056 14.5774 6.41056 15.5041Z" fill="#86888C"/>
<path d="M8.41085 12.8228C8.02243 12.8228 7.70557 12.506 7.70557 12.1175V8.49574C7.70557 5.46337 10.3325 3 13.5625 3H13.7942C17.0241 3 19.6511 5.46678 19.6511 8.49574V12.0903C19.6511 12.4787 19.3342 12.7956 18.9458 12.7956C18.5574 12.7956 18.2405 12.4787 18.2405 12.0903V8.49574C18.2405 6.24361 16.2439 4.40716 13.7942 4.40716H13.5625C11.1093 4.40716 9.11613 6.24021 9.11613 8.49574V12.1175C9.11613 12.5094 8.79926 12.8228 8.41085 12.8228ZM13.6851 22.4072C13.0514 22.4072 12.5437 22.2266 12.1723 21.8688C11.7873 21.4974 11.5897 20.9727 11.5897 20.3118C11.5897 19.6508 11.7839 19.1261 12.1689 18.7547C12.5369 18.3969 13.048 18.2164 13.6817 18.2164C14.3154 18.2164 14.8265 18.3969 15.1945 18.7547C15.5795 19.1261 15.7771 19.6508 15.7771 20.3118C15.7771 20.9727 15.5829 21.4974 15.1945 21.8688C14.8299 22.2266 14.3189 22.4072 13.6851 22.4072ZM13.6851 19.6303C13.1604 19.6303 13.0037 19.7905 13.0037 20.3152C13.0037 20.8399 13.1638 20.9966 13.6851 20.9966C14.2098 20.9966 14.37 20.8365 14.37 20.3152C14.37 19.7905 14.2098 19.6303 13.6851 19.6303Z" fill="#86888C"/>
</svg>
