<svg width="24" height="24" viewBox="0 0 24 24" fill="none" xmlns="http://www.w3.org/2000/svg">
<path fill-rule="evenodd" clip-rule="evenodd" d="M20.4153 18.5573C20.2606 18.7401 19.9428 18.7822 19.7065 18.7879C18.1879 18.8132 3.88131 18.7851 3.72382 18.7879C3.61132 18.7738 3.50726 18.726 3.4257 18.6501C3.24571 18.4757 3.20915 18.1523 3.20915 17.9132V9.16673L10.0685 13.4781C10.1107 13.509 10.7941 13.9928 11.7363 13.9928C12.2087 13.9928 12.7487 13.869 13.3056 13.5062L20.5503 9.14142L20.539 17.9132L20.5474 18.0088C20.5446 18.0117 20.5924 18.3519 20.4153 18.5573ZM3.73507 7.20088L20.0637 7.2037C20.0778 7.2037 20.4068 7.21495 20.5165 7.75773L12.6587 12.4938C11.6885 13.1266 10.8166 12.5331 10.7519 12.4853L3.23165 7.75773C3.25696 7.59462 3.3104 7.41462 3.41164 7.30775C3.46226 7.25994 3.54382 7.20088 3.73507 7.20088ZM21.7483 17.8738L21.7624 8.05866C21.7174 6.3403 20.5334 5.97469 20.0497 6.00281L3.73788 6C3.25415 6 2.83511 6.16874 2.53137 6.48935C1.95764 7.0912 1.99702 8.00522 2.00264 8.07272V17.9104C2.00264 18.5938 2.1967 19.131 2.58199 19.505C3.07416 19.9831 3.69007 20 3.73788 19.9859C4.12599 19.9859 10.2823 20 14.8749 20C17.2513 20 19.2088 19.9972 19.729 19.9859C20.6234 19.9719 21.1071 19.6119 21.3546 19.3166C21.8102 18.7654 21.7764 18.0904 21.7483 17.8738Z" fill="#86888C"/>
</svg>
