<svg width="40" height="40" viewBox="0 0 40 40" fill="none" xmlns="http://www.w3.org/2000/svg">
<path fill-rule="evenodd" clip-rule="evenodd" d="M15.7087 30.0523C18.5252 30.0523 19.2984 29.0333 19.2984 25.3053C19.2984 22.9752 18.9553 21.7257 18.1565 21.1317C17.6341 20.7477 16.8353 20.5582 15.7087 20.5582C14.5718 20.5582 13.7679 20.7477 13.2455 21.142C12.4518 21.7411 12.1138 22.9855 12.1138 25.3053C12.1138 29.0333 12.8871 30.0523 15.7087 30.0523ZM15.7138 17.7468C13.2916 17.7468 13.2916 18.2691 13.2916 18.9246C13.2916 18.9605 13.2967 18.9809 13.2967 19.0117C13.9778 18.7761 14.7664 18.6481 15.7087 18.6481C16.656 18.6481 17.4498 18.7761 18.1309 19.0168C18.1309 18.9809 18.136 18.9605 18.136 18.9246C18.136 18.2691 18.136 17.7468 15.7138 17.7468ZM22.4068 23.6666C22.9394 23.6666 23.3644 24.0916 23.3644 24.6242V26.0376C23.3644 26.565 22.9343 26.99 22.4068 26.99C21.8743 26.99 21.4492 26.565 21.4492 26.0376V25.5767H21.2137C21.2034 26.6162 21.1215 27.6199 20.8757 28.5161L22.2225 28.9206C22.6475 29.0486 22.9292 29.443 22.9036 29.8834L22.7909 32.0137C22.7653 32.5206 22.3403 32.9149 21.8333 32.9149H21.7821C21.2546 32.8842 20.8501 32.4387 20.8757 31.9112L20.9525 30.5286L20.0512 30.2572C19.2472 31.2967 17.9107 31.9624 15.7138 31.9624C13.5118 31.9624 12.1752 31.2967 11.3713 30.2469L10.4341 30.5286L10.511 31.9112C10.5366 32.4387 10.132 32.8893 9.60455 32.9149H9.55334C9.04637 32.9149 8.62134 32.5206 8.59573 32.0137L8.48307 29.8834C8.45747 29.443 8.73912 29.0435 9.16415 28.9206L10.5468 28.5058C10.301 27.6097 10.2242 26.6111 10.2139 25.5767H9.97838V26.0376C9.97838 26.565 9.54822 26.99 9.02077 26.99C8.48819 26.99 8.06316 26.565 8.06316 26.0376V24.6242C8.06316 24.0967 8.49331 23.6666 9.02077 23.6666H10.2754C10.3522 22.8267 10.5212 22.0125 10.8336 21.2802L9.16927 20.7835C8.74424 20.6555 8.46259 20.256 8.48819 19.8156L8.60085 17.6853C8.62646 17.1579 9.0771 16.8148 9.60967 16.7841C10.1422 16.8097 10.5468 17.2603 10.5161 17.7878L10.4393 19.1704L11.4276 19.4674C11.402 19.2933 11.3815 19.1141 11.3815 18.9246C11.3815 15.8367 14.4284 15.8367 15.724 15.8367C17.0248 15.8367 20.0666 15.8367 20.0666 18.9246C20.0666 19.109 20.0461 19.2831 20.0256 19.4521L20.9576 19.1755L20.8808 17.7929C20.8552 17.2654 21.2597 16.8148 21.7872 16.7892C22.3351 16.8199 22.7704 17.163 22.796 17.6905L22.9087 19.8208C22.9343 20.2612 22.6526 20.6606 22.2276 20.7886L20.594 21.2751C20.9115 22.0023 21.0805 22.8267 21.1573 23.6717H22.4068V23.6666ZM15.6472 22.0893C16.1798 22.0893 16.6048 22.5144 16.6048 23.0418V28.3368C16.6048 28.8643 16.1747 29.2893 15.6472 29.2893C15.1198 29.2893 14.6896 28.8643 14.6896 28.3368V23.0418C14.6896 22.5144 15.1198 22.0893 15.6472 22.0893ZM35.5624 31.3275C35.8339 31.01 35.7673 30.4723 35.7673 30.4671L35.7519 30.293L35.7622 16.1337L28.9616 20.3687C29.0947 20.9422 29.2125 21.5312 29.2842 22.161C29.3661 22.8728 29.4071 23.6307 29.4071 24.3989C29.4071 27.241 28.8131 29.6683 27.7121 31.691C30.7744 31.691 33.8674 31.6859 34.4461 31.6757C34.8199 31.6808 35.3218 31.6091 35.5624 31.3275ZM16.2617 35.798C17.7161 35.7724 22.6629 35.3832 25.3462 31.4299C26.5752 29.6222 27.2 27.2614 27.2 24.4091C27.2 23.7178 27.1642 23.0521 27.0925 22.4222C26.1041 13.8651 18.5149 13.0202 16.2105 12.9587C15.9391 12.9536 15.6267 12.9485 15.3297 12.9485H15.0583C12.7334 12.969 5.08791 13.7269 4.28905 22.709C4.24296 23.2262 4.21735 23.769 4.21735 24.3323C4.21735 34.825 12.5849 35.7622 15.1505 35.798C15.5243 35.8083 15.9289 35.8031 16.2617 35.798ZM19.7952 4.66287L7.32063 12.544C7.17724 12.6464 7.0697 12.8819 7.00313 13.2046C9.36899 11.5147 12.2777 10.7772 15.0327 10.7516C15.4321 10.7465 15.8828 10.7516 16.2617 10.7619C20.9115 10.8745 26.0427 12.9587 28.2703 18.2128L35.7519 13.5477C35.711 13.0509 35.5727 12.6771 35.3371 12.5081L35.1937 12.4159L22.9496 4.68848C22.8984 4.65263 22.243 4.21223 21.3673 4.21223C20.4609 4.21735 19.8054 4.65775 19.7952 4.66287ZM37.9693 30.2265C38.0154 30.6054 38.0666 31.773 37.278 32.7203C36.8478 33.2376 36.0182 33.8572 34.4871 33.8828C33.806 33.893 29.6836 33.8981 26.1809 33.8981C22.8216 37.5596 17.8595 37.9642 16.3027 37.9898C16.0671 37.9949 15.7906 38 15.5141 38C15.3809 38 15.2478 38 15.1147 37.9949C12.9229 37.959 2 37.155 2 24.3272C2 23.6922 2.0256 23.0879 2.07681 22.5092C2.3431 19.4828 3.32632 17.1477 4.7192 15.3707V13.7422C4.76017 12.0063 5.4771 11.1408 6.07112 10.7107L6.30669 10.557L18.561 2.81935C18.6327 2.76814 19.7542 2 21.3314 2C22.9343 2 24.0558 2.76814 24.1787 2.85519L36.5713 10.6799C37.2165 11.1357 37.9334 12.0063 37.9744 13.7166L37.9693 30.2265Z" fill="#86888C"/>
</svg>
