<svg width="24" height="24" viewBox="0 0 24 24" fill="none" xmlns="http://www.w3.org/2000/svg">
<path fill-rule="evenodd" clip-rule="evenodd" d="M9.61593 17.5846C11.1807 17.5846 11.6102 17.0185 11.6102 14.9474C11.6102 13.6529 11.4196 12.9587 10.9758 12.6287C10.6856 12.4154 10.2418 12.3101 9.61593 12.3101C8.98435 12.3101 8.5377 12.4154 8.24751 12.6344C7.80654 12.9673 7.61878 13.6586 7.61878 14.9474C7.61878 17.0185 8.04836 17.5846 9.61593 17.5846ZM9.61878 10.7482C8.27311 10.7482 8.27312 11.0384 8.27312 11.4026C8.27312 11.4225 8.27596 11.4339 8.27596 11.4509C8.65434 11.3201 9.09246 11.2489 9.61593 11.2489C10.1422 11.2489 10.5832 11.3201 10.9616 11.4538C10.9616 11.4339 10.9644 11.4225 10.9644 11.4026C10.9644 11.0384 10.9644 10.7482 9.61878 10.7482ZM13.3371 14.037C13.633 14.037 13.8691 14.2731 13.8691 14.569V15.3542C13.8691 15.6472 13.6302 15.8834 13.3371 15.8834C13.0413 15.8834 12.8051 15.6472 12.8051 15.3542V15.0982H12.6743C12.6686 15.6757 12.623 16.2333 12.4865 16.7312L13.2347 16.9559C13.4708 17.027 13.6273 17.2461 13.6131 17.4908L13.5505 18.6743C13.5363 18.9559 13.3001 19.175 13.0185 19.175H12.99C12.697 19.1579 12.4723 18.9104 12.4865 18.6174L12.5292 17.8492L12.0284 17.6984C11.5818 18.276 10.8393 18.6458 9.61878 18.6458C8.39545 18.6458 7.65292 18.276 7.20626 17.6927L6.68563 17.8492L6.72831 18.6174C6.74253 18.9104 6.51778 19.1607 6.22475 19.175H6.1963C5.91465 19.175 5.67852 18.9559 5.6643 18.6743L5.60171 17.4908C5.58748 17.2461 5.74395 17.0242 5.98009 16.9559L6.74822 16.7255C6.61166 16.2276 6.56899 15.6728 6.5633 15.0982H6.43243V15.3542C6.43243 15.6472 6.19346 15.8834 5.90043 15.8834C5.60455 15.8834 5.36842 15.6472 5.36842 15.3542V14.569C5.36842 14.276 5.6074 14.037 5.90043 14.037H6.59744C6.64011 13.5704 6.734 13.1181 6.90754 12.7112L5.98293 12.4353C5.7468 12.3642 5.59033 12.1422 5.60455 11.8976L5.66714 10.7141C5.68137 10.4211 5.93172 10.2304 6.2276 10.2134C6.52347 10.2276 6.74822 10.478 6.73115 10.771L6.68848 11.5391L7.23755 11.7041C7.22333 11.6074 7.21195 11.5078 7.21195 11.4026C7.21195 9.68706 8.90469 9.68706 9.62447 9.68706C10.3471 9.68706 12.037 9.68706 12.037 11.4026C12.037 11.505 12.0256 11.6017 12.0142 11.6956L12.532 11.542L12.4893 10.7738C12.4751 10.4808 12.6999 10.2304 12.9929 10.2162C13.2973 10.2333 13.5391 10.4239 13.5533 10.7169L13.6159 11.9004C13.6302 12.1451 13.4737 12.367 13.2376 12.4381L12.33 12.7084C12.5064 13.1124 12.6003 13.5704 12.643 14.0398H13.3371V14.037ZM9.58179 13.1607C9.87767 13.1607 10.1138 13.3969 10.1138 13.6899V16.6316C10.1138 16.9246 9.87482 17.1607 9.58179 17.1607C9.28876 17.1607 9.04979 16.9246 9.04979 16.6316V13.6899C9.04979 13.3969 9.28876 13.1607 9.58179 13.1607ZM20.6458 18.293C20.7966 18.1166 20.7596 17.8179 20.7596 17.8151L20.7511 17.7183L20.7568 9.85206L16.9787 12.2048C17.0526 12.5235 17.1181 12.8506 17.1579 13.2006C17.2034 13.596 17.2262 14.0171 17.2262 14.4438C17.2262 16.0228 16.8962 17.3713 16.2845 18.495C17.9858 18.495 19.7041 18.4922 20.0256 18.4865C20.2333 18.4893 20.5121 18.4495 20.6458 18.293ZM9.92319 20.7767C10.7312 20.7624 13.4794 20.5462 14.9701 18.3499C15.6529 17.3457 16 16.0341 16 14.4495C16 14.0654 15.9801 13.6956 15.9403 13.3457C15.3912 8.59175 11.175 8.12233 9.89474 8.08819C9.74395 8.08535 9.57041 8.0825 9.40541 8.0825H9.25462C7.96302 8.09388 3.71551 8.51494 3.27169 13.505C3.24609 13.7923 3.23186 14.0939 3.23186 14.4068C3.23186 20.2361 7.88051 20.7568 9.30583 20.7767C9.51351 20.7824 9.73826 20.7795 9.92319 20.7767ZM11.8862 3.47937L4.9559 7.85775C4.87624 7.91465 4.8165 8.04552 4.77952 8.22475C6.09388 7.28592 7.70982 6.87625 9.2404 6.86202C9.4623 6.85918 9.71266 6.86202 9.92319 6.86771C12.5064 6.9303 15.357 8.08819 16.5946 11.0071L20.7511 8.41536C20.7283 8.1394 20.6515 7.93172 20.5206 7.83784L20.441 7.78663L13.6387 3.4936C13.6102 3.47368 13.2461 3.22902 12.7596 3.22902C12.256 3.23186 11.8919 3.47653 11.8862 3.47937ZM21.9829 17.6814C22.0085 17.8919 22.037 18.5405 21.5989 19.0669C21.3599 19.3542 20.899 19.6984 20.0484 19.7127C19.67 19.7183 17.3798 19.7212 15.4339 19.7212C13.5676 21.7553 10.8108 21.9801 9.94595 21.9943C9.81508 21.9972 9.66145 22 9.50782 22C9.43385 22 9.35989 22 9.28592 21.9972C8.06828 21.9772 2 21.5306 2 14.404C2 14.0512 2.01422 13.7155 2.04267 13.394C2.19061 11.7127 2.73684 10.4154 3.51067 9.42816V8.52347C3.53343 7.55903 3.93172 7.07824 4.26174 6.83926L4.3926 6.75391L11.2006 2.45519C11.2404 2.42674 11.8634 2 12.7397 2C13.6302 2 14.2532 2.42674 14.3215 2.47511L21.2063 6.82219C21.5647 7.07539 21.963 7.55903 21.9858 8.50925L21.9829 17.6814Z" fill="#86888C"/>
</svg>
