<svg width="40" height="40" viewBox="0 0 40 40" fill="none" xmlns="http://www.w3.org/2000/svg">
<path fill-rule="evenodd" clip-rule="evenodd" d="M34.6145 35.627C33.487 35.6484 28.3732 35.6537 20.5823 35.6484H20.5022C13.6731 35.6484 6.20815 35.6484 4.94172 35.627C4.49821 35.6217 3.91042 35.5362 3.61652 35.1942C3.29056 34.8095 3.36537 34.1736 3.36537 34.1736L3.3814 34.0774L3.37072 18.0467L16.3663 26.233C16.4998 26.3346 17.7556 27.2056 19.535 27.2056C20.609 27.2056 21.635 26.8903 22.5648 26.2811L36.1802 17.7956L36.1641 33.9759L36.1802 34.1736C36.1802 34.1789 36.2603 34.7988 35.9397 35.1835C35.6512 35.5362 35.058 35.6163 34.6145 35.627ZM17.9747 4.86949C18.5197 4.53285 19.1503 4.35651 19.7861 4.35117C20.8068 4.35117 21.5709 4.86415 21.619 4.90155L35.6565 13.7665C35.9451 13.9696 36.1161 14.4291 36.1588 15.0383L21.2877 24.3094C20.7694 24.662 20.1602 24.8544 19.535 24.8597C18.5251 24.8597 17.7663 24.3414 17.7021 24.2987L3.37072 15.2681V15.2627C3.38675 14.5253 3.56843 13.9963 3.84095 13.7986L17.9747 4.86949ZM38.542 15.2039C38.4993 13.2909 37.7031 12.3238 36.9871 11.8215L22.9442 2.9565C21.9984 2.33664 20.8923 2.00534 19.7594 2C17.9907 2 16.7403 2.85497 16.6602 2.91909L2.77224 11.6879L2.5104 11.8535C1.85315 12.3291 1.05161 13.2963 1.00886 15.236L1.02489 33.9064C0.976803 34.3232 0.907336 35.6217 1.78902 36.6851C2.2646 37.2568 3.18904 37.9408 4.89898 37.9782C5.86082 37.9942 10.2799 37.9996 15.3029 37.9996H20.577C24.264 37.9996 33.0275 38.0049 34.6573 37.9782C36.3619 37.9461 37.2863 37.2568 37.7619 36.6851C38.6436 35.6217 38.5794 34.3232 38.5313 33.9064C38.526 33.9011 38.542 15.2039 38.542 15.2039Z" fill="#86888C"/>
</svg>
