<svg width="28" height="28" viewBox="0 0 28 28" fill="none" xmlns="http://www.w3.org/2000/svg">
<path fill-rule="evenodd" clip-rule="evenodd" d="M11.1391 20.7016C13.0168 20.7016 13.5323 20.0222 13.5323 17.5368C13.5323 15.9835 13.3036 15.1505 12.771 14.7545C12.4228 14.4984 11.8902 14.3721 11.1391 14.3721C10.3812 14.3721 9.84523 14.4984 9.49701 14.7613C8.96785 15.1607 8.74253 15.9903 8.74253 17.5368C8.74253 20.0222 9.25804 20.7016 11.1391 20.7016ZM11.1425 12.4979C9.52774 12.4979 9.52774 12.8461 9.52774 13.2831C9.52774 13.307 9.53115 13.3206 9.53115 13.3411C9.98521 13.1841 10.511 13.0987 11.1391 13.0987C11.7707 13.0987 12.2999 13.1841 12.7539 13.3445C12.7539 13.3206 12.7573 13.307 12.7573 13.2831C12.7573 12.8461 12.7573 12.4979 11.1425 12.4979ZM15.6046 16.4444C15.9596 16.4444 16.243 16.7277 16.243 17.0828V18.025C16.243 18.3767 15.9562 18.66 15.6046 18.66C15.2495 18.66 14.9661 18.3767 14.9661 18.025V17.7178H14.8091C14.8023 18.4108 14.7477 19.0799 14.5838 19.6774L15.4816 19.9471C15.765 20.0324 15.9528 20.2953 15.9357 20.5889L15.8606 22.0091C15.8435 22.3471 15.5602 22.61 15.2222 22.61H15.1881C14.8364 22.5895 14.5667 22.2925 14.5838 21.9408L14.635 21.0191L14.0341 20.8381C13.4982 21.5312 12.6071 21.975 11.1425 21.975C9.67454 21.975 8.7835 21.5312 8.24751 20.8313L7.62276 21.0191L7.67397 21.9408C7.69104 22.2925 7.42134 22.5929 7.0697 22.61H7.03556C6.69758 22.61 6.41422 22.3471 6.39716 22.0091L6.32205 20.5889C6.30498 20.2953 6.49274 20.029 6.7761 19.9471L7.69787 19.6706C7.534 19.0731 7.48279 18.4074 7.47596 17.7178H7.31892V18.025C7.31892 18.3767 7.03215 18.66 6.68051 18.66C6.32546 18.66 6.04211 18.3767 6.04211 18.025V17.0828C6.04211 16.7312 6.32888 16.4444 6.68051 16.4444H7.51693C7.56814 15.8845 7.6808 15.3417 7.88905 14.8535L6.77952 14.5223C6.49616 14.437 6.30839 14.1707 6.32546 13.8771L6.40057 12.4569C6.41764 12.1053 6.71807 11.8765 7.07312 11.856C7.42816 11.8731 7.69787 12.1735 7.67738 12.5252L7.62617 13.4469L8.28506 13.6449C8.26799 13.5289 8.25434 13.4094 8.25434 13.2831C8.25434 11.2245 10.2856 11.2245 11.1494 11.2245C12.0165 11.2245 14.0444 11.2245 14.0444 13.2831C14.0444 13.406 14.0307 13.522 14.0171 13.6347L14.6384 13.4504L14.5872 12.5286C14.5701 12.177 14.8398 11.8765 15.1915 11.8595C15.5568 11.8799 15.8469 12.1087 15.864 12.4603L15.9391 13.8805C15.9562 14.1741 15.7684 14.4404 15.4851 14.5257L14.396 14.8501C14.6077 15.3349 14.7203 15.8845 14.7716 16.4478H15.6046V16.4444ZM11.0982 15.3929C11.4532 15.3929 11.7366 15.6762 11.7366 16.0279V19.5579C11.7366 19.9095 11.4498 20.1929 11.0982 20.1929C10.7465 20.1929 10.4597 19.9095 10.4597 19.5579V16.0279C10.4597 15.6762 10.7465 15.3929 11.0982 15.3929ZM24.375 21.5516C24.5559 21.34 24.5115 20.9815 24.5115 20.9781L24.5013 20.862L24.5081 11.4225L19.9744 14.2458C20.0632 14.6282 20.1417 15.0208 20.1895 15.4407C20.2441 15.9152 20.2714 16.4205 20.2714 16.9326C20.2714 18.8273 19.8754 20.4455 19.1414 21.794C21.1829 21.794 23.2449 21.7906 23.6307 21.7838C23.8799 21.7872 24.2145 21.7394 24.375 21.5516ZM11.5078 24.532C12.4774 24.5149 15.7752 24.2555 17.5642 21.6199C18.3835 20.4148 18.8 18.841 18.8 16.9394C18.8 16.4785 18.7761 16.0347 18.7283 15.6148C18.0694 9.9101 13.01 9.3468 11.4737 9.30583C11.2927 9.30242 11.0845 9.299 10.8865 9.299H10.7055C9.15562 9.31266 4.05861 9.81792 3.52603 15.806C3.49531 16.1508 3.47824 16.5127 3.47824 16.8882C3.47824 23.8834 9.05661 24.5081 10.767 24.532C11.0162 24.5388 11.2859 24.5354 11.5078 24.532ZM13.8634 3.77525L5.54708 9.0293C5.45149 9.09758 5.3798 9.25462 5.33542 9.4697C6.91266 8.3431 8.85178 7.85149 10.6885 7.83442C10.9548 7.83101 11.2552 7.83442 11.5078 7.84125C14.6077 7.91636 18.0285 9.30583 19.5135 12.8085L24.5013 9.69844C24.474 9.36728 24.3818 9.11807 24.2248 9.00541L24.1292 8.94395L15.9664 3.79232C15.9323 3.76842 15.4953 3.47482 14.9115 3.47482C14.3073 3.47824 13.8703 3.77183 13.8634 3.77525ZM25.9795 20.8176C26.0102 21.0703 26.0444 21.8486 25.5186 22.4802C25.2319 22.825 24.6788 23.2381 23.658 23.2552C23.204 23.262 20.4558 23.2654 18.1206 23.2654C15.8811 25.7064 12.573 25.9761 11.5351 25.9932C11.3781 25.9966 11.1937 26 11.0094 26C10.9206 26 10.8319 26 10.7431 25.9966C9.28193 25.9727 2 25.4367 2 16.8848C2 16.4615 2.01707 16.0586 2.05121 15.6728C2.22873 13.6552 2.88421 12.0984 3.8128 10.9138V9.82817C3.84011 8.67084 4.31807 8.09388 4.71408 7.80711L4.87112 7.70469L13.0407 2.54623C13.0885 2.51209 13.8361 2 14.8876 2C15.9562 2 16.7038 2.51209 16.7858 2.57013L25.0475 7.78663C25.4777 8.09047 25.9556 8.67084 25.9829 9.8111L25.9795 20.8176Z" fill="#86888C"/>
</svg>
