<svg width="24" height="24" viewBox="0 0 24 24" fill="none" xmlns="http://www.w3.org/2000/svg">
<path fill-rule="evenodd" clip-rule="evenodd" d="M20.6747 20.6817C20.0483 20.6936 17.2074 20.6965 12.8791 20.6936H12.8345C9.04061 20.6936 4.89342 20.6936 4.18985 20.6817C3.94345 20.6787 3.6169 20.6312 3.45362 20.4412C3.27254 20.2275 3.3141 19.8742 3.3141 19.8742L3.323 19.8208L3.31707 10.9148L10.5368 15.4628C10.611 15.5192 11.3087 16.0031 12.2972 16.0031C12.8939 16.0031 13.4639 15.8279 13.9804 15.4895L21.5445 10.7753L21.5356 19.7644L21.5445 19.8742C21.5445 19.8772 21.5891 20.2215 21.411 20.4353C21.2506 20.6312 20.9211 20.6757 20.6747 20.6817ZM11.4304 3.59416C11.7332 3.40714 12.0835 3.30917 12.4367 3.3062C13.0038 3.3062 13.4283 3.59119 13.455 3.61197L21.2536 8.53696C21.4139 8.64976 21.5089 8.90507 21.5327 9.24349L13.2709 14.3941C12.983 14.59 12.6445 14.6969 12.2972 14.6999C11.7361 14.6999 11.3146 14.4119 11.279 14.3882L3.31707 9.37114V9.36818C3.32597 8.9585 3.42691 8.66461 3.57831 8.55477L11.4304 3.59416ZM22.8567 9.33552C22.8329 8.27275 22.3906 7.73542 21.9928 7.45637L14.1912 2.53139C13.6658 2.18702 13.0513 2.00297 12.4219 2C11.4393 2 10.7446 2.47498 10.7001 2.51061L2.98458 7.38215L2.83911 7.47418C2.47397 7.73839 2.02867 8.27571 2.00492 9.35333L2.01383 19.7258C1.98711 19.9573 1.94852 20.6787 2.43835 21.2695C2.70256 21.5871 3.21613 21.9671 4.1661 21.9879C4.70045 21.9968 7.15552 21.9998 9.94605 21.9998H12.8761C14.9245 21.9998 19.793 22.0027 20.6985 21.9879C21.6455 21.9701 22.1591 21.5871 22.4233 21.2695C22.9131 20.6787 22.8775 19.9573 22.8507 19.7258C22.8478 19.7228 22.8567 9.33552 22.8567 9.33552Z" fill="#86888C"/>
</svg>
