<svg width="28" height="28" viewBox="0 0 28 28" fill="none" xmlns="http://www.w3.org/2000/svg">
<path fill-rule="evenodd" clip-rule="evenodd" d="M24.4733 23.435L20.549 22.7895V3.67013L24.4733 4.31564V23.435ZM3.53693 4.31906L7.69688 3.6633V22.7861L3.53693 23.4453V4.31906ZM14.7702 5.1285L19.0155 3.80675V22.8783L14.7702 24.2001V5.1285ZM9.22698 3.82041L13.2401 5.12167V24.183L9.22698 22.8817V3.82041ZM25.3647 2.9085L19.9069 2.01025C19.8899 2.00683 19.8694 2.01366 19.8523 2.01366C19.8284 2.01025 19.8079 2 19.784 2C19.7327 2 19.6883 2.01708 19.6405 2.02732C19.6132 2.03415 19.5825 2.02391 19.5551 2.03415L14.0085 3.75893L8.69759 2.03757C8.66686 2.02732 8.63953 2.03757 8.60879 2.03074C8.55756 2.02049 8.51316 2 8.45852 2C8.43461 2 8.41412 2.01025 8.39362 2.01366C8.37655 2.01708 8.35947 2.00683 8.33898 2.01025L2.64551 2.9085C2.27323 2.96656 2 3.29102 2 3.66671V24.3367C2 24.5621 2.09905 24.7739 2.26982 24.9173C2.44059 25.0642 2.666 25.1257 2.888 25.0915L8.40046 24.2206L13.7695 25.9624C13.8446 25.9863 13.9266 26 14.0051 26C14.0803 26 14.1588 25.9863 14.234 25.9658L19.8386 24.2206L25.1154 25.0915C25.3374 25.1257 25.5628 25.0642 25.737 24.9207C25.9078 24.7739 26.0068 24.5621 26.0068 24.3367V3.6633C26.0068 3.2876 25.7336 2.96997 25.3647 2.9085Z" fill="#86888C"/>
</svg>
