<svg width="40" height="40" viewBox="0 0 40 40" fill="none" xmlns="http://www.w3.org/2000/svg">
<path fill-rule="evenodd" clip-rule="evenodd" d="M31.07 36.8435C31.4952 36.8435 31.8025 36.6181 31.8435 36.531L31.8281 8.00455C31.7923 8.00455 31.4593 7.76892 31.07 7.76892H26.2294C26.2345 7.82527 26.2447 7.87137 26.2447 7.9226L26.2601 8.27604L26.255 8.47069C26.1577 11.2316 23.4326 11.6209 20.5026 11.6209C17.5726 11.6209 14.8475 11.2316 14.745 8.41947L14.7399 8.27604L14.745 8.04553L14.7604 7.86113C14.7604 7.83039 14.7706 7.79454 14.7706 7.7638H9.92487C9.53045 7.7638 9.1975 8.00455 9.14115 8.10188L9.16164 36.6079C9.19237 36.613 9.49972 36.8435 9.92487 36.8435H31.07ZM20.4974 5.15652C17.4394 5.15652 16.9784 6.6881 16.9169 8.02504L16.9067 8.28116C16.9271 8.77291 16.9476 9.47467 20.4974 9.47467C24.0472 9.47467 24.0729 8.76779 24.0831 8.35287V8.13773C24.0729 7.74844 24.0165 7.36426 23.9038 6.99032C23.7655 6.53443 23.3301 5.15652 20.4974 5.15652ZM31.07 5.61753C32.6323 5.61753 34 6.73421 34 8.00455V36.613C34 37.9089 32.6579 39 31.07 39H9.92999C8.34206 39 7 37.9038 7 36.613V7.99943C7 6.72908 8.36767 5.61241 9.92487 5.61241H15.329C16.1895 3.94252 17.967 3 20.4974 3C23.5811 3 25.0102 4.29596 25.671 5.61753H31.07ZM19.2271 8.72681C18.6688 8.72681 18.218 8.28116 18.2129 7.72282C18.2129 7.16961 18.6636 6.71884 19.2271 6.71884H21.7729C22.3312 6.71884 22.782 7.16961 22.782 7.72282C22.782 8.27604 22.3312 8.72681 21.7729 8.72681H19.2271ZM29.7331 24.1144C30.2914 24.1144 30.7422 24.5652 30.7422 25.1184C30.7422 25.6716 30.2914 26.1224 29.7331 26.1224H26.1577C25.7274 26.1224 25.3483 25.856 25.2049 25.4513L24.6261 23.8122L24.1548 25.4001C24.0929 25.6088 23.9651 25.7918 23.7907 25.922C23.6162 26.0521 23.4043 26.1224 23.1867 26.1224H22.1161L20.4513 29.8207C20.2208 30.333 19.6215 30.5583 19.1144 30.3278C18.8173 30.1947 18.6022 29.9283 18.5356 29.6056L16.9374 21.6762L15.8054 25.313C15.6722 25.7331 15.2829 26.0199 14.8372 26.0199H11.2618C10.7035 26.0199 10.2527 25.5743 10.2476 25.0159C10.2476 24.4627 10.6983 24.012 11.2618 24.012H14.0945L16.1844 17.3017C16.3176 16.856 16.7427 16.564 17.2038 16.5948C17.6648 16.6153 18.0489 16.9482 18.1412 17.399L19.8981 26.1224L20.5384 24.7035C20.7023 24.3398 21.0609 24.1093 21.4604 24.1093H22.4286L23.5709 20.2419C23.6989 19.8219 24.078 19.5299 24.5185 19.5196C24.9539 19.5145 25.3483 19.7809 25.4969 20.1907L26.8799 24.1042C26.8748 24.1144 29.7331 24.1144 29.7331 24.1144Z" fill="#86888C"/>
</svg>
