<svg width="28" height="28" viewBox="0 0 28 28" fill="none" xmlns="http://www.w3.org/2000/svg">
<path fill-rule="evenodd" clip-rule="evenodd" d="M21.0467 24.5623C21.3301 24.5623 21.535 24.4121 21.5623 24.354L21.5521 5.33637C21.5282 5.33637 21.3062 5.17928 21.0467 5.17928H17.8196C17.823 5.21685 17.8298 5.24758 17.8298 5.28173L17.8401 5.51736L17.8367 5.64713C17.7718 7.48776 15.955 7.7473 14.0017 7.7473C12.0484 7.7473 10.2316 7.48776 10.1633 5.61298L10.1599 5.51736L10.1633 5.36369L10.1736 5.24075C10.1736 5.22026 10.1804 5.19636 10.1804 5.17587H6.94991C6.68697 5.17587 6.465 5.33637 6.42743 5.40125L6.44109 24.4052C6.46158 24.4086 6.66648 24.5623 6.94991 24.5623H21.0467ZM13.9983 3.43768C11.9596 3.43768 11.6522 4.45874 11.6113 5.35003L11.6044 5.52077C11.6181 5.84861 11.6318 6.31645 13.9983 6.31645C16.3648 6.31645 16.3819 5.84519 16.3887 5.56858V5.42516C16.3819 5.16562 16.3443 4.9095 16.2692 4.66022C16.177 4.35629 15.8867 3.43768 13.9983 3.43768ZM21.0467 3.74502C22.0882 3.74502 23 4.48947 23 5.33637V24.4087C23 25.2726 22.1053 26 21.0467 26H6.95333C5.89471 26 5 25.2692 5 24.4087V5.33295C5 4.48606 5.91178 3.74161 6.94991 3.74161H10.5526C11.1264 2.62834 12.3113 2 13.9983 2C16.0541 2 17.0068 2.86397 17.4474 3.74502H21.0467ZM13.1514 5.81787C12.7792 5.81787 12.4787 5.52077 12.4752 5.14855C12.4752 4.77974 12.7758 4.47923 13.1514 4.47923H14.8486C15.2208 4.47923 15.5213 4.77974 15.5213 5.14855C15.5213 5.51736 15.2208 5.81787 14.8486 5.81787H13.1514ZM20.1554 16.0763C20.5276 16.0763 20.8281 16.3768 20.8281 16.7456C20.8281 17.1144 20.5276 17.4149 20.1554 17.4149H17.7718C17.4849 17.4149 17.2322 17.2373 17.1366 16.9676L16.7507 15.8748L16.4365 16.9334C16.3952 17.0725 16.3101 17.1946 16.1938 17.2813C16.0775 17.3681 15.9362 17.415 15.7911 17.4149H15.0774L13.9676 19.8805C13.8139 20.222 13.4143 20.3722 13.0763 20.2186C12.8782 20.1298 12.7348 19.9522 12.6904 19.7371L11.6249 14.4508L10.8702 16.8754C10.7814 17.1554 10.5219 17.3466 10.2248 17.3466H7.84121C7.46898 17.3466 7.16847 17.0495 7.16505 16.6773C7.16505 16.3085 7.46557 16.008 7.84121 16.008H9.72965L11.1229 11.5344C11.2117 11.2373 11.4952 11.0427 11.8025 11.0632C12.1098 11.0768 12.366 11.2988 12.4274 11.5993L13.5987 17.4149L14.0256 16.469C14.1349 16.2265 14.3739 16.0729 14.6403 16.0729H15.2857L16.0472 13.4946C16.1326 13.2146 16.3853 13.0199 16.679 13.0131C16.9693 13.0097 17.2322 13.1873 17.3312 13.4604L18.2533 16.0694C18.2499 16.0763 20.1554 16.0763 20.1554 16.0763Z" fill="#86888C"/>
</svg>
