<svg width="24" height="24" viewBox="0 0 24 24" fill="none" xmlns="http://www.w3.org/2000/svg">
<path fill-rule="evenodd" clip-rule="evenodd" d="M18.3722 20.8019C18.6084 20.8019 18.7792 20.6767 18.8019 20.6283L18.7934 4.78031C18.7735 4.78031 18.5885 4.6494 18.3722 4.6494H15.683C15.6858 4.68071 15.6915 4.70632 15.6915 4.73478L15.7001 4.93113L15.6972 5.03927C15.6431 6.57314 14.1292 6.78941 12.5014 6.78941C10.8736 6.78941 9.3597 6.57314 9.30279 5.01081L9.29994 4.93113L9.30279 4.80307L9.31133 4.70063C9.31133 4.68355 9.31702 4.66363 9.31702 4.64656H6.62493C6.40581 4.64656 6.22083 4.78031 6.18953 4.83438L6.20091 20.671C6.21799 20.6739 6.38873 20.8019 6.62493 20.8019H18.3722ZM12.4986 3.19806C10.7997 3.19806 10.5435 4.04895 10.5094 4.79169L10.5037 4.93398C10.5151 5.20717 10.5265 5.59704 12.4986 5.59704C14.4707 5.59704 14.4849 5.20433 14.4906 4.97382V4.8543C14.4849 4.63802 14.4536 4.42459 14.391 4.21685C14.3142 3.96357 14.0723 3.19806 12.4986 3.19806ZM18.3722 3.45418C19.2402 3.45418 20 4.07456 20 4.78031V20.6739C20 21.3939 19.2544 22 18.3722 22H6.62777C5.74559 22 5 21.391 5 20.6739V4.77746C5 4.07171 5.75982 3.45134 6.62493 3.45134H9.62721C10.1053 2.52362 11.0928 2 12.4986 2C14.2117 2 15.0057 2.71998 15.3728 3.45418H18.3722ZM11.7928 5.18156C11.4826 5.18156 11.2322 4.93398 11.2294 4.62379C11.2294 4.31645 11.4798 4.06602 11.7928 4.06602H13.2072C13.5174 4.06602 13.7678 4.31645 13.7678 4.62379C13.7678 4.93113 13.5174 5.18156 13.2072 5.18156H11.7928ZM17.6295 13.7302C17.9397 13.7302 18.1901 13.9806 18.1901 14.288C18.1901 14.5953 17.9397 14.8458 17.6295 14.8458H15.6431C15.4041 14.8458 15.1935 14.6978 15.1138 14.473L14.7923 13.5623L14.5304 14.4445C14.496 14.5604 14.4251 14.6621 14.3281 14.7344C14.2312 14.8067 14.1135 14.8458 13.9926 14.8458H13.3978L12.473 16.9004C12.3449 17.185 12.012 17.3102 11.7302 17.1821C11.5652 17.1081 11.4456 16.9602 11.4087 16.7809L10.5208 12.3756L9.89186 14.3961C9.81787 14.6295 9.60159 14.7888 9.35401 14.7888H7.36767C7.05748 14.7888 6.80706 14.5413 6.80421 14.2311C6.80421 13.9237 7.05464 13.6733 7.36767 13.6733H8.94138L10.1024 9.94536C10.1764 9.69778 10.4126 9.53557 10.6688 9.55265C10.9249 9.56403 11.1383 9.749 11.1895 9.99943L12.1656 14.8458L12.5213 14.0575C12.6124 13.8554 12.8116 13.7274 13.0336 13.7274H13.5714L14.206 11.5788C14.2772 11.3455 14.4878 11.1833 14.7325 11.1776C14.9744 11.1747 15.1935 11.3227 15.276 11.5504L16.0444 13.7245C16.0415 13.7302 17.6295 13.7302 17.6295 13.7302Z" fill="#86888C"/>
</svg>
