<svg width="28" height="28" viewBox="0 0 28 28" fill="none" xmlns="http://www.w3.org/2000/svg">
<path fill-rule="evenodd" clip-rule="evenodd" d="M17.3709 19.0028V17.7769H15.3664C14.9532 17.7769 14.6185 17.4456 14.6151 17.0324V15.0518H13.3823V17.0359C13.3823 17.4456 13.0477 17.7803 12.631 17.7803H10.6299V18.9994H12.631C13.0443 18.9994 13.3823 19.3341 13.3823 19.7439V21.7245H14.6219L14.6151 19.7473C14.6185 19.3341 14.9532 19.0028 15.3664 19.0028H17.3709ZM17.528 16.2914C18.2554 16.2914 18.8701 16.8583 18.8701 17.5344V19.2453C18.8701 19.918 18.2554 20.4883 17.528 20.4883H16.1177L16.1211 21.885C16.1211 22.6056 15.5474 23.21 14.8644 23.21H13.133C12.4535 23.21 11.8798 22.6056 11.8798 21.885V20.4883H10.4694C9.73179 20.4883 9.13077 19.9317 9.13077 19.2453V17.5378C9.13077 16.8651 9.74203 16.2948 10.4694 16.2948H11.8832V14.8947C11.8832 14.1742 12.4569 13.5663 13.1399 13.5663H14.8644C15.544 13.5663 16.1177 14.1742 16.1177 14.8947V16.2914H17.528ZM21.9435 24.5145C24.4979 24.5145 24.4979 22.3119 24.4979 21.5879V12.436H3.50299V21.6084C3.50299 21.6426 3.50299 21.6767 3.49958 21.7109C3.49958 21.7109 3.44494 22.9744 4.20305 23.7632C4.66748 24.2481 5.41534 24.494 6.4125 24.494H21.5576C21.6191 24.494 21.6806 24.4974 21.742 24.5077C21.7557 24.5077 21.8342 24.5145 21.9435 24.5145ZM4.54112 6.5111C4.28501 6.6716 3.50299 7.16335 3.50299 8.96642V10.9505H24.4945V8.99032C24.4945 8.95276 24.4945 8.91178 24.4979 8.87422C24.4979 8.87422 24.5628 7.62436 23.8149 6.83552C23.3436 6.34035 22.5855 6.09106 21.5542 6.09106H20.1541V6.30962C20.1541 6.71941 19.8194 7.05065 19.4028 7.05065C18.9896 7.05065 18.655 6.71941 18.6515 6.30962V6.09106L9.34932 6.09789V6.31303C9.34932 6.72282 9.01466 7.05407 8.59804 7.05407C8.18483 7.05407 7.85017 6.72282 7.84676 6.31303V6.09789C6.94522 6.09789 6.39542 6.10131 6.39542 6.10131C6.35103 6.10131 6.30663 6.09789 6.26224 6.09448C6.25882 6.09448 6.21785 6.09106 6.15638 6.09106C5.87635 6.08765 5.14898 6.12863 4.54112 6.5111ZM21.5576 4.60216C26.3453 4.60216 25.9936 8.98691 25.9936 8.98691L25.997 21.5879C25.997 25.6346 23.0192 26 21.9435 26C21.7079 26 21.561 25.9795 21.561 25.9795H6.41591C1.70333 25.9795 2.00384 21.6084 2.00384 21.6084V8.96301C2.00384 4.89243 5.24118 4.60216 6.15979 4.60216C6.31346 4.60216 6.39884 4.60899 6.39884 4.60899L7.85017 4.60558V2.74445C7.85017 2.33466 8.18484 2 8.60145 2C9.01807 2 9.35274 2.33125 9.35274 2.74445V4.60899L18.6584 4.60216V2.74445C18.6584 2.33466 18.993 2 19.4096 2C19.8263 2 20.1609 2.33125 20.1609 2.74445V4.60558H21.5576V4.60216Z" fill="#86888C"/>
</svg>
