<svg width="20" height="20" viewBox="0 0 20 20" fill="none" xmlns="http://www.w3.org/2000/svg">
<path fill-rule="evenodd" clip-rule="evenodd" d="M14.6978 17.0415C14.8867 17.0415 15.0233 16.9414 15.0415 16.9027L15.0347 4.22425C15.0188 4.22425 14.8708 4.11952 14.6978 4.11952H12.5464C12.5487 4.14456 12.5532 4.16505 12.5532 4.18782L12.56 4.34491L12.5578 4.43142C12.5145 5.65851 11.3034 5.83153 10.0011 5.83153C8.69892 5.83153 7.48776 5.65851 7.44223 4.40865L7.43995 4.34491L7.44223 4.24246L7.44906 4.1605C7.44906 4.14684 7.45361 4.13091 7.45361 4.11725H5.29994C5.12464 4.11725 4.97666 4.22425 4.95162 4.2675L4.96073 16.9368C4.97439 16.9391 5.11098 17.0415 5.29994 17.0415H14.6978ZM9.99886 2.95845C8.63973 2.95845 8.43483 3.63916 8.40751 4.23335L8.40296 4.34718C8.41207 4.56574 8.42117 4.87763 9.99886 4.87763C11.5766 4.87763 11.5879 4.56346 11.5925 4.37906V4.28344C11.5879 4.11042 11.5629 3.93967 11.5128 3.77348C11.4513 3.57086 11.2578 2.95845 9.99886 2.95845ZM14.6978 3.16335C15.3921 3.16335 16 3.65965 16 4.22425V16.9391C16 17.5151 15.4035 18 14.6978 18H5.30222C4.59647 18 4 17.5128 4 16.9391V4.22197C4 3.65737 4.60785 3.16107 5.29994 3.16107H7.70176C8.08423 2.4189 8.87422 2 9.99886 2C11.3694 2 12.0046 2.57598 12.2982 3.16335H14.6978ZM9.43426 4.54525C9.18611 4.54525 8.98577 4.34718 8.98349 4.09903C8.98349 3.85316 9.18384 3.65282 9.43426 3.65282H10.5657C10.8139 3.65282 11.0142 3.85316 11.0142 4.09903C11.0142 4.34491 10.8139 4.54525 10.5657 4.54525H9.43426ZM14.1036 11.3842C14.3517 11.3842 14.5521 11.5845 14.5521 11.8304C14.5521 12.0763 14.3517 12.2766 14.1036 12.2766H12.5145C12.3233 12.2766 12.1548 12.1582 12.0911 11.9784L11.8338 11.2499L11.6244 11.9556C11.5968 12.0483 11.5401 12.1297 11.4625 12.1875C11.385 12.2454 11.2908 12.2766 11.1941 12.2766H10.7183L9.97837 13.9203C9.87593 14.148 9.60956 14.2482 9.38418 14.1457C9.25213 14.0865 9.15652 13.9681 9.12692 13.8247L8.41662 10.3005L7.91349 11.9169C7.8543 12.1036 7.68128 12.2311 7.48321 12.2311H5.89414C5.64599 12.2311 5.44565 12.033 5.44337 11.7849C5.44337 11.539 5.64371 11.3386 5.89414 11.3386H7.1531L8.08196 8.35629C8.14115 8.15823 8.33011 8.02846 8.535 8.04212C8.7399 8.05122 8.91064 8.1992 8.95162 8.39955L9.7325 12.2766L10.0171 11.646C10.0899 11.4843 10.2493 11.3819 10.4269 11.3819H10.8571L11.3648 9.66306C11.4217 9.47638 11.5902 9.34661 11.786 9.34206C11.9795 9.33978 12.1548 9.45817 12.2208 9.6403L12.8355 11.3796C12.8332 11.3842 14.1036 11.3842 14.1036 11.3842Z" fill="#86888C"/>
</svg>
