<svg width="40" height="40" viewBox="0 0 40 40" fill="none" xmlns="http://www.w3.org/2000/svg">
<path fill-rule="evenodd" clip-rule="evenodd" d="M25.0564 27.5043V25.6653H22.0496C21.4298 25.6653 20.9278 25.1685 20.9227 24.5487V21.5777H19.0735V24.5538C19.0735 25.1685 18.5715 25.6705 17.9466 25.6705H14.9449V27.4991H17.9466C18.5664 27.4991 19.0735 28.0011 19.0735 28.6158V31.5868H20.9329L20.9227 28.6209C20.9278 28.0011 21.4298 27.5043 22.0496 27.5043H25.0564ZM25.2921 23.4371C26.3831 23.4371 27.3051 24.2874 27.3051 25.3017V27.868C27.3051 28.8771 26.3831 29.7325 25.2921 29.7325H23.1765L23.1816 31.8275C23.1816 32.9084 22.3211 33.815 21.2966 33.815H18.6996C17.6802 33.815 16.8197 32.9084 16.8197 31.8275V29.7325H14.7041C13.5977 29.7325 12.6961 28.8976 12.6961 27.868V25.3068C12.6961 24.2977 13.6131 23.4422 14.7041 23.4422H16.8248V21.3421C16.8248 20.2612 17.6853 19.3495 18.7098 19.3495H21.2966C22.316 19.3495 23.1765 20.2612 23.1765 21.3421V23.4371H25.2921ZM31.9153 35.7718C35.7468 35.7718 35.7468 32.4678 35.7468 31.3819V17.654H4.25449V31.4126C4.25449 31.4639 4.25449 31.5151 4.24936 31.5663C4.24936 31.5663 4.16741 33.4616 5.30457 34.6448C6.00121 35.3722 7.12301 35.741 8.61874 35.741H31.3364C31.4286 35.741 31.5208 35.7462 31.6131 35.7615C31.6335 35.7615 31.7514 35.7718 31.9153 35.7718ZM5.81169 8.76665C5.42751 9.0074 4.25449 9.74502 4.25449 12.4496V15.4257H35.7417V12.4855C35.7417 12.4291 35.7417 12.3677 35.7468 12.3113C35.7468 12.3113 35.8441 10.4365 34.7223 9.25327C34.0154 8.51053 32.8783 8.1366 31.3313 8.1366H29.2311V8.46443C29.2311 9.07911 28.7292 9.57598 28.1042 9.57598C27.4844 9.57598 26.9824 9.07911 26.9773 8.46443V8.1366L13.024 8.14684V8.46955C13.024 9.08423 12.522 9.5811 11.8971 9.5811C11.2773 9.5811 10.7753 9.08423 10.7701 8.46955V8.14684C9.41783 8.14684 8.59313 8.15196 8.59313 8.15196C8.52654 8.15196 8.45995 8.14684 8.39336 8.14172C8.38824 8.14172 8.32677 8.1366 8.23457 8.1366C7.81453 8.13147 6.72347 8.19294 5.81169 8.76665ZM31.3364 5.90324C38.518 5.90324 37.9904 12.4804 37.9904 12.4804L37.9955 31.3819C37.9955 37.4519 33.5288 38 31.9153 38C31.5618 38 31.3416 37.9693 31.3416 37.9693H8.62387C1.555 37.9693 2.00577 31.4126 2.00577 31.4126V12.4445C2.00577 6.33865 6.86177 5.90324 8.23969 5.90324C8.4702 5.90324 8.59825 5.91349 8.59825 5.91349L10.7753 5.90837V3.11668C10.7753 2.50199 11.2773 2 11.9022 2C12.5271 2 13.0291 2.49687 13.0291 3.11668V5.91349L26.9876 5.90324V3.11668C26.9876 2.50199 27.4895 2 28.1145 2C28.7394 2 29.2414 2.49687 29.2414 3.11668V5.90837H31.3364V5.90324Z" fill="#86888C"/>
</svg>
