<svg width="24" height="24" viewBox="0 0 24 24" fill="none" xmlns="http://www.w3.org/2000/svg">
<path fill-rule="evenodd" clip-rule="evenodd" d="M3.79931 6.55614C3.36381 6.56145 3.00797 6.21358 3 5.77807C3 5.35053 3.3585 5 3.79931 5H20.8611C21.3019 5 21.6604 5.34787 21.6604 5.77807C21.6524 6.21358 21.2966 6.56145 20.8611 6.55614H3.79931ZM20.8637 11.2219C21.3046 11.2219 21.663 11.5698 21.663 12C21.6577 12.4355 21.2992 12.7834 20.8637 12.778H3.79931C3.36381 12.7834 3.00531 12.4355 3 12C3 11.5698 3.3585 11.2219 3.79931 11.2219H20.8637ZM20.8637 17.4438C21.3046 17.4438 21.663 17.7917 21.663 18.2219C21.6577 18.6574 21.2992 19.0053 20.8637 18.9999H3.79931C3.36381 19.0053 3.00531 18.6574 3 18.2219C3 17.7917 3.3585 17.4438 3.79931 17.4438H20.8637Z" fill="#86888C"/>
</svg>
