<svg width="28" height="28" viewBox="0 0 28 28" fill="none" xmlns="http://www.w3.org/2000/svg">
<path fill-rule="evenodd" clip-rule="evenodd" d="M3.02769 8.00075C2.46775 8.00758 2.01024 7.56031 2 7.00037C2 6.45068 2.46092 6 3.02769 6H24.9642C25.531 6 25.9919 6.44727 25.9919 7.00037C25.9817 7.56031 25.5242 8.00758 24.9642 8.00075H3.02769ZM24.9677 13.9996C25.5344 13.9996 25.9953 14.4469 25.9953 15C25.9885 15.5599 25.5276 16.0072 24.9677 16.0003H3.02769C2.46775 16.0072 2.00683 15.5599 2 15C2 14.4469 2.46092 13.9996 3.02769 13.9996H24.9677ZM24.9677 21.9992C25.5344 21.9992 25.9953 22.4464 25.9953 22.9995C25.9885 23.5595 25.5276 24.0068 24.9677 23.9999H3.02769C2.46775 24.0068 2.00683 23.5595 2 22.9995C2 22.4464 2.46092 21.9992 3.02769 21.9992H24.9677Z" fill="#86888C"/>
</svg>
