<svg width="24" height="24" viewBox="0 0 24 24" fill="none" xmlns="http://www.w3.org/2000/svg">
<path fill-rule="evenodd" clip-rule="evenodd" d="M17.393 17.5543H6.5447C6.49931 17.5543 6.45392 17.5144 6.44825 17.5116V14.4719V14.4662V12.0157C6.44825 12.0128 6.45109 12.01 6.45109 12.0043C6.45109 12.0014 6.44825 11.9986 6.44825 11.9957L6.44541 9.55941C6.44541 9.55372 6.44825 9.55088 6.44825 9.54518C6.44825 9.53949 6.44541 9.53664 6.44541 9.53095V6.55386C6.45676 6.52256 6.51634 6.47702 6.54754 6.47702H17.3958C17.4242 6.47986 17.4781 6.51686 17.4951 6.54817V11.9986C17.4951 12.0014 17.4923 12.0043 17.4923 12.0071C17.4923 12.01 17.4951 12.0128 17.4951 12.0157V14.4605C17.4951 14.4634 17.4923 14.4662 17.4923 14.4719C17.4923 14.4747 17.4951 14.4804 17.4951 14.4833V17.4945C17.4838 17.5144 17.4327 17.5543 17.393 17.5543ZM21.3221 12.619C21.6597 12.619 21.9349 12.343 21.9349 12.0043C21.9349 11.6656 21.6597 11.3895 21.3221 11.3895H18.7207V10.1571H21.3221C21.6597 10.1571 21.9349 9.88103 21.9349 9.54234C21.9349 9.20364 21.6597 8.92757 21.3221 8.92757H18.7207V6.52256C18.7207 5.83948 18.1022 5.24178 17.3958 5.24178H15.0384V2.61477C15.0384 2.27608 14.7632 2 14.4256 2C14.088 2 13.8128 2.27608 13.8128 2.61477V5.24178H12.5845V2.61477C12.5845 2.27608 12.3093 2 11.9717 2C11.6341 2 11.3589 2.27608 11.3589 2.61477V5.24178H10.1305V2.61477C10.1305 2.27608 9.85536 2 9.51777 2C9.18018 2 8.905 2.27608 8.905 2.61477V5.24178H6.54754C5.84115 5.24178 5.22271 5.83948 5.22271 6.52256V8.92757H2.61277C2.27518 8.92757 2 9.20364 2 9.54234C2 9.88103 2.27518 10.1571 2.61277 10.1571H5.22271V11.3895H2.61277C2.27518 11.3895 2 11.6656 2 12.0043C2 12.343 2.27518 12.619 2.61277 12.619H5.22271V13.8514H2.61277C2.27518 13.8514 2 14.1275 2 14.4662C2 14.8049 2.27518 15.081 2.61277 15.081H5.22271V17.5116C5.22271 18.2032 5.82981 18.7838 6.54754 18.7838H8.905V21.3852C8.905 21.7239 9.18018 22 9.51777 22C9.85536 22 10.1305 21.7239 10.1305 21.3852V18.7838H11.3589V21.3852C11.3589 21.7239 11.6341 22 11.9717 22C12.3093 22 12.5845 21.7239 12.5845 21.3852V18.7838H13.8128V21.3852C13.8128 21.7239 14.088 22 14.4256 22C14.7632 22 15.0384 21.7239 15.0384 21.3852V18.7838H17.3958C18.1022 18.7838 18.7207 18.189 18.7207 17.5116V15.081H21.3221C21.6597 15.081 21.9349 14.8049 21.9349 14.4662C21.9349 14.1275 21.6597 13.8514 21.3221 13.8514H18.7207V12.619H21.3221Z" fill="#86888C"/>
</svg>
