<svg width="40" height="40" viewBox="0 0 40 40" fill="none" xmlns="http://www.w3.org/2000/svg">
<path fill-rule="evenodd" clip-rule="evenodd" d="M26.2999 22.5766V10.288C26.2999 6.21571 24.3227 4.23335 20.2504 4.23335C16.1781 4.23335 14.2009 6.21059 14.2009 10.288V22.5766C14.2009 26.6488 16.1781 28.6312 20.2504 28.6312C24.3227 28.6312 26.2999 26.6488 26.2999 22.5766ZM20.2504 2C25.5931 2 28.5333 4.94536 28.5333 10.288V22.5766C28.5333 27.9192 25.5931 30.8645 20.2504 30.8645C14.9078 30.8645 11.9676 27.9192 11.9676 22.5766V10.288C11.9676 4.94536 14.9078 2 20.2504 2ZM20.2914 34.5014C21.2544 34.5014 22.0381 35.2851 22.0381 36.2533C22.0381 37.2163 21.2544 38 20.2914 38C19.3284 38 18.5447 37.2163 18.5447 36.2533C18.5447 35.2851 19.3284 34.5014 20.2914 34.5014ZM26.3768 32.7547C27.3398 32.7547 28.1235 33.5384 28.1235 34.5014C28.1235 35.4696 27.3398 36.2533 26.3768 36.2533C25.4138 36.2533 24.6301 35.4696 24.6301 34.5014C24.6301 33.5384 25.4138 32.7547 26.3768 32.7547ZM31.2635 28.5851C32.2265 28.5851 33.0102 29.3688 33.0102 30.3318C33.0102 31.2999 32.2265 32.0785 31.2635 32.0785C30.3005 32.0785 29.5168 31.2948 29.5168 30.3318C29.5168 29.3688 30.3005 28.5851 31.2635 28.5851ZM33.0102 22.6329C33.8349 22.6329 34.5009 23.2988 34.5009 24.1235C34.5009 24.9482 33.8349 25.6141 33.0102 25.6141C32.1855 25.6141 31.5196 24.9482 31.5196 24.1235C31.5196 23.3039 32.1855 22.6329 33.0102 22.6329ZM14.1241 32.7547C15.0871 32.7547 15.8708 33.5384 15.8708 34.5014C15.8708 35.4696 15.0871 36.2533 14.1241 36.2533C13.1611 36.2533 12.3773 35.4696 12.3773 34.5014C12.3722 33.5384 13.1611 32.7547 14.1241 32.7547ZM9.23734 28.5851C10.2003 28.5851 10.9841 29.3688 10.9841 30.3318C10.9841 31.2999 10.2003 32.0785 9.23734 32.0785C8.27433 32.0785 7.49061 31.2948 7.49061 30.3318C7.49061 29.3688 8.27433 28.5851 9.23734 28.5851ZM8.98122 24.1286C8.98122 24.9533 8.31531 25.6192 7.49061 25.6192C6.66591 25.6192 6 24.9533 6 24.1286C6 23.3039 6.66591 22.638 7.49061 22.638C8.31531 22.6329 8.98122 23.3039 8.98122 24.1286Z" fill="#86888C"/>
</svg>
