<svg width="40" height="40" viewBox="0 0 40 40" fill="none" xmlns="http://www.w3.org/2000/svg">
<path fill-rule="evenodd" clip-rule="evenodd" d="M29.7074 29.9977H10.1805C10.0988 29.9977 10.0171 29.926 10.0068 29.9209V24.4494V24.4392V20.0282C10.0068 20.0231 10.012 20.0179 10.012 20.0077C10.012 20.0026 10.0068 19.9974 10.0068 19.9923L10.0017 15.6069C10.0017 15.5967 10.0068 15.5916 10.0068 15.5813C10.0068 15.5711 10.0017 15.566 10.0017 15.5557V10.197C10.0222 10.1406 10.1294 10.0586 10.1856 10.0586H29.7125C29.7635 10.0638 29.8606 10.1304 29.8912 10.1867V19.9974C29.8912 20.0026 29.8861 20.0077 29.8861 20.0128C29.8861 20.0179 29.8912 20.0231 29.8912 20.0282V24.4289C29.8912 24.434 29.8861 24.4392 29.8861 24.4494C29.8861 24.4545 29.8912 24.4648 29.8912 24.4699V29.8901C29.8708 29.926 29.7789 29.9977 29.7074 29.9977ZM36.7798 21.1143C37.3874 21.1143 37.8827 20.6173 37.8827 20.0077C37.8827 19.398 37.3874 18.9011 36.7798 18.9011H32.0972V16.6828H36.7798C37.3874 16.6828 37.8827 16.1859 37.8827 15.5762C37.8827 14.9666 37.3874 14.4696 36.7798 14.4696H32.0972V10.1406C32.0972 8.91106 30.984 7.83521 29.7125 7.83521H25.4691V3.10659C25.4691 2.49694 24.9737 2 24.3661 2C23.7584 2 23.2631 2.49694 23.2631 3.10659V7.83521H21.052V3.10659C21.052 2.49694 20.5567 2 19.949 2C19.3414 2 18.846 2.49694 18.846 3.10659V7.83521H16.635V3.10659C16.635 2.49694 16.1396 2 15.532 2C14.9243 2 14.429 2.49694 14.429 3.10659V7.83521H10.1856C8.91408 7.83521 7.80088 8.91106 7.80088 10.1406V14.4696H3.10298C2.49532 14.4696 2 14.9666 2 15.5762C2 16.1859 2.49532 16.6828 3.10298 16.6828H7.80088V18.9011H3.10298C2.49532 18.9011 2 19.398 2 20.0077C2 20.6173 2.49532 21.1143 3.10298 21.1143H7.80088V23.3326H3.10298C2.49532 23.3326 2 23.8295 2 24.4392C2 25.0488 2.49532 25.5458 3.10298 25.5458H7.80088V29.9209C7.80088 31.1658 8.89365 32.2109 10.1856 32.2109H14.429V36.8934C14.429 37.5031 14.9243 38 15.532 38C16.1396 38 16.635 37.5031 16.635 36.8934V32.2109H18.846V36.8934C18.846 37.5031 19.3414 38 19.949 38C20.5567 38 21.052 37.5031 21.052 36.8934V32.2109H23.2631V36.8934C23.2631 37.5031 23.7584 38 24.3661 38C24.9737 38 25.4691 37.5031 25.4691 36.8934V32.2109H29.7125C30.984 32.2109 32.0972 31.1402 32.0972 29.9209V25.5458H36.7798C37.3874 25.5458 37.8827 25.0488 37.8827 24.4392C37.8827 23.8295 37.3874 23.3326 36.7798 23.3326H32.0972V21.1143H36.7798Z" fill="#86888C"/>
</svg>
