<svg width="28" height="28" viewBox="0 0 28 28" fill="none" xmlns="http://www.w3.org/2000/svg">
<path fill-rule="evenodd" clip-rule="evenodd" d="M20.4716 20.6651H7.45364C7.39918 20.6651 7.34471 20.6173 7.3379 20.6139V16.9663V16.9594V14.0188C7.3379 14.0154 7.3413 14.012 7.3413 14.0051C7.3413 14.0017 7.3379 13.9983 7.3379 13.9949L7.3345 11.0713C7.3345 11.0645 7.3379 11.0611 7.3379 11.0542C7.3379 11.0474 7.3345 11.044 7.3345 11.0371V7.46464C7.34811 7.42707 7.4196 7.37242 7.45705 7.37242H20.475C20.509 7.37584 20.5737 7.42024 20.5941 7.45781V13.9983C20.5941 14.0017 20.5907 14.0051 20.5907 14.0085C20.5907 14.012 20.5941 14.0154 20.5941 14.0188V16.9526C20.5941 16.956 20.5907 16.9594 20.5907 16.9663C20.5907 16.9697 20.5941 16.9765 20.5941 16.9799V20.5934C20.5805 20.6173 20.5192 20.6651 20.4716 20.6651ZM25.1865 14.7429C25.5916 14.7429 25.9218 14.4116 25.9218 14.0051C25.9218 13.5987 25.5916 13.2674 25.1865 13.2674H22.0648V11.7885H25.1865C25.5916 11.7885 25.9218 11.4572 25.9218 11.0508C25.9218 10.6444 25.5916 10.3131 25.1865 10.3131H22.0648V7.42707C22.0648 6.60737 21.3227 5.89014 20.475 5.89014H17.646V2.73773C17.646 2.33129 17.3158 2 16.9107 2C16.5056 2 16.1754 2.33129 16.1754 2.73773V5.89014H14.7013V2.73773C14.7013 2.33129 14.3711 2 13.966 2C13.5609 2 13.2307 2.33129 13.2307 2.73773V5.89014H11.7566V2.73773C11.7566 2.33129 11.4264 2 11.0213 2C10.6162 2 10.286 2.33129 10.286 2.73773V5.89014H7.45705C6.60939 5.89014 5.86725 6.60737 5.86725 7.42707V10.3131H2.73532C2.33021 10.3131 2 10.6444 2 11.0508C2 11.4572 2.33021 11.7885 2.73532 11.7885H5.86725V13.2674H2.73532C2.33021 13.2674 2 13.5987 2 14.0051C2 14.4116 2.33021 14.7429 2.73532 14.7429H5.86725V16.2217H2.73532C2.33021 16.2217 2 16.553 2 16.9594C2 17.3659 2.33021 17.6972 2.73532 17.6972H5.86725V20.6139C5.86725 21.4439 6.59577 22.1406 7.45705 22.1406H10.286V25.2623C10.286 25.6687 10.6162 26 11.0213 26C11.4264 26 11.7566 25.6687 11.7566 25.2623V22.1406H13.2307V25.2623C13.2307 25.6687 13.5609 26 13.966 26C14.3711 26 14.7013 25.6687 14.7013 25.2623V22.1406H16.1754V25.2623C16.1754 25.6687 16.5056 26 16.9107 26C17.3158 26 17.646 25.6687 17.646 25.2623V22.1406H20.475C21.3227 22.1406 22.0648 21.4268 22.0648 20.6139V17.6972H25.1865C25.5916 17.6972 25.9218 17.3659 25.9218 16.9594C25.9218 16.553 25.5916 16.2217 25.1865 16.2217H22.0648V14.7429H25.1865Z" fill="#86888C"/>
</svg>
