<svg width="28" height="28" viewBox="0 0 28 28" fill="none" xmlns="http://www.w3.org/2000/svg">
<path fill-rule="evenodd" clip-rule="evenodd" d="M18.5333 15.7177V7.52533C18.5333 4.81047 17.2151 3.4889 14.5003 3.4889C11.7854 3.4889 10.4673 4.80706 10.4673 7.52533V15.7177C10.4673 18.4326 11.7854 19.7541 14.5003 19.7541C17.2151 19.7541 18.5333 18.4326 18.5333 15.7177ZM14.5003 2C18.062 2 20.0222 3.96357 20.0222 7.52533V15.7177C20.0222 19.2795 18.062 21.243 14.5003 21.243C10.9385 21.243 8.97837 19.2795 8.97837 15.7177V7.52533C8.97837 3.96357 10.9385 2 14.5003 2ZM14.5276 23.6676C15.1696 23.6676 15.6921 24.1901 15.6921 24.8355C15.6921 25.4775 15.1696 26 14.5276 26C13.8856 26 13.3631 25.4775 13.3631 24.8355C13.3631 24.1901 13.8856 23.6676 14.5276 23.6676ZM18.5845 22.5031C19.2265 22.5031 19.749 23.0256 19.749 23.6676C19.749 24.313 19.2265 24.8355 18.5845 24.8355C17.9425 24.8355 17.42 24.313 17.42 23.6676C17.42 23.0256 17.9425 22.5031 18.5845 22.5031ZM21.8423 19.7234C22.4843 19.7234 23.0068 20.2459 23.0068 20.8879C23.0068 21.5333 22.4843 22.0524 21.8423 22.0524C21.2003 22.0524 20.6779 21.5299 20.6779 20.8879C20.6779 20.2459 21.2003 19.7234 21.8423 19.7234ZM23.0068 15.7553C23.5566 15.7553 24.0006 16.1992 24.0006 16.749C24.0006 17.2988 23.5566 17.7427 23.0068 17.7427C22.457 17.7427 22.0131 17.2988 22.0131 16.749C22.0131 16.2026 22.457 15.7553 23.0068 15.7553ZM10.4161 22.5031C11.0581 22.5031 11.5805 23.0256 11.5805 23.6676C11.5805 24.313 11.0581 24.8355 10.4161 24.8355C9.77405 24.8355 9.25156 24.313 9.25156 23.6676C9.24815 23.0256 9.77405 22.5031 10.4161 22.5031ZM7.15822 19.7234C7.80023 19.7234 8.32271 20.2459 8.32271 20.8879C8.32271 21.5333 7.80023 22.0524 7.15822 22.0524C6.51622 22.0524 5.99374 21.5299 5.99374 20.8879C5.99374 20.2459 6.51622 19.7234 7.15822 19.7234ZM6.98748 16.7524C6.98748 17.3022 6.54354 17.7462 5.99374 17.7462C5.44394 17.7462 5 17.3022 5 16.7524C5 16.2026 5.44394 15.7587 5.99374 15.7587C6.54354 15.7553 6.98748 16.2026 6.98748 16.7524Z" fill="#86888C"/>
</svg>
