<svg width="24" height="24" viewBox="0 0 24 24" fill="none" xmlns="http://www.w3.org/2000/svg">
<path fill-rule="evenodd" clip-rule="evenodd" d="M20.7621 18.2493V5.75071C20.7621 4.86853 20.5629 4.23961 20.1531 3.83267C19.7405 3.42288 19.1059 3.22652 18.2123 3.22652H11.9061C11.0239 3.22652 10.3893 3.42857 9.97097 3.8469C9.55834 4.26238 9.35629 4.88275 9.35629 5.75071V6.2601C12.3358 6.67558 14.0404 8.5794 14.0404 12.1366C14.0404 15.6938 12.3415 17.5919 9.36483 18.0102V18.6135C9.41036 19.2994 9.60672 19.823 9.96813 20.1759C10.3751 20.5771 11.0097 20.7735 11.9032 20.7735H18.2123C19.1059 20.7735 19.7376 20.5771 20.1474 20.1759C20.5629 19.7718 20.7621 19.14 20.7621 18.2493ZM8.01878 16.8719C11.2829 16.8719 12.8025 15.3665 12.8025 12.1338C12.8025 8.90097 11.2829 7.39271 8.01878 7.39271C4.75754 7.39271 3.23791 8.89812 3.23791 12.1338C3.23791 15.3665 4.75754 16.8719 8.01878 16.8719ZM21.0296 2.96756C21.6813 3.61639 22 4.52703 22 5.74787V18.2493C22 19.4843 21.6813 20.4007 21.0211 21.0467C20.3665 21.687 19.4474 22 18.2123 22H11.9061C10.6682 22 9.75185 21.687 9.10017 21.0467C8.51394 20.4718 8.19806 19.6864 8.13261 18.6505V18.0928C8.09562 18.0928 8.05862 18.0956 8.01878 18.0956C4.21685 18.0985 2 16.1975 2 12.1366C2 8.07285 4.21685 6.17188 8.01878 6.17188C8.05293 6.17188 8.08708 6.17473 8.12123 6.17473V5.75071C8.12123 4.54696 8.43995 3.642 9.09163 2.98748C9.7547 2.32157 10.6739 2 11.9061 2H18.2151C19.453 2 20.3751 2.31588 21.0296 2.96756ZM15.0592 17.0341C15.7279 17.0341 16.1264 17.4326 16.1264 18.0985C16.1264 18.4229 16.0324 18.6847 15.8475 18.8697C15.6596 19.0603 15.3865 19.1599 15.0563 19.1599C14.7262 19.1599 14.453 19.0603 14.2652 18.8697C14.0803 18.6818 13.9863 18.4229 13.9863 18.0985C13.992 17.4326 14.3904 17.0341 15.0592 17.0341ZM6.16904 9.25669C6.51053 9.25669 6.78657 9.52988 6.78657 9.86853V14.6551C6.78657 14.9966 6.50768 15.2698 6.16904 15.2698C5.83039 15.2698 5.55435 14.9966 5.55151 14.6551V9.87137C5.55435 9.53273 5.83039 9.25669 6.16904 9.25669ZM9.67501 9.23961C10.0165 9.23961 10.2925 9.51565 10.2925 9.85145V14.638C10.2925 14.9795 10.0137 15.2527 9.67501 15.2527C9.33637 15.2527 9.06033 14.9795 9.05748 14.638V9.8543C9.05748 9.51565 9.33352 9.23961 9.67501 9.23961Z" fill="#86888C"/>
</svg>
