<svg width="28" height="28" viewBox="0 0 28 28" fill="none" xmlns="http://www.w3.org/2000/svg">
<path d="M17.9915 26H10.0085C8.66098 26 7.67846 25.6757 7.0064 25.01C6.32751 24.3374 6 23.3474 6 21.9886V6.01138C6 4.68677 6.32751 3.7138 7.00299 3.0276C7.68529 2.33798 8.6678 2 10.0085 2H17.9915C19.3424 2 20.3249 2.32774 21.0004 3.00711C21.6759 3.68649 22 4.66629 22 6.01138V21.9886C22 23.3474 21.6691 24.3374 20.9936 25.01C20.3181 25.6757 19.339 26 17.9915 26ZM10.0085 3.36558C8.1322 3.36558 7.36461 4.13371 7.36461 6.01138V21.9886C7.36461 23.9175 8.08102 24.6344 10.0085 24.6344H17.9915C19.919 24.6344 20.6354 23.9175 20.6354 21.9886V6.01138C20.6354 5.04523 20.4375 4.3761 20.035 3.96984C19.6324 3.56358 18.9603 3.36558 17.9915 3.36558H10.0085Z" fill="#86888C"/>
<path d="M14 20.7767C13.3859 20.7767 12.9868 21.101 12.9868 21.794C12.9868 22.1286 13.0789 22.3744 13.2426 22.5417C13.42 22.7226 13.6793 22.8114 14 22.8114C14.3207 22.8114 14.58 22.7226 14.7574 22.5417C14.9211 22.3744 15.0132 22.1252 15.0132 21.794C15.0098 21.101 14.6141 20.7767 14 20.7767Z" fill="#86888C"/>
<path d="M14 23.1562C13.5838 23.1562 13.2358 23.0265 13.0004 22.7841C12.765 22.5417 12.649 22.2105 12.649 21.7974C12.649 20.9474 13.1539 20.4387 14.0034 20.4387C14.8529 20.4387 15.3544 20.9474 15.3544 21.7974C15.3544 22.2139 15.235 22.5451 15.003 22.7841C14.771 23.023 14.4162 23.1562 14 23.1562ZM14 21.1215C13.536 21.1215 13.3279 21.3297 13.3279 21.7974C13.3279 22.0296 13.3825 22.2003 13.4849 22.3061C13.5872 22.4119 13.7646 22.4734 13.9966 22.4734C14.2286 22.4734 14.4026 22.4188 14.5083 22.3061C14.6141 22.1935 14.6652 22.0262 14.6652 21.7974C14.6687 21.3297 14.464 21.1181 14 21.1215Z" fill="#86888C"/>
</svg>
