<svg width="20" height="20" viewBox="0 0 20 20" fill="none" xmlns="http://www.w3.org/2000/svg">
<path fill-rule="evenodd" clip-rule="evenodd" d="M6.43939 12.2356C6.76722 12.2356 6.99488 12.461 6.99488 12.7706C6.99488 13.1121 6.77177 13.3307 6.45305 13.3307C6.12066 13.3307 5.89755 13.1144 5.89755 12.8025V12.7729C5.89755 12.461 6.12521 12.2356 6.43939 12.2356ZM7.78714 7.49345C8.15822 7.76209 8.33125 8.13318 8.33125 8.65908C8.33125 9.28515 8.06488 9.66762 7.49573 10.3347C6.86283 11.0609 6.86283 11.0609 6.86283 11.6961C6.86283 11.8759 6.71486 12.0216 6.53273 12.0216H6.321C6.16392 12.0216 6.0296 11.9124 5.99772 11.7575C5.97723 11.6505 5.96585 11.5413 5.96813 11.432C5.96813 10.8788 6.16847 10.5418 6.59192 10.0387L6.6716 9.94536C7.35003 9.15083 7.43882 8.96642 7.43882 8.65225C7.43882 8.42914 7.3819 8.2971 7.23392 8.17871C7.14969 8.11042 6.99488 8.03301 6.53956 8.03301C6.2823 8.03301 6.05236 8.06261 5.77689 8.13318C5.59704 8.17644 5.41719 8.06488 5.37393 7.88731C5.37393 7.88503 5.37166 7.88048 5.37166 7.8782L5.33978 7.71656C5.31246 7.56858 5.38759 7.42288 5.52419 7.35914C5.75185 7.25213 6.22994 7.17245 6.63517 7.17245C7.11554 7.17018 7.50256 7.27945 7.78714 7.49345ZM17.0097 14.9949V4.99829C17.0097 4.29254 16.8526 3.78941 16.5225 3.47069C16.1924 3.1383 15.6847 2.97894 14.9721 2.97894H9.92715C9.2214 2.97894 8.71372 3.14286 8.37678 3.47524C8.04667 3.80763 7.88959 4.3062 7.88959 4.99829V5.41036C10.2709 5.73591 11.6346 7.25896 11.6346 10.107C11.6346 12.9482 10.2755 14.4713 7.89414 14.8036V15.2863C7.92829 15.8349 8.08537 16.2538 8.3745 16.5339C8.70461 16.8594 9.21229 17.0188 9.92487 17.0188H14.9698C15.6824 17.0188 16.1901 16.8617 16.5202 16.5339C16.8526 16.2151 17.0097 15.7143 17.0097 14.9949ZM6.81503 13.8976C9.4263 13.8976 10.6466 12.6955 10.6466 10.1093C10.6466 7.52305 9.4263 6.321 6.81503 6.321C4.21059 6.321 2.99032 7.52305 2.99032 10.1093C2.99032 12.6955 4.20831 13.8976 6.81503 13.8976ZM17.2214 2.7786C17.7496 3.29539 18 4.02618 18 4.99829V14.9949C18 15.9875 17.7427 16.7205 17.2146 17.2351C16.6932 17.745 15.9602 18 14.9721 18H9.92715C8.93682 18 8.20603 17.745 7.67786 17.2351C7.20888 16.7706 6.95845 16.1446 6.90609 15.3227V14.8788H6.81275C3.77575 14.8765 2 13.3557 2 10.107C2 6.86056 3.77575 5.33978 6.81503 5.33978H6.90154V4.99829C6.90154 4.03756 7.15196 3.3136 7.67786 2.78998C8.20603 2.26181 8.9391 2 9.92715 2H14.9721C15.9624 2 16.7001 2.25498 17.2214 2.7786ZM12.4474 14.0273C12.9869 14.0273 13.3056 14.3415 13.3056 14.8765C13.3056 15.136 13.2328 15.3455 13.0803 15.4889C12.9277 15.646 12.7092 15.7234 12.4474 15.7234C12.1833 15.7234 11.967 15.646 11.8145 15.4889C11.6688 15.3455 11.5982 15.136 11.5982 14.8765C11.5959 14.3415 11.9124 14.0273 12.4474 14.0273Z" fill="#86888C"/>
</svg>
