<svg width="24" height="24" viewBox="0 0 24 24" fill="none" xmlns="http://www.w3.org/2000/svg">
<path fill-rule="evenodd" clip-rule="evenodd" d="M6.87194 13.8099L9.79738 12.1366L6.87194 10.4604V13.8099ZM11.3426 11.6044C11.5333 11.7154 11.6528 11.9175 11.6528 12.1366C11.6528 12.3557 11.5333 12.5578 11.3426 12.6688L6.56175 15.4035C6.37109 15.5145 6.13489 15.5145 5.94422 15.4035C5.75356 15.2954 5.63688 15.0933 5.63404 14.8742V9.39898C5.63688 9.05748 5.91861 8.78429 6.2601 8.78714C6.3654 8.78714 6.47069 8.81559 6.56175 8.86966L11.3426 11.6044ZM20.7621 18.2493V5.75071C20.7621 4.86853 20.5657 4.23961 20.1531 3.83267C19.7405 3.42573 19.1059 3.22652 18.2151 3.22652H11.9061C11.0239 3.22652 10.3865 3.43142 9.96813 3.8469C9.55549 4.26238 9.35914 4.8856 9.35914 5.75071V6.25726C12.3358 6.67274 14.0433 8.57655 14.0433 12.1394C14.0433 15.6938 12.3443 17.5891 9.36767 18.0131V18.6192C9.41036 19.2965 9.60672 19.8201 9.96813 20.1787C10.3808 20.58 11.0154 20.7763 11.9061 20.7763H18.2151C19.1059 20.7763 19.7405 20.58 20.1531 20.1787C20.5657 19.7689 20.7621 19.1429 20.7621 18.2493ZM8.01309 16.8776C11.28 16.8776 12.8054 15.3665 12.8054 12.1394C12.8054 8.90381 11.28 7.39271 8.01309 7.39271C4.7547 7.39271 3.23791 8.90666 3.23791 12.1394C3.23791 15.3665 4.7547 16.8776 8.01309 16.8776ZM21.0353 2.96471C21.687 3.61924 22 4.52419 22 5.75071V18.2493C22 19.4815 21.6784 20.3978 21.0182 21.0438C20.3665 21.6898 19.4502 22 18.2123 22H11.9061C10.6682 22 9.75185 21.6898 9.09163 21.0524C8.50825 20.4718 8.19237 19.6892 8.12692 18.6505V18.0956C8.08423 18.0956 8.05293 18.1042 8.01309 18.1042C4.20831 18.1042 2 16.2003 2 12.1394C2 8.07001 4.21116 6.16619 8.01309 6.16619C8.05578 6.16619 8.08708 6.17473 8.12123 6.17473V5.74787C8.12123 4.53842 8.43426 3.63916 9.09448 2.97894C9.75185 2.31873 10.6682 2 11.9061 2H18.2151C19.453 2 20.3751 2.31873 21.0353 2.96471ZM14.2681 18.8725C14.0831 18.6847 13.9892 18.4257 13.9892 18.1013C13.9892 17.4354 14.3904 17.037 15.0592 17.037C15.7279 17.037 16.1292 17.4354 16.1292 18.1013C16.1292 18.4257 16.0353 18.6847 15.8503 18.8725C15.6625 19.0603 15.3893 19.1628 15.0592 19.1628C14.7291 19.1628 14.4559 19.0632 14.2681 18.8725Z" fill="#86888C"/>
</svg>
