<svg width="20" height="20" viewBox="0 0 20 20" fill="none" xmlns="http://www.w3.org/2000/svg">
<path fill-rule="evenodd" clip-rule="evenodd" d="M11.9929 12.9671C15.2981 12.9671 16.9802 11.2941 16.9802 7.99801C16.9802 4.69284 15.2981 3.01522 11.9952 3.01522C9.8031 3.01522 8.32352 3.75501 7.5769 5.20273H8.41229C9.22037 5.20273 9.81676 5.41215 10.2515 5.84692C10.6772 6.27941 10.8889 6.8758 10.8889 7.6816V12.8966C11.2417 12.9398 11.5991 12.9671 11.9929 12.9671ZM9.86911 15.5211V7.67933C9.86911 7.16034 9.75985 6.79385 9.52995 6.56395C9.30004 6.33404 8.93356 6.21795 8.41002 6.21795H4.4766C3.95988 6.21795 3.6025 6.33177 3.36349 6.57078C3.12676 6.80751 3.0175 7.17172 3.0175 7.67933V15.5211C3.0175 16.0424 3.12676 16.4134 3.36349 16.6456C3.5934 16.8687 3.95988 16.9848 4.4766 16.9848H8.41229C8.92901 16.9848 9.29321 16.8687 9.5254 16.6456C9.76213 16.4134 9.86911 16.0424 9.86911 15.5211ZM11.9929 2C15.8603 2 17.9977 4.13288 17.9977 7.99801C17.9977 11.8563 15.8603 13.9824 11.9929 13.9824C11.6059 13.9824 11.2394 13.955 10.8866 13.9141V15.5211C10.8866 16.3338 10.6772 16.9347 10.2424 17.3626C9.81676 17.7883 9.21127 18 8.41002 18H4.4766C3.67535 18 3.07896 17.7906 2.64419 17.3626C2.21169 16.9347 2 16.3338 2 15.5211V7.67933C2 6.88718 2.21169 6.29307 2.63736 5.86058C3.07668 5.42125 3.67535 5.20273 4.4766 5.20273H6.47062C7.29919 3.11766 9.19989 2 11.9929 2ZM6.44331 14.7586C6.85987 14.7586 7.10798 15.009 7.10798 15.4255C7.10798 15.6304 7.05107 15.792 6.93498 15.9104C6.81889 16.0287 6.64817 16.0925 6.44331 16.0925C6.23844 16.0925 6.06772 16.0287 5.95163 15.9104C5.83554 15.792 5.77863 15.6304 5.77863 15.4255C5.77863 15.0067 6.02675 14.7586 6.44331 14.7586ZM13.493 10.1923L11.8017 8.50562C11.7061 8.41002 11.6514 8.28254 11.6514 8.14597V5.86058C11.6514 5.58059 11.8791 5.35069 12.1613 5.35069C12.4413 5.35069 12.6712 5.57832 12.6712 5.86058V7.93655L14.2145 9.47532C14.4126 9.67108 14.4149 9.99203 14.2191 10.1923C14.1235 10.2902 13.9915 10.3449 13.8549 10.3426C13.7183 10.3403 13.5886 10.2879 13.493 10.1923Z" fill="#86888C"/>
</svg>
