<svg width="40" height="40" viewBox="0 0 40 40" fill="none" xmlns="http://www.w3.org/2000/svg">
<path fill-rule="evenodd" clip-rule="evenodd" d="M10.7695 23.2578L16.0353 20.2459L10.7695 17.2288V23.2578ZM18.8167 19.288C19.1599 19.4878 19.3751 19.8515 19.3751 20.2459C19.3751 20.6403 19.1599 21.004 18.8167 21.2038L10.2112 26.1264C9.86796 26.3261 9.4428 26.3261 9.0996 26.1264C8.7564 25.9317 8.54639 25.568 8.54126 25.1736V15.3182C8.54639 14.7035 9.0535 14.2117 9.66818 14.2168C9.85771 14.2168 10.0472 14.2681 10.2112 14.3654L18.8167 19.288ZM35.7718 31.2487V8.75128C35.7718 7.16335 35.4183 6.0313 34.6756 5.2988C33.9328 4.56631 32.7906 4.20774 31.1873 4.20774H19.831C18.243 4.20774 17.0956 4.57655 16.3426 5.32442C15.5999 6.07228 15.2464 7.19408 15.2464 8.75128V9.66306C20.6044 10.4109 23.6779 13.8378 23.6779 20.251C23.6779 26.6488 20.6198 30.0603 15.2618 30.8236V31.9146C15.3386 33.1338 15.6921 34.0763 16.3426 34.7217C17.0854 35.4439 18.2277 35.7974 19.831 35.7974H31.1873C32.7906 35.7974 33.9328 35.4439 34.6756 34.7217C35.4183 33.9841 35.7718 32.8571 35.7718 31.2487ZM12.8236 28.7797C18.704 28.7797 21.4496 26.0598 21.4496 20.251C21.4496 14.4269 18.704 11.7069 12.8236 11.7069C6.95845 11.7069 4.22823 14.432 4.22823 20.251C4.22823 26.0598 6.95845 28.7797 12.8236 28.7797ZM36.2635 3.73648C37.4365 4.91463 38 6.54354 38 8.75128V31.2487C38 33.4667 37.4212 35.1161 36.2328 36.2789C35.0598 37.4417 33.4104 38 31.1821 38H19.831C17.6027 38 15.9533 37.4417 14.7649 36.2943C13.7149 35.2493 13.1463 33.8406 13.0285 31.971V30.9721C12.9516 30.9721 12.8953 30.9875 12.8236 30.9875C5.97496 30.9875 2 27.5606 2 20.251C2 12.926 5.98008 9.49915 12.8236 9.49915C12.9004 9.49915 12.9567 9.51451 13.0182 9.51451V8.74616C13.0182 6.56915 13.5817 4.95048 14.7701 3.76209C15.9533 2.57371 17.6027 2 19.831 2H31.1873C33.4155 2 35.0751 2.57371 36.2635 3.73648ZM24.0825 32.3705C23.7496 32.0324 23.5805 31.5663 23.5805 30.9824C23.5805 29.7837 24.3028 29.0666 25.5065 29.0666C26.7103 29.0666 27.4326 29.7837 27.4326 30.9824C27.4326 31.5663 27.2635 32.0324 26.9306 32.3705C26.5925 32.7086 26.1007 32.893 25.5065 32.893C24.9123 32.893 24.4206 32.7137 24.0825 32.3705Z" fill="#86888C"/>
</svg>
