<svg width="40" height="40" viewBox="0 0 40 40" fill="none" xmlns="http://www.w3.org/2000/svg">
<path fill-rule="evenodd" clip-rule="evenodd" d="M13.9886 26.0302C14.7262 26.0302 15.2385 26.5373 15.2385 27.2339C15.2385 28.0023 14.7365 28.494 14.0194 28.494C13.2715 28.494 12.7695 28.0074 12.7695 27.3056V27.239C12.7695 26.5373 13.2817 26.0302 13.9886 26.0302ZM17.0211 15.3603C17.856 15.9647 18.2453 16.7997 18.2453 17.9829C18.2453 19.3916 17.646 20.2521 16.3654 21.753C14.9414 23.387 14.9414 23.387 14.9414 24.8162C14.9414 25.2208 14.6084 25.5487 14.1986 25.5487H13.7223C13.3688 25.5487 13.0666 25.3028 12.9949 24.9545C12.9488 24.7137 12.9232 24.4678 12.9283 24.222C12.9283 22.9772 13.3791 22.2191 14.3318 21.0871L14.5111 20.8771C16.0376 19.0894 16.2373 18.6744 16.2373 17.9676C16.2373 17.4656 16.1093 17.1685 15.7763 16.9021C15.5868 16.7484 15.2385 16.5743 14.214 16.5743C13.6352 16.5743 13.1178 16.6409 12.498 16.7997C12.0933 16.897 11.6887 16.646 11.5913 16.2464C11.5913 16.2413 11.5862 16.2311 11.5862 16.226L11.5145 15.8623C11.453 15.5293 11.6221 15.2015 11.9294 15.0581C12.4417 14.8173 13.5174 14.638 14.4291 14.638C15.51 14.6329 16.3808 14.8788 17.0211 15.3603ZM37.7718 32.2385V9.74616C37.7718 8.15822 37.4183 7.02618 36.6756 6.30905C35.9328 5.56118 34.7906 5.20262 33.1873 5.20262H21.8361C20.2482 5.20262 19.1059 5.57143 18.3478 6.31929C17.605 7.06716 17.2516 8.18896 17.2516 9.74616V10.6733C22.6096 11.4058 25.6779 14.8327 25.6779 21.2408C25.6779 27.6335 22.6198 31.0603 17.2618 31.8082V32.8941C17.3386 34.1286 17.6921 35.0711 18.3426 35.7012C19.0854 36.4337 20.2277 36.7923 21.831 36.7923H33.1821C34.7854 36.7923 35.9277 36.4388 36.6705 35.7012C37.4183 34.9841 37.7718 33.8571 37.7718 32.2385ZM14.8338 29.7695C20.7092 29.7695 23.4548 27.0649 23.4548 21.2459C23.4548 15.4269 20.7092 12.7223 14.8338 12.7223C8.97382 12.7223 6.22823 15.4269 6.22823 21.2459C6.22823 27.0649 8.9687 29.7695 14.8338 29.7695ZM38.2481 4.75185C39.4365 5.91463 40 7.55891 40 9.74616V32.2385C40 34.4718 39.4212 36.1212 38.2328 37.2789C37.0598 38.4263 35.4104 39 33.1873 39H21.8361C19.6079 39 17.9636 38.4263 16.7752 37.2789C15.72 36.2339 15.1565 34.8253 15.0387 32.9761V31.9772H14.8287C7.99545 31.9721 4 28.5504 4 21.2408C4 13.9363 7.99545 10.5145 14.8338 10.5145H15.0285V9.74616C15.0285 7.58452 15.5919 5.95561 16.7752 4.77746C17.9636 3.58907 19.613 3 21.8361 3H33.1873C35.4155 3 37.0751 3.57371 38.2481 4.75185ZM27.5065 30.0615C28.7205 30.0615 29.4377 30.7684 29.4377 31.9721C29.4377 32.5561 29.2738 33.0273 28.9306 33.35C28.5874 33.7035 28.0956 33.8776 27.5065 33.8776C26.9123 33.8776 26.4257 33.7035 26.0825 33.35C25.7547 33.0273 25.5959 32.5561 25.5959 31.9721C25.5908 30.7684 26.3028 30.0615 27.5065 30.0615Z" fill="#86888C"/>
</svg>
