<svg width="28" height="28" viewBox="0 0 28 28" fill="none" xmlns="http://www.w3.org/2000/svg">
<path fill-rule="evenodd" clip-rule="evenodd" d="M8.65908 17.3534C9.15083 17.3534 9.49232 17.6915 9.49232 18.1559C9.49232 18.6682 9.15766 18.996 8.67957 18.996C8.18099 18.996 7.84633 18.6716 7.84633 18.2038V18.1594C7.84633 17.6915 8.18782 17.3534 8.65908 17.3534ZM10.6807 10.2402C11.2373 10.6431 11.4969 11.1998 11.4969 11.9886C11.4969 12.9277 11.0973 13.5014 10.2436 14.502C9.29425 15.5913 9.29425 15.5913 9.29425 16.5441C9.29425 16.8139 9.07228 17.0324 8.79909 17.0324H8.4815C8.24587 17.0324 8.04439 16.8685 7.99659 16.6363C7.96585 16.4758 7.94878 16.3119 7.95219 16.148C7.95219 15.3182 8.2527 14.8127 8.88788 14.0581L9.0074 13.918C10.025 12.7262 10.1582 12.4496 10.1582 11.9784C10.1582 11.6437 10.0729 11.4456 9.85088 11.2681C9.72453 11.1656 9.49232 11.0495 8.80933 11.0495C8.42345 11.0495 8.07854 11.0939 7.66534 11.1998C7.39556 11.2647 7.12578 11.0973 7.0609 10.831C7.0609 10.8275 7.05748 10.8207 7.05748 10.8173L7.00968 10.5748C6.9687 10.3529 7.08139 10.1343 7.28628 10.0387C7.62777 9.8782 8.34491 9.75868 8.95276 9.75868C9.67331 9.75526 10.2538 9.91918 10.6807 10.2402ZM24.5145 21.4923V6.49744C24.5145 5.43882 24.2789 4.68412 23.7837 4.20603C23.2886 3.70746 22.527 3.46841 21.4582 3.46841H13.8907C12.8321 3.46841 12.0706 3.71429 11.5652 4.21286C11.07 4.71144 10.8344 5.45931 10.8344 6.49744V7.11554C14.4064 7.60387 16.4519 9.88845 16.4519 14.1605C16.4519 18.4223 14.4132 20.7069 10.8412 21.2055V21.9294C10.8924 22.7524 11.1281 23.3808 11.5618 23.8008C12.0569 24.2891 12.8184 24.5282 13.8873 24.5282H21.4548C22.5236 24.5282 23.2851 24.2925 23.7803 23.8008C24.2789 23.3227 24.5145 22.5714 24.5145 21.4923ZM9.22254 19.8463C13.1394 19.8463 14.9698 18.0433 14.9698 14.1639C14.9698 10.2846 13.1394 8.4815 9.22254 8.4815C5.31588 8.4815 3.48549 10.2846 3.48549 14.1639C3.48549 18.0433 5.31246 19.8463 9.22254 19.8463ZM24.8321 3.1679C25.6244 3.94308 26 5.03927 26 6.49744V21.4923C26 22.9812 25.6141 24.0808 24.8219 24.8526C24.0398 25.6175 22.9402 26 21.4582 26H13.8907C12.4052 26 11.309 25.6175 10.5168 24.8526C9.81332 24.1559 9.43768 23.2168 9.35913 21.9841V21.3182H9.21912C4.66363 21.3147 2 19.0336 2 14.1605C2 9.29084 4.66363 7.00968 9.22254 7.00968H9.3523V6.49744C9.3523 5.05635 9.72795 3.9704 10.5168 3.18497C11.309 2.39271 12.4087 2 13.8907 2H21.4582C22.9437 2 24.0501 2.38247 24.8321 3.1679ZM17.671 20.041C18.4804 20.041 18.9585 20.5122 18.9585 21.3147C18.9585 21.704 18.8492 22.0182 18.6204 22.2334C18.3916 22.469 18.0637 22.5851 17.671 22.5851C17.2749 22.5851 16.9505 22.469 16.7217 22.2334C16.5031 22.0182 16.3973 21.704 16.3973 21.3147C16.3939 20.5122 16.8685 20.041 17.671 20.041Z" fill="#86888C"/>
</svg>
