<svg width="28" height="28" viewBox="0 0 28 28" fill="none" xmlns="http://www.w3.org/2000/svg">
<path fill-rule="evenodd" clip-rule="evenodd" d="M7.84633 16.1719L11.3569 14.1639L7.84633 12.1525V16.1719ZM13.2112 13.5253C13.44 13.6585 13.5834 13.901 13.5834 14.1639C13.5834 14.4269 13.44 14.6693 13.2112 14.8025L7.4741 18.0842C7.2453 18.2174 6.96187 18.2174 6.73307 18.0842C6.50427 17.9545 6.36426 17.712 6.36084 17.4491V10.8788C6.36426 10.469 6.70233 10.1411 7.11212 10.1446C7.23847 10.1446 7.36483 10.1787 7.4741 10.2436L13.2112 13.5253ZM24.5145 21.4991V6.50085C24.5145 5.44223 24.2789 4.68754 23.7837 4.1992C23.2886 3.71087 22.527 3.47183 21.4582 3.47183H13.8873C12.8287 3.47183 12.0637 3.7177 11.5618 4.21628C11.0666 4.71485 10.831 5.46272 10.831 6.50085V7.10871C14.403 7.60729 16.4519 9.89186 16.4519 14.1673C16.4519 18.4326 14.4132 20.7069 10.8412 21.2157V21.9431C10.8924 22.7558 11.1281 23.3842 11.5618 23.8145C12.0569 24.296 12.8184 24.5316 13.8873 24.5316H21.4582C22.527 24.5316 23.2886 24.296 23.7837 23.8145C24.2789 23.3227 24.5145 22.5714 24.5145 21.4991ZM9.21571 19.8532C13.136 19.8532 14.9664 18.0398 14.9664 14.1673C14.9664 10.2846 13.136 8.47126 9.21571 8.47126C5.30563 8.47126 3.48549 10.288 3.48549 14.1673C3.48549 18.0398 5.30563 19.8532 9.21571 19.8532ZM24.8423 3.15766C25.6244 3.94308 26 5.02903 26 6.50085V21.4991C26 22.9778 25.6141 24.0774 24.8219 24.8526C24.0398 25.6278 22.9402 26 21.4548 26H13.8873C12.4018 26 11.3022 25.6278 10.51 24.8628C9.8099 24.1662 9.43085 23.2271 9.3523 21.9806V21.3147C9.30108 21.3147 9.26352 21.325 9.21571 21.325C4.64997 21.325 2 19.0404 2 14.1673C2 9.28401 4.65339 6.99943 9.21571 6.99943C9.26693 6.99943 9.3045 7.00968 9.34548 7.00968V6.49744C9.34548 5.0461 9.72112 3.96699 10.5134 3.17473C11.3022 2.38247 12.4018 2 13.8873 2H21.4582C22.9437 2 24.0501 2.38247 24.8423 3.15766ZM16.7217 22.247C16.4997 22.0216 16.387 21.7109 16.387 21.3216C16.387 20.5225 16.8685 20.0444 17.671 20.0444C18.4735 20.0444 18.955 20.5225 18.955 21.3216C18.955 21.7109 18.8423 22.0216 18.6204 22.247C18.395 22.4724 18.0672 22.5953 17.671 22.5953C17.2749 22.5953 16.9471 22.4758 16.7217 22.247Z" fill="#86888C"/>
</svg>
