<svg width="28" height="28" viewBox="0 0 28 28" fill="none" xmlns="http://www.w3.org/2000/svg">
<path fill-rule="evenodd" clip-rule="evenodd" d="M24.5145 21.4991V6.50085C24.5145 5.44223 24.2755 4.68754 23.7837 4.1992C23.2886 3.70746 22.527 3.47183 21.4548 3.47183H13.8873C12.8287 3.47183 12.0672 3.71429 11.5652 4.21628C11.07 4.71485 10.8275 5.45931 10.8275 6.50085V7.11212C14.403 7.6107 16.4485 9.89528 16.4485 14.1639C16.4485 18.4326 14.4098 20.7103 10.8378 21.2123V21.9363C10.8924 22.7592 11.1281 23.3876 11.5618 23.811C12.0501 24.2925 12.8116 24.5282 13.8839 24.5282H21.4548C22.527 24.5282 23.2851 24.2925 23.7769 23.811C24.2755 23.3261 24.5145 22.568 24.5145 21.4991ZM9.22254 19.8463C13.1394 19.8463 14.963 18.0398 14.963 14.1605C14.963 10.2812 13.1394 8.47126 9.22254 8.47126C5.30905 8.47126 3.48549 10.2777 3.48549 14.1605C3.48549 18.0398 5.30905 19.8463 9.22254 19.8463ZM24.8355 3.16107C25.6175 3.93967 26 5.03244 26 6.49744V21.4991C26 22.9812 25.6175 24.0808 24.8253 24.856C24.0398 25.6244 22.9368 26 21.4548 26H13.8873C12.4018 26 11.3022 25.6244 10.5202 24.856C9.81673 24.1662 9.43768 23.2237 9.35913 21.9806V21.3113C9.31474 21.3113 9.27035 21.3147 9.22254 21.3147C4.66022 21.3182 2 19.037 2 14.1639C2 9.28742 4.66022 7.00626 9.22254 7.00626C9.26352 7.00626 9.3045 7.00968 9.34548 7.00968V6.50085C9.34548 5.05635 9.72795 3.9704 10.51 3.18497C11.3056 2.38589 12.4087 2 13.8873 2H21.4582C22.9437 2 24.0501 2.37906 24.8355 3.16107ZM17.671 20.041C18.4735 20.041 18.9516 20.5191 18.9516 21.3182C18.9516 21.7075 18.8389 22.0216 18.617 22.2436C18.3916 22.4724 18.0637 22.5919 17.6676 22.5919C17.2715 22.5919 16.9437 22.4724 16.7183 22.2436C16.4963 22.0182 16.3836 21.7075 16.3836 21.3182C16.3904 20.5191 16.8685 20.041 17.671 20.041ZM7.00285 10.708C7.41264 10.708 7.74388 11.0359 7.74388 11.4422V17.1861C7.74388 17.5959 7.40922 17.9237 7.00285 17.9237C6.59647 17.9237 6.26522 17.5959 6.26181 17.1861V11.4456C6.26522 11.0393 6.59647 10.708 7.00285 10.708ZM11.21 10.6875C11.6198 10.6875 11.9511 11.0188 11.9511 11.4217V17.1656C11.9511 17.5754 11.6164 17.9032 11.21 17.9032C10.8036 17.9032 10.4724 17.5754 10.469 17.1656V11.4252C10.469 11.0188 10.8002 10.6875 11.21 10.6875Z" fill="#86888C"/>
</svg>
