<svg width="20" height="20" viewBox="0 0 20 20" fill="none" xmlns="http://www.w3.org/2000/svg">
<path fill-rule="evenodd" clip-rule="evenodd" d="M17.0097 14.9994V5.00057C17.0097 4.29482 16.8503 3.79169 16.5225 3.46614C16.1924 3.1383 15.6847 2.98122 14.9698 2.98122H9.92487C9.21912 2.98122 8.71144 3.14286 8.37678 3.47752C8.04667 3.8099 7.88503 4.3062 7.88503 5.00057V5.40808C10.2686 5.74047 11.6323 7.26352 11.6323 10.1093C11.6323 12.955 10.2732 14.4735 7.89186 14.8082V15.2908C7.92829 15.8395 8.08537 16.2584 8.3745 16.5407C8.70006 16.8617 9.20774 17.0188 9.9226 17.0188H14.9698C15.6847 17.0188 16.1901 16.8617 16.5179 16.5407C16.8503 16.2174 17.0097 15.712 17.0097 14.9994ZM6.81503 13.8976C9.4263 13.8976 10.642 12.6932 10.642 10.107C10.642 7.52077 9.4263 6.31417 6.81503 6.31417C4.20603 6.31417 2.99032 7.5185 2.99032 10.107C2.99032 12.6932 4.20603 13.8976 6.81503 13.8976ZM17.2237 2.77405C17.745 3.29311 18 4.02163 18 4.99829V14.9994C18 15.9875 17.745 16.7205 17.2168 17.2373C16.6932 17.7496 15.9579 18 14.9698 18H9.92487C8.93455 18 8.20148 17.7496 7.68014 17.2373C7.21116 16.7775 6.95845 16.1491 6.90609 15.3204V14.8742C6.87649 14.8742 6.8469 14.8765 6.81503 14.8765C3.77348 14.8788 2 13.358 2 10.1093C2 6.85828 3.77348 5.33751 6.81503 5.33751C6.84235 5.33751 6.86966 5.33978 6.89698 5.33978V5.00057C6.89698 4.03756 7.15196 3.3136 7.67331 2.78998C8.20376 2.25726 8.9391 2 9.92487 2H14.9721C15.9624 2 16.7001 2.2527 17.2237 2.77405ZM12.4474 14.0273C12.9824 14.0273 13.3011 14.346 13.3011 14.8788C13.3011 15.1383 13.226 15.3478 13.078 15.4957C12.9277 15.6483 12.7092 15.7279 12.4451 15.7279C12.181 15.7279 11.9624 15.6483 11.8122 15.4957C11.6642 15.3455 11.5891 15.1383 11.5891 14.8788C11.5936 14.346 11.9124 14.0273 12.4474 14.0273ZM5.33523 7.80535C5.60842 7.80535 5.82925 8.0239 5.82925 8.29482V12.1241C5.82925 12.3973 5.60615 12.6158 5.33523 12.6158C5.06431 12.6158 4.84348 12.3973 4.84121 12.1241V8.2971C4.84348 8.02618 5.06431 7.80535 5.33523 7.80535ZM8.14001 7.79169C8.41321 7.79169 8.63404 8.01252 8.63404 8.28116V12.1104C8.63404 12.3836 8.41093 12.6022 8.14001 12.6022C7.8691 12.6022 7.64826 12.3836 7.64599 12.1104V8.28344C7.64599 8.01252 7.86682 7.79169 8.14001 7.79169Z" fill="#86888C"/>
</svg>
