<svg width="28" height="28" viewBox="0 0 28 28" fill="none" xmlns="http://www.w3.org/2000/svg">
<path d="M17.679 20.6572C18.3818 20.6572 18.8425 21.0293 18.8425 21.8247C18.8425 22.2071 18.7367 22.4905 18.549 22.6851C18.3443 22.8933 18.0475 22.9923 17.679 22.9923C17.3105 22.9923 17.0136 22.8933 16.8089 22.6851C16.6213 22.4939 16.5155 22.2071 16.5155 21.8247C16.5189 21.0259 16.9761 20.6572 17.679 20.6572Z" fill="#86888C"/>
<path d="M22.0429 26H13.2911C10.6264 26 9.33323 24.689 9.33323 21.9886V16.9906H10.698V21.9886C10.698 22.9718 10.8891 23.6444 11.2815 24.0438C11.6739 24.4432 12.329 24.6344 13.2911 24.6344H22.0429C23.0051 24.6344 23.6602 24.4398 24.0526 24.0438C24.445 23.6478 24.636 22.9718 24.636 21.9886V6.01138C24.636 4.1064 23.9093 3.36558 22.0429 3.36558H13.2911C12.329 3.36558 11.6704 3.56358 11.2781 3.96643C10.8857 4.36927 10.698 5.03841 10.698 6.01138V11.8595H9.33323V6.01138C9.33323 4.66287 9.65055 3.68307 10.3022 3.01394C10.9642 2.33115 11.9434 2 13.2911 2H22.0429C24.6702 2 26.0008 3.34851 26.0008 6.01138V21.9886C26.0008 24.689 24.7077 26 22.0429 26Z" fill="#86888C"/>
<path d="M15.3452 6.43471C15.5772 6.43471 15.8092 6.46543 16.0344 6.52347L14.8743 7.68421L15.1098 9.33314L16.7578 9.5687L17.9178 8.40796C18.3 9.82816 17.4572 11.2893 16.0378 11.6683C15.5874 11.7912 15.1098 11.7912 14.6594 11.6683L8.25847 18.0728C8.64062 19.493 7.79785 20.9542 6.37846 21.3366C5.92808 21.4595 5.4504 21.4595 5.00001 21.3366L6.16009 20.1758L5.92466 18.5269L4.27667 18.2913L3.11659 19.4521C2.73445 18.0319 3.57721 16.5707 4.9966 16.1917C5.44699 16.0688 5.92467 16.0688 6.37505 16.1917L12.7725 9.7872C12.3904 8.367 13.2332 6.90583 14.6526 6.52688C14.8812 6.46543 15.1132 6.43471 15.3452 6.43471ZM15.3452 5.41053C13.6665 5.41053 12.1993 6.54737 11.7762 8.1724C11.6705 8.58549 11.6363 9.01223 11.6739 9.43556L6.02702 15.089C5.91443 15.0788 5.79842 15.072 5.68582 15.072C4.00712 15.072 2.53996 16.2088 2.11687 17.8339C1.95992 18.4484 1.95992 19.097 2.1237 19.7115C2.27041 20.2577 2.82998 20.5821 3.3759 20.4353C3.54991 20.3875 3.70687 20.2987 3.83652 20.169L4.63493 19.377L5.01366 19.4316L5.06825 19.8105L4.26985 20.6094C3.87064 21.0088 3.87064 21.6575 4.26985 22.0569C4.39609 22.1832 4.55645 22.2754 4.73047 22.3232C6.69578 22.8489 8.71568 21.6814 9.24454 19.7149C9.35714 19.2916 9.39467 18.8546 9.35372 18.421L15.004 12.7676C15.1166 12.7778 15.2326 12.7846 15.3452 12.7846C17.0239 12.7846 18.4911 11.6512 18.9107 10.0228C19.0677 9.40825 19.0677 8.7596 18.9039 8.14509C18.7572 7.59886 18.1976 7.27454 17.6517 7.42134C17.4777 7.46913 17.3207 7.55789 17.1911 7.68762L16.3927 8.48649L16.0139 8.43186L15.9594 8.05292L16.7578 7.25405C17.157 6.85462 17.1604 6.20597 16.7612 5.80654C16.6349 5.67681 16.4746 5.58464 16.2971 5.54026C15.9866 5.45149 15.6659 5.41053 15.3452 5.41053Z" fill="#86888C"/>
</svg>
