<svg width="20" height="20" viewBox="0 0 20 20" fill="none" xmlns="http://www.w3.org/2000/svg">
<path d="M10.4183 18.3986C8.97139 18.3986 7.84351 18.0226 7.06652 17.2844C6.25535 16.5142 5.84521 15.3681 5.84521 13.8802V10.3712C5.84521 8.88334 6.25535 7.73723 7.06652 6.96708C7.84578 6.22655 8.97367 5.85059 10.4183 5.85059C11.8652 5.85059 12.993 6.22655 13.77 6.9648C14.5812 7.73495 14.9913 8.88106 14.9913 10.369V13.8757C14.9913 15.4182 14.6336 16.5302 13.8953 17.2707C13.1457 18.0295 12.0087 18.3986 10.4183 18.3986ZM10.4183 6.74378C7.9392 6.74378 6.73613 7.93091 6.73613 10.3735V13.8802C6.73613 16.3205 7.94148 17.5077 10.4183 17.5077C11.7581 17.5077 12.69 17.2251 13.2642 16.6464C13.827 16.079 14.1004 15.1744 14.1004 13.8779V10.3712C14.1027 7.92863 12.8973 6.74378 10.4183 6.74378Z" fill="#86888C"/>
<path d="M10.4184 10.6286C10.1723 10.6286 9.9718 10.4281 9.9718 10.182V7.8419C9.9718 7.59582 10.1723 7.39531 10.4184 7.39531C10.6645 7.39531 10.865 7.59582 10.865 7.8419V10.182C10.865 10.4281 10.6645 10.6286 10.4184 10.6286ZM10.4435 6.61832C10.1974 6.61832 9.99687 6.41781 9.99687 6.17172V5.56791C9.99687 5.55196 9.98775 5.31726 9.86927 5.09852C9.728 4.83649 9.49331 4.71573 9.12874 4.71573H7.56793C6.83879 4.71573 6.21447 4.55395 5.76332 4.24862C5.27115 3.91368 5 3.41467 5 2.84503C5 2.59895 5.20051 2.39844 5.4466 2.39844C5.69268 2.39844 5.89319 2.59895 5.89319 2.84503C5.89319 3.56734 6.75904 3.82481 7.57021 3.82481H9.13102C9.83737 3.82481 10.3865 4.14153 10.6759 4.71573C10.8832 5.12359 10.8878 5.52006 10.8878 5.56563V6.17172C10.8878 6.41781 10.6895 6.61832 10.4435 6.61832ZM10.4617 11.9228H10.3751C8.9943 11.9228 7.59983 11.8271 6.23042 11.6403C5.98661 11.6061 5.81572 11.3828 5.8499 11.139C5.88408 10.8952 6.10738 10.7243 6.35118 10.7584C7.67958 10.9407 9.03532 11.0319 10.3774 11.0319H10.4594C11.8038 11.0319 13.1572 10.9407 14.4856 10.7584C14.7294 10.7243 14.955 10.8952 14.9869 11.139C15.0188 11.3828 14.8502 11.6083 14.6064 11.6403C13.2392 11.8271 11.8425 11.9228 10.4617 11.9228Z" fill="#86888C"/>
</svg>
