<svg width="40" height="40" viewBox="0 0 40 40" fill="none" xmlns="http://www.w3.org/2000/svg">
<path d="M20.1922 38.397C16.9367 38.397 14.399 37.5511 12.6508 35.8901C10.8256 34.1572 9.90283 31.5785 9.90283 28.2307V20.3355C9.90283 16.9878 10.8256 14.409 12.6508 12.6762C14.4041 11.01 16.9419 10.1641 20.1922 10.1641C23.4477 10.1641 25.9854 11.01 27.7337 12.671C29.5588 14.4039 30.4816 16.9826 30.4816 20.3304V28.2205C30.4816 31.6913 29.6767 34.1931 28.0156 35.8593C26.3289 37.5665 23.7707 38.397 20.1922 38.397ZM20.1922 12.1737C14.6143 12.1737 11.9074 14.8448 11.9074 20.3407V28.2307C11.9074 33.7215 14.6194 36.3925 20.1922 36.3925C23.2067 36.3925 25.3036 35.7568 26.5955 34.4546C27.8618 33.178 28.477 31.1427 28.477 28.2256V20.3355C28.4822 14.8397 25.7701 12.1737 20.1922 12.1737Z" fill="#86888C"/>
<path d="M20.1914 20.9162C19.6377 20.9162 19.1866 20.4651 19.1866 19.9114V14.6462C19.1866 14.0925 19.6377 13.6414 20.1914 13.6414C20.7451 13.6414 21.1962 14.0925 21.1962 14.6462V19.9114C21.1962 20.4651 20.7451 20.9162 20.1914 20.9162ZM20.2478 11.8932C19.6941 11.8932 19.243 11.442 19.243 10.8883V9.52974C19.243 9.49385 19.2224 8.9658 18.9559 8.47363C18.638 7.88405 18.1099 7.61234 17.2897 7.61234H13.7778C12.1373 7.61234 10.7326 7.24834 9.71746 6.56135C8.61008 5.80772 8 4.68497 8 3.40328C8 2.84959 8.45115 2.39844 9.00484 2.39844C9.55853 2.39844 10.0097 2.84959 10.0097 3.40328C10.0097 5.02846 11.9578 5.60778 13.783 5.60778H17.2948C18.8841 5.60778 20.1196 6.3204 20.7707 7.61234C21.2373 8.53002 21.2475 9.42208 21.2475 9.52461V10.8883C21.2475 11.442 20.8015 11.8932 20.2478 11.8932ZM20.2888 23.8282H20.094C16.9872 23.8282 13.8496 23.6129 10.7684 23.1925C10.2199 23.1156 9.83537 22.6132 9.91228 22.0646C9.98918 21.5161 10.4916 21.1316 11.0402 21.2085C14.0291 21.6186 17.0795 21.8237 20.0991 21.8237H20.2837C23.3085 21.8237 26.3537 21.6186 29.3426 21.2085C29.8912 21.1316 30.3987 21.5161 30.4705 22.0646C30.5423 22.6132 30.1629 23.1207 29.6144 23.1925C26.5383 23.6129 23.3956 23.8282 20.2888 23.8282Z" fill="#86888C"/>
</svg>
