<svg width="28" height="28" viewBox="0 0 28 28" fill="none" xmlns="http://www.w3.org/2000/svg">
<path d="M18.2301 20.2177H6.15929C4.77168 20.2177 3.70619 19.8035 2.99469 18.9929C2.33274 18.2354 2 17.1381 2 15.7292V9.4885C2 8.07965 2.33628 6.9823 2.99469 6.22478C3.70619 5.41062 4.76814 5 6.15929 5H18.9097C20.2973 5 21.3628 5.41416 22.0743 6.22478C22.7363 6.9823 23.069 8.07965 23.069 9.4885V10.2035C23.069 10.5929 22.7504 10.9115 22.3611 10.9115C21.9717 10.9115 21.6531 10.5929 21.6531 10.2035V9.4885C21.6531 8.43363 21.4372 7.64779 21.0053 7.15575C20.5699 6.65664 19.8832 6.41239 18.9097 6.41239H6.15929C5.18584 6.41239 4.49911 6.65664 4.06372 7.15575C3.6354 7.64779 3.41593 8.43363 3.41593 9.4885V15.7292C3.41593 16.7841 3.63186 17.5699 4.06372 18.0619C4.49911 18.5611 5.18584 18.8053 6.15929 18.8053H18.2301C18.6195 18.8053 18.9381 19.1239 18.9381 19.5133C18.9381 19.9027 18.623 20.2177 18.2301 20.2177ZM15.469 23H9.25664C8.86726 23 8.54867 22.6814 8.54867 22.292C8.54867 21.9027 8.86726 21.5841 9.25664 21.5841H15.469C15.8584 21.5841 16.177 21.9027 16.177 22.292C16.177 22.6814 15.8619 23 15.469 23Z" fill="#86888C"/>
<path d="M24.2306 22.9954H20.5208C18.7899 22.9954 17.873 22.0786 17.873 20.3476V12.1458C17.873 10.4396 18.8146 9.49805 20.5208 9.49805H24.2341C25.9651 9.49805 26.8819 10.4149 26.8819 12.1458V20.3476C26.8784 22.0786 25.9651 22.9954 24.2306 22.9954ZM20.5208 10.9104C19.6005 10.9104 19.289 11.2219 19.289 12.1423V20.3441C19.289 20.8184 19.3775 21.1476 19.5509 21.3211C19.7244 21.491 20.05 21.5795 20.5244 21.5795H24.2376C24.712 21.5795 25.0376 21.4945 25.2111 21.3211C25.3846 21.1511 25.473 20.8219 25.473 20.3441V12.1458C25.473 11.2007 25.1863 10.914 24.2412 10.914H20.5208V10.9104Z" fill="#86888C"/>
<path d="M22.3744 19.1777C22.0168 19.1777 21.7832 19.3653 21.7832 19.7724C21.7832 19.9671 21.8363 20.1122 21.9319 20.2078C22.0345 20.314 22.1867 20.3636 22.3744 20.3636C22.562 20.3636 22.7106 20.314 22.8168 20.2078C22.9124 20.1087 22.9655 19.9671 22.9655 19.7724C22.9655 19.3689 22.7319 19.1777 22.3744 19.1777Z" fill="#86888C"/>
<path d="M22.3753 20.7205C22.0142 20.7205 21.7983 20.5789 21.6815 20.4585C21.5682 20.3417 21.4302 20.1293 21.4302 19.7753C21.4302 19.1983 21.8019 18.8267 22.3753 18.8267C22.9488 18.8267 23.3204 19.1983 23.3204 19.7753C23.3204 20.1293 23.1859 20.3417 23.0691 20.4585C22.9523 20.5753 22.7364 20.7205 22.3753 20.7205ZM22.3753 19.5311C22.1912 19.5311 22.1381 19.5842 22.1381 19.7718C22.1381 19.8603 22.1558 19.9275 22.1877 19.9594C22.2196 19.9913 22.2868 20.009 22.3753 20.009C22.4638 20.009 22.5311 19.9913 22.5629 19.9594C22.5948 19.9275 22.6125 19.8603 22.6125 19.7718C22.6125 19.5842 22.5594 19.5311 22.3753 19.5311Z" fill="#86888C"/>
</svg>
