<svg width="20" height="20" viewBox="0 0 20 20" fill="none" xmlns="http://www.w3.org/2000/svg">
<path d="M12.8201 15.1451H4.77286C3.84779 15.1451 3.13746 14.869 2.66313 14.3286C2.22183 13.8236 2 13.092 2 12.1528V7.99233C2 7.0531 2.22419 6.32153 2.66313 5.81652C3.13746 5.27375 3.84543 5 4.77286 5H13.2732C14.1982 5 14.9086 5.27611 15.3829 5.81652C15.8242 6.32153 16.046 7.0531 16.046 7.99233V8.46903C16.046 8.72861 15.8336 8.941 15.574 8.941C15.3145 8.941 15.1021 8.72861 15.1021 8.46903V7.99233C15.1021 7.28909 14.9581 6.76519 14.6702 6.43717C14.3799 6.10442 13.9221 5.94159 13.2732 5.94159H4.77286C4.12389 5.94159 3.66608 6.10442 3.37581 6.43717C3.09027 6.76519 2.94395 7.28909 2.94395 7.99233V12.1528C2.94395 12.856 3.08791 13.3799 3.37581 13.708C3.66608 14.0407 4.12389 14.2035 4.77286 14.2035H12.8201C13.0796 14.2035 13.292 14.4159 13.292 14.6755C13.292 14.9351 13.082 15.1451 12.8201 15.1451ZM10.9794 17H6.83776C6.57817 17 6.36578 16.7876 6.36578 16.528C6.36578 16.2684 6.57817 16.056 6.83776 16.056H10.9794C11.2389 16.056 11.4513 16.2684 11.4513 16.528C11.4513 16.7876 11.2413 17 10.9794 17Z" fill="#86888C"/>
<path d="M16.8204 16.9973H14.3472C13.1932 16.9973 12.582 16.386 12.582 15.2321V9.76421C12.582 8.62675 13.2098 7.99902 14.3472 7.99902H16.8227C17.9767 7.99902 18.5879 8.61023 18.5879 9.76421V15.2321C18.5856 16.386 17.9767 16.9973 16.8204 16.9973ZM14.3472 8.94062C13.7337 8.94062 13.526 9.14829 13.526 9.76186V15.2297C13.526 15.5459 13.585 15.7654 13.7006 15.881C13.8162 15.9943 14.0334 16.0533 14.3496 16.0533H16.8251C17.1413 16.0533 17.3584 15.9967 17.4741 15.881C17.5897 15.7678 17.6487 15.5483 17.6487 15.2297V9.76421C17.6487 9.13413 17.4575 8.94298 16.8275 8.94298H14.3472V8.94062Z" fill="#86888C"/>
<path d="M15.5836 14.4512C15.3452 14.4512 15.1895 14.5762 15.1895 14.8476C15.1895 14.9774 15.2249 15.0742 15.2886 15.1379C15.357 15.2087 15.4585 15.2417 15.5836 15.2417C15.7086 15.2417 15.8077 15.2087 15.8785 15.1379C15.9423 15.0718 15.9777 14.9774 15.9777 14.8476C15.9777 14.5786 15.8219 14.4512 15.5836 14.4512Z" fill="#86888C"/>
<path d="M15.5837 15.4798C15.343 15.4798 15.199 15.3854 15.1212 15.3052C15.0456 15.2273 14.9536 15.0857 14.9536 14.8497C14.9536 14.4651 15.2014 14.2173 15.5837 14.2173C15.966 14.2173 16.2138 14.4651 16.2138 14.8497C16.2138 15.0857 16.1241 15.2273 16.0462 15.3052C15.9684 15.3831 15.8244 15.4798 15.5837 15.4798ZM15.5837 14.6869C15.461 14.6869 15.4256 14.7223 15.4256 14.8474C15.4256 14.9064 15.4374 14.9512 15.4586 14.9724C15.4799 14.9937 15.5247 15.0055 15.5837 15.0055C15.6427 15.0055 15.6875 14.9937 15.7088 14.9724C15.73 14.9512 15.7418 14.9064 15.7418 14.8474C15.7418 14.7223 15.7064 14.6869 15.5837 14.6869Z" fill="#86888C"/>
</svg>
