<svg width="40" height="40" viewBox="0 0 40 40" fill="none" xmlns="http://www.w3.org/2000/svg">
<path d="M25.4435 30.9811H8.00787C6.00354 30.9811 4.4645 30.3829 3.43677 29.212C2.48063 28.1178 2 26.5327 2 24.4977V15.4834C2 13.4484 2.48574 11.8633 3.43677 10.7691C4.4645 9.59312 5.99843 9 8.00787 9H26.4252C28.4295 9 29.9685 9.59823 30.9963 10.7691C31.9524 11.8633 32.433 13.4484 32.433 15.4834V16.5162C32.433 17.0787 31.9729 17.5388 31.4104 17.5388C30.848 17.5388 30.3878 17.0787 30.3878 16.5162V15.4834C30.3878 13.9597 30.0759 12.8246 29.4521 12.1139C28.8232 11.3929 27.8313 11.0401 26.4252 11.0401H8.00787C6.60177 11.0401 5.60983 11.3929 4.98092 12.1139C4.36224 12.8246 4.04523 13.9597 4.04523 15.4834V24.4977C4.04523 26.0214 4.35713 27.1565 4.98092 27.8673C5.60983 28.5882 6.60177 28.941 8.00787 28.941H25.4435C26.0059 28.941 26.4661 29.4012 26.4661 29.9636C26.4661 30.5261 26.011 30.9811 25.4435 30.9811ZM21.4553 35H12.4818C11.9194 35 11.4592 34.5398 11.4592 33.9774C11.4592 33.4149 11.9194 32.9548 12.4818 32.9548H21.4553C22.0177 32.9548 22.4779 33.4149 22.4779 33.9774C22.4779 34.5398 22.0228 35 21.4553 35Z" fill="#86888C"/>
<path d="M34.1108 34.9942H28.7523C26.252 34.9942 24.9277 33.6699 24.9277 31.1696V19.3226C24.9277 16.8581 26.2878 15.498 28.7523 15.498H34.1159C36.6162 15.498 37.9405 16.8223 37.9405 19.3226V31.1696C37.9354 33.6699 36.6162 34.9942 34.1108 34.9942ZM28.7523 17.5382C27.4229 17.5382 26.973 17.9881 26.973 19.3175V31.1645C26.973 31.8497 27.1008 32.3252 27.3513 32.5757C27.6019 32.8212 28.0723 32.949 28.7574 32.949H34.121C34.8062 32.949 35.2766 32.8263 35.5271 32.5757C35.7777 32.3303 35.9055 31.8548 35.9055 31.1645V19.3226C35.9055 17.9574 35.4914 17.5433 34.1262 17.5433H28.7523V17.5382Z" fill="#86888C"/>
<path d="M31.4301 29.4785C30.9136 29.4785 30.5762 29.7495 30.5762 30.3375C30.5762 30.6187 30.6529 30.8284 30.7909 30.9664C30.9392 31.1198 31.1591 31.1914 31.4301 31.1914C31.701 31.1914 31.9158 31.1198 32.0692 30.9664C32.2072 30.8233 32.2839 30.6187 32.2839 30.3375C32.2839 29.7546 31.9465 29.4785 31.4301 29.4785Z" fill="#86888C"/>
<path d="M31.4311 31.7067C30.9096 31.7067 30.5977 31.5022 30.4289 31.3283C30.2653 31.1596 30.0659 30.8528 30.0659 30.3415C30.0659 29.5081 30.6028 28.9712 31.4311 28.9712C32.2594 28.9712 32.7963 29.5081 32.7963 30.3415C32.7963 30.8528 32.602 31.1596 32.4333 31.3283C32.2645 31.4971 31.9526 31.7067 31.4311 31.7067ZM31.4311 29.9887C31.1652 29.9887 31.0885 30.0654 31.0885 30.3364C31.0885 30.4642 31.1141 30.5614 31.1601 30.6074C31.2061 30.6534 31.3033 30.679 31.4311 30.679C31.5589 30.679 31.6561 30.6534 31.7021 30.6074C31.7481 30.5614 31.7737 30.4642 31.7737 30.3364C31.7737 30.0654 31.697 29.9887 31.4311 29.9887Z" fill="#86888C"/>
</svg>
