<svg width="28" height="28" viewBox="0 0 28 28" fill="none" xmlns="http://www.w3.org/2000/svg">
<path fill-rule="evenodd" clip-rule="evenodd" d="M20.14 21.0175H21.5676V11.4441H20.14V21.0175ZM3.56167 24.6002H24.4468V22.5203H3.56167V24.6002ZM6.47842 21.0175H7.90605V11.4441H6.47842V21.0175ZM13.3058 21.0175H14.7334V11.4441H13.3058V21.0175ZM9.40541 21.0175H11.8133V11.4441H9.40541V21.0175ZM16.2328 21.0175H18.6406V11.4441H16.2328V21.0175ZM14.0025 3.76632L22.8655 9.94136H22.3259C22.3224 9.94136 22.319 9.93795 22.3156 9.93795C22.3122 9.93795 22.3088 9.94136 22.3054 9.94136H19.3989C19.3954 9.94136 19.392 9.93795 19.3886 9.93795C19.3852 9.93795 19.3818 9.94136 19.3784 9.94136H15.4951C15.4917 9.94136 15.4882 9.93795 15.4848 9.93795C15.4814 9.93795 15.478 9.94136 15.4746 9.94136H12.5681C12.5647 9.94136 12.5612 9.93795 12.5578 9.93795C12.5544 9.93795 12.551 9.94136 12.5476 9.94136H8.66427C8.66086 9.94136 8.65744 9.93795 8.65402 9.93795C8.65061 9.93795 8.64719 9.94136 8.64378 9.94136H5.73727C5.73386 9.94136 5.73044 9.93795 5.72703 9.93795C5.72361 9.93795 5.72361 9.94136 5.71678 9.94136H5.13958L14.0025 3.76632ZM25.2563 11.4441C25.5842 11.4441 25.8745 11.2324 25.9701 10.9182C26.0657 10.6039 25.9496 10.2658 25.6832 10.0746L14.4295 2.23281C14.1733 2.05521 13.8352 2.05521 13.5756 2.23281L2.32188 10.0746C2.05206 10.2624 1.93594 10.6039 2.03498 10.9148C2.13403 11.229 2.42092 11.4407 2.7488 11.4407H4.97906V21.0141H2.81028C2.39702 21.0141 2.06231 21.3522 2.06231 21.7655V25.3482C2.06231 25.7615 2.39702 26.0996 2.81028 26.0996H25.1914C25.6046 26.0996 25.9394 25.7615 25.9394 25.3482V21.7655C25.9394 21.3522 25.6046 21.0141 25.1914 21.0141H23.0636V11.4407H25.2563V11.4441Z" fill="#86888C"/>
</svg>
