<svg width="24" height="24" viewBox="0 0 24 24" fill="none" xmlns="http://www.w3.org/2000/svg">
<path fill-rule="evenodd" clip-rule="evenodd" d="M17.1167 17.8645H18.3064V9.88672H17.1167V17.8645ZM3.30139 20.8501H20.7057V19.1168H3.30139V20.8501ZM5.73201 17.8645H6.92171V9.88672H5.73201V17.8645ZM11.4215 17.8645H12.6112V9.88672H11.4215V17.8645ZM8.17118 17.8645H10.1777V9.88672H8.17118V17.8645ZM13.8607 17.8645H15.8672V9.88672H13.8607V17.8645ZM12.0021 3.48854L19.3879 8.6344H18.9382C18.9354 8.6344 18.9325 8.63156 18.9297 8.63156C18.9268 8.63156 18.924 8.6344 18.9211 8.6344H16.4991C16.4962 8.6344 16.4934 8.63156 16.4905 8.63156C16.4877 8.63156 16.4848 8.6344 16.482 8.6344H13.2459C13.243 8.6344 13.2402 8.63156 13.2373 8.63156C13.2345 8.63156 13.2317 8.6344 13.2288 8.6344H10.8067C10.8039 8.6344 10.801 8.63156 10.7982 8.63156C10.7953 8.63156 10.7925 8.6344 10.7896 8.6344H7.55356C7.55071 8.6344 7.54787 8.63156 7.54502 8.63156C7.54217 8.63156 7.53933 8.6344 7.53648 8.6344H5.1144C5.11155 8.6344 5.1087 8.63156 5.10586 8.63156C5.10301 8.63156 5.10301 8.6344 5.09732 8.6344H4.61632L12.0021 3.48854ZM21.3802 9.88672C21.6535 9.88672 21.8954 9.71025 21.9751 9.44841C22.0548 9.18656 21.958 8.90479 21.736 8.7454L12.3579 2.21061C12.1444 2.06261 11.8627 2.06261 11.6463 2.21061L2.26823 8.7454C2.04338 8.90194 1.94661 9.18656 2.02915 9.44556C2.11169 9.70741 2.35077 9.88387 2.624 9.88387H4.48255V17.8617H2.67523C2.33085 17.8617 2.05192 18.1434 2.05192 18.4878V21.4735C2.05192 21.8178 2.33085 22.0996 2.67523 22.0996H21.3262C21.6705 22.0996 21.9495 21.8178 21.9495 21.4735V18.4878C21.9495 18.1434 21.6705 17.8617 21.3262 17.8617H19.553V9.88387H21.3802V9.88672Z" fill="#86888C"/>
</svg>
