<svg width="20" height="20" viewBox="0 0 20 20" fill="none" xmlns="http://www.w3.org/2000/svg">
<path fill-rule="evenodd" clip-rule="evenodd" d="M14.2403 16.9666L14.0468 16.9688C13.4072 16.9597 12.3373 16.7162 12.3373 15.1774C12.3373 13.6455 13.3935 13.4065 14.024 13.3996L14.2312 13.4019C14.8754 13.4178 15.9566 13.6705 15.9566 15.1888C15.9543 16.7093 14.8822 16.9552 14.2403 16.9666ZM8.69981 4.28539V3.09262L15.9543 5.03201V6.22478L8.69981 4.28539ZM5.95006 13.5954C5.89088 13.5977 5.82259 13.5977 5.7543 13.5954C5.11467 13.5863 4.04481 13.3404 4.04481 11.804C4.04481 10.2697 5.10556 10.0307 5.73609 10.0262L5.93868 10.0285C6.57149 10.0421 7.62313 10.2948 7.65728 11.7516V11.8836C7.62313 13.3382 6.58059 13.5817 5.95006 13.5954ZM16.9991 4.89088C16.9991 4.44473 16.6509 4.07597 16.2093 4.03272L8.66795 2.01821L8.53137 2C8.0488 2 7.65728 2.38697 7.65728 2.86271V9.55271C7.15194 9.18623 6.53962 9.01323 5.96145 8.99957C5.8886 8.9973 5.79983 8.9973 5.72471 8.9973C4.4682 9.0064 3 9.74847 3 11.804C3 13.8572 4.47503 14.6061 5.73609 14.6243H5.96827C7.17926 14.6015 8.56779 13.9004 8.68388 12.0543H8.69981V11.8836C8.69981 11.8609 8.70664 11.8404 8.70664 11.8176C8.70664 11.7948 8.69981 11.7766 8.69981 11.7539V5.35297L15.9543 7.29236V12.9307C15.4467 12.562 14.8321 12.3867 14.2539 12.373L14.0172 12.3707C12.7607 12.3799 11.2925 13.1219 11.2925 15.1774C11.2925 17.2306 12.7675 17.9818 14.0331 18H14.0969L14.2608 17.9977C15.5241 17.975 16.9969 17.2261 16.9969 15.1911C16.9969 15.1501 16.9878 15.1182 16.9855 15.0795H16.9969V4.89088H16.9991Z" fill="#86888C"/>
</svg>
