<svg width="40" height="40" viewBox="0 0 40 40" fill="none" xmlns="http://www.w3.org/2000/svg">
<path d="M27.2638 32C27.1053 32 26.9416 31.9744 26.783 31.9284L3.28916 24.8541C2.56792 24.6342 2.06152 23.9334 2.06152 23.1508V16.849C2.06152 16.0561 2.55258 15.3758 3.28404 15.1456H3.28916L26.783 8.07137C27.2843 7.91792 27.8214 8.0151 28.2459 8.33224C28.6961 8.66473 28.962 9.20182 28.962 9.77471V30.2302C28.962 30.7979 28.6961 31.3401 28.251 31.6675C27.9544 31.8875 27.6117 32 27.2638 32ZM4.01551 23.0332L27.0081 29.9591V10.0458L4.01551 16.9666V23.0332Z" fill="#86888C"/>
<path d="M2.97699 25.8005C2.43479 25.8005 2 25.3606 2 24.8235V15.1764C2 14.6342 2.4399 14.1994 2.97699 14.1994C3.51408 14.1994 3.95398 14.6393 3.95398 15.1764V24.8235C3.95398 25.3658 3.5192 25.8005 2.97699 25.8005ZM36.962 20.5729H32.9722C32.4197 20.5729 31.9747 20.1278 31.9747 19.5754C31.9747 19.023 32.4197 18.578 32.9722 18.578H36.962C37.5144 18.578 37.9594 19.023 37.9594 19.5754C37.9594 20.1278 37.5144 20.5729 36.962 20.5729ZM15.0283 31.1356C14.8799 31.1356 14.7265 31.1152 14.5781 31.064L10.4349 29.7648C9.64714 29.5192 9.20723 28.6752 9.45276 27.8875L9.88243 26.5218C10.128 25.734 10.972 25.2941 11.7597 25.5397L15.903 26.8389C16.2866 26.9566 16.5986 27.2174 16.7828 27.5755C16.9669 27.9284 17.0027 28.3377 16.8851 28.7162L16.4554 30.0819C16.3377 30.4655 16.0769 30.7776 15.7188 30.9617C15.504 31.0794 15.2687 31.1356 15.0283 31.1356ZM11.509 28.0154L14.7009 29.018L14.8288 28.6088L11.6369 27.6062L11.509 28.0154ZM35.6576 30.7827C35.4019 30.7827 35.1461 30.6855 34.9517 30.4911L32.1998 27.7392C31.811 27.3504 31.811 26.7162 32.1998 26.3274C32.5885 25.9386 33.2228 25.9386 33.6116 26.3274L36.3635 29.0793C36.7523 29.4681 36.7523 30.1024 36.3635 30.4911C36.1691 30.6855 35.9134 30.7827 35.6576 30.7827ZM32.8494 13.069C32.5937 13.069 32.3379 12.9718 32.1435 12.7774C31.7548 12.3886 31.7548 11.7544 32.1435 11.3656L34.9671 8.54205C35.3558 8.1533 35.9901 8.1533 36.3789 8.54205C36.7676 8.9308 36.7676 9.56508 36.3789 9.95383L33.5553 12.7774C33.3609 12.9718 33.1052 13.069 32.8494 13.069Z" fill="#86888C"/>
</svg>
