<svg width="20" height="20" viewBox="0 0 20 20" fill="none" xmlns="http://www.w3.org/2000/svg">
<path d="M13.5789 15C13.5062 15 13.4312 14.9883 13.3585 14.9672L2.5905 11.7248C2.25993 11.624 2.02783 11.3028 2.02783 10.9441V8.05577C2.02783 7.69238 2.2529 7.38057 2.58815 7.27507H2.5905L13.3585 4.03271C13.5883 3.96238 13.8344 4.00692 14.029 4.15228C14.2353 4.30467 14.3572 4.55083 14.3572 4.81341V14.1888C14.3572 14.4491 14.2353 14.6976 14.0314 14.8476C13.8954 14.9484 13.7383 15 13.5789 15ZM2.92341 10.8902L13.4617 14.0646V4.93766L2.92341 8.10969V10.8902Z" fill="#86888C"/>
<path d="M2.44779 12.1585C2.19928 12.1585 2 11.9569 2 11.7107V7.28912C2 7.04061 2.20162 6.84133 2.44779 6.84133C2.69395 6.84133 2.89558 7.04295 2.89558 7.28912V11.7107C2.89558 11.9592 2.6963 12.1585 2.44779 12.1585ZM18.0242 9.7625H16.1956C15.9424 9.7625 15.7384 9.55854 15.7384 9.30534C15.7384 9.05214 15.9424 8.84817 16.1956 8.84817H18.0242C18.2774 8.84817 18.4814 9.05214 18.4814 9.30534C18.4814 9.55854 18.2774 9.7625 18.0242 9.7625ZM7.97129 14.6038C7.9033 14.6038 7.83297 14.5944 7.76498 14.5709L5.86598 13.9755C5.50494 13.8629 5.30332 13.4761 5.41585 13.1151L5.61278 12.4891C5.72532 12.128 6.11215 11.9264 6.47319 12.039L8.37219 12.6344C8.54802 12.6884 8.69103 12.8079 8.77543 12.972C8.85983 13.1338 8.87624 13.3214 8.82232 13.4948L8.62539 14.1208C8.57147 14.2966 8.4519 14.4397 8.28779 14.5241C8.18932 14.578 8.08148 14.6038 7.97129 14.6038ZM6.35831 13.1737L7.82124 13.6332L7.87986 13.4456L6.41692 12.9861L6.35831 13.1737ZM17.4264 14.442C17.3092 14.442 17.192 14.3975 17.1029 14.3084L15.8416 13.0471C15.6634 12.8689 15.6634 12.5782 15.8416 12.4C16.0198 12.2218 16.3105 12.2218 16.4886 12.4L17.7499 13.6613C17.9281 13.8395 17.9281 14.1302 17.7499 14.3084C17.6609 14.3975 17.5436 14.442 17.4264 14.442ZM16.1393 6.32321C16.0221 6.32321 15.9049 6.27866 15.8158 6.18957C15.6376 6.0114 15.6376 5.72069 15.8158 5.54251L17.1099 4.24838C17.2881 4.0702 17.5788 4.0702 17.757 4.24838C17.9352 4.42656 17.9352 4.71727 17.757 4.89544L16.4629 6.18957C16.3738 6.27866 16.2565 6.32321 16.1393 6.32321Z" fill="#86888C"/>
</svg>
