<svg width="28" height="28" viewBox="0 0 28 28" fill="none" xmlns="http://www.w3.org/2000/svg">
<path d="M18.8426 22C18.7368 22 18.6277 21.983 18.522 21.9523L2.85944 17.2361C2.37861 17.0895 2.04102 16.6223 2.04102 16.1005V11.8993C2.04102 11.3707 2.36838 10.9172 2.85603 10.7637H2.85944L18.522 6.04758C18.8562 5.94528 19.2142 6.01007 19.4973 6.22149C19.7974 6.44315 19.9747 6.80121 19.9747 7.18314V20.8201C19.9747 21.1986 19.7974 21.5601 19.5007 21.7783C19.3029 21.925 19.0744 22 18.8426 22ZM3.34367 16.0221L18.672 20.6394V7.36388L3.34367 11.9777V16.0221Z" fill="#86888C"/>
<path d="M2.65133 17.867C2.28986 17.867 2 17.5738 2 17.2157V10.7843C2 10.4228 2.29327 10.1329 2.65133 10.1329C3.00939 10.1329 3.30266 10.4262 3.30266 10.7843V17.2157C3.30266 17.5772 3.0128 17.867 2.65133 17.867ZM25.308 14.3819H22.6481C22.2798 14.3819 21.9832 14.0852 21.9832 13.7169C21.9832 13.3486 22.2798 13.052 22.6481 13.052H25.308C25.6763 13.052 25.973 13.3486 25.973 13.7169C25.973 14.0852 25.6763 14.3819 25.308 14.3819ZM10.6855 21.4238C10.5866 21.4238 10.4843 21.4101 10.3854 21.376L7.62325 20.5098C7.09809 20.3462 6.80482 19.7835 6.96851 19.2583L7.25496 18.3478C7.41864 17.8227 7.98131 17.5294 8.50646 17.6931L11.2686 18.5593C11.5244 18.6377 11.7324 18.8116 11.8552 19.0503C11.9779 19.2856 12.0018 19.5584 11.9234 19.8108L11.6369 20.7213C11.5585 20.977 11.3846 21.185 11.1459 21.3078C11.0026 21.3862 10.8458 21.4238 10.6855 21.4238ZM8.33937 19.3436L10.4673 20.012L10.5525 19.7392L8.42462 19.0708L8.33937 19.3436ZM24.4384 21.1885C24.2679 21.1885 24.0974 21.1237 23.9678 20.9941L22.1332 19.1594C21.874 18.9003 21.874 18.4774 22.1332 18.2183C22.3924 17.9591 22.8152 17.9591 23.0744 18.2183L24.909 20.0529C25.1682 20.3121 25.1682 20.7349 24.909 20.9941C24.7794 21.1237 24.6089 21.1885 24.4384 21.1885ZM22.5663 9.3793C22.3958 9.3793 22.2253 9.31451 22.0957 9.18492C21.8365 8.92576 21.8365 8.50291 22.0957 8.24374L23.9781 6.36137C24.2372 6.1022 24.6601 6.1022 24.9192 6.36137C25.1784 6.62053 25.1784 7.04339 24.9192 7.30255L23.0369 9.18492C22.9073 9.31451 22.7368 9.3793 22.5663 9.3793Z" fill="#86888C"/>
</svg>
