<svg width="28" height="28" viewBox="0 0 28 28" fill="none" xmlns="http://www.w3.org/2000/svg">
<path fill-rule="evenodd" clip-rule="evenodd" d="M13.2419 3.60559C10.6978 3.68413 3.50939 4.74617 3.50939 14.0689C3.50939 23.6853 11.1895 24.5629 13.5458 24.6005C13.8736 24.6005 14.239 24.6005 14.5464 24.5902C15.8748 24.5663 19.8532 24.2385 22.3734 21.2436C21.226 21.5612 20.1947 21.6432 19.5424 21.6568C19.3034 21.6671 18.9892 21.6671 18.6989 21.6671C14.1468 21.5953 9.29767 18.9829 9.29767 11.856C9.29425 7.32442 11.1861 4.89984 13.2419 3.60559ZM13.5287 26.0996C7.94878 26.004 2 22.7974 2 14.0689C2 5.35061 7.91121 2.17132 13.4434 2.09961L14.5157 2.10985C14.922 2.11668 15.7211 2.15766 16.7046 2.33865C17.0598 2.40354 17.3159 2.70746 17.3227 3.06603C17.3261 3.4246 17.0803 3.73535 16.7285 3.81048C14.0239 4.3876 10.8002 6.25214 10.8002 11.8594C10.8002 19.4576 16.8549 20.1406 18.7057 20.1713C18.9653 20.1713 19.2556 20.1713 19.4946 20.1645C20.4269 20.144 22.2163 19.9664 23.8759 19.0239C24.1594 18.86 24.5179 18.9044 24.757 19.1229C24.9994 19.3415 25.0677 19.6932 24.9311 19.9903C22.3631 25.5396 16.3563 26.0655 14.5771 26.0962C14.2698 26.0996 13.8873 26.0996 13.5287 26.0996Z" fill="#86888C"/>
</svg>
