<svg width="24" height="24" viewBox="0 0 24 24" fill="none" xmlns="http://www.w3.org/2000/svg">
<path fill-rule="evenodd" clip-rule="evenodd" d="M17.7934 20.5999V8.9778H15.4741C14.4582 8.9778 13.5902 8.642 12.9385 8.00455C12.2954 7.37279 11.9482 6.4963 11.9482 5.4889V3.22937H5.40011C5.32897 3.22937 5.21514 3.3432 5.2066 3.40011V20.5999C5.2066 20.6568 5.30336 20.7735 5.40011 20.7735H17.5914C17.6966 20.7706 17.7934 20.6739 17.7934 20.5999ZM17.2954 7.74844L13.1577 3.679V5.4889C13.1577 6.15196 13.3739 6.72681 13.7866 7.12806C14.1964 7.52931 14.7854 7.75128 15.4769 7.75128H17.2954V7.74844ZM18.7353 7.46386C18.9032 7.62607 19 7.85657 19 8.09277V20.5999C19 21.3625 18.3569 22 17.5914 22H5.40011C4.65168 22 4 21.3426 4 20.5999V3.40011C4 2.6716 4.66875 2 5.40011 2H12.8247C13.0581 2 13.2743 2.08822 13.4365 2.25327L18.7353 7.46386ZM15.4172 13.4826C15.6022 13.2948 15.6989 13.0814 15.6989 12.8367C15.6989 12.5919 15.5936 12.3301 15.4172 12.1565C15.2493 11.9858 15.0216 11.8776 14.7883 11.8691C14.6033 11.852 14.3443 11.9032 14.1024 12.148C13.8435 12.4098 9.92487 15.9328 9.52931 16.2829L8.86909 18.2806L10.8896 17.5777C13.5731 15.1616 15.2664 13.6306 15.4172 13.4826ZM16.2709 11.28C16.6722 11.6898 16.9084 12.2703 16.9084 12.8367C16.9084 13.4172 16.6836 13.9437 16.2624 14.3591C16.0461 14.5726 13.6614 16.7268 11.6978 18.494L11.6266 18.5595C11.5128 18.6591 11.3933 18.7302 11.2567 18.7729L8.96016 19.5498C8.84917 19.584 8.73534 19.5982 8.63005 19.5982C8.59875 19.5982 8.5646 19.5982 8.54183 19.5896C8.52476 19.5982 8.51053 19.5982 8.49345 19.5982H7.00512C6.67501 19.5982 6.40182 19.3193 6.40182 18.9835C6.40182 18.6477 6.67501 18.3688 7.00512 18.3688H7.59419C7.60273 18.3119 7.61127 18.2464 7.63404 18.1895L7.9243 17.296H7.00512C6.67501 17.296 6.40182 17.0171 6.40182 16.6813C6.40182 16.3369 6.67501 16.0666 7.00512 16.0666H8.32555L8.3967 15.8532C8.46215 15.6739 8.5646 15.5088 8.70404 15.3865L9.13944 14.9937H7.00512C6.67501 14.9937 6.40182 14.7149 6.40182 14.3791C6.40182 14.0347 6.67501 13.7644 7.00512 13.7644H10.5083C10.9437 13.3802 11.3449 13.0102 11.7149 12.683H7.00512C6.67501 12.683 6.40182 12.4126 6.40182 12.0683C6.40182 11.7325 6.67501 11.4536 7.00512 11.4536H13.0666C13.1633 11.354 13.2288 11.2971 13.2516 11.2743C14.202 10.321 15.531 10.5259 16.2709 11.28Z" fill="#86888C"/>
</svg>
