<svg width="20" height="20" viewBox="0 0 20 20" fill="none" xmlns="http://www.w3.org/2000/svg">
<path fill-rule="evenodd" clip-rule="evenodd" d="M15.0347 16.8799V7.58224H13.1793C12.3665 7.58224 11.6722 7.3136 11.1508 6.80364C10.6363 6.29824 10.3586 5.59704 10.3586 4.79112V2.98349H5.12009C5.06318 2.98349 4.97211 3.07456 4.96528 3.12009V16.8799C4.96528 16.9254 5.04269 17.0188 5.12009 17.0188H14.8731C14.9573 17.0165 15.0347 16.9391 15.0347 16.8799ZM14.6363 6.59875L11.3261 3.3432V4.79112C11.3261 5.32157 11.4991 5.78145 11.8293 6.10245C12.1571 6.42345 12.6283 6.60102 13.1816 6.60102H14.6363V6.59875ZM15.7883 6.37109C15.9226 6.50085 16 6.68526 16 6.87422V16.8799C16 17.49 15.4855 18 14.8731 18H5.12009C4.52134 18 4 17.4741 4 16.8799V3.12009C4 2.53728 4.535 2 5.12009 2H11.0598C11.2464 2 11.4195 2.07057 11.5492 2.20262L15.7883 6.37109ZM13.1338 11.1861C13.2817 11.0359 13.3591 10.8651 13.3591 10.6693C13.3591 10.4735 13.2749 10.2641 13.1338 10.1252C12.9994 9.98862 12.8173 9.90211 12.6306 9.89528C12.4826 9.88162 12.2755 9.9226 12.082 10.1184C11.8748 10.3278 8.7399 13.1463 8.42345 13.4263L7.89528 15.0245L9.51167 14.4622C11.6585 12.5293 13.0131 11.3045 13.1338 11.1861ZM13.8167 9.42402C14.1377 9.75185 14.3267 10.2163 14.3267 10.6693C14.3267 11.1338 14.1468 11.5549 13.8099 11.8873C13.6369 12.0581 11.7291 13.7814 10.1582 15.1952L10.1013 15.2476C10.0102 15.3273 9.91463 15.3842 9.80535 15.4183L7.96813 16.0398C7.87934 16.0672 7.78828 16.0785 7.70404 16.0785C7.679 16.0785 7.65168 16.0785 7.63347 16.0717C7.61981 16.0785 7.60842 16.0785 7.59476 16.0785H6.4041C6.14001 16.0785 5.92146 15.8554 5.92146 15.5868C5.92146 15.3182 6.14001 15.095 6.4041 15.095H6.87536C6.88219 15.0495 6.88902 14.9972 6.90723 14.9516L7.13944 14.2368H6.4041C6.14001 14.2368 5.92146 14.0137 5.92146 13.745C5.92146 13.4696 6.14001 13.2533 6.4041 13.2533H7.46044L7.51736 13.0825C7.56972 12.9391 7.65168 12.8071 7.76323 12.7092L8.11155 12.395H6.4041C6.14001 12.395 5.92146 12.1719 5.92146 11.9032C5.92146 11.6278 6.14001 11.4115 6.4041 11.4115H9.2066C9.55492 11.1042 9.87592 10.8082 10.1719 10.5464H6.4041C6.14001 10.5464 5.92146 10.3301 5.92146 10.0546C5.92146 9.786 6.14001 9.56289 6.4041 9.56289H11.2533C11.3307 9.48321 11.383 9.43768 11.4013 9.41947C12.1616 8.6568 13.2248 8.82072 13.8167 9.42402Z" fill="#86888C"/>
</svg>
