<svg width="21" height="20" viewBox="0 0 21 20" fill="none" xmlns="http://www.w3.org/2000/svg">
<path fill-rule="evenodd" clip-rule="evenodd" d="M4.87638 14.6672C6.08556 12.969 5.95658 10.697 5.94967 10.6105V7.52361C5.94967 6.90213 6.02798 6.34212 6.17768 5.84129L14.2895 14.6672H4.87638ZM11.8021 16.6136C11.5464 16.8868 11.1664 17.0211 10.6413 17.0211C10.1138 17.0211 9.7338 16.8891 9.47814 16.6136C9.21097 16.3268 9.12806 15.9307 9.10503 15.6461H12.1798C12.1544 15.9352 12.0715 16.3268 11.8021 16.6136ZM7.22793 4.11799C8.58221 2.89552 10.5906 3.01162 10.6113 3.01162C10.6343 3.01389 10.6574 3.01389 10.6804 3.01162C10.7011 3.01162 12.7095 2.89552 14.0638 4.11799C14.9114 4.88517 15.342 6.03024 15.342 7.52361L15.3443 10.5787C15.3351 10.6925 15.2062 12.969 16.4176 14.6672H15.6484L6.61989 4.85102C6.79033 4.57784 6.99071 4.33198 7.22793 4.11799ZM17.9377 17.16L16.5443 15.6461H17.5577C17.7719 15.6461 17.9631 15.5164 18.0345 15.3206C18.1059 15.1248 18.0437 14.9063 17.8778 14.7765C16.1988 13.4516 16.3508 10.6674 16.3531 10.6083V7.52361C16.3531 5.7434 15.8119 4.35474 14.7455 3.39634C13.1563 1.96443 10.9614 2.01224 10.6459 2.03273C10.328 2.01452 8.13308 1.96443 6.54389 3.39634C6.31357 3.60578 6.10398 3.84026 5.92433 4.09295L4.15088 2.16476C3.96202 1.96216 3.64649 1.94395 3.4369 2.12379C3.23191 2.2968 3.20888 2.59957 3.38392 2.80218C3.38853 2.80673 3.39083 2.81129 3.39544 2.81356L5.40842 5.00354C5.09979 5.72747 4.93857 6.56749 4.93857 7.52361V10.6401C4.94087 10.6674 5.09288 13.4516 3.41386 14.7765C3.24803 14.9063 3.18585 15.1248 3.25725 15.3206C3.33095 15.5164 3.52211 15.6484 3.73401 15.6461H8.09163C8.11927 16.0878 8.24594 16.7457 8.7204 17.2624C9.17182 17.7541 9.81901 18 10.6436 18C11.4658 18 12.1107 17.7519 12.5644 17.2624C13.0389 16.7479 13.1678 16.09 13.1978 15.6461H15.19L17.18 17.8088C17.2767 17.9135 17.4149 17.975 17.5577 17.9727C17.6775 17.9727 17.7995 17.9317 17.894 17.8498C18.099 17.6767 18.122 17.374 17.9469 17.1714C17.9446 17.1668 17.94 17.1645 17.9377 17.16Z" fill="#86888C"/>
</svg>
