<svg width="29" height="28" viewBox="0 0 29 28" fill="none" xmlns="http://www.w3.org/2000/svg">
<path fill-rule="evenodd" clip-rule="evenodd" d="M6.89918 20.9875H23.8082C22.036 18.4369 22.2238 15.0156 22.2341 14.8483V10.2626C22.2341 8.01587 21.6024 6.29155 20.3629 5.14429C18.3722 3.30046 15.4322 3.47801 15.4015 3.47801C15.381 3.47801 15.3742 3.46777 15.3503 3.46777C15.3332 3.46777 15.3127 3.47801 15.3025 3.47801C15.1147 3.46777 11.0172 3.24241 9.26548 6.55447C10.6996 6.60569 15.562 7.22371 15.562 13.1752C15.562 19.2632 10.4708 19.7446 9.19719 19.7617H8.58257C8.3572 19.7617 8.01916 19.7412 7.62307 19.6832C7.41819 20.1646 7.16893 20.5949 6.89918 20.9875ZM17.0576 23.9069C17.4434 23.4767 17.5732 22.886 17.6039 22.4558H13.0966C13.1376 22.886 13.2571 23.4869 13.6532 23.9172C14.0186 24.3303 14.5717 24.5249 15.3571 24.5249C16.1288 24.5249 16.682 24.3303 17.0576 23.9069ZM3.71337 13.1342C3.71337 17.5662 6.78308 18.273 8.6133 18.2901H9.16987C11.0103 18.2628 14.08 17.5457 14.08 13.1718C14.08 8.79096 10.983 8.06368 9.13914 8.01587H8.55525C6.74211 8.02612 3.71337 8.71243 3.71337 13.1342ZM25.9594 21.1548C26.1984 21.3495 26.2872 21.6841 26.1882 21.9811C26.0789 22.2748 25.7989 22.466 25.4847 22.4626H19.0961C19.0483 23.1284 18.8605 24.1186 18.1673 24.8937C17.5049 25.6278 16.5522 26 15.3571 26C14.1483 26 13.1991 25.6278 12.5367 24.8937C11.8435 24.1186 11.6557 23.1284 11.6147 22.4626H5.22945C4.9153 22.4694 4.63531 22.2748 4.52604 21.9811C4.41677 21.6875 4.50555 21.3529 4.7514 21.1582C5.31481 20.7075 5.78261 20.0793 6.14797 19.3349C4.30751 18.6725 2.22803 17.0745 2.22803 13.1342C2.22803 8.01587 5.69383 6.85836 7.61282 6.61593C9.48401 1.88003 14.8415 1.97564 15.3571 2.00637C15.8112 1.98588 19.0312 1.8971 21.3668 4.05506C22.9306 5.49598 23.7228 7.58565 23.7228 10.2626V14.8995C23.7228 14.9746 23.494 19.1608 25.9594 21.1548ZM9.63426 16.4394C9.63084 16.8457 9.29963 17.177 8.88988 17.1735C8.48354 17.1735 8.15233 16.8457 8.14891 16.4394V13.8717H5.5709C5.16115 13.8717 4.82994 13.5439 4.82994 13.1342C4.82994 12.7279 5.16115 12.4001 5.5709 12.4001H8.15233V9.86994C8.15574 9.46362 8.48696 9.13241 8.89329 9.13583C9.30304 9.13583 9.63767 9.46362 9.63767 9.86994V12.4001H12.2225C12.6323 12.4001 12.9635 12.7313 12.9635 13.1376C12.9601 13.5439 12.6288 13.8751 12.2225 13.8751H9.63767V16.4394H9.63426Z" fill="#86888C"/>
</svg>
