<svg width="25" height="24" viewBox="0 0 25 24" fill="none" xmlns="http://www.w3.org/2000/svg">
<path fill-rule="evenodd" clip-rule="evenodd" d="M5.28847 17.834C6.79994 15.7112 6.63871 12.8713 6.63008 12.7632V8.90452C6.63008 8.12767 6.72796 7.42765 6.9151 6.80161L17.0549 17.834H5.28847ZM13.9456 20.267C13.626 20.6085 13.151 20.7764 12.4946 20.7764C11.8353 20.7764 11.3602 20.6113 11.0407 20.267C10.7067 19.9085 10.6031 19.4133 10.5743 19.0576H14.4177C14.386 19.419 14.2824 19.9085 13.9456 20.267ZM8.22791 4.64749C9.92075 3.1194 12.4312 3.26452 12.4571 3.26452C12.4859 3.26737 12.5147 3.26737 12.5435 3.26452C12.5694 3.26452 15.0799 3.1194 16.7727 4.64749C17.8322 5.60646 18.3705 7.0378 18.3705 8.90452L18.3734 12.7233C18.3619 12.8656 18.2007 15.7112 19.715 17.834H18.7535L7.46786 5.56377C7.6809 5.2223 7.93138 4.91497 8.22791 4.64749ZM21.6152 20.95L19.8734 19.0576H21.1401C21.4079 19.0576 21.6468 18.8954 21.7361 18.6507C21.8253 18.406 21.7476 18.1328 21.5403 17.9706C19.4415 16.3145 19.6315 12.8343 19.6344 12.7603V8.90452C19.6344 6.67925 18.9579 4.94343 17.6249 3.74543C15.6384 1.95554 12.8947 2.0153 12.5003 2.04091C12.103 2.01815 9.35935 1.95554 7.37285 3.74543C7.08496 4.00723 6.82297 4.30032 6.59841 4.61619L4.3816 2.20596C4.14552 1.9527 3.7511 1.92993 3.48911 2.15474C3.23288 2.371 3.20409 2.74947 3.4229 3.00273C3.42865 3.00842 3.43153 3.01411 3.43729 3.01695L5.95352 5.75443C5.56773 6.65933 5.36621 7.70936 5.36621 8.90452V12.8002C5.36908 12.8343 5.5591 16.3145 3.46032 17.9706C3.25304 18.1328 3.1753 18.406 3.26455 18.6507C3.35668 18.8954 3.59563 19.0605 3.8605 19.0576H9.30753C9.34207 19.6097 9.50042 20.4321 10.0935 21.078C10.6578 21.6927 11.4668 22 12.4974 22C13.5252 22 14.3313 21.6898 14.8985 21.078C15.4916 20.4349 15.6528 19.6125 15.6902 19.0576H18.1805L20.668 21.761C20.7889 21.8919 20.9616 21.9687 21.1401 21.9659C21.2898 21.9659 21.4424 21.9146 21.5605 21.8122C21.8167 21.5959 21.8455 21.2175 21.6267 20.9642C21.6238 20.9585 21.618 20.9557 21.6152 20.95Z" fill="#86888C"/>
</svg>
