<svg width="21" height="20" viewBox="0 0 21 20" fill="none" xmlns="http://www.w3.org/2000/svg">
<path fill-rule="evenodd" clip-rule="evenodd" d="M5.44438 14.662H16.8929C15.6941 12.9611 15.8216 10.6819 15.8286 10.5635V7.50323C15.8286 6.00727 15.3996 4.86196 14.5555 4.09007C13.2151 2.86734 11.2255 2.98574 11.2046 2.97891C11.1907 2.98574 11.1768 2.97891 11.1698 2.97891C11.1559 2.97891 11.1443 2.98574 11.1304 2.97891C11.0098 2.97208 8.20159 2.8218 7.03053 5.0851C9.77151 5.15568 11.3646 6.58106 11.3646 9.52972C11.3646 12.5695 9.67643 13.988 6.794 13.988C6.46471 13.988 6.1563 13.963 5.86411 13.9288C5.74585 14.1838 5.60439 14.4297 5.44438 14.662ZM12.3177 16.6111C12.5844 16.3219 12.6655 15.9302 12.691 15.6433H9.64397C9.66484 15.9302 9.74368 16.3242 10.0127 16.6179C10.2678 16.8866 10.6434 17.0232 11.1652 17.0232C11.6869 17.0209 12.0626 16.8843 12.3177 16.6111ZM3.23212 9.52972C3.23212 11.9023 4.36608 13.0066 6.79632 13.0066C9.22656 13.0066 10.3605 11.9023 10.3605 9.52972C10.3628 7.15713 9.22888 6.0528 6.79632 6.0528C4.36608 6.0528 3.23212 7.15713 3.23212 9.52972ZM18.34 14.7736C18.5069 14.9033 18.5672 15.1196 18.493 15.3155C18.4258 15.5136 18.2356 15.6433 18.0246 15.6411H13.6975C13.6696 16.0874 13.5444 16.7477 13.069 17.2623C12.6261 17.7518 11.9838 18 11.1652 18C10.3466 18 9.70426 17.7518 9.26134 17.2623C8.78596 16.7454 8.66538 16.0851 8.63755 15.6411H4.31275C4.10172 15.6433 3.91157 15.5113 3.84432 15.3155C3.77012 15.1196 3.83273 14.9011 3.99969 14.7736C4.34057 14.498 4.62348 14.1406 4.85538 13.7148C3.17183 13.1706 2.22803 11.8044 2.22803 9.52972C2.22803 6.82469 3.56837 5.40615 5.90585 5.13064C7.15344 1.9133 10.8104 1.98616 11.1652 2.00665C11.4666 1.98616 13.6511 1.92696 15.2372 3.37283C16.297 4.3337 16.8327 5.72037 16.8327 7.50323V10.5953C16.828 10.6545 16.6796 13.4461 18.34 14.7736ZM7.8468 11.3695L6.44152 9.99877C6.34645 9.90769 6.29311 9.78246 6.29311 9.65267V7.79468C6.29311 7.52372 6.51805 7.30513 6.79632 7.30513C7.07227 7.30513 7.29953 7.52372 7.29953 7.79468V9.44775L8.55871 10.675C8.55871 10.675 8.96916 11.0006 8.96916 11.2716C8.96916 11.5813 8.72799 11.711 8.45204 11.7179C8.19696 11.7247 7.94187 11.4629 7.8468 11.3695Z" fill="#86888C"/>
</svg>
