<svg width="41" height="40" viewBox="0 0 41 40" fill="none" xmlns="http://www.w3.org/2000/svg">
<path fill-rule="evenodd" clip-rule="evenodd" d="M22.3751 34.7672C21.8055 35.383 20.9587 35.6858 19.7887 35.6858C18.6135 35.6858 17.7667 35.3881 17.197 34.7672C16.6017 34.1205 16.417 33.2276 16.3657 32.5861H23.2168C23.1603 33.2378 22.9756 34.1205 22.3751 34.7672ZM10.6748 5.05323C14.1839 1.7765 19.1527 1.97922 19.7634 2.01515C20.3741 1.97922 25.3007 1.82527 28.8417 5.0481C31.1921 7.18297 32.3879 10.2878 32.3879 14.2752V21.3727C32.3827 21.4856 32.0235 28.0749 36.0058 31.2516C36.2573 31.4517 36.3497 31.7904 36.2419 32.0881C36.1341 32.3857 35.8416 32.5858 35.5183 32.5858L25.2083 32.5807C25.1981 33.5147 24.9979 35.1723 23.8433 36.4296C22.8887 37.4714 21.5134 38 19.7531 38C17.9878 38 16.6124 37.4714 15.6579 36.4245C14.5032 35.1621 14.3133 33.4993 14.3082 32.5807H3.99821C3.68004 32.5807 3.38752 32.3857 3.27462 32.0829C3.16172 31.7801 3.25922 31.4414 3.51068 31.2464C7.49303 28.0698 7.1338 21.4804 7.12867 21.4137V14.2701C7.12867 10.2518 8.35006 7.22402 10.6748 5.05323ZM27.3941 6.65617C24.3766 3.90034 19.9016 4.16206 19.8554 4.16206C19.8041 4.1672 19.7527 4.1672 19.7014 4.16206C19.6552 4.16206 15.1802 3.90034 12.1627 6.65617C11.6341 7.13856 11.1876 7.69281 10.8078 8.30864C10.1674 9.34713 10.1682 9.37093 9.82251 10.541C9.48894 11.67 9.31446 12.9325 9.31446 14.3335V21.2923C9.32985 21.4873 9.61724 26.609 6.92299 30.4374H32.6389C29.9395 26.609 30.2269 21.4771 30.2475 21.2205L30.2423 14.3335C30.2423 10.967 29.2827 8.38561 27.3941 6.65617Z" fill="#86888C"/>
</svg>
