<svg width="25" height="24" viewBox="0 0 25 24" fill="none" xmlns="http://www.w3.org/2000/svg">
<path fill-rule="evenodd" clip-rule="evenodd" d="M13.8653 20.204C13.5488 20.5461 13.0784 20.7143 12.4284 20.7143C11.7755 20.7143 11.3051 20.549 10.9886 20.204C10.6579 19.8447 10.5552 19.3487 10.5267 18.9923H14.3329C14.3015 19.3544 14.1989 19.8447 13.8653 20.204ZM7.36513 3.69624C9.31464 1.87583 12.0751 1.98846 12.4143 2.00842C12.7536 1.98846 15.4906 1.90293 17.4579 3.69339C18.7636 4.87943 19.4279 6.60431 19.4279 8.81958V12.7626C19.4251 12.8253 19.2255 16.4861 21.4379 18.2509C21.5776 18.3621 21.6289 18.5502 21.5691 18.7156C21.5092 18.8809 21.3467 18.9921 21.1671 18.9921L15.4393 18.9893C15.4336 19.5082 15.3224 20.4291 14.6809 21.1276C14.1506 21.7063 13.3866 22 12.4086 22C11.4279 22 10.6638 21.7063 10.1335 21.1247C9.49201 20.4234 9.38653 19.4996 9.38367 18.9893H3.65591C3.47914 18.9893 3.31663 18.8809 3.25391 18.7127C3.19119 18.5445 3.24536 18.3564 3.38506 18.248C5.59748 16.4832 5.3979 12.8225 5.39505 12.7854V8.81673C5.39505 6.58436 6.0736 4.90223 7.36513 3.69624ZM16.6536 4.58676C14.9772 3.05574 12.4911 3.20115 12.4654 3.20115C12.4369 3.204 12.4084 3.204 12.3799 3.20115C12.3542 3.20115 9.86813 3.05574 8.19171 4.58676C7.89805 4.85476 7.65001 5.16267 7.43903 5.5048C7.08325 6.08174 7.08369 6.09496 6.89163 6.74501C6.70631 7.37224 6.60938 8.0736 6.60938 8.85193V12.718C6.61793 12.8263 6.77759 15.6717 5.28079 17.7985H19.5674C18.0678 15.6717 18.2274 12.8206 18.2388 12.678L18.236 8.85193C18.236 6.98164 17.7028 5.54756 16.6536 4.58676Z" fill="#86888C"/>
</svg>
