<svg width="41" height="40" viewBox="0 0 41 40" fill="none" xmlns="http://www.w3.org/2000/svg">
<path fill-rule="evenodd" clip-rule="evenodd" d="M9.46483 30.4895H35.2241C32.5266 26.6625 32.8136 21.5342 32.8292 21.2678V14.3823C32.8292 11.0163 31.864 8.4394 29.9648 6.70265C26.949 3.95152 22.4723 4.21792 22.4253 4.20255C22.394 4.21792 22.3627 4.20255 22.3471 4.20255C22.3158 4.20255 22.2897 4.21792 22.2584 4.20255C21.9871 4.18718 15.6685 3.84906 13.0337 8.94147C19.2009 9.10029 22.7853 12.3074 22.7853 18.9419C22.7853 25.7813 18.9869 28.973 12.5015 28.973C11.7606 28.973 11.0666 28.9166 10.4092 28.8398C10.1431 29.4136 9.82484 29.9669 9.46483 30.4895ZM24.9298 34.8749C25.5298 34.2242 25.7124 33.3431 25.7698 32.6975H18.9139C18.9608 33.3431 19.1383 34.2294 19.7435 34.8902C20.3174 35.4948 21.1627 35.8022 22.3366 35.8022C23.5106 35.797 24.3558 35.4897 24.9298 34.8749ZM4.48725 18.9419C4.48725 24.2802 7.03865 26.7649 12.5067 26.7649C17.9747 26.7649 20.5261 24.2802 20.5261 18.9419C20.5313 13.6035 17.9799 11.1188 12.5067 11.1188C7.03865 11.1188 4.48725 13.6035 4.48725 18.9419ZM38.4799 30.7405C38.8555 31.0325 38.9912 31.5192 38.8242 31.9598C38.6729 32.4055 38.2451 32.6975 37.7703 32.6924H28.0342C27.9716 33.6966 27.6899 35.1823 26.6203 36.3401C25.6237 37.4416 24.1784 38 22.3366 38C20.4948 38 19.0495 37.4416 18.053 36.3401C16.9834 35.1771 16.7121 33.6914 16.6495 32.6924H6.91864C6.44384 32.6975 6.016 32.4004 5.86469 31.9598C5.69773 31.5192 5.8386 31.0274 6.21427 30.7405C6.98126 30.1206 7.6178 29.3163 8.13956 28.3582C4.35159 27.1338 2.22803 24.0599 2.22803 18.9419C2.22803 12.8556 5.2438 9.66384 10.5031 9.04393C13.3102 1.80492 21.5383 1.96886 22.3366 2.01497C23.0149 1.96886 27.9299 1.83566 31.4987 5.08886C33.8832 7.25083 35.0884 10.3708 35.0884 14.3823V21.3395C35.078 21.4727 34.7441 27.7537 38.4799 30.7405ZM14.8703 23.0814L11.7084 19.9972C11.4945 19.7923 11.3745 19.5105 11.3745 19.2185V15.038C11.3745 14.4284 11.8806 13.9365 12.5067 13.9365C13.1276 13.9365 13.6389 14.4284 13.6389 15.038V18.7574L16.4721 21.5188C16.4721 21.5188 17.3956 22.2514 17.3956 22.8611C17.3956 23.5578 16.8529 23.8498 16.232 23.8652C15.6581 23.8806 15.0842 23.2914 14.8703 23.0814Z" fill="#86888C"/>
</svg>
