<svg width="25" height="24" viewBox="0 0 25 24" fill="none" xmlns="http://www.w3.org/2000/svg">
<path fill-rule="evenodd" clip-rule="evenodd" d="M6.24847 17.8275H20.5592C19.0606 15.7014 19.22 12.8523 19.2287 12.7043V8.87903C19.2287 7.00908 18.6924 5.57745 17.6373 4.61258C15.9619 3.08418 13.4748 3.23218 13.4488 3.22364C13.4314 3.23218 13.414 3.22364 13.4053 3.22364C13.3879 3.22364 13.3734 3.23218 13.356 3.22364C13.2053 3.2151 9.69498 3.02725 8.23116 5.85637C11.6574 5.9446 13.6488 7.72632 13.6488 11.4121C13.6488 15.2118 11.5385 16.985 7.9355 16.985C7.52388 16.985 7.13836 16.9537 6.77313 16.911C6.6253 17.2298 6.44848 17.5372 6.24847 17.8275ZM14.8401 20.2638C15.1735 19.9024 15.2749 19.4128 15.3068 19.0542H11.498C11.524 19.4128 11.6226 19.9052 11.9588 20.2724C12.2777 20.6082 12.7473 20.779 13.3995 20.779C14.0517 20.7761 14.5213 20.6054 14.8401 20.2638ZM3.48315 11.4121C3.48315 14.3779 4.90059 15.7583 7.93839 15.7583C10.9762 15.7583 12.3936 14.3779 12.3936 11.4121C12.3965 8.44641 10.9791 7.06601 7.93839 7.06601C4.90059 7.06601 3.48315 8.44641 3.48315 11.4121ZM22.3679 17.9669C22.5766 18.1292 22.652 18.3996 22.5593 18.6443C22.4752 18.892 22.2375 19.0542 21.9737 19.0513H16.5648C16.53 19.6092 16.3735 20.4346 15.7793 21.0778C15.2256 21.6898 14.4227 22 13.3995 22C12.3762 22 11.5733 21.6898 11.0197 21.0778C10.4254 20.4317 10.2747 19.6063 10.2399 19.0513H4.83393C4.57015 19.0542 4.33246 18.8891 4.2484 18.6443C4.15564 18.3996 4.2339 18.1263 4.44261 17.9669C4.86871 17.6225 5.22235 17.1757 5.51221 16.6435C3.40778 15.9632 2.22803 14.2555 2.22803 11.4121C2.22803 8.03087 3.90345 6.25769 6.82531 5.9133C8.38479 1.89162 12.956 1.9827 13.3995 2.00831C13.7763 1.9827 16.5068 1.9087 18.4895 3.71603C19.8142 4.91713 20.4838 6.65046 20.4838 8.87903V12.7442C20.478 12.8182 20.2925 16.3076 22.3679 17.9669ZM9.25149 13.7119L7.4949 11.9985C7.37605 11.8846 7.30938 11.7281 7.30938 11.5658V9.24335C7.30938 8.90465 7.59055 8.63141 7.93839 8.63141C8.28333 8.63141 8.5674 8.90465 8.5674 9.24335V11.3097L10.1414 12.8438C10.1414 12.8438 10.6544 13.2508 10.6544 13.5895C10.6544 13.9766 10.353 14.1388 10.008 14.1473C9.68919 14.1559 9.37033 13.8286 9.25149 13.7119Z" fill="#86888C"/>
</svg>
