<svg width="29" height="28" viewBox="0 0 29 28" fill="none" xmlns="http://www.w3.org/2000/svg">
<path fill-rule="evenodd" clip-rule="evenodd" d="M7.05256 20.993H24.2254C22.4271 18.4416 22.6184 15.0228 22.6288 14.8452V10.2548C22.6288 8.0109 21.9853 6.29293 20.7192 5.1351C18.7087 3.30101 15.7242 3.47861 15.6929 3.46837C15.672 3.47861 15.6512 3.46837 15.6407 3.46837C15.6199 3.46837 15.6025 3.47861 15.5816 3.46837C15.4007 3.45812 11.1884 3.2327 9.43179 6.62765C13.5432 6.73353 15.9329 8.87159 15.9329 13.2946C15.9329 17.8542 13.4006 19.982 9.07699 19.982C8.58306 19.982 8.12043 19.9444 7.68215 19.8932C7.50475 20.2757 7.29257 20.6446 7.05256 20.993ZM17.3625 23.9166C17.7625 23.4828 17.8843 22.8954 17.9226 22.465H13.3519C13.3832 22.8954 13.5015 23.4862 13.905 23.9268C14.2876 24.3299 14.8511 24.5348 15.6338 24.5348C16.4164 24.5314 16.9799 24.3264 17.3625 23.9166ZM3.73417 13.2946C3.73417 16.8535 5.43511 18.5099 9.08047 18.5099C12.7258 18.5099 14.4268 16.8535 14.4268 13.2946C14.4302 9.73569 12.7293 8.07921 9.08047 8.07921C5.43511 8.07921 3.73417 9.73569 3.73417 13.2946ZM26.3959 21.1603C26.6464 21.355 26.7368 21.6795 26.6255 21.9732C26.5246 22.2703 26.2394 22.465 25.9229 22.4616H19.4322C19.3904 23.131 19.2026 24.1215 18.4895 24.8934C17.8252 25.6277 16.8616 26 15.6338 26C14.4059 26 13.4424 25.6277 12.778 24.8934C12.0649 24.1181 11.8841 23.1276 11.8423 22.4616H5.35511C5.03857 22.465 4.75334 22.2669 4.65247 21.9732C4.54116 21.6795 4.63508 21.3516 4.88552 21.1603C5.39685 20.7471 5.82121 20.2108 6.16905 19.5721C3.64373 18.7559 2.22803 16.7066 2.22803 13.2946C2.22803 9.23704 4.23854 7.10922 7.74476 6.69596C9.61614 1.86994 15.1016 1.97924 15.6338 2.00998C16.086 1.97924 19.3626 1.89044 21.7418 4.05924C23.3315 5.50055 24.135 7.58055 24.135 10.2548V14.893C24.128 14.9818 23.9054 19.1691 26.3959 21.1603ZM10.6562 16.0542L8.54827 13.9982C8.40566 13.8615 8.32566 13.6737 8.32566 13.479V10.692C8.32566 10.2856 8.66306 9.9577 9.08047 9.9577C9.4944 9.9577 9.83528 10.2856 9.83528 10.692V13.1716L11.724 15.0125C11.724 15.0125 12.3397 15.5009 12.3397 15.9074C12.3397 16.3719 11.978 16.5666 11.564 16.5768C11.1814 16.5871 10.7988 16.1943 10.6562 16.0542Z" fill="#86888C"/>
</svg>
