<svg width="25" height="24" viewBox="0 0 25 24" fill="none" xmlns="http://www.w3.org/2000/svg">
<path fill-rule="evenodd" clip-rule="evenodd" d="M6.12065 17.8229H20.2115C18.7347 15.6974 18.8912 12.8463 18.8997 12.7069V8.88551C18.8997 7.01323 18.3733 5.5763 17.3404 4.62024C15.6815 3.08372 13.2315 3.23168 13.2059 3.23168C13.1888 3.23168 13.1831 3.22314 13.1632 3.22314C13.149 3.22314 13.1319 3.23168 13.1234 3.23168C12.9669 3.22314 9.55231 3.03535 8.09257 5.79539C9.28768 5.83807 13.3396 6.35309 13.3396 11.3126C13.3396 16.386 9.09703 16.7872 8.03566 16.8014H7.52348C7.33567 16.8014 7.05397 16.7844 6.72389 16.736C6.55316 17.1372 6.34544 17.4957 6.12065 17.8229ZM14.586 20.2558C14.9075 19.8972 15.0156 19.405 15.0412 19.0465H11.2852C11.3194 19.405 11.4189 19.9058 11.749 20.2643C12.0535 20.6086 12.5145 20.7708 13.1689 20.7708C13.812 20.7708 14.273 20.6086 14.586 20.2558ZM3.46581 11.2785C3.46581 14.9718 6.0239 15.5608 7.54908 15.5751H8.0129C9.54662 15.5523 12.1047 14.9548 12.1047 11.3098C12.1047 7.65914 9.52385 7.05306 7.98729 7.01323H7.50071C5.98976 7.02176 3.46581 7.59369 3.46581 11.2785ZM22.0042 17.9624C22.2033 18.1246 22.2773 18.4034 22.1948 18.651C22.1037 18.8957 21.8704 19.055 21.6086 19.0522H16.2847C16.2449 19.607 16.0884 20.4322 15.5108 21.0781C14.9587 21.6898 14.1648 22 13.1689 22C12.1616 22 11.3706 21.6898 10.8185 21.0781C10.2409 20.4322 10.0844 19.607 10.0503 19.0522H4.72921C4.46742 19.0578 4.23409 18.8957 4.14304 18.651C4.05198 18.4062 4.12597 18.1274 4.33084 17.9652C4.80035 17.5896 5.19018 17.0661 5.49464 16.4458C3.96093 15.8938 2.22803 14.5621 2.22803 11.2785C2.22803 7.01323 5.11619 6.04863 6.71536 5.84661C8.27468 1.90003 12.7393 1.9797 13.1689 2.00531C13.5474 1.98823 16.2307 1.91425 18.177 3.71255C19.4802 4.91332 20.1404 6.65471 20.1404 8.88551V12.7496C20.1404 12.8122 19.9497 16.3006 22.0042 17.9624ZM8.39988 14.0329C8.39704 14.3715 8.12103 14.6475 7.77957 14.6446C7.44096 14.6446 7.16494 14.3715 7.1621 14.0329V11.8931H5.01376C4.6723 11.8931 4.39629 11.6199 4.39629 11.2785C4.39629 10.9399 4.6723 10.6667 5.01376 10.6667H7.16494V8.55829C7.16779 8.21968 7.4438 7.94368 7.78241 7.94652C8.12387 7.94652 8.40273 8.21968 8.40273 8.55829V10.6667H10.5568C10.8982 10.6667 11.1742 10.9427 11.1742 11.2813C11.1714 11.6199 10.8954 11.896 10.5568 11.896H8.40273V14.0329H8.39988Z" fill="#86888C"/>
</svg>
