<svg width="29" height="28" viewBox="0 0 29 28" fill="none" xmlns="http://www.w3.org/2000/svg">
<path fill-rule="evenodd" clip-rule="evenodd" d="M5.70056 21.0008C7.51432 18.4535 7.32085 15.0456 7.31049 14.9158V10.2854C7.31049 9.3532 7.42795 8.51318 7.65251 7.76193L19.8202 21.0008H5.70056ZM16.0891 23.9204C15.7056 24.3302 15.1355 24.5317 14.3479 24.5317C13.5567 24.5317 12.9867 24.3336 12.6032 23.9204C12.2024 23.4902 12.0781 22.896 12.0435 22.4692H16.6556C16.6176 22.9028 16.4933 23.4902 16.0891 23.9204ZM9.22789 5.17698C11.2593 3.34328 14.2719 3.51743 14.3029 3.51743C14.3375 3.52084 14.372 3.52084 14.4066 3.51743C14.4377 3.51743 17.4502 3.34328 19.4817 5.17698C20.753 6.32775 21.3991 8.04536 21.3991 10.2854L21.4025 14.868C21.3887 15.0387 21.1952 18.4535 23.0124 21.0008H21.8585L8.31583 6.27653C8.57148 5.86676 8.87205 5.49797 9.22789 5.17698ZM25.2926 24.74L23.2024 22.4692H24.7225C25.0438 22.4692 25.3306 22.2745 25.4377 21.9809C25.5448 21.6872 25.4515 21.3594 25.2028 21.1647C22.6842 19.1774 22.9122 15.0012 22.9157 14.9124V10.2854C22.9157 7.6151 22.1038 5.53212 20.5043 4.09452C18.1205 1.94665 14.8281 2.01836 14.3548 2.04909C13.878 2.02178 10.5856 1.94665 8.20182 4.09452C7.85634 4.40867 7.54196 4.76039 7.27248 5.13942L4.61231 2.24715C4.32902 1.94324 3.85571 1.91592 3.54133 2.18568C3.23385 2.4452 3.19931 2.89936 3.46187 3.20327C3.46878 3.2101 3.47223 3.21693 3.47914 3.22035L6.49862 6.50531C6.03568 7.5912 5.79384 8.85123 5.79384 10.2854V14.9602C5.7973 15.0012 6.02531 19.1774 3.50678 21.1647C3.25804 21.3594 3.16476 21.6872 3.27186 21.9809C3.38241 22.2745 3.66916 22.4726 3.987 22.4692H10.5234C10.5649 23.1316 10.7549 24.1185 11.4666 24.8936C12.1437 25.6312 13.1145 26 14.3513 26C15.5847 26 16.552 25.6278 17.2326 24.8936C17.9443 24.1219 18.1377 23.135 18.1827 22.4692H21.171L24.156 25.7132C24.3011 25.8702 24.5083 25.9624 24.7225 25.959C24.9022 25.959 25.0853 25.8976 25.2269 25.7746C25.5344 25.5151 25.569 25.061 25.3064 24.757C25.3029 24.7502 25.296 24.7468 25.2926 24.74Z" fill="#86888C"/>
</svg>
