<svg width="41" height="40" viewBox="0 0 41 40" fill="none" xmlns="http://www.w3.org/2000/svg">
<path fill-rule="evenodd" clip-rule="evenodd" d="M9.23475 30.4813H34.5983C31.94 26.6553 32.2217 21.5234 32.2371 21.2724V14.3939C32.2371 11.0238 31.2895 8.43733 29.4303 6.71643C26.4442 3.95069 22.0343 4.21702 21.9882 4.21702C21.9575 4.21702 21.9472 4.20166 21.9114 4.20166C21.8858 4.20166 21.855 4.21702 21.8397 4.21702C21.558 4.20166 15.4117 3.86362 12.7842 8.83171C14.9354 8.90853 22.2289 9.83557 22.2289 18.7628C22.2289 27.8948 14.5922 28.617 12.6818 28.6426H11.7598C11.4218 28.6426 10.9147 28.6119 10.3206 28.5248C10.0133 29.247 9.63938 29.8923 9.23475 30.4813ZM24.4723 34.8604C25.0511 34.215 25.2457 33.329 25.2918 32.6836H18.531C18.5924 33.329 18.7717 34.2304 19.3658 34.8757C19.9139 35.4955 20.7436 35.7874 21.9216 35.7874C23.0792 35.7874 23.9089 35.4955 24.4723 34.8604ZM4.45604 18.7013C4.45604 25.3493 9.06061 26.4095 11.8059 26.4351H12.6408C15.4015 26.3941 20.0061 25.3186 20.0061 18.7576C20.0061 12.1864 15.3605 11.0955 12.5947 11.0238H11.7189C8.99914 11.0392 4.45604 12.0686 4.45604 18.7013ZM37.8251 30.7323C38.1836 31.0242 38.3167 31.5261 38.1682 31.9717C38.0043 32.4122 37.5843 32.699 37.1131 32.6939H27.5301C27.4584 33.6926 27.1767 35.1779 26.1369 36.3406C25.1433 37.4417 23.7143 38 21.9216 38C20.1085 38 18.6846 37.4417 17.691 36.3406C16.6512 35.1779 16.3695 33.6926 16.3081 32.6939H6.73015C6.25894 32.7041 5.83895 32.4122 5.67505 31.9717C5.51115 31.5312 5.64432 31.0293 6.01309 30.7374C6.8582 30.0613 7.5599 29.1189 8.10794 28.0024C5.34725 27.0088 2.22803 24.6118 2.22803 18.7013C2.22803 11.0238 7.42673 9.28754 10.3052 8.9239C13.112 1.82005 21.1482 1.96346 21.9216 2.00955C22.6028 1.97882 27.4328 1.84566 30.9361 5.0826C33.2819 7.24397 34.4702 10.3785 34.4702 14.3939V21.3492C34.4702 21.4619 34.1271 27.7412 37.8251 30.7323ZM13.3374 23.6591C13.3322 24.2686 12.8354 24.7654 12.2208 24.7603C11.6113 24.7603 11.1145 24.2686 11.1094 23.6591V19.8076H7.24234C6.62772 19.8076 6.13089 19.3159 6.13089 18.7013C6.13089 18.0918 6.62772 17.6001 7.24234 17.6001H11.1145V13.8049C11.1196 13.1954 11.6164 12.6986 12.2259 12.7037C12.8405 12.7037 13.3425 13.1954 13.3425 13.8049V17.6001H17.2198C17.8344 17.6001 18.3312 18.0969 18.3312 18.7064C18.3261 19.3159 17.8293 19.8127 17.2198 19.8127H13.3425V23.6591H13.3374Z" fill="#86888C"/>
</svg>
