<svg width="24" height="24" viewBox="0 0 24 24" fill="none" xmlns="http://www.w3.org/2000/svg">
<path fill-rule="evenodd" clip-rule="evenodd" d="M21.5413 7.09064L20.0788 7.06788L20.9437 6.20291L22.1871 6.21713L21.5413 7.09064ZM15.1365 14.1783C15.1365 16.1102 14.6243 17.4077 12.129 17.4532L11.7307 17.4589L11.5429 17.4561C9.05325 17.4191 8.54394 16.1017 8.54394 14.1328C8.54394 12.1866 9.03902 10.8834 11.4547 10.8607C11.5173 10.8607 11.9071 10.8635 12.055 10.8663C12.9485 10.8863 13.5887 11.0627 14.0524 11.3643L11.9242 13.4897L11.8843 13.0345C11.8559 12.6987 11.5742 12.454 11.2214 12.4796C10.8856 12.5081 10.6381 12.804 10.6665 13.1397L10.8202 14.901C10.8259 14.9607 10.8401 15.0176 10.8629 15.0717L10.8714 15.0888C10.897 15.1485 10.9311 15.1997 10.9738 15.2481C10.9881 15.2652 11.0023 15.2794 11.0193 15.2908C11.0592 15.3278 11.1019 15.3562 11.1502 15.3818C11.1673 15.3904 11.1815 15.4018 11.1986 15.4074C11.2071 15.4103 11.2128 15.416 11.2214 15.4188C11.2726 15.4387 11.3266 15.4416 11.3807 15.4473C11.3949 15.4473 11.4063 15.4558 11.4205 15.4558L13.3923 15.49H13.4037C13.7366 15.49 14.0098 15.2225 14.0154 14.8896C14.0211 14.5539 13.7537 14.275 13.4151 14.2693L12.8802 14.2608L14.8406 12.3004C15.0625 12.8182 15.1365 13.4527 15.1365 14.1783ZM18.4598 14.1783C18.4598 20.0282 14.0667 20.7395 12.1774 20.7765C12.0437 20.7794 11.89 20.7794 11.7364 20.7794L11.5002 20.7765C9.61377 20.7509 5.22348 20.0481 5.22348 14.1299C5.22348 8.22591 9.57109 7.54873 11.4405 7.53451H11.5884C11.7762 7.53451 11.9697 7.53735 12.1404 7.54304C13.1903 7.56865 15.0028 7.8105 16.4197 8.99699L14.9259 10.4908C14.2971 10.0099 13.3923 9.67417 12.0863 9.64572C11.9242 9.64003 11.4575 9.63718 11.4575 9.63718C7.32615 9.67417 7.32615 13.0288 7.32615 14.1299C7.32615 15.2396 7.32615 18.6141 11.5287 18.6738L11.7221 18.6767L12.1432 18.671C16.36 18.597 16.36 15.2709 16.36 14.1754C16.36 13.6007 16.3543 12.417 15.7425 11.4013L17.2534 9.89041C17.9676 10.8692 18.4598 12.2378 18.4598 14.1783ZM19.0602 4.66075L19.9479 3.91813V5.46882L19.1228 6.29396L19.0602 4.66075ZM23.9342 5.34363C23.8317 5.13877 23.624 5.00788 23.3935 5.00504L22.0591 4.99081C22.1302 4.77741 22.0876 4.53272 21.9168 4.362C21.712 4.15998 21.4047 4.14007 21.1714 4.28518V2.61214C21.1714 2.37598 21.0348 2.15974 20.8186 2.05731C20.608 1.95772 20.3519 1.98902 20.1698 2.14267L18.0501 3.91244C17.905 4.03194 17.8225 4.21404 17.831 4.40468L17.9505 7.46622L17.279 8.13771C15.4353 6.56426 13.0594 6.34233 12.1688 6.32241C11.9924 6.31672 11.7876 6.31387 11.5884 6.31387H11.4262C9.85278 6.3281 4 6.86871 4 14.1299C4 21.4053 9.90684 21.9744 11.4831 21.9972C11.5656 22 11.651 22 11.7364 22C11.8985 22 12.0607 21.9972 12.2001 21.9943C13.6968 21.9687 19.6833 21.4053 19.6833 14.1783C19.6833 11.8195 19.0374 10.1778 18.1241 9.01975L18.8781 8.26575L21.8372 8.31412H21.8457C22.0392 8.31412 22.2213 8.22307 22.3379 8.06658L23.8772 5.97813C24.0138 5.79318 24.0337 5.54849 23.9342 5.34363Z" fill="#86888C"/>
</svg>
