<svg width="24" height="24" viewBox="0 0 24 24" fill="none" xmlns="http://www.w3.org/2000/svg">
<path d="M10.0544 22.0005C8.24111 22.0005 6.82918 21.5233 5.85514 20.5858C4.84181 19.6089 4.32812 18.1577 4.32812 16.2742V11.8279C4.32812 9.94437 4.84181 8.49314 5.85514 7.5163C6.82918 6.57595 8.24391 6.10156 10.0544 6.10156C11.865 6.10156 13.2797 6.57876 14.2537 7.5163C15.2671 8.49033 15.7808 9.94156 15.7808 11.8279V13.731C15.7808 14.0398 15.5281 14.2924 15.2194 14.2924C14.9106 14.2924 14.658 14.0398 14.658 13.731V11.8279C14.658 10.2588 14.2594 9.08262 13.4762 8.32472C12.7183 7.5949 11.5674 7.22437 10.0544 7.22437C8.54146 7.22437 7.39058 7.5949 6.63269 8.32472C5.84953 9.08262 5.45093 10.2588 5.45093 11.8279V16.2742C5.45093 17.8433 5.84953 19.0195 6.63269 19.7774C7.39058 20.5072 8.54146 20.8777 10.0544 20.8777C11.2109 20.8777 12.1625 20.6588 12.8811 20.2293C13.1478 20.0721 13.493 20.1647 13.6474 20.4314C13.8018 20.6952 13.7148 21.0321 13.4565 21.1921C12.5611 21.731 11.4158 22.0005 10.0544 22.0005Z" fill="#86888C"/>
<path d="M10.0547 11.9088C9.74597 11.9088 9.49333 11.6561 9.49333 11.3474V8.85754C9.49333 8.54877 9.74597 8.29614 10.0547 8.29614C10.3635 8.29614 10.6161 8.54877 10.6161 8.85754V11.3474C10.6161 11.6561 10.3635 11.9088 10.0547 11.9088ZM10.0379 7.06105C9.72912 7.06105 9.47649 6.80842 9.47649 6.49965V5.73053C9.47649 5.35158 9.47649 4.64982 7.84842 4.64982H6.74246C5.77684 4.64982 5.14807 4.50667 4.70737 4.18947C4.23298 3.84421 4 3.31368 4 2.5614C4 2.25263 4.25263 2 4.5614 2C4.87018 2 5.12281 2.25263 5.12281 2.5614C5.12281 3.10316 5.12281 3.52982 6.73965 3.52982H7.84561C8.77193 3.52982 9.44842 3.72351 9.91719 4.1193C10.3663 4.49825 10.5965 5.04281 10.5965 5.73333V6.50246C10.5965 6.81123 10.3467 7.06105 10.0379 7.06105ZM10.0547 13.7895C8.30035 13.7923 6.54877 13.6716 4.81123 13.4302C4.50526 13.3881 4.28912 13.1018 4.33403 12.7958C4.37614 12.4898 4.66246 12.2737 4.96842 12.3186C6.65544 12.5516 8.35368 12.6695 10.0547 12.6667C11.7558 12.6695 13.4568 12.5544 15.1439 12.3186C15.4498 12.2765 15.7361 12.4898 15.7782 12.7958C15.8204 13.1018 15.607 13.3881 15.3011 13.4302C13.5607 13.6744 11.8091 13.7923 10.0547 13.7895Z" fill="#86888C"/>
<path d="M15.2479 21.859C14.838 21.859 14.6275 21.4773 14.4591 21.1713C14.4282 21.1152 14.3833 21.0338 14.344 20.972C14.2766 21.0085 14.1924 21.059 14.1335 21.0927C13.8387 21.2696 13.4738 21.4913 13.123 21.2892C12.7721 21.0871 12.7805 20.6548 12.7889 20.3067C12.7889 20.2394 12.7917 20.1439 12.7889 20.0681C12.7131 20.0653 12.6177 20.0681 12.5503 20.0681C12.2023 20.0766 11.7728 20.085 11.5679 19.7341C11.363 19.3832 11.5875 19.0183 11.7644 18.7236C11.8009 18.6646 11.8514 18.5804 11.8851 18.5131C11.8233 18.4738 11.7419 18.4288 11.6858 18.398C11.3798 18.2296 10.998 18.019 10.998 17.6092C10.998 17.1994 11.3798 16.9888 11.6858 16.8204C11.7419 16.7896 11.8233 16.7446 11.8851 16.7053C11.8486 16.638 11.798 16.5538 11.7644 16.4948C11.5875 16.2001 11.3658 15.8352 11.5679 15.4843C11.77 15.1334 12.2023 15.1418 12.5503 15.1503C12.6177 15.1503 12.7131 15.1531 12.7889 15.1503C12.7917 15.0745 12.7889 14.979 12.7889 14.9117C12.7805 14.5664 12.7721 14.1341 13.123 13.9292C13.4738 13.7243 13.8387 13.9488 14.1335 14.1257C14.1924 14.1622 14.2766 14.2127 14.344 14.2464C14.3833 14.1846 14.4282 14.1032 14.4591 14.0471C14.6275 13.7411 14.838 13.3594 15.2479 13.3594C15.6577 13.3594 15.8682 13.7411 16.0366 14.0471C16.0675 14.1032 16.1124 14.1846 16.1517 14.2464C16.2191 14.2099 16.3033 14.1594 16.3623 14.1257C16.657 13.9488 17.0219 13.7271 17.3728 13.9292C17.7237 14.1313 17.7152 14.5636 17.7068 14.9117C17.7068 14.979 17.704 15.0745 17.7068 15.1503C17.7826 15.1531 17.878 15.1503 17.9454 15.1503C18.2907 15.1418 18.723 15.1334 18.9279 15.4843C19.1328 15.8352 18.9082 16.2001 18.7314 16.4948C18.6949 16.5538 18.6444 16.638 18.6107 16.7053C18.6724 16.7446 18.7538 16.7896 18.81 16.8204C19.1159 16.9888 19.4977 17.1994 19.4977 17.6092C19.4977 18.019 19.1159 18.2296 18.81 18.398C18.7538 18.4288 18.6724 18.4738 18.6107 18.5131C18.6472 18.5804 18.6977 18.6646 18.7314 18.7236C18.9082 19.0183 19.13 19.3832 18.9279 19.7341C18.7258 20.085 18.2935 20.0766 17.9454 20.0681C17.878 20.0681 17.7826 20.0653 17.7068 20.0681C17.704 20.1439 17.7068 20.2394 17.7068 20.3067C17.7152 20.652 17.7237 21.0843 17.3728 21.2892C17.0219 21.4941 16.657 21.2696 16.3623 21.0927C16.3033 21.0562 16.2191 21.0057 16.1517 20.972C16.1124 21.0338 16.0675 21.1152 16.0366 21.1713C15.8682 21.4773 15.6577 21.859 15.2479 21.859ZM17.791 16.9327C17.7237 16.6773 18.2766 16.1636 18.1447 15.9418C18.0128 15.7201 17.2914 15.939 17.1089 15.7538C16.9265 15.5685 17.1482 14.8471 16.9209 14.718C16.6935 14.5888 16.1854 15.1418 15.93 15.0717C15.683 15.0043 15.5145 14.2688 15.2479 14.2688C14.9812 14.2688 14.8128 15.0043 14.5658 15.0717C14.3103 15.139 13.7966 14.586 13.5749 14.718C13.3531 14.8499 13.5721 15.5713 13.3868 15.7538C13.2016 15.9362 12.4802 15.7145 12.351 15.9418C12.2219 16.1692 12.7749 16.6801 12.7047 16.9327C12.6373 17.1797 11.9019 17.3481 11.9019 17.6148C11.9019 17.8815 12.6373 18.0499 12.7047 18.2969C12.7721 18.5524 12.2191 19.066 12.351 19.2878C12.483 19.5096 13.2044 19.2906 13.3868 19.4759C13.5693 19.6611 13.3475 20.3825 13.5749 20.5117C13.8023 20.6408 14.3103 20.0878 14.5658 20.158C14.8128 20.2225 14.9812 20.9608 15.2479 20.9608C15.5145 20.9608 15.683 20.2253 15.93 20.158C16.1854 20.0906 16.6991 20.6436 16.9209 20.5117C17.1426 20.3797 16.9237 19.6583 17.1089 19.4759C17.2942 19.2934 18.0156 19.5124 18.1447 19.2878C18.2738 19.0632 17.7209 18.5524 17.791 18.2969C17.8556 18.0499 18.5938 17.8815 18.5938 17.6148C18.5938 17.3481 17.8556 17.1797 17.791 16.9327Z" fill="#86888C"/>
<path d="M14.0858 19.3809C13.9314 19.3809 13.8051 19.2546 13.8051 19.1002C13.8051 19.0385 13.8248 18.9767 13.8641 18.9262L16.1883 15.9564C16.2837 15.8357 16.4606 15.8132 16.5813 15.9087C16.702 16.0041 16.7244 16.1809 16.629 16.3016L14.3048 19.2715C14.2542 19.3416 14.1728 19.3809 14.0858 19.3809ZM14.2907 17.2504C13.8388 17.2504 13.5581 16.9697 13.5581 16.5178C13.5581 16.0659 13.8388 15.7852 14.2907 15.7852C14.7427 15.7852 15.0234 16.0659 15.0234 16.5178C15.0234 16.9697 14.7427 17.2504 14.2907 17.2504ZM14.2907 16.3494C14.1504 16.3494 14.1195 16.3774 14.1195 16.5206C14.1195 16.6638 14.1476 16.6918 14.2907 16.6918C14.4339 16.6918 14.462 16.6638 14.462 16.5206C14.462 16.3774 14.4311 16.3494 14.2907 16.3494ZM16.1827 19.4174C15.7307 19.4174 15.45 19.1367 15.45 18.6848C15.45 18.2329 15.7307 17.9522 16.1827 17.9522C16.6346 17.9522 16.9153 18.2329 16.9153 18.6848C16.9153 19.1367 16.6318 19.4174 16.1827 19.4174ZM16.1827 18.5164C16.0423 18.5164 16.0114 18.5445 16.0114 18.6876C16.0114 18.8308 16.0395 18.8588 16.1827 18.8588C16.3258 18.8588 16.3539 18.8308 16.3539 18.6876C16.3539 18.5445 16.323 18.5164 16.1827 18.5164Z" fill="#86888C"/>
</svg>
