<svg width="40" height="40" viewBox="0 0 40 40" fill="none" xmlns="http://www.w3.org/2000/svg">
<path fill-rule="evenodd" clip-rule="evenodd" d="M35.1725 36.1677C35.5771 35.7631 35.7974 35.2202 35.7974 34.6517L35.7615 23.9629C35.8025 23.1997 35.6283 22.6312 35.2698 22.2471C34.901 21.8579 34.3478 21.6479 33.6562 21.6428L6.33352 21.6479C5.75982 21.6479 5.22197 21.8732 4.8173 22.2779C4.41264 22.6876 4.19237 23.2254 4.19237 23.7939L4.22823 34.4827C4.18725 35.2407 4.36141 35.8143 4.71998 36.1985C5.08879 36.5877 5.64713 36.7977 6.33352 36.8028L33.6562 36.7977C34.2299 36.7926 34.7729 36.5723 35.1725 36.1677ZM20 5.2023C19.2829 5.2023 18.704 5.78105 18.704 6.49808C18.704 7.20999 19.2829 7.79385 20 7.79385C20.7171 7.79385 21.296 7.21511 21.296 6.49808C21.296 5.78617 20.7171 5.2023 20 5.2023ZM20 9.99616C19.4365 9.99616 18.9141 9.85275 18.4428 9.61716L8.61298 19.4507L31.4229 19.4456L21.5572 9.61204C21.0859 9.84763 20.5635 9.99616 20 9.99616ZM37.9641 24.0192L38 34.6466C38 35.8092 37.5492 36.9001 36.7297 37.7196C35.9101 38.5391 34.819 38.9898 33.6614 38.9949L6.3284 39C5.03244 38.9898 3.89528 38.5288 3.1218 37.6991C2.3432 36.8643 1.96414 35.7324 2.03586 34.4213L2 23.7939C2 22.6312 2.45077 21.5403 3.27035 20.7209C3.85942 20.1319 4.59192 19.7375 5.39101 19.5583L16.8907 8.05506C16.6551 7.58387 16.5065 7.06146 16.5065 6.49808C16.5065 4.56722 18.074 3 20 3C21.926 3 23.4935 4.56722 23.4935 6.49808C23.4935 7.06146 23.35 7.58387 23.1144 8.05506L34.6295 19.5378C35.5208 19.7119 36.2994 20.1268 36.8782 20.7414C37.6568 21.5711 38.0359 22.7029 37.9641 24.0192ZM11.0359 30.7849C11.3995 30.7849 12.004 30.7849 12.004 28.9309C12.004 27.0615 11.3739 27.0615 11.0359 27.0615C10.6722 27.0615 10.0626 27.0615 10.0626 28.9309C10.0626 30.7849 10.6722 30.7849 11.0359 30.7849ZM11.0359 25.356C12.0398 25.356 13.7251 25.822 13.7251 28.9309C13.7251 32.0346 12.0398 32.5006 11.0359 32.5006C10.0267 32.5006 8.34149 32.0397 8.34149 28.9309C8.34149 25.822 10.0267 25.356 11.0359 25.356ZM17.4696 28.4443C17.5259 28.3777 17.5874 28.2702 17.5874 27.8553C17.5874 27.5173 17.5157 27.3124 17.4439 27.2305C17.4439 27.2305 17.3466 27.1434 16.9368 27.1434H16.4246V28.5365H17.0393C17.3876 28.5314 17.4337 28.4853 17.4696 28.4443ZM16.9676 25.4584C17.7462 25.4584 18.3199 25.6581 18.7092 26.073C19.1036 26.493 19.3085 27.0871 19.3085 27.8348C19.3085 28.5775 19.1292 29.1408 18.7553 29.5608C18.3813 29.991 17.8384 30.2164 17.1366 30.2164H16.4246V31.6556C16.4246 32.0602 16.0968 32.388 15.6921 32.388H15.4513C15.0467 32.388 14.7188 32.0602 14.7188 31.6556V26.1959C14.7188 25.7913 15.0467 25.4635 15.4513 25.4635H16.9676V25.4584ZM23.6369 30.7029C24.0415 30.7029 24.3694 31.0307 24.3694 31.4353V31.6504C24.3694 32.0551 24.0415 32.3828 23.6369 32.3828H20.9476C20.543 32.3828 20.2151 32.0551 20.2151 31.6504V26.1908C20.2151 25.7862 20.543 25.4584 20.9476 25.4584H23.5549C23.7803 25.4584 23.9852 25.5557 24.1286 25.7298C24.2669 25.904 24.3182 26.1293 24.2721 26.3496L24.226 26.5647C24.1542 26.9027 23.852 27.1383 23.5088 27.1383H21.9158V28.0397H23.1246C23.5293 28.0397 23.8571 28.3675 23.8571 28.7721V28.9872C23.8571 29.3918 23.5293 29.7196 23.1246 29.7196H21.9158V30.7081H23.6369V30.7029ZM29.7427 25.4584C30.1474 25.4584 30.4752 25.7862 30.4752 26.1908V31.6556C30.4752 32.0602 30.1474 32.388 29.7427 32.388H29.5583C29.3125 32.388 29.082 32.265 28.9488 32.0602L27.0023 29.1101V31.6556C27.0023 32.0602 26.6744 32.388 26.2698 32.388H26.0495C25.6448 32.388 25.317 32.0602 25.317 31.6556V26.1908C25.317 25.7862 25.6448 25.4584 26.0495 25.4584H26.2237C26.4695 25.4584 26.7001 25.5813 26.8332 25.7862L28.7849 28.7362V26.1908C28.7849 25.7862 29.1127 25.4584 29.5174 25.4584H29.7427Z" fill="#86888C"/>
</svg>
