<svg width="28" height="28" viewBox="0 0 28 28" fill="none" xmlns="http://www.w3.org/2000/svg">
<path fill-rule="evenodd" clip-rule="evenodd" d="M24.115 24.1118C24.3847 23.8421 24.5316 23.4802 24.5316 23.1012L24.5077 15.9752C24.535 15.4665 24.4189 15.0875 24.1799 14.8314C23.934 14.5719 23.5652 14.4319 23.1042 14.4285L4.88902 14.4319C4.50655 14.4319 4.14798 14.5822 3.8782 14.8519C3.60842 15.1251 3.46158 15.4836 3.46158 15.8626L3.48549 22.9885C3.45817 23.4938 3.57427 23.8762 3.81332 24.1323C4.05919 24.3918 4.43142 24.5318 4.88902 24.5352L23.1042 24.5318C23.4866 24.5284 23.8486 24.3816 24.115 24.1118ZM14 3.4682C13.5219 3.4682 13.136 3.85403 13.136 4.33205C13.136 4.80666 13.5219 5.1959 14 5.1959C14.4781 5.1959 14.864 4.81007 14.864 4.33205C14.864 3.85745 14.4781 3.4682 14 3.4682ZM14 6.66411C13.6244 6.66411 13.276 6.5685 12.9619 6.41144L6.40865 12.9671L21.6153 12.9637L15.0381 6.40802C14.724 6.56509 14.3756 6.66411 14 6.66411ZM25.9761 16.0128L26 23.0977C26 23.8728 25.6995 24.6001 25.1531 25.1464C24.6067 25.6927 23.8793 25.9932 23.1076 25.9966L4.8856 26C4.02163 25.9932 3.26352 25.6859 2.74787 25.1327C2.2288 24.5762 1.9761 23.8216 2.0239 22.9475L2 15.8626C2 15.0875 2.30051 14.3602 2.8469 13.8139C3.23961 13.4213 3.72795 13.1583 4.26067 13.0388L11.9271 5.37004C11.7701 5.05591 11.671 4.70764 11.671 4.33205C11.671 3.04481 12.716 2 14 2C15.284 2 16.329 3.04481 16.329 4.33205C16.329 4.70764 16.2334 5.05591 16.0763 5.37004L23.753 13.0252C24.3472 13.1413 24.8663 13.4178 25.2521 13.8276C25.7712 14.3807 26.0239 15.1353 25.9761 16.0128ZM8.0239 20.5233C8.26636 20.5233 8.66932 20.5233 8.66932 19.2872C8.66932 18.041 8.24929 18.041 8.0239 18.041C7.78145 18.041 7.37507 18.041 7.37507 19.2872C7.37507 20.5233 7.78145 20.5233 8.0239 20.5233ZM8.0239 16.904C8.69323 16.904 9.81673 17.2147 9.81673 19.2872C9.81673 21.3564 8.69323 21.6671 8.0239 21.6671C7.35117 21.6671 6.22766 21.3598 6.22766 19.2872C6.22766 17.2147 7.35117 16.904 8.0239 16.904ZM12.313 18.9629C12.3506 18.9185 12.3916 18.8468 12.3916 18.5702C12.3916 18.3449 12.3438 18.2083 12.296 18.1537C12.296 18.1537 12.2311 18.0956 11.9579 18.0956H11.6164V19.0243H12.0262C12.2584 19.0209 12.2891 18.9902 12.313 18.9629ZM11.9784 16.9723C12.4974 16.9723 12.8799 17.1054 13.1394 17.382C13.4024 17.662 13.539 18.058 13.539 18.5566C13.539 19.0516 13.4195 19.4272 13.1702 19.7072C12.9209 19.994 12.5589 20.1443 12.0911 20.1443H11.6164V21.1037C11.6164 21.3735 11.3978 21.592 11.1281 21.592H10.9676C10.6978 21.592 10.4792 21.3735 10.4792 21.1037V17.4639C10.4792 17.1942 10.6978 16.9757 10.9676 16.9757H11.9784V16.9723ZM16.4246 20.4686C16.6944 20.4686 16.9129 20.6872 16.9129 20.9569V21.1003C16.9129 21.37 16.6944 21.5886 16.4246 21.5886H14.6318C14.362 21.5886 14.1434 21.37 14.1434 21.1003V17.4605C14.1434 17.1908 14.362 16.9723 14.6318 16.9723H16.3699C16.5202 16.9723 16.6568 17.0371 16.7524 17.1532C16.8446 17.2693 16.8788 17.4195 16.848 17.5664L16.8173 17.7098C16.7695 17.9351 16.568 18.0922 16.3392 18.0922H15.2772V18.6931H16.0831C16.3529 18.6931 16.5714 18.9117 16.5714 19.1814V19.3248C16.5714 19.5945 16.3529 19.8131 16.0831 19.8131H15.2772V20.472H16.4246V20.4686ZM20.4952 16.9723C20.7649 16.9723 20.9835 17.1908 20.9835 17.4605V21.1037C20.9835 21.3735 20.7649 21.592 20.4952 21.592H20.3722C20.2083 21.592 20.0546 21.51 19.9659 21.3735L18.6682 19.4067V21.1037C18.6682 21.3735 18.4496 21.592 18.1799 21.592H18.033C17.7632 21.592 17.5447 21.3735 17.5447 21.1037V17.4605C17.5447 17.1908 17.7632 16.9723 18.033 16.9723H18.1491C18.313 16.9723 18.4667 17.0542 18.5555 17.1908L19.8566 19.1575V17.4605C19.8566 17.1908 20.0751 16.9723 20.3449 16.9723H20.4952Z" fill="#86888C"/>
</svg>
