<svg width="24" height="24" viewBox="0 0 24 24" fill="none" xmlns="http://www.w3.org/2000/svg">
<path fill-rule="evenodd" clip-rule="evenodd" d="M21.4291 20.4265C21.654 20.2017 21.7763 19.9001 21.7763 19.5843L21.7564 13.646C21.7792 13.2221 21.6824 12.9062 21.4832 12.6928C21.2783 12.4766 20.971 12.3599 20.5868 12.3571L5.40751 12.3599C5.08879 12.3599 4.78998 12.4851 4.56517 12.7099C4.34035 12.9375 4.21799 13.2363 4.21799 13.5521L4.23791 19.4904C4.21514 19.9115 4.3119 20.2302 4.5111 20.4436C4.71599 20.6598 5.02618 20.7765 5.40751 20.7793L20.5868 20.7765C20.9055 20.7737 21.2072 20.6513 21.4291 20.4265ZM13 3.2235C12.6016 3.2235 12.28 3.54503 12.28 3.94338C12.28 4.33888 12.6016 4.66325 13 4.66325C13.3984 4.66325 13.72 4.34173 13.72 3.94338C13.72 3.54787 13.3984 3.2235 13 3.2235ZM13 5.88676C12.687 5.88676 12.3967 5.80709 12.1349 5.6762L6.67388 11.1393L19.346 11.1364L13.8651 5.67335C13.6033 5.80424 13.313 5.88676 13 5.88676ZM22.9801 13.6773L23 19.5814C23 20.2273 22.7496 20.8334 22.2943 21.2887C21.8389 21.7439 21.2328 21.9943 20.5896 21.9972L5.40467 22C4.68469 21.9943 4.05293 21.7382 3.62322 21.2773C3.19067 20.8135 2.98008 20.1847 3.01992 19.4563L3 13.5521C3 12.9062 3.25043 12.3002 3.70575 11.8449C4.03301 11.5177 4.43995 11.2986 4.88389 11.199L11.2726 4.80837C11.1417 4.54659 11.0592 4.25637 11.0592 3.94338C11.0592 2.87068 11.93 2 13 2C14.07 2 14.9408 2.87068 14.9408 3.94338C14.9408 4.25637 14.8611 4.54659 14.7302 4.80837L21.1275 11.1877C21.6227 11.2844 22.0552 11.5149 22.3768 11.8563C22.8093 12.3173 23.0199 12.9461 22.9801 13.6773ZM8.01992 17.4361C8.22197 17.4361 8.55777 17.4361 8.55777 16.406C8.55777 15.3675 8.20774 15.3675 8.01992 15.3675C7.81787 15.3675 7.47923 15.3675 7.47923 16.406C7.47923 17.4361 7.81787 17.4361 8.01992 17.4361ZM8.01992 14.42C8.57769 14.42 9.51394 14.6789 9.51394 16.406C9.51394 18.1303 8.57769 18.3892 8.01992 18.3892C7.45931 18.3892 6.52305 18.1332 6.52305 16.406C6.52305 14.6789 7.45931 14.42 8.01992 14.42ZM11.5942 16.1357C11.6255 16.0987 11.6596 16.039 11.6596 15.8085C11.6596 15.6207 11.6198 15.5069 11.58 15.4614C11.58 15.4614 11.5259 15.413 11.2982 15.413H11.0137V16.1869H11.3552C11.5487 16.1841 11.5743 16.1585 11.5942 16.1357ZM11.3153 14.4769C11.7479 14.4769 12.0666 14.5879 12.2829 14.8183C12.502 15.0516 12.6158 15.3817 12.6158 15.7971C12.6158 16.2097 12.5162 16.5227 12.3085 16.756C12.1007 16.995 11.7991 17.1202 11.4092 17.1202H11.0137V17.9198C11.0137 18.1445 10.8315 18.3266 10.6067 18.3266H10.473C10.2482 18.3266 10.066 18.1445 10.066 17.9198V14.8866C10.066 14.6618 10.2482 14.4797 10.473 14.4797H11.3153V14.4769ZM15.0205 17.3905C15.2453 17.3905 15.4274 17.5726 15.4274 17.7974V17.9169C15.4274 18.1417 15.2453 18.3238 15.0205 18.3238H13.5265C13.3017 18.3238 13.1195 18.1417 13.1195 17.9169V14.8838C13.1195 14.659 13.3017 14.4769 13.5265 14.4769H14.975C15.1002 14.4769 15.214 14.5309 15.2937 14.6277C15.3705 14.7244 15.399 14.8496 15.3734 14.972L15.3478 15.0915C15.3079 15.2793 15.14 15.4102 14.9493 15.4102H14.0643V15.9109H14.7359C14.9607 15.9109 15.1429 16.093 15.1429 16.3178V16.4373C15.1429 16.6621 14.9607 16.8442 14.7359 16.8442H14.0643V17.3934H15.0205V17.3905ZM18.4126 14.4769C18.6375 14.4769 18.8196 14.659 18.8196 14.8838V17.9198C18.8196 18.1445 18.6375 18.3266 18.4126 18.3266H18.3102C18.1736 18.3266 18.0455 18.2584 17.9715 18.1445L16.8902 16.5056V17.9198C16.8902 18.1445 16.708 18.3266 16.4832 18.3266H16.3608C16.136 18.3266 15.9539 18.1445 15.9539 17.9198V14.8838C15.9539 14.659 16.136 14.4769 16.3608 14.4769H16.4576C16.5942 14.4769 16.7223 14.5452 16.7962 14.659L17.8805 16.2979V14.8838C17.8805 14.659 18.0626 14.4769 18.2874 14.4769H18.4126Z" fill="#86888C"/>
</svg>
