<svg width="28" height="28" viewBox="0 0 28 28" fill="none" xmlns="http://www.w3.org/2000/svg">
<path d="M15.0674 26C11.2395 26 8.25611 25.0031 6.20653 23.0401C4.078 20.9986 3 17.9568 3 14C3 10.0432 4.078 7.00142 6.20653 4.95989C8.25611 2.99687 11.2395 2 15.0674 2C18.8953 2 21.8787 2.99687 23.9283 4.95989C26.0568 6.99801 27.1348 10.0398 27.1348 14C27.1348 17.9602 26.0568 20.9986 23.9283 23.0401C21.8787 25.0031 18.8953 26 15.0674 26ZM15.0674 3.36558C11.6068 3.36558 8.94616 4.23272 7.16094 5.9431C5.31049 7.71494 4.37325 10.4256 4.37325 14C4.37325 17.5744 5.31049 20.2817 7.16094 22.0569C8.94616 23.7673 11.6068 24.6344 15.0674 24.6344C18.528 24.6344 21.1887 23.7673 22.9739 22.0569C24.8243 20.2851 25.7616 17.5744 25.7616 14C25.7616 10.4256 24.8243 7.71835 22.9739 5.9431C21.1887 4.23272 18.528 3.36558 15.0674 3.36558Z" fill="#86888C"/>
<path d="M7.78572 24.1672C7.40808 24.1672 7.0991 23.86 7.0991 23.4845C7.0991 23.3035 7.17119 23.126 7.30165 22.9997L11.0335 19.3365L10.2953 18.5923L9.96232 18.2577L9.55378 17.848L5.96617 21.3644C5.70182 21.6341 5.26581 21.6375 4.99459 21.3746C4.72338 21.1118 4.71994 20.6782 4.9843 20.4085L5.00146 20.3914L9.07657 16.3937C9.34779 16.1274 9.78036 16.1308 10.0481 16.4005L10.285 16.6395C11.1124 15.0042 11.9707 12.5906 12.2041 9.38489C11.9947 9.29612 11.8025 9.16639 11.6445 8.99911C11.3115 8.6543 11.1433 8.20025 11.1433 7.64719C11.1433 7.09413 11.3115 6.64349 11.6445 6.29527C11.9776 5.95046 12.4342 5.7627 12.9526 5.7627C13.471 5.7627 13.9241 5.94705 14.2606 6.29527C14.597 6.64349 14.7618 7.09755 14.7618 7.64719C14.7618 8.19683 14.5936 8.65089 14.2606 8.99911C14.0718 9.19712 13.8349 9.34733 13.574 9.43268C13.3886 12.0273 12.8187 14.1473 12.1629 15.7894L18.1194 9.93794C18.0198 9.70921 17.9684 9.46341 17.9787 9.21419C17.9924 8.73624 18.1984 8.29925 18.5966 7.91006C18.9949 7.52087 19.4343 7.31945 19.9149 7.30921C20.4024 7.29555 20.8556 7.47991 21.2229 7.84178C21.5903 8.20366 21.7825 8.6543 21.7688 9.13908C21.7551 9.61703 21.5491 10.054 21.1509 10.4432C20.7526 10.8324 20.3132 11.0304 19.8325 11.0441C19.5785 11.0509 19.3244 11.0031 19.091 10.9007L13.2478 16.6361C14.8785 16.0148 16.9521 15.4754 19.4721 15.2978C19.5613 15.0384 19.7089 14.8028 19.9081 14.615C20.2548 14.2839 20.7114 14.1166 21.2676 14.1166C21.8237 14.1166 22.2804 14.2873 22.6271 14.6185C22.9738 14.9496 23.1627 15.4037 23.1627 15.9192C23.1627 16.4347 22.9773 16.8853 22.6271 17.2233C22.2769 17.5613 21.8237 17.7217 21.2676 17.7217C20.7114 17.7217 20.2582 17.551 19.9081 17.2233C19.7433 17.0662 19.6094 16.8751 19.5201 16.6668C16.2861 16.899 13.8555 17.7593 12.2076 18.5855L12.4822 18.862C12.75 19.1317 12.7466 19.5618 12.4754 19.8281L8.26979 23.9726C8.13933 24.099 7.96768 24.1672 7.78572 24.1672ZM20.7595 15.9396C20.7629 16.1138 20.8178 16.1889 20.8728 16.2401C20.9037 16.2708 20.9998 16.3596 21.2813 16.3596C21.5628 16.3596 21.659 16.2708 21.6899 16.2401C21.7448 16.1855 21.8031 16.1069 21.8031 15.9226C21.8031 15.7382 21.7448 15.6597 21.6899 15.6051C21.659 15.5744 21.5628 15.4856 21.2813 15.4856C20.9998 15.4856 20.9037 15.5744 20.8728 15.6051C20.8178 15.6597 20.7595 15.7382 20.7595 15.9192V15.9328C20.756 15.9362 20.756 15.9396 20.7595 15.9396ZM19.4927 9.54193C19.6265 9.67166 19.7227 9.68873 19.8016 9.68531C19.8463 9.68531 19.9836 9.6819 20.1896 9.47706C20.3956 9.27223 20.3956 9.14932 20.399 9.10836C20.4024 9.03666 20.3853 8.94449 20.2617 8.82159C20.1381 8.69868 20.0351 8.6782 19.9561 8.68161C19.9115 8.68161 19.7742 8.68503 19.5682 8.88986C19.3622 9.0947 19.3622 9.2176 19.3588 9.25857C19.3553 9.32685 19.3691 9.41902 19.4927 9.54193ZM12.9457 8.16611H12.9594C13.1414 8.16611 13.2203 8.10807 13.2753 8.05345C13.3062 8.02272 13.3954 7.93055 13.3954 7.64719C13.3954 7.36383 13.3062 7.27166 13.2753 7.24093C13.2203 7.18631 13.1414 7.12827 12.956 7.12827C12.7706 7.12827 12.6916 7.18631 12.6367 7.24093C12.6058 7.27166 12.5166 7.36383 12.5166 7.64719C12.5166 7.93055 12.6058 8.02272 12.6367 8.05345C12.6882 8.10807 12.7637 8.1627 12.9388 8.16611H12.9457Z" fill="#86888C"/>
</svg>
