<svg width="40" height="40" viewBox="0 0 40 40" fill="none" xmlns="http://www.w3.org/2000/svg">
<path d="M20.1011 38C14.3592 38 9.88416 36.5047 6.8098 33.5602C3.617 30.4979 2 25.9351 2 20C2 14.0649 3.617 9.50213 6.8098 6.43983C9.88416 3.49531 14.3592 2 20.1011 2C25.843 2 30.3181 3.49531 33.3924 6.43983C36.5852 9.49701 38.2022 14.0597 38.2022 20C38.2022 25.9403 36.5852 30.4979 33.3924 33.5602C30.3181 36.5047 25.843 38 20.1011 38ZM20.1011 4.04836C14.9102 4.04836 10.9192 5.34908 8.24141 7.91465C5.46573 10.5724 4.05987 14.6384 4.05987 20C4.05987 25.3616 5.46573 29.4225 8.24141 32.0853C10.9192 34.6509 14.9102 35.9516 20.1011 35.9516C25.292 35.9516 29.283 34.6509 31.9608 32.0853C34.7365 29.4276 36.1424 25.3616 36.1424 20C36.1424 14.6384 34.7365 10.5775 31.9608 7.91465C29.283 5.34908 25.292 4.04836 20.1011 4.04836Z" fill="#86888C"/>
<path d="M9.17834 35.2504C8.61187 35.2504 8.1484 34.7895 8.1484 34.2262C8.1484 33.9548 8.25654 33.6885 8.45223 33.499L14.0499 28.0043L12.9428 26.8879L12.4432 26.3861L11.8304 25.7716L6.44901 31.0461C6.05248 31.4507 5.39847 31.4558 4.99165 31.0615C4.58482 30.6672 4.57967 30.0168 4.9762 29.6123L5.00195 29.5867L11.1146 23.5901C11.5214 23.1906 12.1703 23.1958 12.572 23.6003L12.9273 23.9588C14.1684 21.5059 15.4558 17.8854 15.806 13.0768C15.4918 12.9437 15.2035 12.7491 14.9666 12.4982C14.4671 11.981 14.2147 11.2999 14.2147 10.4703C14.2147 9.64071 14.4671 8.96475 14.9666 8.44242C15.4661 7.9252 16.151 7.64355 16.9286 7.64355C17.7062 7.64355 18.386 7.92008 18.8906 8.44242C19.3953 8.96475 19.6425 9.64583 19.6425 10.4703C19.6425 11.2948 19.3902 11.9758 18.8906 12.4982C18.6074 12.7952 18.2521 13.0205 17.8607 13.1485C17.5826 17.0404 16.7278 20.2205 15.7442 22.6837L24.6789 13.9064C24.5295 13.5633 24.4523 13.1946 24.4677 12.8208C24.4883 12.1039 24.7973 11.4484 25.3947 10.8646C25.992 10.2808 26.6512 9.97869 27.3722 9.96333C28.1034 9.94284 28.7832 10.2194 29.3342 10.7622C29.8852 11.305 30.1736 11.981 30.153 12.7081C30.1324 13.4251 29.8234 14.0805 29.226 14.6643C28.6287 15.2481 27.9695 15.5451 27.2486 15.5656C26.8675 15.5758 26.4864 15.5042 26.1362 15.3505L17.3715 23.9537C19.8176 23.0216 22.928 22.2125 26.7078 21.9463C26.8417 21.5571 27.0632 21.2037 27.3619 20.9221C27.882 20.4253 28.5669 20.1744 29.4011 20.1744C30.2354 20.1744 30.9203 20.4305 31.4404 20.9272C31.9605 21.4239 32.2437 22.105 32.2437 22.8783C32.2437 23.6515 31.9657 24.3275 31.4404 24.8344C30.9151 25.3414 30.2354 25.5821 29.4011 25.5821C28.5669 25.5821 27.8871 25.3261 27.3619 24.8344C27.1147 24.5989 26.9138 24.3121 26.7799 23.9997C21.9289 24.348 18.283 25.6384 15.8111 26.8777L16.2231 27.2925C16.6248 27.697 16.6196 28.3423 16.2128 28.7417L9.90444 34.9585C9.70875 35.148 9.45127 35.2504 9.17834 35.2504ZM28.639 22.909C28.6441 23.1701 28.7265 23.2828 28.8089 23.3596C28.8553 23.4057 28.9995 23.5389 29.4217 23.5389C29.844 23.5389 29.9882 23.4057 30.0345 23.3596C30.1169 23.2777 30.2045 23.1599 30.2045 22.8834C30.2045 22.6069 30.1169 22.4891 30.0345 22.4071C29.9882 22.361 29.844 22.2279 29.4217 22.2279C28.9995 22.2279 28.8553 22.361 28.8089 22.4071C28.7265 22.4891 28.639 22.6069 28.639 22.8783V22.8987C28.6338 22.9039 28.6338 22.909 28.639 22.909ZM26.7387 13.3124C26.9396 13.507 27.0838 13.5326 27.2022 13.5275C27.2692 13.5275 27.4751 13.5224 27.7841 13.2151C28.0931 12.9078 28.0931 12.7235 28.0983 12.662C28.1034 12.5545 28.0777 12.4162 27.8923 12.2319C27.7069 12.0475 27.5524 12.0168 27.434 12.0219C27.367 12.0219 27.161 12.0271 26.852 12.3343C26.5431 12.6416 26.5431 12.8259 26.5379 12.8874C26.5328 12.9898 26.5534 13.128 26.7387 13.3124ZM16.9183 11.2487H16.9389C17.2118 11.2487 17.3303 11.1616 17.4127 11.0797C17.459 11.0336 17.5929 10.8953 17.5929 10.4703C17.5929 10.0453 17.459 9.907 17.4127 9.86091C17.3303 9.77897 17.2118 9.69192 16.9338 9.69192C16.6557 9.69192 16.5372 9.77897 16.4548 9.86091C16.4085 9.907 16.2746 10.0453 16.2746 10.4703C16.2746 10.8953 16.4085 11.0336 16.4548 11.0797C16.5321 11.1616 16.6454 11.2436 16.908 11.2487H16.9183Z" fill="#86888C"/>
</svg>
