<svg width="40" height="40" viewBox="0 0 40 40" fill="none" xmlns="http://www.w3.org/2000/svg">
<path fill-rule="evenodd" clip-rule="evenodd" d="M32.0188 23.4371C31.5424 23.9135 30.9636 24.2874 30.3284 24.605C30.0108 24.7638 29.6932 24.9175 29.3398 25.0353C28.5356 25.2965 27.6289 25.4451 26.6505 25.4809C26.4815 25.4912 26.333 25.5168 26.1588 25.5168H16.8566C16.6875 25.5168 16.5339 25.4861 16.3648 25.4809C15.3865 25.44 14.4798 25.2965 13.6756 25.0353C13.3221 24.9175 13.0046 24.7638 12.687 24.605C12.0518 24.2874 11.473 23.9186 10.9966 23.4371C10.5304 22.8173 10.2846 21.9619 10.2846 20.8503C10.2846 19.7439 10.5356 18.8884 11.0017 18.2584C12.0979 17.152 13.6602 16.4912 15.535 16.276C15.4735 16.691 15.4326 17.1161 15.4326 17.5771C15.4326 19.5134 15.996 21.0296 17.1024 22.0899C18.1628 23.1042 19.6483 23.6215 21.5128 23.6215C23.3825 23.6215 24.8628 23.1042 25.9232 22.0899C27.0296 21.0296 27.5879 19.5134 27.5879 17.5771C27.5879 17.1212 27.5521 16.691 27.4906 16.276C29.3654 16.4963 30.9226 17.152 32.0239 18.2584C32.49 18.8833 32.741 19.7439 32.741 20.8503C32.7308 21.9619 32.4849 22.8173 32.0188 23.4371ZM17.712 27.7809H25.3034L25.2982 28.247C25.288 29.5737 24.7758 31.7866 21.5077 31.7866C18.2396 31.7866 17.7274 29.5737 17.7171 28.247L17.712 27.7809ZM29.0529 28.6722C29.0324 30.8031 28.259 35.7462 21.5077 35.7462C14.7513 35.7462 13.9829 30.8031 13.9624 28.6722L13.9419 27.4582C14.4183 27.5657 14.9152 27.6477 15.4274 27.6989L15.4377 28.2675C15.4633 30.9311 17.0666 34.0353 21.5026 34.0404C25.9437 34.0404 27.547 30.9363 27.5674 28.2675L27.5777 27.6989C28.0899 27.6477 28.5868 27.5657 29.0632 27.4582L29.0529 28.6722ZM17.5635 5.54468C18.4445 4.69437 19.7763 4.26409 21.5077 4.26409C23.2442 4.26409 24.5709 4.69949 25.4519 5.54468C26.3637 6.42573 26.8298 7.78315 26.8298 9.5811C26.8298 11.041 26.5071 12.1935 25.9027 13.0489C25.7644 13.2436 25.6209 13.4434 25.4519 13.6073C25.4519 13.6073 25.3751 13.6636 25.2777 13.7507C24.9653 13.9095 24.7194 14.1861 24.6579 14.5549C24.617 14.811 24.6836 15.0569 24.7962 15.2669C24.8167 15.3438 24.8423 15.4052 24.8628 15.4462C25.0165 15.7433 25.037 15.8099 25.1292 16.1736C25.2368 16.5936 25.3034 17.0495 25.3034 17.572C25.3034 18.8731 24.9755 19.8412 24.3352 20.4559C23.7103 21.0552 22.7575 21.3574 21.5026 21.3574C20.2476 21.3574 19.2948 21.0552 18.675 20.4559C18.0296 19.8412 17.7018 18.868 17.7018 17.572C17.7018 17.0495 17.7735 16.5885 17.881 16.1736C17.9733 15.8099 17.9989 15.7433 18.1474 15.4462C18.173 15.4052 18.1935 15.3438 18.2191 15.2669C18.3369 15.0569 18.3984 14.811 18.3574 14.5549C18.296 14.1861 18.0501 13.9095 17.7376 13.7507C17.6403 13.6636 17.5635 13.6073 17.5635 13.6073C17.3893 13.4434 17.251 13.2436 17.1127 13.0489C16.5083 12.1935 16.1855 11.041 16.1855 9.5811C16.1855 7.78315 16.6466 6.42573 17.5635 5.54468ZM33.704 16.7524C33.6784 16.7217 33.6579 16.691 33.6272 16.6602C33.5248 16.5373 33.4377 16.4707 33.3199 16.3631C33.2277 16.2709 33.1252 16.1736 33.0074 16.0916C31.6653 14.9954 29.9545 14.3039 27.9772 14.0427C28.7149 12.8543 29.099 11.3637 29.099 9.5811C29.099 7.14798 28.4024 5.24246 27.0296 3.92089C25.708 2.64542 23.8486 2 21.4974 2C19.1463 2 17.2869 2.64542 15.9704 3.92089C14.5976 5.24246 13.901 7.14798 13.901 9.5811C13.901 11.3637 14.28 12.8543 15.0228 14.0427C13.0455 14.3039 11.3398 14.9954 9.9926 16.0916C9.87479 16.1685 9.77234 16.2709 9.68014 16.3631C9.56744 16.4707 9.48036 16.5373 9.37792 16.6602C9.34718 16.691 9.33182 16.7217 9.30108 16.7524C8.45589 17.7871 8 19.1497 8 20.8503C8 22.5509 8.45589 23.9135 9.30108 24.9482L9.37792 25.0404C9.57257 25.2402 9.77746 25.4297 9.9926 25.6039C10.4946 26.0188 11.0478 26.3722 11.6471 26.6693L11.6779 28.6927C11.7137 33.1952 14.3159 38 21.4974 38C28.679 38 31.2812 33.1952 31.317 28.6927L31.3478 26.6693C31.9471 26.3671 32.5003 26.0137 33.0023 25.6039C33.2174 25.4297 33.4223 25.2351 33.617 25.0404L33.6938 24.9482C34.5441 23.9135 35 22.5509 35 20.8503C35.0051 19.1497 34.5544 17.7871 33.704 16.7524Z" fill="#86888C"/>
</svg>
