<svg width="20" height="20" viewBox="0 0 20 20" fill="none" xmlns="http://www.w3.org/2000/svg">
<path fill-rule="evenodd" clip-rule="evenodd" d="M13.288 17.0211C13.3859 17.0211 13.4656 16.9414 13.4656 16.8412C13.4656 16.741 13.3859 16.6614 13.288 16.6614H6.07342C5.97553 16.6614 5.89357 16.7433 5.89357 16.8412C5.89357 16.9391 5.97325 17.0211 6.07342 17.0211H13.288ZM3.97666 11.5572C3.97666 13.4172 4.77575 14.8423 6.28742 15.6847H13.1172C14.5834 14.8606 15.362 13.4377 15.362 11.5572C15.362 8.18327 12.6528 7.14058 11.4849 6.8469H11.4826C10.8998 6.70347 10.2897 6.62834 9.66591 6.62834C8.98748 6.62834 8.29539 6.72396 7.63745 6.91747C7.63062 6.91975 7.62379 6.91975 7.61696 6.92203C5.63404 7.51622 3.97666 9.01878 3.97666 11.5572ZM7.93341 3.71201V5.83608C8.50484 5.71315 9.08765 5.65168 9.66591 5.65168C10.1622 5.65168 10.6471 5.70859 11.1229 5.79055V3.71201C11.1229 3.30677 10.7951 2.97894 10.3921 2.97894H8.66192C8.26124 2.97894 7.93341 3.30677 7.93341 3.71201ZM16.3341 11.5572C16.3341 13.5424 15.5987 15.1133 14.2009 16.1468C14.3489 16.3404 14.44 16.5817 14.44 16.8435C14.44 17.4809 13.9232 18 13.288 18H6.07342C5.43825 18 4.91918 17.4809 4.91918 16.8435C4.91918 16.5726 5.01707 16.3267 5.17188 16.1286C3.76494 15.0814 3 13.4878 3 11.5572C3 8.65225 4.77348 6.8856 6.95902 6.11155V3.71201C6.95902 2.76722 7.72396 2 8.66192 2H10.3921C11.3324 2 12.095 2.76722 12.095 3.71201V6.00683C14.7587 6.81503 16.3341 8.8617 16.3341 11.5572ZM7.16619 10.4735V12.7866C7.16619 13.1076 7.42573 13.3694 7.74673 13.3694H11.3893C11.7103 13.3694 11.9698 13.1076 11.9698 12.7866V10.4735C11.9698 10.1525 11.7103 9.89072 11.3893 9.89072H7.74673C7.42573 9.89072 7.16619 10.1525 7.16619 10.4735ZM7.74673 14.346C6.88845 14.346 6.1918 13.6471 6.1918 12.7866V10.4735C6.1918 9.61298 6.88845 8.91178 7.74673 8.91178H11.3893C12.2453 8.91178 12.9442 9.61298 12.9442 10.4735V12.7866C12.9442 13.6471 12.2476 14.346 11.3893 14.346H7.74673ZM9.73421 4.32442C9.73421 4.47923 9.85031 4.60672 9.99146 4.60672C10.1326 4.60672 10.2487 4.47923 10.2487 4.32442C10.2487 4.16961 10.1326 4.03984 9.99146 4.03984C9.85031 4.03984 9.73421 4.16733 9.73421 4.32442ZM10.8976 4.32442C10.8976 4.83893 10.49 5.2601 9.99146 5.2601C9.49061 5.2601 9.08537 4.83893 9.08537 4.32442C9.08537 3.80763 9.49289 3.38873 9.99146 3.38873C10.4923 3.38645 10.8976 3.80763 10.8976 4.32442ZM13.0717 3.69835C12.9465 3.69835 12.8213 3.65054 12.7279 3.55492C12.5367 3.36369 12.5367 3.05407 12.7279 2.86283L13.3062 2.28002C13.4974 2.08879 13.8048 2.08879 13.996 2.28002C14.1873 2.47126 14.1873 2.78088 13.996 2.97211L13.4178 3.55265C13.3221 3.65054 13.1969 3.69835 13.0717 3.69835ZM13.2174 4.1901C13.2174 3.91918 13.436 3.70063 13.7046 3.70063H14.7655C15.0341 3.70063 15.2527 3.91918 15.2527 4.1901C15.2527 4.46101 15.0341 4.67957 14.7655 4.67957H13.7046C13.4337 4.67729 13.2174 4.45874 13.2174 4.1901ZM12.7689 4.82755C12.9602 4.63631 13.2675 4.63631 13.4587 4.82755L14.0711 5.44223C14.2624 5.63347 14.2624 5.94309 14.0711 6.13432C13.9755 6.22994 13.8526 6.27775 13.7274 6.27775C13.6022 6.27775 13.4769 6.22994 13.3836 6.13432L12.7712 5.51964C12.58 5.3284 12.58 5.01878 12.7689 4.82755ZM8.87137 11.2681C8.69152 11.2681 8.54582 11.1224 8.54582 10.9425C8.54582 10.7627 8.69152 10.617 8.87137 10.617H10.2305C10.4104 10.617 10.5561 10.7627 10.5561 10.9425C10.5561 11.1224 10.4104 11.2681 10.2305 11.2681H8.87137ZM8.35914 12.5612C8.17928 12.5612 8.03358 12.4155 8.03358 12.2356C8.03358 12.0558 8.17928 11.9101 8.35914 11.9101H10.7382C10.918 11.9101 11.0637 12.0558 11.0637 12.2356C11.0637 12.4155 10.918 12.5612 10.7382 12.5612H8.35914Z" fill="#86888C"/>
</svg>
