<svg width="40" height="40" viewBox="0 0 40 40" fill="none" xmlns="http://www.w3.org/2000/svg">
<path fill-rule="evenodd" clip-rule="evenodd" d="M29.148 35.7974C29.3682 35.7974 29.5475 35.6181 29.5475 35.3927C29.5475 35.1673 29.3682 34.988 29.148 34.988H12.9152C12.6949 34.988 12.5105 35.1725 12.5105 35.3927C12.5105 35.613 12.6898 35.7974 12.9152 35.7974H29.148ZM8.1975 23.5037C8.1975 27.6887 9.99545 30.8953 13.3967 32.7906H28.7638C32.0626 30.9363 33.8145 27.7348 33.8145 23.5037C33.8145 15.9123 27.7188 13.5663 25.0911 12.9055H25.0859C23.7746 12.5828 22.4018 12.4138 20.9983 12.4138C19.4718 12.4138 17.9146 12.6289 16.4343 13.0643C16.4189 13.0694 16.4035 13.0694 16.3882 13.0746C11.9266 14.4115 8.1975 17.7923 8.1975 23.5037ZM17.1002 5.85202V10.6312C18.3859 10.3546 19.6972 10.2163 20.9983 10.2163C22.115 10.2163 23.206 10.3443 24.2766 10.5287V5.85202C24.2766 4.94024 23.539 4.20262 22.6323 4.20262H18.7393C17.8378 4.20262 17.1002 4.94024 17.1002 5.85202ZM36.0017 23.5037C36.0017 27.9704 34.3472 31.5048 31.202 33.8304C31.535 34.2658 31.7399 34.8088 31.7399 35.3978C31.7399 36.8321 30.5771 38 29.148 38H12.9152C11.4861 38 10.3182 36.8321 10.3182 35.3978C10.3182 34.7883 10.5384 34.2351 10.8867 33.7894C7.72112 31.4331 6 27.8475 6 23.5037C6 16.9676 9.99032 12.9926 14.9078 11.251V5.85202C14.9078 3.72624 16.6289 2 18.7393 2H22.6323C24.7479 2 26.4639 3.72624 26.4639 5.85202V11.0154C32.457 12.8338 36.0017 17.4388 36.0017 23.5037ZM15.3739 21.0655V26.2698C15.3739 26.992 15.9579 27.5811 16.6801 27.5811H24.8759C25.5982 27.5811 26.1821 26.992 26.1821 26.2698V21.0655C26.1821 20.3432 25.5982 19.7541 24.8759 19.7541H16.6801C15.9579 19.7541 15.3739 20.3432 15.3739 21.0655ZM16.6801 29.7786C14.749 29.7786 13.1816 28.206 13.1816 26.2698V21.0655C13.1816 19.1292 14.749 17.5515 16.6801 17.5515H24.8759C26.8019 17.5515 28.3745 19.1292 28.3745 21.0655V26.2698C28.3745 28.206 26.8071 29.7786 24.8759 29.7786H16.6801ZM21.152 7.22994C21.152 7.57826 21.4132 7.86511 21.7308 7.86511C22.0484 7.86511 22.3096 7.57826 22.3096 7.22994C22.3096 6.88162 22.0484 6.58964 21.7308 6.58964C21.4132 6.58964 21.152 6.87649 21.152 7.22994ZM23.7695 7.22994C23.7695 8.38759 22.8526 9.33523 21.7308 9.33523C20.6039 9.33523 19.6921 8.38759 19.6921 7.22994C19.6921 6.06716 20.609 5.12464 21.7308 5.12464C22.8577 5.11952 23.7695 6.06716 23.7695 7.22994ZM28.6614 5.82129C28.3796 5.82129 28.0979 5.71372 27.8879 5.49858C27.4576 5.0683 27.4576 4.37166 27.8879 3.94138L29.189 2.63005C29.6192 2.19977 30.3108 2.19977 30.741 2.63005C31.1713 3.06033 31.1713 3.75697 30.741 4.18725L29.44 5.49345C29.2248 5.71372 28.9431 5.82129 28.6614 5.82129ZM28.9892 6.92772C28.9892 6.31816 29.4809 5.82641 30.0854 5.82641H32.4724C33.0768 5.82641 33.5686 6.31816 33.5686 6.92772C33.5686 7.53728 33.0768 8.02903 32.4724 8.02903H30.0854C29.4758 8.0239 28.9892 7.53216 28.9892 6.92772ZM27.9801 8.36198C28.4104 7.9317 29.1019 7.9317 29.5322 8.36198L30.9101 9.74502C31.3404 10.1753 31.3404 10.8719 30.9101 11.3022C30.6949 11.5174 30.4183 11.6249 30.1366 11.6249C29.8549 11.6249 29.5731 11.5174 29.3631 11.3022L27.9852 9.91918C27.5549 9.4889 27.5549 8.79226 27.9801 8.36198ZM19.2106 22.8532C18.8059 22.8532 18.4781 22.5253 18.4781 22.1207C18.4781 21.716 18.8059 21.3882 19.2106 21.3882H22.2686C22.6733 21.3882 23.0011 21.716 23.0011 22.1207C23.0011 22.5253 22.6733 22.8532 22.2686 22.8532H19.2106ZM18.0581 25.7627C17.6534 25.7627 17.3256 25.4348 17.3256 25.0302C17.3256 24.6255 17.6534 24.2977 18.0581 24.2977H23.4109C23.8156 24.2977 24.1434 24.6255 24.1434 25.0302C24.1434 25.4348 23.8156 25.7627 23.4109 25.7627H18.0581Z" fill="#86888C"/>
</svg>
