<svg width="24" height="24" viewBox="0 0 24 24" fill="none" xmlns="http://www.w3.org/2000/svg">
<path fill-rule="evenodd" clip-rule="evenodd" d="M16.86 20.7763C16.9824 20.7763 17.082 20.6767 17.082 20.5515C17.082 20.4263 16.9824 20.3267 16.86 20.3267H7.84178C7.71941 20.3267 7.61696 20.4291 7.61696 20.5515C7.61696 20.6739 7.71656 20.7763 7.84178 20.7763H16.86ZM5.22083 13.9465C5.22083 16.2715 6.21969 18.0529 8.10928 19.1059H16.6466C18.4792 18.0757 19.4525 16.2971 19.4525 13.9465C19.4525 9.72908 16.066 8.42573 14.6061 8.05862H14.6033C13.8748 7.87934 13.1121 7.78543 12.3324 7.78543C11.4843 7.78543 10.6192 7.90495 9.79681 8.14684C9.78828 8.14969 9.77974 8.14969 9.7712 8.15253C7.29254 8.89528 5.22083 10.7735 5.22083 13.9465ZM10.1668 4.14001V6.79511C10.881 6.64143 11.6096 6.5646 12.3324 6.5646C12.9528 6.5646 13.5589 6.63574 14.1537 6.73819V4.14001C14.1537 3.63347 13.7439 3.22368 13.2402 3.22368H11.0774C10.5766 3.22368 10.1668 3.63347 10.1668 4.14001ZM20.6676 13.9465C20.6676 16.428 19.7484 18.3916 18.0011 19.6836C18.1861 19.9254 18.2999 20.2271 18.2999 20.5544C18.2999 21.3512 17.654 22 16.86 22H7.84178C7.04781 22 6.39898 21.3512 6.39898 20.5544C6.39898 20.2157 6.52134 19.9084 6.71485 19.6608C4.95618 18.3517 4 16.3597 4 13.9465C4 10.3153 6.21685 8.107 8.94878 7.13944V4.14001C8.94878 2.95902 9.90495 2 11.0774 2H13.2402C14.4155 2 15.3688 2.95902 15.3688 4.14001V7.00854C18.6983 8.01878 20.6676 10.5771 20.6676 13.9465ZM9.20774 12.5919V15.4832C9.20774 15.8845 9.53216 16.2117 9.93341 16.2117H14.4866C14.8879 16.2117 15.2123 15.8845 15.2123 15.4832V12.5919C15.2123 12.1907 14.8879 11.8634 14.4866 11.8634H9.93341C9.53216 11.8634 9.20774 12.1907 9.20774 12.5919ZM9.93341 17.4326C8.86056 17.4326 7.98976 16.5589 7.98976 15.4832V12.5919C7.98976 11.5162 8.86056 10.6397 9.93341 10.6397H14.4866C15.5566 10.6397 16.4303 11.5162 16.4303 12.5919V15.4832C16.4303 16.5589 15.5595 17.4326 14.4866 17.4326H9.93341ZM12.4178 4.90552C12.4178 5.09903 12.5629 5.25839 12.7393 5.25839C12.9158 5.25839 13.0609 5.09903 13.0609 4.90552C13.0609 4.71201 12.9158 4.5498 12.7393 4.5498C12.5629 4.5498 12.4178 4.70916 12.4178 4.90552ZM13.8719 4.90552C13.8719 5.54866 13.3625 6.07513 12.7393 6.07513C12.1133 6.07513 11.6067 5.54866 11.6067 4.90552C11.6067 4.25953 12.1161 3.73591 12.7393 3.73591C13.3654 3.73307 13.8719 4.25953 13.8719 4.90552ZM16.5896 4.12294C16.4331 4.12294 16.2766 4.06318 16.1599 3.94365C15.9209 3.70461 15.9209 3.31759 16.1599 3.07854L16.8828 2.35003C17.1218 2.11098 17.506 2.11098 17.745 2.35003C17.9841 2.58907 17.9841 2.9761 17.745 3.21514L17.0222 3.94081C16.9027 4.06318 16.7462 4.12294 16.5896 4.12294ZM16.7718 4.73762C16.7718 4.39898 17.045 4.12578 17.3808 4.12578H18.7069C19.0427 4.12578 19.3159 4.39898 19.3159 4.73762C19.3159 5.07627 19.0427 5.34946 18.7069 5.34946H17.3808C17.0421 5.34661 16.7718 5.07342 16.7718 4.73762ZM16.2112 5.53443C16.4502 5.29539 16.8344 5.29539 17.0734 5.53443L17.8389 6.30279C18.078 6.54183 18.078 6.92886 17.8389 7.1679C17.7194 7.28742 17.5657 7.34718 17.4092 7.34718C17.2527 7.34718 17.0962 7.28742 16.9795 7.1679L16.214 6.39954C15.975 6.1605 15.975 5.77348 16.2112 5.53443ZM11.3392 13.5851C11.1144 13.5851 10.9323 13.403 10.9323 13.1781C10.9323 12.9533 11.1144 12.7712 11.3392 12.7712H13.0381C13.2629 12.7712 13.4451 12.9533 13.4451 13.1781C13.4451 13.403 13.2629 13.5851 13.0381 13.5851H11.3392ZM10.6989 15.2015C10.4741 15.2015 10.292 15.0194 10.292 14.7945C10.292 14.5697 10.4741 14.3876 10.6989 14.3876H13.6727C13.8976 14.3876 14.0797 14.5697 14.0797 14.7945C14.0797 15.0194 13.8976 15.2015 13.6727 15.2015H10.6989Z" fill="#86888C"/>
</svg>
