<svg width="31" height="20" viewBox="0 0 31 20" fill="none" xmlns="http://www.w3.org/2000/svg">
<path d="M10 20H3.34356C2.22174 20 1.40228 19.7283 0.841367 19.1762C0.276074 18.6153 0 17.7914 0 16.6564V3.34356C0 2.23926 0.271692 1.42857 0.836985 0.858895C1.40666 0.280455 2.22612 0 3.34356 0H10C11.1262 0 11.9457 0.276074 12.511 0.841367C13.0719 1.40228 13.3436 2.22174 13.3436 3.34356V16.6564C13.3436 17.787 13.0675 18.6109 12.5022 19.1718C11.9413 19.7283 11.1218 20 10 20ZM3.34356 1.13935C1.77914 1.13935 1.13935 1.77914 1.13935 3.34356V16.6564C1.13935 18.2647 1.73532 18.8606 3.34356 18.8606H10C11.6082 18.8606 12.2042 18.2647 12.2042 16.6564V3.34356C12.2042 2.53725 12.0421 1.98072 11.7046 1.6433C11.3672 1.30587 10.8107 1.13935 10 1.13935H3.34356Z" fill="#86888C"/>
<path d="M6.66899 15.6484C6.15628 15.6484 5.82324 15.9157 5.82324 16.4942C5.82324 16.7703 5.90212 16.9806 6.03797 17.1164C6.18696 17.2654 6.40168 17.3399 6.66899 17.3399C6.9363 17.3399 7.15103 17.2654 7.30002 17.1164C7.43586 16.9762 7.51474 16.7703 7.51474 16.4942C7.51474 15.9157 7.1817 15.6484 6.66899 15.6484Z" fill="#86888C"/>
<path d="M6.66917 17.6293C6.32299 17.6293 6.03377 17.5242 5.83657 17.3182C5.63938 17.1166 5.54297 16.8405 5.54297 16.4944C5.54297 15.7845 5.96365 15.3638 6.66917 15.3638C7.3747 15.3638 7.79538 15.7888 7.79538 16.4944C7.79538 16.8405 7.69459 17.1166 7.50178 17.3182C7.30896 17.5198 7.01974 17.6293 6.66917 17.6293ZM6.66917 15.9334C6.28355 15.9334 6.10826 16.1087 6.10826 16.4987C6.10826 16.6916 6.15208 16.8362 6.23973 16.9238C6.32737 17.0158 6.47198 17.064 6.66479 17.064C6.85761 17.064 7.00222 17.0158 7.08986 16.9238C7.1775 16.8362 7.22132 16.6916 7.22132 16.4987C7.23009 16.1087 7.05918 15.9334 6.66917 15.9334Z" fill="#86888C"/>
<path d="M27.458 20H20.8016C19.6797 20 18.8603 19.7283 18.2994 19.1762C17.7341 18.6153 17.458 17.7914 17.458 16.6608V3.34356C17.458 2.23926 17.7297 1.42857 18.295 0.858895C18.8647 0.280455 19.6841 0 20.8016 0H27.458C28.5842 0 29.4037 0.276074 29.969 0.841367C30.5299 1.40228 30.8016 2.22174 30.8016 3.34356V16.6564C30.8016 17.787 30.5255 18.6109 29.9602 19.1718C29.3993 19.7283 28.5842 20 27.458 20ZM20.8016 1.13935C19.2371 1.13935 18.5974 1.77914 18.5974 3.34356V16.6564C18.5974 18.2647 19.1933 18.8606 20.8016 18.8606H27.458C29.0662 18.8606 29.6622 18.2647 29.6622 16.6564V3.34356C29.6622 2.53725 29.5001 1.98072 29.1627 1.6433C28.8252 1.30587 28.2687 1.13935 27.458 1.13935H20.8016Z" fill="#86888C"/>
<path d="M24.1319 15.6484C23.6192 15.6484 23.2861 15.9157 23.2861 16.4942C23.2861 16.7703 23.365 16.9806 23.5009 17.1164C23.6498 17.2654 23.8646 17.3399 24.1319 17.3399C24.3992 17.3399 24.6139 17.2654 24.7629 17.1164C24.8988 16.9762 24.9776 16.7703 24.9776 16.4942C24.9732 15.9157 24.6402 15.6484 24.1319 15.6484Z" fill="#86888C"/>
<path d="M24.1321 17.6293C23.7859 17.6293 23.4967 17.5242 23.2995 17.3182C23.1023 17.1166 23.0059 16.8405 23.0059 16.4944C23.0059 15.7845 23.4265 15.3638 24.1321 15.3638C24.8376 15.3638 25.2583 15.7888 25.2583 16.4944C25.2583 16.8405 25.1575 17.1166 24.9647 17.3182C24.7675 17.5198 24.4783 17.6293 24.1321 17.6293ZM24.1321 15.9334C23.7464 15.9334 23.5712 16.1087 23.5712 16.4987C23.5712 16.6916 23.615 16.8362 23.7026 16.9238C23.7903 17.0158 23.9349 17.064 24.1277 17.064C24.3205 17.064 24.4651 17.0158 24.5527 16.9238C24.6404 16.8362 24.6842 16.6916 24.6842 16.4987C24.6886 16.1087 24.5177 15.9334 24.1321 15.9334Z" fill="#86888C"/>
<path d="M22.6429 7.98852C22.6429 10.701 20.443 12.9053 17.7261 12.9053H13.1775C10.4649 12.9053 8.26074 10.7054 8.26074 7.98852C8.26074 5.27598 10.4606 3.07178 13.1775 3.07178H17.7261C20.4387 3.07616 22.6429 5.27598 22.6429 7.98852Z" fill="#86888C"/>
<path d="M13.4004 9.13212C13.1813 8.87795 13.0674 8.51424 13.0674 8.0322C13.0674 7.75175 13.1024 7.50635 13.1726 7.30039C13.2427 7.09443 13.3435 6.92791 13.4705 6.80083C13.6896 6.58172 14.0052 6.47217 14.4127 6.47217C14.531 6.47217 14.6493 6.48093 14.7764 6.50284C14.9035 6.52475 15.0174 6.55105 15.1138 6.58172L15.0612 6.87094C14.9692 6.84465 14.8641 6.82274 14.7545 6.80959C14.6406 6.79206 14.5398 6.78768 14.4478 6.78768C14.2812 6.78768 14.1366 6.80959 14.0183 6.85341C13.9 6.89723 13.8036 6.96735 13.7247 7.05937C13.5538 7.25657 13.4662 7.57208 13.4662 8.01029C13.4662 8.40907 13.5407 8.70705 13.6896 8.89986C13.7641 9.00065 13.8649 9.07077 13.9876 9.11897C14.1103 9.16717 14.2637 9.18908 14.4478 9.18908C14.5836 9.18908 14.7151 9.18032 14.8421 9.15841V8.26446H14.347V7.96647H15.2102V9.38628C15.1095 9.41695 14.9868 9.44325 14.8378 9.46516C14.6888 9.48707 14.5485 9.49583 14.4171 9.49583C13.957 9.50021 13.6151 9.37751 13.4004 9.13212Z" fill="white"/>
<path d="M15.9072 6.5293H16.6872C16.8801 6.5293 17.0378 6.54682 17.1649 6.58188C17.2876 6.61694 17.3884 6.66952 17.4673 6.7484C17.59 6.8711 17.6513 7.03762 17.6513 7.25673C17.6513 7.4101 17.6163 7.54157 17.5505 7.64674C17.4848 7.75629 17.3884 7.83517 17.2613 7.89214C17.441 7.93596 17.5856 8.01922 17.6864 8.14192C17.7872 8.26462 17.8354 8.42675 17.8354 8.61957C17.8354 8.87811 17.7609 9.07531 17.6163 9.21115C17.533 9.28565 17.4191 9.347 17.2876 9.38206C17.1517 9.4215 16.9896 9.43902 16.7924 9.43902H15.9072V6.5293ZM16.661 7.79135C16.788 7.79135 16.8888 7.7782 16.9677 7.75629C17.0422 7.73438 17.1079 7.69932 17.1561 7.65112C17.2306 7.56786 17.2701 7.45392 17.2701 7.30055C17.2701 7.14279 17.2306 7.02886 17.1517 6.94998C17.1079 6.90616 17.0466 6.8711 16.9677 6.85357C16.8888 6.83605 16.788 6.82728 16.661 6.82728H16.2929V7.78696H16.661V7.79135ZM16.6741 9.14542C16.845 9.14542 16.9808 9.13666 17.0729 9.11475C17.1649 9.09284 17.2438 9.05778 17.2964 9.00958C17.3928 8.92194 17.441 8.79047 17.441 8.61957C17.441 8.45305 17.3971 8.32597 17.3139 8.24271C17.2569 8.19012 17.1824 8.15068 17.0948 8.12877C17.0028 8.10686 16.8801 8.09371 16.7267 8.09371H16.2885V9.1498H16.6741V9.14542Z" fill="white"/>
</svg>
