<svg width="20" height="20" viewBox="0 0 20 20" fill="none" xmlns="http://www.w3.org/2000/svg">
<path d="M7.57766 14.7862C7.34223 14.7862 7.15065 14.5968 7.15065 14.3639C7.15065 14.2543 7.19451 14.1493 7.27068 14.0717C7.86156 13.4668 8.73173 13.1586 9.8581 13.1586C10.9822 13.1586 11.85 13.4645 12.4409 14.0649C12.6048 14.2315 12.6002 14.5009 12.4317 14.663C12.2632 14.825 11.9908 14.8205 11.8269 14.6538C11.4046 14.2224 10.7421 14.0032 9.8581 14.0032C8.97408 14.0032 8.30703 14.2224 7.88464 14.6561C7.80386 14.7383 7.69307 14.7862 7.57766 14.7862ZM6.3982 12.9463C6.16277 12.9463 5.97119 12.7568 5.97119 12.524C5.97119 12.4144 6.01505 12.3094 6.09121 12.2295C6.94292 11.3552 8.2124 10.9124 9.86041 10.9124C11.5038 10.9124 12.7687 11.3529 13.6204 12.2204C13.7843 12.387 13.7796 12.6564 13.6111 12.8185C13.4426 12.9806 13.1703 12.976 13.0064 12.8093C12.3209 12.1108 11.2615 11.757 9.8581 11.757C8.45014 11.757 7.38839 12.1131 6.70518 12.8162C6.6244 12.8984 6.5136 12.9463 6.3982 12.9463Z" fill="#86888C"/>
<path d="M12.9671 18.0255H6.72592C5.87421 18.0255 5.20254 17.7995 4.73399 17.3521C4.24697 16.8887 4 16.2061 4 15.3295L4.00231 10.7252C4.00231 10.6042 4 10.554 4 10.5357V10.506C4 9.62715 4.24697 8.94688 4.73399 8.48348C5.20254 8.03605 5.8719 7.81006 6.72592 7.81006H12.9671C13.8188 7.81006 14.4882 8.03605 14.9591 8.4812C15.4461 8.9446 15.7 9.62258 15.7092 10.4992V15.3341C15.6977 16.2107 15.4461 16.891 14.9591 17.3521C14.4882 17.7995 13.8188 18.0255 12.9671 18.0255ZM4.85632 10.4878V10.5311C4.85632 10.5631 4.85632 10.6179 4.85863 10.7183V10.7206L4.85632 15.3295C4.85632 16.5919 5.44951 17.1786 6.72592 17.1786H12.9694C14.2412 17.1786 14.8413 16.5896 14.8575 15.325V10.506C14.8413 9.24136 14.2412 8.6524 12.9694 8.6524H6.72592C5.45413 8.65469 4.86094 9.2368 4.85632 10.4878Z" fill="#86888C"/>
<path d="M6.36109 8.6523C6.12566 8.6523 5.93408 8.46283 5.93408 8.22999V5.66414C5.93408 3.65758 7.65827 2.02539 9.77945 2.02539H9.93179C12.053 2.02539 13.7772 3.65758 13.7772 5.66414C13.7841 5.89699 13.5994 6.0933 13.364 6.10015C13.1286 6.107 12.9301 5.92438 12.9231 5.69154V5.66414C12.9231 4.12555 11.5821 2.8723 9.93179 2.8723H9.77945C8.13143 2.8723 6.7881 4.12555 6.7881 5.66414V8.22999C6.7881 8.46283 6.59652 8.6523 6.36109 8.6523ZM9.85562 15.0601C9.52094 15.0601 9.30397 15.2313 9.30397 15.6011C9.30397 15.7791 9.35475 15.9115 9.44246 16.0006C9.5394 16.0964 9.6802 16.1444 9.85562 16.1444C10.031 16.1444 10.1718 16.0987 10.2688 16.0006C10.3588 15.9115 10.4073 15.7791 10.4073 15.6011C10.4073 15.2313 10.1903 15.0601 9.85562 15.0601Z" fill="#86888C"/>
</svg>
