<svg width="40" height="40" viewBox="0 0 40 40" fill="none" xmlns="http://www.w3.org/2000/svg">
<path d="M16.0496 30.737C15.5199 30.737 15.0888 30.3107 15.0888 29.7868C15.0888 29.5402 15.1875 29.304 15.3589 29.1293C16.6884 27.7682 18.6463 27.0748 21.1806 27.0748C23.7098 27.0748 25.6624 27.7631 26.9919 29.1139C27.3607 29.4889 27.3503 30.0949 26.9712 30.4596C26.5921 30.8243 25.9792 30.814 25.6105 30.4391C24.6601 29.4683 23.1697 28.9752 21.1806 28.9752C19.1916 28.9752 17.6907 29.4683 16.7403 30.4442C16.5586 30.6291 16.3093 30.737 16.0496 30.737ZM13.3958 26.5971C12.8661 26.5971 12.4351 26.1708 12.4351 25.6469C12.4351 25.4004 12.5337 25.1641 12.7051 24.9844C14.6214 23.0172 17.4778 22.0208 21.1858 22.0208C24.8834 22.0208 27.7294 23.012 29.6457 24.9638C30.0145 25.3388 30.0041 25.9448 29.625 26.3095C29.2458 26.6742 28.633 26.6639 28.2643 26.289C26.7219 24.7173 24.3382 23.9212 21.1806 23.9212C18.0127 23.9212 15.6238 24.7224 14.0865 26.3044C13.9048 26.4893 13.6555 26.5971 13.3958 26.5971Z" fill="#86888C"/>
<path d="M28.1761 38.0253H14.1333C12.217 38.0253 10.7057 37.5168 9.65148 36.5101C8.55569 35.4674 8 33.9317 8 31.9593L8.00519 21.5995C8.00519 21.3273 8 21.2143 8 21.1732V21.1064C8 19.129 8.55569 17.5984 9.65148 16.5557C10.7057 15.549 12.2118 15.0405 14.1333 15.0405H28.1761C30.0924 15.0405 31.5985 15.549 32.6579 16.5506C33.7537 17.5932 34.325 19.1187 34.3457 21.091V31.9696C34.3198 33.9419 33.7537 35.4725 32.6579 36.5101C31.5985 37.5168 30.0924 38.0253 28.1761 38.0253ZM9.92672 21.0654V21.1629C9.92672 21.2348 9.92672 21.3581 9.93192 21.5841V21.5892L9.92672 31.9593C9.92672 34.7997 11.2614 36.1197 14.1333 36.1197H28.1813C31.0428 36.1197 32.393 34.7946 32.4294 31.9491V21.1064C32.393 18.261 31.0428 16.9358 28.1813 16.9358H14.1333C11.2718 16.9409 9.93711 18.2507 9.92672 21.0654Z" fill="#86888C"/>
<path d="M13.3123 16.9359C12.7826 16.9359 12.3516 16.5096 12.3516 15.9857V10.2126C12.3516 5.69781 16.231 2.02539 21.0036 2.02539H21.3464C26.1191 2.02539 29.9985 5.69781 29.9985 10.2126C30.0141 10.7365 29.5986 11.1782 29.0689 11.1936C28.5391 11.209 28.0925 10.7981 28.0769 10.2742V10.2126C28.0769 6.75075 25.0596 3.93094 21.3464 3.93094H21.0036C17.2956 3.93094 14.2731 6.75075 14.2731 10.2126V15.9857C14.2731 16.5096 13.842 16.9359 13.3123 16.9359ZM21.175 31.3534C20.422 31.3534 19.9338 31.7386 19.9338 32.5707C19.9338 32.9713 20.0481 33.2692 20.2454 33.4695C20.4635 33.6853 20.7803 33.7931 21.175 33.7931C21.5697 33.7931 21.8865 33.6904 22.1046 33.4695C22.3072 33.2692 22.4162 32.9713 22.4162 32.5707C22.4162 31.7386 21.928 31.3534 21.175 31.3534Z" fill="#86888C"/>
</svg>
