<svg width="24" height="24" viewBox="0 0 24 24" fill="none" xmlns="http://www.w3.org/2000/svg">
<path d="M9.47195 17.9764C9.17766 17.9764 8.93819 17.7395 8.93819 17.4485C8.93819 17.3115 8.99301 17.1803 9.08822 17.0832C9.82683 16.3271 10.9145 15.9418 12.3225 15.9418C13.7276 15.9418 14.8124 16.3242 15.551 17.0747C15.7559 17.283 15.7501 17.6197 15.5395 17.8223C15.3289 18.0249 14.9884 18.0192 14.7836 17.8109C14.2556 17.2716 13.4275 16.9976 12.3225 16.9976C11.2175 16.9976 10.3837 17.2716 9.85568 17.8137C9.7547 17.9165 9.61621 17.9764 9.47195 17.9764ZM7.99763 15.6765C7.70334 15.6765 7.46387 15.4396 7.46387 15.1486C7.46387 15.0116 7.51869 14.8804 7.6139 14.7805C8.67853 13.6876 10.2654 13.134 12.3254 13.134C14.3796 13.134 15.9607 13.6848 17.0253 14.7691C17.2302 14.9774 17.2244 15.3141 17.0138 15.5167C16.8032 15.7193 16.4627 15.7136 16.2579 15.5053C15.401 14.6321 14.0767 14.1898 12.3225 14.1898C10.5625 14.1898 9.23537 14.635 8.38135 15.5138C8.28037 15.6166 8.14188 15.6765 7.99763 15.6765Z" fill="#86888C"/>
<path d="M16.2089 22.0254H8.4074C7.34277 22.0254 6.50318 21.7429 5.91749 21.1836C5.30871 20.6044 5 19.7512 5 18.6554L5.00289 12.9C5.00289 12.7488 5 12.686 5 12.6632V12.6261C5 11.5275 5.30871 10.6771 5.91749 10.0979C6.50318 9.5386 7.33988 9.2561 8.4074 9.2561H16.2089C17.2736 9.2561 18.1103 9.5386 18.6988 10.095C19.3076 10.6743 19.625 11.5218 19.6365 12.6175V18.6612C19.6221 19.7569 19.3076 20.6072 18.6988 21.1836C18.1103 21.7429 17.2736 22.0254 16.2089 22.0254ZM6.0704 12.6032V12.6574C6.0704 12.6974 6.0704 12.7659 6.07329 12.8914V12.8943L6.0704 18.6554C6.0704 20.2334 6.81189 20.9668 8.4074 20.9668H16.2118C17.8015 20.9668 18.5517 20.2306 18.5719 18.6497V12.6261C18.5517 11.0452 17.8015 10.309 16.2118 10.309H8.4074C6.81766 10.3119 6.07617 11.0395 6.0704 12.6032Z" fill="#86888C"/>
<path d="M7.95124 10.309C7.65695 10.309 7.41748 10.0722 7.41748 9.78114V6.57383C7.41748 4.06563 9.57271 2.02539 12.2242 2.02539H12.4146C15.0661 2.02539 17.2213 4.06563 17.2213 6.57383C17.23 6.86488 16.9992 7.11028 16.7049 7.11884C16.4106 7.1274 16.1625 6.89913 16.1538 6.60807V6.57383C16.1538 4.65059 14.4775 3.08403 12.4146 3.08403H12.2242C10.1642 3.08403 8.485 4.65059 8.485 6.57383V9.78114C8.485 10.0722 8.24553 10.309 7.95124 10.309ZM12.3194 18.3187C11.901 18.3187 11.6298 18.5327 11.6298 18.995C11.6298 19.2176 11.6933 19.3831 11.803 19.4944C11.9241 19.6142 12.1001 19.6741 12.3194 19.6741C12.5387 19.6741 12.7147 19.6171 12.8358 19.4944C12.9484 19.3831 13.009 19.2176 13.009 18.995C13.009 18.5327 12.7378 18.3187 12.3194 18.3187Z" fill="#86888C"/>
</svg>
