<svg width="20" height="20" viewBox="0 0 20 20" fill="none" xmlns="http://www.w3.org/2000/svg">
<path fill-rule="evenodd" clip-rule="evenodd" d="M16.9641 16.8139C16.9641 16.8981 16.8958 16.9641 16.8139 16.9641H7.74161C7.65737 16.9641 7.59135 16.8958 7.59135 16.8139V13.4445H12.2197C12.8958 13.4445 13.4468 12.8936 13.4468 12.2174V7.58907H16.8139C16.8981 7.58907 16.9641 7.65509 16.9641 7.73933V16.8139ZM3.03586 12.2197V3.22709C3.03586 3.12237 3.12237 3.03586 3.22709 3.03586H12.2174C12.3221 3.03586 12.4087 3.12237 12.4087 3.22709V12.2197C12.4087 12.3244 12.3221 12.4109 12.2174 12.4109H3.22482C3.12009 12.4087 3.03586 12.3244 3.03586 12.2197C3.03358 12.2197 3.03358 12.2197 3.03586 12.2197ZM16.8139 6.55322H13.4445V3.22709C13.4445 2.54866 12.8936 2 12.2174 2H3.22482C2.54866 2 2 2.54866 2 3.22709V12.2197C2 12.8958 2.55094 13.4468 3.22709 13.4468H6.55322V16.8139C6.55322 17.4673 7.08594 18 7.73933 18H16.8116C17.4673 18 17.9977 17.4673 17.9977 16.8139V7.73933C18 7.08594 17.4673 6.55322 16.8139 6.55322Z" fill="#86888C"/>
</svg>
