<svg width="40" height="40" viewBox="0 0 40 40" fill="none" xmlns="http://www.w3.org/2000/svg">
<path fill-rule="evenodd" clip-rule="evenodd" d="M35.6693 35.3312C35.6693 35.5208 35.5157 35.6693 35.3312 35.6693H14.9186C14.7291 35.6693 14.5805 35.5157 14.5805 35.3312V27.7501H24.9943C26.5157 27.7501 27.7553 26.5105 27.7553 24.9892V14.5754H35.3312C35.5208 14.5754 35.6693 14.724 35.6693 14.9135V35.3312ZM4.33068 24.9943V4.76096C4.33068 4.52533 4.52533 4.33068 4.76096 4.33068H24.9892C25.2248 4.33068 25.4195 4.52533 25.4195 4.76096V24.9943C25.4195 25.2299 25.2248 25.4246 24.9892 25.4246H4.75583C4.52021 25.4195 4.33068 25.2299 4.33068 24.9943C4.32556 24.9943 4.32556 24.9943 4.33068 24.9943ZM35.3312 12.2447H27.7501V4.76096C27.7501 3.23449 26.5105 2 24.9892 2H4.75583C3.23449 2 2 3.23449 2 4.76096V24.9943C2 26.5157 3.23961 27.7553 4.76096 27.7553H12.2447V35.3312C12.2447 36.8014 13.4434 38 14.9135 38H35.3261C36.8014 38 37.9949 36.8014 37.9949 35.3312V14.9135C38 13.4434 36.8014 12.2447 35.3312 12.2447Z" fill="#86888C"/>
</svg>
