<svg width="40" height="40" viewBox="0 0 40 40" fill="none" xmlns="http://www.w3.org/2000/svg">
<path d="M6.61342 28.0447C3.69483 28.0447 2.02048 26.3806 2.02048 23.4723V15.6484C2.02048 14.2301 2.40963 13.1139 3.1828 12.3304C3.97645 11.5214 5.13364 11.1118 6.61342 11.1118L23.3569 11.1016C24.8367 11.1016 25.9939 11.5112 26.7875 12.3202C27.5607 13.1036 27.9498 14.2198 27.9498 15.6382V23.462C27.9498 26.3653 26.2755 28.0345 23.3569 28.0345L6.61342 28.0447ZM23.3569 13.0678L6.61342 13.078C4.7701 13.078 3.98669 13.8461 3.98669 15.6484V23.4723C3.98669 25.3002 4.77522 26.0785 6.61342 26.0785L23.3569 26.0683C25.2002 26.0683 25.9836 25.29 25.9836 23.462V15.6382C25.9836 13.8358 25.2002 13.0678 23.3569 13.0678ZM3.00358 31.1016C2.45059 31.1016 2 30.651 2 30.098C2 29.545 2.45059 29.0944 3.00358 29.0944L26.9667 29.0842C27.5197 29.0842 27.9703 29.5347 27.9703 30.0877C27.9703 30.6407 27.5197 31.0913 26.9667 31.0913L3.00358 31.1016Z" fill="#86888C"/>
<path d="M10.1818 30.7939C9.93089 30.7939 9.68512 30.7017 9.49055 30.5174C9.09116 30.1333 9.0758 29.4984 9.45982 29.099L11.8613 26.585C12.2453 26.1856 12.8802 26.1702 13.2796 26.5542C13.679 26.9383 13.6943 27.5732 13.3103 27.9726L10.9089 30.4866C10.7143 30.6863 10.448 30.7939 10.1818 30.7939ZM19.7568 30.9219C19.4957 30.9219 19.2345 30.8195 19.0348 30.6147L16.403 27.9009C16.019 27.5015 16.0292 26.8666 16.4235 26.4826C16.8229 26.0985 17.4578 26.1088 17.8418 26.503L20.4736 29.2168C20.8577 29.6162 20.8474 30.2511 20.4532 30.6351C20.2586 30.8297 20.0077 30.9219 19.7568 30.9219ZM35.2765 31.0601H31.6257C30.7604 31.0601 30.0333 30.6659 29.5776 29.9439C29.1884 29.3243 28.999 28.4846 28.999 27.3735L28.9888 14.798C28.9888 13.6869 29.1782 12.8471 29.5725 12.2276C30.0282 11.5107 30.7553 11.1113 31.6206 11.1113H35.2714C36.065 11.1113 37.9186 11.4698 37.9186 14.798L37.9237 27.3735C37.9237 30.7017 36.0702 31.0601 35.2765 31.0601ZM31.6206 13.0519C31.3902 13.0519 31.298 13.1236 31.2161 13.2619C31.1086 13.4308 30.9345 13.8507 30.9345 14.798L30.9396 27.3735C30.9396 28.3207 31.1137 28.7406 31.2212 28.9096C31.3083 29.0478 31.3953 29.1195 31.6257 29.1195H35.2765C35.512 29.1195 35.6042 29.0427 35.6964 28.9045C35.8039 28.7355 35.9831 28.3156 35.9831 27.3786L35.978 14.8031C35.978 13.8609 35.7988 13.4411 35.6913 13.2721C35.6042 13.1339 35.5069 13.0571 35.2714 13.0571H31.6206V13.0519Z" fill="#86888C"/>
</svg>
