<svg width="28" height="28" viewBox="0 0 28 28" fill="none" xmlns="http://www.w3.org/2000/svg">
<path d="M4.99872 20.1146C3.10164 20.1146 2.01331 19.0329 2.01331 17.1425V12.057C2.01331 11.1351 2.26626 10.4096 2.76882 9.90033C3.28469 9.37448 4.03687 9.10822 4.99872 9.10822L15.882 9.10156C16.8438 9.10156 17.596 9.36782 18.1119 9.89368C18.6144 10.4029 18.8674 11.1284 18.8674 12.0504V17.1359C18.8674 19.023 17.7791 20.108 15.882 20.108L4.99872 20.1146ZM15.882 10.3796L4.99872 10.3863C3.80056 10.3863 3.29135 10.8855 3.29135 12.057V17.1425C3.29135 18.3307 3.80389 18.8366 4.99872 18.8366L15.882 18.8299C17.0801 18.8299 17.5893 18.324 17.5893 17.1359V12.0504C17.5893 10.8788 17.0801 10.3796 15.882 10.3796ZM2.65233 22.1016C2.29288 22.1016 2 21.8087 2 21.4492C2 21.0898 2.29288 20.7969 2.65233 20.7969L18.2284 20.7902C18.5878 20.7902 18.8807 21.0831 18.8807 21.4426C18.8807 21.802 18.5878 22.0949 18.2284 22.0949L2.65233 22.1016Z" fill="#86888C"/>
<path d="M7.3179 21.902C7.15481 21.902 6.99506 21.8421 6.86859 21.7223C6.60899 21.4727 6.599 21.06 6.84862 20.8004L8.40955 19.1663C8.65916 18.9067 9.07186 18.8967 9.33146 19.1463C9.59106 19.3959 9.60105 19.8086 9.35143 20.0682L7.7905 21.7024C7.66403 21.8322 7.49096 21.902 7.3179 21.902ZM13.5417 21.9853C13.3719 21.9853 13.2022 21.9187 13.0724 21.7856L11.3617 20.0216C11.1121 19.762 11.1187 19.3493 11.375 19.0997C11.6346 18.8501 12.0473 18.8567 12.2969 19.113L14.0076 20.877C14.2572 21.1366 14.2506 21.5493 13.9943 21.7989C13.8678 21.9253 13.7047 21.9853 13.5417 21.9853ZM23.6295 22.0751H21.2565C20.694 22.0751 20.2214 21.8188 19.9252 21.3496C19.6722 20.9469 19.5491 20.401 19.5491 19.6788L19.5424 11.5047C19.5424 10.7825 19.6656 10.2367 19.9218 9.83395C20.218 9.368 20.6907 9.1084 21.2531 9.1084H23.6261C24.142 9.1084 25.3468 9.34137 25.3468 11.5047L25.3502 19.6788C25.3502 21.8421 24.1453 22.0751 23.6295 22.0751ZM21.2531 10.3698C21.1034 10.3698 21.0434 10.4164 20.9902 10.5062C20.9203 10.6161 20.8071 10.889 20.8071 11.5047L20.8105 19.6788C20.8105 20.2945 20.9236 20.5674 20.9935 20.6773C21.0501 20.7671 21.1067 20.8137 21.2565 20.8137H23.6295C23.7826 20.8137 23.8425 20.7638 23.9024 20.6739C23.9723 20.5641 24.0888 20.2912 24.0888 19.6821L24.0854 11.508C24.0854 10.8956 23.9689 10.6227 23.8991 10.5129C23.8425 10.423 23.7792 10.3731 23.6261 10.3731H21.2531V10.3698Z" fill="#86888C"/>
</svg>
