<svg width="24" height="24" viewBox="0 0 24 24" fill="none" xmlns="http://www.w3.org/2000/svg">
<path d="M5.53738 16.4203C3.93216 16.4203 3.01126 15.505 3.01126 13.9055V9.60233C3.01126 8.82225 3.22529 8.20832 3.65054 7.77745C4.08705 7.33249 4.7235 7.10719 5.53738 7.10719L14.7463 7.10156C15.5602 7.10156 16.1966 7.32686 16.6331 7.77181C17.0584 8.20269 17.2724 8.81662 17.2724 9.5967V13.8998C17.2724 15.4966 16.3515 16.4147 14.7463 16.4147L5.53738 16.4203ZM14.7463 8.18298L5.53738 8.18861C4.52355 8.18861 4.09268 8.61103 4.09268 9.60233V13.9055C4.09268 14.9108 4.52637 15.3389 5.53738 15.3389L14.7463 15.3333C15.7601 15.3333 16.191 14.9052 16.191 13.8998V9.5967C16.191 8.6054 15.7601 8.18298 14.7463 8.18298ZM3.55197 18.1016C3.24782 18.1016 3 17.8537 3 17.5496C3 17.2454 3.24782 16.9976 3.55197 16.9976L16.7317 16.992C17.0358 16.992 17.2837 17.2398 17.2837 17.544C17.2837 17.8481 17.0358 18.0959 16.7317 18.0959L3.55197 18.1016Z" fill="#86888C"/>
<path d="M7.50006 17.9328C7.36206 17.9328 7.22689 17.8821 7.11987 17.7807C6.90021 17.5695 6.89176 17.2203 7.10298 17.0007L8.42376 15.6179C8.63498 15.3983 8.98418 15.3898 9.20385 15.601C9.42351 15.8122 9.43196 16.1614 9.22074 16.3811L7.89996 17.7638C7.79294 17.8737 7.6465 17.9328 7.50006 17.9328ZM12.7663 18.0032C12.6227 18.0032 12.4791 17.9469 12.3692 17.8343L10.9217 16.3417C10.7105 16.122 10.7161 15.7728 10.933 15.5616C11.1526 15.3504 11.5018 15.356 11.7131 15.5729L13.1606 17.0654C13.3718 17.2851 13.3662 17.6343 13.1493 17.8455C13.0423 17.9525 12.9043 18.0032 12.7663 18.0032ZM21.3022 18.0793H19.2942C18.8183 18.0793 18.4184 17.8624 18.1677 17.4653C17.9537 17.1246 17.8495 16.6627 17.8495 16.0516L17.8439 9.13507C17.8439 8.52396 17.9481 8.06211 18.1649 7.72135C18.4156 7.32708 18.8155 7.10742 19.2914 7.10742H21.2993C21.7358 7.10742 22.7553 7.30455 22.7553 9.13507L22.7581 16.0516C22.7581 17.8821 21.7387 18.0793 21.3022 18.0793ZM19.2914 8.17475C19.1647 8.17475 19.114 8.21418 19.0689 8.29022C19.0098 8.38315 18.914 8.61408 18.914 9.13507L18.9169 16.0516C18.9169 16.5726 19.0126 16.8035 19.0717 16.8965C19.1196 16.9725 19.1675 17.0119 19.2942 17.0119H21.3022C21.4317 17.0119 21.4824 16.9697 21.5331 16.8936C21.5922 16.8007 21.6908 16.5698 21.6908 16.0544L21.688 9.13789C21.688 8.61971 21.5894 8.38878 21.5303 8.29585C21.4824 8.21981 21.4289 8.17757 21.2993 8.17757H19.2914V8.17475Z" fill="#86888C"/>
</svg>
