<svg width="28" height="28" viewBox="0 0 28 28" fill="none" xmlns="http://www.w3.org/2000/svg">
<path fill-rule="evenodd" clip-rule="evenodd" d="M23.2806 9.80294L22.4678 10.6123L17.3693 5.56843L18.2026 4.74201C20.4735 2.49158 22.4063 3.88828 23.1371 4.59517C23.2259 4.68396 23.325 4.78299 23.4069 4.86837C24.1172 5.60941 25.5344 7.57299 23.2806 9.80294ZM3.84961 22.9675L5.02776 24.1354L3.62764 24.3915L3.84961 22.9675ZM6.99135 19.9009L4.93556 17.869L16.3209 6.60657L18.3733 8.63845L6.99135 19.9009ZM6.79669 23.811L4.12622 21.1678L4.396 19.4125L8.52123 23.4934C8.52465 23.4934 6.79669 23.811 6.79669 23.811ZM10.0648 22.9436L8.03631 20.939L19.4183 9.67659L21.416 11.6538C21.4194 11.6538 10.0648 22.9436 10.0648 22.9436ZM24.4758 3.85413C24.3768 3.75169 24.2743 3.64924 24.1719 3.5502C22.4985 1.9247 19.7768 1.10853 17.1508 3.70729L3.36469 17.3499C3.29981 17.4114 3.24858 17.4865 3.21443 17.5685C3.20419 17.5958 3.19736 17.6231 3.19053 17.6504C3.18028 17.6846 3.16321 17.7187 3.15638 17.7529L2.00896 25.1906C1.9714 25.4262 2.05336 25.6653 2.22752 25.8292C2.40168 25.9931 2.64414 26.0648 2.87636 26.0239L10.0306 24.7091C10.0443 24.7091 10.0545 24.7159 10.0682 24.7159C10.2014 24.7125 10.3277 24.6715 10.4404 24.5998C10.4541 24.593 10.4677 24.5793 10.4848 24.5725C10.5224 24.5486 10.5634 24.5315 10.5941 24.5008C10.5975 24.4974 10.6009 24.4906 10.6043 24.4871C10.6112 24.4803 10.6214 24.4735 10.6282 24.4666L24.3358 10.8411C26.9277 8.26964 26.1081 5.54794 24.4758 3.85413Z" fill="#86888C"/>
</svg>
