<svg width="20" height="20" viewBox="0 0 20 20" fill="none" xmlns="http://www.w3.org/2000/svg">
<path fill-rule="evenodd" clip-rule="evenodd" d="M16.187 7.21368L15.6452 7.75324L12.2462 4.39067L12.8017 3.83973C14.3157 2.33944 15.6042 3.27057 16.0914 3.74183C16.1506 3.80103 16.2166 3.86705 16.2713 3.92396C16.7448 4.41799 17.6896 5.72705 16.187 7.21368ZM3.23307 15.99L4.01851 16.7687L3.08509 16.9394L3.23307 15.99ZM5.32756 13.9456L3.95704 12.5911L11.5473 5.08276L12.9155 6.43735L5.32756 13.9456ZM5.1978 16.5524L3.41748 14.7903L3.59733 13.6201L6.34749 16.3406C6.34977 16.3406 5.1978 16.5524 5.1978 16.5524ZM7.37652 15.9741L6.02421 14.6377L13.6122 7.12944L14.944 8.44761C14.9463 8.44761 7.37652 15.9741 7.37652 15.9741ZM16.9839 3.24781C16.9178 3.17951 16.8495 3.11121 16.7812 3.04519C15.6657 1.96152 13.8512 1.41741 12.1005 3.14991L2.90979 12.245C2.86654 12.286 2.83239 12.3361 2.80962 12.3907C2.80279 12.4089 2.79824 12.4271 2.79369 12.4453C2.78686 12.4681 2.77547 12.4909 2.77092 12.5136L2.00598 17.4721C1.98093 17.6292 2.03557 17.7886 2.15168 17.8979C2.26779 18.0071 2.42943 18.0549 2.58424 18.0276L7.35375 17.1511C7.36286 17.1511 7.36969 17.1557 7.3788 17.1557C7.46759 17.1534 7.55182 17.1261 7.62695 17.0783C7.63606 17.0737 7.64516 17.0646 7.65655 17.0601C7.68159 17.0441 7.70891 17.0327 7.7294 17.0122C7.73167 17.01 7.73395 17.0054 7.73623 17.0031C7.74078 16.9986 7.74761 16.994 7.75216 16.9895L16.8905 7.90577C18.6185 6.19148 18.0721 4.37701 16.9839 3.24781Z" fill="#86888C"/>
</svg>
