<svg width="40" height="40" viewBox="0 0 40 40" fill="none" xmlns="http://www.w3.org/2000/svg">
<path fill-rule="evenodd" clip-rule="evenodd" d="M9.96976 19.9941C10.989 19.9941 11.6498 20.532 11.6498 21.6895C11.6498 22.2478 11.4961 22.6576 11.2246 22.9393C10.9276 23.2415 10.4973 23.39 9.96976 23.39C9.44219 23.39 9.00683 23.2415 8.71488 22.9393C8.44341 22.6576 8.28976 22.2478 8.28976 21.6895C8.28976 20.532 8.95561 19.9941 9.96976 19.9941ZM35.7895 25.6232V17.3C35.7793 16.7673 35.3695 16.3115 34.8573 16.2654H32.0863V26.6629H34.7958C35.3439 26.6578 35.7895 26.1917 35.7895 25.6232ZM28.3422 29.7566C29.2027 29.7566 29.8993 29.0344 29.8993 28.1483V27.7846H29.8737V14.8568C29.8737 13.9707 29.1771 13.2485 28.3166 13.2485H11.7573C6.75829 13.4073 4.20756 16.1834 4.20756 21.4898C4.20756 26.7961 6.75829 29.5773 11.7932 29.7566H28.3422ZM34.7702 14.0117C36.5117 14.0117 37.9612 15.4715 37.9971 17.2693V25.618C37.9971 27.4261 36.5629 28.9012 34.7958 28.9012H32.0351C31.6919 30.6632 30.1656 32 28.3422 32H11.7573C5.45219 31.7695 2 28.0356 2 21.4846C2 14.9234 5.45219 11.1998 11.7215 11H28.3166C30.1144 11 31.6202 12.2959 31.9941 14.0168H33.2337V14.0117H34.7702Z" fill="#86888C"/>
</svg>
