<svg width="28" height="28" viewBox="0 0 28 28" fill="none" xmlns="http://www.w3.org/2000/svg">
<path fill-rule="evenodd" clip-rule="evenodd" d="M11.3392 3.83065C11.0933 4.07315 10.9669 4.47616 10.9669 5.02604C10.9669 6.10872 11.4246 6.5698 12.497 6.5698C13.5729 6.5698 14.0306 6.10872 14.0306 5.02604C14.0306 4.47616 13.9042 4.07315 13.6549 3.83065C13.4124 3.59499 13.023 3.47545 12.497 3.47545C11.9711 3.47204 11.5817 3.59158 11.3392 3.83065ZM12.4936 8.04525C10.6254 8.04525 9.50857 6.91817 9.50857 5.02604C9.50857 4.0629 9.7818 3.30468 10.3248 2.77188C10.8508 2.25957 11.5783 2 12.4936 2C13.409 2 14.1364 2.25957 14.6624 2.76846C15.2055 3.30127 15.4855 4.05948 15.4855 5.02604C15.4855 6.91817 14.3653 8.04525 12.4936 8.04525ZM17.5006 16.9253C17.5245 16.8706 17.5621 16.7613 17.5211 16.6316L15.6631 11.2933C15.6563 11.2796 15.6187 11.1874 15.6119 11.1738C15.2943 10.4258 14.5736 9.94421 13.7744 9.94421H11.2163C10.4171 9.94421 9.69641 10.4258 9.37878 11.1738C9.37537 11.1806 9.33097 11.2865 9.33097 11.2933L7.47299 16.6418C7.44225 16.7306 7.44908 16.8365 7.49348 16.9287C7.51739 16.9799 7.57545 17.0687 7.69499 17.1097C7.82819 17.1575 7.93065 17.1234 7.97847 17.0995C8.0297 17.0721 8.12533 17.0141 8.16973 16.8843L9.13287 13.9744C9.25583 13.5884 9.66568 13.3733 10.0482 13.4996C10.359 13.5987 10.5537 13.889 10.5537 14.1998C10.5537 14.2749 10.5434 14.3501 10.5195 14.4252L10.0755 15.8153L9.27291 18.8345H9.53589C9.93549 18.8345 10.2634 19.1624 10.2634 19.5688L10.2839 24.142C10.2839 24.2342 10.3044 24.5245 10.5639 24.5314C10.6527 24.5211 10.68 24.5109 10.6869 24.5041C10.7347 24.4562 10.7791 24.3299 10.7791 24.1489L10.7552 19.5756C10.7552 19.381 10.8303 19.1931 10.9669 19.0531C11.1036 18.913 11.288 18.8345 11.4827 18.8345H13.5217C13.7163 18.8345 13.9008 18.913 14.0374 19.0531C14.174 19.1931 14.2526 19.381 14.2491 19.5756L14.2286 24.1523C14.2286 24.1523 14.2321 24.528 14.4233 24.5348C14.5292 24.528 14.6043 24.5143 14.618 24.5006C14.6419 24.4767 14.6897 24.3709 14.6897 24.1489L14.7136 19.5688C14.717 19.1624 15.0415 18.8345 15.4411 18.8345H15.7007L14.8912 15.7948L14.4541 14.4252C14.4302 14.3501 14.4199 14.2749 14.4199 14.1998C14.4199 13.889 14.6146 13.5987 14.9254 13.4996C15.3045 13.3733 15.7178 13.5884 15.8407 13.9744L16.8073 16.8911C16.8517 17.0141 16.9439 17.0756 16.9985 17.1029C17.0498 17.1268 17.1488 17.1609 17.2649 17.1165C17.4186 17.0687 17.4767 16.9765 17.5006 16.9253ZM18.8975 16.15C19.058 16.6281 19.0239 17.1336 18.8087 17.5776C18.5935 18.0182 18.2247 18.3461 17.767 18.4998C17.5757 18.5715 17.3742 18.6227 17.1659 18.6057L17.3708 19.3741C17.4289 19.5961 17.3845 19.8318 17.2444 20.0128C17.1078 20.1972 16.8927 20.3031 16.6672 20.3031H16.1788L16.1583 24.1454C16.1583 24.7295 15.9842 25.2145 15.6495 25.5458C15.4377 25.7575 15.0586 26 14.4506 26H14.4062C13.467 25.9829 12.7839 25.2008 12.7839 24.142L12.801 20.3031H12.2272L12.2477 24.1386C12.2477 24.7124 12.0599 25.2145 11.7149 25.5526C11.4178 25.8463 11.0284 26 10.5844 26H10.54C9.56663 25.9761 8.83573 25.1769 8.83573 24.142L8.81866 20.3031H8.33026C8.10142 20.3031 7.88967 20.1972 7.75305 20.0128C7.61302 19.8318 7.56862 19.5961 7.62668 19.3741L7.83161 18.6022H7.82819C7.61985 18.6022 7.41493 18.5647 7.21684 18.493C6.77625 18.3427 6.40739 18.0148 6.19222 17.5776C5.97363 17.1302 5.93948 16.6281 6.1 16.1568L7.96139 10.8015C7.9853 10.7263 8.01604 10.6478 8.06385 10.5556C8.59666 9.30212 9.84328 8.46876 11.2265 8.46876H13.7846C15.1679 8.46876 16.4145 9.30212 16.961 10.5897C16.9883 10.6444 17.0224 10.7229 17.0532 10.8254L18.8975 16.15Z" fill="#86888C"/>
</svg>
