<svg width="28" height="28" viewBox="0 0 28 28" fill="none" xmlns="http://www.w3.org/2000/svg">
<path d="M13.6686 14.0171C11.7704 14.0171 10.2922 13.5186 9.26799 12.532C8.20626 11.5078 7.66686 9.98862 7.66686 8.01536C7.66686 6.04211 8.20626 4.51949 9.26799 3.49189C10.2922 2.50185 11.7704 2 13.6686 2C15.5667 2 17.0484 2.50185 18.076 3.49189C19.1445 4.51949 19.6839 6.04211 19.6839 8.01536C19.6839 9.98862 19.1411 11.5078 18.0725 12.532C17.0484 13.5186 15.5667 14.0171 13.6686 14.0171ZM13.6686 3.36558C12.1391 3.36558 10.9784 3.7377 10.2171 4.47511C9.43186 5.23642 9.03243 6.42788 9.03243 8.01878C9.03243 9.60967 9.43186 10.7943 10.2171 11.5522C10.975 12.2828 12.1357 12.6549 13.6686 12.6549C15.2014 12.6549 16.3656 12.2828 17.1303 11.5522C17.9189 10.7943 18.3218 9.60626 18.3218 8.02219C18.3184 4.88819 16.7957 3.36558 13.6686 3.36558ZM23.6543 26H3.68279C3.30725 26 3 25.6927 3 25.3172V23.3201C3 21.4083 3.59403 19.7798 4.72063 18.6054C5.94964 17.3252 7.77269 16.6458 9.99858 16.6458H17.3215C19.5474 16.6458 21.3772 17.3218 22.6063 18.602C23.7397 19.7798 24.3371 21.4083 24.3371 23.3201V25.3172C24.3371 25.6927 24.0299 26 23.6543 26ZM4.36558 24.6344H22.9715V23.3201C22.9715 21.7701 22.5038 20.466 21.623 19.5477C20.6398 18.5269 19.1923 18.0114 17.3215 18.0114H9.99858C8.12774 18.0114 6.68364 18.5269 5.70725 19.5477C4.82987 20.4626 4.36558 21.7667 4.36558 23.3201V24.6344Z" fill="#86888C"/>
</svg>
