<svg width="24" height="24" viewBox="0 0 24 24" fill="none" xmlns="http://www.w3.org/2000/svg">
<path fill-rule="evenodd" clip-rule="evenodd" d="M16.3581 14.7842C16.5317 14.7387 16.6313 14.5622 16.5858 14.3944L15.4192 10.1292C15.3964 10.0837 15.3822 10.0381 15.3708 9.98691C15.3679 9.97269 15.3623 9.95846 15.3594 9.94423C15.2001 9.17883 14.5115 8.62114 13.7176 8.62114H11.1141C10.3203 8.62114 9.62886 9.17883 9.46952 9.94423C9.46668 9.9613 9.46383 9.97553 9.45814 9.98976C9.44676 10.0353 9.43253 10.0808 9.41262 10.1235L8.24318 14.4001C8.20049 14.5651 8.29724 14.7387 8.46511 14.7842C8.57893 14.8155 8.66429 14.7813 8.70697 14.7557C8.74965 14.733 8.82363 14.6761 8.85208 14.5708L9.36709 11.7397C9.424 11.4267 9.70569 11.2104 10.0301 11.2389C10.3487 11.2673 10.5934 11.5319 10.5934 11.8478V20.4635C10.5934 20.5972 10.6333 20.7566 10.8268 20.7566C10.8837 20.7566 11.0288 20.7566 11.0288 20.4635V15.3276C11.0288 14.989 11.3048 14.7159 11.6462 14.7159H13.1656C13.5071 14.7159 13.7831 14.989 13.7831 15.3276V20.4635C13.7831 20.5375 13.8002 20.7765 14.005 20.7765C14.2156 20.7765 14.2326 20.5346 14.2326 20.4635V11.8478C14.2326 11.5319 14.4773 11.2673 14.7932 11.2389C15.1147 11.2218 15.3992 11.4295 15.4562 11.7397L15.9825 14.622C15.9996 14.6789 16.0736 14.733 16.1163 14.7586C16.1675 14.7785 16.2528 14.8126 16.3581 14.7842ZM17.7808 14.0785C17.9999 14.9037 17.5077 15.7488 16.6853 15.965C16.2955 16.076 15.8744 16.0248 15.5102 15.817C15.496 15.8085 15.4818 15.8028 15.4704 15.7943V20.4607C15.4704 21.337 14.8416 22 14.0079 22C13.177 22 12.551 21.337 12.551 20.4607V15.9366H12.2665V20.4607C12.2665 21.3399 11.6633 21.9772 10.8296 21.9772C9.99307 21.9772 9.3614 21.3257 9.3614 20.4607V15.7943C9.34717 15.8028 9.33579 15.8114 9.32157 15.8199C8.95736 16.0248 8.53909 16.076 8.14074 15.965C7.32697 15.7488 6.83472 14.9065 7.05097 14.0842L8.22041 9.80765C8.2261 9.77636 8.24318 9.71945 8.26878 9.6597C8.55901 8.34514 9.75121 7.39764 11.1141 7.39764H13.7176C15.0806 7.39764 16.2699 8.34514 16.5601 9.65685C16.5886 9.72229 16.6057 9.78489 16.6199 9.84749L17.7808 14.0785ZM11.1853 3.52511C10.9747 3.72713 10.8666 4.06288 10.8666 4.52383C10.8666 5.42581 11.2564 5.81278 12.1669 5.81278C13.0831 5.81278 13.4729 5.42581 13.4729 4.52383C13.4729 4.06573 13.3648 3.72998 13.1543 3.52511C12.9465 3.32594 12.6136 3.22635 12.1669 3.22635C11.7202 3.22635 11.3901 3.32594 11.1853 3.52511ZM12.1669 7.03628C10.5792 7.03628 9.62886 6.09447 9.62886 4.52098C9.62886 3.71575 9.86218 3.08693 10.3231 2.64305C10.767 2.21625 11.3873 2 12.1641 2C12.9437 2 13.564 2.21625 14.0079 2.64305C14.4688 3.08408 14.705 3.71575 14.705 4.52098C14.7078 6.09731 13.7603 7.03628 12.1669 7.03628Z" fill="#86888C"/>
</svg>
