<svg width="20" height="20" viewBox="0 0 20 20" fill="none" xmlns="http://www.w3.org/2000/svg">
<path fill-rule="evenodd" clip-rule="evenodd" d="M9.11862 5.47088C8.80374 5.78792 8.6463 6.30554 8.6463 7.00863C8.6463 7.70956 8.8059 8.22502 9.11646 8.5399C9.42056 8.84615 9.90582 8.99928 10.5572 8.99928C11.2085 8.99928 11.6959 8.844 12.0022 8.5399C12.317 8.22502 12.4766 7.70956 12.4766 7.00863C12.4766 6.30554 12.317 5.79008 12 5.47304C11.6937 5.16463 11.2085 5.00935 10.5572 5.00935C9.90798 5.00935 9.42488 5.16463 9.11862 5.47088ZM10.5593 10.0086C9.64702 10.0086 8.93746 9.75845 8.44788 9.26672C7.93674 8.75557 7.68009 7.99425 7.68009 7.00863C7.68009 6.02085 7.93889 5.26168 8.44788 4.74623C8.93961 4.25018 9.64917 4 10.5615 4C11.4716 4 12.1833 4.25234 12.6751 4.74623C13.1862 5.26168 13.4472 6.02301 13.4472 7.00863C13.4472 7.99425 13.1884 8.75342 12.6751 9.26672C12.179 9.75845 11.4694 10.0086 10.5593 10.0086ZM5.70237 8.68871C5.58591 8.80518 5.56866 9.07692 5.56866 9.22789C5.56866 9.37671 5.58591 9.6463 5.70022 9.76276C5.78648 9.84903 5.96549 9.89432 6.2092 9.89432C6.45291 9.89432 6.63408 9.84687 6.72035 9.7606C6.83681 9.64414 6.85406 9.37455 6.85406 9.22574C6.85406 9.07477 6.83681 8.80518 6.71819 8.68656C6.63192 8.60029 6.45076 8.55284 6.2092 8.55284C5.96549 8.555 5.78648 8.60245 5.70237 8.68871ZM6.2092 10.9037C5.70022 10.9037 5.30338 10.7656 5.02948 10.4896C4.74479 10.2027 4.60029 9.77786 4.60029 9.22789C4.60029 8.67577 4.74479 8.2509 5.02948 7.96406C5.30338 7.68799 5.70022 7.54781 6.2092 7.54781C6.71819 7.54781 7.11503 7.68799 7.39109 7.96406C7.67793 8.25306 7.82243 8.67793 7.82243 9.23005C7.82243 9.78002 7.67793 10.2049 7.39109 10.4939C7.11503 10.7656 6.71603 10.9037 6.2092 10.9037ZM14.4328 8.72969C14.3206 8.84184 14.3055 9.10065 14.3055 9.24515C14.3055 9.38749 14.3228 9.6463 14.4328 9.75629C14.5126 9.83609 14.6916 9.88354 14.9245 9.88354C15.1553 9.88354 15.3321 9.83825 15.4119 9.75845C15.4917 9.67865 15.537 9.49101 15.537 9.24515C15.537 9.10065 15.5198 8.83968 15.4098 8.72753C15.33 8.64774 15.1553 8.60245 14.9245 8.60245C14.6873 8.60029 14.5147 8.64558 14.4328 8.72969ZM13.7599 10.4853C13.4774 10.2049 13.335 9.78649 13.335 9.24515C13.335 8.70165 13.4774 8.28541 13.7599 8.00288C14.0295 7.73113 14.4198 7.5931 14.9224 7.5931C15.4206 7.5931 15.8131 7.73113 16.0827 8.00288C16.3609 8.28541 16.5032 8.70381 16.5032 9.24515C16.5032 9.78649 16.3609 10.2049 16.0805 10.4853C15.8109 10.757 15.4206 10.8929 14.9202 10.8929C14.422 10.8929 14.0316 10.7549 13.7599 10.4853ZM17.1891 14.1344V13.9145C17.1891 13.5306 17.0812 13.2092 16.8763 12.9849C16.6499 12.739 16.2962 12.6096 15.8541 12.6096L15.22 12.6075C15.4615 13.0453 15.5996 13.5651 15.6513 14.1344H17.1891ZM14.7132 14.9907V14.5787C14.7132 13.8217 14.5126 13.1919 14.1352 12.7563C13.6262 12.1718 12.8648 12.0489 12.3149 12.0489H8.79943C8.24946 12.0489 7.49029 12.1718 6.98347 12.7541C6.6082 13.1876 6.40978 13.8174 6.40978 14.5766V14.9885C6.40978 14.9907 14.7132 14.9907 14.7132 14.9907ZM5.4716 14.1474C5.52121 13.578 5.65708 13.0582 5.89648 12.6183L5.30554 12.6204C4.86125 12.6204 4.50755 12.7498 4.28325 12.9957C4.07836 13.2178 3.96837 13.5392 3.96837 13.9231V14.1452C3.96837 14.1474 5.4716 14.1474 5.4716 14.1474ZM17.5751 12.2861C17.9569 12.7002 18.1574 13.2631 18.1574 13.9145V14.4558C18.1574 14.8354 17.8598 15.1438 17.4953 15.1438H15.6815V15.6377C15.6815 15.8382 15.5349 16 15.3537 16H5.76923C5.58807 16 5.44141 15.8382 5.44141 15.6377V15.1567H3.66211C3.29763 15.1567 3 14.8462 3 14.4666V13.9252C3 13.2739 3.20058 12.7132 3.58231 12.2991C3.99425 11.8505 4.5895 11.6111 5.30554 11.6111H6.79367C7.33501 11.238 8.01438 11.0395 8.79943 11.0395H12.3127C13.0913 11.0395 13.762 11.2336 14.3012 11.5981H15.8519C16.5679 11.6003 17.1632 11.8375 17.5751 12.2861Z" fill="#86888C"/>
</svg>
