<svg width="40" height="40" viewBox="0 0 40 40" fill="none" xmlns="http://www.w3.org/2000/svg">
<path fill-rule="evenodd" clip-rule="evenodd" d="M16.7867 9.55464C16.0257 10.3208 15.6452 11.5717 15.6452 13.2708C15.6452 14.9648 16.0309 16.2105 16.7815 16.9714C17.5164 17.7115 18.6891 18.0816 20.2631 18.0816C21.8372 18.0816 23.0151 17.7063 23.7552 16.9714C24.5162 16.2105 24.9019 14.9648 24.9019 13.2708C24.9019 11.5717 24.5162 10.326 23.75 9.55985C23.0099 8.81452 21.8372 8.43925 20.2631 8.43925C18.6943 8.43925 17.5268 8.81452 16.7867 9.55464ZM20.2683 20.5208C18.0636 20.5208 16.3489 19.9162 15.1657 18.7279C13.9304 17.4926 13.3102 15.6528 13.3102 13.2708C13.3102 10.8837 13.9357 9.04907 15.1657 7.80338C16.3541 6.6046 18.0688 6 20.2736 6C22.473 6 24.193 6.60981 25.3814 7.80338C26.6166 9.04907 27.2473 10.8889 27.2473 13.2708C27.2473 15.6528 26.6219 17.4874 25.3814 18.7279C24.1826 19.9162 22.4678 20.5208 20.2683 20.5208ZM8.53074 17.3311C8.24928 17.6125 8.20759 18.2692 8.20759 18.6341C8.20759 18.9937 8.24928 19.6452 8.52552 19.9267C8.73401 20.1352 9.16661 20.2446 9.75557 20.2446C10.3445 20.2446 10.7824 20.1299 10.9908 19.9215C11.2723 19.64 11.314 18.9885 11.314 18.6289C11.314 18.264 11.2723 17.6125 10.9856 17.3258C10.7771 17.1174 10.3393 17.0027 9.75557 17.0027C9.16661 17.0079 8.73401 17.1226 8.53074 17.3311ZM9.75557 22.6839C8.52552 22.6839 7.5665 22.3503 6.90457 21.6831C6.21657 20.9899 5.86736 19.9632 5.86736 18.6341C5.86736 17.2998 6.21657 16.273 6.90457 15.5798C7.5665 14.9127 8.52552 14.5739 9.75557 14.5739C10.9856 14.5739 11.9446 14.9127 12.6118 15.5798C13.305 16.2782 13.6542 17.305 13.6542 18.6393C13.6542 19.9684 13.305 20.9951 12.6118 21.6936C11.9446 22.3503 10.9804 22.6839 9.75557 22.6839ZM29.6292 17.4301C29.3582 17.7011 29.3217 18.3266 29.3217 18.6758C29.3217 19.0198 29.3634 19.6452 29.6292 19.911C29.8221 20.1039 30.2547 20.2185 30.8176 20.2185C31.3753 20.2185 31.8027 20.1091 31.9955 19.9162C32.1884 19.7234 32.2978 19.2699 32.2978 18.6758C32.2978 18.3266 32.2561 17.6959 31.9903 17.4249C31.7975 17.232 31.3753 17.1226 30.8176 17.1226C30.2443 17.1174 29.8273 17.2268 29.6292 17.4301ZM28.0031 21.6727C27.3203 20.9951 26.9763 19.984 26.9763 18.6758C26.9763 17.3623 27.3203 16.3564 28.0031 15.6736C28.6546 15.0169 29.598 14.6833 30.8124 14.6833C32.0164 14.6833 32.965 15.0169 33.6165 15.6736C34.2888 16.3564 34.6328 17.3675 34.6328 18.6758C34.6328 19.984 34.2888 20.9951 33.6113 21.6727C32.9597 22.3294 32.0164 22.6578 30.8072 22.6578C29.6032 22.6578 28.6598 22.3242 28.0031 21.6727ZM36.2903 30.4916V29.9599C36.2903 29.0322 36.0297 28.2556 35.5345 27.7135C34.9872 27.1193 34.1325 26.8066 33.064 26.8066L31.5316 26.8014C32.1154 27.8595 32.449 29.1156 32.5741 30.4916H36.2903ZM30.3068 32.5607V31.5652C30.3068 29.7358 29.8221 28.2139 28.91 27.161C27.6799 25.7486 25.84 25.4515 24.511 25.4515H16.0153C14.6862 25.4515 12.8515 25.7486 11.6267 27.1558C10.7198 28.2035 10.2403 29.7254 10.2403 31.56V32.5555C10.2403 32.5607 30.3068 32.5607 30.3068 32.5607ZM7.97304 30.5228C8.09292 29.1468 8.42128 27.8907 8.99982 26.8275L7.57171 26.8327C6.49802 26.8327 5.64324 27.1454 5.10119 27.7396C4.60604 28.2764 4.34022 29.053 4.34022 29.9808V30.5176C4.34022 30.5228 7.97304 30.5228 7.97304 30.5228ZM37.2232 26.0248C38.1458 27.0255 38.6305 28.3859 38.6305 29.9599V31.2682C38.6305 32.1855 37.9112 32.9308 37.0304 32.9308H32.647V34.1244C32.647 34.6091 32.2926 35 31.8548 35H8.69231C8.25449 35 7.90007 34.6091 7.90007 34.1244V32.9621H3.60011C2.71927 32.9621 2 32.2115 2 31.2942V29.986C2 28.4119 2.48472 27.0568 3.40726 26.0561C4.40277 24.972 5.8413 24.3934 7.57171 24.3934H11.168C12.4763 23.4917 14.1181 23.0122 16.0153 23.0122H24.5058C26.3873 23.0122 28.0083 23.4813 29.3113 24.3622H33.0588C34.7892 24.3674 36.2277 24.9407 37.2232 26.0248Z" fill="#86888C"/>
</svg>
