<svg width="20" height="20" viewBox="0 0 20 20" fill="none" xmlns="http://www.w3.org/2000/svg">
<path fill-rule="evenodd" clip-rule="evenodd" d="M9.55948 3.22044C9.39554 3.3821 9.3113 3.65078 9.3113 4.01736C9.3113 4.73915 9.6164 5.04653 10.3314 5.04653C11.0486 5.04653 11.3537 4.73915 11.3537 4.01736C11.3537 3.65078 11.2695 3.3821 11.1032 3.22044C10.9416 3.06333 10.682 2.98363 10.3314 2.98363C9.98071 2.98136 9.72114 3.06105 9.55948 3.22044ZM10.3291 6.03017C9.0836 6.03017 8.33905 5.27878 8.33905 4.01736C8.33905 3.37527 8.5212 2.86979 8.88323 2.51459C9.23388 2.17305 9.71887 2 10.3291 2C10.9393 2 11.4243 2.17305 11.7749 2.51231C12.137 2.86751 12.3237 3.37299 12.3237 4.01736C12.3237 5.27878 11.5768 6.03017 10.3291 6.03017ZM13.6671 11.9502C13.683 11.9138 13.7081 11.8409 13.6807 11.7544L12.4421 8.19553C12.4375 8.18642 12.4125 8.12495 12.4079 8.11584C12.1962 7.61719 11.7157 7.29614 11.1829 7.29614H9.47751C8.94471 7.29614 8.46428 7.61719 8.25252 8.11584C8.25025 8.12039 8.22065 8.19098 8.22065 8.19553L6.98199 11.7612C6.9615 11.8204 6.96606 11.891 6.99566 11.9525C7.01159 11.9866 7.0503 12.0458 7.12999 12.0731C7.21879 12.105 7.2871 12.0823 7.31898 12.0663C7.35313 12.0481 7.41689 12.0094 7.44649 11.9229L8.08858 9.98292C8.17055 9.72563 8.44378 9.58218 8.6988 9.66643C8.906 9.73246 9.03579 9.926 9.03579 10.1332C9.03579 10.1833 9.02896 10.2334 9.01302 10.2835L8.71702 11.2102L8.18194 13.223H8.35726C8.62366 13.223 8.84225 13.4416 8.84225 13.7125L8.85591 16.7613C8.85591 16.8228 8.86957 17.0164 9.04262 17.0209C9.10182 17.0141 9.12003 17.0073 9.12459 17.0027C9.15646 16.9708 9.18606 16.8866 9.18606 16.7659L9.17013 13.7171C9.17013 13.5873 9.22022 13.4621 9.3113 13.3687C9.40237 13.2754 9.52533 13.223 9.65511 13.223H11.0144C11.1442 13.223 11.2672 13.2754 11.3583 13.3687C11.4493 13.4621 11.5017 13.5873 11.4994 13.7171L11.4858 16.7682C11.4858 16.7682 11.488 17.0186 11.6156 17.0232C11.6861 17.0186 11.7362 17.0095 11.7453 17.0004C11.7613 16.9845 11.7932 16.9139 11.7932 16.7659L11.8091 13.7125C11.8114 13.4416 12.0277 13.223 12.2941 13.223H12.4671L11.9275 11.1965L11.636 10.2835C11.6201 10.2334 11.6133 10.1833 11.6133 10.1332C11.6133 9.926 11.7431 9.73246 11.9503 9.66643C12.203 9.58218 12.4785 9.72563 12.5605 9.98292L13.2048 11.9274C13.2344 12.0094 13.2959 12.0504 13.3324 12.0686C13.3665 12.0845 13.4325 12.1073 13.51 12.0777C13.6124 12.0458 13.6511 11.9843 13.6671 11.9502ZM14.5983 11.4333C14.7053 11.7521 14.6826 12.0891 14.5391 12.3851C14.3957 12.6788 14.1498 12.8974 13.8447 12.9999C13.7172 13.0477 13.5828 13.0818 13.4439 13.0704L13.5805 13.5828C13.6193 13.7308 13.5897 13.8879 13.4963 14.0085C13.4052 14.1315 13.2618 14.2021 13.1115 14.2021H12.7859L12.7722 16.7636C12.7722 17.153 12.6561 17.4763 12.433 17.6972C12.2918 17.8383 12.0391 18 11.6338 18H11.6042C10.978 17.9886 10.5226 17.4672 10.5226 16.7613L10.534 14.2021H10.1515L10.1651 16.7591C10.1651 17.1416 10.0399 17.4763 9.80994 17.7017C9.61185 17.8975 9.35228 18 9.05628 18H9.02668C8.37775 17.9841 7.89049 17.4513 7.89049 16.7613L7.87911 14.2021H7.5535C7.40095 14.2021 7.25978 14.1315 7.1687 14.0085C7.07535 13.8879 7.04575 13.7308 7.08446 13.5828L7.22107 13.0682H7.21879C7.0799 13.0682 6.94329 13.0431 6.81122 12.9953C6.5175 12.8951 6.27159 12.6765 6.12814 12.3851C5.98242 12.0868 5.95965 11.7521 6.06667 11.4379L7.3076 7.86765C7.32353 7.81756 7.34403 7.76519 7.3759 7.70371C7.7311 6.86808 8.56218 6.31251 9.48434 6.31251H11.1898C12.1119 6.31251 12.943 6.86808 13.3073 7.72648C13.3255 7.76291 13.3483 7.81528 13.3688 7.88359L14.5983 11.4333Z" fill="#86888C"/>
</svg>
