<svg width="28" height="28" viewBox="0 0 28 28" fill="none" xmlns="http://www.w3.org/2000/svg">
<path fill-rule="evenodd" clip-rule="evenodd" d="M12.1779 7.20633C11.7056 7.68188 11.4694 8.4583 11.4694 9.51294C11.4694 10.5643 11.7088 11.3375 12.1747 11.8099C12.6308 12.2692 13.3587 12.4989 14.3357 12.4989C15.3127 12.4989 16.0439 12.266 16.5032 11.8099C16.9756 11.3375 17.215 10.5643 17.215 9.51294C17.215 8.4583 16.9756 7.68512 16.5 7.20956C16.0406 6.74694 15.3127 6.51402 14.3357 6.51402C13.362 6.51402 12.6373 6.74694 12.1779 7.20633ZM14.339 14.0129C12.9705 14.0129 11.9062 13.6377 11.1718 12.9001C10.4051 12.1334 10.0201 10.9914 10.0201 9.51294C10.0201 8.03127 10.4083 6.89252 11.1718 6.11934C11.9094 5.37527 12.9738 5 14.3422 5C15.7074 5 16.775 5.3785 17.5126 6.11934C18.2793 6.89252 18.6707 8.03451 18.6707 9.51294C18.6707 10.9914 18.2825 12.1301 17.5126 12.9001C16.7685 13.6377 15.7042 14.0129 14.339 14.0129ZM7.05356 12.0331C6.87886 12.2078 6.85298 12.6154 6.85298 12.8418C6.85298 13.0651 6.87886 13.4694 7.05032 13.6441C7.17973 13.7735 7.44824 13.8415 7.8138 13.8415C8.17937 13.8415 8.45112 13.7703 8.58052 13.6409C8.75521 13.4662 8.78109 13.0618 8.78109 12.8386C8.78109 12.6122 8.75521 12.2078 8.57728 12.0298C8.44788 11.9004 8.17613 11.8293 7.8138 11.8293C7.44824 11.8325 7.17973 11.9037 7.05356 12.0331ZM7.8138 15.3555C7.05032 15.3555 6.45507 15.1485 6.04421 14.7344C5.61718 14.3041 5.40043 13.6668 5.40043 12.8418C5.40043 12.0137 5.61718 11.3763 6.04421 10.9461C6.45507 10.532 7.05032 10.3217 7.8138 10.3217C8.57728 10.3217 9.17254 10.532 9.58663 10.9461C10.0169 11.3796 10.2336 12.0169 10.2336 12.8451C10.2336 13.67 10.0169 14.3073 9.58663 14.7408C9.17254 15.1485 8.57405 15.3555 7.8138 15.3555ZM20.1492 12.0945C19.9809 12.2628 19.9583 12.651 19.9583 12.8677C19.9583 13.0812 19.9842 13.4694 20.1492 13.6344C20.2689 13.7541 20.5374 13.8253 20.8868 13.8253C21.2329 13.8253 21.4982 13.7574 21.6179 13.6377C21.7376 13.518 21.8055 13.2365 21.8055 12.8677C21.8055 12.651 21.7797 12.2595 21.6147 12.0913C21.495 11.9716 21.2329 11.9037 20.8868 11.9037C20.5309 11.9004 20.2721 11.9684 20.1492 12.0945ZM19.1398 14.7279C18.716 14.3073 18.5025 13.6797 18.5025 12.8677C18.5025 12.0525 18.716 11.4281 19.1398 11.0043C19.5442 10.5967 20.1298 10.3896 20.8835 10.3896C21.6308 10.3896 22.2196 10.5967 22.624 11.0043C23.0413 11.4281 23.2549 12.0557 23.2549 12.8677C23.2549 13.6797 23.0413 14.3073 22.6208 14.7279C22.2164 15.1355 21.6308 15.3393 20.8803 15.3393C20.133 15.3393 19.5474 15.1323 19.1398 14.7279ZM24.2836 20.2017V19.8717C24.2836 19.2958 24.1219 18.8138 23.8145 18.4774C23.4748 18.1086 22.9443 17.9145 22.2811 17.9145L21.33 17.9112C21.6923 18.5679 21.8994 19.3476 21.977 20.2017H24.2836ZM20.5697 21.486V20.8681C20.5697 19.7326 20.2689 18.7879 19.7027 18.1344C18.9393 17.2577 17.7973 17.0733 16.9723 17.0733H11.6991C10.8742 17.0733 9.73544 17.2577 8.9752 18.1312C8.41229 18.7815 8.11467 19.7261 8.11467 20.8648V21.4827C8.11467 21.486 20.5697 21.486 20.5697 21.486ZM6.70741 20.2211C6.78181 19.367 6.98562 18.5873 7.34472 17.9274L6.4583 17.9306C5.79188 17.9306 5.26132 18.1247 4.92487 18.4935C4.61754 18.8267 4.45255 19.3088 4.45255 19.8846V20.2178C4.45255 20.2211 6.70741 20.2211 6.70741 20.2211ZM24.8627 17.4292C25.4353 18.0503 25.7362 18.8947 25.7362 19.8717V20.6837C25.7362 21.2531 25.2897 21.7157 24.743 21.7157H22.0223V22.4565C22.0223 22.7574 21.8023 23 21.5306 23H7.15385C6.8821 23 6.66211 22.7574 6.66211 22.4565V21.7351H3.99317C3.44644 21.7351 3 21.2692 3 20.6999V19.8879C3 18.9109 3.30086 18.0697 3.87347 17.4486C4.49137 16.7757 5.38426 16.4166 6.4583 16.4166H8.69051C9.50252 15.8569 10.5216 15.5593 11.6991 15.5593H16.9691C18.137 15.5593 19.1431 15.8505 19.9518 16.3972H22.2779C23.3519 16.4004 24.2448 16.7563 24.8627 17.4292Z" fill="#86888C"/>
</svg>
