<svg width="28" height="28" viewBox="0 0 28 28" fill="none" xmlns="http://www.w3.org/2000/svg">
<path fill-rule="evenodd" clip-rule="evenodd" d="M18.5961 20.1292C18.1862 20.4537 17.7184 20.6791 17.2402 20.8259C18.258 20.1156 18.8078 19.2345 18.8078 17.9742C18.8078 16.6662 17.8242 15.7885 16.9226 15.2762C17.0661 15.1464 17.2027 15.0064 17.3324 14.8561C17.4725 14.9176 17.5886 14.9893 17.7149 15.0815C17.8174 15.1567 17.913 15.2284 18.0155 15.2865C18.8966 15.8022 19.4909 16.7789 19.566 17.8342C19.6036 18.3704 19.5284 19.3881 18.5961 20.1292ZM13.4903 20.9421V16.8062C14.2075 16.7311 14.9042 16.5296 15.5497 16.212C16.161 16.4203 17.3803 17.0692 17.3803 17.9742C17.3803 19.0944 16.7689 19.8663 13.4903 20.9421ZM14.187 24.5759H11.5232C11.7007 24.067 12.1208 23.8484 12.8551 23.8484C13.5894 23.8484 14.0094 24.067 14.187 24.5759ZM7.95425 11.0516V10.8125H17.2744V11.1472C17.23 13.9477 15.0169 15.4128 12.8483 15.4128C10.502 15.4128 7.98157 14.2653 7.95425 11.0516ZM5.49529 7.67735C5.72069 6.3864 6.57108 5.19448 7.82788 4.40557C11.0484 2.39059 14.0333 4.12552 14.187 4.21432C14.1973 4.21773 15.0921 4.71977 15.2355 5.55991C15.3243 6.06878 15.1228 6.64254 14.6378 7.26752C14.5422 7.18556 14.2383 6.83379 14.1768 5.63163C14.1665 5.4233 14.0641 5.22864 13.9001 5.10227C13.8148 5.03738 11.7486 3.49712 8.68852 4.97933C7.61614 5.49844 6.86479 6.13025 6.42764 7.68076C6.20907 8.45602 6.24322 9.30982 6.52668 10.0919L6.5301 10.0953V11.0516C6.5301 11.2223 6.54376 11.3863 6.55742 11.5502C5.51236 10.3754 5.29721 8.83169 5.49529 7.67735ZM20.9901 17.7318C20.8809 16.2154 20.0168 14.8049 18.7361 14.0536C18.678 14.0194 18.6234 13.975 18.5653 13.934C18.4287 13.8316 18.2853 13.7359 18.1384 13.6506C18.5073 12.8753 18.7019 12.0283 18.7054 11.1677L18.7088 10.0953C18.7088 9.69916 18.3877 9.38154 17.995 9.38154H7.80398C7.68786 8.95464 7.68444 8.50383 7.80056 8.07693C8.12842 6.92259 8.63388 6.60155 9.31009 6.27028C11.0348 5.43696 12.2745 5.84679 12.78 6.09269C12.8961 7.24703 13.2513 8.03936 13.8387 8.4526C14.3066 8.78388 14.8325 8.79754 15.1399 8.70533C15.2696 8.66776 15.3823 8.59604 15.4746 8.497C16.4377 7.41779 16.8304 6.342 16.646 5.30036C16.3728 3.77375 14.9247 2.98484 14.8974 2.97118C14.7437 2.87555 11.0587 0.700055 7.07312 3.18975C5.46797 4.19383 4.38193 5.7375 4.08822 7.43145C3.75011 9.38496 4.31362 12.2093 7.01165 13.7394C7.06629 13.7701 7.12435 13.7667 7.18241 13.7838C8.06353 15.4845 9.80188 16.5877 12.0628 16.7994V22.4994C10.7411 22.7726 9.99655 23.7494 9.99655 25.2862C9.99655 25.6824 10.3176 26 10.7103 26H15.0033C15.3994 26 15.717 25.679 15.717 25.2862C15.717 23.6845 14.9145 22.6838 13.4903 22.4584V22.3628C14.0743 22.4721 14.672 22.5267 15.2662 22.5233C16.5162 22.5233 18.1794 22.2842 19.4874 21.2426C20.5393 20.4093 21.0892 19.1252 20.9901 17.7318Z" fill="#86888C"/>
</svg>
