<svg width="20" height="20" viewBox="0 0 20 20" fill="none" xmlns="http://www.w3.org/2000/svg">
<path fill-rule="evenodd" clip-rule="evenodd" d="M13.7307 14.0862C13.4575 14.3025 13.1456 14.4527 12.8268 14.5506C13.5053 14.0771 13.8719 13.4896 13.8719 12.6495C13.8719 11.7775 13.2162 11.1923 12.6151 10.8508C12.7107 10.7643 12.8018 10.6709 12.8883 10.5708C12.9816 10.6117 13.0591 10.6596 13.1433 10.721C13.2116 10.7711 13.2754 10.8189 13.3437 10.8576C13.9311 11.2014 14.3272 11.8526 14.3773 12.5561C14.4024 12.9136 14.3523 13.5921 13.7307 14.0862ZM10.3269 14.628V11.8708C10.805 11.8207 11.2695 11.6864 11.6998 11.4747C12.1073 11.6135 12.9202 12.0461 12.9202 12.6495C12.9202 13.3963 12.5126 13.9108 10.3269 14.628ZM10.7913 17.0506H9.01543C9.13383 16.7113 9.41388 16.5656 9.90339 16.5656C10.3929 16.5656 10.673 16.7113 10.7913 17.0506ZM6.63616 8.03439V7.87501H12.8496V8.09814C12.82 9.96513 11.3446 10.9419 9.89884 10.9419C8.33467 10.9419 6.65438 10.1769 6.63616 8.03439ZM4.99686 5.7849C5.14713 4.92426 5.71406 4.12966 6.55192 3.60371C8.69896 2.26039 10.6889 3.41701 10.7913 3.47621C10.7982 3.47849 11.3947 3.81318 11.4903 4.37328C11.5495 4.71252 11.4152 5.09502 11.0919 5.51168C11.0281 5.45704 10.8255 5.22253 10.7845 4.42109C10.7777 4.2822 10.7094 4.15242 10.6001 4.06818C10.5432 4.02492 9.1657 2.99808 7.12568 3.98622C6.41076 4.33229 5.90986 4.7535 5.61843 5.78718C5.47271 6.30401 5.49548 6.87322 5.68446 7.39461L5.68673 7.39688V8.03439C5.68673 8.14823 5.69584 8.25752 5.70495 8.3668C5.00824 7.58358 4.8648 6.55446 4.99686 5.7849ZM15.3268 12.4878C15.2539 11.4769 14.6779 10.5366 13.8241 10.0357C13.7854 10.0129 13.7489 9.98334 13.7102 9.95602C13.6192 9.88772 13.5235 9.82397 13.4256 9.76704C13.6715 9.25021 13.8013 8.68556 13.8036 8.1118L13.8058 7.39688C13.8058 7.13277 13.5918 6.92103 13.33 6.92103H6.53598C6.45857 6.63643 6.4563 6.33589 6.53371 6.05129C6.75228 5.28172 7.08925 5.0677 7.54006 4.84685C8.68985 4.29131 9.51633 4.56453 9.8533 4.72846C9.93071 5.49802 10.1675 6.02624 10.5591 6.30174C10.871 6.52259 11.2217 6.53169 11.4266 6.47022C11.5131 6.44517 11.5882 6.39736 11.6497 6.33133C12.2918 5.61186 12.5536 4.89467 12.4307 4.20024C12.2485 3.1825 11.2831 2.65656 11.2649 2.64745C11.1625 2.5837 8.70579 1.13337 6.04875 2.79317C4.97864 3.46255 4.25462 4.49167 4.05881 5.62097C3.83341 6.92331 4.20908 8.80623 6.00776 9.82624C6.04419 9.84673 6.0829 9.84446 6.1216 9.85584C6.70902 10.9897 7.86792 11.7251 9.37517 11.8663V15.6663C8.49404 15.8484 7.9977 16.4996 7.9977 17.5241C7.9977 17.7883 8.21172 18 8.47355 18H11.3355C11.5996 18 11.8114 17.786 11.8114 17.5241C11.8114 16.4563 11.2763 15.7892 10.3269 15.6389V15.5752C10.7162 15.6481 11.1147 15.6845 11.5108 15.6822C12.3441 15.6822 13.4529 15.5228 14.325 14.8284C15.0262 14.2729 15.3928 13.4168 15.3268 12.4878Z" fill="#86888C"/>
</svg>
