<svg width="40" height="40" viewBox="0 0 40 40" fill="none" xmlns="http://www.w3.org/2000/svg">
<path fill-rule="evenodd" clip-rule="evenodd" d="M25.8941 29.1939C25.2794 29.6805 24.5775 30.0186 23.8603 30.2389C25.3869 29.1734 26.2117 27.8517 26.2117 25.9614C26.2117 23.9993 24.7363 22.6827 23.3839 21.9143C23.5991 21.7197 23.804 21.5096 23.9987 21.2842C24.2087 21.3764 24.3829 21.484 24.5724 21.6223C24.7261 21.735 24.8695 21.8426 25.0232 21.9297C26.3449 22.7032 27.2363 24.1684 27.349 25.7513C27.4053 26.5556 27.2926 28.0822 25.8941 29.1939ZM18.2355 30.4131V24.2093C19.3113 24.0966 20.3563 23.7944 21.3245 23.318C22.2415 23.6305 24.0704 24.6038 24.0704 25.9614C24.0704 27.6416 23.1534 28.7994 18.2355 30.4131ZM19.2805 35.8638H15.2847C15.5511 35.1005 16.1812 34.7726 17.2826 34.7726C18.384 34.7726 19.0141 35.1005 19.2805 35.8638ZM9.93137 15.5774V15.2188H23.9116V15.7208C23.845 19.9215 20.5254 22.1192 17.2724 22.1192C13.753 22.1192 9.97235 20.398 9.93137 15.5774ZM6.24293 10.516C6.58104 8.57959 7.85662 6.79173 9.74183 5.60835C14.5727 2.58588 19.05 5.18828 19.2805 5.32147C19.2959 5.3266 20.6381 6.07965 20.8532 7.33987C20.9864 8.10317 20.6842 8.96381 19.9567 9.90128C19.8133 9.77834 19.3574 9.25068 19.2652 7.44745C19.2498 7.13496 19.0961 6.84295 18.8502 6.65341C18.7221 6.55608 15.6228 4.24568 11.0328 6.46899C9.42421 7.24766 8.29719 8.19538 7.64147 10.5211C7.31361 11.684 7.36483 12.9647 7.79003 14.1379L7.79515 14.143V15.5774C7.79515 15.8335 7.81564 16.0794 7.83613 16.3253C6.26855 14.5631 5.94581 12.2475 6.24293 10.516ZM29.4852 25.5976C29.3213 23.3231 28.0252 21.2074 26.1041 20.0803C26.0171 20.0291 25.9351 19.9625 25.848 19.901C25.6431 19.7474 25.4279 19.6039 25.2076 19.4759C25.7609 18.313 26.0529 17.0425 26.058 15.7516L26.0632 14.143C26.0632 13.5487 25.5816 13.0723 24.9925 13.0723H9.70597C9.53179 12.432 9.52667 11.7557 9.70084 11.1154C10.1926 9.38388 10.9508 8.90233 11.9651 8.40542C14.5522 7.15545 16.4118 7.77019 17.1699 8.13903C17.3441 9.87055 17.8769 11.059 18.758 11.6789C19.4598 12.1758 20.2488 12.1963 20.7098 12.058C20.9045 12.0016 21.0735 11.8941 21.2118 11.7455C22.6565 10.1267 23.2456 8.513 22.969 6.95053C22.5591 4.66063 20.3871 3.47726 20.3461 3.45676C20.1156 3.31333 14.588 0.050083 8.60968 3.78463C6.20195 5.29074 4.57289 7.60626 4.13233 10.1472C3.62517 13.0774 4.47043 17.314 8.51747 19.609C8.59943 19.6552 8.68652 19.65 8.77361 19.6756C10.0953 22.2268 12.7028 23.8815 16.0941 24.1991V32.7491C14.1116 33.1589 12.9948 34.6241 12.9948 36.9293C12.9948 37.5236 13.4764 38 14.0655 38H20.5049C21.0991 38 21.5756 37.5185 21.5756 36.9293C21.5756 34.5267 20.3717 33.0257 18.2355 32.6876V32.5442C19.1115 32.7081 20.008 32.7901 20.8993 32.785C22.7743 32.785 25.2691 32.4264 27.2312 30.8639C28.809 29.6139 29.6338 27.6877 29.4852 25.5976Z" fill="#86888C"/>
</svg>
