<svg width="20" height="20" viewBox="0 0 20 20" fill="none" xmlns="http://www.w3.org/2000/svg">
<path fill-rule="evenodd" clip-rule="evenodd" d="M15.9777 9.38191L13.3662 11.9934C13.3412 11.998 13.3161 11.9934 13.2888 12.0025C12.0866 12.3873 10.7479 11.3787 9.83485 10.4657C8.48013 9.11097 7.99744 7.91335 8.35946 6.80226C8.36629 6.77949 8.36401 6.75672 8.36857 6.73623L10.4063 4.69847C10.4746 4.62105 10.5498 4.5482 10.6249 4.47761L10.7661 4.341C11.6062 3.50085 12.4532 3.06598 13.2842 3.05232H13.3298C14.1745 3.05232 15.0374 3.48719 15.8935 4.34328C17.592 6.03952 17.6171 7.69022 15.9777 9.38191ZM9.58667 15.773L9.51837 15.8436C9.49332 15.8709 9.47055 15.8959 9.42502 15.9369C7.75837 17.4988 6.13727 17.4419 4.4638 15.7707C3.59177 14.8987 3.1569 14.0221 3.17283 13.1637C3.1865 12.335 3.62137 11.488 4.46152 10.6478L4.59813 10.5067C4.67099 10.4293 4.74385 10.3541 4.84631 10.263L7.26886 7.84049C7.36221 8.91516 7.9724 10.0149 9.1313 11.1738C10.247 12.2894 11.3102 12.9201 12.3029 13.059L9.58667 15.773ZM16.597 3.63746C15.5269 2.56735 14.384 2.03457 13.2638 2.05734C12.1663 2.07783 11.0894 2.61061 10.0603 3.63746L9.93503 3.75586C9.83485 3.85148 9.73694 3.94483 9.67319 4.02225L4.16553 9.53218C4.06535 9.6187 3.96973 9.7166 3.87182 9.81906L3.75343 9.94201C2.7243 10.9711 2.1938 12.0481 2.17331 13.1432C2.15509 14.2817 2.68559 15.4019 3.75798 16.472C4.81443 17.5284 5.9278 18.0566 7.03662 18.0566C8.07258 18.0566 9.10398 17.5967 10.0853 16.6792C10.1399 16.6336 10.19 16.5835 10.2401 16.5289L16.6858 10.0809C18.7054 7.99987 18.6735 5.71166 16.597 3.63746Z" fill="#86888C"/>
</svg>
