<svg width="40" height="40" viewBox="0 0 40 40" fill="none" xmlns="http://www.w3.org/2000/svg">
<path fill-rule="evenodd" clip-rule="evenodd" d="M33.2339 18.5385L27.3579 24.4144C27.3016 24.4247 27.2452 24.4144 27.1837 24.4349C24.4789 25.3007 21.4666 23.0313 19.4123 20.977C16.3642 17.9289 15.2782 15.2342 16.0927 12.7343C16.1081 12.6831 16.103 12.6318 16.1132 12.5857L20.6982 8.00075C20.8519 7.82657 21.0209 7.66264 21.19 7.50383L21.5076 7.19646C23.3979 5.30612 25.3036 4.32765 27.1735 4.29691H27.2759C29.1765 4.29691 31.1181 5.27538 33.0443 7.20158C36.866 11.0181 36.9223 14.7322 33.2339 18.5385ZM18.8539 32.9184L18.7003 33.0772C18.6439 33.1387 18.5927 33.195 18.4902 33.2872C14.7403 36.8015 11.0928 36.6735 7.32748 32.9133C5.36542 30.9512 4.38695 28.9789 4.42281 27.0476C4.45355 25.1829 5.43202 23.2772 7.32236 21.3868L7.62973 21.0692C7.79366 20.895 7.9576 20.726 8.18812 20.521L13.6389 15.0703C13.8489 17.4883 15.2218 19.9627 17.8294 22.5702C20.3396 25.0804 22.732 26.4994 24.9655 26.8119L18.8539 32.9184ZM34.6273 5.61349C32.2195 3.20574 29.6478 2.00699 27.1274 2.05822C24.6582 2.10432 22.235 3.30307 19.9195 5.61349L19.6377 5.87988C19.4123 6.09504 19.1921 6.30508 19.0486 6.47926L6.65639 18.8766C6.43098 19.0713 6.21582 19.2916 5.99554 19.5221L5.72915 19.7987C3.41361 22.1143 2.21998 24.5374 2.17387 27.0015C2.13289 29.5629 3.32652 32.0834 5.73939 34.4911C8.1164 36.8681 10.6215 38.0566 13.1163 38.0566C15.4472 38.0566 17.7679 37.0218 19.9759 34.9573C20.0988 34.8548 20.2115 34.7421 20.3242 34.6192L34.8271 20.1112C39.3711 15.4289 39.2993 10.2804 34.6273 5.61349Z" fill="#86888C"/>
</svg>
