<svg width="40" height="40" viewBox="0 0 40 40" fill="none" xmlns="http://www.w3.org/2000/svg">
<path fill-rule="evenodd" clip-rule="evenodd" d="M32.1698 15.9605C31.9098 15.9912 31.6701 16.1039 31.4866 16.2934L26.1734 21.6663C25.898 21.9428 25.7807 22.3526 25.8725 22.7367C26.5813 25.8509 25.5207 28.8676 22.6346 31.8076L15.4959 24.596C15.4755 24.5704 15.4653 24.5345 15.4398 24.5089C15.4144 24.4833 15.3787 24.4731 15.3532 24.4526L8.36236 17.3895L8.41335 17.3331C11.279 14.4341 14.2773 13.338 17.3214 14.0654C17.7038 14.1627 18.1067 14.0449 18.3871 13.758L23.7003 8.38517C23.889 8.19566 24.0012 7.94981 24.0267 7.68347C24.1337 6.57714 24.6385 5.51178 25.587 4.45667L35.3925 14.3573C34.3675 15.3151 33.312 15.8427 32.1698 15.9605ZM37.2485 12.9846L26.9433 2.58205C26.1938 1.82401 25.0006 1.78816 24.2153 2.58205C22.8743 3.93936 22.0686 5.43495 21.8188 7.03811L17.2143 11.699C14.5628 11.2381 10.7895 11.6837 6.80205 15.7146L6.74596 15.7761C6.31764 16.2063 6.08818 16.7748 6.08818 17.3843C6.08818 17.9887 6.32273 18.5573 6.74596 18.9875L13.0127 25.3284L2.33527 36.0332C1.89166 36.4788 1.88656 37.2112 2.33017 37.662C2.55453 37.8873 2.84518 38 3.14092 38C3.42647 38 3.72222 37.8873 3.94148 37.6671L14.624 26.9572L21.0284 33.4415C21.4567 33.8769 22.0176 34.0971 22.5938 34.0971C23.2006 34.0971 23.8176 33.8513 24.3173 33.3442C27.5348 30.0867 28.8504 26.5628 28.2181 22.8597L32.8276 18.1936C34.4236 17.9221 35.9228 17.0924 37.3097 15.689C37.6513 15.3458 37.84 14.8849 37.84 14.3932C37.8349 13.8656 37.6309 13.3688 37.2485 12.9846Z" fill="#86888C"/>
</svg>
