<svg width="28" height="28" viewBox="0 0 28 28" fill="none" xmlns="http://www.w3.org/2000/svg">
<path fill-rule="evenodd" clip-rule="evenodd" d="M22.1132 11.307C21.9399 11.3275 21.7801 11.4026 21.6577 11.5289L18.1156 15.1108C17.932 15.2952 17.8538 15.5684 17.915 15.8245C18.3875 17.9006 17.6805 19.9118 15.7564 21.8717L10.9973 17.064C10.9837 17.0469 10.9769 17.023 10.9599 17.0059C10.9429 16.9889 10.9191 16.982 10.9021 16.9684L6.24157 12.2596L6.27557 12.2221C8.18601 10.2894 10.1848 9.5587 12.2143 10.0436C12.4692 10.1084 12.7378 10.0299 12.9247 9.8387L16.4669 6.25678C16.5927 6.13044 16.6674 5.96654 16.6844 5.78898C16.7558 5.05142 17.0924 4.34119 17.7246 3.63778L24.2616 10.2382C23.5784 10.8767 22.8747 11.2284 22.1132 11.307ZM25.499 9.32309L18.6289 2.38804C18.1292 1.88267 17.3337 1.85877 16.8102 2.38804C15.9162 3.2929 15.3791 4.28997 15.2125 5.35874L12.1429 8.46602C10.3752 8.15871 7.85967 8.45578 5.20136 11.1431L5.16397 11.184C4.87842 11.4709 4.72545 11.8499 4.72545 12.2562C4.72545 12.6592 4.88182 13.0382 5.16397 13.325L9.3418 17.5523L2.22352 24.6888C1.92777 24.9859 1.92437 25.4741 2.22012 25.7746C2.36969 25.9249 2.56345 26 2.76062 26C2.95098 26 3.14814 25.9249 3.29432 25.7781L10.416 18.6381L14.6856 22.961C14.9712 23.2512 15.3451 23.3981 15.7292 23.3981C16.1337 23.3981 16.5451 23.2342 16.8782 22.8961C19.0232 20.7244 19.9002 18.3752 19.4787 15.9064L22.5518 12.7957C23.6158 12.6148 24.6152 12.0616 25.5398 11.126C25.7676 10.8972 25.8933 10.5899 25.8933 10.2621C25.8899 9.9104 25.754 9.57919 25.499 9.32309Z" fill="#86888C"/>
</svg>
