<svg width="24" height="24" viewBox="0 0 24 24" fill="none" xmlns="http://www.w3.org/2000/svg">
<path fill-rule="evenodd" clip-rule="evenodd" d="M17.0802 6.80933C17.0746 6.83779 17.0717 6.86625 17.0689 6.89471C17.0176 8.144 16.366 8.72738 15.0285 8.72738C14.6898 8.73307 14.354 8.68184 14.0324 8.57086C14.5304 7.88788 15.148 7.34149 15.9192 7.12237C16.2408 7.03699 16.4343 6.70689 16.3489 6.38247C16.3489 6.37962 16.346 6.37393 16.346 6.37109C16.2408 6.04667 15.8964 5.8617 15.5663 5.95845C14.5674 6.24018 13.7792 6.87763 13.1503 7.68298C13.0336 7.38133 12.9738 7.05976 12.9767 6.73534C12.9767 5.38076 13.6283 4.75185 15.0285 4.75185H16.8469C16.975 4.75185 17.0802 4.85145 17.0802 4.97666V6.80933ZM16.494 13.3318V14.8088C16.494 14.934 16.3887 15.0336 16.2607 15.0336H7.06602C6.94081 15.0364 6.83552 14.934 6.83267 14.8088V13.3318C6.83267 13.2066 6.93796 13.107 7.06602 13.107H16.2635C16.3887 13.107 16.494 13.2066 16.494 13.3318ZM14.6784 20.7877H8.64826C8.61127 20.7877 8.57997 20.7564 8.57712 20.654L8.07342 16.2459H15.2504L14.7439 20.7223C14.7467 20.7593 14.7154 20.7877 14.6784 20.7877ZM8.31246 7.1992C6.96927 7.1992 6.31759 6.61582 6.26636 5.38361C6.26636 5.34661 6.26352 5.30962 6.25498 5.27262V3.45134C6.25498 3.32043 6.36312 3.21514 6.49402 3.21514H8.31816C9.72112 3.21514 10.3756 3.84974 10.3756 5.21002C10.3756 5.5572 10.3216 5.85885 10.2248 6.12066C9.22311 4.68071 8.17587 4.39328 8.09903 4.37336C7.77462 4.29084 7.44166 4.47866 7.34491 4.79738C7.251 5.11326 7.44735 5.44622 7.77177 5.54297C7.786 5.54582 8.56858 5.79909 9.34263 7.02846C9.05521 7.13944 8.71656 7.20205 8.31246 7.1992ZM16.8469 3.5424H15.0285C12.9254 3.5424 11.7217 4.70632 11.7217 6.73819C11.7217 7.49801 11.8924 8.144 12.2595 8.70461L12.3933 8.86966C12.1571 9.31645 11.9522 9.78031 11.7786 10.2555C11.568 9.08025 11.2692 8.12692 10.9277 7.36995L10.9562 7.3358C10.9676 7.32442 10.9732 7.31303 10.9846 7.30165C11.4172 6.75526 11.6335 6.04952 11.6335 5.20717C11.6306 3.16961 10.424 2 8.31816 2H6.49402C5.6716 2 5 2.64883 5 3.45134V5.35231C5 5.39499 5.00569 5.44052 5.01423 5.48321C5.12237 7.34718 6.32043 8.41434 8.31246 8.41434C8.90723 8.41434 9.42516 8.30905 9.88617 8.10985C10.2647 9.02334 10.5834 10.2499 10.7399 11.8976H7.06602C6.24644 11.8976 5.58053 12.5435 5.58053 13.3347V14.8116C5.58053 15.5202 6.11554 16.1064 6.81275 16.2231L7.33068 20.7223C7.33068 21.428 7.92259 22 8.65111 22H14.6813C15.4098 22 16.0017 21.428 15.9989 20.7877L16.5196 16.2203C17.2168 16.1036 17.7518 15.5174 17.7518 14.8088V13.3318C17.7518 12.5407 17.0859 11.8947 16.2635 11.8947H12.5669C12.749 11.2174 13.0194 10.3978 13.4064 9.62094C13.8645 9.82299 14.4024 9.93682 15.0285 9.93682C17.0063 9.93682 18.1986 8.88389 18.3182 7.02277C18.3295 6.97723 18.3352 6.9317 18.3352 6.88617V4.97666C18.3352 4.18839 17.6665 3.5424 16.8469 3.5424Z" fill="#86888C"/>
</svg>
