<svg width="20" height="20" viewBox="0 0 20 20" fill="none" xmlns="http://www.w3.org/2000/svg">
<path d="M17.2865 10.3745C17.0489 10.3745 16.8584 10.1817 16.8584 9.94639V7.48753C16.8584 7.24322 16.6544 7.04373 16.4034 7.04373H14.1015C13.8639 7.04373 13.6733 6.85096 13.6733 6.61561C13.6733 6.38026 13.8661 6.1875 14.1015 6.1875H16.4012C17.1251 6.1875 17.7146 6.77027 17.7146 7.48753V9.94639C17.7146 10.1817 17.5241 10.3745 17.2865 10.3745Z" fill="#86888C"/>
<path d="M14.1015 13.3266C11.7727 13.3266 10.4906 12.0602 10.4906 9.75825C10.4906 7.45629 11.7727 6.18764 14.1015 6.18764C14.3391 6.18764 14.5296 6.3804 14.5296 6.61575C14.5296 6.8511 14.3369 7.04387 14.1015 7.04387C12.2478 7.04387 11.3468 7.93148 11.3468 9.756C11.3468 11.5805 12.2478 12.4659 14.1015 12.4659C15.9552 12.4659 16.8585 11.5783 16.8585 9.756C16.8585 9.51841 17.0512 9.32789 17.2866 9.32789C17.5219 9.32789 17.7147 9.52065 17.7147 9.756C17.7147 12.058 16.4304 13.3266 14.1015 13.3266ZM2.43036 8.2251C2.19276 8.2251 2 8.03234 2 7.79475V5.31124C2.00224 4.58726 2.59174 4 3.31348 4H5.61319C5.85078 4 6.04355 4.19276 6.04355 4.43036C6.04355 4.66795 5.85078 4.86071 5.61319 4.86071H3.31348C3.06468 4.86071 2.86295 5.06468 2.86071 5.31348V7.79475C2.86071 8.03234 2.66795 8.2251 2.43036 8.2251Z" fill="#86888C"/>
<path d="M5.61563 11.2062C3.28454 11.2062 2.00244 9.92635 2.00244 7.60423C2.00244 7.36663 2.1952 7.17387 2.4328 7.17387C2.67039 7.17387 2.86315 7.36439 2.86315 7.60198C2.86315 9.44669 3.76421 10.3433 5.61563 10.3433C7.46706 10.3433 8.36587 9.44669 8.36587 7.60198C8.36587 5.75728 7.46706 4.86071 5.61563 4.86071C5.37804 4.86071 5.18528 4.66795 5.18528 4.43036C5.18528 4.19276 5.37804 4 5.61563 4C7.94448 4 9.22658 5.27986 9.22658 7.60423C9.22658 9.92635 7.94448 11.2062 5.61563 11.2062ZM9.64573 18C9.62332 18 9.59866 17.9978 9.57625 17.9933C9.3409 17.9552 9.18176 17.7333 9.21986 17.4979C9.32969 16.83 9.65918 14.8015 10.4751 12.8492C10.9278 11.7621 11.4658 10.87 12.0687 10.1931C12.8263 9.34582 13.6982 8.82581 14.6621 8.65098C14.8974 8.60839 15.1216 8.76305 15.1641 8.9984C15.2067 9.23375 15.0521 9.45789 14.8167 9.50048C13.3755 9.76273 12.1808 11.0022 11.2708 13.1809C10.493 15.0413 10.1747 16.9936 10.0716 17.6369C10.0357 17.8498 9.85194 18 9.64573 18Z" fill="#86888C"/>
<path d="M9.64309 18.0002C9.43464 18.0002 9.25308 17.8501 9.21722 17.6371C9.17463 17.3726 9.15222 16.9804 9.12308 16.4828C9.05359 15.2433 8.94825 13.3672 8.40806 11.639C7.78494 9.64193 6.71802 8.34414 5.24315 7.7793C5.02125 7.69412 4.90918 7.44533 4.99436 7.22118C5.07953 6.99928 5.32833 6.88721 5.55247 6.97238C9.53998 8.49656 9.84258 13.8581 9.98603 16.4335C10.0107 16.8862 10.0331 17.2763 10.069 17.4959C10.1071 17.7313 9.94793 17.9532 9.71257 17.9913C9.69016 17.998 9.6655 18.0002 9.64309 18.0002Z" fill="#86888C"/>
</svg>
