<svg width="24" height="24" viewBox="0 0 24 24" fill="none" xmlns="http://www.w3.org/2000/svg">
<path fill-rule="evenodd" clip-rule="evenodd" d="M20.2144 5.80439C19.9384 6.05478 16.3555 9.32406 16.3555 9.32406C16.2046 9.46348 16.1306 9.66834 16.1619 9.87321L17.5137 18.4547L17.0413 18.6852L14.0702 12.4283C13.9877 12.2547 13.8283 12.1296 13.6377 12.0897C13.4498 12.0499 13.2535 12.1039 13.1112 12.232C11.8932 13.3104 11.1504 14.0615 10.4958 14.7216C9.71038 15.5127 9.09282 16.1358 7.9744 16.9922C7.80934 17.1203 7.72112 17.3194 7.73535 17.5271L7.95733 20.4152L7.59875 20.5887L6.01645 17.9283C5.96807 17.8487 5.90261 17.7804 5.82578 17.7292L3.45802 16.1728L3.62593 15.9167L6.32665 16.113C6.5287 16.1244 6.73076 16.039 6.85598 15.8769C7.68412 14.8042 8.31591 14.1896 9.11559 13.4128C9.79291 12.7555 10.5584 12.0129 11.6456 10.8065C11.7765 10.6614 11.8305 10.4622 11.7907 10.2744C11.7509 10.0838 11.6256 9.92158 11.4492 9.84191L5.2566 6.97951L5.56965 6.48158L14.1357 7.73921C14.3349 7.76482 14.537 7.69653 14.6736 7.54857C15.9656 6.15436 18.0943 3.87241 18.3049 3.68177C19.0163 3.04157 19.6766 3.07572 20.3169 3.78705C20.9601 4.50123 20.9259 5.16134 20.2144 5.80439ZM21.2304 2.96759C20.1348 1.75264 18.7033 1.67581 17.491 2.77127C17.2149 3.01881 14.8642 5.54831 13.9991 6.48158L5.35621 5.21256C5.11716 5.17841 4.8781 5.28654 4.75004 5.4914L3.85075 6.91691C3.75684 7.06771 3.73122 7.24981 3.78245 7.41769C3.83083 7.58556 3.9532 7.72783 4.11257 7.79896L10.1714 10.6016C9.39733 11.4324 8.80255 12.0129 8.26183 12.5336C7.49345 13.2819 6.87305 13.8851 6.09044 14.8668L3.35557 14.6704C3.13644 14.6591 2.92015 14.7586 2.80063 14.9464L2.10054 16.0163C1.91556 16.298 1.9924 16.6792 2.27699 16.8642L5.03747 18.6795L6.83606 21.7012C6.94989 21.8919 7.15479 22 7.36254 22C7.45076 22 7.54183 21.9801 7.62721 21.9402L8.868 21.3427C9.09567 21.2346 9.23227 20.9956 9.21235 20.7424L8.98184 17.7661C10.0035 16.9609 10.6097 16.3492 11.3638 15.5895C11.8903 15.0602 12.4737 14.4713 13.3189 13.7002L16.2018 19.775C16.2729 19.9229 16.3982 20.0367 16.5547 20.0908C16.7083 20.1448 16.8791 20.1335 17.0242 20.0623L18.4586 19.3624C18.7005 19.2429 18.8371 18.9811 18.7944 18.7165L17.4255 10.0155C18.2366 9.27569 20.8035 6.93398 21.0369 6.72343C22.2464 5.61944 22.3232 4.18539 21.2304 2.96759Z" fill="#86888C"/>
</svg>
