<svg width="28" height="28" viewBox="0 0 28 28" fill="none" xmlns="http://www.w3.org/2000/svg">
<path fill-rule="evenodd" clip-rule="evenodd" d="M23.8573 6.56526C23.5261 6.86573 19.2266 10.7889 19.2266 10.7889C19.0456 10.9562 18.9568 11.202 18.9943 11.4478L20.6165 21.7457L20.0496 22.0222L16.4843 14.514C16.3852 14.3057 16.194 14.1555 15.9652 14.1077C15.7398 14.0599 15.5042 14.1247 15.3334 14.2784C13.8718 15.5724 12.9805 16.4738 12.195 17.266C11.2525 18.2152 10.5114 18.9629 9.16928 19.9907C8.97121 20.1443 8.86534 20.3833 8.88242 20.6326L9.14879 24.0982L8.7185 24.3065L6.81974 21.114C6.76168 21.0184 6.68314 20.9365 6.59093 20.875L3.74962 19.0073L3.95111 18.7L7.19198 18.9356C7.43444 18.9493 7.67691 18.8468 7.82717 18.6522C8.82095 17.365 9.57909 16.6275 10.5387 15.6954C11.3515 14.9066 12.2701 14.0155 13.5747 12.5678C13.7318 12.3936 13.7967 12.1546 13.7488 11.9293C13.701 11.7005 13.5508 11.5059 13.339 11.4103L5.90793 7.97541L6.28358 7.37789L16.5628 8.88705C16.8019 8.91778 17.0443 8.83584 17.2083 8.65829C18.7587 6.98523 21.3131 4.24689 21.5659 4.01813C22.4196 3.24989 23.2119 3.29086 23.9803 4.14446C24.7521 5.00147 24.7111 5.79361 23.8573 6.56526ZM25.0765 3.16111C23.7617 1.70317 22.044 1.61098 20.5892 2.92552C20.2579 3.22257 17.4371 6.25797 16.3989 7.37789L6.02745 5.85507C5.74059 5.8141 5.45373 5.94384 5.30005 6.18968L4.2209 7.90029C4.1082 8.08126 4.07747 8.29978 4.13894 8.50123C4.19699 8.70268 4.34384 8.87339 4.53508 8.95876L11.8057 12.3219C10.8768 13.3189 10.1631 14.0155 9.5142 14.6403C8.59214 15.5383 7.84766 16.2621 6.90853 17.4401L3.62668 17.2045C3.36373 17.1909 3.10418 17.3104 2.96075 17.5357L2.12065 18.8195C1.89868 19.1576 1.99088 19.6151 2.33239 19.837L5.64497 22.0154L7.80327 25.6415C7.93987 25.8703 8.18575 26 8.43505 26C8.54092 26 8.6502 25.9761 8.75265 25.9283L10.2416 25.2113C10.5148 25.0815 10.6787 24.7947 10.6548 24.4908L10.3782 20.9194C11.6042 19.9531 12.3316 19.219 13.2366 18.3074C13.8684 17.6723 14.5684 16.9655 15.5827 16.0402L19.0421 23.3299C19.1275 23.5075 19.2778 23.6441 19.4656 23.7089C19.65 23.7738 19.8549 23.7602 20.0291 23.6748L21.7503 22.8349C22.0405 22.6915 22.2045 22.3773 22.1532 22.0598L20.5106 11.6186C21.4839 10.7308 24.5643 7.92078 24.8443 7.66811C26.2957 6.34333 26.3879 4.62247 25.0765 3.16111Z" fill="#86888C"/>
</svg>
