<svg width="40" height="40" viewBox="0 0 40 40" fill="none" xmlns="http://www.w3.org/2000/svg">
<path d="M36.9399 19.5703C36.3968 19.5703 35.9613 19.1297 35.9613 18.5917V12.9715C35.9613 12.4131 35.4951 11.9571 34.9213 11.9571H29.6597C29.1166 11.9571 28.6812 11.5165 28.6812 10.9785C28.6812 10.4406 29.1218 10 29.6597 10H34.9162C36.571 10 37.9184 11.3321 37.9184 12.9715V18.5917C37.9184 19.1297 37.4829 19.5703 36.9399 19.5703Z" fill="#86888C"/>
<path d="M29.6605 26.3179C24.3375 26.3179 21.4069 23.4233 21.4069 18.1617C21.4069 12.9001 24.3375 10.0003 29.6605 10.0003C30.2036 10.0003 30.6391 10.4409 30.6391 10.9789C30.6391 11.5168 30.1985 11.9574 29.6605 11.9574C25.4236 11.9574 23.364 13.9862 23.364 18.1566C23.364 22.3269 25.4236 24.3506 29.6605 24.3506C33.8975 24.3506 35.9622 22.3218 35.9622 18.1566C35.9622 17.6135 36.4028 17.178 36.9407 17.178C37.4786 17.178 37.9192 17.6186 37.9192 18.1566C37.9192 23.4182 34.9836 26.3179 29.6605 26.3179ZM2.98367 14.6574C2.4406 14.6574 2 14.2168 2 13.6737V7.99711C2.00512 6.3423 3.35254 5 5.00224 5H10.2587C10.8018 5 11.2424 5.4406 11.2424 5.98367C11.2424 6.52673 10.8018 6.96734 10.2587 6.96734H5.00224C4.43355 6.96734 3.97246 7.43355 3.96734 8.00224V13.6737C3.96734 14.2168 3.52673 14.6574 2.98367 14.6574Z" fill="#86888C"/>
<path d="M10.2655 21.4713C4.93735 21.4713 2.00684 18.5459 2.00684 13.2382C2.00684 12.6952 2.44744 12.2546 2.9905 12.2546C3.53357 12.2546 3.97417 12.69 3.97417 13.2331C3.97417 17.4495 6.03373 19.4989 10.2655 19.4989C14.4974 19.4989 16.5518 17.4495 16.5518 13.2331C16.5518 9.01664 14.4974 6.96734 10.2655 6.96734C9.72248 6.96734 9.28188 6.52673 9.28188 5.98367C9.28188 5.4406 9.72248 5 10.2655 5C15.5886 5 18.5191 7.92539 18.5191 13.2382C18.5191 18.5459 15.5886 21.4713 10.2655 21.4713ZM19.4772 36.9999C19.426 36.9999 19.3696 36.9948 19.3184 36.9846C18.7804 36.8975 18.4167 36.3903 18.5038 35.8523C18.7548 34.3256 19.5079 29.689 21.3728 25.2267C22.4077 22.7419 23.6373 20.7028 25.0154 19.1556C26.7471 17.219 28.7401 16.0304 30.9431 15.6308C31.481 15.5334 31.9933 15.8869 32.0907 16.4249C32.188 16.9628 31.8345 17.4752 31.2966 17.5725C28.0023 18.1719 25.2716 21.0051 23.1916 25.9849C21.4138 30.2372 20.6863 34.6996 20.4506 36.17C20.3686 36.6567 19.9485 36.9999 19.4772 36.9999Z" fill="#86888C"/>
<path d="M19.4702 37C18.9937 37 18.5787 36.6567 18.4968 36.17C18.3994 35.5655 18.3482 34.6689 18.2816 33.5315C18.1228 30.6984 17.882 26.4102 16.6473 22.4601C15.223 17.8953 12.7843 14.9289 9.4132 13.6379C8.906 13.4432 8.64983 12.8745 8.84452 12.3622C9.0392 11.855 9.60789 11.5988 10.1202 11.7935C19.2345 15.2773 19.9262 27.5322 20.254 33.4188C20.3104 34.4537 20.3616 35.3452 20.4436 35.8472C20.5307 36.3852 20.1669 36.8924 19.629 36.9795C19.5778 36.9949 19.5214 37 19.4702 37Z" fill="#86888C"/>
</svg>
