<svg width="40" height="40" viewBox="0 0 40 40" fill="none" xmlns="http://www.w3.org/2000/svg">
<path d="M19.9923 38C14.2735 38 9.82675 36.5075 6.77504 33.5635C3.60536 30.5118 2 25.9521 2 20.0077C2 14.0633 3.60536 9.4985 6.77504 6.44166C9.82675 3.49765 14.2787 2 19.9923 2C25.7111 2 30.1579 3.49252 33.2147 6.43653C36.3895 9.49337 37.9949 14.0581 37.9949 20.0026C37.9949 25.947 36.3844 30.5066 33.2147 33.5635C30.1579 36.5075 25.7111 38 19.9923 38ZM19.9923 3.99516C9.37541 3.99516 3.99003 9.38054 3.99003 20.0077C3.99003 30.6246 9.37541 36.01 19.9923 36.01C30.6143 36.01 36.0048 30.6246 36.0048 20.0077C36.0048 9.38567 30.6143 3.99516 19.9923 3.99516Z" fill="#86888C"/>
<path d="M14.8685 27.8909C14.7146 27.8909 14.5608 27.8499 14.4223 27.773C14.1453 27.614 13.9761 27.3216 13.9761 27.0036V12.935C13.9761 12.617 14.1453 12.3246 14.4223 12.1656C14.6993 12.0066 15.0378 12.0066 15.3096 12.1656L27.4908 19.1974C27.7678 19.3564 27.937 19.6487 27.937 19.9667C27.937 20.2847 27.7678 20.5771 27.4908 20.7361L15.3096 27.773C15.1711 27.8499 15.0172 27.8909 14.8685 27.8909ZM15.7558 14.4737V25.4598L25.27 19.9667L15.7558 14.4737Z" fill="#86888C"/>
</svg>
