<svg width="28" height="28" viewBox="0 0 28 28" fill="none" xmlns="http://www.w3.org/2000/svg">
<path d="M13.9966 26C10.1854 26 7.22036 25.0037 5.18339 23.0418C3.07137 21.0048 2 17.9647 2 14C2 10.0387 3.07137 6.99517 5.18339 4.95479C7.22036 2.9963 10.1854 2 13.9966 2C17.8078 2 20.7728 2.9963 22.8132 4.9582C24.9286 6.99858 26 10.0387 26 14.0034C26 17.9647 24.9286 21.0082 22.8132 23.0452C20.7728 25.0071 17.8078 26 13.9966 26ZM13.9966 3.32727C6.91669 3.32727 3.32727 6.9201 3.32727 14.0034C3.32727 21.0833 6.91669 24.6727 13.9966 24.6727C21.0799 24.6727 24.6727 21.0833 24.6727 14.0034C24.6693 6.9201 21.0799 3.32727 13.9966 3.32727Z" fill="#86888C"/>
<path d="M12.7953 17.9409C12.6759 17.9409 12.5531 17.9102 12.4473 17.8454L6.37051 14.2286C6.16579 14.1058 6.03613 13.884 6.03613 13.6452C6.03613 13.4064 6.16238 13.1812 6.3671 13.0583L12.4439 9.40749C12.6554 9.28125 12.9181 9.27784 13.1297 9.39726C13.3446 9.51668 13.4777 9.74528 13.4777 9.99095V17.2585C13.4777 17.5042 13.3446 17.7294 13.1331 17.8522C13.0273 17.9136 12.9113 17.9409 12.7953 17.9409ZM8.04921 13.6384L12.1129 16.0609V11.1988L8.04921 13.6384Z" fill="#86888C"/>
<path d="M20.0663 17.9476C19.9469 17.9476 19.824 17.9169 19.7183 17.8521L13.6415 14.2354C13.4368 14.1125 13.3071 13.8907 13.3071 13.6519C13.3071 13.4131 13.4334 13.1879 13.6381 13.065L19.7149 9.41421C19.9264 9.28796 20.1891 9.28455 20.4007 9.40397C20.6156 9.52339 20.7487 9.752 20.7487 9.99766V17.2652C20.7487 17.5109 20.6156 17.7361 20.4041 17.8589C20.2983 17.9169 20.1823 17.9476 20.0663 17.9476ZM15.3168 13.6451L19.3839 16.0642V11.2021L15.3168 13.6451Z" fill="#86888C"/>
</svg>
