<svg width="40" height="40" viewBox="0 0 40 40" fill="none" xmlns="http://www.w3.org/2000/svg">
<path d="M19.9949 38C14.2781 38 9.83054 36.5055 6.77509 33.5627C3.60705 30.5073 2 25.9471 2 20C2 14.058 3.60705 9.49275 6.77509 6.43219C9.83054 3.49445 14.2781 2 19.9949 2C25.7117 2 30.1592 3.49446 33.2198 6.4373C36.3929 9.49787 38 14.058 38 20.0051C38 25.9471 36.3929 30.5124 33.2198 33.5678C30.1592 36.5107 25.7117 38 19.9949 38ZM19.9949 3.9909C9.37504 3.9909 3.9909 9.38015 3.9909 20.0051C3.9909 30.625 9.37504 36.0091 19.9949 36.0091C30.6198 36.0091 36.0091 30.625 36.0091 20.0051C36.004 9.38015 30.6198 3.9909 19.9949 3.9909Z" fill="#86888C"/>
<path d="M18.1934 25.9113C18.0143 25.9113 17.8301 25.8652 17.6714 25.768L8.55625 20.3429C8.24917 20.1587 8.05469 19.826 8.05469 19.4677C8.05469 19.1095 8.24405 18.7717 8.55113 18.5874L17.6663 13.1112C17.9836 12.9218 18.3777 12.9167 18.695 13.0958C19.0174 13.275 19.217 13.6179 19.217 13.9864V24.8877C19.217 25.2562 19.0174 25.594 18.7001 25.7782C18.5415 25.8704 18.3675 25.9113 18.1934 25.9113ZM11.0743 19.4575L17.1698 23.0913V15.7981L11.0743 19.4575Z" fill="#86888C"/>
<path d="M29.0997 25.9214C28.9206 25.9214 28.7363 25.8754 28.5777 25.7781L19.4625 20.353C19.1554 20.1688 18.9609 19.8361 18.9609 19.4779C18.9609 19.1196 19.1503 18.7818 19.4574 18.5976L28.5725 13.1213C28.8899 12.9319 29.2839 12.9268 29.6013 13.106C29.9237 13.2851 30.1233 13.628 30.1233 13.9965V24.8978C30.1233 25.2663 29.9237 25.6041 29.6064 25.7884C29.4477 25.8754 29.2737 25.9214 29.0997 25.9214ZM21.9754 19.4676L28.0761 23.0963V15.8031L21.9754 19.4676Z" fill="#86888C"/>
</svg>
