<svg width="20" height="20" viewBox="0 0 20 20" fill="none" xmlns="http://www.w3.org/2000/svg">
<path d="M9.76855 18C7.22688 18 5.25053 17.3367 3.89421 16.0282C2.48546 14.6719 1.77197 12.6454 1.77197 10.0034C1.77197 7.36145 2.48546 5.33267 3.89421 3.97407C5.25053 2.66562 7.22916 2 9.76855 2C12.3102 2 14.2866 2.66334 15.6452 3.97179C17.0562 5.33039 17.7697 7.35917 17.7697 10.0011C17.7697 12.6431 17.0539 14.6696 15.6452 16.0282C14.2866 17.3367 12.3102 18 9.76855 18ZM9.76855 2.88674C5.04993 2.88674 2.65643 5.28024 2.65643 10.0034C2.65643 14.722 5.04993 17.1155 9.76855 17.1155C14.4895 17.1155 16.8852 14.722 16.8852 10.0034C16.8852 5.28252 14.4895 2.88674 9.76855 2.88674Z" fill="#86888C"/>
<path d="M7.49136 13.5071C7.42298 13.5071 7.35459 13.4889 7.29304 13.4547C7.16995 13.384 7.09473 13.2541 7.09473 13.1128V6.86002C7.09473 6.71869 7.16995 6.58875 7.29304 6.51809C7.41614 6.44742 7.56659 6.44742 7.6874 6.51809L13.1013 9.64332C13.2244 9.71398 13.2996 9.84392 13.2996 9.98525C13.2996 10.1266 13.2244 10.2565 13.1013 10.3272L7.6874 13.4547C7.62586 13.4889 7.55747 13.5071 7.49136 13.5071ZM7.88572 7.54387V12.4266L12.1142 9.98525L7.88572 7.54387Z" fill="#86888C"/>
</svg>
