<svg width="40" height="40" viewBox="0 0 40 40" fill="none" xmlns="http://www.w3.org/2000/svg">
<path fill-rule="evenodd" clip-rule="evenodd" d="M10.8851 15.5C10.8851 13.0147 12.8998 11 15.3851 11H24.3851C26.8703 11 28.8851 13.0147 28.8851 15.5V24.5C28.8851 26.9853 26.8703 29 24.3851 29H15.3851C12.8998 29 10.8851 26.9853 10.8851 24.5V15.5ZM15.3851 12.8H24.3851C25.8762 12.8 27.0851 14.0088 27.0851 15.5V24.5C27.0851 25.9912 25.8762 27.2 24.3851 27.2H15.3851C13.8939 27.2 12.6851 25.9912 12.6851 24.5V15.5C12.6851 14.0088 13.8939 12.8 15.3851 12.8Z" fill="#86888C"/>
<path fill-rule="evenodd" clip-rule="evenodd" d="M6.86738 33.5627C9.92282 36.5055 14.3704 38 20.0872 38C25.804 38 30.2515 36.5107 33.3121 33.5678C36.4852 30.5124 38.0923 25.9471 38.0923 20.0051C38.0923 14.058 36.4852 9.49787 33.3121 6.4373C30.2515 3.49446 25.804 2 20.0872 2C14.3704 2 9.92282 3.49446 6.86738 6.43219C3.69934 9.49275 2.09229 14.058 2.09229 20C2.09229 25.9471 3.69934 30.5073 6.86738 33.5627ZM4.08319 20.0051C4.08319 9.38015 9.46732 3.9909 20.0872 3.9909C30.7121 3.9909 36.0963 9.38015 36.1014 20.0051C36.1014 30.625 30.7121 36.0091 20.0872 36.0091C9.46732 36.0091 4.08319 30.625 4.08319 20.0051Z" fill="#86888C"/>
</svg>
