<svg width="20" height="20" viewBox="0 0 20 20" fill="none" xmlns="http://www.w3.org/2000/svg">
<path fill-rule="evenodd" clip-rule="evenodd" d="M10.3347 17.0188C11.9032 16.9892 17.0211 16.3995 17.0211 10.0228C17.0211 3.64599 11.8782 3.02675 10.3028 2.99032C10.0888 2.98349 9.83381 2.97894 9.60842 2.98349C8.0535 2.99715 2.98122 3.54354 2.98122 9.97951C2.98122 16.4269 8.09676 17.0006 9.66534 17.0233C9.88845 17.0256 10.1343 17.0233 10.3347 17.0188ZM10.3256 2.00911C11.605 2.0387 18 2.56915 18 10.0205C18 17.4764 11.6301 17.9727 10.3529 17.9954C10.2163 17.9977 10.0615 18 9.90438 18C9.81787 18 9.73364 18 9.6494 17.9977C8.37223 17.9795 2 17.506 2 9.97496C2 8.65452 2.36653 2.06375 9.59704 2C9.83836 2 10.1047 2.00455 10.3256 2.00911ZM7.23848 12.4587C7.90097 12.4587 8.5794 12.1969 8.5794 10.2482C8.5794 8.27661 7.86227 8.0239 7.23848 8.0239C6.57143 8.0239 5.89072 8.28799 5.89072 10.2482C5.89072 12.1969 6.57143 12.4587 7.23848 12.4587ZM7.23848 7.13603C8.26067 7.13603 9.48321 7.67558 9.48321 10.2482C9.48321 12.8139 8.26295 13.3534 7.23848 13.3534C6.21172 13.3534 4.98691 12.8162 4.98691 10.2482C4.98691 7.67558 6.21172 7.13603 7.23848 7.13603ZM14.0182 7.23847C14.1981 7.23847 14.3438 7.38418 14.3438 7.56403V12.9163C14.3438 13.0962 14.1981 13.2419 14.0182 13.2419H13.8384C13.7291 13.2419 13.6266 13.1873 13.5652 13.0962L10.938 9.11895V12.9163C10.938 13.0962 10.7923 13.2419 10.6124 13.2419H10.3939C10.214 13.2419 10.0683 13.0962 10.0683 12.9163V7.56403C10.0683 7.38418 10.214 7.23847 10.3939 7.23847H10.5669C10.6762 7.23847 10.7786 7.29311 10.8401 7.38418L13.4741 11.3637V7.56403C13.4741 7.38418 13.6198 7.23847 13.7997 7.23847H14.0182Z" fill="#86888C"/>
</svg>
