<svg width="40" height="40" viewBox="0 0 40 40" fill="none" xmlns="http://www.w3.org/2000/svg">
<path d="M20.0872 38C14.3704 38 9.92282 36.5055 6.86738 33.5627C3.69934 30.5073 2.09229 25.9471 2.09229 20C2.09229 14.058 3.69934 9.49275 6.86738 6.43219C9.92282 3.49445 14.3704 2 20.0872 2C25.804 2 30.2515 3.49446 33.3121 6.4373C36.4852 9.49787 38.0923 14.058 38.0923 20.0051C38.0923 25.9471 36.4852 30.5124 33.3121 33.5678C30.2515 36.5107 25.804 38 20.0872 38ZM20.0872 3.9909C9.46732 3.9909 4.08319 9.38015 4.08319 20.0051C4.08319 30.625 9.46732 36.0091 20.0872 36.0091C30.7121 36.0091 36.1014 30.625 36.1014 20.0051C36.0963 9.38015 30.7121 3.9909 20.0872 3.9909Z" fill="#86888C"/>
<path d="M20.2303 31.1366C16.7245 31.1366 13.9864 30.2102 12.0927 28.3831C10.1274 26.4894 9.12939 23.6745 9.12939 20.0305C9.12939 17.0007 9.82032 14.5389 11.1868 12.7067C12.5329 10.9 14.5135 9.72288 17.0674 9.2162C17.6202 9.1036 18.1627 9.46698 18.2701 10.0197C18.3827 10.5725 18.0194 11.115 17.4666 11.2225C13.2289 12.0669 11.1715 14.9484 11.1715 20.0305C11.1715 23.1013 11.9596 25.4147 13.5104 26.9091C15.01 28.3524 17.2721 29.0843 20.2303 29.0843C23.1885 29.0843 25.4507 28.3524 26.9503 26.904C28.501 25.4095 29.2892 23.0962 29.2892 20.0254C29.2892 14.8716 27.1703 11.9799 22.8149 11.1815C22.2571 11.0791 21.8886 10.5469 21.9909 9.98902C22.0933 9.43115 22.6256 9.06266 23.1834 9.16502C25.8038 9.64611 27.8306 10.8079 29.2175 12.6197C30.625 14.4621 31.3364 16.9495 31.3364 20.0203C31.3364 23.6643 30.3384 26.4792 28.3679 28.3729C26.4743 30.2102 23.7362 31.1366 20.2303 31.1366Z" fill="#86888C"/>
<path d="M20.1794 15.5116C19.6164 15.5116 19.1558 15.051 19.1558 14.488V7.00041C19.1558 6.43743 19.6164 5.97681 20.1794 5.97681C20.7423 5.97681 21.203 6.43743 21.203 7.00041V14.488C21.203 15.051 20.7423 15.5116 20.1794 15.5116Z" fill="#86888C"/>
</svg>
