<svg width="20" height="20" viewBox="0 0 20 20" fill="none" xmlns="http://www.w3.org/2000/svg">
<path d="M10.09 18C7.54921 18 5.57252 17.3358 4.21455 16.0279C2.80653 14.6699 2.09229 12.6432 2.09229 10C2.09229 7.35911 2.80653 5.33011 4.21455 3.96986C5.57252 2.6642 7.54921 2 10.09 2C12.6308 2 14.6075 2.6642 15.9677 3.97214C17.378 5.33239 18.0923 7.35911 18.0923 10.0023C18.0923 12.6432 17.378 14.6722 15.9677 16.0301C14.6075 17.3381 12.6308 18 10.09 18ZM10.09 2.88484C5.37008 2.88484 2.97713 5.28007 2.97713 10.0023C2.97713 14.7222 5.37008 17.1152 10.09 17.1152C14.8122 17.1152 17.2074 14.7222 17.2074 10.0023C17.2052 5.28007 14.8122 2.88484 10.09 2.88484Z" fill="#86888C"/>
<path d="M10.1535 14.9496C8.59533 14.9496 7.37838 14.5379 6.53676 13.7258C5.66329 12.8842 5.21973 11.6331 5.21973 10.0136C5.21973 8.66698 5.52681 7.57287 6.13414 6.75854C6.73238 5.95558 7.61267 5.4324 8.74773 5.20721C8.9934 5.15717 9.23451 5.31867 9.28228 5.56434C9.33232 5.81 9.17082 6.05111 8.92516 6.09888C7.04173 6.4742 6.12732 7.75484 6.12732 10.0136C6.12732 11.3784 6.47762 12.4065 7.16684 13.0707C7.83332 13.7122 8.83872 14.0375 10.1535 14.0375C11.4682 14.0375 12.4736 13.7122 13.1401 13.0685C13.8293 12.4043 14.1796 11.3761 14.1796 10.0113C14.1796 7.72072 13.2379 6.43553 11.3022 6.08068C11.0542 6.03519 10.8905 5.79863 10.936 5.55069C10.9815 5.30275 11.218 5.13897 11.466 5.18447C12.6306 5.39828 13.5314 5.91463 14.1478 6.71987C14.7733 7.53875 15.0895 8.64423 15.0895 10.009C15.0895 11.6286 14.6459 12.8797 13.7702 13.7213C12.9286 14.5379 11.7116 14.9496 10.1535 14.9496Z" fill="#86888C"/>
<path d="M10.1312 8.00516C9.88099 8.00516 9.67627 7.80044 9.67627 7.55022V4.22239C9.67627 3.97218 9.88099 3.76746 10.1312 3.76746C10.3814 3.76746 10.5861 3.97218 10.5861 4.22239V7.55022C10.5861 7.80044 10.3814 8.00516 10.1312 8.00516Z" fill="#86888C"/>
</svg>
