<svg width="40" height="40" viewBox="0 0 40 40" fill="none" xmlns="http://www.w3.org/2000/svg">
<path fill-rule="evenodd" clip-rule="evenodd" d="M20.0051 35.7871C9.52476 35.7871 4.21286 30.4752 4.21286 20.0051C4.21286 9.52476 9.52476 4.21286 20.0051 4.21286C30.4804 4.21286 35.7871 9.52476 35.7871 20.0051C35.7871 30.4752 30.4752 35.7871 20.0051 35.7871ZM20.0051 2C8.2288 2 2 8.22368 2 20.0051C2 31.7763 8.22368 38 20.0051 38C31.7763 38 38 31.7763 38 20.0051C38 8.22368 31.7763 2 20.0051 2ZM12.0655 22.9197V15.9892L17.864 19.4724C17.8589 19.4724 12.0655 22.9197 12.0655 22.9197ZM28.6927 19.4622L22.8941 22.9095V15.9789L28.6927 19.4622ZM10.4109 13.0694C10.0626 13.2641 9.84747 13.6329 9.84747 14.0324V24.8611C9.84747 25.4707 10.3443 25.9676 10.9539 25.9676C11.1537 25.9676 11.3483 25.9163 11.5225 25.8139L20.5788 20.4252C20.6249 20.3995 20.6454 20.3483 20.6864 20.3176V24.856C20.6864 25.4656 21.1833 25.9624 21.7928 25.9624C21.9926 25.9624 22.1873 25.9112 22.3563 25.8088L31.4126 20.42C31.9402 20.1076 32.1093 19.4263 31.7968 18.9038C31.7046 18.745 31.5714 18.617 31.4178 18.5248L22.3614 13.0746C21.8389 12.7621 21.1577 12.9311 20.8452 13.4536C20.7427 13.6278 20.6864 13.8224 20.6864 14.0222V18.6272C20.6454 18.5965 20.6301 18.5504 20.584 18.5248L11.5276 13.0848C11.1844 12.8799 10.7592 12.8748 10.4109 13.0694Z" fill="#86888C"/>
</svg>
