<svg width="24" height="24" viewBox="0 0 24 24" fill="none" xmlns="http://www.w3.org/2000/svg">
<path d="M11.9971 22.0028C8.81961 22.0028 6.34882 21.1736 4.65318 19.5378C2.89199 17.8421 2 15.3086 2 12.0057C2 8.70276 2.89199 6.16643 4.65318 4.46794C6.34882 2.83215 8.82246 2 11.9971 2C15.1747 2 17.6455 2.8293 19.344 4.46509C21.108 6.16358 22 8.69991 22 12.0028C22 15.3058 21.1052 17.8393 19.344 19.5378C17.6455 21.1736 15.1747 22.0028 11.9971 22.0028ZM11.9971 3.10858C6.09803 3.10858 3.10573 6.10088 3.10573 12.0057C3.10573 17.9048 6.09803 20.8971 11.9971 20.8971C17.8991 20.8971 20.8943 17.9048 20.8943 12.0057C20.8943 6.10373 17.8991 3.10858 11.9971 3.10858Z" fill="#86888C"/>
<path d="M9.22133 16.4629C8.90785 16.4629 8.65137 16.2064 8.65137 15.8929V8.11293C8.65137 7.79945 8.90785 7.54297 9.22133 7.54297C9.53481 7.54297 9.79129 7.79945 9.79129 8.11293V15.8929C9.79129 16.2064 9.53481 16.4629 9.22133 16.4629ZM14.7785 16.4629C14.465 16.4629 14.2085 16.2064 14.2085 15.8929V8.11293C14.2085 7.79945 14.465 7.54297 14.7785 7.54297C15.0919 7.54297 15.3484 7.79945 15.3484 8.11293V15.8929C15.3484 16.2064 15.0919 16.4629 14.7785 16.4629Z" fill="#86888C"/>
</svg>
