<svg width="20" height="20" viewBox="0 0 20 20" fill="none" xmlns="http://www.w3.org/2000/svg">
<path d="M9.99772 18.0023C7.45568 18.0023 5.47905 17.3388 4.12254 16.0302C2.71359 14.6737 2 12.6469 2 10.0046C2 7.36221 2.71359 5.33314 4.12254 3.97435C5.47905 2.66572 7.45796 2 9.99772 2C12.5398 2 14.5164 2.66344 15.8752 3.97207C17.2864 5.33086 18 7.35993 18 10.0023C18 12.6446 17.2841 14.6714 15.8752 16.0302C14.5164 17.3388 12.5398 18.0023 9.99772 18.0023ZM9.99772 2.88686C5.27843 2.88686 2.88458 5.28071 2.88458 10.0046C2.88458 14.7239 5.27843 17.1177 9.99772 17.1177C14.7193 17.1177 17.1154 14.7239 17.1154 10.0046C17.1154 5.28299 14.7193 2.88686 9.99772 2.88686Z" fill="#86888C"/>
<path d="M7.77726 13.5703C7.52648 13.5703 7.32129 13.3651 7.32129 13.1143V6.8903C7.32129 6.63951 7.52648 6.43433 7.77726 6.43433C8.02804 6.43433 8.23323 6.63951 8.23323 6.8903V13.1143C8.23323 13.3651 8.02804 13.5703 7.77726 13.5703ZM12.223 13.5703C11.9722 13.5703 11.767 13.3651 11.767 13.1143V6.8903C11.767 6.63951 11.9722 6.43433 12.223 6.43433C12.4738 6.43433 12.6789 6.63951 12.6789 6.8903V13.1143C12.6789 13.3651 12.4738 13.5703 12.223 13.5703Z" fill="#86888C"/>
</svg>
