<svg width="28" height="28" viewBox="0 0 28 28" fill="none" xmlns="http://www.w3.org/2000/svg">
<path fill-rule="evenodd" clip-rule="evenodd" d="M7.95413 11C7.95413 9.34315 9.29728 8 10.9541 8H16.9541C18.611 8 19.9541 9.34315 19.9541 11V17C19.9541 18.6569 18.611 20 16.9541 20H10.9541C9.29728 20 7.95413 18.6569 7.95413 17V11ZM10.9541 9.2H16.9541C17.9482 9.2 18.7541 10.0059 18.7541 11V17C18.7541 17.9941 17.9482 18.8 16.9541 18.8H10.9541C9.96002 18.8 9.15413 17.9941 9.15413 17V11C9.15413 10.0059 9.96002 9.2 10.9541 9.2Z" fill="#86888C"/>
<path fill-rule="evenodd" clip-rule="evenodd" d="M5.27568 23.0418C7.31264 25.0037 10.2777 26 14.0889 26C17.9001 26 20.8651 25.0071 22.9055 23.0452C25.0209 21.0082 26.0923 17.9647 26.0923 14.0034C26.0923 10.0387 25.0209 6.99858 22.9055 4.9582C20.8651 2.9963 17.9001 2 14.0889 2C10.2777 2 7.31264 2.9963 5.27568 4.95479C3.16365 6.99517 2.09229 10.0387 2.09229 14C2.09229 17.9647 3.16365 21.0048 5.27568 23.0418ZM3.41955 14.0034C3.41955 6.9201 7.00898 3.32727 14.0889 3.32727C21.1722 3.32727 24.7616 6.9201 24.765 14.0034C24.765 21.0833 21.1722 24.6727 14.0889 24.6727C7.00898 24.6727 3.41955 21.0833 3.41955 14.0034Z" fill="#86888C"/>
</svg>
