<svg width="24" height="24" viewBox="0 0 24 24" fill="none" xmlns="http://www.w3.org/2000/svg">
<path d="M11.9972 22C8.82115 22 6.3503 21.1697 4.65283 19.5348C2.89281 17.8374 2 15.304 2 12C2 8.69889 2.89281 6.16264 4.65283 4.46233C6.3503 2.83025 8.82115 2 11.9972 2C15.1732 2 17.644 2.83025 19.3443 4.46517C21.1072 6.16548 22 8.69889 22 12.0028C22 15.304 21.1072 17.8402 19.3443 19.5377C17.644 21.1726 15.1732 22 11.9972 22ZM11.9972 3.10606C6.09724 3.10606 3.10606 6.10009 3.10606 12.0028C3.10606 17.9028 6.09724 20.8939 11.9972 20.8939C17.8999 20.8939 20.8939 17.9028 20.8939 12.0028C20.8911 6.10009 17.8999 3.10606 11.9972 3.10606Z" fill="#86888C"/>
<path d="M10.9964 15.2841C10.8969 15.2841 10.7945 15.2585 10.7064 15.2045L5.64242 12.1905C5.47182 12.0882 5.36377 11.9033 5.36377 11.7043C5.36377 11.5053 5.46897 11.3176 5.63957 11.2153L10.7035 8.17289C10.8798 8.06769 11.0988 8.06484 11.2751 8.16436C11.4542 8.26388 11.5651 8.45438 11.5651 8.6591V14.7154C11.5651 14.9201 11.4542 15.1078 11.2779 15.2101C11.1898 15.2613 11.0931 15.2841 10.9964 15.2841ZM7.04134 11.6986L10.4277 13.7174V9.66564L7.04134 11.6986Z" fill="#86888C"/>
<path d="M17.0555 15.2897C16.956 15.2897 16.8536 15.2641 16.7655 15.2101L11.7015 12.1961C11.5309 12.0938 11.4229 11.909 11.4229 11.7099C11.4229 11.5109 11.5281 11.3232 11.6987 11.2209L16.7626 8.17851C16.9389 8.0733 17.1579 8.07046 17.3341 8.16998C17.5133 8.26949 17.6242 8.46 17.6242 8.66472V14.721C17.6242 14.9257 17.5133 15.1134 17.337 15.2158C17.2488 15.2641 17.1522 15.2897 17.0555 15.2897ZM13.0976 11.7042L16.4868 13.7202V9.66841L13.0976 11.7042Z" fill="#86888C"/>
</svg>
