<svg width="20" height="20" viewBox="0 0 20 20" fill="none" xmlns="http://www.w3.org/2000/svg">
<path d="M9.99773 18C7.45692 18 5.48024 17.3358 4.12226 16.0279C2.71424 14.6699 2 12.6432 2 10C2 7.35911 2.71424 5.33011 4.12226 3.96986C5.48024 2.6642 7.45692 2 9.99773 2C12.5385 2 14.5152 2.6642 15.8755 3.97214C17.2858 5.33239 18 7.35911 18 10.0023C18 12.6432 17.2858 14.6722 15.8755 16.0301C14.5152 17.3381 12.5385 18 9.99773 18ZM9.99773 2.88484C5.27779 2.88484 2.88485 5.28007 2.88485 10.0023C2.88485 14.7222 5.27779 17.1152 9.99773 17.1152C14.7199 17.1152 17.1152 14.7222 17.1152 10.0023C17.1129 5.28007 14.7199 2.88484 9.99773 2.88484Z" fill="#86888C"/>
<path d="M9.19703 12.6272C9.11742 12.6272 9.03553 12.6068 8.96501 12.5635L4.91384 10.1524C4.77736 10.0705 4.69092 9.92265 4.69092 9.76342C4.69092 9.6042 4.77508 9.45407 4.91156 9.37218L8.96274 6.93829C9.10377 6.85413 9.27892 6.85185 9.41995 6.93146C9.56325 7.01108 9.65196 7.16348 9.65196 7.32726V12.1723C9.65196 12.3361 9.56325 12.4862 9.42222 12.5681C9.35171 12.609 9.27437 12.6272 9.19703 12.6272ZM6.03297 9.75887L8.7421 11.3739V8.13249L6.03297 9.75887Z" fill="#86888C"/>
<path d="M14.0442 12.6317C13.9646 12.6317 13.8827 12.6113 13.8122 12.5681L9.761 10.1569C9.62452 10.075 9.53809 9.92717 9.53809 9.76794C9.53809 9.60871 9.62225 9.45859 9.75873 9.3767L13.8099 6.94281C13.9509 6.85864 14.1261 6.85637 14.2671 6.93598C14.4104 7.01559 14.4991 7.168 14.4991 7.33177V12.1768C14.4991 12.3406 14.4104 12.4907 14.2694 12.5726C14.1989 12.6113 14.1215 12.6317 14.0442 12.6317ZM10.8779 9.76339L13.5893 11.3761V8.13473L10.8779 9.76339Z" fill="#86888C"/>
</svg>
