<svg width="28" height="28" viewBox="0 0 28 28" fill="none" xmlns="http://www.w3.org/2000/svg">
<path fill-rule="evenodd" clip-rule="evenodd" d="M14.502 24.5282C16.8549 24.4838 24.5316 23.5993 24.5316 14.0341C24.5316 4.46898 16.8173 3.54013 14.4542 3.48549C14.1332 3.47524 13.7507 3.46841 13.4126 3.47524C11.0803 3.49573 3.47183 4.31531 3.47183 13.9693C3.47183 23.6403 11.1451 24.5009 13.498 24.535C13.8327 24.5384 14.2015 24.535 14.502 24.5282ZM14.4883 2.01366C16.4075 2.05805 26 2.85373 26 14.0307C26 25.2146 16.4451 25.959 14.5293 25.9932C14.3244 25.9966 14.0922 26 13.8566 26C13.7268 26 13.6005 26 13.4741 25.9966C11.5583 25.9693 2 25.259 2 13.9624C2 11.9818 2.5498 2.09562 13.3956 2C13.7575 2 14.1571 2.00683 14.4883 2.01366ZM9.85771 17.6881C10.8515 17.6881 11.8691 17.2954 11.8691 14.3722C11.8691 11.4149 10.7934 11.0359 9.85771 11.0359C8.85714 11.0359 7.83609 11.432 7.83609 14.3722C7.83609 17.2954 8.85714 17.6881 9.85771 17.6881ZM9.85771 9.70404C11.391 9.70404 13.2248 10.5134 13.2248 14.3722C13.2248 18.2208 11.3944 19.0302 9.85771 19.0302C8.31759 19.0302 6.48037 18.2242 6.48037 14.3722C6.48037 10.5134 8.31759 9.70404 9.85771 9.70404ZM20.0273 9.85771C20.2971 9.85771 20.5157 10.0763 20.5157 10.346V18.3745C20.5157 18.6443 20.2971 18.8628 20.0273 18.8628H19.7575C19.5936 18.8628 19.44 18.7809 19.3478 18.6443L15.4069 12.6784V18.3745C15.4069 18.6443 15.1884 18.8628 14.9186 18.8628H14.5908C14.321 18.8628 14.1024 18.6443 14.1024 18.3745V10.346C14.1024 10.0763 14.321 9.85771 14.5908 9.85771H14.8503C15.0142 9.85771 15.1679 9.93967 15.2601 10.0763L19.2112 16.0455V10.346C19.2112 10.0763 19.4297 9.85771 19.6995 9.85771H20.0273Z" fill="#86888C"/>
</svg>
