<svg width="20" height="20" viewBox="0 0 20 20" fill="none" xmlns="http://www.w3.org/2000/svg">
<path fill-rule="evenodd" clip-rule="evenodd" d="M6.00018 8C6.00018 6.89543 6.89561 6 8.00018 6H12.0002C13.1048 6 14.0002 6.89543 14.0002 8V12C14.0002 13.1046 13.1048 14 12.0002 14H8.00018C6.89561 14 6.00018 13.1046 6.00018 12V8ZM8.00018 6.8H12.0002C12.6629 6.8 13.2002 7.33726 13.2002 8V12C13.2002 12.6627 12.6629 13.2 12.0002 13.2H8.00018C7.33744 13.2 6.80018 12.6627 6.80018 12V8C6.80018 7.33726 7.33744 6.8 8.00018 6.8Z" fill="#86888C"/>
<path fill-rule="evenodd" clip-rule="evenodd" d="M4.21455 16.0279C5.57252 17.3358 7.54921 18 10.09 18C12.6308 18 14.6075 17.3381 15.9677 16.0301C17.378 14.6722 18.0923 12.6432 18.0923 10.0023C18.0923 7.35911 17.378 5.33239 15.9677 3.97214C14.6075 2.6642 12.6308 2 10.09 2C7.54921 2 5.57252 2.6642 4.21455 3.96986C2.80653 5.33011 2.09229 7.35911 2.09229 10C2.09229 12.6432 2.80653 14.6699 4.21455 16.0279ZM2.97713 10.0023C2.97713 5.28007 5.37008 2.88484 10.09 2.88484C14.8122 2.88484 17.2052 5.28007 17.2074 10.0023C17.2074 14.7222 14.8122 17.1152 10.09 17.1152C5.37008 17.1152 2.97713 14.7222 2.97713 10.0023Z" fill="#86888C"/>
</svg>
