<svg width="28" height="28" viewBox="0 0 28 28" fill="none" xmlns="http://www.w3.org/2000/svg">
<path fill-rule="evenodd" clip-rule="evenodd" d="M14.0034 24.5248C7.01651 24.5248 3.47524 20.9835 3.47524 14.0034C3.47524 7.01651 7.01651 3.47524 14.0034 3.47524C20.9869 3.47524 24.5248 7.01651 24.5248 14.0034C24.5248 20.9835 20.9835 24.5248 14.0034 24.5248ZM14.0034 2C6.15253 2 2 6.14912 2 14.0034C2 21.8509 6.14912 26 14.0034 26C21.8509 26 26 21.8509 26 14.0034C26 6.14912 21.8509 2 14.0034 2ZM8.7103 15.9465V11.3261L12.576 13.6483C12.5726 13.6483 8.7103 15.9465 8.7103 15.9465ZM19.7951 13.6414L15.9294 15.9397V11.3193L19.7951 13.6414ZM7.60729 9.37962C7.37507 9.50939 7.23164 9.75526 7.23164 10.0216V17.2408C7.23164 17.6471 7.56289 17.9784 7.96927 17.9784C8.10245 17.9784 8.23221 17.9442 8.34832 17.8759L14.3859 14.2834C14.4166 14.2664 14.4303 14.2322 14.4576 14.2117V17.2373C14.4576 17.6437 14.7888 17.975 15.1952 17.975C15.3284 17.975 15.4582 17.9408 15.5709 17.8725L21.6084 14.28C21.9602 14.0717 22.0729 13.6175 21.8645 13.2692C21.8031 13.1633 21.7143 13.078 21.6118 13.0165L15.5743 9.38304C15.226 9.17473 14.7718 9.28742 14.5635 9.63574C14.4952 9.75185 14.4576 9.88162 14.4576 10.0148V13.0848C14.4303 13.0643 14.42 13.0336 14.3893 13.0165L8.35174 9.38987C8.12294 9.25327 7.8395 9.24986 7.60729 9.37962Z" fill="#86888C"/>
</svg>
