<svg width="24" height="24" viewBox="0 0 24 24" fill="none" xmlns="http://www.w3.org/2000/svg">
<path fill-rule="evenodd" clip-rule="evenodd" d="M12.4183 20.7735C14.3791 20.7365 20.7763 19.9994 20.7763 12.0285C20.7763 4.05748 14.3478 3.28344 12.3785 3.23791C12.111 3.22937 11.7923 3.22368 11.5105 3.22937C9.56688 3.24644 3.22652 3.92942 3.22652 11.9744C3.22652 20.0336 9.62095 20.7507 11.5817 20.7792C11.8606 20.782 12.1679 20.7792 12.4183 20.7735ZM12.4069 2.01138C14.0063 2.04838 22 2.71144 22 12.0256C22 21.3455 14.0376 21.9659 12.4411 21.9943C12.2703 21.9972 12.0768 22 11.8805 22C11.7723 22 11.667 22 11.5618 21.9972C9.96528 21.9744 2 21.3825 2 11.9687C2 10.3182 2.45817 2.07968 11.4963 2C11.798 2 12.1309 2.00569 12.4069 2.01138ZM8.54809 15.0734C9.37621 15.0734 10.2242 14.7462 10.2242 12.3102C10.2242 9.84576 9.32783 9.52988 8.54809 9.52988C7.71429 9.52988 6.8634 9.85999 6.8634 12.3102C6.8634 14.7462 7.71429 15.0734 8.54809 15.0734ZM8.54809 8.42003C9.82584 8.42003 11.354 9.09448 11.354 12.3102C11.354 15.5174 9.82869 16.1918 8.54809 16.1918C7.26466 16.1918 5.73364 15.5202 5.73364 12.3102C5.73364 9.09448 7.26466 8.42003 8.54809 8.42003ZM17.0228 8.54809C17.2476 8.54809 17.4297 8.73022 17.4297 8.95504V15.6454C17.4297 15.8702 17.2476 16.0524 17.0228 16.0524H16.798C16.6614 16.0524 16.5333 15.9841 16.4565 15.8702L13.1725 10.8987V15.6454C13.1725 15.8702 12.9903 16.0524 12.7655 16.0524H12.4923C12.2675 16.0524 12.0854 15.8702 12.0854 15.6454V8.95504C12.0854 8.73022 12.2675 8.54809 12.4923 8.54809H12.7086C12.8452 8.54809 12.9733 8.61639 13.0501 8.73022L16.3426 13.7046V8.95504C16.3426 8.73022 16.5248 8.54809 16.7496 8.54809H17.0228Z" fill="#86888C"/>
</svg>
