<svg width="40" height="40" viewBox="0 0 40 40" fill="none" xmlns="http://www.w3.org/2000/svg">
<path d="M19.9949 38.0051C14.2753 38.0051 9.82787 36.5124 6.77572 33.568C3.60559 30.5158 2 25.9555 2 20.0103C2 14.065 3.60559 9.49957 6.77572 6.44229C9.82787 3.49786 14.2804 2 19.9949 2C25.7144 2 30.1619 3.49273 33.2192 6.43716C36.3944 9.49444 38 14.0598 38 20.0051C38 25.9504 36.3893 30.5107 33.2192 33.568C30.1619 36.5124 25.7144 38.0051 19.9949 38.0051ZM19.9949 3.99544C9.37646 3.99544 3.99031 9.38159 3.99031 20.0103C3.99031 30.6287 9.37646 36.0148 19.9949 36.0148C30.6184 36.0148 36.0097 30.6287 36.0097 20.0103C36.0097 9.38672 30.6184 3.99544 19.9949 3.99544Z" fill="#86888C"/>
<path d="M14.9986 28.0331C14.4343 28.0331 13.9727 27.5715 13.9727 27.0072V13.0032C13.9727 12.439 14.4343 11.9773 14.9986 11.9773C15.5629 11.9773 16.0245 12.439 16.0245 13.0032V27.0072C16.0245 27.5715 15.5629 28.0331 14.9986 28.0331ZM25.0014 28.0331C24.4372 28.0331 23.9755 27.5715 23.9755 27.0072V13.0032C23.9755 12.439 24.4372 11.9773 25.0014 11.9773C25.5657 11.9773 26.0274 12.439 26.0274 13.0032V27.0072C26.0274 27.5715 25.5657 28.0331 25.0014 28.0331Z" fill="#86888C"/>
</svg>
