<svg width="24" height="24" viewBox="0 0 24 24" fill="none" xmlns="http://www.w3.org/2000/svg">
<path fill-rule="evenodd" clip-rule="evenodd" d="M17.255 8.59932C17.255 10.5743 16.5834 11.9972 15.2544 12.8224C15.0723 12.9363 14.9613 13.1355 14.9613 13.3489V14.8429C14.9613 15.1787 14.8816 15.4234 14.7223 15.5686C14.5202 15.7536 14.1759 15.7934 13.9226 15.7934H10.5902C10.2203 15.7934 9.94707 15.7166 9.77348 15.5572C9.61127 15.4149 9.52874 15.1759 9.52874 14.8429V13.3546C9.52874 13.1383 9.41776 12.9391 9.23278 12.8253C7.91804 12.0114 7.24644 10.5999 7.23221 8.58224L17.2464 8.58793V8.59932H17.255ZM11.6488 20.7592H12.8469V17.0398H11.6488V20.7592ZM8.88845 3.62493C8.88845 3.41719 9.06488 3.24075 9.27547 3.24075C9.48321 3.24075 9.65965 3.41719 9.65965 3.62493V7.34434H8.88845V3.62493ZM14.6853 3.62493C14.6853 3.41719 14.8617 3.24075 15.0723 3.24075C15.28 3.24075 15.4565 3.41719 15.4565 3.62493V7.35003H14.6853V3.62493ZM17.3176 7.35003H16.7001V3.62493C16.7001 2.72851 15.9687 2 15.0723 2C14.1759 2 13.4445 2.73136 13.4445 3.62493V7.34718L10.9032 7.34434V3.62493C10.9032 2.72851 10.1719 2 9.27547 2C8.37906 2 7.6477 2.73136 7.6477 3.62493V7.34434H7.18099C6.53216 7.34434 6 7.87365 6 8.56801C6 11.3882 7.18668 12.8964 8.29368 13.6875V14.8458C8.29368 15.7251 8.65509 16.226 8.95105 16.4849C9.31246 16.8179 9.80763 16.9943 10.4109 17.0256V21.0381C10.4109 21.5674 10.8435 22 11.3756 22H13.1315C13.6608 22 14.0933 21.5703 14.0933 21.0381V17.0256C14.7023 16.9972 15.2032 16.8207 15.5646 16.4849C15.8577 16.2203 16.2077 15.7194 16.2077 14.8458V13.6818C17.3147 12.885 18.5014 11.3825 18.5014 8.59932V8.52817C18.4957 7.87934 17.9664 7.35003 17.3176 7.35003Z" fill="#86888C"/>
</svg>
