<svg width="20" height="20" viewBox="0 0 20 20" fill="none" xmlns="http://www.w3.org/2000/svg">
<path fill-rule="evenodd" clip-rule="evenodd" d="M14.004 7.27945C14.004 8.85942 13.4667 9.99772 12.4035 10.6579C12.2578 10.749 12.169 10.9084 12.169 11.0791V12.2743C12.169 12.543 12.1053 12.7388 11.9778 12.8549C11.8162 13.0028 11.5407 13.0347 11.3381 13.0347H8.67217C8.37621 13.0347 8.15766 12.9733 8.01878 12.8458C7.88902 12.7319 7.82299 12.5407 7.82299 12.2743V11.0837C7.82299 10.9106 7.73421 10.7513 7.58623 10.6602C6.53443 10.0091 5.99715 8.87991 5.98577 7.26579L13.9972 7.27035V7.27945H14.004ZM9.51907 17.0074H10.4775V14.0319H9.51907V17.0074ZM7.31076 3.29994C7.31076 3.13375 7.45191 2.9926 7.62038 2.9926C7.78657 2.9926 7.92772 3.13375 7.92772 3.29994V6.27547H7.31076V3.29994ZM11.9482 3.29994C11.9482 3.13375 12.0894 2.9926 12.2578 2.9926C12.424 2.9926 12.5652 3.13375 12.5652 3.29994V6.28002H11.9482V3.29994ZM14.0541 6.28002H13.56V3.29994C13.56 2.58281 12.975 2 12.2578 2C11.5407 2 10.9556 2.58509 10.9556 3.29994V6.27775L8.9226 6.27547V3.29994C8.9226 2.58281 8.33751 2 7.62038 2C6.90324 2 6.31816 2.58509 6.31816 3.29994V6.27547H5.94479C5.42573 6.27547 5 6.69892 5 7.25441C5 9.51053 5.94935 10.7171 6.83495 11.35V12.2766C6.83495 12.9801 7.12408 13.3808 7.36084 13.5879C7.64997 13.8543 8.0461 13.9954 8.52874 14.0205V17.2305C8.52874 17.654 8.87479 18 9.30051 18H10.7052C11.1286 18 11.4747 17.6562 11.4747 17.2305V14.0205C11.9619 13.9977 12.3625 13.8566 12.6517 13.5879C12.8862 13.3762 13.1662 12.9755 13.1662 12.2766V11.3455C14.0518 10.708 15.0011 9.50598 15.0011 7.27945V7.22254C14.9966 6.70347 14.5731 6.28002 14.0541 6.28002Z" fill="#86888C"/>
</svg>
