<svg width="40" height="40" viewBox="0 0 40 40" fill="none" xmlns="http://www.w3.org/2000/svg">
<path fill-rule="evenodd" clip-rule="evenodd" d="M28.259 13.8788C28.259 17.4337 27.0501 19.9949 24.6579 21.4804C24.3301 21.6853 24.1303 22.0438 24.1303 22.428V25.1172C24.1303 25.7217 23.9869 26.1622 23.7001 26.4234C23.3364 26.7564 22.7166 26.8281 22.2607 26.8281H16.2624C15.5965 26.8281 15.1047 26.6898 14.7923 26.403C14.5003 26.1468 14.3517 25.7166 14.3517 25.1172V22.4382C14.3517 22.0489 14.152 21.6904 13.819 21.4855C11.4525 20.0205 10.2436 17.4798 10.218 13.848L28.2436 13.8583V13.8788H28.259ZM18.1679 35.7666H20.3244V29.0717H18.1679V35.7666ZM13.1992 4.92487C13.1992 4.55094 13.5168 4.23335 13.8958 4.23335C14.2698 4.23335 14.5874 4.55094 14.5874 4.92487V11.6198H13.1992V4.92487ZM23.6335 4.92487C23.6335 4.55094 23.9511 4.23335 24.3301 4.23335C24.704 4.23335 25.0216 4.55094 25.0216 4.92487V11.6301H23.6335V4.92487ZM28.3717 11.6301H27.2601V4.92487C27.2601 3.31133 25.9437 2 24.3301 2C22.7166 2 21.4001 3.31645 21.4001 4.92487V11.6249L16.8258 11.6198V4.92487C16.8258 3.31133 15.5094 2 13.8958 2C12.2823 2 10.9659 3.31645 10.9659 4.92487V11.6198H10.1258C8.95788 11.6198 8 12.5726 8 13.8224C8 18.8987 10.136 21.6135 12.1286 23.0376V25.1224C12.1286 26.7052 12.7792 27.6067 13.3119 28.0729C13.9624 28.6722 14.8537 28.9898 15.9397 29.0461V36.2686C15.9397 37.2214 16.7183 38 17.6762 38H20.8367C21.7894 38 22.568 37.2265 22.568 36.2686V29.0461C23.6642 28.9949 24.5657 28.6773 25.2163 28.0729C25.7439 27.5965 26.3739 26.6949 26.3739 25.1224V23.0273C28.3665 21.5931 30.5026 18.8884 30.5026 13.8788V13.7507C30.4923 12.5828 29.5396 11.6301 28.3717 11.6301Z" fill="#86888C"/>
</svg>
