<svg width="28" height="28" viewBox="0 0 28 28" fill="none" xmlns="http://www.w3.org/2000/svg">
<path fill-rule="evenodd" clip-rule="evenodd" d="M20.506 9.91918C20.506 12.2891 19.7001 13.9966 18.1053 14.9869C17.8867 15.1235 17.7536 15.3625 17.7536 15.6187V17.4115C17.7536 17.8145 17.6579 18.1081 17.4667 18.2823C17.2242 18.5043 16.811 18.5521 16.5071 18.5521H12.5083C12.0643 18.5521 11.7365 18.4599 11.5282 18.2686C11.3335 18.0979 11.2345 17.811 11.2345 17.4115V15.6255C11.2345 15.366 11.1013 15.1269 10.8793 14.9903C9.30165 14.0137 8.49573 12.3199 8.47866 9.89869L20.4957 9.90552V9.91918H20.506ZM13.7786 24.5111H15.2163V20.0478H13.7786V24.5111ZM10.4661 3.94991C10.4661 3.70063 10.6779 3.4889 10.9306 3.4889C11.1799 3.4889 11.3916 3.70063 11.3916 3.94991V8.4132H10.4661V3.94991ZM17.4223 3.94991C17.4223 3.70063 17.634 3.4889 17.8867 3.4889C18.136 3.4889 18.3478 3.70063 18.3478 3.94991V8.42003H17.4223V3.94991ZM20.5811 8.42003H19.8401V3.94991C19.8401 2.87422 18.9624 2 17.8867 2C16.811 2 15.9334 2.87763 15.9334 3.94991V8.41662L12.8839 8.4132V3.94991C12.8839 2.87422 12.0063 2 10.9306 2C9.85487 2 8.97723 2.87763 8.97723 3.94991V8.4132H8.41719C7.63859 8.4132 7 9.04838 7 9.88162C7 13.2658 8.42402 15.0757 9.75242 16.025V17.4149C9.75242 18.4701 10.1861 19.0711 10.5413 19.3819C10.975 19.7814 11.5692 19.9932 12.2931 20.0307V24.8458C12.2931 25.4809 12.8122 26 13.4508 26H15.5578C16.1929 26 16.712 25.4843 16.712 24.8458V20.0307C17.4428 19.9966 18.0438 19.7849 18.4775 19.3819C18.8293 19.0643 19.2493 18.4633 19.2493 17.4149V16.0182C20.5777 15.062 22.0017 13.259 22.0017 9.91918V9.83381C21.9949 9.05521 21.3597 8.42003 20.5811 8.42003Z" fill="#86888C"/>
</svg>
