<svg width="40" height="40" viewBox="0 0 40 40" fill="none" xmlns="http://www.w3.org/2000/svg">
<path fill-rule="evenodd" clip-rule="evenodd" d="M22.5327 12.6735L22.5378 12.6786C22.5378 12.6786 22.5429 12.6786 22.5429 12.6735L22.1895 10.2356C22.128 9.86684 22.2663 9.44174 22.5429 9.18566L24.146 7.55698L21.872 7.07042C21.5083 7.01408 21.1754 6.76825 21.0115 6.44046L19.9923 4.27913L18.9219 6.41485C18.7529 6.77337 18.379 7.03969 17.9795 7.07554L15.7926 7.40845L17.4161 9.21127C17.6671 9.46735 17.7951 9.87708 17.7337 10.2305L17.3496 12.5762L19.4136 11.5621C19.5826 11.4699 19.7721 11.4238 19.9616 11.4238C20.1665 11.4238 20.3764 11.4802 20.5506 11.5826L22.5327 12.6735ZM15.4341 10.3995L14.1844 9.12932C13.5647 8.49936 13.3547 7.58259 13.6364 6.73752C13.9078 5.90781 14.6095 5.3137 15.4597 5.18566L17.1447 4.92958L17.9078 3.31626C18.2919 2.50704 19.0807 2 19.9667 2C20.8476 2 21.6364 2.50192 22.0205 3.31626L22.7887 4.9347L24.4738 5.18566C25.3239 5.3137 26.0256 5.90781 26.3022 6.73752C26.5787 7.58259 26.3688 8.49936 25.749 9.12932L24.4994 10.3995L24.7964 12.2125C24.9398 13.1088 24.5762 13.9846 23.8489 14.5019C23.1524 14.9936 22.21 15.0499 21.4622 14.6402L19.9667 13.8207L18.4763 14.6351C18.1383 14.8246 17.7644 14.9168 17.3956 14.9168C16.9347 14.9168 16.484 14.7734 16.0896 14.4968C15.3572 13.9744 14.9987 13.0986 15.1421 12.2074L15.4341 10.3995ZM26.7426 35.7158H35.7516V29.9283H26.7426V35.7158ZM4.24328 25.58V35.7158H13.2471V25.58H4.24328ZM24.4994 20.0282H15.4904V24.9398C15.4904 24.9552 15.4955 24.9603 15.4955 24.9757V35.7516H24.4994V20.0282ZM24.7862 38H3.96159C2.88092 38 2 37.2266 2 36.3201V24.9757C2 23.9616 3.01921 23.3316 3.96159 23.3316H13.2522V19.6594C13.2522 18.6607 14.169 17.7798 15.2087 17.7798H24.7862C25.831 17.7798 26.7478 18.6556 26.7478 19.6594V27.6799H36.0384C37.1754 27.6799 37.9949 28.2945 37.9949 29.1396V36.4994C37.9949 37.3598 37.1857 37.9949 36.0333 37.9949H24.7862V38Z" fill="#86888C"/>
</svg>
