<svg width="28" height="28" viewBox="0 0 28 28" fill="none" xmlns="http://www.w3.org/2000/svg">
<path fill-rule="evenodd" clip-rule="evenodd" d="M15.6884 9.11566L15.6918 9.11908C15.6918 9.11908 15.6953 9.11908 15.6953 9.11566L15.4597 7.4904C15.4187 7.24456 15.5109 6.96116 15.6953 6.79044L16.764 5.70465L15.248 5.38028C15.0055 5.34272 14.7836 5.17883 14.6743 4.96031L13.9949 3.51942L13.2813 4.94324C13.1686 5.18225 12.9193 5.3598 12.653 5.3837L11.195 5.60563L12.2774 6.80751C12.4447 6.97823 12.5301 7.25139 12.4891 7.48698L12.233 9.05079L13.609 8.37473C13.7217 8.31327 13.8481 8.28254 13.9744 8.28254C14.111 8.28254 14.251 8.3201 14.3671 8.38839L15.6884 9.11566ZM10.956 7.59966L10.1229 6.75288C9.70977 6.33291 9.56978 5.72172 9.75758 5.15834C9.93854 4.60521 10.4063 4.20913 10.9731 4.12377L12.0965 3.95305L12.6052 2.87751C12.8613 2.33803 13.3871 2 13.9778 2C14.5651 2 15.0909 2.33461 15.347 2.87751L15.8592 3.95647L16.9825 4.12377C17.5493 4.20913 18.0171 4.60521 18.2015 5.15834C18.3858 5.72172 18.2458 6.33291 17.8327 6.75288L16.9996 7.59966L17.1976 8.80837C17.2932 9.40589 17.0508 9.98976 16.5659 10.3346C16.1016 10.6624 15.4733 10.7 14.9748 10.4268L13.9778 9.8805L12.9842 10.4234C12.7589 10.5497 12.5096 10.6112 12.2638 10.6112C11.9565 10.6112 11.656 10.5156 11.3931 10.3312C10.9048 9.98293 10.6658 9.39906 10.7614 8.80495L10.956 7.59966ZM18.4951 24.4772H24.5011V20.6189H18.4951V24.4772ZM3.49552 17.72V24.4772H9.49808V17.72H3.49552ZM16.9996 14.0188H10.9936V17.2932C10.9936 17.3035 10.997 17.3069 10.997 17.3171V24.5011H16.9996V14.0188ZM17.1908 26H3.30773C2.58728 26 2 25.4844 2 24.8801V17.3171C2 16.6411 2.67947 16.2211 3.30773 16.2211H9.50149V13.7729C9.50149 13.1071 10.1127 12.5198 10.8058 12.5198H17.1908C17.8873 12.5198 18.4985 13.1037 18.4985 13.7729V19.1199H24.6923C25.4503 19.1199 25.9966 19.5297 25.9966 20.093V24.9996C25.9966 25.5732 25.4571 25.9966 24.6889 25.9966H17.1908V26Z" fill="#86888C"/>
</svg>
