<svg width="24" height="24" viewBox="0 0 24 24" fill="none" xmlns="http://www.w3.org/2000/svg">
<path fill-rule="evenodd" clip-rule="evenodd" d="M13.407 7.92972L13.4099 7.93257C13.4099 7.93257 13.4127 7.93257 13.4127 7.92972L13.2164 6.57533C13.1822 6.37047 13.2591 6.1343 13.4127 5.99203L14.3033 5.08721L13.04 4.8169C12.838 4.7856 12.653 4.64903 12.562 4.46692L11.9957 3.26618L11.4011 4.4527C11.3072 4.65187 11.0994 4.79983 10.8775 4.81975L9.66254 5.00469L10.5645 6.00626C10.7039 6.14853 10.7751 6.37616 10.7409 6.57249L10.5275 7.87566L11.6742 7.31228C11.7681 7.26106 11.8734 7.23545 11.9787 7.23545C12.0925 7.23545 12.2091 7.26675 12.3059 7.32366L13.407 7.92972ZM9.46337 6.66638L8.7691 5.96073C8.42481 5.61076 8.30815 5.10144 8.46465 4.63195C8.61545 4.17101 9.00526 3.84094 9.47759 3.76981L10.4137 3.62754L10.8377 2.73126C11.0511 2.28169 11.4893 2 11.9815 2C12.4709 2 12.9091 2.27884 13.1225 2.73126L13.5493 3.63039L14.4854 3.76981C14.9577 3.84094 15.3476 4.17101 15.5012 4.63195C15.6549 5.10144 15.5382 5.61076 15.1939 5.96073L14.4996 6.66638L14.6647 7.67364C14.7443 8.17158 14.5423 8.65813 14.1383 8.94551C13.7513 9.21867 13.2278 9.24996 12.8124 9.02234L11.9815 8.56708L11.1535 9.01949C10.9657 9.12477 10.758 9.17599 10.5531 9.17599C10.2971 9.17599 10.0467 9.09632 9.82757 8.94267C9.42069 8.65244 9.22151 8.16588 9.30118 7.67079L9.46337 6.66638ZM15.7459 20.731H20.7509V17.5157H15.7459V20.731ZM3.24627 15.1V20.731H8.2484V15.1H3.24627ZM14.4996 12.0156H9.49467V14.7443C9.49467 14.7529 9.49751 14.7557 9.49751 14.7643V20.7509H14.4996V12.0156ZM14.659 22H3.08977C2.4894 22 2 21.5704 2 21.0667V14.7643C2 14.2009 2.56623 13.8509 3.08977 13.8509H8.25125V11.8108C8.25125 11.2559 8.76056 10.7665 9.33817 10.7665H14.659C15.2394 10.7665 15.7488 11.2531 15.7488 11.8108V16.2666H20.9102C21.5419 16.2666 21.9972 16.6081 21.9972 17.0775V21.1663C21.9972 21.6443 21.5476 21.9972 20.9074 21.9972H14.659V22Z" fill="#86888C"/>
</svg>
