<svg width="40" height="40" viewBox="0 0 40 40" fill="none" xmlns="http://www.w3.org/2000/svg">
<path d="M30.1406 27.5032H24.0877C23.1147 27.5032 22.4644 26.8478 22.4644 25.8748V9.09868C22.4644 8.13082 23.1147 7.48047 24.0877 7.48047H31.4823C31.7537 7.48047 32.0149 7.58801 32.2043 7.7826L37.1972 12.7755C37.3918 12.965 37.4993 13.2261 37.4993 13.4975V25.9004C37.4993 26.858 36.8592 27.5032 35.9016 27.5032C35.5227 27.4981 32.8547 27.5032 30.1406 27.5032ZM24.5127 25.4497H35.4459V13.9226L31.0521 9.52883H24.5127V25.4497Z" fill="#86888C"/>
<path d="M32.9832 17.7731H26.9764C26.5513 17.7731 26.2082 17.43 26.2082 17.005C26.2082 16.58 26.5513 16.2369 26.9764 16.2369H32.9832C33.4082 16.2369 33.7513 16.58 33.7513 17.005C33.7513 17.43 33.4082 17.7731 32.9832 17.7731ZM32.9832 20.7689H26.9764C26.5513 20.7689 26.2082 20.4258 26.2082 20.0007C26.2082 19.5757 26.5513 19.2326 26.9764 19.2326H32.9832C33.4082 19.2326 33.7513 19.5757 33.7513 20.0007C33.7513 20.4258 33.4082 20.7689 32.9832 20.7689ZM32.9832 23.7646H26.9764C26.5513 23.7646 26.2082 23.4215 26.2082 22.9965C26.2082 22.5714 26.5513 22.2283 26.9764 22.2283H32.9832C33.4082 22.2283 33.7513 22.5714 33.7513 22.9965C33.7513 23.4215 33.4082 23.7646 32.9832 23.7646ZM35.984 15.0334H33.9869C31.4315 15.0334 29.967 13.5689 29.967 11.0135V9.01637C29.967 8.45307 30.4278 7.99219 30.9911 7.99219C31.5544 7.99219 32.0153 8.45307 32.0153 9.01637V11.0135C32.0153 11.7253 32.169 12.2374 32.466 12.5344C32.763 12.8314 33.2751 12.9851 33.9869 12.9851H35.984C36.5473 12.9851 37.0082 13.446 37.0082 14.0093C37.0082 14.5726 36.5473 15.0334 35.984 15.0334ZM19.0082 30.1657C18.0865 30.1657 17.4873 30.6522 17.4873 31.6918C17.4873 32.1936 17.6256 32.5623 17.8714 32.8132C18.1377 33.0846 18.5268 33.2178 19.0082 33.2178C19.4896 33.2178 19.8788 33.0846 20.1451 32.8132C20.3909 32.5623 20.5291 32.1885 20.5291 31.6918C20.524 30.6522 19.93 30.1657 19.0082 30.1657Z" fill="#86888C"/>
<path d="M19.0079 33.7335C18.3831 33.7335 17.8608 33.5389 17.5074 33.1753C17.1541 32.8117 16.98 32.315 16.98 31.6954C16.98 30.4202 17.7379 29.6572 19.013 29.6572C20.2881 29.6572 21.046 30.4202 21.046 31.6954C21.046 32.3201 20.8668 32.8168 20.5185 33.1753C20.1703 33.5338 19.6326 33.7335 19.0079 33.7335ZM19.0079 30.6814C18.3114 30.6814 17.999 30.9938 17.999 31.6954C17.999 32.0436 18.081 32.2996 18.2346 32.4584C18.3882 32.6171 18.6545 32.7093 19.0027 32.7093C19.351 32.7093 19.6121 32.6274 19.7709 32.4584C19.9296 32.2894 20.0064 32.0385 20.0064 31.6954C20.0116 30.9938 19.7043 30.6763 19.0079 30.6814Z" fill="#86888C"/>
<path d="M25 38H13.0171C10.9943 38 9.51949 37.5135 8.51067 36.5149C7.49161 35.501 7 34.0211 7 31.9829V8.01707C7 5.99943 7.49161 4.52461 8.50043 3.51067C9.50925 2.49673 10.9892 2 13.0171 2H25C27.0074 2 28.4822 2.50697 29.5115 3.54139C30.5255 4.56558 31.0171 6.03016 31.0171 8.01707C31.0171 8.58037 30.5562 9.04125 29.9929 9.04125C29.4296 9.04125 28.9687 8.58037 28.9687 8.01707C28.9687 5.20057 27.8165 4.04836 25 4.04836H13.0171C11.5627 4.04836 10.559 4.34538 9.94964 4.95477C9.34026 5.56415 9.04836 6.56785 9.04836 8.01707V31.9829C9.04836 34.8762 10.1238 35.9516 13.0171 35.9516H25C27.8933 35.9516 28.9687 34.8762 28.9687 31.9829V26.8108C28.9687 26.2475 29.4296 25.7866 29.9929 25.7866C30.5562 25.7866 31.0171 26.2475 31.0171 26.8108V31.9829C31.0171 34.0211 30.5203 35.5061 29.5064 36.5149C28.4925 37.5135 27.0228 38 25 38Z" fill="#86888C"/>
</svg>
