<svg width="24" height="24" viewBox="0 0 24 24" fill="none" xmlns="http://www.w3.org/2000/svg">
<path d="M16.8559 16.1687H13.4932C12.9526 16.1687 12.5913 15.8045 12.5913 15.264V5.94393C12.5913 5.40623 12.9526 5.04492 13.4932 5.04492H17.6013C17.752 5.04492 17.8971 5.10467 18.0024 5.21277L20.7762 7.9866C20.8843 8.09186 20.9441 8.23696 20.9441 8.38774V15.2782C20.9441 15.8102 20.5885 16.1687 20.0565 16.1687C19.8459 16.1658 18.3637 16.1687 16.8559 16.1687ZM13.7293 15.0279H19.8033V8.62387L17.3623 6.1829H13.7293V15.0279Z" fill="#86888C"/>
<path d="M18.435 10.763H15.0979C14.8617 10.763 14.6711 10.5723 14.6711 10.3362C14.6711 10.1001 14.8617 9.90947 15.0979 9.90947H18.435C18.6711 9.90947 18.8617 10.1001 18.8617 10.3362C18.8617 10.5723 18.6711 10.763 18.435 10.763ZM18.435 12.4273H15.0979C14.8617 12.4273 14.6711 12.2366 14.6711 12.0005C14.6711 11.7644 14.8617 11.5738 15.0979 11.5738H18.435C18.6711 11.5738 18.8617 11.7644 18.8617 12.0005C18.8617 12.2366 18.6711 12.4273 18.435 12.4273ZM18.435 14.0915H15.0979C14.8617 14.0915 14.6711 13.9009 14.6711 13.6648C14.6711 13.4287 14.8617 13.2381 15.0979 13.2381H18.435C18.6711 13.2381 18.8617 13.4287 18.8617 13.6648C18.8617 13.9009 18.6711 14.0915 18.435 14.0915ZM20.1021 9.24091H18.9926C17.573 9.24091 16.7593 8.42725 16.7593 7.00762V5.89809C16.7593 5.58515 17.0154 5.3291 17.3283 5.3291C17.6413 5.3291 17.8973 5.58515 17.8973 5.89809V7.00762C17.8973 7.40307 17.9826 7.68757 18.1477 7.85257C18.3127 8.01758 18.5972 8.10293 18.9926 8.10293H20.1021C20.4151 8.10293 20.6711 8.35897 20.6711 8.67192C20.6711 8.98486 20.4151 9.24091 20.1021 9.24091ZM10.6711 17.6477C10.159 17.6477 9.82617 17.918 9.82617 18.4955C9.82617 18.7743 9.90299 18.9792 10.0395 19.1186C10.1875 19.2694 10.4037 19.3433 10.6711 19.3433C10.9385 19.3433 11.1548 19.2694 11.3027 19.1186C11.4393 18.9792 11.5161 18.7715 11.5161 18.4955C11.5132 17.918 11.1832 17.6477 10.6711 17.6477Z" fill="#86888C"/>
<path d="M10.671 19.6298C10.3239 19.6298 10.0338 19.5217 9.83746 19.3197C9.64116 19.1177 9.54443 18.8418 9.54443 18.4975C9.54443 17.7891 9.96549 17.3652 10.6739 17.3652C11.3823 17.3652 11.8033 17.7891 11.8033 18.4975C11.8033 18.8446 11.7038 19.1206 11.5103 19.3197C11.3168 19.5189 11.0181 19.6298 10.671 19.6298ZM10.671 17.9342C10.2841 17.9342 10.1106 18.1078 10.1106 18.4975C10.1106 18.691 10.1561 18.8332 10.2414 18.9214C10.3268 19.0096 10.4747 19.0608 10.6682 19.0608C10.8616 19.0608 11.0067 19.0153 11.0949 18.9214C11.1831 18.8275 11.2258 18.6881 11.2258 18.4975C11.2286 18.1078 11.0579 17.9314 10.671 17.9342Z" fill="#86888C"/>
<path d="M14 22H7.34282C6.21906 22 5.39972 21.7297 4.83926 21.175C4.27312 20.6117 4 19.7895 4 18.6572V5.34282C4 4.22191 4.27312 3.40256 4.83357 2.83926C5.39403 2.27596 6.21622 2 7.34282 2H14C15.1152 2 15.9346 2.28165 16.5064 2.85633C17.0697 3.42532 17.3428 4.23898 17.3428 5.34282C17.3428 5.65576 17.0868 5.91181 16.7738 5.91181C16.4609 5.91181 16.2048 5.65576 16.2048 5.34282C16.2048 3.77809 15.5647 3.13798 14 3.13798H7.34282C6.53485 3.13798 5.97724 3.30299 5.63869 3.64154C5.30014 3.98009 5.13798 4.5377 5.13798 5.34282V18.6572C5.13798 20.2646 5.73542 20.862 7.34282 20.862H14C15.6074 20.862 16.2048 20.2646 16.2048 18.6572V15.7838C16.2048 15.4708 16.4609 15.2148 16.7738 15.2148C17.0868 15.2148 17.3428 15.4708 17.3428 15.7838V18.6572C17.3428 19.7895 17.0669 20.6145 16.5036 21.175C15.9403 21.7297 15.1238 22 14 22Z" fill="#86888C"/>
</svg>
