<svg width="28" height="28" viewBox="0 0 28 28" fill="none" xmlns="http://www.w3.org/2000/svg">
<path d="M20.4271 19.0018H16.3918C15.7431 19.0018 15.3096 18.5648 15.3096 17.9162V6.73213C15.3096 6.08689 15.7431 5.65332 16.3918 5.65332H21.3215C21.5025 5.65332 21.6766 5.72501 21.8029 5.85474L25.1315 9.18333C25.2612 9.30965 25.3329 9.48376 25.3329 9.6647V17.9333C25.3329 18.5717 24.9062 19.0018 24.2677 19.0018C24.0151 18.9984 22.2365 19.0018 20.4271 19.0018ZM16.6751 17.6328H23.9639V9.94806L21.0347 7.0189H16.6751V17.6328Z" fill="#86888C"/>
<path d="M22.3223 12.5148H18.3177C18.0344 12.5148 17.8056 12.286 17.8056 12.0027C17.8056 11.7193 18.0344 11.4906 18.3177 11.4906H22.3223C22.6056 11.4906 22.8344 11.7193 22.8344 12.0027C22.8344 12.286 22.6056 12.5148 22.3223 12.5148ZM22.3223 14.5119H18.3177C18.0344 14.5119 17.8056 14.2832 17.8056 13.9998C17.8056 13.7165 18.0344 13.4877 18.3177 13.4877H22.3223C22.6056 13.4877 22.8344 13.7165 22.8344 13.9998C22.8344 14.2832 22.6056 14.5119 22.3223 14.5119ZM22.3223 16.5091H18.3177C18.0344 16.5091 17.8056 16.2803 17.8056 15.997C17.8056 15.7136 18.0344 15.4849 18.3177 15.4849H22.3223C22.6056 15.4849 22.8344 15.7136 22.8344 15.997C22.8344 16.2803 22.6056 16.5091 22.3223 16.5091ZM24.3229 10.6883H22.9914C21.2879 10.6883 20.3115 9.71192 20.3115 8.00837V6.67693C20.3115 6.3014 20.6187 5.99414 20.9943 5.99414C21.3698 5.99414 21.677 6.3014 21.677 6.67693V8.00837C21.677 8.4829 21.7795 8.8243 21.9775 9.02231C22.1755 9.22031 22.5169 9.32273 22.9914 9.32273H24.3229C24.6984 9.32273 25.0056 9.62999 25.0056 10.0055C25.0056 10.3811 24.6984 10.6883 24.3229 10.6883ZM13.0056 20.7765C12.3911 20.7765 11.9917 21.1008 11.9917 21.7939C11.9917 22.1284 12.0839 22.3742 12.2477 22.5415C12.4253 22.7224 12.6847 22.8112 13.0056 22.8112C13.3265 22.8112 13.586 22.7224 13.7635 22.5415C13.9274 22.3742 14.0196 22.125 14.0196 21.7939C14.0162 21.1008 13.6201 20.7765 13.0056 20.7765Z" fill="#86888C"/>
<path d="M13.0052 23.155C12.5887 23.155 12.2405 23.0253 12.005 22.7829C11.7694 22.5405 11.6533 22.2093 11.6533 21.7962C11.6533 20.9462 12.1586 20.4375 13.0087 20.4375C13.8587 20.4375 14.364 20.9462 14.364 21.7962C14.364 22.2128 14.2445 22.5439 14.0124 22.7829C13.7802 23.0219 13.4217 23.155 13.0052 23.155ZM13.0052 21.1203C12.5409 21.1203 12.3327 21.3285 12.3327 21.7962C12.3327 22.0284 12.3873 22.1991 12.4897 22.3049C12.5922 22.4108 12.7697 22.4722 13.0018 22.4722C13.234 22.4722 13.4081 22.4176 13.5139 22.3049C13.6197 22.1923 13.671 22.025 13.671 21.7962C13.6744 21.3285 13.4695 21.1169 13.0052 21.1203Z" fill="#86888C"/>
<path d="M17 26H9.01138C7.66287 26 6.67966 25.6757 6.00711 25.01C5.32774 24.334 5 23.3474 5 21.9886V6.01138C5 4.66629 5.32774 3.68307 6.00028 3.00711C6.67283 2.33115 7.65946 2 9.01138 2H17C18.3383 2 19.3215 2.33798 20.0077 3.0276C20.6836 3.71038 21.0114 4.68677 21.0114 6.01138C21.0114 6.38691 20.7041 6.69417 20.3286 6.69417C19.9531 6.69417 19.6458 6.38691 19.6458 6.01138C19.6458 4.13371 18.8777 3.36558 17 3.36558H9.01138C8.04182 3.36558 7.37269 3.56358 6.96643 3.96984C6.56017 4.3761 6.36558 5.04523 6.36558 6.01138V21.9886C6.36558 23.9175 7.0825 24.6344 9.01138 24.6344H17C18.9289 24.6344 19.6458 23.9175 19.6458 21.9886V18.5405C19.6458 18.165 19.9531 17.8578 20.3286 17.8578C20.7041 17.8578 21.0114 18.165 21.0114 18.5405V21.9886C21.0114 23.3474 20.6802 24.3374 20.0043 25.01C19.3283 25.6757 18.3485 26 17 26Z" fill="#86888C"/>
</svg>
