<svg width="20" height="20" viewBox="0 0 20 20" fill="none" xmlns="http://www.w3.org/2000/svg">
<path d="M13.2852 13.3346H10.595C10.1626 13.3346 9.87354 13.0432 9.87354 12.6108V5.15475C9.87354 4.72459 10.1626 4.43555 10.595 4.43555H13.8815C14.0021 4.43555 14.1182 4.48334 14.2024 4.56983L16.4215 6.78889C16.508 6.8731 16.5558 6.98917 16.5558 7.1098V12.6222C16.5558 13.0478 16.2713 13.3346 15.8457 13.3346C15.6772 13.3323 14.4915 13.3346 13.2852 13.3346ZM10.7839 12.4219H15.6431V7.2987L13.6903 5.34593H10.7839V12.4219Z" fill="#86888C"/>
<path d="M14.5482 9.01017H11.8785C11.6896 9.01017 11.5371 8.85768 11.5371 8.66878C11.5371 8.47987 11.6896 8.32738 11.8785 8.32738H14.5482C14.7371 8.32738 14.8896 8.47987 14.8896 8.66878C14.8896 8.85768 14.7371 9.01017 14.5482 9.01017ZM14.5482 10.3416H11.8785C11.6896 10.3416 11.5371 10.1891 11.5371 10.0002C11.5371 9.81131 11.6896 9.65882 11.8785 9.65882H14.5482C14.7371 9.65882 14.8896 9.81131 14.8896 10.0002C14.8896 10.1891 14.7371 10.3416 14.5482 10.3416ZM14.5482 11.673H11.8785C11.6896 11.673 11.5371 11.5206 11.5371 11.3316C11.5371 11.1427 11.6896 10.9903 11.8785 10.9903H14.5482C14.7371 10.9903 14.8896 11.1427 14.8896 11.3316C14.8896 11.5206 14.7371 11.673 14.5482 11.673ZM15.8819 7.79253H14.9943C13.8586 7.79253 13.2076 7.14161 13.2076 6.0059V5.11828C13.2076 4.86792 13.4125 4.66309 13.6628 4.66309C13.9132 4.66309 14.118 4.86792 14.118 5.11828V6.0059C14.118 6.32226 14.1863 6.54986 14.3183 6.68186C14.4503 6.81387 14.6779 6.88215 14.9943 6.88215H15.8819C16.1323 6.88215 16.3371 7.08698 16.3371 7.33734C16.3371 7.58769 16.1323 7.79253 15.8819 7.79253ZM8.33709 14.518C7.92742 14.518 7.66113 14.7342 7.66113 15.1962C7.66113 15.4193 7.72258 15.5831 7.83183 15.6947C7.95018 15.8153 8.12315 15.8745 8.33709 15.8745C8.55103 15.8745 8.72401 15.8153 8.84236 15.6947C8.9516 15.5831 9.01305 15.417 9.01305 15.1962C9.01078 14.7342 8.74677 14.518 8.33709 14.518Z" fill="#86888C"/>
<path d="M8.33732 16.1037C8.05965 16.1037 7.8275 16.0172 7.67046 15.8556C7.51342 15.694 7.43604 15.4732 7.43604 15.1978C7.43604 14.6311 7.77288 14.292 8.33959 14.292C8.90631 14.292 9.24315 14.6311 9.24315 15.1978C9.24315 15.4755 9.16349 15.6963 9.00872 15.8556C8.85396 16.0149 8.61498 16.1037 8.33732 16.1037ZM8.33732 14.7472C8.02778 14.7472 7.88895 14.886 7.88895 15.1978C7.88895 15.3526 7.92537 15.4664 7.99365 15.5369C8.06192 15.6075 8.18027 15.6485 8.33504 15.6485C8.4898 15.6485 8.60588 15.612 8.67643 15.5369C8.74699 15.4618 8.78113 15.3503 8.78113 15.1978C8.7834 14.886 8.64685 14.7449 8.33732 14.7472Z" fill="#86888C"/>
<path d="M11 18H5.67425C4.77525 18 4.11977 17.7838 3.67141 17.34C3.21849 16.8893 3 16.2316 3 15.3257V4.67425C3 3.77752 3.21849 3.12205 3.66686 2.67141C4.11522 2.22077 4.77297 2 5.67425 2H11C11.8922 2 12.5477 2.22532 13.0051 2.68506C13.4558 3.14026 13.6743 3.79118 13.6743 4.67425C13.6743 4.92461 13.4694 5.12945 13.2191 5.12945C12.9687 5.12945 12.7639 4.92461 12.7639 4.67425C12.7639 3.42248 12.2518 2.91038 11 2.91038H5.67425C5.02788 2.91038 4.58179 3.04239 4.31095 3.31323C4.04011 3.58407 3.91038 4.03016 3.91038 4.67425V15.3257C3.91038 16.6117 4.38834 17.0896 5.67425 17.0896H11C12.2859 17.0896 12.7639 16.6117 12.7639 15.3257V13.027C12.7639 12.7767 12.9687 12.5718 13.2191 12.5718C13.4694 12.5718 13.6743 12.7767 13.6743 13.027V15.3257C13.6743 16.2316 13.4535 16.8916 13.0028 17.34C12.5522 17.7838 11.899 18 11 18Z" fill="#86888C"/>
</svg>
