<svg width="28" height="28" viewBox="0 0 28 28" fill="none" xmlns="http://www.w3.org/2000/svg">
<path d="M7.11996 14.1327C7.0312 14.0712 6.99023 14.0029 6.99023 13.8971C6.99365 13.7605 7.10631 13.6513 7.24287 13.6547C7.30773 13.6581 7.3726 13.6786 7.42722 13.7162C7.81982 13.9756 8.36605 14.2385 9.00104 14.2385C9.95012 14.2385 10.5305 13.7503 10.5305 13.03C10.5305 12.4393 10.1993 12.0194 9.11371 11.8829L8.83376 11.8487C7.67644 11.7019 7.13703 11.1455 7.13703 10.2817C7.13703 9.25413 7.86762 8.61914 8.9908 8.61914C9.61897 8.61914 10.1481 8.78301 10.5134 9.01174C10.6261 9.08002 10.6773 9.16879 10.6773 9.25413C10.6773 9.38386 10.5749 9.4897 10.4451 9.4897H10.4417C10.3803 9.48628 10.3222 9.46921 10.2676 9.43849C9.86819 9.21999 9.44827 9.09026 8.97032 9.09026C8.11001 9.09026 7.62864 9.56822 7.62864 10.2373C7.62864 10.845 8.00417 11.2376 9.02153 11.3674L9.29123 11.4015C10.469 11.5483 11.0255 12.1048 11.0255 12.9924C11.0255 13.9927 10.312 14.7062 8.93618 14.7062C8.28753 14.6994 7.65595 14.5014 7.11996 14.1327Z" fill="#86888C"/>
<path d="M8.94076 14.9629C8.23748 14.9561 7.5547 14.741 6.97433 14.3416C6.81387 14.2289 6.73535 14.0821 6.73535 13.8978C6.73877 13.6178 6.96409 13.3959 7.24403 13.3993C7.3601 13.4027 7.47276 13.4369 7.56835 13.5017C8.0463 13.8192 8.52767 13.9797 9.00221 13.9797C9.78741 13.9797 10.2756 13.6144 10.2756 13.0272C10.2756 12.6414 10.1322 12.2659 9.08073 12.1328L8.8042 12.0986C7.21672 11.8938 6.88215 10.9959 6.88215 10.279C6.88215 9.11483 7.71174 8.36035 8.99197 8.36035C9.6133 8.36035 10.2005 8.51398 10.6511 8.79051C10.9004 8.94414 10.9379 9.14556 10.9379 9.25139C10.9379 9.5245 10.7194 9.743 10.4463 9.743C10.3439 9.73958 10.2449 9.71227 10.1595 9.66448L10.1527 9.66106C9.75669 9.44598 9.38116 9.34357 8.97831 9.34357C8.29894 9.34357 7.89268 9.67813 7.89268 10.2346C7.89268 10.4702 7.89268 10.9618 9.06024 11.112L9.32995 11.1461C10.9447 11.351 11.2861 12.2625 11.2861 12.9931C11.2861 13.5769 11.0711 14.0685 10.6682 14.4201C10.2551 14.7751 9.6611 14.9629 8.94076 14.9629ZM7.26793 13.9217C7.39766 14.0138 7.53763 14.0924 7.68101 14.1606C7.54446 14.0924 7.41131 14.0138 7.28158 13.9251C7.27475 13.9182 7.26451 13.9148 7.25427 13.9114L7.26793 13.9217ZM9.59965 11.7094C10.1015 11.8357 10.4429 12.0542 10.6272 12.3683C10.3985 11.9518 9.94446 11.7845 9.59965 11.7094ZM7.47618 10.7672C7.61956 11.1393 7.9473 11.3851 8.46963 11.5182C7.96096 11.3714 7.63322 11.1256 7.47618 10.7672Z" fill="#86888C"/>
<path d="M9.00926 15.7584C8.7737 15.7584 8.58252 15.5672 8.58252 15.3317V8.00877C8.58252 7.77321 8.7737 7.58203 9.00926 7.58203C9.24482 7.58203 9.436 7.77321 9.436 8.00877V15.3317C9.436 15.5672 9.24482 15.7584 9.00926 15.7584Z" fill="#86888C"/>
<path d="M9.00854 17.6704C7.11038 17.6704 5.62873 17.1685 4.60455 16.1819C3.5394 15.1543 3 13.6351 3 11.6619C3 9.6886 3.5394 8.16939 4.60455 7.1418C5.62873 6.15517 7.11038 5.65332 9.00854 5.65332C10.9067 5.65332 12.3883 6.15517 13.4125 7.1418C14.4777 8.16939 15.0171 9.6886 15.0171 11.6619C15.0171 13.6351 14.4777 15.1543 13.4125 16.1819C12.3883 17.1685 10.9067 17.6704 9.00854 17.6704ZM9.00854 7.0189C7.47568 7.0189 6.31494 7.39102 5.55363 8.12501C4.76501 8.88291 4.36558 10.0744 4.36558 11.6619C4.36558 13.2493 4.76501 14.4408 5.55363 15.1987C6.31494 15.9327 7.47909 16.3048 9.00854 16.3048C10.538 16.3048 11.7021 15.9327 12.4634 15.1987C13.2521 14.4408 13.6515 13.2493 13.6515 11.6619C13.6515 10.0744 13.2521 8.88291 12.4634 8.12501C11.7021 7.39102 10.5414 7.0189 9.00854 7.0189Z" fill="#86888C"/>
<path d="M20.3218 26H12.3332C10.9847 26 10.0014 25.6757 9.32889 25.01C8.64952 24.3374 8.32178 23.3474 8.32178 21.9886V17.3798C8.32178 17.0043 8.62903 16.697 9.00457 16.697C9.3801 16.697 9.68735 17.0043 9.68735 17.3798V21.9886C9.68735 23.9175 10.4043 24.6344 12.3332 24.6344H20.3218C22.2507 24.6344 22.9676 23.9175 22.9676 21.9886V6.01138C22.9676 5.04523 22.7696 4.3761 22.3667 3.96984C21.9639 3.56358 21.2913 3.36558 20.3218 3.36558H12.3332C10.4555 3.36558 9.68735 4.13371 9.68735 6.01138C9.68735 6.38691 9.3801 6.69417 9.00457 6.69417C8.62903 6.69417 8.32178 6.38691 8.32178 6.01138C8.32178 4.68677 8.64952 3.7138 9.32548 3.0276C10.0117 2.33798 10.9949 2 12.3332 2H20.3218C21.6737 2 22.6569 2.32774 23.3329 3.00711C24.0088 3.68649 24.3332 4.66629 24.3332 6.01138V21.9886C24.3332 23.3474 24.002 24.3374 23.326 25.01C22.6535 25.6757 21.6703 26 20.3218 26Z" fill="#86888C"/>
<path d="M16.3274 20.7764C15.7129 20.7764 15.3135 21.1007 15.3135 21.7937C15.3135 22.1283 15.4057 22.3741 15.5695 22.5414C15.747 22.7223 16.0065 22.8111 16.3274 22.8111C16.6483 22.8111 16.9078 22.7223 17.0853 22.5414C17.2492 22.3741 17.3414 22.1249 17.3414 21.7937C17.3414 21.1007 16.9419 20.7764 16.3274 20.7764Z" fill="#86888C"/>
<path d="M16.3285 23.155C15.912 23.155 15.5638 23.0253 15.3282 22.7829C15.0926 22.5405 14.9766 22.2093 14.9766 21.7962C14.9766 20.9462 15.4818 20.4375 16.3319 20.4375C17.182 20.4375 17.6872 20.9462 17.6872 21.7962C17.6872 22.2128 17.5677 22.5439 17.3356 22.7829C17.1034 23.0219 16.7484 23.155 16.3285 23.155ZM16.3285 21.1203C15.8642 21.1203 15.6559 21.3285 15.6559 21.7962C15.6559 22.0284 15.7106 22.1991 15.813 22.3049C15.9154 22.4108 16.0929 22.4722 16.3251 22.4722C16.5572 22.4722 16.7313 22.4176 16.8372 22.3049C16.943 22.1923 16.9942 22.025 16.9942 21.7962C17.001 21.3285 16.7928 21.1169 16.3285 21.1203Z" fill="#86888C"/>
</svg>
