<svg width="20" height="20" viewBox="0 0 20 20" fill="none" xmlns="http://www.w3.org/2000/svg">
<path d="M5.74713 10.0888C5.68796 10.0478 5.66064 10.0023 5.66064 9.93172C5.66292 9.84068 5.73803 9.76785 5.82907 9.77013C5.87231 9.7724 5.91555 9.78606 5.95197 9.81109C6.2137 9.98407 6.57786 10.1593 7.00118 10.1593C7.6339 10.1593 8.02082 9.83385 8.02082 9.35363C8.02082 8.95989 7.80005 8.67994 7.07629 8.5889L6.88966 8.56614C6.11811 8.46828 5.75851 8.0973 5.75851 7.52148C5.75851 6.83641 6.24557 6.41309 6.99436 6.41309C7.41313 6.41309 7.76591 6.52233 8.00944 6.67482C8.08454 6.72034 8.11868 6.77952 8.11868 6.83641C8.11868 6.9229 8.0504 6.99346 7.96392 6.99346H7.96164C7.92067 6.99118 7.88198 6.9798 7.84557 6.95932C7.57928 6.81365 7.29934 6.72717 6.9807 6.72717C6.40716 6.72717 6.08625 7.0458 6.08625 7.49189C6.08625 7.89701 6.3366 8.15875 7.01484 8.24523L7.19464 8.26799C7.97985 8.36586 8.35083 8.73684 8.35083 9.32859C8.35083 9.99545 7.87515 10.4711 6.95794 10.4711C6.52551 10.4666 6.10446 10.3346 5.74713 10.0888Z" fill="#86888C"/>
<path d="M6.96002 10.6419C6.49117 10.6374 6.03598 10.494 5.64906 10.2277C5.54209 10.1526 5.48975 10.0547 5.48975 9.93184C5.49202 9.74521 5.64224 9.59728 5.82886 9.59955C5.90625 9.60183 5.98135 9.62459 6.04508 9.66783C6.36371 9.87949 6.68463 9.98646 7.00098 9.98646C7.52445 9.98646 7.84992 9.74294 7.84992 9.35147C7.84992 9.09429 7.75433 8.84393 7.05333 8.75517L6.86898 8.73241C5.81066 8.59585 5.58761 7.99728 5.58761 7.51932C5.58761 6.74322 6.14067 6.24023 6.99416 6.24023C7.40838 6.24023 7.79985 6.34265 8.10027 6.52701C8.26642 6.62942 8.29145 6.76371 8.29145 6.83426C8.29145 7.01634 8.14579 7.162 7.96371 7.162C7.89544 7.15972 7.82943 7.14151 7.77253 7.10965L7.76798 7.10737C7.50397 6.96399 7.25362 6.89571 6.98505 6.89571C6.53214 6.89571 6.2613 7.11875 6.2613 7.48974C6.2613 7.64678 6.2613 7.97452 7.03967 8.07466L7.21948 8.09742C8.29601 8.23398 8.5236 8.84166 8.5236 9.32871C8.5236 9.7179 8.38022 10.0456 8.11165 10.2801C7.83626 10.5168 7.44024 10.6419 6.96002 10.6419ZM5.8448 9.94777C5.93128 10.0092 6.0246 10.0616 6.12019 10.1071C6.02915 10.0616 5.94039 10.0092 5.8539 9.95005C5.84935 9.9455 5.84252 9.94322 5.83569 9.94095L5.8448 9.94777ZM7.39928 8.47295C7.73384 8.55716 7.96144 8.70282 8.08434 8.91221C7.93185 8.63454 7.62915 8.52302 7.39928 8.47295ZM5.98363 7.84479C6.07922 8.09287 6.29771 8.25673 6.64593 8.3455C6.30682 8.24763 6.08832 8.08376 5.98363 7.84479Z" fill="#86888C"/>
<path d="M7.00569 11.1726C6.84865 11.1726 6.72119 11.0452 6.72119 10.8881V6.00617C6.72119 5.84913 6.84865 5.72168 7.00569 5.72168C7.16273 5.72168 7.29018 5.84913 7.29018 6.00617V10.8881C7.29018 11.0452 7.16273 11.1726 7.00569 11.1726Z" fill="#86888C"/>
<path d="M7.00569 12.4469C5.74026 12.4469 4.75249 12.1124 4.0697 11.4546C3.3596 10.7695 3 9.75674 3 8.44124C3 7.12573 3.3596 6.11293 4.0697 5.42787C4.75249 4.77011 5.74026 4.43555 7.00569 4.43555C8.27112 4.43555 9.25889 4.77011 9.94168 5.42787C10.6518 6.11293 11.0114 7.12573 11.0114 8.44124C11.0114 9.75674 10.6518 10.7695 9.94168 11.4546C9.25889 12.1124 8.27112 12.4469 7.00569 12.4469ZM7.00569 5.34593C5.98378 5.34593 5.20996 5.59401 4.70242 6.08334C4.17667 6.58861 3.91038 7.38292 3.91038 8.44124C3.91038 9.49956 4.17667 10.2939 4.70242 10.7991C5.20996 11.2885 5.98606 11.5365 7.00569 11.5365C8.02532 11.5365 8.80142 11.2885 9.30896 10.7991C9.83471 10.2939 10.101 9.49956 10.101 8.44124C10.101 7.38292 9.83471 6.58861 9.30896 6.08334C8.80142 5.59401 8.0276 5.34593 7.00569 5.34593Z" fill="#86888C"/>
<path d="M14.5483 18H9.22259C8.32359 18 7.66811 17.7838 7.21975 17.34C6.76683 16.8916 6.54834 16.2316 6.54834 15.3257V12.2532C6.54834 12.0028 6.75318 11.798 7.00353 11.798C7.25389 11.798 7.45872 12.0028 7.45872 12.2532V15.3257C7.45872 16.6117 7.93668 17.0896 9.22259 17.0896H14.5483C15.8343 17.0896 16.3122 16.6117 16.3122 15.3257V4.67425C16.3122 4.03016 16.1802 3.58407 15.9116 3.31323C15.6431 3.04239 15.1947 2.91038 14.5483 2.91038H9.22259C7.97081 2.91038 7.45872 3.42248 7.45872 4.67425C7.45872 4.92461 7.25389 5.12945 7.00353 5.12945C6.75318 5.12945 6.54834 4.92461 6.54834 4.67425C6.54834 3.79118 6.76683 3.14253 7.21747 2.68506C7.67494 2.22532 8.33042 2 9.22259 2H14.5483C15.4496 2 16.1051 2.21849 16.5557 2.67141C17.0064 3.12432 17.2226 3.77752 17.2226 4.67425V15.3257C17.2226 16.2316 17.0018 16.8916 16.5512 17.34C16.1028 17.7838 15.4473 18 14.5483 18Z" fill="#86888C"/>
<path d="M11.8854 14.5176C11.4758 14.5176 11.2095 14.7338 11.2095 15.1958C11.2095 15.4189 11.2709 15.5827 11.3802 15.6942C11.4985 15.8149 11.6715 15.874 11.8854 15.874C12.0994 15.874 12.2723 15.8149 12.3907 15.6942C12.4999 15.5827 12.5614 15.4166 12.5614 15.1958C12.5614 14.7338 12.2951 14.5176 11.8854 14.5176Z" fill="#86888C"/>
<path d="M11.8852 16.1037C11.6075 16.1037 11.3754 16.0172 11.2183 15.8556C11.0613 15.694 10.9839 15.4732 10.9839 15.1978C10.9839 14.6311 11.3207 14.292 11.8874 14.292C12.4542 14.292 12.791 14.6311 12.791 15.1978C12.791 15.4755 12.7113 15.6963 12.5566 15.8556C12.4018 16.0149 12.1651 16.1037 11.8852 16.1037ZM11.8852 14.7472C11.5756 14.7472 11.4368 14.886 11.4368 15.1978C11.4368 15.3526 11.4732 15.4664 11.5415 15.5369C11.6098 15.6075 11.7281 15.6485 11.8829 15.6485C12.0377 15.6485 12.1537 15.612 12.2243 15.5369C12.2948 15.4618 12.329 15.3503 12.329 15.1978C12.3335 14.886 12.1947 14.7449 11.8852 14.7472Z" fill="#86888C"/>
</svg>
