<svg width="24" height="24" viewBox="0 0 24 24" fill="none" xmlns="http://www.w3.org/2000/svg">
<path d="M6.4333 12.1112C6.35933 12.06 6.3252 12.0031 6.3252 11.9149C6.32804 11.8011 6.42192 11.7101 6.53572 11.7129C6.58978 11.7157 6.64383 11.7328 6.68935 11.7641C7.01652 11.9803 7.47171 12.1994 8.00087 12.1994C8.79177 12.1994 9.27541 11.7926 9.27541 11.1923C9.27541 10.7001 8.99945 10.3502 8.09475 10.2364L7.86147 10.2079C6.89703 10.0856 6.44753 9.62186 6.44753 8.90209C6.44753 8.04576 7.05635 7.5166 7.99234 7.5166C8.51581 7.5166 8.95677 7.65316 9.26118 7.84377C9.35507 7.90067 9.39774 7.97464 9.39774 8.04576C9.39774 8.15387 9.31239 8.24206 9.20428 8.24206H9.20144C9.15023 8.23922 9.10187 8.22499 9.05635 8.19939C8.72349 8.01731 8.37356 7.9092 7.97527 7.9092C7.25834 7.9092 6.8572 8.3075 6.8572 8.86511C6.8572 9.37151 7.17015 9.69868 8.01794 9.80679L8.24269 9.83524C9.2242 9.95757 9.68793 10.4213 9.68793 11.161C9.68793 11.9946 9.09333 12.5891 7.94682 12.5891C7.40628 12.5835 6.87996 12.4185 6.4333 12.1112Z" fill="#86888C"/>
<path d="M7.95063 12.8029C7.36457 12.7972 6.79558 12.618 6.31194 12.2851C6.17823 12.1913 6.11279 12.0689 6.11279 11.9153C6.11564 11.682 6.3034 11.4971 6.53669 11.4999C6.63342 11.5028 6.7273 11.5312 6.80696 11.5853C7.20525 11.8499 7.60639 11.9836 8.00184 11.9836C8.65618 11.9836 9.06301 11.6792 9.06301 11.1898C9.06301 10.8683 8.94352 10.5554 8.06727 10.4445L7.83683 10.416C6.51393 10.2453 6.23513 9.49708 6.23513 8.89964C6.23513 7.92952 6.92645 7.30078 7.9933 7.30078C8.51109 7.30078 9.00042 7.4288 9.37595 7.65924C9.58363 7.78727 9.61493 7.95512 9.61493 8.04331C9.61493 8.27091 9.43285 8.45299 9.20525 8.45299C9.11991 8.45014 9.0374 8.42738 8.96628 8.38755L8.96059 8.38471C8.63057 8.20548 8.31763 8.12013 7.98193 8.12013C7.41578 8.12013 7.07723 8.39893 7.07723 8.86266C7.07723 9.05896 7.07723 9.46863 8.0502 9.59381L8.27496 9.62226C9.62062 9.79296 9.90511 10.5526 9.90511 11.1614C9.90511 11.6479 9.72588 12.0575 9.39018 12.3506C9.04594 12.6464 8.55092 12.8029 7.95063 12.8029ZM6.5566 11.9352C6.66471 12.012 6.78136 12.0775 6.90084 12.1344C6.78705 12.0775 6.67609 12.012 6.56799 11.938C6.5623 11.9324 6.55376 11.9295 6.54523 11.9267L6.5566 11.9352ZM8.49971 10.0917C8.91791 10.1969 9.20241 10.379 9.35604 10.6408C9.16542 10.2937 8.78705 10.1543 8.49971 10.0917ZM6.73015 9.30647C6.84964 9.61657 7.12275 9.82141 7.55803 9.93236C7.13413 9.81003 6.86101 9.60519 6.73015 9.30647Z" fill="#86888C"/>
<path d="M8.00796 13.466C7.81166 13.466 7.65234 13.3067 7.65234 13.1104V7.00796C7.65234 6.81166 7.81166 6.65234 8.00796 6.65234C8.20426 6.65234 8.36358 6.81166 8.36358 7.00796V13.1104C8.36358 13.3067 8.20426 13.466 8.00796 13.466Z" fill="#86888C"/>
<path d="M8.00711 15.0591C6.42532 15.0591 5.19061 14.6409 4.33713 13.8187C3.4495 12.9624 3 11.6964 3 10.052C3 8.40765 3.4495 7.14165 4.33713 6.28532C5.19061 5.46313 6.42532 5.04492 8.00711 5.04492C9.5889 5.04492 10.8236 5.46313 11.6771 6.28532C12.5647 7.14165 13.0142 8.40765 13.0142 10.052C13.0142 11.6964 12.5647 12.9624 11.6771 13.8187C10.8236 14.6409 9.5889 15.0591 8.00711 15.0591ZM8.00711 6.1829C6.72973 6.1829 5.76245 6.493 5.12802 7.10467C4.47084 7.73624 4.13798 8.72913 4.13798 10.052C4.13798 11.3749 4.47084 12.3678 5.12802 12.9994C5.76245 13.6111 6.73257 13.9212 8.00711 13.9212C9.28165 13.9212 10.2518 13.6111 10.8862 12.9994C11.5434 12.3678 11.8762 11.3749 11.8762 10.052C11.8762 8.72913 11.5434 7.73624 10.8862 7.10467C10.2518 6.493 9.2845 6.1829 8.00711 6.1829Z" fill="#86888C"/>
<path d="M17.4346 22H10.7774C9.65363 22 8.83429 21.7297 8.27383 21.175C7.70769 20.6145 7.43457 19.7895 7.43457 18.6572V14.8165C7.43457 14.5036 7.69062 14.2475 8.00356 14.2475C8.3165 14.2475 8.57255 14.5036 8.57255 14.8165V18.6572C8.57255 20.2646 9.16999 20.862 10.7774 20.862H17.4346C19.042 20.862 19.6394 20.2646 19.6394 18.6572V5.34282C19.6394 4.5377 19.4744 3.98009 19.1387 3.64154C18.803 3.30299 18.2425 3.13798 17.4346 3.13798H10.7774C9.21266 3.13798 8.57255 3.77809 8.57255 5.34282C8.57255 5.65576 8.3165 5.91181 8.00356 5.91181C7.69062 5.91181 7.43457 5.65576 7.43457 5.34282C7.43457 4.23898 7.70769 3.42816 8.27099 2.85633C8.84282 2.28165 9.66217 2 10.7774 2H17.4346C18.5612 2 19.3805 2.27312 19.9438 2.83926C20.5071 3.40541 20.7774 4.22191 20.7774 5.34282V18.6572C20.7774 19.7895 20.5014 20.6145 19.9381 21.175C19.3777 21.7297 18.5583 22 17.4346 22Z" fill="#86888C"/>
<path d="M14.1062 17.6465C13.5941 17.6465 13.2612 17.9168 13.2612 18.4943C13.2612 18.7731 13.338 18.9779 13.4746 19.1173C13.6225 19.2681 13.8388 19.3421 14.1062 19.3421C14.3736 19.3421 14.5898 19.2681 14.7378 19.1173C14.8743 18.9779 14.9511 18.7702 14.9511 18.4943C14.9511 17.9168 14.6183 17.6465 14.1062 17.6465Z" fill="#86888C"/>
<path d="M14.1071 19.6298C13.76 19.6298 13.4698 19.5217 13.2735 19.3197C13.0772 19.1177 12.9805 18.8418 12.9805 18.4975C12.9805 17.7891 13.4015 17.3652 14.1099 17.3652C14.8183 17.3652 15.2394 17.7891 15.2394 18.4975C15.2394 18.8446 15.1398 19.1206 14.9463 19.3197C14.7529 19.5189 14.457 19.6298 14.1071 19.6298ZM14.1071 17.9342C13.7202 17.9342 13.5466 18.1078 13.5466 18.4975C13.5466 18.691 13.5921 18.8332 13.6775 18.9214C13.7628 19.0096 13.9108 19.0608 14.1042 19.0608C14.2977 19.0608 14.4428 19.0153 14.531 18.9214C14.6192 18.8275 14.6618 18.6881 14.6618 18.4975C14.6675 18.1078 14.494 17.9314 14.1071 17.9342Z" fill="#86888C"/>
</svg>
