<svg width="20" height="20" viewBox="0 0 20 20" fill="none" xmlns="http://www.w3.org/2000/svg">
<path fill-rule="evenodd" clip-rule="evenodd" d="M16.7481 6.15995L16.7549 5.86395C16.6707 5.84574 16.5842 5.84118 16.4977 5.84574L4.14757 5.83891C4.07016 5.83663 3.99274 5.85029 3.91988 5.87534V6.17134C3.96997 6.18272 4.05422 6.19411 4.17034 6.18955H4.59158C4.62801 6.18955 4.65988 6.18272 4.68948 6.18272L15.9466 6.18955C15.9899 6.18272 16.0263 6.19411 16.0628 6.19411H16.5204C16.5978 6.19638 16.6753 6.185 16.7481 6.15995ZM16.1425 13.9493L16.1493 7.13448C16.1311 7.10033 16.0878 7.08894 16.0263 7.08211L4.65305 7.07528C4.58019 7.08667 4.52327 7.12082 4.52327 7.13903V13.9471C4.54148 13.9949 4.59613 14.0131 4.70087 14.0131L15.9762 14.0199C16.081 14.0199 16.1356 13.9653 16.1425 13.9493ZM10.309 17.2327C10.5958 17.2258 10.5958 17.0801 10.5958 16.9799C10.5958 16.8843 10.5958 16.7249 10.3522 16.7204H10.3044C10.0904 16.7204 10.0721 16.8433 10.0721 16.9731C10.0699 17.0756 10.0699 17.2281 10.309 17.2327ZM9.96513 3.99687L8.18002 4.95318L12.3992 4.96001L10.737 3.98321C10.6186 4.02647 10.4957 4.04924 10.3704 4.04924H10.3021C10.1928 4.04924 10.0767 4.03102 9.96513 3.99687ZM10.3021 2.76733C10.0881 2.77416 10.0699 2.89028 10.0699 3.02234C10.0699 3.15213 10.0881 3.28191 10.309 3.28191C10.5958 3.27508 10.5958 3.12936 10.5958 3.02917C10.5958 2.93354 10.5958 2.77416 10.3522 2.7696L10.3021 2.76733ZM17.438 5.24463C17.5837 5.37441 17.6634 5.55201 17.6703 5.73417L17.6634 6.29429C17.6634 6.61534 17.4244 6.87491 17.0464 6.99787C17.0532 7.03885 17.0646 7.08667 17.0646 7.1322L17.0578 13.9471C17.0578 14.4708 16.5751 14.9034 15.9762 14.9034L10.7917 14.8965V16.0373C11.1286 16.1739 11.3905 16.4813 11.3905 16.9777C11.3905 17.6676 10.8782 17.9886 10.3704 18H10.2907C9.78981 17.9932 9.27522 17.6744 9.27522 16.9708C9.27522 16.4676 9.53707 16.1671 9.87633 16.0305V14.8965H4.72591C4.3024 14.9125 4.04739 14.7531 3.89939 14.6188C3.7104 14.448 3.60339 14.2066 3.60566 13.9516V7.13448C3.60566 7.0935 3.61249 7.05251 3.61705 7.01153C3.46449 6.96371 3.33016 6.89313 3.22542 6.79749C3.08425 6.67226 3.00228 6.49011 3 6.30112V5.741C3 5.28561 3.48271 4.95546 4.14302 4.95546H6.28789L9.31393 3.33656C9.28661 3.2341 9.27067 3.12936 9.27067 3.02234C9.27067 2.3256 9.78298 2.00683 10.2907 2V2.00683H10.3704C10.8714 2.01138 11.3859 2.33699 11.3859 3.02917C11.3859 3.13619 11.3746 3.22954 11.3495 3.31379L14.1797 4.96001H16.484C16.8938 4.94407 17.2308 5.04881 17.438 5.24463ZM13.121 12.3828C13.3054 12.3828 13.4579 12.524 13.4579 12.7084C13.4534 12.8906 13.3031 13.0363 13.121 13.034H6.70684C6.52469 13.0386 6.37441 12.8928 6.36986 12.7107V8.76476C6.36986 8.58033 6.51558 8.44144 6.70684 8.44144C6.89128 8.44144 7.04383 8.58261 7.04383 8.76476V11.8432L8.01608 10.3654C8.10488 10.2334 8.27337 10.181 8.4191 10.2402L10.4979 11.0144L11.8504 9.36587H11.4884C11.3062 9.37043 11.156 9.2247 11.1514 9.04255V9.04027C11.1514 8.86267 11.304 8.71923 11.4884 8.71923H12.5768C12.743 8.71923 12.8819 8.83307 12.9138 8.99246L13.0595 9.93738C13.0823 10.1173 12.957 10.2835 12.7771 10.3108C12.7589 10.3108 12.7407 10.3176 12.7225 10.3176C12.5586 10.3176 12.4197 10.1992 12.3923 10.0398L12.3559 9.80532L10.8714 11.6132C10.7757 11.7202 10.6232 11.7612 10.4866 11.7157L8.43276 10.9461L7.48328 12.3828H13.121Z" fill="#86888C"/>
</svg>
