<svg width="20" height="20" viewBox="0 0 20 20" fill="none" xmlns="http://www.w3.org/2000/svg">
<path fill-rule="evenodd" clip-rule="evenodd" d="M16.9554 9.60365C16.9554 9.77668 16.8416 9.90645 16.8052 9.91783H10.4738V6.91035L16.7824 6.90808C16.8325 6.92629 16.9554 7.06744 16.9554 7.22453V9.60365ZM15.7556 16.9869H10.476V10.9287H15.9059V16.6727C15.9036 16.8457 15.7898 16.9755 15.7556 16.9869ZM4.04217 16.6727V10.9287H9.43332V16.9869H4.20381C4.156 16.9732 4.04217 16.8457 4.04217 16.6727ZM3.04044 7.22226C3.04044 7.06517 3.1611 6.92401 3.1907 6.90808H9.4356V9.91556H3.1998C3.15199 9.89734 3.04271 9.77212 3.04271 9.60137V7.22226H3.04044ZM5.97734 3.67293C6.27103 3.23354 6.6148 3.01498 7.00411 3.01498C7.25682 3.01498 7.5323 3.10832 7.82371 3.29273C8.41565 3.6661 9.01897 4.95925 9.31038 5.77885C8.42703 5.84943 6.95403 5.84032 6.36892 5.46922C5.99783 5.23473 5.77471 4.9638 5.71097 4.66784C5.64494 4.36732 5.73601 4.03265 5.97734 3.67293ZM12.1243 3.29045C12.8665 2.82146 13.4881 2.94895 13.9707 3.67066C14.212 4.03265 14.3031 4.36504 14.2371 4.66328C14.1733 4.95925 13.9502 5.23017 13.5791 5.46467C12.9918 5.83577 11.5187 5.84487 10.6354 5.7743C10.9291 4.95697 11.5324 3.6661 12.1243 3.29045ZM16.8074 5.89724H14.6628C14.9656 5.59444 15.1751 5.25066 15.257 4.87501C15.38 4.31268 15.2365 3.70708 14.845 3.1197C14.0458 1.92445 12.7868 1.66491 11.5574 2.44353C10.8858 2.86927 10.344 3.82092 9.97517 4.6519C9.60862 3.82092 9.0645 2.86699 8.39288 2.44353C7.16348 1.66491 5.90448 1.92445 5.10537 3.1197C4.71379 3.70708 4.57036 4.31268 4.6933 4.87501C4.77526 5.25066 4.98471 5.59444 5.28523 5.89724H3.1907C2.56689 5.89724 2 6.53015 2 7.22453V9.60365C2 10.2502 2.44395 10.8035 3.00173 10.9082V16.6727C3.00173 17.3921 3.54813 18 4.19243 18H15.7556C16.3999 18 16.9463 17.3921 16.9463 16.6727V10.9127C17.5291 10.8308 17.9981 10.2684 17.9981 9.60137V7.22226C17.9981 6.52787 17.4313 5.89724 16.8074 5.89724Z" fill="#86888C"/>
</svg>
