<svg width="40" height="40" viewBox="0 0 40 40" fill="none" xmlns="http://www.w3.org/2000/svg">
<path fill-rule="evenodd" clip-rule="evenodd" d="M34.9333 11.3599L34.9486 10.6939C34.7591 10.6529 34.5644 10.6427 34.3697 10.6529L6.58204 10.6375C6.40786 10.6324 6.23367 10.6632 6.06973 10.7195V11.3855C6.18244 11.4111 6.37199 11.4367 6.63327 11.4265H7.58104C7.66301 11.4265 7.73474 11.4111 7.80134 11.4111L33.1299 11.4265C33.2273 11.4111 33.3092 11.4367 33.3912 11.4367H34.4209C34.5951 11.4419 34.7693 11.4163 34.9333 11.3599ZM33.5705 28.886L33.5859 13.5526C33.5449 13.4757 33.4476 13.4501 33.3092 13.4348L7.71937 13.4194C7.55543 13.445 7.42735 13.5218 7.42735 13.5628V28.8809C7.46834 28.9885 7.59129 29.0295 7.82695 29.0295L33.1965 29.0448C33.4322 29.0448 33.5551 28.9219 33.5705 28.886ZM20.4451 36.2735C21.0906 36.2581 21.0906 35.9303 21.0906 35.7049C21.0906 35.4897 21.0906 35.1311 20.5425 35.1208H20.4349C19.9533 35.1208 19.9123 35.3975 19.9123 35.6895C19.9072 35.92 19.9072 36.2633 20.4451 36.2735ZM19.6716 6.49296L15.655 8.64466L25.1481 8.66003L21.4083 6.46222C21.1419 6.55956 20.8652 6.61079 20.5835 6.61079H20.4298C20.1839 6.61079 19.9226 6.5698 19.6716 6.49296ZM20.4298 3.72648C19.9482 3.74185 19.9072 4.00313 19.9072 4.30027C19.9072 4.59229 19.9482 4.8843 20.4451 4.8843C21.0906 4.86893 21.0906 4.54106 21.0906 4.31564C21.0906 4.10047 21.0906 3.74185 20.5425 3.73161L20.4298 3.72648ZM36.4856 9.30041C36.8134 9.59243 36.9927 9.99203 37.0081 10.4019L36.9927 11.6622C36.9927 12.3845 36.4548 12.9685 35.6044 13.2452C35.6197 13.3374 35.6454 13.445 35.6454 13.5475L35.63 28.8809C35.63 30.0592 34.5439 31.0326 33.1965 31.0326L21.5312 31.0172V33.5839C22.2895 33.8913 22.8786 34.5829 22.8786 35.6997C22.8786 37.252 21.7259 37.9744 20.5835 38H20.4042C19.2771 37.9846 18.1193 37.2674 18.1193 35.6844C18.1193 34.5522 18.7084 33.8759 19.4718 33.5685V31.0172H7.88331C6.93041 31.0531 6.35662 30.6945 6.02362 30.3922C5.59841 30.008 5.35762 29.4649 5.36274 28.8911V13.5526C5.36274 13.4604 5.37811 13.3682 5.38836 13.2759C5.04511 13.1684 4.74285 13.0095 4.50719 12.7944C4.18955 12.5126 4.00512 12.1027 4 11.6775V10.4172C4 9.39263 5.0861 8.64978 6.57179 8.64978H11.3978L18.2063 5.00726C18.1449 4.77672 18.109 4.54106 18.109 4.30027C18.109 2.7326 19.2617 2.01537 20.4042 2V2.01537H20.5835C21.7105 2.02562 22.8684 2.75822 22.8684 4.31564C22.8684 4.55643 22.8427 4.76647 22.7864 4.95603L29.1544 8.66003H34.339C35.2611 8.62416 36.0194 8.85983 36.4856 9.30041ZM26.7722 25.3613C27.1871 25.3613 27.5304 25.679 27.5304 26.0939C27.5201 26.5038 27.182 26.8316 26.7722 26.8265H12.3404C11.9306 26.8368 11.5924 26.5089 11.5822 26.099V17.2207C11.5822 16.8057 11.9101 16.4932 12.3404 16.4932C12.7554 16.4932 13.0986 16.8109 13.0986 17.2207V24.1471L15.2862 20.8223C15.486 20.5251 15.8651 20.4073 16.193 20.5405L20.8704 22.2823L23.9135 18.5732H23.0989C22.6891 18.5835 22.3509 18.2556 22.3407 17.8457V17.8406C22.3407 17.441 22.6839 17.1183 23.0989 17.1183H25.5477C25.9217 17.1183 26.2342 17.3744 26.306 17.733L26.6338 19.8591C26.6851 20.2638 26.4033 20.6378 25.9986 20.6993C25.9576 20.6993 25.9166 20.7147 25.8756 20.7147C25.5068 20.7147 25.1943 20.4483 25.1328 20.0897L25.0508 19.562L21.7105 23.6297C21.4954 23.8705 21.1521 23.9627 20.8447 23.8603L16.2237 22.1286L14.0874 25.3613H26.7722Z" fill="#86888C"/>
</svg>
