<svg width="24" height="24" viewBox="0 0 24 24" fill="none" xmlns="http://www.w3.org/2000/svg">
<path fill-rule="evenodd" clip-rule="evenodd" d="M20.1851 7.19994L20.1937 6.82994C20.0884 6.80717 19.9802 6.80148 19.8721 6.80717L4.43447 6.79863C4.3377 6.79579 4.24093 6.81286 4.14985 6.84417V7.21417C4.21247 7.2284 4.31777 7.24264 4.46293 7.23694H4.98947C5.03501 7.23694 5.07485 7.2284 5.11185 7.2284L19.1833 7.23694C19.2374 7.2284 19.2829 7.24264 19.3284 7.24264H19.9005C19.9973 7.24548 20.0941 7.23125 20.1851 7.19994ZM19.4281 16.9367L19.4366 8.4181C19.4138 8.37541 19.3598 8.36118 19.2829 8.35264L5.06632 8.3441C4.97524 8.35833 4.90408 8.40102 4.90408 8.42379V16.9338C4.92685 16.9936 4.99516 17.0164 5.12609 17.0164L19.2203 17.0249C19.3512 17.0249 19.4195 16.9566 19.4281 16.9367ZM12.1362 21.0408C12.4948 21.0323 12.4948 20.8502 12.4948 20.7249C12.4948 20.6054 12.4948 20.4061 12.1903 20.4005H12.1305C11.863 20.4005 11.8402 20.5541 11.8402 20.7164C11.8373 20.8445 11.8373 21.0352 12.1362 21.0408ZM11.7064 4.49609L9.47503 5.69148L14.749 5.70001L12.6713 4.47901C12.5233 4.53309 12.3696 4.56155 12.213 4.56155H12.1277C11.991 4.56155 11.8459 4.53878 11.7064 4.49609ZM12.1277 2.95916C11.8601 2.9677 11.8373 3.11285 11.8373 3.27793C11.8373 3.44016 11.8601 3.60239 12.1362 3.60239C12.4948 3.59385 12.4948 3.4117 12.4948 3.28647C12.4948 3.16693 12.4948 2.9677 12.1903 2.962L12.1277 2.95916ZM21.0475 6.05578C21.2297 6.21802 21.3293 6.44002 21.3378 6.66771L21.3293 7.36787C21.3293 7.76918 21.0305 8.09364 20.558 8.24733C20.5665 8.29856 20.5808 8.35833 20.5808 8.41526L20.5722 16.9338C20.5722 17.5884 19.9688 18.1292 19.2203 18.1292L12.7396 18.1207V19.5466C13.1608 19.7174 13.4881 20.1016 13.4881 20.7221C13.4881 21.5845 12.8477 21.9858 12.213 22H12.1134C11.4873 21.9915 10.844 21.593 10.844 20.7135C10.844 20.0845 11.1713 19.7088 11.5954 19.5381V18.1207H5.15739C4.62801 18.1406 4.30924 17.9414 4.12424 17.7734C3.888 17.56 3.75423 17.2583 3.75708 16.9395V8.4181C3.75708 8.36687 3.76562 8.31564 3.77131 8.26441C3.58062 8.20464 3.41269 8.11641 3.28177 7.99687C3.10531 7.84033 3.00285 7.61264 3 7.37641V6.67625C3 6.10702 3.60339 5.69432 4.42877 5.69432H7.10986L10.8924 3.6707C10.8583 3.54262 10.8383 3.4117 10.8383 3.27793C10.8383 2.407 11.4787 2.00854 12.1134 2V2.00854H12.213C12.8392 2.01423 13.4824 2.42123 13.4824 3.28647C13.4824 3.42024 13.4682 3.53693 13.4369 3.64224L16.9747 5.70001H19.855C20.3673 5.68009 20.7885 5.81101 21.0475 6.05578ZM15.6512 14.9785C15.8817 14.9785 16.0724 15.155 16.0724 15.3855C16.0667 15.6132 15.8789 15.7954 15.6512 15.7925H7.63356C7.40586 15.7982 7.21802 15.6161 7.21232 15.3884V10.456C7.21232 10.2254 7.39448 10.0518 7.63356 10.0518C7.8641 10.0518 8.05479 10.2283 8.05479 10.456V14.304L9.2701 12.4568C9.3811 12.2917 9.59172 12.2263 9.77387 12.3003L12.3724 13.268L14.063 11.2073H13.6105C13.3828 11.213 13.195 11.0309 13.1893 10.8032V10.8003C13.1893 10.5783 13.38 10.399 13.6105 10.399H14.971C15.1787 10.399 15.3524 10.5413 15.3922 10.7406L15.5744 11.9217C15.6028 12.1466 15.4463 12.3543 15.2214 12.3885C15.1987 12.3885 15.1759 12.397 15.1531 12.397C14.9482 12.397 14.7746 12.249 14.7404 12.0498L14.6949 11.7567L12.8392 14.0165C12.7197 14.1503 12.529 14.2015 12.3582 14.1446L9.79095 13.1826L8.6041 14.9785H15.6512Z" fill="#86888C"/>
</svg>
