<svg width="28" height="28" viewBox="0 0 28 28" fill="none" xmlns="http://www.w3.org/2000/svg">
<path d="M8.07106 12.4303C7.98235 12.3689 7.94141 12.3006 7.94141 12.1949C7.94482 12.0584 8.05741 11.9492 8.19389 11.9526C8.25872 11.956 8.32355 11.9765 8.37814 12.014C8.77052 12.2733 9.31644 12.5361 9.95107 12.5361C10.8996 12.5361 11.4831 12.0482 11.4831 11.3282C11.4831 10.7379 11.1521 10.3183 10.0671 10.1818L9.7873 10.1477C8.63063 10.001 8.09153 9.4448 8.09153 8.58157C8.09153 7.55455 8.8217 6.91992 9.94425 6.91992C10.5721 6.91992 11.1009 7.0837 11.466 7.3123C11.5786 7.38054 11.6298 7.46925 11.6298 7.55455C11.6298 7.68421 11.5274 7.78998 11.3978 7.78998H11.3943C11.3329 7.78657 11.2749 7.76951 11.2203 7.7388C10.8211 7.52043 10.4015 7.39078 9.92378 7.39078C9.06395 7.39078 8.58286 7.86846 8.58286 8.53721C8.58286 9.14455 8.95818 9.53693 9.97496 9.66658L10.2445 9.7007C11.4182 9.84742 11.9744 10.4036 11.9744 11.2907C11.9744 12.2904 11.2613 13.0035 9.88625 13.0035C9.23797 13.0001 8.60333 12.7988 8.07106 12.4303Z" fill="#86888C"/>
<path d="M9.88872 13.2599C9.18585 13.2531 8.50345 13.0382 7.92341 12.639C7.76305 12.5264 7.68457 12.3796 7.68457 12.1954C7.68798 11.9156 7.91317 11.6938 8.19296 11.6972C8.30897 11.7007 8.42156 11.7348 8.5171 11.7996C8.99478 12.1169 9.47587 12.2773 9.95014 12.2773C10.7349 12.2773 11.2262 11.9122 11.2262 11.3253C11.2262 10.9398 11.0829 10.5645 10.032 10.4314L9.75565 10.3973C8.16907 10.196 7.8347 9.2952 7.8347 8.57868C7.8347 7.41518 8.66381 6.66113 9.94331 6.66113C10.5643 6.66113 11.1512 6.81467 11.6015 7.09104C11.8506 7.24458 11.8882 7.44589 11.8882 7.55166C11.8882 7.82121 11.6698 8.04299 11.3968 8.04299C11.2945 8.03958 11.1955 8.01228 11.1068 7.96452L11.1 7.9611C10.7042 7.74615 10.3289 7.64379 9.92625 7.64379C9.24727 7.64379 8.84124 7.97816 8.84124 8.53432C8.84124 8.76975 8.84124 9.26108 10.0081 9.4112L10.2777 9.44532C11.8916 9.65004 12.2328 10.561 12.2328 11.2912C12.2328 11.8747 12.0178 12.366 11.6152 12.7174C11.2023 13.0723 10.6052 13.2599 9.88872 13.2599ZM8.21684 12.2227C8.3465 12.3148 8.48639 12.3933 8.62969 12.4615C8.49321 12.3933 8.36015 12.3148 8.23049 12.2261C8.22367 12.2193 8.21343 12.2159 8.20319 12.2125L8.21684 12.2227ZM10.5472 10.0117C11.0488 10.138 11.39 10.3563 11.5742 10.6702C11.3456 10.2506 10.8918 10.0834 10.5472 10.0117ZM8.42497 9.06659C8.56828 9.4385 8.89583 9.68416 9.41787 9.81723C8.90948 9.67393 8.57851 9.42485 8.42497 9.06659Z" fill="#86888C"/>
<path d="M10.0119 16.0058C8.11487 16.0058 6.63406 15.5042 5.60705 14.5148C4.5391 13.4843 4 11.966 4 9.99387C4 8.02173 4.5391 6.49998 5.60705 5.46956C6.63406 4.48008 8.11487 3.97852 10.0119 3.97852C11.909 3.97852 13.3898 4.48008 14.4168 5.46956C15.4848 6.49657 16.0239 8.01832 16.0239 9.99046C16.0239 11.9626 15.4814 13.4843 14.4168 14.5114C13.3898 15.5042 11.9056 16.0058 10.0119 16.0058ZM10.0119 5.34332C6.88655 5.34332 5.3648 6.86507 5.3648 9.99387C5.3648 13.1227 6.88655 14.6444 10.0119 14.6444C13.1373 14.6444 14.6591 13.1227 14.6591 9.99387C14.6591 6.86507 13.1373 5.34332 10.0119 5.34332Z" fill="#86888C"/>
<path d="M10.0119 14.0068C9.77652 14.0068 9.58545 13.8158 9.58545 13.5803V6.34349C9.58545 6.10806 9.77652 5.91699 10.0119 5.91699C10.2474 5.91699 10.4384 6.10806 10.4384 6.34349V13.5838C10.4384 13.8158 10.2474 14.0068 10.0119 14.0068Z" fill="#86888C"/>
<path d="M14.6693 26C14.4987 26 14.3315 25.9352 14.2052 25.8192L5.55581 17.8317C5.27943 17.5758 5.26237 17.1459 5.51827 16.8661C5.64793 16.7262 5.82877 16.6477 6.01984 16.6477H9.32948V15.4637C9.32948 15.0884 9.63656 14.7813 10.0119 14.7813C10.3872 14.7813 10.6943 15.0884 10.6943 15.4637V17.3267C10.6943 17.702 10.3872 18.0091 10.0119 18.0091H7.76337L14.6693 24.3861L21.5751 18.0091H19.3266C18.9513 18.0091 18.6442 17.702 18.6442 17.3267V3.68894C18.6442 3.51834 18.6101 3.43986 18.5896 3.41939C18.5692 3.39892 18.4907 3.3648 18.3201 3.3648H11.0014C10.8308 3.3648 10.7591 3.39892 10.7455 3.41257C10.7318 3.42622 10.6943 3.50469 10.6943 3.68894V4.35428C10.6943 4.7296 10.3872 5.03668 10.0119 5.03668C9.63656 5.03668 9.32948 4.7296 9.32948 4.35428V3.68894C9.32948 2.64828 9.97093 2 11.0014 2H18.3201C19.3608 2 20.009 2.64828 20.009 3.68894V16.6477H23.3187C23.694 16.6477 24.0011 16.9514 24.0045 17.3267C24.0045 17.5178 23.926 17.702 23.7827 17.8317L15.1299 25.8192C15.0036 25.9352 14.8399 26 14.6693 26Z" fill="#86888C"/>
</svg>
