<svg width="40" height="40" viewBox="0 0 40 40" fill="none" xmlns="http://www.w3.org/2000/svg">
<path fill-rule="evenodd" clip-rule="evenodd" d="M16.4269 35.6898V10.3392L16.4781 10.3238H26.0006V13.4075C26.0006 14.9647 26.5384 16.3068 27.5578 17.2954C28.5669 18.2738 29.9294 18.7911 31.5071 18.7911H34.7188L34.6727 35.6949L16.4269 35.6898ZM6.2897 28.6414L6.29482 4.29482L23.7928 4.26409V8.02903H16.4781C15.2334 8.02903 14.1372 9.10985 14.1372 10.3392V28.6158L6.2897 28.6414ZM28.2851 11.3278L33.6022 16.4963H31.502C30.5287 16.4963 29.7143 16.2043 29.1406 15.646C28.5771 15.0979 28.28 14.3244 28.28 13.4075V11.3278H28.2851ZM36.9112 16.8036C36.8344 16.5578 36.7217 16.3273 36.5373 16.148L28.6283 8.46443C28.3364 8.1827 27.9522 8.02903 27.5526 8.02903H26.0825V4.26409C26.0825 3.03472 25.0324 2 23.7877 2H6.29482C5.05009 2 4 3.03984 4 4.26409V28.6414C4 29.8503 5.07057 30.9106 6.29482 30.9106H14.1372V35.6898C14.1372 36.9397 15.2077 38 16.4781 38H34.6625C35.9328 38 36.9983 36.9397 36.9983 35.6898V17.2544C37.0034 17.0956 36.9727 16.9419 36.9112 16.8036Z" fill="#86888C"/>
</svg>
