<svg width="28" height="28" viewBox="0 0 28 28" fill="none" xmlns="http://www.w3.org/2000/svg">
<path fill-rule="evenodd" clip-rule="evenodd" d="M11.2846 24.4599V7.55948L11.3187 7.54923H17.667V9.60501C17.667 10.6431 18.0256 11.5378 18.7052 12.1969C19.3779 12.8492 20.2863 13.1941 21.3381 13.1941H23.4792L23.4485 24.4633L11.2846 24.4599ZM4.52647 19.761L4.52988 3.52988L16.1952 3.50939V6.01935H11.3187C10.4889 6.01935 9.75811 6.7399 9.75811 7.55948V19.7439L4.52647 19.761ZM19.1901 8.21855L22.7348 11.6642H21.3347C20.6858 11.6642 20.1429 11.4696 19.7604 11.0973C19.3847 10.7319 19.1867 10.2163 19.1867 9.60501V8.21855H19.1901ZM24.9408 11.8691C24.8896 11.7052 24.8145 11.5515 24.6915 11.432L19.4189 6.30962C19.2242 6.1218 18.9681 6.01935 18.7018 6.01935H17.7217V3.50939C17.7217 2.68981 17.0216 2 16.1918 2H4.52988C3.70006 2 3 2.69323 3 3.50939V19.761C3 20.5669 3.71372 21.2738 4.52988 21.2738H9.75811V24.4599C9.75811 25.2931 10.4718 26 11.3187 26H23.4417C24.2886 26 24.9989 25.2931 24.9989 24.4599V12.1696C25.0023 12.0637 24.9818 11.9613 24.9408 11.8691Z" fill="#86888C"/>
</svg>
