<svg width="20" height="20" viewBox="0 0 20 20" fill="none" xmlns="http://www.w3.org/2000/svg">
<path fill-rule="evenodd" clip-rule="evenodd" d="M8.52305 16.9733V5.70632L8.54582 5.69949H12.778V7.07001C12.778 7.76209 13.0171 8.35857 13.4701 8.79795C13.9186 9.23278 14.5242 9.46272 15.2254 9.46272H16.6528L16.6323 16.9755L8.52305 16.9733ZM4.01764 13.8406L4.01992 3.01992L11.7968 3.00626V4.67957H8.54582C7.9926 4.67957 7.50541 5.15993 7.50541 5.70632V13.8293L4.01764 13.8406ZM13.7934 6.1457L16.1565 8.4428H15.2231C14.7906 8.4428 14.4286 8.31303 14.1736 8.06488C13.9232 7.82129 13.7911 7.47752 13.7911 7.07001V6.1457H13.7934ZM17.6272 8.5794C17.5931 8.47012 17.543 8.36767 17.461 8.28799L13.9459 4.87308C13.8162 4.74787 13.6454 4.67957 13.4678 4.67957H12.8145V3.00626C12.8145 2.45987 12.3478 2 11.7945 2H4.01992C3.4667 2 3 2.46215 3 3.00626V13.8406C3 14.3779 3.47581 14.8492 4.01992 14.8492H7.50541V16.9733C7.50541 17.5287 7.98122 18 8.54582 18H16.6278C17.1924 18 17.6659 17.5287 17.6659 16.9733V8.77974C17.6682 8.70916 17.6545 8.64087 17.6272 8.5794Z" fill="#86888C"/>
</svg>
