<svg width="24" height="24" viewBox="0 0 24 24" fill="none" xmlns="http://www.w3.org/2000/svg">
<path fill-rule="evenodd" clip-rule="evenodd" d="M9.90381 20.7166V6.6329L9.93227 6.62436H15.2225V8.33751C15.2225 9.20262 15.5213 9.94821 16.0876 10.4974C16.6483 11.041 17.4052 11.3284 18.2817 11.3284H20.066L20.0404 20.7194L9.90381 20.7166ZM4.27205 16.8008L4.2749 3.2749L13.996 3.25783V5.34946H9.93227C9.24075 5.34946 8.63176 5.94991 8.63176 6.6329V16.7866L4.27205 16.8008ZM16.4917 7.18213L19.4456 10.0535H18.2789C17.7382 10.0535 17.2857 9.89129 16.967 9.5811C16.654 9.27661 16.4889 8.8469 16.4889 8.33751V7.18213H16.4917ZM21.284 10.2242C21.2413 10.0876 21.1787 9.95959 21.0763 9.85999L16.6824 5.59135C16.5202 5.43483 16.3068 5.34946 16.0848 5.34946H15.2681V3.25783C15.2681 2.57484 14.6847 2 13.9932 2H4.2749C3.58338 2 3 2.57769 3 3.25783V16.8008C3 17.4724 3.59476 18.0615 4.2749 18.0615H8.63176V20.7166C8.63176 21.4109 9.22652 22 9.93227 22H20.0347C20.7405 22 21.3324 21.4109 21.3324 20.7166V10.4747C21.3352 10.3865 21.3182 10.3011 21.284 10.2242Z" fill="#86888C"/>
</svg>
