<svg width="24" height="24" viewBox="0 0 24 24" fill="none" xmlns="http://www.w3.org/2000/svg">
<path fill-rule="evenodd" clip-rule="evenodd" d="M20.5455 15.4585C20.5455 15.4471 20.7987 12.0982 20.7702 11.0084C20.7674 10.9173 20.7589 10.8718 20.7503 10.8491C20.7418 10.8491 20.7105 10.8405 20.6507 10.8405C20.5483 10.8434 20.4715 10.8946 20.4544 10.9771L19.928 13.5436C19.9223 13.5721 19.9052 13.592 19.8967 13.6176C19.8939 13.8566 19.8426 14.0928 19.7175 14.3033L19.7146 14.3062V14.309L18.1525 16.9523C18.0387 17.1487 17.8338 17.2568 17.6261 17.2568C17.518 17.2568 17.4127 17.2283 17.3131 17.1686C17.0229 16.9922 16.9262 16.6137 17.0997 16.3207L18.6618 13.6745C18.6618 13.6745 18.6647 13.6745 18.6647 13.6716V13.6688C18.6988 13.6119 18.6618 13.4668 18.6049 13.4298C18.6049 13.4298 18.4854 13.3615 18.4399 13.4383L18.3602 13.5749C18.0984 14.0415 17.555 15.0118 16.4481 15.5837C16.4481 15.5837 16.1921 15.7374 15.734 16.3321C15.3185 16.8755 14.9686 17.4816 14.6982 18.1332L14.61 18.3437H17.5692C17.6062 18.3437 17.6432 18.3523 17.683 18.3551L19.5041 16.7987C19.6605 16.665 19.8256 16.5398 19.9906 16.4146C20.113 16.3235 20.2296 16.1812 20.3406 15.9935C20.4601 15.8 20.5284 15.6179 20.5455 15.4585ZM17.8025 20.5318V19.8119C17.8025 19.6867 17.7001 19.5843 17.5749 19.5843H14.0637C13.9385 19.5843 13.8361 19.6867 13.8361 19.8119V20.5346C13.8361 20.6598 13.9385 20.7623 14.0637 20.7623H17.5749C17.7001 20.7623 17.8025 20.6598 17.8025 20.5318ZM21.9937 10.9771C22.025 12.1295 21.7746 15.4358 21.7633 15.578C21.7234 15.9337 21.6011 16.2808 21.3934 16.6308C21.1999 16.9552 20.9751 17.217 20.7276 17.4048C20.5796 17.5157 20.4345 17.6238 20.2979 17.7433L18.7956 19.0294C18.9378 19.2542 19.026 19.5245 19.026 19.8119V20.5346C19.026 21.3427 18.3744 22 17.5721 22H14.0609C13.2585 22 12.6098 21.3456 12.6098 20.5346V19.8119C12.6098 19.3567 12.8203 18.9555 13.1418 18.688L13.5715 17.658C13.8845 16.9097 14.2885 16.2097 14.7694 15.5809C15.401 14.7557 15.8051 14.5281 15.9161 14.4797C16.6701 14.0871 17.077 13.3615 17.2961 12.9717L17.3985 12.7924C17.7257 12.2575 18.3631 12.0498 18.9464 12.2433L19.2565 10.7267C19.3931 10.058 19.9878 9.60563 20.6479 9.60279C21.51 9.65116 21.9738 10.1519 21.9937 10.9771ZM10.1628 20.5318V19.8119C10.1628 19.6867 10.0603 19.5843 9.93797 19.5843H6.4268C6.30161 19.5843 6.19917 19.6867 6.19917 19.8119V20.5346C6.19917 20.6598 6.30161 20.7623 6.4268 20.7623H9.93797C10.0603 20.7623 10.1628 20.6598 10.1628 20.5318ZM4.48912 16.8015L6.31014 18.3579C6.34713 18.3551 6.38412 18.3466 6.42111 18.3466H9.38028L9.29207 18.136C9.01892 17.4844 8.67179 16.8784 8.25636 16.3349C7.79826 15.7402 7.54218 15.5866 7.53934 15.5866C6.43534 15.0147 5.89188 14.0444 5.63295 13.5777L5.55328 13.4383C5.50775 13.3615 5.38825 13.4298 5.38825 13.4326C5.33134 13.4668 5.29435 13.6119 5.3285 13.6688V13.6716L5.33134 13.6745L6.89344 16.3207C7.06701 16.6137 6.97311 16.9922 6.68004 17.1686C6.5833 17.2255 6.47233 17.2568 6.36989 17.2568C6.16218 17.2568 5.95732 17.1487 5.8435 16.9523L4.2814 14.3062V14.3033H4.27856C4.15621 14.0928 4.10215 13.8537 4.0993 13.6176C4.09077 13.592 4.07369 13.5721 4.068 13.5436L3.54161 10.9771C3.52454 10.8946 3.45625 10.8434 3.37943 10.8377C3.29407 10.8434 3.25423 10.8519 3.23716 10.8576C3.24 10.869 3.22862 10.9173 3.22578 11.0084C3.19732 12.0982 3.45056 15.4471 3.45341 15.4813C3.47048 15.6179 3.53877 15.8 3.65543 15.9991C3.7664 16.1869 3.8859 16.3292 4.00825 16.4203C4.16759 16.5398 4.33262 16.665 4.48912 16.8015ZM10.4217 17.658L10.8542 18.688C11.1757 18.9555 11.3863 19.3567 11.3863 19.8119V20.5346C11.3863 21.3399 10.7347 22 9.93512 22H6.42396C5.62157 22 4.97283 21.3427 4.97283 20.5346V19.8119C4.97283 19.5217 5.05819 19.2542 5.20045 19.0294L3.69811 17.7433C3.56153 17.6267 3.41357 17.5157 3.2713 17.4076C3.02091 17.217 2.79613 16.9552 2.60265 16.6308C2.39493 16.2808 2.27258 15.9337 2.23559 15.598C2.22137 15.4358 1.97382 12.1295 2.00228 10.9742C2.02219 10.1491 2.48883 9.65116 3.27415 9.60563C4.0111 9.61417 4.60008 10.0552 4.73951 10.7267L5.0525 12.2433C5.63579 12.0498 6.27031 12.2575 6.59752 12.7896L6.69996 12.9688C6.91905 13.3587 7.32593 14.0842 8.10272 14.4883C8.18808 14.5281 8.59212 14.7557 9.22379 15.578C9.70465 16.2069 10.1115 16.9068 10.4217 17.658ZM11.9297 13.3046C13.4975 12.5107 15.7909 10.9686 15.9986 9.77066C16.2063 8.56423 16.2518 6.03187 16.2603 4.83682C15.2645 4.81121 14.63 4.3901 14.058 4.00598C13.4434 3.5934 12.9085 3.23773 11.9326 3.23488H11.9297C10.9509 3.23488 10.4188 3.5934 9.80139 4.00313C9.22094 4.39294 8.57789 4.82259 7.59909 4.84251C7.61047 6.04325 7.65599 8.56423 7.86655 9.76782C8.06857 10.9714 10.3619 12.5107 11.9297 13.3046ZM17.205 9.98407C16.8067 12.2916 12.6581 14.3261 12.1886 14.5537C12.1061 14.5935 12.0151 14.6135 11.9269 14.6135C11.8387 14.6135 11.7476 14.5935 11.6651 14.5537C11.1928 14.3289 7.04993 12.2945 6.65443 9.98407C6.35851 8.27685 6.36705 4.34742 6.36705 4.18239C6.36705 3.99175 6.45526 3.81534 6.60321 3.69583C6.75402 3.57917 6.94466 3.53934 7.12676 3.58202C8.01166 3.71575 8.47261 3.40561 9.11851 2.97596C9.76725 2.54062 10.5753 2 11.9212 2H11.9269C13.2727 2.00285 14.0808 2.54346 14.7295 2.97596C15.3754 3.40561 15.8421 3.72144 16.7554 3.57633C16.9375 3.55072 17.1196 3.59909 17.2562 3.71575C17.3928 3.83241 17.481 4.00028 17.481 4.18239C17.4867 4.34742 17.4952 8.27401 17.205 9.98407ZM13.9101 6.18552C14.1491 5.94366 14.5361 5.94366 14.7751 6.18552C15.0141 6.42737 15.0141 6.82003 14.7751 7.05904L11.4403 10.4223C11.3208 10.5418 11.1643 10.6015 11.005 10.6015C10.8485 10.6015 10.692 10.5418 10.5725 10.4223L9.07583 8.91137C8.83682 8.66951 8.83682 8.2797 9.07583 8.03784C9.31484 7.79599 9.70181 7.79599 9.94081 8.03784L11.0021 9.11339L13.9101 6.18552Z" fill="#86888C"/>
</svg>
