<svg width="28" height="28" viewBox="0 0 28 28" fill="none" xmlns="http://www.w3.org/2000/svg">
<path fill-rule="evenodd" clip-rule="evenodd" d="M25.2545 18.1502C25.2545 18.1366 25.5584 14.1178 25.5243 12.8101C25.5209 12.7008 25.5106 12.6462 25.5004 12.6189C25.4901 12.6189 25.4526 12.6086 25.3809 12.6086C25.258 12.612 25.1658 12.6735 25.1453 12.7725L24.5136 15.8523C24.5068 15.8865 24.4863 15.9104 24.4761 15.9411C24.4726 16.2279 24.4112 16.5113 24.2609 16.764L24.2575 16.7674V16.7708L22.383 19.9428C22.2464 20.1784 22.0006 20.3082 21.7513 20.3082C21.6216 20.3082 21.4953 20.274 21.3758 20.2023C21.0275 19.9906 20.9114 19.5365 21.1197 19.1848L22.9942 16.0094C22.9942 16.0094 22.9976 16.0094 22.9976 16.006V16.0026C23.0386 15.9343 22.9942 15.7601 22.9259 15.7157C22.9259 15.7157 22.7825 15.6338 22.7279 15.726L22.6323 15.8899C22.3181 16.4499 21.666 17.6142 20.3378 18.3005C20.3378 18.3005 20.0305 18.4848 19.4807 19.1985C18.9822 19.8506 18.5623 20.5779 18.2379 21.3598L18.1321 21.6125H21.6831C21.7274 21.6125 21.7718 21.6227 21.8196 21.6261L24.0049 19.7584C24.1927 19.5979 24.3907 19.4477 24.5887 19.2975C24.7355 19.1882 24.8755 19.0175 25.0087 18.7921C25.1521 18.56 25.2341 18.3414 25.2545 18.1502ZM21.963 24.2382V23.3743C21.963 23.2241 21.8401 23.1012 21.6899 23.1012H17.4765C17.3262 23.1012 17.2033 23.2241 17.2033 23.3743V24.2416C17.2033 24.3918 17.3262 24.5147 17.4765 24.5147H21.6899C21.8401 24.5147 21.963 24.3918 21.963 24.2382ZM26.9925 12.7725C27.03 14.1554 26.7296 18.1229 26.7159 18.2936C26.6681 18.7204 26.5213 19.137 26.272 19.557C26.0399 19.9462 25.7701 20.2604 25.4731 20.4857C25.2955 20.6189 25.1214 20.7486 24.9575 20.892L23.1547 22.4353C23.3254 22.7051 23.4312 23.0294 23.4312 23.3743V24.2416C23.4312 25.2113 22.6493 26 21.6865 26H17.4731C16.5102 26 15.7317 25.2147 15.7317 24.2416V23.3743C15.7317 22.828 15.9844 22.3466 16.3702 22.0256L16.8858 20.7896C17.2614 19.8916 17.7462 19.0516 18.3233 18.2971C19.0813 17.3069 19.5661 17.0337 19.6993 16.9757C20.6041 16.5045 21.0924 15.6338 21.3553 15.166L21.4782 14.9509C21.8708 14.309 22.6357 14.0598 23.3356 14.2919L23.7078 12.472C23.8717 11.6697 24.5853 11.1268 25.3775 11.1233C26.412 11.1814 26.9686 11.7823 26.9925 12.7725ZM12.7953 24.2382V23.3743C12.7953 23.2241 12.6724 23.1012 12.5256 23.1012H8.31216C8.16193 23.1012 8.03901 23.2241 8.03901 23.3743V24.2416C8.03901 24.3918 8.16193 24.5147 8.31216 24.5147H12.5256C12.6724 24.5147 12.7953 24.3918 12.7953 24.2382ZM5.98694 19.7618L8.17217 21.6295C8.21656 21.6261 8.26095 21.6159 8.30533 21.6159H11.8563L11.7505 21.3632C11.4227 20.5813 11.0061 19.854 10.5076 19.2019C9.95792 18.4883 9.65062 18.3039 9.6472 18.3039C8.32241 17.6176 7.67025 16.4533 7.35954 15.8933L7.26393 15.726C7.2093 15.6338 7.0659 15.7157 7.0659 15.7192C6.99761 15.7601 6.95322 15.9343 6.99419 16.0026V16.006L6.99761 16.0094L8.87213 19.1848C9.08041 19.5365 8.96773 19.9906 8.61605 20.2023C8.49996 20.2706 8.36679 20.3082 8.24387 20.3082C7.99462 20.3082 7.74878 20.1784 7.61221 19.9428L5.73769 16.7674V16.764H5.73427C5.58745 16.5113 5.52258 16.2245 5.51916 15.9411C5.50892 15.9104 5.48843 15.8865 5.4816 15.8523L4.84993 12.7725C4.82945 12.6735 4.7475 12.612 4.65531 12.6052C4.55288 12.612 4.50508 12.6223 4.48459 12.6291C4.48801 12.6428 4.47435 12.7008 4.47093 12.8101C4.43679 14.1178 4.74067 18.1366 4.74409 18.1775C4.76457 18.3414 4.84652 18.56 4.98651 18.799C5.11967 19.0243 5.26308 19.195 5.4099 19.3043C5.60111 19.4477 5.79914 19.598 5.98694 19.7618ZM13.106 20.7896L13.625 22.0256C14.0108 22.3466 14.2635 22.828 14.2635 23.3743V24.2416C14.2635 25.2079 13.4816 26 12.5221 26H8.30875C7.34588 26 6.56739 25.2113 6.56739 24.2416V23.3743C6.56739 23.026 6.66982 22.7051 6.84054 22.4353L5.03773 20.892C4.87384 20.752 4.69629 20.6189 4.52556 20.4891C4.22509 20.2604 3.95536 19.9462 3.72317 19.557C3.47392 19.137 3.3271 18.7204 3.28271 18.3175C3.26564 18.1229 2.96859 14.1554 3.00273 12.7691C3.02663 11.7789 3.5866 11.1814 4.52898 11.1268C5.41331 11.137 6.1201 11.6662 6.28741 12.472L6.66299 14.2919C7.36295 14.0598 8.12437 14.309 8.51703 14.9475L8.63995 15.1626C8.90286 15.6304 9.39112 16.5011 10.3233 16.9859C10.4257 17.0337 10.9105 17.3069 11.6685 18.2936C12.2456 19.0482 12.7338 19.8882 13.106 20.7896ZM14.9157 15.5655C16.797 14.6129 19.549 12.7623 19.7983 11.3248C20.0475 9.87708 20.1022 6.83824 20.1124 5.40418C18.9174 5.37345 18.156 4.86812 17.4697 4.40717C16.7321 3.91208 16.0902 3.48528 14.9191 3.48186H14.9157C13.7411 3.48186 13.1026 3.91208 12.3617 4.40376C11.6651 4.87153 10.8935 5.38711 9.71891 5.41101C9.73256 6.8519 9.78719 9.87708 10.0399 11.3214C10.2823 12.7657 13.0343 14.6129 14.9157 15.5655ZM21.246 11.5809C20.768 14.35 15.7898 16.7913 15.2264 17.0644C15.1274 17.1123 15.0181 17.1362 14.9122 17.1362C14.8064 17.1362 14.6971 17.1123 14.5981 17.0644C14.0313 16.7947 9.05992 14.3534 8.58532 11.5809C8.23022 9.53222 8.24046 4.8169 8.24046 4.61886C8.24046 4.3901 8.34631 4.1784 8.52386 4.035C8.70482 3.89501 8.93359 3.8472 9.15211 3.89842C10.214 4.0589 10.7671 3.68673 11.5422 3.17115C12.3207 2.64874 13.2904 2 14.9054 2H14.9122C16.5273 2.00341 17.497 2.65216 18.2755 3.17115C19.0505 3.68673 19.6105 4.06573 20.7065 3.89159C20.9251 3.86086 21.1436 3.91891 21.3075 4.0589C21.4714 4.19889 21.5772 4.40034 21.5772 4.61886C21.584 4.8169 21.5943 9.52881 21.246 11.5809ZM17.2921 7.02262C17.5789 6.73239 18.0433 6.73239 18.3301 7.02262C18.6169 7.31285 18.6169 7.78404 18.3301 8.07085L14.3284 12.1067C14.185 12.2501 13.9972 12.3218 13.806 12.3218C13.6182 12.3218 13.4304 12.2501 13.287 12.1067L11.491 10.2936C11.2042 10.0034 11.2042 9.53564 11.491 9.24541C11.7778 8.95519 12.2422 8.95519 12.529 9.24541L13.8026 10.5361L17.2921 7.02262Z" fill="#86888C"/>
</svg>
