<svg width="20" height="20" viewBox="0 0 20 20" fill="none" xmlns="http://www.w3.org/2000/svg">
<path fill-rule="evenodd" clip-rule="evenodd" d="M16.8364 12.7668C16.8364 12.7577 17.039 10.0785 17.0162 9.20672C17.0139 9.13387 17.0071 9.09745 17.0003 9.07924C16.9934 9.07924 16.9684 9.07241 16.9206 9.07241C16.8386 9.07469 16.7772 9.11566 16.7635 9.18168L16.3424 11.2349C16.3379 11.2576 16.3242 11.2736 16.3174 11.2941C16.3151 11.4853 16.2741 11.6742 16.174 11.8427L16.1717 11.8449V11.8472L14.922 13.9619C14.831 14.1189 14.6671 14.2054 14.5009 14.2054C14.4144 14.2054 14.3302 14.1827 14.2505 14.1349C14.0183 13.9937 13.9409 13.691 14.0798 13.4565L15.3295 11.3396C15.3295 11.3396 15.3317 11.3396 15.3317 11.3373V11.335C15.3591 11.2895 15.3295 11.1734 15.2839 11.1438C15.2839 11.1438 15.1883 11.0892 15.1519 11.1507L15.0882 11.2599C14.8788 11.6332 14.444 12.4094 13.5585 12.867C13.5585 12.867 13.3536 12.9899 12.9872 13.4656C12.6548 13.9004 12.3748 14.3853 12.1586 14.9065L12.088 15.075H14.4554C14.485 15.075 14.5146 15.0818 14.5464 15.0841L16.0032 13.839C16.1284 13.732 16.2605 13.6318 16.3925 13.5317C16.4904 13.4588 16.5837 13.345 16.6725 13.1948C16.7681 13.04 16.8227 12.8943 16.8364 12.7668ZM14.642 16.8254V16.2495C14.642 16.1494 14.5601 16.0674 14.4599 16.0674H11.651C11.5508 16.0674 11.4689 16.1494 11.4689 16.2495V16.8277C11.4689 16.9279 11.5508 17.0098 11.651 17.0098H14.4599C14.5601 17.0098 14.642 16.9279 14.642 16.8254ZM17.995 9.18168C18.02 10.1036 17.8197 12.7486 17.8106 12.8624C17.7787 13.147 17.6809 13.4247 17.5147 13.7047C17.3599 13.9641 17.1801 14.1736 16.982 14.3238C16.8637 14.4126 16.7476 14.4991 16.6383 14.5947L15.4364 15.6236C15.5503 15.8034 15.6208 16.0196 15.6208 16.2495V16.8277C15.6208 17.4742 15.0996 18 14.4576 18H11.6487C11.0068 18 10.4878 17.4765 10.4878 16.8277V16.2495C10.4878 15.8853 10.6563 15.5644 10.9135 15.3504L11.2572 14.5264C11.5076 13.9277 11.8308 13.3678 12.2155 12.8647C12.7208 12.2046 13.0441 12.0225 13.1328 11.9838C13.7361 11.6697 14.0616 11.0892 14.2368 10.7774L14.3188 10.6339C14.5806 10.206 15.0905 10.0398 15.5571 10.1946L15.8052 8.98136C15.9145 8.44644 16.3902 8.08451 16.9183 8.08223C17.608 8.12093 17.9791 8.52155 17.995 9.18168ZM8.5302 16.8254V16.2495C8.5302 16.1494 8.44826 16.0674 8.35038 16.0674H5.54144C5.44129 16.0674 5.35934 16.1494 5.35934 16.2495V16.8277C5.35934 16.9279 5.44129 17.0098 5.54144 17.0098H8.35038C8.44826 17.0098 8.5302 16.9279 8.5302 16.8254ZM3.99129 13.8412L5.44811 15.0864C5.47771 15.0841 5.5073 15.0773 5.53689 15.0773H7.90422L7.83366 14.9088C7.61514 14.3875 7.33743 13.9027 7.00509 13.4679C6.63861 12.9922 6.43374 12.8693 6.43147 12.8693C5.54827 12.4117 5.1135 11.6355 4.90636 11.2622L4.84262 11.1507C4.8062 11.0892 4.7106 11.1438 4.7106 11.1461C4.66507 11.1734 4.63548 11.2895 4.6628 11.335V11.3373L4.66507 11.3396L5.91475 13.4565C6.05361 13.691 5.97849 13.9937 5.74403 14.1349C5.66664 14.1804 5.57786 14.2054 5.49592 14.2054C5.32975 14.2054 5.16585 14.1189 5.0748 13.9619L3.82512 11.8449V11.8427H3.82285C3.72497 11.6742 3.68172 11.483 3.67944 11.2941C3.67261 11.2736 3.65895 11.2576 3.6544 11.2349L3.23329 9.18168C3.21963 9.11566 3.165 9.07469 3.10354 9.07014C3.03525 9.07469 3.00339 9.08152 2.98973 9.08607C2.992 9.09518 2.9829 9.13387 2.98062 9.20672C2.95786 10.0785 3.16045 12.7577 3.16272 12.785C3.17638 12.8943 3.23101 13.04 3.32434 13.1993C3.41312 13.3496 3.50872 13.4634 3.6066 13.5362C3.73407 13.6318 3.8661 13.732 3.99129 13.8412ZM8.73734 14.5264L9.08334 15.3504C9.34056 15.5644 9.509 15.8853 9.509 16.2495V16.8277C9.509 17.4719 8.98773 18 8.3481 18H5.53917C4.89725 18 4.37826 17.4742 4.37826 16.8277V16.2495C4.37826 16.0174 4.44655 15.8034 4.56036 15.6236L3.35849 14.5947C3.24922 14.5014 3.13086 14.4126 3.01704 14.3261C2.81673 14.1736 2.6369 13.9641 2.48212 13.7047C2.31595 13.4247 2.21807 13.147 2.18848 12.8784C2.17709 12.7486 1.97906 10.1036 2.00182 9.1794C2.01775 8.51928 2.39106 8.12093 3.01932 8.08451C3.60888 8.09134 4.08007 8.44416 4.19161 8.98136L4.442 10.1946C4.90863 10.0398 5.41625 10.206 5.67802 10.6317L5.75996 10.7751C5.93524 11.0869 6.26075 11.6674 6.88217 11.9906C6.95046 12.0225 7.27369 12.2046 7.77903 12.8624C8.16372 13.3655 8.48923 13.9255 8.73734 14.5264ZM9.94377 11.0437C11.198 10.4086 13.0327 9.17485 13.1989 8.21653C13.365 7.25139 13.4015 5.22549 13.4083 4.26945C12.6116 4.24897 12.104 3.91208 11.6464 3.60478C11.1548 3.27472 10.7268 2.99018 9.94605 2.98791H9.94377C9.16073 2.98791 8.73507 3.27472 8.24111 3.6025C7.77675 3.91435 7.26231 4.25807 6.47927 4.27401C6.48838 5.2346 6.5248 7.25139 6.69324 8.21425C6.85486 9.17712 8.68954 10.4086 9.94377 11.0437ZM14.164 8.38725C13.8453 10.2333 10.5265 11.8609 10.1509 12.043C10.0849 12.0748 10.0121 12.0908 9.9415 12.0908C9.87093 12.0908 9.79809 12.0748 9.73208 12.043C9.35422 11.8631 6.03995 10.2356 5.72354 8.38725C5.48681 7.02148 5.49364 3.87793 5.49364 3.74591C5.49364 3.5934 5.5642 3.45227 5.68257 3.35667C5.80321 3.26334 5.95573 3.23147 6.10141 3.26561C6.80933 3.3726 7.17809 3.12448 7.69481 2.78077C8.2138 2.43249 8.86026 2 9.93695 2H9.9415C11.0182 2.00228 11.6646 2.43477 12.1836 2.78077C12.7004 3.12448 13.0737 3.37715 13.8044 3.26106C13.95 3.24057 14.0957 3.27927 14.205 3.3726C14.3142 3.46593 14.3848 3.60023 14.3848 3.74591C14.3894 3.87793 14.3962 7.01921 14.164 8.38725ZM11.5281 5.34841C11.7193 5.15493 12.0289 5.15493 12.2201 5.34841C12.4113 5.5419 12.4113 5.85602 12.2201 6.04723L9.55225 8.7378C9.45665 8.8334 9.33145 8.88121 9.20398 8.88121C9.07879 8.88121 8.95359 8.8334 8.85799 8.7378L7.66066 7.52909C7.46945 7.33561 7.46945 7.02376 7.66066 6.83027C7.85187 6.63679 8.16144 6.63679 8.35265 6.83027L9.20171 7.69071L11.5281 5.34841Z" fill="#86888C"/>
</svg>
