<svg width="40" height="40" viewBox="0 0 40 40" fill="none" xmlns="http://www.w3.org/2000/svg">
<path fill-rule="evenodd" clip-rule="evenodd" d="M35.3818 26.2254C35.3818 26.2049 35.8376 20.1767 35.7864 18.2151C35.7813 18.0512 35.7659 17.9693 35.7506 17.9283C35.7352 17.9283 35.6789 17.9129 35.5713 17.9129C35.3869 17.9181 35.2487 18.0102 35.2179 18.1588L34.2704 22.7785C34.2602 22.8297 34.2295 22.8656 34.2141 22.9116C34.209 23.3419 34.1168 23.767 33.8914 24.146L33.8863 24.1511V24.1562L31.0745 28.9142C30.8697 29.2676 30.5009 29.4622 30.127 29.4622C29.9324 29.4622 29.7429 29.411 29.5636 29.3035C29.0412 28.9859 28.8671 28.3047 29.1795 27.7772L31.9913 23.0141C31.9913 23.0141 31.9964 23.0141 31.9964 23.009V23.0038C32.0579 22.9014 31.9913 22.6402 31.8889 22.5736C31.8889 22.5736 31.6737 22.4507 31.5918 22.589L31.4484 22.8348C30.9772 23.6748 29.999 25.4213 28.0067 26.4507C28.0067 26.4507 27.5457 26.7273 26.7211 27.7977C25.9734 28.7759 25.3434 29.8668 24.8568 31.0397L24.6981 31.4187H30.0246C30.0912 31.4187 30.1577 31.4341 30.2295 31.4392L33.5073 28.6376C33.789 28.3969 34.086 28.1716 34.3831 27.9462C34.6033 27.7823 34.8133 27.5262 35.0131 27.1882C35.2282 26.8399 35.3511 26.5122 35.3818 26.2254ZM30.4446 35.3572V34.0615C30.4446 33.8361 30.2602 33.6517 30.0348 33.6517H23.7147C23.4894 33.6517 23.305 33.8361 23.305 34.0615V35.3624C23.305 35.5877 23.4894 35.7721 23.7147 35.7721H30.0348C30.2602 35.7721 30.4446 35.5877 30.4446 35.3572ZM37.9887 18.1588C38.0451 20.233 37.5944 26.1844 37.5739 26.4405C37.5022 27.0807 37.2819 27.7055 36.9081 28.3355C36.5598 28.9193 36.1552 29.3905 35.7096 29.7286C35.4433 29.9283 35.1821 30.1229 34.9362 30.338L32.232 32.653C32.4881 33.0576 32.6469 33.5442 32.6469 34.0615V35.3624C32.6469 36.8169 31.474 38 30.0297 38H23.7096C22.2653 38 21.0976 36.822 21.0976 35.3624V34.0615C21.0976 33.242 21.4766 32.5198 22.0553 32.0384L22.8287 30.1844C23.3921 28.8374 24.1193 27.5775 24.9849 26.4456C26.1219 24.9603 26.8492 24.5506 27.0489 24.4635C28.4061 23.7567 29.1385 22.4507 29.5329 21.749L29.7173 21.4264C30.3063 20.4635 31.4535 20.0896 32.5035 20.4379L33.0617 17.7081C33.3076 16.5045 34.378 15.6901 35.5662 15.685C37.1181 15.7721 37.9529 16.6735 37.9887 18.1588ZM16.693 35.3572V34.0615C16.693 33.8361 16.5086 33.6517 16.2883 33.6517H9.96824C9.74289 33.6517 9.55851 33.8361 9.55851 34.0615V35.3624C9.55851 35.5877 9.74289 35.7721 9.96824 35.7721H16.2883C16.5086 35.7721 16.693 35.5877 16.693 35.3572ZM6.48041 28.6428L9.75826 31.4443C9.82484 31.4392 9.89142 31.4238 9.958 31.4238H15.2845L15.1257 31.0448C14.6341 29.872 14.0092 28.781 13.2615 27.8028C12.4369 26.7324 11.9759 26.4558 11.9708 26.4558C9.98361 25.4264 9.00538 23.6799 8.53931 22.8399L8.3959 22.589C8.31395 22.4507 8.09885 22.5736 8.09885 22.5787C7.99641 22.6402 7.92983 22.9014 7.99129 23.0038V23.009L7.99641 23.0141L10.8082 27.7772C11.1206 28.3047 10.9516 28.9859 10.4241 29.3035C10.2499 29.4059 10.0502 29.4622 9.86581 29.4622C9.49193 29.4622 9.12317 29.2676 8.91831 28.9142L6.10653 24.1511V24.146H6.10141C5.88118 23.767 5.78387 23.3367 5.77874 22.9116C5.76338 22.8656 5.73265 22.8297 5.72241 22.7785L4.7749 18.1588C4.74417 18.0102 4.62125 17.9181 4.48297 17.9078C4.32932 17.9181 4.25762 17.9334 4.22689 17.9437C4.23201 17.9641 4.21152 18.0512 4.2064 18.2151C4.15518 20.1767 4.61101 26.2049 4.61613 26.2663C4.64686 26.5122 4.76978 26.8399 4.97977 27.1985C5.17951 27.5365 5.39462 27.7926 5.61485 27.9565C5.90166 28.1716 6.19872 28.3969 6.48041 28.6428ZM17.159 30.1844L17.9375 32.0384C18.5163 32.5198 18.8953 33.242 18.8953 34.0615V35.3624C18.8953 36.8118 17.7224 38 16.2832 38H9.96312C8.51882 38 7.35109 36.8169 7.35109 35.3624V34.0615C7.35109 33.5391 7.50474 33.0576 7.76082 32.653L5.05659 30.338C4.81075 30.128 4.54443 29.9283 4.28835 29.7337C3.83764 29.3905 3.43303 28.9193 3.08476 28.3355C2.71088 27.7055 2.49065 27.0807 2.42407 26.4763C2.39846 26.1844 1.95288 20.233 2.0041 18.1536C2.03995 16.6684 2.8799 15.7721 4.29347 15.6901C5.61997 15.7055 6.68015 16.4994 6.93111 17.7081L7.49449 20.4379C8.54443 20.0896 9.68655 20.4635 10.2755 21.4213L10.4599 21.7439C10.8543 22.4456 11.5867 23.7516 12.9849 24.4789C13.1385 24.5506 13.8658 24.9603 15.0028 26.4405C15.8684 27.5723 16.6008 28.8323 17.159 30.1844ZM19.8735 22.3483C22.6955 20.9193 26.8236 18.1434 27.1974 15.9872C27.5713 13.8156 27.6533 9.25736 27.6686 7.10627C25.8761 7.06018 24.7339 6.30218 23.7045 5.61076C22.5982 4.86812 21.6353 4.22791 19.8786 4.22279H19.8735C18.1116 4.22279 17.1539 4.86812 16.0425 5.60563C14.9977 6.3073 13.8402 7.08067 12.0784 7.11652C12.0988 9.27785 12.1808 13.8156 12.5598 15.9821C12.9234 18.1485 17.0515 20.9193 19.8735 22.3483ZM29.369 16.3713C28.652 20.525 21.1846 24.1869 20.3396 24.5967C20.191 24.6684 20.0271 24.7042 19.8684 24.7042C19.7096 24.7042 19.5457 24.6684 19.3972 24.5967C18.547 24.1921 11.0899 20.5301 10.378 16.3713C9.84532 13.2983 9.86069 6.22535 9.86069 5.9283C9.86069 5.58515 10.0195 5.26761 10.2858 5.0525C10.5572 4.84251 10.9004 4.77081 11.2282 4.84763C12.821 5.08835 13.6507 4.53009 14.8133 3.75672C15.981 2.97311 17.4356 2 19.8581 2H19.8684C22.2909 2.00512 23.7455 2.97823 24.9132 3.75672C26.0758 4.53009 26.9157 5.09859 28.5598 4.83739C28.8876 4.79129 29.2154 4.87836 29.4612 5.08835C29.707 5.29834 29.8658 5.60051 29.8658 5.9283C29.8761 6.22535 29.8914 13.2932 29.369 16.3713ZM23.4382 9.53393C23.8684 9.09859 24.5649 9.09859 24.9951 9.53393C25.4254 9.96927 25.4254 10.6761 24.9951 11.1063L18.9926 17.1601C18.7775 17.3752 18.4958 17.4827 18.209 17.4827C17.9273 17.4827 17.6456 17.3752 17.4305 17.1601L14.7365 14.4405C14.3063 14.0051 14.3063 13.3035 14.7365 12.8681C15.1667 12.4328 15.8632 12.4328 16.2935 12.8681L18.2038 14.8041L23.4382 9.53393Z" fill="#86888C"/>
</svg>
