<svg width="40" height="40" viewBox="0 0 40 40" fill="none" xmlns="http://www.w3.org/2000/svg">
<path fill-rule="evenodd" clip-rule="evenodd" d="M4.36258 30.971V35.151C4.36258 35.3862 4.54432 35.5733 4.77416 35.5733H28.7581C28.9773 35.5733 29.1537 35.3808 29.1537 35.151V29.4263C29.1537 29.0361 29.3354 28.6673 29.6454 28.4428C29.9555 28.2129 30.351 28.1595 30.7145 28.2824C31.3559 28.5069 31.9599 28.555 32.3608 28.571C32.4624 28.571 32.6067 28.571 32.7243 28.5604C34.1408 28.5336 37.2036 28.0365 37.2036 23.8459C37.2036 19.8477 34.4561 19.1581 32.8098 19.11H32.286C32.0454 19.11 31.4094 19.1367 30.6931 19.3719C30.3403 19.4895 29.9448 19.4254 29.6347 19.1955C29.3301 18.971 29.1537 18.6076 29.1537 18.2174V13.0913C29.1537 12.8561 28.9773 12.6637 28.7581 12.6637H22.2263C21.8468 12.6637 21.494 12.482 21.2748 12.1666C21.0503 11.8566 20.9862 11.4557 21.1038 11.0869C21.2855 10.4989 21.3764 9.86815 21.3764 9.15724C21.3764 5.13764 18.6129 4.4588 16.9666 4.41604H16.4588C14.8552 4.43742 12.1452 5.07884 12.1452 9.11982C12.1452 9.84677 12.2361 10.5042 12.4178 11.0869C12.5301 11.4557 12.4659 11.8566 12.2468 12.1666C12.0223 12.4766 11.6695 12.6637 11.2953 12.6637H4.77951C4.54967 12.6637 4.36793 12.8561 4.36793 13.0913L4.37862 16.6886C4.72606 16.6993 5.64009 16.7421 6.66637 17.1056C8.302 17.6241 11.1136 19.2009 11.1136 23.8512C11.1136 28.4855 8.302 30.0731 6.62895 30.6076C5.67216 30.9336 4.81693 30.9817 4.39465 30.9817C4.37862 30.971 4.37327 30.971 4.36258 30.971ZM28.7581 38H4.77416C3.24543 38 2 36.7225 2 35.1563V29.7256C2 29.3782 2.14432 29.0521 2.39555 28.8169C2.64677 28.5871 2.97817 28.4748 3.32027 28.5229C3.55011 28.5497 3.74788 28.5657 3.88686 28.571H3.95635C4.05791 28.571 4.17016 28.571 4.26637 28.5604C4.60846 28.555 5.21247 28.5283 5.902 28.2931C7.79421 27.6891 8.74566 26.1978 8.74566 23.8459C8.74566 21.4886 7.79955 19.992 5.92339 19.404C5.18575 19.1421 4.53363 19.1154 4.31982 19.1047H3.81203C3.70512 19.11 3.52339 19.1154 3.30423 19.1421C2.95679 19.1795 2.63608 19.0673 2.3902 18.8428C2.13898 18.6129 2 18.2869 2 17.9394V13.0913C2 11.5198 3.24543 10.2477 4.77416 10.2477H9.84143C9.80401 9.88419 9.78263 9.51002 9.78263 9.12517C9.78263 3.93497 13.2249 2.04276 16.4428 2H16.9987C20.2699 2.09087 23.739 4.01515 23.739 9.15724C23.739 9.5314 23.7176 9.89488 23.6802 10.2423H28.7635C30.2869 10.2423 31.5216 11.5198 31.5216 13.086V16.7261C31.8423 16.6886 32.1096 16.6833 32.2913 16.6833H32.8633C36.1025 16.7795 39.5661 18.7091 39.5661 23.8405C39.5661 29.0307 35.9528 30.9229 32.8633 30.9657C32.7777 30.9764 32.5479 30.9817 32.3234 30.9817C32.163 30.9764 31.8797 30.9657 31.5216 30.9229V35.151C31.5216 36.7225 30.2815 38 28.7581 38Z" fill="#86888C"/>
</svg>
