<svg width="28" height="28" viewBox="0 0 28 28" fill="none" xmlns="http://www.w3.org/2000/svg">
<path fill-rule="evenodd" clip-rule="evenodd" d="M14.5023 24.5442C16.8553 24.4999 24.5322 23.6188 24.5322 14.0499C24.5322 4.4845 16.8177 3.55562 14.4545 3.49756C14.1335 3.49073 13.7545 3.4839 13.4095 3.48732C11.0771 3.51122 3.46845 4.32399 3.46845 13.985C3.46845 23.6563 11.142 24.5169 13.4949 24.5511C13.833 24.5579 14.2018 24.5511 14.5023 24.5442ZM14.4887 2.03253C16.4113 2.07692 26.0007 2.87262 26.0007 14.0499C26.0007 25.2375 16.4455 25.9785 14.5262 26.0127C14.3145 26.0161 14.0652 26.0195 13.8193 26.0195C13.7032 26.0195 13.5871 26.0195 13.4744 26.0161C11.5586 25.9922 2 25.2819 2 13.985C2 2.68821 11.4937 2.03936 13.3993 2.02228C13.7545 2.01545 14.154 2.02228 14.4887 2.03253ZM13.4642 19.5686C14.1096 19.5686 14.5297 19.992 14.5297 20.5999C14.5297 21.2795 14.1164 21.6859 13.5017 21.6859C12.8461 21.6859 12.4363 21.2795 12.4363 20.6785V20.5999C12.4397 19.992 12.8597 19.5686 13.4642 19.5686ZM16.6879 7.3053C17.5383 7.93366 17.9378 8.79765 17.9378 10.0271C17.9378 11.5297 17.3163 12.4244 15.8922 14.1046C14.2599 15.9931 14.195 16.0682 14.195 17.8303C14.195 18.1001 13.9764 18.3187 13.7066 18.3187H13.1671C12.9349 18.3187 12.7334 18.1548 12.6856 17.9226C12.6377 17.6698 12.6138 17.4103 12.6173 17.1508C12.6173 15.8292 13.0817 15.0471 14.1233 13.7938L14.3213 13.5548C16.0357 11.5262 16.3601 10.9594 16.3601 10.0032C16.3601 9.32356 16.1654 8.87961 15.7078 8.51421C15.4449 8.30589 14.9839 8.06343 13.7237 8.06343C13.0373 8.06343 12.4328 8.14197 11.6918 8.3298C11.4288 8.39468 11.1659 8.23759 11.0976 7.97805C11.0942 7.96781 11.0942 7.95756 11.0907 7.94732L11.0122 7.53069C10.9712 7.31213 11.0805 7.09356 11.282 6.99794C11.743 6.77938 12.8734 6.55399 13.9628 6.55399C15.1102 6.55058 16.0254 6.80329 16.6879 7.3053Z" fill="#86888C"/>
</svg>
