<svg width="20" height="20" viewBox="0 0 20 20" fill="none" xmlns="http://www.w3.org/2000/svg">
<path fill-rule="evenodd" clip-rule="evenodd" d="M12.1036 7.38934C12.181 7.55326 12.3472 7.6557 12.527 7.65343H12.5544L17.276 7.38023C17.506 7.37113 17.6927 7.19127 17.7109 6.96134L17.9977 2.47642C18.0091 2.28974 17.8998 2.11444 17.7268 2.03931C17.5515 1.96418 17.3489 1.99833 17.21 2.1281L15.1201 4.11785C13.6767 2.99776 11.8987 2.39219 10.0729 2.39446C5.61981 2.39446 2 5.89361 2 10.1964C2 14.4992 5.61981 17.9983 10.0706 17.9983C13.4217 17.9983 16.461 15.9585 17.6335 12.9215C17.7632 12.5777 17.5879 12.1953 17.2442 12.0655L17.2237 12.0587C16.8685 11.9266 16.4724 12.1019 16.329 12.4525C15.3591 14.9659 12.8435 16.6551 10.0706 16.6551C6.38702 16.6574 3.39101 13.7593 3.39101 10.1964C3.39101 6.63351 6.38702 3.73538 10.0706 3.73538C11.5481 3.73538 12.9641 4.20209 14.1252 5.06037L12.1992 6.88849C12.0626 7.01598 12.0239 7.21859 12.1036 7.38934Z" fill="#86888C"/>
</svg>
