<svg width="28" height="28" viewBox="0 0 28 28" fill="none" xmlns="http://www.w3.org/2000/svg">
<path fill-rule="evenodd" clip-rule="evenodd" d="M17.1568 10.0847C17.2729 10.3306 17.5222 10.4843 17.792 10.4809H17.833L24.9162 10.0711C25.2611 10.0574 25.5411 9.78762 25.5685 9.44269L25.9988 2.7147C26.0159 2.43465 25.8519 2.17167 25.5924 2.05897C25.3294 1.94627 25.0254 1.9975 24.8171 2.19217L21.6819 5.17707C19.5167 3.49678 16.8494 2.58833 14.1104 2.59175C7.43021 2.59175 2 7.84095 2 14.2957C2 20.7505 7.43021 25.9997 14.107 25.9997C19.1342 25.9997 23.6935 22.9397 25.4523 18.3837C25.647 17.868 25.384 17.2943 24.8683 17.0996L24.8376 17.0894C24.3048 16.8913 23.7106 17.1543 23.4954 17.6802C22.0405 21.4506 18.2667 23.9847 14.107 23.9847C8.58114 23.9881 4.0867 19.6405 4.0867 14.2957C4.0867 8.9509 8.58114 4.60331 14.107 4.60331C16.3235 4.60331 18.4477 5.30344 20.1895 6.59097L17.3002 9.3334C17.0953 9.52465 17.0372 9.82861 17.1568 10.0847Z" fill="#86888C"/>
</svg>
