<svg width="20" height="20" viewBox="0 0 20 20" fill="none" xmlns="http://www.w3.org/2000/svg">
<path fill-rule="evenodd" clip-rule="evenodd" d="M11.4192 9.74172H15.133V4.04807H5.61253V5.77301C5.61482 5.79576 5.6194 5.81852 5.6194 5.84127V8.18973C5.6194 8.21249 5.61482 8.23524 5.61253 8.258V9.74399H9.3264C9.33555 9.74399 9.34242 9.73944 9.35158 9.73944H11.394C11.4031 9.73716 11.41 9.74172 11.4192 9.74172ZM9.86676 11.346H10.8765V10.7339H9.86676V11.346ZM16.7129 12.3405H11.4077C11.4031 12.3405 11.3986 12.345 11.3917 12.345H9.34929C9.34471 12.345 9.34013 12.3405 9.33326 12.3405H4.03265V17.0033H5.5301C5.5301 16.9942 5.52781 16.9851 5.52781 16.976V13.9881C5.52781 13.4396 5.98804 12.9936 6.56046 12.9936H14.1874C14.7575 12.9936 15.22 13.4373 15.22 13.9881V16.976C15.22 16.9851 15.2178 16.9942 15.2178 17.0033H16.7152V12.3405H16.7129ZM6.56046 16.976H14.1874V13.9881H6.56046V16.976ZM4.03723 8.18746H4.57988V5.839H4.03723V8.18746ZM16.168 8.19656H16.7175V5.8481H16.168V8.19656ZM15.133 10.7362H11.9092V11.3483H16.7129C17.283 11.3483 17.7456 11.7943 17.7456 12.3428V17.0055C17.7456 17.554 17.283 18 16.7129 18H4.03265C3.46252 18 3 17.5563 3 17.0055V12.3428C3 11.7943 3.46252 11.3483 4.03265 11.3483H8.8364V10.7362H5.61253C5.0424 10.7362 4.57988 10.2924 4.57988 9.74172V9.18191H4.03723C3.4671 9.18191 3.00458 8.73816 3.00458 8.18746V5.839C3.00458 5.29057 3.4671 4.84455 4.03723 4.84455H4.57988V4.0458C4.57988 3.49737 5.0424 3.05134 5.61253 3.05134H9.96064V2.83288C9.88737 2.74413 9.83699 2.63718 9.83699 2.51657C9.83699 2.23211 10.0774 2 10.3728 2C10.6681 2 10.9086 2.23211 10.9086 2.51657C10.9086 2.63718 10.8582 2.74413 10.7849 2.83288V3.05134H15.133C15.7032 3.05134 16.1657 3.49509 16.1657 4.0458V4.85365H16.7175C17.2876 4.85365 17.7501 5.2974 17.7501 5.8481V8.19656C17.7501 8.74499 17.2876 9.19101 16.7175 9.19101H16.1657V9.74172C16.1657 10.2901 15.7032 10.7362 15.133 10.7362ZM8.42197 6.41246C8.63033 6.41246 8.79977 6.24861 8.79977 6.04836C8.79977 5.8481 8.63033 5.68653 8.42197 5.68653C8.21361 5.68653 8.04417 5.8481 8.04417 6.04836C8.04417 6.25089 8.21132 6.41246 8.42197 6.41246ZM9.76144 6.05063C9.76144 6.76291 9.15925 7.34092 8.41968 7.34092C7.68011 7.34092 7.07793 6.76291 7.07793 6.05063C7.07793 5.34063 7.68011 4.76035 8.41968 4.76035C9.15925 4.76035 9.76144 5.34063 9.76144 6.05063ZM12.3236 6.39881C12.532 6.39881 12.7014 6.23724 12.7014 6.03698C12.7014 5.83672 12.532 5.67515 12.3236 5.67515C12.1152 5.67515 11.9458 5.83672 11.9458 6.03698C11.9458 6.23496 12.1152 6.39881 12.3236 6.39881ZM12.3236 4.74669C13.0632 4.74669 13.6631 5.32471 13.6631 6.03698C13.6631 6.74698 13.0609 7.32727 12.3236 7.32727C11.5863 7.32727 10.9818 6.74925 10.9818 6.03698C10.9841 5.32471 11.5863 4.74669 12.3236 4.74669ZM11.6985 7.9121C11.9824 7.9121 12.2137 8.13512 12.2137 8.40819C12.2137 8.68354 11.9824 8.90428 11.6985 8.90428H9.04934C8.76542 8.90428 8.53416 8.68127 8.53416 8.40819C8.53416 8.13512 8.76542 7.9121 9.04934 7.9121H11.6985Z" fill="#86888C"/>
</svg>
