<svg width="24" height="24" viewBox="0 0 24 24" fill="none" xmlns="http://www.w3.org/2000/svg">
<path fill-rule="evenodd" clip-rule="evenodd" d="M13.524 11.6771H18.1663V4.56009H6.26566V6.71626C6.26852 6.7447 6.27425 6.77315 6.27425 6.80159V9.73716C6.27425 9.76561 6.26852 9.79405 6.26566 9.8225V11.68H10.908C10.9194 11.68 10.928 11.6743 10.9395 11.6743H13.4925C13.5039 11.6715 13.5125 11.6771 13.524 11.6771ZM11.5835 13.6825H12.8456V12.9174H11.5835V13.6825ZM20.1411 14.9256H13.5096C13.5039 14.9256 13.4982 14.9313 13.4896 14.9313H10.9366C10.9309 14.9313 10.9252 14.9256 10.9166 14.9256H4.29081V20.7541H6.16263C6.16263 20.7427 6.15976 20.7313 6.15976 20.72V16.9851C6.15976 16.2995 6.73505 15.742 7.45057 15.742H16.9842C17.6969 15.742 18.2751 16.2967 18.2751 16.9851V20.72C18.2751 20.7313 18.2722 20.7427 18.2722 20.7541H20.144V14.9256H20.1411ZM7.45057 20.72H16.9842V16.9851H7.45057V20.72ZM4.29653 9.73432H4.97485V6.79875H4.29653V9.73432ZM19.46 9.7457H20.1469V6.81013H19.46V9.7457ZM18.1663 12.9202H14.1364V13.6854H20.1411C20.8538 13.6854 21.432 14.2429 21.432 14.9285V20.7569C21.432 21.4425 20.8538 22 20.1411 22H4.29081C3.57815 22 3 21.4453 3 20.7569V14.9285C3 14.2429 3.57815 13.6854 4.29081 13.6854H10.2955V12.9202H6.26566C5.553 12.9202 4.97485 12.3655 4.97485 11.6771V10.9774H4.29653C3.58387 10.9774 3.00572 10.4227 3.00572 9.73432V6.79875C3.00572 6.11321 3.58387 5.55568 4.29653 5.55568H4.97485V4.55725C4.97485 3.87171 5.553 3.31418 6.26566 3.31418H11.7008V3.0411C11.6092 2.93017 11.5462 2.79647 11.5462 2.64571C11.5462 2.29014 11.8468 2 12.216 2C12.5852 2 12.8857 2.29014 12.8857 2.64571C12.8857 2.79647 12.8227 2.93017 12.7312 3.0411V3.31418H18.1663C18.879 3.31418 19.4571 3.86887 19.4571 4.55725V5.56706H20.1469C20.8595 5.56706 21.4377 6.12175 21.4377 6.81013V9.7457C21.4377 10.4312 20.8595 10.9888 20.1469 10.9888H19.4571V11.6771C19.4571 12.3627 18.879 12.9202 18.1663 12.9202ZM9.77746 7.51557C10.0379 7.51557 10.2497 7.31077 10.2497 7.06045C10.2497 6.81013 10.0379 6.60816 9.77746 6.60816C9.51701 6.60816 9.30522 6.81013 9.30522 7.06045C9.30522 7.31361 9.51415 7.51557 9.77746 7.51557ZM11.4518 7.06329C11.4518 7.95363 10.6991 8.67615 9.7746 8.67615C8.85014 8.67615 8.09741 7.95363 8.09741 7.06329C8.09741 6.17579 8.85014 5.45043 9.7746 5.45043C10.6991 5.45043 11.4518 6.17579 11.4518 7.06329ZM14.6545 7.49851C14.9149 7.49851 15.1267 7.29654 15.1267 7.04622C15.1267 6.7959 14.9149 6.59394 14.6545 6.59394C14.394 6.59394 14.1822 6.7959 14.1822 7.04622C14.1822 7.2937 14.394 7.49851 14.6545 7.49851ZM14.6545 5.43337C15.5789 5.43337 16.3288 6.15588 16.3288 7.04622C16.3288 7.93372 15.5761 8.65908 14.6545 8.65908C13.7329 8.65908 12.9773 7.93657 12.9773 7.04622C12.9802 6.15588 13.7329 5.43337 14.6545 5.43337ZM13.8731 9.39013C14.228 9.39013 14.5171 9.6689 14.5171 10.0102C14.5171 10.3544 14.228 10.6304 13.8731 10.6304H10.5617C10.2068 10.6304 9.91771 10.3516 9.91771 10.0102C9.91771 9.6689 10.2068 9.39013 10.5617 9.39013H13.8731Z" fill="#86888C"/>
</svg>
