<svg width="24" height="24" viewBox="0 0 24 24" fill="none" xmlns="http://www.w3.org/2000/svg">
<path fill-rule="evenodd" clip-rule="evenodd" d="M14.5634 10.0476C15.1525 10.0476 15.3602 9.837 15.3602 9.24792C15.3602 8.65599 15.1525 8.44825 14.5634 8.44825C13.9772 8.44825 13.7667 8.65884 13.7667 9.24792C13.7667 9.837 13.9772 10.0476 14.5634 10.0476ZM14.5634 7.18755C15.844 7.18755 16.6095 7.95877 16.6095 9.24507C16.6095 10.5342 15.844 11.3026 14.5634 11.3026C13.2829 11.3026 12.5174 10.5342 12.5174 9.24507C12.5174 7.95877 13.2829 7.18755 14.5634 7.18755ZM6.20584 19.1599C6.70382 18.659 6.70382 18.272 6.20584 17.7711C5.95827 17.5207 5.73631 17.3955 5.5172 17.3955C5.29524 17.3955 5.07612 17.5207 4.82571 17.7711C4.31634 18.2834 3.51103 19.2908 3.3033 20.6881C4.75741 20.4661 5.79322 19.5754 6.20584 19.1599ZM3.94072 16.8832C4.92815 15.8929 6.10624 15.89 7.09083 16.8832C8.07541 17.8764 8.07541 19.0603 7.09083 20.0506C6.50747 20.6369 4.90539 22 2.62604 22C2.28172 22 2 21.7183 2 21.3711C2 19.1627 3.21508 17.6118 3.94072 16.8832ZM16.8485 13.8752C17.005 13.7358 17.1501 13.5906 17.3123 13.4284C18.4107 12.3242 19.1762 10.9583 19.7026 9.59226L14.4525 4.31328C13.0866 4.8483 11.7207 5.62236 10.6137 6.73792C10.4714 6.88021 10.3064 7.04526 10.1641 7.21032L9.61774 7.82501C8.62747 8.97757 7.65142 10.3919 7.0083 11.5929L6.66967 12.2759C6.33674 13.0158 6.30259 13.3544 6.30259 13.4626L10.5824 17.7654C10.6649 17.774 11.0206 17.7427 11.7776 17.3869L12.4748 17.0483C13.6472 16.4251 15.0102 15.4689 16.2168 14.4216L16.8485 13.8752ZM17.2156 17.0511C17.2867 16.3568 17.0733 15.8104 16.894 15.4916C15.955 16.2913 14.9362 17.0398 13.9716 17.6345C14.148 18.0073 14.3102 18.383 14.4638 18.7501C14.6574 19.2111 14.9305 19.8685 15.1297 20.1474C16.4216 19.1115 17.1103 18.0813 17.2156 17.0511ZM5.45175 9.60934C5.78184 9.74878 6.11762 9.89677 6.45056 10.0533C7.05953 9.05725 7.80223 8.03276 8.58194 7.11356C8.25469 6.95135 7.75955 6.7806 7.1392 6.84036C6.10624 6.94566 5.07043 7.65427 4.06023 8.94057C4.33911 9.13693 4.9936 9.41582 5.45175 9.60934ZM20.3031 3.28879C19.5148 3.20057 17.7363 3.30302 15.7785 3.86365L20.1494 8.26042C20.7157 6.26836 20.8153 4.46127 20.7214 3.70143C20.6929 3.488 20.5193 3.3144 20.3031 3.28879ZM18.1973 14.3163C18.0778 14.4387 17.9611 14.544 17.8473 14.655C18.1319 15.0932 18.5729 15.9754 18.4648 17.145C18.3311 18.5793 17.4318 19.951 15.7928 21.2231C15.5509 21.4308 15.3033 21.4878 15.1127 21.4878C15.0216 21.4878 14.9448 21.4764 14.885 21.4621C14.1707 21.2942 13.8122 20.432 13.3114 19.2396C13.1748 18.9094 13.0297 18.5765 12.8788 18.2521L12.3154 18.5281C11.6011 18.8611 11.032 19.0261 10.5881 19.0261C10.2352 19.0261 9.95922 18.9208 9.75149 18.7131L5.36353 14.2992C4.75457 13.7386 5.13588 12.6344 5.53996 11.738L5.83306 11.1518C5.54565 11.0209 5.25824 10.8928 4.96799 10.7704C3.78136 10.2696 2.92483 9.9053 2.75694 9.18816C2.71141 9.00318 2.68864 8.63323 3.01304 8.24904C4.25658 6.62693 5.61964 5.72196 7.04814 5.58536C8.14371 5.48291 8.98032 5.8671 9.44132 6.15168C9.54091 6.04638 9.64051 5.93824 9.73157 5.84718C13.078 2.48058 18.4904 1.81466 20.4539 2.03948C21.245 2.14193 21.8596 2.75947 21.9621 3.54491C22.1641 5.20687 21.6491 10.8444 18.1973 14.3163Z" fill="#86888C"/>
</svg>
