<svg width="40" height="40" viewBox="0 0 40 40" fill="none" xmlns="http://www.w3.org/2000/svg">
<path d="M7.97031 29.7598C7.22788 29.7598 6.74658 30.1439 6.74658 30.9735C6.74658 31.373 6.85923 31.67 7.05379 31.8698C7.26884 32.0849 7.58117 32.1924 7.97031 32.1924C8.35944 32.1924 8.67177 32.09 8.88682 31.8698C9.08651 31.67 9.19403 31.373 9.19403 30.9735C9.19403 30.1439 8.71273 29.7598 7.97031 29.7598Z" fill="#86888C"/>
<path d="M7.97012 32.6989C7.43762 32.6989 6.99728 32.535 6.69007 32.2277C6.38286 31.9204 6.23438 31.5005 6.23438 30.973C6.23438 29.9077 6.9 29.2471 7.97012 29.2471C9.04024 29.2471 9.70586 29.9077 9.70586 30.973C9.70586 31.5005 9.55225 31.9204 9.25016 32.2277C8.94807 32.535 8.50262 32.6989 7.97012 32.6989ZM7.97012 30.2662C7.46322 30.2662 7.25841 30.4711 7.25841 30.9678C7.25841 31.2137 7.31473 31.3929 7.42226 31.5005C7.5605 31.6387 7.79603 31.6695 7.97524 31.6695C8.15444 31.6695 8.38997 31.6387 8.52822 31.5005C8.63574 31.3929 8.69206 31.2137 8.69206 30.9678C8.68182 30.4711 8.47702 30.2713 7.97012 30.2662ZM12.9828 29.7592C12.2403 29.7592 11.7591 30.1433 11.7591 30.973C11.7591 31.3724 11.8717 31.6695 12.0663 31.8692C12.2813 32.0843 12.5936 32.1918 12.9828 32.1918C13.3719 32.1918 13.6842 32.0894 13.8993 31.8692C14.099 31.6695 14.2065 31.3724 14.2065 30.973C14.2065 30.1433 13.7252 29.7592 12.9828 29.7592Z" fill="#86888C"/>
<path d="M12.9823 32.6994C12.4498 32.6994 12.0094 32.5355 11.7022 32.2282C11.395 31.921 11.2465 31.501 11.2465 30.9735C11.2465 29.9083 11.9122 29.2476 12.9823 29.2476C14.0524 29.2476 14.718 29.9083 14.718 30.9735C14.718 31.501 14.5644 31.921 14.2623 32.2282C13.9602 32.5355 13.5097 32.6994 12.9823 32.6994ZM12.9823 30.2668C12.4754 30.2668 12.2706 30.4716 12.2706 30.9684C12.2706 31.2142 12.3269 31.3935 12.4293 31.501C12.5675 31.6393 12.8031 31.67 12.9823 31.67C13.1615 31.67 13.397 31.6393 13.5353 31.501C13.6428 31.3935 13.694 31.2142 13.694 30.9684C13.694 30.4716 13.4841 30.2719 12.9823 30.2668ZM11.5026 25.0072C10.9393 25.0072 10.4785 24.5462 10.4785 23.9829V10.5445C10.4785 9.98112 10.9393 9.5202 11.5026 9.5202C12.0658 9.5202 12.5266 9.98112 12.5266 10.5445V23.9829C12.5266 24.5462 12.0709 25.0072 11.5026 25.0072ZM16.7815 16.5108C16.2182 16.5108 15.7574 16.0499 15.7574 15.4866C15.7574 15.21 15.8701 14.9437 16.0698 14.7542C16.9965 13.8529 17.4676 12.4394 17.4676 10.5496C17.4676 8.65982 16.9965 7.23096 16.0595 6.33473C15.6601 5.93526 15.6601 5.28485 16.0595 4.88539C16.4486 4.49617 17.0784 4.48592 17.4829 4.85978C18.8295 6.15036 19.5105 8.06574 19.5105 10.5445C19.5105 13.013 18.8295 14.9232 17.4932 16.224C17.3037 16.4033 17.0477 16.5108 16.7815 16.5108ZM20.893 19.0664C20.3297 19.0664 19.8689 18.6106 19.8638 18.0472C19.8638 17.7707 19.9765 17.4993 20.1761 17.3098C21.6866 15.8399 22.4546 13.5661 22.4546 10.5445C22.4546 7.51264 21.6815 5.23364 20.1608 3.76381C19.7512 3.36947 19.7409 2.72418 20.1352 2.31447C20.5294 1.90476 21.1746 1.89452 21.5842 2.28887C23.5247 4.15816 24.5078 6.93392 24.5078 10.5445C24.5078 14.1397 23.5299 16.9103 21.6047 18.7796C21.4152 18.964 21.1592 19.0664 20.893 19.0664Z" fill="#86888C"/>
<path d="M31.9838 37.9997H8.01621C6.0603 37.9997 4.54473 37.4517 3.50533 36.3762C2.5069 35.3366 2 33.8617 2 31.9821V29.4727C2 27.5931 2.5069 26.1182 3.50533 25.0785C4.54473 23.9979 6.0603 23.4551 8.01621 23.4551H31.9838C33.9397 23.4551 35.4553 24.0031 36.4947 25.0785C37.4931 26.1131 38 27.5931 38 29.4727V31.9821C38 33.8617 37.4931 35.3366 36.4947 36.3762C35.4553 37.4568 33.9346 37.9997 31.9838 37.9997ZM8.01621 25.5036C6.63889 25.5036 5.61997 25.8416 4.97995 26.5023C4.3604 27.1424 4.04807 28.1411 4.04807 29.4727V31.9821C4.04807 33.3137 4.3604 34.3123 4.97995 34.9525C5.61997 35.6132 6.63889 35.9512 8.01621 35.9512H31.9838C33.3611 35.9512 34.38 35.6132 35.0201 34.9525C35.6396 34.3123 35.9519 33.3137 35.9519 31.9821V29.4727C35.9519 28.1411 35.6396 27.1424 35.0201 26.5023C34.38 25.8416 33.3611 25.5036 31.9838 25.5036H8.01621Z" fill="#86888C"/>
</svg>
