<svg width="24" height="24" viewBox="0 0 24 24" fill="none" xmlns="http://www.w3.org/2000/svg">
<path d="M6.31705 18.4219C5.90459 18.4219 5.63721 18.6353 5.63721 19.0962C5.63721 19.3181 5.69979 19.4831 5.80788 19.5941C5.92735 19.7136 6.10087 19.7733 6.31705 19.7733C6.53324 19.7733 6.70676 19.7164 6.82623 19.5941C6.93716 19.4831 6.9969 19.3181 6.9969 19.0962C6.9969 18.6353 6.72951 18.4219 6.31705 18.4219Z" fill="#86888C"/>
<path d="M6.31684 20.0554C6.02101 20.0554 5.77638 19.9643 5.6057 19.7936C5.43503 19.6229 5.35254 19.3896 5.35254 19.0965C5.35254 18.5047 5.72233 18.1377 6.31684 18.1377C6.91135 18.1377 7.28114 18.5047 7.28114 19.0965C7.28114 19.3896 7.19581 19.6229 7.02798 19.7936C6.86015 19.9643 6.61267 20.0554 6.31684 20.0554ZM6.31684 18.7039C6.03523 18.7039 5.92145 18.8177 5.92145 19.0937C5.92145 19.2302 5.95274 19.3298 6.01247 19.3896C6.08928 19.4664 6.22013 19.4835 6.31968 19.4835C6.41924 19.4835 6.55009 19.4664 6.6269 19.3896C6.68663 19.3298 6.71792 19.2302 6.71792 19.0937C6.71223 18.8177 6.59845 18.7067 6.31684 18.7039ZM9.10165 18.4222C8.68919 18.4222 8.4218 18.6356 8.4218 19.0965C8.4218 19.3184 8.48438 19.4835 8.59248 19.5944C8.71195 19.7139 8.88547 19.7737 9.10165 19.7737C9.31784 19.7737 9.49135 19.7168 9.61082 19.5944C9.72176 19.4835 9.7815 19.3184 9.7815 19.0965C9.7815 18.6356 9.51411 18.4222 9.10165 18.4222Z" fill="#86888C"/>
<path d="M9.10143 20.0552C8.8056 20.0552 8.56097 19.9642 8.3903 19.7935C8.21962 19.6228 8.13713 19.3895 8.13713 19.0964C8.13713 18.5046 8.50692 18.1376 9.10143 18.1376C9.69594 18.1376 10.0657 18.5046 10.0657 19.0964C10.0657 19.3895 9.9804 19.6228 9.81257 19.7935C9.64474 19.9642 9.39442 20.0552 9.10143 20.0552ZM9.10143 18.7038C8.81982 18.7038 8.70604 18.8176 8.70604 19.0936C8.70604 19.2301 8.73733 19.3297 8.79422 19.3895C8.87102 19.4663 9.00187 19.4833 9.10143 19.4833C9.20099 19.4833 9.33184 19.4663 9.40864 19.3895C9.46838 19.3297 9.49682 19.2301 9.49682 19.0936C9.49682 18.8176 9.3802 18.7066 9.10143 18.7038ZM8.27936 15.7818C7.96646 15.7818 7.71045 15.5257 7.71045 15.2127V7.74693C7.71045 7.43396 7.96646 7.17789 8.27936 7.17789C8.59226 7.17789 8.84827 7.43396 8.84827 7.74693V15.2127C8.84827 15.5257 8.5951 15.7818 8.27936 15.7818ZM11.2121 11.0616C10.8992 11.0616 10.6432 10.8055 10.6432 10.4925C10.6432 10.3389 10.7058 10.1909 10.8167 10.0857C11.3316 9.58492 11.5933 8.79965 11.5933 7.74977C11.5933 6.6999 11.3316 5.90609 10.811 5.40818C10.5891 5.18626 10.5891 4.82492 10.811 4.60299C11.0272 4.38676 11.3771 4.38107 11.6018 4.58877C12.3499 5.30576 12.7282 6.36986 12.7282 7.74693C12.7282 9.11831 12.3499 10.1796 11.6075 10.9022C11.5022 11.0018 11.36 11.0616 11.2121 11.0616ZM13.4963 12.4813C13.1834 12.4813 12.9273 12.2281 12.9245 11.9151C12.9245 11.7615 12.9871 11.6107 13.098 11.5054C13.9372 10.6889 14.3638 9.42559 14.3638 7.74693C14.3638 6.06258 13.9343 4.79647 13.0895 3.9799C12.8619 3.76082 12.8562 3.40232 13.0753 3.17471C13.2943 2.94709 13.6527 2.9414 13.8803 3.16048C14.9584 4.19898 15.5045 5.74107 15.5045 7.74693C15.5045 9.74425 14.9612 11.2835 13.8916 12.322C13.7864 12.4244 13.6442 12.4813 13.4963 12.4813Z" fill="#86888C"/>
<path d="M19.6577 23.0003H6.34234C5.25572 23.0003 4.41374 22.6958 3.8363 22.0983C3.28161 21.5208 3 20.7014 3 19.6572V18.263C3 17.2188 3.28161 16.3994 3.8363 15.8218C4.41374 15.2215 5.25572 14.9199 6.34234 14.9199H19.6577C20.7443 14.9199 21.5863 15.2244 22.1637 15.8218C22.7184 16.3966 23 17.2188 23 18.263V19.6572C23 20.7014 22.7184 21.5208 22.1637 22.0983C21.5863 22.6987 20.7414 23.0003 19.6577 23.0003ZM6.34234 16.058C5.57716 16.058 5.01109 16.2458 4.65553 16.6128C4.31134 16.9685 4.13782 17.5233 4.13782 18.263V19.6572C4.13782 20.3969 4.31134 20.9517 4.65553 21.3074C5.01109 21.6744 5.57716 21.8622 6.34234 21.8622H19.6577C20.4228 21.8622 20.9889 21.6744 21.3445 21.3074C21.6887 20.9517 21.8622 20.3969 21.8622 19.6572V18.263C21.8622 17.5233 21.6887 16.9685 21.3445 16.6128C20.9889 16.2458 20.4228 16.058 19.6577 16.058H6.34234Z" fill="#86888C"/>
</svg>
