<svg width="20" height="20" viewBox="0 0 20 20" fill="none" xmlns="http://www.w3.org/2000/svg">
<path d="M4.65325 14.3379C4.32328 14.3379 4.10938 14.5086 4.10938 14.8773C4.10938 15.0549 4.15944 15.1869 4.24591 15.2757C4.34149 15.3713 4.4803 15.4191 4.65325 15.4191C4.8262 15.4191 4.96501 15.3735 5.06059 15.2757C5.14934 15.1869 5.19713 15.0549 5.19713 14.8773C5.19713 14.5086 4.98322 14.3379 4.65325 14.3379Z" fill="#86888C"/>
<path d="M4.65328 15.6445C4.41661 15.6445 4.22091 15.5716 4.08437 15.4351C3.94783 15.2985 3.88184 15.1119 3.88184 14.8774C3.88184 14.404 4.17767 14.1104 4.65328 14.1104C5.12888 14.1104 5.42472 14.404 5.42472 14.8774C5.42472 15.1119 5.35645 15.2985 5.22219 15.4351C5.08792 15.5716 4.88994 15.6445 4.65328 15.6445ZM4.65328 14.5633C4.42799 14.5633 4.33696 14.6544 4.33696 14.8751C4.33696 14.9844 4.362 15.0641 4.40978 15.1119C4.47123 15.1733 4.57591 15.187 4.65555 15.187C4.7352 15.187 4.83988 15.1733 4.90132 15.1119C4.94911 15.0641 4.97414 14.9844 4.97414 14.8751C4.96959 14.6544 4.87856 14.5656 4.65328 14.5633ZM6.88112 14.338C6.55116 14.338 6.33725 14.5087 6.33725 14.8774C6.33725 15.055 6.38731 15.187 6.47379 15.2757C6.56936 15.3713 6.70818 15.4191 6.88112 15.4191C7.05407 15.4191 7.19289 15.3736 7.28846 15.2757C7.37721 15.187 7.425 15.055 7.425 14.8774C7.425 14.5087 7.21109 14.338 6.88112 14.338Z" fill="#86888C"/>
<path d="M6.88134 15.6442C6.64467 15.6442 6.44897 15.5713 6.31243 15.4348C6.17589 15.2982 6.1099 15.1116 6.1099 14.8771C6.1099 14.4037 6.40573 14.1101 6.88134 14.1101C7.35695 14.1101 7.65278 14.4037 7.65278 14.8771C7.65278 15.1116 7.58451 15.2982 7.45025 15.4348C7.31599 15.5713 7.11573 15.6442 6.88134 15.6442ZM6.88134 14.563C6.65605 14.563 6.56503 14.6541 6.56503 14.8748C6.56503 14.9841 6.59006 15.0638 6.63557 15.1116C6.69701 15.173 6.80169 15.1867 6.88134 15.1867C6.96099 15.1867 7.06567 15.173 7.12711 15.1116C7.1749 15.0638 7.19765 14.9841 7.19765 14.8748C7.19765 14.6541 7.10435 14.5653 6.88134 14.563ZM6.22368 12.2254C5.97336 12.2254 5.76855 12.0205 5.76855 11.7702V5.79754C5.76855 5.54717 5.97336 5.34231 6.22368 5.34231C6.474 5.34231 6.67881 5.54717 6.67881 5.79754V11.7702C6.67881 12.0205 6.47628 12.2254 6.22368 12.2254ZM8.56986 8.44926C8.31954 8.44926 8.11474 8.24441 8.11474 7.99403C8.11474 7.87112 8.1648 7.75276 8.25355 7.66854C8.66544 7.26794 8.8748 6.63972 8.8748 5.79982C8.8748 4.95992 8.66544 4.32487 8.249 3.92655C8.0715 3.74901 8.0715 3.45993 8.249 3.28239C8.42195 3.10941 8.70185 3.10485 8.88163 3.27101C9.48012 3.8446 9.78278 4.69589 9.78278 5.79754C9.78278 6.89465 9.48012 7.74365 8.88618 8.3218C8.80198 8.40146 8.6882 8.44926 8.56986 8.44926ZM10.3972 9.58506C10.1469 9.58506 9.94207 9.38248 9.9398 9.13211C9.9398 9.00919 9.98986 8.88856 10.0786 8.80434C10.7499 8.15109 11.0913 7.14047 11.0913 5.79754C11.0913 4.45006 10.7476 3.43717 10.0718 2.78392C9.88973 2.60865 9.88518 2.32186 10.0604 2.13977C10.2356 1.95767 10.5224 1.95312 10.7044 2.12838C11.5669 2.95918 12.0038 4.19286 12.0038 5.79754C12.0038 7.3954 11.5692 8.6268 10.7135 9.4576C10.6293 9.53954 10.5155 9.58506 10.3972 9.58506Z" fill="#86888C"/>
<path d="M15.3261 18.0004H4.67387C3.80458 18.0004 3.13099 17.7569 2.66904 17.2789C2.22529 16.8168 2 16.1613 2 15.3259V14.2106C2 13.3753 2.22529 12.7197 2.66904 12.2577C3.13099 11.7774 3.80458 11.5361 4.67387 11.5361H15.3261C16.1954 11.5361 16.869 11.7797 17.331 12.2577C17.7747 12.7175 18 13.3753 18 14.2106V15.3259C18 16.1613 17.7747 16.8168 17.331 17.2789C16.869 17.7591 16.1931 18.0004 15.3261 18.0004ZM4.67387 12.4466C4.06173 12.4466 3.60888 12.5968 3.32442 12.8904C3.04907 13.175 2.91025 13.6188 2.91025 14.2106V15.3259C2.91025 15.9177 3.04907 16.3616 3.32442 16.6461C3.60888 16.9397 4.06173 17.0899 4.67387 17.0899H15.3261C15.9383 17.0899 16.3911 16.9397 16.6756 16.6461C16.9509 16.3616 17.0897 15.9177 17.0897 15.3259V14.2106C17.0897 13.6188 16.9509 13.175 16.6756 12.8904C16.3911 12.5968 15.9383 12.4466 15.3261 12.4466H4.67387Z" fill="#86888C"/>
</svg>
