<svg width="40" height="40" viewBox="0 0 40 40" fill="none" xmlns="http://www.w3.org/2000/svg">
<path fill-rule="evenodd" clip-rule="evenodd" d="M35.5733 29.945C35.7372 29.7811 35.7372 29.5096 35.5733 29.3406L29.6313 23.3986L27.2187 25.7754C26.7628 26.2211 26.0354 26.2108 25.5898 25.76C25.1441 25.3093 25.1544 24.5768 25.6052 24.1363L28.0075 21.7748L25.8561 19.6235L22.0758 23.3935C21.6302 23.8443 20.9028 23.8443 20.4572 23.3986L20.452 23.3935C20.0013 22.9427 20.0013 22.2154 20.452 21.7646L24.2272 17.9894L22.0707 15.838L19.9552 17.9177C19.5044 18.3633 18.7822 18.3582 18.3365 17.9126L18.3314 17.9075C17.8857 17.4567 17.8909 16.7293 18.3468 16.2837L20.4469 14.2142L18.2955 12.0628L14.0798 16.2837C13.6342 16.7344 12.9119 16.7344 12.4612 16.2888L12.456 16.2837C12.0053 15.8329 12.0053 15.1055 12.456 14.6548L16.6717 10.4339L14.5203 8.28253L12.5431 10.2188C12.0923 10.6644 11.365 10.6593 10.9244 10.2085L10.9193 10.2034C10.4737 9.75265 10.4788 9.02015 10.9347 8.5745L12.8863 6.65362L10.7247 4.4971C10.5556 4.33318 10.2893 4.33318 10.1254 4.4971L4.41904 10.2034C4.25512 10.3673 4.25512 10.6388 4.41904 10.8027L29.2676 35.6462C29.4316 35.8101 29.7082 35.8101 29.867 35.6462C29.867 35.6513 35.5733 29.945 35.5733 29.945ZM37.1971 27.7168C38.2574 28.7822 38.2574 30.5085 37.1971 31.5739L31.4959 37.2751C30.9631 37.8079 30.2665 38.0742 29.5699 38.0742C28.8732 38.0742 28.1766 37.8079 27.6387 37.2751L2.79525 12.4316C1.73492 11.3662 1.73492 9.63996 2.79525 8.5745L8.49644 2.87331C9.5619 1.80786 11.2881 1.80786 12.3536 2.87331L37.1971 27.7168ZM30.5431 30.1807C30.748 29.8272 30.6302 29.3713 30.2767 29.1613C30.2767 29.1613 30.2716 29.1613 30.2716 29.1562C29.9131 28.9462 29.4572 29.0691 29.2472 29.4277C29.0371 29.7862 29.1601 30.2421 29.5186 30.4521C29.6928 30.5546 29.9028 30.5802 30.0975 30.529C30.2819 30.4777 30.4458 30.3548 30.5431 30.1807ZM31.04 27.8295C32.131 28.4544 32.505 29.8375 31.8852 30.9285C31.8801 30.9336 31.8801 30.9388 31.8749 30.949C31.25 32.0401 29.8567 32.4191 28.7656 31.7891C28.7605 31.7891 28.7605 31.784 28.7554 31.784C27.6643 31.1539 27.2904 29.7555 27.9205 28.6644C28.2278 28.1368 28.7196 27.7578 29.3086 27.599C29.8977 27.4453 30.5124 27.5221 31.04 27.8295Z" fill="#86888C"/>
</svg>
