<svg width="24" height="24" viewBox="0 0 24 24" fill="none" xmlns="http://www.w3.org/2000/svg">
<path fill-rule="evenodd" clip-rule="evenodd" d="M20.6518 17.558C20.7429 17.4669 20.7429 17.3161 20.6518 17.2222L17.3507 13.9211L16.0104 15.2416C15.7571 15.4891 15.353 15.4834 15.1054 15.233C14.8579 14.9826 14.8635 14.5756 15.114 14.3309L16.4486 13.019L15.2534 11.8238L13.1532 13.9183C12.9057 14.1687 12.5016 14.1687 12.254 13.9211L12.2511 13.9183C12.0007 13.6678 12.0007 13.2637 12.2511 13.0133L14.3485 10.916L13.1504 9.72078L11.9751 10.8762C11.7247 11.1237 11.3234 11.1209 11.0758 10.8733L11.073 10.8705C10.8254 10.62 10.8283 10.2159 11.0815 9.96836L12.2483 8.81867L11.0531 7.62345L8.71101 9.96836C8.46343 10.2188 8.06218 10.2188 7.81175 9.9712L7.80891 9.96836C7.55848 9.71793 7.55848 9.31383 7.80891 9.06341L10.151 6.7185L8.95575 5.52328L7.85729 6.59898C7.60686 6.84656 7.20276 6.84371 6.95803 6.59329L6.95518 6.59044C6.7076 6.34001 6.71044 5.93307 6.96372 5.68549L8.04795 4.61833L6.84704 3.42026C6.75313 3.3292 6.60515 3.3292 6.51409 3.42026L3.34391 6.59044C3.25285 6.6815 3.25285 6.83233 3.34391 6.92339L17.1487 20.7253C17.2398 20.8164 17.3934 20.8164 17.4816 20.7253C17.4816 20.7282 20.6518 17.558 20.6518 17.558ZM21.5539 16.3201C22.143 16.912 22.143 17.871 21.5539 18.4629L18.3866 21.6303C18.0906 21.9262 17.7036 22.0742 17.3166 22.0742C16.9296 22.0742 16.5425 21.9262 16.2437 21.6303L2.4418 7.82835C1.85273 7.23643 1.85273 6.27741 2.4418 5.68549L5.60914 2.51816C6.20105 1.92624 7.16007 1.92624 7.75199 2.51816L21.5539 16.3201ZM17.8573 17.6889C17.9711 17.4925 17.9057 17.2393 17.7093 17.1226C17.7093 17.1226 17.7065 17.1226 17.7065 17.1198C17.5073 17.0031 17.254 17.0714 17.1373 17.2706C17.0206 17.4698 17.0889 17.7231 17.2881 17.8397C17.3849 17.8966 17.5016 17.9109 17.6097 17.8824C17.7122 17.854 17.8032 17.7857 17.8573 17.6889ZM18.1333 16.3827C18.7395 16.7299 18.9472 17.4982 18.6029 18.1044C18.6 18.1072 18.6 18.1101 18.5972 18.1158C18.25 18.7219 17.476 18.9325 16.8698 18.5825C16.867 18.5825 16.867 18.5796 16.8641 18.5796C16.258 18.2296 16.0502 17.4527 16.4003 16.8466C16.571 16.5534 16.8442 16.3429 17.1715 16.2546C17.4987 16.1693 17.8402 16.212 18.1333 16.3827Z" fill="#86888C"/>
</svg>
