<svg width="40" height="40" viewBox="0 0 40 40" fill="none" xmlns="http://www.w3.org/2000/svg">
<path fill-rule="evenodd" clip-rule="evenodd" d="M21.1588 23.8736C27.9511 23.9454 31.9363 28.2891 32.1053 28.4735C32.5202 28.9397 32.4843 29.6466 32.0233 30.0615C31.8082 30.2561 31.5367 30.3483 31.2703 30.3483C30.963 30.3483 30.6608 30.2254 30.4354 29.9795C30.3995 29.9437 26.9112 26.1838 21.1024 26.1224C21.0102 26.1326 15.1298 25.938 11.58 29.9078C11.1651 30.3739 10.4582 30.4098 9.99203 30C9.53102 29.5851 9.49004 28.8731 9.89983 28.4121C14.1668 23.6278 20.8771 23.8634 21.1588 23.8736ZM20.9949 36.7513C31.5931 36.7513 36.7513 31.5982 36.7513 21.0051C36.7513 10.4069 31.5982 5.24872 20.9949 5.24872C10.4018 5.24872 5.24872 10.4018 5.24872 21.0051C5.24872 31.5982 10.4018 36.7513 20.9949 36.7513ZM20.9949 3C32.3665 3 39 8.74217 39 21.0051C39 33.2681 32.3665 39 20.9949 39C9.62322 39 3 33.2681 3 21.0051C3 8.74217 9.62322 3 20.9949 3ZM15.5396 18.3466C14.889 18.3466 14.346 18.1417 13.967 17.7575C13.5931 17.3785 13.4087 16.856 13.4087 16.2106C13.4087 14.889 14.2282 14.0694 15.5396 14.0694C16.856 14.0694 17.6705 14.889 17.6705 16.2106C17.6705 16.856 17.4809 17.3785 17.1121 17.7575C16.7331 18.1417 16.1901 18.3466 15.5396 18.3466ZM26.4604 18.3466C25.8099 18.3466 25.2669 18.1417 24.8879 17.7575C24.5139 17.3734 24.3295 16.8509 24.3295 16.2106C24.3295 14.889 25.1491 14.0694 26.4604 14.0694C27.7769 14.0694 28.5913 14.889 28.5913 16.2106C28.5913 16.856 28.4018 17.3785 28.0279 17.7575C27.654 18.1417 27.111 18.3466 26.4604 18.3466Z" fill="#86888C"/>
</svg>
