<svg width="20" height="20" viewBox="0 0 20 20" fill="none" xmlns="http://www.w3.org/2000/svg">
<path fill-rule="evenodd" clip-rule="evenodd" d="M12.3654 16.7228L11.8987 14.469C12.8708 14.1366 13.9522 13.4331 14.4644 11.9602L16.7046 12.4223C15.9898 15.1611 14.0592 16.2834 12.3654 16.7228ZM10.3483 16.996C10.2072 16.9983 10.0478 17.0006 9.88389 17.0006C9.80421 17.0006 9.72453 17.0006 9.64713 16.9983C9.35344 16.9937 8.99829 16.971 8.61355 16.9209L9.07114 14.7103C9.36255 14.7513 9.61298 14.7672 9.77917 14.7695C9.82698 14.7718 9.87934 14.7718 9.92943 14.7718C10.0296 14.7718 10.1298 14.7695 10.2163 14.7695C10.3779 14.7672 10.6261 14.7513 10.9243 14.708L11.3796 16.9163C10.9972 16.9641 10.642 16.9892 10.3483 16.996ZM3.29994 12.4223L5.5424 11.9602C6.02049 13.3398 6.98805 14.0546 7.90552 14.4098C7.97154 14.4348 8.03529 14.4508 8.10131 14.4735L7.6346 16.7319C5.94308 16.2948 4.01935 15.1725 3.29994 12.4223ZM2.99943 9.97496C2.99943 9.5037 3.03358 9.07342 3.08367 8.66136L5.28515 9.11668C5.251 9.38759 5.23051 9.67445 5.23051 9.98634C5.23051 10.3483 5.25783 10.6807 5.30108 10.9903L3.10643 11.4434C3.04496 10.9858 2.99943 10.5077 2.99943 9.97496ZM7.60729 3.24986L8.07399 5.51281C7.08139 5.84747 5.98634 6.57598 5.49459 8.13546L3.25896 7.67331C3.94195 4.81616 5.89983 3.68014 7.60729 3.24986ZM9.58566 3.00171L9.72908 2.99943C9.92715 2.99943 10.132 3.00398 10.3096 3.00854C10.6192 3.01764 10.9949 3.04496 11.4024 3.10415L10.9471 5.30563C10.6329 5.25555 10.3711 5.23961 10.2003 5.23506C10.0888 5.23278 9.9613 5.23051 9.83836 5.23051H9.74957C9.58566 5.23278 9.33978 5.24417 9.05066 5.28515L8.59306 3.07001C8.96187 3.0222 9.30108 3.00398 9.58566 3.00171ZM10.1981 13.7678C10.1184 13.7701 10.025 13.7701 9.9317 13.7701L9.79511 13.7678C9.55379 13.7655 8.91861 13.7291 8.26523 13.4764C6.89471 12.9459 6.22994 11.8031 6.22994 9.98179C6.22994 6.74217 8.43825 6.23904 9.7564 6.22766H9.83608C9.95219 6.22766 10.0706 6.22994 10.1753 6.23221C13.4195 6.30962 13.7701 8.9004 13.7701 10.0114C13.7701 11.1224 13.4217 13.7109 10.1981 13.7678ZM16.7205 7.68014L14.4872 8.14001C13.9886 6.62834 12.9027 5.89755 11.9146 5.55151L12.3791 3.3045C14.0888 3.76437 16.0194 4.91406 16.7205 7.68014ZM17.0006 10.0205C17.0006 10.535 16.9596 10.9994 16.8981 11.4411L14.6966 10.988C14.7422 10.6853 14.7718 10.3665 14.7718 10.0137C14.7718 9.69038 14.7467 9.3967 14.7103 9.11668L16.9072 8.66363C16.9619 9.08708 17.0006 9.53102 17.0006 10.0205ZM10.3347 2.00911C10.1503 2.00455 9.93398 2 9.72908 2C9.67672 2 9.62664 2 9.57655 2.00228C7.97154 2.01594 2 2.56688 2 9.97496C2 17.3944 8.02846 17.975 9.63347 17.9977C9.71542 18 9.79966 18 9.88389 18C10.0524 18 10.2186 17.9977 10.3665 17.9954C11.8941 17.9681 18 17.3944 18 10.0205C18 2.66477 11.901 2.04553 10.3347 2.00911Z" fill="#86888C"/>
</svg>
