<svg width="40" height="40" viewBox="0 0 40 40" fill="none" xmlns="http://www.w3.org/2000/svg">
<path fill-rule="evenodd" clip-rule="evenodd" d="M25.3221 35.1264L24.2721 30.0552C26.4593 29.3073 28.8924 27.7245 30.045 24.4104L35.0854 25.4502C33.4769 31.6124 29.1332 34.1377 25.3221 35.1264ZM20.7837 35.741C20.4661 35.7462 20.1076 35.7513 19.7388 35.7513C19.5595 35.7513 19.3802 35.7513 19.206 35.7462C18.5452 35.7359 17.7462 35.6847 16.8805 35.572L17.9101 30.5982C18.5657 30.6904 19.1292 30.7262 19.5031 30.7314C19.6107 30.7365 19.7285 30.7365 19.8412 30.7365C20.0666 30.7365 20.292 30.7314 20.4866 30.7314C20.8503 30.7262 21.4087 30.6904 22.0797 30.5931L23.1042 35.5618C22.2436 35.6693 21.4445 35.7257 20.7837 35.741ZM4.92487 25.4502L9.9704 24.4104C11.0461 27.5145 13.2231 29.1229 15.2874 29.922C15.436 29.9784 15.5794 30.0142 15.7279 30.0655L14.6779 35.1468C10.8719 34.1633 6.54354 31.638 4.92487 25.4502ZM4.24872 19.9437C4.24872 18.8833 4.32555 17.9152 4.43825 16.988L9.39158 18.0125C9.31474 18.6221 9.26864 19.2675 9.26864 19.9693C9.26864 20.7837 9.33011 21.5316 9.42743 22.2282L4.48947 23.2476C4.35117 22.218 4.24872 21.1423 4.24872 19.9437ZM14.6164 4.81218L15.6665 9.90381C13.4331 10.6568 10.9693 12.296 9.86283 15.8048L4.83267 14.7649C6.36938 8.33637 10.7746 5.78031 14.6164 4.81218ZM19.0677 4.25384L19.3904 4.24872C19.8361 4.24872 20.2971 4.25896 20.6966 4.26921C21.3933 4.2897 22.2385 4.35117 23.1554 4.48435L22.1309 9.43768C21.424 9.32499 20.8349 9.28913 20.4508 9.27888C20.1998 9.27376 19.9129 9.26864 19.6363 9.26864H19.4365C19.0677 9.27376 18.5145 9.29937 17.864 9.39158L16.8344 4.40751C17.6642 4.29994 18.4274 4.25896 19.0677 4.25384ZM20.4456 28.4775C20.2664 28.4826 20.0563 28.4826 19.8463 28.4826L19.539 28.4775C18.996 28.4724 17.5669 28.3904 16.0968 27.8219C13.0131 26.6283 11.5174 24.0569 11.5174 19.959C11.5174 12.6699 16.4861 11.5378 19.4519 11.5122H19.6312C19.8924 11.5122 20.1588 11.5174 20.3944 11.5225C27.6938 11.6966 28.4826 17.5259 28.4826 20.0256C28.4826 22.5253 27.6989 28.3495 20.4456 28.4775ZM35.1212 14.7803L30.0962 15.815C28.9744 12.4138 26.531 10.7695 24.3079 9.99089L25.3529 4.93512C29.1998 5.96984 33.5435 8.55663 35.1212 14.7803ZM35.7513 20.0461C35.7513 21.2038 35.6591 22.2487 35.5208 23.2425L30.5674 22.2231C30.6699 21.5418 30.7365 20.8247 30.7365 20.0307C30.7365 19.3034 30.6801 18.6426 30.5982 18.0125L35.5413 16.9932C35.6642 17.9459 35.7513 18.9448 35.7513 20.0461ZM20.753 2.02049C20.3381 2.01024 19.8515 2 19.3904 2C19.2726 2 19.1599 2 19.0472 2.00512C15.436 2.03586 2 3.27547 2 19.9437C2 36.6374 15.564 37.9437 19.1753 37.9949C19.3597 38 19.5492 38 19.7388 38C20.1178 38 20.4917 37.9949 20.8247 37.9898C24.2618 37.9283 38 36.6374 38 20.0461C38 3.49573 24.2772 2.10245 20.753 2.02049Z" fill="#86888C"/>
</svg>
