<svg width="40" height="40" viewBox="0 0 40 40" fill="none" xmlns="http://www.w3.org/2000/svg">
<path fill-rule="evenodd" clip-rule="evenodd" d="M2 16.2218C2 24.1659 8.43948 30.6053 16.3836 30.6053C19.8563 30.6147 23.2015 29.3563 25.8033 27.0895L36.2463 37.5326C36.4363 37.7277 36.6982 37.8355 36.9704 37.8355C37.2426 37.8355 37.4993 37.7277 37.6996 37.5326C38.1001 37.132 38.1001 36.4799 37.6996 36.0793L27.243 25.6227C31.9426 20.0275 31.712 11.7053 26.5512 6.3777C21.0257 0.672541 11.9211 0.523622 6.21083 6.04905C3.51487 8.75014 2 12.4064 2 16.2218ZM4.05406 16.2218C4.05406 9.41257 9.57435 3.89228 16.3836 3.89228C19.6547 3.88201 22.7922 5.18121 25.1031 7.50743C29.8736 12.3139 29.8736 20.068 25.1031 24.8745C20.3068 29.7067 12.4963 29.7375 7.66407 24.9413C5.35325 22.6253 4.05406 19.4929 4.05406 16.2218Z" fill="#86888C"/>
</svg>
