<svg width="28" height="28" viewBox="0 0 28 28" fill="none" xmlns="http://www.w3.org/2000/svg">
<path fill-rule="evenodd" clip-rule="evenodd" d="M23.0186 17.988C23.4625 15.3859 23.5342 9.75811 23.5445 7.65111C21.4955 7.75014 20.2115 6.90324 18.9719 6.07342C17.7425 5.25043 16.5815 4.47183 14.5018 4.46841H14.4949C12.4153 4.46841 11.2542 5.24701 10.0214 6.07342C8.78522 6.89983 7.51487 7.74673 5.45226 7.65111C5.46251 9.75811 5.53422 15.3859 5.98499 17.988C6.48698 20.8976 12.0294 24.2168 14.4984 25.4496C16.9708 24.2168 22.52 20.8907 23.0186 17.988ZM24.9992 6.82812C24.9992 7.15595 25.0231 14.8941 24.4528 18.2408C23.6947 22.6426 15.1745 26.7575 14.8125 26.9317C14.7135 26.9795 14.6076 27 14.5018 27C14.3959 27 14.2901 26.9761 14.191 26.9283C13.829 26.7575 5.31567 22.6392 4.55756 18.2408C3.97702 14.8941 3.99751 7.15595 4.00093 6.82812C4.00093 6.60273 4.10679 6.39101 4.28095 6.251C4.45852 6.11098 4.68732 6.06659 4.90246 6.11781C6.86945 6.42857 7.90758 5.72851 9.22233 4.84747C10.5166 3.98008 11.9816 3 14.4984 3H14.5086C17.0254 3.00341 18.487 3.98349 19.7812 4.85088C21.096 5.73193 22.1375 6.42857 24.1284 6.11781C24.3367 6.08367 24.5689 6.14172 24.7294 6.28173C24.8865 6.41491 24.9958 6.61639 24.9992 6.82812ZM12.685 17.2948L18.7602 11.148C19.0436 10.8611 19.5046 10.8611 19.7881 11.148C20.0715 11.4348 20.0715 11.8993 19.7881 12.1861L13.2007 18.852C13.0641 18.9886 12.8797 19.0672 12.6885 19.0672C12.4972 19.0672 12.3094 18.9886 12.1762 18.852L9.21891 15.8571C8.93547 15.5703 8.93547 15.1059 9.21891 14.819C9.50235 14.5322 9.96336 14.5322 10.2468 14.819L12.685 17.2948Z" fill="#86888C"/>
</svg>
