<svg width="40" height="40" viewBox="0 0 40 40" fill="none" xmlns="http://www.w3.org/2000/svg">
<path fill-rule="evenodd" clip-rule="evenodd" d="M33.5279 25.4821C34.1938 21.5788 34.3013 13.1372 34.3167 9.97666C31.2433 10.1252 29.3173 8.85487 27.4578 7.61013C25.6138 6.37564 23.8722 5.20774 20.7527 5.20262H20.7424C17.6229 5.20262 15.8813 6.37052 14.0321 7.61013C12.1778 8.84974 10.2723 10.1201 7.17839 9.97666C7.19376 13.1372 7.30133 21.5788 7.97748 25.4821C8.73047 29.8463 17.0441 34.8253 20.7475 36.6744C24.4561 34.8253 32.78 29.8361 33.5279 25.4821ZM36.4988 8.74217C36.4988 9.23392 36.5347 20.8412 35.6792 25.8611C34.5421 32.4639 21.7618 38.6363 21.2188 38.8976C21.0703 38.9693 20.9115 39 20.7527 39C20.5939 39 20.4351 38.9641 20.2865 38.8924C19.7436 38.6363 6.9735 32.4587 5.83633 25.8611C4.96553 20.8412 4.99627 9.23392 5.00139 8.74217C5.00139 8.4041 5.16018 8.08651 5.42142 7.87649C5.68779 7.66648 6.03098 7.59989 6.35369 7.67672C9.30418 8.14286 10.8614 7.09277 12.8335 5.7712C14.7749 4.47012 16.9724 3 20.7475 3H20.7629C24.5381 3.00512 26.7305 4.47524 28.6719 5.77632C30.644 7.09789 32.2063 8.14286 35.1926 7.67672C35.5051 7.6255 35.8534 7.71258 36.0942 7.9226C36.3298 8.12237 36.4937 8.42459 36.4988 8.74217ZM18.0276 24.4422L27.1403 15.222C27.5654 14.7917 28.2569 14.7917 28.6821 15.222C29.1073 15.6522 29.1073 16.3489 28.6821 16.7792L18.801 26.778C18.5962 26.9829 18.3195 27.1007 18.0327 27.1007C17.7458 27.1007 17.4641 26.9829 17.2643 26.778L12.8284 22.2857C12.4032 21.8554 12.4032 21.1588 12.8284 20.7285C13.2535 20.2982 13.945 20.2982 14.3702 20.7285L18.0276 24.4422Z" fill="#86888C"/>
</svg>
