<svg width="20" height="20" viewBox="0 0 20 20" fill="none" xmlns="http://www.w3.org/2000/svg">
<path fill-rule="evenodd" clip-rule="evenodd" d="M10.498 16.6908V10.2789H15.8533C15.8055 10.9347 15.7463 11.5335 15.6689 11.9889C15.3661 13.7444 12.2899 15.7276 10.498 16.6908ZM4.34573 11.9889C4.26603 11.5335 4.20456 10.9347 4.15674 10.2789H9.50981V16.6908C7.72014 15.7276 4.64856 13.7444 4.34573 11.9889ZM7.03023 4.06518C7.74519 3.58474 8.42599 3.12936 9.51208 3.02234V9.27935H4.09754C4.01557 7.68094 3.99736 5.97325 3.99053 5.11712C5.35441 5.1877 6.20826 4.61619 7.03023 4.06518ZM16.0173 5.11712C16.0127 5.97325 15.9945 7.68094 15.9125 9.27935H10.498V3.02234C11.5818 3.12936 12.2626 3.58702 12.9799 4.06518C13.7995 4.61619 14.6466 5.18998 16.0173 5.11712ZM17.0055 4.55927C17.0055 4.41355 16.9281 4.27921 16.8188 4.18585C16.7095 4.0925 16.5501 4.05152 16.4089 4.07428C15.0906 4.28149 14.3961 3.81927 13.5218 3.23182C12.6611 2.65348 11.6843 2 10.0062 2H9.99935C8.32125 2 7.34445 2.65348 6.48149 3.23182C5.60715 3.81927 4.91724 4.28149 3.61483 4.07656C3.46911 4.04013 3.312 4.07201 3.19132 4.16536C3.07292 4.26099 3.00234 4.40444 3.00006 4.55699C3.00006 4.77558 2.9864 9.93055 3.3712 12.1574C3.86757 15.0445 9.18421 17.663 9.78987 17.9522C9.79215 17.9545 9.79442 17.9522 9.7967 17.9545C9.85818 17.9841 9.92649 18 9.99935 18C10.0699 18 10.1382 17.9818 10.1997 17.9545C10.202 17.9522 10.2065 17.9545 10.2088 17.9522C10.8145 17.663 16.138 15.0445 16.6343 12.1574C17.0191 9.93055 17.0055 4.77786 17.0055 4.55927Z" fill="#86888C"/>
</svg>
