<svg width="24" height="24" viewBox="0 0 24 24" fill="none" xmlns="http://www.w3.org/2000/svg">
<path fill-rule="evenodd" clip-rule="evenodd" d="M18.8253 14.4843C19.1924 12.3244 19.2551 7.66306 19.2607 5.89869C17.559 5.98122 16.4918 5.27262 15.4617 4.58395C14.44 3.89812 13.4753 3.25213 11.7479 3.24929H11.7422C10.0149 3.24929 9.05016 3.89528 8.02569 4.58395C6.99837 5.27262 5.94828 5.99545 4.22944 5.89869C4.23798 7.66306 4.30059 12.3273 4.67338 14.4843C5.08886 16.8947 9.68761 19.6579 11.7451 20.6853C13.8054 19.6551 18.4127 16.8947 18.8253 14.4843ZM20.4987 5.19863C20.4987 5.47183 20.5186 11.9118 20.0433 14.6978C19.423 18.3062 12.7696 21.5788 12.0126 21.9402C11.9301 21.9801 11.839 22 11.7508 22C11.6597 22 11.5715 21.9801 11.4861 21.9402C10.7292 21.5788 4.08431 18.3062 3.46393 14.6978C2.983 11.9118 3.00008 5.47183 3.00008 5.19863C3.00008 5.00797 3.08829 4.82584 3.23912 4.70916C3.38994 4.59249 3.58346 4.5498 3.76843 4.59533C5.4019 4.85714 6.26132 4.27376 7.35409 3.53956C8.42978 2.81673 9.65346 2 11.7508 2H11.7565C13.8538 2.00285 15.0746 2.81958 16.1503 3.5424C17.2431 4.27376 18.1082 4.8543 19.7588 4.59249C19.9352 4.56403 20.1315 4.61241 20.271 4.73193C20.4019 4.84861 20.4958 5.01651 20.4987 5.19863ZM11.7479 15.0051C13.3359 15.0051 13.7684 14.4132 13.7684 12.2504C13.7684 10.8958 13.5778 10.1702 13.1253 9.82584C12.8322 9.60387 12.3825 9.49573 11.7451 9.49573C11.1048 9.49573 10.6495 9.60672 10.3592 9.83153C9.91527 10.1759 9.72461 10.8987 9.72461 12.2504C9.72745 14.4132 10.16 15.0051 11.7479 15.0051ZM11.7508 7.85088C10.3962 7.85088 10.3962 8.12977 10.3962 8.51679C10.3962 8.52248 10.399 8.52817 10.399 8.53386C10.7832 8.40296 11.2243 8.33466 11.7479 8.33466C12.2773 8.33466 12.7212 8.40581 13.1054 8.53671C13.1054 8.52817 13.1082 8.52533 13.1082 8.51679C13.1054 8.12977 13.1054 7.85088 11.7508 7.85088ZM14.6648 7.85373C14.6478 7.53216 14.8897 7.25896 15.2084 7.24189C15.5328 7.24474 15.7975 7.46955 15.8145 7.79397L15.88 9.04041C15.8942 9.30791 15.7263 9.5498 15.473 9.62948L14.5709 9.90837C14.7445 10.3238 14.8356 10.7934 14.8811 11.2715H15.5726C15.8914 11.2715 16.1503 11.5333 16.1503 11.8549V12.683C16.1503 13.0046 15.8914 13.2664 15.5726 13.2664C15.2539 13.2664 14.9978 13.0046 14.9978 12.683V12.4382H14.9181C14.9124 13.0302 14.8669 13.605 14.7303 14.1201L15.473 14.3478C15.7263 14.4274 15.8942 14.6693 15.88 14.9368L15.8145 16.1833C15.7975 16.4935 15.5442 16.7353 15.2397 16.7353H15.2084C14.8897 16.7183 14.6478 16.4451 14.6648 16.1235L14.7075 15.3324L14.2351 15.1873C13.7713 15.7934 13.0029 16.1776 11.7479 16.1776C10.4873 16.1776 9.72176 15.7906 9.2579 15.1816L8.76558 15.3324L8.80827 16.1235C8.82535 16.4451 8.58061 16.7183 8.26473 16.7353H8.23343C7.92893 16.7353 7.67566 16.4935 7.65858 16.1833L7.59313 14.9368C7.5789 14.6693 7.7468 14.4274 8.00007 14.3478L8.76274 14.1144C8.62899 13.6022 8.58346 13.0302 8.57776 12.4411H8.49808V12.6858C8.49808 13.0074 8.23912 13.2692 7.92324 13.2692C7.60451 13.2692 7.34555 13.0074 7.34555 12.6858V11.8577C7.34555 11.5361 7.60451 11.2743 7.92324 11.2743H8.61476C8.66029 10.7962 8.74851 10.3324 8.9221 9.9169L8.00007 9.63233C7.7468 9.55265 7.5789 9.31076 7.59313 9.04326L7.65858 7.79681C7.67566 7.47524 7.9517 7.25327 8.26473 7.24474C8.58346 7.26181 8.82535 7.53785 8.80827 7.85657L8.76558 8.6477L9.26928 8.80421C9.26075 8.71315 9.24652 8.61924 9.24652 8.51964C9.24652 7.48093 9.81282 7.04269 10.4417 6.84633C10.2852 6.62151 10.2966 6.30848 10.4958 6.10643C10.7206 5.87877 11.0849 5.87877 11.3097 6.10643L11.7138 6.51338C11.7223 6.52191 11.7252 6.53614 11.7337 6.54468C11.7422 6.5333 11.7451 6.52191 11.7565 6.51338L12.1606 6.10643C12.3854 5.87877 12.7496 5.87877 12.9745 6.10643C13.1737 6.30563 13.185 6.61013 13.0371 6.83779C13.6774 7.02561 14.2636 7.46386 14.2636 8.51964C14.2636 8.61639 14.2522 8.70461 14.2408 8.79567L14.7132 8.65054L14.6648 7.85373ZM11.7138 10.3438C12.0325 10.3438 12.2886 10.6056 12.2886 10.9271V14.029C12.2886 14.3506 12.0325 14.6124 11.7138 14.6124C11.3951 14.6124 11.1389 14.3506 11.1389 14.029V10.9271C11.1389 10.6056 11.3979 10.3438 11.7138 10.3438Z" fill="#86888C"/>
</svg>
