<svg width="40" height="40" viewBox="0 0 40 40" fill="none" xmlns="http://www.w3.org/2000/svg">
<path fill-rule="evenodd" clip-rule="evenodd" d="M33.4856 25.4718C34.1464 21.584 34.2591 13.1935 34.2693 10.0176C31.2062 10.1662 29.2853 8.89072 27.431 7.65111C25.5921 6.41662 23.8556 5.25384 20.7463 5.24872H20.736C17.6268 5.24872 15.8903 6.4115 14.0462 7.65111C12.1971 8.89072 10.3069 10.1918 7.213 10.0176C7.22836 13.1935 7.34106 21.5891 8.01209 25.4718C8.75995 29.8105 17.0377 34.7843 20.7412 36.6335C24.4498 34.7792 32.7429 29.8105 33.4856 25.4718ZM36.4976 8.75754C36.4976 9.24929 36.5334 20.8412 35.678 25.856C34.5613 32.3512 22.5852 38.2419 21.2227 38.8924C21.0741 38.9641 20.9102 39 20.7514 39C20.5875 39 20.4287 38.9641 20.275 38.8924C18.9125 38.2419 6.95176 32.3512 5.83508 25.856C4.9694 20.8412 5.00014 9.24929 5.00014 8.75754C5.00014 8.41434 5.15893 8.08651 5.43041 7.87649C5.7019 7.66648 6.05022 7.58964 6.38317 7.6716C9.32341 8.14286 10.8704 7.09277 12.8374 5.7712C14.7736 4.47012 16.9762 3 20.7514 3H20.7617C24.5368 3.00512 26.7343 4.47524 28.6706 5.77632C30.6376 7.09277 32.1948 8.13773 35.1658 7.66648C35.4833 7.61525 35.8368 7.70233 36.0878 7.91747C36.3234 8.12749 36.4925 8.42971 36.4976 8.75754ZM20.7463 26.4092C23.6046 26.4092 24.3832 25.3438 24.3832 21.4508C24.3832 19.0125 24.04 17.7063 23.2255 17.0865C22.6979 16.687 21.8886 16.4923 20.7412 16.4923C19.5886 16.4923 18.7691 16.6921 18.2466 17.0968C17.4475 17.7166 17.1043 19.0176 17.1043 21.4508C17.1094 25.3438 17.888 26.4092 20.7463 26.4092ZM20.7514 13.5316C18.3132 13.5316 18.3132 14.0336 18.3132 14.7302C18.3132 14.7405 18.3183 14.7507 18.3183 14.761C19.0098 14.5253 19.8038 14.4024 20.7463 14.4024C21.6991 14.4024 22.4981 14.5304 23.1897 14.7661C23.1897 14.7507 23.1948 14.7456 23.1948 14.7302C23.1897 14.0336 23.1897 13.5316 20.7514 13.5316ZM25.9967 13.5367C25.966 12.9579 26.4014 12.4661 26.9751 12.4354C27.559 12.4405 28.0354 12.8452 28.0662 13.4291L28.184 15.6727C28.2096 16.1542 27.9074 16.5896 27.4515 16.7331L25.8277 17.2351C26.1401 17.9829 26.3041 18.8281 26.386 19.6887H27.6308C28.2045 19.6887 28.6706 20.1599 28.6706 20.7388V22.2294C28.6706 22.8082 28.2045 23.2795 27.6308 23.2795C27.057 23.2795 26.596 22.8082 26.596 22.2294V21.7888H26.4526C26.4424 22.8543 26.3604 23.889 26.1145 24.8162L27.4515 25.226C27.9074 25.3694 28.2096 25.8048 28.184 26.2863L28.0662 28.5299C28.0354 29.0882 27.5795 29.5236 27.0314 29.5236H26.9751C26.4014 29.4929 25.966 29.0011 25.9967 28.4223L26.0736 26.9983L25.2232 26.7371C24.3883 27.8281 23.0053 28.5196 20.7463 28.5196C18.4771 28.5196 17.0992 27.823 16.2642 26.7268L15.3781 26.9983L15.4549 28.4223C15.4856 29.0011 15.0451 29.4929 14.4765 29.5236H14.4202C13.8721 29.5236 13.4162 29.0882 13.3855 28.5299L13.2676 26.2863C13.242 25.8048 13.5442 25.3694 14.0001 25.226L15.3729 24.8059C15.1322 23.8839 15.0502 22.8543 15.04 21.794H14.8965V22.2345C14.8965 22.8133 14.4304 23.2846 13.8618 23.2846C13.2881 23.2846 12.822 22.8133 12.822 22.2345V20.7439C12.822 20.1651 13.2881 19.6938 13.8618 19.6938H15.1066C15.1885 18.8332 15.3473 17.9983 15.6598 17.2504L14.0001 16.7382C13.5442 16.5948 13.242 16.1594 13.2676 15.6779L13.3855 13.4343C13.4162 12.8554 13.9131 12.4559 14.4765 12.4405C15.0502 12.4713 15.4856 12.9681 15.4549 13.5418L15.3781 14.9659L16.2847 15.2476C16.2693 15.0837 16.2437 14.9146 16.2437 14.7353C16.2437 12.8657 17.2631 12.0768 18.3951 11.7234C18.1134 11.3187 18.1339 10.7553 18.4925 10.3916C18.8971 9.98179 19.5528 9.98179 19.9574 10.3916L20.6848 11.1241C20.7002 11.1394 20.7053 11.1651 20.7207 11.1804C20.736 11.1599 20.7412 11.1394 20.7617 11.1241L21.489 10.3916C21.8937 9.98179 22.5494 9.98179 22.954 10.3916C23.3126 10.7501 23.3331 11.2982 23.0667 11.708C24.2193 12.0461 25.2745 12.8349 25.2745 14.7353C25.2745 14.9095 25.254 15.0683 25.2335 15.2322L26.0838 14.971L25.9967 13.5367ZM20.6848 18.0188C21.2585 18.0188 21.7195 18.49 21.7195 19.0689V24.6522C21.7195 25.2311 21.2585 25.7023 20.6848 25.7023C20.1111 25.7023 19.6501 25.2311 19.6501 24.6522V19.0689C19.6501 18.49 20.1162 18.0188 20.6848 18.0188Z" fill="#86888C"/>
</svg>
