<svg width="40" height="40" viewBox="0 0 40 40" fill="none" xmlns="http://www.w3.org/2000/svg">
<path fill-rule="evenodd" clip-rule="evenodd" d="M9.60159 11.8611C9.02277 11.8611 8.56175 11.4104 8.56175 10.8571C8.56175 10.2988 9.02789 9.85316 9.60159 9.85316C10.1804 9.85316 10.6414 10.3039 10.6414 10.8571C10.6414 11.4104 10.1804 11.8611 9.60159 11.8611ZM12.7262 11.8611C12.1474 11.8611 11.6864 11.4104 11.6864 10.8571C11.6864 10.2988 12.1525 9.85316 12.7262 9.85316C13.3051 9.85316 13.7661 10.3039 13.7661 10.8571C13.7712 11.4104 13.3051 11.8611 12.7262 11.8611ZM6.47695 11.8611C5.89812 11.8611 5.43711 11.4104 5.43711 10.8571C5.43711 10.2988 5.90324 9.85316 6.47695 9.85316C7.05065 9.85316 7.51679 10.3039 7.51679 10.8571C7.51679 11.4104 7.05065 11.8611 6.47695 11.8611ZM19.8105 24.9129C20.9169 24.9129 21.3882 24.457 21.3882 23.3967C21.3882 22.3312 20.9169 21.8754 19.8105 21.8754C18.704 21.8754 18.2328 22.3312 18.2328 23.3967C18.2328 24.457 18.7092 24.9129 19.8105 24.9129ZM19.8105 20.144C21.8953 20.144 23.1861 21.3887 23.1861 23.3967C23.1861 25.3995 21.8953 26.6443 19.8105 26.6443C17.7257 26.6443 16.4348 25.3995 16.4348 23.3967C16.4348 21.3887 17.7308 20.144 19.8105 20.144ZM26.0444 23.7348V23.0484H24.8867C24.4462 23.0484 24.0672 22.741 24.0006 22.321C23.9237 21.8651 23.7957 21.4502 23.6113 21.0968C23.4422 20.7638 23.5088 20.3643 23.7803 20.0979L24.646 19.2629L24.103 18.7405L23.2322 19.5754C22.9607 19.8367 22.5458 19.8981 22.2026 19.7393C21.8133 19.5549 21.4035 19.4371 20.9271 19.3603C20.4917 19.2937 20.169 18.93 20.169 18.5048V17.3933H19.4519V18.5048C19.4519 18.93 19.1343 19.2937 18.6989 19.3603C18.2174 19.4371 17.7923 19.56 17.4234 19.7342C17.0751 19.8981 16.6602 19.8367 16.3887 19.5703L15.5179 18.7353L14.975 19.2578L15.8406 20.0928C16.1275 20.3694 16.189 20.7945 15.9892 21.1326C15.8509 21.3631 15.7023 21.8497 15.6255 22.321C15.5538 22.741 15.1799 23.0484 14.7342 23.0484H13.5766V23.7348H14.7342C15.1747 23.7348 15.5538 24.0421 15.6255 24.4622C15.7023 24.9283 15.8509 25.4149 15.9892 25.6454C16.189 25.9835 16.1275 26.4087 15.8406 26.6853L14.975 27.5202L15.5179 28.0427L16.3887 27.2077C16.6653 26.9465 17.0803 26.885 17.4234 27.0438C17.7923 27.218 18.2174 27.346 18.6938 27.4178C19.1292 27.4844 19.4519 27.848 19.4519 28.2732V29.3848H20.169V28.2732C20.169 27.848 20.4866 27.4895 20.9271 27.4178C21.4087 27.3409 21.8133 27.2231 22.2026 27.0387C22.5509 26.8799 22.9607 26.9465 23.2322 27.2026L24.103 28.0376L24.646 27.5151L23.7803 26.6801C23.5088 26.4138 23.4371 26.0142 23.6113 25.6813C23.7957 25.3227 23.9237 24.9129 24.0006 24.457C24.0723 24.037 24.4462 23.7297 24.8867 23.7297H26.0444V23.7348ZM26.2288 21.317C27.1201 21.317 27.8372 22.0137 27.8372 22.864V23.9141C27.8372 24.7695 27.115 25.461 26.2288 25.461H25.609C25.568 25.5993 25.527 25.7376 25.4758 25.8657L26.0444 26.4087C26.3517 26.7109 26.5208 27.1002 26.5208 27.5151C26.5208 27.93 26.3569 28.3193 26.0495 28.6164L25.2504 29.3848C24.9482 29.6767 24.5384 29.8406 24.103 29.8406H24.0979C23.6625 29.8406 23.2578 29.6767 22.9505 29.3848L22.387 28.8418C22.2487 28.8879 22.1104 28.934 21.967 28.9698V29.564C21.967 30.4195 21.2447 31.111 20.3586 31.111H19.2675C18.3813 31.111 17.6591 30.4143 17.6591 29.564V28.9698C17.5157 28.934 17.3773 28.8879 17.239 28.8418L16.6705 29.3899C16.0404 29.9943 15.0108 29.9994 14.3808 29.3899L13.5817 28.6215C13.2743 28.3295 13.1053 27.9351 13.1053 27.5202C13.1053 27.1053 13.2743 26.7109 13.5817 26.4189L14.14 25.8759C14.0888 25.7376 14.0478 25.5993 14.012 25.4661H13.3921C12.506 25.4661 11.7837 24.7695 11.7837 23.9192V22.8691C11.7837 22.0137 12.506 21.3221 13.3921 21.3221H14.012C14.0478 21.189 14.0939 21.0507 14.14 20.9124L13.5817 20.3694C13.2743 20.0774 13.1053 19.683 13.1053 19.2681C13.1053 18.848 13.2743 18.4587 13.5817 18.1668L14.3808 17.3984C15.0108 16.7888 16.0404 16.7888 16.6705 17.3984L17.239 17.9414C17.3773 17.8953 17.5157 17.8543 17.6591 17.8133V17.214C17.6591 16.3586 18.3813 15.667 19.2675 15.667H20.3586C21.2499 15.667 21.967 16.3637 21.967 17.214V17.8133C22.1104 17.8492 22.2538 17.8953 22.387 17.9414L22.9556 17.3933C23.2578 17.1013 23.6625 16.9374 24.0979 16.9374H24.103C24.5384 16.9374 24.9431 17.1013 25.2504 17.3933L26.0444 18.1616C26.3517 18.4587 26.5208 18.848 26.5208 19.2629C26.5208 19.6779 26.3569 20.0672 26.0495 20.3643L25.4758 20.9124C25.527 21.0455 25.568 21.1787 25.609 21.317H26.2288ZM35.3364 31.8332C35.5669 31.8332 35.7513 31.654 35.7513 31.4337V14.8987H4.24872V31.4337C4.24872 31.654 4.43825 31.8332 4.66363 31.8332H35.3364ZM4.66875 9.16164C4.43825 9.16164 4.25384 9.34092 4.25384 9.56118V12.7268H35.7564V9.56631C35.7564 9.34604 35.572 9.16676 35.3415 9.16676H4.66875V9.16164ZM35.3364 7C36.8065 7 38 8.15253 38 9.56631V31.4337C38 32.8475 36.8065 34 35.3364 34H4.66875C3.19863 34 2 32.8475 2 31.4337V9.56631C2 8.15253 3.19351 7 4.66875 7H35.3364Z" fill="#86888C"/>
</svg>
