<svg width="28" height="28" viewBox="0 0 28 28" fill="none" xmlns="http://www.w3.org/2000/svg">
<path d="M20.964 26H12.2536C9.6015 26 8.31448 24.689 8.31448 21.9886V17.8612C8.31448 17.4856 8.62011 17.1784 8.99365 17.1784C9.36719 17.1784 9.67281 17.4856 9.67281 17.8612V21.9886C9.67281 22.9718 9.86298 23.6444 10.2535 24.0438C10.644 24.4432 11.2994 24.6344 12.2536 24.6344H20.964C21.9216 24.6344 22.5736 24.4398 22.9641 24.0438C23.3546 23.6478 23.5448 22.9718 23.5448 21.9886V6.01138C23.5448 4.1064 22.8215 3.36558 20.964 3.36558H12.2536C11.296 3.36558 10.6406 3.56358 10.2501 3.96643C9.85959 4.36927 9.67281 5.03841 9.67281 6.01138V6.19915C9.67281 6.57468 9.36719 6.88193 8.99365 6.88193C8.62011 6.88193 8.31448 6.57468 8.31448 6.19915V6.01138C8.31448 4.66287 8.63029 3.68307 9.2789 3.01394C9.93769 2.33115 10.9123 2 12.2536 2H20.964C23.5788 2 24.9031 3.34851 24.9031 6.01138V21.9886C24.9031 24.689 23.6161 26 20.964 26Z" fill="#86888C"/>
<path d="M16.6241 20.6572C17.3236 20.6572 17.7821 21.0293 17.7821 21.8248C17.7821 22.2071 17.6768 22.4905 17.49 22.6851C17.2863 22.8933 16.9908 22.9923 16.6241 22.9923C16.2573 22.9923 15.9619 22.8933 15.7581 22.6851C15.5714 22.4939 15.4661 22.2071 15.4661 21.8248C15.4661 21.0259 15.9211 20.6572 16.6241 20.6572ZM9.61508 7.00484V8.48649C10.1992 8.55135 10.7051 8.70498 11.1228 8.95761L12.0567 8.01878L12.943 8.90982L12.0091 9.85207C12.257 10.2617 12.4166 10.767 12.4778 11.3679H13.9516V12.631H12.4778C12.4133 13.2319 12.2536 13.7371 12.0091 14.1468L12.943 15.0856L12.0567 15.9767L11.1228 15.0378C10.7051 15.2905 10.2026 15.4475 9.61508 15.509V16.9906H8.35863V15.509C7.77454 15.4441 7.26856 15.2905 6.85088 15.0378L5.91702 15.9767L5.02731 15.0856L5.96117 14.1468C5.71327 13.7371 5.55706 13.2319 5.49254 12.631H4.01875V11.3679H5.49254C5.55706 10.767 5.71667 10.2617 5.96117 9.85207L5.03071 8.91323L5.92042 8.02219L6.85427 8.96103C7.27196 8.7084 7.77454 8.55135 8.36202 8.4899V7.00825L9.61508 7.00484ZM9.61508 5.98066H8.35863C7.79492 5.98066 7.33988 6.43812 7.33988 7.00484V7.64325C7.24819 7.67056 7.1599 7.69787 7.0716 7.72859L6.64033 7.29502C6.24302 6.89559 5.59781 6.89559 5.2005 7.29502L4.31419 8.18948C3.91688 8.58891 3.91688 9.23756 4.31419 9.63699L4.74546 10.0706C4.7149 10.1593 4.68433 10.2481 4.66056 10.3403H4.01875C3.45504 10.3403 3 10.7977 3 11.3644V12.6276C3 13.1943 3.45504 13.6518 4.01875 13.6518H4.65377C4.68094 13.744 4.7081 13.8327 4.73867 13.9215L4.31079 14.3585C3.91348 14.7579 3.91348 15.4065 4.31079 15.806L5.2005 16.697C5.59781 17.0964 6.24302 17.0964 6.64033 16.697L7.0716 16.2634C7.1599 16.2942 7.24819 16.3249 7.33988 16.3488V16.9872C7.33988 17.5539 7.79492 18.0114 8.35863 18.0114H9.61508C10.1788 18.0114 10.6338 17.5539 10.6338 16.9872V16.3488C10.7255 16.3215 10.8138 16.2942 10.9021 16.2634L11.3334 16.697C11.7307 17.0964 12.3759 17.0964 12.7732 16.697L13.6595 15.806C14.0568 15.4065 14.0568 14.7579 13.6595 14.3585L13.2283 13.9249C13.2588 13.8361 13.2894 13.7474 13.3131 13.6552H13.9482C14.5119 13.6552 14.9669 13.1977 14.9669 12.631V11.3679C14.9669 10.8011 14.5119 10.3437 13.9482 10.3437H13.3131C13.286 10.2515 13.2588 10.1627 13.2283 10.074L13.6595 9.6404C14.0568 9.24097 14.0568 8.59232 13.6595 8.19289L12.7732 7.30185C12.3759 6.90242 11.7307 6.90242 11.3334 7.30185L10.9021 7.73542C10.8138 7.7047 10.7255 7.67397 10.6338 7.65007V7.01167C10.6338 6.43813 10.1754 5.98066 9.61508 5.98066Z" fill="#86888C"/>
<path d="M8.98686 10.2276C10.1041 10.2276 10.7493 10.7875 10.7493 11.9994C10.7493 13.2114 10.1041 13.7713 8.98686 13.7713C7.86963 13.7713 7.22442 13.2114 7.22442 11.9994C7.22442 10.7875 7.86963 10.2276 8.98686 10.2276ZM8.98686 9.20341C8.14809 9.20341 7.47232 9.4458 6.97992 9.92034C6.46715 10.4188 6.20567 11.1152 6.20567 11.9994C6.20567 12.8836 6.46715 13.5801 6.97992 14.0785C7.47232 14.5565 8.14809 14.7954 8.98686 14.7954C9.82563 14.7954 10.5014 14.5531 10.9938 14.0785C11.5066 13.5801 11.7681 12.8836 11.7681 11.9994C11.7681 11.1152 11.5066 10.4188 10.9938 9.92034C10.5014 9.44239 9.82563 9.20341 8.98686 9.20341Z" fill="#86888C"/>
</svg>
