<svg width="40" height="40" viewBox="0 0 40 40" fill="none" xmlns="http://www.w3.org/2000/svg">
<path d="M34.0717 33H5.9283C3.76184 32.9948 2 31.2117 2 29.0127V25.2645C2 23.0603 3.76184 21.2772 5.9283 21.2772H17.8617C18.4251 21.2772 18.886 21.7451 18.886 22.3169C18.886 22.8887 18.4251 23.3566 17.8617 23.3566H5.9283C4.8886 23.3566 4.04866 24.2092 4.04866 25.2645V29.0127C4.04866 30.068 4.8886 30.9206 5.9283 30.9206H34.0717C35.1114 30.9206 35.9513 30.068 35.9513 29.0127V25.2645C35.9513 24.2092 35.1114 23.3566 34.0717 23.3566H31.2394C30.6761 23.3566 30.2151 22.8887 30.2151 22.3169C30.2151 21.7451 30.6761 21.2772 31.2394 21.2772H34.0717C36.2433 21.2772 38 23.0655 38 25.2645V29.0127C38 31.2117 36.2433 32.9948 34.0717 33Z" fill="#86888C"/>
<path d="M25.4827 9.55958V11.8158C26.3636 11.9145 27.1268 12.1485 27.7567 12.5332L29.1652 11.1036L30.507 12.4604L29.0935 13.8952C29.4674 14.519 29.7081 15.2884 29.8003 16.2034H32.023V18.1268H29.8003C29.7029 19.0418 29.4622 19.8112 29.0935 20.435L30.5019 21.8646L29.1601 23.2215L27.7516 21.7919C27.1216 22.1765 26.3636 22.4157 25.4776 22.5093V24.7654H23.5826V22.5093C22.7017 22.4105 21.9385 22.1765 21.3086 21.7919L19.9001 23.2215L18.5685 21.8594L19.977 20.4298C19.6031 19.806 19.3624 19.0366 19.2702 18.1216H17.0474V16.1982H19.2702C19.3675 15.2832 19.6082 14.5138 19.977 13.89L18.5685 12.4604L19.9053 11.1036L21.3137 12.5332C21.9437 12.1485 22.7017 11.9093 23.5877 11.8158V9.55958H25.4827ZM25.4827 8H23.5877C22.7375 8 22.0512 8.69661 22.0512 9.55958V10.5317C21.9129 10.5733 21.7798 10.6149 21.6466 10.6617L20.9962 10.0015C20.3969 9.39322 19.4238 9.39322 18.8246 10.0015L17.4878 11.3635C16.8886 11.9717 16.8886 12.9595 17.4878 13.5677L18.1383 14.2279C18.0922 14.3631 18.0461 14.4982 18.0102 14.6386H17.0525C16.2023 14.6386 15.516 15.3352 15.516 16.1982V18.1216C15.516 18.9846 16.2023 19.6812 17.0525 19.6812H18.0102C18.0512 19.8216 18.0922 19.9567 18.1383 20.0919L17.4878 20.7521C16.8886 21.3604 16.8886 22.3481 17.4878 22.9563L18.8246 24.3132C19.4238 24.9214 20.3969 24.9214 20.9962 24.3132L21.6466 23.6529C21.7798 23.6997 21.9129 23.7465 22.0512 23.7829V24.755C22.0512 25.618 22.7375 26.3146 23.5877 26.3146H25.4827C26.3329 26.3146 27.0192 25.618 27.0192 24.755V23.7829C27.1575 23.7413 27.2907 23.6997 27.4238 23.6529L28.0743 24.3132C28.6735 24.9214 29.6466 24.9214 30.2458 24.3132L31.5877 22.9563C32.1869 22.3481 32.1869 21.3604 31.5877 20.7521L30.9373 20.0971C30.9834 19.9619 31.0295 19.8268 31.0653 19.6864H32.023C32.8732 19.6864 33.5595 18.9898 33.5595 18.1268V16.2034C33.5595 15.3404 32.8732 14.6438 32.023 14.6438H31.0653C31.0243 14.5034 30.9834 14.3683 30.9373 14.2331L31.5877 13.5729C32.1869 12.9646 32.1869 11.9769 31.5877 11.3687L30.2458 10.0067C29.6466 9.39842 28.6735 9.39842 28.0743 10.0067L27.4238 10.6669C27.2907 10.6201 27.1575 10.5733 27.0192 10.5369V9.56477C27.0192 8.69661 26.3329 8 25.4827 8Z" fill="#86888C"/>
<path d="M24.5352 14.4618C26.2202 14.4618 27.1933 15.3144 27.1933 17.1599C27.1933 19.0054 26.2202 19.858 24.5352 19.858C22.8502 19.858 21.8771 19.0054 21.8771 17.1599C21.8771 15.3144 22.8502 14.4618 24.5352 14.4618ZM24.5352 12.9023C23.2702 12.9023 22.251 13.2714 21.5083 13.994C20.735 14.753 20.3406 15.8135 20.3406 17.1599C20.3406 18.5063 20.735 19.5669 21.5083 20.3258C22.251 21.0536 23.2702 21.4176 24.5352 21.4176C25.8003 21.4176 26.8195 21.0485 27.5621 20.3258C28.3355 19.5669 28.7298 18.5063 28.7298 17.1599C28.7298 15.8135 28.3355 14.753 27.5621 13.994C26.8195 13.2662 25.8003 12.9023 24.5352 12.9023Z" fill="#86888C"/>
<path d="M7.38285 29.6677C7.84391 29.6677 8.21767 29.2883 8.21767 28.8203C8.21767 28.3523 7.84391 27.973 7.38285 27.973C6.92178 27.973 6.54802 28.3523 6.54802 28.8203C6.54802 29.2883 6.92178 29.6677 7.38285 29.6677Z" fill="#86888C"/>
<path d="M10.4815 29.6677C10.9425 29.6677 11.3163 29.2883 11.3163 28.8203C11.3163 28.3523 10.9425 27.973 10.4815 27.973C10.0204 27.973 9.64662 28.3523 9.64662 28.8203C9.64662 29.2883 10.0204 29.6677 10.4815 29.6677Z" fill="#86888C"/>
<path d="M13.4776 29.6677C13.9387 29.6677 14.3124 29.2883 14.3124 28.8203C14.3124 28.3523 13.9387 27.973 13.4776 27.973C13.0165 27.973 12.6428 28.3523 12.6428 28.8203C12.6428 29.2883 13.0165 29.6677 13.4776 29.6677Z" fill="#86888C"/>
<path d="M32.9705 28.8203C32.9705 29.4286 32.484 29.9224 31.8847 29.9224H27.0294C26.4302 29.9224 25.9436 29.4286 25.9436 28.8203C25.9436 28.2121 26.4302 27.7182 27.0294 27.7182H31.8847C32.484 27.7182 32.9705 28.2121 32.9705 28.8203Z" fill="#86888C"/>
</svg>
