<svg width="28" height="28" viewBox="0 0 28 28" fill="none" xmlns="http://www.w3.org/2000/svg">
<path d="M14 18.7019C10.9684 18.7019 9.30052 17.0338 9.30052 14.0017C9.30052 10.9697 10.9684 9.30156 14 9.30156C17.0317 9.30156 18.6996 10.9697 18.6996 14.0017C18.6996 17.0338 17.0282 18.7019 14 18.7019ZM14 10.6689C11.7272 10.6689 10.6677 11.7286 10.6677 14.0017C10.6677 16.2749 11.7272 17.3346 14 17.3346C16.2729 17.3346 17.3324 16.2749 17.3324 14.0017C17.3324 11.7286 16.2729 10.6689 14 10.6689Z" fill="#86888C"/>
<path d="M14.916 26H13.0806C12.421 26 11.8844 25.4633 11.8844 24.8036V22.5407C10.9308 22.3868 10.0661 22.1202 9.31074 21.7442L7.63942 23.4158C7.16434 23.8875 6.39875 23.8875 5.92367 23.4158L4.58388 22.0724C4.11222 21.5972 4.11222 20.8315 4.58388 20.3564L6.25178 18.6882C5.86557 18.0046 5.58872 16.9004 5.45884 16.1108H3.19624C2.5366 16.1108 2 15.5741 2 14.9144V13.0788C2 12.419 2.5366 11.8824 3.19624 11.8824H5.45884C5.58872 11.0893 5.86557 9.98861 6.25178 9.30494L4.58388 7.6368C4.11222 7.16166 4.11222 6.39596 4.58388 5.92081L5.92367 4.58083C6.39875 4.1091 7.16434 4.1091 7.63942 4.58083L9.31074 6.25239C10.0661 5.87637 10.9308 5.60974 11.8844 5.45592V3.19641C11.8844 2.53668 12.421 2 13.0806 2H14.916C15.5756 2 16.1122 2.53668 16.1122 3.19641V5.45934C17.0692 5.61316 17.8895 5.86612 18.6858 6.2558L20.3572 4.58425C20.8322 4.11252 21.5978 4.11252 22.0729 4.58425L23.4127 5.92423C23.8844 6.39937 23.8844 7.16508 23.4127 7.64022L21.7448 9.31178C22.1208 10.0672 22.3874 10.9321 22.5412 11.8858H24.8038C25.4634 11.8858 26 12.4224 26 13.0822V14.9178C26 15.5776 25.4634 16.1142 24.8038 16.1142H22.5412C22.3874 17.0679 22.1208 17.9328 21.7448 18.6882L23.4161 20.3598C23.8878 20.8349 23.8878 21.6006 23.4161 22.0758L22.0763 23.4158C21.6013 23.8875 20.8357 23.8875 20.3606 23.4158L18.6858 21.7442C17.8895 22.1339 17.0692 22.3868 16.1122 22.5407V24.8036C16.1122 25.4667 15.579 26 14.916 26ZM13.2515 24.6327H14.7451V22.4074C14.7451 21.8057 15.2031 21.2964 15.8354 21.2007H15.8388C16.7001 21.0674 17.4247 20.8452 18.1219 20.4999C18.6312 20.247 19.2019 20.3256 19.5779 20.7016L21.2185 22.3424L22.3429 21.2178L20.7024 19.577C20.3264 19.201 20.2478 18.613 20.5041 18.1139C20.8357 17.4576 21.0681 16.6919 21.2014 15.8339C21.2971 15.2015 21.8063 14.7435 22.4079 14.7435H24.6329V13.2497H22.4079C21.8063 13.2497 21.2971 12.7916 21.2014 12.1592C21.0681 11.3012 20.8357 10.5355 20.5041 9.88264C20.2478 9.38356 20.3264 8.79561 20.7024 8.4196L22.3429 6.77881L21.2185 5.65418L19.5882 7.28814L19.5779 7.29839C19.2019 7.67441 18.6312 7.75303 18.1219 7.50007C17.4247 7.15482 16.7001 6.93263 15.8388 6.79932H15.8354C15.2031 6.7036 14.7451 6.19427 14.7451 5.59265V3.36733H13.2515V5.59265C13.2515 6.19427 12.7935 6.7036 12.1612 6.79932C11.3033 6.93263 10.5377 7.16508 9.88493 7.49665C9.38593 7.75644 8.79806 7.67441 8.4221 7.29839L6.78154 5.6576L5.65708 6.78222L7.29764 8.42302C7.74537 8.87082 7.72145 9.52371 7.46853 9.93391C7.21903 10.3407 6.93535 11.2807 6.79863 12.1661C6.70293 12.7848 6.18342 13.2531 5.59214 13.2531H3.36713V14.7469H5.59214C6.18342 14.7469 6.70293 15.2152 6.79863 15.8339C6.93535 16.7193 7.21903 17.6593 7.46853 18.0661C7.72145 18.4797 7.74537 19.1292 7.29764 19.577L5.65708 21.2178L6.78154 22.3424L8.4221 20.7016C8.79806 20.3256 9.38593 20.247 9.88493 20.5033C10.5412 20.8349 11.3068 21.0674 12.1646 21.2007C12.7969 21.2964 13.2549 21.8057 13.2549 22.4074L13.2515 24.6327Z" fill="#86888C"/>
</svg>
