<svg width="24" height="24" viewBox="0 0 24 24" fill="none" xmlns="http://www.w3.org/2000/svg">
<path d="M19.8176 19H4.18239C2.9788 18.9971 2 17.9985 2 16.7671V14.6681C2 13.4338 2.9788 12.4352 4.18239 12.4352H10.8121C11.1251 12.4352 11.3811 12.6972 11.3811 13.0175C11.3811 13.3377 11.1251 13.5997 10.8121 13.5997H4.18239C3.60478 13.5997 3.13814 14.0771 3.13814 14.6681V16.7671C3.13814 17.3581 3.60478 17.8355 4.18239 17.8355H19.8176C20.3952 17.8355 20.8619 17.3581 20.8619 16.7671V14.6681C20.8619 14.0771 20.3952 13.5997 19.8176 13.5997H18.2441C17.9311 13.5997 17.6751 13.3377 17.6751 13.0175C17.6751 12.6972 17.9311 12.4352 18.2441 12.4352H19.8176C21.024 12.4352 22 13.4367 22 14.6681V16.7671C22 17.9985 21.024 18.9971 19.8176 19Z" fill="#86888C"/>
<path d="M15.046 5.87336V7.13683C15.5354 7.19214 15.9593 7.32314 16.3093 7.53857L17.0918 6.73799L17.8372 7.49782L17.0519 8.30131C17.2596 8.65066 17.3934 9.08151 17.4446 9.59389H18.6795V10.671H17.4446C17.3905 11.1834 17.2568 11.6143 17.0519 11.9636L17.8344 12.7642L17.0889 13.524L16.3064 12.7234C15.9565 12.9389 15.5354 13.0728 15.0431 13.1252V14.3886H13.9903V13.1252C13.5009 13.0699 13.077 12.9389 12.727 12.7234L11.9445 13.524L11.2047 12.7613L11.9872 11.9607C11.7795 11.6114 11.6458 11.1805 11.5945 10.6681H10.3597V9.59098H11.5945C11.6486 9.0786 11.7823 8.64774 11.9872 8.2984L11.2047 7.49782L11.9474 6.73799L12.7298 7.53857C13.0798 7.32314 13.5009 7.18923 13.9932 7.13683V5.87336H15.046ZM15.046 5H13.9932C13.5208 5 13.1396 5.3901 13.1396 5.87336V6.41776C13.0627 6.44105 12.9888 6.46434 12.9148 6.49054L12.5534 6.12082C12.2205 5.7802 11.6799 5.7802 11.347 6.12082L10.6044 6.88355C10.2714 7.22416 10.2714 7.77729 10.6044 8.1179L10.9657 8.48763C10.9401 8.56332 10.9145 8.63901 10.8946 8.71761H10.3625C9.89017 8.71761 9.50889 9.10771 9.50889 9.59098V10.6681C9.50889 11.1514 9.89017 11.5415 10.3625 11.5415H10.8946C10.9173 11.6201 10.9401 11.6958 10.9657 11.7715L10.6044 12.1412C10.2714 12.4818 10.2714 13.0349 10.6044 13.3755L11.347 14.1354C11.6799 14.476 12.2205 14.476 12.5534 14.1354L12.9148 13.7656C12.9888 13.7918 13.0627 13.818 13.1396 13.8384V14.3828C13.1396 14.8661 13.5208 15.2562 13.9932 15.2562H15.046C15.5183 15.2562 15.8996 14.8661 15.8996 14.3828V13.8384C15.9764 13.8151 16.0504 13.7918 16.1243 13.7656L16.4857 14.1354C16.8186 14.476 17.3592 14.476 17.6921 14.1354L18.4376 13.3755C18.7705 13.0349 18.7705 12.4818 18.4376 12.1412L18.0763 11.7744C18.1019 11.6987 18.1275 11.623 18.1474 11.5444H18.6795C19.1518 11.5444 19.5331 11.1543 19.5331 10.671V9.59389C19.5331 9.11063 19.1518 8.72052 18.6795 8.72052H18.1474C18.1246 8.64192 18.1019 8.56623 18.0763 8.49054L18.4376 8.12082C18.7705 7.7802 18.7705 7.22707 18.4376 6.88646L17.6921 6.12373C17.3592 5.78311 16.8186 5.78311 16.4857 6.12373L16.1243 6.49345C16.0504 6.46725 15.9764 6.44105 15.8996 6.42067V5.87627C15.8996 5.3901 15.5183 5 15.046 5Z" fill="#86888C"/>
<path d="M14.5196 8.61863C15.4557 8.61863 15.9963 9.09607 15.9963 10.1295C15.9963 11.163 15.4557 11.6405 14.5196 11.6405C13.5834 11.6405 13.0428 11.163 13.0428 10.1295C13.0428 9.09607 13.5834 8.61863 14.5196 8.61863ZM14.5196 7.74527C13.8168 7.74527 13.2505 7.95196 12.838 8.35662C12.4083 8.78166 12.1892 9.37555 12.1892 10.1295C12.1892 10.8836 12.4083 11.4774 12.838 11.9025C13.2505 12.31 13.8168 12.5138 14.5196 12.5138C15.2224 12.5138 15.7886 12.3071 16.2012 11.9025C16.6308 11.4774 16.8499 10.8836 16.8499 10.1295C16.8499 9.37555 16.6308 8.78166 16.2012 8.35662C15.7886 7.94905 15.2224 7.74527 14.5196 7.74527Z" fill="#86888C"/>
<path d="M4.99047 17.1339C5.24662 17.1339 5.45426 16.9215 5.45426 16.6594C5.45426 16.3973 5.24662 16.1849 4.99047 16.1849C4.73432 16.1849 4.52668 16.3973 4.52668 16.6594C4.52668 16.9215 4.73432 17.1339 4.99047 17.1339Z" fill="#86888C"/>
<path d="M6.71192 17.1339C6.96806 17.1339 7.17571 16.9215 7.17571 16.6594C7.17571 16.3973 6.96806 16.1849 6.71192 16.1849C6.45577 16.1849 6.24813 16.3973 6.24813 16.6594C6.24813 16.9215 6.45577 17.1339 6.71192 17.1339Z" fill="#86888C"/>
<path d="M8.37644 17.1339C8.63259 17.1339 8.84024 16.9215 8.84024 16.6594C8.84024 16.3973 8.63259 16.1849 8.37644 16.1849C8.1203 16.1849 7.91265 16.3973 7.91265 16.6594C7.91265 16.9215 8.1203 17.1339 8.37644 17.1339Z" fill="#86888C"/>
<path d="M19.2059 16.6594C19.2059 17 18.9355 17.2766 18.6026 17.2766H15.9052C15.5723 17.2766 15.302 17 15.302 16.6594C15.302 16.3188 15.5723 16.0422 15.9052 16.0422H18.6026C18.9355 16.0422 19.2059 16.3188 19.2059 16.6594Z" fill="#86888C"/>
</svg>
