<svg width="28" height="28" viewBox="0 0 28 28" fill="none" xmlns="http://www.w3.org/2000/svg">
<path d="M23.3811 23H4.61886C3.17456 22.9965 2 21.7839 2 20.2886V17.7399C2 16.241 3.17456 15.0285 4.61886 15.0285H12.5745C12.9501 15.0285 13.2574 15.3466 13.2574 15.7355C13.2574 16.1243 12.9501 16.4425 12.5745 16.4425H4.61886C3.92574 16.4425 3.36577 17.0222 3.36577 17.7399V20.2886C3.36577 21.0062 3.92574 21.586 4.61886 21.586H23.3811C24.0743 21.586 24.6342 21.0062 24.6342 20.2886V17.7399C24.6342 17.0222 24.0743 16.4425 23.3811 16.4425H21.493C21.1174 16.4425 20.8101 16.1243 20.8101 15.7355C20.8101 15.3466 21.1174 15.0285 21.493 15.0285H23.3811C24.8289 15.0285 26 16.2445 26 17.7399V20.2886C26 21.7839 24.8289 22.9965 23.3811 23Z" fill="#86888C"/>
<path d="M17.6551 7.06051V8.59472C18.2424 8.66188 18.7512 8.82096 19.1711 9.08255L20.1101 8.11042L21.0047 9.03306L20.0623 10.0087C20.3116 10.4329 20.472 10.9561 20.5335 11.5783H22.0154V12.8863H20.5335C20.4686 13.5084 20.3082 14.0316 20.0623 14.4558L21.0013 15.4279L20.1067 16.3506L19.1677 15.3785C18.7478 15.6401 18.2424 15.8027 17.6517 15.8663V17.4005H16.3884V15.8663C15.8011 15.7991 15.2924 15.6401 14.8724 15.3785L13.9334 16.3506L13.0457 15.4244L13.9846 14.4523C13.7354 14.0281 13.5749 13.5049 13.5134 12.8827H12.0316V11.5748H13.5134C13.5783 10.9526 13.7388 10.4294 13.9846 10.0052L13.0457 9.03306L13.9368 8.11042L14.8758 9.08255C15.2958 8.82096 15.8011 8.65835 16.3918 8.59472V7.06051H17.6551ZM17.6551 6H16.3918C15.825 6 15.3675 6.4737 15.3675 7.06051V7.72156C15.2753 7.74984 15.1865 7.77812 15.0977 7.80994L14.6641 7.36099C14.2646 6.94739 13.6159 6.94739 13.2164 7.36099L12.3252 8.28717C11.9257 8.70077 11.9257 9.37243 12.3252 9.78603L12.7589 10.235C12.7281 10.3269 12.6974 10.4188 12.6735 10.5142H12.035C11.4682 10.5142 11.0107 10.9879 11.0107 11.5748V12.8827C11.0107 13.4695 11.4682 13.9432 12.035 13.9432H12.6735C12.7008 14.0387 12.7281 14.1306 12.7589 14.2225L12.3252 14.6714C11.9257 15.085 11.9257 15.7567 12.3252 16.1703L13.2164 17.093C13.6159 17.5066 14.2646 17.5066 14.6641 17.093L15.0977 16.644C15.1865 16.6758 15.2753 16.7076 15.3675 16.7324V17.3934C15.3675 17.9802 15.825 18.4539 16.3918 18.4539H17.6551C18.2219 18.4539 18.6795 17.9802 18.6795 17.3934V16.7324C18.7717 16.7041 18.8604 16.6758 18.9492 16.644L19.3828 17.093C19.7823 17.5066 20.4311 17.5066 20.8306 17.093L21.7251 16.1703C22.1246 15.7567 22.1246 15.085 21.7251 14.6714L21.2915 14.226C21.3222 14.1341 21.353 14.0422 21.3769 13.9468H22.0154C22.5822 13.9468 23.0397 13.4731 23.0397 12.8863V11.5783C23.0397 10.9915 22.5822 10.5178 22.0154 10.5178H21.3769C21.3496 10.4223 21.3222 10.3304 21.2915 10.2385L21.7251 9.78956C22.1246 9.37596 22.1246 8.7043 21.7251 8.2907L20.8306 7.36452C20.4311 6.95093 19.7823 6.95093 19.3828 7.36452L18.9492 7.81347C18.8604 7.78166 18.7717 7.74984 18.6795 7.7251V7.06405C18.6795 6.4737 18.2219 6 17.6551 6Z" fill="#86888C"/>
<path d="M17.0235 10.3941C18.1468 10.3941 18.7956 10.9738 18.7956 12.2287C18.7956 13.4837 18.1468 14.0634 17.0235 14.0634C15.9001 14.0634 15.2514 13.4837 15.2514 12.2287C15.2514 10.9738 15.9001 10.3941 17.0235 10.3941ZM17.0235 9.33354C16.1801 9.33354 15.5006 9.58453 15.0055 10.0759C14.49 10.592 14.2271 11.3132 14.2271 12.2287C14.2271 13.1443 14.49 13.8655 15.0055 14.3816C15.5006 14.8765 16.1801 15.1239 17.0235 15.1239C17.8668 15.1239 18.5463 14.8729 19.0414 14.3816C19.557 13.8655 19.8199 13.1443 19.8199 12.2287C19.8199 11.3132 19.557 10.592 19.0414 10.0759C18.5463 9.58099 17.8668 9.33354 17.0235 9.33354Z" fill="#86888C"/>
<path d="M5.58856 20.734C5.89594 20.734 6.14511 20.4761 6.14511 20.1578C6.14511 19.8396 5.89594 19.5816 5.58856 19.5816C5.28119 19.5816 5.03201 19.8396 5.03201 20.1578C5.03201 20.4761 5.28119 20.734 5.58856 20.734Z" fill="#86888C"/>
<path d="M7.6543 20.734C7.96168 20.734 8.21085 20.4761 8.21085 20.1578C8.21085 19.8396 7.96168 19.5816 7.6543 19.5816C7.34693 19.5816 7.09775 19.8396 7.09775 20.1578C7.09775 20.4761 7.34693 20.734 7.6543 20.734Z" fill="#86888C"/>
<path d="M9.65173 20.734C9.95911 20.734 10.2083 20.4761 10.2083 20.1578C10.2083 19.8396 9.95911 19.5816 9.65173 19.5816C9.34436 19.5816 9.09518 19.8396 9.09518 20.1578C9.09518 20.4761 9.34436 20.734 9.65173 20.734Z" fill="#86888C"/>
<path d="M22.647 20.1578C22.647 20.5714 22.3227 20.9073 21.9232 20.9073H18.6863C18.2868 20.9073 17.9624 20.5714 17.9624 20.1578C17.9624 19.7442 18.2868 19.4084 18.6863 19.4084H21.9232C22.3227 19.4084 22.647 19.7442 22.647 20.1578Z" fill="#86888C"/>
</svg>
