<svg width="20" height="20" viewBox="0 0 20 20" fill="none" xmlns="http://www.w3.org/2000/svg">
<path fill-rule="evenodd" clip-rule="evenodd" d="M14.1082 14.928C14.9316 14.928 17.6044 14.6841 17.6044 11.5453C17.6044 8.59477 15.2479 8.21087 14.2338 8.18189C14.0044 8.17465 13.8064 8.02012 13.7461 7.80282C13.0266 5.15895 9.9843 5.02616 9.38309 5.02616C8.3183 5.02616 4.8511 5.33038 4.8511 9.23944L4.85593 9.32153C4.86076 9.55332 4.70623 9.76097 4.47686 9.82374C3.32515 10.1473 2.74084 10.9899 2.74084 12.33C2.74084 14.7155 4.62655 14.9738 5.43782 14.9738L14.1082 14.928ZM14.637 7.17988C16.6386 7.36338 18.6427 8.58511 18.6427 11.5453C18.6427 14.7976 16.2016 15.9517 14.1107 15.9517L5.44024 16C3.63178 16 1.7002 15.0366 1.7002 12.3324C1.7002 10.2076 2.89054 9.32877 3.81287 8.9666C3.97947 4.24386 8.46559 4 9.37826 4C10.0881 4 13.565 4.15694 14.637 7.17988ZM10.1726 11.3014C10.7932 11.3014 11.0829 11.0165 11.0829 10.4056C11.0829 9.79477 10.7956 9.50986 10.1726 9.50986C9.55211 9.50986 9.26237 9.79477 9.26237 10.4056C9.26237 11.0165 9.55211 11.3014 10.1726 11.3014ZM10.1726 8.75895C11.2205 8.75895 11.8459 9.37465 11.8459 10.4056C11.8459 11.4366 11.2205 12.0523 10.1726 12.0523C9.12474 12.0523 8.50181 11.4366 8.50181 10.4056C8.50181 9.37465 9.12474 8.75895 10.1726 8.75895ZM13.0531 10.5674V10.2414H12.5195C12.3167 10.2414 12.1429 10.0966 12.109 9.89859C12.0728 9.67887 12.0101 9.4833 11.928 9.3167C11.8483 9.15976 11.8797 8.96901 12.0052 8.84588L12.406 8.4499L12.1549 8.20362L11.7541 8.59718C11.6213 8.72998 11.4185 8.75654 11.2567 8.66479C11.1433 8.60201 10.909 8.53441 10.6869 8.49819C10.4841 8.46439 10.3368 8.29537 10.3368 8.09256V7.5662H10.006V8.09256C10.006 8.29296 9.85875 8.46439 9.65593 8.49819C9.4338 8.53199 9.19718 8.60201 9.08611 8.66479C8.92434 8.75654 8.71911 8.72998 8.58873 8.59718L8.18792 8.20362L7.93681 8.4499L8.33762 8.84588C8.46317 8.97143 8.49456 9.15976 8.41488 9.3167C8.33038 9.48571 8.27001 9.67887 8.23621 9.89618C8.20241 10.0942 8.02857 10.2414 7.82575 10.2414H7.29215V10.5674H7.82575C8.02857 10.5674 8.20482 10.7123 8.23621 10.9127C8.27243 11.1324 8.33038 11.3183 8.4173 11.4946C8.49456 11.6515 8.46317 11.8398 8.33762 11.963L7.93681 12.359L8.18792 12.6052L8.58873 12.2093C8.71669 12.0861 8.90744 12.0547 9.06921 12.132C9.23822 12.2141 9.4338 12.2744 9.65593 12.3107C9.85875 12.3421 10.006 12.5135 10.006 12.7163V13.2427H10.3368V12.7163C10.3368 12.5159 10.4841 12.3445 10.6869 12.3107C10.9066 12.2769 11.1046 12.2165 11.2761 12.132C11.4354 12.0547 11.6286 12.0837 11.7565 12.2093L12.1573 12.6052L12.4084 12.359L12.0076 11.963C11.8821 11.8398 11.8507 11.6515 11.928 11.4946C12.0149 11.3159 12.0728 11.13 12.109 10.9127C12.1429 10.7147 12.3167 10.5674 12.5195 10.5674H13.0531ZM13.14 9.42294C13.5505 9.42294 13.8837 9.75131 13.8837 10.1569V10.6543C13.8837 11.06 13.5505 11.3883 13.14 11.3883H12.8551C12.8358 11.4535 12.8165 11.5187 12.7923 11.5815L13.0555 11.8398C13.3477 12.1272 13.3477 12.5956 13.0555 12.8829L12.6885 13.2451C12.406 13.5227 11.9111 13.5227 11.6286 13.2451L11.3654 12.9867C11.3026 13.0085 11.2374 13.0302 11.1698 13.0471V13.3296C11.1698 13.7352 10.8366 14.0636 10.4262 14.0636H9.92152C9.51106 14.0636 9.17786 13.7352 9.17786 13.3296V13.0471C9.11026 13.0278 9.04506 13.0085 8.98229 12.9867L8.72152 13.2451C8.43903 13.5227 7.94406 13.5227 7.66156 13.2451L7.29215 12.8829C6.99999 12.5956 6.99999 12.1272 7.29215 11.8398L7.55291 11.5815C7.53118 11.5187 7.50945 11.4559 7.49014 11.3883H7.20281C6.79235 11.3883 6.45915 11.06 6.45915 10.6543V10.1569C6.45915 9.75131 6.79235 9.42294 7.20281 9.42294H7.49014C7.50945 9.35775 7.52877 9.29497 7.55291 9.22978L7.28973 8.97143C7.14969 8.8338 7.07243 8.64789 7.07243 8.4499C7.07243 8.25191 7.14969 8.066 7.29215 7.92837L7.66156 7.5662C7.94406 7.28853 8.43903 7.28853 8.72152 7.5662L8.98229 7.82213C9.04989 7.8004 9.11508 7.78109 9.18028 7.76418V7.48169C9.18028 7.07606 9.51347 6.74769 9.92394 6.74769H10.4286C10.839 6.74769 11.1722 7.07606 11.1722 7.48169V7.76418C11.235 7.78109 11.3026 7.8004 11.3702 7.82213L11.631 7.5662C11.9135 7.28853 12.4084 7.28853 12.6909 7.5662L13.0579 7.92837C13.2004 8.06841 13.2777 8.25191 13.2777 8.4499C13.2777 8.64789 13.2004 8.83139 13.0579 8.97143L12.7972 9.22736C12.8189 9.29014 12.8406 9.35292 12.86 9.42052H13.14V9.42294Z" fill="#86888C"/>
</svg>
