<svg width="40" height="40" viewBox="0 0 40 40" fill="none" xmlns="http://www.w3.org/2000/svg">
<path d="M20.0001 27.0529C15.4526 27.0529 12.9508 24.5507 12.9508 20.0026C12.9508 15.4546 15.4526 12.9523 20.0001 12.9523C24.5475 12.9523 27.0493 15.4546 27.0493 20.0026C27.0493 24.5507 24.5424 27.0529 20.0001 27.0529ZM20.0001 15.0033C16.5908 15.0033 15.0015 16.5929 15.0015 20.0026C15.0015 23.4124 16.5908 25.0019 20.0001 25.0019C23.4093 25.0019 24.9986 23.4124 24.9986 20.0026C24.9986 16.5929 23.4093 15.0033 20.0001 15.0033Z" fill="#86888C"/>
<path d="M21.374 38H18.6209C17.6314 38 16.8265 37.195 16.8265 36.2054V32.811C15.3962 32.5803 14.0991 32.1803 12.9661 31.6163L10.4591 34.1236C9.74651 34.8312 8.59812 34.8312 7.8855 34.1236L5.87582 32.1085C5.16833 31.3958 5.16833 30.2473 5.87582 29.5345L8.37767 27.0323C7.79835 26.0068 7.38308 24.3507 7.18827 23.1662H3.79436C2.8049 23.1662 2 22.3612 2 21.3716V18.6181C2 17.6285 2.8049 16.8235 3.79436 16.8235H7.18827C7.38308 15.634 7.79835 13.9829 8.37767 12.9574L5.87582 10.4552C5.16833 9.74249 5.16833 8.59393 5.87582 7.88121L7.8855 5.87124C8.59812 5.16365 9.74651 5.16365 10.4591 5.87124L12.9661 8.37858C14.0991 7.81456 15.3962 7.41461 16.8265 7.18388V3.79462C16.8265 2.80501 17.6314 2 18.6209 2H21.374C22.3634 2 23.1683 2.80501 23.1683 3.79462V7.189C24.6038 7.41974 25.8342 7.79917 27.0288 8.38371L29.5357 5.87637C30.2484 5.16878 31.3968 5.16878 32.1094 5.87637L34.1191 7.88634C34.8265 8.59906 34.8265 9.74761 34.1191 10.4603L31.6172 12.9677C32.1811 14.1008 32.581 15.3981 32.8117 16.8287H36.2056C37.1951 16.8287 38 17.6337 38 18.6233V21.3767C38 22.3663 37.1951 23.1713 36.2056 23.1713H32.8117C32.581 24.6019 32.1811 25.8992 31.6172 27.0323L34.1242 29.5397C34.8317 30.2524 34.8317 31.4009 34.1242 32.1137L32.1145 34.1236C31.4019 34.8312 30.2535 34.8312 29.5409 34.1236L27.0288 31.6163C25.8342 32.2008 24.6038 32.5803 23.1683 32.811V36.2054C23.1683 37.2001 22.3686 38 21.374 38ZM18.8772 35.949H21.1176V32.611C21.1176 31.7086 21.8046 30.9446 22.7531 30.801H22.7582C24.0501 30.6011 25.137 30.2678 26.1829 29.7499C26.9467 29.3705 27.8029 29.4884 28.3668 30.0524L30.8277 32.5136L32.5144 30.8267L30.0535 28.3655C29.4896 27.8015 29.3717 26.9195 29.7562 26.1709C30.2535 25.1864 30.6021 24.0379 30.8021 22.7509C30.9456 21.8023 31.7095 21.1152 32.6118 21.1152H35.9493V18.8745H32.6118C31.7095 18.8745 30.9456 18.1874 30.8021 17.2389C30.6021 15.9519 30.2535 14.8033 29.7562 13.824C29.3717 13.0753 29.4896 12.1934 30.0535 11.6294L32.5144 9.16821L30.8277 7.48127L28.3822 9.9322L28.3668 9.94759C27.8029 10.5116 26.9467 10.6295 26.1829 10.2501C25.137 9.73223 24.0501 9.39895 22.7582 9.19897H22.7531C21.8046 9.0554 21.1176 8.29141 21.1176 7.38898V4.05099H18.8772V7.38898C18.8772 8.29141 18.1903 9.0554 17.2418 9.19897C15.955 9.39895 14.8066 9.74761 13.8274 10.245C13.0789 10.6347 12.1971 10.5116 11.6332 9.94759L9.17232 7.4864L7.48562 9.17334L9.94645 11.6345C10.6181 12.3062 10.5822 13.2856 10.2028 13.9009C9.82854 14.511 9.40302 15.9211 9.19795 17.2491C9.0544 18.1772 8.27514 18.8796 7.38821 18.8796H4.0507V21.1204H7.38821C8.27514 21.1204 9.0544 21.8228 9.19795 22.7509C9.40302 24.0789 9.82854 25.489 10.2028 26.0991C10.5822 26.7196 10.6181 27.6938 9.94645 28.3655L7.48562 30.8267L9.17232 32.5136L11.6332 30.0524C12.1971 29.4884 13.0789 29.3705 13.8274 29.755C14.8117 30.2524 15.9601 30.6011 17.2469 30.801C18.1954 30.9446 18.8824 31.7086 18.8824 32.611L18.8772 35.949Z" fill="#86888C"/>
</svg>
