<svg width="28" height="28" viewBox="0 0 28 28" fill="none" xmlns="http://www.w3.org/2000/svg">
<path d="M17.9123 15.2999C17.0437 15.2999 16.3152 15.5564 15.8091 16.0385C15.7065 16.1377 15.6108 16.2437 15.5287 16.3566L12.3004 14.7424C12.3449 14.5099 12.3654 14.2637 12.3654 14.0004C12.3654 13.7405 12.3449 13.4942 12.3004 13.2651L15.5321 11.6476C15.5971 11.7365 15.6689 11.8185 15.7441 11.8972C16.2571 12.4238 17.006 12.7008 17.9123 12.7008C18.8185 12.7008 19.5675 12.4238 20.0804 11.8972C20.5865 11.3808 20.843 10.6592 20.843 9.75985C20.843 8.81941 20.566 8.07732 20.0189 7.55752C19.5093 7.07533 18.7809 6.81885 17.9157 6.81885C17.0471 6.81885 16.3187 7.07533 15.8125 7.55752C15.2654 8.07732 14.9884 8.81941 14.9884 9.75985C14.9884 9.97529 15.002 10.1771 15.0328 10.372L11.7464 12.0135C11.6849 11.9382 11.6165 11.863 11.5447 11.7946C11.0351 11.3124 10.3067 11.0559 9.44149 11.0559C8.57629 11.0559 7.84445 11.3124 7.33833 11.7946C6.79116 12.3144 6.51416 13.0565 6.51416 13.9969C6.51416 14.8998 6.77064 15.6179 7.27677 16.1343C7.78974 16.6609 8.53867 16.9379 9.44491 16.9379C10.3512 16.9379 11.1001 16.6609 11.613 16.1343C11.6609 16.0864 11.702 16.0351 11.7464 15.9838L15.0362 17.6287C15.0089 17.8202 14.9918 18.022 14.9918 18.234C14.9918 19.1368 15.2483 19.855 15.7544 20.3714C16.2674 20.898 17.0163 21.175 17.9225 21.175C18.8288 21.175 19.5777 20.898 20.0907 20.3714C20.5968 19.855 20.8533 19.1334 20.8533 18.234C20.8533 17.2936 20.5763 16.5515 20.0291 16.0317C19.5093 15.5564 18.7809 15.2999 17.9123 15.2999ZM17.9123 8.19017C18.9792 8.19017 19.4751 8.68946 19.4751 9.76327C19.4751 10.2933 19.3486 10.6934 19.1024 10.9465C18.8493 11.2064 18.4492 11.3364 17.9123 11.3364C17.3754 11.3364 16.9753 11.2064 16.7222 10.9465C16.476 10.6934 16.3494 10.2968 16.3494 9.76327C16.3494 8.68946 16.8453 8.19017 17.9123 8.19017ZM9.43123 15.5735C8.89433 15.5735 8.49421 15.4435 8.24115 15.1836C7.99492 14.9305 7.86839 14.5338 7.86839 14.0004C7.86839 12.9266 8.36426 12.4273 9.43123 12.4273C10.146 12.4273 10.6042 12.653 10.8299 13.1249C10.8402 13.1557 10.8504 13.1865 10.8675 13.2172C10.871 13.2241 10.8744 13.2309 10.8778 13.2343C10.9565 13.4464 10.9941 13.6994 10.9941 14.0004C10.9941 14.315 10.9496 14.5817 10.8641 14.8006C10.8539 14.8211 10.8436 14.8416 10.8368 14.8621C10.7786 14.9853 10.7102 15.0947 10.6213 15.1836C10.3682 15.4435 9.96814 15.5735 9.43123 15.5735ZM19.1024 19.4241C18.8493 19.684 18.4492 19.814 17.9123 19.814C17.3754 19.814 16.9753 19.684 16.7222 19.4241C16.476 19.171 16.3494 18.7744 16.3494 18.2409C16.3494 17.1671 16.8453 16.6678 17.9123 16.6678C18.9792 16.6678 19.4751 17.1671 19.4751 18.2409C19.4751 18.7744 19.3486 19.171 19.1024 19.4241Z" fill="#86888C"/>
<path d="M14 26C10.1767 26 7.20832 25.0083 5.17697 23.0522C3.07039 21.0208 2 17.9772 2 14C2 10.0262 3.06697 6.9792 5.17697 4.94785C7.2049 2.99174 10.1733 2 14 2C17.8267 2 20.7917 2.99174 22.823 4.94785C24.9296 6.9792 26 10.0228 26 14C26 17.9772 24.9296 21.0208 22.823 23.0522C20.7917 25.0083 17.8233 26 14 26ZM14 3.37133C10.5426 3.37133 7.89228 4.23311 6.12767 5.93616C4.29809 7.69735 3.37133 10.4127 3.37133 14.0034C3.37133 17.5942 4.29809 20.3061 6.12767 22.0707C7.89228 23.7737 10.5426 24.6355 14 24.6355C17.4574 24.6355 20.1077 23.7737 21.8723 22.0707C23.7019 20.3095 24.6287 17.5942 24.6287 14.0034C24.6287 10.4127 23.7019 7.70077 21.8723 5.93616C20.1077 4.23311 17.4574 3.37133 14 3.37133Z" fill="#86888C"/>
</svg>
