<svg width="24" height="24" viewBox="0 0 24 24" fill="none" xmlns="http://www.w3.org/2000/svg">
<path d="M15.2601 13.0831C14.5363 13.0831 13.9293 13.2969 13.5075 13.6987C13.422 13.7813 13.3422 13.8697 13.2738 13.9637L10.5836 12.6186C10.6207 12.4248 10.6378 12.2197 10.6378 12.0002C10.6378 11.7836 10.6207 11.5784 10.5836 11.3875L13.2767 10.0396C13.3308 10.1136 13.3907 10.182 13.4534 10.2476C13.8808 10.6865 14.5049 10.9173 15.2601 10.9173C16.0154 10.9173 16.6395 10.6865 17.0669 10.2476C17.4887 9.81727 17.7024 9.21596 17.7024 8.46646C17.7024 7.68276 17.4716 7.06435 17.0156 6.63118C16.591 6.22936 15.984 6.01562 15.263 6.01562C14.5391 6.01562 13.9321 6.22936 13.5104 6.63118C13.0544 7.06435 12.8236 7.68276 12.8236 8.46646C12.8236 8.646 12.835 8.81413 12.8606 8.97657L10.1219 10.3445C10.0706 10.2818 10.0136 10.2191 9.9538 10.1621C9.52917 9.76027 8.92216 9.54653 8.20116 9.54653C7.48016 9.54653 6.8703 9.76027 6.44852 10.1621C5.99255 10.5953 5.76172 11.2137 5.76172 11.9974C5.76172 12.7497 5.97545 13.3482 6.39723 13.7785C6.8247 14.2174 7.44881 14.4482 8.20401 14.4482C8.95921 14.4482 9.58332 14.2174 10.0108 13.7785C10.0507 13.7386 10.0849 13.6959 10.1219 13.6531L12.8635 15.0239C12.8407 15.1834 12.8264 15.3516 12.8264 15.5283C12.8264 16.2806 13.0401 16.8791 13.4619 17.3094C13.8894 17.7483 14.5135 17.9791 15.2687 17.9791C16.0239 17.9791 16.648 17.7483 17.0755 17.3094C17.4973 16.8791 17.711 16.2778 17.711 15.5283C17.711 14.7446 17.4802 14.1262 17.0242 13.693C16.591 13.2969 15.984 13.0831 15.2601 13.0831ZM15.2601 7.1584C16.1493 7.1584 16.5625 7.57447 16.5625 8.46931C16.5625 8.91103 16.4571 9.24446 16.2519 9.45534C16.041 9.67193 15.7076 9.78022 15.2601 9.78022C14.8127 9.78022 14.4793 9.67193 14.2684 9.45534C14.0632 9.24446 13.9578 8.91388 13.9578 8.46931C13.9578 7.57447 14.371 7.1584 15.2601 7.1584ZM8.19261 13.3111C7.74519 13.3111 7.41176 13.2028 7.20088 12.9862C6.99569 12.7754 6.89025 12.4448 6.89025 12.0002C6.89025 11.1054 7.30347 10.6893 8.19261 10.6893C8.78822 10.6893 9.1701 10.8774 9.35819 11.2707C9.36673 11.2963 9.37528 11.322 9.38953 11.3476C9.39238 11.3533 9.39523 11.359 9.39808 11.3619C9.46363 11.5385 9.49498 11.7494 9.49498 12.0002C9.49498 12.2624 9.45793 12.4847 9.38668 12.6671C9.37813 12.6842 9.36958 12.7013 9.36388 12.7184C9.31544 12.821 9.25844 12.9122 9.18435 12.9862C8.97346 13.2028 8.64003 13.3111 8.19261 13.3111ZM16.2519 16.52C16.041 16.7366 15.7076 16.8449 15.2601 16.8449C14.8127 16.8449 14.4793 16.7366 14.2684 16.52C14.0632 16.3091 13.9578 15.9785 13.9578 15.534C13.9578 14.6391 14.371 14.2231 15.2601 14.2231C16.1493 14.2231 16.5625 14.6391 16.5625 15.534C16.5625 15.9785 16.4571 16.3091 16.2519 16.52Z" fill="#86888C"/>
<path d="M12 22C8.81391 22 6.34027 21.1736 4.64748 19.5435C2.89199 17.8507 2 15.3143 2 12C2 8.68852 2.88914 6.14933 4.64748 4.45654C6.33742 2.82645 8.81106 2 12 2C15.1889 2 17.6597 2.82645 19.3525 4.45654C21.108 6.14933 22 8.68567 22 12C22 15.3143 21.108 17.8507 19.3525 19.5435C17.6597 21.1736 15.1861 22 12 22ZM12 3.14278C9.11884 3.14278 6.91023 3.86093 5.43973 5.28014C3.91508 6.74779 3.14278 9.01054 3.14278 12.0029C3.14278 14.9952 3.91508 17.2551 5.43973 18.7256C6.91023 20.1448 9.11884 20.8629 12 20.8629C14.8812 20.8629 17.0898 20.1448 18.5603 18.7256C20.0849 17.2579 20.8572 14.9952 20.8572 12.0029C20.8572 9.01054 20.0849 6.75064 18.5603 5.28014C17.0898 3.86093 14.8812 3.14278 12 3.14278Z" fill="#86888C"/>
</svg>
