<svg width="20" height="20" viewBox="0 0 20 20" fill="none" xmlns="http://www.w3.org/2000/svg">
<path d="M12.5917 10.8527C12.0136 10.8527 11.5287 11.0234 11.1918 11.3444C11.1235 11.4104 11.0598 11.4809 11.0052 11.5561L8.85636 10.4817C8.88595 10.3269 8.8996 10.163 8.8996 9.9877C8.8996 9.8147 8.88595 9.65081 8.85636 9.4983L11.0074 8.42162C11.0507 8.48081 11.0985 8.53544 11.1486 8.58779C11.49 8.93834 11.9885 9.12272 12.5917 9.12272C13.195 9.12272 13.6935 8.93834 14.0349 8.58779C14.3718 8.24407 14.5425 7.76378 14.5425 7.16512C14.5425 6.53914 14.3581 6.04519 13.9939 5.6992C13.6548 5.37824 13.1699 5.20752 12.594 5.20752C12.0158 5.20752 11.531 5.37824 11.1941 5.6992C10.8299 6.04519 10.6455 6.53914 10.6455 7.16512C10.6455 7.30852 10.6546 7.44282 10.6751 7.57257L8.4876 8.66518C8.44662 8.61511 8.4011 8.56503 8.3533 8.5195C8.01413 8.19855 7.52928 8.02783 6.95338 8.02783C6.37748 8.02783 5.89036 8.19855 5.55347 8.5195C5.18926 8.8655 5.00488 9.35945 5.00488 9.98542C5.00488 10.5864 5.1756 11.0644 5.51249 11.4081C5.85394 11.7586 6.35244 11.943 6.95566 11.943C7.55887 11.943 8.05738 11.7586 8.39882 11.4081C8.43069 11.3762 8.45801 11.3421 8.4876 11.3079L10.6774 12.4028C10.6592 12.5303 10.6478 12.6646 10.6478 12.8057C10.6478 13.4067 10.8185 13.8847 11.1554 14.2284C11.4968 14.579 11.9954 14.7633 12.5986 14.7633C13.2018 14.7633 13.7003 14.579 14.0417 14.2284C14.3786 13.8847 14.5493 13.4044 14.5493 12.8057C14.5493 12.1798 14.365 11.6858 14.0008 11.3398C13.6548 11.0234 13.1699 10.8527 12.5917 10.8527ZM12.5917 6.12031C13.3019 6.12031 13.632 6.45264 13.632 7.16739C13.632 7.52022 13.5478 7.78654 13.3839 7.95499C13.2154 8.12798 12.9491 8.21448 12.5917 8.21448C12.2344 8.21448 11.968 8.12798 11.7996 7.95499C11.6357 7.78654 11.5515 7.52249 11.5515 7.16739C11.5515 6.45264 11.8815 6.12031 12.5917 6.12031ZM6.94655 11.0348C6.58918 11.0348 6.32285 10.9483 6.15441 10.7753C5.99051 10.6068 5.90629 10.3428 5.90629 9.9877C5.90629 9.27295 6.23635 8.94061 6.94655 8.94061C7.4223 8.94061 7.72732 9.09085 7.87755 9.40497C7.88438 9.42546 7.89121 9.44595 7.90259 9.46643C7.90487 9.47099 7.90714 9.47554 7.90942 9.47781C7.96178 9.61894 7.98681 9.78739 7.98681 9.9877C7.98681 10.1971 7.95722 10.3747 7.90032 10.5203C7.89349 10.534 7.88666 10.5477 7.88211 10.5613C7.84341 10.6433 7.79788 10.7161 7.7387 10.7753C7.57025 10.9483 7.30393 11.0348 6.94655 11.0348ZM13.3839 13.5979C13.2154 13.7709 12.9491 13.8574 12.5917 13.8574C12.2344 13.8574 11.968 13.7709 11.7996 13.5979C11.6357 13.4294 11.5515 13.1654 11.5515 12.8103C11.5515 12.0955 11.8815 11.7632 12.5917 11.7632C13.3019 11.7632 13.632 12.0955 13.632 12.8103C13.632 13.1654 13.5478 13.4294 13.3839 13.5979Z" fill="#86888C"/>
<path d="M9.98748 17.975C7.44259 17.975 5.46678 17.3148 4.11467 16.0128C2.71248 14.6607 2 12.6348 2 9.98748C2 7.34244 2.7102 5.31427 4.11467 3.96216C5.4645 2.66012 7.44032 2 9.98748 2C12.5346 2 14.5082 2.66012 15.8603 3.96216C17.2625 5.31427 17.975 7.34016 17.975 9.98748C17.975 12.6348 17.2625 14.6607 15.8603 16.0128C14.5082 17.3148 12.5324 17.975 9.98748 17.975ZM9.98748 2.91279C7.68616 2.91279 5.92204 3.48641 4.74747 4.62C3.52966 5.79229 2.91279 7.59966 2.91279 9.98976C2.91279 12.3799 3.52966 14.1849 4.74747 15.3595C5.92204 16.4931 7.68616 17.0667 9.98748 17.0667C12.2888 17.0667 14.0529 16.4931 15.2275 15.3595C16.4453 14.1872 17.0622 12.3799 17.0622 9.98976C17.0622 7.59966 16.4453 5.79457 15.2275 4.62C14.0529 3.48641 12.2888 2.91279 9.98748 2.91279Z" fill="#86888C"/>
</svg>
