<svg width="28" height="28" viewBox="0 0 28 28" fill="none" xmlns="http://www.w3.org/2000/svg">
<path fill-rule="evenodd" clip-rule="evenodd" d="M23.0632 24.0096V15.3221C22.7661 15.3733 22.469 15.4006 22.1685 15.404C21.1303 15.404 20.1571 15.1069 19.4502 14.5913C18.7399 15.1069 17.7666 15.404 16.7319 15.404C15.6938 15.404 14.7205 15.1069 14.0137 14.5913C13.3034 15.1069 12.3301 15.404 11.2954 15.404C10.2504 15.404 9.27376 15.1035 8.56346 14.5776C7.85316 15.1001 6.87649 15.404 5.83153 15.404C5.52077 15.404 5.22368 15.3699 4.93682 15.3221V24.0062C4.93682 24.2964 5.19977 24.5321 5.52419 24.5321H10.6431V18.8121C10.6431 17.9789 11.3398 17.2993 12.2003 17.2993H15.8236C16.6841 17.2993 17.3808 17.9789 17.3808 18.8121V24.5321H22.469C22.8002 24.5355 23.0632 24.2965 23.0632 24.0096ZM15.9158 24.5355V18.8121C15.9158 18.8053 15.8884 18.7677 15.827 18.7677H12.2038C12.1423 18.7677 12.115 18.8053 12.115 18.8121V24.5321C12.1116 24.5355 15.9158 24.5355 15.9158 24.5355ZM3.69038 12.1018C3.54354 12.334 3.47183 12.4535 3.47183 12.6004C3.47183 13.2287 4.44166 13.9322 5.83495 13.9322C6.71599 13.9322 7.52533 13.6385 7.94878 13.1673C7.94878 13.1673 8.17758 12.9965 8.24929 12.9521C8.3654 12.8838 8.57371 12.8872 8.57371 12.8872C8.81275 12.8906 9.03813 12.9931 9.19522 13.1707C9.61184 13.6351 10.4212 13.9288 11.3022 13.9288C12.1764 13.9288 12.9824 13.6385 13.4092 13.1741C13.4092 13.1741 13.5868 12.9965 13.7029 12.9385C13.8088 12.8872 14.0171 12.9043 14.0171 12.9043C14.2322 12.9453 14.4747 12.9999 14.6318 13.1707C15.062 13.6419 15.868 13.9322 16.7422 13.9322C17.613 13.9322 18.4291 13.6283 18.8492 13.1843C18.8492 13.1843 19.0575 13.0102 19.1394 12.9589C19.2487 12.8906 19.4604 12.9077 19.4604 12.9077C19.6927 12.9077 19.918 13.0068 20.0751 13.1775C20.4986 13.6419 21.3045 13.9322 22.1787 13.9322C23.572 13.9322 24.5418 13.2287 24.5418 12.597C24.5418 12.3374 24.3847 12.1223 24.2516 11.9857L24.2481 11.9823C23.9886 11.7125 23.794 11.1593 23.2032 9.01131C23.0973 8.63566 23.012 8.31466 22.9539 8.13367L21.4752 3.47232L6.52476 3.51671C6.31986 4.16213 6.03301 5.0944 5.72225 6.09497C4.75925 9.19571 4.12066 11.2549 3.98748 11.5622C3.90211 11.7569 3.79624 11.9311 3.69038 12.1018ZM26 12.6038C26 13.5122 25.4229 14.301 24.5316 14.8098V24.0096C24.5316 25.1092 23.6096 26.0039 22.4758 26.0039H5.52419C4.39044 26.0039 3.46841 25.1092 3.46841 24.0096V14.8098C2.57712 14.2976 2 13.5122 2 12.6004C2 12.0198 2.25953 11.6135 2.44735 11.313C2.51565 11.2071 2.58395 11.1012 2.63859 10.9783C2.76153 10.6846 3.66306 7.77852 4.31873 5.65445C4.64656 4.59582 4.95048 3.61574 5.15879 2.95325C5.33978 2.40687 5.84178 2.04489 6.41207 2.04489L21.5777 2.00391H21.5811C22.1582 2.00391 22.6636 2.3693 22.8412 2.9191L24.3472 7.69998C24.4087 7.8878 24.5009 8.22929 24.6101 8.62884C24.798 9.30499 25.177 10.688 25.3409 11.0159C25.7712 11.4803 26 12.0267 26 12.6038Z" fill="#86888C"/>
</svg>
