<svg width="20" height="20" viewBox="0 0 20 20" fill="none" xmlns="http://www.w3.org/2000/svg">
<path fill-rule="evenodd" clip-rule="evenodd" d="M9.99772 17.0188C14.6557 17.0188 17.0188 14.6579 17.0188 10.0023C17.0188 5.34434 14.6579 2.98122 9.99772 2.98122C5.34206 2.98122 2.98122 5.34434 2.98122 10.0023C2.98122 14.6579 5.34206 17.0188 9.99772 17.0188ZM9.99772 2C15.2316 2 18 4.76608 18 10.0023C18 15.2339 15.2339 18 9.99772 18C4.76608 18 2 15.2339 2 10.0023C2 4.76608 4.76608 2 9.99772 2ZM11.5686 10.0137L13.3102 8.32897L11.5686 6.642V7.03813C11.5686 7.30905 11.2999 7.57086 11.029 7.57086H7.86454V13.7632H9.23961V9.5811C9.23961 9.31019 9.46044 9.09163 9.72908 9.09163H11.0268C11.1565 9.09163 11.3068 9.16449 11.3978 9.25555C11.4912 9.34661 11.5663 9.49232 11.5663 9.62208V10.0137H11.5686ZM11.7097 5.41264L14.2117 7.83495C14.3392 7.94195 14.428 8.13091 14.428 8.32897C14.428 8.52704 14.3415 8.71599 14.189 8.84348L11.7484 11.2043C11.7416 11.2112 11.7348 11.2157 11.7279 11.2225C11.712 11.2385 11.6915 11.2521 11.6733 11.2635C11.5071 11.4024 11.218 11.4388 10.9767 11.3227C10.7376 11.2089 10.5896 10.9744 10.5896 10.7103V10.0683H10.2231V14.2482C10.2231 14.5191 10.0023 14.7376 9.73364 14.7376H7.37735C7.10643 14.7376 6.88788 14.5191 6.88788 14.2482V7.51394C6.88788 7.26352 6.98577 7.02903 7.16107 6.85373C7.33409 6.67843 7.56858 6.58281 7.81673 6.58281H10.5896V5.93853C10.5896 5.67445 10.7399 5.43995 10.9812 5.32612C11.2203 5.21002 11.5003 5.24417 11.7097 5.41264Z" fill="#86888C"/>
</svg>
