<svg width="40" height="40" viewBox="0 0 40 40" fill="none" xmlns="http://www.w3.org/2000/svg">
<path fill-rule="evenodd" clip-rule="evenodd" d="M19.9949 36.7923C30.4752 36.7923 35.7923 31.4804 35.7923 21.0051C35.7923 10.5248 30.4804 5.20774 19.9949 5.20774C9.51964 5.20774 4.20774 10.5248 4.20774 21.0051C4.20774 31.4804 9.51964 36.7923 19.9949 36.7923ZM19.9949 3C31.7712 3 38 9.22368 38 21.0051C38 32.7763 31.7763 39 19.9949 39C8.22368 39 2 32.7763 2 21.0051C2 9.22368 8.22368 3 19.9949 3ZM23.5293 21.0307L27.4479 17.2402L23.5293 13.4445V14.3358C23.5293 14.9454 22.9249 15.5344 22.3153 15.5344H15.1952V29.4673H18.2891V20.0575C18.2891 19.4479 18.786 18.9562 19.3904 18.9562H22.3102C22.6022 18.9562 22.9402 19.1201 23.1451 19.325C23.3552 19.5299 23.5242 19.8577 23.5242 20.1497V21.0307H23.5293ZM23.8469 10.6784L29.4764 16.1286C29.7632 16.3694 29.963 16.7945 29.963 17.2402C29.963 17.6858 29.7684 18.111 29.4252 18.3978L23.934 23.7097C23.9186 23.7251 23.9032 23.7353 23.8879 23.7507C23.852 23.7866 23.8059 23.8173 23.7649 23.8429C23.391 24.1554 22.7405 24.2373 22.1975 23.9761C21.6596 23.72 21.3267 23.1924 21.3267 22.5982V21.1537H20.502V30.5583C20.502 31.1679 20.0051 31.6596 19.4007 31.6596H14.099C13.4895 31.6596 12.9977 31.1679 12.9977 30.5583V15.4064C12.9977 14.8429 13.218 14.3153 13.6124 13.9209C14.0017 13.5265 14.5293 13.3113 15.0876 13.3113H21.3267V11.8617C21.3267 11.2675 21.6648 10.7399 22.2077 10.4838C22.7456 10.2225 23.3756 10.2994 23.8469 10.6784Z" fill="#86888C"/>
</svg>
