<svg width="28" height="28" viewBox="0 0 28 28" fill="none" xmlns="http://www.w3.org/2000/svg">
<path fill-rule="evenodd" clip-rule="evenodd" d="M13.9966 24.5282C20.9835 24.5282 24.5282 20.9869 24.5282 14.0034C24.5282 7.01651 20.9869 3.47183 13.9966 3.47183C7.01309 3.47183 3.47183 7.01651 3.47183 14.0034C3.47183 20.9869 7.01309 24.5282 13.9966 24.5282ZM13.9966 2C21.8475 2 26 6.14912 26 14.0034C26 21.8509 21.8509 26 13.9966 26C6.14912 26 2 21.8509 2 14.0034C2 6.14912 6.14912 2 13.9966 2ZM16.3529 14.0205L18.9653 11.4935L16.3529 8.96301V9.5572C16.3529 9.96357 15.9499 10.3563 15.5435 10.3563H10.7968V19.6448H12.8594V13.3717C12.8594 12.9653 13.1907 12.6375 13.5936 12.6375H15.5401C15.7348 12.6375 15.9602 12.7467 16.0968 12.8833C16.2368 13.0199 16.3495 13.2385 16.3495 13.4331V14.0205H16.3529ZM16.5646 7.11895L20.3176 10.7524C20.5088 10.9129 20.642 11.1964 20.642 11.4935C20.642 11.7906 20.5122 12.074 20.2834 12.2652L16.6227 15.8065C16.6124 15.8167 16.6022 15.8236 16.5919 15.8338C16.568 15.8577 16.5373 15.8782 16.51 15.8953C16.2607 16.1036 15.827 16.1582 15.465 15.9841C15.1064 15.8133 14.8845 15.4616 14.8845 15.0655V14.1024H14.3347V20.3722C14.3347 20.7786 14.0034 21.1064 13.6005 21.1064H10.066C9.65965 21.1064 9.33182 20.7786 9.33182 20.3722V10.2709C9.33182 9.89528 9.47866 9.54354 9.7416 9.28059C10.0011 9.01764 10.3529 8.87422 10.7251 8.87422H14.8845V7.9078C14.8845 7.51167 15.1098 7.15993 15.4718 6.98919C15.8304 6.81503 16.2504 6.86625 16.5646 7.11895Z" fill="#86888C"/>
</svg>
