<svg width="28" height="28" viewBox="0 0 28 28" fill="none" xmlns="http://www.w3.org/2000/svg">
<path fill-rule="evenodd" clip-rule="evenodd" d="M10.3611 15.9972C11.0909 15.9835 12.3095 15.7001 12.3095 13.9516C12.3095 13.815 12.3027 13.6853 12.2857 13.5623C12.1228 12.1451 11.0026 11.9061 10.3509 11.8924L10.1099 11.889H10.1065C9.45479 11.8958 8.33803 12.1281 8.20565 13.6101C8.19547 13.7126 8.19207 13.8219 8.19207 13.9345C8.19207 15.6181 9.24773 15.9835 10.1303 15.9972H10.3611ZM13.8913 13.9516C13.8913 16.5743 12.0074 17.5441 10.3984 17.5714C10.3509 17.5714 10.2932 17.5748 10.2355 17.5748H10.1167C8.50096 17.5509 6.61708 16.5845 6.61708 13.9345C6.61708 13.774 6.62386 13.6204 6.63744 13.4735C6.84111 11.1651 8.62995 10.3284 10.0963 10.3147C10.1948 10.3113 10.3034 10.3147 10.3916 10.3182C11.9021 10.3557 13.6061 11.1787 13.8607 13.3847C13.8777 13.5589 13.8913 13.7501 13.8913 13.9516ZM19.8077 15.9972C20.5375 15.9835 21.7561 15.7001 21.7561 13.9516C21.7561 13.815 21.7493 13.6853 21.7323 13.5623C21.5694 12.1451 20.4492 11.9061 19.7975 11.8924L19.5565 11.889H19.5531C18.9014 11.8958 17.7846 12.1281 17.6522 13.6101C17.6421 13.7126 17.6387 13.8219 17.6387 13.9345C17.6387 15.6181 18.6943 15.9835 19.5769 15.9972H19.8077ZM23.3039 13.3813C23.3243 13.5589 23.3378 13.7501 23.3378 13.9516C23.3378 16.5743 21.454 17.5441 19.845 17.5714C19.7975 17.5714 19.7398 17.5748 19.6821 17.5748H19.5633C17.9476 17.5509 16.0637 16.5845 16.0637 13.9345C16.0637 13.774 16.0705 13.6204 16.084 13.4735C16.2877 11.1651 18.0765 10.3284 19.5429 10.3147C19.6312 10.3147 19.7466 10.3147 19.8382 10.3182C21.3453 10.3523 23.0493 11.1753 23.3039 13.3813ZM14.2477 18.3193C14.6516 18.49 14.8383 18.9511 14.6686 19.3506L14.2273 20.3956C14.0983 20.6961 13.8064 20.8771 13.5009 20.8771C13.3991 20.8771 13.2938 20.8566 13.1954 20.8156C12.7915 20.6448 12.6048 20.1838 12.7745 19.7843L13.2158 18.7393C13.3855 18.3398 13.8505 18.1554 14.2477 18.3193ZM16.3352 18.7393L16.7765 19.7809C16.9462 20.1838 16.7561 20.6448 16.3556 20.8122C16.2571 20.8532 16.1519 20.8736 16.0501 20.8736C15.7412 20.8736 15.4493 20.6927 15.3203 20.3921L14.879 19.3506C14.7093 18.9476 14.8994 18.4866 15.2999 18.3193C15.7005 18.152 16.1655 18.3364 16.3352 18.7393ZM20.5748 21.8127C23.0391 20.2931 24.2849 17.6431 24.2849 13.9414C24.2849 10.2533 23.0425 7.60672 20.5918 6.07342C18.5518 4.79624 16.2538 4.61525 15.3576 4.59135C15.0487 4.5811 14.7161 4.5811 14.4106 4.5811H14.3597C11.7155 4.59476 5.57839 5.53045 5.57839 13.8833C5.57839 17.6466 6.82413 20.317 9.28507 21.823L10.0386 22.284V23.9573C10.0386 24.3295 10.0963 24.8213 10.3781 25.0672C10.6428 25.3096 11.1112 25.4291 11.7155 25.4291H18.1818C18.6061 25.4291 19.1729 25.3711 19.4852 25.0876C19.7669 24.8349 19.8247 24.333 19.8247 23.9573V22.2738L20.5748 21.8127ZM15.395 3.01366C17.53 3.06147 25.8667 3.91178 25.8667 13.938C25.8667 18.9818 23.7655 21.6966 21.4064 23.1514V23.9505C21.4064 24.9511 21.1247 25.7331 20.5544 26.2453C20.0046 26.7439 19.2103 27 18.1852 27H11.7188C10.6903 27 9.88587 26.7439 9.33598 26.2453C8.75215 25.7331 8.46023 24.9511 8.46023 23.9505V23.1616C6.10113 21.7171 4 18.9818 4 13.8765C4 3.76494 12.1601 3.01024 14.3563 3C14.6923 3.00341 15.0691 3.00341 15.395 3.01366Z" fill="#86888C"/>
</svg>
