<svg width="20" height="20" viewBox="0 0 20 20" fill="none" xmlns="http://www.w3.org/2000/svg">
<path fill-rule="evenodd" clip-rule="evenodd" d="M7.24073 10.6648C7.72725 10.6557 8.53965 10.4667 8.53965 9.30108C8.53965 9.21002 8.53512 9.12351 8.52381 9.04155C8.41518 8.09676 7.66842 7.93739 7.23394 7.92829L7.07327 7.92601H7.07101C6.63652 7.93056 5.89202 8.08537 5.80377 9.07342C5.79698 9.14172 5.79472 9.21457 5.79472 9.2897C5.79472 10.4121 6.49849 10.6557 7.08685 10.6648H7.24073ZM9.59417 9.30108C9.59417 11.0495 8.33825 11.6961 7.26562 11.7143C7.23394 11.7143 7.19547 11.7166 7.157 11.7166H7.07779C6.00064 11.7006 4.74472 11.0563 4.74472 9.2897C4.74472 9.1827 4.74924 9.08025 4.75829 8.98236C4.89407 7.44337 6.08663 6.8856 7.06422 6.87649C7.12984 6.87422 7.20226 6.87649 7.26109 6.87877C8.26809 6.90381 9.40408 7.45248 9.5738 8.92316C9.58512 9.03927 9.59417 9.16676 9.59417 9.30108ZM13.5385 10.6648C14.025 10.6557 14.8374 10.4667 14.8374 9.30108C14.8374 9.21002 14.8328 9.12351 14.8215 9.04155C14.7129 8.09676 13.9661 7.93739 13.5317 7.92829L13.371 7.92601H13.3687C12.9343 7.93056 12.1897 8.08537 12.1015 9.07342C12.0947 9.14172 12.0924 9.21457 12.0924 9.2897C12.0924 10.4121 12.7962 10.6557 13.3846 10.6648H13.5385ZM15.8693 8.92089C15.8828 9.03927 15.8919 9.16676 15.8919 9.30108C15.8919 11.0495 14.636 11.6961 13.5633 11.7143C13.5317 11.7143 13.4932 11.7166 13.4547 11.7166H13.3755C12.2984 11.7006 11.0424 11.0563 11.0424 9.2897C11.0424 9.1827 11.047 9.08025 11.056 8.98236C11.1918 7.44337 12.3844 6.8856 13.3619 6.87649C13.4208 6.87649 13.4977 6.87649 13.5588 6.87877C14.5636 6.90154 15.6995 7.4502 15.8693 8.92089ZM9.83178 12.2129C10.1011 12.3267 10.2255 12.634 10.1124 12.9004L9.8182 13.597C9.73221 13.7974 9.5376 13.918 9.33393 13.918C9.26605 13.918 9.1959 13.9044 9.13027 13.8771C8.86098 13.7632 8.73652 13.4559 8.84967 13.1895L9.14385 12.4929C9.25699 12.2265 9.56702 12.1036 9.83178 12.2129ZM11.2235 12.4929L11.5177 13.1873C11.6308 13.4559 11.5041 13.7632 11.2371 13.8748C11.1714 13.9021 11.1013 13.9158 11.0334 13.9158C10.8275 13.9158 10.6329 13.7951 10.5469 13.5948L10.2527 12.9004C10.1395 12.6318 10.2663 12.3244 10.5333 12.2129C10.8003 12.1013 11.1103 12.2242 11.2235 12.4929ZM14.0499 14.5418C15.6928 13.5287 16.5233 11.7621 16.5233 9.29425C16.5233 6.83552 15.695 5.07114 14.0612 4.04895C12.7012 3.1975 11.1692 3.07684 10.5718 3.0609C10.3658 3.05407 10.1441 3.05407 9.9404 3.05407H9.90645C8.14363 3.06318 4.05226 3.68697 4.05226 9.25555C4.05226 11.7644 4.88276 13.5447 6.52338 14.5487L7.02575 14.856V15.9715C7.02575 16.2197 7.06422 16.5475 7.25204 16.7114C7.42855 16.8731 7.74083 16.9528 8.14363 16.9528H12.4545C12.7374 16.9528 13.1153 16.9141 13.3235 16.7251C13.5113 16.5566 13.5498 16.222 13.5498 15.9715V14.8492L14.0499 14.5418ZM10.5966 2.00911C12.02 2.04098 17.5778 2.60785 17.5778 9.29198C17.5778 12.6545 16.177 14.4644 14.6043 15.4343V15.967C14.6043 16.634 14.4165 17.1554 14.0363 17.4969C13.6697 17.8293 13.1402 18 12.4568 18H8.1459C7.46023 18 6.92392 17.8293 6.55732 17.4969C6.1681 17.1554 5.97349 16.634 5.97349 15.967V15.4411C4.40075 14.4781 3 12.6545 3 9.251C3 2.50996 8.44008 2.00683 9.90419 2C10.1282 2.00228 10.3794 2.00228 10.5966 2.00911Z" fill="#86888C"/>
</svg>
