<svg width="40" height="40" viewBox="0 0 40 40" fill="none" xmlns="http://www.w3.org/2000/svg">
<path fill-rule="evenodd" clip-rule="evenodd" d="M13.5416 22.4957C14.6363 22.4752 16.4642 22.0501 16.4642 19.4274C16.4642 19.2225 16.454 19.0279 16.4286 18.8435C16.1842 16.7177 14.5039 16.3591 13.5264 16.3386L13.1649 16.3335H13.1598C12.1822 16.3438 10.507 16.6921 10.3085 18.9152C10.2932 19.0689 10.2881 19.2328 10.2881 19.4018C10.2881 21.9271 11.8716 22.4752 13.1954 22.4957H13.5416ZM18.8369 19.4274C18.8369 23.3614 16.0111 24.8162 13.5976 24.8571C13.5264 24.8571 13.4398 24.8623 13.3532 24.8623H13.175C10.7514 24.8264 7.92561 23.3768 7.92561 19.4018C7.92561 19.1611 7.9358 18.9306 7.95616 18.7103C8.26166 15.2476 10.9449 13.9926 13.1445 13.9721C13.2921 13.967 13.4551 13.9721 13.5875 13.9772C15.8532 14.0336 18.4092 15.2681 18.7911 18.5771C18.8165 18.8384 18.8369 19.1252 18.8369 19.4274ZM27.7115 22.4957C28.8062 22.4752 30.6341 22.0501 30.6341 19.4274C30.6341 19.2225 30.6239 19.0279 30.5984 18.8435C30.3541 16.7177 28.6738 16.3591 27.6962 16.3386L27.3347 16.3335H27.3296C26.3521 16.3438 24.6769 16.6921 24.4784 18.9152C24.4631 19.0689 24.458 19.2328 24.458 19.4018C24.458 21.9271 26.0415 22.4752 27.3653 22.4957H27.7115ZM32.9559 18.572C32.9864 18.8384 33.0068 19.1252 33.0068 19.4274C33.0068 23.3614 30.1809 24.8162 27.7675 24.8571C27.6962 24.8571 27.6097 24.8623 27.5231 24.8623H27.3449C24.9213 24.8264 22.0955 23.3768 22.0955 19.4018C22.0955 19.1611 22.1057 18.9306 22.126 18.7103C22.4315 15.2476 25.1148 13.9926 27.3144 13.9721C27.4468 13.9721 27.6199 13.9721 27.7573 13.9772C30.018 14.0285 32.574 15.2629 32.9559 18.572ZM19.3715 25.9789C19.9774 26.2351 20.2574 26.9266 20.0029 27.5259L19.341 29.0933C19.1475 29.5441 18.7096 29.8156 18.2514 29.8156C18.0986 29.8156 17.9408 29.7849 17.7931 29.7234C17.1872 29.4673 16.9072 28.7758 17.1618 28.1764L17.8237 26.609C18.0782 26.0097 18.7758 25.7331 19.3715 25.9789ZM22.5028 26.609L23.1647 28.1713C23.4193 28.7758 23.1342 29.4673 22.5334 29.7183C22.3857 29.7797 22.2279 29.8105 22.0751 29.8105C21.6118 29.8105 21.1739 29.539 20.9804 29.0882L20.3185 27.5259C20.064 26.9215 20.3491 26.2299 20.9499 25.9789C21.5507 25.7279 22.2482 26.0046 22.5028 26.609ZM28.8622 31.2191C32.5587 28.9397 34.4273 24.9647 34.4273 19.4121C34.4273 13.8799 32.5638 9.91007 28.8877 7.61013C25.8276 5.69437 22.3806 5.42288 21.0364 5.38702C20.5731 5.37166 20.0741 5.37166 19.6159 5.37166H19.5395C15.5732 5.39215 6.36759 6.79567 6.36759 19.325C6.36759 24.9698 8.2362 28.9755 11.9276 31.2345L13.0579 31.926V34.436C13.0579 34.9943 13.1445 35.7319 13.5671 36.1007C13.9642 36.4644 14.6669 36.6437 15.5732 36.6437H25.2726C25.9091 36.6437 26.7594 36.5566 27.2278 36.1315C27.6504 35.7524 27.737 34.9994 27.737 34.436V31.9106L28.8622 31.2191ZM21.0925 3.02049C24.2951 3.0922 36.8 4.36767 36.8 19.4069C36.8 26.9727 33.6483 31.045 30.1097 33.2271V34.4257C30.1097 35.9266 29.6871 37.0996 28.8317 37.868C28.0068 38.6158 26.8154 39 25.2777 39H15.5783C14.0355 39 12.8288 38.6158 12.004 37.868C11.1282 37.0996 10.6903 35.9266 10.6903 34.4257V33.2425C7.15169 31.0757 4 26.9727 4 19.3147C4 4.14741 16.2402 3.01537 19.5344 3C20.0385 3.00512 20.6037 3.00512 21.0925 3.02049Z" fill="#86888C"/>
</svg>
