<svg width="28" height="28" viewBox="0 0 28 28" fill="none" xmlns="http://www.w3.org/2000/svg">
<path d="M24.9081 18.5264V7.66667C24.9081 6.17537 23.654 4.96113 22.1102 4.96113H5.90889C4.3651 4.96113 3.10758 6.17195 3.10758 7.66667V18.5264C3.10758 19.833 3.98682 20.9276 5.24435 21.1738C5.47609 21.2217 5.63967 21.4167 5.63967 21.6458V24.2727C5.63967 24.6011 5.97705 24.9123 6.33488 24.9123C6.45416 24.9123 6.69612 24.9123 6.9449 24.5942L9.50426 21.4167C9.59968 21.297 9.74281 21.232 9.89276 21.232H22.1034C23.654 21.232 24.9081 20.0177 24.9081 18.5264ZM22.0011 4.11971C24.0766 4.11971 25.7703 5.75466 25.7703 7.76586V18.5675C25.7703 20.5821 24.0766 22.2136 22.0011 22.2136H10.0938L7.70487 25.1825C7.35045 25.6409 6.88356 25.8769 6.31444 25.8769C5.40452 25.8769 4.63774 25.1483 4.63774 24.2864V22.0392C3.13484 21.5603 2.11587 20.1853 2.11587 18.5641V7.76586C2.11928 5.75466 3.81302 4.11971 5.88844 4.11971H22.0011ZM7.72191 12.7631C8.59093 13.1017 9.67465 13.519 9.67465 14.935C9.67465 16.1869 8.78859 16.9052 7.24821 16.9052C6.47802 16.9052 5.81688 16.7376 5.54765 16.6384C5.37385 16.5768 5.27502 16.3921 5.31932 16.2142L5.38407 15.9509C5.40793 15.8517 5.47609 15.7696 5.56469 15.7217C5.65671 15.6704 5.76235 15.6601 5.86118 15.6909C6.78473 15.9748 7.88549 15.9611 8.30807 15.6807C8.43417 15.602 8.63864 15.4002 8.63864 14.9487C8.63864 14.2441 8.15472 14.0218 7.29592 13.69C6.45075 13.3616 5.40111 12.9512 5.40111 11.6138C5.40111 11.0392 5.60218 10.5603 5.98387 10.232C6.63137 9.67444 7.81052 9.58893 9.08167 9.94807C9.27252 9.99938 9.38839 10.1909 9.34067 10.3859L9.27592 10.639C9.24866 10.7348 9.18732 10.8169 9.09871 10.8647C9.01011 10.9126 8.90787 10.9263 8.80904 10.8989C8.44098 10.7895 8.0627 10.7348 7.67761 10.7313C6.4269 10.7313 6.4269 11.3231 6.4269 11.5728C6.4269 12.2261 6.89719 12.4415 7.72191 12.7631ZM16.7086 9.80784C16.9131 9.80442 17.0767 9.96859 17.0801 10.167V16.3237C17.0767 16.5289 16.9097 16.6863 16.7086 16.6828H16.4496C16.2451 16.6863 16.0816 16.5221 16.0781 16.3237V12.1474L14.4526 15.1402C14.3844 15.26 14.2583 15.3352 14.1254 15.3352H13.8494C13.7096 15.3352 13.587 15.26 13.5188 15.1368L11.958 12.185V16.3271C11.9546 16.5323 11.7876 16.6897 11.5865 16.6863H11.3275C11.123 16.6897 10.9594 16.5255 10.956 16.3271V10.1704C10.956 9.96859 11.123 9.81126 11.3275 9.81126H11.6069C11.7467 9.81126 11.8728 9.8865 11.9375 10.0096L14.0027 13.9157L16.1259 10.0028C16.194 9.88308 16.3201 9.80784 16.4564 9.80784H16.7086ZM20.6311 12.7015C21.4933 13.0367 22.5702 13.4506 22.5702 14.8563C22.5702 16.0979 21.691 16.8128 20.1608 16.8128C19.3975 16.8128 18.7397 16.6452 18.4739 16.5494C18.3001 16.4879 18.2047 16.3066 18.2456 16.1287L18.3103 15.8688C18.3342 15.7696 18.4024 15.6875 18.491 15.6396C18.583 15.5883 18.6886 15.578 18.784 15.6088C19.7008 15.8893 20.7947 15.8756 21.2139 15.5986C21.34 15.5199 21.5411 15.3215 21.5411 14.8734C21.5411 14.1723 21.0605 13.9534 20.2086 13.625C19.3702 13.3001 18.324 12.893 18.324 11.5625C18.324 10.9913 18.525 10.5159 18.9067 10.1909C19.5508 9.63682 20.7197 9.55131 21.9841 9.91045C22.1749 9.96175 22.2874 10.1533 22.2397 10.3448L22.1749 10.5945C22.1477 10.6903 22.0863 10.7724 21.9977 10.8203C21.9091 10.8682 21.8035 10.8818 21.7115 10.8545C21.3468 10.745 20.9719 10.6903 20.5902 10.6869C19.3498 10.6869 19.3498 11.2752 19.3498 11.5215C19.3429 12.1679 19.8098 12.38 20.6311 12.7015Z" fill="#86888C"/>
<path d="M6.31784 26C5.34318 26 4.52187 25.2167 4.52187 24.2898V22.1315C3.79257 21.8818 3.17233 21.4235 2.71907 20.8044C2.24878 20.158 2 19.385 2 18.5675V7.76586C2 5.68968 3.74486 4 5.88844 4H22.0011C24.1447 4 25.8896 5.68968 25.8896 7.76586V18.5675C25.8896 20.6437 24.1447 22.3333 22.0011 22.3333H10.1518L7.79688 25.2578C7.42201 25.7503 6.92105 26 6.31784 26ZM5.88844 4.23943C3.87777 4.23943 2.23855 5.82307 2.23855 7.76586V18.5675C2.23855 20.1135 3.21663 21.4646 4.67522 21.9297L4.75701 21.9571V24.2898C4.75701 25.0868 5.46927 25.7606 6.31444 25.7606C6.84266 25.7606 7.27888 25.5417 7.60945 25.1107L10.0359 22.0939H21.9977C24.0118 22.0939 25.6476 20.5103 25.6476 18.5675V7.76586C25.6476 5.81965 24.0118 4.23943 21.9977 4.23943H5.88844ZM6.33488 25.0354C5.90889 25.0354 5.52039 24.6729 5.52039 24.2761V21.6493C5.52039 21.4782 5.3943 21.3312 5.22049 21.2935C3.90503 21.0336 2.9883 19.898 2.9883 18.5264V7.66667C2.9883 6.10697 4.29694 4.84142 5.90889 4.84142H22.1102C23.7187 4.84142 25.0274 6.11039 25.0274 7.66667V18.5264C25.0274 20.0827 23.7153 21.3483 22.1034 21.3517H9.89276C9.77689 21.3517 9.66443 21.403 9.59627 21.4885L7.03692 24.666C6.75747 25.0354 6.46098 25.0354 6.33488 25.0354ZM5.90889 5.08085C4.42985 5.08085 3.22685 6.24036 3.22685 7.66667V18.5264C3.22685 19.7817 4.0652 20.8215 5.2682 21.0575C5.55447 21.1157 5.75894 21.3654 5.75894 21.6458V24.2727C5.75894 24.5361 6.0418 24.7926 6.33488 24.7926C6.44053 24.7926 6.63819 24.7926 6.84948 24.519L9.40883 21.338C9.5247 21.1943 9.69851 21.1088 9.88935 21.1088H22.1C23.5824 21.1054 24.7854 19.9459 24.7854 18.523V7.66667C24.7854 6.24036 23.5824 5.08085 22.1068 5.08085H5.90889ZM7.24821 17.0249C6.46098 17.0249 5.7828 16.8539 5.50676 16.7512C5.27502 16.6692 5.14552 16.4263 5.20345 16.1869L5.2682 15.9235C5.29887 15.7935 5.38748 15.6841 5.50676 15.6191C5.62603 15.5541 5.76235 15.537 5.89526 15.578C6.8563 15.8722 7.88549 15.8175 8.23991 15.5815C8.34556 15.5165 8.51596 15.3489 8.51596 14.9487C8.51596 14.3501 8.1479 14.1483 7.24821 13.8029C6.41667 13.4779 5.27843 13.0367 5.27843 11.6138C5.27843 11.0016 5.49313 10.4919 5.90208 10.1396C6.56662 9.56841 7.76621 9.45211 9.10894 9.83178C9.36453 9.90019 9.51448 10.1567 9.45314 10.4132L9.38839 10.6664C9.3509 10.7998 9.2657 10.9058 9.15324 10.9674C9.03737 11.0323 8.90105 11.046 8.77496 11.0118C8.42054 10.9058 8.05248 10.8511 7.6742 10.8476C6.54277 10.8476 6.54277 11.3368 6.54277 11.5693C6.54277 12.1166 6.89719 12.3116 7.7628 12.6468L7.77303 12.6502C8.62501 12.982 9.79393 13.4369 9.79393 14.9316C9.79393 15.5815 9.55878 16.1185 9.11575 16.4776C8.66931 16.8436 8.04225 17.0249 7.24821 17.0249ZM5.74872 15.7935C5.70442 15.7935 5.66352 15.8038 5.62263 15.8277C5.55788 15.8619 5.51357 15.9167 5.49994 15.9817L5.43519 16.245C5.40452 16.3613 5.47268 16.4879 5.58855 16.5289C5.85096 16.6247 6.49506 16.7889 7.24821 16.7889C8.71362 16.7889 9.55537 16.1151 9.55537 14.9384C9.55537 13.6079 8.56367 13.2214 7.68783 12.8828L7.67761 12.8794C6.82903 12.5476 6.30762 12.3081 6.30762 11.5762C6.30762 11.3128 6.30762 10.615 7.67761 10.615C8.07974 10.6185 8.46825 10.6766 8.84312 10.7861C8.90787 10.8032 8.97943 10.7963 9.04078 10.7621C9.09871 10.7313 9.13961 10.6766 9.16006 10.6082L9.22481 10.3585C9.25548 10.2285 9.1805 10.102 9.051 10.0678C7.78325 9.70864 6.66545 9.80784 6.06225 10.3277C5.70782 10.6322 5.52039 11.0802 5.52039 11.6172C5.52039 12.8759 6.48824 13.2522 7.34022 13.5805C8.21947 13.9192 8.75792 14.1688 8.75792 14.9521C8.75792 15.4686 8.51596 15.6943 8.36942 15.7867C7.91275 16.0877 6.7711 16.1014 5.82369 15.8106C5.79984 15.797 5.77598 15.7935 5.74872 15.7935ZM20.1608 16.9325C19.3804 16.9325 18.7057 16.7615 18.4296 16.6589C18.1979 16.5768 18.0684 16.334 18.1297 16.0979L18.1945 15.838C18.2251 15.7114 18.3137 15.5986 18.433 15.5336C18.5523 15.4686 18.6886 15.4549 18.8181 15.4925C19.7723 15.7867 20.7913 15.732 21.1457 15.496C21.2514 15.431 21.4218 15.2668 21.4218 14.87C21.4218 14.2749 21.0571 14.0765 20.1643 13.731C19.3361 13.4095 18.2047 12.9683 18.2047 11.5591C18.2047 10.9502 18.4194 10.444 18.8283 10.0951C19.4895 9.52736 20.6788 9.41107 22.0148 9.79073C22.2635 9.85914 22.4169 10.1191 22.3555 10.3688L22.2908 10.6219C22.2533 10.7553 22.1715 10.8613 22.0557 10.9229C21.9398 10.9845 21.8001 11.0016 21.6774 10.9674C21.3264 10.8647 20.9617 10.81 20.5902 10.8066C19.469 10.8066 19.469 11.2889 19.469 11.5215C19.4622 12.0653 19.8132 12.2568 20.6754 12.592L20.6857 12.5955C21.5308 12.9238 22.6929 13.3753 22.6929 14.8598C22.6929 15.5062 22.4578 16.0398 22.0182 16.3955C21.5751 16.7512 20.9515 16.9325 20.1608 16.9325ZM18.6716 15.7114C18.6273 15.7114 18.5864 15.7217 18.5489 15.7456C18.4876 15.7799 18.4432 15.8346 18.4262 15.8961L18.3615 16.1595C18.3308 16.2758 18.3989 16.3989 18.5114 16.44C18.7738 16.5358 19.4111 16.6965 20.1608 16.6965C21.616 16.6965 22.451 16.0261 22.451 14.8598C22.451 13.5395 21.4661 13.1564 20.5971 12.8178L20.5868 12.8144C19.7383 12.486 19.2203 12.2466 19.2271 11.518C19.2271 11.2581 19.2271 10.5637 20.5868 10.5637C20.9822 10.5672 21.3707 10.6253 21.7421 10.7348C21.8035 10.7519 21.8784 10.745 21.9398 10.7108C21.9977 10.68 22.0386 10.6253 22.0591 10.5603L22.1238 10.3106C22.1545 10.1841 22.0761 10.0541 21.95 10.0199C20.6925 9.66418 19.5815 9.75995 18.9817 10.2764C18.6273 10.5774 18.4398 11.0221 18.4398 11.5591C18.4398 12.8075 19.4009 13.1803 20.2495 13.5087C21.1219 13.8473 21.6603 14.0936 21.6603 14.87C21.6603 15.3831 21.4184 15.6088 21.2752 15.6978C20.822 15.9988 19.6871 16.009 18.7466 15.7217C18.7227 15.7149 18.6988 15.7114 18.6716 15.7114ZM11.3139 16.806C11.0515 16.806 10.8368 16.5939 10.8299 16.3271V10.167C10.8299 9.90361 11.0515 9.68812 11.3207 9.68812H11.6001C11.7842 9.68812 11.9511 9.78731 12.0363 9.94807L13.9959 13.6558L16.01 9.93781C16.102 9.78047 16.2656 9.68128 16.4462 9.68128H16.7018C16.9676 9.67786 17.1891 9.88993 17.1925 10.1601V16.3203C17.1891 16.5871 16.971 16.7991 16.7086 16.7991C16.7052 16.7991 16.7018 16.7991 16.7018 16.7991H16.4428C16.177 16.8026 15.9555 16.5905 15.9521 16.3203V12.6126L14.5582 15.195C14.4696 15.3523 14.3026 15.4515 14.1254 15.4515H13.8494C13.6687 15.4515 13.5018 15.3523 13.4131 15.1915L12.0772 12.6639V16.3271C12.0738 16.4605 12.0227 16.5802 11.9307 16.6726C11.8387 16.7615 11.716 16.8128 11.5865 16.8094H11.3275C11.3207 16.806 11.3173 16.806 11.3139 16.806ZM11.3241 9.93097C11.181 9.93097 11.0719 10.037 11.0719 10.1704V16.3271C11.0753 16.4605 11.1878 16.57 11.3241 16.5665H11.5865C11.6547 16.5665 11.716 16.5426 11.7637 16.4981C11.8114 16.4537 11.8387 16.3921 11.8387 16.3237V11.7027L13.6244 15.0787C13.6687 15.1608 13.7539 15.2121 13.8494 15.2121H14.1254C14.2174 15.2121 14.3026 15.1608 14.3503 15.0787L16.1974 11.6754V16.3237C16.2008 16.4571 16.3099 16.5631 16.4428 16.5631H16.712C16.8517 16.5631 16.9574 16.4571 16.9608 16.3203V10.167C16.9574 10.0336 16.8449 9.92413 16.7086 9.92755H16.4496C16.3542 9.92755 16.269 9.97886 16.2213 10.0609L13.9959 14.1654L11.8319 10.0644C11.7876 9.98228 11.7024 9.93097 11.6069 9.93097H11.3241Z" fill="#86888C"/>
</svg>
