<svg width="40" height="40" viewBox="0 0 40 40" fill="none" xmlns="http://www.w3.org/2000/svg">
<path d="M36.3621 26.044V9.75439C36.3621 7.51745 34.481 5.69609 32.1653 5.69609H7.86334C5.54765 5.69609 3.66136 7.51232 3.66136 9.75439V26.044C3.66136 28.0039 4.98023 29.6457 6.86652 30.0151C7.21413 30.087 7.4595 30.3794 7.4595 30.7231V34.6634C7.4595 35.156 7.96558 35.6229 8.50233 35.6229C8.68124 35.6229 9.04419 35.6229 9.41735 35.1457L13.2564 30.3794C13.3995 30.1998 13.6142 30.1023 13.8391 30.1023H32.155C34.481 30.1023 36.3621 28.281 36.3621 26.044ZM32.0017 4.43397C35.1148 4.43397 37.6554 6.88639 37.6554 9.90318V26.1056C37.6554 29.1275 35.1148 31.5748 32.0017 31.5748H14.1407L10.5573 36.0282C10.0257 36.7157 9.32534 37.0697 8.47165 37.0697C7.10678 37.0697 5.9566 35.9769 5.9566 34.684V31.3132C3.70226 30.5949 2.1738 28.5324 2.1738 26.1005V9.90318C2.17892 6.88639 4.71953 4.43397 7.83267 4.43397H32.0017ZM10.5829 17.399C11.8864 17.9069 13.512 18.5328 13.512 20.6569C13.512 22.5347 12.1829 23.6121 9.87231 23.6121C8.71703 23.6121 7.72532 23.3607 7.32148 23.212C7.06077 23.1196 6.91253 22.8425 6.97898 22.5758L7.07611 22.1807C7.11189 22.0319 7.21413 21.9088 7.34704 21.837C7.48506 21.76 7.64353 21.7446 7.79177 21.7908C9.1771 22.2166 10.8282 22.1961 11.4621 21.7754C11.6513 21.6574 11.958 21.3547 11.958 20.6774C11.958 19.6205 11.2321 19.287 9.94388 18.7894C8.67613 18.2968 7.10167 17.6812 7.10167 15.6751C7.10167 14.8132 7.40327 14.0949 7.9758 13.6023C8.94706 12.7661 10.7158 12.6378 12.6225 13.1765C12.9088 13.2535 13.0826 13.5408 13.011 13.8332L12.9139 14.2129C12.873 14.3565 12.781 14.4797 12.6481 14.5515C12.5152 14.6233 12.3618 14.6439 12.2136 14.6028C11.6615 14.4386 11.0941 14.3565 10.5164 14.3514C8.64035 14.3514 8.64035 15.239 8.64035 15.6135C8.64035 16.5935 9.34579 16.9167 10.5829 17.399ZM24.0629 12.9661C24.3696 12.961 24.615 13.2073 24.6201 13.5049V22.7399C24.615 23.0478 24.3645 23.2838 24.0629 23.2786H23.6744C23.3677 23.2838 23.1223 23.0375 23.1172 22.7399V16.4755L20.6789 20.9647C20.5766 21.1443 20.3875 21.2572 20.1881 21.2572H19.774C19.5645 21.2572 19.3804 21.1443 19.2782 20.9596L16.9369 16.5319V22.7451C16.9318 23.0529 16.6814 23.2889 16.3798 23.2838H15.9912C15.6845 23.2889 15.4392 23.0426 15.434 22.7451V13.51C15.434 13.2073 15.6845 12.9713 15.9912 12.9713H16.4104C16.62 12.9713 16.8091 13.0842 16.9063 13.2689L20.0041 19.128L23.1888 13.2586C23.291 13.079 23.4802 12.9661 23.6846 12.9661H24.0629ZM29.9467 17.3066C31.24 17.8094 32.8554 18.4302 32.8554 20.5389C32.8554 22.4013 31.5365 23.4736 29.2413 23.4736C28.0962 23.4736 27.1096 23.2222 26.7109 23.0786C26.4502 22.9862 26.307 22.7143 26.3684 22.4475L26.4655 22.0576C26.5013 21.9088 26.6035 21.7856 26.7364 21.7138C26.8745 21.6369 27.0329 21.6215 27.1761 21.6676C28.5512 22.0884 30.1921 22.0678 30.8208 21.6522C31.01 21.5342 31.3116 21.2367 31.3116 20.5646C31.3116 19.5128 30.5908 19.1844 29.3128 18.6919C28.0553 18.2045 26.486 17.5939 26.486 15.5981C26.486 14.7413 26.7876 14.0282 27.3601 13.5408C28.3262 12.7096 30.0796 12.5814 31.9761 13.1201C32.2624 13.197 32.4311 13.4843 32.3595 13.7717L32.2624 14.1462C32.2215 14.2898 32.1295 14.413 31.9966 14.4848C31.8637 14.5566 31.7052 14.5772 31.5672 14.5361C31.0202 14.3719 30.4579 14.2898 29.8854 14.2847C28.0246 14.2847 28.0246 15.1672 28.0246 15.5366C28.0144 16.5063 28.7147 16.8244 29.9467 17.3066Z" fill="#86888C"/>
<path d="M8.47677 37.2544C7.01477 37.2544 5.7828 36.0795 5.7828 34.6891V31.4517C4.68885 31.0772 3.75849 30.3897 3.07861 29.461C2.37317 28.4913 2 27.3318 2 26.1056V9.90318C2 6.78891 4.61729 4.25439 7.83267 4.25439H32.0017C35.2171 4.25439 37.8344 6.78891 37.8344 9.90318V26.1056C37.8344 29.2199 35.2171 31.7544 32.0017 31.7544H14.2276L10.6953 36.1411C10.133 36.8799 9.38157 37.2544 8.47677 37.2544ZM7.83267 4.61354C4.81665 4.61354 2.35783 6.989 2.35783 9.90318V26.1056C2.35783 28.4246 3.82495 30.4512 6.01283 31.149L6.13552 31.19V34.6891C6.13552 35.8845 7.20391 36.8953 8.47165 36.8953C9.264 36.8953 9.91832 36.5669 10.4142 35.9204L14.0538 31.3953H31.9966C35.0177 31.3953 37.4714 29.0198 37.4714 26.1056V9.90318C37.4714 6.98387 35.0177 4.61354 31.9966 4.61354H7.83267ZM8.50233 35.8076C7.86334 35.8076 7.28058 35.2637 7.28058 34.6686V30.7283C7.28058 30.4717 7.09144 30.2511 6.83074 30.1947C4.85755 29.8048 3.48245 28.1014 3.48245 26.044V9.75439C3.48245 7.41484 5.44541 5.51652 7.86334 5.51652H32.1653C34.5781 5.51652 36.541 7.41997 36.541 9.75439V26.044C36.541 28.3785 34.573 30.2768 32.155 30.2819H13.8391C13.6653 30.2819 13.4966 30.3589 13.3944 30.4871L9.55538 35.2535C9.1362 35.8076 8.69147 35.8076 8.50233 35.8076ZM7.86334 5.87566C5.64478 5.87566 3.84028 7.61494 3.84028 9.75439V26.044C3.84028 27.927 5.09781 29.4867 6.9023 29.8407C7.3317 29.9279 7.63842 30.3024 7.63842 30.7231V34.6634C7.63842 35.0585 8.0627 35.4433 8.50233 35.4433C8.66079 35.4433 8.95728 35.4433 9.27422 35.0328L13.1133 30.2614C13.2871 30.0459 13.5478 29.9176 13.834 29.9176H32.1499C34.3736 29.9125 36.1781 28.1732 36.1781 26.0389V9.75439C36.1781 7.61494 34.3736 5.87566 32.1602 5.87566H7.86334ZM9.87231 23.7917C8.69147 23.7917 7.6742 23.5352 7.26014 23.3813C6.91253 23.2581 6.71828 22.8939 6.80518 22.5347L6.9023 22.1397C6.94831 21.9447 7.08122 21.7805 7.26014 21.683C7.43905 21.5856 7.64353 21.5599 7.84289 21.6215C9.28445 22.0627 10.8282 21.9806 11.3599 21.6266C11.5183 21.5291 11.7739 21.2777 11.7739 20.6774C11.7739 19.7796 11.2219 19.4769 9.87231 18.9587C8.62501 18.4713 6.91764 17.8094 6.91764 15.6751C6.91764 14.7567 7.23969 13.9923 7.85312 13.4638C8.84993 12.607 10.6493 12.4326 12.6634 13.0021C13.0468 13.1047 13.2717 13.4895 13.1797 13.8743L13.0826 14.2539C13.0264 14.454 12.8986 14.6131 12.7299 14.7054C12.5561 14.8029 12.3516 14.8234 12.1624 14.7721C11.6308 14.6131 11.0787 14.531 10.5113 14.5258C8.81415 14.5258 8.81415 15.2595 8.81415 15.6084C8.81415 16.4293 9.34579 16.7217 10.6442 17.2245L10.6595 17.2297C11.9375 17.7273 13.6909 18.4097 13.6909 20.6518C13.6909 21.6266 13.3382 22.4321 12.6736 22.9708C12.004 23.5198 11.0634 23.7917 9.87231 23.7917ZM7.62308 21.9447C7.55663 21.9447 7.49528 21.9601 7.43394 21.996C7.33681 22.0473 7.27036 22.1294 7.24991 22.2269L7.15279 22.6219C7.10678 22.7964 7.20902 22.9862 7.38282 23.0478C7.77644 23.1914 8.74258 23.4377 9.87231 23.4377C12.0704 23.4377 13.3331 22.427 13.3331 20.662C13.3331 18.6662 11.8455 18.0865 10.5317 17.5786L10.5164 17.5734C9.24355 17.0758 8.46143 16.7166 8.46143 15.6187C8.46143 15.2236 8.46143 14.177 10.5164 14.177C11.1196 14.1821 11.7024 14.2693 12.2647 14.4335C12.3618 14.4592 12.4692 14.4489 12.5612 14.3976C12.6481 14.3514 12.7094 14.2693 12.7401 14.1667L12.8372 13.7922C12.8832 13.5972 12.7708 13.4074 12.5765 13.3561C10.6749 12.8174 8.99818 12.9661 8.09337 13.746C7.56174 14.2026 7.28058 14.8747 7.28058 15.6802C7.28058 17.5683 8.73236 18.1327 10.0103 18.6252C11.3292 19.1331 12.1369 19.5077 12.1369 20.6826C12.1369 21.4573 11.7739 21.7959 11.5541 21.9344C10.8691 22.3859 9.15665 22.4064 7.73554 21.9703C7.69976 21.9498 7.66398 21.9447 7.62308 21.9447ZM29.2413 23.6532C28.0706 23.6532 27.0585 23.3967 26.6444 23.2427C26.2968 23.1196 26.1026 22.7553 26.1946 22.4013L26.2917 22.0114C26.3377 21.8216 26.4706 21.6522 26.6495 21.5548C26.8285 21.4573 27.0329 21.4368 27.2272 21.4932C28.6585 21.9344 30.187 21.8523 30.7186 21.4983C30.8771 21.4009 31.1327 21.1546 31.1327 20.5594C31.1327 19.6667 30.5857 19.3691 29.2464 18.8509C28.0042 18.3687 26.307 17.7068 26.307 15.593C26.307 14.6798 26.6291 13.9204 27.2425 13.3971C28.2342 12.5454 30.0183 12.371 32.0221 12.9405C32.3953 13.0431 32.6253 13.433 32.5333 13.8076L32.4362 14.1872C32.38 14.3873 32.2573 14.5464 32.0835 14.6387C31.9097 14.7311 31.7001 14.7567 31.5161 14.7054C30.9895 14.5515 30.4426 14.4694 29.8854 14.4643C28.2036 14.4643 28.2036 15.1877 28.2036 15.5366C28.1933 16.3523 28.7199 16.6397 30.0132 17.1425L30.0285 17.1476C31.2962 17.6401 33.0394 18.3174 33.0394 20.544C33.0394 21.5137 32.6867 22.3141 32.0273 22.8477C31.3627 23.3813 30.4272 23.6532 29.2413 23.6532ZM27.0074 21.8216C26.9409 21.8216 26.8796 21.837 26.8233 21.8729C26.7313 21.9242 26.6649 22.0063 26.6393 22.0986L26.5422 22.4937C26.4962 22.6681 26.5984 22.8528 26.7671 22.9144C27.1607 23.058 28.1167 23.2992 29.2413 23.2992C31.424 23.2992 32.6765 22.2936 32.6765 20.544C32.6765 18.5636 31.1991 17.989 29.8956 17.4811L29.8803 17.4759C28.6074 16.9834 27.8304 16.6243 27.8406 15.5314C27.8406 15.1415 27.8406 14.1 29.8803 14.1C30.4732 14.1051 31.056 14.1924 31.6132 14.3565C31.7052 14.3822 31.8177 14.3719 31.9097 14.3206C31.9966 14.2745 32.0579 14.1924 32.0886 14.0949L32.1857 13.7203C32.2317 13.5305 32.1142 13.3356 31.925 13.2842C30.0387 12.7507 28.3722 12.8943 27.4726 13.669C26.9409 14.1205 26.6598 14.7875 26.6598 15.593C26.6598 17.4657 28.1013 18.0249 29.3742 18.5175C30.6828 19.0254 31.4905 19.3948 31.4905 20.5594C31.4905 21.329 31.1276 21.6676 30.9129 21.801C30.233 22.2525 28.5307 22.2679 27.1198 21.837C27.0841 21.8267 27.0483 21.8216 27.0074 21.8216ZM15.9708 23.4634C15.5772 23.4634 15.2551 23.1453 15.2449 22.7451V13.5049C15.2449 13.1098 15.5772 12.7866 15.981 12.7866H16.4002C16.6762 12.7866 16.9267 12.9354 17.0545 13.1765L19.9939 18.7381L23.015 13.1611C23.153 12.9251 23.3984 12.7763 23.6693 12.7763H24.0527C24.4514 12.7712 24.7837 13.0893 24.7888 13.4946V22.7348C24.7837 23.135 24.4565 23.4531 24.0629 23.4531C24.0578 23.4531 24.0527 23.4531 24.0527 23.4531H23.6642C23.2655 23.4582 22.9332 23.1401 22.9281 22.7348V17.1732L20.8373 21.0468C20.7044 21.2828 20.4539 21.4316 20.1881 21.4316H19.774C19.5031 21.4316 19.2526 21.2828 19.1197 21.0417L17.1159 17.2502V22.7451C17.1108 22.9452 17.0341 23.1247 16.8961 23.2633C16.758 23.3967 16.574 23.4736 16.3798 23.4685H15.9912C15.981 23.4633 15.9759 23.4634 15.9708 23.4634ZM15.9861 13.1508C15.7714 13.1508 15.6079 13.3099 15.6079 13.51V22.7451C15.613 22.9452 15.7817 23.1093 15.9861 23.1042H16.3798C16.482 23.1042 16.574 23.0683 16.6456 23.0016C16.7171 22.9349 16.758 22.8425 16.758 22.7399V15.8085L19.4367 20.8724C19.5031 20.9955 19.6309 21.0725 19.774 21.0725H20.1881C20.3261 21.0725 20.4539 20.9955 20.5255 20.8724L23.2961 15.7675V22.7399C23.3013 22.94 23.4648 23.0991 23.6642 23.0991H24.068C24.2776 23.0991 24.4361 22.94 24.4412 22.7348V13.5049C24.4361 13.3048 24.2674 13.1406 24.0629 13.1457H23.6744C23.5313 13.1457 23.4035 13.2227 23.3319 13.3458L19.9939 19.5025L16.7478 13.3509C16.6814 13.2278 16.5536 13.1508 16.4104 13.1508H15.9861Z" fill="#86888C"/>
</svg>
