<svg width="20" height="20" viewBox="0 0 20 20" fill="none" xmlns="http://www.w3.org/2000/svg">
<path d="M17.6192 12.9044V5.5C17.6192 4.48321 16.7641 3.65532 15.7115 3.65532H4.66515C3.61257 3.65532 2.75517 4.48088 2.75517 5.5V12.9044C2.75517 13.7952 3.35465 14.5415 4.21205 14.7094C4.37006 14.7421 4.48159 14.875 4.48159 15.0312V16.8223C4.48159 17.0462 4.71163 17.2584 4.9556 17.2584C5.03693 17.2584 5.2019 17.2584 5.37152 17.0415L7.11654 14.875C7.1816 14.7934 7.27919 14.7491 7.38143 14.7491H15.7068C16.7641 14.7491 17.6192 13.9212 17.6192 12.9044ZM15.6371 3.08162C17.0522 3.08162 18.207 4.19636 18.207 5.56763V12.9324C18.207 14.306 17.0522 15.4184 15.6371 15.4184H7.51852L5.88968 17.4426C5.64803 17.7551 5.3297 17.916 4.94166 17.916C4.32126 17.916 3.79846 17.4193 3.79846 16.8316V15.2994C2.77375 14.9729 2.079 14.0354 2.079 12.93V5.56763C2.08133 4.19636 3.23615 3.08162 4.65121 3.08162H15.6371ZM5.9013 8.97481C6.49382 9.20569 7.23272 9.49021 7.23272 10.4557C7.23272 11.3092 6.62858 11.799 5.57832 11.799C5.05319 11.799 4.60242 11.6847 4.41885 11.6171C4.30035 11.5751 4.23297 11.4492 4.26317 11.3279L4.30732 11.1483C4.32359 11.0807 4.37006 11.0247 4.43047 10.9921C4.49321 10.9571 4.56524 10.9501 4.63262 10.9711C5.26232 11.1646 6.01283 11.1553 6.30096 10.9641C6.38693 10.9104 6.52635 10.7729 6.52635 10.465C6.52635 9.98461 6.1964 9.83302 5.61085 9.60681C5.0346 9.38293 4.31894 9.10308 4.31894 8.19123C4.31894 7.79944 4.45603 7.47295 4.71627 7.24907C5.15775 6.86894 5.96172 6.81063 6.82841 7.0555C6.95853 7.09048 7.03754 7.22108 7.00501 7.35401L6.96086 7.52659C6.94227 7.59188 6.90044 7.64785 6.84003 7.6805C6.77962 7.71315 6.70991 7.72248 6.64253 7.70382C6.39158 7.6292 6.13366 7.59188 5.8711 7.58955C5.01834 7.58955 5.01834 7.993 5.01834 8.16325C5.01834 8.60868 5.33899 8.7556 5.9013 8.97481ZM12.0286 6.95989C12.168 6.95756 12.2795 7.0695 12.2819 7.20476V11.4025C12.2795 11.5424 12.1657 11.6497 12.0286 11.6474H11.852C11.7126 11.6497 11.6011 11.5378 11.5987 11.4025V8.55504L10.4904 10.5956C10.4439 10.6772 10.3579 10.7285 10.2673 10.7285H10.0791C9.98384 10.7285 9.9002 10.6772 9.85372 10.5933L8.78952 8.58069V11.4049C8.7872 11.5448 8.67334 11.6521 8.53625 11.6497H8.35966C8.22024 11.6521 8.10871 11.5401 8.10639 11.4049V7.20709C8.10639 7.0695 8.22024 6.96222 8.35966 6.96222H8.55019C8.64546 6.96222 8.73143 7.01353 8.77558 7.09748L10.1837 9.76073L11.6313 7.09282C11.6777 7.01119 11.7637 6.95989 11.8567 6.95989H12.0286ZM14.703 8.93284C15.2909 9.16138 16.0252 9.44356 16.0252 10.4021C16.0252 11.2486 15.4257 11.736 14.3824 11.736C13.8619 11.736 13.4135 11.6217 13.2322 11.5564C13.1137 11.5145 13.0487 11.3909 13.0765 11.2696L13.1207 11.0924C13.137 11.0247 13.1834 10.9688 13.2438 10.9361C13.3066 10.9011 13.3786 10.8941 13.4437 10.9151C14.0687 11.1063 14.8146 11.097 15.1004 10.9081C15.1864 10.8545 15.3234 10.7192 15.3234 10.4137C15.3234 9.93563 14.9958 9.78638 14.4149 9.5625C13.8433 9.34095 13.13 9.06343 13.13 8.15625C13.13 7.76679 13.2671 7.44263 13.5273 7.22108C13.9665 6.84328 14.7635 6.78498 15.6255 7.02985C15.7556 7.06483 15.8323 7.19543 15.7998 7.32603L15.7556 7.49627C15.737 7.56157 15.6952 7.61754 15.6348 7.65019C15.5744 7.68284 15.5024 7.69216 15.4396 7.67351C15.191 7.59888 14.9354 7.56157 14.6752 7.55924C13.8294 7.55924 13.8294 7.96035 13.8294 8.12826C13.8247 8.56903 14.1431 8.71362 14.703 8.93284Z" fill="#86888C"/>
<path d="M4.94398 18C4.27944 18 3.71945 17.466 3.71945 16.834V15.3624C3.22221 15.1922 2.79931 14.8797 2.49028 14.4576C2.16962 14.0168 2 13.4897 2 12.9324V5.56763C2 4.15205 3.18968 3 4.65121 3H15.6371C17.0987 3 18.2883 4.15205 18.2883 5.56763V12.9324C18.2883 14.3479 17.0987 15.5 15.6371 15.5H7.55802L5.95242 17.4939C5.69683 17.8298 5.35526 18 4.94398 18ZM4.65121 3.16325C3.2803 3.16325 2.16265 4.243 2.16265 5.56763V12.9324C2.16265 13.9865 2.82952 14.9076 3.82402 15.2248L3.87978 15.2435V16.834C3.87978 17.3773 4.36541 17.8368 4.94166 17.8368C5.30182 17.8368 5.59924 17.6875 5.82462 17.3937L7.47902 15.3368H15.6348C17.008 15.3368 18.1234 14.257 18.1234 12.9324V5.56763C18.1234 4.24067 17.008 3.16325 15.6348 3.16325H4.65121ZM4.9556 17.3424C4.66515 17.3424 4.40027 17.0951 4.40027 16.8246V15.0336C4.40027 14.917 4.31429 14.8167 4.19579 14.791C3.29889 14.6138 2.67384 13.8396 2.67384 12.9044V5.5C2.67384 4.43657 3.5661 3.57369 4.66515 3.57369H15.7115C16.8082 3.57369 17.7005 4.4389 17.7005 5.5V12.9044C17.7005 13.9655 16.8059 14.8284 15.7068 14.8307H7.38143C7.30243 14.8307 7.22575 14.8657 7.17928 14.924L5.43426 17.0905C5.24373 17.3424 5.04158 17.3424 4.9556 17.3424ZM4.66515 3.73694C3.65672 3.73694 2.83649 4.52752 2.83649 5.5V12.9044C2.83649 13.7603 3.40809 14.4692 4.22832 14.6301C4.4235 14.6698 4.56292 14.84 4.56292 15.0312V16.8223C4.56292 17.0019 4.75577 17.1768 4.9556 17.1768C5.02763 17.1768 5.1624 17.1768 5.30646 16.9902L7.05148 14.8214C7.13048 14.7234 7.24898 14.6651 7.3791 14.6651H15.7045C16.7153 14.6628 17.5355 13.8722 17.5355 12.9021V5.5C17.5355 4.52752 16.7153 3.73694 15.7092 3.73694H4.66515ZM5.57832 11.8806C5.04158 11.8806 4.57918 11.764 4.39097 11.694C4.23297 11.6381 4.14467 11.4725 4.18417 11.3092L4.22832 11.1297C4.24923 11.041 4.30965 10.9664 4.39097 10.9221C4.4723 10.8778 4.56524 10.8661 4.65586 10.8941C5.31111 11.0947 6.01283 11.0574 6.25449 10.8965C6.32652 10.8521 6.4427 10.7379 6.4427 10.465C6.4427 10.0569 6.19175 9.91931 5.57832 9.68377C5.01137 9.46222 4.23529 9.16138 4.23529 8.19123C4.23529 7.77379 4.38168 7.42631 4.66051 7.1861C5.11361 6.79664 5.93151 6.71735 6.847 6.97621C7.02127 7.02285 7.12351 7.19776 7.08168 7.37267L7.03754 7.54524C7.01198 7.63619 6.95389 7.70849 6.87721 7.75047C6.79821 7.79478 6.70526 7.8041 6.61929 7.78078C6.37764 7.70849 6.12669 7.67118 5.86877 7.66884C5.09734 7.66884 5.09734 8.00233 5.09734 8.16091C5.09734 8.53405 5.33899 8.66698 5.92919 8.89552L5.93616 8.89785C6.51705 9.12407 7.31404 9.43424 7.31404 10.4534C7.31404 10.8965 7.15372 11.2626 6.85165 11.5075C6.54726 11.757 6.11972 11.8806 5.57832 11.8806ZM4.55595 11.041C4.52574 11.041 4.49786 11.048 4.46997 11.0644C4.42582 11.0877 4.39562 11.125 4.38632 11.1693L4.34218 11.3489C4.32126 11.4282 4.36774 11.5145 4.44674 11.5424C4.62565 11.6077 5.06481 11.7197 5.57832 11.7197C6.57747 11.7197 7.15139 11.2603 7.15139 10.458C7.15139 9.55084 6.47523 9.28731 5.87807 9.05644L5.8711 9.0541C5.29252 8.82789 4.93701 8.66465 4.93701 8.16558C4.93701 7.98601 4.93701 7.51026 5.8711 7.51026C6.14528 7.51259 6.41017 7.55224 6.66576 7.62687C6.70991 7.63853 6.75871 7.63386 6.80053 7.61054C6.84003 7.58955 6.86791 7.55224 6.88186 7.5056L6.926 7.33535C6.94692 7.24673 6.8958 7.16045 6.8075 7.13713C5.94313 6.89226 5.18099 6.95989 4.76972 7.31437C4.52806 7.52192 4.40027 7.82743 4.40027 8.19356C4.40027 9.05177 5.06016 9.3083 5.64106 9.53218C6.24055 9.76306 6.60767 9.9333 6.60767 10.4674C6.60767 10.8195 6.4427 10.9734 6.34278 11.0364C6.03142 11.2416 5.25302 11.2509 4.60706 11.0527C4.5908 11.0434 4.57453 11.041 4.55595 11.041ZM14.3824 11.8176C13.8503 11.8176 13.3902 11.701 13.202 11.6311C13.044 11.5751 12.9557 11.4095 12.9975 11.2486L13.0417 11.0714C13.0626 10.9851 13.123 10.9081 13.2043 10.8638C13.2857 10.8195 13.3786 10.8102 13.4669 10.8358C14.1175 11.0364 14.8123 10.9991 15.0539 10.8382C15.1259 10.7938 15.2421 10.6819 15.2421 10.4114C15.2421 10.0056 14.9935 9.87034 14.3847 9.63479C13.8201 9.41558 13.0487 9.11474 13.0487 8.15392C13.0487 7.73881 13.195 7.39366 13.4739 7.15578C13.9246 6.76866 14.7356 6.68937 15.6464 6.94823C15.816 6.99487 15.9206 7.17211 15.8788 7.34235L15.8346 7.51493C15.8091 7.60588 15.7533 7.67817 15.6743 7.72015C15.5953 7.76213 15.5 7.77379 15.4164 7.75047C15.1771 7.6805 14.9284 7.64319 14.6752 7.64086C13.9107 7.64086 13.9107 7.96968 13.9107 8.12826C13.9061 8.49907 14.1454 8.62966 14.7333 8.85821L14.7402 8.86054C15.3165 9.08442 16.1088 9.39226 16.1088 10.4044C16.1088 10.8451 15.9485 11.209 15.6487 11.4515C15.3467 11.694 14.9215 11.8176 14.3824 11.8176ZM13.367 10.9851C13.3368 10.9851 13.3089 10.9921 13.2833 11.0084C13.2415 11.0317 13.2113 11.069 13.1997 11.111L13.1555 11.2906C13.1346 11.3699 13.1811 11.4538 13.2578 11.4818C13.4367 11.5471 13.8712 11.6567 14.3824 11.6567C15.3746 11.6567 15.9438 11.1996 15.9438 10.4044C15.9438 9.5042 15.2723 9.243 14.6798 9.01213L14.6728 9.00979C14.0943 8.78591 13.7411 8.62267 13.7457 8.12593C13.7457 7.94869 13.7457 7.47528 14.6728 7.47528C14.9424 7.47761 15.2073 7.51726 15.4605 7.59188C15.5024 7.60354 15.5535 7.59888 15.5953 7.57556C15.6348 7.55457 15.6627 7.51726 15.6766 7.47295L15.7208 7.30271C15.7417 7.21642 15.6883 7.1278 15.6023 7.10448C14.7449 6.86194 13.9874 6.92724 13.5784 7.27938C13.3368 7.48461 13.209 7.78778 13.209 8.15392C13.209 9.00513 13.8642 9.25933 14.4428 9.48321C15.0376 9.71409 15.4048 9.882 15.4048 10.4114C15.4048 10.7612 15.2398 10.9151 15.1422 10.9757C14.8332 11.181 14.0594 11.188 13.4181 10.9921C13.4018 10.9874 13.3856 10.9851 13.367 10.9851ZM8.35036 11.7313C8.17145 11.7313 8.02506 11.5868 8.02041 11.4049V7.20476C8.02041 7.02519 8.17145 6.87826 8.35501 6.87826H8.54554C8.67102 6.87826 8.78487 6.9459 8.84296 7.0555L10.179 9.58349L11.5523 7.04851C11.615 6.94123 11.7265 6.8736 11.8497 6.8736H12.024C12.2052 6.87127 12.3562 7.01586 12.3586 7.20009V11.4002C12.3562 11.5821 12.2075 11.7267 12.0286 11.7267C12.0263 11.7267 12.024 11.7267 12.024 11.7267H11.8474C11.6661 11.729 11.5151 11.5844 11.5128 11.4002V8.8722L10.5624 10.6329C10.502 10.7402 10.3881 10.8078 10.2673 10.8078H10.0791C9.95596 10.8078 9.84211 10.7402 9.78169 10.6306L8.87085 8.90718V11.4049C8.86852 11.4958 8.83367 11.5774 8.77093 11.6404C8.7082 11.701 8.62455 11.736 8.53625 11.7337H8.35966C8.35501 11.7313 8.35269 11.7313 8.35036 11.7313ZM8.35733 7.04384C8.25974 7.04384 8.18539 7.11614 8.18539 7.20709V11.4049C8.18771 11.4958 8.26439 11.5704 8.35733 11.5681H8.53625C8.58272 11.5681 8.62455 11.5518 8.65708 11.5215C8.68961 11.4911 8.7082 11.4492 8.7082 11.4025V8.25187L9.92576 10.5536C9.95596 10.6096 10.0141 10.6446 10.0791 10.6446H10.2673C10.3301 10.6446 10.3881 10.6096 10.4207 10.5536L11.6801 8.23321V11.4025C11.6824 11.4935 11.7567 11.5658 11.8474 11.5658H12.0309C12.1262 11.5658 12.1982 11.4935 12.2005 11.4002V7.20476C12.1982 7.11381 12.1215 7.03918 12.0286 7.04151H11.852C11.7869 7.04151 11.7289 7.07649 11.6963 7.13246L10.179 9.93097L8.70355 7.13479C8.67334 7.07882 8.61525 7.04384 8.55019 7.04384H8.35733Z" fill="#86888C"/>
</svg>
