<svg width="28" height="28" viewBox="0 0 28 28" fill="none" xmlns="http://www.w3.org/2000/svg">
<path d="M13.9966 24.5282C20.9835 24.5282 24.5282 20.9869 24.5282 14.0034C24.5282 7.01309 20.9869 3.47183 13.9966 3.47183C7.01309 3.47183 3.47183 7.01309 3.47183 14.0034C3.47183 20.9869 7.01309 24.5282 13.9966 24.5282ZM13.9966 2C21.8475 2 26 6.14912 26 14.0034C26 21.8509 21.8509 26 13.9966 26C6.14912 26 2 21.8509 2 14.0034C2 6.14912 6.14912 2 13.9966 2Z" fill="#86888C"/>
<path d="M8.20485 18.9345C8.03068 18.8115 7.94531 18.6749 7.94531 18.4666C7.95214 18.1968 8.17753 17.9817 8.4473 17.9817C8.57707 17.9885 8.70342 18.0295 8.8127 18.1046C9.59471 18.6237 10.6909 19.1428 11.9578 19.1428C13.8531 19.1428 15.0142 18.1695 15.0142 16.7284C15.0142 15.5469 14.3551 14.7136 12.1832 14.4336L11.6266 14.3653C9.31469 14.0716 8.23899 12.9584 8.23899 11.2373C8.23899 9.18832 9.69716 7.91797 11.9408 7.91797C13.1906 7.91797 14.2527 8.24921 14.98 8.69998C15.2054 8.83999 15.3113 9.01415 15.3113 9.18832C15.3113 9.44443 15.1064 9.65616 14.8469 9.65616H14.8434C14.7205 9.65616 14.601 9.60493 14.4951 9.5503C13.696 9.1166 12.8628 8.85365 11.9066 8.85365C10.1889 8.85365 9.23273 9.80983 9.23273 11.1485C9.23273 12.3642 9.9806 13.1462 12.0125 13.4057L12.552 13.474C14.8981 13.7677 16.0113 14.881 16.0113 16.6533C16.0113 18.651 14.5873 20.075 11.8417 20.075C10.3767 20.0819 9.07223 19.5423 8.20485 18.9345Z" fill="#86888C"/>
<path d="M11.8143 20.2461C10.52 20.2461 9.17111 19.8193 8.10566 19.0748C7.88028 18.9143 7.77441 18.7231 7.77441 18.467V18.4635C7.78466 18.105 8.08517 17.8113 8.44715 17.8113H8.4574C8.62131 17.8215 8.7784 17.8728 8.91158 17.965C9.91898 18.6343 10.9435 18.9724 11.9611 18.9724C13.7129 18.9724 14.8467 18.0913 14.8467 16.7288C14.8467 16.1346 14.6725 15.7043 14.3037 15.3696C13.8734 14.9838 13.1734 14.7311 12.166 14.6013L11.6094 14.533C10.438 14.3827 9.54675 14.0242 8.95256 13.4573C8.36861 12.9041 8.07151 12.1528 8.07151 11.2342C8.07151 9.11352 9.59115 7.74414 11.944 7.74414C13.1222 7.74414 14.232 8.03099 15.0721 8.55347C15.3384 8.71739 15.4853 8.94277 15.4853 9.18523C15.4853 9.53697 15.2018 9.82382 14.8501 9.82382C14.6828 9.82382 14.5325 9.75552 14.4198 9.69747H14.4164C13.5661 9.23646 12.7704 9.02132 11.9099 9.02132C10.3663 9.02132 9.40674 9.83407 9.40674 11.1454C9.40674 11.9616 9.70725 12.9348 12.0362 13.2319L12.5758 13.3002C13.7642 13.4505 14.6759 13.8124 15.2804 14.3793C15.8814 14.9428 16.1853 15.7043 16.1853 16.6468C16.1853 17.7089 15.7995 18.6036 15.0721 19.2353C14.314 19.891 13.1973 20.2393 11.845 20.2393C11.8313 20.2461 11.8245 20.2461 11.8143 20.2461ZM8.30373 18.7948C8.78181 19.1295 10.0761 19.9046 11.8143 19.9046C11.8245 19.9046 11.8313 19.9046 11.8416 19.9046C14.3447 19.9046 15.8404 18.6889 15.8404 16.6536C15.8404 14.9325 14.7272 13.9183 12.5314 13.6451L11.9918 13.5768C9.99411 13.3207 9.06184 12.5489 9.06184 11.1488C9.06184 10.4248 9.32137 9.81016 9.81312 9.37305C10.3151 8.92229 11.0425 8.68324 11.9065 8.68324C12.8251 8.68324 13.6754 8.91204 14.5735 9.40037C14.652 9.44135 14.7511 9.48575 14.8433 9.48575C15.0072 9.48575 15.1404 9.35256 15.1404 9.18865C15.1404 9.06913 15.0516 8.94619 14.8911 8.84374C14.1057 8.35541 13.0573 8.08905 11.9406 8.08905C9.76189 8.08905 8.40959 9.29451 8.40959 11.2376C8.40959 12.928 9.49894 13.9217 11.6469 14.1949L12.2036 14.2632C13.2827 14.4032 14.0442 14.6798 14.5257 15.1135C14.9696 15.5097 15.1848 16.039 15.1848 16.7254C15.1848 18.2962 13.9178 19.3104 11.9577 19.3104C10.8752 19.3104 9.7858 18.9519 8.71693 18.245C8.63497 18.1904 8.53935 18.1562 8.44032 18.1494C8.26616 18.1528 8.11932 18.2928 8.11249 18.467C8.1159 18.6104 8.16713 18.6992 8.30373 18.7948Z" fill="#86888C"/>
<path d="M16.5366 21.5463C16.3522 21.5155 16.2258 21.338 16.2566 21.1536L18.6333 6.7358C18.6641 6.5514 18.8417 6.42504 19.0261 6.45578C19.2105 6.48651 19.3368 6.66409 19.3061 6.84849L16.9293 21.2663C16.8986 21.4507 16.721 21.577 16.5366 21.5463Z" fill="#86888C"/>
<path d="M16.5948 21.7212C16.5675 21.7212 16.5401 21.7178 16.5094 21.7144C16.2328 21.6666 16.0416 21.4036 16.0894 21.1236L18.4661 6.70586C18.49 6.57268 18.5618 6.45316 18.6745 6.37461C18.7871 6.29607 18.9203 6.26192 19.0569 6.28583C19.3335 6.33364 19.5248 6.59658 19.477 6.87661L17.0968 21.2944C17.0558 21.5437 16.8406 21.7212 16.5948 21.7212ZM16.564 21.3797C16.6562 21.3934 16.745 21.3319 16.7587 21.2397L19.1355 6.82197C19.1491 6.72976 19.0877 6.64098 18.9955 6.6239C18.9511 6.61707 18.9067 6.62732 18.8691 6.65464C18.8315 6.68196 18.8076 6.71952 18.8008 6.76391L16.424 21.1817C16.4104 21.2739 16.4752 21.3627 16.564 21.3797Z" fill="#86888C"/>
</svg>
