<svg width="28" height="28" viewBox="0 0 28 28" fill="none" xmlns="http://www.w3.org/2000/svg">
<path d="M4.66848 21.6687C4.39782 21.4777 4.26514 21.2654 4.26514 20.9417C4.27575 20.5224 4.62602 20.188 5.04529 20.188C5.24696 20.1987 5.44333 20.2623 5.61315 20.3791C6.82849 21.1858 8.53209 21.9925 10.501 21.9925C13.4465 21.9925 15.2509 20.4799 15.2509 18.2403C15.2509 16.404 14.2267 15.1091 10.8513 14.6739L9.98625 14.5678C6.39331 14.1113 4.72155 12.3812 4.72155 9.70641C4.72155 6.52211 6.98771 4.54785 10.4745 4.54785C12.4169 4.54785 14.0675 5.06265 15.1979 5.76319C15.5481 5.98078 15.7127 6.25145 15.7127 6.52211C15.7127 6.92015 15.3942 7.24919 14.9909 7.24919H14.9856C14.7945 7.24919 14.6088 7.16959 14.4443 7.08467C13.2024 6.41066 11.9074 6.00201 10.4214 6.00201C7.75194 6.00201 6.26593 7.48801 6.26593 9.56842C6.26593 11.4578 7.4282 12.6731 10.586 13.0764L11.4245 13.1826C15.0705 13.639 16.8006 15.3691 16.8006 18.1236C16.8006 21.2282 14.5876 23.4413 10.3206 23.4413C8.04383 23.4519 6.0165 22.6134 4.66848 21.6687Z" fill="#86888C"/>
<path d="M10.2784 23.7068C8.26695 23.7068 6.17063 23.0434 4.51479 21.8865C4.16452 21.637 4 21.3398 4 20.9418V20.9365C4.01592 20.3792 4.48295 19.9228 5.04551 19.9228H5.06143C5.31617 19.9388 5.5603 20.0184 5.76728 20.1617C7.33289 21.2019 8.92504 21.7273 10.5066 21.7273C13.2291 21.7273 14.9911 20.358 14.9911 18.2405C14.9911 17.317 14.7205 16.6483 14.1473 16.1282C13.4786 15.5285 12.3906 15.1358 10.825 14.9341L9.95993 14.828C8.13958 14.5944 6.75441 14.0372 5.83097 13.1562C4.92344 12.2965 4.46172 11.1289 4.46172 9.70125C4.46172 6.40551 6.82341 4.27734 10.48 4.27734C12.311 4.27734 14.0358 4.72314 15.3414 5.53514C15.7553 5.78988 15.9836 6.14015 15.9836 6.51696C15.9836 7.0636 15.5431 7.5094 14.9964 7.5094C14.7364 7.5094 14.5029 7.40326 14.3277 7.31304H14.3224C13.0009 6.59657 11.7644 6.26222 10.427 6.26222C8.02813 6.26222 6.53682 7.52532 6.53682 9.56327C6.53682 10.8317 7.00385 12.3442 10.6233 12.8059L11.4619 12.9121C13.3087 13.1456 14.7258 13.7082 15.6651 14.5891C16.5992 15.4648 17.0715 16.6483 17.0715 18.1131C17.0715 19.7636 16.4718 21.1541 15.3414 22.1359C14.1632 23.1549 12.4278 23.6962 10.3261 23.6962C10.3049 23.7068 10.2943 23.7068 10.2784 23.7068ZM4.82261 21.4513C5.56561 21.9714 7.57702 23.1761 10.2784 23.1761C10.2943 23.1761 10.3049 23.1761 10.3208 23.1761C14.211 23.1761 16.5355 21.2868 16.5355 18.1237C16.5355 15.4489 14.8054 13.8727 11.3929 13.4481L10.5543 13.342C7.44965 12.9439 6.0008 11.7445 6.0008 9.56858C6.0008 8.44346 6.40414 7.48817 7.16837 6.80886C7.94852 6.10831 9.07895 5.73681 10.4217 5.73681C11.8493 5.73681 13.1708 6.09239 14.5665 6.85131C14.6886 6.915 14.8425 6.98399 14.9858 6.98399C15.2406 6.98399 15.4475 6.77701 15.4475 6.52227C15.4475 6.33652 15.3095 6.14546 15.0601 5.98625C13.8395 5.22732 12.2102 4.81337 10.4747 4.81337C7.08876 4.81337 4.98713 6.68679 4.98713 9.70656C4.98713 12.3336 6.68011 13.878 10.0183 14.3026L10.8834 14.4087C12.5604 14.6263 13.7439 15.0562 14.4922 15.7302C15.1822 16.3458 15.5165 17.1684 15.5165 18.2352C15.5165 20.6764 13.5476 22.2527 10.5013 22.2527C8.8189 22.2527 7.12591 21.6954 5.46477 20.5968C5.3374 20.5119 5.1888 20.4589 5.03489 20.4482C4.76423 20.4535 4.53602 20.6711 4.52541 20.9418C4.53072 21.1647 4.61032 21.3027 4.82261 21.4513Z" fill="#86888C"/>
<path d="M17.6186 25.729C17.332 25.6812 17.1357 25.4053 17.1834 25.1187L20.8772 2.71188C20.925 2.42529 21.2009 2.22893 21.4875 2.27669C21.7741 2.32446 21.9705 2.60043 21.9227 2.88701L18.2289 25.2938C18.1812 25.5804 17.9052 25.7768 17.6186 25.729Z" fill="#86888C"/>
<path d="M17.709 26C17.6665 26 17.624 25.9947 17.5763 25.9894C17.1464 25.9151 16.8492 25.5064 16.9235 25.0712L20.6173 2.66445C20.6544 2.45747 20.7659 2.27172 20.941 2.14965C21.1162 2.02759 21.3231 1.97452 21.5354 2.01167C21.9653 2.08597 22.2625 2.49462 22.1882 2.9298L18.4891 25.3366C18.4254 25.724 18.0858 26 17.709 26ZM17.6612 25.4693C17.8045 25.4905 17.9425 25.395 17.9637 25.2517L21.6628 2.84489C21.684 2.70159 21.5885 2.56361 21.4452 2.53707C21.3762 2.52646 21.3072 2.54238 21.2488 2.58484C21.1905 2.6273 21.1533 2.68567 21.1427 2.75467L17.4489 25.1615C17.4224 25.3048 17.5232 25.4427 17.6612 25.4693Z" fill="#86888C"/>
</svg>
