<svg width="20" height="20" viewBox="0 0 20 20" fill="none" xmlns="http://www.w3.org/2000/svg">
<path d="M9.99772 17.0188C14.6557 17.0188 17.0188 14.6579 17.0188 10.0023C17.0188 5.34206 14.6579 2.98122 9.99772 2.98122C5.34206 2.98122 2.98122 5.34206 2.98122 10.0023C2.98122 14.6579 5.34206 17.0188 9.99772 17.0188ZM9.99772 2C15.2316 2 18 4.76608 18 10.0023C18 15.2339 15.2339 18 9.99772 18C4.76608 18 2 15.2339 2 10.0023C2 4.76608 4.76608 2 9.99772 2Z" fill="#86888C"/>
<path d="M6.1364 13.2906C6.02029 13.2087 5.96338 13.1176 5.96338 12.9787C5.96793 12.7989 6.11819 12.6554 6.29804 12.6554C6.38455 12.66 6.46879 12.6873 6.54164 12.7374C7.06298 13.0835 7.79377 13.4295 8.63839 13.4295C9.90191 13.4295 10.676 12.7807 10.676 11.8199C10.676 11.0322 10.2366 10.4767 8.78865 10.2901L8.41756 10.2445C6.8763 10.0487 6.15917 9.30656 6.15917 8.15915C6.15917 6.79319 7.13128 5.94629 8.62701 5.94629C9.46025 5.94629 10.1683 6.16712 10.6532 6.46763C10.8034 6.56097 10.874 6.67708 10.874 6.79319C10.874 6.96393 10.7374 7.10508 10.5644 7.10508H10.5621C10.4802 7.10508 10.4005 7.07093 10.3299 7.03451C9.79719 6.74538 9.24169 6.57008 8.60424 6.57008C7.45911 6.57008 6.82166 7.20753 6.82166 8.09996C6.82166 8.91043 7.32024 9.43177 8.67482 9.6048L9.03452 9.65033C10.5986 9.84612 11.3407 10.5883 11.3407 11.7698C11.3407 13.1017 10.3914 14.051 8.56099 14.051C7.58432 14.0556 6.71466 13.6959 6.1364 13.2906Z" fill="#86888C"/>
<path d="M8.54284 14.1647C7.68 14.1647 6.78074 13.8802 6.07044 13.3839C5.92018 13.2769 5.84961 13.1494 5.84961 12.9786V12.9764C5.85644 12.7373 6.05678 12.5415 6.2981 12.5415H6.30493C6.41421 12.5483 6.51893 12.5825 6.60772 12.644C7.27932 13.0902 7.9623 13.3156 8.64073 13.3156C9.80863 13.3156 10.5645 12.7282 10.5645 11.8198C10.5645 11.4237 10.4484 11.1369 10.2025 10.9137C9.91563 10.6565 9.44893 10.488 8.77733 10.4015L8.40624 10.356C7.62536 10.2558 7.03117 10.0168 6.63504 9.63884C6.24574 9.27003 6.04767 8.76918 6.04767 8.15677C6.04767 6.743 7.06076 5.83008 8.62935 5.83008C9.41478 5.83008 10.1547 6.02131 10.7147 6.36963C10.8923 6.47891 10.9902 6.62917 10.9902 6.79081C10.9902 7.0253 10.8012 7.21653 10.5667 7.21653C10.4552 7.21653 10.355 7.171 10.2799 7.1323H10.2776C9.71074 6.82496 9.18029 6.68153 8.60658 6.68153C7.57755 6.68153 6.93783 7.22336 6.93783 8.09758C6.93783 8.64169 7.13817 9.29052 8.69082 9.48859L9.05052 9.53412C9.84278 9.63429 10.4506 9.87561 10.8536 10.2535C11.2543 10.6292 11.4569 11.1369 11.4569 11.7652C11.4569 12.4732 11.1996 13.0697 10.7147 13.4909C10.2093 13.928 9.46486 14.1602 8.56332 14.1602C8.55422 14.1647 8.54967 14.1647 8.54284 14.1647ZM6.20248 13.1972C6.52121 13.4203 7.38404 13.9371 8.54284 13.9371C8.54967 13.9371 8.55422 13.9371 8.56105 13.9371C10.2298 13.9371 11.227 13.1266 11.227 11.7697C11.227 10.6223 10.4848 9.94619 9.02092 9.76406L8.66122 9.71852C7.3294 9.54778 6.70789 9.03327 6.70789 8.09986C6.70789 7.61722 6.88091 7.20743 7.20874 6.91602C7.54341 6.61551 8.02832 6.45615 8.6043 6.45615C9.21671 6.45615 9.78359 6.60868 10.3823 6.93423C10.4347 6.96155 10.5007 6.99115 10.5622 6.99115C10.6715 6.99115 10.7603 6.90236 10.7603 6.79308C10.7603 6.7134 10.7011 6.63144 10.5941 6.56315C10.0704 6.23759 9.37152 6.06002 8.62707 6.06002C7.17459 6.06002 6.27306 6.86366 6.27306 8.15905C6.27306 9.28597 6.9993 9.94846 8.43128 10.1306L8.80237 10.1761C9.52178 10.2695 10.0295 10.4539 10.3505 10.743C10.6464 11.0071 10.7898 11.36 10.7898 11.8176C10.7898 12.8648 9.94523 13.5409 8.63845 13.5409C7.91677 13.5409 7.19053 13.3019 6.47795 12.8306C6.42331 12.7942 6.35957 12.7715 6.29355 12.7669C6.17744 12.7692 6.07955 12.8625 6.07499 12.9786C6.07727 13.0742 6.11142 13.1334 6.20248 13.1972Z" fill="#86888C"/>
<path d="M11.6912 15.0322C11.5683 15.0117 11.484 14.8933 11.5045 14.7703L13.0891 5.1585C13.1095 5.03557 13.2279 4.95133 13.3509 4.97182C13.4738 4.99231 13.558 5.11069 13.5375 5.23363L11.953 14.8455C11.9325 14.9684 11.8142 15.0526 11.6912 15.0322Z" fill="#86888C"/>
<path d="M11.73 15.1478C11.7118 15.1478 11.6936 15.1455 11.6731 15.1433C11.4887 15.1114 11.3612 14.9361 11.3931 14.7494L12.9776 5.13757C12.9935 5.04878 13.0413 4.9691 13.1165 4.91673C13.1916 4.86437 13.2804 4.84161 13.3714 4.85754C13.5559 4.88942 13.6833 5.06471 13.6515 5.2514L12.0647 14.8632C12.0374 15.0294 11.8939 15.1478 11.73 15.1478ZM11.7095 14.9201C11.771 14.9293 11.8302 14.8883 11.8393 14.8268L13.4238 5.21497C13.4329 5.1535 13.3919 5.09431 13.3305 5.08293C13.3009 5.07837 13.2713 5.0852 13.2462 5.10342C13.2212 5.12163 13.2053 5.14667 13.2007 5.17627L11.6162 14.7881C11.6071 14.8496 11.6503 14.9088 11.7095 14.9201Z" fill="#86888C"/>
</svg>
