<svg width="40" height="40" viewBox="0 0 40 40" fill="none" xmlns="http://www.w3.org/2000/svg">
<path d="M7.00248 31.5036C6.59648 31.217 6.39746 30.8986 6.39746 30.413C6.41338 29.7841 6.93879 29.2825 7.56769 29.2825C7.8702 29.2985 8.16474 29.394 8.41949 29.5691C10.2425 30.7792 12.7979 31.9892 15.7513 31.9892C20.1695 31.9892 22.8762 29.7204 22.8762 26.361C22.8762 23.6065 21.3398 21.6641 16.2767 21.0113L14.9791 20.8521C9.58971 20.1675 7.08208 17.5723 7.08208 13.5601C7.08208 8.78366 10.4813 5.82227 15.7115 5.82227C18.6251 5.82227 21.1009 6.59446 22.7966 7.64527C23.322 7.97166 23.5688 8.37766 23.5688 8.78366C23.5688 9.38071 23.0911 9.87428 22.4861 9.87428H22.4781C22.1916 9.87428 21.9129 9.75487 21.6661 9.6275C19.8033 8.61648 17.8609 8.00351 15.6319 8.00351C11.6277 8.00351 9.39866 10.2325 9.39866 13.3531C9.39866 16.1871 11.1421 18.0101 15.8787 18.6152L17.1365 18.7744C22.6055 19.459 25.2007 22.0542 25.2007 26.1858C25.2007 30.8428 21.8811 34.1625 15.4807 34.1625C12.0655 34.1784 9.0245 32.9206 7.00248 31.5036Z" fill="#86888C"/>
<path d="M15.4175 34.5612C12.4004 34.5612 9.25594 33.5661 6.77219 31.8307C6.24678 31.4565 6 31.0107 6 30.4137V30.4057C6.02388 29.5699 6.72443 28.8852 7.56826 28.8852H7.59215C7.97426 28.9091 8.34046 29.0285 8.65092 29.2435C10.9993 30.8038 13.3876 31.5919 15.7599 31.5919C19.8437 31.5919 22.4867 29.538 22.4867 26.3617C22.4867 24.9765 22.0807 23.9735 21.2209 23.1933C20.2179 22.2937 18.5859 21.7046 16.2375 21.4021L14.9399 21.2429C12.2094 20.8927 10.1316 20.0568 8.74645 18.7353C7.38517 17.4457 6.69258 15.6943 6.69258 13.5529C6.69258 8.60925 10.2351 5.41699 15.7201 5.41699C18.4665 5.41699 21.0537 6.08569 23.0121 7.30369C23.633 7.6858 23.9753 8.21121 23.9753 8.77642C23.9753 9.59638 23.3146 10.2651 22.4946 10.2651C22.1046 10.2651 21.7543 10.1059 21.4916 9.97053H21.4836C19.5014 8.89583 17.6465 8.39431 15.6404 8.39431C12.0422 8.39431 9.80523 10.289 9.80523 13.3459C9.80523 15.2485 10.5058 17.5173 15.935 18.2099L17.1928 18.3691C19.9631 18.7194 22.0886 19.5632 23.4977 20.8847C24.8988 22.1982 25.6073 23.9735 25.6073 26.1706C25.6073 28.6464 24.7077 30.7321 23.0121 32.2049C21.2448 33.7333 18.6416 34.5453 15.4892 34.5453C15.4573 34.5612 15.4414 34.5612 15.4175 34.5612ZM7.23391 31.1779C8.34842 31.9581 11.3655 33.7652 15.4175 33.7652C15.4414 33.7652 15.4573 33.7652 15.4812 33.7652C21.3164 33.7652 24.8032 30.9311 24.8032 26.1865C24.8032 22.1743 22.208 19.81 17.0893 19.1731L15.8315 19.0139C11.1745 18.4169 9.0012 16.6177 9.0012 13.3538C9.0012 11.6662 9.60621 10.2332 10.7526 9.21426C11.9228 8.16344 13.6184 7.60619 15.6325 7.60619C17.7739 7.60619 19.7561 8.13956 21.8498 9.27795C22.0329 9.37348 22.2638 9.47696 22.4787 9.47696C22.8608 9.47696 23.1713 9.1665 23.1713 8.78438C23.1713 8.50576 22.9643 8.21917 22.5902 7.98035C20.7592 6.84196 18.3153 6.22103 15.7121 6.22103C10.6331 6.22103 7.4807 9.03116 7.4807 13.5608C7.4807 17.5014 10.0202 19.818 15.0275 20.4548L16.3251 20.614C18.8407 20.9404 20.6159 21.5852 21.7384 22.5962C22.7733 23.5197 23.2748 24.7536 23.2748 26.3537C23.2748 30.0156 20.3214 32.38 15.7519 32.38C13.2283 32.38 10.6889 31.5441 8.19716 29.8962C8.0061 29.7689 7.7832 29.6893 7.55234 29.6733C7.14635 29.6813 6.80403 30.0077 6.78811 30.4137C6.79607 30.748 6.91548 30.955 7.23391 31.1779Z" fill="#86888C"/>
<path d="M26.4282 37.5935C25.9983 37.5219 25.7037 37.1079 25.7754 36.678L31.3161 3.06782C31.3877 2.63794 31.8017 2.34339 32.2315 2.41504C32.6614 2.48668 32.956 2.90064 32.8843 3.33052L27.3437 36.9407C27.272 37.3706 26.858 37.6652 26.4282 37.5935Z" fill="#86888C"/>
<path d="M26.563 38C26.4993 38 26.4356 37.992 26.3639 37.9841C25.7191 37.8726 25.2733 37.2597 25.3848 36.6069L30.9254 2.99667C30.9812 2.6862 31.1483 2.40757 31.411 2.22448C31.6737 2.04138 31.9842 1.96177 32.3026 2.0175C32.9475 2.12895 33.3933 2.74192 33.2818 3.3947L27.7332 37.0049C27.6377 37.586 27.1282 38 26.563 38ZM26.4913 37.2039C26.7063 37.2358 26.9132 37.0925 26.9451 36.8775L32.4937 3.26733C32.5255 3.05239 32.3823 2.84541 32.1673 2.80561C32.0638 2.78969 31.9603 2.81357 31.8728 2.87726C31.7852 2.94094 31.7295 3.02851 31.7136 3.132L26.1729 36.7422C26.1331 36.9571 26.2843 37.1641 26.4913 37.2039Z" fill="#86888C"/>
</svg>
