<svg width="24" height="24" viewBox="0 0 24 24" fill="none" xmlns="http://www.w3.org/2000/svg">
<path d="M11.9972 21.7735C17.8196 21.7735 20.7735 18.8224 20.7735 13.0028C20.7735 7.17758 17.8224 4.22652 11.9972 4.22652C6.17758 4.22652 3.22652 7.17758 3.22652 13.0028C3.22652 18.8224 6.17758 21.7735 11.9972 21.7735ZM11.9972 3C18.5396 3 22 6.4576 22 13.0028C22 19.5424 18.5424 23 11.9972 23C5.4576 23 2 19.5424 2 13.0028C2 6.4576 5.4576 3 11.9972 3Z" fill="#86888C"/>
<path d="M7.17038 17.113C7.02525 17.0106 6.9541 16.8968 6.9541 16.7232C6.95979 16.4984 7.14761 16.3191 7.37243 16.3191C7.48057 16.3248 7.58586 16.3589 7.67692 16.4215C8.3286 16.8541 9.24209 17.2866 10.2979 17.2866C11.8773 17.2866 12.8448 16.4756 12.8448 15.2747C12.8448 14.29 12.2956 13.5957 10.4857 13.3623L10.0218 13.3054C8.09525 13.0607 7.19884 12.133 7.19884 10.6987C7.19884 8.99124 8.41398 7.93262 10.2836 7.93262C11.3252 7.93262 12.2102 8.20866 12.8164 8.5843C13.0042 8.70097 13.0924 8.84611 13.0924 8.99124C13.0924 9.20467 12.9217 9.38111 12.7054 9.38111H12.7025C12.6001 9.38111 12.5005 9.33842 12.4123 9.29289C11.7464 8.93148 11.052 8.71235 10.2552 8.71235C8.82377 8.71235 8.02695 9.50917 8.02695 10.6247C8.02695 11.6378 8.65017 12.2895 10.3434 12.5058L10.793 12.5627C12.7481 12.8074 13.6758 13.7351 13.6758 15.2121C13.6758 16.8768 12.4891 18.0635 10.2011 18.0635C8.98028 18.0692 7.8932 17.6196 7.17038 17.113Z" fill="#86888C"/>
<path d="M10.1785 18.2054C9.1 18.2054 7.97593 17.8497 7.08805 17.2293C6.90023 17.0956 6.81201 16.9362 6.81201 16.7228V16.7199C6.82055 16.4211 7.07098 16.1764 7.37263 16.1764H7.38116C7.51776 16.1849 7.64866 16.2276 7.75965 16.3045C8.59915 16.8622 9.45288 17.144 10.3009 17.144C11.7608 17.144 12.7056 16.4098 12.7056 15.2743C12.7056 14.7791 12.5604 14.4206 12.2531 14.1417C11.8945 13.8201 11.3112 13.6095 10.4717 13.5014L10.0078 13.4445C9.0317 13.3193 8.28896 13.0205 7.7938 12.5481C7.30717 12.0871 7.05959 11.461 7.05959 10.6955C7.05959 8.92826 8.32596 7.78711 10.2867 7.78711C11.2685 7.78711 12.1933 8.02615 12.8934 8.46155C13.1154 8.59815 13.2377 8.78597 13.2377 8.98802C13.2377 9.28113 13.0015 9.52018 12.7084 9.52018C12.569 9.52018 12.4438 9.46326 12.3499 9.41488H12.347C11.6384 9.03071 10.9754 8.85142 10.2582 8.85142C8.97194 8.85142 8.17228 9.52871 8.17228 10.6215C8.17228 11.3016 8.42271 12.1127 10.3635 12.3602L10.8131 12.4172C11.8035 12.5424 12.5633 12.844 13.067 13.3164C13.5678 13.786 13.8211 14.4206 13.8211 15.206C13.8211 16.091 13.4995 16.8366 12.8934 17.3631C12.2616 17.9095 11.3311 18.1997 10.2042 18.1997C10.1928 18.2054 10.1871 18.2054 10.1785 18.2054ZM7.2531 16.996C7.65151 17.2749 8.73005 17.9209 10.1785 17.9209C10.1871 17.9209 10.1928 17.9209 10.2013 17.9209C12.2873 17.9209 13.5337 16.9078 13.5337 15.2117C13.5337 13.7774 12.606 12.9322 10.7762 12.7046L10.3265 12.6477C8.66176 12.4342 7.88486 11.7911 7.88486 10.6243C7.88486 10.021 8.10114 9.50879 8.51093 9.14454C8.92926 8.7689 9.5354 8.56969 10.2554 8.56969C11.0209 8.56969 11.7295 8.76036 12.4779 9.1673C12.5434 9.20145 12.6259 9.23845 12.7027 9.23845C12.8393 9.23845 12.9503 9.12746 12.9503 8.99087C12.9503 8.89126 12.8763 8.78882 12.7426 8.70344C12.088 8.2965 11.2144 8.07453 10.2838 8.07453C8.46824 8.07453 7.34132 9.07908 7.34132 10.6983C7.34132 12.107 8.24912 12.9351 10.0391 13.1627L10.503 13.2197C11.4022 13.3363 12.0368 13.5668 12.4381 13.9283C12.808 14.2584 12.9873 14.6995 12.9873 15.2715C12.9873 16.5805 11.9315 17.4257 10.2981 17.4257C9.39596 17.4257 8.48816 17.1269 7.59744 16.5378C7.52914 16.4923 7.44946 16.4638 7.36693 16.4581C7.2218 16.461 7.09943 16.5777 7.09374 16.7228C7.09659 16.8423 7.13927 16.9163 7.2531 16.996Z" fill="#86888C"/>
<path d="M14.1141 19.2892C13.9605 19.2636 13.8552 19.1156 13.8808 18.962L15.8614 6.94715C15.8871 6.79348 16.035 6.68819 16.1887 6.7138C16.3424 6.73941 16.4477 6.88739 16.4221 7.04106L14.4414 19.0559C14.4158 19.2095 14.2678 19.3148 14.1141 19.2892Z" fill="#86888C"/>
<path d="M14.1626 19.4345C14.1399 19.4345 14.1171 19.4317 14.0915 19.4288C13.861 19.389 13.7016 19.1699 13.7415 18.9365L15.7221 6.92171C15.742 6.81073 15.8018 6.71113 15.8957 6.64567C15.9896 6.58022 16.1006 6.55176 16.2144 6.57168C16.4449 6.61153 16.6043 6.83065 16.5645 7.064L14.581 19.0788C14.5468 19.2865 14.3675 19.4345 14.1626 19.4345ZM14.137 19.1499C14.2139 19.1613 14.2878 19.1101 14.2992 19.0333L16.2799 7.01847C16.2913 6.94163 16.24 6.86764 16.1632 6.85341C16.1262 6.84772 16.0892 6.85626 16.0579 6.87903C16.0266 6.90179 16.0067 6.9331 16.001 6.97009L14.0203 18.9849C14.009 19.0617 14.063 19.1357 14.137 19.1499Z" fill="#86888C"/>
</svg>
