<svg width="24" height="24" viewBox="0 0 24 24" fill="none" xmlns="http://www.w3.org/2000/svg">
<path fill-rule="evenodd" clip-rule="evenodd" d="M20.0302 7.66028C19.6461 7.66028 19.3331 7.35015 19.3331 6.96605C19.3331 6.58194 19.6432 6.26897 20.0273 6.26897C20.4114 6.26897 20.7244 6.5791 20.7244 6.9632C20.7244 7.35015 20.4143 7.66028 20.0302 7.66028ZM8.04325 11.5525C7.65914 11.5383 7.36039 11.2168 7.37178 10.8327C7.38316 10.4685 7.67621 10.1755 8.04325 10.1612C8.42735 10.147 8.74886 10.4486 8.76309 10.8327C8.77731 11.2168 8.47572 11.5383 8.09162 11.5525C8.07739 11.5554 8.06032 11.5554 8.04325 11.5525ZM20.0302 5C18.9433 5 18.0613 5.87917 18.0584 6.96605C18.0584 7.4412 18.2348 7.87083 18.5165 8.20941L16.0895 12.2724C15.9387 12.2354 15.7879 12.2155 15.6343 12.2155C15.0624 12.2155 14.5503 12.463 14.1889 12.8557L9.99791 11.0205C10.0036 10.9664 10.015 10.9152 10.015 10.8583C10.015 9.77428 9.13297 8.89226 8.04609 8.89226C6.95922 8.89226 6.0772 9.77143 6.07436 10.8583C6.07436 11.3448 6.26499 11.8001 6.57796 12.1529L4.33593 16.1049C4.21643 16.0821 4.09408 16.0679 3.97174 16.0679C2.88486 16.0679 2.00285 16.9471 2 18.034C2.00285 19.118 2.88486 20 3.97458 20C5.06146 20 5.94348 19.1208 5.94632 18.034C5.94632 17.5332 5.75285 17.0836 5.44272 16.7365L7.68759 12.7788C7.80709 12.8016 7.92375 12.8244 8.04609 12.8244C8.61798 12.8244 9.13012 12.5768 9.49146 12.1842L13.6825 14.0193C13.6796 14.0734 13.6654 14.1246 13.6654 14.1815C13.6654 15.2684 14.5474 16.1533 15.6343 16.1533C16.7212 16.1533 17.606 15.2712 17.606 14.1844V14.1815C17.606 13.7178 17.4382 13.2967 17.1679 12.9581L19.6034 8.88088C19.7428 8.91218 19.8822 8.93209 20.033 8.93209C21.1199 8.93209 21.9991 8.05292 22.0019 6.96605C21.9991 5.88202 21.117 5 20.0302 5Z" fill="#86888C"/>
</svg>
