<svg width="40" height="40" viewBox="0 0 40 40" fill="none" xmlns="http://www.w3.org/2000/svg">
<path fill-rule="evenodd" clip-rule="evenodd" d="M35.6563 9.96586C34.9393 9.96586 34.3551 9.38695 34.3551 8.66995C34.3551 7.95296 34.934 7.36874 35.651 7.36874C36.368 7.36874 36.9522 7.94765 36.9522 8.66464C36.9522 9.38695 36.3733 9.96586 35.6563 9.96586ZM13.2807 17.2314C12.5637 17.2049 12.0061 16.6047 12.0273 15.8877C12.0486 15.2079 12.5956 14.6608 13.2807 14.6343C13.9977 14.6077 14.5979 15.1707 14.6244 15.8877C14.651 16.6047 14.088 17.2049 13.371 17.2314C13.3445 17.2367 13.3126 17.2367 13.2807 17.2314ZM35.6563 5C33.6275 5 31.981 6.64112 31.9757 8.66995C31.9757 9.5569 32.305 10.3589 32.8308 10.9909L28.3005 18.5751C28.019 18.5061 27.7375 18.4689 27.4507 18.4689C26.3832 18.4689 25.4272 18.931 24.7527 19.6639L16.9294 16.2382C16.9401 16.1373 16.9613 16.0417 16.9613 15.9355C16.9613 13.912 15.3149 12.2656 13.286 12.2656C11.2572 12.2656 9.61077 13.9067 9.60546 15.9355C9.60546 16.8437 9.96131 17.6935 10.5455 18.352L6.36039 25.7291C6.13733 25.6866 5.90895 25.6601 5.68058 25.6601C3.65174 25.6601 2.00531 27.3012 2 29.33C2.00531 31.3536 3.65175 33 5.68589 33C7.71472 33 9.36115 31.3589 9.36646 29.33C9.36646 28.3953 9.00531 27.5561 8.4264 26.9082L12.6168 19.5205C12.8399 19.563 13.0577 19.6055 13.286 19.6055C14.3536 19.6055 15.3096 19.1434 15.9841 18.4105L23.8073 21.8361C23.802 21.937 23.7754 22.0326 23.7754 22.1388C23.7754 24.1677 25.4219 25.8194 27.4507 25.8194C29.4795 25.8194 31.1313 24.173 31.1313 22.1442V22.1388C31.1313 21.2731 30.8179 20.4871 30.3134 19.8551L34.8596 12.2443C35.1199 12.3027 35.3801 12.3399 35.6616 12.3399C37.6904 12.3399 39.3316 10.6988 39.3369 8.66995C39.3316 6.64643 37.6851 5 35.6563 5Z" fill="#86888C"/>
</svg>
