<svg width="20" height="20" viewBox="0 0 20 20" fill="none" xmlns="http://www.w3.org/2000/svg">
<path fill-rule="evenodd" clip-rule="evenodd" d="M16.4241 7.12822C16.1168 7.12822 15.8665 6.88012 15.8665 6.57284C15.8665 6.26555 16.1146 6.01517 16.4218 6.01517C16.7291 6.01517 16.9795 6.26328 16.9795 6.57056C16.9795 6.88012 16.7314 7.12822 16.4241 7.12822ZM6.8346 10.242C6.52731 10.2307 6.28832 9.97344 6.29742 9.66616C6.30652 9.37481 6.54097 9.14036 6.8346 9.12898C7.14188 9.1176 7.39909 9.35888 7.41047 9.66616C7.42185 9.97344 7.18058 10.2307 6.87329 10.242C6.86191 10.2443 6.84825 10.2443 6.8346 10.242ZM16.4241 5C15.5546 5 14.849 5.70334 14.8467 6.57284C14.8467 6.95296 14.9879 7.29666 15.2132 7.56753L13.2716 10.8179C13.151 10.7883 13.0303 10.7724 12.9074 10.7724C12.4499 10.7724 12.0402 10.9704 11.7511 11.2845L8.39833 9.81639C8.40288 9.77314 8.41199 9.73217 8.41199 9.68665C8.41199 8.81942 7.70637 8.11381 6.83687 8.11381C5.96737 8.11381 5.26176 8.81715 5.25948 9.68665C5.25948 10.0759 5.41199 10.4401 5.66237 10.7223L3.86874 13.8839C3.77314 13.8657 3.67527 13.8543 3.57739 13.8543C2.70789 13.8543 2.00228 14.5577 2 15.4272C2.00228 16.2944 2.70789 17 3.57967 17C4.44917 17 5.15478 16.2967 5.15706 15.4272C5.15706 15.0266 5.00228 14.6669 4.75417 14.3892L6.55008 11.2231C6.64568 11.2413 6.739 11.2595 6.83687 11.2595C7.29438 11.2595 7.7041 11.0615 7.99317 10.7473L11.346 12.2155C11.3437 12.2587 11.3323 12.2997 11.3323 12.3452C11.3323 13.2147 12.0379 13.9226 12.9074 13.9226C13.7769 13.9226 14.4848 13.217 14.4848 12.3475V12.3452C14.4848 11.9742 14.3505 11.6373 14.1343 11.3665L16.0827 8.1047C16.1942 8.12974 16.3058 8.14568 16.4264 8.14568C17.2959 8.14568 17.9992 7.44234 18.0015 6.57284C17.9992 5.70561 17.2936 5 16.4241 5Z" fill="#86888C"/>
</svg>
