<svg width="20" height="20" viewBox="0 0 20 20" fill="none" xmlns="http://www.w3.org/2000/svg">
<path fill-rule="evenodd" clip-rule="evenodd" d="M16.2311 12.074C16.7388 12.0649 16.996 11.794 16.996 11.2703C16.996 10.7445 16.7365 10.4713 16.222 10.4622L16.1104 10.4599C15.3614 10.469 15.3614 11.0655 15.3614 11.2635C15.3614 11.7962 15.6187 12.0672 16.1241 12.0763C16.1264 12.074 16.2311 12.074 16.2311 12.074ZM6.25726 12.0239C6.16164 12.0239 6.07285 12.0171 5.97951 12.0125V12.5293H6.6033V12.0102C6.49175 12.0171 6.37792 12.0239 6.25726 12.0239ZM3.01764 7.74161C3.15196 9.95447 4.21514 11.0313 6.25953 11.0313C8.30165 11.0313 9.36255 9.95447 9.49915 7.74161H9.1531C8.99374 9.54013 7.93512 10.5965 6.25953 10.5965C4.58167 10.5965 3.52533 9.54013 3.36369 7.74161H3.01764ZM16.7479 9.54468C17.4013 9.72225 18 10.2345 18 11.2681C18 12.5703 17.0575 13.0507 16.2493 13.0643H16.1127C15.3045 13.0529 14.362 12.5726 14.362 11.2612C14.362 10.1411 15.045 9.63347 15.7462 9.5037V8.0922C15.7462 6.76039 14.8036 6.53956 14.2413 6.5259L14.0615 6.52362C13.5105 6.52817 12.5885 6.73762 12.5885 8.08082L12.5908 8.14229V14.6397C12.5908 17.0734 10.8355 17.9704 9.33068 17.9977C9.27149 17.9977 9.20319 18 9.13489 18H9.04838C7.47069 17.9772 5.786 17.078 5.786 14.6238V13.5196H5.57427C5.24644 13.5196 4.9778 13.2328 4.9778 12.8776V11.8736C3.04724 11.4069 2 9.80649 2 7.2453C2 6.97211 2.22538 6.749 2.50085 6.749H2.64883V4.16278C2.64656 4.06944 2.62834 3.09277 3.19294 2.51907C3.44565 2.25953 3.77803 2.12294 4.15595 2.11611C4.30165 2.01594 4.47012 2 4.54069 2H4.60216C4.73193 2.00228 5.23278 2.05464 5.23278 2.65339C5.23278 3.25441 4.72965 3.29994 4.60444 3.30222H4.54525C4.46329 3.30222 4.24018 3.28173 4.0831 3.12464C4.01935 3.13375 3.95788 3.16562 3.91235 3.21116C3.69835 3.42743 3.64599 3.93512 3.65054 4.14684V6.75128H3.84405C4.1218 6.75128 4.34491 6.97439 4.34491 7.24758C4.34491 8.81389 4.98919 9.60842 6.25726 9.60842C7.52533 9.60842 8.16961 8.81389 8.16961 7.24758C8.16961 6.97439 8.39499 6.75128 8.67046 6.75128H8.87763V4.16278C8.88219 3.97837 8.84348 3.43882 8.61582 3.20888C8.58365 3.1767 8.54525 3.15143 8.50297 3.1346C8.4607 3.11776 8.41543 3.10973 8.36995 3.11098C8.21286 3.27945 7.98293 3.30222 7.89869 3.30222H7.8395C7.71429 3.29994 7.21343 3.25213 7.21343 2.65339C7.21343 2.05464 7.71429 2.00455 7.84178 2.00228H7.90324C7.97382 2.00228 8.14912 2.02049 8.2971 2.12749C8.31531 2.12521 8.33125 2.11611 8.34946 2.11611C8.73648 2.11611 9.08025 2.25498 9.33978 2.52134C9.90211 3.09505 9.88617 4.07171 9.88162 4.18099V6.75128H10.0137C10.2914 6.75128 10.5145 6.97439 10.5145 7.24758C10.5145 9.77689 9.49459 11.3728 7.60729 11.86V12.8799C7.60729 13.2351 7.34092 13.5219 7.01081 13.5219H6.78543V14.6215C6.78543 16.7456 8.37678 16.996 9.05976 17.0074C9.144 17.0097 9.23506 17.0074 9.31019 17.0051C9.99317 16.9915 11.5845 16.7365 11.5845 14.6375V8.08993C11.5845 6.21628 12.9141 5.5424 14.0501 5.53102C14.1184 5.53102 14.1981 5.53102 14.2641 5.5333C15.4092 5.56061 16.7479 6.24587 16.7479 8.0922V9.54468ZM16.2379 10.8924C16.3062 10.8947 16.568 10.922 16.568 11.2362C16.568 11.5504 16.3039 11.5754 16.2379 11.5777H16.206C16.1355 11.5777 15.8759 11.5526 15.8759 11.2339C15.8759 10.9175 16.1332 10.8947 16.2015 10.8947L16.2379 10.8924Z" fill="#86888C"/>
</svg>
