<svg width="28" height="28" viewBox="0 0 28 28" fill="none" xmlns="http://www.w3.org/2000/svg">
<path fill-rule="evenodd" clip-rule="evenodd" d="M21.5104 21.3196C22.6559 20.2195 23.2887 18.4898 23.3925 16.1761L3.42548 16.1534L3.70455 22.2412C3.70455 22.2412 3.73376 22.5981 3.89601 22.5981H18.3139C18.3691 22.5916 20.1117 22.663 21.5104 21.3196ZM5.67108 12.0808L5.65161 14.6639L18.5022 14.6477C18.3983 13.9272 18.1257 13.3529 17.6941 12.9342C16.7725 12.0483 15.3707 12.0873 15.3577 12.0808C15.2765 12.071 11.3857 12.0743 8.51702 12.0743C7.18004 12.0775 6.06373 12.0775 5.67108 12.0808ZM8.01079 7.17421H11.2981V6.40512H8.01079V7.17421ZM8.01079 10.6659H11.2981V8.57609H8.01079V10.6659ZM24.1064 14.771C24.4926 14.771 24.8041 15.0857 24.8041 15.4719C24.8041 18.5547 24.0123 20.8685 22.4514 22.3515C20.8354 23.8897 18.9208 24 18.4048 24C18.3302 24 18.2847 23.9968 18.275 23.9968H3.89601C2.78944 23.9968 2.34162 22.981 2.31241 22.2996L2.00088 15.4784C1.99115 15.2869 2.06254 15.0987 2.19234 14.9592C2.32539 14.8196 2.50712 14.7418 2.69533 14.7418L4.25297 14.745L4.27569 11.9348C4.25297 11.6979 4.30814 11.3798 4.52232 11.1202C4.68457 10.9223 4.9961 10.6822 5.56399 10.6757C5.71651 10.6724 6.09943 10.6724 6.61864 10.6724V5.70094C6.61864 5.31477 6.93017 5 7.31634 5H11.999C12.3852 5 12.6967 5.31477 12.6967 5.70094V10.6757C14.1083 10.6789 15.2052 10.6789 15.3317 10.6789C15.3836 10.6789 17.3047 10.6108 18.6612 11.9218C19.3946 12.6292 19.797 13.593 19.9008 14.7677L24.1064 14.771ZM7.18004 18.889C6.92044 18.889 6.71275 19.0999 6.71275 19.3595C6.71275 19.6191 6.92368 19.8301 7.18004 19.8301C7.43641 19.8301 7.64734 19.6191 7.64734 19.3595C7.64734 19.0999 7.43641 18.889 7.18004 18.889ZM7.18004 20.7711C6.40771 20.7711 5.78141 20.1383 5.78141 19.3628C5.78141 18.5872 6.40771 17.9544 7.18004 17.9544C7.95238 17.9544 8.57868 18.5872 8.57868 19.3628C8.57868 20.1383 7.94913 20.7711 7.18004 20.7711ZM11.853 18.889C11.5934 18.889 11.3824 19.0999 11.3824 19.3595C11.3824 19.6191 11.5934 19.8301 11.853 19.8301C12.1126 19.8301 12.3203 19.6191 12.3203 19.3595C12.3203 19.0999 12.1126 18.889 11.853 18.889ZM11.853 20.7711C11.0806 20.7711 10.4543 20.1383 10.4543 19.3628C10.4543 18.5872 11.0839 17.9544 11.853 17.9544C12.6253 17.9544 13.2516 18.5872 13.2516 19.3628C13.2549 20.1383 12.6253 20.7711 11.853 20.7711ZM16.5291 18.889C16.2695 18.889 16.0619 19.0999 16.0619 19.3595C16.0619 19.6191 16.2728 19.8301 16.5291 19.8301C16.7888 19.8301 16.9964 19.6191 16.9964 19.3595C16.9964 19.0999 16.7888 18.889 16.5291 18.889ZM16.5291 20.7711C15.7568 20.7711 15.1305 20.1383 15.1305 19.3628C15.1305 18.5872 15.7568 17.9544 16.5291 17.9544C17.3015 17.9544 17.9278 18.5872 17.9278 19.3628C17.9278 20.1383 17.3015 20.7711 16.5291 20.7711Z" fill="#86888C"/>
</svg>
