<svg width="24" height="24" viewBox="0 0 24 24" fill="none" xmlns="http://www.w3.org/2000/svg">
<path fill-rule="evenodd" clip-rule="evenodd" d="M19.4566 18.6017C20.4816 17.6174 21.0478 16.0699 21.1407 13.9997L3.27543 13.9793L3.52513 19.4263C3.52513 19.4263 3.55126 19.7457 3.69643 19.7457H16.5967C16.646 19.7399 18.2052 19.8038 19.4566 18.6017ZM5.28465 10.3354L5.26723 12.6466L16.7651 12.6321C16.6722 11.9875 16.4283 11.4736 16.0421 11.0991C15.2175 10.3064 13.9632 10.3412 13.9516 10.3354C13.879 10.3267 10.3977 10.3296 7.83102 10.3296C6.63478 10.3325 5.63597 10.3325 5.28465 10.3354ZM7.37807 5.94535H10.3193V5.25722H7.37807V5.94535ZM7.37807 9.06951H10.3193V7.19966H7.37807V9.06951ZM21.7794 12.7424C22.125 12.7424 22.4037 13.0241 22.4037 13.3696C22.4037 16.1279 21.6952 18.1981 20.2987 19.525C18.8527 20.9013 17.1396 21 16.678 21C16.6112 21 16.5706 20.9971 16.5618 20.9971H3.69643C2.70634 20.9971 2.30566 20.0883 2.27952 19.4786L2.00079 13.3754C1.99208 13.2041 2.05595 13.0357 2.17209 12.9108C2.29114 12.786 2.45373 12.7163 2.62214 12.7163L4.01582 12.7192L4.03614 10.2048C4.01582 9.99283 4.06518 9.70828 4.25681 9.476C4.40198 9.29889 4.68072 9.08403 5.18883 9.07822C5.3253 9.07532 5.66791 9.07532 6.13247 9.07532V4.62716C6.13247 4.28164 6.41121 4 6.75672 4H10.9465C11.292 4 11.5707 4.28164 11.5707 4.62716V9.07822C12.8338 9.08113 13.8151 9.08113 13.9284 9.08113C13.9748 9.08113 15.6937 9.02015 16.9074 10.1932C17.5636 10.8261 17.9236 11.6885 18.0165 12.7395L21.7794 12.7424ZM6.63478 16.427C6.4025 16.427 6.21667 16.6157 6.21667 16.848C6.21667 17.0803 6.4054 17.269 6.63478 17.269C6.86415 17.269 7.05288 17.0803 7.05288 16.848C7.05288 16.6157 6.86415 16.427 6.63478 16.427ZM6.63478 18.111C5.94374 18.111 5.38337 17.5448 5.38337 16.8509C5.38337 16.157 5.94374 15.5908 6.63478 15.5908C7.32581 15.5908 7.88619 16.157 7.88619 16.8509C7.88619 17.5448 7.32291 18.111 6.63478 18.111ZM10.8158 16.427C10.5835 16.427 10.3948 16.6157 10.3948 16.848C10.3948 17.0803 10.5835 17.269 10.8158 17.269C11.0481 17.269 11.2339 17.0803 11.2339 16.848C11.2339 16.6157 11.0481 16.427 10.8158 16.427ZM10.8158 18.111C10.1248 18.111 9.56441 17.5448 9.56441 16.8509C9.56441 16.157 10.1277 15.5908 10.8158 15.5908C11.5069 15.5908 12.0672 16.157 12.0672 16.8509C12.0701 17.5448 11.5069 18.111 10.8158 18.111ZM14.9998 16.427C14.7675 16.427 14.5817 16.6157 14.5817 16.848C14.5817 17.0803 14.7704 17.269 14.9998 17.269C15.232 17.269 15.4179 17.0803 15.4179 16.848C15.4179 16.6157 15.232 16.427 14.9998 16.427ZM14.9998 18.111C14.3087 18.111 13.7484 17.5448 13.7484 16.8509C13.7484 16.157 14.3087 15.5908 14.9998 15.5908C15.6908 15.5908 16.2512 16.157 16.2512 16.8509C16.2512 17.5448 15.6908 18.111 14.9998 18.111Z" fill="#86888C"/>
</svg>
