<svg width="40" height="40" viewBox="0 0 40 40" fill="none" xmlns="http://www.w3.org/2000/svg">
<path fill-rule="evenodd" clip-rule="evenodd" d="M19.2573 19.2214C19.0985 19.3802 19.0114 19.7695 19.0114 20.2869C19.0114 20.8042 19.0985 21.1884 19.2573 21.3523C19.4109 21.506 19.7746 21.5982 20.2561 21.5982C20.7376 21.5982 21.1013 21.506 21.2601 21.3472C21.4189 21.1884 21.506 20.8042 21.506 20.2869C21.506 19.7695 21.4138 19.3853 21.255 19.2265C21.0962 19.0626 20.7325 18.9755 20.2561 18.9755C19.7797 18.9755 19.4109 19.0626 19.2573 19.2214ZM20.2561 23.9135C19.1702 23.9135 18.3147 23.6164 17.7308 23.0171C17.1212 22.4024 16.8139 21.4855 16.8139 20.292C16.8139 19.1036 17.1212 18.1816 17.7308 17.5669C18.3147 16.9676 19.1702 16.6653 20.2561 16.6653C21.3421 16.6653 22.1924 16.9676 22.7814 17.5669C23.3961 18.1867 23.7035 19.1036 23.7035 20.292C23.7035 21.4855 23.391 22.4024 22.7814 23.0171C22.1924 23.6113 21.3421 23.9135 20.2561 23.9135ZM22.2897 6.13375H18.2891C18.4377 7.0148 18.5606 7.76266 18.5709 7.82925C18.5862 7.94195 18.7143 8.46443 18.9397 8.46443H21.4496C21.6135 8.46443 21.7109 8.22368 21.7723 8.01878C21.9106 7.50655 22.1207 6.74331 22.2897 6.13375ZM15.4821 3.54183C15.0774 3.53671 14.7547 3.18839 14.7598 2.75811C14.7649 2.33808 15.0928 2 15.4923 2H16.1685C16.9163 2 17.5515 2.5276 17.7564 3.31645C17.823 3.57769 17.9152 4.04382 18.0176 4.5868H23.2629C23.4935 4.5868 23.7086 4.69949 23.8469 4.89414C23.9852 5.08879 24.0313 5.33466 23.9647 5.57029C23.9647 5.57029 23.4525 7.46044 23.1707 8.44906C22.9044 9.41719 22.2538 10.0011 21.4445 10.0011H18.9345C17.8691 10.0011 17.2493 8.99203 17.1212 8.06488C17.0342 7.53216 16.8651 6.48207 16.6961 5.52419C16.691 5.50882 16.691 5.49345 16.6858 5.47297C16.5526 4.70973 16.4195 4.02334 16.3426 3.72112C16.2965 3.55208 16.189 3.54183 16.1633 3.54183C15.7997 3.54696 15.4821 3.54183 15.4821 3.54183ZM19.037 10.6773H19.0882C19.2265 10.6824 19.7644 10.7388 19.7644 11.42C19.7644 12.1064 19.2265 12.1628 19.0933 12.1628H19.0319C18.8884 12.1577 18.3608 12.1064 18.3608 11.4149C18.3608 10.7285 18.8884 10.6773 19.0268 10.6722H19.037V10.6773ZM21.2908 10.6773H21.3421C21.4804 10.6824 22.0182 10.7388 22.0182 11.42C22.0182 12.1064 21.4804 12.1628 21.3472 12.1628H21.2806C21.1372 12.1577 20.6096 12.1064 20.6096 11.4149C20.6096 10.7285 21.1372 10.6773 21.2806 10.6722H21.2908V10.6773ZM32.1656 35.5976H35.8025V21.4445H32.1656V35.5976ZM15.897 35.654L24.5538 35.6232V27.9806H15.897V35.654ZM10.4314 15.0211V35.6744L13.6944 35.6642V26.823C13.6944 26.1827 14.1861 25.6653 14.7957 25.6653H25.65C26.2544 25.6653 26.7513 26.1827 26.7513 26.823V35.613L29.9732 35.6027V34.3221V15.0211C29.9271 15.0006 29.8657 14.9801 29.8093 14.9801H10.5953C10.5339 14.9801 10.4775 15.0006 10.4314 15.0211ZM4.1975 35.5976H7.83438V21.4445H4.1975V35.5976ZM36.8987 19.1292C37.5083 19.1292 38 19.6466 38 20.2869V36.7553C38 37.3904 37.498 38 36.8936 38H3.10643C2.50199 38 2 37.3904 2 36.7553V20.2869C2 19.6466 2.49175 19.1292 3.10131 19.1292H8.23392V14.7906C8.23392 13.6585 9.34035 12.6699 10.5953 12.6699H29.8093C31.0694 12.6699 32.1707 13.6636 32.1707 14.7957V19.1343H36.8987V19.1292Z" fill="#86888C"/>
</svg>
