<svg width="20" height="20" viewBox="0 0 20 20" fill="none" xmlns="http://www.w3.org/2000/svg">
<path fill-rule="evenodd" clip-rule="evenodd" d="M9.66989 9.65396C9.59932 9.72453 9.56062 9.89755 9.56062 10.1275C9.56062 10.3574 9.59932 10.5282 9.66989 10.601C9.73819 10.6693 9.89983 10.7103 10.1138 10.7103C10.3278 10.7103 10.4895 10.6693 10.56 10.5987C10.6306 10.5282 10.6693 10.3574 10.6693 10.1275C10.6693 9.89755 10.6283 9.72681 10.5578 9.65623C10.4872 9.58338 10.3256 9.54468 10.1138 9.54468C9.90211 9.54468 9.73819 9.58338 9.66989 9.65396ZM10.1138 11.7393C9.63119 11.7393 9.251 11.6073 8.99146 11.3409C8.72055 11.0677 8.58395 10.6602 8.58395 10.1298C8.58395 9.60159 8.72055 9.1918 8.99146 8.91861C9.251 8.65225 9.63119 8.51793 10.1138 8.51793C10.5965 8.51793 10.9744 8.65225 11.2362 8.91861C11.5094 9.19408 11.646 9.60159 11.646 10.1298C11.646 10.6602 11.5071 11.0677 11.2362 11.3409C10.9744 11.605 10.5965 11.7393 10.1138 11.7393ZM11.0176 3.83722H9.23961C9.30563 4.2288 9.36027 4.56118 9.36483 4.59078C9.37166 4.64087 9.42857 4.87308 9.52874 4.87308H10.6443C10.7171 4.87308 10.7604 4.76608 10.7877 4.67501C10.8492 4.44735 10.9425 4.10814 11.0176 3.83722ZM7.99203 2.68526C7.81218 2.68298 7.66875 2.52817 7.67103 2.33694C7.67331 2.15026 7.81901 2 7.99659 2H8.2971C8.62948 2 8.91178 2.23449 9.00285 2.58509C9.03244 2.7012 9.07342 2.90837 9.11895 3.14969H11.4502C11.5526 3.14969 11.6483 3.19977 11.7097 3.28628C11.7712 3.37279 11.7917 3.48207 11.7621 3.5868C11.7621 3.5868 11.5344 4.42686 11.4092 4.86625C11.2908 5.29653 11.0017 5.55606 10.642 5.55606H9.52647C9.05293 5.55606 8.77746 5.10757 8.72055 4.6955C8.68184 4.45874 8.60672 3.99203 8.53159 3.56631C8.52931 3.55948 8.52931 3.55265 8.52704 3.54354C8.46784 3.20433 8.40865 2.89926 8.3745 2.76494C8.35401 2.68981 8.3062 2.68526 8.29482 2.68526C8.13318 2.68754 7.99203 2.68526 7.99203 2.68526ZM9.572 5.85657H9.59476C9.65623 5.85885 9.89528 5.88389 9.89528 6.18668C9.89528 6.49175 9.65623 6.51679 9.59704 6.51679H9.56972C9.50598 6.51451 9.27149 6.49175 9.27149 6.18441C9.27149 5.87934 9.50598 5.85657 9.56744 5.8543H9.572V5.85657ZM10.5737 5.85657H10.5965C10.6579 5.85885 10.897 5.88389 10.897 6.18668C10.897 6.49175 10.6579 6.51679 10.5987 6.51679H10.5692C10.5054 6.51451 10.2709 6.49175 10.2709 6.18441C10.2709 5.87934 10.5054 5.85657 10.5692 5.8543H10.5737V5.85657ZM15.4069 16.9323H17.0233V10.642H15.4069V16.9323ZM8.17644 16.9573L12.0239 16.9437V13.547H8.17644V16.9573ZM5.7473 7.78714V16.9664L7.1975 16.9619V13.0324C7.1975 12.7479 7.41605 12.5179 7.68697 12.5179H12.5111C12.7797 12.5179 13.0006 12.7479 13.0006 13.0324V16.9391L14.4326 16.9345V16.3654V7.78714C14.4121 7.77803 14.3847 7.76892 14.3597 7.76892H5.82015C5.79283 7.76892 5.76779 7.77803 5.7473 7.78714ZM2.97666 16.9323H4.59306V10.642H2.97666V16.9323ZM17.5105 9.61298C17.7814 9.61298 18 9.84291 18 10.1275V17.4468C18 17.7291 17.7769 18 17.5083 18H2.49175C2.22311 18 2 17.7291 2 17.4468V10.1275C2 9.84291 2.21855 9.61298 2.48947 9.61298H4.77063V7.68469C4.77063 7.18156 5.26238 6.74217 5.82015 6.74217H14.3597C14.9198 6.74217 15.4092 7.18384 15.4092 7.68697V9.61525H17.5105V9.61298Z" fill="#86888C"/>
</svg>
