<svg width="28" height="28" viewBox="0 0 28 28" fill="none" xmlns="http://www.w3.org/2000/svg">
<path fill-rule="evenodd" clip-rule="evenodd" d="M13.5048 13.4809C13.399 13.5868 13.3409 13.8463 13.3409 14.1912C13.3409 14.5361 13.399 14.7923 13.5048 14.9015C13.6073 15.004 13.8497 15.0655 14.1707 15.0655C14.4917 15.0655 14.7342 15.004 14.8401 14.8981C14.9459 14.7923 15.004 14.5361 15.004 14.1912C15.004 13.8463 14.9425 13.5902 14.8367 13.4843C14.7308 13.3751 14.4883 13.317 14.1707 13.317C13.8532 13.317 13.6073 13.3751 13.5048 13.4809ZM14.1707 16.609C13.4468 16.609 12.8765 16.4109 12.4872 16.0114C12.0808 15.6016 11.8759 14.9903 11.8759 14.1946C11.8759 13.4024 12.0808 12.7877 12.4872 12.3779C12.8765 11.9784 13.4468 11.7769 14.1707 11.7769C14.8947 11.7769 15.4616 11.9784 15.8543 12.3779C16.2641 12.7911 16.469 13.4024 16.469 14.1946C16.469 14.9903 16.2607 15.6016 15.8543 16.0114C15.4616 16.4075 14.8947 16.609 14.1707 16.609ZM15.5265 4.75583H12.8594C12.9585 5.3432 13.0404 5.84178 13.0472 5.88617C13.0575 5.9613 13.1429 6.30962 13.2931 6.30962H14.9664C15.0757 6.30962 15.1406 6.14912 15.1816 6.01252C15.2738 5.67103 15.4138 5.16221 15.5265 4.75583ZM10.988 3.02789C10.7183 3.02447 10.5031 2.79226 10.5065 2.50541C10.51 2.22538 10.7285 2 10.9949 2H11.4456C11.9442 2 12.3677 2.35174 12.5043 2.87763C12.5487 3.05179 12.6101 3.36255 12.6784 3.72453H16.1753C16.329 3.72453 16.4724 3.79966 16.5646 3.92943C16.6568 4.05919 16.6875 4.22311 16.6431 4.38019C16.6431 4.38019 16.3017 5.6403 16.1138 6.29937C15.9363 6.94479 15.5026 7.33409 14.963 7.33409H13.2897C12.5794 7.33409 12.1662 6.66135 12.0808 6.04326C12.0228 5.6881 11.9101 4.98805 11.7974 4.34946C11.794 4.33921 11.794 4.32897 11.7906 4.31531C11.7018 3.80649 11.613 3.34889 11.5618 3.14741C11.531 3.03472 11.4593 3.02789 11.4422 3.02789C11.1998 3.0313 10.988 3.02789 10.988 3.02789ZM13.358 7.78486H13.3921C13.4843 7.78828 13.8429 7.82584 13.8429 8.28002C13.8429 8.73762 13.4843 8.77518 13.3956 8.77518H13.3546C13.259 8.77177 12.9072 8.73762 12.9072 8.27661C12.9072 7.81901 13.259 7.78486 13.3512 7.78145H13.358V7.78486ZM14.8606 7.78486H14.8947C14.9869 7.78828 15.3455 7.82584 15.3455 8.28002C15.3455 8.73762 14.9869 8.77518 14.8981 8.77518H14.8537C14.7581 8.77177 14.4064 8.73762 14.4064 8.27661C14.4064 7.81901 14.7581 7.78486 14.8537 7.78145H14.8606V7.78486ZM22.1104 24.3984H24.535V14.963H22.1104V24.3984ZM11.2647 24.436L17.0359 24.4155V19.3204H11.2647V24.436ZM7.62094 10.6807V24.4496L9.79624 24.4428V18.5487C9.79624 18.1218 10.1241 17.7769 10.5304 17.7769H17.7666C18.1696 17.7769 18.5009 18.1218 18.5009 18.5487V24.4087L20.6488 24.4018V23.5481V10.6807C20.6181 10.667 20.5771 10.6534 20.5396 10.6534H7.73022C7.68924 10.6534 7.65168 10.667 7.62094 10.6807ZM3.465 24.3984H5.88958V14.963H3.465V24.3984ZM25.2658 13.4195C25.6722 13.4195 26 13.7644 26 14.1912V25.1702C26 25.5936 25.6653 26 25.2624 26H2.73762C2.33466 26 2 25.5936 2 25.1702V14.1912C2 13.7644 2.32783 13.4195 2.73421 13.4195H6.15595V10.527C6.15595 9.77234 6.89357 9.11326 7.73022 9.11326H20.5396C21.3796 9.11326 22.1138 9.77575 22.1138 10.5304V13.4229H25.2658V13.4195Z" fill="#86888C"/>
</svg>
