<svg width="28" height="28" viewBox="0 0 28 28" fill="none" xmlns="http://www.w3.org/2000/svg">
<path d="M15.0085 16.3911C11.5507 16.3911 9.646 14.4864 9.646 11.0286C9.646 7.57072 11.5541 5.66602 15.0085 5.66602C18.4629 5.66602 20.3711 7.57072 20.3711 11.0286C20.3711 14.4864 18.4664 16.3911 15.0085 16.3911ZM15.0085 7.0314C13.6875 7.0314 12.6874 7.35226 12.032 7.98375C11.3561 8.63572 11.0114 9.65976 11.0114 11.032C11.0114 12.4042 11.3527 13.4282 12.032 14.0802C12.6874 14.7117 13.6875 15.0325 15.0085 15.0325C16.3295 15.0325 17.3297 14.7117 17.9851 14.0802C18.6609 13.4282 19.0057 12.4042 19.0057 11.032C19.0057 9.65976 18.6643 8.63572 17.9851 7.98375C17.3331 7.34885 16.333 7.0314 15.0085 7.0314Z" fill="#86888C"/>
<path d="M20.4152 13.609H17.1826C16.8072 13.609 16.4999 13.3018 16.4999 12.9263C16.4999 12.5508 16.8072 12.2436 17.1826 12.2436H20.4152C20.7258 12.2436 20.9511 12.1754 21.0876 12.0388C21.2617 11.8682 21.2959 11.5644 21.2959 11.3425V11.3322L21.3061 10.67C21.3061 8.5298 20.7599 6.91865 19.6847 5.88096C18.6402 4.87399 17.0666 4.36538 15.0049 4.36538C13.1411 4.36538 11.6699 4.78182 10.639 5.60447C9.59112 6.43735 8.96304 7.72764 8.76847 9.43778C8.7241 9.81326 8.38617 10.0795 8.01069 10.0385C7.63521 9.99417 7.36896 9.65624 7.40992 9.28076C7.64886 7.19855 8.44761 5.60447 9.78568 4.53605C11.0657 3.51543 12.8237 3 15.0049 3C17.4318 3 19.3263 3.63832 20.6302 4.89788C21.9854 6.20523 22.6715 8.14749 22.6715 10.6734V10.6837L22.6612 11.3459C22.6612 12.0388 22.4462 12.6123 22.0468 13.0083C21.6474 13.4042 21.0979 13.609 20.4152 13.609Z" fill="#86888C"/>
<path d="M16.3842 12.1377C15.8995 12.1377 15.582 12.3903 15.582 12.933C15.582 13.1925 15.6537 13.387 15.7834 13.5167C15.9234 13.6567 16.1282 13.725 16.3808 13.725C16.6334 13.725 16.8382 13.6567 16.9781 13.5167C17.1078 13.387 17.1795 13.1925 17.1795 12.933C17.1829 12.3903 16.8689 12.1377 16.3842 12.1377Z" fill="#86888C"/>
<path d="M16.384 14.0697C16.0358 14.0697 15.7423 13.9639 15.5443 13.7591C15.3463 13.5543 15.2439 13.2812 15.2439 12.9331C15.2439 12.2333 15.6808 11.7964 16.3874 11.7964C17.094 11.7964 17.5309 12.2333 17.5309 12.9331C17.5309 13.2778 17.4285 13.5577 17.2306 13.7591C17.0326 13.9605 16.7322 14.0697 16.384 14.0697ZM16.384 12.4791C16.0563 12.4791 15.9232 12.6122 15.9232 12.9331C15.9232 13.0935 15.9573 13.2096 16.0256 13.2778C16.1144 13.3666 16.268 13.3871 16.3806 13.3871C16.4932 13.3871 16.6469 13.37 16.7356 13.2778C16.8039 13.2096 16.838 13.0935 16.838 12.9331C16.8414 12.6088 16.7083 12.4791 16.384 12.4791ZM25.317 26.9999H4.68269C4.30721 26.9999 4 26.6927 4 26.3172V24.3203C4 22.4122 4.59735 20.7806 5.73062 19.603C6.96288 18.3229 8.79249 17.647 11.0181 17.647H18.9817C21.2072 17.647 23.0368 18.3229 24.2691 19.603C25.4024 20.7806 25.9997 22.4122 25.9997 24.3203V26.3172C25.9997 26.6961 25.6959 26.9999 25.317 26.9999ZM5.36538 25.6345H24.6343V24.3203C24.6343 22.7706 24.1667 21.4667 23.286 20.5519C22.3029 19.5313 20.8556 19.0124 18.9817 19.0124H11.0215C9.14749 19.0124 7.70019 19.5313 6.71711 20.5519C5.83303 21.4667 5.36538 22.7706 5.36538 24.3203V25.6345Z" fill="#86888C"/>
</svg>
