<svg width="20" height="20" viewBox="0 0 20 20" fill="none" xmlns="http://www.w3.org/2000/svg">
<path d="M7.3394 12.6721C6.35164 12.6721 5.58236 12.3875 5.04979 11.8228C4.5468 11.2922 4.29417 10.5522 4.29417 9.62553C4.29417 8.69882 4.54908 7.95882 5.04979 7.42829C5.58236 6.86361 6.35164 6.57672 7.3394 6.57672C8.32717 6.57672 9.09644 6.86361 9.62902 7.42602C10.1297 7.95654 10.3846 8.69654 10.3846 9.62325C10.3846 10.55 10.1297 11.29 9.62902 11.8205C9.09644 12.3875 8.32489 12.6721 7.3394 12.6721ZM7.3394 7.48749C5.92148 7.48749 5.20455 8.207 5.20455 9.62325C5.20455 11.0395 5.92376 11.759 7.3394 11.759C8.75505 11.759 9.47425 11.0395 9.47425 9.62325C9.47425 8.207 8.75505 7.48749 7.3394 7.48749ZM12.2213 18.0001H2.45519C2.20484 18.0001 2 17.7952 2 17.5447V16.7C2 15.607 2.28905 14.7623 2.86031 14.1885C3.43158 13.6147 4.27368 13.321 5.35932 13.321H9.31721C10.4051 13.321 11.245 13.6124 11.8162 14.1885C12.3875 14.7646 12.6765 15.607 12.6765 16.7V17.5447C12.6765 17.7974 12.474 18.0001 12.2213 18.0001ZM2.91038 17.0893H11.7661V16.7C11.7661 15.8575 11.5659 15.2268 11.1721 14.8306C10.7784 14.4344 10.1548 14.2318 9.31949 14.2318H5.35932C4.52404 14.2318 3.90043 14.4321 3.50669 14.8306C3.11294 15.2291 2.91038 15.8575 2.91038 16.7V17.0893ZM14.2105 5.66823C14.0216 5.66823 13.8691 5.51339 13.8714 5.32441V5.18096C13.8714 4.81438 14.1104 4.60262 14.2697 4.44779C14.3334 4.38631 14.4905 4.28613 14.4905 4.1404C14.4905 4.04705 14.4358 3.8444 14.2105 3.8444C13.9852 3.8444 13.8714 4.02656 13.8714 4.13585C13.8714 4.32256 13.7189 4.47511 13.5323 4.47511C13.3457 4.47511 13.1932 4.32256 13.1932 4.13585C13.1932 3.56662 13.5892 3.19775 14.2128 3.19775C14.7977 3.19775 15.1892 3.68502 15.1892 4.13813C15.1892 4.52521 14.9798 4.65727 14.8137 4.82576C14.7431 4.89634 14.5519 5.02385 14.5519 5.17868V5.31758C14.5565 5.50656 14.4063 5.66367 14.2196 5.66595C14.2151 5.66822 14.2128 5.66823 14.2105 5.66823Z" fill="#86888C"/>
<path d="M14.2104 6.59045C14.4077 6.59045 14.5677 6.4304 14.5677 6.23297C14.5677 6.03554 14.4077 5.87549 14.2104 5.87549C14.013 5.87549 13.853 6.03554 13.853 6.23297C13.853 6.4304 14.013 6.59045 14.2104 6.59045Z" fill="#86888C"/>
<path d="M12.2375 9.78938C12.2079 9.78938 12.1761 9.78711 12.1465 9.78255C11.8096 9.73246 11.5365 9.40686 11.5365 9.06077V7.79251H11.4478C10.7399 7.79251 10.2051 7.22784 10.2051 6.481V3.31151C10.2051 2.58745 10.7923 2 11.516 2H16.6893C17.413 2 18.0002 2.58745 18.0002 3.31151V6.48328C18.0002 7.20734 17.413 7.79479 16.6893 7.79479H14.0173C13.7624 8.19781 13.223 9.0471 13.116 9.20877C12.8793 9.5708 12.5425 9.78938 12.2375 9.78938ZM11.516 2.91077C11.2953 2.91077 11.1155 3.09065 11.1155 3.31151V6.48328C11.1155 6.68365 11.2179 6.88402 11.4478 6.88402H11.9917C12.2421 6.88402 12.4469 7.08894 12.4469 7.33941V8.56667C12.7132 8.15227 13.3755 7.10716 13.3823 7.09577C13.4665 6.96371 13.6099 6.88402 13.767 6.88402H16.6893C16.9101 6.88402 17.0899 6.70414 17.0899 6.48328V3.31151C17.0899 3.09065 16.9101 2.91077 16.6893 2.91077H11.516Z" fill="#86888C"/>
</svg>
