<svg width="20" height="20" viewBox="0 0 20 20" fill="none" xmlns="http://www.w3.org/2000/svg">
<path d="M10.3387 10.9274C8.03348 10.9274 6.76367 9.65759 6.76367 7.35237C6.76367 5.04715 8.03575 3.77734 10.3387 3.77734C12.6416 3.77734 13.9137 5.04715 13.9137 7.35237C13.9137 9.65759 12.6439 10.9274 10.3387 10.9274ZM10.3387 4.6876C9.45803 4.6876 8.79126 4.90151 8.35434 5.3225C7.90377 5.75715 7.67393 6.43984 7.67393 7.35464C7.67393 8.26945 7.90149 8.95214 8.35434 9.38679C8.79126 9.80778 9.45803 10.0217 10.3387 10.0217C11.2194 10.0217 11.8861 9.80778 12.3231 9.38679C12.7736 8.95214 13.0035 8.26945 13.0035 7.35464C13.0035 6.43984 12.7759 5.75715 12.3231 5.3225C11.8884 4.89923 11.2216 4.6876 10.3387 4.6876Z" fill="#86888C"/>
<path d="M13.9435 9.07268H11.7884C11.5381 9.07268 11.3333 8.86787 11.3333 8.61755C11.3333 8.36723 11.5381 8.16242 11.7884 8.16242H13.9435C14.1505 8.16242 14.3007 8.11691 14.3918 8.02589C14.5078 7.9121 14.5306 7.70957 14.5306 7.56166V7.55483L14.5374 7.11336C14.5374 5.68653 14.1733 4.61243 13.4565 3.92064C12.7601 3.24932 11.7111 2.91025 10.3366 2.91025C9.09407 2.91025 8.11327 3.18788 7.42603 3.73631C6.72741 4.29157 6.30869 5.15176 6.17898 6.29185C6.1494 6.54217 5.92411 6.71967 5.67379 6.69236C5.42347 6.66278 5.24597 6.43749 5.27328 6.18717C5.43257 4.79903 5.96507 3.73631 6.85712 3.02404C7.71049 2.34362 8.88244 2 10.3366 2C11.9545 2 13.2175 2.42554 14.0868 3.26525C14.9902 4.13682 15.4476 5.43166 15.4476 7.11563V7.12246L15.4408 7.56393C15.4408 8.02589 15.2975 8.40819 15.0312 8.67217C14.765 8.93614 14.3986 9.07268 13.9435 9.07268Z" fill="#86888C"/>
<path d="M11.256 8.0918C10.9328 8.0918 10.7212 8.26019 10.7212 8.62202C10.7212 8.79497 10.769 8.92468 10.8555 9.01115C10.9488 9.10445 11.0853 9.14997 11.2537 9.14997C11.4221 9.14997 11.5586 9.10445 11.6519 9.01115C11.7384 8.92468 11.7862 8.79497 11.7862 8.62202C11.7885 8.26019 11.5791 8.0918 11.256 8.0918Z" fill="#86888C"/>
<path d="M11.256 9.37983C11.0239 9.37983 10.8282 9.30929 10.6962 9.17275C10.5642 9.03621 10.4959 8.85416 10.4959 8.62204C10.4959 8.15554 10.7872 7.86426 11.2583 7.86426C11.7293 7.86426 12.0206 8.15554 12.0206 8.62204C12.0206 8.85188 11.9524 9.03849 11.8204 9.17275C11.6884 9.30701 11.4881 9.37983 11.256 9.37983ZM11.256 8.31939C11.0375 8.31939 10.9488 8.40813 10.9488 8.62204C10.9488 8.729 10.9716 8.80637 11.0171 8.85188C11.0762 8.91105 11.1786 8.9247 11.2537 8.9247C11.3288 8.9247 11.4312 8.91333 11.4904 8.85188C11.5359 8.80637 11.5587 8.729 11.5587 8.62204C11.5609 8.40586 11.4722 8.31939 11.256 8.31939ZM17.2113 17.9999H3.45513C3.20481 17.9999 3 17.7951 3 17.5448V16.2136C3 14.9415 3.39824 13.8537 4.15375 13.0686C4.97525 12.2153 6.19499 11.7647 7.67871 11.7647H12.9878C14.4715 11.7647 15.6912 12.2153 16.5127 13.0686C17.2682 13.8537 17.6665 14.9415 17.6665 16.2136V17.5448C17.6665 17.7974 17.4639 17.9999 17.2113 17.9999ZM3.91025 17.0897H16.7562V16.2136C16.7562 15.1804 16.4445 14.3111 15.8573 13.7013C15.202 13.0209 14.2371 12.675 12.9878 12.675H7.68098C6.43166 12.675 5.46679 13.0209 4.81141 13.7013C4.22202 14.3111 3.91025 15.1804 3.91025 16.2136V17.0897Z" fill="#86888C"/>
</svg>
