<svg width="28" height="28" viewBox="0 0 28 28" fill="none" xmlns="http://www.w3.org/2000/svg">
<path fill-rule="evenodd" clip-rule="evenodd" d="M24.9682 10.8959L24.5139 12.6787C24.4593 12.8973 24.2407 13.0305 24.0255 12.9759C24.0221 12.9759 24.0221 12.9759 24.0187 12.9724L22.8541 12.6753L23.5098 10.0967L24.6745 10.3939C24.8896 10.4553 25.0228 10.6739 24.9682 10.8959ZM21.4777 13.939C21.406 14.2259 21.1157 14.4035 20.8254 14.3317H20.8185L5.45974 10.4178C5.31971 10.3836 5.20359 10.2948 5.12845 10.1684C5.05332 10.0455 5.03282 9.89863 5.06698 9.76201L6.67219 3.45046C6.74732 3.16016 7.04104 2.98598 7.32793 3.0577L22.6901 6.96485C22.9804 7.03999 23.1546 7.33371 23.0795 7.6206C23.0829 7.62401 21.4777 13.939 21.4777 13.939ZM5.41193 24.4582C5.41193 24.7554 5.16944 24.9979 4.8723 24.9979H3.56423C3.26368 24.9944 3.0246 24.7554 3.0246 24.4548V17.8325C3.0246 17.5353 3.26709 17.2928 3.56423 17.2928H4.87572C5.17285 17.2928 5.41534 17.5353 5.41534 17.8325V24.4582H5.41193ZM25.8015 10.066C25.6103 9.73811 25.2926 9.50245 24.9238 9.41023L23.7591 9.1131L24.0734 7.87675C24.2851 7.03999 23.7796 6.18957 22.9429 5.9744L7.58067 2.06383C6.74391 1.85208 5.8969 2.35755 5.68174 3.19431L4.07653 9.50928C3.97407 9.91229 4.03554 10.3358 4.24729 10.6944C4.46246 11.053 4.80058 11.3057 5.20701 11.4082L12.8676 13.3584L10.0841 21.2444H6.46727C6.45361 21.2444 6.44677 21.2512 6.43311 21.2512V17.8325C6.43311 16.9718 5.73297 16.2682 4.8723 16.2682H3.56423C2.70015 16.2682 2 16.9718 2 17.8325V24.4548C2 25.3155 2.70015 26.0156 3.56423 26.0156H4.87572C5.73638 26.0156 6.43653 25.3155 6.43653 24.4548V22.2622C6.45019 22.2622 6.45702 22.269 6.47068 22.269H10.4496C10.6681 22.269 10.8594 22.1324 10.9311 21.9275L13.8649 13.6111L20.5692 15.3188C21.406 15.5305 22.2564 15.0251 22.4681 14.1883L22.5979 13.6726L23.7626 13.9663C24.5208 14.1644 25.2995 13.7101 25.4976 12.9485C25.4976 12.9417 25.501 12.9383 25.501 12.9315L25.9552 11.1486C26.0543 10.7798 25.9962 10.3904 25.8015 10.066Z" fill="#86888C"/>
</svg>
