<svg width="40" height="40" viewBox="0 0 40 40" fill="none" xmlns="http://www.w3.org/2000/svg">
<path fill-rule="evenodd" clip-rule="evenodd" d="M30.8663 11.55L28.7202 9.38849L32.7871 5.29089L34.9332 7.45237L30.8663 11.55ZM16.9447 29.3541L11.2132 23.5662L12.34 22.4189L15.6898 25.7891C15.8844 25.9838 16.1252 26.076 16.3813 26.076C16.6374 26.076 16.8781 25.9838 17.0728 25.7891C17.4467 25.4101 17.4467 24.7904 17.0728 24.4113L13.723 21.041L15.5259 19.2125L17.7335 21.4047C17.9281 21.584 18.1842 21.6915 18.4198 21.6915C18.6759 21.6915 18.932 21.584 19.1113 21.3893C19.5006 21.0103 19.4852 20.3906 19.1113 20.0013L16.9037 17.8244L19.2291 15.499L22.9477 19.2637C23.1423 19.443 23.3984 19.5505 23.6392 19.5505C23.8953 19.5505 24.1514 19.443 24.3306 19.2637C24.7199 18.8693 24.7199 18.2496 24.3306 17.8756L20.5916 14.111L22.917 11.7702L24.9709 13.8241C25.1655 14.0034 25.4216 14.0956 25.6624 14.0956C25.9185 14.0956 26.1746 14.0034 26.3538 13.8088C26.7431 13.4144 26.7277 12.7946 26.3538 12.4156L24.2948 10.3924L25.4063 9.26044L31.1531 15.0483L16.9447 29.3541ZM12.8317 28.4936L11.6947 29.6409L10.66 28.596L11.8022 27.4333C11.8176 27.4179 11.8176 27.4026 11.8329 27.3872L12.883 28.4577C12.8625 28.4782 12.8471 28.4782 12.8317 28.4936ZM37.8886 7.227L33.0278 2.33037C32.5924 1.88988 31.8907 1.88988 31.44 2.33037C31.0917 2.67867 31.0353 3.20623 31.2453 3.63136L27.1324 7.79042L25.1194 5.76723C24.6841 5.31138 23.9618 5.31138 23.5265 5.76723C23.0911 6.20773 23.0911 6.92993 23.5265 7.37042L23.8133 7.65725L8.82633 22.7723C8.37559 23.2128 8.37559 23.935 8.82633 24.3755L10.2502 25.8096C10.2349 25.825 10.2195 25.825 10.2041 25.8404L8.26803 27.8072C7.81729 28.2477 7.81729 28.9699 8.26803 29.4104L8.71877 29.8663L2.557 36.0639C2.12163 36.5044 2.12163 37.2266 2.557 37.6671C2.78236 37.8924 3.0692 38 3.35091 38C3.64798 38 3.93482 37.8924 4.14482 37.6671L10.3117 31.4541L10.8956 32.0431C11.1056 32.2685 11.4078 32.376 11.6947 32.376C11.9815 32.376 12.2632 32.2685 12.4886 32.0431L14.4247 30.0916C14.44 30.0763 14.44 30.0609 14.4554 30.0455L16.1508 31.7512C16.3762 31.9612 16.663 32.0841 16.9498 32.0841C17.2367 32.0841 17.5337 31.9612 17.7437 31.7512L32.7461 16.6361L33.0739 16.9691C33.2993 17.1791 33.5861 17.302 33.8678 17.302C34.1495 17.302 34.4363 17.1791 34.6617 16.9691C35.0971 16.5132 35.0971 15.8064 34.6617 15.3659L32.4593 13.1429L36.5722 8.99922C36.7361 9.09141 36.9154 9.14776 37.0947 9.14776C37.3969 9.14776 37.6837 9.04019 37.8937 8.81483C38.3393 8.3897 38.3393 7.6675 37.8886 7.227Z" fill="#86888C"/>
</svg>
