<svg width="20" height="20" viewBox="0 0 20 20" fill="none" xmlns="http://www.w3.org/2000/svg">
<path fill-rule="evenodd" clip-rule="evenodd" d="M14.9575 6.24443L14.0037 5.28377L15.8112 3.46262L16.765 4.42328L14.9575 6.24443ZM8.77013 14.1574L6.22279 11.585L6.7236 11.0751L8.2124 12.573C8.2989 12.6595 8.4059 12.7004 8.51972 12.7004C8.63354 12.7004 8.74054 12.6595 8.82704 12.573C8.99322 12.4045 8.99322 12.129 8.82704 11.9606L7.33824 10.4627L8.13955 9.65L9.1207 10.6243C9.20721 10.704 9.32103 10.7518 9.42575 10.7518C9.53957 10.7518 9.65339 10.704 9.73307 10.6175C9.90608 10.449 9.89925 10.1736 9.73307 10.0006L8.75192 9.03308L9.78542 7.99957L11.4381 9.67276C11.5246 9.75244 11.6385 9.80024 11.7454 9.80024C11.8593 9.80024 11.9731 9.75244 12.0528 9.67276C12.2258 9.49747 12.2258 9.22202 12.0528 9.05584L10.391 7.38266L11.4245 6.34232L12.3373 7.25518C12.4238 7.33485 12.5376 7.37583 12.6446 7.37583C12.7585 7.37583 12.8723 7.33485 12.952 7.24835C13.125 7.07306 13.1181 6.79761 12.952 6.62915L12.0368 5.72996L12.5308 5.22686L15.085 7.79925L8.77013 14.1574ZM6.94214 13.7749L6.43677 14.2848L5.97693 13.8204L6.48458 13.3037C6.49141 13.2969 6.49141 13.29 6.49824 13.2832L6.96491 13.759C6.9558 13.7681 6.94897 13.7681 6.94214 13.7749ZM18.0785 4.32311L15.9182 2.14683C15.7247 1.95106 15.4128 1.95106 15.2125 2.14683C15.0577 2.30163 15.0326 2.5361 15.126 2.72505L13.298 4.57352L12.4033 3.67433C12.2098 3.47172 11.8889 3.47172 11.6954 3.67433C11.5019 3.8701 11.5019 4.19108 11.6954 4.38685L11.8228 4.51433L5.16196 11.2321C4.96164 11.4279 4.96164 11.7489 5.16196 11.9447L5.79481 12.5821C5.78799 12.5889 5.78116 12.5889 5.77433 12.5957L4.91383 13.4699C4.7135 13.6656 4.7135 13.9866 4.91383 14.1824L5.11416 14.385L2.37559 17.1395C2.18209 17.3353 2.18209 17.6563 2.37559 17.852C2.47576 17.9522 2.60324 18 2.72844 18C2.86048 18 2.98796 17.9522 3.08129 17.852L5.82213 15.0907L6.08165 15.3525C6.17498 15.4527 6.30929 15.5005 6.43677 15.5005C6.56425 15.5005 6.68946 15.4527 6.78962 15.3525L7.65012 14.4852C7.65695 14.4783 7.65695 14.4715 7.66378 14.4647L8.41728 15.2227C8.51744 15.3161 8.64492 15.3707 8.77241 15.3707C8.89989 15.3707 9.03192 15.3161 9.12526 15.2227L15.793 8.50494L15.9387 8.65291C16.0388 8.74625 16.1663 8.80088 16.2915 8.80088C16.4167 8.80088 16.5442 8.74625 16.6444 8.65291C16.8379 8.45031 16.8379 8.13616 16.6444 7.94039L15.6655 6.95241L17.4935 5.11076C17.5663 5.15174 17.646 5.17678 17.7257 5.17678C17.86 5.17678 17.9875 5.12897 18.0808 5.02881C18.2788 4.83987 18.2788 4.51889 18.0785 4.32311Z" fill="#86888C"/>
</svg>
