<svg width="28" height="28" viewBox="0 0 28 28" fill="none" xmlns="http://www.w3.org/2000/svg">
<path fill-rule="evenodd" clip-rule="evenodd" d="M21.321 8.36665L19.8903 6.92566L22.6015 4.19392L24.0323 5.63492L21.321 8.36665ZM12.04 20.236L8.21894 16.3775L8.97017 15.6126L11.2034 17.8594C11.3331 17.9892 11.4936 18.0507 11.6643 18.0507C11.8351 18.0507 11.9956 17.9892 12.1253 17.8594C12.3746 17.6067 12.3746 17.1936 12.1253 16.9409L9.89213 14.694L11.0941 13.475L12.5658 14.9365C12.6956 15.056 12.8663 15.1277 13.0234 15.1277C13.1941 15.1277 13.3649 15.056 13.4844 14.9262C13.7439 14.6735 13.7336 14.2604 13.4844 14.0009L12.0126 12.5496L13.5629 10.9994L16.042 13.5091C16.1717 13.6287 16.3424 13.7004 16.5029 13.7004C16.6737 13.7004 16.8444 13.6287 16.9639 13.5091C17.2234 13.2462 17.2234 12.833 16.9639 12.5838L14.4712 10.074L16.0215 8.51348L17.3907 9.88276C17.5205 10.0023 17.6912 10.0637 17.8517 10.0637C18.0225 10.0637 18.1932 10.0023 18.3127 9.87252C18.5722 9.60959 18.562 9.19641 18.3127 8.94373L16.94 7.59494L17.681 6.84029L21.5122 10.6989L12.04 20.236ZM9.29798 19.6624L8.53992 20.4273L7.85016 19.7307L8.61163 18.9555C8.62188 18.9453 8.62188 18.9351 8.63212 18.9248L9.33213 19.6385C9.31847 19.6521 9.30822 19.6521 9.29798 19.6624ZM26.0025 5.48467L22.762 2.22025C22.4718 1.92658 22.004 1.92658 21.7035 2.22025C21.4713 2.45244 21.4337 2.80415 21.5737 3.08757L18.8317 5.86028L17.4898 4.51149C17.1995 4.20758 16.7181 4.20758 16.4278 4.51149C16.1376 4.80515 16.1376 5.28662 16.4278 5.58028L16.619 5.7715L6.62771 15.8482C6.32722 16.1419 6.32722 16.6233 6.62771 16.917L7.57699 17.8731C7.56674 17.8833 7.5565 17.8833 7.54625 17.8936L6.25551 19.2048C5.95502 19.4985 5.95502 19.9799 6.25551 20.2736L6.556 20.5775L2.44815 24.7093C2.15791 25.0029 2.15791 25.4844 2.44815 25.778C2.5984 25.9283 2.78962 26 2.97743 26C3.17548 26 3.3667 25.9283 3.5067 25.778L7.61796 21.6361L8.00724 22.0287C8.14724 22.179 8.3487 22.2507 8.53992 22.2507C8.73114 22.2507 8.91895 22.179 9.0692 22.0287L10.3599 20.7278C10.3702 20.7175 10.3702 20.7073 10.3804 20.697L11.5107 21.8341C11.6609 21.9741 11.8522 22.0561 12.0434 22.0561C12.2346 22.0561 12.4326 21.9741 12.5726 21.8341L22.5742 11.7574L22.7928 11.9794C22.943 12.1194 23.1342 12.2013 23.322 12.2013C23.5098 12.2013 23.7011 12.1194 23.8513 11.9794C24.1415 11.6755 24.1415 11.2042 23.8513 10.9106L22.383 9.42861L25.125 6.66615C25.2342 6.72761 25.3538 6.76517 25.4733 6.76517C25.6747 6.76517 25.866 6.69346 26.006 6.54322C26.303 6.2598 26.303 5.77833 26.0025 5.48467Z" fill="#86888C"/>
</svg>
