<svg width="28" height="28" viewBox="0 0 28 28" fill="none" xmlns="http://www.w3.org/2000/svg">
<path fill-rule="evenodd" clip-rule="evenodd" d="M16.6329 24.5384C18.1013 24.5384 19.0472 23.992 19.4843 22.9368H6.9789C7.11209 23.2612 7.28625 23.5447 7.51504 23.7701C8.04436 24.2823 8.82637 24.5418 9.85084 24.5418H16.6329V24.5384ZM8.8093 3.73478V7.29994C8.8093 7.4502 8.93223 7.56972 9.07907 7.56972H17.2988C17.449 7.56972 17.5685 7.4502 17.5685 7.29994V3.73478C17.5685 3.58452 17.4456 3.465 17.2988 3.465H9.07907C8.93223 3.46158 8.8093 3.58452 8.8093 3.73478ZM19.6824 10.749C19.4911 9.77917 18.9789 9.12351 18.1593 8.79567C17.9066 8.94252 17.6164 9.03472 17.2988 9.03472H9.07907C8.78881 9.03472 8.51561 8.95617 8.27657 8.82641C7.98972 8.94935 7.72677 9.0996 7.51504 9.30108C7.14623 9.65623 6.91061 10.1514 6.78767 10.749H19.6824ZM6.68864 21.3625C6.68864 21.4001 6.69547 21.4343 6.69547 21.4718H19.7575C19.7575 21.4343 19.7643 21.4001 19.7643 21.3625L19.7746 12.2106H6.69205V21.3625H6.68864ZM19.0028 7.55948C20.4473 8.26978 21.2327 9.71429 21.2327 11.7018L21.2225 21.3625C21.2225 24.2652 19.5048 26 16.6329 26H9.84743C8.43366 26 7.30674 25.6039 6.4974 24.8184C5.65733 24.0023 5.23047 22.8412 5.23047 21.3625V11.7018C5.23047 10.2231 5.65733 9.06204 6.50423 8.24587C6.76035 7.99658 7.06086 7.79852 7.38186 7.62777C7.36137 7.52191 7.34771 7.41263 7.34771 7.29994V3.73478C7.34771 2.7786 8.1229 2 9.07566 2H17.2954C18.2481 2 19.0233 2.7786 19.0233 3.73478V7.29994C19.0301 7.38873 19.0165 7.4741 19.0028 7.55948ZM10.0694 6.91406C9.66644 6.91406 9.34202 6.58623 9.34202 6.18327V4.82072C9.34202 4.41776 9.66985 4.08993 10.0694 4.08993C10.4689 4.08993 10.7968 4.41776 10.7968 4.82072V6.18327C10.8002 6.58623 10.4724 6.91406 10.0694 6.91406ZM12.1525 6.91406C11.7495 6.91406 11.4251 6.58623 11.4251 6.18327V4.82072C11.4251 4.41776 11.7529 4.08993 12.1525 4.08993C12.552 4.08993 12.8799 4.41776 12.8799 4.82072V6.18327C12.8799 6.58623 12.552 6.91406 12.1525 6.91406ZM14.2322 6.91406C13.8292 6.91406 13.5048 6.58623 13.5048 6.18327V4.82072C13.5048 4.41776 13.8326 4.08993 14.2322 4.08993C14.6317 4.08993 14.9596 4.41776 14.9596 4.82072V6.18327C14.9596 6.58623 14.6351 6.91406 14.2322 6.91406ZM16.3119 6.91406C15.9089 6.91406 15.5845 6.58623 15.5845 6.18327V4.82072C15.5845 4.41776 15.9123 4.08993 16.3119 4.08993C16.7148 4.08993 17.0392 4.41776 17.0392 4.82072V6.18327C17.0426 6.58623 16.7148 6.91406 16.3119 6.91406ZM15.9157 17.3808V16.329H13.7234V14.1298H12.6716V16.329L10.4826 16.3324V17.3876H12.6716L12.675 19.5868H13.7268V17.3876L15.9157 17.3808ZM16.0079 15.062C16.6431 15.062 17.1792 15.5674 17.1792 16.1685V17.5481C17.1792 18.1457 16.6431 18.6511 16.0079 18.6511H14.9869V19.679C14.9869 20.3278 14.4917 20.8537 13.8839 20.8537H12.5076C11.8998 20.8537 11.4046 20.3278 11.4046 19.679V18.6579H10.3836C9.73815 18.6579 9.21226 18.1628 9.21226 17.5515V16.1719C9.21226 15.564 9.73815 15.0655 10.3836 15.0655H11.4012V14.041C11.4012 13.4058 11.9066 12.8663 12.5042 12.8663H13.8804C14.478 12.8663 14.9835 13.4058 14.9835 14.041V15.0655L16.0079 15.062Z" fill="#86888C"/>
</svg>
