<svg width="40" height="40" viewBox="0 0 40 40" fill="none" xmlns="http://www.w3.org/2000/svg">
<path fill-rule="evenodd" clip-rule="evenodd" d="M24.3341 35.8076C26.5367 35.8076 27.9556 34.988 28.6112 33.4052H9.85312C10.0529 33.8919 10.3141 34.317 10.6573 34.6551C11.4513 35.4235 12.6243 35.8127 14.161 35.8127H24.3341V35.8076ZM12.5987 4.60216V9.94991C12.5987 10.1753 12.7831 10.3546 13.0034 10.3546H25.3329C25.5583 10.3546 25.7376 10.1753 25.7376 9.94991V4.60216C25.7376 4.37678 25.5532 4.1975 25.3329 4.1975H13.0034C12.7831 4.19237 12.5987 4.37678 12.5987 4.60216ZM28.9083 15.1235C28.6215 13.6688 27.8531 12.6853 26.6238 12.1935C26.2447 12.4138 25.8093 12.5521 25.3329 12.5521H13.0034C12.568 12.5521 12.1582 12.4343 11.7996 12.2396C11.3693 12.424 10.9749 12.6494 10.6573 12.9516C10.1041 13.4843 9.75067 14.2271 9.56627 15.1235H28.9083ZM9.41772 31.0438C9.41772 31.1002 9.42796 31.1514 9.42796 31.2077H29.021C29.021 31.1514 29.0313 31.1002 29.0313 31.0438L29.0466 17.3159H9.42284V31.0438H9.41772ZM27.889 10.3392C30.0557 11.4047 31.2339 13.5714 31.2339 16.5526L31.2185 31.0438C31.2185 35.3978 28.642 38 24.3341 38H14.1559C12.0352 38 10.3449 37.4058 9.13087 36.2277C7.87076 35.0034 7.23047 33.2618 7.23047 31.0438V16.5526C7.23047 14.3347 7.87076 12.5931 9.14111 11.3688C9.52529 10.9949 9.97606 10.6978 10.4576 10.4417C10.4268 10.2829 10.4063 10.119 10.4063 9.94991V4.60216C10.4063 3.1679 11.5691 2 12.9983 2H25.3278C26.7569 2 27.9197 3.1679 27.9197 4.60216V9.94991C27.93 10.0831 27.9095 10.2112 27.889 10.3392ZM14.4889 9.37109C13.8844 9.37109 13.3978 8.87934 13.3978 8.2749V6.23108C13.3978 5.62664 13.8895 5.13489 14.4889 5.13489C15.0882 5.13489 15.5799 5.62664 15.5799 6.23108V8.2749C15.585 8.87934 15.0933 9.37109 14.4889 9.37109ZM17.6135 9.37109C17.0091 9.37109 16.5224 8.87934 16.5224 8.2749V6.23108C16.5224 5.62664 17.0142 5.13489 17.6135 5.13489C18.2128 5.13489 18.7046 5.62664 18.7046 6.23108V8.2749C18.7046 8.87934 18.2128 9.37109 17.6135 9.37109ZM20.733 9.37109C20.1286 9.37109 19.642 8.87934 19.642 8.2749V6.23108C19.642 5.62664 20.1337 5.13489 20.733 5.13489C21.3323 5.13489 21.8241 5.62664 21.8241 6.23108V8.2749C21.8241 8.87934 21.3375 9.37109 20.733 9.37109ZM23.8526 9.37109C23.2481 9.37109 22.7615 8.87934 22.7615 8.2749V6.23108C22.7615 5.62664 23.2532 5.13489 23.8526 5.13489C24.457 5.13489 24.9436 5.62664 24.9436 6.23108V8.2749C24.9487 8.87934 24.457 9.37109 23.8526 9.37109ZM23.2584 25.0711V23.4935H19.9698V20.1947H18.3921V23.4935L15.1087 23.4986V25.0814H18.3921L18.3972 28.3802H19.9749V25.0814L23.2584 25.0711ZM23.3967 21.5931C24.3494 21.5931 25.1536 22.3512 25.1536 23.2527V25.3221C25.1536 26.2186 24.3494 26.9767 23.3967 26.9767H21.8651V28.5185C21.8651 29.4917 21.1223 30.2806 20.2105 30.2806H18.1462C17.2345 30.2806 16.4917 29.4917 16.4917 28.5185V26.9869H14.9601C13.992 26.9869 13.2031 26.2442 13.2031 25.3273V23.2578C13.2031 22.346 13.992 21.5982 14.9601 21.5982H16.4866V20.0615C16.4866 19.1087 17.2447 18.2994 18.1411 18.2994H20.2054C21.1018 18.2994 21.86 19.1087 21.86 20.0615V21.5982L23.3967 21.5931Z" fill="#86888C"/>
</svg>
