<svg width="20" height="20" viewBox="0 0 20 20" fill="none" xmlns="http://www.w3.org/2000/svg">
<path fill-rule="evenodd" clip-rule="evenodd" d="M13.2742 17.0027C14.0779 17.0027 15.0365 16.6612 15.0365 15.04V15.0127H4.98159V15.04C4.98159 15.081 4.97932 15.122 4.97476 15.1629C4.97476 15.1629 4.89962 15.9667 5.3459 16.479C5.64646 16.8228 6.16104 16.9981 6.876 16.9981L13.1467 16.9959C13.1717 16.9959 13.1968 16.9959 13.2241 16.9981L13.2742 17.0027ZM5.69655 3.28419C5.51895 3.39348 4.98159 3.72819 4.98159 4.94407V14.0131H15.0365C15.0365 10.5704 15.032 4.93496 15.032 4.93496C15.032 4.90536 15.0342 4.87576 15.0365 4.84389C15.0365 4.84389 15.0866 4.01964 14.6198 3.5005C14.3193 3.17034 13.8275 3.00185 13.1603 3.00185H6.86006C6.83729 3.00185 6.8168 2.99957 6.79403 2.99957H6.75988C6.61643 2.99957 6.11778 3.02007 5.69655 3.28419ZM15.9974 4.93269C15.9974 4.93269 16.0019 11.8477 16.0019 15.0377C16.0019 17.8224 13.8275 18 13.2719 18C13.1899 18 13.1444 17.9977 13.1444 17.9977C13.1444 17.9977 10.091 18 6.87372 18C3.65642 18 4.01162 15.04 4.01162 15.04V4.94407C4.0139 2.15711 6.25212 2 6.7576 2C6.82135 2 6.85778 2.00228 6.85778 2.00228L13.1581 2C16.2547 2.00228 15.9974 4.93269 15.9974 4.93269ZM10.0022 15.4157C10.3734 15.4157 10.5965 15.6457 10.5965 16.0327C10.5965 16.2217 10.5441 16.372 10.4417 16.4813C10.3369 16.5906 10.1867 16.6498 10.0022 16.6498C9.8178 16.6498 9.66752 16.5929 9.56278 16.4813C9.46032 16.372 9.40795 16.2217 9.40795 16.0327C9.40795 15.6457 9.63109 15.4157 10.0022 15.4157Z" fill="#86888C"/>
</svg>
