<svg width="28" height="28" viewBox="0 0 28 28" fill="none" xmlns="http://www.w3.org/2000/svg">
<path fill-rule="evenodd" clip-rule="evenodd" d="M14.7471 22.1256C16.8101 21.9924 21.5713 21.0019 21.9641 14.8984H21.4074C21.0009 14.8847 20.6867 14.5432 20.7004 14.1367C20.714 13.7508 21.0214 13.4434 21.4074 13.4297H21.971C21.6362 7.25106 16.8579 6.19225 14.7471 6.03855V6.77289C14.7266 7.17933 14.3817 7.49014 13.9752 7.46624C13.5995 7.44574 13.299 7.14518 13.2819 6.77289V6.01123C11.3726 6.06929 6.20834 6.85486 5.89412 13.4331H6.62162C7.02807 13.4468 7.3423 13.7884 7.32863 14.1948C7.31497 14.5808 7.00758 14.8882 6.62162 14.9018H5.90436C6.32789 21.2069 11.3282 22.0573 13.2819 22.1393V21.5587C13.3024 21.1522 13.6473 20.8414 14.0538 20.8653C14.4295 20.8858 14.7301 21.1864 14.7471 21.5587V22.1256ZM25.3182 13.4297C25.7246 13.4434 26.0388 13.7849 26.0252 14.1914C26.0115 14.5773 25.7041 14.8847 25.3182 14.8984H23.426C23.0059 22.4296 16.8067 23.4679 14.7471 23.5943V25.4694C14.7266 25.8759 14.3817 26.1867 13.9752 26.1628C13.5995 26.1423 13.299 25.8417 13.2819 25.4694V23.6045C11.4204 23.5294 4.89679 22.6824 4.44252 14.8984H2.70744C2.30099 14.8847 1.98677 14.5432 2.00043 14.1367C2.01409 13.7508 2.32149 13.4434 2.70744 13.4297H4.42545C4.76358 5.34178 11.499 4.59379 13.2785 4.54255V2.8587C13.299 2.45226 13.6439 2.14145 14.0504 2.16535C14.4261 2.18585 14.7266 2.48641 14.7437 2.8587V4.56988C16.8511 4.71674 23.0742 5.82337 23.4328 13.4331L25.3182 13.4297ZM12.913 10.4514C12.6637 10.6939 12.609 11.1516 12.609 11.4897C12.609 11.8313 12.6603 12.2855 12.9096 12.5246C13.1555 12.7603 13.5995 12.8115 13.9274 12.8115C14.2587 12.8115 14.7027 12.7603 14.9521 12.5246C15.1536 12.3299 15.256 11.9815 15.256 11.4897C15.256 10.9945 15.1536 10.6461 14.9486 10.4514C14.7027 10.2123 14.2553 10.1611 13.9274 10.1611C13.5995 10.1611 13.1589 10.2123 12.913 10.4514ZM13.9274 14.0821C13.1077 14.0821 12.469 13.8669 12.0284 13.4434C11.5673 12.9994 11.335 12.3436 11.335 11.4897C11.335 10.6358 11.5673 9.98005 12.0284 9.53604C12.469 9.1091 13.1111 8.89051 13.9274 8.89051C14.7471 8.89051 15.3858 9.1091 15.8333 9.53604C16.2944 9.98005 16.53 10.6392 16.53 11.4897C16.53 12.3436 16.2978 12.9994 15.8333 13.4434C15.3893 13.8669 14.7471 14.0821 13.9274 14.0821ZM10.5973 17.9894H17.2678C17.2541 17.6616 17.1687 17.2483 16.8784 16.9477C16.5164 16.572 15.9357 16.49 15.5122 16.49H12.3494C11.9259 16.49 11.3487 16.5686 10.9867 16.9443C10.6963 17.2449 10.6109 17.6616 10.5973 17.9894ZM15.5088 15.2195C16.472 15.2195 17.261 15.5098 17.7938 16.0631C18.2822 16.572 18.5418 17.2756 18.5418 18.1022V18.9663C18.5418 19.1302 18.412 19.26 18.248 19.26H9.61703C9.45308 19.26 9.3233 19.1268 9.3233 18.9663V18.1022C9.3233 17.2756 9.57946 16.572 10.0645 16.0631C10.5973 15.5098 11.3863 15.216 12.346 15.216L15.5088 15.2195Z" fill="#86888C"/>
</svg>
