<svg width="20" height="20" viewBox="0 0 20 20" fill="none" xmlns="http://www.w3.org/2000/svg">
<path fill-rule="evenodd" clip-rule="evenodd" d="M10.4981 15.4718C11.8734 15.383 15.0476 14.7226 15.3094 10.6536H14.9383C14.6673 10.6445 14.4578 10.4168 14.4669 10.1458C14.476 9.88854 14.681 9.68361 14.9383 9.67451H15.314C15.0908 5.55539 11.9053 4.84952 10.4981 4.74705V5.23661C10.4844 5.50758 10.2544 5.71478 9.98349 5.69884C9.73301 5.68518 9.53264 5.48481 9.52125 5.23661V4.72884C8.2484 4.76755 4.80556 5.29126 4.59608 9.67678H5.08108C5.35205 9.68589 5.56153 9.91359 5.55242 10.1846C5.54331 10.4419 5.33838 10.6468 5.08108 10.6559H4.60291C4.88526 14.8593 8.2188 15.4262 9.52125 15.4809V15.0938C9.53491 14.8228 9.76489 14.6156 10.0359 14.6316C10.2863 14.6452 10.4867 14.8456 10.4981 15.0938V15.4718ZM17.5454 9.67451C17.8164 9.68361 18.0259 9.91131 18.0168 10.1823C18.0077 10.4396 17.8027 10.6445 17.5454 10.6536H16.284C16.0039 15.6744 11.8711 16.3666 10.4981 16.4509V17.701C10.4844 17.9719 10.2544 18.1791 9.98349 18.1632C9.73301 18.1495 9.53264 17.9492 9.52125 17.701V16.4577C8.28028 16.4076 3.93119 15.8429 3.62835 10.6536H2.47163C2.20066 10.6445 1.99118 10.4168 2.00029 10.1458C2.00939 9.88854 2.21433 9.68361 2.47163 9.67451H3.61696C3.84239 4.28254 8.33265 3.78388 9.51898 3.74972V2.62716C9.53264 2.35619 9.76262 2.14898 10.0336 2.16492C10.2841 2.17859 10.4844 2.37896 10.4958 2.62716V3.76794C11.9007 3.86585 16.0494 4.6036 16.2885 9.67678L17.5454 9.67451ZM9.27534 7.68895C9.10911 7.85062 9.07268 8.15574 9.07268 8.38116C9.07268 8.60886 9.10684 8.91171 9.27306 9.0711C9.437 9.22821 9.73301 9.26237 9.95161 9.26237C10.1725 9.26237 10.4685 9.22821 10.6347 9.0711C10.7691 8.94131 10.8374 8.70905 10.8374 8.38116C10.8374 8.051 10.7691 7.81874 10.6324 7.68895C10.4685 7.52956 10.1702 7.49541 9.95161 7.49541C9.73301 7.49541 9.43928 7.52956 9.27534 7.68895ZM9.95161 10.1094C9.40512 10.1094 8.97932 9.96596 8.68559 9.68361C8.37819 9.3876 8.22336 8.95042 8.22336 8.38116C8.22336 7.81191 8.37819 7.37472 8.68559 7.07871C8.97932 6.79409 9.4074 6.64836 9.95161 6.64836C10.4981 6.64836 10.9239 6.79409 11.2222 7.07871C11.5296 7.37472 11.6867 7.81419 11.6867 8.38116C11.6867 8.95042 11.5319 9.3876 11.2222 9.68361C10.9262 9.96596 10.4981 10.1094 9.95161 10.1094ZM7.73152 12.7143H12.1785C12.1694 12.4957 12.1125 12.2202 11.9189 12.0198C11.6776 11.7694 11.2905 11.7147 11.0081 11.7147H8.89963C8.61728 11.7147 8.23246 11.7671 7.9911 12.0175C7.79755 12.2179 7.74063 12.4957 7.73152 12.7143ZM11.0059 10.8677C11.648 10.8677 12.174 11.0612 12.5292 11.4301C12.8548 11.7694 13.0278 12.2384 13.0278 12.7895V13.3655C13.0278 13.4748 12.9413 13.5614 12.832 13.5614H7.07802C6.96872 13.5614 6.8822 13.4726 6.8822 13.3655V12.7895C6.8822 12.2384 7.05297 11.7694 7.37631 11.4301C7.73152 11.0612 8.25751 10.8654 8.89735 10.8654L11.0059 10.8677Z" fill="#86888C"/>
</svg>
