<svg width="24" height="24" viewBox="0 0 24 24" fill="none" xmlns="http://www.w3.org/2000/svg">
<path fill-rule="evenodd" clip-rule="evenodd" d="M12.6226 18.7987C14.3418 18.6877 18.3094 17.8623 18.6368 12.776H18.1728C17.8341 12.7646 17.5723 12.48 17.5837 12.1413C17.595 11.8197 17.8512 11.5635 18.1728 11.5521H18.6425C18.3635 6.40323 14.3816 5.52088 12.6226 5.3928V6.00475C12.6055 6.34345 12.3181 6.60246 11.9794 6.58254C11.6663 6.56546 11.4158 6.31499 11.4016 6.00475V5.37003C9.8105 5.41842 5.50695 6.07306 5.2451 11.555H5.85135C6.19006 11.5663 6.45191 11.851 6.44053 12.1897C6.42914 12.5113 6.17298 12.7675 5.85135 12.7789H5.25364C5.60657 18.0331 9.7735 18.7418 11.4016 18.8101V18.3262C11.4186 17.9875 11.7061 17.7285 12.0448 17.7484C12.3579 17.7655 12.6084 18.016 12.6226 18.3262V18.7987ZM21.4318 11.5521C21.7705 11.5635 22.0324 11.8481 22.021 12.1868C22.0096 12.5085 21.7534 12.7646 21.4318 12.776H19.855C19.5049 19.052 14.3389 19.9173 12.6226 20.0226V21.5852C12.6055 21.9239 12.3181 22.1829 11.9794 22.163C11.6663 22.1459 11.4158 21.8954 11.4016 21.5852V20.0311C9.85035 19.9685 4.41399 19.2626 4.03544 12.776H2.58953C2.25083 12.7646 1.98897 12.48 2.00036 12.1413C2.01174 11.8197 2.26791 11.5635 2.58953 11.5521H4.0212C4.30298 4.81216 9.91582 4.18883 11.3987 4.14614V2.74293C11.4158 2.40423 11.7033 2.14522 12.042 2.16514C12.3551 2.18222 12.6055 2.43269 12.6198 2.74293V4.16891C14.3759 4.2913 19.5618 5.21349 19.8607 11.555L21.4318 11.5521ZM11.0942 9.07017C10.8864 9.27226 10.8409 9.65366 10.8409 9.93544C10.8409 10.2201 10.8835 10.5986 11.0913 10.7979C11.2963 10.9942 11.6663 11.0369 11.9395 11.0369C12.2156 11.0369 12.5856 10.9942 12.7934 10.7979C12.9613 10.6356 13.0467 10.3453 13.0467 9.93544C13.0467 9.52273 12.9613 9.23241 12.7905 9.07017C12.5856 8.87094 12.2128 8.82824 11.9395 8.82824C11.6663 8.82824 11.2991 8.87094 11.0942 9.07017ZM11.9395 12.0958C11.2564 12.0958 10.7242 11.9164 10.357 11.5635C9.97274 11.1935 9.7792 10.647 9.7792 9.93544C9.7792 9.22387 9.97274 8.67739 10.357 8.30737C10.7242 7.95159 11.2593 7.76943 11.9395 7.76943C12.6226 7.76943 13.1549 7.95159 13.5277 8.30737C13.912 8.67739 14.1084 9.22672 14.1084 9.93544C14.1084 10.647 13.9148 11.1935 13.5277 11.5635C13.1577 11.9164 12.6226 12.0958 11.9395 12.0958ZM9.1644 15.3519H14.7232C14.7118 15.0786 14.6406 14.7342 14.3987 14.4838C14.097 14.1707 13.6131 14.1024 13.2602 14.1024H10.6245C10.2716 14.1024 9.79058 14.1678 9.48888 14.4809C9.24694 14.7314 9.17579 15.0786 9.1644 15.3519ZM13.2573 13.0436C14.06 13.0436 14.7175 13.2855 15.1615 13.7466C15.5685 14.1707 15.7848 14.757 15.7848 15.4458V16.1659C15.7848 16.3025 15.6767 16.4107 15.54 16.4107H8.34753C8.2109 16.4107 8.10275 16.2997 8.10275 16.1659V15.4458C8.10275 14.757 8.31622 14.1707 8.72039 13.7466C9.1644 13.2855 9.82189 13.0407 10.6217 13.0407L13.2573 13.0436Z" fill="#86888C"/>
</svg>
