<svg width="40" height="40" viewBox="0 0 40 40" fill="none" xmlns="http://www.w3.org/2000/svg">
<path fill-rule="evenodd" clip-rule="evenodd" d="M18.2416 21.2189C18.3338 21.055 18.4004 20.8911 18.4567 20.7324C17.0431 21.6543 14.554 22.8783 10.9125 22.7452C11.6961 23.3342 13.0431 23.8002 15.2198 23.1959C16.7307 22.7759 17.7448 22.1101 18.2416 21.2189ZM19.9727 18.9347C19.9932 18.9961 20.3978 20.4404 19.5579 21.9462C18.8562 23.201 17.5348 24.1075 15.6244 24.6402C14.764 24.8809 13.9958 24.9833 13.3146 24.9833C9.72429 24.9833 8.56168 22.1715 8.55144 22.1408C8.45412 21.895 8.4951 21.6133 8.65899 21.4033C8.82288 21.1933 9.08409 21.0755 9.35041 21.1216C15.5169 21.9308 18.6769 18.6683 18.7077 18.6325C18.8921 18.4379 19.1686 18.361 19.4298 18.4174C19.691 18.4788 19.901 18.6786 19.9727 18.9347ZM8.17243 17.3623C8.40803 17.3623 8.66411 17.3469 8.91507 17.3162C9.73454 17.224 10.513 16.9423 10.513 16.9423C10.513 16.9423 11.061 16.6555 10.5745 16.2509C10.5745 16.2509 10.0623 15.6619 9.20701 15.6619C8.71021 15.6619 8.10585 15.8565 7.40931 16.4763C6.67179 17.1421 7.29663 17.3623 8.17243 17.3623ZM11.0303 18.3508C10.933 18.3866 10.0572 18.6991 9.08409 18.8066C8.76654 18.8425 8.45925 18.863 8.17755 18.863C6.85617 18.863 6.01622 18.4327 5.69867 17.5877C5.56039 17.2343 5.35552 16.3021 6.41058 15.3597C7.30175 14.5659 8.24414 14.1613 9.21213 14.1613C10.2826 14.1613 11.1635 14.6888 11.6347 15.1754C12.1059 15.6107 12.3415 16.1895 12.2749 16.7784C12.1929 17.516 11.6756 18.0332 11.2147 18.274C11.1481 18.3047 11.0918 18.3303 11.0303 18.3508ZM14.595 14.7093C14.2416 15.3341 14.4721 15.5595 14.9433 15.5595C15.3274 15.5595 15.8652 15.411 16.3722 15.2112C17.1507 14.8988 17.8216 14.3969 17.8216 14.3969C17.8216 14.3969 18.2672 13.9513 17.6475 13.6491C17.6475 13.6491 17.1814 13.3265 16.5515 13.3265C15.9573 13.3213 15.2249 13.6081 14.595 14.7093ZM14.9433 17.055C13.8267 17.055 13.3299 16.4046 13.166 16.128C12.91 15.6875 12.7256 14.9603 13.289 13.9667C14.3543 12.0973 15.7883 11.8156 16.5463 11.8156C17.4375 11.8156 18.1187 12.1741 18.3953 12.3431C19.1789 12.7682 19.394 13.4033 19.4503 13.7515C19.5988 14.653 19.0508 15.2829 18.8818 15.4571C18.8306 15.5083 18.7743 15.5544 18.723 15.5953C18.6411 15.6568 17.8677 16.2253 16.9253 16.5992C16.4029 16.8092 15.6347 17.055 14.9433 17.055ZM33.3249 24.5736C34.7231 21.3828 35.3121 18.5557 35.5579 16.7887C33.1354 17.5877 30.2416 17.2701 28.572 16.6299C26.9382 16.0051 24.5976 14.1715 23.3274 12.1177C23.015 12.5941 22.6565 13.1574 22.2877 13.772C22.4567 14.3252 22.6104 14.909 22.7589 15.5083C22.8204 15.5032 22.8767 15.4878 22.9433 15.4827C23.0969 15.4724 23.2455 15.4622 23.3889 15.4622C26.1238 15.4622 27.1072 17.3162 27.2711 18.3969C27.4401 19.1703 27.1482 19.7029 26.9484 19.959C26.6001 20.4148 26.047 20.6709 25.4324 20.6709C25.2224 20.6709 25.079 20.6453 25.079 20.6453C25.0278 20.6351 24.9458 20.6146 24.8998 20.6043C24.8178 20.5787 24.1366 20.3636 23.4094 20C23.4196 20.9372 23.312 21.7516 23.1225 22.4891C24.0137 22.3457 25.0636 22.4071 26.2928 22.8783C27.8396 23.4673 28.8793 24.3585 29.3914 25.5109C30.0675 27.0422 29.5195 28.4609 29.4939 28.5173C29.3914 28.7734 29.161 28.9526 28.8844 28.9833C28.8537 28.9885 28.8229 28.9885 28.7922 28.9885C28.5515 28.9885 28.321 28.8707 28.1827 28.6709C28.0957 28.548 25.919 25.6952 20.9919 25.8745C20.7717 26.0538 20.5463 26.2279 20.3005 26.3867C21.0739 27.37 22.2365 28.1741 23.8908 28.8092C28.3774 30.525 30.805 30.3201 33.3249 24.5736ZM15.3325 26.0538C20.2339 24.6914 22.1699 22.991 20.6846 16.5172C19.8447 12.8604 18.5387 10.0742 17.6321 8.44039C16.449 10.1715 14.5284 11.5288 11.9778 12.4148C10.5335 12.9167 7.41955 13.1113 4.30046 11.918C4.40802 14.0896 4.74605 17.8028 5.80111 20.6094C7.73197 25.7465 10.5847 27.3751 15.3325 26.0538ZM22.3901 24.2663C22.3645 24.3022 22.344 24.3431 22.3236 24.379C25.1353 24.5736 27.0508 25.6594 28.1725 26.5659C27.9932 25.8079 27.4042 24.9065 25.7602 24.2817C24.2083 23.6824 23.1174 23.8719 22.3901 24.2663ZM23.2659 18.1715C23.435 18.2893 23.6091 18.402 23.7935 18.5044C24.5259 18.9193 25.33 19.16 25.33 19.16C25.33 19.16 25.3709 19.1651 25.4324 19.1651C25.6014 19.1651 25.9087 19.1088 25.7909 18.6632C25.7909 18.6632 25.6219 16.9577 23.3889 16.9577C23.2864 16.9577 23.184 16.9628 23.0764 16.9679C23.1533 17.3879 23.2147 17.7925 23.2659 18.1715ZM37.3659 13.8642C37.75 14.0537 37.9907 14.4481 37.9907 14.8783C37.9907 15.0729 37.9292 19.6824 35.394 25.475C33.2788 30.2996 30.8409 32 27.8959 32C26.426 32 24.8332 31.58 23.0867 30.9142C20.8639 30.064 19.312 28.9065 18.2877 27.4264C17.5655 27.7234 16.7819 27.9846 15.942 28.2202C14.6974 28.5634 13.5348 28.7375 12.4541 28.7375C8.42339 28.7375 5.5399 26.3098 3.69099 21.3982C1.96499 16.7989 1.99572 10.3764 2.00084 10.1049C2.00596 9.70544 2.22107 9.33668 2.56934 9.13694C2.91762 8.93719 3.34271 8.93719 3.69099 9.13694C6.78446 10.909 10.1135 10.6786 11.2403 10.2842C13.1609 9.61837 15.6296 8.29187 16.4644 5.77201C16.5976 5.37252 16.9458 5.08059 17.3607 5.01401C17.7807 4.94743 18.1955 5.12156 18.4465 5.46471C18.5284 5.57739 19.9778 7.58508 21.3402 11.032C22.088 9.8847 22.6462 9.13694 22.6821 9.09597C22.9535 8.73233 23.4145 8.57356 23.8549 8.68111C24.2954 8.79379 24.6283 9.15743 24.6949 9.60301C24.9766 11.4417 27.732 13.895 29.3761 14.5249C31.0304 15.16 34.4055 15.3239 36.1776 13.9718C36.5208 13.7157 36.9817 13.6747 37.3659 13.8642ZM32.3876 20.6043C32.3876 20.6043 31.9932 19.6875 30.7743 19.6875C30.467 19.6875 30.1136 19.7439 29.6987 19.8873C28.6693 20.2458 29.6783 20.6965 30.6975 20.9321C31.4094 21.0909 32.1315 21.1011 32.1315 21.1011C32.1315 21.1011 32.6693 21.0448 32.3876 20.6043ZM29.2071 18.4737C29.75 18.2842 30.2775 18.192 30.7743 18.192C32.4183 18.192 33.3658 19.2112 33.7141 19.8975C34.0214 20.4404 34.0573 21.0448 33.8063 21.5774C33.5349 22.1459 32.9664 22.5249 32.2903 22.6018C32.2391 22.6069 32.1827 22.6069 32.1315 22.6069H32.1162C32.024 22.6069 31.2045 22.5915 30.3594 22.402C29.6731 22.2432 27.8498 21.8284 27.7679 20.3226C27.7525 20.0051 27.8037 18.9551 29.2071 18.4737Z" fill="#86888C"/>
</svg>
