<svg width="20" height="20" viewBox="0 0 20 20" fill="none" xmlns="http://www.w3.org/2000/svg">
<path fill-rule="evenodd" clip-rule="evenodd" d="M9.21849 11.2084C9.25946 11.1356 9.28906 11.0627 9.31409 10.9922C8.68584 11.4019 7.57956 11.9459 5.96112 11.8867C6.30939 12.1485 6.90806 12.3557 7.87548 12.0871C8.54699 11.9004 8.99769 11.6045 9.21849 11.2084ZM9.98788 10.1932C9.99698 10.2205 10.1768 10.8624 9.8035 11.5316C9.49165 12.0893 8.90436 12.4922 8.05531 12.729C7.67289 12.836 7.33145 12.8815 7.0287 12.8815C5.43302 12.8815 4.9163 11.6318 4.91175 11.6181C4.8685 11.5089 4.88671 11.3837 4.95955 11.2904C5.03239 11.197 5.14848 11.1447 5.26685 11.1652C8.0075 11.5248 9.41197 10.0748 9.42563 10.0589C9.50758 9.97238 9.6305 9.93824 9.74659 9.96328C9.86268 9.99059 9.95601 10.0794 9.98788 10.1932ZM4.7433 9.49436C4.84801 9.49436 4.96183 9.48753 5.07337 9.47388C5.43757 9.4329 5.78357 9.30771 5.78357 9.30771C5.78357 9.30771 6.02713 9.18023 5.81088 9.00041C5.81088 9.00041 5.58325 8.73863 5.20311 8.73863C4.98231 8.73863 4.71371 8.82513 4.40414 9.10056C4.07635 9.39648 4.35406 9.49436 4.7433 9.49436ZM6.01347 9.93369C5.97022 9.94962 5.58098 10.0885 5.14848 10.1363C5.00735 10.1522 4.87078 10.1613 4.74558 10.1613C4.1583 10.1613 3.78499 9.97011 3.64386 9.59452C3.5824 9.43745 3.49134 9.02317 3.96026 8.60433C4.35633 8.25151 4.77517 8.07168 5.20539 8.07168C5.68113 8.07168 6.07266 8.30614 6.28208 8.52239C6.49149 8.71587 6.5962 8.97309 6.56661 9.23486C6.53019 9.56265 6.30029 9.79256 6.09542 9.89954C6.06583 9.9132 6.04079 9.92458 6.01347 9.93369ZM7.59777 8.31524C7.44071 8.59295 7.54314 8.69311 7.75256 8.69311C7.92328 8.69311 8.16229 8.6271 8.38764 8.53832C8.73364 8.39947 9.03183 8.17639 9.03183 8.17639C9.03183 8.17639 9.22987 7.97835 8.95444 7.84405C8.95444 7.84405 8.7473 7.70064 8.46731 7.70064C8.20327 7.69837 7.87776 7.82584 7.59777 8.31524ZM7.75256 9.35778C7.25633 9.35778 7.03553 9.0687 6.96269 8.94578C6.84887 8.75001 6.76693 8.42678 7.01732 7.98518C7.49079 7.15434 8.12815 7.02914 8.46504 7.02914C8.86111 7.02914 9.16386 7.18848 9.28678 7.2636C9.63505 7.45253 9.73066 7.73479 9.75569 7.88958C9.82171 8.2902 9.57814 8.57019 9.50303 8.64758C9.48026 8.67034 9.45522 8.69083 9.43246 8.70904C9.39604 8.73636 9.05232 8.98903 8.63348 9.15519C8.4013 9.24852 8.05986 9.35778 7.75256 9.35778ZM15.9222 12.6994C16.5436 11.2812 16.8054 10.0247 16.9146 9.23942C15.8379 9.59452 14.5518 9.45339 13.8098 9.16885C13.0836 8.89114 12.0434 8.07623 11.4788 7.16344C11.34 7.37514 11.1807 7.62553 11.0168 7.89868C11.0919 8.14452 11.1602 8.40402 11.2262 8.67034C11.2535 8.66807 11.2785 8.66124 11.3081 8.65896C11.3764 8.65441 11.4424 8.64986 11.5062 8.64986C12.7217 8.64986 13.1587 9.47388 13.2316 9.95417C13.3067 10.2979 13.177 10.5346 13.0882 10.6484C12.9334 10.851 12.6876 10.9648 12.4144 10.9648C12.3211 10.9648 12.2573 10.9535 12.2573 10.9535C12.2346 10.9489 12.1982 10.9398 12.1777 10.9353C12.1412 10.9239 11.8385 10.8283 11.5153 10.6667C11.5198 11.0832 11.472 11.4451 11.3878 11.7729C11.7839 11.7092 12.2505 11.7365 12.7968 11.9459C13.4843 12.2077 13.9463 12.6038 14.174 13.1159C14.4744 13.7966 14.2309 14.4271 14.2195 14.4521C14.174 14.5659 14.0715 14.6456 13.9486 14.6593C13.935 14.6615 13.9213 14.6615 13.9076 14.6615C13.8007 14.6615 13.6982 14.6092 13.6368 14.5204C13.5981 14.4658 12.6306 13.1979 10.4409 13.2776C10.343 13.3572 10.2428 13.4346 10.1336 13.5052C10.4773 13.9422 10.994 14.2996 11.7292 14.5819C13.7233 15.3444 14.8022 15.2534 15.9222 12.6994ZM7.92556 13.3572C10.104 12.7517 10.9644 11.996 10.3043 9.11877C9.93097 7.4935 9.35051 6.2552 8.94761 5.52906C8.42179 6.29845 7.56818 6.90167 6.43459 7.29547C5.79267 7.51854 4.40869 7.60504 3.02243 7.07467C3.07023 8.03981 3.22047 9.69012 3.68938 10.9375C4.54754 13.2206 5.81544 13.9445 7.92556 13.3572ZM11.0623 12.5628C11.0509 12.5787 11.0418 12.5969 11.0327 12.6129C12.2824 12.6994 13.1337 13.182 13.6322 13.5849C13.5525 13.248 13.2908 12.8473 12.5601 12.5696C11.8704 12.3033 11.3855 12.3875 11.0623 12.5628ZM11.4515 9.85402C11.5266 9.90637 11.604 9.95645 11.686 10.002C12.0115 10.1864 12.3689 10.2933 12.3689 10.2933C12.3689 10.2933 12.3871 10.2956 12.4144 10.2956C12.4895 10.2956 12.6261 10.2706 12.5737 10.0725C12.5737 10.0725 12.4986 9.31454 11.5062 9.31454C11.4606 9.31454 11.4151 9.31681 11.3673 9.31909C11.4015 9.50574 11.4288 9.68557 11.4515 9.85402ZM17.7182 7.93966C17.8889 8.02388 17.9959 8.19915 17.9959 8.39036C17.9959 8.47686 17.9686 10.5255 16.8418 13.1C15.9017 15.2443 14.8182 16 13.5093 16C12.856 16 12.1481 15.8133 11.3719 15.5174C10.384 15.1396 9.69424 14.6251 9.23898 13.9673C8.91802 14.0993 8.56975 14.2154 8.19644 14.3201C7.6433 14.4726 7.12658 14.55 6.64628 14.55C4.85484 14.55 3.57329 13.471 2.75155 11.2881C1.98444 9.24397 1.9981 6.3895 2.00037 6.26886C2.00265 6.09131 2.09825 5.92741 2.25304 5.83864C2.40783 5.74986 2.59676 5.74986 2.75155 5.83864C4.12643 6.62624 5.60602 6.5238 6.1068 6.34853C6.96041 6.05261 8.05758 5.46305 8.42862 4.34312C8.4878 4.16557 8.64259 4.03582 8.82697 4.00623C9.01362 3.97663 9.198 4.05403 9.30954 4.20654C9.34596 4.25662 9.99015 5.14892 10.5956 6.68087C10.928 6.17098 11.1761 5.83864 11.192 5.82043C11.3127 5.65881 11.5175 5.58825 11.7133 5.63605C11.9091 5.68613 12.057 5.84774 12.0866 6.04578C12.2118 6.86297 13.4365 7.95331 14.1671 8.2333C14.9024 8.51556 16.4025 8.5884 17.1901 7.98746C17.3426 7.87364 17.5474 7.85543 17.7182 7.93966ZM15.5056 10.9353C15.5056 10.9353 15.3303 10.5278 14.7886 10.5278C14.652 10.5278 14.4949 10.5528 14.3106 10.6166C13.853 10.7759 14.3014 10.9762 14.7544 11.0809C15.0708 11.1515 15.3918 11.1561 15.3918 11.1561C15.3918 11.1561 15.6308 11.131 15.5056 10.9353ZM14.092 9.98832C14.3333 9.90409 14.5678 9.86312 14.7886 9.86312C15.5193 9.86312 15.9404 10.3161 16.0952 10.6211C16.2317 10.8624 16.2477 11.131 16.1361 11.3677C16.0155 11.6204 15.7628 11.7889 15.4624 11.823C15.4396 11.8253 15.4146 11.8253 15.3918 11.8253H15.385C15.344 11.8253 14.9798 11.8185 14.6042 11.7342C14.2992 11.6637 13.4888 11.4793 13.4524 10.8101C13.4456 10.6689 13.4683 10.2023 14.092 9.98832Z" fill="#86888C"/>
</svg>
