<svg width="24" height="24" viewBox="0 0 24 24" fill="none" xmlns="http://www.w3.org/2000/svg">
<path fill-rule="evenodd" clip-rule="evenodd" d="M4.77138 12.9603C5.22663 12.9603 5.54531 13.279 5.54531 13.7342C5.54531 14.1895 5.22663 14.5082 4.77138 14.5082C4.31612 14.5082 3.99744 14.1895 3.99744 13.7342C3.99744 13.2761 4.31327 12.9603 4.77138 12.9603ZM20.381 12.9119C20.1278 12.6758 20.1135 12.2774 20.3497 12.0242L20.3838 11.99C20.62 11.7738 20.748 11.4039 20.748 10.923C20.748 9.95846 19.903 9.80765 19.5388 9.78774H16.093L13.3672 9.70807C13.0286 9.69953 12.7583 9.42069 12.7611 9.07924C12.7611 9.07924 12.7697 6.64362 12.7697 4.79129V4.75715L12.7754 4.6348C12.7782 3.64462 12.3912 3.24911 11.4864 3.24911C11.1535 3.24911 10.7039 3.30602 10.4422 3.59055C10.2487 3.79826 10.1662 4.1141 10.1946 4.53237L10.2117 4.72585C10.2202 4.81121 10.2288 4.89373 10.2345 4.99331C10.2373 5.01608 10.2401 5.03884 10.2401 5.0616C10.2658 6.23673 10.2828 7.74477 10.1662 8.97397C9.98976 10.8234 8.35652 11.8791 7.58543 12.2746V12.2831C7.58543 12.3002 7.59112 12.3144 7.59112 12.3315V19.9713L10.1064 20.0054C10.4393 20.0054 10.7694 20.0993 11.1848 20.2188L11.4039 20.2814C12.1465 20.4977 12.9859 20.7452 15.1 20.7452C18.5941 20.7452 18.8132 20.4066 19.0636 19.7323C19.149 19.1774 19.0664 18.9299 18.9811 18.7762C18.816 18.4718 18.9299 18.0933 19.2315 17.9283C19.2514 17.9169 19.2685 17.9084 19.2884 17.8998C19.7095 17.7263 20.2131 17.3934 20.2131 16.8215C20.2131 16.4203 20.1221 16.1044 19.9542 15.9052C19.8404 15.7715 19.7863 15.5923 19.8091 15.4187C19.8318 15.2451 19.9286 15.0858 20.0737 14.9834C20.5233 14.6817 20.7509 14.3033 20.7509 13.8651C20.7509 13.4582 20.6257 13.1396 20.381 12.9119ZM6.10869 20.2757C6.23104 20.2757 6.33063 20.179 6.33632 20.0566V12.3173C6.33063 12.1949 6.23104 12.0982 6.10869 12.0982H3.47674C3.3487 12.0982 3.24627 12.2034 3.24627 12.3315V20.0452C3.24627 20.1733 3.35154 20.2757 3.47674 20.2757H6.10869ZM21.6102 12.451C21.8264 12.7896 21.9972 13.2505 21.9972 13.8651C21.9972 14.5309 21.7297 15.1484 21.2374 15.6406C21.3655 15.9394 21.4622 16.3292 21.4622 16.8271C21.4622 17.6267 21.044 18.3181 20.2956 18.7876C20.3668 19.1404 20.3611 19.5388 20.2843 20.0026C20.2786 20.0396 20.2672 20.0794 20.253 20.1135C19.681 21.6642 18.7677 22 15.0972 22C12.8038 22 11.8307 21.7155 11.0482 21.485L10.8377 21.4252C10.5161 21.3313 10.2572 21.2574 10.095 21.2574L7.24683 21.2204C7.17855 21.2204 7.11595 21.1948 7.05051 21.1805C6.78589 21.4025 6.45298 21.5248 6.10869 21.5277H3.47674C2.66012 21.5277 2 20.8647 2 20.0481V12.3315C2 11.5149 2.66297 10.8519 3.47674 10.8519H6.10869C6.44729 10.8519 6.75743 10.9714 7.00782 11.1649C7.56551 10.8804 8.80324 10.1064 8.92275 8.85446C9.03372 7.71347 9.01949 6.28795 8.99388 5.15834L8.99104 5.11566C8.98819 5.01039 8.97966 4.93356 8.97112 4.85105L8.9512 4.61773C8.88291 3.65315 9.23005 3.06416 9.52881 2.73979C9.97838 2.25608 10.6556 2 11.4864 2C13.0741 2 14.0245 2.96173 14.0245 4.57505L14.0216 4.67463L14.0159 4.80837C14.0159 6.08593 14.0131 7.63949 14.0102 8.47887L16.113 8.54147H19.5786C20.8021 8.60691 22 9.37231 22 10.9259C21.9972 11.6059 21.8236 12.0982 21.6102 12.451Z" fill="#86888C"/>
</svg>
