<svg width="28" height="28" viewBox="0 0 28 28" fill="none" xmlns="http://www.w3.org/2000/svg">
<path fill-rule="evenodd" clip-rule="evenodd" d="M5.32612 12.8458C5.87251 12.8458 6.25498 12.4633 6.25498 11.9169C6.25498 11.3705 5.87251 10.988 5.32612 10.988C4.77974 10.988 4.39727 11.3705 4.39727 11.9169C4.39727 12.4667 4.77632 12.8458 5.32612 12.8458ZM24.0603 12.9038C23.7564 13.1873 23.7393 13.6653 24.0228 13.9693L24.0637 14.0102C24.3472 14.2698 24.5009 14.7137 24.5009 15.2908C24.5009 16.4485 23.4866 16.6295 23.0495 16.6534H18.9141L15.6392 16.749C15.2328 16.7592 14.9084 17.0939 14.9118 17.5037C14.9118 19.2316 14.9152 20.963 14.922 22.691L14.9289 22.8378C14.9323 24.0262 14.4678 24.5009 13.3819 24.5009C12.9824 24.5009 12.4428 24.4326 12.1286 24.0911C11.8964 23.8418 11.7974 23.4627 11.8315 22.9607L11.852 22.7285C11.8623 22.6261 11.8725 22.527 11.8793 22.4075C11.8828 22.3802 11.8862 22.3529 11.8862 22.3256C11.9169 20.9152 11.9374 19.1053 11.7974 17.6301C11.5857 15.4104 9.6255 14.1434 8.70006 13.6688V13.6585C8.70006 13.638 8.70689 13.6209 8.70689 13.6005V4.43142L11.7257 4.39044C12.1252 4.39044 12.5213 4.27775 13.0199 4.13432L13.2829 4.05919C14.1742 3.79966 15.1816 3.50256 17.7188 3.50256C21.9123 3.50256 22.1753 3.90894 22.4758 4.71827C22.5783 5.38418 22.4792 5.68127 22.3768 5.86568C22.1787 6.23108 22.3153 6.68526 22.6773 6.88332C22.7012 6.89698 22.7217 6.90723 22.7456 6.91747C23.251 7.12578 23.8554 7.52533 23.8554 8.21172C23.8554 8.69323 23.7462 9.07228 23.5447 9.31133C23.4081 9.47183 23.3432 9.68697 23.3705 9.89528C23.3978 10.1036 23.5139 10.2948 23.6881 10.4178C24.2242 10.7866 24.4974 11.2408 24.4974 11.7632C24.5043 12.2481 24.354 12.6306 24.0603 12.9038ZM6.93113 4.06602C7.07797 4.06602 7.19408 4.18554 7.20433 4.32897V13.6175C7.1975 13.7644 7.07797 13.8805 6.93113 13.8805H3.77234C3.61867 13.8805 3.49573 13.7541 3.49573 13.6005V4.34604C3.49573 4.19237 3.62208 4.06944 3.77234 4.06944L6.93113 4.06602ZM25.5356 13.457C25.7951 13.0507 26 12.4974 26 11.7598C26 10.9607 25.679 10.2197 25.0882 9.62891C25.2419 9.27035 25.358 8.8025 25.358 8.20489C25.358 7.2453 24.856 6.41548 23.9579 5.85202C24.0433 5.42857 24.0364 4.95048 23.9442 4.39385C23.9374 4.34946 23.9237 4.30165 23.9067 4.26067C23.2203 2.40296 22.1241 2 17.7188 2C14.9664 2 13.7985 2.34149 12.8594 2.6181L12.6067 2.68981C12.2208 2.8025 11.9101 2.89129 11.7154 2.89129L8.2971 2.93569C8.21514 2.93569 8.14001 2.96642 8.06147 2.98349C7.74388 2.71713 7.34434 2.57029 6.93113 2.56688H3.77234C2.79567 2.56688 2 3.36255 2 4.34263V13.6005C2 14.5805 2.79567 15.3762 3.77234 15.3762H6.93113C7.33751 15.3762 7.70973 15.2328 8.01024 15.0006C8.67957 15.3421 10.1651 16.2709 10.3085 17.7735C10.4417 19.1429 10.4246 20.8537 10.3939 22.2094L10.3904 22.2607C10.387 22.387 10.3768 22.4792 10.3665 22.5783L10.3426 22.8583C10.2607 24.0159 10.6773 24.7228 11.0359 25.1121C11.5754 25.6927 12.3882 26 13.3853 26C15.2908 26 16.4314 24.8458 16.4314 22.9095L16.428 22.79L16.4212 22.6295C16.4212 21.0962 16.4178 19.2316 16.4143 18.2242L18.938 18.1491H23.0973C24.5657 18.0706 26.0034 17.152 26.0034 15.2874C26 14.4713 25.7917 13.8805 25.5356 13.457Z" fill="#86888C"/>
</svg>
