<svg width="24" height="24" viewBox="0 0 24 24" fill="none" xmlns="http://www.w3.org/2000/svg">
<path fill-rule="evenodd" clip-rule="evenodd" d="M20.7612 18.2731V4.09463C20.7612 3.6222 20.3742 3.23516 19.8989 3.23516H17.6734C17.5652 4.15155 16.7456 4.86019 15.7922 4.86019C14.8388 4.85735 14.0277 4.16009 13.8826 3.21523L11.6855 3.23516C11.2102 3.23516 10.8232 3.6222 10.8232 4.09463V8.04196C10.826 8.07611 10.8232 8.10742 10.8232 8.14157V18.2703C10.8232 18.7456 11.2102 19.1298 11.6855 19.1298H13.9309C14.0789 18.2532 14.8729 17.5987 15.7922 17.5987C16.7114 17.5987 17.5055 18.2504 17.6847 19.1497L19.8989 19.1298C20.3742 19.1326 20.7612 18.7484 20.7612 18.2731ZM10.493 20.6751L11.1704 20.2938C10.2426 20.0632 9.58802 19.2294 9.58518 18.2703V18.2105C9.50834 18.1622 9.44288 18.0967 9.3945 18.017L5.35325 10.8538C5.18534 10.5578 5.29064 10.1821 5.58662 10.0142H5.58947L9.58518 7.77729V5.09356L8.31873 5.80505C8.58625 6.61614 8.24474 7.50408 7.4991 7.92528C6.75346 8.34079 5.80291 8.16718 5.25649 7.52115L3.5973 8.44893C3.26148 8.63677 3.1391 9.06081 3.32694 9.39663V9.39948L9.5368 20.4105C9.73032 20.7434 10.1544 20.863 10.493 20.6751ZM9.58518 15.837V9.19457L6.73923 10.7911L9.58518 15.837ZM19.8989 2.00001C21.0572 2.00001 21.9992 2.93633 22.0021 4.09463V18.2731C21.9992 19.4314 21.0572 20.3678 19.8989 20.3678H17.6534C17.0786 20.3678 16.5777 19.9579 16.4667 19.3888C16.3898 19.0159 16.0256 18.7769 15.6527 18.8537C15.3824 18.9106 15.1718 19.1212 15.1177 19.3888C15.0067 19.9551 14.5087 20.3649 13.9309 20.3678H13.2565C13.1568 20.5357 13.0202 20.678 12.8438 20.7747L11.0992 21.7509C10.6496 22.0042 10.1202 22.0668 9.62502 21.9273C9.12983 21.7907 8.70863 21.4606 8.45818 21.0109L2.24832 10.0057C1.99503 9.55885 1.93242 9.02951 2.07472 8.53716C2.21133 8.04196 2.54146 7.62361 2.99112 7.37316L4.72145 6.40554C5.21949 6.12095 5.84845 6.25186 6.19281 6.71006C6.35503 6.91781 6.66239 6.98042 6.89291 6.84951C7.12628 6.71575 7.22873 6.43115 7.13766 6.18071C6.92706 5.65137 7.14335 5.04802 7.64139 4.77197L9.37173 3.80434C9.45142 3.75881 9.54249 3.73889 9.62787 3.70474C9.8157 2.71435 10.6809 2.00001 11.6855 2.00001H13.9139C14.5201 2.00001 15.0238 2.43544 15.1092 3.03878C15.1604 3.37176 15.4507 3.62505 15.7922 3.62505C16.1337 3.62505 16.424 3.37461 16.4752 3.03878C16.5578 2.44114 17.07 1.99717 17.6734 2.00001H19.8989ZM12.9178 15.5524H18.7833V6.86374H12.9178V15.5524ZM19.4037 5.6286C19.7452 5.6286 20.0241 5.90465 20.0241 6.24617V16.17C20.0241 16.5115 19.7452 16.7876 19.4037 16.7876H12.3002C11.9587 16.7876 11.6798 16.5115 11.6798 16.17V6.24617C11.6798 5.90465 11.9587 5.6286 12.3002 5.6286H19.4037Z" fill="#86888C"/>
</svg>
