<svg width="28" height="28" viewBox="0 0 28 28" fill="none" xmlns="http://www.w3.org/2000/svg">
<path fill-rule="evenodd" clip-rule="evenodd" d="M25.5135 21.5278V4.51356C25.5135 3.94665 25.049 3.48219 24.4787 3.48219H21.808C21.6783 4.58186 20.6947 5.43223 19.5506 5.43223C18.4066 5.42882 17.4332 4.59211 17.2591 3.45828L14.6226 3.48219C14.0523 3.48219 13.5878 3.94665 13.5878 4.51356V9.25035C13.5912 9.29134 13.5878 9.3289 13.5878 9.36988V21.5244C13.5878 22.0947 14.0523 22.5557 14.6226 22.5557H17.3171C17.4947 21.5039 18.4475 20.7184 19.5506 20.7184C20.6537 20.7184 21.6065 21.5005 21.8217 22.5796L24.4787 22.5557C25.049 22.5592 25.5135 22.0981 25.5135 21.5278ZM13.1916 24.4102L14.0044 23.9525C12.8911 23.6759 12.1056 22.6753 12.1022 21.5244V21.4526C12.01 21.3946 11.9315 21.316 11.8734 21.2204L7.0239 12.6245C6.82241 12.2693 6.94877 11.8185 7.30394 11.617H7.30736L12.1022 8.93275V5.71227L10.5825 6.56606C10.9035 7.53937 10.4937 8.60489 9.59892 9.11033C8.70415 9.60894 7.56349 9.40062 6.90779 8.62538L4.91676 9.73872C4.51378 9.96412 4.36693 10.473 4.59232 10.876V10.8794L12.0442 24.0925C12.2764 24.4921 12.7852 24.6356 13.1916 24.4102ZM12.1022 18.6044V10.6335L8.68707 12.5494L12.1022 18.6044ZM24.4787 2.00002C25.8686 2.00002 26.999 3.1236 27.0025 4.51356V21.5278C26.999 22.9177 25.8686 24.0413 24.4787 24.0413H21.7841C21.0943 24.0413 20.4932 23.5495 20.36 22.8665C20.2678 22.4191 19.8307 22.1323 19.3833 22.2245C19.0588 22.2928 18.8061 22.5455 18.7412 22.8665C18.6081 23.5461 18.0104 24.0379 17.3171 24.0413H16.5077C16.3882 24.2428 16.2243 24.4136 16.0125 24.5297L13.9191 25.7011C13.3795 26.005 12.7443 26.0802 12.15 25.9128C11.5558 25.7489 11.0504 25.3527 10.7498 24.8131L3.29799 11.6068C2.99404 11.0706 2.91891 10.4354 3.08966 9.84459C3.25359 9.25035 3.64975 8.74833 4.18934 8.4478L6.26574 7.28665C6.86339 6.94514 7.61814 7.10223 8.03137 7.65207C8.22603 7.90138 8.59487 7.97651 8.87149 7.81941C9.15153 7.6589 9.27448 7.31739 9.16519 7.01685C8.91247 6.38164 9.17202 5.65763 9.76967 5.32636L11.8461 4.16521C11.9417 4.11057 12.051 4.08667 12.1534 4.04568C12.3788 2.85722 13.417 2.00002 14.6226 2.00002H17.2966C18.0241 2.00002 18.6285 2.52253 18.731 3.24654C18.7925 3.64611 19.1408 3.95006 19.5506 3.95006C19.9604 3.95006 20.3088 3.64953 20.3703 3.24654C20.4693 2.52936 21.084 1.9966 21.808 2.00002H24.4787ZM16.1013 18.2629H23.1399V7.83649H16.1013V18.2629ZM23.8844 6.35432C24.2943 6.35432 24.6289 6.68559 24.6289 7.0954V19.004C24.6289 19.4138 24.2943 19.7451 23.8844 19.7451H15.3603C14.9504 19.7451 14.6158 19.4138 14.6158 19.004V7.0954C14.6158 6.68559 14.9504 6.35432 15.3603 6.35432H23.8844Z" fill="#86888C"/>
</svg>
