<svg width="28" height="28" viewBox="0 0 28 28" fill="none" xmlns="http://www.w3.org/2000/svg">
<path d="M5.49285 2C4.58883 2 4 2.47446 4 3.49957C4 3.99134 4.13508 4.35498 4.37754 4.60433C4.63732 4.871 5.02179 4.99913 5.49285 4.99913C5.96392 4.99913 6.34839 4.871 6.60816 4.60433C6.85062 4.35844 6.98571 3.99134 6.98571 3.49957C6.98571 2.47446 6.39688 2 5.49285 2ZM9.88482 2C8.9808 2 8.39197 2.47446 8.39197 3.49957C8.39197 3.99134 8.52705 4.35498 8.76951 4.60433C9.02929 4.871 9.41376 4.99913 9.88482 4.99913C10.3559 4.99913 10.7404 4.871 11.0001 4.60433C11.2426 4.35844 11.3777 3.99134 11.3777 3.49957C11.3777 2.47446 10.7923 2 9.88482 2ZM14.2733 2C13.3693 2 12.7805 2.47446 12.7805 3.49957C12.7805 3.99134 12.9156 4.35498 13.158 4.60433C13.4178 4.871 13.8023 4.99913 14.2733 4.99913C14.7444 4.99913 15.1289 4.871 15.3886 4.60433C15.6311 4.35844 15.7662 3.99134 15.7662 3.49957C15.7662 2.47446 15.1773 2 14.2733 2ZM5.49285 6.05195C4.58883 6.05195 4 6.52987 4 7.55152C4 8.04329 4.13508 8.41039 4.37754 8.65628C4.63732 8.92294 5.02179 9.05108 5.49285 9.05108C5.96392 9.05108 6.34839 8.92294 6.60816 8.65628C6.85062 8.41039 6.98571 8.04329 6.98571 7.55152C6.98571 6.52641 6.39688 6.05195 5.49285 6.05195ZM9.88482 6.05195C8.9808 6.05195 8.39197 6.52987 8.39197 7.55152C8.39197 8.04329 8.52705 8.41039 8.76951 8.65628C9.02929 8.92294 9.41376 9.05108 9.88482 9.05108C10.3559 9.05108 10.7404 8.92294 11.0001 8.65628C11.2426 8.41039 11.3777 8.04329 11.3777 7.55152C11.3777 6.52641 10.7923 6.05195 9.88482 6.05195ZM21.5713 26H13.5979C12.7978 26 12.4445 25.245 12.2956 24.9264C12.1501 24.6182 11.6444 23.5965 11.0556 22.4121C10.1134 20.5143 8.93923 18.1524 8.24303 16.684C7.83431 15.8182 7.99711 14.9177 8.66214 14.3879C9.35141 13.8372 10.3386 13.8511 11.059 14.4225C11.4331 14.7203 11.7448 15.129 12.0912 15.7143V8.22684V8.18182C12.1778 6.81732 12.9744 6.03463 14.2699 6.03463C15.6172 6.03463 16.4555 6.87619 16.4555 8.22684V11.1706C16.6841 11.1082 16.9196 11.0771 17.1551 11.0805C18.1804 11.0805 18.8974 11.5896 19.1467 12.4519C19.4031 12.3688 19.6732 12.3307 19.9434 12.3307C20.9756 12.3307 21.6926 12.8468 21.9385 13.716C22.1948 13.6364 22.4615 13.5948 22.7317 13.5983C24.0202 13.5983 24.8168 14.3983 24.8168 15.69V22.7827C24.8168 23.7697 24.5363 24.5524 23.989 25.1169C23.4417 25.6814 22.5758 26 21.5713 26ZM13.6984 24.6147H21.5713C22.1948 24.6147 22.7144 24.4485 22.9984 24.1541C23.2824 23.8597 23.4348 23.3991 23.4348 22.7861V15.69C23.4348 15.1671 23.2512 14.9835 22.7351 14.9835C22.219 14.9835 22.0355 15.1671 22.0355 15.69C22.0355 16.071 21.7237 16.3827 21.3427 16.3827C20.9617 16.3827 20.65 16.071 20.65 15.69V14.4225C20.65 13.8996 20.4664 13.716 19.9503 13.716C19.4342 13.716 19.2507 13.8996 19.2507 14.4225C19.2507 14.8035 18.9389 15.1152 18.5579 15.1152C18.1769 15.1152 17.8652 14.8035 17.8652 14.4225V13.1688C17.8652 12.6459 17.6816 12.4623 17.1655 12.4623C16.6494 12.4623 16.4658 12.6459 16.4658 13.1688C16.4658 13.5498 16.1541 13.8615 15.7731 13.8615C15.3921 13.8615 15.0804 13.5498 15.0804 13.1688V8.22684C15.0804 7.6381 14.8622 7.41991 14.2803 7.41991C13.6637 7.41991 13.5217 7.71082 13.4836 8.25108C13.4836 8.729 13.4801 16.2857 13.4836 16.7844C13.4871 17.3732 13.1684 17.8476 12.6904 17.9688C12.441 18.0312 11.8106 18.0762 11.3015 17.1342C10.8547 16.3065 10.5325 15.7766 10.2035 15.5169C9.96449 15.3299 9.68393 15.3541 9.52806 15.4788C9.33409 15.6312 9.40683 15.8978 9.50035 16.0952C10.1931 17.5532 11.3604 19.9082 12.3025 21.7991C12.919 23.039 13.4039 24.0156 13.5563 24.3411C13.591 24.4346 13.6395 24.5247 13.6984 24.6147ZM5.49285 10.1039C4.58883 10.1039 4 10.5818 4 11.6035C4 12.0952 4.13508 12.4623 4.37754 12.7082C4.63732 12.9749 5.02179 13.1065 5.49285 13.1065C5.96392 13.1065 6.34839 12.9784 6.60816 12.7082C6.85062 12.4623 6.98571 12.0952 6.98571 11.6035C6.98571 10.5784 6.39688 10.1039 5.49285 10.1039Z" fill="#86888C"/>
<path d="M9.88494 10.104C8.98092 10.104 8.39209 10.5819 8.39209 11.6036C8.39209 12.0953 8.52717 12.4624 8.76963 12.7083C9.02941 12.975 9.41388 13.1066 9.88494 13.1066C10.356 13.1066 10.7405 12.9785 11.0003 12.7083C11.2427 12.4624 11.3778 12.0953 11.3778 11.6036C11.3778 10.5785 10.7924 10.104 9.88494 10.104Z" fill="#86888C"/>
</svg>
