<svg width="28" height="28" viewBox="0 0 28 28" fill="none" xmlns="http://www.w3.org/2000/svg">
<path fill-rule="evenodd" clip-rule="evenodd" d="M15.1388 7.49917H3.46783V8.3867H13.5549C13.9611 8.3867 14.2888 8.72123 14.2888 9.13768V13.2374C14.2888 13.6504 13.9611 13.9884 13.5549 13.9884H3.46783V15.5108H24.3418C24.4237 15.2923 24.4852 15.0705 24.5091 14.8349C24.533 14.5857 24.5227 14.3297 24.4715 14.0737H15.8727C15.4665 14.0737 15.1388 13.7392 15.1388 13.3227V7.49917ZM23.7888 12.5717C23.5874 12.285 23.3519 11.9982 23.0685 11.7081C20.3821 8.967 17.9926 8.0112 16.6101 7.68009V12.5717H23.7888ZM22.2288 17.9379C22.5019 17.7569 22.932 17.4326 23.345 17.006H3.46783V18.0846C16.2687 18.0846 20.4401 18.1051 21.6451 18.1154H21.6553C21.8601 18.1154 22.0547 18.0573 22.2288 17.9379ZM5.59107 12.4898V9.88867H3.46783V12.4898H5.59107ZM7.05891 12.4898H9.33917V9.88867H7.05891V12.4898ZM10.807 12.4898H12.821V9.88867H10.807V12.4898ZM2.21505 19.3647C2.07851 19.2248 2 19.0336 2 18.8356V9.13768V6.7516C2 6.33856 2.3277 6.00061 2.73392 6.00061H15.3266C15.4665 5.9972 19.457 5.89821 24.1028 10.6465C25.4853 12.0597 26.1134 13.5207 25.9667 14.9851C25.7584 17.0708 24.038 18.5147 23.0344 19.1906C22.6214 19.4671 22.1435 19.6139 21.6553 19.6139H21.6348C20.406 19.6037 16.1049 19.5832 2.73392 19.5832C2.53934 19.5832 2.35501 19.5047 2.21505 19.3647ZM25.2532 20.498C25.6594 20.498 25.9871 20.8326 25.9871 21.249C25.9871 21.6655 25.6594 22 25.2532 22H2.73392C2.3277 22 2 21.6655 2 21.249C2 20.8326 2.3277 20.498 2.73392 20.498H25.2532Z" fill="#86888C"/>
</svg>
