<svg width="28" height="28" viewBox="0 0 28 28" fill="none" xmlns="http://www.w3.org/2000/svg">
<path fill-rule="evenodd" clip-rule="evenodd" d="M3.46479 21.7798H9.79513C9.77123 21.6125 9.75758 21.4417 9.75416 21.271V16.1904C9.75416 15.9548 9.78489 15.7396 9.81562 15.5348H8.49424C6.87239 15.5348 5.54417 16.0162 4.6735 16.921C3.88135 17.7507 3.46137 18.9253 3.46137 20.3013L3.46479 21.7798ZM11.2224 16.1904V21.271C11.2224 21.6807 11.3009 21.9846 11.4477 22.1315C11.6423 22.3363 12.0828 22.3671 12.3252 22.3671H23.1421C23.3846 22.3671 23.8148 22.3363 24.0196 22.1315C24.1562 21.9846 24.2347 21.6739 24.2347 21.271V16.1801C24.2347 15.7772 24.1562 15.4767 24.0196 15.3402C23.8728 15.1933 23.5587 15.1046 23.1421 15.1046L12.3252 15.1148C11.895 15.1148 11.5843 15.1933 11.4477 15.3402C11.3043 15.487 11.2224 15.7909 11.2224 16.1904ZM12.3286 23.8318C11.5467 23.8318 10.9492 23.6372 10.5122 23.2446H3.3009C2.58728 23.2446 2 22.6675 2 21.9539V20.3047C2 18.5361 2.55655 17.0201 3.62185 15.9172C4.77593 14.7051 6.46607 14.07 8.49765 14.07H10.7068C11.1165 13.7968 11.6526 13.65 12.3286 13.65L23.1455 13.6398C23.9957 13.6398 24.6411 13.8651 25.0679 14.3124C25.4878 14.7426 25.7029 15.3675 25.7029 16.1801V21.271C25.7029 22.0837 25.4981 22.7085 25.0781 23.1455C24.6376 23.5962 23.9821 23.8318 23.1455 23.8318H12.3286ZM8.39863 4.49253C7.67819 5.1959 7.30602 6.27145 7.30602 7.68843C7.30602 9.11225 7.67819 10.1878 8.39863 10.8843C9.10201 11.557 10.1468 11.9018 11.516 11.9018C12.8954 11.9018 13.9402 11.5604 14.6436 10.8843C15.3777 10.181 15.7499 9.10542 15.7499 7.68843C15.7499 6.26803 15.3777 5.1959 14.6436 4.49253C13.9402 3.80965 12.8852 3.4682 11.516 3.4682C10.1605 3.4682 9.10542 3.80965 8.39863 4.49253ZM11.516 13.3666C9.75758 13.3666 8.37132 12.8886 7.38455 11.9394C6.35681 10.9526 5.84123 9.52539 5.84123 7.68843C5.84123 5.8583 6.35681 4.42424 7.38455 3.43747C8.37132 2.48143 9.75758 2 11.516 2C13.2744 2 14.6743 2.47802 15.6611 3.43747C16.6957 4.42424 17.2147 5.86172 17.2147 7.68843C17.2147 9.52539 16.6957 10.9526 15.6611 11.9394C14.6743 12.8886 13.2847 13.3666 11.516 13.3666ZM25.9966 25.2659C25.9966 25.6756 25.6654 26 25.2625 26H10.2458C9.83952 26 9.51174 25.6722 9.51174 25.2659C9.51174 24.8596 9.83952 24.5318 10.2458 24.5318H25.2625C25.662 24.5352 25.9966 24.8664 25.9966 25.2659Z" fill="#86888C"/>
</svg>
