<svg width="20" height="20" viewBox="0 0 20 20" fill="none" xmlns="http://www.w3.org/2000/svg">
<path fill-rule="evenodd" clip-rule="evenodd" d="M2.97653 15.1865H7.19676C7.18082 15.075 7.17172 14.9612 7.16944 14.8473V11.4602C7.16944 11.3032 7.18993 11.1598 7.21041 11.0232H6.32949C5.24826 11.0232 4.36278 11.3441 3.78233 11.9474C3.25423 12.5005 2.97425 13.2835 2.97425 14.2009L2.97653 15.1865ZM8.14824 11.4602V14.8473C8.14824 15.1205 8.2006 15.3231 8.29848 15.421C8.42823 15.5575 8.72187 15.578 8.88348 15.578H16.0948C16.2564 15.578 16.5432 15.5575 16.6798 15.421C16.7708 15.3231 16.8232 15.1159 16.8232 14.8473V11.4534C16.8232 11.1848 16.7708 10.9845 16.6798 10.8934C16.5819 10.7956 16.3725 10.7364 16.0948 10.7364L8.88348 10.7432C8.59667 10.7432 8.38953 10.7956 8.29848 10.8934C8.20287 10.9913 8.14824 11.1939 8.14824 11.4602ZM8.88576 16.5546C8.36449 16.5546 7.96614 16.4248 7.67478 16.163H2.86726C2.39152 16.163 2 15.7783 2 15.3026V14.2032C2 13.024 2.37103 12.0134 3.08123 11.2781C3.85062 10.4701 4.97738 10.0467 6.33177 10.0467H7.80452C8.07768 9.86456 8.43506 9.76668 8.88576 9.76668L16.097 9.75985C16.6638 9.75985 17.094 9.91009 17.3786 10.2083C17.6586 10.4951 17.802 10.9117 17.802 11.4534V14.8473C17.802 15.3891 17.6654 15.8057 17.3854 16.097C17.0918 16.3975 16.6547 16.5546 16.097 16.5546H8.88576ZM6.26576 3.66169C5.78546 4.1306 5.53735 4.84763 5.53735 5.79229C5.53735 6.7415 5.78546 7.45853 6.26576 7.92289C6.73467 8.37132 7.43121 8.60122 8.344 8.60122C9.26362 8.60122 9.96017 8.3736 10.4291 7.92289C10.9185 7.45398 11.1666 6.73695 11.1666 5.79229C11.1666 4.84536 10.9185 4.1306 10.4291 3.66169C9.96017 3.20643 9.25679 2.9788 8.344 2.9788C7.44032 2.9788 6.73695 3.20643 6.26576 3.66169ZM8.344 9.57775C7.17172 9.57775 6.24755 9.25907 5.5897 8.62626C4.90454 7.96842 4.56082 7.01693 4.56082 5.79229C4.56082 4.5722 4.90454 3.61616 5.5897 2.95832C6.24755 2.32096 7.17172 2 8.344 2C9.51629 2 10.4496 2.31868 11.1074 2.95832C11.7971 3.61616 12.1431 4.57448 12.1431 5.79229C12.1431 7.01693 11.7971 7.96842 11.1074 8.62626C10.4496 9.25907 9.52312 9.57775 8.344 9.57775ZM17.9977 17.5106C17.9977 17.7838 17.7769 18 17.5083 18H7.49723C7.22635 18 7.00782 17.7815 7.00782 17.5106C7.00782 17.2397 7.22635 17.0212 7.49723 17.0212H17.5083C17.7746 17.0235 17.9977 17.2443 17.9977 17.5106Z" fill="#86888C"/>
</svg>
