<svg width="40" height="40" viewBox="0 0 40 40" fill="none" xmlns="http://www.w3.org/2000/svg">
<path fill-rule="evenodd" clip-rule="evenodd" d="M5.13615 31.8455H14.3679C14.3331 31.6015 14.3131 31.3525 14.3082 31.1036V23.6943C14.3082 23.3507 14.353 23.037 14.3978 22.7382H12.4708C10.1056 22.7382 8.16859 23.4403 6.89885 24.7599C5.74363 25.9698 5.13117 27.6827 5.13117 29.6894L5.13615 31.8455ZM16.4493 23.6943V31.1036C16.4493 31.7011 16.5638 32.1443 16.7779 32.3584C17.0617 32.6571 17.7041 32.702 18.0576 32.702H33.8323C34.1858 32.702 34.8132 32.6571 35.112 32.3584C35.3111 32.1443 35.4257 31.6911 35.4257 31.1036V23.6793C35.4257 23.0918 35.3111 22.6536 35.112 22.4544C34.8979 22.2403 34.4398 22.1108 33.8323 22.1108L18.0576 22.1258C17.4302 22.1258 16.9771 22.2403 16.7779 22.4544C16.5688 22.6685 16.4493 23.1117 16.4493 23.6943ZM18.0626 34.8381C16.9223 34.8381 16.0509 34.5543 15.4136 33.9816H4.89714C3.85645 33.9816 3 33.1401 3 32.0994V29.6944C3 27.1151 3.81164 24.9043 5.3652 23.2959C7.04823 21.5282 9.51302 20.6021 12.4757 20.6021H15.6974C16.2949 20.2037 17.0767 19.9896 18.0626 19.9896L33.8372 19.9747C35.0771 19.9747 36.0182 20.3033 36.6406 20.9556C37.2531 21.583 37.5668 22.4942 37.5668 23.6793V31.1036C37.5668 32.2887 37.268 33.1999 36.6556 33.8372C36.0132 34.4945 35.0572 34.8381 33.8372 34.8381H18.0626ZM12.3313 6.63494C11.2807 7.66069 10.7379 9.22919 10.7379 11.2956C10.7379 13.372 11.2807 14.9405 12.3313 15.9563C13.3571 16.9373 14.8808 17.4402 16.8775 17.4402C18.8892 17.4402 20.4129 16.9422 21.4386 15.9563C22.5092 14.9306 23.0519 13.3621 23.0519 11.2956C23.0519 9.22421 22.5092 7.66069 21.4386 6.63494C20.4129 5.63907 18.8742 5.14113 16.8775 5.14113C14.9007 5.14113 13.3621 5.63907 12.3313 6.63494ZM16.8775 19.5763C14.3131 19.5763 12.2915 18.8792 10.8525 17.495C9.35368 16.0559 8.60179 13.9745 8.60179 11.2956C8.60179 8.62669 9.35368 6.53535 10.8525 5.09632C12.2915 3.70209 14.3131 3 16.8775 3C19.4419 3 21.4834 3.69711 22.9225 5.09632C24.4312 6.53535 25.1881 8.63167 25.1881 11.2956C25.1881 13.9745 24.4312 16.0559 22.9225 17.495C21.4834 18.8792 19.4568 19.5763 16.8775 19.5763ZM37.995 36.9294C37.995 37.527 37.512 38 36.9245 38H15.0252C14.4326 38 13.9546 37.522 13.9546 36.9294C13.9546 36.3369 14.4326 35.8589 15.0252 35.8589H36.9245C37.507 35.8638 37.995 36.3468 37.995 36.9294Z" fill="#86888C"/>
</svg>
