<svg width="24" height="24" viewBox="0 0 24 24" fill="none" xmlns="http://www.w3.org/2000/svg">
<path fill-rule="evenodd" clip-rule="evenodd" d="M7.679 18.6331C7.60614 18.6908 7.50292 18.6938 7.43006 18.6331C6.39785 17.8134 5.04383 17.4369 4.08448 17.2609V15.6336L6.99896 16.9451C7.31773 17.0878 7.68507 17.0908 8.00384 16.9451L11.0246 15.5881L11.0215 17.2669C10.0652 17.44 8.71121 17.8134 7.679 18.6331ZM7.47559 11.1344L12.5972 13.4356L7.53024 15.7368L2.40866 13.4356L7.47559 11.1344ZM13.2711 12.2971L8.00384 9.92913C7.68507 9.78644 7.31773 9.78644 6.99896 9.92913L4.84043 10.8976V7.16038C4.84043 6.51677 4.98311 6.04317 5.26242 5.75476C5.55083 5.45724 6.03657 5.30544 6.70751 5.30544L19.1213 5.29937C19.7892 5.29937 20.275 5.45116 20.5664 5.74868C20.8457 6.0371 20.9884 6.5107 20.9884 7.15431V13.047C20.9884 13.6967 20.8457 14.1764 20.5634 14.4709C20.272 14.7744 19.7862 14.9293 19.1213 14.9293L12.4757 14.9323L13.2681 14.5771C13.7144 14.3767 14.0028 13.9305 14.0028 13.4386C14.0119 12.9438 13.7235 12.4975 13.2711 12.2971ZM21.6836 16.7569H12.333V16.2347L19.1244 16.2317C20.1505 16.2317 20.949 15.9433 21.4924 15.3756C22.0146 14.8291 22.2787 14.0428 22.2787 13.047V7.15735C22.2787 6.16157 22.0115 5.38134 21.4894 4.84095C20.949 4.28234 20.1536 4 19.1244 4H6.71055C5.67834 4 4.88293 4.28538 4.34254 4.84095C3.81732 5.38134 3.5532 6.16157 3.5532 7.15735V11.4744L1.73469 12.2941C1.2793 12.5005 1 12.9377 1 13.4356C1 13.9274 1.28841 14.3767 1.73469 14.5741L2.77904 15.0477V17.2639C2.77904 17.9075 3.23443 18.454 3.85983 18.5693C4.66738 18.7151 5.80281 19.0247 6.6225 19.6744C7.16897 20.1085 7.94312 20.1085 8.48655 19.6744C9.30321 19.0247 10.4386 18.7151 11.2492 18.5693C11.5771 18.5086 11.8534 18.3265 12.0446 18.0805H21.6806C22.0419 18.0775 22.3364 17.783 22.3333 17.4218C22.3364 17.0514 22.0419 16.7569 21.6836 16.7569Z" fill="#86888C"/>
</svg>
