<svg width="28" height="28" viewBox="0 0 28 28" fill="none" xmlns="http://www.w3.org/2000/svg">
<path fill-rule="evenodd" clip-rule="evenodd" d="M24.2313 24.4633H3.7755C3.64917 24.4633 3.53649 24.3506 3.53649 24.2242V15.5333C3.53649 15.4104 3.64917 15.3011 3.7755 15.3011H10.5361V15.5913C10.5361 17.4388 12.0384 18.9448 13.8856 18.9448H14.1212C15.9684 18.9448 17.4742 17.4422 17.4742 15.5913V15.3011H24.2347C24.3713 15.3011 24.4499 15.4001 24.4669 15.4684L24.4738 24.2277C24.4703 24.354 24.3645 24.4633 24.2313 24.4633ZM5.4793 3.89528C5.48613 3.85088 5.48954 3.8099 5.48954 3.76892C5.48954 3.63916 5.59539 3.5333 5.72514 3.5333L22.2783 3.55037C22.4388 3.55037 22.5924 3.72795 22.6368 3.94991L24.1938 13.761H16.7093C16.286 13.761 15.9445 14.1059 15.9445 14.5293V15.5845C15.9445 16.5885 15.1285 17.4013 14.1212 17.4013H13.8856C12.8818 17.4013 12.0657 16.5851 12.0657 15.5845V14.5293C12.0657 14.1059 11.7243 13.761 11.3009 13.761H3.8233L5.4793 3.89528ZM25.9863 15.4001C25.9829 15.3762 25.9932 15.3591 25.9898 15.3352L24.1426 3.6938C23.9616 2.70689 23.1968 2.01707 22.2783 2.01707L5.72514 2C4.77593 2 3.99744 2.7547 3.95988 3.70063L2.01707 15.2533C2.01366 15.284 2.02049 15.3147 2.02049 15.3455C2.01366 15.4069 2 15.4684 2 15.5333V24.2242C2 25.2043 2.79215 26 3.76867 26H24.2313C25.2079 26 26 25.2043 26 24.2242V15.5333C26 15.4855 25.9898 15.4411 25.9863 15.4001Z" fill="#86888C"/>
</svg>
