<svg width="40" height="40" viewBox="0 0 40 40" fill="none" xmlns="http://www.w3.org/2000/svg">
<path fill-rule="evenodd" clip-rule="evenodd" d="M28.8059 18.1816C29.6818 18.7143 30.1121 19.6158 30.1121 20.9425C30.1121 22.6688 29.3796 23.7035 27.8788 24.103C27.3819 24.2362 27.0489 24.7945 27.0489 25.2812C27.0489 29.9784 23.2277 30.7365 21.2248 30.8184V22.93C21.2351 22.9146 21.2555 22.9095 21.2658 22.8941L25.3483 17.6335C25.7069 17.1725 25.6249 16.5065 25.1639 16.1429C25.1434 16.1275 25.1281 16.1121 25.1076 16.1019C24.5953 15.7433 23.8884 15.8458 23.4991 16.3324L21.2299 19.2624V15.938C21.2299 15.3335 20.7177 14.8418 20.0774 14.8418C19.4422 14.8418 18.9249 15.3335 18.9249 15.938V25.2863L15.9949 22.4895C15.5339 22.0643 14.827 22.0592 14.366 22.4843C13.9357 22.8839 13.9101 23.5549 14.3096 23.9852C14.325 24.0006 14.3404 24.0211 14.3608 24.0364L18.9249 28.4007V30.6033C17.383 30.2652 15.5185 29.4047 14.8987 27.202C14.7553 26.7257 14.3147 26.3978 13.8179 26.3927C12.1326 26.3517 9.30507 25.7319 9.30507 22.0489C9.30507 20.4764 9.79169 19.3495 10.7854 18.6118C11.0774 18.4018 11.2464 18.0586 11.2311 17.6949C11.2106 17.3312 11.0108 17.0085 10.6983 16.8241C9.82242 16.2965 9.39727 15.395 9.39727 14.0683C9.39727 12.3318 10.1093 11.3278 11.6409 10.9027C12.1326 10.7695 12.4553 10.2112 12.4553 9.72453C12.4553 4.7251 16.7837 4.18725 18.6483 4.18725C19.8059 4.18725 23.6682 4.44849 24.6158 7.80876C24.7592 8.28515 25.1946 8.61298 25.6864 8.6181C27.3768 8.66932 30.2043 9.3045 30.2043 12.9721C30.2043 14.5447 29.7228 15.6614 28.7291 16.399C28.4371 16.609 28.2681 16.9522 28.2834 17.3159C28.2988 17.6693 28.4986 17.9972 28.8059 18.1816ZM32.4991 12.9721C32.4991 8.69493 29.5692 6.85088 26.5674 6.49232C25.2203 3.19863 21.6653 2 18.6431 2C14.9089 2 10.5652 3.84405 10.1912 9.08423C8.18327 9.92943 7.0922 11.671 7.0922 14.0734C7.0922 15.8458 7.68127 17.029 8.39328 17.8076C7.6403 18.7143 7 20.0666 7 22.0541C7 26.3569 9.92999 28.1907 12.9317 28.5287C14.0023 31.1309 16.4508 32.4115 18.9198 32.8367V36.9038C18.9198 37.5083 19.4371 38 20.0723 38C20.7075 38 21.2248 37.5083 21.2248 36.9038V33.0006C24.8771 32.8828 28.9493 30.9977 29.313 25.9317C30.7217 25.3375 32.4121 23.9903 32.4121 20.9374C32.4121 19.1702 31.8281 17.992 31.111 17.2083C32.033 16.1172 32.4991 14.6983 32.4991 12.9721Z" fill="#86888C"/>
</svg>
