<svg width="20" height="20" viewBox="0 0 20 20" fill="none" xmlns="http://www.w3.org/2000/svg">
<path fill-rule="evenodd" clip-rule="evenodd" d="M13.6915 9.1918C14.0808 9.42857 14.2721 9.82925 14.2721 10.4189C14.2721 11.1861 13.9465 11.646 13.2795 11.8236C13.0586 11.8828 12.9106 12.1309 12.9106 12.3472C12.9106 14.4348 11.2123 14.7718 10.3221 14.8082V11.3022C10.3267 11.2954 10.3358 11.2931 10.3404 11.2863L12.1548 8.94821C12.3142 8.74331 12.2777 8.44735 12.0729 8.28571C12.0637 8.27888 12.0569 8.27205 12.0478 8.2675C11.8201 8.10814 11.506 8.15367 11.333 8.36995L10.3244 9.67217V8.19465C10.3244 7.92601 10.0968 7.70746 9.81218 7.70746C9.52988 7.70746 9.29994 7.92601 9.29994 8.19465V12.3495L7.99772 11.1064C7.79283 10.9175 7.47866 10.9152 7.27376 11.1042C7.08253 11.2817 7.07114 11.58 7.24872 11.7712C7.25555 11.778 7.26238 11.7871 7.27149 11.794L9.29994 13.7336V14.7126C8.61468 14.5623 7.786 14.1799 7.51053 13.2009C7.44678 12.9892 7.251 12.8435 7.03017 12.8412C6.28116 12.823 5.02447 12.5475 5.02447 10.9106C5.02447 10.2117 5.24075 9.71087 5.68241 9.38304C5.81218 9.2897 5.88731 9.13717 5.88048 8.97553C5.87137 8.81389 5.78258 8.67046 5.64371 8.5885C5.25441 8.35401 5.06545 7.95333 5.06545 7.36369C5.06545 6.59192 5.3819 6.1457 6.06261 5.95674C6.28116 5.89755 6.42459 5.6494 6.42459 5.43312C6.42459 3.21116 8.34832 2.97211 9.17701 2.97211C9.69152 2.97211 11.4081 3.08822 11.8293 4.58167C11.893 4.7934 12.0865 4.9391 12.3051 4.94138C13.0563 4.96414 14.313 5.24644 14.313 6.87649C14.313 7.57541 14.099 8.07171 13.6574 8.39955C13.5276 8.49289 13.4525 8.64542 13.4593 8.80706C13.4661 8.96414 13.5549 9.10985 13.6915 9.1918ZM15.333 6.87649C15.333 4.97553 14.0307 4.15595 12.6966 3.99659C12.0979 2.53273 10.5179 2 9.17473 2C7.51508 2 5.58452 2.81958 5.41833 5.14855C4.5259 5.52419 4.04098 6.29824 4.04098 7.36596C4.04098 8.15367 4.30279 8.67957 4.61924 9.02561C4.28458 9.42857 4 10.0296 4 10.9129C4 12.8253 5.30222 13.6403 6.63631 13.7906C7.11212 14.9471 8.20034 15.5162 9.29767 15.7052V17.5128C9.29767 17.7814 9.5276 18 9.8099 18C10.0922 18 10.3221 17.7814 10.3221 17.5128V15.778C11.9454 15.7257 13.7553 14.8879 13.9169 12.6363C14.543 12.3722 15.2943 11.7735 15.2943 10.4166C15.2943 9.63119 15.0347 9.10757 14.716 8.75925C15.1258 8.27433 15.333 7.64371 15.333 6.87649Z" fill="#86888C"/>
</svg>
