<svg width="20" height="20" viewBox="0 0 20 20" fill="none" xmlns="http://www.w3.org/2000/svg">
<path fill-rule="evenodd" clip-rule="evenodd" d="M13.3336 16.5145V6.44367C13.3336 6.40496 13.3108 6.35942 13.2926 6.33666H6.04283C6.02462 6.3617 6.00185 6.40496 6.00185 6.44367V16.5123C6.00185 16.5578 6.02234 16.5988 6.036 16.6193L13.2971 16.6216C13.3154 16.6011 13.3336 16.5601 13.3336 16.5145ZM8.10346 3.08975V5.33708H11.232V3.08975H8.10346ZM13.3495 5.34391C13.8755 5.34391 14.3354 5.85622 14.3354 6.44139V16.5123C14.3354 17.1088 13.8846 17.612 13.3495 17.612H12.5002C12.4342 18.056 12.0471 18.0993 11.9424 18.1016H11.8877C11.7784 18.0993 11.3959 18.0583 11.3299 17.612H8.03287C7.96684 18.056 7.57976 18.0993 7.47502 18.1016H7.42038C7.31109 18.0993 6.92856 18.0583 6.86253 17.612H5.98363C5.44856 17.612 5 17.1088 5 16.5145V6.44367C5 5.8585 5.45994 5.34619 5.98363 5.34619H7.10161V2.8188C7.10161 2.42944 7.44087 2.10156 7.84161 2.10156H11.4915C11.8854 2.10156 12.2315 2.43627 12.2315 2.8188V5.34619H13.3495V5.34391ZM11.3162 14.6588V10.6674H8.01693V14.6588H11.3162ZM8.01693 8.38134V9.67691H11.3162V8.38134H8.01693ZM11.5689 7.39315C12.038 7.39315 12.3203 7.89863 12.3203 8.38589V14.6588C12.3203 15.2235 11.997 15.6516 11.5689 15.6516H7.76875C7.34069 15.6516 7.01736 15.2258 7.01736 14.6588V8.38362C7.01736 7.89635 7.29742 7.39087 7.76875 7.39087L11.5689 7.39315Z" fill="#86888C"/>
</svg>
