<svg width="28" height="28" viewBox="0 0 28 28" fill="none" xmlns="http://www.w3.org/2000/svg">
<path fill-rule="evenodd" clip-rule="evenodd" d="M19.5004 23.721V8.61473C19.5004 8.55666 19.4662 8.48836 19.4389 8.4542H8.56425C8.53693 8.49177 8.50277 8.55666 8.50277 8.61473V23.7176C8.50277 23.7859 8.53351 23.8474 8.55401 23.8781L19.4457 23.8816C19.473 23.8508 19.5004 23.7893 19.5004 23.721ZM11.6552 3.58385V6.95484H16.3479V3.58385H11.6552ZM19.5243 6.96509C20.3132 6.96509 21.0031 7.73355 21.0031 8.61131V23.7176C21.0031 24.6124 20.3269 25.3673 19.5243 25.3673H18.2503C18.1513 26.0333 17.5707 26.0981 17.4135 26.1016H17.3316C17.1676 26.0981 16.5939 26.0367 16.4948 25.3673H11.5493C11.4503 26.0333 10.8696 26.0981 10.7125 26.1016H10.6306C10.4666 26.0981 9.89284 26.0367 9.7938 25.3673H8.47545C7.67283 25.3673 7 24.6124 7 23.721V8.61473C7 7.73697 7.68991 6.9685 8.47545 6.9685H10.1524V3.17741C10.1524 2.59338 10.6613 2.10156 11.2624 2.10156H16.7373C17.3282 2.10156 17.8473 2.60363 17.8473 3.17741V6.9685H19.5243V6.96509ZM16.4743 20.9375V14.9503H11.5254V20.9375H16.4743ZM11.5254 11.5212V13.4646H16.4743V11.5212H11.5254ZM16.8534 10.0389C17.557 10.0389 17.9805 10.7972 17.9805 11.5281V20.9375C17.9805 21.7845 17.4955 22.4266 16.8534 22.4266H11.1531C10.511 22.4266 10.026 21.7879 10.026 20.9375V11.5246C10.026 10.7937 10.4461 10.0355 11.1531 10.0355L16.8534 10.0389Z" fill="#86888C"/>
</svg>
