<svg width="28" height="28" viewBox="0 0 28 28" fill="none" xmlns="http://www.w3.org/2000/svg">
<path d="M22.3749 21.357L7.10332 21.3469C5.76689 21.3469 4.73266 20.9737 4.02415 20.2406C3.3425 19.5345 3 18.5257 3 17.2378V10.0755C3 7.44592 4.45732 6 7.10332 6L22.3749 6.01009C25.0209 6.01009 26.4783 7.45601 26.4783 10.0856V17.2479C26.4783 18.5324 26.1324 19.5412 25.4541 20.2507C24.7456 20.9871 23.7114 21.357 22.3749 21.357ZM7.10332 7.33832C6.13961 7.33832 5.42774 7.57033 4.9845 8.02429C4.5547 8.46479 4.33643 9.15412 4.33643 10.0755V17.2378C4.33643 19.1276 5.2162 20.0086 7.10332 20.0086L22.3749 20.0187C24.2621 20.0187 25.1418 19.1377 25.1418 17.2479V10.0856C25.1418 9.16421 24.9236 8.47487 24.4938 8.03437C24.0505 7.58042 23.3353 7.3484 22.3749 7.3484L7.10332 7.33832Z" fill="#86888C"/>
<path d="M17.6638 24L11.801 23.9899C11.4316 23.9899 11.1328 23.6906 11.1328 23.3208C11.1328 22.9509 11.4316 22.6516 11.801 22.6516L17.6638 22.6617C18.0332 22.6617 18.3321 22.961 18.3321 23.3308C18.3321 23.7007 18.0332 24 17.6638 24Z" fill="#86888C"/>
</svg>
