<svg width="20" height="20" viewBox="0 0 20 20" fill="none" xmlns="http://www.w3.org/2000/svg">
<path d="M14.9166 14.238L4.73555 14.2313C3.84459 14.2313 3.15511 13.9824 2.68277 13.4937C2.22834 13.023 2 12.3505 2 11.4919V6.71698C2 4.96395 2.97154 4 4.73555 4L14.9166 4.00673C16.6806 4.00673 17.6522 4.97067 17.6522 6.72371V11.4986C17.6522 12.3549 17.4216 13.0275 16.9694 13.5005C16.4971 13.9914 15.8076 14.238 14.9166 14.238ZM4.73555 4.89221C4.09308 4.89221 3.6185 5.04689 3.323 5.34952C3.03646 5.64319 2.89096 6.10275 2.89096 6.71698V11.4919C2.89096 12.7517 3.47746 13.3391 4.73555 13.3391L14.9166 13.3458C16.1747 13.3458 16.7612 12.7585 16.7612 11.4986V6.72371C16.7612 6.10947 16.6157 5.64992 16.3292 5.35625C16.0337 5.05361 15.5569 4.89894 14.9166 4.89894L4.73555 4.89221Z" fill="#86888C"/>
<path d="M11.7759 16L7.86733 15.9933C7.62108 15.9933 7.42185 15.7938 7.42185 15.5472C7.42185 15.3006 7.62108 15.1011 7.86733 15.1011L11.7759 15.1078C12.0221 15.1078 12.2214 15.3073 12.2214 15.5539C12.2214 15.8005 12.0221 16 11.7759 16Z" fill="#86888C"/>
</svg>
