<svg width="24" height="24" viewBox="0 0 24 24" fill="none" xmlns="http://www.w3.org/2000/svg">
<path d="M18.2197 18.218H5.25502C4.16909 18.218 3.33525 17.8956 2.77843 17.2646C2.26317 16.6722 2 15.8181 2 14.7214V9.86374C2 8.76711 2.26317 7.91295 2.77843 7.3233C3.33525 6.68956 4.16632 6.36719 5.25502 6.36719H18.2197C19.3056 6.36719 20.1395 6.68956 20.6963 7.3233C21.2143 7.91295 21.4747 8.76711 21.4747 9.86374V14.7214C21.4747 15.8181 21.2115 16.6722 20.6963 17.2619C20.1395 17.8956 19.3056 18.218 18.2197 18.218ZM5.25502 7.47209C4.49044 7.47209 3.95578 7.66221 3.61504 8.05071C3.27985 8.43095 3.10809 9.04264 3.10809 9.86374V14.7214C3.10809 15.5425 3.27985 16.1542 3.61504 16.5372C3.95578 16.9257 4.49321 17.1159 5.25502 17.1159H18.2197C18.9815 17.1159 19.5189 16.9257 19.8597 16.5372C20.1949 16.1542 20.3666 15.5425 20.3666 14.7214V9.86374C20.3666 9.04264 20.1949 8.43095 19.8597 8.04796C19.5189 7.65945 18.9815 7.46933 18.2197 7.46933L5.25502 7.47209ZM14.7098 20.3672H8.76767C8.46295 20.3672 8.21363 20.1192 8.21363 19.8161C8.21363 19.513 8.46295 19.265 8.76767 19.265H14.7098C15.0145 19.265 15.2639 19.513 15.2639 19.8161C15.2639 20.1192 15.0145 20.3672 14.7098 20.3672Z" fill="#86888C"/>
<path d="M14.9564 9.09224C15.4273 9.09224 15.8927 9.26307 15.8927 9.26307C16.0035 9.3044 16.0063 9.37604 15.901 9.42564L15.3553 9.67913C15.2389 9.7425 15.1503 9.84996 15.117 9.97671L14.9896 10.5774C14.9702 10.7014 15.0256 10.8226 15.1337 10.886L15.6766 11.1753C15.7403 11.2056 15.8124 11.2221 15.8816 11.2194C15.9426 11.2194 16.0035 11.2084 16.0589 11.1836L16.6046 10.9301C16.6268 10.919 16.6517 10.9108 16.6767 10.9108C16.7321 10.9108 16.7542 10.9604 16.7265 11.0403C16.7265 11.0403 16.3997 11.9413 15.8401 12.203C15.6822 12.2774 15.4966 12.3022 15.311 12.3022C14.84 12.3022 14.3746 12.1314 14.3746 12.1314C14.3192 12.1121 14.261 12.1039 14.2029 12.1039C14.1253 12.1039 14.0505 12.1176 13.9785 12.1452L10.1999 13.9031C10.0808 13.9665 9.98657 14.0684 9.93393 14.1924C9.93393 14.1924 9.60705 15.0934 9.04746 15.3552C8.88956 15.4296 8.70395 15.4544 8.51835 15.4544C8.04741 15.4544 7.58201 15.2835 7.58201 15.2835C7.4712 15.2422 7.46843 15.1706 7.5737 15.1182L8.11943 14.8647C8.23578 14.8014 8.32443 14.6939 8.35767 14.5671L8.4851 13.9665C8.5045 13.8425 8.44632 13.7212 8.34105 13.6579L7.79809 13.3686C7.73437 13.3383 7.66234 13.3217 7.59309 13.3245C7.53214 13.3245 7.4712 13.3355 7.41579 13.3603L6.87006 13.6138C6.8479 13.6248 6.82297 13.6331 6.79803 13.6331C6.74263 13.6331 6.72047 13.5835 6.74817 13.5036C6.74817 13.5036 7.07506 12.6026 7.63464 12.3408C7.79255 12.2664 7.97815 12.2416 8.16376 12.2416C8.6347 12.2416 9.10009 12.4125 9.10009 12.4125C9.1555 12.4317 9.21367 12.44 9.27185 12.44C9.34941 12.44 9.42421 12.4262 9.49624 12.3987L13.2748 10.6435C13.394 10.5801 13.4881 10.4782 13.5408 10.3542C13.5408 10.3542 13.8677 9.45319 14.4272 9.19143C14.5851 9.11979 14.7708 9.09224 14.9564 9.09224ZM14.9564 8.54117C14.6655 8.54117 14.4106 8.59352 14.1945 8.69271C13.8566 8.84977 13.5546 9.15286 13.297 9.59372C13.1917 9.77006 13.1031 9.95467 13.0283 10.1475L13.02 10.1558L9.28293 11.8889H9.27185C9.1555 11.8476 8.67625 11.6933 8.16653 11.6933C7.87842 11.6933 7.62079 11.7457 7.40471 11.8448C7.06675 12.0019 6.76479 12.305 6.50716 12.7459C6.39912 12.9305 6.30493 13.1206 6.23014 13.3217C6.15257 13.5394 6.17473 13.7626 6.29662 13.9334C6.41297 14.096 6.60135 14.1924 6.8008 14.1897C6.90607 14.1897 7.01134 14.1649 7.1083 14.118L7.59586 13.8921L7.90613 14.0574L7.8341 14.4018L7.34654 14.6278C7.09168 14.7462 6.93932 14.9805 6.94763 15.2339C6.95594 15.4874 7.13046 15.7106 7.39363 15.8071C7.45181 15.8291 7.96984 16.011 8.52112 16.011C8.80922 16.011 9.06685 15.9586 9.28293 15.8594C9.61813 15.6996 9.92008 15.3965 10.1805 14.9557C10.2858 14.7793 10.3744 14.5947 10.4492 14.4018L10.4575 14.3936L14.1973 12.6604H14.2084C14.3247 12.7018 14.804 12.8561 15.3137 12.8561C15.6046 12.8561 15.8595 12.8037 16.0755 12.7045C16.4135 12.5475 16.7155 12.2444 16.9731 11.8035C17.0811 11.6189 17.1753 11.4288 17.2501 11.2276C17.3277 11.01 17.3055 10.7868 17.1836 10.616C17.0673 10.4534 16.8789 10.357 16.6794 10.3597C16.5742 10.3597 16.4689 10.3845 16.3719 10.4313L15.8844 10.6573L15.5741 10.492L15.6461 10.1475L16.1337 9.9216C16.3886 9.80312 16.5409 9.56892 16.5299 9.31267C16.5188 9.05642 16.3498 8.83599 16.0838 8.73955C16.0257 8.72302 15.5104 8.54117 14.9564 8.54117Z" fill="#86888C"/>
</svg>
