<svg width="28" height="28" viewBox="0 0 28 28" fill="none" xmlns="http://www.w3.org/2000/svg">
<path d="M21.6953 21.7575H5.95252C4.6339 21.7575 3.62138 21.366 2.94524 20.5998C2.31957 19.8805 2 18.8433 2 17.5116V11.613C2 10.2814 2.31957 9.24418 2.94524 8.52818C3.62138 7.75865 4.63053 7.36719 5.95252 7.36719H21.6953C23.014 7.36719 24.0265 7.75865 24.7026 8.52818C25.3317 9.24418 25.6479 10.2814 25.6479 11.613V17.5116C25.6479 18.8433 25.3283 19.8805 24.7026 20.5965C24.0265 21.366 23.014 21.7575 21.6953 21.7575ZM5.95252 8.70885C5.0241 8.70885 4.37488 8.93971 3.96113 9.41147C3.5541 9.87319 3.34554 10.616 3.34554 11.613V17.5116C3.34554 18.5087 3.5541 19.2515 3.96113 19.7165C4.37488 20.1883 5.02747 20.4191 5.95252 20.4191H21.6953C22.6204 20.4191 23.273 20.1883 23.6867 19.7165C24.0938 19.2515 24.3023 18.5087 24.3023 17.5116V11.613C24.3023 10.616 24.0938 9.87319 23.6867 9.40812C23.273 8.93637 22.6204 8.70551 21.6953 8.70551L5.95252 8.70885ZM17.4333 24.3672H10.2179C9.84786 24.3672 9.54512 24.0661 9.54512 23.698C9.54512 23.33 9.84786 23.0289 10.2179 23.0289H17.4333C17.8034 23.0289 18.1061 23.33 18.1061 23.698C18.1061 24.0661 17.8034 24.3672 17.4333 24.3672Z" fill="#86888C"/>
<path d="M17.7327 10.6762C18.3046 10.6762 18.8697 10.8836 18.8697 10.8836C19.0043 10.9338 19.0076 11.0208 18.8798 11.081L18.2171 11.3888C18.0758 11.4658 17.9682 11.5963 17.9278 11.7502L17.7731 12.4796C17.7495 12.6301 17.8168 12.7773 17.948 12.8543L18.6073 13.2056C18.6847 13.2424 18.7722 13.2625 18.8563 13.2591C18.9303 13.2591 19.0043 13.2458 19.0715 13.2156L19.7342 12.9078C19.7611 12.8944 19.7914 12.8844 19.8217 12.8844C19.889 12.8844 19.9159 12.9446 19.8822 13.0417C19.8822 13.0417 19.4853 14.1357 18.8058 14.4536C18.6141 14.5439 18.3887 14.574 18.1633 14.574C17.5914 14.574 17.0263 14.3666 17.0263 14.3666C16.959 14.3432 16.8884 14.3331 16.8178 14.3331C16.7236 14.3331 16.6327 14.3499 16.5453 14.3833L11.957 16.5179C11.8123 16.5949 11.698 16.7187 11.6341 16.8693C11.6341 16.8693 11.2371 17.9633 10.5576 18.2812C10.3659 18.3715 10.1405 18.4016 9.91513 18.4016C9.34328 18.4016 8.77815 18.1942 8.77815 18.1942C8.6436 18.144 8.64023 18.057 8.76806 17.9934L9.43074 17.6856C9.57202 17.6087 9.67967 17.4782 9.72003 17.3243L9.87477 16.5949C9.89832 16.4443 9.82767 16.2971 9.69985 16.2202L9.04053 15.8689C8.96317 15.8321 8.8757 15.812 8.79161 15.8153C8.7176 15.8153 8.6436 15.8287 8.57632 15.8588L7.91364 16.1666C7.88673 16.18 7.85646 16.1901 7.82618 16.1901C7.75891 16.1901 7.732 16.1298 7.76563 16.0328C7.76563 16.0328 8.16257 14.9387 8.84207 14.6209C9.03381 14.5305 9.25918 14.5004 9.48456 14.5004C10.0564 14.5004 10.6215 14.7079 10.6215 14.7079C10.6888 14.7313 10.7595 14.7413 10.8301 14.7413C10.9243 14.7413 11.0151 14.7246 11.1026 14.6911L15.6909 12.5599C15.8355 12.4829 15.9499 12.3591 16.0138 12.2086C16.0138 12.2086 16.4107 11.1145 17.0902 10.7966C17.282 10.7096 17.5073 10.6762 17.7327 10.6762ZM17.7327 10.007C17.3795 10.007 17.07 10.0706 16.8077 10.191C16.3973 10.3817 16.0306 10.7498 15.7178 11.2851C15.5899 11.4992 15.4823 11.7234 15.3915 11.9576L15.3814 11.9677L10.8436 14.0722H10.8301C10.6888 14.022 10.1069 13.8346 9.48793 13.8346C9.13809 13.8346 8.82525 13.8982 8.56287 14.0186C8.15248 14.2093 7.78582 14.5774 7.47298 15.1127C7.34179 15.3369 7.22742 15.5677 7.13659 15.812C7.04241 16.0763 7.06932 16.3473 7.21733 16.5547C7.35861 16.7521 7.58735 16.8693 7.82955 16.8659C7.95737 16.8659 8.0852 16.8358 8.20293 16.7789L8.79497 16.5046L9.17172 16.7053L9.08426 17.1235L8.49223 17.3979C8.18275 17.5418 7.99774 17.8262 8.00783 18.134C8.01792 18.4418 8.22985 18.7128 8.54941 18.8299C8.62005 18.8567 9.24909 19.0775 9.9185 19.0775C10.2683 19.0775 10.5812 19.0139 10.8436 18.8935C11.2506 18.6994 11.6172 18.3314 11.9334 17.796C12.0613 17.5819 12.1689 17.3577 12.2597 17.1235L12.2698 17.1135L16.811 15.009H16.8245C16.9658 15.0592 17.5477 15.2465 18.1667 15.2465C18.5199 15.2465 18.8293 15.183 19.0917 15.0625C19.5021 14.8718 19.8688 14.5038 20.1816 13.9684C20.3128 13.7443 20.4272 13.5134 20.518 13.2692C20.6122 13.0049 20.5853 12.7338 20.4373 12.5264C20.296 12.329 20.0672 12.2119 19.825 12.2152C19.6972 12.2152 19.5694 12.2454 19.4517 12.3022L18.8596 12.5766L18.4829 12.3758L18.5703 11.9576L19.1624 11.6833C19.4718 11.5394 19.6568 11.255 19.6434 10.9438C19.6299 10.6327 19.4247 10.365 19.1018 10.2479C19.0312 10.2278 18.4055 10.007 17.7327 10.007Z" fill="#86888C"/>
</svg>
