<svg width="20" height="20" viewBox="0 0 20 20" fill="none" xmlns="http://www.w3.org/2000/svg">
<path d="M15.9026 14.525H4.79002C3.85922 14.525 3.1445 14.2487 2.66723 13.7079C2.22558 13.2001 2 12.468 2 11.528V7.36424C2 6.42426 2.22558 5.69212 2.66723 5.18671C3.1445 4.64351 3.85685 4.36719 4.79002 4.36719H15.9026C16.8334 4.36719 17.5481 4.64351 18.0254 5.18671C18.4694 5.69212 18.6926 6.42426 18.6926 7.36424V11.528C18.6926 12.468 18.467 13.2001 18.0254 13.7055C17.5481 14.2487 16.8334 14.525 15.9026 14.525ZM4.79002 5.31424C4.13466 5.31424 3.67639 5.4772 3.38432 5.81021C3.09701 6.13613 2.94979 6.66044 2.94979 7.36424V11.528C2.94979 12.2318 3.09701 12.7561 3.38432 13.0844C3.67639 13.4174 4.13703 13.5803 4.79002 13.5803H15.9026C16.5556 13.5803 17.0162 13.4174 17.3083 13.0844C17.5956 12.7561 17.7428 12.2318 17.7428 11.528V7.36424C17.7428 6.66044 17.5956 6.13613 17.3083 5.80785C17.0162 5.47484 16.5556 5.31188 15.9026 5.31188L4.79002 5.31424ZM12.8941 16.3672H7.80086C7.53967 16.3672 7.32597 16.1546 7.32597 15.8948C7.32597 15.635 7.53967 15.4225 7.80086 15.4225H12.8941C13.1553 15.4225 13.369 15.635 13.369 15.8948C13.369 16.1546 13.1553 16.3672 12.8941 16.3672Z" fill="#86888C"/>
<path d="M13.1055 6.70295C13.5091 6.70295 13.908 6.84937 13.908 6.84937C14.003 6.8848 14.0054 6.94621 13.9152 6.98872L13.4474 7.206C13.3476 7.26032 13.2717 7.35242 13.2432 7.46106L13.1339 7.97592C13.1173 8.0822 13.1648 8.18612 13.2574 8.24044L13.7228 8.48842C13.7774 8.5144 13.8392 8.52857 13.8985 8.52621C13.9508 8.52621 14.003 8.51676 14.0505 8.49551L14.5183 8.27823C14.5373 8.26878 14.5586 8.2617 14.58 8.2617C14.6275 8.2617 14.6465 8.30421 14.6227 8.3727C14.6227 8.3727 14.3426 9.14499 13.8629 9.36935C13.7276 9.43312 13.5685 9.45437 13.4094 9.45437C13.0057 9.45437 12.6068 9.30795 12.6068 9.30795C12.5593 9.29141 12.5095 9.28433 12.4596 9.28433C12.3931 9.28433 12.329 9.29614 12.2673 9.31975L9.02847 10.8265C8.92636 10.8809 8.84563 10.9682 8.80052 11.0745C8.80052 11.0745 8.52033 11.8468 8.04068 12.0712C7.90533 12.1349 7.74624 12.1562 7.58715 12.1562C7.18349 12.1562 6.78458 12.0098 6.78458 12.0098C6.6896 11.9743 6.68722 11.9129 6.77746 11.8681L7.24523 11.6508C7.34496 11.5965 7.42094 11.5044 7.44943 11.3957L7.55866 10.8809C7.57528 10.7746 7.52542 10.6707 7.43519 10.6163L6.96979 10.3684C6.91518 10.3424 6.85344 10.3282 6.79408 10.3306C6.74184 10.3306 6.6896 10.34 6.64211 10.3613L6.17434 10.5786C6.15534 10.588 6.13397 10.5951 6.1126 10.5951C6.06511 10.5951 6.04611 10.5526 6.06986 10.4841C6.06986 10.4841 6.35005 9.7118 6.82969 9.48744C6.96504 9.42367 7.12413 9.40242 7.28322 9.40242C7.68688 9.40242 8.0858 9.54884 8.0858 9.54884C8.13329 9.56538 8.18315 9.57246 8.23301 9.57246C8.2995 9.57246 8.36361 9.56065 8.42535 9.53703L11.6641 8.03261C11.7662 7.97829 11.847 7.8909 11.8921 7.78462C11.8921 7.78462 12.1723 7.01233 12.6519 6.78797C12.7873 6.72656 12.9464 6.70295 13.1055 6.70295ZM13.1055 6.2306C12.8561 6.2306 12.6377 6.27547 12.4525 6.36049C12.1628 6.49511 11.904 6.7549 11.6831 7.13278C11.5929 7.28393 11.5169 7.44217 11.4528 7.60749L11.4457 7.61458L8.24251 9.10011H8.23301C8.13328 9.06469 7.7225 8.93243 7.28559 8.93243C7.03865 8.93243 6.81782 8.9773 6.63261 9.06233C6.34293 9.19694 6.08411 9.45674 5.86328 9.83461C5.77067 9.99285 5.68994 10.1558 5.62583 10.3282C5.55935 10.5148 5.57834 10.7061 5.68282 10.8525C5.78255 10.9919 5.94401 11.0745 6.11497 11.0722C6.2052 11.0722 6.29543 11.0509 6.37854 11.0108L6.79645 10.8171L7.06239 10.9588L7.00066 11.254L6.58275 11.4477C6.3643 11.5492 6.2337 11.75 6.24082 11.9673C6.24795 12.1845 6.39754 12.3758 6.62311 12.4585C6.67298 12.4774 7.11701 12.6333 7.58953 12.6333C7.83647 12.6333 8.0573 12.5884 8.24251 12.5034C8.52982 12.3664 8.78864 12.1066 9.01184 11.7287C9.10207 11.5776 9.17806 11.4193 9.24217 11.254L9.24929 11.2469L12.4548 9.7614H12.4643C12.5641 9.79683 12.9749 9.92908 13.4118 9.92908C13.6611 9.92908 13.8795 9.88421 14.0647 9.79919C14.3544 9.66457 14.6132 9.40478 14.8341 9.0269C14.9267 8.86866 15.0074 8.7057 15.0715 8.5333C15.138 8.34672 15.119 8.15542 15.0145 8.00899C14.9148 7.86965 14.7533 7.78698 14.5824 7.78935C14.4922 7.78935 14.4019 7.8106 14.3188 7.85075L13.9009 8.04441L13.635 7.90271L13.6967 7.60749L14.1146 7.41383C14.3331 7.31228 14.4637 7.11153 14.4542 6.89189C14.4447 6.67224 14.2998 6.4833 14.0719 6.40064C14.022 6.38647 13.5803 6.2306 13.1055 6.2306Z" fill="#86888C"/>
</svg>
