<svg width="28" height="28" viewBox="0 0 28 28" fill="none" xmlns="http://www.w3.org/2000/svg">
<path fill-rule="evenodd" clip-rule="evenodd" d="M24.3384 13.1344C24.2462 13.2403 24.1301 13.2642 24.0516 13.2642L21.8424 13.2574C21.1083 9.14298 19.2406 6.72215 17.5164 5.33248C19.3362 5.77294 20.8352 6.5685 21.9756 7.73282C23.2287 9.01323 24.0482 10.7375 24.4101 12.8613C24.4237 12.9569 24.393 13.0662 24.3384 13.1344ZM14.7814 5.36662C16.3555 6.09731 19.3055 8.1289 20.3094 13.2574L14.7814 13.2437V5.36662ZM7.53599 13.2232C8.5091 8.26889 11.6879 6.12804 13.2688 5.35638V13.2403L7.53599 13.2232ZM3.61282 13.1549C3.59916 13.1447 3.56502 13.1208 3.52746 13.0798C3.45575 12.991 3.42502 12.8886 3.4421 12.793C3.81768 10.6761 4.6508 8.9586 5.92097 7.68843C7.1126 6.48656 8.69007 5.68075 10.6124 5.26761C8.7925 6.67776 6.7336 9.13274 6.00633 13.2164L3.81768 13.2096C3.74939 13.2096 3.66745 13.1891 3.61282 13.1549ZM25.8954 12.6086C25.4822 10.1912 24.5262 8.2006 23.058 6.70166C21.1015 4.70423 18.3222 3.62527 14.7814 3.4682V2.74434C14.7814 2.33461 14.4434 2 14.0268 2C13.6103 2 13.2722 2.33461 13.2722 2.74434V3.4682C9.67342 3.57405 6.83262 4.63935 4.84542 6.64703C3.36015 8.13572 2.38704 10.1161 1.95682 12.5335C1.86463 13.0525 2.00804 13.592 2.37679 14.0427C2.5202 14.2032 2.66361 14.3261 2.81726 14.4183C3.10748 14.5958 3.45575 14.6982 3.81085 14.7017L13.2722 14.729V23.2787C13.2722 23.2958 13.2722 23.3128 13.2756 23.3299C13.3064 24.8084 14.539 26 16.0447 26C17.571 26 18.8138 24.7742 18.8138 23.2685C18.8138 22.8587 18.4758 22.5241 18.0593 22.5241C17.6427 22.5241 17.3047 22.8587 17.3047 23.2685C17.3047 23.9513 16.7379 24.5079 16.0447 24.5079C15.3516 24.5079 14.7848 23.9513 14.7848 23.2685V14.7324L24.055 14.7563C24.615 14.7529 25.1442 14.5139 25.5129 14.0768C25.8476 13.6534 25.9876 13.1174 25.8954 12.6086Z" fill="#86888C"/>
</svg>
