<svg width="40" height="40" viewBox="0 0 40 40" fill="none" xmlns="http://www.w3.org/2000/svg">
<path fill-rule="evenodd" clip-rule="evenodd" d="M35.5427 19.7017C35.4044 19.8604 35.2303 19.8963 35.1125 19.8963L31.7988 19.886C30.6977 13.7145 27.8961 10.0832 25.3097 7.99872C28.0395 8.65941 30.2879 9.85275 31.9986 11.5992C33.8782 13.5198 35.1074 16.1063 35.6503 19.2919C35.6708 19.4353 35.6247 19.5992 35.5427 19.7017ZM21.2073 8.04994C23.5683 9.14597 27.9934 12.1933 29.4992 19.886L21.2073 19.8656V8.04994ZM10.3391 19.8348C11.7988 12.4033 16.5671 9.19206 18.9384 8.03457V19.8604L10.3391 19.8348ZM4.45438 19.7324C4.4339 19.717 4.38268 19.6812 4.32634 19.6197C4.21879 19.4866 4.17269 19.3329 4.1983 19.1895C4.76168 16.0141 6.01136 13.4379 7.91661 11.5326C9.70406 9.72983 12.0703 8.52113 14.9537 7.90141C12.2239 10.0166 9.13556 13.6991 8.04465 19.8246L4.76168 19.8143C4.65925 19.8143 4.53633 19.7836 4.45438 19.7324ZM37.8782 18.9129C37.2585 15.2868 35.8244 12.3009 33.6221 10.0525C30.6874 7.05634 26.5184 5.4379 21.2073 5.2023V4.11652C21.2073 3.50192 20.7002 3 20.0754 3C19.4505 3 18.9435 3.50192 18.9435 4.11652V5.2023C13.5453 5.36108 9.28409 6.95903 6.30329 9.97055C4.07538 12.2036 2.61571 15.1741 1.97039 18.8003C1.8321 19.5787 2.04721 20.388 2.60035 21.064C2.81546 21.3047 3.03057 21.4891 3.26104 21.6274C3.69638 21.8937 4.21879 22.0474 4.75144 22.0525L18.9435 22.0935V34.9181C18.9435 34.9437 18.9435 34.9693 18.9486 34.9949C18.9947 37.2125 20.8436 39 23.1023 39C25.3916 39 27.2559 37.1613 27.2559 34.9027C27.2559 34.2881 26.7489 33.7862 26.124 33.7862C25.4992 33.7862 24.9922 34.2881 24.9922 34.9027C24.9922 35.927 24.142 36.7618 23.1023 36.7618C22.0626 36.7618 21.2124 35.927 21.2124 34.9027V22.0986L35.1176 22.1344C35.9576 22.1293 36.7514 21.7708 37.3046 21.1152C37.8065 20.4802 38.0165 19.6761 37.8782 18.9129Z" fill="#86888C"/>
</svg>
