<svg width="20" height="20" viewBox="0 0 20 20" fill="none" xmlns="http://www.w3.org/2000/svg">
<path fill-rule="evenodd" clip-rule="evenodd" d="M16.8688 9.42296C16.8074 9.49353 16.73 9.50946 16.6776 9.50946L15.2049 9.50491C14.7155 6.76199 13.4703 5.1481 12.3208 4.22165C13.5341 4.51529 14.5333 5.04567 15.2936 5.82188C16.129 6.67549 16.6753 7.82501 16.9166 9.24086C16.9257 9.30459 16.9052 9.37744 16.8688 9.42296ZM10.4975 4.24442C11.5469 4.73154 13.5136 6.08593 14.1828 9.50491L10.4975 9.4958V4.24442ZM5.66722 9.48215C6.31596 6.17926 8.43519 4.75203 9.4891 4.23759V9.49353L5.66722 9.48215ZM3.05177 9.43662C3.04267 9.42979 3.01991 9.41386 2.99487 9.38654C2.94706 9.32736 2.92658 9.25907 2.93796 9.19533C3.18835 7.78404 3.74376 6.63907 4.59054 5.79229C5.38496 4.99104 6.43661 4.45383 7.71816 4.1784C6.5049 5.11851 5.1323 6.75516 4.64745 9.47759L3.18835 9.47304C3.14283 9.47304 3.08819 9.45938 3.05177 9.43662ZM17.9068 9.07241C17.6314 7.46081 16.994 6.13373 16.0152 5.13444C14.7109 3.80282 12.858 3.08351 10.4975 2.9788V2.49623C10.4975 2.22308 10.2721 2 9.99444 2C9.71673 2 9.49138 2.22308 9.49138 2.49623V2.9788C7.09218 3.04937 5.19831 3.75957 3.87351 5.09802C2.88333 6.09048 2.23459 7.41073 1.94778 9.02234C1.88632 9.36833 1.98192 9.72798 2.22776 10.0285C2.32336 10.1354 2.41897 10.2174 2.5214 10.2788C2.71488 10.3972 2.94706 10.4655 3.1838 10.4678L9.49138 10.486V16.1858C9.49138 16.1972 9.49138 16.2086 9.49366 16.2199C9.51414 17.2056 10.3359 18 11.3397 18C12.3572 18 13.1858 17.1828 13.1858 16.179C13.1858 15.9058 12.9604 15.6827 12.6827 15.6827C12.405 15.6827 12.1797 15.9058 12.1797 16.179C12.1797 16.6342 11.8018 17.0053 11.3397 17.0053C10.8776 17.0053 10.4998 16.6342 10.4998 16.179V10.4883L16.6799 10.5042C17.0532 10.5019 17.406 10.3426 17.6519 10.0512C17.8749 9.76896 17.9683 9.41158 17.9068 9.07241Z" fill="#86888C"/>
</svg>
