<svg width="40" height="40" viewBox="0 0 40 40" fill="none" xmlns="http://www.w3.org/2000/svg">
<path fill-rule="evenodd" clip-rule="evenodd" d="M31.22 18.5401C31.2251 18.4428 31.2965 17.2186 30.5266 16.3836C29.9809 15.7894 29.0988 15.4923 27.9107 15.4923C23.2959 15.4923 12.5621 15.5077 12.0063 15.5077H11.9553C11.9298 15.5077 11.8992 15.5077 11.8737 15.5026C11.8686 15.5026 11.8125 15.4974 11.7258 15.4974C11.3281 15.4974 10.2165 15.564 9.472 16.2658C8.95188 16.7575 8.68673 17.5208 8.68673 18.5299V32.7649C8.68163 32.8469 8.62554 34.0814 9.40571 34.9215C9.94623 35.5054 10.808 35.8025 11.9706 35.8025L27.9158 35.7923C28.0025 35.7923 29.5169 35.8793 30.445 34.988C30.9702 34.4809 31.2251 33.7433 31.2251 32.7342C31.2149 28.0524 31.22 18.5401 31.22 18.5401ZM33.3821 18.6323C33.3872 18.6323 33.3821 28.0729 33.3872 32.7291C33.3872 34.3682 32.8926 35.6693 31.9084 36.6016C30.2818 38.1485 27.9311 37.9949 27.8342 37.9898L11.9655 38C10.1706 38 8.76831 37.4622 7.79947 36.4018C6.38189 34.8497 6.51447 32.7649 6.51957 32.6779L6.51447 18.5248C6.51447 16.8702 7.01929 15.5589 8.00853 14.6318C8.93149 13.7661 10.0839 13.4536 10.9202 13.346V11.169C10.9202 4.46898 15.3616 2.04098 19.5174 2C19.7826 2 20.063 2.00512 20.3078 2.00512C23.6528 2.08708 27.6149 3.82869 28.6857 8.47467C28.8234 9.06887 28.4614 9.66306 27.8801 9.80137C27.3039 9.93967 26.7175 9.57598 26.5747 8.98179C25.5803 4.66875 21.4857 4.23847 20.2517 4.20774C20.0324 4.20262 19.7724 4.20262 19.5327 4.20262C17.595 4.21799 13.0822 4.93512 13.0822 11.1639V13.2948C16.0398 13.2897 24.0761 13.2795 27.9005 13.2795C29.7311 13.2795 31.1538 13.8224 32.1277 14.8981C33.5402 16.4604 33.3872 18.535 33.3821 18.6323ZM19.8794 28.0831C22.3475 28.037 22.3475 26.1161 22.3475 25.3939C22.3475 24.7382 22.3475 22.7405 19.8438 22.679C19.7469 22.679 19.6398 22.6739 19.5378 22.6739H19.4613C17.0392 22.6995 17.0392 24.6357 17.0392 25.3631C17.0392 26.0956 17.0392 28.0524 19.5072 28.0831H19.8794ZM19.8947 20.4764C20.8381 20.502 24.5146 20.881 24.5146 25.3939C24.5146 29.922 20.833 30.2703 19.91 30.2908H19.4664C18.4976 30.2755 14.8618 29.922 14.8618 25.3631C14.8618 20.8196 18.4619 20.4764 19.4307 20.4713H19.5276C19.6551 20.4713 19.7826 20.4713 19.8947 20.4764Z" fill="#86888C"/>
</svg>
