<svg width="24" height="24" viewBox="0 0 24 24" fill="none" xmlns="http://www.w3.org/2000/svg">
<path fill-rule="evenodd" clip-rule="evenodd" d="M18.2397 11.189C18.2425 11.1349 18.2821 10.4548 17.8544 9.99089C17.5513 9.66079 17.0612 9.49573 16.4011 9.49573C13.8374 9.49573 7.87413 9.50427 7.56535 9.50427H7.53702C7.52286 9.50427 7.50586 9.50427 7.49169 9.50142C7.48886 9.50142 7.4577 9.49858 7.40954 9.49858C7.18858 9.49858 6.57101 9.53557 6.15741 9.92544C5.86845 10.1986 5.72114 10.6227 5.72114 11.1833V19.0916C5.71831 19.1372 5.68715 19.823 6.12058 20.2897C6.42086 20.6141 6.89962 20.7792 7.54552 20.7792L16.4039 20.7735C16.4521 20.7735 17.2935 20.8219 17.8091 20.3267C18.1008 20.045 18.2425 19.6352 18.2425 19.0746C18.2368 16.4735 18.2397 11.189 18.2397 11.189ZM19.4408 11.2402C19.4436 11.2402 19.4408 16.4849 19.4436 19.0717C19.4436 19.9824 19.1688 20.7052 18.6221 21.2231C17.7184 22.0825 16.4124 21.9972 16.3586 21.9943L7.54269 22C6.54551 22 5.76647 21.7012 5.22822 21.1121C4.44068 20.2499 4.51433 19.0916 4.51717 19.0433L4.51433 11.1804C4.51433 10.2612 4.79479 9.53273 5.34437 9.01764C5.85712 8.53671 6.49735 8.36312 6.96194 8.30336V7.09391C6.96194 3.37166 9.42939 2.02277 11.7382 2C11.8855 2 12.0413 2.00285 12.1773 2.00285C14.0357 2.04838 16.2368 3.01594 16.8317 5.59704C16.9082 5.92715 16.7071 6.25726 16.3841 6.33409C16.064 6.41093 15.7382 6.20888 15.6589 5.87877C15.1065 3.48264 12.8317 3.2436 12.1461 3.22652C12.0243 3.22368 11.8798 3.22368 11.7467 3.22368C10.6702 3.23221 8.16309 3.63062 8.16309 7.09106V8.2749C9.80616 8.27205 14.2708 8.26636 16.3954 8.26636C17.4124 8.26636 18.2028 8.56801 18.7439 9.16562C19.5286 10.0336 19.4436 11.1861 19.4408 11.2402ZM11.9393 16.4906C13.3104 16.465 13.3104 15.3978 13.3104 14.9966C13.3104 14.6323 13.3104 13.5225 11.9195 13.4883C11.8657 13.4883 11.8062 13.4855 11.7495 13.4855H11.707C10.3614 13.4997 10.3614 14.5754 10.3614 14.9795C10.3614 15.3865 10.3614 16.4735 11.7325 16.4906H11.9393ZM11.9478 12.2647C12.4719 12.2789 14.5144 12.4895 14.5144 14.9966C14.5144 17.5122 12.4691 17.7057 11.9563 17.7171H11.7099C11.1716 17.7086 9.15176 17.5122 9.15176 14.9795C9.15176 12.4553 11.1518 12.2647 11.69 12.2618H11.7439C11.8147 12.2618 11.8855 12.2618 11.9478 12.2647Z" fill="#86888C"/>
</svg>
