<svg width="20" height="20" viewBox="0 0 20 20" fill="none" xmlns="http://www.w3.org/2000/svg">
<path fill-rule="evenodd" clip-rule="evenodd" d="M15.4946 9.35117C15.4968 9.30791 15.5285 8.7638 15.1863 8.39271C14.9438 8.12863 14.5518 7.99659 14.0237 7.99659C11.9727 7.99659 7.20214 8.00342 6.95511 8.00342H6.93245C6.92112 8.00342 6.90752 8.00342 6.89619 8.00114C6.89392 8.00114 6.86899 7.99886 6.83046 7.99886C6.65369 7.99886 6.15964 8.02846 5.82876 8.34035C5.59759 8.55891 5.47975 8.89812 5.47975 9.34661V15.6733C5.47748 15.7097 5.45255 16.2584 5.79929 16.6318C6.03952 16.8913 6.42253 17.0233 6.93925 17.0233L14.026 17.0188C14.0645 17.0188 14.7376 17.0575 15.1501 16.6614C15.3835 16.436 15.4968 16.1081 15.4968 15.6596C15.4923 13.5788 15.4946 9.35117 15.4946 9.35117ZM16.4555 9.39215C16.4577 9.39215 16.4555 13.5879 16.4577 15.6574C16.4577 16.3859 16.2379 16.9641 15.8005 17.3785C15.0776 18.066 14.0328 17.9977 13.9897 17.9954L6.93698 18C6.13924 18 5.51601 17.761 5.08541 17.2897C4.45537 16.5999 4.5143 15.6733 4.51656 15.6346L4.5143 9.34434C4.5143 8.60899 4.73866 8.02618 5.17833 7.61412C5.58853 7.22937 6.10071 7.0905 6.47239 7.04269V6.07513C6.47239 3.09732 8.44634 2.01821 10.2934 2C10.4112 2 10.5359 2.00228 10.6447 2.00228C12.1314 2.0387 13.8923 2.81275 14.3682 4.87763C14.4294 5.14172 14.2685 5.40581 14.0101 5.46727C13.754 5.52874 13.4934 5.3671 13.4299 5.10302C12.988 3.18611 11.1682 2.99488 10.6197 2.98122C10.5223 2.97894 10.4067 2.97894 10.3002 2.97894C9.43898 2.98577 7.4333 3.3045 7.4333 6.07285V7.01992C8.74776 7.01764 12.3195 7.01309 14.0192 7.01309C14.8328 7.01309 15.4651 7.25441 15.898 7.7325C16.5257 8.42686 16.4577 9.34889 16.4555 9.39215ZM10.4543 13.5925C11.5512 13.572 11.5512 12.7183 11.5512 12.3973C11.5512 12.1059 11.5512 11.218 10.4384 11.1907C10.3954 11.1907 10.3478 11.1884 10.3024 11.1884H10.2685C9.19196 11.1998 9.19196 12.0603 9.19196 12.3836C9.19196 12.7092 9.19196 13.5788 10.2888 13.5925H10.4543ZM10.4611 10.2117C10.8804 10.2231 12.5144 10.3916 12.5144 12.3973C12.5144 14.4098 10.8781 14.5646 10.4679 14.5737H10.2707C9.84012 14.5669 8.22424 14.4098 8.22424 12.3836C8.22424 10.3643 9.82426 10.2117 10.2549 10.2094H10.2979C10.3546 10.2094 10.4112 10.2094 10.4611 10.2117Z" fill="#86888C"/>
</svg>
