<svg width="28" height="28" viewBox="0 0 28 28" fill="none" xmlns="http://www.w3.org/2000/svg">
<path fill-rule="evenodd" clip-rule="evenodd" d="M21.9848 13.0267C21.9881 12.9619 22.0357 12.1457 21.5224 11.5891C21.1587 11.1929 20.5706 10.9949 19.7785 10.9949C16.702 10.9949 9.54613 11.0051 9.17559 11.0051H9.14159C9.12459 11.0051 9.1042 11.0051 9.0872 11.0017C9.0838 11.0017 9.04641 10.9983 8.98862 10.9983C8.72346 10.9983 7.98238 11.0427 7.48605 11.5105C7.13931 11.8384 6.96254 12.3472 6.96254 13.0199V22.51C6.95914 22.5646 6.92174 23.3876 7.44186 23.9476C7.8022 24.3369 8.37671 24.535 9.15179 24.535L19.7819 24.5282C19.8397 24.5282 20.8493 24.5862 21.468 23.992C21.8182 23.654 21.9881 23.1622 21.9881 22.4895C21.9813 19.3682 21.9848 13.0267 21.9848 13.0267ZM23.4261 13.0882C23.4295 13.0882 23.4261 19.3819 23.4295 22.4861C23.4295 23.5788 23.0998 24.4462 22.4437 25.0677C21.3593 26.099 19.7921 25.9966 19.7275 25.9932L9.14839 26C7.95178 26 7.01693 25.6414 6.37103 24.9345C5.42598 23.8998 5.51437 22.51 5.51777 22.4519L5.51437 13.0165C5.51437 11.9135 5.85091 11.0393 6.51041 10.4212C7.12571 9.84405 7.89399 9.63574 8.4515 9.56403V8.11269C8.4515 3.64599 11.4124 2.02732 14.183 2C14.3598 2 14.5467 2.00341 14.7099 2.00341C16.94 2.05805 19.5813 3.21912 20.2952 6.31645C20.387 6.71258 20.1456 7.10871 19.7581 7.20091C19.374 7.29311 18.983 7.05065 18.8878 6.65452C18.2249 3.77917 15.4952 3.49232 14.6725 3.47183C14.5263 3.46841 14.353 3.46841 14.1932 3.46841C12.9014 3.47866 9.89287 3.95674 9.89287 8.10928V9.52988C11.8646 9.52647 17.2221 9.51964 19.7717 9.51964C20.9921 9.51964 21.9406 9.88162 22.5899 10.5987C23.5315 11.6403 23.4295 13.0233 23.4261 13.0882ZM14.4244 19.3887C16.0697 19.358 16.0697 18.0774 16.0697 17.5959C16.0697 17.1588 16.0697 15.827 14.4006 15.786C14.336 15.786 14.2646 15.7826 14.1966 15.7826H14.1456C12.5309 15.7997 12.5309 17.0905 12.5309 17.5754C12.5309 18.0637 12.5309 19.3682 14.1762 19.3887H14.4244ZM14.4345 14.3176C15.0634 14.3347 17.5145 14.5874 17.5145 17.5959C17.5145 20.6147 15.0601 20.8469 14.4447 20.8606H14.149C13.5031 20.8503 11.0793 20.6147 11.0793 17.5754C11.0793 14.5464 13.4793 14.3176 14.1252 14.3142H14.1898C14.2748 14.3142 14.3598 14.3142 14.4345 14.3176Z" fill="#86888C"/>
</svg>
