<svg width="24" height="24" viewBox="0 0 24 24" fill="none" xmlns="http://www.w3.org/2000/svg">
<path fill-rule="evenodd" clip-rule="evenodd" d="M14.5005 20.985C15.7243 20.985 16.5127 20.5296 16.877 19.6501H6.45154C6.56254 19.9205 6.7077 20.1567 6.89839 20.3446C7.33955 20.7715 7.99132 20.9878 8.84232 20.9878H14.5005V20.985ZM7.97993 3.64328V6.61468C7.97993 6.73991 8.07955 6.84237 8.20478 6.84237H15.0555C15.1807 6.84237 15.2803 6.73991 15.2803 6.61468V3.64328C15.2803 3.51805 15.1807 3.41844 15.0555 3.41844H8.20478C8.0824 3.41844 7.97993 3.5209 7.97993 3.64328ZM17.0421 9.49215C16.8827 8.68384 16.4587 8.13738 15.7727 7.86415C15.5621 7.98653 15.3173 8.06338 15.0555 8.06338H8.20478C7.96286 8.06338 7.73516 7.99792 7.53593 7.88976C7.29686 7.99222 7.0777 8.11746 6.90124 8.28538C6.59385 8.58138 6.39747 8.99407 6.295 9.49215H17.0421ZM6.21247 18.338C6.21247 18.3693 6.21816 18.3978 6.21816 18.432H17.1047C17.1047 18.4007 17.1104 18.3722 17.1104 18.3409L17.119 10.7132H6.21247V18.338ZM16.4757 6.83384C17.6797 7.42584 18.3343 8.62977 18.3343 10.2862L18.3257 18.338C18.3257 20.7573 16.8941 22.2031 14.5005 22.2031H8.84517C7.66686 22.2031 6.73047 21.873 6.05593 21.2184C5.35577 20.5381 5 19.5704 5 18.338V10.2862C5 9.05384 5.35577 8.08615 6.06447 7.40591C6.27793 7.19814 6.52839 7.03307 6.79593 6.89076C6.77885 6.80253 6.76747 6.71145 6.76747 6.61753V3.64613C6.76747 2.8492 7.41355 2.20312 8.20763 2.20312H15.0583C15.8524 2.20312 16.4985 2.85205 16.4985 3.64613V6.61753C16.4985 6.69153 16.4871 6.76268 16.4757 6.83384ZM9.03017 6.27883C8.69432 6.27883 8.42394 6.0056 8.42394 5.66975V4.61098C8.42394 4.27513 8.69717 4.0019 9.03017 4.0019C9.36317 4.0019 9.6364 4.27513 9.6364 4.61098V5.66975C9.63925 6.0056 9.36602 6.27883 9.03017 6.27883ZM10.7663 6.27883C10.4305 6.27883 10.1601 6.0056 10.1601 5.66975V4.61098C10.1601 4.27513 10.4333 4.0019 10.7663 4.0019C11.1022 4.0019 11.3726 4.27513 11.3726 4.61098V5.66975C11.3726 6.0056 11.1022 6.27883 10.7663 6.27883ZM12.4996 6.27883C12.1638 6.27883 11.8934 6.0056 11.8934 5.66975V4.61098C11.8934 4.27513 12.1666 4.0019 12.4996 4.0019C12.8326 4.0019 13.1059 4.27513 13.1059 4.61098V5.66975C13.1087 6.0056 12.8355 6.27883 12.4996 6.27883ZM14.233 6.27883C13.8971 6.27883 13.6267 6.0056 13.6267 5.66975V4.61098C13.6267 4.27513 13.9 4.0019 14.233 4.0019C14.5688 4.0019 14.8392 4.27513 14.8392 4.61098V5.66975C14.842 6.0056 14.5688 6.27883 14.233 6.27883ZM13.1656 16.4311C13.826 16.0213 14.1618 15.3069 14.1618 14.3107C14.1618 12.0879 12.4883 11.8089 11.771 11.7919C11.6885 11.789 11.6003 11.789 11.5177 11.789H11.5035C10.7976 11.7919 9.15255 12.0452 9.15255 14.2936C9.15255 15.3069 9.4884 16.0241 10.1459 16.4311L10.3394 16.5506V16.989C10.3394 17.1398 10.3707 17.2423 10.4362 17.2992C10.5102 17.3675 10.6354 17.3988 10.8005 17.3988H12.5224C12.6391 17.3988 12.7928 17.3817 12.881 17.302C12.9607 17.2309 12.975 17.0914 12.975 16.989V16.5478L13.1656 16.4311ZM11.7966 10.9807C12.3203 10.9921 14.973 11.2084 14.973 14.3107C14.973 15.7651 14.3667 16.562 13.7861 16.9918C13.7861 17.4813 13.5897 17.7603 13.4246 17.9054C13.2026 18.1075 12.8981 18.2128 12.5224 18.2128H10.8005C10.4219 18.2128 10.1174 18.1075 9.8954 17.9026C9.73317 17.7603 9.53109 17.4785 9.53109 16.9946C8.95048 16.5677 8.34424 15.7679 8.34424 14.2965C8.34424 11.1543 10.9741 10.9807 11.5006 10.9779C11.6173 10.9551 11.7027 10.9779 11.7966 10.9807ZM11.2359 15.0792C11.1563 15.1589 11.0538 15.1987 10.9485 15.1987C10.846 15.1987 10.7407 15.1589 10.6639 15.0792L10.4276 14.8429L10.1914 15.0792C10.1117 15.1589 10.0093 15.1987 9.90394 15.1987C9.80148 15.1987 9.69617 15.1589 9.61933 15.0792C9.46279 14.9198 9.46279 14.6636 9.61933 14.5042L9.85556 14.268L9.61933 14.0318C9.46279 13.8724 9.46279 13.6162 9.61933 13.4569C9.77586 13.2975 10.0349 13.2975 10.1914 13.4569L10.4276 13.6931L10.6639 13.4569C10.8204 13.2975 11.0794 13.2975 11.2359 13.4569C11.3925 13.6162 11.3925 13.8724 11.2359 14.0318L10.9997 14.268L11.2359 14.5042C11.3953 14.6636 11.3953 14.9198 11.2359 15.0792ZM13.4901 14.268L13.7263 14.5042C13.8829 14.6636 13.8829 14.9198 13.7263 15.0792C13.6466 15.1589 13.5442 15.1987 13.4389 15.1987C13.3364 15.1987 13.2311 15.1589 13.1543 15.0792L12.918 14.8429L12.6818 15.0792C12.6021 15.1589 12.4996 15.1987 12.3943 15.1987C12.2919 15.1987 12.1866 15.1589 12.1097 15.0792C11.9532 14.9198 11.9532 14.6636 12.1097 14.5042L12.346 14.268L12.1097 14.0318C11.9532 13.8724 11.9532 13.6162 12.1097 13.4569C12.2663 13.2975 12.5253 13.2975 12.6818 13.4569L12.918 13.6931L13.1543 13.4569C13.3108 13.2975 13.5698 13.2975 13.7263 13.4569C13.8829 13.6162 13.8829 13.8724 13.7263 14.0318L13.4901 14.268ZM12.2406 15.6626L12.363 15.9501C12.4513 16.1579 12.3545 16.3941 12.1496 16.4823C12.0983 16.5051 12.0443 16.5136 11.9902 16.5136C11.845 16.5136 11.7113 16.4283 11.6401 16.2916C11.5689 16.4283 11.4352 16.5136 11.29 16.5136C11.2388 16.5136 11.1819 16.5023 11.1335 16.4823C10.9286 16.3941 10.8318 16.155 10.92 15.9501L11.0424 15.6626C11.1278 15.4549 11.3697 15.3581 11.5718 15.4463C11.6003 15.4577 11.6202 15.4776 11.6429 15.4947C11.6657 15.4776 11.6856 15.4577 11.7141 15.4463C11.9162 15.3581 12.1553 15.4577 12.2406 15.6626Z" fill="#86888C"/>
</svg>
