<svg width="40" height="40" viewBox="0 0 40 40" fill="none" xmlns="http://www.w3.org/2000/svg">
<path fill-rule="evenodd" clip-rule="evenodd" d="M25.1009 36.0104C27.3038 36.0104 28.7229 35.1907 29.3787 33.6077H10.6128C10.8126 34.0944 11.0739 34.5196 11.4171 34.8577C12.2112 35.6262 13.3844 36.0156 14.9162 36.0156H25.1009V36.0104ZM13.3639 4.79541V10.1439C13.3639 10.3693 13.5432 10.5538 13.7686 10.5538H26.0999C26.3253 10.5538 26.5046 10.3693 26.5046 10.1439V4.79541C26.5046 4.57 26.3253 4.39069 26.0999 4.39069H13.7686C13.5483 4.39069 13.3639 4.57512 13.3639 4.79541ZM29.6758 15.3234C29.3889 13.8684 28.6256 12.8848 27.3909 12.393C27.0118 12.6133 26.5712 12.7516 26.0999 12.7516H13.7686C13.3331 12.7516 12.9233 12.6337 12.5647 12.4391C12.1343 12.6235 11.7399 12.8489 11.4222 13.1512C10.8689 13.684 10.5154 14.4268 10.331 15.3234H29.6758ZM10.1824 31.246C10.1824 31.3023 10.1927 31.3535 10.1927 31.415H29.7885C29.7885 31.3587 29.7988 31.3074 29.7988 31.2511L29.8141 17.5212H10.1824V31.246ZM28.6563 10.5384C30.8234 11.604 32.0017 13.7711 32.0017 16.7527L31.9863 31.246C31.9863 35.6006 29.4094 38.2031 25.1009 38.2031H14.9213C12.8003 38.2031 11.1148 37.6088 9.90067 36.4305C8.64039 35.2061 8 33.4643 8 31.246V16.7527C8 14.5344 8.64039 12.7926 9.91604 11.5681C10.3003 11.1942 10.7511 10.897 11.2327 10.6409C11.2019 10.482 11.1814 10.3181 11.1814 10.149V4.80053C11.1814 3.36607 12.3444 2.20312 13.7737 2.20312H26.105C27.5344 2.20312 28.6973 3.37119 28.6973 4.80053V10.149C28.6973 10.2822 28.6768 10.4103 28.6563 10.5384ZM15.2543 9.5394C14.6498 9.5394 14.1631 9.04758 14.1631 8.44306V6.53726C14.1631 5.93274 14.6549 5.44092 15.2543 5.44092C15.8537 5.44092 16.3455 5.93274 16.3455 6.53726V8.44306C16.3506 9.04758 15.8588 9.5394 15.2543 9.5394ZM18.3794 9.5394C17.7749 9.5394 17.2882 9.04758 17.2882 8.44306V6.53726C17.2882 5.93274 17.78 5.44092 18.3794 5.44092C18.9839 5.44092 19.4706 5.93274 19.4706 6.53726V8.44306C19.4706 9.04758 18.9839 9.5394 18.3794 9.5394ZM21.4994 9.5394C20.8948 9.5394 20.4081 9.04758 20.4081 8.44306V6.53726C20.4081 5.93274 20.9 5.44092 21.4994 5.44092C22.0988 5.44092 22.5906 5.93274 22.5906 6.53726V8.44306C22.5957 9.04758 22.1039 9.5394 21.4994 9.5394ZM24.6193 9.5394C24.0148 9.5394 23.5281 9.04758 23.5281 8.44306V6.53726C23.5281 5.93274 24.0199 5.44092 24.6193 5.44092C25.2239 5.44092 25.7105 5.93274 25.7105 6.53726V8.44306C25.7157 9.04758 25.2239 9.5394 24.6193 9.5394ZM22.6982 27.8135C23.8867 27.0758 24.4912 25.7899 24.4912 23.9968C24.4912 19.9956 21.4789 19.4936 20.1878 19.4628C20.0393 19.4577 19.8805 19.4577 19.7319 19.4577H19.7063C18.4357 19.4628 15.4746 19.9188 15.4746 23.966C15.4746 25.7899 16.0791 27.0809 17.2626 27.8135L17.6109 28.0287V28.8176C17.6109 29.0891 17.6673 29.2736 17.7851 29.376C17.9183 29.499 18.1437 29.5553 18.4409 29.5553H21.5403C21.7504 29.5553 22.027 29.5246 22.1859 29.3812C22.3293 29.2531 22.3549 29.002 22.3549 28.8176V28.0235L22.6982 27.8135ZM20.234 18.0028C21.1766 18.0232 25.9513 18.4126 25.9513 23.9968C25.9513 26.6147 24.8601 28.0492 23.815 28.8227C23.815 29.7039 23.4615 30.206 23.1644 30.4673C22.7648 30.831 22.2166 31.0205 21.5403 31.0205H18.4409C17.7595 31.0205 17.2113 30.831 16.8117 30.4621C16.5197 30.206 16.156 29.6988 16.156 28.8279C15.1109 28.0594 14.0196 26.6198 14.0196 23.9712C14.0196 18.3153 18.7534 18.0028 19.7012 17.9976C19.9112 17.9566 20.0649 17.9976 20.234 18.0028ZM19.2247 25.38C19.0813 25.5235 18.8968 25.5952 18.7073 25.5952C18.5228 25.5952 18.3333 25.5235 18.195 25.38L17.7697 24.9548L17.3445 25.38C17.2011 25.5235 17.0166 25.5952 16.8271 25.5952C16.6427 25.5952 16.4531 25.5235 16.3148 25.38C16.033 25.0931 16.033 24.632 16.3148 24.3451L16.74 23.9199L16.3148 23.4947C16.033 23.2078 16.033 22.7467 16.3148 22.4598C16.5966 22.173 17.0628 22.173 17.3445 22.4598L17.7697 22.8851L18.195 22.4598C18.4767 22.173 18.9429 22.173 19.2247 22.4598C19.5065 22.7467 19.5065 23.2078 19.2247 23.4947L18.7995 23.9199L19.2247 24.3451C19.5116 24.632 19.5116 25.0931 19.2247 25.38ZM23.2822 23.9199L23.7074 24.3451C23.9892 24.632 23.9892 25.0931 23.7074 25.38C23.564 25.5235 23.3795 25.5952 23.19 25.5952C23.0055 25.5952 22.816 25.5235 22.6777 25.38L22.2525 24.9548L21.8272 25.38C21.6838 25.5235 21.4994 25.5952 21.3098 25.5952C21.1254 25.5952 20.9358 25.5235 20.7975 25.38C20.5157 25.0931 20.5157 24.632 20.7975 24.3451L21.2227 23.9199L20.7975 23.4947C20.5157 23.2078 20.5157 22.7467 20.7975 22.4598C21.0793 22.173 21.5455 22.173 21.8272 22.4598L22.2525 22.8851L22.6777 22.4598C22.9594 22.173 23.4256 22.173 23.7074 22.4598C23.9892 22.7467 23.9892 23.2078 23.7074 23.4947L23.2822 23.9199ZM21.0332 26.4302L21.2535 26.9477C21.4123 27.3217 21.2381 27.7469 20.8692 27.9057C20.777 27.9467 20.6797 27.9621 20.5823 27.9621C20.321 27.9621 20.0803 27.8084 19.9522 27.5625C19.8241 27.8084 19.5833 27.9621 19.322 27.9621C19.2298 27.9621 19.1274 27.9416 19.0403 27.9057C18.6714 27.7469 18.4972 27.3165 18.656 26.9477L18.8763 26.4302C19.03 26.0563 19.4655 25.8821 19.8292 26.0409C19.8805 26.0614 19.9163 26.0972 19.9573 26.128C19.9983 26.0972 20.0342 26.0614 20.0854 26.0409C20.4491 25.8821 20.8795 26.0614 21.0332 26.4302Z" fill="#86888C"/>
</svg>
