<svg width="28" height="28" viewBox="0 0 28 28" fill="none" xmlns="http://www.w3.org/2000/svg">
<path fill-rule="evenodd" clip-rule="evenodd" d="M17.4006 24.7413C18.8692 24.7413 19.8153 24.1949 20.2525 23.1395H7.74185C7.87505 23.464 8.04924 23.7475 8.27807 23.9729C8.80746 24.4852 9.58958 24.7447 10.6108 24.7447H17.4006V24.7413ZM9.57592 3.93132V7.49699C9.57592 7.64727 9.69546 7.77022 9.84574 7.77022H18.0666C18.2169 7.77022 18.3364 7.64727 18.3364 7.49699V3.93132C18.3364 3.78104 18.2169 3.6615 18.0666 3.6615H9.84574C9.69888 3.6615 9.57592 3.78445 9.57592 3.93132ZM20.4505 10.95C20.2593 9.97999 19.7504 9.32423 18.9273 8.99635C18.6745 9.14321 18.3808 9.23543 18.0666 9.23543H9.84574C9.55543 9.23543 9.2822 9.15687 9.04312 9.02709C8.75623 9.15004 8.49324 9.30032 8.28149 9.50183C7.91262 9.85703 7.67696 10.3523 7.55401 10.95H20.4505ZM7.45496 21.565C7.45496 21.6026 7.46179 21.6367 7.46179 21.6777H20.5257C20.5257 21.6402 20.5325 21.606 20.5325 21.5684L20.5428 12.4152H7.45496V21.565ZM19.7709 7.75998C21.2156 8.47038 22.0011 9.91509 22.0011 11.9029L21.9909 21.565C21.9909 24.4681 20.2729 26.2031 17.4006 26.2031H10.6142C9.20023 26.2031 8.07656 25.8069 7.26711 25.0214C6.42692 24.2051 6 23.0439 6 21.565V11.9029C6 10.424 6.42693 9.26275 7.27736 8.44647C7.53351 8.19715 7.83407 7.99905 8.15512 7.82828C8.13462 7.72241 8.12096 7.61311 8.12096 7.50041V3.93473C8.12096 2.97842 8.89626 2.20312 9.84915 2.20312H18.07C19.0229 2.20312 19.7982 2.98184 19.7982 3.93473V7.50041C19.7982 7.58921 19.7845 7.67459 19.7709 7.75998ZM10.8362 7.09397C10.4332 7.09397 10.1087 6.7661 10.1087 6.36308V5.09255C10.1087 4.68953 10.4366 4.36166 10.8362 4.36166C11.2358 4.36166 11.5637 4.68953 11.5637 5.09255V6.36308C11.5671 6.7661 11.2392 7.09397 10.8362 7.09397ZM12.9196 7.09397C12.5166 7.09397 12.1921 6.7661 12.1921 6.36308V5.09255C12.1921 4.68953 12.52 4.36166 12.9196 4.36166C13.3226 4.36166 13.6471 4.68953 13.6471 5.09255V6.36308C13.6471 6.7661 13.3226 7.09397 12.9196 7.09397ZM14.9996 7.09397C14.5966 7.09397 14.2721 6.7661 14.2721 6.36308V5.09255C14.2721 4.68953 14.6 4.36166 14.9996 4.36166C15.3992 4.36166 15.7271 4.68953 15.7271 5.09255V6.36308C15.7305 6.7661 15.4026 7.09397 14.9996 7.09397ZM17.0796 7.09397C16.6765 7.09397 16.3521 6.7661 16.3521 6.36308V5.09255C16.3521 4.68953 16.6799 4.36166 17.0796 4.36166C17.4826 4.36166 17.807 4.68953 17.807 5.09255V6.36308C17.8104 6.7661 17.4826 7.09397 17.0796 7.09397ZM15.7988 19.2767C16.5911 18.7849 16.9942 17.9276 16.9942 16.7322C16.9942 14.0648 14.9859 13.7301 14.1252 13.7096C14.0262 13.7062 13.9203 13.7062 13.8213 13.7062H13.8042C12.9572 13.7096 10.9831 14.0136 10.9831 16.7117C10.9831 17.9276 11.3861 18.7883 12.175 19.2767L12.4073 19.4201V19.9461C12.4073 20.1271 12.4449 20.2501 12.5234 20.3184C12.6122 20.4004 12.7625 20.4379 12.9606 20.4379H15.0269C15.1669 20.4379 15.3514 20.4174 15.4572 20.3218C15.5529 20.2364 15.5699 20.0691 15.5699 19.9461V19.4167L15.7988 19.2767ZM14.156 12.7362C14.7844 12.7499 17.9676 13.0094 17.9676 16.7322C17.9676 18.4775 17.2401 19.4338 16.5433 19.9495C16.5433 20.537 16.3077 20.8717 16.1096 21.0459C15.8432 21.2884 15.4777 21.4147 15.0269 21.4147H12.9606C12.5063 21.4147 12.1409 21.2884 11.8745 21.0425C11.6798 20.8717 11.4373 20.5336 11.4373 19.9529C10.7406 19.4406 10.0131 18.4809 10.0131 16.7151C10.0131 12.9446 13.1689 12.7362 13.8008 12.7328C13.9408 12.7055 14.0433 12.7328 14.156 12.7362ZM13.4831 17.6544C13.3875 17.75 13.2646 17.7978 13.1382 17.7978C13.0152 17.7978 12.8889 17.75 12.7966 17.6544L12.5132 17.3709L12.2297 17.6544C12.1341 17.75 12.0111 17.7978 11.8847 17.7978C11.7618 17.7978 11.6354 17.75 11.5432 17.6544C11.3553 17.4631 11.3553 17.1557 11.5432 16.9645L11.8267 16.681L11.5432 16.3975C11.3553 16.2063 11.3553 15.8989 11.5432 15.7076C11.731 15.5163 12.0418 15.5163 12.2297 15.7076L12.5132 15.9911L12.7966 15.7076C12.9845 15.5163 13.2953 15.5163 13.4831 15.7076C13.671 15.8989 13.671 16.2063 13.4831 16.3975L13.1997 16.681L13.4831 16.9645C13.6744 17.1557 13.6744 17.4631 13.4831 17.6544ZM16.1881 16.681L16.4716 16.9645C16.6595 17.1557 16.6595 17.4631 16.4716 17.6544C16.376 17.75 16.253 17.7978 16.1267 17.7978C16.0037 17.7978 15.8773 17.75 15.7851 17.6544L15.5016 17.3709L15.2182 17.6544C15.1225 17.75 14.9996 17.7978 14.8732 17.7978C14.7502 17.7978 14.6239 17.75 14.5317 17.6544C14.3438 17.4631 14.3438 17.1557 14.5317 16.9645L14.8151 16.681L14.5317 16.3975C14.3438 16.2063 14.3438 15.8989 14.5317 15.7076C14.7195 15.5163 15.0303 15.5163 15.2182 15.7076L15.5016 15.9911L15.7851 15.7076C15.973 15.5163 16.2838 15.5163 16.4716 15.7076C16.6595 15.8989 16.6595 16.2063 16.4716 16.3975L16.1881 16.681ZM14.6888 18.3545L14.8356 18.6995C14.9415 18.9488 14.8254 19.2323 14.5795 19.3382C14.518 19.3655 14.4531 19.3757 14.3882 19.3757C14.214 19.3757 14.0535 19.2733 13.9681 19.1093C13.8827 19.2733 13.7222 19.3757 13.548 19.3757C13.4866 19.3757 13.4182 19.3621 13.3602 19.3382C13.1143 19.2323 12.9982 18.9454 13.104 18.6995L13.2509 18.3545C13.3534 18.1052 13.6437 17.9891 13.8862 18.095C13.9203 18.1086 13.9442 18.1325 13.9715 18.153C13.9989 18.1325 14.0228 18.1086 14.0569 18.095C14.2994 17.9891 14.5863 18.1086 14.6888 18.3545Z" fill="#86888C"/>
</svg>
