<svg width="20" height="20" viewBox="0 0 20 20" fill="none" xmlns="http://www.w3.org/2000/svg">
<path fill-rule="evenodd" clip-rule="evenodd" d="M13.594 8.29505C13.7862 8.29505 13.9356 8.34415 14.0402 8.44236C14.1491 8.54483 14.2046 8.69641 14.2046 8.89496C14.2046 9.09137 14.1491 9.24295 14.0402 9.34543C13.9356 9.44364 13.7862 9.49274 13.594 9.49274C13.4019 9.49274 13.2525 9.44364 13.1478 9.34543C13.039 9.24295 12.9856 9.09351 12.9856 8.89496C12.9856 8.69641 13.0411 8.54483 13.1478 8.44236C13.2503 8.34415 13.3998 8.29505 13.594 8.29505ZM12.3601 9.49061C12.5522 9.49061 12.7016 9.53971 12.8063 9.64005C12.9151 9.74253 12.9706 9.89411 12.9706 10.0927C12.9706 10.2891 12.9151 10.4406 12.8063 10.5431C12.7016 10.6413 12.5522 10.6904 12.3601 10.6904C12.1679 10.6904 12.0185 10.6413 11.9139 10.5431C11.8071 10.4406 11.7495 10.2912 11.7495 10.0927C11.7495 9.89411 11.805 9.74253 11.9139 9.64005C12.0185 9.53971 12.1679 9.49061 12.3601 9.49061ZM13.594 10.6862C13.7862 10.6862 13.9356 10.7353 14.0402 10.8335C14.1491 10.936 14.2046 11.0875 14.2046 11.2861C14.2046 11.4825 14.1491 11.6341 14.0402 11.7365C13.9356 11.8348 13.7862 11.8839 13.594 11.8839C13.4019 11.8839 13.2525 11.8348 13.1478 11.7365C13.039 11.6341 12.9856 11.4846 12.9856 11.2861C12.9856 11.0875 13.0411 10.936 13.1478 10.8335C13.2503 10.7353 13.3998 10.6862 13.594 10.6862ZM14.8259 9.49061C15.018 9.49061 15.1675 9.53971 15.2721 9.64005C15.381 9.74253 15.4365 9.89411 15.4365 10.0927C15.4365 10.2891 15.381 10.4406 15.2721 10.5431C15.1675 10.6413 15.018 10.6904 14.8259 10.6904C14.6316 10.6904 14.4843 10.6413 14.3797 10.5431C14.273 10.4406 14.2174 10.2912 14.2174 10.0927C14.2174 9.89411 14.273 9.74253 14.3797 9.64005C14.4843 9.53971 14.6338 9.49061 14.8259 9.49061ZM8.44033 9.22374C8.7136 9.22374 8.92283 9.28992 9.06373 9.42442C9.21104 9.56746 9.28576 9.77669 9.28576 10.0542C9.28576 10.3318 9.21104 10.541 9.06373 10.6798C8.92283 10.8143 8.71147 10.8826 8.44033 10.8826H8.35494L8.35707 10.8997C8.36775 10.9466 8.37415 10.9957 8.37415 11.0342C8.37415 11.3117 8.29943 11.5209 8.15212 11.6597C8.00908 11.7942 7.79986 11.8604 7.52872 11.8604C7.25545 11.8604 7.04409 11.7942 6.90532 11.6576C6.76015 11.5231 6.68756 11.3117 6.68756 11.032C6.68756 11.0064 6.6961 10.9402 6.70037 10.9125C6.66834 10.9146 6.64486 10.9167 6.57227 10.9167C6.299 10.9167 6.08978 10.8484 5.94887 10.7139C5.80583 10.5794 5.73111 10.3659 5.73111 10.0863C5.73111 9.80658 5.80583 9.59522 5.95101 9.45858C6.08978 9.32622 6.299 9.25576 6.57227 9.25576C6.59576 9.25576 6.6598 9.26003 6.68329 9.2643H6.69823C6.69396 9.22588 6.68969 9.18745 6.68969 9.14261C6.68969 8.86294 6.76228 8.65158 6.91173 8.51281C7.0505 8.38044 7.25972 8.30999 7.53299 8.30999C7.80626 8.30999 8.01548 8.37831 8.15639 8.51281C8.30156 8.65158 8.37842 8.86507 8.37842 9.14261C8.37842 9.15542 8.37629 9.19599 8.37202 9.22374C8.38056 9.22588 8.40404 9.22374 8.44033 9.22374ZM16.8904 14.4586C16.9672 14.2067 17.0633 13.6708 17.0654 13.4701C17.0889 11.7451 16.1901 9.67635 15.7076 8.56405C15.635 8.39539 15.5689 8.24594 15.5155 8.11785L15.4877 8.04953C15.4578 7.97908 15.4301 7.91503 15.4087 7.86379L15.3895 7.82109L15.3788 7.79974L15.3746 7.7912L15.3447 7.7357C15.2593 7.58839 15.1824 7.48377 15.1034 7.40692C14.7661 7.08668 14.2516 6.92442 13.5727 6.92442C13.3037 6.92442 13.0432 6.95858 12.7806 7.02903C12.7102 7.04825 12.4924 7.13792 12.3558 7.19769C12.2789 7.24039 12.1124 7.33433 12.0462 7.37916C11.5894 7.68659 11.0578 7.84885 10.5048 7.84885C9.95186 7.84885 9.41813 7.68659 8.96339 7.37916C8.89294 7.33219 8.72641 7.23826 8.65169 7.19556C8.52573 7.14219 8.29943 7.04825 8.22684 7.0269C7.96211 6.95858 7.70378 6.92229 7.43478 6.92229C6.75588 6.92229 6.24136 7.08668 5.90617 7.40478C5.82718 7.48164 5.74606 7.58839 5.66493 7.73356L5.64144 7.78053L5.62223 7.81896L5.60088 7.86379C5.57526 7.92143 5.54537 7.99402 5.51121 8.07515L5.49413 8.11785C5.44076 8.24594 5.37458 8.39752 5.30199 8.56405C4.8195 9.67635 3.92069 11.7451 3.94418 13.4701C3.94631 13.6708 4.04025 14.2088 4.11924 14.4586C4.23666 14.8386 4.50353 14.9624 4.61454 14.9987C4.71488 15.0329 4.90062 15.0649 5.03726 15.0777C5.1312 15.0756 5.4557 15.0051 5.59661 14.9411C5.71617 14.8877 5.83359 14.8108 5.95528 14.7084C6.01292 14.6593 6.03427 14.6358 6.2072 14.4223L6.27979 14.3326C6.32462 14.275 6.36732 14.2173 6.41215 14.1597C6.53811 13.9953 6.67688 13.8096 6.86262 13.6324C7.4113 13.1093 8.10942 12.7272 8.9335 12.4966C9.44161 12.3557 9.97108 12.2831 10.5027 12.2831C11.0343 12.2831 11.5637 12.3557 12.0718 12.4966C12.8981 12.7272 13.594 13.1093 14.1427 13.6324C14.3285 13.8096 14.4715 13.9953 14.5953 14.1597C14.6402 14.2173 14.6829 14.2728 14.7277 14.3305L14.7981 14.418C14.9711 14.6315 14.9946 14.655 15.0501 14.7062C15.2016 14.8365 15.334 14.9026 15.4194 14.9389C15.5496 14.9966 15.919 15.0713 16.0428 15.0713C16.0919 15.0713 16.2456 15.0436 16.3929 14.9966C16.5061 14.9624 16.773 14.8386 16.8904 14.4586ZM16.3844 7.76558C16.8135 8.79248 18.0347 11.2946 18.0048 13.4808C18.0005 13.7968 17.8831 14.4244 17.7892 14.7276C17.6034 15.3318 17.1701 15.7203 16.694 15.8762C16.4997 15.9381 16.2371 15.9979 16.0471 15.9979C15.793 15.9979 15.2935 15.8975 15.0373 15.7822C14.8921 15.7182 14.6786 15.6072 14.4395 15.4044C14.2964 15.2827 14.2324 15.1973 13.9975 14.9069C13.8289 14.702 13.6816 14.4778 13.4894 14.2942C13.0475 13.8736 12.4839 13.5705 11.8157 13.3847C11.3908 13.2652 10.9467 13.2054 10.5027 13.2054C10.0586 13.2054 9.61668 13.263 9.18969 13.3847C8.52146 13.5705 7.95997 13.8715 7.51591 14.2942C7.32377 14.4778 7.17646 14.6998 7.00993 14.9069C6.77296 15.1973 6.71104 15.2827 6.568 15.4044C6.32889 15.6072 6.12607 15.7182 5.9809 15.7822C5.74392 15.889 5.28918 16 5.02018 16C4.99883 16 4.97748 16 4.9604 15.9979C4.77039 15.9829 4.5078 15.9381 4.31352 15.8762C3.83743 15.7203 3.40617 15.3318 3.2183 14.7276C3.12436 14.4244 3.00694 13.7968 3.00054 13.4808C2.97065 11.2946 4.19396 8.79248 4.62095 7.76558C4.66578 7.65884 4.70421 7.56277 4.73837 7.49018C4.76826 7.424 4.78107 7.40265 4.78961 7.38343L4.83231 7.30017C4.94973 7.09522 5.07996 6.90307 5.25075 6.74295C5.7674 6.24979 6.50395 6 7.43265 6C7.81694 6 8.15639 6.05337 8.47022 6.13664C8.65596 6.18574 9.068 6.36721 9.07441 6.37148C9.07441 6.37148 9.39038 6.54868 9.49072 6.61486C9.79601 6.81981 10.1483 6.92229 10.5027 6.92229C10.8549 6.92229 11.2093 6.81981 11.5125 6.61486C11.6128 6.54868 11.9288 6.37148 11.9288 6.37148C11.9373 6.36721 12.3494 6.18574 12.5351 6.13664C12.8511 6.05124 13.1905 6 13.5727 6C14.5035 6 15.2379 6.24979 15.7567 6.74295C15.9254 6.90307 16.0578 7.09522 16.173 7.30017L16.2179 7.38343C16.2264 7.40265 16.2392 7.424 16.2691 7.49018C16.3011 7.56277 16.3396 7.65884 16.3844 7.76558Z" fill="#86888C"/>
</svg>
