<svg width="28" height="28" viewBox="0 0 28 28" fill="none" xmlns="http://www.w3.org/2000/svg">
<path fill-rule="evenodd" clip-rule="evenodd" d="M22.0896 24.3089C24.1457 24.145 24.4773 22.4985 24.5294 21.5151H22.0896V24.3089ZM1.65063 21.5375C1.68788 22.0106 1.83316 22.8747 2.4068 23.4894C2.79792 23.9066 3.36039 24.1599 4.09049 24.2604V21.5375H1.65063ZM2.77185 4.13813C2.50738 4.30576 1.75493 4.8198 1.65808 6.54074H4.09049V3.69859C3.71054 3.74329 3.21512 3.85131 2.77185 4.13813ZM24.5369 6.52212C24.5145 6.07512 24.399 5.15133 23.7956 4.50318C23.4045 4.08226 22.8308 3.82151 22.0858 3.71721V6.52212H24.5369ZM22.0896 19.8501H24.5406V17.075H22.0896V19.8501ZM22.0896 10.966H24.5369V8.18718H22.0896V10.966ZM22.0896 15.4062H24.5369V12.6273H22.0896V15.4062ZM5.72575 3.67251V24.3089H20.4543V3.66506C15.9471 3.66506 8.34441 3.67251 5.72575 3.67251ZM1.63946 19.8724H4.09049V17.0973H1.63946V19.8724ZM1.63946 10.9772H4.09049V8.20953H1.63946V10.9772ZM1.63946 12.6422V15.4285H4.09049V12.6422H1.63946ZM21.3334 2C26.5558 2 26.1721 6.92069 26.1721 6.92069C26.1721 6.92069 26.1759 15.5105 26.1759 21.0495C26.1759 25.5865 22.9277 26 21.7543 26C21.4973 26 21.3371 25.9777 21.3371 25.9777H4.81686C-0.323604 25.9777 0.00419384 21.0756 0.00419384 21.0756C0.00419384 21.0756 0.000468864 12.2176 0.000468864 6.89461C0.000468864 2.32407 3.53174 2 4.53376 2C4.70138 2 4.79451 2.00745 4.79451 2.00745C4.79451 2.00745 16.111 2 21.3334 2ZM10.0951 17.4326L15.9359 13.9981L10.0951 10.5637V17.4326ZM17.9809 13.2755C18.2342 13.4245 18.3907 13.7001 18.3907 13.9981C18.3907 14.2961 18.2342 14.5718 17.9809 14.7208L9.6854 19.5968C9.55875 19.6713 9.4172 19.7085 9.27565 19.7085C9.1341 19.7085 8.99255 19.6713 8.8659 19.5968C8.61261 19.4478 8.45616 19.1721 8.45616 18.8741V9.12215C8.45616 8.82415 8.61261 8.5485 8.8659 8.3995C9.1192 8.2505 9.4321 8.2505 9.6854 8.3995L17.9809 13.2755Z" fill="#86888C"/>
</svg>
