<svg width="28" height="28" viewBox="0 0 28 28" fill="none" xmlns="http://www.w3.org/2000/svg">
<path fill-rule="evenodd" clip-rule="evenodd" d="M18.9505 9.67208C19.2579 9.67208 19.497 9.75064 19.6644 9.90777C19.8386 10.0717 19.9274 10.3143 19.9274 10.6319C19.9274 10.9462 19.8386 11.1887 19.6644 11.3527C19.497 11.5098 19.2579 11.5884 18.9505 11.5884C18.643 11.5884 18.4039 11.5098 18.2366 11.3527C18.0623 11.1887 17.9769 10.9496 17.9769 10.6319C17.9769 10.3143 18.0658 10.0717 18.2366 9.90777C18.4005 9.75064 18.6396 9.67208 18.9505 9.67208ZM16.9761 11.585C17.2835 11.585 17.5226 11.6635 17.69 11.8241C17.8642 11.988 17.953 12.2306 17.953 12.5482C17.953 12.8625 17.8642 13.105 17.69 13.269C17.5226 13.4261 17.2835 13.5047 16.9761 13.5047C16.6687 13.5047 16.4296 13.4261 16.2622 13.269C16.0914 13.105 15.9992 12.8659 15.9992 12.5482C15.9992 12.2306 16.088 11.988 16.2622 11.8241C16.4296 11.6635 16.6687 11.585 16.9761 11.585ZM18.9505 13.4979C19.2579 13.4979 19.497 13.5764 19.6644 13.7336C19.8386 13.8975 19.9274 14.1401 19.9274 14.4577C19.9274 14.772 19.8386 15.0145 19.6644 15.1785C19.497 15.3356 19.2579 15.4142 18.9505 15.4142C18.643 15.4142 18.4039 15.3356 18.2366 15.1785C18.0623 15.0145 17.9769 14.7754 17.9769 14.4577C17.9769 14.1401 18.0658 13.8975 18.2366 13.7336C18.4005 13.5764 18.6396 13.4979 18.9505 13.4979ZM20.9214 11.585C21.2289 11.585 21.468 11.6635 21.6354 11.8241C21.8096 11.988 21.8984 12.2306 21.8984 12.5482C21.8984 12.8625 21.8096 13.105 21.6354 13.269C21.468 13.4261 21.2289 13.5047 20.9214 13.5047C20.6106 13.5047 20.3749 13.4261 20.2075 13.269C20.0367 13.105 19.9479 12.8659 19.9479 12.5482C19.9479 12.2306 20.0367 11.988 20.2075 11.8241C20.3749 11.6635 20.614 11.585 20.9214 11.585ZM10.7045 11.158C11.1418 11.158 11.4765 11.2639 11.702 11.4791C11.9377 11.7079 12.0572 12.0427 12.0572 12.4868C12.0572 12.9308 11.9377 13.2656 11.702 13.4876C11.4765 13.7028 11.1384 13.8121 10.7045 13.8121H10.5679L10.5713 13.8395C10.5884 13.9146 10.5986 13.9932 10.5986 14.0547C10.5986 14.4987 10.4791 14.8335 10.2434 15.0555C10.0145 15.2707 9.67977 15.3766 9.24595 15.3766C8.80872 15.3766 8.47054 15.2707 8.24851 15.0521C8.01623 14.8369 7.90009 14.4987 7.90009 14.0512C7.90009 14.0102 7.91376 13.9044 7.92059 13.8599C7.86935 13.8634 7.83177 13.8668 7.71563 13.8668C7.2784 13.8668 6.94365 13.7575 6.7182 13.5423C6.48933 13.3271 6.36978 12.9855 6.36978 12.538C6.36978 12.0905 6.48933 11.7523 6.72161 11.5337C6.94364 11.3219 7.2784 11.2092 7.71563 11.2092C7.75321 11.2092 7.85569 11.2161 7.89326 11.2229H7.91717C7.91034 11.1614 7.90351 11.0999 7.90351 11.0282C7.90351 10.5807 8.01965 10.2425 8.25876 10.0205C8.48079 9.80871 8.81555 9.69599 9.25278 9.69599C9.69002 9.69599 10.0248 9.80529 10.2502 10.0205C10.4825 10.2425 10.6055 10.5841 10.6055 11.0282C10.6055 11.0487 10.6021 11.1136 10.5952 11.158C10.6089 11.1614 10.6465 11.158 10.7045 11.158ZM24.2246 19.5337C24.3476 19.1307 24.5013 18.2733 24.5047 17.9522C24.5423 15.1921 23.1042 11.8822 22.3322 10.1025C22.2161 9.83262 22.1102 9.59351 22.0248 9.38856L21.9804 9.27925C21.9325 9.16652 21.8881 9.06405 21.854 8.98207L21.8232 8.91375L21.8062 8.87959L21.7993 8.86593L21.7515 8.77711C21.6149 8.54142 21.4919 8.37404 21.3655 8.25107C20.8258 7.73869 20.0026 7.47908 18.9163 7.47908C18.4859 7.47908 18.0692 7.53373 17.649 7.64646C17.5363 7.6772 17.1879 7.82067 16.9693 7.91631C16.8463 7.98463 16.5799 8.13493 16.474 8.20666C15.743 8.69855 14.8924 8.95816 14.0077 8.95816C13.123 8.95816 12.269 8.69855 11.5414 8.20666C11.4287 8.13151 11.1623 7.98121 11.0427 7.9129C10.8412 7.8275 10.4791 7.6772 10.3629 7.64304C9.93937 7.53373 9.52605 7.47566 9.09565 7.47566C8.0094 7.47566 7.18617 7.73869 6.64988 8.24765C6.52349 8.37062 6.39369 8.54142 6.26388 8.7737L6.22631 8.84885L6.19557 8.91033L6.16141 8.98207C6.12042 9.0743 6.07259 9.19044 6.01794 9.32024L5.99061 9.38856C5.90522 9.59351 5.79932 9.83604 5.68318 10.1025C4.91119 11.8822 3.47311 15.1921 3.51068 17.9522C3.5141 18.2733 3.6644 19.1341 3.79078 19.5337C3.97866 20.1418 4.40564 20.3399 4.58327 20.398C4.74382 20.4526 5.041 20.5038 5.25961 20.5243C5.40991 20.5209 5.92913 20.4082 6.15458 20.3057C6.34587 20.2203 6.53374 20.0974 6.72844 19.9334C6.82067 19.8548 6.85483 19.8173 7.13152 19.4757L7.24766 19.3322C7.31939 19.24 7.38771 19.1477 7.45944 19.0555C7.66098 18.7925 7.88301 18.4953 8.18019 18.2118C9.05808 17.3749 10.1751 16.7635 11.4936 16.3945C12.3066 16.1691 13.1537 16.0529 14.0043 16.0529C14.8548 16.0529 15.702 16.1691 16.515 16.3945C17.8369 16.7635 18.9505 17.3749 19.8284 18.2118C20.1255 18.4953 20.3544 18.7925 20.5525 19.0555C20.6243 19.1477 20.6926 19.2366 20.7643 19.3288L20.877 19.4688C21.1537 19.8104 21.1913 19.848 21.2801 19.93C21.5226 20.1383 21.7344 20.2442 21.8711 20.3023C22.0794 20.3945 22.6704 20.5141 22.8685 20.5141C22.9471 20.5141 23.193 20.4697 23.4287 20.3945C23.6097 20.3399 24.0367 20.1418 24.2246 19.5337ZM23.415 8.82494C24.1016 10.468 26.0555 14.4714 26.0077 17.9693C26.0009 18.4748 25.813 19.4791 25.6627 19.9641C25.3655 20.9308 24.6721 21.5525 23.9103 21.8019C23.5995 21.9009 23.1793 21.9966 22.8753 21.9966C22.4688 21.9966 21.6695 21.836 21.2596 21.6516C21.0273 21.5491 20.6857 21.3715 20.3032 21.047C20.0743 20.8523 19.9718 20.7156 19.5961 20.2511C19.3262 19.9231 19.0905 19.5645 18.7831 19.2707C18.076 18.5978 17.1742 18.1127 16.105 17.8155C15.4253 17.6243 14.7148 17.5286 14.0043 17.5286C13.2938 17.5286 12.5867 17.6208 11.9035 17.8155C10.8343 18.1127 9.93596 18.5944 9.22546 19.2707C8.91803 19.5645 8.68233 19.9197 8.41589 20.2511C8.03673 20.7156 7.93767 20.8523 7.7088 21.047C7.32622 21.3715 7.00172 21.5491 6.76943 21.6516C6.39027 21.8224 5.66269 22 5.23229 22C5.19813 22 5.16397 22 5.13664 21.9966C4.83263 21.9727 4.41247 21.9009 4.10163 21.8019C3.33989 21.5525 2.64988 20.9308 2.34928 19.9641C2.19898 19.4791 2.01111 18.4748 2.00086 17.9693C1.95304 14.4714 3.91034 10.468 4.59352 8.82494C4.66525 8.65414 4.72674 8.50043 4.78139 8.38429C4.82921 8.27839 4.84971 8.24424 4.86337 8.21349L4.93169 8.08027C5.11956 7.75235 5.32793 7.44492 5.6012 7.18873C6.42785 6.39966 7.60633 6 9.09224 6C9.70709 6 10.2502 6.0854 10.7524 6.21862C11.0495 6.29718 11.7088 6.58753 11.7191 6.59436C11.7191 6.59436 12.2246 6.87788 12.3851 6.98377C12.8736 7.3117 13.4372 7.47566 14.0043 7.47566C14.5679 7.47566 15.1349 7.3117 15.62 6.98377C15.7805 6.87788 16.2861 6.59436 16.2861 6.59436C16.2998 6.58753 16.959 6.29718 17.2562 6.21862C17.7617 6.08198 18.3049 6 18.9163 6C20.4056 6 21.5807 6.39966 22.4108 7.18873C22.6806 7.44492 22.8924 7.75235 23.0769 8.08027L23.1486 8.21349C23.1623 8.24424 23.1828 8.27839 23.2306 8.38429C23.2818 8.50043 23.3433 8.65414 23.415 8.82494Z" fill="#86888C"/>
</svg>
