<svg width="24" height="24" viewBox="0 0 24 24" fill="none" xmlns="http://www.w3.org/2000/svg">
<path fill-rule="evenodd" clip-rule="evenodd" d="M19.408 20.5907C21.1215 20.4541 21.3977 19.0821 21.4412 18.2626H19.408V20.5907ZM2.37553 18.2812C2.40657 18.6755 2.52763 19.3956 3.00567 19.9078C3.3316 20.2555 3.80033 20.4666 4.40874 20.5504V18.2812H2.37553ZM3.30987 3.78178C3.08948 3.92147 2.46244 4.34984 2.38173 5.78395H4.40874V3.41549C4.09212 3.45274 3.67927 3.54276 3.30987 3.78178ZM21.4474 5.76843C21.4288 5.39593 21.3325 4.62611 20.8297 4.08598C20.5037 3.73522 20.0257 3.51793 19.4049 3.43101V5.76843H21.4474ZM19.408 16.8751H21.4505V14.5625H19.408V16.8751ZM19.408 9.47167H21.4474V7.15598H19.408V9.47167ZM19.408 13.1718H21.4474V10.8561H19.408V13.1718ZM5.77146 3.39376V20.5907H18.0452V3.38755C14.2892 3.38755 7.95367 3.39376 5.77146 3.39376ZM2.36621 16.8937H4.40874V14.5811H2.36621V16.8937ZM2.36621 9.48099H4.40874V7.17461H2.36621V9.48099ZM2.36621 10.8685V13.1904H4.40874V10.8685H2.36621ZM18.7778 2C23.1298 2 22.8101 6.10057 22.8101 6.10057C22.8101 6.10057 22.8132 13.2587 22.8132 17.8746C22.8132 21.6554 20.1064 22 19.1286 22C18.9144 22 18.7809 21.9814 18.7809 21.9814H5.01405C0.73033 21.9814 1.00349 17.8963 1.00349 17.8963C1.00349 17.8963 1.00039 10.5147 1.00039 6.07885C1.00039 2.27006 3.94312 2 4.77813 2C4.91782 2 4.99542 2.00621 4.99542 2.00621C4.99542 2.00621 14.4258 2 18.7778 2ZM9.41262 14.8605L14.2799 11.9984L9.41262 9.13643V14.8605ZM15.9841 11.3962C16.1952 11.5204 16.3256 11.7501 16.3256 11.9984C16.3256 12.2468 16.1952 12.4765 15.9841 12.6007L9.07117 16.664C8.96562 16.7261 8.84767 16.7571 8.72971 16.7571C8.61175 16.7571 8.4938 16.7261 8.38825 16.664C8.17717 16.5398 8.0468 16.3101 8.0468 16.0618V7.93512C8.0468 7.68679 8.17717 7.45709 8.38825 7.33292C8.59934 7.20875 8.86008 7.20875 9.07117 7.33292L15.9841 11.3962Z" fill="#86888C"/>
</svg>
