<svg width="40" height="40" viewBox="0 0 40 40" fill="none" xmlns="http://www.w3.org/2000/svg">
<path fill-rule="evenodd" clip-rule="evenodd" d="M27.4257 13.5081C27.8869 13.5081 28.2455 13.626 28.4966 13.8617C28.7579 14.1076 28.8911 14.4714 28.8911 14.9479C28.8911 15.4193 28.7579 15.7831 28.4966 16.029C28.2455 16.2647 27.8869 16.3826 27.4257 16.3826C26.9646 16.3826 26.6059 16.2647 26.3548 16.029C26.0935 15.7831 25.9654 15.4244 25.9654 14.9479C25.9654 14.4714 26.0986 14.1076 26.3548 13.8617C26.6008 13.626 26.9594 13.5081 27.4257 13.5081ZM24.4641 16.3775C24.9253 16.3775 25.284 16.4953 25.535 16.7361C25.7963 16.9821 25.9296 17.3459 25.9296 17.8224C25.9296 18.2938 25.7963 18.6576 25.535 18.9035C25.284 19.1392 24.9253 19.257 24.4641 19.257C24.003 19.257 23.6443 19.1392 23.3933 18.9035C23.1371 18.6576 22.9987 18.2989 22.9987 17.8224C22.9987 17.3459 23.132 16.9821 23.3933 16.7361C23.6443 16.4953 24.003 16.3775 24.4641 16.3775ZM27.4257 19.2468C27.8869 19.2468 28.2455 19.3646 28.4966 19.6003C28.7579 19.8463 28.8911 20.2101 28.8911 20.6866C28.8911 21.158 28.7579 21.5218 28.4966 21.7677C28.2455 22.0034 27.8869 22.1213 27.4257 22.1213C26.9646 22.1213 26.6059 22.0034 26.3548 21.7677C26.0935 21.5218 25.9654 21.1631 25.9654 20.6866C25.9654 20.2101 26.0986 19.8463 26.3548 19.6003C26.6008 19.3646 26.9594 19.2468 27.4257 19.2468ZM30.3822 16.3775C30.8433 16.3775 31.202 16.4953 31.453 16.7361C31.7144 16.9821 31.8476 17.3459 31.8476 17.8224C31.8476 18.2938 31.7144 18.6576 31.453 18.9035C31.202 19.1392 30.8433 19.257 30.3822 19.257C29.9159 19.257 29.5624 19.1392 29.3113 18.9035C29.0551 18.6576 28.9219 18.2989 28.9219 17.8224C28.9219 17.3459 29.0551 16.9821 29.3113 16.7361C29.5624 16.4953 29.921 16.3775 30.3822 16.3775ZM15.0568 15.737C15.7127 15.737 16.2148 15.8958 16.553 16.2186C16.9065 16.5619 17.0858 17.064 17.0858 17.7301C17.0858 18.3962 16.9065 18.8984 16.553 19.2314C16.2148 19.5542 15.7075 19.7182 15.0568 19.7182H14.8518L14.857 19.7592C14.8826 19.8719 14.898 19.9898 14.898 20.082C14.898 20.7481 14.7186 21.2502 14.3651 21.5833C14.0218 21.9061 13.5197 22.0649 12.8689 22.0649C12.2131 22.0649 11.7058 21.9061 11.3728 21.5781C11.0243 21.2553 10.8501 20.7481 10.8501 20.0769C10.8501 20.0154 10.8706 19.8565 10.8809 19.7899C10.804 19.795 10.7477 19.8002 10.5735 19.8002C9.9176 19.8002 9.41547 19.6362 9.0773 19.3134C8.734 18.9906 8.55467 18.4782 8.55467 17.807C8.55467 17.1358 8.734 16.6285 9.08242 16.3006C9.41547 15.9829 9.9176 15.8138 10.5735 15.8138C10.6298 15.8138 10.7835 15.8241 10.8399 15.8343H10.8758C10.8655 15.7421 10.8553 15.6499 10.8553 15.5423C10.8553 14.8711 11.0295 14.3638 11.3881 14.0307C11.7212 13.7131 12.2233 13.544 12.8792 13.544C13.535 13.544 14.0372 13.7079 14.3753 14.0307C14.7238 14.3638 14.9082 14.8762 14.9082 15.5423C14.9082 15.573 14.9031 15.6704 14.8928 15.737C14.9133 15.7421 14.9697 15.737 15.0568 15.737ZM35.3369 28.3006C35.5214 27.696 35.7519 26.4099 35.7571 25.9283C35.8134 21.7882 33.6563 16.8232 32.4983 14.1537C32.3241 13.7489 32.1653 13.3903 32.0372 13.0828L31.9706 12.9189C31.8988 12.7498 31.8322 12.5961 31.781 12.4731L31.7349 12.3706L31.7092 12.3194L31.699 12.2989L31.6273 12.1657C31.4223 11.8121 31.2378 11.5611 31.0483 11.3766C30.2387 10.608 29.0039 10.2186 27.3745 10.2186C26.7289 10.2186 26.1038 10.3006 25.4735 10.4697C25.3045 10.5158 24.7818 10.731 24.4539 10.8745C24.2694 10.9769 23.8698 11.2024 23.7109 11.31C22.6144 12.0478 21.3386 12.4372 20.0115 12.4372C18.6845 12.4372 17.4035 12.0478 16.3121 11.31C16.1431 11.1973 15.7434 10.9718 15.5641 10.8693C15.2618 10.7412 14.7186 10.5158 14.5444 10.4646C13.9091 10.3006 13.2891 10.2135 12.6435 10.2135C11.0141 10.2135 9.77926 10.608 8.97482 11.3715C8.78524 11.5559 8.59053 11.8121 8.39583 12.1605L8.33946 12.2733L8.29335 12.3655L8.24211 12.4731C8.18063 12.6114 8.10889 12.7857 8.02691 12.9804L7.98592 13.0828C7.85782 13.3903 7.69899 13.7541 7.52478 14.1537C6.36679 16.8232 4.20966 21.7882 4.26602 25.9283C4.27115 26.4099 4.49659 27.7011 4.68618 28.3006C4.96799 29.2126 5.60847 29.5098 5.8749 29.5969C6.11572 29.6789 6.5615 29.7558 6.88942 29.7865C7.11487 29.7814 7.89369 29.6123 8.23186 29.4586C8.5188 29.3305 8.80061 29.146 9.09267 28.9001C9.23101 28.7822 9.28225 28.7259 9.69728 28.2135L9.87149 27.9983C9.97909 27.8599 10.0816 27.7216 10.1892 27.5833C10.4915 27.1887 10.8245 26.743 11.2703 26.3177C12.5871 25.0623 14.2626 24.1452 16.2404 23.5918C17.4599 23.2536 18.7306 23.0794 20.0064 23.0794C21.2822 23.0794 22.553 23.2536 23.7724 23.5918C25.7554 24.1452 27.4257 25.0623 28.7425 26.3177C29.1883 26.743 29.5316 27.1887 29.8288 27.5833C29.9364 27.7216 30.0389 27.8548 30.1465 27.9932L30.3156 28.2032C30.7306 28.7156 30.7869 28.772 30.9202 28.895C31.284 29.2075 31.6016 29.3664 31.8066 29.4535C32.1191 29.5918 33.0056 29.7711 33.3027 29.7711C33.4206 29.7711 33.7895 29.7045 34.1431 29.5918C34.4146 29.5098 35.0551 29.2126 35.3369 28.3006ZM34.1226 12.2374C35.1524 14.702 38.0833 20.7071 38.0115 25.9539C38.0013 26.7122 37.7195 28.2186 37.494 28.9462C37.0483 30.3962 36.0081 31.3288 34.8655 31.7028C34.3992 31.8514 33.769 31.9949 33.313 31.9949C32.7033 31.9949 31.5043 31.7541 30.8894 31.4774C30.541 31.3237 30.0286 31.0572 29.4548 30.5705C29.1115 30.2784 28.9577 30.0734 28.3941 29.3766C27.9893 28.8847 27.6358 28.3467 27.1746 27.9061C26.114 26.8967 24.7613 26.1691 23.1576 25.7233C22.1379 25.4364 21.0722 25.2929 20.0064 25.2929C18.9407 25.2929 17.88 25.4313 16.8553 25.7233C15.2515 26.1691 13.9039 26.8915 12.8382 27.9061C12.377 28.3467 12.0235 28.8796 11.6238 29.3766C11.0551 30.0734 10.9065 30.2784 10.5632 30.5705C9.98934 31.0572 9.50257 31.3237 9.15415 31.4774C8.58541 31.7336 7.49403 32 6.84843 32C6.79719 32 6.74595 32 6.70496 31.9949C6.24894 31.959 5.61871 31.8514 5.15244 31.7028C4.00983 31.3288 2.97482 30.3962 2.52392 28.9462C2.29847 28.2186 2.01666 26.7122 2.00129 25.9539C1.92956 20.7071 4.86551 14.702 5.89028 12.2374C5.99788 11.9812 6.09011 11.7506 6.17209 11.5764C6.24382 11.4176 6.27456 11.3664 6.29506 11.3202L6.39753 11.1204C6.67935 10.6285 6.9919 10.1674 7.4018 9.78309C8.64177 8.59949 10.4095 8 12.6384 8C13.5606 8 14.3753 8.1281 15.1285 8.32792C15.5743 8.44577 16.5632 8.8813 16.5786 8.89155C16.5786 8.89155 17.3369 9.31682 17.5777 9.47566C18.3104 9.96755 19.1559 10.2135 20.0064 10.2135C20.8518 10.2135 21.7024 9.96755 22.43 9.47566C22.6708 9.31682 23.4291 8.89155 23.4291 8.89155C23.4496 8.8813 24.4385 8.44577 24.8843 8.32792C25.6426 8.12297 26.4573 8 27.3745 8C29.6085 8 31.3711 8.59949 32.6162 9.78309C33.0209 10.1674 33.3386 10.6285 33.6153 11.1204L33.7229 11.3202C33.7434 11.3664 33.7741 11.4176 33.8459 11.5764C33.9227 11.7506 34.015 11.9812 34.1226 12.2374Z" fill="#86888C"/>
</svg>
