<svg width="25" height="24" viewBox="0 0 25 24" fill="none" xmlns="http://www.w3.org/2000/svg">
<path d="M22.0739 12.6245L22.0682 12.619C18.8809 9.55428 15.5766 8 12.2551 8C10.9454 8 9.61852 8.24671 8.31734 8.73191L7.75806 8.95121L7.7495 8.95395C5.94325 9.72149 4.13985 10.966 2.38211 12.6546C2.2851 12.7478 2.22803 12.8821 2.22803 13.0164C2.22803 13.148 2.28224 13.2796 2.37926 13.3755L2.38497 13.381C5.5723 16.4457 8.87662 18 12.1981 18C13.5107 18 14.8347 17.7533 16.1359 17.2681L16.6951 17.0488L16.7037 17.0461C18.5099 16.2758 20.3162 15.0313 22.0711 13.3454C22.171 13.2495 22.228 13.1179 22.228 12.9808C22.2252 12.852 22.171 12.7204 22.0739 12.6245ZM12.1981 16.9748C9.30464 16.9748 6.38554 15.6453 3.52636 13.0192C5.11574 11.5581 6.73652 10.4863 8.34302 9.82566L8.93654 9.59814C10.0465 9.21436 11.1623 9.01974 12.2551 9.01974C15.1486 9.01974 18.0677 10.3492 20.9268 12.9753C19.3318 14.4391 17.7053 15.5164 16.0931 16.1743L15.5138 16.3964C14.4152 16.7802 13.2995 16.9748 12.1981 16.9748Z" fill="#86888C"/>
<path d="M14.9207 10.3383C14.2758 9.74074 13.3484 9.43921 12.1671 9.43921C10.96 9.43921 10.0212 9.75445 9.37636 10.374C8.73147 10.9935 8.40332 11.8981 8.40332 13.0549C8.40332 14.2144 8.73147 15.1163 9.37636 15.7358C10.0212 16.3553 10.96 16.6706 12.1671 16.6706C13.3741 16.6706 14.3129 16.3553 14.9578 15.7358C15.6026 15.1163 15.9308 14.2144 15.9308 13.0549C15.9336 11.8734 15.5912 10.9606 14.9207 10.3383ZM12.1671 15.7605C11.2397 15.7605 10.532 15.5439 10.0697 15.1163C9.59037 14.675 9.34782 13.9814 9.34782 13.0549C9.34782 12.1311 9.59037 11.4376 10.0697 10.9935C10.532 10.5659 11.2368 10.3466 12.1671 10.3466C13.0944 10.3466 13.7992 10.5631 14.2644 10.9935C14.7437 11.4376 14.9863 12.1311 14.9863 13.0549C14.9863 13.9787 14.7437 14.6722 14.2644 15.1136C13.8021 15.5439 13.0973 15.7605 12.1671 15.7605Z" fill="#86888C"/>
<path d="M12.1668 14.4472C11.2195 14.4472 10.7173 13.9647 10.7173 13.0547C10.7173 12.1446 11.2195 11.6621 12.1668 11.6621C12.6291 11.6621 12.9887 11.7772 13.234 12.0048C13.488 12.2405 13.6164 12.5941 13.6164 13.0547C13.6164 13.9647 13.1171 14.4472 12.1668 14.4472Z" fill="#86888C"/>
</svg>
