<svg width="29" height="28" viewBox="0 0 29 28" fill="none" xmlns="http://www.w3.org/2000/svg">
<path d="M20.0563 18.8686C22.0691 17.8968 24.0648 16.4253 26.0264 14.4611C26.1563 14.3311 26.228 14.1566 26.228 13.9752C26.228 13.7938 26.1563 13.6193 26.0264 13.4927C22.2058 9.66008 18.2485 7.71983 14.2639 7.71983C12.7569 7.71983 11.2532 7.99701 9.75643 8.55137L3.41043 2.20019C3.14388 1.93327 2.71329 1.93327 2.44674 2.20019C2.18018 2.4671 2.18018 2.90169 2.44674 3.1686L8.40317 9.1331C6.38693 10.1049 4.39121 11.5764 2.42965 13.5406C2.29979 13.6706 2.22803 13.8452 2.22803 14.0265C2.22803 14.2079 2.29979 14.3824 2.42965 14.509C6.25366 18.3382 10.2109 20.2785 14.1956 20.2785C15.7026 20.2785 17.2062 20.0013 18.703 19.4469L25.0456 25.7981C25.1789 25.9316 25.3532 26 25.5275 26C25.7018 26 25.876 25.9316 26.0093 25.7981C26.2759 25.5312 26.2759 25.0966 26.0093 24.8297L20.0563 18.8686ZM14.2639 9.08861C17.7052 9.08861 21.1669 10.7312 24.5672 13.9752C22.7321 15.7272 20.8799 17.0173 19.0277 17.8386L17.9 16.7093C18.3066 16.0147 18.5151 15.1489 18.5151 14.1223C18.5151 11.2684 16.8884 9.63271 14.052 9.63271C13.0268 9.63271 12.1588 9.84487 11.4617 10.2589L10.8329 9.63271C11.9777 9.26998 13.1225 9.08861 14.2639 9.08861ZM14.199 12.3018C13.9803 12.3018 13.7752 12.3326 13.5907 12.3908L12.2203 11.0186C12.7193 10.7791 13.331 10.6593 14.052 10.6593C15.1456 10.6593 15.9931 10.9365 16.5706 11.4874C17.1789 12.0657 17.4865 12.952 17.4865 14.1189C17.4865 14.8341 17.3703 15.4466 17.1379 15.9462L15.8085 14.6151C15.8632 14.444 15.8974 14.2421 15.8974 14.006C15.8974 12.9726 15.231 12.3018 14.199 12.3018V12.3018ZM14.1956 18.9097C10.7543 18.9097 7.29253 17.2671 3.89227 14.0231C5.72739 12.2745 7.57617 10.9844 9.43179 10.1631L12.4869 13.2224L12.4835 13.2258L12.9824 13.722C13.1704 13.9102 13.4984 14.2455 13.8162 14.5706C14.076 14.8375 14.3254 15.0908 14.4758 15.2413L14.9645 15.7307L14.9781 15.717L17.6266 18.369C16.4783 18.7283 15.3335 18.9097 14.1956 18.9097V18.9097Z" fill="#86888C"/>
</svg>
