<svg width="41" height="40" viewBox="0 0 41 40" fill="none" xmlns="http://www.w3.org/2000/svg">
<path d="M28.9704 27.3029C31.9897 25.8452 34.9833 23.638 37.9256 20.6917C38.1204 20.4966 38.228 20.2348 38.228 19.9628C38.228 19.6907 38.1204 19.429 37.9256 19.239C32.1947 13.4901 26.2588 10.5797 20.2819 10.5797C18.0213 10.5797 15.7658 10.9955 13.5206 11.827L4.00163 2.30028C3.6018 1.89991 2.95592 1.89991 2.55609 2.30028C2.15626 2.70065 2.15626 3.35253 2.55609 3.75291L11.4907 12.6997C8.46639 14.1574 5.47279 16.3646 2.53046 19.3109C2.33567 19.506 2.22803 19.7677 2.22803 20.0398C2.22803 20.3118 2.33567 20.5736 2.53046 20.7635C8.26647 26.5073 14.2024 29.4177 20.1793 29.4177C22.4399 29.4177 24.6953 29.0019 26.9405 28.1704L36.4544 37.6972C36.6543 37.8973 36.9158 38 37.1772 38C37.4386 38 37.7 37.8973 37.9 37.6972C38.2998 37.2968 38.2998 36.6449 37.9 36.2445L28.9704 27.3029ZM20.2819 12.6329C25.4437 12.6329 30.6364 15.0967 35.7368 19.9628C32.9841 22.5909 30.2058 24.526 27.4275 25.7579L25.7359 24.064C26.3459 23.022 26.6586 21.7234 26.6586 20.1835C26.6586 15.9026 24.2186 13.4491 19.964 13.4491C18.4262 13.4491 17.1242 13.7673 16.0785 14.3884L15.1353 13.4491C16.8525 12.905 18.5698 12.6329 20.2819 12.6329ZM20.1845 17.4528C19.8564 17.4528 19.5488 17.499 19.272 17.5862L17.2165 15.5279C17.9649 15.1686 18.8824 14.989 19.964 14.989C21.6044 14.989 22.8756 15.4047 23.7419 16.2311C24.6543 17.0986 25.1157 18.428 25.1157 20.1784C25.1157 21.2512 24.9414 22.17 24.5928 22.9194L22.5988 20.9226C22.6808 20.666 22.7321 20.3632 22.7321 20.009C22.7321 18.4588 21.7325 17.4528 20.1845 17.4528V17.4528ZM20.1793 27.3645C15.0174 27.3645 9.82478 24.9007 4.7244 20.0346C7.47707 17.4117 10.2502 15.4766 13.0337 14.2447L17.6163 18.8335L17.6112 18.8387L18.3596 19.5829C18.6415 19.8653 19.1336 20.3683 19.6103 20.8559C19.9999 21.2563 20.3741 21.6361 20.5997 21.862L21.3327 22.596L21.3532 22.5755L25.3258 26.5535C23.6035 27.0925 21.8863 27.3645 20.1793 27.3645V27.3645Z" fill="#86888C"/>
</svg>
