<svg width="21" height="20" viewBox="0 0 21 20" fill="none" xmlns="http://www.w3.org/2000/svg">
<path d="M14.1135 13.2457C15.4554 12.5978 16.7859 11.6169 18.0936 10.3074C18.1802 10.2207 18.228 10.1044 18.228 9.98346C18.228 9.86255 18.1802 9.7462 18.0936 9.6618C15.5466 7.10672 12.9084 5.81322 10.2519 5.81322C9.24725 5.81322 8.24483 5.998 7.24697 6.36758L3.01629 2.13346C2.83859 1.95551 2.55154 1.95551 2.37383 2.13346C2.19613 2.3114 2.19613 2.60113 2.37383 2.77907L6.34479 6.7554C5.00063 7.40329 3.67015 8.38426 2.36244 9.69373C2.27587 9.78042 2.22803 9.89677 2.22803 10.0177C2.22803 10.1386 2.27587 10.2549 2.36244 10.3393C4.91178 12.8921 7.54997 14.1856 10.2064 14.1856C11.2111 14.1856 12.2135 14.0009 13.2114 13.6313L17.4398 17.8654C17.5286 17.9544 17.6448 18 17.761 18C17.8772 18 17.9934 17.9544 18.0822 17.8654C18.2599 17.6875 18.2599 17.3977 18.0822 17.2198L14.1135 13.2457ZM10.2519 6.72574C12.5461 6.72574 14.854 7.82077 17.1208 9.98346C15.8974 11.1515 14.6626 12.0115 13.4278 12.5591L12.676 11.8062C12.9471 11.3431 13.0861 10.766 13.0861 10.0816C13.0861 8.17894 12.0016 7.08847 10.1107 7.08847C9.42723 7.08847 8.84856 7.22991 8.3838 7.50595L7.96461 7.08847C8.72781 6.84665 9.49102 6.72574 10.2519 6.72574ZM10.2087 8.8679C10.0629 8.8679 9.92616 8.88843 9.80314 8.92721L8.88957 8.0124C9.22219 7.85271 9.62999 7.77287 10.1107 7.77287C10.8397 7.77287 11.4047 7.95765 11.7898 8.32495C12.1953 8.71049 12.4003 9.30135 12.4003 10.0793C12.4003 10.5561 12.3229 10.9644 12.1679 11.2975L11.2817 10.4101C11.3182 10.296 11.3409 10.1614 11.3409 10.004C11.3409 9.31504 10.8967 8.8679 10.2087 8.8679ZM10.2064 13.2731C7.91221 13.2731 5.60436 12.1781 3.33752 10.0154C4.56093 8.84965 5.79346 7.98959 7.03053 7.44208L9.06727 9.48157L9.06499 9.48385L9.39761 9.81464C9.52292 9.94012 9.74163 10.1637 9.9535 10.3804C10.1266 10.5584 10.293 10.7272 10.3932 10.8275L10.719 11.1538L10.7281 11.1447L12.4937 12.9127C11.7282 13.1522 10.965 13.2731 10.2064 13.2731Z" fill="#86888C"/>
</svg>
