<svg width="28" height="28" viewBox="0 0 28 28" fill="none" xmlns="http://www.w3.org/2000/svg">
<path fill-rule="evenodd" clip-rule="evenodd" d="M7.99139 23.0152C9.81156 22.4244 9.36761 20.9799 9.2276 20.5086C8.81439 19.187 8.08359 19.0163 7.49964 19.0163C7.15814 19.0163 6.8747 19.0846 6.76543 19.1153C6.68347 19.1358 6.58443 19.1665 6.49565 19.1973C4.70621 19.771 5.1604 21.2223 5.297 21.697C5.71021 23.0425 6.42393 23.2098 7.00789 23.2098C7.33914 23.2098 7.63282 23.1381 7.73185 23.1005C7.82064 23.0732 7.91285 23.0425 7.99139 23.0152ZM11.5224 19.0026C11.922 18.8831 12.3454 19.1051 12.465 19.5046C12.5845 19.8973 12.3659 20.3174 11.963 20.4369L10.8258 20.7886C10.9078 21.3009 10.8873 21.7414 10.7951 22.1239L11.7615 22.6361C12.1337 22.8273 12.2737 23.2884 12.0757 23.6503C11.9459 23.9099 11.6829 24.0533 11.4097 24.0533C11.2902 24.0533 11.1673 24.0328 11.058 23.9713L10.0745 23.4523C9.73301 23.8143 9.33005 24.0635 9.00904 24.2343L9.36078 25.3783C9.48031 25.7676 9.26175 26.1911 8.85879 26.3208C8.78707 26.3413 8.70853 26.3516 8.64023 26.3516C8.31923 26.3516 8.0153 26.1398 7.91626 25.8188L7.56452 24.6748C7.39378 24.6953 7.21278 24.7158 7.0113 24.7158C6.76884 24.7158 6.50931 24.6851 6.24635 24.627L5.71362 25.6208C5.58386 25.8701 5.3209 26.0237 5.05112 26.0237C4.9316 26.0237 4.80866 25.993 4.69938 25.9315C4.3374 25.7403 4.19739 25.2793 4.38521 24.9207L4.9077 23.927C4.61743 23.6674 4.35448 23.3157 4.1325 22.8547C4.1325 22.8547 4.1325 22.8649 4.12226 22.8649L2.97825 23.2166C2.89629 23.2474 2.828 23.2542 2.75628 23.2542C2.43528 23.2542 2.13476 23.0459 2.03231 22.7249C1.91279 22.3253 2.13476 21.9019 2.53431 21.7824L3.68173 21.4306C3.69198 21.4204 3.69198 21.4306 3.70222 21.4204C3.62026 20.9184 3.63051 20.4881 3.71247 20.1056L2.73921 19.5831C2.36698 19.3919 2.22697 18.9309 2.42503 18.5689C2.61627 18.1967 3.07729 18.0567 3.44269 18.2479L4.41594 18.7704C4.75744 18.3982 5.1604 18.1489 5.49165 17.985L5.13991 16.8409C5.02039 16.4482 5.24236 16.0282 5.64191 15.9087C6.03463 15.7891 6.45808 16.0111 6.58785 16.4004L6.93959 17.5547C7.11033 17.5342 7.29133 17.5137 7.50305 17.5137C7.73185 17.5137 7.99481 17.5444 8.25776 17.6025L8.78024 16.6087C8.98172 16.2365 9.43591 16.0965 9.80473 16.2877C10.1667 16.4892 10.3067 16.94 10.1155 17.3122L9.60324 18.2855C9.89351 18.545 10.1667 18.8967 10.3853 19.3612L11.5224 19.0026ZM20.1657 19.4704C21.0092 19.4704 21.4838 18.9992 21.9039 18.5791C22.9181 17.5683 24.308 16.1819 18.2465 10.1203C15.7057 7.58303 13.7934 6.14875 12.3967 5.71847C12.0962 5.62627 11.823 5.57846 11.56 5.57846C10.9282 5.57846 10.375 5.85848 9.77058 6.47317C8.9066 7.32691 8.69487 8.05771 9.01587 9.08902C9.44957 10.4857 10.8941 12.3913 13.428 14.9286C17.0103 18.4904 18.9602 19.4704 20.1657 19.4704ZM25.4622 17.0049C25.8652 17.1346 26.0872 17.5547 25.9642 17.9474C25.8652 18.2684 25.5613 18.4801 25.2403 18.4801C25.1686 18.4801 25.09 18.4699 25.0183 18.4426L24.0246 18.1318C23.905 18.4528 23.7138 18.7636 23.4816 19.0641L24.2465 19.829C24.5368 20.1193 24.5368 20.5906 24.2465 20.8911C24.0963 21.0311 23.905 21.113 23.7138 21.113C23.5226 21.113 23.3313 21.0345 23.1811 20.8911L22.4264 20.1398C22.1634 20.3515 21.8526 20.5496 21.5009 20.693L21.8014 21.6663C21.9209 22.059 21.7024 22.4893 21.3097 22.6088C21.2311 22.6293 21.1594 22.6395 21.0775 22.6395C20.7565 22.6395 20.4628 22.438 20.3637 22.1204L20.0017 20.9867C19.65 20.9764 19.2573 20.915 18.8373 20.7784C18.6972 20.7374 18.5572 20.6759 18.4036 20.6179L18.3148 21.3692C18.2738 21.7482 17.9425 22.0214 17.5703 22.0214H17.4815C17.0683 21.9702 16.7678 21.5911 16.8293 21.1779L16.9898 19.8939C16.5561 19.6241 16.1053 19.3031 15.6238 18.9206L15.1115 19.9349C14.9818 20.1978 14.7086 20.3447 14.4388 20.3447C14.3261 20.3447 14.2066 20.3139 14.0973 20.2627C13.7251 20.0715 13.5748 19.6207 13.7661 19.2519L14.4286 17.9371C13.9471 17.5171 13.4246 17.0356 12.8918 16.5131L11.8981 17.5069C11.7478 17.6469 11.5566 17.7288 11.3654 17.7288C11.1741 17.7288 10.9726 17.6469 10.8326 17.5069C10.5424 17.2063 10.5424 16.7351 10.8326 16.4448L11.8264 15.4511C11.2936 14.9081 10.8224 14.3993 10.3887 13.9075L9.07051 14.57C8.97148 14.6281 8.84854 14.6485 8.73926 14.6485C8.45924 14.6485 8.19629 14.4983 8.06652 14.2388C7.87528 13.8665 8.02554 13.4158 8.39777 13.2245L9.40176 12.7123C9.30956 12.5928 9.22077 12.4835 9.13198 12.3605C8.86903 12.0088 8.65047 11.681 8.44899 11.3565L7.15131 11.517H7.05228C6.68005 11.517 6.35905 11.2336 6.30782 10.8545C6.2566 10.4448 6.55028 10.0725 6.96008 10.0213L7.72502 9.92227C7.66697 9.7925 7.62599 9.66273 7.58501 9.53979C7.445 9.10951 7.38353 8.70655 7.37329 8.34456L6.20879 7.97233C5.80583 7.85281 5.5941 7.42936 5.71704 7.02981C5.83656 6.63709 6.26001 6.40829 6.66298 6.53806L7.67722 6.84882C7.81723 6.50732 8.01871 6.20681 8.22019 5.95752L7.43475 5.16525C7.14448 4.87498 7.14448 4.39347 7.43475 4.1032C7.72502 3.81293 8.20995 3.81293 8.50022 4.1032L9.2959 4.89547C9.55543 4.69399 9.84912 4.50275 10.1906 4.36274L9.86961 3.32801C9.73984 2.93529 9.9584 2.51525 10.3614 2.38549C10.7541 2.26255 11.1878 2.48452 11.3073 2.87724L11.6795 4.08271C12.0415 4.09296 12.424 4.15443 12.844 4.28419C12.9738 4.32517 13.107 4.37298 13.247 4.42421L13.346 3.63194C13.4075 3.22215 13.7797 2.92846 14.1895 2.97969C14.6027 3.03774 14.893 3.40997 14.8418 3.82318L14.671 5.16525C15.1047 5.42479 15.5555 5.74921 16.0268 6.11802L16.5595 5.06622C16.7405 4.69399 17.1912 4.54373 17.5737 4.73497C17.946 4.9262 18.086 5.37698 17.905 5.74921L17.222 7.10152C17.7035 7.52156 18.2191 7.99624 18.7485 8.52556L19.7729 7.49424C20.0735 7.20397 20.5481 7.20397 20.8384 7.49424C21.1389 7.79476 21.1389 8.26602 20.8384 8.55629L19.8139 9.58077C20.3364 10.1101 20.8077 10.6223 21.2414 11.1038L22.5971 10.4243C22.9693 10.2433 23.4201 10.3935 23.6113 10.7658C23.7923 11.1346 23.6421 11.5888 23.2698 11.7698L22.2249 12.2888C22.5971 12.7703 22.9284 13.2211 23.1913 13.6514L24.5265 13.4806C24.9398 13.4397 25.312 13.7197 25.3598 14.1329C25.4213 14.5427 25.1173 14.9252 24.7075 14.9764L23.9323 15.0754C24.1543 15.6389 24.2738 16.158 24.2943 16.6497L25.4622 17.0049Z" fill="#86888C"/>
</svg>
