<svg width="24" height="24" viewBox="0 0 24 24" fill="none" xmlns="http://www.w3.org/2000/svg">
<path fill-rule="evenodd" clip-rule="evenodd" d="M9.94677 16.5333C13.6441 16.5333 16.6554 13.5509 16.6554 9.88275C16.6554 6.21742 13.6469 3.23506 9.94677 3.23506C6.24947 3.23506 3.23813 6.21742 3.23813 9.88275C3.24097 13.5509 6.24947 16.5333 9.94677 16.5333ZM21.8186 20.9499C22.0605 21.1918 22.0605 21.5817 21.8186 21.8207C21.6962 21.9402 21.5396 22 21.3802 22C21.2208 22 21.0614 21.9402 20.9419 21.8207L15.0217 15.9528C13.6441 17.0825 11.8794 17.7627 9.94962 17.7627C5.55783 17.7627 2 14.2339 2 9.87991C2 5.52874 5.56068 2 9.94962 2C14.3386 2 17.8992 5.52874 17.8992 9.87991C17.8992 11.8776 17.1421 13.6961 15.9069 15.0876L21.8186 20.9499ZM9.94677 12.8196C11.4325 12.8196 11.8395 12.276 11.8395 10.2897C11.8395 9.04326 11.6602 8.38019 11.239 8.06431C10.9657 7.86227 10.5445 7.76266 9.94677 7.76266C9.34621 7.76266 8.92212 7.86227 8.64888 8.07001C8.23332 8.38589 8.05401 9.05179 8.05401 10.2897C8.05401 12.276 8.46102 12.8196 9.94677 12.8196ZM9.95247 6.25157C8.68303 6.25157 8.68303 6.50768 8.68303 6.8634V6.87763C9.04166 6.75811 9.45437 6.69266 9.94677 6.69266C10.442 6.69266 10.8576 6.75811 11.2191 6.87763C11.2191 6.8691 11.2219 6.86625 11.2219 6.86056C11.2219 6.50768 11.2219 6.25157 9.95247 6.25157ZM13.5302 9.39044C13.8291 9.39044 14.071 9.62948 14.071 9.92544V10.6853C14.071 10.9812 13.8291 11.2203 13.5302 11.2203C13.2314 11.2203 12.9923 10.9812 12.9923 10.6853V10.4604H12.9183C12.9126 11.004 12.8699 11.5304 12.7418 12.0028L13.4391 12.2134C13.6754 12.2846 13.8348 12.5065 13.8205 12.7513L13.7579 13.8953C13.7408 14.1799 13.5046 14.4018 13.22 14.4018H13.1915C12.8927 14.3847 12.665 14.1343 12.682 13.8412L12.7219 13.1127L12.2779 12.9789C11.8424 13.5367 11.1251 13.8896 9.94677 13.8896C8.76557 13.8896 8.04831 13.5339 7.61284 12.9733L7.15174 13.1098L7.19159 13.8355C7.20582 14.1315 6.97812 14.3819 6.68211 14.399H6.65364C6.36902 14.399 6.13278 14.177 6.1157 13.8924L6.05308 12.7484C6.03885 12.5037 6.19824 12.2789 6.43448 12.2077L7.14889 11.9915C7.0265 11.5219 6.98096 10.9954 6.97527 10.4548H6.90127V10.6796C6.90127 10.9755 6.65934 11.2146 6.36333 11.2146C6.06447 11.2146 5.82253 10.9755 5.82253 10.6796V9.91975C5.82253 9.62379 6.06447 9.38475 6.36333 9.38475H7.01227C7.05212 8.9465 7.13751 8.51964 7.29975 8.1383L6.43448 7.87649C6.1954 7.80535 6.03885 7.58338 6.05308 7.3358L6.1157 6.1918C6.13278 5.89585 6.40317 5.68241 6.68211 5.6881C6.98097 5.70518 7.20582 5.95561 7.19159 6.25157L7.15174 6.97723L7.62422 7.11952C7.61568 7.03415 7.60145 6.94878 7.60145 6.85771C7.60145 5.17871 9.24659 5.17871 9.94962 5.17871C10.6526 5.17871 12.2978 5.17871 12.2978 6.85771C12.2978 6.94593 12.2864 7.02846 12.2779 7.11098L12.7219 6.97723L12.682 6.24872C12.665 5.95276 12.8955 5.70233 13.1915 5.6881C13.4847 5.70518 13.7437 5.89869 13.7579 6.19465L13.8205 7.33865C13.8319 7.58338 13.6754 7.80535 13.4391 7.87649L12.591 8.12977C12.756 8.51394 12.8414 8.94081 12.8813 9.3819H13.5302V9.39044ZM9.91831 8.5424C10.2172 8.5424 10.4563 8.78145 10.4563 9.0774V11.9232C10.4563 12.2191 10.2143 12.4582 9.91831 12.4582C9.61945 12.4582 9.38037 12.2191 9.38037 11.9232V9.0774C9.37752 8.78145 9.61945 8.5424 9.91831 8.5424Z" fill="#86888C"/>
</svg>
