<svg width="40" height="40" viewBox="0 0 40 40" fill="none" xmlns="http://www.w3.org/2000/svg">
<path fill-rule="evenodd" clip-rule="evenodd" d="M10.9871 33.347C13.7173 32.4608 13.0514 30.294 12.8414 29.5871C12.2216 27.6047 11.1254 27.3486 10.2495 27.3486C9.73722 27.3486 9.31206 27.4511 9.14814 27.4972C9.0252 27.5279 8.87665 27.574 8.74347 27.6201C6.05932 28.4807 6.7406 30.6577 6.9455 31.3697C7.56531 33.3879 8.6359 33.6389 9.51183 33.6389C10.0087 33.6389 10.4492 33.5314 10.5978 33.475C10.731 33.434 10.8693 33.3879 10.9871 33.347ZM16.2837 27.3281C16.883 27.1488 17.5182 27.4818 17.6975 28.0811C17.8767 28.6702 17.5489 29.3003 16.9445 29.4795L15.2387 30.0071C15.3616 30.7755 15.3309 31.4363 15.1926 32.01L16.6422 32.7784C17.2006 33.0652 17.4106 33.7568 17.1135 34.2997C16.9188 34.689 16.5244 34.9042 16.1146 34.9042C15.9353 34.9042 15.7509 34.8734 15.587 34.7812L14.1118 34.0026C13.5995 34.5456 12.9951 34.9195 12.5136 35.1757L13.0412 36.8917C13.2205 37.4756 12.8926 38.1108 12.2882 38.3055C12.1806 38.3362 12.0628 38.3516 11.9603 38.3516C11.4788 38.3516 11.0229 38.034 10.8744 37.5525L10.3468 35.8365C10.0907 35.8672 9.81918 35.8979 9.51695 35.8979C9.15326 35.8979 8.76396 35.8518 8.36953 35.7647L7.57044 37.2554C7.37578 37.6293 6.98136 37.8598 6.57669 37.8598C6.3974 37.8598 6.21299 37.8137 6.04908 37.7215C5.5061 37.4347 5.29608 36.7431 5.57782 36.2053L6.36154 34.7146C5.92614 34.3253 5.53171 33.7977 5.19876 33.1062C5.19876 33.1062 5.19876 33.1216 5.18339 33.1216L3.46738 33.6492C3.34444 33.6953 3.24199 33.7055 3.13442 33.7055C2.65292 33.7055 2.20214 33.3931 2.04847 32.9116C1.86919 32.3122 2.20214 31.6771 2.80147 31.4978L4.5226 30.9702C4.53796 30.9548 4.53797 30.9702 4.55333 30.9548C4.43039 30.2018 4.44576 29.5564 4.5687 28.9827L3.10881 28.1989C2.55047 27.9121 2.34045 27.2206 2.63755 26.6776C2.9244 26.1192 3.61593 25.9092 4.16403 26.1961L5.62392 26.9798C6.13616 26.4215 6.7406 26.0475 7.23748 25.8016L6.70987 24.0856C6.53058 23.4966 6.86354 22.8665 7.46286 22.6872C8.05194 22.5079 8.68712 22.8409 8.88177 23.4248L9.40938 25.1562C9.6655 25.1255 9.93699 25.0948 10.2546 25.0948C10.5978 25.0948 10.9922 25.1409 11.3866 25.2279L12.1704 23.7373C12.4726 23.179 13.1539 22.9689 13.7071 23.2558C14.2501 23.558 14.4601 24.2342 14.1732 24.7925L13.4049 26.2524C13.8403 26.6417 14.2501 27.1693 14.5779 27.866L16.2837 27.3281ZM29.2485 28.0299C30.5137 28.0299 31.2258 27.323 31.8558 26.6929C33.3772 25.1767 35.462 23.097 26.3697 14.0047C22.5586 10.1988 19.6901 8.04735 17.595 7.40193C17.1442 7.26362 16.7344 7.19191 16.34 7.19191C15.3924 7.19191 14.5625 7.61194 13.6559 8.53398C12.3599 9.81458 12.0423 10.9108 12.5238 12.4578C13.1744 14.5528 15.3411 17.4111 19.142 21.2171C24.5154 26.5598 27.4403 28.0299 29.2485 28.0299ZM37.1934 24.3315C37.7978 24.5262 38.1308 25.1562 37.9464 25.7453C37.7978 26.2268 37.3419 26.5444 36.8604 26.5444C36.7528 26.5444 36.635 26.529 36.5275 26.488L35.0368 26.0219C34.8575 26.5034 34.5707 26.9696 34.2224 27.4203L35.3698 28.5677C35.8052 29.0032 35.8052 29.71 35.3698 30.1608C35.1444 30.3708 34.8575 30.4938 34.5707 30.4938C34.2838 30.4938 33.997 30.376 33.7716 30.1608L32.6395 29.0339C32.2451 29.3515 31.779 29.6486 31.2514 29.8637L31.7021 31.3236C31.8814 31.9127 31.5536 32.5581 30.9645 32.7374C30.8467 32.7681 30.7391 32.7835 30.6162 32.7835C30.1347 32.7835 29.6941 32.4813 29.5456 32.0049L29.0026 30.3042C28.475 30.2889 27.8859 30.1967 27.2559 29.9918C27.0459 29.9303 26.8358 29.8381 26.6053 29.751L26.4722 30.878C26.4107 31.4465 25.9138 31.8563 25.3555 31.8563H25.2223C24.6025 31.7795 24.1517 31.2109 24.2439 30.5911L24.4847 28.6651C23.8341 28.2604 23.1579 27.7789 22.4357 27.2052L21.6673 28.7265C21.4727 29.121 21.0629 29.3412 20.6582 29.3412C20.4892 29.3412 20.3099 29.2951 20.146 29.2183C19.5876 28.9314 19.3622 28.2553 19.6491 27.7021L20.6428 25.7299C19.9206 25.0999 19.1369 24.3776 18.3378 23.5939L16.8471 25.0845C16.6217 25.2945 16.3349 25.4175 16.048 25.4175C15.7612 25.4175 15.459 25.2945 15.2489 25.0845C14.8135 24.6337 14.8135 23.9268 15.2489 23.4914L16.7396 22.0008C15.9405 21.1863 15.2336 20.4231 14.583 19.6855L12.6058 20.6792C12.4572 20.7663 12.2728 20.797 12.1089 20.797C11.6889 20.797 11.2944 20.5717 11.0998 20.1824C10.8129 19.624 11.0383 18.9479 11.5967 18.661L13.1026 17.8926C12.9643 17.7133 12.8312 17.5494 12.698 17.365C12.3035 16.8374 11.9757 16.3457 11.6735 15.859L9.72697 16.0998H9.57842C9.02008 16.0998 8.53857 15.6746 8.46174 15.106C8.3849 14.4913 8.82543 13.933 9.44012 13.8562L10.5875 13.7076C10.5005 13.513 10.439 13.3183 10.3775 13.1339C10.1675 12.4885 10.0753 11.884 10.0599 11.3411L8.31319 10.7827C7.70874 10.6034 7.39115 9.96826 7.57556 9.36893C7.75484 8.77986 8.39002 8.43665 8.99447 8.63131L10.5158 9.09745C10.7258 8.5852 11.0281 8.13443 11.3303 7.7605L10.1521 6.57209C9.71673 6.13669 9.71673 5.41443 10.1521 4.97902C10.5875 4.54362 11.3149 4.54362 11.7503 4.97902L12.9438 6.16742C13.3332 5.8652 13.7737 5.57835 14.2859 5.36833L13.8044 3.81623C13.6098 3.22716 13.9376 2.5971 14.542 2.40245C15.1311 2.21804 15.7817 2.551 15.961 3.14008L16.5193 4.94829C17.0623 4.96366 17.636 5.05586 18.266 5.25051C18.4607 5.31198 18.6605 5.38369 18.8705 5.46053L19.019 4.27213C19.1112 3.65744 19.6696 3.21691 20.2843 3.29375C20.9041 3.38083 21.3395 3.93917 21.2627 4.55898L21.0065 6.57209C21.6571 6.9614 22.3332 7.44803 23.0401 8.00125L23.8392 6.42354C24.1107 5.8652 24.7869 5.63981 25.3606 5.92667C25.9189 6.21353 26.1289 6.88968 25.8575 7.44803L24.833 9.4765C25.5552 10.1066 26.3287 10.8186 27.1227 11.6126L28.6594 10.0656C29.1102 9.63018 29.8222 9.63018 30.2576 10.0656C30.7084 10.5164 30.7084 11.2232 30.2576 11.6587L28.7209 13.1954C29.5046 13.9894 30.2115 14.7577 30.8621 15.48L32.8957 14.4606C33.454 14.1891 34.1302 14.4145 34.417 14.9729C34.6885 15.5261 34.4631 16.2074 33.9048 16.4788L32.3373 17.2575C32.8957 17.9797 33.3925 18.6559 33.787 19.3013L35.7898 19.0452C36.4096 18.9837 36.968 19.4037 37.0397 20.0236C37.1319 20.6382 36.676 21.212 36.0613 21.2888L34.8985 21.4373C35.2315 22.2825 35.4108 23.0612 35.4415 23.7988L37.1934 24.3315Z" fill="#86888C"/>
</svg>
