<svg width="20" height="20" viewBox="0 0 20 20" fill="none" xmlns="http://www.w3.org/2000/svg">
<path fill-rule="evenodd" clip-rule="evenodd" d="M5.99426 16.1273C7.2077 15.7334 6.91174 14.7704 6.8184 14.4563C6.54293 13.5752 6.05573 13.4614 5.66643 13.4614C5.43876 13.4614 5.2498 13.5069 5.17695 13.5274C5.12231 13.541 5.05629 13.5615 4.9971 13.582C3.80414 13.9645 4.10693 14.9321 4.198 15.2485C4.47347 16.1455 4.94929 16.2571 5.33859 16.2571C5.55942 16.2571 5.75521 16.2093 5.82124 16.1842C5.88043 16.166 5.9419 16.1455 5.99426 16.1273ZM8.3483 13.4523C8.61466 13.3726 8.89696 13.5206 8.97664 13.7869C9.05633 14.0487 8.91062 14.3288 8.64198 14.4084L7.88386 14.6429C7.9385 14.9844 7.92484 15.2781 7.86337 15.5331L8.50766 15.8746C8.75581 16.0021 8.84915 16.3094 8.71711 16.5507C8.6306 16.7238 8.4553 16.8194 8.27317 16.8194C8.19348 16.8194 8.11153 16.8057 8.03867 16.7648L7.383 16.4187C7.15534 16.66 6.8867 16.8262 6.6727 16.9401L6.90719 17.7027C6.98687 17.9623 6.84117 18.2446 6.57252 18.3311C6.52471 18.3447 6.47235 18.3516 6.42682 18.3516C6.21282 18.3516 6.0102 18.2104 5.94417 17.9964L5.70968 17.2337C5.59585 17.2474 5.47519 17.2611 5.34087 17.2611C5.17923 17.2611 5.0062 17.2406 4.8309 17.2019L4.47575 17.8644C4.38924 18.0306 4.21394 18.133 4.03408 18.133C3.9544 18.133 3.87244 18.1125 3.79959 18.0715C3.55827 17.944 3.46493 17.6367 3.59014 17.3977L3.93846 16.7352C3.74495 16.5621 3.56965 16.3276 3.42167 16.0203C3.42167 16.0203 3.42167 16.0271 3.41484 16.0271L2.65217 16.2616C2.59753 16.2821 2.552 16.2867 2.50419 16.2867C2.29018 16.2867 2.08984 16.1478 2.02154 15.9338C1.94186 15.6674 2.08984 15.3851 2.35621 15.3054L3.12115 15.0709C3.12798 15.0641 3.12798 15.0709 3.13481 15.0641C3.08018 14.7294 3.08701 14.4426 3.14164 14.1876L2.4928 13.8393C2.24465 13.7118 2.15131 13.4044 2.28335 13.1631C2.41085 12.915 2.71819 12.8216 2.96179 12.9491L3.61063 13.2974C3.83829 13.0493 4.10693 12.8831 4.32777 12.7738L4.09328 12.0112C4.01359 11.7493 4.16157 11.4693 4.42794 11.3896C4.68975 11.3099 4.97205 11.4579 5.05857 11.7175L5.29306 12.487C5.40689 12.4733 5.52755 12.4596 5.6687 12.4596C5.82124 12.4596 5.99654 12.4801 6.17184 12.5188L6.52016 11.8563C6.65448 11.6082 6.95727 11.5148 7.20315 11.6423C7.44447 11.7767 7.53782 12.0772 7.41032 12.3253L7.06883 12.9742C7.26234 13.1472 7.44447 13.3817 7.59018 13.6913L8.3483 13.4523ZM14.1104 13.7642C14.6728 13.7642 14.9892 13.45 15.2692 13.17C15.9454 12.4961 16.872 11.5718 12.831 7.53074C11.1372 5.83921 9.86225 4.88302 8.93111 4.59617C8.73077 4.5347 8.54864 4.50283 8.37334 4.50283C7.95216 4.50283 7.58335 4.68951 7.18038 5.0993C6.6044 5.66846 6.46325 6.15566 6.67725 6.8432C6.96638 7.77434 7.9294 9.0447 9.61865 10.7362C12.0068 13.1108 13.3068 13.7642 14.1104 13.7642ZM17.6415 12.1204C17.9101 12.2069 18.0581 12.487 17.9762 12.7488C17.9101 12.9628 17.7075 13.1039 17.4935 13.1039C17.4457 13.1039 17.3933 13.0971 17.3455 13.0789L16.683 12.8717C16.6034 13.0857 16.4759 13.2929 16.321 13.4932L16.831 14.0032C17.0245 14.1967 17.0245 14.5109 16.831 14.7112C16.7308 14.8046 16.6034 14.8592 16.4759 14.8592C16.3484 14.8592 16.2209 14.8069 16.1207 14.7112L15.6176 14.2104C15.4423 14.3515 15.2351 14.4836 15.0006 14.5792L15.2009 15.228C15.2806 15.4898 15.1349 15.7767 14.8731 15.8564C14.8208 15.87 14.7729 15.8769 14.7183 15.8769C14.5043 15.8769 14.3085 15.7425 14.2425 15.5308L14.0012 14.775C13.7667 14.7681 13.5049 14.7272 13.2248 14.6361C13.1315 14.6088 13.0382 14.5678 12.9357 14.5291L12.8765 15.03C12.8492 15.2827 12.6284 15.4648 12.3802 15.4648H12.321C12.0455 15.4306 11.8452 15.1779 11.8862 14.9025L11.9932 14.0465C11.704 13.8666 11.4035 13.6526 11.0825 13.3976L10.741 14.0738C10.6545 14.2491 10.4724 14.347 10.2925 14.347C10.2174 14.347 10.1377 14.3265 10.0649 14.2923C9.81672 14.1648 9.71655 13.8643 9.84404 13.6185L10.2857 12.7419C9.9647 12.4619 9.61638 12.1409 9.26122 11.7926L8.59872 12.4551C8.49855 12.5484 8.37106 12.6031 8.24357 12.6031C8.11608 12.6031 7.98176 12.5484 7.88842 12.4551C7.6949 12.2547 7.6949 11.9406 7.88842 11.7471L8.55092 11.0846C8.19576 10.7226 7.88159 10.3834 7.59245 10.0555L6.71368 10.4972C6.64765 10.5359 6.56569 10.5496 6.49284 10.5496C6.30616 10.5496 6.13086 10.4494 6.04435 10.2764C5.91685 10.0282 6.01703 9.72769 6.26518 9.6002L6.93451 9.25871C6.87304 9.17902 6.81385 9.10617 6.75465 9.02421C6.57935 8.78972 6.43365 8.57116 6.29933 8.35488L5.43421 8.46188H5.36819C5.12003 8.46188 4.90603 8.27292 4.87188 8.02022C4.83773 7.74702 5.03352 7.49887 5.30672 7.46472L5.81668 7.3987C5.77798 7.31219 5.75066 7.22568 5.72334 7.14372C5.63 6.85686 5.58902 6.58822 5.58219 6.3469L4.80586 6.09874C4.53722 6.01906 4.39607 5.73676 4.47803 5.47039C4.55771 5.20858 4.84001 5.05605 5.10865 5.14256L5.78481 5.34973C5.87815 5.12207 6.01247 4.92173 6.14679 4.75553L5.62317 4.22735C5.42966 4.03384 5.42966 3.71284 5.62317 3.51932C5.81668 3.32581 6.13996 3.32581 6.33348 3.51932L6.86393 4.0475C7.03696 3.91318 7.23275 3.78569 7.46041 3.69235L7.24641 3.00253C7.15989 2.74072 7.3056 2.46069 7.57424 2.37418C7.83605 2.29222 8.12519 2.4402 8.20487 2.70201L8.45302 3.50566C8.69434 3.51249 8.94933 3.55347 9.22935 3.63998C9.31586 3.6673 9.40465 3.69918 9.49799 3.73333L9.56401 3.20515C9.60499 2.93195 9.85315 2.73616 10.1263 2.77031C10.4018 2.80901 10.5953 3.05717 10.5612 3.33264L10.4473 4.22735C10.7365 4.40038 11.037 4.61666 11.3512 4.86253L11.7063 4.16133C11.827 3.91318 12.1275 3.81301 12.3825 3.9405C12.6306 4.06799 12.724 4.36851 12.6033 4.61666L12.148 5.5182C12.469 5.79823 12.8128 6.11468 13.1656 6.46756L13.8486 5.78002C14.049 5.5865 14.3654 5.5865 14.5589 5.78002C14.7593 5.98036 14.7593 6.29453 14.5589 6.48805L13.876 7.17104C14.2243 7.52391 14.5384 7.86541 14.8276 8.18641L15.7314 7.73336C15.9796 7.6127 16.2801 7.71287 16.4076 7.96103C16.5282 8.2069 16.4281 8.50969 16.1799 8.63036L15.4833 8.9764C15.7314 9.29741 15.9522 9.59792 16.1275 9.88478L17.0177 9.77095C17.2932 9.74363 17.5413 9.93031 17.5732 10.2058C17.6142 10.479 17.4116 10.734 17.1384 10.7681L16.6216 10.8341C16.7695 11.2098 16.8492 11.5558 16.8629 11.8837L17.6415 12.1204Z" fill="#86888C"/>
</svg>
