<svg width="28" height="28" viewBox="0 0 28 28" fill="none" xmlns="http://www.w3.org/2000/svg">
<path fill-rule="evenodd" clip-rule="evenodd" d="M11.5361 19.44C15.9729 19.44 19.5865 15.8611 19.5865 11.4593C19.5865 7.0609 15.9763 3.48207 11.5361 3.48207C7.09937 3.48207 3.48575 7.0609 3.48575 11.4593C3.48917 15.8611 7.09937 19.44 11.5361 19.44ZM25.7823 24.7399C26.0726 25.0302 26.0726 25.498 25.7823 25.7849C25.6354 25.9283 25.4475 26 25.2563 26C25.065 26 24.8737 25.9283 24.7303 25.7849L17.626 18.7433C15.9729 20.099 13.8553 20.9152 11.5395 20.9152C6.2694 20.9152 2 16.6807 2 11.4559C2 6.23449 6.27281 2 11.5395 2C16.8063 2 21.0791 6.23449 21.0791 11.4559C21.0791 13.8532 20.1706 16.0353 18.6882 17.7052L25.7823 24.7399ZM11.5361 14.9835C13.319 14.9835 13.8074 14.3312 13.8074 11.9476C13.8074 10.4519 13.5923 9.65623 13.0868 9.27718C12.7589 9.03472 12.2534 8.9152 11.5361 8.9152C10.8155 8.9152 10.3065 9.03472 9.97865 9.28401C9.47999 9.66306 9.26481 10.4622 9.26481 11.9476C9.26481 14.3312 9.75323 14.9835 11.5361 14.9835ZM11.543 7.10188C10.0196 7.10188 10.0196 7.40922 10.0196 7.83608V7.85316C10.45 7.70973 10.9452 7.63119 11.5361 7.63119C12.1304 7.63119 12.6291 7.70973 13.0629 7.85316C13.0629 7.84291 13.0663 7.8395 13.0663 7.83267C13.0663 7.40922 13.0663 7.10188 11.543 7.10188ZM15.8363 10.8685C16.1949 10.8685 16.4852 11.1554 16.4852 11.5105V12.4223C16.4852 12.7775 16.1949 13.0643 15.8363 13.0643C15.4776 13.0643 15.1907 12.7775 15.1907 12.4223V12.1525H15.1019C15.0951 12.8048 15.0439 13.4365 14.8902 14.0034L15.727 14.2561C16.0105 14.3415 16.2017 14.6079 16.1847 14.9015L16.1095 16.2743C16.089 16.6158 15.8055 16.8822 15.464 16.8822H15.4298C15.0712 16.8617 14.7979 16.5612 14.8184 16.2094L14.8663 15.3352L14.3334 15.1747C13.8109 15.8441 12.9502 16.2675 11.5361 16.2675C10.1187 16.2675 9.25798 15.8406 8.7354 15.1679L8.18209 15.3318L8.22991 16.2026C8.24698 16.5578 7.97374 16.8583 7.61853 16.8788H7.58437C7.24282 16.8788 6.95933 16.6124 6.93884 16.2709L6.8637 14.8981C6.84662 14.6044 7.03789 14.3347 7.32138 14.2493L8.17867 13.9898C8.03181 13.4263 7.97716 12.7945 7.97033 12.1457H7.88152V12.4155C7.88152 12.7706 7.5912 13.0575 7.23599 13.0575C6.87736 13.0575 6.58704 12.7706 6.58704 12.4155V11.5037C6.58704 11.1485 6.87736 10.8617 7.23599 10.8617H8.01473C8.06255 10.3358 8.16501 9.82356 8.3597 9.36596L7.32138 9.05179C7.03447 8.96642 6.84662 8.70006 6.8637 8.40296L6.93884 7.03017C6.95933 6.67501 7.28381 6.4189 7.61853 6.42573C7.97716 6.44622 8.24698 6.74673 8.22991 7.10188L8.18209 7.97268L8.74907 8.14343C8.73882 8.04098 8.72174 7.93853 8.72174 7.82925C8.72174 5.81446 10.6959 5.81446 11.5395 5.81446C12.3832 5.81446 14.3573 5.81446 14.3573 7.82925C14.3573 7.93512 14.3437 8.03415 14.3334 8.13318L14.8663 7.97268L14.8184 7.09846C14.7979 6.74331 15.0746 6.4428 15.4298 6.42573C15.7816 6.44622 16.0924 6.67843 16.1095 7.03358L16.1847 8.40637C16.1983 8.70006 16.0105 8.96642 15.727 9.05179L14.7091 9.35572C14.9072 9.81673 15.0097 10.329 15.0575 10.8583H15.8363V10.8685ZM11.502 9.85088C11.8606 9.85088 12.1475 10.1377 12.1475 10.4929V13.9078C12.1475 14.2629 11.8572 14.5498 11.502 14.5498C11.1433 14.5498 10.8564 14.2629 10.8564 13.9078V10.4929C10.853 10.1377 11.1433 9.85088 11.502 9.85088Z" fill="#86888C"/>
</svg>
