<svg width="24" height="24" viewBox="0 0 24 24" fill="none" xmlns="http://www.w3.org/2000/svg">
<path fill-rule="evenodd" clip-rule="evenodd" d="M6.99283 19.5712C8.50963 19.0789 8.13968 17.8751 8.023 17.4824C7.67866 16.3811 7.06966 16.2388 6.58303 16.2388C6.29845 16.2388 6.06225 16.2957 5.97119 16.3213C5.90289 16.3384 5.82036 16.364 5.74637 16.3896C4.25518 16.8677 4.63367 18.0772 4.7475 18.4728C5.09184 19.594 5.68661 19.7334 6.17324 19.7334C6.44928 19.7334 6.69402 19.6737 6.77655 19.6424C6.85054 19.6196 6.92737 19.594 6.99283 19.5712ZM9.93537 16.2274C10.2683 16.1278 10.6212 16.3128 10.7208 16.6458C10.8204 16.973 10.6383 17.3231 10.3025 17.4227L9.35483 17.7158C9.42313 18.1426 9.40605 18.5098 9.32922 18.8285L10.1346 19.2553C10.4448 19.4147 10.5614 19.7989 10.3964 20.1005C10.2882 20.3168 10.0691 20.4363 9.84146 20.4363C9.74186 20.4363 9.63941 20.4193 9.54834 20.368L8.72876 19.9355C8.44418 20.2371 8.10837 20.4449 7.84087 20.5872L8.13399 21.5405C8.23359 21.8649 8.05146 22.2178 7.71566 22.3259C7.65589 22.343 7.59044 22.3516 7.53353 22.3516C7.26602 22.3516 7.01275 22.1751 6.93022 21.9076L6.6371 20.9543C6.49481 20.9714 6.34399 20.9884 6.17608 20.9884C5.97403 20.9884 5.75775 20.9628 5.53863 20.9144L5.09469 21.7426C4.98655 21.9503 4.76742 22.0784 4.5426 22.0784C4.443 22.0784 4.34055 22.0528 4.24949 22.0015C3.94783 21.8422 3.83116 21.458 3.98768 21.1592L4.42308 20.3311C4.18119 20.1148 3.96206 19.8217 3.77709 19.4375C3.77709 19.4375 3.77709 19.446 3.76855 19.446L2.81521 19.7391C2.74691 19.7647 2.69 19.7704 2.63023 19.7704C2.36273 19.7704 2.1123 19.5968 2.02693 19.3293C1.92733 18.9964 2.1123 18.6435 2.44526 18.5439L3.40144 18.2508C3.40998 18.2422 3.40998 18.2508 3.41852 18.2422C3.35022 17.8239 3.35876 17.4653 3.42706 17.1466L2.61601 16.7112C2.30582 16.5518 2.18914 16.1677 2.35419 15.866C2.51356 15.5558 2.89774 15.4391 3.20224 15.5985L4.01329 16.0339C4.29787 15.7237 4.63367 15.516 4.90971 15.3794L4.61659 14.426C4.51699 14.0988 4.70197 13.7487 5.03492 13.6491C5.36219 13.5495 5.71507 13.7345 5.82321 14.0589L6.11632 15.0208C6.25861 15.0037 6.40944 14.9867 6.58588 14.9867C6.77655 14.9867 6.99567 15.0123 7.2148 15.0607L7.6502 14.2325C7.8181 13.9223 8.19659 13.8057 8.50394 13.965C8.80559 14.1329 8.92227 14.5086 8.76291 14.8188L8.33604 15.6298C8.57793 15.8461 8.80559 16.1392 8.98772 16.5262L9.93537 16.2274ZM17.1381 16.6173C17.841 16.6173 18.2365 16.2246 18.5866 15.8746C19.4318 15.0322 20.59 13.8768 15.5387 8.82554C13.4215 6.71112 11.8278 5.51589 10.6639 5.15732C10.4135 5.08048 10.1858 5.04064 9.96667 5.04064C9.4402 5.04064 8.97919 5.274 8.47548 5.78624C7.7555 6.49769 7.57906 7.10668 7.84656 7.96611C8.20798 9.13004 9.41175 10.718 11.5233 12.8324C14.5085 15.8006 16.1335 16.6173 17.1381 16.6173ZM21.5519 14.5626C21.8877 14.6708 22.0726 15.0208 21.9702 15.3481C21.8877 15.6156 21.6344 15.792 21.3669 15.792C21.3071 15.792 21.2417 15.7835 21.1819 15.7607L20.3538 15.5018C20.2542 15.7693 20.0948 16.0282 19.9013 16.2787L20.5388 16.9161C20.7807 17.158 20.7807 17.5507 20.5388 17.8011C20.4136 17.9178 20.2542 17.9861 20.0948 17.9861C19.9355 17.9861 19.7761 17.9207 19.6509 17.8011L19.022 17.1751C18.8028 17.3515 18.5439 17.5166 18.2508 17.6361L18.5012 18.4471C18.6008 18.7744 18.4187 19.133 18.0914 19.2326C18.0259 19.2497 17.9662 19.2582 17.8979 19.2582C17.6304 19.2582 17.3856 19.0903 17.3031 18.8256L17.0015 17.8808C16.7083 17.8723 16.3811 17.8211 16.031 17.7072C15.9144 17.6731 15.7977 17.6219 15.6696 17.5735L15.5956 18.1996C15.5615 18.5154 15.2854 18.7431 14.9753 18.7431H14.9013C14.5569 18.7004 14.3065 18.3845 14.3577 18.0402L14.4915 16.9702C14.1301 16.7454 13.7544 16.4779 13.3532 16.1591L12.9263 17.0043C12.8182 17.2235 12.5905 17.3458 12.3657 17.3458C12.2718 17.3458 12.1722 17.3202 12.0811 17.2775C11.7709 17.1182 11.6457 16.7425 11.8051 16.4352L12.3571 15.3395C11.9559 14.9895 11.5205 14.5883 11.0765 14.1529L10.2484 14.981C10.1232 15.0977 9.96383 15.166 9.80446 15.166C9.6451 15.166 9.4772 15.0977 9.36052 14.981C9.11863 14.7305 9.11863 14.3378 9.36052 14.0959L10.1886 13.2678C9.7447 12.8153 9.35198 12.3913 8.99057 11.9815L7.89209 12.5336C7.80957 12.582 7.70712 12.5991 7.61605 12.5991C7.3827 12.5991 7.16357 12.4738 7.05543 12.2576C6.89607 11.9474 7.02128 11.5717 7.33147 11.4124L8.16814 10.9855C8.0913 10.8859 8.01731 10.7948 7.94332 10.6924C7.72419 10.3993 7.54206 10.1261 7.37416 9.85571L6.29276 9.98947H6.21023C5.90004 9.98947 5.63254 9.75327 5.58985 9.43738C5.54717 9.09589 5.7919 8.7857 6.1334 8.74301L6.77085 8.66048C6.72248 8.55234 6.68833 8.4442 6.65418 8.34175C6.5375 7.98319 6.48628 7.64738 6.47774 7.34573L5.50733 7.03554C5.17152 6.93594 4.99508 6.58306 5.09753 6.2501C5.19713 5.92284 5.55001 5.73217 5.88581 5.84031L6.73101 6.09928C6.84769 5.8147 7.01559 5.56427 7.18349 5.35652L6.52896 4.6963C6.28707 4.45441 6.28707 4.05315 6.52896 3.81126C6.77085 3.56937 7.17496 3.56937 7.41685 3.81126L8.07992 4.47149C8.2962 4.30358 8.54093 4.14422 8.82551 4.02754L8.55801 3.16527C8.44987 2.838 8.632 2.48797 8.9678 2.37983C9.29507 2.27738 9.65648 2.46236 9.75609 2.78963L10.0663 3.79419C10.3679 3.80273 10.6867 3.85395 11.0367 3.96209C11.1448 3.99624 11.2558 4.03608 11.3725 4.07877L11.455 3.41854C11.5062 3.07705 11.8164 2.83231 12.1579 2.875C12.5023 2.92338 12.7442 3.23357 12.7015 3.57791L12.5592 4.6963C12.9206 4.91258 13.2962 5.18293 13.689 5.49028L14.1329 4.61377C14.2837 4.30358 14.6594 4.17837 14.9781 4.33773C15.2883 4.4971 15.405 4.87274 15.2541 5.18293L14.685 6.30986C15.0862 6.6599 15.516 7.05546 15.9571 7.49656L16.8108 6.63713C17.0612 6.39524 17.4568 6.39524 17.6987 6.63713C17.9491 6.88756 17.9491 7.28028 17.6987 7.52217L16.8449 8.3759C17.2803 8.817 17.6731 9.24387 18.0345 9.64513L19.1643 9.07881C19.4744 8.92799 19.8501 9.0532 20.0095 9.36339C20.1603 9.67074 20.0351 10.0492 19.7249 10.2001L18.8541 10.6326C19.1643 11.0339 19.4403 11.4095 19.6594 11.7681L20.7721 11.6258C21.1165 11.5916 21.4267 11.825 21.4665 12.1693C21.5177 12.5108 21.2644 12.8296 20.923 12.8722L20.277 12.9548C20.4619 13.4243 20.5615 13.8569 20.5786 14.2667L21.5519 14.5626Z" fill="#86888C"/>
</svg>
