<svg width="20" height="20" viewBox="0 0 20 20" fill="none" xmlns="http://www.w3.org/2000/svg">
<path fill-rule="evenodd" clip-rule="evenodd" d="M8.35742 13.6266C11.3153 13.6266 13.7243 11.2408 13.7243 8.3062C13.7243 5.37393 11.3175 2.98805 8.35742 2.98805C5.39958 2.98805 2.9905 5.37393 2.9905 8.3062C2.99278 11.2408 5.39958 13.6266 8.35742 13.6266ZM17.8548 17.1599C18.0484 17.3534 18.0484 17.6653 17.8548 17.8566C17.7569 17.9522 17.6317 18 17.5042 18C17.3767 18 17.2492 17.9522 17.1535 17.8566L12.4173 13.1622C11.3153 14.066 9.90351 14.6101 8.3597 14.6101C4.84627 14.6101 2 11.7871 2 8.30393C2 4.82299 4.84854 2 8.3597 2C11.8708 2 14.7194 4.82299 14.7194 8.30393C14.7194 9.90211 14.1137 11.3569 13.1255 12.4701L17.8548 17.1599ZM8.35742 10.6557C9.54602 10.6557 9.87163 10.2208 9.87163 8.63176C9.87163 7.63461 9.72818 7.10416 9.39118 6.85145C9.17259 6.68981 8.83559 6.61013 8.35742 6.61013C7.87697 6.61013 7.53769 6.68981 7.3191 6.856C6.98666 7.10871 6.84321 7.64144 6.84321 8.63176C6.84321 10.2208 7.16882 10.6557 8.35742 10.6557ZM8.36197 5.40125C7.34643 5.40125 7.34643 5.60615 7.34643 5.89072V5.90211C7.63333 5.80649 7.9635 5.75413 8.35742 5.75413C8.75362 5.75413 9.08606 5.80649 9.37524 5.90211C9.37524 5.89528 9.37752 5.893 9.37752 5.88845C9.37752 5.60615 9.37752 5.40125 8.36197 5.40125ZM11.2242 7.91235C11.4633 7.91235 11.6568 8.10359 11.6568 8.34035V8.94821C11.6568 9.18498 11.4633 9.37621 11.2242 9.37621C10.9851 9.37621 10.7938 9.18498 10.7938 8.94821V8.76836H10.7346C10.7301 9.20319 10.6959 9.62436 10.5934 10.0023L11.1513 10.1707C11.3403 10.2277 11.4678 10.4052 11.4564 10.601L11.4063 11.5162C11.3927 11.7439 11.2037 11.9215 10.976 11.9215H10.9532C10.7141 11.9078 10.532 11.7075 10.5456 11.473L10.5775 10.8902L10.2223 10.7832C9.87391 11.2294 9.3001 11.5117 8.35742 11.5117C7.41246 11.5117 6.83865 11.2271 6.49027 10.7786L6.12139 10.8879L6.15327 11.4684C6.16466 11.7052 5.9825 11.9055 5.74569 11.9192H5.72292C5.49521 11.9192 5.30622 11.7416 5.29256 11.5139L5.24247 10.5987C5.23108 10.403 5.35859 10.2231 5.54759 10.1662L6.11912 9.99317C6.0212 9.61753 5.98477 9.19636 5.98022 8.7638H5.92102V8.94365C5.92102 9.18042 5.72747 9.37166 5.49066 9.37166C5.25157 9.37166 5.05803 9.18042 5.05803 8.94365V8.3358C5.05803 8.09903 5.25157 7.9078 5.49066 7.9078H6.00982C6.0417 7.5572 6.11001 7.21571 6.2398 6.91064L5.54759 6.7012C5.35632 6.64428 5.23108 6.4667 5.24247 6.26864L5.29256 5.35344C5.30622 5.11668 5.52254 4.94593 5.74569 4.95048C5.98477 4.96414 6.16466 5.16449 6.15327 5.40125L6.12139 5.98179L6.49938 6.09562C6.49255 6.02732 6.48116 5.95902 6.48116 5.88617C6.48116 4.54297 7.79727 4.54297 8.3597 4.54297C8.92212 4.54297 10.2382 4.54297 10.2382 5.88617C10.2382 5.95674 10.2291 6.02277 10.2223 6.08879L10.5775 5.98179L10.5456 5.39898C10.532 5.16221 10.7164 4.96187 10.9532 4.95048C11.1877 4.96414 11.395 5.11895 11.4063 5.35572L11.4564 6.27092C11.4655 6.4667 11.3403 6.64428 11.1513 6.7012L10.4728 6.90381C10.6048 7.21116 10.6731 7.55265 10.705 7.90552H11.2242V7.91235ZM8.33465 7.23392C8.57374 7.23392 8.76501 7.42516 8.76501 7.66192V9.93853C8.76501 10.1753 8.57146 10.3665 8.33465 10.3665C8.09556 10.3665 7.90429 10.1753 7.90429 9.93853V7.66192C7.90202 7.42516 8.09556 7.23392 8.33465 7.23392Z" fill="#86888C"/>
</svg>
