<svg width="24" height="24" viewBox="0 0 24 24" fill="none" xmlns="http://www.w3.org/2000/svg">
<path fill-rule="evenodd" clip-rule="evenodd" d="M20.6298 15.7302V12.9748C20.6298 12.8518 20.5336 12.7556 20.416 12.7556H12.8126C12.0081 12.7556 11.356 13.4264 11.356 14.2496V14.4527C11.356 15.2758 12.0108 15.9466 12.8126 15.9466H20.416C20.5336 15.9493 20.6298 15.8504 20.6298 15.7302ZM19.1813 18.6593L19.1786 17.1332H12.8126C11.3748 17.1332 10.2015 15.9306 10.2015 14.4553V14.2522C10.2015 12.7743 11.3721 11.5743 12.8126 11.5743H19.1652L19.1626 10.1445C19.1839 9.7089 19.0877 9.38017 18.8846 9.15568C18.6788 8.92851 18.3635 8.80825 17.976 8.80557L5.36419 8.80825V8.80023C4.93124 8.80023 4.51966 8.67195 4.1562 8.45013V18.5684C4.13482 18.996 4.23103 19.3247 4.43681 19.5465C4.64527 19.7764 4.974 19.902 5.36419 19.9047L17.976 19.902C18.2993 19.902 18.6013 19.7737 18.8285 19.5385C19.0557 19.3033 19.1813 18.9907 19.1813 18.6593ZM4.1562 6.34148V6.37355C4.1562 6.67555 4.26577 6.96152 4.46087 7.18868C4.48759 6.41632 5.11297 5.79361 5.88534 5.79361L16.5969 5.02392V4.31302L5.40161 5.10142C5.04081 5.10409 4.73614 5.23238 4.50897 5.46489C4.28181 5.70007 4.1562 6.01009 4.1562 6.34148ZM17.1715 6.17044L5.92542 6.97755C5.733 6.98022 5.60739 7.09514 5.60739 7.23679V7.56017C5.60739 7.57887 5.59937 7.59758 5.5967 7.61629L17.7247 7.61896V6.41097C17.7247 6.26932 17.5991 6.15173 17.4468 6.15173L17.1742 6.17044H17.1715ZM20.416 11.5717C21.1696 11.5717 21.7817 12.1997 21.7817 12.9748V15.7302C21.7817 16.5025 21.167 17.1332 20.416 17.1332H20.3331L20.3358 18.6593C20.3358 19.306 20.0926 19.9154 19.6463 20.3724C19.2 20.832 18.6067 21.0833 17.976 21.0833L5.35884 21.0859C4.64795 21.0806 4.02257 20.8187 3.59763 20.3537C3.1727 19.8886 2.96691 19.2606 3.00433 18.5337V6.34148C3.00433 5.69473 3.2502 5.08539 3.69385 4.62838C4.14016 4.1687 4.73347 3.91748 5.36419 3.91748L17.1341 3.08632C17.3051 3.08097 17.4521 3.13175 17.567 3.244C17.6846 3.35625 17.7488 3.51125 17.7488 3.67695V5.00788C18.4062 5.15754 18.8793 5.7268 18.8793 6.4083V7.78466C19.2053 7.9076 19.494 8.092 19.7238 8.34055C20.1487 8.80557 20.3518 9.4363 20.3144 10.1712L20.3171 11.5717H20.416ZM12.9943 13.4772C13.5074 13.4772 13.9244 13.9048 13.9244 14.4313C13.9244 14.9578 13.5074 15.3854 12.9943 15.3854C12.4812 15.3854 12.0669 14.9578 12.0669 14.4313C12.0669 13.9048 12.4812 13.4772 12.9943 13.4772Z" fill="#86888C"/>
</svg>
