<svg width="40" height="40" viewBox="0 0 40 40" fill="none" xmlns="http://www.w3.org/2000/svg">
<path fill-rule="evenodd" clip-rule="evenodd" d="M36.2802 27.6719V22.3142C36.2802 22.0751 36.0931 21.8881 35.8644 21.8881H21.08C19.5158 21.8881 18.2479 23.1924 18.2479 24.793V25.1879C18.2479 26.7885 19.521 28.0928 21.08 28.0928H35.8644C36.0931 28.098 36.2802 27.9058 36.2802 27.6719ZM33.4636 33.3674L33.4584 30.4001H21.08C18.2842 30.4001 16.0029 28.0617 16.0029 25.1931V24.7982C16.0029 21.9244 18.279 19.5912 21.08 19.5912H33.4324L33.4272 16.811C33.4688 15.9639 33.2817 15.3247 32.8868 14.8882C32.4866 14.4465 31.8734 14.2127 31.1199 14.2075L6.59703 14.2127V14.1971C5.75518 14.1971 4.9549 13.9476 4.24816 13.5163V33.1907C4.20659 34.0222 4.39367 34.6614 4.79381 35.0927C5.19914 35.5396 5.83833 35.7838 6.59703 35.789L31.1199 35.7838C31.7487 35.7838 32.3359 35.5344 32.7776 35.0771C33.2193 34.6198 33.4636 34.0118 33.4636 33.3674ZM4.24816 9.41617V9.47853C4.24816 10.0657 4.46122 10.6218 4.84058 11.0635C4.89254 9.56167 6.10855 8.35086 7.61038 8.35086L28.4384 6.85423V5.47193L6.66979 7.00493C5.96824 7.01013 5.37583 7.25957 4.93412 7.71167C4.4924 8.16898 4.24816 8.77178 4.24816 9.41617ZM29.5557 9.08358L7.68833 10.653C7.31417 10.6582 7.06993 10.8816 7.06993 11.157V11.7858C7.06993 11.8222 7.05434 11.8586 7.04914 11.895L30.6314 11.9002V9.55128C30.6314 9.27586 30.3872 9.04721 30.091 9.04721L29.5609 9.08358H29.5557ZM35.8644 19.586C37.3299 19.586 38.5199 20.8072 38.5199 22.3142V27.6719C38.5199 29.1737 37.3247 30.4001 35.8644 30.4001H35.7033L35.7085 33.3674C35.7085 34.625 35.2356 35.8098 34.3678 36.6984C33.5 37.5923 32.3463 38.0807 31.1199 38.0807L6.58664 38.0859C5.20434 38.0755 3.98833 37.5663 3.16207 36.6621C2.3358 35.7579 1.93566 34.5366 2.00842 33.1232V9.41617C2.00842 8.15858 2.48651 6.97375 3.34914 6.08513C4.21698 5.19131 5.37063 4.70283 6.59703 4.70283L29.483 3.08668C29.8156 3.07629 30.1014 3.17502 30.3248 3.39328C30.5535 3.61154 30.6782 3.91294 30.6782 4.23513V6.82305C31.9566 7.11406 32.8764 8.22094 32.8764 9.54608V12.2223C33.5103 12.4614 34.0716 12.82 34.5185 13.3032C35.3448 14.2075 35.7397 15.4339 35.667 16.8629L35.6721 19.586H35.8644ZM21.4334 23.2912C22.4311 23.2912 23.2418 24.1226 23.2418 25.1463C23.2418 26.1701 22.4311 27.0015 21.4334 27.0015C20.4356 27.0015 19.6302 26.1701 19.6302 25.1463C19.6302 24.1226 20.4356 23.2912 21.4334 23.2912Z" fill="#86888C"/>
</svg>
