<svg width="28" height="28" viewBox="0 0 28 28" fill="none" xmlns="http://www.w3.org/2000/svg">
<path fill-rule="evenodd" clip-rule="evenodd" d="M14.5168 24.4735H14.4758C12.2527 24.4735 10.518 23.8623 9.31933 22.6534C8.11728 21.4377 7.5026 19.6653 7.49577 17.3842C7.48211 13.3307 12.2937 6.40524 14.4588 3.88162C16.4326 6.19693 21.4764 13.0882 21.4901 17.3398C21.5071 21.926 19.0279 24.4599 14.5168 24.4735ZM14.9983 2.21514C14.7149 1.92829 14.2163 1.92829 13.9363 2.21514C12.3176 3.86113 5.98296 12.1559 6.00003 17.3876C6.00686 20.0512 6.79229 22.2436 8.26754 23.7359C9.73595 25.218 11.8839 26 14.4827 26H14.5237C19.8441 25.9829 23.0131 22.7456 22.9995 17.3364C22.979 11.7154 15.9921 3.22595 14.9983 2.21514Z" fill="#86888C"/>
</svg>
