<svg width="40" height="40" viewBox="0 0 40 40" fill="none" xmlns="http://www.w3.org/2000/svg">
<path d="M3.02448 12.441C2.76258 12.441 2.50068 12.3434 2.30041 12.1431C1.89986 11.7426 1.89986 11.0904 2.30041 10.6899L2.33122 10.6539C4.64208 8.35848 7.32267 6.55601 10.3011 5.29275C13.4028 3.97813 16.6996 3.31055 20.1043 3.31055C23.4781 3.31055 26.7595 3.96786 29.8509 5.26707C32.8037 6.50979 35.4637 8.28145 37.7438 10.5307C38.1495 10.9312 38.1546 11.5783 37.754 11.9839C37.3535 12.3896 36.7065 12.3948 36.3008 11.9942C34.2056 9.92986 31.7664 8.30199 29.055 7.16197C26.2152 5.97059 23.2008 5.36464 20.1043 5.36464C16.9769 5.36464 13.9522 5.97573 11.1022 7.18251C8.36512 8.34307 5.90021 9.99661 3.77936 12.1072L3.74855 12.138C3.54827 12.3383 3.28638 12.441 3.02448 12.441Z" fill="#86888C"/>
<path d="M7.55374 18.0538C7.29185 18.0538 7.03509 17.9562 6.83481 17.7611C6.42913 17.3657 6.42399 16.7135 6.82454 16.3078L6.86049 16.2719C8.56538 14.5772 10.5476 13.2421 12.7455 12.3023C15.0717 11.3112 17.5469 10.808 20.0991 10.808C22.6205 10.808 25.0649 11.301 27.3757 12.2715C29.5582 13.1907 31.5199 14.4951 33.2145 16.1589C33.6202 16.5543 33.6253 17.2065 33.2299 17.6122C32.8345 18.0178 32.1823 18.023 31.7766 17.6276C30.2669 16.1486 28.5209 14.9829 26.5798 14.1664C24.5257 13.2986 22.3432 12.8621 20.0991 12.8621C17.8242 12.8621 15.6212 13.3088 13.5517 14.1921C11.59 15.0291 9.82352 16.2205 8.30349 17.7303L8.28295 17.7508C8.08267 17.9511 7.82078 18.0538 7.55374 18.0538ZM12.083 23.6615C11.8211 23.6615 11.5592 23.5587 11.3589 23.3585C10.9584 22.9579 10.9584 22.3058 11.3589 21.9052C12.4682 20.796 13.752 19.9179 15.1847 19.3016C16.7355 18.6289 18.3891 18.29 20.0888 18.29C21.7527 18.29 23.3703 18.6187 24.8954 19.2606C26.3025 19.8511 27.576 20.6984 28.6801 21.7666C29.0858 22.162 29.096 22.8141 28.7006 23.2198C28.3052 23.6255 27.653 23.6358 27.2474 23.2404C26.3281 22.3468 25.2652 21.6433 24.0943 21.1503C22.8259 20.6111 21.4754 20.339 20.0888 20.339C18.6664 20.339 17.2901 20.6214 16.0012 21.1811C14.8098 21.6947 13.7366 22.429 12.8122 23.3533C12.6119 23.5639 12.35 23.6615 12.083 23.6615Z" fill="#86888C"/>
<path d="M20.0221 33.3105C18.7948 33.3105 17.8191 32.9716 17.1207 32.2989C16.3966 31.6005 16.0269 30.594 16.0269 29.3153C16.0269 28.0367 16.3966 27.0302 17.1207 26.3318C17.8191 25.6591 18.7948 25.3201 20.0221 25.3201C21.2494 25.3201 22.2251 25.6591 22.9235 26.3318C23.6475 27.0302 24.0173 28.0367 24.0173 29.3153C24.0173 30.594 23.6475 31.6005 22.9235 32.2989C22.2302 32.9716 21.2545 33.3105 20.0221 33.3105ZM20.0221 27.3742C18.6458 27.3742 18.081 27.9391 18.081 29.3153C18.081 30.6916 18.6458 31.2565 20.0221 31.2565C21.3983 31.2565 21.9632 30.6916 21.9632 29.3153C21.9632 28.6118 21.8091 28.1086 21.4959 27.8107C21.198 27.518 20.7051 27.3742 20.0221 27.3742Z" fill="#86888C"/>
</svg>
