<svg width="24" height="24" viewBox="0 0 24 24" fill="none" xmlns="http://www.w3.org/2000/svg">
<path fill-rule="evenodd" clip-rule="evenodd" d="M21.7538 10.825C21.7765 10.7681 21.768 10.7225 21.7168 10.6713L15.5016 4.29918C15.4019 4.19673 15.1885 4.19673 15.0918 4.29918L9.7559 9.76912C10.5157 9.79758 11.0991 10.0139 11.526 10.4436C11.9813 10.9047 12.2033 11.5393 12.2033 12.3846V17.809H19.7759C19.9268 17.809 20.0292 17.7122 20.0292 17.624V11.5848C20.0292 11.2433 20.3052 10.9644 20.6467 10.9644H21.5147C21.6855 10.9616 21.7424 10.8563 21.7538 10.825ZM10.9682 20.3732V12.3789C10.9682 11.878 10.8629 11.5279 10.6495 11.3116C10.436 11.0953 10.0889 10.99 9.588 10.99H5.61243C5.12011 10.99 4.77293 11.0982 4.5538 11.3202C4.33752 11.5393 4.23223 11.8865 4.23223 12.376V20.3703C4.23223 20.8769 4.33752 21.227 4.55096 21.4404C4.76439 21.6539 5.11158 21.7563 5.61243 21.7563H9.588C10.0889 21.7563 10.436 21.6539 10.6466 21.4404C10.8629 21.2298 10.9682 20.8798 10.9682 20.3732ZM22.5961 9.80043C22.9945 10.2074 23.1083 10.7851 22.8921 11.3031C22.6644 11.8467 22.1209 12.1996 21.5119 12.1996H21.2586V17.6183C21.2586 18.4038 20.5927 19.0441 19.7731 19.0441H12.2004V20.3732C12.2004 21.227 11.9756 21.8645 11.5146 22.3255C11.0621 22.7809 10.4304 23 9.588 23H5.61243C4.77008 23 4.13832 22.7809 3.68299 22.3255C3.22197 21.8673 3 21.2298 3 20.376V12.3817C3 11.5478 3.22197 10.916 3.6773 10.4522C4.13832 9.98257 4.77293 9.75489 5.61243 9.75489H8.03989L14.2096 3.43116C14.7702 2.85628 15.8231 2.85628 16.3809 3.43116L22.5961 9.80043ZM7.5988 19.5478C8.01997 19.5478 8.27325 19.804 8.27325 20.228C8.27325 20.4358 8.21349 20.6009 8.09681 20.7232C7.98013 20.8456 7.80654 20.9082 7.5988 20.9082C7.39105 20.9082 7.22031 20.8428 7.10078 20.7232C6.98411 20.6037 6.92434 20.4358 6.92434 20.228C6.92719 19.8011 7.17762 19.5478 7.5988 19.5478ZM15.4475 14.4735C15.6751 14.4707 15.6751 14.3682 15.6751 14.2686C15.6751 14.169 15.6751 14.0665 15.4873 14.0608H15.4418C15.2796 14.0608 15.2682 14.1434 15.2682 14.2629C15.2654 14.3881 15.2796 14.4735 15.4475 14.4735ZM15.4987 13.2383C16.0024 13.2526 16.4976 13.577 16.4976 14.2714C16.4976 14.9687 16.0024 15.2903 15.5101 15.3017C14.9466 15.296 14.4458 14.9744 14.4458 14.2686C14.4458 13.5628 14.9438 13.2412 15.4361 13.2383H15.4987ZM15.4333 8.32337C15.5101 8.31768 17.7924 8.201 19.3263 9.9285C19.4771 10.0993 19.4629 10.3611 19.2921 10.5119C19.2153 10.5831 19.1157 10.6172 19.0189 10.6172C18.908 10.6172 18.7941 10.5717 18.7116 10.4806C17.4481 9.06048 15.4731 9.1487 15.4589 9.1487C13.3615 9.17147 12.263 10.344 12.2204 10.3924C12.0667 10.5603 11.8077 10.5745 11.6398 10.418C11.4719 10.2643 11.4605 10.0053 11.6114 9.83742C11.6711 9.77481 12.983 8.34899 15.4333 8.32337ZM15.4389 9.9598C15.5129 9.9598 17.3257 9.8915 18.4868 11.2006C18.6376 11.3714 18.6234 11.6304 18.4526 11.7841C18.2847 11.9349 18.0229 11.9207 17.8721 11.7499C16.9643 10.7311 15.4788 10.7737 15.4589 10.7851C13.9648 10.8022 13.0741 11.7613 13.0656 11.7698C12.9859 11.8609 12.872 11.9036 12.7611 11.9036C12.6615 11.9036 12.5647 11.8666 12.485 11.7983C12.3171 11.6446 12.3029 11.3856 12.4537 11.2177C12.5021 11.1693 13.5863 9.97972 15.4389 9.9598ZM15.4503 11.6332C15.4845 11.6275 16.7082 11.5848 17.4908 12.4699C17.6416 12.6407 17.6274 12.8997 17.4566 13.0534C17.2887 13.2042 17.0269 13.19 16.8761 13.0192C16.3553 12.4358 15.4759 12.4472 15.4702 12.4586C14.5909 12.4671 14.0843 13.0107 14.0616 13.0334C13.9791 13.1217 13.8681 13.1672 13.7571 13.1672C13.6575 13.1672 13.5607 13.1302 13.481 13.0619C13.3131 12.9082 13.3018 12.6492 13.4526 12.4813C13.481 12.4443 14.2124 11.6475 15.4503 11.6332Z" fill="#86888C"/>
</svg>
