<svg width="40" height="40" viewBox="0 0 40 40" fill="none" xmlns="http://www.w3.org/2000/svg">
<path fill-rule="evenodd" clip-rule="evenodd" d="M35.649 19.6645C35.7258 19.4955 35.7565 19.2394 35.4902 18.9782L20.7143 4.4379C20.535 4.26376 20.2738 4.16133 19.9973 4.16133C19.7207 4.16133 19.4544 4.26376 19.2802 4.4379L4.5043 18.9782C4.23798 19.2394 4.27383 19.4955 4.34553 19.6645C4.45308 19.9052 4.73477 20.1665 5.22133 20.1665H7.07536C7.70533 20.1665 8.22261 20.6633 8.22261 21.2727V35.0499C8.22261 35.4545 8.63746 35.7823 9.14963 35.7823H30.6503C31.1573 35.7823 31.5722 35.4545 31.5722 35.0499V21.2727C31.5722 20.6633 32.0843 20.1665 32.7194 20.1665H34.7834C35.2597 20.1665 35.5466 19.9104 35.649 19.6645ZM37.1291 17.4315C37.9845 18.2714 38.2252 19.4545 37.7642 20.525C37.2725 21.6517 36.0997 22.379 34.7783 22.379H33.8564V35.0551C33.8564 36.6786 32.4172 38 30.6451 38H9.14451C7.37242 38 5.92812 36.6786 5.92812 35.0551V22.379H5.21621C3.89483 22.379 2.72197 21.6517 2.23029 20.525C1.76935 19.4597 2.01006 18.2766 2.86538 17.4315L17.6464 2.89117C18.8551 1.70294 21.1394 1.70294 22.3532 2.89117L37.1291 17.4315ZM19.9358 30.6095C20.6938 30.5992 20.6938 30.1895 20.6938 29.9437C20.6938 29.6978 20.6938 29.2881 20.0434 29.2727H19.9204C19.3519 29.2778 19.3058 29.6005 19.3058 29.9385C19.3058 30.1997 19.3058 30.6044 19.9358 30.6095ZM20.0024 27.3572C21.375 27.3931 22.6759 28.2023 22.6759 29.9437C22.6759 31.6953 21.3801 32.4994 20.0946 32.525H19.9102C18.6247 32.5096 17.3238 31.7004 17.3238 29.9334C17.3238 28.1665 18.6195 27.3624 19.9051 27.3521C19.9051 27.3572 19.9973 27.3572 20.0024 27.3572ZM19.8948 14.2868C20.0894 14.2663 26.3635 13.9641 30.5786 18.5173C30.9985 18.9731 30.9576 19.6697 30.4864 20.0794C30.2661 20.2689 29.9947 20.3611 29.7233 20.3611C29.4108 20.3611 29.0933 20.2382 28.8679 19.9923C25.4006 16.2484 20.028 16.4891 19.9665 16.4942C14.1791 16.5557 11.1368 19.726 11.1061 19.7567C10.681 20.2074 9.95885 20.2382 9.48766 19.8335C9.01646 19.4238 8.98061 18.7273 9.40571 18.2714C9.56448 18.1127 13.1701 14.3585 19.8948 14.2868ZM19.9051 18.5941C20.0792 18.5787 25.083 18.42 28.2738 21.8668C28.6938 22.3227 28.6528 23.0192 28.1816 23.4289C27.7053 23.8335 26.9883 23.7977 26.5632 23.3419C24.1099 20.6889 20.0126 20.8067 19.9614 20.8067C15.8846 20.8528 13.4467 23.3726 13.4211 23.3982C13.1957 23.6389 12.8833 23.7567 12.5709 23.7567C12.2994 23.7567 12.0229 23.6645 11.8026 23.4699C11.3366 23.0602 11.2956 22.3688 11.7207 21.9129C11.8487 21.7746 14.8244 18.6453 19.9051 18.5941ZM19.9358 22.9936C20.0434 22.9936 23.3929 22.8707 25.5491 25.1959C25.9691 25.6517 25.9281 26.3483 25.4569 26.758C24.9857 27.1626 24.2636 27.1268 23.8385 26.6709C22.43 25.1447 20.028 25.2061 19.9973 25.201C17.5952 25.2266 16.2072 26.6453 16.1509 26.7068C15.9256 26.9424 15.6131 27.0653 15.3058 27.0653C15.0293 27.0653 14.7527 26.968 14.5325 26.7785C14.0664 26.3688 14.0306 25.6773 14.4505 25.2266C14.5376 25.1344 16.5402 23.0294 19.9358 22.9936Z" fill="#86888C"/>
</svg>
