<svg width="40" height="40" viewBox="0 0 40 40" fill="none" xmlns="http://www.w3.org/2000/svg">
<path fill-rule="evenodd" clip-rule="evenodd" d="M35.7568 16.085C35.7977 15.9825 35.7824 15.9005 35.6902 15.8083L24.5028 4.33853C24.3235 4.15411 23.9393 4.15411 23.7652 4.33853L14.1606 14.1844C15.5283 14.2356 16.5784 14.625 17.3468 15.3985C18.1664 16.2284 18.5659 17.3708 18.5659 18.8922V28.6561H32.1967C32.4682 28.6561 32.6526 28.482 32.6526 28.3232V17.4527C32.6526 16.838 33.1494 16.336 33.7641 16.336H35.3265C35.6338 16.3308 35.7363 16.1413 35.7568 16.085ZM16.3428 33.2717V18.882C16.3428 17.9804 16.1532 17.3503 15.7691 16.9609C15.3849 16.5716 14.7599 16.3821 13.8584 16.3821H6.70238C5.8162 16.3821 5.19127 16.5767 4.79684 16.9763C4.40754 17.3708 4.21801 17.9957 4.21801 18.8768V33.2666C4.21801 34.1784 4.40754 34.8085 4.79172 35.1927C5.1759 35.5769 5.80084 35.7614 6.70238 35.7614H13.8584C14.7599 35.7614 15.3849 35.5769 15.7639 35.1927C16.1532 34.8137 16.3428 34.1836 16.3428 33.2717ZM37.273 14.2408C37.9901 14.9733 38.195 16.0132 37.8057 16.9456C37.3959 17.924 36.4175 18.5592 35.3213 18.5592H34.8654V28.3129C34.8654 29.7268 33.6668 30.8794 32.1915 30.8794H18.5608V33.2717C18.5608 34.8085 18.1561 35.956 17.3263 36.7859C16.5118 37.6055 15.3746 38 13.8584 38H6.70238C5.18615 38 4.04897 37.6055 3.22938 36.7859C2.39955 35.9612 2 34.8137 2 33.2768V18.8871C2 17.3861 2.39955 16.2489 3.21914 15.4139C4.04897 14.5686 5.19127 14.1588 6.70238 14.1588H11.0718L22.1772 2.77609C23.1863 1.7413 25.0816 1.7413 26.0856 2.77609L37.273 14.2408ZM10.2778 31.7861C11.036 31.7861 11.4918 32.2472 11.4918 33.0105C11.4918 33.3844 11.3843 33.6815 11.1743 33.9018C10.9642 34.1221 10.6518 34.2348 10.2778 34.2348C9.9039 34.2348 9.59655 34.117 9.38141 33.9018C9.17139 33.6867 9.06382 33.3844 9.06382 33.0105C9.06894 32.2421 9.51971 31.7861 10.2778 31.7861ZM24.4055 22.6523C24.8153 22.6472 24.8153 22.4628 24.8153 22.2835C24.8153 22.1042 24.8153 21.9197 24.4772 21.9095H24.3952C24.1032 21.9095 24.0828 22.0581 24.0828 22.2732C24.0776 22.4986 24.1032 22.6523 24.4055 22.6523ZM24.4977 20.429C25.4043 20.4546 26.2956 21.0386 26.2956 22.2886C26.2956 23.5436 25.4043 24.1225 24.5182 24.143C23.5039 24.1328 22.6024 23.5539 22.6024 22.2835C22.6024 21.013 23.4988 20.4342 24.385 20.429H24.4977ZM24.3799 11.5821C24.5182 11.5718 28.6263 11.3618 31.3873 14.4713C31.6588 14.7787 31.6332 15.2499 31.3259 15.5215C31.1876 15.6495 31.0083 15.711 30.8341 15.711C30.6343 15.711 30.4294 15.629 30.2809 15.4651C28.0065 12.9089 24.4516 13.0677 24.426 13.0677C20.6507 13.1086 18.6735 15.2192 18.5966 15.3063C18.32 15.6085 17.8539 15.6342 17.5517 15.3524C17.2494 15.0758 17.229 14.6096 17.5004 14.3074C17.608 14.1947 19.9695 11.6282 24.3799 11.5821ZM24.3901 14.5276C24.5233 14.5276 27.7863 14.4047 29.8762 16.7612C30.1477 17.0685 30.1221 17.5347 29.8147 17.8113C29.5125 18.0828 29.0413 18.0572 28.7698 17.7498C27.1357 15.9159 24.4618 15.9927 24.426 16.0132C21.7367 16.044 20.1334 17.7703 20.118 17.7857C19.9746 17.9496 19.7697 18.0265 19.5699 18.0265C19.3906 18.0265 19.2165 17.9599 19.073 17.8369C18.7708 17.5603 18.7452 17.0941 19.0167 16.7919C19.1038 16.7048 21.0554 14.5635 24.3901 14.5276ZM24.4106 17.5398C24.4721 17.5296 26.6747 17.4527 28.0834 19.0459C28.3549 19.3533 28.3292 19.8194 28.0219 20.0961C27.7197 20.3676 27.2484 20.3419 26.9769 20.0346C26.0395 18.9844 24.4567 19.0049 24.4464 19.0254C22.8636 19.0408 21.9518 20.0192 21.9108 20.0602C21.7623 20.219 21.5625 20.301 21.3627 20.301C21.1835 20.301 21.0093 20.2344 20.8659 20.1114C20.5637 19.8348 20.5432 19.3686 20.8146 19.0664C20.8659 18.9998 22.1823 17.5654 24.4106 17.5398Z" fill="#86888C"/>
</svg>
