<svg width="24" height="24" viewBox="0 0 24 24" fill="none" xmlns="http://www.w3.org/2000/svg">
<path fill-rule="evenodd" clip-rule="evenodd" d="M8.30575 16.2146H10.114V15.3865H8.30575V16.2146ZM18.5673 20.597C18.5673 20.671 18.4721 20.7706 18.3741 20.7706H6.38276C6.28479 20.7706 6.18682 20.6596 6.18682 20.597V3.40296C6.19242 3.34035 6.30718 3.22652 6.38276 3.22652H8.63604V5.23847H7.70114C7.37364 5.23847 7.10773 5.51451 7.10773 5.85316C7.10773 6.1918 7.37364 6.46784 7.70114 6.46784H8.63604V8.01594H7.70114C7.37364 8.01594 7.10773 8.29198 7.10773 8.63062C7.10773 8.96927 7.37364 9.2453 7.70114 9.2453H8.63604V10.7934H7.70114C7.37364 10.7934 7.10773 11.0694 7.10773 11.4081C7.10773 11.7467 7.37364 12.0228 7.70114 12.0228H8.63604V13.9124H7.70954C7.38204 13.9124 7.11613 14.1884 7.11613 14.527V16.8293C7.11613 17.1679 7.38204 17.4439 7.70954 17.4439H10.7074C11.0349 17.4439 11.3008 17.1679 11.3008 16.8293V14.527C11.3008 14.1884 11.0349 13.9124 10.7074 13.9124H9.82286V13.4115H10.7298C11.0573 13.4115 11.3232 13.1355 11.3232 12.7968C11.3232 12.4582 11.0573 12.1821 10.7298 12.1821H9.82286V10.634H10.7298C11.0573 10.634 11.3232 10.358 11.3232 10.0194C11.3232 9.68071 11.0573 9.40467 10.7298 9.40467H9.82286V7.85657H10.7298C11.0573 7.85657 11.3232 7.58053 11.3232 7.24189C11.3232 6.90324 11.0573 6.62721 10.7298 6.62721H9.82286V5.07911H10.7298C11.0573 5.07911 11.3232 4.80307 11.3232 4.46443C11.3232 4.12578 11.0573 3.84974 10.7298 3.84974H9.82286V3.22652H12.8179V5.48606C12.8179 6.4963 13.1566 7.3671 13.7948 8.00455C14.4274 8.63631 15.2895 8.97211 16.286 8.97211H18.5645V20.597H18.5673ZM14.0075 3.68469L18.069 7.74559H16.286C15.603 7.74559 15.0264 7.52931 14.6205 7.12521C14.2203 6.72396 14.0075 6.15766 14.0075 5.4889V3.68469ZM19.4966 7.46101L14.2846 2.25043C14.1223 2.08822 13.9096 2 13.6828 2H6.38276C5.65779 2 5 2.66875 5 3.40296V20.597C5 21.3426 5.64659 22 6.38276 22H18.3713C19.1215 22 19.7541 21.3569 19.7541 20.597V8.09277C19.7541 7.85657 19.6617 7.62607 19.4966 7.46101Z" fill="#86888C"/>
</svg>
