<svg width="20" height="20" viewBox="0 0 20 20" fill="none" xmlns="http://www.w3.org/2000/svg">
<path fill-rule="evenodd" clip-rule="evenodd" d="M8.3927 14.7135C4.86199 14.7135 2 11.8515 2 8.32079C2 6.62505 2.67328 5.00006 3.87148 3.79958C6.40939 1.34383 10.4559 1.41002 12.9116 3.94564C15.2053 6.31346 15.3078 10.0122 13.2191 12.499L17.8665 17.1464C18.0445 17.3244 18.0445 17.6142 17.8665 17.7923C17.7775 17.879 17.6634 17.9269 17.5424 17.9269C17.4214 17.9269 17.305 17.879 17.2206 17.7923L12.5793 13.1509C11.4229 14.1583 9.93615 14.7176 8.3927 14.7135ZM8.3927 2.84101C5.36638 2.84101 2.91292 5.29448 2.91292 8.32079C2.91292 9.77461 3.49034 11.1668 4.51737 12.1961C6.665 14.3278 10.1364 14.3141 12.268 12.1665C14.3883 10.0302 14.3883 6.58397 12.268 4.44775C11.241 3.41387 9.84652 2.83645 8.3927 2.84101ZM8.60769 8.15935C9.1873 8.15911 9.75895 8.15886 11.6768 8.15886C11.8511 8.16882 11.9896 8.30727 11.9995 8.48157C12.0095 8.66883 11.866 8.83018 11.6778 8.84014H5.3222C5.1489 8.83118 5.00945 8.69173 5.00049 8.51843C4.99053 8.33117 5.13396 8.16982 5.3222 8.15986C7.40728 8.15986 8.01169 8.1596 8.60769 8.15935Z" fill="#86888C"/>
</svg>
