<svg width="24" height="24" viewBox="0 0 24 24" fill="none" xmlns="http://www.w3.org/2000/svg">
<path fill-rule="evenodd" clip-rule="evenodd" d="M9.99087 17.8919C5.57749 17.8919 2 14.3144 2 9.90099C2 7.78131 2.84159 5.75008 4.33935 4.24947C7.51173 1.17979 12.5699 1.26252 15.6395 4.43205C18.5066 7.39182 18.6348 12.0153 16.0239 15.1237L21.8331 20.933C22.0556 21.1555 22.0556 21.5178 21.8331 21.7403C21.7218 21.8487 21.5792 21.9086 21.428 21.9086C21.2768 21.9086 21.1313 21.8487 21.0257 21.7403L15.2241 15.9386C13.7786 17.1979 11.9202 17.8971 9.99087 17.8919ZM9.99087 3.05127C6.20797 3.05127 3.14115 6.11809 3.14115 9.90099C3.14115 11.7183 3.86292 13.4585 5.14671 14.7452C7.83125 17.4097 12.1705 17.3926 14.835 14.7081C17.4853 12.0378 17.4853 7.72996 14.835 5.05968C13.5512 3.76734 11.8081 3.04556 9.99087 3.05127ZM10.1538 9.5007C10.9819 9.50035 11.7985 9.5 14.5383 9.5C14.7873 9.51423 14.9851 9.71201 14.9993 9.96101C15.0135 10.2285 14.8086 10.459 14.5397 10.4733H5.46029C5.21271 10.4604 5.0135 10.2612 5.0007 10.0137C4.98647 9.74616 5.19136 9.51565 5.46029 9.50142C8.43897 9.50142 9.30242 9.50106 10.1538 9.5007Z" fill="#86888C"/>
</svg>
