<svg width="40" height="40" viewBox="0 0 40 40" fill="none" xmlns="http://www.w3.org/2000/svg">
<path fill-rule="evenodd" clip-rule="evenodd" d="M16.3836 30.6053C8.43948 30.6053 2 24.1659 2 16.2218C2 12.4064 3.51487 8.75014 6.21083 6.04905C11.9211 0.523622 21.0257 0.672541 26.5512 6.3777C31.712 11.7053 31.9426 20.0275 27.243 25.6227L37.6996 36.0793C38.1001 36.4799 38.1001 37.132 37.6996 37.5326C37.4993 37.7277 37.2426 37.8355 36.9704 37.8355C36.6982 37.8355 36.4363 37.7277 36.2463 37.5326L25.8033 27.0895C23.2015 29.3563 19.8563 30.6147 16.3836 30.6053ZM16.3836 3.89228C9.57435 3.89228 4.05406 9.41257 4.05406 16.2218C4.05406 19.4929 5.35325 22.6253 7.66407 24.9413C12.4963 29.7375 20.3068 29.7067 25.1031 24.8745C29.8736 20.068 29.8736 12.3139 25.1031 7.50743C22.7922 5.18121 19.6547 3.88201 16.3836 3.89228ZM17.3261 15.6715H24.2151C24.6384 15.6957 24.9746 16.0319 24.9988 16.4552C25.023 16.91 24.6747 17.3019 24.2175 17.3261H17.3261V24.2175C17.3043 24.6384 16.9656 24.977 16.5447 24.9988C16.09 25.023 15.6981 24.6747 15.6739 24.2175V17.3261H8.78249C8.3616 17.3043 8.02296 16.9656 8.00119 16.5447C7.977 16.09 8.32532 15.6981 8.78249 15.6739H15.6739V8.78249C15.6957 8.3616 16.0344 8.02296 16.4552 8.00119C16.91 7.977 17.3019 8.32532 17.3261 8.78249V15.6715Z" fill="#86888C"/>
</svg>
