<svg width="800" height="800" viewBox="0 0 800 800" fill="none" xmlns="http://www.w3.org/2000/svg">
<g id="props / buildings">
<path id="Quaternary color" fill-rule="evenodd" clip-rule="evenodd" d="M590.011 43.3339V785.47H665.861V14.0068L590.011 43.3339ZM6 363.183V785.466H81.8505V333.856L6 363.183ZM343.91 785.465V280.439L419.761 251.115V785.465H343.91Z" fill="white"/>
<path id="Tertiary color" fill-rule="evenodd" clip-rule="evenodd" d="M82.4146 633.284H343.415V333.86H82.4146V633.284Z" fill="#DEEDF2"/>
<path id="Primary color" fill-rule="evenodd" clip-rule="evenodd" d="M504.178 785.466H419.747V251.118H627.931V404.562C642.049 415.013 654.8 427.21 665.861 440.829V14H751.615V57.1277C777.246 71.9513 794.489 99.6614 794.489 131.394V786.246H504.178V785.466ZM314.508 333.862C307.473 347.64 298.088 361.777 286.179 375.964C245.18 424.861 221.14 476.563 203.814 513.827C194.832 533.143 187.654 548.58 180.853 557.735H343.913V612.305H343.91V785.466H82.4146V612.289H82.4311L132.78 557.735H155.525V333.862H314.508Z" fill="#CEDEE7"/>
<path id="Secondary color" fill-rule="evenodd" clip-rule="evenodd" d="M536.267 785.467H419.751V251.118L536.267 785.467ZM452.388 294.025H627.934V277.222H452.388V294.025ZM452.388 318.012H627.934V301.216H452.388V318.012Z" fill="#9BC3D3"/>
</g>
</svg>
