<svg width="234" height="234" viewBox="0 0 234 234" fill="none" xmlns="http://www.w3.org/2000/svg">
<path fill-rule="evenodd" clip-rule="evenodd" d="M94.3544 175.368C93.7797 174.792 93.216 174.21 92.6633 173.622C81.5328 161.777 66.7865 154.047 50.8056 151.141C41.1058 149.377 31.8245 144.742 24.3247 137.235C4.68124 117.572 4.65894 85.8633 24.2759 66.1736C32.9297 57.4881 43.9642 52.6346 55.279 51.6118C64.9658 50.736 74.0669 46.5046 80.7875 39.4645C80.8741 39.3739 80.9613 39.2839 81.0486 39.1946C92.5133 27.4842 111.059 27.3684 122.663 38.9396C122.729 39.0056 122.795 39.0723 122.861 39.1389C125.96 42.2887 130.434 43.6642 134.77 42.8214C159.486 38.0159 186.066 45.1964 205.209 64.3644C235.797 94.9922 235.797 144.74 205.209 175.368C174.597 206.02 124.966 206.02 94.3544 175.368Z" fill="#DEEDF2"/>
<path fill-rule="evenodd" clip-rule="evenodd" d="M72.8569 43.5228C72.0442 36.7905 66.4177 31.5784 59.5982 31.5784C52.2204 31.5784 46.2392 37.6793 46.2392 45.2056C46.2392 46.4403 46.4001 47.6367 46.702 48.774C46.5886 48.7755 46.4762 48.7797 46.3643 48.7863L46.2386 48.7757V48.7948C42.4122 49.0881 39.3961 52.3485 39.3961 56.3271C39.3961 60.3058 42.4122 63.5661 46.2386 63.8594V63.8819H94.8773C97.8586 63.8819 100.276 61.4152 100.276 58.3737C100.276 55.3321 97.8588 52.8665 94.8774 52.8665L82.5544 51.8299C82.6107 51.4545 82.6399 51.07 82.6399 50.6785C82.6399 46.5068 79.3248 43.1248 75.2351 43.1248C74.4032 43.1248 73.6034 43.2647 72.8569 43.5228Z" fill="#CEDEE7"/>
<path fill-rule="evenodd" clip-rule="evenodd" d="M144.85 165.554C153.255 168.449 155.564 173.765 164.356 175.204C182.014 178.093 223.478 178.948 224.298 183.206C225.912 191.587 211.923 196.066 179.659 199.941C180.356 200.515 175.729 211.002 149.718 213.37C139.425 214.307 122.161 213.374 115.54 211.326C105.363 208.178 94.7928 206.486 84.1442 206.245C46.2703 205.386 16.5708 201.08 16.2229 194.569C16.1063 192.393 18.2929 189.376 21.7184 187.622C23.8527 186.529 20.719 185.608 19.9912 185.345C11.0536 182.124 6.04021 178.528 5.85751 175.673C5.28476 166.713 38.2738 157.831 76.8593 155.763C103.146 154.353 130.82 160.721 144.85 165.554Z" fill="#9BC3D3"/>
<path fill-rule="evenodd" clip-rule="evenodd" d="M185.933 42.4008C186.795 42.4959 187.524 43.1081 187.755 43.9625L194.274 72.2744C194.363 72.7384 194.338 72.8912 194.283 73.1404L208.678 94.2394L212.064 94.2398V109.068H173.859V94.2398L176.506 94.2394L190.534 73.6793C190.45 73.5228 190.384 73.3555 190.337 73.1824L183.819 44.8705C183.732 44.4139 183.758 44.3309 183.789 44.1199C183.915 43.2742 184.624 42.5495 185.482 42.4181C185.769 42.3748 185.84 42.3973 185.933 42.4008ZM191.72 74.8109L192.592 73.5335C187.884 80.436 183.175 87.3385 178.467 94.2396H191.773L191.72 74.8109ZM193.338 74.6265L193.333 72.7258C193.352 79.8966 193.371 87.0686 193.39 94.2397L206.719 94.2394L193.338 74.6265Z" fill="#9BC3D3"/>
<path fill-rule="evenodd" clip-rule="evenodd" d="M181.297 20.5386C181.798 20.76 182.264 21.054 182.517 21.5262C182.601 21.6835 182.641 21.86 182.705 22.0277L187.755 43.9613C187.771 44.1532 187.814 44.3435 187.804 44.5354C187.714 46.0401 185.612 47.0692 184.377 45.8637C184.005 45.4988 184 45.3397 183.819 44.8692L179.921 27.9409L92.5253 179.521L126.873 179.521V195.383H70.5483V179.521L87.9006 179.522C87.9313 179.45 87.9657 179.369 88.0035 179.275L178.988 21.4708C179.321 21.0367 179.72 20.6545 180.237 20.523C180.58 20.4348 180.943 20.485 181.297 20.5386Z" fill="#CEDEE7"/>
<path fill-rule="evenodd" clip-rule="evenodd" d="M68.8117 111.839C68.3807 111.886 68.0163 112.193 67.9005 112.62L64.6413 126.776C64.5967 127.007 64.609 127.084 64.6366 127.208L65.482 125.97C62.801 129.899 60.12 133.829 57.4391 137.759L55.746 137.758V145.172H74.8486V137.758L73.5252 137.758L66.5113 127.478C66.5532 127.4 66.586 127.316 66.6095 127.23L69.8687 113.074C69.9119 112.846 69.8989 112.804 69.8834 112.698C69.8203 112.276 69.4663 111.913 69.0371 111.848C68.8937 111.826 68.8583 111.837 68.8117 111.839ZM65.9183 128.044L65.482 127.405C67.836 130.857 70.1908 134.308 72.5449 137.759L65.8926 137.758L65.9183 128.044ZM65.109 127.952L65.1115 127.001C65.1021 130.587 65.0927 134.173 65.0828 137.759L58.4185 137.758L65.109 127.952Z" fill="#9BC3D3"/>
<path fill-rule="evenodd" clip-rule="evenodd" d="M71.3985 100.331C71.1481 100.442 70.9149 100.589 70.7888 100.825C70.7465 100.904 70.7266 100.992 70.6947 101.076L68.1695 112.043C68.1617 112.139 68.1401 112.234 68.1453 112.33C68.1902 113.082 69.2412 113.597 69.8587 112.994C70.0444 112.811 70.047 112.732 70.1377 112.497L72.0868 104.033L115.785 179.822L98.6106 179.822V187.753H126.773V179.822L118.097 179.824C118.082 179.787 118.064 179.747 118.045 179.699L72.5532 100.797C72.3865 100.58 72.187 100.389 71.9288 100.324C71.7569 100.279 71.5756 100.305 71.3985 100.331Z" fill="#CEDEE7"/>
<path fill-rule="evenodd" clip-rule="evenodd" d="M72.8948 119.179C74.0468 117.235 74.2916 114.787 73.3411 112.548C71.7553 108.812 67.4386 107.064 63.7076 108.648C60.2625 110.11 58.5136 113.905 59.5141 117.419C59.5889 117.797 59.6852 118.171 59.798 118.538L59.8003 118.547L59.8012 118.55C59.8351 118.66 59.8704 118.769 59.9069 118.877L61.6586 124.298L62.8691 124.203L62.8812 124.201C62.9462 124.281 62.9817 124.324 62.9817 124.324L63.3104 125.018L63.9231 126.317C64.1266 126.746 64.3996 127.136 64.7295 127.471C64.9612 127.708 65.2235 127.918 65.51 128.095C65.8464 128.302 66.2108 128.461 66.587 128.566C66.7834 128.622 66.9835 128.661 67.1857 128.686C67.2928 128.699 67.3979 128.709 67.5052 128.714L70.5529 137.158C70.5529 137.158 73.2663 136.862 75.6559 135.168C77.1015 134.147 78.429 132.611 78.968 130.324C78.968 130.324 74.6636 124.394 72.8948 119.179Z" fill="#FFC4B8"/>
<path fill-rule="evenodd" clip-rule="evenodd" d="M75.5892 135.081C77.0349 134.06 78.3622 132.524 78.9012 130.237C78.9012 130.237 74.2737 123.889 72.6565 118.535C72.6565 118.535 72.7915 129.213 75.5892 135.081ZM62.8827 124.232C63.2999 124.184 63.5413 123.737 63.3533 123.361L62.1412 120.939L62.8827 124.232Z" fill="#F4A48D"/>
<path fill-rule="evenodd" clip-rule="evenodd" d="M71.6184 115.016C71.7008 115.003 71.7843 115 71.8686 115.006C72.801 115.073 73.4657 116.309 73.3522 117.764C73.2995 118.438 72.9878 118.845 72.7853 119.488C72.6886 119.795 72.6235 120.18 72.6235 120.18L73.0493 120.608C74.0185 119.351 74.6458 117.808 74.7772 116.112C74.8804 114.789 74.6707 113.515 74.2105 112.362C73.8299 111.409 73.2784 110.537 72.5907 109.789C71.7812 108.909 70.7827 108.199 69.6526 107.725C68.8276 107.378 67.9309 107.157 66.9869 107.089C64.4714 106.907 62.1272 107.838 60.4454 109.466C59.7457 110.141 59.1614 110.937 58.7269 111.824C58.641 111.997 58.5617 112.174 58.489 112.354L58.4805 113.898L59.2164 114.6L61.4701 113.512L65.2175 111.704L66.0544 113.093L67.6036 115.664L67.7231 115.862C67.2849 117.439 66.5889 120.111 66.6372 121.011C66.665 121.53 67.9295 122.663 68.6158 122.49C69.2985 122.318 70.7395 119.996 70.7547 119.971C70.2161 119.507 69.8913 118.57 69.9734 117.518L69.9737 117.515L69.9762 117.485L69.977 117.475L69.9791 117.453L69.9803 117.44L69.9823 117.42L69.9836 117.407L69.9857 117.388L69.9872 117.374L69.9894 117.355L69.9909 117.342L69.9933 117.323L69.995 117.31L69.9975 117.291L69.9992 117.278L70.002 117.258L70.0037 117.246L70.007 117.224L70.0084 117.215L70.0132 117.184L70.0185 117.151L70.02 117.143L70.0239 117.12L70.026 117.109L70.0296 117.089L70.0319 117.077L70.0355 117.058L70.0379 117.046L70.0415 117.027L70.0441 117.014L70.0479 116.996L70.0506 116.984L70.0545 116.966L70.0572 116.953L70.0613 116.935L70.064 116.923L70.0686 116.903L70.0711 116.893L70.0768 116.869L70.0783 116.863L70.0859 116.833L70.0874 116.827L70.0935 116.803L70.0963 116.793L70.1015 116.774L70.1046 116.762L70.1096 116.744L70.113 116.732L70.1179 116.715L70.1215 116.703L70.1265 116.686L70.1301 116.674L70.1353 116.657L70.139 116.645L70.1444 116.628L70.148 116.616L70.1538 116.598L70.1572 116.588L70.1638 116.568L70.1666 116.559L70.1763 116.531L70.1861 116.503L70.1893 116.494L70.1961 116.476L70.2 116.465L70.2063 116.448L70.2105 116.437L70.2167 116.421L70.2211 116.409L70.2273 116.394L70.2318 116.382L70.2381 116.366L70.2427 116.355L70.2492 116.339L70.2537 116.328L70.2605 116.312L70.265 116.302L70.2724 116.285L70.2763 116.276L70.286 116.254L70.2878 116.25L70.2996 116.224L70.3029 116.216L70.3115 116.198L70.3161 116.188L70.3236 116.173L70.3286 116.162L70.3359 116.147L70.3412 116.137L70.3483 116.122L70.3537 116.112L70.361 116.097L70.3665 116.087L70.3738 116.073L70.3793 116.062L70.387 116.048L70.3924 116.038L70.4005 116.023L70.4055 116.014L70.415 115.997L70.4188 115.99L70.4323 115.966L70.4351 115.962L70.4459 115.943L70.4509 115.935L70.4598 115.92L70.4655 115.911L70.4737 115.897L70.4797 115.887L70.4878 115.874L70.4941 115.865L70.5021 115.852L70.5084 115.842L70.5166 115.83L70.523 115.82L70.5313 115.807L70.5376 115.798L70.5464 115.785L70.5524 115.776L70.562 115.763L70.5673 115.755L70.5806 115.736L70.5823 115.734L70.5974 115.713L70.6028 115.706L70.6128 115.693L70.6191 115.684L70.6283 115.672L70.635 115.664L70.6439 115.652L70.6509 115.644L70.6596 115.633L70.6668 115.624L70.6756 115.613L70.6828 115.604L70.6917 115.594L70.6988 115.585L70.708 115.574L70.715 115.566L70.7247 115.555L70.7314 115.547L70.7427 115.535L70.7478 115.529L70.7642 115.511L70.7698 115.505L70.7808 115.494L70.7879 115.486L70.7976 115.476L70.8052 115.468L70.8145 115.459L70.8224 115.451L70.8316 115.442L70.8396 115.434L70.8488 115.425L70.8569 115.417L70.8661 115.409L70.8742 115.401L70.8836 115.393L70.8916 115.385L70.9014 115.377L70.9092 115.37L70.9197 115.36L70.9269 115.354L70.9424 115.341L70.9443 115.339L70.9499 115.335L70.9621 115.325L70.9699 115.318L70.98 115.31L70.9884 115.304L70.998 115.296L71.0067 115.289L71.0162 115.282L71.025 115.276L71.0345 115.269L71.0434 115.262L71.0528 115.255L71.0618 115.249L71.0713 115.242L71.0803 115.236L71.09 115.23L71.0989 115.224L71.1088 115.217L71.1176 115.212L71.1285 115.205L71.1362 115.2L71.1409 115.197L71.1545 115.189L71.1634 115.183L71.1735 115.178L71.1828 115.172L71.1924 115.167L71.202 115.161L71.2115 115.156L71.2212 115.151L71.2307 115.146L71.2405 115.141L71.2499 115.136L71.2598 115.131L71.2692 115.127L71.2792 115.122L71.2886 115.117L71.2986 115.113L71.308 115.109L71.3181 115.104L71.3275 115.1L71.3377 115.096L71.3457 115.093L71.3565 115.088L71.3671 115.084L71.3761 115.08L71.3867 115.077L71.3959 115.073L71.4065 115.069L71.4157 115.066L71.4264 115.063L71.4355 115.06L71.4463 115.056L71.4555 115.053L71.4663 115.05L71.4754 115.047L71.4864 115.044L71.4954 115.042L71.5065 115.039L71.5153 115.037L71.5267 115.034L71.535 115.032L71.5469 115.029L71.5526 115.028L71.5665 115.025L71.5808 115.022L71.5862 115.021L71.5985 115.019L71.6065 115.018L71.6184 115.016Z" fill="#444444"/>
<path fill-rule="evenodd" clip-rule="evenodd" d="M74.0307 109.626C73.8645 109.005 73.622 108.424 73.3161 107.891C71.7051 105.089 68.3274 103.614 65.0175 104.511C61.6725 105.418 57.5494 107.095 57.6329 112.535L57.633 112.539L57.6166 114.729L57.6042 116.259L57.5993 116.915L55.9715 118.882C55.6566 119.305 55.9895 119.895 56.5165 119.846L66.5431 118.289C66.8135 118.264 67.0802 118.212 67.3403 118.133C67.7458 118.009 68.4257 117.796 69.2303 117.519C69.4788 119.041 69.8472 120.542 70.3317 122.006L71.896 126.729C71.9021 126.749 71.9087 126.767 71.9166 126.785C72.022 127.033 72.2605 127.204 72.5371 127.223C72.7617 127.238 72.9734 127.151 73.1211 126.999C73.2142 126.903 73.2814 126.782 73.3119 126.645L74.3242 122.049C74.1859 121.578 74.0593 121.093 73.9472 120.594L73.8432 120.603L73.6571 121.26L72.4437 125.543L71.2504 121.859C70.7566 120.337 70.3889 118.776 70.1502 117.194C71.5188 116.695 73.0594 116.065 74.2006 115.404C76.7974 113.9 75.8978 113.262 75.8978 113.262C75.8978 113.262 75.6128 113.422 75.1148 113.682L74.0307 109.626Z" fill="#FFCC33"/>
<path fill-rule="evenodd" clip-rule="evenodd" d="M69.5873 116.488C69.5873 116.488 72.971 115.415 75.3882 114.365L74.1965 109.908C74.0312 109.29 73.7901 108.713 73.4864 108.183C72.9965 108.509 72.4498 108.911 71.9139 109.383C70.5247 110.603 69.2101 112.289 69.1662 114.333C69.1517 115.013 69.2767 115.733 69.5873 116.488Z" fill="#34466B"/>
<path fill-rule="evenodd" clip-rule="evenodd" d="M74.0376 155.635C66.0562 157.758 60.8179 157.245 52.4448 158.355C52.0325 155.745 51.9886 156.649 51.3805 155.43C51.3805 155.43 64.811 150.424 71.4757 148.124C72.6719 147.71 76.5614 141.963 77.2878 142.005C80.6094 142.195 84.0282 145.821 81.8879 149.614C81.2154 150.806 74.3606 155.519 74.0376 155.635Z" fill="#F4A48D"/>
<path fill-rule="evenodd" clip-rule="evenodd" d="M45.3539 154.491C45.3594 154.489 45.3649 154.486 45.3705 154.484C46.2988 154.139 47.3425 153.785 48.1398 153.736C49.2419 153.668 50.3605 154.203 51.3603 154.608L51.4169 154.586L56.9175 152.657L60.04 158.109L53.4794 158.997C53.1456 159.409 52.7893 160.157 52.2173 160.299L48.7665 161.158C48.2894 161.276 47.363 161.243 47.2516 160.762L46.911 159.297C46.8828 159.177 47.3856 158.564 47.4631 157.966L46.5126 158.239L44.5642 160.626C44.3448 160.893 42.2351 161.314 41.9199 161.174C41.907 161.169 41.8944 161.162 41.8821 161.156C41.4852 162.016 40.181 161.426 40.565 160.547L42.0703 157.114C42.0869 157.077 42.1055 157.045 42.1249 157.012C42.1767 156.89 42.3055 156.728 42.4987 156.584L45.2925 154.512L45.3539 154.491Z" fill="#D39E00"/>
<path fill-rule="evenodd" clip-rule="evenodd" d="M76.3092 124.911C82.8658 127.304 85.492 128.175 87.934 131.428C92.8175 137.931 93.2401 144.161 95.2519 150.658C97.2637 157.154 96.1864 156.591 98.6353 161.291C92.7264 165.292 87.7491 167.317 81.5723 168.265C76.9393 163.82 75.2945 161.442 74.2143 155.982C67.8594 147.607 69.6226 143.486 69.194 133.335L76.3092 124.911Z" fill="#FFCC33"/>
<path fill-rule="evenodd" clip-rule="evenodd" d="M75.1677 122.749C73.2822 127.107 70.7419 129.519 67.7405 131.887L69.8635 136.292C74.6584 132.724 76.3594 127.853 77.0717 124.562L75.1677 122.749Z" fill="#D39E00"/>
<path fill-rule="evenodd" clip-rule="evenodd" d="M112.961 181.871C111.834 181.278 110.903 181.266 109.52 182.018C108.363 182.646 108.233 183.979 108.452 186.362C108.794 190.097 108.864 191.686 106.118 194.232C105.671 194.645 105.551 195.264 105.816 196.357C105.816 196.357 111.044 196.823 112.359 196.121C113.336 195.599 115.277 192.055 115.246 189.196C115.234 188.108 114.656 182.762 112.961 181.871ZM77.0501 187.386L69.8458 188.038C66.4817 192.863 66.7031 192.432 61.804 193.082C60.2767 193.285 59.7838 193.61 59.822 195.204C64.5222 195.557 78.1456 195.436 78.1456 195.436C78.4449 192.743 78.0154 190.079 77.0501 187.386Z" fill="black"/>
<path fill-rule="evenodd" clip-rule="evenodd" d="M60.2463 165.436C60.2222 163.152 60.9883 161.062 64.7729 161.398L80.0068 163.308L84.4007 162.797L95.2001 165.487L95.8408 179.067C91.6237 180.365 81.1846 177.909 77.0519 176.071C76.086 175.642 75.1518 175.253 74.2264 174.891L77.5915 187.726L68.0218 190.034L60.3918 167.351C60.2255 166.687 60.1724 166.039 60.2463 165.436Z" fill="#732645"/>
<path fill-rule="evenodd" clip-rule="evenodd" d="M81.9458 129.408C85.6441 130.799 87.4958 131.75 89.2416 134.07C93.5669 139.822 93.9416 145.332 95.7232 151.077C97.5052 156.822 96.551 156.324 98.7205 160.48C98.7144 160.517 98.708 160.554 98.7016 160.59C99.9191 162.75 100.861 164.732 101.537 167.528C102.873 173.063 100.787 176.613 98.093 181.491L101.639 180.714L110.614 181.28C112.742 184.182 112.8 186.406 110.704 189.308L89.7917 195.406C85.1464 196.894 78.0847 197.288 79.2971 192.069L79.3483 191.963C79.3815 191.224 79.6609 190.653 79.9793 189.676L84.577 175.572L81.9318 172.373L81.0178 166.259C77.2203 162.574 78.0137 160.453 77.0889 155.785C76.6209 155.17 76.2039 154.581 75.8304 154.011C77.1167 153.05 76.8513 151.593 75.802 147.292C74.6422 142.532 75.5054 136.269 78.057 132.338C78.9324 130.988 80.2366 129.846 81.9458 129.408ZM93.3597 147.71L89.915 137.268C82.64 125.6 76.0472 134.691 78.7339 143.2L82.6286 151.382C84.5414 155.342 87.7421 163.182 93.0229 160.532C97.8017 158.131 94.7456 151.908 93.3597 147.71Z" fill="#9E3667"/>
<path fill-rule="evenodd" clip-rule="evenodd" d="M75.2836 159.656C76.7549 152.468 75.948 148.996 76.7664 140.683C77.3465 134.779 79.17 131.881 83.3401 132.376C90.7986 133.262 88.0371 147.901 87.3009 152.071C86.5502 156.313 84.0989 163.842 81.6529 166.823C81.4161 167.163 81.1191 167.461 80.7581 167.698C80.5627 167.84 80.3687 167.945 80.177 168.01C80.1599 168.015 80.1428 168.02 80.1258 168.024C79.8512 168.132 79.5497 168.211 79.2202 168.257C71.389 169.22 63.4878 166.852 55.4192 166.804C55.3711 164.281 55.7368 163.785 55.3239 162.552C55.3239 162.552 67.8875 160.931 75.2836 159.656Z" fill="#FFC4B8"/>
<path fill-rule="evenodd" clip-rule="evenodd" d="M55.801 162.355C54.6954 162.245 51.2179 160.692 49.6717 160.471C48.5642 160.314 48.529 160.401 47.5166 160.707C46.7101 160.95 45.4961 161.169 45.3667 161.213C45.174 161.279 43.692 162.619 43.692 162.619C43.1202 163.951 42.6105 164.532 43.2326 164.914C43.6107 165.146 44.1045 164.654 45.0185 163.536L45.6504 163.115C45.1681 163.629 44.7746 164.009 44.6494 164.618C44.5379 165.156 44.6072 165.918 45.6406 166.095C45.8882 166.137 45.8784 165.921 45.9787 165.674L46.2485 165.02C47.0301 164.8 47.7195 164.575 48.486 164.311C47.4565 164.747 46.8434 165.055 46.5556 165.376C46.1453 165.827 46.4863 166.243 46.8275 166.652C47.305 167.227 48.0244 166.272 49.6276 165.843C49.0989 166.072 48.3074 166.331 47.9743 166.83C47.6563 167.306 48.2722 167.603 48.7336 167.644C50.4302 167.789 53.0861 167.758 54.8379 167.477C55.6506 167.347 56.2064 166.749 56.7522 166.798L59.6177 167.112L59.4741 161.89L55.801 162.355Z" fill="#FFCC33"/>
<path fill-rule="evenodd" clip-rule="evenodd" d="M88.4943 152.048L76.7923 150.016C76.8686 147.294 76.8953 144.387 77.3034 140.382C77.9205 134.335 79.857 131.366 84.2867 131.872C92.2097 132.779 89.277 147.777 88.4943 152.048Z" fill="#D39E00"/>
<path fill-rule="evenodd" clip-rule="evenodd" d="M87.3011 152.049L76.2873 150.067C76.3594 147.414 76.3845 144.578 76.7691 140.674C77.3491 134.777 79.1722 131.882 83.3413 132.376C90.7981 133.261 88.0372 147.884 87.3011 152.049Z" fill="#FFCC33"/>
<path fill-rule="evenodd" clip-rule="evenodd" d="M146.153 141.044L145.736 167.9L151.097 201.849L155.317 202.031L157.424 170.588L164.861 139.655L146.153 141.044Z" fill="#34466B"/>
<path fill-rule="evenodd" clip-rule="evenodd" d="M155.573 143.085L159.488 169.466L168.891 202.031L172.917 201.642L170.977 170.429L173.058 139.108L155.573 143.085Z" fill="#34466B"/>
<path fill-rule="evenodd" clip-rule="evenodd" d="M163.393 86.6863C165.272 85.4023 166.538 83.2711 166.623 80.8222C166.766 76.7363 163.569 73.3033 159.488 73.1608C155.721 73.0292 152.509 75.7487 151.926 79.3829C151.833 79.7604 151.762 80.1429 151.709 80.5259L151.707 80.535L151.707 80.5379C151.691 80.6525 151.676 80.7671 151.664 80.8816L150.955 86.5766L152.101 87.0055L152.113 87.0087C152.138 87.1092 152.152 87.1636 152.152 87.1636L152.156 87.9375L152.163 89.3839C152.166 89.8625 152.249 90.3344 152.408 90.7808C152.518 91.0959 152.669 91.3992 152.855 91.6823C153.074 92.0146 153.339 92.3151 153.637 92.5715C153.793 92.706 153.959 92.827 154.133 92.9356C154.225 92.9933 154.317 93.0466 154.413 93.0968L153.601 102.103C153.601 102.103 156.204 102.989 159.106 102.46C160.861 102.143 162.727 101.306 164.193 99.4469C164.193 99.4469 162.787 92.2007 163.393 86.6863Z" fill="#FFC4B8"/>
<path fill-rule="evenodd" clip-rule="evenodd" d="M159.082 102.352C160.837 102.035 162.703 101.198 164.169 99.3393C164.169 99.3393 162.646 91.5742 163.449 85.9978C163.449 85.9978 159.026 95.804 159.082 102.352ZM152.1 87.038C152.502 87.1714 152.913 86.8662 152.901 86.4431L152.825 83.7161L152.1 87.038Z" fill="#F4A48D"/>
<path fill-rule="evenodd" clip-rule="evenodd" d="M165.397 85.8149C165.921 84.8194 167.318 83.0042 167.573 81.372C168.142 77.735 165.751 75.1457 164.678 74.3474C164.328 74.0742 163.896 73.8174 163.302 73.5368C162.085 71.744 159.244 71.4327 159.823 71.7271C152.514 70.5696 149.968 77.1371 147.89 76.6512C149.506 79.2988 151.443 79.014 153.969 78.4325C154.986 79.5045 155.441 80.8567 155.462 82.1401C155.437 82.5523 155.362 83.4647 155.159 84.2721C154.887 85.3536 155.688 85.8088 156.052 85.7039C156.418 85.6002 156.309 85.7209 157.055 84.8751C157.63 84.2237 157.812 83.7164 158.175 83.2385C158.852 82.5362 159.658 81.9405 160.351 82.1387C161.267 82.4034 160.98 84.073 160.384 85.2649C160.064 85.9021 160.092 86.5496 160.279 86.9552C160.692 87.8507 161.52 87.3515 162.457 88.1873C163.221 88.8694 163.697 90.0083 164.067 90.489C164.475 88.1255 164.614 87.3043 165.397 85.8149Z" fill="#444444"/>
<path fill-rule="evenodd" clip-rule="evenodd" d="M151.93 102.034C151.93 102.034 156.305 123.703 133.556 138.56L136.013 141.403C136.013 141.403 163.027 137.069 164.232 105.224C164.232 105.224 165.037 98.1551 158.361 95.9513C151.685 93.747 151.93 102.034 151.93 102.034Z" fill="#FFCC33"/>
<path fill-rule="evenodd" clip-rule="evenodd" d="M142.105 146.266C149.37 147.226 154.858 147.753 158.569 147.848C162.28 147.942 167.718 147.693 174.882 147.101C174.039 118.171 170.279 100.412 163.605 93.8245C163.605 93.8245 155.818 95.7636 153.075 95.4659C153.075 95.4659 149.418 112.399 142.105 146.266Z" fill="#FFCC33"/>
<path fill-rule="evenodd" clip-rule="evenodd" d="M166.231 115.129C166.231 115.129 153.857 125.451 147.566 130.8C141.275 136.15 121.538 120.989 121.538 120.989L123.058 117.751L142.413 122.642L156.931 108.446C156.931 108.446 161.637 103.546 166.127 105.845C166.421 105.995 166.677 106.166 166.898 106.353C170.063 109.028 166.231 115.129 166.231 115.129L138.429 107.093L166.231 115.129Z" fill="#FFE699"/>
<path fill-rule="evenodd" clip-rule="evenodd" d="M164.893 95.3607L157.166 99.6749L154.572 96.2389L153.163 97.9367L151.763 95.5917L153.742 93.9307C153.742 93.9307 154.03 95.247 157.366 94.4131C160.724 93.5743 162.762 92.7532 162.762 92.7532L164.893 95.3607Z" fill="#34466B"/>
<path fill-rule="evenodd" clip-rule="evenodd" d="M120.065 113.633C119.314 113.874 120.4 116.127 120.4 116.127C120.4 116.127 113.067 118.33 112.921 119.113C112.775 119.896 122.371 120.453 122.371 120.453L123.762 118.044C123.762 118.044 120.816 113.392 120.065 113.633Z" fill="#FFC4B8"/>
<path fill-rule="evenodd" clip-rule="evenodd" d="M134.528 138.561C134.528 138.561 129.158 140.155 129.169 140.989C129.18 141.822 131.681 141.394 131.681 141.394C131.681 141.394 125.988 147.203 130.6 146.076C132.959 145.499 136.447 140.69 136.447 140.69L134.528 138.561Z" fill="#FFC4B8"/>
<path fill-rule="evenodd" clip-rule="evenodd" d="M151.149 200.544L155.179 200.546L155.49 205.859L149.468 206.209L145.634 206.234L146.271 203.284L151.149 200.544Z" fill="black"/>
<path fill-rule="evenodd" clip-rule="evenodd" d="M169.095 200.71L163.729 203.351L163.958 205.983L173.972 205.395L173.023 200.186L169.095 200.71Z" fill="black"/>
<path fill-rule="evenodd" clip-rule="evenodd" d="M170.708 78.7822C171.574 75.1285 169.96 71.2303 166.555 69.4121C163.113 67.5751 158.434 65.7894 154.265 70.5052L154.262 70.5089L152.543 72.3679L151.341 73.6665L150.826 74.2232L147.963 74.6337C147.375 74.7502 147.189 75.5138 147.658 75.8836L157.07 82.3827C157.311 82.5724 157.569 82.7358 157.844 82.8712C158.272 83.0823 158.994 83.431 159.867 83.8229C158.885 85.3182 158.018 86.8883 157.273 88.5186L154.389 93.8784C154.379 93.8997 153.733 95.1917 154.717 94.5348C154.88 94.4258 156.021 92.6177 158.139 89.1107C158.921 87.4234 159.836 85.8023 160.873 84.2631C162.381 84.9055 164.131 85.5698 165.58 85.8958C168.875 86.6375 168.636 85.3901 168.636 85.3901C168.636 85.3901 168.278 85.3043 167.669 85.1375L169.941 80.8242C170.289 80.1628 170.543 79.4768 170.708 78.7822Z" fill="#FFCC33"/>
<path fill-rule="evenodd" clip-rule="evenodd" d="M160.963 83.2199C160.963 83.2199 164.566 84.9447 167.361 85.9347L169.858 81.1935C170.204 80.5366 170.456 79.8549 170.621 79.1646C169.966 79.0611 169.206 78.9776 168.4 78.9626C166.313 78.9208 163.925 79.3352 162.297 81.0488C161.755 81.6187 161.297 82.332 160.963 83.2199Z" fill="#34466B"/>
</svg>
