<svg width="234" height="234" viewBox="0 0 234 234" fill="none" xmlns="http://www.w3.org/2000/svg">
<path fill-rule="evenodd" clip-rule="evenodd" d="M92.0626 63.8375C81.5476 75.0218 67.6169 82.3214 52.5199 85.065C43.3565 86.7303 34.5885 91.1071 27.5035 98.1958C8.9464 116.762 8.92533 146.703 27.4574 165.294C35.6326 173.496 46.0568 178.079 56.7459 179.044C65.8969 179.871 74.4946 183.867 80.8435 190.514C80.9254 190.6 81.0078 190.685 81.0902 190.769C91.9209 201.826 109.441 201.936 120.403 191.01C120.466 190.948 120.528 190.885 120.59 190.822C123.518 187.848 127.745 186.549 131.84 187.344C155.189 191.882 180.3 185.102 198.384 167.003C227.28 138.083 227.28 91.1092 198.384 62.1889C169.465 33.2459 122.579 33.2461 93.6601 62.1893C93.1172 62.7325 92.5847 63.2819 92.0626 63.8375Z" fill="#DEEDF2"/>
<path d="M60.5849 148.076V147.068C60.5849 146.342 61.1732 145.753 61.8998 145.753H62.9065C61.6246 145.753 60.5849 146.793 60.5849 148.076Z" fill="#9BC3D3"/>
<path d="M68.0928 103.462C67.7138 102.911 67.4561 102.56 67.4561 102.56C67.4561 102.56 67.7116 102.906 68.0935 103.462C68.0935 103.462 68.0935 103.462 68.0928 103.462Z" fill="#9BC3D3"/>
<path d="M47.2737 179.01C47.2831 179.012 47.3027 178.928 47.3327 178.768C47.3645 178.578 47.4029 178.345 47.4492 178.064C47.548 177.453 47.6664 176.564 47.7974 175.465C48.0619 173.267 48.3263 170.22 48.5711 166.853C48.8158 163.486 49.0503 160.439 49.2661 158.239C49.3742 157.169 49.4636 156.288 49.5296 155.633C49.5567 155.35 49.5787 155.116 49.597 154.924C49.6096 154.761 49.6115 154.676 49.6021 154.674C49.5932 154.673 49.5731 154.757 49.5436 154.917C49.5118 155.108 49.4734 155.339 49.4266 155.62C49.3279 156.231 49.2099 157.12 49.0784 158.219C48.8144 160.417 48.5495 163.465 48.3052 166.833C48.0605 170.2 47.8255 173.245 47.6102 175.446C47.5016 176.516 47.4127 177.397 47.3467 178.051C47.3196 178.335 47.2976 178.569 47.2793 178.76C47.2667 178.924 47.2644 179.009 47.2737 179.01Z" fill="#CCCCCC"/>
<path fill-rule="evenodd" clip-rule="evenodd" d="M183.529 200.538H50.4708C46.8927 200.538 43.992 197.628 43.992 194.038V107.121C43.992 105.21 45.5353 103.662 47.4393 103.662H187.011C188.666 103.662 190.008 105.008 190.008 106.669V194.038C190.008 197.628 187.107 200.538 183.529 200.538Z" fill="#34466B"/>
<path fill-rule="evenodd" clip-rule="evenodd" d="M189.972 201.474H43.5601C40.18 201.474 37.44 198.75 37.44 195.389V193.05H196.092V195.389C196.092 198.75 193.352 201.474 189.972 201.474Z" fill="#34466B"/>
<path fill-rule="evenodd" clip-rule="evenodd" d="M47.736 189.306H185.796V107.406H47.736V189.306Z" fill="#9BC3D3"/>
<path fill-rule="evenodd" clip-rule="evenodd" d="M102.024 193.518L103.983 196.326H131.56L133.38 193.518H102.024Z" fill="#9BC3D3"/>
<path fill-rule="evenodd" clip-rule="evenodd" d="M52.416 188.838H179.712V112.554H52.416V188.838Z" fill="#EFF6F9"/>
<path fill-rule="evenodd" clip-rule="evenodd" d="M57.564 116.532C57.564 117.178 57.0404 117.702 56.394 117.702C55.7476 117.702 55.224 117.178 55.224 116.532C55.224 115.886 55.7476 115.362 56.394 115.362C57.0404 115.362 57.564 115.886 57.564 116.532Z" fill="black"/>
<path fill-rule="evenodd" clip-rule="evenodd" d="M61.776 116.532C61.776 117.178 61.2519 117.702 60.606 117.702C59.9596 117.702 59.436 117.178 59.436 116.532C59.436 115.886 59.9596 115.362 60.606 115.362C61.2519 115.362 61.776 115.886 61.776 116.532Z" fill="black"/>
<path fill-rule="evenodd" clip-rule="evenodd" d="M66.456 116.532C66.456 117.178 65.9323 117.702 65.2858 117.702C64.6398 117.702 64.116 117.178 64.116 116.532C64.116 115.886 64.6398 115.362 65.2858 115.362C65.9323 115.362 66.456 115.886 66.456 116.532Z" fill="black"/>
<path fill-rule="evenodd" clip-rule="evenodd" d="M179.712 121.681C179.712 121.751 151.213 121.808 116.067 121.808C80.9086 121.808 52.416 121.751 52.416 121.681C52.416 121.609 80.9086 121.553 116.067 121.553C151.213 121.553 179.712 121.609 179.712 121.681Z" fill="black"/>
<path d="M43.992 193.518H190.008V193.05H43.992V193.518Z" fill="#34466B"/>
<path d="M43.524 140.634V140.604C44.3012 140.31 44.936 140.067 45.345 139.906L45.864 139.698C45.2049 139.978 44.4048 140.297 43.524 140.634Z" fill="#444444"/>
<path d="M43.9651 137.894C43.9707 137.924 43.8603 137.968 43.7564 138.06C43.6502 138.15 43.5912 138.252 43.5617 138.242C43.5332 138.236 43.5552 138.09 43.6857 137.978C43.8154 137.865 43.9628 137.864 43.9651 137.894Z" fill="#444444"/>
<path d="M44.7985 137.493C44.8191 137.515 44.7887 137.577 44.7311 137.631C44.6736 137.686 44.6099 137.713 44.5893 137.691C44.5692 137.669 44.5991 137.607 44.6567 137.552C44.7147 137.498 44.7779 137.472 44.7985 137.493Z" fill="#444444"/>
<path fill-rule="evenodd" clip-rule="evenodd" d="M142.851 47.3679C141.193 46.1496 140.116 44.1859 140.116 41.9727C140.116 38.2799 143.114 35.2817 146.807 35.2817C150.217 35.2817 153.034 37.8378 153.446 41.1367C153.518 41.4804 153.57 41.8279 153.606 42.1753L153.606 42.1759L153.608 42.1836L153.608 42.1863C153.618 42.2902 153.628 42.3941 153.636 42.4978L154.096 47.6609L153.048 48.012L153.037 48.0144L153.037 48.0145C153.01 48.1044 152.996 48.153 152.996 48.153L152.968 48.8515L152.916 50.1569C152.898 50.5889 152.808 51.0122 152.651 51.4102C152.541 51.6911 152.395 51.9601 152.218 52.2098C152.01 52.5029 151.761 52.7658 151.483 52.9878C151.338 53.1044 151.184 53.2083 151.023 53.3009C150.938 53.3501 150.853 53.3952 150.765 53.4376L150.764 53.4379L151.215 61.5932C151.215 61.5932 148.834 62.3105 146.227 61.7413C144.651 61.4002 142.991 60.5856 141.725 58.8613C141.725 58.8613 143.224 52.3646 142.851 47.3679Z" fill="#FFC4B8"/>
<path fill-rule="evenodd" clip-rule="evenodd" d="M146.252 61.6447C144.676 61.3035 143.016 60.4889 141.75 58.7647C141.75 58.7647 143.371 51.8033 142.822 46.7443C142.822 46.7443 146.51 55.7356 146.252 61.6447ZM153.046 48.041C152.679 48.1487 152.318 47.8603 152.342 47.4788L152.496 45.0195L153.046 48.041Z" fill="#F4A48D"/>
<path fill-rule="evenodd" clip-rule="evenodd" d="M144.591 35.2149C147.532 35.1116 147.171 32.5857 147.171 32.5857C150.318 32.6889 151.66 33.8745 151.66 33.8745C154.188 35.8846 153.186 39.9173 153.186 39.9173C152.8 36.8742 148.139 38.1716 146.314 38.4771C145.568 39.2084 145.856 40.9932 145.478 42.4976C145.471 42.5249 144.66 44.561 144.66 44.561L144.659 44.5635L144.613 44.775C144.6 44.7404 144.586 44.7058 144.571 44.6712C144.081 43.51 143.082 42.8232 142.34 43.1355C141.598 43.4483 141.395 44.6428 141.886 45.8039C142.056 46.2084 142.488 46.5554 142.75 46.8226C142.953 48.5276 142.915 50.1111 142.772 51.4706L142.011 51.5035L139.276 38.5138C139.072 36.775 139.848 35.9814 141.088 35.6011C142.054 35.3049 143.302 35.26 144.591 35.2149Z" fill="black"/>
<path fill-rule="evenodd" clip-rule="evenodd" d="M153.97 63.3699C154.571 62.3995 157.484 60.4556 157.484 60.4556C157.484 60.4556 160.037 63.1948 160.689 66.3374C161.341 69.4815 167.247 81.6704 167.502 82.7212C167.757 83.7713 167.15 88.1117 167.15 88.1117L162.052 86.4044C162.052 86.4044 161.752 83.1541 159.982 80.8539C158.212 78.5528 154.013 72.8287 153.406 68.9113C152.798 64.9932 152.511 65.7233 153.97 63.3699Z" fill="white"/>
<path fill-rule="evenodd" clip-rule="evenodd" d="M148.845 61.4607C145.676 61.9884 143.31 60.624 141.747 57.3675C142.084 57.3675 140.652 58.0414 137.451 59.3892L144.396 69.6951L154.88 64.206L154.636 59.1365L150.845 57.1147C151.506 59.6805 150.839 61.1291 148.845 61.4607Z" fill="white"/>
<path fill-rule="evenodd" clip-rule="evenodd" d="M169.749 142.417L171.775 147.676L165.62 144.754L165.871 139.752L170.065 139.031L169.749 142.417Z" fill="black"/>
<path fill-rule="evenodd" clip-rule="evenodd" d="M160.848 93.1662C160.848 93.1662 172.644 102.882 173.959 105.891C175.276 108.9 170.826 142.316 170.826 142.316L165.043 141.973C165.043 141.973 164.495 131.017 163.988 125.182C163.461 119.118 164.095 110.349 164.095 110.349C164.095 110.349 157.427 107.656 154.071 106.849C140.446 103.573 143.238 95.0464 143.426 89.5938L160.848 93.1662Z" fill="#444444"/>
<path fill-rule="evenodd" clip-rule="evenodd" d="M150.449 143.21L152.389 150.07L145.434 146.219L146.939 139.574L151.049 140.673L150.449 143.21Z" fill="black"/>
<path fill-rule="evenodd" clip-rule="evenodd" d="M150.558 94.7402C150.558 94.7402 159.714 101.323 161.031 104.332C162.347 107.34 151.049 143.2 151.049 143.2L145.407 143.445C145.407 143.445 148.098 128.402 148.662 122.572C149.226 116.743 150.051 109.596 150.051 109.596C150.051 109.596 142.32 108.474 139.274 106.85C133.989 104.028 135.316 100.194 135.504 94.7402H150.558Z" fill="#444444"/>
<path fill-rule="evenodd" clip-rule="evenodd" d="M149.497 65.1203C149.497 65.1203 152.334 84.79 152.105 86.9629C151.877 89.1365 152.507 95.3815 151.002 96.4467C147.289 99.0775 137.402 97.6559 135.438 97.6559C135.438 97.6559 134.779 88.6407 134.55 83.2653C134.321 77.8915 136.609 70.6867 136.38 68.0559C136.152 65.4258 133.292 60.7366 133.292 60.7366L141.242 57.6201C142.33 62.6202 145.082 65.1203 149.497 65.1203Z" fill="#34466B"/>
<path fill-rule="evenodd" clip-rule="evenodd" d="M149.497 65.1205C149.497 65.1205 149.767 93.547 151.483 95.6054C153.199 97.6646 161.654 96.1695 162.111 96.3984C162.568 96.6266 158.794 85.7819 158.794 83.0942C158.794 80.4073 157.484 60.4556 157.484 60.4556L151.351 57.3677C153.178 61.2403 152.56 63.8246 149.497 65.1205Z" fill="#34466B"/>
<path fill-rule="evenodd" clip-rule="evenodd" d="M149.802 95.8023L150.454 93.7212C150.454 93.7212 155.863 95.4589 157.35 95.8023C158.836 96.145 161.222 97.2883 161.222 97.2883H151.746L149.802 95.8023Z" fill="#FFC4B8"/>
<path fill-rule="evenodd" clip-rule="evenodd" d="M152.318 94.2012L151.746 97.2885C151.746 97.2885 137.939 96.3203 135.491 92.2384C134.312 90.274 133.929 89.9601 132.606 83.3414C129.72 68.9136 131.348 61.5374 133.293 60.7368C135.236 59.9362 138.653 64.1675 138.318 67.7134C137.981 71.2586 141.022 87.4301 141.022 87.4301C141.022 87.4301 145.111 90.7963 152.318 94.2012Z" fill="white"/>
<path d="M155.925 98.2626H161.651L167.377 78.229H163.024L155.925 98.2626Z" fill="#CCCCCC"/>
<path fill-rule="evenodd" clip-rule="evenodd" d="M157.569 98.2626H179.916L185.642 78.229H163.295L157.569 98.2626Z" fill="#CCCCCC"/>
<path fill-rule="evenodd" clip-rule="evenodd" d="M154.281 99.3029H179.916V97.8086H154.281V99.3029Z" fill="#444444"/>
<path d="M141.464 99.3029H154.281V97.8086H141.464V99.3029Z" fill="#444444"/>
<path fill-rule="evenodd" clip-rule="evenodd" d="M124.336 146.809L123.127 144.76L118.289 136.562C117.829 135.781 117.508 134.943 117.328 134.082L117.08 134.513C115.613 137.066 115.631 140.2 117.127 142.735L117.127 142.737L122.147 151.242C122.143 151.242 122.14 151.241 122.136 151.241C123.46 153.72 123.421 156.707 122.013 159.158L121.764 159.589C121.584 158.729 121.264 157.891 120.803 157.109L121.257 157.878L117.175 150.961L113.438 144.629L113.547 144.813C113.086 144.032 112.765 143.193 112.585 142.333L112.337 142.764C110.87 145.316 110.888 148.451 112.384 150.987L112.385 150.988L112.542 151.255L116.013 157.136L117.223 159.185C118.719 161.722 118.737 164.856 117.27 167.409L117.022 167.841C116.842 166.98 116.521 166.142 116.06 165.36L116.514 166.128L110.014 155.114L110.013 155.112C109.419 154.106 109.06 153.007 108.932 151.887C101.807 153.525 96.8522 157.161 96.876 161.356C96.909 167.033 106.05 171.585 117.294 171.521C128.537 171.458 137.624 166.804 137.592 161.126C137.568 156.931 132.571 153.352 125.428 151.794C125.603 150.087 125.239 148.339 124.336 146.809Z" fill="#EC0000"/>
</svg>
