<?xml version="1.0" encoding="utf-8"?>
<!-- Generator: Adobe Illustrator 24.3.0, SVG Export Plug-In . SVG Version: 6.00 Build 0)  -->
<svg version="1.1" id="Symbol" xmlns="http://www.w3.org/2000/svg" xmlns:xlink="http://www.w3.org/1999/xlink" x="0px" y="0px"
	 viewBox="0 0 234.59 234.59" style="enable-background:new 0 0 234.59 234.59;" xml:space="preserve">
<style type="text/css">
	.st0{fill:#EC0000;}
</style>
<g>
	<g>
		<path class="st0" d="M149.66,107.41c-0.22-5.15-1.66-10.26-4.33-14.87l-23.51-40.73c-1.79-3.11-3.03-6.43-3.72-9.85l-0.98,1.7
			c-5.82,10.08-5.82,22.5,0,32.58l18.81,32.58c5.82,10.08,5.82,22.5,0,32.58l-0.98,1.7c-0.69-3.41-1.93-6.74-3.72-9.85L114,103.43h0
			l-11-19.05c-1.79-3.11-3.03-6.43-3.72-9.85l-0.98,1.7c-5.8,10.05-5.82,22.42-0.06,32.48l0,0l18.87,32.68
			c5.82,10.08,5.82,22.5,0,32.58h0l-0.98,1.7c-0.69-3.41-1.93-6.74-3.72-9.85l-23.51-40.73c-3.15-5.46-4.59-11.61-4.33-17.7
			c-25.17,6.58-42.55,20.54-42.55,36.71c0,22.49,33.62,40.73,75.09,40.73s75.09-18.23,75.09-40.73
			C192.2,127.95,174.83,113.99,149.66,107.41z"/>
	</g>
</g>
</svg>
