<?xml version="1.0" encoding="utf-8"?>
<!-- Generator: Adobe Illustrator 27.0.0, SVG Export Plug-In . SVG Version: 6.00 Build 0)  -->
<svg version="1.1" id="Symbol" xmlns="http://www.w3.org/2000/svg" xmlns:xlink="http://www.w3.org/1999/xlink" x="0px" y="0px"
	 viewBox="0 0 234.6 234.6" style="enable-background:new 0 0 234.6 234.6;" xml:space="preserve">
<style type="text/css">
	.st0{fill:#727272;}
</style>
<g>
	<g>
		<path class="st0" d="M149.7,107.4c-0.2-5.2-1.7-10.3-4.3-14.9l-23.5-40.7c-1.8-3.1-3-6.4-3.7-9.9l-1,1.7
			c-5.8,10.1-5.8,22.5,0,32.6l18.8,32.6c5.8,10.1,5.8,22.5,0,32.6l-1,1.7c-0.7-3.4-1.9-6.7-3.7-9.9L114,103.4l0,0l-11-19
			c-1.8-3.1-3-6.4-3.7-9.8l-1,1.7c-5.8,10.1-5.8,22.4-0.1,32.5l0,0l18.9,32.7c5.8,10.1,5.8,22.5,0,32.6l0,0l-1,1.7
			c-0.7-3.4-1.9-6.7-3.7-9.9l-23.5-40.7c-3.2-5.5-4.6-11.6-4.3-17.7C59.4,114,42,127.9,42,144.1c0,22.5,33.6,40.7,75.1,40.7
			s75.1-18.2,75.1-40.7C192.2,127.9,174.8,114,149.7,107.4z"/>
	</g>
</g>
</svg>
