<svg width="40" height="40" viewBox="0 0 40 40" fill="none" xmlns="http://www.w3.org/2000/svg">
<path d="M35.7565 36.772C36.238 36.2854 36.5043 35.6451 36.5043 34.9587L36.4685 24.0481C36.5146 23.1875 36.3045 22.5114 35.864 22.0401C35.4184 21.5637 34.7576 21.3127 33.9483 21.3076L6.05696 21.3127C5.37569 21.3127 4.73027 21.5791 4.24877 22.0657C3.76214 22.5523 3.5009 23.1926 3.5009 23.879L3.53676 34.7897C3.49065 35.6502 3.70067 36.3264 4.1412 36.7976C4.58684 37.2689 5.25275 37.525 6.06208 37.5301L33.9534 37.5199C34.6295 37.5199 35.2698 37.2535 35.7565 36.772ZM20 4.52161C19.0627 4.57283 18.3404 5.37192 18.3916 6.30932C18.4377 7.18012 19.1292 7.87676 20 7.91774C20.9374 7.87164 21.6597 7.07255 21.6085 6.13516C21.5675 5.26435 20.8708 4.56771 20 4.52161ZM20 9.41347C19.3905 9.41347 18.827 9.23419 18.3404 8.93197L7.47074 19.8119L32.5601 19.8068L21.6597 8.93709C21.1731 9.23419 20.6096 9.41347 20 9.41347ZM37.9642 24.0839L38 34.9536C38.0052 36.0293 37.58 37.064 36.8168 37.8272C36.0587 38.5905 35.024 39.0208 33.9483 39.0208L6.04672 39.0259C4.83272 39.0156 3.76726 38.5854 3.04501 37.817C2.31763 37.0435 1.96931 35.9832 2.0359 34.7487L2.00005 23.879C1.99492 22.8033 2.42008 21.7686 3.18331 21.0054C3.75702 20.4266 4.49976 20.0373 5.29885 19.8887C5.31422 19.8682 5.31934 19.8426 5.33983 19.8272L17.2852 7.87676C16.9778 7.37989 16.8088 6.80619 16.8088 6.22224C16.8088 4.46014 18.238 3.02588 20 3.02588C21.757 3.02588 23.1913 4.46014 23.1913 6.22224C23.1913 6.8318 23.012 7.39526 22.7098 7.87676L34.7371 19.8682C34.7422 19.8733 34.7422 19.8785 34.7473 19.8836C35.6284 20.0321 36.3916 20.4214 36.95 21.0156C37.6825 21.7891 38.0308 22.8494 37.9642 24.0839Z" fill="#86888C"/>
<path d="M9.20727 31.578L8.98701 30.7533H7.10198L6.88172 31.5933C6.79464 31.9212 6.72292 32.1414 6.66145 32.2593C6.59999 32.3719 6.50266 32.4334 6.35923 32.4334C6.24142 32.4334 6.13897 32.3719 6.04677 32.249C5.95457 32.1261 5.90847 31.9878 5.90847 31.8341C5.90847 31.747 5.91871 31.6548 5.9392 31.5575C5.95969 31.4602 5.99555 31.3321 6.04165 31.1579L7.22491 26.9013C7.26077 26.7783 7.29663 26.6349 7.34785 26.4607C7.39395 26.2917 7.44518 26.1483 7.50152 26.0356C7.55275 25.9229 7.62446 25.8307 7.71154 25.759C7.79862 25.6873 7.90619 25.6514 8.03425 25.6514C8.16231 25.6514 8.275 25.6873 8.36208 25.759C8.44916 25.8307 8.52087 25.9178 8.5721 26.0304C8.62332 26.1431 8.66942 26.261 8.7104 26.3839C8.74626 26.512 8.79236 26.681 8.8487 26.891L10.0576 31.117C10.1498 31.4397 10.201 31.6702 10.201 31.8187C10.201 31.9724 10.1549 32.1107 10.0678 32.2388C9.98075 32.3668 9.86806 32.4283 9.74512 32.4283C9.67341 32.4283 9.60682 32.4078 9.55559 32.3719C9.50437 32.3361 9.45827 32.2849 9.42241 32.2183C9.38655 32.1517 9.3507 32.0544 9.3046 31.9212C9.26874 31.7982 9.23288 31.6804 9.20727 31.578ZM7.34785 29.7595H8.73089L8.03425 27.0549L7.34785 29.7595Z" fill="#86888C"/>
<path d="M12.8698 32.3207H11.456C11.2511 32.3207 11.1077 32.2541 11.0206 32.1261C10.9335 31.998 10.8874 31.788 10.8874 31.5063V26.5837C10.8874 26.2968 10.9335 26.0868 11.0206 25.9588C11.1077 25.8307 11.2562 25.7692 11.456 25.7692H12.9569C13.1771 25.7692 13.3718 25.7897 13.5306 25.8256C13.6945 25.8666 13.8379 25.9383 13.966 26.051C14.0735 26.1432 14.1709 26.261 14.2579 26.3993C14.3399 26.5427 14.4065 26.6964 14.4526 26.8705C14.4987 27.0396 14.5192 27.224 14.5192 27.4135C14.5192 28.0692 14.2887 28.5507 13.8225 28.8529C14.4321 29.1295 14.7343 29.6622 14.7343 30.4511C14.7343 30.8199 14.6677 31.1477 14.5345 31.4397C14.4014 31.7317 14.2221 31.9519 13.9967 32.0902C13.8533 32.1722 13.6945 32.2337 13.5101 32.2644C13.3308 32.3054 13.1157 32.3207 12.8698 32.3207ZM11.8248 26.763V28.4585H12.6854C12.921 28.4585 13.1003 28.4277 13.2283 28.3663C13.3564 28.3048 13.4537 28.187 13.5203 28.0077C13.5715 27.8848 13.5972 27.7413 13.5972 27.5877C13.5972 27.2547 13.5152 27.0396 13.3462 26.9269C13.1822 26.8193 12.9261 26.763 12.5829 26.763H11.8248ZM12.8032 29.4112H11.8299V31.3219H12.839C13.4742 31.3219 13.7918 30.9992 13.7918 30.3537C13.7918 30.0208 13.7098 29.7852 13.5459 29.6366C13.382 29.4881 13.1259 29.4112 12.8032 29.4112Z" fill="#86888C"/>
<path d="M15.5846 31.6241V26.4607C15.5846 26.1944 15.6256 25.9895 15.7127 25.8563C15.7997 25.7231 15.9124 25.6565 16.0456 25.6565C16.189 25.6565 16.3017 25.7231 16.3888 25.8563C16.4759 25.9895 16.522 26.1892 16.522 26.4607V31.6241C16.522 31.8956 16.4759 32.0953 16.3888 32.2336C16.3017 32.3668 16.189 32.4334 16.0456 32.4334C15.9124 32.4334 15.7997 32.3668 15.7127 32.2285C15.6256 32.0953 15.5846 31.8904 15.5846 31.6241Z" fill="#86888C"/>
<path d="M20.6199 26.7937H18.5095V28.4021H20.456C20.5994 28.4021 20.707 28.4482 20.7787 28.5404C20.8504 28.6326 20.8863 28.7504 20.8863 28.899C20.8863 29.0475 20.8504 29.1705 20.7838 29.2627C20.7172 29.3549 20.6045 29.401 20.4611 29.401H18.5146V31.2655H20.7019C20.8504 31.2655 20.958 31.3116 21.0348 31.409C21.1117 31.5063 21.1475 31.6343 21.1475 31.7931C21.1475 31.9468 21.1117 32.0749 21.0348 32.1722C20.958 32.2695 20.8504 32.3156 20.7019 32.3156H18.1561C17.9512 32.3156 17.8026 32.249 17.7155 32.121C17.6285 31.9929 17.5824 31.788 17.5824 31.5012V26.5786C17.5824 26.389 17.6028 26.2302 17.6438 26.1124C17.6848 25.9895 17.7463 25.9024 17.8333 25.8512C17.9204 25.8 18.028 25.7692 18.1612 25.7692H20.6353C20.7838 25.7692 20.8965 25.8153 20.9682 25.9075C21.04 25.9997 21.0758 26.1227 21.0758 26.2763C21.0758 26.43 21.04 26.5581 20.9682 26.6503C20.8965 26.7425 20.7685 26.7937 20.6199 26.7937Z" fill="#86888C"/>
<path d="M23.1401 29.5188H22.8123V31.6241C22.8123 31.9007 22.7713 32.1056 22.6842 32.2388C22.5971 32.372 22.4844 32.4334 22.3461 32.4334C22.1976 32.4334 22.0798 32.3668 21.9978 32.2285C21.9159 32.0902 21.8749 31.8905 21.8749 31.6241V26.5837C21.8749 26.2968 21.921 26.0919 22.0132 25.9639C22.1054 25.8358 22.2488 25.7692 22.4537 25.7692H23.9751C24.1851 25.7692 24.3644 25.7795 24.5129 25.8051C24.6615 25.8307 24.7946 25.8819 24.9176 25.9588C25.061 26.0458 25.1891 26.1688 25.3018 26.3276C25.4144 26.4864 25.4964 26.6759 25.5579 26.8859C25.6142 27.101 25.6449 27.3264 25.6449 27.5621C25.6449 28.0487 25.5476 28.4431 25.353 28.7351C25.1583 29.0271 24.8612 29.2319 24.4668 29.3549C24.6307 29.4778 24.7895 29.6622 24.9432 29.9081C25.0969 30.154 25.23 30.4101 25.3479 30.6867C25.4657 30.9633 25.5579 31.2092 25.6245 31.4346C25.691 31.6548 25.7218 31.8085 25.7218 31.8905C25.7218 31.9775 25.7013 32.0646 25.6654 32.1466C25.6245 32.2337 25.5732 32.3002 25.5066 32.3463C25.4401 32.3976 25.3632 32.4181 25.271 32.4181C25.1634 32.4181 25.0764 32.3822 25.0047 32.3156C24.9329 32.2439 24.8715 32.1568 24.8202 32.0492C24.769 31.9417 24.6973 31.7829 24.6102 31.578L24.2363 30.6918C24.1031 30.3691 23.9802 30.1181 23.8726 29.9491C23.765 29.78 23.6575 29.6622 23.5499 29.6008C23.4475 29.5495 23.3091 29.5188 23.1401 29.5188ZM23.678 26.763H22.8123V28.566H23.6523C23.8777 28.566 24.0673 28.5404 24.2209 28.4841C24.3746 28.4277 24.4924 28.3355 24.5744 28.2024C24.6563 28.0692 24.6973 27.8848 24.6973 27.6543C24.6973 27.475 24.6666 27.3111 24.6 27.1728C24.5334 27.0345 24.4463 26.932 24.3285 26.8603C24.2158 26.7988 24.0007 26.763 23.678 26.763Z" fill="#86888C"/>
<path d="M29.2152 26.8654H28.1907V31.6241C28.1907 31.9007 28.1498 32.1005 28.0627 32.2337C27.9756 32.3668 27.8629 32.4334 27.7297 32.4334C27.5914 32.4334 27.4787 32.3668 27.3917 32.2337C27.3046 32.1005 27.2585 31.8956 27.2585 31.6241V26.8654H26.234C26.0752 26.8654 25.9574 26.8142 25.8754 26.7169C25.7986 26.6195 25.7576 26.4864 25.7576 26.3224C25.7576 26.1534 25.7986 26.0202 25.8806 25.9178C25.9625 25.8204 26.0803 25.7692 26.234 25.7692H29.2152C29.3791 25.7692 29.497 25.8205 29.5789 25.9229C29.6558 26.0253 29.6967 26.1585 29.6967 26.3224C29.6967 26.4864 29.6558 26.6195 29.5789 26.7169C29.497 26.8142 29.3791 26.8654 29.2152 26.8654Z" fill="#86888C"/>
<path d="M32.2016 25.6565C32.6831 25.6565 33.0928 25.7948 33.436 26.0714C33.7792 26.348 34.0405 26.7373 34.2198 27.2445C34.399 27.7516 34.4861 28.3509 34.4861 29.0322C34.4861 29.5393 34.44 30.0003 34.3427 30.4152C34.2454 30.8301 34.102 31.1887 33.9073 31.4909C33.7127 31.7931 33.477 32.0287 33.1953 32.1875C32.9136 32.3463 32.5909 32.4283 32.2272 32.4283C31.8635 32.4283 31.5408 32.3463 31.2539 32.1824C30.9671 32.0185 30.7263 31.7829 30.5368 31.4806C30.3473 31.1784 30.1987 30.8199 30.1014 30.3947C30.0041 29.9696 29.9528 29.5137 29.9528 29.0219C29.9528 28.5199 30.0041 28.0589 30.1065 27.6389C30.209 27.2188 30.3575 26.8603 30.5522 26.5683C30.7468 26.2712 30.9824 26.0458 31.259 25.8922C31.5356 25.7334 31.8481 25.6565 32.2016 25.6565ZM33.5385 29.027C33.5385 28.5455 33.4821 28.1306 33.3746 27.7823C33.267 27.4289 33.1082 27.1625 32.9033 26.9832C32.6984 26.8039 32.4679 26.7117 32.2016 26.7117C32.012 26.7117 31.843 26.763 31.6842 26.8603C31.5254 26.9576 31.3871 27.1062 31.2744 27.2957C31.1617 27.4852 31.0695 27.7311 31.0029 28.0282C30.9363 28.3253 30.9056 28.6582 30.9056 29.027C30.9056 29.401 30.9363 29.7339 31.0029 30.0361C31.0695 30.3384 31.1617 30.5842 31.2846 30.784C31.4076 30.9838 31.5459 31.1323 31.6996 31.2297C31.8584 31.327 32.0274 31.3782 32.2169 31.3782C32.4577 31.3782 32.6779 31.2911 32.8777 31.1221C33.0775 30.953 33.2363 30.6918 33.3592 30.3332C33.477 29.9798 33.5385 29.5444 33.5385 29.027Z" fill="#86888C"/>
</svg>
