<svg width="28" height="28" viewBox="0 0 28 28" fill="none" xmlns="http://www.w3.org/2000/svg">
<path d="M24.5043 24.5233C24.8253 24.1989 25.0029 23.772 25.0029 23.3144L24.979 16.0407C25.0097 15.467 24.8697 15.0162 24.576 14.702C24.2789 14.3844 23.8384 14.2171 23.2988 14.2137L4.70464 14.2171C4.25046 14.2171 3.82018 14.3947 3.49918 14.7191C3.17476 15.0435 3.0006 15.4704 3.0006 15.928L3.0245 23.2017C2.99377 23.7755 3.13378 24.2262 3.42746 24.5404C3.72456 24.8546 4.1685 25.0253 4.70806 25.0287L23.3023 25.0219C23.753 25.0219 24.1799 24.8443 24.5043 24.5233ZM14 3.02303C13.3751 3.05718 12.8936 3.58991 12.9277 4.21484C12.9585 4.79537 13.4195 5.2598 14 5.28712C14.625 5.25639 15.1065 4.72366 15.0723 4.09873C15.045 3.5182 14.5806 3.05377 14 3.02303ZM14 6.28427C13.5937 6.28427 13.218 6.16475 12.8936 5.96327L5.64716 13.2165L22.3734 13.2131L15.1065 5.96669C14.782 6.16475 14.4064 6.28427 14 6.28427ZM25.9761 16.0646L26 23.311C26.0034 24.0282 25.72 24.718 25.2112 25.2268C24.7058 25.7356 24.016 26.0225 23.2988 26.0225L4.69781 26.0259C3.88848 26.019 3.17818 25.7322 2.69667 25.22C2.21176 24.7043 1.97954 23.9974 2.02393 23.1744L2.00003 15.928C1.99662 15.2109 2.28005 14.521 2.78888 14.0122C3.17135 13.6263 3.66651 13.3668 4.19923 13.2678C4.20948 13.2541 4.21289 13.237 4.22655 13.2268L12.1901 5.2598C11.9852 4.92855 11.8725 4.54608 11.8725 4.15678C11.8725 2.98205 12.8253 2.02588 14 2.02588C15.1713 2.02588 16.1275 2.98205 16.1275 4.15678C16.1275 4.56316 16.008 4.9388 15.8065 5.2598L23.8247 13.2541C23.8281 13.2575 23.8281 13.2609 23.8316 13.2644C24.4189 13.3634 24.9278 13.6229 25.3 14.019C25.7883 14.5347 26.0205 15.2416 25.9761 16.0646Z" fill="#86888C"/>
<path d="M6.80485 21.0606L6.65801 20.5108H5.40132L5.25448 21.0709C5.19642 21.2894 5.14862 21.4363 5.10764 21.5148C5.06666 21.5899 5.00177 21.6309 4.90616 21.6309C4.82761 21.6309 4.75932 21.5899 4.69785 21.508C4.63638 21.426 4.60564 21.3338 4.60564 21.2314C4.60564 21.1733 4.61247 21.1118 4.62613 21.0469C4.63979 20.9821 4.6637 20.8967 4.69443 20.7806L5.48328 17.9428C5.50718 17.8608 5.53109 17.7652 5.56523 17.6491C5.59597 17.5364 5.63012 17.4408 5.66768 17.3657C5.70183 17.2905 5.74964 17.2291 5.80769 17.1813C5.86575 17.1335 5.93746 17.1096 6.02283 17.1096C6.10821 17.1096 6.18333 17.1335 6.24139 17.1813C6.29944 17.2291 6.34725 17.2871 6.3814 17.3623C6.41555 17.4374 6.44628 17.5159 6.4736 17.5979C6.49751 17.6833 6.52824 17.796 6.5658 17.936L7.37172 20.7533C7.43319 20.9684 7.46734 21.1221 7.46734 21.2211C7.46734 21.3236 7.43661 21.4158 7.37855 21.5011C7.3205 21.5865 7.24537 21.6275 7.16341 21.6275C7.1156 21.6275 7.07121 21.6138 7.03706 21.5899C7.00291 21.566 6.97218 21.5319 6.94827 21.4875C6.92437 21.4431 6.90046 21.3782 6.86973 21.2894C6.84583 21.2074 6.82192 21.1289 6.80485 21.0606ZM5.56523 19.8483H6.48726L6.02283 18.0452L5.56523 19.8483Z" fill="#86888C"/>
<path d="M9.24652 21.5558H8.304C8.16741 21.5558 8.07179 21.5114 8.01374 21.426C7.95568 21.3406 7.92495 21.2006 7.92495 21.0128V17.7311C7.92495 17.5398 7.95568 17.3998 8.01374 17.3145C8.07179 17.2291 8.17082 17.1881 8.304 17.1881H9.30457C9.45141 17.1881 9.58118 17.2018 9.68704 17.2257C9.79632 17.253 9.89194 17.3008 9.97731 17.3759C10.049 17.4374 10.1139 17.5159 10.172 17.6081C10.2266 17.7038 10.271 17.8062 10.3017 17.9223C10.3325 18.035 10.3461 18.1579 10.3461 18.2843C10.3461 18.7214 10.1925 19.0424 9.88169 19.2439C10.2881 19.4283 10.4895 19.7834 10.4895 20.3093C10.4895 20.5552 10.4452 20.7738 10.3564 20.9684C10.2676 21.1631 10.1481 21.3099 9.9978 21.4021C9.90218 21.4568 9.79632 21.4977 9.67338 21.5182C9.55386 21.5455 9.41044 21.5558 9.24652 21.5558ZM8.54988 17.8506V18.9809H9.12358C9.28067 18.9809 9.40019 18.9605 9.48556 18.9195C9.57094 18.8785 9.63582 18.7999 9.68021 18.6804C9.71436 18.5985 9.73144 18.5029 9.73144 18.4004C9.73144 18.1784 9.6768 18.035 9.56411 17.9599C9.45483 17.8882 9.28408 17.8506 9.05528 17.8506H8.54988ZM9.20213 19.6161H8.55329V20.8899H9.22603C9.64948 20.8899 9.8612 20.6747 9.8612 20.2445C9.8612 20.0225 9.80656 19.8654 9.69729 19.7664C9.58801 19.6673 9.41727 19.6161 9.20213 19.6161Z" fill="#86888C"/>
<path d="M11.0564 21.0913V17.6491C11.0564 17.4715 11.0837 17.3349 11.1418 17.2462C11.1998 17.1574 11.275 17.113 11.3637 17.113C11.4594 17.113 11.5345 17.1574 11.5925 17.2462C11.6506 17.3349 11.6813 17.4681 11.6813 17.6491V21.0913C11.6813 21.2723 11.6506 21.4055 11.5925 21.4977C11.5345 21.5865 11.4594 21.6309 11.3637 21.6309C11.275 21.6309 11.1998 21.5865 11.1418 21.4943C11.0837 21.4055 11.0564 21.2689 11.0564 21.0913Z" fill="#86888C"/>
<path d="M14.4133 17.8711H13.0063V18.9434H14.304C14.3996 18.9434 14.4713 18.9741 14.5191 19.0356C14.5669 19.097 14.5909 19.1756 14.5909 19.2746C14.5909 19.3737 14.5669 19.4556 14.5226 19.5171C14.4782 19.5786 14.403 19.6093 14.3074 19.6093H13.0097V20.8523H14.4679C14.5669 20.8523 14.6387 20.883 14.6899 20.9479C14.7411 21.0128 14.765 21.0982 14.765 21.204C14.765 21.3065 14.7411 21.3919 14.6899 21.4568C14.6387 21.5216 14.5669 21.5524 14.4679 21.5524H12.7707C12.6341 21.5524 12.5351 21.508 12.477 21.4226C12.419 21.3372 12.3882 21.2006 12.3882 21.0094V17.7277C12.3882 17.6013 12.4019 17.4955 12.4292 17.4169C12.4565 17.335 12.4975 17.2769 12.5556 17.2427C12.6136 17.2086 12.6853 17.1881 12.7741 17.1881H14.4235C14.5226 17.1881 14.5977 17.2188 14.6455 17.2803C14.6933 17.3418 14.7172 17.4237 14.7172 17.5262C14.7172 17.6286 14.6933 17.714 14.6455 17.7755C14.5977 17.8369 14.5123 17.8711 14.4133 17.8711Z" fill="#86888C"/>
<path d="M16.0934 19.6878H15.8749V21.0914C15.8749 21.2758 15.8475 21.4124 15.7895 21.5011C15.7314 21.5899 15.6563 21.6309 15.5641 21.6309C15.4651 21.6309 15.3865 21.5865 15.3319 21.4943C15.2772 21.4021 15.2499 21.2689 15.2499 21.0914V17.7311C15.2499 17.5398 15.2807 17.4032 15.3421 17.3179C15.4036 17.2325 15.4992 17.1881 15.6358 17.1881H16.65C16.79 17.1881 16.9096 17.1949 17.0086 17.212C17.1076 17.2291 17.1964 17.2632 17.2784 17.3145C17.374 17.3725 17.4594 17.4545 17.5345 17.5603C17.6096 17.6662 17.6643 17.7926 17.7052 17.9326C17.7428 18.076 17.7633 18.2262 17.7633 18.3833C17.7633 18.7077 17.6984 18.9707 17.5686 19.1653C17.4389 19.36 17.2408 19.4966 16.9779 19.5785C17.0871 19.6605 17.193 19.7834 17.2955 19.9474C17.3979 20.1113 17.4867 20.282 17.5652 20.4664C17.6438 20.6508 17.7052 20.8147 17.7496 20.965C17.794 21.1118 17.8145 21.2143 17.8145 21.2689C17.8145 21.327 17.8009 21.385 17.777 21.4397C17.7496 21.4977 17.7155 21.5421 17.6711 21.5729C17.6267 21.607 17.5755 21.6207 17.514 21.6207C17.4423 21.6207 17.3842 21.5968 17.3364 21.5524C17.2886 21.5046 17.2476 21.4465 17.2135 21.3748C17.1793 21.3031 17.1315 21.1972 17.0735 21.0606L16.8242 20.4698C16.7354 20.2547 16.6535 20.0874 16.5817 19.9747C16.51 19.862 16.4383 19.7834 16.3666 19.7425C16.2983 19.7083 16.2061 19.6878 16.0934 19.6878ZM16.452 17.8506H15.8749V19.0527H16.4349C16.5852 19.0527 16.7115 19.0356 16.814 18.998C16.9164 18.9604 16.9949 18.899 17.0496 18.8102C17.1042 18.7214 17.1315 18.5985 17.1315 18.4448C17.1315 18.3253 17.1111 18.216 17.0667 18.1238C17.0223 18.0316 16.9642 17.9633 16.8857 17.9155C16.8105 17.8745 16.6671 17.8506 16.452 17.8506Z" fill="#86888C"/>
<path d="M20.1435 17.9189H19.4605V21.0914C19.4605 21.2758 19.4332 21.4089 19.3751 21.4977C19.3171 21.5865 19.2419 21.6309 19.1532 21.6309C19.061 21.6309 18.9858 21.5865 18.9278 21.4977C18.8697 21.4089 18.839 21.2723 18.839 21.0914V17.9189H18.156C18.0501 17.9189 17.9716 17.8848 17.917 17.8199C17.8657 17.755 17.8384 17.6662 17.8384 17.5569C17.8384 17.4442 17.8657 17.3554 17.9204 17.2871C17.975 17.2223 18.0536 17.1881 18.156 17.1881H20.1435C20.2528 17.1881 20.3313 17.2223 20.3859 17.2906C20.4372 17.3589 20.4645 17.4476 20.4645 17.5569C20.4645 17.6662 20.4372 17.755 20.3859 17.8199C20.3313 17.8848 20.2528 17.9189 20.1435 17.9189Z" fill="#86888C"/>
<path d="M22.1344 17.113C22.4554 17.113 22.7286 17.2052 22.9574 17.3896C23.1862 17.574 23.3603 17.8335 23.4798 18.1716C23.5994 18.5097 23.6574 18.9092 23.6574 19.3634C23.6574 19.7015 23.6267 20.0088 23.5618 20.2854C23.4969 20.562 23.4013 20.8011 23.2715 21.0026C23.1418 21.204 22.9847 21.3611 22.7969 21.467C22.609 21.5728 22.3939 21.6275 22.1514 21.6275C21.909 21.6275 21.6938 21.5728 21.5026 21.4636C21.3114 21.3543 21.1509 21.1972 21.0245 20.9957C20.8982 20.7942 20.7991 20.5552 20.7343 20.2718C20.6694 19.9883 20.6352 19.6844 20.6352 19.3566C20.6352 19.0219 20.6694 18.7146 20.7377 18.4345C20.806 18.1545 20.905 17.9155 21.0348 17.7208C21.1645 17.5228 21.3216 17.3725 21.506 17.2701C21.6904 17.1642 21.8987 17.113 22.1344 17.113ZM23.0257 19.36C23.0257 19.039 22.9881 18.7624 22.9164 18.5302C22.8447 18.2945 22.7388 18.117 22.6022 17.9974C22.4656 17.8779 22.3119 17.8164 22.1344 17.8164C22.008 17.8164 21.8953 17.8506 21.7895 17.9155C21.6836 17.9804 21.5914 18.0794 21.5163 18.2057C21.4411 18.3321 21.3797 18.496 21.3353 18.6941C21.2909 18.8921 21.2704 19.1141 21.2704 19.36C21.2704 19.6093 21.2909 19.8312 21.3353 20.0327C21.3797 20.2342 21.4411 20.3981 21.5231 20.5313C21.6051 20.6645 21.6973 20.7635 21.7997 20.8284C21.9056 20.8933 22.0183 20.9274 22.1446 20.9274C22.3051 20.9274 22.452 20.8694 22.5851 20.7567C22.7183 20.644 22.8242 20.4698 22.9061 20.2308C22.9847 19.9952 23.0257 19.7049 23.0257 19.36Z" fill="#86888C"/>
</svg>
