<svg width="20" height="20" viewBox="0 0 20 20" fill="none" xmlns="http://www.w3.org/2000/svg">
<path d="M9.99886 17.5244C4.76726 17.5244 2 14.7594 2 9.52555C2 4.29167 4.76498 1.52441 9.99886 1.52441C12.552 1.52441 14.5312 2.18491 15.8841 3.48997C17.2871 4.84285 18 6.87445 18 9.52555C18.0023 14.7572 15.235 17.5244 9.99886 17.5244ZM9.99886 1.97993C4.99502 1.97993 2.45552 4.51943 2.45552 9.52555C2.45552 14.5294 4.99274 17.0689 9.99886 17.0689C15.0073 17.0689 17.5445 14.5317 17.5445 9.52555C17.5468 4.51715 15.0073 1.97993 9.99886 1.97993Z" fill="#86888C"/>
<path d="M8.79423 13.0489C8.72591 13.0489 8.66213 13.017 8.62342 12.9647L6.52121 10.2179C6.44833 10.1222 6.46655 9.98787 6.56221 9.91498C6.65786 9.8421 6.79224 9.86032 6.86512 9.95598L8.79423 12.4773L13.6159 6.24808C13.6888 6.1547 13.8254 6.13648 13.9188 6.20936C14.0122 6.28224 14.0304 6.4189 13.9575 6.51228L8.96505 12.9647C8.92406 13.017 8.86028 13.0489 8.79423 13.0489Z" fill="#86888C"/>
</svg>
