<svg width="28" height="28" viewBox="0 0 28 28" fill="none" xmlns="http://www.w3.org/2000/svg">
<path d="M13.9983 26C6.15089 26 2 21.8525 2 14.0017C2 6.15089 6.14747 2 13.9983 2C17.828 2 20.7969 2.99075 22.8262 4.94833C24.9307 6.97765 26 10.0251 26 14.0017C26.0034 21.8491 21.8525 26 13.9983 26ZM13.9983 2.68327C6.49253 2.68327 2.68327 6.49253 2.68327 14.0017C2.68327 21.5075 6.48911 25.3167 13.9983 25.3167C21.5109 25.3167 25.3167 21.5109 25.3167 14.0017C25.3201 6.48911 21.5109 2.68327 13.9983 2.68327Z" fill="#86888C"/>
<path d="M12.1909 19.2865C12.0884 19.2865 11.9927 19.2387 11.9346 19.1601L8.78132 15.04C8.672 14.8965 8.69933 14.6949 8.84282 14.5856C8.98631 14.4763 9.18787 14.5036 9.2972 14.6471L12.1909 18.429L19.4233 9.08525C19.5326 8.94518 19.7376 8.91785 19.8777 9.02717C20.0178 9.1365 20.0451 9.34148 19.9358 9.48155L12.4471 19.1601C12.3856 19.2387 12.2899 19.2865 12.1909 19.2865Z" fill="#86888C"/>
</svg>
