<svg width="20" height="20" viewBox="0 0 20 20" fill="none" xmlns="http://www.w3.org/2000/svg">
<path fill-rule="evenodd" clip-rule="evenodd" d="M17.4695 9.46834H10.5339V2.5328C10.5339 2.23908 10.2949 2 10.0011 2C9.70741 2 9.46834 2.23908 9.46834 2.5328V9.46834H2.5328C2.23908 9.46834 2 9.70514 2 10.0011C2 10.2949 2.23908 10.5339 2.5328 10.5339H9.46834V17.4672C9.46834 17.7609 9.70741 18 10.0011 18C10.2949 18 10.5339 17.7609 10.5339 17.4672V10.5339H17.4672C17.7609 10.5339 18 10.2949 18 10.0011C18.0023 9.70741 17.7632 9.46834 17.4695 9.46834Z" fill="#86888C"/>
</svg>
