<svg width="20" height="20" viewBox="0 0 20 20" fill="none" xmlns="http://www.w3.org/2000/svg">
<path fill-rule="evenodd" clip-rule="evenodd" d="M13.9863 9.64257C14.1707 9.64257 14.3187 9.79283 14.3187 9.97496C14.3187 10.1571 14.1685 10.3073 13.9863 10.3073H10.3301V13.9727C10.3301 14.1571 10.1799 14.3051 9.99772 14.3051C9.81559 14.3051 9.66534 14.1548 9.66534 13.9727V10.3096H6.01366C5.82925 10.3096 5.68128 10.1594 5.68128 9.97723C5.68128 9.79511 5.83153 9.64485 6.01366 9.64485H9.66306V6.02504C9.66306 5.84064 9.81332 5.69266 9.99545 5.69266C10.1776 5.69266 10.3278 5.84291 10.3278 6.02504V9.64257H13.9863ZM10.3529 17.3284C11.9898 17.2988 17.333 16.6818 17.333 10.0205C17.333 7.13603 16.3449 5.05293 14.4007 3.83495C12.8116 2.83779 11.0176 2.68981 10.3187 2.67388C10.1411 2.66932 9.93626 2.66705 9.73819 2.66705H9.58566C8.89129 2.67388 7.10871 2.79226 5.54468 3.77803C3.63233 4.9778 2.66705 7.06318 2.66705 9.97496C2.66705 12.889 3.64143 14.9835 5.56972 16.1969C7.14969 17.1918 8.94365 17.3216 9.64257 17.333C9.72225 17.3352 9.80194 17.3352 9.88162 17.3352C10.0455 17.333 10.2094 17.333 10.3529 17.3284ZM10.3324 2.00683C11.8987 2.04326 18 2.66249 18 10.0205C18 17.3944 11.8941 17.9659 10.3665 17.9954C10.2208 17.9977 10.0501 18 9.88162 18C9.79966 18 9.71542 18 9.63347 17.9977C8.02618 17.975 2 17.3944 2 9.97496C2 2.5646 7.97154 2.01366 9.57655 2H9.73591C9.94081 2 10.1503 2.00228 10.3324 2.00683Z" fill="#86888C"/>
</svg>
