<svg width="24" height="24" viewBox="0 0 24 24" fill="none" xmlns="http://www.w3.org/2000/svg">
<path fill-rule="evenodd" clip-rule="evenodd" d="M21.3368 11.3354H12.6674V2.666C12.6674 2.29885 12.3686 2 12.0014 2C11.6343 2 11.3354 2.29885 11.3354 2.666V11.3354H2.666C2.29885 11.3354 2 11.6314 2 12.0014C2 12.3686 2.29885 12.6674 2.666 12.6674H11.3354V21.334C11.3354 21.7012 11.6343 22 12.0014 22C12.3686 22 12.6674 21.7012 12.6674 21.334V12.6674H21.334C21.7012 12.6674 22 12.3686 22 12.0014C22.0028 11.6343 21.704 11.3354 21.3368 11.3354Z" fill="#86888C"/>
</svg>
