<svg width="24" height="24" viewBox="0 0 24 24" fill="none" xmlns="http://www.w3.org/2000/svg">
<path fill-rule="evenodd" clip-rule="evenodd" d="M16.9829 11.5532C17.2134 11.5532 17.3984 11.741 17.3984 11.9687C17.3984 12.1964 17.2106 12.3842 16.9829 12.3842H12.4126V16.9659C12.4126 17.1964 12.2248 17.3813 11.9972 17.3813C11.7695 17.3813 11.5817 17.1935 11.5817 16.9659V12.387H7.01707C6.78657 12.387 6.60159 12.1992 6.60159 11.9715C6.60159 11.7439 6.78941 11.5561 7.01707 11.5561H11.5788V7.0313C11.5788 6.8008 11.7666 6.61582 11.9943 6.61582C12.222 6.61582 12.4098 6.80364 12.4098 7.0313V11.5532H16.9829ZM12.4411 21.1605C14.4872 21.1235 21.1662 20.3523 21.1662 12.0256C21.1662 8.42003 19.9311 5.81616 17.5009 4.29368C15.5145 3.04724 13.2721 2.86227 12.3984 2.84234C12.1764 2.83665 11.9203 2.83381 11.6727 2.83381H11.4821C10.6141 2.84234 8.38588 2.99032 6.43085 4.22254C4.04041 5.72225 2.83381 8.32897 2.83381 11.9687C2.83381 15.6113 4.05179 18.2294 6.46215 19.7462C8.43711 20.9898 10.6796 21.152 11.5532 21.1662C11.6528 21.169 11.7524 21.169 11.852 21.169C12.0569 21.1662 12.2618 21.1662 12.4411 21.1605ZM12.4155 2.00854C14.3734 2.05407 22 2.82812 22 12.0256C22 21.243 14.3677 21.9573 12.4582 21.9943C12.276 21.9972 12.0626 22 11.852 22C11.7496 22 11.6443 22 11.5418 21.9972C9.53273 21.9687 2 21.243 2 11.9687C2 2.70575 9.46443 2.01707 11.4707 2H11.6699C11.926 2 12.1878 2.00285 12.4155 2.00854Z" fill="#86888C"/>
</svg>
