<svg width="28" height="28" viewBox="0 0 28 28" fill="none" xmlns="http://www.w3.org/2000/svg">
<path fill-rule="evenodd" clip-rule="evenodd" d="M20.1268 8.05036C19.8843 8.05378 19.6863 7.86257 19.6829 7.62015C19.6829 7.38455 19.8809 7.18993 20.1233 7.18993C20.3658 7.18993 20.5638 7.38455 20.5638 7.62015C20.5672 7.85916 20.3692 8.05036 20.1268 8.05036ZM21.5267 18.0956C21.7691 18.0956 21.9671 18.2868 21.9671 18.5258C21.9671 18.7614 21.7691 18.956 21.5233 18.956C21.2843 18.9595 21.0862 18.7648 21.0828 18.5258C21.0828 18.2902 21.2808 18.0956 21.5267 18.0956ZM16.7157 14.5787C16.9582 14.5787 17.1562 14.7734 17.1562 15.009C17.1562 15.248 16.9582 15.4392 16.7157 15.4392C16.4733 15.4426 16.2787 15.2514 16.2753 15.009C16.2719 14.77 16.4699 14.5787 16.7157 14.5787ZM17.1118 19.854C17.1118 19.6184 17.3133 19.4238 17.5557 19.4238C17.7981 19.4238 17.9962 19.6184 17.9962 19.854C17.9962 20.0896 17.7981 20.2843 17.5557 20.2843C17.3133 20.2877 17.1152 20.093 17.1118 19.854ZM23.9714 17.8224C23.9714 18.9629 23.6607 22.6607 19.6795 22.729H19.6726C19.3688 22.7597 19.0273 22.63 18.662 22.3978C18.5903 22.3534 18.522 22.3056 18.4571 22.2544C18.2318 22.0871 17.9176 22.1212 17.7367 22.3363C17.5659 22.548 17.5967 22.8553 17.8084 23.026C17.8118 23.0294 17.8186 23.0329 17.822 23.0363C17.9108 23.108 18.0064 23.1729 18.102 23.2343C18.3683 23.4016 18.6312 23.528 18.8907 23.6099C18.4776 24.5284 17.682 24.9962 16.5143 24.9962C15.1076 24.9962 14.6022 23.5587 14.51 23.2514C14.5134 23.0158 14.5203 22.2407 14.51 22.0461V20.3525H16.1797C16.388 20.8954 16.924 21.2813 17.5523 21.2813C18.3615 21.2813 19.0205 20.6394 19.0205 19.8506C19.0205 19.0619 18.3615 18.42 17.5523 18.42C16.924 18.42 16.3914 18.8092 16.1797 19.3487H14.5066V11.1677H16.1114V13.7047C15.6061 13.93 15.2475 14.4285 15.2475 15.009C15.2475 15.7977 15.9065 16.4396 16.7157 16.4396C17.344 16.4396 17.8801 16.0504 18.0883 15.5075H21.0179V17.1908C20.4477 17.3888 20.0653 17.9249 20.0585 18.5258C20.0585 19.3146 20.7175 19.9565 21.5267 19.9565C22.3359 19.9565 22.9949 19.318 22.9949 18.5258C22.9881 17.9249 22.609 17.3922 22.0423 17.1942V15.0055C22.0423 14.729 21.8135 14.507 21.5267 14.507H18.0849C17.921 14.0905 17.5728 13.7729 17.1391 13.6466V11.1677H20.1233C20.4033 11.1711 20.6321 10.9492 20.6355 10.6692V8.9586C21.1921 8.75715 21.595 8.23474 21.595 7.62015C21.595 6.83141 20.936 6.1895 20.1268 6.1895C19.3175 6.1895 18.6586 6.828 18.6586 7.62015C18.6586 8.23133 19.058 8.75032 19.6112 8.95519V10.1673H14.51V5.95049C14.51 5.71831 14.5169 4.8408 14.5203 4.56082C14.6466 4.25694 15.2373 3.00043 16.5177 3.00043C17.682 3.00043 18.4776 3.4682 18.8907 4.38327C17.9449 4.6735 17.3542 5.42808 17.0845 6.17584C17.0572 6.25437 17.0299 6.33632 17.006 6.40461C16.924 6.66752 17.0709 6.9475 17.3338 7.02945C17.3372 7.02945 17.3406 7.02945 17.3406 7.03286C17.6103 7.11481 17.8937 6.9714 17.9859 6.70508L18.0508 6.51046C18.1874 6.12804 18.662 5.26078 19.6795 5.26078C23.6607 5.26761 23.9714 9.02006 23.9714 10.1707C23.9714 10.6214 23.9099 12.0418 23.2202 13.2369C23.0666 13.1242 22.9061 13.0184 22.7354 12.9262C23.3636 12.1306 23.0837 11.3077 22.5954 10.8058L22.4998 10.7136C22.2983 10.5258 22.0013 10.56 21.8067 10.758C21.612 10.9595 21.6496 11.3043 21.8545 11.4955C22.312 11.9667 21.933 12.3321 21.8032 12.4516C21.7862 12.4686 21.7759 12.4925 21.7623 12.513C21.4823 12.4345 21.1921 12.3764 20.9018 12.3457C20.6219 12.3116 20.3692 12.5096 20.335 12.7862C20.3077 13.0627 20.5092 13.3086 20.7857 13.3393H20.7892C21.6837 13.4349 22.3974 13.7661 22.9198 14.3192C23.8929 15.5792 23.9714 17.3205 23.9714 17.8224ZM6.82757 19.195C6.58515 19.1985 6.39052 19.0073 6.3837 18.7648C6.3837 18.5258 6.58515 18.3346 6.82757 18.3346C7.07 18.3346 7.26803 18.5258 7.26803 18.7648C7.27145 19.0004 7.07341 19.195 6.82757 19.195ZM10.6176 16.5181C10.86 16.5181 11.058 16.7128 11.058 16.9484C11.0546 17.1908 10.86 17.382 10.6176 17.382C10.3752 17.3854 10.1805 17.1908 10.1771 16.9518C10.1737 16.7128 10.3717 16.5216 10.6176 16.5181ZM7.12804 10.659C7.12463 10.9014 6.92659 11.0926 6.68417 11.0892C6.44516 11.0926 6.24712 10.898 6.2437 10.659C6.2437 10.42 6.44174 10.2288 6.68417 10.2288C6.93 10.2288 7.12804 10.4234 7.12804 10.659ZM11.0273 7.65429C11.0273 7.8933 10.8259 8.08451 10.5834 8.08451C10.3444 8.08792 10.1464 7.89671 10.143 7.65429C10.143 7.41528 10.341 7.22407 10.5834 7.22407C10.8293 7.22407 11.0273 7.41869 11.0273 7.65429ZM11.478 24.9962C10.3239 24.9962 9.53521 24.5352 9.11865 23.6372C9.41571 23.5587 9.71618 23.4289 10.0201 23.2343C10.2522 23.0909 10.3239 22.787 10.1805 22.5583C10.1771 22.5548 10.1737 22.548 10.1703 22.5446C10.0132 22.3124 9.69569 22.2475 9.46009 22.4012C9.10158 22.63 8.76355 22.7631 8.45284 22.729C8.42211 22.729 8.39821 22.7392 8.36748 22.7426C8.35382 22.7426 8.34016 22.7392 8.3265 22.7392C4.33504 22.7392 4.02433 18.9765 4.02433 17.8259C4.02433 17.3649 4.09262 15.8899 4.83013 14.6778C4.92232 14.7256 5.02134 14.7631 5.12036 14.7973C4.97695 15.6714 5.51985 16.2962 6.20273 16.5557L6.31541 16.5967C6.58173 16.6923 6.87196 16.5557 6.97098 16.2928C7.06317 16.0333 6.92659 15.7499 6.66709 15.6577C6.66368 15.6577 6.66026 15.6543 6.65685 15.6543L6.56808 15.6236C6.1481 15.4665 6.09688 15.1933 6.12761 14.9851C6.17542 14.9851 6.22663 14.9919 6.27443 14.9919C6.79684 14.9919 7.25096 14.8792 7.63338 14.6504C7.86897 14.5139 7.95092 14.2134 7.81434 13.9778C7.81093 13.971 7.80751 13.9676 7.8041 13.9607C7.65386 13.7217 7.33974 13.65 7.10073 13.7934C6.83099 13.9539 6.47247 14.0154 6.03884 13.9778C5.60179 13.9402 5.27059 13.8207 5.03841 13.6261C4.10627 12.3696 4.02774 10.6761 4.02774 10.1776C4.02774 9.02689 4.33845 5.26419 8.42894 5.26419H8.43235C8.73624 5.25395 9.00939 5.31882 9.25181 5.46223C9.49424 5.60563 9.80495 5.5271 9.95519 5.28809C10.0952 5.05591 10.0235 4.75203 9.79129 4.61204C9.78788 4.60862 9.78105 4.60521 9.77764 4.60521C9.57618 4.48912 9.35766 4.40376 9.13231 4.34913C9.55228 3.46137 10.341 3.00726 11.4883 3.00726C12.8916 3.00726 13.4003 4.44473 13.4925 4.75203C13.4891 4.99104 13.4823 5.7627 13.4925 5.95391V7.15578H11.9663C11.7443 6.5924 11.2015 6.22365 10.5971 6.22706C9.78788 6.22706 9.12889 6.86556 9.12889 7.6577C9.12889 8.44985 9.78788 9.08835 10.5971 9.08835C11.2254 9.08835 11.758 8.6991 11.9663 8.15621H13.4959V10.1605H8.06701C7.84507 9.5971 7.30218 9.22834 6.69782 9.23175C5.8886 9.23175 5.22962 9.87367 5.22962 10.6624C5.22962 11.4511 5.8886 12.093 6.69782 12.093C7.32608 12.093 7.85873 11.7038 8.07042 11.1609H13.4959V12.9296H10.6278C10.3478 12.9262 10.1191 13.1515 10.1157 13.4281V15.6133C9.54887 15.8148 9.16645 16.3474 9.16304 16.9484C9.16304 17.7371 9.82202 18.379 10.6312 18.379C11.4405 18.379 12.0994 17.7371 12.0994 16.9484C12.0994 16.3338 11.7 15.8182 11.1434 15.6133V13.9266H13.4994V20.4311H7.35339V20.0999C7.90994 19.895 8.30943 19.376 8.30943 18.7614C8.30943 17.9727 7.65045 17.3308 6.84123 17.3308C6.03201 17.3308 5.37303 17.9727 5.37303 18.7614C5.37303 19.376 5.77251 19.895 6.32907 20.0999V20.933C6.32907 21.2096 6.55783 21.4315 6.84123 21.4315H13.4994V22.0461C13.4994 22.2817 13.4925 23.1558 13.4891 23.4392C13.3491 23.7499 12.7618 24.9962 11.478 24.9962ZM24.9957 10.1741C24.9957 9.21127 24.7533 4.5096 19.9526 4.27742C19.4268 2.8058 18.2181 2 16.5177 2C15.2202 2 14.4281 2.77849 13.9842 3.43406C13.4994 2.69996 12.6936 2 11.478 2C9.77764 2 8.57234 2.80239 8.04311 4.26718C3.24584 4.44473 3 9.20444 3 10.1741C3 10.7204 3.07853 12.5301 4.04823 13.9949C3.07853 15.4631 3 17.2761 3 17.8259C3 18.7887 3.24242 23.4938 8.04311 23.7226C8.56893 25.1942 9.77764 26 11.4814 26C12.7789 26 13.5711 25.2215 14.0149 24.5659C14.4964 25.3 15.3056 26 16.5211 26C18.2215 26 19.4268 25.201 19.956 23.7362C24.7533 23.5553 24.9991 18.7956 24.9991 17.8259C24.9991 17.2796 24.9206 15.4699 23.9509 14.0051C24.9172 12.5335 24.9957 10.7204 24.9957 10.1741Z" fill="#86888C"/>
</svg>
