<svg width="24" height="24" viewBox="0 0 24 24" fill="none" xmlns="http://www.w3.org/2000/svg">
<path fill-rule="evenodd" clip-rule="evenodd" d="M17.2723 7.04197C17.0703 7.04481 16.9052 6.88547 16.9024 6.68345C16.9024 6.48712 17.0674 6.32494 17.2695 6.32494C17.4715 6.32494 17.6365 6.48712 17.6365 6.68345C17.6394 6.88263 17.4743 7.04197 17.2723 7.04197ZM18.4389 15.413C18.6409 15.413 18.8059 15.5723 18.8059 15.7715C18.8059 15.9678 18.6409 16.13 18.436 16.13C18.2369 16.1329 18.0718 15.9707 18.069 15.7715C18.069 15.5752 18.234 15.413 18.4389 15.413ZM14.4298 12.4823C14.6318 12.4823 14.7968 12.6445 14.7968 12.8408C14.7968 13.04 14.6318 13.1993 14.4298 13.1993C14.2278 13.2022 14.0656 13.0428 14.0627 12.8408C14.0599 12.6416 14.2249 12.4823 14.4298 12.4823ZM14.7599 16.8784C14.7599 16.682 14.9277 16.5198 15.1297 16.5198C15.3318 16.5198 15.4968 16.682 15.4968 16.8784C15.4968 17.0747 15.3318 17.2369 15.1297 17.2369C14.9277 17.2397 14.7627 17.0775 14.7599 16.8784ZM20.4762 15.1854C20.4762 16.1357 20.2172 19.2172 16.8996 19.2741H16.8939C16.6406 19.2998 16.3561 19.1916 16.0516 18.9982C15.9919 18.9612 15.935 18.9213 15.8809 18.8786C15.6931 18.7392 15.4314 18.7677 15.2806 18.9469C15.1383 19.1233 15.1639 19.3794 15.3403 19.5217C15.3431 19.5245 15.3488 19.5274 15.3517 19.5302C15.4257 19.59 15.5053 19.644 15.585 19.6953C15.8069 19.8347 16.026 19.94 16.2423 20.0083C15.898 20.7737 15.235 21.1635 14.2619 21.1635C13.0896 21.1635 12.6685 19.9656 12.5917 19.7095C12.5945 19.5132 12.6002 18.8673 12.5917 18.7051V17.2938H13.9831C14.1566 17.7462 14.6034 18.0677 15.1269 18.0677C15.8013 18.0677 16.3504 17.5328 16.3504 16.8755C16.3504 16.2182 15.8013 15.6833 15.1269 15.6833C14.6034 15.6833 14.1595 16.0077 13.9831 16.4572H12.5888V9.63978H13.9262V11.7539C13.505 11.9417 13.2063 12.3571 13.2063 12.8408C13.2063 13.4981 13.7554 14.033 14.4298 14.033C14.9533 14.033 15.4001 13.7086 15.5736 13.2562H18.0149V14.659C17.5398 14.824 17.2211 15.2707 17.2154 15.7715C17.2154 16.4288 17.7645 16.9637 18.4389 16.9637C19.1132 16.9637 19.6624 16.4316 19.6624 15.7715C19.6567 15.2707 19.3409 14.8269 18.8685 14.6618V12.838C18.8685 12.6075 18.6779 12.4225 18.4389 12.4225H15.5708C15.4342 12.0754 15.144 11.8108 14.7826 11.7055V9.63978H17.2695C17.5028 9.64262 17.6934 9.45767 17.6963 9.22436V7.79883C18.1601 7.63096 18.4958 7.19562 18.4958 6.68345C18.4958 6.02618 17.9466 5.49125 17.2723 5.49125C16.598 5.49125 16.0488 6.02333 16.0488 6.68345C16.0488 7.19277 16.3817 7.62527 16.8427 7.79599V8.80609H12.5917V5.29208C12.5917 5.09859 12.5974 4.36734 12.6002 4.13402C12.7055 3.88078 13.1978 2.83369 14.2648 2.83369C15.235 2.83369 15.898 3.2235 16.2423 3.98606C15.4541 4.22791 14.9619 4.85674 14.7371 5.47987C14.7143 5.54531 14.6916 5.6136 14.6716 5.67051C14.6034 5.8896 14.7257 6.12292 14.9448 6.19121C14.9476 6.19121 14.9505 6.19121 14.9505 6.19405C15.1753 6.26234 15.4114 6.14284 15.4883 5.9209L15.5423 5.75871C15.6561 5.44003 16.0516 4.71731 16.8996 4.71731C20.2172 4.723 20.4762 7.85005 20.4762 8.80893C20.4762 9.18452 20.425 10.3682 19.8502 11.3641C19.7222 11.2702 19.5884 11.182 19.4461 11.1051C19.9697 10.4422 19.7364 9.75644 19.3295 9.33817L19.2498 9.26135C19.0819 9.10485 18.8344 9.1333 18.6722 9.29834C18.51 9.46621 18.5413 9.75359 18.712 9.91293C19.0933 10.3056 18.7775 10.61 18.6694 10.7096C18.6551 10.7239 18.6466 10.7438 18.6352 10.7608C18.4019 10.6954 18.16 10.647 17.9182 10.6214C17.6849 10.593 17.4743 10.758 17.4459 10.9885C17.4231 11.219 17.591 11.4238 17.8215 11.4494H17.8243C18.5698 11.5291 19.1645 11.8051 19.5998 12.266C20.4107 13.316 20.4762 14.7671 20.4762 15.1854ZM6.18964 16.3292C5.98762 16.3321 5.82544 16.1727 5.81975 15.9707C5.81975 15.7715 5.98762 15.6122 6.18964 15.6122C6.39166 15.6122 6.55669 15.7715 6.55669 15.9707C6.55954 16.167 6.39451 16.3292 6.18964 16.3292ZM9.34799 14.0984C9.55001 14.0984 9.71504 14.2606 9.71504 14.457C9.71219 14.659 9.55001 14.8183 9.34799 14.8183C9.14597 14.8212 8.98378 14.659 8.98094 14.4598C8.97809 14.2606 9.14312 14.1013 9.34799 14.0984ZM6.44003 9.21582C6.43719 9.41784 6.27216 9.57718 6.07014 9.57434C5.87096 9.57718 5.70593 9.415 5.70309 9.21582C5.70309 9.01665 5.86812 8.85731 6.07014 8.85731C6.275 8.85731 6.44003 9.01949 6.44003 9.21582ZM9.68943 6.71191C9.68943 6.91108 9.52155 7.07042 9.31953 7.07042C9.12036 7.07327 8.95533 6.91393 8.95248 6.71191C8.95248 6.51273 9.11751 6.35339 9.31953 6.35339C9.5244 6.35339 9.68943 6.51558 9.68943 6.71191ZM10.065 21.1635C9.10329 21.1635 8.44601 20.7793 8.09888 20.031C8.34642 19.9656 8.59681 19.8574 8.85005 19.6953C9.04353 19.5758 9.10329 19.3225 8.98378 19.1319C8.98094 19.129 8.97809 19.1233 8.97524 19.1205C8.84436 18.927 8.57974 18.873 8.38341 19.001C8.08465 19.1916 7.80296 19.3026 7.54403 19.2741C7.51842 19.2741 7.49851 19.2827 7.4729 19.2855C7.46152 19.2855 7.45013 19.2827 7.43875 19.2827C4.11253 19.2827 3.85361 16.1471 3.85361 15.1882C3.85361 14.8041 3.91051 13.5749 4.52511 12.5648C4.60193 12.6046 4.68445 12.6359 4.76697 12.6644C4.64746 13.3928 5.09987 13.9135 5.66894 14.1297L5.76284 14.1639C5.98478 14.2436 6.22663 14.1297 6.30915 13.9107C6.38597 13.6944 6.27216 13.4582 6.05591 13.3814C6.05307 13.3814 6.05022 13.3786 6.04737 13.3786L5.9734 13.353C5.62342 13.2221 5.58074 12.9945 5.60635 12.8209C5.64618 12.8209 5.68886 12.8266 5.72869 12.8266C6.16403 12.8266 6.54247 12.7327 6.86115 12.542C7.05748 12.4282 7.12576 12.1778 7.01195 11.9815C7.0091 11.9758 7.00626 11.973 7.00341 11.9673C6.87822 11.7681 6.61645 11.7084 6.41727 11.8279C6.19249 11.9616 5.89373 12.0128 5.53237 11.9815C5.16816 11.9502 4.89216 11.8506 4.69868 11.6884C3.92189 10.6413 3.85645 9.23005 3.85645 8.81463C3.85645 7.85574 4.11538 4.72016 7.52411 4.72016H7.52696C7.7802 4.71162 8.00782 4.76569 8.20984 4.88519C8.41186 5.00469 8.67079 4.93925 8.79599 4.74008C8.91265 4.54659 8.85289 4.29336 8.65941 4.1767C8.65657 4.17385 8.65087 4.17101 8.64803 4.17101C8.48015 4.07426 8.29805 4.00313 8.11026 3.9576C8.46024 3.21781 9.11751 2.83938 10.0736 2.83938C11.243 2.83938 11.667 4.03727 11.7438 4.29336C11.7409 4.49253 11.7352 5.13558 11.7438 5.29492V6.29649H10.4719C10.287 5.827 9.83454 5.5197 9.33091 5.52255C8.65657 5.52255 8.10741 6.05463 8.10741 6.71475C8.10741 7.37488 8.65657 7.90696 9.33091 7.90696C9.85446 7.90696 10.2983 7.58259 10.4719 7.13018H11.7466V8.8004H7.22251C7.03756 8.33091 6.58515 8.02362 6.08152 8.02646C5.40717 8.02646 4.85802 8.56139 4.85802 9.21867C4.85802 9.87594 5.40717 10.4109 6.08152 10.4109C6.60506 10.4109 7.04894 10.0865 7.22535 9.63409H11.7466V11.108H9.35652C9.1232 11.1051 8.93256 11.2929 8.92972 11.5234V13.3444C8.45739 13.5123 8.13871 13.9562 8.13587 14.457C8.13587 15.1142 8.68502 15.6492 9.35937 15.6492C10.0337 15.6492 10.5829 15.1142 10.5829 14.457C10.5829 13.9448 10.25 13.5152 9.78617 13.3444V11.9388H11.7495V17.3592H6.62783V17.0832C7.09162 16.9125 7.42453 16.48 7.42453 15.9678C7.42453 15.3106 6.87537 14.7756 6.20102 14.7756C5.52667 14.7756 4.97752 15.3106 4.97752 15.9678C4.97752 16.48 5.31043 16.9125 5.77422 17.0832V17.7775C5.77422 18.008 5.96486 18.1929 6.20102 18.1929H11.7495V18.7051C11.7495 18.9014 11.7438 19.6298 11.7409 19.866C11.6243 20.1249 11.1349 21.1635 10.065 21.1635ZM21.3298 8.81178C21.3298 8.00939 21.1278 4.09134 17.1272 3.89785C16.689 2.6715 15.6817 2 14.2648 2C13.1835 2 12.5234 2.64874 12.1535 3.19505C11.7495 2.5833 11.078 2 10.065 2C8.64803 2 7.64362 2.66866 7.20259 3.88932C3.20487 4.03727 3 8.0037 3 8.81178C3 9.26704 3.06544 10.7751 3.87352 11.9957C3.06544 13.2192 3 14.7301 3 15.1882C3 15.9906 3.20202 19.9115 7.20259 20.1021C7.64077 21.3285 8.64803 22 10.0679 22C11.1491 22 11.8092 21.3513 12.1791 20.805C12.5803 21.4167 13.2547 22 14.2676 22C15.6846 22 16.689 21.3342 17.13 20.1135C21.1278 19.9627 21.3326 15.9963 21.3326 15.1882C21.3326 14.733 21.2672 13.2249 20.4591 12.0043C21.2643 10.7779 21.3298 9.26704 21.3298 8.81178Z" fill="#86888C"/>
</svg>
