<svg width="20" height="20" viewBox="0 0 20 20" fill="none" xmlns="http://www.w3.org/2000/svg">
<path fill-rule="evenodd" clip-rule="evenodd" d="M14.118 6.03358C13.9564 6.03585 13.8244 5.90838 13.8221 5.74676C13.8221 5.5897 13.9541 5.45995 14.1158 5.45995C14.2774 5.45995 14.4094 5.5897 14.4094 5.74676C14.4117 5.9061 14.2797 6.03358 14.118 6.03358ZM15.0513 12.7304C15.2129 12.7304 15.345 12.8579 15.345 13.0172C15.345 13.1743 15.2129 13.304 15.049 13.304C14.8897 13.3063 14.7577 13.1766 14.7554 13.0172C14.7554 12.8602 14.8874 12.7304 15.0513 12.7304ZM11.844 10.3858C12.0056 10.3858 12.1377 10.5156 12.1377 10.6726C12.1377 10.832 12.0056 10.9595 11.844 10.9595C11.6824 10.9617 11.5527 10.8343 11.5504 10.6726C11.5481 10.5133 11.6801 10.3858 11.844 10.3858ZM12.1081 13.9027C12.1081 13.7456 12.2424 13.6159 12.404 13.6159C12.5656 13.6159 12.6976 13.7456 12.6976 13.9027C12.6976 14.0598 12.5656 14.1895 12.404 14.1895C12.2424 14.1918 12.1104 14.062 12.1081 13.9027ZM16.6811 12.5483C16.6811 13.3086 16.474 15.7738 13.8198 15.8193H13.8153C13.6127 15.8398 13.3851 15.7533 13.1415 15.5985C13.0937 15.5689 13.0482 15.5371 13.0049 15.5029C12.8547 15.3914 12.6453 15.4141 12.5246 15.5575C12.4108 15.6987 12.4313 15.9035 12.5724 16.0174C12.5747 16.0196 12.5793 16.0219 12.5815 16.0242C12.6407 16.072 12.7045 16.1152 12.7682 16.1562C12.9457 16.2677 13.121 16.352 13.294 16.4066C13.0186 17.0189 12.4882 17.3308 11.7097 17.3308C10.7719 17.3308 10.435 16.3725 10.3735 16.1676C10.3758 16.0105 10.3804 15.4938 10.3735 15.3641V14.235H11.4867C11.6255 14.597 11.9829 14.8542 12.4017 14.8542C12.9412 14.8542 13.3805 14.4262 13.3805 13.9004C13.3805 13.3746 12.9412 12.9466 12.4017 12.9466C11.9829 12.9466 11.6278 13.2061 11.4867 13.5658H10.3713V8.11182H11.4411V9.8031C11.1042 9.95334 10.8652 10.2857 10.8652 10.6726C10.8652 11.1985 11.3045 11.6264 11.844 11.6264C12.2629 11.6264 12.6202 11.3669 12.7591 11.005H14.7121V12.1272C14.332 12.2592 14.0771 12.6166 14.0725 13.0172C14.0725 13.543 14.5118 13.971 15.0513 13.971C15.5908 13.971 16.0301 13.5453 16.0301 13.0172C16.0256 12.6166 15.7729 12.2615 15.395 12.1295V10.6704C15.395 10.486 15.2425 10.338 15.0513 10.338H12.7568C12.6476 10.0603 12.4154 9.84863 12.1263 9.7644V8.11182H14.1158C14.3024 8.1141 14.4549 7.96614 14.4572 7.77948V6.63907C14.8282 6.50477 15.0968 6.15649 15.0968 5.74676C15.0968 5.22094 14.6575 4.793 14.118 4.793C13.5786 4.793 13.1392 5.21867 13.1392 5.74676C13.1392 6.15422 13.4056 6.50021 13.7743 6.63679V7.44487H10.3735V4.63366C10.3735 4.47887 10.3781 3.89387 10.3804 3.70721C10.4646 3.50462 10.8584 2.66695 11.712 2.66695C12.4882 2.66695 13.0186 2.9788 13.294 3.58885C12.6635 3.78233 12.2697 4.28539 12.0899 4.7839C12.0717 4.83625 12.0534 4.89088 12.0375 4.93641C11.9829 5.11168 12.0808 5.29834 12.256 5.35297C12.2583 5.35297 12.2606 5.35297 12.2606 5.35524C12.4404 5.40987 12.6293 5.31427 12.6908 5.13672L12.7341 5.00697C12.8251 4.75203 13.1415 4.17385 13.8198 4.17385C16.474 4.1784 16.6811 6.68004 16.6811 7.44715C16.6811 7.74762 16.6402 8.69455 16.1803 9.49125C16.0779 9.41613 15.9709 9.34557 15.8571 9.28411C16.276 8.75373 16.0893 8.20515 15.7638 7.87054L15.7001 7.80908C15.5658 7.68388 15.3677 7.70664 15.238 7.83867C15.1082 7.97297 15.1333 8.20287 15.2698 8.33035C15.5749 8.64447 15.3222 8.88804 15.2357 8.96771C15.2243 8.97909 15.2175 8.99502 15.2084 9.00868C15.0217 8.95632 14.8282 8.91763 14.6348 8.89714C14.4481 8.87438 14.2797 9.0064 14.2569 9.19078C14.2387 9.37516 14.373 9.53905 14.5574 9.55954H14.5596C15.156 9.62327 15.6318 9.84407 15.98 10.2128C16.6288 11.0528 16.6811 12.2137 16.6811 12.5483ZM5.25191 13.4634C5.09029 13.4656 4.96055 13.3382 4.95599 13.1766C4.95599 13.0172 5.09029 12.8897 5.25191 12.8897C5.41353 12.8897 5.54555 13.0172 5.54555 13.1766C5.54783 13.3336 5.4158 13.4634 5.25191 13.4634ZM7.77858 11.6788C7.9402 11.6788 8.07223 11.8085 8.07223 11.9656C8.06995 12.1272 7.9402 12.2547 7.77858 12.2547C7.61697 12.2569 7.48722 12.1272 7.48494 11.9678C7.48267 11.8085 7.61469 11.681 7.77858 11.6788ZM5.45222 7.77266C5.44995 7.93427 5.31792 8.06174 5.15631 8.05947C4.99697 8.06174 4.86494 7.932 4.86266 7.77266C4.86266 7.61332 4.99469 7.48584 5.15631 7.48584C5.3202 7.48584 5.45222 7.61559 5.45222 7.77266ZM8.05174 5.76953C8.05174 5.92887 7.91744 6.05634 7.75582 6.05634C7.59648 6.05861 7.46446 5.93114 7.46218 5.76953C7.46218 5.61019 7.59421 5.48271 7.75582 5.48271C7.91971 5.48271 8.05174 5.61246 8.05174 5.76953ZM8.35221 17.3308C7.58282 17.3308 7.057 17.0235 6.7793 16.4248C6.97733 16.3725 7.17765 16.286 7.38023 16.1562C7.53502 16.0606 7.58282 15.858 7.48722 15.7055C7.48494 15.7032 7.48267 15.6987 7.48039 15.6964C7.37568 15.5416 7.16399 15.4984 7.00692 15.6008C6.76791 15.7533 6.54256 15.8421 6.33542 15.8193C6.31493 15.8193 6.299 15.8261 6.27851 15.8284C6.26941 15.8284 6.2603 15.8261 6.2512 15.8261C3.59022 15.8261 3.38308 13.3177 3.38308 12.5506C3.38308 12.2433 3.42861 11.2599 3.92028 10.4518C3.98174 10.4837 4.04776 10.5087 4.11377 10.5315C4.01816 11.1142 4.38009 11.5308 4.83535 11.7038L4.91047 11.7311C5.08802 11.7948 5.2815 11.7038 5.34751 11.5285C5.40897 11.3555 5.31792 11.1666 5.14492 11.1051C5.14265 11.1051 5.14037 11.1029 5.1381 11.1029L5.07891 11.0824C4.79893 10.9777 4.76478 10.7956 4.78527 10.6567C4.81714 10.6567 4.85128 10.6613 4.88315 10.6613C5.23142 10.6613 5.53417 10.5861 5.78911 10.4336C5.94618 10.3426 6.00081 10.1423 5.90976 9.9852C5.90748 9.98065 5.9052 9.97837 5.90293 9.97382C5.80277 9.81448 5.59335 9.76668 5.43401 9.86228C5.25419 9.96927 5.01518 10.0102 4.72609 9.9852C4.43472 9.96016 4.21392 9.88049 4.05914 9.75075C3.43771 8.91307 3.38536 7.78404 3.38536 7.4517C3.38536 6.68459 3.5925 4.17613 6.31949 4.17613H6.32176C6.52435 4.1693 6.70645 4.21255 6.86807 4.30815C7.02969 4.40376 7.23683 4.3514 7.33699 4.19206C7.43031 4.03727 7.38251 3.83468 7.22772 3.74136C7.22545 3.73908 7.2209 3.7368 7.21862 3.7368C7.08432 3.65941 6.93864 3.6025 6.7884 3.56608C7.06838 2.97425 7.59421 2.6715 8.35904 2.6715C9.29459 2.6715 9.63376 3.62982 9.69522 3.83468C9.69294 3.99402 9.68839 4.50846 9.69522 4.63594V5.43719H8.67772C8.52976 5.0616 8.16783 4.81576 7.76493 4.81804C7.22545 4.81804 6.78612 5.2437 6.78612 5.7718C6.78612 6.2999 7.22545 6.72557 7.76493 6.72557C8.18376 6.72557 8.53886 6.46607 8.67772 6.10414H9.69749V7.44032H6.0782C5.93024 7.06473 5.56831 6.81889 5.16541 6.82117C4.62593 6.82117 4.18661 7.24911 4.18661 7.77493C4.18661 8.30075 4.62593 8.7287 5.16541 8.7287C5.58425 8.7287 5.93935 8.4692 6.08048 8.10727H9.69749V9.28639H7.78541C7.59876 9.28411 7.44625 9.43434 7.44397 9.61872V11.0755C7.06611 11.2098 6.81116 11.5649 6.80889 11.9656C6.80889 12.4914 7.24821 12.9193 7.78769 12.9193C8.32717 12.9193 8.76649 12.4914 8.76649 11.9656C8.76649 11.5558 8.50017 11.2121 8.12913 11.0755V9.95106H9.69977V14.2874H5.60246V14.0666C5.97349 13.93 6.23982 13.584 6.23982 13.1743C6.23982 12.6485 5.80049 12.2205 5.26101 12.2205C4.72154 12.2205 4.28221 12.6485 4.28221 13.1743C4.28221 13.584 4.54854 13.93 4.91957 14.0666V14.622C4.91957 14.8064 5.07208 14.9543 5.26101 14.9543H9.69977V15.3641C9.69977 15.5211 9.69522 16.1039 9.69294 16.2928C9.59961 16.4999 9.20809 17.3308 8.35221 17.3308ZM17.364 7.44942C17.364 6.80751 17.2024 3.67307 14.0019 3.51828C13.6514 2.5372 12.8456 2 11.712 2C10.847 2 10.3189 2.51899 10.023 2.95604C9.69977 2.46664 9.16257 2 8.35221 2C7.21862 2 6.41509 2.53493 6.06227 3.51145C2.86409 3.62982 2.7002 6.80296 2.7002 7.44942C2.7002 7.81363 2.75255 9.02006 3.39901 9.99658C2.75255 10.9754 2.7002 12.1841 2.7002 12.5506C2.7002 13.1925 2.86181 16.3292 6.06227 16.4817C6.41281 17.4628 7.21862 18 8.35448 18C9.21947 18 9.74757 17.481 10.0435 17.044C10.3644 17.5334 10.9039 18 11.7143 18C12.8479 18 13.6514 17.4673 14.0042 16.4908C17.2024 16.3702 17.3663 13.197 17.3663 12.5506C17.3663 12.1864 17.3139 10.9799 16.6675 10.0034C17.3117 9.02234 17.364 7.81363 17.364 7.44942Z" fill="#86888C"/>
</svg>
