<svg width="20" height="20" viewBox="0 0 20 20" fill="none" xmlns="http://www.w3.org/2000/svg">
<path d="M13.6431 18H8.44044C7.8263 18 7.31957 17.5003 7.31023 16.8885L7.29855 16.1552C6.53496 16.0805 5.9325 15.7769 5.50283 15.2562C4.75092 14.3408 4.7696 13.0075 4.82798 12.3933L3.41755 12.0571L3.3942 12.0477C3.20972 11.9753 3.06961 11.8189 3.02058 11.6274C2.9692 11.4359 3.01591 11.2281 3.13967 11.074C3.9593 10.0675 4.45669 8.94666 4.68086 8.36754C4.76026 8.16439 4.80462 7.94955 4.8163 7.73472C4.90503 5.90864 5.54253 4.48187 6.70776 3.49644C7.60446 2.73752 8.83508 2.24247 10.2642 2.06967C11.3057 1.94357 12.0949 2.0253 12.1673 2.03464C12.2654 2.04398 13.5427 2.18176 14.8224 2.93834C16.0437 3.66224 17.4938 5.09835 17.4541 7.84447C17.3934 12.1598 15.5603 13.4348 14.8784 13.7594L14.771 16.9118C14.7523 17.5213 14.2549 18 13.6431 18ZM3.76315 11.4172L5.61959 11.8609L5.55887 12.1878C5.55654 12.2042 5.26465 13.8691 6.04458 14.8125C6.39719 15.2422 6.93661 15.464 7.64649 15.4734L7.98742 15.478L8.01077 16.8791C8.01544 17.1126 8.20692 17.3018 8.44044 17.3018H13.6431C13.8766 17.3018 14.0658 17.1197 14.0728 16.8861L14.1966 13.2433L14.4417 13.1803C14.4768 13.1686 15.0162 12.9865 15.5579 12.2812C16.0857 11.5947 16.7208 10.2683 16.7535 7.83046C16.7816 5.90397 16.018 4.46319 14.4861 3.55015C13.3162 2.84961 12.1113 2.72818 12.0996 2.72584H12.0926C12.0856 2.72584 11.3243 2.63944 10.3342 2.76321C9.43754 2.87529 8.15789 3.18587 7.16078 4.03119C6.152 4.88818 5.59857 6.14449 5.51918 7.76741C5.50517 8.05931 5.44445 8.34419 5.33937 8.61974C5.10586 9.2152 4.59913 10.3618 3.76315 11.4172Z" fill="#86888C"/>
<path d="M8.78837 7.74873L8.28165 7.26536L9.94193 5.52568L9.87888 2.69782L10.5794 2.68148L10.6495 5.79889L8.78837 7.74873Z" fill="#86888C"/>
<path d="M12.1206 5.29683H10.0937V5.99737H12.1206V5.29683Z" fill="#86888C"/>
<path d="M16.4453 10.5439H12.7394V11.2444H16.4453V10.5439Z" fill="#86888C"/>
<path d="M12.7347 6.60747L11.6909 9.6588L12.3537 9.88556L13.3976 6.83423L12.7347 6.60747Z" fill="#86888C"/>
<path d="M7.82162 9.42302C7.15144 9.42302 6.60735 8.87894 6.60735 8.20875C6.60735 7.53856 7.15144 6.99448 7.82162 6.99448C8.49181 6.99448 9.03589 7.53856 9.03589 8.20875C9.03589 8.87894 8.48947 9.42302 7.82162 9.42302ZM7.82162 7.69502C7.53907 7.69502 7.30789 7.9262 7.30789 8.20875C7.30789 8.4913 7.53907 8.72248 7.82162 8.72248C8.10417 8.72248 8.33535 8.4913 8.33535 8.20875C8.33535 7.9262 8.10417 7.69502 7.82162 7.69502Z" fill="#86888C"/>
<path d="M13.1831 7.07154C12.5129 7.07154 11.9688 6.52745 11.9688 5.85727C11.9688 5.18708 12.5129 4.64299 13.1831 4.64299C13.8533 4.64299 14.3974 5.18708 14.3974 5.85727C14.3974 6.52745 13.851 7.07154 13.1831 7.07154ZM13.1831 5.34353C12.9006 5.34353 12.6694 5.57471 12.6694 5.85727C12.6694 6.13982 12.9006 6.371 13.1831 6.371C13.4657 6.371 13.6968 6.13982 13.6968 5.85727C13.6968 5.57471 13.4657 5.34353 13.1831 5.34353Z" fill="#86888C"/>
<path d="M11.6933 12.0687C11.0231 12.0687 10.479 11.5246 10.479 10.8545C10.479 10.1843 11.0231 9.64019 11.6933 9.64019C12.3635 9.64019 12.9076 10.1843 12.9076 10.8545C12.9076 11.5246 12.3635 12.0687 11.6933 12.0687ZM11.6933 10.3407C11.4107 10.3407 11.1796 10.5719 11.1796 10.8545C11.1796 11.137 11.4107 11.3682 11.6933 11.3682C11.9758 11.3682 12.207 11.137 12.207 10.8545C12.207 10.5719 11.9758 10.3407 11.6933 10.3407Z" fill="#86888C"/>
</svg>
