<svg width="40" height="40" viewBox="0 0 40 40" fill="none" xmlns="http://www.w3.org/2000/svg">
<path fill-rule="evenodd" clip-rule="evenodd" d="M36.4775 28.126V22.7879C36.4621 22.1219 35.8986 21.374 35.5451 20.918C35.0123 20.2162 30.8934 14.791 30.207 13.8176C29.8381 13.3156 29.1516 12.9672 28.4959 12.9006V25.9744C30.8115 26.2818 32.2613 27.7418 32.5635 30.0625L34.5461 30.042C35.002 30.042 35.4887 29.8268 35.873 29.4477C36.2623 29.0686 36.4775 28.582 36.4775 28.126ZM27.5891 34.4785C29.8893 34.4785 31.1086 33.2592 31.1086 30.959C31.1086 28.6434 29.8893 27.4242 27.5891 27.4242C25.2684 27.4242 24.0492 28.6434 24.0492 30.959C24.0492 33.2592 25.2684 34.4785 27.5891 34.4785ZM22.5994 30.0625C22.9068 27.6393 24.4949 26.1639 26.9795 25.9436V8.3002C26.9795 7.875 26.5645 7.52152 26.0625 7.52152H4.43852C3.93648 7.52152 3.52664 7.875 3.52664 8.28484V29.2684C3.52664 29.6936 3.93648 30.0471 4.43852 30.0471H4.54611C4.8791 27.4447 6.67725 25.9027 9.51537 25.9027C12.3689 25.9027 14.167 27.4395 14.5051 30.0471C14.5051 30.042 22.5994 30.0625 22.5994 30.0625ZM9.51537 34.4785C11.8361 34.4785 13.0553 33.2592 13.0553 30.959C13.0553 28.6434 11.8361 27.4242 9.51537 27.4242C7.21516 27.4242 5.9959 28.6434 5.9959 30.959C5.9959 33.2592 7.21516 34.4785 9.51537 34.4785ZM36.7541 19.9857C37.2254 20.5953 37.9887 21.6045 38.0041 22.793V28.126C38.0041 28.9969 37.625 29.8627 36.9539 30.5338C36.293 31.1895 35.4119 31.5686 34.5564 31.5686L32.5891 31.584C32.3484 34.3555 30.5348 36 27.5891 36C24.6281 36 22.8145 34.3555 22.5686 31.584L14.5307 31.5686C14.2848 34.3555 12.4713 36 9.51025 36C6.56967 36 4.75102 34.3555 4.51025 31.5635H4.4334C3.09631 31.5686 2 30.5338 2 29.2684V8.28484C2 7.01947 3.09631 6 4.43852 6H26.0625C27.4047 6 28.501 7.03484 28.501 8.3002V11.3791C29.6434 11.4406 30.791 12.0195 31.4416 12.9314C32.1332 13.8945 36.2213 19.3043 36.7541 19.9857ZM21.334 18.6332V16.0102H17.3227C16.9078 16.0154 16.5645 15.6824 16.5594 15.2623V11.251H13.9518L13.9365 15.2469C13.9365 15.667 13.5932 16.0102 13.1732 16.0102L9.16701 16.0256V18.6332H13.1732C13.6035 18.6332 13.9365 18.9816 13.9365 19.3965V23.4027H16.5594V19.3965C16.5594 19.1967 16.6363 18.9969 16.79 18.8586C16.9232 18.71 17.123 18.6332 17.3227 18.6332H21.334ZM21.3648 14.4887C22.1588 14.4887 22.8555 15.1137 22.8555 15.8309V18.8176C22.8555 19.5348 22.1537 20.1598 21.3648 20.1598H18.0861V23.4334C18.0861 24.2428 17.4764 24.9293 16.7439 24.9293H13.7572C13.0246 24.9293 12.415 24.2428 12.415 23.4334V20.1598L9.13627 20.1752C8.32684 20.1752 7.64037 19.5502 7.64037 18.833V15.8309C7.64037 15.1189 8.32684 14.5041 9.13627 14.5041L12.415 14.4887V11.21C12.415 10.416 13.04 9.72951 13.7572 9.72951H16.7439C17.4611 9.72951 18.0861 10.416 18.0861 11.21V14.4887H21.3648Z" fill="#86888C"/>
</svg>
