<svg width="24" height="24" viewBox="0 0 24 24" fill="none" xmlns="http://www.w3.org/2000/svg">
<path fill-rule="evenodd" clip-rule="evenodd" d="M21.5372 16.5381V13.5131C21.5285 13.1358 21.2092 12.7119 21.0089 12.4536C20.707 12.0558 18.3729 8.98156 17.9839 8.42999C17.7749 8.14549 17.3859 7.94809 17.0143 7.91035V15.3188C18.3265 15.493 19.1481 16.3204 19.3193 17.6354L20.4428 17.6238C20.7012 17.6238 20.9769 17.5019 21.1947 17.2871C21.4153 17.0722 21.5372 16.7964 21.5372 16.5381ZM16.5005 20.1378C17.804 20.1378 18.4949 19.4469 18.4949 18.1434C18.4949 16.8313 17.804 16.1404 16.5005 16.1404C15.1854 16.1404 14.4945 16.8313 14.4945 18.1434C14.4945 19.4469 15.1854 20.1378 16.5005 20.1378ZM13.673 17.6354C13.8472 16.2623 14.7471 15.4262 16.1551 15.3014V5.30345C16.1551 5.0625 15.9199 4.86219 15.6354 4.86219H3.38183C3.09734 4.86219 2.8651 5.0625 2.8651 5.29474V17.1854C2.8651 17.4264 3.09734 17.6267 3.38183 17.6267H3.44279C3.63149 16.152 4.65044 15.2782 6.25871 15.2782C7.87568 15.2782 8.89464 16.1491 9.08624 17.6267C9.08624 17.6238 13.673 17.6354 13.673 17.6354ZM6.25871 20.1378C7.57377 20.1378 8.26469 19.4469 8.26469 18.1434C8.26469 16.8313 7.57377 16.1404 6.25871 16.1404C4.95526 16.1404 4.26434 16.8313 4.26434 18.1434C4.26434 19.4469 4.95526 20.1378 6.25871 20.1378ZM21.694 11.9252C21.9611 12.2707 22.3936 12.8426 22.4023 13.5161V16.5381C22.4023 17.0316 22.1875 17.5222 21.8072 17.9025C21.4327 18.2741 20.9334 18.4889 20.4486 18.4889L19.3338 18.4976C19.1974 20.0681 18.1697 21 16.5005 21C14.8226 21 13.7949 20.0681 13.6556 18.4976L9.10075 18.4889C8.96141 20.0681 7.93374 21 6.25581 21C4.58948 21 3.55891 20.0681 3.42247 18.486H3.37893C2.62124 18.4889 2 17.9025 2 17.1854V5.29474C2 4.5777 2.62124 4 3.38183 4H15.6354C16.396 4 17.0172 4.58641 17.0172 5.30345V7.04816C17.6646 7.08299 18.3149 7.41103 18.6836 7.92777C19.0755 8.47353 21.3921 11.5391 21.694 11.9252ZM12.9559 11.1588V9.67247H10.6829C10.4477 9.67537 10.2532 9.48668 10.2503 9.24863V6.97558H8.77271L8.764 9.23992C8.764 9.47797 8.5695 9.67247 8.33145 9.67247L6.0613 9.68118V11.1588H8.33145C8.57531 11.1588 8.764 11.3562 8.764 11.5914V13.8615H10.2503V11.5914C10.2503 11.4781 10.2939 11.3649 10.381 11.2865C10.4565 11.2024 10.5697 11.1588 10.6829 11.1588H12.9559ZM12.9734 8.81028C13.4233 8.81028 13.8181 9.16445 13.8181 9.57087V11.2633C13.8181 11.6697 13.4204 12.0239 12.9734 12.0239H11.1154V13.8789C11.1154 14.3376 10.77 14.7266 10.3548 14.7266H8.6624C8.24727 14.7266 7.90181 14.3376 7.90181 13.8789V12.0239L6.04389 12.0326C5.58521 12.0326 5.19621 11.6784 5.19621 11.272V9.57087C5.19621 9.16735 5.58521 8.81899 6.04389 8.81899L7.90181 8.81028V6.95236C7.90181 6.50239 8.25598 6.11339 8.6624 6.11339H10.3548C10.7613 6.11339 11.1154 6.50239 11.1154 6.95236V8.81028H12.9734Z" fill="#86888C"/>
</svg>
