<svg width="28" height="28" viewBox="0 0 28 28" fill="none" xmlns="http://www.w3.org/2000/svg">
<path fill-rule="evenodd" clip-rule="evenodd" d="M21.9397 25.9311V23.5507H6.08423V25.9311H21.9397ZM12.7911 19.1349H15.1952L13.9863 15.7539L12.7911 19.1349ZM15.5777 20.2073H12.4087L11.6061 22.4749H16.387L15.5777 20.2073ZM12.6682 10.7405L8.49858 22.4749H10.5168L13.5014 14.0259C13.5048 14.019 13.5083 14.0156 13.5117 14.0088C13.5253 13.9746 13.5458 13.9473 13.5663 13.9166C13.5834 13.8859 13.6005 13.8585 13.6209 13.8312C13.6414 13.8141 13.6653 13.7971 13.6892 13.78C13.72 13.7561 13.7507 13.7322 13.7883 13.7151C13.7951 13.7117 13.7985 13.7083 13.8054 13.7049C13.8293 13.6946 13.8532 13.698 13.8771 13.6946C13.9146 13.6878 13.9488 13.6775 13.9863 13.6775C14.0205 13.6775 14.0546 13.6878 14.0888 13.6912C14.1161 13.698 14.14 13.6946 14.1639 13.7049C14.1707 13.7083 14.1742 13.7151 14.181 13.7185C14.2151 13.7322 14.239 13.7561 14.2698 13.7766C14.2937 13.7936 14.321 13.8107 14.3449 13.8312C14.3654 13.8551 14.3791 13.8824 14.3995 13.9098C14.42 13.9405 14.4439 13.9678 14.4576 14.0054C14.461 14.0122 14.4644 14.0156 14.4678 14.0225L17.49 22.4715H19.4741L15.3011 10.7337C14.9254 10.8942 14.4917 10.9864 13.9829 10.9864C13.4741 10.9898 13.0404 10.901 12.6682 10.7405ZM12.675 6.71406C12.395 6.9941 12.255 7.46881 12.255 8.11085C12.255 8.55482 12.3267 8.91341 12.4633 9.18662C12.5213 9.30957 12.5896 9.41885 12.675 9.50423C12.7604 9.59302 12.8697 9.66133 12.9926 9.71938C13.2487 9.84916 13.5766 9.91405 13.9795 9.91405C14.3893 9.91405 14.7171 9.84574 14.9732 9.71597C15.0928 9.65791 15.202 9.58961 15.2908 9.50081C15.3762 9.41544 15.4445 9.30615 15.506 9.18321C15.6392 8.90658 15.7143 8.5514 15.7143 8.10744C15.7143 7.46539 15.5709 6.9941 15.2908 6.71064C15.0176 6.43402 14.5771 6.294 13.9795 6.294C13.3853 6.30083 12.9448 6.44085 12.675 6.71406ZM22.4519 22.4749C22.7353 22.4749 22.9641 22.7174 22.9641 23.0111V26.4638C22.9641 26.7609 22.7353 27 22.4519 27H5.56858C5.28515 27 5.05635 26.7609 5.05635 26.4638V23.0111C5.05635 22.7174 5.28515 22.4749 5.56858 22.4749H7.40239L11.8076 10.0814C11.4286 9.59985 11.2271 8.94756 11.2271 8.11427C11.2271 7.16827 11.473 6.43743 11.9613 5.94565C12.4326 5.47095 13.1087 5.22847 13.9795 5.22847C14.8503 5.22847 15.5299 5.47095 16.0011 5.94565C16.4929 6.44085 16.7388 7.17169 16.7388 8.11427C16.7388 8.94756 16.5373 9.59644 16.1582 10.0814L20.5635 22.4784H22.4519V22.4749ZM3.02447 8.11085C3.02447 9.95503 3.49232 11.3587 4.41434 12.2944C4.61924 12.4993 4.62607 12.8374 4.428 13.0526C4.32897 13.1618 4.19237 13.2165 4.05919 13.2165C3.92943 13.2165 3.80307 13.1653 3.70404 13.0662C2.57371 11.9256 2 10.259 2 8.11085C2 5.96273 2.57371 4.29614 3.70404 3.15207C3.90552 2.94374 4.23335 2.95057 4.428 3.16573C4.62607 3.37747 4.61924 3.71557 4.41434 3.92389C3.49232 4.85964 3.02447 6.26668 3.02447 8.11085ZM7.54582 11.4884C7.41605 11.4884 7.2897 11.4372 7.19067 11.3382C6.44963 10.5902 6.07399 9.50423 6.07399 8.11085C6.07399 6.72089 6.44963 5.63146 7.19067 4.88354C7.39556 4.67522 7.71998 4.68205 7.91463 4.89379C8.11269 5.10894 8.10586 5.44704 7.90438 5.65195C7.36824 6.19154 7.09846 7.02142 7.09846 8.11085C7.09846 9.20028 7.36824 10.0267 7.90097 10.5663C8.10586 10.7712 8.11269 11.1093 7.91463 11.3245C7.81559 11.4304 7.68241 11.4884 7.54582 11.4884ZM24.296 3.15207C25.4263 4.29614 26 5.96614 26 8.11085C26 10.2556 25.4263 11.9256 24.296 13.0662C24.1969 13.1653 24.0672 13.2165 23.9408 13.2165C23.8076 13.2165 23.6744 13.1618 23.572 13.0526C23.3773 12.8374 23.3808 12.4993 23.5857 12.2944C24.5077 11.3621 24.9755 9.95844 24.9755 8.11085C24.9755 6.26668 24.5077 4.85964 23.5857 3.92389C23.3808 3.71557 23.3773 3.37747 23.572 3.16573C23.7701 2.95399 24.0945 2.94716 24.296 3.15207ZM20.041 11.3211C19.8463 11.1093 19.8497 10.7678 20.0546 10.5629C20.5874 10.0267 20.8606 9.20028 20.8606 8.11085C20.8606 7.01801 20.5908 6.19496 20.0546 5.65195C19.8497 5.44363 19.8463 5.10553 20.041 4.89379C20.2356 4.67864 20.5635 4.67522 20.7649 4.88013C21.506 5.63146 21.8816 6.71747 21.8816 8.11085C21.8816 9.50423 21.506 10.5868 20.7615 11.3382C20.6625 11.4372 20.5327 11.485 20.4064 11.485C20.2766 11.485 20.1434 11.4338 20.041 11.3211Z" fill="#86888C"/>
</svg>
