<svg width="28" height="28" viewBox="0 0 28 28" fill="none" xmlns="http://www.w3.org/2000/svg">
<path fill-rule="evenodd" clip-rule="evenodd" d="M24.4701 22.0268C24.7604 22.0268 24.9994 21.798 24.9994 21.5145V15.4872L24.4291 16.0131C24.2789 16.1599 24.0467 16.1975 23.8554 16.1053C23.5379 15.955 23.21 15.856 22.8241 15.7945C22.5783 15.757 22.4041 15.5555 22.4041 15.3164V14.3193L21.5231 14.2749L21.4787 15.3164C21.4787 15.5555 21.3011 15.757 21.0586 15.7945C20.6727 15.856 20.3244 15.9585 20.0273 16.1019C19.8327 16.1941 19.6005 16.1565 19.4502 16.0097L18.6887 15.2721L18.0023 15.8628L18.7638 16.6688C18.9243 16.8224 18.955 17.0615 18.8458 17.2493C18.7092 17.4781 18.5965 17.9084 18.5418 18.226C18.5043 18.4616 18.2925 18.6323 18.0467 18.6323H17.0154L16.971 19.4861L18.0467 19.5305C18.2925 19.5305 18.5009 19.7012 18.5418 19.9368C18.5965 20.2578 18.7092 20.6813 18.8458 20.9135C18.955 21.1047 18.9243 21.3438 18.7638 21.4974L18.2174 22.0233H24.4701V22.0268ZM3.00057 21.5179C3.00057 21.8014 3.2362 22.0302 3.52988 22.0302H17.0359C17.0803 21.8526 17.1588 21.6853 17.2954 21.5555L17.811 21.0569C17.7359 20.8691 17.6813 20.6779 17.6403 20.5105H17.0188C16.4417 20.5105 15.9738 20.0563 15.9738 19.4963V18.687C15.9738 18.1303 16.4417 17.6727 17.0188 17.6727H17.6403C17.6813 17.5054 17.7359 17.3108 17.811 17.1229L17.2954 16.6244C17.0973 16.4297 16.988 16.1736 16.988 15.9038C16.988 15.6272 17.0973 15.3745 17.2988 15.1799L17.9067 14.5891C18.3028 14.2032 19.0028 14.2032 19.399 14.5891L19.918 15.0911C20.0956 15.0228 20.2834 14.9681 20.4781 14.9203V14.3193C20.4781 13.7592 20.9493 13.3051 21.5231 13.3051H22.3597C22.9368 13.3051 23.4047 13.7592 23.4047 14.3193V14.9203C23.5993 14.9681 23.7837 15.0228 23.9647 15.0911L24.4838 14.5857C24.6272 14.4456 24.8082 14.3534 24.9994 14.3125V9.89698H3.00057V21.5179ZM3.52988 5.96984C3.23961 5.96984 3.00057 6.19863 3.00057 6.48207V8.93056H24.9994V6.48207C24.9994 6.19863 24.7638 5.96984 24.4701 5.96984H3.52988ZM24.4701 5C25.3136 5 26 5.66591 26 6.48207V21.5179C26 22.3341 25.3136 23 24.4701 23H3.52988C2.6864 23 2 22.3341 2 21.5179V6.48207C2 5.66591 2.6864 5 3.52988 5H24.4701ZM7.10871 8.19294C6.72282 8.19294 6.41207 7.88902 6.41207 7.5202C6.41207 7.14798 6.72282 6.84747 7.10871 6.84747C7.49459 6.84747 7.80535 7.14798 7.80535 7.5202C7.80535 7.89243 7.49459 8.19294 7.10871 8.19294ZM9.19863 8.19294C8.81275 8.19294 8.50199 7.88902 8.50199 7.5202C8.50199 7.14798 8.81275 6.84747 9.19863 6.84747C9.58452 6.84747 9.89186 7.14798 9.89186 7.5202C9.89186 7.89243 9.58452 8.19294 9.19863 8.19294ZM5.0222 8.19294C4.63631 8.19294 4.32556 7.88902 4.32556 7.5202C4.32556 7.14798 4.63631 6.84747 5.0222 6.84747C5.40808 6.84747 5.71884 7.14798 5.71884 7.5202C5.71884 7.89243 5.40808 8.19294 5.0222 8.19294ZM21.9363 20.6779C23.0393 20.6779 23.5754 20.1588 23.5754 19.0899C23.5754 18.0211 23.0393 17.502 21.9363 17.502C20.8332 17.502 20.2971 18.0211 20.2971 19.0899C20.2971 20.1588 20.8332 20.6779 21.9363 20.6779ZM21.9363 16.5287C23.5891 16.5287 24.576 17.4849 24.576 19.0865C24.576 20.6881 23.5891 21.6443 21.9363 21.6443C20.2834 21.6443 19.2965 20.6881 19.2965 19.0865C19.2965 17.4849 20.2834 16.5287 21.9363 16.5287Z" fill="#86888C"/>
<path d="M6.0774 12.9943H7.18383L8.77176 17.3961H7.69607L7.33067 16.2897H5.90324L5.56175 17.3961H4.60557L6.0774 12.9943ZM7.08821 15.5623L6.60671 14.0939H6.59305L6.13545 15.5623H7.08821ZM9.284 12.9943H10.7968C11.4866 12.9943 11.9237 13.0899 12.2072 13.3563C12.4462 13.5748 12.5623 13.9163 12.5623 14.3876C12.5623 14.8588 12.453 15.2106 12.2345 15.4565C11.9784 15.7467 11.5788 15.8799 10.9983 15.8799H10.2914V17.3995H9.28742V12.9943H9.284ZM10.7831 15.1252C11.1041 15.1252 11.2407 15.0808 11.3671 14.9579C11.4832 14.8418 11.5413 14.654 11.5413 14.3978C11.5413 14.1588 11.49 13.9846 11.3739 13.8754C11.251 13.7661 11.0666 13.7217 10.7558 13.7217H10.2846V15.1252H10.7831ZM13.2829 12.9943H14.2868V17.3961H13.2829V12.9943Z" fill="#86888C"/>
</svg>
