<svg width="20" height="20" viewBox="0 0 20 20" fill="none" xmlns="http://www.w3.org/2000/svg">
<path fill-rule="evenodd" clip-rule="evenodd" d="M16.9801 15.3512C17.1736 15.3512 17.333 15.1986 17.333 15.0097V10.9915L16.9528 11.3421C16.8526 11.44 16.6978 11.465 16.5703 11.4035C16.3586 11.3034 16.14 11.2373 15.8828 11.1964C15.7188 11.1713 15.6027 11.037 15.6027 10.8776V10.2129L15.0154 10.1833L14.9858 10.8776C14.9858 11.037 14.8674 11.1713 14.7057 11.1964C14.4485 11.2373 14.2163 11.3056 14.0182 11.4013C13.8884 11.4627 13.7336 11.4377 13.6335 11.3398L13.1258 10.848L12.6682 11.2419L13.1759 11.7792C13.2829 11.8816 13.3034 12.041 13.2305 12.1662C13.1394 12.3187 13.0643 12.6056 13.0279 12.8173C13.0028 12.9744 12.8617 13.0882 12.6978 13.0882H12.0102L11.9806 13.6574L12.6978 13.687C12.8617 13.687 13.0006 13.8008 13.0279 13.9579C13.0643 14.1719 13.1394 14.4542 13.2305 14.609C13.3034 14.7365 13.2829 14.8958 13.1759 14.9983L12.8116 15.3489H16.9801V15.3512ZM2.66705 15.012C2.66705 15.2009 2.82413 15.3534 3.01992 15.3534H12.0239C12.0535 15.2351 12.1059 15.1235 12.1969 15.037L12.5407 14.7046C12.4906 14.5794 12.4542 14.4519 12.4269 14.3404H12.0125C11.6278 14.3404 11.3159 14.0376 11.3159 13.6642V13.1246C11.3159 12.7536 11.6278 12.4485 12.0125 12.4485H12.4269C12.4542 12.3369 12.4906 12.2072 12.5407 12.082L12.1969 11.7496C12.0649 11.6198 11.992 11.4491 11.992 11.2692C11.992 11.0848 12.0649 10.9163 12.1992 10.7866L12.6044 10.3927C12.8685 10.1355 13.3352 10.1355 13.5993 10.3927L13.9454 10.7274C14.0637 10.6818 14.189 10.6454 14.3187 10.6135V10.2129C14.3187 9.8395 14.6329 9.53671 15.0154 9.53671H15.5731C15.9579 9.53671 16.2698 9.8395 16.2698 10.2129V10.6135C16.3995 10.6454 16.5225 10.6818 16.6431 10.7274L16.9892 10.3904C17.0848 10.2971 17.2055 10.2356 17.333 10.2083V7.26466H2.66705V15.012ZM3.01992 4.64656C2.82641 4.64656 2.66705 4.79909 2.66705 4.98805V6.62038H17.333V4.98805C17.333 4.79909 17.1759 4.64656 16.9801 4.64656H3.01992ZM16.9801 4C17.5424 4 18 4.44394 18 4.98805V15.012C18 15.5561 17.5424 16 16.9801 16H3.01992C2.4576 16 2 15.5561 2 15.012V4.98805C2 4.44394 2.4576 4 3.01992 4H16.9801ZM5.40581 6.12863C5.14855 6.12863 4.94138 5.92601 4.94138 5.68014C4.94138 5.43199 5.14855 5.23164 5.40581 5.23164C5.66306 5.23164 5.87023 5.43199 5.87023 5.68014C5.87023 5.92829 5.66306 6.12863 5.40581 6.12863ZM6.79909 6.12863C6.54183 6.12863 6.33466 5.92601 6.33466 5.68014C6.33466 5.43199 6.54183 5.23164 6.79909 5.23164C7.05635 5.23164 7.26124 5.43199 7.26124 5.68014C7.26124 5.92829 7.05635 6.12863 6.79909 6.12863ZM4.0148 6.12863C3.75754 6.12863 3.55037 5.92601 3.55037 5.68014C3.55037 5.43199 3.75754 5.23164 4.0148 5.23164C4.27205 5.23164 4.47923 5.43199 4.47923 5.68014C4.47923 5.92829 4.27205 6.12863 4.0148 6.12863ZM15.2908 14.4519C16.0262 14.4519 16.3836 14.1059 16.3836 13.3933C16.3836 12.6807 16.0262 12.3347 15.2908 12.3347C14.5555 12.3347 14.1981 12.6807 14.1981 13.3933C14.1981 14.1059 14.5555 14.4519 15.2908 14.4519ZM15.2908 11.6858C16.3927 11.6858 17.0507 12.3233 17.0507 13.391C17.0507 14.4587 16.3927 15.0962 15.2908 15.0962C14.189 15.0962 13.531 14.4587 13.531 13.391C13.531 12.3233 14.189 11.6858 15.2908 11.6858Z" fill="#86888C"/>
<path d="M4.71827 9.32954H5.45589L6.51451 12.2641H5.79738L5.55378 11.5265H4.60216L4.3745 12.2641H3.73705L4.71827 9.32954ZM5.39214 11.0415L5.07114 10.0626H5.06203L4.75697 11.0415H5.39214ZM6.856 9.32954H7.86454C8.32441 9.32954 8.61582 9.39328 8.80478 9.57086C8.96414 9.71656 9.04154 9.94422 9.04154 10.2584C9.04154 10.5726 8.96869 10.8071 8.82299 10.971C8.65224 11.1645 8.38588 11.2533 7.99886 11.2533H7.5276V12.2664H6.85828V9.32954H6.856ZM7.85543 10.7501C8.06943 10.7501 8.1605 10.7205 8.24473 10.6386C8.32214 10.5612 8.36084 10.436 8.36084 10.2652C8.36084 10.1059 8.32669 9.98976 8.24928 9.9169C8.16733 9.84405 8.04439 9.81446 7.83722 9.81446H7.52305V10.7501H7.85543ZM9.52191 9.32954H10.1912V12.2641H9.52191V9.32954Z" fill="#86888C"/>
</svg>
