<svg width="20" height="20" viewBox="0 0 20 20" fill="none" xmlns="http://www.w3.org/2000/svg">
<path d="M7.89958 2C8.27398 2 8.56138 2.28831 8.73276 2.45496L8.7354 2.4576L13.6001 7.40392C13.6343 7.43831 13.6792 7.45947 13.7266 7.45947C13.7503 7.45947 13.7952 7.45683 13.8294 7.4198L16.4397 4.80115L16.445 4.79586C16.6929 4.5578 17.1332 4.48903 17.4707 4.63451C17.7818 4.76941 17.9611 5.05508 17.9585 5.41746V17.3177C17.9743 17.5188 17.9136 17.6986 17.7871 17.8256C17.6605 17.9526 17.4786 18.0134 17.2808 17.9975L5.35783 17.9922H5.34728C5.03879 17.9922 4.78831 17.8282 4.66175 17.5452C4.50618 17.1934 4.57737 16.7226 4.82786 16.4501L4.83577 16.4422L7.24832 14.0219C7.2826 13.9876 7.28787 13.9426 7.28787 13.9188C7.28523 13.8712 7.26678 13.8262 7.22986 13.7918L2.45485 8.98305C1.84315 8.36938 1.84842 7.7134 2.47067 7.08916L7.22195 2.31476L7.22986 2.30683C7.47507 2.082 7.69919 2 7.89958 2ZM8.35836 2.82791C7.97604 2.44702 7.84948 2.45496 7.59109 2.69037L2.83981 7.45947C2.63151 7.66843 2.52604 7.86153 2.52341 8.0361C2.52077 8.21332 2.61833 8.39848 2.82399 8.6048L7.60163 13.4162C7.73083 13.5458 7.80729 13.7204 7.81257 13.9003C7.81784 14.0881 7.74929 14.2627 7.62009 14.3949L5.21017 16.8125C5.10471 16.9316 5.07043 17.1723 5.14162 17.331C5.19435 17.45 5.28136 17.4659 5.34992 17.4659H5.35255L17.2888 17.4712C17.2967 17.4712 17.3072 17.4712 17.3151 17.4738C17.3599 17.4791 17.3942 17.4712 17.41 17.4553C17.4259 17.4394 17.4338 17.4024 17.4285 17.3601C17.4285 17.3521 17.4259 17.3415 17.4259 17.3336V5.42275C17.4259 5.26933 17.3731 5.17676 17.2571 5.1265C17.0989 5.05773 16.8933 5.10269 16.8062 5.18469L14.1986 7.80069C14.0694 7.9303 13.8927 7.99907 13.7055 7.99378C13.5236 7.98849 13.3522 7.91443 13.223 7.78217L8.35836 2.82791Z" fill="#86888C"/>
</svg>
