<svg width="24" height="24" viewBox="0 0 24 24" fill="none" xmlns="http://www.w3.org/2000/svg">
<path d="M22 9.03184C22 9.14027 21.9659 9.24586 21.8948 9.33717C21.8748 9.36285 21.8521 9.38568 21.8265 9.40851L17.2838 13.9029C17.2781 13.9086 17.2696 13.9143 17.2639 13.92C17.1046 14.0485 16.8941 14.0741 16.7064 13.9857C16.5272 13.9001 16.4191 13.7288 16.4191 13.5348L16.3992 11.2491L12.9573 11.2548C12.4197 11.2548 11.9817 10.8153 11.9817 10.276V7.77055C11.9817 7.23122 12.4197 6.79177 12.9573 6.79177L16.402 6.78891L16.4219 4.50033C16.4219 4.30914 16.5329 4.13793 16.7092 4.05232C16.8941 3.96386 17.1075 3.98954 17.2667 4.11795C17.2753 4.12366 17.281 4.12937 17.2867 4.13793L21.8265 8.65516C21.9403 8.75218 22 8.88916 22 9.03184ZM16.988 13.395L21.397 9.02898L16.988 4.64016L16.9709 6.8574V6.86311C16.9624 7.14276 16.732 7.36248 16.4532 7.35678L12.9602 7.36248C12.7355 7.36248 12.5534 7.54511 12.5534 7.77055V10.276C12.5534 10.5014 12.7355 10.6841 12.9602 10.6841L16.4532 10.6784C16.732 10.6727 16.9624 10.8924 16.9709 11.172V11.1777L16.988 13.395ZM12.0158 16.9391C12.0158 17.4785 11.5777 17.9179 11.0401 17.9179L7.59828 17.9208L7.57836 20.2094C7.57836 20.4005 7.46743 20.5718 7.29107 20.6574C7.10618 20.7458 6.89284 20.7201 6.73355 20.5917C6.72501 20.586 6.71932 20.5803 6.71364 20.5718L2.17381 16.0545C2.07994 15.9746 2.0202 15.8605 2.00314 15.7378C1.98891 15.6065 2.02305 15.4781 2.10554 15.3725C2.12545 15.3468 2.14821 15.324 2.17381 15.3012L6.71648 10.8068C6.72217 10.8011 6.7307 10.7954 6.73639 10.7896C6.89568 10.6612 7.10618 10.6356 7.29391 10.724C7.47312 10.8096 7.58121 10.9808 7.58121 11.1749L7.60112 13.4606L11.0401 13.4549C11.5777 13.4549 12.0158 13.8944 12.0158 14.4337V16.9391ZM7.54708 17.3501L11.0401 17.3472C11.2648 17.3472 11.4469 17.1646 11.4469 16.9391V14.4337C11.4469 14.2083 11.2648 14.0256 11.0401 14.0256L7.54992 14.0313C7.274 14.037 7.04075 13.8173 7.03222 13.5377V13.532L7.01515 11.3147L2.60617 15.6807L7.00946 20.0695L7.02653 17.8523V17.8466C7.03791 17.5669 7.26831 17.3472 7.54708 17.3501ZM7.01231 11.1749C7.01231 11.1749 7.01231 11.1777 7.01231 11.1749V11.1749Z" fill="#86888C"/>
</svg>
