<svg width="20" height="20" viewBox="0 0 20 20" fill="none" xmlns="http://www.w3.org/2000/svg">
<path fill-rule="evenodd" clip-rule="evenodd" d="M17.5831 9.62038H3.5233L9.99346 2.83675C10.1968 2.6774 10.2311 2.38147 10.0711 2.17888C10.0003 2.0901 9.89751 2.02864 9.78556 2.00815C9.60278 1.974 9.41773 2.04912 9.31035 2.19709L2.08396 9.77062C2.06111 9.78655 2.04512 9.80932 2.03598 9.83663C2.0337 9.86167 2.0337 9.88671 2.03598 9.91175C1.98801 10.0256 1.98801 10.1553 2.03598 10.2691C2.0337 10.2942 2.0337 10.3192 2.03598 10.3443C2.04741 10.3716 2.0634 10.3966 2.08396 10.4194L9.17784 17.8495C9.26694 17.9474 9.39488 18.0043 9.52968 17.9997C9.78327 18.0066 9.99575 17.8063 10.0026 17.5536C10.0072 17.4238 9.95462 17.3009 9.86095 17.2098L3.5233 10.5582H17.5831C17.8436 10.5582 18.056 10.3488 18.056 10.0893C18.056 9.83208 17.8436 9.62038 17.5831 9.62038C17.5831 9.62265 17.5831 9.62265 17.5831 9.62038Z" fill="#86888C"/>
</svg>
