<svg width="24" height="24" viewBox="0 0 24 24" fill="none" xmlns="http://www.w3.org/2000/svg">
<path d="M14.6776 22C14.5692 22 14.4636 21.9659 14.3723 21.8948C14.3466 21.8748 14.3238 21.8521 14.301 21.8265L9.80655 17.2838C9.80085 17.2781 9.79514 17.2696 9.78943 17.2639C9.66102 17.1046 9.63534 16.8941 9.7238 16.7064C9.80941 16.5272 9.98062 16.4191 10.1747 16.4191L12.4604 16.3992L12.4547 12.9573C12.4547 12.4197 12.8941 11.9817 13.4335 11.9817H15.9389C16.4783 11.9817 16.9177 12.4197 16.9177 12.9573L16.9206 16.402L19.2091 16.4219C19.4003 16.4219 19.5715 16.5329 19.6572 16.7092C19.7456 16.8941 19.7199 17.1075 19.5915 17.2667C19.5858 17.2753 19.5801 17.281 19.5715 17.2867L15.0543 21.8265C14.9573 21.9403 14.8203 22 14.6776 22ZM10.3145 16.988L14.6805 21.397L19.0693 16.988L16.8521 16.9709H16.8464C16.5667 16.9624 16.347 16.732 16.3527 16.4532L16.347 12.9602C16.347 12.7355 16.1644 12.5534 15.9389 12.5534H13.4335C13.208 12.5534 13.0254 12.7355 13.0254 12.9602L13.0311 16.4532C13.0368 16.732 12.8171 16.9624 12.5374 16.9709H12.5317L10.3145 16.988ZM6.77033 12.0158C6.231 12.0158 5.79155 11.5777 5.79155 11.0401L5.7887 7.59828L3.50012 7.57836C3.30893 7.57836 3.13771 7.46743 3.0521 7.29107C2.96364 7.10618 2.98932 6.89284 3.11774 6.73355C3.12344 6.72501 3.12915 6.71932 3.13771 6.71364L7.65495 2.17381C7.73485 2.07994 7.84899 2.0202 7.9717 2.00314C8.10296 1.98891 8.23137 2.02305 8.33696 2.10554C8.36264 2.12545 8.38547 2.14821 8.40829 2.17381L12.9027 6.71648C12.9084 6.72217 12.9141 6.7307 12.9198 6.73639C13.0482 6.89568 13.0739 7.10618 12.9855 7.29391C12.8998 7.47312 12.7286 7.58121 12.5346 7.58121L10.2489 7.60112L10.2546 11.0401C10.2546 11.5777 9.81512 12.0158 9.27579 12.0158H6.77033ZM6.35942 7.54708L6.36227 11.0401C6.36227 11.2648 6.5449 11.4469 6.77033 11.4469H9.27579C9.50122 11.4469 9.68385 11.2648 9.68385 11.0401L9.67814 7.54992C9.67244 7.274 9.89216 7.04075 10.1718 7.03222H10.1775L12.3948 7.01515L8.02877 2.60617L3.63994 7.00946L5.85718 7.02653H5.86289C6.14254 7.03791 6.36227 7.26831 6.35942 7.54708ZM12.5346 7.01231C12.5346 7.01231 12.5317 7.01231 12.5346 7.01231V7.01231Z" fill="#86888C"/>
</svg>
