<svg width="20" height="20" viewBox="0 0 20 20" fill="none" xmlns="http://www.w3.org/2000/svg">
<path fill-rule="evenodd" clip-rule="evenodd" d="M15.1907 4.13925L5.18857 14.1464L4.94867 4.69604C4.97957 4.4375 4.79269 4.20174 4.53428 4.17086C4.42052 4.15786 4.30351 4.18713 4.20924 4.25218C4.05484 4.35788 3.97682 4.54325 4.00606 4.72537L4.27188 15.2782C4.26701 15.3059 4.27188 15.3335 4.28488 15.3595C4.30113 15.379 4.31901 15.3969 4.33851 15.4132C4.38563 15.5286 4.47826 15.6213 4.59365 15.6684C4.6099 15.6879 4.62777 15.7058 4.64727 15.7221C4.6749 15.7335 4.70415 15.74 4.73503 15.7416L15.0859 15.9994C15.2191 16.0059 15.3508 15.9555 15.4434 15.8563C15.6287 15.6807 15.6368 15.3864 15.4613 15.201C15.372 15.1051 15.2468 15.0547 15.1152 15.0563L5.8581 14.8163L15.8602 4.80913C16.0455 4.62375 16.0471 4.32293 15.8619 4.13758C15.6782 3.95385 15.376 3.95387 15.1907 4.13925C15.1923 4.14088 15.1923 4.14088 15.1907 4.13925Z" fill="#86888C"/>
</svg>
