<svg width="40" height="40" viewBox="0 0 40 40" fill="none" xmlns="http://www.w3.org/2000/svg">
<path fill-rule="evenodd" clip-rule="evenodd" d="M20.8542 37.062L20.8542 5.42742L36.1173 19.9853C36.4758 20.4428 37.1417 20.5199 37.5975 20.1601C37.7973 20.0007 37.9356 19.7694 37.9817 19.5175C38.0585 19.1063 37.8895 18.6899 37.5566 18.4483L20.5161 2.18891C20.4803 2.13751 20.429 2.10152 20.3676 2.08096C20.3112 2.07582 20.2549 2.07582 20.1986 2.08096C19.9425 1.97301 19.6505 1.97301 19.3944 2.08096C19.3381 2.07582 19.2817 2.07582 19.2254 2.08096C19.1639 2.10667 19.1076 2.14265 19.0564 2.18891L2.33861 18.1501C2.11837 18.3506 1.99033 18.6385 2.00057 18.9418C1.98521 19.5124 2.43593 19.9904 3.00446 20.0058C3.2964 20.0161 3.57298 19.8979 3.77786 19.6871L18.7439 5.42742L18.7439 37.062C18.7439 37.648 19.2152 38.1261 19.799 38.1261C20.3778 38.1261 20.8542 37.648 20.8542 37.062C20.849 37.062 20.849 37.062 20.8542 37.062Z" fill="#86888C"/>
</svg>
