<svg width="40" height="40" viewBox="0 0 40 40" fill="none" xmlns="http://www.w3.org/2000/svg">
<path d="M38.0386 14.0183C38.0386 14.2135 37.9771 14.4036 37.8491 14.5679C37.8133 14.6142 37.7723 14.6553 37.7262 14.6964L29.5494 22.7863C29.5392 22.7966 29.5238 22.8068 29.5136 22.8171C29.2269 23.0482 28.848 23.0945 28.5101 22.9352C28.1875 22.7811 27.9929 22.473 27.9929 22.1237L27.9571 18.0094L21.7618 18.0196C20.7941 18.0196 20.0056 17.2286 20.0056 16.2578V11.748C20.0056 10.7772 20.7941 9.98621 21.7618 9.98621L27.9622 9.98108L27.998 5.86163C27.998 5.51749 28.1977 5.2093 28.5152 5.05521C28.848 4.89598 29.232 4.9422 29.5187 5.17335C29.5341 5.18362 29.5443 5.19389 29.5546 5.2093L37.7262 13.3403C37.9311 13.515 38.0386 13.7615 38.0386 14.0183ZM29.0169 21.872L36.9531 14.0132L29.0169 6.11332L28.9862 10.1044V10.1146C28.9709 10.618 28.5561 11.0135 28.0544 11.0032L21.7669 11.0135C21.3624 11.0135 21.0347 11.3422 21.0347 11.748V16.2578C21.0347 16.6636 21.3624 16.9924 21.7669 16.9924L28.0544 16.9821C28.5561 16.9718 28.9709 17.3673 28.9862 17.8707V17.881L29.0169 21.872ZM20.067 28.2515C20.067 29.2223 19.2785 30.0133 18.3108 30.0133L12.1155 30.0184L12.0796 34.1379C12.0796 34.482 11.8799 34.7902 11.5625 34.9443C11.2297 35.1035 10.8457 35.0573 10.559 34.8262C10.5436 34.8159 10.5334 34.8056 10.5231 34.7902L2.35143 26.6592C2.18246 26.5154 2.07494 26.3099 2.04422 26.089C2.01862 25.8528 2.08006 25.6216 2.22855 25.4316C2.26439 25.3853 2.30535 25.3442 2.35143 25.3032L10.5282 17.2132C10.5385 17.2029 10.5538 17.1927 10.5641 17.1824C10.8508 16.9513 11.2297 16.905 11.5676 17.0643C11.8902 17.2184 12.0848 17.5265 12.0848 17.8758L12.1206 21.9901L18.3108 21.9799C19.2785 21.9799 20.067 22.7709 20.067 23.7417V28.2515ZM12.0233 28.9911L18.3108 28.986C18.7153 28.986 19.043 28.6573 19.043 28.2515V23.7417C19.043 23.3359 18.7153 23.0072 18.3108 23.0072L12.0284 23.0174C11.5318 23.0277 11.1119 22.6322 11.0966 22.1288V22.1185L11.0659 18.1275L3.12968 25.9863L11.0556 33.8862L11.0863 29.8952V29.8849C11.1068 29.3815 11.5215 28.986 12.0233 28.9911ZM11.0607 17.8758C11.0607 17.8758 11.0607 17.881 11.0607 17.8758V17.8758Z" fill="#86888C"/>
</svg>
