<svg width="28" height="28" viewBox="0 0 28 28" fill="none" xmlns="http://www.w3.org/2000/svg">
<path d="M17.092 26C16.5304 26 16.0993 25.5675 15.8423 25.3176L15.8383 25.3136L8.54132 17.8941C8.48991 17.8425 8.42267 17.8108 8.35148 17.8108C8.31589 17.8108 8.24865 17.8148 8.19724 17.8703L4.28178 21.7983L4.27387 21.8062C3.9021 22.1633 3.24162 22.2665 2.73538 22.0482C2.26869 21.8459 1.99974 21.4174 2.0037 20.8738V3.0234C1.97997 2.72185 2.07094 2.45206 2.26078 2.26161C2.45062 2.07116 2.72351 1.97991 3.02014 2.00371L20.9047 2.01165H20.9205C21.3832 2.01165 21.7589 2.25764 21.9488 2.68218C22.1821 3.20987 22.0753 3.91611 21.6996 4.32478L21.6878 4.33668L18.0689 7.96708C18.0175 8.01865 18.0096 8.0861 18.0096 8.12181C18.0136 8.19323 18.0412 8.26068 18.0966 8.31226L25.2591 15.5254C26.1767 16.4459 26.1688 17.4299 25.2354 18.3663L18.1085 25.5279L18.0966 25.5398C17.7288 25.877 17.3926 26 17.092 26ZM16.4039 24.7581C16.9773 25.3295 17.1672 25.3176 17.5548 24.9644L24.6817 17.8108C24.9941 17.4973 25.1523 17.2077 25.1563 16.9458C25.1602 16.68 25.0139 16.4023 24.7054 16.0928L17.539 8.87567C17.3452 8.68125 17.2305 8.41939 17.2226 8.14959C17.2146 7.86789 17.3175 7.60602 17.5113 7.40764L21.1261 3.78121C21.2843 3.60267 21.3358 3.24162 21.229 3.00356C21.1499 2.82501 21.0194 2.80121 20.9165 2.80121H20.9126L3.00827 2.79327C2.99641 2.79327 2.98059 2.79327 2.96872 2.7893C2.90149 2.78137 2.85007 2.79327 2.82634 2.81708C2.80261 2.84088 2.79075 2.89643 2.79866 2.95991C2.79866 2.97182 2.80261 2.98769 2.80261 2.99959V20.8659C2.80261 21.096 2.88171 21.2349 3.05573 21.3103C3.29303 21.4134 3.60152 21.346 3.73204 21.223L7.64354 17.299C7.83733 17.1046 8.10232 17.0014 8.38312 17.0093C8.65602 17.0173 8.91309 17.1284 9.10689 17.3267L16.4039 24.7581Z" fill="#86888C"/>
</svg>
