<svg width="40" height="40" viewBox="0 0 40 40" fill="none" xmlns="http://www.w3.org/2000/svg">
<path fill-rule="evenodd" clip-rule="evenodd" d="M8.82098 33.6867L31.3257 11.1705L31.8655 32.4339C31.796 33.0156 32.2165 33.5461 32.7979 33.6156C33.0538 33.6448 33.3171 33.5789 33.5292 33.4326C33.8766 33.1948 34.0522 32.7777 33.9864 32.3679L33.3883 8.62402C33.3992 8.56182 33.3883 8.49963 33.359 8.44109C33.3225 8.39719 33.2822 8.35695 33.2384 8.32037C33.1323 8.06062 32.9239 7.8521 32.6643 7.74602C32.6277 7.70212 32.5875 7.66187 32.5436 7.62529C32.4815 7.59969 32.4157 7.58506 32.3462 7.5814L9.05679 7.00125C8.75695 6.98664 8.46075 7.10008 8.2523 7.32326C7.83542 7.71841 7.81709 8.38061 8.21198 8.79766C8.41309 9.0135 8.69464 9.12689 8.99083 9.12322L29.8193 9.66328L7.31453 32.1795C6.89764 32.5966 6.89394 33.2734 7.31077 33.6904C7.72395 34.1038 8.40409 34.1038 8.82098 33.6867C8.81733 33.683 8.81733 33.683 8.82098 33.6867Z" fill="#86888C"/>
</svg>
