<svg width="28" height="28" viewBox="0 0 28 28" fill="none" xmlns="http://www.w3.org/2000/svg">
<path fill-rule="evenodd" clip-rule="evenodd" d="M21.786 5.20888L6.78285 20.2197L6.42301 6.04405C6.46935 5.65624 6.18903 5.3026 5.80143 5.25629C5.63078 5.23679 5.45526 5.2807 5.31386 5.37827C5.08226 5.53682 4.96523 5.81488 5.00909 6.08805L5.40783 21.9173C5.40051 21.9588 5.40782 22.0002 5.42732 22.0393C5.4517 22.0685 5.47851 22.0954 5.50776 22.1198C5.57845 22.2929 5.71739 22.4319 5.89047 22.5027C5.91485 22.5319 5.94166 22.5588 5.97091 22.5831C6.01235 22.6002 6.05623 22.61 6.10255 22.6124L21.6288 22.9992C21.8287 23.0089 22.0262 22.9333 22.1651 22.7845C22.4431 22.5211 22.4553 22.0796 22.192 21.8016C22.0579 21.6577 21.8702 21.5821 21.6728 21.5845L7.78715 21.2245L22.7903 6.21369C23.0682 5.93562 23.0707 5.4844 22.7928 5.20637C22.5174 4.93078 22.0639 4.93081 21.786 5.20888C21.7884 5.21132 21.7884 5.21132 21.786 5.20888Z" fill="#86888C"/>
</svg>
