<svg width="20" height="20" viewBox="0 0 20 20" fill="none" xmlns="http://www.w3.org/2000/svg">
<path d="M12.3421 18C12.2554 18 12.1709 17.9727 12.0978 17.9158C12.0773 17.8999 12.059 17.8817 12.0408 17.8612L8.44524 14.227C8.44068 14.2225 8.43611 14.2157 8.43155 14.2111C8.32882 14.0837 8.30827 13.9153 8.37904 13.7651C8.44753 13.6217 8.5845 13.5353 8.73974 13.5353L10.5683 13.5193L10.5638 10.7659C10.5638 10.3358 10.9153 9.98533 11.3468 9.98533H13.3511C13.7826 9.98533 14.1342 10.3358 14.1342 10.7659L14.1364 13.5216L15.9673 13.5375C16.1203 13.5375 16.2572 13.6263 16.3257 13.7674C16.3965 13.9153 16.3759 14.086 16.2732 14.2134C16.2687 14.2202 16.2641 14.2248 16.2572 14.2293L12.6434 17.8612C12.5658 17.9522 12.4563 18 12.3421 18ZM8.8516 13.9904L12.3444 17.5176L15.8555 13.9904L14.0817 13.9767H14.0771C13.8534 13.9699 13.6776 13.7856 13.6822 13.5626L13.6776 10.7681C13.6776 10.5884 13.5315 10.4427 13.3511 10.4427H11.3468C11.1664 10.4427 11.0203 10.5884 11.0203 10.7681L11.0249 13.5626C11.0295 13.7856 10.8537 13.9699 10.63 13.9767H10.6254L8.8516 13.9904ZM6.01627 10.0126C5.5848 10.0126 5.23324 9.66219 5.23324 9.2321L5.23096 6.47862L3.40009 6.46269C3.24714 6.46269 3.11017 6.37394 3.04168 6.23286C2.97091 6.08494 2.99146 5.91427 3.09419 5.78684C3.09875 5.78001 3.10332 5.77546 3.11017 5.77091L6.72396 2.13905C6.78788 2.06395 6.87919 2.01616 6.97736 2.00251C7.08237 1.99113 7.1851 2.01844 7.26956 2.08443C7.29011 2.10036 7.30837 2.11857 7.32664 2.13905L10.9222 5.77318C10.9267 5.77774 10.9313 5.78456 10.9359 5.78911C11.0386 5.91655 11.0591 6.08494 10.9884 6.23513C10.9199 6.37849 10.7829 6.46497 10.6277 6.46497L8.79909 6.4809L8.80366 9.2321C8.80366 9.66219 8.45209 10.0126 8.02063 10.0126H6.01627ZM5.68753 6.43766L5.68982 9.2321C5.68982 9.41187 5.83592 9.55751 6.01627 9.55751H8.02063C8.20098 9.55751 8.34708 9.41187 8.34708 9.2321L8.34251 6.43994C8.33795 6.2192 8.51373 6.0326 8.73745 6.02578H8.74202L10.5158 6.01212L7.02301 2.48494L3.51195 6.00757L5.28575 6.02122H5.29031C5.51403 6.03033 5.68982 6.21465 5.68753 6.43766ZM10.6277 6.00985C10.6277 6.00985 10.6254 6.00985 10.6277 6.00985V6.00985Z" fill="#86888C"/>
</svg>
