<svg width="40" height="40" viewBox="0 0 40 40" fill="none" xmlns="http://www.w3.org/2000/svg">
<path d="M37.8096 20.0226C37.8096 20.4026 37.6404 20.7572 37.343 21.0003L20.1069 37.4691L20.0762 37.4995C19.6558 37.8389 19.0764 37.9048 18.5894 37.6718C18.128 37.4641 17.8306 37.0082 17.8306 36.5066L17.8306 28.9637C17.8306 28.8067 17.6768 28.675 17.4923 28.675L4.88562 28.675C3.18866 28.675 1.80957 27.3123 1.80957 25.6355L1.80957 14.4047C1.80957 12.7279 3.18866 11.3652 4.88562 11.3652L17.4872 11.3703C17.6768 11.3703 17.8255 11.2436 17.8255 11.0815L17.8255 3.49302C17.8306 2.99151 18.1229 2.53559 18.5894 2.3279C19.0764 2.09487 19.6558 2.16072 20.0762 2.5052L20.1069 2.5356L37.343 19.05C37.6353 19.2881 37.8044 19.6427 37.8096 20.0226ZM19.4148 36.7194L36.6458 20.2557L36.6766 20.2253C36.7432 20.1746 36.7791 20.0986 36.7842 20.0176C36.7842 19.9365 36.7432 19.8605 36.6766 19.8099L36.6458 19.7795L19.4148 3.2752C19.302 3.19414 19.1533 3.18401 19.0303 3.23973C18.9278 3.28026 18.856 3.38158 18.856 3.49302L18.856 11.0866C18.856 11.806 18.2408 12.3885 17.4923 12.3885L4.89587 12.3834C3.76286 12.3834 2.84517 13.2902 2.84517 14.4098L2.84517 25.6355C2.84517 26.755 3.76286 27.6618 4.89587 27.6618L17.4872 27.6618C18.2408 27.6618 18.8509 28.2444 18.8509 28.9637L18.8509 36.5016C18.8509 36.613 18.9226 36.7143 19.0252 36.7549C19.1533 36.8157 19.302 36.8005 19.4148 36.7194Z" fill="#86888C"/>
</svg>
