<svg width="40" height="40" viewBox="0 0 40 40" fill="none" xmlns="http://www.w3.org/2000/svg">
<path fill-rule="evenodd" clip-rule="evenodd" d="M7.31332 8.82098L29.8295 31.3257L8.56608 31.8655C7.98437 31.796 7.45391 32.2165 7.38443 32.7979C7.35518 33.0538 7.42105 33.3171 7.56741 33.5292C7.80524 33.8766 8.22232 34.0522 8.63207 33.9864L32.376 33.3883C32.4382 33.3992 32.5004 33.3883 32.5589 33.359C32.6028 33.3225 32.643 33.2822 32.6796 33.2384C32.9394 33.1323 33.1479 32.9239 33.254 32.6643C33.2979 32.6277 33.3381 32.5875 33.3747 32.5436C33.4003 32.4815 33.4149 32.4157 33.4186 32.3462L33.9987 9.05679C34.0134 8.75695 33.8999 8.46075 33.6767 8.2523C33.2816 7.83542 32.6194 7.81709 32.2023 8.21198C31.9865 8.41309 31.8731 8.69464 31.8768 8.99083L31.3367 29.8193L8.82053 7.31453C8.40343 6.89764 7.7266 6.89394 7.30956 7.31077C6.89617 7.72395 6.89621 8.40409 7.31332 8.82098C7.31697 8.81733 7.31697 8.81733 7.31332 8.82098Z" fill="#86888C"/>
</svg>
