<svg width="20" height="20" viewBox="0 0 20 20" fill="none" xmlns="http://www.w3.org/2000/svg">
<path fill-rule="evenodd" clip-rule="evenodd" d="M4.13925 4.80933L14.1464 14.8114L4.69604 15.0513C4.4375 15.0204 4.20174 15.2073 4.17086 15.4657C4.15786 15.5795 4.18713 15.6965 4.25218 15.7908C4.35788 15.9452 4.54325 16.0232 4.72537 15.9939L15.2782 15.7281C15.3059 15.733 15.3335 15.7281 15.3595 15.7151C15.379 15.6989 15.3969 15.681 15.4132 15.6615C15.5286 15.6144 15.6213 15.5217 15.6684 15.4064C15.6879 15.3901 15.7058 15.3722 15.7221 15.3527C15.7335 15.3251 15.74 15.2958 15.7416 15.265L15.9994 4.91413C16.0059 4.78087 15.9555 4.64922 15.8563 4.55658C15.6807 4.3713 15.3864 4.36315 15.201 4.53866C15.1051 4.62804 15.0547 4.75317 15.0563 4.88482L14.8163 14.1419L4.80913 4.13979C4.62375 3.95451 4.32293 3.95286 4.13758 4.13812C3.95385 4.32176 3.95387 4.62404 4.13925 4.80933C4.14088 4.8077 4.14088 4.8077 4.13925 4.80933Z" fill="#86888C"/>
</svg>
