<svg width="40" height="40" viewBox="0 0 40 40" fill="none" xmlns="http://www.w3.org/2000/svg">
<path fill-rule="evenodd" clip-rule="evenodd" d="M37.062 19.1458H5.42742L19.9853 3.88269C20.4428 3.52416 20.5199 2.85832 20.1601 2.40247C20.0007 2.20272 19.7694 2.06443 19.5175 2.01833C19.1063 1.9415 18.6899 2.11053 18.4483 2.44345L2.18891 19.4839C2.13751 19.5197 2.10152 19.571 2.08096 19.6324C2.07582 19.6888 2.07582 19.7451 2.08096 19.8014C1.97301 20.0575 1.97301 20.3495 2.08096 20.6056C2.07582 20.6619 2.07582 20.7183 2.08096 20.7746C2.10667 20.8361 2.14265 20.8924 2.18891 20.9436L18.1501 37.6614C18.3506 37.8816 18.6385 38.0097 18.9418 37.9994C19.5124 38.0148 19.9904 37.5641 20.0058 36.9955C20.0161 36.7036 19.8979 36.427 19.6871 36.2221L5.42742 21.2561H37.062C37.648 21.2561 38.1261 20.7848 38.1261 20.201C38.1261 19.6222 37.648 19.1458 37.062 19.1458C37.062 19.151 37.062 19.151 37.062 19.1458Z" fill="#86888C"/>
</svg>
