<svg width="28" height="28" viewBox="0 0 28 28" fill="none" xmlns="http://www.w3.org/2000/svg">
<path fill-rule="evenodd" clip-rule="evenodd" d="M14.5694 25.3747L14.5694 4.28495L24.7449 13.9902C24.9839 14.2952 25.4278 14.3466 25.7317 14.1067C25.8649 14.0005 25.957 13.8463 25.9878 13.6783C26.039 13.4042 25.9263 13.1266 25.7044 12.9655L14.3441 2.12594C14.3202 2.09167 14.286 2.06768 14.2451 2.05398C14.2075 2.05055 14.1699 2.05055 14.1324 2.05398C13.9616 1.98201 13.767 1.98201 13.5963 2.05398C13.5587 2.05055 13.5212 2.05055 13.4836 2.05398C13.4426 2.07111 13.4051 2.0951 13.3709 2.12594L2.22574 12.7668C2.07892 12.9004 1.99355 13.0923 2.00038 13.2945C1.99014 13.6749 2.29062 13.9936 2.66964 14.0039C2.86427 14.0108 3.04866 13.9319 3.18524 13.7914L13.1626 4.28495L13.1626 25.3747C13.1626 25.7653 13.4768 26.0841 13.866 26.0841C14.2519 26.0841 14.5694 25.7653 14.5694 25.3747C14.566 25.3747 14.566 25.3747 14.5694 25.3747Z" fill="#86888C"/>
</svg>
