<svg width="20" height="20" viewBox="0 0 20 20" fill="none" xmlns="http://www.w3.org/2000/svg">
<path d="M1.91553 9.98996C1.91553 9.8211 1.99072 9.6635 2.12288 9.55543L9.78337 2.23596L9.79704 2.22245C9.98388 2.0716 10.2414 2.04233 10.4578 2.1459C10.6629 2.23821 10.795 2.44084 10.795 2.66373L10.795 6.01615C10.795 6.08594 10.8634 6.14448 10.9454 6.14448L16.5484 6.14448C17.3026 6.14448 17.9155 6.75012 17.9155 7.49535L17.9155 12.4868C17.9155 13.2321 17.3026 13.8377 16.5484 13.8377L10.9477 13.8354C10.8634 13.8354 10.7973 13.8917 10.7973 13.9638L10.7973 17.3365C10.795 17.5593 10.6652 17.762 10.4578 17.8543C10.2414 17.9579 9.98388 17.9286 9.79704 17.7755L9.78337 17.762L2.12288 10.4222C1.993 10.3164 1.91781 10.1588 1.91553 9.98996ZM10.091 2.56917L2.43276 9.8864L2.41909 9.8999C2.38947 9.92242 2.37352 9.95619 2.37124 9.99221C2.37124 10.0282 2.38947 10.062 2.41909 10.0845L2.43276 10.098L10.091 17.4333C10.1411 17.4693 10.2072 17.4738 10.2619 17.449C10.3074 17.431 10.3393 17.386 10.3393 17.3365L10.3393 13.9615C10.3393 13.6418 10.6128 13.3829 10.9454 13.3829L16.5438 13.3852C17.0474 13.3852 17.4553 12.9821 17.4553 12.4846L17.4553 7.49535C17.4553 6.99778 17.0474 6.59477 16.5438 6.59477L10.9477 6.59477C10.6128 6.59477 10.3416 6.33585 10.3416 6.01615L10.3416 2.66599C10.3416 2.61645 10.3097 2.57142 10.2641 2.55341C10.2072 2.5264 10.1411 2.53315 10.091 2.56917Z" fill="#86888C"/>
</svg>
