<svg width="20" height="20" viewBox="0 0 20 20" fill="none" xmlns="http://www.w3.org/2000/svg">
<path fill-rule="evenodd" clip-rule="evenodd" d="M10.3796 17.5831V3.5233L17.1632 9.99346C17.3226 10.1968 17.6185 10.2311 17.8211 10.0711C17.9099 10.0003 17.9714 9.89751 17.9919 9.78556C18.026 9.60278 17.9509 9.41773 17.8029 9.31035L10.2294 2.08396C10.2134 2.06111 10.1907 2.04512 10.1634 2.03598C10.1383 2.0337 10.1133 2.0337 10.0882 2.03598C9.97443 1.98801 9.84467 1.98801 9.73085 2.03598C9.70581 2.0337 9.68077 2.0337 9.65573 2.03598C9.62842 2.04741 9.60338 2.0634 9.58061 2.08396L2.1505 9.17784C2.05261 9.26694 1.9957 9.39488 2.00025 9.52968C1.99343 9.78327 2.19375 9.99575 2.44643 10.0026C2.57618 10.0072 2.6991 9.95462 2.79016 9.86095L9.44175 3.5233L9.44175 17.5831C9.44175 17.8436 9.65118 18.056 9.91069 18.056C10.1679 18.056 10.3796 17.8436 10.3796 17.5831C10.3773 17.5831 10.3773 17.5831 10.3796 17.5831Z" fill="#86888C"/>
</svg>
