<svg width="24" height="24" viewBox="0 0 24 24" fill="none" xmlns="http://www.w3.org/2000/svg">
<path fill-rule="evenodd" clip-rule="evenodd" d="M11.5255 2.59118L11.5255 20.1659L3.04594 12.0782C2.84676 11.8241 2.47684 11.7812 2.2236 11.9811C2.11262 12.0697 2.03579 12.1982 2.01018 12.3381C1.9675 12.5666 2.0614 12.7979 2.24636 12.9321L11.7133 21.9651C11.7332 21.9937 11.7616 22.0137 11.7958 22.0251C11.8271 22.0279 11.8584 22.0279 11.8897 22.0251C12.032 22.0851 12.1942 22.0851 12.3364 22.0251C12.3677 22.0279 12.399 22.0279 12.4303 22.0251C12.4645 22.0108 12.4958 21.9908 12.5242 21.9651L21.8119 13.0978C21.9342 12.9864 22.0054 12.8265 21.9997 12.658C22.0082 12.341 21.7578 12.0754 21.442 12.0668C21.2798 12.0611 21.1261 12.1268 21.0123 12.2439L12.6978 20.1659L12.6978 2.59118C12.6978 2.26562 12.436 2.00003 12.1116 2.00003C11.7901 2.00003 11.5255 2.26562 11.5255 2.59118C11.5283 2.59118 11.5283 2.59118 11.5255 2.59118Z" fill="#86888C"/>
</svg>
