<svg width="28" height="28" viewBox="0 0 28 28" fill="none" xmlns="http://www.w3.org/2000/svg">
<path d="M26.0254 10.0122C26.0254 10.1423 25.9844 10.269 25.8991 10.3786C25.8752 10.4094 25.8479 10.4368 25.8172 10.4642L20.366 15.8575C20.3591 15.8644 20.3489 15.8712 20.3421 15.8781C20.1509 16.0322 19.8983 16.063 19.673 15.9568C19.458 15.8541 19.3283 15.6486 19.3283 15.4158L19.3044 12.6729L15.1742 12.6798C14.529 12.6798 14.0034 12.1524 14.0034 11.5052L14.0034 8.49868C14.0034 7.85149 14.529 7.32414 15.1742 7.32414L19.3078 7.32072L19.3317 4.57442C19.3317 4.34499 19.4648 4.13953 19.6765 4.0368C19.8983 3.93065 20.1543 3.96147 20.3455 4.11556C20.3557 4.12241 20.3626 4.12926 20.3694 4.13953L25.8172 9.56022C25.9537 9.67664 26.0254 9.84101 26.0254 10.0122ZM20.011 15.248L25.3018 10.0088L20.011 4.74221L19.9905 7.4029V7.40975C19.9803 7.74533 19.7038 8.009 19.3693 8.00216L15.1776 8.009C14.9079 8.009 14.6895 8.22816 14.6895 8.49868L14.6895 11.5052C14.6895 11.7757 14.9079 11.9949 15.1776 11.9949L19.3693 11.9881C19.7038 11.9812 19.9803 12.2449 19.9905 12.5805V12.5873L20.011 15.248ZM14.0443 19.501C14.0443 20.1482 13.5187 20.6755 12.8735 20.6755L8.74332 20.679L8.71943 23.4253C8.71943 23.6547 8.58631 23.8601 8.37467 23.9629C8.1528 24.069 7.8968 24.0382 7.70565 23.8841C7.69541 23.8773 7.68858 23.8704 7.68175 23.8601L2.23396 18.4395C2.12132 18.3436 2.04964 18.2066 2.02916 18.0594C2.01209 17.9018 2.05305 17.7477 2.15204 17.621C2.17593 17.5902 2.20324 17.5628 2.23396 17.5354L7.68517 12.1421C7.69199 12.1353 7.70223 12.1285 7.70906 12.1216C7.90021 11.9675 8.1528 11.9367 8.37809 12.0428C8.59313 12.1456 8.72284 12.351 8.72284 12.5839L8.74674 15.3268L12.8735 15.3199C13.5187 15.3199 14.0443 15.8473 14.0443 16.4944V19.501ZM8.68188 19.9941L12.8735 19.9907C13.1432 19.9907 13.3617 19.7715 13.3617 19.501V16.4944C13.3617 16.2239 13.1432 16.0048 12.8735 16.0048L8.68529 16.0116C8.35419 16.0185 8.0743 15.7548 8.06406 15.4192V15.4124L8.04357 12.7517L2.7528 17.9909L8.03675 23.2575L8.05723 20.5968V20.5899C8.07088 20.2543 8.34737 19.9907 8.68188 19.9941ZM8.04016 12.5839C8.04016 12.5839 8.04016 12.5873 8.04016 12.5839V12.5839Z" fill="#86888C"/>
</svg>
