<svg width="20" height="20" viewBox="0 0 20 20" fill="none" xmlns="http://www.w3.org/2000/svg">
<path fill-rule="evenodd" clip-rule="evenodd" d="M9.62038 2.47304V16.5329L2.83675 10.0627C2.6774 9.85935 2.38147 9.82509 2.17888 9.98501C2.0901 10.0558 2.02864 10.1586 2.00815 10.2706C1.974 10.4534 2.04912 10.6384 2.19709 10.7458L9.77062 17.9722C9.78655 17.995 9.80932 18.011 9.83663 18.0202C9.86167 18.0225 9.88671 18.0225 9.91175 18.0202C10.0256 18.0681 10.1553 18.0681 10.2691 18.0202C10.2942 18.0225 10.3192 18.0225 10.3443 18.0202C10.3716 18.0087 10.3966 17.9928 10.4194 17.9722L17.8495 10.8783C17.9474 10.7892 18.0043 10.6613 17.9997 10.5265C18.0066 10.2729 17.8063 10.0604 17.5536 10.0536C17.4238 10.049 17.3009 10.1015 17.2098 10.1952L10.5582 16.5329L10.5582 2.47304C10.5582 2.21259 10.3488 2.00012 10.0893 2.00012C9.83208 2.00012 9.62038 2.21259 9.62038 2.47304C9.62265 2.47304 9.62265 2.47304 9.62038 2.47304Z" fill="#86888C"/>
</svg>
