<svg width="28" height="28" viewBox="0 0 28 28" fill="none" xmlns="http://www.w3.org/2000/svg">
<path d="M10.8494 2C11.411 2 11.8421 2.43247 12.0991 2.68243L12.1031 2.6864L19.4001 10.1059C19.4515 10.1575 19.5187 10.1892 19.5899 10.1892C19.6255 10.1892 19.6928 10.1852 19.7442 10.1297L23.6596 6.20173L23.6675 6.19379C24.0393 5.83671 24.6998 5.73355 25.206 5.95177C25.6727 6.15412 25.9417 6.58262 25.9377 7.12619L25.9377 24.9766C25.9614 25.2781 25.8705 25.5479 25.6806 25.7384C25.4908 25.9288 25.2179 26.0201 24.9213 25.9963L7.03674 25.9884H7.02092C6.55819 25.9884 6.18246 25.7424 5.99262 25.3178C5.75928 24.7901 5.86606 24.0839 6.24179 23.6752L6.25365 23.6633L9.87248 20.0329C9.92389 19.9813 9.9318 19.9139 9.9318 19.8782C9.92785 19.8068 9.90017 19.7393 9.8448 19.6877L2.68229 12.4746C1.76472 11.5541 1.77263 10.5701 2.70601 9.63374L9.83293 2.47215L9.8448 2.46025C10.2126 2.123 10.5488 2 10.8494 2ZM11.5375 3.24187C10.9641 2.67053 10.7742 2.68243 10.3866 3.03555L3.25971 10.1892C2.94727 10.5027 2.78907 10.7923 2.78511 11.0542C2.78116 11.32 2.92749 11.5977 3.23598 11.9072L10.4025 19.1243C10.5962 19.3187 10.7109 19.5806 10.7189 19.8504C10.7268 20.1321 10.6239 20.394 10.4301 20.5924L6.81526 24.2188C6.65706 24.3973 6.60565 24.7584 6.71243 24.9964C6.79153 25.175 6.92205 25.1988 7.02488 25.1988H7.02883L24.9331 25.2067C24.945 25.2067 24.9608 25.2067 24.9727 25.2107C25.0399 25.2186 25.0913 25.2067 25.1151 25.1829C25.1388 25.1591 25.1507 25.1036 25.1428 25.0401C25.1428 25.0282 25.1388 25.0123 25.1388 25.0004L25.1388 7.13412C25.1388 6.904 25.0597 6.76513 24.8857 6.68975C24.6484 6.58659 24.3399 6.65404 24.2094 6.77704L20.2979 10.701C20.1041 10.8954 19.8391 10.9986 19.5583 10.9907C19.2854 10.9827 19.0283 10.8716 18.8345 10.6733L11.5375 3.24187Z" fill="#86888C"/>
</svg>
