<svg width="28" height="28" viewBox="0 0 28 28" fill="none" xmlns="http://www.w3.org/2000/svg">
<path d="M13.8881 2C14.1414 2 14.3778 2.11279 14.5399 2.31102L25.5191 13.8018L25.5394 13.8223C25.7657 14.1025 25.8096 14.4887 25.6542 14.8134C25.5158 15.121 25.2118 15.3193 24.8775 15.3193L19.8489 15.3193C19.7442 15.3193 19.6564 15.4218 19.6564 15.5449L19.6564 23.9493C19.6564 25.0806 18.7479 26 17.63 26L10.1428 26C9.025 26 8.11654 25.0806 8.11654 23.9493L8.11991 15.5483C8.11991 15.4218 8.03548 15.3227 7.92741 15.3227L2.8684 15.3227C2.53406 15.3193 2.23011 15.1245 2.09165 14.8134C1.9363 14.4887 1.9802 14.1025 2.20985 13.8223L2.23011 13.8018L13.2397 2.31102C13.3984 2.11621 13.6348 2.00342 13.8881 2ZM25.0193 14.2632L14.0435 2.77585L14.0232 2.75534C13.9895 2.71091 13.9388 2.68698 13.8848 2.68356C13.8307 2.68356 13.7801 2.71091 13.7463 2.75534L13.726 2.77585L2.72318 14.2632C2.66914 14.3384 2.66239 14.4375 2.69954 14.5195C2.72656 14.5879 2.7941 14.6357 2.8684 14.6357L7.93079 14.6357C8.41035 14.6357 8.79873 15.0459 8.79873 15.5449L8.79535 23.9425C8.79535 24.6978 9.39986 25.3096 10.1462 25.3096L17.63 25.3096C18.3764 25.3096 18.9809 24.6978 18.9809 23.9425L18.9809 15.5483C18.9809 15.0459 19.3693 14.6391 19.8489 14.6391L24.8741 14.6391C24.9484 14.6391 25.0159 14.5913 25.043 14.5229C25.0835 14.4375 25.0734 14.3384 25.0193 14.2632Z" fill="#86888C"/>
</svg>
