<svg width="40" height="40" viewBox="0 0 40 40" fill="none" xmlns="http://www.w3.org/2000/svg">
<path d="M19.8322 2C20.2121 2 20.5667 2.16918 20.8099 2.46653L37.2787 19.7027L37.3091 19.7334C37.6485 20.1538 37.7144 20.7331 37.4813 21.2202C37.2736 21.6816 36.8177 21.9789 36.3162 21.9789L28.7733 21.9789C28.6162 21.9789 28.4845 22.1327 28.4845 22.3173L28.4845 34.924C28.4845 36.6209 27.1218 38 25.4451 38L14.2143 38C12.5375 38 11.1748 36.6209 11.1748 34.924L11.1799 22.3224C11.1799 22.1327 11.0532 21.984 10.8911 21.984L3.30259 21.984C2.80108 21.9789 2.34516 21.6867 2.13747 21.2202C1.90444 20.7331 1.9703 20.1538 2.31477 19.7334L2.34517 19.7026L18.8596 2.46653C19.0977 2.17431 19.4523 2.00513 19.8322 2ZM36.529 20.3948L20.0652 3.16377L20.0348 3.13301C19.9842 3.06636 19.9082 3.03047 19.8271 3.02535C19.7461 3.02535 19.6701 3.06636 19.6194 3.13301L19.589 3.16377L3.08477 20.3948C3.00371 20.5075 2.99358 20.6562 3.04931 20.7793C3.08983 20.8818 3.19115 20.9536 3.30259 20.9536L10.8962 20.9536C11.6155 20.9536 12.1981 21.5688 12.1981 22.3173L12.193 34.9137C12.193 36.0467 13.0998 36.9644 14.2193 36.9644L25.4451 36.9644C26.5646 36.9644 27.4714 36.0467 27.4714 34.9137L27.4714 22.3224C27.4714 21.5688 28.0539 20.9587 28.7733 20.9587L36.3111 20.9587C36.4226 20.9587 36.5239 20.8869 36.5644 20.7844C36.6252 20.6562 36.61 20.5075 36.529 20.3948Z" fill="#86888C"/>
</svg>
