<svg width="28" height="28" viewBox="0 0 28 28" fill="none" xmlns="http://www.w3.org/2000/svg">
<path d="M13.858 26C13.6047 26 13.3683 25.8872 13.2062 25.689L2.22695 14.1982L2.20669 14.1777C1.98042 13.8975 1.93652 13.5113 2.09187 13.1866C2.23033 12.879 2.53428 12.6807 2.86862 12.6807H7.89724C8.00193 12.6807 8.08974 12.5782 8.08974 12.4551V4.0507C8.08974 2.9194 8.9982 2 10.116 2H17.6033C18.7211 2 19.6296 2.9194 19.6296 4.0507L19.6262 12.4517C19.6262 12.5782 19.7106 12.6773 19.8187 12.6773H24.8777C25.212 12.6807 25.516 12.8755 25.6544 13.1866C25.8098 13.5113 25.7659 13.8975 25.5362 14.1777L25.516 14.1982L14.5064 25.689C14.3477 25.8838 14.1112 25.9966 13.858 26ZM2.72678 13.7368L13.7026 25.2242L13.7229 25.2447C13.7566 25.2891 13.8073 25.313 13.8613 25.3164C13.9154 25.3164 13.966 25.2891 13.9998 25.2447L14.0201 25.2242L25.0229 13.7368C25.077 13.6616 25.0837 13.5625 25.0466 13.4805C25.0195 13.4121 24.952 13.3643 24.8777 13.3643H19.8153C19.3357 13.3643 18.9474 12.9541 18.9474 12.4551L18.9507 4.05753C18.9507 3.30219 18.3462 2.6904 17.5999 2.6904H10.116C9.36969 2.6904 8.76517 3.30219 8.76517 4.05753V12.4517C8.76517 12.9541 8.3768 13.3609 7.89724 13.3609H2.87199C2.7977 13.3609 2.73015 13.4087 2.70314 13.4771C2.66261 13.5625 2.67274 13.6616 2.72678 13.7368Z" fill="#86888C"/>
</svg>
