<svg width="40" height="40" viewBox="0 0 40 40" fill="none" xmlns="http://www.w3.org/2000/svg">
<path d="M19.7869 38C19.407 38 19.0524 37.8308 18.8092 37.5335L2.34043 20.2973L2.31004 20.2666C1.97063 19.8462 1.90477 19.2669 2.1378 18.7798C2.3455 18.3184 2.80142 18.0211 3.30293 18.0211H10.8459C11.0029 18.0211 11.1346 17.8673 11.1346 17.6827V5.07605C11.1346 3.37909 12.4973 2 14.1741 2H25.4049C27.0816 2 28.4443 3.37909 28.4443 5.07605L28.4393 17.6776C28.4393 17.8673 28.5659 18.0159 28.728 18.0159H36.3165C36.8181 18.0211 37.274 18.3133 37.4817 18.7798C37.7147 19.2669 37.6488 19.8462 37.3044 20.2666L37.274 20.2973L20.7596 37.5335C20.5215 37.8257 20.1669 37.9949 19.7869 38ZM3.09016 19.6052L19.5539 36.8362L19.5843 36.867C19.635 36.9336 19.711 36.9695 19.792 36.9747C19.8731 36.9747 19.949 36.9336 19.9997 36.867L20.0301 36.8362L36.5344 19.6052C36.6154 19.4925 36.6256 19.3438 36.5698 19.2207C36.5293 19.1182 36.428 19.0464 36.3165 19.0464H28.723C28.0036 19.0464 27.4211 18.4312 27.4211 17.6827L27.4261 5.0863C27.4261 3.95329 26.5194 3.0356 25.3998 3.0356H14.1741C13.0545 3.0356 12.1478 3.95329 12.1478 5.0863V17.6776C12.1478 18.4312 11.5652 19.0413 10.8459 19.0413H3.30799C3.19655 19.0413 3.09523 19.1131 3.0547 19.2156C2.99391 19.3438 3.00911 19.4925 3.09016 19.6052Z" fill="#86888C"/>
</svg>
