<svg width="40" height="40" viewBox="0 0 40 40" fill="none" xmlns="http://www.w3.org/2000/svg">
<path fill-rule="evenodd" clip-rule="evenodd" d="M20.2521 38C14.9351 38 12 35.3364 12 30.4906V8.00341C12 4.1309 14.346 2 18.6079 2C22.8645 2 25.2106 4.13091 25.2106 8.00854V27.4838C25.2106 30.3318 23.4178 31.971 20.2829 31.971C17.148 31.971 15.3552 30.3369 15.3552 27.4838V11.0615C15.3552 10.6466 15.724 10.3136 16.1799 10.3136C16.6357 10.3136 16.9994 10.6517 16.9994 11.0615V27.4838C16.9994 29.5225 18.0444 30.4701 20.2777 30.4701C22.5162 30.4701 23.5561 29.5225 23.5561 27.4838V8.00854C23.5561 4.9761 21.9323 3.50085 18.5976 3.50085C15.2629 3.50085 13.6392 4.9761 13.6392 8.00854V30.4957C13.6392 34.4809 15.8623 36.5043 20.2419 36.5043C24.6215 36.5043 26.8446 34.4809 26.8446 30.4957L26.8241 11.0512C26.8241 10.6363 27.1929 10.3034 27.6437 10.3034H27.6488C28.1047 10.3034 28.4735 10.6363 28.4735 11.0512L28.4991 30.5009C28.5043 35.3364 25.5692 38 20.2521 38Z" fill="#86888C"/>
</svg>
