<svg width="28" height="28" viewBox="0 0 28 28" fill="none" xmlns="http://www.w3.org/2000/svg">
<path fill-rule="evenodd" clip-rule="evenodd" d="M22.6668 6.0622C22.8 6.18515 25.9422 9.09852 25.9968 14.0816C26.0037 14.2592 26.1744 19.1604 22.7112 22.2889C22.5267 22.4563 22.2979 22.5382 22.0622 22.5382C21.7958 22.5382 21.5294 22.4255 21.3348 22.2104C20.9796 21.8039 21.0103 21.1823 21.4133 20.8203C24.1935 18.3099 24.05 14.1773 24.0466 14.1363C24.0022 9.97287 21.3894 7.54791 21.3621 7.524C20.9625 7.15855 20.9283 6.53694 21.2869 6.13392C21.6524 5.73432 22.274 5.70016 22.6668 6.0622ZM21.5089 14.1294C21.5158 14.2353 21.6285 17.5005 19.3128 19.5907C19.1284 19.7581 18.8961 19.84 18.6639 19.84C18.3975 19.84 18.1311 19.7308 17.9364 19.5122C17.5778 19.1091 17.6119 18.4875 18.015 18.1221C19.6305 16.6637 19.5621 14.2012 19.5587 14.1773C19.5348 11.7284 18.0423 10.311 17.9774 10.2529C17.5812 9.88748 17.5539 9.26587 17.9159 8.86285C18.2745 8.46325 18.8859 8.43251 19.2821 8.79113C19.3743 8.87651 21.4748 10.8199 21.5089 14.1294ZM14.1794 20.8476V6.9707C11.5632 7.01169 9.71204 7.87921 8.59178 9.55619C8.57129 9.61083 8.51664 9.63816 8.4859 9.68597C8.43126 9.78843 8.36295 9.87724 8.27415 9.95238C8.2639 9.95921 8.25707 9.96604 8.24682 9.97287C8.07947 10.1061 7.87796 10.1983 7.64912 10.1983L3.94338 10.2017L3.95363 17.6337L7.63888 17.6303C8.01457 17.6303 8.33221 17.8557 8.49615 18.1699C8.51323 18.2006 8.5508 18.2143 8.56446 18.2519C9.67447 19.9425 11.5598 20.8134 14.1794 20.8476ZM14.2751 5C15.3373 5 16.1262 5.79921 16.1262 6.77602V21.0491C16.1262 22.0225 15.3441 22.8149 14.3809 22.8149C10.3746 22.8149 8.25707 21.1584 7.13339 19.5941L2.98706 19.5976C2.45084 19.5976 2.01366 19.1604 2.01366 18.6173L2 9.21806C2 8.95507 2.10246 8.70574 2.2869 8.52131C2.46791 8.33688 2.71383 8.23441 2.9734 8.23441L7.15047 8.231C8.27756 6.6599 10.3883 5 14.2751 5Z" fill="#86888C"/>
</svg>
