<svg width="28" height="28" viewBox="0 0 28 28" fill="none" xmlns="http://www.w3.org/2000/svg">
<path fill-rule="evenodd" clip-rule="evenodd" d="M16.4178 14.1618C16.8207 14.1549 18.4223 14.0013 18.4223 12.0346C18.4223 10.0713 16.8207 9.90738 16.4075 9.89714C16.3563 9.89373 16.2982 9.89373 16.2436 9.89373H16.2094C15.7894 9.89714 14.2186 10.044 14.2186 12.0209C14.2186 14.0013 15.7997 14.1549 16.2231 14.1618H16.2812C16.329 14.1652 16.3768 14.1618 16.4178 14.1618ZM16.4314 8.87623C17.9306 8.91379 19.4434 9.90397 19.4434 12.038C19.4434 14.1754 17.9306 15.1622 16.4348 15.1895L16.2812 15.1929H16.206C14.7069 15.169 13.1941 14.1822 13.1941 12.0277C13.1941 9.87324 14.7001 8.8933 16.1992 8.87964H16.2436L16.4314 8.87623ZM10.3392 15.2578C10.5612 15.2544 11.4559 15.169 11.4559 14.0764C11.4559 12.9838 10.5646 12.8916 10.3358 12.8848H10.2231C9.98748 12.8882 9.11668 12.9701 9.11668 14.0662C9.11668 15.169 9.99772 15.2544 10.2334 15.2578H10.3392ZM10.3597 11.8604C11.3808 11.8843 12.4769 12.5877 12.4769 14.073C12.4769 15.5617 11.3773 16.2582 10.3563 16.2787H10.2163C9.19522 16.2616 8.09562 15.5651 8.09562 14.0627C8.09562 12.5604 9.19522 11.8673 10.2094 11.857H10.2538L10.3597 11.8604ZM16.9778 19.9697C17.2612 19.9048 18.3677 19.56 18.0808 18.1737C17.8589 17.1084 17.1246 16.9343 16.6636 16.9343C16.527 16.9343 16.4109 16.9513 16.346 16.9616C16.3017 16.9684 16.2504 16.9787 16.206 16.9889C15.9089 17.0538 14.823 17.3884 15.1133 18.7849C15.3352 19.8502 16.0524 20.0312 16.5134 20.0312C16.6568 20.0312 16.7729 20.0141 16.8446 19.997C16.8856 19.9902 16.9368 19.9765 16.9778 19.9697ZM16.6636 15.9099C17.9101 15.9099 18.8116 16.6782 19.0814 17.9654C19.4331 19.6624 18.395 20.6936 17.2032 20.9667L17.0393 21.0009C16.9232 21.0213 16.7353 21.0521 16.5134 21.0521C15.2806 21.0521 14.3825 20.2804 14.1127 18.9898C13.7575 17.2757 14.7957 16.248 15.9875 15.9885C16.0455 15.9782 16.107 15.9646 16.1616 15.9543C16.2709 15.9338 16.4485 15.9099 16.6636 15.9099ZM19.7336 20.6321C20.8674 19.4985 21.6972 17.7503 21.6972 15.0188C21.6972 8.24114 16.5748 7.39437 14.3791 7.32949H13.5902C13.5083 7.32949 13.4263 7.32949 13.3341 7.33974C13.2521 7.33974 13.1599 7.33974 13.0677 7.34998C12.6818 7.37047 12.2618 7.42168 11.811 7.51387C11.5242 7.56509 11.2476 7.63679 10.9641 7.73922C10.8719 7.76995 10.7695 7.78703 10.6773 7.83141C10.5851 7.86214 10.4929 7.89287 10.4007 7.93385C10.3904 7.93385 10.3802 7.94409 10.3597 7.95433C10.1958 8.01579 10.0319 8.08749 9.86796 8.17968C9.80649 8.21041 9.75526 8.24114 9.6938 8.27187C9.22254 8.52796 8.77177 8.8455 8.3654 9.25181C8.3654 9.26206 8.3654 9.2723 8.34491 9.2723C8.32442 9.29279 8.31417 9.31327 8.29368 9.33376C8.29368 9.33376 8.28344 9.35425 8.27319 9.35425C8.12977 9.49765 7.99658 9.64106 7.88731 9.80154C7.76437 9.95519 7.65168 10.1088 7.53899 10.283C7.52874 10.3137 7.50825 10.3342 7.48776 10.3649C7.38532 10.5288 7.29311 10.7029 7.20091 10.8873C7.19067 10.9078 7.18042 10.9283 7.18042 10.9488C7.07797 11.1332 6.99602 11.3278 6.9243 11.5429C6.87308 11.6761 6.82186 11.8092 6.78088 11.9526C6.75014 12.0551 6.71941 12.1677 6.68867 12.2907C6.61696 12.5467 6.56574 12.8233 6.51451 13.0999C6.49402 13.2023 6.48378 13.3047 6.47353 13.4072C6.4428 13.6018 6.42231 13.7964 6.41207 14.0013C6.39158 14.1549 6.39158 14.3086 6.38133 14.4725C6.37109 14.6364 6.37109 14.8003 6.37109 14.971C6.37109 21.8203 11.4627 22.6398 13.6483 22.6705H13.9146C14.0888 22.6705 14.2595 22.6705 14.4166 22.6603C15.6938 22.6398 17.9715 22.3325 19.638 20.7277C19.6585 20.7175 19.6585 20.697 19.679 20.6765C19.6927 20.6526 19.7131 20.6526 19.7336 20.6321ZM25.4878 14.4895C25.7746 14.4895 26 14.7149 26 15.0017C26 15.2783 25.7746 15.5139 25.4878 15.5139H22.6978C22.6056 18.061 21.8201 19.8195 20.7445 21.0248L22.4826 22.7627C22.6875 22.9573 22.6875 23.2851 22.4826 23.49C22.3802 23.5822 22.2573 23.6334 22.1275 23.6334C21.9943 23.6334 21.8611 23.5822 21.7587 23.49L20.0205 21.7418C18.0296 23.408 15.5128 23.6539 14.5122 23.6846V26.4878C14.5122 26.7746 14.2869 27 14 27C13.7234 27 13.4878 26.7746 13.4878 26.4878V23.6846C12.3916 23.6539 9.93967 23.3773 8.00683 21.7213L6.23791 23.49C6.13546 23.5822 6.00228 23.6334 5.8691 23.6334C5.74616 23.6334 5.61298 23.5822 5.51394 23.49C5.31929 23.2851 5.31929 22.9573 5.51394 22.7627L7.27945 20.994C6.23791 19.7887 5.48321 18.0303 5.38076 15.5139H2.51224C2.23563 15.5139 2 15.2783 2 15.0017C2 14.7149 2.23563 14.4895 2.51224 14.4895H5.38418C5.47638 11.9424 6.22083 10.184 7.26579 8.97866L5.51736 7.23047C5.32271 7.03585 5.32271 6.70807 5.51736 6.51344C5.72225 6.30858 6.03984 6.30858 6.24474 6.51344L7.98293 8.2548C9.9465 6.57832 12.4394 6.33248 13.4912 6.31199V3.51216C13.4912 3.22535 13.7268 3 14.0034 3C14.2903 3 14.5157 3.22535 14.5157 3.51216V6.32224C15.5572 6.36321 18.033 6.63978 20.0034 8.27529L21.7621 6.51686C21.967 6.31199 22.2948 6.31199 22.4895 6.51686C22.6944 6.71148 22.6944 7.03927 22.4895 7.23389L20.7308 8.99232C21.8031 10.1976 22.5885 11.956 22.6944 14.493H25.4878V14.4895Z" fill="#86888C"/>
</svg>
