<svg width="20" height="20" viewBox="0 0 20 20" fill="none" xmlns="http://www.w3.org/2000/svg">
<path fill-rule="evenodd" clip-rule="evenodd" d="M11.6118 9.44117C11.8805 9.43662 12.9482 9.33419 12.9482 8.02305C12.9482 6.71418 11.8805 6.60492 11.605 6.59809C11.5709 6.59582 11.5322 6.59582 11.4957 6.59582H11.473C11.1929 6.59809 10.1457 6.69597 10.1457 8.01394C10.1457 9.33419 11.1998 9.43662 11.4821 9.44117H11.5208C11.5526 9.44345 11.5845 9.44117 11.6118 9.44117ZM11.6209 5.91748C12.6204 5.94252 13.6289 6.60265 13.6289 8.02532C13.6289 9.45028 12.6204 10.1081 11.6232 10.1263L11.5208 10.1286H11.4707C10.4713 10.1127 9.46272 9.45483 9.46272 8.01849C9.46272 6.58216 10.4667 5.92887 11.4661 5.91976H11.4957L11.6209 5.91748ZM7.55948 10.1719C7.70746 10.1696 8.30393 10.1127 8.30393 9.38426C8.30393 8.65585 7.70973 8.59439 7.5572 8.58984H7.48207C7.32499 8.59212 6.74445 8.64675 6.74445 9.37744C6.74445 10.1127 7.33182 10.1696 7.4889 10.1719H7.55948ZM7.57314 7.90696C8.25384 7.92289 8.98463 8.3918 8.98463 9.38199C8.98463 10.3744 8.25157 10.8388 7.57086 10.8525H7.47752C6.79681 10.8411 6.06375 10.3767 6.06375 9.37516C6.06375 8.37359 6.79681 7.91151 7.47297 7.90468H7.50256L7.57314 7.90696ZM11.9852 13.3131C12.1742 13.2699 12.9118 13.04 12.7205 12.1158C12.5726 11.4056 12.0831 11.2895 11.7758 11.2895C11.6847 11.2895 11.6073 11.3009 11.564 11.3077C11.5344 11.3123 11.5003 11.3191 11.4707 11.3259C11.2726 11.3692 10.5487 11.5923 10.7422 12.5233C10.8902 13.2335 11.3682 13.3541 11.6756 13.3541C11.7712 13.3541 11.8486 13.3427 11.8964 13.3313C11.9237 13.3268 11.9579 13.3177 11.9852 13.3131ZM11.7758 10.6066C12.6067 10.6066 13.2077 11.1188 13.3876 11.977C13.6221 13.1083 12.93 13.7957 12.1355 13.9778L12.0262 14.0006C11.9488 14.0142 11.8236 14.0347 11.6756 14.0347C10.8537 14.0347 10.255 13.5203 10.0751 12.6598C9.83836 11.5171 10.5304 10.832 11.325 10.659C11.3637 10.6522 11.4047 10.6431 11.4411 10.6362C11.5139 10.6226 11.6323 10.6066 11.7758 10.6066ZM13.8224 13.7547C14.5783 12.999 15.1315 11.8335 15.1315 10.0125C15.1315 5.4941 11.7166 4.92958 10.2527 4.88633H9.72681C9.67217 4.88633 9.61753 4.88633 9.55606 4.89316C9.50142 4.89316 9.43996 4.89316 9.37849 4.89999C9.12123 4.91364 8.84121 4.94779 8.54069 5.00925C8.34946 5.04339 8.16505 5.09119 7.9761 5.15948C7.91463 5.17997 7.84633 5.19135 7.78486 5.22094C7.72339 5.24143 7.66192 5.26191 7.60046 5.28923C7.59363 5.28923 7.5868 5.29606 7.57314 5.30289C7.46386 5.34386 7.35458 5.39166 7.2453 5.45312C7.20433 5.47361 7.17018 5.4941 7.1292 5.51458C6.81503 5.6853 6.51451 5.897 6.2436 6.16788C6.2436 6.1747 6.2436 6.18153 6.22994 6.18153C6.21628 6.19519 6.20945 6.20885 6.19579 6.22251C6.19579 6.22251 6.18896 6.23616 6.18213 6.23616C6.08651 6.33177 5.99772 6.42737 5.92487 6.53436C5.84291 6.63679 5.76779 6.73922 5.69266 6.85531C5.68583 6.8758 5.67217 6.88946 5.65851 6.90994C5.59021 7.01921 5.52874 7.1353 5.46727 7.25822C5.46044 7.27187 5.45361 7.28553 5.45361 7.29919C5.38532 7.42211 5.33068 7.55186 5.28287 7.69526C5.24872 7.78404 5.21457 7.87281 5.18725 7.96842C5.16676 8.0367 5.14627 8.11182 5.12578 8.19377C5.07797 8.36449 5.04382 8.54887 5.00968 8.73325C4.99602 8.80154 4.98919 8.86982 4.98236 8.93811C4.96187 9.06786 4.94821 9.19761 4.94138 9.33419C4.92772 9.43662 4.92772 9.53905 4.92089 9.64831C4.91406 9.75758 4.91406 9.86684 4.91406 9.98065C4.91406 14.5469 8.30848 15.0932 9.76551 15.1137H9.94309C10.0592 15.1137 10.173 15.1137 10.2777 15.1068C11.1292 15.0932 12.6477 14.8883 13.7587 13.8185C13.7723 13.8116 13.7723 13.798 13.786 13.7843C13.7951 13.7684 13.8088 13.7684 13.8224 13.7547ZM17.6585 9.6597C17.8497 9.6597 18 9.80993 18 10.0011C18 10.1855 17.8497 10.3426 17.6585 10.3426H15.7985C15.7371 12.0407 15.2134 13.213 14.4963 14.0165L15.6551 15.1751C15.7917 15.3049 15.7917 15.5234 15.6551 15.66C15.5868 15.7214 15.5048 15.7556 15.4183 15.7556C15.3295 15.7556 15.2408 15.7214 15.1725 15.66L14.0137 14.4945C12.6864 15.6053 11.0085 15.7692 10.3415 15.7897V17.6586C10.3415 17.8498 10.1912 18 10 18C9.8156 18 9.65851 17.8498 9.65851 17.6586V15.7897C8.92772 15.7692 7.29311 15.5849 6.00455 14.4809L4.82527 15.66C4.75697 15.7214 4.66818 15.7556 4.5794 15.7556C4.49744 15.7556 4.40865 15.7214 4.34263 15.66C4.21286 15.5234 4.21286 15.3049 4.34263 15.1751L5.51964 13.996C4.82527 13.1925 4.32214 12.0202 4.25384 10.3426H2.34149C2.15709 10.3426 2 10.1855 2 10.0011C2 9.80993 2.15709 9.6597 2.34149 9.6597H4.25612C4.31759 7.96159 4.81389 6.7893 5.51053 5.98577L4.34491 4.82032C4.21514 4.69057 4.21514 4.47204 4.34491 4.3423C4.4815 4.20572 4.69323 4.20572 4.82982 4.3423L5.98862 5.5032C7.29767 4.38555 8.95959 4.22165 9.66079 4.208V2.34144C9.66079 2.15023 9.81787 2 10.0023 2C10.1935 2 10.3438 2.15023 10.3438 2.34144V4.21482C11.0381 4.24214 12.6887 4.42652 14.0023 5.51686L15.1747 4.34457C15.3113 4.208 15.5299 4.208 15.6596 4.34457C15.7962 4.47432 15.7962 4.69284 15.6596 4.82259L14.4872 5.99488C15.202 6.79841 15.7257 7.97069 15.7962 9.66197H17.6585V9.6597Z" fill="#86888C"/>
</svg>
