<svg width="20" height="20" viewBox="0 0 20 20" fill="none" xmlns="http://www.w3.org/2000/svg">
<path fill-rule="evenodd" clip-rule="evenodd" d="M16.9549 12.8928C16.7454 13.1046 16.4403 13.2253 16.0509 13.2526C15.9758 13.2572 15.3018 13.2572 15.2358 13.2572C15.188 13.2572 14.53 13.2571 14.4662 13.2549C14.0541 13.2344 13.733 13.1137 13.5144 12.8928C13.3232 12.7039 13.2048 12.4306 13.157 12.0868L17.3078 12.0891C17.2623 12.4329 17.1439 12.7039 16.9549 12.8928ZM14.9057 5.92998L17.1575 11.3901L13.2572 11.3878L14.9057 5.92998ZM12.6515 16.2741C13.0864 16.2741 13.4143 16.3834 13.6306 16.6042C13.7945 16.7727 13.8992 17.005 13.9448 17.3055H6.05066C6.0962 17.0073 6.20094 16.7727 6.36488 16.6042C6.58119 16.3857 6.91134 16.2741 7.34396 16.2741H12.6515ZM9.40003 5.2378H10.5954V15.5773H9.40003V5.2378ZM9.53437 3.76007C9.4319 3.65533 9.40914 3.44813 9.40914 3.29102C9.40914 3.13619 9.4319 2.92443 9.53437 2.8197C9.63228 2.72179 9.81443 2.69902 9.9556 2.69674H10.0194C10.1651 2.69674 10.3586 2.71723 10.4611 2.8197C10.5635 2.92443 10.5863 3.13619 10.5863 3.29102C10.5863 3.44813 10.5635 3.65533 10.4611 3.76007C10.3586 3.86253 10.1651 3.8853 10.0194 3.8853H9.94649C9.80532 3.88075 9.63 3.8557 9.53437 3.76007ZM6.74057 11.3901L2.84019 11.3923L5.09207 5.93226L6.74057 11.3901ZM6.48328 12.8928C6.26469 13.1137 5.94137 13.2344 5.52924 13.2549C5.46549 13.2571 4.80746 13.2572 4.76192 13.2572C4.69589 13.2572 4.01964 13.2572 3.94678 13.2526C3.55742 13.2253 3.25231 13.1046 3.04283 12.8928C2.85157 12.7039 2.73545 12.4329 2.68763 12.0891L6.83848 12.0868C6.79294 12.4306 6.67454 12.7039 6.48328 12.8928ZM18 11.7384C18 11.7225 17.9932 11.7088 17.9909 11.6929C17.9863 11.661 17.9841 11.6291 17.9727 11.6018L15.3656 5.27878C15.6616 5.32432 15.9166 5.41767 16.0919 5.59072C16.1557 5.65675 16.2399 5.68863 16.3242 5.68863C16.413 5.68863 16.4995 5.6522 16.5655 5.58161C16.693 5.44044 16.6908 5.22186 16.5541 5.08752C16.2217 4.75509 15.7641 4.57066 15.1948 4.54333C15.1516 4.54106 11.8295 4.53878 10.3859 4.53878C10.6045 4.49096 10.7867 4.40216 10.9256 4.26099C11.1464 4.04013 11.2557 3.71453 11.2557 3.29102C11.2557 2.86751 11.1442 2.53963 10.9256 2.32105C10.7161 2.10702 10.411 2 10.0194 2H9.95105C9.57307 2.00455 9.27707 2.11157 9.06987 2.32105C8.85129 2.54191 8.73972 2.86751 8.73972 3.29102C8.73972 3.71681 8.85129 4.04013 9.06987 4.26099C9.20877 4.39989 9.39092 4.49096 9.61178 4.53878C8.16821 4.53878 4.84844 4.54106 4.8029 4.54333C4.23367 4.57066 3.77601 4.75281 3.44357 5.08752C3.30924 5.22186 3.30696 5.44044 3.43219 5.58161C3.49822 5.6522 3.58702 5.68863 3.67354 5.68863C3.75779 5.68863 3.83976 5.65675 3.90579 5.59072C4.07884 5.41767 4.33385 5.32432 4.63213 5.27878L2.02732 11.6018C2.01366 11.6291 2.01366 11.661 2.00911 11.6929C2.00683 11.7088 2 11.7225 2 11.7384V11.7407C2 12.4511 2.19582 13.009 2.58062 13.3983C2.90622 13.7239 3.35022 13.9106 3.90579 13.9493C3.96955 13.9539 4.69361 13.9562 4.7642 13.9562C4.81201 13.9562 5.51103 13.9562 5.55884 13.9539C6.14174 13.9266 6.61079 13.7376 6.94777 13.3983C7.32802 13.0158 7.52156 12.4716 7.52839 11.7749V11.7658C7.52839 11.7544 7.53067 11.7475 7.53067 11.7384C7.53067 11.7179 7.52384 11.702 7.52156 11.6838C7.51928 11.6656 7.52156 11.6496 7.51701 11.6337L5.58617 5.24007C6.39903 5.24007 7.70144 5.2378 8.73516 5.2378V15.5773H7.34624C6.73374 15.5773 6.24875 15.7549 5.90266 16.1033C5.54291 16.4653 5.35847 16.9868 5.35847 17.6516C5.35847 17.8452 5.50875 18 5.69318 18H14.3091C14.4935 18 14.6438 17.8452 14.6438 17.6516C14.6438 16.9868 14.4616 16.4653 14.1019 16.1033C13.7558 15.7549 13.2685 15.5773 12.656 15.5773H11.2671V5.2378C12.3008 5.2378 13.6032 5.24007 14.4161 5.24007L12.4875 11.6337C12.483 11.6496 12.4853 11.6656 12.483 11.6838C12.4807 11.702 12.4716 11.7179 12.4716 11.7384C12.4716 11.7475 12.4739 11.7567 12.4739 11.7658V11.7749C12.4807 12.4693 12.6743 13.0158 13.0545 13.3983C13.3938 13.7376 13.8605 13.9266 14.4434 13.9539C14.4935 13.9562 15.1903 13.9562 15.2404 13.9562C15.3087 13.9562 16.0327 13.9539 16.0988 13.9493C16.6521 13.9106 17.0983 13.7239 17.4217 13.3983C17.8042 13.009 18 12.4511 18 11.7384Z" fill="#86888C"/>
</svg>
