<svg width="40" height="40" viewBox="0 0 40 40" fill="none" xmlns="http://www.w3.org/2000/svg">
<path d="M23.6247 32.676C23.4914 32.5837 23.4248 32.4761 23.4248 32.3173C23.4299 32.1072 23.6042 31.9432 23.8091 31.9432C23.9116 31.9483 24.0039 31.979 24.091 32.0354C24.6906 32.4351 25.531 32.8348 26.5047 32.8348C27.96 32.8348 28.8517 32.0867 28.8517 30.9797C28.8517 30.0727 28.3444 29.4321 26.6789 29.222L26.2536 29.1708C24.4805 28.9453 23.6554 28.0895 23.6554 26.7725C23.6554 25.1993 24.7777 24.2256 26.4944 24.2256C27.4527 24.2256 28.2675 24.4767 28.8261 24.8252C29.0003 24.9328 29.0772 25.066 29.0772 25.1993C29.0772 25.3991 28.9183 25.558 28.7185 25.558C28.6262 25.5528 28.534 25.5221 28.452 25.476C27.837 25.1429 27.1965 24.943 26.4637 24.943C25.1415 24.943 24.4138 25.6758 24.4138 26.7007C24.4138 27.6334 24.9878 28.233 26.5457 28.4328L26.9607 28.4841C28.7595 28.7096 29.6153 29.5654 29.6153 30.9234C29.6153 32.4556 28.5237 33.5471 26.4175 33.5471C25.4131 33.5471 24.4446 33.2397 23.6247 32.676Z" fill="#86888C"/>
<path d="M26.4113 33.7881C25.3659 33.7779 24.3513 33.4602 23.4955 32.8657C23.2956 32.7274 23.1982 32.548 23.1982 32.3174C23.2034 31.9792 23.475 31.7127 23.8132 31.7127C23.9618 31.7178 24.1002 31.7639 24.2232 31.8459C24.9816 32.3533 25.7503 32.6095 26.5036 32.6095C27.8103 32.6095 28.62 31.9894 28.62 30.985C28.62 30.3547 28.3843 29.6782 26.6471 29.4528L26.2217 29.4015C23.9054 29.1043 23.4186 27.8078 23.4186 26.7726C23.4186 25.0866 24.6229 23.9951 26.4882 23.9951C27.4106 23.9951 28.2818 24.2206 28.9429 24.6306C29.1786 24.774 29.3067 24.979 29.3067 25.1994C29.3067 25.5222 29.0454 25.7887 28.7174 25.7887C28.5893 25.7836 28.4612 25.7477 28.3484 25.6862L28.3433 25.6811C27.7079 25.3378 27.1134 25.1738 26.4677 25.1738C25.3454 25.1738 24.6485 25.758 24.6485 26.7009C24.6485 27.2851 24.8688 27.9871 26.5804 28.2075L26.9955 28.2587C28.2972 28.4227 29.8499 29.0172 29.8499 30.9286C29.8397 32.6915 28.5227 33.7881 26.4113 33.7881ZM23.8132 32.1739C23.7312 32.1739 23.6646 32.2354 23.6595 32.3174C23.6595 32.384 23.6748 32.4301 23.7619 32.4865C24.1207 32.7376 25.0995 33.3218 26.4165 33.3218C28.2767 33.3218 29.3836 32.425 29.3836 30.9286C29.3836 29.6475 28.5842 28.9249 26.934 28.72L26.519 28.6687C24.9508 28.4689 24.1873 27.8232 24.1873 26.706C24.1873 25.4966 25.0841 24.7177 26.4677 24.7177C27.18 24.7177 27.8667 24.9022 28.5585 25.2763C28.6098 25.3019 28.661 25.3224 28.7174 25.3275C28.7891 25.3275 28.8455 25.2711 28.8455 25.1994C28.8455 25.143 28.7943 25.0764 28.702 25.02C28.1127 24.6562 27.3286 24.4563 26.4882 24.4563C24.8791 24.4563 23.8798 25.3429 23.8798 26.7726C23.8798 28.0076 24.6844 28.7405 26.2781 28.9454L26.7034 28.9967C28.3228 29.2017 29.0761 29.8371 29.0761 30.985C29.0761 32.2508 28.0666 33.0707 26.4985 33.0707C25.6478 33.0707 24.792 32.7889 23.9567 32.2303C23.9208 32.1944 23.8644 32.179 23.8132 32.1739Z" fill="#86888C"/>
<path d="M26.4729 34.9521C26.1911 34.9521 25.9605 34.7215 25.9605 34.4397V23.345C25.9605 23.0632 26.1911 22.8326 26.4729 22.8326C26.7548 22.8326 26.9854 23.0632 26.9854 23.345V34.4397C26.9854 34.7215 26.7548 34.9521 26.4729 34.9521ZM14.01 34.9521C13.7282 34.9521 13.4976 34.7215 13.4976 34.4397V13.0242C13.4976 12.7423 13.7282 12.5117 14.01 12.5117C14.2919 12.5117 14.5225 12.7423 14.5225 13.0242V34.4397C14.5225 34.7215 14.2919 34.9521 14.01 34.9521ZM19.0577 34.9778C18.7759 34.9778 18.5452 34.7472 18.5452 34.4653V21.0441C18.5452 20.7623 18.7759 20.5316 19.0577 20.5316C19.3396 20.5316 19.5702 20.7623 19.5702 21.0441V34.4653C19.5702 34.7472 19.3396 34.9778 19.0577 34.9778Z" fill="#86888C"/>
<path d="M32.4954 39H9.51174C8.72256 39 8 38.2774 8 37.4883V4.51174C8 3.74819 8.74819 3 9.51174 3H23.5018C23.6401 3 23.7683 3.05637 23.8656 3.14861L33.8585 13.1415C33.9559 13.2389 34.0071 13.367 34.0071 13.5053V37.4883C34.0071 38.2928 33.2999 39 32.4954 39ZM9.51174 4.02491C9.31701 4.02491 9.02491 4.31701 9.02491 4.51174V37.4883C9.02491 37.7086 9.29139 37.9751 9.51174 37.9751H32.4954C32.7311 37.9751 32.9822 37.724 32.9822 37.4883V13.7154L23.2865 4.02491H9.51174Z" fill="#86888C"/>
<path d="M33.4951 14.0178H28.4986C26.8895 14.0178 25.511 13.49 24.5117 12.4958C23.5124 11.5016 22.9897 10.1231 22.9897 8.5089V3.51246C22.9897 3.2306 23.2204 3 23.5022 3C23.7841 3 24.0147 3.2306 24.0147 3.51246V8.5089C24.0147 11.23 25.7775 12.9929 28.4986 12.9929H33.4951C33.7769 12.9929 34.0075 13.2235 34.0075 13.5053C34.0075 13.7872 33.7769 14.0178 33.4951 14.0178Z" fill="#86888C"/>
</svg>
