<svg width="28" height="28" viewBox="0 0 28 28" fill="none" xmlns="http://www.w3.org/2000/svg">
<path d="M16.4164 21.784C16.3276 21.7225 16.2832 21.6507 16.2832 21.5448C16.2866 21.4048 16.4028 21.2954 16.5394 21.2954C16.6078 21.2989 16.6693 21.3194 16.7273 21.3569C17.127 21.6234 17.6873 21.8899 18.3364 21.8899C19.3067 21.8899 19.9011 21.3911 19.9011 20.6532C19.9011 20.0485 19.5629 19.6214 18.4526 19.4814L18.169 19.4472C16.987 19.2969 16.4369 18.7263 16.4369 17.8483C16.4369 16.7995 17.1851 16.1504 18.3296 16.1504C18.9685 16.1504 19.5117 16.3178 19.8841 16.5501C20.0002 16.6218 20.0515 16.7107 20.0515 16.7995C20.0515 16.9327 19.9456 17.0386 19.8123 17.0386C19.7508 17.0352 19.6893 17.0147 19.6347 16.984C19.2247 16.7619 18.7977 16.6287 18.3091 16.6287C17.4277 16.6287 16.9426 17.1172 16.9426 17.8005C16.9426 18.4223 17.3252 18.822 18.3638 18.9552L18.6405 18.9894C19.8396 19.1397 20.4102 19.7102 20.4102 20.6156C20.4102 21.6371 19.6825 22.3648 18.2784 22.3648C17.6088 22.3648 16.9631 22.1598 16.4164 21.784Z" fill="#86888C"/>
<path d="M18.2744 22.5248C17.5774 22.5179 16.901 22.3061 16.3305 21.9098C16.1972 21.8176 16.1323 21.698 16.1323 21.5443C16.1357 21.3188 16.3168 21.1411 16.5423 21.1411C16.6414 21.1446 16.7336 21.1753 16.8156 21.23C17.3212 21.5682 17.8337 21.739 18.3359 21.739C19.2071 21.739 19.7468 21.3256 19.7468 20.656C19.7468 20.2358 19.5897 19.7848 18.4315 19.6345L18.148 19.6004C16.6038 19.4022 16.2792 18.5379 16.2792 17.8478C16.2792 16.7238 17.0821 15.9961 18.3256 15.9961C18.9406 15.9961 19.5214 16.1464 19.9621 16.4197C20.1192 16.5154 20.2046 16.652 20.2046 16.7989C20.2046 17.0142 20.0304 17.1918 19.8118 17.1918C19.7263 17.1884 19.6409 17.1645 19.5658 17.1235L19.5624 17.1201C19.1387 16.8912 18.7424 16.7819 18.312 16.7819C17.5638 16.7819 17.0992 17.1713 17.0992 17.7999C17.0992 18.1894 17.2461 18.6574 18.3871 18.8043L18.6639 18.8385C19.5316 18.9478 20.5668 19.3441 20.5668 20.6184C20.5599 21.7937 19.6819 22.5248 18.2744 22.5248ZM16.5423 21.4486C16.4876 21.4486 16.4432 21.4896 16.4398 21.5443C16.4398 21.5887 16.45 21.6194 16.5081 21.657C16.7473 21.8244 17.3998 22.2139 18.2778 22.2139C19.5179 22.2139 20.2559 21.616 20.2559 20.6184C20.2559 19.7643 19.7229 19.2826 18.6229 19.146L18.3461 19.1118C17.3007 18.9786 16.7917 18.5481 16.7917 17.8034C16.7917 16.9971 17.3895 16.4778 18.312 16.4778C18.7868 16.4778 19.2446 16.6008 19.7058 16.8502C19.74 16.8673 19.7742 16.8809 19.8118 16.8844C19.8596 16.8844 19.8972 16.8468 19.8972 16.7989C19.8972 16.7614 19.863 16.7169 19.8015 16.6794C19.4086 16.4368 18.8859 16.3036 18.3256 16.3036C17.2529 16.3036 16.5867 16.8946 16.5867 17.8478C16.5867 18.6711 17.1231 19.1597 18.1856 19.2963L18.4691 19.3305C19.5487 19.4671 20.0509 19.8908 20.0509 20.656C20.0509 21.4999 19.3779 22.0465 18.3325 22.0465C17.7653 22.0465 17.1948 21.8586 16.6379 21.4862C16.614 21.4623 16.5765 21.452 16.5423 21.4486Z" fill="#86888C"/>
<path d="M18.3153 23.3021C18.1274 23.3021 17.9737 23.1483 17.9737 22.9604V15.564C17.9737 15.3761 18.1274 15.2224 18.3153 15.2224C18.5032 15.2224 18.6569 15.3761 18.6569 15.564V22.9604C18.6569 23.1483 18.5032 23.3021 18.3153 23.3021ZM10.0067 23.3021C9.81878 23.3021 9.66504 23.1483 9.66504 22.9604V8.68343C9.66504 8.49553 9.81878 8.3418 10.0067 8.3418C10.1946 8.3418 10.3483 8.49553 10.3483 8.68343V22.9604C10.3483 23.1483 10.1946 23.3021 10.0067 23.3021ZM13.3718 23.3192C13.1839 23.3192 13.0302 23.1654 13.0302 22.9775V14.0301C13.0302 13.8422 13.1839 13.6884 13.3718 13.6884C13.5597 13.6884 13.7134 13.8422 13.7134 14.0301V22.9775C13.7134 23.1654 13.5597 23.3192 13.3718 23.3192Z" fill="#86888C"/>
<path d="M22.3302 26H7.00783C6.48171 26 6 25.5183 6 24.9922V3.00783C6 2.49879 6.49879 2 7.00783 2H16.3345C16.4268 2 16.5122 2.03758 16.5771 2.09907L23.239 8.761C23.3039 8.82591 23.3381 8.91132 23.3381 9.00356V24.9922C23.3381 25.5285 22.8666 26 22.3302 26ZM7.00783 2.68327C6.87801 2.68327 6.68327 2.87801 6.68327 3.00783V24.9922C6.68327 25.1391 6.86093 25.3167 7.00783 25.3167H22.3302C22.4874 25.3167 22.6548 25.1493 22.6548 24.9922V9.14363L16.191 2.68327H7.00783Z" fill="#86888C"/>
<path d="M22.9967 9.3452H19.6658C18.593 9.3452 17.674 8.99331 17.0078 8.33053C16.3416 7.66776 15.9932 6.74875 15.9932 5.6726V2.34164C15.9932 2.15374 16.1469 2 16.3348 2C16.5227 2 16.6764 2.15374 16.6764 2.34164V5.6726C16.6764 7.48669 17.8517 8.66192 19.6658 8.66192H22.9967C23.1846 8.66192 23.3384 8.81566 23.3384 9.00356C23.3384 9.19146 23.1846 9.3452 22.9967 9.3452Z" fill="#86888C"/>
</svg>
