<svg width="24" height="24" viewBox="0 0 24 24" fill="none" xmlns="http://www.w3.org/2000/svg">
<path d="M13.6804 18.4867C13.6063 18.4354 13.5693 18.3756 13.5693 18.2874C13.5722 18.1706 13.669 18.0795 13.7829 18.0795C13.8398 18.0824 13.891 18.0995 13.9394 18.1308C14.2725 18.3528 14.7394 18.5749 15.2804 18.5749C16.0889 18.5749 16.5843 18.1593 16.5843 17.5443C16.5843 17.0404 16.3024 16.6845 15.3772 16.5678L15.1409 16.5393C14.1558 16.4141 13.6974 15.9386 13.6974 15.2069C13.6974 14.3329 14.3209 13.792 15.2747 13.792C15.8071 13.792 16.2597 13.9315 16.57 14.1251C16.6668 14.1849 16.7095 14.2589 16.7095 14.3329C16.7095 14.4439 16.6213 14.5322 16.5103 14.5322C16.459 14.5294 16.4078 14.5123 16.3622 14.4867C16.0206 14.3016 15.6647 14.1906 15.2576 14.1906C14.5231 14.1906 14.1188 14.5977 14.1188 15.1671C14.1188 15.6852 14.4377 16.0183 15.3031 16.1294L15.5337 16.1578C16.533 16.2831 17.0085 16.7585 17.0085 17.513C17.0085 18.3642 16.4021 18.9706 15.232 18.9706C14.674 18.9706 14.1359 18.7998 13.6804 18.4867Z" fill="#86888C"/>
<path d="M15.2284 19.1046C14.6476 19.0989 14.0839 18.9224 13.6085 18.5922C13.4975 18.5153 13.4434 18.4157 13.4434 18.2875C13.4462 18.0996 13.5971 17.9516 13.785 17.9516C13.8676 17.9545 13.9444 17.9801 14.0128 18.0256C14.4341 18.3075 14.8612 18.4498 15.2797 18.4498C16.0056 18.4498 16.4555 18.1053 16.4555 17.5473C16.4555 17.1972 16.3245 16.8214 15.3594 16.6961L15.1231 16.6676C13.8362 16.5025 13.5658 15.7822 13.5658 15.2071C13.5658 14.2705 14.2348 13.6641 15.2711 13.6641C15.7836 13.6641 16.2676 13.7893 16.6348 14.0171C16.7658 14.0968 16.837 14.2107 16.837 14.3331C16.837 14.5125 16.6918 14.6605 16.5096 14.6605C16.4384 14.6577 16.3672 14.6377 16.3046 14.6036L16.3017 14.6007C15.9487 14.41 15.6184 14.3189 15.2597 14.3189C14.6362 14.3189 14.2491 14.6434 14.2491 15.1673C14.2491 15.4918 14.3715 15.8819 15.3224 16.0043L15.553 16.0327C16.2761 16.1238 17.1387 16.4541 17.1387 17.516C17.133 18.4954 16.4014 19.1046 15.2284 19.1046ZM13.785 18.2078C13.7394 18.2078 13.7024 18.242 13.6996 18.2875C13.6996 18.3246 13.7081 18.3502 13.7565 18.3815C13.9558 18.521 14.4996 18.8456 15.2313 18.8456C16.2647 18.8456 16.8797 18.3473 16.8797 17.516C16.8797 16.8043 16.4355 16.4029 15.5188 16.289L15.2882 16.2605C14.417 16.1495 13.9928 15.7908 13.9928 15.1701C13.9928 14.4982 14.491 14.0655 15.2597 14.0655C15.6555 14.0655 16.037 14.168 16.4213 14.3758C16.4498 14.39 16.4782 14.4014 16.5096 14.4043C16.5494 14.4043 16.5807 14.373 16.5807 14.3331C16.5807 14.3018 16.5523 14.2648 16.501 14.2335C16.1736 14.0313 15.738 13.9203 15.2711 13.9203C14.3772 13.9203 13.822 14.4128 13.822 15.2071C13.822 15.8932 14.269 16.3004 15.1544 16.4142L15.3907 16.4427C16.2903 16.5566 16.7088 16.9096 16.7088 17.5473C16.7088 18.2505 16.148 18.7061 15.2768 18.7061C14.8042 18.7061 14.3288 18.5495 13.8647 18.2392C13.8448 18.2192 13.8135 18.2107 13.785 18.2078Z" fill="#86888C"/>
<path d="M15.2627 19.7511C15.1062 19.7511 14.978 19.623 14.978 19.4664V13.3027C14.978 13.1461 15.1062 13.018 15.2627 13.018C15.4193 13.018 15.5474 13.1461 15.5474 13.3027V19.4664C15.5474 19.623 15.4193 19.7511 15.2627 19.7511ZM8.3389 19.7511C8.18231 19.7511 8.0542 19.623 8.0542 19.4664V7.56888C8.0542 7.41229 8.18231 7.28418 8.3389 7.28418C8.49548 7.28418 8.62359 7.41229 8.62359 7.56888V19.4664C8.62359 19.623 8.49548 19.7511 8.3389 19.7511ZM11.1432 19.7653C10.9866 19.7653 10.8585 19.6372 10.8585 19.4806V12.0244C10.8585 11.8678 10.9866 11.7397 11.1432 11.7397C11.2998 11.7397 11.4279 11.8678 11.4279 12.0244V19.4806C11.4279 19.6372 11.2998 19.7653 11.1432 19.7653Z" fill="#86888C"/>
<path d="M18.6085 22H5.83986C5.40142 22 5 21.5986 5 21.1601V2.83986C5 2.41566 5.41566 2 5.83986 2H13.6121C13.689 2 13.7601 2.03132 13.8142 2.08256L19.3658 7.63416C19.4199 7.68826 19.4484 7.75943 19.4484 7.8363V21.1601C19.4484 21.6071 19.0555 22 18.6085 22ZM5.83986 2.5694C5.73167 2.5694 5.5694 2.73167 5.5694 2.83986V21.1601C5.5694 21.2826 5.71744 21.4306 5.83986 21.4306H18.6085C18.7395 21.4306 18.879 21.2911 18.879 21.1601V7.95302L13.4925 2.5694H5.83986Z" fill="#86888C"/>
<path d="M19.1639 8.121H16.3881C15.4942 8.121 14.7283 7.82776 14.1732 7.27544C13.618 6.72313 13.3276 5.9573 13.3276 5.0605V2.2847C13.3276 2.12811 13.4558 2 13.6123 2C13.7689 2 13.897 2.12811 13.897 2.2847V5.0605C13.897 6.57224 14.8764 7.5516 16.3881 7.5516H19.1639C19.3205 7.5516 19.4486 7.67972 19.4486 7.8363C19.4486 7.99288 19.3205 8.121 19.1639 8.121Z" fill="#86888C"/>
</svg>
