<svg width="40" height="40" viewBox="0 0 40 40" fill="none" xmlns="http://www.w3.org/2000/svg">
<path fill-rule="evenodd" clip-rule="evenodd" d="M30.444 15.836C29.9214 15.836 29.4347 15.8001 28.9788 15.7284L31.3457 12.9823C31.6018 12.7108 31.7607 12.3471 31.7607 11.9423C31.7607 11.1072 31.0946 10.431 30.2647 10.431H30.2493L24.4601 10.4566C24.4447 10.2312 24.4294 10.0109 24.4294 9.77521C24.4294 5.69715 26.3967 3.71447 30.4491 3.71447C34.5016 3.71447 36.474 5.69715 36.474 9.77521C36.474 13.8584 34.5016 15.836 30.444 15.836ZM19.6904 24.1919L11.7443 15.7796H26.9346L26.9141 15.8103L19.6904 24.1919ZM15.7097 36.6566L19.7314 34.7969L24.0964 36.6413C24.0912 36.6464 15.7097 36.6566 15.7097 36.6566ZM30.2544 11.9423L28.2513 14.2631H10.8221C10.6838 14.2683 10.5506 14.3092 10.4328 14.3861L8.21956 12.0397C8.21956 12.0448 30.2544 11.9423 30.2544 11.9423ZM30.444 2.20312C25.5923 2.20312 22.9231 4.8928 22.9231 9.78034C22.9231 10.0211 22.9436 10.2414 22.9539 10.4668L13.0661 10.513C13.0405 10.4771 13.0251 10.4361 12.9944 10.4002L9.12637 6.51173C8.6909 6.07114 8.09661 5.8201 7.4767 5.8201H2.75311C2.33813 5.8201 2 6.15823 2 6.57321C2 6.99332 2.33813 7.33145 2.75311 7.33145H7.48695C7.70724 7.33145 7.91729 7.41854 8.07099 7.57736L10.9963 10.5181L8.21444 10.5334C7.61503 10.5334 7.07197 10.8972 6.84142 11.4505C6.60576 12.0038 6.72359 12.6493 7.13344 13.0848L18.6043 25.2268C18.7068 25.3395 18.84 25.4112 18.968 25.4829V33.4803L11.9544 36.7284C11.5753 36.9077 11.4113 37.3585 11.5906 37.7376C11.7136 37.9989 11.98 38.168 12.2669 38.1731L27.8056 38.1424C28.1898 38.3063 28.6355 38.127 28.7995 37.7428C28.9634 37.3585 28.7841 36.9128 28.3998 36.7489C28.3025 36.7079 28.2 36.6874 28.0976 36.6874L20.4691 33.4649V25.4522C20.5972 25.3754 20.7253 25.2985 20.8278 25.1807L27.8722 17.0143C28.656 17.2141 29.5065 17.3422 30.4491 17.3422C35.3008 17.3422 37.9751 14.6525 37.9751 9.77521C37.9751 4.89793 35.3008 2.20312 30.444 2.20312Z" fill="#86888C"/>
</svg>
