<svg width="28" height="28" viewBox="0 0 28 28" fill="none" xmlns="http://www.w3.org/2000/svg">
<path fill-rule="evenodd" clip-rule="evenodd" d="M20.9627 11.2917C20.6143 11.2917 20.2898 11.2678 19.9858 11.22L21.5638 9.38927C21.7346 9.20825 21.8404 8.96575 21.8404 8.69593C21.8404 8.13921 21.3964 7.68836 20.8431 7.68836H20.8329L16.9734 7.70544C16.9632 7.55516 16.9529 7.4083 16.9529 7.25118C16.9529 4.53247 18.2645 3.21069 20.9661 3.21069C23.6677 3.21069 24.9827 4.53247 24.9827 7.25118C24.9827 9.97331 23.6677 11.2917 20.9627 11.2917ZM13.7936 16.8623L8.49622 11.2541H18.6231L18.6094 11.2746L13.7936 16.8623ZM11.1398 25.1721L13.8209 23.9323L16.7309 25.1619C16.7275 25.1653 11.1398 25.1721 11.1398 25.1721ZM20.8363 8.69593L19.5008 10.2431H7.88143C7.78922 10.2465 7.70041 10.2739 7.62186 10.3251L6.14638 8.76082C6.14638 8.76424 20.8363 8.69593 20.8363 8.69593ZM20.9627 2.20312C17.7282 2.20312 15.9488 3.99624 15.9488 7.2546C15.9488 7.41513 15.9624 7.56199 15.9693 7.71227L9.37741 7.74301C9.36033 7.7191 9.35008 7.69178 9.32959 7.66787L6.75091 5.07553C6.4606 4.7818 6.0644 4.61444 5.65113 4.61444H2.50207C2.22542 4.61444 2 4.83986 2 5.11652C2 5.39659 2.22542 5.62201 2.50207 5.62201H5.65796C5.80483 5.62201 5.94486 5.68007 6.04733 5.78595L7.99756 7.74643L6.14296 7.75667C5.74335 7.75667 5.38131 7.99917 5.22762 8.36804C5.0705 8.73691 5.14906 9.16726 5.4223 9.45757L13.0695 17.5522C13.1378 17.6274 13.2266 17.6752 13.312 17.723V23.0545L8.63625 25.22C8.38351 25.3395 8.27421 25.6401 8.39375 25.8928C8.47572 26.067 8.65333 26.1797 8.84459 26.1831L19.2037 26.1626C19.4599 26.2719 19.757 26.1524 19.8663 25.8962C19.9756 25.6401 19.8561 25.3429 19.5999 25.2336C19.535 25.2063 19.4667 25.1926 19.3984 25.1926L14.3128 23.0443V17.7025C14.3981 17.6513 14.4835 17.6 14.5518 17.5215L19.2481 12.0772C19.7707 12.2104 20.3376 12.2958 20.9661 12.2958C24.2005 12.2958 25.9834 10.5027 25.9834 7.25118C25.9834 3.99966 24.2005 2.20312 20.9627 2.20312Z" fill="#86888C"/>
</svg>
