<svg width="20" height="20" viewBox="0 0 20 20" fill="none" xmlns="http://www.w3.org/2000/svg">
<path fill-rule="evenodd" clip-rule="evenodd" d="M14.6418 8.26216C14.4095 8.26216 14.1932 8.24622 13.9906 8.21434L15.0425 6.99389C15.1564 6.87321 15.227 6.71154 15.227 6.53166C15.227 6.16051 14.931 5.85995 14.5621 5.85995H14.5553L11.9823 5.87134C11.9754 5.77115 11.9686 5.67324 11.9686 5.5685C11.9686 3.75602 12.843 2.87483 14.6441 2.87483C16.4451 2.87483 17.3218 3.75602 17.3218 5.5685C17.3218 7.38325 16.4451 8.26216 14.6418 8.26216ZM9.8624 11.9759L6.33081 8.23711H13.082L13.0729 8.25078L9.8624 11.9759ZM8.09319 17.5158L9.88062 16.6893L11.8206 17.509C11.8183 17.5112 8.09319 17.5158 8.09319 17.5158ZM14.5575 6.53166L13.6672 7.56313H5.92095C5.85948 7.56541 5.80027 7.58362 5.7479 7.61778L4.76425 6.57492C4.76425 6.5772 14.5575 6.53166 14.5575 6.53166ZM14.6418 2.20312C12.4855 2.20312 11.2992 3.39854 11.2992 5.57077C11.2992 5.67779 11.3083 5.7757 11.3128 5.87589L6.91827 5.89638C6.90689 5.88044 6.90005 5.86223 6.88639 5.84629L5.16728 4.11806C4.97373 3.92224 4.7096 3.81067 4.43409 3.81067H2.33472C2.15028 3.81067 2 3.96095 2 4.14539C2 4.3321 2.15028 4.48238 2.33472 4.48238H4.43864C4.53655 4.48238 4.62991 4.52109 4.69822 4.59167L5.99837 5.89866L4.76197 5.90549C4.49557 5.90549 4.25421 6.06716 4.15174 6.31307C4.047 6.55898 4.09937 6.84588 4.28153 7.03942L9.37968 12.4359C9.42522 12.486 9.48442 12.5178 9.54135 12.5497V16.1041L6.42417 17.5477C6.25567 17.6274 6.18281 17.8277 6.2625 17.9962C6.31715 18.1124 6.43555 18.1875 6.56306 18.1898L13.4691 18.1761C13.6399 18.249 13.838 18.1693 13.9109 17.9985C13.9837 17.8277 13.904 17.6296 13.7333 17.5568C13.69 17.5386 13.6445 17.5295 13.5989 17.5295L10.2085 16.0972V12.536C10.2654 12.5019 10.3224 12.4677 10.3679 12.4154L13.4987 8.78587C13.8471 8.87467 14.2251 8.93159 14.6441 8.93159C16.8004 8.93159 17.9889 7.73618 17.9889 5.5685C17.9889 3.40082 16.8004 2.20312 14.6418 2.20312Z" fill="#86888C"/>
</svg>
