<svg width="24" height="24" viewBox="0 0 24 24" fill="none" xmlns="http://www.w3.org/2000/svg">
<path fill-rule="evenodd" clip-rule="evenodd" d="M17.8022 9.77692C17.5119 9.77692 17.2415 9.757 16.9882 9.71715L18.3032 8.19158C18.4455 8.04073 18.5337 7.83864 18.5337 7.61379C18.5337 7.14986 18.1637 6.77416 17.7026 6.77416H17.6941L14.4778 6.78839C14.4693 6.66315 14.4608 6.54077 14.4608 6.40984C14.4608 4.14425 15.5537 3.04276 17.8051 3.04276C20.0564 3.04276 21.1522 4.14425 21.1522 6.40984C21.1522 8.67828 20.0564 9.77692 17.8022 9.77692ZM11.828 14.4191L7.41351 9.74561H15.8526L15.8412 9.76269L11.828 14.4191ZM9.61649 21.344L11.8508 20.3108L14.2758 21.3354C14.2729 21.3383 9.61649 21.344 9.61649 21.344ZM17.6969 7.61379L16.584 8.90313H6.90119C6.82435 8.90598 6.75034 8.92875 6.68488 8.97144L5.45531 7.66787C5.45531 7.67072 17.6969 7.61379 17.6969 7.61379ZM17.8022 2.20312C15.1069 2.20312 13.624 3.69739 13.624 6.41269C13.624 6.54646 13.6354 6.66885 13.641 6.79408L8.14784 6.8197C8.13361 6.79977 8.12507 6.777 8.10799 6.75708L5.95909 4.5968C5.71716 4.35202 5.387 4.21256 5.04261 4.21256H2.41839C2.18785 4.21256 2 4.40041 2 4.63095C2 4.86434 2.18785 5.05219 2.41839 5.05219H5.0483C5.17069 5.05219 5.28739 5.10058 5.37277 5.18881L6.99796 6.82254L5.45247 6.83108C5.11946 6.83108 4.81776 7.03316 4.68968 7.34056C4.55875 7.64795 4.62422 8.00657 4.85191 8.2485L11.2246 14.994C11.2815 15.0567 11.3555 15.0965 11.4267 15.1364V19.5793L7.53021 21.3838C7.31959 21.4834 7.22851 21.7339 7.32813 21.9445C7.39644 22.0897 7.54444 22.1836 7.70383 22.1864L16.3364 22.1694C16.5499 22.2604 16.7975 22.1608 16.8886 21.9474C16.9797 21.7339 16.88 21.4863 16.6666 21.3952C16.6125 21.3724 16.5556 21.361 16.4987 21.361L12.2606 19.5708V15.1193C12.3318 15.0766 12.4029 15.0339 12.4599 14.9684L16.3734 10.4316C16.8089 10.5426 17.2814 10.6137 17.8051 10.6137C20.5004 10.6137 21.9862 9.11944 21.9862 6.40984C21.9862 3.70024 20.5004 2.20312 17.8022 2.20312Z" fill="#86888C"/>
</svg>
