<svg width="24" height="24" viewBox="0 0 24 24" fill="none" xmlns="http://www.w3.org/2000/svg">
<path fill-rule="evenodd" clip-rule="evenodd" d="M16.3845 20.6139C16.2251 20.4147 15.9889 20.2809 15.7128 20.2809C15.4168 20.2809 15.1664 20.4375 15.0098 20.6623H8.89626C8.73687 20.4375 8.48925 20.2809 8.19325 20.2809C7.92287 20.2809 7.68948 20.4118 7.53294 20.6025C5.61178 20.2923 3.60239 18.744 3.60239 16.8712V14.1901H20.4061L20.409 16.8712C20.4033 18.7724 18.3313 20.3378 16.3845 20.6139ZM3.4117 12.2206H20.5883C20.9042 12.2206 21.1604 12.4767 21.1604 12.787C21.1604 13.0972 20.9042 13.3562 20.5883 13.3562H3.4117C3.09577 13.3562 2.83962 13.1 2.83962 12.787C2.83962 12.4739 3.09862 12.2206 3.4117 12.2206ZM13.729 11.0963C13.9112 10.9398 14.2641 10.9455 14.3723 10.9626C14.4804 10.9797 14.6028 10.9512 14.6939 10.88C14.785 10.8089 14.8447 10.7064 14.8561 10.5926C14.8789 10.3478 14.9586 10.1799 15.0952 10.0831C15.3286 9.91518 15.7185 9.96072 15.8466 9.99203C15.9917 10.0262 16.1426 9.98634 16.2479 9.88103C16.5154 9.61349 16.7801 9.49395 17.0306 9.51672C17.449 9.55088 17.8275 9.95503 17.9385 10.1059C18.0239 10.2311 18.1719 10.2937 18.3256 10.2795C18.8464 10.2283 19.2449 10.3165 19.5068 10.547C19.8141 10.8231 19.8739 11.2387 19.8881 11.3867H13.5981C13.6209 11.1988 13.6977 11.122 13.729 11.0963ZM10.5271 6.28917L8.4551 6.32048V6.28917C8.4551 5.72278 8.91903 5.2617 9.49111 5.2617C10.0632 5.2617 10.5271 5.72278 10.5271 6.28917ZM22.0028 12.787C22.0028 12.0612 21.4422 11.4692 20.7278 11.4009C20.7192 11.196 20.6481 10.4531 20.076 9.93511C19.6747 9.57365 19.1339 9.40003 18.4651 9.43134C18.2288 9.17234 17.7393 8.73687 17.1017 8.6828C16.6464 8.63726 16.2137 8.79664 15.8096 9.14103C15.5193 9.10972 15.0212 9.10972 14.6085 9.40003C14.4264 9.52811 14.21 9.75011 14.0905 10.1258C13.8201 10.1429 13.4672 10.2197 13.1797 10.4616C12.9976 10.6182 12.7898 10.9113 12.7557 11.3867H4.86893V4.92017C4.86893 3.77316 5.81101 2.83677 6.9694 2.83677C7.96841 2.83677 8.81656 3.54831 9.01864 4.49324C8.21318 4.70101 7.61548 5.42394 7.61548 6.28632V6.4884C7.61548 6.85271 7.91718 7.15156 8.28433 7.15156H10.6979C11.0679 7.15156 11.3667 6.85271 11.3667 6.4884V6.28632C11.3667 5.38694 10.7206 4.6327 9.86111 4.46193C9.63626 3.06731 8.41525 2 6.9694 2C5.34709 2 4.02932 3.30639 4.02932 4.91447V11.381H3.4117C2.63185 11.381 2 12.0071 2 12.7813C2 13.3249 2.31308 13.7888 2.76846 14.0222C2.76562 14.0393 2.75708 14.0564 2.75708 14.0734V16.8627C2.75708 19.1823 5.08524 21.0352 7.3764 21.4137C7.4931 21.7524 7.80902 22 8.19041 22C8.54333 22 8.84503 21.7894 8.98164 21.4877H14.9216C15.0582 21.7865 15.3599 22 15.7128 22C16.0885 22 16.4044 21.7581 16.5268 21.4279C18.8493 21.0864 21.2458 19.2165 21.2458 16.8598L21.2429 14.0137C21.6898 13.7917 22.0028 13.3277 22.0028 12.787Z" fill="#86888C"/>
</svg>
