<svg width="40" height="40" viewBox="0 0 40 40" fill="none" xmlns="http://www.w3.org/2000/svg">
<path fill-rule="evenodd" clip-rule="evenodd" d="M27.8921 35.5051C27.6052 35.1464 27.18 34.9057 26.6831 34.9057C26.1503 34.9057 25.6994 35.1874 25.4177 35.5921H14.4133C14.1264 35.1874 13.6807 34.9057 13.1479 34.9057C12.6612 34.9057 12.2411 35.1413 11.9593 35.4846C8.50121 34.9261 4.8843 32.1392 4.8843 28.7682V23.9422H35.1311L35.1362 28.7682C35.1259 32.1904 31.3963 35.0081 27.8921 35.5051ZM4.54106 20.397H35.4589C36.0276 20.397 36.4887 20.8581 36.4887 21.4165C36.4887 21.975 36.0276 22.4412 35.4589 22.4412H4.54106C3.97239 22.4412 3.51131 21.9801 3.51131 21.4165C3.51131 20.853 3.97752 20.397 4.54106 20.397ZM23.1123 18.3734C23.4402 18.0916 24.0754 18.1019 24.2701 18.1326C24.4648 18.1634 24.6851 18.1121 24.849 17.9841C25.0129 17.856 25.1205 17.6716 25.141 17.4666C25.182 17.026 25.3255 16.7238 25.5714 16.5496C25.9915 16.2473 26.6933 16.3293 26.9239 16.3857C27.1851 16.4471 27.4567 16.3754 27.6462 16.1859C28.1278 15.7043 28.6042 15.4891 29.0551 15.5301C29.8082 15.5916 30.4895 16.3191 30.6893 16.5906C30.843 16.816 31.1094 16.9287 31.3861 16.9031C32.3236 16.8109 33.0408 16.9697 33.5122 17.3847C34.0655 17.8816 34.173 18.6296 34.1987 18.896H22.8766C22.9176 18.5578 23.0559 18.4195 23.1123 18.3734ZM17.3488 9.72051L13.6192 9.77686V9.72051C13.6192 8.70101 14.4542 7.87107 15.484 7.87107C16.5137 7.87107 17.3488 8.70101 17.3488 9.72051ZM38.0051 21.4165C38.0051 20.1101 36.9959 19.0445 35.71 18.9216C35.6946 18.5527 35.5665 17.2156 34.5368 16.2832C33.8144 15.6326 32.841 15.3201 31.6371 15.3764C31.2119 14.9102 30.3307 14.1264 29.1831 14.029C28.3635 13.9471 27.5847 14.234 26.8573 14.8538C26.3347 14.7975 25.4382 14.7975 24.6953 15.3201C24.3674 15.5506 23.9781 15.9502 23.7629 16.6264C23.2762 16.6572 22.641 16.7955 22.1235 17.231C21.7956 17.5127 21.4217 18.0404 21.3602 18.896H7.16408V7.2563C7.16408 5.19169 8.85983 3.50619 10.9449 3.50619C12.7431 3.50619 14.2698 4.78696 14.6336 6.48783C13.1837 6.86182 12.1079 8.16308 12.1079 9.71538V10.0791C12.1079 10.7349 12.6509 11.2728 13.3118 11.2728H17.6562C18.3222 11.2728 18.8601 10.7349 18.8601 10.0791V9.71538C18.8601 8.09648 17.6972 6.73886 16.15 6.43148C15.7453 3.92116 13.5475 2 10.9449 2C8.02476 2 5.65277 4.3515 5.65277 7.24605V18.8857H4.54106C3.13733 18.8857 2 20.0128 2 21.4063C2 22.3848 2.56354 23.2199 3.38324 23.64C3.37811 23.6707 3.36274 23.7014 3.36274 23.7322V28.7528C3.36274 32.9281 7.55344 36.2633 11.6775 36.9446C11.8876 37.5543 12.4562 38 13.1427 38C13.778 38 14.321 37.6209 14.567 37.0778H25.2589C25.5048 37.6158 26.0478 38 26.6831 38C27.3593 38 27.928 37.5645 28.1483 36.9703C32.3287 36.3555 36.6424 32.9896 36.6424 28.7477L36.6373 23.6246C37.4416 23.225 38.0051 22.3899 38.0051 21.4165Z" fill="#86888C"/>
</svg>
