<svg width="40" height="40" viewBox="0 0 40 40" fill="none" xmlns="http://www.w3.org/2000/svg">
<path fill-rule="evenodd" clip-rule="evenodd" d="M31.8112 30.4881C28.4571 30.4881 26.8303 28.7809 26.8303 25.2762C26.8303 23.092 27.4629 21.6107 28.7483 20.7973L31.1133 25.6025C31.2438 25.8737 31.51 26.0243 31.7761 26.0243C31.8966 26.0243 32.0121 25.9942 32.1175 25.939C32.4891 25.7331 32.6297 25.2661 32.4389 24.8895L30.1593 20.2601C30.6614 20.1446 31.1936 20.0693 31.8112 20.0693C35.1653 20.0693 36.7972 21.7764 36.7972 25.2812C36.7922 28.7809 35.1603 30.4881 31.8112 30.4881ZM20.4534 22.7104C20.338 22.7104 20.2375 22.7254 20.1321 22.7355L16.2759 14.4908H24.867L20.7798 22.7355C20.6744 22.7254 20.5739 22.7053 20.4534 22.7104ZM20.4534 26.7574C19.5998 26.7574 19.2685 26.4109 19.2685 25.5122C19.2685 24.6184 19.5998 24.2669 20.4534 24.2669C21.3121 24.2669 21.6434 24.6184 21.6434 25.5122C21.6434 26.4109 21.3121 26.7574 20.4534 26.7574ZM9.47726 30.4881C6.12314 30.4881 4.4963 28.7809 4.4963 25.2762C4.4963 21.7714 6.12314 20.0642 9.47726 20.0642C10.0547 20.0642 10.5719 20.1345 11.0489 20.24L8.7743 24.8946C8.65379 25.1356 8.66885 25.4218 8.80442 25.6578C8.93497 25.8887 9.17599 26.0293 9.44211 26.0293H14.418C14.1821 29.0119 12.5753 30.4881 9.47726 30.4881ZM14.413 24.4678H10.6622L12.4698 20.7622C13.6297 21.4601 14.2624 22.6953 14.413 24.4678ZM15.0557 15.4548L18.7111 23.2677C18.3295 23.579 18.0533 23.9958 17.9178 24.4728H15.8993C15.7235 22.0727 14.7796 20.3404 13.1377 19.3914L15.0557 15.4548ZM31.8062 18.5027C30.9325 18.5027 30.1593 18.6282 29.4563 18.8391L26.8403 13.5267V8.65623C27.5383 8.58092 28.5726 8.58594 29.1149 9.04286C29.2806 9.18345 29.5015 9.43451 29.5015 10.0421C29.4915 10.4638 29.8279 10.8103 30.2497 10.8203C30.6714 10.8103 31.0028 10.4638 30.9978 10.0421C30.9978 8.8621 30.4857 8.18425 30.0538 7.82273C28.6429 6.63774 26.2127 7.15994 25.9365 7.22521C25.5901 7.31559 25.349 7.63192 25.3541 7.98842V12.9342H15.5428L14.2172 10.1073H15.9394C16.3612 10.0973 16.6976 9.74582 16.6876 9.32906C16.6976 8.90729 16.3612 8.55581 15.9394 8.55079H10.9334C10.5116 8.56083 10.1802 8.90729 10.1852 9.32906C10.1752 9.75084 10.5116 10.1023 10.9334 10.1124H12.5552L14.2323 13.7025L11.7317 18.824C10.9936 18.6131 10.2354 18.5077 9.46721 18.5127C5.29968 18.5027 3 20.9078 3 25.2762C3 29.6445 5.29968 32.0497 9.47726 32.0497C13.4038 32.0497 15.6432 29.9056 15.9043 26.0293H17.8123C17.973 27.2997 18.7362 28.1031 19.9463 28.2788L21.1664 30.8396C21.292 31.1057 21.5531 31.2714 21.8343 31.2714H23.3155C23.7373 31.2613 24.0737 30.9099 24.0636 30.4931C24.0737 30.0713 23.7373 29.7199 23.3155 29.7098H22.2962L21.548 28.1432C22.5623 27.7767 23.1397 26.8528 23.1397 25.5172C23.1397 24.513 22.8033 23.7447 22.2008 23.2727L26.0972 15.4197L28.0705 19.4265C26.293 20.5011 25.334 22.4794 25.334 25.2812C25.334 29.6496 27.6337 32.0547 31.8112 32.0547C35.9888 32.0547 38.2885 29.6496 38.2885 25.2812C38.2885 20.9128 35.9888 18.5027 31.8062 18.5027Z" fill="#86888C"/>
</svg>
