<svg width="20" height="20" viewBox="0 0 20 20" fill="none" xmlns="http://www.w3.org/2000/svg">
<path fill-rule="evenodd" clip-rule="evenodd" d="M15.8294 15.3027C14.2194 15.3027 13.4385 14.4833 13.4385 12.801C13.4385 11.7526 13.7422 11.0416 14.3592 10.6512L15.4944 12.9577C15.557 13.0878 15.6848 13.1601 15.8125 13.1601C15.8704 13.1601 15.9258 13.1456 15.9764 13.1191C16.1548 13.0203 16.2222 12.7962 16.1307 12.6154L15.0365 10.3933C15.2775 10.3378 15.5329 10.3017 15.8294 10.3017C17.4394 10.3017 18.2227 11.1211 18.2227 12.8034C18.2203 14.4833 17.437 15.3027 15.8294 15.3027ZM10.3777 11.5694C10.3222 11.5694 10.274 11.5766 10.2234 11.5815L8.37241 7.62401H12.4962L10.5343 11.5815C10.4837 11.5766 10.4355 11.567 10.3777 11.5694ZM10.3777 13.512C9.96793 13.512 9.80886 13.3457 9.80886 12.9143C9.80886 12.4853 9.96793 12.3166 10.3777 12.3166C10.7898 12.3166 10.9489 12.4853 10.9489 12.9143C10.9489 13.3457 10.7898 13.512 10.3777 13.512ZM5.10908 15.3027C3.49911 15.3027 2.71822 14.4833 2.71822 12.801C2.71822 11.1187 3.49911 10.2993 5.10908 10.2993C5.38625 10.2993 5.63449 10.333 5.86346 10.3836L4.77166 12.6178C4.71382 12.7335 4.72105 12.8709 4.78612 12.9842C4.84879 13.095 4.96447 13.1625 5.09221 13.1625H7.48066C7.36738 14.5941 6.59614 15.3027 5.10908 15.3027ZM7.47825 12.413H5.67788L6.54553 10.6343C7.10227 10.9693 7.40595 11.5622 7.47825 12.413ZM7.78675 8.08676L9.54133 11.8369C9.35816 11.9864 9.2256 12.1864 9.16053 12.4154H8.19165C8.1073 11.2633 7.65419 10.4318 6.86608 9.97631L7.78675 8.08676ZM15.827 9.54972C15.4076 9.54972 15.0365 9.60997 14.699 9.7112L13.4434 7.16127V4.82343C13.7784 4.78728 14.2748 4.78969 14.5351 5.00901C14.6147 5.07649 14.7207 5.197 14.7207 5.48863C14.7159 5.69108 14.8774 5.85738 15.0798 5.8622C15.2823 5.85738 15.4414 5.69108 15.4389 5.48863C15.4389 4.92224 15.1931 4.59688 14.9858 4.42335C14.3086 3.85455 13.1421 4.10521 13.0095 4.13654C12.8432 4.17992 12.7275 4.33176 12.7299 4.50288V6.87687H8.02053L7.38426 5.51996H8.21093C8.41339 5.51514 8.57487 5.34643 8.57005 5.14639C8.57487 4.94394 8.41339 4.77523 8.21093 4.77282H5.80802C5.60557 4.77764 5.4465 4.94394 5.44891 5.14639C5.44409 5.34884 5.60557 5.51755 5.80802 5.52237H6.5865L7.39149 7.24562L6.19124 9.70396C5.83694 9.60274 5.47301 9.55213 5.10426 9.55454C3.10384 9.54972 2 10.7042 2 12.801C2 14.8978 3.10384 16.0523 5.10908 16.0523C6.99381 16.0523 8.06874 15.0231 8.19406 13.1625H9.10992C9.18704 13.7723 9.55338 14.1579 10.1342 14.2423L10.7199 15.4714C10.7801 15.5992 10.9055 15.6787 11.0404 15.6787H11.7514C11.9539 15.6739 12.1154 15.5052 12.1105 15.3051C12.1154 15.1027 11.9539 14.934 11.7514 14.9292H11.2622L10.9031 14.1772C11.3899 14.0012 11.6671 13.5578 11.6671 12.9167C11.6671 12.4347 11.5056 12.0659 11.2164 11.8394L13.0866 8.06989L14.0338 9.99318C13.1806 10.509 12.7203 11.4585 12.7203 12.8034C12.7203 14.9002 13.8242 16.0547 15.8294 16.0547C17.8346 16.0547 18.9385 14.9002 18.9385 12.8034C18.9385 10.7066 17.8346 9.54972 15.827 9.54972Z" fill="#86888C"/>
</svg>
