<svg width="24" height="24" viewBox="0 0 24 24" fill="none" xmlns="http://www.w3.org/2000/svg">
<path fill-rule="evenodd" clip-rule="evenodd" d="M18.1343 18.1774C16.256 18.1774 15.345 17.2214 15.345 15.2587C15.345 14.0356 15.6992 13.2061 16.4191 12.7506L17.7434 15.4415C17.8166 15.5933 17.9656 15.6777 18.1146 15.6777C18.1821 15.6777 18.2468 15.6608 18.3058 15.6299C18.5139 15.5146 18.5926 15.2531 18.4858 15.0422L17.2092 12.4497C17.4904 12.385 17.7884 12.3428 18.1343 12.3428C20.0126 12.3428 20.9264 13.2989 20.9264 15.2615C20.9236 17.2214 20.0098 18.1774 18.1343 18.1774ZM11.7739 13.8219C11.7093 13.8219 11.653 13.8303 11.594 13.8359L9.43448 9.2189H14.2455L11.9567 13.8359C11.8976 13.8303 11.8414 13.8191 11.7739 13.8219ZM11.7739 16.0882C11.2959 16.0882 11.1103 15.8942 11.1103 15.3909C11.1103 14.8904 11.2959 14.6935 11.7739 14.6935C12.2547 14.6935 12.4403 14.8904 12.4403 15.3909C12.4403 15.8942 12.2547 16.0882 11.7739 16.0882ZM5.62726 18.1774C3.74896 18.1774 2.83793 17.2214 2.83793 15.2587C2.83793 13.2961 3.74896 12.34 5.62726 12.34C5.95062 12.34 6.24024 12.3794 6.50737 12.4384L5.23361 15.045C5.16612 15.18 5.17456 15.3403 5.25048 15.4724C5.32358 15.6018 5.45855 15.6805 5.60758 15.6805H8.3941C8.26195 17.3507 7.36216 18.1774 5.62726 18.1774ZM8.39129 14.806H6.29085L7.30311 12.7309C7.95265 13.1217 8.30694 13.8134 8.39129 14.806ZM8.75121 9.75877L10.7982 14.134C10.5845 14.3083 10.4299 14.5417 10.354 14.8088H9.22359C9.12518 13.4648 8.59656 12.4947 7.67709 11.9632L8.75121 9.75877ZM18.1315 11.4656C17.6422 11.4656 17.2092 11.5359 16.8155 11.6539L15.3506 8.67903V5.95155C15.7414 5.90938 16.3207 5.91219 16.6243 6.16806C16.7171 6.2468 16.8408 6.38739 16.8408 6.72762C16.8352 6.96381 17.0236 7.15783 17.2598 7.16345C17.496 7.15783 17.6816 6.96381 17.6788 6.72762C17.6788 6.06684 17.392 5.68724 17.1501 5.48479C16.36 4.8212 14.9991 5.11363 14.8444 5.15018C14.6504 5.20079 14.5155 5.37794 14.5183 5.57758V8.34723H9.02395L8.28163 6.76417H9.24609C9.48228 6.75855 9.67068 6.56172 9.66505 6.32834C9.67068 6.09214 9.48228 5.89532 9.24609 5.8925H6.44269C6.2065 5.89813 6.02092 6.09214 6.02373 6.32834C6.01811 6.56453 6.2065 6.76136 6.44269 6.76698H7.35092L8.29007 8.77744L6.88977 11.6455C6.47644 11.5274 6.05185 11.4684 5.62164 11.4712C3.28782 11.4656 2 12.8124 2 15.2587C2 17.705 3.28782 19.0519 5.62726 19.0519C7.82611 19.0519 9.08019 17.8512 9.22641 15.6805H10.2949C10.3849 16.3919 10.8123 16.8418 11.4899 16.9402L12.1732 18.3742C12.2435 18.5233 12.3897 18.616 12.5472 18.616H13.3767C13.6129 18.6104 13.8013 18.4136 13.7956 18.1802C13.8013 17.944 13.6129 17.7472 13.3767 17.7416H12.8059L12.3869 16.8643C12.9549 16.659 13.2783 16.1416 13.2783 15.3937C13.2783 14.8313 13.0899 14.4011 12.7524 14.1368L14.9344 9.73909L16.0395 11.9829C15.0441 12.5847 14.507 13.6925 14.507 15.2615C14.507 17.7078 15.7948 19.0547 18.1343 19.0547C20.4737 19.0547 21.7616 17.7078 21.7616 15.2615C21.7616 12.8152 20.4737 11.4656 18.1315 11.4656Z" fill="#86888C"/>
</svg>
