<svg width="20" height="20" viewBox="0 0 20 20" fill="none" xmlns="http://www.w3.org/2000/svg">
<path d="M12.9499 17.7012H4.90992C3.95746 17.7012 3.22198 17.4317 2.7172 16.8995C2.24211 16.397 2 15.6889 2 14.7935V4.60881C2.00228 3.71573 2.2444 3.00767 2.71949 2.50288C3.22198 1.97069 3.95974 1.70117 4.91221 1.70117H12.9522C13.9046 1.70117 14.6401 1.97069 15.1449 2.50288C15.62 3.00538 15.8621 3.71345 15.8621 4.60881V8.79325C15.8621 8.91887 15.7593 9.02166 15.6337 9.02166C15.5081 9.02166 15.4053 8.91887 15.4053 8.79325V4.60881C15.4053 3.48961 14.9804 2.15799 12.9545 2.15799H4.91449C2.88851 2.15799 2.46367 3.49189 2.46367 4.60881V14.7935C2.46367 15.9127 2.88851 17.2444 4.91449 17.2444H12.9545C14.9804 17.2444 15.4053 15.9105 15.4053 14.7935V11.9773C15.4053 11.8516 15.5081 11.7489 15.6337 11.7489C15.7593 11.7489 15.8621 11.8516 15.8621 11.9773V14.7935C15.8621 15.6889 15.6223 16.397 15.1449 16.8995C14.6401 17.4317 13.9024 17.7012 12.9499 17.7012Z" fill="#86888C"/>
<path d="M12.95 5.64126H4.91005C4.78442 5.64126 4.68164 5.53848 4.68164 5.41286C4.68164 5.28723 4.78442 5.18445 4.91005 5.18445H12.95C13.0756 5.18445 13.1784 5.28723 13.1784 5.41286C13.1784 5.53848 13.0756 5.64126 12.95 5.64126ZM12.95 8.50094H4.91005C4.78442 8.50094 4.68164 8.39815 4.68164 8.27253C4.68164 8.1469 4.78442 8.04412 4.91005 8.04412H12.95C13.0756 8.04412 13.1784 8.1469 13.1784 8.27253C13.1784 8.39815 13.0756 8.50094 12.95 8.50094ZM12.9911 11.3583H4.91005C4.78442 11.3583 4.68164 11.2555 4.68164 11.1299C4.68164 11.0043 4.78442 10.9015 4.91005 10.9015H12.9911C13.1168 10.9015 13.2195 11.0043 13.2195 11.1299C13.2195 11.2555 13.1168 11.3583 12.9911 11.3583ZM10.6499 14.218H4.91005C4.78442 14.218 4.68164 14.1152 4.68164 13.9896C4.68164 13.864 4.78442 13.7612 4.91005 13.7612H10.6477C10.7733 13.7612 10.8761 13.864 10.8761 13.9896C10.8761 14.1152 10.7756 14.218 10.6499 14.218Z" fill="#86888C"/>
<path d="M10.2709 15.5588C10.1453 15.5588 10.0425 15.456 10.0425 15.3304C10.0425 15.3052 10.047 15.2801 10.0539 15.2573L10.8625 12.8476C10.8762 12.8087 10.8967 12.7745 10.9287 12.7493C12.5024 11.3606 15.5334 8.68139 15.7413 8.47125C16.1113 8.10123 16.5133 8.04641 16.7874 8.06697C17.516 8.1195 18.0802 8.72478 18.0802 9.45569C18.0802 9.80972 17.9363 10.1363 17.669 10.4013C17.3949 10.6708 13.0209 14.5401 12.8359 14.7045C12.8131 14.7251 12.7857 14.7411 12.756 14.7502L10.344 15.5451C10.3189 15.5542 10.296 15.5565 10.2709 15.5588ZM11.2759 13.0508L10.6318 14.9695L12.5664 14.3299C14.1493 12.9298 17.1346 10.2825 17.347 10.0747C17.5297 9.89424 17.6234 9.68638 17.6234 9.45341C17.6211 9.20673 17.5229 8.96918 17.3493 8.79331C17.1894 8.63571 16.977 8.53977 16.7531 8.5215C16.575 8.5078 16.3123 8.54434 16.0633 8.79331C15.8029 9.05598 11.783 12.6054 11.2759 13.0508Z" fill="#86888C"/>
</svg>
