<svg width="28" height="28" viewBox="0 0 28 28" fill="none" xmlns="http://www.w3.org/2000/svg">
<path d="M18.4248 25.7012H6.36488C4.93619 25.7012 3.83298 25.2969 3.0758 24.4986C2.36317 23.7449 2 22.6828 2 21.3397V6.06263C2.00343 4.72301 2.3666 3.66092 3.07923 2.90374C3.83298 2.10545 4.93961 1.70117 6.36831 1.70117H18.4283C19.857 1.70117 20.9602 2.10545 21.7173 2.90374C22.43 3.65749 22.7931 4.71959 22.7931 6.06263V12.3393C22.7931 12.5277 22.639 12.6819 22.4505 12.6819C22.2621 12.6819 22.1079 12.5277 22.1079 12.3393V6.06263C22.1079 4.38383 21.4707 2.3864 18.4317 2.3864H6.37173C3.33276 2.3864 2.6955 4.38725 2.6955 6.06263V21.3397C2.6955 23.0185 3.33276 25.0159 6.37173 25.0159H18.4317C21.4707 25.0159 22.1079 23.0151 22.1079 21.3397V17.1153C22.1079 16.9269 22.2621 16.7727 22.4505 16.7727C22.639 16.7727 22.7931 16.9269 22.7931 17.1153V21.3397C22.7931 22.6828 22.4334 23.7449 21.7173 24.4986C20.9602 25.2969 19.8535 25.7012 18.4248 25.7012Z" fill="#86888C"/>
<path d="M18.425 7.61003H6.36507C6.17664 7.61003 6.02246 7.45585 6.02246 7.26742C6.02246 7.07898 6.17664 6.9248 6.36507 6.9248H18.425C18.6135 6.9248 18.7676 7.07898 18.7676 7.26742C18.7676 7.45585 18.6135 7.61003 18.425 7.61003ZM18.425 11.8995H6.36507C6.17664 11.8995 6.02246 11.7454 6.02246 11.5569C6.02246 11.3685 6.17664 11.2143 6.36507 11.2143H18.425C18.6135 11.2143 18.7676 11.3685 18.7676 11.5569C18.7676 11.7454 18.6135 11.8995 18.425 11.8995ZM18.4867 16.1856H6.36507C6.17664 16.1856 6.02246 16.0314 6.02246 15.843C6.02246 15.6546 6.17664 15.5004 6.36507 15.5004H18.4867C18.6751 15.5004 18.8293 15.6546 18.8293 15.843C18.8293 16.0314 18.6751 16.1856 18.4867 16.1856ZM14.9749 20.4751H6.36507C6.17664 20.4751 6.02246 20.321 6.02246 20.1325C6.02246 19.9441 6.17664 19.7899 6.36507 19.7899H14.9715C15.1599 19.7899 15.3141 19.9441 15.3141 20.1325C15.3141 20.321 15.1634 20.4751 14.9749 20.4751Z" fill="#86888C"/>
<path d="M14.4056 22.4865C14.2172 22.4865 14.063 22.3323 14.063 22.1438C14.063 22.1062 14.0698 22.0685 14.0801 22.0342L15.293 18.4196C15.3135 18.3614 15.3444 18.31 15.3923 18.2723C17.7529 16.1892 22.2994 12.1704 22.6112 11.8552C23.1662 11.3002 23.7692 11.2179 24.1803 11.2488C25.2733 11.3276 26.1195 12.2355 26.1195 13.3319C26.1195 13.8629 25.9037 14.3528 25.5028 14.7503C25.0917 15.1546 18.5307 20.9584 18.2531 21.2051C18.2189 21.2359 18.1778 21.2599 18.1332 21.2736L14.5152 22.4659C14.4775 22.4796 14.4433 22.483 14.4056 22.4865ZM15.9131 18.7246L14.9469 21.6025L17.8489 20.6432C20.2232 18.543 24.7011 14.5721 25.0197 14.2603C25.2938 13.9897 25.4343 13.6779 25.4343 13.3284C25.4309 12.9584 25.2835 12.6021 25.0232 12.3383C24.7833 12.1019 24.4647 11.958 24.1289 11.9306C23.8617 11.91 23.4677 11.9648 23.0943 12.3383C22.7037 12.7323 16.6737 18.0565 15.9131 18.7246Z" fill="#86888C"/>
</svg>
