<svg width="40" height="40" viewBox="0 0 40 40" fill="none" xmlns="http://www.w3.org/2000/svg">
<path d="M26.6373 37.7012H8.54732C6.40428 37.7012 4.74946 37.0947 3.6137 35.8973C2.54475 34.7667 2 33.1735 2 31.159V8.24336C2.00514 6.23393 2.54989 4.64079 3.61884 3.50503C4.74946 2.3076 6.40942 1.70117 8.55246 1.70117H26.6424C28.7854 1.70117 30.4403 2.3076 31.576 3.50503C32.645 4.63565 33.1897 6.2288 33.1897 8.24336V17.6583C33.1897 17.941 32.9585 18.1723 32.6758 18.1723C32.3931 18.1723 32.1619 17.941 32.1619 17.6583V8.24336C32.1619 5.72515 31.206 2.72901 26.6475 2.72901H8.5576C3.99914 2.72901 3.04325 5.73029 3.04325 8.24336V31.159C3.04325 33.6772 3.99914 36.6733 8.5576 36.6733H26.6475C31.206 36.6733 32.1619 33.6721 32.1619 31.159V24.8224C32.1619 24.5397 32.3931 24.3085 32.6758 24.3085C32.9585 24.3085 33.1897 24.5397 33.1897 24.8224V31.159C33.1897 33.1735 32.6501 34.7667 31.576 35.8973C30.4403 37.0947 28.7803 37.7012 26.6373 37.7012Z" fill="#86888C"/>
<path d="M26.6375 10.5645H8.54761C8.26496 10.5645 8.03369 10.3332 8.03369 10.0505C8.03369 9.76788 8.26496 9.53662 8.54761 9.53662H26.6375C26.9202 9.53662 27.1515 9.76788 27.1515 10.0505C27.1515 10.3332 26.9202 10.5645 26.6375 10.5645ZM26.6375 16.9987H8.54761C8.26496 16.9987 8.03369 16.7675 8.03369 16.4848C8.03369 16.2021 8.26496 15.9709 8.54761 15.9709H26.6375C26.9202 15.9709 27.1515 16.2021 27.1515 16.4848C27.1515 16.7675 26.9202 16.9987 26.6375 16.9987ZM26.7301 23.4278H8.54761C8.26496 23.4278 8.03369 23.1966 8.03369 22.9139C8.03369 22.6313 8.26496 22.4 8.54761 22.4H26.7301C27.0127 22.4 27.244 22.6313 27.244 22.9139C27.244 23.1966 27.0127 23.4278 26.7301 23.4278ZM21.4624 29.8621H8.54761C8.26496 29.8621 8.03369 29.6308 8.03369 29.3482C8.03369 29.0655 8.26496 28.8343 8.54761 28.8343H21.4572C21.7399 28.8343 21.9712 29.0655 21.9712 29.3482C21.9712 29.6308 21.745 29.8621 21.4624 29.8621Z" fill="#86888C"/>
<path d="M20.6086 32.8791C20.326 32.8791 20.0947 32.6478 20.0947 32.3652C20.0947 32.3086 20.105 32.2521 20.1204 32.2007L21.9397 26.7789C21.9705 26.6915 22.0168 26.6144 22.0887 26.5579C25.6296 23.4333 32.4493 17.405 32.917 16.9322C33.7495 16.0997 34.654 15.9763 35.2707 16.0226C36.9101 16.1408 38.1795 17.5027 38.1795 19.1472C38.1795 19.9438 37.8558 20.6787 37.2545 21.2748C36.6378 21.8812 26.7962 30.587 26.38 30.957C26.3286 31.0033 26.2669 31.0393 26.2001 31.0598L20.7731 32.8483C20.7166 32.8688 20.6652 32.874 20.6086 32.8791ZM22.8699 27.2363L21.4206 31.5532L25.7735 30.1142C29.335 26.9639 36.0519 21.0076 36.5298 20.5399C36.941 20.1339 37.1517 19.6663 37.1517 19.1421C37.1465 18.587 36.9256 18.0525 36.535 17.6568C36.1752 17.3022 35.6973 17.0864 35.1937 17.0453C34.7928 17.0144 34.2018 17.0967 33.6416 17.6568C33.0558 18.2478 24.0108 26.2341 22.8699 27.2363Z" fill="#86888C"/>
</svg>
