<svg width="28" height="28" viewBox="0 0 28 28" fill="none" xmlns="http://www.w3.org/2000/svg">
<path fill-rule="evenodd" clip-rule="evenodd" d="M8.29892 18.9505C8.40824 18.9505 8.52439 18.9642 8.64738 18.9915C9.27938 19.1453 9.9797 19.6953 9.73373 21.4546C9.62441 22.2267 9.67907 22.9099 9.8943 23.4873C10.1232 24.1056 10.4682 24.5224 10.9192 24.7205C13.5872 25.8923 17.2392 25.0826 20.4504 22.6127C22.7905 20.8055 24.3107 18.3356 24.7309 15.6607C24.7378 15.6095 24.7549 15.5616 24.7753 15.5138C24.8505 15.2064 24.9017 14.9331 24.9359 14.6598C25.4586 10.6867 22.5411 9.76432 21.2635 9.55251C21.1439 9.54226 20.9628 9.51493 20.8023 9.49102C20.6178 9.47052 20.2079 9.43295 19.7228 9.47394C19.5793 9.48761 19.429 9.43295 19.3231 9.33046C18.9644 8.982 18.6535 8.57206 18.4007 8.10745C17.7379 6.88445 17.5876 5.46671 17.9771 4.12072C17.9839 4.10364 17.9907 4.08315 17.9976 4.06606C18.0044 4.04898 18.0659 3.87134 17.9942 3.71419C17.919 3.55022 17.7072 3.45114 17.5398 3.39307C16.7438 3.11977 16.532 3.61171 16.4978 3.71419C15.9957 5.42914 16.1904 7.26365 17.0513 8.8556C17.2016 9.1289 17.369 9.39195 17.55 9.64134C17.7106 9.86339 17.673 10.1708 17.4646 10.3485C16.6823 11.001 16.1904 12.0361 16.0059 13.4163C15.9683 13.6622 15.9478 13.8945 15.9478 14.0961C15.8898 14.4753 15.941 14.8408 15.9922 15.1961C16.0845 15.8589 16.1938 16.6104 15.6882 17.1741C15.2543 17.6626 14.472 17.871 13.2354 17.8163C13.1875 17.8129 13.1363 17.8061 13.0919 17.789C12.9142 17.7275 12.7093 17.6695 12.4872 17.6114C11.6946 17.4337 10.5126 17.2698 9.81231 17.2971C9.78498 17.2971 9.76106 17.2971 9.73373 17.2937H9.68932C8.64054 17.2356 7.5781 17.444 6.59764 17.8949C4.96127 18.6533 3.71777 20.0061 3.0926 21.7074C3.02769 21.868 2.95254 22.213 3.41714 22.4829C3.892 22.7562 4.19604 22.664 4.59232 22.1208C4.71531 21.95 4.83829 21.7757 4.95786 21.6049C5.55911 20.7406 6.18086 19.849 7.21598 19.3195L7.34238 19.2512C7.58835 19.1213 7.89922 18.9505 8.29892 18.9505ZM13.5667 26.2852C12.477 26.2852 11.4453 26.087 10.5092 25.6771C9.79181 25.3594 9.26229 24.7479 8.93092 23.8562C8.65762 23.1149 8.58247 22.2609 8.7157 21.3146C8.82843 20.522 8.72253 20.0847 8.40824 20.0061C8.2306 19.9617 8.09053 20.0335 7.84115 20.1667L7.69083 20.2487C6.88461 20.6621 6.36192 21.4136 5.8085 22.2062C5.68551 22.3838 5.56253 22.5615 5.43271 22.7391C4.54108 23.969 3.57087 23.7708 2.91496 23.3882C1.85593 22.7733 1.95158 21.7655 2.15314 21.3214C2.8603 19.3946 4.29511 17.8334 6.18086 16.9589C7.31163 16.4396 8.54489 16.2005 9.75423 16.2654C9.76448 16.2654 9.77814 16.2654 9.78839 16.2688C10.598 16.2312 11.8928 16.4191 12.7434 16.6104C12.9757 16.6719 13.1773 16.73 13.3618 16.7881C14.4823 16.8256 14.8273 16.6138 14.9401 16.4874C15.1245 16.2825 15.0596 15.8315 14.9913 15.3498C14.9332 14.9331 14.8649 14.465 14.9435 14.0141C14.9366 13.8535 14.9605 13.5666 15.005 13.2762C15.1963 11.838 15.6916 10.6969 16.4739 9.88047C16.3646 9.71308 16.2621 9.54226 16.1631 9.36462C15.1689 7.52669 14.9435 5.40864 15.5311 3.40332C15.7599 2.74399 16.5628 1.96851 17.8848 2.41945C18.5407 2.64492 18.8277 3.02753 18.9507 3.31108C19.1727 3.81668 19.0259 4.29495 18.9712 4.44526C18.6671 5.52137 18.7901 6.64873 19.3162 7.62235C19.4802 7.91956 19.6749 8.19627 19.8936 8.43541C20.3308 8.41491 20.7032 8.44566 20.9526 8.4764C21.1132 8.50032 21.2703 8.52765 21.4035 8.5379C23.9691 8.96151 26.4903 10.8268 25.9676 14.8101C25.9198 15.1722 25.848 15.5343 25.7558 15.8759C25.7524 15.8896 25.749 15.8998 25.7456 15.9135C25.2673 18.8207 23.6138 21.4956 21.0858 23.4531C18.6569 25.3013 15.982 26.2852 13.5667 26.2852Z" fill="#86888C"/>
</svg>
