<svg width="20" height="20" viewBox="0 0 20 20" fill="none" xmlns="http://www.w3.org/2000/svg">
<path fill-rule="evenodd" clip-rule="evenodd" d="M17.1568 7.75457C16.8312 9.11155 16.246 10.5255 15.4173 11.9598L15.3399 12.2194C15.2966 12.397 15.2579 12.5587 15.2215 12.693C15.0598 13.3305 14.8731 13.9247 14.6523 14.5076C14.3039 15.4479 14.0261 16.0558 13.5594 16.9051L13.5139 16.9825C13.4455 17.0941 13.334 17.2922 13.2247 17.4242C13.1473 17.5221 13.0608 17.5927 12.972 17.6314L12.8809 17.6291C12.7944 17.595 12.7079 17.5244 12.6282 17.4219C12.5303 17.3013 12.4073 17.1032 12.339 16.9848L12.2958 16.9005C12.2525 16.8231 12.1364 16.518 12.0248 16.222C11.2029 14.0522 10.6633 12.9503 9.99845 12.9503C9.33589 12.9503 8.79401 14.0522 7.97208 16.222C7.86051 16.518 7.7444 16.8231 7.70114 16.9005L7.65788 16.9757V16.9848C7.58957 17.1032 7.46663 17.3035 7.36645 17.4265C7.28903 17.5244 7.20252 17.595 7.11372 17.6337L7.02265 17.6314C6.93613 17.5972 6.84961 17.5267 6.76992 17.4242C6.66519 17.2967 6.55135 17.1009 6.48532 16.9871L6.44661 16.9233C5.97076 16.0581 5.69299 15.4502 5.34463 14.5076C5.12378 13.9225 4.93936 13.3305 4.77543 12.6884C4.739 12.5541 4.70029 12.3902 4.65476 12.2057L4.61605 12.0464L4.57962 11.9576C3.75086 10.5255 3.16572 9.11155 2.84014 7.75229C2.43259 6.04923 2.75589 4.64671 3.74858 3.80429C4.32234 3.3125 5.10784 3.01651 5.9662 2.97325C6.89742 2.92316 7.84458 3.15768 8.72798 3.64719C9.04901 3.82706 9.37687 4.01376 9.73434 4.22323C9.78215 4.25283 9.86867 4.30519 9.99845 4.30519C10.1237 4.30519 10.2056 4.2551 10.2557 4.2255C10.6155 4.01148 10.9433 3.82706 11.2621 3.64719C12.15 3.1554 13.1063 2.92089 14.0261 2.97325C14.8822 3.01651 15.67 3.31022 16.246 3.80429C17.241 4.64899 17.562 6.05151 17.1568 7.75457ZM16.6877 3.29884C16.0024 2.70914 15.0689 2.35851 14.0648 2.30842C13.013 2.2515 11.936 2.51334 10.9365 3.0666C10.6405 3.23281 10.3422 3.4013 9.99845 3.60393C9.66603 3.40813 9.36094 3.23509 9.0604 3.0666C8.06315 2.51334 6.99077 2.25606 5.93661 2.30842C4.93025 2.35851 3.99903 2.71142 3.31599 3.29884C2.12294 4.31202 1.72222 5.95133 2.19124 7.91167C2.53049 9.31874 3.13157 10.7782 3.97854 12.2536L4.00587 12.3651C4.0514 12.5541 4.09238 12.7271 4.12881 12.8592C4.29502 13.5195 4.48855 14.1365 4.71623 14.7421C5.07597 15.7166 5.36512 16.3495 5.8683 17.2603L5.90928 17.3263C5.98897 17.4606 6.12103 17.6838 6.24625 17.8386C6.3988 18.0321 6.57867 18.171 6.79497 18.2575C6.84733 18.2757 6.92702 18.3008 7.02948 18.3008H7.12283C7.21845 18.3008 7.29814 18.2757 7.36872 18.2507C7.56681 18.171 7.74667 18.0321 7.89694 17.8431C8.05632 17.6473 8.23619 17.3354 8.28856 17.2421L8.32954 17.1669V17.1533C8.39101 17.0235 8.47298 16.8072 8.60731 16.4566C8.86004 15.7872 9.63188 13.754 9.98251 13.6151C10.3764 13.754 11.146 15.7872 11.401 16.4566C11.533 16.8026 11.615 17.0167 11.6742 17.1464L11.7174 17.2398C11.7675 17.3331 11.9497 17.6428 12.1045 17.8363C12.257 18.0298 12.4369 18.1687 12.6532 18.2552C12.7056 18.2735 12.7853 18.2985 12.8877 18.2985H12.9811C13.0767 18.2985 13.1564 18.2735 13.227 18.2484C13.4251 18.1687 13.6049 18.0298 13.7552 17.8409C13.885 17.6815 14.017 17.4561 14.0967 17.324L14.1468 17.2421C14.6409 16.345 14.93 15.7143 15.2898 14.7398C15.5174 14.1342 15.711 13.5195 15.8795 12.8592C15.9159 12.7249 15.9546 12.5564 16.0001 12.3742L16.0297 12.249C16.879 10.7736 17.4801 9.31419 17.817 7.90712C18.2792 5.94905 17.8785 4.31202 16.6877 3.29884Z" fill="#86888C"/>
</svg>
