<svg width="20" height="20" viewBox="0 0 20 20" fill="none" xmlns="http://www.w3.org/2000/svg">
<path fill-rule="evenodd" clip-rule="evenodd" d="M6.20774 13.3954C6.28062 13.3954 6.35806 13.4045 6.44005 13.4227C6.86138 13.5252 7.32826 13.8919 7.16429 15.0648C7.09141 15.5795 7.12785 16.035 7.27133 16.4199C7.42392 16.8321 7.65394 17.11 7.95457 17.2421C9.73328 18.0232 12.1679 17.4835 14.3087 15.8369C15.8688 14.6321 16.8823 12.9855 17.1624 11.2022C17.167 11.168 17.1784 11.1361 17.192 11.1043C17.2421 10.8993 17.2763 10.7171 17.2991 10.5349C17.6475 7.88618 15.7026 7.27126 14.8508 7.13006C14.7711 7.12323 14.6504 7.10501 14.5433 7.08907C14.4203 7.0754 14.147 7.05035 13.8236 7.07768C13.728 7.08679 13.6278 7.05035 13.5572 6.98202C13.318 6.74972 13.1108 6.47642 12.9423 6.16669C12.5004 5.35135 12.4002 4.40619 12.6598 3.50887C12.6644 3.49748 12.669 3.48382 12.6735 3.47243C12.6781 3.46104 12.7191 3.34261 12.6712 3.23785C12.6211 3.12853 12.4799 3.06248 12.3683 3.02376C11.8377 2.84157 11.6965 3.16952 11.6737 3.23785C11.3389 4.38114 11.4687 5.60415 12.0426 6.66545C12.1429 6.84765 12.2545 7.02302 12.3752 7.18928C12.4822 7.33731 12.4571 7.54228 12.3182 7.66071C11.7967 8.09571 11.4687 8.78579 11.3457 9.70589C11.3207 9.86987 11.307 10.0247 11.307 10.1591C11.2683 10.4119 11.3025 10.6556 11.3366 10.8925C11.3981 11.3343 11.471 11.8353 11.1339 12.2111C10.8447 12.5368 10.3231 12.6757 9.4987 12.6393C9.46682 12.637 9.43266 12.6325 9.40305 12.6211C9.28462 12.5801 9.14797 12.5414 8.99993 12.5026C8.47156 12.3842 7.68355 12.2749 7.21667 12.2931C7.19845 12.2931 7.18251 12.2931 7.16429 12.2908H7.13468C6.43549 12.2521 5.7272 12.391 5.07356 12.6917C3.98265 13.1973 3.15364 14.0991 2.73686 15.2333C2.69359 15.3404 2.64349 15.5704 2.95323 15.7503C3.2698 15.9325 3.47249 15.871 3.73668 15.5089C3.81867 15.395 3.90066 15.2789 3.98037 15.165C4.38121 14.5888 4.79571 13.9944 5.48578 13.6414L5.57005 13.5958C5.73403 13.5093 5.94128 13.3954 6.20774 13.3954ZM9.71962 18.2852C8.9931 18.2852 8.3053 18.1531 7.68127 17.8798C7.203 17.668 6.84999 17.2603 6.62908 16.6659C6.44688 16.1717 6.39677 15.6023 6.4856 14.9714C6.56075 14.443 6.49015 14.1515 6.28062 14.0991C6.16219 14.0695 6.06882 14.1174 5.90256 14.2062L5.80235 14.2608C5.26487 14.5364 4.91641 15.0375 4.54746 15.5658C4.46547 15.6843 4.38348 15.8027 4.29694 15.9211C3.70252 16.741 3.05571 16.6089 2.61844 16.3539C1.91242 15.9439 1.97619 15.2721 2.11056 14.976C2.582 13.6915 3.53854 12.6507 4.79571 12.0676C5.54955 11.7215 6.37172 11.562 7.17795 11.6053C7.18478 11.6053 7.19389 11.6053 7.20072 11.6076C7.74049 11.5825 8.60365 11.7078 9.17074 11.8353C9.32561 11.8763 9.45998 11.915 9.58297 11.9538C10.33 11.9788 10.56 11.8376 10.6352 11.7533C10.7581 11.6167 10.7149 11.3161 10.6693 10.9949C10.6306 10.7171 10.5851 10.4051 10.6374 10.1044C10.6329 9.99741 10.6488 9.8061 10.6784 9.61251C10.806 8.65369 11.1362 7.89302 11.6578 7.3487C11.5849 7.2371 11.5165 7.12323 11.4505 7.0048C10.7878 5.77952 10.6374 4.36748 11.0292 3.0306C11.1818 2.59104 11.717 2.07406 12.5984 2.37468C13.0356 2.525 13.2269 2.78007 13.3089 2.96911C13.457 3.30617 13.359 3.62502 13.3226 3.72523C13.1199 4.44263 13.2019 5.1942 13.5526 5.84328C13.6619 6.04143 13.7918 6.2259 13.9375 6.38532C14.229 6.37166 14.4773 6.39216 14.6435 6.41265C14.7506 6.4286 14.8553 6.44682 14.9442 6.45365C16.6545 6.73606 18.3353 7.97956 17.9869 10.6351C17.955 10.8765 17.9072 11.1179 17.8457 11.3457C17.8434 11.3548 17.8411 11.3616 17.8388 11.3707C17.52 13.3089 16.4177 15.0921 14.7323 16.3971C13.1131 17.6292 11.3298 18.2852 9.71962 18.2852Z" fill="#86888C"/>
</svg>
