<svg width="40" height="40" viewBox="0 0 40 40" fill="none" xmlns="http://www.w3.org/2000/svg">
<path fill-rule="evenodd" clip-rule="evenodd" d="M36.1473 33.8607C36.1317 33.8763 35.7154 34.2874 35.0234 34.3186C33.6497 34.3706 32.8797 33.715 32.2501 33.1791L32.0836 33.0386C31.4071 32.4767 30.8244 31.9875 29.4819 31.9875C28.7275 31.9303 27.026 31.821 26.8491 31.795C26.131 31.6077 25.1788 31.1342 25.1788 29.1466C24.9031 23.0223 24.8094 16.2217 25.1996 14.848C25.3141 14.437 25.4234 14.1508 25.5951 13.8126C25.7044 13.4796 26.0374 12.4701 27.9209 12.4701C29.0501 12.4701 29.7785 12.8604 30.4445 13.8854C30.4966 13.9427 35.4657 19.4581 36.5375 25.7801C37.2816 30.1144 37.1463 32.8305 36.1473 33.8607ZM20.5011 19.198C20.2826 19.0887 20.0224 19.0887 19.8091 19.198L17.197 20.5144C17.2023 19.7911 17.197 19.0887 17.1866 18.4279L18.9037 17.5641C19.1691 17.4288 19.3356 17.1583 19.3356 16.8565L19.3096 5.49259L21.2088 5.46657V16.8877C21.2088 17.1895 21.3753 17.4601 21.6406 17.5954L23.3941 18.4799C23.3837 19.1719 23.3837 19.9108 23.3889 20.6653L20.5011 19.198ZM15.4019 29.131C15.4019 31.051 14.4497 31.5245 13.7733 31.7014C13.5548 31.7378 11.8481 31.8731 11.0988 31.9043C9.7616 31.9043 9.17884 32.3882 8.50241 32.9554L8.33591 33.0958C7.70632 33.6266 6.96225 34.2874 5.56258 34.2353C4.87054 34.2041 4.45428 33.7931 4.43867 33.7775C3.43965 32.7472 3.30437 30.0311 4.03282 25.7072C5.10469 19.3853 10.079 13.8646 10.2091 13.7033C10.797 12.7875 11.5255 12.3973 12.6546 12.3973C14.3405 12.3973 14.7879 13.1622 15.0377 13.8698C15.1522 14.0832 15.2614 14.3693 15.3759 14.7752C15.7714 16.1436 15.6725 22.9391 15.4019 29.131ZM38.0829 25.5199C36.933 18.7245 31.813 13.0529 31.6777 12.9228C30.8036 11.5596 29.5756 10.8936 27.9262 10.8936C25.9905 10.8936 24.6377 11.7521 24.1798 13.1778C24.0029 13.4952 23.8572 13.875 23.7063 14.4058C23.5762 14.8584 23.493 15.6962 23.4462 16.7264L22.7645 16.383V5.45616C22.7645 4.59763 22.0777 3.90039 21.2348 3.90039H19.3096C18.4666 3.90039 17.7798 4.59763 17.7798 5.45616V16.357L17.1346 16.6848C17.0826 15.6337 17.0045 14.7804 16.8692 14.3225C16.7183 13.797 16.5727 13.4067 16.453 13.2246C15.9379 11.6636 14.585 10.8051 12.6494 10.8051C10.9948 10.8051 9.77201 11.4711 8.98111 12.7251C8.76258 12.9645 3.64778 18.636 2.49266 25.4314C1.63412 30.4942 1.88908 33.4132 3.32518 34.8806C3.46567 35.0262 4.23054 35.7547 5.48973 35.8119C5.57298 35.8171 5.65103 35.8171 5.72908 35.8171C7.55022 35.8171 8.65851 34.8753 9.32973 34.303L9.48583 34.1729C10.0738 33.6838 10.3288 33.5173 11.1092 33.4809C11.9209 33.4809 13.8774 33.304 14.1167 33.2363C15.9431 32.7524 16.9525 31.2955 16.9525 29.131C17.0097 27.7989 17.119 25.0672 17.171 22.2835L20.1473 20.7849L23.4045 22.4292C23.4566 25.1921 23.5658 27.8874 23.6231 29.209C23.6231 31.3788 24.6325 32.8409 26.4484 33.3196C26.693 33.3872 28.6494 33.5641 29.4663 33.5641H29.4819C30.2624 33.5641 30.507 33.7671 31.0897 34.2562L31.2458 34.3862C31.917 34.9586 33.0253 35.9004 34.8465 35.9004C34.9245 35.9004 35.0078 35.9004 35.0858 35.8952C36.3398 35.838 37.1099 35.1095 37.2504 34.969C38.6865 33.5017 38.9414 30.5827 38.0829 25.5199Z" fill="#86888C"/>
</svg>
