<svg width="20" height="20" viewBox="0 0 20 20" fill="none" xmlns="http://www.w3.org/2000/svg">
<path fill-rule="evenodd" clip-rule="evenodd" d="M16.9394 16.008C16.9326 16.0149 16.7505 16.1947 16.4477 16.2084C15.8468 16.2311 15.5098 15.9443 15.2344 15.7098L15.1616 15.6484C14.8656 15.4025 14.6107 15.1885 14.0233 15.1885C13.6933 15.1635 12.9489 15.1157 12.8715 15.1043C12.5573 15.0223 12.1407 14.8152 12.1407 13.9456C12.0201 11.2662 11.9791 8.29096 12.1498 7.68998C12.1999 7.51015 12.2477 7.38494 12.3229 7.23698C12.3707 7.09129 12.5164 6.64966 13.3404 6.64966C13.8344 6.64966 14.1531 6.82039 14.4445 7.26885C14.4672 7.29389 16.6412 9.70689 17.1102 12.4727C17.4357 14.369 17.3765 15.5573 16.9394 16.008ZM10.0942 9.59307C9.99863 9.54527 9.88481 9.54527 9.79147 9.59307L8.64871 10.169C8.65098 9.85259 8.64871 9.54527 8.64416 9.25616L9.39538 8.87828C9.51147 8.81909 9.58432 8.70072 9.58432 8.56868L9.57294 3.59698L10.4038 3.58559V8.58234C10.4038 8.71437 10.4767 8.83275 10.5928 8.89194L11.3599 9.27893C11.3554 9.58169 11.3554 9.90494 11.3577 10.235L10.0942 9.59307ZM7.86334 13.9388C7.86334 14.7788 7.44676 14.9859 7.15082 15.0633C7.05521 15.0793 6.30855 15.1384 5.98074 15.1521C5.3957 15.1521 5.14074 15.3638 4.84481 15.6119L4.77196 15.6734C4.49651 15.9056 4.17098 16.1947 3.55863 16.1719C3.25586 16.1583 3.07375 15.9784 3.06692 15.9716C2.62985 15.5209 2.57066 14.3326 2.88936 12.4409C3.3583 9.67502 5.53456 7.25974 5.59147 7.18917C5.84871 6.78852 6.16741 6.61779 6.66139 6.61779C7.39895 6.61779 7.59472 6.95242 7.70399 7.26202C7.75407 7.35535 7.80188 7.48055 7.85196 7.65811C8.02497 8.25681 7.98172 11.2298 7.86334 13.9388ZM17.7863 12.3589C17.2832 9.38592 15.0432 6.90462 14.984 6.84771C14.6016 6.25128 14.0643 5.9599 13.3427 5.9599C12.4959 5.9599 11.904 6.33551 11.7037 6.95925C11.6263 7.09811 11.5625 7.26429 11.4965 7.49649C11.4396 7.69454 11.4032 8.06104 11.3827 8.51177L11.0845 8.36153V3.58104C11.0845 3.20543 10.784 2.90039 10.4152 2.90039H9.57294C9.20416 2.90039 8.90367 3.20543 8.90367 3.58104V8.35015L8.62139 8.49356C8.59863 8.03372 8.56448 7.66039 8.50529 7.46007C8.43928 7.23015 8.37554 7.05941 8.32318 6.97974C8.09781 6.29681 7.50594 5.9212 6.65911 5.9212C5.93521 5.9212 5.40025 6.21259 5.05424 6.7612C4.95863 6.86592 2.7209 9.34722 2.21554 12.3202C1.83993 14.5352 1.95147 15.8123 2.57977 16.4542C2.64123 16.518 2.97586 16.8367 3.52676 16.8617C3.56318 16.864 3.59733 16.864 3.63147 16.864C4.42822 16.864 4.9131 16.4519 5.20676 16.2015L5.27505 16.1446C5.53229 15.9306 5.64383 15.8578 5.98529 15.8419C6.34042 15.8419 7.19635 15.7645 7.30107 15.7349C8.10009 15.5232 8.54172 14.8858 8.54172 13.9388C8.56676 13.356 8.61456 12.1609 8.63733 10.943L9.93944 10.2874L11.3645 11.0067C11.3872 12.2155 11.435 13.3947 11.4601 13.9729C11.4601 14.9222 11.9017 15.5619 12.6962 15.7713C12.8032 15.8009 13.6591 15.8783 14.0165 15.8783H14.0233C14.3648 15.8783 14.4718 15.9671 14.7268 16.181L14.795 16.238C15.0887 16.4884 15.5736 16.9004 16.3703 16.9004C16.4045 16.9004 16.4409 16.9004 16.475 16.8981C17.0237 16.8731 17.3606 16.5544 17.422 16.4929C18.0503 15.851 18.1619 14.5739 17.7863 12.3589Z" fill="#86888C"/>
</svg>
