<svg width="28" height="28" viewBox="0 0 28 28" fill="none" xmlns="http://www.w3.org/2000/svg">
<path fill-rule="evenodd" clip-rule="evenodd" d="M24.4092 23.5619C24.3989 23.5721 24.1257 23.8419 23.6716 23.8623C22.7701 23.8965 22.2648 23.4662 21.8516 23.1145L21.7423 23.0223C21.2984 22.6536 20.916 22.3326 20.035 22.3326C19.5399 22.295 18.4233 22.2233 18.3072 22.2062C17.836 22.0833 17.2111 21.7726 17.2111 20.4682C17.0301 16.4492 16.9687 11.9862 17.2248 11.0848C17.2999 10.815 17.3716 10.6272 17.4843 10.4053C17.556 10.1867 17.7745 9.52429 19.0106 9.52429C19.7516 9.52429 20.2296 9.78039 20.6667 10.4531C20.7009 10.4906 23.9618 14.1101 24.6653 18.2589C25.1535 21.1033 25.0648 22.8858 24.4092 23.5619ZM14.1414 13.9394C13.9979 13.8677 13.8272 13.8677 13.6872 13.9394L11.9731 14.8033C11.9765 14.3287 11.9731 13.8677 11.9662 13.434L13.0931 12.8672C13.2672 12.7784 13.3765 12.6009 13.3765 12.4028L13.3594 4.94527L14.6057 4.9282V12.4233C14.6057 12.6214 14.715 12.7989 14.8892 12.8877L16.0399 13.4682C16.0331 13.9223 16.0331 14.4072 16.0365 14.9023L14.1414 13.9394ZM10.795 20.458C10.795 21.718 10.1701 22.0287 9.72623 22.1448C9.58282 22.1687 8.46282 22.2575 7.97111 22.278C7.09355 22.278 6.71111 22.5955 6.26721 22.9677L6.15794 23.0599C5.74477 23.4082 5.25648 23.8419 4.33794 23.8077C3.88379 23.7872 3.61062 23.5175 3.60038 23.5072C2.94477 22.8311 2.85599 21.0487 3.33404 18.2111C4.03745 14.0623 7.30184 10.4394 7.38721 10.3336C7.77306 9.73259 8.25111 9.47649 8.99209 9.47649C10.0984 9.47649 10.3921 9.97844 10.556 10.4428C10.6311 10.5828 10.7028 10.7706 10.7779 11.037C11.0375 11.935 10.9726 16.3945 10.795 20.458ZM25.6794 18.0882C24.9248 13.6287 21.5648 9.90673 21.476 9.82137C20.9023 8.92673 20.0965 8.48966 19.014 8.48966C17.7438 8.48966 16.856 9.05307 16.5555 9.98868C16.4394 10.197 16.3438 10.4462 16.2448 10.7945C16.1594 11.0916 16.1048 11.6414 16.074 12.3175L15.6267 12.0921V4.92137C15.6267 4.35795 15.176 3.90039 14.6228 3.90039H13.3594C12.8062 3.90039 12.3555 4.35795 12.3555 4.92137V12.075L11.9321 12.2901C11.8979 11.6004 11.8467 11.0404 11.7579 10.7399C11.6589 10.395 11.5633 10.1389 11.4848 10.0194C11.1467 8.99502 10.2589 8.43161 8.98867 8.43161C7.90282 8.43161 7.10038 8.86868 6.58136 9.69161C6.43794 9.84868 3.08136 13.5706 2.32331 18.0301C1.75989 21.3526 1.92721 23.2682 2.86965 24.2311C2.96184 24.3267 3.46379 24.8048 4.29014 24.8423C4.34477 24.8458 4.39599 24.8458 4.44721 24.8458C5.64233 24.8458 6.36965 24.2277 6.81014 23.8521L6.91257 23.7667C7.29843 23.4458 7.46575 23.3365 7.97794 23.3126C8.51062 23.3126 9.79453 23.1965 9.9516 23.1521C11.1501 22.8345 11.8126 21.8784 11.8126 20.458C11.8501 19.5838 11.9218 17.7911 11.956 15.9643L13.9092 14.9809L16.0467 16.0599C16.0809 17.8731 16.1526 19.6419 16.1901 20.5092C16.1901 21.9331 16.8526 22.8926 18.0443 23.2067C18.2048 23.2511 19.4887 23.3672 20.0248 23.3672H20.035C20.5472 23.3672 20.7077 23.5004 21.0901 23.8214L21.1926 23.9067C21.6331 24.2823 22.3604 24.9004 23.5555 24.9004C23.6067 24.9004 23.6614 24.9004 23.7126 24.897C24.5355 24.8594 25.0409 24.3814 25.1331 24.2892C26.0755 23.3262 26.2428 21.4106 25.6794 18.0882Z" fill="#86888C"/>
</svg>
