<svg width="24" height="24" viewBox="0 0 24 24" fill="none" xmlns="http://www.w3.org/2000/svg">
<path fill-rule="evenodd" clip-rule="evenodd" d="M20.9459 9.11802C20.539 10.8142 19.8075 12.5816 18.7716 14.3746L18.6748 14.6991C18.6207 14.9211 18.5724 15.1231 18.5268 15.291C18.3248 16.0879 18.0914 16.8307 17.8153 17.5593C17.3799 18.7347 17.0327 19.4946 16.4492 20.5562L16.3923 20.6529C16.3069 20.7924 16.1675 21.04 16.0309 21.2051C15.9341 21.3274 15.826 21.4157 15.715 21.4641L15.6011 21.4612C15.493 21.4185 15.3848 21.3303 15.2852 21.2022C15.1628 21.0514 15.0091 20.8038 14.9238 20.6558L14.8697 20.5505C14.8156 20.4537 14.6705 20.0723 14.531 19.7024C13.5036 16.9901 12.8291 15.6126 11.9981 15.6126C11.1699 15.6126 10.4925 16.9901 9.4651 19.7024C9.32564 20.0723 9.1805 20.4537 9.12642 20.5505L9.07235 20.6444V20.6558C8.98697 20.8038 8.83328 21.0542 8.70806 21.2079C8.61129 21.3303 8.50314 21.4185 8.39215 21.4669L8.27831 21.4641C8.17016 21.4214 8.06201 21.3331 7.9624 21.2051C7.83148 21.0457 7.68918 20.8009 7.60665 20.6586L7.55827 20.5789C6.96345 19.4975 6.61623 18.7376 6.18079 17.5593C5.90473 16.8279 5.6742 16.0879 5.46929 15.2853C5.42375 15.1174 5.37537 14.9125 5.31845 14.682L5.27007 14.4828L5.22453 14.3718C4.18858 12.5816 3.45715 10.8142 3.05017 9.11517C2.54073 6.98635 2.94487 5.2332 4.18573 4.18017C4.90293 3.56543 5.88481 3.19545 6.95776 3.14137C8.12178 3.07876 9.30572 3.3719 10.41 3.98379C10.8113 4.20863 11.2211 4.442 11.6679 4.70384C11.7277 4.74084 11.8358 4.80629 11.9981 4.80629C12.1546 4.80629 12.257 4.74368 12.3197 4.70668C12.7693 4.43916 13.1792 4.20863 13.5776 3.98379C14.6875 3.36905 15.8829 3.07591 17.0327 3.14137C18.1028 3.19545 19.0875 3.56258 19.8075 4.18017C21.0512 5.23604 21.4525 6.98919 20.9459 9.11802ZM20.3597 3.54835C19.503 2.81123 18.3361 2.37295 17.0811 2.31033C15.7662 2.23918 14.42 2.56648 13.1706 3.25806C12.8006 3.46582 12.4278 3.67642 11.9981 3.92972C11.5825 3.68496 11.2012 3.46867 10.8255 3.25806C9.57894 2.56648 8.23846 2.24488 6.92076 2.31033C5.66282 2.37295 4.49879 2.81408 3.64499 3.54835C2.15367 4.81483 1.65277 6.86397 2.23905 9.31439C2.66311 11.0732 3.41446 12.8975 4.47318 14.7418L4.50733 14.8812C4.56425 15.1174 4.61548 15.3337 4.66102 15.4988C4.86878 16.3241 5.11069 17.0954 5.39529 17.8525C5.84496 19.0705 6.20641 19.8617 6.83538 21.0002L6.8866 21.0827C6.98622 21.2506 7.15128 21.5295 7.30782 21.723C7.4985 21.965 7.72333 22.1386 7.99371 22.2467C8.05917 22.2695 8.15878 22.3008 8.28685 22.3008H8.40353C8.52307 22.3008 8.62268 22.2695 8.7109 22.2382C8.95851 22.1386 9.18334 21.965 9.37118 21.7287C9.5704 21.484 9.79524 21.0941 9.8607 20.9774L9.91192 20.8835V20.8664C9.98877 20.7042 10.0912 20.4338 10.2591 19.9955C10.575 19.1588 11.5398 16.6173 11.9781 16.4437C12.4705 16.6173 13.4325 19.1588 13.7512 19.9955C13.9163 20.4281 14.0187 20.6956 14.0927 20.8578L14.1468 20.9745C14.2094 21.0912 14.4371 21.4783 14.6306 21.7202C14.8213 21.9621 15.0461 22.1357 15.3165 22.2439C15.382 22.2666 15.4816 22.2979 15.6097 22.2979H15.7263C15.8459 22.2979 15.9455 22.2666 16.0337 22.2353C16.2813 22.1357 16.5062 21.9621 16.694 21.7259C16.8562 21.5267 17.0213 21.2449 17.1209 21.0798L17.1835 20.9774C17.8011 19.8561 18.1625 19.0677 18.6122 17.8496C18.8968 17.0926 19.1387 16.3241 19.3493 15.4988C19.3949 15.3309 19.4432 15.1203 19.5002 14.8926L19.5372 14.7361C20.5987 12.8918 21.3501 11.0675 21.7713 9.3087C22.349 6.86112 21.8481 4.81483 20.3597 3.54835Z" fill="#86888C"/>
</svg>
