<svg width="40" height="40" viewBox="0 0 40 40" fill="none" xmlns="http://www.w3.org/2000/svg">
<path fill-rule="evenodd" clip-rule="evenodd" d="M30.1057 35.6478C30.1057 35.9655 29.9302 36.237 29.636 36.3804C29.347 36.5239 29.0166 36.488 28.8411 36.3651L22.0485 29.7154C21.5839 29.2646 20.9749 29.0341 20.3555 29.0341C19.7464 29.0341 19.127 29.2595 18.6573 29.7154L11.906 36.3036C11.6479 36.4931 11.3227 36.5239 11.0337 36.3856C10.7395 36.2421 10.5691 35.9706 10.5691 35.653V4.35146C10.5691 3.90063 10.9408 3.5369 11.4001 3.5369H29.2799C29.7392 3.5369 30.1109 3.90063 30.1109 4.35146V35.6478H30.1057ZM29.2747 2H11.395C10.0736 2 9 3.05534 9 4.34633V35.6478C9 36.5495 9.511 37.3589 10.3368 37.7585C11.1627 38.1581 12.1279 38.0659 12.9331 37.4511L19.7567 30.8066C20.0922 30.4839 20.6239 30.4839 20.9439 30.7964L27.8191 37.5126C28.2475 37.8354 28.7585 37.9993 29.2747 37.9993C29.636 37.9993 29.9973 37.9173 30.3431 37.7534C31.169 37.3538 31.68 36.5444 31.68 35.6427V4.34121C31.6697 3.05534 30.5961 2 29.2747 2V2Z" fill="#86888C"/>
</svg>
