<svg width="28" height="28" viewBox="0 0 28 28" fill="none" xmlns="http://www.w3.org/2000/svg">
<path fill-rule="evenodd" clip-rule="evenodd" d="M24.7911 24.1662C24.7911 24.6135 24.4428 24.9789 24.0159 24.9789H3.98065C3.5572 24.9789 3.20888 24.6135 3.20888 24.1662V9.91235C3.20888 9.465 3.5572 9.0996 3.98065 9.0996H10.5851V12.4155C10.5851 12.6955 10.8549 12.9243 11.1895 12.9243H16.4143C16.749 12.9243 17.0188 12.6955 17.0188 12.4155L17.0154 9.0996H24.0194C24.4462 9.0996 24.7945 9.465 24.7945 9.91235V24.1662H24.7911ZM4.95731 3.60842C4.96756 3.57086 4.97439 3.52988 4.97439 3.4889C4.97439 3.22937 5.22368 3.01764 5.53443 3.01764H11.1895L10.6534 8.07854H3.98065C3.8782 8.07854 3.78258 8.0922 3.68697 8.10586L4.95731 3.60842ZM15.8099 9.0996V11.9067H11.794L11.7906 9.0996H15.8099ZM15.0859 3.02447L15.7314 8.07854H11.8623L12.3984 3.02447H15.0859ZM23.0256 3.49232C23.0256 3.5333 23.0324 3.57427 23.0461 3.61184L24.354 8.11269C24.2413 8.0922 24.1286 8.08196 24.0159 8.08196H16.9437L16.3017 3.02106H22.469C22.7763 3.02106 23.0256 3.23278 23.0256 3.49232ZM25.9624 9.56061C25.9795 9.4889 25.9761 9.41719 25.959 9.34548L24.2311 3.42402C24.1935 2.63176 23.4149 2 22.4656 2H5.53443C4.58167 2 3.80649 2.63176 3.76551 3.42402L2.0922 9.34548C2.08879 9.35914 2.0922 9.37621 2.08879 9.38987C2.03415 9.56061 2.00341 9.73478 2 9.91235V24.1662C2 25.177 2.88788 26 3.98065 26H24.0194C25.1121 26 26 25.177 26 24.1662V9.91235C26 9.78941 25.9863 9.67331 25.9624 9.56061Z" fill="#86888C"/>
</svg>
