<svg width="40" height="40" viewBox="0 0 40 40" fill="none" xmlns="http://www.w3.org/2000/svg">
<path fill-rule="evenodd" clip-rule="evenodd" d="M36.1867 35.2493C36.1867 35.9203 35.6642 36.4684 35.0239 36.4684H4.97097C4.3358 36.4684 3.81332 35.9203 3.81332 35.2493V13.8685C3.81332 13.1975 4.3358 12.6494 4.97097 12.6494H14.8776V17.6232C14.8776 18.0433 15.2823 18.3865 15.7843 18.3865H23.6215C24.1235 18.3865 24.5282 18.0433 24.5282 17.6232L24.5231 12.6494H35.029C35.6693 12.6494 36.1918 13.1975 36.1918 13.8685V35.2493H36.1867ZM6.43597 4.41264C6.45134 4.35629 6.46158 4.29482 6.46158 4.23335C6.46158 3.84405 6.83552 3.52647 7.30165 3.52647H15.7843L14.9801 11.1178H4.97097C4.8173 11.1178 4.67388 11.1383 4.53045 11.1588L6.43597 4.41264ZM22.7149 12.6494V16.86H16.6909L16.6858 12.6494H22.7149ZM21.6289 3.53671L22.597 11.1178H16.7934L17.5976 3.53671H21.6289ZM33.5384 4.23847C33.5384 4.29994 33.5487 4.36141 33.5692 4.41776L35.531 11.169C35.362 11.1383 35.1929 11.1229 35.0239 11.1229H24.4155L23.4525 3.53159H32.7035C33.1645 3.53159 33.5384 3.84917 33.5384 4.23847ZM37.9437 13.3409C37.9693 13.2334 37.9641 13.1258 37.9385 13.0182L35.3466 4.13603C35.2903 2.94764 34.1224 2 32.6983 2H7.30165C5.87251 2 4.70973 2.94764 4.64826 4.13603L2.1383 13.0182C2.13318 13.0387 2.1383 13.0643 2.13318 13.0848C2.05122 13.3409 2.00512 13.6022 2 13.8685V35.2493C2 36.7655 3.33182 38 4.97097 38H35.029C36.6682 38 38 36.7655 38 35.2493V13.8685C38 13.6841 37.9795 13.51 37.9437 13.3409Z" fill="#86888C"/>
</svg>
