<svg width="40" height="40" viewBox="0 0 40 40" fill="none" xmlns="http://www.w3.org/2000/svg">
<path fill-rule="evenodd" clip-rule="evenodd" d="M22.1821 29.6613C22.469 29.3795 22.9351 29.3795 23.2271 29.6613C23.5139 29.9432 23.5139 30.3992 23.2271 30.6862C22.2436 31.6495 21.1884 32.1517 20.0922 32.1671H20.0307C18.9141 32.1671 17.8384 31.67 16.8344 30.6811C16.5475 30.3992 16.5475 29.9432 16.8344 29.6562C17.1212 29.3744 17.5874 29.3744 17.8793 29.6562C18.6118 30.3736 19.3802 30.6964 20.0717 30.7169C20.7632 30.7067 21.4752 30.3531 22.1821 29.6613ZM34.4092 27.6731C35.1981 27.6629 36.5248 27.3606 36.5248 25.4697C36.5248 23.584 35.2134 23.2868 34.4348 23.2817C34.2863 23.2817 34.189 23.2817 34.0404 23.2868C33.9943 24.7267 33.8919 26.1 33.6357 27.6219C33.6972 27.6424 33.7382 27.6475 33.7997 27.6475C33.9943 27.6731 34.0916 27.6731 34.1582 27.6783L34.4092 27.6731ZM32.5805 22.8256V19.2643C32.5703 18.9568 32.5549 18.6648 32.5396 18.3727H7.32726L7.31702 19.2797L7.33751 22.8359C7.55777 31.05 9.75526 34.5498 14.6676 34.5498C14.9698 34.5498 15.2516 34.5345 15.5333 34.514H24.354C24.9994 34.5498 25.5578 34.555 26.1212 34.514H26.3364C26.3825 34.4986 26.4286 34.4884 26.4798 34.4832C30.4394 34.0887 32.3756 30.3839 32.5805 22.8256ZM14.6625 7.57593C9.67331 7.57593 7.71144 10.0458 7.37336 16.9276H12.9875C13.2334 13.643 14.3347 11.0502 16.2812 9.20543C16.8241 8.68789 17.4286 8.23696 18.0945 7.85264C17.1776 7.68866 16.1941 7.59643 15.1286 7.59643L15.0108 7.5913C14.8623 7.58106 14.8162 7.57593 14.6625 7.57593ZM20.2561 8.44193C19.119 8.87748 18.1303 9.47189 17.3159 10.2457C15.6614 11.8137 14.7137 14.0632 14.4832 16.9276H26.0341C25.7985 14.0581 24.8509 11.8137 23.2015 10.2457C22.387 9.47189 21.3984 8.87236 20.2561 8.44193ZM25.3785 7.5913C24.313 7.5913 23.3295 7.68354 22.4126 7.84752C23.0734 8.23696 23.6779 8.68276 24.226 9.20031C26.1673 11.045 27.2738 13.6379 27.5196 16.9225H32.4474C31.9198 10.9579 29.9989 7.98075 26.4747 7.62205C26.4286 7.61693 26.362 7.6118 26.2954 7.60668L26.1622 7.5913C25.8805 7.57593 25.7217 7.58618 25.4707 7.58106H25.3785V7.5913ZM5.84178 27.6731C5.90324 27.6731 6.15424 27.6578 6.29254 27.6424C6.03643 26.1769 5.92886 24.6755 5.88275 23.2714C5.7547 23.2766 5.68298 23.2766 5.57029 23.2766C4.79169 23.2817 3.48036 23.5789 3.48036 25.4646C3.48036 27.3554 4.80706 27.6578 5.5959 27.668L5.84178 27.6731ZM34.4502 21.8315C36.0894 21.8469 38 22.8102 38 25.4646C38 28.1189 36.0791 29.0925 34.4297 29.1182H34.1326C34.0302 29.1182 33.8714 29.1079 33.6818 29.0874C33.564 29.0721 33.4718 29.0413 33.3489 29.0157C32.5191 32.4694 30.7467 35.4056 26.8537 35.9026C26.7666 35.9436 26.6693 35.9641 26.5669 35.9641H26.1622C25.901 35.9846 25.5834 36 25.2504 36C24.9175 36 24.605 35.9846 24.2977 35.9641H15.5794C15.3182 35.9846 15.0006 36 14.6676 36C9.72453 36 7.55265 32.8332 6.59989 29.0669C6.37962 29.0925 5.96471 29.1182 5.86739 29.1233H5.57029C3.92601 29.0977 2.00512 28.1292 2.00512 25.4697C2.00512 22.8102 3.91577 21.852 5.55492 21.8366H5.56005C5.66762 21.8366 5.73933 21.8418 5.85714 21.8469L5.84178 19.2745L5.85202 18.3778H2.73762C2.32783 18.3778 2 18.055 2 17.6553C2 17.2556 2.33295 16.9328 2.73762 16.9328H5.89812C6.20034 10.4096 7.92146 6.12578 14.6676 6.12578C15.0057 6.12578 15.3182 6.14115 15.6306 6.14115L18.5248 6.16677C18.2584 5.84907 18.0996 5.43401 18.0996 4.88571C18.0996 4.26568 18.2686 3.78913 18.6118 3.4663C18.9397 3.15373 19.416 3 20.0205 3C20.6249 3 21.1013 3.15885 21.4343 3.4663C21.7775 3.78913 21.9516 4.27081 21.9516 4.88571C21.9516 5.43401 21.7928 5.84907 21.5265 6.16677H24.3489C24.8662 6.12578 25.5936 6.12578 26.2134 6.16677L26.5464 6.18727C26.6488 6.19752 26.7666 6.21289 26.8691 6.22826C33.0057 7.02764 33.9124 14.0325 34.0507 19.2592V21.8418C34.2299 21.8366 34.2914 21.8418 34.4502 21.8315ZM15.5435 21.2986C15.9482 21.2986 16.2812 21.6214 16.2812 22.0211V25.4082C16.2812 25.8079 15.9482 26.1307 15.5435 26.1307C15.1337 26.1307 14.8059 25.8079 14.8059 25.4082V22.0211C14.8059 21.6266 15.1337 21.2986 15.5435 21.2986ZM24.3643 21.2986C24.7689 21.2986 25.1019 21.6214 25.1019 22.0211V25.4082C25.1019 25.8079 24.7689 26.1307 24.3643 26.1307C23.9545 26.1307 23.6266 25.8079 23.6266 25.4082V22.0211C23.6266 21.6266 23.9545 21.2986 24.3643 21.2986Z" fill="#86888C"/>
</svg>
