<svg width="40" height="40" viewBox="0 0 40 40" fill="none" xmlns="http://www.w3.org/2000/svg">
<path fill-rule="evenodd" clip-rule="evenodd" d="M18.7473 35.4814C25.8269 35.4814 28.0962 32.6639 28.0962 23.8733C28.0962 18.3562 27.1741 15.3338 25.0072 13.7713C23.6087 12.757 21.5596 12.2652 18.7473 12.2652C15.9144 12.2652 13.8499 12.7673 12.4463 13.7969C10.3101 15.3696 9.39828 18.3818 9.39828 23.8733C9.39828 32.6639 11.6676 35.4814 18.7473 35.4814ZM18.7626 6.16409C13.0559 6.16409 12.016 7.46526 12.016 10.0215C12.016 10.8565 12.1697 11.4968 12.4514 12.0091C14.0497 11.1639 16.1039 10.7284 18.7473 10.7284C21.4111 10.7284 23.4704 11.1741 25.0687 12.0245C25.3556 11.5071 25.5092 10.8616 25.5092 10.0215C25.5092 7.46013 24.4642 6.16409 18.7626 6.16409ZM33.6954 21.6245C34.1359 21.6245 34.4945 21.9626 34.4945 22.3878V25.4563C34.4843 25.8866 34.1257 26.2349 33.6954 26.2247C33.2651 26.2349 32.9065 25.8917 32.8962 25.4563V23.1562H29.6791C29.6843 23.3969 29.6996 23.6172 29.6996 23.8682C29.6996 26.9675 29.4281 29.6108 28.588 31.706L32.8911 32.961C33.2394 33.0635 33.4751 33.3862 33.4546 33.7346L33.1985 38.3604C33.1677 38.7753 32.8194 39.0929 32.3993 39.0878H32.3583C31.928 39.0725 31.5899 38.7139 31.6002 38.2836V38.2784L31.8256 34.252L27.8708 33.1096C26.3135 35.6146 23.5472 37.0234 18.7421 37.0234C13.9268 37.0234 11.1605 35.6095 9.60319 33.0891L5.57673 34.2571L5.79701 38.2836C5.81238 38.7139 5.4794 39.0725 5.04909 39.0878H4.99786C4.58292 39.0929 4.23458 38.7753 4.20384 38.3604L3.9477 33.7346C3.93234 33.376 4.16798 33.0533 4.51633 32.961L8.89626 31.6855C8.06125 29.6005 7.79487 26.9623 7.79487 23.8733C7.79487 23.6223 7.81024 23.402 7.81536 23.1613H4.59829V25.4614C4.58804 25.8917 4.23458 26.24 3.79914 26.2298C3.36884 26.24 3.01025 25.8968 3 25.4614V22.3929C3 21.9677 3.35859 21.6245 3.79914 21.6245H7.86146C8.04588 18.3562 8.65549 16.0151 9.78761 14.3451L4.52145 12.8083C4.1731 12.716 3.93746 12.3933 3.95283 12.0347L4.20896 7.40891C4.23458 6.98372 4.63415 6.63538 5.04909 6.68148C5.48964 6.70197 5.82774 7.06569 5.80725 7.49087L5.58698 11.5173L10.7712 13.0285C10.8122 13.0388 10.848 13.0695 10.8839 13.09L11.1246 12.8749C10.6636 12.1116 10.4126 11.1792 10.4126 10.0164C10.4126 6.64562 12.308 5.29322 15.3765 4.83218L14.9206 4.39675C14.6183 4.115 14.6081 3.63858 14.8898 3.34147L14.9206 3.31073C15.2382 3.01361 15.7351 3.01361 16.0527 3.31073L17.4563 4.65801C17.8815 4.64264 18.3067 4.62215 18.7575 4.62215C19.1981 4.62215 19.6027 4.64264 20.0177 4.65288L21.4213 3.31073C21.7389 3.01361 22.2358 3.01361 22.5534 3.31073C22.8659 3.61297 22.8659 4.09451 22.5534 4.39675L22.1026 4.82706C25.1968 5.28298 27.1024 6.63538 27.1024 10.0164C27.1024 11.1844 26.8514 12.1218 26.3801 12.8902C26.4416 12.9466 26.5082 12.9978 26.5697 13.0541C26.5901 13.0439 26.6055 13.0285 26.6311 13.0234L31.8204 11.5122L31.595 7.48575C31.5797 7.05544 31.9178 6.69173 32.3481 6.67636H32.3532C32.7733 6.63538 33.1472 6.94274 33.1882 7.3628C33.1882 7.37817 33.1882 7.38842 33.1933 7.40378L33.4495 12.0296C33.4648 12.3882 33.2292 12.7109 32.886 12.8031L27.7018 14.3143C28.8493 15.9792 29.4589 18.2998 29.633 21.6142L33.6954 21.6245ZM18.6192 15.4721C19.0597 15.4721 19.4183 15.8153 19.4183 16.2405V31.0554C19.4081 31.4857 19.0546 31.8341 18.6192 31.8238C18.1889 31.8341 17.8303 31.4908 17.82 31.0554V16.2405C17.82 15.8153 18.1786 15.4721 18.6192 15.4721Z" fill="#86888C"/>
</svg>
