<svg width="20" height="20" viewBox="0 0 20 20" fill="none" xmlns="http://www.w3.org/2000/svg">
<path fill-rule="evenodd" clip-rule="evenodd" d="M9.99878 16.485C13.1453 16.485 14.1539 15.2328 14.1539 11.3259C14.1539 8.87379 13.7441 7.5305 12.781 6.83609C12.1594 6.38529 11.2487 6.16672 9.99878 6.16672C8.73973 6.16672 7.82219 6.38984 7.19836 6.84747C6.24894 7.54644 5.84368 8.88518 5.84368 11.3259C5.84368 15.2328 6.85229 16.485 9.99878 16.485ZM10.0056 3.45509C7.46929 3.45509 7.00711 4.03339 7.00711 5.16949C7.00711 5.54061 7.07541 5.8252 7.20063 6.05288C7.91098 5.67721 8.82397 5.48369 9.99878 5.48369C11.1827 5.48369 12.098 5.68177 12.8083 6.05971C12.9358 5.82976 13.0041 5.54288 13.0041 5.16949C13.0041 4.03111 12.5396 3.45509 10.0056 3.45509ZM16.6424 10.3264C16.8382 10.3264 16.9976 10.4766 16.9976 10.6656V12.0294C16.993 12.2206 16.8336 12.3755 16.6424 12.3709C16.4511 12.3755 16.2918 12.2229 16.2872 12.0294V11.0071H14.8574C14.8597 11.1141 14.8665 11.212 14.8665 11.3236C14.8665 12.701 14.7458 13.8758 14.3724 14.807L16.2849 15.3649C16.4397 15.4104 16.5445 15.5538 16.5354 15.7086L16.4215 17.7646C16.4079 17.949 16.2531 18.0901 16.0664 18.0879H16.0481C15.8569 18.081 15.7066 17.9217 15.7112 17.7304V17.7281L15.8114 15.9386L14.0537 15.4309C13.3616 16.5442 12.1321 17.1703 9.9965 17.1703C7.85634 17.1703 6.62689 16.5419 5.93475 15.4218L4.14521 15.9409L4.24311 17.7304C4.24994 17.9217 4.10195 18.081 3.91071 18.0879H3.88794C3.70352 18.0901 3.5487 17.949 3.53504 17.7646L3.4212 15.7086C3.41437 15.5493 3.5191 15.4058 3.67392 15.3649L5.62056 14.7979C5.24944 13.8713 5.13105 12.6988 5.13105 11.3259C5.13105 11.2143 5.13788 11.1164 5.14016 11.0094H3.71035V12.0317C3.7058 12.2229 3.5487 12.3777 3.35518 12.3732C3.16393 12.3777 3.00455 12.2252 3 12.0317V10.6679C3 10.4789 3.15937 10.3264 3.35518 10.3264H5.16065C5.24261 8.87379 5.51355 7.83331 6.01671 7.09108L3.6762 6.40805C3.52138 6.36707 3.41665 6.22364 3.42348 6.06426L3.53732 4.00834C3.5487 3.81937 3.72629 3.66455 3.91071 3.68504C4.10651 3.69415 4.25677 3.8558 4.24767 4.04477L4.14977 5.83431L6.45385 6.50595C6.47207 6.51051 6.48801 6.52417 6.50394 6.53328L6.61095 6.43765C6.40604 6.09841 6.29448 5.68404 6.29448 5.16722C6.29448 3.6691 7.13688 3.06804 8.50067 2.86313L8.29803 2.6696C8.16371 2.54438 8.15915 2.33264 8.28437 2.20059L8.29803 2.18693C8.43919 2.05488 8.66004 2.05488 8.8012 2.18693L9.42503 2.78572C9.61401 2.77889 9.80298 2.76978 10.0033 2.76978C10.1991 2.76978 10.379 2.77889 10.5634 2.78344L11.1873 2.18693C11.3284 2.05488 11.5493 2.05488 11.6904 2.18693C11.8293 2.32126 11.8293 2.53528 11.6904 2.6696L11.4901 2.86085C12.8652 3.06348 13.7122 3.66455 13.7122 5.16722C13.7122 5.68632 13.6006 6.10297 13.3912 6.44448C13.4185 6.46953 13.4481 6.49229 13.4754 6.51734C13.4845 6.51279 13.4913 6.50595 13.5027 6.50368L15.8091 5.83203L15.7089 4.04249C15.7021 3.85125 15.8523 3.6896 16.0436 3.68277H16.0459C16.2326 3.66455 16.3988 3.80116 16.417 3.98785C16.417 3.99468 16.417 3.99924 16.4193 4.00607L16.5331 6.06199C16.5399 6.22136 16.4352 6.3648 16.2827 6.40578L13.9786 7.07742C14.4886 7.81737 14.7595 8.84875 14.8369 10.3218L16.6424 10.3264ZM9.94186 7.59197C10.1377 7.59197 10.297 7.74452 10.297 7.93349V14.5179C10.2925 14.7091 10.1354 14.864 9.94186 14.8594C9.75061 14.864 9.59124 14.7114 9.58668 14.5179V7.93349C9.58668 7.74452 9.74606 7.59197 9.94186 7.59197Z" fill="#86888C"/>
</svg>
