<svg width="20" height="20" viewBox="0 0 20 20" fill="none" xmlns="http://www.w3.org/2000/svg">
<path fill-rule="evenodd" clip-rule="evenodd" d="M15.4371 17.0233V2.97894C15.4371 2.83552 15.2596 2.66705 15.107 2.66705H5.08539C4.93513 2.66705 4.75528 2.83552 4.75528 2.97666V17.0211C4.75528 17.1736 4.92147 17.333 5.08539 17.333H8.37736V13.5242C8.37736 13.3398 8.52534 13.1918 8.70747 13.1918H11.4872C11.6693 13.1918 11.8173 13.3421 11.8173 13.5242V17.333H15.1093C15.2709 17.333 15.4371 17.1759 15.4371 17.0233ZM9.0353 17.3102H11.1571V13.8566H9.03758V17.3102H9.0353ZM15.107 2C15.6238 2 16.0973 2.4667 16.0973 2.97894V17.0233C16.0973 17.5424 15.6352 18 15.1093 18H5.08767C4.56177 18 4.09962 17.5424 4.09962 17.0233V2.97666C4.09734 2.4667 4.5686 2 5.08539 2H15.107ZM7.27776 6.23904H8.72113V4.77974H7.27549V6.23904H7.27776ZM9.05124 4.11269C9.23337 4.11269 9.38135 4.26295 9.38135 4.44508V6.57143C9.38135 6.75583 9.23337 6.90381 9.05124 6.90381H6.94538C6.76325 6.90381 6.61527 6.75356 6.61527 6.57143V4.44508C6.61527 4.26067 6.76325 4.11269 6.94538 4.11269H9.05124ZM11.4371 6.23904H12.8828V4.77974H11.4371V6.23904ZM13.2106 4.11269C13.3927 4.11269 13.5407 4.26295 13.5407 4.44508V6.57143C13.5407 6.75583 13.395 6.90381 13.2106 6.90381H11.107C10.9249 6.90381 10.7769 6.75356 10.7769 6.57143V4.44508C10.7769 4.26067 10.9226 4.11269 11.107 4.11269H13.2106ZM7.27776 10.4143H8.72341V8.95504H7.27776V10.4143ZM9.05124 8.28799C9.23337 8.28799 9.38135 8.43597 9.38135 8.62038V10.7467C9.38135 10.9311 9.23337 11.0791 9.05124 11.0791H6.94538C6.76325 11.0791 6.61527 10.9289 6.61527 10.7467V8.62038C6.61527 8.43597 6.76325 8.28799 6.94538 8.28799H9.05124ZM11.4371 10.4143H12.8828V8.95504H11.4371V10.4143ZM13.2106 8.28799C13.3927 8.28799 13.5407 8.43597 13.5407 8.62038V10.7467C13.5407 10.9311 13.395 11.0791 13.2106 11.0791H11.107C10.9249 11.0791 10.7769 10.9311 10.7769 10.7467V8.6181C10.7769 8.43369 10.9226 8.28571 11.107 8.28571L13.2106 8.28799Z" fill="#86888C"/>
</svg>
