<svg width="40" height="40" viewBox="0 0 40 40" fill="none" xmlns="http://www.w3.org/2000/svg">
<path fill-rule="evenodd" clip-rule="evenodd" d="M32.609 35.8025V4.20262C32.609 3.87991 32.2095 3.50085 31.8663 3.50085H9.31761C8.97954 3.50085 8.57487 3.87991 8.57487 4.1975V35.7974C8.57487 36.1406 8.9488 36.4991 9.31761 36.4991H16.7246V27.9294C16.7246 27.5145 17.0575 27.1816 17.4673 27.1816H23.7217C24.1315 27.1816 24.4645 27.5196 24.4645 27.9294V36.4991H31.8714C32.2351 36.4991 32.609 36.1457 32.609 35.8025ZM18.2049 36.4479H22.979V28.6773H18.21V36.4479H18.2049ZM31.8663 2C33.0291 2 34.0945 3.05009 34.0945 4.20262V35.8025C34.0945 36.9704 33.0547 38 31.8714 38H9.32274C8.13947 38 7.09963 36.9704 7.09963 35.8025V4.1975C7.09451 3.05009 8.15484 2 9.31761 2H31.8663ZM14.2505 11.5378H17.498V8.25441H14.2453V11.5378H14.2505ZM18.2408 6.75356C18.6506 6.75356 18.9835 7.09163 18.9835 7.50142V12.2857C18.9835 12.7006 18.6506 13.0336 18.2408 13.0336H13.5026C13.0928 13.0336 12.7598 12.6955 12.7598 12.2857V7.50142C12.7598 7.08651 13.0928 6.75356 13.5026 6.75356H18.2408ZM23.609 11.5378H26.8617V8.25441H23.609V11.5378ZM27.5993 6.75356C28.0091 6.75356 28.3421 7.09163 28.3421 7.50142V12.2857C28.3421 12.7006 28.0143 13.0336 27.5993 13.0336H22.8663C22.4565 13.0336 22.1235 12.6955 22.1235 12.2857V7.50142C22.1235 7.08651 22.4514 6.75356 22.8663 6.75356H27.5993ZM14.2505 20.9323H17.5032V17.6488H14.2505V20.9323ZM18.2408 16.148C18.6506 16.148 18.9835 16.4809 18.9835 16.8958V21.6801C18.9835 22.095 18.6506 22.428 18.2408 22.428H13.5026C13.0928 22.428 12.7598 22.0899 12.7598 21.6801V16.8958C12.7598 16.4809 13.0928 16.148 13.5026 16.148H18.2408ZM23.609 20.9323H26.8617V17.6488H23.609V20.9323ZM27.5993 16.148C28.0091 16.148 28.3421 16.4809 28.3421 16.8958V21.6801C28.3421 22.095 28.0143 22.428 27.5993 22.428H22.8663C22.4565 22.428 22.1235 22.095 22.1235 21.6801V16.8907C22.1235 16.4758 22.4514 16.1429 22.8663 16.1429L27.5993 16.148Z" fill="#86888C"/>
</svg>
