<svg width="28" height="28" viewBox="0 0 28 28" fill="none" xmlns="http://www.w3.org/2000/svg">
<path fill-rule="evenodd" clip-rule="evenodd" d="M22.1059 24.535V3.46841C22.1059 3.25327 21.8395 3.00057 21.6107 3.00057H6.57828C6.35289 3.00057 6.08312 3.25327 6.08312 3.465V24.5316C6.08312 24.7604 6.3324 24.9994 6.57828 24.9994H11.5162V19.2863C11.5162 19.0097 11.7382 18.7877 12.0114 18.7877H16.181C16.4542 18.7877 16.6762 19.0131 16.6762 19.2863V24.9994H21.6141C21.8566 24.9994 22.1059 24.7638 22.1059 24.535ZM12.5031 24.9653H15.6858V19.7849H12.5066V24.9653H12.5031ZM21.6107 2C22.3859 2 23.0962 2.70006 23.0962 3.46841V24.535C23.0962 25.3136 22.403 26 21.6141 26H6.58169C5.79285 26 5.09962 25.3136 5.09962 24.535V3.465C5.09621 2.70006 5.80309 2 6.57828 2H21.6107ZM9.86684 8.35857H12.0319V6.16961H9.86342V8.35857H9.86684ZM12.5271 5.16904C12.8002 5.16904 13.0222 5.39442 13.0222 5.66762V8.85714C13.0222 9.13375 12.8002 9.35572 12.5271 9.35572H9.36826C9.09507 9.35572 8.8731 9.13034 8.8731 8.85714V5.66762C8.8731 5.39101 9.09507 5.16904 9.36826 5.16904H12.5271ZM16.1059 8.35857H18.2744V6.16961H16.1059V8.35857ZM18.7661 5.16904C19.0393 5.16904 19.2613 5.39442 19.2613 5.66762V8.85714C19.2613 9.13375 19.0427 9.35572 18.7661 9.35572H15.6107C15.3375 9.35572 15.1156 9.13034 15.1156 8.85714V5.66762C15.1156 5.39101 15.3341 5.16904 15.6107 5.16904H18.7661ZM9.86684 14.6215H12.0353V12.4326H9.86684V14.6215ZM12.5271 11.432C12.8002 11.432 13.0222 11.654 13.0222 11.9306V15.1201C13.0222 15.3967 12.8002 15.6187 12.5271 15.6187H9.36826C9.09507 15.6187 8.8731 15.3933 8.8731 15.1201V11.9306C8.8731 11.654 9.09507 11.432 9.36826 11.432H12.5271ZM16.1059 14.6215H18.2744V12.4326H16.1059V14.6215ZM18.7661 11.432C19.0393 11.432 19.2613 11.654 19.2613 11.9306V15.1201C19.2613 15.3967 19.0427 15.6187 18.7661 15.6187H15.6107C15.3375 15.6187 15.1156 15.3967 15.1156 15.1201V11.9271C15.1156 11.6505 15.3341 11.4286 15.6107 11.4286L18.7661 11.432Z" fill="#86888C"/>
</svg>
