<svg width="24" height="24" viewBox="0 0 24 24" fill="none" xmlns="http://www.w3.org/2000/svg">
<path fill-rule="evenodd" clip-rule="evenodd" d="M20.75 16.967C20.4854 17.2344 20.1497 17.3881 19.8253 17.3881H19.6432C19.6574 17.243 19.6773 17.1007 19.6773 16.9442C19.6773 15.0322 18.5535 13.8913 16.67 13.8913C14.7864 13.8913 13.6626 15.0322 13.6626 16.9442C13.6626 17.1007 13.6825 17.243 13.6967 17.3881H9.78737C9.80159 17.243 9.82151 17.1007 9.82151 16.9442C9.82151 15.0322 8.69765 13.8913 6.81411 13.8913C4.93058 13.8913 3.80671 15.0322 3.80671 16.9442C3.80671 17.0751 3.82379 17.1918 3.83517 17.3141C3.61324 17.2458 3.41692 17.1349 3.24905 16.967C2.98445 16.6995 2.83365 16.3581 2.83365 16.0309V11.7346H15.1791C15.2217 11.7346 19.6802 11.5639 21.1654 14.705V16.0309C21.1654 16.3581 21.0118 16.6995 20.75 16.967ZM16.6671 19.155C15.2445 19.155 14.4905 18.3924 14.4905 16.9442C14.4905 15.4989 15.2445 14.7335 16.6671 14.7335C18.0897 14.7335 18.8437 15.4989 18.8437 16.9442C18.8437 18.3896 18.0926 19.155 16.6671 19.155ZM6.81127 19.155C5.38866 19.155 4.63467 18.3924 4.63467 16.9442C4.63467 15.4989 5.38866 14.7335 6.81127 14.7335C8.23388 14.7335 8.98786 15.4989 8.98786 16.9442C8.98786 18.3896 8.23672 19.155 6.81127 19.155ZM3.24621 6.26612C3.51081 5.99867 3.84655 5.84503 4.16806 5.84503H7.83555V10.8925H2.8308V7.20505C2.8308 6.875 2.98445 6.53357 3.24621 6.26612ZM8.66919 10.8925H13.6369V5.84503H8.66919V10.8925ZM15.768 5.84503C15.9871 5.84503 21.1654 5.92754 21.1654 12.5V13.1715C19.0855 10.7331 15.3242 10.8839 15.1591 10.8925H14.4678V5.84503H15.768ZM20.0302 6.83801C18.2178 5.00569 15.8363 5.00854 15.768 5H4.1709C3.63031 5 3.07834 5.24184 2.66009 5.66863C2.24184 6.09256 2 6.65307 2 7.20505V16.0309C2 16.58 2.239 17.1406 2.66009 17.5645C3.01859 17.9287 3.48236 18.1421 4.00303 18.2047C4.40421 19.3456 5.3915 20 6.81127 20C8.2225 20 9.20694 19.3598 9.61381 18.2331H13.8674C14.2743 19.357 15.2559 20 16.67 20C18.0812 20 19.0656 19.3598 19.4696 18.2331H19.8253C20.3687 18.2331 20.9179 17.9884 21.3361 17.5645C21.7544 17.1406 21.9962 16.58 21.9962 16.0309V12.5C21.9962 10.0616 21.3333 8.15819 20.0302 6.83801Z" fill="#86888C"/>
</svg>
