<svg width="40" height="40" viewBox="0 0 40 40" fill="none" xmlns="http://www.w3.org/2000/svg">
<path fill-rule="evenodd" clip-rule="evenodd" d="M35.75 29.5406C35.2737 30.022 34.6694 30.2986 34.0855 30.2986H33.7578C33.7834 30.0374 33.8192 29.7813 33.8192 29.4996C33.8192 26.058 31.7963 24.0044 28.4059 24.0044C25.0156 24.0044 22.9926 26.058 22.9926 29.4996C22.9926 29.7813 23.0285 30.0374 23.0541 30.2986H16.0173C16.0429 30.0374 16.0787 29.7813 16.0787 29.4996C16.0787 26.058 14.0558 24.0044 10.6654 24.0044C7.27504 24.0044 5.25209 26.058 5.25209 29.4996C5.25209 29.7352 5.28281 29.9452 5.3033 30.1654C4.90383 30.0425 4.55046 29.8428 4.24829 29.5406C3.772 29.0592 3.50057 28.4446 3.50057 27.8557V20.1223H25.7223C25.7991 20.1223 33.8244 19.8151 36.4977 25.4691V27.8557C36.4977 28.4446 36.2212 29.0592 35.75 29.5406ZM28.4008 33.4789C25.8401 33.4789 24.4829 32.1064 24.4829 29.4996C24.4829 26.898 25.8401 25.5203 28.4008 25.5203C30.9615 25.5203 32.3187 26.898 32.3187 29.4996C32.3187 32.1013 30.9666 33.4789 28.4008 33.4789ZM10.6603 33.4789C8.09958 33.4789 6.74241 32.1064 6.74241 29.4996C6.74241 26.898 8.09958 25.5203 10.6603 25.5203C13.221 25.5203 14.5781 26.898 14.5781 29.4996C14.5781 32.1013 13.2261 33.4789 10.6603 33.4789ZM4.24317 10.279C4.71946 9.79761 5.32379 9.52105 5.9025 9.52105H12.504V18.6064H3.49545V11.9691C3.49545 11.375 3.772 10.7604 4.24317 10.279ZM14.0046 18.6064H22.9465V9.52105H14.0046V18.6064ZM26.7824 9.52105C27.1768 9.52105 36.4977 9.66957 36.4977 21.5V22.7087C32.754 18.3196 25.9835 18.591 25.6865 18.6064H24.442V9.52105H26.7824ZM34.4543 11.3084C31.192 8.01024 26.9053 8.01536 26.7824 8H5.90763C4.93456 8 3.94101 8.43532 3.18816 9.20353C2.43532 9.96662 2 10.9755 2 11.9691V27.8557C2 28.8441 2.4302 29.853 3.18816 30.6161C3.83346 31.2716 4.66825 31.6557 5.60546 31.7684C6.32758 33.8221 8.1047 35 10.6603 35C13.2005 35 14.9725 33.8477 15.7049 31.8196H23.3613C24.0937 33.8426 25.8606 35 28.4059 35C30.9461 35 32.7181 33.8477 33.4454 31.8196H34.0855C35.0637 31.8196 36.0522 31.3792 36.805 30.6161C37.5578 29.853 37.9932 28.8441 37.9932 27.8557V21.5C37.9932 17.111 36.7999 13.6847 34.4543 11.3084Z" fill="#86888C"/>
</svg>
