<svg width="40" height="40" viewBox="0 0 40 40" fill="none" xmlns="http://www.w3.org/2000/svg">
<path fill-rule="evenodd" clip-rule="evenodd" d="M29.1165 30.7451C31.1965 30.6427 36.4426 29.7051 36.4426 23.0502C36.4426 16.4363 31.2324 15.4424 29.1165 15.3143V30.7451ZM27.554 31.2882V12.3071H3.56254V31.283C3.56254 33.1632 4.01338 34.5055 4.94066 35.3866C5.86281 36.2627 7.24605 36.693 9.18258 36.693H21.934C23.8705 36.693 25.2537 36.2678 26.1759 35.3866C27.1032 34.5055 27.554 33.1632 27.554 31.2882ZM38.0051 23.0451C38.0051 31.3138 30.9711 32.1693 29.0499 32.2513C28.8963 34.0495 28.3276 35.4532 27.2774 36.4625C26.0529 37.6306 24.306 38.1992 21.9391 38.1992H9.18258C6.81571 38.1992 5.06873 37.6306 3.84431 36.4574C2.5994 35.2791 2 33.5884 2 31.2882V11.5591C2 11.1441 2.34837 10.806 2.77871 10.806H28.3327C28.7631 10.806 29.1165 11.1441 29.1165 11.554V13.803C31.1863 13.926 38.0051 14.9301 38.0051 23.0451ZM12.1745 8.59797C12.1745 8.29058 11.9695 7.9627 11.7288 7.58872C11.4163 7.09178 11.0576 6.53336 11.0525 5.80588C11.0474 5.06815 11.406 4.49437 11.7236 3.98718C11.9644 3.60295 12.1745 3.26482 12.1745 2.95231C12.1745 2.53734 12.5228 2.19922 12.9532 2.19922C13.3835 2.19922 13.737 2.53734 13.737 2.94719C13.737 3.67979 13.3784 4.25358 13.0659 4.75564C12.8251 5.145 12.6151 5.478 12.6151 5.79051C12.6202 6.10302 12.8251 6.42577 13.0659 6.79976C13.3784 7.2967 13.7421 7.86024 13.7421 8.59284C13.7421 9.00781 13.3886 9.34082 12.9583 9.34082C12.5331 9.35106 12.1847 9.01806 12.1745 8.59797ZM17.2053 8.59797C17.2053 8.52624 17.0312 8.30595 16.9389 8.183C16.6828 7.85512 16.36 7.44527 16.3549 6.87661C16.3498 6.30282 16.6725 5.8776 16.9338 5.53948C17.0363 5.40628 17.2053 5.18598 17.2053 5.10914C17.2053 4.69417 17.5588 4.35604 17.9841 4.35604C18.4042 4.3458 18.7576 4.6788 18.7679 5.10401V5.10914C18.7679 5.68292 18.4451 6.0979 18.189 6.43602C18.0916 6.55897 17.9175 6.78951 17.9175 6.86636C17.9175 6.93808 18.0865 7.15325 18.189 7.28133C18.4349 7.59384 18.773 8.0293 18.773 8.60309C18.773 9.01806 18.4195 9.35106 17.9892 9.35106C17.564 9.35106 17.2156 9.01806 17.2053 8.59797Z" fill="#86888C"/>
</svg>
