<svg width="24" height="24" viewBox="0 0 24 24" fill="none" xmlns="http://www.w3.org/2000/svg">
<path fill-rule="evenodd" clip-rule="evenodd" d="M17.0647 18.058C18.2203 18.0011 21.1348 17.4803 21.1348 13.7831C21.1348 10.1087 18.2402 9.55655 17.0647 9.4854V18.058ZM16.1967 18.3597V7.8147H2.86808V18.3569C2.86808 19.4014 3.11854 20.1471 3.6337 20.6367C4.14601 21.1234 4.91447 21.3624 5.99032 21.3624H13.0744C14.1503 21.3624 14.9187 21.1262 15.4311 20.6367C15.9462 20.1471 16.1967 19.4014 16.1967 18.3597ZM22.0028 13.7803C22.0028 18.374 18.0951 18.8493 17.0278 18.8948C16.9424 19.8938 16.6264 20.6737 16.043 21.2344C15.3627 21.8833 14.3922 22.1992 13.0773 22.1992H5.99032C4.67539 22.1992 3.70485 21.8833 3.02462 21.2315C2.333 20.5769 2 19.6377 2 18.3597V7.39916C2 7.16862 2.19354 6.98078 2.43262 6.98078H16.6293C16.8684 6.98078 17.0647 7.16862 17.0647 7.39632V8.64578C18.2146 8.71409 22.0028 9.27194 22.0028 13.7803ZM7.65248 5.75408C7.65248 5.58331 7.53864 5.40115 7.40487 5.19338C7.23125 4.91731 7.03202 4.60707 7.02917 4.20292C7.02633 3.79307 7.22556 3.4743 7.40202 3.19253C7.53579 2.97907 7.65248 2.79122 7.65248 2.6176C7.65248 2.38707 7.84602 2.19922 8.0851 2.19922C8.32418 2.19922 8.52056 2.38707 8.52056 2.61476C8.52056 3.02176 8.32133 3.34053 8.14772 3.61945C8.01395 3.83576 7.89725 4.02076 7.89725 4.19438C7.9001 4.368 8.01395 4.5473 8.14772 4.75507C8.32133 5.03115 8.52341 5.34423 8.52341 5.75123C8.52341 5.98177 8.32702 6.16677 8.08795 6.16677C7.85171 6.17246 7.65818 5.98746 7.65248 5.75408ZM10.4474 5.75408C10.4474 5.71423 10.3506 5.59185 10.2994 5.52354C10.1571 5.34138 9.9778 5.11369 9.97495 4.79777C9.97211 4.479 10.1514 4.24277 10.2966 4.05492C10.3535 3.98092 10.4474 3.85853 10.4474 3.81584C10.4474 3.5853 10.6438 3.39745 10.88 3.39745C11.1134 3.39176 11.3098 3.57676 11.3155 3.81299V3.81584C11.3155 4.13461 11.1362 4.36515 10.9939 4.553C10.9398 4.62131 10.843 4.74938 10.843 4.79207C10.843 4.83192 10.937 4.95146 10.9939 5.02261C11.1305 5.19623 11.3183 5.43815 11.3183 5.75692C11.3183 5.98746 11.122 6.17246 10.8829 6.17246C10.6466 6.17246 10.4531 5.98746 10.4474 5.75408Z" fill="#86888C"/>
</svg>
