<svg width="40" height="40" viewBox="0 0 40 40" fill="none" xmlns="http://www.w3.org/2000/svg">
<path d="M32.6597 38.7778C31.3621 38.7778 29.9017 38.5081 28.3294 37.9687C24.803 36.7628 20.8696 34.2694 16.9616 30.7685C16.753 30.5802 16.7377 30.2596 16.926 30.051C17.1143 29.8475 17.4298 29.8271 17.6384 30.0103C21.4497 33.4196 25.261 35.8417 28.6601 37.007C31.6573 38.0349 34.1608 38.0145 35.7077 36.9561L35.7739 36.9103C36.3692 36.4829 36.817 36.1063 37.1122 35.801C38.3894 34.4627 39 33.211 38.9797 31.9745C38.9593 30.7888 38.3487 29.6134 37.1223 28.387C36.6542 27.9087 36.1301 27.4915 35.5551 27.1505L35.5398 27.1404C34.5679 26.5348 33.5807 26.3109 32.6139 26.4738C31.5911 26.6468 30.5582 27.2523 29.5303 28.2802C29.2504 28.555 28.9909 28.8552 28.7517 29.1656C28.7365 29.1859 28.7161 29.2063 28.6958 29.2267C27.9528 29.9136 26.8537 29.8729 25.4238 29.1096C24.3756 28.5448 23.1035 27.5831 21.5464 26.1583C21.3378 25.9751 21.3123 25.6494 21.5006 25.4408C21.6838 25.2322 22.0094 25.2067 22.2181 25.395C22.2232 25.4001 22.2282 25.4052 22.2333 25.4052C25.9581 28.8043 27.4134 28.9773 27.9783 28.5041C28.2327 28.1733 28.5126 27.8578 28.8128 27.5627C30.4411 25.9344 33.0261 24.3875 36.069 26.2753C36.7153 26.662 37.3106 27.1302 37.8398 27.6696C40.7047 30.5395 40.7098 33.5112 37.8449 36.5083C37.504 36.8645 37.0053 37.2767 36.3642 37.7448L36.3234 37.7754L36.298 37.7957C35.3363 38.4471 34.0998 38.7778 32.6597 38.7778ZM12.7076 26.316C12.5651 26.316 12.4278 26.255 12.3311 26.1481C8.79964 22.2198 6.28591 18.2711 5.06467 14.7295C3.91466 11.3965 3.97573 8.55709 5.23768 6.73031C5.24277 6.72013 5.25295 6.70996 5.25803 6.70487L5.28856 6.66416C5.75162 6.01792 6.16888 5.51924 6.52507 5.17831C9.52221 2.31347 12.4939 2.31856 15.3638 5.1834C15.9032 5.71261 16.3714 6.30796 16.7581 6.9542C18.651 9.99714 17.1041 12.5821 15.4707 14.2104C15.1756 14.5107 14.8652 14.7854 14.5293 15.0399C14.0561 15.6047 14.2291 17.06 17.613 20.7695C17.8063 20.9731 17.7961 21.2937 17.5926 21.487C17.3891 21.6804 17.0685 21.6702 16.8751 21.4667L16.8649 21.4565C15.4452 19.8994 14.4835 18.6324 13.9238 17.5841C13.1605 16.1593 13.1249 15.0653 13.8067 14.3224C13.8271 14.302 13.8424 14.2817 13.8678 14.2664C14.1833 14.0272 14.4784 13.7677 14.7532 13.4879C15.776 12.4651 16.3866 11.427 16.5596 10.4042C16.7225 9.4374 16.4986 8.45532 15.893 7.47832L15.8829 7.46306C15.5419 6.88805 15.1247 6.36394 14.6464 5.89579C13.42 4.66946 12.2446 4.05884 11.0589 4.03848C9.82244 4.01304 8.57066 4.62366 7.23238 5.90597C6.91689 6.21128 6.54034 6.65907 6.11799 7.25443C6.09764 7.27987 6.08237 7.30022 6.0722 7.32058C5.0087 8.87766 4.99343 11.3914 6.03149 14.3987C7.20694 17.8131 9.64943 21.6397 13.0893 25.4662C13.2775 25.6749 13.2623 25.9954 13.0536 26.1837C12.957 26.2702 12.8348 26.316 12.7076 26.316Z" fill="#86888C"/>
<path d="M31.3265 7.62589C31.6675 7.62589 31.754 7.82434 31.5097 8.06859L30.2732 9.3051C30.029 9.54935 29.8712 10.0226 29.9221 10.3635L30.1765 12.1394C30.2274 12.4803 30.5429 12.7958 30.8838 12.8467L32.6597 13.1011C32.7004 13.1062 32.7462 13.1113 32.7869 13.1113C33.1075 13.1113 33.5044 12.9637 33.7181 12.75L34.9546 11.5135C35.0462 11.4168 35.1378 11.3761 35.2091 11.3761C35.321 11.3761 35.3973 11.4881 35.3973 11.6967C35.3973 11.6967 35.4075 14.5005 34.1354 15.7726C32.8836 17.0244 30.1562 17.0346 30.0646 17.0346H30.0595C29.7186 17.0346 29.2402 17.233 28.996 17.4722L14.855 31.6081C14.6107 31.8523 14.4174 32.3306 14.4174 32.6716C14.4174 32.6716 14.4276 35.4754 13.1554 36.7475C11.9037 37.9993 9.17621 38.0094 9.08461 38.0094C8.74368 38.0094 8.65718 37.8059 8.90143 37.5667L10.1379 36.3302C10.3822 36.086 10.5399 35.6127 10.489 35.2718L10.2346 33.4959C10.1837 33.155 9.86824 32.8395 9.52731 32.7886L7.75142 32.5342C7.71071 32.5291 7.66492 32.524 7.62421 32.524C7.30363 32.524 6.90673 32.6716 6.69301 32.8853L5.45141 34.1218C5.35473 34.2134 5.26822 34.2592 5.19698 34.2592C5.08504 34.2592 5.00871 34.1472 5.00871 33.9386C5.00871 33.9386 4.99853 31.1348 6.27066 29.8627C7.52244 28.6109 10.2499 28.6008 10.3415 28.6008H10.3517C10.6926 28.6008 11.1709 28.4023 11.4152 28.1632L25.5511 14.0222C25.7953 13.7779 25.9887 13.2996 25.9887 12.9587C25.9887 12.9587 25.9785 10.1549 27.2506 8.88276C28.5075 7.64116 31.2349 7.62589 31.3265 7.62589ZM31.3265 6.60819C30.7261 6.61836 30.1307 6.67943 29.5405 6.79137C28.2174 7.04071 27.2048 7.50377 26.5382 8.17036C25.8615 8.84714 25.3933 9.87502 25.1491 11.2235C25.0422 11.7985 24.9862 12.3837 24.9811 12.9688C24.9608 13.091 24.915 13.2131 24.8387 13.3149L10.6977 27.4457C10.5959 27.5169 10.4789 27.5678 10.3517 27.5882H10.3466C9.74612 27.5983 9.14568 27.6594 8.55541 27.7662C7.23239 28.0156 6.21978 28.4786 5.55318 29.1452C4.87641 29.822 4.40826 30.8499 4.16401 32.1983C4.05716 32.7734 4.00118 33.3585 3.99609 33.9437C4.00118 34.824 4.60672 35.2871 5.20207 35.2871C5.44632 35.2871 5.8127 35.2108 6.17398 34.8495L7.4054 33.618C7.47155 33.5773 7.54279 33.557 7.61912 33.5468L9.24236 33.7809L9.47643 35.4092C9.47134 35.4855 9.4459 35.5568 9.40519 35.6229L8.17886 36.8493C7.76669 37.2614 7.63439 37.7957 7.82775 38.269C8.02111 38.7422 8.48926 39.0271 9.07444 39.0322H9.07952C9.67997 39.022 10.2804 38.961 10.8707 38.8541C12.1937 38.6048 13.2063 38.1417 13.8729 37.4751C14.5497 36.7984 15.0178 35.7705 15.2621 34.422C15.3689 33.847 15.4249 33.2618 15.43 32.6767C15.4503 32.5545 15.4961 32.4324 15.5725 32.3307L29.7135 18.1897C29.8152 18.1184 29.9323 18.0675 30.0595 18.0472H30.0646C30.665 18.037 31.2655 17.9759 31.8557 17.8691C33.1788 17.6197 34.1914 17.1567 34.858 16.4901C35.5347 15.8133 36.0029 14.7854 36.2471 13.437C36.354 12.862 36.41 12.2768 36.4151 11.6916C36.41 10.8164 35.8044 10.3584 35.2091 10.3584C34.9648 10.3584 34.5984 10.4348 34.2372 10.796L33.0007 12.0224C32.9345 12.0631 32.8633 12.0834 32.7869 12.0936L31.1586 11.8595L30.9245 10.2312C30.9347 10.1549 30.9551 10.0836 30.9958 10.0175L32.2272 8.78607C32.6394 8.3739 32.7717 7.83961 32.5783 7.36638C32.3849 6.89314 31.9168 6.60819 31.3316 6.6031L31.3265 6.60819Z" fill="#86888C"/>
</svg>
