<svg width="20" height="20" viewBox="0 0 20 20" fill="none" xmlns="http://www.w3.org/2000/svg">
<path d="M5.67412 18.0527C5.42892 18.0527 5.14934 18.0069 5.05539 17.9931L5.03935 17.9908L5.0256 17.9885C4.19604 17.835 3.43751 17.0513 2.88982 15.7794C2.30546 14.4205 1.99609 12.5964 1.99609 10.511V10.4331C1.99609 8.34774 2.30546 6.52362 2.88982 5.1647C3.43751 3.89285 4.19604 3.10683 5.0256 2.95559L5.03935 2.95329L5.05539 2.951C5.15622 2.93496 5.461 2.88455 5.71766 2.89142C7.1545 2.9235 7.88552 3.65453 7.88552 5.06157C7.88781 5.32052 7.85802 5.58177 7.79386 5.83384C7.63574 6.50529 7.14533 7.30276 5.69704 7.30276C5.55496 7.30276 5.41059 7.29589 5.2708 7.27756C4.9981 7.30735 4.85602 7.85275 4.79644 8.18045C4.6704 8.86106 4.65436 9.79145 4.65436 10.4331V10.5087C4.65436 11.1504 4.66811 12.0831 4.79644 12.7637C4.85831 13.0914 5.00039 13.6391 5.2708 13.6666C5.41288 13.6482 5.55496 13.6413 5.69704 13.6413C7.14533 13.6413 7.63803 14.4388 7.79386 15.1103C7.85802 15.3623 7.88781 15.6213 7.88552 15.8802C7.88552 17.2873 7.15679 18.0183 5.71766 18.0504L5.67412 18.0527ZM5.09893 17.5623L5.12414 17.5669C5.36705 17.6058 5.56413 17.6242 5.70621 17.6219C6.32494 17.6081 6.76264 17.4569 7.04679 17.1635C7.3195 16.8817 7.45241 16.4623 7.45241 15.8825C7.4547 15.658 7.42949 15.4357 7.3745 15.2203L7.3722 15.2134C7.19346 14.4457 6.64576 14.0745 5.69475 14.0745C5.56183 14.0745 5.42892 14.0813 5.2983 14.0997C5.28684 14.102 5.27538 14.102 5.26393 14.102C4.59707 14.0745 4.4252 13.1487 4.36791 12.8439C4.23499 12.1289 4.21895 11.171 4.21895 10.511V10.4331C4.21895 9.77312 4.23499 8.81523 4.36791 8.10024C4.4252 7.79546 4.59707 6.86965 5.26393 6.84444C5.27538 6.84444 5.28684 6.84444 5.2983 6.84674C5.42892 6.86507 5.56183 6.87194 5.69475 6.87194C6.64576 6.87194 7.19575 6.49841 7.3722 5.73301L7.3745 5.72614C7.42949 5.50844 7.4547 5.28615 7.45241 5.06386C7.45241 4.48409 7.3195 4.06472 7.04679 3.78286C6.76264 3.48724 6.32494 3.33828 5.70621 3.32453C5.56183 3.32224 5.36705 3.34058 5.12414 3.37953L5.09893 3.38412C3.77209 3.62932 2.42921 6.12946 2.42921 10.4331V10.511C2.42921 13.073 2.8967 14.6978 3.28856 15.6075C3.76751 16.7236 4.42749 17.4362 5.09893 17.5623ZM10.09 18.4446C9.96401 18.4446 9.86089 18.3414 9.86089 18.2154C9.86089 18.0894 9.96401 17.9862 10.09 17.9862C14.2493 17.9862 17.6226 14.613 17.6226 10.4537C17.6226 8.45544 16.8297 6.53966 15.4157 5.12803C14.0064 3.71182 12.0883 2.91663 10.09 2.92121C9.96401 2.92121 9.86089 2.81809 9.86089 2.69205C9.86089 2.56601 9.96401 2.46289 10.09 2.46289C14.506 2.46518 18.0809 6.04696 18.0786 10.4629C18.0763 13.6711 16.1559 16.5677 13.1998 17.8189C12.219 18.2337 11.1602 18.4468 10.09 18.4446Z" fill="#86888C"/>
<path d="M10.09 18.4446C9.96401 18.4446 9.86089 18.3414 9.86089 18.2154C9.86089 18.0894 9.96401 17.9862 10.09 17.9862C10.5621 17.9862 11.0227 17.7983 11.4627 17.4294C11.9027 17.0604 12.3015 16.5242 12.6475 15.839C13.3693 14.4045 13.7658 12.491 13.7658 10.4537C13.7658 8.41649 13.3671 6.50299 12.6475 5.06845C12.3037 4.38326 11.905 3.84931 11.4627 3.47807C11.0204 3.10683 10.5621 2.92121 10.09 2.92121C9.96401 2.92121 9.86089 2.81809 9.86089 2.69205C9.86089 2.56601 9.96401 2.46289 10.09 2.46289C11.2244 2.46289 12.2785 3.31537 13.0577 4.8622C13.8116 6.35862 14.2264 8.34545 14.2264 10.4537C14.2264 12.562 13.8116 14.5488 13.0577 16.0452C12.2785 17.5921 11.2244 18.4446 10.09 18.4446Z" fill="#86888C"/>
<path d="M10.0901 7.76108C9.96401 7.76108 9.86089 7.65796 9.86089 7.53192C9.86089 7.40588 9.96401 7.30276 10.0901 7.30276C11.2954 7.30276 12.4481 7.16527 13.5137 6.89715C14.5243 6.64278 15.4226 6.26925 16.1124 5.82009C16.2178 5.75134 16.3622 5.78113 16.4309 5.88655C16.4997 5.99196 16.4699 6.13633 16.3645 6.20508C14.8451 7.19276 12.5581 7.76108 10.0901 7.76108ZM16.2384 15.3142C16.1949 15.3142 16.1514 15.3005 16.1124 15.2776C15.4226 14.8284 14.5243 14.4572 13.5137 14.2005C12.4458 13.9301 11.2931 13.7949 10.0901 13.7949C9.96401 13.7949 9.86089 13.6918 9.86089 13.5657C9.86089 13.4397 9.96401 13.3366 10.0901 13.3366C12.5581 13.3366 14.8451 13.9049 16.3645 14.8949C16.4722 14.9636 16.502 15.1057 16.4332 15.2111C16.392 15.2753 16.3186 15.3142 16.2384 15.3142Z" fill="#86888C"/>
<path d="M10.0167 18.4629C9.89068 18.4629 9.78756 18.3598 9.78756 18.2337V2.69663C9.78756 2.5706 9.89068 2.46747 10.0167 2.46747C10.1428 2.46747 10.2459 2.5706 10.2459 2.69663V18.2337C10.2459 18.3598 10.1428 18.4629 10.0167 18.4629Z" fill="#86888C"/>
<path d="M17.6019 10.6898H10.1542C10.0282 10.6898 9.92505 10.5866 9.92505 10.4606C9.92505 10.3346 10.0282 10.2314 10.1542 10.2314H17.6019C17.728 10.2314 17.8311 10.3346 17.8311 10.4606C17.8311 10.5866 17.728 10.6898 17.6019 10.6898Z" fill="#86888C"/>
</svg>
