<svg width="41" height="40" viewBox="0 0 41 40" fill="none" xmlns="http://www.w3.org/2000/svg">
<path d="M30.8557 38C29.2927 38 27.4939 37.6106 25.5363 36.8319C21.4826 35.2129 17.0394 32.057 12.6834 27.7022L12.5246 27.5434C8.16853 23.1886 5.01169 18.7467 3.3974 14.6942C1.89585 10.9337 1.83948 7.74704 3.23341 5.72335C3.23853 5.7131 3.24878 5.70285 3.25391 5.69261L3.28465 5.65162C3.75101 5.00096 4.17123 4.49888 4.52997 4.16074C7.54844 1.27634 10.5413 1.28146 13.4316 4.16587C13.9749 4.69869 14.4463 5.29299 14.8307 5.94877C16.7371 9.01249 15.1792 11.6151 13.5341 13.2546C13.2369 13.5568 12.9192 13.8335 12.5861 14.0897C12.0377 14.7403 12.7603 16.1031 13.4675 17.1329C14.6308 18.8287 16.5577 20.8165 17.9004 22.1588L18.0593 22.3176C19.4071 23.6651 21.3903 25.5863 23.0866 26.7493C24.1218 27.4563 25.4799 28.1787 26.1307 27.6305C26.387 27.2975 26.6688 26.9798 26.9712 26.6827C28.6162 25.0432 31.2145 23.4858 34.2791 25.3865C34.9299 25.7759 35.5295 26.2472 36.0625 26.7903C38.9477 29.6747 38.9528 32.6718 36.0676 35.6894C35.7242 36.048 35.222 36.463 34.5763 36.9344L34.5353 36.9651L34.5097 36.9856C33.5411 37.6619 32.3009 38 30.8557 38ZM13.4111 26.9798C17.6698 31.2373 21.9899 34.3112 25.9155 35.8738C27.6681 36.5757 29.2722 36.9395 30.6815 36.9702C32.0037 36.9958 33.0901 36.7243 33.9152 36.1556L33.9818 36.1095C34.5814 35.6792 35.0324 35.3 35.3296 34.9926C36.6159 33.6452 37.2309 32.3849 37.2104 31.1399C37.1899 29.9462 36.5749 28.7627 35.3399 27.528C34.8684 27.0464 34.3406 26.6314 33.7615 26.2831L33.7461 26.2728C32.7621 25.6631 31.7731 25.4377 30.7994 25.6017C29.7693 25.7759 28.729 26.3855 27.6938 27.4204C27.4119 27.6971 27.1506 27.9994 26.9097 28.3119C26.8943 28.3324 26.8738 28.3529 26.8533 28.3734C24.9315 30.1409 21.1444 26.862 17.3316 23.0503L17.1727 22.8915C13.3701 19.0849 10.0903 15.2936 11.8583 13.3775C11.8788 13.357 11.8942 13.3365 11.9198 13.3212C12.2376 13.0804 12.5348 12.8191 12.8115 12.5373C13.8416 11.5024 14.4566 10.4573 14.6308 9.4326C14.7948 8.45918 14.5693 7.47038 13.9595 6.48671L13.9492 6.47134C13.6059 5.89754 13.1856 5.36472 12.7039 4.8985C11.4689 3.66379 10.285 3.04899 9.09098 3.0285C7.84567 3.00288 6.58498 3.61768 5.23718 4.90362C4.92457 5.20077 4.54534 5.65674 4.11486 6.25617C4.09436 6.28178 4.07899 6.30228 4.06874 6.32277C3.50502 7.14762 3.22828 8.23375 3.25391 9.55556C3.27953 10.9645 3.64851 12.568 4.3506 14.3202C5.91877 18.2446 8.99361 22.5636 13.2471 26.821L13.3343 26.9081L13.4111 26.9798Z" fill="#86888C"/>
<path d="M20.7703 19.5001C20.5141 19.5052 20.2681 19.3976 20.0939 19.2029C19.9094 18.9877 19.8376 18.6957 19.9042 18.4139L21.6774 10.1193C21.7491 9.79145 21.9439 9.5609 22.2206 9.48918C22.4974 9.41745 22.7843 9.51479 23.0098 9.76071L24.5575 11.4719H24.578L30.5073 6.37935C30.7431 6.15392 31.0659 6.03609 31.3888 6.06683C31.7321 6.09757 32.0447 6.27688 32.2446 6.55354L34.3406 8.88463C34.5661 9.1408 34.6737 9.48406 34.6276 9.82219C34.5866 10.145 34.4124 10.437 34.1459 10.6265L28.2166 15.842L29.7745 17.5686C30 17.8196 30.0666 18.1168 29.9641 18.3832C29.8616 18.6496 29.6054 18.8187 29.2671 18.8443L20.8523 19.4949C20.8216 19.5001 20.7959 19.5001 20.7703 19.5001ZM22.5794 10.8161L20.9446 18.4652L28.6624 17.8657L27.4581 16.5286C27.0789 16.1085 27.1147 15.468 27.535 15.0889C27.5401 15.0838 27.5401 15.0838 27.5452 15.0838L33.5002 9.84268L33.5617 9.79658C33.5975 9.77608 33.618 9.74022 33.6232 9.69923C33.6283 9.65825 33.618 9.61726 33.5975 9.5814L33.5924 9.57627L31.4759 7.22469C31.4605 7.20932 31.4452 7.19395 31.4349 7.17346C31.4093 7.13247 31.3683 7.10173 31.317 7.09661C31.2863 7.09148 31.2607 7.10173 31.235 7.1171C31.2248 7.12735 31.2094 7.13759 31.1992 7.15296L25.2545 12.2609C24.824 12.6246 24.1885 12.5836 23.8093 12.1687L22.5794 10.8161Z" fill="#86888C"/>
</svg>
