<svg width="20" height="20" viewBox="0 0 20 20" fill="none" xmlns="http://www.w3.org/2000/svg">
<path d="M14.7355 17.9191C14.1588 17.9191 13.5097 17.7993 12.8109 17.5596C11.2436 17.0236 9.49544 15.9154 7.75855 14.3594C7.66583 14.2758 7.65905 14.1333 7.74272 14.0406C7.8264 13.9501 7.96662 13.9411 8.05934 14.0225C9.75325 15.5377 11.4472 16.6142 12.9579 17.1321C14.29 17.589 15.4026 17.5799 16.0902 17.1095L16.1196 17.0892C16.3842 16.8992 16.5832 16.7318 16.7143 16.5961C17.282 16.0013 17.5534 15.445 17.5443 14.8954C17.5353 14.3685 17.2639 13.8461 16.7189 13.301C16.5108 13.0884 16.2779 12.903 16.0223 12.7515L16.0155 12.747C15.5836 12.4778 15.1448 12.3783 14.7151 12.4507C14.2606 12.5276 13.8015 12.7967 13.3446 13.2535C13.2202 13.3757 13.1049 13.5091 12.9986 13.6471C12.9918 13.6561 12.9828 13.6651 12.9737 13.6742C12.6435 13.9795 12.155 13.9614 11.5195 13.6222C11.0537 13.3711 10.4883 12.9437 9.79622 12.3105C9.7035 12.2291 9.69219 12.0843 9.77587 11.9916C9.85729 11.8989 10.002 11.8876 10.0948 11.9712C10.097 11.9735 10.0993 11.9758 10.1015 11.9758C11.757 13.4865 12.4038 13.5634 12.6548 13.3531C12.7679 13.2061 12.8923 13.0658 13.0257 12.9347C13.7494 12.211 14.8983 11.5234 16.2507 12.3625C16.5379 12.5344 16.8025 12.7424 17.0378 12.9822C18.311 14.2577 18.3133 15.5784 17.04 16.9105C16.8885 17.0688 16.6669 17.252 16.3819 17.4601L16.3638 17.4736L16.3525 17.4827C15.9251 17.7721 15.3755 17.9191 14.7355 17.9191ZM5.86789 12.3806C5.80456 12.3806 5.7435 12.3534 5.70053 12.3059C4.131 10.56 3.01379 8.80505 2.47102 7.231C1.9599 5.74967 1.98704 4.48772 2.54791 3.67582C2.55017 3.6713 2.55469 3.66677 2.55696 3.66451L2.57053 3.64642C2.77633 3.3592 2.96178 3.13757 3.12009 2.98604C4.45215 1.71278 5.7729 1.71504 7.04842 2.9883C7.28815 3.22351 7.49621 3.48811 7.66809 3.77533C8.50939 5.12774 7.82188 6.27662 7.09592 7.00032C6.96475 7.13375 6.82679 7.25588 6.67753 7.36895C6.4672 7.61999 6.54409 8.26679 8.04803 9.91547C8.13397 10.0059 8.12945 10.1484 8.03899 10.2344C7.94853 10.3203 7.80605 10.3158 7.72011 10.2253L7.71558 10.2208C7.08461 9.52875 6.65717 8.96562 6.4084 8.49974C6.06917 7.8665 6.05333 7.38026 6.35638 7.05007C6.36543 7.04103 6.37222 7.03198 6.38352 7.0252C6.52374 6.9189 6.65491 6.80356 6.77704 6.67918C7.23161 6.2246 7.503 5.76324 7.57989 5.30867C7.65226 4.87897 7.55275 4.44249 7.28363 4.00827L7.2791 4.00148C7.12758 3.74593 6.94213 3.51299 6.72954 3.30492C6.1845 2.75989 5.66208 2.4885 5.13514 2.47945C4.58558 2.46814 4.02923 2.73953 3.43444 3.30945C3.29423 3.44514 3.12687 3.64416 2.93916 3.90876C2.93011 3.92007 2.92333 3.92911 2.91881 3.93816C2.44614 4.6302 2.43935 5.74741 2.90071 7.084C3.42314 8.60151 4.50869 10.3022 6.0375 12.0029C6.12118 12.0956 6.1144 12.2381 6.02167 12.3218C5.9787 12.3602 5.92443 12.3806 5.86789 12.3806Z" fill="#86888C"/>
<path d="M14.143 4.07386C14.2945 4.07386 14.3329 4.16206 14.2244 4.27061L13.6748 4.82017C13.5663 4.92873 13.4961 5.13905 13.5188 5.29058L13.6318 6.07986C13.6545 6.23139 13.7947 6.3716 13.9462 6.39422L14.7355 6.5073C14.7536 6.50956 14.7739 6.51182 14.792 6.51182C14.9345 6.51182 15.1109 6.44624 15.2059 6.35125L15.7555 5.80169C15.7962 5.75872 15.8369 5.74063 15.8685 5.74063C15.9183 5.74063 15.9522 5.79038 15.9522 5.88311C15.9522 5.88311 15.9567 7.12923 15.3913 7.69462C14.835 8.25096 13.6228 8.25549 13.5821 8.25549H13.5798C13.4283 8.25549 13.2157 8.34369 13.1072 8.44998L6.82227 14.7326C6.71372 14.8412 6.62778 15.0537 6.62778 15.2053C6.62778 15.2053 6.6323 16.4514 6.06691 17.0168C5.51056 17.5731 4.29837 17.5777 4.25766 17.5777C4.10613 17.5777 4.06769 17.4872 4.17624 17.3809L4.7258 16.8313C4.83436 16.7228 4.90447 16.5125 4.88185 16.3609L4.76877 15.5716C4.74616 15.4201 4.60594 15.2799 4.45441 15.2573L3.66513 15.1442C3.64704 15.142 3.62668 15.1397 3.60859 15.1397C3.46611 15.1397 3.28971 15.2053 3.19472 15.3003L2.6429 15.8498C2.59993 15.8905 2.56148 15.9109 2.52982 15.9109C2.48007 15.9109 2.44614 15.8611 2.44614 15.7684C2.44614 15.7684 2.44162 14.5223 3.00701 13.9569C3.56336 13.4005 4.77556 13.396 4.81626 13.396H4.82079C4.97231 13.396 5.1849 13.3078 5.29345 13.2015L11.5761 6.91664C11.6846 6.80809 11.7706 6.5955 11.7706 6.44397C11.7706 6.44397 11.7661 5.19785 12.3314 4.63246C12.89 4.08064 14.1022 4.07386 14.143 4.07386ZM14.143 3.62154C13.8761 3.62607 13.6115 3.6532 13.3491 3.70296C12.7611 3.81378 12.3111 4.01958 12.0148 4.31584C11.714 4.61663 11.506 5.07347 11.3974 5.67278C11.3499 5.92834 11.325 6.18842 11.3228 6.4485C11.3137 6.50278 11.2934 6.55705 11.2595 6.60228L4.97457 12.8826C4.92934 12.9143 4.87733 12.9369 4.82079 12.946H4.81853C4.55166 12.9505 4.2848 12.9776 4.02246 13.0251C3.43445 13.1359 2.9844 13.3417 2.68813 13.638C2.38734 13.9388 2.17928 14.3956 2.07073 14.9949C2.02323 15.2505 1.99836 15.5106 1.99609 15.7707C1.99836 16.1619 2.26748 16.3677 2.53208 16.3677C2.64064 16.3677 2.80347 16.3338 2.96404 16.1732L3.51134 15.6259C3.54074 15.6078 3.5724 15.5988 3.60633 15.5943L4.32777 15.6983L4.4318 16.422C4.42954 16.4559 4.41823 16.4876 4.40014 16.517L3.8551 17.062C3.67191 17.2452 3.61311 17.4827 3.69905 17.693C3.78499 17.9033 3.99305 18.03 4.25313 18.0322H4.2554C4.52226 18.0277 4.78913 18.0006 5.05147 17.9531C5.63947 17.8423 6.08952 17.6365 6.38579 17.3402C6.68658 17.0394 6.89464 16.5826 7.0032 15.9833C7.05069 15.7277 7.07557 15.4676 7.07783 15.2075C7.08687 15.1533 7.10723 15.099 7.14115 15.0537L13.426 8.76886C13.4713 8.7372 13.5233 8.71458 13.5798 8.70554H13.5821C13.849 8.70102 14.1158 8.67388 14.3782 8.62638C14.9662 8.51557 15.4162 8.30976 15.7125 8.0135C16.0133 7.71271 16.2213 7.25588 16.3299 6.65656C16.3774 6.401 16.4023 6.14092 16.4045 5.88085C16.4023 5.49186 16.1331 5.28832 15.8685 5.28832C15.76 5.28832 15.5971 5.32224 15.4366 5.48281L14.887 6.02785C14.8576 6.04594 14.8259 6.05499 14.792 6.05951L14.0683 5.95548L13.9643 5.23178C13.9688 5.19785 13.9779 5.16619 13.996 5.13679L14.5433 4.58949C14.7264 4.40631 14.7852 4.16884 14.6993 3.95852C14.6134 3.74819 14.4053 3.62154 14.1452 3.61928L14.143 3.62154Z" fill="#86888C"/>
</svg>
