<svg width="29" height="28" viewBox="0 0 29 28" fill="none" xmlns="http://www.w3.org/2000/svg">
<path d="M21.3126 26C20.2706 26 19.0714 25.7403 17.7663 25.221C15.0639 24.1414 12.1018 22.0369 9.19784 19.1363L9.19443 19.1329L9.09535 19.0338V19.0304C6.19136 16.1263 4.08682 13.1642 3.01064 10.4618C2.0062 7.95068 1.96862 5.82562 2.89789 4.47952C2.90131 4.47269 2.90814 4.46585 2.91156 4.46244L2.93206 4.43511C3.24296 4.00121 3.52311 3.6664 3.75884 3.44091C5.77114 1.51742 7.76635 1.52084 9.69323 3.44432C10.0554 3.79964 10.3697 4.19595 10.6293 4.63326C11.9003 6.67632 10.8617 8.4119 9.76498 9.50518C9.56682 9.70675 9.355 9.89124 9.13293 10.0655C8.76737 10.4994 9.24909 11.4082 9.72056 12.0949C10.4961 13.2257 11.7807 14.5513 12.6758 15.4465L12.7817 15.5524C13.6802 16.4509 15.0024 17.7321 16.1333 18.5076C16.8234 18.9791 17.7287 19.4608 18.1626 19.0953C18.3335 18.8732 18.5214 18.6614 18.7229 18.4632C19.8196 17.3699 21.5518 16.3313 23.5948 17.5988C24.0287 17.8585 24.4284 18.1728 24.7837 18.535C26.7072 20.4619 26.7106 22.4571 24.7871 24.4694C24.5582 24.7086 24.2234 24.9853 23.793 25.2996L23.7656 25.3201L23.7485 25.3338C23.1028 25.7779 22.276 26 21.3126 26ZM9.68298 18.6545C12.5221 21.4902 15.4021 23.5435 18.0191 24.5856C19.1876 25.0536 20.2569 25.2962 21.1964 25.3167C22.0779 25.3338 22.8022 25.1527 23.3522 24.7735L23.3966 24.7427C23.7964 24.4557 24.097 24.2029 24.2952 23.9979C25.1527 23.0994 25.5627 22.2589 25.549 21.4287C25.5353 20.6327 25.1254 19.8435 24.302 19.0201C23.9877 18.699 23.6358 18.4222 23.2497 18.1899L23.2395 18.1831C22.5869 17.7765 21.9241 17.6262 21.275 17.7355C20.5883 17.8517 19.8948 18.2582 19.2046 18.9484C19.0167 19.1363 18.8425 19.3344 18.6819 19.5428C18.6717 19.5565 18.658 19.5702 18.6444 19.5838C17.3632 20.7625 14.8384 18.576 12.2966 16.0341L12.1907 15.9282C9.64882 13.3863 7.46228 10.8615 8.64096 9.58034C8.65463 9.56668 8.66488 9.55301 8.68196 9.54276C8.89378 9.38219 9.09193 9.20794 9.27642 9.02004C9.96313 8.33332 10.3731 7.63636 10.4893 6.94964C10.5986 6.30051 10.4483 5.64113 10.0417 4.98516L10.0349 4.97491C9.80597 4.58885 9.52582 4.23695 9.20468 3.92263C8.38131 3.09926 7.59211 2.68928 6.79607 2.67561C5.97271 2.66195 5.13226 3.07534 4.23373 3.93288C4.02533 4.13104 3.77592 4.43511 3.48894 4.83142C3.47528 4.8485 3.46503 4.86217 3.45819 4.87583C3.08238 5.42589 2.89789 6.15018 2.91498 7.03164C2.93206 7.97117 3.17804 9.04054 3.6461 10.209C4.69153 12.826 6.74141 15.7095 9.58049 18.5452L9.63173 18.5965L9.63857 18.6033L9.68298 18.6545Z" fill="#86888C"/>
</svg>
