<svg width="40" height="40" viewBox="0 0 40 40" fill="none" xmlns="http://www.w3.org/2000/svg">
<path d="M36.8559 39H13.869C13.0797 39 12.357 38.2774 12.357 37.4883V27.4954C12.357 27.2135 12.5877 26.9829 12.8696 26.9829C13.1515 26.9829 13.3821 27.2135 13.3821 27.4954V37.4883C13.3821 37.7086 13.6486 37.9751 13.869 37.9751H36.8559C37.0917 37.9751 37.3428 37.724 37.3428 37.4883V13.7154L27.6458 4.02491H13.869C13.6742 4.02491 13.3821 4.31701 13.3821 4.51174V9.50819C13.3821 9.79004 13.1515 10.0206 12.8696 10.0206C12.5877 10.0206 12.357 9.79004 12.357 9.50819V4.51174C12.357 3.74819 13.1053 3 13.869 3H27.861C27.9994 3 28.1275 3.05637 28.2249 3.14861L38.2192 13.1415C38.3166 13.2389 38.3679 13.367 38.3679 13.5053V37.4883C38.3679 38.2928 37.6606 39 36.8559 39Z" fill="#86888C"/>
<path d="M37.8553 14.0178H32.8582C31.2488 14.0178 29.8701 13.49 28.8707 12.4958C27.8713 11.5016 27.3485 10.1231 27.3485 8.5089V3.51246C27.3485 3.2306 27.5791 3 27.861 3C28.1429 3 28.3735 3.2306 28.3735 3.51246V8.5089C28.3735 11.23 30.1315 12.9929 32.8582 12.9929H37.8553C38.1372 12.9929 38.3679 13.2235 38.3679 13.5053C38.3679 13.7872 38.1372 14.0178 37.8553 14.0178ZM25.693 34.639C24.5142 34.639 23.156 34.3469 21.6851 33.7576C18.6509 32.5482 15.3246 30.1858 12.07 26.9317L12.0649 26.9265L11.9521 26.8189L11.947 26.8138C8.69245 23.5546 6.3297 20.2288 5.12013 17.195C3.98232 14.3458 3.94644 11.9321 5.00738 10.3896C5.0125 10.3794 5.01763 10.3742 5.02788 10.364L5.04838 10.3332C5.18163 10.1488 5.58141 9.5953 5.99143 9.20584C8.30293 6.99715 10.5939 7.00228 12.8029 9.21096C13.213 9.6158 13.5717 10.0668 13.869 10.5638C14.6788 11.8655 15.1606 13.8948 12.8849 16.1701C12.6645 16.3956 12.4288 16.6006 12.1776 16.7953C11.8189 17.2463 12.4442 18.3019 12.8491 18.8964C13.7101 20.1519 15.1401 21.6226 16.1395 22.6219L16.2574 22.7398C17.2568 23.7391 18.7278 25.1688 19.9835 26.0246C20.578 26.4346 21.6338 27.0547 22.0848 26.6959C22.2796 26.4448 22.4846 26.2091 22.7101 25.9888C24.9857 23.7135 27.0102 24.1952 28.3172 25.0048C28.8143 25.3021 29.2653 25.6557 29.6702 26.0708C31.8792 28.2794 31.8844 30.5752 29.6754 32.8813C29.2858 33.2912 28.7272 33.691 28.5478 33.8242L28.5171 33.8447L28.4914 33.8652C27.7483 34.3777 26.795 34.639 25.693 34.639ZM12.7927 26.204C19.4863 32.8967 25.4521 34.7005 27.902 33.0299L27.9481 32.994C28.3889 32.6763 28.7169 32.4047 28.9373 32.1741C30.7568 30.2678 30.7619 28.6074 28.9476 26.7933C28.6042 26.4448 28.2198 26.1374 27.7995 25.8863L27.7841 25.876C26.3286 24.969 24.9089 25.2406 23.4379 26.7113C23.2329 26.9163 23.0381 27.1315 22.8639 27.3673C22.8485 27.3878 22.828 27.4083 22.8075 27.4288C21.7056 28.4434 19.9732 27.2596 19.4094 26.8702C18.082 25.9631 16.5649 24.4873 15.5347 23.4624L15.4168 23.3445C14.3866 22.3145 12.9157 20.7976 12.0085 19.4703C11.619 18.9015 10.4299 17.1745 11.4499 16.0727C11.4704 16.0522 11.4857 16.0369 11.5114 16.0164C11.742 15.8421 11.9624 15.6474 12.1674 15.4424C13.6332 13.9768 13.91 12.5522 13.0028 11.0968L12.9926 11.0814C12.7414 10.6612 12.439 10.2769 12.0854 9.93352C10.271 8.11943 8.61045 8.12456 6.70384 9.94377C6.47833 10.159 6.20157 10.4921 5.8838 10.9328L5.84792 10.9789C4.17708 13.4233 5.98118 19.3935 12.6697 26.0861L12.7363 26.1527L12.7927 26.204Z" fill="#86888C"/>
</svg>
