<svg width="20" height="20" viewBox="0 0 20 20" fill="none" xmlns="http://www.w3.org/2000/svg">
<path d="M16.735 18H6.5186C6.1678 18 5.84662 17.6789 5.84662 17.3281V12.8868C5.84662 12.7616 5.94912 12.6591 6.07441 12.6591C6.19969 12.6591 6.3022 12.7616 6.3022 12.8868V17.3281C6.3022 17.4261 6.42065 17.5445 6.5186 17.5445H16.735C16.8398 17.5445 16.9514 17.4329 16.9514 17.3281V6.76242L12.6416 2.45552H6.5186C6.43204 2.45552 6.3022 2.58534 6.3022 2.67189V4.89253C6.3022 5.01779 6.19969 5.12028 6.07441 5.12028C5.94912 5.12028 5.84662 5.01779 5.84662 4.89253V2.67189C5.84662 2.33253 6.17919 2 6.5186 2H12.7373C12.7988 2 12.8557 2.02505 12.899 2.06605L17.3409 6.50733C17.3842 6.5506 17.407 6.60754 17.407 6.66904V17.3281C17.407 17.6857 17.0926 18 16.735 18Z" fill="#86888C"/>
<path d="M17.1792 6.8968H14.9582C14.243 6.8968 13.6302 6.66221 13.186 6.22036C12.7418 5.77851 12.5095 5.16584 12.5095 4.4484V2.22776C12.5095 2.10249 12.612 2 12.7373 2C12.8626 2 12.9651 2.10249 12.9651 2.22776V4.4484C12.9651 5.65779 13.7464 6.44128 14.9582 6.44128H17.1792C17.3045 6.44128 17.407 6.54377 17.407 6.66904C17.407 6.79431 17.3045 6.8968 17.1792 6.8968ZM11.7737 16.0618C11.2498 16.0618 10.6462 15.932 9.9924 15.67C8.64388 15.1325 7.16552 14.0826 5.71905 12.6363L5.71677 12.634L5.66666 12.5862L5.66438 12.5839C4.21791 11.1354 3.1678 9.65723 2.63021 8.3089C2.12452 7.04256 2.10857 5.96982 2.5801 5.28427C2.58238 5.27972 2.58466 5.27744 2.58921 5.27288L2.59832 5.25922C2.65755 5.17722 2.83523 4.93125 3.01746 4.75815C4.04479 3.77651 5.06302 3.77879 6.04479 4.76043C6.22703 4.94036 6.38648 5.14078 6.5186 5.36171C6.87851 5.94021 7.09263 6.84214 6.08124 7.85338C5.98329 7.9536 5.87851 8.0447 5.76689 8.13125C5.60743 8.33167 5.88534 8.80086 6.06529 9.06505C6.44798 9.62306 7.08352 10.2767 7.52771 10.7209L7.5801 10.7732C8.02429 11.2174 8.67805 11.8528 9.23614 12.2332C9.50037 12.4154 9.96962 12.691 10.1701 12.5315C10.2566 12.4199 10.3478 12.3152 10.448 12.2172C11.4594 11.206 12.3591 11.4201 12.94 11.7799C13.161 11.912 13.3614 12.0692 13.5414 12.2537C14.5232 13.2353 14.5254 14.2557 13.5437 15.2806C13.3705 15.4628 13.1222 15.6404 13.0425 15.6996L13.0288 15.7088L13.0175 15.7179C12.6872 15.9456 12.2635 16.0618 11.7737 16.0618ZM6.04024 12.3129C9.01518 15.2874 11.6667 16.0891 12.7555 15.3466L12.776 15.3307C12.9719 15.1895 13.1177 15.0688 13.2156 14.9663C14.0243 14.119 14.0266 13.3811 13.2202 12.5748C13.0676 12.4199 12.8967 12.2833 12.7099 12.1717L12.7031 12.1671C12.0562 11.764 11.4252 11.8847 10.7714 12.5384C10.6803 12.6295 10.5938 12.7251 10.5163 12.8299C10.5095 12.839 10.5004 12.8481 10.4913 12.8572C10.0015 13.3082 9.23158 12.7821 8.98101 12.609C8.39103 12.2058 7.71677 11.5499 7.25892 11.0944L7.20652 11.042C6.74867 10.5842 6.09491 9.91004 5.69172 9.32014C5.5186 9.06733 4.99012 8.29979 5.44343 7.81011C5.45254 7.801 5.45937 7.79416 5.47076 7.78505C5.57327 7.70762 5.67122 7.62107 5.76233 7.52996C6.41381 6.87858 6.53682 6.24541 6.13363 5.59858L6.12908 5.59174C6.01746 5.40498 5.88306 5.23416 5.72589 5.08157C4.91951 4.2753 4.18147 4.27758 3.33409 5.08612C3.23386 5.18178 3.11085 5.32982 2.96962 5.52569L2.95368 5.54619C2.21108 6.6326 3.0129 9.28598 5.98557 12.2605L6.01518 12.2901L6.04024 12.3129Z" fill="#86888C"/>
</svg>
