<svg width="21" height="20" viewBox="0 0 21 20" fill="none" xmlns="http://www.w3.org/2000/svg">
<path fill-rule="evenodd" clip-rule="evenodd" d="M16.7014 16.4174C17.2843 15.8072 17.5757 15.1947 17.5666 14.6004C17.5552 14.0289 17.2638 13.4529 16.7014 12.8905C16.4897 12.6741 16.2506 12.4852 15.991 12.3303C15.5106 12.0343 15.0324 11.9273 14.552 12.007C14.0602 12.0913 13.5729 12.3736 13.0993 12.8449C12.9855 12.9588 12.8785 13.0772 12.7783 13.2047C12.751 13.2388 12.7191 13.2661 12.6804 13.2866C12.4072 13.4392 11.9723 13.3094 11.3529 12.8836C10.6403 12.3941 9.81604 11.5949 9.25819 11.0371L9.19216 10.9733C8.63432 10.4155 7.83513 9.59349 7.34559 8.87855C6.92209 8.2615 6.79003 7.82889 6.94258 7.55339C6.96307 7.51468 6.99267 7.48053 7.02682 7.4532C7.17482 7.3348 7.26135 7.25739 7.38658 7.13444C7.86017 6.66084 8.14251 6.1713 8.22675 5.68177C8.30872 5.20362 8.20171 4.72319 7.90799 4.25187C7.75088 3.98775 7.5619 3.7464 7.34104 3.53237C6.77864 2.9677 6.20258 2.67625 5.63108 2.66714C5.05275 2.65348 4.4266 2.9472 3.81411 3.53237C3.62968 3.7168 3.46346 3.91944 3.31319 4.13347C2.73713 4.96454 2.76673 6.24644 3.37239 7.76969C4.03497 9.43183 5.33281 11.2556 7.12245 13.0453L7.12473 13.0476L7.18165 13.1045C8.97586 14.8987 10.7997 16.1942 12.4618 16.8568C13.9737 17.4602 15.2738 17.4875 16.0707 16.9365C16.3599 16.7293 16.5625 16.5608 16.7014 16.4174ZM17.1727 12.4169C17.8626 13.1045 18.2201 13.8354 18.2338 14.5868C18.2474 15.3632 17.8945 16.1328 17.1841 16.8773C16.9701 17.0913 16.7378 17.2849 16.4897 17.4579C15.9591 17.8268 15.3444 17.9976 14.6226 17.9976C13.8963 17.9976 13.088 17.8222 12.2159 17.4739C10.4718 16.7817 8.56829 15.4315 6.71716 13.5804L6.66024 13.5234C6.65113 13.5143 6.64203 13.5029 6.63292 13.4938C4.79773 11.6609 3.4498 9.75971 2.75307 8.01332C2.06089 6.27604 2.05861 4.77328 2.74396 3.78055L2.79178 3.7168C2.85098 3.63255 3.09233 3.29785 3.3519 3.04739C4.09872 2.33699 4.86149 1.98862 5.64474 1.99773C6.39384 2.01139 7.12473 2.36887 7.81463 3.05877C8.08786 3.33428 8.31328 3.61889 8.48177 3.90806C8.85518 4.51372 8.99407 5.15125 8.88478 5.79334C8.77777 6.42176 8.43168 7.03425 7.86017 7.60575C7.75316 7.71277 7.67119 7.78791 7.56645 7.87671C7.59377 7.97234 7.67119 8.16815 7.89888 8.50058C8.35654 9.16771 9.12841 9.96008 9.66576 10.4997L9.73179 10.5635C10.2714 11.1031 11.0661 11.8727 11.7309 12.3326C12.0656 12.5603 12.2614 12.64 12.3548 12.665C12.4436 12.5603 12.521 12.4783 12.628 12.3713C13.1995 11.7975 13.8097 11.4537 14.4404 11.3467C15.0848 11.2397 15.7201 11.374 16.3348 11.7566C16.6126 11.9182 16.8995 12.1436 17.1727 12.4169ZM14.1991 2.7104C11.9495 2.7104 10.8566 3.80332 10.8566 6.05518C10.8566 8.33436 11.9176 9.39768 14.1991 9.39768C16.4487 9.39768 17.5439 8.30477 17.5439 6.05518C17.5439 3.80332 16.4487 2.7104 14.1991 2.7104ZM14.1991 10.0648C11.6649 10.0648 10.1894 8.78747 10.1894 6.05518C10.1894 3.32289 11.6649 2.04327 14.1991 2.04327C16.7333 2.04327 18.211 3.32289 18.211 6.05518C18.211 8.78519 16.7333 10.0625 14.1991 10.0648ZM12.5984 7.65129C12.4686 7.52151 12.4686 7.30976 12.5984 7.17997L13.7255 6.0529L12.5984 4.92584C12.4686 4.79605 12.4686 4.5843 12.5984 4.45452C12.7282 4.32473 12.94 4.32473 13.0697 4.45452L14.1968 5.58158L15.3284 4.44996C15.4582 4.32018 15.67 4.32018 15.7997 4.44996C15.9295 4.57975 15.9295 4.7915 15.7997 4.92128L14.6681 6.0529L15.7975 7.18453C15.9273 7.31431 15.9273 7.52606 15.7975 7.65585C15.6677 7.78563 15.4559 7.78563 15.3262 7.65585L14.1945 6.52422L13.0697 7.65129C12.94 7.78108 12.7305 7.78335 12.6007 7.65357C12.6007 7.65357 12.5984 7.65357 12.5984 7.65129Z" fill="#86888C"/>
</svg>
