<svg width="29" height="28" viewBox="0 0 29 28" fill="none" xmlns="http://www.w3.org/2000/svg">
<path fill-rule="evenodd" clip-rule="evenodd" d="M23.9361 23.6273C24.8105 22.712 25.2476 21.7932 25.234 20.9018C25.2169 20.0446 24.7797 19.1805 23.9361 18.3369C23.6185 18.0124 23.2599 17.729 22.8705 17.4967C22.1499 17.0527 21.4327 16.8922 20.712 17.0117C19.9743 17.1381 19.2434 17.5616 18.533 18.2686C18.3623 18.4394 18.2017 18.617 18.0515 18.8082C18.0105 18.8595 17.9627 18.9004 17.9046 18.9312C17.4948 19.16 16.8424 18.9653 15.9135 18.3267C14.8444 17.5924 13.6081 16.3936 12.7713 15.5568L12.6723 15.4612C11.8355 14.6244 10.6367 13.3915 9.90242 12.319C9.26716 11.3935 9.06907 10.7446 9.2979 10.3313C9.32864 10.2732 9.37304 10.222 9.42427 10.181C9.64627 10.0034 9.77605 9.8873 9.9639 9.70287C10.6743 8.99248 11.0978 8.25818 11.2242 7.52387C11.3471 6.80665 11.1866 6.08601 10.746 5.37903C10.5104 4.98284 10.2269 4.62082 9.89559 4.29977C9.05199 3.45276 8.18791 3.0156 7.33065 3.00194C6.46315 2.98144 5.52393 3.42203 4.6052 4.29977C4.32855 4.57642 4.07923 4.88038 3.85382 5.20143C2.98973 6.44803 3.03413 8.37088 3.94262 10.6558C4.93649 13.149 6.88324 15.8847 9.56771 18.5691L9.57113 18.5726L9.65651 18.6579C12.3478 21.3493 15.0835 23.2926 17.5767 24.2865C19.8445 25.1915 21.7947 25.2325 22.9901 24.406C23.4238 24.0952 23.7278 23.8425 23.9361 23.6273ZM24.6431 17.6265C25.678 18.6579 26.2142 19.7543 26.2347 20.8813C26.2552 22.046 25.7258 23.2004 24.6602 24.3172C24.3392 24.6382 23.9908 24.9286 23.6185 25.1881C22.8227 25.7414 21.9006 25.9976 20.8179 25.9976C19.7284 25.9976 18.516 25.7346 17.2079 25.212C14.5917 24.1738 11.7365 22.1484 8.95978 19.3718L8.8744 19.2864C8.86073 19.2727 8.84707 19.2556 8.83341 19.242C6.08063 16.4926 4.05874 13.6408 3.01364 11.0212C1.97537 8.41528 1.97195 6.16114 2.99998 4.67205L3.0717 4.57642C3.1605 4.45005 3.52253 3.94799 3.91188 3.5723C5.03212 2.50671 6.17626 1.98416 7.35115 1.99782C8.4748 2.01831 9.57113 2.55452 10.606 3.58938C11.0158 4.00264 11.3539 4.42956 11.6067 4.86331C12.1668 5.77179 12.3751 6.72809 12.2112 7.69123C12.0507 8.63387 11.5315 9.5526 10.6743 10.4099C10.5138 10.5704 10.3908 10.6831 10.2337 10.8163C10.2747 10.9597 10.3908 11.2534 10.7324 11.7521C11.4188 12.7528 12.5766 13.9413 13.3827 14.7508L13.4817 14.8464C14.2912 15.6558 15.4831 16.8102 16.4804 17.5001C16.9825 17.8417 17.2762 17.9612 17.4162 17.9988C17.5494 17.8417 17.6655 17.7187 17.8261 17.5582C18.6833 16.6975 19.5986 16.1818 20.5447 16.0213C21.5112 15.8608 22.4641 16.0623 23.3863 16.6361C23.8029 16.8785 24.2333 17.2167 24.6431 17.6265ZM20.1827 3.06683C16.8083 3.06683 15.1689 4.7062 15.1689 8.08399C15.1689 11.5028 16.7605 13.0977 20.1827 13.0977C23.557 13.0977 25.1998 11.4584 25.1998 8.08399C25.1998 4.7062 23.557 3.06683 20.1827 3.06683ZM20.1827 14.0984C16.3814 14.0984 14.1682 12.1824 14.1682 8.08399C14.1682 3.98556 16.3814 2.06613 20.1827 2.06613C23.984 2.06613 26.2005 3.98556 26.2005 8.08399C26.2005 12.179 23.984 14.095 20.1827 14.0984ZM17.7817 10.4782C17.587 10.2835 17.587 9.96586 17.7817 9.77118L19.4723 8.08058L17.7817 6.38997C17.587 6.1953 17.587 5.87767 17.7817 5.68299C17.9763 5.48832 18.294 5.48832 18.4886 5.68299L20.1792 7.3736L21.8767 5.67616C22.0714 5.48149 22.389 5.48149 22.5837 5.67616C22.7783 5.87084 22.7783 6.18847 22.5837 6.38314L20.8862 8.08058L22.5802 9.77801C22.7749 9.97269 22.7749 10.2903 22.5802 10.485C22.3856 10.6797 22.0679 10.6797 21.8733 10.485L20.1758 8.78756L18.4886 10.4782C18.294 10.6728 17.9797 10.6763 17.7851 10.4816C17.7851 10.4816 17.7817 10.4816 17.7817 10.4782Z" fill="#86888C"/>
</svg>
