<svg width="25" height="24" viewBox="0 0 25 24" fill="none" xmlns="http://www.w3.org/2000/svg">
<path d="M19.1323 22C18.264 22 17.2646 21.7837 16.177 21.3511C13.925 20.4516 11.4566 18.6983 9.03658 16.279L8.94832 16.1908C6.52831 13.7714 4.77451 11.3037 3.87768 9.05234C3.04349 6.96318 3.01217 5.1928 3.78657 4.06853C3.78942 4.06283 3.79511 4.05714 3.79796 4.05145L3.81504 4.02868C4.07413 3.6672 4.30759 3.38827 4.50688 3.20041C6.18381 1.59797 7.8465 1.60081 9.45225 3.20326C9.75404 3.49927 10.016 3.82944 10.2295 4.19376C11.2886 5.89583 10.4231 7.34173 9.50919 8.25254C9.34406 8.42047 9.16754 8.57416 8.98248 8.71648C8.67785 9.07795 9.07929 9.83506 9.47218 10.4072C10.1185 11.3493 11.189 12.4536 11.9349 13.1993L12.0232 13.2876C12.7719 14.0361 13.8738 15.1035 14.8161 15.7496C15.3913 16.1424 16.1457 16.5437 16.5073 16.2392C16.6497 16.0542 16.8062 15.8777 16.9742 15.7126C17.8881 14.8018 19.3316 13.9365 21.0342 14.9925C21.3957 15.2088 21.7288 15.4707 22.0249 15.7724C23.6278 17.3748 23.6307 19.0399 22.0278 20.7163C21.837 20.9156 21.558 21.1461 21.1993 21.408L21.1765 21.4251L21.1623 21.4364C20.6242 21.8121 19.9352 22 19.1323 22ZM9.44086 15.8777C11.8068 18.2429 14.2069 19.9507 16.3877 20.8188C17.3614 21.2087 18.2526 21.4108 19.0355 21.4279C19.7701 21.4421 20.3736 21.2913 20.832 20.9753L20.869 20.9497C21.2021 20.7106 21.4527 20.5 21.6178 20.3292C22.3324 19.5807 22.6741 18.8805 22.6627 18.1889C22.6513 17.5257 22.3096 16.8682 21.6235 16.1822C21.3616 15.9147 21.0683 15.6841 20.7466 15.4906L20.7381 15.4849C20.1914 15.1462 19.6419 15.021 19.101 15.112C18.5287 15.2088 17.9508 15.5475 17.3757 16.1225C17.2191 16.2762 17.0739 16.4441 16.9401 16.6177C16.9315 16.6291 16.9201 16.6405 16.9087 16.6519C15.8411 17.6338 13.7371 15.8122 11.6189 13.6946L11.5306 13.6064C9.41809 11.4916 7.59596 9.38535 8.5782 8.32085C8.58959 8.30946 8.59813 8.29808 8.61236 8.28954C8.78888 8.15576 8.95401 8.0106 9.10776 7.85406C9.68002 7.27911 10.0217 6.69847 10.1185 6.12922C10.2096 5.58843 10.0843 5.0391 9.7455 4.49262L9.73981 4.48408C9.54905 4.1653 9.31559 3.86929 9.04797 3.61028C8.36182 2.92433 7.70415 2.58277 7.04078 2.57139C6.34894 2.55716 5.64856 2.89871 4.89978 3.61312C4.72611 3.77821 4.51542 4.03152 4.27627 4.36454C4.26488 4.37877 4.25634 4.39015 4.25065 4.40154C3.93747 4.85979 3.78372 5.4632 3.79796 6.19753C3.8122 6.98025 4.01718 7.87114 4.40723 8.84456C5.27844 11.0248 6.98668 13.4242 9.34976 15.7894L9.39816 15.8378L9.44086 15.8777Z" fill="#86888C"/>
<path d="M13.5293 11.7223C13.3869 11.7251 13.2503 11.6653 13.1535 11.5572C13.051 11.4376 13.0111 11.2754 13.0481 11.1189L14.0332 6.51075C14.0731 6.32858 14.1813 6.2005 14.335 6.16066C14.4888 6.12081 14.6482 6.17489 14.7735 6.31151L15.6333 7.26216H15.6447L18.9387 4.43297C19.0697 4.30774 19.2491 4.24227 19.4284 4.25935C19.6192 4.27643 19.7929 4.37605 19.9039 4.52974L21.0684 5.8248C21.1936 5.96711 21.2534 6.15781 21.2278 6.34566C21.205 6.52498 21.1082 6.68721 20.9602 6.79253L17.6661 9.69003L18.5316 10.6492C18.6569 10.7887 18.6939 10.9538 18.637 11.1018C18.58 11.2498 18.4377 11.3437 18.2498 11.3579L13.5749 11.7194C13.5578 11.7223 13.5435 11.7223 13.5293 11.7223ZM14.5343 6.89784L13.6261 11.1473L17.9138 10.8143L17.2447 10.0714C17.0341 9.83803 17.054 9.48225 17.2874 9.27162C17.2903 9.26878 17.2903 9.26878 17.2931 9.26878L20.6014 6.35705L20.6356 6.33143C20.6555 6.32005 20.6669 6.30012 20.6698 6.27735C20.6726 6.25458 20.6669 6.23181 20.6555 6.21189L20.6527 6.20904L19.4768 4.90261C19.4683 4.89407 19.4598 4.88553 19.4541 4.87414C19.4398 4.85137 19.4171 4.83429 19.3886 4.83145C19.3715 4.8286 19.3573 4.83429 19.343 4.84283C19.3373 4.84853 19.3288 4.85422 19.3231 4.86276L16.0205 7.70048C15.7813 7.90257 15.4283 7.8798 15.2176 7.64925L14.5343 6.89784Z" fill="#86888C"/>
</svg>
