<svg width="29" height="28" viewBox="0 0 29 28" fill="none" xmlns="http://www.w3.org/2000/svg">
<path fill-rule="evenodd" clip-rule="evenodd" d="M23.9294 23.6296C24.807 22.711 25.2407 21.7958 25.227 20.9045C25.21 20.0473 24.7729 19.1834 23.9294 18.3399C23.6118 18.0155 23.2532 17.732 22.8639 17.4998C22.1468 17.0559 21.4262 16.8954 20.7023 17.0149C19.9681 17.1378 19.2339 17.5647 18.5236 18.275C18.3528 18.4423 18.1923 18.6233 18.0421 18.8145C18.0011 18.8658 17.9533 18.9067 17.8986 18.9375C17.4854 19.1731 16.8366 18.9716 15.9043 18.333C14.8423 17.6057 13.6027 16.4036 12.766 15.5636L12.667 15.4679C11.8235 14.6245 10.6215 13.3814 9.8975 12.3262C9.26233 11.3939 9.06426 10.7417 9.29648 10.3319C9.32721 10.2739 9.3716 10.2226 9.42283 10.1817C9.6448 10.0075 9.77115 9.89139 9.95897 9.70357C10.6693 8.99327 11.0927 8.25906 11.2191 7.52486C11.342 6.80431 11.1815 6.08376 10.741 5.38029C10.5054 4.98416 10.2185 4.62218 9.89067 4.30118C9.04719 3.4577 8.18322 3.02059 7.32607 3.00352H7.27485C6.40063 3.00352 5.50251 3.44062 4.60439 4.30118C4.32778 4.57779 4.07508 4.8783 3.85311 5.20272C2.98914 6.44916 3.03012 8.37175 3.9419 10.6563C4.93564 13.1424 6.87531 15.8777 9.5526 18.5584L9.56967 18.5755L9.65504 18.6609C12.346 21.3518 15.0813 23.2983 17.5742 24.2886C19.8383 25.1936 21.7848 25.238 22.9869 24.4082C23.1815 24.2682 23.6289 23.9437 23.9294 23.6296ZM24.6363 17.6296C25.671 18.6643 26.2071 19.7605 26.2276 20.884C26.2481 22.0485 25.7222 23.2027 24.6533 24.3194C24.2879 24.7019 23.803 25.0536 23.622 25.1834C23.5913 25.2073 23.5606 25.2277 23.5298 25.2482C22.8161 25.7434 21.8941 26.0029 20.815 26.0029C19.7256 26.0029 18.5133 25.74 17.2054 25.2175C14.5862 24.176 11.7313 22.1509 8.95499 19.3712L8.87644 19.2926L8.85595 19.2721C6.07622 16.4924 4.05459 13.6375 3.00963 11.0217C1.9715 8.41615 1.96808 6.16231 2.99597 4.66999C3.15647 4.45144 3.51845 3.94945 3.91116 3.57381C5.02442 2.50835 6.16842 1.99953 7.34315 2.00295C8.46665 2.02344 9.56284 2.55958 10.5976 3.59429C11.0073 4.0075 11.3454 4.43436 11.5947 4.86464C12.1582 5.77301 12.3631 6.72918 12.1992 7.6956C12.0386 8.64153 11.5196 9.55673 10.6624 10.4173C10.5224 10.5607 10.3756 10.6973 10.2219 10.8237C10.2595 10.9671 10.379 11.2574 10.7205 11.7593C11.3966 12.7463 12.5577 13.9449 13.3705 14.7576L13.4695 14.8567C14.2822 15.666 15.474 16.8271 16.4678 17.5101C16.9664 17.8515 17.26 17.9676 17.4035 18.0086C17.5367 17.8515 17.6493 17.7286 17.8133 17.5681C18.6738 16.7075 19.589 16.1919 20.5315 16.0314C21.5014 15.8675 22.4541 16.0758 23.3727 16.6461C23.7962 16.8851 24.2265 17.2198 24.6363 17.6296ZM16.6351 9.62161C16.5054 9.72064 16.4439 9.82309 16.4302 9.94261C16.4131 10.0655 16.4507 10.1919 16.5327 10.2875L17.6869 11.5715C17.7928 11.7081 17.9055 11.7696 18.0284 11.7798C18.1445 11.7901 18.2606 11.7525 18.346 11.6706L21.4433 9.00693C21.6482 8.82935 21.959 8.84643 22.14 9.05132L22.8195 9.8026C22.8571 9.84699 22.9459 9.91529 23.0381 9.89139C23.1405 9.86065 23.1747 9.75138 23.1849 9.70698L24.1684 5.10368C24.1923 5.01831 24.1718 4.92611 24.1138 4.85781C24.0591 4.79976 23.9806 4.76561 23.902 4.76902H23.8781L19.2065 5.12417C19.1485 5.12759 19.0426 5.15149 19.0051 5.2437C18.9675 5.33931 19.029 5.4281 19.0665 5.46908L19.7359 6.21353C19.9203 6.42184 19.9032 6.73943 19.6949 6.92383C19.6983 6.92725 16.6351 9.62161 16.6351 9.62161ZM16.9186 12.2067L15.7916 10.9568C15.2623 10.3661 15.3101 9.45769 15.9009 8.92838C15.9351 8.89765 15.9726 8.86691 16.0102 8.8396L18.6567 6.51063L18.3221 6.14182C18.0011 5.78325 17.9055 5.29833 18.0728 4.87489C18.2401 4.45485 18.6431 4.168 19.1246 4.13044L23.7928 3.76846L23.8986 3.76504C24.2743 3.76504 24.6226 3.92213 24.8651 4.19873C25.1314 4.50266 25.2339 4.90903 25.1451 5.31541L24.1616 9.91871C24.0625 10.3831 23.7313 10.7451 23.2942 10.8612C22.8468 10.9739 22.3756 10.8237 22.0717 10.4788L21.7267 10.086L19.0221 12.4116C18.7353 12.6814 18.3426 12.818 17.9464 12.777C17.5367 12.7428 17.1644 12.5345 16.9186 12.2067Z" fill="#86888C"/>
</svg>
