<svg width="40" height="40" viewBox="0 0 40 40" fill="none" xmlns="http://www.w3.org/2000/svg">
<path fill-rule="evenodd" clip-rule="evenodd" d="M20.2062 25.5817C23.1782 25.5253 23.1782 23.123 23.1782 22.3325C23.1782 21.542 23.1782 19.1295 20.1754 19.0576C20.0676 19.0525 19.9444 19.0525 19.8263 19.0525H19.739C16.8235 19.0781 16.8235 21.5061 16.8235 22.3017C16.8235 23.1025 16.8235 25.5407 19.7852 25.5869H19.9238L20.2062 25.5817ZM20.2267 16.8658C21.279 16.8914 25.3803 17.3124 25.3803 22.3325C25.3803 27.3629 21.2738 27.753 20.2421 27.7736C20.1446 27.7736 20.0316 27.7787 19.9238 27.7787H19.7493C18.6714 27.7633 14.6162 27.3681 14.6162 22.3068C14.6162 17.2559 18.6354 16.8812 19.7134 16.8709H19.8212C19.9598 16.8606 20.1035 16.8606 20.2267 16.8658ZM35.4822 31.5977C35.7748 31.2846 35.8005 30.6532 35.7902 30.5352L35.7851 14.176C35.7851 13.6679 35.6773 13.3034 35.4565 13.093C35.2101 12.8517 34.8457 12.8312 34.8406 12.8312L24.5949 12.826C24.1997 12.826 23.8352 12.6156 23.6402 12.2819L21.8282 9.18669L17.8552 9.19696L16.3923 12.2152C16.2075 12.5899 15.8225 12.8312 15.4016 12.8312C10.6689 12.8312 6.65996 12.8312 5.65387 12.8414C5.0841 12.8466 4.68372 12.9698 4.46813 13.2162C4.17555 13.5447 4.20121 14.058 4.20634 14.0631L4.25767 30.4736C4.29874 31.8184 4.99684 31.8082 5.01737 31.8184L34.8252 31.8236C35.2307 31.8133 35.3949 31.6901 35.4822 31.5977ZM37.9974 30.4633C38.0077 30.5557 38.0744 32.0546 37.094 33.0914C36.7039 33.5072 35.9904 34 34.8252 34L5.04817 33.9949C4.20121 33.9949 2.14285 33.4251 2.05558 30.4941L2.00939 14.1709C1.99912 14.135 1.88619 12.7952 2.82555 11.743C3.27726 11.2451 4.12935 10.6445 5.64361 10.6394C6.59836 10.6342 10.2788 10.6291 14.7138 10.6291L15.8995 8.21654C16.2691 7.46711 17.0185 7 17.8552 7H21.8539C22.6238 7 23.3476 7.41578 23.7377 8.08308L25.2263 10.6291L34.82 10.6394C34.9227 10.6599 36.093 10.6445 37.0016 11.5274C37.4533 11.9688 37.9923 12.785 37.9923 14.176V30.4633H37.9974Z" fill="#86888C"/>
</svg>
