<svg width="28" height="28" viewBox="0 0 28 28" fill="none" xmlns="http://www.w3.org/2000/svg">
<path fill-rule="evenodd" clip-rule="evenodd" d="M14.1374 17.3878C16.1188 17.3502 16.1188 15.7487 16.1188 15.2217C16.1188 14.6947 16.1188 13.0863 14.1169 13.0384C14.045 13.035 13.9629 13.035 13.8842 13.035H13.826C11.8823 13.0521 11.8823 14.6707 11.8823 15.2011C11.8823 15.735 11.8823 17.3605 13.8568 17.3913H13.9492L14.1374 17.3878ZM14.1511 11.5772C14.8526 11.5943 17.5869 11.8749 17.5869 15.2217C17.5869 18.5753 14.8492 18.8354 14.1614 18.849C14.0964 18.849 14.0211 18.8525 13.9492 18.8525H13.8329C13.1142 18.8422 10.4108 18.5787 10.4108 15.2046C10.4108 11.8373 13.0903 11.5875 13.8089 11.5806H13.8808C13.9732 11.5738 14.069 11.5738 14.1511 11.5772ZM24.3215 21.3985C24.5165 21.1897 24.5336 20.7688 24.5268 20.6901L24.5234 9.78403C24.5234 9.44525 24.4515 9.20228 24.3044 9.06198C24.1401 8.90114 23.8971 8.88745 23.8937 8.88745L17.0633 8.88403C16.7998 8.88403 16.5568 8.74373 16.4268 8.52129L15.2188 6.45779L12.5701 6.46464L11.5948 8.47681C11.4717 8.72662 11.215 8.88745 10.9344 8.88745C7.77926 8.88745 5.10664 8.88745 4.43591 8.8943C4.05607 8.89772 3.78915 8.97985 3.64542 9.14411C3.45036 9.36312 3.46747 9.70532 3.4709 9.70875L3.50512 20.649C3.53249 21.5456 3.99789 21.5388 4.01158 21.5456L23.8834 21.549C24.1538 21.5422 24.2633 21.4601 24.3215 21.3985ZM25.9983 20.6422C26.0051 20.7038 26.0496 21.703 25.396 22.3943C25.1359 22.6715 24.6602 23 23.8834 23L4.03211 22.9966C3.46747 22.9966 2.09523 22.6167 2.03706 20.6627L2.00626 9.78061C1.99941 9.75665 1.92413 8.8635 2.55036 8.16198C2.8515 7.83004 3.41956 7.42966 4.42907 7.42624C5.06557 7.42281 7.51918 7.41939 10.4758 7.41939L11.2663 5.81103C11.5127 5.31141 12.0123 5 12.5701 5H15.2359C15.7492 5 16.2317 5.27719 16.4918 5.72205L17.4842 7.41939L23.88 7.42624C23.9485 7.43992 24.7287 7.42966 25.3344 8.01825C25.6355 8.31255 25.9949 8.85665 25.9949 9.78403V20.6422H25.9983Z" fill="#86888C"/>
</svg>
