<svg width="28" height="28" viewBox="0 0 28 28" fill="none" xmlns="http://www.w3.org/2000/svg">
<path fill-rule="evenodd" clip-rule="evenodd" d="M13.9966 24.9994C10.5919 24.9994 7.9761 24.1833 6.14912 22.5783L22.5783 6.14912C24.1833 7.97951 24.9994 10.5919 24.9994 14.0034C24.9994 21.3011 21.2977 24.9994 13.9966 24.9994ZM13.9966 3.00057C17.4217 3.00057 20.0444 3.82356 21.8714 5.44223L5.44223 21.8714C3.82356 20.0444 3.00057 17.4217 3.00057 14C3.00057 6.70233 6.69892 3.00057 13.9966 3.00057ZM13.9966 2C6.41548 2 2 5.82812 2 14.0034C2 22.1787 6.41548 26 13.9966 26C21.5777 26 26 22.1787 26 14.0034C26 5.82812 21.5777 2 13.9966 2" fill="#86888C"/>
</svg>
