<svg width="24" height="24" viewBox="0 0 24 24" fill="none" xmlns="http://www.w3.org/2000/svg">
<path fill-rule="evenodd" clip-rule="evenodd" d="M11.9972 21.1662C9.15993 21.1662 6.98008 20.4861 5.4576 19.1485L19.1485 5.4576C20.4861 6.98293 21.1662 9.15993 21.1662 12.0028C21.1662 18.0842 18.0814 21.1662 11.9972 21.1662ZM11.9972 2.83381C14.8515 2.83381 17.037 3.51964 18.5595 4.86853L4.86853 18.5595C3.51964 17.037 2.83381 14.8515 2.83381 12C2.83381 5.91861 5.91577 2.83381 11.9972 2.83381ZM11.9972 2C5.67957 2 2 5.1901 2 12.0028C2 18.8156 5.67957 22 11.9972 22C18.3147 22 22 18.8156 22 12.0028C22 5.1901 18.3147 2 11.9972 2" fill="#86888C"/>
</svg>
