<svg width="28" height="28" viewBox="0 0 28 28" fill="none" xmlns="http://www.w3.org/2000/svg">
<path fill-rule="evenodd" clip-rule="evenodd" d="M18.8458 9.15083C19.0404 9.34548 19.0404 9.66306 18.8458 9.85771L14.7001 14.0034L18.8458 18.1525C19.037 18.3506 19.0336 18.6682 18.8321 18.8594C18.6374 19.0472 18.3301 19.0472 18.1389 18.8594L13.9932 14.7103L9.85771 18.8458C9.66306 19.0404 9.34548 19.0404 9.15083 18.8458C8.95617 18.6511 8.95617 18.3369 9.15083 18.1389L13.2863 14.0034L9.15083 9.87137C8.95617 9.67672 8.95617 9.36255 9.15083 9.16448C9.34548 8.96984 9.65965 8.96984 9.85771 9.16448L13.9932 13.2999L18.1423 9.15083C18.3369 8.95617 18.6511 8.95617 18.8458 9.15083ZM13.9966 24.9994C21.2977 24.9994 24.9994 21.3011 24.9994 14.0034C24.9994 6.70233 21.2977 3.00057 13.9966 3.00057C6.69892 3.00057 3.00057 6.70233 3.00057 14.0034C3.00057 21.3011 6.69892 24.9994 13.9966 24.9994ZM13.9966 2C21.5777 2 26 5.82812 26 14.0034C26 22.1787 21.5777 26 13.9966 26C6.41548 26 2 22.1787 2 14.0034C2 5.82812 6.41548 2 13.9966 2Z" fill="#86888C"/>
</svg>
