<svg width="20" height="20" viewBox="0 0 20 20" fill="none" xmlns="http://www.w3.org/2000/svg">
<path fill-rule="evenodd" clip-rule="evenodd" d="M13.2305 6.76722C13.3603 6.89698 13.3603 7.10871 13.2305 7.23848L10.4667 10.0023L13.2305 12.7684C13.358 12.9004 13.3557 13.1121 13.2214 13.2396C13.0916 13.3648 12.8867 13.3648 12.7592 13.2396L9.99545 10.4735L7.23848 13.2305C7.10871 13.3603 6.89698 13.3603 6.76722 13.2305C6.63745 13.1007 6.63745 12.8913 6.76722 12.7592L9.52419 10.0023L6.76722 7.24758C6.63745 7.11781 6.63745 6.90837 6.76722 6.77632C6.89698 6.64656 7.10643 6.64656 7.23848 6.77632L9.99545 9.5333L12.7615 6.76722C12.8913 6.63745 13.1007 6.63745 13.2305 6.76722ZM9.99772 17.333C14.8651 17.333 17.333 14.8674 17.333 10.0023C17.333 5.13489 14.8651 2.66705 9.99772 2.66705C5.13261 2.66705 2.66705 5.13489 2.66705 10.0023C2.66705 14.8674 5.13261 17.333 9.99772 17.333ZM9.99772 2C15.0518 2 18 4.55208 18 10.0023C18 15.4525 15.0518 18 9.99772 18C4.94365 18 2 15.4525 2 10.0023C2 4.55208 4.94365 2 9.99772 2Z" fill="#86888C"/>
</svg>
