<svg width="40" height="40" viewBox="0 0 40 40" fill="none" xmlns="http://www.w3.org/2000/svg">
<path fill-rule="evenodd" clip-rule="evenodd" d="M27.2686 12.7262C27.5606 13.0182 27.5606 13.4946 27.2686 13.7866L21.0501 20.0051L27.2686 26.2288C27.5555 26.5259 27.5504 27.0023 27.2481 27.2891C26.9562 27.5709 26.4952 27.5709 26.2083 27.2891L19.9898 21.0655L13.7866 27.2686C13.4946 27.5606 13.0182 27.5606 12.7262 27.2686C12.4343 26.9767 12.4343 26.5054 12.7262 26.2083L18.9294 20.0051L12.7262 13.8071C12.4343 13.5151 12.4343 13.0438 12.7262 12.7467C13.0182 12.4548 13.4895 12.4548 13.7866 12.7467L19.9898 18.9499L26.2134 12.7262C26.5054 12.4343 26.9767 12.4343 27.2686 12.7262ZM19.9949 36.4991C30.9465 36.4991 36.4991 30.9516 36.4991 20.0051C36.4991 9.0535 30.9465 3.50085 19.9949 3.50085C9.04838 3.50085 3.50085 9.0535 3.50085 20.0051C3.50085 30.9516 9.04838 36.4991 19.9949 36.4991ZM19.9949 2C31.3665 2 38 7.74217 38 20.0051C38 32.2681 31.3665 38 19.9949 38C8.62322 38 2 32.2681 2 20.0051C2 7.74217 8.62322 2 19.9949 2Z" fill="#86888C"/>
</svg>
