<svg width="24" height="24" viewBox="0 0 24 24" fill="none" xmlns="http://www.w3.org/2000/svg">
<path fill-rule="evenodd" clip-rule="evenodd" d="M20.9446 15.4239C21.1182 15.2161 21.4426 14.6211 20.7539 13.4711C19.8063 11.8913 17.8967 11.7432 17.8768 11.7432C17.7402 11.7319 17.6178 11.6578 17.5467 11.5383C17.4812 11.4273 15.899 8.84543 12.0201 8.84543C9.95977 8.84543 8.5824 9.81611 7.79126 10.6274C6.73546 11.7119 6.18907 13.0669 6.19476 13.844C6.15492 14.5471 6.2033 15.0965 6.24598 15.4239H7.43553C7.58921 14.3393 8.35758 13.6818 9.51867 13.6818C10.6826 13.6818 11.4481 14.3393 11.6046 15.4239H14.6724C14.829 14.345 15.5945 13.6874 16.7556 13.6874C17.9167 13.6874 18.6822 14.3422 18.8387 15.4239H20.9446ZM16.7527 17.1517C17.6036 17.1517 18.0362 16.7134 18.0362 15.8423C18.0362 14.9741 17.6036 14.5329 16.7527 14.5329C15.899 14.5329 15.4693 14.9741 15.4693 15.8423C15.4693 16.7134 15.899 17.1517 16.7527 17.1517ZM9.51582 17.146C10.3667 17.146 10.7993 16.7077 10.7993 15.8366C10.7993 14.9684 10.3667 14.5272 9.51582 14.5272C8.66492 14.5272 8.23236 14.9684 8.23236 15.8366C8.23236 16.7048 8.66492 17.146 9.51582 17.146ZM21.4625 13.0299C22.4757 14.7179 21.8325 15.8338 21.3516 16.1896C21.2804 16.2437 21.195 16.2721 21.1068 16.2721H18.833C18.6736 17.3481 17.9081 18 16.7499 18C15.5916 18 14.8261 17.3481 14.6667 16.2721H11.599C11.4396 17.3453 10.6741 17.9943 9.51582 17.9943C8.36042 17.9943 7.5949 17.3453 7.43553 16.2721H5.89595C5.70528 16.2721 5.53738 16.1383 5.49184 15.9476C5.48331 15.9135 5.28695 15.0823 5.36094 13.8241C5.3524 12.9274 5.92725 11.3362 7.19933 10.0325C8.10145 9.10447 9.67234 8 12.0201 8C15.8221 8 17.6748 10.2516 18.1443 10.9206C18.7476 11.006 20.4807 11.3903 21.4625 13.0299ZM4.25676 14.2084C4.48727 14.2084 4.67225 14.3991 4.67225 14.6325C4.67225 14.8659 4.48443 15.0566 4.25676 15.0566H2.89362C2.66026 15.0538 2.47528 14.8659 2.47813 14.6325C2.47813 14.3991 2.66595 14.2084 2.89362 14.2084H4.25676ZM4.48727 12.0905C4.71778 12.0905 4.90276 12.2812 4.90276 12.5147C4.90276 12.7481 4.71494 12.9388 4.48727 12.9388H2.41552C2.18216 12.936 1.99719 12.7481 2.00003 12.5147V12.5118C2.00003 12.2784 2.18501 12.0877 2.41552 12.0877C2.41552 12.0905 4.48727 12.0905 4.48727 12.0905ZM5.01659 9.99829C5.2471 9.99829 5.43208 10.189 5.43208 10.4224C5.43208 10.6558 5.24426 10.8466 5.01659 10.8466H3.40871C3.17535 10.8437 2.99037 10.653 2.99322 10.4224C2.99322 10.189 3.18104 9.99829 3.40871 9.99829H5.01659Z" fill="#86888C"/>
</svg>
