<svg width="20" height="20" viewBox="0 0 20 20" fill="none" xmlns="http://www.w3.org/2000/svg">
<path fill-rule="evenodd" clip-rule="evenodd" d="M17.1557 12.9391C17.2946 12.7728 17.5541 12.2969 17.0031 11.3769C16.245 10.113 14.7174 9.99459 14.7015 9.99459C14.5922 9.98548 14.4943 9.92627 14.4374 9.83063C14.385 9.74182 13.1192 7.67634 10.0161 7.67634C8.36782 7.67634 7.26592 8.45289 6.63301 9.10191C5.78837 9.96954 5.35125 11.0535 5.35581 11.6752C5.32393 12.2377 5.36264 12.6772 5.39679 12.9391H6.34843C6.47137 12.0714 7.08606 11.5454 8.01493 11.5454C8.94608 11.5454 9.5585 12.0714 9.68372 12.9391H12.1379C12.2632 12.076 12.8756 11.55 13.8045 11.55C14.7333 11.55 15.3457 12.0737 15.471 12.9391H17.1557ZM13.8022 14.3214C14.4829 14.3214 14.8289 13.9707 14.8289 13.2738C14.8289 12.5793 14.4829 12.2263 13.8022 12.2263C13.1192 12.2263 12.7754 12.5793 12.7754 13.2738C12.7754 13.9707 13.1192 14.3214 13.8022 14.3214ZM8.01266 14.3168C8.69338 14.3168 9.03943 13.9661 9.03943 13.2693C9.03943 12.5747 8.69338 12.2217 8.01266 12.2217C7.33194 12.2217 6.98589 12.5747 6.98589 13.2693C6.98589 13.9638 7.33194 14.3168 8.01266 14.3168ZM17.57 11.0239C18.3805 12.3743 17.866 13.267 17.4812 13.5517C17.4243 13.5949 17.356 13.6177 17.2855 13.6177H15.4664C15.3389 14.4785 14.7265 15 13.7999 15C12.8733 15 12.2609 14.4785 12.1334 13.6177H9.67916C9.55167 14.4762 8.93925 14.9954 8.01266 14.9954C7.08834 14.9954 6.47592 14.4762 6.34843 13.6177H5.11676C4.96422 13.6177 4.8299 13.5107 4.79347 13.3581C4.78664 13.3308 4.62956 12.6658 4.68875 11.6593C4.68192 10.9419 5.1418 9.66894 6.15946 8.62596C6.88116 7.88358 8.13787 7 10.0161 7C13.0577 7 14.5398 8.80131 14.9155 9.33646C15.3981 9.40478 16.7846 9.71221 17.57 11.0239ZM3.80541 11.9667C3.98982 11.9667 4.1378 12.1193 4.1378 12.306C4.1378 12.4927 3.98754 12.6453 3.80541 12.6453H2.71489C2.52821 12.643 2.38023 12.4927 2.3825 12.306C2.3825 12.1193 2.53276 11.9667 2.71489 11.9667H3.80541ZM3.98982 10.2724C4.17423 10.2724 4.32221 10.425 4.32221 10.6117C4.32221 10.7985 4.17195 10.951 3.98982 10.951H2.33242C2.14573 10.9488 1.99775 10.7985 2.00003 10.6117V10.6095C2.00003 10.4227 2.14801 10.2701 2.33242 10.2701C2.33242 10.2724 3.98982 10.2724 3.98982 10.2724ZM4.41327 8.59863C4.59768 8.59863 4.74567 8.75121 4.74567 8.93794C4.74567 9.12468 4.59541 9.27726 4.41327 9.27726H3.12697C2.94028 9.27498 2.7923 9.1224 2.79458 8.93794C2.79458 8.75121 2.94484 8.59863 3.12697 8.59863H4.41327Z" fill="#86888C"/>
</svg>
