<svg width="24" height="24" viewBox="0 0 24 24" fill="none" xmlns="http://www.w3.org/2000/svg">
<path fill-rule="evenodd" clip-rule="evenodd" d="M21.3639 16.0812C21.3639 16.4032 21.2115 16.7425 20.9441 17.0041C20.6767 17.2686 20.3375 17.421 20.0126 17.421H19.8286C19.8429 17.2773 19.8631 17.1364 19.8631 16.984C19.8631 15.0951 18.7274 13.9709 16.8212 13.9709C14.9179 13.9709 13.7793 15.0979 13.7793 16.984C13.7793 17.1393 13.7995 17.2773 13.8138 17.421H9.86918C9.88356 17.2773 9.90368 17.1364 9.90368 16.984C9.90368 15.0951 8.76801 13.9709 6.86181 13.9709C4.95849 13.9709 3.82282 15.0979 3.82282 16.984C3.82282 17.1105 3.84007 17.2284 3.85157 17.3491C3.63019 17.2859 3.42606 17.168 3.26217 17.007C2.99766 16.7425 2.84241 16.4061 2.84241 16.0841V11.9094H11.4016C11.6345 11.9094 11.8214 11.7226 11.8214 11.4925V6.02983H15.9098C16.4072 6.02983 16.9477 6.30009 17.2295 6.68536C17.6924 7.32076 20.3892 10.8715 20.7429 11.3287C20.9757 11.6277 21.3668 12.1308 21.3668 12.5995C21.3639 12.5966 21.3639 16.0812 21.3639 16.0812ZM16.8212 19.1633C15.3836 19.1633 14.6217 18.4101 14.6217 16.984C14.6217 15.558 15.3836 14.8047 16.8212 14.8047C18.2588 14.8047 19.0207 15.558 19.0207 16.984C19.0207 18.4101 18.2588 19.1633 16.8212 19.1633ZM6.86181 19.1633C5.42426 19.1633 4.66523 18.4101 4.66523 16.984C4.66523 15.558 5.42426 14.8047 6.86181 14.8047C8.30225 14.8047 9.06128 15.558 9.06128 16.984C9.06128 18.4101 8.30225 19.1633 6.86181 19.1633ZM5.65427 4.84528L9.85768 10.9031L8.07224 10.9003L5.04474 4.83953L5.65427 4.84528ZM21.4099 10.8169C21.0591 10.3626 18.3709 6.82911 17.9137 6.19659C17.4739 5.58706 16.6861 5.19605 15.9127 5.19605H11.4016C11.1687 5.19605 10.9819 5.38293 10.9819 5.61294V11.0469L6.22354 4.19263C6.14591 4.0805 6.01653 4.0115 5.87853 4.0115L4.36909 4H4.36622C4.30872 4.00288 4.25121 4.01725 4.19946 4.04313C4.02695 4.09488 3.9062 4.25301 3.9062 4.43414L3.89757 8.79281C3.90332 8.85031 3.89182 9.12345 3.75382 9.27296C3.72507 9.30171 3.63881 9.39371 3.39155 9.39659H3.3858C3.11842 9.39659 3.03217 9.30171 3.00341 9.27008C2.86828 9.12058 2.86253 8.83594 2.87116 8.75256C2.89704 8.52255 2.73603 8.31554 2.50602 8.28967H2.50314C2.27601 8.26092 2.06613 8.41905 2.03738 8.64906V8.65481C2.02875 8.72669 1.9655 9.37071 2.37664 9.82498C2.54627 10.0119 2.85678 10.2304 3.38868 10.2304H3.40018C3.9062 10.2275 4.20809 10.0147 4.37484 9.83935C4.77736 9.40521 4.74573 8.79856 4.73998 8.76406L4.74573 6.11608L7.2212 11.0757H2.41977C2.18688 11.0757 2 11.2625 2 11.4925V16.0812C2 16.6246 2.24151 17.1766 2.66415 17.5964C3.02642 17.9558 3.49218 18.1657 4.0212 18.2289C4.42659 19.356 5.42426 20 6.85894 20C8.285 20 9.27978 19.3675 9.69093 18.2577H13.9892C14.4004 19.3703 15.3951 20 16.8212 20C18.2473 20 19.242 19.3675 19.6532 18.2577H20.0126C20.5617 18.2577 21.1195 18.019 21.5393 17.5993C21.9619 17.1795 22.2063 16.6275 22.2063 16.0841V12.5966C22.2063 11.8462 21.706 11.2022 21.4099 10.8169Z" fill="#86888C"/>
</svg>
