<svg width="28" height="28" viewBox="0 0 28 28" fill="none" xmlns="http://www.w3.org/2000/svg">
<path fill-rule="evenodd" clip-rule="evenodd" d="M24.6999 17.5418H21.4838C21.2918 16.0124 20.2084 15.0771 18.5386 15.0771C16.8723 15.0771 15.7854 16.0124 15.5934 17.5418H10.9304C10.7419 16.0056 9.65498 15.0668 7.98523 15.0668C6.31547 15.0668 5.22859 16.0056 5.04002 17.5418H3.11997C3.01025 16.7669 2.97939 15.9817 3.03082 15.2C3.02054 14.0734 3.8297 12.1173 5.39317 10.5606C6.56234 9.39307 8.5921 8.00024 11.6333 8.00024C17.3592 8.00024 19.6907 11.7145 19.7867 11.8715C19.8724 12.0115 20.0232 12.1036 20.1878 12.1139C20.2187 12.1173 23.0507 12.3255 24.4633 14.6162C25.5331 16.3538 24.9536 17.2619 24.6999 17.5418ZM18.5386 19.9963C17.246 19.9963 16.5637 19.317 16.5637 18.0368C16.5637 16.7566 17.246 16.0773 18.5386 16.0773C19.8312 16.0773 20.5135 16.7566 20.5135 18.0368C20.5135 19.317 19.8312 19.9963 18.5386 19.9963ZM7.98523 19.9861C6.69263 19.9861 6.0069 19.3102 6.0069 18.0266C6.0069 16.7464 6.69263 16.0671 7.98523 16.0671C9.27783 16.0671 9.96013 16.7464 9.96013 18.0266C9.96013 19.3102 9.27783 19.9861 7.98523 19.9861ZM25.3274 14.0939C23.8908 11.7657 21.3364 11.2468 20.5135 11.1409C19.8861 10.2534 17.2117 7 11.6367 7C8.24581 7 5.97947 8.54987 4.67658 9.85394C2.83882 11.6872 2.01251 13.9164 2.0228 15.1761C1.91994 16.9444 2.19766 18.1119 2.21138 18.1631C2.26623 18.3884 2.46853 18.5455 2.70167 18.5455H5.04002C5.24231 20.0646 6.32576 20.9898 7.98523 20.9898C9.6447 20.9898 10.7282 20.0646 10.9304 18.5455H15.5968C15.7923 20.0714 16.8792 21 18.5421 21C20.205 21 21.2884 20.0714 21.4873 18.5455H24.8988C25.0051 18.5455 25.1079 18.5113 25.1936 18.4499C25.2108 18.4328 27.124 17.0093 25.3274 14.0939Z" fill="#86888C"/>
</svg>
