<svg width="24" height="24" viewBox="0 0 24 24" fill="none" xmlns="http://www.w3.org/2000/svg">
<path fill-rule="evenodd" clip-rule="evenodd" d="M20.8227 19.0518C21.0333 18.7445 21.4773 17.831 20.6463 16.2573C19.5194 14.1059 17.3737 13.9493 17.2798 13.9437C17.1346 13.9323 17.0037 13.8497 16.9326 13.7217C16.8558 13.5766 14.8979 10.1332 10.0914 10.1332C7.69241 10.1332 6.05609 11.2857 5.09707 12.2504C3.62297 13.7473 2.86031 15.6938 2.866 16.8378C2.81477 17.8537 2.89161 18.6306 2.95137 19.0489H4.55353C4.7129 17.7342 5.62069 16.9317 7.02934 16.9317C8.42946 16.9317 9.34295 17.7342 9.50516 19.0489H13.4209C13.5831 17.7427 14.4881 16.9402 15.8882 16.9402C17.2968 16.9402 18.2018 17.7456 18.364 19.0489C18.364 19.0518 20.8227 19.0518 20.8227 19.0518ZM15.8882 21.1463C16.981 21.1463 17.5501 20.5657 17.5501 19.4701C17.5501 18.3773 16.9838 17.7968 15.8882 17.7968C14.8011 17.7968 14.2348 18.3773 14.2348 19.473C14.2348 20.5657 14.804 21.1463 15.8882 21.1463ZM7.02934 21.1377C8.11358 21.1377 8.69127 20.5572 8.69127 19.4616C8.69127 18.366 8.11642 17.7883 7.02934 17.7883C5.94511 17.7883 5.36742 18.3688 5.36742 19.4616C5.36742 20.5544 5.94511 21.1377 7.02934 21.1377ZM14.932 2.85373C10.8114 2.85373 8.71688 4.95674 8.71688 9.11725C8.71688 9.21969 8.72542 9.3136 8.72542 9.40751C9.17505 9.32499 9.63321 9.2823 10.0914 9.27945C14.7954 9.27945 17.0436 12.3017 17.5587 13.1155C17.9343 13.1668 18.714 13.3546 19.5279 13.8497C20.6036 12.8167 21.1557 11.2203 21.1557 9.11725C21.1528 4.95674 19.0584 2.85373 14.932 2.85373ZM20.2223 14.362C20.6975 14.7888 21.0959 15.2954 21.4004 15.856C22.7294 18.3944 21.3748 19.7348 21.3151 19.786C21.2382 19.8628 21.1358 19.9055 21.0276 19.9055H18.364C18.2018 21.206 17.2855 22 15.8882 22C14.4966 22 13.5831 21.206 13.4209 19.9055H9.50516C9.33441 21.2117 8.44653 21.9915 7.02934 21.9915C5.61216 21.9915 4.71574 21.2146 4.55353 19.9055H2.58711C2.39076 19.9055 2.22001 19.7661 2.18017 19.5726C2.1631 19.5299 1.93543 18.4542 2.01796 16.8236C2.00942 15.5657 2.78347 13.3887 4.49377 11.6557C5.24221 10.9044 6.36913 10.0507 7.88592 9.60672C7.87738 9.44451 7.86884 9.2823 7.86884 9.12009C7.86884 4.46158 10.3105 2 14.932 2C19.5507 2 22.0009 4.46158 22.0009 9.11725C22.0009 11.3967 21.3919 13.1582 20.2223 14.362ZM16.9639 9.99659C16.8842 10.0791 16.7732 10.1246 16.6594 10.1246C16.5484 10.1218 16.4403 10.0763 16.3606 9.99659L14.5735 8.19522C14.4909 8.11554 14.4425 8.00171 14.4454 7.88788V5.44337C14.4454 5.20433 14.6332 5.01651 14.8694 5.01651C15.1085 5.01651 15.2934 5.20433 15.2934 5.44337V7.71713L16.9639 9.39328C17.1261 9.56118 17.1261 9.82584 16.9639 9.99659Z" fill="#86888C"/>
</svg>
