<svg width="40" height="40" viewBox="0 0 40 40" fill="none" xmlns="http://www.w3.org/2000/svg">
<path fill-rule="evenodd" clip-rule="evenodd" d="M35.6386 29.9118C36.5709 29.3278 36.7194 28.831 36.2686 27.9602C35.8332 27.1918 35.0393 26.905 34.2914 27.1662L27.0535 29.6762C26.9613 29.7069 26.8742 29.7069 26.782 29.7069C26.3005 30.0194 25.7473 30.2191 25.1787 30.2191H16.1275C15.7126 30.1935 15.395 29.8349 15.4257 29.42C15.4513 29.041 15.7536 28.7388 16.1275 28.7183H25.1787C25.9727 28.7183 26.7513 27.9397 26.7513 27.1406C26.7513 26.3159 26.1827 25.6807 25.4348 25.6653H24.9123C23.4422 25.6961 20.3842 25.7678 17.5566 23.9801C17.5259 23.9647 15.9072 23.0017 10.5851 22.9146V31.6944L19.3956 35.9306C20.0717 36.3199 20.8657 36.5043 21.8543 36.5043C22.679 36.5043 23.3808 36.366 23.9493 36.1098C24.0108 36.074 32.8981 31.6585 35.6386 29.9118ZM9.08423 34.6602V22.3358C9.08423 21.9004 8.72567 21.5418 8.29027 21.5418H4.2897C3.8543 21.5418 3.49573 21.9004 3.49573 22.3358V34.6602C3.49573 35.0956 3.8543 35.4542 4.2897 35.4542H8.29027C8.72567 35.4593 9.08936 35.0956 9.08423 34.6602ZM37.5851 27.2533C38.1537 28.3495 38.4252 29.9271 36.4428 31.177C33.6255 32.9647 24.9687 37.2777 24.5948 37.4724C23.8008 37.8156 22.8839 38 21.8543 38C20.6096 38 19.5492 37.7439 18.7092 37.2624L10.5902 33.354V34.6602C10.5902 35.9254 9.56574 36.955 8.30051 36.9602H4.2897C3.02447 36.955 2.00512 35.9306 2 34.6602V22.3358C2 21.0757 3.03472 20.0359 4.2897 20.0359H8.29027C9.23278 20.0359 10.0268 20.5942 10.3904 21.4035C16.3529 21.465 18.1816 22.5919 18.3608 22.7302C20.8042 24.2464 23.4525 24.185 24.8765 24.1542H25.4604C27.0176 24.185 28.247 25.4963 28.247 27.1303C28.247 27.325 28.2163 27.5043 28.1753 27.6836L33.7945 25.7319C35.2339 25.2351 36.7911 25.819 37.5083 27.115C37.5083 27.1201 37.5851 27.2533 37.5851 27.2533ZM6.25669 23.1503C7.03529 23.1503 7.59363 23.6932 7.59363 24.4923C7.59363 25.2709 7.04041 25.8293 6.25669 25.8293C5.47297 25.8293 4.91975 25.2658 4.91975 24.4872C4.91975 23.6881 5.47297 23.1503 6.25669 23.1503ZM25.9778 3.50085C20.4405 3.50085 17.6283 6.32328 17.6283 11.881C17.6283 17.4388 20.4354 20.2561 25.9778 20.2561C31.5202 20.2561 34.3273 17.4388 34.3273 11.881C34.3273 6.32328 31.5151 3.50085 25.9778 3.50085ZM25.9778 21.757C19.6261 21.757 16.1326 18.2533 16.1326 11.881C16.1275 5.50882 19.6261 2 25.9778 2C32.3295 2 35.8281 5.50882 35.8281 11.881C35.823 18.2533 32.3295 21.757 25.9778 21.757ZM21.2806 10.9795L21.2755 12.7877H24.3233C24.7382 12.7877 25.0711 13.1258 25.0711 13.5356V16.5936H26.8742V13.5356C26.8742 13.1207 27.2072 12.7826 27.6221 12.7826H30.6699V10.9744H27.6221C27.2072 10.9744 26.8742 10.6363 26.8742 10.2265V7.16847H25.066V10.2265C25.066 10.6414 24.7331 10.9744 24.3182 10.9744L21.2806 10.9795ZM21.1064 14.2886C20.3842 14.2886 19.7797 13.7353 19.7797 13.0746V10.6824C19.7797 10.0268 20.3893 9.47353 21.1064 9.47353L23.5754 9.46841V6.98919C23.5754 6.27718 24.1389 5.66249 24.7843 5.66249H27.1662C27.8065 5.66249 28.3751 6.2823 28.3751 6.99431V9.46841H30.8492C31.5561 9.46841 32.1759 10.0319 32.1759 10.6773V13.0694C32.1759 13.7149 31.5561 14.2783 30.8492 14.2783H28.3802V16.7575C28.3802 17.4798 27.827 18.0842 27.1764 18.0842H24.7894C24.1338 18.0842 23.5805 17.4747 23.5805 16.7524L23.5754 14.2783C23.5754 14.2886 21.1064 14.2886 21.1064 14.2886Z" fill="#86888C"/>
</svg>
