<svg width="28" height="28" viewBox="0 0 28 28" fill="none" xmlns="http://www.w3.org/2000/svg">
<path fill-rule="evenodd" clip-rule="evenodd" d="M19.3863 21.5777C19.8472 21.2772 19.8472 21.0826 19.6628 20.7308C19.4784 20.3996 19.1199 20.2664 18.8024 20.3791L15.0738 21.6802C15.0329 21.6904 14.9919 21.6904 14.9509 21.6904C14.6846 21.8646 14.3773 21.9704 14.0598 21.9704H9.40248C9.11566 21.9704 8.89031 21.7416 8.89031 21.4548C8.89031 21.1645 9.11566 20.9391 9.40248 20.9391H14.0598C14.3978 20.9391 14.7461 20.5874 14.7461 20.2459C14.7461 19.9352 14.5514 19.6142 14.1929 19.6039L13.9266 19.6142C13.1686 19.6244 11.5604 19.6654 10.0649 18.7161C10.0444 18.7058 9.23517 18.2516 6.67776 18.1902V22.5305L11.1404 24.6887C11.4682 24.8833 11.8677 24.9687 12.3491 24.9687C12.7589 24.9687 13.1071 24.9072 13.3837 24.7843C13.4076 24.7604 17.9727 22.4758 19.3863 21.5777ZM5.65685 22.7866V18.0228C5.65685 17.7223 5.41101 17.4765 5.11396 17.4765H3.56722C3.27017 17.4765 3.02433 17.7257 3.02433 18.0228V23.8828C3.02433 24.1833 3.27017 24.4292 3.56722 24.4292H5.11396C5.41101 24.4292 5.65685 24.1799 5.65685 23.8828V22.8686C5.64661 22.8481 5.64661 22.8173 5.65685 22.7866ZM20.5335 20.1708C20.892 20.864 21.0354 21.7416 19.9394 22.4451C18.4746 23.374 14.012 25.6175 13.8173 25.7097C13.3974 25.9044 12.9057 26 12.3525 26C11.6867 26 11.1233 25.8668 10.6624 25.597L6.68118 23.6642V23.8828C6.68118 24.7604 5.97439 25.4639 5.11396 25.4639H3.56722C2.70679 25.4639 2 24.7604 2 23.8828V18.0228C2 17.1452 2.70679 16.4417 3.56722 16.4417H5.11396C5.65685 16.4417 6.13828 16.7218 6.41144 17.1555C9.54588 17.1862 10.5292 17.7872 10.6283 17.8589C11.8472 18.6239 13.1891 18.5931 13.9027 18.5829C14.0256 18.5726 14.128 18.5726 14.1997 18.5726C15.0807 18.5931 15.767 19.3273 15.767 20.2459C15.767 20.2767 15.7567 20.3176 15.7567 20.3484L18.4609 19.399C19.2633 19.119 20.134 19.4503 20.5335 20.1708ZM4.93982 19.0473C4.93982 19.4195 4.66325 19.6893 4.29449 19.6893C3.93598 19.6893 3.65941 19.4195 3.65941 19.0473C3.65941 18.6751 3.93598 18.4053 4.29449 18.4053C4.66325 18.4053 4.93982 18.6751 4.93982 19.0473ZM24.9757 9.9842V4.11743C24.9757 3.81693 24.7298 3.57105 24.4328 3.57105H22.886C22.589 3.57105 22.3431 3.82034 22.3431 4.11743V5.13166C22.3431 5.16239 22.3534 5.18288 22.3431 5.21361V9.98762C22.3431 10.2881 22.589 10.534 22.886 10.534H24.4328C24.7298 10.534 24.9757 10.2847 24.9757 9.9842ZM21.3222 9.81004V5.47997L16.8562 3.31152C16.5284 3.12712 16.1289 3.0315 15.6475 3.0315C15.2377 3.0315 14.8895 3.09297 14.6129 3.22615C14.5822 3.2364 10.0239 5.5312 8.61374 6.42931C8.1528 6.71958 8.1528 6.91422 8.33717 7.2762C8.52155 7.60744 8.88007 7.73038 9.19761 7.62793L12.9227 6.32686C12.9637 6.30637 13.0149 6.30637 13.0662 6.30637C13.3222 6.14246 13.6193 6.02635 13.9368 6.02635V6.0366H18.5975C18.8843 6.0366 19.1097 6.2654 19.1097 6.55225C19.1097 6.83227 18.8843 7.06789 18.5975 7.06789H13.9402V7.05765C13.6022 7.05765 13.2539 7.40938 13.2539 7.75087C13.2539 8.07187 13.4486 8.39287 13.8071 8.39287C13.8788 8.40311 13.971 8.39287 14.0734 8.39287C14.8417 8.37238 16.4362 8.34164 17.9317 9.28074C17.9522 9.29098 18.7614 9.75882 21.3222 9.81004ZM24.4328 2.53634C25.2932 2.53634 26 3.25005 26 4.11743V9.98762C26 10.855 25.2932 11.5687 24.4328 11.5687H22.886C22.3431 11.5687 21.8617 11.2784 21.5851 10.855C18.4541 10.8243 17.4708 10.2232 17.3683 10.1515C16.1528 9.37635 14.8075 9.40709 14.0939 9.42758H13.7866C12.9159 9.41733 12.233 8.68313 12.233 7.75428C12.233 7.72355 12.2433 7.69282 12.2433 7.66208L9.53905 8.60118C9.34443 8.66264 9.14981 8.70362 8.95519 8.70362C8.35083 8.70362 7.77721 8.38262 7.46991 7.826C7.1114 7.13278 6.96799 6.25515 8.06402 5.55169C9.52881 4.62284 13.9915 2.37926 14.1758 2.28706C15.1182 1.86361 16.5011 1.91484 17.3376 2.39975L21.3222 4.33257V4.11402C21.3222 3.24664 22.029 2.53293 22.8895 2.53293H24.4328V2.53634ZM24.3099 8.95291C24.3099 9.32513 24.0333 9.59491 23.6748 9.59491C23.306 9.59491 23.0397 9.32513 23.0397 8.95291C23.0397 8.59093 23.306 8.31091 23.6748 8.31091C24.0333 8.31091 24.3099 8.59093 24.3099 8.95291ZM16.0879 12.8049C16.1289 12.6307 16.2006 12.2141 16.006 12.04C15.9138 11.9683 15.7704 11.917 15.6167 11.9068H15.5655C15.3197 11.9068 15.1455 11.9785 14.9509 12.0809C14.828 12.1424 14.7051 12.2244 14.5617 12.3097C14.5617 12.3097 14.5514 12.3097 14.5309 12.32C14.4797 12.3405 14.3671 12.3917 14.3158 12.4122C14.2236 12.4429 14.0598 12.4634 14.0085 12.4634H13.988C13.7934 12.4634 13.609 12.4122 13.4349 12.32C13.2813 12.2278 13.1481 12.1458 13.0252 12.0809C12.8203 11.9683 12.6154 11.9068 12.4106 11.9068C12.2057 11.917 12.0623 11.9683 11.9804 12.04C11.7755 12.2141 11.8472 12.6273 11.8882 12.8049C12.0316 13.3923 12.3082 14.0138 12.7076 14.6455C13.0457 15.1714 13.3018 15.4924 13.7627 15.9773C13.8446 16.0593 13.9471 16.1515 13.9983 16.1925H14.0085C14.0393 16.1515 14.111 16.0798 14.1929 16.0081V15.9978L14.2236 15.9671C14.6846 15.4924 14.9304 15.1714 15.2685 14.6455C15.6816 14.0035 15.9548 13.3854 16.0879 12.8049ZM16.6718 11.2545C17.1225 11.6473 17.2659 12.279 17.0918 13.0405C16.9176 13.744 16.6001 14.4679 16.1289 15.1987C15.7601 15.7758 15.4631 16.1583 14.9612 16.6774C14.9612 16.6876 14.9509 16.6876 14.9509 16.6979C14.8997 16.7491 14.7256 16.9267 14.5822 17.0291C14.4592 17.1213 14.3158 17.1828 14.1724 17.2135C14.1315 17.2238 14.0905 17.234 14.0393 17.234H13.9368C13.8959 17.234 13.8549 17.2238 13.8139 17.2135C13.6705 17.1828 13.5271 17.1213 13.4042 17.0291C13.2505 16.9267 13.0764 16.7491 13.0354 16.6979C12.5233 16.1617 12.2262 15.7895 11.8472 15.1987C11.3863 14.4645 11.0585 13.7406 10.8946 13.0405C10.7102 12.2756 10.8639 11.6438 11.3146 11.2545C11.5706 11.0257 11.9292 10.8926 12.3082 10.8721H12.4106C12.7896 10.8721 13.1686 10.9745 13.5271 11.1726C13.6603 11.2443 13.7934 11.3263 13.9471 11.4219C13.9573 11.4219 13.9778 11.4321 13.988 11.4321C14.0085 11.4321 14.029 11.4219 14.0393 11.4219C14.1827 11.3297 14.3261 11.2477 14.4592 11.1726C14.8075 10.9779 15.1968 10.8721 15.5655 10.8721H15.6679C16.0572 10.8926 16.4089 11.0292 16.6718 11.2545Z" fill="#86888C"/>
</svg>
