<svg width="40" height="40" viewBox="0 0 40 40" fill="none" xmlns="http://www.w3.org/2000/svg">
<path fill-rule="evenodd" clip-rule="evenodd" d="M28.0794 32.3666C28.7708 31.9158 28.7708 31.6239 28.4942 31.0963C28.2177 30.5994 27.6799 30.3996 27.2036 30.5687L21.6108 32.5203C21.5493 32.5356 21.4878 32.5356 21.4264 32.5356C21.0269 32.7969 20.5659 32.9557 20.0896 32.9557H13.1037C12.6735 32.9557 12.3355 32.6125 12.3355 32.1822C12.3355 31.7468 12.6735 31.4087 13.1037 31.4087H20.0896C20.5967 31.4087 21.1191 30.8811 21.1191 30.3689C21.1191 29.9028 20.8271 29.4213 20.2894 29.4059L19.8899 29.4213C18.7529 29.4366 16.3406 29.4981 14.0973 28.0741C14.0666 28.0587 12.8528 27.3774 9.01665 27.2852V33.7957L15.7106 37.033C16.2023 37.325 16.8015 37.4531 17.5237 37.4531C18.1383 37.4531 18.6607 37.3609 19.0755 37.1765C19.1114 37.1406 25.959 33.7138 28.0794 32.3666ZM7.48528 34.1799V27.0343C7.48528 26.5835 7.11652 26.2147 6.67094 26.2147H4.35083C3.90525 26.2147 3.53649 26.5886 3.53649 27.0343V35.8242C3.53649 36.2749 3.90525 36.6437 4.35083 36.6437H6.67094C7.11652 36.6437 7.48528 36.2698 7.48528 35.8242V34.3028C7.46991 34.2721 7.46991 34.226 7.48528 34.1799ZM29.8003 30.2562C30.338 31.296 30.5531 32.6125 28.9091 33.6677C26.7119 35.0609 20.0179 38.4263 19.726 38.5646C19.096 38.8566 18.3585 39 17.5288 39C16.5301 39 15.685 38.8002 14.9936 38.3956L9.02177 35.4963V35.8242C9.02177 37.1406 7.96159 38.1958 6.67094 38.1958H4.35083C3.06018 38.1958 2 37.1406 2 35.8242V27.0343C2 25.7178 3.06018 24.6626 4.35083 24.6626H6.67094C7.48528 24.6626 8.20743 25.0826 8.61716 25.7332C13.3188 25.7793 14.7939 26.6808 14.9424 26.7884C16.7708 27.9358 18.7836 27.8897 19.854 27.8743C20.0384 27.8589 20.1921 27.8589 20.2996 27.8589C21.621 27.8897 22.6504 28.991 22.6504 30.3689C22.6504 30.415 22.6351 30.4765 22.6351 30.5226L26.6914 29.0986C27.895 28.6785 29.201 29.1754 29.8003 30.2562ZM6.40973 28.571C6.40973 29.1293 5.99488 29.5339 5.44174 29.5339C4.90397 29.5339 4.48912 29.1293 4.48912 28.571C4.48912 28.0126 4.90397 27.608 5.44174 27.608C5.99488 27.608 6.40973 28.0126 6.40973 28.571ZM36.4635 14.9763V6.17615C36.4635 5.72539 36.0948 5.35658 35.6492 5.35658H33.3291C32.8835 5.35658 32.5147 5.73051 32.5147 6.17615V7.69748C32.5147 7.74358 32.5301 7.77432 32.5147 7.82042V14.9814C32.5147 15.4322 32.8835 15.801 33.3291 15.801H35.6492C36.0948 15.801 36.4635 15.4271 36.4635 14.9763ZM30.9834 14.7151V8.21996L24.2843 4.96728C23.7926 4.69068 23.1933 4.54725 22.4712 4.54725C21.8566 4.54725 21.3342 4.63946 20.9193 4.83923C20.8732 4.85459 14.0359 8.29679 11.9206 9.64397C11.2292 10.0794 11.2292 10.3713 11.5058 10.9143C11.7823 11.4112 12.3201 11.5956 12.7964 11.4419L18.3841 9.4903C18.4456 9.45956 18.5224 9.45956 18.5992 9.45956C18.9834 9.21369 19.4289 9.03953 19.9053 9.03953V9.0549H26.8963C27.3265 9.0549 27.6645 9.39809 27.6645 9.82837C27.6645 10.2484 27.3265 10.6018 26.8963 10.6018H19.9104V10.5865C19.4033 10.5865 18.8809 11.1141 18.8809 11.6263C18.8809 12.1078 19.1729 12.5893 19.7106 12.5893C19.8182 12.6047 19.9565 12.5893 20.1101 12.5893C21.2625 12.5586 23.6543 12.5125 25.8976 13.9211C25.9283 13.9365 27.1421 14.6382 30.9834 14.7151ZM35.6492 3.80452C36.9398 3.80452 38 4.87508 38 6.17615V14.9814C38 16.2825 36.9398 17.3531 35.6492 17.3531H33.3291C32.5147 17.3531 31.7926 16.9177 31.3777 16.2825C26.6812 16.2364 25.2061 15.3349 25.0525 15.2273C23.2292 14.0645 21.2113 14.1106 20.1408 14.1414H19.6799C18.3739 14.126 17.3496 13.0247 17.3496 11.6314C17.3496 11.5853 17.3649 11.5392 17.3649 11.4931L13.3086 12.9018C13.0166 12.994 12.7247 13.0554 12.4328 13.0554C11.5262 13.0554 10.6658 12.5739 10.2049 11.739C9.66709 10.6992 9.45199 9.38273 11.096 8.32753C13.2932 6.93426 19.9872 3.56889 20.2638 3.43059C21.6773 2.79542 23.7516 2.87225 25.0064 3.59962L30.9834 6.49886V6.17103C30.9834 4.86996 32.0435 3.79939 33.3342 3.79939H35.6492V3.80452ZM35.4648 13.4294C35.4648 13.9877 35.0499 14.3924 34.5122 14.3924C33.959 14.3924 33.5595 13.9877 33.5595 13.4294C33.5595 12.8864 33.959 12.4664 34.5122 12.4664C35.0499 12.4664 35.4648 12.8864 35.4648 13.4294ZM23.1319 19.2073C23.1933 18.9461 23.3009 18.3212 23.009 18.0599C22.8707 17.9524 22.6556 17.8755 22.4251 17.8602H22.3483C21.9795 17.8602 21.7183 17.9677 21.4264 18.1214C21.242 18.2136 21.0576 18.3365 20.8425 18.4646C20.8425 18.4646 20.8271 18.4646 20.7964 18.48C20.7196 18.5107 20.5506 18.5875 20.4738 18.6183C20.3355 18.6644 20.0896 18.6951 20.0128 18.6951H19.9821C19.6901 18.6951 19.4136 18.6183 19.1524 18.48C18.9219 18.3417 18.7222 18.2187 18.5378 18.1214C18.2305 17.9524 17.9232 17.8602 17.6159 17.8602C17.3086 17.8755 17.0935 17.9524 16.9706 18.0599C16.6633 18.3212 16.7708 18.941 16.8323 19.2073C17.0474 20.0884 17.4622 21.0206 18.0615 21.9683C18.5685 22.7571 18.9526 23.2386 19.644 23.966C19.767 24.0889 19.9206 24.2272 19.9974 24.2887H20.0128C20.0589 24.2272 20.1665 24.1197 20.2894 24.0121V23.9967L20.3355 23.9506C21.0269 23.2386 21.3956 22.7571 21.9027 21.9683C22.5224 21.0053 22.9321 20.0781 23.1319 19.2073ZM24.0077 16.8818C24.6837 17.4709 24.8988 18.4185 24.6376 19.5608C24.3764 20.616 23.9001 21.7019 23.1933 22.7981C22.6402 23.6638 22.1946 24.2375 21.4417 25.0161C21.4417 25.0314 21.4264 25.0314 21.4264 25.0468C21.3496 25.1236 21.0884 25.39 20.8732 25.5437C20.6889 25.682 20.4738 25.7742 20.2586 25.8203C20.1972 25.8356 20.1357 25.851 20.0589 25.851H19.9053C19.8438 25.851 19.7823 25.8356 19.7209 25.8203C19.5058 25.7742 19.2907 25.682 19.1063 25.5437C18.8758 25.39 18.6146 25.1236 18.5531 25.0468C17.7849 24.2426 17.3393 23.6843 16.7708 22.7981C16.0794 21.6968 15.5877 20.6109 15.3419 19.5608C15.0653 18.4134 15.2958 17.4658 15.9718 16.8818C16.356 16.5386 16.8937 16.3388 17.4622 16.3081H17.6159C18.1844 16.3081 18.7529 16.4618 19.2907 16.7589C19.4904 16.8664 19.6901 16.9894 19.9206 17.1328C19.936 17.1328 19.9667 17.1482 19.9821 17.1482C20.0128 17.1482 20.0435 17.1328 20.0589 17.1328C20.274 16.9945 20.4891 16.8716 20.6889 16.7589C21.2113 16.4669 21.7951 16.3081 22.3483 16.3081H22.5019C23.0858 16.3388 23.6133 16.5437 24.0077 16.8818Z" fill="#86888C"/>
</svg>
