<svg width="20" height="20" viewBox="0 0 20 20" fill="none" xmlns="http://www.w3.org/2000/svg">
<path d="M14.2192 14.0028H8.88968C8.2679 14.0028 7.71672 13.7956 7.29993 13.4016C6.8558 12.9825 6.56882 12.3744 6.44356 11.5909C6.3274 10.8598 5.241 4.32769 5.11117 3.60114C5.05423 3.28911 4.87203 2.99986 4.59189 2.79032C4.30719 2.57395 3.9405 2.45552 3.56014 2.45552H2.22776C2.10249 2.45552 2 2.35302 2 2.22776C2 2.10249 2.10249 2 2.22776 2H3.56014C4.03843 2 4.50306 2.1526 4.86747 2.42591C5.23872 2.70377 5.4847 3.09324 5.56213 3.52142C5.69196 4.25025 6.78064 10.7892 6.89452 11.5203C7.0995 12.8276 7.81011 13.5496 8.88968 13.5496H14.2192C14.7135 13.5496 15.112 13.3902 15.4377 13.0645C15.7748 12.7274 16.0367 12.2013 16.2189 11.4998C16.3146 11.1331 16.6289 9.86221 16.9364 8.63459C17.1459 7.79188 17.3463 6.98562 17.4807 6.45495H14.488C14.3627 6.45495 14.2602 6.35246 14.2602 6.22719C14.2602 6.10192 14.3627 5.99943 14.488 5.99943H17.7722C17.8975 5.99943 18 6.10192 18 6.22719C18 6.24541 17.9977 6.26591 17.9932 6.28413C17.8679 6.78064 17.631 7.73495 17.3782 8.74619C17.073 9.97153 16.7564 11.2424 16.6608 11.6114C16.4558 12.404 16.1597 12.9848 15.7611 13.3856C15.3489 13.7956 14.8319 14.0028 14.2192 14.0028Z" fill="#86888C"/>
<path d="M8.31807 6.45259H5.8469C5.72163 6.45259 5.61914 6.3501 5.61914 6.22483C5.61914 6.09956 5.72163 5.99707 5.8469 5.99707H8.31807C8.44334 5.99707 8.54583 6.09956 8.54583 6.22483C8.54583 6.3501 8.44334 6.45259 8.31807 6.45259ZM8.88974 17.9999C8.18142 17.9999 7.77373 17.5922 7.77373 16.8839C7.77373 16.1756 8.18142 15.7679 8.88974 15.7679C9.59807 15.7679 10.0058 16.1756 10.0058 16.8839C10.0058 17.5922 9.60035 17.9999 8.88974 17.9999ZM8.88974 16.2234C8.43195 16.2234 8.22925 16.4261 8.22925 16.8839C8.22925 17.3417 8.43195 17.5444 8.88974 17.5444C9.34754 17.5444 9.55024 17.3417 9.55024 16.8839C9.55024 16.4261 9.34754 16.2234 8.88974 16.2234ZM13.331 17.9999C12.6227 17.9999 12.215 17.5922 12.215 16.8839C12.215 16.1756 12.6227 15.7679 13.331 15.7679C14.0394 15.7679 14.447 16.1756 14.447 16.8839C14.447 17.5922 14.0416 17.9999 13.331 17.9999ZM13.331 16.2234C12.8732 16.2234 12.6705 16.4261 12.6705 16.8839C12.6705 17.3417 12.8732 17.5444 13.331 17.5444C13.7888 17.5444 13.9915 17.3417 13.9915 16.8839C13.9915 16.4261 13.7888 16.2234 13.331 16.2234Z" fill="#86888C"/>
<path d="M13.7477 11.3358H8.74389C8.41365 11.3358 8.21777 11.1376 8.21777 10.8051V2.52384C8.21777 2.2027 8.4182 2 8.74389 2H11.9963C12.0578 2 12.1147 2.02505 12.158 2.06605L14.6064 4.51445C14.6497 4.55772 14.6724 4.61466 14.6724 4.67616V10.8188C14.6724 11.1354 14.4743 11.3335 14.1577 11.3335L13.7477 11.3358ZM13.1761 10.8803H14.1509C14.1691 10.8803 14.1873 10.878 14.2033 10.8735C14.2078 10.8552 14.2101 10.837 14.2101 10.8188V4.77181L11.8983 2.45552H8.74162C8.72112 2.45552 8.69834 2.45779 8.67784 2.46463C8.67101 2.48512 8.66873 2.50562 8.67101 2.52384V10.8051C8.67101 10.8279 8.67329 10.8507 8.68012 10.8712C8.70062 10.878 8.7234 10.8803 8.74389 10.878C9.11286 10.8803 12.8413 10.8803 13.1761 10.8803Z" fill="#86888C"/>
<path d="M13.1216 6.45267H9.56858C9.44331 6.45267 9.34082 6.35018 9.34082 6.22491C9.34082 6.09964 9.44331 5.99715 9.56858 5.99715H13.1216C13.2469 5.99715 13.3494 6.09964 13.3494 6.22491C13.3494 6.35018 13.2469 6.45267 13.1216 6.45267ZM13.1216 8.00826H9.56858C9.44331 8.00826 9.34082 7.90576 9.34082 7.7805C9.34082 7.65523 9.44331 7.55274 9.56858 7.55274H13.1216C13.2469 7.55274 13.3494 7.65523 13.3494 7.7805C13.3494 7.90576 13.2469 8.00826 13.1216 8.00826ZM13.1216 9.56157H9.56858C9.44331 9.56157 9.34082 9.45907 9.34082 9.33381C9.34082 9.20854 9.44331 9.10605 9.56858 9.10605H13.1216C13.2469 9.10605 13.3494 9.20854 13.3494 9.33381C13.3494 9.45907 13.2469 9.56157 13.1216 9.56157ZM13.1626 4.90391H12.8802C12.4862 4.90164 12.1901 4.76498 12.001 4.49851C11.8439 4.2753 11.7664 3.96783 11.7642 3.56014V2.22776C11.7642 2.10249 11.8667 2 11.9919 2C12.0534 2 12.1104 2.02505 12.1536 2.06605L14.5998 4.51445C14.6886 4.60327 14.6886 4.74676 14.5998 4.83559C14.5565 4.87886 14.4995 4.90164 14.438 4.90164L13.1626 4.90391ZM12.222 2.77893V3.55786C12.2242 4.33907 12.5408 4.44612 12.8825 4.4484H13.8914L12.222 2.77893Z" fill="#86888C"/>
<path d="M13.8455 14.0028H8.51517C7.89331 14.0028 7.34205 13.7956 6.9252 13.4016C6.481 12.9825 6.19399 12.3744 6.0687 11.5909C5.95253 10.8598 4.86597 4.32769 4.73613 3.60114C4.67918 3.28683 4.49695 2.99986 4.21677 2.79032C3.93203 2.57395 3.56529 2.45552 3.18488 2.45552H1.8523C1.72702 2.45552 1.62451 2.35302 1.62451 2.22776C1.62451 2.10249 1.72702 2 1.8523 2H3.18488C3.66324 2 4.12793 2.15032 4.49239 2.42591C4.86369 2.70377 5.10971 3.09324 5.18715 3.52142C5.31699 4.25025 6.40583 10.7892 6.51973 11.5203C6.72474 12.8276 7.43545 13.5496 8.51517 13.5496H13.8455C14.3398 13.5496 14.7384 13.3902 15.0641 13.0645C15.4013 12.7274 15.6632 12.2013 15.8455 11.4998C15.9411 11.1331 16.2555 9.86221 16.563 8.63459C16.7726 7.79189 16.973 6.98562 17.1074 6.45495H14.0847C13.9594 6.45495 13.8569 6.35246 13.8569 6.22719C13.8569 6.10192 13.9594 5.99943 14.0847 5.99943H17.399C17.5243 5.99943 17.6268 6.10192 17.6268 6.22719C17.6268 6.24541 17.6245 6.26591 17.62 6.28413C17.4947 6.78064 17.2578 7.73495 17.0049 8.74619C16.6997 9.97609 16.3831 11.247 16.2874 11.6159C16.0824 12.4085 15.7862 12.9893 15.3876 13.3902C14.9753 13.7956 14.4582 14.0028 13.8455 14.0028Z" fill="#86888C"/>
<path d="M8.71567 6.45285H5.47193C5.34665 6.45285 5.24414 6.35036 5.24414 6.22509C5.24414 6.09982 5.34665 5.99733 5.47193 5.99733H8.71567C8.84095 5.99733 8.94346 6.09982 8.94346 6.22509C8.94346 6.35036 8.84095 6.45285 8.71567 6.45285ZM8.51521 18.0002C7.80678 18.0002 7.39904 17.5925 7.39904 16.8842C7.39904 16.1758 7.80678 15.7682 8.51521 15.7682C9.22364 15.7682 9.63138 16.1758 9.63138 16.8842C9.63138 17.5925 9.22592 18.0002 8.51521 18.0002ZM8.51521 16.2237C8.05735 16.2237 7.85462 16.4264 7.85462 16.8842C7.85462 17.342 8.05735 17.5447 8.51521 17.5447C8.97307 17.5447 9.1758 17.342 9.1758 16.8842C9.1758 16.4264 8.97307 16.2237 8.51521 16.2237ZM12.9571 18.0002C12.2487 18.0002 11.841 17.5925 11.841 16.8842C11.841 16.1758 12.2487 15.7682 12.9571 15.7682C13.6656 15.7682 14.0733 16.1758 14.0733 16.8842C14.0733 17.5925 13.6678 18.0002 12.9571 18.0002ZM12.9571 16.2237C12.4993 16.2237 12.2965 16.4264 12.2965 16.8842C12.2965 17.342 12.4993 17.5447 12.9571 17.5447C13.415 17.5447 13.6177 17.342 13.6177 16.8842C13.6177 16.4264 13.415 16.2237 12.9571 16.2237ZM11.4013 5.82424C10.0163 5.82424 8.52432 5.5031 8.52432 4.79933C8.52432 4.09555 10.0163 3.77441 11.4013 3.77441C12.7863 3.77441 14.2783 4.09555 14.2783 4.79933C14.2783 5.5031 12.7886 5.82424 11.4013 5.82424ZM11.4013 4.23221C10.7157 4.23221 10.0733 4.31192 9.59266 4.45541C9.08924 4.60801 8.9799 4.76972 8.9799 4.8016C8.9799 4.83349 9.08924 4.9952 9.59266 5.14552C10.071 5.28901 10.7134 5.36872 11.4013 5.36872C12.0892 5.36872 12.7293 5.28901 13.21 5.14552C13.7157 4.99292 13.8227 4.83121 13.8227 4.79933C13.8227 4.76744 13.7134 4.60573 13.21 4.45313C12.7293 4.31192 12.0892 4.23221 11.4013 4.23221Z" fill="#86888C"/>
<path d="M11.4014 7.94439C10.0164 7.94439 8.52441 7.62325 8.52441 6.91947V4.80132C8.52441 4.67606 8.62692 4.57357 8.7522 4.57357C8.87749 4.57357 8.98 4.67606 8.98 4.80132C8.98 4.83321 9.08933 4.99492 9.59275 5.14524C10.0711 5.28873 10.7135 5.36844 11.4014 5.36844C12.0893 5.36844 12.7294 5.28873 13.2101 5.14524C13.7158 4.99264 13.8228 4.83093 13.8228 4.79905C13.8228 4.67378 13.9253 4.57129 14.0506 4.57129C14.1759 4.57129 14.2784 4.67378 14.2784 4.79905V6.9172C14.2784 7.62325 12.7887 7.94439 11.4014 7.94439ZM8.98 5.38894V6.91947C8.98 6.95136 9.08933 7.11307 9.59275 7.26339C10.0711 7.40688 10.7135 7.48887 11.4014 7.48887C12.0893 7.48887 12.7294 7.40915 13.2101 7.26567C13.7158 7.11307 13.8228 6.95136 13.8228 6.92175V5.39122C13.2761 5.6873 12.3148 5.82624 11.4014 5.82624C10.488 5.82624 9.52897 5.68503 8.98 5.38894Z" fill="#86888C"/>
<path d="M11.4014 10.0622C10.0164 10.0622 8.52441 9.74108 8.52441 9.03731V6.91916C8.52441 6.7939 8.62692 6.69141 8.7522 6.69141C8.87749 6.69141 8.98 6.7939 8.98 6.91916C8.98 6.95105 9.08933 7.11276 9.59275 7.26308C10.0711 7.40657 10.7135 7.48856 11.4014 7.48856C12.0893 7.48856 12.7294 7.40884 13.2101 7.26536C13.7158 7.11276 13.8228 6.95105 13.8228 6.92144C13.8228 6.79618 13.9253 6.69368 14.0506 6.69368C14.1759 6.69368 14.2784 6.79618 14.2784 6.92144V9.03959C14.2784 9.74108 12.7887 10.0622 11.4014 10.0622ZM8.98 7.50678V9.03731C8.98 9.0692 9.08933 9.23091 9.59275 9.38123C10.0711 9.52699 10.7135 9.60671 11.4014 9.60671C12.0893 9.60671 12.7294 9.52699 13.2101 9.3835C13.7158 9.23091 13.8228 9.0692 13.8228 9.03959V7.50906C13.2761 7.80514 12.3148 7.94407 11.4014 7.94407C10.488 7.94407 9.52897 7.80514 8.98 7.50678Z" fill="#86888C"/>
<path d="M11.4014 12.1804C10.0164 12.1804 8.52441 11.8592 8.52441 11.1555V9.03733C8.52441 8.91206 8.62692 8.80957 8.7522 8.80957C8.87749 8.80957 8.98 8.91206 8.98 9.03733C8.98 9.06921 9.08933 9.23092 9.59275 9.38124C10.0711 9.52701 10.7135 9.60672 11.4014 9.60672C12.0893 9.60672 12.7294 9.52701 13.2101 9.38352C13.7158 9.23092 13.8228 9.06921 13.8228 9.03961C13.8228 8.91434 13.9253 8.81185 14.0506 8.81185C14.1759 8.81185 14.2784 8.91434 14.2784 9.03961V11.1578C14.2784 11.8615 12.7887 12.1804 11.4014 12.1804ZM8.98 9.62722V11.1578C8.98 11.1896 9.08933 11.3513 9.59275 11.5017C10.0711 11.6452 10.7135 11.7249 11.4014 11.7249C12.0893 11.7249 12.7294 11.6452 13.2101 11.5017C13.7158 11.3491 13.8228 11.1874 13.8228 11.1578V9.62722C13.2761 9.92331 12.3148 10.0622 11.4014 10.0622C10.488 10.0622 9.52897 9.92331 8.98 9.62722Z" fill="#86888C"/>
</svg>
