<svg width="40" height="40" viewBox="0 0 40 40" fill="none" xmlns="http://www.w3.org/2000/svg">
<path d="M27.4932 29.0064H15.5018C14.1028 29.0064 12.8626 28.5401 11.9248 27.6535C10.9255 26.7106 10.2799 25.3423 9.998 23.5795C9.73665 21.9345 7.29224 7.23729 7.00014 5.60256C6.87203 4.9005 6.46206 4.24968 5.83174 3.77822C5.19117 3.29139 4.36612 3.02491 3.51032 3.02491H0.512455C0.230605 3.02491 0 2.79431 0 2.51246C0 2.2306 0.230605 2 0.512455 2H3.51032C4.58648 2 5.63189 2.34335 6.45181 2.95829C7.28712 3.58349 7.84057 4.45979 8.0148 5.4232C8.3069 7.06306 10.7564 21.7757 11.0127 23.4206C11.4739 26.3621 13.0727 27.9866 15.5018 27.9866H27.4932C28.6053 27.9866 29.5021 27.6279 30.2349 26.8951C30.9933 26.1367 31.5826 24.9529 31.9926 23.3745C32.2078 22.5495 32.915 19.69 33.6068 16.9278C34.0783 15.0317 34.5292 13.2176 34.8316 12.0236H28.0979C27.8161 12.0236 27.5855 11.793 27.5855 11.5112C27.5855 11.2293 27.8161 10.9987 28.0979 10.9987H35.4875C35.7694 10.9987 36 11.2293 36 11.5112C36 11.5522 35.9949 11.5983 35.9846 11.6393C35.7028 12.7564 35.1698 14.9036 34.601 17.1789C33.9143 19.9359 33.202 22.7954 32.9868 23.6256C32.5255 25.409 31.8594 26.7157 30.9626 27.6176C30.035 28.5401 28.8717 29.0064 27.4932 29.0064Z" fill="#86888C"/>
<path d="M14.2157 12.0191H8.65552C8.37367 12.0191 8.14307 11.7884 8.14307 11.5066C8.14307 11.2247 8.37367 10.9941 8.65552 10.9941H14.2157C14.4975 10.9941 14.7281 11.2247 14.7281 11.5066C14.7281 11.7884 14.4975 12.0191 14.2157 12.0191ZM15.5019 38.0005C13.9082 38.0005 12.9909 37.0832 12.9909 35.4895C12.9909 33.8958 13.9082 32.9785 15.5019 32.9785C17.0957 32.9785 18.013 33.8958 18.013 35.4895C18.013 37.0832 17.1008 38.0005 15.5019 38.0005ZM15.5019 34.0034C14.4719 34.0034 14.0158 34.4595 14.0158 35.4895C14.0158 36.5195 14.4719 36.9756 15.5019 36.9756C16.532 36.9756 16.988 36.5195 16.988 35.4895C16.988 34.4595 16.532 34.0034 15.5019 34.0034ZM25.4948 38.0005C23.9011 38.0005 22.9838 37.0832 22.9838 35.4895C22.9838 33.8958 23.9011 32.9785 25.4948 32.9785C27.0885 32.9785 28.0058 33.8958 28.0058 35.4895C28.0058 37.0832 27.0937 38.0005 25.4948 38.0005ZM25.4948 34.0034C24.4648 34.0034 24.0087 34.4595 24.0087 35.4895C24.0087 36.5195 24.4648 36.9756 25.4948 36.9756C26.5248 36.9756 26.9809 36.5195 26.9809 35.4895C26.9809 34.4595 26.5248 34.0034 25.4948 34.0034Z" fill="#86888C"/>
<path d="M26.4327 23.0055H15.174C14.4309 23.0055 13.9902 22.5597 13.9902 21.8115V3.17865C13.9902 2.45609 14.4412 2 15.174 2H22.4919C22.6302 2 22.7583 2.05637 22.8557 2.14861L28.3646 7.65751C28.462 7.75487 28.5132 7.88299 28.5132 8.02135V21.8423C28.5132 22.5546 28.0674 23.0004 27.3551 23.0004L26.4327 23.0055ZM25.1464 21.9806H27.3397C27.3807 21.9806 27.4217 21.9755 27.4576 21.9653C27.4678 21.9243 27.4729 21.8833 27.4729 21.8423V8.23658L22.2715 3.02491H15.1689C15.1228 3.02491 15.0715 3.03004 15.0254 3.04541C15.01 3.09153 15.0049 3.13765 15.01 3.17865V21.8115C15.01 21.8628 15.0151 21.914 15.0305 21.9601C15.0766 21.9755 15.1279 21.9806 15.174 21.9755C16.0042 21.9806 24.3931 21.9806 25.1464 21.9806Z" fill="#86888C"/>
<path d="M25.0234 12.0185H17.0291C16.7472 12.0185 16.5166 11.7879 16.5166 11.5061C16.5166 11.2242 16.7472 10.9936 17.0291 10.9936H25.0234C25.3052 10.9936 25.5358 11.2242 25.5358 11.5061C25.5358 11.7879 25.3052 12.0185 25.0234 12.0185ZM25.0234 15.5186H17.0291C16.7472 15.5186 16.5166 15.288 16.5166 15.0061C16.5166 14.7243 16.7472 14.4937 17.0291 14.4937H25.0234C25.3052 14.4937 25.5358 14.7243 25.5358 15.0061C25.5358 15.288 25.3052 15.5186 25.0234 15.5186ZM25.0234 19.0135H17.0291C16.7472 19.0135 16.5166 18.7829 16.5166 18.5011C16.5166 18.2192 16.7472 17.9886 17.0291 17.9886H25.0234C25.3052 17.9886 25.5358 18.2192 25.5358 18.5011C25.5358 18.7829 25.3052 19.0135 25.0234 19.0135ZM25.1156 8.53381H24.4802C23.5936 8.52868 22.9274 8.22121 22.5021 7.62164C22.1485 7.11943 21.9743 6.42762 21.9691 5.51032V2.51246C21.9691 2.2306 22.1997 2 22.4816 2C22.6199 2 22.7481 2.05637 22.8454 2.14861L28.3492 7.65751C28.5491 7.85737 28.5491 8.18021 28.3492 8.38007C28.2518 8.47744 28.1237 8.52868 27.9854 8.52868L25.1156 8.53381ZM22.9992 3.7526V5.5052C23.0043 7.26292 23.7166 7.50377 24.4853 7.5089H26.7555L22.9992 3.7526Z" fill="#86888C"/>
</svg>
