<svg width="20" height="20" viewBox="0 0 20 20" fill="none" xmlns="http://www.w3.org/2000/svg">
<path d="M13.2192 14.0028H7.88968C7.2679 14.0028 6.71672 13.7956 6.29993 13.4016C5.8558 12.9825 5.56882 12.3744 5.44356 11.5909C5.3274 10.8598 4.241 4.32769 4.11117 3.60114C4.05423 3.28683 3.87203 2.99986 3.59189 2.79032C3.30719 2.57395 2.9405 2.45552 2.56014 2.45552H1.22776C1.10249 2.45552 1 2.35302 1 2.22776C1 2.10249 1.10249 2 1.22776 2H2.56014C3.03843 2 3.50306 2.15032 3.86747 2.42591C4.23872 2.70377 4.4847 3.09324 4.56213 3.52142C4.69196 4.25025 5.78064 10.7892 5.89452 11.5203C6.0995 12.8276 6.81011 13.5496 7.88968 13.5496H13.2192C13.7135 13.5496 14.112 13.3902 14.4377 13.0645C14.7748 12.7274 15.0367 12.2013 15.2189 11.4998C15.3146 11.1331 15.6289 9.86221 15.9364 8.63459C16.1459 7.79188 16.3463 6.98562 16.4807 6.45495H13.5016C13.3764 6.45495 13.2739 6.35246 13.2739 6.22719C13.2739 6.10192 13.3764 5.99943 13.5016 5.99943H16.7722C16.8975 5.99943 17 6.10192 17 6.22719C17 6.24541 16.9977 6.26591 16.9932 6.28413C16.8679 6.78064 16.631 7.73495 16.3782 8.74619C16.073 9.97608 15.7564 11.247 15.6608 11.6159C15.4558 12.4085 15.1597 12.9893 14.7611 13.3902C14.3489 13.7956 13.8319 14.0028 13.2192 14.0028Z" fill="#86888C"/>
<path d="M8.02184 6.45259H4.8469C4.72163 6.45259 4.61914 6.3501 4.61914 6.22483C4.61914 6.09956 4.72163 5.99707 4.8469 5.99707H8.02184C8.14711 5.99707 8.2496 6.09956 8.2496 6.22483C8.2496 6.3501 8.14711 6.45259 8.02184 6.45259ZM7.88974 17.9999C7.18142 17.9999 6.77373 17.5922 6.77373 16.8839C6.77373 16.1756 7.18142 15.7679 7.88974 15.7679C8.59807 15.7679 9.00576 16.1756 9.00576 16.8839C9.00576 17.5922 8.60035 17.9999 7.88974 17.9999ZM7.88974 16.2234C7.43195 16.2234 7.22925 16.4261 7.22925 16.8839C7.22925 17.3417 7.43195 17.5444 7.88974 17.5444C8.34754 17.5444 8.55024 17.3417 8.55024 16.8839C8.55024 16.4261 8.34754 16.2234 7.88974 16.2234ZM12.331 17.9999C11.6227 17.9999 11.215 17.5922 11.215 16.8839C11.215 16.1756 11.6227 15.7679 12.331 15.7679C13.0394 15.7679 13.447 16.1756 13.447 16.8839C13.447 17.5922 13.0416 17.9999 12.331 17.9999ZM12.331 16.2234C11.8732 16.2234 11.6705 16.4261 11.6705 16.8839C11.6705 17.3417 11.8732 17.5444 12.331 17.5444C12.7888 17.5444 12.9915 17.3417 12.9915 16.8839C12.9915 16.4261 12.7888 16.2234 12.331 16.2234Z" fill="#86888C"/>
<path d="M12.2989 10.8939H9.2492C8.32905 10.8939 7.88037 10.4407 7.88037 9.50918V3.38477C7.88037 2.46463 8.34044 2 9.2492 2H12.2989C13.219 2 13.6677 2.45324 13.6677 3.38477V9.5069C13.6654 10.4407 13.219 10.8939 12.2989 10.8939ZM9.2492 2.45552C8.59325 2.45552 8.33589 2.71744 8.33589 3.38477V9.5069C8.33589 9.85082 8.40421 10.0877 8.54315 10.2289C8.68208 10.3701 8.91211 10.4362 9.2492 10.4362H12.2989C12.636 10.4362 12.8683 10.3678 13.0049 10.2289C13.1416 10.09 13.2122 9.85082 13.2122 9.5069V3.38477C13.2122 2.70605 12.9639 2.45552 12.2989 2.45552H9.2492Z" fill="#86888C"/>
<path d="M10.7732 8.63867C10.4817 8.63867 10.2949 8.79127 10.2949 9.11924C10.2949 9.27639 10.3382 9.39483 10.4156 9.47454C10.4999 9.56109 10.6229 9.60209 10.7732 9.60209C10.9235 9.60209 11.0465 9.56109 11.1308 9.47454C11.2082 9.39483 11.2515 9.27867 11.2515 9.11924C11.2538 8.79127 11.0647 8.63867 10.7732 8.63867Z" fill="#86888C"/>
</svg>
