<svg width="28" height="28" viewBox="0 0 28 28" fill="none" xmlns="http://www.w3.org/2000/svg">
<path d="M18.3288 20.0043H10.3345C9.40185 20.0043 8.57509 19.6934 7.94989 19.1023C7.2837 18.4737 6.85324 17.5616 6.66534 16.3863C6.4911 15.2897 4.86149 5.49153 4.66676 4.40171C4.58135 3.93025 4.30804 3.49979 3.88783 3.18548C3.46078 2.86093 2.91075 2.68327 2.34021 2.68327H0.341637C0.153737 2.68327 0 2.52954 0 2.34164C0 2.15374 0.153737 2 0.341637 2H2.34021C3.05765 2 3.75459 2.22548 4.30121 2.63886C4.85808 3.05566 5.22705 3.63986 5.3432 4.28214C5.53793 5.37537 7.17096 15.1838 7.34178 16.2804C7.64925 18.2414 8.71516 19.3244 10.3345 19.3244H18.3288C19.0702 19.3244 19.668 19.0853 20.1566 18.5967C20.6622 18.0911 21.0551 17.3019 21.3284 16.2497C21.4719 15.6996 21.9433 13.7933 22.4046 11.9519C22.7189 10.6878 23.0195 9.47843 23.2211 8.68242H18.7525C18.5646 8.68242 18.4108 8.52868 18.4108 8.34078C18.4108 8.15288 18.5646 7.99915 18.7525 7.99915H23.6584C23.8463 7.99915 24 8.15288 24 8.34078C24 8.36811 23.9966 8.39886 23.9897 8.42619C23.8018 9.17096 23.4465 10.6024 23.0673 12.1193C22.6095 13.9641 22.1347 15.8705 21.9912 16.4239C21.6837 17.6128 21.2396 18.484 20.6417 19.0853C20.0233 19.6934 19.2478 20.0043 18.3288 20.0043Z" fill="#86888C"/>
<path d="M10.5328 8.67937H5.77035C5.58245 8.67937 5.42871 8.52563 5.42871 8.33773C5.42871 8.14983 5.58245 7.99609 5.77035 7.99609H10.5328C10.7207 7.99609 10.8744 8.14983 10.8744 8.33773C10.8744 8.52563 10.7207 8.67937 10.5328 8.67937ZM10.3346 26.0004C9.27213 26.0004 8.6606 25.3888 8.6606 24.3263C8.6606 23.2638 9.27213 22.6523 10.3346 22.6523C11.3971 22.6523 12.0086 23.2638 12.0086 24.3263C12.0086 25.3888 11.4005 26.0004 10.3346 26.0004ZM10.3346 23.3356C9.64793 23.3356 9.34387 23.6396 9.34387 24.3263C9.34387 25.013 9.64793 25.3171 10.3346 25.3171C11.0213 25.3171 11.3254 25.013 11.3254 24.3263C11.3254 23.6396 11.0213 23.3356 10.3346 23.3356ZM16.9965 26.0004C15.934 26.0004 15.3225 25.3888 15.3225 24.3263C15.3225 23.2638 15.934 22.6523 16.9965 22.6523C18.059 22.6523 18.6706 23.2638 18.6706 24.3263C18.6706 25.3888 18.0624 26.0004 16.9965 26.0004ZM16.9965 23.3356C16.3098 23.3356 16.0058 23.6396 16.0058 24.3263C16.0058 25.013 16.3098 25.3171 16.9965 25.3171C17.6832 25.3171 17.9873 25.013 17.9873 24.3263C17.9873 23.6396 17.6832 23.3356 16.9965 23.3356Z" fill="#86888C"/>
<path d="M16.9481 15.3409H12.3735C10.9933 15.3409 10.3203 14.6611 10.3203 13.2638V4.07715C10.3203 2.69694 11.0104 2 12.3735 2H16.9481C18.3283 2 19.0013 2.67986 19.0013 4.07715V13.2604C18.9979 14.6611 18.3283 15.3409 16.9481 15.3409ZM12.3735 2.68327C11.3896 2.68327 11.0036 3.07616 11.0036 4.07715V13.2604C11.0036 13.7762 11.1061 14.1315 11.3145 14.3433C11.5229 14.5552 11.8679 14.6542 12.3735 14.6542H16.9481C17.4537 14.6542 17.8022 14.5517 18.0071 14.3433C18.2121 14.1349 18.318 13.7762 18.318 13.2604V4.07715C18.318 3.05907 17.9456 2.68327 16.9481 2.68327H12.3735Z" fill="#86888C"/>
<path d="M14.6598 11.959C14.2225 11.959 13.9424 12.1879 13.9424 12.6798C13.9424 12.9156 14.0073 13.0932 14.1234 13.2128C14.2499 13.3426 14.4343 13.4041 14.6598 13.4041C14.8853 13.4041 15.0698 13.3426 15.1962 13.2128C15.3123 13.0932 15.3773 12.919 15.3773 12.6798C15.3807 12.1879 15.0971 11.959 14.6598 11.959Z" fill="#86888C"/>
</svg>
