<svg width="24" height="24" viewBox="0 0 24 24" fill="none" xmlns="http://www.w3.org/2000/svg">
<path d="M15.2762 17.0036H8.61333C7.83599 17.0036 7.14693 16.7445 6.62585 16.252C6.07062 15.7281 5.71185 14.968 5.55524 13.9886C5.41002 13.0747 4.05182 4.90961 3.88952 4.00142C3.81834 3.60854 3.59055 3.24982 3.24032 2.9879C2.8844 2.71744 2.42597 2.5694 1.95046 2.5694H0.284738C0.128132 2.5694 0 2.44128 0 2.2847C0 2.12811 0.128132 2 0.284738 2H1.95046C2.54841 2 3.12927 2.1879 3.58485 2.53238C4.04898 2.87972 4.35649 3.36655 4.4533 3.90178C4.6156 4.81281 5.97665 12.9865 6.11902 13.9004C6.37529 15.5345 7.26367 16.437 8.61333 16.437H15.2762C15.8941 16.437 16.3924 16.2377 16.7995 15.8306C17.221 15.4093 17.5484 14.7516 17.7762 13.8747C17.8958 13.4164 18.2887 11.8278 18.6731 10.2932C18.9351 9.23986 19.1857 8.23203 19.3536 7.56868H15.5752C15.4186 7.56868 15.2904 7.44057 15.2904 7.28399C15.2904 7.1274 15.4186 6.99929 15.5752 6.99929H19.7181C19.8747 6.99929 20.0028 7.1274 20.0028 7.28399C20.0028 7.30676 20 7.33238 19.9943 7.35516C19.8377 7.9758 19.5416 9.16868 19.2255 10.4327C18.844 11.9701 18.4482 13.5587 18.3286 14.0199C18.0723 15.0107 17.7022 15.7367 17.2039 16.2377C16.6885 16.7445 16.0421 17.0036 15.2762 17.0036Z" fill="#86888C"/>
<path d="M8.86382 7.56582H4.80915C4.65255 7.56582 4.52441 7.4377 4.52441 7.28112C4.52441 7.12454 4.65255 6.99642 4.80915 6.99642H8.86382C9.02043 6.99642 9.14856 7.12454 9.14856 7.28112C9.14856 7.4377 9.02043 7.56582 8.86382 7.56582ZM8.61325 22C7.72772 22 7.21804 21.4904 7.21804 20.605C7.21804 19.7196 7.72772 19.2099 8.61325 19.2099C9.49879 19.2099 10.0085 19.7196 10.0085 20.605C10.0085 21.4904 9.50163 22 8.61325 22ZM8.61325 19.7793C8.04093 19.7793 7.78751 20.0327 7.78751 20.605C7.78751 21.1772 8.04093 21.4306 8.61325 21.4306C9.18558 21.4306 9.43899 21.1772 9.43899 20.605C9.43899 20.0327 9.18558 19.7793 8.61325 19.7793ZM14.1656 22C13.2801 22 12.7704 21.4904 12.7704 20.605C12.7704 19.7196 13.2801 19.2099 14.1656 19.2099C15.0512 19.2099 15.5609 19.7196 15.5609 20.605C15.5609 21.4904 15.054 22 14.1656 22ZM14.1656 19.7793C13.5933 19.7793 13.3399 20.0327 13.3399 20.605C13.3399 21.1772 13.5933 21.4306 14.1656 21.4306C14.738 21.4306 14.9914 21.1772 14.9914 20.605C14.9914 20.0327 14.738 19.7793 14.1656 19.7793ZM12.2209 6.78005C10.4897 6.78005 8.62464 6.37863 8.62464 5.49891C8.62464 4.6192 10.4897 4.21777 12.2209 4.21777C13.9521 4.21777 15.8171 4.6192 15.8171 5.49891C15.8171 6.37863 13.9549 6.78005 12.2209 6.78005ZM12.2209 4.79002C11.3638 4.79002 10.5609 4.88966 9.96006 5.06902C9.33079 5.25977 9.19412 5.4619 9.19412 5.50176C9.19412 5.54162 9.33079 5.74375 9.96006 5.93165C10.558 6.11101 11.361 6.21066 12.2209 6.21066C13.0808 6.21066 13.8809 6.11101 14.4817 5.93165C15.1138 5.74091 15.2476 5.53877 15.2476 5.49891C15.2476 5.45905 15.111 5.25692 14.4817 5.06617C13.8809 4.88966 13.0808 4.79002 12.2209 4.79002Z" fill="#86888C"/>
<path d="M12.2212 9.43024C10.49 9.43024 8.625 9.02881 8.625 8.1491V5.50141C8.625 5.34483 8.75313 5.21671 8.90974 5.21671C9.06634 5.21671 9.19448 5.34483 9.19448 5.50141C9.19448 5.54127 9.33115 5.7434 9.96042 5.93131C10.5584 6.11066 11.3613 6.21031 12.2212 6.21031C13.0812 6.21031 13.8813 6.11066 14.4821 5.93131C15.1142 5.74056 15.248 5.53842 15.248 5.49856C15.248 5.34198 15.3761 5.21387 15.5327 5.21387C15.6894 5.21387 15.8175 5.34198 15.8175 5.49856V8.14625C15.8175 9.02881 13.9553 9.43024 12.2212 9.43024ZM9.19448 6.23593V8.1491C9.19448 8.18896 9.33115 8.39109 9.96042 8.57899C10.5584 8.75835 11.3613 8.86084 12.2212 8.86084C13.0812 8.86084 13.8813 8.7612 14.4821 8.58184C15.1142 8.39109 15.248 8.18896 15.248 8.15195V6.23878C14.5646 6.60888 13.363 6.78255 12.2212 6.78255C11.0794 6.78255 9.88069 6.60604 9.19448 6.23593Z" fill="#86888C"/>
<path d="M12.2212 12.0778C10.49 12.0778 8.625 11.6764 8.625 10.7966V8.14896C8.625 7.99237 8.75313 7.86426 8.90974 7.86426C9.06634 7.86426 9.19448 7.99237 9.19448 8.14896C9.19448 8.18881 9.33115 8.39095 9.96042 8.57885C10.5584 8.75821 11.3613 8.8607 12.2212 8.8607C13.0812 8.8607 13.8813 8.76105 14.4821 8.5817C15.1142 8.39095 15.248 8.18881 15.248 8.1518C15.248 7.99522 15.3761 7.8671 15.5327 7.8671C15.6894 7.8671 15.8175 7.99522 15.8175 8.1518V10.7995C15.8175 11.6764 13.9553 12.0778 12.2212 12.0778ZM9.19448 8.88347V10.7966C9.19448 10.8365 9.33115 11.0386 9.96042 11.2265C10.5584 11.4087 11.3613 11.5084 12.2212 11.5084C13.0812 11.5084 13.8813 11.4087 14.4821 11.2294C15.1142 11.0386 15.248 10.8365 15.248 10.7995V8.88632C14.5646 9.25643 13.363 9.43009 12.2212 9.43009C11.0794 9.43009 9.88069 9.25643 9.19448 8.88347Z" fill="#86888C"/>
<path d="M12.2212 14.7262C10.49 14.7262 8.625 14.3248 8.625 13.4451V10.7974C8.625 10.6408 8.75313 10.5127 8.90974 10.5127C9.06634 10.5127 9.19448 10.6408 9.19448 10.7974C9.19448 10.8373 9.33115 11.0394 9.96042 11.2273C10.5584 11.4095 11.3613 11.5091 12.2212 11.5091C13.0812 11.5091 13.8813 11.4095 14.4821 11.2301C15.1142 11.0394 15.248 10.8373 15.248 10.8002C15.248 10.6437 15.3761 10.5155 15.5327 10.5155C15.6894 10.5155 15.8175 10.6437 15.8175 10.8002V13.4479C15.8175 14.3276 13.9553 14.7262 12.2212 14.7262ZM9.19448 11.5348V13.4479C9.19448 13.4878 9.33115 13.6899 9.96042 13.8778C10.5584 14.0572 11.3613 14.1568 12.2212 14.1568C13.0812 14.1568 13.8813 14.0572 14.4821 13.8778C15.1142 13.6871 15.248 13.4849 15.248 13.4479V11.5348C14.5646 11.9049 13.363 12.0785 12.2212 12.0785C11.0794 12.0785 9.88069 11.9049 9.19448 11.5348Z" fill="#86888C"/>
</svg>
