<svg width="28" height="28" viewBox="0 0 28 28" fill="none" xmlns="http://www.w3.org/2000/svg">
<path d="M18.3288 20.0043H10.3345C9.40185 20.0043 8.57509 19.6934 7.94989 19.1023C7.2837 18.4737 6.85324 17.5616 6.66534 16.3863C6.4911 15.2897 4.86149 5.49153 4.66676 4.40171C4.58135 3.93025 4.30804 3.49979 3.88783 3.18548C3.46078 2.86093 2.91075 2.68327 2.34021 2.68327H0.341637C0.153737 2.68327 0 2.52954 0 2.34164C0 2.15374 0.153737 2 0.341637 2H2.34021C3.05765 2 3.75459 2.22548 4.30121 2.63886C4.85808 3.05566 5.22704 3.63986 5.3432 4.28213C5.53793 5.37537 7.17096 15.1838 7.34178 16.2804C7.64925 18.2414 8.71516 19.3244 10.3345 19.3244H18.3288C19.0702 19.3244 19.668 19.0853 20.1566 18.5967C20.6622 18.0911 21.0551 17.3019 21.3284 16.2497C21.4719 15.6996 21.9433 13.7933 22.4045 11.9519C22.7189 10.6878 23.0195 9.47843 23.2211 8.68242H19.241C19.0531 8.68242 18.8994 8.52868 18.8994 8.34078C18.8994 8.15288 19.0531 7.99914 19.241 7.99914H23.6584C23.8463 7.99914 24 8.15288 24 8.34078C24 8.36811 23.9966 8.39886 23.9897 8.42619C23.8018 9.17096 23.4465 10.6024 23.0673 12.1193C22.6095 13.9641 22.1347 15.8705 21.9912 16.4239C21.6837 17.6128 21.2396 18.484 20.6417 19.0853C20.0233 19.6934 19.2478 20.0043 18.3288 20.0043Z" fill="#86888C"/>
<path d="M10.3278 8.67937H5.77035C5.58245 8.67937 5.42871 8.52563 5.42871 8.33773C5.42871 8.14983 5.58245 7.99609 5.77035 7.99609H10.3278C10.5157 7.99609 10.6694 8.14983 10.6694 8.33773C10.6694 8.52563 10.5157 8.67937 10.3278 8.67937ZM10.3346 26.0004C9.27213 26.0004 8.6606 25.3888 8.6606 24.3263C8.6606 23.2638 9.27213 22.6523 10.3346 22.6523C11.3971 22.6523 12.0086 23.2638 12.0086 24.3263C12.0086 25.3888 11.4005 26.0004 10.3346 26.0004ZM10.3346 23.3356C9.64793 23.3356 9.34387 23.6396 9.34387 24.3263C9.34387 25.013 9.64793 25.3171 10.3346 25.3171C11.0213 25.3171 11.3254 25.013 11.3254 24.3263C11.3254 23.6396 11.0213 23.3356 10.3346 23.3356ZM16.9965 26.0004C15.934 26.0004 15.3225 25.3888 15.3225 24.3263C15.3225 23.2638 15.934 22.6523 16.9965 22.6523C18.059 22.6523 18.6706 23.2638 18.6706 24.3263C18.6706 25.3888 18.0624 26.0004 16.9965 26.0004ZM16.9965 23.3356C16.3098 23.3356 16.0058 23.6396 16.0058 24.3263C16.0058 25.013 16.3098 25.3171 16.9965 25.3171C17.6832 25.3171 17.9873 25.013 17.9873 24.3263C17.9873 23.6396 17.6832 23.3356 16.9965 23.3356Z" fill="#86888C"/>
<path d="M18.3223 16.038H10.9942C10.3348 16.038 9.95561 15.6588 9.95561 14.9994V10.7084H8.32942C8.12443 10.7084 7.95703 10.541 7.95703 10.3361C7.95703 10.2404 7.99461 10.1482 8.05952 10.0798L14.3969 3.41791C14.4686 3.34275 14.5643 3.30176 14.6668 3.30176C14.7693 3.30176 14.8649 3.34275 14.9367 3.41791L16.6175 5.19101V4.34033C16.6175 4.13535 16.7849 3.96795 16.9899 3.96795H18.9885C19.1935 3.96795 19.3609 4.13535 19.3609 4.34033V8.08126L21.257 10.0798C21.397 10.2302 21.3936 10.4659 21.2433 10.606C21.175 10.6709 21.0827 10.7084 20.9871 10.7084H19.3609V14.9994C19.3609 15.6588 18.9817 16.038 18.3223 16.038ZM9.19717 9.96368H10.328C10.533 9.96368 10.7004 10.1311 10.7004 10.3361V14.9994C10.7004 15.242 10.7516 15.2932 10.9942 15.2932H18.3223C18.5649 15.2932 18.6161 15.242 18.6161 14.9994V10.3361C18.6161 10.1311 18.7835 9.96368 18.9885 9.96368H20.1193L18.7186 8.48439C18.6537 8.41606 18.6161 8.32382 18.6161 8.22816V4.71272H17.3623V6.12368C17.3623 6.32866 17.1949 6.49606 16.9899 6.49606C16.8874 6.49606 16.7883 6.45507 16.72 6.37991L14.6668 4.21734L9.19717 9.96368Z" fill="#86888C"/>
</svg>
