<svg width="40" height="40" viewBox="0 0 40 40" fill="none" xmlns="http://www.w3.org/2000/svg">
<path d="M27.4932 29.0064H15.5018C14.1028 29.0064 12.8626 28.5401 11.9248 27.6535C10.9256 26.7106 10.2799 25.3424 9.99801 23.5795C9.83915 22.5597 8.83986 16.5332 8.03018 11.7008C8.00455 11.6393 7.99431 11.5727 7.99431 11.5061V11.4753C7.5126 8.60555 7.11288 6.20726 7.00014 5.59744C6.87203 4.89025 6.45694 4.24455 5.83174 3.7731C5.19117 3.29139 4.36612 3.02491 3.51032 3.02491H0.512456C0.230605 3.02491 0 2.79431 0 2.51246C0 2.2306 0.230605 2 0.512456 2H3.51032C4.58648 2 5.63189 2.33822 6.45182 2.95829C7.28712 3.58349 7.84057 4.45979 8.00968 5.41808C8.11217 6.00228 8.49651 8.26221 8.9526 10.9936H35.4875C35.7694 10.9936 36 11.2242 36 11.5061C36 11.547 35.9949 11.5932 35.9846 11.6342C35.7028 12.7513 35.1698 14.8985 34.601 17.1738C33.9143 19.9411 33.202 22.8006 32.9868 23.6307C32.5256 25.4141 31.8594 26.7209 30.9626 27.6228C30.035 28.5401 28.8717 29.0064 27.4932 29.0064ZM9.12683 12.0185C9.91601 16.7638 10.8589 22.4316 11.0127 23.4155C11.4739 26.357 13.0676 27.9815 15.5018 27.9815H27.4932C28.6053 27.9815 29.5021 27.6228 30.2349 26.89C30.9933 26.1315 31.5826 24.9478 31.9926 23.3694C32.2078 22.5443 32.915 19.6848 33.6068 16.9227C34.0783 15.0266 34.5293 13.2125 34.8316 12.0185H9.12683ZM15.5018 38C13.908 38 12.9907 37.0827 12.9907 35.489C12.9907 33.8952 13.908 32.9779 15.5018 32.9779C17.0955 32.9779 18.0128 33.8952 18.0128 35.489C18.0128 37.0827 17.0955 38 15.5018 38ZM15.5018 34.0028C14.4717 34.0028 14.0157 34.4589 14.0157 35.489C14.0157 36.519 14.4717 36.9751 15.5018 36.9751C16.5318 36.9751 16.9879 36.519 16.9879 35.489C16.9879 34.4589 16.5318 34.0028 15.5018 34.0028ZM25.4947 38C23.9009 38 22.9836 37.0827 22.9836 35.489C22.9836 33.8952 23.9009 32.9779 25.4947 32.9779C27.0884 32.9779 28.0057 33.8952 28.0057 35.489C28.0057 37.0827 27.0884 38 25.4947 38ZM25.4947 34.0028C24.4646 34.0028 24.0085 34.4589 24.0085 35.489C24.0085 36.519 24.4646 36.9751 25.4947 36.9751C26.5247 36.9751 26.9808 36.519 26.9808 35.489C26.9808 34.4589 26.5247 34.0028 25.4947 34.0028Z" fill="#86888C"/>
</svg>
