<svg width="20" height="20" viewBox="0 0 20 20" fill="none" xmlns="http://www.w3.org/2000/svg">
<path d="M13.04 14.0028H7.71048C7.0887 14.0028 6.53752 13.7956 6.12073 13.4016C5.6766 12.9825 5.38962 12.3744 5.26436 11.5909C5.1482 10.8598 4.0618 4.32769 3.93197 3.60114C3.87503 3.28683 3.69283 2.99986 3.41269 2.79032C3.12799 2.57395 2.7613 2.45552 2.38094 2.45552H1.04856C0.923292 2.45552 0.820801 2.35302 0.820801 2.22776C0.820801 2.10249 0.923292 2 1.04856 2H2.38094C2.85923 2 3.32386 2.15032 3.68827 2.42591C4.05952 2.70377 4.3055 3.09324 4.38293 3.52142C4.51276 4.25025 5.60144 10.7892 5.71532 11.5203C5.9203 12.8276 6.63091 13.5496 7.71048 13.5496H13.04C13.5342 13.5496 13.9328 13.3902 14.2585 13.0645C14.5956 12.7274 14.8575 12.2013 15.0397 11.4998C15.1354 11.1331 15.4497 9.8622 15.7572 8.63459C15.9667 7.79188 16.1671 6.98562 16.3015 6.45495H13.6481C13.5229 6.45495 13.4204 6.35245 13.4204 6.22719C13.4204 6.10192 13.5229 5.99943 13.6481 5.99943H16.593C16.7183 5.99943 16.8208 6.10192 16.8208 6.22719C16.8208 6.24541 16.8185 6.26591 16.814 6.28413C16.6887 6.78064 16.4518 7.73495 16.199 8.74619C15.8938 9.97608 15.5772 11.247 15.4816 11.6159C15.2766 12.4085 14.9805 12.9893 14.5819 13.3902C14.1697 13.7956 13.6527 14.0028 13.04 14.0028Z" fill="#86888C"/>
<path d="M7.70599 6.45259H4.6677C4.54243 6.45259 4.43994 6.3501 4.43994 6.22483C4.43994 6.09956 4.54243 5.99707 4.6677 5.99707H7.70599C7.83126 5.99707 7.93375 6.09956 7.93375 6.22483C7.93375 6.3501 7.83126 6.45259 7.70599 6.45259ZM7.71055 17.9999C7.00222 17.9999 6.59453 17.5922 6.59453 16.8839C6.59453 16.1756 7.00222 15.7679 7.71055 15.7679C8.41887 15.7679 8.82656 16.1756 8.82656 16.8839C8.82656 17.5922 8.42115 17.9999 7.71055 17.9999ZM7.71055 16.2234C7.25275 16.2234 7.05005 16.4261 7.05005 16.8839C7.05005 17.3417 7.25275 17.5444 7.71055 17.5444C8.16834 17.5444 8.37104 17.3417 8.37104 16.8839C8.37104 16.4261 8.16834 16.2234 7.71055 16.2234ZM12.1518 17.9999C11.4435 17.9999 11.0358 17.5922 11.0358 16.8839C11.0358 16.1756 11.4435 15.7679 12.1518 15.7679C12.8602 15.7679 13.2678 16.1756 13.2678 16.8839C13.2678 17.5922 12.8624 17.9999 12.1518 17.9999ZM12.1518 16.2234C11.694 16.2234 11.4913 16.4261 11.4913 16.8839C11.4913 17.3417 11.694 17.5444 12.1518 17.5444C12.6096 17.5444 12.8123 17.3417 12.8123 16.8839C12.8123 16.4261 12.6096 16.2234 12.1518 16.2234Z" fill="#86888C"/>
<path d="M13.0357 11.359H8.15026C7.71068 11.359 7.45787 11.1062 7.45787 10.6666V7.80596H6.37374C6.23709 7.80596 6.12549 7.69435 6.12549 7.5577C6.12549 7.49393 6.15054 7.43243 6.19382 7.38688L10.4187 2.9456C10.4666 2.8955 10.5303 2.86816 10.5987 2.86816C10.667 2.86816 10.7308 2.8955 10.7786 2.9456L11.8992 4.12767V3.56055C11.8992 3.42389 12.0108 3.31229 12.1474 3.31229H13.4798C13.6164 3.31229 13.728 3.42389 13.728 3.56055V6.0545L14.9921 7.38688C15.0855 7.48709 15.0832 7.64425 14.983 7.73763C14.9374 7.7809 14.8759 7.80596 14.8122 7.80596H13.728V10.6666C13.728 11.1062 13.4752 11.359 13.0357 11.359ZM6.95225 7.30944H7.70613C7.84278 7.30944 7.95438 7.42104 7.95438 7.5577V10.6666C7.95438 10.8283 7.98855 10.8625 8.15026 10.8625H13.0357C13.1974 10.8625 13.2315 10.8283 13.2315 10.6666V7.5577C13.2315 7.42104 13.3431 7.30944 13.4798 7.30944H14.2337L13.2999 6.32325C13.2566 6.2777 13.2315 6.21621 13.2315 6.15243V3.8088H12.3957V4.74944C12.3957 4.8861 12.2841 4.9977 12.1474 4.9977C12.0791 4.9977 12.013 4.97037 11.9675 4.92026L10.5987 3.47856L6.95225 7.30944Z" fill="#86888C"/>
</svg>
