<svg width="24" height="24" viewBox="0 0 24 24" fill="none" xmlns="http://www.w3.org/2000/svg">
<path d="M15.274 17.0036H8.6121C7.83487 17.0036 7.14591 16.7445 6.62491 16.252C6.06975 15.7281 5.71103 14.968 5.55445 13.9886C5.40925 13.0747 4.05124 4.90961 3.88897 4.00142C3.81779 3.60854 3.59003 3.24982 3.23986 2.9879C2.88399 2.71744 2.42562 2.56939 1.95018 2.56939H0.284697C0.128114 2.56939 0 2.44128 0 2.2847C0 2.12811 0.128114 2 0.284697 2H1.95018C2.54804 2 3.12882 2.1879 3.58434 2.53238C4.0484 2.87972 4.35587 3.36655 4.45267 3.90178C4.61495 4.81281 5.9758 12.9865 6.11815 13.9004C6.37438 15.5345 7.26263 16.437 8.6121 16.437H15.274C15.8918 16.437 16.39 16.2377 16.7971 15.8306C17.2185 15.4093 17.5459 14.7516 17.7737 13.8747C17.8932 13.4164 18.2861 11.8278 18.6705 10.2932C18.9324 9.23986 19.1829 8.23203 19.3509 7.56868H15.627C15.4705 7.56868 15.3423 7.44057 15.3423 7.28399C15.3423 7.1274 15.4705 6.99929 15.627 6.99929H19.7153C19.8719 6.99929 20 7.1274 20 7.28399C20 7.30676 19.9971 7.33238 19.9915 7.35516C19.8349 7.9758 19.5388 9.16868 19.2228 10.4327C18.8413 11.9701 18.4455 13.5587 18.326 14.0199C18.0697 15.0107 17.6996 15.7367 17.2014 16.2377C16.6861 16.7445 16.0399 17.0036 15.274 17.0036Z" fill="#86888C"/>
<path d="M8.77731 7.56549H4.80862C4.65204 7.56549 4.52393 7.43737 4.52393 7.28079C4.52393 7.12421 4.65204 6.99609 4.80862 6.99609H8.77731C8.93389 6.99609 9.062 7.12421 9.062 7.28079C9.062 7.43737 8.93389 7.56549 8.77731 7.56549ZM8.61218 21.9997C7.72677 21.9997 7.21716 21.49 7.21716 20.6046C7.21716 19.7192 7.72677 19.2096 8.61218 19.2096C9.49759 19.2096 10.0072 19.7192 10.0072 20.6046C10.0072 21.49 9.50044 21.9997 8.61218 21.9997ZM8.61218 19.779C8.03994 19.779 7.78656 20.0324 7.78656 20.6046C7.78656 21.1769 8.03994 21.4303 8.61218 21.4303C9.18442 21.4303 9.4378 21.1769 9.4378 20.6046C9.4378 20.0324 9.18442 19.779 8.61218 19.779ZM14.1638 21.9997C13.2784 21.9997 12.7688 21.49 12.7688 20.6046C12.7688 19.7192 13.2784 19.2096 14.1638 19.2096C15.0492 19.2096 15.5588 19.7192 15.5588 20.6046C15.5588 21.49 15.052 21.9997 14.1638 21.9997ZM14.1638 19.779C13.5915 19.779 13.3382 20.0324 13.3382 20.6046C13.3382 21.1769 13.5915 21.4303 14.1638 21.4303C14.736 21.4303 14.9894 21.1769 14.9894 20.6046C14.9894 20.0324 14.736 19.779 14.1638 19.779Z" fill="#86888C"/>
<path d="M14.1237 13.1174H10.3116C9.16144 13.1174 8.60059 12.5509 8.60059 11.3865V3.73096C8.60059 2.58078 9.17567 2 10.3116 2H14.1237C15.2739 2 15.8347 2.56655 15.8347 3.73096V11.3836C15.8319 12.5509 15.2739 13.1174 14.1237 13.1174ZM10.3116 2.5694C9.49169 2.5694 9.16998 2.8968 9.16998 3.73096V11.3836C9.16998 11.8135 9.25539 12.1096 9.42905 12.2861C9.60272 12.4626 9.89026 12.5452 10.3116 12.5452H14.1237C14.5451 12.5452 14.8355 12.4598 15.0063 12.2861C15.1771 12.1125 15.2654 11.8135 15.2654 11.3836V3.73096C15.2654 2.88256 14.955 2.5694 14.1237 2.5694H10.3116Z" fill="#86888C"/>
<path d="M12.2165 10.2988C11.8521 10.2988 11.6187 10.4896 11.6187 10.8995C11.6187 11.096 11.6727 11.244 11.7695 11.3437C11.8749 11.4519 12.0286 11.5031 12.2165 11.5031C12.4044 11.5031 12.5582 11.4519 12.6635 11.3437C12.7603 11.244 12.8144 11.0988 12.8144 10.8995C12.8172 10.4896 12.5809 10.2988 12.2165 10.2988Z" fill="#86888C"/>
</svg>
