<svg width="20" height="20" viewBox="0 0 20 20" fill="none" xmlns="http://www.w3.org/2000/svg">
<path d="M12.2192 14.0028H6.88968C6.2679 14.0028 5.71672 13.7956 5.29993 13.4016C4.8558 12.9825 4.56882 12.3744 4.44356 11.5909C4.3274 10.8598 3.241 4.32769 3.11117 3.60114C3.05423 3.28911 2.87203 2.99986 2.59189 2.79032C2.30719 2.57395 1.9405 2.45552 1.56014 2.45552H0.227758C0.102491 2.45552 0 2.35302 0 2.22776C0 2.10249 0.102491 2 0.227758 2H1.56014C2.03843 2 2.50306 2.1526 2.86747 2.42591C3.23872 2.70377 3.4847 3.09324 3.56213 3.52142C3.69196 4.25025 4.78064 10.7892 4.89452 11.5203C5.0995 12.8276 5.81011 13.5496 6.88968 13.5496H12.2192C12.7135 13.5496 13.112 13.3902 13.4377 13.0645C13.7748 12.7274 14.0367 12.2013 14.2189 11.4998C14.3146 11.1331 14.6289 9.86221 14.9364 8.63459C15.1459 7.79188 15.3463 6.98562 15.4807 6.45495H12.488C12.3627 6.45495 12.2602 6.35246 12.2602 6.22719C12.2602 6.10192 12.3627 5.99943 12.488 5.99943H15.7722C15.8975 5.99943 16 6.10192 16 6.22719C16 6.24541 15.9977 6.26591 15.9932 6.28413C15.8679 6.78064 15.631 7.73495 15.3782 8.74619C15.073 9.97153 14.7564 11.2424 14.6608 11.6114C14.4558 12.404 14.1597 12.9848 13.7611 13.3856C13.3489 13.7956 12.8319 14.0028 12.2192 14.0028Z" fill="#86888C"/>
<path d="M6.31807 6.45259H3.8469C3.72163 6.45259 3.61914 6.3501 3.61914 6.22483C3.61914 6.09956 3.72163 5.99707 3.8469 5.99707H6.31807C6.44334 5.99707 6.54583 6.09956 6.54583 6.22483C6.54583 6.3501 6.44334 6.45259 6.31807 6.45259ZM6.88974 17.9999C6.18142 17.9999 5.77373 17.5922 5.77373 16.8839C5.77373 16.1756 6.18142 15.7679 6.88974 15.7679C7.59807 15.7679 8.00576 16.1756 8.00576 16.8839C8.00576 17.5922 7.60035 17.9999 6.88974 17.9999ZM6.88974 16.2234C6.43195 16.2234 6.22925 16.4261 6.22925 16.8839C6.22925 17.3417 6.43195 17.5444 6.88974 17.5444C7.34754 17.5444 7.55024 17.3417 7.55024 16.8839C7.55024 16.4261 7.34754 16.2234 6.88974 16.2234ZM11.331 17.9999C10.6227 17.9999 10.215 17.5922 10.215 16.8839C10.215 16.1756 10.6227 15.7679 11.331 15.7679C12.0394 15.7679 12.447 16.1756 12.447 16.8839C12.447 17.5922 12.0416 17.9999 11.331 17.9999ZM11.331 16.2234C10.8732 16.2234 10.6705 16.4261 10.6705 16.8839C10.6705 17.3417 10.8732 17.5444 11.331 17.5444C11.7888 17.5444 11.9915 17.3417 11.9915 16.8839C11.9915 16.4261 11.7888 16.2234 11.331 16.2234Z" fill="#86888C"/>
<path d="M11.7477 11.3358H6.74389C6.41365 11.3358 6.21777 11.1376 6.21777 10.8051V2.52384C6.21777 2.2027 6.4182 2 6.74389 2H9.99628C10.0578 2 10.1147 2.02505 10.158 2.06605L12.6064 4.51445C12.6497 4.55772 12.6724 4.61466 12.6724 4.67616V10.8188C12.6724 11.1354 12.4743 11.3335 12.1577 11.3335L11.7477 11.3358ZM11.1761 10.8803H12.1509C12.1691 10.8803 12.1873 10.878 12.2033 10.8735C12.2078 10.8552 12.2101 10.837 12.2101 10.8188V4.77181L9.89834 2.45552H6.74162C6.72112 2.45552 6.69834 2.45779 6.67784 2.46463C6.67101 2.48512 6.66873 2.50562 6.67101 2.52384V10.8051C6.67101 10.8279 6.67329 10.8507 6.68012 10.8712C6.70062 10.878 6.7234 10.8803 6.74389 10.878C7.11286 10.8803 10.8413 10.8803 11.1761 10.8803Z" fill="#86888C"/>
<path d="M11.1216 6.45267H7.56858C7.44331 6.45267 7.34082 6.35018 7.34082 6.22491C7.34082 6.09964 7.44331 5.99715 7.56858 5.99715H11.1216C11.2469 5.99715 11.3494 6.09964 11.3494 6.22491C11.3494 6.35018 11.2469 6.45267 11.1216 6.45267ZM11.1216 8.00826H7.56858C7.44331 8.00826 7.34082 7.90576 7.34082 7.7805C7.34082 7.65523 7.44331 7.55274 7.56858 7.55274H11.1216C11.2469 7.55274 11.3494 7.65523 11.3494 7.7805C11.3494 7.90576 11.2469 8.00826 11.1216 8.00826ZM11.1216 9.56157H7.56858C7.44331 9.56157 7.34082 9.45907 7.34082 9.33381C7.34082 9.20854 7.44331 9.10605 7.56858 9.10605H11.1216C11.2469 9.10605 11.3494 9.20854 11.3494 9.33381C11.3494 9.45907 11.2469 9.56157 11.1216 9.56157ZM11.1626 4.90391H10.8802C10.4862 4.90164 10.1901 4.76498 10.001 4.49851C9.84388 4.2753 9.76644 3.96783 9.76416 3.56014V2.22776C9.76416 2.10249 9.86666 2 9.99192 2C10.0534 2 10.1104 2.02505 10.1536 2.06605L12.5998 4.51445C12.6886 4.60327 12.6886 4.74676 12.5998 4.83559C12.5565 4.87886 12.4995 4.90164 12.438 4.90164L11.1626 4.90391ZM10.222 2.77893V3.55786C10.2242 4.33907 10.5408 4.44612 10.8825 4.4484H11.8914L10.222 2.77893Z" fill="#86888C"/>
</svg>
