<svg width="24" height="24" viewBox="0 0 24 24" fill="none" xmlns="http://www.w3.org/2000/svg">
<path d="M15.274 17.0036H8.6121C7.83487 17.0036 7.14591 16.7445 6.62491 16.252C6.06975 15.7281 5.71103 14.968 5.55445 13.9886C5.40925 13.0747 4.05124 4.90961 3.88897 4.00142C3.81779 3.61139 3.59003 3.24982 3.23986 2.9879C2.88399 2.71744 2.42562 2.56939 1.95018 2.56939H0.284697C0.128114 2.56939 0 2.44128 0 2.2847C0 2.12811 0.128114 2 0.284697 2H1.95018C2.54804 2 3.12882 2.19075 3.58434 2.53238C4.0484 2.87972 4.35587 3.36655 4.45267 3.90178C4.61495 4.81281 5.9758 12.9865 6.11815 13.9004C6.37438 15.5345 7.26263 16.437 8.6121 16.437H15.274C15.8918 16.437 16.39 16.2377 16.7971 15.8306C17.2185 15.4093 17.5459 14.7516 17.7737 13.8747C17.8932 13.4164 18.2861 11.8278 18.6705 10.2932C18.9324 9.23986 19.1829 8.23203 19.3509 7.56868H15.61C15.4534 7.56868 15.3253 7.44057 15.3253 7.28399C15.3253 7.1274 15.4534 6.99929 15.61 6.99929H19.7153C19.8719 6.99929 20 7.1274 20 7.28399C20 7.30676 19.9971 7.33238 19.9915 7.35516C19.8349 7.9758 19.5388 9.16868 19.2228 10.4327C18.8413 11.9644 18.4455 13.553 18.326 14.0142C18.0697 15.005 17.6996 15.731 17.2014 16.232C16.6861 16.7445 16.0399 17.0036 15.274 17.0036Z" fill="#86888C"/>
<path d="M7.89759 7.56549H4.80862C4.65204 7.56549 4.52393 7.43737 4.52393 7.28079C4.52393 7.12421 4.65204 6.99609 4.80862 6.99609H7.89759C8.05417 6.99609 8.18229 7.12421 8.18229 7.28079C8.18229 7.43737 8.05417 7.56549 7.89759 7.56549ZM8.61218 21.9997C7.72677 21.9997 7.21716 21.49 7.21716 20.6046C7.21716 19.7192 7.72677 19.2096 8.61218 19.2096C9.49759 19.2096 10.0072 19.7192 10.0072 20.6046C10.0072 21.49 9.50044 21.9997 8.61218 21.9997ZM8.61218 19.779C8.03994 19.779 7.78656 20.0324 7.78656 20.6046C7.78656 21.1769 8.03994 21.4303 8.61218 21.4303C9.18442 21.4303 9.4378 21.1769 9.4378 20.6046C9.4378 20.0324 9.18442 19.779 8.61218 19.779ZM14.1638 21.9997C13.2784 21.9997 12.7688 21.49 12.7688 20.6046C12.7688 19.7192 13.2784 19.2096 14.1638 19.2096C15.0492 19.2096 15.5588 19.7192 15.5588 20.6046C15.5588 21.49 15.052 21.9997 14.1638 21.9997ZM14.1638 19.779C13.5915 19.779 13.3382 20.0324 13.3382 20.6046C13.3382 21.1769 13.5915 21.4303 14.1638 21.4303C14.736 21.4303 14.9894 21.1769 14.9894 20.6046C14.9894 20.0324 14.736 19.779 14.1638 19.779Z" fill="#86888C"/>
<path d="M14.6849 13.6697H8.43011C8.0173 13.6697 7.77246 13.4221 7.77246 13.0064V2.6548C7.77246 2.25338 8.02299 2 8.43011 2H12.4956C12.5725 2 12.6436 2.03132 12.6977 2.08256L15.7582 5.14306C15.8123 5.19715 15.8408 5.26833 15.8408 5.3452V13.0235C15.8408 13.4192 15.5931 13.6669 15.1974 13.6669L14.6849 13.6697ZM13.9703 13.1004H15.1888C15.2116 13.1004 15.2344 13.0975 15.2543 13.0918C15.26 13.069 15.2629 13.0463 15.2629 13.0235V5.46477L12.3732 2.56939H8.42727C8.40164 2.56939 8.37317 2.57224 8.34755 2.58078C8.33901 2.60641 8.33616 2.63203 8.33901 2.6548V13.0064C8.33901 13.0349 8.34186 13.0633 8.3504 13.089C8.37602 13.0975 8.40449 13.1004 8.43011 13.0975C8.89132 13.1004 13.5518 13.1004 13.9703 13.1004Z" fill="#86888C"/>
<path d="M13.9018 7.56584H9.46048C9.3039 7.56584 9.17578 7.43772 9.17578 7.28114C9.17578 7.12455 9.3039 6.99644 9.46048 6.99644H13.9018C14.0583 6.99644 14.1865 7.12455 14.1865 7.28114C14.1865 7.43772 14.0583 7.56584 13.9018 7.56584ZM13.9018 9.51032H9.46048C9.3039 9.51032 9.17578 9.38221 9.17578 9.22562C9.17578 9.06904 9.3039 8.94092 9.46048 8.94092H13.9018C14.0583 8.94092 14.1865 9.06904 14.1865 9.22562C14.1865 9.38221 14.0583 9.51032 13.9018 9.51032ZM13.9018 11.452H9.46048C9.3039 11.452 9.17578 11.3238 9.17578 11.1673C9.17578 11.0107 9.3039 10.8826 9.46048 10.8826H13.9018C14.0583 10.8826 14.1865 11.0107 14.1865 11.1673C14.1865 11.3238 14.0583 11.452 13.9018 11.452ZM13.953 5.62989H13.6C13.1075 5.62705 12.7373 5.45623 12.501 5.12313C12.3046 4.84413 12.2078 4.45979 12.205 3.95018V2.2847C12.205 2.12811 12.3331 2 12.4897 2C12.5665 2 12.6377 2.03132 12.6918 2.08256L15.7494 5.14306C15.8605 5.25409 15.8605 5.43345 15.7494 5.54448C15.6954 5.59858 15.6242 5.62705 15.5473 5.62705L13.953 5.62989ZM12.7772 2.97367V3.94733C12.7801 4.92384 13.1758 5.05765 13.6028 5.0605H14.864L12.7772 2.97367Z" fill="#86888C"/>
</svg>
