<svg width="28" height="28" viewBox="0 0 28 28" fill="none" xmlns="http://www.w3.org/2000/svg">
<path fill-rule="evenodd" clip-rule="evenodd" d="M10.0419 9.3657H9.98537C9.79457 9.37639 9.61437 9.44054 9.49423 9.54744C9.2151 9.78976 9.2681 10.2281 9.32463 10.4668C9.36703 10.6486 9.44123 10.8374 9.51543 11.0263C9.64616 11.3612 9.80517 11.7033 10.0242 12.049C10.049 12.0882 10.0702 12.1167 10.0949 12.1523C10.3458 12.5372 10.5578 12.8045 10.9146 13.1715C10.9464 13.2071 11.0524 13.314 11.1408 13.3782C11.1867 13.4102 11.2326 13.4352 11.2786 13.4423L11.3174 13.4459H11.321C11.3916 13.4316 11.4411 13.4102 11.4835 13.3746C11.5718 13.3105 11.6778 13.2036 11.7061 13.1715C12.0312 12.8294 12.2396 12.5728 12.4622 12.245C12.5082 12.1808 12.5506 12.1167 12.6 12.0419C12.759 11.7889 12.8862 11.543 13.0028 11.2971C13.1336 11.0085 13.236 10.7305 13.3032 10.4561C13.3703 10.1639 13.3986 9.76481 13.1336 9.53675C13.0134 9.42984 12.8332 9.3657 12.6389 9.35501C12.6248 9.35501 12.6106 9.35857 12.5965 9.35857C12.3739 9.35145 12.1548 9.41203 11.9428 9.53319C11.8404 9.59376 11.7344 9.65078 11.6213 9.72205L11.5118 9.78619L11.4976 9.79688C11.4976 9.79688 11.4164 9.8539 11.3386 9.85033C11.2609 9.85033 11.1832 9.80401 11.1832 9.80401L11.1726 9.80045L11.0277 9.72918C10.897 9.65078 10.791 9.5902 10.6885 9.53319C10.6814 9.52962 10.6744 9.52962 10.6744 9.52606C10.4624 9.42628 10.2468 9.3657 10.0419 9.3657ZM8.81583 8.74922C9.1091 8.49265 9.50836 8.33942 9.9359 8.31804C10.3458 8.2931 10.798 8.40356 11.1938 8.62806C11.2362 8.64944 11.275 8.67439 11.3139 8.69577C11.3563 8.67439 11.3952 8.64944 11.4376 8.62806C11.7026 8.4784 11.9888 8.40356 12.275 8.3608C12.4163 8.33942 12.5612 8.31091 12.6954 8.31804C13.1194 8.33942 13.5187 8.49621 13.8155 8.75278C13.8332 8.76704 13.8402 8.78486 13.8544 8.79911C14.3279 9.24098 14.501 9.93229 14.3208 10.7127C14.2784 10.898 14.1971 11.0869 14.13 11.2757C14.031 11.543 13.9144 11.8102 13.7696 12.0846C13.6742 12.2664 13.5929 12.4445 13.4798 12.6263C13.388 12.7688 13.3032 12.8935 13.2148 13.0147C12.9958 13.3212 12.7767 13.5849 12.4693 13.902C12.4128 13.959 12.2396 14.1372 12.0912 14.2441C11.9958 14.3118 11.8898 14.3653 11.7803 14.4116C11.7096 14.4401 11.6354 14.4686 11.5612 14.4829C11.5153 14.4971 11.4482 14.5042 11.3775 14.5114L11.3139 14.5149H11.3104C11.169 14.5078 11.1019 14.4971 11.0383 14.4829C10.8722 14.4437 10.6885 14.3617 10.5295 14.2477C10.3811 14.1408 10.208 13.9661 10.1585 13.9127C9.9677 13.7131 9.8087 13.535 9.66383 13.3532C9.48363 13.1323 9.32463 12.9042 9.14796 12.6334C9.06316 12.5016 9.01016 12.3733 8.93596 12.2414C8.65329 11.7283 8.42363 11.2187 8.31056 10.7198C8.11976 9.90735 8.30703 9.19109 8.81583 8.74922ZM24.034 22.4543C25.1081 21.1679 25.6911 19.3826 25.7724 17.1376H23.504C23.4227 18.6094 23.0199 19.8031 22.3062 20.7082L24.034 22.4543ZM18.0379 24.931C20.2533 24.849 22.0164 24.2682 23.292 23.192L21.5712 21.453C20.6737 22.1657 19.4936 22.5648 18.0379 22.6432V24.931ZM16.9955 21.592C17.1687 21.5991 17.3277 21.6241 17.5079 21.6241C17.6951 21.6241 17.8612 21.5991 18.0379 21.5884C19.3982 21.5065 20.4759 21.1216 21.2073 20.4125C21.9705 19.6713 22.3768 18.5595 22.4652 17.1341C22.4793 16.9523 22.504 16.7849 22.504 16.5924C22.504 16.4107 22.4793 16.2539 22.4687 16.0829C22.3874 14.6396 21.974 13.5136 21.2073 12.7653C21.0235 12.5871 20.8151 12.4374 20.596 12.2984C20.5218 13.6454 20.2709 14.8392 19.8469 15.8797C19.4371 16.8989 18.8682 17.7755 18.1297 18.4882C17.7658 18.8445 17.3559 19.1546 16.9143 19.429C16.0945 19.9385 15.1476 20.3056 14.077 20.5336C14.0522 20.5372 14.0275 20.5408 14.0028 20.5479C14.0664 20.6013 14.1371 20.6512 14.2042 20.7011C14.9073 21.2285 15.8437 21.5243 16.9955 21.592ZM16.9955 24.931V22.6432C15.5433 22.5648 14.3597 22.1657 13.4622 21.4566L11.7344 23.1991C13.0134 24.2753 14.7766 24.8526 16.9955 24.931ZM9.9783 20.7546C10.2433 21.3924 10.5825 21.9626 10.9924 22.4579L12.6884 20.7439C12.2432 20.7866 11.7803 20.8151 11.2962 20.8151C10.844 20.8187 10.4058 20.7938 9.9783 20.7546ZM8.49429 19.4575C8.85116 19.543 9.22216 19.6107 9.61083 19.6606C9.99243 19.7105 10.3882 19.739 10.7945 19.7532V17.4655C10.2504 17.437 9.73803 17.3586 9.2681 17.241C9.1303 17.2053 8.98543 17.184 8.85823 17.1412C8.64976 17.0735 8.46249 16.9808 8.26816 16.8918C8.25049 16.8811 8.23283 16.8739 8.21516 16.8668C7.86889 16.7029 7.54736 16.5069 7.26116 16.2788L5.53335 18.0214C6.33188 18.6913 7.31769 19.1759 8.49429 19.4575ZM3.05647 11.9599C3.13774 14.2085 3.71721 15.9938 4.78781 17.2802L6.51915 15.5341C5.80188 14.629 5.39908 13.4352 5.32135 11.9599H3.05647ZM4.77368 5.5706C3.70661 6.86414 3.1342 8.65657 3.05647 10.9051H5.32135C5.39555 9.42628 5.79482 8.22539 6.50502 7.31314L4.77368 5.5706ZM10.791 3.06548C8.56143 3.14388 6.78769 3.73541 5.51215 4.82584L7.23289 6.56481C8.13389 5.83786 9.32463 5.43163 10.791 5.35323V3.06548ZM11.3033 6.37238C11.1231 6.37238 10.9641 6.39376 10.791 6.40445C9.4271 6.48285 8.34589 6.86771 7.61449 7.58753C6.85129 8.33586 6.44142 9.46192 6.36015 10.9051C6.34955 11.0762 6.32835 11.233 6.32835 11.4147C6.32835 11.6071 6.35309 11.7746 6.36368 11.9563C6.43789 13.1287 6.73469 14.0731 7.25762 14.7857C7.37069 14.939 7.47669 15.1029 7.61096 15.2347C7.72756 15.3416 7.86889 15.4272 7.99609 15.5269C8.07383 15.5875 8.14449 15.6517 8.23283 15.7051C8.47663 15.8548 8.74516 15.9831 9.03843 16.0864C9.11263 16.1149 9.1833 16.1399 9.2575 16.1612C9.7133 16.3002 10.2327 16.3786 10.791 16.4107C10.9641 16.4214 11.1231 16.4428 11.3033 16.4428C11.374 16.4428 11.434 16.4285 11.5047 16.4285C11.6178 16.4249 11.7238 16.4143 11.8333 16.4071C12.0806 16.3893 12.3244 16.3786 12.5506 16.343C12.5824 16.3394 12.6106 16.3287 12.646 16.3216C13.6282 16.1506 14.4233 15.7942 15.0063 15.2312C15.7695 14.4935 16.1758 13.3782 16.2641 11.9528C16.2712 11.8494 16.2853 11.7497 16.2853 11.6392C16.2889 11.5608 16.2995 11.4931 16.2995 11.4111C16.2995 11.2294 16.2747 11.0726 16.2641 10.9016C16.2571 10.7947 16.25 10.6842 16.2429 10.5844C16.1581 9.71136 15.9497 8.96303 15.5963 8.35724C15.4267 8.0686 15.2324 7.80846 15.0027 7.58396C14.9462 7.52695 14.872 7.48775 14.8155 7.43786C14.0911 6.82138 13.0876 6.47572 11.8333 6.40089C11.6566 6.39376 11.4906 6.37238 11.3033 6.37238ZM11.8333 3.06548V5.35679C13.2961 5.43519 14.4904 5.84499 15.3879 6.57194L17.1121 4.83653C15.8295 3.74254 14.0593 3.14744 11.8333 3.06548ZM17.0874 18.0107L17.0733 18L15.3631 16.2717C15.1971 16.4036 15.0345 16.5461 14.8508 16.6566C14.2077 17.0379 13.4516 17.2873 12.5859 17.4049C12.3456 17.437 12.0842 17.4441 11.8298 17.4584V19.7461C11.9287 19.7425 12.0312 19.7425 12.123 19.7354C12.5046 19.714 12.8686 19.6784 13.2184 19.6249C14.3738 19.4539 15.3843 19.1189 16.2323 18.62C16.5433 18.4419 16.8189 18.2352 17.0874 18.0107ZM16.5009 15.9332L17.8294 17.2766C18.1368 16.9096 18.4018 16.4998 18.6315 16.0508C18.8046 15.7087 18.9565 15.3416 19.0802 14.9532C19.3664 14.0731 19.5254 13.0753 19.5643 11.9635H17.2994C17.2676 12.6013 17.1757 13.1857 17.0203 13.7167C16.8153 14.4151 16.5079 15.0209 16.1016 15.5341L16.5009 15.9332ZM18.8399 7.24543C18.5749 6.62183 18.2463 6.06236 17.8471 5.57773L16.2005 7.24187L16.1193 7.32027C16.3419 7.60535 16.5327 7.91893 16.6917 8.25746C16.8083 8.49978 16.9143 8.74922 16.9955 9.02004C17.1369 9.47617 17.2252 9.98218 17.2747 10.5167C17.2853 10.645 17.2959 10.7733 17.3029 10.9087H19.5678C19.5678 10.8588 19.5643 10.8125 19.5607 10.7661C19.5219 9.88597 19.4088 9.07706 19.2109 8.34298C19.1085 7.95457 18.9848 7.58753 18.8399 7.24543ZM23.3132 10.0143C22.5076 9.3265 21.5147 8.83474 20.331 8.54254C20.5041 9.34076 20.5995 10.2067 20.6172 11.1403C20.9741 11.3078 21.2956 11.5145 21.5924 11.7497L23.3132 10.0143ZM25.7724 16.0864C25.6946 13.8414 25.1222 12.049 24.0516 10.7555L22.3238 12.5016C23.034 13.4102 23.4333 14.6111 23.5075 16.0864H25.7724ZM24.3343 9.51537C25.9914 11.1261 26.8324 13.5136 26.8324 16.6031C26.8324 19.6926 25.9914 22.0731 24.3343 23.6766C22.7443 25.2196 20.4476 26 17.5043 26C14.5646 26 12.2714 25.2196 10.6885 23.6766C9.8405 22.8535 9.21156 21.82 8.79816 20.5942C7.03502 20.2628 5.58282 19.5679 4.48394 18.4953C2.8374 16.8918 2 14.5114 2 11.4254C2 8.33229 2.83387 5.94833 4.48041 4.33764C6.06688 2.78753 8.36003 2 11.2998 2C14.2431 2 16.5397 2.78753 18.1333 4.33408C18.9813 5.1608 19.6102 6.19065 20.0271 7.40935C21.7867 7.74432 23.2319 8.44276 24.3343 9.51537Z" fill="#86888C"/>
</svg>
