<svg width="40" height="40" viewBox="0 0 40 40" fill="none" xmlns="http://www.w3.org/2000/svg">
<path fill-rule="evenodd" clip-rule="evenodd" d="M14.0628 13.0486H13.978C13.6918 13.0646 13.4215 13.1608 13.2413 13.3212C12.8226 13.6846 12.9021 14.3421 12.9869 14.7002C13.0505 14.9728 13.1618 15.2561 13.2731 15.5394C13.4692 16.0419 13.7077 16.555 14.0364 17.0735C14.0735 17.1323 14.1053 17.1751 14.1424 17.2285C14.5187 17.8058 14.8367 18.2067 15.372 18.7572C15.4197 18.8107 15.5787 18.971 15.7112 19.0673C15.7801 19.1154 15.849 19.1528 15.9179 19.1635L15.9762 19.1688H15.9815C16.0875 19.1474 16.1617 19.1154 16.2253 19.0619C16.3578 18.9657 16.5168 18.8053 16.5592 18.7572C17.0468 18.2441 17.3595 17.8592 17.6934 17.3675C17.7623 17.2713 17.8259 17.1751 17.9001 17.0628C18.1386 16.6833 18.3294 16.3145 18.5043 15.9457C18.7004 15.5127 18.8541 15.0958 18.9548 14.6842C19.0555 14.2459 19.0979 13.6472 18.7004 13.3051C18.5202 13.1448 18.2499 13.0486 17.9584 13.0325C17.9372 13.0325 17.916 13.0379 17.8948 13.0379C17.5609 13.0272 17.2323 13.118 16.9143 13.2998C16.7606 13.3906 16.6016 13.4762 16.432 13.5831L16.2677 13.6793L16.2465 13.6953C16.2465 13.6953 16.1246 13.7808 16.008 13.7755C15.8914 13.7755 15.7748 13.706 15.7748 13.706L15.7589 13.7007L15.5416 13.5938C15.3455 13.4762 15.1865 13.3853 15.0328 13.2998C15.0222 13.2944 15.0116 13.2944 15.0116 13.2891C14.6936 13.1394 14.3703 13.0486 14.0628 13.0486ZM12.2237 12.1238C12.6636 11.739 13.2625 11.5091 13.9038 11.4771C14.5187 11.4396 15.1971 11.6053 15.7907 11.9421C15.8543 11.9742 15.9126 12.0116 15.9709 12.0437C16.0345 12.0116 16.0928 11.9742 16.1564 11.9421C16.5539 11.7176 16.9832 11.6053 17.4125 11.5412C17.6245 11.5091 17.8418 11.4664 18.0432 11.4771C18.6792 11.5091 19.2781 11.7443 19.7233 12.1292C19.7498 12.1506 19.7604 12.1773 19.7816 12.1987C20.4918 12.8615 20.7515 13.8984 20.4812 15.069C20.4176 15.347 20.2957 15.6303 20.195 15.9136C20.0466 16.3145 19.8717 16.7154 19.6544 17.1269C19.5113 17.3996 19.3894 17.6668 19.2198 17.9394C19.082 18.1532 18.9548 18.3403 18.8223 18.522C18.4937 18.9817 18.1651 19.3773 17.704 19.853C17.6192 19.9385 17.3595 20.2058 17.1369 20.3661C16.9938 20.4677 16.8348 20.5479 16.6705 20.6174C16.5645 20.6601 16.4532 20.7029 16.3419 20.7243C16.273 20.7457 16.1723 20.7563 16.0663 20.767L15.9709 20.7724H15.9656C15.7536 20.7617 15.6529 20.7457 15.5575 20.7243C15.3084 20.6655 15.0328 20.5425 14.7943 20.3715C14.5717 20.2111 14.312 19.9492 14.2378 19.869C13.9515 19.5697 13.713 19.3024 13.4957 19.0298C13.2254 18.6984 12.9869 18.3563 12.7219 17.9501C12.5947 17.7523 12.5152 17.5599 12.4039 17.3621C11.9799 16.5924 11.6354 15.8281 11.4658 15.0797C11.1796 13.861 11.4605 12.7866 12.2237 12.1238ZM35.0509 32.6815C36.6621 30.7519 37.5366 28.0739 37.6585 24.7065H34.2559C34.134 26.914 33.5298 28.7047 32.4592 30.0624L35.0509 32.6815ZM26.0568 36.3964C29.3799 36.2735 32.0246 35.4022 33.9379 33.788L31.3568 31.1795C30.0106 32.2486 28.2404 32.8472 26.0568 32.9648V36.3964ZM24.4933 31.388C24.753 31.3987 24.9915 31.4361 25.2618 31.4361C25.5427 31.4361 25.7918 31.3987 26.0568 31.3826C28.0973 31.2597 29.7138 30.6824 30.8109 29.6187C31.9557 28.5069 32.5652 26.8392 32.6977 24.7011C32.7189 24.4285 32.756 24.1773 32.756 23.8886C32.756 23.616 32.7189 23.3808 32.703 23.1243C32.5811 20.9595 31.961 19.2704 30.8109 18.1479C30.5353 17.8806 30.2226 17.6561 29.894 17.4477C29.7827 19.4682 29.4064 21.2588 28.7704 22.8196C28.1556 24.3483 27.3023 25.6632 26.1946 26.7323C25.6487 27.2668 25.0339 27.7318 24.3714 28.1434C23.1418 28.9078 21.7214 29.4584 20.1155 29.8004C20.0784 29.8058 20.0413 29.8111 20.0042 29.8218C20.0996 29.902 20.2056 29.9768 20.3063 30.0517C21.361 30.8428 22.7655 31.2864 24.4933 31.388ZM24.4933 36.3964V32.9648C22.315 32.8472 20.5395 32.2486 19.1933 31.1849L16.6016 33.7987C18.5202 35.4129 21.1649 36.2788 24.4933 36.3964ZM13.9674 30.1318C14.365 31.0886 14.8738 31.9439 15.4886 32.6869L18.0326 30.1158C17.3648 30.18 16.6705 30.2227 15.9444 30.2227C15.266 30.2281 14.6088 30.1906 13.9674 30.1318ZM11.7414 28.1862C12.2767 28.3145 12.8332 28.416 13.4162 28.4909C13.9886 28.5657 14.5823 28.6085 15.1918 28.6298V25.1982C14.3756 25.1555 13.607 25.0379 12.9021 24.8615C12.6954 24.808 12.4781 24.7759 12.2873 24.7118C11.9746 24.6102 11.6937 24.4713 11.4022 24.3376C11.3757 24.3216 11.3492 24.3109 11.3227 24.3002C10.8033 24.0543 10.321 23.7604 9.89173 23.4183L7.30002 26.0321C8.49783 27.037 9.97653 27.7639 11.7414 28.1862ZM3.58471 16.9399C3.70661 20.3127 4.57581 22.9906 6.18172 24.9203L8.77873 22.3011C7.70282 20.9434 7.09862 19.1528 6.98202 16.9399H3.58471ZM6.16052 7.3559C4.55991 9.29621 3.70131 11.9849 3.58471 15.3577H6.98202C7.09332 13.1394 7.69222 11.3381 8.75753 9.96971L6.16052 7.3559ZM15.1865 3.59822C11.8421 3.71581 9.18153 4.60312 7.26822 6.23875L9.84933 8.84722C11.2008 7.75679 12.9869 7.14744 15.1865 7.02984V3.59822ZM15.955 8.55857C15.6847 8.55857 15.4462 8.59065 15.1865 8.60668C13.1406 8.72428 11.5188 9.30156 10.4217 10.3813C9.27693 11.5038 8.66213 13.1929 8.54023 15.3577C8.52433 15.6143 8.49253 15.8494 8.49253 16.122C8.49253 16.4107 8.52963 16.6619 8.54553 16.9345C8.65683 18.6931 9.10203 20.1096 9.88643 21.1786C10.056 21.4085 10.215 21.6543 10.4164 21.8521C10.5913 22.0125 10.8033 22.1408 10.9941 22.2904C11.1107 22.3813 11.2167 22.4775 11.3492 22.5577C11.7149 22.7822 12.1177 22.9746 12.5576 23.1296C12.6689 23.1724 12.7749 23.2098 12.8862 23.2419C13.5699 23.4503 14.3491 23.5679 15.1865 23.616C15.4462 23.6321 15.6847 23.6641 15.955 23.6641C16.061 23.6641 16.1511 23.6428 16.2571 23.6428C16.4267 23.6374 16.5857 23.6214 16.75 23.6107C17.121 23.584 17.4867 23.5679 17.8259 23.5145C17.8736 23.5091 17.916 23.4931 17.969 23.4824C19.4424 23.2258 20.6349 22.6913 21.5094 21.8468C22.6542 20.7403 23.2637 19.0673 23.3962 16.9292C23.4068 16.7742 23.428 16.6245 23.428 16.4588C23.4333 16.3412 23.4492 16.2396 23.4492 16.1167C23.4492 15.8441 23.4121 15.6089 23.3962 15.3523C23.3856 15.192 23.375 15.0263 23.3644 14.8766C23.2372 13.567 22.9245 12.4445 22.3945 11.5359C22.1401 11.1029 21.8486 10.7127 21.5041 10.3759C21.4193 10.2904 21.308 10.2316 21.2232 10.1568C20.1367 9.23207 18.6315 8.71359 16.75 8.60134C16.485 8.59065 16.2359 8.55857 15.955 8.55857ZM16.75 3.59822V7.03519C18.9442 7.15278 20.7356 7.76748 22.0818 8.85791L24.6682 6.25479C22.7443 4.61381 20.089 3.72116 16.75 3.59822ZM24.6311 26.016L24.6099 26L22.0447 23.4076C21.7956 23.6053 21.5518 23.8192 21.2762 23.9849C20.3116 24.5568 19.1774 24.931 17.8789 25.1073C17.5185 25.1555 17.1263 25.1661 16.7447 25.1875V28.6192C16.8931 28.6138 17.0468 28.6138 17.1846 28.6031C17.757 28.571 18.3029 28.5176 18.8276 28.4374C20.5607 28.1808 22.0765 27.6784 23.3485 26.9301C23.8149 26.6628 24.2283 26.3528 24.6311 26.016ZM23.7513 22.8998L25.7441 24.9149C26.2052 24.3644 26.6027 23.7497 26.9472 23.0762C27.2069 22.563 27.4348 22.0125 27.6203 21.4298C28.0496 20.1096 28.2881 18.6129 28.3464 16.9452H24.9491C24.9014 17.902 24.7636 18.7786 24.5304 19.5751C24.223 20.6227 23.7619 21.5314 23.1524 22.3011L23.7513 22.8998ZM27.2599 9.86815C26.8624 8.93274 26.3695 8.09354 25.7706 7.36659L23.3008 9.86281L23.1789 9.9804C23.5128 10.408 23.799 10.8784 24.0375 11.3862C24.2124 11.7497 24.3714 12.1238 24.4933 12.5301C24.7053 13.2143 24.8378 13.9733 24.912 14.7751C24.9279 14.9675 24.9438 15.1599 24.9544 15.363H28.3517C28.3517 15.2882 28.3464 15.2187 28.3411 15.1492C28.2828 13.829 28.1132 12.6156 27.8164 11.5145C27.6627 10.9318 27.4772 10.3813 27.2599 9.86815ZM33.9697 14.0214C32.7613 12.9898 31.272 12.2521 29.4965 11.8138C29.7562 13.0111 29.8993 14.31 29.9258 15.7105C30.4611 15.9617 30.9434 16.2717 31.3886 16.6245L33.9697 14.0214ZM37.6585 23.1296C37.5419 19.7621 36.6833 17.0735 35.0774 15.1332L32.4857 17.7523C33.551 19.1154 34.1499 20.9167 34.2612 23.1296H37.6585ZM35.5014 13.2731C37.9871 15.6891 39.2486 19.2704 39.2486 23.9047C39.2486 28.539 37.9871 32.1096 35.5014 34.5149C33.1164 36.8294 29.6714 38 25.2565 38C20.8469 38 17.4072 36.8294 15.0328 34.5149C13.7607 33.2802 12.8173 31.7301 12.1972 29.8913C9.55253 29.3942 7.37422 28.3519 5.72592 26.743C3.25611 24.3376 2 20.767 2 16.1381C2 11.4984 3.25081 7.92249 5.72062 5.50646C8.10033 3.18129 11.54 2 15.9497 2C20.3646 2 23.8096 3.18129 26.1999 5.50111C27.4719 6.7412 28.4153 8.28597 29.0407 10.114C31.6801 10.6165 33.8478 11.6641 35.5014 13.2731Z" fill="#86888C"/>
</svg>
