<svg width="20" height="20" viewBox="0 0 20 20" fill="none" xmlns="http://www.w3.org/2000/svg">
<path fill-rule="evenodd" clip-rule="evenodd" d="M16.5267 15.4607C16.7145 15.4607 16.867 15.3105 16.8692 15.1227V10.2834H2.65629V15.1204C2.65629 15.3083 2.80876 15.4585 2.99879 15.4585H16.5267V15.4607ZM2.99658 5.74238C2.80876 5.74238 2.65629 5.89264 2.65408 6.08047V7.20964H16.867V6.08047C16.867 5.89264 16.7123 5.74017 16.5245 5.74238H2.99658ZM2.65629 9.64033H16.8714V7.85267H2.65629V9.64033ZM17.5299 7.53226V9.96295C17.5299 9.98726 17.5211 10.0071 17.5167 10.027V15.1204C17.5167 15.6618 17.0725 16.1016 16.5289 16.1016H2.99658C2.45078 16.1016 2.00884 15.6618 2.00884 15.1204V10.0027C2.00663 9.98947 2 9.97621 2 9.96295V7.53226C2 7.519 2.00663 7.50574 2.00884 7.49248V6.08268C2.00884 5.5413 2.45299 5.10156 2.99658 5.10156H16.5267C17.0725 5.10156 17.5145 5.5413 17.5145 6.08268V7.46818C17.5211 7.48806 17.5299 7.51016 17.5299 7.53226ZM14.3325 13.9493C14.7214 13.9427 15.3755 13.7902 15.3755 12.8599C15.3755 11.9274 14.717 11.7705 14.3236 11.7617L14.1977 11.7595C14.0828 11.7617 13.7336 11.797 13.4773 12.0268C13.5856 12.2544 13.6519 12.5284 13.6519 12.8599C13.6519 13.1869 13.5878 13.4565 13.4839 13.6819C13.7425 13.9095 14.096 13.9493 14.2109 13.9515L14.3325 13.9493ZM11.9592 13.9493C12.3481 13.9427 13.0022 13.7902 13.0022 12.8599C13.0022 11.9274 12.3437 11.7705 11.9504 11.7617L11.8244 11.7595C11.4399 11.7639 10.7947 11.9097 10.7947 12.8489C10.7947 13.7924 11.4488 13.9427 11.8377 13.9493H11.9592ZM14.3369 11.1186C15.1169 11.1385 16.0229 11.6048 16.0229 12.8577C16.0229 14.1128 15.1191 14.5746 14.3435 14.5901H14.2021C13.9789 14.5857 13.4861 14.5327 13.084 14.2012C12.7636 14.4664 12.3526 14.5835 11.9703 14.5901H11.8288C11.0532 14.5769 10.1472 14.115 10.1472 12.8489C10.1472 11.5805 11.0488 11.1231 11.82 11.1164L11.9636 11.1186C12.3437 11.1275 12.7525 11.2468 13.0729 11.5075C13.4729 11.1717 13.9679 11.1186 14.1933 11.1164L14.3369 11.1186Z" fill="#86888C"/>
</svg>
