<svg width="28" height="28" viewBox="0 0 28 28" fill="none" xmlns="http://www.w3.org/2000/svg">
<path d="M24.1268 24H13.6313C13.0002 24 12.6387 23.635 12.6387 23.0006V4.98046C12.6387 4.35967 13.0002 4.00493 13.6279 4.00152C14.2555 3.99811 20.2349 4.00152 20.2963 4.00152C20.3884 4.00152 20.4737 4.03904 20.5385 4.10043L25.8596 9.42154C25.9244 9.48635 25.9585 9.57162 25.9585 9.66372V23.0313C25.9585 23.2496 25.9414 23.502 25.7982 23.6998C25.6549 23.8977 25.4264 24 25.1126 24H24.1268ZM22.701 23.3178H25.1126C25.1569 23.3212 25.2047 23.3144 25.2456 23.3008C25.2524 23.2837 25.2763 23.2223 25.2763 23.0313V9.80698L20.1598 4.68712H13.6313C13.3652 4.68712 13.3243 4.75875 13.3243 4.98387V23.004C13.3243 23.2632 13.3789 23.3212 13.6347 23.3212C14.4328 23.3178 21.8824 23.3178 22.701 23.3178Z" fill="#86888C"/>
<path d="M23.0011 13.3062H15.6028C15.4152 13.3062 15.2617 13.1527 15.2617 12.9651C15.2617 12.7775 15.4152 12.624 15.6028 12.624H23.0011C23.1887 12.624 23.3422 12.7775 23.3422 12.9651C23.3422 13.1527 23.1887 13.3062 23.0011 13.3062ZM23.0011 16.6387H15.6028C15.4152 16.6387 15.2617 16.4852 15.2617 16.2976C15.2617 16.11 15.4152 15.9565 15.6028 15.9565H23.0011C23.1887 15.9565 23.3422 16.11 23.3422 16.2976C23.3422 16.4852 23.1887 16.6387 23.0011 16.6387ZM23.0011 19.9917H15.6028C15.4152 19.9917 15.2617 19.8382 15.2617 19.6506C15.2617 19.463 15.4152 19.3095 15.6028 19.3095H23.0011C23.1887 19.3095 23.3422 19.463 23.3422 19.6506C23.3422 19.8382 23.1887 19.9917 23.0011 19.9917ZM8.34422 9.04592C8.15662 9.04592 8.00312 8.89242 8.00312 8.70482C8.00312 8.6059 8.04747 8.5104 8.12251 8.44559C8.51136 8.11131 9.12874 7.57238 9.23107 7.47346C9.3027 7.40183 9.31976 7.35749 9.31976 7.34726C9.31976 7.34726 9.31976 7.30291 9.22425 7.21082C8.94796 6.93453 8.13274 6.23869 8.12251 6.23187C7.97925 6.10908 7.96219 5.89419 8.08499 5.75093C8.20778 5.60767 8.42267 5.59061 8.56593 5.71341C8.60004 5.7441 9.41185 6.43312 9.70861 6.72987C10.1009 7.12213 10.1043 7.57238 9.71543 7.95782C9.56535 8.1079 8.66826 8.87878 8.56593 8.96406C8.50454 9.01522 8.42608 9.04592 8.34422 9.04592Z" fill="#86888C"/>
<path d="M4.67761 11.6794C4.49 11.6794 4.33651 11.5259 4.33651 11.3383V10.3252C4.33651 9.21665 4.62985 8.37073 5.20972 7.81133C5.7657 7.27581 6.58775 7.00293 7.65197 7.00293H9.15279C9.34039 7.00293 9.49389 7.15642 9.49389 7.34403C9.49389 7.53163 9.34039 7.68512 9.15279 7.68512H7.65197C6.76853 7.68512 6.1068 7.89319 5.68043 8.30251C5.24042 8.72547 5.01529 9.40766 5.01529 10.3252V11.3383C5.0187 11.5259 4.86521 11.6794 4.67761 11.6794ZM6.05905 23.9759H2.69584C2.26606 23.9759 2 23.7064 2 23.2732V13.3405C2 12.9141 2.26606 12.6481 2.69584 12.6481H6.70031C6.7924 12.6481 6.87768 12.6856 6.94249 12.747L9.89979 15.7043C9.9646 15.7691 9.99871 15.8544 9.99871 15.9465V23.2903C9.99871 23.703 9.73266 23.9725 9.31652 23.9725L6.05905 23.9759ZM2.68219 23.2937H9.31652V16.0897L6.56046 13.3337H2.68219V23.2937Z" fill="#86888C"/>
<path d="M7.89049 18.365H4.12137C3.93377 18.365 3.78027 18.2115 3.78027 18.0239C3.78027 17.8363 3.93377 17.6828 4.12137 17.6828H7.89049C8.07809 17.6828 8.23158 17.8363 8.23158 18.0239C8.23158 18.2115 8.07809 18.365 7.89049 18.365ZM7.89049 20.1387H4.12137C3.93377 20.1387 3.78027 19.9853 3.78027 19.7976C3.78027 19.61 3.93377 19.4566 4.12137 19.4566H7.89049C8.07809 19.4566 8.23158 19.61 8.23158 19.7976C8.23158 19.9853 8.07809 20.1387 7.89049 20.1387ZM7.89049 21.9124H4.12137C3.93377 21.9124 3.78027 21.759 3.78027 21.5714C3.78027 21.3837 3.93377 21.2303 4.12137 21.2303H7.89049C8.07809 21.2303 8.23158 21.3837 8.23158 21.5714C8.23158 21.759 8.07809 21.9124 7.89049 21.9124ZM9.65737 16.2878H8.47376C7.79157 16.2878 7.26287 16.1036 6.90131 15.7454C6.53974 15.3873 6.35896 14.8552 6.35896 14.173V12.9894C6.35896 12.8018 6.51246 12.6483 6.70006 12.6483C6.88766 12.6483 7.04116 12.8018 7.04116 12.9894V14.173C7.04116 15.1621 7.48458 15.6056 8.47376 15.6056H9.65737C9.84497 15.6056 9.99846 15.7591 9.99846 15.9467C9.99846 16.1343 9.84497 16.2878 9.65737 16.2878ZM25.6207 10.0082H22.9601C21.108 10.0082 19.9585 8.85869 19.9585 7.00653V4.34598C19.9585 4.15838 20.112 4.00488 20.2996 4.00488C20.4872 4.00488 20.6407 4.15838 20.6407 4.34598V7.00653C20.6407 8.48007 21.4866 9.32599 22.9601 9.32599H25.6207C25.8083 9.32599 25.9618 9.47948 25.9618 9.66708C25.9618 9.85469 25.8083 10.0082 25.6207 10.0082Z" fill="#86888C"/>
</svg>
