<svg width="20" height="20" viewBox="0 0 20 20" fill="none" xmlns="http://www.w3.org/2000/svg">
<path d="M16.7749 17H9.76678C9.34543 17 9.104 16.7445 9.104 16.3004V3.68632C9.104 3.25177 9.34543 3.00345 9.76451 3.00106C10.1836 2.99867 14.1762 3.00106 14.2172 3.00106C14.2787 3.00106 14.3356 3.02733 14.3789 3.0703L17.932 6.79508C17.9752 6.84044 17.998 6.90013 17.998 6.9646V16.3219C17.998 16.4747 17.9866 16.6514 17.891 16.7899C17.7953 16.9284 17.6427 17 17.4332 17H16.7749ZM15.8229 16.5225H17.4332C17.4628 16.5249 17.4947 16.5201 17.522 16.5105C17.5266 16.4986 17.5425 16.4556 17.5425 16.3219V7.06488L14.1261 3.48098H9.76678C9.58913 3.48098 9.5618 3.53113 9.5618 3.68871V16.3028C9.5618 16.4843 9.59824 16.5249 9.76906 16.5249C10.302 16.5225 15.2763 16.5225 15.8229 16.5225Z" fill="#86888C"/>
<path d="M16.023 9.5145H11.0829C10.9576 9.5145 10.8552 9.40705 10.8552 9.27573C10.8552 9.14441 10.9576 9.03696 11.0829 9.03696H16.023C16.1483 9.03696 16.2508 9.14441 16.2508 9.27573C16.2508 9.40705 16.1483 9.5145 16.023 9.5145ZM16.023 11.8473H11.0829C10.9576 11.8473 10.8552 11.7398 10.8552 11.6085C10.8552 11.4772 10.9576 11.3697 11.0829 11.3697H16.023C16.1483 11.3697 16.2508 11.4772 16.2508 11.6085C16.2508 11.7398 16.1483 11.8473 16.023 11.8473ZM16.023 14.1943H11.0829C10.9576 14.1943 10.8552 14.0869 10.8552 13.9556C10.8552 13.8242 10.9576 13.7168 11.0829 13.7168H16.023C16.1483 13.7168 16.2508 13.8242 16.2508 13.9556C16.2508 14.0869 16.1483 14.1943 16.023 14.1943ZM6.23619 6.53229C6.11092 6.53229 6.00843 6.42484 6.00843 6.29352C6.00843 6.22428 6.03804 6.15742 6.08815 6.11206C6.34779 5.87807 6.76004 5.50081 6.82837 5.43157C6.8762 5.38143 6.88758 5.35039 6.88758 5.34323C6.88758 5.34323 6.88758 5.31219 6.82381 5.24772C6.63933 5.05432 6.09498 4.56723 6.08815 4.56246C5.99249 4.4765 5.9811 4.32608 6.06309 4.22579C6.14509 4.12551 6.28858 4.11357 6.38423 4.19953C6.40701 4.22102 6.94908 4.70333 7.14723 4.91106C7.40915 5.18564 7.41143 5.50081 7.15178 5.77062C7.05157 5.87568 6.45256 6.41529 6.38423 6.47498C6.34324 6.5108 6.29085 6.53229 6.23619 6.53229Z" fill="#86888C"/>
<path d="M3.78791 8.37604C3.66265 8.37604 3.56015 8.2686 3.56015 8.13727V7.42813C3.56015 6.65214 3.75603 6.06 4.14322 5.66842C4.51447 5.29355 5.06337 5.10254 5.77398 5.10254H6.77612C6.90139 5.10254 7.00388 5.20998 7.00388 5.34131C7.00388 5.47263 6.90139 5.58007 6.77612 5.58007H5.77398C5.18408 5.58007 4.74223 5.72572 4.45753 6.01224C4.16372 6.30831 4.0134 6.78585 4.0134 7.42813V8.13727C4.01567 8.2686 3.91318 8.37604 3.78791 8.37604ZM4.71034 16.9836H2.46463C2.17765 16.9836 2 16.795 2 16.4917V9.53884C2 9.24038 2.17765 9.05414 2.46463 9.05414H5.13853C5.20002 9.05414 5.25696 9.08041 5.30024 9.12338L7.27491 11.1935C7.31819 11.2389 7.34096 11.2986 7.34096 11.363V16.5037C7.34096 16.7926 7.16331 16.9812 6.88544 16.9812L4.71034 16.9836ZM2.45552 16.5061H6.88544V11.4633L5.04515 9.53406H2.45552V16.5061Z" fill="#86888C"/>
<path d="M5.93347 13.055H3.41672C3.29146 13.055 3.18896 12.9476 3.18896 12.8163C3.18896 12.685 3.29146 12.5775 3.41672 12.5775H5.93347C6.05874 12.5775 6.16123 12.685 6.16123 12.8163C6.16123 12.9476 6.05874 13.055 5.93347 13.055ZM5.93347 14.2966H3.41672C3.29146 14.2966 3.18896 14.1892 3.18896 14.0579C3.18896 13.9265 3.29146 13.8191 3.41672 13.8191H5.93347C6.05874 13.8191 6.16123 13.9265 6.16123 14.0579C6.16123 14.1892 6.05874 14.2966 5.93347 14.2966ZM5.93347 15.5382H3.41672C3.29146 15.5382 3.18896 15.4308 3.18896 15.2995C3.18896 15.1681 3.29146 15.0607 3.41672 15.0607H5.93347C6.05874 15.0607 6.16123 15.1681 6.16123 15.2995C6.16123 15.4308 6.05874 15.5382 5.93347 15.5382ZM7.11326 11.6009H6.32294C5.86742 11.6009 5.51439 11.472 5.27297 11.2213C5.03154 10.9706 4.91083 10.5981 4.91083 10.1206V9.29207C4.91083 9.16074 5.01332 9.0533 5.13859 9.0533C5.26386 9.0533 5.36635 9.16074 5.36635 9.29207V10.1206C5.36635 10.813 5.66244 11.1234 6.32294 11.1234H7.11326C7.23853 11.1234 7.34102 11.2309 7.34102 11.3622C7.34102 11.4935 7.23853 11.6009 7.11326 11.6009ZM17.7724 7.20524H15.9959C14.7592 7.20524 13.9916 6.40059 13.9916 5.10408V3.2417C13.9916 3.11038 14.0941 3.00293 14.2194 3.00293C14.3446 3.00293 14.4471 3.11038 14.4471 3.2417V5.10408C14.4471 6.13556 15.012 6.7277 15.9959 6.7277H17.7724C17.8977 6.7277 18.0002 6.83515 18.0002 6.96647C18.0002 7.09779 17.8977 7.20524 17.7724 7.20524Z" fill="#86888C"/>
</svg>
