<svg width="24" height="24" viewBox="0 0 24 24" fill="none" xmlns="http://www.w3.org/2000/svg">
<path fill-rule="evenodd" clip-rule="evenodd" d="M21.7629 15.8914V19.5865C21.7629 19.8171 21.5745 20.0027 21.3467 19.9999H17.6009C17.3704 20.0055 17.1819 19.8227 17.1763 19.5921V19.5865C17.1763 19.3559 17.3619 19.1731 17.6009 19.1731H20.4215L14.4232 10.8549L6.83052 14.1029C6.63367 14.1844 6.40589 14.1113 6.29622 13.9285L2.05553 6.62542C1.94024 6.42576 2.01054 6.17267 2.2102 6.05737C2.21301 6.05456 2.21583 6.05456 2.21864 6.05175C2.42392 5.94208 2.67701 6.01238 2.79794 6.20923L6.8502 13.1917L14.4008 9.9606C14.5864 9.87623 14.8029 9.93529 14.9182 10.1012L20.9136 18.4082V15.8886C20.9136 15.658 21.0992 15.4752 21.3383 15.4752C21.5773 15.478 21.7629 15.6608 21.7629 15.8914Z" fill="#86888C"/>
</svg>
