<svg width="28" height="28" viewBox="0 0 28 28" fill="none" xmlns="http://www.w3.org/2000/svg">
<path fill-rule="evenodd" clip-rule="evenodd" d="M25.5862 17.3044V21.5274C25.5862 21.791 25.3708 22.0031 25.1105 21.9999H20.8297C20.5661 22.0063 20.3508 21.7974 20.3444 21.5338V21.5274C20.3444 21.2639 20.5565 21.055 20.8297 21.055H24.0531L17.198 11.5484L8.52059 15.2604C8.29562 15.3536 8.0353 15.27 7.90996 15.0611L3.06347 6.71477C2.9317 6.48658 3.01205 6.19734 3.24023 6.06557C3.24344 6.06235 3.24666 6.06235 3.24987 6.05914C3.48448 5.9338 3.77373 6.01415 3.91193 6.23912L8.54309 14.2191L17.1723 10.5264C17.3844 10.43 17.6319 10.4975 17.7636 10.6871L24.6156 20.1808V17.3012C24.6156 17.0377 24.8277 16.8288 25.1009 16.8288C25.374 16.832 25.5862 17.0409 25.5862 17.3044Z" fill="#86888C"/>
</svg>
