<svg width="20" height="20" viewBox="0 0 20 20" fill="none" xmlns="http://www.w3.org/2000/svg">
<path fill-rule="evenodd" clip-rule="evenodd" d="M18.9396 12.4783V15.6456C18.9396 15.8432 18.7781 16.0023 18.5829 15.9999H15.3722C15.1746 16.0047 15.0131 15.848 15.0083 15.6504V15.6456C15.0083 15.4479 15.1674 15.2912 15.3722 15.2912H17.7899L12.6485 8.1613L6.14044 10.9453C5.97172 11.0152 5.77648 10.9525 5.68247 10.7959L2.0476 4.53607C1.94878 4.36494 2.00904 4.148 2.18017 4.04918C2.18258 4.04677 2.18499 4.04677 2.1874 4.04436C2.36336 3.95035 2.5803 4.01061 2.68394 4.17934L6.15732 10.1643L12.6292 7.3948C12.7883 7.32249 12.9739 7.3731 13.0727 7.51532L18.2117 14.6356V12.4759C18.2117 12.2782 18.3708 12.1216 18.5756 12.1216C18.7805 12.124 18.9396 12.2807 18.9396 12.4783Z" fill="#86888C"/>
</svg>
