<svg width="20" height="20" viewBox="0 0 20 20" fill="none" xmlns="http://www.w3.org/2000/svg">
<path fill-rule="evenodd" clip-rule="evenodd" d="M17.5296 6.32486V9.22403C17.5296 9.40523 17.3771 9.54886 17.1959 9.54886C17.0147 9.55328 16.8667 9.40965 16.8623 9.22845V7.25074L12.1511 13.7827C12.0561 13.9065 11.8904 13.9529 11.7445 13.8932L5.80475 11.3476L2.62715 16.8366C2.52992 16.9913 2.32884 17.0443 2.16753 16.9603C2.01064 16.8719 1.95318 16.6731 2.04157 16.5162L5.36944 10.7731C5.45562 10.625 5.64123 10.5653 5.79812 10.6361L11.7578 13.1905L16.4756 6.6519H14.2526C14.0714 6.6519 13.9233 6.50605 13.9189 6.32486C13.9211 6.14366 14.0714 5.99782 14.2526 6.00002H17.1959C17.3771 6.00002 17.5296 6.14145 17.5296 6.32486Z" fill="#86888C"/>
</svg>
