<svg width="20" height="20" viewBox="0 0 20 20" fill="none" xmlns="http://www.w3.org/2000/svg">
<path d="M15.8594 6.20338H5.08484C4.95197 6.20338 4.84326 6.09467 4.84326 5.9618C4.84326 5.82893 4.95197 5.72021 5.08484 5.72021H15.8594C15.9923 5.72021 16.101 5.82893 16.101 5.9618C16.101 6.09467 15.9923 6.20338 15.8594 6.20338ZM12.5618 9.97206H5.08484C4.95197 9.97206 4.84326 9.86335 4.84326 9.73048C4.84326 9.59761 4.95197 9.4889 5.08484 9.4889H12.5618C12.6947 9.4889 12.8034 9.59761 12.8034 9.73048C12.8034 9.86335 12.6947 9.97206 12.5618 9.97206Z" fill="#86888C"/>
<path d="M4.53661 17.5C4.18149 17.5 3.87226 17.2053 3.87226 16.8719V14.1903C3.37219 14.1396 2.91077 13.9028 2.57738 13.5284C2.20535 13.1129 2 12.5451 2 11.9315V3.77329C2.00242 2.51706 3.01948 1.50242 4.27571 1.5H16.6713C17.9251 1.50242 18.9422 2.51948 18.9422 3.77329V11.9315C18.9398 13.1853 17.9251 14.2024 16.6689 14.2048H7.10947C6.74951 14.7411 5.19614 17.0434 5.10192 17.1811C4.92073 17.4444 4.69364 17.5 4.53661 17.5ZM4.27571 1.98558C3.28763 1.98558 2.48558 2.78763 2.48316 3.77571V11.9315C2.48316 12.9679 3.16684 13.7217 4.11143 13.7217C4.2443 13.7217 4.35301 13.8304 4.35301 13.9632V16.8719C4.35301 16.9275 4.43757 17.0168 4.5342 17.0168C4.5801 17.0168 4.63566 17.0048 4.70089 16.9081C4.80477 16.7559 6.75917 13.8569 6.7785 13.8279C6.8244 13.7603 6.89929 13.7217 6.97901 13.7217H16.6713C17.6594 13.7192 18.459 12.9196 18.459 11.9315V3.77329C18.459 2.78522 17.657 1.98558 16.6689 1.98316L4.27571 1.98558Z" fill="#86888C"/>
</svg>
