<svg width="28" height="28" viewBox="0 0 28 28" fill="none" xmlns="http://www.w3.org/2000/svg">
<path d="M22.0574 8.96855H7.24233C7.05964 8.96855 6.91016 8.81907 6.91016 8.63637C6.91016 8.45368 7.05964 8.3042 7.24233 8.3042H22.0574C22.2401 8.3042 22.3895 8.45368 22.3895 8.63637C22.3895 8.81907 22.2401 8.96855 22.0574 8.96855ZM17.5232 14.1505H7.24233C7.05964 14.1505 6.91016 14.001 6.91016 13.8183C6.91016 13.6356 7.05964 13.4861 7.24233 13.4861H17.5232C17.7059 13.4861 17.8553 13.6356 17.8553 13.8183C17.8553 14.001 17.7059 14.1505 17.5232 14.1505Z" fill="#86888C"/>
<path d="M6.48785 24.5C5.99955 24.5 5.57436 24.0947 5.57436 23.6363V19.9492C4.88676 19.8794 4.2523 19.5539 3.7939 19.039C3.28235 18.4677 3 17.6871 3 16.8433V5.62577C3.00332 3.89846 4.40178 2.50332 6.1291 2.5H23.173C24.897 2.50332 26.2955 3.90178 26.2955 5.62577V16.8433C26.2922 18.5673 24.897 19.9658 23.1697 19.9691H10.0255C9.53058 20.7066 7.39469 23.8722 7.26514 24.0615C7.01601 24.4236 6.70376 24.5 6.48785 24.5ZM6.1291 3.16767C4.7705 3.16767 3.66767 4.2705 3.66435 5.6291V16.8433C3.66435 18.2684 4.60441 19.3048 5.90322 19.3048C6.08591 19.3048 6.23539 19.4542 6.23539 19.6369V23.6363C6.23539 23.7127 6.35165 23.8356 6.48452 23.8356C6.54764 23.8356 6.62404 23.819 6.71373 23.6862C6.85656 23.4769 9.54386 19.4908 9.57044 19.4509C9.63355 19.3579 9.73652 19.3048 9.84614 19.3048H23.173C24.5316 19.3014 25.6311 18.2019 25.6311 16.8433V5.62577C25.6311 4.26718 24.5283 3.16767 23.1697 3.16435L6.1291 3.16767Z" fill="#86888C"/>
</svg>
