<svg width="40" height="40" viewBox="0 0 40 40" fill="none" xmlns="http://www.w3.org/2000/svg">
<path d="M31.4523 13.4955H8.55633C8.27398 13.4955 8.04297 13.2645 8.04297 12.9821C8.04297 12.6998 8.27398 12.4688 8.55633 12.4688H31.4523C31.7346 12.4688 31.9657 12.6998 31.9657 12.9821C31.9657 13.2645 31.7346 13.4955 31.4523 13.4955ZM24.4449 21.5039H8.55633C8.27398 21.5039 8.04297 21.2729 8.04297 20.9906C8.04297 20.7082 8.27398 20.4772 8.55633 20.4772H24.4449C24.7273 20.4772 24.9583 20.7082 24.9583 20.9906C24.9583 21.2729 24.7273 21.5039 24.4449 21.5039Z" fill="#86888C"/>
<path d="M7.39031 37.5C6.63566 37.5 5.97856 36.8737 5.97856 36.1653V30.4669C4.9159 30.3591 3.93538 29.856 3.22694 29.0603C2.43636 28.1773 2 26.9709 2 25.667V8.33074C2.00513 5.66126 4.16639 3.50513 6.83588 3.5H33.1765C35.8409 3.50513 38.0021 5.66639 38.0021 8.33074V25.667C37.997 28.3313 35.8409 30.4926 33.1714 30.4977H12.8576C12.0927 31.6374 8.79179 36.5297 8.59158 36.8224C8.20655 37.3819 7.72399 37.5 7.39031 37.5ZM6.83588 4.53186C4.73622 4.53186 3.03186 6.23622 3.02673 8.33588V25.667C3.02673 27.8693 4.47954 29.471 6.48679 29.471C6.76914 29.471 7.00015 29.702 7.00015 29.9844V36.1653C7.00015 36.2833 7.17983 36.4733 7.38517 36.4733C7.48271 36.4733 7.60079 36.4476 7.73939 36.2423C7.96014 35.9188 12.1132 29.7585 12.1543 29.6969C12.2518 29.5531 12.411 29.471 12.5804 29.471H33.1765C35.2762 29.4659 36.9754 27.7666 36.9754 25.667V8.33074C36.9754 6.23109 35.271 4.53186 33.1714 4.52673L6.83588 4.53186Z" fill="#86888C"/>
</svg>
