<svg width="24" height="24" viewBox="0 0 24 24" fill="none" xmlns="http://www.w3.org/2000/svg">
<path d="M18.5924 8.79161H6.471C6.32152 8.79161 6.19922 8.66931 6.19922 8.51983C6.19922 8.37035 6.32152 8.24805 6.471 8.24805H18.5924C18.7419 8.24805 18.8642 8.37035 18.8642 8.51983C18.8642 8.66931 18.7419 8.79161 18.5924 8.79161ZM14.8826 13.0314H6.471C6.32152 13.0314 6.19922 12.9091 6.19922 12.7596C6.19922 12.6101 6.32152 12.4878 6.471 12.4878H14.8826C15.0321 12.4878 15.1544 12.6101 15.1544 12.7596C15.1544 12.9091 15.0321 13.0314 14.8826 13.0314Z" fill="#86888C"/>
<path d="M5.85369 21.5C5.45417 21.5 5.1063 21.1684 5.1063 20.7934V17.7766C4.54371 17.7195 4.02461 17.4532 3.64955 17.0319C3.23101 16.5645 3 15.9258 3 15.2355V6.05745C3.00272 4.64419 4.14691 3.50272 5.56017 3.5H19.5052C20.9157 3.50272 22.0599 4.64691 22.0599 6.05745V15.2355C22.0572 16.646 20.9157 17.7902 19.5025 17.7929H8.74815C8.3432 18.3963 6.59565 20.9863 6.48966 21.1413C6.28582 21.4375 6.03035 21.5 5.85369 21.5ZM5.56017 4.04628C4.44859 4.04628 3.54628 4.94859 3.54356 6.06017V15.2355C3.54356 16.4014 4.3127 17.2494 5.37536 17.2494C5.52484 17.2494 5.64714 17.3717 5.64714 17.5211V20.7934C5.64714 20.8559 5.74226 20.9564 5.85097 20.9564C5.90261 20.9564 5.96512 20.9429 6.0385 20.8341C6.15537 20.6629 8.35407 17.4016 8.37581 17.3689C8.42745 17.2928 8.5117 17.2494 8.60139 17.2494H19.5052C20.6168 17.2466 21.5164 16.347 21.5164 15.2355V6.05745C21.5164 4.94587 20.6141 4.04628 19.5025 4.04356L5.56017 4.04628Z" fill="#86888C"/>
</svg>
