<svg width="40" height="40" viewBox="0 0 40 40" fill="none" xmlns="http://www.w3.org/2000/svg">
<path fill-rule="evenodd" clip-rule="evenodd" d="M36.3943 36.2581C36.425 36.1967 36.4711 36.0737 36.3789 35.92L25.7895 21.9237C24.1501 22.4053 22.024 22.6666 19.7903 22.6666C17.7103 22.6666 15.7277 22.436 14.1549 22.0159L3.57572 36.1659C3.56035 36.212 3.57572 36.2889 3.60645 36.3401C3.63719 36.4016 3.69867 36.4631 3.79601 36.4631H36.0459C36.2508 36.458 36.3635 36.3196 36.3943 36.2581ZM16.1683 19.3058L15.1642 20.6532C17.9972 21.2577 22.0394 21.227 24.7648 20.5763L23.8068 19.3058C23.7095 19.1829 23.648 19.0138 23.648 18.855V3.54205H16.3271V16.9953C16.3425 17.0568 16.3271 17.1183 16.3271 17.1951V18.8499C16.3271 19.0138 16.2656 19.1829 16.1683 19.3058ZM37.6699 35.0337C38.0951 35.6844 38.1105 36.3965 37.7621 37.0112C37.4138 37.6311 36.7683 38 36.0459 38H3.79601C3.1505 38 2.55622 37.6619 2.23859 37.1035C1.90559 36.5297 1.92608 35.8637 2.26933 35.3104L14.7543 18.5937V17.2002C14.7389 17.1234 14.7389 17.0465 14.7543 17.0004V3.54718H12.9305C12.5053 3.54718 12.1415 3.19368 12.1415 2.77359C12.1415 2.33812 12.5001 2 12.9305 2H27.0958C27.5211 2 27.8848 2.33812 27.8848 2.77359C27.8848 3.19368 27.5211 3.54718 27.0958 3.54718H25.2208V18.5937L37.6699 35.0337ZM24.3089 33.42C24.7392 33.4097 26.4708 33.2509 26.4708 31.1658C26.4708 29.0858 24.7443 28.9116 24.3038 28.9014H24.0835C23.6275 28.9065 21.942 29.0602 21.942 31.1555C21.942 33.2509 23.648 33.4148 24.104 33.42H24.3089ZM24.3396 27.3542C26.1788 27.3952 28.0436 28.594 28.0436 31.1658C28.0436 33.7427 26.1839 34.9313 24.3396 34.962H24.0783C22.2289 34.9364 20.3641 33.7478 20.3641 31.1504C20.3641 28.5479 22.2238 27.3696 24.0732 27.3542H24.3396ZM16.1785 28.6401C16.4193 28.635 17.3825 28.5479 17.3825 27.3849C17.3825 26.2322 16.4244 26.1349 16.1734 26.1298H16.0556C15.8045 26.1349 14.8619 26.222 14.8619 27.3849C14.8619 28.5479 15.8148 28.6401 16.0658 28.6452H16.1068C16.1324 28.6452 16.158 28.6401 16.1785 28.6401ZM16.2093 24.5877C17.531 24.6185 18.9501 25.515 18.9501 27.3901C18.9501 29.2805 17.5259 30.1668 16.2041 30.1873H16.0402C14.7133 30.1668 13.2891 29.2805 13.2891 27.3798C13.2891 25.474 14.7185 24.5929 16.0402 24.5826H16.0863L16.2093 24.5877Z" fill="#86888C"/>
</svg>
