<svg width="24" height="24" viewBox="0 0 24 24" fill="none" xmlns="http://www.w3.org/2000/svg">
<path fill-rule="evenodd" clip-rule="evenodd" d="M21.1079 21.0323C21.125 20.9981 21.1506 20.9298 21.0994 20.8445L15.2164 13.0687C14.3056 13.3363 13.1244 13.4814 11.8835 13.4814C10.728 13.4814 9.6265 13.3534 8.75273 13.12L2.8754 20.9811C2.86686 21.0067 2.8754 21.0494 2.89247 21.0778C2.90955 21.112 2.94371 21.1462 2.99778 21.1462H20.9144C21.0282 21.1433 21.0909 21.0665 21.1079 21.0323ZM9.87127 11.6143L9.31342 12.3629C10.8874 12.6987 13.133 12.6817 14.6471 12.3202L14.1149 11.6143C14.0608 11.546 14.0267 11.4521 14.0267 11.3639V2.8567H9.9595V10.3307C9.96804 10.3649 9.9595 10.399 9.9595 10.4417V11.361C9.9595 11.4521 9.92535 11.546 9.87127 11.6143ZM21.8166 20.3521C22.0529 20.7135 22.0614 21.1092 21.8679 21.4507C21.6743 21.7951 21.3157 22 20.9144 22H2.99778C2.63917 22 2.30901 21.8122 2.13255 21.5019C1.94755 21.1832 1.95893 20.8132 2.14963 20.5058L9.08573 11.2187V10.4446C9.07719 10.4019 9.07719 10.3592 9.08573 10.3336V2.85954H8.07249C7.83626 2.85954 7.63419 2.66316 7.63419 2.42977C7.63419 2.18785 7.83342 2 8.07249 2H15.9421C16.1784 2 16.3805 2.18785 16.3805 2.42977C16.3805 2.66316 16.1784 2.85954 15.9421 2.85954H14.9004V11.2187L21.8166 20.3521ZM14.3938 19.4555C14.6329 19.4498 15.5949 19.3616 15.5949 18.2032C15.5949 17.0477 14.6358 16.9509 14.391 16.9452H14.2686C14.0153 16.9481 13.0789 17.0334 13.0789 18.1975C13.0789 19.3616 14.0267 19.4527 14.28 19.4555H14.3938ZM14.4109 16.0857C15.4327 16.1084 16.4687 16.7744 16.4687 18.2032C16.4687 19.6348 15.4355 20.2951 14.4109 20.3122H14.2657C13.2383 20.298 12.2023 19.6377 12.2023 18.1947C12.2023 16.7488 13.2354 16.0942 14.2629 16.0857H14.4109ZM9.87696 16.8001C10.0107 16.7972 10.5458 16.7488 10.5458 16.1027C10.5458 15.4624 10.0136 15.4083 9.87412 15.4054H9.80865C9.66919 15.4083 9.1455 15.4567 9.1455 16.1027C9.1455 16.7488 9.67489 16.8001 9.81435 16.8029H9.83712C9.85135 16.8029 9.86558 16.8001 9.87696 16.8001ZM9.89404 14.5487C10.6284 14.5658 11.4167 15.0639 11.4167 16.1056C11.4167 17.1558 10.6255 17.6482 9.89119 17.6596H9.80012C9.06296 17.6482 8.27173 17.1558 8.27173 16.0999C8.27173 15.0411 9.06581 14.5516 9.80012 14.5459H9.82573L9.89404 14.5487Z" fill="#86888C"/>
</svg>
