<svg width="28" height="28" viewBox="0 0 28 28" fill="none" xmlns="http://www.w3.org/2000/svg">
<path fill-rule="evenodd" clip-rule="evenodd" d="M24.9295 24.8388C24.95 24.7978 24.9807 24.7158 24.9193 24.6133L17.8596 15.2825C16.7667 15.6035 15.3493 15.7777 13.8602 15.7777C12.4736 15.7777 11.1518 15.624 10.1033 15.344L3.05048 24.7773C3.04023 24.808 3.05048 24.8593 3.07097 24.8934C3.09146 24.9344 3.13245 24.9754 3.19734 24.9754H24.6973C24.8339 24.972 24.909 24.8797 24.9295 24.8388ZM11.4455 13.5372L10.7761 14.4355C12.6648 14.8385 15.3596 14.818 17.1766 14.3842L16.5379 13.5372C16.473 13.4552 16.432 13.3425 16.432 13.2367V3.02803H11.5514V11.9969C11.5616 12.0379 11.5514 12.0788 11.5514 12.1301V13.2332C11.5514 13.3425 11.5104 13.4552 11.4455 13.5372ZM25.7799 24.0225C26.0634 24.4562 26.0737 24.931 25.8414 25.3408C25.6092 25.7541 25.1788 26 24.6973 26H3.19734C2.767 26 2.37081 25.7746 2.15906 25.4023C1.93706 25.0198 1.95072 24.5758 2.17955 24.2069L10.5029 13.0625V12.1335C10.4926 12.0823 10.4926 12.031 10.5029 12.0003V3.03145H9.28699C9.00352 3.03145 8.76102 2.79579 8.76102 2.51573C8.76102 2.22542 9.0001 2 9.28699 2H18.7306C19.014 2 19.2565 2.22542 19.2565 2.51573C19.2565 2.79579 19.014 3.03145 18.7306 3.03145H17.4805V13.0625L25.7799 24.0225ZM16.8726 22.9466C17.1595 22.9398 18.3139 22.8339 18.3139 21.4439C18.3139 20.0572 17.1629 19.9411 16.8692 19.9343H16.7223C16.4183 19.9377 15.2947 20.0401 15.2947 21.437C15.2947 22.8339 16.432 22.9432 16.736 22.9466H16.8726ZM16.8931 18.9028C18.1192 18.9301 19.3624 19.7293 19.3624 21.4439C19.3624 23.1618 18.1226 23.9542 16.8931 23.9747H16.7189C15.4859 23.9576 14.2427 23.1652 14.2427 21.4336C14.2427 19.6986 15.4825 18.913 16.7155 18.9028H16.8931ZM11.4524 19.7601C11.6129 19.7567 12.255 19.6986 12.255 18.9233C12.255 18.1548 11.6163 18.0899 11.4489 18.0865H11.3704C11.203 18.0899 10.5746 18.148 10.5746 18.9233C10.5746 19.6986 11.2099 19.7601 11.3772 19.7635H11.4045C11.4216 19.7635 11.4387 19.7601 11.4524 19.7601ZM11.4728 17.0585C12.354 17.079 13.3001 17.6767 13.3001 18.9267C13.3001 20.187 12.3506 20.7779 11.4694 20.7915H11.3601C10.4756 20.7779 9.52607 20.187 9.52607 18.9199C9.52607 17.6494 10.479 17.0619 11.3601 17.0551H11.3909L11.4728 17.0585Z" fill="#86888C"/>
</svg>
