<svg width="20" height="20" viewBox="0 0 20 20" fill="none" xmlns="http://www.w3.org/2000/svg">
<path fill-rule="evenodd" clip-rule="evenodd" d="M5.69179 17.3128H13.6338V15.8108H5.69179V17.3128ZM6.8683 15.1281H12.4595V13.9061H6.8683V15.1281ZM7.83544 13.1848L8.50448 7.46608H10.8985L11.5675 13.1848C11.5698 13.2007 11.5766 13.2121 11.5811 13.2257H7.82179C7.82634 13.2121 7.83317 13.1984 7.83544 13.1848ZM7.79903 6.78566H11.6039V5.65922H7.79903V6.78566ZM6.36083 2.68042H7.19144V3.6157C7.19144 3.80458 7.34618 3.95705 7.53733 3.95705H8.96416C9.15531 3.95705 9.31006 3.80458 9.31006 3.6157V2.68042H9.94041V3.6817C9.94041 3.77272 9.97682 3.86147 10.0428 3.92519C10.1088 3.98891 10.1862 4.01621 10.2909 4.02304L11.745 4.00028C11.9339 3.99801 12.0863 3.84554 12.0863 3.65894V2.67814H12.9807V4.97426H6.36083V2.68042ZM13.9797 15.1281H13.1513V13.5648C13.1513 13.3759 12.9966 13.2234 12.8054 13.2234H12.2456C12.257 13.1848 12.2616 13.1461 12.257 13.1051L11.5971 7.4638H11.9498C12.1409 7.4638 12.2957 7.31134 12.2957 7.12246V5.65467H13.3311C13.5223 5.65467 13.677 5.5022 13.677 5.31333V2.34135C13.677 2.15247 13.5223 2 13.3311 2H11.7427C11.5516 2 11.3968 2.15247 11.3968 2.34135V3.3267L10.6368 3.33807V2.34135C10.6368 2.15247 10.482 2 10.2909 2H8.96871C8.77756 2 8.62281 2.15247 8.62281 2.34135V3.27891H7.88778V2.34135C7.88778 2.15247 7.73304 2 7.54189 2H6.01721C5.82606 2 5.67131 2.15247 5.67131 2.34135V5.31788C5.67131 5.50676 5.82606 5.65922 6.01721 5.65922H7.10496V7.12701C7.10496 7.31589 7.25971 7.46835 7.45086 7.46835H7.80586L7.14593 13.1097C7.14137 13.1506 7.14593 13.1916 7.15503 13.228H6.52013C6.32897 13.228 6.17423 13.3805 6.17423 13.5693V15.1327H5.3459C5.15474 15.1327 5 15.2852 5 15.474V17.6587C5 17.8475 5.15474 18 5.3459 18H13.9819C14.1731 18 14.3278 17.8475 14.3278 17.6587V15.474C14.3278 15.2806 14.1731 15.1281 13.9797 15.1281Z" fill="#86888C"/>
</svg>
