<svg width="40" height="40" viewBox="0 0 40 40" fill="none" xmlns="http://www.w3.org/2000/svg">
<path d="M28.4828 38H11.5103C10.3727 38 9.48612 37.672 8.87117 37.0212C8.2921 36.4114 8 35.5556 8 34.4897V9.50747C8 9.36911 8.05637 9.241 8.14861 9.14363L15.1436 2.14861C15.241 2.05125 15.3691 2 15.5075 2H28.4828C29.6205 2 30.507 2.32797 31.122 2.97879C31.7011 3.58861 31.9932 4.44441 31.9932 5.51032V34.4897C31.9932 35.5556 31.7011 36.4114 31.122 37.0212C30.507 37.672 29.6205 38 28.4828 38ZM9.02491 9.71758V34.4897C9.02491 36.1398 9.86021 36.9751 11.5103 36.9751H28.4828C30.133 36.9751 30.9683 36.1398 30.9683 34.4897V5.51032C30.9683 3.86021 30.133 3.02491 28.4828 3.02491H15.7176L9.02491 9.71758Z" fill="#86888C"/>
<path d="M27.4876 34.0044H12.4983C12.2164 34.0044 11.9858 33.7738 11.9858 33.4919V17.739C11.9858 17.4572 12.2164 17.2266 12.4983 17.2266H27.4876C27.7695 17.2266 28.0001 17.4572 28.0001 17.739V33.4919C28.0001 33.7738 27.7746 34.0044 27.4876 34.0044ZM13.0108 32.9794H26.9752V18.2515H13.0108V32.9794Z" fill="#86888C"/>
<path d="M17.4861 23.2479C17.2042 23.2479 16.9736 23.0173 16.9736 22.7355V17.739C16.9736 17.4572 17.2042 17.2266 17.4861 17.2266C17.7679 17.2266 17.9985 17.4572 17.9985 17.739V22.7355C17.9985 23.0173 17.7679 23.2479 17.4861 23.2479ZM22.4825 23.2479C22.2007 23.2479 21.9701 23.0173 21.9701 22.7355V17.739C21.9701 17.4572 22.2007 17.2266 22.4825 17.2266C22.7644 17.2266 22.995 17.4572 22.995 17.739V22.7355C22.995 23.0173 22.7644 23.2479 22.4825 23.2479ZM17.4861 34.0044C17.2042 34.0044 16.9736 33.7738 16.9736 33.4919V28.4955C16.9736 28.2136 17.2042 27.983 17.4861 27.983C17.7679 27.983 17.9985 28.2136 17.9985 28.4955V33.4919C17.9985 33.7738 17.7679 34.0044 17.4861 34.0044ZM22.4825 34.0044C22.2007 34.0044 21.9701 33.7738 21.9701 33.4919V28.4955C21.9701 28.2136 22.2007 27.983 22.4825 27.983C22.7644 27.983 22.995 28.2136 22.995 28.4955V33.4919C22.995 33.7738 22.7644 34.0044 22.4825 34.0044Z" fill="#86888C"/>
<path d="M27.4876 23.2485H12.4983C12.2164 23.2485 11.9858 23.0179 11.9858 22.7361C11.9858 22.4542 12.2164 22.2236 12.4983 22.2236H27.4876C27.7695 22.2236 28.0001 22.4542 28.0001 22.7361C28.0001 23.0179 27.7746 23.2485 27.4876 23.2485ZM27.4876 29.0085H12.4983C12.2164 29.0085 11.9858 28.7779 11.9858 28.4961C11.9858 28.2142 12.2164 27.9836 12.4983 27.9836H27.4876C27.7695 27.9836 28.0001 28.2142 28.0001 28.4961C28.0001 28.7779 27.7746 29.0085 27.4876 29.0085Z" fill="#86888C"/>
</svg>
