<svg width="28" height="28" viewBox="0 0 28 28" fill="none" xmlns="http://www.w3.org/2000/svg">
<path d="M20.6552 26H9.34021C8.58178 26 7.99075 25.7814 7.58078 25.3475C7.19473 24.9409 7 24.3704 7 23.6598V7.00498C7 6.91274 7.03758 6.82733 7.09907 6.76242L11.7624 2.09907C11.8273 2.03416 11.9127 2 12.005 2H20.6552C21.4137 2 22.0047 2.21865 22.4147 2.65253C22.8007 3.05907 22.9954 3.62961 22.9954 4.34021V23.6598C22.9954 24.3704 22.8007 24.9409 22.4147 25.3475C22.0047 25.7814 21.4137 26 20.6552 26ZM7.68327 7.14505V23.6598C7.68327 24.7599 8.24014 25.3167 9.34021 25.3167H20.6552C21.7553 25.3167 22.3122 24.7599 22.3122 23.6598V4.34021C22.3122 3.24014 21.7553 2.68327 20.6552 2.68327H12.1451L7.68327 7.14505Z" fill="#86888C"/>
<path d="M19.9917 23.3366H9.99886C9.81096 23.3366 9.65723 23.1828 9.65723 22.9949V12.493C9.65723 12.3051 9.81096 12.1514 9.99886 12.1514H19.9917C20.1796 12.1514 20.3334 12.3051 20.3334 12.493V22.9949C20.3334 23.1828 20.1831 23.3366 19.9917 23.3366ZM10.3405 22.6533H19.6501V12.8346H10.3405V22.6533Z" fill="#86888C"/>
<path d="M13.3241 16.1656C13.1362 16.1656 12.9824 16.0119 12.9824 15.824V12.493C12.9824 12.3051 13.1362 12.1514 13.3241 12.1514C13.512 12.1514 13.6657 12.3051 13.6657 12.493V15.824C13.6657 16.0119 13.512 16.1656 13.3241 16.1656ZM16.655 16.1656C16.4671 16.1656 16.3134 16.0119 16.3134 15.824V12.493C16.3134 12.3051 16.4671 12.1514 16.655 12.1514C16.8429 12.1514 16.9967 12.3051 16.9967 12.493V15.824C16.9967 16.0119 16.8429 16.1656 16.655 16.1656ZM13.3241 23.3366C13.1362 23.3366 12.9824 23.1828 12.9824 22.9949V19.664C12.9824 19.4761 13.1362 19.3223 13.3241 19.3223C13.512 19.3223 13.6657 19.4761 13.6657 19.664V22.9949C13.6657 23.1828 13.512 23.3366 13.3241 23.3366ZM16.655 23.3366C16.4671 23.3366 16.3134 23.1828 16.3134 22.9949V19.664C16.3134 19.4761 16.4671 19.3223 16.655 19.3223C16.8429 19.3223 16.9967 19.4761 16.9967 19.664V22.9949C16.9967 23.1828 16.8429 23.3366 16.655 23.3366Z" fill="#86888C"/>
<path d="M19.9917 16.1657H9.99886C9.81096 16.1657 9.65723 16.012 9.65723 15.8241C9.65723 15.6362 9.81096 15.4824 9.99886 15.4824H19.9917C20.1796 15.4824 20.3334 15.6362 20.3334 15.8241C20.3334 16.012 20.1831 16.1657 19.9917 16.1657ZM19.9917 20.0057H9.99886C9.81096 20.0057 9.65723 19.852 9.65723 19.6641C9.65723 19.4762 9.81096 19.3224 9.99886 19.3224H19.9917C20.1796 19.3224 20.3334 19.4762 20.3334 19.6641C20.3334 19.852 20.1831 20.0057 19.9917 20.0057Z" fill="#86888C"/>
</svg>
