<svg width="24" height="24" viewBox="0 0 24 24" fill="none" xmlns="http://www.w3.org/2000/svg">
<path fill-rule="evenodd" clip-rule="evenodd" d="M19.1719 20.8503V4.63233C19.1719 4.5498 18.9044 4.29653 18.5316 4.29653H15.5407C15.5521 4.39613 15.5692 4.49289 15.572 4.59533L15.5777 4.78884L15.5748 4.88275C15.5293 6.20603 14.3113 6.48207 12.4957 6.48207C10.683 6.48207 9.465 6.20603 9.41662 4.86568V4.66932L9.42231 4.57541C9.42516 4.47581 9.44508 4.39044 9.45931 4.29653H6.46272C6.08708 4.29653 5.82242 4.55265 5.82242 4.63233V20.8503C5.82242 20.9641 6.10131 21.1861 6.46272 21.1861H18.5287C18.893 21.1861 19.1719 20.9613 19.1719 20.8503ZM12.4957 2.81389C11.0188 2.81389 10.3045 3.39158 10.2476 4.63233L10.2419 4.78884C10.2561 5.18725 10.2732 5.66534 12.4986 5.66534C14.724 5.66534 14.741 5.18441 14.7524 4.83438V4.70063C14.7467 4.46158 14.7097 4.22538 14.6414 3.99488C14.3853 3.20091 13.6853 2.81389 12.4957 2.81389ZM18.5287 3.48264C19.2971 3.48264 19.9972 4.03187 19.9972 4.63233V20.8503C19.9972 21.4735 19.3256 22 18.5316 22H6.46557C5.6716 22 5 21.4735 5 20.8503V4.63233C5 4.03187 5.70006 3.48264 6.46557 3.48264H9.66705C10.0911 2.52077 11.0643 2 12.4957 2C14.2402 2 14.9972 2.75128 15.3216 3.48264H18.5287ZM11.5794 4.97951C11.3546 4.97951 11.1696 4.80023 11.1668 4.57257C11.1668 4.34775 11.3517 4.16562 11.5794 4.16562H13.4092C13.6369 4.16562 13.8219 4.34775 13.8219 4.57257C13.8219 4.79738 13.6369 4.97951 13.4092 4.97951H11.5794Z" fill="#86888C"/>
</svg>
