<svg width="28" height="28" viewBox="0 0 28 28" fill="none" xmlns="http://www.w3.org/2000/svg">
<path fill-rule="evenodd" clip-rule="evenodd" d="M13.9966 24.9994C21.2977 24.9994 24.9994 21.3011 24.9994 14.0034C24.9994 6.70233 21.2977 3.00057 13.9966 3.00057C6.69892 3.00057 3.00057 6.70233 3.00057 14.0034C3.00057 21.3011 6.69892 24.9994 13.9966 24.9994ZM13.9966 2C21.5777 2 26 5.82812 26 14.0034C26 22.1787 21.5777 26 13.9966 26C6.41548 26 2 22.1787 2 14.0034C2 5.82812 6.41548 2 13.9966 2ZM14.502 14.1229L18.0467 17.671C18.2379 17.8691 18.2345 18.1867 18.033 18.3779C17.8384 18.5657 17.531 18.5657 17.3398 18.3779L13.6448 14.6864C13.5526 14.5908 13.498 14.4644 13.498 14.3312V9.33182C13.498 9.05521 13.7234 8.83324 13.9966 8.83324C14.2698 8.83324 14.4952 9.05862 14.4952 9.33182L14.502 14.1229Z" fill="#86888C"/>
</svg>
