<svg width="20" height="20" viewBox="0 0 20 20" fill="none" xmlns="http://www.w3.org/2000/svg">
<path fill-rule="evenodd" clip-rule="evenodd" d="M9.99772 17.333C14.8651 17.333 17.333 14.8674 17.333 10.0023C17.333 5.13489 14.8651 2.66705 9.99772 2.66705C5.13261 2.66705 2.66705 5.13489 2.66705 10.0023C2.66705 14.8674 5.13261 17.333 9.99772 17.333ZM9.99772 2C15.0518 2 18 4.55208 18 10.0023C18 15.4525 15.0518 18 9.99772 18C4.94365 18 2 15.4525 2 10.0023C2 4.55208 4.94365 2 9.99772 2ZM10.3347 10.082L12.6978 12.4474C12.8253 12.5794 12.823 12.7911 12.6887 12.9186C12.5589 13.0438 12.354 13.0438 12.2265 12.9186L9.76323 10.4576C9.70176 10.3939 9.66534 10.3096 9.66534 10.2208V6.88788C9.66534 6.70347 9.81559 6.55549 9.99772 6.55549C10.1799 6.55549 10.3301 6.70575 10.3301 6.88788L10.3347 10.082Z" fill="#86888C"/>
</svg>
