<svg width="40" height="40" viewBox="0 0 40 40" fill="none" xmlns="http://www.w3.org/2000/svg">
<path fill-rule="evenodd" clip-rule="evenodd" d="M21.7057 20L37.6358 4.0443C38.1019 3.60891 38.1224 2.88156 37.687 2.41543C37.6716 2.39495 37.6512 2.37958 37.6358 2.36421C37.2004 1.89809 36.473 1.8776 36.0069 2.31299C35.9864 2.32836 35.9711 2.34885 35.9557 2.36421L20 18.2943L4.0443 2.36421C3.60891 1.89809 2.88156 1.8776 2.41543 2.31299C2.39495 2.32836 2.37958 2.34885 2.36421 2.36421C1.89809 2.7996 1.8776 3.52696 2.31299 3.99308C2.32836 4.01357 2.34885 4.02893 2.36421 4.0443L18.2943 20L2.36421 35.9557C1.89809 36.3911 1.8776 37.1184 2.31299 37.5846C2.32836 37.6051 2.34885 37.6204 2.36421 37.6358C2.58447 37.8663 2.88668 37.9995 3.20426 37.9943C3.52183 37.9995 3.82917 37.8663 4.0443 37.6358L20 21.7057L35.9557 37.6358C36.3911 38.1019 37.1184 38.1224 37.5846 37.687C37.6051 37.6716 37.6204 37.6512 37.6358 37.6358C38.1019 37.2004 38.1224 36.473 37.687 36.0069C37.6716 35.9864 37.6512 35.9711 37.6358 35.9557L21.7057 20Z" fill="#86888C"/>
</svg>
