<svg width="20" height="20" viewBox="0 0 20 20" fill="none" xmlns="http://www.w3.org/2000/svg">
<path fill-rule="evenodd" clip-rule="evenodd" d="M10.7583 10.0002L17.8385 2.9086C18.0457 2.71509 18.0548 2.39181 17.8613 2.18464C17.8545 2.17554 17.8454 2.16871 17.8385 2.16188C17.645 1.95471 17.3218 1.9456 17.1146 2.13911C17.1055 2.14594 17.0986 2.15505 17.0918 2.16188L10.0002 9.2421L2.9086 2.16188C2.71509 1.95471 2.39181 1.9456 2.18464 2.13911C2.17554 2.14594 2.16871 2.15505 2.16188 2.16188C1.95471 2.35539 1.9456 2.67866 2.13911 2.88583C2.14594 2.89494 2.15505 2.90177 2.16188 2.9086L9.2421 10.0002L2.16188 17.0918C1.95471 17.2853 1.9456 17.6086 2.13911 17.8158C2.14594 17.8249 2.15505 17.8317 2.16188 17.8385C2.25977 17.941 2.39409 18.0002 2.53524 17.9979C2.67639 18.0002 2.81298 17.941 2.9086 17.8385L10.0002 10.7583L17.0918 17.8385C17.2853 18.0457 17.6086 18.0548 17.8158 17.8613C17.8249 17.8545 17.8317 17.8454 17.8385 17.8385C18.0457 17.645 18.0548 17.3218 17.8613 17.1146C17.8545 17.1055 17.8454 17.0986 17.8385 17.0918L10.7583 10.0002Z" fill="#86888C"/>
</svg>
