<svg width="40" height="40" viewBox="0 0 40 40" fill="none" xmlns="http://www.w3.org/2000/svg">
<path d="M29.6042 33H9.32722C5.28772 33 2 29.7123 2 25.6728C2 24.0421 2.56648 22.4803 3.64121 21.1515C4.64712 19.9073 6.00774 18.9967 7.47954 18.5838C7.56954 18.5626 7.65425 18.5308 7.73895 18.4885C7.77072 11.8283 12.3344 7 18.608 7C23.1558 7.00529 27.2747 9.67888 29.133 13.8243L29.1436 13.8454L29.2071 13.8402C29.3394 13.8349 29.4718 13.8296 29.6094 13.8296C34.8931 13.8296 39.1973 18.1285 39.1973 23.4174C39.1973 28.7064 34.8931 33 29.6042 33ZM18.608 8.05885C15.8338 8.05885 13.3297 9.1124 11.5455 11.0289C9.76135 12.9454 8.79251 15.6137 8.79251 18.5573C8.79251 19.3091 8.01955 19.5315 7.76542 19.6003C6.5001 19.955 5.33008 20.7438 4.46182 21.8186C3.54062 22.9568 3.05885 24.291 3.05885 25.6728C3.06414 29.1352 5.86479 31.9359 9.32722 31.9412H29.6042C34.3054 31.9412 38.1332 28.1134 38.1332 23.4121C38.1332 18.7109 34.3107 14.8831 29.6094 14.8831C29.493 14.8831 29.3818 14.8884 29.2547 14.8937C29.1753 14.899 29.1012 14.899 29.0271 14.9043C28.6353 14.9149 28.3494 14.7084 28.18 14.2849C28.1747 14.2743 28.1747 14.2637 28.1694 14.2531C26.4753 10.4889 22.7375 8.06414 18.608 8.05885Z" fill="#86888C"/>
</svg>
