<svg width="24" height="24" viewBox="0 0 24 24" fill="none" xmlns="http://www.w3.org/2000/svg">
<path fill-rule="evenodd" clip-rule="evenodd" d="M21.1377 19.8145C21.1292 20.3096 20.9328 21.1463 19.7063 21.1463C18.4826 21.1463 18.292 20.3267 18.2834 19.8315V19.6693C18.3005 19.1742 18.4997 18.3546 19.6722 18.329C19.6892 18.3375 19.6978 18.3375 19.7149 18.3375C19.7234 18.3375 19.7405 18.3375 19.749 18.329C20.93 18.3546 21.1292 19.1742 21.1377 19.6579V19.8145ZM5.70803 19.6693V19.8145C5.70803 20.3182 5.50882 21.1463 4.27661 21.1463C3.06147 21.1463 2.86511 20.3267 2.86511 19.8315V19.6693C2.87365 19.1656 3.08139 18.329 4.29653 18.329C5.50882 18.329 5.69949 19.1656 5.70803 19.6693ZM7.59476 12.6289C6.79226 12.6289 4.9226 12.3728 4.9226 9.99943C4.9226 8.66477 5.50882 7.82242 6.64713 7.50655C6.83495 7.45532 6.95731 7.19067 6.95731 7.00285C6.95731 3.15253 10.3523 2.85373 11.3882 2.85373C11.9829 2.85373 14.9567 2.98179 15.6653 5.59419C15.7194 5.77348 15.8816 5.90154 16.0694 5.90723C17.0626 5.93284 19.3819 6.31702 19.3819 9.23677C19.3819 12.3358 16.761 12.5748 15.9499 12.5748L7.59476 12.6289ZM20.1474 17.5179V14.7945C20.1417 14.5583 19.9511 14.3705 19.7177 14.3677H12.387V13.4542L15.9471 13.4286C16.6642 13.4286 20.2413 13.2322 20.2413 9.23677C20.2413 6.39385 18.3176 5.23563 16.4052 5.07057C15.4064 2.15367 12.0683 2 11.3882 2C10.5174 2 6.23449 2.23051 6.09505 6.78941C5.22425 7.12237 4.06033 7.95048 4.06033 9.99943C4.06033 12.5692 5.89015 13.4826 7.59476 13.4826L11.5276 13.457V14.3705H4.27376C4.15709 14.3734 4.0461 14.4189 3.96357 14.4986C3.88674 14.5811 3.84121 14.6921 3.84405 14.8031L3.85259 17.5179C2.53216 17.7057 2.01707 18.7473 2 19.6522V19.8401C2.00854 20.8389 2.61184 22 4.27376 22C5.94707 22 6.55891 20.8304 6.56744 19.8315V19.6437C6.55037 18.7388 6.04098 17.7001 4.71201 17.5094L4.70347 15.2214H19.2823V17.5179C17.9619 17.7057 17.4468 18.7359 17.4212 19.6522V19.8401C17.4297 20.8389 18.033 22 19.7063 22C21.3711 22 21.9801 20.8304 22 19.8315V19.6437C21.9829 18.7388 21.4678 17.6972 20.1474 17.5179Z" fill="#86888C"/>
</svg>
