<svg width="24" height="24" viewBox="0 0 24 24" fill="none" xmlns="http://www.w3.org/2000/svg">
<rect width="24" height="24" fill="white"/>
<path fill-rule="evenodd" clip-rule="evenodd" d="M11.9996 18.6129C9.91946 18.6129 8.22914 16.9056 8.22914 14.8083C8.22914 12.7111 9.91946 11.0037 11.9996 11.0037C14.0798 11.0037 15.773 12.7111 15.773 14.8083C15.773 16.9056 14.0798 18.6129 11.9996 18.6129ZM5.85017 15.5197C4.47572 15.3774 2.83378 14.6632 2.83378 12.0679C2.83378 10.3065 3.59072 9.19667 5.079 8.76982C5.25828 8.7186 5.38349 8.55355 5.38064 8.36574L5.37495 8.24906C5.37495 3.22648 9.71742 2.83662 11.0463 2.83662C11.8004 2.83662 15.6022 3.01021 16.51 6.41931C16.5584 6.59858 16.7177 6.72664 16.9027 6.73233C18.1861 6.76932 21.1712 7.26447 21.1712 11.0947C21.1712 15.164 17.7877 15.4799 16.749 15.4799H16.5527C16.5868 15.2579 16.6068 15.0331 16.6068 14.8055C16.6068 12.2387 14.5465 10.1585 12.0025 10.1585C9.45847 10.1585 7.39821 12.2387 7.39821 14.8026C7.39821 15.0416 7.42098 15.2778 7.45512 15.5083L5.85017 15.5197ZM16.7462 16.325C17.6227 16.325 21.9993 16.0746 21.9993 11.0976C21.9993 6.7494 18.6642 6.02091 17.2243 5.91278C16.0348 2.19066 11.883 2 11.0463 2C9.97069 2 4.65784 2.29595 4.54117 8.0641C3.4769 8.45395 2 9.467 2 12.0679C2 15.588 4.63223 16.2368 5.80749 16.3563L7.66001 16.3535C8.29175 18.1605 9.99345 19.4553 11.9996 19.4553C13.0725 19.4553 14.1083 19.0796 14.9307 18.391L18.3853 21.8769C18.5475 22.0391 18.8093 22.042 18.9715 21.8798L18.9743 21.8769C19.1365 21.7119 19.1365 21.4472 18.9743 21.2822L15.5226 17.7991C15.8868 17.3637 16.1657 16.8629 16.3506 16.325H16.7462Z" fill="#86888C"/>
</svg>
