<svg width="20" height="20" viewBox="0 0 20 20" fill="none" xmlns="http://www.w3.org/2000/svg">
<path d="M14.7404 16H5.3818C3.51741 16 2 14.4826 2 12.6182C2 11.8656 2.26145 11.1448 2.75748 10.5315C3.22175 9.95724 3.84973 9.53696 4.52902 9.34636C4.57056 9.33659 4.60965 9.32193 4.64875 9.30238C4.66341 6.22847 6.7697 4 9.66524 4C11.7642 4.00244 13.6652 5.23641 14.5229 7.14966L14.5278 7.15944L14.5571 7.15699C14.6182 7.15455 14.6793 7.15211 14.7428 7.15211C17.1814 7.15211 19.168 9.13622 19.168 11.5773C19.168 14.0183 17.1814 16 14.7404 16ZM9.66524 4.4887C8.38485 4.4887 7.22908 4.97495 6.40562 5.8595C5.58216 6.74404 5.135 7.97556 5.135 9.33415C5.135 9.68112 4.77825 9.78375 4.66097 9.81552C4.07697 9.97923 3.53696 10.3433 3.13622 10.8393C2.71106 11.3647 2.4887 11.9805 2.4887 12.6182C2.49114 14.2162 3.78375 15.5089 5.3818 15.5113H14.7404C16.9102 15.5113 18.6768 13.7447 18.6768 11.5748C18.6768 9.40501 16.9126 7.63836 14.7428 7.63836C14.6891 7.63836 14.6378 7.64081 14.5791 7.64325C14.5425 7.64569 14.5082 7.64569 14.474 7.64814C14.2932 7.65302 14.1613 7.55773 14.0831 7.36225C14.0806 7.35736 14.0806 7.35247 14.0782 7.34759C13.2963 5.61026 11.5712 4.49114 9.66524 4.4887Z" fill="#86888C"/>
</svg>
