<svg width="40" height="40" viewBox="0 0 40 40" fill="none" xmlns="http://www.w3.org/2000/svg">
<path fill-rule="evenodd" clip-rule="evenodd" d="M19.9994 31.9033C16.255 31.9033 13.2125 28.83 13.2125 25.0549C13.2125 21.2799 16.255 18.2066 19.9994 18.2066C23.7437 18.2066 26.7914 21.2799 26.7914 25.0549C26.7914 28.83 23.7437 31.9033 19.9994 31.9033ZM8.93031 26.3355C6.4563 26.0794 3.5008 24.7937 3.5008 20.1223C3.5008 16.9517 4.8633 14.954 7.5422 14.1857C7.8649 14.0935 8.09028 13.7964 8.08515 13.4583L8.07491 13.2483C8.07491 4.20766 15.8914 3.50592 18.2834 3.50592C19.6408 3.50592 26.484 3.81838 28.118 9.95475C28.2051 10.2774 28.4919 10.5079 28.8249 10.5182C31.135 10.5848 36.5081 11.476 36.5081 18.3705C36.5081 25.6952 30.4179 26.2638 28.5483 26.2638H28.1948C28.2563 25.8643 28.2922 25.4596 28.2922 25.0498C28.2922 20.4296 24.5837 16.6853 20.0045 16.6853C15.4252 16.6853 11.7168 20.4296 11.7168 25.0447C11.7168 25.475 11.7578 25.9001 11.8192 26.315L8.93031 26.3355ZM28.5432 27.7851C30.1208 27.7851 37.9987 27.3343 37.9987 18.3756C37.9987 10.5489 31.9955 9.23765 29.4037 9.043C27.2626 2.34319 19.7893 2 18.2834 2C16.3472 2 6.78412 2.53271 6.57411 12.9154C4.65841 13.6171 2 15.4406 2 20.1223C2 26.4584 6.73802 27.6263 8.85348 27.8414L12.188 27.8363C13.3251 31.0889 16.3882 33.4195 19.9994 33.4195C21.9304 33.4195 23.7949 32.7433 25.2752 31.5038L31.4935 37.7785C31.7855 38.0704 32.2567 38.0755 32.5487 37.7836L32.5538 37.7785C32.8458 37.4814 32.8458 37.005 32.5538 36.7079L26.3406 30.4384C26.9963 29.6547 27.4982 28.7532 27.8312 27.7851H28.5432Z" fill="#86888C"/>
</svg>
