<svg width="20" height="20" viewBox="0 0 20 20" fill="none" xmlns="http://www.w3.org/2000/svg">
<path fill-rule="evenodd" clip-rule="evenodd" d="M17.3102 16.2516C17.3034 16.6477 17.1463 17.317 16.1651 17.317C15.1861 17.317 15.0336 16.6614 15.0267 16.2652V16.1355C15.0404 15.7393 15.1998 15.0837 16.1377 15.0632C16.1514 15.07 16.1582 15.07 16.1719 15.07C16.1787 15.07 16.1924 15.07 16.1992 15.0632C17.144 15.0837 17.3034 15.7393 17.3102 16.1264V16.2516ZM4.96642 16.1355V16.2516C4.96642 16.6545 4.80706 17.317 3.82129 17.317C2.84917 17.317 2.69209 16.6614 2.69209 16.2652V16.1355C2.69892 15.7325 2.86511 15.0632 3.83722 15.0632C4.80706 15.0632 4.95959 15.7325 4.96642 16.1355ZM6.47581 10.5031C5.83381 10.5031 4.33808 10.2982 4.33808 8.39955C4.33808 7.33182 4.80706 6.65794 5.7177 6.40524C5.86796 6.36426 5.96585 6.15253 5.96585 6.00228C5.96585 2.92203 8.68184 2.68298 9.51053 2.68298C9.98634 2.68298 12.3654 2.78543 12.9323 4.87536C12.9755 5.01878 13.1053 5.12123 13.2555 5.12578C14.0501 5.14627 15.9055 5.45361 15.9055 7.78941C15.9055 10.2686 13.8088 10.4599 13.1599 10.4599L6.47581 10.5031ZM16.5179 14.4143V12.2356C16.5134 12.0467 16.3608 11.8964 16.1742 11.8941H10.3096V11.1633L13.1577 11.1429C13.7314 11.1429 16.5931 10.9858 16.5931 7.78941C16.5931 5.51508 15.0541 4.5885 13.5242 4.45646C12.7251 2.12294 10.0546 2 9.51053 2C8.81389 2 5.38759 2.18441 5.27604 5.83153C4.5794 6.09789 3.64826 6.76039 3.64826 8.39955C3.64826 10.4553 5.11212 11.1861 6.47581 11.1861L9.62208 11.1656V11.8964H3.81901C3.72567 11.8987 3.63688 11.9351 3.57086 11.9989C3.50939 12.0649 3.47297 12.1537 3.47524 12.2425L3.48207 14.4143C2.42573 14.5646 2.01366 15.3978 2 16.1218V16.2721C2.00683 17.0711 2.48947 18 3.81901 18C5.15766 18 5.64713 17.0643 5.65396 16.2652V16.115C5.6403 15.391 5.23278 14.56 4.16961 14.4075L4.16278 12.5771H15.8258V14.4143C14.7695 14.5646 14.3574 15.3887 14.3369 16.1218V16.2721C14.3438 17.0711 14.8264 18 16.1651 18C17.4969 18 17.9841 17.0643 18 16.2652V16.115C17.9863 15.391 17.5743 14.5578 16.5179 14.4143Z" fill="#86888C"/>
</svg>
