<svg width="28" height="28" viewBox="0 0 28 28" fill="none" xmlns="http://www.w3.org/2000/svg">
<path fill-rule="evenodd" clip-rule="evenodd" d="M13.2275 20.642C12.6265 21.9875 11.7386 22.8651 10.8473 22.9983C10.178 23.0939 9.51204 22.7797 8.8632 22.0524L8.72319 21.8953L8.50805 21.8782C7.51088 21.7928 6.8518 21.4582 6.55128 20.8845C6.14832 20.1161 6.38736 18.9174 7.18988 17.671C8.22461 16.0591 11.6805 14.3073 13.1729 13.6926C13.5144 15.2088 14.0095 18.9038 13.2275 20.642ZM5.54729 12.7535C4.1335 12.1832 3.20805 11.3363 3.07486 10.4859C2.97241 9.85075 3.30708 9.21557 4.06861 8.59747L4.23253 8.46428L4.25302 8.25938C4.34181 7.31003 4.69355 6.68168 5.29458 6.39482C5.5507 6.27188 5.85805 6.21042 6.19613 6.21042C6.91327 6.21042 7.78066 6.48361 8.66855 7.00268C10.3624 7.9896 12.203 11.2782 12.8484 12.6988C11.2537 13.0267 7.37087 13.4979 5.54729 12.7535ZM13.8285 5.43864C14.4296 4.09315 15.3175 3.21209 16.2088 3.08232C16.2873 3.06866 16.3658 3.06525 16.4444 3.06525C17.0318 3.06525 17.6191 3.38967 18.1928 4.02826L18.3329 4.18535L18.548 4.20584C19.5452 4.29121 20.2042 4.62588 20.5048 5.19959C20.9077 5.96795 20.6687 7.1666 19.8628 8.41306C18.828 10.0249 15.3755 11.7768 13.8798 12.3915C13.5451 10.8752 13.0465 7.18026 13.8285 5.43864ZM21.5088 13.3272C22.9191 13.9009 23.8446 14.7478 23.9812 15.5947C24.0836 16.2299 23.749 16.8651 22.9908 17.4832L22.8235 17.6163L22.803 17.8212C22.7142 18.7706 22.3625 19.399 21.7581 19.6858C20.9521 20.0717 19.692 19.8429 18.3841 19.0745C16.7995 18.1559 15.1057 15.2464 14.3647 13.6994C14.3613 13.696 14.3613 13.6926 14.3579 13.6892C14.3066 13.5833 14.2486 13.4638 14.2076 13.375C15.8058 13.054 19.6852 12.5793 21.5088 13.3272ZM18.7563 23.4866C20.8087 25.1292 23.0899 26.0547 25.0774 26.0547C25.1662 26.0547 25.2584 26.0513 25.3472 26.0479C25.494 26.041 25.6374 25.9932 25.757 25.9181C26.0028 25.7644 26.0677 25.4468 25.9038 25.218C25.7535 25.0063 25.5213 25.02 25.2345 25.0404C23.4689 25.0985 21.3619 24.2516 19.4427 22.7115L19.3573 22.6432C17.684 21.3011 16.3932 19.5936 15.5497 17.6949C16.2497 18.634 17.0318 19.4775 17.8309 19.9419C18.8929 20.5669 19.9413 20.8845 20.8599 20.8845C21.3653 20.8845 21.8298 20.7888 22.2396 20.5942C22.8679 20.2937 23.6431 19.6209 23.8412 18.1183C25.0125 17.0939 25.1389 16.1035 25.033 15.441C24.8383 14.2253 23.7046 13.1154 21.9288 12.3949C20.6687 11.8826 18.7324 11.8553 17.0044 11.9885C18.4934 11.145 20.0608 10.0556 20.7745 8.94237C21.7888 7.37491 22.0381 5.84502 21.4575 4.7454C21.1434 4.14779 20.4365 3.41016 18.8588 3.21892C17.7796 2.10223 16.7415 1.97929 16.0483 2.08516C14.7711 2.27298 13.6066 3.3521 12.8519 5.04592C12.3123 6.24457 12.2816 8.08864 12.425 9.73123C11.5405 8.31402 10.3965 6.82511 9.2286 6.14553C7.5826 5.1791 5.97415 4.94005 4.82332 5.49328C4.19497 5.79379 3.41977 6.46654 3.22171 7.96911C2.05038 8.9936 1.92402 9.98393 2.02989 10.6464C2.22454 11.8622 3.3583 12.972 5.13749 13.6892C5.99806 14.0443 7.17963 14.1672 8.39194 14.1672C8.95199 14.1672 9.51546 14.1399 10.0618 14.0955C8.56952 14.939 7.00547 16.0284 6.28833 17.1417C5.27409 18.7091 5.0248 20.239 5.60534 21.3386C5.91952 21.9363 6.62641 22.6739 8.20412 22.8617C9.092 23.7837 9.95599 24.0262 10.6219 24.0262C10.7619 24.0262 10.8951 24.0125 11.018 23.9955C12.2952 23.8111 13.4597 22.7285 14.2144 21.0381C14.5388 20.3176 14.6754 19.3614 14.7062 18.3574C15.6146 20.2937 16.96 22.0387 18.6812 23.4183" fill="#86888C"/>
</svg>
