<svg width="20" height="20" viewBox="0 0 20 20" fill="none" xmlns="http://www.w3.org/2000/svg">
<path fill-rule="evenodd" clip-rule="evenodd" d="M16.9801 15.4488C17.1736 15.4488 17.333 15.2963 17.333 15.1073V7.36231H2.66705V15.1073C2.66705 15.2963 2.82413 15.4488 3.01992 15.4488H16.9801ZM3.01992 4.74421C2.82641 4.74421 2.66705 4.89902 2.66705 5.0857V6.71803H17.333V5.0857C17.333 4.89675 17.1759 4.74421 16.9801 4.74421H3.01992ZM16.9801 4.09766C17.5424 4.09766 18 4.54159 18 5.0857V15.1096C18 15.6537 17.5424 16.0977 16.9801 16.0977H3.01992C2.4576 16.0977 2 15.6537 2 15.1096V5.0857C2 4.54159 2.4576 4.09766 3.01992 4.09766H16.9801ZM5.85202 11.4761L7.4889 12.9423C7.62322 13.0629 7.63233 13.2678 7.50711 13.3999C7.44109 13.4682 7.35231 13.5023 7.26124 13.5023C7.18156 13.5023 7.0996 13.4727 7.03358 13.4158L5.13034 11.7106C5.06204 11.6492 5.02334 11.5627 5.02334 11.4716C5.02334 11.3805 5.06431 11.294 5.13261 11.2325L7.03586 9.55696C7.17245 9.43858 7.38418 9.44769 7.50711 9.57973C7.63233 9.71177 7.62094 9.91667 7.48435 10.0373L5.85202 11.4761ZM5.40808 6.22856C5.15083 6.22856 4.94365 6.02594 4.94365 5.78007C4.94365 5.53192 5.15083 5.3293 5.40808 5.3293C5.66534 5.3293 5.87023 5.52964 5.87023 5.78007C5.87023 6.02594 5.66306 6.22856 5.40808 6.22856ZM6.79909 6.22856C6.54183 6.22856 6.33466 6.02594 6.33466 5.78007C6.33466 5.53192 6.54183 5.3293 6.79909 5.3293C7.05635 5.3293 7.26352 5.52964 7.26352 5.78007C7.26352 6.02594 7.05635 6.22856 6.79909 6.22856ZM4.0148 6.22856C3.75754 6.22856 3.55037 6.02594 3.55037 5.78007C3.55037 5.53192 3.75754 5.3293 4.0148 5.3293C4.27205 5.3293 4.47923 5.52964 4.47923 5.78007C4.47923 6.02594 4.27205 6.22856 4.0148 6.22856ZM12.9254 9.55924L14.8287 11.2348C14.897 11.2963 14.938 11.3805 14.938 11.4739C14.938 11.5649 14.8993 11.6514 14.831 11.7129L12.9277 13.4181C12.864 13.475 12.782 13.5046 12.7001 13.5046C12.609 13.5046 12.5202 13.4705 12.4542 13.4022C12.329 13.2701 12.3381 13.0652 12.4724 12.9446L14.1116 11.4761L12.477 10.0396C12.3404 9.91894 12.329 9.71405 12.4542 9.582C12.5794 9.44996 12.7911 9.44086 12.9254 9.55924ZM10.8902 9.52281C11.0586 9.59566 11.1338 9.7869 11.0586 9.95082L9.51508 13.2906C9.46044 13.4113 9.33751 13.4818 9.21002 13.4818C9.16449 13.4818 9.11895 13.4727 9.07342 13.4522C8.90495 13.3794 8.82982 13.1882 8.90495 13.0242L10.4485 9.68445C10.5236 9.52281 10.7217 9.44996 10.8902 9.52281Z" fill="#86888C"/>
</svg>
