<svg width="20" height="20" viewBox="0 0 20 20" fill="none" xmlns="http://www.w3.org/2000/svg">
<path fill-rule="evenodd" clip-rule="evenodd" d="M15.663 7.55239H14.3746C14.37 7.55239 14.3655 7.55012 14.3609 7.55012H4.97126C4.96671 7.55012 4.96216 7.55239 4.95533 7.55239H3.66695V6.44384H15.663V7.55239ZM4.97126 9.23229H14.3609V8.21479H4.97126V9.23229ZM6.68986 15.8859H12.6401V9.89924H6.68986V15.8859ZM14.3427 17.5362H4.9872V16.5505H14.3427V17.5362ZM7.84848 2.8678L8.3265 3.34582L7.54119 4.12658L7.06317 3.65084L7.84848 2.8678ZM10.9943 3.34354L11.4723 2.86552L12.2576 3.64857L11.7796 4.12431L10.9943 3.34354ZM15.663 5.77917H13.3844V4.89597C13.3844 4.80719 13.348 4.72297 13.2865 4.66151L12.7357 4.11293C12.8563 3.98773 12.9269 3.82384 12.9269 3.65084C12.9269 3.47557 12.8563 3.30485 12.7311 3.18193L11.9458 2.39889C11.8206 2.27369 11.6499 2.20312 11.4746 2.20312C11.2971 2.20312 11.1286 2.27369 11.0034 2.39889L10.5231 2.87691C10.2636 3.1364 10.2636 3.55751 10.5231 3.81701L11.3084 4.59778C11.4382 4.72752 11.6089 4.79354 11.7796 4.79354C11.9503 4.79354 12.1211 4.72752 12.2508 4.59778L12.2645 4.58412L12.7175 5.03482V5.78144H6.61246V5.03482L7.06089 4.58867L7.07 4.59778C7.19974 4.72752 7.37047 4.79354 7.54119 4.79354C7.71191 4.79354 7.88263 4.72752 8.01238 4.59778L8.79769 3.81701C9.05719 3.55751 9.05719 3.1364 8.79769 2.87691L8.31967 2.39889C8.19448 2.27369 8.02376 2.20312 7.84848 2.20312C7.67093 2.20312 7.50021 2.27369 7.37502 2.39889L6.5897 3.18193C6.4645 3.30712 6.39394 3.47557 6.39394 3.65084C6.39394 3.82612 6.4645 3.99456 6.58742 4.11748L6.04112 4.66151C5.97738 4.72297 5.94323 4.80719 5.94323 4.89597V5.77917H3.66695C3.29819 5.77917 3 6.07508 3 6.44384V7.55239C3 7.91887 3.30047 8.21707 3.66695 8.21707H4.30431V9.23457C4.30431 9.60105 4.6025 9.89924 4.97126 9.89924H6.02518V15.8881H4.98947C4.62071 15.8881 4.32252 16.1841 4.32252 16.5528V17.5384C4.32252 17.9049 4.62071 18.2031 4.98947 18.2031H14.345C14.7138 18.2031 15.012 17.9072 15.012 17.5384V16.5528C15.012 16.1863 14.7138 15.8881 14.345 15.8881H13.3093V9.90152V9.89924H14.3632C14.732 9.89924 15.0302 9.60332 15.0302 9.23457V8.21707H15.6652C16.034 8.21707 16.3322 7.91887 16.3322 7.55239V6.44384C16.3299 6.07736 16.0317 5.77917 15.663 5.77917Z" fill="#86888C"/>
</svg>
