<svg width="28" height="28" viewBox="0 0 28 28" fill="none" xmlns="http://www.w3.org/2000/svg">
<path fill-rule="evenodd" clip-rule="evenodd" d="M21.9945 11.227H20.0619C20.0551 11.227 20.0482 11.2236 20.0414 11.2236H5.95689C5.95006 11.2236 5.94324 11.227 5.93299 11.227H4.00043V9.5642H21.9945V11.227ZM5.95689 13.7469H20.0414V12.2206H5.95689V13.7469ZM8.53478 23.7272H17.4601V14.7473H8.53478V23.7272ZM20.0141 26.2027H5.98079V24.7243H20.0141V26.2027ZM10.2727 4.20014L10.9898 4.91717L9.81178 6.08832L9.09475 5.3747L10.2727 4.20014ZM14.9915 4.91375L15.7085 4.19672L16.8865 5.37129L16.1694 6.0849L14.9915 4.91375ZM21.9945 8.56719H18.5766V7.24239C18.5766 7.10923 18.522 6.98289 18.4298 6.89071L17.6035 6.06783C17.7845 5.88003 17.8903 5.6342 17.8903 5.3747C17.8903 5.11179 17.7845 4.85571 17.5967 4.67133L16.4187 3.49677C16.2309 3.30897 15.9748 3.20312 15.7119 3.20312C15.4456 3.20312 15.1929 3.30897 15.0051 3.49677L14.2847 4.2138C13.8954 4.60304 13.8954 5.23471 14.2847 5.62395L15.4627 6.7951C15.6573 6.98972 15.9134 7.08874 16.1694 7.08874C16.4255 7.08874 16.6816 6.98972 16.8762 6.7951L16.8967 6.77461L17.5762 7.45067V8.5706H8.41869V7.45067L9.09134 6.78144L9.10499 6.7951C9.29962 6.98972 9.5557 7.08874 9.81178 7.08874C10.0679 7.08874 10.3239 6.98972 10.5186 6.7951L11.6965 5.62395C12.0858 5.23471 12.0858 4.60304 11.6965 4.2138L10.9795 3.49677C10.7917 3.30897 10.5356 3.20312 10.2727 3.20312C10.0064 3.20312 9.75032 3.30897 9.56253 3.49677L8.38455 4.67133C8.19676 4.85912 8.09091 5.11179 8.09091 5.3747C8.09091 5.63761 8.19676 5.89028 8.38114 6.07466L7.56167 6.89071C7.46607 6.98289 7.41485 7.10923 7.41485 7.24239V8.56719H4.00043C3.44729 8.56719 3 9.01106 3 9.5642V11.227C3 11.7767 3.4507 12.224 4.00043 12.224H4.95647V13.7503C4.95647 14.3 5.40376 14.7473 5.95689 14.7473H7.53777V23.7307H5.98421C5.43107 23.7307 4.98378 24.1745 4.98378 24.7277V26.2061C4.98378 26.7558 5.43107 27.2031 5.98421 27.2031H20.0175C20.5706 27.2031 21.0179 26.7593 21.0179 26.2061V24.7277C21.0179 24.1779 20.5706 23.7307 20.0175 23.7307H18.4639V14.7507V14.7473H20.0448C20.598 14.7473 21.0452 14.3034 21.0452 13.7503V12.224H21.9979C22.551 12.224 22.9983 11.7767 22.9983 11.227V9.5642C22.9949 9.01448 22.5476 8.56719 21.9945 8.56719Z" fill="#86888C"/>
</svg>
