<svg width="28" height="28" viewBox="0 0 28 28" fill="none" xmlns="http://www.w3.org/2000/svg">
<path d="M21.5156 14.3923C20.3887 14.3958 19.3028 14.8294 18.4867 15.6046L16.1953 13.583C16.8407 12.8147 17.1959 11.8449 17.2061 10.8444C17.2027 10.66 17.189 10.479 17.1549 10.298L20.597 9.28722C21.3244 10.6326 23.0044 11.1312 24.3465 10.4039C25.4802 9.78919 26.0402 8.47449 25.6953 7.23151C25.2855 5.75973 23.7591 4.89578 22.2873 5.30556C21.0546 5.64704 20.2145 6.79441 20.2624 8.07496C20.2589 8.17058 20.2589 8.26278 20.2624 8.35839L16.868 9.36917C16.028 7.13248 13.5352 6.00218 11.2985 6.84222C10.6258 7.09491 10.0248 7.51152 9.55354 8.05447L7.32026 6.0534C7.61052 5.62655 7.7676 5.12457 7.76418 4.60894C7.77101 3.17472 6.6134 2.00686 5.17918 2.00003C3.74496 1.9932 2.58393 3.15423 2.5771 4.58845C2.57027 6.02267 3.72789 7.19053 5.16211 7.19736C5.67774 7.20077 6.17972 7.05052 6.60998 6.76368L8.98327 8.78524C8.15006 10.2946 8.31738 12.1591 9.4067 13.4943L7.38856 15.5124C6.799 14.9394 6.00814 14.6206 5.18601 14.6246C3.42739 14.6246 2 16.0485 2 17.8037C2 18.6506 2.33807 19.4633 2.93907 20.0609C4.18206 21.3039 6.19338 21.3005 7.43636 20.0609C8.03737 19.4599 8.37202 18.6472 8.3686 17.7969C8.3686 17.2847 8.23884 16.7827 7.99298 16.332L10.1648 14.2011C10.916 14.8397 11.8654 15.1948 12.8522 15.2119C13.805 15.2051 14.7304 14.8841 15.4885 14.3036L17.831 16.3251C17.329 17.0661 17.0627 17.9369 17.0627 18.8316C17.0661 19.4838 17.2095 20.1292 17.4861 20.72L14.9626 21.8912C14.126 20.7336 12.5108 20.4741 11.3531 21.3073C10.438 21.9664 10.0589 23.1445 10.4107 24.2133C10.8512 25.5724 12.3127 26.3134 13.6684 25.8729C14.7372 25.5246 15.4577 24.5275 15.4543 23.404C15.4509 23.1991 15.427 22.9976 15.3826 22.7996L18.0291 21.5873C18.8657 22.6698 20.1565 23.3016 21.5224 23.305C23.9947 23.305 25.9958 21.3005 25.9958 18.8282C25.9958 16.3559 23.9913 14.3548 21.5224 14.3514C21.5258 14.3548 21.5156 14.3923 21.5156 14.3923ZM23.0522 6.24804C24.0357 6.24804 24.8279 7.04711 24.8279 8.02715C24.8279 9.01062 24.0289 9.80285 23.0488 9.80285C22.0654 9.80285 21.2731 9.00379 21.2731 8.02374C21.2731 7.04369 22.0688 6.24804 23.0522 6.24804ZM5.17235 6.18999C4.29816 6.18999 3.58788 5.4763 3.58788 4.60211C3.58788 3.72792 4.30158 3.01764 5.17577 3.01764C6.04995 3.01764 6.76023 3.73133 6.76023 4.60552V4.61235C6.76023 5.48313 6.05337 6.18999 5.18259 6.18658C5.17918 6.18999 5.17577 6.18999 5.17235 6.18999ZM12.8591 25.0226C11.9849 25.0294 11.2678 24.3226 11.2609 23.4484C11.2541 22.5742 11.961 21.8571 12.8352 21.8503C13.7094 21.8434 14.4265 22.5503 14.4333 23.4245V23.445C14.4333 24.3192 13.7298 25.0226 12.8591 25.0226ZM5.17235 20.0234C3.97376 20.0234 3.00054 19.0501 3.00054 17.8515C3.00054 16.6529 3.97376 15.6797 5.17235 15.6797C6.37095 15.6797 7.34416 16.6529 7.34416 17.8515C7.34416 19.0501 6.37436 20.0234 5.17235 20.0234ZM9.49549 10.858C9.49549 9.01062 10.9912 7.51493 12.8386 7.51493C14.686 7.51493 16.1817 9.01062 16.1817 10.858C16.1817 12.7054 14.686 14.2011 12.8386 14.2011C10.9946 14.2011 9.49549 12.702 9.49549 10.858ZM21.5156 22.3352C19.6033 22.3352 18.053 20.7814 18.053 18.8691C18.053 16.9569 19.6067 15.4065 21.519 15.4065C23.4313 15.4065 24.9816 16.9603 24.9816 18.8726C24.9782 20.7849 23.4279 22.3352 21.5156 22.3352Z" fill="#86888C"/>
</svg>
