<svg width="24" height="24" viewBox="0 0 24 24" fill="none" xmlns="http://www.w3.org/2000/svg">
<path d="M17.4983 21.8067C17.3334 21.8067 17.1997 21.6731 17.1997 21.5082V2.5774C17.1997 2.41246 17.3334 2.27881 17.4983 2.27881C17.6632 2.27881 17.7969 2.41246 17.7969 2.5774V21.511C17.7997 21.6731 17.6661 21.8067 17.4983 21.8067Z" fill="#86888C"/>
<path d="M19.1592 9.23732H17.6804C17.5155 9.23732 17.3818 9.10367 17.3818 8.93873C17.3818 8.77379 17.5155 8.64014 17.6804 8.64014H19.1592C19.3241 8.64014 19.4578 8.77379 19.4578 8.93873C19.4578 9.10367 19.3241 9.23732 19.1592 9.23732Z" fill="#86888C"/>
<path d="M16.8868 22H7.75842C6.23703 22 5 20.763 5 19.2416V4.47689C5 3.1119 6.1119 2 7.4769 2H16.8868C18.303 2 19.4576 3.15171 19.4576 4.57074V19.4321C19.4576 20.8454 18.303 22 16.8868 22ZM7.4769 2.59718C6.44177 2.59718 5.60003 3.43893 5.60003 4.47405V19.2387C5.60003 20.4303 6.56974 21.3971 7.75842 21.3971H16.8868C17.9731 21.3971 18.8575 20.5127 18.8575 19.4264V4.57074C18.8575 3.48443 17.9731 2.60003 16.8868 2.60003H7.4769V2.59718Z" fill="#86888C"/>
<path d="M7.56778 16.4661C7.48531 16.4661 7.40569 16.4348 7.34881 16.3751C7.29194 16.3182 7.25781 16.2386 7.25781 16.1561V15.1523C7.25781 14.4186 7.48816 13.7902 7.92325 13.338C8.39815 12.8432 9.09771 12.5844 9.95083 12.5844H12.9453C13.7984 12.5844 14.498 12.846 14.9729 13.338C15.408 13.793 15.6383 14.4186 15.6383 15.1523V16.1561C15.6383 16.3268 15.499 16.4661 15.3283 16.4661H7.56778ZM9.95083 13.2015C8.63134 13.2015 7.87775 13.9124 7.87775 15.1523V15.8462H15.0212V15.1523C15.0212 13.9124 14.2648 13.2015 12.9481 13.2015H9.95083ZM11.4495 11.7483C9.92808 11.7483 9.08918 10.9094 9.08918 9.39089C9.08918 7.86665 9.92808 7.0249 11.4495 7.0249C12.9737 7.0249 13.8155 7.8638 13.8155 9.39089C13.8126 10.9094 12.9737 11.7483 11.4495 11.7483ZM11.4495 7.62209C10.8665 7.62209 10.4257 7.76427 10.1385 8.04296C9.83993 8.33018 9.68921 8.78233 9.68921 9.38805C9.68921 9.99376 9.83993 10.4459 10.1357 10.7303C10.4229 11.0061 10.8637 11.1483 11.4466 11.1483C12.0296 11.1483 12.4732 11.009 12.7633 10.7303C13.0619 10.4431 13.2126 9.99092 13.2126 9.38805C13.2126 8.78233 13.0619 8.33018 12.7633 8.04296C12.4732 7.76427 12.0324 7.62209 11.4495 7.62209ZM19.119 15.3599H17.6403C17.4754 15.3599 17.3417 15.2262 17.3417 15.0613C17.3417 14.8964 17.4754 14.7627 17.6403 14.7627H19.119C19.284 14.7627 19.4176 14.8964 19.4176 15.0613C19.4176 15.2262 19.284 15.3599 19.119 15.3599Z" fill="#86888C"/>
</svg>
