<svg width="40" height="40" viewBox="0 0 40 40" fill="none" xmlns="http://www.w3.org/2000/svg">
<path d="M29.4969 37.6522C29.2001 37.6522 28.9595 37.4117 28.9595 37.1148V3.03942C28.9595 2.74253 29.2001 2.50195 29.4969 2.50195C29.7938 2.50195 30.0344 2.74253 30.0344 3.03942V37.1199C30.0395 37.4117 29.7989 37.6522 29.4969 37.6522Z" fill="#86888C"/>
<path d="M32.4863 15.0271H29.8246C29.5277 15.0271 29.2871 14.7865 29.2871 14.4896C29.2871 14.1927 29.5277 13.9521 29.8246 13.9521H32.4863C32.7832 13.9521 33.0238 14.1927 33.0238 14.4896C33.0238 14.7865 32.7832 15.0271 32.4863 15.0271Z" fill="#86888C"/>
<path d="M28.3963 38H11.9652C9.22665 38 7 35.7734 7 33.0348V6.45841C7 4.00142 9.00142 2 11.4584 2H28.3963C30.9454 2 33.0236 4.07308 33.0236 6.62733V33.3778C33.0236 35.9218 30.9454 38 28.3963 38ZM11.4584 3.07493C9.59519 3.07493 8.08005 4.59008 8.08005 6.45329V33.0297C8.08005 35.1745 9.82554 36.9148 11.9652 36.9148H28.3963C30.3516 36.9148 31.9436 35.3229 31.9436 33.3676V6.62733C31.9436 4.67197 30.3516 3.08005 28.3963 3.08005H11.4584V3.07493Z" fill="#86888C"/>
<path d="M11.6224 28.0391C11.474 28.0391 11.3306 27.9828 11.2283 27.8753C11.1259 27.7729 11.0645 27.6296 11.0645 27.4811V25.6742C11.0645 24.3536 11.4791 23.2224 12.2622 22.4085C13.1171 21.5178 14.3763 21.052 15.9119 21.052H21.3019C22.8375 21.052 24.0967 21.523 24.9516 22.4085C25.7347 23.2275 26.1493 24.3536 26.1493 25.6742V27.4811C26.1493 27.7883 25.8985 28.0391 25.5914 28.0391H11.6224ZM15.9119 22.1628C13.5368 22.1628 12.1803 23.4425 12.1803 25.6742V26.9232H25.0386V25.6742C25.0386 23.4425 23.677 22.1628 21.307 22.1628H15.9119ZM18.6095 19.5471C15.8709 19.5471 14.3609 18.0371 14.3609 15.3037C14.3609 12.5601 15.8709 11.0449 18.6095 11.0449C21.3531 11.0449 22.8682 12.5549 22.8682 15.3037C22.8631 18.0371 21.3531 19.5471 18.6095 19.5471ZM18.6095 12.1199C17.5601 12.1199 16.7667 12.3758 16.2497 12.8774C15.7123 13.3944 15.441 14.2083 15.441 15.2986C15.441 16.3889 15.7123 17.2027 16.2446 17.7146C16.7616 18.2111 17.555 18.4671 18.6043 18.4671C19.6537 18.4671 20.4522 18.2163 20.9743 17.7146C21.5118 17.1976 21.7831 16.3838 21.7831 15.2986C21.7831 14.2083 21.5118 13.3944 20.9743 12.8774C20.4522 12.3758 19.6588 12.1199 18.6095 12.1199ZM32.4147 26.0479H29.7529C29.456 26.0479 29.2155 25.8073 29.2155 25.5104C29.2155 25.2136 29.456 24.973 29.7529 24.973H32.4147C32.7115 24.973 32.9521 25.2136 32.9521 25.5104C32.9521 25.8073 32.7115 26.0479 32.4147 26.0479Z" fill="#86888C"/>
</svg>
