<svg width="20" height="20" viewBox="0 0 20 20" fill="none" xmlns="http://www.w3.org/2000/svg">
<path fill-rule="evenodd" clip-rule="evenodd" d="M16.7305 14.5608C17.1205 14.5558 17.7763 14.3993 17.7763 13.4276C17.7763 12.456 17.1304 12.3044 16.7454 12.3019L16.5392 12.292C16.5118 13.1145 16.4448 13.8675 16.3156 14.5384C16.3876 14.5459 16.5789 14.5608 16.6112 14.5608H16.7305ZM15.6473 9.92133C15.9181 9.92133 16.1293 9.84927 16.2758 9.70514C16.4274 9.55604 16.5044 9.33488 16.5044 9.04662C16.5044 8.76085 16.4274 8.53968 16.2758 8.3881C16.1293 8.24397 15.9181 8.17191 15.6473 8.17191C15.5703 8.17191 15.4709 8.18185 15.4486 8.1396C15.4138 8.07251 15.4635 7.97808 15.4635 7.8588C15.4635 7.43387 15.3492 7.10337 15.1206 6.8822C14.902 6.66849 14.5915 6.55915 14.189 6.55915C13.7866 6.55915 13.4736 6.66849 13.2599 6.8822C13.1556 6.98409 13.0786 7.11082 13.0239 7.25743C13.014 7.28725 13.0065 7.30713 12.9767 7.32701C12.8947 7.3792 12.7954 7.3295 12.686 7.3295C12.2861 7.3295 11.9731 7.43635 11.7544 7.65006C11.6874 7.71467 11.6327 7.79419 11.5855 7.87868C11.5756 7.89856 11.5731 7.90353 11.5532 7.90601C11.5358 7.90601 11.5284 7.90104 11.5135 7.88613C11.3197 7.69479 11.0365 7.59788 10.6763 7.59788C10.316 7.59788 10.0353 7.69479 9.83907 7.88613C9.79186 7.93335 9.75957 8.00044 9.7223 8.06008C9.7223 8.06008 9.68256 8.11227 9.61051 8.09239C9.55586 8.07996 9.5335 8.01535 9.5335 8.01535C9.49872 7.79667 9.43164 7.60533 9.29749 7.47611C9.12359 7.30713 8.8702 7.21767 8.54972 7.21767C8.22677 7.21767 7.97586 7.30713 7.80196 7.47611C7.74233 7.53575 7.69513 7.60782 7.65538 7.68734L7.64793 7.70473C7.64793 7.70473 7.61067 7.7594 7.54856 7.77928C7.50633 7.79419 7.46161 7.79171 7.43428 7.78425C7.3051 7.74449 7.18089 7.67988 7.00947 7.67988C6.74117 7.67988 6.53001 7.75195 6.38592 7.89607C6.30145 7.97808 6.29151 8.07499 6.18221 8.14457C6.12755 8.17936 6.07538 8.19427 6.00085 8.19427C5.73255 8.19427 5.52387 8.26634 5.3773 8.41046C5.32265 8.46513 5.27048 8.52229 5.19595 8.55211C5.09658 8.58938 5.04689 8.5372 4.91274 8.5372C4.68915 8.5372 4.51526 8.59684 4.39601 8.71612C4.33639 8.77576 4.32397 8.85528 4.24198 8.89255C4.16 8.93231 4.07057 8.89007 3.95878 8.89007C3.73768 8.89007 3.56378 8.95219 3.44453 9.07147C3.32032 9.19572 3.25573 9.37464 3.25573 9.61071V9.94867L5.99837 9.93127H7.98082C8.00567 9.93127 8.02554 9.92133 8.0479 9.92133H9.43164C9.45649 9.92382 9.47388 9.93127 9.5012 9.93127H11.4588L12.686 9.9263H15.6473V9.92133ZM15.8684 11.6434C15.8684 11.5813 15.8684 11.0197 15.8709 10.637H3.54887V11.5117C3.56626 15.843 4.47302 17.3092 7.13865 17.3092C7.28523 17.3092 7.42186 17.2992 7.5585 17.2918H11.8414C12.1594 17.3092 12.4302 17.3117 12.701 17.2918H12.8078C12.8301 17.2843 12.8525 17.2794 12.8749 17.2769C15.0238 17.0507 15.8361 15.525 15.8684 11.6434ZM2.99239 14.5484C3.03711 14.5459 3.07437 14.5459 3.11661 14.5384C2.97749 13.8476 2.91041 13.1419 2.88308 12.292C2.83588 12.297 2.77874 12.2995 2.71664 12.2995C2.33157 12.3019 1.68566 12.4535 1.68566 13.4252C1.68566 14.3968 2.33903 14.5533 2.72906 14.5583H2.85079C2.88557 14.5583 2.93277 14.5558 2.99239 14.5484ZM16.7478 11.6061C17.5354 11.6111 18.4545 12.0957 18.4545 13.4252C18.4545 14.7546 17.5304 15.2417 16.7379 15.2541L16.5938 15.2516C16.5466 15.2516 16.251 15.2292 16.1417 15.2193C15.692 16.7501 14.7878 17.7366 13.0512 17.9528C13.0115 17.9727 12.9668 17.9826 12.9221 17.9826H12.7233C12.5941 17.9925 12.4426 18 12.2811 18C12.1196 18 11.9681 17.9901 11.819 17.9801H7.58086C7.45167 17.9901 7.30013 17.9975 7.13617 17.9975C4.91274 17.9975 3.80475 16.9588 3.28305 15.2168L3.10915 15.2268C2.98494 15.2442 2.90793 15.2491 2.85824 15.2491L2.71415 15.2516C1.92415 15.2392 1 14.7521 1 13.4227C1 12.0907 1.91918 11.6086 2.7067 11.6037H2.70918C2.76632 11.6037 2.80856 11.6037 2.86569 11.6111C2.86569 11.5639 2.86321 11.5564 2.86321 11.5092V10.4879C2.83588 10.4655 2.80359 10.4556 2.78123 10.4308C2.65205 10.3015 2.58249 10.1226 2.58249 9.93873V9.60077C2.58249 9.06401 2.79613 8.73848 2.97749 8.56205C3.14642 8.39307 3.45447 8.19427 3.94636 8.18682C4.12274 8.02032 4.43079 7.83146 4.91522 7.83146C4.9351 7.83146 4.95746 7.83146 4.9823 7.83395C5.15372 7.68734 5.42202 7.53824 5.81453 7.49848C5.84683 7.45872 5.87912 7.42393 5.91639 7.38665C6.10768 7.19779 6.45051 6.97663 7.01196 6.97663C7.11133 6.97663 7.20821 6.98409 7.30262 6.999C7.31255 6.98906 7.32249 6.97912 7.32994 6.96918C7.53862 6.76292 7.92369 6.51443 8.54972 6.51443C9.17576 6.51443 9.56083 6.76044 9.76951 6.96669C9.79683 6.99154 9.82168 7.02136 9.849 7.05367C10.0651 6.95924 10.3359 6.89463 10.6763 6.89463C10.9719 6.89463 11.2178 6.94433 11.4191 7.02136C11.7271 6.77783 12.1147 6.64613 12.5767 6.62873C12.6388 6.53679 12.7084 6.45479 12.7829 6.37527C13.1332 6.03482 13.6027 5.85839 14.189 5.85839C14.7728 5.85839 15.2449 6.03234 15.5927 6.37527C15.8063 6.58649 16.0547 6.9493 16.1243 7.53327C16.415 7.61279 16.6187 7.75691 16.7478 7.88613C16.9491 8.08245 17.1876 8.44277 17.1876 9.04413C17.1876 9.64798 16.9491 10.0058 16.7478 10.2046C16.6957 10.2543 16.6311 10.3065 16.5541 10.3587C16.5541 10.6271 16.5541 11.5142 16.5516 11.5962L16.7454 11.6061H16.7478ZM9.10124 2.75962C8.18205 3.02303 8.21435 3.70888 8.3162 4.09406L8.3485 4.21333C8.35844 4.24315 8.38328 4.32019 8.40812 4.37486L10.5396 3.76107C10.5396 3.76107 10.4825 3.59954 10.4452 3.46536C10.3334 3.09012 10.0179 2.49373 9.10124 2.75962ZM3.17623 6.59146C3.02717 6.59146 2.89302 6.49206 2.8483 6.33799C2.79862 6.1541 2.90296 5.96027 3.08431 5.91058L7.74979 4.56869C7.72494 4.50656 7.70755 4.45438 7.69513 4.4171L7.65538 4.27297C7.44919 3.49518 7.65787 2.45397 8.91243 2.09116C10.1695 1.73084 10.87 2.50367 11.0911 3.27153C11.1309 3.4082 11.1657 3.57966 11.1657 3.57966L15.7293 2.2676C15.9082 2.2179 16.097 2.32227 16.1491 2.50615C16.2013 2.69004 16.0945 2.88139 15.9131 2.93357L3.26566 6.57655C3.23834 6.58649 3.20604 6.59146 3.17623 6.59146Z" fill="#86888C"/>
</svg>
