<svg width="24" height="24" viewBox="0 0 24 24" fill="none" xmlns="http://www.w3.org/2000/svg">
<path fill-rule="evenodd" clip-rule="evenodd" d="M11.7291 16.5517L2.99886 12.0196L5.20584 10.8628L11.2716 14.0118C11.4166 14.0872 11.5701 14.1236 11.7291 14.1236C11.8826 14.1236 12.0388 14.0872 12.1783 14.0146L18.3612 10.86L20.6101 12.0196L11.7291 16.5517ZM20.6101 15.4564L11.7291 19.9885L2.99886 15.4564L5.20584 14.2996L11.2716 17.4514C11.4166 17.5269 11.5701 17.5632 11.7291 17.5632C11.8826 17.5632 12.0388 17.5269 12.1783 17.457L18.3612 14.2996L20.6101 15.4564ZM11.7291 4.01149L20.6101 8.58274L11.7291 13.1177L2.99886 8.58274L11.7291 4.01149ZM21.6089 12.0224C21.6089 11.6423 21.3969 11.2903 21.0621 11.1198L19.4661 10.2984L21.0593 9.48525C21.3969 9.31481 21.6061 8.96274 21.6089 8.58274C21.6089 8.20273 21.3969 7.85346 21.0621 7.68022L12.1811 3.10897C12.0388 3.03632 11.8826 3 11.7291 3C11.5701 3 11.4139 3.03632 11.2688 3.11456L2.54128 7.68581C2.20926 7.85905 2 8.20553 2 8.58553C2 8.96274 2.21205 9.30922 2.54407 9.48246L4.11491 10.2984L2.54128 11.1226C2.20926 11.2987 2 11.6451 2 12.0224C2 12.3996 2.21205 12.746 2.54407 12.9193L4.11491 13.7352L2.54128 14.5595C2.20926 14.7327 2 15.082 2 15.4592C2 15.8364 2.21205 16.1829 2.54407 16.3561L11.2716 20.8882C11.4166 20.9609 11.5701 21 11.7291 21C11.8826 21 12.0388 20.9637 12.1783 20.891L21.0593 16.3589C21.3969 16.1857 21.6061 15.8364 21.6089 15.4564C21.6089 15.0764 21.3969 14.7271 21.0621 14.5539L19.4661 13.7324L21.0593 12.9193C21.3969 12.7488 21.6089 12.4024 21.6089 12.0224Z" fill="#86888C"/>
</svg>
