<svg width="40" height="40" viewBox="0 0 40 40" fill="none" xmlns="http://www.w3.org/2000/svg">
<path fill-rule="evenodd" clip-rule="evenodd" d="M12.6714 23.3166C12.6714 22.9017 13.0095 22.5635 13.4245 22.5635C13.8395 22.5635 14.1776 22.9017 14.1776 23.3166V30.5812C14.1776 30.9961 13.8395 31.3343 13.4245 31.3343C13.0095 31.3343 12.6714 30.9961 12.6714 30.5812V23.3166ZM13.4296 32.2308C13.8292 32.2308 14.1571 32.5536 14.1571 32.9583C14.1571 33.3579 13.8344 33.6858 13.4296 33.6858C13.03 33.6858 12.7021 33.3579 12.7021 32.9583C12.7021 32.5587 13.03 32.2308 13.4296 32.2308ZM36.5041 15.8779V9.26397C35.751 9.86337 34.7161 10.3603 33.4046 10.7497C31.2119 11.4105 28.343 11.7692 25.305 11.7692C22.267 11.7692 19.398 11.4105 17.19 10.7497C15.8682 10.3449 14.8334 9.848 14.0649 9.2486V15.55C14.0803 15.55 14.0956 15.5654 14.111 15.5654C14.3979 15.6986 14.6233 15.924 14.7565 16.2109L15.192 17.0818C15.2073 17.0818 15.2073 17.0972 15.2227 17.0972C15.8682 17.5019 16.6828 17.8605 17.6408 18.1474C19.6849 18.7622 22.4207 19.1054 25.305 19.1054C28.1893 19.1054 30.9199 18.7622 32.9691 18.1474C35.0132 17.5326 36.1249 16.6002 36.5041 15.8779ZM36.5041 24.7613V18.0706C35.71 18.6853 34.6546 19.213 33.4046 19.587C31.2119 20.2479 28.343 20.6065 25.305 20.6065C22.267 20.6065 19.398 20.2479 17.2053 19.587C16.8928 19.4845 16.5855 19.3821 16.2729 19.2694L20.4483 27.6405C21.9698 27.8659 23.6041 27.9838 25.305 27.9838C28.1893 27.9838 30.925 27.6405 32.9691 27.0257C35.0132 26.411 36.1249 25.4683 36.5041 24.7613ZM36.5041 32.9071V26.954C35.71 27.5688 34.6546 28.0965 33.4046 28.4705C31.2119 29.116 28.343 29.49 25.305 29.49C23.9064 29.49 22.5539 29.4182 21.2628 29.2492L24.7056 36.1653C24.7978 36.3293 24.8388 36.524 24.8388 36.7033H25.2742C28.1585 36.7033 30.8789 36.3549 32.9691 35.7401C35.3155 35.0383 36.5041 34.0803 36.5041 32.9071ZM3.57791 36.6008L23.2762 36.6725L13.5116 17.0664L3.57791 36.6008ZM17.6152 4.65831C15.6479 5.25771 14.4594 6.05179 14.1571 6.96882C14.1571 6.98419 14.1725 6.99956 14.1725 7.00981C14.485 7.92684 15.6735 8.72092 17.6254 9.30495C19.6849 9.93509 22.4207 10.263 25.305 10.263C28.1893 10.263 30.9045 9.93509 32.964 9.30495C34.8749 8.73629 36.0583 7.96783 36.4016 7.08665C36.4016 7.05591 36.417 7.05591 36.4323 7.04054C36.1506 6.06716 34.9927 5.26795 32.9486 4.65831C30.8943 4.04353 28.1739 3.70029 25.2742 3.70029C22.3899 3.70029 19.6696 4.04353 17.6152 4.65831ZM33.3943 3.21871C36.4579 4.146 38.0051 5.59071 38.0051 7.50675V32.9071C38.0051 34.8282 36.4579 36.2678 33.3943 37.1797C31.1863 37.8406 28.2969 38.1992 25.2794 38.1992C24.9771 38.1992 23.9422 38.1992 23.64 38.1839C23.5939 38.1839 23.5375 38.1838 23.4914 38.1685H23.4453L3.38324 38.1019C3.02462 38.1019 2.69162 37.9687 2.42522 37.7125C2.15369 37.4564 2 37.1029 2 36.734C2 36.524 2.04611 36.2832 2.16394 36.0731L12.2616 16.1955C12.3282 16.0418 12.4306 15.9086 12.5638 15.8062V7.50675C12.5638 7.19424 12.6099 6.90734 12.6817 6.62045V6.60508C13.1171 5.13475 14.6233 3.9923 17.1746 3.21359C19.3724 2.55784 22.2567 2.19922 25.2742 2.19922C28.3122 2.19922 31.1965 2.55784 33.3943 3.21871Z" fill="#86888C"/>
</svg>
