<svg width="20" height="20" viewBox="0 0 20 20" fill="none" xmlns="http://www.w3.org/2000/svg">
<path fill-rule="evenodd" clip-rule="evenodd" d="M15.7579 16.9072C14.8381 17.1827 13.6292 17.333 12.3521 17.333C11.0772 17.333 9.86601 17.1827 8.94854 16.9072C7.90585 16.5931 7.3754 16.1673 7.3754 15.6437V14.5874C8.32019 14.7012 9.27409 14.4667 10.055 13.9249C10.0937 13.9499 10.1392 13.9681 10.1847 13.975C10.8677 14.0729 11.5985 14.1229 12.3612 14.1229C13.7089 14.1229 14.9861 13.9636 15.9582 13.6699C16.5092 13.506 16.9736 13.2715 17.331 12.9983V15.6437C17.3287 16.1696 16.8006 16.5931 15.7579 16.9072ZM7.82617 7.37507C9.64063 7.37735 11.1113 8.84804 11.1136 10.6625C11.1113 12.4769 9.64063 13.9476 7.82617 13.9499C6.01171 13.9476 4.54103 12.4769 4.53875 10.6625C4.54103 8.84804 6.01171 7.37735 7.82617 7.37507ZM7.37313 5.12806C7.71006 5.39442 8.17222 5.61981 8.76413 5.79966C9.73852 6.09106 11.0157 6.2527 12.3589 6.2527C13.7044 6.2527 14.9815 6.09106 15.9559 5.79966C16.5456 5.62208 16.9963 5.40581 17.3287 5.14627V8.08082C17.1603 8.39499 16.6708 8.81389 15.7647 9.08708C14.8518 9.36255 13.6429 9.51281 12.3521 9.51281C12.2519 9.51053 11.8694 9.51281 11.6031 9.49687C11.0885 7.84178 9.55867 6.71258 7.82617 6.7103C7.67364 6.7103 7.5211 6.72168 7.37313 6.73762V5.12806ZM8.94626 3.09277C9.8569 2.8173 11.0681 2.66705 12.3498 2.66705C13.6361 2.66705 14.845 2.8173 15.7556 3.09277C16.6571 3.36369 17.1739 3.71884 17.2969 4.14912C17.2946 4.15595 17.2878 4.1605 17.2832 4.16961C17.1329 4.56346 16.6048 4.90723 15.7601 5.16221C14.8472 5.4354 13.6384 5.58793 12.3566 5.58793C11.0749 5.58793 9.86601 5.43768 8.95309 5.16221C8.0857 4.9004 7.55525 4.54525 7.41866 4.13773C7.41638 4.13091 7.41183 4.12635 7.40955 4.11952C7.54842 3.70973 8.0766 3.35458 8.94626 3.09277ZM11.7806 10.6602C11.7806 10.494 11.767 10.3301 11.7465 10.1685C11.9878 10.1753 12.2473 10.1776 12.3543 10.1776H12.3635C13.7112 10.1776 14.9861 10.0159 15.9605 9.72453C16.5114 9.55834 16.9781 9.32612 17.3333 9.05293V12.0262C17.1648 12.3381 16.6731 12.7592 15.7693 13.0302C14.8586 13.3034 13.6497 13.4559 12.3657 13.4559C11.7897 13.4559 11.2411 13.4172 10.7129 13.3603C11.3959 12.6295 11.7784 11.6642 11.7806 10.6602ZM15.9491 2.45304C14.9793 2.16164 13.6998 2 12.3498 2C11.002 2 9.72486 2.16164 8.75275 2.45304C7.62128 2.79454 6.95195 3.29994 6.76299 3.95788V3.96016C6.72657 4.08765 6.70836 4.22197 6.70836 4.35401V6.87194C5.07147 7.35686 3.87398 8.8708 3.87398 10.6602C3.87398 11.6824 4.26783 12.6113 4.90756 13.3125L2.09367 16.1241C1.96618 16.2561 1.96846 16.4678 2.10278 16.5953C2.23254 16.7205 2.43744 16.7205 2.56493 16.5953L5.39248 13.7701C5.78405 14.0774 6.23027 14.3096 6.70836 14.4508V15.6437C6.70836 16.4974 7.39589 17.1372 8.75503 17.547C9.73624 17.8384 11.0134 18 12.3521 18C13.693 18 14.9702 17.8384 15.9514 17.5447C17.3105 17.1349 17.9981 16.4952 17.9981 15.6437V4.35629C17.9958 3.50256 17.3082 2.86283 15.9491 2.45304Z" fill="#86888C"/>
</svg>
