<svg width="20" height="20" viewBox="0 0 20 20" fill="none" xmlns="http://www.w3.org/2000/svg">
<path fill-rule="evenodd" clip-rule="evenodd" d="M7.09193 13.9523C8.14126 13.9523 8.43034 13.5677 8.43034 12.1678C8.43034 11.2937 8.30287 10.8271 8.00241 10.6018C7.80893 10.4561 7.51075 10.3855 7.09421 10.3855C6.67311 10.3855 6.37493 10.4584 6.17917 10.6063C5.88327 10.8317 5.7558 11.3006 5.7558 12.1678C5.75352 13.5677 6.04032 13.9523 7.09193 13.9523ZM7.09421 9.34303C6.186 9.34303 6.186 9.54561 6.186 9.80055C6.186 9.82559 6.18828 9.83924 6.19055 9.85973C6.44321 9.76868 6.73912 9.7186 7.09193 9.7186C7.44929 9.7186 7.7452 9.76868 7.99786 9.86201C8.00013 9.84152 8.00241 9.82559 8.00241 9.80055C8.00241 9.54334 8.00241 9.34303 7.09421 9.34303ZM9.5525 11.5828C9.73688 11.5828 9.88711 11.7308 9.88711 11.9151V12.4387C9.88711 12.623 9.73688 12.771 9.55478 12.771C9.37041 12.771 9.22018 12.623 9.22018 12.4387V12.2452H9.09499C9.09044 12.6686 9.05174 13.0441 8.96069 13.3696L9.47967 13.5267C9.62534 13.5722 9.72322 13.7111 9.71639 13.8636L9.67314 14.6534C9.66404 14.831 9.51609 14.9698 9.34082 14.9698H9.32261C9.13824 14.9607 8.99711 14.8036 9.00622 14.6193L9.03353 14.0889L8.68072 13.9819C8.38481 14.3825 7.89315 14.6147 7.09193 14.6147C6.28615 14.6147 5.79449 14.3825 5.49859 13.9797L5.13439 14.0889L5.16171 14.6193C5.17081 14.8014 5.03197 14.9584 4.84759 14.9698H4.82711C4.64956 14.9698 4.50389 14.831 4.49478 14.6557L4.45381 13.8658C4.44471 13.7133 4.54258 13.5745 4.68826 13.529L5.21861 13.3696C5.12984 13.0441 5.09115 12.6708 5.08659 12.2475H4.9614V12.4387C4.9614 12.623 4.81117 12.771 4.62908 12.771C4.44471 12.771 4.29448 12.623 4.29448 12.4387V11.9129C4.29448 11.7285 4.44471 11.5805 4.6268 11.5805H5.1048C5.13212 11.255 5.19813 10.9409 5.32104 10.661L4.68598 10.4698C4.54031 10.4242 4.44243 10.2854 4.45153 10.1329L4.49251 9.34303C4.50161 9.15866 4.65639 9.00615 4.84304 9.02664C5.02741 9.03574 5.16854 9.1928 5.15943 9.37717L5.13212 9.90753L5.53501 10.0282C5.52363 9.95305 5.5168 9.87566 5.5168 9.79827C5.5168 8.67383 6.62076 8.67383 7.09421 8.67383C7.56538 8.67383 8.66934 8.67383 8.66934 9.79827C8.66934 9.87794 8.66251 9.95078 8.65113 10.0236L9.03353 9.90753L9.00622 9.37717C8.99711 9.1928 9.13824 9.03574 9.32033 9.02664C9.49788 9.01071 9.65493 9.14273 9.67087 9.32255V9.34303L9.71412 10.1329C9.72094 10.2854 9.62534 10.4242 9.47739 10.4698L8.85371 10.6587C8.9789 10.9386 9.04491 11.255 9.07223 11.5828H9.5525ZM7.06917 10.9956C7.25354 10.9956 7.40377 11.1435 7.40377 11.3279V13.2945C7.40377 13.4789 7.25354 13.6291 7.06917 13.6291C6.88479 13.6291 6.73457 13.4789 6.73457 13.2945V11.3279C6.73684 11.1458 6.88479 10.9956 7.06917 10.9956ZM17.3303 7.75197V5.02052C17.0139 5.25952 16.5905 5.45983 16.0533 5.62144C15.1315 5.89914 13.9205 6.05164 12.6436 6.05164C11.3666 6.05164 10.158 5.89914 9.23384 5.62372C8.68982 5.45983 8.25962 5.25497 7.94095 5.01369V6.61614C8.67389 6.77092 9.18376 7.1078 9.65038 7.41509C10.2945 7.84074 10.7999 8.17534 11.7786 8.02511C11.8788 8.01145 11.9789 8.03649 12.0563 8.10022C12.1292 8.16396 12.1815 8.25273 12.1838 8.35061C12.1838 8.39158 12.1838 8.66928 12.1815 9.08354C12.3363 9.0881 12.4888 9.09492 12.6459 9.09492C13.8591 9.09492 15.0017 8.95152 15.8621 8.69431C16.7112 8.43483 17.1687 8.0456 17.3303 7.75197ZM17.3303 11.4758V8.71252C16.9957 8.9629 16.5632 9.17459 16.0533 9.3271C15.1315 9.60479 13.9205 9.7573 12.6436 9.7573C12.4843 9.7573 12.3272 9.7482 12.1701 9.74364C12.1565 10.6496 12.1201 11.8286 12.0358 12.7938C12.2361 12.8029 12.4365 12.8142 12.6436 12.8142C13.8545 12.8142 14.9972 12.6708 15.8599 12.4136C16.7089 12.1564 17.171 11.7672 17.3303 11.4758ZM17.3303 14.8947V12.4364C16.9957 12.6868 16.5632 12.8985 16.0533 13.051C15.1292 13.3287 13.9205 13.4812 12.6436 13.4812C12.4137 13.4812 12.1906 13.4675 11.9676 13.4584C11.9516 13.5859 11.9334 13.7042 11.9152 13.8135C11.7627 14.683 10.9615 15.5298 10.0647 16.2308C10.8203 16.3879 11.7081 16.4744 12.6345 16.4744C13.8431 16.4744 14.9858 16.331 15.853 16.0715C16.8341 15.7779 17.3303 15.3818 17.3303 14.8947ZM7.09193 17.2961C8.29376 16.7065 11.0138 15.1041 11.2574 13.6997C11.287 13.5358 11.3097 13.3446 11.3325 13.1375C11.3325 13.1238 11.3257 13.1079 11.3279 13.0942C11.3302 13.076 11.3393 13.0601 11.3439 13.0419C11.4509 11.9789 11.4918 10.4948 11.5055 9.48188C11.4987 9.45001 11.4896 9.41815 11.4918 9.38628C11.4918 9.36352 11.5009 9.34531 11.5078 9.32255C11.51 9.08582 11.5123 8.87641 11.5123 8.71708C10.4926 8.7717 9.87573 8.36426 9.27936 7.97048C8.67844 7.57442 8.10939 7.19885 7.09421 7.19657H7.08965C6.07219 7.19657 5.50314 7.57214 4.90222 7.97048C4.29903 8.36882 3.68445 8.76943 2.66927 8.72163C2.67382 9.71633 2.70796 12.4455 2.92875 13.6997C3.17458 15.1018 5.89009 16.7043 7.09193 17.2961ZM9.41593 3.06754C8.60105 3.31337 8.10939 3.64342 7.98192 4.02354C7.98192 4.02582 7.98648 4.0281 7.98648 4.03037C8.11167 4.4105 8.61016 4.74055 9.42731 4.98638C10.29 5.24359 11.4304 5.38699 12.6436 5.38699C13.8568 5.38699 14.9995 5.24359 15.8599 4.98638C16.6543 4.74738 17.1482 4.42871 17.2893 4.05996C17.2916 4.05541 17.2961 4.05086 17.2984 4.04631C17.1801 3.65025 16.6975 3.32247 15.853 3.06754C14.9926 2.81033 13.8477 2.66693 12.6345 2.66693C11.419 2.66693 10.2763 2.80805 9.41593 3.06754ZM16.0465 2.4302C17.3417 2.81943 17.9972 3.42718 17.9972 4.24206V14.8947C17.9972 15.7096 17.3417 16.3196 16.0465 16.7088C15.1178 16.9865 13.9069 17.139 12.6345 17.139C11.4213 17.139 10.2695 16.9956 9.35903 16.743C8.68072 17.2005 7.97054 17.6079 7.23305 17.9676C7.14201 18.0108 7.0373 18.0108 6.94853 17.9676C6.77326 17.8833 2.6374 15.9144 2.27093 13.8135C1.98868 12.211 2.00006 8.50311 2.00006 8.34605C2.00234 8.16168 2.15257 8.01145 2.33694 8.01373C2.36198 8.01373 2.38702 8.016 2.41206 8.02283C3.38172 8.17534 3.88931 7.83846 4.53348 7.41281C5.15943 6.99854 5.86961 6.52964 7.08965 6.52964H7.09421C7.15794 6.52964 7.21484 6.53647 7.27175 6.53875V4.24206C7.27175 4.11232 7.28996 3.98713 7.3241 3.86649L7.32638 3.86421C7.50847 3.23598 8.14809 2.75342 9.22246 2.43248C10.1443 2.15251 11.3575 2 12.6345 2C13.9137 2 15.1247 2.15251 16.0465 2.4302Z" fill="#86888C"/>
</svg>
