<svg width="24" height="24" viewBox="0 0 24 24" fill="none" xmlns="http://www.w3.org/2000/svg">
<path fill-rule="evenodd" clip-rule="evenodd" d="M19.3159 19.5919C18.2289 19.9163 16.8003 20.0927 15.2893 20.0927C14.1311 20.0927 13.0242 19.9874 12.0766 19.7911C13.1977 18.9174 14.1994 17.8589 14.3901 16.769C14.4157 16.621 14.4356 16.473 14.4555 16.325C14.7344 16.3364 15.0133 16.3507 15.3007 16.3507C16.8943 16.3507 18.4081 16.16 19.5635 15.8128C20.1981 15.6222 20.7387 15.3575 21.1599 15.0445V18.1207C21.1627 18.7296 20.5395 19.2219 19.3159 19.5919ZM3.15826 16.6238C3.07574 16.0974 3.01598 15.5653 2.98468 15.0331H7.89913V20.8838C6.25434 20.013 3.43714 18.2203 3.15826 16.6238ZM5.62545 9.45847C6.28279 9.02593 6.90599 8.61616 7.89913 8.51656V14.2022H2.93061C2.85662 12.7367 2.8367 11.1602 2.83386 10.4004C4.08879 10.4573 4.87135 9.95646 5.62545 9.45847ZM9.4244 5.76481C9.82279 6.06929 10.3606 6.32256 11.0407 6.52744C12.1961 6.87461 13.71 7.06527 15.3035 7.06527C16.8971 7.06527 18.411 6.87461 19.5663 6.52744C20.2436 6.3254 20.77 6.07783 21.1627 5.78188V9.19098C20.9635 9.55807 20.3916 10.0447 19.3273 10.3605C18.2488 10.6849 16.8203 10.8642 15.3064 10.8642C15.11 10.8642 14.9194 10.8528 14.7259 10.8472C14.7287 10.3292 14.7287 9.98207 14.7287 9.93085C14.723 9.80849 14.6661 9.69466 14.5694 9.61783C14.4726 9.541 14.3474 9.50685 14.2222 9.52677C12.9985 9.71458 12.364 9.29627 11.5586 8.76413C10.9781 8.37997 10.3379 7.95881 9.4244 7.76815V5.76481ZM11.2655 3.33461C12.3469 3.01305 13.7726 2.83378 15.2893 2.83378C16.806 2.83378 18.2346 3.01305 19.3131 3.33461C20.366 3.65048 20.9692 4.06026 21.1201 4.55825C21.1172 4.56394 21.1115 4.56963 21.1087 4.57532C20.9322 5.03632 20.3147 5.43471 19.3216 5.7335C18.2431 6.05506 16.8146 6.23434 15.3007 6.23434C13.7868 6.23434 12.3583 6.05506 11.2798 5.7335C10.261 5.42617 9.63783 5.0164 9.47847 4.53833C9.47847 4.53548 9.47562 4.53264 9.47278 4.52979C9.63498 4.05457 10.2496 3.64195 11.2655 3.33461ZM14.7116 11.6781C14.908 11.6838 15.1043 11.6952 15.3035 11.6952C16.8971 11.6952 18.411 11.5045 19.5663 11.1573C20.2038 10.9667 20.7416 10.702 21.1627 10.3918V13.8465C20.9635 14.2136 20.3859 14.6973 19.3273 15.016C18.2488 15.3404 16.8203 15.5169 15.3064 15.5169C15.0474 15.5169 14.7999 15.5027 14.5494 15.4941C14.6462 14.2876 14.6917 12.8107 14.7116 11.6781ZM8.73291 8.51087C9.77726 8.59339 10.4232 9.01455 11.0976 9.46132C11.8432 9.95362 12.6172 10.4658 13.8892 10.3947C13.8892 10.5939 13.8864 10.8585 13.8835 11.1573C13.8779 11.1829 13.8665 11.2086 13.8636 11.2342C13.8608 11.274 13.8722 11.311 13.8807 11.348C13.8693 12.3013 13.8409 13.2517 13.7953 14.2022H8.73291V8.51087ZM8.73291 20.9293V15.0331H13.7441C13.7242 15.3006 13.7043 15.5567 13.6787 15.7958C13.673 15.8214 13.6616 15.8441 13.6587 15.8669C13.6587 15.8868 13.6644 15.9039 13.6644 15.921C13.636 16.1799 13.6075 16.419 13.5705 16.6238C13.286 18.2487 10.3578 20.0813 8.73291 20.9293ZM15.2921 2C13.6986 2 12.1847 2.19066 11.0294 2.53783C9.68336 2.94191 8.88373 3.54519 8.65607 4.32775V4.33059C8.61339 4.48426 8.59062 4.64077 8.59062 4.80013V7.66855C8.51664 7.66571 8.4455 7.65717 8.36582 7.65717C6.8377 7.65717 5.94985 8.24337 5.1673 8.76128C4.36198 9.29342 3.73024 9.71743 2.51799 9.52677C2.29318 9.4727 2.06553 9.60929 2.01146 9.8341C2.00292 9.8654 2.00008 9.89955 2.00008 9.93085C2.00008 10.1272 1.98585 14.7628 2.33871 16.7661C2.79402 19.3955 7.96173 21.857 8.18369 21.9594C8.29752 22.0135 8.42842 22.0135 8.5394 21.9594C8.64469 21.9082 9.88255 21.3192 11.1972 20.4313C12.3355 20.7472 13.7754 20.9265 15.2893 20.9265C16.8772 20.9265 18.3939 20.7358 19.5549 20.3886C21.1741 19.902 21.9937 19.1394 21.9937 18.1235V4.80297C21.9937 3.78707 21.1741 3.02444 19.5549 2.53783C18.4025 2.19066 16.8857 2 15.2921 2Z" fill="#86888C"/>
</svg>
