<svg width="24" height="24" viewBox="0 0 24 24" fill="none" xmlns="http://www.w3.org/2000/svg">
<path fill-rule="evenodd" clip-rule="evenodd" d="M7.92856 13.9311C7.92856 13.7006 8.11641 13.5127 8.34695 13.5127C8.57749 13.5127 8.76533 13.7006 8.76533 13.9311V17.967C8.76533 18.1975 8.57749 18.3854 8.34695 18.3854C8.11641 18.3854 7.92856 18.1975 7.92856 17.967V13.9311ZM8.34979 18.8834C8.57179 18.8834 8.75395 19.0627 8.75395 19.2876C8.75395 19.5096 8.57464 19.6917 8.34979 19.6917C8.12779 19.6917 7.94564 19.5096 7.94564 19.2876C7.94564 19.0656 8.12779 18.8834 8.34979 18.8834ZM21.1689 9.79848V6.12408C20.7505 6.45708 20.1756 6.73316 19.447 6.94947C18.2288 7.31662 16.635 7.51585 14.9472 7.51585C13.2594 7.51585 11.6656 7.31662 10.4389 6.94947C9.70457 6.72462 9.12964 6.44854 8.70272 6.11554V9.61632C8.71126 9.61632 8.71979 9.62486 8.72833 9.62486C8.88772 9.69886 9.01295 9.82409 9.08695 9.98348L9.32887 10.4673C9.33741 10.4673 9.33741 10.4759 9.34595 10.4759C9.70457 10.7007 10.1571 10.8999 10.6893 11.0593C11.825 11.4009 13.3448 11.5916 14.9472 11.5916C16.5496 11.5916 18.0666 11.4009 19.2051 11.0593C20.3407 10.7178 20.9583 10.1998 21.1689 9.79848ZM21.1689 14.7337V11.0166C20.7278 11.3582 20.1415 11.6513 19.447 11.8591C18.2288 12.2263 16.635 12.4255 14.9472 12.4255C13.2594 12.4255 11.6656 12.2263 10.4474 11.8591C10.2738 11.8022 10.103 11.7453 9.92941 11.6826L12.249 16.3333C13.0943 16.4585 14.0023 16.524 14.9472 16.524C16.5496 16.524 18.0694 16.3333 19.2051 15.9917C20.3407 15.6502 20.9583 15.1265 21.1689 14.7337ZM21.1689 19.2591V15.9519C20.7278 16.2934 20.1415 16.5866 19.447 16.7944C18.2288 17.153 16.635 17.3607 14.9472 17.3607C14.1702 17.3607 13.4188 17.3209 12.7016 17.227L14.6142 21.0693C14.6654 21.1604 14.6882 21.2685 14.6882 21.3681H14.9301C16.5325 21.3681 18.0438 21.1746 19.2051 20.8331C20.5086 20.4431 21.1689 19.9109 21.1689 19.2591ZM2.87662 21.3112L13.8201 21.3511L8.39533 10.4588L2.87662 21.3112ZM10.6751 3.56538C9.58218 3.89838 8.92187 4.33953 8.75395 4.849C8.75395 4.85754 8.76249 4.86608 8.76249 4.87177C8.9361 5.38123 9.59641 5.82239 10.6808 6.14685C11.825 6.49693 13.3448 6.67908 14.9472 6.67908C16.5496 6.67908 18.0581 6.49693 19.2022 6.14685C20.2638 5.83092 20.9213 5.404 21.112 4.91446C21.112 4.89738 21.1205 4.89738 21.1291 4.88884C20.9725 4.34807 20.3293 3.90407 19.1937 3.56538C18.0524 3.22384 16.5411 3.03315 14.9301 3.03315C13.3277 3.03315 11.8164 3.22384 10.6751 3.56538ZM19.4413 2.76561C21.1433 3.28076 22.0028 4.08338 22.0028 5.14785V19.2591C22.0028 20.3264 21.1433 21.1262 19.4413 21.6328C18.2146 22 16.6094 22.1992 14.933 22.1992C14.765 22.1992 14.1901 22.1992 14.0222 22.1907C13.9966 22.1907 13.9653 22.1907 13.9397 22.1821H13.914L2.76846 22.1451C2.56923 22.1451 2.38423 22.0711 2.23623 21.9288C2.08538 21.7865 2 21.5901 2 21.3852C2 21.2685 2.02562 21.1348 2.09108 21.0181L7.70087 9.97494C7.73787 9.88956 7.79479 9.81556 7.86879 9.75863V5.14785C7.86879 4.97423 7.89441 4.81484 7.93425 4.65546V4.64692C8.17618 3.83007 9.01295 3.19538 10.4303 2.76276C11.6513 2.39845 13.2537 2.19922 14.9301 2.19922C16.6179 2.19922 18.2203 2.39845 19.4413 2.76561Z" fill="#86888C"/>
</svg>
