<svg width="20" height="20" viewBox="0 0 20 20" fill="none" xmlns="http://www.w3.org/2000/svg">
<path fill-rule="evenodd" clip-rule="evenodd" d="M6.74285 11.5847C6.74285 11.4003 6.89313 11.25 7.07756 11.25C7.26199 11.25 7.41227 11.4003 7.41227 11.5847V14.8134C7.41227 14.9979 7.26199 15.1481 7.07756 15.1481C6.89313 15.1481 6.74285 14.9979 6.74285 14.8134V11.5847ZM7.07983 15.5466C7.25744 15.5466 7.40316 15.69 7.40316 15.8699C7.40316 16.0475 7.25971 16.1932 7.07983 16.1932C6.90223 16.1932 6.75651 16.0475 6.75651 15.8699C6.75651 15.6923 6.90223 15.5466 7.07983 15.5466ZM17.3351 8.27863V5.33911C17.0004 5.60551 16.5405 5.82637 15.9576 5.99942C14.9831 6.29314 13.708 6.45253 12.3578 6.45253C11.0075 6.45253 9.73246 6.29314 8.7511 5.99942C8.16365 5.81954 7.70371 5.59868 7.36217 5.33228V8.1329C7.369 8.1329 7.37584 8.13973 7.38267 8.13973C7.51017 8.19893 7.61036 8.29912 7.66956 8.42663L7.8631 8.81371C7.86993 8.81371 7.86993 8.82054 7.87676 8.82054C8.16365 9.00041 8.52569 9.1598 8.95147 9.28731C9.85997 9.56054 11.0758 9.71309 12.3578 9.71309C13.6397 9.71309 14.8533 9.56054 15.7641 9.28731C16.6725 9.01408 17.1666 8.59967 17.3351 8.27863ZM17.3351 12.2268V9.25315C16.9822 9.52638 16.5132 9.76091 15.9576 9.92712C14.9831 10.2208 13.708 10.3802 12.3578 10.3802C11.0075 10.3802 9.73246 10.2208 8.75793 9.92712C8.61904 9.88159 8.48242 9.83605 8.34353 9.78596L10.1992 13.5065C10.8755 13.6066 11.6018 13.659 12.3578 13.659C13.6397 13.659 14.8556 13.5065 15.7641 13.2332C16.6725 12.96 17.1666 12.541 17.3351 12.2268ZM17.3351 15.8471V13.2014C16.9822 13.4746 16.5132 13.7091 15.9576 13.8753C14.9831 14.1622 13.708 14.3284 12.3578 14.3284C11.7362 14.3284 11.135 14.2966 10.5613 14.2214L12.0914 17.2953C12.1323 17.3681 12.1506 17.4547 12.1506 17.5344H12.3441C13.626 17.5344 14.8351 17.3795 15.7641 17.1063C16.8069 16.7944 17.3351 16.3686 17.3351 15.8471ZM2.70129 17.4888L11.4561 17.5207L7.11627 8.80687L2.70129 17.4888ZM8.94009 3.29215C8.06575 3.55855 7.5375 3.91147 7.40316 4.31904C7.40316 4.32587 7.40999 4.3327 7.40999 4.33726C7.54888 4.74483 8.07713 5.09775 8.94464 5.35732C9.85997 5.63739 11.0758 5.78311 12.3578 5.78311C13.6397 5.78311 14.8464 5.63739 15.7618 5.35732C16.6111 5.10458 17.137 4.76304 17.2896 4.37141C17.2896 4.35775 17.2964 4.35775 17.3033 4.35092C17.178 3.9183 16.6634 3.5631 15.7549 3.29215C14.8419 3.01891 13.6328 2.86636 12.3441 2.86636C11.0622 2.86636 9.85314 3.01891 8.94009 3.29215ZM15.953 2.65233C17.3146 3.06445 18.0023 3.70655 18.0023 4.55812V15.8471C18.0023 16.701 17.3146 17.3408 15.953 17.7461C14.9717 18.0398 13.6875 18.1992 12.3464 18.1992C12.212 18.1992 11.7521 18.1992 11.6178 18.1924C11.5973 18.1924 11.5722 18.1924 11.5517 18.1856H11.5312L2.61477 18.156C2.45539 18.156 2.30739 18.0968 2.18899 17.9829C2.06831 17.8691 2 17.712 2 17.548C2 17.4547 2.02049 17.3476 2.07286 17.2543L6.56069 8.4198C6.59029 8.35149 6.63583 8.29229 6.69503 8.24675V4.55812C6.69503 4.41923 6.71553 4.29172 6.7474 4.16421V4.15738C6.94094 3.5039 7.61036 2.99614 8.74427 2.65005C9.72108 2.3586 11.003 2.19922 12.3441 2.19922C13.6943 2.19922 14.9762 2.3586 15.953 2.65233Z" fill="#86888C"/>
</svg>
