<svg width="24" height="24" viewBox="0 0 24 24" fill="none" xmlns="http://www.w3.org/2000/svg">
<path fill-rule="evenodd" clip-rule="evenodd" d="M7.41479 16.9973C8.45914 16.9803 8.45914 16.1579 8.45914 15.8904C8.45914 15.62 8.45914 14.7977 7.40056 14.772L7.27535 14.7692H7.24405C6.21677 14.7777 6.21677 15.5774 6.21677 15.8762C6.21677 16.1493 6.21677 16.9831 7.26112 16.9973H7.41479ZM7.42048 13.9383C7.80464 13.9468 9.29861 14.0976 9.29861 15.8904C9.29861 17.686 7.8018 17.8283 7.42617 17.834C7.38349 17.834 7.34365 17.8368 7.30096 17.8368L7.2469 17.834C6.85135 17.8283 5.37446 17.686 5.37446 15.8762C5.37446 14.0692 6.83712 13.9383 7.23267 13.9354L7.27535 13.9326C7.32657 13.9326 7.3778 13.9354 7.42048 13.9383ZM19.1958 20.5914C20.5019 20.1873 21.165 19.6495 21.1564 18.995L21.1251 15.6883C20.6812 16.0355 20.0979 16.3286 19.4064 16.542C18.1827 16.9205 16.5806 17.1368 14.8903 17.1539H14.694C14.0736 17.1539 13.4703 17.1197 12.8841 17.0656V18.7986C12.887 19.4446 12.6849 19.9568 12.2894 20.3239C11.9707 20.6199 11.5808 20.7565 11.2593 20.8191C12.3178 21.0496 13.5785 21.1776 14.9131 21.1634C16.5237 21.1492 18.0433 20.9443 19.1958 20.5914ZM3.13777 19.6836C3.36258 19.9198 3.71829 20.0393 4.19636 20.0393L10.6788 20.0365C10.7101 20.0365 11.3361 20.0707 11.7203 19.7121C11.9394 19.5072 12.0447 19.2113 12.0447 18.8043C12.0418 16.9461 12.0447 13.1699 12.0447 13.1699C12.0475 13.133 12.076 12.6378 11.7573 12.2992C11.5324 12.0601 11.1682 11.9378 10.6788 11.9378C8.80347 11.9378 4.43824 11.9435 4.21343 11.9435H4.19067C4.17928 11.9435 4.1679 11.9435 4.15652 11.9406C4.15367 11.9406 4.13091 11.9378 4.09391 11.9378C3.92887 11.9378 3.47072 11.9662 3.16623 12.248C2.94996 12.4471 2.84183 12.7545 2.84183 13.1614V18.8129C2.83898 18.847 2.81337 19.345 3.13777 19.6836ZM7.27535 7.45588C6.48142 7.46441 4.63174 7.74613 4.63174 10.2418V11.1068C5.71878 11.104 8.57866 11.1012 10.2519 11.1012V10.2588C10.2519 7.78597 8.37377 7.47864 7.56561 7.45872C7.48024 7.45588 7.37495 7.45872 7.27535 7.45588ZM8.51321 5.97614L8.52459 6.75869C9.59171 7.02618 11.0971 7.82866 11.0971 10.2617V11.0386C12.1756 11.2833 13.4703 11.4113 14.8362 11.3914C16.4497 11.3772 17.9693 11.1723 19.1104 10.8194C20.2487 10.4666 20.8576 9.94013 21.0682 9.54458L21.0341 5.87654C20.6129 6.20664 20.0438 6.48551 19.3125 6.71316C18.0917 7.09163 16.4867 7.3079 14.7964 7.32213H14.5944C12.9752 7.32213 11.4442 7.14001 10.2661 6.79853C9.52342 6.57942 8.94006 6.30623 8.51321 5.97614ZM10.4653 3.40936C9.3726 3.74799 8.71241 4.19761 8.5502 4.71267C8.55305 4.71836 8.55874 4.72405 8.56159 4.73259C8.73517 5.24196 9.40959 5.67735 10.5023 5.99321C11.652 6.32615 13.1573 6.50543 14.7879 6.48551C16.4014 6.46844 17.9181 6.26639 19.0649 5.91353C20.1235 5.58628 20.7837 5.1509 20.9686 4.65576C20.9715 4.64722 20.98 4.63868 20.9857 4.63299C20.8235 4.09801 20.1718 3.66262 19.0336 3.33253C17.8839 2.99959 16.3644 2.81462 14.7452 2.84023C13.1289 2.85446 11.6093 3.05365 10.4653 3.40936ZM12.887 13.2041C12.8898 13.2041 12.887 14.6753 12.887 16.229C13.5329 16.2916 14.2045 16.3286 14.8846 16.3201C16.4953 16.303 18.0148 16.101 19.1616 15.7481C20.2971 15.3981 20.9089 14.8688 21.1166 14.4761L21.0825 10.7625C20.6385 11.1097 20.058 11.4028 19.3637 11.6162C18.1429 11.9947 16.5379 12.211 14.8476 12.2252H14.6484C13.9598 12.2252 13.2911 12.1939 12.6565 12.1284C12.8219 12.4621 12.9011 12.8319 12.887 13.2041ZM21.865 4.88056L21.9988 18.9865C22.0101 20.0536 21.1507 20.8617 19.4462 21.3882C18.2169 21.7667 16.6119 21.9829 14.9245 22H14.7338C13.1146 22 11.5808 21.8122 10.3942 21.4736C9.89335 21.3284 9.46081 21.1577 9.10795 20.9642C9.06527 20.9414 9.02827 20.9101 8.99697 20.8703L4.19636 20.8731C3.47072 20.8731 2.90443 20.6625 2.51742 20.2471C1.94829 19.6381 1.99951 18.8186 2.00236 18.7844V13.1643C2.00236 12.5126 2.2044 11.9975 2.60279 11.6333C2.98126 11.289 3.45649 11.1666 3.79512 11.1239V10.2418C3.79512 7.59531 5.59073 6.63917 7.26966 6.6221C7.40625 6.61926 7.54569 6.6221 7.68228 6.63064L7.66236 5.01715C7.66236 4.85211 7.68228 4.68706 7.72781 4.52486V4.52201C7.95831 3.69677 8.79493 3.05365 10.2149 2.61258C11.4357 2.23411 13.0406 2.01784 14.7338 2.00076C16.4241 1.98654 18.0404 2.1715 19.2669 2.52436C20.98 3.02235 21.8536 3.81344 21.865 4.88056Z" fill="#86888C"/>
</svg>
