<svg width="20" height="20" viewBox="0 0 20 20" fill="none" xmlns="http://www.w3.org/2000/svg">
<path d="M5.42685 11.7783C5.66015 11.7783 5.80981 11.9015 5.80981 12.1634C5.80981 12.2888 5.7746 12.3835 5.71297 12.4473C5.64694 12.5155 5.5479 12.5485 5.42685 12.5485C5.3058 12.5485 5.20676 12.5155 5.14073 12.4473C5.0791 12.3835 5.04389 12.291 5.04389 12.1634C5.04169 11.9015 5.19355 11.7783 5.42685 11.7783ZM14.0039 13.9173C14.2372 13.9173 14.3869 14.0405 14.3869 14.3024C14.3869 14.4278 14.3516 14.5225 14.29 14.5863C14.224 14.6545 14.125 14.6875 14.0039 14.6875C13.8828 14.6875 13.7838 14.6545 13.7178 14.5863C13.6562 14.5225 13.6209 14.43 13.6209 14.3024C13.6187 14.0383 13.7706 13.9173 14.0039 13.9173ZM10.0378 9.98259C9.88155 9.98259 9.76269 9.85495 9.76049 9.6877L9.75169 9.13315L7.68721 9.12434H7.6674C7.55736 9.12434 7.45171 9.07593 7.37688 8.99231C7.30425 8.91088 7.26903 8.80085 7.27784 8.69082L7.28004 7.82818C7.27784 7.72475 7.31966 7.62132 7.39449 7.5443C7.48032 7.45627 7.59697 7.41446 7.71582 7.42546L9.7825 7.42326L9.7759 6.8709C9.7737 6.75867 9.81992 6.68825 9.85954 6.64864C9.91016 6.59803 9.97619 6.56942 10.0488 6.56942C10.1148 6.56942 10.1787 6.59363 10.2381 6.63544L12.0781 8.01523C12.1639 8.07905 12.2123 8.17367 12.2123 8.2749C12.2123 8.37613 12.1639 8.47076 12.0781 8.53458L10.2227 9.91437C10.1677 9.95838 10.1016 9.98259 10.0378 9.98259ZM7.72023 8.68422L9.83092 8.69302C10.0268 8.69522 10.1897 8.85587 10.1919 9.05172L10.1963 9.39062L11.6929 8.2771L10.2227 7.17239L10.2271 7.50028C10.2293 7.59711 10.1919 7.68734 10.1236 7.75556C10.0554 7.82377 9.96518 7.86119 9.86834 7.86339L7.72243 7.86559L7.72023 8.68422ZM9.37533 13.3385C9.3093 13.3385 9.24547 13.3165 9.18605 13.2725L7.33066 11.8927C7.24482 11.8289 7.1964 11.7343 7.1964 11.6331C7.1964 11.5318 7.24482 11.4372 7.33066 11.3734L9.17064 9.99359C9.23007 9.94958 9.2939 9.92757 9.35992 9.92757C9.43255 9.92757 9.49858 9.95618 9.5492 10.0068C9.58882 10.0464 9.63504 10.1168 9.63284 10.2291L9.62624 10.7814L11.6929 10.7836C11.814 10.7726 11.9306 10.8144 12.0143 10.9024C12.0891 10.9795 12.1309 11.0829 12.1287 11.1863L12.1309 12.049C12.1397 12.159 12.1045 12.269 12.0319 12.3505C11.9526 12.4385 11.8382 12.4891 11.7215 12.4825L9.65705 12.4913L9.64825 13.0459C9.65045 13.2131 9.5316 13.3385 9.37533 13.3385ZM7.72023 11.6331L9.21686 12.7466L9.22126 12.4077C9.22347 12.2118 9.38633 12.0512 9.58002 12.049L11.6907 12.0402L11.6885 11.2237L9.5426 11.2215C9.44576 11.2215 9.35552 11.1841 9.28729 11.1159C9.21906 11.0477 9.18385 10.9553 9.18385 10.8606L9.18825 10.5327L7.72023 11.6331Z" fill="#86888C"/>
<path d="M7.23603 13.8051H3.61329C2.52822 13.8051 2 13.2769 2 12.192V5.56813C2 4.48323 2.52822 3.95508 3.61329 3.95508H7.23823C8.31009 3.95508 8.85152 4.49863 8.85152 5.56813V7.64552C8.85152 7.76656 8.75247 7.86559 8.63142 7.86559C8.51037 7.86559 8.41133 7.76656 8.41133 7.64552V5.56813C8.41133 4.7451 8.06138 4.3952 7.23823 4.3952H3.61329C3.18851 4.3952 2.89358 4.48543 2.7109 4.66808C2.52822 4.85073 2.44019 5.14562 2.44019 5.56813V12.1898C2.44019 13.0348 2.77033 13.3627 3.61329 13.3627H7.23823C7.96674 13.3627 8.30128 13.1207 8.38932 12.5309C8.40693 12.4099 8.51917 12.3284 8.64023 12.3461C8.76128 12.3637 8.84271 12.4759 8.8251 12.5969C8.70185 13.4112 8.18243 13.8051 7.23603 13.8051Z" fill="#86888C"/>
<path d="M8.63141 10.8936C8.51036 10.8936 8.41132 10.7946 8.41132 10.6736V8.90648C8.41132 8.78545 8.51036 8.68642 8.63141 8.68642C8.75246 8.68642 8.8515 8.78545 8.8515 8.90648V10.6736C8.8515 10.7968 8.75246 10.8936 8.63141 10.8936Z" fill="#86888C"/>
<path d="M15.8153 15.9551H12.1903C11.1053 15.9551 10.577 15.4269 10.577 14.342V12.2646C10.577 12.1436 10.6761 12.0446 10.7971 12.0446C10.9182 12.0446 11.0172 12.1436 11.0172 12.2646V14.342C11.0172 15.1871 11.3474 15.515 12.1903 15.515H15.8153C16.6604 15.515 16.9884 15.1849 16.9884 14.342V7.71815C16.9884 6.89511 16.6384 6.54521 15.8153 6.54521H12.1903C11.2857 6.54521 11.1009 6.96773 11.0392 7.38145C11.0216 7.50248 10.9094 7.58391 10.7883 7.5663C10.6673 7.5487 10.5858 7.43647 10.6035 7.31543C10.6651 6.90832 10.8324 6.59803 11.1009 6.39777C11.365 6.20192 11.7193 6.10509 12.1881 6.10509H15.8131C16.8849 6.10509 17.4264 6.64864 17.4264 7.71815V14.3398C17.4286 15.4269 16.9003 15.9551 15.8153 15.9551Z" fill="#86888C"/>
<path d="M10.7971 11.2215C10.6761 11.2215 10.577 11.1225 10.577 11.0015V9.21457C10.577 9.09353 10.6761 8.99451 10.7971 8.99451C10.9182 8.99451 11.0172 9.09353 11.0172 9.21457V11.0015C11.0172 11.1247 10.9182 11.2215 10.7971 11.2215Z" fill="#86888C"/>
</svg>
