<svg width="40" height="40" viewBox="0 0 40 40" fill="none" xmlns="http://www.w3.org/2000/svg">
<path fill-rule="evenodd" clip-rule="evenodd" d="M28.5428 25.7917L27.8563 25.807V18.8601C27.8563 17.5435 26.8316 16.5598 24.7978 15.9502C22.0159 15.1202 17.3488 15.1202 14.5823 15.9502C12.8866 16.4523 11.8927 17.2207 11.6007 18.2351C11.5392 18.4298 11.5085 18.6449 11.5085 18.855V25.9095C11.4777 25.9095 11.447 25.8941 11.4316 25.8941H9.75125C7.86595 25.8941 3.52668 25.305 3.52668 19.7823C3.52668 16.6777 4.8843 14.7258 7.56368 13.9676C7.89156 13.8805 8.11698 13.5833 8.11698 13.2452L8.10161 13.0454C8.10161 4.19269 15.899 3.51131 18.2966 3.51131C19.6439 3.51131 26.4782 3.81358 28.0971 9.82297C28.1944 10.1457 28.4813 10.3711 28.8143 10.3814C31.1197 10.4429 36.4733 11.3189 36.4733 18.0712C36.4784 25.2486 30.4076 25.7917 28.5428 25.7917ZM13.1325 18.5425C13.3477 18.1019 13.988 17.7125 15.0127 17.4103C16.2678 17.0312 17.9175 16.8365 19.6952 16.8365C21.4524 16.8365 23.102 17.0312 24.3572 17.4103C25.1205 17.6357 26.0068 17.9994 26.2527 18.563C26.0529 18.9882 25.3921 19.3929 24.3572 19.6952C21.8674 20.438 17.523 20.438 15.028 19.6952C13.988 19.3724 13.3323 18.9677 13.1325 18.5425ZM26.3296 23.9166C26.1144 24.2803 25.5048 24.7773 24.3726 25.1103C21.8674 25.8531 17.523 25.8531 15.0332 25.1103C13.8548 24.7619 13.2452 24.2752 13.0454 23.932V20.4688C13.5372 20.7557 14.0598 20.9862 14.6079 21.1501C15.9861 21.56 17.8048 21.7854 19.7003 21.7854C21.6112 21.7854 23.4299 21.56 24.808 21.1501C25.3408 20.9862 25.8531 20.7659 26.3347 20.4841C26.3296 20.479 26.3296 23.9166 26.3296 23.9166ZM26.3296 29.3625C26.1144 29.7262 25.5048 30.2231 24.3726 30.5561C21.8674 31.299 17.523 31.299 15.0434 30.5561C13.8344 30.2078 13.2401 29.7364 13.0403 29.3778V25.8992C13.486 26.1554 13.988 26.3808 14.6028 26.5652C15.9809 26.9751 17.7996 27.2005 19.7105 27.2005C21.6061 27.2005 23.4248 26.9751 24.8029 26.5652C25.3408 26.4064 25.8531 26.1759 26.3296 25.8839V29.3625ZM26.3296 34.4651C26.3296 35.1772 25.2589 35.6434 24.3572 35.9149C21.8469 36.6577 17.5384 36.6577 15.0127 35.9149C14.111 35.6434 13.0403 35.1721 13.0403 34.4651V31.3451C13.486 31.6013 13.988 31.8318 14.6028 32.0111C15.9809 32.4209 17.7996 32.6464 19.7105 32.6464C21.6061 32.6464 23.4248 32.4158 24.8029 32.0111C25.3408 31.8574 25.8583 31.6269 26.3296 31.3297V34.4651ZM29.4291 8.90081C27.2722 2.333 19.7976 2 18.2966 2C16.3549 2 6.78497 2.51231 6.58517 12.697C4.65889 13.3989 2 15.1971 2 19.7823C2 25.4126 6.00626 27.4106 9.75125 27.4106H11.4316C11.4624 27.4106 11.4777 27.3952 11.5085 27.3952V34.4599C11.5085 35.7766 12.5331 36.7602 14.5823 37.3647C15.9707 37.7746 17.7791 38 19.6901 38C21.5856 38 23.4043 37.7746 24.7978 37.3647C26.8316 36.7602 27.8563 35.7766 27.8563 34.4599V27.3183L28.5428 27.303C30.1309 27.303 38.0051 26.8624 38.0051 18.0712C38.0051 10.3865 32.0111 9.09549 29.4291 8.90081Z" fill="#86888C"/>
</svg>
