<svg width="20" height="20" viewBox="0 0 20 20" fill="none" xmlns="http://www.w3.org/2000/svg">
<path fill-rule="evenodd" clip-rule="evenodd" d="M16.9708 11.9047H14.4844C14.662 11.0895 14.7622 10.1947 14.7622 9.25203C14.7622 8.47787 14.6962 7.73559 14.5732 7.04113H17.0847C17.2418 7.70827 17.3238 8.45055 17.3238 9.27252C17.3238 10.2607 17.2031 11.1373 16.9708 11.9047ZM12.5877 15.6912C13.3323 14.9967 13.9357 13.9084 14.3228 12.5718H16.734C16.01 14.2613 14.6279 15.3041 12.5877 15.6912ZM10.962 15.8392V12.5718H13.6124C13.0682 14.3637 12.0936 15.6252 10.962 15.8392ZM10.962 7.0434H13.881C14.0108 7.73787 14.0837 8.47787 14.0837 9.2543C14.0837 10.1947 13.9835 11.0986 13.7922 11.9069H10.962V7.0434ZM10.962 2.70129C12.1824 2.92899 13.2184 4.36346 13.733 6.37399H10.962V2.70129ZM16.898 6.37399H14.4389C14.0723 4.85072 13.4143 3.60979 12.5968 2.84702C14.7895 3.2637 16.2331 4.44542 16.898 6.37399ZM10.2858 6.37399H7.32574C7.90181 4.39761 9.02661 2.92899 10.2858 2.69902V6.37399ZM10.2858 11.9047H8.61904V10.329C8.61904 9.78028 8.20009 9.37954 7.36445 9.13363C7.221 9.09264 7.07756 9.05849 6.93183 9.03344C6.94322 8.36402 7.02063 7.69688 7.1618 7.0434H10.2858V11.9047ZM10.2858 15.8597C9.74384 15.846 9.22243 15.8005 8.74655 15.7208C8.70329 15.714 8.66003 15.714 8.61676 15.7208V12.5718H10.2835C10.2858 12.5718 10.2858 15.8597 10.2858 15.8597ZM7.94051 12.3327C7.84488 12.4784 7.58759 12.6651 7.17547 12.7927C6.18045 13.0887 4.44542 13.0887 3.45724 12.7927C2.98819 12.6538 2.75822 12.4784 2.67625 12.3464V11.0258C2.84019 11.1191 3.02917 11.1988 3.25914 11.2648C3.81471 11.4311 4.54561 11.5244 5.31066 11.5244C6.07571 11.5244 6.8066 11.4311 7.36217 11.2648C7.59214 11.1965 7.77658 11.1168 7.93824 11.0303C7.94051 11.0303 7.94051 12.3327 7.94051 12.3327ZM7.94051 14.5095C7.85399 14.6484 7.61491 14.8373 7.17547 14.9717C6.17817 15.2654 4.44542 15.2654 3.45724 14.9717C2.98819 14.8328 2.75139 14.6506 2.67625 14.5163V13.1866C2.84474 13.2799 3.036 13.3664 3.25914 13.4325C3.81471 13.5941 4.54561 13.6875 5.31066 13.6875C6.07571 13.6875 6.8066 13.5941 7.36901 13.4348C7.58076 13.3687 7.76974 13.2822 7.93824 13.1866C7.94051 13.1866 7.94051 14.5095 7.94051 14.5095ZM7.94051 16.5519C7.94051 16.8319 7.46008 17.0209 7.16863 17.1074C6.17362 17.4012 4.44542 17.4012 3.45041 17.1074C3.15896 17.0209 2.67853 16.8342 2.67853 16.5519V15.3656C2.84702 15.4589 3.03828 15.5386 3.26142 15.6047C3.81699 15.7709 4.54789 15.8665 5.31294 15.8665C6.07798 15.8665 6.80888 15.7709 7.37128 15.6047C7.58304 15.5455 7.77202 15.4589 7.94051 15.3656V16.5519ZM3.45041 9.77344C4.44542 9.47972 6.17362 9.47972 7.16863 9.77344C7.41227 9.84631 7.79935 9.99431 7.90636 10.2061C7.84488 10.3131 7.67639 10.4725 7.16863 10.6273C6.18045 10.921 4.44542 10.921 3.45724 10.6273C3.0565 10.5066 2.80603 10.3541 2.71951 10.1924C2.80603 10.0421 3.0565 9.88729 3.45041 9.77344ZM4.16081 7.0434H6.45823C6.34211 7.66728 6.2738 8.29799 6.25559 8.93326C5.48371 8.85812 4.70499 8.87861 3.93767 8.99473C3.9445 8.3367 4.01964 7.68322 4.16081 7.0434ZM8.55073 2.86296C7.69005 3.63711 7.00014 4.87121 6.60623 6.37399H4.35662C5.00783 4.47047 6.41725 3.3024 8.55073 2.86296ZM17.6698 6.61534C17.663 6.60168 17.663 6.58802 17.6562 6.5698C16.816 3.57108 14.432 2 10.625 2C6.81799 2 4.43176 3.57108 3.60068 6.56752C3.58702 6.58802 3.58702 6.60851 3.58019 6.61989C3.37754 7.37356 3.27053 8.20919 3.25459 9.13135C2.56923 9.33855 2.15711 9.65049 2.03415 10.0649C2.01366 10.1537 2 10.2425 2 10.329V16.5519C2 17.0938 2.42123 17.4945 3.25459 17.7404C3.81699 17.9066 4.54106 18 5.3061 18C6.07115 18 6.80433 17.9066 7.36673 17.7404C8.20008 17.4922 8.61904 17.0938 8.61904 16.5519V16.372H8.62587C9.23609 16.4858 9.91234 16.5382 10.625 16.5382C15.4476 16.5382 18.0023 14.0268 18.0023 9.27252C18.0023 8.28661 17.8862 7.40544 17.6698 6.61534Z" fill="#86888C"/>
</svg>
