<svg width="24" height="24" viewBox="0 0 24 24" fill="none" xmlns="http://www.w3.org/2000/svg">
<path fill-rule="evenodd" clip-rule="evenodd" d="M20.7135 14.3808H17.6055C17.8275 13.3619 17.9528 12.2433 17.9528 11.065C17.9528 10.0973 17.8702 9.16949 17.7165 8.30141H20.8558C21.0522 9.13533 21.1547 10.0632 21.1547 11.0907C21.1547 12.3259 21.0038 13.4217 20.7135 14.3808ZM15.2347 19.114C16.1654 18.2459 16.9196 16.8854 17.4034 15.2147H20.4175C19.5124 17.3266 17.7848 18.6301 15.2347 19.114ZM13.2025 19.299V15.2147H16.5154C15.8352 17.4547 14.617 19.0315 13.2025 19.299ZM13.2025 8.30426H16.8513C17.0135 9.17234 17.1046 10.0973 17.1046 11.0679C17.1046 12.2433 16.9794 13.3733 16.7403 14.3837H13.2025V8.30426ZM13.2025 2.87662C14.728 3.16124 16.0231 4.95432 16.6663 7.46748H13.2025V2.87662ZM20.6225 7.46748H17.5486C17.0904 5.5634 16.2678 4.01224 15.246 3.05877C17.9869 3.57962 19.7914 5.05678 20.6225 7.46748ZM12.3572 7.46748H8.65718C9.37726 4.99701 10.7833 3.16124 12.3572 2.87377V7.46748ZM12.3572 14.3808H10.2738V12.4113C10.2738 11.7253 9.75011 11.2244 8.70556 10.917C8.52626 10.8658 8.34695 10.8231 8.16479 10.7918C8.17902 9.95503 8.27579 9.1211 8.45225 8.30426H12.3572V14.3808ZM12.3572 19.3246C11.6798 19.3075 11.028 19.2506 10.4332 19.151C10.3791 19.1425 10.325 19.1425 10.271 19.151V15.2147H12.3543C12.3572 15.2147 12.3572 19.3246 12.3572 19.3246ZM9.42564 14.9159C9.3061 15.0981 8.98449 15.3314 8.46933 15.4908C7.22556 15.8608 5.05678 15.8608 3.82155 15.4908C3.23524 15.3172 2.94777 15.0981 2.84531 14.933V13.2822C3.05023 13.3989 3.28647 13.4985 3.57393 13.581C4.26839 13.7888 5.18201 13.9055 6.13832 13.9055C7.09463 13.9055 8.00825 13.7888 8.70272 13.581C8.99018 13.4957 9.22072 13.396 9.4228 13.2879C9.42564 13.2879 9.42564 14.9159 9.42564 14.9159ZM9.42564 17.6368C9.31749 17.8104 9.01864 18.0467 8.46933 18.2146C7.22271 18.5818 5.05678 18.5818 3.82155 18.2146C3.23524 18.041 2.93923 17.8133 2.84531 17.6454V15.9832C3.05593 16.0999 3.295 16.2081 3.57393 16.2906C4.26839 16.4927 5.18201 16.6094 6.13832 16.6094C7.09463 16.6094 8.00825 16.4927 8.71126 16.2934C8.97595 16.2109 9.21218 16.1027 9.4228 15.9832C9.42564 15.9832 9.42564 17.6368 9.42564 17.6368ZM9.42564 20.1898C9.42564 20.5399 8.8251 20.7761 8.46079 20.8843C7.21702 21.2515 5.05678 21.2515 3.81301 20.8843C3.4487 20.7761 2.84816 20.5428 2.84816 20.1898V18.707C3.05877 18.8237 3.29785 18.9233 3.57678 19.0058C4.27124 19.2136 5.18486 19.3331 6.14117 19.3331C7.09748 19.3331 8.0111 19.2136 8.7141 19.0058C8.9788 18.9318 9.21503 18.8237 9.42564 18.707V20.1898ZM3.81301 11.7168C5.05678 11.3497 7.21702 11.3497 8.46079 11.7168C8.76533 11.8079 9.24918 11.9929 9.38295 12.2576C9.3061 12.3913 9.09549 12.5906 8.46079 12.7841C7.22556 13.1513 5.05678 13.1513 3.82155 12.7841C3.32062 12.6333 3.00754 12.4426 2.89939 12.2405C3.00754 12.0527 3.32062 11.8591 3.81301 11.7168ZM4.70101 8.30426H7.57279C7.42764 9.0841 7.34225 9.87249 7.31948 10.6666C6.35463 10.5726 5.38124 10.5983 4.42209 10.7434C4.43062 9.92088 4.52455 9.10403 4.70101 8.30426ZM10.1884 3.0787C9.11257 4.04639 8.25018 5.58901 7.75779 7.46748H4.94578C5.75978 5.08809 7.52156 3.62801 10.1884 3.0787ZM21.5873 7.76918C21.5788 7.7521 21.5788 7.73502 21.5702 7.71225C20.52 3.96385 17.5401 2 12.7813 2C8.02248 2 5.0397 3.96385 4.00085 7.70941C3.98378 7.73502 3.98378 7.76064 3.97524 7.77487C3.72193 8.71695 3.58816 9.76149 3.56824 10.9142C2.71154 11.1732 2.19639 11.5631 2.04269 12.0811C2.01708 12.1921 2 12.3031 2 12.4113V20.1898C2 20.8672 2.52654 21.3682 3.56824 21.6755C4.27124 21.8833 5.17632 22 6.13263 22C7.08894 22 8.00541 21.8833 8.70841 21.6755C9.75011 21.3653 10.2738 20.8672 10.2738 20.1898V19.965H10.2823C11.0451 20.1073 11.8904 20.1728 12.7813 20.1728C18.8094 20.1728 22.0028 17.0334 22.0028 11.0907C22.0028 9.85826 21.8577 8.7568 21.5873 7.76918Z" fill="#86888C"/>
</svg>
