<svg width="28" height="28" viewBox="0 0 28 28" fill="none" xmlns="http://www.w3.org/2000/svg">
<path fill-rule="evenodd" clip-rule="evenodd" d="M9.63789 19.9285C11.2119 19.9285 11.6455 19.3515 11.6455 17.2517C11.6455 15.9406 11.4543 15.2407 11.0036 14.9027C10.7134 14.6841 10.2661 14.5783 9.64131 14.5783C9.00966 14.5783 8.56239 14.6876 8.26876 14.9095C7.8249 15.2475 7.6337 15.9508 7.6337 17.2517C7.63028 19.3515 8.06049 19.9285 9.63789 19.9285ZM9.64131 13.0145C8.279 13.0145 8.279 13.3184 8.279 13.7008C8.279 13.7384 8.28242 13.7589 8.28583 13.7896C8.66482 13.653 9.10868 13.5779 9.63789 13.5779C10.1739 13.5779 10.6178 13.653 10.9968 13.793C11.0002 13.7623 11.0036 13.7384 11.0036 13.7008C11.0036 13.315 11.0036 13.0145 9.64131 13.0145ZM13.3288 16.3742C13.6053 16.3742 13.8307 16.5962 13.8307 16.8727V17.658C13.8307 17.9346 13.6053 18.1565 13.3322 18.1565C13.0556 18.1565 12.8303 17.9346 12.8303 17.658V17.3678H12.6425C12.6357 18.0028 12.5776 18.5662 12.441 19.0545L13.2195 19.29C13.438 19.3583 13.5848 19.5666 13.5746 19.7954L13.5097 20.9801C13.4961 21.2464 13.2741 21.4547 13.0112 21.4547H12.9839C12.7074 21.441 12.4957 21.2055 12.5093 20.9289L12.5503 20.1334L12.0211 19.9729C11.5772 20.5738 10.8397 20.9221 9.63789 20.9221C8.42923 20.9221 7.69174 20.5738 7.24788 19.9695L6.70159 20.1334L6.74256 20.9289C6.75622 21.202 6.54795 21.4376 6.27139 21.4547H6.24066C5.97435 21.4547 5.75583 21.2464 5.74217 20.9835L5.68072 19.7988C5.66706 19.57 5.81387 19.3617 6.03239 19.2935L6.82792 19.0545C6.69476 18.5662 6.63672 18.0063 6.62989 17.3712H6.44211V17.658C6.44211 17.9346 6.21676 18.1565 5.94362 18.1565C5.66706 18.1565 5.44171 17.9346 5.44171 17.658V16.8693C5.44171 16.5927 5.66706 16.3708 5.9402 16.3708H6.65721C6.69818 15.8826 6.79719 15.4114 6.98156 14.9914L6.02897 14.7046C5.81046 14.6363 5.66364 14.4281 5.6773 14.1993L5.73876 13.0145C5.75242 12.738 5.98459 12.5092 6.26456 12.54C6.54112 12.5536 6.75281 12.7892 6.73915 13.0658L6.69818 13.8613L7.30251 14.0423C7.28544 13.9296 7.2752 13.8135 7.2752 13.6974C7.2752 12.0107 8.93113 12.0107 9.64131 12.0107C10.3481 12.0107 12.004 12.0107 12.004 13.6974C12.004 13.8169 11.9938 13.9262 11.9767 14.0354L12.5503 13.8613L12.5093 13.0658C12.4957 12.7892 12.7074 12.5536 12.9805 12.54C13.2468 12.5161 13.4824 12.7141 13.5063 12.9838V13.0145L13.5712 14.1993C13.5814 14.4281 13.438 14.6363 13.2161 14.7046L12.2806 14.988C12.4684 15.408 12.5674 15.8826 12.6083 16.3742H13.3288ZM9.60375 15.4933C9.88031 15.4933 10.1057 15.7153 10.1057 15.9918V18.9418C10.1057 19.2183 9.88031 19.4437 9.60375 19.4437C9.32719 19.4437 9.10185 19.2183 9.10185 18.9418V15.9918C9.10526 15.7187 9.32719 15.4933 9.60375 15.4933ZM24.9954 10.6279V6.53078C24.5208 6.88928 23.8858 7.18974 23.08 7.43216C21.6972 7.8487 19.8808 8.07746 17.9654 8.07746C16.05 8.07746 14.237 7.8487 12.8508 7.43557C12.0347 7.18974 11.3894 6.88246 10.9114 6.52054V8.92421C12.0108 9.15638 12.7756 9.6617 13.4756 10.1226C14.4418 10.7611 15.1998 11.263 16.6679 11.0377C16.8182 11.0172 16.9684 11.0547 17.0845 11.1503C17.1937 11.2459 17.2723 11.3791 17.2757 11.5259C17.2757 11.5874 17.2757 12.0039 17.2723 12.6253C17.5045 12.6321 17.7332 12.6424 17.9688 12.6424C19.7886 12.6424 21.5026 12.4273 22.7932 12.0415C24.0667 11.6522 24.753 11.0684 24.9954 10.6279ZM24.9954 16.2137V12.0688C24.4935 12.4444 23.8448 12.7619 23.08 12.9906C21.6972 13.4072 19.8808 13.6359 17.9654 13.6359C17.7264 13.6359 17.4908 13.6223 17.2552 13.6155C17.2347 14.9744 17.1801 16.743 17.0538 18.1906C17.3542 18.2043 17.6547 18.2214 17.9654 18.2214C19.7818 18.2214 21.4958 18.0063 22.7898 17.6204C24.0633 17.2346 24.7564 16.6508 24.9954 16.2137ZM24.9954 21.342V17.6546C24.4935 18.0302 23.8448 18.3477 23.08 18.5764C21.6938 18.993 19.8808 19.2218 17.9654 19.2218C17.6205 19.2218 17.2859 19.2013 16.9513 19.1876C16.9274 19.3788 16.9001 19.5564 16.8728 19.7202C16.644 21.0245 15.4422 22.2946 14.097 23.3462C15.2305 23.5818 16.5621 23.7116 17.9517 23.7116C19.7647 23.7116 21.4787 23.4965 22.7796 23.1072C24.2511 22.6668 24.9954 22.0727 24.9954 21.342ZM9.63789 24.9441C11.4406 24.0598 15.5207 21.6562 15.8861 19.5495C15.9305 19.3037 15.9646 19.0169 15.9987 18.7062C15.9987 18.6857 15.9885 18.6618 15.9919 18.6413C15.9953 18.614 16.009 18.5901 16.0158 18.5628C16.1763 16.9683 16.2377 14.7422 16.2582 13.2228C16.248 13.175 16.2343 13.1272 16.2377 13.0794C16.2377 13.0453 16.2514 13.018 16.2616 12.9838C16.2651 12.6287 16.2685 12.3146 16.2685 12.0756C14.7389 12.1576 13.8136 11.5464 12.919 10.9557C12.0177 10.3616 11.1641 9.79827 9.64131 9.79486H9.63448C8.10829 9.79486 7.25471 10.3582 6.35333 10.9557C5.44854 11.5532 4.52668 12.1541 3.0039 12.0824C3.01073 13.5745 3.06194 17.6682 3.39313 19.5495C3.76188 21.6527 7.83514 24.0564 9.63789 24.9441ZM13.1239 3.60131C11.9016 3.97005 11.1641 4.46513 10.9729 5.03532C10.9729 5.03873 10.9797 5.04215 10.9797 5.04556C11.1675 5.61575 11.9152 6.11082 13.141 6.47957C14.435 6.86538 16.1456 7.08049 17.9654 7.08049C19.7852 7.08049 21.4992 6.86538 22.7898 6.47957C23.9814 6.12107 24.7223 5.64306 24.934 5.08995C24.9374 5.08312 24.9442 5.07629 24.9476 5.06946C24.7701 4.47537 24.0463 3.98371 22.7796 3.60131C21.4889 3.21549 19.7716 3.00039 17.9517 3.00039C16.1285 3.00039 14.4145 3.21208 13.1239 3.60131ZM23.0698 2.6453C25.0125 3.22915 25.9958 4.14077 25.9958 5.36309V21.342C25.9958 22.5644 25.0125 23.4794 23.0698 24.0632C21.6767 24.4798 19.8603 24.7085 17.9517 24.7085C16.1319 24.7085 14.4043 24.4934 13.0385 24.1145C12.0211 24.8007 10.9558 25.4119 9.84958 25.9513C9.71301 26.0162 9.55595 26.0162 9.42279 25.9513C9.15989 25.825 2.9561 22.8716 2.4064 19.7202C1.98302 17.3166 2.0001 11.7547 2.0001 11.5191C2.00351 11.2425 2.22885 11.0172 2.50541 11.0206C2.54297 11.0206 2.58053 11.024 2.61808 11.0343C4.07258 11.263 4.83397 10.7577 5.80022 10.1192C6.73915 9.49781 7.80441 8.79447 9.63448 8.79447H9.64131C9.73691 8.79447 9.82227 8.80471 9.90762 8.80812V5.36309C9.90762 5.16847 9.93494 4.98069 9.98615 4.79973L9.98957 4.79632C10.2627 3.85397 11.2221 3.13013 12.8337 2.64872C14.2165 2.22876 16.0363 2 17.9517 2C19.8706 2 21.687 2.22876 23.0698 2.6453Z" fill="#86888C"/>
</svg>
