<svg width="20" height="20" viewBox="0 0 20 20" fill="none" xmlns="http://www.w3.org/2000/svg">
<path fill-rule="evenodd" clip-rule="evenodd" d="M7.85037 14.0552C9.05908 14.0552 9.67368 13.4543 9.67368 12.2683C9.67368 11.0846 9.06136 10.4837 7.85037 10.4837C6.63939 10.4837 6.02707 11.0846 6.02707 12.2683C6.02479 13.4543 6.63939 14.0552 7.85037 14.0552ZM10.3452 12.2683C10.3452 13.8207 9.43467 14.713 7.8481 14.713C6.26153 14.713 5.35101 13.8207 5.35101 12.2683C5.35101 10.7159 6.26153 9.82586 7.8481 9.82586C9.43694 9.82586 10.3452 10.7159 10.3452 12.2683ZM15.724 16.8323C16.7848 16.5181 17.3243 16.0947 17.3243 15.5735V12.933C16.9623 13.2061 16.4866 13.4406 15.9266 13.6045C14.9364 13.8959 13.639 14.0552 12.2709 14.0552L12.0091 14.0529C11.9727 14.0506 11.9363 14.0438 11.9022 14.0302C11.8726 14.1212 11.8498 14.2191 11.8157 14.3033L12.4189 14.8951C12.7603 15.2252 12.7694 15.7692 12.4394 16.1107L12.4189 16.1312L11.802 16.7344C11.4492 17.0758 10.8892 17.0758 10.5387 16.7344L9.93545 16.1426C9.68506 16.245 9.42556 16.3247 9.16151 16.3793V16.8755C10.8004 17.2488 11.6814 17.2511 12.2641 17.2511C13.5593 17.2579 14.7885 17.1077 15.724 16.8323ZM8.48546 16.113C8.48546 15.9513 8.6061 15.8125 8.76771 15.7875C9.14558 15.7328 9.51206 15.6213 9.85578 15.4574C9.98553 15.3959 10.138 15.421 10.2427 15.5211L11.0121 16.2746C11.0986 16.3588 11.2375 16.3588 11.3263 16.2746L11.9431 15.6691C11.9841 15.6281 12.0091 15.5735 12.0069 15.5166C12.0069 15.4597 11.9841 15.4028 11.9431 15.3641L11.1715 14.6106C11.069 14.5127 11.044 14.3579 11.1077 14.2327C11.2648 13.9232 11.3786 13.5658 11.4423 13.1674C11.4697 13.0058 11.6108 12.8897 11.7747 12.8897H12.8149C12.9333 12.8897 13.0289 12.7964 13.0289 12.6803V11.8563C13.0289 11.7402 12.9333 11.6446 12.8172 11.6469H11.777C11.6131 11.6492 11.4742 11.5308 11.4446 11.3715C11.3877 11.0004 11.2739 10.6408 11.11 10.3039C11.0463 10.1787 11.0713 10.0239 11.1737 9.92602L11.9431 9.17257C11.9841 9.1316 12.0091 9.07697 12.0069 9.02006C12.0069 8.96315 11.9841 8.90625 11.9431 8.86755L11.3263 8.26433C11.2398 8.18011 11.1009 8.18011 11.0121 8.26433L10.2427 9.01778C10.1403 9.11794 9.98553 9.14298 9.85578 9.08152C9.51206 8.91763 9.14558 8.80609 8.76771 8.75146C8.6061 8.7287 8.48546 8.58984 8.48546 8.42595V7.40845C8.48318 7.29236 8.38758 7.19903 8.27149 7.19903H7.42698C7.31089 7.19903 7.21529 7.29236 7.21301 7.40845V8.42595C7.21301 8.58757 7.09237 8.72414 6.93075 8.75146C6.55289 8.80609 6.18641 8.91763 5.84269 9.07924C5.71294 9.14298 5.55815 9.11794 5.45572 9.01778L4.68634 8.26433C4.59984 8.18011 4.46099 8.18011 4.37221 8.26433L3.75534 8.86755C3.71436 8.90852 3.68933 8.96315 3.6916 9.02006C3.6916 9.07924 3.71436 9.1316 3.75534 9.17257L4.52245 9.92374C4.62943 10.0285 4.65219 10.1901 4.57708 10.3175C4.42001 10.5884 4.30392 11.0528 4.25157 11.3692C4.22198 11.5308 4.08312 11.6469 3.91923 11.6446H2.88352C2.76743 11.6446 2.67183 11.7379 2.66955 11.854V12.6803C2.66955 12.7941 2.76515 12.8897 2.88352 12.8897H3.92378C4.08768 12.8897 4.22881 13.0081 4.25612 13.1674C4.30848 13.4839 4.42457 13.9482 4.58163 14.2191C4.65675 14.3466 4.63398 14.5105 4.527 14.6129L3.75989 15.3641C3.71892 15.405 3.69388 15.4597 3.69615 15.5166C3.69615 15.5758 3.71892 15.6281 3.75989 15.6691L4.37676 16.2746C4.46326 16.3588 4.60439 16.3588 4.69089 16.2746L5.46027 15.5211C5.56271 15.421 5.71749 15.3959 5.84724 15.4597C6.16365 15.6122 6.52785 15.7237 6.93531 15.7875C7.09692 15.8125 7.21529 15.9491 7.21757 16.1107V17.1282C7.21757 17.2443 7.31317 17.3376 7.43154 17.3376H8.27604C8.3944 17.3376 8.49001 17.2443 8.49001 17.1282L8.48546 16.113ZM8.79958 3.08123C7.91183 3.34301 7.37463 3.69811 7.23805 4.10784C7.24033 4.11467 7.24716 4.11922 7.24716 4.12605C7.38373 4.5335 7.92549 4.88633 8.80641 5.14355C9.73514 5.4167 10.9643 5.56921 12.2664 5.56921C13.5707 5.56921 14.7999 5.41898 15.7263 5.14355C16.589 4.89088 17.124 4.54944 17.2787 4.15564C17.281 4.14881 17.2878 4.14198 17.2924 4.13515C17.1672 3.70494 16.6414 3.35211 15.7218 3.08123C14.793 2.80808 13.5638 2.65785 12.2595 2.65785C10.9552 2.65785 9.72603 2.80808 8.79958 3.08123ZM12.4166 8.40319C12.585 8.56708 12.6784 8.78788 12.6784 9.02006C12.6784 9.18168 12.6192 9.32963 12.5372 9.46393C13.7209 9.44345 14.8682 9.30459 15.7309 9.04965C16.655 8.77877 17.1513 8.35994 17.3243 8.04581V5.11851C16.9828 5.38028 16.5185 5.60108 15.9244 5.77635C14.9342 6.06772 13.6367 6.22934 12.2686 6.22934C10.9029 6.22934 9.60539 6.07 8.6152 5.77635C8.01199 5.5988 7.5408 5.37345 7.19936 5.10713V6.58899C7.27447 6.5685 7.34731 6.54346 7.42926 6.54346H8.27376C8.76316 6.54346 9.15924 6.93271 9.15924 7.41073V8.15507C9.43467 8.21425 9.68733 8.29165 9.93317 8.3918L10.5387 7.79997C10.8915 7.45853 11.4492 7.45853 11.802 7.79997C11.7997 7.79997 12.4166 8.40319 12.4166 8.40319ZM12.8172 10.989C13.3043 10.989 13.7027 11.3783 13.7027 11.8563V12.6826C13.7027 12.9649 13.557 13.2039 13.343 13.3632C14.2376 13.304 15.0662 13.1743 15.7331 12.9762C16.655 12.7054 17.1558 12.2865 17.3265 11.9747V9.01095C16.9646 9.28411 16.4889 9.51629 15.9289 9.68246C14.9387 9.97382 13.6412 10.1332 12.2732 10.1332C12.1548 10.1332 12.0387 10.1309 11.9204 10.1309L11.8157 10.2333C11.9158 10.4678 11.9955 10.7227 12.0569 10.9913L12.8172 10.989ZM15.9152 2.45298C17.2947 2.85816 17.9958 3.49324 17.9958 4.3423V15.5758C17.9958 16.4225 17.297 17.0576 15.9175 17.4651C14.9228 17.7564 13.6253 17.9181 12.2618 17.9181C11.654 17.9181 10.7344 17.9158 9.04542 17.5334C8.89519 17.8065 8.61065 18 8.27376 18H7.42698C6.93986 18 6.54151 17.6108 6.54151 17.1327V16.3861C6.27746 16.3315 6.01796 16.2518 5.76757 16.1494L5.16208 16.7412C4.80926 17.0827 4.24929 17.0827 3.89874 16.7412L3.28187 16.1357C3.11343 15.9741 3.0201 15.751 3.0201 15.5166C3.0201 15.2821 3.11343 15.0636 3.28187 14.8997L3.88053 14.3147C3.78038 14.0666 3.70071 13.8116 3.6438 13.5499H2.88352C2.3964 13.5499 1.99805 13.1606 1.99805 12.6826V11.8563C1.99805 11.3783 2.3964 10.989 2.88352 10.989H3.6438C3.6916 10.7751 3.769 10.486 3.88053 10.2265L3.28187 9.64149C3.11343 9.47987 3.0201 9.25679 3.0201 9.02234C3.0201 8.79015 3.11343 8.56936 3.28187 8.40546L3.89647 7.80225C4.24929 7.4608 4.80698 7.4608 5.15981 7.80225L5.7653 8.39408C6.01569 8.29165 6.27518 8.21198 6.53923 8.15735V7.95248C6.5324 7.92744 6.5233 7.9024 6.5233 7.87509V4.3423C6.5233 4.21027 6.54151 4.07825 6.57793 3.95305V3.95078C6.77141 3.29521 7.45202 2.78987 8.60155 2.45298C9.59401 2.16162 10.8915 2 12.2595 2C13.6276 2 14.9273 2.15934 15.9152 2.45298Z" fill="#86888C"/>
</svg>
