<svg width="24" height="24" viewBox="0 0 24 24" fill="none" xmlns="http://www.w3.org/2000/svg">
<path fill-rule="evenodd" clip-rule="evenodd" d="M8.36491 16.9404C9.67657 16.9404 10.0379 16.4596 10.0379 14.7097C10.0379 13.6172 9.87859 13.0339 9.50301 12.7522C9.26117 12.5701 8.88844 12.4819 8.36776 12.4819C7.84139 12.4819 7.46866 12.573 7.22397 12.7579C6.85408 13.0396 6.69475 13.6257 6.69475 14.7097C6.6919 16.4596 7.0504 16.9404 8.36491 16.9404ZM8.36776 11.1788C7.2325 11.1788 7.2325 11.432 7.2325 11.7507C7.2325 11.782 7.23535 11.7991 7.23819 11.8247C7.55402 11.7109 7.9239 11.6483 8.36491 11.6483C8.81162 11.6483 9.1815 11.7109 9.49732 11.8275C9.50017 11.8019 9.50301 11.782 9.50301 11.7507C9.50301 11.4292 9.50301 11.1788 8.36776 11.1788ZM11.4406 13.9785C11.6711 13.9785 11.8589 14.1635 11.8589 14.3939V15.0483C11.8589 15.2788 11.6711 15.4637 11.4435 15.4637C11.213 15.4637 11.0252 15.2788 11.0252 15.0483V14.8065H10.8687C10.863 15.3357 10.8147 15.8052 10.7009 16.212L11.3496 16.4084C11.5317 16.4653 11.654 16.6388 11.6455 16.8295L11.5914 17.8168C11.58 18.0387 11.3951 18.2123 11.176 18.2123H11.1533C10.9228 18.2009 10.7464 18.0046 10.7578 17.7741L10.7919 17.1111L10.3509 16.9774C9.98102 17.4782 9.36644 17.7684 8.36491 17.7684C7.35769 17.7684 6.74312 17.4782 6.37323 16.9746L5.91799 17.1111L5.95214 17.7741C5.96352 18.0017 5.78996 18.198 5.55949 18.2123H5.53388C5.31195 18.2123 5.12986 18.0387 5.11848 17.8196L5.06726 16.8323C5.05588 16.6417 5.17823 16.4681 5.36032 16.4112L6.02327 16.212C5.9123 15.8052 5.86393 15.3386 5.85824 14.8093H5.70175V15.0483C5.70175 15.2788 5.51397 15.4637 5.28635 15.4637C5.05588 15.4637 4.8681 15.2788 4.8681 15.0483V14.3911C4.8681 14.1606 5.05588 13.9757 5.2835 13.9757H5.88101C5.91515 13.5688 5.99766 13.1762 6.1513 12.8262L5.35748 12.5872C5.17538 12.5303 5.05304 12.3567 5.06442 12.1661L5.11563 11.1788C5.12701 10.9483 5.32049 10.7577 5.5538 10.7833C5.78427 10.7947 5.96067 10.991 5.94929 11.2215L5.91515 11.8844L6.41876 12.0352C6.40453 11.9413 6.396 11.8446 6.396 11.7478C6.396 10.3423 7.77594 10.3423 8.36776 10.3423C8.95673 10.3423 10.3367 10.3423 10.3367 11.7478C10.3367 11.8474 10.3281 11.9385 10.3139 12.0295L10.7919 11.8844L10.7578 11.2215C10.7464 10.991 10.9228 10.7947 11.1504 10.7833C11.3723 10.7634 11.5687 10.9284 11.5886 11.1532V11.1788L11.6426 12.1661C11.6512 12.3567 11.5317 12.5303 11.3467 12.5872L10.5671 12.8233C10.7236 13.1733 10.8061 13.5688 10.8403 13.9785H11.4406ZM8.33646 13.2444C8.56693 13.2444 8.75471 13.4294 8.75471 13.6599V16.1181C8.75471 16.3486 8.56693 16.5364 8.33646 16.5364C8.10599 16.5364 7.91821 16.3486 7.91821 16.1181V13.6599C7.92105 13.4322 8.10599 13.2444 8.33646 13.2444ZM21.1629 9.18996V5.77565C20.7674 6.0744 20.2382 6.32479 19.5667 6.5268C18.4144 6.87392 16.9007 7.06455 15.3045 7.06455C13.7083 7.06455 12.1975 6.87392 11.0423 6.52964C10.3623 6.32479 9.82453 6.06871 9.42619 5.76712V7.77017C10.3424 7.96365 10.9797 8.38475 11.563 8.76886C12.3682 9.30092 12.9998 9.71917 14.2233 9.53139C14.3485 9.51432 14.4737 9.54561 14.5704 9.62528C14.6615 9.70495 14.7269 9.81591 14.7297 9.93826C14.7297 9.98947 14.7297 10.3366 14.7269 10.8544C14.9204 10.8601 15.111 10.8687 15.3073 10.8687C16.8239 10.8687 18.2522 10.6894 19.3277 10.3679C20.389 10.0435 20.9609 9.55699 21.1629 9.18996ZM21.1629 13.8448V10.3907C20.7446 10.7036 20.204 10.9682 19.5667 11.1589C18.4144 11.506 16.9007 11.6966 15.3045 11.6966C15.1053 11.6966 14.909 11.6852 14.7127 11.6796C14.6956 12.812 14.6501 14.2858 14.5448 15.4922C14.7952 15.5036 15.0456 15.5178 15.3045 15.5178C16.8182 15.5178 18.2465 15.3385 19.3248 15.017C20.3861 14.6955 20.9637 14.209 21.1629 13.8448ZM21.1629 18.1184V15.0455C20.7446 15.3585 20.204 15.6231 19.5667 15.8137C18.4115 16.1608 16.9007 16.3515 15.3045 16.3515C15.0171 16.3515 14.7383 16.3344 14.4594 16.323C14.4395 16.4823 14.4168 16.6303 14.394 16.7669C14.2034 17.8538 13.2018 18.9122 12.0808 19.7885C13.0254 19.9848 14.1351 20.093 15.2931 20.093C16.8039 20.093 18.2323 19.9137 19.3163 19.5894C20.5426 19.2223 21.1629 18.7272 21.1629 18.1184ZM8.36491 21.1201C9.86721 20.3832 13.2673 18.3801 13.5717 16.6246C13.6087 16.4197 13.6372 16.1807 13.6656 15.9218C13.6656 15.9048 13.6571 15.8848 13.6599 15.8678C13.6628 15.845 13.6742 15.8251 13.6798 15.8023C13.8136 14.4736 13.8648 12.6185 13.8819 11.3523C13.8733 11.3125 13.8619 11.2727 13.8648 11.2328C13.8648 11.2044 13.8762 11.1816 13.8847 11.1532C13.8876 10.8573 13.8904 10.5955 13.8904 10.3963C12.6157 10.4646 11.8447 9.95533 11.0992 9.4631C10.3481 8.96803 9.63674 8.49856 8.36776 8.49571H8.36207C7.09024 8.49571 6.37893 8.96518 5.62778 9.4631C4.87379 9.96102 4.10557 10.4618 2.83658 10.402C2.84227 11.6454 2.88495 15.0569 3.16094 16.6246C3.46823 18.3773 6.86262 20.3803 8.36491 21.1201ZM11.2699 3.33442C10.2513 3.64171 9.63674 4.05427 9.47741 4.52943C9.47741 4.53228 9.4831 4.53512 9.4831 4.53797C9.63959 5.01312 10.2627 5.42569 11.2841 5.73297C12.3625 6.05449 13.788 6.23374 15.3045 6.23374C16.821 6.23374 18.2493 6.05449 19.3248 5.73297C20.3178 5.43422 20.9352 5.03589 21.1117 4.57495C21.1145 4.56926 21.1202 4.56357 21.123 4.55788C20.9751 4.06281 20.3719 3.65309 19.3163 3.33442C18.2408 3.01291 16.8096 2.83366 15.2931 2.83366C13.7737 2.83366 12.3454 3.01007 11.2699 3.33442ZM19.5581 2.53775C21.1771 3.02429 21.9965 3.78397 21.9965 4.80257V18.1184C21.9965 19.137 21.1771 19.8995 19.5581 20.386C18.3973 20.7332 16.8836 20.9238 15.2931 20.9238C13.7766 20.9238 12.3369 20.7445 11.1988 20.4287C10.3509 21.0006 9.46318 21.5099 8.54132 21.9595C8.42751 22.0135 8.29663 22.0135 8.18566 21.9595C7.96658 21.8542 2.79675 19.393 2.33866 16.7669C1.98585 14.7638 2.00008 10.1289 2.00008 9.93257C2.00292 9.7021 2.19071 9.51432 2.42118 9.51716C2.45247 9.51716 2.48377 9.52001 2.51507 9.52854C3.72715 9.71917 4.36164 9.29808 5.16685 8.76601C5.94929 8.24818 6.83701 7.66206 8.36207 7.66206H8.36776C8.44742 7.66206 8.51856 7.67059 8.58969 7.67344V4.80257C8.58969 4.6404 8.61245 4.48391 8.65513 4.33311L8.65797 4.33026C8.88559 3.54497 9.68511 2.94178 11.0281 2.5406C12.1804 2.19063 13.6969 2 15.2931 2C16.8921 2 18.4058 2.19063 19.5581 2.53775Z" fill="#86888C"/>
</svg>
