<svg width="40" height="40" viewBox="0 0 40 40" fill="none" xmlns="http://www.w3.org/2000/svg">
<path fill-rule="evenodd" clip-rule="evenodd" d="M32.1321 32.8571C33.1053 32.8571 33.4844 32.473 33.4844 31.4843C33.4844 30.5009 33.1053 30.1116 32.1321 30.1116C31.1588 30.1116 30.7798 30.4957 30.7798 31.4843C30.7746 32.473 31.1537 32.8571 32.1321 32.8571ZM32.1321 28.58C33.93 28.58 35.0057 29.6659 35.0057 31.4895C35.0057 33.3079 33.9351 34.399 32.1321 34.399C30.3341 34.399 29.2635 33.313 29.2635 31.4895C29.2584 29.671 30.329 28.58 32.1321 28.58ZM32.1321 21.3728C33.1053 21.3728 33.4844 20.9886 33.4844 20C33.4844 19.0165 33.1053 18.6272 32.1321 18.6272C31.1588 18.6272 30.7798 19.0114 30.7798 20C30.7746 20.9886 31.1537 21.3728 32.1321 21.3728ZM32.1321 17.0905C33.93 17.0905 35.0057 18.1764 35.0057 20C35.0057 21.8184 33.9351 22.9095 32.1321 22.9095C30.3341 22.9095 29.2635 21.8236 29.2635 20C29.2584 18.1816 30.329 17.0905 32.1321 17.0905ZM32.1628 7.14286C31.1896 7.14286 30.8105 7.52703 30.8105 8.51565C30.8105 9.49915 31.1896 9.88332 32.1628 9.88332C33.1361 9.88332 33.5202 9.49915 33.5202 8.51565C33.5202 7.53728 33.1258 7.14286 32.1628 7.14286ZM32.1628 11.42C30.3649 11.42 29.2943 10.3341 29.2943 8.51565C29.2943 6.69721 30.3649 5.60615 32.1628 5.60615C33.9608 5.60615 35.0364 6.69209 35.0364 8.51565C35.0364 10.3341 33.9608 11.42 32.1628 11.42ZM36.5732 35.654L36.5834 27.3199C36.5834 26.8742 36.2248 26.5157 35.7843 26.5105H4.43031C3.98466 26.5105 3.62609 26.8742 3.63122 27.3199L3.61585 35.654C3.61585 36.0996 3.97441 36.4633 4.41494 36.4633H35.7689C36.2146 36.4633 36.5732 36.0996 36.5732 35.654ZM3.62609 4.34604L3.61585 12.6801C3.61585 13.1258 3.97441 13.4895 4.41494 13.4895H35.7689C36.2146 13.4895 36.5732 13.1258 36.568 12.6801L36.5783 4.34604C36.5783 3.9004 36.2197 3.53671 35.7792 3.53671H4.43031C3.98466 3.53671 3.62609 3.9004 3.62609 4.34604ZM4.41494 24.9789H35.7689C36.2146 24.9738 36.5732 24.6153 36.568 24.1696L36.5783 15.8355C36.5783 15.3899 36.2197 15.0262 35.7792 15.0262H4.43031C3.98466 15.0313 3.62609 15.3899 3.63122 15.8355L3.62097 24.1696C3.61585 24.6101 3.97441 24.9789 4.41494 24.9789ZM38.0996 15.8355L38.0894 24.1696C38.0894 24.774 37.8538 25.3221 37.4798 25.7422C37.8589 26.1571 38.0996 26.7154 38.0996 27.325L38.0894 35.654C38.0894 36.9448 37.0495 38 35.7689 38H4.41494C3.12922 37.9898 2.09451 36.9397 2.09963 35.654L2.10987 27.3199C2.10987 26.7154 2.3455 26.1673 2.71943 25.7524C2.32501 25.317 2.09963 24.7536 2.09963 24.1645L2.10987 15.8304C2.10987 15.2208 2.3455 14.6779 2.71943 14.2578C2.32501 13.8327 2.09963 13.2641 2.09963 12.6801L2.10987 4.34604C2.10987 3.05521 3.14971 2 4.43031 2H35.7843C37.0598 2 38.0996 3.05521 38.0996 4.34604L38.0894 12.6801C38.0894 13.2846 37.8538 13.8327 37.4798 14.2527C37.8589 14.6676 38.0996 15.2208 38.0996 15.8355ZM6.91465 9.27888C6.49462 9.27888 6.15654 8.93569 6.15654 8.51053C6.15654 8.08537 6.49462 7.74217 6.91465 7.74217H17.4411C17.8612 7.74217 18.1992 8.08537 18.1992 8.51053C18.2043 8.93056 17.8663 9.27376 17.4411 9.27888H6.91465ZM17.4411 19.2316C17.8612 19.2316 18.1992 19.5748 18.1992 20C18.1992 20.42 17.8612 20.7632 17.4411 20.7684H6.91465C6.49462 20.7684 6.15654 20.4252 6.15654 20.0051C6.15654 19.58 6.49462 19.2368 6.91465 19.2368C6.91465 19.2316 17.4411 19.2316 17.4411 19.2316ZM17.4411 30.7928C17.8612 30.7928 18.1992 31.136 18.1992 31.5612C18.1992 31.9812 17.8612 32.3244 17.4411 32.3295H6.91465C6.49462 32.3295 6.15654 31.9863 6.15654 31.5663C6.15654 31.1411 6.49462 30.798 6.91465 30.798H17.4411V30.7928Z" fill="#86888C"/>
</svg>
