<svg width="40" height="40" viewBox="0 0 40 40" fill="none" xmlns="http://www.w3.org/2000/svg">
<path fill-rule="evenodd" clip-rule="evenodd" d="M33.1686 33.6654C31.212 34.2493 28.6406 34.5669 25.9207 34.5669C23.836 34.5669 21.8435 34.3773 20.1378 34.0239C22.1559 32.4514 23.959 30.5459 24.3021 28.5841C24.3482 28.3178 24.3841 28.0514 24.4199 27.7851C24.9219 27.8056 25.4239 27.8312 25.9412 27.8312C28.8097 27.8312 31.5347 27.488 33.6143 26.8631C34.7565 26.5199 35.7297 26.0435 36.4878 25.4801V31.0172C36.4929 32.1133 35.3712 32.9995 33.1686 33.6654ZM4.08487 28.3229C3.93633 27.3753 3.82876 26.4175 3.77242 25.4596H12.6184V35.9908C9.65781 34.4234 4.58685 31.1965 4.08487 28.3229ZM8.52581 15.4252C9.70903 14.6467 10.8308 13.9091 12.6184 13.7298V23.9639H3.6751C3.54192 21.326 3.50607 18.4883 3.50094 17.1207C5.75983 17.2231 7.16843 16.3216 8.52581 15.4252ZM15.3639 8.77665C16.081 9.32473 17.0491 9.7806 18.2733 10.1494C20.3529 10.7743 23.0779 11.1175 25.9464 11.1175C28.8148 11.1175 31.5398 10.7743 33.6194 10.1494C34.8385 9.78572 35.7861 9.34009 36.4929 8.80738V14.9438C36.1344 15.6045 35.1048 16.4804 33.1891 17.049C31.2478 17.6329 28.6765 17.9556 25.9515 17.9556C25.5981 17.9556 25.2549 17.9351 24.9066 17.9249C24.9117 16.9926 24.9117 16.3677 24.9117 16.2755C24.9014 16.0553 24.799 15.8504 24.6248 15.7121C24.4507 15.5738 24.2253 15.5123 23.9999 15.5482C21.7974 15.8862 20.6551 15.1333 19.2056 14.1754C18.1606 13.4839 17.0081 12.7259 15.3639 12.3827V8.77665ZM18.678 4.40231C20.6244 3.8235 23.1906 3.5008 25.9207 3.5008C28.6509 3.5008 31.2222 3.8235 33.1635 4.40231C35.0587 4.97087 36.1446 5.70846 36.4161 6.60485C36.411 6.61509 36.4007 6.62533 36.3956 6.63558C36.078 7.46537 34.9665 8.18248 33.1789 8.72031C31.2376 9.29911 28.6662 9.62181 25.9412 9.62181C23.2162 9.62181 20.6449 9.29911 18.7036 8.72031C16.8698 8.16711 15.7481 7.42952 15.4612 6.56899C15.4612 6.56387 15.4561 6.55875 15.451 6.55362C15.743 5.69822 16.8494 4.9555 18.678 4.40231ZM24.8809 19.4206C25.2344 19.4308 25.5878 19.4513 25.9464 19.4513C28.8148 19.4513 31.5398 19.1081 33.6194 18.4832C34.7668 18.14 35.7349 17.6636 36.4929 17.1053V23.3237C36.1344 23.9844 35.0946 24.8552 33.1891 25.4289C31.2478 26.0128 28.6765 26.3304 25.9515 26.3304C25.4854 26.3304 25.0397 26.3048 24.589 26.2894C24.7631 24.1176 24.8451 21.4592 24.8809 19.4206ZM14.1192 13.7196C15.9991 13.8681 17.1618 14.6262 18.3758 15.4304C19.7178 16.3165 21.111 17.2385 23.4006 17.1104C23.4006 17.469 23.3955 17.9454 23.3904 18.4832C23.3801 18.5293 23.3597 18.5754 23.3545 18.6215C23.3494 18.6932 23.3699 18.7598 23.3853 18.8264C23.3648 20.5423 23.3136 22.2531 23.2316 23.9639H14.1192V13.7196ZM14.1192 36.0728V25.4596H23.1394C23.1035 25.9411 23.0677 26.4021 23.0216 26.8324C23.0113 26.8785 22.9909 26.9194 22.9857 26.9604C22.9857 26.9963 22.996 27.027 22.996 27.0577C22.9448 27.5239 22.8935 27.9541 22.8269 28.3229C22.3147 31.2477 17.044 34.5464 14.1192 36.0728ZM25.9259 2C23.0574 2 20.3324 2.34319 18.2528 2.96809C15.83 3.69544 14.3907 4.78135 13.9809 6.18995V6.19507C13.9041 6.47167 13.8631 6.75339 13.8631 7.04023V12.2034C13.7299 12.1983 13.6019 12.1829 13.4585 12.1829C10.7079 12.1829 9.10974 13.2381 7.70114 14.1703C6.25156 15.1282 5.11443 15.8914 2.93238 15.5482C2.52773 15.4509 2.11795 15.6967 2.02063 16.1014C2.00526 16.1577 2.00014 16.2192 2.00014 16.2755C2.00014 16.629 1.97453 24.973 2.60968 28.579C3.42923 33.3119 12.7311 37.7426 13.1307 37.927C13.3355 38.0243 13.5712 38.0243 13.7709 37.927C13.9604 37.8348 16.1886 36.7745 18.555 35.1764C20.6039 35.745 23.1957 36.0677 25.9207 36.0677C28.7789 36.0677 31.5091 35.7245 33.5989 35.0996C36.5134 34.2237 37.9886 32.8509 37.9886 31.0223V7.04535C37.9886 5.21673 36.5134 3.84399 33.5989 2.96809C31.5244 2.34319 28.7943 2 25.9259 2Z" fill="#86888C"/>
</svg>
