<svg width="24" height="24" viewBox="0 0 24 24" fill="none" xmlns="http://www.w3.org/2000/svg">
<path fill-rule="evenodd" clip-rule="evenodd" d="M19.1973 20.634C18.0477 20.9784 16.5366 21.1662 14.9401 21.1662C13.3465 21.1662 11.8325 20.9784 10.6857 20.634C9.38231 20.2413 8.71925 19.7092 8.71925 19.0546V17.7342C9.90024 17.8765 11.0926 17.5834 12.0687 16.9061C12.1171 16.9374 12.174 16.9602 12.2309 16.9687C13.0846 17.0911 13.9981 17.1537 14.9515 17.1537C16.6362 17.1537 18.2326 16.9545 19.4478 16.5874C20.1364 16.3825 20.717 16.0894 21.1638 15.7479V19.0546C21.1609 19.712 20.5007 20.2413 19.1973 20.634ZM9.28271 8.71884C11.5508 8.72168 13.3891 10.56 13.392 12.8281C13.3891 15.0962 11.5508 16.9345 9.28271 16.9374C7.01464 16.9345 5.17628 15.0962 5.17344 12.8281C5.17628 10.56 7.01464 8.72168 9.28271 8.71884ZM8.71641 5.91007C9.13758 6.24303 9.71527 6.52476 10.4552 6.74957C11.6732 7.11383 13.2696 7.31588 14.9486 7.31588C16.6305 7.31588 18.2269 7.11383 19.4449 6.74957C20.182 6.5276 20.7454 6.25726 21.1609 5.93284V9.60102C20.9503 9.99374 20.3385 10.5174 19.2059 10.8589C18.0647 11.2032 16.5536 11.391 14.9401 11.391C14.8149 11.3882 14.3368 11.391 14.0038 11.3711C13.3607 9.30222 11.4483 7.89072 9.28271 7.88788C9.09205 7.88788 8.90138 7.90211 8.71641 7.92203V5.91007ZM10.6828 3.36596C11.8211 3.02163 13.3351 2.83381 14.9372 2.83381C16.5451 2.83381 18.0562 3.02163 19.1945 3.36596C20.3214 3.70461 20.9674 4.14855 21.1211 4.6864C21.1182 4.69493 21.1097 4.70063 21.104 4.71201C20.9162 5.20433 20.256 5.63404 19.2002 5.95276C18.059 6.29425 16.5479 6.48492 14.9458 6.48492C13.3436 6.48492 11.8325 6.2971 10.6914 5.95276C9.60713 5.6255 8.94407 5.18156 8.77332 4.67217C8.77048 4.66363 8.76478 4.65794 8.76194 4.6494C8.93553 4.13717 9.59575 3.69323 10.6828 3.36596ZM14.2258 12.8253C14.2258 12.6175 14.2087 12.4126 14.1831 12.2106C14.4848 12.2191 14.8092 12.222 14.9429 12.222H14.9543C16.639 12.222 18.2326 12.0199 19.4506 11.6557C20.1393 11.4479 20.7227 11.1577 21.1666 10.8162V14.5327C20.956 14.9226 20.3413 15.4491 19.2116 15.7877C18.0733 16.1292 16.5622 16.3199 14.9572 16.3199C14.2372 16.3199 13.5514 16.2715 12.8911 16.2003C13.7449 15.2869 14.223 14.0803 14.2258 12.8253ZM19.4364 2.56631C18.2241 2.20205 16.6248 2 14.9372 2C13.2525 2 11.6561 2.20205 10.4409 2.56631C9.0266 2.99317 8.18994 3.62493 7.95374 4.44735V4.4502C7.90821 4.60956 7.88545 4.77746 7.88545 4.94252V8.08993C5.83934 8.69607 4.34247 10.5885 4.34247 12.8253C4.34247 14.103 4.83479 15.2641 5.63445 16.1406L2.11709 19.6551C1.95773 19.8201 1.96057 20.0848 2.12847 20.2442C2.29068 20.4007 2.5468 20.4007 2.70616 20.2442L6.2406 16.7126C6.73007 17.0968 7.28784 17.387 7.88545 17.5635V19.0546C7.88545 20.1218 8.74486 20.9215 10.4438 21.4337C11.6703 21.798 13.2668 22 14.9401 22C16.6162 22 18.2127 21.798 19.4392 21.4308C21.1381 20.9186 21.9976 20.119 21.9976 19.0546V4.94536C21.9947 3.8782 21.1353 3.07854 19.4364 2.56631Z" fill="#86888C"/>
</svg>
