<svg width="28" height="28" viewBox="0 0 28 28" fill="none" xmlns="http://www.w3.org/2000/svg">
<path fill-rule="evenodd" clip-rule="evenodd" d="M22.6368 24.3608C21.2572 24.774 19.4439 24.9994 17.5281 24.9994C15.6157 24.9994 13.799 24.774 12.4228 24.3608C10.8588 23.8896 10.0631 23.251 10.0631 22.4656V20.881C11.4803 21.0518 12.9111 20.7001 14.0825 19.8873C14.1405 19.9249 14.2088 19.9522 14.2771 19.9624C15.3016 20.1093 16.3978 20.1844 17.5418 20.1844C19.5634 20.1844 21.4792 19.9454 22.9373 19.5048C23.7637 19.259 24.4604 18.9072 24.9965 18.4974V22.4656C24.9931 23.2544 24.2008 23.8896 22.6368 24.3608ZM10.7393 10.0626C13.4609 10.066 15.667 12.2721 15.6704 14.9937C15.667 17.7154 13.4609 19.9215 10.7393 19.9249C8.01757 19.9215 5.81154 17.7154 5.80812 14.9937C5.81154 12.2721 8.01757 10.066 10.7393 10.0626ZM10.0597 6.69209C10.5651 7.09163 11.2583 7.42971 12.1462 7.69949C13.6078 8.1366 15.5235 8.37906 17.5383 8.37906C19.5566 8.37906 21.4723 8.1366 22.9339 7.69949C23.8184 7.43312 24.4945 7.10871 24.9931 6.71941V11.1212C24.7404 11.5925 24.0062 12.2208 22.6471 12.6306C21.2777 13.0438 19.4644 13.2692 17.5281 13.2692C17.3778 13.2658 16.8041 13.2692 16.4046 13.2453C15.6328 10.7627 13.338 9.06887 10.7393 9.06545C10.5105 9.06545 10.2817 9.08253 10.0597 9.10643V6.69209ZM12.4194 3.63916C13.7854 3.22595 15.6021 3.00057 17.5247 3.00057C19.4541 3.00057 21.2674 3.22595 22.6334 3.63916C23.9857 4.04553 24.7609 4.57826 24.9453 5.22368C24.9419 5.23392 24.9316 5.24075 24.9248 5.25441C24.6994 5.84519 23.9072 6.36084 22.6402 6.74331C21.2708 7.1531 19.4575 7.3819 17.5349 7.3819C15.6123 7.3819 13.799 7.15652 12.4296 6.74331C11.1286 6.3506 10.3329 5.81787 10.128 5.2066C10.1246 5.19636 10.1177 5.18953 10.1143 5.17928C10.3226 4.5646 11.1149 4.03187 12.4194 3.63916ZM16.671 14.9903C16.671 14.741 16.6505 14.4952 16.6197 14.2527C16.9817 14.2629 17.371 14.2664 17.5315 14.2664H17.5452C19.5668 14.2664 21.4792 14.0239 22.9407 13.5868C23.7671 13.3375 24.4672 12.9892 24.9999 12.5794V17.0393C24.7472 17.5071 24.0096 18.1389 22.6539 18.5452C21.2879 18.955 19.4746 19.1838 17.5486 19.1838C16.6846 19.1838 15.8616 19.1258 15.0694 19.0404C16.0938 17.9442 16.6675 16.4963 16.671 14.9903ZM22.9237 2.67957C21.4689 2.24246 19.5497 2 17.5247 2C15.5031 2 13.5873 2.24246 12.1291 2.67957C10.4319 3.1918 9.42793 3.94991 9.14449 4.93682V4.94024C9.08985 5.13147 9.06253 5.33295 9.06253 5.53102V9.30791C6.60721 10.0353 4.81097 12.3062 4.81097 14.9903C4.81097 16.5236 5.40175 17.9169 6.36134 18.9687L2.14051 23.1861C1.94927 23.3842 1.95269 23.7018 2.15417 23.893C2.34882 24.0808 2.65616 24.0808 2.84739 23.893L7.08872 19.6551C7.67608 20.1161 8.3454 20.4644 9.06253 20.6762V22.4656C9.06253 23.7462 10.0938 24.7057 12.1325 25.3204C13.6044 25.7575 15.5201 26 17.5281 26C19.5395 26 21.4552 25.7575 22.9271 25.317C24.9658 24.7023 25.9971 23.7427 25.9971 22.4656V5.53443C25.9937 4.25384 24.9624 3.29425 22.9237 2.67957Z" fill="#86888C"/>
</svg>
