<svg width="40" height="40" viewBox="0 0 40 40" fill="none" xmlns="http://www.w3.org/2000/svg">
<path fill-rule="evenodd" clip-rule="evenodd" d="M32.9552 35.5413C30.8858 36.1611 28.1658 36.4991 25.2921 36.4991C22.4236 36.4991 19.6985 36.1611 17.6342 35.5413C15.2882 34.8344 14.0947 33.8765 14.0947 32.6983V30.3216C16.2204 30.5777 18.3667 30.0501 20.1237 28.831C20.2108 28.8873 20.3132 28.9283 20.4157 28.9437C21.9524 29.1639 23.5966 29.2766 25.3126 29.2766C28.3451 29.2766 31.2187 28.918 33.406 28.2573C34.6456 27.8884 35.6906 27.3608 36.4948 26.7462V32.6983C36.4896 33.8816 35.3013 34.8344 32.9552 35.5413ZM15.1089 14.0939C19.1914 14.099 22.5005 17.4081 22.5056 21.4906C22.5005 25.5731 19.1914 28.8822 15.1089 28.8873C11.0264 28.8822 7.71731 25.5731 7.71218 21.4906C7.71731 17.4081 11.0264 14.099 15.1089 14.0939ZM14.0895 9.03813C14.8476 9.63745 15.8875 10.1446 17.2193 10.5492C19.4117 11.2049 22.2853 11.5686 25.3075 11.5686C28.3348 11.5686 31.2085 11.2049 33.4009 10.5492C34.7276 10.1497 35.7418 9.66306 36.4896 9.07911V15.6818C36.1106 16.3887 35.0093 17.3312 32.9706 17.9459C30.9165 18.5657 28.1965 18.9038 25.2921 18.9038C25.0668 18.8987 24.2062 18.9038 23.6069 18.868C22.4492 15.144 19.007 12.6033 15.1089 12.5982C14.7657 12.5982 14.4225 12.6238 14.0895 12.6596V9.03813ZM17.6291 4.45874C19.678 3.83893 22.4031 3.50085 25.287 3.50085C28.1812 3.50085 30.9011 3.83893 32.9501 4.45874C34.9785 5.0683 36.1413 5.86739 36.4179 6.83552C36.4128 6.85088 36.3974 6.86113 36.3872 6.88162C36.0491 7.76779 34.8607 8.54126 32.9603 9.11497C30.9063 9.72965 28.1863 10.0729 25.3024 10.0729C22.4185 10.0729 19.6985 9.73478 17.6445 9.11497C15.6928 8.5259 14.4993 7.72681 14.192 6.8099C14.1869 6.79454 14.1766 6.78429 14.1715 6.76892C14.484 5.8469 15.6723 5.04781 17.6291 4.45874ZM24.0064 21.4855C24.0064 21.1116 23.9757 20.7427 23.9296 20.3791C24.4726 20.3944 25.0565 20.3995 25.2973 20.3995H25.3178C28.3502 20.3995 31.2187 20.0359 33.4111 19.3802C34.6507 19.0063 35.7008 18.4838 36.4999 17.8691V24.5589C36.1208 25.2607 35.0144 26.2083 32.9808 26.8179C30.9319 27.4326 28.2119 27.7758 25.3229 27.7758C24.0269 27.7758 22.7924 27.6887 21.604 27.5606C23.1408 25.9163 24.0013 23.7444 24.0064 21.4855ZM33.3855 3.01935C31.2034 2.36369 28.3246 2 25.287 2C22.2546 2 19.3809 2.36369 17.1937 3.01935C14.6479 3.78771 13.1419 4.92487 12.7167 6.40524V6.41036C12.6348 6.69721 12.5938 6.99943 12.5938 7.29653V12.9619C8.91082 14.0529 6.21645 17.4593 6.21645 21.4855C6.21645 23.7854 7.10262 25.8754 8.54201 27.453L2.21076 33.7792C1.92391 34.0763 1.92903 34.5526 2.23125 34.8395C2.52323 35.1212 2.98424 35.1212 3.27109 34.8395L9.63307 28.4826C10.5141 29.1742 11.5181 29.6966 12.5938 30.0142V32.6983C12.5938 34.6192 14.1408 36.0586 17.1988 36.9807C19.4065 37.6363 22.2802 38 25.2921 38C28.3092 38 31.1829 37.6363 33.3906 36.9755C36.4487 36.0535 37.9956 34.6141 37.9956 32.6983V7.30165C37.9905 5.38076 36.4435 3.94138 33.3855 3.01935Z" fill="#86888C"/>
</svg>
