<svg width="28" height="28" viewBox="0 0 28 28" fill="none" xmlns="http://www.w3.org/2000/svg">
<path fill-rule="evenodd" clip-rule="evenodd" d="M14.4116 21.5932H13.6875C11.6212 21.5625 6.83279 20.794 6.83279 14.2262C6.83279 7.67208 11.5802 6.92069 13.626 6.9002H13.7695C13.9744 6.9002 14.1827 6.9002 14.3672 6.91044C16.4437 6.96167 21.2628 7.77454 21.2628 14.2672C21.2663 20.7599 16.4745 21.5523 14.4116 21.5932ZM25.4877 13.5261H22.4241C22.3728 13.5261 22.3216 13.5466 22.267 13.5568C22.1338 11.2138 21.3995 9.57104 20.3885 8.44054C20.409 8.43029 20.4295 8.42005 20.4397 8.4098L22.6597 6.21029C22.8544 6.00536 22.8544 5.67748 22.6597 5.47939C22.4548 5.27447 22.1235 5.27447 21.9254 5.47939L19.7054 7.67891C19.6952 7.6994 19.6849 7.71989 19.6747 7.73014C17.827 6.18979 15.5147 5.92339 14.5208 5.88241V2.61387C14.5208 2.32698 14.2852 2.10156 14.0051 2.10156C13.7182 2.10156 13.4894 2.32698 13.4894 2.61387V5.88241C12.4682 5.9029 10.1867 6.13856 8.36972 7.67891C8.34922 7.65841 8.33898 7.63792 8.31849 7.61743L6.1702 5.47939C5.97552 5.27447 5.64423 5.27447 5.44614 5.47939C5.24121 5.67407 5.24121 6.00195 5.44614 6.21029L7.59442 8.34832C7.61491 8.35857 7.63541 8.36882 7.6559 8.38931C6.67568 9.51981 5.95162 11.1729 5.82866 13.5602C5.78768 13.55 5.74669 13.5295 5.70571 13.5295H2.51573C2.22542 13.5295 2 13.7651 2 14.0418C2 14.3321 2.22883 14.5541 2.51573 14.5541H5.70571C5.74669 14.5541 5.77743 14.5439 5.81158 14.5336C5.87306 16.938 6.53223 18.6218 7.46464 19.8138C7.44414 19.8241 7.42365 19.8343 7.40316 19.8548L5.26512 21.9689C5.06703 22.1739 5.06703 22.5051 5.26512 22.6998C5.36758 22.8023 5.50078 22.8535 5.62715 22.8535C5.75011 22.8535 5.86623 22.8023 5.95845 22.7306C6.04042 22.6998 6.11214 22.6691 6.17362 22.6076L8.12381 20.6677C8.1443 20.6472 8.15455 20.6164 8.17504 20.5857C10.0125 22.2797 12.4067 22.5769 13.4894 22.6179V25.5893C13.4894 25.8659 13.7182 26.1016 14.0051 26.1016C14.2852 26.1016 14.5208 25.8659 14.5208 25.5893V22.6179C15.5352 22.5871 18.0216 22.3105 19.9103 20.572C19.9308 20.6028 19.9513 20.6438 19.9821 20.6745L21.922 22.6076C22.0279 22.7101 22.1508 22.7511 22.284 22.7511C22.4172 22.7511 22.5539 22.7101 22.6563 22.6076C22.851 22.4027 22.851 22.0851 22.6563 21.8767L20.7061 19.9436C20.6754 19.9026 20.6344 19.8821 20.5798 19.8616C21.5497 18.6697 22.2328 16.9654 22.284 14.5302C22.325 14.5404 22.366 14.5507 22.4172 14.5507H25.4809C25.7712 14.5507 25.9966 14.3253 25.9966 14.0384C26.0034 13.7651 25.778 13.5261 25.4877 13.5261Z" fill="#86888C"/>
</svg>
