<svg width="24" height="24" viewBox="0 0 24 24" fill="none" xmlns="http://www.w3.org/2000/svg">
<path fill-rule="evenodd" clip-rule="evenodd" d="M12.343 18.2431H11.7396C10.0176 18.2174 6.02732 17.5771 6.02732 12.1039C6.02732 6.6421 9.98349 6.01594 11.6883 5.99886H11.8079C11.9787 5.99886 12.1523 5.99886 12.306 6.0074C14.0364 6.05009 18.0524 6.72748 18.0524 12.138C18.0552 17.5486 14.062 18.2089 12.343 18.2431ZM21.5731 11.5204H19.0201C18.9774 11.5204 18.9347 11.5375 18.8891 11.546C18.7781 9.59357 18.1662 8.22456 17.3238 7.28248C17.3408 7.27394 17.3579 7.2654 17.3664 7.25687L19.2165 5.42394C19.3787 5.25317 19.3787 4.97993 19.2165 4.81486C19.0457 4.64409 18.7696 4.64409 18.6045 4.81486L16.7545 6.64779C16.746 6.66486 16.7374 6.68194 16.7289 6.69048C15.1891 5.40686 13.2623 5.18486 12.434 5.1507V2.42692C12.434 2.18785 12.2377 2 12.0043 2C11.7652 2 11.5745 2.18785 11.5745 2.42692V5.1507C10.7235 5.16778 8.82226 5.36417 7.3081 6.64779C7.29102 6.63071 7.28248 6.61363 7.2654 6.59656L5.47517 4.81486C5.31294 4.64409 5.03686 4.64409 4.87178 4.81486C4.70101 4.97709 4.70101 5.25032 4.87178 5.42394L6.66202 7.20564C6.6791 7.21417 6.69617 7.22271 6.71325 7.23979C5.8964 8.18187 5.29301 9.55941 5.19055 11.5489C5.1564 11.5403 5.12224 11.5233 5.08809 11.5233H2.42977C2.18785 11.5233 2 11.7197 2 11.9502C2 12.1921 2.19069 12.3771 2.42977 12.3771H5.08809C5.12224 12.3771 5.14786 12.3686 5.17632 12.36C5.22755 14.3637 5.77686 15.7669 6.55386 16.7602C6.53679 16.7687 6.51971 16.7773 6.50263 16.7944L4.72093 18.5561C4.55586 18.7269 4.55586 19.003 4.72093 19.1652C4.80632 19.2506 4.91732 19.2933 5.02263 19.2933C5.12509 19.2933 5.22186 19.2506 5.29871 19.1908C5.36701 19.1652 5.42678 19.1396 5.47801 19.0884L7.10317 17.4718C7.12025 17.4547 7.12879 17.4291 7.14587 17.4034C8.6771 18.8151 10.6723 19.0628 11.5745 19.0969V21.5731C11.5745 21.8036 11.7652 22 12.0043 22C12.2377 22 12.434 21.8036 12.434 21.5731V19.0969C13.2794 19.0713 15.3514 18.8408 16.9253 17.3921C16.9424 17.4177 16.9594 17.4518 16.9851 17.4774L18.6017 19.0884C18.6899 19.1738 18.7924 19.2079 18.9034 19.2079C19.0144 19.2079 19.1282 19.1738 19.2136 19.0884C19.3758 18.9176 19.3758 18.6529 19.2136 18.4793L17.5884 16.8684C17.5628 16.8342 17.5287 16.8171 17.4831 16.8001C18.2914 15.8067 18.8607 14.3865 18.9034 12.3572C18.9375 12.3657 18.9717 12.3743 19.0144 12.3743H21.5674C21.8093 12.3743 21.9972 12.1864 21.9972 11.9473C22.0028 11.7197 21.815 11.5204 21.5731 11.5204Z" fill="#86888C"/>
</svg>
