<svg width="20" height="20" viewBox="0 0 20 20" fill="none" xmlns="http://www.w3.org/2000/svg">
<path fill-rule="evenodd" clip-rule="evenodd" d="M10.2744 15.096H9.79166C8.41412 15.0755 5.22186 14.5632 5.22186 10.1847C5.22186 5.81524 8.38679 5.31431 9.75068 5.30065H9.84631C9.98292 5.30065 10.1218 5.30065 10.2448 5.30748C11.6291 5.34164 14.8419 5.88355 14.8419 10.212C14.8442 14.5404 11.6496 15.0687 10.2744 15.096ZM17.6585 9.7179H15.6161C15.5819 9.7179 15.5477 9.73156 15.5113 9.73839C15.4225 8.17642 14.933 7.08121 14.259 6.32755C14.2727 6.32072 14.2863 6.31389 14.2932 6.30706L15.7732 4.84071C15.9029 4.7041 15.9029 4.48551 15.7732 4.35345C15.6365 4.21683 15.4157 4.21683 15.2836 4.35345L13.8036 5.81979C13.7968 5.83345 13.79 5.84712 13.7831 5.85395C12.5513 4.82705 11.0098 4.64945 10.3472 4.62213V2.4431C10.3472 2.25184 10.1901 2.10156 10.0034 2.10156C9.81215 2.10156 9.6596 2.25184 9.6596 2.4431V4.62213C8.9788 4.63579 7.45781 4.7929 6.24648 5.81979C6.23282 5.80613 6.22599 5.79247 6.21232 5.77881L4.78013 4.35345C4.65035 4.21683 4.42949 4.21683 4.29742 4.35345C4.16081 4.48323 4.16081 4.70182 4.29742 4.84071L5.72961 6.26607C5.74328 6.2729 5.75694 6.27973 5.7706 6.29339C5.11712 7.04706 4.63441 8.14909 4.55244 9.74067C4.52512 9.73384 4.49779 9.72018 4.47047 9.72018H2.34382C2.15028 9.72018 2 9.87728 2 10.0617C2 10.2553 2.15255 10.4033 2.34382 10.4033H4.47047C4.49779 10.4033 4.51829 10.3964 4.54106 10.3896C4.58204 11.9926 5.02149 13.1151 5.64309 13.9097C5.62943 13.9166 5.61577 13.9234 5.60211 13.9371L4.17675 15.3465C4.04468 15.4831 4.04468 15.704 4.17675 15.8337C4.24505 15.902 4.33386 15.9362 4.4181 15.9362C4.50007 15.9362 4.57749 15.902 4.63896 15.8542C4.69361 15.8337 4.74143 15.8132 4.78241 15.7723L6.08254 14.479C6.0962 14.4653 6.10303 14.4448 6.11669 14.4243C7.34168 15.5537 8.93781 15.7518 9.6596 15.7791V17.76C9.6596 17.9445 9.81215 18.1016 10.0034 18.1016C10.1901 18.1016 10.3472 17.9445 10.3472 17.76V15.7791C11.0235 15.7586 12.6811 15.5742 13.9402 14.4152C13.9539 14.4357 13.9676 14.463 13.988 14.4835L15.2813 15.7723C15.3519 15.8406 15.4339 15.8679 15.5227 15.8679C15.6115 15.8679 15.7026 15.8406 15.7709 15.7723C15.9007 15.6356 15.9007 15.4239 15.7709 15.285L14.4708 13.9963C14.4503 13.9689 14.4229 13.9553 14.3865 13.9416C15.0332 13.147 15.4885 12.0108 15.5227 10.3873C15.55 10.3941 15.5773 10.401 15.6115 10.401H17.6539C17.8474 10.401 17.9977 10.2507 17.9977 10.0594C18.0023 9.87728 17.852 9.7179 17.6585 9.7179Z" fill="#86888C"/>
</svg>
