<svg width="20" height="20" viewBox="0 0 20 20" fill="none" xmlns="http://www.w3.org/2000/svg">
<path d="M11.609 18H5.76614C4.93243 18 4.33334 17.8041 3.93698 17.4033C3.54063 17.0024 3.35156 16.3966 3.35156 15.5516V4.4484C3.35156 2.80171 4.142 2 5.76614 2H11.609C13.2559 2 14.0235 2.77893 14.0235 4.4484V5.78078C14.0235 5.90605 13.921 6.00854 13.7958 6.00854C13.6705 6.00854 13.568 5.90605 13.568 5.78078V4.4484C13.568 3.03174 13.0008 2.45552 11.609 2.45552H5.76614C4.39256 2.45552 3.80714 3.05224 3.80714 4.4484V15.5516C3.80714 16.2713 3.95521 16.7724 4.26272 17.0844C4.57024 17.3964 5.05999 17.5468 5.76614 17.5468H11.609C12.3151 17.5468 12.8071 17.3964 13.1124 17.0844C13.4176 16.7724 13.568 16.2713 13.568 15.5516V12.4427C13.568 12.3174 13.6705 12.2149 13.7958 12.2149C13.921 12.2149 14.0235 12.3174 14.0235 12.4427V15.5516C14.0235 16.3966 13.8322 17.0024 13.4358 17.4033C13.0395 17.8041 12.4427 18 11.609 18Z" fill="#86888C"/>
<path d="M8.68869 14.7408C8.27866 14.7408 8.01215 14.9572 8.01215 15.4195C8.01215 15.6427 8.07365 15.8067 8.18299 15.9183C8.30144 16.039 8.47456 16.0982 8.68869 16.0982C8.90281 16.0982 9.07593 16.039 9.19438 15.9183C9.30372 15.8067 9.36522 15.6404 9.36522 15.4195C9.36295 14.9572 9.09643 14.7408 8.68869 14.7408ZM15.4244 12.6705H12.1557C11.6522 12.6705 11.3402 12.3584 11.3402 11.8551V7.11317C11.3402 7.05167 11.3652 6.99473 11.4062 6.95146L12.7388 5.62363C12.7821 5.58036 12.839 5.55758 12.9005 5.55758H15.4244C15.9279 5.55758 16.2399 5.86961 16.2399 6.37295V11.8574C16.2399 12.3584 15.9256 12.6705 15.4244 12.6705ZM11.798 7.20655V11.8551C11.798 12.1079 11.9051 12.2149 12.1579 12.2149H15.4244C15.6773 12.2149 15.7844 12.1079 15.7844 11.8551V6.37068C15.7844 6.11787 15.6773 6.01082 15.4244 6.01082H12.9962L11.798 7.20655Z" fill="#86888C"/>
<path d="M15.1625 11.4474H12.4176C12.2923 11.4474 12.1898 11.3449 12.1898 11.2196V8.33623C12.1898 8.21096 12.2923 8.10847 12.4176 8.10847H15.1625C15.2878 8.10847 15.3903 8.21096 15.3903 8.33623V11.2174C15.3903 11.3449 15.2878 11.4474 15.1625 11.4474ZM12.6477 10.9919H14.9347V8.56399H12.6454L12.6477 10.9919Z" fill="#86888C"/>
<path d="M13.3311 9.47957C13.2058 9.47957 13.1033 9.37708 13.1033 9.25181V8.3385C13.1033 8.21323 13.2058 8.11074 13.3311 8.11074C13.4564 8.11074 13.5589 8.21323 13.5589 8.3385V9.25181C13.5589 9.37708 13.4564 9.47957 13.3311 9.47957ZM14.2445 9.47957C14.1192 9.47957 14.0167 9.37708 14.0167 9.25181V8.3385C14.0167 8.21323 14.1192 8.11074 14.2445 8.11074C14.3698 8.11074 14.4723 8.21323 14.4723 8.3385V9.25181C14.4723 9.37708 14.3698 9.47957 14.2445 9.47957ZM13.3311 11.4474C13.2058 11.4474 13.1033 11.3449 13.1033 11.2196V10.3063C13.1033 10.1811 13.2058 10.0786 13.3311 10.0786C13.4564 10.0786 13.5589 10.1811 13.5589 10.3063V11.2196C13.5589 11.3449 13.4564 11.4474 13.3311 11.4474ZM14.2445 11.4474C14.1192 11.4474 14.0167 11.3449 14.0167 11.2196V10.3063C14.0167 10.1811 14.1192 10.0786 14.2445 10.0786C14.3698 10.0786 14.4723 10.1811 14.4723 10.3063V11.2196C14.4723 11.3449 14.3698 11.4474 14.2445 11.4474Z" fill="#86888C"/>
<path d="M15.1625 9.47957H12.4176C12.2923 9.47957 12.1898 9.37708 12.1898 9.25181C12.1898 9.12655 12.2923 9.02406 12.4176 9.02406H15.1625C15.2878 9.02406 15.3903 9.12655 15.3903 9.25181C15.3903 9.37708 15.2878 9.47957 15.1625 9.47957ZM15.1625 10.5318H12.4176C12.2923 10.5318 12.1898 10.4293 12.1898 10.3041C12.1898 10.1788 12.2923 10.0763 12.4176 10.0763H15.1625C15.2878 10.0763 15.3903 10.1788 15.3903 10.3041C15.3903 10.4293 15.2878 10.5318 15.1625 10.5318Z" fill="#86888C"/>
</svg>
