<svg width="24" height="24" viewBox="0 0 24 24" fill="none" xmlns="http://www.w3.org/2000/svg">
<path d="M14.6733 22H7.36979C6.32764 22 5.57878 21.7552 5.08334 21.2541C4.58789 20.753 4.35156 19.9957 4.35156 18.9395V5.0605C4.35156 3.00214 5.3396 2 7.36979 2H14.6733C16.732 2 17.6915 2.97367 17.6915 5.0605V6.72598C17.6915 6.88256 17.5634 7.01068 17.4068 7.01068C17.2502 7.01068 17.1221 6.88256 17.1221 6.72598V5.0605C17.1221 3.28968 16.4131 2.56939 14.6733 2.56939H7.36979C5.65282 2.56939 4.92104 3.3153 4.92104 5.0605V18.9395C4.92104 19.8391 5.10612 20.4655 5.49051 20.8555C5.87491 21.2456 6.4871 21.4335 7.36979 21.4335H14.6733C15.556 21.4335 16.171 21.2456 16.5526 20.8555C16.9341 20.4655 17.1221 19.8391 17.1221 18.9395V15.0534C17.1221 14.8968 17.2502 14.7687 17.4068 14.7687C17.5634 14.7687 17.6915 14.8968 17.6915 15.0534V18.9395C17.6915 19.9957 17.4524 20.753 16.9569 21.2541C16.4615 21.7552 15.7155 22 14.6733 22Z" fill="#86888C"/>
<path d="M11.023 17.926C10.5104 17.926 10.1773 18.1964 10.1773 18.7744C10.1773 19.0534 10.2542 19.2584 10.3908 19.3979C10.5389 19.5488 10.7553 19.6228 11.023 19.6228C11.2906 19.6228 11.507 19.5488 11.6551 19.3979C11.7918 19.2584 11.8686 19.0505 11.8686 18.7744C11.8658 18.1964 11.5326 17.926 11.023 17.926ZM19.4427 15.3381H15.3567C14.7274 15.3381 14.3373 14.948 14.3373 14.3189V8.39146C14.3373 8.31459 14.3686 8.24342 14.4199 8.18933L16.0856 6.52954C16.1397 6.47545 16.2109 6.44698 16.2878 6.44698H19.4427C20.0719 6.44698 20.462 6.83701 20.462 7.46619V14.3217C20.462 14.948 20.0691 15.3381 19.4427 15.3381ZM14.9096 8.50819V14.3189C14.9096 14.6349 15.0435 14.7687 15.3595 14.7687H19.4427C19.7587 14.7687 19.8926 14.6349 19.8926 14.3189V7.46335C19.8926 7.14733 19.7587 7.01353 19.4427 7.01353H16.4074L14.9096 8.50819Z" fill="#86888C"/>
<path d="M19.1152 13.8093H15.6841C15.5275 13.8093 15.3994 13.6811 15.3994 13.5246V9.92029C15.3994 9.76371 15.5275 9.63559 15.6841 9.63559H19.1152C19.2718 9.63559 19.4 9.76371 19.4 9.92029V13.5217C19.4 13.6811 19.2718 13.8093 19.1152 13.8093ZM15.9717 13.2399H18.8305V10.205H15.9689L15.9717 13.2399Z" fill="#86888C"/>
<path d="M16.826 11.3495C16.6694 11.3495 16.5412 11.2213 16.5412 11.0648V9.92313C16.5412 9.76654 16.6694 9.63843 16.826 9.63843C16.9826 9.63843 17.1107 9.76654 17.1107 9.92313V11.0648C17.1107 11.2213 16.9826 11.3495 16.826 11.3495ZM17.9678 11.3495C17.8112 11.3495 17.683 11.2213 17.683 11.0648V9.92313C17.683 9.76654 17.8112 9.63843 17.9678 9.63843C18.1244 9.63843 18.2525 9.76654 18.2525 9.92313V11.0648C18.2525 11.2213 18.1244 11.3495 17.9678 11.3495ZM16.826 13.8092C16.6694 13.8092 16.5412 13.6811 16.5412 13.5245V12.3829C16.5412 12.2263 16.6694 12.0982 16.826 12.0982C16.9826 12.0982 17.1107 12.2263 17.1107 12.3829V13.5245C17.1107 13.6811 16.9826 13.8092 16.826 13.8092ZM17.9678 13.8092C17.8112 13.8092 17.683 13.6811 17.683 13.5245V12.3829C17.683 12.2263 17.8112 12.0982 17.9678 12.0982C18.1244 12.0982 18.2525 12.2263 18.2525 12.3829V13.5245C18.2525 13.6811 18.1244 13.8092 17.9678 13.8092Z" fill="#86888C"/>
<path d="M19.1152 11.3495H15.6841C15.5275 11.3495 15.3994 11.2214 15.3994 11.0648C15.3994 10.9082 15.5275 10.7801 15.6841 10.7801H19.1152C19.2718 10.7801 19.4 10.9082 19.4 11.0648C19.4 11.2214 19.2718 11.3495 19.1152 11.3495ZM19.1152 12.6648H15.6841C15.5275 12.6648 15.3994 12.5367 15.3994 12.3801C15.3994 12.2235 15.5275 12.0954 15.6841 12.0954H19.1152C19.2718 12.0954 19.4 12.2235 19.4 12.3801C19.4 12.5367 19.2718 12.6648 19.1152 12.6648Z" fill="#86888C"/>
</svg>
