<svg width="24" height="24" viewBox="0 0 24 24" fill="none" xmlns="http://www.w3.org/2000/svg">
<path fill-rule="evenodd" clip-rule="evenodd" d="M16.8854 7.87164L18.3199 3.45154L20.8587 7.87164H16.8854ZM16.6151 8.70556H20.7619L13.2281 19.1652L16.6151 8.70556ZM7.38494 8.70556L10.7719 19.1652L3.23808 8.70556H7.38494ZM7.84318 7.3821L6.36886 2.83393H11.213L7.84318 7.3821ZM12.787 2.83393H17.634L16.1625 7.3821L12.787 2.83393ZM8.52626 7.87164L12.0014 3.184L15.4766 7.86879H8.52626V7.87164ZM15.7299 8.70556L12.0014 20.2211L8.27295 8.70556H15.7299ZM5.68578 3.4487L7.1174 7.86879H3.14416L5.68578 3.4487ZM22 8.30141L22.0028 8.29002C22.0028 8.22456 21.9858 8.1591 21.9516 8.10218C21.9488 8.09933 21.9488 8.09079 21.9459 8.0851L18.5761 2.21062C18.5732 2.20208 18.5618 2.19923 18.5561 2.19354C18.5163 2.13092 18.4565 2.07969 18.3882 2.04838C18.3711 2.03985 18.3569 2.02562 18.337 2.01992C18.3057 2.01138 18.2772 2.01423 18.2459 2.01138C18.2345 2.00854 18.2231 2 18.2118 2H5.79109C5.77686 2 5.76832 2.00854 5.75409 2.01138C5.72278 2.01423 5.69432 2.01138 5.66301 2.01992C5.64309 2.02562 5.62886 2.03985 5.61178 2.04838C5.54347 2.07969 5.48371 2.12808 5.44386 2.19354C5.43817 2.19923 5.42963 2.20492 5.42394 2.21062L2.05408 8.08225C2.05123 8.08795 2.05123 8.09364 2.05123 8.09933C2.01992 8.15625 2.00285 8.22172 2 8.28718L2.00285 8.29856C2.00285 8.30995 2.00854 8.32133 2.01138 8.33556C2.01708 8.39533 2.037 8.45226 2.06831 8.50064C2.074 8.50918 2.07115 8.52056 2.07969 8.5291L11.6599 21.8264C11.677 21.8492 11.7054 21.8634 11.7253 21.8833C11.7424 21.9004 11.7595 21.9146 11.7766 21.9288C11.8449 21.9715 11.9189 22 11.9986 22C12.0811 22 12.1551 21.9715 12.2234 21.9288C12.2433 21.9146 12.2576 21.9004 12.2747 21.8833C12.2974 21.8634 12.3259 21.8492 12.343 21.8264L21.9232 8.5291C21.9288 8.52056 21.926 8.51202 21.9317 8.50064C21.963 8.44941 21.9829 8.39249 21.9886 8.33556C21.9943 8.32418 22 8.31279 22 8.30141Z" fill="#86888C"/>
</svg>
