<svg width="20" height="20" viewBox="0 0 20 20" fill="none" xmlns="http://www.w3.org/2000/svg">
<path fill-rule="evenodd" clip-rule="evenodd" d="M13.9084 6.69731L15.0559 3.16124L17.0869 6.69731H13.9084ZM13.692 7.36445H17.0095L10.9825 15.7322L13.692 7.36445ZM6.30795 7.36445L9.0175 15.7322L2.99047 7.36445H6.30795ZM6.67454 6.30568L5.49509 2.66714H9.37043L6.67454 6.30568ZM10.6296 2.66714H14.5072L13.33 6.30568L10.6296 2.66714ZM7.221 6.69731L10.0011 2.9472L12.7813 6.69503H7.221V6.69731ZM12.9839 7.36445L10.0011 16.5769L7.01836 7.36445H12.9839ZM4.94863 3.15896L6.09392 6.69503H2.91533L4.94863 3.15896ZM18 7.04113L18.0023 7.03202C18.0023 6.97965 17.9886 6.92728 17.9613 6.88174C17.959 6.87946 17.959 6.87263 17.9567 6.86808L15.2609 2.16849C15.2586 2.16166 15.2495 2.15939 15.2449 2.15483C15.213 2.10474 15.1652 2.06375 15.1106 2.03871C15.0969 2.03188 15.0855 2.02049 15.0696 2.01594C15.0445 2.00911 15.0218 2.01138 14.9967 2.00911C14.9876 2.00683 14.9785 2 14.9694 2H5.03287C5.02149 2 5.01466 2.00683 5.00327 2.00911C4.97823 2.01138 4.95546 2.00911 4.93041 2.01594C4.91447 2.02049 4.90309 2.03188 4.88943 2.03871C4.83478 2.06375 4.78696 2.10246 4.75509 2.15483C4.75053 2.15939 4.7437 2.16394 4.73915 2.16849L2.04326 6.8658C2.04098 6.87036 2.04098 6.87491 2.04098 6.87946C2.01594 6.925 2.00228 6.97737 2 7.02974L2.00228 7.03885C2.00228 7.04796 2.00683 7.05707 2.00911 7.06845C2.01366 7.11627 2.0296 7.1618 2.05465 7.20051C2.0592 7.20734 2.05692 7.21645 2.06375 7.22328L9.72791 17.8611C9.74157 17.8793 9.76434 17.8907 9.78028 17.9066C9.79394 17.9203 9.8076 17.9317 9.82126 17.9431C9.87591 17.9772 9.93511 18 9.99886 18C10.0649 18 10.1241 17.9772 10.1787 17.9431C10.1947 17.9317 10.2061 17.9203 10.2197 17.9066C10.2379 17.8907 10.2607 17.8793 10.2744 17.8611L17.9385 7.22328C17.9431 7.21645 17.9408 7.20962 17.9454 7.20051C17.9704 7.15953 17.9863 7.11399 17.9909 7.06845C17.9954 7.05934 18 7.05023 18 7.04113Z" fill="#86888C"/>
</svg>
