<svg width="28" height="28" viewBox="0 0 28 28" fill="none" xmlns="http://www.w3.org/2000/svg">
<path fill-rule="evenodd" clip-rule="evenodd" d="M19.8625 9.04597L21.5839 3.74185L24.6304 9.04597H19.8625ZM19.5381 10.0467H24.5143L15.4737 22.5983L19.5381 10.0467ZM8.46193 10.0467L12.5263 22.5983L3.4857 10.0467H8.46193ZM9.01181 8.45852L7.24264 3.00071H13.0556L9.01181 8.45852ZM14.9444 3.00071H20.7608L18.995 8.45852L14.9444 3.00071ZM9.83151 9.04597L14.0017 3.42081L18.1719 9.04255H9.83151V9.04597ZM18.4759 10.0467L14.0017 23.8654L9.52754 10.0467H18.4759ZM6.42294 3.73844L8.14088 9.04255H3.37299L6.42294 3.73844ZM26 9.56169L26.0034 9.54803C26.0034 9.46947 25.9829 9.39092 25.9419 9.32261C25.9385 9.3192 25.9385 9.30895 25.9351 9.30212L21.8913 2.25274C21.8879 2.24249 21.8742 2.23908 21.8674 2.23225C21.8196 2.15711 21.7478 2.09563 21.6659 2.05806C21.6454 2.04782 21.6283 2.03074 21.6044 2.02391C21.5668 2.01366 21.5327 2.01708 21.4951 2.01366C21.4814 2.01025 21.4678 2 21.4541 2H6.54931C6.53223 2 6.52199 2.01025 6.50491 2.01366C6.46734 2.01708 6.43319 2.01366 6.39562 2.02391C6.37171 2.03074 6.35463 2.04782 6.33414 2.05806C6.25217 2.09563 6.18045 2.15369 6.13263 2.23225C6.1258 2.23908 6.11555 2.24591 6.10872 2.25274L2.06489 9.2987C2.06148 9.30554 2.06148 9.31237 2.06148 9.3192C2.02391 9.38751 2.00342 9.46606 2 9.54461L2.00342 9.55827C2.00342 9.57194 2.01025 9.5856 2.01366 9.60267C2.02049 9.6744 2.0444 9.74271 2.08197 9.80077C2.0888 9.81101 2.08538 9.82468 2.09563 9.83492L13.5919 25.7917C13.6124 25.819 13.6465 25.8361 13.6704 25.86C13.6909 25.8805 13.7114 25.8975 13.7319 25.9146C13.8139 25.9658 13.9027 26 13.9983 26C14.0973 26 14.1861 25.9658 14.2681 25.9146C14.292 25.8975 14.3091 25.8805 14.3296 25.86C14.3569 25.8361 14.3911 25.819 14.4116 25.7917L25.9078 9.83492C25.9146 9.82468 25.9112 9.81443 25.918 9.80077C25.9556 9.73929 25.9795 9.67098 25.9863 9.60267C25.9932 9.58901 26 9.57535 26 9.56169Z" fill="#86888C"/>
</svg>
