<svg width="40" height="40" viewBox="0 0 40 40" fill="none" xmlns="http://www.w3.org/2000/svg">
<path fill-rule="evenodd" clip-rule="evenodd" d="M28.7938 12.5689L31.3758 4.61278L35.9456 12.5689H28.7938ZM28.3071 14.07H35.7715L22.2106 32.8974L28.3071 14.07ZM11.6929 14.07L17.7894 32.8974L4.22855 14.07H11.6929ZM12.5177 11.6878L9.86395 3.50107H18.5835L12.5177 11.6878ZM21.4165 3.50107H30.1412L27.4925 11.6878L21.4165 3.50107ZM13.7473 12.5689L20.0026 4.13121L26.2579 12.5638H13.7473V12.5689ZM26.7138 14.07L20.0026 34.7981L13.2913 14.07H26.7138ZM8.63441 4.60766L11.2113 12.5638H4.05948L8.63441 4.60766ZM38 13.3425L38.0051 13.322C38.0051 13.2042 37.9744 13.0864 37.9129 12.9839C37.9078 12.9788 37.9078 12.9634 37.9027 12.9532L31.8369 2.37911C31.8318 2.36374 31.8113 2.35862 31.8011 2.34837C31.7293 2.23566 31.6217 2.14345 31.4988 2.08709C31.4681 2.07172 31.4424 2.04611 31.4066 2.03586C31.3502 2.02049 31.299 2.02562 31.2426 2.02049C31.2221 2.01537 31.2016 2 31.1812 2H8.82396C8.79835 2 8.78298 2.01537 8.75736 2.02049C8.70101 2.02562 8.64978 2.02049 8.59342 2.03586C8.55756 2.04611 8.53195 2.07172 8.50121 2.08709C8.37825 2.14345 8.27067 2.23054 8.19895 2.34837C8.1887 2.35862 8.17333 2.36886 8.16308 2.37911L2.09734 12.9481C2.09222 12.9583 2.09222 12.9685 2.09222 12.9788C2.03586 13.0813 2.00512 13.1991 2 13.3169L2.00512 13.3374C2.00512 13.3579 2.01537 13.3784 2.02049 13.404C2.03074 13.5116 2.0666 13.6141 2.12295 13.7012C2.1332 13.7165 2.12808 13.737 2.14345 13.7524L19.3878 37.6875C19.4185 37.7285 19.4698 37.7541 19.5056 37.79C19.5364 37.8207 19.5671 37.8463 19.5978 37.8719C19.7208 37.9488 19.854 38 19.9974 38C20.146 38 20.2792 37.9488 20.4022 37.8719C20.438 37.8463 20.4636 37.8207 20.4944 37.79C20.5354 37.7541 20.5866 37.7285 20.6173 37.6875L37.8617 13.7524C37.8719 13.737 37.8668 13.7216 37.877 13.7012C37.9334 13.6089 37.9693 13.5065 37.9795 13.404C37.9897 13.3835 38 13.363 38 13.3425Z" fill="#86888C"/>
</svg>
