<svg width="20" height="20" viewBox="0 0 20 20" fill="none" xmlns="http://www.w3.org/2000/svg">
<path fill-rule="evenodd" clip-rule="evenodd" d="M11.5911 16.2804C9.72196 16.3364 8.21963 16.8411 7.47897 17.1449V10.9766C9.06075 10.2079 10.8715 10.1519 11.5911 10.1612V16.2804ZM2.68458 10.1612C3.39953 10.1449 5.21495 10.2103 6.79673 10.979V17.1449C5.48598 16.6192 4.09579 16.3271 2.68458 16.2804V10.1612ZM4.88318 7.46028C4.88318 6.87617 5.03271 6.42991 5.32477 6.13551C5.62617 5.83178 6.09579 5.67757 6.71729 5.67757L15.9065 5.6729C16.528 5.6729 16.9953 5.8271 17.2991 6.13084C17.5911 6.42523 17.7407 6.86916 17.7407 7.45561V11.7009C17.7407 12.2874 17.5911 12.736 17.2991 13.035C16.9953 13.3458 16.528 13.5023 15.9089 13.5023L12.278 13.5047V9.83645C12.278 9.66121 12.1402 9.51635 11.9626 9.50234C11.8551 9.49299 9.33411 9.31308 7.14019 10.3995C6.39019 10.0304 5.60514 9.80607 4.88785 9.67523L4.88318 7.46028ZM15.9042 14.1752C16.715 14.1752 17.3505 13.9486 17.7874 13.5023C18.2079 13.0724 18.4206 12.4673 18.4206 11.7009V7.45561C18.4206 6.68925 18.2056 6.08645 17.785 5.66121C17.3505 5.2243 16.7173 5 15.9065 5L6.71729 5.00467C5.90654 5.00467 5.27336 5.22664 4.83645 5.66355C4.41589 6.08879 4.20093 6.69159 4.20093 7.45794V9.56542C3.15187 9.43925 2.37617 9.49533 2.31542 9.5C2.13785 9.51636 2 9.66121 2 9.83878V16.6121C2 16.7991 2.15187 16.9463 2.34112 16.9463C4.96729 16.9463 6.95794 17.9533 6.97663 17.9626C7.0257 17.9883 7.07944 18 7.13551 18C7.14252 18 7.14953 17.9953 7.15654 17.9953C7.20327 17.993 7.25 17.9813 7.29439 17.9626C7.31308 17.9533 9.30374 16.9463 11.9322 16.9463C12.1215 16.9463 12.2734 16.7967 12.2734 16.6098V15.5514H18.0607C18.25 15.5514 18.4019 15.4019 18.4019 15.215C18.3995 15.028 18.2477 14.8785 18.0607 14.8785H12.2734V14.1752H15.9042Z" fill="#86888C"/>
</svg>
