<svg width="24" height="24" viewBox="0 0 24 24" fill="none" xmlns="http://www.w3.org/2000/svg">
<path d="M13.1369 15.63H10.7787C10.4639 15.63 10.2607 15.424 10.2607 15.1092V8.61571C10.2607 8.30377 10.4639 8.10059 10.7787 8.10059H13.6405C13.7178 8.10059 13.7894 8.13207 13.8437 8.18358L15.7755 10.1182C15.8298 10.1725 15.8585 10.2441 15.8585 10.3214V15.1206C15.8585 15.424 15.6553 15.63 15.349 15.63H13.1369ZM10.8331 15.0577H15.2861V10.4387L13.5203 8.67295H10.8331V15.0577Z" fill="#86888C"/>
<path d="M14.4134 11.7666H11.709C11.5516 11.7666 11.4229 11.6378 11.4229 11.4804C11.4229 11.323 11.5516 11.1942 11.709 11.1942H14.4163C14.5737 11.1942 14.7025 11.323 14.7025 11.4804C14.7025 11.6378 14.5708 11.7666 14.4134 11.7666ZM14.4134 12.9256H11.709C11.5516 12.9256 11.4229 12.7968 11.4229 12.6394C11.4229 12.482 11.5516 12.3532 11.709 12.3532H14.4163C14.5737 12.3532 14.7025 12.482 14.7025 12.6394C14.7025 12.7968 14.5708 12.9256 14.4134 12.9256ZM14.4134 14.0846H11.709C11.5516 14.0846 11.4229 13.9559 11.4229 13.7985C11.4229 13.6411 11.5516 13.5123 11.709 13.5123H14.4163C14.5737 13.5123 14.7025 13.6411 14.7025 13.7985C14.7025 13.9559 14.5708 14.0846 14.4134 14.0846ZM15.5725 10.6075H14.3791C13.7466 10.6075 13.3546 10.1496 13.3546 9.4113V8.38677C13.3546 8.22937 13.4834 8.10059 13.6408 8.10059C13.718 8.10059 13.7896 8.13207 13.8439 8.18358L15.7757 10.1182C15.8873 10.2298 15.8873 10.4101 15.7757 10.5217C15.7213 10.5789 15.6498 10.6075 15.5725 10.6075ZM13.9269 9.07933V9.4113C13.9269 9.8234 14.0786 10.0352 14.3791 10.0352H14.8799L13.9269 9.07933Z" fill="#86888C"/>
<path d="M20.0364 17.7334H6.08504C5.04906 17.7334 4.26206 17.433 3.74407 16.8406C3.2547 16.2796 3.00859 15.4554 3.00859 14.388V9.3426C3.00859 8.27514 3.2547 7.45094 3.74407 6.89289C4.26206 6.30049 5.04906 6 6.08504 6H20.0364C21.0724 6 21.8594 6.30049 22.3773 6.89289C22.8639 7.45094 23.1128 8.27514 23.1128 9.3426V14.388C23.1128 15.4554 22.8667 16.2796 22.3773 16.8377C21.8594 17.433 21.0724 17.7334 20.0364 17.7334ZM6.08504 6.57236C4.37653 6.57236 3.58095 7.4538 3.58095 9.34546V14.3908C3.58095 16.2825 4.37653 17.1639 6.08504 17.1639H20.0364C21.7449 17.1639 22.5405 16.2825 22.5405 14.3908V9.3426C22.5405 7.45094 21.7449 6.57236 20.0364 6.57236H6.08504ZM22.8181 20H3.28618C3.12878 20 3 19.8712 3 19.7138C3 19.5564 3.12878 19.4276 3.28618 19.4276H22.8181C22.9755 19.4276 23.1043 19.5564 23.1043 19.7138C23.1043 19.8712 22.9755 20 22.8181 20Z" fill="#86888C"/>
</svg>
