<svg width="40" height="40" viewBox="0 0 40 40" fill="none" xmlns="http://www.w3.org/2000/svg">
<path fill-rule="evenodd" clip-rule="evenodd" d="M16.6979 14.6028C17.7481 13.778 18.9777 13.0352 20.2482 12.2974C21.5238 13.0403 22.7534 13.7831 23.7985 14.6028H16.6979ZM15.0841 16.15H25.4174C26.1449 17.0363 26.6213 18.0507 26.7699 19.2495H13.7316C13.8853 18.0558 14.3566 17.0363 15.0841 16.15ZM23.7421 25.4433C22.7073 26.2476 21.4982 26.97 20.2482 27.6975C19.0033 26.97 17.7942 26.2425 16.7594 25.4433H23.7421ZM15.1302 23.8961C14.3874 23.0098 13.9007 21.9954 13.7419 20.8018H26.7596C26.6008 21.9954 26.109 23.0149 25.3713 23.8961H15.1302ZM28.5015 19.9974C28.5015 15.7197 25.2637 13.4296 21.8107 11.3855C25.2637 9.3414 28.5015 7.04625 28.5015 2.77359C28.5015 2.34837 28.1326 2 27.6767 2C27.2207 2 26.8519 2.34837 26.8519 2.77359C26.8519 6.49296 23.7012 8.46535 20.2533 10.4736C16.8055 8.46535 13.6548 6.49296 13.6548 2.77359C13.6548 2.34837 13.2859 2 12.8299 2C12.374 2 12.0051 2.34837 12.0051 2.77359C12.0051 7.05137 15.2429 9.3414 18.701 11.3855C15.248 13.4296 12.0051 15.7248 12.0051 19.9974C12.0051 22.0416 12.7685 23.6143 13.916 24.9412C13.9775 25.0898 14.0902 25.2128 14.2285 25.2998C15.453 26.5857 17.0411 27.6309 18.6959 28.6145C15.2429 30.6586 12 32.9538 12 37.2264C12 37.6516 12.3689 38 12.8248 38C13.2808 38 13.6496 37.6516 13.6496 37.2264C13.6496 33.507 16.8003 31.5347 20.2482 29.5264C23.7012 31.5347 26.8467 33.507 26.8467 37.2264C26.8467 37.6516 27.2156 38 27.6716 38C28.1275 38 28.4964 37.6516 28.4964 37.2264C28.4964 32.9486 25.2586 30.6586 21.8056 28.6145C25.2637 26.5652 28.5015 24.2752 28.5015 19.9974Z" fill="#86888C"/>
</svg>
