<svg width="24" height="24" viewBox="0 0 24 24" fill="none" xmlns="http://www.w3.org/2000/svg">
<path fill-rule="evenodd" clip-rule="evenodd" d="M9.60993 9.00157C10.1934 8.54333 10.8765 8.13064 11.5823 7.72079C12.291 8.13349 12.9741 8.54618 13.5547 9.00157H9.60993ZM8.71339 9.86111H14.4541C14.8583 10.3535 15.123 10.917 15.2055 11.583H7.962C8.04739 10.9199 8.30924 10.3535 8.71339 9.86111ZM13.5234 15.0241C12.9485 15.4709 12.2768 15.8722 11.5823 16.2764C10.8907 15.8722 10.219 15.4681 9.64409 15.0241H13.5234ZM8.73901 14.1645C8.32631 13.6721 8.05593 13.1086 7.9677 12.4454H15.1998C15.1116 13.1086 14.8383 13.675 14.4285 14.1645H8.73901ZM16.1675 11.9986C16.1675 9.62203 14.3687 8.34979 12.4504 7.21417C14.3687 6.07855 16.1675 4.80347 16.1675 2.42977C16.1675 2.19354 15.9626 2 15.7093 2C15.456 2 15.251 2.19354 15.251 2.42977C15.251 4.49609 13.5006 5.59186 11.5852 6.70756C9.6697 5.59186 7.91931 4.49609 7.91931 2.42977C7.91931 2.19354 7.71439 2 7.46108 2C7.20777 2 7.00285 2.19354 7.00285 2.42977C7.00285 4.80632 8.80162 6.07855 10.7228 7.21417C8.80447 8.34979 7.00285 9.62488 7.00285 11.9986C7.00285 13.1342 7.42692 14.008 8.06447 14.7451C8.09862 14.8277 8.16124 14.896 8.23808 14.9444C8.91831 15.6587 9.80063 16.2394 10.7199 16.7858C8.80162 17.9214 7 19.1965 7 21.5702C7 21.8065 7.20492 22 7.45823 22C7.71154 22 7.91647 21.8065 7.91647 21.5702C7.91647 19.5039 9.66686 18.4081 11.5823 17.2924C13.5006 18.4081 15.2482 19.5039 15.2482 21.5702C15.2482 21.8065 15.4531 22 15.7064 22C15.9597 22 16.1647 21.8065 16.1647 21.5702C16.1647 19.1937 14.3659 17.9214 12.4476 16.7858C14.3687 15.6474 16.1675 14.3751 16.1675 11.9986Z" fill="#86888C"/>
</svg>
