<svg width="20" height="20" viewBox="0 0 20 20" fill="none" xmlns="http://www.w3.org/2000/svg">
<path fill-rule="evenodd" clip-rule="evenodd" d="M8.58795 7.60125C9.05472 7.23467 9.60118 6.90451 10.1659 6.57663C10.7328 6.90679 11.2793 7.23694 11.7438 7.60125H8.58795ZM7.87071 8.28889H12.4633C12.7866 8.68279 12.9984 9.13363 13.0644 9.66643H7.2696C7.33791 9.1359 7.54739 8.68279 7.87071 8.28889ZM11.7187 12.4192C11.2588 12.7767 10.7214 13.0978 10.1659 13.4211C9.61257 13.0978 9.07521 12.7744 8.61527 12.4192H11.7187ZM7.89121 11.7316C7.56105 11.3377 7.34474 10.8869 7.27416 10.3563H13.0598C12.9893 10.8869 12.7707 11.34 12.4428 11.7316H7.89121ZM13.834 9.99886C13.834 8.09762 12.395 7.07983 10.8603 6.17134C12.395 5.26284 13.834 4.24278 13.834 2.34382C13.834 2.15483 13.6701 2 13.4674 2C13.2648 2 13.1008 2.15483 13.1008 2.34382C13.1008 3.99687 11.7005 4.87349 10.1681 5.76604C8.63576 4.87349 7.23545 3.99687 7.23545 2.34382C7.23545 2.15483 7.07151 2 6.86886 2C6.66622 2 6.50228 2.15483 6.50228 2.34382C6.50228 4.24505 7.9413 5.26284 9.47823 6.17134C7.94358 7.07983 6.50228 8.0999 6.50228 9.99886C6.50228 10.9074 6.84154 11.6064 7.35157 12.1961C7.3789 12.2621 7.42899 12.3168 7.49047 12.3555C8.03465 12.927 8.7405 13.3915 9.47595 13.8287C7.9413 14.7372 6.5 15.7572 6.5 17.6562C6.5 17.8452 6.66394 18 6.86659 18C7.06923 18 7.23317 17.8452 7.23317 17.6562C7.23317 16.0031 8.63348 15.1265 10.1659 14.234C11.7005 15.1265 13.0985 16.0031 13.0985 17.6562C13.0985 17.8452 13.2625 18 13.4651 18C13.6678 18 13.8317 17.8452 13.8317 17.6562C13.8317 15.7549 12.3927 14.7372 10.858 13.8287C12.395 12.9179 13.834 11.9001 13.834 9.99886Z" fill="#86888C"/>
</svg>
