<svg width="40" height="40" viewBox="0 0 40 40" fill="none" xmlns="http://www.w3.org/2000/svg">
<path fill-rule="evenodd" clip-rule="evenodd" d="M15.5401 23.4402C15.0226 22.769 14.6589 22.0211 14.4847 21.1655H26.0168C25.8426 22.0211 25.4737 22.7639 24.9614 23.4402H15.5401ZM18.0094 14.3415C18.7061 13.86 19.4592 13.3835 20.2482 12.9071C21.0423 13.3835 21.7954 13.8548 22.4921 14.3415H18.0094ZM28.5015 20.0026C28.5015 15.8631 25.5506 13.5014 22.4614 11.5699C25.5506 9.63854 28.5015 7.27679 28.5015 3.13733C28.5015 2.51231 27.9738 2 27.3232 2C26.6725 2 26.1449 2.50719 26.1449 3.13733C26.1449 6.5032 23.4757 8.30141 20.2533 10.2277C17.0309 8.29629 14.3617 6.5032 14.3617 3.13733C14.3617 2.51231 13.8341 2 13.1834 2C12.5328 2 12.0051 2.50719 12.0051 3.13733C12.0051 7.27679 14.956 9.63854 18.0453 11.5699C14.956 13.5014 12.0051 15.8682 12.0051 20.0026C12.0051 22.1338 12.789 23.7885 13.9621 25.1615C14.0339 25.2742 14.1261 25.3716 14.2337 25.4535C15.3095 26.6114 16.6569 27.5694 18.0401 28.4301C14.9509 30.3615 12 32.7232 12 36.8627C12 37.4877 12.5277 38 13.1783 38C13.8289 38 14.3566 37.4928 14.3566 36.8627C14.3566 33.4968 17.0309 31.7037 20.2482 29.7723C23.4655 31.7037 26.1397 33.5019 26.1397 36.8627C26.1397 37.4877 26.6674 38 27.3181 38C27.9687 38 28.4964 37.4928 28.4964 36.8627C28.4964 32.7232 25.5455 30.3615 22.4562 28.4301C25.5506 26.5038 28.5015 24.142 28.5015 20.0026Z" fill="#86888C"/>
</svg>
