<svg width="28" height="28" viewBox="0 0 28 28" fill="none" xmlns="http://www.w3.org/2000/svg">
<path fill-rule="evenodd" clip-rule="evenodd" d="M12.1319 10.4019C12.8321 9.852 13.6518 9.35677 14.4988 8.86495C15.3492 9.36018 16.1689 9.85541 16.8657 10.4019H12.1319ZM11.0561 11.4333H17.9449C18.4299 12.0242 18.7475 12.7004 18.8466 13.4996H10.1544C10.2569 12.7039 10.5711 12.0242 11.0561 11.4333ZM16.8281 17.6289C16.1382 18.1651 15.3321 18.6466 14.4988 19.1316C13.6688 18.6466 12.8628 18.1617 12.1729 17.6289H16.8281ZM11.0868 16.5974C10.5916 16.0065 10.2671 15.3303 10.1612 14.5345H18.8398C18.7339 15.3303 18.406 16.01 17.9142 16.5974H11.0868ZM20.001 13.9983C20.001 11.1464 17.8425 9.61975 15.5405 8.25701C17.8425 6.89426 20.001 5.36417 20.001 2.51573C20.001 2.23225 19.7551 2 19.4511 2C19.1471 2 18.9012 2.23225 18.9012 2.51573C18.9012 4.9953 16.8008 6.31023 14.5022 7.64907C12.2036 6.31023 10.1032 4.9953 10.1032 2.51573C10.1032 2.23225 9.85727 2 9.55329 2C9.24932 2 9.00342 2.23225 9.00342 2.51573C9.00342 5.36758 11.1619 6.89426 13.4673 8.25701C11.1654 9.61975 9.00342 11.1498 9.00342 13.9983C9.00342 15.361 9.51231 16.4096 10.2774 17.2941C10.3183 17.3932 10.3935 17.4752 10.4857 17.5332C11.302 18.3905 12.3608 19.0872 13.4639 19.743C11.1619 21.1057 9 22.6358 9 25.4843C9 25.7678 9.24591 26 9.54988 26C9.85385 26 10.0998 25.7678 10.0998 25.4843C10.0998 23.0047 12.2002 21.6898 14.4988 20.3509C16.8008 21.6898 18.8978 23.0047 18.8978 25.4843C18.8978 25.7678 19.1437 26 19.4477 26C19.7517 26 19.9976 25.7678 19.9976 25.4843C19.9976 22.6324 17.839 21.1057 15.5371 19.743C17.8425 18.3768 20.001 16.8501 20.001 13.9983Z" fill="#86888C"/>
</svg>
