<svg width="28" height="28" viewBox="0 0 28 28" fill="none" xmlns="http://www.w3.org/2000/svg">
<path fill-rule="evenodd" clip-rule="evenodd" d="M24.9951 22.3953V7.6047C25.0019 7.30766 24.7663 7.05842 24.4659 7.05159H3.52959C3.22913 7.05842 2.99355 7.30425 3.00038 7.6047V22.3953C3.00038 22.7026 3.23938 22.9484 3.52959 22.9484H24.4659C24.7629 22.9416 25.0019 22.6923 24.9951 22.3953ZM24.4659 6C25.3092 6 25.9954 6.72041 25.9954 7.6047V22.3953C25.9954 23.2796 25.3092 24 24.4659 24H3.533C2.68627 24 2 23.2796 2 22.3953V7.6047C2 6.72041 2.68627 6 3.52959 6H24.4659ZM12.7754 16.6969C13.052 16.6969 13.2739 16.9325 13.2739 17.2227C13.2739 17.5129 13.052 17.7485 12.7754 17.7485H4.65288C4.3695 17.7417 4.14416 17.5061 4.15099 17.2227C4.15099 16.9325 4.37291 16.6969 4.64947 16.6969H12.7754ZM4.65288 13.5455C4.3695 13.5387 4.14757 13.3031 4.1544 13.0197C4.1544 12.7295 4.37974 12.4939 4.65288 12.4939H10.1635C10.4401 12.4939 10.662 12.7295 10.662 13.0197C10.662 13.3099 10.4401 13.5455 10.1635 13.5455H4.65288ZM18.7231 11.8077C18.5319 12.0057 18.4909 12.3744 18.4909 12.651C18.4909 12.9241 18.5319 13.2929 18.7231 13.4875C18.9108 13.6753 19.2523 13.7162 19.5083 13.7162C19.7644 13.7162 20.1093 13.6753 20.297 13.4875C20.4507 13.3304 20.5326 13.0505 20.5326 12.651C20.5326 12.2515 20.4541 11.9681 20.297 11.8111C20.1058 11.6165 19.7644 11.5755 19.5083 11.5755C19.2523 11.5755 18.9108 11.6165 18.7231 11.8077ZM19.5049 14.7644C18.8665 14.7644 18.368 14.5869 18.0266 14.2386C17.6681 13.8801 17.4871 13.3441 17.4871 12.6476C17.4871 11.9511 17.6681 11.4116 18.0266 11.0497C18.368 10.7014 18.8699 10.5239 19.5049 10.5239C20.1434 10.5239 20.6419 10.7014 20.9867 11.0497C21.3452 11.4116 21.5296 11.9511 21.5296 12.6476C21.5296 13.3441 21.3486 13.8801 20.9867 14.2386C20.6419 14.5903 20.1434 14.7644 19.5049 14.7644ZM16.9237 17.9465H22.0929C22.0793 17.6802 22.0144 17.3524 21.7925 17.1134C21.5125 16.8096 21.0652 16.7481 20.7375 16.7481H18.2724C17.9446 16.7481 17.4939 16.813 17.2208 17.1134C17.0057 17.349 16.9374 17.6802 16.9237 17.9465ZM20.7375 15.6931C21.4852 15.6931 22.0998 15.9321 22.5129 16.3828C22.8953 16.7993 23.0967 17.3729 23.0967 18.0489V18.7523C23.1001 18.882 22.9977 18.9913 22.868 18.9947H16.1487C16.019 18.9913 15.9165 18.882 15.92 18.7523V18.0489C15.92 17.3729 16.1214 16.7993 16.5004 16.3828C16.9135 15.9287 17.5281 15.6931 18.2758 15.6931H20.7375Z" fill="#86888C"/>
</svg>
