<svg width="24" height="24" viewBox="0 0 24 24" fill="none" xmlns="http://www.w3.org/2000/svg">
<path fill-rule="evenodd" clip-rule="evenodd" d="M20.7876 16.8218V14.1452C20.7876 14.1284 20.7876 14.0474 20.7792 13.9468C20.7625 13.7903 20.7151 13.5696 20.5504 13.3964C20.3635 13.1924 20.051 13.0918 19.6353 13.0918H13.8629C13.7234 13.0918 13.3412 13.117 13.0789 13.3545C12.9004 13.5277 12.8083 13.7903 12.8083 14.134V19.1324C12.8083 19.1659 12.7832 19.5934 13.0538 19.8784C13.2435 20.0768 13.5449 20.1745 13.9522 20.1745H19.6353C19.6604 20.1745 20.1933 20.2081 20.5198 19.8952C20.6983 19.7219 20.7904 19.4677 20.7904 19.124L20.7876 16.8218ZM19.2838 11.5691C19.2838 9.41775 17.674 9.14674 16.9709 9.13277L16.717 9.12439C16.0391 9.13277 14.4432 9.37864 14.4432 11.5523V12.2732H19.2838V11.5691ZM11.9908 14.1368C11.9908 13.5445 12.1694 13.0779 12.5293 12.7482C12.8892 12.4213 13.3217 12.3123 13.6258 12.2872V11.5496C13.6258 9.17747 15.2188 8.31693 16.717 8.30017L16.9932 8.30855C18.497 8.34207 20.1013 9.21938 20.1013 11.5663V12.3039C20.3635 12.3458 20.5839 12.4352 20.7792 12.5498V6.50364C20.7792 6.25777 20.5839 6.07058 20.3468 6.07058H11.3771C11.1483 6.07058 10.9697 5.88059 10.9697 5.65986V4.25449C10.9697 4.00862 10.7744 3.81863 10.5373 3.81863H3.2499C3.01276 3.81863 2.81746 4.00862 2.81746 4.25449V18.0595C2.81746 18.2998 3.01276 18.4954 3.2499 18.4954H11.9908V14.1368ZM21.5967 13.8602C21.6134 14.0222 21.605 14.1452 21.605 14.1787V19.1296C21.605 19.7107 21.4237 20.169 21.075 20.507C20.4946 21.0491 19.6911 20.9988 19.6019 20.9988H13.9522C13.3077 20.9988 12.7999 20.8088 12.4568 20.4316C12.0969 20.046 12.0076 19.5794 11.9908 19.3168H3.2499C2.56357 19.314 2 18.7496 2 18.0595V4.25449C2 3.556 2.56357 3 3.2499 3H10.5345C11.2208 3 11.7844 3.55879 11.7844 4.25449V5.24635H20.344C21.0303 5.24635 21.5939 5.80515 21.5939 6.50085L21.5967 13.8602ZM16.8537 17.8583C17.275 17.85 17.7744 17.6739 17.7744 16.8832C17.7744 16.0898 17.2722 15.9109 16.8482 15.8998H16.731C16.3181 15.9026 15.827 16.0758 15.827 16.8749C15.827 17.6767 16.3264 17.8528 16.7449 17.8583H16.8537ZM16.8649 15.0811C17.6628 15.1007 18.5919 15.5841 18.5919 16.8832C18.5919 18.1852 17.6628 18.663 16.8705 18.677H16.7282C15.9359 18.6658 15.0068 18.1852 15.0068 16.8749C15.0068 15.5589 15.9303 15.0867 16.7226 15.0783L16.8649 15.0811ZM4.65883 9.91229C4.85692 9.91229 5.15823 9.91229 5.15823 8.76396C5.15823 7.61005 4.85692 7.61005 4.65883 7.61005C4.45795 7.61005 4.15385 7.61005 4.15385 8.76396C4.15664 9.90949 4.46074 9.90949 4.65883 9.91229ZM4.65883 6.86127C5.49024 6.86127 5.90873 7.4983 5.90873 8.76117C5.90873 10.0185 5.48745 10.6555 4.65883 10.6555C3.82463 10.6555 3.40335 10.0185 3.40335 8.76117C3.40614 7.50109 3.82742 6.86127 4.65883 6.86127ZM7.82823 9.90949C8.02631 9.90949 8.32763 9.90949 8.32763 8.76117C8.32763 7.60726 8.02631 7.60726 7.82823 7.60726C7.62735 7.60726 7.32324 7.60726 7.32324 8.76117C7.32324 9.90949 7.62735 9.90949 7.82823 9.90949ZM7.82823 6.86127C8.65963 6.86127 9.07813 7.4983 9.07813 8.76117C9.07813 10.0185 8.65684 10.6555 7.82823 10.6555C6.99403 10.6555 6.57274 10.0185 6.57274 8.76117C6.57274 7.50109 6.99403 6.86127 7.82823 6.86127ZM5.2224 15.2292C5.39259 15.2292 5.5293 15.3661 5.5293 15.5366V15.6539C5.5293 15.8243 5.39259 15.9612 5.2224 15.9612H4.10642C3.93623 15.9612 3.79952 15.8243 3.79952 15.6539V15.5366C3.79952 15.3661 3.93623 15.2292 4.10642 15.2292H4.3352V13.0024H4.14269C3.9725 13.0024 3.83579 12.8655 3.83579 12.6951V12.5973C3.83579 12.4408 3.95297 12.3067 4.112 12.29C4.3073 12.2704 4.48864 12.262 4.55839 12.262C5.03827 12.262 5.07454 12.6113 5.07454 12.7174V15.232C5.07733 15.2292 5.2224 15.2292 5.2224 15.2292ZM7.82823 15.2767C8.02631 15.2767 8.32763 15.2767 8.32763 14.1284C8.32763 12.9745 8.02631 12.9745 7.82823 12.9745C7.62735 12.9745 7.32324 12.9745 7.32324 14.1284C7.32324 15.2767 7.62735 15.2767 7.82823 15.2767ZM7.82823 12.2285C8.65963 12.2285 9.07813 12.8655 9.07813 14.1284C9.07813 15.3857 8.65684 16.0227 7.82823 16.0227C6.99403 16.0227 6.57274 15.3857 6.57274 14.1284C6.57274 12.8683 6.99403 12.2285 7.82823 12.2285ZM11.5556 15.2292C11.7258 15.2292 11.8625 15.3661 11.8625 15.5366V15.6539C11.8625 15.8243 11.7258 15.9612 11.5556 15.9612H10.4424C10.2722 15.9612 10.1355 15.8243 10.1355 15.6539V15.5366C10.1355 15.3661 10.2722 15.2292 10.4424 15.2292H10.6712V13.0024H10.4787C10.3085 13.0024 10.1718 12.8655 10.1718 12.6951V12.5973C10.1718 12.4408 10.289 12.3067 10.448 12.29C10.6433 12.2704 10.8246 12.262 10.8944 12.262C11.3743 12.262 11.4105 12.6113 11.4105 12.7174V15.232C11.4133 15.2292 11.5556 15.2292 11.5556 15.2292Z" fill="#86888C"/>
</svg>
