<svg width="28" height="28" viewBox="0 0 28 28" fill="none" xmlns="http://www.w3.org/2000/svg">
<path d="M23.8779 26H11.0445C10.3559 26 9.97559 25.6163 9.97559 24.9243V19.0865C9.97559 18.8981 10.1298 18.7439 10.3182 18.7439C10.5066 18.7439 10.6608 18.8981 10.6608 19.0865V24.9243C10.6608 25.2394 10.7361 25.3148 11.0479 25.3148H24.9879C25.262 25.3148 25.3408 25.2326 25.3442 24.9585V9.16852L18.859 2.6867H11.041C10.7464 2.6867 10.6608 2.77235 10.6608 3.06355V6.35242C10.6608 6.54085 10.5066 6.69501 10.3182 6.69501C10.1298 6.69501 9.97559 6.54085 9.97559 6.35242V5.19447V3.06355C9.97559 2.39208 10.3661 2.00495 11.041 2.00152C11.7536 2.00152 15.6009 1.9981 19.0028 2.00152C19.0953 2.00152 19.181 2.03921 19.2461 2.10087L25.9266 8.78139C25.9917 8.84648 26.026 8.93213 26.026 9.02463V24.9585C26.026 25.6197 25.6457 26 24.9879 26H23.8779Z" fill="#86888C"/>
<path d="M25.6836 9.36716H22.3433C21.2676 9.36716 20.346 9.0143 19.678 8.34967C19.0099 7.68504 18.6605 6.76347 18.6605 5.68431V3.8446V2.34406C18.6605 2.15563 18.8147 2.00146 19.0031 2.00146C19.0922 2.00146 19.1812 2.03572 19.2429 2.10082L25.9234 8.78133C26.057 8.91494 26.057 9.13078 25.9234 9.26439C25.8617 9.32948 25.7727 9.36716 25.6836 9.36716ZM19.3457 3.1697V5.68431C19.3457 7.50347 20.5208 8.68198 22.3433 8.68198H24.858L19.3457 3.1697ZM11.9937 19.2989C8.26286 19.2989 5.24121 16.2772 5.24121 12.5464C5.24121 8.81559 8.26286 5.79394 11.9937 5.79394C15.7245 5.79394 18.7461 8.81559 18.7461 12.5464C18.7461 14.3382 18.0335 16.0545 16.7694 17.3221C15.5052 18.5897 13.7854 19.3023 11.9937 19.2989ZM11.9937 6.47913C8.64314 6.47913 5.92639 9.19587 5.92639 12.5464C5.92639 15.8969 8.64314 18.6137 11.9937 18.6137C15.3442 18.6137 18.061 15.8969 18.061 12.5464C18.061 10.9362 17.4203 9.39457 16.2829 8.25374C15.1489 7.11292 13.6038 6.4757 11.9937 6.47913Z" fill="#86888C"/>
<path d="M2.34259 22.7117C2.15417 22.7117 2 22.561 2 22.3691C2 22.2801 2.03426 22.191 2.09935 22.1293L7.21766 16.8397C7.35127 16.7061 7.5671 16.7027 7.70071 16.8363C7.83432 16.9665 7.83774 17.1823 7.70756 17.3194L2.58926 22.6055C2.52416 22.674 2.43509 22.7117 2.34259 22.7117Z" fill="#86888C"/>
</svg>
