<svg width="28" height="28" viewBox="0 0 28 28" fill="none" xmlns="http://www.w3.org/2000/svg">
<path fill-rule="evenodd" clip-rule="evenodd" d="M25.0465 22.4597V8.29645C25.0465 8.00273 24.8104 7.76366 24.5161 7.76366H13.5078C13.2307 7.76366 13.0048 7.53825 13.0082 7.26161V5.5403C13.0082 5.24658 12.7721 5.00751 12.4778 5.0041H3.53643C3.24215 5.0041 3.00262 5.24317 3.00262 5.5403V22.4631C3.00262 22.7568 3.24215 22.9959 3.53643 22.9959H24.5161C24.8069 22.9959 25.0465 22.7534 25.0465 22.4597ZM24.5161 6.75615C25.3613 6.75615 26.0491 7.44604 26.0491 8.29645V22.4597C26.0491 23.3101 25.3613 24 24.5161 24H3.53643C2.6878 24 2 23.3101 2 22.4597V5.5403C2 4.68989 2.6878 4 3.53643 4H12.4744C13.3196 4 14.0074 4.68989 14.0074 5.5403V6.75956C14.0109 6.75615 24.5161 6.75615 24.5161 6.75615Z" fill="#86888C"/>
<path d="M8.48191 12.1073C8.48191 10.7323 8.90711 10.0122 10.025 10.0122C11.1428 10.0122 11.568 10.7288 11.568 12.1073C11.568 13.4857 11.1428 14.1954 10.025 14.1954C8.90711 14.1954 8.48191 13.4857 8.48191 12.1073ZM10.6902 12.1073C10.6902 10.9963 10.5016 10.6294 10.025 10.6294C9.54833 10.6294 9.35973 10.9929 9.35973 12.1073C9.35973 13.2216 9.54833 13.52 10.025 13.52C10.5016 13.52 10.6902 13.2182 10.6902 12.1073ZM4.08594 12.1073C4.08594 10.7323 4.51113 10.0122 5.62899 10.0122C6.74684 10.0122 7.17203 10.7288 7.17203 12.1073C7.17203 13.4857 6.74684 14.1954 5.62899 14.1954C4.51113 14.1954 4.08594 13.4857 4.08594 12.1073ZM6.29421 12.1073C6.29421 10.9963 6.10562 10.6294 5.62899 10.6294C5.15236 10.6294 4.96376 10.9929 4.96376 12.1073C4.96376 13.2216 5.15236 13.52 5.62899 13.52C6.10562 13.52 6.29421 13.2182 6.29421 12.1073ZM19.6501 12.1073C19.6501 10.7323 20.0753 10.0122 21.1932 10.0122C22.311 10.0122 22.7362 10.7288 22.7362 12.1073C22.7362 13.4857 22.311 14.1954 21.1932 14.1954C20.0753 14.1954 19.6501 13.4857 19.6501 12.1073ZM21.855 12.1073C21.855 10.9963 21.6664 10.6294 21.1898 10.6294C20.7131 10.6294 20.5245 10.9929 20.5245 12.1073C20.5245 13.2216 20.7131 13.52 21.1898 13.52C21.6664 13.52 21.855 13.2182 21.855 12.1073ZM12.8127 13.568H13.4882V10.7631H12.8402V10.2008C13.0768 10.1665 13.478 10.1322 13.7626 10.1322C14.174 10.1322 14.3146 10.2317 14.3146 10.5265V13.5714H14.8838V14.1646H12.8093V13.568H12.8127ZM4.65858 20.1788H5.33409V17.374H4.68944V16.8117C4.92604 16.7774 5.32723 16.7431 5.61184 16.7431C6.02332 16.7431 6.16391 16.8425 6.16391 17.1374V20.1823H6.73312V20.7755H4.65858V20.1788ZM16.372 13.568H17.0475V10.7631H16.4029V10.2008C16.6395 10.1665 17.0407 10.1322 17.3253 10.1322C17.7368 10.1322 17.8774 10.2317 17.8774 10.5265V13.5714H18.4466V14.1646H16.372V13.568ZM8.48191 18.7216C8.48191 17.3466 8.90711 16.6265 10.025 16.6265C11.1428 16.6265 11.568 17.3432 11.568 18.7216C11.568 20.1 11.1428 20.8098 10.025 20.8098C8.90711 20.8098 8.48191 20.1 8.48191 18.7216ZM10.6902 18.7216C10.6902 17.6106 10.5016 17.2437 10.025 17.2437C9.54833 17.2437 9.35973 17.6072 9.35973 18.7216C9.35973 19.836 9.54833 20.1343 10.025 20.1343C10.5016 20.1343 10.6902 19.8325 10.6902 18.7216ZM19.6501 18.7216C19.6501 17.3466 20.0753 16.6265 21.1932 16.6265C22.311 16.6265 22.7362 17.3432 22.7362 18.7216C22.7362 20.1 22.311 20.8098 21.1932 20.8098C20.0753 20.8098 19.6501 20.1 19.6501 18.7216ZM21.855 18.7216C21.855 17.6106 21.6664 17.2437 21.1898 17.2437C20.7131 17.2437 20.5245 17.6072 20.5245 18.7216C20.5245 19.836 20.7131 20.1343 21.1898 20.1343C21.6664 20.1343 21.855 19.8325 21.855 18.7216ZM12.8127 20.1823H13.4882V17.3774H12.8402V16.8151C13.0768 16.7808 13.478 16.7465 13.7626 16.7465C14.174 16.7465 14.3146 16.846 14.3146 17.1409V20.1857H14.8838V20.7789H12.8093V20.1823H12.8127ZM16.372 20.1823H17.0475V17.3774H16.4029V16.8151C16.6395 16.7808 17.0407 16.7465 17.3253 16.7465C17.7368 16.7465 17.8774 16.846 17.8774 17.1409V20.1857H18.4466V20.7789H16.372V20.1823Z" fill="#86888C"/>
</svg>
