<svg width="20" height="20" viewBox="0 0 20 20" fill="none" xmlns="http://www.w3.org/2000/svg">
<path fill-rule="evenodd" clip-rule="evenodd" d="M14.9979 17.3307C15.1662 17.3307 15.3253 17.1804 15.3253 17.0211V7.35914H13.2563C12.4673 7.35914 11.7874 7.10188 11.2918 6.61696C10.7916 6.12749 10.5278 5.45817 10.5278 4.67957V2.66705H4.98906C4.839 2.66705 4.66165 2.83552 4.66165 2.97666V17.0211C4.66165 17.1736 4.82763 17.3307 4.98906 17.3307H14.9979ZM15.1525 6.69209L11.1895 2.81503V4.68184C11.1895 5.27376 11.385 5.77917 11.7533 6.13887C12.1239 6.50085 12.6446 6.69437 13.2585 6.69437H15.1525V6.69209ZM15.821 6.41434C15.9256 6.51679 15.987 6.66022 15.987 6.8082V17.0211C15.987 17.5515 15.5345 18 14.9979 18H4.98906C4.46156 18 4 17.5424 4 17.0211V2.97894C4 2.4667 4.47066 2 4.98906 2H11.0803C11.2236 2 11.3645 2.05692 11.4668 2.15709L15.821 6.41434ZM7.02403 11.1064C6.96036 11.1725 6.87396 11.2043 6.78984 11.2043C6.70571 11.2043 6.62158 11.1725 6.55564 11.1064C6.42604 10.9767 6.42604 10.7649 6.55564 10.6329L7.32188 9.85657L6.55564 9.08025C6.42604 8.94821 6.42604 8.73876 6.55564 8.60672C6.68525 8.47467 6.89443 8.47467 7.02403 8.60672L7.79027 9.38304L8.5565 8.60672C8.68611 8.47467 8.89529 8.47467 9.02489 8.60672C9.15449 8.73648 9.15449 8.94821 9.02489 9.08025L8.25865 9.85657L9.02489 10.6329C9.15449 10.7627 9.15449 10.9744 9.02489 11.1064C8.96122 11.1725 8.8771 11.2043 8.7907 11.2043C8.70657 11.2043 8.62244 11.1725 8.5565 11.1064L7.79027 10.3301L7.02403 11.1064ZM13.5405 8.60899C13.6701 8.73876 13.6701 8.95048 13.5405 9.08253L12.7742 9.85885L13.5405 10.6352C13.6701 10.7672 13.6701 10.9767 13.5405 11.1087C13.4768 11.1747 13.3904 11.2066 13.3063 11.2066C13.2221 11.2066 13.138 11.1747 13.0721 11.1087L12.3058 10.3324L11.5396 11.1087C11.4759 11.1747 11.3895 11.2066 11.3054 11.2066C11.2213 11.2066 11.1372 11.1747 11.0712 11.1087C10.9416 10.9789 10.9416 10.7672 11.0712 10.6352L11.8375 9.85885L11.0712 9.08253C10.9416 8.95276 10.9416 8.74104 11.0712 8.60899C11.2008 8.47923 11.41 8.47923 11.5396 8.60899L12.3058 9.38532L13.0721 8.60899C13.204 8.47695 13.4131 8.47695 13.5405 8.60899ZM11.9534 12.6932C12.5423 12.7069 13.2312 13.0689 13.2312 14.0387C13.2312 14.2231 13.0835 14.3734 12.9016 14.3734C12.7174 14.3734 12.5719 14.2231 12.5719 14.0387C12.5719 13.4923 12.2285 13.3694 11.9398 13.3626H11.8602C11.576 13.3648 11.2417 13.4832 11.2417 14.0319C11.2417 15.0222 10.5574 15.3773 9.97075 15.3819H9.86616C9.27727 15.3682 8.58834 15.0063 8.58834 14.0364C8.58834 13.49 8.24501 13.3671 7.95625 13.3603H7.87667C7.59018 13.3626 7.25822 13.4809 7.25822 14.0296C7.25822 14.214 7.11043 14.3643 6.92853 14.3643C6.74436 14.3643 6.59884 14.214 6.59884 14.0296C6.59884 13.0461 7.28323 12.6955 7.86985 12.691H7.97444C8.56333 12.7046 9.25226 13.0666 9.25226 14.0364C9.25226 14.5828 9.59559 14.7057 9.88435 14.7126H9.97075C10.3755 14.7103 10.5824 14.4826 10.5824 14.0433C10.5824 13.0484 11.2668 12.6955 11.8534 12.691L11.9534 12.6932Z" fill="#86888C"/>
</svg>
