<svg width="20" height="20" viewBox="0 0 20 20" fill="none" xmlns="http://www.w3.org/2000/svg">
<path fill-rule="evenodd" clip-rule="evenodd" d="M17.3353 17.0233V7.35914H15.2499C14.4576 7.35914 13.7701 7.10416 13.2715 6.61696C12.7661 6.12977 12.4997 5.46044 12.4997 4.68412V2.6716H6.9266C6.77407 2.6716 6.59422 2.83779 6.59422 2.97894V6.41207C7.47982 6.46443 8.0262 6.83324 8.51112 7.15424C9.04385 7.50939 9.45591 7.78941 10.2618 7.66875C10.362 7.64826 10.469 7.67558 10.5419 7.74161C10.6147 7.80307 10.6602 7.89641 10.6602 7.98976C10.6671 8.05578 10.6671 8.9004 10.6352 9.88845H15.2089C15.3956 9.88845 15.5413 10.0364 15.5413 10.2231C15.5413 10.4052 15.3956 10.5578 15.2089 10.5578H10.617C10.5897 11.1793 10.551 11.8076 10.4895 12.2971H15.2294C15.4161 12.2971 15.5618 12.4451 15.5618 12.6318C15.5618 12.8116 15.4161 12.9664 15.2294 12.9664H10.3506C10.1184 13.5879 9.55153 14.1844 8.91863 14.6853H15.2317C15.4183 14.6853 15.5641 14.8332 15.5641 15.0199C15.5641 15.2021 15.4183 15.3546 15.2317 15.3546H7.97839C7.37965 15.7348 6.84692 16.0102 6.59422 16.1377V17.0279C6.59422 17.1759 6.76041 17.3352 6.9266 17.3352H17.0074C17.1736 17.3307 17.3353 17.1759 17.3353 17.0233ZM2.88562 12.5134C3.08596 13.6767 5.32159 15.0085 6.33468 15.5094C6.68756 15.3364 7.18158 15.0609 7.69382 14.7331C8.65227 14.1047 9.6517 13.2738 9.78374 12.5134C9.9636 11.4707 9.99547 9.23051 9.99547 8.35401C9.15085 8.39499 8.63861 8.03984 8.14459 7.71201C7.64601 7.37735 7.17247 7.06318 6.33241 7.06318H6.32558C5.48551 7.06318 5.02108 7.37735 4.52023 7.71201C4.01482 8.04667 3.49575 8.40182 2.66251 8.36084C2.67162 9.24417 2.70577 11.4775 2.88562 12.5134ZM17.16 6.68981L13.1645 2.81047V4.68412C13.1645 5.27149 13.3648 5.77462 13.7382 6.1366C14.1116 6.50541 14.6375 6.69209 15.2499 6.69209H17.16V6.68981ZM17.8338 6.41434C17.9408 6.51451 18 6.66022 18 6.8082V17.0233C18 17.5515 17.547 18 17.0074 18H6.9266C6.39387 18 5.92717 17.5379 5.92717 17.0233V16.0603C5.05523 15.6187 2.49177 14.1867 2.22541 12.6272C1.99319 11.2703 2.00002 8.11952 2.00002 7.9852C2.00002 7.88503 2.04555 7.78486 2.12751 7.72567C2.20719 7.6642 2.31419 7.63916 2.41436 7.6642C3.20662 7.79169 3.62552 7.50484 4.15142 7.14969C4.61129 6.84235 5.13036 6.50085 5.92945 6.42117V2.97666C5.92945 2.46898 6.40298 2 6.92888 2H13.0621C13.2078 2 13.3489 2.05236 13.4559 2.15481L17.8338 6.41434ZM5.78147 12.9596C5.69723 12.9596 5.61072 12.9277 5.5447 12.8617L4.32899 11.6414C4.19922 11.5117 4.19922 11.2999 4.32899 11.1679C4.45876 11.0381 4.67048 11.0381 4.80025 11.1679L5.78147 12.1514L8.25159 9.66989C8.38135 9.54013 8.59308 9.54013 8.72284 9.66989C8.85261 9.79966 8.85261 10.0114 8.72284 10.1434L6.01596 12.8617C5.95221 12.9277 5.8657 12.9596 5.78147 12.9596Z" fill="#86888C"/>
</svg>
