<svg width="28" height="28" viewBox="0 0 28 28" fill="none" xmlns="http://www.w3.org/2000/svg">
<path fill-rule="evenodd" clip-rule="evenodd" d="M24.9809 25.5474L24.9911 11.134L21.4876 11.1135C20.3505 11.1033 19.4456 10.7652 18.7695 10.0823C17.6222 8.91102 17.6427 7.1866 17.6427 7.10807L17.6017 4.10314L9.37231 4.11338C9.01719 4.11338 8.72352 4.3968 8.72011 4.75534V9.00322L9.49524 7.49051C9.72744 7.01587 10.2977 6.82123 10.7723 7.05343C10.7758 7.05685 10.7792 7.05685 10.786 7.06026C10.9772 7.14904 11.1343 7.29929 11.2265 7.50075L18.493 22.0303C18.6022 22.2386 18.633 22.5015 18.5544 22.7405C18.4383 23.1469 18.0627 23.4269 17.6393 23.42H17.6051L8.73035 23.3893V25.3937C8.72011 25.6328 8.77133 25.8035 8.8806 25.9162C9.01377 26.0664 9.22207 26.0972 9.37231 26.0972L24.455 26.0767C24.7521 26.0767 24.9809 25.8342 24.9809 25.5474ZM3.01416 22.4093H8.73035L17.6256 22.4195L10.3318 7.93784L8.72011 11.1237L7.71278 13.1077L3.01416 22.4093ZM18.6842 4.34217C18.6637 4.31826 18.6398 4.29778 18.6159 4.2807L18.6569 7.10465C18.6569 7.19343 18.6671 8.53541 19.5037 9.37883C19.9783 9.8603 20.651 10.1096 21.4945 10.1096L24.6838 10.1301C24.6804 10.1301 18.6842 4.34217 18.6842 4.34217ZM25.6945 9.71006C25.8858 9.90128 25.9984 10.1642 25.9984 10.4306L25.9882 25.544C25.9882 26.384 25.3053 27.0772 24.4584 27.0772L9.36548 27.0977C8.87377 27.0977 8.4401 26.9167 8.14986 26.6094C7.84936 26.2884 7.70595 25.8581 7.72643 25.3664V23.3927L2.9766 23.3722C2.44391 23.4132 2.01024 22.9522 2 22.4195C2 22.259 2.04098 22.1088 2.11268 21.9585L7.71619 10.9701V4.75193C7.71619 3.85045 8.46059 3.10946 9.36548 3.10946L18.1003 3.09922C18.592 3.07873 19.0154 3.25971 19.3876 3.6285L25.6945 9.71006ZM10.3831 18.5165C10.1065 18.5131 9.88452 18.2912 9.8811 18.0146V12.5647C9.8811 12.2881 10.1065 12.0628 10.3831 12.0628C10.6597 12.0628 10.885 12.2881 10.885 12.5647V18.0146C10.885 18.2843 10.6631 18.5131 10.3831 18.5165ZM10.3899 20.7156C9.95964 20.7156 9.60793 20.3673 9.60451 19.9371C9.60451 19.5034 9.95623 19.1517 10.3899 19.1517C10.8236 19.1517 11.1753 19.5034 11.1753 19.9371C11.1753 20.3673 10.827 20.7156 10.3899 20.7156Z" fill="#86888C"/>
</svg>
