<svg width="24" height="24" viewBox="0 0 24 24" fill="none" xmlns="http://www.w3.org/2000/svg">
<path d="M20.2313 22H9.53673C8.96289 22 8.646 21.6802 8.646 21.1036V16.2388C8.646 16.0817 8.77447 15.9533 8.93149 15.9533C9.08851 15.9533 9.21698 16.0817 9.21698 16.2388V21.1036C9.21698 21.3662 9.27979 21.429 9.53959 21.429H21.1563C21.3847 21.429 21.4503 21.3605 21.4532 21.1321V7.97377L16.0488 2.57225H9.53388C9.28835 2.57225 9.21698 2.64363 9.21698 2.88629V5.62702C9.21698 5.78404 9.08851 5.91251 8.93149 5.91251C8.77447 5.91251 8.646 5.78404 8.646 5.62702V4.66206V2.88629C8.646 2.32673 8.97146 2.00412 9.53388 2.00127C10.1277 2.00127 13.3338 1.99841 16.1687 2.00127C16.2458 2.00127 16.3172 2.03267 16.3714 2.08406L21.9385 7.65116C21.9928 7.7054 22.0213 7.77678 22.0213 7.85386V21.1321C22.0213 21.6831 21.7044 22 21.1563 22H20.2313Z" fill="#86888C"/>
<path d="M21.736 8.13906H18.9525C18.056 8.13906 17.288 7.845 16.7313 7.29115C16.1746 6.73729 15.8834 5.96932 15.8834 5.07002V3.53692V2.28647C15.8834 2.12945 16.0119 2.00098 16.1689 2.00098C16.2431 2.00098 16.3174 2.02953 16.3688 2.08377L21.9359 7.65087C22.0472 7.76221 22.0472 7.94207 21.9359 8.05341C21.8845 8.10765 21.8102 8.13906 21.736 8.13906ZM16.4544 2.9745V5.07002C16.4544 6.58598 17.4336 7.56807 18.9525 7.56807H21.048L16.4544 2.9745ZM10.3277 16.4155C7.21872 16.4155 4.70068 13.8974 4.70068 10.7884C4.70068 7.67942 7.21872 5.16138 10.3277 5.16138C13.4367 5.16138 15.9548 7.67942 15.9548 10.7884C15.9548 12.2816 15.361 13.7119 14.3075 14.7682C13.254 15.8245 11.8209 16.4183 10.3277 16.4155ZM10.3277 5.73236C7.53562 5.73236 5.27167 7.99631 5.27167 10.7884C5.27167 13.5805 7.53562 15.8445 10.3277 15.8445C13.1198 15.8445 15.3838 13.5805 15.3838 10.7884C15.3838 9.44661 14.8499 8.1619 13.9021 7.21121C12.9571 6.26052 11.6695 5.72951 10.3277 5.73236Z" fill="#86888C"/>
<path d="M2.28549 19.2595C2.12847 19.2595 2 19.1339 2 18.974C2 18.8998 2.02855 18.8256 2.08279 18.7742L6.34805 14.3662C6.45939 14.2549 6.63925 14.252 6.75059 14.3633C6.86193 14.4718 6.86479 14.6517 6.7563 14.7659L2.49105 19.171C2.4368 19.2281 2.36258 19.2595 2.28549 19.2595Z" fill="#86888C"/>
</svg>
