<svg width="40" height="40" viewBox="0 0 40 40" fill="none" xmlns="http://www.w3.org/2000/svg">
<path fill-rule="evenodd" clip-rule="evenodd" d="M36.4439 29.3399V24.4328C36.4439 24.4021 36.4439 24.2535 36.4286 24.0691C36.3979 23.7823 36.3109 23.3776 36.0092 23.06C35.6665 22.6861 35.0936 22.5017 34.3315 22.5017H23.7487C23.4929 22.5017 22.7922 22.5478 22.3114 22.9832C21.984 23.3008 21.8152 23.7823 21.8152 24.4123V33.5761C21.8152 33.6375 21.7692 34.4212 22.2653 34.9437C22.6132 35.3074 23.1656 35.4867 23.9123 35.4867H34.3315C34.3775 35.4867 35.3544 35.5481 35.9529 34.9744C36.2802 34.6569 36.449 34.1907 36.449 33.5607L36.4439 29.3399ZM33.687 19.71C33.687 15.7659 30.7357 15.269 29.4467 15.2434L28.9812 15.228C27.7383 15.2434 24.8126 15.6942 24.8126 19.6793V21.0009H33.687V19.71ZM20.3166 24.4174C20.3166 23.3315 20.6439 22.4761 21.3037 21.8716C21.9636 21.2723 22.7564 21.0726 23.3139 21.0265V19.6742C23.3139 15.3254 26.2345 13.7477 28.9812 13.717L29.4876 13.7323C32.2446 13.7938 35.1856 15.4022 35.1856 19.7049V21.0572C35.6665 21.134 36.0705 21.2979 36.4286 21.508V10.4233C36.4286 9.97258 36.0705 9.62939 35.6358 9.62939H19.1913C18.7718 9.62939 18.4445 9.28107 18.4445 8.87641V6.2999C18.4445 5.84914 18.0864 5.50083 17.6517 5.50083H4.29149C3.85672 5.50083 3.49867 5.84914 3.49867 6.2999V31.6091C3.49867 32.0496 3.85672 32.4082 4.29149 32.4082H20.3166V24.4174ZM37.9272 23.9103C37.9579 24.2074 37.9426 24.4328 37.9426 24.4943V33.5709C37.9426 34.6364 37.6101 35.4764 36.9708 36.0962C35.9069 37.0899 34.4338 36.9977 34.2701 36.9977H23.9123C22.7308 36.9977 21.7999 36.6494 21.1707 35.9579C20.5109 35.251 20.3472 34.3956 20.3166 33.9141H4.29149C3.03322 33.909 2 32.8743 2 31.6091V6.2999C2 5.01933 3.03322 4 4.29149 4H17.6466C18.9048 4 19.938 5.02446 19.938 6.2999V8.11831H35.6306C36.8889 8.11831 37.9221 9.14277 37.9221 10.4182L37.9272 23.9103ZM29.2319 31.2403C30.0042 31.2249 30.9198 30.9022 30.9198 29.4526C30.9198 27.9979 29.9991 27.6701 29.2216 27.6496H29.0068C28.2498 27.6547 27.3496 27.9723 27.3496 29.4373C27.3496 30.9074 28.2652 31.2301 29.0324 31.2403H29.2319ZM29.2523 26.1488C30.7152 26.1846 32.4185 27.0708 32.4185 29.4526C32.4185 31.8396 30.7152 32.7155 29.2626 32.7411H29.0017C27.5491 32.7206 25.8458 31.8396 25.8458 29.4373C25.8458 27.0247 27.5388 26.159 28.9915 26.1436L29.2523 26.1488ZM6.87453 16.6725C7.23769 16.6725 7.7901 16.6725 7.7901 14.5673C7.7901 12.4518 7.23769 12.4518 6.87453 12.4518C6.50625 12.4518 5.94872 12.4518 5.94872 14.5673C5.95384 16.6674 6.51137 16.6674 6.87453 16.6725ZM6.87453 11.079C8.39877 11.079 9.16601 12.2469 9.16601 14.5621C9.16601 16.8672 8.39366 18.0351 6.87453 18.0351C5.34516 18.0351 4.57281 16.8672 4.57281 14.5621C4.57792 12.252 5.35028 11.079 6.87453 11.079ZM12.6851 16.6674C13.0482 16.6674 13.6007 16.6674 13.6007 14.5621C13.6007 12.4466 13.0482 12.4466 12.6851 12.4466C12.3168 12.4466 11.7593 12.4466 11.7593 14.5621C11.7593 16.6674 12.3168 16.6674 12.6851 16.6674ZM12.6851 11.079C14.2093 11.079 14.9766 12.2469 14.9766 14.5621C14.9766 16.8672 14.2042 18.0351 12.6851 18.0351C11.1557 18.0351 10.3834 16.8672 10.3834 14.5621C10.3834 12.252 11.1557 11.079 12.6851 11.079ZM7.90774 26.4202C8.21975 26.4202 8.47038 26.6712 8.47038 26.9837V27.1988C8.47038 27.5113 8.21975 27.7623 7.90774 27.7623H5.86177C5.54976 27.7623 5.29913 27.5113 5.29913 27.1988V26.9837C5.29913 26.6712 5.54976 26.4202 5.86177 26.4202H6.28119V22.3378H5.92826C5.61625 22.3378 5.36562 22.0868 5.36562 21.7743V21.595C5.36562 21.3082 5.58045 21.0623 5.872 21.0316C6.23004 20.9957 6.56251 20.9804 6.69039 20.9804C7.57016 20.9804 7.63665 21.6207 7.63665 21.8153V26.4254C7.64176 26.4202 7.90774 26.4202 7.90774 26.4202ZM12.6851 26.5073C13.0482 26.5073 13.6007 26.5073 13.6007 24.4021C13.6007 22.2865 13.0482 22.2865 12.6851 22.2865C12.3168 22.2865 11.7593 22.2865 11.7593 24.4021C11.7593 26.5073 12.3168 26.5073 12.6851 26.5073ZM12.6851 20.9189C14.2093 20.9189 14.9766 22.0868 14.9766 24.4021C14.9766 26.7071 14.2042 27.875 12.6851 27.875C11.1557 27.875 10.3834 26.7071 10.3834 24.4021C10.3834 22.0919 11.1557 20.9189 12.6851 20.9189ZM19.5186 26.4202C19.8306 26.4202 20.0813 26.6712 20.0813 26.9837V27.1988C20.0813 27.5113 19.8306 27.7623 19.5186 27.7623H17.4778C17.1658 27.7623 16.9151 27.5113 16.9151 27.1988V26.9837C16.9151 26.6712 17.1658 26.4202 17.4778 26.4202H17.8972V22.3378H17.5443C17.2323 22.3378 16.9816 22.0868 16.9816 21.7743V21.595C16.9816 21.3082 17.1964 21.0623 17.488 21.0316C17.846 20.9957 18.1785 20.9804 18.3064 20.9804C19.1862 20.9804 19.2526 21.6207 19.2526 21.8153V26.4254C19.2578 26.4202 19.5186 26.4202 19.5186 26.4202Z" fill="#86888C"/>
</svg>
