<svg width="40" height="40" viewBox="0 0 40 40" fill="none" xmlns="http://www.w3.org/2000/svg">
<path fill-rule="evenodd" clip-rule="evenodd" d="M36.5043 35.8025V14.0581H31.8122C30.0296 14.0581 28.4827 13.4843 27.3609 12.3882C26.2237 11.292 25.6244 9.786 25.6244 8.03927V3.5111H13.0849C12.7417 3.5111 12.337 3.88503 12.337 4.20262V11.9271C14.3296 12.045 15.559 12.8748 16.65 13.597C17.8487 14.3961 18.7758 15.0262 20.5891 14.7547C20.8145 14.7086 21.0553 14.7701 21.2192 14.9186C21.3831 15.0569 21.4855 15.2669 21.4855 15.4769C21.5009 15.6255 21.5009 17.5259 21.4292 19.749H31.72C32.1401 19.749 32.4679 20.082 32.4679 20.502C32.4679 20.9118 32.1401 21.255 31.72 21.255H21.3882C21.3267 22.6534 21.2397 24.0672 21.1014 25.1685H31.7661C32.1862 25.1685 32.514 25.5014 32.514 25.9215C32.514 26.3261 32.1862 26.6744 31.7661 26.6744H20.7889C20.2664 28.0729 18.9909 29.4149 17.5669 30.5418H31.7713C32.1913 30.5418 32.5191 30.8748 32.5191 31.2948C32.5191 31.7046 32.1913 32.0478 31.7713 32.0478H15.4514C14.1042 32.9032 12.9056 33.5231 12.337 33.8099V35.8127C12.337 36.1457 12.7109 36.5043 13.0849 36.5043H35.7667C36.1406 36.494 36.5043 36.1457 36.5043 35.8025ZM3.99265 25.6551C4.44342 28.2726 9.47358 31.2692 11.753 32.3961C12.547 32.0068 13.6586 31.387 14.8111 30.6494C16.9676 29.2356 19.2163 27.366 19.5134 25.6551C19.9181 23.309 19.9898 18.2686 19.9898 16.2965C18.0894 16.3887 16.9369 15.5896 15.8253 14.852C14.7035 14.099 13.6381 13.3921 11.7479 13.3921H11.7325C9.84239 13.3921 8.79743 14.099 7.67051 14.852C6.53334 15.605 5.36544 16.4041 3.49066 16.3119C3.51115 18.2994 3.58798 23.3244 3.99265 25.6551ZM36.1099 12.5521L27.1201 3.82356V8.03927C27.1201 9.36084 27.5709 10.4929 28.411 11.3073C29.251 12.1372 30.4343 12.5572 31.8122 12.5572H36.1099V12.5521ZM37.6261 11.9323C37.8669 12.1577 38.0001 12.4855 38.0001 12.8184V35.8025C38.0001 36.9909 36.9807 38 35.7667 38H13.0849C11.8862 38 10.8361 36.9602 10.8361 35.8025V33.6357C8.87427 32.642 3.10648 29.42 2.50716 25.9112C1.98468 22.8583 2.00005 15.7689 2.00005 15.4667C2.00005 15.2413 2.10249 15.0159 2.2869 14.8828C2.46618 14.7445 2.70693 14.6881 2.93232 14.7445C4.7149 15.0313 5.65742 14.3859 6.84069 13.5868C7.8754 12.8953 9.0433 12.1269 10.8413 11.9476V4.1975C10.8413 3.05521 11.9067 2 13.09 2H26.8896C27.2175 2 27.5351 2.11781 27.7758 2.34832L37.6261 11.9323ZM10.5083 26.6591C10.3188 26.6591 10.1241 26.5874 9.97558 26.4388L7.24023 23.6932C6.94826 23.4013 6.94826 22.9249 7.24023 22.6278C7.53221 22.3358 8.00859 22.3358 8.30056 22.6278L10.5083 24.8406L16.0661 19.2573C16.358 18.9653 16.8344 18.9653 17.1264 19.2573C17.4184 19.5492 17.4184 20.0256 17.1264 20.3227L11.0359 26.4388C10.8925 26.5874 10.6978 26.6591 10.5083 26.6591Z" fill="#86888C"/>
</svg>
