<svg width="20" height="20" viewBox="0 0 20 20" fill="none" xmlns="http://www.w3.org/2000/svg">
<path d="M13.2422 18H7.4544C6.61648 18 6.01144 17.8064 5.60732 17.4056C5.19864 17.0024 5 16.3943 5 15.5516V4.4484C5 3.62847 5.19864 3.02947 5.60504 2.6195C6.01829 2.2027 6.62333 2 7.4544 2H13.2422C14.0824 2 14.6875 2.19815 15.0939 2.60584C15.5003 3.01352 15.6966 3.6148 15.6966 4.4484V15.5516C15.6966 16.3943 15.498 17.0001 15.0893 17.4056C14.6852 17.8064 14.0801 18 13.2422 18ZM7.4544 2.45552C6.75119 2.45552 6.25346 2.61267 5.92925 2.93836C5.60961 3.2595 5.45435 3.75374 5.45435 4.4484V15.5516C5.45435 16.9683 6.03427 17.5445 7.45212 17.5445H13.2399C14.6601 17.5445 15.2377 16.9683 15.2377 15.5516V4.4484C15.2377 3.74007 15.0847 3.24128 14.7697 2.92698C14.4546 2.61267 13.9546 2.45552 13.2422 2.45552H7.4544Z" fill="#86888C"/>
<path d="M10.354 14.7408C9.94305 14.7408 9.67592 14.9572 9.67592 15.4195C9.67592 15.6427 9.73757 15.8067 9.84716 15.9183C9.96588 16.039 10.1394 16.0982 10.354 16.0982C10.5686 16.0982 10.7422 16.039 10.8609 15.9183C10.9705 15.8067 11.0298 15.6427 11.0298 15.4195C11.0298 14.9572 10.765 14.7408 10.354 14.7408ZM10.3495 13.2194C10.2832 13.2194 10.2216 13.192 10.1782 13.1419L7.37449 9.95103C7.2923 9.85537 7.30143 9.71189 7.39504 9.62989C7.43614 9.59345 7.49093 9.57295 7.54573 9.57295H8.96586V5.25238C8.95901 5.09979 9.02065 4.95174 9.13481 4.84698C9.25582 4.73082 9.42021 4.67388 9.58688 4.6921H11.1577C11.3152 4.6921 11.4659 4.75815 11.5687 4.87658C11.6691 4.99046 11.7171 5.14078 11.6988 5.29338V9.57295H13.1623C13.2879 9.57295 13.3906 9.67545 13.3906 9.80071C13.3906 9.85537 13.3701 9.91004 13.3336 9.95103L10.5207 13.1442C10.4773 13.192 10.4157 13.2194 10.3495 13.2194ZM8.04803 10.0285L10.3495 12.6477L12.6577 10.0285H11.4705C11.3449 10.0285 11.2422 9.92598 11.2422 9.80071V5.27744C11.2422 5.26605 11.2422 5.25466 11.2445 5.24327C11.249 5.2205 11.2422 5.19544 11.2262 5.17722C11.2102 5.159 11.1897 5.14762 11.1668 5.14762H9.57318C9.56405 5.14762 9.55491 5.14762 9.5435 5.14534C9.50925 5.14078 9.47272 5.15217 9.44761 5.17722C9.43162 5.18861 9.42249 5.20683 9.42021 5.22733V9.80071C9.42021 9.92598 9.31747 10.0285 9.19189 10.0285H8.04803Z" fill="#86888C"/>
</svg>
