<svg width="28" height="28" viewBox="0 0 28 28" fill="none" xmlns="http://www.w3.org/2000/svg">
<path fill-rule="evenodd" clip-rule="evenodd" d="M24.9174 21.9029H23.6205C23.6205 21.4051 24.0201 20.606 24.2199 20.606C24.4197 20.606 24.9174 21.3035 24.9174 21.9029ZM20.8337 18.4152C20.8337 18.8147 20.5358 19.1127 20.2344 19.1127C18.5413 19.4107 16.1507 20.1082 14.2578 21.6049C13.8583 21.9029 13.2623 21.9029 12.8628 21.6049C11.0681 20.1116 8.57928 19.4141 6.88621 19.1127C6.48664 19.0145 6.28686 18.7131 6.28686 18.4152V14.1317L12.7646 17.1216C13.1641 17.3214 13.6619 17.3214 14.0615 17.1216L20.7322 14.0301L20.8337 18.4152ZM2.99891 11.1417C2.99891 10.8437 3.09711 10.644 3.39848 10.5424L13.2623 6.05911C13.4621 5.96091 13.5603 5.96091 13.7601 6.05911L23.6239 10.5424C23.7424 10.6033 23.7221 10.6406 23.7221 10.6406H13.3605C13.0625 10.6406 12.8628 10.8403 12.8628 11.1383C12.8628 11.4363 13.0625 11.6361 13.3605 11.6361H23.5223L13.6585 16.1227C13.4587 16.2209 13.3605 16.2209 13.1607 16.1227L3.29689 11.6395C3.09711 11.5413 2.99891 11.3415 2.99891 11.1417ZM24.8192 19.7121V11.6395C24.8362 11.013 24.8802 9.98027 24.0235 9.64842L14.1563 5.16517C13.6585 4.96538 13.2589 4.96538 12.7612 5.06697L2.89733 9.64842C2.29798 9.84821 2 10.4442 2 11.1417C2 11.8393 2.39957 12.337 2.89733 12.635L5.29133 13.7321V18.4152C5.29133 19.3125 5.89068 20.01 6.68643 20.2098C8.2813 20.5078 10.5737 21.1071 12.1652 22.5022C12.5648 22.8002 12.961 23 13.4621 23C13.9599 23 14.3594 22.8002 14.759 22.5022C16.4521 21.2053 18.6463 20.5112 20.2378 20.2098C21.0335 20.01 21.6329 19.3125 21.6329 18.4152V13.6339L23.7255 12.7366V19.7121C22.9298 20.01 22.5302 21.2053 22.5302 21.9029C22.5302 22.2009 22.6284 22.5022 22.8282 22.6986C23.1262 22.9966 23.5257 22.9966 23.9253 22.9966H24.5246C24.8226 22.9966 25.1104 22.9255 25.422 22.6986C25.6488 22.5327 25.7335 22.4142 25.7707 21.9029C25.8148 21.1681 25.5168 20.2098 24.8192 19.7121Z" fill="#86888C"/>
</svg>
