<svg width="20" height="20" viewBox="0 0 20 20" fill="none" xmlns="http://www.w3.org/2000/svg">
<path fill-rule="evenodd" clip-rule="evenodd" d="M17.4229 15.2686H16.5501C16.5501 14.9367 16.819 14.404 16.9535 14.404C17.0879 14.404 17.4229 14.869 17.4229 15.2686V15.2686ZM14.6747 12.9434C14.6747 13.2098 14.4741 13.4085 14.2713 13.4085C13.1319 13.6071 11.5231 14.0722 10.2492 15.0699C9.98034 15.2686 9.57928 15.2686 9.31038 15.0699C8.10262 14.0744 6.4277 13.6094 5.2883 13.4085C5.01941 13.343 4.88496 13.1421 4.88496 12.9434V10.0878L9.24429 12.0811C9.51319 12.2143 9.84818 12.2143 10.1171 12.0811L14.6063 10.0201L14.6747 12.9434ZM2.67224 8.09448C2.67224 7.89582 2.73833 7.76263 2.94114 7.69491L9.57928 4.70607C9.71373 4.64061 9.77981 4.64061 9.91426 4.70607L16.5524 7.69491C16.6322 7.73554 16.6185 7.76038 16.6185 7.76038H9.64536C9.44483 7.76038 9.31038 7.89357 9.31038 8.09222C9.31038 8.29087 9.44483 8.42406 9.64536 8.42406H16.484L9.8459 11.4152C9.71145 11.4806 9.64536 11.4806 9.51091 11.4152L2.87278 8.42632C2.73833 8.36085 2.67224 8.22767 2.67224 8.09448ZM17.3568 13.808V8.42632C17.3682 8.00869 17.3978 7.32018 16.8213 7.09895L10.1809 4.11011C9.8459 3.97692 9.577 3.97692 9.24202 4.04465L2.60388 7.09895C2.20053 7.23214 2 7.62945 2 8.09448C2 8.55951 2.2689 8.89135 2.60388 9.09L4.21499 9.82141V12.9434C4.21499 13.5417 4.61834 14.0067 5.15385 14.1399C6.22717 14.3385 7.76991 14.7381 8.84095 15.6682C9.10985 15.8668 9.37646 16 9.71373 16C10.0487 16 10.3176 15.8668 10.5865 15.6682C11.7259 14.8036 13.2026 14.3408 14.2736 14.1399C14.8091 14.0067 15.2125 13.5417 15.2125 12.9434V9.75595L16.6208 9.15773V13.808C16.0852 14.0067 15.8163 14.8036 15.8163 15.2686C15.8163 15.4672 15.8824 15.6682 16.0169 15.7991C16.2174 15.9977 16.4863 15.9977 16.7552 15.9977H17.1586C17.3591 15.9977 17.5528 15.9503 17.7624 15.7991C17.9151 15.6885 17.9721 15.6095 17.9972 15.2686C18.0268 14.7787 17.8262 14.1399 17.3568 13.808Z" fill="#86888C"/>
</svg>
