<svg width="40" height="40" viewBox="0 0 40 40" fill="none" xmlns="http://www.w3.org/2000/svg">
<path fill-rule="evenodd" clip-rule="evenodd" d="M36.6493 33.2934H34.632C34.632 32.5191 35.2535 31.276 35.5643 31.276C35.875 31.276 36.6493 32.3611 36.6493 33.2934ZM30.2969 27.868C30.2969 28.4896 29.8334 28.9531 29.3646 28.9531C26.7309 29.4166 23.0122 30.5017 20.0678 32.8299C19.4462 33.2934 18.5192 33.2934 17.8976 32.8299C15.1059 30.507 11.2344 29.4219 8.60077 28.9531C7.97922 28.8003 7.66845 28.3315 7.66845 27.868V21.2048L17.7449 25.8559C18.3664 26.1667 19.1407 26.1667 19.7623 25.8559L30.1389 21.0468L30.2969 27.868ZM2.55386 16.5538C2.55386 16.0903 2.70662 15.7795 3.17541 15.6215L18.5192 8.6475C18.8299 8.49475 18.9827 8.49475 19.2935 8.6475L34.6372 15.6215C34.8216 15.7163 34.79 15.7742 34.79 15.7742H18.6719C18.2084 15.7742 17.8976 16.085 17.8976 16.5485C17.8976 17.012 18.2084 17.3228 18.6719 17.3228H34.4792L19.1354 24.302C18.8247 24.4548 18.6719 24.4548 18.3611 24.302L3.01739 17.3281C2.70662 17.1753 2.55386 16.8646 2.55386 16.5538ZM36.4966 29.8854V17.3281C36.5229 16.3536 36.5914 14.7471 35.2588 14.2309L19.9097 7.25693C19.1354 6.94615 18.5139 6.94615 17.7396 7.10417L2.39584 14.2309C1.46353 14.5417 1 15.4687 1 16.5538C1 17.6389 1.62155 18.4131 2.39584 18.8767L6.11985 20.5833V27.868C6.11985 29.2639 7.05217 30.3489 8.29 30.6597C10.7709 31.1232 14.3369 32.0556 16.8126 34.2257C17.4341 34.6892 18.0504 35 18.8299 35C19.6042 35 20.2258 34.6892 20.8473 34.2257C23.481 32.2083 26.8942 31.1285 29.3699 30.6597C30.6077 30.3489 31.54 29.2639 31.54 27.868V20.4305L34.7952 19.0347V29.8854C33.5574 30.3489 32.9359 32.2083 32.9359 33.2934C32.9359 33.7569 33.0886 34.2257 33.3994 34.5312C33.8629 34.9947 34.4845 34.9947 35.106 34.9947H36.0383C36.5019 34.9947 36.9496 34.8841 37.4342 34.5312C37.7871 34.2731 37.9188 34.0887 37.9767 33.2934C38.0452 32.1504 37.5817 30.6597 36.4966 29.8854Z" fill="#86888C"/>
</svg>
