<svg width="40" height="40" viewBox="0 0 40 40" fill="none" xmlns="http://www.w3.org/2000/svg">
<path fill-rule="evenodd" clip-rule="evenodd" d="M20.799 36.4838C24.4819 36.4172 36.4989 35.029 36.4989 20.0411C36.4989 13.5511 34.2759 8.86414 29.9014 6.11857C26.326 3.87498 22.2896 3.54715 20.717 3.50617C20.3072 3.49593 19.8309 3.49081 19.3698 3.49081H19.0574C17.5002 3.50617 13.4894 3.77254 9.96524 5.99051C5.67272 8.68998 3.49572 13.382 3.49572 19.9335C3.49572 26.4952 5.69321 31.2027 10.0267 33.9329C13.5816 36.1713 17.6231 36.4684 19.1957 36.4889C19.375 36.494 19.5543 36.494 19.7387 36.494C20.1126 36.494 20.4763 36.4889 20.799 36.4838ZM20.7529 2.01557C24.277 2.09753 37.9998 3.49081 37.9998 20.0462C37.9998 36.6375 24.2566 37.9232 20.8246 37.9898C20.4968 37.9949 20.1228 38 19.7387 38C19.5491 38 19.3596 38 19.1752 37.9949C15.5588 37.9437 2 36.6375 2 19.9438C2 3.27567 15.4359 2.03094 19.0471 2.00533H19.3698C19.8411 1.99509 20.3277 2.00021 20.7529 2.01557ZM31.2537 22.5152V17.4748C31.2537 17.1572 30.7927 16.7577 30.2804 16.7577H23.9748C23.5599 16.7577 23.227 16.4247 23.227 16.0098V9.72469C23.227 9.20734 22.8223 8.74633 22.5047 8.74633H17.4797C17.157 8.74633 16.7575 9.19709 16.7575 9.72469V16.0252C16.7575 16.4401 16.4194 16.773 16.0096 16.773H9.70912C9.1764 16.773 8.75124 17.1674 8.75124 17.4902V22.5152C8.75124 22.8481 9.17127 23.2323 9.70912 23.2323H16.0096C16.4245 23.2323 16.7575 23.5704 16.7575 23.9802V30.2806C16.7575 30.8134 17.1519 31.2385 17.4797 31.2385H22.5201C22.8479 31.2385 23.2423 30.8134 23.2423 30.2806L23.227 23.9802C23.227 23.7804 23.3038 23.5909 23.4472 23.4474C23.5907 23.304 23.7802 23.2272 23.9748 23.2272H30.2753C30.7927 23.2323 31.2537 22.8328 31.2537 22.5152ZM30.2804 15.2568C31.602 15.2568 32.7545 16.2967 32.7545 17.4748V22.5152C32.7545 23.6984 31.5969 24.7331 30.2804 24.7331H24.7278L24.7432 30.2806C24.7432 31.6124 23.7238 32.7394 22.5201 32.7394H17.4797C16.276 32.7394 15.2566 31.6124 15.2566 30.2806V24.7331H9.704C8.37219 24.7331 7.24527 23.7189 7.24527 22.5152V17.4902C7.24527 16.2915 8.37219 15.2722 9.704 15.2722H15.2566V9.72469C15.2566 8.40825 16.2913 7.2506 17.4797 7.2506H22.5047C23.688 7.2506 24.7278 8.40825 24.7278 9.72469V15.2568H30.2804Z" fill="#86888C"/>
</svg>
