<svg width="24" height="24" viewBox="0 0 24 24" fill="none" xmlns="http://www.w3.org/2000/svg">
<path fill-rule="evenodd" clip-rule="evenodd" d="M9.09549 14.5857C9.32603 14.5857 9.51103 14.7736 9.51103 15.0013L9.51387 20.6651C9.51387 20.9953 9.75011 21.2628 9.9038 21.2628L14.099 21.2657C14.2527 21.2657 14.489 20.9953 14.489 20.6651L14.4861 14.9984C14.4861 14.7679 14.674 14.5829 14.9017 14.5829L20.5655 14.58C20.8928 14.58 21.1632 14.3239 21.1632 14.1901V9.99487C21.1632 9.86395 20.8928 9.60495 20.5655 9.60495L14.8988 9.60779C14.6683 9.60779 14.4833 9.41995 14.4833 9.19225L14.4804 3.53123C14.4804 3.20392 14.2214 2.93354 14.0905 2.93354H9.89811C9.76718 2.93354 9.50534 3.20392 9.50534 3.53123L9.50818 9.19794C9.50818 9.42848 9.32034 9.61348 9.09264 9.61348L3.42877 9.61633C3.09862 9.61633 2.82823 9.85256 2.82823 10.0063V14.2015C2.82823 14.3552 3.09862 14.5943 3.42877 14.5943L9.09549 14.5857ZM14.1019 22.0996L9.90664 22.0968C9.25487 22.0968 8.68279 21.4279 8.68279 20.6651L8.67995 15.4197L3.43162 15.4225C2.66885 15.4225 2 14.8504 2 14.1987L2.00285 10.0063C2.00285 9.35448 2.67169 8.7824 3.43731 8.7824L8.67995 8.77956L8.6771 3.53123C8.6771 2.78269 9.26057 2.09961 9.90095 2.09961H14.0962C14.7366 2.09961 15.3201 2.78269 15.3201 3.53123V8.77671L20.5712 8.77387C21.3198 8.77387 22.0028 9.35733 22.0028 9.99772V14.193C22.0028 14.8334 21.3198 15.4168 20.5712 15.4168H15.3229L15.3257 20.668C15.3257 21.4308 14.7537 22.0996 14.1019 22.0996Z" fill="#86888C"/>
</svg>
