<svg width="24" height="24" viewBox="0 0 24 24" fill="none" xmlns="http://www.w3.org/2000/svg">
<path fill-rule="evenodd" clip-rule="evenodd" d="M19.9372 7.84452L19.9126 8.22142C19.8771 8.74307 19.5822 11.4387 17.1651 13.1211L16.5806 13.528L17.2306 13.8203C21.0024 15.5054 21.0843 19.4409 21.087 19.4792C21.087 19.8943 20.7511 20.2302 20.3387 20.2302C19.929 20.2302 19.5931 19.8943 19.5904 19.4792C19.5822 19.034 19.3719 15.519 14.9966 14.7133C15.0812 14.4266 15.1304 14.1098 15.1304 13.752C15.1304 13.2931 15.0539 12.8971 14.9174 12.5585C18.009 11.4824 18.375 8.88236 18.416 8.27877L18.3996 7.85272L17.318 7.84179L19.1616 5.96277L21.0187 7.84179L19.9372 7.84452ZM12.5959 15.4808C12.2736 15.4808 11.9978 15.4371 11.7684 15.3524C11.5826 15.2869 11.4215 15.1968 11.2986 15.0766C11.1675 14.951 11.0719 14.7844 11.0009 14.5877C10.9162 14.3556 10.8698 14.077 10.8698 13.7465C10.8698 13.3532 10.9381 13.031 11.0583 12.7742C11.1238 12.6349 11.2003 12.5093 11.3013 12.411C11.4379 12.2799 11.61 12.1816 11.8203 12.1133C12.0415 12.0423 12.2982 12.0068 12.5959 12.0068C12.8936 12.0068 13.1503 12.0423 13.3688 12.1133C13.5818 12.1816 13.7594 12.2826 13.8959 12.4137C13.997 12.512 14.0734 12.6349 14.139 12.7742C14.2619 13.031 14.3302 13.3532 14.3302 13.7465C14.3302 14.077 14.281 14.3583 14.1963 14.5932C14.1253 14.7871 14.027 14.951 13.8987 15.0766C13.773 15.1995 13.6119 15.2869 13.4207 15.3552C13.1886 15.4371 12.9154 15.4808 12.5959 15.4808ZM5.48674 19.4792C5.48128 19.8889 5.14535 20.2248 4.73294 20.2248C4.326 20.2221 3.99281 19.8861 3.99281 19.4792C3.99281 19.4382 4.07747 15.4753 7.91746 13.8011L8.5702 13.5171L7.98847 13.1047C5.60964 11.4223 5.31741 8.74307 5.28464 8.22415L5.2027 7.85272L4.17579 7.84179L6.03024 5.96277L7.87922 7.84179L6.75399 7.84725L6.78403 8.27604C6.82773 8.87962 7.1937 11.4797 10.2799 12.5557C10.1433 12.8944 10.0696 13.2931 10.0696 13.7492C10.0696 14.1016 10.1188 14.4156 10.2007 14.6997C5.70523 15.4781 5.49493 19.0313 5.48674 19.4792ZM22.0784 7.76805L19.5685 5.23082C19.391 5.0096 19.066 4.97136 18.7874 5.19805L16.2611 7.77078C16.1327 7.92919 16.1081 8.15587 16.1955 8.33886C16.2829 8.52458 16.4632 8.63655 16.6598 8.63655L17.5529 8.64475C17.3836 9.49686 16.7609 11.1383 14.4722 11.862C14.4613 11.8511 14.4558 11.8429 14.4476 11.8347C14.0161 11.4141 13.3907 11.2038 12.5904 11.2038C11.7929 11.2038 11.1675 11.4141 10.736 11.8347C10.7251 11.8456 10.7196 11.8593 10.7087 11.8702C8.43091 11.1629 7.80275 9.55968 7.63342 8.64475L8.52923 8.63655C8.73134 8.63655 8.90886 8.52184 8.99899 8.33613C9.08638 8.15314 9.05907 7.92646 8.9034 7.73801L6.43718 5.23355L6.35251 5.14615C6.24327 5.05876 6.10671 5.02052 5.97015 5.03691C5.83359 5.0533 5.71069 5.11884 5.65607 5.19532L3.12157 7.76259C2.99048 7.92372 2.96317 8.14768 3.05056 8.33067C3.13796 8.51638 3.31821 8.63109 3.51759 8.63109L4.52265 8.63928C4.64555 9.58153 5.13169 11.7364 7.00252 13.345C3.23628 15.3797 3.19258 19.4328 3.19258 19.4765C3.19258 20.3258 3.88083 21.0195 4.74114 21.0277C5.58233 21.0277 6.27604 20.3368 6.2897 19.4928C6.29516 19.1132 6.48634 16.0598 10.5776 15.4562C10.6322 15.5245 10.6786 15.5982 10.7415 15.661C11.173 16.0762 11.7957 16.2865 12.5959 16.2865C13.3961 16.2865 14.0188 16.0762 14.4531 15.661C14.5132 15.6037 14.5596 15.5327 14.6115 15.4671C18.5908 16.0926 18.7819 19.1132 18.7874 19.4874C18.7929 20.3395 19.4866 21.0332 20.336 21.0332C21.1908 21.0332 21.8845 20.334 21.8845 19.4792C21.8845 19.4355 21.8408 15.418 18.1456 13.3805C20.0465 11.7828 20.5435 9.67166 20.6719 8.65021L21.6715 8.63928C21.8736 8.63928 22.0538 8.52458 22.1412 8.33886C22.2314 8.15314 22.2068 7.92919 22.0784 7.76805Z" fill="#86888C"/>
</svg>
