<svg width="24" height="24" viewBox="0 0 24 24" fill="none" xmlns="http://www.w3.org/2000/svg">
<path fill-rule="evenodd" clip-rule="evenodd" d="M11.6471 16.6927L5.65965 10.7052C5.41776 10.4861 5.39499 10.1133 5.61411 9.87137C5.83324 9.62948 6.20603 9.60672 6.44792 9.82584C6.46215 9.84007 6.47923 9.8543 6.49061 9.86853L11.4678 14.8571V2.58907C11.4707 2.26466 11.7325 2 12.0598 2C12.387 2 12.6488 2.26466 12.6488 2.58907V14.86L17.5322 9.97666C17.774 9.75754 18.1497 9.77746 18.366 10.0194C18.568 10.2442 18.568 10.5857 18.366 10.8105L12.4838 16.6927C12.424 16.7467 12.3557 16.7894 12.2846 16.8236C12.1423 16.8862 11.9801 16.8862 11.8378 16.8236C11.7666 16.7894 11.704 16.7467 11.6471 16.6927ZM21.4109 16.5532C21.7353 16.5532 22 16.8179 22 17.1394V21.4109C22 21.7353 21.7382 22 21.4138 22H2.58623C2.26181 22 2 21.7382 2 21.4138V17.1423C2 16.8179 2.26466 16.5532 2.58907 16.5532C2.91349 16.5532 3.17814 16.8179 3.17814 17.1423V20.8247H20.8275V17.1423C20.8247 16.815 21.0865 16.5532 21.4109 16.5532Z" fill="#86888C"/>
</svg>
