<svg width="20" height="20" viewBox="0 0 20 20" fill="none" xmlns="http://www.w3.org/2000/svg">
<path fill-rule="evenodd" clip-rule="evenodd" d="M9.7177 13.7541L4.92772 8.96414C4.73421 8.78885 4.71599 8.49061 4.89129 8.2971C5.06659 8.10359 5.36483 8.08537 5.55834 8.26067C5.56972 8.27206 5.58338 8.28344 5.59249 8.29482L9.57428 12.2857V2.47126C9.57655 2.21172 9.786 2 10.0478 2C10.3096 2 10.5191 2.21172 10.5191 2.47126V12.288L14.4257 8.38133C14.6192 8.20603 14.9197 8.22197 15.0928 8.41548C15.2544 8.59533 15.2544 8.86853 15.0928 9.04838L10.387 13.7541C10.3392 13.7974 10.2846 13.8315 10.2277 13.8589C10.1138 13.9089 9.98406 13.9089 9.87023 13.8589C9.81332 13.8315 9.76323 13.7974 9.7177 13.7541ZM17.5287 13.6426C17.7883 13.6426 18 13.8543 18 14.1116V17.5287C18 17.7883 17.7906 18 17.531 18H2.46898C2.20945 18 2 17.7906 2 17.531V14.1138C2 13.8543 2.21172 13.6426 2.47126 13.6426C2.73079 13.6426 2.94252 13.8543 2.94252 14.1138V17.0598H17.062V14.1138C17.0598 13.852 17.2692 13.6426 17.5287 13.6426Z" fill="#86888C"/>
</svg>
