<svg width="40" height="40" viewBox="0 0 40 40" fill="none" xmlns="http://www.w3.org/2000/svg">
<path fill-rule="evenodd" clip-rule="evenodd" d="M19.3648 28.4468L8.58737 17.6693C8.15196 17.2749 8.11098 16.6039 8.50541 16.1685C8.89983 15.7331 9.57086 15.6921 10.0063 16.0865C10.0319 16.1121 10.0626 16.1377 10.0831 16.1633L19.0421 25.1429V3.06033C19.0472 2.47638 19.5185 2 20.1076 2C20.6966 2 21.1679 2.47638 21.1679 3.06033V25.148L29.9579 16.358C30.3933 15.9636 31.0694 15.9994 31.4587 16.4348C31.8224 16.8395 31.8224 17.4542 31.4587 17.8589L20.8708 28.4468C20.7632 28.5441 20.6403 28.6209 20.5122 28.6824C20.2561 28.7951 19.9641 28.7951 19.708 28.6824C19.58 28.6209 19.4673 28.5441 19.3648 28.4468ZM36.9397 28.1958C37.5236 28.1958 38 28.6722 38 29.251V36.9397C38 37.5236 37.5287 38 36.9448 38H3.05521C2.47126 38 2 37.5287 2 36.9448V29.2561C2 28.6722 2.47638 28.1958 3.06033 28.1958C3.64428 28.1958 4.12066 28.6722 4.12066 29.2561V35.8845H35.8896V29.2561C35.8845 28.667 36.3557 28.1958 36.9397 28.1958Z" fill="#86888C"/>
</svg>
