<svg width="20" height="20" viewBox="0 0 20 20" fill="none" xmlns="http://www.w3.org/2000/svg">
<path fill-rule="evenodd" clip-rule="evenodd" d="M8.66591 2.75833C8.54752 2.8608 8.59306 3.11813 8.6181 3.22516C8.70461 3.59636 8.87763 3.9926 9.13034 4.39567C9.34206 4.73271 9.5037 4.93766 9.79511 5.24509C9.84291 5.29519 9.88845 5.33846 9.92032 5.36351C9.95447 5.33846 9.99089 5.30202 10.0319 5.26331L10.0341 5.26103L10.0569 5.23826C10.3438 4.93538 10.5031 4.73043 10.7126 4.39567C10.9676 3.9926 11.1406 3.59636 11.2294 3.22516C11.2544 3.11813 11.2977 2.8608 11.1816 2.75833C11.1292 2.71278 11.0427 2.68318 10.9493 2.67862H10.9198C10.7968 2.67862 10.667 2.71506 10.5418 2.78793C10.4622 2.8312 10.3825 2.87902 10.2937 2.9314L10.1366 3.02704L9.92487 3.03387C9.79738 3.03387 9.67445 2.99972 9.56517 2.93823C9.465 2.87902 9.38532 2.82892 9.30791 2.78565C9.1827 2.71506 9.05065 2.67862 8.92999 2.67862C8.8025 2.68318 8.71599 2.71506 8.66591 2.75833ZM8.57029 4.76459C8.27661 4.29775 8.07171 3.83319 7.96927 3.38457C7.85544 2.89724 7.94878 2.49189 8.23335 2.24367C8.39727 2.1002 8.62265 2.01366 8.86397 2.00228C8.88446 2 8.90495 2 8.92772 2C9.16221 2 9.40125 2.06604 9.62664 2.19357C9.71087 2.23911 9.79511 2.29149 9.89072 2.34842C9.89983 2.3507 9.90894 2.35525 9.92032 2.35525C9.92943 2.35525 9.94081 2.35297 9.94992 2.34842C10.041 2.29149 10.1275 2.24139 10.2117 2.19357C10.4371 2.06604 10.6762 2 10.9129 2C10.9334 2 10.9539 2 10.9767 2.00228C11.2203 2.01366 11.4434 2.1002 11.6073 2.24367C11.8896 2.49189 11.9829 2.89724 11.8691 3.38457C11.7644 3.83091 11.5618 4.29775 11.2658 4.76459C11.0336 5.13578 10.8446 5.37717 10.5282 5.70965C10.5259 5.71193 10.5236 5.71648 10.5191 5.71876C10.4872 5.75064 10.3779 5.8645 10.2846 5.93054C10.2049 5.98975 10.1161 6.03074 10.0273 6.05124C10.0023 6.05807 9.97496 6.06035 9.94536 6.06262H9.88162C9.8543 6.06035 9.82698 6.05807 9.79966 6.05124C9.70859 6.03074 9.61981 5.98975 9.54013 5.93054C9.44906 5.86223 9.33978 5.75064 9.30791 5.71876C8.99374 5.37945 8.80706 5.13806 8.57029 4.76459ZM4.81161 6.69342C4.54752 6.95531 4.4132 7.37205 4.4132 7.93681C4.4132 8.49929 4.54752 8.9183 4.80933 9.17563C5.06431 9.42613 5.46272 9.55138 5.99545 9.55138C6.52817 9.55138 6.93113 9.42613 7.18611 9.17336C7.45248 8.91375 7.58452 8.49701 7.58452 7.93453C7.58452 7.36977 7.4502 6.95303 7.18611 6.69115C6.93113 6.43837 6.53045 6.31084 5.99545 6.31084C5.465 6.31312 5.06659 6.44065 4.81161 6.69342ZM5.99545 10.2346C5.28515 10.2346 4.72965 10.0455 4.34718 9.66752C3.94878 9.27583 3.74616 8.69513 3.74616 7.93908C3.74616 7.18303 3.94878 6.60006 4.34718 6.20609C4.73193 5.82807 5.28515 5.6345 5.99545 5.6345C6.70803 5.6345 7.26352 5.82807 7.64826 6.20609C8.04667 6.60006 8.25157 7.18303 8.25157 7.93908C8.25157 8.69513 8.04895 9.27583 7.64826 9.66752C7.26352 10.0433 6.70803 10.2346 5.99545 10.2346ZM12.8116 6.69342C12.5475 6.95531 12.4132 7.37205 12.4132 7.93681C12.4132 8.49929 12.5475 8.9183 12.8093 9.17563C13.0643 9.42613 13.4627 9.55138 13.9954 9.55138C14.5282 9.55138 14.9311 9.42613 15.1861 9.17336C15.4525 8.91375 15.5845 8.49701 15.5845 7.93453C15.5845 7.36977 15.4502 6.95303 15.1861 6.69115C14.9311 6.43837 14.5305 6.31084 13.9954 6.31084C13.465 6.31312 13.0666 6.44065 12.8116 6.69342ZM12.3472 9.66524C11.9488 9.27356 11.7462 8.69285 11.7462 7.93681C11.7462 7.18076 11.9488 6.59778 12.3472 6.20381C12.7319 5.82579 13.2851 5.63222 13.9954 5.63222C14.708 5.63222 15.2635 5.82579 15.6483 6.20381C16.0467 6.59778 16.2516 7.18076 16.2516 7.93681C16.2516 8.69285 16.0489 9.27356 15.6483 9.66524C15.2635 10.0433 14.708 10.2323 13.9954 10.2323C13.2851 10.2346 12.7297 10.0433 12.3472 9.66524ZM10.6329 10.5556C10.7581 10.4327 10.8219 10.2163 10.8219 9.91574C10.8219 9.61287 10.7581 9.39653 10.6329 9.27128C10.51 9.15058 10.3005 9.0891 10.0137 9.0891C9.72908 9.0891 9.52191 9.15058 9.39898 9.27128C9.27376 9.39653 9.21002 9.61287 9.21002 9.91574C9.21002 10.2163 9.27376 10.4327 9.39898 10.5556C9.52191 10.6763 9.72908 10.7378 10.0159 10.7378C10.3005 10.7378 10.5077 10.6763 10.6329 10.5556ZM10.0137 8.4082C10.4804 8.4082 10.8423 8.53345 11.095 8.78167C11.3591 9.039 11.4912 9.42158 11.4912 9.91574C11.4912 10.4099 11.3591 10.7902 11.095 11.0475C10.8423 11.2935 10.4804 11.4187 10.0137 11.4187C9.54923 11.4187 9.18725 11.2935 8.93455 11.0475C8.67501 10.7902 8.54297 10.4099 8.54297 9.91574C8.54297 9.42158 8.67501 9.039 8.93455 8.78167C9.18498 8.53345 9.54923 8.4082 10.0137 8.4082ZM17.333 17.2713V13.9806C17.333 13.3908 17.1736 12.8944 16.8708 12.5505C16.5384 12.1725 16.0171 11.9698 15.3705 11.9698H12.6249C12.1947 11.9698 11.8304 12.0677 11.5322 12.2363C11.7985 12.3228 12.033 12.4594 12.2106 12.6621C12.4883 12.9764 12.634 13.4159 12.634 13.9283V17.2713H17.333ZM11.9647 17.2713V13.9305C11.9647 13.7074 11.9237 13.3931 11.7279 13.1699C11.5094 12.9217 11.1656 12.8693 10.9129 12.8693H9.1144C9.10529 12.8693 9.09391 12.8716 9.08253 12.8716C8.83438 12.8762 8.50882 12.9308 8.29937 13.1699C8.10359 13.3931 8.06261 13.7074 8.06261 13.9305V17.2895H11.9602V17.2713H11.9647ZM7.40011 13.9305C7.40011 13.4182 7.54582 12.9787 7.82129 12.6644C7.99431 12.4685 8.21742 12.3296 8.47695 12.2431C8.17644 12.07 7.80535 11.9721 7.37052 11.9721H4.62493C3.9761 11.9721 3.45931 12.1725 3.12692 12.5505C2.82641 12.8944 2.66932 13.3908 2.66932 13.9829V17.2736H7.40239V13.9305H7.40011ZM17.3489 12.045C17.7746 12.5278 18 13.1973 18 13.9806V17.7199C18 17.8748 17.8839 18 17.7427 18H2.25498C2.11383 18 2 17.8748 2 17.7199V13.9806C2 13.1973 2.22311 12.5255 2.64428 12.045C3.10415 11.5189 3.78941 11.2388 4.62265 11.2388H7.36824C8.20376 11.2388 8.88902 11.5167 9.34889 12.0427C9.37393 12.0723 9.39215 12.1065 9.41491 12.1361H10.5783C10.601 12.1065 10.6192 12.0723 10.642 12.045C11.1019 11.5189 11.7871 11.2388 12.6204 11.2388H15.366C16.2038 11.2411 16.889 11.5189 17.3489 12.045Z" fill="#86888C"/>
</svg>
