<svg width="24" height="24" viewBox="0 0 24 24" fill="none" xmlns="http://www.w3.org/2000/svg">
<path fill-rule="evenodd" clip-rule="evenodd" d="M10.3324 2.94791C10.1844 3.076 10.2413 3.39767 10.2726 3.53145C10.3808 3.99545 10.597 4.49075 10.9129 4.99459C11.1776 5.41588 11.3796 5.67208 11.7439 6.05636C11.8036 6.11899 11.8606 6.17307 11.9004 6.20438C11.9431 6.17307 11.9886 6.12753 12.0398 6.07913L12.0427 6.07629L12.0711 6.04782C12.4297 5.66923 12.6289 5.41304 12.8907 4.99459C13.2094 4.49075 13.4257 3.99545 13.5367 3.53145C13.568 3.39767 13.6221 3.076 13.4769 2.94791C13.4115 2.89098 13.3034 2.85397 13.1867 2.84828H13.1497C12.996 2.84828 12.8338 2.89382 12.6773 2.98491C12.5777 3.039 12.4781 3.09878 12.3671 3.16425L12.1707 3.2838L11.9061 3.29234C11.7467 3.29234 11.5931 3.24964 11.4565 3.17279C11.3312 3.09878 11.2316 3.03615 11.1349 2.98207C10.9784 2.89382 10.8133 2.84828 10.6625 2.84828C10.5031 2.85397 10.395 2.89382 10.3324 2.94791ZM10.2129 5.45574C9.84576 4.87219 9.58964 4.29149 9.46158 3.73071C9.31929 3.12155 9.43597 2.61486 9.79169 2.30458C9.99658 2.12525 10.2783 2.01708 10.58 2.00285C10.6056 2 10.6312 2 10.6596 2C10.9528 2 11.2516 2.08255 11.5333 2.24196C11.6386 2.29889 11.7439 2.36436 11.8634 2.43553C11.8748 2.43837 11.8862 2.44406 11.9004 2.44406C11.9118 2.44406 11.926 2.44122 11.9374 2.43553C12.0512 2.36436 12.1594 2.30174 12.2647 2.24196C12.5464 2.08255 12.8452 2 13.1411 2C13.1668 2 13.1924 2 13.2208 2.00285C13.5253 2.01708 13.8042 2.12525 14.0091 2.30458C14.362 2.61486 14.4787 3.12155 14.3364 3.73071C14.2055 4.28864 13.9522 4.87219 13.5822 5.45574C13.292 5.91973 13.0558 6.22146 12.6602 6.63706C12.6574 6.63991 12.6545 6.6456 12.6488 6.64845C12.609 6.6883 12.4724 6.83063 12.3557 6.91318C12.2561 6.98719 12.1451 7.03843 12.0341 7.06405C12.0028 7.07259 11.9687 7.07543 11.9317 7.07828H11.852C11.8179 7.07543 11.7837 7.07259 11.7496 7.06405C11.6357 7.03843 11.5248 6.98719 11.4252 6.91318C11.3113 6.82778 11.1747 6.6883 11.1349 6.64845C10.7422 6.22431 10.5088 5.92257 10.2129 5.45574ZM5.51451 7.86678C5.18441 8.19414 5.01651 8.71506 5.01651 9.42101C5.01651 10.1241 5.18441 10.6479 5.51167 10.9695C5.83039 11.2827 6.3284 11.4392 6.99431 11.4392C7.66022 11.4392 8.16392 11.2827 8.48264 10.9667C8.8156 10.6422 8.98065 10.1213 8.98065 9.41816C8.98065 8.71221 8.81275 8.19129 8.48264 7.86393C8.16392 7.54796 7.66306 7.38856 6.99431 7.38856C6.33125 7.3914 5.83324 7.55081 5.51451 7.86678ZM6.99431 12.2932C6.10643 12.2932 5.41207 12.0569 4.93398 11.5844C4.43597 11.0948 4.1827 10.3689 4.1827 9.42385C4.1827 8.47879 4.43597 7.75007 4.93398 7.25761C5.41491 6.78508 6.10643 6.54313 6.99431 6.54313C7.88503 6.54313 8.5794 6.78508 9.06033 7.25761C9.55834 7.75007 9.81446 8.47879 9.81446 9.42385C9.81446 10.3689 9.56118 11.0948 9.06033 11.5844C8.5794 12.0541 7.88503 12.2932 6.99431 12.2932ZM15.5145 7.86678C15.1844 8.19414 15.0165 8.71506 15.0165 9.42101C15.0165 10.1241 15.1844 10.6479 15.5117 10.9695C15.8304 11.2827 16.3284 11.4392 16.9943 11.4392C17.6602 11.4392 18.1639 11.2827 18.4826 10.9667C18.8156 10.6422 18.9806 10.1213 18.9806 9.41816C18.9806 8.71221 18.8127 8.19129 18.4826 7.86393C18.1639 7.54796 17.6631 7.38856 16.9943 7.38856C16.3312 7.3914 15.8332 7.55081 15.5145 7.86678ZM14.934 11.5816C14.436 11.0919 14.1827 10.3661 14.1827 9.42101C14.1827 8.47595 14.436 7.74722 14.934 7.25477C15.4149 6.78224 16.1064 6.54028 16.9943 6.54028C17.885 6.54028 18.5794 6.78224 19.0603 7.25477C19.5583 7.74722 19.8145 8.47595 19.8145 9.42101C19.8145 10.3661 19.5612 11.0919 19.0603 11.5816C18.5794 12.0541 17.885 12.2903 16.9943 12.2903C16.1064 12.2932 15.4121 12.0541 14.934 11.5816ZM12.7911 12.6946C12.9476 12.5408 13.0273 12.2704 13.0273 11.8947C13.0273 11.5161 12.9476 11.2457 12.7911 11.0891C12.6375 10.9382 12.3756 10.8614 12.0171 10.8614C11.6614 10.8614 11.4024 10.9382 11.2487 11.0891C11.0922 11.2457 11.0125 11.5161 11.0125 11.8947C11.0125 12.2704 11.0922 12.5408 11.2487 12.6946C11.4024 12.8454 11.6614 12.9223 12.0199 12.9223C12.3756 12.9223 12.6346 12.8454 12.7911 12.6946ZM12.0171 10.0102C12.6005 10.0102 13.0529 10.1668 13.3688 10.4771C13.6989 10.7987 13.864 11.277 13.864 11.8947C13.864 12.5124 13.6989 12.9878 13.3688 13.3094C13.0529 13.6169 12.6005 13.7734 12.0171 13.7734C11.4365 13.7734 10.9841 13.6169 10.6682 13.3094C10.3438 12.9878 10.1787 12.5124 10.1787 11.8947C10.1787 11.277 10.3438 10.7987 10.6682 10.4771C10.9812 10.1668 11.4365 10.0102 12.0171 10.0102ZM21.1662 21.0891V16.9758C21.1662 16.2385 20.967 15.618 20.5885 15.1882C20.173 14.7156 19.5213 14.4623 18.7131 14.4623H15.2812C14.7433 14.4623 14.288 14.5847 13.9152 14.7953C14.2482 14.9035 14.5413 15.0743 14.7632 15.3276C15.1104 15.7205 15.2925 16.2699 15.2925 16.9103V21.0891H21.1662ZM14.4559 21.0891V16.9132C14.4559 16.6342 14.4047 16.2414 14.1599 15.9624C13.8867 15.6521 13.457 15.5867 13.1411 15.5867H10.893C10.8816 15.5867 10.8674 15.5895 10.8532 15.5895C10.543 15.5952 10.136 15.6635 9.87422 15.9624C9.62948 16.2414 9.57826 16.6342 9.57826 16.9132V21.1119H14.4502V21.0891H14.4559ZM8.75014 16.9132C8.75014 16.2727 8.93227 15.7233 9.27661 15.3305C9.49289 15.0857 9.77177 14.912 10.0962 14.8039C9.72055 14.5875 9.25669 14.4651 8.71315 14.4651H5.28116C4.47012 14.4651 3.82413 14.7156 3.40865 15.1882C3.03301 15.618 2.83665 16.2385 2.83665 16.9787V21.0919H8.75299V16.9132H8.75014ZM21.1861 14.5562C21.7183 15.1597 22 15.9966 22 16.9758V21.6499C22 21.8434 21.8549 22 21.6784 22H2.31873C2.14229 22 2 21.8434 2 21.6499V16.9758C2 15.9966 2.27888 15.1568 2.80535 14.5562C3.38019 13.8987 4.23677 13.5485 5.27832 13.5485H8.7103C9.7547 13.5485 10.6113 13.8958 11.1861 14.5534C11.2174 14.5904 11.2402 14.6331 11.2686 14.6701H12.7228C12.7513 14.6331 12.774 14.5904 12.8025 14.5562C13.3773 13.8987 14.2339 13.5485 15.2755 13.5485H18.7075C19.7547 13.5514 20.6113 13.8987 21.1861 14.5562Z" fill="#86888C"/>
</svg>
