<svg width="28" height="28" viewBox="0 0 28 28" fill="none" xmlns="http://www.w3.org/2000/svg">
<path fill-rule="evenodd" clip-rule="evenodd" d="M25.773 9.47031C25.6329 9.61034 25.4144 9.68889 25.1138 9.68889H16.5074V9.67523C16.2068 9.67523 15.9848 9.60692 15.8516 9.47031C15.7082 9.32687 15.6365 9.09463 15.6365 8.77018C15.6365 8.44573 15.7082 8.21349 15.8516 8.07005C15.9882 7.93003 16.2068 7.86172 16.5074 7.86172H25.107C25.4075 7.86172 25.6261 7.93003 25.7661 8.07005C25.9096 8.21349 25.9813 8.44573 25.9813 8.77018C25.9847 9.09463 25.9164 9.32687 25.773 9.47031ZM24.7279 16.0174C24.4752 21.4203 24.4649 21.6901 24.4649 21.7174C24.441 24.4326 23.8297 25.0302 22.7812 25.1395C22.7641 25.1395 22.747 25.1464 22.73 25.1498H22.6787C22.5182 25.1634 22.3714 25.16 22.1425 25.1498H19.3454C19.2669 25.1566 19.1849 25.16 19.0961 25.16C18.922 25.16 18.7648 25.1498 18.6112 25.1259C18.9049 24.6819 19.0688 24.1252 19.2396 23.507L19.3147 23.2406C19.7484 23.1177 20.1241 22.923 20.4213 22.6259C20.9404 22.1102 21.2033 21.3657 21.2033 20.4196C21.2033 19.4736 20.9404 18.7325 20.4213 18.2134C20.3837 18.1758 20.3359 18.1485 20.2949 18.1143C20.4554 18.1553 20.6159 18.1826 20.7799 18.1861H20.8208C21.4527 18.1861 22.0537 17.8889 22.6173 17.3049C23.191 16.7038 23.4779 16.0652 23.4643 15.3924C23.4506 14.7503 23.1671 14.1321 22.6138 13.5584C22.0606 12.9846 21.4663 12.6909 20.8482 12.6807C20.1856 12.7011 19.5845 12.971 19.0107 13.5652C18.7478 13.8384 18.5531 14.1219 18.4131 14.4122C17.9691 13.8623 17.4192 13.4593 16.7396 13.2305C16.702 12.1718 16.6679 11.2804 16.6474 10.7374H24.9738C24.926 11.7176 24.8269 13.8726 24.7279 16.0174ZM17.6959 24.658C17.4978 24.8971 17.2075 25.0268 16.7533 25.0951C16.6986 25.1054 16.6542 25.1156 16.5927 25.1225L15.4247 25.1395C15.131 25.16 14.8441 25.1634 14.4753 25.1395H9.69391C9.54023 25.1532 8.46442 25.16 8.29707 25.16C6.7363 25.16 6.41185 24.7331 5.98152 23.3465H18.2252C18.0511 23.9715 17.9281 24.3848 17.6959 24.658ZM19.1679 15.4539C19.161 15.0816 19.3489 14.6957 19.7211 14.3063C20.09 13.9238 20.4554 13.7291 20.814 13.7291H20.8277C21.176 13.736 21.538 13.9272 21.8966 14.2995C22.2587 14.6752 22.4465 15.0474 22.4499 15.4129C22.4567 15.7885 22.2723 16.1745 21.9001 16.5638C21.5346 16.9429 21.1658 17.1342 20.814 17.1342H20.7935C20.4486 17.1273 20.0866 16.9361 19.7245 16.5604C19.3625 16.1847 19.1781 15.8159 19.1679 15.4539ZM5.46923 22.298C5.04574 22.2468 4.71105 22.1068 4.47198 21.8677C4.16119 21.5569 4.00409 21.0685 4.00409 20.4162C4.00409 19.7639 4.1646 19.2755 4.47539 18.9647C4.52321 18.9169 4.58127 18.8794 4.63591 18.8384C4.77594 19.2755 5.02525 19.699 5.41118 20.102C6.00885 20.7202 6.6475 21.0344 7.31348 21.0344H7.35446C8.00336 21.0207 8.63177 20.7099 9.21578 20.102C9.69733 19.6034 9.97738 19.0706 10.073 18.5208H18.4985C19.0244 18.5447 19.4377 18.6915 19.7143 18.9682C20.0285 19.2789 20.189 19.7673 20.189 20.4196C20.189 21.0685 20.0285 21.5569 19.7143 21.8711C19.4786 22.1102 19.1405 22.2468 18.7136 22.3015H5.46923V22.298ZM5.6844 18.5208H9.03818C8.94939 18.7974 8.77521 19.0809 8.50199 19.3609C8.10923 19.7673 7.71648 19.9791 7.33397 19.9859C6.96853 20.0064 6.53138 19.7844 6.12496 19.3609C5.85516 19.0809 5.68098 18.8008 5.5956 18.5276C5.5956 18.5242 5.5956 18.5242 5.59218 18.5208H5.6844ZM15.756 14.0775C16.1453 14.1117 16.4766 14.2414 16.7806 14.3917C17.7437 14.8698 18.3072 15.8398 18.5975 17.4723H5.60243C5.99177 15.2523 6.87632 14.1697 8.58395 14.0638C8.86742 14.0433 9.72124 14.0468 9.72124 14.0468H14.506C14.506 14.0433 15.4452 14.0536 15.756 14.0775ZM20.1958 6.81665V3.86587C20.1958 3.52434 20.4656 3.2477 20.8243 3.2477C21.1555 3.2477 21.4219 3.52434 21.4219 3.86587V6.8269H20.1958V6.81665ZM25.1104 6.81665C24.441 6.80982 22.4328 6.81665 22.4328 6.81665V3.86587C22.4328 2.94716 21.7122 2.19922 20.7969 2.19922C19.909 2.19922 19.1883 2.94716 19.1883 3.86587V6.81665H16.5108C15.9404 6.81665 15.4828 6.98742 15.1515 7.3187C14.8066 7.66705 14.629 8.15544 14.629 8.7736C14.629 9.39176 14.8066 9.88014 15.1515 10.2285C15.2881 10.3651 15.452 10.4642 15.6296 10.5461C15.6433 10.8876 15.6672 11.5639 15.7184 12.9983H9.76222C9.76222 12.9983 9.03135 13.0051 8.78887 13.0154C8.67275 13.0188 8.45076 13.029 8.33805 13.0393C6.13863 13.2613 4.97402 14.7981 4.55394 17.7045C4.26023 17.8309 3.99726 17.9948 3.77868 18.2134C3.25956 18.7325 3 19.477 3 20.4196C3 21.3657 3.26298 22.1068 3.78209 22.6259C4.08264 22.9264 4.46173 23.1211 4.9023 23.2441C5.42484 25.0337 5.85174 26.1983 8.3039 26.1983H19.0927L19.383 26.1949H22.1118L22.4294 26.1983C22.4772 26.1948 22.7197 26.1949 22.7197 26.1949H22.8461C22.8461 26.1949 22.9622 26.2017 22.9998 26.1983C25.165 26.0719 25.4656 23.8622 25.4827 21.7379C25.4861 21.6286 25.6159 18.8623 25.7456 16.0686C25.913 12.4348 25.9779 11.0687 26.0018 10.5461C26.1828 10.4642 26.3467 10.3651 26.4799 10.2285C26.8283 9.88014 27.0059 9.39176 27.0059 8.7736C27.0059 8.15544 26.8283 7.66364 26.4799 7.31528C26.2511 7.08987 25.9608 6.94302 25.6159 6.8713C25.6056 6.8713 25.2368 6.81665 25.1104 6.81665Z" fill="#86888C"/>
</svg>
