<svg width="40" height="40" viewBox="0 0 40 40" fill="none" xmlns="http://www.w3.org/2000/svg">
<path fill-rule="evenodd" clip-rule="evenodd" d="M37.1595 13.1059C36.9494 13.3159 36.6215 13.4337 36.1707 13.4337H23.261V13.4132C22.8102 13.4132 22.4772 13.3108 22.2774 13.1059C22.0623 12.8907 21.9547 12.5423 21.9547 12.0557C21.9547 11.569 22.0623 11.2206 22.2774 11.0055C22.4824 10.7954 22.8102 10.693 23.261 10.693H36.1605C36.6113 10.693 36.9392 10.7954 37.1492 11.0055C37.3644 11.2206 37.4719 11.569 37.4719 12.0557C37.4771 12.5423 37.3746 12.8907 37.1595 13.1059ZM35.5918 22.9264C35.2127 31.0309 35.1974 31.4356 35.1974 31.4765C35.1615 35.5492 34.2445 36.4458 32.6718 36.6097C32.6462 36.6097 32.6206 36.6199 32.595 36.6251H32.5181C32.2773 36.6455 32.057 36.6404 31.7138 36.6251H27.5182C27.4003 36.6353 27.2774 36.6404 27.1442 36.6404C26.8829 36.6404 26.6473 36.6251 26.4167 36.5892C26.8573 35.9232 27.1032 35.0882 27.3594 34.1609L27.4721 33.7614C28.1227 33.5769 28.6862 33.2849 29.1319 32.8392C29.9106 32.0657 30.305 30.9489 30.305 29.5299C30.305 28.1108 29.9106 26.9991 29.1319 26.2205C29.0755 26.1641 29.0038 26.1231 28.9423 26.0719C29.1831 26.1334 29.4239 26.1744 29.6698 26.1795H29.7313C30.679 26.1795 31.5806 25.7338 32.4259 24.8578C33.2865 23.9561 33.7169 22.9982 33.6964 21.989C33.6759 21.0258 33.2507 20.0986 32.4208 19.238C31.5909 18.3773 30.6995 17.9367 29.7722 17.9214C28.7784 17.9521 27.8768 18.3568 27.0161 19.2482C26.6217 19.658 26.3297 20.0832 26.1196 20.5187C25.4536 19.6939 24.6289 19.0894 23.6094 18.7462C23.553 17.1581 23.5018 15.821 23.4711 15.0064H35.9607C35.889 16.4767 35.7404 19.7093 35.5918 22.9264ZM25.0438 35.8874C24.7467 36.246 24.3112 36.4406 23.6299 36.5431C23.5479 36.5585 23.4813 36.5738 23.3891 36.5841L21.6371 36.6097C21.1965 36.6404 20.7662 36.6455 20.2129 36.6097H13.0409C12.8103 36.6302 11.1966 36.6404 10.9456 36.6404C8.60444 36.6404 8.11777 36.0001 7.47229 33.9202H25.8379C25.5766 34.8577 25.3922 35.4775 25.0438 35.8874ZM27.2518 22.0812C27.2415 21.5228 27.5233 20.9439 28.0817 20.3599C28.635 19.7861 29.1831 19.4941 29.721 19.4941H29.7415C30.264 19.5044 30.8071 19.7912 31.345 20.3496C31.888 20.9131 32.1698 21.4715 32.1749 22.0197C32.1851 22.5832 31.9085 23.1621 31.3501 23.7461C30.8019 24.3147 30.2487 24.6016 29.721 24.6016H29.6903C29.1729 24.5914 28.6298 24.3045 28.0868 23.741C27.5438 23.1775 27.2671 22.6242 27.2518 22.0812ZM6.70385 32.3474C6.06861 32.2706 5.56657 32.0606 5.20797 31.702C4.74178 31.2358 4.50613 30.5032 4.50613 29.5247C4.50613 28.5463 4.74691 27.8137 5.21309 27.3475C5.28481 27.2758 5.3719 27.2194 5.45387 27.1579C5.6639 27.8137 6.03788 28.4489 6.61676 29.0534C7.51327 29.9807 8.47125 30.452 9.47021 30.452H9.53169C10.505 30.4315 11.4476 29.9653 12.3237 29.0534C13.046 28.3055 13.4661 27.5063 13.6095 26.6815H26.2477C27.0366 26.7174 27.6565 26.9377 28.0714 27.3526C28.5427 27.8188 28.7835 28.5514 28.7835 29.5299C28.7835 30.5032 28.5427 31.2358 28.0714 31.7071C27.718 32.0657 27.2108 32.2706 26.5704 32.3526H6.70385V32.3474ZM7.02659 26.6815H12.0573C11.9241 27.0965 11.6628 27.5217 11.253 27.9418C10.6638 28.5514 10.0747 28.869 9.50095 28.8792C8.9528 28.91 8.29707 28.577 7.68745 27.9418C7.28274 27.5217 7.02147 27.1016 6.8934 26.6918C6.8934 26.6866 6.8934 26.6866 6.88828 26.6815H7.02659ZM22.134 20.0166C22.718 20.0679 23.2149 20.2625 23.6709 20.4879C25.1155 21.2052 25.9608 22.6601 26.3963 25.1088H6.90364C7.48765 21.7789 8.81448 20.155 11.3759 19.9961C11.8011 19.9654 13.0819 19.9705 13.0819 19.9705H20.259C20.259 19.9654 21.6678 19.9808 22.134 20.0166ZM28.7938 9.12537V4.69919C28.7938 4.1869 29.1985 3.77195 29.7364 3.77195C30.2333 3.77195 30.6329 4.1869 30.6329 4.69919V9.14074H28.7938V9.12537ZM36.1656 9.12537C35.1615 9.11512 32.1493 9.12537 32.1493 9.12537V4.69919C32.1493 3.32113 31.0683 2.19922 29.6954 2.19922C28.3634 2.19922 27.2825 3.32113 27.2825 4.69919V9.12537H23.2662C22.4106 9.12537 21.7242 9.38151 21.2273 9.87843C20.7098 10.401 20.4435 11.1335 20.4435 12.0608C20.4435 12.988 20.7098 13.7206 21.2273 14.2431C21.4322 14.4481 21.6781 14.5966 21.9445 14.7196C21.9649 15.2319 22.0008 16.2462 22.0777 18.3978H13.1433C13.1433 18.3978 12.047 18.4081 11.6833 18.4234C11.5091 18.4285 11.1761 18.4439 11.0071 18.4593C7.70794 18.7923 5.96103 21.0976 5.33092 25.4572C4.89035 25.6467 4.49588 25.8926 4.16802 26.2205C3.38934 26.9991 3 28.1159 3 29.5299C3 30.9489 3.39446 32.0606 4.17314 32.8392C4.62396 33.2901 5.1926 33.5821 5.85345 33.7665C6.63725 36.4509 7.27762 38.1978 10.9559 38.1978H27.1391L27.5745 38.1927H31.6677L32.1441 38.1978C32.2159 38.1927 32.5796 38.1927 32.5796 38.1927H32.7691C32.7691 38.1927 32.9433 38.2029 32.9997 38.1978C36.2476 38.0082 36.6984 34.6937 36.724 31.5073C36.7291 31.3434 36.9238 27.1938 37.1185 23.0033C37.3695 17.5525 37.4668 15.5034 37.5027 14.7196C37.7742 14.5966 38.0201 14.4481 38.2199 14.2431C38.7424 13.7206 39.0088 12.988 39.0088 12.0608C39.0088 11.1335 38.7424 10.3958 38.2199 9.87331C37.8767 9.5352 37.4412 9.31492 36.9238 9.20733C36.9084 9.20733 36.3552 9.12537 36.1656 9.12537Z" fill="#86888C"/>
</svg>
