<svg width="24" height="24" viewBox="0 0 24 24" fill="none" xmlns="http://www.w3.org/2000/svg">
<path d="M16.9042 22C16.5925 22 16.2809 21.9203 15.9891 21.758L12.1076 19.6199C12.0113 19.5658 11.8952 19.5658 11.796 19.6199L7.91458 21.758C7.26578 22.1167 6.515 22.0712 5.9087 21.6413C5.27124 21.1886 4.95676 20.4171 5.08709 19.6285L5.82937 15.1018C5.84921 14.9794 5.80954 14.8541 5.72455 14.7658L2.58541 11.5601C2.04428 11.0078 1.86012 10.1993 2.10944 9.45338C2.35026 8.72456 2.93389 8.22064 3.66768 8.10961L8.00807 7.44911C8.1214 7.43203 8.21772 7.35801 8.26589 7.25267L10.2066 3.1331C10.5352 2.43274 11.2039 2 11.9518 2C12.6998 2 13.3684 2.43559 13.6999 3.1331L15.6406 7.25267C15.6916 7.36085 15.7879 7.43488 15.9012 7.45196L20.2388 8.11246C20.9726 8.22349 21.5562 8.7274 21.797 9.45623C22.0435 10.2021 21.8622 11.0107 21.3211 11.563L18.1791 14.7658C18.0941 14.8541 18.0544 14.9794 18.0771 15.1018L18.8194 19.6285C18.9497 20.4171 18.6352 21.1915 17.9978 21.6413C17.6606 21.8804 17.2838 22 16.9042 22ZM11.9518 19.0107C12.0991 19.0107 12.2465 19.0477 12.3796 19.1217L16.2611 21.2598C16.7172 21.5103 17.2442 21.479 17.6691 21.1772C18.1253 20.8527 18.3519 20.2947 18.2584 19.7196L17.5161 15.1929C17.4651 14.894 17.5615 14.5836 17.774 14.3673L20.9159 11.1616C21.3069 10.763 21.4401 10.1765 21.2587 9.63274C21.0859 9.11174 20.6723 8.75303 20.1538 8.67331L15.8134 8.01281C15.5103 7.96441 15.2553 7.77082 15.1278 7.49181L13.1871 3.37509C12.9491 2.86833 12.4873 2.56655 11.9518 2.56655C11.4164 2.56655 10.9546 2.86833 10.7166 3.37509L8.77586 7.49466C8.64836 7.77082 8.39338 7.96441 8.09306 8.01281L3.75267 8.67331C3.2342 8.75303 2.82056 9.11174 2.64774 9.63274C2.46925 10.1765 2.59958 10.7601 2.99055 11.1616L6.12969 14.3644C6.34218 14.5836 6.4385 14.894 6.38751 15.1929L5.64522 19.7196C5.55172 20.2918 5.77838 20.8498 6.23451 21.1772C6.65949 21.479 7.18646 21.5103 7.63976 21.2598L11.5212 19.1217C11.6572 19.0477 11.8045 19.0107 11.9518 19.0107Z" fill="#86888C"/>
</svg>
