<svg width="20" height="20" viewBox="0 0 20 20" fill="none" xmlns="http://www.w3.org/2000/svg">
<path fill-rule="evenodd" clip-rule="evenodd" d="M17.3261 17.1226V7.46525H15.2408C14.4439 7.46525 13.7564 7.20799 13.2555 6.7208C12.7501 6.23133 12.4815 5.56201 12.4815 4.78341V2.77544H6.88788C6.73762 2.77544 6.55777 2.94163 6.55777 3.08278V7.56997H12.008C13.0233 7.56997 13.8497 8.39638 13.8497 9.41403V12.8107C13.8497 13.8284 13.0233 14.6548 12.008 14.6548H6.58964L6.56005 17.1272C6.56005 17.2752 6.72624 17.43 6.89015 17.43H16.9983C17.1668 17.43 17.3261 17.2797 17.3261 17.1226ZM3.8395 13.9809H12.0102C12.6545 13.9809 13.1804 13.455 13.1804 12.8084V9.41175C13.1804 8.76519 12.6568 8.2393 12.0102 8.2393H3.8395C3.19522 8.2393 2.66932 8.76519 2.66932 9.41175V12.8084C2.66932 13.455 3.19294 13.9809 3.8395 13.9809ZM13.1531 2.92114V4.78113C13.1531 5.37305 13.3489 5.87618 13.7223 6.23588C14.0979 6.59786 14.6215 6.79138 15.2408 6.79138H17.1508L13.1531 2.92114ZM17.9704 6.77999C17.9863 6.82097 17.9977 6.86423 17.9977 6.91203V17.1226C17.9977 17.6531 17.5401 18.1016 16.9983 18.1016H6.89015C6.35743 18.1016 5.89072 17.644 5.89072 17.1226L5.92032 14.6548H3.84178C2.82641 14.6548 2 13.8284 2 12.8107V9.41403C2 8.39638 2.82641 7.56997 3.84178 7.56997H5.89072V3.0805C5.89072 2.56827 6.36653 2.10156 6.89015 2.10156H13.0438C13.1895 2.10156 13.3284 2.15848 13.4354 2.25865L17.8315 6.51363C17.9044 6.58876 17.9476 6.6821 17.9704 6.77999Z" fill="#86888C"/>
<path d="M3.8623 9.66434H4.88905C5.35576 9.66434 5.654 9.73036 5.84523 9.90793C6.00687 10.0559 6.08655 10.2881 6.08655 10.6069C6.08655 10.9256 6.01142 11.1669 5.86344 11.3331C5.68814 11.5289 5.41723 11.6222 5.02565 11.6222H4.54529V12.6535H3.8623V9.66434ZM4.87995 11.11C5.0985 11.11 5.18957 11.0804 5.27836 10.9962C5.35804 10.9165 5.39674 10.7913 5.39674 10.616C5.39674 10.4543 5.36259 10.3359 5.28291 10.2631C5.20095 10.188 5.07346 10.1584 4.86401 10.1584H4.54529V11.11H4.87995ZM6.56691 9.66434H7.07005L8.4861 11.5767V9.66434H9.08484V12.6512H8.53846L7.16566 10.8391V12.6512H6.56691V9.66434ZM9.60391 11.176C9.60391 10.2403 10.0979 9.60742 11.1156 9.60742C11.4115 9.60742 11.7667 9.66889 11.9579 9.75085L11.8714 10.2494C11.6574 10.188 11.4002 10.1401 11.1634 10.1401C10.5601 10.1401 10.3119 10.4976 10.3119 11.1487C10.3119 11.4856 10.3552 11.7611 10.4872 11.9432C10.5965 12.0958 10.7764 12.1845 11.0632 12.1845C11.1725 12.1845 11.3205 12.1709 11.4252 12.1549V11.5266H11.0063V11.0371H12.1036V12.5625C11.819 12.649 11.366 12.715 11.0382 12.715C9.96589 12.7127 9.60391 12.1231 9.60391 11.176Z" fill="#86888C"/>
</svg>
