<svg width="24" height="24" viewBox="0 0 24 24" fill="none" xmlns="http://www.w3.org/2000/svg">
<path fill-rule="evenodd" clip-rule="evenodd" d="M17.7621 21.1605C17.9727 21.1605 18.169 20.9727 18.169 20.7763V8.70746H15.5851C14.5976 8.70746 13.7467 8.38589 13.1235 7.77689C12.4974 7.16505 12.1673 6.3284 12.1673 5.35515V2.84234H5.24075C5.05578 2.84234 4.83381 3.05009 4.83381 3.22652V20.7763C4.83381 20.967 5.0387 21.1605 5.24075 21.1605H17.7621ZM17.9528 7.86511L12.9983 3.02447V5.35231C12.9983 6.0922 13.2402 6.72112 13.7012 7.17075C14.1651 7.62322 14.8167 7.86511 15.5822 7.86511H17.9528ZM18.9687 7.84804C18.9915 7.89926 19.0028 7.95333 19.0028 8.01309V20.7763C19.0028 21.4394 18.4365 22 17.7621 22H5.24075C4.58053 22 4 21.428 4 20.7763V3.22368C4 2.58338 4.59192 2 5.24075 2H12.8617C13.0438 2 13.2146 2.07114 13.3455 2.19636L18.7923 7.51793C18.8862 7.60615 18.9374 7.72282 18.9687 7.84804ZM13.6443 18.9351C14.0711 18.9266 14.5748 18.7473 14.5748 17.9419C14.5748 17.1338 14.0655 16.9545 13.6386 16.9431H13.5191C13.1036 16.9459 12.6027 17.1224 12.6027 17.9363C12.6027 18.7501 13.1064 18.9294 13.5305 18.9351H13.6443ZM10.4172 11.391L14.5748 12.5322V11.7666L10.4172 10.6283V11.391ZM8.65566 16.852C9.07968 16.8463 9.58623 16.667 9.58623 15.8617C9.58623 15.0535 9.07684 14.8742 8.64997 14.8628L8.5276 14.86C8.11212 14.8628 7.61411 15.0421 7.61411 15.8532C7.61411 16.6699 8.11781 16.8492 8.54183 16.8549L8.65566 16.852ZM14.848 10.967C15.1611 11.0011 15.4058 11.2715 15.4058 11.5959V17.9419C15.4058 19.2709 14.4639 19.7604 13.6585 19.7746H13.5162C12.7109 19.7632 11.7689 19.2738 11.7689 17.9334C11.7689 16.5902 12.7052 16.1093 13.5077 16.1007H13.6528C13.9602 16.1093 14.2846 16.1833 14.572 16.3483V13.3973L10.4143 12.259L10.4001 16.0068C10.329 17.2163 9.44109 17.6773 8.66705 17.6887H8.53045C7.71941 17.6773 6.77746 17.1878 6.77746 15.8475C6.77746 14.5043 7.71372 14.0233 8.51622 14.0148L8.66705 14.0176C8.97154 14.0262 9.29311 14.103 9.57769 14.2652V10.3438C9.57769 9.99374 9.85942 9.70916 10.2066 9.70916L10.3147 9.72339L14.848 10.967Z" fill="#86888C"/>
</svg>
