<svg width="24" height="24" viewBox="0 0 24 24" fill="none" xmlns="http://www.w3.org/2000/svg">
<path fill-rule="evenodd" clip-rule="evenodd" d="M20.7532 21.5626C20.9639 21.5626 21.1631 21.3747 21.1631 21.1783V9.10317H18.5557C17.5594 9.10317 16.6997 8.78151 16.0734 8.17234C15.4415 7.56033 15.1056 6.72059 15.1056 5.74991V3.23924H8.11159C7.92371 3.23924 7.69883 3.44703 7.69883 3.62352V9.23127H14.5135C15.7831 9.23127 16.8164 10.2646 16.8164 11.537V15.7841C16.8164 17.0565 15.7831 18.0898 14.5135 18.0898H7.73868L7.70168 21.1812C7.70168 21.3662 7.90948 21.5598 8.11443 21.5598H20.7532V21.5626ZM2.83689 15.7841C2.83689 16.5925 3.4916 17.2501 4.30003 17.2501H14.5164C15.3219 17.2501 15.9795 16.5925 15.9795 15.7841V11.537C15.9795 10.7286 15.3248 10.071 14.5164 10.071H4.30003C3.49445 10.071 2.83689 10.7286 2.83689 11.537V15.7841ZM20.9439 8.26058L15.9453 3.42142V5.74706C15.9453 6.48717 16.1902 7.11626 16.657 7.56602C17.1267 8.01863 17.7814 8.26058 18.5557 8.26058H20.9439ZM21.9687 8.24635C21.9915 8.29759 22.0028 8.35168 22.0028 8.41145V21.1783C22.0028 21.8416 21.4307 22.4023 20.7532 22.4023H8.11443C7.44833 22.4023 6.86479 21.8302 6.86479 21.1783L6.90179 18.0926H4.30288C3.0333 18.0926 2 17.0593 2 15.7869V11.5398C2 10.2674 3.0333 9.23411 4.30288 9.23411H6.86479V3.62637C6.86479 2.98589 7.45972 2.40234 8.11443 2.40234H15.8087C15.9909 2.40234 16.1645 2.47351 16.2983 2.59876L21.795 7.919C21.889 8.00724 21.9402 8.12395 21.9687 8.24635Z" fill="#86888C"/>
<path d="M4.30371 11.83H4.97835L6.16537 13.9279L7.38939 11.83H8.04695V15.5846H7.26414V13.4212L6.48418 14.7278H5.82663L5.02389 13.3984V15.5846H4.30371V11.83ZM8.86392 11.83H10.1534C10.7398 11.83 11.1127 11.9125 11.3547 12.1374C11.5568 12.3253 11.6564 12.6156 11.6564 13.017C11.6564 13.4183 11.5625 13.7201 11.3774 13.9279C11.1583 14.1755 10.8167 14.2894 10.3242 14.2894H9.72073V15.5846H8.86392V11.83ZM10.1449 13.6461C10.4181 13.6461 10.5349 13.6062 10.643 13.5037C10.7427 13.4041 10.791 13.2447 10.791 13.0255C10.791 12.8234 10.7483 12.6754 10.6487 12.5814C10.5434 12.4875 10.384 12.4505 10.1221 12.4505H9.72073V13.6489H10.1449V13.6461ZM12.3424 15.5732V14.9811C12.5616 15.021 12.8206 15.0466 13.0939 15.0466C13.4013 15.0466 13.5835 15.0067 13.7145 14.9213C13.8454 14.8331 13.9166 14.6908 13.9166 14.4886C13.9166 14.2922 13.8454 14.1584 13.7287 14.0759C13.5921 13.9763 13.3814 13.945 12.9971 13.945H12.8918V13.3956H13.0228C13.3672 13.3956 13.5437 13.3529 13.6775 13.2362C13.7657 13.1593 13.8255 13.0341 13.8255 12.8519C13.8255 12.7095 13.7856 12.5871 13.7002 12.5103C13.5892 12.4107 13.4042 12.368 13.1082 12.368C12.8662 12.368 12.5929 12.3907 12.3737 12.422V11.8413C12.6271 11.7873 12.9459 11.7588 13.2362 11.7588C13.7088 11.7588 14.1101 11.8698 14.3407 12.1004C14.5001 12.2598 14.5998 12.479 14.5998 12.7921C14.5998 13.1821 14.429 13.4553 14.1016 13.6204C14.4973 13.7628 14.7335 14.0588 14.7335 14.5484C14.7335 14.8388 14.6453 15.0921 14.4688 15.2743C14.2212 15.5333 13.8198 15.6643 13.2505 15.6643C12.9231 15.6614 12.5929 15.6273 12.3424 15.5732Z" fill="#86888C"/>
</svg>
