<svg width="24" height="24" viewBox="0 0 24 24" fill="none" xmlns="http://www.w3.org/2000/svg">
<path fill-rule="evenodd" clip-rule="evenodd" d="M20.8616 20.8806V8.80997H18.2545C17.2583 8.80997 16.3988 8.48836 15.7726 7.87928C15.1408 7.26735 14.8078 6.42773 14.8078 5.45719V2.94403H7.81189C7.62404 2.94403 7.39919 3.1518 7.39919 3.32826V8.93805H14.2129C15.4823 8.93805 16.5155 9.97121 16.5155 11.2434V15.4899C16.5155 16.7622 15.4823 17.7953 14.2129 17.7953H7.43904L7.40204 20.8862C7.40204 21.0713 7.60981 21.2648 7.81473 21.2648H20.4517C20.6623 21.2648 20.8616 21.0769 20.8616 20.8806ZM4.00087 16.9529H14.2158C15.0212 16.9529 15.6787 16.2954 15.6787 15.4871V11.2406C15.6787 10.4323 15.0241 9.77767 14.2158 9.77767H4.00087C3.19541 9.77767 2.53794 10.4351 2.53794 11.2406V15.4871C2.53794 16.2954 3.19256 16.9529 4.00087 16.9529ZM15.6445 3.12618V5.45434C15.6445 6.19435 15.8893 6.82335 16.3561 7.27304C16.8257 7.72558 17.4832 7.96751 18.2545 7.96751H20.6424L15.6445 3.12618ZM21.667 7.94758C21.6869 7.99882 21.7012 8.05289 21.7012 8.11266V20.8777C21.7012 21.5409 21.1291 22.1016 20.4517 22.1016H7.81473C7.14873 22.1016 6.56527 21.5295 6.56527 20.8777L6.60227 17.7925H4.00372C2.73433 17.7925 1.70117 16.7593 1.70117 15.4871V11.2406C1.70117 9.96836 2.73433 8.9352 4.00372 8.9352H6.56527V3.32541C6.56527 2.68503 7.16012 2.10156 7.81473 2.10156H15.5079C15.6901 2.10156 15.8637 2.17272 15.9975 2.29795L21.4934 7.62028C21.5845 7.70851 21.6357 7.8252 21.667 7.94758Z" fill="#86888C"/>
<path d="M5.97293 11.6191H6.91501L8.26694 15.3618H7.35332L7.04024 14.4198H5.82493L5.53462 15.3618H4.71777L5.97293 11.6191ZM6.83247 13.8021L6.42263 12.5555H6.41124L6.02132 13.8021H6.83247ZM8.13033 11.6191H9.04394L9.92056 14.3344L10.7374 11.6191H11.5685L10.3247 15.3618H9.43387L8.13033 11.6191ZM12.0523 11.6191H12.9062V15.3618H12.0523V11.6191Z" fill="#86888C"/>
</svg>
