<svg width="40" height="40" viewBox="0 0 40 40" fill="none" xmlns="http://www.w3.org/2000/svg">
<path fill-rule="evenodd" clip-rule="evenodd" d="M31.7718 36.4889C32.1508 36.4889 32.5043 36.1508 32.5043 35.7974V14.0734H27.8532C26.0757 14.0734 24.5441 13.4946 23.4223 12.3984C22.2954 11.2971 21.7012 9.79112 21.7012 8.03927V3.51622H9.23335C8.9004 3.51622 8.50085 3.89015 8.50085 4.20774V35.7974C8.50085 36.1406 8.86966 36.4889 9.23335 36.4889H31.7718ZM32.115 12.5572L23.1969 3.84405V8.03415C23.1969 9.36596 23.6323 10.498 24.4622 11.3073C25.2971 12.1218 26.4701 12.5572 27.848 12.5572H32.115ZM33.9437 12.5265C33.9846 12.6187 34.0051 12.716 34.0051 12.8236V35.7974C34.0051 36.9909 32.9858 38 31.7718 38H9.23335C8.04496 38 7 36.9704 7 35.7974V4.20262C7 3.05009 8.06545 2 9.23335 2H22.9511C23.2789 2 23.5862 2.12806 23.8219 2.35344L33.6261 11.9323C33.7951 12.0911 33.8873 12.3011 33.9437 12.5265ZM24.3597 32.4832C25.1281 32.4678 26.0347 32.1451 26.0347 30.6955C26.0347 29.2408 25.1178 28.918 24.3495 28.8976H24.1343C23.3865 28.9027 22.4849 29.2203 22.4849 30.6853C22.4849 32.1503 23.3916 32.473 24.1548 32.4832H24.3597ZM18.5509 18.9038L26.0347 20.9579V19.58L18.5509 17.531V18.9038ZM15.3802 28.7336C16.1434 28.7234 17.0552 28.4007 17.0552 26.9511C17.0552 25.4963 16.1383 25.1736 15.3699 25.1531L15.1497 25.148C14.4018 25.1531 13.5054 25.4758 13.5054 26.9357C13.5054 28.4058 14.4121 28.7285 15.1753 28.7388L15.3802 28.7336ZM26.5265 18.1406C27.0899 18.202 27.5304 18.6887 27.5304 19.2726V30.6955C27.5304 33.0877 25.8349 33.9687 24.3853 33.9943H24.1292C22.6796 33.9738 20.9841 33.0928 20.9841 30.6801C20.9841 28.2624 22.6693 27.3967 24.1138 27.3813H24.3751C24.9283 27.3967 25.5122 27.5299 26.0296 27.827V22.5151L18.5458 20.4661L18.5202 27.2123C18.3921 29.3893 16.794 30.2191 15.4007 30.2396H15.1548C13.6949 30.2191 11.9994 29.3381 11.9994 26.9254C11.9994 24.5077 13.6847 23.642 15.1292 23.6266L15.4007 23.6318C15.9488 23.6471 16.5276 23.7854 17.0398 24.0774V17.0188C17.0398 16.3887 17.547 15.8765 18.1719 15.8765L18.3665 15.9021L26.5265 18.1406Z" fill="#86888C"/>
</svg>
