<svg width="40" height="40" viewBox="0 0 40 40" fill="none" xmlns="http://www.w3.org/2000/svg">
<path fill-rule="evenodd" clip-rule="evenodd" d="M36.4838 35.815V14.091H31.7917C29.9989 14.091 28.4519 13.5122 27.325 12.416C26.1878 11.3198 25.5834 9.8087 25.5834 8.05685V3.5338H12.9977C12.6596 3.5338 12.255 3.90773 12.255 4.22532V14.3215H24.5179C26.8025 14.3215 28.6619 16.1809 28.6619 18.4706V26.1132C28.6619 28.4029 26.8025 30.2623 24.5179 30.2623H12.3267L12.2601 35.8252C12.2601 36.1582 12.634 36.5065 13.0028 36.5065H35.7462C36.1252 36.5065 36.4838 36.1684 36.4838 35.815ZM6.13887 28.7461H24.523C25.9727 28.7461 27.1559 27.5628 27.1559 26.1081V18.4655C27.1559 17.0107 25.9778 15.8275 24.523 15.8275H6.13887C4.68924 15.8275 3.50598 17.0107 3.50598 18.4655V26.1081C3.50598 27.5628 4.68412 28.7461 6.13887 28.7461ZM27.0945 3.86163V8.05173C27.0945 9.38354 27.535 10.5156 28.3751 11.3249C29.2203 12.1394 30.4035 12.5748 31.7917 12.5748H36.0894L27.0945 3.86163ZM37.9334 12.544C37.9693 12.6362 37.9949 12.7336 37.9949 12.8411V35.815C37.9949 37.0085 36.9653 38.0176 35.7462 38.0176H13.0028C11.8042 38.0176 10.7541 36.988 10.7541 35.815L10.8207 30.2623H6.144C3.85942 30.2623 2 28.4029 2 26.1132V18.4706C2 16.1809 3.85942 14.3215 6.144 14.3215H10.7541V4.2202C10.7541 3.06766 11.8247 2.01758 13.0028 2.01758H26.8486C27.1764 2.01758 27.4889 2.14564 27.7297 2.37102L37.6209 11.9498C37.7849 12.1086 37.8771 12.3187 37.9334 12.544Z" fill="#86888C"/>
<path d="M4.6543 19.4849H5.94513V21.7899H7.93773V19.4849H9.22857V25.1451H7.93773V22.7632H5.94513V25.1451H4.6543V19.4849ZM11.7129 20.4171H9.96107V19.4849H14.8171L14.7198 20.4171H13.0089V25.14H11.718V20.4171H11.7129ZM15.4881 19.4849H16.5075L18.2952 22.6454L20.1392 19.4849H21.133V25.1451H19.9497V21.8873L18.7767 23.8542H17.7829L16.574 21.8514V25.1451H15.4881V19.4849ZM22.3572 19.4849H23.648V24.2077H26.1529V25.1451H22.3572V19.4849Z" fill="#86888C"/>
</svg>
