<svg width="24" height="24" viewBox="0 0 24 24" fill="none" xmlns="http://www.w3.org/2000/svg">
<path fill-rule="evenodd" clip-rule="evenodd" d="M21.1605 20.7763V8.70746H18.5538C17.5578 8.70746 16.6983 8.38589 16.0723 7.77689C15.4405 7.1679 15.1047 6.3284 15.1047 5.35515V2.84234H8.11269C7.92487 2.84234 7.70006 3.05009 7.70006 3.22652V8.83552H14.5128C15.782 8.83552 16.815 9.86853 16.815 11.1406V15.3865C16.815 16.6585 15.782 17.6915 14.5128 17.6915H7.7399L7.7029 20.782C7.7029 20.967 7.91064 21.1605 8.11554 21.1605H20.7507C20.9613 21.1605 21.1605 20.9727 21.1605 20.7763ZM4.30222 16.8492H14.5157C15.321 16.8492 15.9784 16.1918 15.9784 15.3836V11.1377C15.9784 10.3295 15.3238 9.67217 14.5157 9.67217H4.30222C3.49687 9.67217 2.8395 10.3295 2.8395 11.1377V15.3836C2.8395 16.1918 3.49402 16.8492 4.30222 16.8492ZM15.9442 3.02447V5.35231C15.9442 6.0922 16.189 6.72112 16.6557 7.17075C17.1252 7.62322 17.7826 7.86511 18.5538 7.86511H20.9414L15.9442 3.02447ZM21.9659 7.84804C21.9858 7.89926 22 7.95618 22 8.01309V20.7763C22 21.4394 21.428 22 20.7507 22H8.11554C7.44963 22 6.8634 21.428 6.8634 20.7763L6.9004 17.6915H4.30222C3.03301 17.6915 2 16.6585 2 15.3865V11.1406C2 9.86853 3.03301 8.83552 4.30222 8.83552H6.8634V3.22368C6.8634 2.58338 7.45817 2 8.11554 2H15.8076C15.9926 2 16.1662 2.07114 16.2999 2.1992L21.7951 7.51793C21.8833 7.60615 21.9345 7.72282 21.9659 7.84804Z" fill="#86888C"/>
<path d="M8.16388 11.2773H9.13428L10.5287 15.1419H9.58391L9.26234 14.1715H8.00736L7.70856 15.1419H6.86621L8.16388 11.2773ZM9.05175 13.5312L8.62774 12.2421H8.61635L8.2151 13.5312H9.05175ZM10.9897 11.2773H11.8719V15.1419H10.9897V11.2773Z" fill="#86888C"/>
</svg>
