<svg width="20" height="20" viewBox="0 0 20 20" fill="none" xmlns="http://www.w3.org/2000/svg">
<path fill-rule="evenodd" clip-rule="evenodd" d="M17.3261 17.0386V7.38354H15.2408C14.4439 7.38354 13.7564 7.12629 13.2555 6.63909C12.7501 6.1519 12.4815 5.4803 12.4815 4.7017V2.69145H6.88788C6.73762 2.69145 6.55777 2.85765 6.55777 2.9988V7.48599H12.008C13.0233 7.48599 13.8497 8.3124 13.8497 9.33004V12.7267C13.8497 13.7444 13.0233 14.5708 12.008 14.5708H6.58964L6.56005 17.0432C6.56005 17.1912 6.72624 17.346 6.89015 17.346H16.9983C17.1668 17.346 17.3261 17.1957 17.3261 17.0386ZM3.8395 13.8969H12.0102C12.6545 13.8969 13.1804 13.371 13.1804 12.7245V9.32777C13.1804 8.68121 12.6568 8.15531 12.0102 8.15531H3.8395C3.19522 8.15531 2.66932 8.68121 2.66932 9.32777V12.7245C2.66932 13.371 3.19294 13.8969 3.8395 13.8969ZM13.1531 2.83716V4.69942C13.1531 5.29134 13.3489 5.79447 13.7223 6.15417C14.0979 6.51616 14.6238 6.70967 15.2408 6.70967H17.1508L13.1531 2.83716ZM17.9704 6.69601C17.9863 6.73699 17.9977 6.78024 17.9977 6.82805V17.0386C17.9977 17.5691 17.5401 18.0176 16.9983 18.0176H6.89015C6.35743 18.0176 5.89072 17.56 5.89072 17.0386L5.92032 14.5708H3.84178C2.82641 14.5708 2 13.7444 2 12.7267V9.33004C2 8.3124 2.82641 7.48599 3.84178 7.48599H5.89072V2.99652C5.89072 2.48428 6.36653 2.01758 6.89015 2.01758H13.0438C13.1895 2.01758 13.3284 2.07449 13.4354 2.17466L17.8315 6.43192C17.9044 6.5025 17.9454 6.59584 17.9704 6.69601Z" fill="#86888C"/>
<path d="M3.1792 9.78076H3.7529V10.8052H4.6385V9.78076H5.21221V12.2964H4.6385V11.2378H3.7529V12.2964H3.1792V9.78076ZM6.31636 10.1951H5.53777V9.78076H7.69599L7.65273 10.1951H6.89235V12.2941H6.31864V10.1951H6.31636ZM7.99423 9.78076H8.44727L9.24181 11.1854L10.0614 9.78076H10.503V12.2964H9.97715V10.8485L9.45581 11.7227H9.01415L8.47687 10.8326V12.2964H7.99423V9.78076ZM11.0472 9.78076H11.6209V11.8798H12.7341V12.2964H11.0472V9.78076Z" fill="#86888C"/>
</svg>
