<svg width="24" height="24" viewBox="0 0 24 24" fill="none" xmlns="http://www.w3.org/2000/svg">
<path fill-rule="evenodd" clip-rule="evenodd" d="M20.8557 21.3595C21.0663 21.3595 21.2684 21.1716 21.2684 20.9752V8.90004H18.661C17.6647 8.90004 16.805 8.57838 16.1787 7.97206C15.5468 7.36005 15.2109 6.52031 15.2109 5.54963V3.03611H8.21404C8.02617 3.03611 7.80129 3.24391 7.80129 3.4204V9.02814H14.616C15.8855 9.02814 16.9189 10.0614 16.9189 11.3339V15.5809C16.9189 16.8534 15.8855 17.8867 14.616 17.8867H7.84114L7.80414 20.978C7.80414 21.1631 8.01193 21.3566 8.21689 21.3566H20.8557V21.3595ZM2.93935 15.5809C2.93935 16.3894 3.59406 17.0469 4.40248 17.0469H14.6188C15.4244 17.0469 16.082 16.3894 16.082 15.5809V11.3339C16.082 10.5254 15.4272 9.86788 14.6188 9.86788H4.40248C3.59691 9.86788 2.93935 10.5254 2.93935 11.3339V15.5809ZM21.0464 8.05746L16.0478 3.21829V5.54679C16.0478 6.28689 16.2926 6.91599 16.7594 7.36574C17.2291 7.81835 17.8838 8.05746 18.6581 8.05746H21.0464ZM22.0711 8.04323C22.0939 8.09447 22.1053 8.14855 22.1053 8.20833V20.9752C22.1053 21.6384 21.5331 22.1992 20.8557 22.1992H8.21689C7.55079 22.1992 6.9644 21.6271 6.9644 20.9752L7.0014 17.8895H4.40248C3.13291 17.8895 2.09961 16.8562 2.09961 15.5838V11.3367C2.09961 10.0643 3.13291 9.03099 4.40248 9.03099H6.9644V3.42324C6.9644 2.78277 7.55933 2.19922 8.21689 2.19922H15.9112C16.0933 2.19922 16.267 2.27038 16.4008 2.39563L21.8975 7.71587C21.9886 7.80411 22.0427 7.91798 22.0711 8.04323Z" fill="#86888C"/>
<path d="M4.65869 11.6268H5.95103C6.54027 11.6268 6.91317 11.7094 7.15513 11.9343C7.35724 12.1221 7.45687 12.4125 7.45687 12.8138C7.45687 13.2152 7.36293 13.517 7.17506 13.7276C6.95587 13.9752 6.61428 14.092 6.11898 14.092H5.51551V15.39H4.65869V11.6268ZM5.93965 13.4458C6.21576 13.4458 6.32963 13.4059 6.44064 13.3035C6.54027 13.2038 6.58867 13.0444 6.58867 12.8252C6.58867 12.6231 6.54597 12.4723 6.44634 12.3812C6.34101 12.2872 6.18161 12.2502 5.91972 12.2502H5.51551V13.4486H5.93965V13.4458ZM7.92655 15.2704L8.0575 14.6157C8.3877 14.7324 8.82038 14.8036 9.09649 14.8036C9.60318 14.8036 9.83945 14.6727 9.83945 14.3254C9.83945 13.6223 7.92086 14.1318 7.92086 12.6544C7.92086 11.8916 8.52149 11.5557 9.32137 11.5557C9.68573 11.5557 10.0814 11.6097 10.3718 11.7094L10.2408 12.347C9.93339 12.2645 9.60318 12.2161 9.33845 12.2161C8.87731 12.2161 8.72929 12.3812 8.72929 12.6174C8.72929 13.3547 10.6479 12.848 10.6479 14.3168C10.6479 14.6527 10.5312 14.9203 10.3348 15.1082C10.07 15.3558 9.7142 15.4669 9.17335 15.4669C8.69513 15.464 8.30515 15.4042 7.92655 15.2704ZM11.3083 11.6268H12.4668C13.1813 11.6268 13.6539 11.7378 13.967 12.051C14.2687 12.347 14.4224 12.8138 14.4224 13.4913C14.4224 14.1745 14.2744 14.647 13.967 14.9659C13.6852 15.2505 13.2525 15.39 12.5807 15.39H11.3054V11.6268H11.3083ZM12.5295 14.7609C12.9137 14.7609 13.1899 14.6442 13.3379 14.425C13.4859 14.2058 13.5371 13.9525 13.5371 13.4913C13.5371 12.9533 13.4546 12.7 13.2724 12.5007C13.1016 12.3185 12.8483 12.2531 12.4298 12.2531H12.1651V14.7609H12.5295Z" fill="#86888C"/>
</svg>
