<svg width="20" height="20" viewBox="0 0 20 20" fill="none" xmlns="http://www.w3.org/2000/svg">
<path fill-rule="evenodd" clip-rule="evenodd" d="M17.1044 17.5274C17.273 17.5274 17.4347 17.3771 17.4347 17.22V7.55988H15.3487C14.5516 7.55988 13.8639 7.30255 13.3629 6.81749C12.8574 6.32788 12.5887 5.65609 12.5887 4.87955V2.86873H6.99116C6.84086 2.86873 6.66095 3.03497 6.66095 3.17616V7.66236H12.1127C13.1284 7.66236 13.955 8.489 13.955 9.50693V12.9046C13.955 13.9225 13.1284 14.7492 12.1127 14.7492H6.69283L6.66323 17.2223C6.66323 17.3703 6.82947 17.5252 6.99343 17.5252H17.1044V17.5274ZM2.7714 12.9046C2.7714 13.5513 3.29517 14.0774 3.94191 14.0774H12.115C12.7594 14.0774 13.2855 13.5513 13.2855 12.9046V9.50693C13.2855 8.86019 12.7617 8.33415 12.115 8.33415H3.94191C3.29745 8.33415 2.7714 8.86019 2.7714 9.50693V12.9046ZM17.257 6.88581L13.2582 3.01448V4.87727C13.2582 5.46936 13.454 5.97263 13.8275 6.33244C14.2032 6.69452 14.727 6.88581 15.3464 6.88581H17.257ZM18.0768 6.87443C18.0951 6.91542 18.1042 6.95868 18.1042 7.00651V17.22C18.1042 17.7506 17.6464 18.1992 17.1044 18.1992H6.99343C6.46055 18.1992 5.99144 17.7415 5.99144 17.22L6.02104 14.7515H3.94191C2.92625 14.7515 2.09961 13.9248 2.09961 12.9069V9.50921C2.09961 8.49128 2.92625 7.66463 3.94191 7.66463H5.99144V3.17844C5.99144 2.66606 6.46739 2.19922 6.99343 2.19922H13.1489C13.2946 2.19922 13.4335 2.25615 13.5405 2.35635L17.9379 6.61254C18.0108 6.68314 18.0541 6.77423 18.0768 6.87443Z" fill="#86888C"/>
<path d="M4.14697 9.7415H5.18085C5.65224 9.7415 5.95056 9.80754 6.14413 9.98745C6.30581 10.1377 6.38552 10.37 6.38552 10.6911C6.38552 11.0122 6.31037 11.2536 6.16007 11.4221C5.98472 11.6202 5.71145 11.7136 5.3152 11.7136H4.83243V12.752H4.14697V9.7415ZM5.17174 11.1967C5.39263 11.1967 5.48372 11.1648 5.57253 11.0828C5.65224 11.0031 5.69095 10.8756 5.69095 10.7002C5.69095 10.5385 5.65679 10.4178 5.57709 10.345C5.49283 10.2698 5.3653 10.2402 5.1558 10.2402H4.83243V11.1989H5.17174V11.1967ZM6.76126 12.6564L6.86602 12.1326C7.13018 12.226 7.47632 12.2829 7.69721 12.2829C8.10257 12.2829 8.29158 12.1782 8.29158 11.9003C8.29158 11.3379 6.75671 11.7455 6.75671 10.5636C6.75671 9.95329 7.23721 9.68457 7.87712 9.68457C8.16861 9.68457 8.48515 9.72784 8.71743 9.80754L8.61267 10.3176C8.36673 10.2516 8.10257 10.2129 7.89078 10.2129C7.52187 10.2129 7.40345 10.345 7.40345 10.534C7.40345 11.1238 8.93832 10.7184 8.93832 11.8935C8.93832 12.1622 8.84495 12.3763 8.68782 12.5266C8.47604 12.7247 8.19138 12.8135 7.7587 12.8135C7.37612 12.8112 7.06414 12.7634 6.76126 12.6564ZM9.46664 9.7415H10.3935C10.9651 9.7415 11.3431 9.83031 11.5936 10.0808C11.835 10.3176 11.958 10.6911 11.958 11.2331C11.958 11.7796 11.8395 12.1577 11.5936 12.4127C11.3682 12.6404 11.022 12.752 10.4846 12.752H9.46437V9.7415H9.46664ZM10.4436 12.2488C10.751 12.2488 10.9719 12.1554 11.0903 11.98C11.2087 11.8047 11.2497 11.602 11.2497 11.2331C11.2497 10.8027 11.1837 10.6 11.0379 10.4406C10.9013 10.2949 10.6986 10.2425 10.3639 10.2425H10.1521V12.2488H10.4436Z" fill="#86888C"/>
</svg>
