<svg width="28" height="28" viewBox="0 0 28 28" fill="none" xmlns="http://www.w3.org/2000/svg">
<path fill-rule="evenodd" clip-rule="evenodd" d="M21.9984 24.5314V10.0535H18.8938C17.7053 10.0535 16.6875 9.66074 15.9395 8.93326C15.1915 8.19553 14.7919 7.19824 14.7919 6.02675V3.01096H6.48228C6.2637 3.01096 5.99388 3.2637 5.99388 3.47545V10.4975L6.04511 20.4363L5.99388 24.5416C5.99388 24.7636 6.2432 24.9959 6.48228 24.9959H21.51C21.7594 24.9959 21.9984 24.7739 21.9984 24.5314ZM15.7927 3.22954V6.02334C15.7927 6.91134 16.083 7.66956 16.6431 8.20236C17.193 8.74541 17.9819 9.03913 18.8973 9.03913H21.7286L15.7927 3.22954ZM22.9582 9.01181C22.9787 9.08353 22.9991 9.1416 22.9991 9.21332V24.528C22.9991 25.3237 22.3092 26 21.5134 26H6.4857C5.69674 26 5 25.3135 5 24.528L5.05123 20.4329L5 10.5043V3.47204C5 2.70357 5.7104 2 6.4857 2H15.6355C15.8473 2 16.0659 2.09222 16.2127 2.24249L22.7498 8.61904C22.8557 8.72833 22.9172 8.87178 22.9582 9.01181ZM17.917 18.2231C17.917 18.7594 17.5379 19.1419 17.029 19.1419C16.4996 19.1419 16.1205 18.7594 16.1205 18.2436V18.2231C16.1205 17.7177 16.5099 17.3146 17.0085 17.3146C17.5277 17.3181 17.917 17.7211 17.917 18.2231ZM14.5734 18.2231C14.5734 18.7594 14.184 19.1419 13.6751 19.1419C13.156 19.1419 12.7666 18.7594 12.7666 18.2436V18.2231C12.7666 17.7177 13.156 17.3146 13.6649 17.3146C14.1772 17.3181 14.5734 17.7211 14.5734 18.2231ZM11.2229 18.2231C11.2229 18.7594 10.8335 19.1419 10.3246 19.1419C9.80546 19.1419 9.41611 18.7594 9.41611 18.2436V18.2231C9.41611 17.7177 9.81571 17.3146 10.3144 17.3146C10.8335 17.3181 11.2229 17.7211 11.2229 18.2231Z" fill="#86888C"/>
</svg>
