<svg width="28" height="28" viewBox="0 0 28 28" fill="none" xmlns="http://www.w3.org/2000/svg">
<path fill-rule="evenodd" clip-rule="evenodd" d="M23.5179 24.9926C23.7706 24.9926 24.0063 24.7672 24.0063 24.5316V10.0455H20.9055C19.7205 10.0455 18.6995 9.65965 17.9516 8.92886C17.2003 8.19465 16.8042 7.18725 16.8042 6.02277V3.01081H8.49232C8.27035 3.01081 8.00398 3.2601 8.00398 3.47183V24.5316C8.00398 24.7604 8.24986 24.9926 8.49232 24.9926H23.5179ZM23.7467 9.03472L17.8014 3.22937V6.01935C17.8014 6.90723 18.0916 7.66192 18.6448 8.20148C19.2015 8.74445 19.9835 9.03472 20.9021 9.03472H23.7467ZM24.9659 9.01764C24.9932 9.07911 25.0034 9.144 25.0034 9.21571V24.5316C25.0034 25.3273 24.3238 26 23.5145 26H8.4889C7.69664 26 7 25.3136 7 24.5316V3.46841C7 2.70006 7.7103 2 8.4889 2H17.634C17.8526 2 18.0575 2.08537 18.2146 2.23563L24.7507 8.6181C24.8668 8.73079 24.9283 8.8708 24.9659 9.01764ZM21.2914 22.2846C21.3563 22.2846 21.4246 22.2402 21.4417 22.2129L21.428 12.5316C21.4246 12.5726 21.3563 12.5282 21.2948 12.5282H10.7188C10.6574 12.5282 10.6096 12.5555 10.5857 12.576V22.2812C10.5857 22.2675 10.5925 22.2641 10.6027 22.2641C10.6266 22.2641 10.671 22.2846 10.7223 22.2846H21.2914ZM21.2914 11.5174C21.8958 11.5174 22.4252 11.992 22.4252 12.5316V22.2812C22.4252 22.8207 21.8958 23.2954 21.2914 23.2954H10.7188C10.1042 23.2954 9.58509 22.831 9.58509 22.2812V12.5316C9.58509 11.9818 10.1042 11.5174 10.7154 11.5174H21.2914ZM12.901 14.9732C12.6107 14.9732 12.3717 15.2123 12.3717 15.5094C12.3717 15.8031 12.6107 16.0455 12.901 16.0455C13.1947 16.0455 13.4303 15.8031 13.4303 15.5094C13.4337 15.2123 13.1947 14.9732 12.901 14.9732ZM12.901 17.0529C12.0575 17.0529 11.3745 16.3597 11.3745 15.5094C11.3745 14.6591 12.0609 13.9659 12.901 13.9659C13.7445 13.9659 14.4308 14.6591 14.4308 15.5094C14.4308 16.3597 13.7445 17.0529 12.901 17.0529ZM18.8907 16.1343L20.926 17.7086C21.1446 17.8793 21.1855 18.1935 21.0182 18.4155C20.8509 18.6375 20.5367 18.6784 20.3182 18.5077L18.5902 17.1725L16.753 18.6477L17.897 19.7336C18.0985 19.9249 18.1087 20.2425 17.9175 20.4474C17.7262 20.6522 17.4121 20.6591 17.2106 20.4713L15.1651 18.5248L12.1941 21.0245C12.1019 21.103 11.9858 21.1406 11.8731 21.1406C11.7297 21.1406 11.5862 21.0791 11.4872 20.9596C11.313 20.7445 11.3404 20.4269 11.5521 20.2493L14.8645 17.4627C15.0592 17.2988 15.3426 17.309 15.527 17.4832L16.0188 17.9511L18.2726 16.1411C18.457 15.9977 18.7097 15.9977 18.8907 16.1343Z" fill="#86888C"/>
</svg>
