<svg width="24" height="24" viewBox="0 0 24 24" fill="none" xmlns="http://www.w3.org/2000/svg">
<path fill-rule="evenodd" clip-rule="evenodd" d="M20.7534 21.2648C20.964 21.2648 21.1632 21.0769 21.1632 20.8806V8.80997H18.5561C17.56 8.80997 16.7004 8.48836 16.0743 7.87928C15.4424 7.26735 15.1066 6.42773 15.1066 5.45719V2.94687H8.11356C7.92856 2.94687 7.70087 3.15749 7.70087 3.33111V8.9409H14.5146C15.784 8.9409 16.8171 9.97405 16.8171 11.2463V15.4928C16.8171 16.765 15.784 17.7982 14.5146 17.7982H7.74071L7.70371 20.8891C7.70371 21.0713 7.91433 21.2676 8.11641 21.2676H20.7534V21.2648ZM2.83962 15.4871C2.83962 16.2954 3.49424 16.9529 4.30255 16.9529H14.5174C15.3229 16.9529 15.9804 16.2954 15.9804 15.4871V11.2406C15.9804 10.4323 15.3257 9.77482 14.5174 9.77482H4.30255C3.49708 9.77482 2.83962 10.4323 2.83962 11.2406V15.4871ZM20.9441 7.96751L15.9462 3.12618V5.4515C15.9462 6.1915 16.191 6.8205 16.6577 7.2702C17.1274 7.72274 17.782 7.96466 18.5561 7.96466H20.9441V7.96751ZM21.9687 7.94758C21.9915 7.99882 22.0028 8.05574 22.0028 8.11266V20.8777C22.0028 21.5409 21.4308 22.1016 20.7534 22.1016H8.11641C7.4504 22.1016 6.86409 21.5295 6.86409 20.8777L6.90109 17.7925H4.30255C3.03316 17.7925 2 16.7593 2 15.4871V11.2406C2 9.96836 3.03316 8.9352 4.30255 8.9352H6.86409V3.32541C6.86409 2.68503 7.45894 2.10156 8.11641 2.10156H15.8096C15.9946 2.10156 16.1682 2.17272 16.302 2.30079L21.7979 7.62028C21.8862 7.70851 21.9374 7.8252 21.9687 7.94758Z" fill="#86888C"/>
<path d="M4.61816 11.5195H5.91032C6.49948 11.5195 6.87233 11.6021 7.11425 11.8269C7.31917 12.0148 7.41594 12.3051 7.41594 12.7064C7.41594 13.1077 7.32202 13.4122 7.13417 13.62C6.91502 13.8676 6.57348 13.9843 6.07825 13.9843H5.47201V15.2822H4.61816V11.5195ZM5.89894 13.3411C6.17502 13.3411 6.28886 13.3012 6.39986 13.1988C6.49948 13.0992 6.54786 12.9398 6.54786 12.7206C6.54786 12.5185 6.50517 12.3677 6.40556 12.2738C6.30025 12.1798 6.14086 12.1428 5.87617 12.1428H5.47486V13.3439H5.89894V13.3411ZM8.02787 11.5195H9.1891C9.90349 11.5195 10.3788 11.6305 10.6919 11.9436C10.9936 12.2396 11.1501 12.7092 11.1501 13.3866C11.1501 14.0697 11.0021 14.5422 10.6919 14.8609C10.4101 15.1484 9.97749 15.285 9.3058 15.285H8.02787V11.5195ZM9.24887 14.6589C9.63311 14.6589 9.90918 14.5422 10.0572 14.323C10.2052 14.1038 10.2564 13.8505 10.2564 13.3866C10.2564 12.8458 10.1739 12.5925 9.99172 12.3962C9.82095 12.214 9.56764 12.1485 9.14926 12.1485H8.88456V14.6589H9.24887ZM11.8047 11.5195H14.2866L14.2211 12.14H12.6643V13.0536H13.8967V13.6968H12.6643V15.2822H11.8047V11.5195Z" fill="#86888C"/>
</svg>
