<svg width="20" height="20" viewBox="0 0 20 20" fill="none" xmlns="http://www.w3.org/2000/svg">
<path fill-rule="evenodd" clip-rule="evenodd" d="M17.0048 17.6352C17.1734 17.6352 17.3328 17.4849 17.3328 17.3277V7.6699H15.2468C14.4498 7.6699 13.762 7.41257 13.261 6.92524C12.7555 6.43563 12.4868 5.76384 12.4868 4.98729V2.97648H6.89155C6.74125 2.97648 6.56134 3.14272 6.56134 3.28391V7.7701H12.0131C13.0287 7.7701 13.8554 8.59675 13.8554 9.61468V13.0123C13.8554 14.0303 13.0287 14.8569 12.0131 14.8569H6.59322L6.56362 17.33C6.56362 17.478 6.72986 17.6329 6.89382 17.6329H17.0048V17.6352ZM2.67179 13.0123C2.67179 13.6591 3.19556 14.1851 3.8423 14.1851H12.0154C12.6598 14.1851 13.1859 13.6591 13.1859 13.0123V9.61468C13.1859 8.96794 12.6621 8.44189 12.0154 8.44189H3.8423C3.19784 8.44189 2.67179 8.96794 2.67179 9.61468V13.0123ZM17.1574 6.99583L13.1586 3.12222V4.98502C13.1586 5.5771 13.3544 6.08038 13.7279 6.44018C14.1036 6.80227 14.6297 6.99583 15.2468 6.99583H17.1574ZM17.9772 6.97989C17.9954 7.02088 18.0046 7.06415 18.0046 7.11197V17.3255C18.0046 17.8561 17.5468 18.3047 17.0048 18.3047H6.89382C6.36094 18.3047 5.89183 17.847 5.89183 17.3255L5.92143 14.8569H3.8423C2.82664 14.8569 2 14.0303 2 13.0123V9.61468C2 8.59675 2.82664 7.7701 3.8423 7.7701H5.89183V3.28391C5.89183 2.77152 6.36778 2.30469 6.89382 2.30469H13.0492C13.195 2.30469 13.3339 2.36162 13.4409 2.46182L17.8383 6.72029C17.9112 6.7886 17.9522 6.88197 17.9772 6.97989Z" fill="#86888C"/>
<path d="M3.70098 12.6593L3.65771 12.1993C3.77841 12.2221 3.91277 12.2312 3.9697 12.2312C4.22475 12.2312 4.30446 12.1629 4.30446 11.8691V10.0018H4.90565V11.8828C4.90565 12.2107 4.851 12.3883 4.71664 12.5227C4.59594 12.6388 4.40465 12.6935 4.10633 12.6935C3.97653 12.6935 3.88999 12.6844 3.70098 12.6593ZM5.46586 10.0018H6.3722C6.78439 10.0018 7.04627 10.0587 7.21707 10.2181C7.36053 10.3502 7.42885 10.5529 7.42885 10.8352C7.42885 11.1176 7.36281 11.3294 7.23301 11.4751C7.07815 11.6482 6.83904 11.7302 6.4929 11.7302H6.06933V12.6411H5.46813V10.0018H5.46586ZM6.36309 11.277C6.55666 11.277 6.63637 11.2497 6.71379 11.1768C6.78211 11.1085 6.81855 10.9946 6.81855 10.8421C6.81855 10.6986 6.78666 10.5961 6.71835 10.5301C6.64547 10.464 6.53389 10.4367 6.34715 10.4367H6.06477V11.277H6.36309ZM7.85242 10.0018H9.63323L9.58769 10.4367H8.45362V11.0766H9.35996V11.5275H8.45362V12.2016H9.65373V12.6365H7.85242V10.0018ZM9.99076 11.3362C9.99076 10.5119 10.4257 9.95166 11.3252 9.95166C11.5871 9.95166 11.8991 10.0063 12.0699 10.0792L11.9925 10.5187C11.8035 10.464 11.5757 10.4231 11.3685 10.4231C10.8356 10.4231 10.617 10.7396 10.617 11.3135C10.617 11.6095 10.6557 11.8532 10.7719 12.0149C10.8675 12.1492 11.0269 12.2266 11.282 12.2266C11.3776 12.2266 11.5097 12.2153 11.6031 12.1993V11.6437H11.2319V11.211H12.1997V12.5568C11.9492 12.6343 11.5484 12.6912 11.2592 12.6912C10.3119 12.6935 9.99076 12.172 9.99076 11.3362Z" fill="#86888C"/>
</svg>
