<svg width="20" height="20" viewBox="0 0 20 20" fill="none" xmlns="http://www.w3.org/2000/svg">
<path fill-rule="evenodd" clip-rule="evenodd" d="M16.8033 17.4298C16.9719 17.4298 17.1335 17.2795 17.1335 17.1223V7.46222H15.0453C14.2483 7.46222 13.5605 7.20489 13.0595 6.71984C12.554 6.23023 12.2853 5.55844 12.2853 4.78189V2.77108H6.69005C6.53975 2.77108 6.35985 2.93732 6.35985 3.07851V7.5647H11.8093C12.825 7.5647 13.6516 8.39134 13.6516 9.40928V12.8069C13.6516 13.8249 12.825 14.6515 11.8093 14.6515H6.38945L6.35985 17.1246C6.35985 17.2726 6.52609 17.4275 6.69005 17.4275H16.8033V17.4298ZM2.47029 12.8069C2.47029 13.4537 2.99406 13.9797 3.6408 13.9797H11.8116C12.4561 13.9797 12.9821 13.4537 12.9821 12.8069V9.40928C12.9821 8.76254 12.4583 8.23649 11.8116 8.23649H3.6408C2.99634 8.23649 2.47029 8.76254 2.47029 9.40928V12.8069ZM16.9559 6.78816L12.9571 2.91682V4.77962C12.9571 5.3717 13.1529 5.87498 13.5264 6.23478C13.9021 6.59687 14.4259 6.78816 15.0453 6.78816H16.9559ZM17.7757 6.77677C17.7939 6.81776 17.8031 6.86103 17.8031 6.90885V17.1223C17.8031 17.6529 17.3453 18.1016 16.8033 18.1016H6.69233C6.15945 18.1016 5.69261 17.6438 5.69261 17.1223L5.72222 14.6538H3.64308C2.62743 14.6538 1.80078 13.8272 1.80078 12.8092V9.41155C1.80078 8.39362 2.62743 7.56698 3.64308 7.56698H5.69261V3.08078C5.69261 2.5684 6.16856 2.10156 6.69233 2.10156H12.8455C12.9935 2.10156 13.1347 2.15849 13.2394 2.25869L17.6368 6.51488C17.7097 6.58548 17.753 6.67657 17.7757 6.77677Z" fill="#86888C"/>
<path d="M3.57227 9.59847H4.1097L5.05476 11.27L6.0317 9.59847H6.55775V12.5908H5.9315V10.8669L5.30981 11.9076H4.78377L4.14386 10.8487V12.5908H3.57227V9.59847ZM7.20677 9.59847H8.23609C8.7052 9.59847 9.00124 9.66451 9.19481 9.84441C9.3565 9.99243 9.4362 10.2247 9.4362 10.5435C9.4362 10.8623 9.36105 11.1037 9.21303 11.27C9.03768 11.4658 8.76669 11.5592 8.37272 11.5592H7.89222V12.5908H7.20904V9.59847H7.20677ZM8.2247 11.0468C8.44332 11.0468 8.53441 11.0172 8.62322 10.9329C8.70292 10.8532 8.74164 10.728 8.74164 10.5526C8.74164 10.391 8.70748 10.2725 8.62777 10.1974C8.54579 10.1222 8.41827 10.0926 8.20876 10.0926H7.88994V11.0468H8.2247ZM11.1009 11.9031H9.78462C9.77551 11.8734 9.7664 11.8074 9.7664 11.7505C9.7664 11.6275 9.78917 11.4886 9.85749 11.295L10.4792 9.59619H11.0827L10.4086 11.4339H11.1009V10.7212H11.7271V11.4339H12.0778V11.9031H11.7271V12.5908H11.1009V11.9031Z" fill="#86888C"/>
</svg>
