<svg width="28" height="28" viewBox="0 0 28 28" fill="none" xmlns="http://www.w3.org/2000/svg">
<path fill-rule="evenodd" clip-rule="evenodd" d="M23.5145 24.9926C23.7672 24.9926 24.0028 24.7672 24.0028 24.5316V10.0489H20.9021C19.7171 10.0489 18.6961 9.66306 17.9482 8.93227C17.1969 8.19806 16.8008 7.19408 16.8008 6.02618V3.01081H8.4889C8.26693 3.01081 8.00057 3.2601 8.00057 3.47183V24.5316C8.00057 24.7604 8.24644 24.9926 8.4889 24.9926H23.5145ZM23.7433 9.03813L17.798 3.22937V6.02277C17.798 6.91064 18.0882 7.66534 18.6414 8.20489C19.1981 8.74787 19.9801 9.03813 20.8987 9.03813H23.7433ZM24.9624 9.01764C24.9898 9.07911 25.0034 9.144 25.0034 9.21571V24.5316C25.0034 25.3273 24.3238 26 23.5145 26H8.4889C7.69664 26 7 25.3136 7 24.5316V3.46841C7 2.70006 7.7103 2 8.4889 2H17.634C17.8526 2 18.0575 2.08537 18.2146 2.23563L24.7507 8.62151C24.8634 8.72738 24.9249 8.86739 24.9624 9.01764ZM18.5731 22.3221C19.0854 22.3119 19.6898 22.0968 19.6898 21.1303C19.6898 20.1605 19.0785 19.9454 18.5663 19.9317H18.4229C17.9243 19.9351 17.3233 20.1468 17.3233 21.1235C17.3233 22.1002 17.9277 22.3153 18.4365 22.3221H18.5731ZM14.7006 13.2692L19.6898 14.6386V13.72L14.7006 12.354V13.2692ZM12.5868 19.8224C13.0956 19.8156 13.7035 19.6005 13.7035 18.634C13.7035 17.6642 13.0922 17.4491 12.58 17.4354L12.4331 17.432C11.9345 17.4354 11.3369 17.6505 11.3369 18.6238C11.3369 19.6039 11.9414 19.819 12.4502 19.8258L12.5868 19.8224ZM20.0176 12.7604C20.3933 12.8014 20.687 13.1258 20.687 13.5151V21.1303C20.687 22.7251 19.5566 23.3125 18.5902 23.3295H18.4195C17.453 23.3159 16.3227 22.7285 16.3227 21.1201C16.3227 19.5083 17.4462 18.9311 18.4092 18.9209H18.5834C18.9522 18.9311 19.3415 19.0199 19.6864 19.218V15.6767L14.6972 14.3108L14.6801 18.8082C14.5948 20.2595 13.5293 20.8127 12.6005 20.8264H12.4365C11.4633 20.8127 10.333 20.2254 10.333 18.617C10.333 17.0051 11.4565 16.428 12.4195 16.4178L12.6005 16.4212C12.9659 16.4314 13.3517 16.5236 13.6932 16.7183V12.0125C13.6932 11.5925 14.0313 11.251 14.4479 11.251L14.5777 11.2681L20.0176 12.7604Z" fill="#86888C"/>
</svg>
