<svg width="24" height="24" viewBox="0 0 24 24" fill="none" xmlns="http://www.w3.org/2000/svg">
<path fill-rule="evenodd" clip-rule="evenodd" d="M20.554 21.2618C20.7646 21.2618 20.9667 21.0739 20.9667 20.8775V8.80239H18.3564C17.3601 8.80239 16.5005 8.48073 15.8742 7.87441C15.2423 7.26239 14.9064 6.42266 14.9064 5.45198V2.93845H7.91237C7.72449 2.93845 7.49961 3.14625 7.49961 3.32274V8.93048H14.3115C15.581 8.93048 16.6143 9.96379 16.6143 11.2362V15.4833C16.6143 16.7557 15.581 17.789 14.3115 17.789H7.53662L7.49961 20.8804C7.49961 21.0654 7.70741 21.259 7.91237 21.259H20.554V21.2618ZM2.63767 15.4833C2.63767 16.2917 3.29238 16.9493 4.10081 16.9493H14.3143C15.1199 16.9493 15.7774 16.2917 15.7774 15.4833V11.2362C15.7774 10.4278 15.1227 9.77022 14.3143 9.77022H4.10081C3.29523 9.77022 2.63767 10.4278 2.63767 11.2362V15.4833ZM20.7447 7.9598L15.7461 3.12063V5.44913C15.7461 6.18924 15.9909 6.81833 16.4578 7.26809C16.9275 7.72069 17.5822 7.9598 18.3564 7.9598H20.7447ZM21.7695 7.94557C21.7922 7.99681 21.8036 8.05089 21.8036 8.11067V20.8775C21.8036 21.5408 21.2315 22.1016 20.554 22.1016H7.91521C7.24912 22.1016 6.66557 21.5294 6.66557 20.8775L6.70257 17.7919H4.10366C2.83409 17.7919 1.80078 16.7586 1.80078 15.4861V11.2391C1.80078 9.96664 2.83409 8.93333 4.10366 8.93333H6.66557V3.32559C6.66557 2.68511 7.2605 2.10156 7.91521 2.10156H15.6066C15.7917 2.10156 15.9682 2.17273 16.0991 2.29798L21.5958 7.61822C21.6869 7.70646 21.741 7.82032 21.7695 7.94557Z" fill="#86888C"/>
<path d="M4.01514 11.4726H4.68693L5.86825 13.562L7.08943 11.4726H7.74699V15.213H6.96418V13.0581L6.18707 14.359H5.52951L4.72963 13.0353V15.213H4.01514V11.4726ZM8.55826 11.4726H9.84491C10.4313 11.4726 10.8014 11.5551 11.0433 11.78C11.2454 11.965 11.3451 12.2554 11.3451 12.6539C11.3451 13.0524 11.2511 13.3542 11.0661 13.562C10.8469 13.8068 10.5082 13.9235 10.0157 13.9235H9.41508V15.213H8.56111V11.4726H8.55826ZM9.83068 13.283C10.104 13.283 10.2178 13.246 10.3288 13.1407C10.4285 13.041 10.4769 12.8845 10.4769 12.6653C10.4769 12.4632 10.4342 12.3152 10.3345 12.2212C10.232 12.1273 10.0726 12.0903 9.81075 12.0903H9.41223V13.283H9.83068ZM13.4259 14.3533H11.7806C11.7692 14.3163 11.7578 14.2337 11.7578 14.1626C11.7578 14.0089 11.7863 13.8352 11.8717 13.5933L12.6488 11.4697H13.4031L12.5605 13.7669H13.4259V12.8759H14.2087V13.7669H14.6471V14.3533H14.2087V15.213H13.4259V14.3533Z" fill="#86888C"/>
</svg>
