<svg width="40" height="40" viewBox="0 0 40 40" fill="none" xmlns="http://www.w3.org/2000/svg">
<path fill-rule="evenodd" clip-rule="evenodd" d="M35.8605 36.6877C36.2397 36.6877 36.6035 36.3495 36.6035 35.996V14.2607H31.91C30.1167 14.2607 28.5693 13.6817 27.4421 12.5903C26.3046 11.4887 25.7 9.97719 25.7 8.22996V3.70562H13.1056C12.7674 3.70562 12.3626 4.07966 12.3626 4.39734V14.4913H24.6291C26.9143 14.4913 28.7742 16.3512 28.7742 18.6416V26.2863C28.7742 28.5767 26.9143 30.4366 24.6291 30.4366H12.4344L12.3678 36.0011C12.3678 36.3341 12.7418 36.6826 13.1107 36.6826H35.8605V36.6877ZM3.61114 26.2863C3.61114 27.7415 4.78962 28.9251 6.24478 28.9251H24.6342C26.0842 28.9251 27.2678 27.7415 27.2678 26.2863V18.6416C27.2678 17.1864 26.0894 16.0028 24.6342 16.0028H6.24478C4.79474 16.0028 3.61114 17.1864 3.61114 18.6416V26.2863ZM36.2038 12.7441L27.2064 4.03355V8.22484C27.2064 9.55703 27.647 10.6894 28.4873 11.499C29.3327 12.3137 30.5112 12.7441 31.9049 12.7441H36.2038ZM38.0484 12.7184C38.0894 12.8107 38.1099 12.908 38.1099 13.0156V35.996C38.1099 37.1898 37.08 38.1992 35.8605 38.1992H13.1107C11.9117 38.1992 10.8562 37.1693 10.8562 35.996L10.9228 30.4417H6.24478C3.95956 30.4417 2.09961 28.5818 2.09961 26.2914V18.6467C2.09961 16.3563 3.95956 14.4964 6.24478 14.4964H10.8562V4.40246C10.8562 3.2496 11.9271 2.19922 13.1107 2.19922H26.9604C27.2883 2.19922 27.6009 2.32731 27.8417 2.55276L37.7358 12.1292C37.8998 12.288 37.9971 12.493 38.0484 12.7184Z" fill="#86888C"/>
<path d="M6.70605 19.1691H9.03227C10.0929 19.1691 10.7641 19.3177 11.1997 19.7225C11.5634 20.0607 11.7428 20.5833 11.7428 21.3057C11.7428 22.0282 11.5737 22.5713 11.2355 22.9505C10.841 23.3963 10.2261 23.6063 9.33458 23.6063H8.24833V25.9428H6.70605V19.1691ZM9.01178 22.4432C9.50879 22.4432 9.71374 22.3715 9.91357 22.187C10.0929 22.0077 10.18 21.7208 10.18 21.3262C10.18 20.9625 10.1032 20.6909 9.92382 20.5269C9.73424 20.3578 9.4473 20.2912 8.97591 20.2912H8.24833V22.4484H9.01178V22.4432ZM12.5882 25.7276L12.8239 24.5491C13.4183 24.7592 14.1971 24.8873 14.6941 24.8873C15.6061 24.8873 16.0314 24.6516 16.0314 24.0265C16.0314 22.7609 12.578 23.6781 12.578 21.0188C12.578 19.6456 13.6591 19.041 15.0989 19.041C15.7547 19.041 16.4669 19.1384 16.9896 19.3177L16.7539 20.4654C16.2005 20.3168 15.6061 20.2297 15.1296 20.2297C14.2996 20.2297 14.0331 20.5269 14.0331 20.9522C14.0331 22.2793 17.4866 21.3672 17.4866 24.0111C17.4866 24.6157 17.2765 25.0974 16.923 25.4356C16.4464 25.8813 15.806 26.0812 14.8324 26.0812C13.9716 26.076 13.2697 25.9684 12.5882 25.7276ZM18.6753 19.1691H20.7607C22.0468 19.1691 22.8973 19.3689 23.461 19.9326C24.0041 20.4654 24.2808 21.3057 24.2808 22.5252C24.2808 23.7549 24.0143 24.6055 23.461 25.1794C22.9537 25.6917 22.1749 25.9428 20.9657 25.9428H18.6702V19.1691H18.6753ZM20.8734 24.8104C21.5651 24.8104 22.0622 24.6004 22.3286 24.2058C22.595 23.8113 22.6873 23.3553 22.6873 22.5252C22.6873 21.5568 22.5387 21.1008 22.2108 20.7421C21.9033 20.4142 21.4473 20.2964 20.6941 20.2964H20.2176V24.8104H20.8734Z" fill="#86888C"/>
</svg>
