<svg width="24" height="24" viewBox="0 0 24 24" fill="none" xmlns="http://www.w3.org/2000/svg">
<path fill-rule="evenodd" clip-rule="evenodd" d="M21.1577 20.8779V8.80617H18.5509C17.5549 8.80617 16.6955 8.4846 16.0694 7.87561C15.4377 7.26377 15.1019 6.42712 15.1019 5.45387V2.94391H8.10985C7.92203 2.94391 7.69721 3.15165 7.69721 3.32808V8.93708H14.51C15.7792 8.93708 16.8122 9.97009 16.8122 11.2421V15.488C16.8122 16.7601 15.7792 17.7931 14.51 17.7931H7.73705L7.70006 20.8836C7.70006 21.0686 7.9078 21.2621 8.11269 21.2621H20.7479C20.9585 21.2621 21.1577 21.0742 21.1577 20.8779ZM4.29937 16.9507H14.5128C15.3182 16.9507 15.9755 16.2934 15.9755 15.4852V11.2393C15.9755 10.4311 15.321 9.77373 14.5128 9.77373H4.29937C3.49402 9.77373 2.83665 10.4311 2.83665 11.2393V15.4852C2.83665 16.2934 3.49118 16.9507 4.29937 16.9507ZM15.9414 3.12604V5.45102C15.9414 6.19092 16.1861 6.81983 16.6528 7.26946C17.1224 7.72194 17.7769 7.96383 18.5509 7.96383H20.9385L15.9414 3.12604ZM21.963 7.9496C21.9829 8.00082 21.9972 8.05489 21.9972 8.11465V20.8779C21.9972 21.5409 21.4252 22.1016 20.7479 22.1016H8.11269C7.44678 22.1016 6.8634 21.5296 6.8634 20.8779L6.9004 17.7931H4.30222C3.03301 17.7931 2 16.7601 2 15.488V11.2421C2 9.97009 3.03301 8.93708 4.30222 8.93708H6.8634V3.32524C6.8634 2.68494 7.45817 2.10156 8.11269 2.10156H15.8048C15.9869 2.10156 16.1605 2.17271 16.2943 2.29792L21.7894 7.61665C21.8805 7.71056 21.9345 7.82723 21.963 7.9496Z" fill="#86888C"/>
<path d="M4.32812 11.555H5.61156C6.19494 11.555 6.56774 11.6376 6.80678 11.8595C7.00883 12.0445 7.10843 12.3348 7.10843 12.7332C7.10843 13.1316 7.01452 13.4332 6.82955 13.641C6.61042 13.8857 6.27178 14.0024 5.78231 14.0024H5.18185V15.2915H4.32812V11.555ZM5.60018 13.3621C5.87337 13.3621 5.9872 13.3251 6.09819 13.2198C6.19779 13.1202 6.24617 12.9637 6.24617 12.7446C6.24617 12.5425 6.20348 12.3945 6.10388 12.3035C6.00143 12.2096 5.84207 12.1726 5.58026 12.1726H5.18185V13.3621H5.60018ZM7.70889 11.555H8.3378L10.1079 13.9455V11.555H10.8563V15.2887H10.1733L8.45732 13.0234V15.2887H7.70889V11.555ZM11.5051 13.4446C11.5051 12.275 12.1227 11.4839 13.3947 11.4839C13.7647 11.4839 14.2086 11.5607 14.4476 11.6632L14.3395 12.2864C14.072 12.2096 13.7504 12.1498 13.4545 12.1498C12.7004 12.1498 12.3902 12.5966 12.3902 13.4105C12.3902 13.8316 12.4442 14.176 12.6093 14.4036C12.7459 14.5943 12.9707 14.7053 13.3293 14.7053C13.4659 14.7053 13.6508 14.6882 13.7817 14.6683V13.8829H13.2581V13.271H14.6298V15.1777C14.2741 15.2858 13.7078 15.3683 13.298 15.3683C11.9576 15.3655 11.5051 14.6285 11.5051 13.4446Z" fill="#86888C"/>
</svg>
