<svg width="40" height="40" viewBox="0 0 40 40" fill="none" xmlns="http://www.w3.org/2000/svg">
<path fill-rule="evenodd" clip-rule="evenodd" d="M35.7609 36.7983C36.14 36.7983 36.4987 36.4601 36.4987 36.1066V14.3764H31.8053C30.012 14.3764 28.4646 13.7974 27.3373 12.7009C26.1998 11.5993 25.5952 10.0878 25.5952 8.34055V3.81622H13.006C12.6678 3.81622 12.263 4.19026 12.263 4.50793V14.6019H24.5295C26.8147 14.6019 28.6746 16.4618 28.6746 18.7522V26.3969C28.6746 28.6873 26.8147 30.5472 24.5295 30.5472H12.3348L12.2681 36.1117C12.2681 36.4447 12.6422 36.7932 13.0111 36.7932H35.7609V36.7983ZM3.51153 26.3969C3.51153 27.8521 4.69001 29.0357 6.14517 29.0357H24.5346C25.9846 29.0357 27.1682 27.8521 27.1682 26.3969V18.7522C27.1682 17.297 25.9897 16.1134 24.5346 16.1134H6.14517C4.69513 16.1134 3.51153 17.297 3.51153 18.7522V26.3969ZM36.1042 12.8598L27.1067 4.14414V8.33543C27.1067 9.66762 27.5474 10.8 28.3877 11.6096C29.2331 12.4242 30.4167 12.8598 31.8053 12.8598H36.1042ZM37.9488 12.8239C37.9897 12.9161 38.0102 13.0135 38.0102 13.1211V36.1014C38.0102 37.2953 36.9804 38.3047 35.7609 38.3047H13.0111C11.8121 38.3047 10.7566 37.2748 10.7566 36.1014L10.8232 30.5472H6.14517C3.85995 30.5472 2 28.6873 2 26.3969V18.7522C2 16.4618 3.85995 14.6019 6.14517 14.6019H10.7566V4.50793C10.7566 3.35507 11.8275 2.30469 13.0111 2.30469H26.8608C27.1887 2.30469 27.5013 2.43278 27.7421 2.65823L37.6362 12.2398C37.8002 12.3935 37.8924 12.6036 37.9488 12.8239Z" fill="#86888C"/>
<path d="M5.82733 25.6025L5.72998 24.5675C6.00154 24.6187 6.30385 24.6392 6.43194 24.6392C7.00581 24.6392 7.18515 24.4855 7.18515 23.8245V19.623H8.53784V23.8553C8.53784 24.5931 8.41487 24.9927 8.11256 25.2951C7.841 25.5564 7.4106 25.6793 6.73937 25.6793C6.44732 25.6793 6.25261 25.6588 5.82733 25.6025ZM9.7983 19.623H11.8376C12.765 19.623 13.3542 19.7511 13.7385 20.1097C14.0613 20.4069 14.215 20.8629 14.215 21.4983C14.215 22.1337 14.0664 22.6102 13.7744 22.9381C13.426 23.3275 12.888 23.512 12.1091 23.512H11.1561V25.5615H9.80342V19.623H9.7983ZM11.8171 22.4923C12.2526 22.4923 12.4319 22.4308 12.6062 22.2669C12.7599 22.1132 12.8419 21.857 12.8419 21.5137C12.8419 21.1909 12.7701 20.9603 12.6164 20.8117C12.4524 20.6631 12.2014 20.6016 11.7812 20.6016H11.1459V22.4923H11.8171ZM15.1681 19.623H19.1749L19.0724 20.6016H16.5208V22.0414H18.56V23.0559H16.5208V24.5726H19.221V25.5512H15.1681V19.623ZM19.9793 22.6255C19.9793 20.7707 20.958 19.5103 22.9819 19.5103C23.5711 19.5103 24.2731 19.6332 24.6574 19.7972L24.4832 20.7861C24.0579 20.6631 23.5455 20.5709 23.0793 20.5709C21.8803 20.5709 21.3884 21.2831 21.3884 22.5743C21.3884 23.2404 21.4755 23.7886 21.7368 24.1524C21.952 24.4547 22.3107 24.629 22.8845 24.629C23.0997 24.629 23.3969 24.6033 23.607 24.5675V23.3173H22.7718V22.3437H24.9494V25.3719C24.3858 25.5461 23.484 25.6742 22.8333 25.6742C20.7018 25.6793 19.9793 24.506 19.9793 22.6255Z" fill="#86888C"/>
</svg>
