<svg width="20" height="20" viewBox="0 0 20 20" fill="none" xmlns="http://www.w3.org/2000/svg">
<path fill-rule="evenodd" clip-rule="evenodd" d="M17.0027 17.4321C17.1712 17.4321 17.3306 17.2819 17.3306 17.1248V7.46829H15.2449C14.448 7.46829 13.7604 7.211 13.2594 6.72373C12.7539 6.23419 12.4853 5.5625 12.4853 4.78607V2.77781H6.89085C6.74285 2.77781 6.56069 2.9463 6.56069 3.0852V7.57303H12.0117C13.0272 7.57303 13.8537 8.39956 13.8537 9.41734V12.8145C13.8537 13.8323 13.0272 14.6588 12.0117 14.6588H6.59257L6.56297 17.1316C6.56297 17.2773 6.73146 17.4344 6.89313 17.4344H17.0027V17.4321ZM2.67169 12.81C2.67169 13.4566 3.19539 13.9826 3.84204 13.9826H12.0139C12.6583 13.9826 13.1843 13.4566 13.1843 12.81V9.41279C13.1843 8.76614 12.6606 8.24017 12.0139 8.24017H3.84204C3.19767 8.24017 2.67169 8.76614 2.67169 9.41279V12.81ZM17.1553 6.79432L13.157 2.92126V4.78151C13.157 5.37351 13.3528 5.87672 13.7262 6.23647C14.1019 6.5985 14.6256 6.79204 15.2449 6.79204H17.1553V6.79432ZM17.975 6.77838C17.9932 6.81937 18.0023 6.8649 18.0023 6.91044V17.1225C18.0023 17.653 17.5446 18.1016 17.0027 18.1016H6.89313C6.36032 18.1016 5.89128 17.6439 5.89128 17.1225L5.92088 14.6543H3.84204C2.82653 14.6543 2 13.8278 2 12.81V9.41279C2 8.395 2.82653 7.56848 3.84204 7.56848H5.89128V3.08064C5.89128 2.56833 6.36716 2.10156 6.89313 2.10156H13.0477C13.1957 2.10156 13.3346 2.15849 13.4416 2.26095L17.8383 6.51653C17.9089 6.58712 17.9499 6.68047 17.975 6.77838Z" fill="#86888C"/>
<path d="M4.09473 9.63574H5.12845C5.59978 9.63574 5.89806 9.70177 6.0916 9.88165C6.25553 10.0319 6.33295 10.2642 6.33295 10.5852C6.33295 10.9063 6.25781 11.1499 6.10753 11.3161C5.93221 11.5142 5.65898 11.6076 5.26279 11.6076H4.77781V12.6458H4.09473V9.63574ZM5.11935 11.093C5.34021 11.093 5.43129 11.0611 5.52009 10.9791C5.59978 10.8994 5.63849 10.7719 5.63849 10.5966C5.63849 10.4349 5.60433 10.3143 5.52464 10.2391C5.44039 10.164 5.31288 10.1344 5.10113 10.1344H4.78008V11.0953H5.11935V11.093ZM6.82249 9.63574H7.75148C8.32299 9.63574 8.70324 9.72454 8.9537 9.975C9.19505 10.2118 9.32028 10.5875 9.32028 11.1294C9.32028 11.6759 9.20188 12.0538 8.9537 12.3089C8.72828 12.5388 8.38219 12.6481 7.84483 12.6481H6.82249V9.63574ZM7.79929 12.1472C8.10668 12.1472 8.32754 12.0538 8.44594 11.8785C8.56434 11.7032 8.60533 11.5005 8.60533 11.1294C8.60533 10.6968 8.5393 10.4941 8.39357 10.337C8.25696 10.1913 8.05431 10.1389 7.7196 10.1389H7.50785V12.1472H7.79929ZM9.84398 9.63574H11.8295L11.7771 10.1321H10.5316V10.863H11.5175V11.3776H10.5316V12.6458H9.84398V9.63574Z" fill="#86888C"/>
</svg>
