<svg width="40" height="40" viewBox="0 0 40 40" fill="none" xmlns="http://www.w3.org/2000/svg">
<path fill-rule="evenodd" clip-rule="evenodd" d="M17.704 33.5041H3.6835C3.61053 33.5041 3.52714 33.4155 3.52193 33.379V14.3185C3.53756 14.2664 3.63659 14.1882 3.6835 14.183H11.142V16.6222C11.142 17.7584 11.5433 18.7435 12.3043 19.4628C13.0548 20.1769 14.0816 20.5521 15.2647 20.5521H17.8656V33.3738C17.8656 33.4207 17.7874 33.5093 17.704 33.5041ZM8.00953 11.014C8.00953 9.82566 8.29098 8.9344 8.84867 8.37671C9.422 7.79817 10.3602 7.50629 11.6371 7.50629L33.3819 7.49587C34.6537 7.49587 35.5866 7.78774 36.1652 8.36628C36.7229 8.92398 37.0043 9.81524 37.0043 11.0036V21.0316C37.0043 22.2304 36.7177 23.1269 36.1547 23.7002C35.5762 24.2892 34.6432 24.5863 33.3767 24.5863L19.3823 24.5915V19.5097C19.3823 19.4107 19.3614 19.3064 19.3197 19.2178C19.2728 19.0458 19.1842 18.8895 19.0591 18.7644L12.9714 12.9894C12.7682 12.7965 12.4971 12.6871 12.2157 12.6923H8.00953V11.014ZM12.6639 14.7771L17.1828 19.0615H15.2647C14.4829 19.0615 13.8262 18.8321 13.3623 18.3891C12.9089 17.9565 12.6639 17.3467 12.6639 16.6222V14.7771ZM37.8695 27.5102H19.3875V26.0821L33.3819 26.0769C35.0758 26.0769 36.3789 25.6235 37.2597 24.7322C38.1041 23.8722 38.5315 22.6265 38.5315 21.0264V10.9984C38.5315 9.40349 38.1041 8.16822 37.2545 7.31866C36.3789 6.44303 35.0758 6 33.3767 6L11.6267 6.01042C9.92757 6.01042 8.62976 6.45866 7.75413 7.32908C6.90457 8.17865 6.47717 9.41391 6.47717 11.0088V12.6871H3.6835C2.80266 12.6923 2 13.4637 2 14.3133V33.379C2 34.2442 2.78702 35 3.6835 35H17.704C18.6161 35 19.3875 34.2599 19.3875 33.379V29.0061H37.8695C38.2865 29.0113 38.6253 28.6777 38.6305 28.2608V28.2556C38.6305 27.849 38.2917 27.5155 37.8695 27.5102Z" fill="#86888C"/>
</svg>
