<svg width="24" height="24" viewBox="0 0 24 24" fill="none" xmlns="http://www.w3.org/2000/svg">
<path fill-rule="evenodd" clip-rule="evenodd" d="M11.2058 20.1231H2.98688C2.94411 20.1231 2.89522 20.0712 2.89216 20.0498V8.87635C2.90133 8.84579 2.95938 8.79996 2.98688 8.79691H7.35909V10.2268C7.35909 10.8929 7.59436 11.4703 8.04044 11.892C8.48041 12.3106 9.08232 12.5306 9.77588 12.5306H11.3005V20.0467C11.3005 20.0742 11.2547 20.1262 11.2058 20.1231ZM5.52283 6.93925C5.52283 6.24263 5.68781 5.72017 6.01474 5.39324C6.35083 5.0541 6.90079 4.883 7.64935 4.883L20.3963 4.87689C21.1418 4.87689 21.6887 5.04799 22.0279 5.38713C22.3548 5.71405 22.5198 6.23652 22.5198 6.93314V12.8116C22.5198 13.5144 22.3517 14.0399 22.0217 14.376C21.6826 14.7212 21.1357 14.8954 20.3932 14.8954L12.1896 14.8985V11.9195C12.1896 11.8614 12.1774 11.8003 12.1529 11.7484C12.1255 11.6476 12.0735 11.5559 12.0002 11.4826L8.43152 8.09723C8.31237 7.98418 8.15349 7.92002 7.9885 7.92308H5.52283V6.93925ZM8.25126 9.14522L10.9003 11.6567H9.77588C9.31758 11.6567 8.9326 11.5223 8.66068 11.2626C8.39486 11.009 8.25126 10.6515 8.25126 10.2268V9.14522ZM23.027 16.6095H12.1927V15.7723L20.3963 15.7692C21.3893 15.7692 22.1531 15.5034 22.6695 14.981C23.1645 14.4768 23.415 13.7466 23.415 12.8086V6.93009C23.415 5.99515 23.1645 5.27103 22.6664 4.77301C22.1531 4.25971 21.3893 4 20.3932 4L7.64324 4.00611C6.6472 4.00611 5.88641 4.26887 5.37311 4.77912C4.87509 5.27714 4.62455 6.00126 4.62455 6.9362V7.92002H2.98688C2.47052 7.92308 2 8.37527 2 8.87329V20.0498C2 20.557 2.46136 21 2.98688 21H11.2058C11.7405 21 12.1927 20.5661 12.1927 20.0498V17.4863H23.027C23.2714 17.4894 23.47 17.2939 23.473 17.0494V17.0464C23.473 16.8081 23.2744 16.6125 23.027 16.6095Z" fill="#86888C"/>
</svg>
