<svg width="40" height="40" viewBox="0 0 40 40" fill="none" xmlns="http://www.w3.org/2000/svg">
<path fill-rule="evenodd" clip-rule="evenodd" d="M35.9493 36.5905C36.3283 36.5905 36.6869 36.2524 36.6869 35.8989V14.1699H31.9948C30.202 14.1699 28.655 13.591 27.5281 12.4948C26.3909 11.3935 25.7865 9.88244 25.7865 8.13571V3.61266H13.2008C12.8679 3.61266 12.4581 3.99172 12.4581 4.30418V14.4004H24.7211C27.0056 14.4004 28.865 16.2598 28.865 18.5495V26.1921C28.865 28.4818 27.0056 30.3412 24.7211 30.3412H12.5298L12.4632 35.9041C12.4632 36.237 12.8372 36.5853 13.206 36.5853H35.9493V36.5905ZM3.7091 26.1921C3.7091 27.6468 4.88725 28.8301 6.342 28.8301H24.7262C26.1758 28.8301 27.3591 27.6468 27.3591 26.1921V18.5495C27.3591 17.0947 26.1809 15.9115 24.7262 15.9115H6.342C4.89237 15.9115 3.7091 17.0947 3.7091 18.5495V26.1921ZM36.2925 12.6588L27.2976 3.94561V8.13571C27.2976 9.46753 27.7381 10.5996 28.5782 11.4089C29.4234 12.2234 30.6067 12.6588 31.9948 12.6588H36.2925ZM38.1365 12.628C38.1775 12.7202 38.198 12.8227 38.198 12.9251V35.8989C38.198 37.0925 37.1684 38.1016 35.9493 38.1016H13.206C12.0073 38.1016 10.9573 37.072 10.9573 35.8989L11.0238 30.3463H6.34712C4.06254 30.3463 2.20312 28.4869 2.20312 26.1972V18.5546C2.20312 16.2649 4.06254 14.4055 6.34712 14.4055H10.9573V4.30418C10.9573 3.15165 12.0278 2.10156 13.206 2.10156H27.0517C27.3847 2.10156 27.6971 2.22962 27.9379 2.46013L37.8292 12.0338C37.988 12.1926 38.0802 12.4026 38.1365 12.628Z" fill="#86888C"/>
<path d="M6.70508 19.1182H9.07161C10.1524 19.1182 10.8337 19.2667 11.2794 19.6816C11.6533 20.0248 11.8326 20.5575 11.8326 21.2952C11.8326 22.0328 11.6635 22.586 11.3203 22.9702C10.9157 23.4261 10.2907 23.6361 9.38408 23.6361H8.27764V26.0129H6.70508V19.1182ZM9.05112 22.4528C9.55311 22.4528 9.76825 22.3811 9.96803 22.1916C10.1473 22.0123 10.2395 21.7203 10.2395 21.3157C10.2395 20.9417 10.1576 20.6702 9.97827 20.5012C9.78874 20.3322 9.49677 20.2605 9.01014 20.2605H8.27252V22.4579H9.05112V22.4528ZM12.9492 19.1182H15.3158C16.3966 19.1182 17.0779 19.2667 17.5235 19.6816C17.8975 20.0248 18.0767 20.5575 18.0767 21.2952C18.0767 22.0328 17.9077 22.586 17.5645 22.9702C17.1598 23.4261 16.5349 23.6361 15.6282 23.6361H14.5218V26.0129H12.9492V19.1182ZM15.2953 22.4528C15.7973 22.4528 16.0124 22.3811 16.2122 22.1916C16.3915 22.0123 16.4837 21.7203 16.4837 21.3157C16.4837 20.9417 16.4017 20.6702 16.2224 20.5012C16.0329 20.3322 15.7409 20.2605 15.2543 20.2605H14.5167V22.4579H15.2953V22.4528ZM20.7199 20.2553H18.5838V19.1182H24.5002L24.3772 20.2553H22.2924V26.0129H20.7199V20.2553Z" fill="#86888C"/>
</svg>
