<svg width="28" height="28" viewBox="0 0 28 28" fill="none" xmlns="http://www.w3.org/2000/svg">
<path fill-rule="evenodd" clip-rule="evenodd" d="M24.9926 24.5316V10.0489H21.8645C20.6693 10.0489 19.638 9.66306 18.8867 8.93227C18.1286 8.20148 17.7257 7.19408 17.7257 6.02618V3.01081H9.33523C9.10985 3.01081 8.84007 3.2601 8.84007 3.47183V10.2026H17.0154C18.5384 10.2026 19.778 11.4422 19.778 12.9687V18.0637C19.778 19.5902 18.5384 20.8298 17.0154 20.8298H8.88788L8.84348 24.5384C8.84348 24.7604 9.09277 24.9926 9.33864 24.9926H24.5009C24.7536 24.9926 24.9926 24.7672 24.9926 24.5316ZM4.76266 19.819H17.0188C17.9852 19.819 18.774 19.0302 18.774 18.0603V12.9653C18.774 11.9954 17.9886 11.2066 17.0188 11.2066H4.76266C3.79624 11.2066 3.0074 11.9954 3.0074 12.9653V18.0603C3.0074 19.0302 3.79283 19.819 4.76266 19.819ZM18.7331 3.22937V6.02277C18.7331 6.91064 19.0268 7.66534 19.5868 8.20489C20.1503 8.74787 20.9391 9.03813 21.8645 9.03813H24.7297L18.7331 3.22937ZM25.959 9.01764C25.9829 9.07911 26 9.14741 26 9.21571V24.5316C26 25.3273 25.3136 26 24.5009 26H9.33864C8.53956 26 7.83608 25.3136 7.83608 24.5316L7.88048 20.8298H4.76266C3.23961 20.8298 2 19.5902 2 18.0637V12.9687C2 11.4422 3.23961 10.2026 4.76266 10.2026H7.83608V3.46841C7.83608 2.70006 8.5498 2 9.33864 2H18.5692C18.7911 2 18.9994 2.08537 19.1599 2.23904L25.7541 8.62151C25.86 8.72738 25.9215 8.86739 25.959 9.01764Z" fill="#86888C"/>
<path d="M9.39704 13.1328H10.5615L12.2348 17.7703H11.1011L10.7152 16.6058H9.20922L8.85066 17.7703H7.83984L9.39704 13.1328ZM10.4625 15.8374L9.95367 14.2905H9.94001L9.45851 15.8374H10.4625ZM12.7881 13.1328H13.8467V17.7703H12.7881V13.1328Z" fill="#86888C"/>
</svg>
