<svg width="40" height="40" viewBox="0 0 40 40" fill="none" xmlns="http://www.w3.org/2000/svg">
<path fill-rule="evenodd" clip-rule="evenodd" d="M35.7558 36.8908C36.1349 36.8908 36.4936 36.5526 36.4936 36.1991V14.4638H31.8002C30.0068 14.4638 28.4594 13.8848 27.3322 12.7883C26.1947 11.6867 25.5901 10.1752 25.5901 8.42796V3.90875H13.0009C12.6627 3.90875 12.2579 4.28279 12.2579 4.60047V14.6944H24.5243C26.8096 14.6944 28.6695 16.5544 28.6695 18.8447V26.4894C28.6695 28.7798 26.8096 30.6397 24.5243 30.6397H12.3296L12.263 36.2042C12.263 36.5373 12.6371 36.8857 13.006 36.8857H35.7558V36.8908ZM3.5064 26.4894C3.5064 27.9446 4.68488 29.1282 6.14005 29.1282H24.5295C25.9795 29.1282 27.1631 27.9446 27.1631 26.4894V18.8447C27.1631 17.3895 25.9846 16.2059 24.5295 16.2059H6.14005C4.69001 16.2059 3.5064 17.3895 3.5064 18.8447V26.4894ZM36.0991 12.9472L27.1016 4.23667V8.42284C27.1016 9.75503 27.5423 10.8874 28.3826 11.697C29.228 12.5117 30.4065 12.9472 31.8002 12.9472H36.0991ZM37.9436 12.9216C37.9846 13.0138 38.0051 13.1111 38.0051 13.2187V36.1991C38.0051 37.393 36.9752 38.4023 35.7558 38.4023H13.006C11.807 38.4023 10.7566 37.3725 10.7566 36.1991L10.8232 30.6449H6.14517C3.85995 30.6449 2 28.7849 2 26.4946V18.8498C2 16.5595 3.85995 14.6995 6.14517 14.6995H10.7566V4.60559C10.7566 3.45273 11.8275 2.40234 13.006 2.40234H26.8557C27.1836 2.40234 27.4962 2.53044 27.737 2.75589L37.6311 12.3323C37.8002 12.4912 37.8924 12.7012 37.9436 12.9216Z" fill="#86888C"/>
<path d="M6.14648 19.3722H7.36083L9.49747 23.1485L11.7007 19.3722H12.8843V26.1306H11.4753V22.2365L10.0713 24.5883H8.88773L7.44281 22.1955V26.1306H6.14648V19.3722ZM14.3549 19.3722H16.6759C17.7315 19.3722 18.4027 19.5208 18.8382 19.9256C19.202 20.2638 19.3813 20.7864 19.3813 21.5089C19.3813 22.2313 19.2122 22.7745 18.8792 23.1485C18.4847 23.5943 17.8698 23.7992 16.9834 23.7992H15.8971V26.1306H14.3549V19.3722ZM16.6606 22.6412C17.1525 22.6412 17.3625 22.5695 17.5572 22.385C17.7366 22.2057 17.8237 21.9188 17.8237 21.5242C17.8237 21.1605 17.7468 20.894 17.5675 20.7249C17.3779 20.5558 17.091 20.4892 16.6196 20.4892H15.8971V22.6464H16.6606V22.6412ZM20.6162 26.1101V25.0443C21.0107 25.116 21.477 25.1622 21.9689 25.1622C22.5222 25.1622 22.8502 25.0904 23.0859 24.9367C23.3215 24.7779 23.4496 24.5217 23.4496 24.1579C23.4496 23.8043 23.3215 23.5635 23.1115 23.4149C22.8655 23.2356 22.4864 23.1792 21.7946 23.1792H21.6051V22.1903H21.8408C22.4607 22.1903 22.7784 22.1135 23.0192 21.9034C23.1781 21.7651 23.2857 21.5396 23.2857 21.2117C23.2857 20.9555 23.2139 20.7352 23.0602 20.5968C22.8604 20.4175 22.5274 20.3406 21.9945 20.3406C21.559 20.3406 21.0671 20.3816 20.6725 20.438V19.3927C21.1286 19.2954 21.7024 19.2441 22.225 19.2441C23.0756 19.2441 23.7981 19.444 24.2131 19.859C24.5 20.1459 24.6794 20.5405 24.6794 21.1041C24.6794 21.8061 24.3719 22.2979 23.7827 22.5951C24.4949 22.8513 24.9202 23.3842 24.9202 24.2655C24.9202 24.7881 24.7613 25.2441 24.4437 25.5721C23.9979 26.0383 23.2754 26.274 22.2507 26.274C21.6614 26.2689 21.0671 26.2074 20.6162 26.1101Z" fill="#86888C"/>
</svg>
