<svg width="20" height="20" viewBox="0 0 20 20" fill="none" xmlns="http://www.w3.org/2000/svg">
<path fill-rule="evenodd" clip-rule="evenodd" d="M9.03972 16.3294H2.75467C2.72196 16.3294 2.68458 16.2897 2.68224 16.2734V7.72897C2.68925 7.70561 2.73364 7.67056 2.75467 7.66822H6.09813V8.76168C6.09813 9.27103 6.27804 9.71262 6.61916 10.035C6.95561 10.3551 7.41589 10.5234 7.94626 10.5234H9.11215V16.271C9.11215 16.2921 9.0771 16.3318 9.03972 16.3294ZM4.69393 6.24766C4.69393 5.71495 4.82009 5.31542 5.07009 5.06542C5.3271 4.80607 5.74766 4.67523 6.32009 4.67523L16.0678 4.67056C16.6378 4.67056 17.0561 4.8014 17.3154 5.06075C17.5654 5.31075 17.6916 5.71028 17.6916 6.24299V10.7383C17.6916 11.2757 17.5631 11.6776 17.3107 11.9346C17.0514 12.1986 16.6332 12.3318 16.0654 12.3318L9.79206 12.3341V10.0561C9.79206 10.0117 9.78271 9.96495 9.76402 9.92523C9.74299 9.84813 9.70327 9.77804 9.6472 9.72196L6.91822 7.13318C6.8271 7.04673 6.70561 6.99766 6.57944 7H4.69393V6.24766ZM6.78037 7.93458L8.80607 9.85514H7.94626C7.59579 9.85514 7.3014 9.75234 7.09346 9.55374C6.89019 9.35981 6.78037 9.08645 6.78037 8.76168V7.93458ZM18.0794 13.6425H9.79439V13.0023L16.0678 13C16.8271 13 17.4112 12.7967 17.8061 12.3972C18.1846 12.0117 18.3762 11.4533 18.3762 10.736V6.24065C18.3762 5.5257 18.1846 4.97196 17.8037 4.59112C17.4112 4.1986 16.8271 4 16.0654 4L6.31542 4.00467C5.55374 4.00467 4.97196 4.20561 4.57944 4.59579C4.1986 4.97664 4.00701 5.53037 4.00701 6.24533V6.99766H2.75467C2.35981 7 2 7.34579 2 7.72664V16.2734C2 16.6612 2.3528 17 2.75467 17H9.03972C9.4486 17 9.79439 16.6682 9.79439 16.2734V14.3131H18.0794C18.2664 14.3154 18.4182 14.1659 18.4206 13.979V13.9766C18.4206 13.7944 18.2687 13.6449 18.0794 13.6425Z" fill="#86888C"/>
</svg>
