<svg width="28" height="28" viewBox="0 0 28 28" fill="none" xmlns="http://www.w3.org/2000/svg">
<path fill-rule="evenodd" clip-rule="evenodd" d="M5.38848 5.1203C5.03252 5.67136 4.91614 6.32852 5.06332 6.96856C5.2105 7.60518 5.60411 8.14939 6.16543 8.49851C6.73018 8.84763 7.3976 8.96058 8.04792 8.81682C8.69823 8.67307 9.25271 8.2863 9.60867 7.73525C9.96463 7.18419 10.0776 6.52703 9.93383 5.88699C9.78665 5.25036 9.39304 4.70615 8.83172 4.35704C8.42784 4.10718 7.9692 3.97712 7.50713 3.97712C7.3223 3.97712 7.13406 3.99765 6.94923 4.03873C6.29892 4.18248 5.74444 4.56925 5.38848 5.1203ZM2.53394 6.92064C2.2567 6.92064 2.03423 6.70159 2.03423 6.4312C2.03423 6.1608 2.2567 5.94175 2.53394 5.94175H4.0502C4.11865 5.47284 4.28294 5.0142 4.54649 4.60005C5.04621 3.82652 5.81974 3.28916 6.73018 3.08722C7.64062 2.88185 8.57501 3.04272 9.36566 3.53217C10.1563 4.02161 10.7039 4.78145 10.9093 5.67478C10.9298 5.76377 10.9298 5.85276 10.9435 5.94175H25.5003C25.7775 5.94175 26 6.1608 26 6.4312C26 6.70159 25.7775 6.92064 25.5003 6.92064H10.9538C10.8853 7.38955 10.7245 7.84477 10.4575 8.25892C9.96121 9.03245 9.18426 9.57324 8.27382 9.77518C8.01369 9.83336 7.75357 9.86075 7.49344 9.86075C6.8397 9.86075 6.19966 9.67934 5.63491 9.33023C4.84427 8.84078 4.29663 8.08094 4.09127 7.18761C4.07074 7.10205 4.07074 7.00963 4.05705 6.92064H2.53394ZM20.4552 16.7507C21.8311 16.7507 22.9504 15.652 22.9504 14.3C22.9504 12.948 21.8311 11.8493 20.4552 11.8493C19.0793 11.8493 17.9566 12.948 17.9566 14.3C17.9566 15.652 19.0793 16.7507 20.4552 16.7507ZM25.4695 13.8105C25.7467 13.8105 25.9692 14.0296 25.9692 14.3C25.9692 14.5704 25.7467 14.7894 25.4695 14.7894H23.8985C23.6554 16.446 22.2111 17.7295 20.4552 17.7295C18.6994 17.7295 17.255 16.446 17.012 14.7894H2.50314C2.2259 14.7894 2.00342 14.5704 2.00342 14.3C2.00342 14.0296 2.2259 13.8105 2.50314 13.8105H17.012C17.255 12.154 18.6994 10.8704 20.4552 10.8704C22.2111 10.8704 23.6554 12.154 23.8985 13.8105H25.4695ZM10.8511 24.6092C12.227 24.6092 13.3463 23.5105 13.3463 22.1585C13.3463 20.8066 12.227 19.7079 10.8511 19.7079C9.47519 19.7079 8.35254 20.8066 8.35254 22.1585C8.35596 23.5105 9.47519 24.6092 10.8511 24.6092ZM25.4661 21.6691C25.7433 21.6691 25.9658 21.8881 25.9658 22.1585C25.9658 22.4289 25.7433 22.648 25.4661 22.648H14.2944C14.0513 24.3046 12.607 25.5881 10.8511 25.5881C9.09527 25.5881 7.65088 24.3046 7.40787 22.648H2.49971C2.22248 22.648 2 22.4289 2 22.1585C2 21.8881 2.22248 21.6691 2.49971 21.6691H7.40787C7.65088 20.0125 9.09527 18.729 10.8511 18.729C12.607 18.729 14.0513 20.0125 14.2944 21.6691H25.4661Z" fill="#86888C"/>
</svg>
