<svg width="24" height="24" viewBox="0 0 24 24" fill="none" xmlns="http://www.w3.org/2000/svg">
<path fill-rule="evenodd" clip-rule="evenodd" d="M4.82373 4.76692C4.5271 5.22613 4.43012 5.77376 4.55277 6.30713C4.67541 6.83765 5.00342 7.29116 5.47119 7.58209C5.94181 7.87302 6.498 7.96715 7.03993 7.84735C7.58186 7.72756 8.04392 7.40525 8.34056 6.94604C8.63719 6.48683 8.73132 5.93919 8.61152 5.40582C8.48888 4.8753 8.16087 4.4218 7.6931 4.13087C7.35653 3.92265 6.97433 3.81427 6.58928 3.81427C6.43525 3.81427 6.27838 3.83138 6.12436 3.86561C5.58243 3.9854 5.12037 4.30771 4.82373 4.76692ZM2.44495 6.2672C2.21392 6.2672 2.02852 6.08466 2.02852 5.85933C2.02852 5.634 2.21392 5.45146 2.44495 5.45146H3.7085C3.76554 5.0607 3.90245 4.6785 4.12208 4.33338C4.53851 3.68877 5.18311 3.24096 5.94181 3.07268C6.70051 2.90154 7.47918 3.0356 8.13805 3.44347C8.79692 3.85134 9.25328 4.48454 9.42442 5.22898C9.44153 5.30314 9.44153 5.3773 9.45294 5.45146H21.5836C21.8146 5.45146 22 5.634 22 5.85933C22 6.08466 21.8146 6.2672 21.5836 6.2672H9.46149C9.40445 6.65796 9.27039 7.03731 9.04792 7.38243C8.63434 8.02704 7.98688 8.4777 7.22818 8.64598C7.01141 8.69447 6.79464 8.71729 6.57787 8.71729C6.03309 8.71729 5.49971 8.56612 5.02909 8.27519C4.37022 7.86732 3.91386 7.23412 3.74273 6.48968C3.72561 6.41837 3.72561 6.34136 3.7142 6.2672H2.44495ZM17.3793 14.4589C18.526 14.4589 19.4586 13.5433 19.4586 12.4167C19.4586 11.29 18.526 10.3744 17.3793 10.3744C16.2327 10.3744 15.2972 11.29 15.2972 12.4167C15.2972 13.5433 16.2327 14.4589 17.3793 14.4589ZM21.5579 12.0088C21.7889 12.0088 21.9743 12.1913 21.9743 12.4167C21.9743 12.642 21.7889 12.8245 21.5579 12.8245H20.2487C20.0462 14.205 18.8426 15.2746 17.3793 15.2746C15.9161 15.2746 14.7125 14.205 14.51 12.8245H2.41928C2.18825 12.8245 2.00285 12.642 2.00285 12.4167C2.00285 12.1913 2.18825 12.0088 2.41928 12.0088H14.51C14.7125 10.6283 15.9161 9.5587 17.3793 9.5587C18.8426 9.5587 20.0462 10.6283 20.2487 12.0088H21.5579ZM9.37593 21.0076C10.5225 21.0076 11.4552 20.0921 11.4552 18.9654C11.4552 17.8388 10.5225 16.9232 9.37593 16.9232C8.22932 16.9232 7.29378 17.8388 7.29378 18.9654C7.29663 20.0921 8.22932 21.0076 9.37593 21.0076ZM21.555 18.5576C21.7861 18.5576 21.9715 18.7401 21.9715 18.9654C21.9715 19.1908 21.7861 19.3733 21.555 19.3733H12.2453C12.0428 20.7538 10.8391 21.8234 9.37593 21.8234C7.91272 21.8234 6.70907 20.7538 6.50656 19.3733H2.41643C2.1854 19.3733 2 19.1908 2 18.9654C2 18.7401 2.1854 18.5576 2.41643 18.5576H6.50656C6.70907 17.1771 7.91272 16.1075 9.37593 16.1075C10.8391 16.1075 12.0428 17.1771 12.2453 18.5576H21.555Z" fill="#86888C"/>
</svg>
