<svg width="20" height="20" viewBox="0 0 20 20" fill="none" xmlns="http://www.w3.org/2000/svg">
<path fill-rule="evenodd" clip-rule="evenodd" d="M16.3389 5.78185C16.2297 5.78185 16.1295 5.72721 16.068 5.63843C15.2462 4.42731 13.8985 3.43247 12.462 2.97944C10.3198 2.29875 7.9909 2.7404 6.08089 4.19055C5.53452 4.60944 5.02913 5.08068 4.57383 5.59745C4.45545 5.73177 4.25056 5.74542 4.11624 5.62932L4.10941 5.62249C3.97282 5.49956 3.96372 5.29012 4.08437 5.15125C4.56927 4.60261 5.10426 4.09949 5.68477 3.65557C7.7678 2.07793 10.3107 1.59986 12.6578 2.34201C14.2309 2.84057 15.7061 3.93103 16.6099 5.25825C16.7123 5.41077 16.6759 5.61566 16.5256 5.72266C16.4687 5.76136 16.405 5.78185 16.3389 5.78185ZM11.5241 18C11.499 18 11.4717 17.9977 11.4467 17.9909C10.1582 17.6745 8.8355 16.9847 7.71999 16.0445C5.23857 13.9523 3.25344 9.10103 5.65063 5.95487C6.98695 4.20194 9.36137 3.36872 11.5491 3.88094C11.5582 3.88094 14.9389 4.4091 15.8745 8.33612C15.8859 8.37482 16.2274 9.61098 15.5922 10.4783C15.2166 10.9883 14.602 11.2501 13.7665 11.2592C13.7801 11.2615 13.1905 11.332 12.6419 10.8858C12.1456 10.4852 11.8496 9.80904 11.7608 8.88021C11.729 8.55239 11.5947 8.29286 11.3602 8.10847C11.0506 7.86943 10.577 7.77609 10.0899 7.86032C9.94189 7.87398 8.8742 8.0083 8.78086 9.2308C8.67159 10.6605 9.77798 13.0895 12.4939 13.7588C12.6692 13.8135 12.7671 14.0024 12.7124 14.1777C12.6623 14.3371 12.503 14.4327 12.3391 14.4054C9.25665 13.6404 8.00456 10.8335 8.12977 9.17616C8.23904 7.72146 9.40918 7.24338 10.0125 7.19558C10.6567 7.08175 11.3033 7.22062 11.7631 7.57576C12.1433 7.87171 12.3709 8.29742 12.4188 8.81191C12.4871 9.53813 12.7033 10.0708 13.0448 10.3531C13.2338 10.5148 13.4796 10.6013 13.7278 10.5899C14.3834 10.5808 14.8228 10.41 15.0686 10.0754C15.5057 9.48122 15.2462 8.51141 15.2439 8.50231C14.4062 4.99417 11.4626 4.53431 11.433 4.53203C9.45471 4.07217 7.35575 4.80522 6.17423 6.35781C4.04567 9.15112 5.91926 13.6564 8.14343 15.5345C9.18153 16.4087 10.4109 17.053 11.6015 17.3444C11.7791 17.3899 11.886 17.5675 11.8451 17.745C11.8109 17.893 11.6766 18 11.5241 18ZM12.0682 16.2789C12.0386 16.2789 12.009 16.2744 11.9794 16.2653C9.90774 15.6825 8.0296 14.1663 7.08029 12.3109C6.33586 10.854 6.21293 9.31275 6.7297 7.84894C7.27379 6.19618 9.06998 5.16036 10.8935 5.4472C12.7625 5.7386 14.2172 7.35721 14.2013 9.13291C14.2013 9.31503 14.0556 9.463 13.8735 9.46528H13.8712C13.6891 9.463 13.5434 9.31275 13.5456 9.12835C13.557 7.67592 12.3482 6.34643 10.7956 6.10512C9.2817 5.87291 7.79967 6.71295 7.35347 8.06521C6.89817 9.35601 7.00744 10.7151 7.66763 12.0036C8.53272 13.7019 10.2538 15.0906 12.1547 15.6256C12.33 15.6757 12.4324 15.8601 12.3823 16.0354C12.3459 16.1765 12.2161 16.2767 12.0682 16.2789ZM13.7255 12.9484C12.7716 12.9484 11.968 12.6843 11.326 12.1561C9.92368 11.0042 9.83262 9.03501 9.82806 8.95078C9.82123 8.76866 9.96238 8.61386 10.1445 8.60475C10.3266 8.6002 10.4769 8.74134 10.486 8.92346C10.486 8.94168 10.5725 10.6809 11.7426 11.6394C12.4529 12.2199 13.4364 12.4088 14.6566 12.1948C14.8364 12.1561 15.014 12.2722 15.0527 12.4521C15.0914 12.6319 14.9753 12.8095 14.7955 12.8482C14.7864 12.8505 14.7772 12.8505 14.7704 12.8528C14.4221 12.9142 14.0738 12.9461 13.7255 12.9484Z" fill="#86888C"/>
</svg>
