<svg width="40" height="40" viewBox="0 0 40 40" fill="none" xmlns="http://www.w3.org/2000/svg">
<path fill-rule="evenodd" clip-rule="evenodd" d="M34.7933 35.9869H28.4211V26.152L35.4849 26.1878V34.9317C35.49 35.5105 35.07 35.9869 34.7933 35.9869ZM17.0238 35.5208C18.4325 34.2453 19.2674 32.4525 19.3392 30.5521C19.4006 28.9385 18.8781 27.3967 17.9203 26.1007L26.91 26.1417V35.9818H16.4604C16.6448 35.8384 16.8343 35.6949 17.0238 35.5208ZM10.2009 36.453C9.90376 36.4633 9.60154 36.4428 9.29932 36.3711C9.2942 36.3711 8.56682 36.243 7.91628 35.5976C7.02499 34.7063 6.97889 33.2772 7.80871 32.3295H7.81383C7.988 32.1246 8.18777 31.9454 8.39778 31.7814C9.54007 30.9209 10.1957 29.5532 10.1445 28.119C10.5338 28.3341 10.918 28.6005 11.2714 28.9078C12.7108 30.173 13.9914 33.3284 12.6289 35.1929C12.0808 35.9408 11.2253 36.3916 10.2931 36.453C10.2572 36.4479 10.2316 36.453 10.2009 36.453ZM4.00279 33.4411C0.627152 29.1332 3.62886 22.1514 7.17866 19.2368C8.45925 18.1867 9.90376 17.3569 11.461 16.7883C11.0768 18.7706 11.0409 22.4229 14.852 25.2094C15.3796 25.5834 15.8611 26.0034 16.2862 26.4644C17.3158 27.5504 17.869 29 17.8178 30.4957C17.7615 31.9863 17.1058 33.3899 15.9994 34.3939C15.4257 34.9215 14.77 35.3569 14.0631 35.6898C15.5691 33.0774 14.1195 29.3944 12.2652 27.7604C11.3944 26.9972 10.3494 26.4286 9.33518 26.1725C8.92539 26.0751 8.5156 26.3261 8.41315 26.7359C8.3773 26.8896 8.38754 27.0535 8.44901 27.202C8.45413 27.2225 9.23785 29.1947 7.47064 30.5777C7.17866 30.8031 6.9123 31.0541 6.67155 31.3256C5.75976 32.3756 5.47291 33.8304 5.91856 35.1468C5.18606 34.6909 4.54064 34.1121 4.00279 33.4411ZM6.77399 3.52647H12.6852V13.2743L6.08247 13.259V4.58167C6.08247 4.00285 6.54349 3.52647 6.77399 3.52647ZM35.4849 4.58167V13.3307L28.4211 13.3153V3.53159H34.7882C35.0238 3.52647 35.4849 4.00797 35.4849 4.58167ZM14.2014 13.2795V3.52647L26.9049 3.53159V13.3102L14.2014 13.2795ZM16.7677 24.5692C16.6858 24.5692 16.6141 24.5896 16.5475 24.6101C16.2862 24.3847 16.0147 24.1696 15.733 23.9698C11.2714 20.712 13.1718 16.1685 13.2538 15.9789C13.3716 15.7126 13.3255 15.4052 13.1411 15.185C12.9567 14.9596 12.6647 14.8623 12.383 14.9289C10.2521 15.436 8.06483 16.5475 6.21566 18.0586C6.16955 18.0996 6.12345 18.1457 6.07735 18.1867V14.7906L19.7131 14.8213V24.5845L16.7677 24.5692ZM21.2344 24.5896V14.8213L35.4849 14.8571V24.6614L21.2344 24.5896ZM34.7933 2.00512L6.77912 2C5.62146 2 4.56625 3.22937 4.56625 4.58167V19.7183C1.32892 23.5754 -0.63295 29.9937 2.8144 34.3836C4.48942 36.5196 7.13256 37.7951 9.86278 37.9641C9.93449 37.9693 10.0062 37.9898 10.0779 37.9898C10.1035 37.9898 10.1291 37.9846 10.1599 37.9846C10.2623 37.9846 10.3597 38 10.4621 38C11.1741 38 11.8861 37.9232 12.5879 37.7592C13.0233 37.6824 13.4484 37.5646 13.8582 37.416C13.9607 37.4775 14.0785 37.5083 14.1963 37.5083H34.7882C35.9664 37.5083 36.996 36.3045 36.996 34.9266V4.58167C37.0011 3.22937 35.9459 2.00512 34.7933 2.00512Z" fill="#86888C"/>
</svg>
