<svg width="24" height="24" viewBox="0 0 24 24" fill="none" xmlns="http://www.w3.org/2000/svg">
<path fill-rule="evenodd" clip-rule="evenodd" d="M18.281 19.2484C17.527 19.9313 16.6392 20.4463 15.6717 20.7622C15.7741 20.6512 15.8709 20.5374 15.9619 20.415C17.5867 18.2069 16.255 14.8178 14.5847 13.3581C13.8335 12.7036 12.94 12.2227 12.0692 12.0008C11.981 11.7873 11.7363 11.6877 11.5229 11.776C11.3095 11.8642 11.2099 12.1089 11.2981 12.3223C11.3493 12.4418 11.4517 12.5329 11.5769 12.5642C11.5855 12.5841 12.3566 14.5162 10.6208 15.8679C10.3733 16.0557 10.1456 16.2691 9.94076 16.5024C8.99319 17.578 8.87653 19.1516 9.65051 20.3553C8.67734 19.8829 7.81514 19.2142 7.14928 18.3719C4.03056 14.4223 6.77651 8.04545 10.0404 5.39056C11.3521 4.32064 12.8745 3.49828 14.394 3.02592C13.9985 4.56251 13.6144 8.07106 17.2282 10.6861C17.7148 11.0304 18.1615 11.4146 18.5542 11.8329C19.5359 12.8715 20.0481 14.2117 19.9969 15.6032C19.9428 16.9918 19.3339 18.2866 18.281 19.2484ZM12.0607 21.0695C12.055 21.0695 11.3294 20.9443 10.6806 20.3126C9.78425 19.4276 9.73588 17.9963 10.5725 17.0516C10.7404 16.8638 10.9253 16.6874 11.133 16.5309C12.4932 15.4723 12.7009 14.0552 12.5615 13.0508C13.0965 13.2869 13.5944 13.6028 14.0355 13.9869C15.4327 15.2048 16.6136 18.1215 15.2904 19.9199C14.7583 20.6398 13.9188 21.078 13.0282 21.1435C12.94 21.1406 12.8517 21.1492 12.7635 21.1463C12.7351 21.1463 12.7066 21.1463 12.6782 21.1435C12.4733 21.1321 12.2713 21.0951 12.0692 21.0695H12.0607ZM19.1603 11.2609C18.7193 10.7971 18.2355 10.3788 17.7148 10.0089C13.5404 6.98407 15.3302 2.76697 15.407 2.5877C15.4725 2.44258 15.4469 2.27469 15.3473 2.15233C15.2477 2.02713 15.0855 1.97306 14.9318 2.0129C13.0566 2.45681 11.1302 3.42429 9.51108 4.74178C4.15577 9.09831 4.14723 15.9162 6.49481 18.8898C7.8692 20.6284 9.99767 21.7183 12.24 21.9516C12.4278 21.9801 12.6127 21.9972 12.8005 21.9972C12.8461 21.9972 13.0737 22 13.1448 22C13.768 22 14.3969 21.9317 15.0115 21.7923C15.094 21.7809 17.0546 21.4963 18.8416 19.8658C20.0624 18.7504 20.7681 17.2479 20.8278 15.6374C20.8904 14.0183 20.2957 12.4646 19.1603 11.2609Z" fill="#86888C"/>
</svg>
