<svg width="40" height="40" viewBox="0 0 40 40" fill="none" xmlns="http://www.w3.org/2000/svg">
<path fill-rule="evenodd" clip-rule="evenodd" d="M30.9059 33.047C29.5486 34.2763 27.9505 35.2034 26.209 35.7719C26.3934 35.5722 26.5676 35.3673 26.7315 35.1471C29.6561 31.1724 27.259 25.0721 24.2524 22.4446C22.9002 21.2665 21.2919 20.4009 19.7246 20.0014C19.5658 19.6172 19.1253 19.438 18.7412 19.5967C18.357 19.7555 18.1778 20.196 18.3365 20.5802C18.4287 20.7953 18.6131 20.9592 18.8385 21.0155C18.8539 21.0514 20.2419 24.5292 17.1175 26.9621C16.6719 27.3002 16.2621 27.6843 15.8934 28.1043C14.1877 30.0404 13.9777 32.8729 15.3709 35.0395C13.6192 34.1892 12.0672 32.9856 10.8687 31.4695C5.25502 24.3602 10.1977 12.8818 16.0726 8.10301C18.4339 6.17715 21.1741 4.6969 23.9093 3.84665C23.1973 6.61252 22.5058 12.9279 29.0108 17.635C29.8866 18.2548 30.6908 18.9462 31.3976 19.6992C33.1647 21.5687 34.0866 23.9811 33.9944 26.4858C33.8971 28.9853 32.801 31.3158 30.9059 33.047ZM19.7092 36.3251C19.699 36.3251 18.3929 36.0997 17.2251 34.9627C15.6117 33.3697 15.5246 30.7934 17.0304 29.0929C17.3326 28.7548 17.6656 28.4373 18.0395 28.1556C20.4878 26.2502 20.8617 23.6994 20.6107 21.8914C21.5736 22.3165 22.47 22.885 23.2639 23.5765C25.7788 25.7687 27.9044 31.0187 25.5227 34.2558C24.5649 35.5517 23.0539 36.3405 21.4507 36.4583C21.2919 36.4532 21.1331 36.4685 20.9744 36.4634C20.9231 36.4634 20.8719 36.4634 20.8207 36.4583C20.4519 36.4378 20.0883 36.3712 19.7246 36.3251H19.7092ZM32.4886 18.6697C31.6947 17.8348 30.8239 17.0818 29.8866 16.416C22.3727 10.9713 25.5944 3.38055 25.7327 3.05786C25.8505 2.79664 25.8044 2.49445 25.6251 2.2742C25.4459 2.04883 25.1539 1.95152 24.8773 2.02322C21.5019 2.82225 18.0344 4.56372 15.1199 6.9352C5.48038 14.7769 5.46502 27.0492 9.69065 32.4017C12.1646 35.5312 15.9958 37.4929 20.0319 37.9129C20.37 37.9641 20.7029 37.9949 21.041 37.9949C21.1229 37.9949 21.5327 38 21.6607 38C22.7824 38 23.9144 37.8771 25.0207 37.6261C25.1693 37.6056 28.6983 37.0934 31.9149 34.1585C34.1122 32.1507 35.3825 29.4463 35.4901 26.5473C35.6027 23.6329 34.5322 20.8363 32.4886 18.6697Z" fill="#86888C"/>
</svg>
