<svg width="28" height="28" viewBox="0 0 28 28" fill="none" xmlns="http://www.w3.org/2000/svg">
<path fill-rule="evenodd" clip-rule="evenodd" d="M24.5289 24.6579H20.2807V18.1013L24.9899 18.1252V23.9545C24.9933 24.3404 24.7133 24.6579 24.5289 24.6579ZM12.6826 24.3472C13.6217 23.4969 14.1783 22.3017 14.2261 21.0347C14.2671 19.959 13.9188 18.9311 13.2802 18.0672L19.2733 18.0945V24.6545H12.3069C12.4299 24.5589 12.5562 24.4633 12.6826 24.3472ZM8.13391 24.9687C7.93584 24.9755 7.73436 24.9619 7.53288 24.9141C7.52947 24.9141 7.04455 24.8287 6.61085 24.3984C6.01666 23.8042 5.98593 22.8514 6.53914 22.2197H6.54256C6.65866 22.0831 6.79184 21.9636 6.93186 21.8543C7.69338 21.2806 8.13049 20.3688 8.09634 19.4126C8.35587 19.5561 8.61199 19.7336 8.84762 19.9385C9.80721 20.782 10.6609 22.8856 9.75257 24.1286C9.38718 24.6272 8.81689 24.9277 8.19537 24.9687C8.17147 24.9653 8.1544 24.9687 8.13391 24.9687ZM4.00186 22.9607C1.75143 20.0888 3.75257 15.4343 6.11911 13.4912C6.97284 12.7911 7.93584 12.2379 8.97397 11.8589C8.71785 13.1804 8.69395 15.6153 11.2346 17.473C11.5864 17.7223 11.9074 18.0023 12.1908 18.3096C12.8772 19.0336 13.246 20 13.2119 20.9972C13.1743 21.9909 12.7372 22.9266 11.9996 23.5959C11.6171 23.9476 11.18 24.2379 10.7087 24.4599C11.7127 22.7183 10.7463 20.2629 9.51011 19.1736C8.92958 18.6648 8.23294 18.2857 7.55679 18.115C7.28359 18.0501 7.0104 18.2174 6.9421 18.4906C6.9182 18.5931 6.92503 18.7023 6.96601 18.8014C6.96942 18.815 7.4919 20.1298 6.31376 21.0518C6.11911 21.202 5.94153 21.3694 5.78103 21.5504C5.17318 22.2504 4.98194 23.2203 5.27904 24.0979C4.79071 23.794 4.36043 23.4081 4.00186 22.9607ZM5.84933 3.01764H9.79014V9.51622L5.38832 9.50598V3.72112C5.38832 3.33523 5.69566 3.01764 5.84933 3.01764ZM24.9899 3.72112V9.55378L20.2807 9.54354V3.02106H24.5255C24.6826 3.01764 24.9899 3.33865 24.9899 3.72112ZM10.801 9.51964V3.01764L19.2699 3.02106V9.54013L10.801 9.51964ZM12.5118 17.0461C12.4572 17.0461 12.4094 17.0598 12.365 17.0734C12.1908 16.9232 12.0098 16.7797 11.822 16.6466C8.84762 14.4747 10.1146 11.4456 10.1692 11.3193C10.2477 11.1417 10.217 10.9368 10.0941 10.79C9.97113 10.6397 9.77648 10.5748 9.58866 10.6192C8.16805 10.9573 6.70989 11.6983 5.4771 12.7057C5.44637 12.7331 5.41564 12.7638 5.3849 12.7911V10.527L14.4754 10.5475V17.0563L12.5118 17.0461ZM15.4896 17.0598V10.5475L24.9899 10.5714V17.1076L15.4896 17.0598ZM24.5289 2.00341L5.85274 2C5.08097 2 4.3775 2.81958 4.3775 3.72112V13.8122C2.21928 16.3836 0.911367 20.6625 3.2096 23.5891C4.32628 25.0131 6.08837 25.8634 7.90852 25.9761C7.95633 25.9795 8.00414 25.9932 8.05195 25.9932C8.06902 25.9932 8.0861 25.9898 8.10659 25.9898C8.17488 25.9898 8.23977 26 8.30807 26C8.78274 26 9.25741 25.9488 9.72525 25.8395C10.0155 25.7883 10.299 25.7097 10.5722 25.6107C10.6405 25.6517 10.719 25.6722 10.7975 25.6722H24.5255C25.3109 25.6722 25.9973 24.8697 25.9973 23.9511V3.72112C26.0007 2.81958 25.2973 2.00341 24.5289 2.00341Z" fill="#86888C"/>
</svg>
