<svg width="20" height="20" viewBox="0 0 20 20" fill="none" xmlns="http://www.w3.org/2000/svg">
<path fill-rule="evenodd" clip-rule="evenodd" d="M17.0193 17.1053H14.1872V12.7342L17.3266 12.7501V16.6363C17.3289 16.8936 17.1422 17.1053 17.0193 17.1053ZM9.12171 16.8981C9.74778 16.3312 10.1189 15.5344 10.1507 14.6898C10.1781 13.9727 9.94584 13.2874 9.52012 12.7114L13.5156 12.7297V17.103H8.87128C8.95324 17.0393 9.03748 16.9755 9.12171 16.8981ZM6.08927 17.3125C5.95723 17.317 5.82291 17.3079 5.68859 17.276C5.68631 17.276 5.36303 17.2191 5.0739 16.9323C4.67777 16.5361 4.65728 15.901 5.02609 15.4798H5.02837C5.10578 15.3887 5.19456 15.3091 5.2879 15.2362C5.79559 14.8537 6.08699 14.2459 6.06423 13.6084C6.23725 13.704 6.408 13.8224 6.56508 13.959C7.20481 14.5213 7.77396 15.9237 7.16838 16.7524C6.92479 17.0848 6.54459 17.2851 6.13025 17.3125C6.11431 17.3102 6.10293 17.3125 6.08927 17.3125ZM3.33457 15.9738C1.83429 14.0592 3.16838 10.9562 4.74607 9.66079C5.31522 9.19408 5.95723 8.82527 6.64932 8.57257C6.47857 9.45361 6.46263 11.0768 8.15643 12.3153C8.39092 12.4815 8.60492 12.6682 8.79388 12.8731C9.25148 13.3557 9.49735 14 9.47459 14.6648C9.44954 15.3273 9.15814 15.9511 8.66639 16.3973C8.41141 16.6318 8.12 16.8253 7.80583 16.9733C8.47516 15.8122 7.83088 14.1753 7.00674 13.4491C6.61972 13.1098 6.15529 12.8571 5.70452 12.7433C5.52239 12.7001 5.34027 12.8116 5.29473 12.9937C5.2788 13.062 5.28335 13.1349 5.31067 13.2009C5.31295 13.21 5.66127 14.0865 4.87584 14.7012C4.74607 14.8014 4.62769 14.9129 4.52069 15.0336C4.11545 15.5003 3.98796 16.1468 4.18603 16.7319C3.86047 16.5293 3.57362 16.2721 3.33457 15.9738ZM4.56622 2.67843H7.19343V7.01081L4.25888 7.00398V3.14741C4.25888 2.89015 4.46377 2.67843 4.56622 2.67843ZM17.3266 3.14741V7.03586L14.1872 7.02903V2.68071H17.017C17.1217 2.67843 17.3266 2.89243 17.3266 3.14741ZM7.8673 7.01309V2.67843L13.5133 2.68071V7.02675L7.8673 7.01309ZM9.00788 12.0307C8.97146 12.0307 8.93958 12.0398 8.90999 12.0489C8.79388 11.9488 8.67322 11.8532 8.54801 11.7644C6.56508 10.3164 7.4097 8.2971 7.44613 8.21286C7.49849 8.09448 7.478 7.95788 7.39604 7.85999C7.31409 7.75982 7.18432 7.71656 7.05911 7.74616C6.11204 7.97154 5.13992 8.46557 4.31807 9.13717C4.29758 9.15538 4.27709 9.17587 4.2566 9.19408V7.68469L10.3169 7.69835V12.0376L9.00788 12.0307ZM10.9931 12.0398V7.69835L17.3266 7.71429V12.0717L10.9931 12.0398ZM17.0193 2.00228L4.5685 2C4.05398 2 3.585 2.54639 3.585 3.14741V9.87479C2.14619 11.5891 1.27424 14.4417 2.8064 16.3927C3.55085 17.3421 4.72558 17.9089 5.93901 17.9841C5.97089 17.9863 6.00276 17.9954 6.03463 17.9954C6.04601 17.9954 6.0574 17.9932 6.07106 17.9932C6.11659 17.9932 6.15985 18 6.20538 18C6.52183 18 6.83827 17.9659 7.15017 17.893C7.34368 17.8589 7.53264 17.8065 7.71477 17.7405C7.7603 17.7678 7.81266 17.7814 7.86502 17.7814H17.017C17.5406 17.7814 17.9982 17.2464 17.9982 16.634V3.14741C18.0005 2.54639 17.5315 2.00228 17.0193 2.00228Z" fill="#86888C"/>
</svg>
