<svg width="40" height="40" viewBox="0 0 40 40" fill="none" xmlns="http://www.w3.org/2000/svg">
<path fill-rule="evenodd" clip-rule="evenodd" d="M37.0127 34.6481V12.7997C37.0127 12.3522 36.6432 11.988 36.1906 11.988H4.37789C3.9252 11.988 3.55577 12.3522 3.55577 12.7997V34.6481C3.55577 35.0956 3.9252 35.4598 4.37789 35.4598H36.1906C36.6432 35.4598 37.0127 35.0956 37.0127 34.6481ZM13.2338 6.89919V10.4478H27.3346V6.89919C27.3346 6.80553 27.0537 6.54016 26.5125 6.54016H14.0559C13.5148 6.54016 13.2338 6.80553 13.2338 6.89919ZM36.1906 10.4478C37.5018 10.4478 38.5685 11.5041 38.5685 12.7997V34.6481C38.5685 35.9437 37.5018 37 36.1906 37H4.37789C3.06667 37 2 35.9437 2 34.6481V12.7997C2 11.5041 3.06667 10.4478 4.37789 10.4478H11.678V6.89919C11.678 5.83252 12.7239 5 14.0559 5H26.5125C27.8446 5 28.8904 5.83252 28.8904 6.89919V10.4478H36.1906ZM27.319 22.0302C27.319 22.1239 27.3502 22.1811 27.3606 22.1915L27.267 21.3798V22.1499L22.6465 22.1551C22.4384 22.1551 22.2406 22.0719 22.095 21.9314C21.9493 21.7857 21.866 21.5932 21.866 21.385V16.8218C21.8556 16.7958 21.8556 16.7802 21.8608 16.7698H18.7285L18.6868 21.385C18.6868 21.8117 18.3382 22.1551 17.9063 22.1551L13.2911 22.1603C13.2598 22.1655 13.2494 22.1655 13.239 22.1603V25.2719L17.9063 25.3031C18.3382 25.3031 18.6868 25.6465 18.6868 26.0732L18.692 30.6364C18.6972 30.6624 18.6972 30.678 18.692 30.6833H21.8348L21.866 26.068C21.866 25.865 21.9493 25.6673 22.095 25.5268C22.2406 25.3811 22.4384 25.3031 22.6465 25.3031H27.2618C27.2878 25.2927 27.3034 25.2927 27.3138 25.2979V22.0302H27.319ZM27.267 20.6098C28.1203 20.6098 28.8748 21.2758 28.8748 22.0302V25.4124C28.8748 26.1668 28.1255 26.8328 27.267 26.8328H23.4322L23.4374 30.6312C23.4374 31.4898 22.7766 32.2182 22.0013 32.2182H18.5828C17.8023 32.2182 17.1467 31.4898 17.1467 30.6312L17.1415 26.8328L13.3015 26.838C12.4325 26.838 11.6937 26.1876 11.6937 25.4176V22.0354C11.6937 21.2654 12.4273 20.615 13.3015 20.615L17.1363 20.6098V16.8114C17.1363 15.9633 17.8075 15.2244 18.5724 15.2244H21.9909C22.7558 15.2244 23.427 15.9685 23.427 16.8114V20.6046L27.267 20.6098Z" fill="#86888C"/>
</svg>
