<svg width="28" height="28" viewBox="0 0 28 28" fill="none" xmlns="http://www.w3.org/2000/svg">
<path fill-rule="evenodd" clip-rule="evenodd" d="M23.9875 13.6824C23.9157 13.8327 23.7621 13.9283 23.5947 13.9249H4.95959V3.3899C4.95959 3.15085 5.15424 2.9562 5.3967 2.9562H23.5913C23.844 2.9562 23.9567 3.14061 23.984 3.19866C24.0216 3.27037 24.0865 3.46161 23.9806 3.60845L20.1184 7.45022C19.5788 7.99319 19.5788 8.87082 20.1184 9.41379L23.9431 13.2248C24.0933 13.4195 24.0216 13.6107 23.9875 13.6824ZM20.8048 8.74447C20.634 8.57373 20.6306 8.29712 20.8013 8.12296L24.708 4.23679C25.0358 3.82017 25.0905 3.24988 24.8514 2.77521C24.6158 2.29713 24.1275 1.99661 23.5947 2.00003H5.40011C4.62834 2.00003 4 2.62154 4 3.38648V25.5219C4 25.7849 4.21514 26 4.4815 26C4.74445 26 4.963 25.7883 4.963 25.5253V14.8811H23.5947C24.1309 14.8811 24.6124 14.584 24.8514 14.1059C25.0905 13.6278 25.0358 13.0677 24.667 12.5965L20.8048 8.74447Z" fill="#86888C"/>
</svg>
