<svg width="24" height="24" viewBox="0 0 24 24" fill="none" xmlns="http://www.w3.org/2000/svg">
<path fill-rule="evenodd" clip-rule="evenodd" d="M20.8743 12.2505C20.5241 12.8824 19.8837 13.335 18.9642 13.5969C18.1017 13.8446 16.6386 13.651 14.8253 13.0561C14.8281 13.0447 14.8253 13.0305 14.8281 13.0191C14.8509 12.8397 14.8652 12.649 14.8652 12.4469C14.8652 12.2163 14.8452 12.0114 14.8168 11.815C14.8111 11.7666 14.8025 11.7153 14.794 11.6698C14.7627 11.499 14.7228 11.3396 14.6744 11.1944C14.6602 11.1574 14.646 11.1233 14.6317 11.0891C14.589 10.9838 14.5435 10.887 14.4951 10.7959C14.4638 10.7361 14.4325 10.682 14.3983 10.6308C14.367 10.5824 14.3357 10.5397 14.3015 10.4999C14.2674 10.4543 14.2361 10.4031 14.2019 10.3632C15.4145 8.95417 16.5361 8.05181 17.3844 7.80985C19.2176 7.29177 20.5071 8.02904 21.0194 9.89354C21.2728 10.8244 21.2244 11.6186 20.8743 12.2505ZM18.2782 16.3097C19.3457 17.9209 19.0667 19.4068 17.4925 20.4913C15.9241 21.5816 14.4695 21.2941 13.3992 19.6914C12.8754 18.9058 12.5851 17.3288 12.5907 15.3248C12.6306 15.3191 12.6676 15.3106 12.7075 15.302C12.7615 15.2906 12.8128 15.2821 12.864 15.2707C12.9836 15.2422 13.1003 15.2109 13.2084 15.1739C13.2426 15.1625 13.2768 15.154 13.3081 15.1398C13.4419 15.0885 13.5643 15.0288 13.6753 14.9604C13.7009 14.9462 13.7208 14.9291 13.7436 14.9149C13.8318 14.858 13.9116 14.7982 13.9856 14.7356C14.014 14.7128 14.0396 14.69 14.0653 14.6644C14.1364 14.5989 14.1991 14.5278 14.2588 14.4566C14.2731 14.4395 14.2901 14.4253 14.3015 14.4054C14.3699 14.3171 14.4296 14.2232 14.4837 14.1292C14.4979 14.1065 14.5065 14.0808 14.5207 14.0581C14.5435 14.0125 14.5691 13.9698 14.589 13.9243C16.4194 14.6701 17.7544 15.5269 18.2782 16.3097ZM10.6921 19.7085C10.1598 20.5112 9.53353 20.9866 8.83327 21.1233C8.13301 21.2514 7.38152 21.0492 6.59871 20.5027C5.81306 19.959 5.34622 19.3242 5.21243 18.6126C5.07865 17.9009 5.2836 17.1324 5.81591 16.3296C6.32829 15.5582 7.64341 14.7071 9.45382 13.9727C9.47944 14.0268 9.50791 14.0808 9.53922 14.1349C9.55061 14.152 9.55915 14.1719 9.57053 14.189C9.62462 14.2829 9.68724 14.3712 9.75841 14.4594C9.77549 14.4794 9.79257 14.4964 9.80965 14.5164C9.86942 14.5847 9.93489 14.6502 10.0061 14.7156C10.0288 14.7384 10.0545 14.7583 10.0801 14.7783C10.1655 14.8466 10.2566 14.912 10.3562 14.9718C10.3704 14.9804 10.379 14.9889 10.3932 14.9974C10.5099 15.0658 10.6408 15.1227 10.7832 15.1739C10.8088 15.1825 10.8373 15.191 10.8657 15.1995C10.9824 15.2366 11.1105 15.2707 11.2443 15.2963C11.2899 15.3049 11.3326 15.3134 11.3781 15.3191C11.4208 15.3248 11.4607 15.3362 11.5062 15.3419C11.5062 17.343 11.2159 18.9229 10.6921 19.7085ZM5.04733 13.614C3.21414 13.0931 2.48542 11.7751 2.99496 9.90777C3.25115 8.9741 3.69521 8.31939 4.31576 7.96356C4.67159 7.75861 5.08149 7.65613 5.53694 7.65613C5.87569 7.65613 6.24005 7.71307 6.62718 7.82408C7.46122 8.06319 8.6027 8.98548 9.79541 10.3718C9.77549 10.3945 9.76125 10.423 9.74133 10.4486C9.70147 10.497 9.66732 10.5539 9.63031 10.608C9.56199 10.7134 9.49652 10.8215 9.44244 10.9382C9.41112 11.0037 9.38266 11.0692 9.35704 11.1375C9.31149 11.2656 9.27164 11.4051 9.24318 11.5474C9.22894 11.6157 9.20902 11.6783 9.19763 11.7467C9.16347 11.9658 9.1407 12.1936 9.1407 12.4412C9.1407 12.6405 9.15493 12.8312 9.17771 13.0134C9.17771 13.0276 9.17771 13.0475 9.18055 13.0618C7.38152 13.6681 5.91838 13.8617 5.04733 13.614ZM12.0157 2.85397C13.9172 2.86251 14.9619 3.93567 14.9534 5.87418C14.9534 6.78224 14.3812 8.15428 13.3365 9.7569C13.3337 9.7569 13.3309 9.75406 13.328 9.75406C13.1544 9.68289 12.9636 9.6345 12.7644 9.5975C12.7245 9.58896 12.6875 9.58326 12.6477 9.57757C12.4456 9.54626 12.2349 9.52348 12.0072 9.52348C11.7738 9.52348 11.5574 9.54626 11.3525 9.58042C11.3212 9.58611 11.2927 9.5918 11.2642 9.5975C11.0507 9.63735 10.8486 9.69143 10.6693 9.76544C9.63885 8.1799 9.0553 6.77085 9.061 5.85995C9.061 3.92143 10.1114 2.85397 12.0157 2.85397ZM12.1097 14.5164C12.0784 14.5221 12.0414 14.5192 12.0072 14.5192H11.9246C10.9141 14.4964 10.3135 14.1008 10.0715 13.244C10.0118 13.0105 9.98329 12.743 9.98329 12.4441C9.98329 11.647 10.1996 11.0749 10.6266 10.7447C10.6551 10.7247 10.6864 10.7048 10.7462 10.6735C11.065 10.4742 11.492 10.3746 12.0072 10.3746C12.5281 10.3746 12.9494 10.4714 13.2597 10.665C13.2711 10.6707 13.365 10.7333 13.3736 10.7418C13.8091 11.0663 14.0311 11.6385 14.0311 12.4469C14.0311 12.7486 14.0026 13.0134 13.9429 13.2326C13.9429 13.2411 13.94 13.2496 13.94 13.2582C13.94 13.261 13.9372 13.2639 13.9372 13.2667C13.7208 14.0752 13.1572 14.4737 12.1097 14.5164ZM21.8222 9.66012C21.1845 7.34017 19.4481 6.33817 17.1595 6.98719C16.5019 7.17506 15.8188 7.62767 15.1726 8.1799C15.5341 7.38571 15.7874 6.57728 15.7874 5.87134C15.796 3.45744 14.3869 2.00854 12.0186 2H12.0157C9.64454 2 8.22695 3.44036 8.22695 5.85141C8.22411 6.57159 8.47745 7.39425 8.84181 8.19983C8.19849 7.64759 7.51531 7.19214 6.85491 7.00142C5.7362 6.67976 4.71713 6.75377 3.90586 7.21776C3.09743 7.68175 2.5025 8.53288 2.18938 9.67435C1.55459 12 2.53666 13.7791 4.81961 14.4253C5.15266 14.5221 5.5284 14.5619 5.92408 14.5619C6.12334 14.5619 6.33398 14.5363 6.53894 14.5164C5.95824 14.9092 5.44301 15.3533 5.1185 15.8429C4.46663 16.8278 4.21329 17.8355 4.38693 18.7634C4.56057 19.6914 5.1612 20.534 6.12334 21.1944C6.88622 21.7267 7.66902 22 8.41483 22C8.60555 22 8.79342 21.9829 8.97845 21.9459C9.8922 21.7694 10.7205 21.1574 11.3753 20.1753C11.6884 19.7057 11.8962 19.088 12.0414 18.4276C12.1865 19.0823 12.3943 19.6943 12.7046 20.1583C13.5102 21.3652 14.5463 21.9829 15.6707 21.9829C16.4051 21.9829 17.1794 21.7182 17.9537 21.183C19.915 19.8309 20.2907 17.8269 18.9614 15.8201V15.8173C18.6369 15.3305 18.1245 14.8893 17.5466 14.4964C17.726 14.5107 17.911 14.5363 18.0846 14.5363C18.4803 14.5363 18.8532 14.4964 19.1834 14.3997C20.305 14.0808 21.139 13.4774 21.5944 12.6519C22.0584 11.8434 22.1324 10.8044 21.8222 9.66012Z" fill="#86888C"/>
</svg>
