<svg width="20" height="20" viewBox="0 0 20 20" fill="none" xmlns="http://www.w3.org/2000/svg">
<path fill-rule="evenodd" clip-rule="evenodd" d="M10.3837 15.6161V13.6738C10.3837 13.4894 10.2334 13.3414 10.049 13.3414C9.86452 13.3414 9.71425 13.4894 9.71425 13.6738V15.6206C8.43461 15.591 4.68678 15.0924 4.39306 10.5157H6.35349C6.53793 10.5157 6.6882 10.3677 6.6882 10.1833C6.6882 9.99886 6.53793 9.85086 6.35349 9.85086H4.36801C4.42038 4.77786 8.44372 4.32247 9.71425 4.30653V6.32845C9.71425 6.51288 9.86452 6.66088 10.049 6.66088C10.2334 6.66088 10.3837 6.51288 10.3837 6.32845V4.31336C11.7362 4.36346 15.6548 4.9418 15.7276 9.84858H13.6579C13.4735 9.84858 13.3232 9.99886 13.3232 10.181C13.3232 10.3654 13.4735 10.5134 13.6579 10.5134H15.7071C15.4271 15.0719 11.6701 15.5819 10.3837 15.6161ZM17.6721 9.84858H16.3948C16.3173 4.20179 11.5244 3.68948 10.3814 3.64622V2.33243C10.3814 2.148 10.2311 2 10.0467 2C9.86225 2 9.71197 2.148 9.71197 2.33243V3.63939C8.68507 3.6485 3.75324 4.01508 3.69631 9.84858H2.33471C2.15028 9.84858 2 9.99886 2 10.181C2 10.3632 2.15028 10.5134 2.33471 10.5134H3.72136C4.03785 15.8255 8.63726 16.2581 9.70969 16.2855V17.6676C9.70969 17.852 9.85997 18 10.0444 18C10.2288 18 10.3791 17.852 10.3791 17.6676V16.2809C11.4538 16.2513 16.0692 15.805 16.3697 10.5112H17.6676C17.852 10.5112 18.0023 10.3632 18.0023 10.1787C18.0068 9.99886 17.8566 9.84858 17.6721 9.84858Z" fill="#86888C"/>
</svg>
