<svg width="40" height="40" viewBox="0 0 40 40" fill="none" xmlns="http://www.w3.org/2000/svg">
<path fill-rule="evenodd" clip-rule="evenodd" d="M20.8632 32.6361V28.2661C20.8632 27.8511 20.5251 27.5181 20.1101 27.5181C19.6952 27.5181 19.3571 27.8511 19.3571 28.2661V32.6464C16.4779 32.5798 8.04525 31.4578 7.38437 21.1604H11.7954C12.2103 21.1604 12.5485 20.8274 12.5485 20.4124C12.5485 19.9974 12.2103 19.6644 11.7954 19.6644H7.32802C7.44585 8.25018 16.4984 7.22556 19.3571 7.1897V11.739C19.3571 12.154 19.6952 12.487 20.1101 12.487C20.5251 12.487 20.8632 12.154 20.8632 11.739V7.20507C23.9064 7.31777 32.7232 8.61904 32.8872 19.6593H28.2303C27.8153 19.6593 27.4772 19.9974 27.4772 20.4073C27.4772 20.8223 27.8153 21.1553 28.2303 21.1553H32.841C32.2109 31.4117 23.7578 32.5593 20.8632 32.6361ZM37.2623 19.6593H34.3882C34.214 6.95404 23.4299 5.80134 20.8581 5.704V2.74797C20.8581 2.333 20.52 2 20.105 2C19.6901 2 19.3519 2.333 19.3519 2.74797V5.68863C17.0414 5.70912 5.94478 6.53394 5.81671 19.6593H2.7531C2.33812 19.6593 2 19.9974 2 20.4073C2 20.8171 2.33812 21.1553 2.7531 21.1553H5.87306C6.58517 33.1074 16.9338 34.0808 19.3468 34.1423V37.252C19.3468 37.667 19.6849 38 20.0999 38C20.5149 38 20.853 37.667 20.853 37.252V34.1321C23.2711 34.0655 33.6556 33.0613 34.3319 21.1501H37.252C37.667 21.1501 38.0051 20.8171 38.0051 20.4022C38.0154 19.9974 37.6772 19.6593 37.2623 19.6593Z" fill="#86888C"/>
</svg>
