<svg width="40" height="40" viewBox="0 0 40 40" fill="none" xmlns="http://www.w3.org/2000/svg">
<path fill-rule="evenodd" clip-rule="evenodd" d="M33.7177 30.8537C33.7177 31.1867 33.4462 31.4582 33.1133 31.4582H5.54468C5.21172 31.4582 4.94024 31.1867 4.92999 30.9869L7.75754 14.8463C7.75754 14.5134 8.0239 14.2419 8.36198 14.2419H35.8896C36.202 14.2419 36.4633 14.4826 36.4889 14.79L33.7177 30.8537ZM3.50598 8.18213C3.50598 7.82869 3.83381 7.53671 4.2436 7.53671H15.6818C16.0865 7.53671 16.4143 7.82356 16.4143 8.18213V10.1133C16.4143 10.5384 16.7524 10.8816 17.1673 10.8816H31.5817C31.9863 10.8816 32.3142 11.1736 32.3193 11.5834L32.4064 12.7052H8.36198C7.1992 12.7052 6.25156 13.6682 6.26181 14.7131L4.55094 24.4764L3.50598 8.18213ZM35.8845 12.7052H33.9123L33.8201 11.527C33.8201 10.3233 32.811 9.34491 31.5766 9.34491H17.9254V8.18213C17.9254 6.97837 16.9163 6 15.6818 6H4.2436C3.00398 6 2 6.97837 2 8.23335L3.43939 30.8076L3.42914 30.8537C3.42914 32.037 4.37678 33 5.54468 33H33.1133C34.276 33 35.2237 32.037 35.2134 30.9869L37.9898 14.9795C37.9949 14.9385 38 14.8924 38 14.8463C38 13.6682 37.0524 12.7052 35.8845 12.7052Z" fill="#86888C"/>
</svg>
