<svg width="40" height="40" viewBox="0 0 40 40" fill="none" xmlns="http://www.w3.org/2000/svg">
<path d="M35.6626 34.9997H4.29658C3.03269 34.9894 2.01028 33.9619 2 32.6928V7.30717C2.01028 6.033 3.03269 5.00545 4.29658 5.00032H17.665C18.2816 4.99004 18.8724 5.23151 19.3142 5.66309C19.7561 6.09466 20.0027 6.69064 20.0078 7.30717V9.13107H35.6677C36.2843 9.1208 36.8751 9.36227 37.3169 9.79384C37.7588 10.2254 38.0054 10.8214 38.0105 11.4379V32.6877C38.0054 33.3042 37.7588 33.9002 37.3169 34.3318C36.8751 34.7685 36.2791 35.01 35.6626 34.9997ZM4.29658 6.50568C3.85987 6.50568 3.50023 6.86532 3.50023 7.30717V32.6928C3.50023 33.1347 3.85473 33.4943 4.29658 33.4943H35.6677C35.8784 33.4943 36.0788 33.4121 36.2277 33.258C36.3767 33.109 36.4589 32.9035 36.4589 32.6928V11.4431C36.4589 11.2324 36.3767 11.0269 36.2277 10.8779C36.0788 10.7289 35.8784 10.6416 35.6677 10.6416H19.1601C18.744 10.6416 18.41 10.3025 18.41 9.88632V7.30717C18.41 6.88073 18.0812 6.53137 17.6599 6.50568H4.29658Z" fill="#86888C"/>
</svg>
