<svg width="24" height="24" viewBox="0 0 24 24" fill="none" xmlns="http://www.w3.org/2000/svg">
<path d="M21.0755 20.8944H3.30139C2.58519 20.8885 2.00582 20.3062 2 19.5871V5.20193C2.00582 4.4799 2.58519 3.89762 3.30139 3.89471H10.8768C11.2262 3.88889 11.561 4.02572 11.8114 4.27028C12.0618 4.51484 12.2015 4.85256 12.2044 5.20193V6.23547H21.0784C21.4277 6.22965 21.7626 6.36649 22.0129 6.61104C22.2633 6.8556 22.4031 7.19332 22.406 7.54269V19.5842C22.4031 19.9336 22.2633 20.2713 22.0129 20.5159C21.7626 20.7633 21.4248 20.9002 21.0755 20.8944ZM3.30139 4.74775C3.05393 4.74775 2.85013 4.95155 2.85013 5.20193V19.5871C2.85013 19.8375 3.05101 20.0413 3.30139 20.0413H21.0784C21.1977 20.0413 21.3113 19.9947 21.3957 19.9074C21.4802 19.823 21.5267 19.7065 21.5267 19.5871V7.5456C21.5267 7.42623 21.4802 7.30978 21.3957 7.22535C21.3113 7.14092 21.1977 7.09142 21.0784 7.09142H11.7241C11.4882 7.09142 11.299 6.89927 11.299 6.66345V5.20193C11.299 4.96028 11.1127 4.76231 10.8739 4.74775H3.30139Z" fill="#86888C"/>
</svg>
