<svg width="24" height="24" viewBox="0 0 24 24" fill="none" xmlns="http://www.w3.org/2000/svg">
<path fill-rule="evenodd" clip-rule="evenodd" d="M19.6209 18.8076C19.6209 18.9926 19.4701 19.1434 19.2851 19.1434H3.96927C3.78429 19.1434 3.63347 18.9926 3.62777 18.8816L5.19863 9.91463C5.19863 9.72965 5.34661 9.57883 5.53443 9.57883H20.8275C21.0011 9.57883 21.1463 9.71258 21.1605 9.88332L19.6209 18.8076ZM2.83665 6.21229C2.83665 6.01594 3.01878 5.85373 3.24644 5.85373H9.60102C9.82584 5.85373 10.008 6.01309 10.008 6.21229V7.28515C10.008 7.52134 10.1958 7.71201 10.4263 7.71201H18.4343C18.6591 7.71201 18.8412 7.87422 18.8441 8.10188L18.8924 8.7251H5.53443C4.88845 8.7251 4.36198 9.2601 4.36767 9.84064L3.41719 15.2647L2.83665 6.21229ZM20.8247 8.7251H19.7291L19.6779 8.07057C19.6779 7.40182 19.1172 6.85828 18.4314 6.85828H10.8475V6.21229C10.8475 5.54354 10.2869 5 9.60102 5H3.24644C2.55777 5 2 5.54354 2 6.24075L2.79966 18.782L2.79397 18.8076C2.79397 19.465 3.32043 20 3.96927 20H19.2851C19.9311 20 20.4576 19.465 20.4519 18.8816L21.9943 9.98862C21.9972 9.96585 22 9.94024 22 9.91463C22 9.2601 21.4735 8.7251 20.8247 8.7251Z" fill="#86888C"/>
</svg>
