<svg width="20" height="20" viewBox="0 0 20 20" fill="none" xmlns="http://www.w3.org/2000/svg">
<path fill-rule="evenodd" clip-rule="evenodd" d="M16.2715 15.9666C16.2715 16.1269 16.1408 16.2576 15.9805 16.2576H2.7067C2.54639 16.2576 2.41567 16.1269 2.41074 16.0307L3.77215 8.25934C3.77215 8.09903 3.9004 7.96832 4.06318 7.96832H17.3172C17.4677 7.96832 17.5934 8.08423 17.6058 8.23221L16.2715 15.9666ZM1.7251 5.05065C1.7251 4.88048 1.88294 4.7399 2.08025 4.7399H7.58755C7.78239 4.7399 7.94024 4.87801 7.94024 5.05065V5.98046C7.94024 6.18516 8.10302 6.35041 8.30279 6.35041H15.243C15.4379 6.35041 15.5957 6.49099 15.5982 6.68829L15.6401 7.22842H4.06318C3.50332 7.22842 3.04705 7.69209 3.05198 8.19522L2.22823 12.896L1.7251 5.05065ZM17.3147 7.22842H16.3652L16.3208 6.66116C16.3208 6.08158 15.8349 5.61051 15.2406 5.61051H8.66781V5.05065C8.66781 4.47107 8.18194 4 7.58755 4H2.08025C1.4834 4 1 4.47107 1 5.07532L1.69304 15.9444L1.6881 15.9666C1.6881 16.5363 2.14437 17 2.7067 17H15.9805C16.5403 17 16.9966 16.5363 16.9917 16.0307L18.3284 8.32347C18.3309 8.30374 18.3333 8.28154 18.3333 8.25934C18.3333 7.69209 17.8771 7.22842 17.3147 7.22842Z" fill="#86888C"/>
</svg>
