<svg width="20" height="20" viewBox="0 0 20 20" fill="none" xmlns="http://www.w3.org/2000/svg">
<path d="M17.7092 16.9999H3.07174C2.48192 16.9951 2.0048 16.5155 2 15.9233V4.07668C2.0048 3.48207 2.48192 3.00254 3.07174 3.00015H9.31034C9.59806 2.99535 9.87379 3.10804 10.08 3.30944C10.2862 3.51084 10.4013 3.78896 10.4037 4.07668V4.92783H17.7116C17.9993 4.92304 18.275 5.03573 18.4812 5.23713C18.6874 5.43853 18.8025 5.71665 18.8049 6.00437V15.9209C18.8025 16.2086 18.6874 16.4868 18.4812 16.6882C18.275 16.892 17.9969 17.0046 17.7092 16.9999ZM3.07174 3.70265C2.86794 3.70265 2.70011 3.87048 2.70011 4.07668V15.9233C2.70011 16.1295 2.86554 16.2973 3.07174 16.2973H17.7116C17.8099 16.2973 17.9034 16.259 17.9729 16.1871C18.0425 16.1175 18.0808 16.0216 18.0808 15.9233V6.00676C18.0808 5.90846 18.0425 5.81256 17.9729 5.74302C17.9034 5.67349 17.8099 5.63273 17.7116 5.63273H10.0081C9.81385 5.63273 9.658 5.47449 9.658 5.28028V4.07668C9.658 3.87768 9.50455 3.71464 9.30795 3.70265H3.07174Z" fill="#86888C"/>
</svg>
