<svg width="28" height="28" viewBox="0 0 28 28" fill="none" xmlns="http://www.w3.org/2000/svg">
<path fill-rule="evenodd" clip-rule="evenodd" d="M23.1451 21.5692C23.1451 21.7911 22.9641 21.9721 22.7422 21.9721H4.36312C4.14115 21.9721 3.96016 21.7911 3.95333 21.6579L5.83836 10.8976C5.83836 10.6756 6.01594 10.4946 6.24132 10.4946H24.5931C24.8014 10.4946 24.9755 10.6551 24.9926 10.86L23.1451 21.5692ZM3.00398 6.45475C3.00398 6.21912 3.22254 6.02447 3.49573 6.02447H11.1212C11.391 6.02447 11.6096 6.21571 11.6096 6.45475V7.74217C11.6096 8.02561 11.8349 8.25441 12.1116 8.25441H21.7211C21.9909 8.25441 22.2094 8.44906 22.2129 8.72225L22.2709 9.47012H6.24132C5.46614 9.47012 4.83438 10.1121 4.84121 10.8088L3.70063 17.3176L3.00398 6.45475ZM24.5896 9.47012H23.2749L23.2134 8.68469C23.2134 7.88219 22.5407 7.22994 21.7177 7.22994H12.617V6.45475C12.617 5.65225 11.9442 5 11.1212 5H3.49573C2.66932 5 2 5.65225 2 6.4889L2.95959 21.5384L2.95276 21.5692C2.95276 22.358 3.58452 23 4.36312 23H22.7422C23.5174 23 24.1491 22.358 24.1423 21.6579L25.9932 10.9863C25.9966 10.959 26 10.9283 26 10.8976C26 10.1121 25.3682 9.47012 24.5896 9.47012Z" fill="#86888C"/>
</svg>
