<svg width="28" height="28" viewBox="0 0 28 28" fill="none" xmlns="http://www.w3.org/2000/svg">
<path d="M24.4417 23.9998H3.53105C2.68846 23.9929 2.00685 23.3079 2 22.4619V5.53811C2.00685 4.68867 2.68846 4.00364 3.53105 4.00021H12.4433C12.8544 3.99336 13.2483 4.15434 13.5428 4.44206C13.8374 4.72977 14.0018 5.12709 14.0052 5.53811V6.75405H24.4452C24.8562 6.7472 25.2501 6.90818 25.5446 7.1959C25.8392 7.48361 26.0036 7.88093 26.007 8.29195V22.4585C26.0036 22.8695 25.8392 23.2668 25.5446 23.5545C25.2501 23.8457 24.8527 24.0066 24.4417 23.9998ZM3.53105 5.00379C3.23991 5.00379 3.00015 5.24355 3.00015 5.53811V22.4619C3.00015 22.7565 3.23649 22.9962 3.53105 22.9962H24.4452C24.5856 22.9962 24.7192 22.9414 24.8185 22.8387C24.9178 22.7393 24.9726 22.6023 24.9726 22.4619V8.29538C24.9726 8.15494 24.9178 8.01794 24.8185 7.91861C24.7192 7.81928 24.5856 7.76105 24.4452 7.76105H13.4401C13.1626 7.76105 12.94 7.53499 12.94 7.25755V5.53811C12.94 5.25382 12.7208 5.02091 12.4399 5.00379H3.53105Z" fill="#86888C"/>
</svg>
