<svg width="20" height="20" viewBox="0 0 20 20" fill="none" xmlns="http://www.w3.org/2000/svg">
<path d="M12.1672 8.90334C12.1421 8.90334 12.1171 8.90107 12.092 8.89651C11.7709 8.83957 11.7709 8.54349 11.7709 8.44555V7.34092H11.4543C10.8758 7.34092 10.4385 6.87402 10.4385 6.2568V3.08413C10.4385 2.48512 10.9259 2 11.5226 2H16.9159C17.5149 2 18 2.48512 18 3.08413V6.2568C18 6.8558 17.5149 7.34092 16.9159 7.34092H13.454C13.1852 7.74178 12.6659 8.52071 12.6363 8.56854C12.5726 8.6642 12.4177 8.90334 12.1672 8.90334ZM11.5226 2.45552C11.1741 2.45552 10.894 2.73794 10.894 3.08413V6.2568C10.894 6.62804 11.124 6.88541 11.4543 6.88541H11.9986C12.1239 6.88541 12.2264 6.9879 12.2264 7.11317V8.359C12.2332 8.34762 12.2423 8.33623 12.2514 8.32256C12.2947 8.25423 13.1078 7.03801 13.142 6.9879C13.1852 6.92413 13.2558 6.88541 13.331 6.88769H16.9159C17.2621 6.88769 17.5445 6.60527 17.5445 6.25907V3.08413C17.5445 2.73794 17.2621 2.45552 16.9159 2.45552H11.5226Z" fill="#86888C"/>
<path d="M12.4427 5.12019C12.6879 5.12019 12.8868 4.92135 12.8868 4.67606C12.8868 4.43078 12.6879 4.23193 12.4427 4.23193C12.1974 4.23193 11.9985 4.43078 11.9985 4.67606C11.9985 4.92135 12.1974 5.12019 12.4427 5.12019Z" fill="#86888C"/>
<path d="M12.4429 5.34817C12.0716 5.34817 11.771 5.04753 11.771 4.67628C11.771 4.30504 12.0716 4.00439 12.4429 4.00439C12.8141 4.00439 13.1148 4.30504 13.1148 4.67628C13.1148 5.04753 12.8141 5.34817 12.4429 5.34817ZM12.4429 4.45991C12.3244 4.45991 12.2265 4.55785 12.2265 4.67628C12.2265 4.79471 12.3244 4.89265 12.4429 4.89265C12.5613 4.89265 12.6593 4.79471 12.6593 4.67628C12.6593 4.55785 12.5613 4.45991 12.4429 4.45991Z" fill="#86888C"/>
<path d="M14.219 5.12019C14.4643 5.12019 14.6632 4.92135 14.6632 4.67606C14.6632 4.43078 14.4643 4.23193 14.219 4.23193C13.9737 4.23193 13.7749 4.43078 13.7749 4.67606C13.7749 4.92135 13.9737 5.12019 14.219 5.12019Z" fill="#86888C"/>
<path d="M14.2192 5.34817C13.848 5.34817 13.5474 5.04753 13.5474 4.67628C13.5474 4.30504 13.848 4.00439 14.2192 4.00439C14.5905 4.00439 14.8911 4.30504 14.8911 4.67628C14.8911 5.04753 14.5905 5.34817 14.2192 5.34817ZM14.2192 4.45991C14.1008 4.45991 14.0029 4.55785 14.0029 4.67628C14.0029 4.79471 14.1008 4.89265 14.2192 4.89265C14.3377 4.89265 14.4356 4.79471 14.4356 4.67628C14.4356 4.55785 14.3377 4.45991 14.2192 4.45991Z" fill="#86888C"/>
<path d="M15.9959 5.12019C16.2412 5.12019 16.44 4.92135 16.44 4.67606C16.44 4.43078 16.2412 4.23193 15.9959 4.23193C15.7506 4.23193 15.5518 4.43078 15.5518 4.67606C15.5518 4.92135 15.7506 5.12019 15.9959 5.12019Z" fill="#86888C"/>
<path d="M15.9957 5.34817C15.6245 5.34817 15.3238 5.04753 15.3238 4.67628C15.3238 4.30504 15.6245 4.00439 15.9957 4.00439C16.367 4.00439 16.6676 4.30504 16.6676 4.67628C16.6676 5.04753 16.367 5.34817 15.9957 5.34817ZM15.9957 4.45991C15.8773 4.45991 15.7794 4.55785 15.7794 4.67628C15.7794 4.79471 15.8773 4.89265 15.9957 4.89265C16.1142 4.89265 16.2121 4.79471 16.2121 4.67628C16.2121 4.55785 16.1142 4.45991 15.9957 4.45991ZM7.25665 12.9712C6.33424 12.9712 5.61907 12.7093 5.13167 12.1923C4.66932 11.7049 4.43701 11.0193 4.43701 10.1516C4.43701 9.28382 4.6716 8.59827 5.13167 8.10859C5.61907 7.59158 6.33424 7.32966 7.25665 7.32966C8.17907 7.32966 8.89424 7.59158 9.38164 8.10859C9.84171 8.596 10.0763 9.28382 10.0763 10.1516C10.0763 11.0193 9.84171 11.7049 9.38164 12.1946C8.89424 12.7093 8.17907 12.9712 7.25665 12.9712ZM7.25665 7.78518C5.30249 7.78518 4.89253 9.07201 4.89253 10.1516C4.89253 12.1057 6.17936 12.5157 7.25665 12.5157C9.21082 12.5157 9.62078 11.2289 9.62078 10.1516C9.62078 9.07429 9.21082 7.78518 7.25665 7.78518ZM12.2856 18.0001H2.22776C2.10249 18.0001 2 17.8976 2 17.7724V16.9251C2 15.8956 2.26648 15.103 2.79488 14.5724C3.32327 14.0417 4.10904 13.7729 5.13395 13.7729H9.37936C10.4043 13.7729 11.1923 14.0417 11.7184 14.5746C12.2446 15.1076 12.5133 15.8956 12.5133 16.9274V17.7746C12.5133 17.8976 12.4108 18.0001 12.2856 18.0001ZM2.45552 17.5446H12.0578V16.9251C12.0578 16.0186 11.8346 15.3354 11.3973 14.8935C10.96 14.4517 10.279 14.2285 9.37936 14.2285H5.13395C4.23431 14.2285 3.55559 14.4517 3.11601 14.8935C2.67644 15.3354 2.45552 16.0209 2.45552 16.9251V17.5446Z" fill="#86888C"/>
</svg>
