<svg width="24" height="24" viewBox="0 0 24 24" fill="none" xmlns="http://www.w3.org/2000/svg">
<path d="M14.7087 10.6292C14.6774 10.6292 14.6461 10.6263 14.6148 10.6206C14.2133 10.5495 14.2133 10.1794 14.2133 10.0569V8.67616H13.8176C13.0945 8.67616 12.5479 8.09253 12.5479 7.321V3.35516C12.5479 2.60641 13.1571 2 13.903 2H20.6446C21.3934 2 21.9998 2.60641 21.9998 3.35516V7.321C21.9998 8.06975 21.3934 8.67616 20.6446 8.67616H16.3172C15.9813 9.17722 15.3322 10.1509 15.2952 10.2107C15.2155 10.3302 15.0219 10.6292 14.7087 10.6292ZM13.903 2.56939C13.4674 2.56939 13.1172 2.92242 13.1172 3.35516V7.321C13.1172 7.78505 13.4048 8.10676 13.8176 8.10676H14.498C14.6546 8.10676 14.7827 8.23488 14.7827 8.39146V9.94875C14.7913 9.93452 14.8027 9.92028 14.814 9.9032C14.8681 9.81779 15.8845 8.29751 15.9272 8.23488C15.9813 8.15516 16.0696 8.10676 16.1635 8.10961H20.6446C21.0774 8.10961 21.4304 7.75658 21.4304 7.32384V3.35516C21.4304 2.92242 21.0774 2.56939 20.6446 2.56939H13.903Z" fill="#86888C"/>
<path d="M15.0532 5.90036C15.3598 5.90036 15.6084 5.65181 15.6084 5.3452C15.6084 5.03859 15.3598 4.79004 15.0532 4.79004C14.7466 4.79004 14.498 5.03859 14.498 5.3452C14.498 5.65181 14.7466 5.90036 15.0532 5.90036Z" fill="#86888C"/>
<path d="M15.0537 6.18509C14.5897 6.18509 14.2139 5.80929 14.2139 5.34523C14.2139 4.88117 14.5897 4.50537 15.0537 4.50537C15.5178 4.50537 15.8936 4.88117 15.8936 5.34523C15.8936 5.80929 15.5178 6.18509 15.0537 6.18509ZM15.0537 5.07477C14.9057 5.07477 14.7833 5.19719 14.7833 5.34523C14.7833 5.49327 14.9057 5.61569 15.0537 5.61569C15.2018 5.61569 15.3242 5.49327 15.3242 5.34523C15.3242 5.19719 15.2018 5.07477 15.0537 5.07477Z" fill="#86888C"/>
<path d="M17.2739 5.90036C17.5805 5.90036 17.8291 5.65181 17.8291 5.3452C17.8291 5.03859 17.5805 4.79004 17.2739 4.79004C16.9673 4.79004 16.7188 5.03859 16.7188 5.3452C16.7188 5.65181 16.9673 5.90036 17.2739 5.90036Z" fill="#86888C"/>
<path d="M17.2739 6.18509C16.8099 6.18509 16.4341 5.80929 16.4341 5.34523C16.4341 4.88117 16.8099 4.50537 17.2739 4.50537C17.738 4.50537 18.1138 4.88117 18.1138 5.34523C18.1138 5.80929 17.738 6.18509 17.2739 6.18509ZM17.2739 5.07477C17.1259 5.07477 17.0035 5.19719 17.0035 5.34523C17.0035 5.49327 17.1259 5.61569 17.2739 5.61569C17.422 5.61569 17.5444 5.49327 17.5444 5.34523C17.5444 5.19719 17.422 5.07477 17.2739 5.07477Z" fill="#86888C"/>
<path d="M19.4946 5.90036C19.8012 5.90036 20.0498 5.65181 20.0498 5.3452C20.0498 5.03859 19.8012 4.79004 19.4946 4.79004C19.188 4.79004 18.9395 5.03859 18.9395 5.3452C18.9395 5.65181 19.188 5.90036 19.4946 5.90036Z" fill="#86888C"/>
<path d="M19.4947 6.18509C19.0306 6.18509 18.6548 5.80929 18.6548 5.34523C18.6548 4.88117 19.0306 4.50537 19.4947 4.50537C19.9587 4.50537 20.3345 4.88117 20.3345 5.34523C20.3345 5.80929 19.9587 6.18509 19.4947 6.18509ZM19.4947 5.07477C19.3466 5.07477 19.2242 5.19719 19.2242 5.34523C19.2242 5.49327 19.3466 5.61569 19.4947 5.61569C19.6427 5.61569 19.7651 5.49327 19.7651 5.34523C19.7651 5.19719 19.6427 5.07477 19.4947 5.07477ZM8.57082 15.7139C7.41779 15.7139 6.52384 15.3865 5.91459 14.7402C5.33665 14.131 5.04626 13.2741 5.04626 12.1894C5.04626 11.1047 5.3395 10.2477 5.91459 9.63562C6.52384 8.98936 7.41779 8.66195 8.57082 8.66195C9.72384 8.66195 10.6178 8.98936 11.227 9.63562C11.8021 10.2449 12.0954 11.1047 12.0954 12.1894C12.0954 13.2741 11.8021 14.131 11.227 14.7431C10.6178 15.3865 9.72384 15.7139 8.57082 15.7139ZM8.57082 9.23135C6.12811 9.23135 5.61566 10.8399 5.61566 12.1894C5.61566 14.6321 7.2242 15.1445 8.57082 15.1445C11.0135 15.1445 11.526 13.536 11.526 12.1894C11.526 10.8427 11.0135 9.23135 8.57082 9.23135ZM14.8569 22H2.2847C2.12811 22 2 21.8719 2 21.7153V20.6563C2 19.3694 2.3331 18.3787 2.99359 17.7153C3.65409 17.052 4.6363 16.716 5.91744 16.716H11.2242C12.5053 16.716 13.4904 17.052 14.148 17.7182C14.8057 18.3844 15.1416 19.3694 15.1416 20.6591V21.7182C15.1416 21.8719 15.0135 22 14.8569 22ZM2.5694 21.4306H14.5722V20.6563C14.5722 19.5232 14.2932 18.6691 13.7466 18.1168C13.2 17.5644 12.3488 17.2854 11.2242 17.2854H5.91744C4.79288 17.2854 3.94448 17.5644 3.39502 18.1168C2.84555 18.6691 2.5694 19.526 2.5694 20.6563V21.4306Z" fill="#86888C"/>
</svg>
