<svg width="20" height="20" viewBox="0 0 20 20" fill="none" xmlns="http://www.w3.org/2000/svg">
<path fill-rule="evenodd" clip-rule="evenodd" d="M17.5265 12.5779C17.786 12.5779 17.9977 12.7896 17.9977 13.0491C17.9977 13.3086 17.786 13.5203 17.5265 13.5203H13.518V17.5288C13.518 17.7883 13.3063 18 13.0468 18C12.7873 18 12.5756 17.7883 12.5756 17.5288V13.0491C12.5756 12.7896 12.785 12.5779 13.0445 12.5779H17.5265ZM6.94864 12.5779C7.20814 12.5779 7.41983 12.7873 7.41983 13.0468V17.5265C7.41983 17.786 7.20814 17.9977 6.94864 17.9977C6.68914 17.9977 6.47745 17.786 6.47745 17.5265V13.518H2.47119C2.21169 13.518 2 13.3086 2 13.0468C2 12.785 2.21169 12.5756 2.47119 12.5756C2.47119 12.5779 6.94864 12.5779 6.94864 12.5779ZM6.94864 2C7.20814 2 7.41983 2.20942 7.41983 2.46891V6.94864C7.41528 7.20586 7.20814 7.41528 6.95092 7.41983H2.47119C2.21169 7.41983 2 7.21041 2 6.95092C2 6.69142 2.21169 6.47973 2.47119 6.47973H6.47973V2.47119C6.47973 2.20942 6.68914 2 6.94864 2ZM13.0491 7.41983C12.7896 7.41983 12.5779 7.21041 12.5779 6.95092V2.47119C12.5779 2.21169 12.7896 2 13.0491 2C13.3086 2 13.518 2.21169 13.518 2.47119V6.47973H17.5265C17.786 6.47973 17.9977 6.69142 17.9977 6.95092C17.9977 7.21041 17.786 7.42211 17.5265 7.42211H13.0491V7.41983Z" fill="#86888C"/>
</svg>
