<svg width="28" height="28" viewBox="0 0 28 28" fill="none" xmlns="http://www.w3.org/2000/svg">
<path fill-rule="evenodd" clip-rule="evenodd" d="M2.70679 10.1297C2.31754 10.1297 2 9.81562 2 9.42638V2.70679C2 2.31754 2.31754 2 2.70679 2H9.42638C9.81562 2 10.1332 2.31754 10.1332 2.70679C10.1332 3.09603 9.81562 3.41357 9.42638 3.41357H3.41357V9.42638C3.41357 9.81562 3.09603 10.1297 2.70679 10.1297ZM9.44003 24.5864C9.82928 24.5864 10.1468 24.904 10.1468 25.2932C10.1468 25.6825 9.82928 26 9.44003 26H2.70679C2.31754 25.9966 2 25.6825 2 25.2932V18.5736C2 18.1844 2.31413 17.8668 2.70337 17.8668C3.0892 17.8737 3.40333 18.1844 3.41016 18.5702V24.583C3.41357 24.5864 9.44003 24.5864 9.44003 24.5864ZM25.2898 17.8532C25.6756 17.86 25.9863 18.1741 25.9932 18.56V25.2932C25.9932 25.6825 25.679 25.9966 25.2898 25.9966H18.5565C18.1673 25.9966 17.8498 25.679 17.8498 25.2898C17.8498 24.9006 18.1673 24.583 18.5565 24.583H24.5864V18.5566C24.5864 18.1673 24.9006 17.8532 25.2898 17.8532ZM25.2898 2C25.679 2 25.9966 2.31413 25.9966 2.70337V9.45369C25.9966 9.84294 25.6825 10.1571 25.2932 10.1571C24.904 10.1571 24.5898 9.84294 24.5898 9.45369V3.41016H18.5702C18.181 3.41016 17.8634 3.09262 17.8634 2.70337C17.8634 2.31413 18.181 2 18.5702 2H25.2898Z" fill="#86888C"/>
</svg>
