<svg width="20" height="20" viewBox="0 0 20 20" fill="none" xmlns="http://www.w3.org/2000/svg">
<path fill-rule="evenodd" clip-rule="evenodd" d="M2.47119 7.41983C2.21169 7.41983 2 7.21041 2 6.95092V2.47119C2 2.21169 2.21169 2 2.47119 2H6.95092C7.21041 2 7.42211 2.21169 7.42211 2.47119C7.42211 2.73069 7.21041 2.94238 6.95092 2.94238H2.94238V6.95092C2.94238 7.21041 2.73069 7.41983 2.47119 7.41983ZM6.96002 17.0576C7.21952 17.0576 7.43121 17.2693 7.43121 17.5288C7.43121 17.7883 7.21952 18 6.96002 18H2.47119C2.21169 17.9977 2 17.7883 2 17.5288V13.0491C2 12.7896 2.20942 12.5779 2.46891 12.5779C2.72613 12.5824 2.93555 12.7896 2.94011 13.0468V17.0553C2.94238 17.0576 6.96002 17.0576 6.96002 17.0576ZM17.5265 12.5688C17.7838 12.5733 17.9909 12.7828 17.9954 13.04V17.5288C17.9954 17.7883 17.786 17.9977 17.5265 17.9977H13.0377C12.7782 17.9977 12.5665 17.786 12.5665 17.5265C12.5665 17.267 12.7782 17.0553 13.0377 17.0553H17.0576V13.0377C17.0576 12.7782 17.267 12.5688 17.5265 12.5688ZM17.5265 2C17.786 2 17.9977 2.20942 17.9977 2.46891V6.96913C17.9977 7.22862 17.7883 7.43804 17.5288 7.43804C17.2693 7.43804 17.0599 7.22862 17.0599 6.96913V2.94011H13.0468C12.7873 2.94011 12.5756 2.72841 12.5756 2.46891C12.5756 2.20942 12.7873 2 13.0468 2H17.5265Z" fill="#86888C"/>
</svg>
