<svg width="24" height="24" viewBox="0 0 24 24" fill="none" xmlns="http://www.w3.org/2000/svg">
<path fill-rule="evenodd" clip-rule="evenodd" d="M21.4082 16.2224C21.7325 16.2224 21.9972 16.487 21.9972 16.8114C21.9972 17.1357 21.7325 17.4003 21.4082 17.4003H16.3975V22.411C16.3975 22.7354 16.1329 23 15.8085 23C15.4841 23 15.2195 22.7354 15.2195 22.411V16.8114C15.2195 16.487 15.4813 16.2224 15.8057 16.2224H21.4082ZM8.1858 16.2224C8.51017 16.2224 8.77479 16.4841 8.77479 16.8085V22.4082C8.77479 22.7325 8.51017 22.9972 8.1858 22.9972C7.86143 22.9972 7.59681 22.7325 7.59681 22.4082V17.3975H2.58899C2.26462 17.3975 2 17.1357 2 16.8085C2 16.4813 2.26462 16.2195 2.58899 16.2195C2.58899 16.2224 8.1858 16.2224 8.1858 16.2224ZM8.1858 3C8.51017 3 8.77479 3.26177 8.77479 3.58614V9.1858C8.7691 9.50733 8.51017 9.7691 8.18865 9.77479H2.58899C2.26462 9.77479 2 9.51302 2 9.18865C2 8.86428 2.26462 8.59966 2.58899 8.59966H7.59966V3.58899C7.59966 3.26177 7.86143 3 8.1858 3ZM15.8114 9.77479C15.487 9.77479 15.2224 9.51302 15.2224 9.18865V3.58899C15.2224 3.26462 15.487 3 15.8114 3C16.1357 3 16.3975 3.26462 16.3975 3.58899V8.59966H21.4082C21.7325 8.59966 21.9972 8.86428 21.9972 9.18865C21.9972 9.51302 21.7325 9.77764 21.4082 9.77764H15.8114V9.77479Z" fill="#86888C"/>
</svg>
