<svg width="20" height="20" viewBox="0 0 20 20" fill="none" xmlns="http://www.w3.org/2000/svg">
<path fill-rule="evenodd" clip-rule="evenodd" d="M14.4582 16.2219C13.6568 16.7273 12.7985 17.0028 12.0563 17.1553C12.0654 17.1144 12.0699 17.0711 12.0836 17.0301L12.7643 14.9378C12.8258 14.7397 12.9556 14.5599 13.1354 14.4324C13.3107 14.3049 13.5156 14.2502 13.7365 14.2389H15.9381C16.0678 14.2389 16.1931 14.2707 16.3115 14.3185C15.8561 15.0904 15.2209 15.7438 14.4582 16.2219ZM10.417 17.3329H10.2645C10.0664 17.3329 9.85923 17.3306 9.68165 17.3261C9.42438 17.3193 9.01457 17.2942 8.52508 17.2168C8.51825 17.0711 8.49093 16.9277 8.44767 16.7888L7.76921 14.7056C7.69407 14.4688 7.56658 14.2525 7.39355 14.0727L8.01509 13.1324C8.27008 13.2895 8.56378 13.3783 8.87569 13.3783H11.0955C11.3937 13.3783 11.6783 13.2963 11.9265 13.1551L12.5048 14.0977C12.3317 14.2776 12.202 14.4961 12.1246 14.7352L11.4507 16.8207C11.4051 16.9641 11.3801 17.1144 11.3733 17.2646C10.9748 17.3124 10.6379 17.3306 10.417 17.3329ZM3.70526 14.2366C3.78495 14.2161 3.86919 14.2002 3.96936 14.2002H6.16867C6.3713 14.2184 6.58759 14.2662 6.76517 14.3937C6.94276 14.5212 7.07253 14.7033 7.13628 14.9059L7.81702 16.996C7.82612 17.021 7.82612 17.0483 7.83295 17.0757C7.13172 16.9072 6.34398 16.6317 5.60177 16.165C4.82541 15.6823 4.17654 15.0198 3.70526 14.2366ZM3.98758 5.29818C4.05815 5.39153 4.1128 5.49398 4.14922 5.60782L4.82996 7.70012C4.89599 7.89592 4.89599 8.11904 4.82996 8.32622C4.76394 8.53113 4.63416 8.71099 4.45886 8.83621L2.68074 10.1271C2.67846 10.1294 2.67619 10.1294 2.67391 10.1317C2.67391 10.0793 2.66708 10.0292 2.66708 9.97457C2.66708 7.8686 3.20438 6.36824 3.98758 5.29818ZM6.81298 3.20588C6.92682 3.38119 7.05887 3.54056 7.2319 3.6635L9.00546 4.95212C9.19899 5.09556 9.42666 5.19118 9.66799 5.24127V6.66649C9.42893 6.70747 9.20354 6.80082 9.00774 6.94425L7.2319 8.23288C7.027 8.38086 6.85624 8.57438 6.73558 8.7975L5.52891 8.23971C5.56306 7.98471 5.54257 7.72744 5.46289 7.49066L4.78443 5.40291C4.7093 5.17069 4.5818 4.95668 4.4156 4.77909C5.13277 4.00956 5.98653 3.51779 6.81298 3.20588ZM9.64522 2.67085C9.882 2.6663 10.1188 2.6663 10.3556 2.66857C10.7745 2.6754 11.5964 2.72777 12.5253 2.98276C12.4775 3.03285 12.4342 3.08521 12.3773 3.12619L10.5969 4.41937C10.2645 4.66981 9.74084 4.67209 9.39934 4.41709L7.62122 3.12392C7.56885 3.08521 7.5256 3.0374 7.48234 2.98959C8.18812 2.79379 8.91439 2.68679 9.64522 2.67085ZM15.5988 4.78137C15.4076 4.97034 15.2619 5.20256 15.1799 5.45755L14.5015 7.54075C14.4218 7.77981 14.399 8.0348 14.4332 8.28524L13.2538 8.78156C13.1354 8.56528 12.9692 8.38086 12.7712 8.23515L10.9999 6.94881C10.8041 6.80537 10.5764 6.70975 10.3373 6.66877V5.24354C10.5764 5.19573 10.8063 5.10011 10.9953 4.95668L12.7689 3.66805C12.9465 3.54283 13.0808 3.37663 13.1946 3.19905C13.6067 3.35387 14.0256 3.54966 14.4332 3.80693C14.8726 4.08014 15.2573 4.41026 15.5988 4.78137ZM7.93085 12.01L7.85572 11.78H7.85344L7.25011 9.91537C7.11123 9.49418 7.2615 9.02973 7.6235 8.77246L9.40389 7.47928C9.73401 7.22884 10.2577 7.22657 10.6014 7.48156L12.3796 8.77246C12.7416 9.032 12.8918 9.4919 12.7529 9.91537L12.0722 12.0008C11.9356 12.422 11.544 12.7089 11.1 12.7089H8.89846C8.47271 12.7339 8.07201 12.4357 7.93085 12.01ZM6.85396 13.6833C6.63085 13.5786 6.38951 13.5217 6.16412 13.5354H3.97164C3.77129 13.5399 3.57321 13.5809 3.38425 13.6515C3.01086 12.8478 2.78547 11.9166 2.70578 10.8693C2.83556 10.817 2.96078 10.7509 3.07461 10.669L4.8459 9.38034C5.03259 9.24829 5.18741 9.07071 5.3058 8.87263L6.54433 9.44409C6.52156 9.67176 6.54661 9.90399 6.61719 10.1226L7.37306 12.4471H7.39355C7.43225 12.5245 7.48689 12.586 7.5347 12.6565C7.53243 12.6565 6.85396 13.6833 6.85396 13.6833ZM13.0557 13.7175L12.4388 12.7112C12.5526 12.5632 12.6437 12.3947 12.7051 12.208L13.3836 10.1226C13.461 9.89033 13.4792 9.64899 13.4542 9.41677L14.6494 8.91361C14.7701 9.11852 14.9249 9.29838 15.1116 9.43043L16.8875 10.7191C17.0127 10.8101 17.1516 10.8784 17.2973 10.9331C17.2176 11.9849 16.9967 12.9161 16.6325 13.7175C16.4139 13.6173 16.1794 13.565 15.9403 13.565H13.741C13.5043 13.5786 13.272 13.6287 13.0557 13.7175ZM17.3269 10.2091C17.3109 10.2 17.295 10.1931 17.2813 10.1817L15.5009 8.89085C15.3256 8.76563 15.1981 8.58804 15.1321 8.38314C15.0638 8.17823 15.0638 7.95739 15.1321 7.75249L15.8106 5.66246C15.8538 5.52813 15.929 5.41202 16.02 5.30729C16.8875 6.50485 17.3337 8.07578 17.3337 10.0269C17.3337 10.0884 17.3291 10.1476 17.3269 10.2091ZM10.3669 2.0015C10.1233 1.99922 9.87972 1.99922 9.63611 2.00377C8.10844 2.03109 2 2.60483 2 9.97912C2 17.3352 8.09933 17.9545 9.66571 17.9932C9.84785 17.9977 10.0596 18 10.2645 18H10.4239C12.0312 17.9863 18.0008 17.4354 18.0008 10.0247C18.0008 2.60483 11.9743 2.02426 10.3669 2.0015Z" fill="#86888C"/>
</svg>
