<svg width="24" height="24" viewBox="0 0 24 24" fill="none" xmlns="http://www.w3.org/2000/svg">
<path fill-rule="evenodd" clip-rule="evenodd" d="M17.5728 19.7774C16.571 20.4091 15.4981 20.7535 14.5703 20.9442C14.5817 20.8929 14.5874 20.8389 14.6045 20.7876L15.4554 18.1723C15.5322 17.9247 15.6945 17.6998 15.9193 17.5405C16.1384 17.3811 16.3946 17.3128 16.6706 17.2986H19.4226C19.5848 17.2986 19.7413 17.3384 19.8893 17.3982C19.3201 18.3629 18.5261 19.1797 17.5728 19.7774ZM12.5213 21.1662H12.3306C12.083 21.1662 11.824 21.1633 11.6021 21.1576C11.2805 21.1491 10.7682 21.1178 10.1563 21.021C10.1478 20.8389 10.1137 20.6596 10.0596 20.486L9.21151 17.882C9.11759 17.586 8.95822 17.3157 8.74193 17.0908L9.51886 15.9155C9.8376 16.1118 10.2047 16.2228 10.5946 16.2228H13.3694C13.7422 16.2228 14.0979 16.1204 14.4081 15.9439L15.131 17.1221C14.9147 17.347 14.7525 17.6202 14.6557 17.919L13.8133 20.5258C13.7564 20.7051 13.7251 20.8929 13.7166 21.0808C13.2185 21.1405 12.7973 21.1633 12.5213 21.1662ZM4.13158 17.2957C4.23118 17.2701 4.33648 17.2502 4.4617 17.2502H7.21084C7.46413 17.273 7.73449 17.3327 7.95647 17.4921C8.17845 17.6515 8.34066 17.8791 8.42035 18.1324L9.27127 20.745C9.28265 20.7763 9.28265 20.8104 9.29119 20.8446C8.41466 20.634 7.42997 20.2896 6.50221 19.7062C5.53176 19.1029 4.72068 18.2747 4.13158 17.2957ZM4.48447 6.12273C4.57269 6.23941 4.64099 6.36748 4.68653 6.50977L5.53745 9.12515C5.61998 9.3699 5.61998 9.6488 5.53745 9.90778C5.45492 10.1639 5.2927 10.3887 5.07357 10.5453L2.85092 12.1589C2.84808 12.1617 2.84523 12.1617 2.84239 12.1646C2.84239 12.0991 2.83385 12.0365 2.83385 11.9682C2.83385 9.33575 3.50548 7.4603 4.48447 6.12273ZM8.01623 3.50735C8.15852 3.72648 8.32359 3.9257 8.53987 4.07938L10.7568 5.69015C10.9987 5.86945 11.2833 5.98897 11.585 6.05158V7.83312C11.2862 7.88434 11.0044 8.00102 10.7597 8.18032L8.53987 9.79109C8.28374 9.97608 8.0703 10.218 7.91947 10.4969L6.41114 9.79963C6.45383 9.48089 6.42822 9.1593 6.32861 8.86333L5.48053 6.25364C5.38662 5.96336 5.22725 5.69585 5.0195 5.47387C5.91596 4.51195 6.98317 3.89724 8.01623 3.50735ZM11.5565 2.83856C11.8525 2.83287 12.1485 2.83287 12.4444 2.83572C12.9681 2.84426 13.9955 2.90971 15.1566 3.22845C15.0968 3.29106 15.0428 3.35652 14.9716 3.40774L12.7461 5.02421C12.3306 5.33726 11.6761 5.34011 11.2492 5.02137L9.02652 3.4049C8.96107 3.35652 8.907 3.29675 8.85292 3.23699C9.73515 2.99224 10.643 2.85848 11.5565 2.83856ZM18.9986 5.47671C18.7595 5.71292 18.5774 6.0032 18.4749 6.32194L17.6268 8.92594C17.5272 9.22476 17.4988 9.5435 17.5415 9.85655L16.0673 10.477C15.9193 10.2066 15.7115 9.97608 15.4639 9.79394L13.2498 8.18601C13.0051 8.00672 12.7205 7.88719 12.4217 7.83596V6.05443C12.7205 5.99467 13.0079 5.87514 13.2441 5.69585L15.4611 4.08507C15.6831 3.92854 15.851 3.72079 15.9933 3.49881C16.5084 3.69233 17.032 3.93708 17.5415 4.25867C18.0907 4.60017 18.5717 5.01283 18.9986 5.47671ZM9.41357 14.5124L9.31965 14.225H9.3168L8.56264 11.8942C8.38904 11.3677 8.57687 10.7872 9.02937 10.4656L11.2549 8.8491C11.6675 8.53605 12.3221 8.53321 12.7518 8.85195L14.9745 10.4656C15.4269 10.79 15.6148 11.3649 15.4412 11.8942L14.5903 14.5011C14.4195 15.0275 13.93 15.3861 13.3751 15.3861H10.6231C10.0909 15.4174 9.59001 15.0446 9.41357 14.5124ZM8.06746 16.6042C7.78856 16.4733 7.48689 16.4021 7.20515 16.4192H4.46455C4.21411 16.4249 3.96652 16.4761 3.73031 16.5643C3.26358 15.5597 2.98183 14.3958 2.88223 13.0866C3.04444 13.0212 3.20097 12.9387 3.34326 12.8362L5.55737 11.2254C5.79074 11.0604 5.98426 10.8384 6.13224 10.5908L7.68041 11.3051C7.65195 11.5897 7.68326 11.88 7.77148 12.1532L8.71632 15.0589H8.74193C8.79031 15.1556 8.85862 15.2325 8.91838 15.3207C8.91553 15.3207 8.06746 16.6042 8.06746 16.6042ZM15.8197 16.6469L15.0484 15.389C15.1907 15.204 15.3046 14.9934 15.3814 14.76L16.2295 12.1532C16.3263 11.8629 16.349 11.5612 16.3177 11.271L17.8118 10.642C17.9626 10.8981 18.1562 11.123 18.3895 11.288L20.6093 12.8988C20.7659 13.0127 20.9395 13.098 21.1216 13.1663C21.022 14.4811 20.7459 15.6451 20.2906 16.6469C20.0174 16.5216 19.7243 16.4562 19.4254 16.4562H16.6763C16.3803 16.4733 16.09 16.5359 15.8197 16.6469ZM21.1586 12.2613C21.1387 12.25 21.1187 12.2414 21.1017 12.2272L18.8762 10.6136C18.657 10.457 18.4977 10.2351 18.4151 9.97892C18.3298 9.72279 18.3298 9.44674 18.4151 9.19061L19.2632 6.57807C19.3173 6.41017 19.4112 6.26503 19.525 6.13411C20.6093 7.63106 21.1671 9.59473 21.1671 12.0337C21.1671 12.1105 21.1614 12.1845 21.1586 12.2613ZM12.4587 2.00187C12.1542 1.99902 11.8497 1.99902 11.5451 2.00472C9.63555 2.03887 2 2.75603 2 11.9739C2 21.169 9.62416 21.9431 11.5821 21.9915C11.8098 21.9972 12.0745 22 12.3306 22H12.5298C14.539 21.9829 22.001 21.2942 22.001 12.0308C22.001 2.75603 14.4679 2.03033 12.4587 2.00187Z" fill="#86888C"/>
</svg>
