<svg width="28" height="28" viewBox="0 0 28 28" fill="none" xmlns="http://www.w3.org/2000/svg">
<path fill-rule="evenodd" clip-rule="evenodd" d="M20.6873 23.3328C19.4852 24.091 18.1977 24.5042 17.0844 24.733C17.0981 24.6715 17.1049 24.6066 17.1254 24.5452L18.1465 21.4067C18.2387 21.1096 18.4334 20.8398 18.7031 20.6486C18.9661 20.4573 19.2735 20.3754 19.6047 20.3583H22.9071C23.1018 20.3583 23.2896 20.4061 23.4672 20.4778C22.7842 21.6355 21.8314 22.6157 20.6873 23.3328ZM14.6255 24.9994H14.3967C14.0996 24.9994 13.7888 24.996 13.5225 24.9891C13.1366 24.9789 12.5219 24.9413 11.7876 24.8252C11.7774 24.6066 11.7364 24.3915 11.6715 24.1832L10.6538 21.0584C10.5411 20.7032 10.3499 20.3788 10.0903 20.109L11.0226 18.6986C11.4051 18.9342 11.8457 19.0674 12.3135 19.0674H15.6432C16.0906 19.0674 16.5175 18.9444 16.8897 18.7327L17.7572 20.1466C17.4976 20.4163 17.303 20.7442 17.1869 21.1028L16.176 24.231C16.1077 24.4461 16.0701 24.6715 16.0599 24.8969C15.4622 24.9686 14.9568 24.996 14.6255 24.9994ZM4.55789 20.3549C4.67742 20.3241 4.80378 20.3002 4.95404 20.3002H8.25301C8.55695 20.3276 8.88138 20.3993 9.14776 20.5905C9.41413 20.7818 9.60879 21.055 9.70442 21.3589L10.7255 24.494C10.7392 24.5315 10.7392 24.5725 10.7494 24.6135C9.69759 24.3608 8.51597 23.9475 7.40265 23.2474C6.23811 22.5235 5.26481 21.5297 4.55789 20.3549ZM4.98136 6.94728C5.08723 7.0873 5.16919 7.24097 5.22383 7.41173L6.24494 10.5502C6.34398 10.8439 6.34398 11.1786 6.24494 11.4893C6.14591 11.7967 5.95125 12.0665 5.68828 12.2543L3.02111 14.1907C3.01769 14.1941 3.01428 14.1941 3.01086 14.1975C3.01086 14.1189 3.00062 14.0438 3.00062 13.9618C3.00062 10.8029 3.80658 8.55236 4.98136 6.94728ZM9.21948 3.80882C9.39023 4.07178 9.5883 4.31084 9.84785 4.49525L12.5082 6.42818C12.7985 6.64333 13.14 6.78677 13.502 6.8619V8.99974C13.1434 9.06121 12.8053 9.20123 12.5116 9.41638L9.84785 11.3493C9.54049 11.5713 9.28436 11.8616 9.10336 12.1963L7.29337 11.3596C7.3446 10.9771 7.31386 10.5912 7.19433 10.236L6.17664 7.10437C6.06394 6.75603 5.8727 6.43502 5.6234 6.16864C6.69915 5.01434 7.9798 4.27669 9.21948 3.80882ZM13.4678 3.00628C13.823 2.99945 14.1782 2.99945 14.5333 3.00286C15.1617 3.01311 16.3946 3.09165 17.7879 3.47414C17.7162 3.54927 17.6513 3.62782 17.5659 3.68929L14.8953 5.62906C14.3967 6.00472 13.6113 6.00813 13.099 5.62564L10.4318 3.68588C10.3533 3.62782 10.2884 3.5561 10.2235 3.48439C11.2822 3.19069 12.3716 3.03018 13.4678 3.00628ZM22.3983 6.17205C22.1114 6.45551 21.8928 6.80384 21.7699 7.18633L20.7522 10.3111C20.6327 10.6697 20.5985 11.0522 20.6497 11.4279L18.8807 12.1723C18.7031 11.8479 18.4538 11.5713 18.1567 11.3527L15.4998 9.42321C15.2061 9.20806 14.8646 9.06463 14.506 9.00315V6.86531C14.8646 6.7936 15.2095 6.65017 15.493 6.43502L18.1533 4.50208C18.4197 4.31425 18.6212 4.06495 18.7919 3.79857C19.4101 4.0308 20.0384 4.3245 20.6497 4.7104C21.3089 5.12021 21.886 5.6154 22.3983 6.17205ZM10.8963 17.0149L10.7836 16.67H10.7802L9.87517 13.8731C9.66685 13.2413 9.89225 12.5446 10.4352 12.1587L13.1058 10.2189C13.601 9.84326 14.3865 9.83985 14.9022 10.2223L17.5693 12.1587C18.1123 12.548 18.3377 13.2379 18.1294 13.8731L17.1083 17.0013C16.9034 17.6331 16.316 18.0634 15.6501 18.0634H12.3477C11.7091 18.1009 11.108 17.6535 10.8963 17.0149ZM9.28095 19.525C8.94627 19.3679 8.58427 19.2825 8.24618 19.303H4.95746C4.65693 19.3099 4.35982 19.3713 4.07637 19.4772C3.51629 18.2717 3.1782 16.8749 3.05867 15.304C3.25333 15.2254 3.44116 15.1264 3.61192 15.0034L6.26885 13.0705C6.54888 12.8724 6.78111 12.6061 6.95869 12.309L8.8165 13.1661C8.78235 13.5076 8.81991 13.856 8.92578 14.1838L10.0596 17.6706H10.0903C10.1484 17.7867 10.2303 17.8789 10.3021 17.9848C10.2986 17.9848 9.28095 19.525 9.28095 19.525ZM18.5836 19.5762L17.6581 18.0668C17.8289 17.8448 17.9655 17.5921 18.0577 17.312L19.0754 14.1838C19.1915 13.8355 19.2188 13.4735 19.1813 13.1252L20.9742 12.3704C21.1552 12.6778 21.3874 12.9476 21.6674 13.1456L24.3312 15.0786C24.519 15.2152 24.7273 15.3176 24.9459 15.3996C24.8264 16.9774 24.4951 18.3741 23.9487 19.5762C23.6209 19.426 23.2691 19.3474 22.9105 19.3474H19.6116C19.2564 19.3679 18.9081 19.4431 18.5836 19.5762ZM24.9903 14.3136C24.9664 14.2999 24.9425 14.2897 24.922 14.2726L22.2514 12.3363C21.9885 12.1484 21.7972 11.8821 21.6982 11.5747C21.5957 11.2674 21.5957 10.9361 21.6982 10.6287L22.7159 7.49369C22.7808 7.2922 22.8934 7.11803 23.0301 6.96094C24.3312 8.75727 25.0006 11.1137 25.0006 14.0404C25.0006 14.1326 24.9937 14.2214 24.9903 14.3136ZM14.5504 2.00224C14.185 1.99883 13.8196 1.99883 13.4542 2.00566C11.1627 2.04664 2 2.90724 2 13.9687C2 25.0028 11.149 25.9317 13.4986 25.9898C13.7718 25.9966 14.0894 26 14.3967 26H14.6358C17.0468 25.9795 26.0012 25.1531 26.0012 14.037C26.0012 2.90724 16.9615 2.03639 14.5504 2.00224Z" fill="#86888C"/>
</svg>
