<svg width="20" height="20" viewBox="0 0 20 20" fill="none" xmlns="http://www.w3.org/2000/svg">
<path fill-rule="evenodd" clip-rule="evenodd" d="M17.2989 9.9098C17.2329 10.0669 17.0439 10.2535 16.7207 10.2535H15.7806C15.5962 10.2535 15.4482 10.4015 15.4482 10.5859V16.8299C15.4482 17.1054 15.1751 17.3307 14.8404 17.3307H14.0483V10.6564C14.0483 10.4721 13.898 10.3241 13.7159 10.3241H6.25853C6.07414 10.3241 5.92618 10.4743 5.92618 10.6564V17.3307H5.06344C4.72881 17.3307 4.45565 17.1077 4.45565 16.8322V10.5882C4.45565 10.4038 4.30541 10.2558 4.1233 10.2558H3.27422C2.95325 10.2558 2.76203 10.0691 2.69829 9.91208C2.65732 9.81647 2.6209 9.62298 2.80984 9.43859L9.53422 2.84624C9.77779 2.60722 10.2217 2.60722 10.4653 2.84624L17.1874 9.43404C17.3763 9.6207 17.3399 9.81192 17.2989 9.9098ZM6.59088 12.6642H13.3813V10.9888H6.59088V12.6642ZM6.59088 17.3285H13.3813V15.6622H6.59088V17.3285ZM6.59088 14.9975H13.3813V13.3312H6.59088V14.9975ZM17.6517 8.95828L10.9296 2.37048C10.4243 1.87651 9.57064 1.87651 9.06756 2.37048L2.34546 8.95828C2.01311 9.2838 1.91067 9.7459 2.0814 10.1625C2.27034 10.6223 2.73699 10.9205 3.27422 10.9205H3.7864V16.8322C3.7864 17.4742 4.35776 17.9977 5.06116 17.9977H6.25853C6.26308 17.9977 6.26536 17.9954 6.26991 17.9954L6.27902 17.9977H13.6795C13.6863 17.9977 13.6909 17.9954 13.6977 17.9954C13.7045 17.9954 13.7091 18 13.7159 18H14.8404C15.5438 18 16.1152 17.4764 16.1152 16.8345V10.9205H16.7207C17.2579 10.9205 17.7269 10.6223 17.9158 10.1625C18.0865 9.7459 17.9841 9.28608 17.6517 8.95828Z" fill="#86888C"/>
</svg>
