<svg width="28" height="28" viewBox="0 0 28 28" fill="none" xmlns="http://www.w3.org/2000/svg">
<path fill-rule="evenodd" clip-rule="evenodd" d="M24.9483 14.8647C24.8493 15.1003 24.5659 15.3803 24.0811 15.3803H22.6708C22.3943 15.3803 22.1723 15.6022 22.1723 15.8788V25.2449C22.1723 25.6581 21.7626 25.9961 21.2606 25.9961H20.0724V15.9847C20.0724 15.7081 19.847 15.4861 19.5739 15.4861H8.38779C8.11122 15.4861 7.88927 15.7115 7.88927 15.9847V25.9961H6.59516C6.09322 25.9961 5.68347 25.6615 5.68347 25.2483V15.8822C5.68347 15.6057 5.45811 15.3837 5.18495 15.3837H3.91132C3.42987 15.3837 3.14305 15.1037 3.04744 14.8681C2.98598 14.7247 2.93135 14.4345 3.21475 14.1579L13.3013 4.26936C13.6667 3.91083 14.3325 3.91083 14.6979 4.26936L24.781 14.1511C25.0644 14.4311 25.0098 14.7179 24.9483 14.8647ZM8.88632 18.9963H19.0719V16.4832H8.88632V18.9963ZM8.88632 25.9927H19.0719V23.4933H8.88632V25.9927ZM8.88632 22.4962H19.0719V19.9968H8.88632V22.4962ZM25.4776 13.4374L15.3944 3.55572C14.6364 2.81476 13.356 2.81476 12.6013 3.55572L2.51819 13.4374C2.01966 13.9257 1.86601 14.6189 2.1221 15.2437C2.40551 15.9335 3.10549 16.3808 3.91132 16.3808H4.6796V25.2483C4.6796 26.2112 5.53665 26.9966 6.59174 26.9966H8.38779C8.39462 26.9966 8.39804 26.9932 8.40487 26.9932L8.41853 26.9966H19.5192C19.5295 26.9966 19.5363 26.9932 19.5465 26.9932C19.5568 26.9932 19.5636 27 19.5739 27H21.2606C22.3157 27 23.1728 26.2147 23.1728 25.2518V16.3808H24.0811C24.8869 16.3808 25.5903 15.9335 25.8737 15.2437C26.1298 14.6189 25.9761 13.9291 25.4776 13.4374Z" fill="#86888C"/>
</svg>
