<svg width="28" height="28" viewBox="0 0 28 28" fill="none" xmlns="http://www.w3.org/2000/svg">
<path fill-rule="evenodd" clip-rule="evenodd" d="M23.388 19.9373H24.8562V10.0662H23.388V19.9373ZM22.2475 21.8323H20.7793V16.4067V13.5967V8.16773H22.2475V21.8323ZM8.45668 16.4033H19.5399V13.5967H8.45668V16.4033ZM7.21383 21.8323H5.74563V19.9543C5.74563 19.9475 5.74904 19.9407 5.74904 19.9338V10.0627C5.74904 10.0559 5.74563 10.0491 5.74563 10.0457V8.16773H7.21383V21.8323ZM3.14042 19.9373H4.60521V10.0662H3.14042V19.9373ZM24.8562 8.89842H23.388H23.3846V8.16773C23.3846 7.52582 22.8724 7 22.2441 7H20.7759C20.1477 7 19.6355 7.52241 19.6355 8.16773V12.4494C19.6014 12.446 19.5741 12.4289 19.5399 12.4289H8.45668C8.41912 12.4289 8.39181 12.446 8.35425 12.4494V8.16773C8.35425 7.52582 7.84208 7 7.21383 7H5.74563C5.11737 7 4.60521 7.52241 4.60521 8.16773V8.89842H3.14042C2.50875 8.89842 2 9.42083 2 10.0627V19.9373C2 20.5826 2.50875 21.1016 3.14042 21.1016H4.60521V21.8323C4.60521 22.4776 5.11737 23 5.74563 23H7.21383C7.84208 23 8.35425 22.4776 8.35425 21.8323V17.5506C8.39181 17.554 8.41912 17.5711 8.45668 17.5711H19.5399C19.5741 17.5711 19.6048 17.554 19.6355 17.5506V21.8323C19.6355 22.4776 20.1477 23 20.7759 23H22.2441C22.8724 23 23.3846 22.4776 23.3846 21.8323V21.1016H24.8562C25.4878 21.1016 25.9966 20.5792 25.9966 19.9373V10.0662C25.9966 9.42083 25.4878 8.89842 24.8562 8.89842Z" fill="#86888C"/>
</svg>
