<svg width="20" height="20" viewBox="0 0 20 20" fill="none" xmlns="http://www.w3.org/2000/svg">
<path fill-rule="evenodd" clip-rule="evenodd" d="M16.7042 13.8944H17.7136V7.10798H16.7042V13.8944ZM15.9202 15.1972H14.9108V11.4671V9.53521V5.80282H15.9202V15.1972ZM6.43897 11.4648H14.0587V9.53521H6.43897V11.4648ZM5.58451 15.1972H4.57512V13.9061C4.57512 13.9014 4.57746 13.8967 4.57746 13.892V7.10563C4.57746 7.10094 4.57512 7.09624 4.57512 7.0939V5.80282H5.58451V15.1972ZM2.78404 13.8944H3.79108V7.10798H2.78404V13.8944ZM17.7136 6.30516H16.7042H16.7019V5.80282C16.7019 5.3615 16.3498 5 15.9178 5H14.9085C14.4765 5 14.1244 5.35916 14.1244 5.80282V8.74648C14.1009 8.74413 14.0822 8.73239 14.0587 8.73239H6.43897C6.41315 8.73239 6.39437 8.74413 6.36854 8.74648V5.80282C6.36854 5.3615 6.01643 5 5.58451 5H4.57512C4.14319 5 3.79108 5.35916 3.79108 5.80282V6.30516H2.78404C2.34977 6.30516 2 6.66432 2 7.10563V13.8944C2 14.338 2.34977 14.6948 2.78404 14.6948H3.79108V15.1972C3.79108 15.6408 4.14319 16 4.57512 16H5.58451C6.01643 16 6.36854 15.6408 6.36854 15.1972V12.2535C6.39437 12.2559 6.41315 12.2676 6.43897 12.2676H14.0587C14.0822 12.2676 14.1033 12.2559 14.1244 12.2535V15.1972C14.1244 15.6408 14.4765 16 14.9085 16H15.9178C16.3498 16 16.7019 15.6408 16.7019 15.1972V14.6948H17.7136C18.1479 14.6948 18.4977 14.3357 18.4977 13.8944V7.10798C18.4977 6.66432 18.1479 6.30516 17.7136 6.30516Z" fill="#86888C"/>
</svg>
