<svg width="24" height="24" viewBox="0 0 24 24" fill="none" xmlns="http://www.w3.org/2000/svg">
<path fill-rule="evenodd" clip-rule="evenodd" d="M19.8586 18.7791C19.8586 19.5388 19.662 20.1306 19.2687 20.5346C18.8754 20.9387 18.2342 21.1635 17.4591 21.1635H9.53673C9.34295 21.1635 9.18906 20.9956 8.99242 20.5688C8.84139 20.2444 8.31418 19.1689 7.75277 18.0336C6.81805 16.1386 5.65534 13.7798 4.96569 12.3087C4.72631 11.7994 4.79471 11.3043 5.14808 11.0226C5.32761 10.8775 5.5499 10.8007 5.78358 10.8007C6.03721 10.8007 6.29084 10.8917 6.49887 11.0596C6.7639 11.2702 7.01183 11.5888 7.32531 12.1238C7.51339 12.4453 7.89526 12.6018 8.25718 12.5022C8.61625 12.4026 8.86703 12.0726 8.86703 11.697V4.20515C8.94683 2.97596 9.66782 2.83653 10.2064 2.83653C11.0842 2.83653 11.5487 3.30602 11.5487 4.19661V7.1444C11.5487 7.6025 11.9163 7.97525 12.3751 7.97809C12.4492 7.97809 12.5261 7.96671 12.5974 7.94679C12.737 7.90696 12.8966 7.88704 13.0705 7.88704C13.7088 7.88704 14.1078 8.14597 14.2531 8.65813C14.3528 9.0138 14.6777 9.26135 15.0482 9.26419C15.1365 9.26419 15.2249 9.24996 15.3104 9.22151C15.4643 9.17029 15.6438 9.14469 15.8404 9.14469C16.4816 9.14469 16.8806 9.40646 17.0259 9.92431C17.0858 10.1434 17.234 10.3284 17.4335 10.4365C17.6329 10.5446 17.8666 10.5645 18.0832 10.4934C18.2371 10.4422 18.4166 10.4166 18.6104 10.4166C19.4368 10.4166 19.8558 10.8405 19.8558 11.6771L19.8586 18.7791ZM18.6133 9.57718C18.3254 9.57718 18.0604 9.61702 17.8267 9.69669C17.5845 8.82601 16.8692 8.30815 15.8461 8.30815C15.5583 8.30815 15.2933 8.35083 15.0567 8.42766C14.8117 7.56551 14.0992 7.05335 13.079 7.05335C12.8282 7.05335 12.5945 7.08465 12.3837 7.1444V4.19377C12.3837 2.83938 11.5515 2 10.2121 2C8.92403 2 8.13464 2.78247 8.0463 4.15109V4.19377L8.04345 11.697C7.69863 11.1108 7.388 10.7011 7.01753 10.4052C6.66986 10.1235 6.23669 9.96984 5.78928 9.96699C5.37891 9.96699 4.97139 10.1007 4.63797 10.371C3.97682 10.9003 3.81438 11.8022 4.2219 12.6701C4.9144 14.1411 6.07995 16.5056 7.01468 18.4063C7.59888 19.59 8.10329 20.6115 8.24578 20.9216C8.39397 21.2431 8.74449 22 9.53958 22H17.462C18.4622 22 19.3143 21.687 19.8643 21.1208C20.4115 20.5574 20.6879 19.7692 20.6879 18.7847V11.6742C20.685 10.3796 19.8928 9.57718 18.6133 9.57718Z" fill="#86888C"/>
</svg>
