<svg width="20" height="20" viewBox="0 0 20 20" fill="none" xmlns="http://www.w3.org/2000/svg">
<path fill-rule="evenodd" clip-rule="evenodd" d="M4.75156 16.0117C4.14379 16.0117 3.67032 15.8544 3.34709 15.5398C3.02386 15.2252 2.84403 14.7122 2.84403 14.0921L2.84403 7.75421C2.84403 7.59919 2.97833 7.47608 3.31978 7.31877C3.57927 7.19794 4.43971 6.77617 5.34795 6.32705C6.86395 5.57927 8.75099 4.6491 9.92783 4.09738C10.3353 3.90588 10.7314 3.96059 10.9567 4.24329C11.0728 4.38692 11.1343 4.56475 11.1343 4.75169C11.1343 4.9546 11.0614 5.1575 10.9271 5.32393C10.7587 5.53595 10.5037 5.73429 10.0758 5.98507C9.81857 6.13554 9.69337 6.44104 9.77304 6.73057C9.85271 7.01783 10.1168 7.21846 10.4172 7.21846L16.4107 7.21846C17.394 7.28229 17.5056 7.85909 17.5056 8.28997C17.5056 8.99216 17.13 9.36377 16.4175 9.36377L14.0593 9.36377C13.6928 9.36377 13.3946 9.65786 13.3923 10.0249C13.3923 10.0842 13.4014 10.1457 13.4174 10.2027C13.4492 10.3145 13.4652 10.4421 13.4652 10.5812C13.4652 11.0919 13.258 11.411 12.8483 11.5273C12.5638 11.6071 12.3657 11.867 12.3635 12.1634C12.3635 12.2341 12.3748 12.3047 12.3976 12.3731C12.4386 12.4962 12.4591 12.6399 12.4591 12.7972C12.4591 13.3101 12.2496 13.6293 11.8354 13.7456C11.6601 13.7935 11.5121 13.912 11.4256 14.0716C11.3391 14.2312 11.3232 14.4181 11.3801 14.5914C11.4211 14.7145 11.4416 14.8581 11.4416 15.0132C11.4416 15.6743 11.1024 16.0094 10.4332 16.0094L4.75156 16.0117ZM12.1131 15.0154C12.1131 14.7852 12.0812 14.5732 12.0175 14.3862C12.714 14.1924 13.1283 13.6202 13.1283 12.8017C13.1283 12.5715 13.0941 12.3595 13.0327 12.1702C13.7224 11.9742 14.1321 11.4042 14.1321 10.588C14.1321 10.3874 14.1071 10.2005 14.0593 10.0318L16.4198 10.0318C17.5033 10.0318 18.1748 9.36605 18.1748 8.29453C18.1748 7.26405 17.5488 6.63254 16.4539 6.56187L16.4198 6.56187L10.4172 6.55959C10.8861 6.28373 11.2139 6.03523 11.4507 5.73885C11.676 5.46072 11.7989 5.11418 11.8012 4.75625C11.8012 4.42796 11.6942 4.10194 11.478 3.8352C11.0546 3.30629 10.333 3.17634 9.63874 3.50235C8.4619 4.05635 6.57031 4.98879 5.04975 5.73657C4.10282 6.20394 3.28563 6.60746 3.03752 6.72146C2.7803 6.84001 2.1748 7.12042 2.1748 7.75649L2.1748 14.0944C2.1748 14.8946 2.4252 15.5763 2.87818 16.0163C3.32888 16.454 3.95941 16.6751 4.74701 16.6751L10.4354 16.6751C11.4711 16.6729 12.1131 16.0391 12.1131 15.0154Z" fill="#86888C"/>
</svg>
