<svg width="28" height="28" viewBox="0 0 28 28" fill="none" xmlns="http://www.w3.org/2000/svg">
<path fill-rule="evenodd" clip-rule="evenodd" d="M23.0303 22.1349C23.0303 23.0465 22.7944 23.7567 22.3225 24.2416C21.8505 24.7264 21.0811 24.9962 20.1509 24.9962H10.6441C10.4115 24.9962 10.2269 24.7947 9.99091 24.2825C9.80966 23.8933 9.17701 22.6026 8.50333 21.2403C7.38165 18.9663 5.98641 16.1357 5.15883 14.3705C4.87157 13.7593 4.95365 13.1652 5.37769 12.8271C5.59314 12.653 5.85988 12.5608 6.14029 12.5608C6.44465 12.5608 6.749 12.6701 6.99865 12.8715C7.31668 13.1242 7.6142 13.5066 7.99037 14.1485C8.21607 14.5344 8.67431 14.7222 9.10862 14.6026C9.5395 14.4831 9.84044 14.0871 9.84044 13.6364V4.64618C9.93619 3.17115 10.8014 3.00384 11.4477 3.00384C12.501 3.00384 13.0584 3.56722 13.0584 4.63594V8.17328C13.0584 8.723 13.4996 9.17029 14.0501 9.17371C14.139 9.17371 14.2314 9.16005 14.3169 9.13615C14.4844 9.08835 14.6759 9.06445 14.8845 9.06445C15.6506 9.06445 16.1293 9.37516 16.3037 9.98976C16.4234 10.4166 16.8133 10.7136 17.2578 10.717C17.3638 10.717 17.4699 10.7 17.5724 10.6658C17.7571 10.6044 17.9726 10.5736 18.2085 10.5736C18.978 10.5736 19.4567 10.8878 19.6311 11.5092C19.7029 11.7721 19.8808 11.994 20.1201 12.1238C20.3595 12.2535 20.6399 12.2774 20.8998 12.1921C21.0845 12.1306 21.3 12.0999 21.5325 12.0999C22.5242 12.0999 23.0269 12.6086 23.0269 13.6125L23.0303 22.1349ZM21.5359 11.0926C21.1905 11.0926 20.8725 11.1404 20.5921 11.236C20.3014 10.1912 19.443 9.56978 18.2154 9.56978C17.87 9.56978 17.5519 9.621 17.2681 9.71319C16.974 8.67862 16.1191 8.06402 14.8948 8.06402C14.5939 8.06402 14.3134 8.10158 14.0604 8.17328V4.63252C14.0604 3.00726 13.0618 2 11.4546 2C9.90884 2 8.96157 2.93897 8.85556 4.58131V4.63252L8.85214 13.6364C8.43835 12.933 8.0656 12.4413 7.62104 12.0862C7.20383 11.7482 6.68403 11.5638 6.14713 11.5604C5.65469 11.5604 5.16567 11.7209 4.76556 12.0452C3.97218 12.6803 3.77726 13.7627 4.26628 14.8041C5.09728 16.5694 6.49594 19.4067 7.61762 21.6876C8.31866 23.108 8.92395 24.3338 9.09494 24.7059C9.27277 25.0918 9.69339 26 10.6475 26H20.1543C21.3547 26 22.3772 25.6244 23.0372 24.9449C23.6938 24.2689 24.0255 23.3231 24.0255 22.1417V13.609C24.0221 12.0555 23.0714 11.0926 21.5359 11.0926Z" fill="#86888C"/>
</svg>
