<svg width="40" height="40" viewBox="0 0 40 40" fill="none" xmlns="http://www.w3.org/2000/svg">
<path fill-rule="evenodd" clip-rule="evenodd" d="M7.81723 33.5264C6.44975 33.5264 5.38445 33.1725 4.65718 32.4646C3.9299 31.7567 3.5253 30.6025 3.5253 29.2073V14.947C3.5253 14.5982 3.82747 14.3212 4.59572 13.9673C5.17958 13.6954 7.11556 12.7464 9.1591 11.7359C12.5701 10.0534 16.8159 7.9605 19.4638 6.71914C20.3806 6.28826 21.2718 6.41137 21.7788 7.04744C22.04 7.3706 22.1783 7.77071 22.1783 8.19134C22.1783 8.64787 22.0144 9.1044 21.7122 9.47886C21.3332 9.95592 20.7596 10.4022 19.7967 10.9664C19.218 11.305 18.9363 11.9924 19.1156 12.6438C19.2948 13.2902 19.8889 13.7416 20.565 13.7416L34.0503 13.7416C36.2628 13.8852 36.5138 15.183 36.5138 16.1525C36.5138 17.7324 35.6687 18.5685 34.0656 18.5685H28.7596C27.935 18.5685 27.2641 19.2302 27.259 20.0561C27.259 20.1895 27.2795 20.328 27.3153 20.4562C27.387 20.7075 27.4229 20.9948 27.4229 21.3077C27.4229 22.4567 26.9568 23.1749 26.0349 23.4365C25.3947 23.616 24.9491 24.2008 24.944 24.8676C24.944 25.0267 24.9696 25.1857 25.0208 25.3396C25.113 25.6166 25.1591 25.9397 25.1591 26.2937C25.1591 27.4478 24.6879 28.166 23.7558 28.4276C23.3614 28.5353 23.0285 28.802 22.8339 29.1611C22.6393 29.5202 22.6034 29.9408 22.7314 30.3307C22.8236 30.6077 22.8697 30.9308 22.8697 31.2796C22.8697 32.7672 22.1066 33.5213 20.6008 33.5213L7.81723 33.5264ZM24.3806 31.2848C24.3806 30.7667 24.3089 30.2896 24.1655 29.869C25.7327 29.433 26.6649 28.1455 26.6649 26.3039C26.6649 25.7858 26.588 25.3088 26.4497 24.883C28.0016 24.4419 28.9235 23.1595 28.9235 21.3231C28.9235 20.8717 28.8672 20.4511 28.7596 20.0715H34.0707C36.5086 20.0715 38.0195 18.5736 38.0195 16.1627C38.0195 13.8441 36.6111 12.4233 34.1476 12.2642H34.0707L20.565 12.2591C21.62 11.6384 22.3576 11.0793 22.8902 10.4124C23.3973 9.78664 23.6738 9.00694 23.6789 8.20159C23.6789 7.46293 23.4382 6.7294 22.9517 6.12924C21.999 4.93917 20.3755 4.64679 18.8134 5.38032C16.1655 6.62681 11.9094 8.72481 8.48816 10.4073C6.35756 11.4589 4.51889 12.3668 3.96064 12.6233C3.38189 12.89 2.01953 13.521 2.01953 14.9521V29.2124C2.01953 31.0129 2.58291 32.5467 3.60212 33.5367C4.6162 34.5215 6.0349 35.0191 7.80698 35.0191H20.606C22.9363 35.014 24.3806 33.588 24.3806 31.2848Z" fill="#86888C"/>
</svg>
