<svg width="24" height="24" viewBox="0 0 24 24" fill="none" xmlns="http://www.w3.org/2000/svg">
<path fill-rule="evenodd" clip-rule="evenodd" d="M5.56469 19.5147C4.80498 19.5147 4.21315 19.318 3.80911 18.9248C3.40507 18.5315 3.18028 17.8903 3.18028 17.1152V9.1928C3.18028 8.99901 3.34816 8.84512 3.77497 8.64849C4.09933 8.49745 5.17488 7.97024 6.31017 7.40884C8.20518 6.47411 10.564 5.3114 12.035 4.62176C12.5443 4.38238 13.0394 4.45077 13.3211 4.80414C13.4662 4.98368 13.5431 5.20596 13.5431 5.43964C13.5431 5.69327 13.452 5.9469 13.2841 6.15494C13.0736 6.41997 12.7549 6.6679 12.22 6.98137C11.8985 7.16946 11.742 7.55133 11.8415 7.91325C11.9411 8.27232 12.2712 8.5231 12.6468 8.5231H20.1386C21.3678 8.60289 21.5072 9.32389 21.5072 9.86249C21.5072 10.7402 21.0377 11.2047 20.1471 11.2047H17.1993C16.7412 11.2047 16.3685 11.5724 16.3657 12.0312C16.3657 12.1053 16.377 12.1822 16.397 12.2535C16.4368 12.3931 16.4567 12.5527 16.4567 12.7265C16.4567 13.3649 16.1978 13.7638 15.6856 13.9092C15.3299 14.0089 15.0824 14.3338 15.0796 14.7043C15.0796 14.7926 15.0938 14.8809 15.1222 14.9664C15.1735 15.1203 15.1991 15.2999 15.1991 15.4965C15.1991 16.1377 14.9373 16.5367 14.4194 16.682C14.2003 16.7418 14.0154 16.89 13.9073 17.0895C13.7991 17.289 13.7792 17.5227 13.8504 17.7393C13.9016 17.8932 13.9272 18.0727 13.9272 18.2665C13.9272 19.0929 13.5032 19.5118 12.6667 19.5118L5.56469 19.5147ZM14.7666 18.2693C14.7666 17.9815 14.7267 17.7165 14.6471 17.4828C15.5177 17.2406 16.0356 16.5253 16.0356 15.5022C16.0356 15.2144 15.9929 14.9493 15.9161 14.7128C16.7782 14.4677 17.2904 13.7553 17.2904 12.7351C17.2904 12.4843 17.2591 12.2506 17.1993 12.0397H20.15C21.5044 12.0397 22.3438 11.2076 22.3438 9.86819C22.3438 8.5801 21.5613 7.79071 20.1927 7.70236H20.15L12.6468 7.69952C13.2329 7.35469 13.6427 7.04407 13.9386 6.6736C14.2203 6.32592 14.3739 5.89276 14.3768 5.44534C14.3768 5.03498 14.243 4.62746 13.9727 4.29403C13.4435 3.63289 12.5415 3.47045 11.6737 3.87797C10.2026 4.57046 7.83813 5.73602 5.93743 6.67075C4.75377 7.25495 3.73228 7.75936 3.42214 7.90185C3.10061 8.05004 2.34375 8.40056 2.34375 9.19565V17.118C2.34375 18.1183 2.65674 18.9704 3.22297 19.5204C3.78634 20.0675 4.57451 20.344 5.559 20.344H12.6695C13.9642 20.3411 14.7666 19.5489 14.7666 18.2693Z" fill="#86888C"/>
</svg>
