<svg width="20" height="20" viewBox="0 0 20 20" fill="none" xmlns="http://www.w3.org/2000/svg">
<path fill-rule="evenodd" clip-rule="evenodd" d="M4.16369 4.57675C4.16369 3.96899 4.321 3.49552 4.63562 3.17229C4.95023 2.84905 5.46319 2.66923 6.0833 2.66923L12.4212 2.66923C12.5762 2.66923 12.6993 2.80353 12.8566 3.14497C12.9775 3.40447 13.3992 4.2649 13.8484 5.17314C14.5961 6.68915 15.5263 8.57619 16.078 9.75302C16.2695 10.1605 16.2148 10.5566 15.9321 10.7819C15.7885 10.898 15.6107 10.9595 15.4237 10.9595C15.2208 10.9595 15.0179 10.8866 14.8515 10.7523C14.6395 10.5839 14.4411 10.3289 14.1903 9.90098C14.0399 9.64376 13.7344 9.51857 13.4448 9.59824C13.1576 9.67791 12.957 9.94196 12.957 10.2424V16.2359C12.8931 17.2192 12.3163 17.3308 11.8854 17.3308C11.1833 17.3308 10.8116 16.9552 10.8116 16.2427V13.8845C10.8116 13.518 10.5176 13.2198 10.1505 13.2175C10.0912 13.2175 10.0297 13.2266 9.97267 13.2426C9.86096 13.2744 9.73329 13.2904 9.59422 13.2904C9.08355 13.2904 8.76437 13.0832 8.6481 12.6735C8.56831 12.389 8.30841 12.1909 8.01203 12.1886C7.94136 12.1886 7.87068 12.2 7.80229 12.2228C7.67918 12.2638 7.53555 12.2843 7.37824 12.2843C6.86528 12.2843 6.54611 12.0748 6.42984 11.6605C6.38196 11.4853 6.26341 11.3373 6.10382 11.2508C5.94423 11.1643 5.75729 11.1484 5.58402 11.2053C5.46091 11.2463 5.31728 11.2668 5.16225 11.2668C4.50111 11.2668 4.16597 10.9276 4.16597 10.2584L4.16369 4.57675ZM5.15998 11.9383C5.39024 11.9383 5.60226 11.9064 5.7892 11.8427C5.98299 12.5392 6.55523 12.9535 7.37368 12.9535C7.60394 12.9535 7.81596 12.9193 8.00519 12.8579C8.20125 13.5476 8.77121 13.9573 9.58739 13.9573C9.78801 13.9573 9.97495 13.9323 10.1437 13.8845V16.245C10.1437 17.3285 10.8094 18 11.8809 18C12.9114 18 13.5429 17.374 13.6135 16.2791V16.245L13.6158 10.2424C13.8917 10.7113 14.1402 11.0391 14.4366 11.2759C14.7147 11.5012 15.0612 11.6241 15.4192 11.6264C15.7475 11.6264 16.0735 11.5194 16.3402 11.3032C16.8691 10.8798 16.9991 10.1582 16.6731 9.46394C16.1191 8.2871 15.1866 6.39551 14.4388 4.87495C13.9715 3.92801 13.568 3.11083 13.454 2.86271C13.3354 2.60549 13.055 2 12.4189 2H6.08102C5.28081 2 4.59914 2.25039 4.15913 2.70337C3.72141 3.15408 3.50027 3.78461 3.50027 4.5722V10.2606C3.50255 11.2963 4.13634 11.9383 5.15998 11.9383Z" fill="#86888C"/>
</svg>
