<svg width="40" height="40" viewBox="0 0 40 40" fill="none" xmlns="http://www.w3.org/2000/svg">
<path fill-rule="evenodd" clip-rule="evenodd" d="M35.7055 36.4994C36.1408 36.4994 36.4942 36.146 36.4942 35.7055V26.9219L36.4789 26.7939C36.4379 26.3944 36.1101 26.0819 35.7055 26.0819H4.28937C3.85403 26.0819 3.49552 26.4405 3.49552 26.8758V35.7055C3.49552 36.1408 3.84891 36.4994 4.28937 36.4994H35.7055ZM6.4968 4.29962L3.78745 24.6376C3.95134 24.6018 4.11524 24.5762 4.28937 24.5762H35.7055C35.8796 24.5762 36.0487 24.6018 36.2074 24.6376L33.6722 4.48912C33.5698 3.94622 33.1703 3.53649 32.7093 3.53649L7.29065 3.51088C6.85019 3.50576 6.4968 3.86428 6.4968 4.29962ZM37.9898 26.799C37.9898 26.8246 37.9949 26.8451 37.9949 26.8707V35.7055C37.9949 36.9706 36.9706 38 35.7055 38H4.28937C3.02433 38 2 36.9706 2 35.7055V26.8707C2 26.8246 2.01024 26.7836 2.01024 26.7426C2.01024 26.7119 2 26.6863 2.00512 26.6505L5.00128 4.19718C4.99616 3.02945 6.02049 2 7.28553 2L32.7042 2.02561C33.9027 2.02561 34.9065 2.94238 35.1473 4.2484L37.9334 26.3739C37.9539 26.4558 37.9539 26.5429 37.9642 26.6248L37.9795 26.7682C37.9898 26.7836 37.9846 26.7939 37.9898 26.799ZM19.9974 12.6991C18.3022 12.6991 18.3022 13.411 18.3022 13.7132C18.3022 14.0154 18.3022 14.7324 19.9974 14.7324C21.6927 14.7324 21.6927 14.0205 21.6927 13.7132C21.6927 13.4059 21.6927 12.6991 19.9974 12.6991ZM19.9974 16.233C17.114 16.233 16.8067 14.4712 16.8067 13.7132C16.8067 12.9552 17.1191 11.1933 19.9974 11.1933C22.8809 11.1933 23.1933 12.9552 23.1933 13.7132C23.1933 14.4712 22.8809 16.233 19.9974 16.233ZM31.3163 32.8681C32.2689 32.8681 32.6581 32.4789 32.6581 31.5263C32.6581 30.5736 32.2689 30.1844 31.3163 30.1844C30.3534 30.1844 29.9795 30.5634 29.9795 31.5263C29.9795 32.4942 30.3534 32.8681 31.3163 32.8681ZM31.3163 28.6837C33.0935 28.6837 34.1537 29.749 34.1537 31.5263C34.1537 33.3086 33.0935 34.3688 31.3163 34.3688C29.5391 34.3688 28.4789 33.3086 28.4789 31.5263C28.4789 29.7439 29.5391 28.6837 31.3163 28.6837ZM9.14981 6.76825C8.26889 6.76825 7.7516 6.44558 7.7516 5.75928C7.7516 5.06786 8.26889 4.7452 9.14981 4.7452C10.0359 4.7452 10.548 5.06786 10.548 5.75928C10.548 6.44046 10.0359 6.76825 9.14981 6.76825ZM30.1332 6.76825C29.2522 6.76825 28.735 6.44558 28.735 5.75928C28.735 5.06786 29.2522 4.7452 30.1332 4.7452C31.0192 4.7452 31.5314 5.06786 31.5314 5.75928C31.5365 6.44046 31.0192 6.76825 30.1332 6.76825ZM33.1344 23.2958C32.2535 23.2958 31.7362 22.9731 31.7362 22.2868C31.7362 21.5954 32.2535 21.2727 33.1344 21.2727C34.0205 21.2727 34.5327 21.5954 34.5327 22.2868C34.5327 22.9731 34.0154 23.2958 33.1344 23.2958ZM7.00384 20.9142C6.74776 21.1498 6.60948 21.3803 6.61972 21.5442C6.63508 21.7286 6.83995 21.959 7.17798 22.1793C7.74136 22.548 8.59667 22.8195 9.44174 22.0461C11.3367 20.3099 13.5237 17.6056 13.3803 16.9296C13.3547 16.9245 13.3239 16.9193 13.2881 16.9193C12.3252 16.9245 8.49936 19.5467 7.00384 20.9142ZM11.5109 15.9923C11.516 16.0077 11.516 16.023 11.516 16.0435C12.612 15.5467 13.6108 15.3316 14.2356 15.7414C14.6095 15.9821 14.8348 16.3662 14.8707 16.822C14.9168 17.3905 14.6248 18.1024 14.1793 18.84L14.2612 18.8809C15.6953 19.5672 17.6261 19.9155 19.9974 19.9155C25.8771 19.9155 28.8528 17.831 28.8528 13.7183C28.8528 9.60563 25.872 7.52113 19.9974 7.52113C14.1229 7.52113 11.1421 9.60563 11.1421 13.7183C11.1421 14.5583 11.265 15.3214 11.5109 15.9923ZM6.36364 23.4443C5.41101 22.8246 5.16517 22.1332 5.12932 21.6671C5.09347 21.2113 5.21127 20.5198 5.99488 19.8028C6.03073 19.7721 8.09987 17.9693 10.2305 16.7145C10.1793 16.653 10.1332 16.5864 10.1024 16.5096C9.79514 15.6748 9.64149 14.7324 9.64149 13.7132C9.64149 10.1997 11.4392 6.01024 19.9974 6.01024C28.5557 6.01024 30.3534 10.1997 30.3534 13.7132C30.3534 17.2266 28.5557 21.411 19.9974 21.411C17.4008 21.411 15.2497 21.0115 13.6108 20.2279L13.3444 20.0948C13.3342 20.0896 13.3291 20.0794 13.3137 20.0691C12.0845 21.6466 10.5634 23.0551 10.4558 23.1524C9.8105 23.7465 9.0525 24.0435 8.27913 24.0435C7.63893 24.0487 6.98848 23.8489 6.36364 23.4443Z" fill="#86888C"/>
</svg>
