<svg width="24" height="24" viewBox="0 0 24 24" fill="none" xmlns="http://www.w3.org/2000/svg">
<path d="M19.9641 12.2737C19.9072 4.62198 15.5563 3 11.8998 3C8.24319 3 3.83255 4.63051 3.83255 12.4018C2.64879 13.0648 2 14.3795 2 16.2746C2 18.9836 3.30043 20.5202 5.65941 20.6483H6.04072C7.63139 20.5885 8.24888 19.3564 8.24888 16.2661C8.24888 13.1758 7.63139 11.9351 6.05779 11.8839H5.6651C5.32932 11.901 4.99639 11.955 4.67484 12.0461C4.77443 6.61103 7.19886 3.85083 11.8998 3.85083C16.6006 3.85083 19.008 6.59396 19.1247 11.9949C18.8743 11.9436 18.621 11.9095 18.3677 11.8924H17.9665C16.3758 11.9522 15.7498 13.1843 15.7498 16.2831C15.7498 18.4657 16.0657 19.6808 16.8084 20.2755C15.6275 20.9613 14.31 21.3739 12.9498 21.4905C12.9042 20.8958 12.3892 20.4462 11.7916 20.4804C11.4558 20.432 11.1172 20.5373 10.8697 20.7706C10.6192 21.0068 10.4883 21.3426 10.5083 21.6869C10.477 22.0255 10.5794 22.3641 10.7928 22.6288C11.0347 22.8763 11.3676 23.0101 11.7091 22.993C12.0506 23.03 12.392 22.919 12.651 22.6885C12.7477 22.5861 12.8246 22.4666 12.8758 22.3328C14.6258 22.2247 16.3161 21.6357 17.7673 20.634C17.8242 20.6369 17.884 20.6369 17.9409 20.634H18.3478C20.7068 20.5231 21.9987 18.9352 21.9987 16.2604C21.9987 14.2628 21.2816 12.8941 19.9641 12.2737ZM5.71632 12.7404H6.01511C6.60698 12.7404 7.41513 12.7916 7.41513 16.2831C7.41513 19.7747 6.58137 19.7917 5.93258 19.8173H5.69925C3.77564 19.7064 2.83375 18.5511 2.83375 16.2746C2.83375 13.9981 3.77564 12.8343 5.71632 12.7404ZM18.308 19.8003H17.7076C17.1754 19.7064 16.6063 19.2055 16.6063 16.3002C16.6063 12.8115 17.4401 12.7859 18.0889 12.7575H18.3308C20.2544 12.8514 21.1877 14.0067 21.1877 16.2917C21.1906 18.5767 20.2316 19.7064 18.308 19.8003Z" fill="#86888C"/>
</svg>
