<svg width="28" height="28" viewBox="0 0 28 28" fill="none" xmlns="http://www.w3.org/2000/svg">
<path d="M23.5569 14.1285C23.4886 4.94637 18.2676 3 13.8797 3C9.49183 3 4.19906 4.95662 4.19906 14.2821C2.77855 15.0778 2 16.6553 2 18.9295C2 22.1803 3.56051 24.0242 6.39129 24.1779H6.84886C8.75767 24.1062 9.49866 22.6276 9.49866 18.9193C9.49866 15.2109 8.75767 13.7221 6.86935 13.6607H6.39812C5.99519 13.6811 5.59567 13.746 5.20981 13.8553C5.32932 7.33324 8.23864 4.02099 13.8797 4.02099C19.5208 4.02099 22.4096 7.31275 22.5496 13.7938C22.2491 13.7324 21.9452 13.6914 21.6413 13.6709H21.1598C19.251 13.7426 18.4998 15.2212 18.4998 18.9398C18.4998 21.5588 18.8788 23.0169 19.77 23.7306C18.3529 24.5535 16.7719 25.0487 15.1397 25.1887C15.0851 24.475 14.467 23.9355 13.7499 23.9764C13.347 23.9184 12.9407 24.0447 12.6436 24.3247C12.3431 24.6082 12.186 25.0111 12.2099 25.4243C12.1724 25.8306 12.2953 26.237 12.5514 26.5545C12.8416 26.8516 13.2412 27.0121 13.6509 26.9916C14.0607 27.036 14.4704 26.9028 14.7812 26.6262C14.8973 26.5033 14.9895 26.3599 15.0509 26.1994C17.151 26.0696 19.1793 25.3628 20.9208 24.1608C20.9891 24.1642 21.0608 24.1642 21.1291 24.1608H21.6174C24.4482 24.0277 25.9984 22.1223 25.9984 18.9125C25.9984 16.5153 25.1379 14.8729 23.5569 14.1285ZM6.45959 14.6885H6.81813C7.52838 14.6885 8.49815 14.7499 8.49815 18.9398C8.49815 23.1296 7.49765 23.1501 6.7191 23.1808H6.4391C4.13077 23.0476 3.0005 21.6613 3.0005 18.9295C3.0005 16.1978 4.13077 14.8012 6.45959 14.6885ZM21.5696 23.1603H20.8491C20.2105 23.0476 19.5276 22.4467 19.5276 18.9603C19.5276 14.7739 20.5281 14.7431 21.3067 14.709H21.5969C23.9052 14.8217 25.0253 16.208 25.0253 18.95C25.0287 21.692 23.8779 23.0476 21.5696 23.1603Z" fill="#86888C"/>
</svg>
