<svg width="20" height="20" viewBox="0 0 20 20" fill="none" xmlns="http://www.w3.org/2000/svg">
<path d="M16.3713 9.41898C16.3258 3.29758 12.8451 2 9.9198 2C6.99455 2 3.46604 3.30441 3.46604 9.52142C2.51903 10.0518 2 11.1036 2 12.6197C2 14.7869 3.04034 16.0162 4.92753 16.1186H5.23257C6.50511 16.0708 6.99911 15.0851 6.99911 12.6129C6.99911 10.1406 6.50511 9.14808 5.24623 9.10711H4.93208C4.66346 9.12077 4.39711 9.16402 4.13987 9.23687C4.21955 4.88883 6.15909 2.68066 9.9198 2.68066C13.6805 2.68066 15.6064 4.87517 15.6997 9.19589C15.4994 9.15491 15.2968 9.1276 15.0942 9.11394H14.7732C13.5007 9.16174 12.9999 10.1474 12.9999 12.6265C12.9999 14.3726 13.2525 15.3446 13.8467 15.8204C12.902 16.369 11.848 16.6991 10.7598 16.7924C10.7234 16.3167 10.3114 15.957 9.8333 15.9843C9.56468 15.9456 9.29378 16.0298 9.09573 16.2165C8.8954 16.4054 8.79068 16.6741 8.80661 16.9495C8.78157 17.2204 8.86353 17.4913 9.03426 17.703C9.22776 17.9011 9.49411 18.0081 9.76728 17.9944C10.0405 18.024 10.3136 17.9352 10.5208 17.7508C10.5982 17.6689 10.6597 17.5733 10.7006 17.4663C12.1007 17.3798 13.4529 16.9085 14.6139 16.1072C14.6594 16.1095 14.7072 16.1095 14.7527 16.1072H15.0783C16.9654 16.0184 17.999 14.7482 17.999 12.6083C17.999 11.0102 17.4253 9.91525 16.3713 9.41898ZM4.97306 9.79232H5.21208C5.68559 9.79232 6.3321 9.8333 6.3321 12.6265C6.3321 15.4197 5.6651 15.4334 5.14607 15.4539H4.9594C3.42051 15.3651 2.667 14.4409 2.667 12.6197C2.667 10.7985 3.42051 9.86744 4.97306 9.79232ZM15.0464 15.4402H14.5661C14.1404 15.3651 13.6851 14.9644 13.6851 12.6402C13.6851 9.84923 14.3521 9.82875 14.8711 9.80598H15.0646C16.6035 9.8811 17.3502 10.8053 17.3502 12.6333C17.3524 14.4613 16.5853 15.3651 15.0464 15.4402Z" fill="#86888C"/>
</svg>
