<svg width="28" height="28" viewBox="0 0 28 28" fill="none" xmlns="http://www.w3.org/2000/svg">
<path fill-rule="evenodd" clip-rule="evenodd" d="M21.3257 17.7343C19.9512 19.8612 18.8582 21.2283 16.9983 23.1467L16.9871 23.1541L16.9538 23.1951C16.5981 23.5601 16.0794 24.0518 15.6978 24.3275C15.3384 24.5845 14.9383 24.7633 14.5196 24.8527C14.427 24.8751 14.3232 24.89 14.2195 24.8937H14.1899L14.0676 24.8974L13.9824 24.8937H13.9638C13.8564 24.8862 13.7453 24.8713 13.6378 24.8453C13.2228 24.7521 12.8301 24.5733 12.4855 24.32C11.9854 23.9624 11.3481 23.318 11.2258 23.1876C9.33628 21.2432 8.23219 19.865 6.85022 17.7268C6.48342 17.1532 6.13515 16.5721 5.80541 15.9761H6.87615C7.11698 15.9761 7.33187 15.8196 7.40227 15.5887L9.44373 9.02157L11.7742 20.6435C11.8261 20.9005 12.0521 21.0868 12.3151 21.0868C12.5559 21.0868 12.7708 20.9303 12.8449 20.6956L14.2528 16.0916H15.8423C16.0868 16.0916 16.3017 15.9314 16.3721 15.6967L17.4614 11.9978L18.773 15.7228C18.8508 15.9426 19.0582 16.0916 19.2917 16.0916H22.3075C21.9926 16.6391 21.6777 17.1867 21.3257 17.7343ZM3.34898 9.92302C2.76359 7.46826 3.20078 5.46422 4.58645 4.27968C5.39785 3.58684 6.51677 3.16964 7.74313 3.10632C7.85428 3.10259 7.96543 3.09887 8.07658 3.09887C9.30664 3.09887 10.5886 3.44901 11.7779 4.10461C12.2744 4.38026 12.7819 4.67081 13.3599 5.0135C13.5785 5.13643 13.8305 5.20348 14.0898 5.20348C14.3381 5.20348 14.5826 5.14388 14.8345 5.00605C15.3532 4.69688 15.8719 4.39888 16.398 4.10833C17.5874 3.45274 18.8656 3.10259 20.0994 3.10259C20.2105 3.10259 20.3217 3.10632 20.4328 3.11004C21.6555 3.17337 22.7781 3.59056 23.5858 4.28341C24.9677 5.46422 25.4086 7.46826 24.8232 9.92674C24.4268 11.5769 23.7636 13.2792 22.8855 15.0002H19.6807L17.9319 10.031C17.8578 9.80009 17.6392 9.64737 17.3984 9.66227C17.1613 9.66972 16.9501 9.82617 16.8834 10.0571L15.4273 15.0002H13.8416C13.6008 15.0002 13.3859 15.1566 13.3118 15.3913L12.4226 18.2968L10.0958 6.69347C10.0439 6.44389 9.83276 6.26509 9.58082 6.25392C9.34369 6.21294 9.10287 6.39919 9.02877 6.64132L6.4686 14.8884H5.23113C4.38268 13.201 3.73801 11.5397 3.34898 9.92302ZM26.4905 14.9964H24.1119C24.9048 13.3649 25.5161 11.752 25.894 10.18C26.5794 7.30436 26.0163 4.91293 24.3045 3.44901C23.3116 2.59972 21.9556 2.0894 20.4884 2.0149C20.3587 2.00745 20.2253 2.00372 20.0956 2.00372C18.6729 2.00372 17.2169 2.39485 15.8608 3.14729C15.3236 3.44529 14.7938 3.75074 14.2677 4.06363C14.2121 4.09343 14.1491 4.10833 14.0861 4.10833C14.0231 4.10833 13.9564 4.09343 13.9009 4.06363C13.3785 3.74329 12.8449 3.43784 12.3114 3.14357C10.9517 2.39485 9.4956 2 8.07287 2C7.9432 2 7.81352 2.00373 7.68385 2.01117C6.22037 2.08567 4.86433 2.59227 3.86768 3.44529C2.15596 4.9092 1.5891 7.30064 2.27453 10.1763C2.64503 11.7147 3.23412 13.2904 3.99736 14.881H1.55205C1.24824 14.881 1.00371 15.1268 1 15.4323C1 15.7377 1.24824 15.9835 1.55205 15.9835H4.5457C4.96066 16.7621 5.40897 17.5443 5.91656 18.3303C7.33928 20.5355 8.48043 21.9584 10.4256 23.9587C10.6145 24.1524 11.274 24.8155 11.8335 25.2178C12.3151 25.5642 12.8598 25.8063 13.4007 25.9218C13.5563 25.959 13.723 25.9814 13.8935 25.9926H13.9046L13.9157 25.9963L14.0602 26H14.1046C14.1602 26 14.2084 26 14.2528 25.9963L14.264 25.9926H14.2751C14.4455 25.9814 14.6122 25.959 14.7678 25.9218C15.3125 25.81 15.8534 25.5642 16.3351 25.2178C16.8945 24.8155 17.554 24.1524 17.743 23.9587C17.7578 23.9438 17.7726 23.9252 17.7874 23.9103C19.7066 21.9323 20.8367 20.5168 22.252 18.3303C22.7336 17.5816 23.1671 16.8366 23.5672 16.0953H26.4905C26.7943 16.0953 27.0426 15.8494 27.0426 15.544C27.0426 15.2386 26.7943 14.9927 26.4905 14.9964Z" fill="#86888C"/>
</svg>
