<svg width="20" height="20" viewBox="0 0 20 20" fill="none" xmlns="http://www.w3.org/2000/svg">
<path fill-rule="evenodd" clip-rule="evenodd" d="M14.5505 12.4895C13.6341 13.9075 12.9054 14.8189 11.6655 16.0978L11.6581 16.1027L11.6359 16.1301C11.3987 16.3734 11.0529 16.7012 10.7985 16.885C10.5589 17.0563 10.2922 17.1755 10.0131 17.2351C9.95132 17.25 9.88216 17.26 9.813 17.2625H9.79324L9.71173 17.2649L9.65492 17.2625H9.64257C9.57094 17.2575 9.49684 17.2476 9.42521 17.2302C9.14856 17.1681 8.88674 17.0489 8.65703 16.88C8.32358 16.6416 7.89874 16.212 7.81723 16.1251C6.55752 14.8288 5.82146 13.91 4.90015 12.4846C4.65562 12.1021 4.42343 11.7147 4.2036 11.3174H4.91744C5.07799 11.3174 5.22125 11.2131 5.26818 11.0591L6.62915 6.68105L8.18279 14.429C8.21737 14.6003 8.36804 14.7245 8.54341 14.7245C8.70396 14.7245 8.84722 14.6202 8.89662 14.4638L9.83523 11.3944H10.8949C11.0579 11.3944 11.2011 11.2876 11.2481 11.1312L11.9743 8.66522L12.8486 11.1485C12.9005 11.295 13.0388 11.3944 13.1944 11.3944H15.205C14.9951 11.7594 14.7851 12.1245 14.5505 12.4895ZM2.56599 7.28201C2.17572 5.64551 2.46719 4.30948 3.39097 3.51979C3.9319 3.05789 4.67785 2.77976 5.49542 2.73754C5.56952 2.73506 5.64362 2.73258 5.71772 2.73258C6.53776 2.73258 7.39239 2.96601 8.18526 3.40307C8.51624 3.58684 8.85463 3.78054 9.23995 4.009C9.38568 4.09095 9.55365 4.13565 9.72655 4.13565C9.89204 4.13565 10.0551 4.09592 10.223 4.00404C10.5688 3.79792 10.9146 3.59926 11.2654 3.40556C12.0582 2.96849 12.9104 2.73506 13.7329 2.73506C13.807 2.73506 13.8811 2.73754 13.9552 2.74003C14.7703 2.78224 15.5187 3.06038 16.0572 3.52227C16.9785 4.30948 17.2724 5.64551 16.8822 7.28449C16.6179 8.3846 16.1757 9.51948 15.5904 10.6668H13.4538L12.2879 7.35403C12.2385 7.20006 12.0928 7.09825 11.9323 7.10818C11.7742 7.11315 11.6334 7.21745 11.5889 7.37141L10.6182 10.6668H9.56106C9.40051 10.6668 9.25725 10.7711 9.20784 10.9275L8.61504 12.8645L7.06388 5.12898C7.0293 4.96259 6.8885 4.8434 6.72054 4.83595C6.56246 4.80863 6.40191 4.9328 6.35251 5.09421L4.64574 10.5923H3.82075C3.25512 9.46733 2.82534 8.35977 2.56599 7.28201ZM17.9937 10.6643H16.4079C16.9365 9.5766 17.3441 8.50132 17.596 7.45336C18.0529 5.53624 17.6775 3.94195 16.5364 2.96601C15.8744 2.39981 14.9704 2.0596 13.9923 2.00993C13.9058 2.00497 13.8169 2.00248 13.7304 2.00248C12.7819 2.00248 11.8112 2.26323 10.9072 2.76486C10.5491 2.96353 10.1958 3.16716 9.84511 3.37576C9.80806 3.39562 9.76607 3.40556 9.72408 3.40556C9.68209 3.40556 9.63763 3.39562 9.60058 3.37576C9.25231 3.16219 8.89662 2.95856 8.54094 2.76238C7.63445 2.26323 6.66373 2 5.71525 2C5.6288 2 5.54235 2.00248 5.4559 2.00745C4.48024 2.05712 3.57622 2.39485 2.91179 2.96353C1.77064 3.93947 1.39273 5.53376 1.84968 7.45088C2.09668 8.47649 2.48942 9.52693 2.99824 10.5873H1.36803C1.16549 10.5873 1.00247 10.7512 1 10.9548C1 11.1585 1.16549 11.3224 1.36803 11.3224H3.3638C3.64044 11.8414 3.93931 12.3629 4.2777 12.8869C5.22619 14.357 5.98695 15.3056 7.28371 16.6391C7.40968 16.7683 7.84934 17.2103 8.22231 17.4785C8.54341 17.7095 8.9065 17.8709 9.26713 17.9479C9.37086 17.9727 9.48202 17.9876 9.59564 17.995H9.60305L9.61046 17.9975L9.70679 18H9.73643C9.77348 18 9.80559 18 9.83523 17.9975L9.84264 17.995H9.85005C9.96367 17.9876 10.0748 17.9727 10.1786 17.9479C10.5416 17.8734 10.9023 17.7095 11.2234 17.4785C11.5963 17.2103 12.036 16.7683 12.162 16.6391C12.1719 16.6292 12.1817 16.6168 12.1916 16.6069C13.4711 15.2882 14.2244 14.3446 15.168 12.8869C15.4891 12.3877 15.7781 11.891 16.0448 11.3969H17.9937C18.1962 11.3969 18.3617 11.233 18.3617 11.0293C18.3617 10.8257 18.1962 10.6618 17.9937 10.6643Z" fill="#86888C"/>
</svg>
