<svg width="24" height="24" viewBox="0 0 24 24" fill="none" xmlns="http://www.w3.org/2000/svg">
<path fill-rule="evenodd" clip-rule="evenodd" d="M15.4881 21.1619H18.0406C18.4504 21.1619 18.7834 20.883 18.7834 20.5387V12.7217C18.7862 12.4884 18.9797 12.3006 19.2159 12.3034H20.3883C20.7696 12.3034 20.9973 12.09 21.0855 11.8908C21.1822 11.6774 21.1282 11.4269 20.9517 11.2733L12.5628 3.03226C12.2782 2.75339 11.7204 2.75339 11.4387 3.03226L3.04689 11.2761C2.8733 11.4298 2.81923 11.6802 2.91314 11.8936C3.00136 12.0928 3.22901 12.3062 3.61033 12.3062H4.66322C4.90225 12.3062 5.09576 12.4941 5.09576 12.7246V20.5416C5.09576 20.8859 5.4287 21.1648 5.83563 21.1648H8.56176V17.0528C8.56461 16.8195 8.75811 16.6316 8.9943 16.6345H15.0527C15.2917 16.6345 15.4852 16.8223 15.4852 17.0528L15.4881 21.1619ZM18.0406 21.9985H15.0555C14.8194 22.0014 14.6259 21.8164 14.623 21.5802V17.474H9.42969V21.5831C9.424 21.8193 9.23049 22.0042 8.99715 22.0014H5.83847C4.95063 22.0014 4.23068 21.3469 4.23068 20.5416V13.1429H3.61033C2.94729 13.1429 2.36108 12.7815 2.11351 12.2209C1.88586 11.6944 2.00538 11.1082 2.42938 10.6956L10.8184 2.44606C11.4245 1.85131 12.5741 1.85131 13.1803 2.44606L21.5721 10.6899C21.9932 11.1054 22.1156 11.6887 21.8851 12.2152C21.6404 12.7758 21.0542 13.14 20.3883 13.14H19.6513V20.5387C19.6513 21.344 18.9285 21.9985 18.0406 21.9985Z" fill="#86888C"/>
</svg>
