<svg width="40" height="40" viewBox="0 0 40 40" fill="none" xmlns="http://www.w3.org/2000/svg">
<path fill-rule="evenodd" clip-rule="evenodd" d="M26.2786 36.4915H30.8731C31.6107 36.4915 32.21 35.9895 32.21 35.3697V21.2991C32.2152 20.8791 32.5635 20.541 32.9886 20.5461H35.0989C35.7853 20.5461 36.1951 20.162 36.3539 19.8034C36.528 19.4192 36.4307 18.9685 36.1131 18.6919L21.013 3.85807C20.5007 3.3561 19.4968 3.3561 18.9897 3.85807L3.8844 18.697C3.57194 18.9736 3.47462 19.4244 3.64365 19.8085C3.80244 20.1671 4.21221 20.5512 4.89859 20.5512H6.79379C7.22406 20.5512 7.57236 20.8893 7.57236 21.3042V35.3748C7.57236 35.9946 8.17166 36.4966 8.90413 36.4966H13.8112V29.095C13.8163 28.675 14.1646 28.337 14.5897 28.3421H25.4949C25.9251 28.3421 26.2734 28.6801 26.2734 29.095L26.2786 36.4915ZM30.8731 37.9974H25.5C25.0748 38.0025 24.7265 37.6696 24.7214 37.2444V29.8531H15.3734V37.2495C15.3632 37.6747 15.0149 38.0076 14.5949 38.0025H8.90925C7.31113 38.0025 6.01522 36.8244 6.01522 35.3748V22.0572H4.89859C3.70512 22.0572 2.64995 21.4066 2.20432 20.3976C1.79455 19.45 2.00968 18.3948 2.77288 17.6521L17.8731 2.8029C18.9641 1.73237 21.0334 1.73237 22.1245 2.8029L37.2298 17.6418C37.9879 18.3897 38.2081 19.4397 37.7932 20.3873C37.3527 21.3964 36.2975 22.052 35.0989 22.052H33.7723V35.3697C33.7723 36.8193 32.4713 37.9974 30.8731 37.9974Z" fill="#86888C"/>
</svg>
