<svg width="20" height="20" viewBox="0 0 20 20" fill="none" xmlns="http://www.w3.org/2000/svg">
<path fill-rule="evenodd" clip-rule="evenodd" d="M12.7909 17.3301H14.833C15.1608 17.3301 15.4272 17.107 15.4272 16.8315V10.5777C15.4295 10.391 15.5843 10.2408 15.7732 10.243H16.7112C17.0163 10.243 17.1984 10.0723 17.269 9.91292C17.3464 9.74217 17.3031 9.54183 17.162 9.4189L10.4505 2.82584C10.2229 2.60273 9.77664 2.60273 9.55126 2.82584L2.83754 9.42117C2.69867 9.54411 2.65541 9.74445 2.73054 9.9152C2.80111 10.0746 2.98324 10.2453 3.28831 10.2453H4.13065C4.32189 10.2453 4.4767 10.3956 4.4767 10.58V16.8338C4.4767 17.1093 4.74306 17.3324 5.06862 17.3324H7.24961V14.0427C7.25188 13.856 7.40669 13.7057 7.59565 13.708H12.4425C12.6338 13.708 12.7886 13.8583 12.7886 14.0427L12.7909 17.3301ZM14.833 17.9994H12.4448C12.2559 18.0017 12.1011 17.8537 12.0988 17.6648V14.3796H7.94397V17.667C7.93942 17.856 7.78461 18.004 7.59793 18.0017H5.07089C4.36059 18.0017 3.78461 17.4781 3.78461 16.8338V10.9146H3.28831C2.75786 10.9146 2.28888 10.6255 2.09081 10.177C1.90868 9.75583 2.0043 9.28685 2.34352 8.95674L9.05496 2.35686C9.53987 1.88105 10.4596 1.88105 10.9445 2.35686L17.6583 8.95219C17.9952 9.28458 18.0931 9.75128 17.9087 10.1725C17.7129 10.6209 17.2439 10.9124 16.7112 10.9124H16.1215V16.8315C16.1215 17.4758 15.5433 17.9994 14.833 17.9994Z" fill="#86888C"/>
</svg>
