<svg width="20" height="20" viewBox="0 0 20 20" fill="none" xmlns="http://www.w3.org/2000/svg">
<path fill-rule="evenodd" clip-rule="evenodd" d="M17.3353 17.2232V5.42071C17.3353 5.34104 17.3285 5.27047 17.3171 5.21357H15.4802C15.471 5.27047 15.4642 5.34104 15.4642 5.42071V17.4304H17.3194C17.3262 17.3758 17.3353 17.3052 17.3353 17.2232ZM14.8018 17.4304V3.07841C14.8018 2.92818 14.647 2.76884 14.5355 2.76884H5.46223C5.35297 2.76884 5.19818 2.93045 5.19818 3.07841V17.4327H7.65884V11.8353C7.65884 11.6509 7.8068 11.5029 7.99118 11.5029H12.0111C12.1932 11.5029 12.3434 11.6532 12.3434 11.8353V17.4327H14.8018V17.4304ZM8.32124 17.4304H11.6788V12.1653H8.32124V17.4304ZM2.6624 17.2232C2.6624 17.3052 2.66923 17.3758 2.67833 17.4304H4.5335V16.6018C4.5335 16.5973 4.53123 16.595 4.53123 16.5927V5.42298C4.53123 5.34331 4.5244 5.27275 4.51529 5.21584H2.67833C2.66923 5.27275 2.66012 5.34331 2.66012 5.42298V17.2232H2.6624ZM17.5197 4.54889C17.9636 4.54889 17.9977 5.21812 17.9977 5.42298V17.2255C17.9977 17.4896 17.9522 18.0996 17.5197 18.0996H2.47802C2.04553 18.0996 2 17.4896 2 17.2255V5.42298C2 5.21812 2.03414 4.54889 2.47802 4.54889H4.53578V3.07614C4.53578 2.56397 4.97738 2.09961 5.4645 2.09961H14.5378C15.0249 2.09961 15.4665 2.56397 15.4665 3.07614V4.54889H17.5197ZM12.5028 7.46481C12.5483 7.46481 12.5893 7.43294 12.5961 7.41701L12.5938 6.21968C12.5802 6.20375 12.546 6.17871 12.505 6.17871H10.9686C10.7865 6.17871 10.6362 6.03075 10.6362 5.84637V4.3076C10.6362 4.26208 10.6044 4.22111 10.5907 4.21428L9.38654 4.21655C9.38882 4.22111 9.3615 4.2598 9.3615 4.30533V5.84637C9.3615 6.03075 9.21354 6.17871 9.02916 6.17871H7.49495C7.44715 6.17871 7.413 6.2083 7.40845 6.21968L7.41073 7.43522C7.41528 7.43522 7.44942 7.46026 7.49495 7.46026H9.02916C9.21127 7.46026 9.3615 7.61049 9.3615 7.7926V9.33364C9.3615 9.38144 9.39109 9.41559 9.40248 9.42014L10.6157 9.41786C10.6135 9.41559 10.6431 9.38144 10.6431 9.33364L10.6385 7.7926C10.6385 7.70382 10.6726 7.6196 10.7364 7.55586C10.8001 7.4944 10.8843 7.45798 10.9708 7.45798H12.5028V7.46481ZM12.5028 5.51176C12.9034 5.51176 13.2539 5.83727 13.2539 6.20375V7.4375C13.2539 7.80625 12.9034 8.12949 12.5028 8.12949H11.3009L11.3032 9.33592C11.3032 9.74337 10.9868 10.0871 10.6135 10.0871H9.38654C9.01323 10.0871 8.69683 9.74337 8.69683 9.33592V8.12721H7.49495C7.08977 8.12721 6.74605 7.81081 6.74605 7.43522V6.20603C6.74605 5.83044 7.08977 5.51404 7.49495 5.51404H8.69683V4.3076C8.69683 3.89787 9.01095 3.55188 9.38654 3.55188H10.6089C10.9754 3.55188 11.2986 3.9047 11.2986 4.3076V5.51176H12.5028Z" fill="#86888C"/>
</svg>
