<svg width="24" height="24" viewBox="0 0 24 24" fill="none" xmlns="http://www.w3.org/2000/svg">
<path fill-rule="evenodd" clip-rule="evenodd" d="M12.4396 21.1578C14.4854 21.1208 21.1635 20.3525 21.1635 12.027C21.1635 8.42197 19.9286 5.81847 17.4986 4.29336C15.5126 3.04709 13.2705 2.86499 12.3969 2.84223C12.1465 2.83653 11.899 2.83369 11.6486 2.83369H11.475C10.6072 2.84223 8.38213 2.99303 6.42453 4.22222C4.04012 5.72172 2.83369 8.32807 2.83369 11.9673C2.83369 15.6093 4.05435 18.2242 6.46152 19.7436C8.43619 20.9871 10.6812 21.1492 11.5547 21.1635C11.6543 21.1663 11.7539 21.1663 11.8535 21.1663C12.0612 21.1635 12.2632 21.1606 12.4396 21.1578ZM12.4168 2.01138C14.3744 2.05691 21.9972 2.83084 21.9972 12.027C21.9972 21.2431 14.3659 21.9573 12.4567 21.9943C12.2746 21.9972 12.064 22 11.8535 22C11.7482 22 11.6429 22 11.5405 21.9972C9.53165 21.9659 2 21.2403 2 11.9673C2 2.70849 9.46337 2.01707 11.4693 2H11.6486C11.9104 2 12.1807 2.00285 12.4168 2.01138ZM16.3804 17.4133V6.58387H13.9078V10.9999H10.0893V6.58387H7.61673V17.4133H10.0893V12.855H13.9078V17.4161L16.3804 17.4133ZM16.3804 5.75302C16.8414 5.75302 17.2141 6.12576 17.2141 6.58671V17.4161C17.2141 17.8771 16.8414 18.2498 16.3804 18.2498H13.9078C13.4469 18.2498 13.0741 17.8771 13.0741 17.4161V13.6887H10.923V17.4161C10.923 17.8771 10.5503 18.2498 10.0893 18.2498H7.61958C7.15863 18.2498 6.78589 17.8771 6.78589 17.4161V6.58387C6.78589 6.12292 7.15863 5.75018 7.61958 5.75018H10.0922C10.5531 5.75018 10.9259 6.12292 10.9259 6.58387V10.1662H13.077V6.58387C13.077 6.12292 13.4497 5.75018 13.9107 5.75018C13.9078 5.75302 16.3804 5.75302 16.3804 5.75302Z" fill="#86888C"/>
</svg>
