<svg width="20" height="20" viewBox="0 0 20 20" fill="none" xmlns="http://www.w3.org/2000/svg">
<path fill-rule="evenodd" clip-rule="evenodd" d="M17.3329 15.0051V4.99715C17.3329 4.88788 17.1121 4.67615 16.8457 4.67615H3.15424C2.8856 4.67615 2.66932 4.86966 2.66932 4.99715L2.66705 15.0074C2.66705 15.1349 2.8856 15.3284 3.15424 15.3284H16.848C17.1121 15.3261 17.3329 15.1144 17.3329 15.0051ZM16.8457 4C17.4513 4 18 4.47353 18 4.99488V15.0051C18 15.5242 17.449 16 16.8457 16H3.15196C2.53956 16.0023 2 15.5356 2 15.0051L2.00228 4.99488C2.00228 4.46443 2.54183 4 3.15652 4H16.8457ZM5.98178 6.53614C5.43085 6.53614 4.98235 6.98918 4.98235 7.54468C4.98235 8.10244 5.43085 8.55321 5.98178 8.55321C6.53272 8.55321 6.98121 8.10017 6.98121 7.54468C6.98121 6.98918 6.53272 6.53614 5.98178 6.53614ZM5.98178 9.22936C5.06204 9.22936 4.31531 8.47353 4.31531 7.54695C4.31531 6.62037 5.06204 5.86454 5.98178 5.86454C6.90153 5.86454 7.64826 6.62037 7.64826 7.54695C7.64826 8.47353 6.90153 9.22936 5.98178 9.22936ZM13.5469 8.60785L16.1855 10.6454C16.3312 10.7592 16.3608 10.971 16.2493 11.1189C16.14 11.2647 15.9306 11.2942 15.7849 11.1827L15.7826 11.1804L13.3489 9.30222L10.4986 11.5925L12.2402 13.2499C12.3745 13.3773 12.3813 13.5913 12.2538 13.7257C12.1286 13.86 11.9214 13.8668 11.7871 13.7439L11.7826 13.7393L8.93227 11.0279L4.86852 14.4428C4.72737 14.5612 4.51793 14.543 4.40182 14.4018L4.39954 14.3995C4.28116 14.2561 4.30165 14.0444 4.4428 13.926L8.73193 10.3176C8.86169 10.2083 9.05293 10.2151 9.17359 10.3312L10.0068 11.1235L13.1372 8.6124C13.2555 8.51679 13.424 8.51451 13.5469 8.60785Z" fill="#86888C"/>
</svg>
