<svg width="24" height="24" viewBox="0 0 24 24" fill="none" xmlns="http://www.w3.org/2000/svg">
<path fill-rule="evenodd" clip-rule="evenodd" d="M21.1662 17.7564V5.24644C21.1662 5.10985 20.8901 4.84519 20.5572 4.84519H3.4428C3.107 4.84519 2.83665 5.08708 2.83665 5.24644L2.83381 17.7592C2.83381 17.9186 3.107 18.1605 3.4428 18.1605H20.56C20.8901 18.1576 21.1662 17.893 21.1662 17.7564ZM20.5572 4C21.3142 4 22 4.59192 22 5.2436V17.7564C22 18.4052 21.3113 19 20.5572 19H3.43995C2.67444 19.0028 2 18.4195 2 17.7564L2.00285 5.2436C2.00285 4.58053 2.67729 4 3.44564 4H20.5572ZM6.97723 7.17017C6.28856 7.17017 5.72794 7.73648 5.72794 8.43084C5.72794 9.12806 6.28856 9.69151 6.97723 9.69151C7.6659 9.69151 8.22652 9.12521 8.22652 8.43084C8.22652 7.73648 7.6659 7.17017 6.97723 7.17017ZM6.97723 10.5367C5.82754 10.5367 4.89414 9.59191 4.89414 8.43369C4.89414 7.27547 5.82754 6.33068 6.97723 6.33068C8.12692 6.33068 9.06032 7.27547 9.06032 8.43369C9.06032 9.59191 8.12692 10.5367 6.97723 10.5367ZM16.4337 9.75981L19.7319 12.3068C19.914 12.4491 19.951 12.7137 19.8116 12.8987C19.675 13.0808 19.4132 13.1178 19.2311 12.9784L19.2282 12.9755L16.1861 10.6278L12.6232 13.4906L14.8002 15.5623C14.9681 15.7217 14.9767 15.9892 14.8173 16.1571C14.6608 16.325 14.4018 16.3335 14.2339 16.1798L14.2282 16.1742L10.6653 12.7849L5.58565 17.0535C5.40922 17.2015 5.14741 17.1787 5.00227 17.0023L4.99943 16.9994C4.85145 16.8201 4.87706 16.5555 5.0535 16.4075L10.4149 11.897C10.5771 11.7604 10.8162 11.7689 10.967 11.9141L12.0085 12.9044L15.9214 9.7655C16.0694 9.64598 16.28 9.64314 16.4337 9.75981Z" fill="#86888C"/>
</svg>
