<svg width="40" height="40" viewBox="0 0 40 40" fill="none" xmlns="http://www.w3.org/2000/svg">
<path fill-rule="evenodd" clip-rule="evenodd" d="M36.4991 31.7615V9.2436C36.4991 8.99772 36.0023 8.52134 35.4029 8.52134H4.59704C3.9926 8.52134 3.50598 8.95674 3.50598 9.2436L3.50085 31.7666C3.50085 32.0535 3.9926 32.4889 4.59704 32.4889H35.4081C36.0023 32.4838 36.4991 32.0074 36.4991 31.7615ZM35.4029 7C36.7655 7 38 8.06545 38 9.23847V31.7615C38 32.9294 36.7604 34 35.4029 34H4.59192C3.214 34.0051 2 32.955 2 31.7615L2.00512 9.23847C2.00512 8.04496 3.21912 7 4.60216 7H35.4029ZM10.959 12.7063C9.7194 12.7063 8.7103 13.7257 8.7103 14.9755C8.7103 16.2305 9.7194 17.2447 10.959 17.2447C12.1986 17.2447 13.2077 16.2254 13.2077 14.9755C13.2077 13.7257 12.1986 12.7063 10.959 12.7063ZM10.959 18.7661C8.88958 18.7661 7.20944 17.0654 7.20944 14.9806C7.20944 12.8958 8.88958 11.1952 10.959 11.1952C13.0284 11.1952 14.7086 12.8958 14.7086 14.9806C14.7086 17.0654 13.0284 18.7661 10.959 18.7661ZM27.9806 17.3677L33.9174 21.9522C34.2453 22.2083 34.3119 22.6847 34.0609 23.0176C33.815 23.3455 33.3437 23.4121 33.0159 23.1611L33.0108 23.1559L27.535 18.93L21.1218 24.0831L25.0404 27.8122C25.3426 28.099 25.358 28.5805 25.0711 28.8827C24.7894 29.185 24.3233 29.2003 24.021 28.9237L24.0108 28.9135L17.5976 22.8127L8.45418 30.4963C8.13659 30.7626 7.66533 30.7217 7.40409 30.4041L7.39897 30.399C7.13261 30.0762 7.17871 29.5999 7.4963 29.3335L17.1468 21.2146C17.4388 20.9687 17.8691 20.9841 18.1406 21.2453L20.0154 23.0279L27.0586 17.3779C27.325 17.1628 27.704 17.1576 27.9806 17.3677Z" fill="#86888C"/>
</svg>
