<svg width="28" height="28" viewBox="0 0 28 28" fill="none" xmlns="http://www.w3.org/2000/svg">
<path fill-rule="evenodd" clip-rule="evenodd" d="M24.9994 21.5077V6.49573C24.9994 6.33181 24.6682 6.01423 24.2686 6.01423H3.73136C3.3284 6.01423 3.00398 6.3045 3.00398 6.49573L3.00057 21.5111C3.00057 21.7023 3.3284 21.9926 3.73136 21.9926H24.272C24.6682 21.9892 24.9994 21.6716 24.9994 21.5077ZM24.2686 5C25.177 5 26 5.7103 26 6.49232V21.5077C26 22.2863 25.1736 23 24.2686 23H3.72794C2.80933 23.0034 2 22.3033 2 21.5077L2.00341 6.49232C2.00341 5.69664 2.81275 5 3.73477 5H24.2686ZM7.97268 8.80421C7.14627 8.80421 6.47353 9.48378 6.47353 10.317C6.47353 11.1537 7.14627 11.8298 7.97268 11.8298C8.79908 11.8298 9.47182 11.1503 9.47182 10.317C9.47182 9.48378 8.79908 8.80421 7.97268 8.80421ZM7.97268 12.844C6.59305 12.844 5.47296 11.7103 5.47296 10.3204C5.47296 8.93056 6.59305 7.79681 7.97268 7.79681C9.3523 7.79681 10.4724 8.93056 10.4724 10.3204C10.4724 11.7103 9.3523 12.844 7.97268 12.844ZM19.3204 11.9118L23.2783 14.9681C23.4969 15.1389 23.5412 15.4565 23.3739 15.6784C23.21 15.897 22.8958 15.9414 22.6773 15.774L22.6739 15.7706L19.0233 12.9533L14.7479 16.3887L17.3603 18.8748C17.5617 19.066 17.572 19.387 17.3808 19.5885C17.1929 19.79 16.8822 19.8002 16.6807 19.6158L16.6739 19.609L12.3984 15.5418L6.30279 20.6642C6.09106 20.8418 5.77689 20.8144 5.60273 20.6027L5.59931 20.5993C5.42174 20.3842 5.45247 20.0666 5.6642 19.889L12.0979 14.4764C12.2925 14.3125 12.5794 14.3227 12.7604 14.4969L14.0102 15.6853L18.7057 11.9186C18.8833 11.7752 19.136 11.7718 19.3204 11.9118Z" fill="#86888C"/>
</svg>
