<svg width="40" height="40" viewBox="0 0 40 40" fill="none" xmlns="http://www.w3.org/2000/svg">
<path d="M36.2236 38H3.9441C2.86987 38 2 37.1249 2 36.0507V29.2699C2 28.8349 2.35109 28.4838 2.78603 28.4838C3.22096 28.4838 3.57205 28.8349 3.57205 29.2699V36.0507C3.57205 36.255 3.73974 36.4279 3.9441 36.4279H36.2236C36.4279 36.4279 36.6009 36.2603 36.6009 36.0507V29.8568C36.6009 29.4218 36.952 29.0707 37.3869 29.0707C37.8218 29.0707 38.1729 29.4218 38.1729 29.8568V36.0559C38.1729 37.1249 37.2978 38 36.2236 38Z" fill="#86888C"/>
<path d="M20.2201 29.5948C19.7851 29.5948 19.4341 29.2437 19.4341 28.8087V2.78603C19.4341 2.35109 19.7851 2 20.2201 2C20.655 2 21.0061 2.35109 21.0061 2.78603V28.8087C21.0061 29.2437 20.655 29.5948 20.2201 29.5948Z" fill="#86888C"/>
<path d="M9.29431 14.3616C9.08994 14.3616 8.88557 14.283 8.73361 14.1258C8.42968 13.8166 8.43492 13.3188 8.74409 13.0148L19.3816 2.5607C19.848 2.09957 20.5869 2.09957 21.0585 2.55546L31.8375 13.0096C32.1467 13.3135 32.1572 13.8114 31.8533 14.1205C31.5493 14.4297 31.0515 14.4402 30.7423 14.1362L20.2253 3.93887L9.84453 14.1362C9.69256 14.2882 9.49343 14.3616 9.29431 14.3616Z" fill="#86888C"/>
</svg>
