<svg width="20" height="20" viewBox="0 0 20 20" fill="none" xmlns="http://www.w3.org/2000/svg">
<path d="M17.2105 18H2.86405C2.38661 18 2 17.6111 2 17.1336V14.1199C2 13.9266 2.15604 13.7706 2.34934 13.7706C2.54265 13.7706 2.69869 13.9266 2.69869 14.1199V17.1336C2.69869 17.2245 2.77322 17.3013 2.86405 17.3013H17.2105C17.3013 17.3013 17.3782 17.2268 17.3782 17.1336V14.3808C17.3782 14.1875 17.5342 14.0314 17.7275 14.0314C17.9208 14.0314 18.0769 14.1875 18.0769 14.3808V17.136C18.0769 17.6111 17.6879 18 17.2105 18Z" fill="#86888C"/>
<path d="M10.0978 14.2643C9.90451 14.2643 9.74847 14.1083 9.74847 13.915V2.34934C9.74847 2.15604 9.90451 2 10.0978 2C10.2911 2 10.4472 2.15604 10.4472 2.34934V13.915C10.4472 14.1083 10.2911 14.2643 10.0978 14.2643Z" fill="#86888C"/>
<path d="M5.24191 7.49403C5.15108 7.49403 5.06025 7.4591 4.99271 7.38923C4.85763 7.25182 4.85996 7.03057 4.99737 6.89549L9.72517 2.2492C9.93245 2.04425 10.2608 2.04425 10.4704 2.24687L15.2611 6.89316C15.3985 7.02824 15.4032 7.24949 15.2681 7.3869C15.133 7.52431 14.9118 7.52897 14.7744 7.39389L10.1001 2.86172L5.48646 7.39389C5.41892 7.46143 5.33042 7.49403 5.24191 7.49403Z" fill="#86888C"/>
</svg>
