<svg width="20" height="20" viewBox="0 0 20 20" fill="none" xmlns="http://www.w3.org/2000/svg">
<path fill-rule="evenodd" clip-rule="evenodd" d="M9.53143 11.4629C9.85399 11.4629 10.0617 11.6353 10.0617 12.0064C10.0617 12.1854 10.0131 12.3179 9.92689 12.4085C9.8341 12.5057 9.69713 12.5521 9.52922 12.5521C9.36132 12.5521 9.22434 12.5057 9.13155 12.4085C9.04539 12.3179 8.99679 12.1854 8.99679 12.0064C8.999 11.6353 9.20888 11.4629 9.53143 11.4629ZM10.0108 4.3336C10.0108 4.51697 9.86724 4.66499 9.68829 4.66499C4.94718 4.66499 2.64511 7.03997 2.64511 11.9247C2.64511 12.1081 2.50151 12.2583 2.32255 12.2583C2.1436 12.2583 2 12.1103 2 11.9247C2 6.6666 4.58707 4 9.68829 4C9.86724 4.00221 10.0108 4.15023 10.0108 4.3336ZM9.99759 7.03113C9.99759 7.2145 9.85399 7.36252 9.67503 7.36252C6.67483 7.36252 5.21671 8.86704 5.21671 11.9578C5.21671 12.1412 5.07311 12.2892 4.89416 12.2892C4.7152 12.2892 4.5716 12.1412 4.5716 11.9578C4.5716 8.51577 6.33681 6.69753 9.67503 6.69753C9.85178 6.69753 9.99759 6.84555 9.99759 7.03113ZM16.8817 13.1597V10.7714C16.8795 10.6256 16.7668 10.4997 16.6276 10.4864H15.8544V13.4491H16.6122C16.7602 13.4469 16.8817 13.3165 16.8817 13.1597ZM14.7851 14.335C15.0215 14.335 15.2159 14.1318 15.2159 13.8843V13.7783H15.2093V10.0689C15.2093 9.81924 15.0149 9.6182 14.7785 9.6182H10.0926C8.68528 9.66459 7.96726 10.4577 7.96726 11.9733C7.96726 13.4889 8.68528 14.282 10.1036 14.335H14.7851ZM16.6033 9.81703C17.1026 9.81703 17.5158 10.2412 17.5268 10.7626V13.1597C17.5268 13.6833 17.1159 14.1119 16.61 14.1119H15.8367C15.7351 14.6178 15.3021 15 14.7829 15H10.0771C8.29865 14.9337 7.31773 13.8578 7.31773 11.9733C7.31773 10.0844 8.29865 9.01064 10.0771 8.9532H14.7741C15.2844 8.9532 15.713 9.32436 15.8235 9.81924H16.0775V9.81703H16.6033Z" fill="#86888C"/>
</svg>
