<svg width="24" height="24" viewBox="0 0 24 24" fill="none" xmlns="http://www.w3.org/2000/svg">
<path d="M11.9986 22.1704C5.45907 22.1704 2 18.7142 2 12.1718C2 5.62948 5.45623 2.17041 11.9986 2.17041C15.19 2.17041 17.6641 2.99603 19.358 4.62735C21.1117 6.31845 22.0028 8.85795 22.0028 12.1747C22.0028 18.7113 18.5438 22.1704 11.9986 22.1704ZM11.9986 2.73981C5.74377 2.73981 2.5694 5.91418 2.5694 12.1718C2.5694 18.4266 5.74093 21.601 11.9986 21.601C18.2591 21.601 21.4306 18.4295 21.4306 12.1718C21.4334 5.91134 18.2591 2.73981 11.9986 2.73981Z" fill="#86888C"/>
<path d="M11.9473 22.0907C11.7822 22.0907 11.6484 21.9569 11.6484 21.7918V2.48927C11.6484 2.32414 11.7822 2.19033 11.9473 2.19033C12.1125 2.19033 12.2463 2.32414 12.2463 2.48927V21.7918C12.2463 21.9569 12.1125 22.0907 11.9473 22.0907Z" fill="#86888C"/>
<path d="M21.1431 8.87219H2.77153C2.61494 8.87219 2.48683 8.74408 2.48683 8.58749C2.48683 8.43091 2.61494 8.3028 2.77153 8.3028H21.1402C21.2968 8.3028 21.4249 8.43091 21.4249 8.58749C21.4249 8.74408 21.2996 8.87219 21.1431 8.87219Z" fill="#86888C"/>
<path d="M11.8335 22.0708C10.279 22.0708 8.83275 21.0174 7.75659 19.1042C6.71175 17.2423 6.13382 14.774 6.13382 12.1519C6.13382 9.52984 6.70891 7.06151 7.75659 5.19959C8.83275 3.28642 10.279 2.23304 11.8335 2.23304C13.3879 2.23304 14.8342 3.28642 15.9103 5.19959C16.9552 7.06151 17.5331 9.52984 17.5331 12.1519C17.5331 14.774 16.958 17.2423 15.9103 19.1042C14.8342 21.0174 13.3879 22.0708 11.8335 22.0708ZM11.8335 2.79959C10.4954 2.79959 9.22278 3.75048 8.25481 5.47575C7.25553 7.25511 6.70606 9.62379 6.70606 12.1519C6.70606 14.6772 7.25553 17.0487 8.25481 18.8281C9.22563 20.5533 10.4954 21.5042 11.8335 21.5042C13.1715 21.5042 14.4441 20.5533 15.4121 18.8281C16.4114 17.0487 16.9609 14.68 16.9609 12.1519C16.9609 9.62664 16.4114 7.25511 15.4121 5.47575C14.4441 3.74763 13.1744 2.79959 11.8335 2.79959Z" fill="#86888C"/>
<path d="M21.1459 16.616H2.8968C2.74022 16.616 2.6121 16.4878 2.6121 16.3313C2.6121 16.1747 2.74022 16.0466 2.8968 16.0466H21.1459C21.3025 16.0466 21.4306 16.1747 21.4306 16.3313C21.4306 16.4878 21.3025 16.616 21.1459 16.616Z" fill="#86888C"/>
</svg>
