<svg width="40" height="40" viewBox="0 0 40 40" fill="none" xmlns="http://www.w3.org/2000/svg">
<path fill-rule="evenodd" clip-rule="evenodd" d="M34.0609 31.708C35.3825 31.708 36.4582 32.7581 36.4582 34.0489C36.4582 35.35 35.3825 36.4001 34.0609 36.4001C32.724 36.4001 31.6483 35.35 31.6483 34.0489C31.6534 32.753 32.7291 31.708 34.0609 31.708ZM12.8492 28.4399C15.7689 27.7382 18.4889 27.5435 19.7029 27.4821V36.6767C16.7729 36.2003 14.2373 33.0091 12.8492 28.4399ZM6.48719 31.0626C7.9317 30.0893 9.62208 29.3722 11.3586 28.8446C12.3421 32.1127 13.9095 34.7353 15.8201 36.3642C11.6352 35.6471 8.53102 33.8799 6.48719 31.0626ZM5.67274 29.7922C4.3819 27.4872 3.67501 24.6084 3.56744 21.1611H10.1599C10.2214 23.3637 10.498 25.4741 10.959 27.395C9.11497 27.9482 7.25555 28.7268 5.67274 29.7922ZM5.642 10.7626C7.27092 11.8383 9.11497 12.6221 10.9437 13.1753C10.4673 15.1679 10.206 17.3551 10.1599 19.6602H3.56744C3.62891 16.095 4.32043 13.1343 5.642 10.7626ZM15.8355 4.14455C13.9146 5.78883 12.3421 8.42685 11.3483 11.7257C9.64257 11.2032 7.93682 10.4809 6.46158 9.4923C8.50028 6.65963 11.6198 4.87705 15.8355 4.14455ZM19.708 3.82696V13.0677C18.494 13.0062 15.7894 12.827 12.8389 12.1252C14.2373 7.52531 16.7575 4.32383 19.708 3.82696ZM11.6966 19.6653C11.7427 17.5088 12.004 15.4547 12.4496 13.5799C15.5692 14.3432 18.4274 14.5225 19.7029 14.5686V19.6602H11.6966V19.6653ZM19.708 21.1611V25.9863C18.4479 26.0324 15.5743 26.222 12.4548 26.9903C12.0245 25.1924 11.7632 23.2305 11.7018 21.1611H19.708ZM34.0609 4.42628C35.3825 4.42628 36.4582 5.48661 36.4582 6.77745C36.4582 8.06828 35.3825 9.11324 34.0609 9.11324C32.724 9.11324 31.6483 8.06828 31.6483 6.77745C31.6534 5.49173 32.7291 4.42628 34.0609 4.42628ZM34.0609 18.1184C35.3825 18.1184 36.4582 19.1685 36.4582 20.4542C36.4582 21.7552 35.3825 22.8053 34.0609 22.8053C32.724 22.8053 31.6483 21.7552 31.6483 20.4542C31.6534 19.1685 32.7291 18.1184 34.0609 18.1184ZM21.4291 21.2072H30.1884C30.5572 22.9744 32.14 24.3113 34.0609 24.3113C36.2277 24.3113 38 22.5851 38 20.4593C38 18.3489 36.2328 16.6278 34.0609 16.6278C32.14 16.6278 30.5572 17.9596 30.1884 19.7114H21.4291C21.3677 19.7114 21.3062 19.7422 21.2447 19.7575V16.9249H26.9459C27.3608 16.9249 27.7143 16.5919 27.7143 16.177L27.8065 7.53043H30.1116C30.1423 7.53043 30.1577 7.51507 30.1884 7.51507C30.5418 9.28228 32.14 10.6141 34.0609 10.6141C36.2277 10.6141 38 8.89298 38 6.77745C38 4.65166 36.2328 2.93055 34.0609 2.93055C32.14 2.93055 30.5418 4.27773 30.1884 6.04495C30.1577 6.04495 30.1423 6.02958 30.1116 6.02958H27.0381C26.6232 6.02958 26.2851 6.35741 26.2698 6.7672L26.1776 15.424H21.2447V3.00226C21.2447 2.59759 20.9067 2.25439 20.4764 2.25439C8.39784 2.25439 2 8.48832 2 20.2595C2 20.2903 2 20.3364 2.01537 20.3773C2 20.3927 2 20.3927 2 20.4081C2 20.4081 2.01537 20.4234 2.01537 20.4388C2.03073 24.7518 2.92203 28.317 4.64314 31.0882C4.67388 31.1958 4.71998 31.2829 4.78145 31.3751C4.81218 31.4212 4.87365 31.4365 4.90438 31.4673C7.8856 35.9288 13.1104 38.2544 20.4764 38.2544C20.9067 38.2544 21.2447 37.9214 21.2447 37.5065V25.4024H26.1776L26.2698 34.0592C26.2851 34.4638 26.6232 34.7968 27.0381 34.7968H30.1116C30.1423 34.7968 30.1577 34.7968 30.1884 34.7814C30.5418 36.5486 32.14 37.8958 34.0609 37.8958C36.2277 37.8958 38 36.1696 38 34.0438C38 31.9283 36.2328 30.2072 34.0609 30.2072C32.14 30.2072 30.5418 31.5441 30.1884 33.3062C30.1577 33.3062 30.1423 33.2908 30.1116 33.2908H27.8065L27.7143 24.6443C27.7143 24.2242 27.3608 23.8964 26.9459 23.8964H21.2447V21.1713C21.3062 21.1918 21.3677 21.2072 21.4291 21.2072Z" fill="#86888C"/>
</svg>
