<svg width="20" height="20" viewBox="0 0 20 20" fill="none" xmlns="http://www.w3.org/2000/svg">
<path fill-rule="evenodd" clip-rule="evenodd" d="M16.2493 15.0905C16.8367 15.0905 17.3147 15.5572 17.3147 16.1309C17.3147 16.7092 16.8367 17.1759 16.2493 17.1759C15.6551 17.1759 15.177 16.7092 15.177 16.1309C15.1793 15.5549 15.6574 15.0905 16.2493 15.0905ZM6.82186 13.638C8.11952 13.3261 9.3284 13.2396 9.86796 13.2123V17.2988C8.56574 17.0871 7.43882 15.6688 6.82186 13.638ZM3.99431 14.8036C4.63631 14.3711 5.38759 14.0524 6.15936 13.8179C6.59647 15.2703 7.29311 16.436 8.14229 17.1599C6.2823 16.8412 4.90268 16.0558 3.99431 14.8036ZM3.63233 14.239C3.05862 13.2146 2.74445 11.9351 2.69664 10.403H5.62664C5.65396 11.3819 5.77689 12.3199 5.98179 13.1736C5.16221 13.4195 4.3358 13.7655 3.63233 14.239ZM3.61867 5.78145C4.34263 6.25953 5.16221 6.60785 5.97496 6.85373C5.76323 7.73933 5.64713 8.71144 5.62664 9.73591H2.69664C2.72396 8.15139 3.0313 6.83552 3.61867 5.78145ZM8.14912 2.84007C7.29539 3.57086 6.59647 4.74331 6.15481 6.20945C5.3967 5.97723 4.63859 5.65623 3.98293 5.21685C4.88902 3.95788 6.27547 3.16562 8.14912 2.84007ZM9.87023 2.69892V6.80592C9.33068 6.7786 8.12863 6.69892 6.8173 6.38702C7.43882 4.34263 8.55891 2.91975 9.87023 2.69892ZM6.30962 9.73819C6.33011 8.77974 6.44622 7.86682 6.64428 7.03358C8.03073 7.3728 9.30108 7.45248 9.86796 7.47297V9.73591H6.30962V9.73819ZM9.87023 10.403V12.5475C9.31019 12.568 8.03301 12.6522 6.64656 12.9937C6.45532 12.1947 6.33921 11.3227 6.3119 10.403H9.87023ZM16.2493 2.96528C16.8367 2.96528 17.3147 3.43654 17.3147 4.01024C17.3147 4.58395 16.8367 5.04838 16.2493 5.04838C15.6551 5.04838 15.177 4.58395 15.177 4.01024C15.1793 3.43882 15.6574 2.96528 16.2493 2.96528ZM16.2493 9.05066C16.8367 9.05066 17.3147 9.51736 17.3147 10.0888C17.3147 10.667 16.8367 11.1338 16.2493 11.1338C15.6551 11.1338 15.177 10.667 15.177 10.0888C15.1793 9.51736 15.6574 9.05066 16.2493 9.05066ZM10.6352 10.4234H14.5282C14.6921 11.2089 15.3956 11.8031 16.2493 11.8031C17.2123 11.8031 18 11.0359 18 10.0911C18 9.1531 17.2146 8.38816 16.2493 8.38816C15.3956 8.38816 14.6921 8.98008 14.5282 9.75868H10.6352C10.6079 9.75868 10.5805 9.77234 10.5532 9.77917V8.52021H13.0871C13.2715 8.52021 13.4286 8.37223 13.4286 8.18782L13.4696 4.34491H14.494C14.5077 4.34491 14.5145 4.33808 14.5282 4.33808C14.6853 5.12351 15.3956 5.71542 16.2493 5.71542C17.2123 5.71542 18 4.95048 18 4.01024C18 3.06545 17.2146 2.30051 16.2493 2.30051C15.3956 2.30051 14.6853 2.89926 14.5282 3.68469C14.5145 3.68469 14.5077 3.67786 14.494 3.67786H13.1281C12.9437 3.67786 12.7934 3.82356 12.7866 4.00569L12.7456 7.85316H10.5532V2.33238C10.5532 2.15253 10.403 2 10.2117 2C4.84348 2 2 4.77063 2 10.0023C2 10.0159 2 10.0364 2.00683 10.0546C2 10.0615 2 10.0615 2 10.0683C2 10.0683 2.00683 10.0751 2.00683 10.082C2.01366 11.9989 2.40979 13.5834 3.17473 14.815C3.18839 14.8628 3.20888 14.9015 3.2362 14.9425C3.24986 14.963 3.27718 14.9698 3.29084 14.9835C4.61582 16.9664 6.93796 18 10.2117 18C10.403 18 10.5532 17.852 10.5532 17.6676V12.288H12.7456L12.7866 16.1355C12.7934 16.3153 12.9437 16.4633 13.1281 16.4633H14.494C14.5077 16.4633 14.5145 16.4633 14.5282 16.4565C14.6853 17.2419 15.3956 17.8406 16.2493 17.8406C17.2123 17.8406 18 17.0734 18 16.1286C18 15.1884 17.2146 14.4235 16.2493 14.4235C15.3956 14.4235 14.6853 15.0176 14.5282 15.8008C14.5145 15.8008 14.5077 15.794 14.494 15.794H13.4696L13.4286 11.9511C13.4286 11.7644 13.2715 11.6187 13.0871 11.6187H10.5532V10.4075C10.5805 10.4166 10.6079 10.4234 10.6352 10.4234Z" fill="#86888C"/>
</svg>
