<svg width="28" height="28" viewBox="0 0 28 28" fill="none" xmlns="http://www.w3.org/2000/svg">
<path d="M13.9983 26.1704C6.15089 26.1704 2 22.0229 2 14.1721C2 6.3213 6.14747 2.17041 13.9983 2.17041C17.828 2.17041 20.7969 3.16116 22.8296 5.11874C24.9341 7.14806 26.0034 10.1955 26.0034 14.1755C26.0034 22.0195 21.8525 26.1704 13.9983 26.1704ZM13.9983 2.85368C6.49253 2.85368 2.68327 6.66294 2.68327 14.1721C2.68327 21.6779 6.48911 25.4871 13.9983 25.4871C21.5109 25.4871 25.3167 21.6813 25.3167 14.1721C25.3201 6.65952 21.5109 2.85368 13.9983 2.85368Z" fill="#86888C"/>
<path d="M13.9368 26.0747C13.7387 26.0747 13.5781 25.9142 13.5781 25.716V2.55304C13.5781 2.35489 13.7387 2.19432 13.9368 2.19432C14.135 2.19432 14.2955 2.35489 14.2955 2.55304V25.716C14.2955 25.9142 14.135 26.0747 13.9368 26.0747Z" fill="#86888C"/>
<path d="M24.9717 10.2125H2.92583C2.73793 10.2125 2.58419 10.0588 2.58419 9.87091C2.58419 9.68301 2.73793 9.52928 2.92583 9.52928H24.9683C25.1562 9.52928 25.3099 9.68301 25.3099 9.87091C25.3099 10.0588 25.1596 10.2125 24.9717 10.2125Z" fill="#86888C"/>
<path d="M13.8002 26.0508C11.9348 26.0508 10.1993 24.7868 8.90791 22.491C7.6541 20.2567 6.96058 17.2947 6.96058 14.1482C6.96058 11.0017 7.65069 8.03973 8.90791 5.80543C10.1993 3.50962 11.9348 2.24557 13.8002 2.24557C15.6655 2.24557 17.401 3.50962 18.6924 5.80543C19.9462 8.03973 20.6397 11.0017 20.6397 14.1482C20.6397 17.2947 19.9496 20.2567 18.6924 22.491C17.401 24.7868 15.6655 26.0508 13.8002 26.0508ZM13.8002 2.92543C12.1945 2.92543 10.6673 4.06649 9.50578 6.13681C8.30663 8.27204 7.64727 11.1145 7.64727 14.1482C7.64727 17.1785 8.30663 20.0244 9.50578 22.1596C10.6708 24.2299 12.1945 25.371 13.8002 25.371C15.4058 25.371 16.933 24.2299 18.0945 22.1596C19.2937 20.0244 19.953 17.1819 19.953 14.1482C19.953 11.1179 19.2937 8.27204 18.0945 6.13681C16.933 4.06308 15.4093 2.92543 13.8002 2.92543Z" fill="#86888C"/>
<path d="M24.9751 19.5051H3.07616C2.88826 19.5051 2.73452 19.3513 2.73452 19.1634C2.73452 18.9755 2.88826 18.8218 3.07616 18.8218H24.9751C25.163 18.8218 25.3167 18.9755 25.3167 19.1634C25.3167 19.3513 25.163 19.5051 24.9751 19.5051Z" fill="#86888C"/>
</svg>
