<svg width="24" height="24" viewBox="0 0 24 24" fill="none" xmlns="http://www.w3.org/2000/svg">
<path fill-rule="evenodd" clip-rule="evenodd" d="M19.8116 18.3631C20.5458 18.3631 21.1434 18.9465 21.1434 19.6636C21.1434 20.3865 20.5458 20.9698 19.8116 20.9698C19.0689 20.9698 18.4713 20.3865 18.4713 19.6636C18.4741 18.9437 19.0717 18.3631 19.8116 18.3631ZM8.02732 16.5475C9.6494 16.1577 11.1605 16.0495 11.8349 16.0154V21.1235C10.2072 20.8589 8.79852 19.0859 8.02732 16.5475ZM4.49289 18.0046C5.29539 17.4639 6.23449 17.0655 7.1992 16.7723C7.74559 18.5879 8.61639 20.045 9.67786 20.9499C7.35287 20.5515 5.62834 19.5697 4.49289 18.0046ZM4.04041 17.2988C3.32328 16.0182 2.93056 14.4189 2.8708 12.5037H6.5333C6.56744 13.7274 6.72112 14.8998 6.97723 15.967C5.95276 16.2743 4.91975 16.7069 4.04041 17.2988ZM4.02334 6.72681C4.92829 7.32442 5.95276 7.75982 6.9687 8.06716C6.70404 9.17416 6.55891 10.3893 6.5333 11.6699H2.8708C2.90495 9.68924 3.28913 8.04439 4.02334 6.72681ZM9.6864 3.05009C8.61924 3.96357 7.74559 5.42914 7.19351 7.26181C6.24587 6.97154 5.29824 6.57029 4.47866 6.02106C5.61127 4.44735 7.34434 3.45703 9.6864 3.05009ZM11.8378 2.87365V8.0074C11.1633 7.97325 9.66079 7.87365 8.02163 7.48378C8.79852 4.92829 10.1986 3.14969 11.8378 2.87365ZM7.38702 11.6727C7.41264 10.4747 7.55777 9.33352 7.80535 8.29198C9.53842 8.71599 11.1264 8.81559 11.8349 8.84121V11.6699H7.38702V11.6727ZM11.8378 12.5037V15.1844C11.1377 15.21 9.54126 15.3153 7.8082 15.7422C7.56915 14.7433 7.42402 13.6534 7.38987 12.5037H11.8378ZM19.8116 3.2066C20.5458 3.2066 21.1434 3.79567 21.1434 4.51281C21.1434 5.22994 20.5458 5.81047 19.8116 5.81047C19.0689 5.81047 18.4713 5.22994 18.4713 4.51281C18.4741 3.79852 19.0717 3.2066 19.8116 3.2066ZM19.8116 10.8133C20.5458 10.8133 21.1434 11.3967 21.1434 12.111C21.1434 12.8338 20.5458 13.4172 19.8116 13.4172C19.0689 13.4172 18.4713 12.8338 18.4713 12.111C18.4741 11.3967 19.0717 10.8133 19.8116 10.8133ZM12.794 12.5293H17.6602C17.8651 13.5111 18.7445 14.2538 19.8116 14.2538C21.0154 14.2538 22 13.2948 22 12.1138C22 10.9414 21.0182 9.9852 19.8116 9.9852C18.7445 9.9852 17.8651 10.7251 17.6602 11.6983H12.794C12.7598 11.6983 12.7257 11.7154 12.6915 11.724V10.1503H15.8589C16.0894 10.1503 16.2857 9.96528 16.2857 9.73478L16.3369 4.93113H17.6175C17.6346 4.93113 17.6431 4.9226 17.6602 4.9226C17.8566 5.90438 18.7445 6.64428 19.8116 6.64428C21.0154 6.64428 22 5.6881 22 4.51281C22 3.33182 21.0182 2.37564 19.8116 2.37564C18.7445 2.37564 17.8566 3.12408 17.6602 4.10586C17.6431 4.10586 17.6346 4.09732 17.6175 4.09732H15.9101C15.6796 4.09732 15.4917 4.27945 15.4832 4.50711L15.432 9.31645H12.6915V2.41548C12.6915 2.19067 12.5037 2 12.2647 2C5.55435 2 2 5.46329 2 12.0028C2 12.0199 2 12.0455 2.00854 12.0683C2 12.0768 2 12.0768 2 12.0854C2 12.0854 2.00854 12.0939 2.00854 12.1024C2.01707 14.4986 2.51224 16.4792 3.46841 18.0188C3.48549 18.0785 3.5111 18.1269 3.54525 18.1781C3.56232 18.2038 3.59647 18.2123 3.61355 18.2294C5.26978 20.708 8.17245 22 12.2647 22C12.5037 22 12.6915 21.815 12.6915 21.5845V14.86H15.432L15.4832 19.6693C15.4917 19.8941 15.6796 20.0791 15.9101 20.0791H17.6175C17.6346 20.0791 17.6431 20.0791 17.6602 20.0706C17.8566 21.0524 18.7445 21.8008 19.8116 21.8008C21.0154 21.8008 22 20.8418 22 19.6608C22 18.4855 21.0182 17.5293 19.8116 17.5293C18.7445 17.5293 17.8566 18.2721 17.6602 19.251C17.6431 19.251 17.6346 19.2425 17.6175 19.2425H16.3369L16.2857 14.4388C16.2857 14.2055 16.0894 14.0233 15.8589 14.0233H12.6915V12.5094C12.7257 12.5208 12.7598 12.5293 12.794 12.5293Z" fill="#86888C"/>
</svg>
