<svg width="20" height="20" viewBox="0 0 20 20" fill="none" xmlns="http://www.w3.org/2000/svg">
<path d="M9.99886 18.1704C4.76726 18.1704 2 15.4054 2 10.1715C2 4.93767 4.76498 2.17041 9.99886 2.17041C12.552 2.17041 14.5312 2.83091 15.8864 4.13596C17.2894 5.48884 18.0023 7.52045 18.0023 10.1738C18.0023 15.4032 15.235 18.1704 9.99886 18.1704ZM9.99886 2.62593C4.99502 2.62593 2.45552 5.16543 2.45552 10.1715C2.45552 15.1754 4.99274 17.7149 9.99886 17.7149C15.0073 17.7149 17.5445 15.1777 17.5445 10.1715C17.5468 5.16315 15.0073 2.62593 9.99886 2.62593Z" fill="#86888C"/>
<path d="M9.95787 18.1066C9.82577 18.1066 9.71873 17.9996 9.71873 17.8675V2.4255C9.71873 2.2934 9.82577 2.18635 9.95787 2.18635C10.09 2.18635 10.197 2.2934 10.197 2.4255V17.8675C10.197 17.9996 10.09 18.1066 9.95787 18.1066Z" fill="#86888C"/>
<path d="M17.3144 7.53184H2.61722C2.49195 7.53184 2.38946 7.42934 2.38946 7.30408C2.38946 7.17881 2.49195 7.07632 2.61722 7.07632H17.3122C17.4374 7.07632 17.5399 7.17881 17.5399 7.30408C17.5399 7.42934 17.4397 7.53184 17.3144 7.53184Z" fill="#86888C"/>
<path d="M9.86677 18.0907C8.62321 18.0907 7.4662 17.248 6.60527 15.7175C5.7694 14.2279 5.30705 12.2533 5.30705 10.1556C5.30705 8.05795 5.76712 6.08329 6.60527 4.59375C7.4662 3.06322 8.62321 2.22051 9.86677 2.22051C11.1103 2.22051 12.2673 3.06322 13.1283 4.59375C13.9641 6.08329 14.4265 8.05795 14.4265 10.1556C14.4265 12.2533 13.9664 14.2279 13.1283 15.7175C12.2673 17.248 11.1103 18.0907 9.86677 18.0907ZM9.86677 2.67375C8.79631 2.67375 7.77823 3.43447 7.00385 4.81468C6.20442 6.23817 5.76485 8.13311 5.76485 10.1556C5.76485 12.1758 6.20442 14.073 7.00385 15.4965C7.78051 16.8767 8.79631 17.6375 9.86677 17.6375C10.9372 17.6375 11.9553 16.8767 12.7297 15.4965C13.5291 14.073 13.9687 12.1781 13.9687 10.1556C13.9687 8.13539 13.5291 6.23817 12.7297 4.81468C11.9553 3.43219 10.9395 2.67375 9.86677 2.67375Z" fill="#86888C"/>
<path d="M17.3167 13.7268H2.71744C2.59217 13.7268 2.48968 13.6244 2.48968 13.4991C2.48968 13.3738 2.59217 13.2713 2.71744 13.2713H17.3167C17.442 13.2713 17.5445 13.3738 17.5445 13.4991C17.5445 13.6244 17.442 13.7268 17.3167 13.7268Z" fill="#86888C"/>
</svg>
