<svg width="28" height="28" viewBox="0 0 28 28" fill="none" xmlns="http://www.w3.org/2000/svg">
<path fill-rule="evenodd" clip-rule="evenodd" d="M6.36436 15.4392C6.97565 15.4392 7.2147 15.1762 7.2147 14.5C7.2147 13.8238 6.97565 13.5608 6.36436 13.5608C5.75308 13.5608 5.51403 13.8238 5.51403 14.5C5.51403 15.1762 5.75308 15.4392 6.36436 15.4392ZM6.36436 12.4337C7.53229 12.4337 8.23237 13.2077 8.23237 14.5C8.23237 15.7923 7.53571 16.5625 6.36436 16.5625C5.19643 16.5625 4.49636 15.7886 4.49636 14.5C4.49636 13.2077 5.19643 12.4375 6.36436 12.4337ZM23.132 16.153L24.7473 14.4512L22.8793 12.5239H11.0156C10.8141 12.5239 10.6331 12.3924 10.5511 12.1895C9.99109 10.7995 8.81974 10.1233 6.97565 10.1233C4.31195 10.1233 3.01767 11.5546 3.01767 14.4962C3.01767 17.4416 4.31195 18.873 6.97565 18.873C8.71729 18.873 9.86132 18.3019 10.3736 17.1786C10.4248 17.0697 10.5443 16.7316 10.5443 16.7316C10.6194 16.5174 10.8073 16.3747 11.019 16.3747H16.7596L17.9788 14.4361C18.071 14.2896 18.2212 14.1995 18.3851 14.1957C18.5525 14.1656 18.7027 14.2708 18.8018 14.4136L19.8775 15.9539L20.721 14.4587C20.8678 14.1957 21.182 14.1168 21.4177 14.2783C21.4518 14.3009 21.4825 14.3272 21.5099 14.3572C21.5064 14.361 23.132 16.153 23.132 16.153ZM25.8367 14.0379C26.045 14.2483 26.0552 14.6052 25.8606 14.8344L25.8401 14.8569L23.4735 17.3514C23.272 17.5618 22.9578 17.5543 22.7632 17.3402L21.2401 15.6609L20.3488 17.2425C20.26 17.3965 20.1097 17.498 19.9424 17.5055C19.775 17.5242 19.6111 17.4416 19.5155 17.2876L18.4159 15.7135L17.4392 17.265C17.3436 17.4153 17.1899 17.5055 17.0226 17.5055H11.3571C11.3264 17.5806 11.299 17.6482 11.282 17.6895C10.5955 19.1998 9.1066 20 6.97565 20C3.76555 20 2 18.0464 2 14.5C2 10.9536 3.76555 9 6.97565 9C9.54031 9 10.756 10.236 11.3298 11.4006H23.0808C23.2105 11.4006 23.3335 11.457 23.4291 11.5509L25.8367 14.0379Z" fill="#86888C"/>
</svg>
