<svg width="24" height="24" viewBox="0 0 24 24" fill="none" xmlns="http://www.w3.org/2000/svg">
<path fill-rule="evenodd" clip-rule="evenodd" d="M5.63697 13.2684C6.14637 13.2684 6.34558 13.0533 6.34558 12.5C6.34558 11.9467 6.14637 11.7316 5.63697 11.7316C5.12757 11.7316 4.92836 11.9467 4.92836 12.5C4.92836 13.0533 5.12757 13.2684 5.63697 13.2684ZM5.63697 10.8094C6.61024 10.8094 7.19364 11.4426 7.19364 12.5C7.19364 13.5574 6.61309 14.1875 5.63697 14.1875C4.6637 14.1875 4.0803 13.5543 4.0803 12.5C4.0803 11.4426 4.6637 10.8125 5.63697 10.8094ZM19.61 13.8525L20.9561 12.46L19.3994 10.8832H9.51299C9.34508 10.8832 9.19425 10.7756 9.12596 10.6096C8.65924 9.47234 7.68312 8.91906 6.14637 8.91906C3.92663 8.91906 2.84806 10.0902 2.84806 12.4969C2.84806 14.9068 3.92663 16.0779 6.14637 16.0779C7.59774 16.0779 8.5511 15.6107 8.97797 14.6916C9.02066 14.6025 9.12026 14.3258 9.12026 14.3258C9.18287 14.1506 9.33939 14.0338 9.51583 14.0338H14.2997L15.3156 12.4477C15.3925 12.3279 15.5177 12.2541 15.6543 12.251C15.7937 12.2264 15.9189 12.3125 16.0015 12.4293L16.8979 13.6895L17.6008 12.4662C17.7232 12.251 17.985 12.1865 18.1814 12.3186C18.2098 12.3371 18.2355 12.3586 18.2582 12.3832C18.2554 12.3863 19.61 13.8525 19.61 13.8525ZM21.8639 12.1219C22.0375 12.2941 22.046 12.5861 21.8838 12.7736L21.8667 12.792L19.8946 14.833C19.7267 15.0051 19.4649 14.999 19.3026 14.8238L18.0334 13.4498L17.2906 14.7439C17.2166 14.8699 17.0914 14.9529 16.952 14.959C16.8125 14.9744 16.6759 14.9068 16.5963 14.7807L15.6799 13.4928L14.866 14.7623C14.7863 14.8852 14.6582 14.959 14.5188 14.959H9.79757C9.77196 15.0205 9.74919 15.0758 9.73496 15.1096C9.16295 16.3453 7.92217 17 6.14637 17C3.47129 17 2 15.4016 2 12.5C2 9.59836 3.47129 8 6.14637 8C8.28359 8 9.29671 9.01127 9.7748 9.96414H19.5673C19.6754 9.96414 19.7779 10.0102 19.8576 10.0871L21.8639 12.1219Z" fill="#86888C"/>
</svg>
