<svg width="20" height="20" viewBox="0 0 20 20" fill="none" xmlns="http://www.w3.org/2000/svg">
<path fill-rule="evenodd" clip-rule="evenodd" d="M4.90958 11.0977C5.3171 11.0977 5.47646 10.9303 5.47646 10.5C5.47646 10.0697 5.3171 9.90232 4.90958 9.90232C4.50205 9.90232 4.34269 10.0697 4.34269 10.5C4.34269 10.9303 4.50205 11.0977 4.90958 11.0977ZM4.90958 9.18511C5.68819 9.18511 6.15491 9.6776 6.15491 10.5C6.15491 11.3224 5.69047 11.8125 4.90958 11.8125C4.13096 11.8125 3.66424 11.32 3.66424 10.5C3.66424 9.6776 4.13096 9.1875 4.90958 9.18511ZM16.088 11.5519L17.1649 10.4689L15.9195 9.24249H8.01039C7.87607 9.24249 7.7554 9.15881 7.70076 9.02971C7.32739 8.14515 6.5465 7.71482 5.3171 7.71482C3.5413 7.71482 2.67845 8.62568 2.67845 10.4976C2.67845 12.3719 3.5413 13.2828 5.3171 13.2828C6.4782 13.2828 7.24088 12.9194 7.58238 12.2046C7.61653 12.1352 7.69621 11.9201 7.69621 11.9201C7.7463 11.7838 7.87151 11.693 8.01267 11.693H11.8397L12.6525 10.4594C12.714 10.3661 12.8141 10.3087 12.9234 10.3064C13.035 10.2872 13.1352 10.3542 13.2012 10.445L13.9183 11.4252L14.4807 10.4737C14.5786 10.3064 14.788 10.2561 14.9451 10.3589C14.9679 10.3733 14.9884 10.39 15.0066 10.4092C15.0043 10.4115 16.088 11.5519 16.088 11.5519ZM17.8911 10.2059C18.03 10.3398 18.0368 10.5669 17.907 10.7128L17.8934 10.7271L16.3157 12.3145C16.1813 12.4484 15.9719 12.4436 15.8421 12.3074L14.8267 11.2387L14.2325 12.2452C14.1733 12.3432 14.0731 12.4078 13.9616 12.4126C13.85 12.4245 13.7408 12.3719 13.677 12.2739L12.9439 11.2722L12.2928 12.2596C12.229 12.3552 12.1266 12.4126 12.015 12.4126H8.23806C8.21757 12.4604 8.19935 12.5034 8.18797 12.5297C7.73036 13.4908 6.73774 14 5.3171 14C3.17703 14 2 12.7568 2 10.5C2 8.24317 3.17703 7 5.3171 7C7.02687 7 7.83736 7.78654 8.21984 8.52766H16.0538C16.1404 8.52766 16.2223 8.56352 16.2861 8.62329L17.8911 10.2059Z" fill="#86888C"/>
</svg>
