<svg width="20" height="20" viewBox="0 0 20 20" fill="none" xmlns="http://www.w3.org/2000/svg">
<path d="M9.45998 14.3133C9.2777 14.3133 9.10453 14.2427 8.97693 14.1151L5.88493 11.0231C5.61834 10.7565 5.61834 10.3236 5.88493 10.057L12.1099 3.82968L11.0572 2.77927C10.8795 2.60154 10.8795 2.31216 11.0572 2.13443C11.1438 2.04785 11.2578 2 11.3785 2H17.5488C17.7995 2 18.0046 2.20507 18.0046 2.45571V8.62603C18.0046 8.87667 17.7995 9.08174 17.5488 9.08174C17.4281 9.08174 17.3119 9.03389 17.2276 8.94731L16.1658 7.8855L9.94304 14.1151C9.81544 14.2427 9.63999 14.3156 9.45998 14.3133ZM11.3808 2.45799L12.4312 3.5084C12.6089 3.68613 12.6089 3.97551 12.4312 4.15323L6.20621 10.3782C6.11735 10.4671 6.11735 10.6107 6.20621 10.6995L9.2982 13.7915C9.38707 13.8804 9.53062 13.8804 9.61948 13.7915L15.8445 7.56651C15.9288 7.47992 16.045 7.43207 16.1658 7.43207C16.2865 7.43207 16.4027 7.47992 16.487 7.56651L17.5466 8.62603V2.45799H11.3808ZM2.22786 17.9977C2.10253 17.9977 2 17.8952 2 17.7699C2 17.7083 2.02506 17.6514 2.06608 17.6081L6.06494 13.6092C6.15608 13.5226 6.29963 13.5249 6.38621 13.6138C6.47052 13.7026 6.47052 13.8416 6.38621 13.9305L2.38963 17.9316C2.34634 17.9727 2.28938 17.9977 2.22786 17.9977ZM6.32469 18C6.19937 18 6.09684 17.8975 6.09684 17.7721C6.09684 17.7106 6.1219 17.6537 6.16292 17.6104C7.01282 16.7605 8.24324 15.4845 8.25691 15.4708C8.34121 15.3774 8.48476 15.3683 8.57818 15.4526C8.6716 15.5369 8.68072 15.6804 8.59641 15.7739C8.59185 15.7784 8.58958 15.783 8.58502 15.7852C8.57363 15.7989 7.33865 17.0772 6.48647 17.9316C6.44318 17.9749 6.38394 18 6.32469 18ZM2.26887 13.9442C2.14355 13.9442 2.04101 13.8416 2.04101 13.7163C2.04101 13.6548 2.06608 13.5978 2.10709 13.5545C2.95699 12.7046 4.18741 11.4264 4.20108 11.415C4.2945 11.3307 4.43805 11.3352 4.52236 11.4287C4.59983 11.513 4.60211 11.6428 4.52692 11.7317C4.51552 11.7454 3.28055 13.0236 2.42837 13.8781C2.38735 13.9191 2.33039 13.9442 2.26887 13.9442Z" fill="#86888C"/>
</svg>
