<svg width="24" height="24" viewBox="0 0 24 24" fill="none" xmlns="http://www.w3.org/2000/svg">
<path d="M11.3223 17.3872C11.0945 17.3872 10.8781 17.299 10.7187 17.1395L6.85478 13.2756C6.52164 12.9425 6.52164 12.4015 6.85478 12.0683L14.6338 4.28645L13.3183 2.9738C13.0962 2.75171 13.0962 2.39009 13.3183 2.168C13.4265 2.05979 13.5689 2 13.7198 2H21.4305C21.7437 2 22 2.25626 22 2.56948V10.2802C22 10.5934 21.7437 10.8497 21.4305 10.8497C21.2796 10.8497 21.1344 10.7899 21.029 10.6817L19.7022 9.35478L11.926 17.1395C11.7665 17.299 11.5473 17.3901 11.3223 17.3872ZM13.7227 2.57232L15.0353 3.88497C15.2574 4.10706 15.2574 4.46868 15.0353 4.69077L7.25626 12.4698C7.14522 12.5809 7.14522 12.7603 7.25626 12.8713L11.1202 16.7352C11.2312 16.8462 11.4106 16.8462 11.5216 16.7352L19.3007 8.95615C19.406 8.84795 19.5513 8.78816 19.7022 8.78816C19.8531 8.78816 19.9983 8.84795 20.1036 8.95615L21.4277 10.2802V2.57232H13.7227ZM2.28474 21.9915C2.12813 21.9915 2 21.8633 2 21.7067C2 21.6298 2.03132 21.5587 2.08257 21.5046L7.07973 16.5074C7.19362 16.3992 7.37301 16.4021 7.48121 16.5131C7.58656 16.6241 7.58656 16.7978 7.48121 16.9089L2.4869 21.9089C2.4328 21.9601 2.36162 21.9915 2.28474 21.9915ZM7.40433 21.9943C7.24772 21.9943 7.11959 21.8662 7.11959 21.7096C7.11959 21.6327 7.15091 21.5615 7.20216 21.5074C8.26424 20.4453 9.80182 18.8508 9.81891 18.8337C9.92426 18.717 10.1036 18.7056 10.2204 18.8109C10.3371 18.9163 10.3485 19.0957 10.2432 19.2124C10.2375 19.2181 10.2346 19.2238 10.2289 19.2267C10.2147 19.2437 8.67141 20.8411 7.60649 21.9089C7.55239 21.963 7.47836 21.9943 7.40433 21.9943ZM2.33599 16.926C2.17938 16.926 2.05125 16.7978 2.05125 16.6412C2.05125 16.5644 2.08257 16.4932 2.13383 16.4391C3.1959 15.377 4.73349 13.7796 4.75057 13.7654C4.86731 13.66 5.0467 13.6657 5.15205 13.7825C5.24886 13.8878 5.25171 14.0501 5.15774 14.1612C5.14351 14.1782 3.60023 15.7756 2.53531 16.8434C2.48405 16.8946 2.41287 16.926 2.33599 16.926Z" fill="#86888C"/>
</svg>
