<svg width="24" height="24" viewBox="0 0 24 24" fill="none" xmlns="http://www.w3.org/2000/svg">
<path fill-rule="evenodd" clip-rule="evenodd" d="M21.5554 18.073C17.3046 18.1514 13.9626 19.4115 12.627 19.9981V6.72011C16.1548 4.93152 20.2808 4.90248 21.5554 4.94023V18.073ZM2.85074 4.94313C4.11959 4.90248 8.25135 4.93442 11.7792 6.72301V20.001C10.4464 19.4144 7.10154 18.1572 2.85074 18.0759V4.94313ZM22.0142 4.11852C21.7906 4.0982 16.631 3.72655 12.2002 5.99422C7.76936 3.72945 2.61265 4.1011 2.39198 4.12143C2.17131 4.13595 2 4.31887 2 4.53954V18.4911C2 18.7234 2.19163 18.9121 2.42392 18.9121C7.85647 18.9121 11.965 21.0172 12.0056 21.0375C12.0666 21.0695 12.1334 21.084 12.2031 21.084C12.2205 21.084 12.2379 21.0724 12.2554 21.0695C12.3047 21.0666 12.3541 21.055 12.3976 21.0346L12.4179 21.023H12.4209C12.6706 20.8982 16.6891 18.9092 21.9764 18.9092C22.2116 18.9092 22.4004 18.7205 22.4004 18.4853V4.53664C22.4062 4.31597 22.2349 4.13595 22.0142 4.11852Z" fill="#86888C"/>
</svg>
