<svg width="40" height="40" viewBox="0 0 40 40" fill="none" xmlns="http://www.w3.org/2000/svg">
<path fill-rule="evenodd" clip-rule="evenodd" d="M15.2353 35.1466L19.4741 24.1985C19.5561 23.9935 19.5407 23.7628 19.4433 23.5681C19.3408 23.3733 19.1665 23.2298 18.9564 23.1785L11.2015 21.2821L24.4407 7.23306L20.2788 17.6789C20.1968 17.8839 20.207 18.1145 20.3095 18.3144C20.4069 18.5143 20.5863 18.6527 20.8016 18.7091L29.2843 20.7747L15.2353 35.1466ZM31.4729 20.134C31.396 19.8675 31.191 19.6624 30.9245 19.6009L21.9907 17.4226L27.2956 4.11162C27.4289 3.77334 27.311 3.3838 27.0086 3.1839C26.7062 2.98914 26.3115 3.03014 26.0604 3.29667L9.20767 21.1745C9.02315 21.3692 8.95652 21.6563 9.02827 21.9177C9.10516 22.1791 9.31018 22.3841 9.57158 22.4456L17.7621 24.4497L12.5034 38.022C12.3752 38.3603 12.4931 38.7447 12.7904 38.9395C12.9185 39.0215 13.0569 39.0625 13.2004 39.0625C13.3952 39.0625 13.59 38.9856 13.7335 38.837L31.2833 20.8772C31.478 20.6875 31.5498 20.4005 31.4729 20.134Z" fill="#86888C"/>
</svg>
