<svg width="24" height="24" viewBox="0 0 24 24" fill="none" xmlns="http://www.w3.org/2000/svg">
<path fill-rule="evenodd" clip-rule="evenodd" d="M9.46404 20.887L11.8189 14.8047C11.8645 14.6908 11.8559 14.5627 11.8018 14.4545C11.7449 14.3463 11.6481 14.2665 11.5313 14.2381L7.22305 13.1845L14.5782 5.37948L12.266 11.1827C12.2204 11.2966 12.2261 11.4247 12.2831 11.5358C12.3372 11.6468 12.4368 11.7237 12.5564 11.755L17.2691 12.9026L9.46404 20.887ZM18.4849 12.5467C18.4422 12.3986 18.3283 12.2847 18.1803 12.2505L13.2171 11.0403L16.1642 3.64535C16.2383 3.45741 16.1728 3.241 16.0048 3.12995C15.8368 3.02174 15.6175 3.04452 15.478 3.19259L6.11537 13.1247C6.01286 13.2329 5.97584 13.3924 6.01571 13.5376C6.05842 13.6828 6.17232 13.7967 6.31754 13.8309L10.8679 14.9443L7.94632 22.4845C7.87513 22.6724 7.94062 22.886 8.10578 22.9942C8.17697 23.0397 8.25385 23.0625 8.33358 23.0625C8.44178 23.0625 8.54999 23.0198 8.62972 22.9372L18.3796 12.9595C18.4878 12.8542 18.5277 12.6947 18.4849 12.5467Z" fill="#86888C"/>
</svg>
