<svg width="24" height="24" viewBox="0 0 24 24" fill="none" xmlns="http://www.w3.org/2000/svg">
<path d="M12.0338 22C11.9939 22 11.9568 22 11.9226 21.9971H11.9083C11.7827 21.9914 11.6572 21.9715 11.5345 21.9429C11.0922 21.8431 10.6727 21.6547 10.3046 21.3865C9.9393 21.1239 9.46561 20.6759 9.1403 20.3421C7.48806 18.6385 6.52355 17.4314 5.31647 15.5537C3.80407 13.2138 2.76821 10.8881 2.23459 8.64801C1.67528 6.29379 2.1233 4.34764 3.50158 3.1691C4.30059 2.48139 5.39637 2.07047 6.58632 2.00769C7.85047 1.94491 9.16312 2.26737 10.3845 2.94652C10.8154 3.18337 11.2577 3.44019 11.7428 3.72555C11.934 3.83114 12.168 3.83399 12.3592 3.72841C12.8414 3.44019 13.2866 3.18622 13.7203 2.94652C14.9388 2.26737 16.2543 1.94491 17.5185 2.00769C18.7084 2.06761 19.8013 2.48139 20.6032 3.16625C21.9786 4.34479 22.4267 6.29094 21.8673 8.64801C21.3337 10.8852 20.2979 13.2081 18.7883 15.5537C17.5869 17.42 16.6253 18.6242 14.993 20.3107C14.9845 20.3221 14.9759 20.3306 14.9673 20.3421C14.6449 20.6759 14.1683 21.1268 13.8031 21.3865C13.435 21.6547 13.0155 21.8431 12.5732 21.9429C12.4505 21.9715 12.3249 21.9886 12.1994 21.9971H12.1851C12.1451 22 12.1023 22 12.0538 22H12.0338ZM6.90593 2.5727C6.80891 2.5727 6.71188 2.57555 6.61486 2.58126C5.55332 2.63548 4.57739 2.99789 3.87255 3.60285C3.26188 4.12506 2.86238 4.82134 2.6826 5.66886C2.50568 6.50211 2.54278 7.46092 2.79389 8.51675C3.31325 10.694 4.32342 12.9569 5.79588 15.2455C6.99439 17.1089 7.90754 18.2504 9.54836 19.9454C9.85369 20.2622 10.3017 20.6845 10.6356 20.9242C10.9409 21.1468 11.2862 21.3037 11.6543 21.3836L11.6629 21.3865C11.7542 21.4093 11.8484 21.4207 11.9425 21.4264H11.9511C11.9768 21.4264 12.011 21.4293 12.0481 21.4293H12.051C12.0881 21.4293 12.1195 21.4293 12.148 21.4264H12.1594C12.2536 21.4207 12.3477 21.4093 12.4391 21.3865L12.4476 21.3836C12.8157 21.3009 13.161 21.1439 13.4664 20.9242C13.7888 20.6902 14.2197 20.2878 14.525 19.9739C14.5336 19.9625 14.5422 19.954 14.5507 19.9454C16.1944 18.2504 17.1047 17.1089 18.3061 15.2455C19.7814 12.9541 20.7915 10.6912 21.3109 8.51675C21.562 7.46092 21.5991 6.50211 21.4222 5.66886C21.2424 4.82134 20.84 4.12506 20.2294 3.60285C19.5245 2.99789 18.5515 2.63548 17.4871 2.58126C16.3285 2.52134 15.1214 2.82096 13.9943 3.4459C13.5662 3.68275 13.1239 3.93672 12.6445 4.22208L12.6388 4.22493C12.2707 4.43325 11.817 4.43039 11.4517 4.22208L11.4489 4.21923C10.9695 3.93387 10.53 3.68275 10.1048 3.4459C9.07466 2.87233 7.97317 2.5727 6.90593 2.5727Z" fill="#86888C"/>
</svg>
