<svg width="20" height="20" viewBox="0 0 20 20" fill="none" xmlns="http://www.w3.org/2000/svg">
<path fill-rule="evenodd" clip-rule="evenodd" d="M16.6368 12.2971V5.3471C16.6368 4.39305 15.8305 3.61503 14.8395 3.61503H4.43403C3.44303 3.61503 2.63459 4.39305 2.63459 5.3471V12.2971C2.63459 13.1338 3.19963 13.8314 4.00807 13.9922C4.15803 14.0227 4.26234 14.1487 4.26234 14.2943V15.9764C4.26234 16.185 4.47749 16.385 4.70785 16.385C4.78392 16.385 4.94039 16.385 5.09904 16.1807L6.74201 14.1465C6.80286 14.0726 6.89413 14.0292 6.9941 14.0292H14.8373C15.8305 14.027 16.6368 13.2512 16.6368 12.2971ZM14.8395 3C16.1804 3 17.2735 4.05185 17.2735 5.3471V12.2971C17.2735 13.5902 16.1804 14.6442 14.8395 14.6442H7.15275L5.60758 16.5545C5.38156 16.85 5.07731 17 4.71003 17C4.12325 17 3.62776 16.5306 3.62776 15.9764V14.5312C2.65632 14.2269 2 13.3403 2 12.2971V5.3471C2 4.05185 3.09314 3 4.43403 3H14.8395ZM11.7948 7.95716C11.8556 7.70941 11.9143 7.2552 11.6231 7.0118C11.4927 6.90531 11.3036 6.83794 11.095 6.82707L11.0363 6.8249C10.806 6.8249 10.5626 6.8901 10.3365 7.0118C10.2214 7.07265 10.1018 7.14002 9.97361 7.21391C9.84756 7.28128 9.72803 7.3117 9.60633 7.3117C9.48029 7.3117 9.35641 7.28128 9.24775 7.22043C9.10649 7.14002 8.98913 7.07482 8.87395 7.0118C8.64576 6.8901 8.40453 6.8249 8.17417 6.8249L8.11332 6.82707C7.90903 6.83794 7.71562 6.90314 7.5874 7.0118C7.29401 7.2552 7.35269 7.70941 7.41136 7.95716C7.54393 8.50047 7.80907 9.06985 8.19373 9.65011C8.51102 10.126 8.75442 10.4194 9.18907 10.8563C9.26514 10.9323 9.37162 11.0301 9.43899 11.0758C9.48246 11.104 9.5281 11.1279 9.57374 11.1366H9.58025L9.60633 11.141C9.67805 11.1279 9.72369 11.1062 9.76715 11.0779C9.83018 11.0345 9.92797 10.9475 10.0019 10.8736L10.004 10.8693L10.0258 10.8476C10.4539 10.4173 10.693 10.1282 11.0102 9.65228C11.3993 9.06985 11.6622 8.50047 11.7948 7.95716ZM11.1298 6.21422C11.4775 6.2316 11.8013 6.34896 12.0382 6.54455C12.4468 6.88358 12.5793 7.43558 12.4163 8.09842C12.2664 8.7091 11.973 9.34368 11.5492 9.98261C11.2124 10.4912 10.9407 10.8171 10.4843 11.2735C10.4821 11.2779 10.4778 11.2822 10.4756 11.2844C10.43 11.33 10.2735 11.4843 10.1388 11.5756C10.0258 11.656 9.89537 11.7125 9.76715 11.7386C9.73021 11.7473 9.69109 11.7516 9.6498 11.7538H9.64545C9.63459 11.756 9.62372 11.756 9.61068 11.756H9.59764C9.5846 11.756 9.57591 11.756 9.56287 11.7538H9.5607C9.5194 11.7516 9.48029 11.7451 9.44334 11.7386C9.31512 11.7125 9.18473 11.6538 9.06954 11.5756C8.93698 11.4843 8.7805 11.33 8.73487 11.2844C8.27197 10.8215 8.00031 10.4933 7.66129 9.98261C7.2375 9.34586 6.94629 8.71127 6.79634 8.09842C6.63117 7.43558 6.76809 6.8814 7.17448 6.54455C7.41136 6.34896 7.733 6.22943 8.08289 6.21422C8.11332 6.21205 8.14592 6.21205 8.17634 6.21205C8.5132 6.21205 8.86091 6.30115 9.18473 6.47718C9.30425 6.5402 9.42813 6.61192 9.56287 6.68798C9.57591 6.6945 9.59112 6.69885 9.60851 6.69885C9.62372 6.69885 9.63676 6.6945 9.65197 6.68798C9.78671 6.61192 9.91059 6.54238 10.0323 6.47718C10.3539 6.30332 10.7016 6.21205 11.0407 6.21205C11.0667 6.21205 11.0972 6.21205 11.1298 6.21422Z" fill="#86888C"/>
</svg>
