<svg width="24" height="24" viewBox="0 0 24 24" fill="none" xmlns="http://www.w3.org/2000/svg">
<path fill-rule="evenodd" clip-rule="evenodd" d="M20.8187 14.9534V6.0177C20.8187 4.79106 19.7821 3.79075 18.5079 3.79075H5.12946C3.85532 3.79075 2.8159 4.79106 2.8159 6.0177V14.9534C2.8159 16.0292 3.54238 16.9261 4.58181 17.1329C4.7746 17.172 4.90872 17.3341 4.90872 17.5213V19.684C4.90872 19.9522 5.18535 20.2093 5.48153 20.2093C5.57932 20.2093 5.7805 20.2093 5.98448 19.9466L8.09686 17.3313C8.1751 17.2363 8.29246 17.1804 8.42099 17.1804H18.5051C19.7821 17.1776 20.8187 16.1801 20.8187 14.9534ZM18.5079 3C20.2319 3 21.6374 4.35238 21.6374 6.0177V14.9534C21.6374 16.616 20.2319 17.9711 18.5079 17.9711H8.62496L6.63831 20.4272C6.34772 20.8072 5.95654 21 5.48432 21C4.7299 21 4.09283 20.3965 4.09283 19.684V17.8258C2.84384 17.4346 2 16.2946 2 14.9534V6.0177C2 4.35238 3.40546 3 5.12946 3H18.5079ZM14.5933 9.37349C14.6715 9.05495 14.747 8.47097 14.3726 8.15803C14.2049 8.02111 13.9618 7.93449 13.6936 7.92052L13.6181 7.91773C13.3219 7.91773 13.009 8.00155 12.7184 8.15803C12.5703 8.23626 12.4166 8.32288 12.2518 8.41788C12.0897 8.5045 11.936 8.54362 11.7796 8.54362C11.6175 8.54362 11.4582 8.5045 11.3185 8.42627C11.1369 8.32288 10.986 8.23906 10.8379 8.15803C10.5446 8.00155 10.2344 7.91773 9.93822 7.91773L9.85998 7.92052C9.59733 7.93449 9.34865 8.01832 9.18379 8.15803C8.80658 8.47097 8.88202 9.05495 8.95747 9.37349C9.12791 10.072 9.4688 10.8041 9.96337 11.5501C10.3713 12.1621 10.6843 12.5393 11.2431 13.1009C11.3409 13.1987 11.4778 13.3244 11.5644 13.3831C11.6203 13.4194 11.679 13.4502 11.7377 13.4613H11.746L11.7796 13.4669C11.8718 13.4502 11.9305 13.4222 11.9863 13.3859C12.0674 13.33 12.1931 13.2183 12.2881 13.1233L12.2909 13.1177L12.3188 13.0897C12.8693 12.5365 13.1767 12.1649 13.5846 11.5529C14.0848 10.8041 14.4229 10.072 14.5933 9.37349ZM13.7383 7.13257C14.1853 7.15492 14.6017 7.30581 14.9062 7.55728C15.4315 7.99317 15.602 8.70289 15.3924 9.55511C15.1996 10.3403 14.8224 11.1562 14.2776 11.9776C13.8445 12.6315 13.4952 13.0506 12.9084 13.6374C12.9056 13.643 12.9 13.6486 12.8972 13.6514C12.8386 13.71 12.6374 13.9084 12.4641 14.0258C12.3188 14.1292 12.1512 14.2018 11.9863 14.2353C11.9388 14.2465 11.8885 14.2521 11.8355 14.2549H11.8299C11.8159 14.2577 11.8019 14.2577 11.7852 14.2577H11.7684C11.7516 14.2577 11.7405 14.2577 11.7237 14.2549H11.7209C11.6678 14.2521 11.6175 14.2437 11.57 14.2353C11.4052 14.2018 11.2375 14.1264 11.0894 14.0258C10.919 13.9084 10.7178 13.71 10.6591 13.6514C10.064 13.0562 9.71469 12.6343 9.2788 11.9776C8.73393 11.159 8.35952 10.3431 8.16672 9.55511C7.95436 8.70289 8.13039 7.99038 8.6529 7.55728C8.95747 7.30581 9.371 7.15213 9.82086 7.13257C9.85998 7.12977 9.90189 7.12977 9.94101 7.12977C10.3741 7.12977 10.8212 7.24433 11.2375 7.47066C11.3912 7.55169 11.5505 7.6439 11.7237 7.74169C11.7405 7.75008 11.76 7.75567 11.7824 7.75567C11.8019 7.75567 11.8187 7.75008 11.8383 7.74169C12.0115 7.6439 12.1708 7.55449 12.3272 7.47066C12.7408 7.24713 13.1878 7.12977 13.6237 7.12977C13.6573 7.12977 13.6964 7.12977 13.7383 7.13257Z" fill="#86888C"/>
</svg>
