<svg width="28" height="28" viewBox="0 0 28 28" fill="none" xmlns="http://www.w3.org/2000/svg">
<path fill-rule="evenodd" clip-rule="evenodd" d="M21.9994 24.2721V3.73136C21.9994 3.33182 21.6784 3.00057 21.5145 3.00057H6.48208C6.31817 3.00057 5.99717 3.33182 5.99717 3.73136V24.2686C5.99717 24.6853 6.29085 24.9994 6.48208 24.9994L21.5145 25.0028C21.7058 24.9994 21.9994 24.6887 21.9994 24.2721ZM21.5077 2C22.2863 2 23 2.82641 23 3.73136V24.2721C23 25.1941 22.3034 26 21.5077 26L6.49233 25.9966C5.69665 25.9966 5.00001 25.1907 5.00001 24.2686V3.73136C4.9966 2.82641 5.71031 2 6.48891 2H21.5077ZM8.80422 10.0011C8.25101 10.0011 7.80365 9.55378 7.80365 9.00057C7.80365 8.44735 8.25101 8 8.80422 8C9.35744 8 9.80479 8.44735 9.80479 9.00057C9.80479 9.55378 9.35744 10.0011 8.80422 10.0011ZM8.80422 12.9994C9.35744 12.9994 9.80479 13.4468 9.80479 14C9.80479 14.5532 9.35744 15.0006 8.80422 15.0006C8.25101 15.0006 7.80365 14.5532 7.80365 14C7.80365 13.4468 8.25442 12.9994 8.80422 12.9994ZM12.3113 10.0011C12.0347 10.0011 11.8059 9.77917 11.8059 9.50256C11.8059 9.22595 12.0313 9.00398 12.3113 9.00398H19.2982C19.5783 9.00398 19.8037 9.22937 19.8037 9.50256C19.8037 9.77575 19.5783 10.0011 19.2982 10.0011H12.3113ZM19.2982 14C19.5783 14 19.8037 14.2254 19.8037 14.4986C19.8037 14.7718 19.5783 14.9972 19.2982 14.9972H12.3113C12.0347 14.9972 11.8059 14.7752 11.8059 14.4986C11.8059 14.222 12.0313 14 12.3113 14H19.2982ZM8.80422 18.0023C9.35744 18.0023 9.80479 18.4496 9.80479 19.0028C9.80479 19.5561 9.35744 20.0034 8.80422 20.0034C8.25101 20.0034 7.80365 19.5526 7.80365 18.9994C7.80365 18.4462 8.25442 18.0023 8.80422 18.0023ZM19.2982 18.9994C19.5783 18.9994 19.8037 19.2248 19.8037 19.498C19.8037 19.7746 19.5783 19.9966 19.2982 19.9966H12.3113C12.0347 19.9966 11.8059 19.7746 11.8059 19.498C11.8059 19.2214 12.0313 18.9994 12.3113 18.9994H19.2982Z" fill="#86888C"/>
</svg>
