<svg width="28" height="28" viewBox="0 0 28 28" fill="none" xmlns="http://www.w3.org/2000/svg">
<path d="M14 2C21.8201 2 26 6.13887 26 14C26 21.8611 21.8611 26 14 26C6.13887 26 2 21.8611 2 14C2 6.13887 6.13887 2 14 2ZM14 24.9994C21.2703 24.9994 24.9994 21.3011 24.9994 14C24.9994 6.69892 21.3113 3.00057 14 3.00057C6.68867 3.00057 3.00057 6.72965 3.00057 14C3.00057 21.2703 6.68867 24.9994 14 24.9994ZM14 4.54069C14.2629 4.54069 14.4781 4.73876 14.4986 5.00171V8.8025C14.4917 9.0757 14.2732 9.29767 14 9.30108C13.7234 9.30108 13.5014 9.0757 13.5014 8.8025V5.03927C13.5014 4.76266 13.7234 4.54069 14 4.54069ZM9.30108 13.9317C9.30108 14.2083 9.0757 14.4303 8.8025 14.4303H4.99829C4.72168 14.4303 4.49972 14.2049 4.49972 13.9317C4.49972 13.6551 4.7251 13.4331 4.99829 13.4331H8.79909C9.0757 13.4297 9.30108 13.6551 9.30108 13.9317ZM9.91918 17.2612C10.1241 17.0768 10.4417 17.0905 10.6261 17.2954L10.6295 17.2988C10.8241 17.4798 10.831 17.7837 10.65 17.9784L10.6295 17.9989L8 20.6181C7.90438 20.724 7.76437 20.7786 7.62094 20.7684C7.34434 20.7649 7.12578 20.5361 7.1292 20.2629C7.13261 20.1332 7.18384 20.0102 7.27262 19.9215C7.26921 19.9215 9.91918 17.2612 9.91918 17.2612ZM13.9317 18.6716C14.2083 18.6716 14.4303 18.897 14.4303 19.1702V22.9197C14.4303 23.1964 14.2049 23.4183 13.9317 23.4183C13.6551 23.4183 13.4331 23.1929 13.4331 22.9197V19.1702C13.4297 18.8936 13.6551 18.6716 13.9317 18.6716ZM17.9989 17.3295L20.6591 19.9898C20.8537 20.1844 20.8571 20.502 20.6625 20.6966L20.6591 20.7001C20.5635 20.7888 20.4405 20.8401 20.3108 20.8401C20.181 20.8401 20.0546 20.7923 19.9624 20.7001L17.2988 18.0398C17.1042 17.8452 17.1007 17.5276 17.2954 17.333L17.2988 17.3295C17.4935 17.1383 17.8042 17.1383 17.9989 17.3295ZM22.9197 13.539C23.1964 13.539 23.4183 13.7644 23.4183 14.0376C23.4183 14.3142 23.1929 14.5361 22.9197 14.5361H19.1702C18.8936 14.5361 18.6716 14.3108 18.6716 14.0376C18.6716 13.761 18.897 13.539 19.1702 13.539H22.9197ZM17.6915 10.8515C17.5583 10.8515 17.4286 10.8002 17.333 10.7114C17.1417 10.5134 17.1417 10.1992 17.333 10.0011L20.0034 7.34092C20.2151 7.16335 20.5293 7.19067 20.7069 7.39898C20.8674 7.5868 20.864 7.8634 20.7035 8.05122L18.0023 10.7114C17.9135 10.79 17.8042 10.8378 17.6915 10.8515Z" fill="#86888C"/>
</svg>
