<svg width="24" height="24" viewBox="0 0 24 24" fill="none" xmlns="http://www.w3.org/2000/svg">
<path d="M12 2C18.5168 2 22 5.44906 22 12C22 18.5509 18.5509 22 12 22C5.44906 22 2 18.5509 2 12C2 5.44906 5.44906 2 12 2ZM12 21.1662C18.0586 21.1662 21.1662 18.0842 21.1662 12C21.1662 5.91577 18.0928 2.83381 12 2.83381C5.90723 2.83381 2.83381 5.94138 2.83381 12C2.83381 18.0586 5.90723 21.1662 12 21.1662ZM12 4.11725C12.2191 4.11725 12.3984 4.2823 12.4155 4.50142V7.66875C12.4098 7.89641 12.2277 8.08139 12 8.08423C11.7695 8.08423 11.5845 7.89641 11.5845 7.66875V4.53273C11.5845 4.30222 11.7695 4.11725 12 4.11725ZM8.08423 11.9431C8.08423 12.1736 7.89641 12.3586 7.66875 12.3586H4.49858C4.26807 12.3586 4.0831 12.1707 4.0831 11.9431C4.0831 11.7126 4.27092 11.5276 4.49858 11.5276H7.66591C7.89641 11.5248 8.08423 11.7126 8.08423 11.9431ZM8.59932 14.7177C8.77006 14.564 9.03472 14.5754 9.18839 14.7462L9.19124 14.749C9.35344 14.8998 9.35914 15.1531 9.20831 15.3153L9.19124 15.3324L7 17.5151C6.92032 17.6033 6.80364 17.6488 6.68412 17.6403C6.45361 17.6375 6.27149 17.4468 6.27433 17.2191C6.27718 17.111 6.31986 17.0085 6.39385 16.9345C6.39101 16.9345 8.59932 14.7177 8.59932 14.7177ZM11.9431 15.893C12.1736 15.893 12.3586 16.0808 12.3586 16.3085V19.4331C12.3586 19.6636 12.1707 19.8486 11.9431 19.8486C11.7126 19.8486 11.5276 19.6608 11.5276 19.4331V16.3085C11.5248 16.078 11.7126 15.893 11.9431 15.893ZM15.3324 14.7746L17.5492 16.9915C17.7114 17.1537 17.7143 17.4183 17.5521 17.5805L17.5492 17.5834C17.4696 17.6574 17.3671 17.7001 17.259 17.7001C17.1508 17.7001 17.0455 17.6602 16.9687 17.5834L14.749 15.3665C14.5868 15.2043 14.584 14.9397 14.7462 14.7775L14.749 14.7746C14.9112 14.6153 15.1702 14.6153 15.3324 14.7746ZM19.4331 11.6158C19.6636 11.6158 19.8486 11.8036 19.8486 12.0313C19.8486 12.2618 19.6608 12.4468 19.4331 12.4468H16.3085C16.078 12.4468 15.893 12.259 15.893 12.0313C15.893 11.8008 16.0808 11.6158 16.3085 11.6158H19.4331ZM15.0763 9.37621C14.9653 9.37621 14.8571 9.33352 14.7775 9.25953C14.6181 9.09448 14.6181 8.83267 14.7775 8.66762L17.0028 6.45077C17.1793 6.30279 17.4411 6.32556 17.5891 6.49915C17.7228 6.65566 17.72 6.88617 17.5862 7.04269L15.3352 9.25953C15.2612 9.32499 15.1702 9.36483 15.0763 9.37621Z" fill="#86888C"/>
</svg>
