<svg width="28" height="28" viewBox="0 0 28 28" fill="none" xmlns="http://www.w3.org/2000/svg">
<path fill-rule="evenodd" clip-rule="evenodd" d="M7.4907 24.7413C8.77459 23.2525 12.0014 18.8887 12.0116 16.1945C12.0185 14.7501 11.6292 13.6199 10.8609 12.8448C10.0926 12.0697 8.96922 11.6736 7.52484 11.6702H7.50094C6.07022 11.6702 4.95364 12.056 4.18536 12.8243C3.41366 13.5926 3.01756 14.7194 3.01415 16.1672C3.0039 18.7418 6.08729 23.1228 7.4907 24.7413ZM7.52826 10.6594C10.977 10.6697 13.0326 12.7424 13.0224 16.2014C13.0121 19.7867 8.49459 25.2057 7.84923 25.851C7.6546 26.0491 7.33363 26.0491 7.13558 25.8544L7.13216 25.851C6.08729 24.7993 1.99318 19.5101 2.00001 16.1672C2.00342 14.4633 2.51561 13.0599 3.46829 12.1072C4.42097 11.158 5.81413 10.656 7.50094 10.656L7.52826 10.6594ZM7.51119 16.9423C8.23508 16.9423 8.58679 16.5872 8.58679 15.8633C8.58679 15.136 8.23508 14.7843 7.51119 14.7843C6.78729 14.7843 6.43558 15.1394 6.43558 15.8633C6.43558 16.5872 6.78729 16.9423 7.51119 16.9423ZM7.51119 13.7702C8.79849 13.7702 9.59751 14.5726 9.59751 15.8633C9.59751 17.154 8.79849 17.9565 7.51119 17.9565C6.22388 17.9565 5.42486 17.154 5.42486 15.8633C5.42486 14.5726 6.22388 13.7702 7.51119 13.7702ZM22.1564 11.2638C23.1228 10.1131 24.9803 7.42923 24.9872 5.84826C24.9906 4.00096 24.0208 3.02097 22.1769 3.01414H22.1599C21.255 3.01414 20.555 3.25658 20.0769 3.73121C19.5955 4.21267 19.353 4.91607 19.3496 5.83119C19.3462 7.42581 21.1935 10.1097 22.1564 11.2638ZM22.1803 2C24.5774 2.00683 26.0047 3.44438 25.9979 5.84826C25.991 8.29312 22.9452 11.9433 22.515 12.377C22.3169 12.575 21.9994 12.575 21.8013 12.377C21.3711 11.9433 18.3355 8.28971 18.3457 5.82778C18.3492 4.64974 18.7043 3.67657 19.3701 3.01072C20.0291 2.3517 20.9989 2 22.1599 2H22.1803ZM22.1701 6.17265C22.556 6.17265 22.7164 6.01558 22.7164 5.62631C22.7164 5.23705 22.5594 5.07998 22.1701 5.07998C21.7842 5.07998 21.6238 5.23705 21.6238 5.62631C21.6238 6.01558 21.7808 6.17265 22.1701 6.17265ZM22.1701 4.06584C23.1159 4.06584 23.7272 4.67705 23.7272 5.62631C23.7272 6.57557 23.1159 7.18679 22.1701 7.18679C21.2243 7.18679 20.613 6.57557 20.613 5.62631C20.613 4.67705 21.2243 4.06584 22.1701 4.06584ZM17.4853 13.5175C17.2053 13.5141 16.9799 13.2887 16.9799 13.0087C16.9799 12.7936 17.1199 12.6024 17.3248 12.5307C17.656 12.418 17.9838 12.3224 18.3048 12.237C18.5779 12.1755 18.8477 12.3463 18.9126 12.6194C18.9706 12.8789 18.8204 13.1419 18.5643 13.217C18.2672 13.2955 17.9565 13.3877 17.6457 13.4936C17.5945 13.5106 17.5399 13.5175 17.4853 13.5175ZM18.6121 22.9759C18.8613 22.8462 19.1652 22.9452 19.295 23.1911C19.4248 23.4403 19.3257 23.7442 19.0799 23.874C19.073 23.8774 19.0628 23.8808 19.056 23.8842C18.7555 24.031 18.4345 24.1676 18.0999 24.2906C17.8404 24.3896 17.5467 24.2564 17.4511 23.9935C17.3521 23.7306 17.4853 23.4403 17.7448 23.3413C18.0487 23.232 18.3389 23.1091 18.6121 22.9759ZM20.5823 20.1862C20.4526 20.1862 20.3296 20.1384 20.2374 20.0496C20.0257 19.8584 19.7901 19.7013 19.534 19.575C19.2848 19.4452 19.1891 19.1413 19.3189 18.8921C19.4487 18.6428 19.7526 18.5472 20.0018 18.6769C20.3877 18.8784 20.6916 19.0867 20.9306 19.3121C21.1355 19.5033 21.1423 19.8243 20.9511 20.0291C20.8521 20.1282 20.7189 20.1862 20.5823 20.1862ZM20.3774 12.838C20.0974 12.8345 19.8755 12.6024 19.8789 12.3224C19.8823 12.0765 20.0633 11.8682 20.3091 11.8272C20.5106 11.7999 20.6438 11.7829 20.6813 11.7829C20.9579 11.7658 21.1969 11.9741 21.214 12.2507V12.2609C21.2311 12.5409 21.0194 12.7799 20.7394 12.797C20.6438 12.8072 20.5447 12.8209 20.4491 12.8345C20.4252 12.838 20.4013 12.838 20.3774 12.838ZM21.156 21.0057C21.4189 21.1047 21.5486 21.395 21.4496 21.6579C21.3062 22.0267 21.0911 22.3647 20.8213 22.6515C20.6404 22.8667 20.3228 22.894 20.1077 22.7164C19.8926 22.5355 19.8652 22.2179 20.0428 22.0028C20.053 21.9891 20.0667 21.9755 20.0804 21.9618C20.275 21.7501 20.4184 21.5281 20.5038 21.3028C20.5994 21.0433 20.8828 20.9101 21.1423 21.0023C21.1491 21.0057 21.1525 21.0057 21.156 21.0057ZM17.9326 18.8784C17.8745 18.8784 17.8165 18.8682 17.7618 18.8477C17.4443 18.7316 17.1267 18.6189 16.8194 18.496C16.5633 18.3799 16.4472 18.0794 16.5633 17.8233C16.6692 17.5843 16.9423 17.4648 17.1882 17.5501C17.4887 17.6696 17.796 17.7823 18.1067 17.8916C18.3867 17.8882 18.6155 18.1135 18.6189 18.3935C18.6223 18.6735 18.397 18.9023 18.117 18.9057C18.0521 18.9126 17.9906 18.9023 17.9326 18.8784ZM13.0326 24.4681C13.3058 24.4237 13.5619 24.6115 13.6028 24.8847V24.8949C13.6438 25.1715 13.456 25.4276 13.1794 25.4686H13.176C12.8346 25.5198 12.4999 25.5676 12.179 25.6052C11.9024 25.6393 11.6531 25.4413 11.6155 25.1647C11.5814 24.8881 11.776 24.6354 12.0492 24.6013H12.0526C12.3736 24.5603 12.698 24.5193 13.0326 24.4681ZM15.9043 23.9115C16.1775 23.8432 16.4506 24.0106 16.5189 24.2803C16.5872 24.5535 16.4199 24.8267 16.1501 24.8949C15.8258 24.9769 15.4945 25.052 15.1633 25.1203C14.8902 25.1784 14.6204 25.0008 14.5658 24.7276C14.5077 24.4545 14.6853 24.1847 14.9584 24.1301C15.2726 24.0618 15.5901 23.9901 15.9043 23.9115ZM14.9414 14.9926C14.6614 14.9892 14.436 14.7604 14.436 14.4804C14.436 14.3643 14.477 14.2482 14.5521 14.1594C14.7706 13.8999 15.0575 13.6506 15.4126 13.4184C15.655 13.2784 15.9658 13.3604 16.1058 13.5994C16.2355 13.8248 16.1775 14.1116 15.9658 14.2653C15.7267 14.4155 15.5116 14.5999 15.3272 14.8116C15.235 14.9277 15.0916 14.9926 14.9414 14.9926ZM10.1097 24.7959C10.3863 24.772 10.6287 24.9803 10.6526 25.2569V25.2603C10.6765 25.5369 10.4682 25.7827 10.1917 25.8032H10.1882C9.88092 25.8271 9.57361 25.8476 9.26629 25.8647H9.23556C8.97264 25.8647 8.71313 25.6632 8.69264 25.4003C8.66874 25.1237 8.82581 24.8881 9.09898 24.8574L9.20825 24.8506C9.34825 24.8471 9.6658 24.8301 10.1097 24.7959ZM15.2623 17.6013C15.1462 17.6013 15.0336 17.5604 14.9414 17.4852C14.6204 17.2326 14.3643 16.9082 14.1902 16.5394C14.0843 16.2799 14.2072 15.9862 14.4633 15.877C14.7092 15.7745 14.9926 15.8804 15.1087 16.1194C15.2009 16.3243 15.358 16.5155 15.5799 16.6999C15.795 16.8774 15.8292 17.195 15.6516 17.4101C15.5594 17.5331 15.416 17.6013 15.2623 17.6013Z" fill="#86888C"/>
</svg>
