<svg width="24" height="24" viewBox="0 0 24 24" fill="none" xmlns="http://www.w3.org/2000/svg">
<path fill-rule="evenodd" clip-rule="evenodd" d="M6.57558 20.9511C7.64549 19.7104 10.3345 16.0739 10.343 13.8288C10.3487 12.6251 10.0243 11.6833 9.3841 11.0373C8.74386 10.3914 7.80769 10.0613 6.60404 10.0585H6.58412C5.39185 10.0585 4.46137 10.38 3.82113 11.0203C3.17805 11.6605 2.84797 12.5995 2.84512 13.806C2.83659 15.9515 5.40608 19.6023 6.57558 20.9511ZM6.60688 9.2162C9.48084 9.22474 11.1938 10.952 11.1853 13.8345C11.1768 16.8222 7.41216 21.3381 6.87436 21.8759C6.71217 22.0409 6.44469 22.0409 6.27965 21.8787L6.2768 21.8759C5.40608 20.9994 1.99432 16.5918 2.00001 13.806C2.00285 12.3861 2.42968 11.2166 3.22357 10.4227C4.01747 9.63165 5.17844 9.21336 6.58412 9.21336L6.60688 9.2162ZM6.59265 14.4519C7.1959 14.4519 7.48899 14.156 7.48899 13.5528C7.48899 12.9467 7.1959 12.6536 6.59265 12.6536C5.98941 12.6536 5.69632 12.9495 5.69632 13.5528C5.69632 14.156 5.98941 14.4519 6.59265 14.4519ZM6.59265 11.8085C7.66541 11.8085 8.33126 12.4772 8.33126 13.5528C8.33126 14.6284 7.66541 15.2971 6.59265 15.2971C5.5199 15.2971 4.85405 14.6284 4.85405 13.5528C4.85405 12.4772 5.5199 11.8085 6.59265 11.8085ZM18.797 9.71986C19.6023 8.76092 21.1503 6.52436 21.156 5.20689C21.1588 3.66747 20.3507 2.85081 18.8141 2.84512H18.7999C18.0458 2.84512 17.4625 3.04715 17.0641 3.44267C16.6629 3.84389 16.4609 4.43006 16.458 5.19266C16.4552 6.52151 17.9946 8.75808 18.797 9.71986ZM18.8169 2C20.8145 2.00569 22.0039 3.20365 21.9982 5.20689C21.9925 7.24427 19.4543 10.2861 19.0958 10.6475C18.9308 10.8125 18.6661 10.8125 18.5011 10.6475C18.1426 10.2861 15.6129 7.24142 15.6214 5.18981C15.6243 4.20811 15.9202 3.39714 16.4751 2.84227C17.0243 2.29309 17.8324 2 18.7999 2H18.8169ZM18.8084 5.47721C19.13 5.47721 19.2637 5.34632 19.2637 5.02193C19.2637 4.69754 19.1328 4.56665 18.8084 4.56665C18.4869 4.56665 18.3531 4.69754 18.3531 5.02193C18.3531 5.34632 18.484 5.47721 18.8084 5.47721ZM18.8084 3.72153C19.5966 3.72153 20.106 4.23088 20.106 5.02193C20.106 5.81298 19.5966 6.32232 18.8084 6.32232C18.0202 6.32232 17.5109 5.81298 17.5109 5.02193C17.5109 4.23088 18.0202 3.72153 18.8084 3.72153ZM14.9044 11.5979C14.671 11.595 14.4832 11.4072 14.4832 11.1739C14.4832 10.9946 14.5999 10.8353 14.7706 10.7755C15.0467 10.6816 15.3198 10.602 15.5873 10.5308C15.8149 10.4796 16.0397 10.6219 16.0938 10.8495C16.1422 11.0658 16.017 11.2849 15.8036 11.3475C15.556 11.4129 15.2971 11.4898 15.0381 11.578C14.9954 11.5922 14.9499 11.5979 14.9044 11.5979ZM15.8434 19.4799C16.0511 19.3718 16.3044 19.4543 16.4125 19.6592C16.5206 19.8669 16.4381 20.1202 16.2332 20.2283C16.2275 20.2312 16.219 20.234 16.2133 20.2369C15.9629 20.3592 15.6954 20.473 15.4166 20.5755C15.2003 20.658 14.9556 20.547 14.8759 20.3279C14.7934 20.1088 14.9044 19.8669 15.1206 19.7844C15.3739 19.6934 15.6158 19.5909 15.8434 19.4799ZM17.4853 17.1552C17.3771 17.1552 17.2747 17.1153 17.1979 17.0413C17.0214 16.882 16.8251 16.7511 16.6117 16.6458C16.404 16.5377 16.3243 16.2844 16.4324 16.0767C16.5405 15.869 16.7938 15.7893 17.0015 15.8975C17.3231 16.0653 17.5763 16.2389 17.7755 16.4267C17.9462 16.5861 17.9519 16.8535 17.7926 17.0243C17.71 17.1068 17.5991 17.1552 17.4853 17.1552ZM17.3145 11.0316C17.0812 11.0288 16.8962 10.8353 16.8991 10.602C16.9019 10.3971 17.0527 10.2235 17.2576 10.1894C17.4255 10.1666 17.5365 10.1524 17.5678 10.1524C17.7983 10.1381 17.9974 10.3117 18.0117 10.5422V10.5507C18.0259 10.7841 17.8495 10.9833 17.6161 10.9975C17.5365 11.006 17.454 11.0174 17.3743 11.0288C17.3544 11.0316 17.3344 11.0316 17.3145 11.0316ZM17.9633 17.8381C18.1824 17.9206 18.2905 18.1625 18.208 18.3816C18.0885 18.6889 17.9092 18.9706 17.6844 19.2096C17.5336 19.3889 17.269 19.4117 17.0897 19.2637C16.9105 19.1129 16.8877 18.8482 17.0357 18.669C17.0442 18.6576 17.0556 18.6462 17.067 18.6348C17.2292 18.4584 17.3487 18.2735 17.4198 18.0856C17.4995 17.8694 17.7357 17.7584 17.9519 17.8352C17.9576 17.8381 17.9605 17.8381 17.9633 17.8381ZM15.2771 16.0653C15.2288 16.0653 15.1804 16.0568 15.1349 16.0397C14.8702 15.943 14.6056 15.8491 14.3495 15.7466C14.1361 15.6499 14.0393 15.3995 14.1361 15.1861C14.2243 14.9869 14.4519 14.8873 14.6568 14.9584C14.9072 15.058 15.1633 15.1519 15.4223 15.243C15.6556 15.2401 15.8462 15.4279 15.8491 15.6613C15.8519 15.8946 15.6641 16.0853 15.4308 16.0881C15.3767 16.0938 15.3255 16.0853 15.2771 16.0653ZM11.1938 20.7234C11.4215 20.6864 11.6349 20.8429 11.669 21.0706V21.0791C11.7032 21.3096 11.5467 21.523 11.3162 21.5572H11.3133C11.0288 21.5998 10.7499 21.6397 10.4825 21.671C10.252 21.6994 10.0443 21.5344 10.013 21.3039C9.9845 21.0734 10.1467 20.8629 10.3743 20.8344H10.3772C10.6447 20.8003 10.915 20.7661 11.1938 20.7234ZM13.5869 20.2596C13.8146 20.2027 14.0422 20.3421 14.0991 20.5669C14.156 20.7946 14.0166 21.0222 13.7918 21.0791C13.5215 21.1474 13.2454 21.21 12.9694 21.2669C12.7418 21.3153 12.517 21.1673 12.4715 20.9397C12.4231 20.712 12.5711 20.4873 12.7987 20.4417C13.0605 20.3848 13.3251 20.3251 13.5869 20.2596ZM12.7845 12.8272C12.5511 12.8243 12.3633 12.6337 12.3633 12.4003C12.3633 12.3036 12.3975 12.2068 12.4601 12.1328C12.6422 11.9166 12.8812 11.7089 13.1772 11.5154C13.3792 11.3987 13.6381 11.467 13.7548 11.6662C13.8629 11.854 13.8146 12.093 13.6381 12.2211C13.4389 12.3463 13.2597 12.4999 13.106 12.6763C13.0292 12.7731 12.9097 12.8272 12.7845 12.8272ZM8.75809 20.9966C8.98857 20.9767 9.1906 21.1503 9.21052 21.3807V21.3836C9.23044 21.6141 9.05686 21.819 8.82638 21.836H8.82353C8.56744 21.8559 8.31134 21.873 8.05524 21.8872H8.02963C7.81053 21.8872 7.59427 21.7194 7.5772 21.5003C7.55728 21.2698 7.68817 21.0734 7.91581 21.0478L8.00687 21.0421C8.12354 21.0393 8.38817 21.0251 8.75809 20.9966ZM13.052 15.0011C12.9552 15.0011 12.8613 14.967 12.7845 14.9044C12.517 14.6938 12.3036 14.4235 12.1585 14.1162C12.0703 13.8999 12.1727 13.6552 12.3861 13.5641C12.591 13.4788 12.8272 13.567 12.9239 13.7662C13.0007 13.9369 13.1316 14.0962 13.3166 14.2499C13.4959 14.3979 13.5243 14.6625 13.3763 14.8418C13.2995 14.9442 13.18 15.0011 13.052 15.0011Z" fill="#86888C"/>
</svg>
