<svg width="20" height="20" viewBox="0 0 20 20" fill="none" xmlns="http://www.w3.org/2000/svg">
<path fill-rule="evenodd" clip-rule="evenodd" d="M9.64651 17.1795C10.9079 15.7588 14.6623 10.7748 14.6714 7.71934C14.6805 4.47034 12.9092 2.67621 9.68294 2.6671H9.65789C6.44531 2.6671 4.67168 4.44985 4.66257 7.69202C4.65347 10.7748 8.38971 15.761 9.64651 17.1795ZM9.68294 2C13.2325 2.01138 15.3454 4.14931 15.334 7.72162C15.3226 11.1983 10.9875 16.7879 9.88102 17.9012C9.75352 18.031 9.54633 18.0333 9.41655 17.9058L9.412 17.9012C8.30547 16.7924 3.98864 11.2006 4.00002 7.68747C4.01141 4.12426 6.12656 2 9.65789 2H9.68294ZM9.667 8.72569C10.5527 8.72569 11.0217 8.25439 11.0217 7.36188C11.0217 6.46937 10.5527 5.99808 9.667 5.99808C8.78132 5.99808 8.31002 6.46937 8.31002 7.36188C8.31002 8.25439 8.77904 8.72569 9.667 8.72569ZM9.667 5.33097C10.9306 5.33097 11.6842 6.09142 11.6842 7.36188C11.6842 8.63234 10.9306 9.3928 9.667 9.3928C8.40337 9.3928 7.64975 8.63234 7.64975 7.36188C7.64975 6.09142 8.40337 5.33097 9.667 5.33097Z" fill="#86888C"/>
</svg>
