<svg width="24" height="24" viewBox="0 0 24 24" fill="none" xmlns="http://www.w3.org/2000/svg">
<path fill-rule="evenodd" clip-rule="evenodd" d="M12.0581 20.9743C13.6348 19.1984 18.3279 12.9685 18.3393 9.14918C18.3507 5.08792 16.1365 2.84526 12.1037 2.83388H12.0724C8.05664 2.83388 5.8396 5.06231 5.82822 9.11503C5.81683 12.9685 10.4871 19.2013 12.0581 20.9743ZM12.1037 2C16.5406 2.01423 19.1817 4.68663 19.1675 9.15202C19.1532 13.4979 13.7344 20.4848 12.3513 21.8765C12.1919 22.0388 11.9329 22.0416 11.7707 21.8822L11.765 21.8765C10.3818 20.4905 4.9858 13.5007 5.00003 9.10933C5.01426 4.65533 7.6582 2 12.0724 2H12.1037ZM12.0837 10.4071C13.1908 10.4071 13.7771 9.81799 13.7771 8.70235C13.7771 7.58672 13.1908 6.99759 12.0837 6.99759C10.9766 6.99759 10.3875 7.58672 10.3875 8.70235C10.3875 9.81799 10.9738 10.4071 12.0837 10.4071ZM12.0837 6.16371C13.6633 6.16371 14.6053 7.11428 14.6053 8.70235C14.6053 10.2904 13.6633 11.241 12.0837 11.241C10.5042 11.241 9.56218 10.2904 9.56218 8.70235C9.56218 7.11428 10.5042 6.16371 12.0837 6.16371Z" fill="#86888C"/>
</svg>
