<svg width="28" height="28" viewBox="0 0 28 28" fill="none" xmlns="http://www.w3.org/2000/svg">
<path d="M18.3793 27.0001H8.98234C7.7244 27.0001 6.74334 26.6788 6.06652 26.0498C5.35892 25.3901 5 24.4124 5 23.1408L5.00342 16.0615C5 15.6752 5 15.518 5 15.518V15.5146C5 14.2429 5.35892 13.2653 6.06652 12.6056C6.74334 11.9766 7.7244 11.6553 8.98576 11.6553H18.3793C19.6372 11.6553 20.6183 11.9732 21.2985 12.6056C22.0096 13.2619 22.3753 14.2395 22.3924 15.5111V23.1477C22.3753 24.4193 22.0096 25.3969 21.2985 26.0532C20.6183 26.6788 19.6372 27.0001 18.3793 27.0001ZM5.73152 15.5111C5.73152 15.5316 5.73494 15.6923 5.73494 16.0581V16.0615L5.73152 23.1408C5.73152 24.2005 6.01182 24.997 6.56559 25.5131C7.10227 26.0122 7.91924 26.2686 8.98576 26.2686H18.3793C20.5602 26.2686 21.6335 25.2465 21.6609 23.1408V15.518C21.6335 13.4123 20.5602 12.3902 18.3793 12.3902H8.98234C7.91583 12.3902 7.10227 12.6432 6.56217 13.1457C6.01182 13.6516 5.73152 14.4515 5.73152 15.5111Z" fill="#86888C"/>
<path d="M8.19291 12.3628C8.00148 12.3628 7.84766 12.2089 7.84766 12.0175V8.28472C7.84766 5.36889 10.4182 3 13.5768 3H13.816C16.9746 3 19.5451 5.37231 19.5451 8.28472V11.9902C19.5451 12.1816 19.3913 12.3354 19.1999 12.3354C19.0085 12.3354 18.8546 12.1816 18.8546 11.9902V8.28472C18.8546 5.75174 16.5951 3.68708 13.816 3.68708H13.5768C10.7977 3.68708 8.53816 5.74833 8.53816 8.28472V12.0175C8.53816 12.2089 8.38433 12.3628 8.19291 12.3628ZM13.7032 22.3443C12.4179 22.3443 11.6796 21.6059 11.6796 20.3206C11.6796 19.0353 12.4179 18.297 13.7032 18.297C14.9885 18.297 15.7269 19.0353 15.7269 20.3206C15.7303 21.6059 14.9919 22.3443 13.7032 22.3443ZM13.7032 19.0285C12.8213 19.0285 12.4111 19.4387 12.4111 20.3206C12.4111 21.2025 12.8213 21.6127 13.7032 21.6127C14.5852 21.6127 14.9954 21.2025 14.9954 20.3206C14.9954 19.4387 14.5852 19.0285 13.7032 19.0285Z" fill="#86888C"/>
</svg>
