<svg width="40" height="40" viewBox="0 0 40 40" fill="none" xmlns="http://www.w3.org/2000/svg">
<path d="M27.0689 38.0001H12.9735C11.0866 38.0001 9.61501 37.5182 8.59977 36.5747C7.53838 35.5851 7 34.1186 7 32.2112L7.00513 21.5922C7 21.0128 7 20.777 7 20.777V20.7718C7 18.8644 7.53838 17.398 8.59977 16.4083C9.61501 15.4649 11.0866 14.9829 12.9786 14.9829H27.0689C28.9559 14.9829 30.4274 15.4598 31.4478 16.4083C32.5143 17.3928 33.063 18.8593 33.0886 20.7667V32.2215C33.063 34.1289 32.5143 35.5954 31.4478 36.5798C30.4274 37.5182 28.9559 38.0001 27.0689 38.0001ZM8.09728 20.7667C8.09728 20.7975 8.10241 21.0385 8.10241 21.5871V21.5922L8.09728 32.2112C8.09728 33.8007 8.51773 34.9954 9.34838 35.7697C10.1534 36.5183 11.3789 36.9029 12.9786 36.9029H27.0689C30.3403 36.9029 31.9503 35.3698 31.9913 32.2112V20.777C31.9503 17.6184 30.3403 16.0853 27.0689 16.0853H12.9735C11.3737 16.0853 10.1534 16.4648 9.34326 17.2185C8.51773 17.9774 8.09728 19.1772 8.09728 20.7667Z" fill="#86888C"/>
<path d="M11.7894 16.0442C11.5022 16.0442 11.2715 15.8134 11.2715 15.5263V9.92708C11.2715 5.55334 15.1273 2 19.8651 2H20.2241C24.9618 2 28.8177 5.55847 28.8177 9.92708V15.4853C28.8177 15.7724 28.587 16.0031 28.2998 16.0031C28.0127 16.0031 27.7819 15.7724 27.7819 15.4853V9.92708C27.7819 6.12762 24.3927 3.03062 20.2241 3.03062H19.8651C15.6965 3.03062 12.3072 6.12249 12.3072 9.92708V15.5263C12.3072 15.8134 12.0765 16.0442 11.7894 16.0442ZM20.0548 31.0164C18.1269 31.0164 17.0194 29.9088 17.0194 27.9809C17.0194 26.053 18.1269 24.9455 20.0548 24.9455C21.9828 24.9455 23.0903 26.053 23.0903 27.9809C23.0954 29.9088 21.9879 31.0164 20.0548 31.0164ZM20.0548 26.0427C18.732 26.0427 18.1167 26.658 18.1167 27.9809C18.1167 29.3038 18.732 29.9191 20.0548 29.9191C21.3777 29.9191 21.993 29.3038 21.993 27.9809C21.993 26.658 21.3777 26.0427 20.0548 26.0427Z" fill="#86888C"/>
</svg>
