<svg width="20" height="20" viewBox="0 0 20 20" fill="none" xmlns="http://www.w3.org/2000/svg">
<path fill-rule="evenodd" clip-rule="evenodd" d="M8.0535 14.9564C9.39442 14.9564 9.78372 14.451 9.78372 12.7026C9.78372 11.6098 9.61753 11.0179 9.22595 10.7288C8.97097 10.5398 8.5885 10.4488 8.0535 10.4488C7.51394 10.4488 7.1292 10.5421 6.87649 10.7333C6.48947 11.027 6.32556 11.6144 6.32556 12.7026C6.32328 14.451 6.7103 14.9564 8.0535 14.9564ZM8.05578 9.17386C6.93569 9.17386 6.856 9.4129 6.856 9.80903C6.856 9.87733 6.86056 9.93652 6.86966 9.98661C7.19067 9.85457 7.57769 9.78399 8.0535 9.78399C8.53159 9.78399 8.92089 9.85457 9.24189 9.98889C9.251 9.9388 9.25555 9.87961 9.25555 9.80903C9.25555 9.4129 9.17587 9.17386 8.05578 9.17386ZM11.095 12.0606C11.2795 12.0606 11.4297 12.2109 11.4297 12.393V13.035C11.4297 13.2194 11.2795 13.3674 11.095 13.3674H11.0928C10.9084 13.3674 10.7581 13.2194 10.7581 13.035V12.7231H10.4508C10.4485 13.2945 10.3961 13.7977 10.2664 14.2211L10.9789 14.4351C11.1269 14.4784 11.2248 14.6172 11.218 14.772L11.1656 15.7396C11.1542 15.9172 11.0085 16.056 10.831 16.0538H10.8127C10.6283 16.0447 10.4872 15.8876 10.4963 15.7032L10.535 14.9974L9.98634 14.8335C9.63347 15.3344 9.03699 15.6212 8.0535 15.6212C7.06545 15.6212 6.46898 15.3321 6.11611 14.8312L5.55379 14.9997L5.59021 15.7054C5.59932 15.8899 5.45817 16.0469 5.27376 16.056H5.25555C5.07797 16.056 4.93227 15.9195 4.92089 15.7419L4.86853 14.7743C4.85942 14.6195 4.95731 14.4806 5.10529 14.4374L5.83381 14.2188C5.70404 13.7954 5.65168 13.2945 5.6494 12.7254H5.34661V13.035C5.34661 13.2194 5.19636 13.3674 5.01195 13.3674H5.00968C4.82527 13.3674 4.67501 13.2194 4.67501 13.035V12.3907C4.67501 12.2063 4.82527 12.0583 5.00968 12.0583H5.67445C5.70859 11.6144 5.79283 11.1841 5.97723 10.8153L5.10757 10.5558C4.95959 10.5125 4.8617 10.3736 4.8708 10.2188L4.92316 9.25127C4.92999 9.07141 5.08025 8.93026 5.26238 8.93482H5.27604C5.46044 8.94392 5.60159 9.10101 5.59249 9.28541L5.55606 9.99116L6.23677 10.1961C6.20262 10.0686 6.18668 9.93652 6.18668 9.80448C6.18668 8.50454 7.4502 8.50454 8.05805 8.50454C8.66363 8.50454 9.92715 8.50454 9.92715 9.80448C9.92715 9.94563 9.90894 10.0708 9.87934 10.187L10.535 9.99116L10.4963 9.28541C10.4872 9.10101 10.6283 8.9462 10.8127 8.93482C11.0268 8.92571 11.1565 9.06458 11.1656 9.24899L11.218 10.2165C11.2271 10.3714 11.1269 10.5102 10.9789 10.5535L10.1252 10.8085C10.3096 11.1773 10.3961 11.6098 10.4303 12.056C10.4303 12.0606 11.095 12.0606 11.095 12.0606ZM8.02618 11.3457C8.21059 11.3457 8.36084 11.496 8.36084 11.6781V14.08C8.36084 14.2644 8.21059 14.4123 8.02846 14.4123H8.02618C7.84178 14.4123 7.69152 14.2644 7.69152 14.08V11.6781C7.69152 11.4937 7.84178 11.3435 8.02618 11.3457ZM17.1964 15.5393C17.3671 15.3344 17.3238 15.027 17.3238 15.0247L17.3261 8.24045L13.8771 10.3896C13.9499 10.6787 14.0137 10.9769 14.0501 11.3002C14.0865 11.6167 14.1047 11.9513 14.1047 12.2974C14.1047 13.6747 13.7997 14.8381 13.2168 15.7737C14.6966 15.7737 16.2789 15.7715 16.5612 15.7669C16.8617 15.7601 17.0757 15.685 17.1964 15.5393ZM8.3062 17.6315C8.98691 17.6201 11.3022 17.4357 12.5657 15.5757C13.1417 14.7242 13.4354 13.6224 13.4354 12.2951C13.4354 11.9764 13.4172 11.6667 13.383 11.3753C12.9186 7.35713 9.36255 6.961 8.28344 6.93368C8.14912 6.92913 8.01252 6.92913 7.8782 6.92913H7.75299C6.66249 6.93823 3.07456 7.29566 2.7012 11.5119C2.68071 11.7624 2.66932 12.0128 2.66932 12.2632C2.66932 17.1761 6.59192 17.6155 7.79624 17.6337C7.96699 17.6337 8.15595 17.6337 8.3062 17.6315ZM4.15822 6.77204C4.00342 6.88132 3.91235 7.12491 3.90552 7.47096V7.58251C4.99829 6.66959 6.41207 6.27802 7.74616 6.26663C7.92829 6.26436 8.13091 6.26663 8.2971 6.27119C10.4007 6.32127 12.7251 7.28883 13.6653 9.73618L17.3034 7.46868L17.3238 7.46185C17.3147 7.12491 17.226 6.88132 17.0575 6.76293L16.9846 6.7174L11.4297 3.20915C11.4138 3.19776 11.0768 2.9701 10.6215 2.9701C10.1525 2.9701 9.82015 3.19776 9.81787 3.20004C9.8156 3.19776 4.15822 6.77204 4.15822 6.77204ZM17.9886 14.9701C17.9932 14.9747 18.0774 15.5279 17.7131 15.965C17.4627 16.2655 17.078 16.4226 16.5726 16.4317C16.2584 16.4362 14.3347 16.4385 12.7319 16.4408C11.2521 18.105 9.01651 18.2871 8.31986 18.2985C8.21286 18.3008 8.08765 18.3008 7.96471 18.3008H7.78714C6.81958 18.2848 2 17.9274 2 12.2632C2 11.9809 2.01366 11.71 2.03415 11.4527C2.15481 10.0936 2.60102 9.04865 3.23392 8.26094V7.46185C3.24986 6.74244 3.53899 6.39185 3.78031 6.2211L3.8782 6.15736L9.43995 2.64683C9.79055 2.42372 10.1958 2.30306 10.6101 2.30078C11.2977 2.30078 11.7826 2.64227 11.8031 2.65593L17.4354 6.21199C17.6881 6.39185 17.9772 6.74244 17.9932 7.45502L17.9886 14.9701Z" fill="#86888C"/>
</svg>
