<svg width="24" height="24" viewBox="0 0 24 24" fill="none" xmlns="http://www.w3.org/2000/svg">
<path fill-rule="evenodd" clip-rule="evenodd" d="M20.7565 18.8551C20.5877 19.0549 20.2924 19.1617 19.8789 19.1674C18.3289 19.1927 3.71854 19.1674 3.56383 19.1674C3.39505 19.1533 3.23471 19.083 3.11095 18.9677C2.92248 18.782 2.82684 18.4782 2.82684 18.0619V8.67792L10.1574 13.3277C10.1996 13.3558 10.8409 13.8172 11.7326 13.8172C12.1827 13.8172 12.7003 13.699 13.2319 13.3474L20.9422 8.66385L20.9337 18.1294C20.9337 18.1322 21.0012 18.5654 20.7565 18.8551ZM3.56945 6.82419L20.2249 6.827C20.3289 6.82982 20.8212 6.8917 20.9197 7.71308L12.7903 12.6526C11.6763 13.3812 10.6834 12.692 10.6215 12.6498L2.83246 7.70745C2.85215 7.48804 2.91404 7.18425 3.08844 7.00141C3.20377 6.88326 3.3613 6.82419 3.56945 6.82419ZM21.7523 18.0619L21.7664 7.92124C21.7242 6.37693 20.7509 6.02532 20.2249 6.00563L3.56945 6C3.13345 6 2.75651 6.1519 2.48647 6.43882C1.96045 6.99578 1.99702 7.85654 2.00265 7.92968V18.0591C2.00265 18.706 2.18268 19.2096 2.53429 19.5527C2.81277 19.8228 3.18408 19.9803 3.57227 19.9887C3.67072 19.9887 10.1545 20 14.9534 20C17.3782 20 19.3697 19.9972 19.8929 19.9887C20.5624 19.9775 21.0688 19.7693 21.3951 19.3727C21.8704 18.7989 21.7607 18.0703 21.7523 18.0619Z" fill="#86888C"/>
</svg>
