<svg width="24" height="24" viewBox="0 0 24 24" fill="none" xmlns="http://www.w3.org/2000/svg">
<path fill-rule="evenodd" clip-rule="evenodd" d="M21.8005 20.787C21.6224 21.0008 21.3076 21.1136 20.8681 21.1225C20.0041 21.1373 15.5026 21.1373 12.8896 21.1344H12.848C8.95815 21.1373 4.71201 21.1344 4.00234 21.1225C3.56288 21.1136 3.2511 21.0037 3.07294 20.7899C2.81461 20.4811 2.8829 20.0238 2.88884 19.9496L2.87993 10.4626L10.6388 15.359C10.6685 15.3798 11.3455 15.8668 12.2987 15.8668C12.8599 15.8668 13.4003 15.7005 13.8962 15.3768L21.9906 10.326L21.9876 20.0238C21.9876 20.0298 22.0529 20.4811 21.8005 20.787ZM3.25407 8.27717L11.2772 3.20555C11.6276 2.98879 12.0314 2.87001 12.4412 2.86704C13.1004 2.86704 13.5873 3.19961 13.6111 3.21446L21.5986 8.26529C21.8451 8.44048 21.9787 8.79977 21.9906 9.29268V9.31643C21.9757 9.32237 21.9579 9.32534 21.943 9.33425L13.424 14.6464C13.0677 14.881 12.6876 14.9997 12.2987 14.9997C11.6424 14.9997 11.1584 14.6612 11.1287 14.6434L2.87696 9.43818V9.30159C2.88884 8.79977 3.02543 8.44048 3.25407 8.27717ZM22.8517 19.9526L22.8606 9.28377C22.8368 8.29201 22.436 7.7991 22.0856 7.54968L14.0981 2.49885C13.5992 2.17519 13.0202 2.00297 12.4263 2C11.4791 2 10.7991 2.47806 10.7902 2.484L2.90369 7.46951L2.76413 7.55859C2.43156 7.79614 2.0307 8.28608 2.00695 9.28971L2.0218 19.8783C2.00695 19.9645 1.89115 20.7335 2.39593 21.3393C2.74334 21.7579 3.27782 21.9747 3.98749 21.9866C4.55167 21.9955 7.15874 21.9984 9.93803 21.9984H12.848V21.5649L12.8925 21.9984C15.5026 22.0014 20.013 22.0014 20.883 21.9866C21.5897 21.9747 22.1242 21.755 22.4716 21.3393C22.9764 20.7335 22.8606 19.9645 22.8517 19.9526Z" fill="#86888C"/>
</svg>
