<svg width="40" height="40" viewBox="0 0 40 40" fill="none" xmlns="http://www.w3.org/2000/svg">
<path fill-rule="evenodd" clip-rule="evenodd" d="M15.6204 30.776C18.6375 30.776 19.5134 29.6389 19.5134 25.7049C19.5134 23.2461 19.1394 21.9143 18.2584 21.2638C17.6847 20.8386 16.8241 20.6337 15.6204 20.6337C14.4064 20.6337 13.5407 20.8438 12.9721 21.274C12.1013 21.9348 11.7325 23.2564 11.7325 25.7049C11.7274 29.6389 12.5982 30.776 15.6204 30.776ZM15.6255 17.7652C13.1053 17.7652 12.926 18.3031 12.926 19.1943C12.926 19.348 12.9363 19.4812 12.9567 19.5939C13.679 19.2968 14.5498 19.138 15.6204 19.138C16.6961 19.138 17.572 19.2968 18.2943 19.599C18.3147 19.4863 18.325 19.3531 18.325 19.1943C18.325 18.3031 18.1457 17.7652 15.6255 17.7652ZM22.4639 24.2604C22.8788 24.2604 23.2169 24.5984 23.2169 25.0082V26.4527C23.2169 26.8677 22.8788 27.2006 22.4639 27.2006H22.4587C22.0438 27.2006 21.7058 26.8677 21.7058 26.4527V25.751H21.0142C21.0091 27.0367 20.8913 28.1687 20.5993 29.1215L22.2026 29.603C22.5356 29.7003 22.7558 30.0128 22.7405 30.3611L22.6227 32.5381C22.597 32.9377 22.2692 33.2501 21.8697 33.245H21.8287C21.4138 33.2245 21.0962 32.8711 21.1167 32.4562L21.2038 30.8682L19.9693 30.4994C19.1753 31.6263 17.8332 32.2718 15.6204 32.2718C13.3973 32.2718 12.0552 31.6212 11.2612 30.4943L9.99602 30.8733L10.078 32.4613C10.0985 32.8762 9.78088 33.2296 9.36597 33.2501H9.32499C8.92544 33.2501 8.59761 32.9428 8.572 32.5432L8.45418 30.3662C8.43369 30.0179 8.65396 29.7054 8.98691 29.6081L10.6261 29.1164C10.3341 28.1636 10.2163 27.0367 10.2112 25.7561H9.52988V26.4527C9.52988 26.8677 9.19181 27.2006 8.77689 27.2006H8.77177C8.35686 27.2006 8.01878 26.8677 8.01878 26.4527V25.0031C8.01878 24.5882 8.35686 24.2552 8.77177 24.2552H10.2675C10.3443 23.2564 10.5339 22.2883 10.9488 21.4584L8.99203 20.8745C8.65908 20.7772 8.43882 20.4647 8.45931 20.1164L8.57712 17.9394C8.59249 17.5347 8.93056 17.2171 9.34035 17.2274H9.37109C9.786 17.2478 10.1036 17.6013 10.0831 18.0162L10.0011 19.6041L11.5327 20.0652C11.4559 19.7783 11.42 19.4812 11.42 19.1841C11.42 16.2592 14.2629 16.2592 15.6306 16.2592C16.9932 16.2592 19.8361 16.2592 19.8361 19.1841C19.8361 19.5017 19.7951 19.7834 19.7285 20.0447L21.2038 19.6041L21.1167 18.0162C21.0962 17.6013 21.4138 17.253 21.8287 17.2274C22.3102 17.2069 22.6022 17.5193 22.6227 17.9342L22.7405 20.1113C22.761 20.4596 22.5356 20.772 22.2026 20.8694L20.2817 21.4431C20.6966 22.2729 20.8913 23.2461 20.9681 24.2501C20.9681 24.2604 22.4639 24.2604 22.4639 24.2604ZM15.5589 22.6519C15.9738 22.6519 16.3119 22.99 16.3119 23.3998V28.8039C16.3119 29.2188 15.9738 29.5518 15.564 29.5518H15.5589C15.144 29.5518 14.8059 29.2188 14.8059 28.8039V23.3998C14.8059 22.9849 15.144 22.6468 15.5589 22.6519ZM36.1918 32.0873C36.576 31.6263 36.4787 30.9348 36.4787 30.9297L36.4838 15.665L28.7234 20.5006C28.8873 21.1511 29.0307 21.8221 29.1127 22.5495C29.1947 23.2615 29.2356 24.0145 29.2356 24.7931C29.2356 27.8921 28.5492 30.5097 27.2379 32.615C30.5674 32.615 34.1275 32.6098 34.7627 32.5996C35.4388 32.5842 35.9203 32.4152 36.1918 32.0873ZM16.189 36.7948C17.7205 36.7692 22.93 36.3543 25.7729 32.1693C27.0689 30.2535 27.7297 27.7743 27.7297 24.788C27.7297 24.0708 27.6887 23.3742 27.6118 22.7185C26.5669 13.6776 18.5657 12.7863 16.1377 12.7248C15.8355 12.7146 15.5282 12.7146 15.226 12.7146H14.9442C12.4906 12.735 4.41776 13.5393 3.57769 23.0259C3.53159 23.5893 3.50598 24.1528 3.50598 24.7163C3.50598 35.7703 12.3318 36.7589 15.0416 36.7999C15.4257 36.7999 15.8509 36.7999 16.189 36.7948ZM6.85601 12.3611C6.50768 12.607 6.30279 13.1551 6.28742 13.9337V14.1847C8.74616 12.1306 11.9271 11.2496 14.9289 11.2239C15.3386 11.2188 15.7945 11.2239 16.1685 11.2342C20.9015 11.3469 26.1315 13.5239 28.247 19.0304L36.4326 13.9286L36.4787 13.9132C36.4582 13.1551 36.2584 12.607 35.8793 12.3406L35.7154 12.2382L23.2169 4.34461C23.181 4.31899 22.4229 3.80676 21.3984 3.80676C20.3432 3.80676 19.5953 4.31899 19.5902 4.32412C19.5851 4.31899 6.85601 12.3611 6.85601 12.3611ZM37.9744 30.8068C37.9846 30.817 38.1742 32.0617 37.3546 33.0452C36.7911 33.7214 35.9254 34.0748 34.7883 34.0953C34.0814 34.1056 29.753 34.1107 26.1468 34.1158C22.8173 37.8603 17.7871 38.27 16.2197 38.2957C15.9789 38.3008 15.6972 38.3008 15.4206 38.3008H15.0211C12.8441 38.2649 2 37.4607 2 24.7163C2 24.0811 2.03073 23.4715 2.07684 22.8927C2.34832 19.8346 3.35231 17.4835 4.77632 15.7111V13.9132C4.81218 12.2945 5.46272 11.5057 6.00569 11.1215L6.22595 10.9781L18.7399 3.07938C19.5287 2.57739 20.4405 2.3059 21.3728 2.30078C22.9198 2.30078 24.0108 3.06914 24.0569 3.09987L36.7297 11.101C37.2982 11.5057 37.9488 12.2945 37.9846 13.8978L37.9744 30.8068Z" fill="#86888C"/>
</svg>
