<svg width="28" height="28" viewBox="0 0 28 28" fill="none" xmlns="http://www.w3.org/2000/svg">
<path fill-rule="evenodd" clip-rule="evenodd" d="M11.0803 21.2843C13.0916 21.2843 13.6756 20.5262 13.6756 17.9035C13.6756 16.2644 13.4263 15.3765 12.8389 14.9428C12.4565 14.6593 11.8828 14.5227 11.0803 14.5227C10.2709 14.5227 9.6938 14.6628 9.31474 14.9496C8.73421 15.3901 8.48833 16.2712 8.48833 17.9035C8.48492 20.5262 9.06545 21.2843 11.0803 21.2843ZM11.0837 12.6104C9.40353 12.6104 9.28401 12.969 9.28401 13.5632C9.28401 13.6656 9.29084 13.7544 9.3045 13.8295C9.786 13.6315 10.3665 13.5256 11.0803 13.5256C11.7974 13.5256 12.3813 13.6315 12.8628 13.8329C12.8765 13.7578 12.8833 13.669 12.8833 13.5632C12.8833 12.969 12.7638 12.6104 11.0837 12.6104ZM15.6426 16.9405C15.9192 16.9405 16.1446 17.1659 16.1446 17.4391V18.4021C16.1446 18.6787 15.9192 18.9007 15.6426 18.9007H15.6392C15.3626 18.9007 15.1372 18.6787 15.1372 18.4021V17.9342H14.6762C14.6727 18.7914 14.5942 19.5461 14.3995 20.1813L15.4684 20.5023C15.6904 20.5671 15.8372 20.7755 15.827 21.0077L15.7484 22.459C15.7314 22.7254 15.5128 22.9337 15.2464 22.9303H15.2191C14.9425 22.9166 14.7308 22.681 14.7445 22.4044L14.8025 21.3457L13.9795 21.0999C13.4502 21.8512 12.5555 22.2814 11.0803 22.2814C9.59818 22.2814 8.70347 21.8477 8.17416 21.0965L7.33068 21.3492L7.38532 22.4078C7.39898 22.6844 7.18725 22.92 6.91064 22.9337H6.88332C6.61696 22.9337 6.39841 22.7288 6.38133 22.4624L6.30279 21.0111C6.28913 20.7789 6.43597 20.5706 6.65794 20.5057L7.75071 20.1778C7.55606 19.5427 7.47752 18.7914 7.4741 17.9377H7.01992V18.4021C7.01992 18.6787 6.79454 18.9007 6.51793 18.9007H6.51451C6.23791 18.9007 6.01252 18.6787 6.01252 18.4021V17.4357C6.01252 17.1591 6.23791 16.9371 6.51451 16.9371H7.51167C7.56289 16.2712 7.68924 15.6258 7.96585 15.0726L6.66136 14.6833C6.43939 14.6184 6.29254 14.4101 6.3062 14.1778L6.38475 12.7265C6.39499 12.4567 6.62038 12.245 6.89357 12.2518H6.91406C7.19067 12.2655 7.40239 12.5011 7.38873 12.7777L7.33409 13.8364L8.35515 14.1437C8.30393 13.9525 8.28002 13.7544 8.28002 13.5563C8.28002 11.6064 10.1753 11.6064 11.0871 11.6064C11.9954 11.6064 13.8907 11.6064 13.8907 13.5563C13.8907 13.7681 13.8634 13.9559 13.819 14.13L14.8025 13.8364L14.7445 12.7777C14.7308 12.5011 14.9425 12.2689 15.2191 12.2518C15.5401 12.2382 15.7348 12.4465 15.7484 12.7231L15.827 14.1744C15.8406 14.4066 15.6904 14.615 15.4684 14.6798L14.1878 15.0623C14.4644 15.6155 14.5942 16.2644 14.6454 16.9337C14.6454 16.9405 15.6426 16.9405 15.6426 16.9405ZM11.0393 15.8682C11.3159 15.8682 11.5413 16.0936 11.5413 16.3668V19.9695C11.5413 20.2461 11.3159 20.4681 11.0427 20.4681H11.0393C10.7627 20.4681 10.5373 20.2461 10.5373 19.9695V16.3668C10.5373 16.0902 10.7627 15.8648 11.0393 15.8682ZM24.7945 22.1585C25.0507 21.8512 24.9858 21.3901 24.9858 21.3867L24.9892 11.2103L19.8156 14.434C19.9249 14.8677 20.0205 15.315 20.0751 15.7999C20.1298 16.2746 20.1571 16.7766 20.1571 17.2957C20.1571 19.3617 19.6995 21.1067 18.8253 22.5102C21.045 22.5102 23.4183 22.5068 23.8418 22.5C24.2925 22.4897 24.6135 22.377 24.7945 22.1585ZM11.4593 25.2968C12.4804 25.2797 15.9533 25.0031 17.8486 22.2131C18.7126 20.936 19.1531 19.2831 19.1531 17.2922C19.1531 16.8142 19.1258 16.3497 19.0746 15.9126C18.3779 9.8853 13.0438 9.29111 11.4252 9.25013C11.2237 9.2433 11.0188 9.2433 10.8173 9.2433H10.6295C8.99374 9.25696 3.61184 9.7931 3.05179 16.1175C3.02106 16.4932 3.00398 16.8688 3.00398 17.2444C3.00398 24.6138 8.88788 25.2729 10.6944 25.3002C10.9505 25.3002 11.2339 25.3002 11.4593 25.2968ZM5.23734 9.00767C5.00512 9.17158 4.86853 9.53698 4.85828 10.056V10.2234C6.49744 8.854 8.6181 8.26663 10.6192 8.24956C10.8924 8.24614 11.1964 8.24956 11.4456 8.25639C14.601 8.33152 18.0877 9.78285 19.498 13.4539L24.955 10.0526L24.9858 10.0424C24.9721 9.53698 24.8389 9.17158 24.5862 8.99401L24.477 8.92571L16.1446 3.66333C16.1207 3.64626 15.6153 3.30477 14.9323 3.30477C14.2288 3.30477 13.7302 3.64626 13.7268 3.64967C13.7234 3.64626 5.23734 9.00767 5.23734 9.00767ZM25.9829 21.3048C25.9898 21.3116 26.1161 22.1414 25.5697 22.7971C25.1941 23.2479 24.617 23.4835 23.8589 23.4971C23.3876 23.504 20.502 23.5074 18.0979 23.5108C15.8782 26.0071 12.5248 26.2803 11.4798 26.2974C11.3193 26.3008 11.1315 26.3008 10.9471 26.3008H10.6807C9.22937 26.2769 2 25.7407 2 17.2444C2 16.821 2.02049 16.4146 2.05122 16.0287C2.23221 13.99 2.90154 12.4226 3.85088 11.241V10.0424C3.87479 8.96327 4.30848 8.43738 4.67046 8.18126L4.8173 8.08564L13.1599 2.81985C13.6858 2.48519 14.2937 2.3042 14.9152 2.30078C15.9465 2.30078 16.6739 2.81302 16.7046 2.83351L25.1531 8.1676C25.5322 8.43738 25.9659 8.96327 25.9898 10.0321L25.9829 21.3048Z" fill="#86888C"/>
</svg>
