<svg width="24" height="24" viewBox="0 0 24 24" fill="none" xmlns="http://www.w3.org/2000/svg">
<path fill-rule="evenodd" clip-rule="evenodd" d="M19.1747 20.8503V4.63233C19.1747 4.5498 18.9101 4.29653 18.5344 4.29653H15.5435C15.5578 4.39613 15.5692 4.49289 15.5748 4.59533L15.5834 4.78884L15.5805 4.88275C15.535 6.20888 14.317 6.48207 12.5043 6.48207C10.6915 6.48207 9.47353 6.20603 9.42516 4.86568V4.66932L9.43085 4.57541C9.43369 4.47581 9.45361 4.38759 9.465 4.29653H6.46841C6.09277 4.29653 5.82812 4.55265 5.82812 4.63233V20.8503C5.82812 20.9641 6.107 21.1861 6.46841 21.1861H18.5344C18.8958 21.1861 19.1747 20.9613 19.1747 20.8503ZM12.4986 2.81389C11.0188 2.81389 10.3073 3.39158 10.2476 4.63233L10.2419 4.78884C10.2561 5.18725 10.2732 5.66818 12.4957 5.66818C14.7183 5.66818 14.7382 5.18725 14.7496 4.83722V4.70347C14.7439 4.46443 14.7069 4.22823 14.6386 4.00057C14.3882 3.20091 13.6881 2.81389 12.4986 2.81389ZM18.5316 3.48264C19.2999 3.48264 19.9972 4.03187 19.9972 4.63233V20.8503C19.9972 21.4764 19.3256 22 18.5316 22H6.46557C5.6716 22 5 21.4735 5 20.8503V4.63233C5 4.02903 5.70006 3.4798 6.46557 3.4798H9.66989C10.0968 2.52077 11.0672 2 12.5014 2C14.2459 2 15.0028 2.75413 15.3273 3.48264H18.5316ZM11.5822 4.97951C11.3574 4.97951 11.1725 4.80023 11.1696 4.57257C11.1696 4.34775 11.3546 4.16562 11.5822 4.16562H13.4121C13.6397 4.16562 13.8247 4.34775 13.8247 4.57257C13.8247 4.79738 13.6397 4.97951 13.4121 4.97951H11.5822ZM18.3182 13.7871C18.5458 13.7871 18.7308 13.9693 18.7308 14.1941C18.7308 14.4189 18.5458 14.601 18.3182 14.601H15.4098C15.2362 14.601 15.0797 14.4929 15.0199 14.3307L14.5191 12.922L14.1064 14.3108C14.0524 14.4843 13.893 14.6039 13.7109 14.601H13.0336L12.3705 16.7467C12.3164 16.9175 12.1571 17.0341 11.975 17.0341H11.955C11.7672 17.0256 11.6079 16.8919 11.5709 16.7069L10.5322 11.5845L9.69266 14.2595C9.63859 14.4303 9.47923 14.547 9.2971 14.547H6.679C6.45418 14.5498 6.26921 14.3677 6.26636 14.14C6.26636 13.9152 6.44849 13.7331 6.679 13.7331H8.9926L10.222 9.81446C10.276 9.63233 10.4496 9.51281 10.6375 9.52988C10.8253 9.53842 10.9846 9.67217 11.0216 9.85714L12.0575 14.9653L12.3307 14.0774C12.3847 13.9067 12.547 13.79 12.7262 13.79H13.4007L14.0865 11.4821C14.1377 11.3113 14.2943 11.1946 14.4707 11.1918C14.65 11.1861 14.8122 11.2943 14.8719 11.4622L15.7001 13.79L18.3182 13.7871Z" fill="#86888C"/>
</svg>
