<svg width="28" height="28" viewBox="0 0 28 28" fill="none" xmlns="http://www.w3.org/2000/svg">
<path fill-rule="evenodd" clip-rule="evenodd" d="M17.6589 19.4375C17.7067 19.4341 17.7511 19.4136 17.7784 19.376L17.7715 17.6449C17.7408 17.6142 17.6998 17.5971 17.6589 17.5937H15.4156C15.139 17.5937 14.9171 17.3683 14.9171 17.0952V14.8553C14.9171 14.8075 14.8932 14.7631 14.8556 14.7358L13.104 14.7426C13.1177 14.7461 13.0801 14.7973 13.0801 14.8553V17.0986C13.0801 17.3752 12.8548 17.5971 12.5816 17.5971H10.3383C10.2769 17.5971 10.2325 17.6347 10.2223 17.6517L10.2257 19.4136C10.2257 19.4102 10.2291 19.4102 10.2291 19.4102C10.2427 19.4102 10.2837 19.4341 10.3349 19.4341H12.5782C12.8548 19.4341 13.0767 19.6594 13.0767 19.9326V22.1793C13.0767 22.2407 13.1143 22.2851 13.1279 22.2919L14.8932 22.2885C14.8795 22.2851 14.9171 22.2407 14.9171 22.1793L14.9137 19.936C14.9137 19.8028 14.9683 19.6765 15.0605 19.5809C15.1561 19.4887 15.2824 19.4341 15.4156 19.4341L17.6589 19.4375ZM17.6589 16.5933C18.253 16.5933 18.772 17.0747 18.772 17.6176V19.4136C18.772 19.9599 18.253 20.4379 17.6589 20.4379H15.9175L15.9209 22.1793C15.9209 22.7836 15.4532 23.2889 14.8966 23.2889H13.104C12.5509 23.2889 12.0797 22.7802 12.0797 22.1793V20.4379H10.3349C9.73399 20.4379 9.22524 19.9667 9.22524 19.4136V17.6244C9.22524 17.0679 9.73399 16.6001 10.3349 16.6001H12.0797V14.8553C12.0797 14.251 12.5475 13.7422 13.104 13.7422H14.8932C15.4497 13.7422 15.9175 14.251 15.9175 14.8553V16.5933H17.6589ZM21.9406 24.9962C23.3336 24.9962 24.9931 24.3952 24.9931 21.5373V12.0418H3.00074V21.6295C3.00074 21.6364 2.92904 23.1148 3.83728 24.0743C4.40066 24.6718 5.27133 24.9757 6.41858 24.9757H21.5616C21.6025 24.9757 21.6435 24.9791 21.6845 24.9825C21.6981 24.9859 21.7937 24.9962 21.9406 24.9962ZM4.27091 5.8822C3.42754 6.41827 3.00074 7.39479 3.00074 8.78788V11.0414H24.9896V8.80837C24.9896 8.78105 24.9896 8.75374 24.9931 8.72983C24.9931 8.71959 25.0818 7.2548 24.1838 6.29535C23.617 5.68758 22.7327 5.38028 21.5547 5.38028H19.9021V6.10073C19.9021 6.37729 19.6768 6.59923 19.4036 6.59923C19.1305 6.59923 18.9051 6.37388 18.9051 6.10073V5.38028C15.7126 5.38028 11.7075 5.3837 9.10232 5.3837V6.10073C9.10232 6.37729 8.87697 6.59923 8.60381 6.59923C8.33066 6.59923 8.10531 6.37388 8.10531 6.10073V5.38711H6.40151C6.37078 5.38711 6.34005 5.38711 6.31273 5.3837C6.30249 5.3837 6.24786 5.38028 6.15909 5.38028C5.8313 5.38028 4.98794 5.42808 4.27091 5.8822ZM21.5547 4.37985C26.3418 4.37985 25.9901 8.81178 25.9901 8.81178L25.9935 21.5408C25.9935 25.6312 23.0161 26 21.9406 26C21.705 26 21.5581 25.9829 21.5581 25.9829H6.41517C1.70667 25.9795 2.00373 21.5647 2.00373 21.5647V8.78788C2.00373 4.67008 5.2406 4.37985 6.15909 4.37985C6.31273 4.37985 6.40151 4.38668 6.40151 4.38668H8.10189V2.49851C8.10189 2.22194 8.32725 2 8.6004 2C8.87355 2 9.10232 2.22194 9.10232 2.49851V4.38327L18.9051 4.37985V2.49851C18.9051 2.22194 19.1305 2 19.4036 2C19.6768 2 19.9021 2.22535 19.9021 2.49851V4.37985H21.5547Z" fill="#86888C"/>
</svg>
