<svg width="40" height="40" viewBox="0 0 40 40" fill="none" xmlns="http://www.w3.org/2000/svg">
<path fill-rule="evenodd" clip-rule="evenodd" d="M4.02086 10.0023C3.45865 10.0023 3 9.55349 3 9.00114C3 8.44879 3.45865 8 4.02086 8H36.6442C37.2064 8 37.665 8.44879 37.665 9.00114C37.665 9.55349 37.2064 10.0023 36.6442 10.0023H4.02086ZM36.6392 19.9989C37.2014 19.9989 37.6601 20.4476 37.6601 21C37.6601 21.5524 37.2014 22.0011 36.6392 22.0011H4.02086C3.45865 22.0011 3 21.5524 3 21C3 20.4476 3.45865 19.9989 4.02086 19.9989H36.6392ZM36.6392 31.9977C37.2014 31.9977 37.6601 32.4465 37.6601 32.9989C37.6601 33.5512 37.2014 34 36.6392 34H4.02086C3.45865 34 3 33.5512 3 32.9989C3 32.4465 3.45865 31.9977 4.02086 31.9977H36.6392Z" fill="#86888C"/>
</svg>
