<svg width="24" height="24" viewBox="0 0 24 24" fill="none" xmlns="http://www.w3.org/2000/svg">
<path fill-rule="evenodd" clip-rule="evenodd" d="M3.5497 6.07815C3.24697 6.07815 3 5.83649 3 5.53907C3 5.24165 3.24697 5 3.5497 5H21.1161C21.4188 5 21.6658 5.24165 21.6658 5.53907C21.6658 5.83649 21.4188 6.07815 21.1161 6.07815H3.5497ZM21.1134 11.4609C21.4162 11.4609 21.6631 11.7026 21.6631 12C21.6631 12.2974 21.4162 12.5391 21.1134 12.5391H3.5497C3.24697 12.5391 3 12.2974 3 12C3 11.7026 3.24697 11.4609 3.5497 11.4609H21.1134ZM21.1134 17.9219C21.4162 17.9219 21.6631 18.1635 21.6631 18.4609C21.6631 18.7583 21.4162 19 21.1134 19H3.5497C3.24697 19 3 18.7583 3 18.4609C3 18.1635 3.24697 17.9219 3.5497 17.9219H21.1134Z" fill="#86888C"/>
</svg>
