<svg width="28" height="28" viewBox="0 0 28 28" fill="none" xmlns="http://www.w3.org/2000/svg">
<path fill-rule="evenodd" clip-rule="evenodd" d="M20.9795 20.7539C20.9795 20.8837 20.7957 21.0545 20.6085 21.0545H7.32352C7.12611 21.0545 6.95251 20.8871 6.95251 20.7539V7.29045C6.95251 7.1675 7.14993 6.97965 7.32352 6.97965H20.6085C20.7821 6.97965 20.9795 7.1675 20.9795 7.29045V20.7539ZM25.4181 14.5072C25.6938 14.5072 25.9184 14.2818 25.9184 14.0051C25.9184 13.7285 25.6938 13.5031 25.4181 13.5031H21.9836V11.4914H25.4215C25.6972 11.4914 25.9218 11.266 25.9218 10.9893C25.9218 10.7127 25.6972 10.4873 25.4215 10.4873H21.9836V7.29045C21.9836 6.60054 21.3301 5.97211 20.6085 5.97211H17.4702V2.50206C17.4736 2.22542 17.249 2 16.9733 2C16.6976 2 16.4729 2.22542 16.4729 2.50206V5.96869H14.4681V2.50206C14.4681 2.22542 14.2434 2 13.9677 2C13.692 2 13.4674 2.22542 13.4674 2.50206V5.96869H11.4625V2.50206C11.4625 2.22542 11.2379 2 10.9588 2C10.6831 2 10.4584 2.22542 10.4584 2.50206V5.96869H7.32012C6.60192 5.96869 5.94499 6.59713 5.94499 7.28704V10.4838H2.50036C2.22465 10.4838 2 10.7093 2 10.9893C2 11.266 2.22465 11.4914 2.50036 11.4914H5.94839V13.5031H2.50036C2.22465 13.5031 2 13.7285 2 14.0051C2 14.2818 2.22465 14.5072 2.50036 14.5072H5.94839V16.5189H2.50036C2.22465 16.5189 2 16.7443 2 17.0209C2 17.2976 2.22465 17.523 2.50036 17.523H5.94839V20.7505C5.94839 21.4473 6.59171 22.0586 7.32352 22.0586H10.4618V25.4979C10.4754 25.7746 10.7069 25.9898 10.986 25.9795C11.2447 25.9693 11.4523 25.7609 11.4659 25.4979V22.0586H13.4708V25.4979C13.4708 25.7746 13.6954 26 13.9711 26C14.2468 26 14.4715 25.7746 14.4715 25.4979V22.0586H16.4763V25.4979C16.4763 25.7746 16.701 26 16.9767 26C17.2524 26 17.477 25.7746 17.477 25.4979V22.0586H20.6153C21.3471 22.0586 21.9904 21.4473 21.9904 20.7505V17.523H25.4283C25.704 17.5093 25.9184 17.2771 25.9082 16.997C25.898 16.7374 25.6904 16.5291 25.4283 16.5154H21.9836V14.5038L25.4181 14.5072Z" fill="#86888C"/>
</svg>
