<svg width="28" height="28" viewBox="0 0 28 28" fill="none" xmlns="http://www.w3.org/2000/svg">
<path fill-rule="evenodd" clip-rule="evenodd" d="M18.7792 15.6084V7.33409C18.7792 4.46215 17.3381 3.0074 14.5003 3.0074C11.6625 3.0074 10.2214 4.46215 10.2214 7.33409V15.6118C10.2214 18.4804 11.6625 19.9385 14.5003 19.9385C17.3381 19.9385 18.7792 18.4804 18.7792 15.6084ZM14.5003 2C17.9016 2 19.7729 3.89528 19.7729 7.33409V15.6118C19.7729 19.0507 17.9016 20.9459 14.4969 20.9459C11.0956 20.9459 9.22427 19.0507 9.22427 15.6118V7.33409C9.22427 3.89528 11.0991 2 14.5003 2ZM14.5276 23.6437C15.1696 23.6437 15.6921 24.1696 15.6921 24.8219C15.6921 25.4707 15.1696 26 14.5276 26C13.8822 25.9966 13.3597 25.4673 13.3631 24.8219C13.3631 24.1696 13.8856 23.6437 14.5276 23.6437ZM18.5845 22.4656C19.2265 22.4656 19.749 22.9915 19.749 23.6437C19.749 24.2925 19.2265 24.8219 18.5845 24.8219C17.9391 24.8184 17.4166 24.2925 17.4201 23.6437C17.4201 22.9915 17.9425 22.4656 18.5845 22.4656ZM21.8424 19.6585C22.4844 19.6585 23.0068 20.1844 23.0068 20.8367C23.0068 21.4855 22.4844 22.0148 21.8424 22.0148C21.1969 22.0114 20.6745 21.4821 20.6779 20.8367C20.6779 20.1878 21.1969 19.6585 21.8424 19.6585ZM23.0068 15.6494C23.5601 15.6528 24.004 16.1036 24.0006 16.6534C24.004 17.2066 23.5601 17.6574 23.0068 17.6608C22.4536 17.6574 22.0097 17.2066 22.0131 16.6534C22.0097 16.1002 22.4536 15.6528 23.0068 15.6494ZM10.4127 22.4656C11.0547 22.4656 11.5771 22.9915 11.5771 23.6437C11.5771 24.2925 11.0547 24.8219 10.4127 24.8219C9.76724 24.8184 9.24476 24.2925 9.24817 23.6437C9.24817 22.9915 9.77065 22.4656 10.4127 22.4656ZM7.15824 19.6585C7.80025 19.6585 8.32273 20.1844 8.32273 20.8367C8.32273 21.4855 7.80025 22.0148 7.15824 22.0148C6.51283 22.0114 5.99034 21.4821 5.99376 20.8367C5.99376 20.1878 6.51624 19.6585 7.15824 19.6585ZM6.9875 16.6534C6.99091 17.2066 6.54697 17.6574 5.99376 17.6608C5.44054 17.6574 4.9966 17.2066 5.00002 16.6534C4.9966 16.1002 5.44054 15.6528 5.99376 15.6494C6.54697 15.6528 6.99091 16.1002 6.9875 16.6534Z" fill="#86888C"/>
</svg>
