<svg width="24" height="24" viewBox="0 0 24 24" fill="none" xmlns="http://www.w3.org/2000/svg">
<path fill-rule="evenodd" clip-rule="evenodd" d="M17.8163 17.6283C17.8163 17.7364 17.6631 17.8788 17.5071 17.8788H6.43627C6.27175 17.8788 6.12709 17.7393 6.12709 17.6283V6.40871C6.12709 6.30625 6.29161 6.14971 6.43627 6.14971H17.5071C17.6518 6.14971 17.8163 6.30625 17.8163 6.40871V17.6283ZM21.5151 12.4227C21.7448 12.4227 21.932 12.2348 21.932 12.0043C21.932 11.7737 21.7448 11.5859 21.5151 11.5859H18.653V9.90949H21.5179C21.7476 9.90949 21.9349 9.72165 21.9349 9.49111C21.9349 9.26057 21.7476 9.07272 21.5179 9.07272H18.653V6.40871C18.653 5.83378 18.1084 5.31009 17.5071 5.31009H14.8918V2.41839C14.8947 2.18785 14.7075 2 14.4777 2C14.248 2 14.0608 2.18785 14.0608 2.41839V5.30724H12.3901V2.41839C12.3901 2.18785 12.2029 2 11.9731 2C11.7433 2 11.5561 2.18785 11.5561 2.41839V5.30724H9.88544V2.41839C9.88544 2.18785 9.69824 2 9.46564 2C9.23589 2 9.04868 2.18785 9.04868 2.41839V5.30724H6.43343C5.83493 5.30724 5.28749 5.83094 5.28749 6.40586V9.06987H2.41696C2.18721 9.06987 2 9.25772 2 9.49111C2 9.72165 2.18721 9.90949 2.41696 9.90949H5.29033V11.5859H2.41696C2.18721 11.5859 2 11.7737 2 12.0043C2 12.2348 2.18721 12.4227 2.41696 12.4227H5.29033V14.099H2.41696C2.18721 14.099 2 14.2869 2 14.5174C2 14.748 2.18721 14.9358 2.41696 14.9358H5.29033V17.6254C5.29033 18.2061 5.82643 18.7155 6.43627 18.7155H9.05152V21.5816C9.06286 21.8122 9.25574 21.9915 9.48833 21.9829C9.70391 21.9744 9.87693 21.8008 9.88828 21.5816V18.7155H11.559V21.5816C11.559 21.8122 11.7462 22 11.9759 22C12.2057 22 12.3929 21.8122 12.3929 21.5816V18.7155H14.0636V21.5816C14.0636 21.8122 14.2508 22 14.4806 22C14.7103 22 14.8975 21.8122 14.8975 21.5816V18.7155H17.5128C18.1226 18.7155 18.6587 18.2061 18.6587 17.6254V14.9358H21.5236C21.7533 14.9244 21.932 14.7309 21.9235 14.4975C21.915 14.2812 21.742 14.1076 21.5236 14.0962H18.653V12.4198L21.5151 12.4227Z" fill="#86888C"/>
</svg>
