<svg width="40" height="40" viewBox="0 0 40 40" fill="none" xmlns="http://www.w3.org/2000/svg">
<path fill-rule="evenodd" clip-rule="evenodd" d="M30.4693 30.1309C30.4693 30.3256 30.1936 30.5818 29.9128 30.5818H9.98529C9.68916 30.5818 9.42877 30.3307 9.42877 30.1309V9.93568C9.42877 9.75125 9.7249 9.46948 9.98529 9.46948H29.9128C30.1732 9.46948 30.4693 9.75125 30.4693 9.93568V30.1309ZM37.1271 20.7608C37.5407 20.7608 37.8776 20.4227 37.8776 20.0077C37.8776 19.5927 37.5407 19.2546 37.1271 19.2546H31.9755V16.2371H37.1322C37.5458 16.2371 37.8827 15.899 37.8827 15.484C37.8827 15.069 37.5458 14.7309 37.1322 14.7309H31.9755V9.93568C31.9755 8.90081 30.9952 7.95816 29.9128 7.95816H25.2053V2.7531C25.2104 2.33812 24.8735 2 24.4599 2C24.0463 2 23.7094 2.33812 23.7094 2.7531V7.95304H20.7021V2.7531C20.7021 2.33812 20.3651 2 19.9516 2C19.538 2 19.201 2.33812 19.201 2.7531V7.95304H16.1938V2.7531C16.1938 2.33812 15.8568 2 15.4382 2C15.0246 2 14.6876 2.33812 14.6876 2.7531V7.95304H9.98018C8.90288 7.95304 7.91749 8.89569 7.91749 9.93055V14.7258H2.75054C2.33698 14.7258 2 15.0639 2 15.484C2 15.899 2.33698 16.2371 2.75054 16.2371H7.92259V19.2546H2.75054C2.33698 19.2546 2 19.5927 2 20.0077C2 20.4227 2.33698 20.7608 2.75054 20.7608H7.92259V23.7783H2.75054C2.33698 23.7783 2 24.1164 2 24.5314C2 24.9464 2.33698 25.2845 2.75054 25.2845H7.92259V30.1258C7.92259 31.1709 8.88757 32.0879 9.98529 32.0879H14.6927V37.2469C14.7132 37.6619 15.0603 37.9846 15.479 37.9693C15.867 37.9539 16.1785 37.6414 16.1989 37.2469V32.0879H19.2062V37.2469C19.2062 37.6619 19.5431 38 19.9567 38C20.3702 38 20.7072 37.6619 20.7072 37.2469V32.0879H23.7145V37.2469C23.7145 37.6619 24.0514 38 24.465 38C24.8786 38 25.2155 37.6619 25.2155 37.2469V32.0879H29.923C31.0207 32.0879 31.9857 31.1709 31.9857 30.1258V25.2845H37.1424C37.556 25.264 37.8776 24.9156 37.8623 24.4955C37.847 24.1062 37.5355 23.7937 37.1424 23.7732H31.9755V20.7557L37.1271 20.7608Z" fill="#86888C"/>
</svg>
