<svg width="28" height="28" viewBox="0 0 28 28" fill="none" xmlns="http://www.w3.org/2000/svg">
<path fill-rule="evenodd" clip-rule="evenodd" d="M16.3522 17.6561C16.762 17.2805 16.9703 16.6692 16.9703 15.8461C16.9703 15.0197 16.7586 14.4118 16.3488 14.0293C15.9526 13.6605 15.3277 13.4761 14.4944 13.4761C13.6611 13.4761 13.043 13.6605 12.6434 14.0293C12.2336 14.4084 12.0287 15.0197 12.0287 15.8461C12.0287 16.6726 12.2336 17.2805 12.6434 17.6561C13.0396 18.0215 13.6611 18.2059 14.4944 18.2059C15.3311 18.2094 15.9561 18.0215 16.3522 17.6561ZM14.4944 12.4174C15.6248 12.4174 16.5093 12.7009 17.1172 13.2678C17.7558 13.8552 18.0768 14.7226 18.0768 15.8461C18.0768 16.9697 17.7524 17.8371 17.1138 18.4211C16.5059 18.9812 15.6214 19.268 14.491 19.268C13.364 19.268 12.4795 18.9812 11.8716 18.4211C11.2399 17.8371 10.9188 16.9731 10.9188 15.8461C10.9188 14.7192 11.2399 13.8517 11.8716 13.2678C12.4864 12.7009 13.3674 12.4174 14.4944 12.4174ZM19.7468 25.0395V24.5716C19.7468 23.7622 19.4975 23.0861 19.0262 22.6148C18.5071 22.0991 17.6943 21.8259 16.6766 21.8259H12.3156C11.3013 21.8259 10.492 22.0991 9.97287 22.6148C9.50501 23.0826 9.25912 23.7588 9.25912 24.5716V25.0395H19.7468ZM16.6766 20.7672C18.0017 20.7672 19.0877 21.1531 19.8219 21.884C20.4981 22.5533 20.8533 23.4822 20.8533 24.5716V25.7122C20.8533 25.9274 20.6723 26.1016 20.4469 26.1016H8.55562C8.33023 26.1016 8.14923 25.9274 8.14923 25.7122V24.5716C8.14923 23.4788 8.50439 22.5499 9.17033 21.884C9.90115 21.1531 10.9906 20.7672 12.3122 20.7672H16.6766ZM22.8613 5.41312C23.0662 5.63169 23.0457 5.96636 22.8169 6.16102C22.711 6.25323 22.5813 6.29421 22.4481 6.29421C22.2944 6.29421 22.1476 6.23274 22.0349 6.12004C19.074 2.95086 14.5047 3.16601 14.4603 3.16601C9.61087 3.22065 6.98811 5.90489 6.96079 5.93221C6.75247 6.14736 6.40413 6.16443 6.18215 5.96978C5.95676 5.7717 5.93627 5.44044 6.14459 5.22188C6.2607 5.09894 9.0952 2.16881 14.4227 2.11076C14.6071 2.09368 19.5385 1.85463 22.8613 5.41312ZM14.4295 5.59412C14.5866 5.58387 18.49 5.46093 20.9762 8.12468C21.1811 8.34324 21.1606 8.67792 20.9318 8.87258C20.7064 9.06382 20.3547 9.05016 20.1532 8.8316C18.0222 6.54692 14.4944 6.64596 14.4603 6.65279C10.9598 6.69035 8.87322 8.84867 8.84931 8.86916C8.74003 8.98186 8.58977 9.04333 8.43951 9.04333C8.30632 9.04333 8.17655 8.99894 8.06727 8.90673C7.84187 8.71207 7.82138 8.37739 8.02629 8.15883C8.12532 8.05979 10.4441 5.63852 14.4295 5.59412ZM18.7018 11.5739C18.4764 11.7685 18.1246 11.7481 17.9231 11.5295C16.6391 10.1566 14.5047 10.2215 14.4842 10.2215C12.3361 10.242 11.0896 11.5432 11.0793 11.5568C10.9735 11.6763 10.8198 11.731 10.6661 11.731C10.5329 11.731 10.4032 11.6866 10.2973 11.5978C10.0685 11.4031 10.0514 11.0685 10.2563 10.8499C10.3212 10.7816 11.8477 9.19018 14.4534 9.16286C14.5456 9.16627 17.1103 9.07065 18.7496 10.826C18.9511 11.0446 18.9306 11.3792 18.7018 11.5739Z" fill="#86888C"/>
</svg>
