<svg width="20" height="20" viewBox="0 0 20 20" fill="none" xmlns="http://www.w3.org/2000/svg">
<path fill-rule="evenodd" clip-rule="evenodd" d="M10.9015 12.4713C11.1747 12.2208 11.3136 11.8133 11.3136 11.2646C11.3136 10.7136 11.1724 10.3084 10.8992 10.0534C10.6351 9.80752 10.2185 9.68457 9.66294 9.68457C9.10742 9.68457 8.69534 9.80752 8.42897 10.0534C8.15576 10.3061 8.01916 10.7136 8.01916 11.2646C8.01916 11.8156 8.15576 12.2208 8.42897 12.4713C8.69306 12.7149 9.10742 12.8378 9.66294 12.8378C10.2207 12.8401 10.6374 12.7149 10.9015 12.4713ZM9.66294 8.9788C10.4165 8.9788 11.0062 9.16776 11.4115 9.5457C11.8372 9.93729 12.0512 10.5156 12.0512 11.2646C12.0512 12.0136 11.8349 12.5919 11.4092 12.9812C11.0039 13.3546 10.4143 13.5459 9.66066 13.5459C8.90935 13.5459 8.31968 13.3546 7.91443 12.9812C7.49324 12.5919 7.27923 12.0159 7.27923 11.2646C7.27923 10.5133 7.49324 9.93501 7.91443 9.5457C8.32424 9.16776 8.91163 8.9788 9.66294 8.9788ZM13.1645 17.3935V17.0816C13.1645 16.542 12.9983 16.0912 12.6841 15.777C12.3381 15.4333 11.7962 15.2511 11.1178 15.2511H8.2104C7.53422 15.2511 6.99464 15.4333 6.64858 15.777C6.33667 16.089 6.17275 16.5397 6.17275 17.0816V17.3935H13.1645ZM11.1178 14.5453C12.0011 14.5453 12.7251 14.8026 13.2146 15.2898C13.6654 15.7361 13.9022 16.3553 13.9022 17.0816V17.842C13.9022 17.9855 13.7815 18.1016 13.6312 18.1016H5.70375C5.55348 18.1016 5.43282 17.9855 5.43282 17.842V17.0816C5.43282 16.3531 5.6696 15.7338 6.11355 15.2898C6.60077 14.8026 7.32704 14.5453 8.20812 14.5453H11.1178ZM15.2409 4.30927C15.3775 4.45498 15.3638 4.6781 15.2113 4.80787C15.1407 4.86934 15.0542 4.89666 14.9654 4.89666C14.8629 4.89666 14.765 4.85568 14.6899 4.78055C12.716 2.66776 9.66977 2.81119 9.64017 2.81119C6.40725 2.84762 4.65874 4.63711 4.64052 4.65533C4.50165 4.79876 4.26942 4.81014 4.12144 4.68037C3.97117 4.54832 3.95751 4.32748 4.09639 4.18177C4.1738 4.09981 6.06347 2.1464 9.61513 2.10769C9.73807 2.09631 13.0256 1.93694 15.2409 4.30927ZM9.61968 4.42993C9.72441 4.4231 12.3267 4.34114 13.9841 6.11697C14.1207 6.26268 14.1071 6.4858 13.9545 6.61557C13.8043 6.74307 13.5698 6.73396 13.4354 6.58825C12.0148 5.06514 9.66294 5.13116 9.64017 5.13571C7.30655 5.16076 5.91548 6.59964 5.89954 6.6133C5.82669 6.68843 5.72651 6.72941 5.62634 6.72941C5.53755 6.72941 5.45103 6.69981 5.37818 6.63834C5.22791 6.50857 5.21425 6.28545 5.35086 6.13974C5.41688 6.07372 6.96277 4.45953 9.61968 4.42993ZM12.4678 8.41645C12.3176 8.54622 12.0831 8.53256 11.9488 8.38685C11.0927 7.47162 9.66977 7.51487 9.65611 7.51487C8.22406 7.52853 7.39306 8.39596 7.38623 8.40507C7.31566 8.48475 7.2132 8.52118 7.11075 8.52118C7.02196 8.52118 6.93545 8.49158 6.86487 8.43239C6.71233 8.30261 6.70094 8.0795 6.83755 7.93379C6.8808 7.88825 7.89849 6.82731 9.63562 6.80909C9.69709 6.81137 11.4069 6.74762 12.4997 7.91785C12.634 8.06356 12.6204 8.28668 12.4678 8.41645Z" fill="#86888C"/>
</svg>
