<svg width="24" height="24" viewBox="0 0 24 24" fill="none" xmlns="http://www.w3.org/2000/svg">
<path fill-rule="evenodd" clip-rule="evenodd" d="M21.158 18.3817V5.62964C21.158 4.67103 20.9418 3.9798 20.4839 3.52183C20.0259 3.06386 19.3432 2.83914 18.376 2.83914H12.0043C11.0542 2.83914 10.363 3.07239 9.90499 3.5389C9.44702 4.0054 9.2223 4.6881 9.2223 5.62964V6.12175C12.3627 6.48869 14.1633 8.43152 14.1633 12.138C14.1633 15.8444 12.3627 17.7872 9.23084 18.1542V18.7458C9.27919 19.511 9.49538 20.097 9.90499 20.4867C10.3544 20.9447 11.0457 21.1637 12.0043 21.1637H18.376C19.3432 21.1637 20.0259 20.9475 20.4839 20.4867C20.9418 20.0373 21.158 19.346 21.158 18.3817ZM8.08164 17.389C11.6117 17.389 13.3298 15.6709 13.3298 12.138C13.3298 8.60504 11.6117 6.88693 8.08164 6.88693C4.54871 6.88693 2.83345 8.60504 2.83345 12.138C2.83345 15.6709 4.54871 17.389 8.08164 17.389ZM21.0755 2.9387C21.6928 3.55597 21.9915 4.43778 21.9915 5.62964V18.3817C21.9915 19.5821 21.6928 20.4639 21.067 21.0812C20.4497 21.6985 19.5679 22 18.376 22H12.0043C10.8124 22 9.93913 21.6985 9.31333 21.0841C8.76433 20.5436 8.46281 19.7841 8.39738 18.7828V18.2168C8.28929 18.2168 8.18973 18.2253 8.08164 18.2253C4.2415 18.2224 2 16.2882 2 12.138C2 7.9963 4.2415 6.05348 8.08164 6.05348C8.18973 6.05348 8.28929 6.06201 8.38885 6.06201V5.6268C8.38885 4.452 8.68753 3.57588 9.31333 2.95008C9.93913 2.31859 10.8209 2 12.0043 2H18.376C19.5764 2.00569 20.4583 2.3129 21.0755 2.9387ZM6.71341 14.2088L10.2919 12.1408L6.71341 10.0728V14.2088ZM11.3358 11.7795C11.5349 11.8962 11.6032 12.1493 11.4866 12.3485C11.4496 12.411 11.3984 12.4622 11.3358 12.4992L6.50576 15.2897C6.37776 15.3637 6.21846 15.3637 6.09046 15.2897C5.96245 15.2158 5.88281 15.0792 5.88281 14.9285V9.35315C5.88281 9.12274 6.07055 8.93785 6.29811 8.93785C6.37207 8.93785 6.44318 8.95776 6.50576 8.99474C6.50576 8.99189 11.3358 11.7795 11.3358 11.7795ZM14.3937 19.0104C14.2059 18.8198 14.1121 18.5553 14.1121 18.2224C14.1121 17.5426 14.516 17.1387 15.193 17.1387C15.87 17.1387 16.2739 17.5454 16.2739 18.2224C16.2739 18.5553 16.1801 18.8198 15.9923 19.0104C15.8017 19.2038 15.5258 19.3062 15.193 19.3062C14.8602 19.3091 14.5843 19.2067 14.3937 19.0104Z" fill="#86888C"/>
</svg>
