<svg width="28" height="28" viewBox="0 0 28 28" fill="none" xmlns="http://www.w3.org/2000/svg">
<path d="M21.7768 26H13.0126C11.762 26 10.8633 25.7062 10.2688 25.1049C9.67428 24.5036 9.38727 23.5949 9.38727 22.3274V17.2302C9.38727 17.0423 9.54102 16.8885 9.72895 16.8885C9.91688 16.8885 10.0706 17.0423 10.0706 17.2302V22.3274C10.0706 23.407 10.2927 24.1586 10.754 24.6266C11.2153 25.0947 11.9499 25.3201 13.0091 25.3201H21.7734C22.8326 25.3201 23.5706 25.0947 24.0285 24.6266C24.4864 24.1586 24.7119 23.407 24.7119 22.3274V5.6726C24.7119 3.57836 23.8337 2.68327 21.7734 2.68327H13.0126C10.9249 2.68327 10.0741 3.54762 10.0741 5.6726V12.3345C10.0741 12.5224 9.9203 12.6762 9.73237 12.6762C9.54444 12.6762 9.39068 12.5224 9.39068 12.3345V5.6726C9.39068 3.1684 10.5422 2 13.0126 2H21.7768C24.213 2 25.3987 3.20256 25.3987 5.6726V22.3274C25.3987 23.5949 25.1116 24.5036 24.5171 25.1049C23.9226 25.7062 23.0274 26 21.7768 26Z" fill="#86888C"/>
<path d="M17.393 21.1112C18.008 21.1112 18.4078 21.4357 18.4078 22.1292C18.4078 22.4641 18.3155 22.71 18.1515 22.8774C17.9738 23.0585 17.7141 23.1473 17.393 23.1473C17.0718 23.1473 16.8121 23.0585 16.6344 22.8774C16.4704 22.71 16.3781 22.4606 16.3781 22.1292C16.3816 21.4357 16.7813 21.1112 17.393 21.1112ZM15.3975 6.43444C15.6299 6.43444 15.8622 6.46519 16.0877 6.52327L14.926 7.68484L15.1617 9.33494L16.8121 9.57067L17.9738 8.40911C18.3565 9.83032 17.5125 11.2925 16.0911 11.6752C15.6401 11.7981 15.1617 11.7981 14.7107 11.6752L8.29728 18.0809C8.67997 19.5021 7.83601 20.9643 6.41459 21.3469C5.96357 21.4699 5.48521 21.4699 5.03418 21.3469L6.19592 20.1853L5.96015 18.5386L4.30981 18.3029L3.14808 19.4645C2.76539 18.0433 3.60935 16.5811 5.03077 16.1984C5.48179 16.0754 5.96015 16.0754 6.41118 16.1984L12.8212 9.78932C12.4385 8.36811 13.2825 6.9059 14.7039 6.52669C14.9294 6.46519 15.1617 6.43444 15.3975 6.43444ZM15.3975 5.75117C13.8702 5.75117 12.5376 6.78291 12.1549 8.25879C12.0456 8.68583 12.0217 9.12654 12.0797 9.56384L6.18908 15.4537C6.03532 15.4332 5.87815 15.4229 5.72439 15.4195C4.19705 15.4195 2.86448 16.4512 2.48179 17.9271C2.33828 18.4874 2.33828 19.075 2.48863 19.6319C2.5843 19.9974 2.96015 20.2127 3.32576 20.117C3.44193 20.0863 3.54785 20.0248 3.63327 19.9394L4.55241 19.0204L5.35537 19.1365L5.46812 19.9394L4.54899 20.8584C4.28248 21.1248 4.28248 21.5587 4.54899 21.8252C4.63441 21.9106 4.74033 21.9721 4.85651 22.0028C5.14011 22.078 5.43054 22.1156 5.72439 22.1156C7.25172 22.1156 8.5843 21.0838 8.96699 19.608C9.07632 19.1809 9.10024 18.7402 9.04216 18.3029L14.9328 12.4131C15.0866 12.4336 15.2438 12.4438 15.3975 12.4473C16.9248 12.4473 18.2574 11.4155 18.6401 9.93964C18.7836 9.37936 18.7836 8.79174 18.6333 8.23487C18.5376 7.86932 18.1617 7.65409 17.7961 7.74975C17.68 7.78049 17.574 7.84199 17.4886 7.9274L16.5695 8.8464L15.7665 8.73366L15.6538 7.93082L16.5729 7.01181C16.8394 6.74533 16.8394 6.31146 16.5729 6.04498C16.4875 5.95957 16.3816 5.89807 16.2654 5.86733C15.9784 5.78875 15.6879 5.75117 15.3975 5.75117Z" fill="#86888C"/>
</svg>
