<svg width="40" height="40" viewBox="0 0 40 40" fill="none" xmlns="http://www.w3.org/2000/svg">
<path d="M31.4777 38.2539H18.3313C16.4555 38.2539 15.1075 37.8132 14.2157 36.9113C13.3239 36.0093 12.8934 34.6462 12.8934 32.745V25.0992C12.8934 24.8173 13.124 24.5867 13.4059 24.5867C13.6878 24.5867 13.9185 24.8173 13.9185 25.0992V32.745C13.9185 34.3644 14.2516 35.4918 14.9435 36.1938C15.6354 36.8959 16.7374 37.2341 18.3262 37.2341H31.4726C33.0614 37.2341 34.1685 36.8959 34.8552 36.1938C35.542 35.4918 35.8803 34.3644 35.8803 32.745V7.7628C35.8803 4.62145 34.5631 3.27882 31.4726 3.27882H18.3313C15.1998 3.27882 13.9236 4.57533 13.9236 7.7628V17.7557C13.9236 18.0375 13.6929 18.2681 13.4111 18.2681C13.1292 18.2681 12.8985 18.0375 12.8985 17.7557V7.7628C12.8985 4.0065 14.6257 2.25391 18.3313 2.25391H31.4777C35.132 2.25391 36.9105 4.05775 36.9105 7.7628V32.745C36.9105 34.6462 36.48 36.0093 35.5882 36.9113C34.6964 37.8132 33.3535 38.2539 31.4777 38.2539Z" fill="#86888C"/>
<path d="M24.9019 30.9207C25.8245 30.9207 26.4241 31.4075 26.4241 32.4478C26.4241 32.95 26.2858 33.319 26.0397 33.5701C25.7732 33.8417 25.3837 33.9749 24.9019 33.9749C24.4202 33.9749 24.0306 33.8417 23.7641 33.5701C23.5181 33.319 23.3797 32.9449 23.3797 32.4478C23.3848 31.4075 23.9845 30.9207 24.9019 30.9207ZM21.9088 8.90557C22.2573 8.90557 22.6058 8.95169 22.9441 9.03881L21.2015 10.7812L21.5551 13.2563L24.0306 13.6099L25.7732 11.8676C26.3473 13.9994 25.0813 16.1927 22.9492 16.7666C22.2727 16.9511 21.5551 16.9511 20.8786 16.7666L11.2584 26.3752C11.8325 28.507 10.5665 30.7003 8.43439 31.2743C7.75785 31.4587 7.04031 31.4587 6.36378 31.2743L8.10637 29.5319L7.75273 27.0619L5.27721 26.7083L3.53462 28.4506C2.96059 26.3188 4.22653 24.1255 6.35865 23.5516C7.03519 23.3671 7.75273 23.3671 8.42927 23.5516L18.0443 13.9379C17.4703 11.8061 18.7362 9.61276 20.8683 9.04394C21.2066 8.95169 21.5551 8.90557 21.9088 8.90557ZM21.9088 7.88066C19.6178 7.88066 17.6189 9.42828 17.0449 11.6421C16.8809 12.2827 16.845 12.9437 16.9321 13.5997L8.09612 22.4344C7.86548 22.4037 7.62972 22.3883 7.39908 22.3832C5.10808 22.3832 3.10922 23.9308 2.53519 26.1446C2.31993 26.985 2.31993 27.8664 2.54544 28.7017C2.68895 29.2501 3.25273 29.5729 3.80113 29.4294C3.97539 29.3833 4.13428 29.2911 4.26241 29.1629L5.64111 27.7844L6.84555 27.9587L7.01469 29.1629L5.63598 30.5414C5.23621 30.9412 5.23621 31.592 5.63598 31.9917C5.76412 32.1198 5.923 32.212 6.09726 32.2582C6.52266 32.3709 6.95831 32.4273 7.39908 32.4273C9.69008 32.4273 11.6889 30.8797 12.263 28.6659C12.427 28.0253 12.4629 27.3642 12.3757 26.7083L21.2117 17.8735C21.4424 17.9043 21.6781 17.9197 21.9088 17.9248C24.1998 17.9248 26.1986 16.3772 26.7727 14.1634C26.9879 13.3229 26.9879 12.4415 26.7624 11.6062C26.6189 11.0579 26.0551 10.735 25.5067 10.8785C25.3325 10.9246 25.1736 11.0169 25.0454 11.145L23.6667 12.5235L22.4623 12.3544L22.2932 11.1501L23.6719 9.77162C24.0716 9.37191 24.0716 8.72109 23.6719 8.32137C23.5437 8.19326 23.3848 8.10102 23.2106 8.0549C22.7801 7.93703 22.3444 7.88066 21.9088 7.88066Z" fill="#86888C"/>
</svg>
