<svg width="40" height="40" viewBox="0 0 40 40" fill="none" xmlns="http://www.w3.org/2000/svg">
<path fill-rule="evenodd" clip-rule="evenodd" d="M11.8363 31.1994C12.7944 31.1994 13.3682 31.7732 13.3682 32.7312C13.3682 33.1974 13.235 33.5765 12.9737 33.848C12.7021 34.1247 12.3128 34.2681 11.8415 34.2681C11.3701 34.2681 10.9808 34.1247 10.7093 33.848C10.4429 33.5765 10.3097 33.2025 10.3097 32.7312C10.3097 31.7681 10.8783 31.1994 11.8363 31.1994ZM24.5877 27.4749C32.4619 27.4749 36.4426 23.5045 36.4426 15.6406C36.4426 7.79197 32.4619 3.81133 24.5877 3.81133C19.1111 3.81133 15.525 5.78884 13.8548 9.6158H16.3549C18.1019 9.6158 19.398 10.0666 20.3151 10.9888C21.2372 11.9058 21.6727 13.1815 21.6727 14.9233V27.2495C22.5795 27.3929 23.558 27.4749 24.5877 27.4749ZM20.1101 32.9515V14.9233C20.1101 13.6169 19.813 12.6845 19.2034 12.0749C18.5937 11.4704 17.6562 11.1732 16.3498 11.1732H7.31777C6.02163 11.1732 5.09947 11.4857 4.47446 12.1056C3.86993 12.7306 3.55742 13.6477 3.55742 14.9233V32.9515C3.55742 34.2579 3.85456 35.1903 4.47446 35.7999C5.0841 36.4045 6.00626 36.7016 7.31777 36.7016H16.3498C17.6613 36.7016 18.5988 36.4045 19.2085 35.7999C19.813 35.1903 20.1101 34.2579 20.1101 32.9515ZM24.5877 2.25391C33.3738 2.25391 38.0051 6.89031 38.0051 15.6406C38.0051 24.4062 33.3738 29.0272 24.5877 29.0272C23.558 29.0272 22.5948 28.9452 21.6727 28.8069V32.9464C21.6727 34.7036 21.2219 35.9946 20.2997 36.9014C19.3929 37.8184 18.0968 38.2539 16.3549 38.2539H7.31777C5.58617 38.2539 4.29002 37.8133 3.36787 36.9014C2.45083 35.9997 2 34.6934 2 32.9515V14.9233C2 13.2122 2.45083 11.9366 3.37299 11.0195C4.29515 10.0666 5.59129 9.6158 7.3229 9.6158H12.1591C13.9471 4.80521 18.2248 2.25391 24.5877 2.25391ZM27.9331 20.4255L24.0396 16.5422C23.891 16.3937 23.809 16.199 23.809 15.9889V10.7378C23.809 10.3074 24.1574 9.95904 24.5877 9.95904C25.0181 9.95904 25.3664 10.3074 25.3664 10.7378V15.6713L29.0295 19.3292C29.3317 19.6314 29.3317 20.1284 29.0295 20.4307C28.7272 20.7278 28.2354 20.7278 27.9331 20.4255Z" fill="#86888C"/>
</svg>
