<svg width="28" height="28" viewBox="0 0 28 28" fill="none" xmlns="http://www.w3.org/2000/svg">
<path d="M18.3287 26H9.67129C8.41793 26 7.51291 25.7096 6.90843 25.1083C6.29712 24.5036 6 23.5915 6 22.3274V5.6726C6 4.4427 6.29712 3.5442 6.90502 2.92925C7.52316 2.30406 8.42817 2 9.67129 2H18.3287C19.5855 2 20.4905 2.29722 21.0984 2.90875C21.7063 3.52028 22 4.42221 22 5.6726V22.3274C22 23.5915 21.7029 24.5002 21.0916 25.1083C20.4871 25.7096 19.5821 26 18.3287 26ZM9.67129 2.68327C8.61942 2.68327 7.87492 2.919 7.38997 3.40754C6.91185 3.88925 6.67962 4.6306 6.67962 5.6726V22.3274C6.67962 24.4524 7.54707 25.3167 9.66788 25.3167H18.3253C20.4495 25.3167 21.3136 24.4524 21.3136 22.3274V5.6726C21.3136 4.61011 21.0847 3.86192 20.6134 3.39046C20.1422 2.919 19.3942 2.68327 18.3287 2.68327H9.67129Z" fill="#86888C"/>
<path d="M14.0085 21.1112C13.3938 21.1112 12.9942 21.4357 12.9942 22.1293C12.9942 22.4641 13.0864 22.71 13.2504 22.8774C13.428 23.0585 13.6875 23.1473 14.0085 23.1473C14.3296 23.1473 14.5891 23.0585 14.7667 22.8774C14.9306 22.71 15.0194 22.4641 15.0194 22.1293C15.0194 21.4357 14.6233 21.1112 14.0085 21.1112Z" fill="#86888C"/>
</svg>
