<svg width="20" height="20" viewBox="0 0 20 20" fill="none" xmlns="http://www.w3.org/2000/svg">
<path d="M15.3095 18H9.4667C8.63299 18 8.0339 17.8041 7.63754 17.4033C7.24119 17.0024 7.04984 16.3966 7.04984 15.5516V12.1535C7.04984 12.0282 7.15235 11.9257 7.27763 11.9257C7.40292 11.9257 7.50542 12.0282 7.50542 12.1535V15.5516C7.50542 16.2713 7.65349 16.7724 7.96101 17.0844C8.26852 17.3964 8.75827 17.5468 9.46442 17.5468H15.3072C16.0134 17.5468 16.5054 17.3964 16.8107 17.0844C17.1159 16.7724 17.2662 16.2713 17.2662 15.5516V4.4484C17.2662 3.05224 16.6808 2.45552 15.3072 2.45552H9.4667C8.0749 2.45552 7.5077 3.03174 7.5077 4.4484V8.88968C7.5077 9.01495 7.4052 9.11744 7.27991 9.11744C7.15463 9.11744 7.05212 9.01495 7.05212 8.88968V4.4484C7.05212 2.77893 7.81978 2 9.4667 2H15.3095C16.9337 2 17.7241 2.80171 17.7241 4.4484V15.5516C17.7241 16.3966 17.5328 17.0024 17.1364 17.4033C16.74 17.8041 16.1432 18 15.3095 18Z" fill="#86888C"/>
<path d="M12.387 14.7408C12.797 14.7408 13.0635 14.9572 13.0635 15.4195C13.0635 15.6427 13.002 15.8067 12.8927 15.9183C12.7742 16.039 12.6011 16.0982 12.387 16.0982C12.1728 16.0982 11.9997 16.039 11.8813 15.9183C11.7719 15.8067 11.7104 15.6404 11.7104 15.4195C11.7127 14.9572 11.9792 14.7408 12.387 14.7408ZM11.0567 4.9563C11.2116 4.9563 11.3665 4.97679 11.5168 5.01551L10.7423 5.78989L10.8995 6.88996L11.9997 7.04711L12.7742 6.27274C13.0293 7.22021 12.4667 8.19501 11.5191 8.4501C11.2184 8.5321 10.8995 8.5321 10.5988 8.4501L6.32319 12.7206C6.57831 13.668 6.01567 14.6428 5.06806 14.8979C4.76738 14.9799 4.44847 14.9799 4.14779 14.8979L4.92228 14.1236L4.7651 13.0258L3.66487 12.8686L2.89039 13.643C2.63526 12.6955 3.1979 11.7207 4.14551 11.4656C4.44619 11.3836 4.7651 11.3836 5.06578 11.4656L9.33913 7.19288C9.08401 6.24541 9.64665 5.2706 10.5943 5.01779C10.7446 4.97679 10.8995 4.9563 11.0567 4.9563ZM11.0567 4.50078C10.0384 4.50078 9.15007 5.18861 8.89494 6.17252C8.82205 6.45722 8.8061 6.75103 8.84483 7.04256L4.91772 10.9691C4.81522 10.9554 4.71043 10.9486 4.60793 10.9463C3.5897 10.9463 2.70132 11.6342 2.44619 12.6181C2.35052 12.9916 2.35052 13.3833 2.45075 13.7546C2.51453 13.9983 2.7651 14.1418 3.00884 14.078C3.08629 14.0575 3.1569 14.0165 3.21385 13.9596L3.8266 13.3469L4.36191 13.4243L4.43708 13.9596L3.82433 14.5722C3.64665 14.7499 3.64665 15.0391 3.82433 15.2168C3.88127 15.2737 3.95189 15.3147 4.02934 15.3352C4.2184 15.3853 4.41203 15.4104 4.60793 15.4104C5.62615 15.4104 6.51453 14.7226 6.76966 13.7386C6.84255 13.4539 6.8585 13.1601 6.81977 12.8686L10.7469 8.94206C10.8494 8.95573 10.9542 8.96256 11.0567 8.96484C12.0749 8.96484 12.9633 8.27701 13.2184 7.29309C13.3141 6.91957 13.3141 6.52783 13.2138 6.15658C13.1501 5.91288 12.8995 5.76939 12.6558 5.83316C12.5783 5.85366 12.5077 5.89466 12.4508 5.9516L11.838 6.56427L11.3027 6.48911L11.2275 5.95388L11.8403 5.34121C12.0179 5.16356 12.0179 4.8743 11.8403 4.69665C11.7833 4.63971 11.7127 4.59872 11.6353 4.57822C11.4439 4.52583 11.2503 4.50078 11.0567 4.50078Z" fill="#86888C"/>
</svg>
