<svg width="28" height="28" viewBox="0 0 28 28" fill="none" xmlns="http://www.w3.org/2000/svg">
<path fill-rule="evenodd" clip-rule="evenodd" d="M8.55663 21.2943C9.19522 21.2943 9.57769 21.6767 9.57769 22.3153C9.57769 22.6261 9.4889 22.8788 9.31474 23.0598C9.13375 23.2442 8.87422 23.3398 8.56005 23.3398C8.24587 23.3398 7.98634 23.2442 7.80535 23.0598C7.62777 22.8788 7.53899 22.6295 7.53899 22.3153C7.53899 21.6733 7.91804 21.2943 8.55663 21.2943ZM17.0563 18.8116C22.3051 18.8116 24.9585 16.1651 24.9585 10.9232C24.9585 5.69152 22.3051 3.03813 17.0563 3.03813C13.4058 3.03813 11.0154 4.35629 9.90211 6.90723H11.5686C12.7331 6.90723 13.597 7.20774 14.2083 7.82243C14.823 8.43369 15.1133 9.28401 15.1133 10.4451V18.6614C15.7177 18.757 16.3699 18.8116 17.0563 18.8116ZM14.0717 22.4622V10.4451C14.0717 9.57428 13.8736 8.95276 13.4673 8.54639C13.0609 8.14343 12.436 7.94536 11.5652 7.94536H5.54468C4.68071 7.94536 4.06602 8.15367 3.6494 8.56688C3.24644 8.9835 3.03813 9.59476 3.03813 10.4451V22.4622C3.03813 23.333 3.2362 23.9545 3.6494 24.3608C4.05578 24.7638 4.67046 24.9619 5.54468 24.9619H11.5652C12.4394 24.9619 13.0643 24.7638 13.4707 24.3608C13.8736 23.9545 14.0717 23.333 14.0717 22.4622ZM17.0563 2C22.9129 2 26 5.09049 26 10.9232C26 16.7661 22.9129 19.8463 17.0563 19.8463C16.3699 19.8463 15.7279 19.7917 15.1133 19.6995V22.4587C15.1133 23.6301 14.8127 24.4906 14.1981 25.0951C13.5936 25.7063 12.7297 25.9966 11.5686 25.9966H5.54468C4.39044 25.9966 3.52647 25.7029 2.91178 25.0951C2.30051 24.494 2 23.6232 2 22.4622V10.4451C2 9.3045 2.30051 8.45418 2.9152 7.84292C3.52988 7.20774 4.39385 6.90723 5.54809 6.90723H8.77177C9.96357 3.70063 12.815 2 17.0563 2ZM19.2863 14.1127L16.691 11.5242C16.5919 11.4252 16.5373 11.2954 16.5373 11.1554V7.65509C16.5373 7.36824 16.7695 7.13603 17.0563 7.13603C17.3432 7.13603 17.5754 7.36824 17.5754 7.65509V10.9437L20.0171 13.3819C20.2186 13.5834 20.2186 13.9146 20.0171 14.1161C19.8156 14.3142 19.4878 14.3142 19.2863 14.1127Z" fill="#86888C"/>
</svg>
