<svg width="28" height="28" viewBox="0 0 28 28" fill="none" xmlns="http://www.w3.org/2000/svg">
<path fill-rule="evenodd" clip-rule="evenodd" d="M24.9994 21.6562V6.34377C24.9994 5.19294 24.7399 4.36312 24.1901 3.82015C23.6505 3.27035 22.8207 3.00057 21.6596 3.00057H14.0102C12.8697 3.00057 12.0398 3.27035 11.49 3.84064C10.9402 4.39044 10.6705 5.21343 10.6705 6.34377V6.93455C14.4405 7.36483 16.6022 9.70746 16.6022 14.1707C16.6022 18.6238 14.4405 20.9664 10.6807 21.3967V22.107C10.7388 23.029 11.0085 23.7188 11.49 24.2003C12.0296 24.7399 12.8594 25.0028 14.0102 25.0028H21.6596C22.8207 25.0028 23.6403 24.7433 24.1901 24.2003C24.7399 23.6471 24.9994 22.8173 24.9994 21.6562ZM9.30108 20.4747C13.539 20.4747 15.6016 18.4121 15.6016 14.1707C15.6016 9.92943 13.539 7.85316 9.30108 7.85316C5.05976 7.85316 3.00057 9.92601 3.00057 14.1707C3.00057 18.4155 5.05976 20.4747 9.30108 20.4747ZM24.9004 3.10985C25.6414 3.86113 26 4.91292 26 6.34377V21.6562C26 23.0973 25.6414 24.1696 24.8902 24.9072C24.1491 25.6483 23.0905 26 21.6596 26H14.0102C12.5794 26 11.531 25.6483 10.7797 24.9072C10.1207 24.2481 9.75868 23.3364 9.69038 22.1343L9.68014 21.465C9.55037 21.4752 9.43085 21.4752 9.30108 21.4752C4.69095 21.4752 2 19.1429 2 14.1707C2 9.18497 4.69095 6.85259 9.30108 6.85259C9.4206 6.85259 9.55037 6.85259 9.66989 6.86283V6.34377C9.66989 4.94365 10.0285 3.89186 10.7797 3.13034C11.531 2.36881 12.5896 2 14.0102 2H21.6596C23.1007 2 24.1594 2.35857 24.9004 3.10985ZM17.8384 20.1742C18.6477 20.1742 19.1292 20.6557 19.1292 21.4752C19.1292 21.8645 19.0199 22.1855 18.798 22.4178C18.5692 22.6568 18.2379 22.7763 17.8384 22.7763C17.4388 22.7763 17.1076 22.6568 16.8788 22.4178C16.6602 22.189 16.5373 21.868 16.5373 21.4752C16.5407 20.6557 17.029 20.1742 17.8384 20.1742ZM7.09163 10.8344C7.36824 10.8344 7.59021 11.0598 7.59021 11.333V17.1998C7.59021 17.4764 7.36483 17.6983 7.09163 17.6983C6.81844 17.6983 6.59306 17.473 6.59306 17.1998V11.3364C6.59306 11.0598 6.81844 10.8344 7.09163 10.8344ZM11.3432 10.8139C11.6198 10.8139 11.8418 11.0393 11.8418 11.3159V17.1793C11.8418 17.4559 11.6164 17.6779 11.3432 17.6779C11.0666 17.6779 10.8446 17.4525 10.8446 17.1793V11.3159C10.8446 11.0393 11.0666 10.8173 11.3432 10.8139Z" fill="#86888C"/>
</svg>
