<svg width="20" height="20" viewBox="0 0 20 20" fill="none" xmlns="http://www.w3.org/2000/svg">
<path fill-rule="evenodd" clip-rule="evenodd" d="M6.37171 14.8647C6.79749 14.8647 7.05251 15.1197 7.05251 15.5455C7.05251 15.7527 6.99331 15.9212 6.87719 16.0418C6.75651 16.1648 6.58346 16.2285 6.37399 16.2285C6.16451 16.2285 5.99146 16.1648 5.87078 16.0418C5.75238 15.9212 5.69318 15.7549 5.69318 15.5455C5.69318 15.1174 5.94592 14.8647 6.37171 14.8647ZM12.039 13.2093C15.5386 13.2093 17.3078 11.4447 17.3078 7.94962C17.3078 4.46136 15.5386 2.69219 12.039 2.69219C9.60495 2.69219 8.0111 3.57108 7.26882 5.27195H8.37996C9.1564 5.27195 9.73246 5.47232 10.14 5.88217C10.5499 6.28974 10.7434 6.8567 10.7434 7.63085V13.1091C11.1464 13.1729 11.5813 13.2093 12.039 13.2093ZM10.049 15.6434V7.63085C10.049 7.05023 9.91689 6.63583 9.64594 6.36488C9.37498 6.0962 8.9583 5.96414 8.37769 5.96414H4.36346C3.78739 5.96414 3.37754 6.10303 3.09976 6.37854C2.83108 6.65633 2.69219 7.0639 2.69219 7.63085V15.6434C2.69219 16.224 2.82425 16.6384 3.09976 16.9093C3.37071 17.178 3.78056 17.3101 4.36346 17.3101H8.37769C8.96058 17.3101 9.37726 17.178 9.64821 16.9093C9.91689 16.6384 10.049 16.224 10.049 15.6434ZM12.039 2C15.9439 2 18.0023 4.06062 18.0023 7.94962C18.0023 11.8455 15.9439 13.8992 12.039 13.8992C11.5813 13.8992 11.1533 13.8628 10.7434 13.8013V15.6411C10.7434 16.4221 10.543 16.9959 10.1332 17.3989C9.73018 17.8065 9.15412 18 8.37996 18H4.36346C3.59385 18 3.01779 17.8042 2.60794 17.3989C2.20037 16.9981 2 16.4175 2 15.6434V7.63085C2 6.87036 2.20037 6.3034 2.61022 5.89583C3.02007 5.47232 3.59613 5.27195 4.36573 5.27195H6.51516C7.3098 3.13391 9.21104 2 12.039 2ZM13.5258 10.0763L11.7954 8.35036C11.7293 8.28433 11.6929 8.19781 11.6929 8.10445V5.7706C11.6929 5.57934 11.8477 5.42451 12.039 5.42451C12.2303 5.42451 12.3851 5.57934 12.3851 5.7706V7.96328L14.0131 9.58901C14.1474 9.72335 14.1474 9.94421 14.0131 10.0786C13.8788 10.2106 13.6602 10.2106 13.5258 10.0763Z" fill="#86888C"/>
</svg>
