<svg width="20" height="20" viewBox="0 0 20 20" fill="none" xmlns="http://www.w3.org/2000/svg">
<path fill-rule="evenodd" clip-rule="evenodd" d="M17.333 15.1042V4.89585C17.333 4.12863 17.1599 3.57541 16.7934 3.21343C16.4337 2.8469 15.8805 2.66705 15.1064 2.66705H10.0068C9.24644 2.66705 8.69323 2.8469 8.32669 3.22709C7.96016 3.59363 7.78031 4.14229 7.78031 4.89585V5.2897C10.2937 5.57655 11.7348 7.1383 11.7348 10.1138C11.7348 13.0825 10.2937 14.6443 7.78714 14.9311V15.4047C7.82584 16.0194 8.00569 16.4792 8.32669 16.8002C8.6864 17.1599 9.23961 17.3352 10.0068 17.3352H15.1064C15.8805 17.3352 16.4269 17.1622 16.7934 16.8002C17.1599 16.4314 17.333 15.8782 17.333 15.1042ZM6.86739 14.3164C9.69266 14.3164 11.0677 12.9414 11.0677 10.1138C11.0677 7.28628 9.69266 5.90211 6.86739 5.90211C4.03984 5.90211 2.66705 7.28401 2.66705 10.1138C2.66705 12.9437 4.03984 14.3164 6.86739 14.3164ZM17.2669 2.7399C17.761 3.24075 18 3.94195 18 4.89585V15.1042C18 16.0649 17.761 16.7797 17.2601 17.2715C16.7661 17.7655 16.0603 18 15.1064 18H10.0068C9.05293 18 8.35401 17.7655 7.85316 17.2715C7.41377 16.8321 7.17245 16.2242 7.12692 15.4229L7.12009 14.9767C7.03358 14.9835 6.9539 14.9835 6.86739 14.9835C3.79397 14.9835 2 13.4286 2 10.1138C2 6.78998 3.79397 5.23506 6.86739 5.23506C6.94707 5.23506 7.03358 5.23506 7.11326 5.24189V4.89585C7.11326 3.96244 7.35231 3.26124 7.85316 2.75356C8.35401 2.24587 9.05976 2 10.0068 2H15.1064C16.0672 2 16.7729 2.23904 17.2669 2.7399ZM12.5589 14.1161C13.0985 14.1161 13.4195 14.4371 13.4195 14.9835C13.4195 15.243 13.3466 15.457 13.1986 15.6118C13.0461 15.7712 12.8253 15.8509 12.5589 15.8509C12.2925 15.8509 12.0717 15.7712 11.9192 15.6118C11.7735 15.4593 11.6915 15.2453 11.6915 14.9835C11.6938 14.4371 12.0194 14.1161 12.5589 14.1161ZM5.39442 7.88959C5.57883 7.88959 5.72681 8.03984 5.72681 8.22197V12.1332C5.72681 12.3176 5.57655 12.4656 5.39442 12.4656C5.21229 12.4656 5.06204 12.3153 5.06204 12.1332V8.22425C5.06204 8.03984 5.21229 7.88959 5.39442 7.88959ZM8.2288 7.87593C8.4132 7.87593 8.56118 8.02618 8.56118 8.21059V12.1195C8.56118 12.3039 8.41093 12.4519 8.2288 12.4519C8.04439 12.4519 7.89641 12.3017 7.89641 12.1195V8.21059C7.89641 8.02618 8.04439 7.8782 8.2288 7.87593Z" fill="#86888C"/>
</svg>
