<svg width="28" height="28" viewBox="0 0 28 28" fill="none" xmlns="http://www.w3.org/2000/svg">
<path d="M14.0189 26.0009C9.62732 26.0009 7.30518 23.7095 7.30518 19.3725V13.9633C7.30518 9.62637 9.62732 7.33496 14.0189 7.33496C18.4105 7.33496 20.7326 9.62637 20.7326 13.9633V19.3725C20.7326 21.6571 20.2136 23.2929 19.1447 24.3686C18.0485 25.4682 16.3752 26.0009 14.0189 26.0009ZM14.0189 8.02477C10.02 8.02477 7.99157 10.0225 7.99157 13.9633V19.376C7.99157 23.3168 10.02 25.3145 14.0189 25.3145C16.184 25.3145 17.7002 24.8466 18.6564 23.8836C19.592 22.9411 20.0462 21.4659 20.0462 19.3725V13.9633C20.0428 10.0225 18.0144 8.02477 14.0189 8.02477Z" fill="#86888C"/>
<path d="M14.0182 14.0137C13.827 14.0137 13.6733 13.86 13.6733 13.6688V10.0592C13.6733 9.86797 13.827 9.71429 14.0182 9.71429C14.2095 9.71429 14.3631 9.86797 14.3631 10.0592V13.6688C14.3597 13.86 14.206 14.0137 14.0182 14.0137ZM14.0524 7.82585C13.8611 7.82585 13.7075 7.67218 13.7075 7.48094V6.54525C13.7075 6.54184 13.7006 6.10473 13.4821 5.68128C13.2089 5.15538 12.7171 4.88902 12.0273 4.88902H9.61981C7.4206 4.88902 6 3.89186 6 2.34491C6 2.15367 6.15367 2 6.34491 2C6.53614 2 6.68981 2.15367 6.68981 2.34491C6.68981 2.88788 6.93569 3.33182 7.41719 3.65965C7.93967 4.0148 8.7012 4.20262 9.61981 4.20262H12.0273C13.2465 4.20262 13.8304 4.84804 14.107 5.39101C14.3939 5.95789 14.3973 6.52135 14.3973 6.54525V7.48094C14.3973 7.67218 14.2436 7.82585 14.0524 7.82585ZM14.0831 16.0114H13.9465C11.8293 16.0114 9.69494 15.8646 7.59818 15.5777C7.41036 15.5504 7.27718 15.3796 7.3045 15.1918C7.33182 15.004 7.50256 14.8708 7.69038 14.8981C9.7769 15.185 11.9044 15.325 14.0114 15.325H14.0797C16.1662 15.325 18.2698 15.1816 20.3358 14.8981C20.5236 14.8708 20.6978 15.004 20.7217 15.1918C20.749 15.3796 20.6158 15.5538 20.428 15.5777C18.3381 15.868 16.2004 16.0114 14.0831 16.0114Z" fill="#86888C"/>
</svg>
