<svg width="40" height="40" viewBox="0 0 40 40" fill="none" xmlns="http://www.w3.org/2000/svg">
<path d="M20.0286 38.0008C13.4412 38.0008 9.95801 34.5637 9.95801 28.0583V19.9445C9.95801 13.4391 13.4412 10.002 20.0286 10.002C26.616 10.002 30.0992 13.4391 30.0992 19.9445V28.0583C30.0992 31.4852 29.3206 33.9388 27.7173 35.5524C26.073 37.2018 23.563 38.0008 20.0286 38.0008ZM20.0286 11.0367C14.0303 11.0367 10.9876 14.0333 10.9876 19.9445V28.0634C10.9876 33.9747 14.0303 36.9713 20.0286 36.9713C23.2762 36.9713 25.5505 36.2695 26.9848 34.825C28.3883 33.4112 29.0696 31.1983 29.0696 28.0583V19.9445C29.0645 14.0333 26.0218 11.0367 20.0286 11.0367Z" fill="#86888C"/>
<path d="M20.0273 20.0205C19.7405 20.0205 19.51 19.79 19.51 19.5032V14.0888C19.51 13.8019 19.7405 13.5714 20.0273 13.5714C20.3142 13.5714 20.5447 13.8019 20.5447 14.0888V19.5032C20.5396 19.79 20.3091 20.0205 20.0273 20.0205ZM20.0786 10.7388C19.7917 10.7388 19.5612 10.5083 19.5612 10.2214V8.81788C19.5612 8.81276 19.551 8.15709 19.2231 7.52192C18.8133 6.73307 18.0757 6.33353 17.041 6.33353H13.4297C10.1309 6.33353 8 4.8378 8 2.51736C8 2.23051 8.23051 2 8.51736 2C8.80421 2 9.03472 2.23051 9.03472 2.51736C9.03472 3.33182 9.40353 3.99773 10.1258 4.48947C10.9095 5.0222 12.0518 5.30393 13.4297 5.30393H17.041C18.8697 5.30393 19.7456 6.27206 20.1605 7.08652C20.5908 7.93683 20.5959 8.78202 20.5959 8.81788V10.2214C20.5959 10.5083 20.3654 10.7388 20.0786 10.7388ZM20.1247 23.0171H19.9198C16.7439 23.0171 13.5424 22.7968 10.3973 22.3666C10.1155 22.3256 9.91577 22.0695 9.95675 21.7877C9.99773 21.506 10.2538 21.3062 10.5356 21.3472C13.6653 21.7775 16.8566 21.9875 20.0171 21.9875H20.1195C23.2493 21.9875 26.4047 21.7724 29.5037 21.3472C29.7855 21.3062 30.0467 21.506 30.0826 21.7877C30.1235 22.0695 29.9238 22.3307 29.642 22.3666C26.5071 22.802 23.3005 23.0171 20.1247 23.0171Z" fill="#86888C"/>
</svg>
