<svg width="28" height="28" viewBox="0 0 28 28" fill="none" xmlns="http://www.w3.org/2000/svg">
<path d="M18.4842 20.1044H4.96029C3.62669 20.1044 2.61359 19.7176 1.94679 18.955C1.32051 18.2366 1 17.1756 1 15.8015V9.30291C1 7.92878 1.31682 6.86779 1.94679 6.14941C2.61359 5.38682 3.62669 5 4.96029 5H18.5984C19.9321 5 20.9451 5.38682 21.612 6.14941C22.2382 6.86779 22.5587 7.92878 22.5587 9.30291V10.0471C22.5587 10.2497 22.393 10.4155 22.1903 10.4155C21.9877 10.4155 21.8219 10.2497 21.8219 10.0471V9.30291C21.8219 6.86779 20.7978 5.73312 18.5984 5.73312H4.96029C2.76095 5.73312 1.7368 6.86779 1.7368 9.30291V15.7978C1.7368 18.2329 2.76095 19.3676 4.96029 19.3676H18.4842C18.6869 19.3676 18.8526 19.5334 18.8526 19.736C18.8526 19.9386 18.6905 20.1044 18.4842 20.1044ZM15.3749 23H8.19116C7.98854 23 7.82276 22.8342 7.82276 22.6316C7.82276 22.429 7.98854 22.2632 8.19116 22.2632H15.3749C15.5776 22.2632 15.7433 22.429 15.7433 22.6316C15.7433 22.8342 15.5776 23 15.3749 23Z" fill="#86888C"/>
<path d="M24.4929 22.9927H20.6284C19.0222 22.9927 18.2412 22.2117 18.2412 20.6054V12.0696C18.2412 11.2776 18.4365 10.6992 18.838 10.2903C19.2433 9.88133 19.829 9.67871 20.6284 9.67871H24.4929C25.2997 9.67871 25.8855 9.87396 26.2871 10.2755C26.6849 10.6771 26.8802 11.2628 26.8802 12.0659V20.6018C26.8802 22.2117 26.0992 22.9927 24.4929 22.9927ZM20.6284 10.4192C19.4569 10.4192 18.978 10.8981 18.978 12.0696V20.6054C18.978 21.7954 19.4422 22.2559 20.6284 22.2559H24.4929C25.6829 22.2559 26.1434 21.7917 26.1434 20.6054V12.0696C26.1434 10.8797 25.6792 10.4192 24.4929 10.4192H20.6284Z" fill="#86888C"/>
<path d="M22.563 19.8691C22.1909 19.8691 21.9478 20.0644 21.9478 20.4881C21.9478 20.6907 22.003 20.8417 22.1025 20.9412C22.2093 21.0517 22.3677 21.1033 22.563 21.1033C22.7582 21.1033 22.913 21.0517 23.0235 20.9412C23.1229 20.838 23.1782 20.6907 23.1782 20.4881C23.1745 20.0644 22.9351 19.8691 22.563 19.8691Z" fill="#86888C"/>
</svg>
