<svg width="20" height="20" viewBox="0 0 20 20" fill="none" xmlns="http://www.w3.org/2000/svg">
<path d="M12.6562 15.0696H3.6402C2.75113 15.0696 2.07573 14.8117 1.63119 14.3033C1.21367 13.8244 1 13.1171 1 12.201V7.8686C1 6.95252 1.21122 6.24519 1.63119 5.76627C2.07573 5.25788 2.75113 5 3.6402 5H12.7323C13.6214 5 14.2968 5.25788 14.7413 5.76627C15.1588 6.24519 15.3725 6.95252 15.3725 7.8686V8.36472C15.3725 8.4998 15.262 8.61032 15.1269 8.61032C14.9918 8.61032 14.8813 8.4998 14.8813 8.36472V7.8686C14.8813 6.24519 14.1985 5.48874 12.7323 5.48874H3.6402C2.17397 5.48874 1.4912 6.24519 1.4912 7.8686V12.1985C1.4912 13.8219 2.17397 14.5784 3.6402 14.5784H12.6562C12.7912 14.5784 12.9018 14.6889 12.9018 14.824C12.9018 14.9591 12.7937 15.0696 12.6562 15.0696ZM10.5833 17H5.79411C5.65903 17 5.54851 16.8895 5.54851 16.7544C5.54851 16.6193 5.65903 16.5088 5.79411 16.5088H10.5833C10.7184 16.5088 10.8289 16.6193 10.8289 16.7544C10.8289 16.8895 10.7184 17 10.5833 17Z" fill="#86888C"/>
<path d="M16.662 16.9951H14.0856C13.0148 16.9951 12.4941 16.4744 12.4941 15.4036V9.71308C12.4941 9.18504 12.6243 8.79945 12.892 8.52684C13.1622 8.25422 13.5527 8.11914 14.0856 8.11914H16.662C17.1998 8.11914 17.5903 8.24931 17.858 8.51701C18.1233 8.78472 18.2535 9.17522 18.2535 9.71063V15.4012C18.2535 16.4744 17.7328 16.9951 16.662 16.9951ZM14.0856 8.6128C13.3046 8.6128 12.9853 8.93208 12.9853 9.71308V15.4036C12.9853 16.1969 13.2948 16.5039 14.0856 16.5039H16.662C17.4553 16.5039 17.7623 16.1945 17.7623 15.4036V9.71308C17.7623 8.9198 17.4528 8.6128 16.662 8.6128H14.0856Z" fill="#86888C"/>
<path d="M15.3755 14.9121C15.1274 14.9121 14.9653 15.0423 14.9653 15.3247C14.9653 15.4598 15.0022 15.5605 15.0685 15.6268C15.1397 15.7005 15.2453 15.7349 15.3755 15.7349C15.5057 15.7349 15.6088 15.7005 15.6825 15.6268C15.7488 15.558 15.7856 15.4598 15.7856 15.3247C15.7832 15.0423 15.6235 14.9121 15.3755 14.9121Z" fill="#86888C"/>
</svg>
