<svg width="24" height="24" viewBox="0 0 24 24" fill="none" xmlns="http://www.w3.org/2000/svg">
<path d="M15.5702 17.587H4.30025C3.18891 17.587 2.34466 17.2646 1.78899 16.6291C1.26709 16.0305 1 15.1463 1 14.0012V8.58576C1 7.44065 1.26402 6.55649 1.78899 5.95784C2.34466 5.32235 3.18891 5 4.30025 5H15.6654C16.7767 5 17.621 5.32235 18.1766 5.95784C18.6985 6.55649 18.9656 7.44065 18.9656 8.58576V9.20589C18.9656 9.37474 18.8275 9.51289 18.6586 9.51289C18.4898 9.51289 18.3516 9.37474 18.3516 9.20589V8.58576C18.3516 6.55649 17.4982 5.61093 15.6654 5.61093H4.30025C2.46746 5.61093 1.614 6.55649 1.614 8.58576V13.9982C1.614 16.0274 2.46746 16.973 4.30025 16.973H15.5702C15.7391 16.973 15.8772 17.1111 15.8772 17.28C15.8772 17.4488 15.7421 17.587 15.5702 17.587ZM12.9791 20H6.99263C6.82378 20 6.68563 19.8619 6.68563 19.693C6.68563 19.5242 6.82378 19.386 6.99263 19.386H12.9791C13.148 19.386 13.2861 19.5242 13.2861 19.693C13.2861 19.8619 13.148 20 12.9791 20Z" fill="#86888C"/>
<path d="M20.5775 19.9939H17.357C16.0185 19.9939 15.3677 19.3431 15.3677 18.0045V10.8914C15.3677 10.2313 15.5304 9.74931 15.865 9.40854C16.2027 9.06778 16.6908 8.89893 17.357 8.89893H20.5775C21.2498 8.89893 21.7379 9.06164 22.0725 9.39627C22.4041 9.73089 22.5668 10.219 22.5668 10.8883V18.0015C22.5668 19.3431 21.916 19.9939 20.5775 19.9939ZM17.357 9.51599C16.3808 9.51599 15.9817 9.91509 15.9817 10.8914V18.0045C15.9817 18.9961 16.3685 19.3799 17.357 19.3799H20.5775C21.5691 19.3799 21.9528 18.9931 21.9528 18.0045V10.8914C21.9528 9.89974 21.566 9.51599 20.5775 9.51599H17.357Z" fill="#86888C"/>
<path d="M18.9692 17.3906C18.6592 17.3906 18.4565 17.5533 18.4565 17.9064C18.4565 18.0752 18.5026 18.2011 18.5855 18.284C18.6745 18.3761 18.8065 18.4191 18.9692 18.4191C19.1319 18.4191 19.2609 18.3761 19.353 18.284C19.4359 18.198 19.4819 18.0752 19.4819 17.9064C19.4789 17.5533 19.2793 17.3906 18.9692 17.3906Z" fill="#86888C"/>
</svg>
