<svg width="24" height="24" viewBox="0 0 24 24" fill="none" xmlns="http://www.w3.org/2000/svg">
<path fill-rule="evenodd" clip-rule="evenodd" d="M2.9035 21.1465H21.0913V18.9502H2.9035V21.1465ZM5.3843 18.0967H7.02583V9.52489H5.3843V18.0967ZM11.9988 2.94737L20.215 8.67141H19.077C19.0742 8.67141 19.0714 8.66856 19.0685 8.66856C19.0657 8.66856 19.0628 8.67141 19.06 8.67141H16.5877C16.5849 8.67141 16.582 8.66856 16.5792 8.66856C16.5763 8.66856 16.5735 8.67141 16.5706 8.67141H13.2677C13.2648 8.67141 13.262 8.66856 13.2591 8.66856C13.2563 8.66856 13.2534 8.67141 13.2506 8.67141H10.7783C10.7755 8.67141 10.7726 8.66856 10.7698 8.66856C10.7669 8.66856 10.7641 8.67141 10.7613 8.67141H7.45826C7.45542 8.67141 7.45257 8.66856 7.44973 8.66856C7.44688 8.66856 7.44404 8.67141 7.44119 8.67141H4.96893C4.96609 8.67141 4.96324 8.66856 4.9604 8.66856C4.95755 8.66856 4.95471 8.67141 4.95186 8.67141H3.77974L11.9988 2.94737ZM13.6859 18.0967H16.1581V9.52489H13.6859V18.0967ZM11.1965 18.0967H12.8381V9.52489H11.1965V18.0967ZM7.87363 18.0967H10.3459V9.52489H7.87363V18.0967ZM17.0059 18.0967H18.6475V9.52489H17.0059V18.0967ZM21.518 18.0967H19.4952V9.52489H21.5721C21.757 9.52489 21.922 9.40541 21.976 9.22617C22.0301 9.04694 21.9647 8.85349 21.8139 8.74822L12.2406 2.07681C12.0955 1.9744 11.9021 1.9744 11.757 2.07681L2.18373 8.74822C2.0301 8.85349 1.96466 9.04694 2.01872 9.22617C2.07562 9.40541 2.23778 9.52489 2.42555 9.52489H4.5365V18.0967H2.4796C2.24347 18.0967 2.0557 18.2873 2.0557 18.5235V21.5733C2.0557 21.8094 2.24632 22 2.4796 22H21.518C21.7541 22 21.9419 21.8094 21.9419 21.5733V18.5235C21.9419 18.2873 21.7513 18.0967 21.518 18.0967Z" fill="#86888C"/>
</svg>
