<svg width="28" height="28" viewBox="0 0 28 28" fill="none" xmlns="http://www.w3.org/2000/svg">
<path fill-rule="evenodd" clip-rule="evenodd" d="M3.0842 24.9758H24.9095V22.3403H3.0842V24.9758ZM6.06115 21.3161H8.031V11.0299H6.06115V21.3161ZM13.9986 3.13684L23.858 10.0057H22.4924C22.489 10.0057 22.4856 10.0023 22.4822 10.0023C22.4788 10.0023 22.4754 10.0057 22.472 10.0057H19.5053C19.5018 10.0057 19.4984 10.0023 19.495 10.0023C19.4916 10.0023 19.4882 10.0057 19.4848 10.0057H15.5212C15.5178 10.0057 15.5144 10.0023 15.5109 10.0023C15.5075 10.0023 15.5041 10.0057 15.5007 10.0057H12.534C12.5306 10.0057 12.5272 10.0023 12.5237 10.0023C12.5203 10.0023 12.5169 10.0057 12.5135 10.0057H8.54992C8.5465 10.0057 8.54309 10.0023 8.53967 10.0023C8.53626 10.0023 8.53285 10.0057 8.52943 10.0057H5.56272C5.55931 10.0057 5.55589 10.0023 5.55248 10.0023C5.54906 10.0023 5.54565 10.0057 5.54224 10.0057H4.13569L13.9986 3.13684ZM16.023 21.3161H18.9897V11.0299H16.023V21.3161ZM13.0358 21.3161H15.0057V11.0299H13.0358V21.3161ZM9.04835 21.3161H12.0151V11.0299H9.04835V21.3161ZM20.0071 21.3161H21.9769V11.0299H20.0071V21.3161ZM25.4216 21.3161H22.9943V11.0299H25.4865C25.7084 11.0299 25.9064 10.8865 25.9713 10.6714C26.0361 10.4563 25.9576 10.2242 25.7767 10.0979L14.2887 2.09218C14.1146 1.96927 13.8825 1.96927 13.7084 2.09218L2.22047 10.0979C2.03612 10.2242 1.9576 10.4563 2.02246 10.6714C2.09074 10.8865 2.28534 11.0299 2.51066 11.0299H5.0438V21.3161H2.57552C2.29216 21.3161 2.06684 21.5448 2.06684 21.8282V25.4879C2.06684 25.7713 2.29558 26 2.57552 26H25.4216C25.705 26 25.9303 25.7713 25.9303 25.4879V21.8282C25.9303 21.5448 25.7016 21.3161 25.4216 21.3161Z" fill="#86888C"/>
</svg>
