<svg width="24" height="24" viewBox="0 0 24 24" fill="none" xmlns="http://www.w3.org/2000/svg">
<path d="M16.3116 19C16.2478 19 16.184 18.9917 16.1229 18.9722L2.90986 14.9759C2.61846 14.8871 2.41309 14.6012 2.41309 14.2793V10.7214C2.41309 10.3994 2.61568 10.1136 2.90986 10.0248L16.1229 6.02839C16.3227 5.96734 16.5337 6.00619 16.7057 6.13108C16.8889 6.26707 16.9971 6.48909 16.9971 6.72221V18.2729C16.9971 18.5088 16.8861 18.7308 16.7057 18.8668C16.5864 18.9556 16.4476 19 16.3116 19ZM16.3116 6.55014C16.3005 6.55014 16.2922 6.55292 16.2811 6.55569L3.06805 10.5521C3.00699 10.5715 2.96259 10.6409 2.96259 10.7214V14.282C2.96259 14.3625 3.00699 14.4319 3.06805 14.4513L16.2811 18.4477C16.3144 18.4588 16.3449 18.4505 16.3755 18.4283C16.4199 18.395 16.4448 18.3395 16.4448 18.2784V6.72499C16.4448 6.66393 16.4199 6.60565 16.3755 6.57512C16.3533 6.55847 16.3338 6.55014 16.3116 6.55014Z" fill="#86888C"/>
<path d="M2.6517 15.7531C2.49906 15.7531 2.37695 15.631 2.37695 15.4784V9.52543C2.37695 9.37279 2.49906 9.25068 2.6517 9.25068C2.80434 9.25068 2.92646 9.37279 2.92646 9.52543V15.4784C2.92923 15.6282 2.80434 15.7531 2.6517 15.7531ZM21.5457 12.5116H18.7927C18.64 12.5116 18.5151 12.3867 18.5151 12.2341C18.5151 12.0815 18.64 11.9566 18.7927 11.9566H21.5457C21.6984 11.9566 21.8233 12.0815 21.8233 12.2341C21.8233 12.3867 21.6984 12.5116 21.5457 12.5116ZM9.3512 18.3869C9.2957 18.3869 9.24019 18.3785 9.18469 18.3619L6.88121 17.6403C6.58981 17.5487 6.42607 17.2379 6.51765 16.9437L6.75633 16.1861C6.84791 15.8947 7.15874 15.7309 7.45292 15.8225L9.75639 16.5441C9.89793 16.5885 10.0145 16.6856 10.0811 16.8161C10.1505 16.9465 10.1644 17.0991 10.12 17.2379L9.88128 17.9956C9.83687 18.1371 9.73974 18.2537 9.6093 18.3203C9.52882 18.3647 9.44001 18.3869 9.3512 18.3869ZM7.04773 17.1075C7.04773 17.1102 7.04773 17.1102 7.04773 17.1075L9.3512 17.829L9.58988 17.0714L7.2864 16.3498L7.04773 17.1075ZM20.8214 18.1898C20.7492 18.1898 20.6798 18.1621 20.6243 18.1093L18.6789 16.1639C18.5706 16.0556 18.5706 15.8808 18.6789 15.7726C18.7871 15.6643 18.962 15.6643 19.0702 15.7726L21.0157 17.718C21.1239 17.8263 21.1239 18.0011 21.0157 18.1093C20.9629 18.1621 20.8908 18.1898 20.8214 18.1898ZM18.8842 8.7206C18.8121 8.7206 18.7427 8.69285 18.6872 8.64012C18.579 8.53189 18.579 8.35704 18.6872 8.24881L20.6327 6.30334C20.7409 6.19511 20.9157 6.19511 21.024 6.30334C21.1322 6.41158 21.1322 6.58642 21.024 6.69466L19.0785 8.64012C19.0258 8.69285 18.9536 8.7206 18.8842 8.7206Z" fill="#86888C"/>
</svg>
