<svg width="28" height="28" viewBox="0 0 28 28" fill="none" xmlns="http://www.w3.org/2000/svg">
<path d="M19.5273 22C19.4487 22 19.3702 21.9898 19.295 21.9658L3.0328 17.0472C2.67415 16.9379 2.42139 16.5861 2.42139 16.1899V11.8109C2.42139 11.4147 2.67073 11.0629 3.0328 10.9536L19.295 6.03495C19.541 5.9598 19.8005 6.00762 20.0123 6.16133C20.2378 6.3287 20.371 6.60195 20.371 6.88887V21.1051C20.371 21.3954 20.2343 21.6687 20.0123 21.836C19.8654 21.9453 19.6947 22 19.5273 22ZM19.5273 6.6771C19.5136 6.6771 19.5034 6.68052 19.4897 6.68393L3.2275 11.6026C3.15235 11.6265 3.0977 11.7119 3.0977 11.8109V16.1933C3.0977 16.2923 3.15235 16.3777 3.2275 16.4016L19.4897 21.3203C19.5307 21.3339 19.5683 21.3237 19.6059 21.2964C19.6605 21.2554 19.6912 21.1871 19.6912 21.1119V6.89229C19.6912 6.81714 19.6605 6.74541 19.6059 6.70784C19.5785 6.68735 19.5546 6.6771 19.5273 6.6771Z" fill="#86888C"/>
<path d="M2.71511 18.0034C2.52724 18.0034 2.37695 17.8531 2.37695 17.6652V10.3385C2.37695 10.1506 2.52724 10.0003 2.71511 10.0003C2.90297 10.0003 3.05326 10.1506 3.05326 10.3385V17.6652C3.05668 17.8497 2.90297 18.0034 2.71511 18.0034ZM25.9693 14.0138H22.5809C22.393 14.0138 22.2393 13.8601 22.2393 13.6722C22.2393 13.4844 22.393 13.3307 22.5809 13.3307H25.9693C26.1572 13.3307 26.3109 13.4844 26.3109 13.6722C26.3109 13.8601 26.1572 14.0138 25.9693 14.0138ZM10.9606 21.2449C10.8923 21.2449 10.824 21.2346 10.7557 21.2141L7.92066 20.3261C7.56201 20.2133 7.36048 19.8308 7.4732 19.4687L7.76695 18.5362C7.87967 18.1776 8.26223 17.976 8.6243 18.0888L11.4593 18.9769C11.6335 19.0315 11.777 19.1511 11.859 19.3116C11.9444 19.4721 11.9614 19.66 11.9068 19.8308L11.613 20.7633C11.5584 20.9375 11.4388 21.0809 11.2783 21.1629C11.1793 21.2176 11.0699 21.2449 10.9606 21.2449ZM8.1256 19.6702C8.1256 19.6737 8.1256 19.6737 8.1256 19.6702L10.9606 20.5583L11.2544 19.6258L8.41935 18.7378L8.1256 19.6702ZM25.0778 21.0024C24.989 21.0024 24.9036 20.9682 24.8353 20.9033L22.4409 18.5089C22.3077 18.3757 22.3077 18.1605 22.4409 18.0273C22.5741 17.8941 22.7893 17.8941 22.9225 18.0273L25.3169 20.4217C25.4501 20.5549 25.4501 20.7701 25.3169 20.9033C25.252 20.9682 25.1632 21.0024 25.0778 21.0024ZM22.6936 9.34795C22.6048 9.34795 22.5194 9.31379 22.4511 9.24889C22.3179 9.11568 22.3179 8.90049 22.4511 8.76728L24.8455 6.37286C24.9787 6.23965 25.1939 6.23965 25.3271 6.37286C25.4604 6.50607 25.4604 6.72126 25.3271 6.85448L22.9327 9.24889C22.8678 9.31379 22.779 9.34795 22.6936 9.34795Z" fill="#86888C"/>
</svg>
