<svg width="24" height="24" viewBox="0 0 24 24" fill="none" xmlns="http://www.w3.org/2000/svg">
<path fill-rule="evenodd" clip-rule="evenodd" d="M12.4756 21.1455C12.2165 21.1541 11.9003 21.1541 11.6155 21.1541C9.5591 21.1199 2.85446 20.3566 2.85446 11.9744C2.85446 3.60923 9.50783 2.87724 11.5414 2.85161L12.1823 2.85731C10.237 3.80575 8.21191 5.81942 8.21191 10.0917C8.21191 17.7192 14.7001 18.2091 16.0074 18.229C16.2523 18.229 16.5144 18.229 16.7223 18.2204C17.3831 18.2034 18.5138 18.1065 19.7157 17.6736C17.5625 20.7981 13.7089 21.1228 12.4756 21.1455ZM21.0288 16.4318C20.8921 16.3065 20.6898 16.2837 20.5275 16.3748C19.0749 17.1979 17.5112 17.3518 16.6995 17.3717C16.4944 17.3802 16.2438 17.3802 16.0159 17.3802C14.3868 17.3546 9.06921 16.7508 9.06921 10.0917C9.06921 5.17858 11.906 3.54087 14.2871 3.03389C14.4865 2.99117 14.6289 2.81458 14.626 2.61236C14.6232 2.41014 14.4751 2.2364 14.2757 2.19937C13.6719 2.08829 13.0624 2.02279 12.45 2.00854L11.5386 2C9.29991 2.02848 2 2.82882 2 11.9715C2 13.6178 2.46141 21.8462 11.6069 22C11.9089 22 12.2336 22 12.4956 21.9915C13.9823 21.9658 18.9923 21.5272 21.1285 16.9188C21.2082 16.7536 21.1655 16.5543 21.0288 16.4318Z" fill="#86888C"/>
</svg>
