<svg width="20" height="20" viewBox="0 0 20 20" fill="none" xmlns="http://www.w3.org/2000/svg">
<path fill-rule="evenodd" clip-rule="evenodd" d="M10.3805 17.6153C10.1732 17.6221 9.92025 17.6221 9.69239 17.6221C8.04728 17.5948 2.68357 16.9841 2.68357 10.2783C2.68357 3.58621 8.00627 3.00062 9.63315 2.98012L10.1458 2.98467C8.58958 3.74343 6.96952 5.35437 6.96952 8.7722C6.96952 14.8742 12.1601 15.2661 13.2059 15.282C13.4019 15.282 13.6115 15.282 13.7778 15.2752C14.3065 15.2615 15.2111 15.184 16.1726 14.8377C14.45 17.3373 11.3671 17.597 10.3805 17.6153ZM17.223 13.8443C17.1136 13.744 16.9519 13.7258 16.822 13.7987C15.6599 14.4572 14.409 14.5802 13.7596 14.5962C13.5956 14.603 13.395 14.603 13.2128 14.603C11.9094 14.5825 7.65537 14.0995 7.65537 8.7722C7.65537 4.84169 9.92481 3.53153 11.8297 3.12594C11.9892 3.09176 12.1031 2.95049 12.1008 2.78872C12.0985 2.62694 11.9801 2.48795 11.8206 2.45833C11.3375 2.36946 10.8499 2.31706 10.36 2.30566L9.63087 2.29883C7.83993 2.32161 2 2.96189 2 10.276C2 11.593 2.36913 18.1758 9.68556 18.2988C9.92709 18.2988 10.1868 18.2988 10.3965 18.292C11.5859 18.2715 15.5938 17.9206 17.3028 14.2339C17.3666 14.1017 17.3324 13.9422 17.223 13.8443Z" fill="#86888C"/>
</svg>
