<svg width="40" height="40" viewBox="0 0 40 40" fill="none" xmlns="http://www.w3.org/2000/svg">
<path fill-rule="evenodd" clip-rule="evenodd" d="M20.8562 37.7608C20.3896 37.7762 19.8206 37.7762 19.3079 37.7762C15.6064 37.7147 3.53802 36.3407 3.53802 21.2527C3.53802 6.19544 15.5141 4.87787 19.1746 4.83172L20.3281 4.84198C16.8265 6.54918 13.1814 10.1738 13.1814 17.8639C13.1814 31.5933 24.8602 32.4751 27.2133 32.511C27.6542 32.511 28.1259 32.511 28.5001 32.4956C29.6895 32.4649 31.7249 32.2906 33.8883 31.5113C30.0125 37.1353 23.076 37.7198 20.8562 37.7608ZM36.2518 29.276C36.0057 29.0505 35.6417 29.0095 35.3495 29.1735C32.7348 30.6551 29.9202 30.932 28.4591 30.9679C28.09 30.9832 27.6388 30.9832 27.2287 30.9832C24.2962 30.9371 14.7246 29.8502 14.7246 17.8639C14.7246 9.02027 19.8308 6.0724 24.1168 5.15984C24.4756 5.08294 24.732 4.76508 24.7269 4.40108C24.7217 4.03708 24.4551 3.72435 24.0963 3.6577C23.0094 3.45776 21.9123 3.33984 20.81 3.31421L19.1695 3.29883C15.1398 3.3501 2 4.79071 2 21.2476C2 24.2108 2.83053 39.022 19.2925 39.2988C19.8359 39.2988 20.4204 39.2988 20.8921 39.2834C23.5682 39.2373 32.5862 38.4478 36.4312 30.1527C36.5748 29.8554 36.4979 29.4965 36.2518 29.276Z" fill="#86888C"/>
</svg>
