<svg width="20" height="20" viewBox="0 0 20 20" fill="none" xmlns="http://www.w3.org/2000/svg">
<path fill-rule="evenodd" clip-rule="evenodd" d="M15.3398 17.0233V7.36369H13.2681C12.4804 7.36369 11.7997 7.10188 11.3034 6.62151C10.8002 6.13432 10.5361 5.45817 10.5361 4.68184V2.66932H4.98577C4.84007 2.66932 4.66249 2.83552 4.66249 2.98349V17.0233C4.66249 17.1759 4.82869 17.3307 4.98577 17.3307H15.0074C15.1804 17.3307 15.3398 17.185 15.3398 17.0233ZM11.1964 2.81503V4.68184C11.1964 5.27604 11.3944 5.77917 11.7587 6.13887C12.1366 6.50085 12.6511 6.69437 13.2681 6.69437H15.1668L11.1964 2.81503ZM15.8361 6.41434C15.9431 6.52134 16.0023 6.66249 16.0023 6.8082V17.0233C16.0023 17.5515 15.5447 18 15.0097 18H4.98577C4.46443 18 4 17.5447 4 17.0233V2.98349C4 2.46898 4.46898 2 4.98577 2H11.0894C11.2351 2 11.3671 2.05919 11.4741 2.16164L15.8361 6.41434ZM13.6118 11.1042C13.8099 10.9038 13.9237 10.6557 13.9237 10.3893C13.9237 10.1207 13.8054 9.83381 13.6118 9.6403C13.4274 9.45134 13.1747 9.33751 12.9175 9.32612H12.8719C12.6739 9.32612 12.4098 9.38532 12.1571 9.6403C11.9795 9.82015 9.40922 12.115 8.07968 13.3056L7.37166 15.391C7.36483 15.4183 7.37166 15.4456 7.39215 15.4593L7.43768 15.4866C7.44451 15.4866 7.45134 15.4798 7.45817 15.4798L9.50256 14.7968L9.62777 14.6898C12.9106 11.753 13.5322 11.1838 13.6118 11.1042ZM14.0808 9.16449C14.3995 9.48549 14.584 9.94081 14.584 10.3893C14.5771 10.8423 14.4064 11.2521 14.074 11.5868C13.9215 11.7325 12.5783 12.9437 10.0626 15.1907L9.96244 15.284C9.88276 15.3523 9.79624 15.4047 9.70518 15.432L7.66762 16.1127C7.58793 16.14 7.51508 16.1537 7.4354 16.1537C7.41719 16.1537 7.3967 16.14 7.36938 16.14C7.35572 16.14 7.33751 16.1468 7.31702 16.1468H5.99431C5.81673 16.1468 5.6642 15.9989 5.6642 15.8122C5.6642 15.6323 5.81673 15.4775 5.99431 15.4775H6.71372C6.70689 15.3773 6.70689 15.2772 6.74104 15.177L7.09846 14.1207H5.99203C5.81446 14.1207 5.66192 13.9659 5.66192 13.786C5.66192 13.597 5.81446 13.4513 5.99203 13.4513H7.31474L7.4263 13.1167C7.465 12.996 7.53785 12.8822 7.63119 12.8025C7.90211 12.5612 8.16619 12.3199 8.43256 12.0877H5.99431C5.81673 12.0877 5.6642 11.9328 5.6642 11.753C5.6642 11.564 5.81673 11.4183 5.99431 11.4183H9.1975C9.76665 10.9038 10.2834 10.4348 10.7069 10.0546H5.99431C5.81673 10.0546 5.6642 9.90666 5.6642 9.71998C5.6642 9.53102 5.81673 9.38532 5.99431 9.38532H11.4491C11.5811 9.26466 11.6676 9.1918 11.6881 9.16449C12.4394 8.40865 13.4935 8.56801 14.0808 9.16449Z" fill="#86888C"/>
</svg>
