<svg width="40" height="40" viewBox="0 0 40 40" fill="none" xmlns="http://www.w3.org/2000/svg">
<path fill-rule="evenodd" clip-rule="evenodd" d="M32.5145 35.8025V14.0683H27.8532C26.0808 14.0683 24.5492 13.4792 23.4326 12.3984C22.3005 11.3022 21.7063 9.78088 21.7063 8.03415V3.50598H9.21799C8.89015 3.50598 8.49061 3.87991 8.49061 4.21286V35.8025C8.49061 36.1457 8.86454 36.494 9.21799 36.494H31.7666C32.1559 36.494 32.5145 36.1662 32.5145 35.8025ZM23.1918 3.83381V8.03415C23.1918 9.37109 23.6374 10.5031 24.457 11.3125C25.3073 12.1269 26.465 12.5623 27.8532 12.5623H32.1252L23.1918 3.83381ZM33.6312 11.9323C33.8719 12.173 34.0051 12.4906 34.0051 12.8184V35.8025C34.0051 36.9909 32.9755 38 31.7718 38H9.21799C8.04496 38 7 36.9755 7 35.8025V4.21286C7 3.05521 8.05521 2 9.21799 2H22.9511C23.2789 2 23.576 2.13318 23.8167 2.36369L33.6312 11.9323ZM28.6266 22.4843C29.0723 22.0336 29.3284 21.4752 29.3284 20.8759C29.3284 20.2715 29.062 19.6261 28.6266 19.1907C28.2117 18.7655 27.6431 18.5094 27.0643 18.4838H26.9619C26.5162 18.4838 25.922 18.617 25.3534 19.1907C24.9539 19.5953 19.1707 24.7587 16.1793 27.4377L14.5862 32.1298C14.5709 32.1912 14.5862 32.2527 14.6323 32.2834L14.7348 32.3449C14.7501 32.3449 14.7655 32.3295 14.7809 32.3295L19.3808 30.7928L19.6625 30.5521C27.0489 23.9442 28.4474 22.6636 28.6266 22.4843ZM29.6818 18.1201C30.399 18.8423 30.8139 19.8668 30.8139 20.8759C30.7985 21.8953 30.4143 22.8173 29.6665 23.5703C29.3233 23.8981 26.3011 26.6232 20.6409 31.679L20.4155 31.889C20.2362 32.0427 20.0415 32.1605 19.8367 32.222L15.2521 33.7536C15.0729 33.815 14.9089 33.8458 14.7297 33.8458C14.6887 33.8458 14.6426 33.815 14.5811 33.815C14.5504 33.815 14.5094 33.8304 14.4633 33.8304H11.4872C11.0876 33.8304 10.7445 33.4974 10.7445 33.0774C10.7445 32.6727 11.0876 32.3244 11.4872 32.3244H13.1059C13.0905 32.099 13.0905 31.8736 13.1673 31.6483L13.9715 29.2715H11.4821C11.0825 29.2715 10.7393 28.9232 10.7393 28.5185C10.7393 28.0933 11.0825 27.7655 11.4821 27.7655H14.4582L14.7092 27.0125C14.7962 26.741 14.9602 26.4849 15.1702 26.3056C15.7797 25.7627 16.3739 25.2197 16.9732 24.6972H11.4872C11.0876 24.6972 10.7445 24.3489 10.7445 23.9442C10.7445 23.5191 11.0876 23.1912 11.4872 23.1912H18.6944C19.975 22.0336 21.1377 20.9784 22.0905 20.1229H11.4872C11.0876 20.1229 10.7445 19.79 10.7445 19.3699C10.7445 18.9448 11.0876 18.617 11.4872 18.617H23.7604C24.0575 18.3455 24.2521 18.1816 24.2982 18.1201C25.9886 16.4195 28.3603 16.778 29.6818 18.1201Z" fill="#86888C"/>
</svg>
