<svg width="29" height="28" viewBox="0 0 29 28" fill="none" xmlns="http://www.w3.org/2000/svg">
<path fill-rule="evenodd" clip-rule="evenodd" d="M14.2482 25.0044C13.3792 25.0044 12.7223 24.7649 12.2878 24.2962C11.7404 23.7009 11.6514 22.8559 11.6446 22.394H16.8552C16.8449 22.8627 16.7457 23.6975 16.2086 24.2894C15.7741 24.7615 15.1172 25.0044 14.2482 25.0044ZM8.19255 4.03549C10.532 1.851 13.8445 1.98615 14.2516 2.0101C14.6587 1.98615 17.9431 1.88351 20.3038 4.03207C21.8708 5.45531 22.6679 7.52518 22.6679 10.1835V14.9151C22.6645 14.9904 22.425 19.3833 25.0799 21.501C25.2475 21.6345 25.3091 21.8603 25.2373 22.0587C25.1654 22.2571 24.9704 22.3906 24.7549 22.3906L17.8816 22.3871C17.8747 23.0098 17.7413 24.1149 16.9715 24.9531C16.3352 25.6476 15.4183 26 14.2448 26C13.0679 26 12.151 25.6476 11.5146 24.9497C10.7448 24.108 10.6182 22.9995 10.6148 22.3871H3.74149C3.52937 22.3871 3.33435 22.2571 3.25909 22.0553C3.18382 21.8534 3.24882 21.6276 3.41647 21.4976C6.07137 19.3799 5.83188 14.987 5.82846 14.9425V10.1801C5.82846 7.50123 6.64272 5.48268 8.19255 4.03549ZM14.2174 3.00911C14.1866 3.00569 10.9356 2.72502 8.88707 4.77106C7.66079 5.99587 6.85483 7.84335 6.85483 10.1835V14.9151C6.86852 15.0656 7.08064 18.8359 4.96972 21.3881L20.362 21.3916L21.7373 21.3881H23.5335C21.4226 18.8359 21.6381 15.0656 21.6484 14.8843V10.1835C21.6484 7.81598 20.9641 5.99587 19.6196 4.77106C17.4779 2.82094 14.32 3.00569 14.2892 3.00911C14.2653 3.01253 14.2413 3.01253 14.2174 3.00911Z" fill="#86888C"/>
</svg>
