<svg width="41" height="40" viewBox="0 0 41 40" fill="none" xmlns="http://www.w3.org/2000/svg">
<path fill-rule="evenodd" clip-rule="evenodd" d="M8.6721 31.0793H35.688C32.6248 27.2476 32.9373 21.5871 32.9526 21.3207V14.2618C32.9526 10.7169 31.9537 7.98656 29.9918 6.15266C26.8671 3.22764 22.2774 3.49914 22.2313 3.51451C22.2159 3.51451 22.2006 3.49914 22.1852 3.49914C22.1545 3.49914 22.1391 3.51451 22.1237 3.51451C21.8215 3.48377 15.2135 3.12519 12.5396 8.69348C18.8914 8.73958 22.6155 11.9976 22.6155 18.9336C22.6155 25.9055 18.8505 29.1635 12.4218 29.1635C11.5407 29.1635 10.716 29.102 9.93735 28.9688C9.5839 29.7423 9.16898 30.4646 8.6721 31.0793ZM25.0333 35.4336C25.8273 34.5474 25.9605 33.2872 25.9758 32.5854H18.3946C18.3946 33.2923 18.5277 34.5525 19.3217 35.4336C19.9518 36.1405 20.9199 36.4991 22.1801 36.4991C23.4453 36.4991 24.4032 36.1405 25.0333 35.4336ZM3.72379 18.9285C3.72379 24.799 6.57701 27.6523 12.4269 27.6523C18.2767 27.6523 21.13 24.799 21.13 18.9285C21.13 13.0477 18.2716 10.1944 12.4269 10.1944C6.58213 10.1944 3.72379 13.0426 3.72379 18.9285ZM37.9522 31.2586C38.2698 31.5148 38.321 31.986 38.0649 32.3036C37.9265 32.4778 37.7114 32.5803 37.4911 32.5803H27.4716C27.4562 33.5126 27.2616 35.1774 26.1551 36.4274C25.2279 37.4775 23.8807 38 22.1801 38C20.4743 38 19.1271 37.4775 18.1999 36.4274C17.0781 35.1672 16.8988 33.4972 16.8988 32.5854H6.87923C6.46944 32.5854 6.13648 32.2524 6.13648 31.8426C6.13648 31.6172 6.23892 31.4021 6.41309 31.2638C7.22244 30.5876 7.90885 29.7014 8.44671 28.6358C4.47679 27.4628 2.22803 24.3072 2.22803 18.9285C2.22803 12.5354 5.40396 9.26209 10.8748 8.7652C13.6409 1.7677 21.5039 1.98284 22.1749 2.01358C22.6411 1.98284 27.4972 1.77282 31.0112 5.04617C33.2856 7.18231 34.4484 10.2866 34.4484 14.2669V21.372C34.4381 21.4847 34.0898 28.0775 37.9522 31.2586ZM16.0894 22.8831C15.9409 23.0317 15.7616 23.1085 15.5669 23.1085C15.3672 23.1085 15.1725 23.0266 15.0291 22.8831L11.9044 19.7481C11.761 19.6047 11.679 19.41 11.679 19.2102V14.9431C11.679 14.523 12.0068 14.1952 12.4269 14.1952C12.8469 14.1952 13.1748 14.523 13.1748 14.9431V18.908L16.0894 21.8381C16.3917 22.1147 16.3917 22.5912 16.0894 22.8831Z" fill="#86888C"/>
</svg>
