<svg width="29" height="28" viewBox="0 0 29 28" fill="none" xmlns="http://www.w3.org/2000/svg">
<path fill-rule="evenodd" clip-rule="evenodd" d="M6.52408 21.3862H24.5347C22.4925 18.8317 22.7008 15.0581 22.7111 14.8805V10.1745C22.7111 7.81128 22.0452 5.99104 20.7372 4.76844C18.6541 2.81843 15.5943 2.99943 15.5635 3.00967C15.5533 3.00967 15.543 2.99943 15.5328 2.99943C15.5123 2.99943 15.5021 3.00967 15.4918 3.00967C15.2903 2.98918 10.885 2.75013 9.10239 6.46232C13.337 6.49306 15.8197 8.66505 15.8197 13.2891C15.8197 17.937 13.3096 20.109 9.02384 20.109C8.43647 20.109 7.88665 20.068 7.36758 19.9792C7.13194 20.4949 6.85533 20.9764 6.52408 21.3862ZM17.4315 24.289C17.9609 23.6982 18.0496 22.8581 18.0599 22.3903H13.0057C13.0057 22.8615 13.0945 23.7017 13.6238 24.289C14.0439 24.7603 14.6893 24.9994 15.5294 24.9994C16.3729 24.9994 17.0115 24.7603 17.4315 24.289ZM3.2252 13.2857C3.2252 17.1993 5.12735 19.1015 9.02726 19.1015C12.9272 19.1015 14.8293 17.1993 14.8293 13.2857C14.8293 9.36514 12.9238 7.46294 9.02726 7.46294C5.13076 7.46294 3.2252 9.36172 3.2252 13.2857ZM26.0441 21.5058C26.2558 21.6765 26.29 21.9907 26.1192 22.2024C26.027 22.3185 25.8836 22.3868 25.7368 22.3868H19.0571C19.0468 23.0084 18.917 24.1183 18.1794 24.9516C17.5613 25.6517 16.6632 26 15.5294 26C14.3922 26 13.4941 25.6517 12.8759 24.9516C12.1281 24.1115 12.0085 22.9981 12.0085 22.3903H5.32883C5.05563 22.3903 4.83366 22.1683 4.83366 21.8951C4.83366 21.7448 4.90196 21.6014 5.01807 21.5092C5.55764 21.0584 6.01524 20.4676 6.37382 19.7572C3.7272 18.9752 2.22803 16.8715 2.22803 13.2857C2.22803 9.02363 4.34532 6.84139 7.99252 6.51013C9.83661 1.84513 15.0786 1.98856 15.526 2.00905C15.8367 1.98856 19.0741 1.84854 21.4168 4.03078C22.9331 5.45487 23.7083 7.52441 23.7083 10.1779V14.9146C23.7014 14.9898 23.4692 19.385 26.0441 21.5058ZM11.469 15.9221C11.3699 16.0211 11.2504 16.0724 11.1206 16.0724C10.9875 16.0724 10.8577 16.0177 10.7621 15.9221L8.67893 13.8321C8.58331 13.7364 8.52867 13.6067 8.52867 13.4735V10.6287C8.52867 10.3487 8.74723 10.1301 9.02726 10.1301C9.30729 10.1301 9.52585 10.3487 9.52585 10.6287V13.272L11.469 15.2254C11.6705 15.4098 11.6705 15.7274 11.469 15.9221Z" fill="#86888C"/>
</svg>
