<svg width="41" height="40" viewBox="0 0 41 40" fill="none" xmlns="http://www.w3.org/2000/svg">
<path fill-rule="evenodd" clip-rule="evenodd" d="M4.91481 31.0941C8.17118 27.2723 7.84396 21.6266 7.82285 21.4012V14.316C7.82285 12.5793 8.08146 11.0423 8.57756 9.7052L28.6594 31.0992L4.91481 31.0941ZM22.2522 35.4385C21.5819 36.1454 20.5686 36.5092 19.228 36.5092C17.8875 36.5092 16.8742 36.1506 16.2039 35.4487C15.3595 34.5573 15.2222 33.2919 15.2117 32.6003H23.2497C23.2339 33.3021 23.0808 34.5522 22.2522 35.4385ZM10.9578 6.21126C14.2617 3.2911 19.133 3.56775 19.1805 3.57287C19.2175 3.57799 19.2544 3.57799 19.2914 3.57287C19.3389 3.56775 24.2102 3.2911 27.5141 6.21126C29.5883 8.04532 30.6438 10.7708 30.6438 14.316V21.3551C30.628 21.6266 30.2955 27.2723 33.5518 31.0941H30.781L9.31117 8.21951C9.75978 7.46641 10.2981 6.79017 10.9578 6.21126ZM36.0324 36.6936L32.1849 32.5951H35.436C35.7685 32.5951 36.0693 32.3953 36.1802 32.0982C36.291 31.8011 36.196 31.4629 35.9374 31.2631C31.8419 28.092 32.2113 21.5139 32.2166 21.4012V14.316C32.2166 10.3353 30.9869 7.23588 28.5696 5.10467C24.928 1.88737 19.8614 2.04107 19.2333 2.07693C18.6053 2.04107 13.5386 1.8925 9.88644 5.10979C9.23728 5.68358 8.68312 6.32909 8.20284 7.0412L3.70621 2.25111C3.41066 1.94373 2.91983 1.91299 2.58733 2.18964C2.27066 2.45604 2.23372 2.92224 2.50816 3.22962L2.52399 3.24499L7.41646 8.45517C6.64591 10.1202 6.23952 12.0721 6.23952 14.3109V21.4422C6.2448 21.5088 6.61424 28.0868 2.51872 31.258C2.26011 31.4527 2.15983 31.7908 2.27594 32.0931C2.39205 32.3953 2.69288 32.59 3.0201 32.59H13.6231C13.6284 33.5071 13.8236 35.1669 15.0111 36.4272C15.9928 37.4723 17.4072 38 19.2228 38C21.033 38 22.4475 37.4723 23.4291 36.4323C24.6166 35.1772 24.8225 33.5224 24.833 32.59H30.0632L34.8449 37.6875C35.1404 38 35.6365 38.0256 35.9638 37.749C36.2804 37.4877 36.3174 37.0215 36.0482 36.7141C36.0482 36.709 36.0377 36.7039 36.0324 36.6936Z" fill="#86888C"/>
</svg>
