<svg width="25" height="24" viewBox="0 0 25 24" fill="none" xmlns="http://www.w3.org/2000/svg">
<path fill-rule="evenodd" clip-rule="evenodd" d="M12.4115 21.1703C11.6873 21.1703 11.1399 20.9708 10.7778 20.5802C10.3217 20.0841 10.2475 19.3799 10.2418 18.995H14.584C14.5754 19.3856 14.4928 20.0812 14.0451 20.5745C13.6831 20.9679 13.1357 21.1703 12.4115 21.1703ZM7.36513 3.69624C9.31464 1.87583 12.0751 1.98846 12.4143 2.00842C12.7536 1.98846 15.4906 1.90293 17.4579 3.69339C18.7636 4.87943 19.4279 6.60431 19.4279 8.81958V12.7626C19.4251 12.8253 19.2255 16.4861 21.4379 18.2509C21.5776 18.3621 21.6289 18.5502 21.5691 18.7156C21.5092 18.8809 21.3467 18.9921 21.1671 18.9921L15.4393 18.9893C15.4336 19.5082 15.3224 20.4291 14.6809 21.1276C14.1506 21.7063 13.3866 22 12.4086 22C11.4279 22 10.6638 21.7063 10.1335 21.1247C9.49201 20.4234 9.38653 19.4996 9.38367 18.9893H3.65591C3.47914 18.9893 3.31663 18.8809 3.25391 18.7127C3.19119 18.5445 3.24536 18.3564 3.38506 18.248C5.59748 16.4832 5.3979 12.8225 5.39505 12.7854V8.81673C5.39505 6.58436 6.0736 4.90223 7.36513 3.69624ZM12.3858 2.84092C12.3602 2.83807 9.65097 2.60418 7.94389 4.30922C6.92199 5.32989 6.25037 6.86946 6.25037 8.81958V12.7626C6.26177 12.888 6.43854 16.0299 4.67944 18.1568L17.5063 18.1596L18.6524 18.1568H20.1493C18.3902 16.0299 18.5698 12.888 18.5783 12.7369V8.81958C18.5783 6.84665 18.0081 5.32989 16.8876 4.30922C15.1029 2.68412 12.4714 2.83807 12.4457 2.84092C12.4257 2.84377 12.4058 2.84377 12.3858 2.84092Z" fill="#86888C"/>
</svg>
