<svg width="29" height="28" viewBox="0 0 29 28" fill="none" xmlns="http://www.w3.org/2000/svg">
<path fill-rule="evenodd" clip-rule="evenodd" d="M4.01922 21.3961C6.19013 18.8482 5.97198 15.0844 5.95791 14.9341V10.2107C5.95791 9.05283 6.13031 8.02822 6.46105 7.1368L19.8489 21.3995L4.01922 21.3961ZM15.5775 24.2923C15.1306 24.7636 14.4551 25.0061 13.5614 25.0061C12.6677 25.0061 11.9921 24.767 11.5453 24.2991C10.9823 23.7049 10.8908 22.8613 10.8838 22.4002H16.2425C16.2319 22.8681 16.1299 23.7014 15.5775 24.2923ZM8.04789 4.80751C10.2505 2.86073 13.498 3.04516 13.5297 3.04858C13.5543 3.052 13.579 3.052 13.6036 3.04858C13.6353 3.04516 16.8828 2.86073 19.0854 4.80751C20.4682 6.03022 21.1719 7.8472 21.1719 10.2107V14.9034C21.1613 15.0844 20.9397 18.8482 23.1106 21.3961H21.2634L6.95012 6.14634C7.24919 5.64428 7.60808 5.19344 8.04789 4.80751ZM24.7643 25.1291L22.1993 22.3968H24.3667C24.5883 22.3968 24.7889 22.2636 24.8628 22.0655C24.9367 21.8674 24.8733 21.642 24.7009 21.5088C21.9706 19.3946 22.2169 15.0093 22.2204 14.9341V10.2107C22.2204 7.55689 21.4006 5.49058 19.7891 4.06978C17.3613 1.92492 13.9836 2.02738 13.5649 2.05129C13.1462 2.02738 9.76844 1.92833 7.33364 4.0732C6.90086 4.45572 6.53142 4.88606 6.21124 5.3608L3.21348 2.16741C3.01645 1.96249 2.68923 1.94199 2.46756 2.12642C2.25645 2.30402 2.23182 2.61483 2.41478 2.81975L2.42534 2.82999L5.68698 6.30345C5.17328 7.41345 4.90236 8.71471 4.90236 10.2072V14.9615C4.90588 15.0059 5.15217 19.3912 2.42182 21.5053C2.24941 21.6351 2.18256 21.8605 2.25997 22.0621C2.33738 22.2636 2.53793 22.3933 2.75608 22.3933H9.82473C9.82825 23.0047 9.95844 24.1113 10.7501 24.9515C11.4045 25.6482 12.3475 26 13.5579 26C14.7647 26 15.7077 25.6482 16.3621 24.9549C17.1538 24.1181 17.291 23.0149 17.298 22.3933H20.7848L23.9726 25.7917C24.1696 26 24.5004 26.0171 24.7185 25.8326C24.9296 25.6585 24.9543 25.3477 24.7748 25.1427C24.7748 25.1393 24.7678 25.1359 24.7643 25.1291Z" fill="#86888C"/>
</svg>
