<svg width="25" height="24" viewBox="0 0 25 24" fill="none" xmlns="http://www.w3.org/2000/svg">
<path fill-rule="evenodd" clip-rule="evenodd" d="M5.80807 18.1552H20.8169C19.1151 16.0265 19.2887 12.8817 19.2972 12.7337V8.81209C19.2972 6.84273 18.7423 5.32587 17.6524 4.30703C15.9164 2.68202 13.3666 2.83286 13.341 2.84139C13.3324 2.84139 13.3239 2.83286 13.3153 2.83286C13.2983 2.83286 13.2897 2.84139 13.2812 2.84139C13.1133 2.82432 9.44218 2.62511 7.95666 5.7186C11.4855 5.74421 13.5544 7.55421 13.5544 11.4076C13.5544 15.2808 11.4627 17.0908 7.89121 17.0908C7.40173 17.0908 6.94355 17.0567 6.51098 16.9827C6.31462 17.4124 6.08411 17.8137 5.80807 18.1552ZM14.8976 20.5742C15.3387 20.0819 15.4127 19.3818 15.4212 18.9919H11.2094C11.2094 19.3846 11.2834 20.0847 11.7245 20.5742C12.0746 20.9669 12.6124 21.1662 13.3125 21.1662C14.0154 21.1662 14.5476 20.9669 14.8976 20.5742ZM3.05901 11.4047C3.05901 14.6661 4.64413 16.2513 7.89405 16.2513C11.144 16.2513 12.7291 14.6661 12.7291 11.4047C12.7291 8.13762 11.1411 6.55245 7.89405 6.55245C4.64697 6.55245 3.05901 8.13477 3.05901 11.4047ZM22.0748 18.2548C22.2512 18.3971 22.2797 18.6589 22.1374 18.8354C22.0605 18.9321 21.941 18.989 21.8186 18.989H16.2522C16.2437 19.507 16.1355 20.4319 15.5208 21.1263C15.0058 21.7097 14.2573 22 13.3125 22C12.3648 22 11.6164 21.7097 11.1013 21.1263C10.4781 20.4262 10.3785 19.4985 10.3785 18.9919H4.81203C4.58437 18.9919 4.39939 18.8069 4.39939 18.5792C4.39939 18.454 4.4563 18.3345 4.55306 18.2576C5.0027 17.882 5.38404 17.3896 5.68285 16.7977C3.47734 16.146 2.22803 14.3929 2.22803 11.4047C2.22803 7.85303 3.99244 6.0345 7.03177 5.75844C8.56851 1.87094 12.9368 1.99047 13.3096 2.00754C13.5686 1.99047 16.2665 1.87379 18.2187 3.69232C19.4822 4.87906 20.1282 6.60368 20.1282 8.81494V12.7622C20.1225 12.8248 19.929 16.4875 22.0748 18.2548ZM9.92881 13.6017C9.84628 13.6843 9.74668 13.727 9.63854 13.727C9.52755 13.727 9.41941 13.6814 9.33973 13.6017L7.60378 11.8601C7.5241 11.7804 7.47856 11.6722 7.47856 11.5612V9.1906C7.47856 8.95724 7.6607 8.7751 7.89405 8.7751C8.12741 8.7751 8.30954 8.95724 8.30954 9.1906V11.3933L9.92881 13.0212C10.0967 13.1749 10.0967 13.4395 9.92881 13.6017Z" fill="#86888C"/>
</svg>
