<svg width="41" height="40" viewBox="0 0 41 40" fill="none" xmlns="http://www.w3.org/2000/svg">
<path fill-rule="evenodd" clip-rule="evenodd" d="M19.7583 36.5066C18.4548 36.5066 17.4694 36.1474 16.8177 35.4443C15.9966 34.5514 15.8632 33.2838 15.8529 32.591H23.6688C23.6534 33.2941 23.5045 34.5462 22.6988 35.4341C22.0471 36.1423 21.0618 36.5066 19.7583 36.5066ZM10.6748 5.05323C14.1839 1.7765 19.1527 1.97922 19.7634 2.01515C20.3741 1.97922 25.3007 1.82527 28.8417 5.0481C31.1921 7.18297 32.3879 10.2878 32.3879 14.2752V21.3727C32.3827 21.4856 32.0235 28.0749 36.0058 31.2516C36.2573 31.4517 36.3497 31.7904 36.2419 32.0881C36.1341 32.3857 35.8416 32.5858 35.5183 32.5858L25.2083 32.5807C25.1981 33.5147 24.9979 35.1723 23.8433 36.4296C22.8887 37.4714 21.5134 38 19.7531 38C17.9878 38 16.6124 37.4714 15.6579 36.4245C14.5032 35.1621 14.3133 33.4993 14.3082 32.5807H3.99821C3.68004 32.5807 3.38752 32.3857 3.27462 32.0829C3.16172 31.7801 3.25922 31.4414 3.51068 31.2464C7.49303 28.0698 7.1338 21.4804 7.12867 21.4137V14.2701C7.12867 10.2518 8.35006 7.22402 10.6748 5.05323ZM19.7121 3.51366C19.6659 3.50853 14.7893 3.08753 11.7166 6.15659C9.87717 7.99381 8.66824 10.765 8.66824 14.2752V21.3727C8.68877 21.5985 9.00694 27.2538 5.84056 31.0822L28.929 31.0873L30.992 31.0822H33.6862C30.5198 27.2538 30.8432 21.5985 30.8586 21.3265V14.2752C30.8586 10.724 29.8322 7.99381 27.8153 6.15659C24.6028 3.23141 19.866 3.50853 19.8198 3.51366C19.7839 3.51879 19.748 3.51879 19.7121 3.51366Z" fill="#86888C"/>
</svg>
