<svg width="41" height="40" viewBox="0 0 41 40" fill="none" xmlns="http://www.w3.org/2000/svg">
<path fill-rule="evenodd" clip-rule="evenodd" d="M8.57492 31.0752H35.6939C32.605 27.2491 32.9175 21.5946 32.9329 21.3231V14.2754C32.9329 10.7156 31.9288 7.98568 29.9618 6.15716C26.8165 3.22743 22.2266 3.51426 22.1805 3.51426H22.1344C22.1191 3.51426 22.1037 3.52962 22.073 3.51426C21.7861 3.49889 15.2189 3.14036 12.504 8.6003H12.7601C14.7425 8.6464 22.452 9.42493 22.452 18.7314C22.452 28.0635 14.7425 28.7857 12.8062 28.8113C12.6269 28.8267 12.4169 28.8267 12.1915 28.8267H11.879C11.4589 28.8113 10.7981 28.7652 10.0195 28.632C9.62506 29.5437 9.12816 30.3735 8.57492 31.0752ZM24.9826 35.4288C25.7766 34.5274 25.9252 33.2827 25.9252 32.581H18.3232C18.3232 33.2725 18.4564 34.5325 19.2658 35.4288C19.8959 36.1356 20.8538 36.4942 22.1139 36.4942C23.3946 36.4942 24.3576 36.1356 24.9826 35.4288ZM3.72895 18.67C3.72895 26.3682 9.44577 27.285 11.9046 27.3311H12.1915C12.4015 27.3311 12.5962 27.3311 12.7755 27.3157C15.2343 27.2696 20.9511 26.3579 20.9511 18.7314C20.9511 11.1203 15.2036 10.1625 12.7293 10.101C12.504 10.0857 12.2478 10.0857 11.9968 10.0857H11.8175C9.38429 10.1164 3.72895 10.9871 3.72895 18.67ZM37.9581 31.2442C38.1989 31.4491 38.2911 31.7871 38.1835 32.0842C38.0811 32.3864 37.7942 32.581 37.4817 32.581H27.4312C27.4312 33.5132 27.2365 35.1625 26.1096 36.4276C25.1773 37.4622 23.8454 38 22.1191 38C20.4081 38 19.0609 37.4622 18.1286 36.4276C17.017 35.1676 16.8223 33.503 16.8223 32.5862H6.77177C6.35684 32.5862 6.02387 32.2481 6.02387 31.8332C6.02387 31.6079 6.12632 31.3927 6.30561 31.2545C7.20719 30.5067 7.95509 29.4976 8.5237 28.2838C5.66529 27.3721 2.22803 24.9699 2.22803 18.67C2.22803 10.4442 8.0473 8.9025 10.8391 8.6464C13.6719 1.78818 21.4736 1.99818 22.1191 2.01354C22.5852 1.98281 27.4619 1.77281 30.9863 5.05595C33.2658 7.18666 34.4389 10.2803 34.4389 14.2702V21.3641C34.4184 21.4768 34.0752 28.0635 37.9581 31.2442ZM18.1286 18.67C18.1286 19.0899 17.8007 19.4178 17.3807 19.4178H13.0879V23.7253C13.0879 24.1453 12.7447 24.4731 12.34 24.4731C11.92 24.4731 11.5921 24.1453 11.5921 23.7253V19.4178H7.2994C6.89471 19.4178 6.5515 19.0899 6.5515 18.67C6.5515 18.2602 6.89471 17.9222 7.2994 17.9222H11.5921V13.671C11.5921 13.2561 11.9302 12.9232 12.34 12.9232C12.7447 12.9232 13.0879 13.2664 13.0879 13.671V17.917H17.3807C17.8007 17.917 18.1286 18.2602 18.1286 18.67Z" fill="#86888C"/>
</svg>
