<svg width="24" height="24" viewBox="0 0 24 24" fill="none" xmlns="http://www.w3.org/2000/svg">
<path fill-rule="evenodd" clip-rule="evenodd" d="M22.1547 6.97635H20.0291L20.9881 6.02593L22.7978 6.04301C22.795 6.04301 22.1547 6.97635 22.1547 6.97635ZM14.0762 11.7085C13.6522 11.4211 13.0631 11.2789 12.2635 11.2618C12.1099 11.2589 11.6688 11.2561 11.6717 11.2561C10.0184 11.2703 9.12203 11.7341 9.12203 14.1443C9.12203 16.583 10.0468 17.0582 11.74 17.081L11.9278 17.0838L12.3318 17.081C14.3152 17.0468 14.9868 16.3184 14.9868 14.1927C14.9868 13.3846 14.8815 12.7756 14.6396 12.326L15.8746 11.1024C16.4238 11.8537 16.7112 12.8724 16.7112 14.1927C16.7112 17.2346 15.2884 18.7428 12.3688 18.7912L11.9391 18.794L11.7343 18.7912C8.81755 18.7513 7.40046 17.2289 7.40046 14.1443C7.40046 11.0768 8.79194 9.57152 11.6546 9.54591C11.7087 9.54591 12.1497 9.54875 12.3091 9.5516C13.601 9.5829 14.5855 9.90445 15.3055 10.4935L14.0762 11.7085ZM14.1502 14.1899C14.1502 15.9655 13.7575 16.2245 12.3205 16.2501L11.9335 16.2529L11.7513 16.2501C10.542 16.233 9.95863 16.1362 9.95863 14.1415C9.95863 12.1837 10.4822 12.0927 11.6745 12.0842C11.7257 12.0842 12.1099 12.0842 12.2465 12.087C12.7871 12.1012 13.1912 12.1496 13.4814 12.2976L11.9363 13.8313L11.9335 13.1626C11.9306 12.935 11.7456 12.75 11.518 12.75H11.5123C11.2818 12.75 11.0969 12.935 11.0969 13.1626V13.1655L11.0997 14.833V14.8387C11.0997 14.9127 11.1282 14.9781 11.1623 15.0379C11.2363 15.1659 11.37 15.2427 11.5152 15.2456H11.5208L13.194 15.22C13.4245 15.2171 13.6066 15.0293 13.6066 14.7988C13.601 14.5712 13.416 14.3891 13.1884 14.3919H13.1827L12.5396 14.4033L13.9965 12.9577C14.0989 13.2594 14.1502 13.6492 14.1502 14.1899ZM19.2693 14.1899C19.2693 17.0155 18.3047 19.0473 16.3982 20.2225C14.8416 21.1843 13.0859 21.318 12.4058 21.3294C12.2664 21.3323 12.107 21.3323 11.9448 21.3323L11.6973 21.3294C11.0086 21.3209 9.2387 21.1928 7.68217 20.2225C5.79271 19.0416 4.8366 16.9956 4.8366 14.1415C4.8366 11.2931 5.78417 9.25566 7.65371 8.08897C9.19317 7.12717 10.9517 7.00766 11.6375 7.00481H11.7969C11.9932 7.00481 12.1981 7.00766 12.3717 7.0105C13.0603 7.02757 14.8331 7.16985 16.3982 8.14588C16.6599 8.30808 16.899 8.4902 17.1266 8.68654L15.9087 9.89306C14.8928 9.0337 13.5497 8.75199 12.3261 8.72354C12.1526 8.72069 11.6517 8.71784 11.6517 8.71784C9.32691 8.73776 6.56101 9.69387 6.56101 14.1443C6.56101 18.6119 9.36675 19.5879 11.7172 19.6221L11.9278 19.6249L12.3745 19.6192C14.7335 19.5794 17.5449 18.6034 17.5449 14.1927C17.5449 12.5053 17.1295 11.3215 16.4864 10.4935L17.7128 9.27558C18.7429 10.4736 19.2693 12.1183 19.2693 14.1899ZM19.3718 4.13647L20.2624 3.43646V5.57349L19.3718 6.45561V4.13647ZM23.9503 5.44544C23.8792 5.30885 23.7369 5.22633 23.5832 5.22348L21.8133 5.20356L21.9243 5.09259C22.0865 4.93323 22.0865 4.67144 21.9271 4.50924L21.9243 4.5064C21.7592 4.3442 21.4974 4.3442 21.3324 4.5064L21.0962 4.74258V2.57995C21.0962 2.42059 21.0051 2.27547 20.86 2.20718C20.7149 2.13888 20.5442 2.15596 20.4189 2.25555L18.6917 3.61004C18.5921 3.68972 18.5352 3.80923 18.5323 3.93444V7.28368L17.7071 8.1032C15.8006 6.43854 13.3107 6.2052 12.3859 6.18244C12.1867 6.17675 11.9875 6.1739 11.7883 6.1739L11.6261 6.17675C10.0127 6.19098 4 6.74017 4 14.1443C4 21.5599 10.0668 22.1404 11.683 22.1632C11.7684 22.166 11.8566 22.166 11.942 22.166C12.1099 22.166 12.2749 22.1632 12.42 22.1632C13.9567 22.1347 20.1031 21.5628 20.1031 14.1956C20.1031 11.6203 19.3462 9.88453 18.2962 8.69508L19.1897 7.80726H22.3739C22.5133 7.80726 22.6413 7.73897 22.7182 7.62514L23.9218 5.87227C24.0129 5.74422 24.0214 5.58202 23.9503 5.44544Z" fill="#86888C"/>
</svg>
