<svg width="24" height="24" viewBox="0 0 24 24" fill="none" xmlns="http://www.w3.org/2000/svg">
<path d="M10.6765 22.0002C7.06364 22.0002 5.15332 20.0899 5.15332 16.4771V11.9675C5.15332 8.35466 7.06364 6.44434 10.6765 6.44434C14.2893 6.44434 16.1996 8.35466 16.1996 11.9675V13.9575C16.1996 14.1141 16.0715 14.2422 15.9149 14.2422C15.7583 14.2422 15.6302 14.1141 15.6302 13.9575V11.9675C15.6302 10.2963 15.1974 9.03224 14.3434 8.20946C13.5177 7.41515 12.285 7.01373 10.6765 7.01373C9.06791 7.01373 7.83232 7.41515 7.00955 8.20946C6.15546 9.03224 5.72272 10.2963 5.72272 11.9675V16.4771C5.72272 18.1483 6.15546 19.4123 7.00955 20.2351C7.83232 21.0294 9.06791 21.4308 10.6765 21.4308C11.9035 21.4308 12.9142 21.1974 13.6886 20.7333C13.8252 20.6536 13.9989 20.6991 14.0786 20.8358C14.1555 20.9696 14.1128 21.1404 13.9818 21.2201C13.1192 21.7383 12.006 22.0002 10.6765 22.0002Z" fill="#86888C"/>
<path d="M10.6762 12.0071C10.5196 12.0071 10.3915 11.879 10.3915 11.7224V8.71317C10.3915 8.55658 10.5196 8.42847 10.6762 8.42847C10.8327 8.42847 10.9609 8.55658 10.9609 8.71317V11.7224C10.9609 11.8819 10.8327 12.0071 10.6762 12.0071ZM10.7046 6.8484C10.548 6.8484 10.4199 6.72028 10.4199 6.5637V5.78363C10.4085 5.5331 10.3459 5.28826 10.2349 5.06335C10.01 4.62491 9.60854 4.40285 9.03915 4.40285H7.0605C5.22989 4.40285 4 3.5516 4 2.2847C4 2.12811 4.12811 2 4.2847 2C4.44128 2 4.5694 2.12811 4.5694 2.2847C4.5694 2.59217 4.68043 3.03345 5.20427 3.37794C5.65694 3.67687 6.29751 3.83345 7.0605 3.83345H9.04199C10.047 3.83345 10.5281 4.37153 10.753 4.8242C10.8982 5.12313 10.9808 5.45053 10.9922 5.78363V6.5637C10.9922 6.72313 10.8641 6.8484 10.7046 6.8484ZM10.6762 13.6726C8.91103 13.6754 7.14591 13.5559 5.39786 13.311C5.24128 13.2911 5.13025 13.1516 5.15018 12.995C5.17011 12.8384 5.30961 12.7274 5.46619 12.7473C5.46904 12.7473 5.47473 12.7473 5.47758 12.7502C7.2 12.9893 8.93666 13.1089 10.6762 13.106C12.4157 13.1089 14.1523 12.9893 15.8747 12.7502C16.0313 12.7302 16.1737 12.8441 16.1907 12.9979C16.2078 13.1488 16.1053 13.2883 15.9544 13.3139C14.2064 13.5559 12.4413 13.6754 10.6762 13.6726ZM14.5651 19.879C14.4085 19.879 14.2804 19.7509 14.2804 19.5943C14.2804 19.5317 14.3004 19.469 14.3402 19.4206L17.0932 15.9018C17.19 15.7794 17.3694 15.7566 17.4918 15.8534C17.6142 15.9502 17.637 16.1295 17.5402 16.252L14.7872 19.768C14.7359 19.8391 14.6534 19.879 14.5651 19.879ZM14.9979 17.5473C14.4939 17.5473 14.1779 17.2342 14.1779 16.7274C14.1779 16.2206 14.4911 15.9075 14.9979 15.9075C15.5046 15.9075 15.8178 16.2206 15.8178 16.7274C15.8178 17.2342 15.5018 17.5473 14.9979 17.5473ZM14.9979 16.4797C14.8043 16.4797 14.7473 16.5367 14.7473 16.7302C14.7473 16.9238 14.8043 16.9808 14.9979 16.9808C15.1915 16.9808 15.2484 16.9238 15.2484 16.7302C15.2484 16.5367 15.1886 16.4797 14.9979 16.4797ZM16.8883 19.7623C16.3843 19.7623 16.0683 19.4491 16.0683 18.9424C16.0683 18.4356 16.3815 18.1224 16.8883 18.1224C17.395 18.1224 17.7082 18.4356 17.7082 18.9424C17.7082 19.4491 17.395 19.7623 16.8883 19.7623ZM16.8883 18.6947C16.6947 18.6947 16.6377 18.7516 16.6377 18.9452C16.6377 19.1388 16.6947 19.1957 16.8883 19.1957C17.0819 19.1957 17.1388 19.1388 17.1388 18.9452C17.1388 18.7516 17.0819 18.6947 16.8883 18.6947Z" fill="#86888C"/>
<path d="M15.9434 21.9993C15.6103 21.9993 15.4281 21.6662 15.2687 21.3758C15.2146 21.279 15.1292 21.1253 15.0751 21.0683C14.9954 21.0911 14.8388 21.185 14.7392 21.2448C14.4573 21.4156 14.1413 21.6064 13.8595 21.4441C13.5776 21.2818 13.5833 20.906 13.5918 20.5758C13.5947 20.4619 13.5975 20.2797 13.5776 20.2028C13.5007 20.1829 13.3185 20.1886 13.2047 20.1886C12.8744 20.1971 12.4986 20.2028 12.3363 19.921C12.174 19.6391 12.3648 19.3231 12.5356 19.0413C12.5954 18.9416 12.6922 18.785 12.7121 18.7053C12.6552 18.6512 12.4986 18.5658 12.4018 18.5117C12.1086 18.3495 11.7783 18.1701 11.7783 17.837C11.7783 17.5039 12.1086 17.3217 12.4018 17.1623C12.4986 17.1082 12.6523 17.0256 12.7121 16.9687C12.6894 16.889 12.5954 16.7324 12.5356 16.6327C12.3648 16.3509 12.174 16.0349 12.3363 15.753C12.4986 15.4712 12.8744 15.4769 13.2047 15.4854C13.3185 15.4882 13.5007 15.4911 13.5776 15.4712C13.5975 15.3943 13.5918 15.2121 13.5918 15.0982C13.5833 14.768 13.5776 14.3922 13.8595 14.2299C14.1413 14.0676 14.4573 14.2584 14.7392 14.4292C14.8388 14.489 14.9954 14.5858 15.0751 14.6057C15.1292 14.5487 15.2146 14.3922 15.2687 14.2954C15.4281 14.0021 15.6103 13.6719 15.9434 13.6719C16.2765 13.6719 16.4587 14.0021 16.6182 14.2954C16.6723 14.3922 16.7548 14.5459 16.8118 14.6057C16.8915 14.5829 17.0481 14.489 17.1477 14.4292C17.4267 14.2584 17.7456 14.0676 18.0274 14.2299C18.3093 14.3922 18.3036 14.768 18.295 15.0982C18.2922 15.2121 18.2894 15.3943 18.3093 15.4712C18.3861 15.4911 18.5684 15.4854 18.6822 15.4854C19.0125 15.4769 19.3883 15.4712 19.5506 15.753C19.7128 16.0349 19.5221 16.3509 19.3513 16.6327C19.2915 16.7324 19.1947 16.889 19.1748 16.9687C19.2317 17.0228 19.3883 17.1082 19.4822 17.1623C19.7755 17.3245 20.1057 17.5039 20.1057 17.837C20.1057 18.1701 19.7726 18.3523 19.4822 18.5117C19.3854 18.5658 19.2317 18.6484 19.1748 18.7053C19.1975 18.785 19.2915 18.9416 19.3513 19.0413C19.5221 19.3203 19.7128 19.6391 19.5506 19.921C19.3883 20.2028 19.0125 20.1971 18.6822 20.1886C18.5684 20.1858 18.3861 20.1829 18.3093 20.2028C18.2894 20.2797 18.295 20.4619 18.295 20.5758C18.3036 20.906 18.3093 21.2818 18.0274 21.4441C17.7456 21.6064 17.4296 21.4156 17.1477 21.2448C17.0481 21.185 16.8915 21.0882 16.8118 21.0683C16.7577 21.1253 16.6723 21.2818 16.6182 21.3758C16.4587 21.669 16.2765 21.9993 15.9434 21.9993ZM15.0979 20.4932C15.1406 20.4932 15.1833 20.4989 15.226 20.5103C15.4794 20.5786 15.6246 20.8434 15.7669 21.1025C15.8182 21.2021 15.878 21.3018 15.9434 21.3957C16.0089 21.3018 16.0687 21.205 16.12 21.1025C16.2623 20.8434 16.4075 20.5786 16.6609 20.5103C16.92 20.442 17.1847 20.6014 17.441 20.758C17.5321 20.8149 17.6232 20.8662 17.72 20.9146C17.7285 20.8064 17.7285 20.6982 17.7257 20.59C17.72 20.2911 17.7114 19.9836 17.8993 19.7957C18.0872 19.6078 18.3947 19.6164 18.6936 19.6221C18.8018 19.6277 18.91 19.6249 19.0182 19.6164C18.9726 19.5196 18.9185 19.4285 18.8616 19.3374C18.705 19.0811 18.5456 18.8135 18.6139 18.5573C18.6822 18.3068 18.947 18.1587 19.2061 18.0164C19.3086 17.9651 19.4054 17.9053 19.4993 17.8398C19.4054 17.7744 19.3086 17.7146 19.2061 17.6633C18.947 17.521 18.6822 17.3758 18.6139 17.1224C18.5456 16.8633 18.705 16.5986 18.8616 16.3423C18.9185 16.2512 18.9698 16.1601 19.0182 16.0633C18.91 16.0548 18.8018 16.0548 18.6936 16.0576C18.3947 16.0633 18.0872 16.0719 17.8993 15.884C17.7114 15.6961 17.72 15.3886 17.7257 15.0897C17.7313 14.9815 17.7285 14.8733 17.72 14.7651C17.6232 14.8107 17.5321 14.8648 17.441 14.9217C17.1847 15.0783 16.9171 15.2377 16.6609 15.1694C16.4075 15.1011 16.2623 14.8363 16.12 14.5772C16.0659 14.4776 16.0089 14.3779 15.9434 14.2868C15.878 14.3808 15.8182 14.4776 15.7669 14.5801C15.6246 14.8391 15.4794 15.1039 15.226 15.1722C14.9669 15.2406 14.7022 15.0811 14.4459 14.9245C14.3548 14.8676 14.2637 14.8164 14.1669 14.768C14.1584 14.8761 14.1584 14.9843 14.1612 15.0925C14.1669 15.3914 14.1755 15.6989 13.9876 15.8868C13.7997 16.0747 13.4922 16.069 13.1933 16.0605C13.0851 16.0548 12.9769 16.0576 12.8687 16.0662C12.9143 16.163 12.9684 16.2541 13.0253 16.3452C13.1819 16.6014 13.3413 16.869 13.273 17.1253C13.2047 17.3758 12.9399 17.5238 12.6808 17.6662C12.5783 17.7174 12.4815 17.7772 12.3876 17.8427C12.4815 17.9082 12.5783 17.968 12.6808 18.0192C12.9399 18.1616 13.2047 18.3067 13.273 18.5601C13.3413 18.8192 13.1819 19.084 13.0253 19.3402C12.9684 19.4313 12.9171 19.5224 12.8687 19.6192C12.9769 19.6277 13.0851 19.6277 13.1933 19.6249C13.4922 19.6192 13.7997 19.6107 13.9876 19.7986C14.1755 19.9865 14.1698 20.2939 14.1612 20.5929C14.1555 20.7011 14.1584 20.8092 14.1669 20.9174C14.2637 20.8719 14.3548 20.8178 14.4459 20.7608C14.6595 20.627 14.8815 20.4932 15.0979 20.4932Z" fill="#86888C"/>
</svg>
