<svg width="28" height="28" viewBox="0 0 28 28" fill="none" xmlns="http://www.w3.org/2000/svg">
<path fill-rule="evenodd" clip-rule="evenodd" d="M24.5043 24.4974C24.8253 24.173 25.0029 23.7462 25.0029 23.2886L24.979 16.0148C25.0097 15.4411 24.8697 14.9903 24.576 14.6762C24.2789 14.3586 23.8384 14.1912 23.2988 14.1878L4.70464 14.1912C4.25046 14.1912 3.82018 14.3688 3.49918 14.6932C3.17476 15.0176 3.0006 15.4445 3.0006 15.9021L3.0245 23.1759C2.99377 23.7496 3.13378 24.2003 3.42746 24.5145C3.72456 24.8287 4.1685 24.9994 4.70806 25.0028L23.3022 24.996C23.753 24.996 24.1799 24.8184 24.5043 24.4974ZM14 2.99715C13.3751 3.0313 12.8936 3.56403 12.9277 4.18896C12.9585 4.76949 13.4195 5.23392 14 5.26124C14.625 5.23051 15.1065 4.69778 15.0723 4.07285C15.045 3.49232 14.5806 3.02789 14 2.99715ZM14 6.25839C13.5937 6.25839 13.218 6.13887 12.8936 5.93739L5.64716 13.1907L22.3734 13.1873L15.1065 5.94081C14.782 6.13887 14.4064 6.25839 14 6.25839ZM25.9761 16.0387L26 23.2851C26.0034 24.0023 25.72 24.6921 25.2112 25.2009C24.7058 25.7097 24.016 25.9966 23.2988 25.9966L4.69781 26C3.88848 25.9932 3.17818 25.7063 2.69667 25.1941C2.21176 24.6784 1.97954 23.9715 2.02393 23.1485L2.00003 15.9021C1.99662 15.185 2.28005 14.4952 2.78888 13.9863C3.17135 13.6005 3.66651 13.3409 4.19923 13.2419C4.20948 13.2282 4.21289 13.2112 4.22655 13.2009L12.1901 5.23392C11.9852 4.90267 11.8725 4.52021 11.8725 4.1309C11.8725 2.95618 12.8253 2 14 2C15.1713 2 16.1275 2.95618 16.1275 4.1309C16.1275 4.53728 16.008 4.91292 15.8065 5.23392L23.8247 13.2282C23.8281 13.2316 23.8281 13.2351 23.8316 13.2385C24.4189 13.3375 24.9277 13.597 25.3 13.9932C25.7883 14.5088 26.0205 15.2157 25.9761 16.0387ZM7.901 20.782C8.17419 20.782 8.68643 20.782 8.68643 19.3956C8.68643 17.9989 8.17761 17.9989 7.901 17.9989C7.62439 17.9989 7.11215 17.9989 7.11215 19.3956C7.11215 20.782 7.62439 20.782 7.901 20.782ZM7.901 17.0871C8.53959 17.0871 9.60504 17.3876 9.60504 19.3956C9.60504 21.3011 8.6796 21.6972 7.901 21.6972C7.1224 21.6972 6.19013 21.2977 6.19013 19.3956C6.19013 17.3876 7.259 17.0871 7.901 17.0871ZM12.3711 19.1463C12.4394 19.0677 12.4804 18.9585 12.4804 18.6648C12.4804 18.436 12.436 18.2516 12.354 18.1594C12.3267 18.1286 12.2277 18.0535 11.9135 18.0535H11.4388V19.2521H11.9818C12.2789 19.2487 12.3267 19.1975 12.3711 19.1463ZM11.9374 17.1588C12.436 17.1588 12.7912 17.2817 13.0302 17.5378C13.2795 17.7974 13.4024 18.173 13.4024 18.6511C13.4024 19.1258 13.2897 19.4809 13.0575 19.7405C12.8253 20.0102 12.4941 20.1434 12.0501 20.1434H11.4388V21.2499C11.4388 21.4548 11.2715 21.6255 11.0632 21.6255H10.8993C10.6944 21.6255 10.5237 21.4582 10.5237 21.2499V17.531C10.5237 17.3261 10.691 17.1554 10.8993 17.1554C10.9061 17.1588 11.9374 17.1588 11.9374 17.1588ZM16.4758 20.7274C16.6807 20.7274 16.8515 20.8947 16.8515 21.103V21.2499C16.8515 21.4548 16.6842 21.6255 16.4758 21.6255H14.6454C14.4406 21.6255 14.2698 21.4582 14.2698 21.2499V17.531C14.2698 17.3261 14.4371 17.1554 14.6454 17.1554H16.4212C16.6261 17.1554 16.7968 17.3227 16.7968 17.5276C16.7968 17.5549 16.7934 17.5822 16.7866 17.6096L16.7524 17.7564C16.7149 17.9271 16.5612 18.0501 16.3871 18.0501H15.1816V18.9106H16.1275C16.3324 18.9106 16.5032 19.078 16.5032 19.2863V19.4331C16.5032 19.638 16.3358 19.8088 16.1275 19.8088H15.1816V20.7274H16.4758ZM20.6318 17.1588C20.8401 17.1588 21.0074 17.3261 21.0074 17.5344V21.2533C21.0074 21.4582 20.8401 21.6289 20.6318 21.6289H20.5089C20.3825 21.6289 20.2664 21.5674 20.1981 21.4616L18.6477 19.1087V21.2567C18.6477 21.4616 18.4804 21.6323 18.2721 21.6323H18.1184C17.9135 21.6323 17.7428 21.465 17.7428 21.2567V17.531C17.7428 17.3261 17.9101 17.1554 18.1184 17.1554H18.2379C18.3643 17.1554 18.4804 17.2168 18.5487 17.3227L20.1093 19.6756V17.5276C20.1093 17.3227 20.2766 17.152 20.4849 17.152C20.4815 17.1588 20.6318 17.1588 20.6318 17.1588Z" fill="#86888C"/>
</svg>
