<svg width="20" height="20" viewBox="0 0 20 20" fill="none" xmlns="http://www.w3.org/2000/svg">
<path fill-rule="evenodd" clip-rule="evenodd" d="M17.0029 16.9983C17.2169 16.782 17.3352 16.4974 17.3352 16.1924L17.3193 11.3432C17.3398 10.9607 17.2465 10.6602 17.0507 10.4508C16.8526 10.239 16.5589 10.1275 16.1992 10.1252L3.80309 10.1275C3.5003 10.1275 3.21345 10.2459 2.99945 10.4622C2.78317 10.6784 2.66707 10.963 2.66707 11.2681L2.683 16.1172C2.66251 16.4997 2.75585 16.8002 2.95164 17.0097C3.14971 17.2191 3.44567 17.333 3.80537 17.3352L16.2015 17.3307C16.502 17.3307 16.7866 17.2123 17.0029 16.9983ZM10 2.66477C9.5834 2.68754 9.2624 3.04269 9.28517 3.45931C9.30565 3.84633 9.613 4.15595 10 4.17416C10.4166 4.15367 10.7376 3.79852 10.7149 3.3819C10.6967 2.99488 10.387 2.68526 10 2.66477ZM10 4.83893C9.7291 4.83893 9.47868 4.75925 9.2624 4.62493L4.43144 9.46044L15.5823 9.45817L10.7376 4.62721C10.5214 4.75925 10.2709 4.83893 10 4.83893ZM17.9841 11.3591L18 16.1901C18.0023 16.6682 17.8133 17.1281 17.4741 17.4673C17.1372 17.8065 16.6773 17.9977 16.1992 17.9977L3.79854 18C3.25898 17.9954 2.78545 17.8042 2.46445 17.4627C2.14117 17.119 1.98636 16.6477 2.01596 16.099L2.00002 11.2681C1.99774 10.79 2.1867 10.3301 2.52592 9.99089C2.7809 9.73364 3.111 9.56062 3.46616 9.49459C3.47299 9.48549 3.47526 9.4741 3.48437 9.46727L8.79342 4.15595C8.65682 3.93512 8.58169 3.68014 8.58169 3.4206C8.58169 2.63745 9.21687 2 10 2C10.7809 2 11.4183 2.63745 11.4183 3.4206C11.4183 3.69152 11.3387 3.94195 11.2043 4.15595L16.5498 9.48549C16.5521 9.48776 16.5521 9.49004 16.5544 9.49232C16.946 9.55834 17.2852 9.73136 17.5333 9.99545C17.8589 10.3392 18.0137 10.8105 17.9841 11.3591ZM5.934 14.5213C6.11613 14.5213 6.45762 14.5213 6.45762 13.597C6.45762 12.6659 6.1184 12.6659 5.934 12.6659C5.74959 12.6659 5.4081 12.6659 5.4081 13.597C5.4081 14.5213 5.74959 14.5213 5.934 14.5213ZM5.934 12.0581C6.35972 12.0581 7.07003 12.2584 7.07003 13.597C7.07003 14.8674 6.45307 15.1315 5.934 15.1315C5.41493 15.1315 4.79342 14.8651 4.79342 13.597C4.79342 12.2584 5.506 12.0581 5.934 12.0581ZM8.91408 13.4308C8.95961 13.3785 8.98693 13.3056 8.98693 13.1098C8.98693 12.9573 8.95733 12.8344 8.9027 12.7729C8.88448 12.7524 8.81846 12.7023 8.60901 12.7023H8.29256V13.5014H8.65454C8.85261 13.4991 8.88448 13.465 8.91408 13.4308ZM8.62495 12.1059C8.95733 12.1059 9.1941 12.1878 9.35346 12.3586C9.51966 12.5316 9.60161 12.782 9.60161 13.1007C9.60161 13.4172 9.52649 13.654 9.37168 13.827C9.21687 14.0068 8.99604 14.0956 8.70008 14.0956H8.29256V14.8332C8.29256 14.9698 8.18101 15.0837 8.04214 15.0837H7.93286C7.79626 15.0837 7.68243 14.9721 7.68243 14.8332V12.354C7.68243 12.2174 7.79399 12.1036 7.93286 12.1036C7.93741 12.1059 8.62495 12.1059 8.62495 12.1059ZM11.6506 14.4849C11.7872 14.4849 11.901 14.5965 11.901 14.7353V14.8332C11.901 14.9698 11.7894 15.0837 11.6506 15.0837H10.4303C10.2937 15.0837 10.1799 14.9721 10.1799 14.8332V12.354C10.1799 12.2174 10.2914 12.1036 10.4303 12.1036H11.6141C11.7507 12.1036 11.8646 12.2151 11.8646 12.3517C11.8646 12.3699 11.8623 12.3882 11.8577 12.4064L11.835 12.5043C11.8099 12.6181 11.7075 12.7001 11.5914 12.7001H10.7877V13.2738H11.4183C11.5549 13.2738 11.6688 13.3853 11.6688 13.5242V13.6221C11.6688 13.7587 11.5572 13.8725 11.4183 13.8725H10.7877V14.4849H11.6506ZM14.4212 12.1059C14.5601 12.1059 14.6716 12.2174 14.6716 12.3563V14.8355C14.6716 14.9721 14.5601 15.0859 14.4212 15.0859H14.3392C14.255 15.0859 14.1776 15.045 14.1321 14.9744L13.0985 13.4058V14.8378C13.0985 14.9744 12.9869 15.0882 12.8481 15.0882H12.7456C12.609 15.0882 12.4952 14.9767 12.4952 14.8378V12.354C12.4952 12.2174 12.6067 12.1036 12.7456 12.1036H12.8253C12.9095 12.1036 12.9869 12.1446 13.0325 12.2151L14.0729 13.7837V12.3517C14.0729 12.2151 14.1844 12.1013 14.3233 12.1013C14.321 12.1059 14.4212 12.1059 14.4212 12.1059Z" fill="#86888C"/>
</svg>
