<svg width="40" height="40" viewBox="0 0 40 40" fill="none" xmlns="http://www.w3.org/2000/svg">
<path d="M9.18439 34.7505C8.90254 34.7505 8.67194 34.5199 8.67194 34.238C8.67194 34.0997 8.72831 33.9716 8.82567 33.8742L14.7599 28.0168L13.2943 26.5307L12.7972 26.0285L11.8287 25.0446L6.10453 30.6919C5.6587 31.1377 5.58183 30.8968 5.38197 30.697C5.18211 30.4971 5.17699 30.1743 5.37685 29.9744L5.3871 29.9642L11.4699 23.9582C11.6698 23.7583 11.9978 23.7635 12.1925 23.9633L13.0432 24.8242C14.4268 22.2671 15.9796 18.2392 16.3178 12.7149C15.9334 12.6227 15.585 12.4228 15.3134 12.141C14.9085 11.7207 14.7035 11.157 14.7035 10.4704C14.7035 9.78366 14.9085 9.21996 15.3134 8.79975C15.7182 8.37954 16.2563 8.15918 16.8968 8.15918C17.5374 8.15918 18.0704 8.37441 18.4803 8.79975C18.8903 9.22509 19.0902 9.78366 19.0902 10.4704C19.0902 11.157 18.8852 11.7207 18.4803 12.141C18.178 12.4638 17.7783 12.6739 17.3376 12.7457C17.0045 18.2546 15.4927 22.3388 14.0988 25.0087L25.2447 14.0063C25.0141 13.663 24.8963 13.253 24.9117 12.8379C24.927 12.2588 25.1884 11.7156 25.6803 11.2288C26.1723 10.742 26.7155 10.4909 27.2997 10.4755C27.8941 10.4601 28.4271 10.6805 28.8781 11.1263C29.329 11.5721 29.5596 12.1051 29.5442 12.6944C29.5289 13.2735 29.2675 13.8167 28.7756 14.3035C28.2836 14.7904 27.7404 15.0415 27.1562 15.0568C26.736 15.0722 26.326 14.9543 25.9724 14.7237L14.9905 25.5724C17.6655 24.2093 21.6781 22.7693 27.0435 22.4464C27.1152 22.0109 27.3304 21.6111 27.6482 21.3037C28.0684 20.8988 28.6321 20.6938 29.3188 20.6938C30.0055 20.6938 30.5743 20.8988 30.9945 21.3037C31.4147 21.7085 31.6351 22.2466 31.6351 22.8872C31.6351 23.5277 31.4198 24.0607 30.9945 24.4706C30.5692 24.8806 30.0106 25.0805 29.3188 25.0805C28.627 25.0805 28.0633 24.8755 27.6482 24.4706C27.3612 24.199 27.1613 23.8506 27.0742 23.4611C21.5397 23.7993 17.5118 25.3572 14.9495 26.7459L15.8463 27.653C16.0462 27.8528 16.041 28.1808 15.8412 28.3756L9.54311 34.6019C9.45087 34.6993 9.31763 34.7505 9.18439 34.7505ZM28.0325 22.9179V22.923C28.0376 23.2664 28.1452 23.5277 28.3605 23.7327C28.586 23.9479 28.9037 24.0556 29.3239 24.0556C29.7441 24.0556 30.0618 23.9479 30.2873 23.7327C30.5128 23.5175 30.6153 23.251 30.6153 22.8872C30.6153 22.5233 30.5128 22.2568 30.2873 22.0416C30.0618 21.8264 29.7441 21.7188 29.3239 21.7188C28.9037 21.7188 28.586 21.8264 28.3605 22.0416C28.135 22.2568 28.0325 22.5233 28.0325 22.8872V22.9179ZM26.3055 13.6783C26.5618 13.9294 26.8231 14.0422 27.1357 14.037C27.4483 14.0319 27.7558 13.8782 28.0633 13.5758C28.3707 13.2735 28.5193 12.9814 28.5245 12.6688C28.5296 12.3562 28.4168 12.1102 28.1657 11.8591C27.9146 11.608 27.643 11.4953 27.3356 11.5004C27.0281 11.5055 26.7155 11.6593 26.408 11.9616C26.1005 12.2639 25.9519 12.556 25.9468 12.8686C25.9366 13.171 26.0493 13.4272 26.3055 13.6783ZM16.8712 11.7515H16.8968C17.2607 11.7515 17.5272 11.649 17.7424 11.4235C17.9576 11.198 18.0652 10.8803 18.0652 10.4601C18.0652 10.0399 17.9576 9.72217 17.7424 9.49669C17.5272 9.27121 17.2607 9.16872 16.8968 9.16872C16.533 9.16872 16.2665 9.27121 16.0513 9.49669C15.8361 9.72217 15.7284 10.0399 15.7284 10.4601C15.7284 10.8803 15.8361 11.198 16.0513 11.4235C16.2563 11.6336 16.5176 11.7412 16.861 11.7515H16.8712Z" fill="#86888C"/>
<path d="M29.2727 25.1727C28.5552 25.1727 27.971 24.9574 27.5354 24.5372C27.0998 24.117 26.8795 23.584 26.8641 22.9384V22.9281V22.882C26.8641 22.2107 27.0896 21.6572 27.5354 21.2268C27.9813 20.7963 28.5603 20.5913 29.2727 20.5913C29.985 20.5913 30.5743 20.8065 31.0099 21.2268C31.4455 21.647 31.6812 22.2107 31.6812 22.882C31.6812 23.5533 31.4557 24.1068 31.0099 24.5372C30.564 24.9677 29.9901 25.1727 29.2727 25.1727ZM28.0786 22.9179C28.0838 23.2356 28.1811 23.4764 28.3759 23.6609C28.5808 23.8608 28.8781 23.9581 29.2727 23.9581C29.6672 23.9581 29.9645 23.8608 30.1695 23.6609C30.3744 23.4611 30.4667 23.2202 30.4667 22.8871C30.4667 22.554 30.3744 22.3029 30.1695 22.1133C29.9645 21.9237 29.6672 21.8161 29.2727 21.8161C28.8781 21.8161 28.5808 21.9134 28.3759 22.1133C28.1709 22.3132 28.0786 22.554 28.0786 22.8922V22.9179ZM16.8507 12.8737H16.7944C16.1487 12.8583 15.6106 12.638 15.1955 12.2024C14.7804 11.7668 14.5601 11.1775 14.5601 10.4652C14.5601 9.75287 14.7753 9.16354 15.1955 8.72796C15.6157 8.29237 16.1794 8.05664 16.8507 8.05664C17.5221 8.05664 18.0755 8.28212 18.506 8.72796C18.9364 9.17379 19.1414 9.75287 19.1414 10.4652C19.1414 11.1775 18.9262 11.7668 18.506 12.2024C18.0858 12.638 17.5169 12.8737 16.8507 12.8737ZM16.8507 9.26604C16.5176 9.26604 16.2665 9.3634 16.0769 9.56326C15.8873 9.76312 15.7797 10.0655 15.7797 10.4601C15.7797 10.8546 15.8771 11.1519 16.0769 11.3569C16.2665 11.5516 16.5023 11.649 16.82 11.6541H16.8507C17.1838 11.6541 17.4298 11.5567 17.6245 11.3569C17.8193 11.157 17.9218 10.8546 17.9218 10.4601C17.9218 10.0655 17.8244 9.76824 17.6245 9.56326C17.4247 9.35828 17.1838 9.26604 16.8507 9.26604ZM27.0486 15.1542C26.4542 15.1542 25.9263 14.9287 25.4702 14.4777L25.4651 14.4726C24.9885 14.0011 24.7579 13.4528 24.7733 12.8327C24.7887 12.228 25.0552 11.6643 25.5676 11.1621C26.0801 10.6599 26.6438 10.3934 27.2536 10.3781C27.8737 10.3627 28.4271 10.5882 28.9037 11.0596C29.3803 11.5311 29.6109 12.0794 29.5955 12.6995C29.5801 13.3042 29.3085 13.8679 28.8012 14.3701C28.2939 14.8723 27.725 15.1388 27.1152 15.1542H27.0486ZM26.3158 13.6065C26.5515 13.8371 26.7924 13.9448 27.0793 13.9345C27.3714 13.9294 27.6533 13.7859 27.9403 13.504C28.2272 13.2222 28.3707 12.9455 28.3759 12.6636C28.3861 12.3869 28.2785 12.1512 28.0428 11.9206C27.807 11.69 27.5662 11.5823 27.2792 11.5926C26.9871 11.5977 26.7053 11.7412 26.4132 12.023C26.1211 12.3049 25.9827 12.5816 25.9776 12.8635C25.9776 13.1402 26.0801 13.3759 26.3158 13.6065Z" fill="#86888C"/>
<path d="M19.9974 38C8.22633 38 2 31.7788 2 20.0077C2 8.23658 8.22633 2 19.9974 2C25.7421 2 30.1953 3.48612 33.2393 6.42249C36.396 9.46648 38 14.0376 38 20.0026C38 31.7788 31.7737 38 19.9974 38ZM19.9974 3.02491C14.5295 3.02491 10.312 4.41879 7.4679 7.16043C4.52128 10.0046 3.02491 14.3246 3.02491 20.0026C3.02491 25.6806 4.52128 30.0057 7.4679 32.8447C10.312 35.5863 14.5295 36.9751 19.9974 36.9751C25.4653 36.9751 29.6828 35.5863 32.5321 32.8447C35.4838 30.0006 36.9802 25.6806 36.9802 20.0077C36.9802 14.3348 35.4838 10.0097 32.5321 7.16555C29.6828 4.41879 25.4653 3.02491 19.9974 3.02491Z" fill="#86888C"/>
</svg>
