<svg width="20" height="20" viewBox="0 0 20 20" fill="none" xmlns="http://www.w3.org/2000/svg">
<path d="M5.19328 16.5557C5.06801 16.5557 4.96552 16.4532 4.96552 16.3279C4.96552 16.2664 4.99058 16.2095 5.03385 16.1662L7.67129 13.5629L7.0199 12.9024L6.79897 12.6792L6.36851 12.2419L3.82445 14.7518C3.62631 14.95 3.59214 14.8429 3.50332 14.7541C3.41449 14.6653 3.41221 14.5218 3.50104 14.433L3.50559 14.4284L6.20908 11.7591C6.29791 11.6703 6.44367 11.6725 6.53022 11.7614L6.9083 12.144C7.52324 11.0075 8.21335 9.21731 8.36367 6.76207C8.19285 6.72108 8.03798 6.63225 7.91727 6.50698C7.73734 6.32022 7.64623 6.06969 7.64623 5.76449C7.64623 5.4593 7.73734 5.20876 7.91727 5.022C8.09719 4.83524 8.33634 4.7373 8.62104 4.7373C8.90574 4.7373 9.1426 4.83296 9.32481 5.022C9.50702 5.21104 9.59584 5.4593 9.59584 5.76449C9.59584 6.06969 9.50474 6.32022 9.32481 6.50698C9.19043 6.65047 9.01278 6.74385 8.81691 6.77574C8.66887 9.22414 7.99698 11.0394 7.37748 12.226L12.3312 7.33602C12.2287 7.18343 12.1763 7.00122 12.1832 6.81674C12.19 6.55937 12.3062 6.31795 12.5248 6.10158C12.7435 5.88521 12.9849 5.7736 13.2445 5.76677C13.5087 5.75994 13.7456 5.85787 13.946 6.05602C14.1464 6.25417 14.2489 6.49104 14.2421 6.75296C14.2353 7.01033 14.1191 7.25175 13.9005 7.46812C13.6818 7.68449 13.4404 7.79609 13.1808 7.80293C12.994 7.80976 12.8118 7.75738 12.6546 7.65488L7.77378 12.4765C8.96268 11.8707 10.746 11.2307 13.1306 11.0872C13.1625 10.8936 13.2582 10.716 13.3994 10.5793C13.5862 10.3994 13.8367 10.3083 14.1419 10.3083C14.4471 10.3083 14.6999 10.3994 14.8867 10.5793C15.0734 10.7592 15.1714 10.9984 15.1714 11.2831C15.1714 11.5678 15.0757 11.8046 14.8867 11.9868C14.6976 12.169 14.4494 12.2579 14.1419 12.2579C13.8344 12.2579 13.5839 12.1668 13.3994 11.9868C13.2719 11.8661 13.183 11.7113 13.1443 11.5382C10.6845 11.6885 8.89435 12.3809 7.75556 12.9981L8.15413 13.4012C8.24296 13.49 8.24068 13.6358 8.15186 13.7224L5.35271 16.4896C5.31171 16.5329 5.2525 16.5557 5.19328 16.5557ZM13.5702 11.2967V11.299C13.5725 11.4516 13.6203 11.5678 13.716 11.6589C13.8162 11.7545 13.9574 11.8024 14.1442 11.8024C14.3309 11.8024 14.4721 11.7545 14.5724 11.6589C14.6726 11.5632 14.7181 11.4448 14.7181 11.2831C14.7181 11.1214 14.6726 11.0029 14.5724 10.9073C14.4721 10.8116 14.3309 10.7638 14.1442 10.7638C13.9574 10.7638 13.8162 10.8116 13.716 10.9073C13.6158 11.0029 13.5702 11.1214 13.5702 11.2831V11.2967ZM12.8027 7.19026C12.9166 7.30186 13.0327 7.35197 13.1716 7.34969C13.3106 7.34741 13.4472 7.27908 13.5839 7.14471C13.7205 7.01033 13.7866 6.88051 13.7889 6.74158C13.7911 6.60264 13.741 6.49332 13.6294 6.38172C13.5178 6.27012 13.3971 6.22001 13.2605 6.22229C13.1238 6.22456 12.9849 6.29289 12.8482 6.42727C12.7116 6.56165 12.6455 6.69147 12.6432 6.8304C12.6387 6.96478 12.6888 7.07866 12.8027 7.19026ZM8.60965 6.33389H8.62104C8.78275 6.33389 8.90118 6.28834 8.99684 6.18812C9.0925 6.08791 9.14033 5.9467 9.14033 5.75994C9.14033 5.57318 9.0925 5.43197 8.99684 5.33175C8.90118 5.23154 8.78275 5.18599 8.62104 5.18599C8.45933 5.18599 8.3409 5.23154 8.24524 5.33175C8.14958 5.43197 8.10175 5.57318 8.10175 5.75994C8.10175 5.9467 8.14958 6.08791 8.24524 6.18812C8.33634 6.2815 8.4525 6.32933 8.6051 6.33389H8.60965Z" fill="#86888C"/>
<path d="M14.121 12.299C13.8021 12.299 13.5425 12.2034 13.3489 12.0166C13.1553 11.8298 13.0573 11.593 13.0505 11.306V11.3014V11.2809C13.0505 10.9826 13.1507 10.7366 13.3489 10.5453C13.547 10.354 13.8044 10.2629 14.121 10.2629C14.4375 10.2629 14.6995 10.3585 14.8931 10.5453C15.0867 10.732 15.1914 10.9826 15.1914 11.2809C15.1914 11.5793 15.0912 11.8253 14.8931 12.0166C14.6949 12.2079 14.4398 12.299 14.121 12.299ZM13.5903 11.2969C13.5926 11.4381 13.6358 11.5451 13.7224 11.6271C13.8135 11.716 13.9456 11.7592 14.121 11.7592C14.2963 11.7592 14.4284 11.716 14.5195 11.6271C14.6106 11.5383 14.6516 11.4313 14.6516 11.2832C14.6516 11.1352 14.6106 11.0236 14.5195 10.9393C14.4284 10.855 14.2963 10.8072 14.121 10.8072C13.9456 10.8072 13.8135 10.8505 13.7224 10.9393C13.6313 11.0281 13.5903 11.1352 13.5903 11.2855V11.2969ZM8.60011 6.83282H8.57506C8.28808 6.82599 8.04894 6.72805 7.86445 6.53446C7.67997 6.34086 7.58203 6.07894 7.58203 5.76236C7.58203 5.44577 7.67769 5.18385 7.86445 4.99026C8.05121 4.79666 8.30175 4.69189 8.60011 4.69189C8.89847 4.69189 9.14445 4.79211 9.33577 4.99026C9.52709 5.18841 9.61819 5.44577 9.61819 5.76236C9.61819 6.07894 9.52253 6.34086 9.33577 6.53446C9.14901 6.72805 8.8962 6.83282 8.60011 6.83282ZM8.60011 5.2294C8.45207 5.2294 8.34047 5.27268 8.25619 5.3615C8.17192 5.45033 8.1241 5.58471 8.1241 5.76008C8.1241 5.93545 8.16737 6.06755 8.25619 6.15866C8.34047 6.2452 8.44523 6.28848 8.58644 6.29076H8.60011C8.74815 6.29076 8.85748 6.24748 8.94402 6.15866C9.03057 6.06983 9.07612 5.93545 9.07612 5.76008C9.07612 5.58471 9.03285 5.45261 8.94402 5.3615C8.8552 5.2704 8.74815 5.2294 8.60011 5.2294ZM13.1325 7.84634C12.8683 7.84634 12.6337 7.74613 12.431 7.5457L12.4287 7.54343C12.2169 7.33389 12.1144 7.09019 12.1212 6.8146C12.1281 6.54585 12.2465 6.29531 12.4743 6.07211C12.702 5.84891 12.9526 5.73047 13.2236 5.72364C13.4992 5.71681 13.7452 5.81702 13.957 6.02656C14.1688 6.23609 14.2713 6.4798 14.2645 6.75538C14.2576 7.02414 14.1369 7.27467 13.9114 7.49787C13.6859 7.72108 13.4331 7.83951 13.1621 7.84634H13.1325ZM12.8068 7.15851C12.9116 7.26101 13.0186 7.30883 13.1462 7.30428C13.276 7.302 13.4012 7.23823 13.5288 7.11296C13.6563 6.9877 13.7201 6.86471 13.7224 6.73944C13.7269 6.61645 13.6791 6.51168 13.5743 6.40919C13.4696 6.3067 13.3625 6.25887 13.235 6.26343C13.1052 6.2657 12.9799 6.32947 12.8501 6.45474C12.7203 6.58001 12.6588 6.703 12.6565 6.82827C12.6565 6.95125 12.702 7.05602 12.8068 7.15851Z" fill="#86888C"/>
<path d="M9.99886 18C4.76726 18 2 15.235 2 10.0034C2 4.77181 4.76726 2 9.99886 2C12.552 2 14.5312 2.6605 15.8841 3.96555C17.2871 5.31843 18 7.35004 18 10.0011C18 15.235 15.2327 18 9.99886 18ZM9.99886 2.45552C7.56868 2.45552 5.69424 3.07502 4.43018 4.29352C3.12057 5.55758 2.45552 7.47758 2.45552 10.0011C2.45552 12.5247 3.12057 14.447 4.43018 15.7088C5.69424 16.9273 7.56868 17.5445 9.99886 17.5445C12.429 17.5445 14.3035 16.9273 15.5698 15.7088C16.8817 14.4447 17.5468 12.5247 17.5468 10.0034C17.5468 7.48214 16.8817 5.55986 15.5698 4.2958C14.3035 3.07502 12.429 2.45552 9.99886 2.45552Z" fill="#86888C"/>
</svg>
