<svg width="24" height="24" viewBox="0 0 24 24" fill="none" xmlns="http://www.w3.org/2000/svg">
<path d="M6.99111 21.1948C6.83453 21.1948 6.70641 21.0667 6.70641 20.9101C6.70641 20.8333 6.73773 20.7621 6.79182 20.708L10.0886 17.4539L9.27439 16.6283L8.99823 16.3493L8.46015 15.8027L5.28008 18.94C5.03239 19.1877 4.98969 19.0539 4.87866 18.9429C4.76762 18.8318 4.76478 18.6525 4.87581 18.5414L4.8815 18.5358L8.26086 15.1991C8.37189 15.0881 8.5541 15.0909 8.66229 15.2019L9.13488 15.6802C9.90357 14.2596 10.7662 12.0219 10.9541 8.95284C10.7406 8.90159 10.547 8.79056 10.3961 8.63397C10.1712 8.40052 10.0573 8.08736 10.0573 7.70586C10.0573 7.32437 10.1712 7.0112 10.3961 6.77775C10.621 6.54429 10.9199 6.42188 11.2758 6.42188C11.6317 6.42188 11.9278 6.54145 12.1555 6.77775C12.3833 7.01405 12.4943 7.32437 12.4943 7.70586C12.4943 8.08736 12.3804 8.40052 12.1555 8.63397C11.9876 8.81333 11.7655 8.93006 11.5206 8.96992C11.3356 12.0304 10.4957 14.2995 9.72136 15.7827L15.9135 9.67027C15.7854 9.47953 15.7199 9.25177 15.7285 9.02116C15.737 8.69946 15.8822 8.39768 16.1555 8.12721C16.4288 7.85675 16.7306 7.71725 17.0552 7.70871C17.3854 7.70017 17.6815 7.82259 17.932 8.07027C18.1826 8.31796 18.3107 8.61405 18.3021 8.94145C18.2936 9.26316 18.1484 9.56494 17.8751 9.8354C17.6018 10.1059 17.3 10.2454 16.9755 10.2539C16.742 10.2624 16.5142 10.197 16.3178 10.0689L10.2167 16.0959C11.7029 15.3386 13.932 14.5386 16.9128 14.3592C16.9527 14.1172 17.0723 13.8952 17.2488 13.7244C17.4822 13.4995 17.7954 13.3856 18.1769 13.3856C18.5584 13.3856 18.8744 13.4995 19.1078 13.7244C19.3413 13.9493 19.4637 14.2482 19.4637 14.6041C19.4637 14.96 19.3441 15.256 19.1078 15.4838C18.8715 15.7116 18.5612 15.8226 18.1769 15.8226C17.7925 15.8226 17.4794 15.7087 17.2488 15.4838C17.0893 15.3329 16.9783 15.1393 16.9299 14.9229C13.8552 15.1108 11.6174 15.9763 10.194 16.7479L10.6922 17.2518C10.8032 17.3628 10.8004 17.545 10.6893 17.6532L7.1904 21.1123C7.13915 21.1664 7.06513 21.1948 6.99111 21.1948ZM17.4623 14.6212V14.624C17.4651 14.8148 17.5249 14.96 17.6445 15.0738C17.7698 15.1934 17.9463 15.2532 18.1797 15.2532C18.4132 15.2532 18.5897 15.1934 18.715 15.0738C18.8402 14.9543 18.8972 14.8062 18.8972 14.6041C18.8972 14.4019 18.8402 14.2539 18.715 14.1343C18.5897 14.0148 18.4132 13.955 18.1797 13.955C17.9463 13.955 17.7698 14.0148 17.6445 14.1343C17.5192 14.2539 17.4623 14.4019 17.4623 14.6041V14.6212ZM16.5029 9.48807C16.6452 9.62757 16.7904 9.6902 16.9641 9.68736C17.1377 9.68451 17.3085 9.5991 17.4794 9.43113C17.6502 9.26316 17.7327 9.10088 17.7356 8.92721C17.7384 8.75355 17.6758 8.61689 17.5363 8.47739C17.3968 8.33789 17.2459 8.27526 17.0751 8.2781C16.9043 8.28095 16.7306 8.36636 16.5598 8.53433C16.389 8.7023 16.3064 8.86458 16.3036 9.03825C16.2979 9.20622 16.3605 9.34857 16.5029 9.48807ZM11.2616 8.4176H11.2758C11.4779 8.4176 11.626 8.36067 11.7456 8.2354C11.8651 8.11013 11.9249 7.93362 11.9249 7.70017C11.9249 7.46671 11.8651 7.2902 11.7456 7.16494C11.626 7.03967 11.4779 6.98273 11.2758 6.98273C11.0737 6.98273 10.9256 7.03967 10.8061 7.16494C10.6865 7.2902 10.6267 7.46671 10.6267 7.70017C10.6267 7.93362 10.6865 8.11013 10.8061 8.2354C10.9199 8.35212 11.0651 8.41191 11.2559 8.4176H11.2616Z" fill="#86888C"/>
<path d="M18.1517 15.8736C17.7531 15.8736 17.4286 15.7541 17.1866 15.5206C16.9446 15.2872 16.8222 14.9911 16.8136 14.6324V14.6267V14.601C16.8136 14.2281 16.9389 13.9206 17.1866 13.6815C17.4343 13.4423 17.756 13.3284 18.1517 13.3284C18.5474 13.3284 18.8748 13.448 19.1168 13.6815C19.3588 13.9149 19.4898 14.2281 19.4898 14.601C19.4898 14.974 19.3645 15.2815 19.1168 15.5206C18.8691 15.7598 18.5503 15.8736 18.1517 15.8736ZM17.4883 14.621C17.4912 14.7975 17.5453 14.9313 17.6535 15.0338C17.7674 15.1448 17.9325 15.1989 18.1517 15.1989C18.3709 15.1989 18.536 15.1448 18.6499 15.0338C18.7638 14.9228 18.815 14.7889 18.815 14.6039C18.815 14.4188 18.7638 14.2793 18.6499 14.174C18.536 14.0687 18.3709 14.0089 18.1517 14.0089C17.9325 14.0089 17.7674 14.063 17.6535 14.174C17.5396 14.285 17.4883 14.4188 17.4883 14.6067V14.621ZM11.2506 9.0409H11.2193C10.8606 9.03236 10.5617 8.90994 10.3311 8.66795C10.1004 8.42596 9.97803 8.09855 9.97803 7.70282C9.97803 7.3071 10.0976 6.97969 10.3311 6.7377C10.5645 6.49571 10.8777 6.36475 11.2506 6.36475C11.6236 6.36475 11.9311 6.49001 12.1702 6.7377C12.4093 6.98539 12.5232 7.3071 12.5232 7.70282C12.5232 8.09855 12.4037 8.42596 12.1702 8.66795C11.9367 8.90994 11.6207 9.0409 11.2506 9.0409ZM11.2506 7.03663C11.0656 7.03663 10.9261 7.09072 10.8207 7.20176C10.7154 7.31279 10.6556 7.48076 10.6556 7.69998C10.6556 7.91919 10.7097 8.08432 10.8207 8.1982C10.9261 8.30638 11.057 8.36048 11.2335 8.36332H11.2506C11.4357 8.36332 11.5723 8.30923 11.6805 8.1982C11.7887 8.08717 11.8456 7.91919 11.8456 7.69998C11.8456 7.48076 11.7916 7.31564 11.6805 7.20176C11.5695 7.08788 11.4357 7.03663 11.2506 7.03663ZM16.9161 10.3078C16.5859 10.3078 16.2926 10.1825 16.0392 9.93201L16.0364 9.92916C15.7716 9.66724 15.6435 9.36261 15.6521 9.01813C15.6606 8.68218 15.8086 8.36902 16.0933 8.09001C16.378 7.81101 16.6912 7.66297 17.03 7.65443C17.3745 7.64589 17.6819 7.77115 17.9467 8.03307C18.2115 8.295 18.3396 8.59962 18.3311 8.94411C18.3225 9.28005 18.1716 9.59322 17.8898 9.87222C17.6079 10.1512 17.2919 10.2993 16.9531 10.3078H16.9161ZM16.509 9.44802C16.64 9.57614 16.7738 9.63592 16.9332 9.63023C17.0955 9.62738 17.252 9.54767 17.4115 9.39108C17.5709 9.2345 17.6506 9.08076 17.6535 8.92418C17.6592 8.77044 17.5994 8.63948 17.4684 8.51137C17.3375 8.38325 17.2037 8.32347 17.0442 8.32916C16.8819 8.33201 16.7254 8.41172 16.5631 8.56831C16.4008 8.72489 16.3239 8.87863 16.3211 9.03521C16.3211 9.18895 16.378 9.31991 16.509 9.44802Z" fill="#86888C"/>
<path d="M12.9986 23C6.45907 23 3 19.5438 3 13.0043C3 6.46477 6.45907 3 12.9986 3C16.19 3 18.6641 3.82562 20.3552 5.45694C22.1089 7.14804 23 9.68754 23 13.0014C23 19.5438 19.5409 23 12.9986 23ZM12.9986 3.5694C9.96085 3.5694 7.61779 4.34377 6.03772 5.8669C4.40071 7.44698 3.5694 9.84697 3.5694 13.0014C3.5694 16.1559 4.40071 18.5587 6.03772 20.1359C7.61779 21.6591 9.96085 22.4306 12.9986 22.4306C16.0363 22.4306 18.3794 21.6591 19.9623 20.1359C21.6021 18.5559 22.4335 16.1559 22.4335 13.0043C22.4335 9.85267 21.6021 7.44982 19.9623 5.86975C18.3794 4.34377 16.0363 3.5694 12.9986 3.5694Z" fill="#86888C"/>
</svg>
