<svg width="24" height="24" viewBox="0 0 24 24" fill="none" xmlns="http://www.w3.org/2000/svg">
<path fill-rule="evenodd" clip-rule="evenodd" d="M16.9055 14.1941C16.6153 14.4986 16.2624 14.7348 15.8725 14.9311C15.7331 15.0023 15.5993 15.0791 15.4485 15.136C14.9704 15.3096 14.4297 15.3978 13.8492 15.4235C13.7666 15.4263 13.6898 15.4434 13.6044 15.4434H8.56744C8.51622 15.4377 8.47069 15.4348 8.41662 15.432C8.38532 15.432 8.35686 15.4263 8.32271 15.4263C7.74217 15.4007 7.20148 15.3125 6.72339 15.1389C6.60102 15.082 6.54126 15.0478 6.43028 15.0051C6.39898 14.9937 6.33921 14.9482 6.29937 14.934C5.91235 14.7405 5.55663 14.5014 5.26636 14.1969C4.97894 13.8042 4.82527 13.2692 4.82527 12.5805C4.82527 11.8919 4.97894 11.3569 5.26636 10.9642C5.94935 10.2413 6.93682 9.83723 8.12635 9.75186C8.0609 10.0507 8.01537 10.3694 8.01537 10.7223C8.01537 11.7581 8.2971 12.5692 8.85487 13.1269C9.38418 13.6591 10.1298 13.9294 11.0746 13.9351V13.938H11.0973V13.9351C12.0393 13.9294 12.7877 13.6619 13.317 13.1269C13.8748 12.5663 14.1565 11.7553 14.1565 10.7223C14.1565 10.3665 14.111 10.0507 14.0455 9.75186C15.2379 9.83723 16.2254 10.2413 16.9084 10.9642C17.1958 11.3569 17.3495 11.8947 17.3495 12.5805C17.3466 13.2664 17.1929 13.8014 16.9055 14.1941ZM11.0831 18.9977C9.07684 18.9892 8.84348 17.4468 8.83779 16.778L8.8321 16.2971H13.3312L13.3256 16.778C13.3227 17.4468 13.0894 18.9892 11.0831 18.9977ZM15.3574 17.0199C15.3489 18.0103 15.0131 21.2373 11.0831 21.243C7.1531 21.2345 6.8173 18.0103 6.80876 17.0199L6.79738 16.0581C7.17871 16.169 7.58281 16.2402 8.01252 16.2743L8.02106 16.7866C8.03529 18.2607 8.84633 19.8372 11.0746 19.8486V19.8515H11.0973V19.8486C13.3284 19.8372 14.1394 18.2607 14.1508 16.7866L14.1565 16.2743C14.5862 16.2402 14.9903 16.1662 15.3745 16.0581L15.3574 17.0199ZM8.81787 3.73877C9.33011 3.22084 10.0928 2.95618 11.0831 2.95334C12.0706 2.95334 12.8332 3.21799 13.3483 3.73877C13.8862 4.28231 14.1537 5.10189 14.1537 6.18327C14.1537 7.18214 13.9118 7.94765 13.4536 8.48549C13.4166 8.52818 13.3882 8.58225 13.3483 8.62209C13.3284 8.64486 13.3142 8.67047 13.2971 8.68754C13.226 8.7473 13.1861 8.79853 13.1235 8.86683C13.1093 8.88106 13.1007 8.90098 13.0894 8.91805C12.9898 9.06603 13.0239 9.28515 13.0438 9.34207L13.1918 9.71202C13.28 10.0051 13.3284 10.3381 13.3284 10.7194C13.3284 11.5134 13.132 12.1167 12.7393 12.5094C12.3665 12.8879 11.8059 13.0757 11.0774 13.0786C10.3517 13.0757 9.79112 12.8879 9.41548 12.5094C9.02561 12.1167 8.82641 11.5134 8.82641 10.7194C8.82641 10.3352 8.87479 10.0051 8.96585 9.71202L9.11383 9.34207C9.13375 9.28515 9.1679 9.06603 9.0683 8.91805C9.05407 8.90382 9.05122 8.88106 9.03415 8.86683C8.97154 8.79853 8.93455 8.74446 8.86056 8.68754C8.84348 8.66762 8.82925 8.64486 8.80933 8.62209C8.76949 8.58225 8.74104 8.53103 8.70404 8.48549C8.24303 7.94765 8.00114 7.18214 8.00114 6.18327C8.00968 5.10473 8.28002 4.28231 8.81787 3.73877ZM17.5202 10.4007L17.5031 10.3779C17.4889 10.3637 17.4946 10.3637 17.4804 10.3495C17.4263 10.2812 17.4007 10.2556 17.3381 10.193C17.2954 10.1503 17.2299 10.0877 17.1702 10.0507C16.3933 9.37906 15.383 8.98066 14.1964 8.88106C14.7029 8.20092 14.9732 7.30166 14.9732 6.18327C14.9732 4.86569 14.6175 3.83552 13.9175 3.12693C13.2459 2.44964 12.2954 2.10246 11.0916 2.09961H11.0689C9.86511 2.1053 8.91463 2.44964 8.24303 3.12693C7.54297 3.83552 7.18725 4.86284 7.18725 6.18327C7.18725 7.3045 7.46044 8.20092 7.96699 8.88106C6.78031 8.98066 5.77006 9.37906 4.99032 10.0507C4.93341 10.0877 4.86796 10.1503 4.82527 10.193C4.76551 10.2556 4.73705 10.2812 4.68298 10.3495C4.66875 10.3637 4.67729 10.3637 4.66306 10.3779L4.64599 10.4007C4.22481 10.9471 4 11.6699 4 12.5777C4 13.4826 4.22481 14.2083 4.64599 14.7547C4.66022 14.7689 4.66875 14.7889 4.68298 14.8031C4.73705 14.8714 4.77974 14.9112 4.8395 14.9738C4.88503 15.0194 4.93056 15.0649 4.99317 15.1019C5.28628 15.3552 5.61639 15.5657 5.97211 15.7422L5.98919 17.0285C6.01195 19.4758 7.358 22.0854 11.0717 22.0996H11.0945C14.8082 22.0882 16.1571 19.4758 16.177 17.0285L16.1941 15.7422C16.5498 15.5657 16.8799 15.3552 17.1702 15.1019C17.2328 15.0649 17.2812 15.0194 17.3238 14.9738C17.3865 14.9112 17.4263 14.8714 17.4804 14.8031C17.4946 14.7889 17.5031 14.7689 17.5174 14.7547C17.9385 14.2083 18.1633 13.4855 18.1633 12.5777C18.1662 11.6727 17.9414 10.9471 17.5202 10.4007Z" fill="#86888C"/>
</svg>
