<svg width="28" height="28" viewBox="0 0 28 28" fill="none" xmlns="http://www.w3.org/2000/svg">
<path fill-rule="evenodd" clip-rule="evenodd" d="M20.4866 17.613C20.1383 17.9784 19.7149 18.2618 19.247 18.4974C19.0797 18.5828 18.9192 18.675 18.7382 18.7433C18.1645 18.9516 17.5157 19.0575 16.819 19.0882C16.72 19.0916 16.6278 19.1121 16.5253 19.1121H10.4809C10.4195 19.1053 10.3648 19.1019 10.2999 19.0985C10.2624 19.0985 10.2282 19.0916 10.1873 19.0916C9.49061 19.0609 8.84178 18.955 8.26807 18.7467C8.12123 18.6784 8.04952 18.6375 7.91633 18.5862C7.87877 18.5726 7.80706 18.5179 7.75925 18.5009C7.29482 18.2686 6.86796 17.9818 6.51964 17.6164C6.17473 17.1451 5.99032 16.5031 5.99032 15.6767C5.99032 14.8503 6.17473 14.2083 6.51964 13.7371C7.33921 12.8697 8.52419 12.3848 9.95162 12.2823C9.87308 12.6409 9.81844 13.0233 9.81844 13.4468C9.81844 14.6898 10.1565 15.6631 10.8258 16.3324C11.461 16.971 12.3557 17.2954 13.4895 17.3022V17.3056H13.5168V17.3022C14.6471 17.2954 15.5452 16.9744 16.1804 16.3324C16.8497 15.6597 17.1878 14.6864 17.1878 13.4468C17.1878 13.0199 17.1332 12.6409 17.0546 12.2823C18.4855 12.3848 19.6705 12.8697 20.49 13.7371C20.8349 14.2083 21.0194 14.8537 21.0194 15.6767C21.0159 16.4997 20.8315 17.1417 20.4866 17.613ZM13.4997 23.3774C11.0922 23.3671 10.8122 21.5162 10.8053 20.7137L10.7985 20.1366H16.1975L16.1907 20.7137C16.1873 21.5162 15.9072 23.3671 13.4997 23.3774ZM18.6289 21.004C18.6187 22.1924 18.2157 26.0649 13.4997 26.0717C8.78372 26.0615 8.38076 22.1924 8.37052 21.004L8.35686 19.8498C8.81446 19.9829 9.29937 20.0683 9.81503 20.1093L9.82527 20.724C9.84235 22.4929 10.8156 24.3848 13.4895 24.3984V24.4018H13.5168V24.3984C16.1941 24.3848 17.1673 22.4929 17.181 20.724L17.1878 20.1093C17.7035 20.0683 18.1884 19.9795 18.6494 19.8498L18.6289 21.004ZM10.7814 5.0666C11.3961 4.44508 12.3113 4.1275 13.4997 4.12408C14.6847 4.12408 15.5999 4.44167 16.218 5.0666C16.8634 5.71885 17.1844 6.70234 17.1844 8.00001C17.1844 9.19864 16.8941 10.1173 16.3443 10.7627C16.2999 10.8139 16.2658 10.8788 16.218 10.9266C16.1941 10.9539 16.177 10.9846 16.1565 11.0051C16.0711 11.0768 16.0233 11.1383 15.9482 11.2203C15.9311 11.2373 15.9209 11.2612 15.9072 11.2817C15.7877 11.4593 15.8287 11.7223 15.8526 11.7906L16.0302 12.2345C16.136 12.5862 16.1941 12.9858 16.1941 13.4434C16.1941 14.3961 15.9585 15.1201 15.4872 15.5914C15.0398 16.0455 14.3671 16.2709 13.4929 16.2743C12.6221 16.2709 11.9493 16.0455 11.4986 15.5914C11.0307 15.1201 10.7917 14.3961 10.7917 13.4434C10.7917 12.9824 10.8497 12.5862 10.959 12.2345L11.1366 11.7906C11.1605 11.7223 11.2015 11.4593 11.082 11.2817C11.0649 11.2647 11.0615 11.2373 11.041 11.2203C10.9659 11.1383 10.9215 11.0734 10.8327 11.0051C10.8122 10.9812 10.7951 10.9539 10.7712 10.9266C10.7234 10.8788 10.6892 10.8173 10.6448 10.7627C10.0916 10.1173 9.80137 9.19864 9.80137 8.00001C9.81161 6.70576 10.136 5.71885 10.7814 5.0666ZM21.2242 13.0609L21.2038 13.0336C21.1867 13.0165 21.1935 13.0165 21.1764 12.9994C21.1116 12.9175 21.0808 12.8867 21.0057 12.8116C20.9545 12.7604 20.8759 12.6853 20.8042 12.6409C19.8719 11.835 18.6596 11.3569 17.2356 11.2373C17.8435 10.4212 18.1679 9.34207 18.1679 8.00001C18.1679 6.4189 17.741 5.18271 16.901 4.33239C16.095 3.51964 14.9545 3.10302 13.51 3.09961H13.4826C12.0381 3.10644 10.8976 3.51964 10.0916 4.33239C9.25157 5.18271 8.8247 6.41549 8.8247 8.00001C8.8247 9.34548 9.15253 10.4212 9.76039 11.2373C8.33637 11.3569 7.12408 11.835 6.18839 12.6409C6.12009 12.6853 6.04155 12.7604 5.99032 12.8116C5.91861 12.8867 5.88446 12.9175 5.81958 12.9994C5.8025 13.0165 5.81275 13.0165 5.79567 13.0336L5.77518 13.0609C5.26978 13.7166 5 14.584 5 15.6733C5 16.7593 5.26978 17.6301 5.77518 18.2857C5.79226 18.3028 5.8025 18.3267 5.81958 18.3438C5.88446 18.4257 5.93569 18.4735 6.0074 18.5487C6.06204 18.6033 6.11668 18.6579 6.1918 18.7023C6.54354 19.0063 6.93967 19.259 7.36653 19.4707L7.38702 21.0142C7.41434 23.9511 9.0296 27.0825 13.4861 27.0996H13.5134C17.9698 27.0859 19.5885 23.9511 19.6124 21.0142L19.6329 19.4707C20.0598 19.259 20.4559 19.0063 20.8042 18.7023C20.8793 18.6579 20.9374 18.6033 20.9886 18.5487C21.0637 18.4735 21.1116 18.4257 21.1764 18.3438C21.1935 18.3267 21.2038 18.3028 21.2208 18.2857C21.7262 17.6301 21.996 16.7627 21.996 15.6733C21.9994 14.5874 21.7297 13.7166 21.2242 13.0609Z" fill="#86888C"/>
</svg>
