<svg width="20" height="20" viewBox="0 0 20 20" fill="none" xmlns="http://www.w3.org/2000/svg">
<path d="M7.29052 14.6801C7.15826 14.6801 7.0511 14.573 7.0511 14.4407C7.0511 14.3792 7.07618 14.3199 7.11722 14.2743C7.67814 13.6928 8.51269 13.3987 9.60261 13.3987C10.688 13.3987 11.5225 13.6905 12.0812 14.2697C12.1724 14.3655 12.1701 14.516 12.0766 14.6095C11.9808 14.7007 11.8303 14.6984 11.7369 14.6049C11.2694 14.1238 10.5512 13.8798 9.60261 13.8798C8.65406 13.8798 7.92896 14.1261 7.46381 14.6095C7.41821 14.6528 7.35436 14.6801 7.29052 14.6801ZM6.09342 12.7922C5.96117 12.7922 5.854 12.685 5.854 12.5527C5.854 12.4912 5.87909 12.4319 5.92013 12.3863C6.74555 11.5289 7.98597 11.0957 9.60261 11.0957C11.2147 11.0957 12.4506 11.5267 13.276 12.3794C13.3672 12.4752 13.3649 12.6257 13.2714 12.7192C13.1757 12.8104 13.0252 12.8081 12.9317 12.7146C12.1997 11.9599 11.0779 11.5768 9.60261 11.5768C8.1205 11.5768 6.99865 11.9622 6.26672 12.7215C6.22111 12.7671 6.15955 12.7922 6.09342 12.7922Z" fill="#86888C"/>
<path d="M12.6145 18H6.56748C5.75574 18 5.12185 17.7857 4.68405 17.3639C4.2303 16.9261 4 16.2739 4 15.4303L4.00228 10.708C4 10.4481 4 10.3455 4 10.3455V10.3432C4 9.49725 4.2303 8.8474 4.68405 8.40961C5.12185 7.98777 5.75574 7.77344 6.56748 7.77344H12.6145C13.4262 7.77344 14.0601 7.98777 14.5002 8.40961C14.9562 8.84512 15.1911 9.49497 15.2025 10.3409V15.4326C15.1911 16.2785 14.9562 16.9283 14.5002 17.3639C14.0601 17.788 13.4262 18 12.6145 18ZM4.47656 10.3432C4.47656 10.3569 4.47884 10.4618 4.47884 10.708V10.7103L4.47656 15.4348C4.47656 16.144 4.65669 16.6798 5.01468 17.0241C5.35899 17.357 5.88115 17.5258 6.5652 17.5258H12.6122C14.0145 17.5258 14.7031 16.8417 14.7214 15.4348V10.35C14.7031 8.94317 14.0145 8.25911 12.6122 8.25911H6.56748C5.88343 8.25911 5.36127 8.42785 5.01696 8.76075C4.65897 9.09822 4.47656 9.63178 4.47656 10.3432Z" fill="#86888C"/>
<path d="M6.05679 8.23856C5.93138 8.23856 5.83105 8.13824 5.83105 8.01283V5.52287C5.83105 3.58016 7.48646 2 9.52266 2H9.67771C11.7116 2 13.3693 3.58016 13.3693 5.52059C13.3693 5.646 13.269 5.74633 13.1436 5.74633C13.0182 5.74633 12.9178 5.646 12.9178 5.52059C12.9178 3.82642 11.4654 2.45147 9.67771 2.45147H9.52266C7.73728 2.45147 6.28253 3.8287 6.28253 5.52059V8.01055C6.28253 8.13824 6.1822 8.23856 6.05679 8.23856ZM9.60019 15.339C9.36761 15.339 9.21484 15.4599 9.21484 15.7221C9.21484 15.8475 9.24904 15.941 9.31288 16.0026C9.38129 16.071 9.47934 16.1029 9.60019 16.1029C9.72104 16.1029 9.82136 16.071 9.88749 16.0026C9.94905 15.9387 9.98554 15.8475 9.98554 15.7221C9.98554 15.4599 9.83276 15.339 9.60019 15.339Z" fill="#86888C"/>
</svg>
