<svg width="24" height="24" viewBox="0 0 24 24" fill="none" xmlns="http://www.w3.org/2000/svg">
<path fill-rule="evenodd" clip-rule="evenodd" d="M21.1689 20.7306C21.1689 20.9725 20.9725 21.1689 20.7278 21.1718H9.10687C8.86495 21.1718 8.66856 20.9754 8.66856 20.7306V16.3504C8.66856 16.2877 8.65149 16.2251 8.62302 16.1682H14.896C15.599 16.1682 16.1682 15.599 16.1682 14.896V8.64295C16.2081 8.65718 16.2507 8.66572 16.2934 8.66856H20.7306C20.9725 8.66856 21.1718 8.86495 21.1718 9.10972V20.7306H21.1689ZM2.83393 14.896V3.27224C2.83393 3.03031 3.03031 2.83108 3.27224 2.83108H14.896C15.1379 2.83108 15.3371 3.02747 15.3371 3.27224V14.8931C15.3371 15.1351 15.1407 15.3314 14.896 15.3343H3.27224C3.03031 15.3343 2.83393 15.1379 2.83393 14.896ZM20.7306 7.83464H16.2934C16.2507 7.83748 16.2081 7.84602 16.1682 7.86025V3.27224C16.1682 2.56923 15.599 2 14.896 2H3.27224C2.56923 2 2 2.57208 2 3.27224V14.8931C2 15.5961 2.56923 16.1654 3.27224 16.1654H7.88018C7.85171 16.2223 7.83464 16.2849 7.83464 16.3475V20.7278C7.83464 21.4308 8.40387 22 9.10687 22H20.7306C21.4336 22 22.0028 21.4308 22.0028 20.7278V9.10687C22.0028 8.40387 21.4336 7.83464 20.7306 7.83464Z" fill="#86888C"/>
</svg>
