<svg width="28" height="28" viewBox="0 0 28 28" fill="none" xmlns="http://www.w3.org/2000/svg">
<path fill-rule="evenodd" clip-rule="evenodd" d="M25.0027 24.4767C25.0027 24.767 24.767 25.0027 24.4733 25.0061H10.5282C10.2379 25.0061 10.0023 24.7705 10.0023 24.4767V19.2204C10.0023 19.1453 9.98178 19.0702 9.94763 19.0018H17.4752C18.3188 19.0018 19.0018 18.3188 19.0018 17.4752V9.97154C19.0497 9.98861 19.1009 9.99886 19.1521 10.0023H24.4767C24.767 10.0023 25.0061 10.2379 25.0061 10.5317V24.4767H25.0027ZM3.00071 17.4752V3.52668C3.00071 3.23637 3.23637 2.9973 3.52668 2.9973H17.4752C17.7655 2.9973 18.0046 3.23296 18.0046 3.52668V17.4718C18.0046 17.7621 17.7689 17.9977 17.4752 18.0011H3.52668C3.23637 18.0011 3.00071 17.7655 3.00071 17.4752ZM24.4767 9.00156H19.1521C19.1009 9.00498 19.0497 9.01523 19.0018 9.0323V3.52668C19.0018 2.68308 18.3188 2 17.4752 2H3.52668C2.68308 2 2 2.68649 2 3.52668V17.4718C2 18.3154 2.68308 18.9984 3.52668 18.9984H9.05621C9.02206 19.0667 9.00156 19.1419 9.00156 19.217V24.4733C9.00156 25.3169 9.68464 26 10.5282 26H24.4767C25.3203 26 26.0034 25.3169 26.0034 24.4733V10.5282C26.0034 9.68464 25.3203 9.00156 24.4767 9.00156Z" fill="#86888C"/>
</svg>
