<svg width="20" height="20" viewBox="0 0 20 20" fill="none" xmlns="http://www.w3.org/2000/svg">
<path d="M3.92412 13.6457C2.6829 13.6457 2 12.9536 2 11.6939V7.94027C2 7.32658 2.1615 6.84901 2.47757 6.5191C2.80518 6.17765 3.29198 6.00461 3.92412 6.00461L11.7844 6C12.4166 6 12.9034 6.17303 13.231 6.51448C13.547 6.8444 13.7085 7.32197 13.7085 7.93566V11.6916C13.7085 12.949 13.0256 13.6434 11.7844 13.6434L3.92412 13.6457ZM11.7844 6.45911L3.92412 6.46373C3.42117 6.46373 3.04512 6.59062 2.80518 6.83748C2.57216 7.07972 2.4545 7.45117 2.4545 7.94027V11.6962C2.4545 12.7021 2.93438 13.1912 3.92181 13.1912L11.7821 13.1866C12.7695 13.1866 13.2494 12.6975 13.2494 11.6916V7.93566C13.2494 7.44425 13.1318 7.0728 12.8987 6.83286C12.6634 6.5837 12.2874 6.45911 11.7844 6.45911ZM2.2284 14.9977C2.10151 14.9977 2 14.8962 2 14.7693C2 14.6424 2.10151 14.5409 2.2284 14.5409L13.4801 14.5363C13.607 14.5363 13.7085 14.6378 13.7085 14.7647C13.7085 14.8916 13.607 14.9931 13.4801 14.9931L2.2284 14.9977Z" fill="#86888C"/>
<path d="M5.28869 14.9516C5.23101 14.9516 5.17333 14.9308 5.1295 14.887C5.03952 14.7993 5.03721 14.6539 5.12488 14.564L6.36841 13.2881C6.45608 13.1982 6.60143 13.1958 6.6914 13.2835C6.78138 13.3712 6.78369 13.5165 6.69602 13.6065L5.45249 14.8823C5.40635 14.9285 5.34867 14.9516 5.28869 14.9516ZM10.3966 14.9977C10.3366 14.9977 10.2789 14.9746 10.2328 14.9285L8.98236 13.6596C8.89469 13.5696 8.89469 13.4243 8.98466 13.3366C9.07464 13.2489 9.21999 13.2489 9.30766 13.3389L10.5581 14.6078C10.6458 14.6978 10.6458 14.8431 10.5558 14.9308C10.512 14.9769 10.4543 14.9977 10.3966 14.9977ZM17.1195 15H15.2392C14.8332 15 14.1549 14.8039 14.1549 13.4819L14.1526 7.51807C14.1526 6.19841 14.8309 6 15.2369 6H17.1172C17.5255 6 18.2108 6.1961 18.2108 7.51807L18.2131 13.4819C18.2131 14.8039 17.5279 15 17.1195 15ZM15.2369 6.46142C15.0662 6.46142 14.614 6.46142 14.614 7.51807L14.6163 13.4819C14.6163 14.5386 15.0685 14.5386 15.2392 14.5386H17.1195C17.2764 14.5386 17.7516 14.5386 17.7516 13.4819L17.747 7.51807C17.747 6.46142 17.2718 6.46142 17.1149 6.46142H15.2369Z" fill="#86888C"/>
</svg>
