<svg width="24" height="24" viewBox="0 0 24 24" fill="none" xmlns="http://www.w3.org/2000/svg">
<path d="M5.35171 16.3448C3.83466 16.3448 3 15.4988 3 13.9592V9.37144C3 8.62138 3.19739 8.03768 3.5837 7.63445C3.98411 7.21712 4.57908 7.00564 5.35171 7.00564L14.9587 7C15.7314 7 16.3263 7.21148 16.7267 7.62881C17.1131 8.03204 17.3104 8.61574 17.3104 9.3658V13.9564C17.3104 15.4932 16.4758 16.342 14.9587 16.342L5.35171 16.3448ZM14.9587 7.56114L5.35171 7.56678C4.73699 7.56678 4.27736 7.72187 3.98411 8.02358C3.69931 8.31966 3.5555 8.77365 3.5555 9.37144V13.9621C3.5555 15.1915 4.14201 15.7893 5.34889 15.7893L14.9559 15.7836C16.1628 15.7836 16.7493 15.1858 16.7493 13.9564V9.3658C16.7493 8.76519 16.6055 8.3112 16.3207 8.01794C16.0331 7.71341 15.5734 7.56114 14.9587 7.56114ZM3.27916 17.9972C3.12407 17.9972 3 17.8731 3 17.718C3 17.5629 3.12407 17.4389 3.27916 17.4389L17.0313 17.4332C17.1864 17.4332 17.3104 17.5573 17.3104 17.7124C17.3104 17.8675 17.1864 17.9915 17.0313 17.9915L3.27916 17.9972Z" fill="#86888C"/>
<path d="M7.0181 17.9408C6.9476 17.9408 6.87711 17.9154 6.82353 17.8618C6.71356 17.7547 6.71074 17.577 6.81789 17.4671L8.33776 15.9077C8.44491 15.7977 8.62256 15.7949 8.73253 15.9021C8.8425 16.0092 8.84532 16.1869 8.73817 16.2968L7.2183 17.8562C7.1619 17.9126 7.09141 17.9408 7.0181 17.9408ZM13.2611 17.9972C13.1878 17.9972 13.1173 17.969 13.0609 17.9126L11.5326 16.3617C11.4254 16.2517 11.4254 16.0741 11.5354 15.9669C11.6454 15.8598 11.823 15.8598 11.9302 15.9698L13.4585 17.5206C13.5656 17.6306 13.5656 17.8083 13.4557 17.9154C13.4021 17.9718 13.3316 17.9972 13.2611 17.9972ZM21.478 18H19.1799C18.6836 18 17.8545 17.7603 17.8545 16.1446L17.8517 8.85542C17.8517 7.2425 18.6807 7 19.177 7H21.4752C21.9743 7 22.8117 7.23968 22.8117 8.85542L22.8146 16.1446C22.8146 17.7603 21.9771 18 21.478 18ZM19.177 7.56396C18.9684 7.56396 18.4157 7.56396 18.4157 8.85542L18.4185 16.1446C18.4185 17.436 18.9712 17.436 19.1799 17.436H21.478C21.6697 17.436 22.2506 17.436 22.2506 16.1446L22.245 8.85542C22.245 7.56396 21.6641 7.56396 21.4723 7.56396H19.177Z" fill="#86888C"/>
</svg>
