<svg width="40" height="40" viewBox="0 0 40 40" fill="none" xmlns="http://www.w3.org/2000/svg">
<path d="M6.27583 27.9905C3.51756 27.9905 2 26.4524 2 23.6532V15.3117C2 13.948 2.35888 12.8867 3.06127 12.1536C3.78929 11.3948 4.87106 11.0103 6.27583 11.0103L23.7431 11C25.1479 11 26.2297 11.3845 26.9577 12.1433C27.6601 12.8764 28.019 13.9377 28.019 15.3015V23.648C28.019 26.4422 26.5014 27.9854 23.7431 27.9854L6.27583 27.9905ZM23.7431 12.0203L6.27583 12.0305C5.15816 12.0305 4.32248 12.3125 3.78929 12.8611C3.27147 13.3994 3.01 14.2248 3.01 15.3117V23.6583C3.01 25.8936 4.07639 26.9805 6.2707 26.9805L23.738 26.9703C25.9323 26.9703 26.9987 25.8834 26.9987 23.648V15.3015C26.9987 14.2094 26.7372 13.384 26.2194 12.8508C25.6965 12.2971 24.8608 12.0203 23.7431 12.0203ZM2.50756 30.9949C2.22558 30.9949 2 30.7693 2 30.4873C2 30.2053 2.22558 29.9797 2.50756 29.9797L27.5114 29.9695C27.7934 29.9695 28.019 30.1951 28.019 30.4771C28.019 30.759 27.7934 30.9846 27.5114 30.9846L2.50756 30.9949Z" fill="#86888C"/>
<path d="M9.30629 30.8923C9.17812 30.8923 9.04995 30.8462 8.95254 30.7488C8.75259 30.554 8.74746 30.231 8.94228 30.031L11.7057 27.1958C11.9005 26.9959 12.2235 26.9908 12.4234 27.1856C12.6234 27.3804 12.6285 27.7034 12.4337 27.9034L9.6703 30.7385C9.56777 30.8411 9.43959 30.8923 9.30629 30.8923ZM20.6572 30.9949C20.5239 30.9949 20.3958 30.9436 20.2932 30.8411L17.5144 28.0213C17.3196 27.8213 17.3196 27.4983 17.5196 27.3035C17.7195 27.1087 18.0425 27.1087 18.2373 27.3086L21.0161 30.1284C21.2109 30.3284 21.2109 30.6514 21.011 30.8462C20.9136 30.9487 20.7854 30.9949 20.6572 30.9949ZM35.597 31H31.4186C30.5162 31 29.0089 30.5642 29.0089 27.6265L29.0038 14.3735C29.0038 11.4409 30.5111 11 31.4134 11H35.5919C36.4993 11 38.022 11.4358 38.022 14.3735L38.0271 27.6265C38.0271 30.5642 36.5044 31 35.597 31ZM31.4134 12.0254C31.0341 12.0254 30.0292 12.0254 30.0292 14.3735L30.0343 27.6265C30.0343 29.9746 31.0392 29.9746 31.4186 29.9746H35.597C35.9456 29.9746 37.0018 29.9746 37.0018 27.6265L36.9915 14.3735C36.9915 12.0254 35.9354 12.0254 35.5867 12.0254H31.4134Z" fill="#86888C"/>
</svg>
