<svg width="20" height="20" viewBox="0 0 20 20" fill="none" xmlns="http://www.w3.org/2000/svg">
<path fill-rule="evenodd" clip-rule="evenodd" d="M16.4426 7.28989L15.7687 7.95925L12.0577 4.28918L12.7452 3.60844C14.4004 1.97375 15.8097 2.99144 16.3402 3.50598C16.4039 3.56973 16.4722 3.64031 16.5292 3.69723C17.0483 4.23681 18.0819 5.66659 16.4426 7.28989ZM2.90298 16.2556L3.77497 17.1185L2.74134 17.3075L2.90298 16.2556ZM5.22979 14.2817L3.59283 12.6607L11.5818 4.75818L13.2188 6.37921L5.22979 14.2817ZM4.57637 16.9705L3.0282 15.436L3.34922 13.3596L6.62087 16.5949L4.57637 16.9705ZM7.32438 16.3535L5.70563 14.753L13.6946 6.85049L15.2952 8.43281L7.32438 16.3535ZM17.0164 3.23733C16.9481 3.16903 16.8821 3.10073 16.8115 3.03242C15.73 1.98058 13.9678 1.45693 12.2671 3.13943L2.87566 12.4285C2.83013 12.474 2.80053 12.5332 2.79142 12.5947C2.78915 12.6015 2.78232 12.606 2.78232 12.6129L2.00368 17.6717C1.98774 17.7788 2.02417 17.8858 2.10158 17.9609C2.18126 18.036 2.29055 18.0679 2.39755 18.0497L7.29023 17.1527C7.30161 17.1527 7.31299 17.1595 7.32438 17.1595C7.41317 17.1595 7.49968 17.1253 7.56343 17.0616C7.56799 17.057 7.57026 17.0502 7.57482 17.0434C7.57709 17.0411 7.58392 17.0411 7.5862 17.0388L16.9208 7.76118C19.0905 5.61195 17.3807 3.61527 17.0164 3.23733Z" fill="#86888C"/>
</svg>
