<svg width="24" height="24" viewBox="0 0 24 24" fill="none" xmlns="http://www.w3.org/2000/svg">
<path fill-rule="evenodd" clip-rule="evenodd" d="M20.0533 8.5987L19.2109 9.43539L14.5721 4.8478L15.4316 3.99687C17.5005 1.95352 19.2621 3.22563 19.9252 3.86881C20.0049 3.94849 20.0903 4.03672 20.1615 4.10786C20.8103 4.78234 22.1024 6.56957 20.0533 8.5987ZM3.12873 19.8059L4.21871 20.8845L2.92667 21.1207L3.12873 19.8059ZM6.03724 17.3385L3.99104 15.3122L13.9773 5.43405L16.0235 7.46034L6.03724 17.3385ZM5.22047 20.6995L3.28525 18.7813L3.68653 16.1859L7.77609 20.2299L5.22047 20.6995ZM8.65547 19.9282L6.63204 17.9276L16.6183 8.04944L18.619 10.0273L8.65547 19.9282ZM20.7705 3.53299C20.6851 3.44761 20.6026 3.36224 20.5143 3.27686C19.1625 1.96205 16.9598 1.3075 14.8339 3.41062L3.09458 15.0219C3.03766 15.0788 3.00066 15.1528 2.98928 15.2296C2.98643 15.2382 2.9779 15.2439 2.9779 15.2524L2.0046 21.576C1.98468 21.7098 2.03021 21.8435 2.12697 21.9374C2.22658 22.0314 2.36318 22.0712 2.49694 22.0484L8.61278 20.9271C8.62701 20.9271 8.64124 20.9357 8.65547 20.9357C8.76646 20.9357 8.87461 20.893 8.95429 20.8133C8.95998 20.8076 8.96283 20.7991 8.96852 20.7905C8.97137 20.7877 8.9799 20.7877 8.98275 20.7848L20.6509 9.1878C23.3631 6.50127 21.2258 4.00541 20.7705 3.53299Z" fill="#86888C"/>
</svg>
