<svg width="20" height="20" viewBox="0 0 20 20" fill="none" xmlns="http://www.w3.org/2000/svg">
<path fill-rule="evenodd" clip-rule="evenodd" d="M6.24219 10.0061C6.63732 10.0061 6.89195 10.2168 6.89195 10.6712C6.89195 10.8907 6.83268 11.051 6.72732 11.1607C6.61317 11.2793 6.44634 11.3363 6.24 11.3363C6.03585 11.3363 5.86683 11.2793 5.75488 11.1607C5.64951 11.051 5.59024 10.8885 5.59024 10.6712C5.59024 10.2168 5.84927 10.0061 6.24219 10.0061ZM17.7841 12.3307V8.63195C17.7776 8.30488 17.5295 8.03049 17.2222 8.00634H15.8415V12.9585H17.1871C17.5163 12.9585 17.7841 12.6776 17.7841 12.3307ZM15.2071 13.4524V13.29H15.1961V7.54537C15.1961 7.05805 14.8185 6.66512 14.3532 6.66512H7.10707C4.81317 6.73976 3.64317 8.02829 3.64317 10.4934C3.64317 12.9563 4.81098 14.2493 7.11805 14.3349H14.3641C14.8295 14.3349 15.2071 13.9398 15.2071 13.4524ZM17.1761 7.33902C17.8522 7.33902 18.4141 7.91415 18.4273 8.62537V12.3307C18.4273 13.042 17.8698 13.6237 17.1871 13.6237H15.8437C15.7624 14.3963 15.1302 15 14.3641 15H7.10707C4.45537 14.9012 3 13.301 3 10.4934C3 7.68146 4.45537 6.08561 7.09829 6H14.3554C15.1083 6 15.7317 6.5839 15.8283 7.34122H16.5746L16.5724 7.33902H17.1761Z" fill="#86888C"/>
</svg>
