<svg width="28" height="28" viewBox="0 0 28 28" fill="none" xmlns="http://www.w3.org/2000/svg">
<path fill-rule="evenodd" clip-rule="evenodd" d="M7.04341 14.2317C7.65805 14.2317 8.05415 14.5595 8.05415 15.2663C8.05415 15.6078 7.96195 15.8571 7.79805 16.0278C7.62049 16.2122 7.36098 16.301 7.04 16.301C6.72244 16.301 6.45951 16.2122 6.28537 16.0278C6.12146 15.8571 6.02927 15.6044 6.02927 15.2663C6.02927 14.5595 6.43219 14.2317 7.04341 14.2317ZM24.9976 17.8478V12.0941C24.9873 11.5854 24.6015 11.1585 24.1234 11.121H21.9756V18.8244H24.0688C24.581 18.8244 24.9976 18.3873 24.9976 17.8478ZM20.9888 19.5927V19.34H20.9717V10.4039C20.9717 9.64585 20.3844 9.03463 19.6605 9.03463H8.38878C4.82049 9.15073 3.00049 11.1551 3.00049 14.9898C3.00049 18.821 4.81707 20.8322 8.40585 20.9654H19.6776C20.4015 20.9654 20.9888 20.3507 20.9888 19.5927ZM24.0517 10.0829C25.1034 10.0829 25.9776 10.9776 25.998 12.0839V17.8478C25.998 18.9541 25.1307 19.859 24.0688 19.859H21.979C21.8527 21.061 20.8693 22 19.6776 22H8.38878C4.2639 21.8463 2 19.3571 2 14.9898C2 10.6156 4.2639 8.13317 8.37512 8H19.6639C20.8351 8 21.8049 8.90829 21.9551 10.0863H23.1161L23.1127 10.0829H24.0517Z" fill="#86888C"/>
</svg>
