<svg width="24" height="24" viewBox="0 0 24 24" fill="none" xmlns="http://www.w3.org/2000/svg">
<path fill-rule="evenodd" clip-rule="evenodd" d="M11.278 3.19824C11.0219 3.44585 10.8909 3.83862 10.8909 4.36516C10.8909 5.40401 11.3776 5.89071 12.4222 5.89071C13.4724 5.89071 13.962 5.40686 13.962 4.36516C13.962 3.84147 13.831 3.44585 13.572 3.19824C13.3216 2.95631 12.9345 2.83677 12.4222 2.83677C11.9127 2.83677 11.5256 2.95631 11.278 3.19824ZM12.4222 6.72463C10.9137 6.72463 10.0485 5.86509 10.0485 4.36516C10.0485 3.60524 10.2648 3.01039 10.6917 2.59769C11.1044 2.19923 11.685 2 12.4222 2C13.1593 2 13.7428 2.20208 14.1555 2.59485C14.5853 3.00754 14.8016 3.60239 14.8016 4.36516C14.8016 5.86509 13.9335 6.72463 12.4222 6.72463ZM16.9447 14.5857C17.0074 14.4577 17.0187 14.3125 16.9732 14.1787L15.3651 9.62772C15.0862 8.85641 14.3519 8.34126 13.5322 8.34126H11.3179C10.5437 8.34126 9.84071 8.80233 9.53332 9.51672C9.51624 9.55088 9.50201 9.58503 9.48778 9.61918L7.87685 14.1816C7.78293 14.4548 7.92808 14.7508 8.20132 14.8476C8.33509 14.896 8.47739 14.8903 8.60263 14.8305C8.7307 14.7707 8.83032 14.6626 8.8787 14.5288L9.71548 12.0441C9.80086 11.8278 10.0428 11.7197 10.2591 11.805C10.4583 11.8819 10.5665 12.0953 10.5152 12.3031L10.1339 13.4871L9.36824 16.3276H9.86632C10.0969 16.3276 10.2847 16.5154 10.2876 16.7431L10.3075 20.6367C10.3075 20.9327 10.5437 21.1689 10.834 21.1689C11.1272 21.1689 11.3634 20.9298 11.3606 20.6367L11.3406 16.746C11.3406 16.5154 11.5256 16.3276 11.7562 16.3247H13.091C13.3216 16.3247 13.5094 16.5126 13.5123 16.7431L13.4952 20.6367C13.4952 20.9298 13.7314 21.1689 14.0217 21.1689C14.3149 21.1661 14.5511 20.9298 14.5483 20.6367L14.5682 16.7431C14.571 16.5126 14.7589 16.3276 14.9894 16.3276H15.4903L14.7133 13.47L14.3348 12.3003C14.2636 12.0811 14.386 11.8449 14.6052 11.7766C14.8243 11.7054 15.0606 11.825 15.1346 12.0441L15.9742 14.5317C16.0738 14.802 16.3698 14.9415 16.643 14.8476C16.774 14.8049 16.8821 14.711 16.9447 14.5857ZM17.7673 13.9027C17.8868 14.2556 17.8612 14.6256 17.6961 14.9557C17.5339 15.2802 17.2578 15.5221 16.9163 15.636C16.68 15.7214 16.4239 15.7384 16.1791 15.6815L16.4353 16.6321C16.495 16.8541 16.3641 17.0847 16.1421 17.1444C16.1051 17.1558 16.0681 17.1587 16.0283 17.1587H15.3964L15.3793 20.6338C15.3793 21.3852 14.7646 22 14.0103 22C13.2561 22 12.6413 21.3852 12.6413 20.631L12.6584 17.1558H12.1717L12.1888 20.6281C12.1888 21.3852 11.5769 22 10.8226 22C10.0684 22 9.45648 21.3852 9.45648 20.631L9.4394 17.1558H8.80755C8.57416 17.1558 8.38916 16.9651 8.38916 16.7346C8.38916 16.6976 8.39486 16.6634 8.40339 16.6293L8.65955 15.6787C8.41193 15.7327 8.15578 15.7157 7.9167 15.6303C7.57801 15.5164 7.30193 15.2717 7.14539 14.9529C6.98031 14.6284 6.9547 14.247 7.07424 13.9027L8.68516 9.34595C8.70509 9.28618 8.72786 9.22926 8.76201 9.16095C9.20601 8.15056 10.205 7.49879 11.3093 7.50164H13.5236C14.6365 7.50164 15.6412 8.1591 16.0795 9.18087C16.1051 9.22641 16.1279 9.28618 16.1507 9.35734L17.7673 13.9027Z" fill="#86888C"/>
</svg>
