<svg width="28" height="28" viewBox="0 0 28 28" fill="none" xmlns="http://www.w3.org/2000/svg">
<path fill-rule="evenodd" clip-rule="evenodd" d="M11.1336 3.43788C10.8262 3.73502 10.6691 4.20635 10.6691 4.8382C10.6691 6.08482 11.2532 6.66885 12.5066 6.66885C13.7669 6.66885 14.3543 6.08823 14.3543 4.8382C14.3543 4.20976 14.1972 3.73502 13.8864 3.43788C13.5859 3.14757 13.1214 3.00413 12.5066 3.00413C11.8953 3.00413 11.4308 3.14757 11.1336 3.43788ZM12.5066 7.66956C10.6965 7.66956 9.65817 6.63811 9.65817 4.8382C9.65817 3.92628 9.91774 3.21247 10.4301 2.71723C10.9253 2.23908 11.622 2 12.5066 2C13.3912 2 14.0914 2.24249 14.5866 2.71382C15.1023 3.20905 15.3619 3.92287 15.3619 4.8382C15.3619 6.63811 14.3202 7.66956 12.5066 7.66956ZM17.9337 17.1029C18.0088 16.9492 18.0225 16.775 17.9678 16.6145L16.0381 11.1533C15.7034 10.2277 14.8223 9.60951 13.8386 9.60951H11.1814C10.2525 9.60951 9.40885 10.1628 9.03999 11.0201C9.01949 11.061 9.00242 11.102 8.98534 11.143L7.05222 16.6179C6.93952 16.9458 7.1137 17.301 7.44158 17.4171C7.6021 17.4752 7.77287 17.4683 7.92315 17.3966C8.07684 17.3249 8.19638 17.1951 8.25444 17.0346L9.25857 14.0529C9.36103 13.7934 9.65134 13.6636 9.91091 13.766C10.15 13.8583 10.2798 14.1144 10.2183 14.3637L9.76063 15.7845L8.84189 19.1931H9.43959C9.71623 19.1931 9.94165 19.4185 9.94507 19.6918L9.96897 24.364C9.96897 24.7192 10.2525 25.0027 10.6008 25.0027C10.9526 25.0027 11.2361 24.7158 11.2327 24.364L11.2088 19.6952C11.2088 19.4185 11.4308 19.1931 11.7074 19.1897H13.3092C13.5859 19.1897 13.8113 19.4151 13.8147 19.6918L13.7942 24.364C13.7942 24.7158 14.0777 25.0027 14.4261 25.0027C14.7779 24.9993 15.0613 24.7158 15.0579 24.364L15.0818 19.6918C15.0852 19.4151 15.3107 19.1931 15.5873 19.1931H16.1884L15.256 15.7641L14.8018 14.3603C14.7164 14.0973 14.8632 13.8139 15.1262 13.7319C15.3892 13.6465 15.6727 13.79 15.7615 14.0529L16.769 17.038C16.8886 17.3625 17.2438 17.5298 17.5716 17.4171C17.7288 17.3659 17.8585 17.2532 17.9337 17.1029ZM18.9207 16.2832C19.0642 16.7067 19.0334 17.1507 18.8353 17.5469C18.6407 17.9362 18.3094 18.2266 17.8995 18.3632C17.616 18.4656 17.3087 18.4861 17.0149 18.4178L17.3223 19.5586C17.394 19.825 17.2369 20.1016 16.9705 20.1733C16.9261 20.187 16.8817 20.1904 16.8339 20.1904H16.0757L16.0552 24.3606C16.0552 25.2623 15.3175 26 14.4124 26C13.5073 26 12.7696 25.2623 12.7696 24.3572L12.7901 20.187H12.2061L12.2266 24.3538C12.2266 25.2623 11.4922 26 10.5872 26C9.68208 26 8.94777 25.2623 8.94777 24.3572L8.92728 20.187H8.16906C7.889 20.187 7.667 19.9582 7.667 19.6815C7.667 19.6371 7.67383 19.5961 7.68407 19.5551L7.99146 18.4144C7.69432 18.4793 7.38693 18.4588 7.10004 18.3563C6.69361 18.2197 6.36231 17.926 6.17447 17.5435C5.97637 17.1541 5.94564 16.6965 6.08908 16.2832L8.0222 10.8151C8.04611 10.7434 8.07343 10.6751 8.11441 10.5931C8.64722 9.38067 9.84602 8.59855 11.1712 8.60196H13.8284C15.1638 8.60196 16.3694 9.39092 16.8954 10.617C16.9261 10.6717 16.9535 10.7434 16.9808 10.8288L18.9207 16.2832Z" fill="#86888C"/>
</svg>
