<svg width="40" height="40" viewBox="0 0 40 40" fill="none" xmlns="http://www.w3.org/2000/svg">
<path fill-rule="evenodd" clip-rule="evenodd" d="M16.0441 8.87134C15.0748 9.81977 14.5849 11.2997 14.5849 13.2695C14.5849 15.2341 15.0748 16.7141 16.0441 17.6573C16.9769 18.5745 18.3995 19.0383 20.2651 19.0383C22.1307 19.0383 23.5533 18.5745 24.4965 17.6573C25.471 16.7089 25.9609 15.2341 25.9609 13.2695C25.9609 11.3049 25.471 9.82498 24.4965 8.87134C23.5533 7.94897 22.1307 7.48518 20.2703 7.48518C18.3995 7.48518 16.9769 7.94897 16.0441 8.87134ZM20.2651 20.5182C18.0087 20.5182 16.2473 19.9137 15.0331 18.7256C13.772 17.4906 13.131 15.6562 13.131 13.2695C13.131 10.8881 13.772 9.04331 15.0331 7.80827C16.2525 6.6097 18.0139 6 20.2651 6C22.5163 6 24.2829 6.6097 25.5075 7.80306C26.779 9.04331 27.4252 10.8828 27.4252 13.2695C27.4252 15.6562 26.779 17.4906 25.5075 18.7256C24.2829 19.919 22.5215 20.5182 20.2651 20.5182ZM7.7844 18.069C7.39357 18.4494 7.19555 19.0904 7.19555 19.9659C7.19555 20.8413 7.39357 21.4771 7.77919 21.8575C8.1544 22.2275 8.76931 22.4151 9.59788 22.4151C10.4317 22.4151 11.0466 22.2275 11.427 21.8575C11.8178 21.4771 12.0159 20.8413 12.0159 19.9711C12.0159 19.0956 11.8178 18.4598 11.427 18.0794C11.0466 17.7094 10.4317 17.5166 9.59788 17.5166C8.77452 17.5114 8.16482 17.699 7.7844 18.069ZM9.60309 23.8951C8.38369 23.8951 7.43005 23.5668 6.76823 22.9258C6.08557 22.2535 5.73643 21.2582 5.73643 19.9659C5.73643 18.6735 6.08557 17.6782 6.76823 17.0059C7.43005 16.3597 8.38369 16.0262 9.60309 16.0262C10.8277 16.0262 11.7813 16.3545 12.4432 17.0007C13.131 17.673 13.4802 18.6735 13.4802 19.9606C13.4802 21.253 13.131 22.2483 12.4432 22.9206C11.7866 23.5668 10.8277 23.8951 9.60309 23.8951ZM29.197 18.0429C28.8061 18.4234 28.6081 19.0643 28.6081 19.9398C28.6081 20.8101 28.8061 21.4458 29.197 21.8262C29.5774 22.1962 30.1923 22.3838 31.0261 22.3838C31.8599 22.3838 32.4696 22.1962 32.85 21.8262C33.2356 21.4458 33.4336 20.8101 33.4336 19.9398C33.4336 19.0643 33.2356 18.4286 32.8448 18.0429C32.4696 17.673 31.8547 17.4854 31.0261 17.4854C30.1923 17.4854 29.5774 17.673 29.197 18.0429ZM28.186 22.8997C27.4982 22.2275 27.149 21.2322 27.149 19.9398C27.149 18.6474 27.4982 17.6521 28.186 16.9799C28.8478 16.3285 29.8015 16.0002 31.0261 16.0002C32.2507 16.0002 33.2043 16.3285 33.8662 16.9747C34.5488 17.6469 34.898 18.6474 34.898 19.9398C34.898 21.227 34.554 22.2223 33.8662 22.8945C33.2043 23.5407 32.2507 23.8638 31.0261 23.8638C29.8015 23.869 28.8478 23.5407 28.186 22.8997ZM37.1648 30.977V29.9556C37.1648 28.903 36.8574 28.0119 36.2581 27.3865C35.6015 26.6882 34.6061 26.3339 33.3815 26.3339H31.1355C32.183 27.5481 32.7979 29.1375 32.9334 30.977H37.1648ZM31.5003 33.5096V31.7587C31.5003 29.8462 30.9323 28.2307 29.8536 27.0843C28.6707 25.8388 26.8572 25.1718 24.6112 25.1718H15.9086C13.6626 25.1718 11.8647 25.8388 10.6818 27.0843C9.60309 28.2255 9.03508 29.841 9.03508 31.7587V33.5096H31.5003ZM7.60723 31.0083C7.7375 29.1687 8.342 27.5793 9.38944 26.3651H7.24245C6.01783 26.3651 5.0225 26.7247 4.3659 27.4178C3.78225 28.0379 3.45916 28.929 3.45916 29.9817V31.0083H7.60723ZM37.3107 26.3651C38.1706 27.2719 38.6239 28.5173 38.6239 29.9556V31.274C38.6291 31.9254 38.108 32.4518 37.4566 32.4622H32.9594V34.1819C32.9594 34.6352 32.5946 35 32.1413 35H8.39411C7.94595 35 7.58117 34.6352 7.57596 34.1819V32.4882H3.18297C2.52636 32.483 1.99483 31.9515 2.00004 31.2949V29.9817C2.00004 28.5434 2.45341 27.2979 3.31325 26.3756C4.25125 25.4011 5.60615 24.88 7.24245 24.88H11.1404C12.438 24.0931 14.0586 23.6918 15.9138 23.6918H24.6164C26.4559 23.6918 28.061 24.0774 29.3585 24.8487H33.3867C35.0178 24.8539 36.3727 25.3698 37.3107 26.3651Z" fill="#86888C"/>
</svg>
