<svg width="40" height="40" viewBox="0 0 40 40" fill="none" xmlns="http://www.w3.org/2000/svg">
<path fill-rule="evenodd" clip-rule="evenodd" d="M15.5598 8.77233C14.6239 9.68805 14.151 11.117 14.151 13.0189C14.151 14.9157 14.6239 16.3447 15.5598 17.2553C16.4604 18.1409 17.834 18.5887 19.6353 18.5887C21.4365 18.5887 22.8101 18.1409 23.7208 17.2553C24.6617 16.3396 25.1346 14.9157 25.1346 13.0189C25.1346 11.122 24.6617 9.69308 23.7208 8.77233C22.8101 7.88176 21.4365 7.43396 19.6403 7.43396C17.834 7.43396 16.4604 7.88176 15.5598 8.77233ZM19.6353 20.0176C17.4566 20.0176 15.756 19.434 14.5837 18.2868C13.3661 17.0943 12.7472 15.3233 12.7472 13.0189C12.7472 10.7195 13.3661 8.93836 14.5837 7.74591C15.761 6.58868 17.4617 6 19.6353 6C21.8088 6 23.5145 6.58868 24.6969 7.74088C25.9246 8.93836 26.5485 10.7145 26.5485 13.0189C26.5485 15.3233 25.9246 17.0943 24.6969 18.2868C23.5145 19.439 21.8139 20.0176 19.6353 20.0176ZM7.58494 17.6528C7.20758 18.0201 7.01639 18.639 7.01639 19.4843C7.01639 20.3296 7.20758 20.9434 7.57991 21.3107C7.94218 21.6679 8.53589 21.8491 9.33589 21.8491C10.1409 21.8491 10.7346 21.6679 11.1019 21.3107C11.4793 20.9434 11.6705 20.3296 11.6705 19.4893C11.6705 18.644 11.4793 18.0302 11.1019 17.6629C10.7346 17.3057 10.1409 17.1195 9.33589 17.1195C8.54092 17.1145 7.95224 17.2956 7.58494 17.6528ZM9.34092 23.278C8.16356 23.278 7.2428 22.961 6.60381 22.3421C5.94469 21.6931 5.60758 20.7321 5.60758 19.4843C5.60758 18.2365 5.94469 17.2755 6.60381 16.6264C7.2428 16.0025 8.16356 15.6805 9.34092 15.6805C10.5233 15.6805 11.4441 15.9975 12.0831 16.6214C12.7472 17.2704 13.0843 18.2365 13.0843 19.4792C13.0843 20.727 12.7472 21.6881 12.0831 22.3371C11.4491 22.961 10.5233 23.278 9.34092 23.278ZM28.2592 17.6277C27.8818 17.995 27.6906 18.6138 27.6906 19.4591C27.6906 20.2994 27.8818 20.9132 28.2592 21.2805C28.6265 21.6377 29.2202 21.8189 30.0252 21.8189C30.8302 21.8189 31.4189 21.6377 31.7862 21.2805C32.1585 20.9132 32.3497 20.2994 32.3497 19.4591C32.3497 18.6138 32.1585 18 31.7812 17.6277C31.4189 17.2704 30.8252 17.0893 30.0252 17.0893C29.2202 17.0893 28.6265 17.2704 28.2592 17.6277ZM27.2831 22.317C26.6189 21.6679 26.2818 20.7069 26.2818 19.4591C26.2818 18.2113 26.6189 17.2503 27.2831 16.6013C27.9221 15.9723 28.8428 15.6553 30.0252 15.6553C31.2076 15.6553 32.1283 15.9723 32.7673 16.5962C33.4265 17.2453 33.7636 18.2113 33.7636 19.4591C33.7636 20.7019 33.4315 21.6629 32.7673 22.312C32.1283 22.9358 31.2076 23.2478 30.0252 23.2478C28.8428 23.2528 27.9221 22.9358 27.2831 22.317ZM35.9522 30.1157V29.1296C35.9522 28.1132 35.6554 27.2528 35.0768 26.6491C34.4428 25.9748 33.4818 25.6327 32.2994 25.6327H30.1309C31.1422 26.805 31.7359 28.3396 31.8667 30.1157H35.9522ZM30.4831 32.561V30.8704C30.4831 29.0239 29.9346 27.4641 28.8931 26.3572C27.751 25.1547 26 24.5107 23.8315 24.5107H15.429C13.2604 24.5107 11.5246 25.1547 10.3824 26.3572C9.34092 27.4591 8.79249 29.0189 8.79249 30.8704V32.561H30.4831ZM7.41387 30.1459C7.53966 28.3698 8.12331 26.8352 9.13463 25.6629H7.06167C5.87928 25.6629 4.91828 26.0101 4.28431 26.6792C3.72079 27.278 3.40884 28.1384 3.40884 29.1547V30.1459H7.41387ZM36.0931 25.6629C36.9233 26.5384 37.361 27.7409 37.361 29.1296V30.4025C37.3661 31.0314 36.8629 31.5396 36.234 31.5497H31.8919V33.2101C31.8919 33.6478 31.5397 34 31.1019 34H8.17362C7.74092 34 7.38872 33.6478 7.38368 33.2101V31.5748H3.14218C2.50821 31.5698 1.99501 31.0566 2.00004 30.4226V29.1547C2.00004 27.766 2.43777 26.5635 3.26796 25.673C4.17362 24.7321 5.4818 24.2289 7.06167 24.2289H10.8252C12.078 23.4692 13.6428 23.0818 15.434 23.0818H23.8365C25.6126 23.0818 27.1623 23.4541 28.4151 24.1987H32.3044C33.8793 24.2038 35.1875 24.7019 36.0931 25.6629Z" fill="#86888C"/>
</svg>
