<svg width="24" height="24" viewBox="0 0 24 24" fill="none" xmlns="http://www.w3.org/2000/svg">
<path fill-rule="evenodd" clip-rule="evenodd" d="M10.9773 3.19505C10.7127 3.4426 10.5818 3.83525 10.5818 4.36449C10.5818 5.40304 11.0797 5.8896 12.1496 5.8896C13.2223 5.8896 13.723 5.40589 13.723 4.36449C13.723 3.8381 13.5893 3.44544 13.3247 3.19789C13.0686 2.95604 12.6759 2.83369 12.1524 2.83369C11.626 2.83369 11.2334 2.95604 10.9773 3.19505ZM12.1496 6.72044C10.6102 6.72044 9.72532 5.86115 9.72532 4.36449C9.72532 3.60193 9.94725 3.00726 10.3826 2.59752C10.8009 2.20202 11.3955 2 12.1496 2C12.9007 2 13.4954 2.20202 13.9165 2.59752C14.3547 3.00726 14.5766 3.60193 14.5766 4.36449C14.5766 5.86115 13.6917 6.72044 12.1496 6.72044ZM16.5627 15.0374C16.8472 14.9663 17.0208 14.6789 16.9525 14.3944C16.9525 14.3915 16.9525 14.3887 16.9497 14.3858L15.7347 10.0296C15.7176 9.9926 15.7034 9.95277 15.692 9.91293C15.6863 9.89301 15.6806 9.8731 15.675 9.85603C15.4928 8.97681 14.6848 8.33945 13.7572 8.33945H11.0513C10.1265 8.33945 9.31843 8.97681 9.13348 9.85603C9.13064 9.87025 9.12495 9.88163 9.1221 9.89301C9.11641 9.92431 9.10503 9.95561 9.08796 9.98691L7.85876 14.3915C7.78478 14.6732 7.9555 14.9634 8.23719 15.0374H8.24289C8.38231 15.0773 8.53027 15.0602 8.65546 14.9862C8.77781 14.9208 8.86886 14.8069 8.90585 14.6732L9.44647 11.7624C9.48631 11.549 9.6741 11.4096 9.90742 11.421C10.1265 11.438 10.2944 11.6173 10.2972 11.8364V20.6285C10.2972 20.9216 10.5391 21.1635 10.835 21.1635C11.1309 21.1635 11.3728 20.9245 11.3756 20.6285V15.3902C11.3756 15.1598 11.5663 14.9748 11.8024 14.9748H13.0089C13.245 14.9748 13.4385 15.1626 13.4385 15.3902V20.6314C13.4385 20.9273 13.6804 21.1663 13.9791 21.1663C14.275 21.1663 14.5169 20.9273 14.5169 20.6314V11.8392C14.5169 11.623 14.6876 11.4437 14.9067 11.4238C15.1372 11.4153 15.325 11.5519 15.3648 11.7653L15.9111 14.7045C15.9396 14.8041 16.0306 14.9151 16.1558 14.9862C16.2782 15.0573 16.4261 15.0744 16.5627 15.0374ZM17.7777 14.1696C17.9712 14.898 17.5358 15.6463 16.8074 15.837C16.8017 15.837 16.7989 15.8398 16.7932 15.8398C16.2782 15.9792 15.729 15.8199 15.3705 15.4244V20.6285C15.3705 21.3826 14.7445 21.9972 13.9763 21.9972C13.2052 21.9972 12.5821 21.3826 12.5821 20.6285V15.8057H12.2406V20.6314C12.2406 21.3854 11.6146 22 10.8464 22C10.0781 22 9.45216 21.3854 9.45216 20.6314V15.4244C9.09365 15.8227 8.54165 15.9821 8.02664 15.8398C7.29823 15.6549 6.8572 14.9151 7.04215 14.1838C7.04215 14.181 7.04499 14.1781 7.04499 14.1753L8.2628 9.81334C8.27418 9.76497 8.29126 9.7166 8.31117 9.67108C8.58433 8.41343 9.73954 7.50576 11.0626 7.50576H13.7686C15.0917 7.50576 16.244 8.41343 16.5172 9.66539C16.5428 9.72514 16.5627 9.78205 16.5741 9.83895L17.7777 14.1696Z" fill="#86888C"/>
</svg>
