<svg width="40" height="40" viewBox="0 0 40 40" fill="none" xmlns="http://www.w3.org/2000/svg">
<path fill-rule="evenodd" clip-rule="evenodd" d="M19.8985 12.224C19.4835 12.2189 19.1455 11.891 19.1506 11.4863L19.1762 6.72741C19.1813 6.32273 19.5143 6 19.9292 6H19.9343C20.3493 6.00512 20.6874 6.32785 20.6822 6.73766L20.6566 11.4966C20.6515 11.8962 20.3134 12.224 19.8985 12.224ZM15.2625 13.4329L13.1417 11.3429C12.8497 11.056 12.8497 10.5899 13.1468 10.303C13.444 10.0161 13.9204 10.0213 14.2124 10.3081L16.3331 12.3982C16.6251 12.685 16.62 13.1512 16.328 13.4381C16.1794 13.5764 15.9899 13.6481 15.8004 13.6481C15.6057 13.6481 15.4111 13.5764 15.2625 13.4329ZM24.0222 13.6481C23.8327 13.6481 23.638 13.5764 23.4946 13.4329C23.1975 13.1512 23.1975 12.685 23.4894 12.393L25.6102 10.3081C25.9022 10.0161 26.3786 10.0161 26.6757 10.303C26.9728 10.5848 26.9728 11.0509 26.6808 11.3429L24.5601 13.4329C24.4115 13.5764 24.2169 13.6481 24.0222 13.6481ZM7.43511 16.9932C6.99457 17.4081 6.77429 18.0843 6.77429 19.0115C6.77429 19.9387 6.99457 20.6149 7.42999 21.0247C7.85517 21.4242 8.5416 21.624 9.4688 21.624C10.396 21.624 11.0876 21.4242 11.5179 21.0196C11.9584 20.6149 12.1787 19.9387 12.1787 19.0115C12.1787 18.0843 11.9533 17.403 11.5179 16.9932C11.0876 16.5936 10.4011 16.3836 9.47392 16.3836C8.54672 16.3887 7.86029 16.5936 7.43511 16.9932ZM9.47392 23.0942C8.14204 23.0942 7.10726 22.7561 6.3901 22.0851C5.64731 21.3884 5.26824 20.3587 5.26824 19.0166C5.26824 17.6745 5.64731 16.6397 6.3901 15.9379C7.10726 15.2668 8.14204 14.9236 9.47392 14.9236C10.8007 14.9236 11.8406 15.2668 12.5629 15.9379C13.3108 16.6397 13.6898 17.6745 13.6898 19.0166C13.6898 20.3587 13.3108 21.3884 12.5629 22.0902C11.8406 22.7561 10.8007 23.0942 9.47392 23.0942ZM36.4138 37.5349L36.4958 29.4258C36.4958 28.514 36.2243 27.7558 35.712 27.2333C34.9949 26.5059 33.8935 26.3522 33.0995 26.3522H26.5886C26.2915 26.3522 25.8254 26.2395 25.6153 26.1012C25.3336 25.9168 25.0467 25.5019 25.0467 25.5019L20.754 19.8772V25.2048L23.0335 28.1195V27.3306C23.0335 26.926 23.3716 26.5981 23.7866 26.5981C24.2015 26.5981 24.5396 26.926 24.5396 27.3306V30.271C24.5396 30.2864 24.5498 30.2966 24.5498 30.3171V30.5323C24.5498 30.6552 24.555 30.7782 24.555 30.9114L24.5447 31.7976V33.1192H24.5293L24.473 37.5349H31.8854V31.7515C31.8854 31.3468 32.2235 31.0189 32.6385 31.0189C33.0534 31.0189 33.3915 31.3468 33.3915 31.7515V37.5298H36.4138V37.5349ZM19.2428 24.9691V19.8772L14.95 25.5019C14.95 25.5019 14.6631 25.9168 14.3814 26.1012C14.1714 26.2395 13.7001 26.3522 13.4081 26.3522H6.90748C6.11347 26.3522 5.01211 26.5059 4.29494 27.2333C3.78268 27.7558 3.51118 28.514 3.51118 29.4258L3.59314 37.5349H6.62061V31.7566C6.62061 31.3519 6.95871 31.0241 7.37364 31.0241C7.78857 31.0241 8.12667 31.3519 8.12667 31.7566V37.5349H15.534L15.4828 33.1192H15.4674V31.7925L15.4572 30.9114C15.4572 30.7833 15.4623 30.6604 15.4623 30.5374V30.3223C15.4623 30.3069 15.4674 30.2915 15.4674 30.2762V27.3358C15.4674 26.9311 15.8055 26.6032 16.2204 26.6032C16.6354 26.6032 16.9735 26.9311 16.9735 27.3358V28.1247L19.253 25.2099V24.9691H19.2428ZM36.7929 26.219C37.5818 27.0182 38.0019 28.1247 38.0019 29.4258L37.9097 38.5338C37.9097 38.79 37.6996 39 37.4333 39H23.4331C23.1718 39 22.9567 38.79 22.9567 38.5338L23.0387 31.8027V30.5374L20.0009 26.6545L16.9683 30.5323V31.7925L17.0503 38.5287C17.0503 38.7848 16.8351 38.9949 16.5739 38.9949H2.56861C2.30736 38.9949 2.08708 38.7848 2.08708 38.5287L2 29.4207C2 28.1195 2.41493 27.013 3.20382 26.2139C4.06442 25.3431 5.34508 24.882 6.90236 24.882H12.0352C12.5373 24.882 13.0239 24.8462 13.4491 24.6361C13.7103 24.5081 14.2328 23.9804 14.2328 23.9804L19.3862 17.2288L19.3913 17.2186C19.4272 17.1725 19.4682 17.1366 19.5092 17.1007C19.5809 17.0393 19.6577 16.9932 19.755 16.9573C19.7602 16.9573 19.796 16.9419 19.8011 16.9419C19.8524 16.9266 19.9292 16.9266 20.0112 16.9266C20.0829 16.9266 20.1597 16.9368 20.2263 16.9573L20.2468 16.9624C20.2468 16.9624 20.3954 17.0188 20.4517 17.07C20.5081 17.111 20.5593 17.1571 20.6003 17.2083L20.6054 17.2186C20.6105 17.2237 20.6105 17.2237 20.6156 17.2237L20.6208 17.2339V17.2391L25.769 23.9856C25.769 23.9856 26.2966 24.5132 26.5528 24.6413C26.978 24.8513 27.4697 24.8871 27.9666 24.8871H33.0944C34.6568 24.8871 35.9374 25.3482 36.7929 26.219ZM28.484 17.0034C28.0435 17.4183 27.8181 18.0945 27.8181 19.0217C27.8181 19.9438 28.0435 20.6251 28.4789 21.0298C28.9092 21.4294 29.5956 21.6292 30.5279 21.6292C31.4603 21.6292 32.1416 21.4294 32.5667 21.0298C33.0022 20.62 33.2224 19.9438 33.2224 19.0166C33.2224 18.0894 33.0022 17.4081 32.5616 16.9983C32.1364 16.5987 31.45 16.3938 30.5228 16.3938C29.6007 16.3938 28.9143 16.5987 28.484 17.0034ZM27.4441 22.0902C26.6962 21.3935 26.312 20.3587 26.312 19.0166C26.312 17.6745 26.6911 16.6397 27.4441 15.9379C28.1613 15.2668 29.2012 14.9236 30.5279 14.9236C31.8547 14.9236 32.8946 15.2617 33.6118 15.9379C34.3545 16.6346 34.7336 17.6694 34.7336 19.0115C34.7336 20.3536 34.3545 21.3884 33.6118 22.0851C32.8946 22.7561 31.8598 23.0942 30.5279 23.0942C29.2012 23.0993 28.1613 22.7613 27.4441 22.0902Z" fill="#86888C"/>
</svg>
