<svg width="40" height="40" viewBox="0 0 40 40" fill="none" xmlns="http://www.w3.org/2000/svg">
<path d="M35.4904 38H4.51246C4.2306 38 4 37.7694 4 37.4875V33.4904C4 30.759 4.85068 28.4325 6.45466 26.7619C8.20726 24.9478 10.8259 23.9843 14.0236 23.9843H25.9792C29.1769 23.9843 31.7956 24.9478 33.5482 26.767C35.1573 28.4376 36.0028 30.7641 36.0028 33.4955V37.4927C36.0028 37.7694 35.7722 38 35.4904 38ZM5.02491 36.9751H34.9779V33.4904C34.9779 31.0306 34.2297 28.95 32.8102 27.4742C31.2319 25.8394 28.9361 25.0093 25.9792 25.0093H14.0236C11.0668 25.0093 8.77096 25.8394 7.1926 27.4742C5.7731 28.95 5.02491 31.0255 5.02491 33.4904V36.9751ZM19.9989 20.0128C14.1159 20.0128 11.0053 16.9022 11.0053 11.0192C11.0053 8.0316 11.8047 5.74605 13.3831 4.21893C14.9051 2.74818 17.1291 2 19.9989 2C22.8686 2 25.0978 2.74818 26.63 4.21893C28.2186 5.74605 29.0181 8.03673 29.0181 11.0192C29.0181 16.9022 25.9023 20.0128 19.9989 20.0128ZM19.9989 3.02491C17.4058 3.02491 15.4175 3.67573 14.0954 4.95687C12.7271 6.28413 12.0302 8.3237 12.0302 11.0192C12.0302 13.7147 12.7271 15.7492 14.0954 17.0662C15.4175 18.3422 17.4058 18.9828 19.9989 18.9828C22.5919 18.9828 24.5905 18.3371 25.9177 17.0611C27.2962 15.7389 27.9932 13.7045 27.9932 11.0141C27.9932 8.3237 27.2962 6.279 25.9177 4.95174C24.5853 3.67573 22.597 3.02491 19.9989 3.02491Z" fill="#86888C"/>
</svg>
