<svg width="24" height="24" viewBox="0 0 24 24" fill="none" xmlns="http://www.w3.org/2000/svg">
<path fill-rule="evenodd" clip-rule="evenodd" d="M11.7628 7.39491C11.5365 7.39211 11.3521 7.21329 11.3549 6.99255L11.3688 4.39677C11.3716 4.17603 11.5532 4 11.7796 4H11.7824C12.0087 4.00279 12.1931 4.17883 12.1903 4.40236L12.1763 6.99814C12.1735 7.21608 11.9891 7.39491 11.7628 7.39491ZM9.23409 8.05433L8.07731 6.91431C7.91804 6.75784 7.91804 6.50357 8.0801 6.3471C8.24216 6.19062 8.50202 6.19342 8.66128 6.34989L9.81807 7.48991C9.97734 7.64638 9.97454 7.90065 9.81528 8.05713C9.73424 8.13257 9.63086 8.17169 9.52748 8.17169C9.4213 8.17169 9.31512 8.13257 9.23409 8.05433ZM14.0121 8.17169C13.9087 8.17169 13.8025 8.13257 13.7243 8.05433C13.5622 7.90065 13.5622 7.64638 13.7215 7.48712L14.8783 6.34989C15.0376 6.19062 15.2974 6.19062 15.4595 6.3471C15.6215 6.50078 15.6215 6.75505 15.4623 6.91431L14.3055 8.05433C14.2245 8.13257 14.1183 8.17169 14.0121 8.17169ZM4.96461 9.99627C4.72431 10.2226 4.60416 10.5914 4.60416 11.0972C4.60416 11.6029 4.72431 11.9717 4.96181 12.1953C5.19373 12.4132 5.56815 12.5222 6.07389 12.5222C6.57963 12.5222 6.95685 12.4132 7.19156 12.1925C7.43185 11.9717 7.552 11.6029 7.552 11.0972C7.552 10.5914 7.42906 10.2198 7.19156 9.99627C6.95685 9.77833 6.58243 9.66377 6.07668 9.66377C5.57094 9.66656 5.19652 9.77833 4.96461 9.99627ZM6.07668 13.3241C5.3502 13.3241 4.78578 13.1397 4.3946 12.7737C3.98944 12.3937 3.78268 11.832 3.78268 11.1C3.78268 10.3679 3.98944 9.80348 4.3946 9.42068C4.78578 9.05464 5.3502 8.86743 6.07668 8.86743C6.80037 8.86743 7.36759 9.05464 7.76156 9.42068C8.16951 9.80348 8.37628 10.3679 8.37628 11.1C8.37628 11.832 8.16951 12.3937 7.76156 12.7765C7.36759 13.1397 6.80037 13.3241 6.07668 13.3241ZM20.7712 21.2009L20.8159 16.7777C20.8159 16.2803 20.6678 15.8668 20.3884 15.5818C19.9972 15.185 19.3965 15.1012 18.9634 15.1012H15.412C15.2499 15.1012 14.9957 15.0397 14.8811 14.9643C14.7274 14.8637 14.5709 14.6374 14.5709 14.6374L12.2294 11.5694V14.4753L13.4728 16.0652V15.6349C13.4728 15.4142 13.6572 15.2353 13.8836 15.2353C14.1099 15.2353 14.2943 15.4142 14.2943 15.6349V17.2387C14.2943 17.2471 14.2999 17.2527 14.2999 17.2639V17.3812C14.2999 17.4483 14.3027 17.5154 14.3027 17.588L14.2971 18.0714V18.7923H14.2887L14.258 21.2009H18.3011V18.0463C18.3011 17.8255 18.4856 17.6467 18.7119 17.6467C18.9382 17.6467 19.1226 17.8255 19.1226 18.0463V21.1981H20.7712V21.2009ZM11.4052 14.3468V11.5694L9.06364 14.6374C9.06364 14.6374 8.90717 14.8637 8.75349 14.9643C8.63893 15.0397 8.38187 15.1012 8.2226 15.1012H4.67681C4.24371 15.1012 3.64297 15.185 3.25179 15.5818C2.97237 15.8668 2.82428 16.2803 2.82428 16.7777L2.86898 21.2009H4.52034V18.0491C4.52034 17.8283 4.70475 17.6495 4.93108 17.6495C5.1574 17.6495 5.34182 17.8283 5.34182 18.0491V21.2009H9.38218L9.35424 18.7923H9.34586V18.0686L9.34027 17.588C9.34027 17.5182 9.34306 17.4511 9.34306 17.384V17.2667C9.34306 17.2583 9.34586 17.2499 9.34586 17.2415V15.6377C9.34586 15.417 9.53027 15.2381 9.7566 15.2381C9.98292 15.2381 10.1673 15.417 10.1673 15.6377V16.068L11.4107 14.4781V14.3468H11.4052ZM20.978 15.0286C21.4083 15.4645 21.6374 16.068 21.6374 16.7777L21.5871 21.7457C21.5871 21.8854 21.4725 22 21.3272 22H13.6908C13.5483 22 13.4309 21.8854 13.4309 21.7457L13.4756 18.0742V17.384L11.8187 15.2661L10.1645 17.3812V18.0686L10.2093 21.7429C10.2093 21.8826 10.0919 21.9972 9.94939 21.9972H2.31015C2.16765 21.9972 2.0475 21.8826 2.0475 21.7429L2 16.7749C2 16.0652 2.22633 15.4617 2.65663 15.0258C3.12605 14.5508 3.82459 14.2993 4.67401 14.2993H7.47377C7.74759 14.2993 8.01304 14.2797 8.24496 14.1652C8.38746 14.0953 8.67246 13.8075 8.67246 13.8075L11.4834 10.1248L11.4862 10.1192C11.5057 10.0941 11.5281 10.0745 11.5504 10.055C11.5896 10.0214 11.6315 9.99627 11.6846 9.97672C11.6874 9.97672 11.7069 9.96833 11.7097 9.96833C11.7377 9.95995 11.7796 9.95995 11.8243 9.95995C11.8634 9.95995 11.9053 9.96554 11.9416 9.97672L11.9528 9.97951C11.9528 9.97951 12.0338 10.0102 12.0646 10.0382C12.0953 10.0605 12.1233 10.0857 12.1456 10.1136L12.1484 10.1192C12.1512 10.122 12.1512 10.122 12.154 10.122L12.1568 10.1276V10.1304L14.9649 13.8103C14.9649 13.8103 15.2527 14.0981 15.3924 14.168C15.6243 14.2825 15.8926 14.3021 16.1636 14.3021H18.9606C19.8128 14.3021 20.5113 14.5536 20.978 15.0286ZM16.4458 10.0019C16.2055 10.2282 16.0826 10.597 16.0826 11.1028C16.0826 11.6057 16.2055 11.9773 16.443 12.1981C16.6777 12.416 17.0522 12.525 17.5607 12.525C18.0692 12.525 18.4409 12.416 18.6728 12.1981C18.9103 11.9745 19.0304 11.6057 19.0304 11.1C19.0304 10.5942 18.9103 10.2226 18.67 9.99907C18.4381 9.78112 18.0636 9.66936 17.5579 9.66936C17.055 9.66936 16.6805 9.78112 16.4458 10.0019ZM15.8786 12.7765C15.4707 12.3965 15.2611 11.832 15.2611 11.1C15.2611 10.3679 15.4679 9.80348 15.8786 9.42068C16.2698 9.05464 16.837 8.86743 17.5607 8.86743C18.2844 8.86743 18.8516 9.05185 19.2428 9.42068C19.6479 9.80068 19.8547 10.3651 19.8547 11.0972C19.8547 11.8292 19.6479 12.3937 19.2428 12.7737C18.8516 13.1397 18.2872 13.3241 17.5607 13.3241C16.837 13.3269 16.2698 13.1425 15.8786 12.7765Z" fill="#86888C"/>
</svg>
