<svg width="24" height="24" viewBox="0 0 24 24" fill="none" xmlns="http://www.w3.org/2000/svg">
<path fill-rule="evenodd" clip-rule="evenodd" d="M9.74845 5.58419C9.21368 6.10746 8.94342 6.92399 8.94342 8.01078C8.94342 9.0947 9.21368 9.91123 9.74845 10.4316C10.2631 10.9376 11.048 11.1935 12.0773 11.1935C13.1066 11.1935 13.8915 10.9376 14.4119 10.4316C14.9495 9.90836 15.2198 9.0947 15.2198 8.01078C15.2198 6.92686 14.9495 6.11033 14.4119 5.58419C13.8915 5.07529 13.1066 4.81941 12.0802 4.81941C11.048 4.81941 10.2631 5.07529 9.74845 5.58419ZM12.0773 12.0101C10.8324 12.0101 9.86058 11.6765 9.19068 11.021C8.4949 10.3396 8.14126 9.32758 8.14126 8.01078C8.14126 6.69686 8.4949 5.67907 9.19068 4.99766C9.86345 4.33639 10.8352 4 12.0773 4C13.3193 4 14.294 4.33639 14.9697 4.99479C15.6712 5.67907 16.0277 6.69398 16.0277 8.01078C16.0277 9.32758 15.6712 10.3396 14.9697 11.021C14.294 11.6794 13.3222 12.0101 12.0773 12.0101ZM5.1914 10.6588C4.97576 10.8686 4.86651 11.2223 4.86651 11.7053C4.86651 12.1883 4.97576 12.5391 5.18852 12.749C5.39553 12.9531 5.73479 13.0566 6.19194 13.0566C6.65195 13.0566 6.99122 12.9531 7.2011 12.749C7.41673 12.5391 7.52599 12.1883 7.52599 11.7082C7.52599 11.2252 7.41673 10.8744 7.2011 10.6645C6.99122 10.4604 6.65195 10.354 6.19194 10.354C5.73767 10.3511 5.40128 10.4546 5.1914 10.6588ZM6.19481 13.8731C5.52203 13.8731 4.99589 13.692 4.63075 13.3384C4.25411 12.9675 4.06148 12.4183 4.06148 11.7053C4.06148 10.9923 4.25411 10.4431 4.63075 10.0722C4.99589 9.71572 5.52203 9.53172 6.19481 9.53172C6.87046 9.53172 7.39661 9.71285 7.76175 10.0694C8.14126 10.4403 8.33389 10.9923 8.33389 11.7024C8.33389 12.4155 8.14126 12.9646 7.76175 13.3355C7.39948 13.692 6.87046 13.8731 6.19481 13.8731ZM17.0052 10.6444C16.7896 10.8543 16.6803 11.2079 16.6803 11.6909C16.6803 12.1711 16.7896 12.5218 17.0052 12.7317C17.2151 12.9358 17.5544 13.0394 18.0144 13.0394C18.4744 13.0394 18.8108 12.9358 19.0207 12.7317C19.2334 12.5218 19.3427 12.1711 19.3427 11.6909C19.3427 11.2079 19.2334 10.8571 19.0178 10.6444C18.8108 10.4403 18.4715 10.3367 18.0144 10.3367C17.5544 10.3367 17.2151 10.4403 17.0052 10.6444ZM16.4475 13.324C16.0679 12.9531 15.8753 12.404 15.8753 11.6909C15.8753 10.9779 16.0679 10.4288 16.4475 10.0579C16.8126 9.69847 17.3387 9.51734 18.0144 9.51734C18.69 9.51734 19.2162 9.69847 19.5813 10.055C19.958 10.4259 20.1506 10.9779 20.1506 11.6909C20.1506 12.4011 19.9608 12.9502 19.5813 13.3211C19.2162 13.6776 18.69 13.8559 18.0144 13.8559C17.3387 13.8588 16.8126 13.6776 16.4475 13.324ZM21.4013 17.7804V17.2169C21.4013 16.6361 21.2316 16.1445 20.901 15.7995C20.5387 15.4142 19.9896 15.2187 19.3139 15.2187H18.0748C18.6527 15.8886 18.9919 16.7655 19.0667 17.7804H21.4013ZM18.276 19.1777V18.2117C18.276 17.1565 17.9626 16.2652 17.3675 15.6327C16.7148 14.9456 15.7143 14.5775 14.4751 14.5775H9.6737C8.43452 14.5775 7.44261 14.9456 6.78996 15.6327C6.19481 16.2624 5.88142 17.1536 5.88142 18.2117V19.1777H18.276ZM5.09364 17.7977C5.16552 16.7827 5.49903 15.9058 6.07693 15.2359H4.89238C4.21673 15.2359 3.66759 15.4343 3.30532 15.8167C2.98331 16.1589 2.80505 16.6505 2.80505 17.2313V17.7977H5.09364ZM21.4818 15.2359C21.9562 15.7362 22.2063 16.4234 22.2063 17.2169V17.9443C22.2092 18.3037 21.9217 18.5941 21.5623 18.5998H19.0811V19.5486C19.0811 19.7987 18.8798 20 18.6297 20H5.52778C5.28052 20 5.07927 19.7987 5.07639 19.5486V18.6142H2.65267C2.29041 18.6113 1.99715 18.3181 2.00002 17.9558V17.2313C2.00002 16.4377 2.25016 15.7506 2.72455 15.2417C3.24207 14.704 3.9896 14.4165 4.89238 14.4165H7.04297C7.75887 13.9824 8.65303 13.761 9.67657 13.761H14.478C15.4929 13.761 16.3785 13.9738 17.0944 14.3993H19.3168C20.2167 14.4022 20.9643 14.6868 21.4818 15.2359Z" fill="#86888C"/>
</svg>
