<svg width="28" height="28" viewBox="0 0 28 28" fill="none" xmlns="http://www.w3.org/2000/svg">
<path fill-rule="evenodd" clip-rule="evenodd" d="M11.717 6.78221C11.1154 7.37089 10.8113 8.28949 10.8113 9.51213C10.8113 10.7315 11.1154 11.6501 11.717 12.2356C12.296 12.8049 13.179 13.0927 14.337 13.0927C15.4949 13.0927 16.3779 12.8049 16.9634 12.2356C17.5682 11.6469 17.8723 10.7315 17.8723 9.51213C17.8723 8.29272 17.5682 7.37412 16.9634 6.78221C16.3779 6.2097 15.4949 5.92183 14.3402 5.92183C13.179 5.92183 12.296 6.2097 11.717 6.78221ZM14.337 14.0113C12.9364 14.0113 11.8432 13.6361 11.0895 12.8987C10.3068 12.1321 9.90892 10.9935 9.90892 9.51213C9.90892 8.03396 10.3068 6.88895 11.0895 6.12237C11.8464 5.37844 12.9396 5 14.337 5C15.7343 5 16.8308 5.37844 17.5909 6.11914C18.3801 6.88895 18.7812 8.03073 18.7812 9.51213C18.7812 10.9935 18.3801 12.1321 17.5909 12.8987C16.8308 13.6394 15.7375 14.0113 14.337 14.0113ZM6.59032 12.4911C6.34773 12.7272 6.22482 13.1251 6.22482 13.6685C6.22482 14.2119 6.34773 14.6065 6.58709 14.8426C6.81997 15.0722 7.20164 15.1887 7.71593 15.1887C8.23345 15.1887 8.61512 15.0722 8.85124 14.8426C9.09382 14.6065 9.21673 14.2119 9.21673 13.6717C9.21673 13.1283 9.09382 12.7337 8.85124 12.4976C8.61512 12.2679 8.23345 12.1482 7.71593 12.1482C7.20488 12.145 6.82644 12.2615 6.59032 12.4911ZM7.71916 16.1073C6.96229 16.1073 6.37037 15.9035 5.95959 15.5057C5.53587 15.0884 5.31916 14.4706 5.31916 13.6685C5.31916 12.8663 5.53587 12.2485 5.95959 11.8313C6.37037 11.4302 6.96229 11.2232 7.71916 11.2232C8.47927 11.2232 9.07118 11.427 9.48196 11.828C9.90892 12.2453 10.1256 12.8663 10.1256 13.6652C10.1256 14.4674 9.90892 15.0852 9.48196 15.5024C9.07442 15.9035 8.47927 16.1073 7.71916 16.1073ZM19.8809 12.4749C19.6383 12.7111 19.5154 13.1089 19.5154 13.6523C19.5154 14.1925 19.6383 14.5871 19.8809 14.8232C20.117 15.0528 20.4987 15.1693 21.0162 15.1693C21.5337 15.1693 21.9122 15.0528 22.1483 14.8232C22.3876 14.5871 22.5105 14.1925 22.5105 13.6523C22.5105 13.1089 22.3876 12.7143 22.145 12.4749C21.9122 12.2453 21.5305 12.1288 21.0162 12.1288C20.4987 12.1288 20.117 12.2453 19.8809 12.4749ZM19.2534 15.4895C18.8264 15.0722 18.6097 14.4544 18.6097 13.6523C18.6097 12.8501 18.8264 12.2323 19.2534 11.8151C19.6642 11.4108 20.2561 11.207 21.0162 11.207C21.7763 11.207 22.3682 11.4108 22.779 11.8119C23.2027 12.2291 23.4194 12.8501 23.4194 13.6523C23.4194 14.4512 23.206 15.069 22.779 15.4863C22.3682 15.8873 21.7763 16.0879 21.0162 16.0879C20.2561 16.0911 19.6642 15.8873 19.2534 15.4895ZM24.8264 20.503V19.869C24.8264 19.2156 24.6356 18.6625 24.2636 18.2744C23.8561 17.841 23.2383 17.621 22.4782 17.621H21.0841C21.7343 18.3747 22.1159 19.3612 22.2 20.503H24.8264ZM21.3105 22.0749V20.9881C21.3105 19.8011 20.958 18.7984 20.2884 18.0868C19.5542 17.3137 18.4286 16.8997 17.0345 16.8997H11.6329C10.2388 16.8997 9.12293 17.3137 8.3887 18.0868C7.71916 18.7951 7.3666 19.7978 7.3666 20.9881V22.0749H21.3105ZM6.48035 20.5224C6.56121 19.3806 6.93641 18.3941 7.58655 17.6404H6.25393C5.49382 17.6404 4.87603 17.8636 4.46849 18.2938C4.10622 18.6787 3.90568 19.2318 3.90568 19.8852V20.5224H6.48035ZM24.917 17.6404C25.4507 18.2032 25.7321 18.9763 25.7321 19.869V20.6873C25.7353 21.0916 25.4119 21.4183 25.0076 21.4248H22.2162V22.4922C22.2162 22.7736 21.9898 23 21.7084 23H6.96876C6.69059 23 6.46417 22.7736 6.46094 22.4922V21.441H3.73426C3.32671 21.4377 2.99679 21.1078 3.00002 20.7003V19.8852C3.00002 18.9925 3.28143 18.2194 3.81512 17.6469C4.39733 17.042 5.2383 16.7186 6.25393 16.7186H8.67334C9.47873 16.2302 10.4847 15.9811 11.6361 15.9811H17.0378C18.1795 15.9811 19.1758 16.2205 19.9812 16.6992H22.4814C23.4938 16.7024 24.3348 17.0226 24.917 17.6404Z" fill="#86888C"/>
</svg>
