<svg width="40" height="40" viewBox="0 0 40 40" fill="none" xmlns="http://www.w3.org/2000/svg">
<path fill-rule="evenodd" clip-rule="evenodd" d="M17.1591 4.15109C16.6828 4.59667 16.4472 5.30346 16.4472 6.25608C16.4472 8.12548 17.3435 9.00128 19.2692 9.00128C21.2001 9.00128 22.1015 8.1306 22.1015 6.25608C22.1015 5.30858 21.8608 4.60179 21.3844 4.15621C20.9235 3.72087 20.2167 3.50064 19.2743 3.50064C18.3268 3.50064 17.62 3.72087 17.1591 4.15109ZM19.2692 10.4968C16.4984 10.4968 14.9056 8.95006 14.9056 6.25608C14.9056 4.88348 15.3051 3.81306 16.0887 3.07554C16.8415 2.36364 17.912 2 19.2692 2C20.6213 2 21.6917 2.36364 22.4497 3.07554C23.2385 3.81306 23.638 4.88348 23.638 6.25608C23.638 8.95006 22.0451 10.4968 19.2692 10.4968ZM27.2129 25.4673C27.725 25.3393 28.0374 24.822 27.9145 24.3099C27.9145 24.3047 27.9145 24.2996 27.9094 24.2945L25.7225 16.4533C25.6917 16.3867 25.6661 16.315 25.6456 16.2433C25.6354 16.2074 25.6252 16.1716 25.6149 16.1408C25.2871 14.5583 23.8326 13.411 22.1629 13.411H17.2923C15.6277 13.411 14.1732 14.5583 13.8403 16.1408C13.8351 16.1665 13.8249 16.1869 13.8198 16.2074C13.8095 16.2638 13.789 16.3201 13.7583 16.3764L11.5458 24.3047C11.4126 24.8118 11.7199 25.3342 12.227 25.4673H12.2372C12.4882 25.5391 12.7545 25.5083 12.9798 25.3752C13.2001 25.2574 13.364 25.0525 13.4305 24.8118L14.4036 19.5723C14.4753 19.1882 14.8134 18.9373 15.2334 18.9577C15.6277 18.9885 15.9299 19.3111 15.935 19.7055V35.5314C15.935 36.0589 16.3704 36.4942 16.903 36.4942C17.4357 36.4942 17.871 36.064 17.8761 35.5314V26.1024C17.8761 25.6876 18.2193 25.3547 18.6444 25.3547H20.8159C21.241 25.3547 21.5893 25.6927 21.5893 26.1024V35.5365C21.5893 36.0691 22.0246 36.4994 22.5624 36.4994C23.0951 36.4994 23.5304 36.0691 23.5304 35.5365V19.7106C23.5304 19.3214 23.8377 18.9987 24.2321 18.9629C24.6469 18.9475 24.985 19.1933 25.0567 19.5775L26.04 24.8681C26.0912 25.0474 26.2551 25.2471 26.4805 25.3752C26.7007 25.5032 26.967 25.5339 27.2129 25.4673ZM29.3998 23.9052C29.7481 25.2164 28.9645 26.5634 27.6533 26.9065C27.6431 26.9065 27.638 26.9116 27.6277 26.9116C26.7007 27.1626 25.7122 26.8758 25.0669 26.1639V35.5314C25.0669 36.8886 23.9401 37.9949 22.5573 37.9949C21.1693 37.9949 20.0477 36.8886 20.0477 35.5314V26.8502H19.4331V35.5365C19.4331 36.8937 18.3063 38 16.9235 38C15.5406 38 14.4139 36.8937 14.4139 35.5365V26.1639C13.7686 26.8809 12.775 27.1677 11.8479 26.9116C10.5368 26.5787 9.74296 25.2471 10.0759 23.9309C10.0759 23.9257 10.081 23.9206 10.081 23.9155L12.273 16.064C12.2935 15.977 12.3243 15.8899 12.3601 15.8079C12.8518 13.5442 14.9312 11.9104 17.3127 11.9104H22.1834C24.565 11.9104 26.6392 13.5442 27.1309 15.7977C27.177 15.9052 27.2129 16.0077 27.2334 16.1101L29.3998 23.9052Z" fill="#86888C"/>
</svg>
