<svg width="24" height="24" viewBox="0 0 24 24" fill="none" xmlns="http://www.w3.org/2000/svg">
<path d="M20.4947 22H3.2847C3.12811 22 3 21.8719 3 21.7153V19.4947C3 17.9772 3.4726 16.6847 4.3637 15.7566C5.33737 14.7488 6.79217 14.2135 8.56868 14.2135H15.2107C16.9872 14.2135 18.442 14.7488 19.4157 15.7594C20.3096 16.6875 20.7794 17.9801 20.7794 19.4975V21.7181C20.7794 21.8719 20.6512 22 20.4947 22ZM3.5694 21.4306H20.21V19.4947C20.21 18.1281 19.7943 16.9722 19.0057 16.1523C18.1288 15.2441 16.8534 14.7829 15.2107 14.7829H8.56868C6.92598 14.7829 5.65053 15.2441 4.77367 16.1523C3.98505 16.9722 3.5694 18.1253 3.5694 19.4947V21.4306ZM11.8883 12.0071C8.61993 12.0071 6.89182 10.279 6.89182 7.01068C6.89182 5.35089 7.33594 4.08114 8.21281 3.23274C9.05836 2.41566 10.294 2 11.8883 2C13.4826 2 14.721 2.41566 15.5722 3.23274C16.4548 4.08114 16.8989 5.35374 16.8989 7.01068C16.8989 10.279 15.168 12.0071 11.8883 12.0071ZM11.8883 2.5694C10.4477 2.5694 9.34306 2.93096 8.60854 3.6427C7.8484 4.38007 7.46121 5.51317 7.46121 7.01068C7.46121 8.50818 7.8484 9.63843 8.60854 10.3701C9.34306 11.079 10.4477 11.4349 11.8883 11.4349C13.3288 11.4349 14.4391 11.0762 15.1765 10.3673C15.9423 9.63274 16.3295 8.50249 16.3295 7.00783C16.3295 5.51317 15.9423 4.37722 15.1765 3.63986C14.4363 2.93096 13.3317 2.5694 11.8883 2.5694Z" fill="#86888C"/>
</svg>
