<svg width="40" height="40" viewBox="0 0 40 40" fill="none" xmlns="http://www.w3.org/2000/svg">
<path fill-rule="evenodd" clip-rule="evenodd" d="M26.3169 29.5131C25.2925 30.2609 24.0017 30.6553 22.7724 30.85C25.3488 29.5336 26.614 27.8125 26.614 25.6458C26.614 23.5304 24.5447 22.2857 23.0387 21.6556C23.4434 21.3381 23.8173 20.9795 24.1605 20.5902C24.3295 20.6875 24.4934 20.7797 24.6369 20.8668C24.9032 21.0256 25.144 21.169 25.3949 21.2971C26.7728 21.9988 27.7972 23.7096 27.9509 25.5434C28.079 27.2132 27.4899 28.6577 26.3169 29.5131ZM18.1419 30.9217C18.0036 30.9627 17.8756 31.0395 17.7783 31.1419V23.6533C19.0383 23.5662 20.2728 23.2333 21.4099 22.675C22.798 23.0694 25.0722 24.104 25.0722 25.6458C25.0722 28.0072 22.8082 29.7282 18.1419 30.9217ZM19.781 36.6124H14.4949C14.7101 35.3063 15.5501 34.7172 17.138 34.7172C18.7259 34.7172 19.5659 35.3063 19.781 36.6124ZM8.84004 14.9353V14.1773H24.6676V15.089C24.5908 19.7399 20.8208 22.1781 17.1329 22.1781C13.1529 22.1832 8.88102 20.2778 8.84004 14.9353ZM5.65916 10.1205C6.02284 8.13307 7.39046 6.30445 9.41884 5.09562C14.5871 2.01718 19.361 4.6756 19.5864 4.80365C19.6069 4.8139 21.3689 5.80248 21.6353 7.36474C21.7787 8.22527 21.4457 9.15239 20.6467 10.1205C20.1498 9.87974 19.2586 9.11653 19.1305 6.73472C19.1151 6.50422 18.9973 6.29421 18.8129 6.16615C18.6541 6.05346 14.8893 3.49749 10.5713 6.06883C8.72735 7.16498 7.55437 8.68115 7.25216 10.3356C7.11386 11.0937 7.00117 12.195 7.32899 13.3065C7.32387 13.3475 7.30338 13.3884 7.30338 13.4294V14.9405C7.3085 15.3451 7.33924 15.7344 7.38534 16.1134C5.89478 14.4026 5.26475 12.2974 5.65916 10.1205ZM29.4773 25.4256C29.2827 23.0591 27.956 20.918 26.0967 19.9704C25.8764 19.8578 25.6664 19.7297 25.4308 19.5914C25.313 19.5146 25.1798 19.4429 25.0466 19.3609C25.7432 18.1777 26.1786 16.7588 26.1991 15.1146L26.2042 13.4294C26.2042 13.0145 25.8611 12.6816 25.4359 12.6816H8.73247C8.60442 12.1079 8.60954 11.4369 8.76321 10.602C9.06541 8.9475 10.5201 7.85647 11.3704 7.3545C14.2235 5.64881 16.7743 6.75008 17.6195 7.2162C18.0087 11.4881 20.7286 11.7237 20.8464 11.7288C21.0718 11.7442 21.3126 11.6571 21.4713 11.4881C22.8287 10.0334 23.3973 8.56846 23.1463 7.124C22.7621 4.81902 20.4264 3.53847 20.3445 3.49749C20.114 3.36432 14.5923 0.255151 8.60954 3.81507C6.20723 5.24416 4.57838 7.45182 4.14299 9.85925C3.53345 13.2092 4.89083 16.4105 7.86682 18.6489C7.93853 18.7001 8.02561 18.7001 8.10757 18.7258C9.43421 21.6044 12.3282 23.4126 16.2365 23.6482V33.2779C14.1005 33.5852 12.8968 35.0348 12.8968 37.3603C12.8968 37.7752 13.24 38.1132 13.6651 38.1132H20.6006C21.0206 38.1183 21.3638 37.7803 21.3689 37.3654C21.3689 34.9477 20.0627 33.493 17.7731 33.2625V32.1612C17.8909 32.2842 18.0446 32.3661 18.2136 32.3917C18.3058 32.4071 19.192 32.5352 20.4469 32.5352C22.378 32.5352 25.1696 32.2278 27.2338 30.7219C28.8422 29.5438 29.6566 27.6179 29.4773 25.4256Z" fill="#86888C"/>
</svg>
