<svg width="24" height="24" viewBox="0 0 24 24" fill="none" xmlns="http://www.w3.org/2000/svg">
<path fill-rule="evenodd" clip-rule="evenodd" d="M16.3983 17.3354C15.8292 17.7509 15.1121 17.97 14.4291 18.0781C15.8605 17.3468 16.5633 16.3906 16.5633 15.1869C16.5633 14.0117 15.4137 13.3202 14.5771 12.9701C14.8019 12.7937 15.0096 12.5945 15.2003 12.3783C15.2942 12.4323 15.3852 12.4835 15.4649 12.5319C15.6129 12.6201 15.7466 12.6998 15.8861 12.771C16.6516 13.1608 17.2207 14.1113 17.3061 15.13C17.3772 16.0577 17.05 16.8602 16.3983 17.3354ZM11.8566 18.1179C11.7798 18.1407 11.7087 18.1834 11.6546 18.2403V14.08C12.3546 14.0316 13.0404 13.8466 13.6722 13.5364C14.4433 13.7556 15.7068 14.3304 15.7068 15.1869C15.7068 16.4988 14.449 17.4549 11.8566 18.1179ZM12.7672 21.2795H9.83052C9.95003 20.5538 10.4167 20.2266 11.2989 20.2266C12.181 20.2266 12.6477 20.5538 12.7672 21.2795ZM6.68891 9.23664V8.81549H15.482V9.32201C15.4393 11.9059 13.3449 13.2604 11.296 13.2604C9.08495 13.2633 6.71167 12.2047 6.68891 9.23664ZM4.92176 6.56173C5.1238 5.45761 5.88359 4.44171 7.01047 3.77013C9.88174 2.05989 12.5339 3.53679 12.6591 3.60793C12.6705 3.61362 13.6494 4.16283 13.7974 5.03076C13.877 5.50883 13.6921 6.0239 13.2482 6.56173C12.9721 6.42798 12.477 6.00398 12.4058 4.68074C12.3973 4.55269 12.3319 4.43602 12.2294 4.36488C12.1412 4.30227 10.0496 2.88229 7.65074 4.31081C6.62631 4.91978 5.97465 5.76209 5.80676 6.68124C5.72992 7.1024 5.66732 7.71422 5.84944 8.33172C5.84659 8.35449 5.83521 8.37725 5.83521 8.40002V9.23949C5.83806 9.4643 5.85513 9.68057 5.88074 9.89115C5.05266 8.9407 4.70264 7.77113 4.92176 6.56173ZM18.1541 15.0646C18.0459 13.7499 17.3089 12.5604 16.2759 12.0339C16.1536 11.9713 16.0369 11.9002 15.906 11.8233C15.8405 11.7807 15.7666 11.7408 15.6926 11.6953C16.0796 11.0379 16.3215 10.2497 16.3328 9.33624L16.3357 8.40002C16.3357 8.16952 16.145 7.98455 15.9088 7.98455H6.62915C6.55801 7.66584 6.56086 7.29306 6.64622 6.82922C6.81412 5.91007 7.62229 5.30394 8.09467 5.02507C9.6797 4.07747 11.0968 4.68928 11.5664 4.94824C11.7826 7.32152 13.2937 7.45242 13.3591 7.45526C13.4843 7.4638 13.6181 7.41542 13.7063 7.32152C14.4604 6.51335 14.7763 5.69949 14.6368 4.89701C14.4234 3.61647 13.1258 2.90505 13.0803 2.88229C12.9522 2.8083 9.88458 1.08099 6.56086 3.05872C5.22624 3.85266 4.32132 5.07914 4.07944 6.4166C3.74081 8.27766 4.49491 10.0562 6.14823 11.2997C6.18807 11.3282 6.23645 11.3282 6.28198 11.3424C7.01901 12.9417 8.6268 13.9462 10.798 14.0771V19.4269C9.6114 19.5977 8.94267 20.403 8.94267 21.6949C8.94267 21.9254 9.13333 22.1132 9.36952 22.1132H13.2225C13.4559 22.1161 13.6465 21.9283 13.6494 21.6978C13.6494 20.3546 12.9237 19.5465 11.6517 19.4184V18.8066C11.7172 18.8749 11.8026 18.9204 11.8965 18.9346C11.9477 18.9432 12.44 19.0143 13.1372 19.0143C14.21 19.0143 15.7609 18.8436 16.9077 18.007C17.8012 17.3525 18.2537 16.2825 18.1541 15.0646Z" fill="#86888C"/>
</svg>
