<svg width="24" height="24" viewBox="0 0 24 24" fill="none" xmlns="http://www.w3.org/2000/svg">
<path fill-rule="evenodd" clip-rule="evenodd" d="M16.1768 14.6749C16.1312 14.672 16.0857 14.6777 16.0402 14.6891C14.7254 15.1074 13.1687 14.433 11.4129 12.6743C9.66555 10.927 9.04516 9.00318 9.45496 7.69411C9.47488 7.62581 10.3685 6.73223 12.1329 5.01336C12.2239 4.90806 12.3264 4.81415 12.4288 4.71455L12.6024 4.5438C13.7407 3.40832 14.8848 2.83916 16.0288 2.83916C17.1728 2.83916 18.3168 3.40832 19.4523 4.5438C21.6919 6.78345 21.7261 9.05156 19.5604 11.2884L16.1768 14.6749ZM11.3958 19.4558L11.3133 19.5384C11.2734 19.5839 11.2279 19.6266 11.1824 19.6664C8.9854 21.724 6.75428 21.6528 4.54878 19.4502C2.27498 17.1764 2.27213 14.8741 4.54024 12.606L4.71384 12.4238C4.8106 12.3214 4.90451 12.2218 5.02972 12.1137L8.439 8.70437C8.38493 10.1074 9.16753 11.6384 10.8067 13.2776C12.3691 14.8428 13.8404 15.6368 15.1893 15.6595L11.3958 19.4558ZM12.002 3.94618L11.8397 4.09985C11.7174 4.21938 11.595 4.33321 11.5096 4.43566L4.46056 11.4876C4.34104 11.5929 4.22436 11.7124 4.10483 11.8376L3.94262 12.0027C1.35009 14.5952 1.35294 17.4524 3.94831 20.0478C5.24885 21.3512 6.62053 22 7.98652 22C9.26429 22 10.5364 21.4337 11.7458 20.3011C11.8113 20.247 11.8682 20.1872 11.928 20.1218L20.1637 11.886C22.6481 9.32192 22.6083 6.50172 20.0499 3.94902C17.4574 1.3508 14.6002 1.3508 12.002 3.94618Z" fill="#86888C"/>
</svg>
