<svg width="40" height="40" viewBox="0 0 40 40" fill="none" xmlns="http://www.w3.org/2000/svg">
<path fill-rule="evenodd" clip-rule="evenodd" d="M27.5182 24.8148C27.4362 24.8097 27.3543 24.8199 27.2723 24.8404C24.9057 25.5934 22.1037 24.3794 18.9432 21.2137C15.798 18.0685 14.6813 14.6057 15.4189 12.2494C15.4548 12.1265 17.0632 10.518 20.2392 7.42404C20.4031 7.23451 20.5875 7.06547 20.7719 6.88619L21.0844 6.57884C23.1333 4.53498 25.1926 3.51049 27.2518 3.51049C29.311 3.51049 31.3703 4.53498 33.4141 6.57884C37.4455 10.6102 37.507 14.6928 33.6088 18.7191L27.5182 24.8148ZM18.9124 33.4205L18.7639 33.5691C18.6922 33.651 18.6102 33.7279 18.5283 33.7996C14.5737 37.5031 10.5577 37.3751 6.5878 33.4103C2.49496 29.3174 2.48984 25.1734 6.57244 21.0908L6.88491 20.7629C7.05907 20.5785 7.22811 20.3992 7.4535 20.2046L13.5902 14.0679C13.4929 16.5932 14.9016 19.3491 17.8521 22.2997C20.6643 25.117 23.3126 26.5462 25.7407 26.5872L18.9124 33.4205ZM20.0035 5.50312L19.7115 5.77973C19.4913 5.99488 19.271 6.19978 19.1173 6.38418L6.42901 19.0776C6.21387 19.2672 6.00384 19.4823 5.7887 19.7077L5.49672 20.0048C0.830161 24.6714 0.835284 29.8143 5.50697 34.486C7.84793 36.8321 10.317 38 12.7757 38C15.0757 38 17.3655 36.9806 19.5425 34.9419C19.6603 34.8446 19.7628 34.737 19.8703 34.6192L34.6947 19.7948C39.1666 15.1794 39.0949 10.1031 34.4898 5.50824C29.8233 0.831439 24.6803 0.831439 20.0035 5.50312Z" fill="#86888C"/>
</svg>
