<svg width="24" height="24" viewBox="0 0 24 24" fill="none" xmlns="http://www.w3.org/2000/svg">
<path fill-rule="evenodd" clip-rule="evenodd" d="M19.0092 9.92757C18.9096 9.93896 18.8185 9.98164 18.7502 10.0528L15.7195 13.1003C15.6142 13.2084 15.5715 13.3621 15.6057 13.5072C16.0297 15.3511 15.4036 17.1324 13.6905 18.8596C13.6535 18.8994 13.5995 18.9222 13.5426 18.9222C13.4885 18.9222 13.4344 18.8994 13.3946 18.8596L9.30814 14.7422C9.30245 14.7336 9.2996 14.7251 9.29391 14.7166C9.28537 14.708 9.27684 14.7052 9.2683 14.6995L5.25016 10.656C5.17332 10.5763 5.17332 10.4483 5.25585 10.3715L5.28715 10.3402C6.9775 8.63572 8.75607 7.98979 10.5716 8.42799C10.7196 8.46214 10.8704 8.41946 10.9757 8.31417L14.0036 5.26379C14.0747 5.19266 14.1174 5.09875 14.1288 4.99916C14.1999 4.25364 14.5642 3.54511 15.2443 2.89064L21.1349 8.80929C20.4719 9.47229 19.7576 9.8479 19.0092 9.92757ZM21.7297 8.17759L15.8533 2.27317C15.6825 2.09959 15.452 2.00285 15.213 2C14.9967 2 14.7947 2.08252 14.604 2.27317C13.8527 3.02723 13.4117 3.86096 13.2864 4.7516L10.5289 7.52597C9.07195 7.24995 6.93766 7.44629 4.67248 9.72554L4.97697 10.0329L4.63833 9.75684C4.43628 9.95887 4.3253 10.232 4.3253 10.5137C4.3253 10.7983 4.43628 11.0686 4.63548 11.2707L8.36336 15.0239L2.12841 21.2555C1.95767 21.4234 1.95767 21.6994 2.12557 21.8702C2.29347 22.0409 2.56381 22.0437 2.73455 21.8758L2.7374 21.873L8.98088 15.6413L12.7856 19.4742C12.9876 19.6791 13.258 19.7929 13.5426 19.7929C13.8271 19.7929 14.0946 19.6791 14.3536 19.4202C16.172 17.5934 16.892 15.6214 16.4964 13.5527L19.2539 10.7784C20.1446 10.6446 20.9812 10.1894 21.761 9.40685C21.9146 9.25034 22 9.04262 22 8.82352C22 8.5788 21.9004 8.34832 21.7297 8.17759Z" fill="#86888C"/>
</svg>
