<svg width="40" height="40" viewBox="0 0 40 40" fill="none" xmlns="http://www.w3.org/2000/svg">
<path fill-rule="evenodd" clip-rule="evenodd" d="M32.6165 16.2696C32.4372 16.2901 32.2733 16.3669 32.1504 16.495L26.6951 21.9806C26.5056 22.1752 26.4288 22.4518 26.4902 22.713C27.2535 26.032 26.1266 29.2383 23.043 32.3473C22.9764 32.419 22.879 32.46 22.7766 32.46C22.6793 32.46 22.5819 32.419 22.5102 32.3473L15.1546 24.9359C15.1444 24.9205 15.1393 24.9052 15.129 24.8898C15.1137 24.8744 15.0983 24.8693 15.0829 24.8591L7.85028 17.5808C7.71198 17.4374 7.71198 17.2069 7.86053 17.0687L7.91687 17.0123C10.9595 13.9443 14.1609 12.7816 17.4289 13.5704C17.6953 13.6319 17.9668 13.555 18.1563 13.3655L23.6064 7.87483C23.7345 7.74678 23.8113 7.57776 23.8318 7.39849C23.9598 6.05655 24.6155 4.7812 25.8397 3.60316L36.4428 14.2567C35.2493 15.4501 33.9636 16.1262 32.6165 16.2696ZM37.5134 13.1197L26.9359 2.4917C26.6285 2.17927 26.2136 2.00512 25.7834 2C25.3941 2 25.0304 2.14854 24.6872 2.4917C23.3349 3.84901 22.541 5.34973 22.3156 6.95288L17.3521 11.9467C14.7295 11.4499 10.8878 11.8033 6.81046 15.906L7.35855 16.4591L6.74899 15.9623C6.38531 16.326 6.18554 16.8177 6.18554 17.3247C6.18554 17.8369 6.38531 18.3235 6.74387 18.6872L13.4541 25.443L2.23115 36.6599C1.92381 36.9621 1.92381 37.459 2.22602 37.7663C2.52824 38.0736 3.01485 38.0787 3.32219 37.7765L3.32731 37.7714L14.5656 26.5544L21.4141 33.4536C21.7778 33.8224 22.2644 34.0273 22.7766 34.0273C23.2888 34.0273 23.7703 33.8224 24.2364 33.3563C27.5096 30.0681 28.8055 26.5186 28.0935 22.7949L33.057 17.8011C34.6603 17.5604 36.1662 16.7408 37.5697 15.3323C37.8463 15.0506 38 14.6767 38 14.2823C38 13.8418 37.8207 13.427 37.5134 13.1197Z" fill="#86888C"/>
</svg>
