<svg width="28" height="28" viewBox="0 0 28 28" fill="none" xmlns="http://www.w3.org/2000/svg">
<path fill-rule="evenodd" clip-rule="evenodd" d="M22.411 11.5131C22.2915 11.5267 22.1822 11.578 22.1002 11.6633L18.4634 15.3204C18.3371 15.4501 18.2859 15.6345 18.3268 15.8087C18.8356 18.0213 18.0844 20.1589 16.0286 22.2315C15.9842 22.2793 15.9194 22.3067 15.8511 22.3067C15.7862 22.3067 15.7213 22.2793 15.6735 22.2315L10.7698 17.2906C10.7629 17.2804 10.7595 17.2701 10.7527 17.2599C10.7424 17.2496 10.7322 17.2462 10.722 17.2394L5.90019 12.3872C5.80799 12.2916 5.80799 12.138 5.90702 12.0458L5.94458 12.0082C7.973 9.96286 10.1073 9.18774 12.286 9.71359C12.4635 9.75457 12.6445 9.70335 12.7709 9.57701L16.4043 5.91655C16.4896 5.83119 16.5409 5.7185 16.5545 5.59899C16.6399 4.70437 17.077 3.85413 17.8931 3.06877L24.9619 10.1711C24.1662 10.9668 23.3091 11.4175 22.411 11.5131ZM25.6756 9.41311L18.6239 2.3278C18.419 2.11951 18.1424 2.00341 17.8556 2C17.5961 2 17.3536 2.09902 17.1248 2.3278C16.2233 3.23267 15.694 4.23315 15.5437 5.30192L12.2347 8.63116C10.4863 8.29994 7.9252 8.53555 5.20697 11.2707L5.57236 11.6394L5.166 11.3082C4.92354 11.5506 4.79036 11.8785 4.79036 12.2165C4.79036 12.558 4.92354 12.8823 5.16258 13.1248L9.63604 17.6286L2.1541 25.1066C1.94921 25.3081 1.94921 25.6393 2.15068 25.8442C2.35216 26.0491 2.67657 26.0525 2.88146 25.851L2.88488 25.8476L10.3771 18.3696L14.9427 22.9691C15.1852 23.2149 15.5096 23.3515 15.8511 23.3515C16.1925 23.3515 16.5135 23.2149 16.8243 22.9042C19.0064 20.712 19.8703 18.3457 19.3957 15.8633L22.7047 12.5341C23.7735 12.3736 24.7775 11.8272 25.7132 10.8882C25.8976 10.7004 26 10.4511 26 10.1882C26 9.89457 25.8805 9.61798 25.6756 9.41311Z" fill="#86888C"/>
</svg>
