<svg width="20" height="20" viewBox="0 0 20 20" fill="none" xmlns="http://www.w3.org/2000/svg">
<path fill-rule="evenodd" clip-rule="evenodd" d="M15.6073 8.34206C15.5276 8.35116 15.4548 8.38531 15.4002 8.44222L12.9756 10.8802C12.8914 10.9668 12.8572 11.0897 12.8846 11.2058C13.2238 12.6809 12.7229 14.1059 11.3524 15.4877C11.3228 15.5196 11.2796 15.5378 11.234 15.5378C11.1908 15.5378 11.1475 15.5196 11.1157 15.4877L7.84651 12.1937C7.84196 12.1869 7.83968 12.1801 7.83513 12.1732C7.8283 12.1664 7.82147 12.1641 7.81464 12.1596L4.60013 8.92482C4.53866 8.86108 4.53866 8.75864 4.60468 8.69718L4.62972 8.67214C5.982 7.30857 7.40486 6.79183 8.85731 7.14239C8.97569 7.16971 9.09635 7.13557 9.18058 7.05134L11.6028 4.61103C11.6598 4.55412 11.6939 4.479 11.703 4.39933C11.7599 3.80291 12.0513 3.23609 12.5954 2.71251L17.3079 7.44743C16.7775 7.97783 16.2061 8.27832 15.6073 8.34206ZM17.7837 6.94207L13.0826 2.21853C12.946 2.07967 12.7616 2.00228 12.5704 2C12.3974 2 12.2357 2.06602 12.0832 2.21853C11.4822 2.82178 11.1293 3.48877 11.0292 4.20128L8.82316 6.42077C7.65756 6.19996 5.95013 6.35704 4.13798 8.18043L4.38158 8.42629L4.11066 8.20547C3.94903 8.3671 3.86024 8.58563 3.86024 8.811C3.86024 9.03864 3.94903 9.2549 4.10839 9.41652L7.09069 12.4191L2.10273 17.4044C1.96614 17.5387 1.96614 17.7595 2.10046 17.8961C2.23477 18.0327 2.45105 18.035 2.58764 17.9007L2.58992 17.8984L7.58471 12.9131L10.6285 15.9794C10.7901 16.1433 11.0064 16.2343 11.234 16.2343C11.4617 16.2343 11.6757 16.1433 11.8829 15.9361C13.3376 14.4747 13.9136 12.8971 13.5971 11.2422L15.8031 9.0227C16.5157 8.91571 17.185 8.55149 17.8088 7.92548C17.9317 7.80027 18 7.6341 18 7.45881C18 7.26304 17.9203 7.07866 17.7837 6.94207Z" fill="#86888C"/>
</svg>
