<svg width="28" height="28" viewBox="0 0 28 28" fill="none" xmlns="http://www.w3.org/2000/svg">
<path fill-rule="evenodd" clip-rule="evenodd" d="M18.9761 9.79966C18.9715 9.82015 18.967 9.84064 18.967 9.86113C18.9192 10.9789 18.3113 11.5208 17.1093 11.5208C16.6722 11.5208 16.3193 11.4411 16.037 11.2954C16.4832 10.6329 17.0592 10.0865 17.7991 9.87934C17.9744 9.83381 18.0814 9.65623 18.0359 9.47866C18.0359 9.4741 18.0336 9.47183 18.0336 9.46727C17.9767 9.2897 17.7854 9.18953 17.6056 9.24189C16.7245 9.49004 16.0461 10.0842 15.5179 10.8332C15.3358 10.5487 15.2425 10.1776 15.2425 9.72225C15.2425 8.51565 15.8549 7.92829 17.1116 7.92829H18.6118C18.8099 7.92373 18.9738 8.08082 18.9784 8.27888L18.9761 9.79966ZM18.4935 15.0541V16.2675C18.4935 16.461 18.3295 16.6181 18.1292 16.6181H10.5322C10.3341 16.6227 10.1725 16.4656 10.1679 16.2698V15.0563C10.1679 14.8628 10.3318 14.7057 10.5322 14.7057H18.1292C18.3295 14.7035 18.4935 14.8606 18.4935 15.0541ZM17.0501 21.1167C17.0501 21.2373 16.9476 21.3375 16.8224 21.3375H11.8412C11.7137 21.3375 11.6113 21.2373 11.609 21.0825L11.1719 17.2806H17.4849L17.0501 21.1167ZM11.5657 10.2664C10.3591 10.2664 9.749 9.71998 9.7012 8.61127C9.7012 8.58623 9.69892 8.56118 9.69209 8.53842V7.0222C9.69209 6.82413 9.85828 6.66249 10.0632 6.66249H11.5703C12.8315 6.66249 13.4439 7.25213 13.4439 8.46557C13.4439 8.90495 13.3483 9.26693 13.1685 9.55379C12.333 8.21742 11.4109 7.95561 11.3449 7.93967C11.1651 7.89414 10.9829 7.99659 10.9283 8.17188C10.8805 8.34946 10.9852 8.53159 11.1628 8.5794H11.1673C11.181 8.58167 11.9505 8.82299 12.6585 10.0387C12.3694 10.189 12.0028 10.2664 11.5657 10.2664ZM18.6118 7.26579H17.1093C15.4815 7.26579 14.5504 8.1605 14.5504 9.72225C14.5504 10.3142 14.6824 10.8127 14.9602 11.2316L15.1355 11.4502C14.8076 12.0467 14.5572 12.6932 14.3637 13.3238C14.1907 11.9852 13.8833 10.963 13.5259 10.2049L13.6192 10.1024C13.6238 10.0956 13.6283 10.0888 13.6352 10.0842C13.9676 9.66534 14.1338 9.11895 14.1338 8.46329C14.1315 6.87422 13.2208 6 11.568 6H10.0609C9.47581 6 9 6.4576 9 7.0222V8.58395C9 8.60899 9.00455 8.63859 9.01138 8.66818C9.09106 10.1275 9.99488 10.9311 11.5635 10.9311C12.103 10.9311 12.5652 10.8287 12.9567 10.6261C13.3096 11.4229 13.6147 12.5202 13.749 14.0273C13.749 14.0319 13.7536 14.0364 13.7536 14.041H10.5322C9.95162 14.041 9.47809 14.4963 9.47809 15.0541V16.2675C9.47809 16.8071 9.9243 17.2464 10.4798 17.2738L10.9215 21.1167C10.9215 21.6039 11.3358 22 11.8412 22H16.8201C17.3278 22 17.7399 21.6039 17.7376 21.1531L18.1838 17.2738C18.7393 17.2464 19.1855 16.8071 19.1855 16.2675V15.0541C19.1855 14.4963 18.712 14.041 18.1292 14.041H14.8759C15.0398 13.4126 15.3017 12.6067 15.6932 11.8668C16.0803 12.0694 16.547 12.1833 17.1093 12.1833C18.6688 12.1833 19.5703 11.391 19.6568 9.93398C19.6636 9.90666 19.6682 9.87706 19.6682 9.84747V8.28344C19.6682 7.72112 19.1924 7.26579 18.6118 7.26579Z" fill="#86888C"/>
</svg>
