<svg width="28" height="28" viewBox="0 0 28 28" fill="none" xmlns="http://www.w3.org/2000/svg">
<path d="M25.2939 13.1506C25.1189 13.1506 24.9776 13.0093 24.9776 12.8343V8.9844C24.9742 8.40894 24.5031 7.9378 23.9276 7.93443H20.3671C20.1921 7.93443 20.0508 7.79309 20.0508 7.6181C20.0508 7.4431 20.1921 7.30176 20.3671 7.30176H23.9242C24.8497 7.30512 25.6069 8.05895 25.6069 8.9844V12.8377C25.6102 13.0093 25.4689 13.1506 25.2939 13.1506Z" fill="#86888C"/>
<path d="M20.3677 17.7775C18.7053 17.7775 17.4096 17.3434 16.5212 16.4852C15.5991 15.5968 15.1313 14.2675 15.1313 12.5411C15.1313 10.8113 15.5991 9.48542 16.5212 8.59362C17.4096 7.73547 18.7053 7.30135 20.3677 7.30135C20.5427 7.30135 20.6841 7.44269 20.6841 7.61768C20.6841 7.79268 20.5427 7.93402 20.3677 7.93402C17.3121 7.93402 15.764 9.48205 15.764 12.5411C15.764 15.5968 17.3121 17.1448 20.3677 17.1448C23.4234 17.1448 24.9714 15.5968 24.9714 12.5411C24.9714 12.3661 25.1128 12.2248 25.2878 12.2248C25.4628 12.2248 25.6041 12.3661 25.6041 12.5411C25.6041 14.2709 25.1363 15.5968 24.2109 16.4852C23.3258 17.3434 22.0336 17.7775 20.3677 17.7775ZM2.33316 9.88589C2.14807 9.88589 2 9.73781 2 9.55272V5.69947C2.00337 4.76729 2.76392 4.00337 3.6961 4H7.25321C7.4383 4 7.58638 4.14807 7.58638 4.33316C7.58638 4.51825 7.4383 4.66633 7.25321 4.66633H3.6961C3.13074 4.66969 2.66633 5.1341 2.66633 5.69947V9.54936C2.66633 9.73781 2.51825 9.88589 2.33316 9.88589Z" fill="#86888C"/>
<path d="M7.25321 14.5098C5.5874 14.5098 4.28839 14.0723 3.39659 13.2142C2.46777 12.3224 2 10.9897 2 9.25658C2 9.07149 2.14807 8.92341 2.33316 8.92341C2.51825 8.92341 2.66633 9.07149 2.66633 9.25658C2.66633 12.2988 4.20763 13.8435 7.24985 13.8435C10.2921 13.8435 11.8334 12.2988 11.8334 9.25658C11.8334 6.21099 10.2921 4.66633 7.24985 4.66633C7.06476 4.66633 6.91668 4.51825 6.91668 4.33316C6.91668 4.14807 7.06476 4 7.24985 4C8.91566 4 10.2113 4.43749 11.1031 5.299C12.0286 6.19417 12.4997 7.52346 12.4997 9.25994C12.4997 10.9931 12.0319 12.3257 11.1031 13.2175C10.2147 14.0757 8.91903 14.5098 7.25321 14.5098ZM13.4824 24.9994C13.4655 24.9994 13.4487 24.9994 13.4319 24.996C13.2569 24.9691 13.1391 24.8042 13.1694 24.6292C13.3343 23.6095 13.8424 20.5034 15.0876 17.5217C15.7741 15.8795 16.5818 14.53 17.4904 13.5137C18.6077 12.2618 19.8899 11.4979 21.3033 11.2421C21.4783 11.2118 21.6432 11.3262 21.6735 11.4979C21.7038 11.6729 21.5893 11.8378 21.4177 11.868C16.464 12.7699 14.5155 20.3115 13.7953 24.7302C13.7718 24.885 13.6338 24.9994 13.4824 24.9994Z" fill="#86888C"/>
<path d="M13.479 25.0003C13.3242 25.0003 13.1895 24.8892 13.1626 24.7311C13.0987 24.3407 13.065 23.7417 13.0213 22.9845C12.9136 21.0495 12.7487 18.125 11.9006 15.416C10.9012 12.2223 9.18822 10.1426 6.80223 9.23057C6.63734 9.16663 6.5532 8.98154 6.61714 8.81664C6.68108 8.65174 6.86618 8.56761 7.03107 8.63155C12.9843 10.9065 13.4419 19.0404 13.6607 22.9475C13.7011 23.6878 13.7347 24.27 13.7919 24.6268C13.8189 24.8018 13.7011 24.9666 13.5294 24.9936C13.516 24.9969 13.4958 25.0003 13.479 25.0003Z" fill="#86888C"/>
</svg>
