<svg width="20" height="20" viewBox="0 0 20 20" fill="none" xmlns="http://www.w3.org/2000/svg">
<path d="M17.5302 10.1005C17.4135 10.1005 17.3193 10.0063 17.3193 9.88963V7.32297C17.317 6.93931 17.0029 6.62521 16.6193 6.62297H14.2456C14.1289 6.62297 14.0347 6.52874 14.0347 6.41207C14.0347 6.2954 14.1289 6.20117 14.2456 6.20117H16.617C17.234 6.20342 17.7388 6.70598 17.7388 7.32297V9.89188C17.7411 10.0063 17.6468 10.1005 17.5302 10.1005Z" fill="#86888C"/>
<path d="M14.2455 13.1853C13.1372 13.1853 12.2734 12.8958 11.6811 12.3237C11.0663 11.7314 10.7545 10.8452 10.7545 9.69423C10.7545 8.54103 11.0663 7.65705 11.6811 7.0625C12.2734 6.49038 13.1372 6.20096 14.2455 6.20096C14.3622 6.20096 14.4564 6.29519 14.4564 6.41186C14.4564 6.52853 14.3622 6.62276 14.2455 6.62276C12.2083 6.62276 11.1763 7.65481 11.1763 9.69423C11.1763 11.7314 12.2083 12.7635 14.2455 12.7635C16.2827 12.7635 17.3147 11.7314 17.3147 9.69423C17.3147 9.57756 17.409 9.48333 17.5256 9.48333C17.6423 9.48333 17.7365 9.57756 17.7365 9.69423C17.7365 10.8474 17.4247 11.7314 16.8077 12.3237C16.2176 12.8958 15.3561 13.1853 14.2455 13.1853ZM2.22212 7.92404C2.09872 7.92404 2 7.82532 2 7.70192V5.13301C2.00224 4.51154 2.50929 4.00224 3.13077 4H5.50224C5.62564 4 5.72436 4.09872 5.72436 4.22212C5.72436 4.34551 5.62564 4.44423 5.50224 4.44423H3.13077C2.75385 4.44647 2.44423 4.75609 2.44423 5.13301V7.69968C2.44423 7.82532 2.34551 7.92404 2.22212 7.92404Z" fill="#86888C"/>
<path d="M5.50224 11.0067C4.39167 11.0067 3.52564 10.7151 2.93109 10.1429C2.31186 9.5484 2 8.65994 2 7.50449C2 7.38109 2.09872 7.28237 2.22212 7.28237C2.34551 7.28237 2.44423 7.38109 2.44423 7.50449C2.44423 9.53269 3.47179 10.5625 5.5 10.5625C7.52821 10.5625 8.55577 9.53269 8.55577 7.50449C8.55577 5.47404 7.52821 4.44423 5.5 4.44423C5.3766 4.44423 5.27788 4.34551 5.27788 4.22212C5.27788 4.09872 5.3766 4 5.5 4C6.61058 4 7.47436 4.29167 8.06891 4.86603C8.6859 5.46282 9 6.34904 9 7.50673C9 8.66218 8.68814 9.55064 8.06891 10.1452C7.4766 10.7173 6.61282 11.0067 5.50224 11.0067ZM9.65513 18C9.64391 18 9.63269 18 9.62147 17.9978C9.50481 17.9798 9.42628 17.8699 9.44647 17.7532C9.55641 17.0734 9.89519 15.0026 10.7253 13.0147C11.183 11.9199 11.7215 11.0202 12.3272 10.3426C13.0721 9.50801 13.9269 8.99872 14.8692 8.82821C14.9859 8.80801 15.0958 8.88429 15.116 8.99872C15.1362 9.11538 15.0599 9.22532 14.9455 9.24551C11.6429 9.8468 10.3439 14.8747 9.86378 17.8205C9.84808 17.9237 9.75609 18 9.65513 18Z" fill="#86888C"/>
<path d="M9.65343 17.9999C9.55022 17.9999 9.46048 17.9258 9.44253 17.8204C9.3999 17.5601 9.37747 17.1608 9.3483 16.656C9.2765 15.3659 9.16657 13.4162 8.60118 11.6101C7.93484 9.48096 6.79285 8.09442 5.20214 7.48641C5.09221 7.44378 5.03612 7.32038 5.07875 7.21045C5.12138 7.10051 5.24477 7.04442 5.35471 7.08705C9.32362 8.60371 9.62875 14.0265 9.77458 16.6313C9.8015 17.1249 9.82394 17.513 9.86208 17.7508C9.88003 17.8675 9.8015 17.9774 9.68708 17.9954C9.67811 17.9976 9.66465 17.9999 9.65343 17.9999Z" fill="#86888C"/>
</svg>
