<svg width="20" height="20" viewBox="0 0 20 20" fill="none" xmlns="http://www.w3.org/2000/svg">
<path fill-rule="evenodd" clip-rule="evenodd" d="M14.9761 5.79966C14.9715 5.82015 14.967 5.84064 14.967 5.86113C14.9192 6.97894 14.3113 7.52077 13.1093 7.52077C12.6722 7.52077 12.3193 7.44109 12.037 7.29539C12.4832 6.6329 13.0592 6.08651 13.7991 5.87934C13.9744 5.83381 14.0814 5.65623 14.0359 5.47866C14.0359 5.4741 14.0336 5.47183 14.0336 5.46727C13.9767 5.2897 13.7854 5.18953 13.6056 5.24189C12.7245 5.49004 12.0461 6.08423 11.5179 6.83324C11.3358 6.54866 11.2425 6.17758 11.2425 5.72225C11.2425 4.51565 11.8549 3.92829 13.1116 3.92829H14.6118C14.8099 3.92373 14.9738 4.08082 14.9784 4.27888L14.9761 5.79966ZM14.4935 11.0541V12.2675C14.4935 12.461 14.3295 12.6181 14.1292 12.6181H6.53216C6.33409 12.6227 6.17245 12.4656 6.1679 12.2698V11.0563C6.1679 10.8628 6.33182 10.7057 6.53216 10.7057H14.1292C14.3295 10.7035 14.4935 10.8606 14.4935 11.0541ZM13.0501 17.1167C13.0501 17.2373 12.9476 17.3375 12.8224 17.3375H7.84121C7.71372 17.3375 7.61127 17.2373 7.60899 17.0825L7.17188 13.2806H13.4849L13.0501 17.1167ZM7.56574 6.26636C6.35913 6.26636 5.749 5.71998 5.7012 4.61127C5.7012 4.58623 5.69892 4.56118 5.69209 4.53842V3.0222C5.69209 2.82413 5.85828 2.66249 6.06318 2.66249H7.57029C8.83153 2.66249 9.44394 3.25213 9.44394 4.46557C9.44394 4.90495 9.34832 5.26693 9.16847 5.55379C8.33295 4.21742 7.41093 3.95561 7.34491 3.93967C7.16505 3.89414 6.98293 3.99659 6.92829 4.17188C6.88048 4.34946 6.9852 4.53159 7.16278 4.5794H7.16733C7.18099 4.58167 7.95048 4.82299 8.65851 6.0387C8.36938 6.18896 8.00285 6.26636 7.56574 6.26636ZM14.6118 3.26579H13.1093C11.4815 3.26579 10.5504 4.1605 10.5504 5.72225C10.5504 6.31417 10.6824 6.81275 10.9602 7.23165L11.1355 7.4502C10.8076 8.04667 10.5572 8.69323 10.3637 9.32385C10.1907 7.9852 9.88332 6.96301 9.5259 6.2049L9.61924 6.10245C9.62379 6.09562 9.62834 6.08879 9.63517 6.08423C9.96756 5.66534 10.1338 5.11895 10.1338 4.46329C10.1315 2.87422 9.22083 2 7.56801 2H6.0609C5.47581 2 5 2.4576 5 3.0222V4.58395C5 4.60899 5.00455 4.63859 5.01138 4.66818C5.09106 6.12749 5.99488 6.93113 7.56346 6.93113C8.10302 6.93113 8.56517 6.82869 8.95674 6.62607C9.30962 7.42288 9.61468 8.52021 9.749 10.0273C9.749 10.0319 9.75356 10.0364 9.75356 10.041H6.53216C5.95162 10.041 5.47809 10.4963 5.47809 11.0541V12.2675C5.47809 12.8071 5.9243 13.2464 6.4798 13.2738L6.92146 17.1167C6.92146 17.6039 7.3358 18 7.84121 18H12.8201C13.3278 18 13.7399 17.6039 13.7376 17.1531L14.1838 13.2738C14.7393 13.2464 15.1855 12.8071 15.1855 12.2675V11.0541C15.1855 10.4963 14.712 10.041 14.1292 10.041H10.8759C11.0398 9.41264 11.3017 8.60672 11.6932 7.86682C12.0803 8.06944 12.547 8.18327 13.1093 8.18327C14.6688 8.18327 15.5703 7.39101 15.6568 5.93398C15.6636 5.90666 15.6682 5.87706 15.6682 5.84747V4.28344C15.6682 3.72112 15.1924 3.26579 14.6118 3.26579Z" fill="#86888C"/>
</svg>
