<svg width="24" height="24" viewBox="0 0 24 24" fill="none" xmlns="http://www.w3.org/2000/svg">
<path fill-rule="evenodd" clip-rule="evenodd" d="M17.4701 6.74957C17.4644 6.77519 17.4587 6.8008 17.4587 6.82641C17.399 8.22368 16.6392 8.90097 15.1366 8.90097C14.5902 8.90097 14.1491 8.80137 13.7962 8.61924C14.354 7.79112 15.074 7.10814 15.9989 6.84917C16.218 6.79226 16.3517 6.57029 16.2948 6.34832C16.2948 6.34263 16.292 6.33978 16.292 6.33409C16.2208 6.11212 15.9818 5.98691 15.757 6.05236C14.6557 6.36255 13.8076 7.10529 13.1474 8.04155C12.9197 7.68583 12.8031 7.22197 12.8031 6.65282C12.8031 5.14456 13.5686 4.41036 15.1394 4.41036H17.0148C17.2624 4.40467 17.4673 4.60102 17.473 4.84861L17.4701 6.74957ZM16.8668 13.3176V14.8344C16.8668 15.0763 16.6619 15.2726 16.4115 15.2726H6.9152C6.66762 15.2783 6.46557 15.082 6.45987 14.8372V13.3204C6.45987 13.0785 6.66477 12.8822 6.9152 12.8822H16.4115C16.6619 12.8793 16.8668 13.0757 16.8668 13.3176ZM15.0626 20.8958C15.0626 21.0467 14.9345 21.1719 14.778 21.1719H8.55151C8.39215 21.1719 8.26409 21.0467 8.26124 20.8532L7.71485 16.1007H15.6061L15.0626 20.8958ZM8.20717 7.33295C6.69892 7.33295 5.93625 6.64997 5.87649 5.26409C5.87649 5.23278 5.87365 5.20148 5.86511 5.17302V3.27775C5.86511 3.03017 6.07285 2.82812 6.32897 2.82812H8.21286C9.78941 2.82812 10.5549 3.56517 10.5549 5.08196C10.5549 5.63119 10.4354 6.08367 10.2106 6.44223C9.16619 4.77177 8.01366 4.44451 7.93113 4.42459C7.70632 4.36767 7.47866 4.49573 7.41036 4.71485C7.3506 4.93682 7.4815 5.16448 7.70347 5.22425H7.70916C7.72624 5.22709 8.6881 5.52874 9.57314 7.04838C9.21172 7.2362 8.75356 7.33295 8.20717 7.33295ZM17.0148 3.58224H15.1366C13.1019 3.58224 11.938 4.70063 11.938 6.65282C11.938 7.39271 12.103 8.01594 12.4502 8.53956L12.6693 8.81275C12.2595 9.55834 11.9465 10.3665 11.7046 11.1548C11.4883 9.4815 11.1042 8.20376 10.6574 7.25612L10.774 7.12806C10.7797 7.11952 10.7854 7.11098 10.794 7.10529C11.2094 6.58167 11.4172 5.89869 11.4172 5.07911C11.4143 3.09277 10.276 2 8.21002 2H6.32612C5.59476 2 5 2.572 5 3.27775V5.22994C5 5.26124 5.00569 5.29824 5.01423 5.33523C5.11383 7.15936 6.2436 8.16392 8.20433 8.16392C8.87877 8.16392 9.45646 8.03586 9.94593 7.78258C10.387 8.7786 10.7684 10.1503 10.9363 12.0341C10.9363 12.0398 10.9419 12.0455 10.9419 12.0512H6.9152C6.18953 12.0512 5.59761 12.6204 5.59761 13.3176V14.8344C5.59761 15.5088 6.15538 16.0581 6.84974 16.0922L7.40182 20.8958C7.40182 21.5048 7.91975 22 8.55151 22H14.7752C15.4098 22 15.9249 21.5048 15.922 20.9414L16.4798 16.0922C17.1742 16.0581 17.7319 15.5088 17.7319 14.8344V13.3176C17.7319 12.6204 17.14 12.0512 16.4115 12.0512H12.3449C12.5498 11.2658 12.8771 10.2584 13.3665 9.33352C13.8503 9.5868 14.4337 9.72908 15.1366 9.72908C17.0859 9.72908 18.2129 8.73876 18.321 6.91747C18.3295 6.88332 18.3352 6.84633 18.3352 6.80933V4.8543C18.3352 4.15139 17.7405 3.58224 17.0148 3.58224Z" fill="#86888C"/>
</svg>
