<svg width="24" height="24" viewBox="0 0 24 24" fill="none" xmlns="http://www.w3.org/2000/svg">
<path d="M21.9669 10.8435C21.8169 10.8435 21.6957 10.7224 21.6957 10.5724V7.27239C21.6928 6.77912 21.289 6.37527 20.7957 6.37239H17.7438C17.5938 6.37239 17.4727 6.25123 17.4727 6.10123C17.4727 5.95123 17.5938 5.83008 17.7438 5.83008H20.7928C21.5861 5.83296 22.2352 6.47912 22.2352 7.27239V10.5753C22.238 10.7224 22.1169 10.8435 21.9669 10.8435Z" fill="#86888C"/>
<path d="M17.7442 14.8096C16.3192 14.8096 15.2087 14.4375 14.4471 13.7019C13.6567 12.9404 13.2558 11.801 13.2558 10.3212C13.2558 8.83846 13.6567 7.70192 14.4471 6.9375C15.2087 6.20192 16.3192 5.82981 17.7442 5.82981C17.8942 5.82981 18.0154 5.95096 18.0154 6.10096C18.0154 6.25096 17.8942 6.37212 17.7442 6.37212C15.125 6.37212 13.7981 7.69904 13.7981 10.3212C13.7981 12.9404 15.125 14.2673 17.7442 14.2673C20.3635 14.2673 21.6904 12.9404 21.6904 10.3212C21.6904 10.1712 21.8115 10.05 21.9615 10.05C22.1115 10.05 22.2327 10.1712 22.2327 10.3212C22.2327 11.8038 21.8317 12.9404 21.0385 13.7019C20.2798 14.4375 19.1721 14.8096 17.7442 14.8096ZM2.28558 8.04519C2.12692 8.04519 2 7.91827 2 7.75961V4.45673C2.00288 3.65769 2.65481 3.00288 3.45385 3H6.50288C6.66154 3 6.78846 3.12692 6.78846 3.28558C6.78846 3.44423 6.66154 3.57115 6.50288 3.57115H3.45385C2.96923 3.57404 2.57115 3.97212 2.57115 4.45673V7.75673C2.57115 7.91827 2.44423 8.04519 2.28558 8.04519Z" fill="#86888C"/>
<path d="M6.50288 12.0087C5.075 12.0087 3.96154 11.6337 3.19712 10.8981C2.40096 10.1337 2 8.99135 2 7.50577C2 7.34712 2.12692 7.22019 2.28558 7.22019C2.44423 7.22019 2.57115 7.34712 2.57115 7.50577C2.57115 10.1135 3.89231 11.4375 6.5 11.4375C9.10769 11.4375 10.4288 10.1135 10.4288 7.50577C10.4288 4.89519 9.10769 3.57115 6.5 3.57115C6.34135 3.57115 6.21442 3.44423 6.21442 3.28558C6.21442 3.12692 6.34135 3 6.5 3C7.92788 3 9.03846 3.375 9.80288 4.11346C10.5962 4.88077 11 6.02019 11 7.50865C11 8.99423 10.599 10.1365 9.80288 10.901C9.04135 11.6365 7.93077 12.0087 6.50288 12.0087ZM11.8423 21C11.8279 21 11.8135 21 11.799 20.9971C11.649 20.974 11.5481 20.8327 11.574 20.6827C11.7154 19.8087 12.151 17.1462 13.2183 14.5904C13.8067 13.1827 14.499 12.026 15.2779 11.1548C16.2356 10.0817 17.3346 9.42692 18.5462 9.20769C18.6962 9.18173 18.8375 9.27981 18.8635 9.42692C18.8894 9.57692 18.7913 9.71827 18.6442 9.74423C14.3981 10.5173 12.7279 16.9817 12.1106 20.7692C12.0904 20.9019 11.9721 21 11.8423 21Z" fill="#86888C"/>
<path d="M11.8396 21.0001C11.7069 21.0001 11.5915 20.9049 11.5684 20.7693C11.5136 20.4347 11.4848 19.9212 11.4473 19.2722C11.3549 17.6135 11.2136 15.1068 10.4867 12.7847C9.62995 10.0472 8.16168 8.2645 6.11649 7.48277C5.97514 7.42796 5.90302 7.26931 5.95783 7.12796C6.01264 6.98661 6.17129 6.9145 6.31264 6.96931C11.4155 8.91931 11.8078 15.8914 11.9953 19.2405C12.0299 19.8751 12.0588 20.3741 12.1078 20.6799C12.1309 20.8299 12.0299 20.9712 11.8828 20.9943C11.8713 20.9972 11.854 21.0001 11.8396 21.0001Z" fill="#86888C"/>
</svg>
