<svg width="20" height="20" viewBox="0 0 20 20" fill="none" xmlns="http://www.w3.org/2000/svg">
<path fill-rule="evenodd" clip-rule="evenodd" d="M13.6651 7.93863C13.5832 8.01376 13.5422 8.12531 13.5604 8.23686L14.6805 15.3671L14.0339 15.6835L11.5388 10.4224C11.4933 10.3268 11.4068 10.2607 11.3043 10.238C11.2019 10.2152 11.0949 10.2448 11.0152 10.3154C10.2821 10.9665 9.57184 11.6403 8.8866 12.3415C8.24233 12.9903 7.73465 13.5026 6.81264 14.2106C6.72385 14.2789 6.67377 14.3882 6.68287 14.502L6.87411 16.9743L6.33911 17.2316L4.96862 14.9254C4.94357 14.8822 4.90715 14.8457 4.86617 14.8184L2.79449 13.457L3.07678 13.0245L5.3784 13.193C5.48995 13.2021 5.59923 13.152 5.66525 13.0632C6.35049 12.1776 6.86955 11.6722 7.52748 11.0325C8.07841 10.4975 8.69992 9.89193 9.58323 8.913C9.70616 8.77413 9.69478 8.56241 9.55591 8.43947C9.53087 8.41899 9.50582 8.40077 9.47623 8.38711L4.2515 5.97167L4.66583 5.31147L11.7687 6.35641C11.8757 6.37007 11.9873 6.33365 12.0601 6.25397C13.162 5.06332 14.8649 3.23751 15.0356 3.08498C15.3589 2.79358 15.6867 2.66154 15.9986 2.67064C16.3151 2.68658 16.6224 2.8596 16.9138 3.18287C17.4966 3.82942 17.4624 4.48052 16.8159 5.06332C16.5905 5.26593 13.6651 7.93863 13.6651 7.93863ZM17.4101 2.73666C17.0026 2.28362 16.5268 2.03093 16.035 2.00361C15.541 1.96946 15.0424 2.1789 14.5917 2.58641C14.364 2.7913 12.2673 5.04966 11.6936 5.67116L4.54973 4.61939C4.41996 4.60345 4.29247 4.66264 4.21962 4.77192L3.48657 5.93752C3.38868 6.09233 3.43421 6.29722 3.58901 6.39739C3.60267 6.4065 3.61633 6.41333 3.62999 6.42016L8.78415 8.80373C8.22867 9.40474 7.65497 9.98982 7.06306 10.5567C6.42107 11.1805 5.90656 11.679 5.24863 12.5168L2.92881 12.3483C2.80815 12.3392 2.69204 12.3962 2.62602 12.4986L2.0546 13.3705C1.95443 13.5253 1.99541 13.7302 2.15022 13.8327L4.4359 15.3352L5.9225 17.8372C6.01129 17.9851 6.19796 18.0421 6.35277 17.9669L7.36812 17.4775C7.49106 17.4183 7.56618 17.2885 7.5548 17.1519L7.36129 14.6295C8.22867 13.9511 8.73179 13.4457 9.36012 12.8128C9.82454 12.3438 10.3436 11.8202 11.1267 11.1122L13.5786 16.2754C13.6583 16.4416 13.8564 16.5122 14.0225 16.4348C14.0225 16.4348 14.0248 16.4348 14.0248 16.4325L15.1973 15.8588C15.3293 15.7951 15.4021 15.6517 15.3794 15.506L14.2479 8.30971C14.8193 7.7861 17.064 5.73718 17.2621 5.55961C18.1909 4.72183 18.2456 3.6655 17.4101 2.73666Z" fill="#86888C"/>
</svg>
