<svg width="20" height="20" viewBox="0 0 20 20" fill="none" xmlns="http://www.w3.org/2000/svg">
<path d="M9.99886 18C4.76726 18 2 15.235 2 10.0011C2 4.76726 4.76498 2 9.99886 2C12.552 2 14.5312 2.6605 15.8841 3.96555C17.2871 5.31843 18 7.35004 18 10.0011C18.0023 15.2327 15.235 18 9.99886 18ZM9.99886 2.45552C4.99502 2.45552 2.45552 4.99502 2.45552 10.0011C2.45552 15.005 4.99274 17.5445 9.99886 17.5445C15.0073 17.5445 17.5445 15.0073 17.5445 10.0011C17.5468 4.99274 15.0073 2.45552 9.99886 2.45552Z" fill="#86888C"/>
<path d="M7.52545 13.5177C7.48901 13.5177 7.45257 13.5086 7.42069 13.4904C7.35464 13.4517 7.31592 13.3834 7.31592 13.3082V6.61438C7.31592 6.53922 7.35691 6.46862 7.42069 6.43218C7.48674 6.39346 7.56645 6.39346 7.6325 6.43218L13.4289 9.77794C13.495 9.81666 13.5337 9.88499 13.5337 9.96015C13.5337 10.0353 13.4927 10.1059 13.4289 10.1424L7.63022 13.4904C7.59834 13.5086 7.5619 13.5177 7.52545 13.5177ZM7.73727 6.98107V12.9415L12.8983 9.96243L7.73727 6.98107Z" fill="#86888C"/>
</svg>
