<svg width="24" height="24" viewBox="0 0 24 24" fill="none" xmlns="http://www.w3.org/2000/svg">
<path fill-rule="evenodd" clip-rule="evenodd" d="M7 9.5C7 8.11929 8.11929 7 9.5 7H14.5C15.8807 7 17 8.11929 17 9.5V14.5C17 15.8807 15.8807 17 14.5 17H9.5C8.11929 17 7 15.8807 7 14.5V9.5ZM9.5 7.625H14.5C15.5355 7.625 16.375 8.46447 16.375 9.5V14.5C16.375 15.5355 15.5355 16.375 14.5 16.375H9.5C8.46447 16.375 7.625 15.5355 7.625 14.5V9.5C7.625 8.46447 8.46447 7.625 9.5 7.625Z" fill="#86888C"/>
<path fill-rule="evenodd" clip-rule="evenodd" d="M2 12.0014C2 18.5438 5.45907 22 11.9986 22C18.5438 22 22.0028 18.5409 22 12.0014C22 8.68755 21.1089 6.14804 19.3552 4.45694C17.6641 2.82562 15.19 2 11.9986 2C5.45623 2 2 5.45907 2 12.0014ZM2.56939 12.0014C2.56939 5.74377 5.74377 2.5694 11.9986 2.5694C18.2591 2.5694 21.4335 5.74093 21.4306 12.0014C21.4306 18.2591 18.2591 21.4306 11.9986 21.4306C5.74092 21.4306 2.56939 18.2562 2.56939 12.0014Z" fill="#86888C"/>
</svg>
