<svg width="20" height="20" viewBox="0 0 20 20" fill="none" xmlns="http://www.w3.org/2000/svg">
<path fill-rule="evenodd" clip-rule="evenodd" d="M10.0023 17.3307C5.13717 17.3307 2.66932 14.8651 2.66932 10.0023C2.66932 5.13489 5.13489 2.66932 10.0023 2.66932C14.8651 2.66932 17.3307 5.13489 17.3307 10.0023C17.3307 14.8651 14.8651 17.3307 10.0023 17.3307ZM10.0023 2C4.76836 2 2 4.76608 2 10.0023C2 15.2339 4.76608 18 10.0023 18C15.2339 18 18 15.2339 18 10.0023C18 4.76608 15.2339 2 10.0023 2ZM11.1474 11.6141V7.88048L14.2686 9.7564L11.1474 11.6141ZM10.6466 6.99715C10.5418 7.05635 10.4758 7.1679 10.4781 7.28856V12.2038C10.4781 12.3882 10.6261 12.5384 10.8105 12.5384H10.8127C10.8719 12.5384 10.9311 12.5225 10.9835 12.4929L15.0928 10.0455C15.2521 9.95219 15.3022 9.74502 15.2089 9.58793C15.1816 9.54013 15.1406 9.50142 15.0928 9.47183L10.9858 7.00171C10.881 6.94024 10.7536 6.93796 10.6466 6.99715ZM6.23221 11.6187V7.88503L9.35344 9.76096L6.23221 11.6187ZM5.73364 7.00171C5.62891 7.0609 5.56289 7.17245 5.56289 7.29311V12.2083C5.56289 12.3927 5.71087 12.543 5.89528 12.543H5.89755C5.95674 12.543 6.01594 12.527 6.0683 12.4974L10.1776 10.0501C10.3369 9.95675 10.387 9.74957 10.2937 9.59249C10.2664 9.54468 10.2254 9.50598 10.1776 9.47638L6.07058 7.00626C5.96585 6.94252 5.83836 6.94252 5.73364 7.00171Z" fill="#86888C"/>
</svg>
