<svg width="24" height="24" viewBox="0 0 24 24" fill="none" xmlns="http://www.w3.org/2000/svg">
<path d="M11.9986 22C5.45907 22 2 18.5438 2 12.0014C2 5.45908 5.45623 2 11.9986 2C15.19 2 17.6641 2.82562 19.3552 4.45694C21.1089 6.14804 22 8.68754 22 12.0014C22.0028 18.5409 18.5438 22 11.9986 22ZM11.9986 2.5694C5.74377 2.5694 2.56939 5.74377 2.56939 12.0014C2.56939 18.2562 5.74092 21.4306 11.9986 21.4306C18.2591 21.4306 21.4306 18.2591 21.4306 12.0014C21.4335 5.74093 18.2591 2.5694 11.9986 2.5694Z" fill="#86888C"/>
<path d="M8.90694 16.3971C8.86139 16.3971 8.81584 16.3857 8.77598 16.3629C8.69342 16.3145 8.64502 16.2291 8.64502 16.1352V7.7679C8.64502 7.67395 8.69627 7.5857 8.77598 7.54014C8.85854 7.49175 8.95819 7.49175 9.04075 7.54014L16.2863 11.7224C16.3689 11.7708 16.4173 11.8562 16.4173 11.9501C16.4173 12.0441 16.366 12.1323 16.2863 12.1779L9.0379 16.3629C8.99804 16.3857 8.95249 16.3971 8.90694 16.3971ZM9.17171 8.22627V15.6768L15.623 11.953L9.17171 8.22627Z" fill="#86888C"/>
</svg>
