<svg width="40" height="40" viewBox="0 0 40 40" fill="none" xmlns="http://www.w3.org/2000/svg">
<path d="M19.9974 38C8.22633 38 2 31.7788 2 20.0026C2 8.22634 8.22121 2 19.9974 2C25.7421 2 30.1953 3.48612 33.2393 6.42249C36.396 9.46648 38 14.0376 38 20.0026C38.0051 31.7737 31.7788 38 19.9974 38ZM19.9974 3.02491C8.73879 3.02491 3.02491 8.73879 3.02491 20.0026C3.02491 31.2612 8.73366 36.9751 19.9974 36.9751C31.2663 36.9751 36.9751 31.2663 36.9751 20.0026C36.9802 8.73367 31.2663 3.02491 19.9974 3.02491Z" fill="#86888C"/>
<path d="M14.427 28.1455C14.1452 28.1455 13.9146 27.9149 13.9146 27.633V12.3875C13.9146 12.1056 14.1452 11.875 14.427 11.875C14.7089 11.875 14.9395 12.1056 14.9395 12.3875V27.633C14.9395 27.9149 14.7089 28.1455 14.427 28.1455ZM25.4858 28.0943C25.2039 28.0943 24.9733 27.8636 24.9733 27.5818V12.3362C24.9733 12.0544 25.2039 11.8238 25.4858 11.8238C25.7676 11.8238 25.9983 12.0544 25.9983 12.3362V27.5818C25.9983 27.8636 25.7676 28.0943 25.4858 28.0943Z" fill="#86888C"/>
</svg>
