<svg width="24" height="24" viewBox="0 0 24 24" fill="none" xmlns="http://www.w3.org/2000/svg">
<path d="M11.9986 22C5.45907 22 2 18.5438 2 12.0014C2 5.45907 5.45623 2 11.9986 2C15.19 2 17.6641 2.82562 19.3552 4.45694C21.1089 6.14804 22 8.68754 22 12.0014C22.0028 18.5409 18.5438 22 11.9986 22ZM11.9986 2.5694C5.74377 2.5694 2.56939 5.74377 2.56939 12.0014C2.56939 18.2562 5.74092 21.4306 11.9986 21.4306C18.2591 21.4306 21.4306 18.2591 21.4306 12.0014C21.4335 5.74093 18.2591 2.5694 11.9986 2.5694Z" fill="#86888C"/>
<path d="M8.90384 16.5253C8.74725 16.5253 8.61914 16.3972 8.61914 16.2406V7.77087C8.61914 7.61429 8.74725 7.48617 8.90384 7.48617C9.06042 7.48617 9.18854 7.61429 9.18854 7.77087V16.2406C9.18854 16.3972 9.06042 16.5253 8.90384 16.5253ZM15.0476 16.4968C14.891 16.4968 14.7629 16.3687 14.7629 16.2122V7.7424C14.7629 7.58582 14.891 7.4577 15.0476 7.4577C15.2042 7.4577 15.3323 7.58582 15.3323 7.7424V16.2122C15.3323 16.3687 15.2042 16.4968 15.0476 16.4968Z" fill="#86888C"/>
</svg>
