<svg width="28" height="28" viewBox="0 0 28 28" fill="none" xmlns="http://www.w3.org/2000/svg">
<path fill-rule="evenodd" clip-rule="evenodd" d="M8 11C8 9.34315 9.34315 8 11 8H17C18.6569 8 20 9.34315 20 11V17C20 18.6569 18.6569 20 17 20H11C9.34315 20 8 18.6569 8 17V11ZM11 8.75H17C18.2426 8.75 19.25 9.75736 19.25 11V17C19.25 18.2426 18.2426 19.25 17 19.25H11C9.75736 19.25 8.75 18.2426 8.75 17V11C8.75 9.75736 9.75736 8.75 11 8.75Z" fill="#86888C"/>
<path fill-rule="evenodd" clip-rule="evenodd" d="M2 14.0017C2 21.8525 6.15089 26 13.9983 26C21.8525 26 26.0034 21.8491 26 14.0017C26 10.0251 24.9307 6.97765 22.8262 4.94833C20.7969 2.99075 17.828 2 13.9983 2C6.14747 2 2 6.15089 2 14.0017ZM2.68327 14.0017C2.68327 6.49253 6.49253 2.68327 13.9983 2.68327C21.5109 2.68327 25.3201 6.48911 25.3167 14.0017C25.3167 21.5109 21.5109 25.3167 13.9983 25.3167C6.48911 25.3167 2.68327 21.5075 2.68327 14.0017Z" fill="#86888C"/>
</svg>
