<svg width="24" height="24" viewBox="0 0 24 24" fill="none" xmlns="http://www.w3.org/2000/svg">
<path d="M11.9986 22C5.45907 22 2 18.5438 2 12.0014C2 5.45908 5.45623 2 11.9986 2C15.19 2 17.6641 2.82562 19.3552 4.45694C21.1089 6.14804 22 8.68754 22 12.0014C22.0028 18.5409 18.5438 22 11.9986 22ZM11.9986 2.5694C5.74377 2.5694 2.56939 5.74377 2.56939 12.0014C2.56939 18.2562 5.74092 21.4306 11.9986 21.4306C18.2591 21.4306 21.4306 18.2591 21.4306 12.0014C21.4335 5.74093 18.2591 2.5694 11.9986 2.5694Z" fill="#86888C"/>
<path d="M11.1132 15.3096C11.062 15.3096 11.0136 15.2954 10.968 15.2698L5.36802 11.936C5.28261 11.8847 5.22852 11.7908 5.22852 11.6911C5.22852 11.5915 5.27976 11.4975 5.36517 11.4463L10.9623 8.08402C11.0506 8.02993 11.1588 8.02993 11.2499 8.08118C11.3381 8.13242 11.3951 8.22637 11.3951 8.32886V15.0221C11.3951 15.1246 11.341 15.2185 11.2499 15.2698C11.21 15.2954 11.1616 15.3096 11.1132 15.3096ZM6.06837 11.6911L10.8257 14.5239V8.83278L6.06837 11.6911Z" fill="#86888C"/>
<path d="M17.2398 15.3124C17.1885 15.3124 17.1401 15.2982 17.0946 15.2726L11.4974 11.9416C11.412 11.8904 11.3579 11.7964 11.3579 11.6968C11.3579 11.5971 11.4092 11.5032 11.4946 11.4519L17.0917 8.08964C17.18 8.03555 17.2882 8.03555 17.3793 8.08679C17.4675 8.13804 17.5245 8.23199 17.5245 8.33448V15.0277C17.5245 15.1302 17.4704 15.2242 17.3793 15.2754C17.3366 15.301 17.2882 15.3124 17.2398 15.3124ZM12.1978 11.6968L16.9551 14.5295V8.83839L12.1978 11.6968Z" fill="#86888C"/>
</svg>
