<svg width="24" height="24" viewBox="0 0 24 24" fill="none" xmlns="http://www.w3.org/2000/svg">
<path d="M11.9986 22C5.45907 22 2 18.5438 2 12.0014C2 5.45908 5.45623 2 11.9986 2C15.19 2 17.6641 2.82562 19.3552 4.45694C21.1089 6.14804 22 8.68754 22 12.0014C22.0028 18.5409 18.5438 22 11.9986 22ZM11.9986 2.5694C5.74377 2.5694 2.56939 5.74377 2.56939 12.0014C2.56939 18.2562 5.74092 21.4306 11.9986 21.4306C18.2591 21.4306 21.4306 18.2591 21.4306 12.0014C21.4335 5.74093 18.2591 2.5694 11.9986 2.5694Z" fill="#86888C"/>
<path d="M12.0013 18.1423C10.0483 18.1423 8.52797 17.6327 7.48882 16.6306C6.40982 15.5886 5.86035 14.0313 5.86035 12.0014C5.86035 10.3103 6.24185 8.94088 6.99345 7.9302C7.73081 6.9423 8.81551 6.29888 10.2248 6.01988C10.3785 5.98856 10.5294 6.08821 10.5607 6.24479C10.592 6.39853 10.4924 6.54942 10.3358 6.58073C7.74505 7.09603 6.42975 8.92095 6.42975 12.0042C6.42975 15.7024 8.30306 17.5758 12.0013 17.5758C15.6995 17.5758 17.5757 15.7024 17.5757 12.0042C17.5757 8.88109 16.2233 7.04764 13.5614 6.5608C13.4077 6.53233 13.3052 6.38429 13.3337 6.23055C13.3621 6.07682 13.5102 5.97433 13.6639 6.0028C15.1073 6.26757 16.2233 6.90244 16.9806 7.89319C17.755 8.90671 18.1479 10.2903 18.1479 12.0071C18.1479 14.037 17.5984 15.5943 16.5194 16.6362C15.4746 17.6327 13.9543 18.1423 12.0013 18.1423Z" fill="#86888C"/>
<path d="M12.0015 9.20278C11.8449 9.20278 11.7168 9.07467 11.7168 8.91808V4.75296C11.7168 4.59638 11.8449 4.46826 12.0015 4.46826C12.1581 4.46826 12.2862 4.59638 12.2862 4.75296V8.91808C12.2862 9.07467 12.1581 9.20278 12.0015 9.20278Z" fill="#86888C"/>
</svg>
