<svg width="40" height="40" viewBox="0 0 40 40" fill="none" xmlns="http://www.w3.org/2000/svg">
<path d="M19.9974 38C8.22633 38 2 31.7788 2 20.0026C2 8.22634 8.22121 2 19.9974 2C25.7421 2 30.1953 3.48612 33.2393 6.42249C36.396 9.46648 38 14.0376 38 20.0026C38.0051 31.7737 31.7788 38 19.9974 38ZM19.9974 3.02491C8.73879 3.02491 3.02491 8.73879 3.02491 20.0026C3.02491 31.2612 8.73366 36.9751 19.9974 36.9751C31.2663 36.9751 36.9751 31.2663 36.9751 20.0026C36.9802 8.73367 31.2663 3.02491 19.9974 3.02491Z" fill="#86888C"/>
<path d="M14.4324 27.9146C14.3504 27.9146 14.2684 27.8941 14.1967 27.8531C14.0481 27.766 13.9609 27.6122 13.9609 27.4431V12.382C13.9609 12.2129 14.0532 12.0541 14.1967 11.9721C14.3453 11.885 14.5246 11.885 14.6733 11.9721L27.7152 19.5C27.8638 19.5872 27.951 19.7409 27.951 19.91C27.951 20.0791 27.8587 20.238 27.7152 20.32L14.6681 27.8531C14.5964 27.8941 14.5144 27.9146 14.4324 27.9146ZM14.909 13.2071V26.6181L26.5212 19.9151L14.909 13.2071Z" fill="#86888C"/>
</svg>
