<svg width="24" height="24" viewBox="0 0 24 24" fill="none" xmlns="http://www.w3.org/2000/svg">
<path fill-rule="evenodd" clip-rule="evenodd" d="M12.0028 21.1633C5.92146 21.1633 2.83665 18.0814 2.83665 12.0028C2.83665 5.91861 5.91861 2.83665 12.0028 2.83665C18.0814 2.83665 21.1633 5.91861 21.1633 12.0028C21.1633 18.0814 18.0814 21.1633 12.0028 21.1633ZM12.0028 2C5.46044 2 2 5.4576 2 12.0028C2 18.5424 5.4576 22 12.0028 22C18.5424 22 22 18.5424 22 12.0028C22 5.4576 18.5424 2 12.0028 2ZM13.4343 14.0176V9.3506L17.3358 11.6955L13.4343 14.0176ZM12.8082 8.24644C12.6773 8.32043 12.5948 8.45988 12.5976 8.6107V14.7547C12.5976 14.9852 12.7826 15.173 13.0131 15.173H13.0159C13.0899 15.173 13.1639 15.1531 13.2294 15.1161L18.366 12.0569C18.5652 11.9402 18.6278 11.6813 18.5111 11.4849C18.4769 11.4252 18.4257 11.3768 18.366 11.3398L13.2322 8.25213C13.1013 8.1753 12.9419 8.17245 12.8082 8.24644ZM7.29027 14.0233V9.35629L11.1918 11.7012L7.29027 14.0233ZM6.66705 8.25213C6.53614 8.32612 6.45361 8.46557 6.45361 8.61639V14.7604C6.45361 14.9909 6.63859 15.1787 6.8691 15.1787H6.87194C6.94593 15.1787 7.01992 15.1588 7.08537 15.1218L12.222 12.0626C12.4212 11.9459 12.4838 11.687 12.3671 11.4906C12.333 11.4308 12.2817 11.3825 12.222 11.3455L7.08822 8.25783C6.95731 8.17814 6.79795 8.17814 6.66705 8.25213Z" fill="#86888C"/>
</svg>
