<svg width="24" height="24" viewBox="0 0 24 24" fill="none" xmlns="http://www.w3.org/2000/svg">
<path fill-rule="evenodd" clip-rule="evenodd" d="M12.4155 2H11.4906C2.45817 2.08253 2 10.3324 2 12C2 13.6676 2.45817 21.8833 11.5589 22H12.4496C14.0489 22 22 21.3597 22 12C22 2.6403 14.0176 2.05122 12.4155 2ZM12.4155 21.1662H11.5817C9.49858 21.1662 2.83096 20.4007 2.83096 12C2.83096 3.59932 9.49858 2.83381 11.4991 2.83381H12.3984C14.4986 2.89072 21.1662 3.66762 21.1662 12C21.1662 20.3324 14.5014 21.1662 12.4411 21.1662H12.4155ZM8.90951 8.14105C7.64315 8.14105 6.16904 8.8155 6.16904 11.9999C6.16904 14.5582 7.10245 15.8588 8.94366 15.8588C10.2015 15.8588 11.7012 15.1843 11.7012 11.9999C11.7012 8.8155 10.1673 8.14105 8.90951 8.14105ZM8.90951 14.9424C8.0757 14.9424 7.08538 14.6095 7.08538 12.017C7.08538 9.42449 8.06148 9.06592 8.90951 9.06592C9.76039 9.06592 10.7251 9.39888 10.7251 12.017C10.7251 14.6351 9.74901 14.9424 8.90951 14.9424ZM17.2818 8.27502H17.5663H17.5863C17.7513 8.27787 17.8822 8.41731 17.8765 8.58237V15.4264C17.8765 15.5972 17.7399 15.7338 17.5692 15.7338H17.3358C17.2305 15.7338 17.1338 15.6797 17.0769 15.5915L13.5339 10.2244V15.415C13.5339 15.5886 13.3916 15.7309 13.218 15.7309H12.9334C12.7627 15.7281 12.6261 15.5858 12.6261 15.415V8.58237C12.6261 8.41447 12.7627 8.27502 12.9334 8.27502H13.1582C13.2607 8.27502 13.3574 8.3234 13.4172 8.40877L16.9972 13.7816V8.58237C16.9972 8.423 17.1224 8.28925 17.2818 8.27502Z" fill="#86888C"/>
</svg>
