<svg width="28" height="28" viewBox="0 0 28 28" fill="none" xmlns="http://www.w3.org/2000/svg">
<path d="M13.9983 26C6.15089 26 2 21.8525 2 14.0017C2 6.15089 6.14747 2 13.9983 2C17.828 2 20.7969 2.99075 22.8262 4.94833C24.9307 6.97765 26 10.0251 26 14.0017C26.0034 21.8491 21.8525 26 13.9983 26ZM13.9983 2.68327C6.49253 2.68327 2.68327 6.49253 2.68327 14.0017C2.68327 21.5075 6.48911 25.3167 13.9983 25.3167C21.5109 25.3167 25.3167 21.5109 25.3167 14.0017C25.3201 6.48911 21.5109 2.68327 13.9983 2.68327Z" fill="#86888C"/>
<path d="M14.0019 21.3708C11.6583 21.3708 9.83395 20.7593 8.58698 19.5567C7.29217 18.3063 6.63281 16.4376 6.63281 14.0017C6.63281 11.9724 7.09061 10.3291 7.99253 9.11631C8.87737 7.93083 10.179 7.15873 11.8701 6.82393C12.0546 6.78635 12.2357 6.90592 12.2732 7.09382C12.3108 7.2783 12.1912 7.45937 12.0033 7.49695C8.89445 8.11532 7.31609 10.3052 7.31609 14.0051C7.31609 18.443 9.56406 20.691 14.0019 20.691C18.4398 20.691 20.6912 18.443 20.6912 14.0051C20.6912 10.2574 19.0684 8.05724 15.8741 7.47304C15.6896 7.43887 15.5666 7.26122 15.6008 7.07674C15.6349 6.89225 15.8126 6.76927 15.9971 6.80343C17.7292 7.12115 19.0684 7.883 19.9772 9.0719C20.9064 10.2881 21.3779 11.9485 21.3779 14.0086C21.3779 16.4444 20.7185 18.3132 19.4237 19.5636C18.1699 20.7593 16.3456 21.3708 14.0019 21.3708Z" fill="#86888C"/>
<path d="M14.0018 10.6433C13.8139 10.6433 13.6602 10.4896 13.6602 10.3017V5.30355C13.6602 5.11565 13.8139 4.96191 14.0018 4.96191C14.1897 4.96191 14.3434 5.11565 14.3434 5.30355V10.3017C14.3434 10.4896 14.1897 10.6433 14.0018 10.6433Z" fill="#86888C"/>
</svg>
