<svg width="40" height="40" viewBox="0 0 40 40" fill="none" xmlns="http://www.w3.org/2000/svg">
<path fill-rule="evenodd" clip-rule="evenodd" d="M20.0051 36.494C9.05862 36.494 3.50598 30.9465 3.50598 20.0051C3.50598 9.0535 9.0535 3.50598 20.0051 3.50598C30.9465 3.50598 36.494 9.0535 36.494 20.0051C36.494 30.9465 30.9465 36.494 20.0051 36.494ZM20.0051 2C8.2288 2 2 8.22368 2 20.0051C2 31.7763 8.22368 38 20.0051 38C31.7763 38 38 31.7763 38 20.0051C38 8.22368 31.7763 2 20.0051 2ZM22.5817 23.6318V15.2311L29.6044 19.4519L22.5817 23.6318ZM21.4548 13.2436C21.2191 13.3768 21.0706 13.6278 21.0757 13.8993V24.9585C21.0757 25.3734 21.4087 25.7114 21.8236 25.7114H21.8287C21.9619 25.7114 22.095 25.6756 22.2129 25.609L31.4587 20.1024C31.8173 19.8924 31.93 19.4263 31.72 19.0729C31.6585 18.9653 31.5663 18.8782 31.4587 18.8116L22.218 13.2538C21.9824 13.1155 21.6955 13.1104 21.4548 13.2436ZM11.5225 23.642V15.2413L18.5452 19.4622L11.5225 23.642ZM10.4007 13.2538C10.1651 13.387 10.0165 13.638 10.0165 13.9095V24.9687C10.0165 25.3836 10.3495 25.7217 10.7644 25.7217H10.7695C10.9027 25.7217 11.0359 25.6858 11.1537 25.6192L20.3995 20.1127C20.7581 19.9027 20.8708 19.4365 20.6608 19.0831C20.5993 18.9755 20.5071 18.8884 20.3995 18.8219L11.1588 13.2641C10.9232 13.1207 10.6363 13.1207 10.4007 13.2538Z" fill="#86888C"/>
</svg>
