<svg width="20" height="20" viewBox="0 0 20 20" fill="none" xmlns="http://www.w3.org/2000/svg">
<path fill-rule="evenodd" clip-rule="evenodd" d="M14.3136 7.22253C14.3136 8.89812 13.7285 10.1093 12.5765 10.8173C12.4764 10.8788 12.4149 10.9858 12.4149 11.1041V12.3267C12.4149 12.6522 12.3307 12.8913 12.1622 13.0438C11.996 13.1963 11.7342 13.2738 11.3859 13.2738H8.63119C8.28059 13.2738 8.01878 13.1963 7.84348 13.0393C7.67046 12.889 7.58395 12.65 7.58395 12.329V11.111C7.58395 10.9926 7.52248 10.8833 7.42231 10.8241C6.27262 10.1207 5.68753 8.90039 5.68753 7.16334C5.68753 7.0996 5.7399 7.04496 5.8082 7.04496L14.1975 7.04951C14.2635 7.04951 14.3181 7.10187 14.3181 7.1679C14.3136 7.16562 14.3136 7.22253 14.3136 7.22253ZM9.33238 17.3238H10.6665V13.9476H9.33238V17.3238ZM7.04895 3.16107C7.04895 2.89471 7.26978 2.67615 7.53842 2.67615C7.80933 2.67615 8.03016 2.89471 8.03016 3.16107V6.36881H7.04895V3.16107ZM11.8458 3.16107C11.8458 2.89471 12.0666 2.67615 12.3352 2.67615C12.6061 2.67615 12.827 2.89471 12.827 3.16107V6.37108H11.848L11.8458 3.16107ZM14.1952 6.37108H13.5122V3.16107C13.5122 2.52134 12.9863 2 12.3352 2C11.6887 2 11.1605 2.51907 11.1605 3.16107V6.37108L8.71542 6.36881V3.16107C8.71542 2.52134 8.18952 2 7.53842 2C6.88958 2 6.36369 2.51907 6.36369 3.16107V6.36881H5.80592C5.36198 6.36881 5 6.72396 5 7.19749C5 9.49003 5.99715 10.683 6.89869 11.2931V12.3267C6.89869 12.8458 7.06943 13.2669 7.38588 13.5401C7.68412 13.811 8.10301 13.9476 8.63346 13.9476H8.6494V17.383C8.6494 17.7222 8.92942 18 9.27547 18H10.7279C11.0717 18.0023 11.3517 17.7268 11.354 17.383V13.9476H11.3904C11.9163 13.9476 12.3329 13.811 12.6289 13.5401C12.9408 13.2624 13.1047 12.8412 13.1047 12.3244V11.284C14.0063 10.6716 15.0034 9.48548 15.0034 7.22026V7.16334C14.9989 6.72851 14.6391 6.37108 14.1952 6.37108Z" fill="#86888C"/>
</svg>
