<svg width="24" height="24" viewBox="0 0 24 24" fill="none" xmlns="http://www.w3.org/2000/svg">
<path fill-rule="evenodd" clip-rule="evenodd" d="M9.39508 4.77422C9.36093 4.87096 9.3837 4.9734 9.45483 5.04453L10.3824 5.97496C10.4763 6.0717 10.5275 6.23104 10.5076 6.36478L10.2885 7.67648C10.2714 7.77892 10.3084 7.87566 10.391 7.93257C10.4621 7.98094 10.5474 7.98663 10.6214 7.94395L11.771 7.32366C11.8335 7.28952 11.9075 7.27244 11.9787 7.27244C12.0583 7.27244 12.1352 7.29236 12.2034 7.3322L13.3359 7.94395C13.4099 7.98378 13.4981 7.97809 13.5664 7.93257C13.6489 7.87566 13.6887 7.77892 13.6688 7.67648L13.4497 6.36478C13.4269 6.22535 13.481 6.06032 13.5863 5.96358L14.5025 5.04453C14.5708 4.9734 14.5935 4.87096 14.5622 4.77422C14.5338 4.68886 14.4627 4.62342 14.3744 4.61204L13.0912 4.4214C12.9546 4.40148 12.8237 4.30474 12.764 4.18239L12.1864 2.9788C12.1039 2.80808 11.8506 2.80808 11.771 2.9788L11.1962 4.17385C11.1307 4.30758 10.9856 4.41002 10.8348 4.42424L9.58287 4.61204C9.49467 4.62342 9.42353 4.68602 9.39508 4.77422ZM9.63693 6.41884L8.85162 5.63067C8.55854 5.33476 8.45896 4.90511 8.59269 4.5096C8.72357 4.11979 9.05648 3.84379 9.45768 3.78119L10.5247 3.62185L11.0055 2.61744C11.1877 2.23901 11.5604 2 11.9815 2C12.3998 2 12.7754 2.23616 12.9546 2.6146L13.4383 3.61901L14.5053 3.77835C14.9065 3.8381 15.2394 4.11694 15.3703 4.50676C15.5041 4.90226 15.4045 5.33191 15.1086 5.62783L14.3232 6.41599L14.5082 7.53706C14.5765 7.95817 14.4057 8.36791 14.0586 8.61261C13.7314 8.84308 13.2818 8.86869 12.929 8.67805L11.9815 8.16304L11.034 8.67805C10.8718 8.76625 10.6954 8.80893 10.5218 8.80893C10.3056 8.80893 10.0893 8.74349 9.90724 8.61261C9.56011 8.36791 9.38654 7.95817 9.45483 7.53706L9.63693 6.41884ZM21.1492 21.1179V17.3791C21.1322 17.3763 21.1151 17.3763 21.098 17.3763H15.6634C15.6463 17.3763 15.6293 17.3763 15.615 17.3791V21.1179C15.6293 21.1179 15.6463 21.1208 15.6634 21.1208H21.098C21.1151 21.1208 21.1322 21.1208 21.1492 21.1179ZM9.28126 21.1407H14.7159L14.7671 11.7084L9.28126 11.7055L9.23289 20.6741V21.1379L9.28126 21.1407ZM2.89913 21.1208H8.33376C8.35083 21.1208 8.36791 21.1179 8.38213 21.1151V14.8923C8.36791 14.8866 8.35083 14.8838 8.33376 14.8838H2.89913C2.88206 14.8838 2.86499 14.8866 2.85076 14.8923V21.1179C2.86214 21.1208 2.88206 21.1208 2.89913 21.1208ZM15.6634 22H2.89913C2.40404 22 2 21.6529 2 21.2517V14.7529C2 14.3175 2.46379 14.0245 2.89913 14.0245H8.33376C8.35083 14.0245 8.36791 14.033 8.38213 14.033V11.7055C8.38213 11.2474 8.80324 10.8434 9.28126 10.8434H14.7159C15.1939 10.8434 15.615 11.2474 15.615 11.7055V16.5198C15.6293 16.5198 15.6492 16.5142 15.6634 16.5142H21.098C21.5447 16.5142 21.9972 16.7276 21.9972 17.1373V21.3513C21.9972 21.7183 21.6244 21.9943 21.0952 21.9943H15.6634V22Z" fill="#86888C"/>
</svg>
