<svg width="40" height="40" viewBox="0 0 40 40" fill="none" xmlns="http://www.w3.org/2000/svg">
<path fill-rule="evenodd" clip-rule="evenodd" d="M15.3111 6.9936C15.2497 7.16773 15.2907 7.35211 15.4187 7.48015L17.0884 9.15493C17.2574 9.32907 17.3496 9.61588 17.3137 9.8566L16.9193 12.2177C16.8886 12.4021 16.9552 12.5762 17.1037 12.6786C17.2318 12.7657 17.3854 12.7759 17.5186 12.6991L19.5877 11.5826C19.7004 11.5211 19.8335 11.4904 19.9616 11.4904C20.105 11.4904 20.2433 11.5262 20.3662 11.598L22.4046 12.6991C22.5378 12.7708 22.6965 12.7606 22.8195 12.6786C22.968 12.5762 23.0397 12.4021 23.0038 12.2177L22.6095 9.8566C22.5685 9.60564 22.6658 9.30858 22.8553 9.13444L24.5045 7.48015C24.6274 7.35211 24.6684 7.16773 24.612 6.9936C24.5608 6.83995 24.4328 6.72215 24.274 6.70166L21.9641 6.35852C21.7183 6.32266 21.4827 6.14853 21.3752 5.9283L20.3355 3.76184C20.1869 3.45455 19.7311 3.45455 19.5877 3.76184L18.5531 5.91293C18.4353 6.15365 18.1741 6.33803 17.9027 6.36364L15.6492 6.70166C15.4904 6.72215 15.3624 6.83483 15.3111 6.9936ZM15.7465 9.95391L14.3329 8.53521C13.8054 8.00256 13.6261 7.22919 13.8668 6.51729C14.1024 5.81562 14.7017 5.31882 15.4238 5.20615L17.3444 4.91933L18.21 3.1114C18.5378 2.43022 19.2087 2 19.9667 2C20.7196 2 21.3956 2.4251 21.7183 3.10627L22.589 4.91421L24.5096 5.20102C25.2318 5.30858 25.831 5.8105 26.0666 6.51216C26.3073 7.22407 26.128 7.99744 25.5954 8.53009L24.1818 9.94878L24.5147 11.9667C24.6376 12.7247 24.3303 13.4622 23.7055 13.9027C23.1165 14.3175 22.3073 14.3636 21.6722 14.0205L19.9667 13.0935L18.2612 14.0205C17.9693 14.1793 17.6517 14.2561 17.3393 14.2561C16.9501 14.2561 16.5608 14.1383 16.233 13.9027C15.6082 13.4622 15.2958 12.7247 15.4187 11.9667L15.7465 9.95391ZM36.4686 36.4123V29.6825C36.4379 29.6773 36.4072 29.6773 36.3764 29.6773H26.5941C26.5634 29.6773 26.5327 29.6773 26.507 29.6825V36.4123C26.5327 36.4123 26.5634 36.4174 26.5941 36.4174H36.3764C36.4072 36.4174 36.4379 36.4174 36.4686 36.4123ZM15.1063 36.4533H24.8886L24.9808 19.475L15.1063 19.4699L15.0192 35.6133V36.4481L15.1063 36.4533ZM3.61844 36.4174H13.4008C13.4315 36.4174 13.4622 36.4123 13.4878 36.4072V25.2061C13.4622 25.1959 13.4315 25.1908 13.4008 25.1908H3.61844C3.58771 25.1908 3.55698 25.1959 3.53137 25.2061V36.4123C3.55186 36.4174 3.58771 36.4174 3.61844 36.4174ZM26.5941 38H3.61844C2.72727 38 2 37.3752 2 36.653V24.9552C2 24.1716 2.83483 23.644 3.61844 23.644H13.4008C13.4315 23.644 13.4622 23.6594 13.4878 23.6594V19.4699C13.4878 18.6453 14.2458 17.9181 15.1063 17.9181H24.8886C25.749 17.9181 26.507 18.6453 26.507 19.4699V28.1357C26.5327 28.1357 26.5685 28.1255 26.5941 28.1255H36.3764C37.1805 28.1255 37.9949 28.5096 37.9949 29.2471V36.8323C37.9949 37.493 37.3239 37.9898 36.3713 37.9898H26.5941V38Z" fill="#86888C"/>
</svg>
