<svg width="28" height="28" viewBox="0 0 28 28" fill="none" xmlns="http://www.w3.org/2000/svg">
<path d="M20.7624 18.6728H16.7277C16.2631 18.6728 15.9863 18.3926 15.9863 17.9246V6.73598C15.9863 6.28161 16.2699 5.99805 16.7277 5.99805H21.6575C21.7497 5.99805 21.8352 6.03563 21.9001 6.09712L25.231 9.42808C25.2959 9.49299 25.3301 9.5784 25.3301 9.67064V17.9451C25.3301 18.3926 25.0534 18.6728 24.6058 18.6728H20.7624ZM16.673 17.9861C16.6901 17.9895 16.7106 17.9895 16.7277 17.9895H24.6024C24.6161 17.9895 24.6297 17.9895 24.6434 17.9861C24.6468 17.9724 24.6468 17.9588 24.6468 17.9451V9.81072L21.514 6.68132H16.7277C16.7106 6.68132 16.6901 6.68132 16.673 6.68474C16.6696 6.70182 16.6696 6.7189 16.6696 6.73598V17.9246C16.6696 17.9451 16.6696 17.9656 16.673 17.9861Z" fill="#86888C"/>
<path d="M22.9981 12.3512H18.3348C18.1469 12.3512 17.9932 12.1975 17.9932 12.0096C17.9932 11.8217 18.1469 11.668 18.3348 11.668H22.9981C23.186 11.668 23.3398 11.8217 23.3398 12.0096C23.3398 12.1975 23.186 12.3512 22.9981 12.3512ZM22.9981 14.3498H18.3348C18.1469 14.3498 17.9932 14.1961 17.9932 14.0082C17.9932 13.8203 18.1469 13.6665 18.3348 13.6665H22.9981C23.186 13.6665 23.3398 13.8203 23.3398 14.0082C23.3398 14.1961 23.186 14.3498 22.9981 14.3498ZM22.9981 16.3484H18.3348C18.1469 16.3484 17.9932 16.1947 17.9932 16.0068C17.9932 15.8189 18.1469 15.6651 18.3348 15.6651H22.9981C23.186 15.6651 23.3398 15.8189 23.3398 16.0068C23.3398 16.1947 23.186 16.3484 22.9981 16.3484Z" fill="#86888C"/>
<path d="M17.3331 26H8.6726C7.41879 26 6.51345 25.7096 5.90875 25.1083C5.29722 24.5002 5 23.5915 5 22.3274V5.6726C5 4.41879 5.29381 3.51687 5.90192 2.90875C6.51004 2.30064 7.41537 2 8.6726 2H17.3331C18.5767 2 19.482 2.30406 20.1004 2.92925C20.7085 3.54762 21.0057 4.4427 21.0057 5.6726V6.33879C21.0057 6.52669 20.852 6.68043 20.6641 6.68043C20.4762 6.68043 20.3224 6.52669 20.3224 6.33879V5.6726C20.3224 4.6306 20.0901 3.88925 19.6118 3.40754C19.1267 2.919 18.3819 2.68327 17.3297 2.68327H8.6726C7.60669 2.68327 6.85851 2.91559 6.38363 3.39046C5.90875 3.86534 5.68327 4.61011 5.68327 5.6726V22.3274C5.68327 24.4524 6.54762 25.3167 8.6726 25.3167H17.3331C19.4547 25.3167 20.3224 24.4524 20.3224 22.3274V18.3302C20.3224 18.1423 20.4762 17.9886 20.6641 17.9886C20.852 17.9886 21.0057 18.1423 21.0057 18.3302V22.3274C21.0057 23.5915 20.7085 24.5002 20.0969 25.1083C19.4922 25.7096 18.5869 26 17.3331 26Z" fill="#86888C"/>
<path d="M12.9976 21.1121C13.6125 21.1121 14.0122 21.4366 14.0122 22.1301C14.0122 22.465 13.92 22.7109 13.756 22.8783C13.5784 23.0594 13.3187 23.1482 12.9976 23.1482C12.6764 23.1482 12.4168 23.0594 12.2391 22.8783C12.0752 22.7109 11.9829 22.4615 11.9829 22.1301C11.9829 21.4366 12.3826 21.1121 12.9976 21.1121ZM24.989 10.0123H23.6566C22.8982 10.0123 22.314 9.81072 21.9143 9.411C21.5146 9.01128 21.3164 8.42709 21.3164 7.67207V6.33968C21.3164 6.15178 21.4702 5.99805 21.6581 5.99805C21.846 5.99805 21.9997 6.15178 21.9997 6.33968V7.67207C21.9997 8.81655 22.5122 9.32901 23.6566 9.32901H24.989C25.1769 9.32901 25.3307 9.48274 25.3307 9.67064C25.3307 9.85854 25.1769 10.0123 24.989 10.0123Z" fill="#86888C"/>
</svg>
