<svg width="20" height="20" viewBox="0 0 20 20" fill="none" xmlns="http://www.w3.org/2000/svg">
<path d="M13.5088 13.1149H10.8189C10.5092 13.1149 10.3247 12.9281 10.3247 12.6161V5.157C10.3247 4.85408 10.5137 4.66504 10.8189 4.66504H14.1055C14.167 4.66504 14.2239 4.69009 14.2672 4.73109L16.4878 6.95173C16.5311 6.995 16.5539 7.05194 16.5539 7.11344V12.6297C16.5539 12.9281 16.3694 13.1149 16.071 13.1149H13.5088ZM10.7825 12.6571C10.7939 12.6593 10.8076 12.6593 10.8189 12.6593H16.0688C16.0779 12.6593 16.087 12.6593 16.0961 12.6571C16.0984 12.648 16.0984 12.6388 16.0984 12.6297V7.20682L14.0098 5.12056H10.8189C10.8076 5.12056 10.7939 5.12056 10.7825 5.12283C10.7802 5.13422 10.7802 5.14561 10.7802 5.157V12.6161C10.7802 12.6297 10.7802 12.6434 10.7825 12.6571Z" fill="#86888C"/>
<path d="M14.9983 8.90083H11.8894C11.7641 8.90083 11.6616 8.79834 11.6616 8.67307C11.6616 8.5478 11.7641 8.44531 11.8894 8.44531H14.9983C15.1235 8.44531 15.226 8.5478 15.226 8.67307C15.226 8.79834 15.1235 8.90083 14.9983 8.90083ZM14.9983 10.2332H11.8894C11.7641 10.2332 11.6616 10.1307 11.6616 10.0055C11.6616 9.88019 11.7641 9.7777 11.8894 9.7777H14.9983C15.1235 9.7777 15.226 9.88019 15.226 10.0055C15.226 10.1307 15.1235 10.2332 14.9983 10.2332ZM14.9983 11.5656H11.8894C11.7641 11.5656 11.6616 11.4631 11.6616 11.3378C11.6616 11.2126 11.7641 11.1101 11.8894 11.1101H14.9983C15.1235 11.1101 15.226 11.2126 15.226 11.3378C15.226 11.4631 15.1235 11.5656 14.9983 11.5656Z" fill="#86888C"/>
<path d="M11.2221 18H5.4484C4.61253 18 4.00897 17.8064 3.60584 17.4056C3.19815 17.0001 3 16.3943 3 15.5516V4.4484C3 3.61253 3.19587 3.01125 3.60128 2.60584C4.00669 2.20043 4.61025 2 5.4484 2H11.2221C12.0511 2 12.6547 2.2027 13.0669 2.6195C13.4723 3.03174 13.6705 3.62847 13.6705 4.4484V4.89253C13.6705 5.01779 13.568 5.12028 13.4427 5.12028C13.3174 5.12028 13.2149 5.01779 13.2149 4.89253V4.4484C13.2149 3.75374 13.0601 3.2595 12.7412 2.93836C12.4178 2.61267 11.9213 2.45552 11.2198 2.45552H5.4484C4.73779 2.45552 4.239 2.61039 3.92242 2.92698C3.60584 3.24356 3.45552 3.74007 3.45552 4.4484V15.5516C3.45552 16.9683 4.03174 17.5445 5.4484 17.5445H11.2221C12.6364 17.5445 13.2149 16.9683 13.2149 15.5516V12.8868C13.2149 12.7616 13.3174 12.6591 13.4427 12.6591C13.568 12.6591 13.6705 12.7616 13.6705 12.8868V15.5516C13.6705 16.3943 13.4723 17.0001 13.0646 17.4056C12.6615 17.8064 12.0579 18 11.2221 18Z" fill="#86888C"/>
<path d="M8.33171 14.7411C8.74168 14.7411 9.00816 14.9574 9.00816 15.4198C9.00816 15.643 8.94666 15.807 8.83734 15.9186C8.7189 16.0393 8.54581 16.0985 8.33171 16.0985C8.11762 16.0985 7.94453 16.0393 7.82609 15.9186C7.71677 15.807 7.65527 15.6407 7.65527 15.4198C7.65527 14.9574 7.92175 14.7411 8.33171 14.7411ZM16.326 7.3412H15.4378C14.9321 7.3412 14.5427 7.20682 14.2762 6.94034C14.0097 6.67386 13.8776 6.2844 13.8776 5.78105V4.8928C13.8776 4.76753 13.9801 4.66504 14.1054 4.66504C14.2306 4.66504 14.3331 4.76753 14.3331 4.8928V5.78105C14.3331 6.54404 14.6748 6.88568 15.4378 6.88568H16.326C16.4513 6.88568 16.5538 6.98817 16.5538 7.11344C16.5538 7.2387 16.4513 7.3412 16.326 7.3412Z" fill="#86888C"/>
</svg>
