<svg width="40" height="40" viewBox="0 0 40 40" fill="none" xmlns="http://www.w3.org/2000/svg">
<path d="M30.6436 27.0082H24.5915C23.8946 27.0082 23.4795 26.588 23.4795 25.8859V9.103C23.4795 8.42143 23.9048 7.99609 24.5915 7.99609H31.9863C32.1246 7.99609 32.2527 8.05246 32.3501 8.14471L37.3465 13.1411C37.4439 13.2385 37.4952 13.3666 37.4952 13.505V25.9167C37.4952 26.588 37.0801 27.0082 36.4087 27.0082H30.6436ZM24.5095 25.9782C24.5352 25.9833 24.5659 25.9833 24.5915 25.9833H36.4036C36.4241 25.9833 36.4446 25.9833 36.4651 25.9782C36.4702 25.9577 36.4702 25.9372 36.4702 25.9167V13.7151L31.771 9.021H24.5915C24.5659 9.021 24.5352 9.02101 24.5095 9.02613C24.5044 9.05175 24.5044 9.07738 24.5044 9.103V25.8859C24.5044 25.9167 24.5044 25.9474 24.5095 25.9782Z" fill="#86888C"/>
<path d="M33.9972 17.5269H27.0022C26.7204 17.5269 26.4897 17.2963 26.4897 17.0144C26.4897 16.7326 26.7204 16.502 27.0022 16.502H33.9972C34.2791 16.502 34.5097 16.7326 34.5097 17.0144C34.5097 17.2963 34.2791 17.5269 33.9972 17.5269ZM33.9972 20.5247H27.0022C26.7204 20.5247 26.4897 20.2941 26.4897 20.0123C26.4897 19.7304 26.7204 19.4998 27.0022 19.4998H33.9972C34.2791 19.4998 34.5097 19.7304 34.5097 20.0123C34.5097 20.2941 34.2791 20.5247 33.9972 20.5247ZM33.9972 23.5226H27.0022C26.7204 23.5226 26.4897 23.292 26.4897 23.0101C26.4897 22.7283 26.7204 22.4977 27.0022 22.4977H33.9972C34.2791 22.4977 34.5097 22.7283 34.5097 23.0101C34.5097 23.292 34.2791 23.5226 33.9972 23.5226Z" fill="#86888C"/>
<path d="M25.4996 38H12.5089C10.6282 38 9.27018 37.5644 8.36313 36.6625C7.44584 35.7503 7 34.3872 7 32.4911V7.5089C7 5.62819 7.44071 4.2753 8.35288 3.36313C9.26505 2.45096 10.6231 2 12.5089 2H25.4996C27.365 2 28.723 2.45609 29.6505 3.39388C30.5627 4.32142 31.0085 5.66406 31.0085 7.5089V8.50818C31.0085 8.79004 30.7779 9.02064 30.4961 9.02064C30.2142 9.02064 29.9836 8.79004 29.9836 8.50818V7.5089C29.9836 5.94591 29.6352 4.83388 28.9177 4.11132C28.19 3.37851 27.0729 3.02491 25.4945 3.02491H12.5089C10.91 3.02491 9.78776 3.37338 9.07544 4.08569C8.36313 4.79801 8.02491 5.91516 8.02491 7.5089V32.4911C8.02491 35.6786 9.32142 36.9751 12.5089 36.9751H25.4996C28.682 36.9751 29.9836 35.6786 29.9836 32.4911V26.4954C29.9836 26.2135 30.2142 25.9829 30.4961 25.9829C30.7779 25.9829 31.0085 26.2135 31.0085 26.4954V32.4911C31.0085 34.3872 30.5627 35.7503 29.6454 36.6625C28.7384 37.5644 27.3804 38 25.4996 38Z" fill="#86888C"/>
<path d="M18.9966 30.6671C19.919 30.6671 20.5186 31.154 20.5186 32.1942C20.5186 32.6964 20.3802 33.0654 20.1343 33.3165C19.8678 33.5881 19.4783 33.7214 18.9966 33.7214C18.5149 33.7214 18.1254 33.5881 17.859 33.3165C17.613 33.0654 17.4746 32.6913 17.4746 32.1942C17.4746 31.154 18.0742 30.6671 18.9966 30.6671ZM36.9838 14.0174H34.9852C33.8476 14.0174 32.9713 13.7151 32.3717 13.1155C31.7721 12.516 31.4749 11.6397 31.4749 10.5071V8.50855C31.4749 8.2267 31.7055 7.99609 31.9874 7.99609C32.2692 7.99609 32.4998 8.2267 32.4998 8.50855V10.5071C32.4998 12.2239 33.2685 12.9925 34.9852 12.9925H36.9838C37.2656 12.9925 37.4962 13.2231 37.4962 13.505C37.4962 13.7868 37.2656 14.0174 36.9838 14.0174Z" fill="#86888C"/>
</svg>
