<svg width="24" height="24" viewBox="0 0 24 24" fill="none" xmlns="http://www.w3.org/2000/svg">
<path d="M6.15115 12.1174C6.07713 12.0662 6.04297 12.0092 6.04297 11.921C6.04582 11.8071 6.13977 11.716 6.25364 11.7188C6.30774 11.7217 6.36183 11.7387 6.40738 11.7701C6.73478 11.9864 7.1903 12.2057 7.71984 12.2057C8.5113 12.2057 8.99528 11.7985 8.99528 11.1978C8.99528 10.7053 8.71913 10.3551 7.81379 10.2412L7.58034 10.2128C6.61521 10.0903 6.16539 9.62629 6.16539 8.90601C6.16539 8.04907 6.77464 7.51953 7.7113 7.51953C8.23514 7.51953 8.67642 7.65619 8.98105 7.84693C9.075 7.90387 9.1177 7.97789 9.1177 8.04907C9.1177 8.15725 9.03229 8.24551 8.92411 8.24551H8.92126C8.87001 8.24266 8.82162 8.22843 8.77606 8.20281C8.44297 8.0206 8.09279 7.91241 7.69421 7.91241C6.97678 7.91241 6.57535 8.31099 6.57535 8.869C6.57535 9.37576 6.88852 9.70316 7.73692 9.81135L7.96183 9.83982C8.94404 9.96224 9.40809 10.4263 9.40809 11.1665C9.40809 12.0007 8.81308 12.5957 7.66574 12.5957C7.12482 12.5928 6.59528 12.4249 6.15115 12.1174Z" fill="#86888C"/>
<path d="M7.66675 12.7102C7.1002 12.7073 6.55073 12.5308 6.08383 12.2119C5.97849 12.1379 5.92725 12.044 5.92725 11.9216C5.93009 11.745 6.07529 11.6027 6.2518 11.6055C6.32867 11.6084 6.40269 11.6312 6.46817 11.6767C6.88383 11.9529 7.30234 12.0924 7.71799 12.0924C8.43543 12.0924 8.88241 11.7507 8.88241 11.1984C8.88241 10.8482 8.75429 10.4753 7.80056 10.3529L7.56995 10.3244C6.31728 10.165 6.05536 9.46461 6.05536 8.90661C6.05536 7.99557 6.70732 7.40625 7.71515 7.40625C8.21621 7.40625 8.68597 7.52867 9.04468 7.75073C9.1671 7.8276 9.23543 7.93294 9.23543 8.04967C9.23543 8.22049 9.09593 8.35999 8.92511 8.35999C8.85678 8.35714 8.78846 8.33721 8.72867 8.30305L8.72582 8.3002C8.37849 8.1123 8.05394 8.02404 7.69806 8.02404C7.08027 8.02404 6.69308 8.3486 6.69308 8.86675C6.69308 9.1913 6.81266 9.57564 7.755 9.69807L7.97992 9.72653C8.68312 9.81764 9.52298 10.1393 9.52298 11.17C9.52298 12.118 8.81123 12.7102 7.66675 12.7102ZM6.21479 12.024C6.41123 12.1607 6.94646 12.4824 7.66675 12.4824C8.68597 12.4824 9.29522 11.9899 9.29522 11.1671C9.29522 10.4639 8.85678 10.0653 7.95145 9.95145L7.72653 9.92298C6.86675 9.81194 6.46532 9.476 6.46532 8.86675C6.46532 8.21479 6.94931 7.79629 7.69806 7.79629C8.08525 7.79629 8.45536 7.89593 8.83116 8.09807C8.85963 8.11515 8.89095 8.12369 8.92511 8.12938C8.97066 8.12938 9.00767 8.09522 9.00767 8.04967V8.04682C9.00767 7.99842 8.95643 7.95856 8.92511 7.94148C8.6034 7.74219 8.17351 7.63116 7.71515 7.63116C6.83258 7.63116 6.28312 8.11799 6.28312 8.90376C6.28312 9.58419 6.7244 9.98561 7.59842 10.0966L7.82903 10.1251C8.70305 10.2361 9.11016 10.5778 9.11016 11.1956C9.11016 11.8788 8.56355 12.3173 7.71799 12.3173C7.25678 12.3173 6.79273 12.1635 6.34006 11.8618C6.31443 11.8447 6.28312 11.8333 6.2518 11.8304C6.20056 11.8304 6.15785 11.8703 6.155 11.9187C6.155 11.9614 6.16355 11.987 6.21479 12.024Z" fill="#86888C"/>
<path d="M7.72562 13.4027C7.56903 13.4027 7.44092 13.2746 7.44092 13.118V7.01126C7.44092 6.85468 7.56903 6.72656 7.72562 6.72656C7.8822 6.72656 8.01031 6.85468 8.01031 7.01126V13.118C8.01031 13.2746 7.8822 13.4027 7.72562 13.4027Z" fill="#86888C"/>
<path d="M17.7189 22H10.5018C9.45698 22 8.70253 21.758 8.19862 21.2569C7.68901 20.753 7.44132 19.9929 7.44132 18.9395V14.4982C7.44132 14.3416 7.56944 14.2135 7.72602 14.2135C7.8826 14.2135 8.01072 14.3416 8.01072 14.4982V18.9395C8.01072 20.7103 8.73385 21.4306 10.5018 21.4306H17.7189C19.4897 21.4306 20.21 20.7103 20.21 18.9395V5.0605C20.21 4.17509 20.0193 3.5516 19.6264 3.15872C19.2335 2.76584 18.6072 2.5694 17.7189 2.5694H10.5018C9.62495 2.5694 9.00431 2.76584 8.60004 3.17295C8.20147 3.57438 8.00787 4.19217 8.00787 5.0605V5.61566C8.00787 5.77224 7.87976 5.90036 7.72317 5.90036C7.56659 5.90036 7.43848 5.77224 7.43848 5.61566V5.0605C7.43848 4.03559 7.68616 3.28683 8.19292 2.77438C8.71107 2.25338 9.46552 2 10.5018 2H17.7189C18.7666 2 19.521 2.24769 20.0278 2.7573C20.5346 3.2669 20.7794 4.01851 20.7794 5.0605V18.9395C20.7794 19.9929 20.5317 20.7502 20.0221 21.2569C19.5182 21.758 18.7637 22 17.7189 22Z" fill="#86888C"/>
<path d="M14.1146 17.9261C13.6021 17.9261 13.269 18.1965 13.269 18.7745C13.269 19.0535 13.3459 19.2585 13.4826 19.398C13.6306 19.5488 13.8498 19.6229 14.1146 19.6229C14.3794 19.6229 14.5986 19.5488 14.7466 19.398C14.8833 19.2585 14.9601 19.0535 14.9601 18.7745C14.9601 18.1965 14.627 17.9261 14.1146 17.9261ZM7.72598 14.783C6.21993 14.783 5.05267 14.393 4.25267 13.6214C3.42135 12.8214 3 11.6229 3 10.057C3 8.4912 3.42135 7.29262 4.25267 6.49262C5.05267 5.72109 6.22278 5.33105 7.72598 5.33105C9.22918 5.33105 10.3993 5.72109 11.1993 6.49262C12.0306 7.29262 12.452 8.4912 12.452 10.057C12.452 11.6229 12.0306 12.8214 11.1993 13.6214C10.3993 14.393 9.22918 14.783 7.72598 14.783ZM7.72598 5.90045C6.37367 5.90045 5.33737 6.23639 4.64555 6.90258C3.93096 7.59155 3.56655 8.65347 3.56655 10.057C3.56655 11.4606 3.92811 12.5225 4.6427 13.2115C5.33167 13.8777 6.36797 14.2136 7.72313 14.2136C9.07829 14.2136 10.1117 13.8777 10.8007 13.2115C11.5153 12.5225 11.8769 11.4606 11.8769 10.057C11.8769 8.65347 11.5153 7.59155 10.8007 6.90258C10.1146 6.23639 9.07829 5.90045 7.72598 5.90045Z" fill="#86888C"/>
</svg>
