<svg width="28" height="28" viewBox="0 0 28 28" fill="none" xmlns="http://www.w3.org/2000/svg">
<path d="M6.78168 14.1415C6.69285 14.08 6.65186 14.0116 6.65186 13.9057C6.65527 13.7691 6.76801 13.6598 6.90467 13.6632C6.96958 13.6666 7.03449 13.6871 7.08915 13.7247C7.48203 13.9843 8.02865 14.2474 8.6641 14.2474C9.61385 14.2474 10.1946 13.7588 10.1946 13.038C10.1946 12.4469 9.86324 12.0267 8.77684 11.8901L8.4967 11.8559C7.33855 11.709 6.79876 11.1521 6.79876 10.2878C6.79876 9.25947 7.52986 8.62402 8.65385 8.62402C9.28246 8.62402 9.812 8.78801 10.1775 9.01691C10.2903 9.08523 10.3415 9.17406 10.3415 9.25947C10.3415 9.38929 10.239 9.4952 10.1092 9.4952H10.1058C10.0443 9.49178 9.98623 9.4747 9.93157 9.44395C9.53186 9.2253 9.11164 9.09548 8.63335 9.09548C7.77242 9.09548 7.29072 9.57377 7.29072 10.2434C7.29072 10.8515 7.66652 11.2444 8.6846 11.3742L8.95449 11.4084C10.1331 11.5553 10.69 12.1121 10.69 13.0004C10.69 14.0014 9.97598 14.7154 8.59919 14.7154C7.95008 14.712 7.31463 14.5104 6.78168 14.1415Z" fill="#86888C"/>
<path d="M8.6001 14.853C7.92024 14.8496 7.26088 14.6377 6.7006 14.2551C6.57419 14.1663 6.5127 14.0535 6.5127 13.9066C6.51611 13.6948 6.69035 13.524 6.90216 13.5274C6.9944 13.5308 7.08323 13.5582 7.16181 13.6128C7.6606 13.9442 8.1628 14.1116 8.66159 14.1116C9.52252 14.1116 10.0589 13.7017 10.0589 13.0389C10.0589 12.6187 9.90515 12.1711 8.76067 12.0242L8.48394 11.9901C6.98074 11.7987 6.66643 10.9583 6.66643 10.2887C6.66643 9.19547 7.44878 8.48828 8.65818 8.48828C9.25946 8.48828 9.82316 8.63519 10.2536 8.90166C10.4005 8.9939 10.4825 9.12031 10.4825 9.26038C10.4825 9.46536 10.3151 9.63277 10.1101 9.63277C10.0281 9.62935 9.94615 9.60543 9.8744 9.56444L9.87099 9.56102C9.45419 9.33554 9.06472 9.22963 8.63768 9.22963C7.89633 9.22963 7.4317 9.6191 7.4317 10.2409C7.4317 10.6303 7.57519 11.0916 8.706 11.2385L8.9759 11.2726C9.81974 11.3819 10.8276 11.768 10.8276 13.0047C10.8276 14.1424 9.97348 14.853 8.6001 14.853ZM6.85775 14.0296C7.09348 14.1936 7.73576 14.5797 8.6001 14.5797C9.82316 14.5797 10.5543 13.9886 10.5543 13.0013C10.5543 12.1575 10.0281 11.6792 8.94173 11.5425L8.67184 11.5084C7.6401 11.3751 7.15839 10.972 7.15839 10.2409C7.15839 9.45853 7.73917 8.95632 8.63768 8.95632C9.1023 8.95632 9.54643 9.0759 9.99739 9.31846C10.0316 9.33896 10.0691 9.34921 10.1101 9.35604C10.1648 9.35604 10.2092 9.31504 10.2092 9.26038V9.25696C10.2092 9.19889 10.1477 9.15106 10.1101 9.13056C9.72408 8.89141 9.20821 8.75817 8.65818 8.75817C7.5991 8.75817 6.93974 9.34237 6.93974 10.2853C6.93974 11.1018 7.46928 11.5835 8.5181 11.7168L8.79483 11.7509C9.84366 11.8842 10.3322 12.2941 10.3322 13.0355C10.3322 13.8554 9.67625 14.3815 8.66159 14.3815C8.10814 14.3815 7.55127 14.197 7.00807 13.8349C6.97732 13.8144 6.93974 13.8007 6.90216 13.7973C6.84067 13.7973 6.78942 13.8451 6.786 13.9032C6.786 13.9545 6.79625 13.9852 6.85775 14.0296Z" fill="#86888C"/>
<path d="M8.67074 15.6833C8.48284 15.6833 8.3291 15.5295 8.3291 15.3416V8.01351C8.3291 7.82561 8.48284 7.67188 8.67074 7.67188C8.85864 7.67188 9.01238 7.82561 9.01238 8.01351V15.3416C9.01238 15.5295 8.85864 15.6833 8.67074 15.6833Z" fill="#86888C"/>
<path d="M20.6627 26H12.0022C10.7484 26 9.84304 25.7096 9.23834 25.1083C8.62681 24.5036 8.32959 23.5915 8.32959 22.3274V16.9979C8.32959 16.81 8.48332 16.6562 8.67122 16.6562C8.85913 16.6562 9.01286 16.81 9.01286 16.9979V22.3274C9.01286 24.4524 9.88062 25.3167 12.0022 25.3167H20.6627C22.7877 25.3167 23.652 24.4524 23.652 22.3274V5.6726C23.652 4.61011 23.4231 3.86192 22.9517 3.39046C22.4802 2.919 21.7286 2.68327 20.6627 2.68327H12.0022C10.9499 2.68327 10.2052 2.919 9.72005 3.40754C9.24176 3.88925 9.00945 4.6306 9.00945 5.6726V6.33879C9.00945 6.52669 8.85571 6.68043 8.66781 6.68043C8.47991 6.68043 8.32617 6.52669 8.32617 6.33879V5.6726C8.32617 4.4427 8.6234 3.5442 9.23151 2.92925C9.85329 2.30406 10.7586 2 12.0022 2H20.6627C21.9199 2 22.8252 2.29722 23.4334 2.90875C24.0415 3.52028 24.3353 4.42221 24.3353 5.6726V22.3274C24.3353 23.5915 24.0381 24.5002 23.4265 25.1083C22.8218 25.7096 21.9165 26 20.6627 26Z" fill="#86888C"/>
<path d="M16.3375 21.1121C15.7226 21.1121 15.3228 21.4366 15.3228 22.1301C15.3228 22.465 15.4151 22.7109 15.5791 22.8783C15.7567 23.0594 16.0198 23.1482 16.3375 23.1482C16.6552 23.1482 16.9183 23.0594 17.0959 22.8783C17.2599 22.7109 17.3522 22.465 17.3522 22.1301C17.3522 21.4366 16.9525 21.1121 16.3375 21.1121ZM8.67117 17.3404C6.86391 17.3404 5.4632 16.8724 4.5032 15.9465C3.50562 14.9865 3 13.5482 3 11.6692C3 9.79022 3.50562 8.35193 4.5032 7.39193C5.4632 6.46609 6.86733 5.99805 8.67117 5.99805C10.475 5.99805 11.8791 6.46609 12.8391 7.39193C13.8367 8.35193 14.3423 9.79022 14.3423 11.6692C14.3423 13.5482 13.8367 14.9865 12.8391 15.9465C11.8791 16.8724 10.475 17.3404 8.67117 17.3404ZM8.67117 6.68132C7.0484 6.68132 5.80484 7.08445 4.97466 7.88388C4.11715 8.71064 3.67986 9.98495 3.67986 11.6692C3.67986 13.3535 4.11374 14.6278 4.97125 15.4546C5.79801 16.254 7.04157 16.6571 8.66776 16.6571C10.294 16.6571 11.5341 16.254 12.3609 15.4546C13.2184 14.6278 13.6522 13.3535 13.6522 11.6692C13.6522 9.98495 13.2184 8.71064 12.3609 7.88388C11.5375 7.08445 10.294 6.68132 8.67117 6.68132Z" fill="#86888C"/>
</svg>
