<svg width="24" height="24" viewBox="0 0 24 24" fill="none" xmlns="http://www.w3.org/2000/svg">
<path fill-rule="evenodd" clip-rule="evenodd" d="M20.5669 7.3415C20.5669 7.3415 20.638 7.33012 20.638 7.05123C20.638 6.78658 20.5441 6.71259 20.5441 6.71259C20.5014 6.67844 20.4047 6.65567 20.0859 6.65567H4.27205C3.96756 6.65567 3.90211 6.6386 3.78543 6.74958C3.78258 6.74958 3.71713 6.82072 3.71998 7.08253C3.72282 7.32727 3.83665 7.39557 3.83665 7.39557C3.89926 7.4411 3.93056 7.4724 4.24929 7.4724H20.0689C20.3648 7.46956 20.5441 7.37849 20.5669 7.3415ZM19.7786 17.0825V8.4798C19.7814 8.4115 19.7558 8.3489 19.7075 8.30052C19.6534 8.2493 19.5538 8.23507 19.4343 8.21799H4.88105C4.70176 8.2493 4.55378 8.35174 4.55378 8.4798V17.0939C4.55378 17.1594 4.57655 17.222 4.63347 17.2647C4.70461 17.3301 4.82982 17.3529 4.99203 17.3529L19.3773 17.3614C19.5851 17.3614 19.7786 17.2334 19.7786 17.0825ZM12.6215 20.9158C12.6215 20.7963 12.6215 20.4889 12.1918 20.4832H12.1207C11.7052 20.4832 11.7052 20.7963 11.7052 20.9158C11.7052 21.0268 11.7052 21.3483 12.1264 21.3483C12.6215 21.3426 12.6215 21.0353 12.6215 20.9158ZM11.5999 4.34491L8.66591 5.90724H15.51L12.7695 4.33068C12.5987 4.41321 12.4024 4.45874 12.2146 4.46444H12.1292C11.9471 4.45874 11.7678 4.4189 11.5999 4.34491ZM12.1235 2.84235C11.708 2.84235 11.708 3.15539 11.708 3.27775C11.708 3.40012 11.708 3.71031 12.1377 3.71885C12.6215 3.71316 12.6215 3.40012 12.6215 3.28629C12.6215 3.16677 12.6215 2.85374 12.1918 2.8452C12.1946 2.84235 12.1235 2.84235 12.1235 2.84235ZM21.1076 6.21458C21.247 6.34833 21.3324 6.52761 21.3324 6.70689V7.4098C21.3324 7.78259 20.9966 8.06717 20.4986 8.17246C20.5299 8.26922 20.5612 8.36597 20.5612 8.47127V17.0854C20.5612 17.6517 20.0319 18.107 19.3745 18.107H12.5618V19.7974C13.0313 19.9254 13.4041 20.2897 13.4041 20.9186C13.4041 21.7183 12.8036 22.0911 12.2203 22.0996H12.1178C11.5316 22.0911 10.9311 21.7268 10.9311 20.9186C10.9311 20.2698 11.321 19.9027 11.782 19.7832V18.1099L5.00911 18.1013C4.55663 18.1326 4.25213 17.9533 4.09562 17.811C3.89357 17.6261 3.77689 17.3671 3.77405 17.0939V8.47696C3.77405 8.37166 3.80535 8.26637 3.83665 8.17815C3.58623 8.12693 3.37564 8.0444 3.2362 7.91065C3.09391 7.78544 3.00854 7.60615 3 7.41833L3.00854 6.71543C3.00854 6.24588 3.54069 5.91008 4.2749 5.91008H7.0609L11.0336 3.79568C10.9653 3.63347 10.9283 3.45704 10.9311 3.2806C10.9311 2.4724 11.5316 2.10815 12.1264 2.09961H12.2203C12.8065 2.11668 13.4041 2.48948 13.4041 3.28629C13.4041 3.46557 13.3728 3.63063 13.3102 3.77292L17.0182 5.91008H20.0233C20.4986 5.89301 20.8714 6.00399 21.1076 6.21458ZM15.7291 15.1417C15.9397 15.1417 16.119 15.3125 16.119 15.5145C16.1133 15.7251 15.9397 15.893 15.7291 15.8873H7.5333C7.32271 15.8902 7.14912 15.7251 7.14343 15.5145V10.5316C7.14343 10.3295 7.32271 10.1588 7.5333 10.1588C7.74388 10.156 7.91747 10.321 7.92316 10.5316V14.5498L9.24075 12.5834C9.34035 12.4269 9.53671 12.3643 9.7103 12.4326L12.3882 13.4257L14.1838 11.2601H13.646C13.4382 11.2658 13.2618 11.1036 13.2561 10.8959V10.8873C13.2561 10.6767 13.4269 10.5145 13.646 10.5145H15.0347C15.2225 10.5145 15.3876 10.6483 15.4189 10.8276L15.6067 12.0313C15.6466 12.2305 15.4986 12.4183 15.2795 12.4553H15.2254C15.0376 12.4553 14.8668 12.3216 14.8412 12.1423L14.7814 11.7553L12.8236 14.1087C12.7154 14.2396 12.5361 14.2852 12.3796 14.2282L9.73307 13.2436L8.45532 15.1417H15.7291Z" fill="#86888C"/>
</svg>
