<svg width="28" height="28" viewBox="0 0 28 28" fill="none" xmlns="http://www.w3.org/2000/svg">
<path fill-rule="evenodd" clip-rule="evenodd" d="M24.0802 8.38988C24.0802 8.38988 24.1656 8.37622 24.1656 8.04156C24.1656 7.72397 24.0529 7.63518 24.0529 7.63518C24.0017 7.5942 23.8856 7.56688 23.5031 7.56688H4.52647C4.16107 7.56688 4.08253 7.54639 3.94252 7.67957C3.9391 7.67957 3.86056 7.76495 3.86397 8.07912C3.86739 8.3728 4.00398 8.45476 4.00398 8.45476C4.07911 8.5094 4.11668 8.54696 4.49915 8.54696H23.4826C23.8378 8.54355 24.0529 8.43427 24.0802 8.38988ZM23.1343 20.0791V9.75584C23.1377 9.67388 23.107 9.59875 23.0489 9.5407C22.9841 9.47923 22.8645 9.46216 22.7211 9.44167H5.25726C5.04212 9.47923 4.86454 9.60217 4.86454 9.75584V20.0928C4.86454 20.1713 4.89186 20.2464 4.96016 20.2977C5.04553 20.3762 5.19579 20.4035 5.39044 20.4035L22.6528 20.4138C22.9021 20.4138 23.1343 20.2601 23.1343 20.0791ZM14.5458 24.679C14.5458 24.5356 14.5458 24.1668 14.0302 24.1599H13.9448C13.4462 24.1599 13.4462 24.5356 13.4462 24.679C13.4462 24.8122 13.4462 25.1981 13.9516 25.1981C14.5458 25.1912 14.5458 24.8224 14.5458 24.679ZM13.3199 4.79397L9.79909 6.66876H18.012L14.7234 4.7769C14.5185 4.87593 14.2829 4.93057 14.0575 4.9374H13.955C13.7365 4.93057 13.5213 4.88276 13.3199 4.79397ZM13.9482 2.9909C13.4496 2.9909 13.4496 3.36654 13.4496 3.51338C13.4496 3.66022 13.4496 4.03245 13.9653 4.04269C14.5458 4.03586 14.5458 3.66022 14.5458 3.52363C14.5458 3.3802 14.5458 3.00456 14.0302 2.99432C14.0336 2.9909 13.9482 2.9909 13.9482 2.9909ZM24.7291 7.03757C24.8964 7.19807 24.9989 7.41321 24.9989 7.62835V8.47183C24.9989 8.91919 24.5959 9.26068 23.9983 9.38703C24.0359 9.50314 24.0734 9.61924 24.0734 9.7456V20.0825C24.0734 20.7621 23.4382 21.3085 22.6494 21.3085H14.4741V23.3369C15.0376 23.4906 15.4849 23.9277 15.4849 24.6824C15.4849 25.642 14.7644 26.0894 14.0643 26.0996H13.9414C13.2379 26.0894 12.5174 25.6523 12.5174 24.6824C12.5174 23.9038 12.9852 23.4633 13.5384 23.3199V21.3119L5.41093 21.3017C4.86796 21.3392 4.50256 21.1241 4.31474 20.9533C4.07228 20.7314 3.93227 20.4206 3.92886 20.0928V9.75243C3.92886 9.62607 3.96642 9.49972 4.00398 9.39386C3.70347 9.33239 3.45077 9.23336 3.28344 9.07286C3.11269 8.9226 3.01024 8.70746 3 8.48208L3.01024 7.6386C3.01024 7.07514 3.64883 6.67218 4.52988 6.67218H7.87308L12.6403 4.1349C12.5583 3.94025 12.5139 3.72852 12.5174 3.5168C12.5174 2.54696 13.2379 2.10985 13.9516 2.09961H14.0643C14.7678 2.1201 15.4849 2.56745 15.4849 3.52363C15.4849 3.73877 15.4474 3.93683 15.3722 4.10758L19.8219 6.67218H23.428C23.9983 6.65169 24.4456 6.78487 24.7291 7.03757ZM18.2749 17.7501C18.5276 17.7501 18.7427 17.955 18.7427 18.1975C18.7359 18.4502 18.5276 18.6517 18.2749 18.6449H8.43995C8.18725 18.6483 7.97894 18.4502 7.97211 18.1975V12.218C7.97211 11.9755 8.18725 11.7706 8.43995 11.7706C8.69266 11.7672 8.90097 11.9653 8.9078 12.218V17.0398L10.4889 14.6801C10.6084 14.4923 10.8441 14.4172 11.0524 14.4992L14.2658 15.691L16.4206 13.0922H15.7752C15.5259 13.099 15.3142 12.9044 15.3073 12.6551V12.6449C15.3073 12.3922 15.5122 12.1975 15.7752 12.1975H17.4417C17.667 12.1975 17.8651 12.358 17.9027 12.5731L18.1281 14.0177C18.1759 14.2567 17.9983 14.4821 17.7353 14.5265H17.6705C17.4451 14.5265 17.2402 14.366 17.2094 14.1508L17.1377 13.6864L14.7883 16.5105C14.6585 16.6676 14.4434 16.7223 14.2555 16.654L11.0797 15.4724L9.54639 17.7501H18.2749Z" fill="#86888C"/>
</svg>
