<svg width="40" height="40" viewBox="0 0 40 40" fill="none" xmlns="http://www.w3.org/2000/svg">
<path fill-rule="evenodd" clip-rule="evenodd" d="M36.4314 19.0866C36.4314 19.7319 35.9704 20.2184 35.6683 20.2184H20.6727V12.485H35.6683C35.9244 12.485 36.4314 12.9972 36.4314 13.6169V19.0866ZM34.0141 35.3522C34.0141 35.9975 33.5531 36.4841 33.251 36.4841H20.6779V21.7343H34.0141V35.3522ZM5.8718 35.3471V21.8982C5.8718 21.8368 5.85132 21.7856 5.83595 21.7292H19.1209V36.4789H6.62977C6.33273 36.4789 5.86668 35.9924 5.8718 35.3471ZM3.56204 19.0866V13.6118C3.56204 12.9921 4.06906 12.4799 4.32513 12.4799H19.1209V20.2133H4.32001C4.02296 20.2133 3.56204 19.7267 3.56204 19.0866ZM10.3889 5.22285C11.0086 4.29587 11.7358 3.74276 12.5553 3.57375C12.7345 3.5379 12.9138 3.52254 13.0981 3.52254C13.7639 3.52254 14.4758 3.75812 15.2235 4.22929C16.847 5.25358 18.3835 8.81809 18.9827 10.6413C17.0724 10.8462 13.052 10.9486 11.4183 9.9192C10.4657 9.31999 9.89212 8.60811 9.72312 7.81941C9.54899 7.02047 9.76921 6.14983 10.3889 5.22285ZM24.6623 4.22417C25.6149 3.61984 26.5112 3.39962 27.3306 3.57375C28.15 3.74276 28.8773 4.29587 29.497 5.22285C30.7415 7.08193 30.3881 8.7003 28.4727 9.91408C26.8389 10.9486 22.8237 10.8462 20.9083 10.6362C21.5024 8.81297 23.0337 5.25358 24.6623 4.22417ZM35.6734 10.9691H29.6096C30.7261 10.1855 31.4533 9.21244 31.6889 8.1267C31.945 6.94365 31.6377 5.65305 30.7978 4.39318C29.9579 3.13843 28.867 2.33949 27.6481 2.08854C26.4343 1.83246 25.1028 2.13463 23.807 2.95918C22.1016 4.03468 20.7393 6.76952 19.9352 8.79249C19.1363 6.7644 17.774 4.03468 16.0737 2.95918C14.778 2.13975 13.4515 1.83246 12.2326 2.08854C11.0137 2.33949 9.92285 3.13843 9.08294 4.39318C8.24302 5.64793 7.93574 6.93853 8.19181 8.1267C8.42739 9.21244 9.15976 10.1804 10.2711 10.9691H4.32001C3.10623 10.9691 2 12.229 2 13.6118V19.0866C2 20.495 3.08574 21.7343 4.32001 21.7343H4.34049C4.32513 21.7907 4.30464 21.8419 4.30464 21.9033V35.3522C4.30464 36.7606 5.39039 38 6.62977 38H33.2458C34.4801 38 35.5658 36.7657 35.5658 35.3573V21.7343H35.6683C36.9025 21.7343 37.9883 20.5001 37.9883 19.0917V13.6118C37.9934 12.229 36.8872 10.9691 35.6734 10.9691Z" fill="#86888C"/>
</svg>
