<svg width="20" height="20" viewBox="0 0 20 20" fill="none" xmlns="http://www.w3.org/2000/svg">
<path fill-rule="evenodd" clip-rule="evenodd" d="M17.0535 6.29312C17.0535 6.29312 17.1104 6.28401 17.1104 6.06091C17.1104 5.84918 17.0353 5.78999 17.0353 5.78999C17.0011 5.76267 16.9237 5.74446 16.6688 5.74446H4.01764C3.77405 5.74446 3.72168 5.7308 3.62834 5.81959C3.62607 5.81959 3.57371 5.8765 3.57598 6.08595C3.57826 6.28174 3.66932 6.33638 3.66932 6.33638C3.71941 6.3728 3.74445 6.39784 3.99943 6.39784H16.6551C16.8919 6.39557 17.0353 6.32272 17.0535 6.29312ZM16.4229 14.0859V7.20376C16.4252 7.14913 16.4047 7.09904 16.366 7.06034C16.3227 7.01936 16.243 7.00798 16.1474 6.99432H4.50484C4.36141 7.01936 4.24303 7.10132 4.24303 7.20376V14.0951C4.24303 14.1474 4.26124 14.1975 4.30677 14.2317C4.36369 14.284 4.46386 14.3022 4.59363 14.3022L16.1019 14.3091C16.2681 14.3091 16.4229 14.2066 16.4229 14.0859ZM10.6972 17.1525C10.6972 17.0569 10.6972 16.811 10.3534 16.8065H10.2965C9.96414 16.8065 9.96414 17.0569 9.96414 17.1525C9.96414 17.2413 9.96414 17.4986 10.3011 17.4986C10.6972 17.494 10.6972 17.2482 10.6972 17.1525ZM9.87991 3.89585L7.53273 5.14571H13.008L10.8156 3.88447C10.679 3.95049 10.5219 3.98692 10.3717 3.99147H10.3034C10.1577 3.98692 10.0142 3.95504 9.87991 3.89585ZM10.2988 2.6938C9.96642 2.6938 9.96642 2.94423 9.96642 3.04213C9.96642 3.14002 9.96642 3.38817 10.3102 3.395C10.6972 3.39045 10.6972 3.14002 10.6972 3.04895C10.6972 2.95334 10.6972 2.70291 10.3534 2.69608C10.3557 2.6938 10.2988 2.6938 10.2988 2.6938ZM17.4861 5.39158C17.5976 5.49858 17.6659 5.64201 17.6659 5.78544V6.34776C17.6659 6.646 17.3973 6.87366 16.9989 6.95789C17.0239 7.0353 17.0489 7.1127 17.0489 7.19693V14.0882C17.0489 14.5413 16.6255 14.9055 16.0996 14.9055H10.6494V16.2578C11.025 16.3603 11.3233 16.6517 11.3233 17.1548C11.3233 17.7945 10.8429 18.0928 10.3762 18.0996H10.2943C9.82527 18.0928 9.34491 17.8014 9.34491 17.1548C9.34491 16.6358 9.6568 16.3421 10.0256 16.2465V14.9078L4.60729 14.901C4.2453 14.926 4.00171 14.7826 3.87649 14.6688C3.71485 14.5208 3.62151 14.3136 3.61924 14.0951V7.20149C3.61924 7.11725 3.64428 7.03302 3.66932 6.96244C3.46898 6.92146 3.30051 6.85544 3.18896 6.74844C3.07513 6.64827 3.00683 6.50485 3 6.35459L3.00683 5.79227C3.00683 5.41663 3.43256 5.14799 4.01992 5.14799H6.24872L9.42686 3.45647C9.37223 3.3267 9.34263 3.18555 9.34491 3.0444C9.34491 2.39785 9.82527 2.10644 10.3011 2.09961H10.3762C10.8452 2.11327 11.3233 2.4115 11.3233 3.04895C11.3233 3.19238 11.2982 3.32442 11.2481 3.43825L14.2146 5.14799H16.6187C16.9989 5.13433 17.2971 5.22311 17.4861 5.39158ZM13.1833 12.5333C13.3517 12.5333 13.4952 12.6699 13.4952 12.8315C13.4906 13 13.3517 13.1343 13.1833 13.1298H6.62664C6.45817 13.1321 6.31929 13 6.31474 12.8315V8.8452C6.31474 8.68356 6.45817 8.54696 6.62664 8.54696C6.7951 8.54469 6.93398 8.67673 6.93853 8.8452V12.0598L7.9926 10.4866C8.07228 10.3614 8.22937 10.3113 8.36824 10.366L10.5105 11.1605L11.9471 9.42801H11.5168C11.3506 9.43256 11.2094 9.3028 11.2049 9.1366V9.12977C11.2049 8.96131 11.3415 8.83154 11.5168 8.83154H12.6278C12.778 8.83154 12.9101 8.93854 12.9351 9.08196L13.0854 10.045C13.1172 10.2043 12.9989 10.3546 12.8236 10.3842H12.7803C12.6301 10.3842 12.4935 10.2772 12.473 10.1338L12.4252 9.82414L10.8588 11.7069C10.7723 11.8116 10.6289 11.848 10.5037 11.8025L8.38645 11.0148L7.36426 12.5333H13.1833Z" fill="#86888C"/>
</svg>
