<svg width="24" height="24" viewBox="0 0 24 24" fill="none" xmlns="http://www.w3.org/2000/svg">
<path fill-rule="evenodd" clip-rule="evenodd" d="M21.1285 11.4925C21.1285 11.851 20.8725 12.1213 20.7046 12.1213H12.3737V7.82502H20.7046C20.8469 7.82502 21.1285 8.10954 21.1285 8.45382V11.4925ZM19.7856 20.529C19.7856 20.8875 19.5295 21.1578 19.3616 21.1578H12.3766V12.9635H19.7856V20.529ZM4.151 20.5262V13.0546C4.151 13.0204 4.13962 12.992 4.13108 12.9607H11.5116V21.155H4.5721C4.40707 21.155 4.14815 20.8847 4.151 20.5262ZM2.8678 11.4925V8.45097C2.8678 8.1067 3.14948 7.82218 3.29174 7.82218H11.5116V12.1185H3.28889C3.12387 12.1185 2.8678 11.8482 2.8678 11.4925ZM6.6605 3.79047C7.00477 3.27548 7.4088 2.9682 7.86404 2.87431C7.96362 2.85439 8.0632 2.84585 8.16563 2.84585C8.53551 2.84585 8.931 2.97673 9.34641 3.2385C10.2483 3.80754 11.1019 5.78783 11.4348 6.80073C10.3735 6.91454 8.14002 6.97145 7.23239 6.39956C6.70318 6.06666 6.38451 5.67118 6.29062 5.23301C6.19388 4.78915 6.31623 4.30546 6.6605 3.79047ZM14.5902 3.23565C15.1194 2.89991 15.6173 2.77757 16.0725 2.87431C16.5278 2.9682 16.9318 3.27548 17.2761 3.79047C17.9675 4.82329 17.7712 5.72239 16.707 6.39671C15.7994 6.97145 13.5687 6.91454 12.5046 6.79789C12.8347 5.78498 13.6854 3.80754 14.5902 3.23565ZM20.7074 6.98283H17.3387C17.9589 6.54751 18.363 6.00691 18.4938 5.40372C18.6361 4.74647 18.4654 4.02947 17.9988 3.32954C17.5322 2.63246 16.9261 2.1886 16.249 2.04919C15.5746 1.90692 14.8349 2.07479 14.115 2.53288C13.1676 3.13038 12.4107 4.64973 11.964 5.7736C11.5202 4.64689 10.7633 3.13038 9.81872 2.53288C9.09887 2.07764 8.36195 1.90692 7.68479 2.04919C7.00762 2.1886 6.40158 2.63246 5.93496 3.32954C5.46835 4.02663 5.29763 4.74363 5.43989 5.40372C5.57077 6.00691 5.97764 6.54466 6.59506 6.98283H3.28889C2.61457 6.98283 2 7.68276 2 8.45097V11.4925C2 12.275 2.60319 12.9635 3.28889 12.9635H3.30027C3.29174 12.9948 3.28036 13.0233 3.28036 13.0574V20.529C3.28036 21.3115 3.88355 22 4.5721 22H19.3588C20.0445 22 20.6477 21.3143 20.6477 20.5319V12.9635H20.7046C21.3903 12.9635 21.9935 12.2778 21.9935 11.4954V8.45097C21.9963 7.68276 21.3818 6.98283 20.7074 6.98283Z" fill="#86888C"/>
</svg>
