<svg width="28" height="28" viewBox="0 0 28 28" fill="none" xmlns="http://www.w3.org/2000/svg">
<path d="M8.75455 12.1778C8.66524 12.116 8.62402 12.0473 8.62402 11.9408C8.62746 11.8034 8.74081 11.6935 8.87821 11.6969C8.94347 11.7004 9.00874 11.721 9.0637 11.7553C9.45872 12.0164 10.0083 12.2809 10.6472 12.2809C11.6021 12.2809 12.1895 11.7897 12.1895 11.0649C12.1895 10.4707 11.8563 10.0482 10.764 9.91077L10.4823 9.87642C9.31788 9.72871 8.77516 9.16882 8.77516 8.29977C8.77516 7.26585 9.51024 6.62695 10.6403 6.62695C11.2724 6.62695 11.8048 6.79183 12.1723 7.02197C12.2857 7.09067 12.3372 7.17998 12.3372 7.26585C12.3372 7.39638 12.2342 7.50287 12.1036 7.50287H12.1002C12.0384 7.49943 11.98 7.48226 11.925 7.45134C11.5231 7.2315 11.1006 7.10098 10.6197 7.10098C9.75412 7.10098 9.26979 7.58187 9.26979 8.25512C9.26979 8.86654 9.64764 9.26156 10.6713 9.39209L10.9426 9.42644C12.1242 9.57414 12.6841 10.134 12.6841 11.0271C12.6841 12.0336 11.9662 12.7515 10.5819 12.7515C9.9293 12.748 9.2904 12.5488 8.75455 12.1778Z" fill="#86888C"/>
<path d="M10.5853 12.926C9.89483 12.9191 9.22501 12.7096 8.65825 12.318C8.52085 12.2219 8.45215 12.0982 8.45215 11.9402C8.45558 11.7066 8.64451 11.5211 8.87808 11.5246C8.9777 11.528 9.07387 11.5589 9.15631 11.6139C9.65095 11.9436 10.1524 12.1119 10.6436 12.1119C11.4886 12.1119 12.0142 11.71 12.0142 11.0677C12.0142 10.6624 11.8631 10.2261 10.7364 10.0819L10.4582 10.0475C8.92274 9.85174 8.59985 8.98957 8.59985 8.30258C8.59985 7.18278 9.4002 6.45801 10.6368 6.45801C11.2448 6.45801 11.8218 6.60571 12.2581 6.87707C12.4161 6.97669 12.5054 7.11408 12.5054 7.26866C12.5054 7.49536 12.3233 7.67742 12.0966 7.67742C12.0073 7.67398 11.9214 7.64994 11.8459 7.60528L11.8424 7.60185C11.4303 7.37857 11.0421 7.27209 10.6196 7.27209C9.88452 7.27209 9.44141 7.63963 9.44141 8.25449C9.44141 8.96552 10.0734 9.14414 10.6917 9.22314L10.9631 9.25749C11.8253 9.36741 12.8558 9.76243 12.8558 11.0299C12.8558 12.2012 11.9867 12.926 10.5853 12.926ZM8.85404 12.0364C9.36241 12.3867 9.96696 12.5791 10.5853 12.5825C11.7944 12.5825 12.5157 12.002 12.5157 11.0299C12.5157 10.2021 11.9936 9.73152 10.9253 9.59755L10.654 9.5632C9.60973 9.42924 9.10479 8.99987 9.10479 8.25449C9.10479 7.44727 9.70247 6.9286 10.6265 6.9286C11.1005 6.9286 11.5505 7.04882 12.0108 7.29957C12.0417 7.31675 12.0726 7.32705 12.1069 7.33392C12.1413 7.33392 12.1722 7.30644 12.1722 7.27209V7.26866C12.1722 7.23774 12.1413 7.20339 12.0863 7.16904C11.7016 6.93203 11.1898 6.8015 10.6436 6.8015C9.59942 6.8015 8.95022 7.37514 8.95022 8.30258C8.95022 9.11322 9.45859 9.57351 10.5062 9.70747L10.7845 9.74182C11.8596 9.87922 12.3611 10.3017 12.3611 11.0677C12.3611 11.4799 12.1962 11.8337 11.8837 12.081C11.578 12.3249 11.152 12.4554 10.6471 12.4554C10.0838 12.4554 9.51698 12.2699 8.96739 11.9024C8.93991 11.8852 8.909 11.8749 8.87808 11.8715C8.83686 11.8715 8.79908 11.9024 8.79564 11.9436C8.79221 11.978 8.79908 12.002 8.85404 12.0364Z" fill="#86888C"/>
<path d="M10.7089 15.4339C8.8918 15.4339 7.48003 14.9599 6.51481 14.029C5.50837 13.0604 5 11.6108 5 9.72158C5 7.83236 5.50837 6.38625 6.51138 5.41759C7.48003 4.48328 8.8918 4.0127 10.7055 4.0127C12.5191 4.0127 13.9343 4.48672 14.8995 5.41759C15.9025 6.38625 16.4143 7.8358 16.4143 9.72158C16.4143 11.6074 15.906 13.0604 14.8995 14.0256C13.9377 14.9599 12.526 15.4339 10.7089 15.4339ZM10.7089 4.69625C9.07729 4.69625 7.82353 5.10501 6.98884 5.90879C6.12323 6.74348 5.68699 8.02472 5.68699 9.71815C5.68699 11.4116 6.12666 12.6963 6.98884 13.5275C7.82353 14.3313 9.07385 14.74 10.7089 14.74C12.3439 14.74 13.5942 14.3313 14.4289 13.5275C15.2945 12.6928 15.7308 11.4116 15.7308 9.71815C15.7308 8.02472 15.2911 6.74005 14.4289 5.90879C13.5908 5.10501 12.3405 4.69969 10.7089 4.69625Z" fill="#86888C"/>
<path d="M10.7092 13.6791C10.5203 13.6791 10.3657 13.5245 10.3657 13.3356V6.04662C10.3657 5.8577 10.5203 5.70312 10.7092 5.70312C10.8981 5.70312 11.0527 5.8577 11.0527 6.04662V13.3356C11.0527 13.5245 10.8981 13.6791 10.7092 13.6791Z" fill="#86888C"/>
<path d="M15.3979 26C15.2159 26 15.0407 25.9279 14.9102 25.7973L6.68689 17.5775C6.44988 17.3405 6.50483 17.1172 6.54262 17.0313C6.5804 16.9455 6.69719 16.7462 7.03382 16.7462H10.3657V15.0803C10.3657 14.8914 10.5203 14.7368 10.7092 14.7368C10.8981 14.7368 11.0527 14.8914 11.0527 15.0803V16.7462C11.0527 17.1241 10.7436 17.4332 10.3657 17.4332H7.52158L15.3979 25.3096L23.2743 17.4332H20.4301C20.0523 17.4332 19.7431 17.1241 19.7431 16.7462V3.35681C19.7431 2.88278 19.5508 2.69043 19.0733 2.69043H11.7053C11.2313 2.69043 11.0527 2.87248 11.0527 3.36024V4.36668C11.0527 4.5556 10.8981 4.71018 10.7092 4.71018C10.5203 4.71018 10.3657 4.5556 10.3657 4.36668V3.35681C10.3657 2.49463 10.8535 2 11.7053 2H19.0733C19.9389 2 20.4336 2.49463 20.4336 3.35681V16.7462H23.7655C24.1021 16.7462 24.2189 16.9455 24.2567 17.0313C24.2944 17.1172 24.3494 17.3405 24.1124 17.5775L15.8822 25.7973C15.7552 25.9279 15.58 26 15.3979 26Z" fill="#86888C"/>
</svg>
