<svg width="24" height="24" viewBox="0 0 24 24" fill="none" xmlns="http://www.w3.org/2000/svg">
<path d="M8.12879 11.4812C8.05437 11.4297 8.02002 11.3724 8.02002 11.2837C8.02288 11.1692 8.11734 11.0776 8.23184 11.0805C8.28623 11.0833 8.34062 11.1005 8.38641 11.1291C8.7156 11.3467 9.17359 11.5671 9.70601 11.5671C10.5018 11.5671 10.9913 11.1577 10.9913 10.5538C10.9913 10.0586 10.7136 9.70648 9.80333 9.59198L9.56861 9.56335C8.59824 9.44027 8.14597 8.97369 8.14597 8.24949C8.14597 7.38789 8.75853 6.85547 9.70028 6.85547C10.227 6.85547 10.6707 6.99287 10.9769 7.18465C11.0714 7.2419 11.1143 7.31632 11.1143 7.38789C11.1143 7.49666 11.0285 7.5854 10.9197 7.5854H10.9168C10.8653 7.58253 10.8166 7.56822 10.7708 7.54246C10.4359 7.35926 10.0839 7.25049 9.68311 7.25049C8.96177 7.25049 8.55816 7.65123 8.55816 8.21227C8.55816 8.72179 8.87303 9.05097 9.72605 9.15975L9.95218 9.18837C10.9369 9.31146 11.4034 9.77804 11.4034 10.5223C11.4034 11.361 10.8052 11.9592 9.65162 11.9592C9.10775 11.9564 8.57534 11.7903 8.12879 11.4812Z" fill="#86888C"/>
<path d="M9.65405 12.1049C9.0787 12.0991 8.52052 11.9245 8.04821 11.5982C7.93371 11.518 7.87646 11.415 7.87646 11.2833C7.87933 11.0887 8.03676 10.9341 8.23141 10.937C8.31442 10.9398 8.39457 10.9656 8.46327 11.0114C8.87546 11.2862 9.29338 11.4265 9.70271 11.4265C10.4069 11.4265 10.8448 11.0915 10.8448 10.5563C10.8448 10.2185 10.7189 9.85496 9.78 9.73474L9.54814 9.70611C8.26862 9.54295 7.99955 8.82448 7.99955 8.25198C7.99955 7.31882 8.6665 6.71484 9.69699 6.71484C10.2036 6.71484 10.6845 6.83793 11.0481 7.06406C11.1797 7.14707 11.2542 7.26157 11.2542 7.39038C11.2542 7.57931 11.1025 7.73102 10.9135 7.73102C10.8391 7.72815 10.7675 7.70812 10.7046 7.6709L10.7017 7.66804C10.3582 7.48198 10.0348 7.39325 9.68268 7.39325C9.07011 7.39325 8.70085 7.69953 8.70085 8.21191C8.70085 8.80444 9.22755 8.95329 9.74279 9.01912L9.96892 9.04775C10.6874 9.13935 11.5461 9.46853 11.5461 10.5248C11.5461 11.5009 10.8219 12.1049 9.65405 12.1049ZM8.21137 11.3635C8.63502 11.6554 9.13881 11.8157 9.65405 11.8186C10.6616 11.8186 11.2628 11.3349 11.2628 10.5248C11.2628 9.83492 10.8277 9.44277 9.93744 9.33113L9.7113 9.30251C8.84111 9.19087 8.42033 8.83306 8.42033 8.21191C8.42033 7.53923 8.9184 7.107 9.6884 7.107C10.0834 7.107 10.4584 7.20719 10.842 7.41615C10.8677 7.43046 10.8935 7.43905 10.9221 7.44477C10.9507 7.44477 10.9765 7.42187 10.9765 7.39325V7.39038C10.9765 7.36462 10.9507 7.336 10.9049 7.30737C10.5844 7.10986 10.1578 7.00109 9.70271 7.00109C8.83253 7.00109 8.29152 7.47912 8.29152 8.25198C8.29152 8.92752 8.71517 9.31109 9.58822 9.42273L9.82007 9.45135C10.716 9.56585 11.1339 9.91793 11.1339 10.5563C11.1339 10.8998 10.9965 11.1946 10.7361 11.4007C10.4813 11.6039 10.1264 11.7127 9.70558 11.7127C9.23613 11.7127 8.76383 11.5581 8.30583 11.2518C8.28293 11.2375 8.25717 11.2289 8.23141 11.2261C8.19706 11.2261 8.16557 11.2518 8.16271 11.2862C8.15985 11.3148 8.16557 11.3349 8.21137 11.3635Z" fill="#86888C"/>
<path d="M9.75741 14.1954C8.24317 14.1954 7.0667 13.8004 6.26234 13.0247C5.42364 12.2175 5 11.0095 5 9.43514C5 7.86079 5.42364 6.65569 6.25948 5.84848C7.0667 5.06989 8.24317 4.67773 9.75454 4.67773C11.2659 4.67773 12.4453 5.07275 13.2496 5.84848C14.0854 6.65569 14.5119 7.86365 14.5119 9.43514C14.5119 11.0066 14.0883 12.2175 13.2496 13.0218C12.4481 13.8004 11.2716 14.1954 9.75741 14.1954ZM9.75741 5.24736C8.39774 5.24736 7.35294 5.588 6.65736 6.25781C5.93602 6.95339 5.57249 8.02109 5.57249 9.43228C5.57249 10.8435 5.93889 11.914 6.65736 12.6067C7.35294 13.2766 8.39488 13.6172 9.75741 13.6172C11.1199 13.6172 12.1619 13.2766 12.8574 12.6067C13.5788 11.9112 13.9423 10.8435 13.9423 9.43228C13.9423 8.02109 13.5759 6.95053 12.8574 6.25781C12.159 5.588 11.1171 5.25023 9.75741 5.24736Z" fill="#86888C"/>
<path d="M9.75793 12.7326C9.60049 12.7326 9.47168 12.6038 9.47168 12.4463V6.37218C9.47168 6.21475 9.60049 6.08594 9.75793 6.08594C9.91536 6.08594 10.0442 6.21475 10.0442 6.37218V12.4463C10.0442 12.6038 9.91536 12.7326 9.75793 12.7326Z" fill="#86888C"/>
<path d="M13.6649 23C13.5132 23 13.3672 22.9399 13.2585 22.8311L6.40574 15.9813C6.20823 15.7837 6.25403 15.5977 6.28552 15.5261C6.317 15.4546 6.41433 15.2885 6.69485 15.2885H9.47143V13.9002C9.47143 13.7428 9.60024 13.614 9.75768 13.614C9.91511 13.614 10.0439 13.7428 10.0439 13.9002V15.2885C10.0439 15.6034 9.7863 15.861 9.47143 15.861H7.10132L13.6649 22.4246L20.2286 15.861H17.8584C17.5436 15.861 17.2859 15.6034 17.2859 15.2885V4.13067C17.2859 3.73565 17.1256 3.57535 16.7278 3.57535H10.5878C10.1928 3.57535 10.0439 3.72706 10.0439 4.13353V4.97223C10.0439 5.12967 9.91511 5.25848 9.75768 5.25848C9.60024 5.25848 9.47143 5.12967 9.47143 4.97223V4.13067C9.47143 3.41219 9.8779 3 10.5878 3H16.7278C17.4491 3 17.8613 3.41219 17.8613 4.13067V15.2885H20.6379C20.9184 15.2885 21.0157 15.4546 21.0472 15.5261C21.0787 15.5977 21.1245 15.7837 20.927 15.9813L14.0685 22.8311C13.9626 22.9399 13.8166 23 13.6649 23Z" fill="#86888C"/>
</svg>
