<svg width="20" height="20" viewBox="0 0 20 20" fill="none" xmlns="http://www.w3.org/2000/svg">
<path fill-rule="evenodd" clip-rule="evenodd" d="M16.9989 17.1372C16.9989 17.2328 16.8919 17.3307 16.7849 17.3307H8.49801C8.39101 17.3307 8.29311 17.2168 8.29311 17.1372V5.60387C8.29311 5.53102 8.40694 5.41036 8.49801 5.41036H13.0216V7.00171C13.0216 7.65737 13.2493 8.22425 13.675 8.63404C14.1007 9.04838 14.6744 9.26238 15.3483 9.26238H16.9989V17.1372ZM7.62607 5.60387V14.1024H3.85828C3.77177 14.1024 3.66477 13.9954 3.66477 13.9294V2.84234C3.66477 2.76949 3.76494 2.66705 3.85828 2.66705H11.8287C11.922 2.66705 12.0222 2.75356 12.0222 2.84234V4.74104H8.49801C8.03813 4.74104 7.62607 5.15538 7.62607 5.60387ZM13.6887 5.6107L16.7758 8.59306H15.3483C14.8543 8.59306 14.4354 8.44508 14.144 8.15822C13.8503 7.87137 13.691 7.47069 13.691 7.00171V5.6107H13.6887ZM17.6522 8.66591C17.6363 8.55663 17.5862 8.45418 17.5065 8.37906L13.9027 4.88902C13.823 4.80933 13.7205 4.76153 13.609 4.75014C13.5885 4.74331 13.568 4.74331 13.543 4.74331H12.6892V2.84234C12.6892 2.38702 12.2954 2 11.8287 2H3.86056C3.40751 2 3 2.39613 3 2.84234V13.9271C3 14.3688 3.41434 14.7695 3.86056 14.7695H7.62607V17.1372C7.62607 17.5925 8.03358 18 8.49801 18H16.7871C17.2607 18 17.6659 17.597 17.6659 17.1372V8.74559C17.6659 8.72055 17.6591 8.69323 17.6522 8.66591Z" fill="#86888C"/>
</svg>
