<svg width="28" height="28" viewBox="0 0 28 28" fill="none" xmlns="http://www.w3.org/2000/svg">
<path fill-rule="evenodd" clip-rule="evenodd" d="M23.9983 24.7057C23.9983 24.8492 23.8378 24.996 23.6773 24.996H11.247C11.0865 24.996 10.9397 24.8253 10.9397 24.7057V7.40581C10.9397 7.29653 11.1104 7.11554 11.247 7.11554H18.0324V9.50256C18.0324 10.4861 18.3739 11.3364 19.0125 11.9511C19.6511 12.5726 20.5117 12.8936 21.5225 12.8936H23.9983V24.7057ZM9.9391 7.40581V20.1537H4.28742C4.15766 20.1537 3.99715 19.9932 3.99715 19.8941V3.26352C3.99715 3.15424 4.14741 3.00057 4.28742 3.00057H16.243C16.383 3.00057 16.5333 3.13034 16.5333 3.26352V6.11155H11.247C10.5572 6.11155 9.9391 6.73307 9.9391 7.40581ZM19.033 7.41605L23.6636 11.8896H21.5225C20.7814 11.8896 20.1531 11.6676 19.716 11.2373C19.2755 10.8071 19.0364 10.206 19.0364 9.50256V7.41605H19.033ZM24.9784 11.9989C24.9545 11.8349 24.8793 11.6813 24.7598 11.5686L19.354 6.33352C19.2345 6.214 19.0808 6.14229 18.9135 6.12521C18.8828 6.11497 18.852 6.11497 18.8145 6.11497H17.5339V3.26352C17.5339 2.58053 16.9431 2 16.243 2H4.29084C3.61127 2 3 2.59419 3 3.26352V19.8907C3 20.5532 3.62151 21.1542 4.29084 21.1542H9.9391V24.7057C9.9391 25.3887 10.5504 26 11.247 26H23.6807C24.391 26 24.9989 25.3956 24.9989 24.7057V12.1184C24.9989 12.0808 24.9886 12.0398 24.9784 11.9989Z" fill="#86888C"/>
</svg>
