<svg width="28" height="28" viewBox="0 0 28 28" fill="none" xmlns="http://www.w3.org/2000/svg">
<path fill-rule="evenodd" clip-rule="evenodd" d="M25.7151 18.2641C25.7185 18.2402 26.0259 14.1247 25.9917 12.7756C25.9849 12.3862 25.879 12.3418 25.6126 12.3247C25.3052 12.335 25.1549 12.4784 25.114 12.6902L24.4685 15.8392C24.4616 15.8699 24.4445 15.8973 24.4309 15.928C24.4377 16.191 24.3797 16.4574 24.2396 16.6896L24.2362 16.693L22.3202 19.9377C22.228 20.0948 22.0606 20.1836 21.8932 20.1836C21.8044 20.1836 21.7156 20.1631 21.6371 20.1153C21.4014 19.9718 21.3195 19.6644 21.4629 19.4219L23.3789 16.1807L23.3824 16.1773V16.1739C23.4951 15.9826 23.4097 15.6513 23.2218 15.5386C23.0476 15.4293 22.8017 15.4293 22.6788 15.6309L22.5763 15.8085C22.2689 16.3583 21.6268 17.5059 20.3426 18.1685C20.3324 18.1753 19.9909 18.3666 19.3863 19.159C18.8672 19.8352 18.4266 20.5968 18.0817 21.42L17.8289 22.0279H21.8318C21.9069 22.0279 21.9786 22.0381 22.0503 22.0518L24.3626 20.0743C24.5333 19.9274 24.7178 19.7874 24.8988 19.6508C25.1208 19.4834 25.2847 19.2853 25.4384 19.0292C25.5955 18.7525 25.6912 18.4964 25.7151 18.2641ZM22.3543 24.4562V23.5717C22.3543 23.2779 22.1152 23.0388 21.8249 23.0388H17.5215C17.2312 23.0388 16.9921 23.2779 16.9921 23.5717V24.4562C16.9921 24.75 17.2312 24.989 17.5215 24.989H21.8249C22.1152 24.989 22.3543 24.75 22.3543 24.4562ZM26.9924 12.7517C27.03 14.152 26.726 18.1924 26.7124 18.3632C26.668 18.7525 26.5279 19.1453 26.2923 19.5449C26.0703 19.9172 25.8209 20.2109 25.5375 20.4227C25.3257 20.5832 25.1584 20.7095 25.0013 20.8462L22.9793 22.5744C23.2082 22.8442 23.3516 23.1891 23.3516 23.5717V24.4562C23.3516 25.3067 22.6651 26 21.8215 26H17.5181C16.6745 26 15.988 25.3067 15.988 24.4562V23.5717C15.988 23.0696 16.2305 22.6256 16.5994 22.3455L17.1458 21.0272C17.5249 20.1221 18.0099 19.2887 18.5837 18.5408C19.3419 17.5537 19.8064 17.3044 19.8952 17.2668C20.8959 16.7477 21.4185 15.8153 21.6951 15.3132L21.8181 15.098C22.2075 14.4662 23.0169 14.2818 23.6829 14.6575L24.1269 12.4887C24.2704 11.7885 24.8715 11.3138 25.5819 11.3138C26.1522 11.3445 26.9651 11.5699 26.9924 12.7517ZM12.9927 24.4562V23.5717C12.9927 23.2779 12.7571 23.0388 12.4633 23.0388H8.15993C7.86962 23.0388 7.63054 23.2779 7.63054 23.5717V24.4562C7.63054 24.75 7.8662 24.989 8.15993 24.989H12.4633C12.7571 24.989 12.9927 24.75 12.9927 24.4562ZM5.0485 19.6166C5.26367 19.7806 5.45152 19.924 5.63253 20.0777L7.94476 22.0552C8.01648 22.0416 8.0882 22.0313 8.16334 22.0313H12.1662L11.9134 21.4234C11.5719 20.6037 11.1347 19.842 10.6088 19.1624C10.0042 18.37 9.65929 18.1753 9.65587 18.1753C8.36826 17.5093 7.72617 16.3652 7.41878 15.8153L7.31291 15.6343C7.18995 15.4328 6.94746 15.4328 6.76644 15.5421C6.58201 15.6548 6.49663 15.9861 6.60933 16.1773C6.61275 16.1773 6.61275 16.1807 6.61275 16.1807L6.61617 16.1841L8.52879 19.4288C8.67224 19.6679 8.59368 19.9787 8.3546 20.1187C8.27605 20.1665 8.18725 20.1904 8.10186 20.1904C7.93109 20.1904 7.76715 20.1016 7.67152 19.9411L5.7589 16.6999C5.7589 16.6999 5.75549 16.6999 5.75549 16.6965C5.61887 16.4608 5.56081 16.1944 5.56422 15.9314C5.55398 15.9007 5.53348 15.8733 5.52665 15.8426L4.88456 12.697C4.84016 12.475 4.63865 12.3316 4.43714 12.3247C4.09902 12.3452 4.01363 12.4067 4.00339 12.779C3.96923 14.1315 4.27662 18.247 4.28003 18.288C4.30736 18.5032 4.39957 18.7594 4.56351 19.0292C4.70696 19.2853 4.87431 19.48 5.0485 19.6166ZM13.3855 22.3489C13.7543 22.629 13.9968 23.073 13.9968 23.5751V24.4597C13.9968 25.3101 13.3103 26 12.4702 26H8.16676C7.32315 26 6.64007 25.3101 6.64007 24.4597V23.5751C6.64007 23.1925 6.78352 22.8476 7.01235 22.5778L4.99044 20.8496C4.8265 20.7095 4.65231 20.5763 4.48154 20.4466C4.17416 20.2143 3.918 19.9172 3.70283 19.5483C3.46717 19.1521 3.32714 18.7594 3.28615 18.3837C3.27249 18.1958 2.96852 14.1554 3.00267 12.7551C3.03 11.5734 3.84286 11.3514 4.32443 11.3206C5.09631 11.2831 5.71792 11.7919 5.86136 12.4921L6.30536 14.6609C6.97137 14.292 7.78082 14.473 8.16676 15.1049L8.28971 15.3201C8.56977 15.8221 9.09574 16.7511 10.1101 17.2805C10.1784 17.3112 10.6429 17.5606 11.4011 18.5476C11.9749 19.299 12.4599 20.1358 12.8356 21.034L13.3855 22.3489ZM14.9941 16.0749C16.5516 15.2961 20.0011 13.2332 20.3085 11.4333C20.5851 9.82126 20.633 6.34439 20.6398 4.9953C19.3351 5.03629 18.5496 4.51715 17.7845 4.00484C17.0161 3.49253 16.292 3.00754 14.9976 3.00754H14.9907C13.6963 3.00754 12.9722 3.49253 12.2038 4.00484C11.4285 4.52398 10.6361 5.07386 9.34848 5.00213C9.35531 6.35805 9.40655 9.82468 9.68319 11.4333C9.99399 13.2332 13.4367 15.2961 14.9941 16.0749ZM21.2955 11.6109C20.8242 14.3467 15.7831 16.8228 15.2093 17.0961C15.141 17.1268 15.0693 17.1439 14.9976 17.1439C14.9258 17.1439 14.8507 17.1268 14.7824 17.0961C14.2086 16.8228 9.1743 14.3467 8.70297 11.6109C8.33753 9.50704 8.35119 4.65035 8.35119 4.44542C8.35119 4.28832 8.42291 4.14487 8.54587 4.04924C8.6654 3.95361 8.82251 3.91945 8.96937 3.95361C10.1853 4.14487 10.8342 3.71453 11.6539 3.16465C12.4736 2.61819 13.3991 2 14.9941 2H15.001C16.596 2 17.5215 2.6216 18.3412 3.16807C19.1609 3.71453 19.8167 4.14829 21.0428 3.95361C21.1897 3.93312 21.3468 3.97068 21.4561 4.06632C21.5654 4.15853 21.6439 4.29856 21.6439 4.44542C21.6405 4.64693 21.6542 9.50363 21.2955 11.6109C21.2955 11.6075 21.2955 11.6075 21.2955 11.6109ZM17.6411 7.11968C17.8357 6.92159 18.1534 6.92159 18.3481 7.11968C18.5427 7.31436 18.5427 7.63541 18.3481 7.8335L14.2052 12.0174C14.1095 12.113 13.9798 12.1642 13.8534 12.1642C13.727 12.1642 13.5972 12.113 13.4982 12.0174L11.6402 10.1389C11.4455 9.94421 11.4455 9.62317 11.6402 9.42507C11.8349 9.2304 12.1525 9.2304 12.3472 9.42507L13.8534 10.9449L17.6411 7.11968Z" fill="#86888C"/>
</svg>
