<svg width="24" height="24" viewBox="0 0 24 24" fill="none" xmlns="http://www.w3.org/2000/svg">
<path fill-rule="evenodd" clip-rule="evenodd" d="M2.89437 17.617V20.214C2.89437 20.4725 3.09939 20.6834 3.35195 20.6834H16.9577C17.2102 20.6775 17.4123 20.4665 17.4063 20.214V16.9604C17.4063 16.8118 17.4747 16.6751 17.5935 16.5889C17.7094 16.5028 17.8609 16.479 17.9976 16.5295C18.3869 16.6662 18.7553 16.6959 18.996 16.7048C19.0673 16.7048 19.1594 16.7048 19.2337 16.6989C19.9052 16.687 21.9762 16.4523 21.9762 13.7929C21.9762 11.2346 20.0865 10.8988 19.2634 10.8721H18.9633C18.8177 10.8721 18.4285 10.887 17.9917 11.0326C17.855 11.0771 17.7064 11.0504 17.5906 10.9642C17.4747 10.8751 17.4063 10.7384 17.4093 10.5928V7.6809C17.4152 7.42833 17.2132 7.21737 16.9606 7.21143H13.2554C13.1128 7.21143 12.9791 7.14012 12.8959 7.02423C12.8127 6.90538 12.7859 6.75384 12.8305 6.61419C12.9404 6.25763 12.9939 5.8773 12.9939 5.44646C12.9939 2.87626 11.0923 2.54644 10.2751 2.52565H9.98098C9.1817 2.53753 7.30976 2.84061 7.30976 5.42863C7.30976 5.86244 7.36622 6.26357 7.47318 6.61419C7.51775 6.75384 7.49101 6.90538 7.40781 7.02423C7.32462 7.14012 7.19091 7.21143 7.04828 7.21143H3.35195C3.09642 7.2144 2.8914 7.42536 2.89437 7.6809V9.95396H3.12613C3.43218 9.96585 3.86599 10.0074 4.35032 10.1768C5.22686 10.4561 6.72441 11.3 6.72441 13.7899C6.72441 16.2769 5.22983 17.1238 4.33546 17.409C3.94919 17.5398 3.54212 17.6051 3.13208 17.6081C3.05482 17.617 2.9746 17.62 2.89437 17.617ZM16.9606 21.6016H3.35195C2.60615 21.6016 2 20.9776 2 20.214V17.1297C2 16.999 2.05646 16.8742 2.15154 16.788C2.24662 16.7018 2.37439 16.6602 2.50215 16.6751C2.64181 16.6929 2.76363 16.7018 2.84683 16.7018C2.92408 16.7018 3.01322 16.7018 3.09048 16.6929C3.27173 16.69 3.64314 16.6751 4.06507 16.5325C5.23875 16.1581 5.83004 15.234 5.83004 13.787C5.83004 12.334 5.23875 11.4129 4.07101 11.0444C3.6372 10.8899 3.24796 10.8721 3.10236 10.8662H2.8082C2.73689 10.8691 2.62695 10.8751 2.49621 10.887C2.36844 10.8988 2.24365 10.8572 2.15154 10.7711C2.05646 10.6819 2.00297 10.5601 2.00297 10.4294V7.67495C2.00297 6.91132 2.60912 6.28734 3.35492 6.28734H6.4867C6.44213 5.99913 6.41836 5.71091 6.41836 5.41972C6.41836 2.64153 8.25761 1.62236 9.97801 1.60156H10.29C12.0342 1.6491 13.8883 2.68313 13.8883 5.44052C13.8883 5.73765 13.8645 6.01993 13.8229 6.28734H16.9606C17.7005 6.28734 18.3037 6.90835 18.3037 7.67495V10.0045C18.5859 9.95693 18.8207 9.94505 18.9633 9.94505H19.2812C21.0135 9.99556 22.8676 11.0296 22.8676 13.784C22.8676 16.5652 20.9363 17.5814 19.2842 17.6051C19.2218 17.614 19.103 17.614 18.9811 17.614C18.7553 17.6081 18.5265 17.5843 18.3037 17.5457V20.211C18.3037 20.9806 17.7005 21.6016 16.9606 21.6016Z" fill="#86888C"/>
</svg>
