<svg width="28" height="28" viewBox="0 0 28 28" fill="none" xmlns="http://www.w3.org/2000/svg">
<path fill-rule="evenodd" clip-rule="evenodd" d="M3.07324 20.8201V23.9364C3.07324 24.2466 3.31927 24.4998 3.62234 24.4998H19.9492C20.2523 24.4927 20.4947 24.2395 20.4876 23.9364V20.0321C20.4876 19.8538 20.5696 19.6898 20.7122 19.5864C20.8513 19.483 21.0331 19.4545 21.1971 19.5151C21.6642 19.6791 22.1064 19.7148 22.3952 19.7255C22.4808 19.7255 22.5913 19.7255 22.6804 19.7183C23.4863 19.7041 25.9715 19.4224 25.9715 16.2312C25.9715 13.1612 23.7038 12.7583 22.7161 12.7262H22.356C22.1812 12.7262 21.7142 12.744 21.19 12.9188C21.026 12.9722 20.8477 12.9401 20.7087 12.8367C20.5696 12.7298 20.4876 12.5658 20.4912 12.391V8.89676C20.4983 8.59369 20.2558 8.34053 19.9528 8.3334H15.5065C15.3353 8.3334 15.1749 8.24783 15.075 8.10877C14.9752 7.96614 14.9431 7.7843 14.9966 7.61672C15.1285 7.18885 15.1927 6.73245 15.1927 6.21544C15.1927 3.1312 12.9107 2.73542 11.9302 2.71046H11.5772C10.618 2.72472 8.37171 3.08841 8.37171 6.19405C8.37171 6.71462 8.43946 7.19598 8.56782 7.61672C8.6213 7.7843 8.58921 7.96614 8.48938 8.10877C8.38954 8.24783 8.22909 8.3334 8.05794 8.3334H3.62234C3.3157 8.33697 3.06968 8.59012 3.07324 8.89676V11.6244H3.35136C3.71862 11.6387 4.23919 11.6886 4.82038 11.8919C5.87223 12.227 7.66929 13.2397 7.66929 16.2276C7.66929 19.212 5.8758 20.2282 4.80256 20.5705C4.33903 20.7274 3.85054 20.8058 3.35849 20.8094C3.26579 20.8201 3.16951 20.8237 3.07324 20.8201ZM19.9528 25.6016H3.62234C2.72738 25.6016 2 24.8528 2 23.9364V20.2353C2 20.0785 2.06775 19.9287 2.18185 19.8253C2.29594 19.7219 2.44926 19.672 2.60259 19.6898C2.77017 19.7112 2.91636 19.7219 3.01619 19.7219C3.1089 19.7219 3.21587 19.7219 3.30857 19.7112C3.52607 19.7076 3.97177 19.6898 4.47809 19.5187C5.8865 19.0694 6.59605 17.9605 6.59605 16.2241C6.59605 14.4805 5.8865 13.3751 4.48522 12.933C3.96464 12.7476 3.49755 12.7262 3.32283 12.7191H2.96984C2.88427 12.7226 2.75234 12.7298 2.59545 12.744C2.44213 12.7583 2.29238 12.7084 2.18185 12.605C2.06775 12.498 2.00357 12.3518 2.00357 12.1949V8.88963C2.00357 7.97328 2.73095 7.2245 3.62591 7.2245H7.38404C7.33056 6.87864 7.30204 6.53278 7.30204 6.18335C7.30204 2.84952 9.50914 1.62652 11.5736 1.60156H11.948C14.041 1.65861 16.2659 2.89944 16.2659 6.20831C16.2659 6.56487 16.2374 6.9036 16.1875 7.2245H19.9528C20.8406 7.2245 21.5644 7.96971 21.5644 8.88963V11.6851C21.9031 11.628 22.1848 11.6137 22.356 11.6137H22.7375C24.8162 11.6744 27.0412 12.9152 27.0412 16.2205C27.0412 19.5579 24.7235 20.7773 22.741 20.8058C22.6662 20.8165 22.5235 20.8165 22.3774 20.8165C22.1064 20.8094 21.8318 20.7809 21.5644 20.7345V23.9329C21.5644 24.8564 20.8406 25.6016 19.9528 25.6016Z" fill="#86888C"/>
</svg>
