<svg width="20" height="20" viewBox="0 0 20 20" fill="none" xmlns="http://www.w3.org/2000/svg">
<path fill-rule="evenodd" clip-rule="evenodd" d="M2.7155 14.4139V16.4915C2.7155 16.6983 2.87951 16.867 3.08156 16.867H13.9661C14.1682 16.8623 14.3298 16.6935 14.3251 16.4915V13.8886C14.3251 13.7697 14.3797 13.6604 14.4748 13.5915C14.5675 13.5225 14.6888 13.5035 14.7981 13.5439C15.1095 13.6533 15.4042 13.677 15.5968 13.6842C15.6538 13.6842 15.7275 13.6842 15.787 13.6794C16.3242 13.6699 17.981 13.4821 17.981 11.3546C17.981 9.308 16.4692 9.03939 15.8107 9.01799H15.5706C15.4542 9.01799 15.1428 9.02988 14.7933 9.14636C14.684 9.18201 14.5651 9.16062 14.4724 9.09168C14.3797 9.02037 14.3251 8.91103 14.3274 8.79455V6.46503C14.3322 6.26298 14.1706 6.09421 13.9685 6.08945H11.0043C10.8902 6.08945 10.7832 6.0324 10.7167 5.9397C10.6501 5.84462 10.6287 5.72339 10.6644 5.61166C10.7523 5.32642 10.7951 5.02215 10.7951 4.67748C10.7951 2.62132 9.27381 2.35747 8.62012 2.34083H8.38479C7.74536 2.35034 6.24781 2.5928 6.24781 4.66322C6.24781 5.01027 6.29297 5.33117 6.37855 5.61166C6.4142 5.72339 6.39281 5.84462 6.32625 5.9397C6.25969 6.0324 6.15273 6.08945 6.03863 6.08945H3.08156C2.87714 6.09183 2.71312 6.2606 2.7155 6.46503V8.28348H2.90091C3.14574 8.29299 3.49279 8.32627 3.88026 8.46176C4.58149 8.6852 5.77953 9.36029 5.77953 11.3523C5.77953 13.3419 4.58387 14.0193 3.86837 14.2475C3.55935 14.3521 3.23369 14.4044 2.90566 14.4068C2.84386 14.4139 2.77968 14.4163 2.7155 14.4139ZM13.9685 17.6016H3.08156C2.48492 17.6016 2 17.1024 2 16.4915V14.0241C2 13.9195 2.04516 13.8197 2.12123 13.7507C2.1973 13.6818 2.29951 13.6485 2.40172 13.6604C2.51345 13.6747 2.6109 13.6818 2.67746 13.6818C2.73927 13.6818 2.81058 13.6818 2.87238 13.6747C3.01738 13.6723 3.31451 13.6604 3.65206 13.5463C4.591 13.2468 5.06403 12.5075 5.06403 11.3499C5.06403 10.1875 4.591 9.45062 3.65681 9.15586C3.30976 9.03226 2.99837 9.01799 2.88189 9.01324H2.64656C2.58951 9.01562 2.50156 9.02037 2.39697 9.02988C2.29476 9.03939 2.19492 9.00611 2.12123 8.93717C2.04516 8.86586 2.00238 8.7684 2.00238 8.66381V6.46028C2.00238 5.84937 2.4873 5.35019 3.08394 5.35019H5.58936C5.55371 5.11961 5.53469 4.88904 5.53469 4.65609C5.53469 2.43353 7.00609 1.6182 8.38241 1.60156H8.632C10.0273 1.6396 11.5106 2.46681 11.5106 4.67273C11.5106 4.91043 11.4916 5.13625 11.4583 5.35019H13.9685C14.5604 5.35019 15.0429 5.84699 15.0429 6.46028V8.32389C15.2688 8.28586 15.4565 8.27635 15.5706 8.27635H15.825C17.2108 8.31676 18.6941 9.14398 18.6941 11.3475C18.6941 13.5724 17.149 14.3854 15.8274 14.4044C15.7774 14.4115 15.6824 14.4115 15.5849 14.4115C15.4042 14.4068 15.2212 14.3878 15.0429 14.3569V16.4891C15.0429 17.1048 14.5604 17.6016 13.9685 17.6016Z" fill="#86888C"/>
</svg>
