<svg width="40" height="40" viewBox="0 0 40 40" fill="none" xmlns="http://www.w3.org/2000/svg">
<path fill-rule="evenodd" clip-rule="evenodd" d="M20.7786 37.4838C24.4667 37.4069 36.4991 36.0341 36.4991 21.0461C36.4991 6.05805 24.4104 4.6033 20.7069 4.51622C20.21 4.50085 19.6261 4.50085 19.1036 4.50085C15.4462 4.53159 3.50085 5.8173 3.50085 20.9385C3.50085 36.0905 15.5333 37.4428 19.2214 37.4838C19.749 37.4991 20.3125 37.4838 20.7786 37.4838ZM20.7325 3.01537C23.6266 3.0922 38 4.29084 38 21.0461C38 37.8167 23.6727 38.9283 20.8093 38.9846C20.4815 38.9846 20.1024 39 19.7285 39C19.5492 39 19.3699 39 19.206 38.9846C2.84007 38.7592 2 23.9044 2 20.9385C2 17.9727 2.8247 3.14855 19.0831 3H19.58C19.9693 3 20.3893 3 20.7325 3.01537ZM19.2521 29.8719C19.9744 29.8719 20.4354 30.3381 20.4354 31.0706V31.1884C20.4354 31.8902 19.9693 32.3563 19.2521 32.3563C18.4582 32.3563 17.992 31.8902 17.992 31.1884V31.0706C17.992 30.3381 18.4582 29.8719 19.1753 29.8719H19.2521ZM23.8828 11.0165C25.0968 11.9027 25.6551 13.1013 25.6551 14.8839C25.6551 17.0558 24.7689 18.3159 22.6124 20.8771C20.1229 23.7405 19.9283 23.9812 19.9283 26.8293C19.9283 27.0341 19.7644 27.2032 19.5544 27.2032H18.7348C18.5555 27.2032 18.4069 27.0854 18.3608 26.901C18.2994 26.5731 18.2686 26.2248 18.2686 25.7894C18.2686 24.0529 18.7655 22.9414 20.4866 20.8873L20.7991 20.5134C23.4525 17.3836 23.9903 16.4206 23.9903 14.848C23.9903 13.6801 23.6471 12.8964 22.8532 12.2664C22.4024 11.9078 21.6084 11.4878 19.5851 11.4878C18.535 11.4878 17.5771 11.6209 16.3785 11.9078C16.276 11.9385 16.1685 11.9232 16.0763 11.8617C15.9994 11.8002 15.9431 11.7131 15.9124 11.6209L15.7945 10.9755C15.7638 10.7962 15.856 10.6323 16.0199 10.5555C16.6807 10.2533 18.3711 9.92544 19.9488 9.92544C21.6187 9.93569 22.9402 10.2994 23.8828 11.0165Z" fill="#86888C"/>
</svg>
