<svg width="40" height="40" viewBox="0 0 40 40" fill="none" xmlns="http://www.w3.org/2000/svg">
<path fill-rule="evenodd" clip-rule="evenodd" d="M9.46044 16.7422V20.2869H31.5583V5.95959H9.46044V16.7422ZM5.53671 16.7422H7.92373V10.9385H5.53671V16.7422ZM18.9317 23.0734H22.0666V21.8133H18.9317V23.0734ZM35.4616 36.4889V24.5794H5.53671V36.4889H9.9778C9.9778 36.4684 9.96244 36.4479 9.96244 36.4223V28.79C9.96244 27.955 10.6488 27.284 11.4991 27.284H29.494C30.3392 27.284 31.0307 27.955 31.0307 28.79V36.4223C31.0307 36.4479 31.0205 36.4684 31.0154 36.4889H35.4616ZM11.4991 36.4223H29.494V28.79H11.4991V36.4223ZM33.0951 16.7627H35.4616V10.959H33.0951V16.7627ZM31.5583 21.7928H23.6033V23.0785H35.4616C36.3068 23.0785 36.9983 23.7547 36.9983 24.5845V36.494C36.9983 37.3238 36.3119 38 35.4616 38H5.53671C4.69152 38 4 37.3238 4 36.494V24.5845C4 23.7547 4.6864 23.0785 5.53671 23.0785H17.395V21.7928H9.46044C8.61525 21.7928 7.92373 21.1167 7.92373 20.2869V18.2481H5.53671C4.69152 18.2481 4 17.572 4 16.7422V10.9385C4 10.1087 4.6864 9.43255 5.53671 9.43255H7.92373V5.95959C7.92373 5.12464 8.61013 4.45361 9.46044 4.45361H19.7308V3.76722C19.5464 3.57769 19.4337 3.32669 19.4337 3.04496C19.4337 2.46614 19.9152 2 20.4991 2C21.0882 2 21.5697 2.47126 21.5697 3.04496C21.5697 3.32669 21.457 3.57769 21.2675 3.76722V4.45361H31.5635C32.4087 4.45361 33.1002 5.12464 33.1002 5.95959V9.45304H35.4667C36.3119 9.45304 37.0034 10.1241 37.0034 10.959V16.7627C37.0034 17.5925 36.3119 18.2686 35.4667 18.2686H33.1002V20.2869C33.0951 21.1167 32.4035 21.7928 31.5583 21.7928ZM15.9095 12.7365C16.601 12.7365 17.1645 12.1833 17.1645 11.5071C17.1645 10.8258 16.601 10.2726 15.9095 10.2726C15.218 10.2726 14.6545 10.8258 14.6545 11.5071C14.6545 12.1884 15.218 12.7365 15.9095 12.7365ZM18.7012 11.5071C18.7012 13.0182 17.4513 14.2425 15.9095 14.2425C14.3677 14.2425 13.1178 13.0131 13.1178 11.5071C13.1178 9.99602 14.3677 8.77177 15.9095 8.77177C17.4513 8.76665 18.7012 9.99602 18.7012 11.5071ZM25.1093 12.7006C25.8008 12.7006 26.3643 12.1474 26.3643 11.4713C26.3643 10.79 25.8008 10.2368 25.1093 10.2368C24.4178 10.2368 23.8543 10.79 23.8543 11.4713C23.8543 12.1474 24.4178 12.7006 25.1093 12.7006ZM25.1093 8.73079C26.6511 8.73079 27.901 9.96016 27.901 11.4713C27.901 12.9824 26.6511 14.2066 25.1093 14.2066C23.5674 14.2066 22.3176 12.9772 22.3176 11.4713C22.3176 9.96528 23.5674 8.73079 25.1093 8.73079ZM23.7211 15.856C24.1463 15.856 24.4895 16.1941 24.4895 16.609C24.4895 17.0239 24.1463 17.362 23.7211 17.362H17.2977C16.8725 17.362 16.5293 17.0239 16.5293 16.609C16.5293 16.1941 16.8725 15.856 17.2977 15.856H23.7211Z" fill="#86888C"/>
</svg>
