<svg width="20" height="20" viewBox="0 0 20 20" fill="none" xmlns="http://www.w3.org/2000/svg">
<path fill-rule="evenodd" clip-rule="evenodd" d="M5.42686 8.55208V10.1275H15.2482V3.75982H5.42686V8.55208ZM3.68298 8.55208H4.74388V5.97268H3.68298V8.55208ZM9.63631 11.366H11.0296V10.8059H9.63631V11.366ZM16.9829 17.3284V12.0353H3.68298V17.3284H5.6568C5.6568 17.3193 5.64997 17.3102 5.64997 17.2988V13.9067C5.64997 13.5356 5.95504 13.2373 6.33295 13.2373H14.3307C14.7063 13.2373 15.0137 13.5356 15.0137 13.9067V17.2988C15.0137 17.3102 15.0091 17.3193 15.0068 17.3284H16.9829ZM6.33295 17.2988H14.3307V13.9067H6.33295V17.2988ZM15.9311 8.56118H16.9829V5.98179H15.9311V8.56118ZM15.2482 10.7968H11.7126V11.3682H16.9829C17.3586 11.3682 17.6659 11.6688 17.6659 12.0376V17.3307C17.6659 17.6995 17.3608 18 16.9829 18H3.68298C3.30734 18 3 17.6995 3 17.3307V12.0376C3 11.6688 3.30507 11.3682 3.68298 11.3682H8.95333V10.7968H5.42686C5.05122 10.7968 4.74388 10.4963 4.74388 10.1275V9.2214H3.68298C3.30734 9.2214 3 8.92089 3 8.55208V5.97268C3 5.60387 3.30507 5.30336 3.68298 5.30336H4.74388V3.75982C4.74388 3.38873 5.04895 3.0905 5.42686 3.0905H9.99146V2.78543C9.90951 2.7012 9.85942 2.58964 9.85942 2.46443C9.85942 2.20717 10.0734 2 10.333 2C10.5948 2 10.8088 2.20945 10.8088 2.46443C10.8088 2.58964 10.7587 2.7012 10.6744 2.78543V3.0905H15.2504C15.6261 3.0905 15.9334 3.38873 15.9334 3.75982V5.31246H16.9852C17.3608 5.31246 17.6682 5.6107 17.6682 5.98179V8.56118C17.6682 8.92999 17.3608 9.23051 16.9852 9.23051H15.9334V10.1275C15.9311 10.4963 15.6238 10.7968 15.2482 10.7968ZM8.29311 6.77177C8.60046 6.77177 8.85088 6.5259 8.85088 6.22538C8.85088 5.9226 8.60046 5.67672 8.29311 5.67672C7.98577 5.67672 7.73534 5.9226 7.73534 6.22538C7.73534 6.52817 7.98577 6.77177 8.29311 6.77177ZM9.53386 6.22538C9.53386 6.89698 8.97837 7.44109 8.29311 7.44109C7.60785 7.44109 7.05236 6.89471 7.05236 6.22538C7.05236 5.55378 7.60785 5.00968 8.29311 5.00968C8.97837 5.0074 9.53386 5.55378 9.53386 6.22538ZM12.3819 6.75583C12.6892 6.75583 12.9397 6.50996 12.9397 6.20945C12.9397 5.90666 12.6892 5.66078 12.3819 5.66078C12.0746 5.66078 11.8241 5.90666 11.8241 6.20945C11.8241 6.50996 12.0746 6.75583 12.3819 6.75583ZM12.3819 4.99146C13.0672 4.99146 13.6227 5.53785 13.6227 6.20945C13.6227 6.88105 13.0672 7.42516 12.3819 7.42516C11.6966 7.42516 11.1412 6.87877 11.1412 6.20945C11.1412 5.54012 11.6966 4.99146 12.3819 4.99146ZM11.7649 8.15822C11.9539 8.15822 12.1064 8.30848 12.1064 8.49289C12.1064 8.67729 11.9539 8.82755 11.7649 8.82755H8.91007C8.72112 8.82755 8.56858 8.67729 8.56858 8.49289C8.56858 8.30848 8.72112 8.15822 8.91007 8.15822H11.7649Z" fill="#86888C"/>
</svg>
