<svg width="28" height="28" viewBox="0 0 28 28" fill="none" xmlns="http://www.w3.org/2000/svg">
<path fill-rule="evenodd" clip-rule="evenodd" d="M17.0607 9.36556C16.1914 9.36556 15.8212 9.74121 15.8212 10.6223C15.8212 11.5033 16.1914 11.879 17.0607 11.879C17.9301 11.879 18.3002 11.5033 18.3002 10.6223C18.3002 9.74121 17.9335 9.36556 17.0607 9.36556ZM17.0607 12.8762C15.6446 12.8762 14.833 12.0532 14.833 10.6223C14.833 9.18798 15.6446 8.36838 17.0607 8.36838C18.4768 8.36838 19.2918 9.19139 19.2918 10.6223C19.2918 12.0532 18.4802 12.8762 17.0607 12.8762ZM4.98837 20.8912C4.30241 21.5878 3.18516 23.0016 3.01197 24.9789C5.0495 24.7911 6.49614 23.5412 7.05307 22.9811C7.7662 22.2572 7.7662 21.6151 7.05307 20.8912C6.6965 20.5326 6.36031 20.3516 6.02072 20.3516C5.68113 20.3482 5.34494 20.5292 4.98837 20.8912ZM2.4958 26C2.22413 26 2 25.778 2 25.5014V25.498C2 22.8889 3.43306 21.0483 4.28882 20.1808C5.38909 19.0676 6.64896 19.0676 7.74922 20.1808C8.84949 21.2941 8.84949 22.5713 7.74922 23.6846C7.06325 24.3813 5.17175 26 2.4958 26ZM3.93905 10.1988L3.87792 10.2876C3.9764 10.5164 5.09364 10.9979 5.83734 11.3189C6.31616 11.5204 6.80177 11.7321 7.2704 11.9644C8.099 10.5779 9.03965 9.26311 10.0856 8.03371L10.1773 7.92784C9.52527 7.51463 8.7578 7.32681 7.99033 7.38827C6.61839 7.52829 5.25325 8.48107 3.93905 10.1988ZM11.4949 7.93809L10.8293 8.6928C9.60677 10.1305 8.40123 11.879 7.60659 13.3679L7.1889 14.2149C6.58104 15.5774 6.72706 15.9223 6.72706 15.9258L12.079 21.3317C12.0858 21.3317 12.4593 21.4751 13.7735 20.857L14.6327 20.4336C16.0827 19.6584 17.7637 18.4699 19.2511 17.1757L20.0185 16.5063C20.2189 16.3287 20.3989 16.1477 20.6026 15.9428C22.0119 14.5188 22.9831 12.743 23.6419 10.974L16.9996 4.24648C15.2439 4.91582 13.4747 5.90617 12.0552 7.34729C11.8752 7.52487 11.6715 7.73319 11.4949 7.93809ZM24.1004 3.03757C23.0612 2.91805 20.6366 3.06489 18.0319 3.8879L24.0087 9.92562C24.8271 7.26192 24.9663 4.78946 24.8407 3.78204C24.7897 3.39614 24.4875 3.0888 24.1004 3.03757ZM20.5687 20.1979C20.6468 19.3783 20.4328 18.5553 19.971 17.8791L19.9031 17.9406C18.6806 19.0061 17.3731 19.9657 15.991 20.8092C16.2491 21.3283 16.4766 21.8679 16.694 22.3938C17.0064 23.1451 17.4784 24.2788 17.7467 24.3813C19.5058 22.9743 20.4396 21.5912 20.5687 20.1979ZM5.45021 12.241C4.07488 11.6502 3.09008 11.2301 2.9101 10.4823C2.85916 10.2739 2.86934 9.93245 3.16818 9.57387C4.64878 7.63415 6.25164 6.56526 7.91222 6.40476C8.95136 6.30914 9.9939 6.58234 10.8531 7.17655C11.0195 6.99214 11.196 6.80773 11.3556 6.64381C15.3696 2.57996 21.8693 1.77744 24.2192 2.04722C25.058 2.1565 25.7134 2.81901 25.8221 3.6591C25.9647 4.84752 25.8017 7.7127 24.7931 10.7213L24.8237 10.752L24.7626 10.8135C24.063 12.8625 22.9763 14.9662 21.309 16.6532C21.1052 16.8581 20.9252 17.0391 20.7249 17.22C21.3633 18.1079 21.6587 19.2007 21.5569 20.2935C21.4007 21.9737 20.3377 23.5924 18.4021 25.1053C18.2187 25.2726 17.981 25.3682 17.7365 25.3716C17.6652 25.3716 17.5905 25.3614 17.5192 25.3443C16.7823 25.1667 16.3646 24.1627 15.7873 22.7728C15.5835 22.2742 15.3662 21.7825 15.1353 21.2976L15.0945 21.3215L14.2048 21.7586C13.3694 22.1513 12.7174 22.346 12.225 22.346C11.8684 22.346 11.59 22.2435 11.3862 22.0386L6.02412 16.6258C5.54869 16.1819 5.63019 15.2769 6.29579 13.788L6.72706 12.9137L6.77121 12.8352C6.33993 12.62 5.89847 12.422 5.45021 12.241Z" fill="#86888C"/>
</svg>
