<svg width="20" height="20" viewBox="0 0 20 20" fill="none" xmlns="http://www.w3.org/2000/svg">
<path fill-rule="evenodd" clip-rule="evenodd" d="M12.0405 6.91037C11.4609 6.91037 11.2141 7.1608 11.2141 7.74818C11.2141 8.33556 11.4609 8.586 12.0405 8.586C12.62 8.586 12.8668 8.33556 12.8668 7.74818C12.8668 7.1608 12.6223 6.91037 12.0405 6.91037ZM12.0405 9.25078C11.0964 9.25078 10.5553 8.70211 10.5553 7.74818C10.5553 6.79199 11.0964 6.24559 12.0405 6.24559C12.9845 6.24559 13.5279 6.79426 13.5279 7.74818C13.5279 8.70211 12.9868 9.25078 12.0405 9.25078ZM3.99225 14.5941C3.53494 15.0586 2.79011 16.0011 2.67465 17.3193C4.033 17.1941 4.99743 16.3608 5.36871 15.9874C5.84413 15.5048 5.84413 15.0768 5.36871 14.5941C5.131 14.3551 4.90687 14.2344 4.68048 14.2344C4.45409 14.2321 4.22996 14.3528 3.99225 14.5941ZM2.33053 18C2.14942 18 2 17.852 2 17.6676V17.6653C2 15.926 2.95537 14.6988 3.52588 14.1206C4.25939 13.3784 5.0993 13.3784 5.83281 14.1206C6.56632 14.8628 6.56632 15.7142 5.83281 16.4564C5.3755 16.9209 4.1145 18 2.33053 18ZM3.2927 7.46588L3.25195 7.52507C3.3176 7.67761 4.06243 7.99862 4.55823 8.21262C4.87744 8.34695 5.20118 8.4881 5.5136 8.64291C6.066 7.71859 6.6931 6.84207 7.39039 6.02247L7.45152 5.9519C7.01684 5.67642 6.5052 5.5512 5.99355 5.59218C5.07893 5.68553 4.16883 6.32072 3.2927 7.46588ZM8.32992 5.95873L7.88619 6.46187C7.07118 7.42034 6.26749 8.586 5.73773 9.57862L5.45927 10.1432C5.05403 11.0516 5.15137 11.2816 5.15137 11.2838L8.71931 14.8878C8.72384 14.8878 8.97287 14.9834 9.84901 14.5713L10.4218 14.289C11.3885 13.7722 12.5091 12.98 13.5007 12.1171L14.0124 11.6709C14.1459 11.5525 14.2659 11.4318 14.4017 11.2952C15.3413 10.3459 15.9888 9.16199 16.428 7.98268L11.9997 3.49765C10.8293 3.94388 9.64978 4.60411 8.70346 5.56486C8.58348 5.68325 8.44764 5.82213 8.32992 5.95873ZM16.7336 2.69171C16.0408 2.61203 14.4244 2.70993 12.688 3.2586L16.6725 7.28374C17.2181 5.50795 17.3109 3.85964 17.2271 3.18803C17.1932 2.93076 16.9917 2.72586 16.7336 2.69171ZM14.3791 14.1319C14.4312 13.5856 14.2886 13.0369 13.9807 12.5861L13.9354 12.6271C13.1204 13.3374 12.2488 13.9771 11.3273 14.5395C11.4994 14.8855 11.6511 15.2452 11.796 15.5958C12.0043 16.0967 12.3189 16.8526 12.4978 16.9209C13.6705 15.9829 14.2931 15.0608 14.3791 14.1319ZM4.30014 8.82732C3.38325 8.43346 2.72672 8.15343 2.60673 7.65484C2.57277 7.51596 2.57956 7.2883 2.77879 7.04925C3.76586 5.7561 4.83443 5.04351 5.94148 4.9365C6.63424 4.87276 7.32926 5.05489 7.90204 5.45103C8.01297 5.32809 8.13069 5.20515 8.2371 5.09587C10.913 2.38664 15.2462 1.85162 16.8128 2.03148C17.372 2.10433 17.8089 2.54601 17.8814 3.10607C17.9765 3.89835 17.8678 5.80847 17.1954 7.81421L17.2158 7.8347L17.175 7.87568C16.7087 9.24168 15.9842 10.6441 14.8726 11.7688C14.7368 11.9054 14.6168 12.026 14.4832 12.1467C14.9089 12.7386 15.1058 13.4672 15.0379 14.1957C14.9338 15.3158 14.2252 16.395 12.9347 17.4035C12.8125 17.5151 12.654 17.5788 12.491 17.5811C12.4435 17.5811 12.3937 17.5743 12.3461 17.5629C11.8548 17.4445 11.5764 16.7752 11.1915 15.8486C11.0557 15.5162 10.9108 15.1883 10.7568 14.865L10.7297 14.881L10.1365 15.1724C9.5796 15.4342 9.14493 15.564 8.81666 15.564C8.57895 15.564 8.39331 15.4957 8.25747 15.3591L4.68274 11.7506C4.36579 11.4546 4.42013 10.8513 4.86386 9.85865L5.15137 9.27583L5.18081 9.22346C4.89329 9.08003 4.59898 8.94799 4.30014 8.82732Z" fill="#86888C"/>
</svg>
