<svg width="40" height="40" viewBox="0 0 40 40" fill="none" xmlns="http://www.w3.org/2000/svg">
<path fill-rule="evenodd" clip-rule="evenodd" d="M24.5911 13.0483C23.2871 13.0483 22.7318 13.6118 22.7318 14.9334C22.7318 16.255 23.2871 16.8185 24.5911 16.8185C25.8951 16.8185 26.4503 16.255 26.4503 14.9334C26.4503 13.6118 25.9002 13.0483 24.5911 13.0483ZM24.5911 18.3143C22.467 18.3143 21.2495 17.0797 21.2495 14.9334C21.2495 12.782 22.467 11.5526 24.5911 11.5526C26.7152 11.5526 27.9377 12.7871 27.9377 14.9334C27.9377 17.0797 26.7203 18.3143 24.5911 18.3143ZM6.48256 30.3368C5.45361 31.3817 3.77774 33.5025 3.51796 36.4684C6.57425 36.1866 8.74421 34.3118 9.5796 33.4717C10.6493 32.3857 10.6493 31.4227 9.5796 30.3368C9.04475 29.7989 8.54046 29.5274 8.03108 29.5274C7.5217 29.5223 7.01741 29.7938 6.48256 30.3368ZM2.7437 38C2.33619 38 2 37.667 2 37.2521V37.247C2 33.3334 4.14959 30.5724 5.43323 29.2713C7.08363 27.6013 8.97343 27.6013 10.6238 29.2713C12.2742 30.9412 12.2742 32.857 10.6238 34.527C9.59488 35.5719 6.75763 38 2.7437 38ZM4.90857 14.2982L4.81688 14.4314C4.9646 14.7746 6.64047 15.4969 7.75601 15.9784C8.47424 16.2806 9.20266 16.5982 9.9056 16.9466C11.1485 14.8668 12.5595 12.8947 14.1284 11.0506L14.2659 10.8918C13.2879 10.2719 12.1367 9.99021 10.9855 10.0824C8.92759 10.2924 6.87988 11.7216 4.90857 14.2982ZM16.2423 10.9071L15.2439 12.0392C13.4101 14.1958 11.6018 16.8185 10.4099 19.0519L9.78335 20.3223C8.87156 22.3662 9.09059 22.8835 9.09059 22.8886L17.1184 30.9976C17.1286 30.9976 17.689 31.2127 19.6603 30.2855L20.949 29.6503C23.1241 28.4875 25.6455 26.7049 27.8766 24.7635L29.0278 23.7595C29.3283 23.4931 29.5983 23.2216 29.9039 22.9143C32.0179 20.7782 33.4747 18.1145 34.4629 15.461L24.4994 5.36972C21.8659 6.37373 19.212 7.85925 17.0828 10.0209C16.8128 10.2873 16.5072 10.5998 16.2423 10.9071ZM35.1506 3.55636C33.5919 3.37707 29.9549 3.59734 26.0479 4.83186L35.013 13.8884C36.2406 9.89288 36.4495 6.18419 36.261 4.67306C36.1846 4.09422 35.7313 3.63319 35.1506 3.55636ZM29.853 29.2969C29.9701 28.0675 29.6492 26.833 28.9565 25.8187L28.8546 25.9109C27.0208 27.5091 25.0597 28.9486 22.9865 30.2138C23.3737 30.9924 23.7149 31.8018 24.0409 32.5906C24.5096 33.7176 25.2176 35.4183 25.62 35.5719C28.2586 33.4615 29.6594 31.3869 29.853 29.2969ZM7.17532 17.3615C5.11232 16.4753 3.63512 15.8452 3.36514 14.7234C3.28874 14.4109 3.30402 13.8987 3.75227 13.3608C5.97318 10.4512 8.37746 8.84789 10.8683 8.60713C12.427 8.4637 13.9908 8.8735 15.2796 9.76482C15.5292 9.4882 15.7941 9.21159 16.0335 8.96571C22.0544 2.86994 31.8039 1.66616 35.3288 2.07083C36.587 2.23475 37.5701 3.22852 37.7331 4.48865C37.9471 6.27128 37.7026 10.569 36.1897 15.082L36.2355 15.1281L36.1439 15.2203C35.0945 18.2938 33.4645 21.4492 30.9634 23.9797C30.6578 24.2871 30.3878 24.5586 30.0873 24.8301C31.0449 26.1619 31.4881 27.8011 31.3353 29.4403C31.101 31.9606 29.5066 34.3886 26.6031 36.6579C26.3281 36.9089 25.9715 37.0523 25.6047 37.0575C25.4978 37.0575 25.3857 37.0421 25.2787 37.0165C24.1734 36.7501 23.5468 35.2441 22.6809 33.1592C22.3753 32.4114 22.0493 31.6737 21.7029 30.9463L21.6418 30.9822L20.3072 31.6379C19.0541 32.2269 18.0761 32.5189 17.3375 32.5189C16.8026 32.5189 16.3849 32.3653 16.0793 32.0579L8.03617 23.9388C7.32304 23.2728 7.44529 21.9154 8.44368 19.682L9.09059 18.3706L9.15681 18.2528C8.5099 17.9301 7.8477 17.633 7.17532 17.3615Z" fill="#86888C"/>
</svg>
