<svg width="24" height="24" viewBox="0 0 24 24" fill="none" xmlns="http://www.w3.org/2000/svg">
<path d="M5.80152 18.4336C5.38871 18.4336 5.12109 18.647 5.12109 19.1079C5.12109 19.3298 5.18373 19.4948 5.29191 19.6058C5.41149 19.7253 5.58515 19.785 5.80152 19.785C6.01789 19.785 6.19156 19.7281 6.31113 19.6058C6.42216 19.4948 6.48195 19.3298 6.48195 19.1079C6.48479 18.6498 6.21433 18.4336 5.80152 18.4336ZM8.27839 18.4336C7.86558 18.4336 7.59796 18.647 7.59796 19.1079C7.59796 19.3298 7.6606 19.4948 7.76878 19.6058C7.88835 19.7253 8.06202 19.785 8.27839 19.785C8.49476 19.785 8.66842 19.7281 8.788 19.6058C8.89903 19.4948 8.95882 19.3298 8.95882 19.1079C8.96166 18.6498 8.6912 18.4336 8.27839 18.4336ZM8.28408 15.5117C8.1275 15.5117 7.99939 15.3837 7.99939 15.2272V7.46577C7.99939 7.30929 8.1275 7.18126 8.28408 7.18126C8.44067 7.18126 8.56878 7.30929 8.56878 7.46577V15.2272C8.56878 15.3837 8.44067 15.5117 8.28408 15.5117ZM11.2165 10.4958C11.0599 10.4958 10.9318 10.3706 10.9318 10.2113C10.9318 10.1345 10.9631 10.0605 11.0172 10.0064C11.5894 9.45164 11.8827 8.59527 11.8827 7.46577C11.8827 6.33626 11.5894 5.4742 11.0143 4.9194C10.9005 4.81129 10.8976 4.6292 11.0058 4.51825C11.114 4.40729 11.2962 4.4016 11.4072 4.50971C12.099 5.17546 12.4492 6.17125 12.4492 7.46577C12.4492 8.75744 12.1019 9.75038 11.4129 10.4161C11.3617 10.4673 11.2905 10.4958 11.2165 10.4958ZM13.5026 11.9155C13.346 11.9155 13.2179 11.7903 13.2179 11.631C13.2179 11.5542 13.2492 11.4802 13.3033 11.4261C14.2029 10.5555 14.6585 9.22119 14.6585 7.46292C14.6585 5.69896 14.2001 4.36461 13.2948 3.49117C13.1809 3.38305 13.178 3.20097 13.2891 3.08716C13.3972 2.97336 13.5795 2.97051 13.6933 3.08147C14.7126 4.06303 15.2307 5.53679 15.2307 7.46292C15.2307 9.38052 14.7182 10.8514 13.7047 11.833C13.6478 11.887 13.5766 11.9155 13.5026 11.9155Z" fill="#86888C"/>
<path d="M19.9395 23.0001H6.0605C5.05552 23.0001 4.27829 22.7241 3.7573 22.1835C3.25623 21.6629 3 20.9089 3 19.9416V18.2772C3 17.3099 3.25623 16.5559 3.7573 16.0353C4.27829 15.4947 5.05552 15.2188 6.0605 15.2188H19.9395C20.9445 15.2188 21.7217 15.4919 22.2427 16.0353C22.7466 16.5559 23 17.3099 23 18.2772V19.9416C23 20.9089 22.7438 21.6629 22.2427 22.1835C21.7217 22.727 20.9445 23.0001 19.9395 23.0001ZM6.0605 15.7878C5.21495 15.7878 4.57722 16.004 4.16726 16.4308C3.77153 16.8433 3.5694 17.4635 3.5694 18.2772V19.9416C3.5694 20.7553 3.77153 21.3784 4.16726 21.7881C4.57722 22.2148 5.21495 22.4311 6.0605 22.4311H19.9395C20.7851 22.4311 21.4228 22.2148 21.8327 21.7881C22.2285 21.3755 22.4306 20.7553 22.4306 19.9416V18.2772C22.4306 17.4635 22.2285 16.8405 21.8327 16.4308C21.4228 16.004 20.7851 15.7878 19.9395 15.7878H6.0605Z" fill="#86888C"/>
</svg>
