<svg width="28" height="28" viewBox="0 0 28 28" fill="none" xmlns="http://www.w3.org/2000/svg">
<path fill-rule="evenodd" clip-rule="evenodd" d="M15.0956 17.1616C19.5248 17.2094 22.1064 20.0268 22.2157 20.1463C22.3967 20.3546 22.3728 20.6722 22.1645 20.8532C21.963 21.0273 21.6557 21.0137 21.4713 20.8156C21.4474 20.7917 19.0569 18.2066 15.0683 18.1622C15.0137 18.1656 10.9806 18.029 8.53216 20.7678C8.34775 20.9727 8.03358 20.9932 7.82527 20.8088C7.62038 20.6244 7.59989 20.3102 7.78429 20.1019C10.5538 17.0046 14.9146 17.1651 15.0956 17.1616ZM14.9966 25.9994C22.2977 25.9994 25.9994 22.3011 25.9994 15.0034C25.9994 7.70233 22.2977 4.00057 14.9966 4.00057C7.69892 4.00057 4.00057 7.70233 4.00057 15.0034C4.00057 22.3011 7.69892 25.9994 14.9966 25.9994ZM14.9966 3C22.5777 3 27 6.82812 27 15.0034C27 23.1787 22.5777 27 14.9966 27C7.41548 27 3 23.1787 3 15.0034C3 6.82812 7.41548 3 14.9966 3ZM11.3597 13.1047C10.9602 13.1047 10.6289 12.9818 10.4001 12.7496C10.1747 12.5208 10.062 12.2032 10.062 11.8036C10.062 10.9875 10.547 10.5026 11.3597 10.5026C12.1725 10.5026 12.6574 10.9909 12.6574 11.8036C12.6574 12.2032 12.5447 12.5208 12.3193 12.7496C12.0905 12.9818 11.7592 13.1047 11.3597 13.1047ZM18.6403 13.1047C18.2408 13.1047 17.9095 12.9818 17.6807 12.7496C17.4553 12.5208 17.3426 12.2032 17.3426 11.8036C17.3426 10.9875 17.8275 10.5026 18.6403 10.5026C19.453 10.5026 19.938 10.9909 19.938 11.8036C19.938 12.2032 19.8253 12.5208 19.5999 12.7496C19.3711 12.9818 19.0398 13.1047 18.6403 13.1047Z" fill="#86888C"/>
</svg>
