<svg width="20" height="20" viewBox="0 0 20 20" fill="none" xmlns="http://www.w3.org/2000/svg">
<path fill-rule="evenodd" clip-rule="evenodd" d="M10.0637 11.4411C13.0165 11.473 14.7376 13.3512 14.8105 13.4308C14.9311 13.5697 14.9152 13.7814 14.7763 13.9021C14.642 14.0182 14.4371 14.0091 14.3142 13.8771C14.2982 13.8611 12.7046 12.1377 10.0455 12.1081C10.0091 12.1104 7.32043 12.0194 5.6881 13.8452C5.56517 13.9818 5.35572 13.9954 5.21685 13.8725C5.08025 13.7496 5.06659 13.5401 5.18953 13.4013C7.03586 11.3364 9.94309 11.4434 10.0637 11.4411ZM9.99772 17.333C14.8651 17.333 17.333 14.8674 17.333 10.0023C17.333 5.13489 14.8651 2.66705 9.99772 2.66705C5.13261 2.66705 2.66705 5.13489 2.66705 10.0023C2.66705 14.8674 5.13261 17.333 9.99772 17.333ZM9.99772 2C15.0518 2 18 4.55208 18 10.0023C18 15.4525 15.0518 18 9.99772 18C4.94365 18 2 15.4525 2 10.0023C2 4.55208 4.94365 2 9.99772 2ZM7.57314 8.73648C7.30677 8.73648 7.08594 8.65453 6.93341 8.49972C6.78315 8.34718 6.70803 8.13546 6.70803 7.86909C6.70803 7.32499 7.0313 7.00171 7.57314 7.00171C8.11497 7.00171 8.43825 7.32726 8.43825 7.86909C8.43825 8.13546 8.36312 8.34718 8.21286 8.49972C8.06033 8.65453 7.8395 8.73648 7.57314 8.73648ZM12.4269 8.73648C12.1605 8.73648 11.9397 8.65453 11.7871 8.49972C11.6369 8.34718 11.5618 8.13546 11.5618 7.86909C11.5618 7.32499 11.885 7.00171 12.4269 7.00171C12.9687 7.00171 13.292 7.32726 13.292 7.86909C13.292 8.13546 13.2168 8.34718 13.0666 8.49972C12.9141 8.65453 12.6932 8.73648 12.4269 8.73648Z" fill="#86888C"/>
</svg>
