<svg width="20" height="20" viewBox="0 0 20 20" fill="none" xmlns="http://www.w3.org/2000/svg">
<path fill-rule="evenodd" clip-rule="evenodd" d="M12.2665 17.0743L11.7384 14.5202C12.781 14.1992 13.9966 13.4616 14.5111 11.7976L17.0743 12.3257C16.3254 15.458 14.0603 16.6372 12.2665 17.0743ZM10.3544 17.3292C10.1176 17.3338 9.88088 17.3338 9.64413 17.3315C9.223 17.3224 8.80187 17.2837 8.38529 17.2154L8.90886 14.6818C9.24804 14.741 9.5895 14.7706 9.93324 14.7706C10.0334 14.7706 10.1336 14.7683 10.2201 14.7683C10.5137 14.7615 10.8051 14.7296 11.0942 14.6772L11.6178 17.2131C11.1033 17.2951 10.6617 17.3224 10.3544 17.3292ZM2.93105 12.3257L5.47833 11.7999C5.93589 13.2909 6.94888 14.0399 7.90269 14.4086C8.02334 14.4542 8.13944 14.4883 8.25781 14.5224L7.72969 17.0811C7.04677 16.9149 6.28645 16.6486 5.56939 16.1956C4.21038 15.3397 3.33624 14.0376 2.93105 12.3257ZM2.7808 8.42626L5.31215 8.94983C5.26435 9.27081 5.2302 9.60771 5.2302 9.98332C5.2302 10.4136 5.27573 10.7914 5.3372 11.1488L2.80584 11.6724C2.71479 11.1101 2.66926 10.541 2.66926 9.97194C2.66698 9.4256 2.71251 8.91569 2.7808 8.42626ZM5.54207 3.77786C6.26141 3.32486 7.02173 3.0608 7.70692 2.90145L8.23732 5.46012C7.17425 5.78109 5.93816 6.53913 5.45101 8.29879L2.89235 7.77066C3.27706 5.99052 4.15802 4.64972 5.54207 3.77786ZM9.58267 2.66698H9.71926C9.92185 2.66698 10.1336 2.66926 10.3157 2.67381C10.6002 2.68064 11.0714 2.71479 11.6292 2.81267L11.1079 5.3372C10.8074 5.28029 10.5023 5.24614 10.195 5.23476C10.0835 5.23248 9.956 5.2302 9.83308 5.2302H9.7443C9.45519 5.23476 9.16609 5.26207 8.87927 5.30988L8.3557 2.76942C8.87699 2.68975 9.31178 2.66926 9.58267 2.66698ZM10.2041 14.099C10.1222 14.1013 10.0266 14.1013 9.93096 14.1013H9.7921C9.22983 14.0922 8.67211 13.9852 8.14627 13.7872C6.65523 13.209 5.89719 11.9296 5.89719 9.98332C5.89719 6.32515 8.59472 5.90402 9.75568 5.89491H9.8399C9.95828 5.89491 10.0812 5.89719 10.1859 5.89719C11.3651 5.92678 14.1059 6.38434 14.1059 10.0106C14.1013 13.6369 11.3765 14.0786 10.2041 14.099ZM17.0857 7.77521L14.5338 8.30106C14.0376 6.59604 12.8129 5.83345 11.7544 5.49882L12.2802 2.95609C12.9517 3.12682 13.6916 3.39543 14.3972 3.83705C15.795 4.70891 16.6873 6.03377 17.0857 7.77521ZM14.6795 8.95211L17.2063 8.42854C17.2814 8.93162 17.3315 9.45519 17.3315 10.0197C17.3315 10.6253 17.2746 11.1625 17.1927 11.6724L14.6659 11.1511C14.7342 10.7755 14.7683 10.3931 14.7683 10.0129C14.7683 9.62365 14.7319 9.27764 14.6795 8.95211ZM10.3339 2.00911C10.1449 2.00455 9.92868 2 9.71926 2H9.57584C7.97098 2.01366 2 2.56455 2 9.97421C2 17.393 8.02562 17.9757 9.63275 17.9985C9.87633 18.0008 10.1199 18.0008 10.3658 17.9962C11.8932 17.9689 18.0008 17.3953 18.0008 10.022C17.9985 2.66471 11.9 2.04553 10.3339 2.00911Z" fill="#86888C"/>
</svg>
