<svg width="40" height="40" viewBox="0 0 40 40" fill="none" xmlns="http://www.w3.org/2000/svg">
<path fill-rule="evenodd" clip-rule="evenodd" d="M2 16.3061C2 24.1799 8.38087 30.5608 16.2547 30.5608C19.8608 30.5705 23.3318 29.2018 25.9611 26.7435L37.0692 37.8467C37.1664 37.9438 37.2942 38 37.4322 38C37.5703 38 37.6981 37.9438 37.7952 37.8467C37.9895 37.6473 37.9895 37.3252 37.7901 37.1257L26.6834 26.0239C31.9792 20.41 31.8491 11.5675 26.3322 6.11609C20.7336 0.583958 11.7094 0.635087 6.17211 6.22858C3.50319 8.90261 2 12.5276 2 16.3061ZM3.02258 16.3061C3.02258 8.99976 8.9484 3.07904 16.2547 3.07904C19.7621 3.06882 23.1315 4.46463 25.6062 6.95461C30.7753 12.1186 30.7702 20.4935 25.6062 25.6626C20.4422 30.8318 12.0621 30.8318 6.89814 25.6626C4.41839 23.1778 3.02258 19.8135 3.02258 16.3061Z" fill="#86888C"/>
</svg>
