<svg width="24" height="24" viewBox="0 0 24 24" fill="none" xmlns="http://www.w3.org/2000/svg">
<path fill-rule="evenodd" clip-rule="evenodd" d="M2 9.94781C2 14.3222 5.54493 17.8671 9.91928 17.8671C11.9227 17.8725 13.851 17.1121 15.3117 15.7463L21.4829 21.9148C21.5369 21.9688 21.6079 22 21.6846 22C21.7613 22 21.8323 21.9688 21.8863 21.9148C21.9942 21.804 21.9942 21.6251 21.8834 21.5143L15.713 15.3466C18.6551 12.2277 18.5829 7.3153 15.5179 4.28672C12.4075 1.21331 7.39409 1.24171 4.31784 4.34921C2.8351 5.83478 2 7.84869 2 9.94781ZM2.5681 9.94781C2.5681 5.88875 5.86022 2.59947 9.91928 2.59947C11.8679 2.59379 13.7397 3.36924 15.1145 4.75256C17.9863 7.62145 17.9834 12.2742 15.1145 15.1459C12.2456 18.0176 7.59008 18.0176 4.72119 15.1459C3.34355 13.7654 2.5681 11.8964 2.5681 9.94781Z" fill="#86888C"/>
</svg>
