<svg width="40" height="40" viewBox="0 0 40 40" fill="none" xmlns="http://www.w3.org/2000/svg">
<path fill-rule="evenodd" clip-rule="evenodd" d="M34.1967 25.6401C34.9138 21.445 35.0008 12.1687 35.006 9.33614C31.6919 9.62299 29.725 8.29634 27.8195 7.02604C25.9704 5.78647 24.0547 4.50592 20.7509 4.50592H20.7407C17.4369 4.50592 15.5212 5.78647 13.6669 7.02604C11.7461 8.30146 9.73822 9.60762 6.48563 9.34639C6.49588 12.1943 6.58808 21.4501 7.31031 25.6349C8.21693 30.9108 18.7686 36.4171 20.7458 37.4108C22.723 36.4223 33.2849 30.9108 34.1967 25.6401ZM36.4965 8.49098C36.4965 8.99296 36.5272 20.8047 35.6616 25.8962C34.5347 32.4474 21.6166 38.6658 21.0685 38.927C20.9695 38.975 20.8609 39 20.7509 39C20.6409 39 20.5323 38.975 20.4333 38.927C19.8801 38.6658 6.97736 32.4474 5.85048 25.8962C4.96435 20.8047 5.0002 8.99296 5.0002 8.49098C5.00532 8.07609 5.34339 7.74314 5.75316 7.74827C5.80951 7.74827 5.86585 7.75339 5.92219 7.76875C9.11332 8.27073 10.8446 7.11311 12.8525 5.7711C14.7887 4.47007 16.9861 3 20.7407 3H20.7509C24.5055 3.00512 26.7029 4.47519 28.6442 5.7711C30.647 7.10799 32.3783 8.27073 35.5796 7.76875C35.7999 7.73802 36.0253 7.79437 36.2046 7.93266C36.3736 8.06584 36.4812 8.27073 36.4965 8.49098ZM27.5481 15.365C27.8349 15.073 28.3061 15.073 28.593 15.3598L28.5981 15.365C28.8901 15.6569 28.8901 16.1333 28.5981 16.4252L18.4818 26.6338C18.195 26.9257 17.7288 26.9257 17.4369 26.6389L17.4317 26.6338L12.8884 22.0494C12.5964 21.7574 12.5964 21.2811 12.8884 20.9891C13.1752 20.6972 13.6464 20.6972 13.9333 20.984L13.9384 20.9891L17.9542 25.0408L27.5481 15.365Z" fill="#86888C"/>
</svg>
