<svg width="24" height="24" viewBox="0 0 24 24" fill="none" xmlns="http://www.w3.org/2000/svg">
<path fill-rule="evenodd" clip-rule="evenodd" d="M19.2204 14.5778C19.6188 12.2472 19.6671 7.09373 19.67 5.52008C17.8288 5.67944 16.7361 4.94241 15.6775 4.23669C14.6502 3.54804 13.586 2.83662 11.7505 2.83662H11.7448C9.90937 2.83662 8.84509 3.54804 7.81497 4.23669C6.74784 4.94526 5.63235 5.6709 3.82535 5.52577C3.83104 7.10796 3.88227 12.2501 4.2835 14.575C4.78719 17.506 10.6492 20.5651 11.7477 21.1171C12.8461 20.5679 18.7138 17.506 19.2204 14.5778ZM20.4981 5.05055C20.4981 5.32942 20.5151 11.8915 20.0342 14.7201C19.4082 18.3597 12.2314 21.8143 11.9269 21.9594C11.872 21.9861 11.8116 22 11.7505 22C11.6894 22 11.6291 21.9861 11.5741 21.9594C11.2667 21.8143 4.09854 18.3597 3.47249 14.7201C2.98019 11.8915 3.00011 5.32942 3.00011 5.05055C3.00296 4.82005 3.19077 4.63508 3.41842 4.63793C3.44973 4.63793 3.48103 4.64077 3.51233 4.64931C5.28518 4.92818 6.24701 4.28506 7.36251 3.5395C8.43816 2.8167 9.65895 2 11.7448 2H11.7505C13.8364 2.00285 15.0572 2.81955 16.1357 3.5395C17.2483 4.28222 18.2102 4.92818 19.9887 4.64931C20.1111 4.63223 20.2363 4.66354 20.3359 4.74037C20.4298 4.81436 20.4895 4.92818 20.4981 5.05055ZM15.5267 8.86942C15.6861 8.70722 15.9479 8.70722 16.1072 8.86657L16.1101 8.86942C16.2723 9.03162 16.2723 9.29627 16.1101 9.45847L10.4899 15.1299C10.3305 15.2921 10.0716 15.2921 9.90937 15.1327L9.90652 15.1299L7.38243 12.583C7.22022 12.4208 7.22022 12.1562 7.38243 11.994C7.54178 11.8318 7.80358 11.8318 7.96294 11.9911L7.96579 11.994L10.1968 14.2449L15.5267 8.86942Z" fill="#86888C"/>
</svg>
