<svg width="24" height="24" viewBox="0 0 24 24" fill="none" xmlns="http://www.w3.org/2000/svg">
<path fill-rule="evenodd" clip-rule="evenodd" d="M12.1707 20.8818V12.1408H19.4576C19.395 13.0741 19.3125 13.9334 19.2015 14.5708C18.7463 17.2255 13.8807 19.9855 12.1707 20.8818ZM4.30325 14.5708C4.19228 13.9306 4.10976 13.0741 4.04432 12.1408H11.3284V20.8818C9.61837 19.9855 4.76135 17.2255 4.30325 14.5708ZM7.82579 4.24499C8.77045 3.61332 9.7521 2.97027 11.3284 2.86783V11.2901H3.99026C3.87075 9.03372 3.84799 6.5611 3.8423 5.53962C5.65479 5.69612 6.76163 4.95917 7.82579 4.24499ZM19.6568 5.53393C19.6539 6.54972 19.6312 9.03087 19.5117 11.2901H12.1707V2.87068C13.747 2.97027 14.7286 3.61616 15.6704 4.24783C16.7289 4.95348 17.8244 5.68189 19.6568 5.53393ZM20.499 5.05591C20.4905 4.93072 20.4307 4.8169 20.334 4.74008C20.2344 4.66041 20.1063 4.62626 19.9783 4.64618C18.2056 4.92787 17.2468 4.28197 16.1371 3.53934C15.0615 2.81946 13.838 2.00285 11.7524 2H11.7467C9.66105 2 8.44039 2.81662 7.362 3.53934C6.24947 4.28197 5.29058 4.93072 3.51508 4.64333C3.38989 4.61488 3.259 4.64618 3.15941 4.72585C3.05983 4.80552 3.00292 4.92787 3.00007 5.05591C3.00007 5.33476 2.983 11.8933 3.4724 14.7187C4.09838 18.3579 11.263 21.8122 11.5674 21.9573C11.5703 21.9602 11.5731 21.9573 11.576 21.9602C11.63 21.9858 11.6869 22 11.7467 22C11.8064 22 11.8662 21.9858 11.9203 21.9602C11.9231 21.9573 11.9231 21.9602 11.926 21.9573C12.2332 21.8122 19.4064 18.3579 20.0324 14.7187C20.5161 11.8905 20.499 5.33191 20.499 5.05591Z" fill="#86888C"/>
</svg>
