<svg width="40" height="40" viewBox="0 0 40 40" fill="none" xmlns="http://www.w3.org/2000/svg">
<path fill-rule="evenodd" clip-rule="evenodd" d="M6.52154 9.37223C6.53179 12.2356 6.61887 21.4559 7.34625 25.6306C8.2529 30.8913 18.7589 36.3876 20.7515 37.3813C22.7441 36.3825 33.2654 30.8862 34.1721 25.6306C34.8841 21.4456 34.9712 12.2049 34.9814 9.35686C31.657 9.6181 29.7105 8.3119 27.8101 7.04667C25.9661 5.81218 24.0503 4.53671 20.7566 4.53159H20.7464C17.4476 4.53159 15.5369 5.80706 13.6877 7.04667C11.7668 8.32726 9.78449 9.64371 6.52154 9.37223ZM20.7515 39C20.6388 39 20.5261 38.9744 20.4236 38.9283C19.8807 38.667 6.98256 32.4485 5.85051 25.897C4.96434 20.8105 5.0002 9.00342 5.0002 8.50142C4.99508 8.08139 5.33315 7.74331 5.75319 7.73819C5.81466 7.73819 5.88125 7.74331 5.94272 7.75868C9.12371 8.26579 10.8499 7.10814 12.8528 5.7712C14.7942 4.47012 16.9917 3 20.7464 3H20.7617C24.5164 3.00512 26.7139 4.47524 28.6502 5.7712C30.6479 7.10814 32.369 8.26067 35.5705 7.7638C35.7959 7.72795 36.0264 7.78941 36.2057 7.93284C36.3798 8.07114 36.4874 8.28116 36.5028 8.50142C36.5028 9.00342 36.5335 20.8105 35.6678 25.897C34.5409 32.4536 21.6274 38.667 21.0793 38.9283C20.9717 38.9744 20.8642 39 20.7515 39Z" fill="#86888C"/>
</svg>
