<svg width="40" height="40" viewBox="0 0 40 40" fill="none" xmlns="http://www.w3.org/2000/svg">
<path fill-rule="evenodd" clip-rule="evenodd" d="M34.1927 25.6349C34.9098 21.4399 34.9969 12.1687 35.0071 9.33614C31.7033 9.60762 29.7262 8.29634 27.8207 7.02092C25.9716 5.78135 24.0559 4.50592 20.7521 4.5008H20.7418C17.4329 4.5008 15.5223 5.78135 13.6681 7.02092C11.7473 8.30146 9.77012 9.60762 6.48168 9.34639C6.49193 12.1943 6.579 21.445 7.31148 25.6401C8.2181 30.9108 18.7647 36.4223 20.7418 37.416C22.7293 36.4223 33.2861 30.9057 34.1927 25.6349ZM36.4977 8.49098C36.4977 8.99296 36.5284 20.8047 35.6628 25.8962C34.5359 32.4474 21.6177 38.6658 21.0697 38.927C20.9707 38.975 20.8621 39 20.7521 39C20.6421 39 20.5335 38.975 20.4345 38.927C19.8813 38.6658 6.97853 32.4423 5.85165 25.8962C4.96551 20.8047 4.99625 8.99296 5.00137 8.49098C5.00137 8.26561 5.10381 8.05048 5.28309 7.90705C5.45724 7.76875 5.68774 7.71241 5.908 7.76363C9.11448 8.25536 10.8509 7.10799 12.8537 5.7711C14.795 4.47007 16.9924 3 20.7418 3H20.7521C24.5015 3.00512 26.7041 4.47519 28.6403 5.7711C30.643 7.10799 32.3641 8.27073 35.5757 7.76363C35.7959 7.72778 36.0264 7.78412 36.2006 7.92754C36.3748 8.06584 36.4823 8.27073 36.4977 8.49098ZM20.747 26.7823C23.559 26.7823 24.3684 25.6964 24.3684 21.9367C24.3684 19.5805 24.0149 18.3102 23.2005 17.6904C22.6678 17.2909 21.8636 17.0911 20.747 17.0911C19.6201 17.0911 18.8108 17.2909 18.2781 17.7007C17.4688 18.3256 17.1256 19.5959 17.1256 21.9367C17.1256 25.6964 17.9349 26.7823 20.747 26.7823ZM20.7521 14.3354C18.2473 14.3354 18.2473 14.9552 18.2473 15.6774C18.2473 15.8106 18.2576 15.9182 18.273 16.0155C18.9491 15.7389 19.7584 15.5903 20.747 15.5903C21.7407 15.5903 22.5551 15.7389 23.2312 16.0155C23.2466 15.9182 23.2568 15.8055 23.2568 15.6723C23.2568 14.9552 23.2568 14.3354 20.7521 14.3354ZM27.1804 20.5179C27.5902 20.5179 27.9231 20.8559 27.9231 21.2657V22.6538C27.9231 23.0687 27.5902 23.4017 27.1804 23.4017C26.7655 23.4017 26.4326 23.0636 26.4377 22.6538V22.0136H25.8589C25.8538 23.2275 25.7411 24.298 25.4747 25.2047L26.9499 25.6554C27.2778 25.7579 27.4929 26.0703 27.4724 26.4135L27.3648 28.5034C27.3443 28.9029 27.0216 29.2153 26.6221 29.2153H26.5811C26.1714 29.1897 25.8538 28.8363 25.8743 28.4265L25.9562 26.9206L24.8498 26.5825C24.0969 27.6582 22.8317 28.278 20.747 28.278C18.6571 28.278 17.3868 27.6531 16.639 26.5723L15.5018 26.9206L15.5787 28.4265C15.5992 28.8363 15.2867 29.1897 14.8769 29.2153H14.836C14.4364 29.2153 14.1137 28.9029 14.0932 28.5034L13.9857 26.4135C13.9652 26.0703 14.1854 25.7579 14.5133 25.6554L16.0243 25.1944C15.758 24.2878 15.6504 23.2275 15.6453 22.0136H15.0665V22.6538C15.0665 23.0687 14.7335 23.4017 14.3237 23.4017C13.9088 23.4017 13.5759 23.0636 13.581 22.6538V21.2657C13.581 20.8508 13.914 20.5179 14.3237 20.5179H15.6965C15.7631 19.5754 15.9475 18.6585 16.3214 17.8748L14.5184 17.3216C14.1906 17.2192 13.9703 16.9067 13.9908 16.5635L14.0932 14.4737C14.1137 14.0588 14.4723 13.7259 14.8769 13.7617C15.2867 13.7822 15.5992 14.1356 15.5787 14.5505L15.5018 16.0513L16.8541 16.4662C16.7926 16.205 16.7619 15.9386 16.7619 15.6672C16.7619 13.8846 17.8171 13.2239 18.9286 12.9729L18.8005 12.8397C18.5086 12.5478 18.5086 12.0714 18.8005 11.7794C19.0874 11.4875 19.5535 11.4875 19.8403 11.7692L19.8506 11.7794L20.5318 12.4607C20.624 12.5631 20.6906 12.6861 20.7162 12.8192H20.7316C20.7572 12.6861 20.8238 12.558 20.916 12.4607L21.5921 11.7794C21.879 11.4875 22.3451 11.4823 22.6319 11.7692C22.6371 11.7743 22.6422 11.7743 22.6422 11.7794C22.9341 12.0714 22.9341 12.5478 22.6422 12.8397L22.5192 12.9627C23.6461 13.1983 24.7423 13.8539 24.7423 15.6672C24.7423 15.954 24.7064 16.205 24.6501 16.4457L25.9511 16.0462L25.8743 14.5454C25.8538 14.1356 26.1662 13.7822 26.576 13.7566C26.9807 13.731 27.329 14.0383 27.3546 14.443V14.4635L27.4673 16.5533C27.4878 16.8965 27.2726 17.2089 26.9448 17.3114L25.1725 17.8543C25.5516 18.638 25.7309 19.56 25.8026 20.5025C25.8077 20.5179 27.1804 20.5179 27.1804 20.5179ZM20.6906 18.9659C21.1004 18.9659 21.4333 19.3039 21.4333 19.7137V24.9127C21.4333 25.3276 21.1004 25.6605 20.6906 25.6605C20.2757 25.6605 19.9428 25.3225 19.9479 24.9127V19.7188C19.9479 19.3039 20.2808 18.971 20.6906 18.9659Z" fill="#86888C"/>
</svg>
