<svg width="28" height="28" viewBox="0 0 28 28" fill="none" xmlns="http://www.w3.org/2000/svg">
<path fill-rule="evenodd" clip-rule="evenodd" d="M15.0048 25.6581V15.169H23.7491C23.674 16.2889 23.575 17.3201 23.4418 18.0849C22.8955 21.2706 17.0569 24.5826 15.0048 25.6581ZM5.56389 18.0849C5.43073 17.3167 5.33171 16.2889 5.25318 15.169H13.9941V25.6581C11.942 24.5826 6.11362 21.2706 5.56389 18.0849ZM9.79095 5.69398C10.9245 4.93598 12.1025 4.16432 13.9941 4.0414V14.1481H5.18831C5.0449 11.4405 5.01759 8.47332 5.01076 7.24755C7.18575 7.43534 8.51396 6.551 9.79095 5.69398ZM23.9881 7.24072C23.9847 8.45967 23.9574 11.437 23.814 14.1481H15.0048V4.04481C16.8964 4.16432 18.0743 4.93939 19.2045 5.6974C20.4747 6.54417 21.7892 7.41827 23.9881 7.24072ZM24.9988 6.66709C24.9886 6.51686 24.9169 6.38028 24.8008 6.28809C24.6813 6.19249 24.5276 6.15152 24.374 6.17542C22.2468 6.51344 21.0961 5.73837 19.7645 4.8472C18.4738 3.98335 17.0056 3.00341 14.5029 3H14.496C11.9933 3 10.5285 3.97994 9.2344 4.8472C7.89936 5.73837 6.7487 6.51686 4.6181 6.172C4.46786 6.13786 4.3108 6.17542 4.19129 6.27102C4.07179 6.36662 4.0035 6.51344 4.00009 6.66709C4.00009 7.00171 3.9796 14.872 4.56688 18.2625C5.31806 22.6295 13.9156 26.7746 14.2809 26.9488C14.2843 26.9522 14.2878 26.9488 14.2912 26.9522C14.356 26.9829 14.4243 27 14.496 27C14.5677 27 14.6394 26.9829 14.7043 26.9522C14.7077 26.9488 14.7077 26.9522 14.7111 26.9488C15.0799 26.7746 23.6877 22.6295 24.4388 18.2625C25.0193 14.8685 24.9988 6.99829 24.9988 6.66709Z" fill="#86888C"/>
</svg>
