<svg width="20" height="20" viewBox="0 0 20 20" fill="none" xmlns="http://www.w3.org/2000/svg">
<path fill-rule="evenodd" clip-rule="evenodd" d="M15.9745 12.06C16.2932 10.1955 16.3319 6.07498 16.3365 4.81606C14.8681 4.93672 13.9894 4.35393 13.1425 3.78707C12.3207 3.23615 11.4693 2.6693 10.0009 2.66702H9.99638C8.52574 2.66702 7.67659 3.23615 6.85249 3.78707C5.99879 4.35621 5.12006 4.93672 3.65852 4.82062C3.66308 6.08637 3.70178 10.1978 4.02732 12.0622C4.43027 14.4048 9.11764 16.8543 9.99638 17.296C10.8797 16.8543 15.5716 14.4025 15.9745 12.06ZM16.999 4.44044C16.999 4.66354 17.0126 9.91321 16.6279 12.1761C16.1271 15.0878 10.3857 17.8515 10.1421 17.9676C10.0981 17.9889 10.0498 18 10.0009 18C9.95203 18 9.90377 17.9889 9.85978 17.9676C9.61392 17.8515 3.87935 15.0855 3.37851 12.1761C2.98467 9.91321 2.99833 4.66354 3.00061 4.44044C3.00061 4.34027 3.04614 4.24466 3.12582 4.18091C3.20322 4.11945 3.30566 4.0944 3.40355 4.11717C4.82866 4.33572 5.6004 3.82577 6.49052 3.2316C7.35333 2.65336 8.32996 2 9.99638 2H10.0009C11.6673 2.00228 12.6463 2.65564 13.5068 3.2316C14.3969 3.82577 15.1618 4.34255 16.5892 4.11717C16.6871 4.10123 16.7895 4.12628 16.8669 4.19002C16.9443 4.25148 16.9921 4.34255 16.999 4.44044ZM9.99865 12.5699C11.2485 12.5699 11.6082 12.0873 11.6082 10.4163C11.6082 9.36912 11.4511 8.80454 11.0891 8.52908C10.8523 8.35151 10.4949 8.26273 9.99865 8.26273C9.49782 8.26273 9.13812 8.35151 8.90137 8.53363C8.54168 8.81137 8.38915 9.37595 8.38915 10.4163C8.38915 12.0873 8.74884 12.5699 9.99865 12.5699ZM10.0009 7.03795C8.88771 7.03795 8.88771 7.31341 8.88771 7.6344C8.88771 7.69359 8.89226 7.7414 8.89909 7.78465C9.19959 7.66172 9.55928 7.5957 9.99865 7.5957C10.4403 7.5957 10.8023 7.66172 11.1028 7.78465C11.1096 7.7414 11.1142 7.69132 11.1142 7.63213C11.1142 7.31341 11.1142 7.03795 10.0009 7.03795ZM12.858 9.78572C13.0401 9.78572 13.1881 9.93597 13.1881 10.1181V10.735C13.1881 10.9194 13.0401 11.0674 12.858 11.0674C12.6736 11.0674 12.5256 10.9172 12.5279 10.735V10.4505H12.2706C12.2683 10.99 12.2183 11.4658 12.0999 11.8687L12.7555 12.0691C12.9012 12.1146 12.9968 12.2535 12.9877 12.406L12.9399 13.3348C12.9308 13.5124 12.7874 13.6513 12.6098 13.6513H12.5916C12.4095 13.6399 12.2683 13.4828 12.2775 13.3007L12.3139 12.6314L11.8222 12.4811C11.4875 12.9592 10.9252 13.2347 9.99865 13.2347C9.06983 13.2347 8.50525 12.9569 8.17288 12.4766L7.66749 12.6314L7.70164 13.3007C7.71074 13.4828 7.57187 13.6399 7.38975 13.6513H7.37154C7.19397 13.6513 7.05055 13.5124 7.04144 13.3348L6.99364 12.406C6.98453 12.2535 7.08242 12.1146 7.22812 12.0691L7.89969 11.8642C7.78131 11.4612 7.73351 10.99 7.73123 10.4505H7.47398V10.735C7.47398 10.9194 7.32601 11.0674 7.14389 11.0674C6.95949 11.0674 6.81151 10.9172 6.81379 10.735V10.1181C6.81379 9.9337 6.96177 9.78572 7.14389 9.78572H7.754C7.78359 9.36684 7.86555 8.95934 8.03173 8.61103L7.2304 8.36517C7.0847 8.31964 6.98681 8.18077 6.99591 8.02824L7.04144 7.09942C7.05055 6.91502 7.20991 6.76705 7.38975 6.78298C7.57187 6.79209 7.71074 6.94917 7.70164 7.13357L7.66749 7.80059L8.26849 7.98499C8.24117 7.86889 8.22751 7.75051 8.22751 7.62985C8.22751 6.83762 8.69648 6.54395 9.19048 6.4324L9.13357 6.37321C9.00381 6.24345 9.00381 6.03173 9.13357 5.90197C9.26106 5.7722 9.46822 5.7722 9.59571 5.89741L9.60026 5.90197L9.90304 6.20474C9.94402 6.25028 9.97361 6.30491 9.98499 6.3641H9.99182C10.0032 6.30491 10.0328 6.248 10.0738 6.20474L10.3743 5.90197C10.5018 5.7722 10.7089 5.76993 10.8364 5.89741C10.8387 5.89969 10.841 5.89969 10.841 5.90197C10.9707 6.03173 10.9707 6.24345 10.841 6.37321L10.7863 6.42784C11.2872 6.53256 11.7743 6.82396 11.7743 7.62985C11.7743 7.75734 11.7584 7.86889 11.7334 7.97588L12.3116 7.79831L12.2775 7.13129C12.2683 6.94917 12.4072 6.79209 12.5893 6.78071C12.7692 6.76932 12.924 6.90592 12.9354 7.08576V7.09487L12.9855 8.02369C12.9946 8.17622 12.8989 8.31508 12.7532 8.36062L11.9656 8.60193C12.134 8.95024 12.2137 9.36001 12.2456 9.77889C12.2479 9.78572 12.858 9.78572 12.858 9.78572ZM9.97361 9.09593C10.1557 9.09593 10.3037 9.24618 10.3037 9.42831V11.739C10.3037 11.9234 10.1557 12.0714 9.97361 12.0714C9.78921 12.0714 9.64124 11.9211 9.64351 11.739V9.43058C9.64351 9.24618 9.79149 9.09821 9.97361 9.09593Z" fill="#86888C"/>
</svg>
