<svg width="24" height="24" viewBox="0 0 24 24" fill="none" xmlns="http://www.w3.org/2000/svg">
<path fill-rule="evenodd" clip-rule="evenodd" d="M19.2182 14.575C19.6166 12.2444 19.6649 7.09373 19.6706 5.52008C17.8352 5.6709 16.7368 4.94241 15.6782 4.23384C14.6509 3.54519 13.5866 2.83662 11.7512 2.83378H11.7455C9.90717 2.83378 8.84574 3.54519 7.81561 4.23384C6.74849 4.94526 5.65007 5.6709 3.82316 5.52577C3.82885 7.10796 3.87722 12.2472 4.28415 14.5778C4.78783 17.506 10.647 20.5679 11.7455 21.12C12.8496 20.5679 18.7145 17.5031 19.2182 14.575ZM20.4987 5.05055C20.4987 5.32942 20.5158 11.8915 20.0349 14.7201C19.4088 18.3597 12.2321 21.8143 11.9276 21.9594C11.8726 21.9861 11.8123 22 11.7512 22C11.69 22 11.6297 21.9861 11.5747 21.9594C11.2674 21.8143 4.09919 18.3568 3.47314 14.7201C2.98084 11.8915 2.99792 5.32942 3.00076 5.05055C3.00076 4.92534 3.05767 4.80582 3.15727 4.72614C3.25402 4.64931 3.38208 4.61801 3.50444 4.64646C5.28582 4.91965 6.2505 4.28222 7.36316 3.5395C8.44166 2.8167 9.66245 2 11.7455 2H11.7512C13.8342 2.00285 15.0578 2.81955 16.1335 3.5395C17.2461 4.28222 18.2023 4.92818 19.9865 4.64646C20.1089 4.62654 20.2369 4.65785 20.3337 4.73752C20.4304 4.81436 20.4902 4.92818 20.4987 5.05055ZM11.7483 15.2124C13.3106 15.2124 13.7602 14.6091 13.7602 12.5204C13.7602 11.2114 13.5638 10.5057 13.1114 10.1613C12.8154 9.93939 12.3687 9.82841 11.7483 9.82841C11.1223 9.82841 10.6727 9.93939 10.3767 10.167C9.92709 10.5142 9.73643 11.2199 9.73643 12.5204C9.73643 14.6091 10.186 15.2124 11.7483 15.2124ZM11.7512 8.29744C10.3596 8.29744 10.3596 8.64177 10.3596 9.043C10.3596 9.11699 10.3653 9.17675 10.3739 9.23082C10.7495 9.07715 11.1991 8.99463 11.7483 8.99463C12.3004 8.99463 12.7528 9.07715 13.1285 9.23082C13.137 9.17675 13.1427 9.11415 13.1427 9.04016C13.1427 8.64177 13.1427 8.29744 11.7512 8.29744ZM15.3225 11.7322C15.5501 11.7322 15.7351 11.92 15.7351 12.1476V12.9188C15.7351 13.1493 15.5501 13.3343 15.3225 13.3343C15.092 13.3343 14.907 13.1464 14.9098 12.9188V12.5631H14.5883C14.5854 13.2375 14.5228 13.8322 14.3749 14.3359L15.1944 14.5863C15.3765 14.6433 15.496 14.8168 15.4847 15.0075L15.4249 16.1685C15.4135 16.3905 15.2342 16.5641 15.0123 16.5641H14.9895C14.7619 16.5499 14.5854 16.3535 14.5968 16.1258L14.6424 15.2892L14.0277 15.1014C13.6094 15.699 12.9065 16.0433 11.7483 16.0433C10.5873 16.0433 9.88156 15.6962 9.4661 15.0957L8.83436 15.2892L8.87705 16.1258C8.88843 16.3535 8.71484 16.5499 8.48719 16.5641H8.46443C8.24246 16.5641 8.06319 16.3905 8.0518 16.1685L7.99205 15.0075C7.98066 14.8168 8.10303 14.6433 8.28515 14.5863L9.12462 14.3302C8.97664 13.8266 8.91688 13.2375 8.91404 12.5631H8.59248V12.9188C8.59248 13.1493 8.40751 13.3343 8.17986 13.3343C7.94936 13.3343 7.76439 13.1464 7.76724 12.9188V12.1476C7.76724 11.9171 7.95221 11.7322 8.17986 11.7322H8.9425C8.97949 11.2086 9.08193 10.6992 9.28967 10.2638L8.28799 9.95646C8.10587 9.89955 7.98351 9.72596 7.99489 9.5353L8.0518 8.37428C8.06319 8.14378 8.26238 7.95881 8.48719 7.97873C8.71484 7.99011 8.88843 8.18646 8.87705 8.41696L8.83436 9.25074L9.58561 9.48124C9.55147 9.33611 9.53439 9.18813 9.53439 9.03731C9.53439 8.04702 10.1206 7.67993 10.7381 7.5405L10.667 7.46651C10.5048 7.30431 10.5048 7.03966 10.667 6.87746C10.8263 6.71526 11.0853 6.71526 11.2446 6.87177L11.2503 6.87746L11.6288 7.25593C11.68 7.31284 11.717 7.38114 11.7312 7.45513H11.7398C11.754 7.38114 11.791 7.31 11.8422 7.25593L12.2178 6.87746C12.3772 6.71526 12.6362 6.71241 12.7955 6.87177C12.7984 6.87461 12.8012 6.87461 12.8012 6.87746C12.9634 7.03966 12.9634 7.30431 12.8012 7.46651L12.7329 7.53481C13.359 7.66571 13.9679 8.02995 13.9679 9.03731C13.9679 9.19667 13.948 9.33611 13.9167 9.46985L14.6395 9.24789L14.5968 8.41411C14.5854 8.18646 14.759 7.99011 14.9867 7.97588C15.2115 7.96165 15.405 8.13239 15.4192 8.3572V8.36858L15.4818 9.52961C15.4932 9.72027 15.3737 9.89386 15.1916 9.95077L14.207 10.2524C14.4175 10.6878 14.5171 11.2 14.557 11.7236C14.5598 11.7322 15.3225 11.7322 15.3225 11.7322ZM11.717 10.8699C11.9447 10.8699 12.1296 11.0577 12.1296 11.2854V14.1737C12.1296 14.4042 11.9447 14.5892 11.717 14.5892C11.4865 14.5892 11.3015 14.4014 11.3044 14.1737V11.2882C11.3044 11.0577 11.4894 10.8728 11.717 10.8699Z" fill="#86888C"/>
</svg>
