<svg width="20" height="20" viewBox="0 0 20 20" fill="none" xmlns="http://www.w3.org/2000/svg">
<path fill-rule="evenodd" clip-rule="evenodd" d="M10.3365 17.1054V10.1127H16.1661C16.116 10.8593 16.05 11.5467 15.9612 12.0566C15.597 14.1804 11.7046 16.3884 10.3365 17.1054ZM4.0426 12.0566C3.95382 11.5445 3.88781 10.8593 3.83545 10.1127H9.66274V17.1054C8.29469 16.3884 4.40908 14.1804 4.0426 12.0566ZM6.86064 3.79599C7.61636 3.29065 8.40168 2.77621 9.66274 2.69427V9.43207H3.7922C3.6966 7.62697 3.67839 5.64888 3.67384 4.8317C5.12383 4.95689 6.00931 4.36734 6.86064 3.79599ZM16.3254 4.82714C16.3231 5.63978 16.3049 7.6247 16.2093 9.43207H10.3365V2.69654C11.5976 2.77621 12.3829 3.29293 13.1364 3.79826C13.9831 4.36278 14.8595 4.94551 16.3254 4.82714ZM16.9992 4.44473C16.9924 4.34457 16.9446 4.25352 16.8672 4.19206C16.7875 4.12833 16.6851 4.10101 16.5826 4.11694C15.1645 4.3423 14.3974 3.82558 13.5097 3.23147C12.6492 2.65557 11.6704 2.00228 10.0019 2H9.99735C8.32884 2 7.35231 2.65329 6.4896 3.23147C5.59957 3.82558 4.83247 4.34457 3.41207 4.11467C3.31191 4.0919 3.2072 4.11694 3.12753 4.18068C3.04786 4.24442 3.00233 4.3423 3.00006 4.44473C3.00006 4.6678 2.9864 9.91464 3.37792 12.175C3.8787 15.0864 9.61039 17.8498 9.85395 17.9659C9.85623 17.9681 9.8585 17.9659 9.86078 17.9681C9.90403 17.9886 9.94955 18 9.99735 18C10.0452 18 10.093 17.9886 10.1362 17.9681C10.1385 17.9659 10.1385 17.9681 10.1408 17.9659C10.3866 17.8498 16.1251 15.0864 16.6259 12.175C17.0129 9.91236 16.9992 4.66553 16.9992 4.44473Z" fill="#86888C"/>
</svg>
