<svg width="28" height="28" viewBox="0 0 28 28" fill="none" xmlns="http://www.w3.org/2000/svg">
<path fill-rule="evenodd" clip-rule="evenodd" d="M23.4644 18.0934C23.9425 15.2967 24.0006 9.11247 24.004 7.2241C21.7946 7.41532 20.4833 6.53089 19.213 5.68403C17.9803 4.85765 16.7032 4.00395 14.5006 4.00395H14.4938C12.2912 4.00395 11.0141 4.85765 9.77796 5.68403C8.49741 6.53431 7.15881 7.40508 4.99042 7.23093C4.99725 9.12955 5.05872 15.3001 5.5402 18.09C6.14462 21.6072 13.1791 25.2781 14.4972 25.9406C15.8153 25.2815 22.8566 21.6072 23.4644 18.0934ZM24.9977 6.66066C24.9977 6.9953 25.0182 14.8698 24.4411 18.2641C23.6898 22.6316 15.0777 26.7772 14.7123 26.9513C14.6463 26.9834 14.574 27 14.5006 27C14.4273 27 14.3549 26.9834 14.2889 26.9513C13.9201 26.7772 5.31824 22.6316 4.56699 18.2641C3.97623 14.8698 4.00013 6.9953 4.00013 6.66066C4.00355 6.38406 4.22892 6.1621 4.50211 6.16551C4.53967 6.16551 4.57723 6.16893 4.6148 6.17917C6.74221 6.51382 7.89641 5.74208 9.23501 4.8474C10.5258 3.98004 11.9907 3 14.4938 3H14.5006C17.0037 3.00341 18.4686 3.98346 19.7628 4.8474C21.098 5.73866 22.2522 6.51382 24.3864 6.17917C24.5333 6.15868 24.6835 6.19624 24.803 6.28844C24.9157 6.37723 24.9874 6.51382 24.9977 6.66066ZM19.032 11.2433C19.2233 11.0487 19.5374 11.0487 19.7287 11.2399L19.7321 11.2433C19.9267 11.4379 19.9267 11.7555 19.7321 11.9502L12.9879 18.7558C12.7966 18.9505 12.4859 18.9505 12.2912 18.7593L12.2878 18.7558L9.25891 15.6996C9.06427 15.505 9.06427 15.1874 9.25891 14.9927C9.45014 14.7981 9.7643 14.7981 9.95553 14.9893L9.95894 14.9927L12.6361 17.6938L19.032 11.2433Z" fill="#86888C"/>
</svg>
