<svg width="28" height="28" viewBox="0 0 28 28" fill="none" xmlns="http://www.w3.org/2000/svg">
<path fill-rule="evenodd" clip-rule="evenodd" d="M23.4618 18.09C23.9399 15.2932 23.9979 9.11247 24.0048 7.2241C21.8022 7.40508 20.4841 6.53089 19.2138 5.68061C17.9811 4.85423 16.7039 4.00395 14.5014 4.00053H14.4946C12.2886 4.00053 11.0149 4.85423 9.77874 5.68061C8.49819 6.53431 7.18008 7.40508 4.98779 7.23093C4.99462 9.12955 5.05267 15.2967 5.54098 18.0934C6.1454 21.6072 13.1765 25.2815 14.4946 25.944C15.8195 25.2815 22.8574 21.6038 23.4618 18.09ZM24.9985 6.66066C24.9985 6.9953 25.0189 14.8698 24.4418 18.2641C23.6906 22.6316 15.0785 26.7772 14.7131 26.9513C14.6471 26.9834 14.5747 27 14.5014 27C14.428 27 14.3557 26.9834 14.2897 26.9513C13.9209 26.7772 5.31902 22.6282 4.56777 18.2641C3.97701 14.8698 3.9975 6.9953 4.00091 6.66066C4.00091 6.5104 4.06921 6.36698 4.18873 6.27137C4.30483 6.17917 4.4585 6.14161 4.60533 6.17576C6.74299 6.50357 7.9006 5.73866 9.23579 4.8474C10.53 3.98004 11.9949 3 14.4946 3H14.5014C17.001 3.00341 18.4694 3.98346 19.7602 4.8474C21.0954 5.73866 22.2427 6.51382 24.3838 6.17576C24.5306 6.15185 24.6843 6.18941 24.8004 6.28503C24.9165 6.37723 24.9882 6.51382 24.9985 6.66066ZM14.498 18.8549C16.3727 18.8549 16.9122 18.1309 16.9122 15.6245C16.9122 14.0537 16.6766 13.2068 16.1337 12.7936C15.7785 12.5273 15.2424 12.3941 14.498 12.3941C13.7467 12.3941 13.2072 12.5273 12.852 12.8004C12.3125 13.2171 12.0837 14.0639 12.0837 15.6245C12.0837 18.1309 12.6233 18.8549 14.498 18.8549ZM14.5014 10.5569C12.8316 10.5569 12.8316 10.9701 12.8316 11.4516C12.8316 11.5404 12.8384 11.6121 12.8486 11.677C13.2994 11.4926 13.8389 11.3936 14.498 11.3936C15.1604 11.3936 15.7034 11.4926 16.1542 11.677C16.1644 11.6121 16.1712 11.537 16.1712 11.4482C16.1712 10.9701 16.1712 10.5569 14.5014 10.5569ZM18.787 14.6786C19.0601 14.6786 19.2821 14.904 19.2821 15.1771V16.1026C19.2821 16.3791 19.0601 16.6011 18.787 16.6011C18.5104 16.6011 18.2884 16.3757 18.2918 16.1026V15.6757H17.9059C17.9025 16.485 17.8274 17.1987 17.6498 17.8031L18.6333 18.1036C18.8518 18.1719 18.9953 18.3802 18.9816 18.609L18.9099 20.0022C18.8962 20.2686 18.6811 20.4769 18.4147 20.4769H18.3874C18.1142 20.4598 17.9025 20.2242 17.9162 19.951L17.9708 18.9471L17.2332 18.7217C16.7313 19.4388 15.8878 19.852 14.498 19.852C13.1047 19.852 12.2579 19.4354 11.7593 18.7149L11.0012 18.9471L11.0525 19.951C11.0661 20.2242 10.8578 20.4598 10.5846 20.4769H10.5573C10.291 20.4769 10.0758 20.2686 10.0622 20.0022L9.99046 18.609C9.9768 18.3802 10.1236 18.1719 10.3422 18.1036L11.3495 17.7963C11.172 17.1919 11.1003 16.485 11.0968 15.6757H10.711V16.1026C10.711 16.3791 10.489 16.6011 10.2158 16.6011C9.93923 16.6011 9.71727 16.3757 9.72069 16.1026V15.1771C9.72069 14.9005 9.94265 14.6786 10.2158 14.6786H11.131C11.1754 14.0503 11.2983 13.439 11.5476 12.9166L10.3456 12.5478C10.127 12.4795 9.98021 12.2712 9.99387 12.0424L10.0622 10.6491C10.0758 10.3725 10.3149 10.1506 10.5846 10.1745C10.8578 10.1881 11.0661 10.4238 11.0525 10.7004L11.0012 11.7009L11.9027 11.9775C11.8618 11.8033 11.8413 11.6258 11.8413 11.4448C11.8413 10.2564 12.5447 9.81592 13.2857 9.6486L13.2004 9.55981C13.0057 9.36517 13.0057 9.04759 13.2004 8.85295C13.3916 8.65831 13.7023 8.65831 13.8936 8.84612L13.9004 8.85295L14.3546 9.30712C14.416 9.37541 14.4604 9.45737 14.4775 9.54615H14.4877C14.5048 9.45737 14.5492 9.372 14.6107 9.30712L15.0614 8.85295C15.2526 8.65831 15.5634 8.65489 15.7546 8.84612C15.758 8.84954 15.7615 8.84954 15.7615 8.85295C15.9561 9.04759 15.9561 9.36517 15.7615 9.55981L15.6795 9.64177C16.4307 9.79885 17.1615 10.2359 17.1615 11.4448C17.1615 11.636 17.1376 11.8033 17.1 11.9638L17.9674 11.6975L17.9162 10.6969C17.9025 10.4238 18.1108 10.1881 18.384 10.1711C18.6538 10.154 18.886 10.3589 18.9031 10.6286V10.6423L18.9782 12.0355C18.9918 12.2643 18.8484 12.4726 18.6299 12.5409L17.4484 12.9029C17.7011 13.4254 17.8206 14.04 17.8684 14.6683C17.8718 14.6786 18.787 14.6786 18.787 14.6786ZM14.4604 13.6439C14.7336 13.6439 14.9556 13.8693 14.9556 14.1425V17.6085C14.9556 17.8851 14.7336 18.107 14.4604 18.107C14.1838 18.107 13.9619 17.8817 13.9653 17.6085V14.1459C13.9653 13.8693 14.1872 13.6473 14.4604 13.6439Z" fill="#86888C"/>
</svg>
