<svg width="40" height="40" viewBox="0 0 40 40" fill="none" xmlns="http://www.w3.org/2000/svg">
<path d="M20 26.7173C17.8646 26.7173 16.2054 26.159 15.0686 25.063C13.8856 23.9209 13.2865 22.2205 13.2865 19.9977C13.2865 17.7749 13.8856 16.0745 15.0686 14.9324C16.2105 13.8364 17.8697 13.2781 20 13.2781C22.1303 13.2781 23.7946 13.8364 24.9314 14.9324C26.1144 16.0745 26.7135 17.7749 26.7135 19.9977C26.7135 22.2205 26.1144 23.9209 24.9314 25.063C23.7895 26.1642 22.1303 26.7173 20 26.7173ZM20 14.3076C18.1411 14.3076 16.7175 14.7685 15.7752 15.6751C14.8023 16.6174 14.3055 18.072 14.3055 20.0028C14.3055 21.9337 14.8023 23.3882 15.7752 24.3306C16.7175 25.2372 18.136 25.6981 20 25.6981C21.864 25.6981 23.2825 25.2372 24.2247 24.3306C25.1977 23.3882 25.6944 21.9337 25.6944 20.0028C25.6944 18.072 25.2028 16.6174 24.2247 15.6802C23.2774 14.7685 21.8589 14.3076 20 14.3076Z" fill="#86888C"/>
<path d="M21.4185 38H18.5815C17.8595 38 17.2757 37.4161 17.2757 36.694V32.991C17.2757 32.8271 17.0964 32.7042 16.9223 32.6786C15.4321 32.4481 14.0905 32.0333 12.928 31.4494L12.9229 31.4443C12.7898 31.3726 12.6054 31.3521 12.4927 31.4597L12.4876 31.4648L9.78378 34.1741C9.26145 34.6914 8.42162 34.6914 7.90441 34.1741L5.83044 32.0999C5.31323 31.5775 5.31323 30.7375 5.83044 30.2202L8.53428 27.516L8.54452 27.5109C8.66743 27.3777 8.62134 27.1831 8.57525 27.1114C8.16046 26.4353 7.61252 24.9296 7.32575 23.0807C7.30014 22.9168 7.167 22.7324 7.01849 22.7273H3.30583C2.58378 22.7222 2 22.1383 2 21.4213V18.5839C2 17.8617 2.58378 17.2778 3.30583 17.2778H7.01337C7.16188 17.2727 7.29502 17.0883 7.32063 16.9245C7.52546 15.5928 7.99659 13.831 8.57013 12.8937C8.6111 12.822 8.6623 12.6274 8.5394 12.4942L5.83044 9.78489C5.31323 9.26248 5.31323 8.42254 5.83044 7.90525L7.90441 5.83099C8.42674 5.3137 9.26657 5.3137 9.78378 5.83099L12.4927 8.54033C12.6054 8.64789 12.7898 8.62228 12.9229 8.5557L12.928 8.55058C14.0905 7.96671 15.4321 7.55186 16.9223 7.32138C17.0964 7.29577 17.2757 7.16773 17.2757 7.00896V3.30602C17.2757 2.58387 17.8595 2.00512 18.5815 2H21.4185C22.1405 2 22.7243 2.58387 22.7243 3.30602V7.01921C22.7294 7.17798 22.9036 7.29577 23.0777 7.3265H23.0828C24.5781 7.55698 25.843 7.94622 27.0669 8.5557C27.1539 8.59667 27.3639 8.67862 27.5073 8.54545L30.2162 5.83611C30.7386 5.31882 31.5784 5.31882 32.0956 5.83611L34.1696 7.91037C34.6868 8.43278 34.6868 9.27273 34.1696 9.79001L31.4606 12.4994C31.3582 12.612 31.3787 12.7964 31.4452 12.9296L31.4504 12.9347C32.0393 14.0973 32.4489 15.4392 32.6794 16.9296C32.705 17.1037 32.833 17.283 32.9918 17.283H36.6942C37.4162 17.283 38 17.8668 38 18.589V21.4264C38 22.1485 37.4162 22.7324 36.6942 22.7324H32.9918C32.8279 22.7324 32.705 22.9117 32.6794 23.0858C32.4489 24.5762 32.0341 25.9181 31.4504 27.0807L31.4452 27.0858C31.3735 27.219 31.3531 27.4033 31.4606 27.516L34.1696 30.2254C34.6868 30.7478 34.6868 31.5877 34.1696 32.105L32.0956 34.1793C31.5733 34.6965 30.7334 34.6965 30.2162 34.1793L27.5124 31.475L27.5073 31.4648C27.3639 31.3316 27.1539 31.4136 27.0669 31.4545C25.843 32.0589 24.5781 32.4533 23.0828 32.6837H23.0777C22.9087 32.7093 22.7294 32.8323 22.7243 32.991V36.7042C22.7192 37.4213 22.1354 38 21.4185 38ZM13.394 30.5378C14.4592 31.0755 15.6984 31.4545 17.0811 31.6697C17.7878 31.7772 18.305 32.3355 18.305 32.9962V36.6991C18.305 36.8528 18.433 36.9757 18.5866 36.9808H21.4236C21.5772 36.9808 21.7001 36.8528 21.7053 36.6991V32.9962C21.7053 32.3406 22.2174 31.7823 22.9189 31.6697H22.924C24.3118 31.4545 25.4845 31.096 26.6162 30.5378C27.072 30.3124 27.7428 30.2458 28.2395 30.7478L28.2498 30.758L30.9434 33.4469C31.0612 33.5647 31.2558 33.5647 31.3787 33.4469L33.4526 31.3726C33.5704 31.2497 33.5704 31.0602 33.4526 30.9373L30.7488 28.233C30.334 27.8182 30.2521 27.1626 30.544 26.6044C31.0816 25.5391 31.4606 24.2996 31.6757 22.9168C31.7832 22.21 32.3414 21.6927 33.002 21.6927H36.7044C36.858 21.6927 36.9809 21.5647 36.9861 21.411V18.5736C36.9861 18.42 36.858 18.2971 36.7044 18.2919H33.002C32.3414 18.2919 31.7832 17.7798 31.6757 17.0679C31.4606 15.685 31.0816 14.4456 30.544 13.3803C30.2521 12.8169 30.334 12.1665 30.7488 11.7516L30.759 11.7414L33.4526 9.0525C33.5704 8.92958 33.5704 8.74008 33.4526 8.61716L31.3787 6.54289C31.2609 6.4251 31.0663 6.4251 30.9434 6.54289L28.2395 9.24712C27.7428 9.74904 27.072 9.68246 26.6162 9.45711C25.4896 8.89885 24.3118 8.54033 22.924 8.32522H22.9189C22.2122 8.21255 21.7053 7.65941 21.7053 6.99872V3.29577C21.7053 3.14213 21.5772 3.01921 21.4236 3.01408H18.5866C18.433 3.01408 18.3101 3.14213 18.305 3.29577V6.99872C18.305 7.65941 17.7929 8.21767 17.0811 8.32522C15.6984 8.54033 14.4592 8.91933 13.394 9.45711C12.8307 9.74904 12.1752 9.66709 11.7656 9.25224L9.06686 6.54802C8.94908 6.43022 8.75448 6.43022 8.63158 6.54802L6.55761 8.62228C6.43983 8.7452 6.43983 8.9347 6.55761 9.05762L9.26145 11.7618C9.75306 12.2535 9.72745 12.9706 9.4458 13.4264C9.01565 14.1229 8.55989 15.6236 8.33457 17.0781C8.24239 17.6671 7.74566 18.2971 7.00825 18.2971H3.30583C3.1522 18.2971 3.0293 18.4251 3.02418 18.5787V21.4161C3.02418 21.5698 3.1522 21.6927 3.30583 21.6978H7.00825C7.56131 21.6978 8.21166 22.128 8.33457 22.9168C8.55989 24.3713 9.01565 25.8771 9.4458 26.5685C9.72745 27.0243 9.75306 27.7414 9.26145 28.233L6.55761 30.9373C6.43983 31.0602 6.43983 31.2497 6.55761 31.3726L8.63158 33.4469C8.74936 33.5647 8.94395 33.5647 9.06686 33.4469L11.7707 30.7426C12.1752 30.3278 12.8307 30.2458 13.394 30.5378Z" fill="#86888C"/>
</svg>
