<svg width="28" height="28" viewBox="0 0 28 28" fill="none" xmlns="http://www.w3.org/2000/svg">
<path fill-rule="evenodd" clip-rule="evenodd" d="M19.6933 20.9345C20.9397 20.9345 24.9968 20.5623 24.9968 15.7505C24.9968 11.229 21.4178 10.6382 19.8777 10.5972C19.6557 10.5904 19.4644 10.4401 19.4064 10.2284C18.3204 6.19867 13.7545 5.99377 12.853 5.99377C11.2547 5.99377 6.04681 6.4548 6.04681 12.3867L6.05364 12.5233C6.05364 12.7453 5.90679 12.9434 5.68823 13.0014C3.90217 13.5068 2.99719 14.8182 2.99719 16.898C2.99719 20.6033 5.89996 21.0028 7.14644 21.0028L19.6933 20.9345ZM20.2738 9.62395C22.0018 9.75372 26.0008 10.6143 26.0008 15.7539C26.0008 21.6346 20.7485 21.9317 19.6967 21.9317L7.15669 22C4.66372 22 2 20.6613 2 16.9014C2 13.8278 3.76898 12.6292 5.04962 12.1647C5.18622 5.34833 11.5655 5 12.8564 5C13.8604 5 18.8395 5.22881 20.2738 9.62395ZM14.0004 15.45C14.9327 15.45 15.3664 15.0197 15.3664 14.0942C15.3664 13.1687 14.9327 12.735 14.0004 12.735C13.0681 12.735 12.6344 13.1653 12.6344 14.0942C12.6344 15.0163 13.0681 15.45 14.0004 15.45ZM14.0004 11.7378C15.4825 11.7378 16.367 12.6189 16.367 14.0908C16.367 15.5627 15.4825 16.4438 14.0004 16.4438C12.5183 16.4438 11.6338 15.5627 11.6338 14.0908C11.6338 12.6189 12.5183 11.7378 14.0004 11.7378ZM17.3949 14.4289H18.2931L18.2658 13.7288L17.3949 13.7561C17.1491 13.7561 16.9373 13.5785 16.8998 13.3361C16.8451 13.0082 16.7563 12.7145 16.63 12.4652C16.5344 12.274 16.5719 12.0418 16.7256 11.8915L17.3915 11.2324L16.8588 10.7304L16.2202 11.3895C16.0699 11.5398 15.8377 11.5773 15.643 11.4851C15.3732 11.3519 15.0932 11.2666 14.762 11.2153C14.5195 11.1778 14.3385 10.9695 14.3385 10.7236V9.83226L13.635 9.85958L13.6589 10.727C13.6589 10.9729 13.4813 11.1812 13.2354 11.2188C12.9042 11.27 12.6105 11.3622 12.3578 11.4851C12.1631 11.5808 11.9343 11.5432 11.7806 11.3895L11.1147 10.7304L10.6093 11.2597L11.2718 11.8915C11.4323 12.0486 11.4665 12.2945 11.3538 12.4892C11.2581 12.6633 11.1523 13.0048 11.0976 13.3429C11.0601 13.5854 10.8483 13.7595 10.6025 13.7595H9.7043L9.72821 14.4596L10.599 14.4357C10.8449 14.4357 11.0567 14.6133 11.0942 14.8558C11.1489 15.1904 11.2513 15.5354 11.3503 15.7095C11.4596 15.9042 11.4255 16.1501 11.2684 16.3072L10.6059 16.9663L11.1386 17.4683L11.7738 16.8092C11.8694 16.7135 11.9992 16.6623 12.129 16.6623C12.2041 16.6623 12.2792 16.6794 12.3509 16.7135C12.6071 16.8399 12.9008 16.9321 13.2286 16.9833C13.4711 17.0209 13.6521 17.2292 13.6521 17.4751V18.3664L14.3317 18.3425V17.4648C14.3317 17.219 14.5127 17.0106 14.7551 16.9731C15.0864 16.9219 15.3664 16.8331 15.6362 16.7033C15.8274 16.6111 16.0597 16.6487 16.2133 16.7989L16.8793 17.458L17.3847 16.9287L16.7188 16.2935C16.5651 16.1432 16.5275 15.911 16.6231 15.7198C16.7495 15.4705 16.8383 15.1768 16.8929 14.8489C16.9373 14.6065 17.1491 14.4289 17.3949 14.4289ZM18.2931 12.7589C18.8327 12.7589 19.2698 13.1926 19.2698 13.7288V14.4528C19.2698 14.989 18.8327 15.4227 18.2931 15.4227H17.8013C17.7638 15.5627 17.7228 15.6993 17.6716 15.8256L18.095 16.2457C18.2794 16.4267 18.3819 16.6726 18.3819 16.9355C18.3819 17.1951 18.2794 17.4409 18.095 17.6254L17.5623 18.1547C17.1798 18.5372 16.5548 18.5372 16.1724 18.1547L15.7489 17.7346C15.6191 17.7859 15.4825 17.8268 15.3425 17.8644V18.3493C15.3425 18.8855 14.9054 19.3192 14.3658 19.3192H13.6384C13.0988 19.3192 12.6617 18.8855 12.6617 18.3493V17.861C12.5217 17.8234 12.3851 17.7824 12.2553 17.7346L11.8319 18.1547C11.6474 18.3391 11.4016 18.4415 11.1386 18.4415H11.1352C10.8722 18.4415 10.6264 18.3425 10.4385 18.1547L9.90579 17.6254C9.72137 17.4409 9.61892 17.1951 9.61892 16.9355C9.61892 16.6726 9.72137 16.4267 9.9092 16.2423L10.3258 15.8256C10.2746 15.6856 10.2336 15.5456 10.2029 15.4158H9.71113C9.17156 15.4158 8.73443 14.9787 8.73443 14.446V13.722C8.73443 13.1858 9.17497 12.7521 9.71113 12.7521H10.2029C10.2336 12.6258 10.2746 12.4823 10.3258 12.3423L9.90579 11.9257C9.72137 11.7413 9.61892 11.4954 9.61892 11.2358C9.61892 10.9763 9.72137 10.7304 9.90579 10.546L10.4385 10.0167C10.6229 9.83226 10.8722 9.72981 11.1352 9.72981H11.1386C11.4016 9.72981 11.6474 9.83226 11.8319 10.0167L12.2553 10.4367C12.3851 10.3889 12.5217 10.3445 12.6617 10.3104V9.82202C12.6617 9.28586 13.1023 8.85215 13.6384 8.85215H14.3658C14.9054 8.85215 15.3425 9.28586 15.3425 9.82202V10.3104C15.4825 10.3479 15.6191 10.3889 15.7489 10.4401L16.1724 10.0201C16.5548 9.63761 17.1798 9.63761 17.5623 10.0201L18.095 10.5494C18.2828 10.7338 18.3819 10.9797 18.3819 11.2393C18.3819 11.4988 18.2794 11.7447 18.095 11.9291L17.6716 12.3491C17.7194 12.4789 17.7638 12.6155 17.8013 12.7521H18.2931V12.7589Z" fill="#86888C"/>
</svg>
