<svg width="20" height="20" viewBox="0 0 20 20" fill="none" xmlns="http://www.w3.org/2000/svg">
<path fill-rule="evenodd" clip-rule="evenodd" d="M14.1895 15.2479C15.0694 15.2479 17.9332 14.9851 17.9332 11.5886C17.9332 8.39695 15.4069 7.97991 14.3197 7.95098C14.163 7.94616 14.028 7.8401 13.9871 7.69064C13.2205 4.84612 9.9975 4.70149 9.3611 4.70149C8.23294 4.70149 4.55676 5.02692 4.55676 9.21414L4.56159 9.31057C4.56159 9.46726 4.45793 9.60707 4.30365 9.64805C3.0429 10.0048 2.40409 10.9305 2.40409 12.3986C2.40409 15.0141 4.45311 15.2961 5.33298 15.2961L14.1895 15.2479ZM14.5994 7.26396C15.8191 7.35556 18.6419 7.96304 18.6419 11.591C18.6419 15.7421 14.9344 15.9518 14.192 15.9518L5.34021 16C3.58047 16 1.7002 15.055 1.7002 12.401C1.7002 10.2314 2.94889 9.38529 3.85287 9.05745C3.94929 4.24588 8.45231 4 9.36351 4C10.0722 4 13.5869 4.16151 14.5994 7.26396ZM10.1711 11.3765C10.8292 11.3765 11.1353 11.0727 11.1353 10.4194C11.1353 9.76617 10.8292 9.46002 10.1711 9.46002C9.51297 9.46002 9.20683 9.76376 9.20683 10.4194C9.20683 11.0703 9.51297 11.3765 10.1711 11.3765ZM10.1711 8.75613C11.2173 8.75613 11.8416 9.37806 11.8416 10.417C11.8416 11.456 11.2173 12.0779 10.1711 12.0779C9.12486 12.0779 8.50052 11.456 8.50052 10.417C8.50052 9.37806 9.12486 8.75613 10.1711 8.75613ZM12.5672 10.6557H13.2012L13.1819 10.1615L12.5672 10.1808C12.3936 10.1808 12.2442 10.0554 12.2177 9.88429C12.1791 9.65287 12.1164 9.44556 12.0272 9.26959C11.9597 9.13459 11.9863 8.97067 12.0947 8.8646L12.5648 8.39936L12.1887 8.045L11.738 8.51025C11.6319 8.61631 11.468 8.64283 11.3306 8.57774C11.1401 8.48373 10.9425 8.42346 10.7086 8.3873C10.5375 8.36079 10.4097 8.21374 10.4097 8.04018V7.41101L9.91313 7.43029L9.93001 8.04259C9.93001 8.21615 9.80466 8.3632 9.63109 8.38971C9.39726 8.42587 9.18995 8.49096 9.01157 8.57774C8.87416 8.64524 8.71265 8.61872 8.60417 8.51025L8.13411 8.045L7.77734 8.41864L8.24499 8.8646C8.35829 8.97549 8.3824 9.14906 8.30285 9.28646C8.23535 9.4094 8.16062 9.65046 8.12205 9.88911C8.09554 10.0603 7.94608 10.1832 7.77251 10.1832H7.13853L7.1554 10.6774L7.7701 10.6605C7.94367 10.6605 8.09312 10.7859 8.11964 10.957C8.15821 11.1933 8.23053 11.4367 8.30044 11.5597C8.37758 11.6971 8.35347 11.8706 8.24258 11.9815L7.77493 12.4468L8.15098 12.8011L8.59935 12.3359C8.66685 12.2684 8.75845 12.2322 8.85006 12.2322C8.90309 12.2322 8.95612 12.2443 9.00675 12.2684C9.18754 12.3576 9.39485 12.4227 9.62627 12.4588C9.79742 12.4853 9.92519 12.6324 9.92519 12.8059V13.4351L10.4049 13.4182V12.7987C10.4049 12.6252 10.5327 12.4781 10.7038 12.4516C10.9376 12.4154 11.1353 12.3528 11.3257 12.2611C11.4607 12.1961 11.6247 12.2226 11.7331 12.3286L12.2032 12.7939L12.56 12.4202L12.0899 11.9719C11.9814 11.8658 11.9549 11.7019 12.0224 11.5669C12.1116 11.3909 12.1743 11.1836 12.2129 10.9522C12.2442 10.781 12.3936 10.6557 12.5672 10.6557ZM13.2012 9.4769C13.5821 9.4769 13.8906 9.78305 13.8906 10.1615V10.6726C13.8906 11.051 13.5821 11.3572 13.2012 11.3572H12.8541C12.8276 11.456 12.7986 11.5524 12.7625 11.6416L13.0614 11.9381C13.1916 12.0659 13.2639 12.2395 13.2639 12.4251C13.2639 12.6083 13.1916 12.7818 13.0614 12.912L12.6853 13.2857C12.4153 13.5556 11.9742 13.5556 11.7042 13.2857L11.4053 12.9892C11.3137 13.0253 11.2173 13.0542 11.1184 13.0808V13.4231C11.1184 13.8015 10.8099 14.1077 10.429 14.1077H9.91554C9.53467 14.1077 9.22611 13.8015 9.22611 13.4231V13.0783C9.12728 13.0518 9.03085 13.0229 8.93925 12.9892L8.64033 13.2857C8.51016 13.4158 8.3366 13.4881 8.15098 13.4881H8.14857C7.96295 13.4881 7.78939 13.4182 7.65681 13.2857L7.28075 12.912C7.15058 12.7818 7.07826 12.6083 7.07826 12.4251C7.07826 12.2395 7.15058 12.0659 7.28316 11.9357L7.57726 11.6416C7.5411 11.5428 7.51217 11.444 7.49047 11.3524H7.14335C6.76247 11.3524 6.45391 11.0438 6.45391 10.6677V10.1567C6.45391 9.77822 6.76488 9.47208 7.14335 9.47208H7.49047C7.51217 9.38288 7.5411 9.28164 7.57726 9.1828L7.28075 8.88871C7.15058 8.75854 7.07826 8.58497 7.07826 8.40177C7.07826 8.21856 7.15058 8.045 7.28075 7.91482L7.65681 7.54118C7.78698 7.41101 7.96295 7.33869 8.14857 7.33869H8.15098C8.3366 7.33869 8.51016 7.41101 8.64033 7.54118L8.93925 7.83769C9.03085 7.80394 9.12728 7.7726 9.22611 7.74849V7.40378C9.22611 7.02531 9.53708 6.71916 9.91554 6.71916H10.429C10.8099 6.71916 11.1184 7.02531 11.1184 7.40378V7.74849C11.2173 7.77501 11.3137 7.80394 11.4053 7.8401L11.7042 7.54359C11.9742 7.2736 12.4153 7.2736 12.6853 7.54359L13.0614 7.91724C13.194 8.04741 13.2639 8.22097 13.2639 8.40418C13.2639 8.58738 13.1916 8.76095 13.0614 8.89112L12.7625 9.18763C12.7962 9.27923 12.8276 9.37565 12.8541 9.47208H13.2012V9.4769Z" fill="#86888C"/>
</svg>
