<svg width="20" height="20" viewBox="0 0 20 20" fill="none" xmlns="http://www.w3.org/2000/svg">
<path fill-rule="evenodd" clip-rule="evenodd" d="M16.9801 15.3512C17.1736 15.3512 17.333 15.1986 17.333 15.0097V7.26466H2.66705V15.0097C2.66705 15.1986 2.82413 15.3512 3.01992 15.3512H16.9801ZM3.01992 4.64656C2.82641 4.64656 2.66705 4.80137 2.66705 4.98805V6.62038H17.333V4.98805C17.333 4.79909 17.1759 4.64656 16.9801 4.64656H3.01992ZM16.9801 4C17.5424 4 18 4.44394 18 4.98805V15.012C18 15.5561 17.5424 16 16.9801 16H3.01992C2.4576 16 2 15.5561 2 15.012V4.98805C2 4.44394 2.4576 4 3.01992 4H16.9801ZM5.40581 6.1309C5.14855 6.1309 4.94138 5.92829 4.94138 5.68241C4.94138 5.43426 5.14855 5.23164 5.40581 5.23164C5.66306 5.23164 5.87023 5.43199 5.87023 5.68241C5.87023 5.92829 5.66306 6.1309 5.40581 6.1309ZM6.79909 6.1309C6.54183 6.1309 6.33694 5.92829 6.33694 5.68241C6.33694 5.43426 6.54411 5.23164 6.79909 5.23164C7.05635 5.23164 7.26352 5.43199 7.26352 5.68241C7.26124 5.92829 7.05635 6.1309 6.79909 6.1309ZM4.0148 6.1309C3.75754 6.1309 3.55037 5.92829 3.55037 5.68241C3.55037 5.43426 3.75754 5.23164 4.0148 5.23164C4.27205 5.23164 4.47695 5.43199 4.47695 5.68241C4.47695 5.92829 4.27205 6.1309 4.0148 6.1309ZM9.9613 12.1844C10.5805 12.1844 10.8697 11.9044 10.8697 11.3034C10.8697 10.7023 10.5805 10.4223 9.9613 10.4223C9.34206 10.4223 9.05293 10.7023 9.05293 11.3034C9.05293 11.9044 9.33979 12.1844 9.9613 12.1844ZM9.9613 9.77575C10.9493 9.77575 11.5367 10.3472 11.5367 11.3034C11.5367 12.2595 10.9471 12.831 9.9613 12.831C8.97325 12.831 8.38589 12.2595 8.38589 11.3034C8.38589 10.3472 8.97325 9.77575 9.9613 9.77575ZM12.2197 11.5219H12.8184L12.8002 11.0689L12.2197 11.0848C12.0558 11.0848 11.9169 10.9687 11.8896 10.8116C11.8532 10.5999 11.794 10.4087 11.7097 10.2447C11.646 10.1195 11.671 9.97154 11.7735 9.87137L12.2151 9.44337L11.86 9.11782L11.4365 9.54582C11.3364 9.64371 11.1816 9.66875 11.0541 9.60729C10.8742 9.52305 10.6875 9.46614 10.4667 9.43199C10.3051 9.40694 10.1867 9.27262 10.1867 9.11326V8.535L9.7177 8.55094L9.73364 9.11326C9.73364 9.27262 9.61525 9.40694 9.45362 9.43199C9.23506 9.46614 9.03927 9.52533 8.86853 9.60729C8.73876 9.67103 8.58623 9.64371 8.48378 9.54582L8.04212 9.11782L7.70518 9.46158L8.14684 9.87137C8.25384 9.97382 8.27661 10.1332 8.20148 10.2584C8.13546 10.3722 8.06716 10.5931 8.03074 10.8116C8.00569 10.9687 7.86454 11.0825 7.70063 11.0825H7.10416L7.12009 11.5356L7.70063 11.5196C7.86454 11.5196 8.00342 11.6357 8.03074 11.7906C8.06716 12.0091 8.13546 12.2322 8.20148 12.3438C8.27661 12.4713 8.25384 12.6283 8.14684 12.7308L7.70518 13.1588L8.06033 13.4843L8.48378 13.0563C8.54752 12.9949 8.63404 12.9607 8.72055 12.9607C8.77063 12.9607 8.82072 12.9721 8.86853 12.9949C9.037 13.0768 9.23278 13.136 9.45362 13.1702C9.61525 13.1952 9.73364 13.3295 9.73364 13.4889V14.0672L10.1844 14.0512V13.4889C10.1844 13.3295 10.3028 13.1952 10.4644 13.1702C10.6853 13.136 10.8719 13.0791 11.0518 12.9949C11.1793 12.9357 11.3341 12.9607 11.4343 13.0563L11.8759 13.4843L12.2129 13.1406L11.7712 12.7308C11.6688 12.6329 11.646 12.4826 11.7075 12.3574C11.7917 12.1935 11.8509 12.0023 11.8873 11.7906C11.9146 11.638 12.0558 11.5219 12.2197 11.5219ZM12.8184 10.4382C13.1781 10.4382 13.4696 10.7205 13.4696 11.0689V11.5401C13.4696 11.8884 13.1781 12.1707 12.8184 12.1707H12.4906C12.4656 12.2618 12.4382 12.3483 12.4041 12.4348L12.6864 12.708C12.8116 12.8287 12.8776 12.988 12.8776 13.1565C12.8776 13.325 12.8093 13.4843 12.6864 13.605L12.3312 13.9488C12.0763 14.1969 11.6619 14.1969 11.4047 13.9488L11.1224 13.6756C11.0359 13.7075 10.9448 13.7348 10.8515 13.7598V14.0763C10.8515 14.4246 10.56 14.7069 10.2003 14.7069H9.7177C9.36027 14.7069 9.06659 14.4246 9.06659 14.0763V13.7598C8.97325 13.7371 8.88219 13.7097 8.79568 13.6779L8.51338 13.9511C8.39044 14.0717 8.22652 14.1377 8.05122 14.1377H8.04895C7.87365 14.1377 7.70973 14.0717 7.5868 13.9511L7.23165 13.6073C7.10871 13.4866 7.04041 13.3273 7.04041 13.1588C7.04041 12.9903 7.10871 12.831 7.23165 12.7103L7.51167 12.4394C7.47752 12.3506 7.4502 12.2573 7.42971 12.1753H7.10416C6.74673 12.1753 6.45305 11.893 6.45305 11.5447V11.0734C6.45305 10.7251 6.74445 10.4428 7.10416 10.4428H7.42971C7.4502 10.3608 7.47752 10.2675 7.51167 10.1787L7.23165 9.9078C7.10871 9.78714 7.04041 9.62778 7.04041 9.45931C7.04041 9.29084 7.10871 9.13147 7.23165 9.01081L7.5868 8.66705C7.70973 8.54639 7.87365 8.48036 8.04895 8.48036H8.05122C8.22652 8.48036 8.39044 8.54639 8.51338 8.66705L8.79568 8.94024C8.88219 8.90837 8.97325 8.88105 9.06659 8.85828V8.54183C9.06659 8.19351 9.358 7.91121 9.7177 7.91121H10.2026C10.5623 7.91121 10.8537 8.19351 10.8537 8.54183V8.85828C10.9471 8.88105 11.0381 8.90837 11.1246 8.94252L11.4069 8.66932C11.6619 8.42117 12.0763 8.42117 12.3335 8.66932L12.6887 9.01309C12.8139 9.13375 12.8799 9.29311 12.8799 9.46158C12.8799 9.63005 12.8116 9.78941 12.6887 9.91007L12.4064 10.1833C12.4382 10.2675 12.4678 10.3563 12.4929 10.4474H12.8184V10.4382Z" fill="#86888C"/>
</svg>
