<svg width="28" height="28" viewBox="0 0 28 28" fill="none" xmlns="http://www.w3.org/2000/svg">
<path d="M20.6959 26H11.9317C10.6811 26 9.78247 25.7062 9.18793 25.1049C8.5934 24.5036 8.3098 23.5949 8.3098 22.3274V17.5889C8.3098 17.401 8.46356 17.2473 8.65149 17.2473C8.83941 17.2473 8.99317 17.401 8.99317 17.5889V22.3274C8.99317 23.407 9.21527 24.1586 9.67654 24.6266C10.1378 25.0947 10.8724 25.3201 11.9317 25.3201H20.6959C21.7551 25.3201 22.4932 25.0947 22.951 24.6266C23.4089 24.1586 23.6344 23.407 23.6344 22.3274V5.6726C23.6344 3.57836 22.7563 2.68327 20.6959 2.68327H11.9317C9.84397 2.68327 8.99317 3.54762 8.99317 5.6726V6.40028C8.99317 6.58819 8.83941 6.74192 8.65149 6.74192C8.46356 6.74192 8.3098 6.58819 8.3098 6.40028V5.6726C8.3098 3.1684 9.46128 2 11.9317 2H20.6959C23.1321 2 24.3178 3.20256 24.3178 5.6726V22.3274C24.3178 23.5949 24.0308 24.5036 23.4362 25.1049C22.8417 25.7062 21.9465 26 20.6959 26Z" fill="#86888C"/>
<path d="M16.3155 21.1112C16.9305 21.1112 17.3303 21.4357 17.3303 22.1293C17.3303 22.4641 17.238 22.71 17.074 22.8774C16.8964 23.0585 16.6367 23.1473 16.3155 23.1473C15.9943 23.1473 15.7346 23.0585 15.5569 22.8774C15.3929 22.71 15.3007 22.4606 15.3007 22.1293C15.3007 21.4357 15.7005 21.1112 16.3155 21.1112ZM9.31435 7.00498V8.48769C9.90205 8.5526 10.4112 8.70633 10.8314 8.95915L11.7711 8.01964L12.6629 8.91132L11.7232 9.85082C11.9727 10.2608 12.1333 10.7664 12.1948 11.3677H13.6777V12.6317H12.1948C12.1298 13.233 11.9692 13.7386 11.7232 14.1486L12.6629 15.0881L11.7711 15.9832L10.8314 15.0437C10.4112 15.2965 9.90547 15.4537 9.31435 15.5152V16.9979H8.05011V15.5152C7.46241 15.4503 6.9533 15.2965 6.53303 15.0437L5.59339 15.9832L4.69818 15.0881L5.63781 14.1486C5.38838 13.7386 5.23121 13.233 5.16629 12.6317H3.68337V11.3677H5.16629C5.23121 10.7664 5.3918 10.2608 5.63781 9.85082L4.70159 8.91132L5.59681 8.01964L6.53645 8.95915C6.95672 8.70633 7.46241 8.54918 8.05353 8.48769V7.00498H9.31435ZM9.31435 6.32171H8.05011C7.67426 6.32171 7.36674 6.62918 7.36674 7.00498V7.91032C7.12756 7.96498 6.89522 8.03673 6.6697 8.12897L6.07859 7.53794C5.81207 7.27146 5.37813 7.27146 5.11162 7.53794L4.2164 8.43302C3.94989 8.6995 3.94989 9.13338 4.2164 9.39986L4.80752 9.99089C4.71526 10.2164 4.64009 10.4487 4.58884 10.6878H3.68337C3.30752 10.6878 3 10.9953 3 11.3711V12.6352C3 13.011 3.30752 13.3184 3.68337 13.3184H4.58542C4.64009 13.5576 4.71185 13.7899 4.8041 14.0154L4.21298 14.6064C3.94647 14.8729 3.94647 15.3068 4.21298 15.5732L5.1082 16.4649C5.37472 16.7314 5.80866 16.7314 6.07517 16.4649L6.66629 15.8739C6.8918 15.9661 7.12415 16.0413 7.36333 16.0925V16.9979C7.36333 17.3737 7.67084 17.6811 8.0467 17.6811H9.31093C9.68679 17.6811 9.99431 17.3737 9.99431 16.9979V16.0925C10.2335 16.0379 10.4658 15.9661 10.6913 15.8739L11.2825 16.4649C11.549 16.7314 11.9829 16.7314 12.2494 16.4649L13.1412 15.5732C13.4077 15.3068 13.4077 14.8729 13.1412 14.6064L12.5501 14.0154C12.6424 13.7899 12.7175 13.5576 12.7688 13.3184H13.6743C14.0501 13.3184 14.3576 13.011 14.3576 12.6352V11.3711C14.3576 10.9953 14.0501 10.6878 13.6743 10.6878H12.7688C12.7141 10.4487 12.6424 10.2164 12.5501 9.99089L13.1412 9.39986C13.4077 9.13338 13.4077 8.6995 13.1412 8.43302L12.2494 7.54135C11.9829 7.27488 11.549 7.27488 11.2825 7.54135L10.6913 8.13238C10.4658 8.04014 10.2335 7.96498 9.99431 7.91374V7.0084C9.99772 6.62918 9.6902 6.32171 9.31435 6.32171Z" fill="#86888C"/>
<path d="M8.68224 14.1144C7.31892 14.1144 6.56721 13.3628 6.56721 11.9997C6.56721 10.6366 7.31892 9.88498 8.68224 9.88498C10.0456 9.88498 10.7973 10.6366 10.7973 11.9997C10.7973 13.3628 10.0456 14.1144 8.68224 14.1144ZM8.68224 10.5683C7.70502 10.5683 7.25058 11.0226 7.25058 11.9997C7.25058 12.9768 7.70502 13.4312 8.68224 13.4312C9.65946 13.4312 10.1139 12.9768 10.1139 11.9997C10.1139 11.0226 9.65946 10.5683 8.68224 10.5683Z" fill="#86888C"/>
</svg>
