<svg width="40" height="40" viewBox="0 0 40 40" fill="none" xmlns="http://www.w3.org/2000/svg">
<path fill-rule="evenodd" clip-rule="evenodd" d="M29.0603 31.3704C30.9667 31.3704 37.1716 30.8011 37.1716 23.4419C37.1716 16.5267 31.6979 15.6231 29.3423 15.5605C29.0028 15.55 28.7103 15.3202 28.6215 14.9964C26.9606 8.83327 19.9775 8.51989 18.5986 8.51989C16.1543 8.51989 8.18923 9.22499 8.18923 18.2973L8.19968 18.5062C8.19968 18.8457 7.97509 19.1487 7.64082 19.2374C4.9092 20.0104 3.52511 22.0161 3.52511 25.1969C3.52511 30.8638 7.96465 31.4749 9.87103 31.4749L29.0603 31.3704ZM29.9482 14.0719C32.591 14.2704 38.7071 15.5866 38.7071 23.4472C38.7071 32.4411 30.6742 32.8955 29.0655 32.8955L9.8867 33C6.07393 33 2 30.9526 2 25.2021C2 20.5014 4.7055 18.6681 6.66412 17.9578C6.87304 7.53274 16.6296 7 18.6039 7C20.1394 7 27.7545 7.34994 29.9482 14.0719ZM20.3536 22.9823C21.7794 22.9823 22.4428 22.3242 22.4428 20.9088C22.4428 19.4934 21.7794 18.8301 20.3536 18.8301C18.9277 18.8301 18.2644 19.4881 18.2644 20.9088C18.2644 22.319 18.9277 22.9823 20.3536 22.9823ZM20.3536 17.3049C22.6203 17.3049 23.9731 18.6525 23.9731 20.9036C23.9731 23.1547 22.6203 24.5022 20.3536 24.5022C18.0868 24.5022 16.734 23.1547 16.734 20.9036C16.734 18.6525 18.0868 17.3049 20.3536 17.3049ZM25.5452 21.4207H26.9188L26.8771 20.3499L25.5452 20.3917C25.1691 20.3917 24.8453 20.1201 24.7879 19.7493C24.7043 19.2479 24.5685 18.7987 24.3753 18.4174C24.229 18.125 24.2865 17.7698 24.5215 17.54L25.54 16.5319L24.7252 15.7642L23.7485 16.7722C23.5187 17.002 23.1635 17.0595 22.8658 16.9184C22.4532 16.7147 22.0249 16.5842 21.5183 16.5058C21.1475 16.4484 20.8706 16.1298 20.8706 15.7537V14.3905L19.7947 14.4323L19.8313 15.7589C19.8313 16.135 19.5597 16.4536 19.1836 16.511C18.677 16.5894 18.2278 16.7304 17.8413 16.9184C17.5436 17.0647 17.1937 17.0072 16.9586 16.7722L15.9401 15.7642L15.1671 16.5737L16.1804 17.54C16.4259 17.7802 16.4781 18.1563 16.3057 18.454C16.1595 18.7204 15.9976 19.2427 15.914 19.7597C15.8566 20.1306 15.5327 20.3969 15.1567 20.3969H13.783L13.8196 21.4677L15.1515 21.4311C15.5275 21.4311 15.8513 21.7027 15.9088 22.0735C15.9924 22.5854 16.1491 23.1129 16.3005 23.3793C16.4677 23.677 16.4154 24.053 16.1752 24.2933L15.1619 25.3013L15.9767 26.0691L16.9482 25.0611C17.0944 24.9148 17.2929 24.8365 17.4914 24.8365C17.6063 24.8365 17.7212 24.8626 17.8309 24.9148C18.2226 25.1081 18.6718 25.2491 19.1732 25.3274C19.544 25.3849 19.8208 25.7035 19.8208 26.0795V27.4427L20.8602 27.4062V26.0639C20.8602 25.6878 21.137 25.3692 21.5078 25.3118C22.0145 25.2334 22.4428 25.0976 22.8554 24.8992C23.1479 24.7581 23.503 24.8156 23.7381 25.0454L24.7565 26.0534L25.5295 25.2439L24.5111 24.2724C24.276 24.0426 24.2186 23.6874 24.3648 23.3949C24.5581 23.0137 24.6939 22.5645 24.7774 22.0631C24.8453 21.6922 25.1691 21.4207 25.5452 21.4207ZM26.9188 18.8666C27.7441 18.8666 28.4126 19.5299 28.4126 20.3499V21.4572C28.4126 22.2772 27.7441 22.9405 26.9188 22.9405H26.1667C26.1093 23.1547 26.0466 23.3636 25.9683 23.5569L26.6159 24.1993C26.898 24.4761 27.0546 24.8521 27.0546 25.2543C27.0546 25.6513 26.898 26.0273 26.6159 26.3094L25.8011 27.1189C25.2162 27.7039 24.2603 27.7039 23.6754 27.1189L23.0277 26.4765C22.8293 26.5548 22.6203 26.6175 22.4062 26.675V27.4166C22.4062 28.2366 21.7376 28.9 20.9124 28.9H19.7999C18.9747 28.9 18.3062 28.2366 18.3062 27.4166V26.6697C18.092 26.6123 17.8831 26.5496 17.6846 26.4765L17.037 27.1189C16.7549 27.401 16.3789 27.5577 15.9767 27.5577H15.9715C15.5693 27.5577 15.1933 27.4062 14.906 27.1189L14.0912 26.3094C13.8092 26.0273 13.6525 25.6513 13.6525 25.2543C13.6525 24.8521 13.8092 24.4761 14.0964 24.1941L14.7336 23.5569C14.6553 23.3427 14.5926 23.1286 14.5456 22.9301H13.7935C12.9683 22.9301 12.2997 22.2616 12.2997 21.4468V20.3395C12.2997 19.5195 12.9735 18.8562 13.7935 18.8562H14.5456C14.5926 18.6629 14.6553 18.4436 14.7336 18.2294L14.0912 17.5922C13.8092 17.3102 13.6525 16.9341 13.6525 16.5372C13.6525 16.1402 13.8092 15.7642 14.0912 15.4821L14.906 14.6726C15.188 14.3905 15.5693 14.2338 15.9715 14.2338H15.9767C16.3789 14.2338 16.7549 14.3905 17.037 14.6726L17.6846 15.315C17.8831 15.2419 18.092 15.174 18.3062 15.1217V14.3748C18.3062 13.5548 18.9799 12.8915 19.7999 12.8915H20.9124C21.7376 12.8915 22.4062 13.5548 22.4062 14.3748V15.1217C22.6203 15.1792 22.8293 15.2419 23.0277 15.3202L23.6754 14.6778C24.2603 14.0928 25.2162 14.0928 25.8011 14.6778L26.6159 15.4873C26.9032 15.7694 27.0546 16.1454 27.0546 16.5424C27.0546 16.9393 26.898 17.3154 26.6159 17.5974L25.9683 18.2399C26.0414 18.4383 26.1093 18.6472 26.1667 18.8562H26.9188V18.8666Z" fill="#86888C"/>
</svg>
