<svg width="24" height="24" viewBox="0 0 24 24" fill="none" xmlns="http://www.w3.org/2000/svg">
<path d="M17.7466 22H10.4431C9.40092 22 8.65205 21.7552 8.15661 21.2541C7.66117 20.753 7.42483 19.9957 7.42483 18.9395V14.9907C7.42483 14.8342 7.55297 14.706 7.70957 14.706C7.86618 14.706 7.99431 14.8342 7.99431 14.9907V18.9395C7.99431 19.8391 8.17939 20.4655 8.56379 20.8555C8.94818 21.2456 9.56037 21.4335 10.4431 21.4335H17.7466C18.6293 21.4335 19.2443 21.2456 19.6259 20.8555C20.0074 20.4655 20.1953 19.8391 20.1953 18.9395V5.0605C20.1953 3.3153 19.4636 2.5694 17.7466 2.5694H10.4431C8.70331 2.5694 7.99431 3.28968 7.99431 5.0605V5.6669C7.99431 5.82349 7.86618 5.9516 7.70957 5.9516C7.55297 5.9516 7.42483 5.82349 7.42483 5.6669V5.0605C7.42483 2.97367 8.3844 2 10.4431 2H17.7466C19.7768 2 20.7648 3.00214 20.7648 5.0605V18.9395C20.7648 19.9957 20.5256 20.753 20.0302 21.2541C19.5347 21.7552 18.7887 22 17.7466 22Z" fill="#86888C"/>
<path d="M14.0962 17.926C14.6088 17.926 14.9419 18.1964 14.9419 18.7744C14.9419 19.0534 14.865 19.2584 14.7284 19.3979C14.5803 19.5488 14.3639 19.6228 14.0962 19.6228C13.8286 19.6228 13.6122 19.5488 13.4641 19.3979C13.3274 19.2584 13.2506 19.0505 13.2506 18.7744C13.2506 18.1964 13.5837 17.926 14.0962 17.926ZM8.26196 6.17082V7.40641C8.75171 7.4605 9.17597 7.58861 9.5262 7.79929L10.3092 7.01637L11.0524 7.75943L10.2694 8.54235C10.4772 8.88399 10.611 9.30534 10.6623 9.80641H11.8981V10.8598H10.6623C10.6082 11.3609 10.4744 11.7822 10.2694 12.1238L11.0524 12.9068L10.3092 13.6527L9.5262 12.8698C9.17597 13.0804 8.75456 13.2114 8.26196 13.2626V14.4982H7.20843V13.2626C6.71868 13.2085 6.29442 13.0804 5.94419 12.8698L5.16116 13.6527L4.41515 12.9068L5.19818 12.1238C4.99032 11.7822 4.85934 11.3609 4.80524 10.8598H3.56948V9.80641H4.80524C4.85934 9.30534 4.99317 8.88399 5.19818 8.54235L4.418 7.75943L5.16401 7.01637L5.94704 7.79929C6.29727 7.58861 6.71868 7.45765 7.21128 7.40641V6.17082H8.26196ZM8.26196 5.60142H7.20843C6.89522 5.60142 6.63895 5.85765 6.63895 6.17082V6.92527C6.43964 6.97082 6.24601 7.0306 6.05809 7.10747L5.56549 6.61495C5.34339 6.39288 4.98178 6.39288 4.75968 6.61495L4.01367 7.36085C3.79157 7.58292 3.79157 7.94448 4.01367 8.16655L4.50626 8.65907C4.42939 8.84698 4.36674 9.04057 4.32403 9.23986H3.56948C3.25626 9.23986 3 9.49609 3 9.80925V10.8626C3 11.1758 3.25626 11.432 3.56948 11.432H4.32118C4.36674 11.6313 4.42654 11.8249 4.50342 12.0128L4.01082 12.5053C3.78872 12.7274 3.78872 13.089 4.01082 13.311L4.75683 14.0541C4.97893 14.2762 5.34055 14.2762 5.56264 14.0541L6.05524 13.5616C6.24317 13.6384 6.43679 13.7011 6.63611 13.7438V14.4982C6.63611 14.8114 6.89237 15.0676 7.20558 15.0676H8.25911C8.57232 15.0676 8.82859 14.8114 8.82859 14.4982V13.7438C9.0279 13.6982 9.22153 13.6384 9.40945 13.5616L9.90205 14.0541C10.1241 14.2762 10.4858 14.2762 10.7079 14.0541L11.451 13.311C11.6731 13.089 11.6731 12.7274 11.451 12.5053L10.9584 12.0128C11.0353 11.8249 11.0979 11.6313 11.1407 11.432H11.8952C12.2084 11.432 12.4647 11.1758 12.4647 10.8626V9.80925C12.4647 9.49609 12.2084 9.23986 11.8952 9.23986H11.1407C11.0951 9.04057 11.0353 8.84698 10.9584 8.65907L11.451 8.16655C11.6731 7.94448 11.6731 7.58292 11.451 7.36085L10.7079 6.61779C10.4858 6.39573 10.1241 6.39573 9.90205 6.61779L9.40945 7.11032C9.22153 7.03345 9.0279 6.97082 8.82859 6.92811V6.17367C8.83144 5.85765 8.57517 5.60142 8.26196 5.60142Z" fill="#86888C"/>
<path d="M7.7352 12.0954C6.5991 12.0954 5.97267 11.469 5.97267 10.3331C5.97267 9.19715 6.5991 8.57082 7.7352 8.57082C8.87131 8.57082 9.49773 9.19715 9.49773 10.3331C9.49773 11.469 8.87131 12.0954 7.7352 12.0954ZM7.7352 9.14021C6.92085 9.14021 6.54215 9.51886 6.54215 10.3331C6.54215 11.1473 6.92085 11.526 7.7352 11.526C8.54955 11.526 8.92826 11.1473 8.92826 10.3331C8.92826 9.51886 8.54955 9.14021 7.7352 9.14021Z" fill="#86888C"/>
</svg>
