<svg width="28" height="28" viewBox="0 0 28 28" fill="none" xmlns="http://www.w3.org/2000/svg">
<path d="M18.0386 15.7004C17.2261 15.7004 16.5815 15.9232 16.1186 16.3621C15.9541 16.5164 15.8204 16.6981 15.7106 16.8969L11.8364 14.9598C11.9186 14.6718 11.9598 14.3529 11.9598 13.9998C11.9598 13.6501 11.9186 13.3312 11.8398 13.0466L15.7175 11.1095C15.8135 11.2844 15.9301 11.4421 16.0672 11.5826C16.5335 12.0592 17.1952 12.2992 18.0421 12.2992C18.8889 12.2992 19.5506 12.0592 20.0169 11.5826C20.4695 11.1198 20.6992 10.4615 20.6992 9.63178C20.6992 8.76436 20.4524 8.08893 19.9621 7.62607C19.4992 7.18721 18.8546 6.96436 18.0421 6.96436C17.2295 6.96436 16.5849 7.18721 16.1221 7.62607C15.6318 8.09236 15.3849 8.76778 15.3849 9.63178C15.3849 9.9335 15.4158 10.2078 15.4741 10.4649L11.5689 12.4192C11.4729 12.2615 11.3564 12.1209 11.2261 11.9975C10.7632 11.5586 10.1186 11.3358 9.30607 11.3358C8.4935 11.3358 7.84893 11.5586 7.38607 11.9975C6.89578 12.4638 6.64893 13.1392 6.64893 14.0032C6.64893 14.8329 6.87864 15.4912 7.33121 15.9541C7.7975 16.4306 8.45921 16.6706 9.30607 16.6706C10.1529 16.6706 10.8146 16.4306 11.2809 15.9541C11.3872 15.8444 11.4832 15.7244 11.5655 15.5941L15.4741 17.5484C15.4158 17.7986 15.3849 18.0764 15.3849 18.3712C15.3849 19.2009 15.6146 19.8592 16.0672 20.3221C16.5335 20.7986 17.1952 21.0386 18.0421 21.0386C18.8889 21.0386 19.5506 20.7986 20.0169 20.3221C20.4695 19.8592 20.6992 19.2009 20.6992 18.3712C20.6992 17.5038 20.4524 16.8284 19.9621 16.3655C19.4958 15.9232 18.8512 15.7004 18.0386 15.7004ZM18.0386 7.65007C19.3484 7.65007 20.0101 8.31864 20.0101 9.63178C20.0101 10.2764 19.8455 10.7735 19.5232 11.1026C19.1906 11.4421 18.6935 11.6135 18.0386 11.6135C17.3838 11.6135 16.8866 11.4421 16.5541 11.1026C16.2318 10.7701 16.0672 10.2764 16.0672 9.63178C16.0672 8.31864 16.7324 7.65007 18.0386 7.65007ZM9.30264 15.9849C8.64778 15.9849 8.15064 15.8135 7.81807 15.4741C7.49578 15.1415 7.33121 14.6478 7.33121 14.0032C7.33121 12.6866 7.99293 12.0215 9.30264 12.0215C10.1975 12.0215 10.7906 12.3335 11.0752 12.9541C11.0821 12.9815 11.0889 13.0089 11.1026 13.0364C11.1095 13.0466 11.1164 13.0569 11.1232 13.0706C11.2226 13.3346 11.2741 13.6466 11.2741 14.0066C11.2741 14.3838 11.2192 14.7061 11.1061 14.9804C11.1061 14.9838 11.1026 14.9838 11.1026 14.9872C11.0958 15.0044 11.0889 15.0181 11.0821 15.0352C11.0066 15.2066 10.9072 15.3575 10.7838 15.4809C10.4546 15.8135 9.9575 15.9849 9.30264 15.9849ZM19.5232 19.8421C19.1906 20.1815 18.6935 20.3529 18.0386 20.3529C17.3838 20.3529 16.8866 20.1815 16.5541 19.8421C16.2318 19.5095 16.0672 19.0158 16.0672 18.3712C16.0672 18.0421 16.1084 17.7541 16.1906 17.5038C16.1975 17.4866 16.2044 17.4729 16.2078 17.4558C16.4649 16.7461 17.0786 16.3861 18.0386 16.3861C19.3484 16.3861 20.0101 17.0546 20.0101 18.3678C20.0101 19.0158 19.8455 19.5095 19.5232 19.8421Z" fill="#86888C"/>
<path d="M14 26C10.1566 26 7.184 25.0126 5.16114 23.0651C3.06286 21.0423 2 17.9943 2 14C2 10.0091 3.06286 6.95771 5.16114 4.93486C7.18057 2.98743 10.1566 2 14 2C17.8434 2 20.816 2.98743 22.8389 4.93486C24.9371 6.95771 26 10.0057 26 14C26 17.9943 24.9371 21.0423 22.8389 23.0651C20.816 25.0126 17.8434 26 14 26ZM14 2.68571C10.3383 2.68571 7.52686 3.608 5.63771 5.42857C3.68 7.31429 2.68571 10.2011 2.68571 14C2.68571 17.7989 3.68 20.6857 5.63771 22.5714C7.52686 24.392 10.3417 25.3143 14 25.3143C17.6583 25.3143 20.4731 24.392 22.3623 22.5714C24.32 20.6857 25.3143 17.7989 25.3143 14C25.3143 10.2011 24.32 7.31429 22.3623 5.42857C20.4731 3.61143 17.6583 2.68571 14 2.68571Z" fill="#86888C"/>
</svg>
