<svg width="24" height="24" viewBox="0 0 24 24" fill="none" xmlns="http://www.w3.org/2000/svg">
<path d="M15.3655 13.4172C14.6883 13.4172 14.1512 13.6029 13.7655 13.9686C13.6283 14.0972 13.5169 14.2486 13.4255 14.4144L10.1969 12.8001C10.2655 12.5601 10.2997 12.2944 10.2997 12.0001C10.2997 11.7086 10.2655 11.4429 10.1997 11.2058L13.4312 9.59149C13.5112 9.73721 13.6083 9.86864 13.7226 9.98578C14.1112 10.3829 14.6626 10.5829 15.3683 10.5829C16.074 10.5829 16.6255 10.3829 17.014 9.98578C17.3912 9.60006 17.5826 9.05149 17.5826 8.36006C17.5826 7.63721 17.3769 7.07435 16.9683 6.68864C16.5826 6.32292 16.0455 6.13721 15.3683 6.13721C14.6912 6.13721 14.154 6.32292 13.7683 6.68864C13.3597 7.07721 13.154 7.64006 13.154 8.36006C13.154 8.61149 13.1797 8.84006 13.2283 9.05435L9.97402 10.6829C9.89402 10.5515 9.79688 10.4344 9.68831 10.3315C9.30259 9.96578 8.76545 9.78006 8.08831 9.78006C7.41117 9.78006 6.87402 9.96578 6.48831 10.3315C6.07974 10.7201 5.87402 11.2829 5.87402 12.0029C5.87402 12.6944 6.06545 13.2429 6.44259 13.6286C6.83117 14.0258 7.38259 14.2258 8.08831 14.2258C8.79402 14.2258 9.34545 14.0258 9.73402 13.6286C9.8226 13.5372 9.90259 13.4372 9.97117 13.3286L13.2283 14.9572C13.1797 15.1658 13.154 15.3972 13.154 15.6429C13.154 16.3344 13.3455 16.8829 13.7226 17.2686C14.1112 17.6658 14.6626 17.8658 15.3683 17.8658C16.074 17.8658 16.6255 17.6658 17.014 17.2686C17.3912 16.8829 17.5826 16.3344 17.5826 15.6429C17.5826 14.9201 17.3769 14.3572 16.9683 13.9715C16.5797 13.6029 16.0426 13.4172 15.3655 13.4172ZM15.3655 6.70864C16.4569 6.70864 17.0083 7.26578 17.0083 8.36006C17.0083 8.89721 16.8712 9.31149 16.6026 9.58578C16.3255 9.86864 15.9112 10.0115 15.3655 10.0115C14.8197 10.0115 14.4055 9.86864 14.1283 9.58578C13.8597 9.30864 13.7226 8.89721 13.7226 8.36006C13.7226 7.26578 14.2769 6.70864 15.3655 6.70864ZM8.08545 13.6543C7.53974 13.6543 7.12545 13.5115 6.84831 13.2286C6.57974 12.9515 6.44259 12.5401 6.44259 12.0029C6.44259 10.9058 6.99402 10.3515 8.08545 10.3515C8.83117 10.3515 9.32545 10.6115 9.5626 11.1286C9.56831 11.1515 9.57402 11.1743 9.58545 11.1972C9.59117 11.2058 9.59688 11.2144 9.60259 11.2258C9.68545 11.4458 9.72831 11.7058 9.72831 12.0058C9.72831 12.3201 9.68259 12.5886 9.58831 12.8172C9.58831 12.8201 9.58545 12.8201 9.58545 12.8229C9.57974 12.8372 9.57402 12.8486 9.56831 12.8629C9.50545 13.0058 9.4226 13.1315 9.31974 13.2344C9.04545 13.5115 8.63117 13.6543 8.08545 13.6543ZM16.6026 16.8686C16.3255 17.1515 15.9112 17.2944 15.3655 17.2944C14.8197 17.2944 14.4055 17.1515 14.1283 16.8686C13.8597 16.5915 13.7226 16.1801 13.7226 15.6429C13.7226 15.3686 13.7569 15.1286 13.8255 14.9201C13.8312 14.9058 13.8369 14.8944 13.8397 14.8801C14.054 14.2886 14.5655 13.9886 15.3655 13.9886C16.4569 13.9886 17.0083 14.5458 17.0083 15.6401C17.0083 16.1801 16.8712 16.5915 16.6026 16.8686Z" fill="#86888C"/>
<path d="M12 22C8.79714 22 6.32 21.1771 4.63429 19.5543C2.88571 17.8686 2 15.3286 2 12C2 8.67429 2.88571 6.13143 4.63429 4.44571C6.31714 2.82286 8.79714 2 12 2C15.2029 2 17.68 2.82286 19.3657 4.44571C21.1143 6.13143 22 8.67143 22 12C22 15.3286 21.1143 17.8686 19.3657 19.5543C17.68 21.1771 15.2029 22 12 22ZM12 2.57143C8.94857 2.57143 6.60571 3.34 5.03143 4.85714C3.4 6.42857 2.57143 8.83429 2.57143 12C2.57143 15.1657 3.4 17.5714 5.03143 19.1429C6.60571 20.66 8.95143 21.4286 12 21.4286C15.0486 21.4286 17.3943 20.66 18.9686 19.1429C20.6 17.5714 21.4286 15.1657 21.4286 12C21.4286 8.83429 20.6 6.42857 18.9686 4.85714C17.3943 3.34286 15.0486 2.57143 12 2.57143Z" fill="#86888C"/>
</svg>
