<svg width="28" height="28" viewBox="0 0 28 28" fill="none" xmlns="http://www.w3.org/2000/svg">
<path fill-rule="evenodd" clip-rule="evenodd" d="M22.3391 14.181C23.7836 14.181 25.0027 13.4434 25.0027 12.5726C25.0027 12.2243 24.8013 11.9477 24.6339 11.7735L24.6305 11.7701C24.4085 11.5379 24.2037 10.9369 23.6265 8.84698C23.5207 8.45768 23.4285 8.12302 23.3704 7.94203L21.8337 3.06556C21.8201 3.02799 21.7825 3.00067 21.7415 3.00067L6.26179 3.04507C6.22081 3.04507 6.18325 3.06897 6.16959 3.10654C5.96128 3.76903 5.65052 4.77301 5.31586 5.8487C4.36652 8.91186 3.68354 11.1042 3.55378 11.4081C3.47182 11.5891 3.3762 11.7599 3.26693 11.9238C3.0996 12.1902 3.00398 12.3472 3.00398 12.5658C3.00398 13.44 4.2231 14.1742 5.6676 14.1742C6.63743 14.1742 7.53555 13.843 8.01022 13.3137L8.16047 13.1463L8.45757 13.1122C8.62831 13.1122 8.78881 13.1839 8.90492 13.3137C9.37959 13.8464 10.2777 14.1742 11.2475 14.1742C12.2071 14.1742 13.1018 13.8498 13.5799 13.3239L13.7302 13.16L14.0238 13.1293C14.1912 13.1293 14.3483 13.201 14.461 13.3239C14.939 13.8498 15.8337 14.1742 16.7933 14.1742C17.7529 14.1742 18.6476 13.8498 19.1257 13.3239L19.2725 13.1634L19.5628 13.1293H19.5662C19.7301 13.1293 19.8906 13.1976 20.0033 13.3205C20.4848 13.8532 21.3795 14.1776 22.3391 14.181ZM23.5002 24.214V15.0348C23.1177 15.127 22.7284 15.1748 22.3357 15.1782C21.2532 15.1782 20.2492 14.847 19.5628 14.2835C18.8764 14.8504 17.869 15.1782 16.7865 15.1782C15.704 15.1782 14.7 14.8504 14.0136 14.2835C13.3306 14.8504 12.3232 15.1782 11.2373 15.1782C10.1479 15.1782 9.13372 14.8435 8.44732 14.2698C7.76093 14.8435 6.75012 15.1782 5.65735 15.1782C5.24757 15.1782 4.86168 15.1201 4.49287 15.0348V24.2106C4.49287 24.6443 4.87534 24.9994 5.34318 24.9994H10.8173V18.9107C10.8173 18.197 11.4183 17.6164 12.1559 17.6164H15.8645C16.6055 17.6164 17.2065 18.197 17.2065 18.9107V24.9994H22.6533C23.1211 24.9994 23.5036 24.6477 23.5002 24.214ZM16.206 24.9994V18.9107C16.206 18.7468 16.0523 18.6136 15.8645 18.6136H12.1627C11.9749 18.6136 11.8212 18.7468 11.8212 18.9107V24.9994H16.206ZM25.9999 12.5692C25.9999 13.4503 25.4125 14.2084 24.5008 14.6796V24.214C24.5008 25.1975 23.6709 26 22.6533 26H5.3466C4.32554 26 3.49572 25.1975 3.49572 24.214V14.6796C2.58736 14.2118 2 13.4503 2 12.5692C2 12.0501 2.23221 11.6848 2.41662 11.3911C2.49175 11.2716 2.57029 11.152 2.62834 11.0154C2.74786 10.7388 3.67671 7.74397 4.35286 5.55502C4.68752 4.4725 4.99828 3.47193 5.21 2.7992C5.36026 2.34843 5.77688 2.04792 6.25155 2.0445L21.7347 2.00011C22.1991 1.99328 22.6396 2.30404 22.7831 2.76163L24.3198 7.64152C24.3812 7.83275 24.4768 8.17766 24.5861 8.58403C24.7876 9.3114 25.2008 10.814 25.3647 11.0974C25.7813 11.5311 25.9999 12.0365 25.9999 12.5692Z" fill="#86888C"/>
</svg>
