<svg width="40" height="40" viewBox="0 0 40 40" fill="none" xmlns="http://www.w3.org/2000/svg">
<path fill-rule="evenodd" clip-rule="evenodd" d="M19.9949 37.4991C30.9465 37.4991 36.494 31.9516 36.494 21.0051C36.494 10.0535 30.9414 4.50598 19.9949 4.50598C9.04838 4.50598 3.50085 10.0586 3.50085 21.0051C3.50085 31.9516 9.0535 37.4991 19.9949 37.4991ZM19.9949 3C31.7763 3 38 9.2288 38 21.0051C38 32.7763 31.7763 39 19.9949 39C8.22368 39 2 32.7763 2 21.0051C2 9.2288 8.22368 3 19.9949 3ZM23.2271 21.9169L28.1446 17.1633L23.2271 12.3944V14.1924C23.2271 14.6073 22.7763 15.0376 22.3665 15.0376H14.9801C14.9135 15.0376 14.8469 15.0632 14.7957 15.1144C14.7445 15.1605 14.7188 15.2271 14.7188 15.2988V30.0154H18.6272V20.037C18.6272 19.6221 18.9653 19.2891 19.3751 19.2891H22.3563C22.5766 19.3045 22.7866 19.4018 22.9402 19.5555C23.0837 19.6989 23.2168 19.9345 23.2168 20.1343C23.2271 20.1343 23.2271 21.9169 23.2271 21.9169ZM23.6932 10.7604L29.4047 16.2977C29.881 16.7382 29.9118 17.4809 29.4713 17.9573C29.4405 17.9932 29.4047 18.029 29.3637 18.0598L23.7445 23.4997C23.3193 23.848 22.8275 23.9044 22.4075 23.7097C21.9926 23.5151 21.7211 23.1002 21.7211 22.6392V20.79H20.1332V30.7632C20.1332 31.1781 19.7951 31.5111 19.3853 31.5111H13.9659C13.5509 31.5111 13.218 31.173 13.218 30.7632V15.2937C13.218 14.8224 13.4024 14.3819 13.7353 14.0489C14.0683 13.716 14.5088 13.5316 14.9801 13.5316L21.7262 13.5367V11.6722C21.7262 11.2112 21.9875 10.8065 22.4075 10.6067C22.8275 10.4018 23.3244 10.4633 23.6932 10.7604Z" fill="#86888C"/>
</svg>
