<svg width="20" height="20" viewBox="0 0 20 20" fill="none" xmlns="http://www.w3.org/2000/svg">
<path fill-rule="evenodd" clip-rule="evenodd" d="M9.99772 17.333C14.8651 17.333 17.3307 14.8674 17.3307 10.0023C17.3307 5.13489 14.8628 2.66932 9.99772 2.66932C5.13261 2.66932 2.66705 5.13717 2.66705 10.0023C2.66705 14.8674 5.13489 17.333 9.99772 17.333ZM9.99772 2C15.2339 2 18 4.76836 18 10.0023C18 15.2339 15.2339 18 9.99772 18C4.76608 18 2 15.2339 2 10.0023C2 4.76836 4.76608 2 9.99772 2ZM11.4343 10.4075L13.6198 8.29482L11.4343 6.1753V6.97439C11.4343 7.15879 11.2339 7.35003 11.0518 7.35003H7.76892C7.73933 7.35003 7.70973 7.36141 7.68697 7.38418C7.6642 7.40467 7.65282 7.43426 7.65282 7.46614V14.0068H9.38987V9.572C9.38987 9.38759 9.54013 9.23961 9.72225 9.23961H11.0472C11.1451 9.24644 11.2385 9.2897 11.3068 9.358C11.3705 9.42174 11.4297 9.52647 11.4297 9.61525C11.4343 9.61525 11.4343 10.4075 11.4343 10.4075ZM11.6414 5.44906L14.1799 7.91007C14.3916 8.10586 14.4052 8.43597 14.2094 8.6477C14.1958 8.66363 14.1799 8.67957 14.1616 8.69323L11.6642 11.111C11.4752 11.2658 11.2567 11.2908 11.07 11.2043C10.8856 11.1178 10.7649 10.9334 10.7649 10.7285V9.90666H10.0592V14.3392C10.0592 14.5236 9.90894 14.6716 9.72681 14.6716H7.31816C7.13375 14.6716 6.98577 14.5213 6.98577 14.3392V7.46386C6.98577 7.25441 7.06773 7.05862 7.21571 6.91064C7.36369 6.76266 7.55948 6.68071 7.76892 6.68071L10.7672 6.68298V5.8543C10.7672 5.6494 10.8833 5.46955 11.07 5.38076C11.2567 5.2897 11.4775 5.31702 11.6414 5.44906Z" fill="#86888C"/>
</svg>
