<svg width="24" height="24" viewBox="0 0 24 24" fill="none" xmlns="http://www.w3.org/2000/svg">
<path fill-rule="evenodd" clip-rule="evenodd" d="M7.79666 13.0488C8.3821 13.0374 9.74813 12.8183 9.74813 10.9996C9.74813 10.8686 9.74248 10.7434 9.72834 10.6296C9.55864 9.14103 8.3114 8.95033 7.78252 8.93895L7.56192 8.9361C7.03021 8.9418 5.78014 9.1211 5.64156 10.6808C5.63307 10.7747 5.63024 10.8772 5.63024 10.9853C5.63024 12.8211 6.99627 13.0431 7.58454 13.0517L7.79666 13.0488ZM10.5994 10.5271C10.6164 10.6751 10.6249 10.8316 10.6249 10.9967C10.6249 13.12 9.10896 13.8998 7.80797 13.9226H7.56475C6.20155 13.9027 4.74501 13.1171 4.74501 10.9825C4.74501 10.8487 4.75067 10.7235 4.76198 10.6011C4.92602 8.74256 6.30902 8.06802 7.54778 8.05664L7.79949 8.05948C9.02128 8.08795 10.3958 8.7511 10.5994 10.5271ZM16.6009 13.0488C17.1835 13.0374 18.5524 12.8183 18.5524 10.9996C18.5524 10.8686 18.5439 10.7434 18.5298 10.6267C18.3601 9.14103 17.1128 8.95033 16.5839 8.93895L16.3633 8.9361H16.3605C15.8316 8.9418 14.5787 9.1211 14.443 10.6808C14.4345 10.7747 14.4288 10.8772 14.4288 10.9853C14.4288 12.8211 15.7949 13.0431 16.3831 13.0517L16.6009 13.0488ZM19.4037 10.5271C19.4206 10.678 19.4291 10.8316 19.4291 10.9967C19.4291 13.12 17.9132 13.8998 16.6122 13.9226H16.369C15.0058 13.9027 13.5493 13.1171 13.5493 10.9825C13.5493 10.8487 13.5549 10.7235 13.5662 10.6011C13.7303 8.73972 15.1133 8.06802 16.352 8.05664L16.6037 8.05948C17.8255 8.08795 19.2 8.7511 19.4037 10.5271ZM11.4536 14.9671C11.677 15.0611 11.7816 15.3172 11.6883 15.5392L11.3206 16.4073C11.216 16.6264 10.9558 16.7204 10.7352 16.6179C10.5315 16.5211 10.4326 16.2821 10.5118 16.0686L10.8794 15.2005C10.9756 14.9785 11.2329 14.8732 11.4536 14.9671ZM13.0769 15.2005L13.4446 16.0686C13.5379 16.2906 13.4333 16.5467 13.2127 16.6407H13.2099C12.9864 16.7346 12.7319 16.6293 12.6357 16.4073L12.2681 15.5392C12.1747 15.3172 12.2766 15.0611 12.5 14.9643C12.5 14.9643 12.5028 14.9643 12.5028 14.9614C12.7234 14.8732 12.9808 14.9757 13.0769 15.2005ZM17.0421 18.0495C19.2312 16.6976 20.3426 14.3637 20.3426 11.1163C20.3426 3.63939 14.3214 2.92785 12.4745 2.888C12.2115 2.87946 11.923 2.87946 11.66 2.87946H11.6317C10.854 2.88231 8.86007 3.01323 7.09526 4.12039C4.95996 5.46094 3.87675 7.79764 3.87675 11.065C3.87675 14.3637 4.98541 16.7147 7.17445 18.0552L7.59303 18.3114V19.4584C7.59303 20.039 7.73727 20.4602 8.02575 20.7107C8.4019 21.0551 8.99583 21.1234 9.43137 21.1234H14.8191C15.4442 21.1234 15.9108 20.9868 16.1993 20.7221C16.485 20.4659 16.6235 20.0418 16.6235 19.4555V18.3C16.6264 18.3057 17.0421 18.0495 17.0421 18.0495ZM12.4943 2.00854C14.2761 2.04554 21.2222 2.75423 21.2222 11.1134C21.2222 15.3172 19.4716 17.5799 17.5059 18.7924V19.4584C17.5059 20.2923 17.274 20.9441 16.7961 21.3682C16.3379 21.7865 15.6761 22 14.822 22H9.42854C8.57159 22 7.90131 21.7865 7.44313 21.3682C6.95668 20.9412 6.71345 20.2923 6.71345 19.4555V18.7981C4.75067 17.597 3 15.3172 3 11.065C3 2.64039 9.79904 2.00854 11.6289 2C11.9089 2 12.2228 2 12.4943 2.00854Z" fill="#86888C"/>
</svg>
