<svg width="40" height="40" viewBox="0 0 40 40" fill="none" xmlns="http://www.w3.org/2000/svg">
<path fill-rule="evenodd" clip-rule="evenodd" d="M12.634 22.8879C13.6878 22.8674 16.1466 22.4729 16.1466 19.1992C16.1466 18.9636 16.1365 18.7382 16.111 18.5332C15.8056 15.8539 13.5605 15.5106 12.6085 15.4901L12.2115 15.485C11.2544 15.4952 9.00425 15.818 8.7548 18.6254C8.73953 18.7945 8.73444 18.9789 8.73444 19.1736C8.73444 22.478 11.1933 22.8776 12.2522 22.893L12.634 22.8879ZM17.679 18.3488C17.7095 18.6152 17.7248 18.897 17.7248 19.1941C17.7248 23.0159 14.9961 24.4197 12.6544 24.4607H12.2165C9.76278 24.4248 7.14102 23.0108 7.14102 19.1685C7.14102 18.9277 7.1512 18.7023 7.17157 18.482C7.46683 15.1366 9.95623 13.9224 12.186 13.9019L12.6391 13.9071C14.8383 13.9583 17.3124 15.152 17.679 18.3488ZM28.4816 22.8879C29.5303 22.8674 31.9943 22.4729 31.9943 19.1992C31.9943 18.9636 31.979 18.7382 31.9536 18.5281C31.6481 15.8539 29.4031 15.5106 28.4511 15.4901L28.054 15.485H28.0489C27.0969 15.4952 24.8417 15.818 24.5974 18.6254C24.5821 18.7945 24.5719 18.9789 24.5719 19.1736C24.5719 22.478 27.0308 22.8776 28.0896 22.893L28.4816 22.8879ZM33.5266 18.3488C33.5572 18.6203 33.5724 18.897 33.5724 19.1941C33.5724 23.0159 30.8438 24.4197 28.502 24.4607H28.0642C25.6104 24.4248 22.9887 23.0108 22.9887 19.1685C22.9887 18.9277 22.9989 18.7023 23.0192 18.482C23.3145 15.1315 25.8039 13.9224 28.0336 13.9019L28.4867 13.9071C30.686 13.9583 33.1601 15.152 33.5266 18.3488ZM19.2164 26.3408C19.6186 26.5099 19.8069 26.971 19.6389 27.3706L18.9771 28.9331C18.7888 29.3276 18.3204 29.4967 17.9233 29.3122C17.5568 29.138 17.3786 28.7077 17.5212 28.3235L18.183 26.7609C18.356 26.3613 18.8193 26.1718 19.2164 26.3408ZM22.1385 26.7609L22.8003 28.3235C22.9683 28.7231 22.7799 29.1841 22.3829 29.3532H22.3778C21.9756 29.5223 21.5174 29.3327 21.3443 28.9331L20.6825 27.3706C20.5145 26.971 20.6978 26.5099 21.1 26.3357C21.1 26.3357 21.1051 26.3357 21.1051 26.3306C21.5022 26.1718 21.9654 26.3562 22.1385 26.7609ZM29.2758 31.8891C33.2161 29.4557 35.2168 25.2547 35.2168 19.4093C35.2168 5.9509 24.3785 4.67013 21.0542 4.59841C20.5807 4.58304 20.0615 4.58304 19.588 4.58304H19.5371C18.1371 4.58816 14.5481 4.82382 11.3715 6.81671C7.52792 9.22969 5.57815 13.4357 5.57815 19.3171C5.57815 25.2547 7.57374 29.4864 11.514 31.8994L12.2675 32.3605V34.4251C12.2675 35.4702 12.5271 36.2284 13.0463 36.6792C13.7234 37.2991 14.7925 37.4221 15.5765 37.4221H25.2744C26.3995 37.4221 27.2395 37.1762 27.7587 36.6997C28.2729 36.2387 28.5224 35.4753 28.5224 34.42V32.34C28.5275 32.3502 29.2758 31.8891 29.2758 31.8891ZM21.0898 3.01537C24.297 3.08197 36.8 4.35762 36.8 19.4042C36.8 26.971 33.6488 31.0438 30.1107 33.2263V34.4251C30.1107 35.9261 29.6932 37.0993 28.8329 37.8627C28.0082 38.6158 26.8169 39 25.2795 39H15.5714C14.0289 39 12.8223 38.6158 11.9976 37.8627C11.122 37.0942 10.6842 35.9261 10.6842 34.42V33.2365C7.1512 31.0746 4 26.971 4 19.3171C4 4.1527 16.2383 3.01537 19.532 3C20.036 3 20.6011 3 21.0898 3.01537Z" fill="#86888C"/>
</svg>
