<svg width="40" height="40" viewBox="0 0 40 40" fill="none" xmlns="http://www.w3.org/2000/svg">
<path fill-rule="evenodd" clip-rule="evenodd" d="M36.5344 26.1656V9.78598C36.5344 7.53749 34.6321 5.70387 32.2939 5.70387H7.74292C5.40473 5.70387 3.49726 7.53237 3.49726 9.78598V26.1656C3.49726 28.1375 4.83044 29.7868 6.73791 30.1607C7.08659 30.2324 7.33784 30.5294 7.33784 30.8726V34.8369C7.33784 35.3337 7.8506 35.7998 8.389 35.7998C8.56846 35.7998 8.93765 35.7998 9.31197 35.3183L13.1884 30.5243C13.332 30.345 13.5525 30.2477 13.7781 30.2477H32.2836C34.6321 30.2426 36.5344 28.4141 36.5344 26.1656ZM32.2939 4.25439C35.4576 4.25439 38.0368 6.73336 38.0368 9.78598V26.1656C38.0368 29.2182 35.4576 31.6972 32.2939 31.6972H14.1524L10.5118 36.1993C9.97343 36.8959 9.26069 37.2544 8.39412 37.2544C7.00967 37.2544 5.84058 36.1481 5.84058 34.842V31.436C3.54854 30.7087 2 28.6241 2 26.1656V9.78598C2 6.73336 4.57919 4.25439 7.74292 4.25439H32.2939ZM10.6862 17.3765C11.9937 17.8836 13.6243 18.5085 13.6243 20.6289C13.6243 22.5035 12.2911 23.5791 9.97343 23.5791C8.81459 23.5791 7.81983 23.3281 7.41475 23.1796C7.15324 23.0874 7.00454 22.8108 7.0712 22.5445L7.16863 22.1501C7.20452 22.0016 7.30707 21.8786 7.44039 21.8069C7.57884 21.7301 7.73779 21.7147 7.88649 21.7608C9.27607 22.1859 10.9323 22.1655 11.5681 21.7455C11.7578 21.6277 12.0655 21.3255 12.0655 20.6494C12.0655 19.5943 11.3374 19.2614 10.0452 18.7646C8.77357 18.2729 7.19426 17.6582 7.19426 15.6556C7.19426 14.7951 7.49679 14.0781 8.07109 13.5864C9.04533 12.7515 10.8195 12.6235 12.7321 13.1613C13.0192 13.2381 13.1936 13.5249 13.1218 13.8169L13.0244 14.1959C12.9833 14.3393 12.891 14.4622 12.7577 14.5339C12.6244 14.6056 12.4706 14.6261 12.3219 14.5851C11.7681 14.4212 11.1989 14.3393 10.6195 14.3342C8.73767 14.3342 8.73767 15.2202 8.73767 15.5941C8.73767 16.5724 9.44528 16.8951 10.6862 17.3765ZM24.1102 13.0127C24.4179 13.0076 24.6691 13.2535 24.6743 13.5557V22.8415C24.6691 23.1489 24.4179 23.3896 24.1102 23.3845H23.7154C23.4078 23.3896 23.1565 23.1437 23.1514 22.8415V16.5417L20.6901 21.054C20.5876 21.2333 20.3978 21.346 20.1927 21.346H19.7723C19.562 21.346 19.3723 21.2333 19.2698 21.0489L16.906 16.598V22.8467C16.9008 23.154 16.6496 23.3947 16.3419 23.3896H15.9471C15.6394 23.3947 15.3882 23.1489 15.3831 22.8467V13.5608C15.3831 13.2586 15.6343 13.0179 15.9471 13.0179H16.3727C16.5829 13.0179 16.7778 13.1305 16.8752 13.3149L20.003 19.205L23.218 13.3047C23.3206 13.1254 23.5103 13.0127 23.7205 13.0127H24.1102ZM30.0531 17.3765C31.3607 17.8836 32.9913 18.5085 32.9913 20.6289C32.9913 22.5035 31.6581 23.5791 29.3404 23.5791C28.1816 23.5791 27.1868 23.3281 26.7817 23.1796C26.5202 23.0874 26.3715 22.8108 26.4382 22.5445L26.5356 22.1501C26.5715 22.0016 26.674 21.8786 26.8074 21.8069C26.9458 21.7301 27.1048 21.7147 27.2535 21.7608C28.643 22.1859 30.2993 22.1655 30.9351 21.7455C31.1248 21.6277 31.4325 21.3255 31.4325 20.6494C31.4325 19.5943 30.7043 19.2614 29.4122 18.7646C28.1405 18.2729 26.5561 17.6582 26.5561 15.6556C26.5561 14.7951 26.8586 14.0781 27.4381 13.5864C28.4123 12.7515 30.1864 12.6235 32.099 13.1613C32.3862 13.2381 32.5605 13.53 32.4887 13.8169L32.3913 14.1959C32.3503 14.3393 32.258 14.4622 32.1247 14.5339C31.9914 14.6056 31.8324 14.6261 31.6888 14.5851C31.1351 14.4212 30.5659 14.3393 29.9916 14.3342C28.1098 14.3342 28.1098 15.2202 28.1098 15.5941C28.0995 16.5724 28.8071 16.8951 30.0531 17.3765Z" fill="#86888C"/>
</svg>
