<svg width="28" height="28" viewBox="0 0 28 28" fill="none" xmlns="http://www.w3.org/2000/svg">
<path fill-rule="evenodd" clip-rule="evenodd" d="M25.0229 18.6075V7.68772C25.0229 6.18873 23.7547 4.96632 22.1959 4.96632H5.82861C4.26982 4.96632 2.99817 6.18532 2.99817 7.68772V18.6075C2.99817 19.9221 3.88696 21.0216 5.1586 21.2708C5.39106 21.3186 5.55856 21.5167 5.55856 21.7455V24.3883C5.55856 24.7195 5.9004 25.0303 6.25933 25.0303C6.37897 25.0303 6.6251 25.0303 6.87464 24.7093L9.45896 21.5133C9.55467 21.3938 9.70166 21.3289 9.85207 21.3289H22.1891C23.7547 21.3255 25.0229 20.1065 25.0229 18.6075ZM22.1959 4C24.3051 4 26.0245 5.65265 26.0245 7.68772V18.6075C26.0245 20.6426 24.3051 22.2952 22.1959 22.2952H10.1016L7.67455 25.2966C7.31562 25.761 6.84046 26 6.26275 26C5.33978 26 4.56038 25.2625 4.56038 24.3917V22.1211C3.03236 21.6362 2 20.2465 2 18.6075V7.68772C2 5.65265 3.71946 4 5.82861 4H22.1959ZM7.79078 12.7481C8.66247 13.0861 9.74952 13.5027 9.74952 14.9163C9.74952 16.1661 8.86074 16.8831 7.31562 16.8831C6.54306 16.8831 5.87989 16.7158 5.60983 16.6168C5.4355 16.5553 5.33636 16.3709 5.3808 16.1934L5.44575 15.9305C5.46968 15.8314 5.53805 15.7495 5.62693 15.7017C5.71922 15.6505 5.82519 15.6402 5.92433 15.671C6.85071 15.9544 7.95486 15.9407 8.37874 15.6607C8.50522 15.5822 8.71033 15.3807 8.71033 14.93C8.71033 14.2266 8.22491 14.0047 7.36347 13.6734C6.51571 13.3456 5.46284 12.9359 5.46284 11.6008C5.46284 11.0272 5.66453 10.5491 6.04739 10.2213C6.69689 9.66475 7.87965 9.57939 9.15472 9.93792C9.34615 9.98914 9.46237 10.1804 9.41452 10.375L9.34957 10.6277C9.32222 10.7233 9.26069 10.8052 9.17181 10.853C9.08293 10.9008 8.98038 10.9145 8.88125 10.8872C8.51206 10.7779 8.13262 10.7233 7.74634 10.7199C6.49178 10.7199 6.49178 11.3106 6.49178 11.5598C6.49178 12.212 6.96352 12.4271 7.79078 12.7481ZM16.7402 9.8389C16.9453 9.83548 17.1128 9.99938 17.1162 10.2008V16.3914C17.1128 16.5963 16.9453 16.7568 16.7402 16.7534H16.4769C16.2718 16.7568 16.1043 16.5929 16.1009 16.3914V12.1915L14.4601 15.1998C14.3917 15.3193 14.2652 15.3944 14.1285 15.3944H13.8482C13.708 15.3944 13.5816 15.3193 13.5132 15.1963L11.9373 12.2291V16.3948C11.9339 16.5997 11.7664 16.7602 11.5613 16.7568H11.2981C11.093 16.7602 10.9255 16.5963 10.922 16.3948V10.2043C10.922 10.0028 11.0895 9.84231 11.2981 9.84231H11.5818C11.7219 9.84231 11.8518 9.91743 11.9168 10.0404L14.002 13.9671L16.1454 10.0335C16.2137 9.91402 16.3402 9.8389 16.4804 9.8389H16.7402ZM20.7021 12.7481C21.5738 13.0861 22.6608 13.5027 22.6608 14.9163C22.6608 16.1661 21.772 16.8831 20.2269 16.8831C19.4544 16.8831 18.7912 16.7158 18.5211 16.6168C18.3468 16.5553 18.2477 16.3709 18.2921 16.1934L18.3571 15.9305C18.381 15.8314 18.4494 15.7495 18.5382 15.7017C18.6305 15.6505 18.7365 15.6402 18.8356 15.671C19.762 15.9544 20.8662 15.9407 21.2901 15.6607C21.4165 15.5822 21.6216 15.3807 21.6216 14.93C21.6216 14.2266 21.1362 14.0047 20.2748 13.6734C19.427 13.3456 18.3707 12.9359 18.3707 11.6008C18.3707 11.0272 18.5724 10.5491 18.9587 10.2213C19.6082 9.66475 20.791 9.57939 22.066 9.93792C22.2575 9.98914 22.3737 10.1838 22.3258 10.375L22.2609 10.6277C22.2335 10.7233 22.172 10.8052 22.0831 10.853C21.9942 10.9008 21.8883 10.9145 21.7926 10.8872C21.4234 10.7779 21.0439 10.7233 20.6611 10.7199C19.4065 10.7199 19.4065 11.3106 19.4065 11.5598C19.3997 12.212 19.8714 12.4271 20.7021 12.7481Z" fill="#86888C"/>
</svg>
