<svg width="20" height="20" viewBox="0 0 20 20" fill="none" xmlns="http://www.w3.org/2000/svg">
<path d="M9.99886 18C4.76726 18 2 15.235 2 10.0034C2 4.77181 4.76726 2 9.99886 2C12.552 2 14.5312 2.6605 15.8841 3.96555C17.2871 5.31843 18 7.35004 18 10.0011C18 15.235 15.2327 18 9.99886 18ZM9.99886 2.45552C7.56868 2.45552 5.69423 3.07502 4.43018 4.29352C3.12057 5.55758 2.45552 7.47758 2.45552 10.0011C2.45552 12.5247 3.12057 14.447 4.43018 15.7088C5.69423 16.9273 7.56868 17.5445 9.99886 17.5445C12.429 17.5445 14.3035 16.9273 15.5698 15.7088C16.8817 14.4447 17.5468 12.5247 17.5468 10.0034C17.5468 7.48214 16.8817 5.55986 15.5698 4.2958C14.3035 3.07502 12.429 2.45552 9.99886 2.45552Z" fill="#86888C"/>
<path d="M6.38452 13.2918C6.26837 13.2098 6.21143 13.1187 6.21143 12.9798C6.21598 12.7999 6.3663 12.6564 6.54623 12.6564C6.63278 12.6609 6.71705 12.6882 6.78993 12.7384C7.3115 13.0845 8.0426 13.4307 8.88758 13.4307C10.1516 13.4307 10.926 12.7816 10.926 11.8205C10.926 11.0324 10.4864 10.4767 9.0379 10.29L8.66666 10.2444C7.12474 10.0485 6.4073 9.30604 6.4073 8.15814C6.4073 6.7916 7.37982 5.94434 8.87619 5.94434C9.70979 5.94434 10.4181 6.16526 10.9032 6.4659C11.0536 6.55928 11.1242 6.67544 11.1242 6.7916C11.1242 6.96241 10.9875 7.10362 10.8144 7.10362H10.8121C10.7301 7.10362 10.6504 7.06946 10.5798 7.03302C10.0469 6.74377 9.49114 6.56839 8.85342 6.56839C7.7078 6.56839 7.07007 7.20612 7.07007 8.09893C7.07007 8.90974 7.56886 9.43131 8.92402 9.60441L9.28388 9.64996C10.8486 9.84583 11.5911 10.5883 11.5911 11.7704C11.5911 13.1028 10.6413 14.0525 8.81014 14.0525C7.83306 14.0571 6.96303 13.6972 6.38452 13.2918Z" fill="#86888C"/>
<path d="M11.9418 15.0345C11.8188 15.014 11.7345 14.8956 11.755 14.7726L13.3402 5.15663C13.3607 5.03364 13.4792 4.94937 13.6021 4.96987C13.7251 4.99037 13.8094 5.1088 13.7889 5.23179L12.2037 14.8477C12.1832 14.9707 12.0648 15.055 11.9418 15.0345Z" fill="#86888C"/>
</svg>
