<svg width="28" height="28" viewBox="0 0 28 28" fill="none" xmlns="http://www.w3.org/2000/svg">
<path d="M13.9983 26C6.15089 26 2 21.8525 2 14.0051C2 6.15772 6.15089 2 13.9983 2C17.828 2 20.7969 2.99075 22.8262 4.94833C24.9307 6.97765 26 10.0251 26 14.0017C26 21.8525 21.8491 26 13.9983 26ZM13.9983 2.68327C10.353 2.68327 7.54135 3.61253 5.64527 5.44028C3.68085 7.33637 2.68327 10.2164 2.68327 14.0017C2.68327 17.787 3.68085 20.6705 5.64527 22.5631C7.54135 24.3909 10.353 25.3167 13.9983 25.3167C17.6436 25.3167 20.4552 24.3909 22.3547 22.5631C24.3226 20.667 25.3201 17.787 25.3201 14.0051C25.3201 10.2232 24.3226 7.33979 22.3547 5.4437C20.4552 3.61253 17.6436 2.68327 13.9983 2.68327Z" fill="#86888C"/>
<path d="M8.57654 18.9382C8.4023 18.8152 8.31689 18.6786 8.31689 18.4702C8.32373 18.2003 8.54921 17.985 8.8191 17.985C8.94892 17.9919 9.07533 18.0329 9.18465 18.108C9.967 18.6273 11.0637 19.1466 12.3311 19.1466C14.2272 19.1466 15.3888 18.1729 15.3888 16.7312C15.3888 15.5492 14.7294 14.7156 12.5566 14.4354L11.9997 14.3671C9.68686 14.0733 8.6107 12.9596 8.6107 11.2377C8.6107 9.18788 10.0695 7.91699 12.314 7.91699C13.5644 7.91699 14.6269 8.24838 15.3546 8.69934C15.5801 8.83941 15.686 9.01365 15.686 9.18788C15.686 9.44411 15.481 9.65592 15.2214 9.65592H15.218C15.095 9.65592 14.9754 9.60468 14.8695 9.55002C14.0701 9.11614 13.2365 8.85308 12.2799 8.85308C10.5615 8.85308 9.60487 9.80966 9.60487 11.1489C9.60487 12.3651 10.3531 13.1475 12.3858 13.4071L12.9256 13.4754C15.2726 13.7692 16.3864 14.883 16.3864 16.6561C16.3864 18.6546 14.9617 20.0793 12.215 20.0793C10.7493 20.0861 9.4443 19.5463 8.57654 18.9382Z" fill="#86888C"/>
<path d="M16.9122 21.5517C16.7277 21.521 16.6013 21.3433 16.6321 21.1589L19.0098 6.73495C19.0406 6.55046 19.2182 6.42406 19.4027 6.4548C19.5872 6.48555 19.7136 6.6632 19.6829 6.84769L17.3051 21.2716C17.2743 21.4561 17.0967 21.5825 16.9122 21.5517Z" fill="#86888C"/>
</svg>
