<svg width="28" height="28" viewBox="0 0 28 28" fill="none" xmlns="http://www.w3.org/2000/svg">
<path fill-rule="evenodd" clip-rule="evenodd" d="M23.6438 10.1117C23.0505 10.1117 22.57 9.62803 22.57 9.03471C22.57 8.44139 23.0505 7.95448 23.6438 7.95448C24.2371 7.95448 24.7176 8.43816 24.7176 9.03471C24.7176 9.63126 24.2339 10.1117 23.6438 10.1117ZM18.5457 18.5472C17.9524 18.544 17.4719 18.0635 17.4719 17.467C17.4719 16.8737 17.9524 16.39 18.5457 16.39C19.139 16.39 19.6227 16.8737 19.6195 17.467C19.6195 18.0603 19.139 18.5472 18.5457 18.5472ZM9.7426 14.6616C9.14928 14.6616 8.66882 14.1811 8.66882 13.5878V13.5814C8.66882 12.988 9.14928 12.5044 9.7426 12.5044C10.3359 12.5076 10.8164 12.988 10.8132 13.5814C10.8164 14.1747 10.3359 14.6584 9.7426 14.6616ZM5.02181 23.0487C4.42849 23.0487 3.94803 22.5651 3.94803 21.9717C3.94803 21.3784 4.42849 20.8947 5.02181 20.8947C5.61514 20.898 6.0956 21.3784 6.0956 21.9717C6.09237 22.5651 5.61191 23.0487 5.02181 23.0487ZM23.6406 7C22.5281 7 21.622 7.91256 21.622 9.03149C21.622 9.58934 21.8477 10.0956 22.2121 10.4664L19.1939 15.5548C18.9843 15.4774 18.765 15.4387 18.5425 15.4387C17.8879 15.4387 17.3139 15.758 16.9431 16.2417L11.7193 13.9361C11.7418 13.82 11.7547 13.7007 11.7547 13.5814C11.7547 12.4624 10.8486 11.5531 9.73615 11.5531C8.62045 11.5531 7.71756 12.4657 7.71756 13.5846C7.71756 14.1521 7.95941 14.681 8.36248 15.0615L5.56999 20.0273C5.39264 19.9725 5.20561 19.9435 5.01859 19.9402C3.90611 19.9402 3 20.8496 3 21.9685C3 23.0874 3.90611 24 5.01859 24C6.13752 23.9936 7.0404 23.081 7.03395 21.9621C7.03073 21.4042 6.79856 20.8754 6.39226 20.4949L9.18475 15.5322C9.36533 15.5838 9.54913 15.6129 9.73938 15.6129C10.3907 15.6129 10.9679 15.2936 11.3355 14.8099L16.5594 17.1155C16.5368 17.2316 16.5239 17.3509 16.5239 17.4702C16.5239 18.5892 17.43 19.5017 18.5425 19.5017C19.6614 19.4985 20.5675 18.5859 20.5611 17.467C20.5579 16.9446 20.3547 16.4448 19.9935 16.0708L23.0247 10.9533C23.2214 11.0178 23.4245 11.0597 23.6406 11.0597C24.7563 11.0597 25.6591 10.1504 25.6591 9.03149C25.6624 7.91256 24.7563 7 23.6406 7Z" fill="#86888C"/>
</svg>
