<svg width="20" height="20" viewBox="0 0 20 20" fill="none" xmlns="http://www.w3.org/2000/svg">
<path fill-rule="evenodd" clip-rule="evenodd" d="M16.5721 7.19651C16.1533 7.19651 15.8141 6.85508 15.8141 6.43627C15.8141 6.01745 16.1533 5.67375 16.5721 5.67375C16.9909 5.67375 17.33 6.01517 17.33 6.43627C17.33 6.85736 16.9886 7.19651 16.5721 7.19651ZM12.9734 13.151C12.5546 13.1487 12.2155 12.8096 12.2155 12.3885C12.2155 11.9697 12.5546 11.6282 12.9734 11.6282C13.3923 11.6282 13.7337 11.9697 13.7314 12.3885C13.7314 12.8073 13.3923 13.151 12.9734 13.151ZM6.75948 10.4082C6.34067 10.4082 6.00152 10.069 6.00152 9.65023V9.64568C6.00152 9.22686 6.34067 8.88543 6.75948 8.88543C7.1783 8.88771 7.51745 9.22686 7.51517 9.64568C7.51745 10.0645 7.1783 10.4059 6.75948 10.4082ZM3.42716 16.3285C3.00835 16.3285 2.6692 15.9871 2.6692 15.5683C2.6692 15.1495 3.00835 14.808 3.42716 14.808C3.84598 14.8103 4.18513 15.1495 4.18513 15.5683C4.18285 15.9871 3.8437 16.3285 3.42716 16.3285ZM16.5698 5C15.7845 5 15.1449 5.64416 15.1449 6.43399C15.1449 6.82777 15.3042 7.18513 15.5615 7.44689L13.431 11.0387C13.283 10.9841 13.1282 10.9568 12.9712 10.9568C12.5091 10.9568 12.1039 11.1821 11.8422 11.5235L8.15478 9.89605C8.17071 9.81411 8.17982 9.72989 8.17982 9.64568C8.17982 8.85584 7.54021 8.21396 6.75493 8.21396C5.96737 8.21396 5.33005 8.85812 5.33005 9.64795C5.33005 10.0486 5.50076 10.4219 5.78528 10.6904L3.81411 14.1958C3.68892 14.1571 3.5569 14.1366 3.42489 14.1343C2.63961 14.1343 2 14.7762 2 15.566C2 16.3558 2.63961 17 3.42489 17C4.21472 16.9954 4.85205 16.3513 4.8475 15.5615C4.84522 15.1677 4.68133 14.7944 4.39454 14.5258L6.36571 11.0228C6.49317 11.0592 6.62291 11.0797 6.75721 11.0797C7.217 11.0797 7.62443 10.8543 7.88391 10.5129L11.5713 12.1404C11.5554 12.2223 11.5463 12.3065 11.5463 12.3907C11.5463 13.1806 12.1859 13.8247 12.9712 13.8247C13.761 13.8225 14.4006 13.1783 14.3961 12.3885C14.3938 12.0197 14.2504 11.6669 13.9954 11.4029L16.1351 7.79059C16.2739 7.83612 16.4173 7.86571 16.5698 7.86571C17.3574 7.86571 17.9947 7.22382 17.9947 6.43399C17.997 5.64416 17.3574 5 16.5698 5Z" fill="#86888C"/>
</svg>
