<svg width="24" height="24" viewBox="0 0 24 24" fill="none" xmlns="http://www.w3.org/2000/svg">
<path fill-rule="evenodd" clip-rule="evenodd" d="M20.2151 7.74564C19.6916 7.74564 19.2676 7.31885 19.2676 6.79533C19.2676 6.27181 19.6916 5.84219 20.2151 5.84219C20.7386 5.84219 21.1626 6.26897 21.1626 6.79533C21.1626 7.3217 20.7358 7.74564 20.2151 7.74564ZM15.7168 15.1887C15.1933 15.1859 14.7693 14.7619 14.7693 14.2356C14.7693 13.7121 15.1933 13.2853 15.7168 13.2853C16.2403 13.2853 16.6671 13.7121 16.6643 14.2356C16.6643 14.7591 16.2403 15.1887 15.7168 15.1887ZM7.94936 11.7602C7.42583 11.7602 7.0019 11.3363 7.0019 10.8128V10.8071C7.0019 10.2836 7.42583 9.85679 7.94936 9.85679C8.47288 9.85964 8.89681 10.2836 8.89397 10.8071C8.89681 11.3306 8.47288 11.7574 7.94936 11.7602ZM3.78395 19.1607C3.26043 19.1607 2.83649 18.7339 2.83649 18.2104C2.83649 17.6868 3.26043 17.2601 3.78395 17.2601C4.30747 17.2629 4.73141 17.6868 4.73141 18.2104C4.72857 18.7339 4.30463 19.1607 3.78395 19.1607ZM20.2123 5C19.2307 5 18.4311 5.8052 18.4311 6.79249C18.4311 7.28471 18.6303 7.73141 18.9518 8.05861L16.2887 12.5484C16.1038 12.4801 15.9103 12.4459 15.714 12.4459C15.1364 12.4459 14.6299 12.7276 14.3027 13.1544L9.69347 11.1201C9.71339 11.0176 9.72477 10.9124 9.72477 10.8071C9.72477 9.8198 8.92526 9.01745 7.94366 9.01745C6.95922 9.01745 6.16256 9.82265 6.16256 10.8099C6.16256 11.3107 6.37595 11.7773 6.7316 12.113L4.26764 16.4947C4.11115 16.4463 3.94613 16.4207 3.78111 16.4179C2.79951 16.4179 2 17.2202 2 18.2075C2 19.1948 2.79951 20 3.78111 20C4.7684 19.9943 5.56506 19.1891 5.55937 18.2018C5.55652 17.7096 5.35167 17.243 4.99317 16.9072L7.45713 12.5285C7.61646 12.574 7.77864 12.5996 7.94651 12.5996C8.52124 12.5996 9.03054 12.3179 9.35489 11.8911L13.9641 13.9255C13.9442 14.0279 13.9329 14.1332 13.9329 14.2384C13.9329 15.2257 14.7324 16.0309 15.714 16.0309C16.7013 16.0281 17.5008 15.2229 17.4951 14.2356C17.4922 13.7747 17.313 13.3336 16.9943 13.0036L19.6688 8.48824C19.8424 8.54514 20.0216 8.58213 20.2123 8.58213C21.1967 8.58213 21.9934 7.77978 21.9934 6.79249C21.9962 5.8052 21.1967 5 20.2123 5Z" fill="#86888C"/>
</svg>
