<svg width="24" height="24" viewBox="0 0 24 24" fill="none" xmlns="http://www.w3.org/2000/svg">
<path fill-rule="evenodd" clip-rule="evenodd" d="M19.7661 14.7319C20.6283 14.7149 21.0666 14.251 21.0666 13.3517C21.0666 12.4496 20.6255 11.9801 19.7547 11.9602L19.6096 11.9573H19.5726C18.7245 11.9659 18.2948 12.4269 18.2948 13.3375C18.2948 14.251 18.7302 14.7177 19.5896 14.7319H19.7661ZM6.37108 14.3051V15.1047H7.5663V14.2937C7.34718 14.3136 7.12805 14.325 6.90893 14.325C6.72965 14.3278 6.55036 14.3193 6.37108 14.3051ZM2.74274 9.03187C2.85941 11.9943 4.25953 13.494 6.90893 13.494C9.55548 13.494 10.9556 11.9943 11.0751 9.03187H10.2641C10.136 11.2829 8.92657 12.5663 6.90893 12.5663C4.88844 12.5663 3.68468 11.2857 3.55378 9.03187H2.74274ZM20.1104 11.1633C20.7564 11.2601 21.9004 11.667 21.9004 13.3546C21.9004 15.4007 20.2072 15.56 19.786 15.5686H19.5811C19.1372 15.5629 17.4667 15.4007 17.4667 13.3404C17.4667 11.6016 18.642 11.226 19.2766 11.1491V9.40751C19.2766 7.42117 17.7797 7.17075 17.1366 7.15652C17.0626 7.15367 16.9744 7.15652 16.9004 7.15367C16.2658 7.15936 14.7945 7.38987 14.7945 9.39328L14.7974 9.47297V17.8793C14.7974 21.7297 11.5105 21.9858 10.8503 21.9972C10.7849 22 10.7052 22 10.6283 22H10.4974C8.58793 21.9715 6.54752 20.8674 6.54752 17.8566V15.9414H6.07227C5.78201 15.9414 5.53727 15.6824 5.53727 15.3779V14.1855C3.18383 13.6648 1.90039 11.7353 1.90039 8.61355C1.90039 8.38304 2.08821 8.19807 2.31587 8.19807H2.70859V4.72624C2.70574 4.61241 2.68582 3.45987 3.32612 2.79966C3.60785 2.50939 3.99487 2.34718 4.40181 2.35287C4.56402 2.03415 4.91405 2 5.02788 2H5.09902C5.247 2.00285 5.82185 2.06261 5.82185 2.75697C5.82185 3.45134 5.247 3.50825 5.10187 3.50825H5.03357C4.92259 3.50541 4.58963 3.4741 4.41604 3.18099C4.4132 3.18099 4.41035 3.18384 4.40466 3.18384C4.22253 3.1753 4.04609 3.24644 3.92088 3.37735C3.58793 3.73022 3.53386 4.47866 3.54239 4.71201V8.19522H3.95788C4.18838 8.19522 4.37336 8.38304 4.37336 8.6107C4.37336 10.0336 4.8116 11.7268 6.90893 11.7268C9.00341 11.7268 9.4445 10.0307 9.4445 8.6107C9.4445 8.38019 9.63232 8.19522 9.85998 8.19522H10.3324V4.72624C10.3409 4.45874 10.284 3.72453 9.9482 3.37735C9.82299 3.24644 9.64655 3.17814 9.46442 3.18668L9.45304 3.18384C9.28229 3.4741 8.94934 3.50825 8.83835 3.50825H8.77005C8.62777 3.50541 8.05008 3.45134 8.05008 2.75697C8.05008 2.05976 8.62492 2.00285 8.7729 2H8.84404C8.95788 2 9.3079 2.03415 9.47296 2.35287C9.89413 2.35572 10.2669 2.50939 10.5487 2.79966C11.189 3.46272 11.169 4.61241 11.1662 4.74047V8.19522H11.4991C11.7296 8.19522 11.9146 8.38304 11.9146 8.6107C11.9146 11.6813 10.6767 13.5965 8.40011 14.1514V15.3751C8.40011 15.6796 8.15537 15.9385 7.8651 15.9385H7.38132V17.8537C7.38132 20.7991 9.56687 21.1491 10.5088 21.1633C10.617 21.1662 10.7336 21.1633 10.8332 21.1605C11.5674 21.1463 13.9636 20.8702 13.9636 17.8765L13.9607 9.40182C13.9607 7.14513 15.4747 6.33125 16.8919 6.31986C16.9772 6.32271 17.0797 6.31986 17.1594 6.32271C18.5851 6.35686 20.1104 7.18497 20.1104 9.40751V11.1633ZM19.7405 12.7826C19.8514 12.7854 20.2783 12.8281 20.2783 13.346C20.2783 13.8668 19.8486 13.9067 19.7433 13.9095H19.6921C19.5783 13.9067 19.1542 13.8668 19.1542 13.3432C19.1542 12.8224 19.5754 12.7826 19.6864 12.7826H19.7405Z" fill="#86888C"/>
</svg>
