<svg width="28" height="28" viewBox="0 0 28 28" fill="none" xmlns="http://www.w3.org/2000/svg">
<path fill-rule="evenodd" clip-rule="evenodd" d="M23.3392 17.2783C24.3739 17.2578 24.8998 16.7012 24.8998 15.6221C24.8998 14.5396 24.3705 13.9761 23.3255 13.9522L23.1514 13.9488H23.107C22.0893 13.959 21.5737 14.5122 21.5737 15.605C21.5737 16.7012 22.0962 17.2612 23.1275 17.2783H23.3392ZM7.26522 16.7661V17.7257H8.69948V16.7524C8.43653 16.7763 8.17358 16.79 7.91064 16.79C7.6955 16.7934 7.48036 16.7832 7.26522 16.7661ZM2.9112 10.4382C3.05122 13.9932 4.73135 15.7928 7.91064 15.7928C11.0865 15.7928 12.7666 13.9932 12.9101 10.4382H11.9368C11.7831 13.1394 10.3318 14.6796 7.91064 14.6796C5.48605 14.6796 4.04154 13.1429 3.88445 10.4382H2.9112ZM23.7524 12.996C24.5276 13.1121 25.9004 13.6005 25.9004 15.6255C25.9004 18.0808 23.8685 18.2721 23.3631 18.2823H23.1172C22.5845 18.2755 20.58 18.0808 20.58 15.6084C20.58 13.5219 21.9903 13.0711 22.7518 12.9789V10.889C22.7518 8.50541 20.9556 8.20489 20.1838 8.18782C20.095 8.18441 19.9892 8.18782 19.9004 8.18441C19.1389 8.19124 17.3734 8.46784 17.3734 10.8719L17.3768 10.9676V21.0552C17.3768 25.6756 13.4325 25.9829 12.6403 25.9966C12.5617 26 12.4661 26 12.3739 26H12.2168C9.92543 25.9659 7.47694 24.6409 7.47694 21.0279V18.7297H6.90665C6.55833 18.7297 6.26465 18.4189 6.26465 18.0535V16.6227C3.44052 15.9977 1.90039 13.6824 1.90039 9.93625C1.90039 9.65965 2.12577 9.43768 2.39897 9.43768H2.87023V5.27149C2.86681 5.13489 2.84291 3.75185 3.61126 2.95959C3.94934 2.61127 4.41377 2.41662 4.9021 2.42345C5.09675 2.04098 5.51678 2 5.65338 2H5.73875C5.91633 2.00341 6.60614 2.07513 6.60614 2.90837C6.60614 3.74161 5.91633 3.8099 5.74217 3.8099H5.66021C5.52703 3.80649 5.12748 3.76892 4.91917 3.41719C4.91576 3.41719 4.91234 3.4206 4.90551 3.4206C4.68696 3.41036 4.47523 3.49573 4.32498 3.65282C3.92543 4.07627 3.86055 4.97439 3.87079 5.25441V9.43426H4.36937C4.64598 9.43426 4.86795 9.65965 4.86795 9.93284C4.86795 11.6403 5.39385 13.6722 7.91064 13.6722C10.424 13.6722 10.9533 11.6369 10.9533 9.93284C10.9533 9.65623 11.1787 9.43426 11.4519 9.43426H12.0188V5.27149C12.029 4.95048 11.9607 4.06944 11.5578 3.65282C11.4075 3.49573 11.1958 3.41377 10.9772 3.42402L10.9636 3.4206C10.7587 3.76892 10.3591 3.8099 10.2259 3.8099H10.144C9.97324 3.80649 9.28001 3.74161 9.28001 2.90837C9.28001 2.07171 9.96983 2.00341 10.1474 2H10.2328C10.3694 2 10.7894 2.04098 10.9875 2.42345C11.4929 2.42686 11.9402 2.61127 12.2783 2.95959C13.0467 3.75526 13.0228 5.13489 13.0193 5.28856V9.43426H13.4189C13.6955 9.43426 13.9175 9.65965 13.9175 9.93284C13.9175 13.6175 12.432 15.9158 9.70005 16.5817V18.0501C9.70005 18.4155 9.40637 18.7262 9.05805 18.7262H8.47751V21.0245C8.47751 24.5589 11.1002 24.9789 12.2305 24.996C12.3603 24.9994 12.5003 24.996 12.6198 24.9926C13.5008 24.9755 16.3762 24.6443 16.3762 21.0518L16.3728 10.8822C16.3728 8.17416 18.1895 7.1975 19.8901 7.18384C19.9926 7.18725 20.1155 7.18384 20.2111 7.18725C21.922 7.22823 23.7524 8.22197 23.7524 10.889V12.996ZM23.3085 14.9391C23.4417 14.9425 23.9539 14.9937 23.9539 15.6153C23.9539 16.2402 23.4382 16.288 23.3119 16.2914H23.2504C23.1138 16.288 22.605 16.2402 22.605 15.6118C22.605 14.9869 23.1104 14.9391 23.2436 14.9391H23.3085Z" fill="#86888C"/>
</svg>
