<svg width="24" height="24" viewBox="0 0 24 24" fill="none" xmlns="http://www.w3.org/2000/svg">
<path fill-rule="evenodd" clip-rule="evenodd" d="M19.7495 18.9127C20.8788 17.827 21.4826 16.1171 21.5494 13.8209L2.87143 13.8005L3.13561 19.6066C3.14141 19.6936 3.18496 20.1407 3.52171 20.1407H16.6897C16.7246 20.1349 18.3967 20.2104 19.7495 18.9127ZM5.0603 10.0673C4.94418 10.0702 4.90644 10.0934 4.90354 10.0934L4.90644 12.8658L17.0962 12.8484C17.0265 12.0268 16.7507 11.3765 16.2717 10.9121C15.3602 10.0237 13.9957 10.0673 13.9783 10.0673C13.9522 10.0876 10.3583 10.0615 7.73397 10.0615C6.4102 10.0615 5.32738 10.0615 5.0603 10.0673ZM7.06628 5.68955H10.4918V4.85929H7.06628V5.68955ZM7.06628 9.19928H10.4918V6.54594H7.06628V9.19928ZM21.979 12.9616C22.2142 12.9616 22.4029 13.1532 22.4029 13.3912C22.4029 16.1578 21.7032 18.2276 20.3214 19.5456C19.3634 20.4571 18.0977 20.9768 16.7768 21C16.713 21 16.6752 20.9971 16.6636 20.9971H3.52171C2.59274 20.9971 2.30825 20.1117 2.28793 19.6443L2.00053 13.3912C1.98892 13.1561 2.16891 12.9558 2.40115 12.9442H2.42437L4.05586 12.9471L4.07908 10.1166C4.07328 10.1166 4.03844 9.81182 4.25617 9.54474C4.37519 9.39669 4.61033 9.2196 5.04578 9.2138C5.20255 9.21089 5.63219 9.21089 6.2186 9.21089V4.42964C6.2186 4.1916 6.4102 4 6.64244 4H10.9186C11.1537 4 11.3424 4.1916 11.3424 4.42964V9.20509L13.9609 9.20799C14.0074 9.21089 15.6766 9.14703 16.8523 10.2879C17.5229 10.9382 17.8771 11.8439 17.9351 12.9587L21.979 12.9616ZM6.52051 16.5265C6.28246 16.5294 6.09087 16.721 6.09377 16.959C6.09377 17.1971 6.28537 17.3916 6.52051 17.3916C6.75565 17.3916 6.95016 17.1971 6.95016 16.959C6.94725 16.7181 6.75565 16.5236 6.52051 16.5265ZM6.52051 18.2509C5.81218 18.245 5.24029 17.6673 5.24319 16.959C5.24319 16.2478 5.81508 15.6672 6.52051 15.6672C7.22594 15.6672 7.79783 16.2478 7.79783 16.959C7.79783 17.6703 7.22304 18.2509 6.52051 18.2509ZM10.7879 16.5236C10.5499 16.5265 10.3583 16.7181 10.3583 16.9561C10.3583 17.1942 10.5499 17.3887 10.7879 17.3887C11.0231 17.3887 11.2176 17.1942 11.2176 16.9561C11.2176 16.7181 11.026 16.5236 10.7879 16.5236ZM10.7879 18.2509C10.0825 18.2509 9.51061 17.6703 9.51061 16.959C9.51061 16.2478 10.0854 15.6672 10.7879 15.6672C11.4905 15.6672 12.0653 16.2478 12.0653 16.959C12.0653 17.6703 11.4934 18.2509 10.7879 18.2509ZM15.0582 16.5236C14.8202 16.5236 14.6286 16.7181 14.6286 16.9561C14.6286 17.1942 14.8202 17.3887 15.0582 17.3887C15.2934 17.3887 15.485 17.1942 15.485 16.9561C15.485 16.7181 15.2934 16.5236 15.0582 16.5236ZM15.0582 18.2509C14.3499 18.245 13.778 17.6673 13.7809 16.959C13.7809 16.2478 14.3528 15.6672 15.0582 15.6672C15.7608 15.6672 16.3356 16.2478 16.3356 16.959C16.3356 17.6703 15.7608 18.2509 15.0582 18.2509Z" fill="#86888C"/>
</svg>
