<svg width="28" height="28" viewBox="0 0 28 28" fill="none" xmlns="http://www.w3.org/2000/svg">
<path fill-rule="evenodd" clip-rule="evenodd" d="M15.202 15.4138C15.4172 15.202 15.5231 14.8332 15.5231 14.3244C15.5231 13.8156 15.4138 13.4468 15.1986 13.2316C14.9903 13.0233 14.6454 12.9175 14.1707 12.9175C13.6995 12.9175 13.3512 13.0199 13.1463 13.2316C12.9345 13.4468 12.8253 13.8156 12.8253 14.3244C12.8253 14.8332 12.9345 15.1986 13.1429 15.4138C13.3478 15.6221 13.6961 15.7279 14.1707 15.7279C14.6454 15.7279 14.9937 15.6221 15.202 15.4138ZM14.1707 11.8793C14.9118 11.8793 15.4889 12.0842 15.8884 12.4872C16.3051 12.9038 16.5168 13.5253 16.5168 14.3244C16.5168 15.1269 16.3051 15.745 15.885 16.1616C15.4855 16.5612 14.9084 16.7627 14.1673 16.7627C13.4263 16.7627 12.8492 16.5578 12.4496 16.1616C12.0364 15.7416 11.8247 15.1269 11.8247 14.3244C11.8247 13.5253 12.033 12.9038 12.4496 12.4872C12.8526 12.0842 13.4331 11.8793 14.1707 11.8793ZM15.5572 4.78657H12.8355C12.938 5.37735 13.0165 5.88275 13.0267 5.92715C13.0404 6.00228 13.1258 6.35401 13.276 6.35401H14.9835C15.0928 6.35401 15.1645 6.19351 15.202 6.05692C15.3011 5.70859 15.4445 5.19636 15.5572 4.78657ZM10.9266 3.03813C10.65 3.03472 10.4314 2.79909 10.4348 2.51224C10.4382 2.22538 10.6192 2.01024 10.9402 2H11.391C11.8998 2 12.3335 2.35515 12.4735 2.88788C12.5179 3.06204 12.5828 3.37962 12.6511 3.74502H16.2163C16.3734 3.74502 16.5202 3.82015 16.6158 3.94991C16.7114 4.07968 16.7422 4.24701 16.6978 4.40751C16.6978 4.40751 16.3495 5.68127 16.1616 6.34377C15.9806 6.99602 15.5367 7.38873 14.9869 7.38873H13.2795C12.5555 7.38873 12.132 6.71258 12.0433 6.08423C11.9852 5.72567 11.8691 5.01878 11.753 4.37336C11.7496 4.36312 11.7496 4.35287 11.7462 4.33921C11.654 3.82698 11.5652 3.36255 11.5105 3.15766C11.4798 3.03472 11.3808 3.03472 11.3876 3.03472C11.1451 3.04155 10.9266 3.03813 10.9266 3.03813ZM13.3443 7.84974C13.358 7.84974 13.3682 7.85316 13.3819 7.85316C13.4741 7.85657 13.8429 7.89414 13.8429 8.35174C13.8429 8.81275 13.4775 8.85031 13.3853 8.85031H13.3375C13.2419 8.8469 12.8799 8.81275 12.8799 8.34832C12.8799 7.88731 13.2385 7.85316 13.3341 7.84974H13.3443ZM14.8776 7.84974C14.8913 7.84974 14.9015 7.85316 14.9152 7.85316C15.0074 7.85657 15.3762 7.89414 15.3762 8.35174C15.3762 8.81275 15.0108 8.85031 14.9186 8.85031H14.8776C14.7786 8.8469 14.42 8.81275 14.42 8.34832C14.42 7.88731 14.7786 7.85316 14.8742 7.84974H14.8776ZM22.0285 24.9004H24.9994V14.8435H22.0285V24.9004ZM21.0347 24.9004V23.7803V10.6192C21.0176 10.6124 20.8606 10.4861 20.6762 10.4861H7.59704C7.41263 10.4861 7.25213 10.609 7.22823 10.6602L7.23506 24.9516L9.95674 24.9414V18.7262C9.95674 18.4394 10.1787 18.2072 10.4553 18.2072H17.8452C18.1218 18.2072 18.3438 18.4394 18.3438 18.7262V24.9141L21.0347 24.9004ZM17.3432 24.9175V19.2487H10.9573V24.938L17.3432 24.9175ZM2.99715 24.9004H5.96813V14.8435H2.99715V24.9004ZM25.5014 13.8054C25.778 13.8054 26 14.0376 26 14.3244V25.4195C26 25.7063 25.7746 26 25.498 26H2.49858C2.22197 26 2 25.7063 2 25.4195V14.3244C2 14.0341 2.22197 13.8054 2.49858 13.8054H6.24132V10.6192C6.24132 9.99431 6.87649 9.44792 7.60046 9.44792H20.6762C21.4001 9.44792 22.0353 9.99431 22.0353 10.6192V13.8019H25.5014V13.8054Z" fill="#86888C"/>
</svg>
