<svg width="40" height="40" viewBox="0 0 40 40" fill="none" xmlns="http://www.w3.org/2000/svg">
<path d="M20.0348 21.0679C17.4777 21.0679 15.4842 20.4017 14.1211 19.0847C12.7067 17.7216 11.9893 15.6769 11.9893 13.0172C11.9893 10.3576 12.7067 8.31289 14.1211 6.94976C15.4893 5.63787 17.4777 4.97168 20.0348 4.97168C22.592 4.97168 24.5854 5.63787 25.9485 6.95488C27.3629 8.32314 28.0804 10.3627 28.0804 13.0224C28.0804 15.682 27.3629 17.7216 25.9485 19.0898C24.5854 20.4017 22.5971 21.0679 20.0348 21.0679ZM20.0348 5.99659C17.7493 5.99659 16.0018 6.56542 14.8334 7.69282C13.624 8.85609 13.0142 10.6497 13.0142 13.0224C13.0142 15.395 13.6291 17.1886 14.8334 18.3519C16.0018 19.4793 17.7493 20.0481 20.0348 20.0481C22.3204 20.0481 24.0678 19.4793 25.2362 18.3519C26.4456 17.1886 27.0554 15.395 27.0554 13.0224C27.0554 10.6497 26.4405 8.85609 25.2362 7.69282C24.073 6.56542 22.3204 5.99659 20.0348 5.99659Z" fill="#86888C"/>
<path d="M28.0748 16.9022H24.9027C24.6208 16.9022 24.3902 16.6716 24.3902 16.3898C24.3902 16.1079 24.6208 15.8773 24.9027 15.8773H28.0748C28.6795 15.8773 29.1407 15.7236 29.4482 15.4212C29.7556 15.1189 29.9145 14.6372 29.9145 14.0068V13.9966L29.9299 12.9973C29.9299 6.38149 26.5733 3.02491 19.9524 3.02491C14.013 3.02491 10.6923 5.74093 10.0774 11.091C10.0415 11.3728 9.78525 11.5727 9.50853 11.5368C9.2318 11.5009 9.03194 11.2549 9.06269 10.9731C9.40091 7.99061 10.5386 5.70505 12.4398 4.19331C14.2692 2.73794 16.7956 2 19.9524 2C23.4627 2 26.1838 2.91217 28.044 4.70577C29.976 6.56598 30.9548 9.35886 30.9548 13.0075V13.0178L30.9394 14.0171C30.9394 14.9293 30.6781 15.6518 30.1707 16.154C29.6634 16.6562 28.9613 16.9022 28.0748 16.9022Z" fill="#86888C"/>
<path d="M23.9909 15.2056C23.2632 15.2056 22.7866 15.5848 22.7866 16.3996C22.7866 16.7891 22.8942 17.0812 23.089 17.2759C23.2991 17.486 23.6065 17.5885 23.9858 17.5885C24.365 17.5885 24.6725 17.486 24.8826 17.2759C25.0773 17.0812 25.1849 16.7891 25.1849 16.3996C25.19 15.5848 24.7186 15.2056 23.9909 15.2056ZM35.4904 37.9996H4.51246C4.2306 37.9996 4 37.769 4 37.4871V34.4893C4 31.7579 4.85068 29.4313 6.45466 27.7607C8.20726 25.9415 10.8208 24.9781 14.0236 24.9781H25.9792C29.1769 24.9781 31.7956 25.9415 33.5482 27.7607C35.1573 29.4313 36.0028 31.7579 36.0028 34.4893V37.4871C36.0028 37.769 35.7722 37.9996 35.4904 37.9996ZM5.02491 36.9747H34.9779V34.4893C34.9779 32.0295 34.2297 29.9489 32.8102 28.473C31.2319 26.8383 28.9361 26.0081 25.9792 26.0081H14.0236C11.0668 26.0081 8.77096 26.8383 7.1926 28.473C5.7731 29.9489 5.02491 32.0295 5.02491 34.4893V36.9747Z" fill="#86888C"/>
</svg>
