<svg width="28" height="28" viewBox="0 0 28 28" fill="none" xmlns="http://www.w3.org/2000/svg">
<path d="M14.6899 15.7123C12.9851 15.7123 11.6561 15.2681 10.7474 14.3901C9.80446 13.4814 9.32617 12.1182 9.32617 10.3451C9.32617 8.57205 9.80446 7.20892 10.7474 6.30016C11.6596 5.42557 12.9851 4.98145 14.6899 4.98145C16.3946 4.98145 17.7236 5.42557 18.6324 6.30358C19.5753 7.21575 20.0536 8.57547 20.0536 10.3486C20.0536 12.1217 19.5753 13.4814 18.6324 14.3935C17.7236 15.2681 16.3981 15.7123 14.6899 15.7123ZM14.6899 5.66472C13.1662 5.66472 12.0012 6.04394 11.2223 6.79554C10.416 7.57105 10.0094 8.76678 10.0094 10.3486C10.0094 11.9303 10.4194 13.1261 11.2223 13.9016C12.0012 14.6532 13.1662 15.0324 14.6899 15.0324C16.2136 15.0324 17.3786 14.6532 18.1575 13.9016C18.9638 13.1261 19.3703 11.9303 19.3703 10.3486C19.3703 8.76678 18.9603 7.57105 18.1575 6.79554C17.382 6.04394 16.2136 5.66472 14.6899 5.66472Z" fill="#86888C"/>
<path d="M20.0499 12.9348H17.9351C17.7472 12.9348 17.5935 12.7811 17.5935 12.5932C17.5935 12.4053 17.7472 12.2515 17.9351 12.2515H20.0499C20.453 12.2515 20.7605 12.149 20.9654 11.9475C21.1704 11.7459 21.2763 11.4248 21.2763 11.0046V10.9977L21.2866 10.3315C21.2866 5.921 19.0489 3.68327 14.6349 3.68327C10.6753 3.68327 8.46153 5.49395 8.05157 9.06064C8.02765 9.24854 7.85684 9.38178 7.67235 9.35787C7.48787 9.33395 7.35463 9.16996 7.37513 8.98206C7.60061 6.99374 8.35904 5.47004 9.62652 4.46221C10.8462 3.49196 12.5304 3 14.6349 3C16.9751 3 18.7892 3.60811 20.0294 4.80384C21.3173 6.04399 21.9699 7.90591 21.9699 10.3384V10.3452L21.9596 11.0114C21.9596 11.6195 21.7854 12.1012 21.4472 12.436C21.1089 12.7708 20.6409 12.9348 20.0499 12.9348Z" fill="#86888C"/>
<path d="M17.3273 11.8037C16.8421 11.8037 16.5244 12.0565 16.5244 12.5997C16.5244 12.8594 16.5962 13.0541 16.726 13.1839C16.8661 13.324 17.071 13.3923 17.3238 13.3923C17.5767 13.3923 17.7816 13.324 17.9217 13.1839C18.0515 13.0541 18.1233 12.8594 18.1233 12.5997C18.1267 12.0565 17.8124 11.8037 17.3273 11.8037ZM24.9936 26.9997H4.34164C4.15374 26.9997 4 26.846 4 26.6581V24.6595C4 22.8386 4.56712 21.2876 5.63644 20.1738C6.80484 18.961 8.54719 18.3187 10.6824 18.3187H18.6528C20.7846 18.3187 22.5304 18.961 23.6988 20.1738C24.7715 21.2876 25.3352 22.8386 25.3352 24.6595V26.6581C25.3352 26.846 25.1815 26.9997 24.9936 26.9997ZM4.68327 26.3165H24.652V24.6595C24.652 23.0197 24.1532 21.6326 23.2068 20.6487C22.1546 19.5589 20.6241 19.0054 18.6528 19.0054H10.6824C8.71117 19.0054 7.18064 19.5589 6.1284 20.6487C5.18206 21.6326 4.68327 23.0197 4.68327 24.6595V26.3165Z" fill="#86888C"/>
</svg>
