<svg width="24" height="24" viewBox="0 0 24 24" fill="none" xmlns="http://www.w3.org/2000/svg">
<path d="M12.9083 13.5938C11.4876 13.5938 10.3801 13.2237 9.62283 12.492C8.83706 11.7347 8.43848 10.5988 8.43848 9.12117C8.43848 7.64357 8.83706 6.50762 9.62283 5.75031C10.383 5.02148 11.4876 4.65137 12.9083 4.65137C14.3289 4.65137 15.4364 5.02148 16.1937 5.75316C16.9795 6.51331 17.3781 7.64642 17.3781 9.12402C17.3781 10.6016 16.9795 11.7347 16.1937 12.4949C15.4364 13.2237 14.3318 13.5938 12.9083 13.5938ZM12.9083 5.22077C11.6385 5.22077 10.6677 5.53679 10.0186 6.16313C9.34667 6.8094 9.00788 7.80585 9.00788 9.12402C9.00788 10.4422 9.34952 11.4386 10.0186 12.0849C10.6677 12.7112 11.6385 13.0273 12.9083 13.0273C14.178 13.0273 15.1489 12.7112 15.798 12.0849C16.4699 11.4386 16.8087 10.4422 16.8087 9.12402C16.8087 7.80585 16.467 6.8094 15.798 6.16313C15.1517 5.53679 14.178 5.22077 12.9083 5.22077Z" fill="#86888C"/>
<path d="M17.3752 11.2791H15.6129C15.4563 11.2791 15.3282 11.151 15.3282 10.9944C15.3282 10.8378 15.4563 10.7097 15.6129 10.7097H17.3752C17.7111 10.7097 17.9673 10.6243 18.1382 10.4563C18.309 10.2883 18.3972 10.0207 18.3972 9.67054V9.66485L18.4058 9.10968C18.4058 5.43419 16.541 3.5694 12.8627 3.5694C9.56298 3.5694 7.71812 5.07832 7.37648 8.05059C7.35655 8.20718 7.2142 8.31821 7.06046 8.29828C6.90672 8.27835 6.79569 8.1417 6.81277 7.98511C7.00067 6.32815 7.63271 5.05839 8.68895 4.21852C9.70533 3.40997 11.1089 3 12.8627 3C14.8129 3 16.3246 3.50677 17.3581 4.50322C18.4314 5.53668 18.9752 7.0883 18.9752 9.11537V9.12107L18.9666 9.67623C18.9666 10.183 18.8214 10.5844 18.5396 10.8634C18.2577 11.1424 17.8677 11.2791 17.3752 11.2791Z" fill="#86888C"/>
<path d="M15.1062 10.3364C14.7019 10.3364 14.4371 10.5471 14.4371 10.9998C14.4371 11.2162 14.4969 11.3784 14.6051 11.4866C14.7218 11.6033 14.8927 11.6603 15.1033 11.6603C15.314 11.6603 15.4848 11.6033 15.6016 11.4866C15.7097 11.3784 15.7695 11.2162 15.7695 10.9998C15.7724 10.5471 15.5105 10.3364 15.1062 10.3364ZM21.4949 22.9999H4.2847C4.12812 22.9999 4 22.8718 4 22.7152V21.0497C4 19.5323 4.4726 18.2397 5.36372 17.3116C6.33739 16.3009 7.78937 15.7657 9.56875 15.7657H16.2108C17.9873 15.7657 19.4422 16.3009 20.4158 17.3116C21.3098 18.2397 21.7796 19.5323 21.7796 21.0497V22.7152C21.7796 22.8718 21.6514 22.9999 21.4949 22.9999ZM4.5694 22.4305H21.2102V21.0497C21.2102 19.6832 20.7945 18.5273 20.0059 17.7073C19.129 16.7991 17.8535 16.3379 16.2108 16.3379H9.56875C7.92602 16.3379 6.65056 16.7991 5.77369 17.7073C4.98506 18.5273 4.5694 19.6832 4.5694 21.0497V22.4305Z" fill="#86888C"/>
</svg>
