<svg width="20" height="20" viewBox="0 0 20 20" fill="none" xmlns="http://www.w3.org/2000/svg">
<path d="M10.1266 10.4747C8.99007 10.4747 8.10409 10.1786 7.49825 9.59326C6.86964 8.98742 6.55078 8.07867 6.55078 6.8966C6.55078 5.71454 6.86964 4.80578 7.49825 4.19995C8.10637 3.61689 8.99007 3.3208 10.1266 3.3208C11.2631 3.3208 12.1491 3.61689 12.7549 4.20222C13.3835 4.81034 13.7024 5.71682 13.7024 6.89888C13.7024 8.08094 13.3835 8.98742 12.7549 9.59553C12.1491 10.1786 11.2654 10.4747 10.1266 10.4747ZM10.1266 3.77632C9.11078 3.77632 8.33413 4.02913 7.81484 4.5302C7.27733 5.04721 7.0063 5.84436 7.0063 6.89888C7.0063 7.9534 7.27961 8.75055 7.81484 9.26756C8.33413 9.76863 9.11078 10.0214 10.1266 10.0214C11.1424 10.0214 11.919 9.76863 12.4383 9.26756C12.9758 8.75055 13.2469 7.9534 13.2469 6.89888C13.2469 5.84436 12.9736 5.04721 12.4383 4.5302C11.9213 4.02913 11.1424 3.77632 10.1266 3.77632Z" fill="#86888C"/>
<path d="M13.7002 8.6232H12.2904C12.1651 8.6232 12.0627 8.52071 12.0627 8.39544C12.0627 8.27018 12.1651 8.16769 12.2904 8.16769H13.7002C13.969 8.16769 14.174 8.09936 14.3106 7.96498C14.4473 7.83061 14.5179 7.61651 14.5179 7.33637V7.33182L14.5247 6.88769C14.5247 3.94733 13.0329 2.45552 10.0903 2.45552C7.45055 2.45552 5.97468 3.66263 5.70137 6.04043C5.68543 6.16569 5.57155 6.25452 5.44856 6.23858C5.32557 6.22263 5.23675 6.11331 5.25041 5.98804C5.40073 4.66249 5.90635 3.64669 6.75134 2.9748C7.56443 2.32797 8.68728 2 10.0903 2C11.6504 2 12.8598 2.40541 13.6866 3.20256C14.5452 4.02932 14.9802 5.27061 14.9802 6.89224V6.8968L14.9734 7.34093C14.9734 7.74633 14.8572 8.06747 14.6318 8.29068C14.4063 8.51388 14.0943 8.6232 13.7002 8.6232Z" fill="#86888C"/>
<path d="M11.8848 7.86914C11.5614 7.86914 11.3496 8.03768 11.3496 8.39982C11.3496 8.57291 11.3974 8.70273 11.484 8.78928C11.5774 8.88266 11.714 8.92822 11.8826 8.92822C12.0511 8.92822 12.1878 8.88266 12.2811 8.78928C12.3677 8.70273 12.4155 8.57291 12.4155 8.39982C12.4178 8.03768 12.2083 7.86914 11.8848 7.86914ZM16.9957 17.9998H3.22776C3.10249 17.9998 3 17.8973 3 17.7721V16.4397C3 15.2257 3.37808 14.1917 4.09096 13.4492C4.86989 12.6407 6.03146 12.2125 7.45495 12.2125H12.7685C14.1898 12.2125 15.3536 12.6407 16.1325 13.4492C16.8477 14.1917 17.2235 15.2257 17.2235 16.4397V17.7721C17.2235 17.8973 17.121 17.9998 16.9957 17.9998ZM3.45552 17.5443H16.768V16.4397C16.768 15.3464 16.4354 14.4217 15.8046 13.7658C15.1031 13.0392 14.0827 12.6703 12.7685 12.6703H7.45495C6.14078 12.6703 5.12043 13.0392 4.41893 13.7658C3.78804 14.4217 3.45552 15.3464 3.45552 16.4397V17.5443Z" fill="#86888C"/>
</svg>
