<svg width="40" height="40" viewBox="0 0 40 40" fill="none" xmlns="http://www.w3.org/2000/svg">
<path fill-rule="evenodd" clip-rule="evenodd" d="M30.8694 11.9109L28.1391 9.16517L32.8313 4.42681L35.5617 7.18786L30.8694 11.9109ZM16.6441 30.0959L10.2358 23.6415L11.3064 22.5606L14.9844 26.2796C15.1381 26.4333 15.3378 26.5101 15.5376 26.5101C15.7374 26.5101 15.9218 26.4333 16.0755 26.2796C16.3828 25.9723 16.3828 25.4907 16.0755 25.1834L12.377 21.4798L15.0766 18.7648L17.6071 21.2646C17.7608 21.4183 17.9452 21.4951 18.145 21.4951C18.3448 21.4951 18.5446 21.4183 18.6982 21.2646C18.9902 20.9573 18.9902 20.4604 18.6829 20.1684L16.1677 17.6635L18.8673 14.9485C18.8826 14.9639 18.898 14.9946 18.9134 15.01L22.9448 19.0671C23.0985 19.2207 23.2829 19.2976 23.4827 19.2976C23.6825 19.2976 23.8823 19.2207 24.0359 19.0671C24.3279 18.7751 24.3279 18.2782 24.0359 17.9708L19.9891 13.9086C19.9737 13.8933 19.9584 13.8779 19.9276 13.8625L22.6426 11.1476L25.0195 13.5091C25.1731 13.6474 25.3575 13.7242 25.5573 13.7242C25.7571 13.7242 25.9569 13.6474 26.1106 13.4937C26.4025 13.2017 26.4025 12.7049 26.0952 12.4129L23.7183 10.0667L25.2961 8.47875L31.7044 14.9332L16.6441 30.0959ZM11.2757 30.3879L9.66718 28.7845L11.414 27.007L13.0224 28.6257L11.2757 30.3879ZM37.7797 7.2186L32.8109 2.21899C32.5035 1.927 32.0117 1.927 31.7249 2.21899C31.4175 2.52634 31.4175 3.02323 31.7249 3.31521L31.7402 3.34595L27.048 8.06894L24.7172 5.72281C24.4252 5.43083 23.9335 5.43083 23.6466 5.72281C23.3393 6.03017 23.3393 6.52705 23.6466 6.81904L24.2152 7.39276L8.60681 23.0883C8.31482 23.3956 8.31482 23.8925 8.60681 24.1845L10.3382 25.9313L8.04333 28.2262C7.90502 28.3799 7.81281 28.5643 7.81281 28.7845C7.81281 28.9843 7.90502 29.1841 8.04333 29.3224L8.78098 30.0652L2.21899 36.6886C1.927 36.9806 1.927 37.4775 2.21899 37.7695C2.37267 37.9232 2.57244 38 2.75173 38C2.95151 38 3.15129 37.9232 3.30497 37.7695L9.86696 31.1614L10.7275 32.0271C10.8812 32.1808 11.0656 32.2576 11.2808 32.2576C11.4806 32.2576 11.6803 32.1808 11.8186 32.0271L14.1187 29.7271L16.1113 31.7351C16.265 31.8888 16.4494 31.9656 16.6492 31.9656C16.849 31.9656 17.0488 31.8888 17.2024 31.7351L32.7904 16.0191L33.4051 16.639C33.5434 16.7926 33.7432 16.8695 33.9429 16.8695C34.1427 16.8695 34.3271 16.7926 34.4808 16.639C34.7882 16.3316 34.7882 15.8501 34.4808 15.5427L31.9656 13.0122L36.6579 8.27384L36.704 8.31995C36.8577 8.47362 37.0421 8.55046 37.2419 8.55046C37.4416 8.55046 37.6414 8.47362 37.7951 8.31995C38.0717 8.02284 38.0717 7.53107 37.7797 7.2186Z" fill="#86888C"/>
</svg>
