<svg width="24" height="24" viewBox="0 0 24 24" fill="none" xmlns="http://www.w3.org/2000/svg">
<path fill-rule="evenodd" clip-rule="evenodd" d="M18.0386 7.50603L16.5217 5.98065L19.1285 3.34823L20.6454 4.88215L18.0386 7.50603ZM10.1356 17.6088L6.57543 14.0231L7.17022 13.4226L9.21355 15.4887C9.29892 15.574 9.40991 15.6167 9.5209 15.6167C9.63189 15.6167 9.73434 15.574 9.81972 15.4887C9.99047 15.3179 9.99047 15.0504 9.81972 14.8797L7.765 12.8221L9.26477 11.3138L10.6706 12.7026C10.756 12.7879 10.8585 12.8306 10.9694 12.8306C11.0804 12.8306 11.1914 12.7879 11.2768 12.7026C11.439 12.5318 11.439 12.2558 11.2683 12.0936L9.87094 10.7019L11.3707 9.19363C11.3792 9.20216 11.3878 9.21924 11.3963 9.22778L13.636 11.4817C13.7214 11.5671 13.8238 11.6098 13.9348 11.6098C14.0458 11.6098 14.1568 11.5671 14.2422 11.4817C14.4044 11.3195 14.4044 11.0434 14.2422 10.8727L11.994 8.61592C11.9854 8.60738 11.9769 8.59884 11.9598 8.5903L13.4681 7.082L14.7886 8.39394C14.874 8.47078 14.9764 8.51346 15.0874 8.51346C15.1984 8.51346 15.3094 8.47078 15.3948 8.3854C15.557 8.22319 15.557 7.94714 15.3862 7.78492L14.0657 6.48152L14.9423 5.5993L18.5024 9.18509L10.1356 17.6088ZM7.15314 17.7711L6.25954 16.8803L7.22998 15.8928L8.12358 16.7921L7.15314 17.7711ZM21.8776 4.89922L19.1171 2.12166C18.9464 1.95945 18.6732 1.95945 18.5138 2.12166C18.3431 2.29241 18.3431 2.56846 18.5138 2.73067L18.5224 2.74775L15.9156 5.37163L14.6207 4.06823C14.4585 3.90602 14.1853 3.90602 14.0259 4.06823C13.8551 4.23898 13.8551 4.51503 14.0259 4.67724L14.3418 4.99598L5.67045 13.7157C5.50824 13.8865 5.50824 14.1625 5.67045 14.3247L6.63235 15.2952L5.3574 16.5701C5.28057 16.6555 5.22934 16.7579 5.22934 16.8803C5.22934 16.9913 5.28057 17.1023 5.3574 17.1791L5.76721 17.5918L2.12166 21.2715C1.95945 21.4337 1.95945 21.7097 2.12166 21.8719C2.20704 21.9573 2.31802 22 2.41763 22C2.52862 22 2.63961 21.9573 2.72498 21.8719L6.37053 18.2008L6.84864 18.6817C6.93401 18.7671 7.03646 18.8098 7.15599 18.8098C7.26698 18.8098 7.37797 18.7671 7.4548 18.6817L8.7326 17.4039L9.83964 18.5195C9.92501 18.6049 10.0275 18.6476 10.1385 18.6476C10.2494 18.6476 10.3604 18.6049 10.4458 18.5195L19.1058 9.78841L19.4473 10.1328C19.5241 10.2181 19.6351 10.2608 19.7461 10.2608C19.8571 10.2608 19.9595 10.2181 20.0449 10.1328C20.2156 9.96201 20.2156 9.6945 20.0449 9.52375L18.6476 8.11789L21.2544 5.48547L21.28 5.51108C21.3654 5.59646 21.4678 5.63914 21.5788 5.63914C21.6898 5.63914 21.8008 5.59646 21.8862 5.51108C22.0398 5.34602 22.0398 5.07282 21.8776 4.89922Z" fill="#86888C"/>
</svg>
