<svg width="20" height="20" viewBox="0 0 20 20" fill="none" xmlns="http://www.w3.org/2000/svg">
<path fill-rule="evenodd" clip-rule="evenodd" d="M14.9906 15.009L14.9974 8.61716H5.66923V15.009C5.66923 15.0955 5.68289 15.1683 5.68516 15.2502H14.9747C14.9792 15.1683 14.9906 15.0932 14.9906 15.009ZM12.6711 17.3353C13.8502 17.3353 14.5923 16.8436 14.8677 15.9126H5.7967C5.89913 16.2541 6.0562 16.5432 6.2861 16.764C6.68217 17.1418 7.26035 17.3353 8.00697 17.3353H12.6711ZM6.29065 6.68004C5.9697 6.98734 5.77621 7.41528 5.70337 7.95248H14.9656C14.854 7.09205 14.4329 6.5298 13.7091 6.27258C13.5452 6.3864 13.3449 6.45241 13.1309 6.45241H7.47887C7.27856 6.45241 7.09418 6.39323 6.93712 6.29307C6.689 6.38868 6.46593 6.51159 6.29065 6.68004ZM7.12833 3.01295V5.43947C7.12833 5.63295 7.28539 5.79001 7.48115 5.79001H13.1332C13.3266 5.79001 13.486 5.63295 13.486 5.43947V3.01295C13.486 2.81946 13.3289 2.6624 13.1332 2.6624H7.47887C7.28539 2.6624 7.12833 2.81946 7.12833 3.01295ZM14.1074 5.71945C15.1135 6.15422 15.6667 7.10343 15.6667 8.43733L15.6598 15.0112C15.6598 16.9097 14.5695 18 12.6711 18H8.00697C7.08052 18 6.34756 17.7451 5.82174 17.242C5.27771 16.7185 5 15.9673 5 15.009V8.43733C5 7.47901 5.27771 6.72784 5.82629 6.2043C6.02205 6.01764 6.25878 5.87651 6.51601 5.75814C6.48186 5.65571 6.4591 5.551 6.4591 5.43947V3.01295C6.4591 2.45298 6.91663 2 7.47887 2H13.1309C13.6931 2 14.1507 2.45526 14.1507 3.01295V5.43947C14.1507 5.53735 14.1325 5.6284 14.1074 5.71945ZM8.15948 5.33248C7.9751 5.33248 7.82487 5.18452 7.82487 5.00014V3.45227C7.82487 3.26789 7.9751 3.11993 8.15948 3.11993C8.34386 3.11993 8.4941 3.26789 8.4941 3.45227V5.00014C8.4941 5.18225 8.34386 5.33248 8.15948 5.33248ZM9.59126 5.33248C9.40689 5.33248 9.25665 5.18452 9.25665 5.00014V3.45227C9.25665 3.26789 9.40689 3.11993 9.59126 3.11993C9.77564 3.11993 9.92588 3.26789 9.92588 3.45227V5.00014C9.9236 5.18225 9.77564 5.33248 9.59126 5.33248ZM11.0208 5.33248C10.8364 5.33248 10.6862 5.18452 10.6862 5.00014V3.45227C10.6862 3.26789 10.8364 3.11993 11.0208 3.11993C11.2051 3.11993 11.3554 3.26789 11.3554 3.45227V5.00014C11.3531 5.18225 11.2051 5.33248 11.0208 5.33248ZM12.4503 5.33248C12.2659 5.33248 12.1157 5.18452 12.1157 5.00014V3.45227C12.1157 3.26789 12.2659 3.11993 12.4503 3.11993C12.6347 3.11993 12.7849 3.26789 12.7849 3.45227V5.00014C12.7849 5.18225 12.6347 5.33248 12.4503 5.33248ZM8.09575 11.3054V12.307C8.09575 12.307 8.12306 12.3252 8.16403 12.3252H9.73239V13.8708C9.73239 13.9118 9.75288 13.9368 9.75971 13.9437H10.7681C10.7681 13.93 10.7886 13.9118 10.7886 13.8776L10.7818 12.3184H12.3433C12.3774 12.3184 12.4093 12.2911 12.4161 12.2843L12.4093 11.2895C12.4093 11.2759 12.3752 11.269 12.3501 11.269H10.7818V9.72343C10.7818 9.68929 10.7613 9.65742 10.7476 9.65059L9.74605 9.65742C9.74605 9.66425 9.72557 9.69612 9.72557 9.72343V11.2759H8.16176C8.12306 11.2781 8.10257 11.2986 8.09575 11.3054ZM8.16176 12.9899C7.76113 12.9899 7.42652 12.6849 7.42652 12.307V11.2918C7.42652 10.9208 7.76113 10.6157 8.16176 10.6157H9.05634V9.72798C9.05634 9.32963 9.37046 8.99957 9.74378 8.99957H10.7658C11.1323 8.99957 11.4487 9.33191 11.4487 9.72798V10.6112H12.3501C12.7439 10.6112 13.0785 10.923 13.0785 11.2941V12.3093C13.0785 12.6735 12.7439 12.9853 12.3433 12.9853H11.4487L11.4555 13.8799C11.4555 14.2783 11.1482 14.6083 10.7681 14.6083L9.74605 14.6015C9.37274 14.6015 9.06544 14.276 9.06544 13.8708V12.9876H8.16176V12.9899Z" fill="#86888C"/>
</svg>
