<svg width="24" height="24" viewBox="0 0 24 24" fill="none" xmlns="http://www.w3.org/2000/svg">
<path fill-rule="evenodd" clip-rule="evenodd" d="M16.5911 21.1662C17.5643 21.1662 19.1949 20.7934 19.1949 18.2977V18.144H5.82272V18.3005C5.82272 18.3347 5.81987 18.3688 5.81703 18.403C5.81703 18.4087 5.69751 19.5868 6.37764 20.3722C6.83296 20.8987 7.57855 21.1633 8.59449 21.1633L16.4317 21.1605C16.4516 21.1605 16.4744 21.1605 16.4943 21.1633C16.5 21.1662 16.5342 21.1662 16.5911 21.1662ZM6.9098 3.24644C6.17844 3.70176 5.82272 4.49858 5.82272 5.67957V17.3102H19.1949C19.1949 13.0415 19.1893 5.66818 19.1893 5.66818C19.1893 5.64257 19.1893 5.61696 19.1921 5.59419C19.1921 5.5885 19.2746 4.38759 18.5689 3.59932C18.1164 3.09277 17.405 2.83665 16.4488 2.83665L8.57457 2.8395C8.55465 2.8395 8.53757 2.8395 8.5205 2.83665H8.44936C8.24446 2.83381 7.53017 2.86227 6.9098 3.24644ZM19.9946 5.66534C19.9946 5.66534 20.0003 14.3079 20.0003 18.2977C20.0003 21.778 17.2826 22 16.5882 22C16.4858 22 16.4289 21.9943 16.4289 21.9943C16.4289 21.9943 12.6127 21.9972 8.59164 21.9972C4.57058 21.9972 5.01452 18.3005 5.01452 18.3005V17.7655C5.01168 17.7513 5.00599 17.7399 5.00599 17.7257C5.00599 17.7114 5.01168 17.7001 5.01452 17.6858V5.67957C5.01452 2.19636 7.81475 2 8.44651 2C8.52619 2 8.57172 2.00285 8.57172 2.00285C8.57172 2.00285 12.5814 2 16.4488 2C20.3133 2.00285 19.9946 5.66534 19.9946 5.66534ZM12.5017 18.9721C12.9656 18.9721 13.2445 19.2595 13.2445 19.7433C13.2445 19.9795 13.179 20.1673 13.0509 20.3039C12.92 20.4434 12.7294 20.5145 12.5017 20.5145C12.2741 20.5145 12.0834 20.4434 11.9525 20.3039C11.8244 20.1673 11.759 19.9795 11.759 19.7433C11.759 19.2595 12.035 18.9721 12.5017 18.9721Z" fill="#86888C"/>
</svg>
