<svg width="20" height="20" viewBox="0 0 20 20" fill="none" xmlns="http://www.w3.org/2000/svg">
<path fill-rule="evenodd" clip-rule="evenodd" d="M13.2729 17.333C14.0515 17.333 15.356 17.0347 15.356 15.0381V14.9152H4.65817V15.0404C4.65817 15.0677 4.6559 15.095 4.65362 15.1224C4.65362 15.1269 4.558 16.0694 5.10211 16.6978C5.46637 17.119 6.06284 17.3307 6.87559 17.3307L13.1454 17.3284C13.1613 17.3284 13.1795 17.3284 13.1955 17.3307C13.2 17.333 13.2273 17.333 13.2729 17.333ZM5.52784 2.99715C4.94275 3.36141 4.65817 3.99886 4.65817 4.94365V14.2482H15.356C15.356 10.8332 15.3514 4.93455 15.3514 4.93455C15.3514 4.91406 15.3514 4.89357 15.3537 4.87536C15.3537 4.8708 15.4197 3.91007 14.8551 3.27945C14.4931 2.87422 13.924 2.66932 13.159 2.66932L6.85965 2.6716C6.84372 2.6716 6.83006 2.6716 6.8164 2.66932H6.75948C6.59557 2.66705 6.02414 2.68981 5.52784 2.99715ZM15.9957 4.93227C15.9957 4.93227 16.0002 11.8463 16.0002 15.0381C16.0002 17.8224 13.8261 18 13.2706 18C13.1886 18 13.1431 17.9954 13.1431 17.9954C13.1431 17.9954 10.0902 17.9977 6.87331 17.9977C3.65647 17.9977 4.01162 15.0404 4.01162 15.0404V14.6124C4.00934 14.601 4.00479 14.5919 4.00479 14.5805C4.00479 14.5692 4.00934 14.56 4.01162 14.5487V4.94365C4.01162 2.15709 6.2518 2 6.75721 2C6.82095 2 6.85738 2.00228 6.85738 2.00228C6.85738 2.00228 10.0651 2 13.159 2C16.2507 2.00228 15.9957 4.93227 15.9957 4.93227ZM10.0014 15.5777C10.3725 15.5777 10.5956 15.8076 10.5956 16.1947C10.5956 16.3836 10.5432 16.5339 10.4408 16.6431C10.336 16.7547 10.1835 16.8116 10.0014 16.8116C9.81924 16.8116 9.66671 16.7547 9.56199 16.6431C9.45954 16.5339 9.40718 16.3836 9.40718 16.1947C9.40718 15.8076 9.62801 15.5777 10.0014 15.5777Z" fill="#86888C"/>
</svg>
