<svg width="40" height="40" viewBox="0 0 40 40" fill="none" xmlns="http://www.w3.org/2000/svg">
<path d="M38.0049 4.45387H37.9895V19.6689C37.8512 20.4373 37.4772 21.1392 36.9137 21.6822L21.6833 36.8204C21.0532 37.5171 20.1772 37.9372 19.2448 37.9986C18.6813 38.0191 18.1383 37.8091 17.7285 37.4249L2.56979 22.2867C1.63743 21.0469 1.87308 19.2847 3.10258 18.3318L18.3483 3.06044C18.8763 2.5226 19.552 2.15354 20.2899 2L35.551 2C36.9035 2 38.0049 3.0963 38.0049 4.45387ZM36.4885 19.4435V4.45387C36.4885 3.93646 36.0684 3.51638 35.551 3.51638H20.5614C20.126 3.61371 19.7315 3.84424 19.4241 4.16699L4.13228 19.382C3.4663 20.048 3.31262 20.883 3.61487 21.1801L18.7735 36.3234C19.0758 36.6257 19.9416 36.4566 20.5922 35.8111L35.8533 20.5808C36.1811 20.2785 36.4014 19.8789 36.4885 19.4435ZM29.0347 5.99586C30.213 6.08808 31.3144 6.63623 32.0931 7.52761C32.9947 8.32678 33.5377 9.4487 33.6095 10.6475C33.5787 11.8462 33.0613 12.9784 32.1699 13.7827C31.3861 14.6433 30.3001 15.1556 29.1372 15.2222C27.9333 15.1556 26.8011 14.6075 25.9968 13.7058C25.0952 12.9015 24.5522 11.7745 24.4804 10.5706C24.5112 9.37185 25.0337 8.23969 25.92 7.4354C26.7243 6.55938 27.8462 6.04197 29.0347 5.99586ZM31.1402 12.5993C31.7191 12.0972 32.0726 11.38 32.1084 10.6167C32.0521 9.81755 31.6832 9.0696 31.0787 8.54194C30.5562 7.94256 29.8134 7.57372 29.0193 7.51224C28.2355 7.55835 27.503 7.91695 26.9855 8.51121C26.3964 9.0235 26.0378 9.74583 25.9866 10.5245C26.0429 11.3237 26.4118 12.0716 27.0163 12.5993C27.5491 13.1935 28.297 13.5521 29.0911 13.5982C29.8749 13.5265 30.6023 13.173 31.1402 12.5993Z" fill="#86888C"/>
</svg>
