<svg width="28" height="28" viewBox="0 0 28 28" fill="none" xmlns="http://www.w3.org/2000/svg">
<path fill-rule="evenodd" clip-rule="evenodd" d="M14.4753 22.4613C16.4798 22.3861 22.0291 21.5324 22.3228 14.6001H21.4963C21.2232 14.6001 20.9978 14.3782 20.9978 14.1016C20.9978 13.8284 21.2197 13.603 21.4963 13.603H22.3296C22.1008 6.58876 16.5345 5.66332 14.4753 5.57111V6.58193C14.4753 6.85853 14.2533 7.0805 13.9767 7.0805C13.7001 7.0805 13.4781 6.85853 13.4781 6.58193V5.55062H13.4235C11.5829 5.5677 5.65799 6.21653 5.45309 13.603H6.45366C6.72685 13.603 6.95224 13.825 6.95224 14.1016C6.95224 14.3748 6.73027 14.6001 6.45366 14.6001H5.46334C5.79117 21.7612 11.6307 22.4442 13.4781 22.4715V21.6212C13.4781 21.3446 13.7001 21.1226 13.9767 21.1226C14.2533 21.1226 14.4753 21.3446 14.4753 21.6212V22.4613ZM25.4781 13.603C25.7513 13.603 25.9767 13.825 25.9767 14.1016C25.9767 14.3748 25.7547 14.6001 25.4781 14.6001H23.3165C22.9989 22.6081 16.2237 23.3935 14.4719 23.4584V25.603C14.4719 25.8796 14.2499 26.1016 13.9733 26.1016C13.6967 26.1016 13.4747 25.8796 13.4747 25.603V23.4653H13.4713C12.0029 23.4482 4.82475 22.8915 4.47301 14.6001H2.47529C2.2021 14.5865 1.98696 14.3543 2.00062 14.0811C2.01086 13.825 2.21917 13.6166 2.47529 13.6064H4.45594C4.67449 5.08961 11.9346 4.57054 13.4167 4.5603H13.4781V2.60014C13.4781 2.32353 13.7001 2.10156 13.9767 2.10156C14.2533 2.10156 14.4753 2.32353 14.4753 2.60014V4.57396C16.2886 4.65592 23.0809 5.51989 23.3267 13.603H25.4781ZM12.6483 10.1061C12.3819 10.3656 12.2488 10.7925 12.2488 11.3799C12.2488 11.9672 12.3819 12.3941 12.6483 12.6502C12.9044 12.8995 13.3245 13.0224 13.8879 13.0224C14.4582 13.0224 14.8783 12.8961 15.1378 12.6468C15.4041 12.3907 15.5373 11.9638 15.5373 11.3799C15.5373 10.7925 15.4041 10.3656 15.1378 10.1095C14.8783 9.86024 14.4582 9.73048 13.8913 9.73048C13.3245 9.73048 12.9044 9.86024 12.6483 10.1061ZM13.8879 14.0196C13.0547 14.0196 12.4059 13.8011 11.9551 13.3674C11.4872 12.9166 11.2516 12.2507 11.2516 11.3833C11.2516 10.5159 11.4872 9.84658 11.9551 9.3924C12.4059 8.95871 13.0547 8.73674 13.8879 8.73674C14.7246 8.73674 15.3734 8.95529 15.8276 9.3924C16.2954 9.84658 16.5345 10.5159 16.5345 11.3799C16.5345 12.2439 16.2954 12.9132 15.8276 13.3674C15.3768 13.8011 14.7246 14.0196 13.8879 14.0196ZM17.5897 18.2917V18.1073C17.5897 17.7043 17.5043 17.1374 17.1082 16.7242C16.6642 16.2666 15.9881 16.171 15.4998 16.171H12.2829C11.7946 16.171 11.1184 16.2666 10.6813 16.7242C10.2852 17.1374 10.1998 17.7077 10.1998 18.1073V18.2917H17.5897ZM15.4998 15.1738C16.4798 15.1738 17.2823 15.4709 17.8253 16.0344C18.3239 16.5535 18.5868 17.2706 18.5868 18.1073V18.9849C18.5868 19.1522 18.4537 19.2854 18.2863 19.2854H9.50318C9.33585 19.2854 9.20267 19.1522 9.20267 18.9849V18.1038C9.20267 17.2672 9.46561 16.5501 9.96078 16.031C10.5003 15.4675 11.3028 15.1704 12.2795 15.1704L15.4998 15.1738Z" fill="#86888C"/>
</svg>
