<svg width="24" height="24" viewBox="0 0 24 24" fill="none" xmlns="http://www.w3.org/2000/svg">
<path fill-rule="evenodd" clip-rule="evenodd" d="M12.3961 19.068C14.0665 19.0054 18.6909 18.2939 18.9356 12.517H18.247C18.0193 12.517 17.8315 12.3321 17.8315 12.1016C17.8315 11.8739 18.0165 11.6861 18.247 11.6861H18.9413C18.7507 5.84089 14.1121 5.06969 12.3961 4.99285V5.8352C12.3961 6.06571 12.2111 6.25068 11.9806 6.25068C11.7501 6.25068 11.5651 6.06571 11.5651 5.8352V4.97578H11.5196C9.98572 4.99001 5.04832 5.5307 4.87758 11.6861H5.71138C5.93905 11.6861 6.12687 11.8711 6.12687 12.1016C6.12687 12.3292 5.94189 12.517 5.71138 12.517H4.88611C5.15931 18.4846 10.0256 19.0538 11.5651 19.0765V18.3679C11.5651 18.1374 11.7501 17.9524 11.9806 17.9524C12.2111 17.9524 12.3961 18.1374 12.3961 18.3679V19.068ZM21.5651 11.6861C21.7928 11.6861 21.9806 11.8711 21.9806 12.1016C21.9806 12.3292 21.7956 12.517 21.5651 12.517H19.7637C19.4991 19.1904 13.8531 19.8449 12.3932 19.8989V21.6861C12.3932 21.9166 12.2083 22.1016 11.9777 22.1016C11.7472 22.1016 11.5623 21.9166 11.5623 21.6861V19.9046H11.5594C10.3357 19.8904 4.35396 19.4265 4.06084 12.517H2.39607C2.16841 12.5057 1.98913 12.3121 2.00051 12.0845C2.00905 11.8711 2.18264 11.6975 2.39607 11.6889H4.04661C4.22874 4.5916 10.2788 4.15905 11.5139 4.15051H11.5651V2.51704C11.5651 2.28654 11.7501 2.10156 11.9806 2.10156C12.2111 2.10156 12.3961 2.28654 12.3961 2.51704V4.16189C13.9072 4.23019 19.5674 4.95017 19.7723 11.6861H21.5651ZM10.8736 8.77202C10.6516 8.9883 10.5406 9.34402 10.5406 9.83349C10.5406 10.323 10.6516 10.6787 10.8736 10.8921C11.087 11.0999 11.4371 11.2023 11.9066 11.2023C12.3818 11.2023 12.7319 11.097 12.9482 10.8893C13.1701 10.6758 13.2811 10.3201 13.2811 9.83349C13.2811 9.34402 13.1701 8.9883 12.9482 8.77487C12.7319 8.56713 12.3818 8.45899 11.9095 8.45899C11.4371 8.45899 11.087 8.56713 10.8736 8.77202ZM11.9066 12.0333C11.2122 12.0333 10.6715 11.8511 10.2959 11.4897C9.90603 11.1141 9.70968 10.5592 9.70968 9.83634C9.70968 9.11351 9.90603 8.55575 10.2959 8.17726C10.6715 7.81585 11.2122 7.63087 11.9066 7.63087C12.6038 7.63087 13.1445 7.813 13.523 8.17726C13.9129 8.55575 14.1121 9.11352 14.1121 9.83349C14.1121 10.5535 13.9129 11.1112 13.523 11.4897C13.1474 11.8511 12.6038 12.0333 11.9066 12.0333ZM14.9914 15.5933V15.4396C14.9914 15.1038 14.9203 14.6314 14.5902 14.2871C14.2202 13.9058 13.6567 13.8261 13.2498 13.8261H10.5691C10.1622 13.8261 9.59869 13.9058 9.23444 14.2871C8.90433 14.6314 8.83318 15.1067 8.83318 15.4396V15.5933H14.9914ZM13.2498 12.9951C14.0665 12.9951 14.7353 13.2427 15.1878 13.7123C15.6032 14.1448 15.8224 14.7424 15.8224 15.4396V16.171C15.8224 16.3104 15.7114 16.4214 15.5719 16.4214H8.25265C8.11321 16.4214 8.00222 16.3104 8.00222 16.171V15.4368C8.00222 14.7396 8.22134 14.142 8.63398 13.7094C9.08361 13.2399 9.75236 12.9923 10.5663 12.9923L13.2498 12.9951Z" fill="#86888C"/>
</svg>
