<svg width="40" height="40" viewBox="0 0 40 40" fill="none" xmlns="http://www.w3.org/2000/svg">
<path fill-rule="evenodd" clip-rule="evenodd" d="M20.7129 32.6411C23.7198 32.5284 32.0436 31.2478 32.4841 20.8494H31.2445C30.8347 20.8494 30.4967 20.5165 30.4967 20.1016C30.4967 19.6918 30.8296 19.3537 31.2445 19.3537H32.4944C32.1512 8.83235 23.8017 7.44419 20.7129 7.30589V8.82211C20.7129 9.23702 20.38 9.56997 19.9651 9.56997C19.5502 9.56997 19.2172 9.23702 19.2172 8.82211V7.27515H19.1352C16.3743 7.30077 7.48698 8.27401 7.17964 19.3537H8.68049C9.09028 19.3537 9.42836 19.6867 9.42836 20.1016C9.42836 20.5114 9.0954 20.8494 8.68049 20.8494H7.195C7.68675 31.591 16.446 32.6155 19.2172 32.6565V31.381C19.2172 30.9661 19.5502 30.6332 19.9651 30.6332C20.38 30.6332 20.7129 30.9661 20.7129 31.381V32.6411ZM37.2172 19.3537C37.627 19.3537 37.9651 19.6867 37.9651 20.1016C37.9651 20.5114 37.6321 20.8494 37.2172 20.8494H33.9747C33.4984 32.8614 23.3356 34.0395 20.7078 34.1369V37.3537C20.7078 37.7686 20.3749 38.1016 19.9599 38.1016C19.545 38.1016 19.2121 37.7686 19.2121 37.3537V34.1471H19.207C17.0043 34.1215 6.23712 33.2865 5.70952 20.8494H2.71293C2.30314 20.8289 1.98043 20.4806 2.00092 20.0708C2.01629 19.6866 2.32876 19.3742 2.71293 19.3588H5.68391C6.01174 6.58363 16.9019 5.80503 19.125 5.78967H19.2172V2.84943C19.2172 2.43452 19.5502 2.10156 19.9651 2.10156C20.38 2.10156 20.7129 2.43452 20.7129 2.84943V5.81016C23.4329 5.93309 33.6213 7.22905 33.9901 19.3537H37.2172ZM17.9725 14.1084C17.5729 14.4977 17.3731 15.138 17.3731 16.019C17.3731 16.9001 17.5729 17.5404 17.9725 17.9246C18.3566 18.2985 18.9867 18.4829 19.8319 18.4829C20.6873 18.4829 21.3174 18.2934 21.7067 17.9194C22.1062 17.5353 22.306 16.895 22.306 16.019C22.306 15.138 22.1062 14.4977 21.7067 14.1135C21.3174 13.7396 20.6873 13.5449 19.837 13.5449C18.9867 13.5449 18.3566 13.7396 17.9725 14.1084ZM19.8319 19.9786C18.582 19.9786 17.6088 19.6508 16.9326 19.0003C16.2309 18.3241 15.8774 17.3252 15.8774 16.0242C15.8774 14.7231 16.2309 13.7191 16.9326 13.0378C17.6088 12.3873 18.582 12.0543 19.8319 12.0543C21.0869 12.0543 22.0601 12.3822 22.7414 13.0378C23.4432 13.7191 23.8017 14.7231 23.8017 16.019C23.8017 17.315 23.4432 18.319 22.7414 19.0003C22.0652 19.6508 21.0869 19.9786 19.8319 19.9786ZM25.3845 26.3867V26.1101C25.3845 25.5057 25.2565 24.6553 24.6623 24.0355C23.9964 23.3491 22.9821 23.2057 22.2496 23.2057H17.4244C16.6919 23.2057 15.6776 23.3491 15.022 24.0355C14.4278 24.6553 14.2997 25.5108 14.2997 26.1101V26.3867H25.3845ZM22.2496 21.71C23.7198 21.71 24.9235 22.1556 25.738 23.0008C26.4858 23.7794 26.8803 24.8551 26.8803 26.1101V27.4265C26.8803 27.6775 26.6805 27.8773 26.4295 27.8773H13.2548C13.0038 27.8773 12.804 27.6775 12.804 27.4265V26.105C12.804 24.85 13.1984 23.7743 13.9412 22.9957C14.7505 22.1505 15.9543 21.7049 17.4193 21.7049L22.2496 21.71Z" fill="#86888C"/>
</svg>
