<svg width="40" height="40" viewBox="0 0 40 40" fill="none" xmlns="http://www.w3.org/2000/svg">
<path fill-rule="evenodd" clip-rule="evenodd" d="M13.2513 11.0833C13.0361 10.8834 12.9234 10.5863 12.9234 10.197C12.9234 9.8076 13.031 9.50534 13.2513 9.30554C13.4614 9.11086 13.7636 9.01352 14.1581 9.01352C14.5475 9.01352 14.8548 9.11086 15.0649 9.30554C15.2801 9.50534 15.3928 9.8076 15.3928 10.197C15.3928 10.5863 15.2801 10.8834 15.0649 11.0833C14.8548 11.2779 14.5475 11.3753 14.1581 11.3753C13.7687 11.3753 13.4665 11.2728 13.2513 11.0833ZM24.8449 11.3753C24.4555 11.3753 24.1481 11.2779 23.9381 11.0833C23.7178 10.8834 23.6102 10.5863 23.6102 10.197C23.6102 9.8076 23.7178 9.51046 23.9381 9.31066C24.1481 9.11598 24.4555 9.01352 24.8449 9.01352C25.2342 9.01352 25.5416 9.11086 25.7517 9.31066C25.972 9.51046 26.0795 9.8076 26.0795 10.197C26.0795 10.5863 25.9668 10.8834 25.7517 11.0833C25.5365 11.2779 25.2291 11.3753 24.8449 11.3753ZM34.338 30.7662C34.3482 30.6637 34.338 30.5305 34.3329 30.4793C34.2714 29.7108 34.0613 29.2036 33.6412 28.8143C33.1853 28.3891 32.4885 28.179 31.5715 28.179C30.6545 28.179 29.9526 28.3942 29.4967 28.8194C29.1585 29.1319 28.9434 29.5725 28.846 30.1309L28.805 30.5356C28.7948 30.6432 28.7794 30.7406 28.7794 30.8533C28.7794 30.8891 28.7589 30.925 28.7538 30.9609L28.4259 34.0552C28.431 34.8647 28.6411 35.4743 29.0663 35.8585C29.471 36.2325 30.1063 36.4272 30.9362 36.4272C31.7662 36.4272 32.3912 36.2377 32.7959 35.8585C32.9189 35.7458 33.0111 35.6126 33.0982 35.4692C33.0982 35.4692 33.9486 32.1853 34.2663 31.0685C34.2919 31.0172 34.3329 30.8635 34.338 30.7662ZM27.3142 29.5162C27.5038 28.7835 27.8419 28.1585 28.3593 27.6821C28.7538 27.3235 29.2303 27.0519 29.7733 26.8675C29.8348 26.3091 29.886 25.7353 29.886 25.1257C29.886 22.2977 29.1995 20.0435 27.8573 18.399C27.5909 18.7372 27.3398 19.0804 27.0222 19.3775C25.2547 21.0067 22.729 21.8315 19.5425 21.8469V21.852C19.5271 21.852 19.5169 21.8469 19.5015 21.8469C19.4912 21.8469 19.481 21.852 19.4656 21.852V21.8469C16.2688 21.8315 13.7534 21.0067 11.9808 19.3775C11.6683 19.0855 11.4121 18.7372 11.1457 18.399C9.80347 20.0435 9.11698 22.2977 9.11698 25.1257C9.11698 25.7353 9.16308 26.3091 9.22968 26.8675C9.77786 27.0468 10.2492 27.3235 10.6437 27.6821C11.1611 28.1585 11.4941 28.7835 11.6836 29.5162C11.7246 29.593 11.7554 29.675 11.7656 29.7621L11.7759 29.8492C11.7964 29.9414 11.7964 30.0438 11.8117 30.1412L12.0884 32.7847C13.7944 34.2755 16.2022 35.0132 19.4554 35.0132H19.4656V35.0081H19.5425V35.0132H19.5527C22.8059 35.0132 25.2137 34.2755 26.9197 32.7847L27.2015 30.1412C27.2169 30.0438 27.2169 29.9414 27.2374 29.8492L27.2476 29.7621C27.2425 29.675 27.2784 29.593 27.3142 29.5162ZM9.93155 35.8585C10.3516 35.4743 10.5668 34.8647 10.5719 34.0552L10.2389 30.9609C10.2338 30.925 10.2184 30.8891 10.2184 30.8533C10.2184 30.7406 10.2031 30.6381 10.1928 30.5356L10.1518 30.1309C10.0494 29.5725 9.83933 29.1319 9.50121 28.8194C9.04013 28.3942 8.34339 28.179 7.42635 28.179C6.50932 28.179 5.81258 28.3942 5.35662 28.8143C4.93653 29.2036 4.72648 29.716 4.66501 30.4793C4.65988 30.5254 4.64964 30.6637 4.65988 30.7662C4.66501 30.8635 4.71111 31.0172 4.72648 31.0633C5.03899 32.1802 5.89455 35.4641 5.89455 35.4641C5.98164 35.6126 6.07898 35.7458 6.19681 35.8534C6.60666 36.2325 7.23168 36.4221 8.06162 36.4221C8.89156 36.4221 9.5217 36.2325 9.93155 35.8585ZM5.92016 20.7454C3.54817 23.4094 5.33101 25.4023 6.20706 26.14C6.31977 26.2322 6.43247 26.3245 6.52981 26.3962C6.60666 26.4628 6.73474 26.5499 6.87818 26.6421C7.06261 26.6267 7.23168 26.6011 7.42123 26.6011C7.47246 26.6011 7.51345 26.6114 7.56468 26.6114C7.52369 26.1247 7.47246 25.6431 7.47246 25.1257C7.47246 22.4975 8.04113 20.2997 9.10673 18.5271C8.05137 19.0599 6.59129 19.9923 5.92016 20.7454ZM9.72662 8.27067C10.1826 6.7696 10.9152 5.48883 11.9808 4.50007C12.1037 4.38736 12.2626 4.30539 12.3958 4.19781C11.6888 3.70599 10.4695 3.27565 9.20407 4.70499C7.80546 6.27266 8.70713 7.44073 9.36801 7.99402L9.57805 8.16821C9.61392 8.19382 9.67539 8.23481 9.72662 8.27067ZM19.5015 3.58304C16.735 3.59328 14.5884 4.27978 13.1232 5.63228C11.6068 7.04113 10.8332 9.16209 10.8332 11.9439C10.8332 14.7258 11.6068 16.8416 13.1232 18.2453C14.4399 19.4595 16.3457 20.105 18.7382 20.228V14.0905C18.2771 13.9778 17.8775 13.7831 17.5598 13.486C17.2678 13.2196 17.0373 12.8815 16.9297 12.487C16.9041 12.3794 16.8887 12.2513 16.8836 12.0566C16.8785 11.8671 16.9246 11.7749 16.9656 11.6827C17.0936 11.406 17.2627 11.155 17.4881 10.95C17.9799 10.4992 18.6511 10.2687 19.4656 10.2379V10.2277C19.481 10.2277 19.4912 10.2328 19.5015 10.2328C19.5169 10.2328 19.5271 10.2277 19.5425 10.2277V10.2379C20.3519 10.2687 21.0231 10.4941 21.52 10.95C21.7454 11.1601 21.9093 11.406 22.0425 11.6827C22.0835 11.7749 22.1296 11.8671 22.1245 12.0566C22.1194 12.2513 22.104 12.3794 22.0784 12.487C21.9708 12.8815 21.7454 13.2196 21.4534 13.486C21.1358 13.7831 20.7362 13.9778 20.2751 14.0905V20.228C22.6624 20.0999 24.5734 19.4544 25.8849 18.2453C27.4064 16.8416 28.18 14.7258 28.18 11.9439C28.18 9.16209 27.4064 7.04113 25.8849 5.63228C24.4145 4.27978 22.268 3.58816 19.5015 3.58304ZM29.804 4.69987C28.5335 3.27053 27.3193 3.70087 26.6124 4.19269C26.7456 4.30027 26.8992 4.38224 27.0222 4.49495C28.0878 5.48371 28.8204 6.76448 29.2764 8.26555C29.3276 8.22969 29.3891 8.1887 29.4301 8.16309L29.6401 7.9889C30.2959 7.44073 31.2026 6.27266 29.804 4.69987ZM33.0777 20.7454C32.4117 19.9923 30.9516 19.0599 29.8963 18.5322C30.967 20.3048 31.5305 22.5026 31.5305 25.1308C31.5305 25.6482 31.4793 26.1298 31.4332 26.6165C31.4844 26.6165 31.5254 26.6062 31.5766 26.6062C31.7713 26.6062 31.9404 26.6318 32.1197 26.6472C32.258 26.555 32.3861 26.4679 32.468 26.4013C32.5654 26.3245 32.6832 26.2322 32.7959 26.1452C33.672 25.4023 35.4497 23.4043 33.0777 20.7454ZM35.9927 30.6227C35.9927 30.6227 35.9927 30.7355 35.9979 30.7355C35.9979 30.7355 35.9927 30.8891 35.9722 30.9865C35.9518 31.1299 35.88 31.4066 35.8749 31.4424L34.6659 35.9815C34.6607 35.9969 34.6454 36.0071 34.6402 36.0225C34.6249 36.0635 34.6249 36.1096 34.5993 36.1506C34.4302 36.4682 34.2048 36.7551 33.9486 36.9907C33.2211 37.6619 32.2119 38 30.9414 38C29.6657 38 28.6565 37.6619 27.929 36.9959C27.3398 36.4579 26.9812 35.7305 26.848 34.8391V34.8339C24.9678 36.0071 22.5651 36.5911 19.5476 36.5911H19.4503C16.4328 36.5911 14.0351 36.0071 12.1498 34.8339V34.8391C12.0115 35.7253 11.658 36.4528 11.0638 36.9959C10.3414 37.6619 9.32702 38 8.0565 38C6.78597 38 5.7716 37.6619 5.04924 36.9907C4.79308 36.75 4.56767 36.4682 4.39861 36.1506C4.37299 36.1096 4.37299 36.0635 4.35762 36.0225C4.3525 36.0071 4.332 35.9969 4.332 35.9815L3.12295 31.4424C3.11271 31.4117 3.05123 31.1299 3.02562 30.9865C3.00512 30.884 3 30.7355 3 30.7355V30.6227C3.02562 29.3266 3.42522 28.4096 4.1988 27.6821C4.42422 27.4772 4.67525 27.3081 4.9519 27.1595C3.06148 25.4689 2.02661 22.6819 4.66501 19.7208C5.76647 18.4861 8.65077 16.8211 9.88032 16.5701C9.91618 16.565 10.0391 16.5291 10.0391 16.5291C9.49096 15.2227 9.18358 13.6858 9.18358 11.9439C9.18358 11.1857 9.24505 10.4787 9.34752 9.80248C9.25018 9.79223 9.14772 9.78198 9.06062 9.73588C9.01451 9.71026 8.92742 9.66415 8.89156 9.63341C8.75836 9.55144 8.62004 9.44898 8.52782 9.37726L8.27679 9.17234C6.89355 8.01452 5.98164 5.87818 7.93866 3.67525C9.90593 1.4672 12.2369 2 13.6407 3.12196C13.6919 3.16807 13.7278 3.2193 13.7636 3.27053C15.3159 2.45083 17.2166 2.01537 19.4605 2.00512V2H19.5374V2.00512C21.7813 2.01537 23.6768 2.45596 25.2342 3.27053C25.2701 3.2193 25.306 3.16294 25.3572 3.12196C26.7609 2 29.0919 1.47232 31.0592 3.67525C33.0213 5.87818 32.1043 8.00939 30.7262 9.17234L30.4752 9.37726C30.3881 9.44898 30.2497 9.55144 30.1165 9.63341C30.0756 9.66415 29.9936 9.71026 29.9475 9.73588C29.8604 9.77686 29.7579 9.78711 29.6606 9.80248C29.7631 10.4787 29.8245 11.1857 29.8245 11.9439C29.8245 13.6858 29.512 15.2227 28.969 16.5291C28.969 16.5291 29.0868 16.565 29.1278 16.5701C30.3522 16.8262 33.2416 18.4861 34.3431 19.7208C36.9815 22.6819 35.9466 25.4689 34.0562 27.1595C34.3277 27.3081 34.589 27.4772 34.8093 27.6821C35.5726 28.4096 35.9671 29.3317 35.9927 30.6227Z" fill="#86888C"/>
</svg>
