<svg width="28" height="28" viewBox="0 0 28 28" fill="none" xmlns="http://www.w3.org/2000/svg">
<path fill-rule="evenodd" clip-rule="evenodd" d="M9.83421 8.0555C9.69076 7.9223 9.61562 7.72421 9.61562 7.46464C9.61562 7.20507 9.68735 7.00356 9.83421 6.87036C9.97424 6.74057 10.1758 6.67568 10.4387 6.67568C10.6983 6.67568 10.9032 6.74057 11.0433 6.87036C11.1867 7.00356 11.2618 7.20507 11.2618 7.46464C11.2618 7.72421 11.1867 7.9223 11.0433 8.0555C10.9032 8.18529 10.6983 8.25018 10.4387 8.25018C10.1792 8.25018 9.97766 8.18187 9.83421 8.0555ZM17.5633 8.25018C17.3037 8.25018 17.0988 8.18529 16.9587 8.0555C16.8119 7.9223 16.7401 7.72421 16.7401 7.46464C16.7401 7.20507 16.8119 7.00697 16.9587 6.87377C17.0988 6.74399 17.3037 6.67568 17.5633 6.67568C17.8228 6.67568 18.0277 6.74057 18.1678 6.87377C18.3146 7.00697 18.3864 7.20507 18.3864 7.46464C18.3864 7.72421 18.3112 7.9223 18.1678 8.0555C18.0243 8.18529 17.8194 8.25018 17.5633 8.25018ZM23.892 21.1775C23.8988 21.1091 23.892 21.0203 23.8886 20.9862C23.8476 20.4739 23.7076 20.1358 23.4275 19.8762C23.1235 19.5927 22.659 19.4527 22.0477 19.4527C21.4363 19.4527 20.9684 19.5961 20.6644 19.8796C20.439 20.0879 20.2956 20.3817 20.2307 20.7539L20.2034 21.0238C20.1965 21.0955 20.1863 21.1604 20.1863 21.2355C20.1863 21.2594 20.1726 21.2833 20.1692 21.3072L19.9506 23.3701C19.954 23.9098 20.0941 24.3162 20.3775 24.5724C20.6474 24.8217 21.0709 24.9515 21.6242 24.9515C22.1775 24.9515 22.5941 24.8251 22.864 24.5724C22.9459 24.4972 23.0074 24.4084 23.0655 24.3128C23.0655 24.3128 23.6324 22.1235 23.8442 21.379C23.8612 21.3448 23.8886 21.2423 23.892 21.1775ZM19.2095 20.3441C19.3358 19.8557 19.5613 19.439 19.9062 19.1214C20.1692 18.8823 20.4868 18.7013 20.8489 18.5783C20.8899 18.2061 20.924 17.8235 20.924 17.4171C20.924 15.5318 20.4663 14.029 19.5715 12.9327C19.3939 13.1581 19.2266 13.3869 19.0148 13.585C17.8365 14.6711 16.1527 15.221 14.0283 15.2312V15.2347C14.0181 15.2347 14.0112 15.2312 14.001 15.2312C13.9942 15.2312 13.9873 15.2347 13.9771 15.2347V15.2312C11.8459 15.221 10.1689 14.6711 8.98719 13.585C8.77885 13.3904 8.60808 13.1581 8.43048 12.9327C7.53565 14.029 7.07798 15.5318 7.07798 17.4171C7.07798 17.8235 7.10872 18.2061 7.15312 18.5783C7.51857 18.6979 7.83279 18.8823 8.09577 19.1214C8.44073 19.439 8.66273 19.8557 8.7891 20.3441C8.81642 20.3953 8.83691 20.45 8.84374 20.508L8.85058 20.5661C8.86424 20.6276 8.86424 20.6959 8.87448 20.7608L9.05892 22.5231C10.1962 23.517 11.8015 24.0088 13.9703 24.0088H13.9771V24.0054H14.0283V24.0088H14.0351C16.2039 24.0088 17.8092 23.517 18.9465 22.5231L19.1343 20.7608C19.1446 20.6959 19.1446 20.6276 19.1582 20.5661L19.1651 20.508C19.1617 20.45 19.1856 20.3953 19.2095 20.3441ZM7.62103 24.5724C7.9011 24.3162 8.04454 23.9098 8.04796 23.3701L7.82596 21.3072C7.82254 21.2833 7.81229 21.2594 7.81229 21.2355C7.81229 21.1604 7.80205 21.0921 7.79522 21.0238L7.76789 20.7539C7.69959 20.3817 7.55956 20.0879 7.33414 19.8796C7.02675 19.5961 6.56226 19.4527 5.9509 19.4527C5.33955 19.4527 4.87505 19.5961 4.57108 19.8762C4.29102 20.1358 4.15099 20.4773 4.11 20.9862C4.10659 21.0169 4.09976 21.1091 4.10659 21.1775C4.11 21.2423 4.14074 21.3448 4.15099 21.3755C4.35933 22.1201 4.9297 24.3094 4.9297 24.3094C4.98776 24.4084 5.05265 24.4972 5.13121 24.5689C5.40444 24.8217 5.82112 24.9481 6.37441 24.9481C6.92771 24.9481 7.3478 24.8217 7.62103 24.5724ZM4.94678 14.4969C3.36545 16.2729 4.55401 17.6015 5.13804 18.0934C5.21318 18.1548 5.28832 18.2163 5.35321 18.2641C5.40444 18.3085 5.48982 18.3666 5.58546 18.4281C5.70841 18.4178 5.82112 18.4007 5.94749 18.4007C5.98164 18.4007 6.00897 18.4076 6.04312 18.4076C6.0158 18.0831 5.98164 17.7621 5.98164 17.4171C5.98164 15.665 6.36075 14.1998 7.07115 13.0181C6.36758 13.3733 5.39419 13.9949 4.94678 14.4969ZM7.48442 6.18045C7.78839 5.17974 8.27679 4.32589 8.98719 3.66671C9.06916 3.59158 9.17504 3.53693 9.26384 3.46521C8.79251 3.13733 7.97965 2.85043 7.13605 3.80333C6.20364 4.84844 6.80475 5.62715 7.24534 5.99602L7.38537 6.11214C7.40928 6.12922 7.45026 6.15654 7.48442 6.18045ZM14.001 3.05536C12.1567 3.06219 10.7256 3.51985 9.74883 4.42152C8.73787 5.36075 8.22214 6.77473 8.22214 8.62929C8.22214 10.4838 8.73787 11.8944 9.74883 12.8302C10.6266 13.6397 11.8971 14.07 13.4921 14.152V10.0603C13.1847 9.9852 12.9183 9.85541 12.7066 9.65732C12.5119 9.47972 12.3582 9.2543 12.2865 8.99132C12.2694 8.9196 12.2591 8.83421 12.2557 8.70443C12.2523 8.57806 12.2831 8.51658 12.3104 8.4551C12.3958 8.27067 12.5085 8.10332 12.6587 7.9667C12.9866 7.66614 13.434 7.51245 13.9771 7.49196V7.48513C13.9873 7.48513 13.9942 7.48854 14.001 7.48854C14.0112 7.48854 14.0181 7.48513 14.0283 7.48513V7.49196C14.568 7.51245 15.0154 7.66273 15.3467 7.9667C15.4969 8.10673 15.6062 8.27067 15.695 8.4551C15.7224 8.51658 15.7531 8.57806 15.7497 8.70443C15.7463 8.83421 15.736 8.9196 15.7189 8.99132C15.6472 9.2543 15.4969 9.47972 15.3023 9.65732C15.0905 9.85541 14.8241 9.9852 14.5167 10.0603V14.152C16.1083 14.0666 17.3822 13.6363 18.2566 12.8302C19.271 11.8944 19.7867 10.4838 19.7867 8.62929C19.7867 6.77473 19.271 5.36075 18.2566 4.42152C17.2764 3.51985 15.8453 3.05877 14.001 3.05536ZM20.8694 3.79991C20.0223 2.84702 19.2129 3.13391 18.7416 3.46179C18.8304 3.53351 18.9328 3.58816 19.0148 3.6633C19.7252 4.32247 20.2136 5.17632 20.5176 6.17703C20.5517 6.15312 20.5927 6.1258 20.62 6.10872L20.7601 5.9926C21.1972 5.62715 21.8018 4.84844 20.8694 3.79991ZM23.0518 14.4969C22.6078 13.9949 21.6344 13.3733 20.9308 13.0215C21.6447 14.2032 22.0203 15.6684 22.0203 17.4205C22.0203 17.7655 21.9862 18.0865 21.9555 18.411C21.9896 18.411 22.0169 18.4042 22.0511 18.4042C22.1809 18.4042 22.2936 18.4212 22.4131 18.4315C22.5053 18.37 22.5907 18.3119 22.6454 18.2675C22.7103 18.2163 22.7888 18.1548 22.864 18.0968C23.448 17.6015 24.6331 16.2695 23.0518 14.4969ZM24.9952 21.0818C24.9952 21.0818 24.9952 21.157 24.9986 21.157C24.9986 21.157 24.9952 21.2594 24.9815 21.3243C24.9678 21.42 24.92 21.6044 24.9166 21.6283L24.1106 24.6543C24.1072 24.6646 24.0969 24.6714 24.0935 24.6817C24.0833 24.709 24.0832 24.7397 24.0662 24.767C23.9535 24.9788 23.8032 25.1701 23.6324 25.3272C23.1474 25.7746 22.4746 26 21.6276 26C20.7771 26 20.1043 25.7746 19.6193 25.3306C19.2266 24.972 18.9875 24.487 18.8987 23.8927V23.8893C17.6452 24.6714 16.0434 25.0608 14.0317 25.0608H13.9668C11.9552 25.0608 10.3568 24.6714 9.0999 23.8893V23.8927C9.00768 24.4836 8.77202 24.9685 8.37584 25.3306C7.89426 25.7746 7.21802 26 6.371 26C5.52398 26 4.84773 25.7746 4.36616 25.3272C4.19539 25.1666 4.04511 24.9788 3.9324 24.767C3.91533 24.7397 3.91533 24.709 3.90508 24.6817C3.90166 24.6714 3.888 24.6646 3.888 24.6543L3.08197 21.6283C3.07514 21.6078 3.03415 21.42 3.01708 21.3243C3.00342 21.256 3 21.157 3 21.157V21.0818C3.01708 20.2177 3.28348 19.6064 3.7992 19.1214C3.94948 18.9848 4.11684 18.8721 4.30127 18.773C3.04098 17.6459 2.35107 15.788 4.11 13.8139C4.84431 12.9907 6.76718 11.8807 7.58688 11.7134C7.61079 11.71 7.69276 11.6861 7.69276 11.6861C7.32731 10.8151 7.12238 9.79052 7.12238 8.62929C7.12238 8.12381 7.16337 7.65248 7.23168 7.20165C7.16678 7.19482 7.09848 7.18799 7.04042 7.15725C7.00968 7.14017 6.95161 7.10943 6.92771 7.08894C6.83891 7.0343 6.74669 6.96599 6.68521 6.91817L6.51786 6.78156C5.5957 6.00968 4.98776 4.58546 6.29244 3.11683C7.60396 1.6448 9.15796 2 10.0938 2.74797C10.1279 2.77871 10.1518 2.81286 10.1757 2.84702C11.2106 2.30055 12.4777 2.01025 13.9737 2.00342V2H14.0249V2.00342C15.5208 2.01025 16.7845 2.30397 17.8228 2.84702C17.8467 2.81286 17.8706 2.7753 17.9048 2.74797C18.8406 2 20.3946 1.64821 21.7061 3.11683C23.0142 4.58546 22.4029 6.00626 21.4841 6.78156L21.3168 6.91817C21.2587 6.96599 21.1665 7.0343 21.0777 7.08894C21.0504 7.10943 20.9957 7.14017 20.965 7.15725C20.9069 7.18457 20.8386 7.1914 20.7737 7.20165C20.842 7.65248 20.883 8.12381 20.883 8.62929C20.883 9.79052 20.6747 10.8151 20.3127 11.6861C20.3127 11.6861 20.3912 11.71 20.4185 11.7134C21.2348 11.8842 23.1611 12.9907 23.8954 13.8139C25.6543 15.788 24.9644 17.6459 23.7041 18.773C23.8852 18.8721 24.0593 18.9848 24.2062 19.1214C24.7151 19.6064 24.9781 20.2211 24.9952 21.0818Z" fill="#86888C"/>
</svg>
