<svg width="20" height="20" viewBox="0 0 20 20" fill="none" xmlns="http://www.w3.org/2000/svg">
<path fill-rule="evenodd" clip-rule="evenodd" d="M9.20743 11.386C9.25068 11.3109 9.28028 11.2357 9.30532 11.1629C8.66334 11.5863 7.52737 12.1418 5.88146 12.0826C6.23659 12.3512 6.84897 12.5652 7.83698 12.2898C8.51993 12.0985 8.98206 11.7935 9.20743 11.386ZM9.74468 10.1066C9.86306 10.1362 9.95867 10.2273 9.99282 10.3434C10.0019 10.3707 10.1863 11.0309 9.80387 11.7184C9.48516 12.292 8.88417 12.7064 8.01909 12.9477C7.62754 13.0569 7.27923 13.1048 6.96963 13.1048C5.33965 13.1048 4.81378 11.8208 4.80695 11.8049C4.76142 11.691 4.78191 11.5636 4.85476 11.4679C4.92761 11.3723 5.04826 11.32 5.16892 11.3382C7.96901 11.707 9.40321 10.2159 9.41687 10.2022C9.5011 10.1157 9.62631 10.0793 9.74468 10.1066ZM4.63621 9.62398C4.74321 9.62398 4.85931 9.61715 4.97314 9.60349C5.34648 9.56024 5.69706 9.43276 5.69706 9.43276C5.69706 9.43276 5.9452 9.30072 5.72438 9.11632C5.72438 9.11632 5.49218 8.8477 5.1029 8.8477C4.87752 8.8477 4.60207 8.93648 4.28791 9.22104C3.95554 9.52154 4.2401 9.62398 4.63621 9.62398ZM5.93382 10.077C5.89057 10.0929 5.49218 10.2364 5.05054 10.2864C4.90712 10.3024 4.76825 10.3115 4.63849 10.3115C4.03749 10.3115 3.65959 10.1157 3.51162 9.7287C3.45016 9.56707 3.35682 9.14137 3.83489 8.70883C4.23783 8.34687 4.66581 8.16247 5.10745 8.16247C5.59462 8.16247 5.99301 8.40378 6.207 8.62688C6.42099 8.82721 6.52799 9.09128 6.49839 9.35763C6.46197 9.69456 6.22521 9.93131 6.01805 10.0406C5.98846 10.0542 5.96114 10.0656 5.93382 10.077ZM7.55241 8.41061C7.39078 8.69517 7.49778 8.79761 7.70949 8.79761C7.8825 8.79761 8.12837 8.72932 8.35829 8.63826C8.71343 8.49712 9.0162 8.26719 9.0162 8.26719C9.0162 8.26719 9.21881 8.06458 8.93653 7.92344C8.93653 7.92344 8.72481 7.77546 8.43797 7.77546C8.17162 7.77546 7.83698 7.9075 7.55241 8.41061ZM7.70949 9.48284C7.20411 9.48284 6.97646 9.1869 6.90361 9.05941C6.78751 8.85908 6.70328 8.52443 6.96052 8.07141C7.44314 7.21772 8.09422 7.09024 8.44025 7.09024C8.84547 7.09024 9.15507 7.25415 9.28028 7.32927C9.63769 7.52277 9.7333 7.81416 9.75834 7.97352C9.82664 8.38784 9.5785 8.67468 9.49882 8.75208C9.47606 8.77485 9.45101 8.79534 9.42597 8.81582C9.38727 8.84542 9.03669 9.10494 8.61099 9.27568C8.37195 9.36902 8.02365 9.48284 7.70949 9.48284ZM11.0036 12.8247C12.3103 12.9021 13.1981 13.4098 13.7149 13.8287C13.6329 13.4827 13.3643 13.0706 12.6176 12.7838C11.8527 12.4878 11.3337 12.6176 11.0036 12.8247ZM16.2122 12.9887C16.9339 11.3314 17.1866 9.88578 17.2731 9.10266C16.1735 9.5739 14.7507 9.43731 13.9562 9.12998C13.1754 8.82948 12.028 7.90067 11.5249 6.90129C11.3451 7.16764 11.1174 7.5205 10.8807 7.92116C10.8738 7.93254 10.8624 7.93937 10.8533 7.95075C10.9376 8.22393 11.015 8.51305 11.0878 8.81355C11.1652 8.79306 11.2403 8.7703 11.3382 8.76347C11.4088 8.75891 11.4748 8.75436 11.5408 8.75436C12.7815 8.75436 13.23 9.60122 13.3029 10.0952C13.378 10.4481 13.2459 10.6939 13.1572 10.81C13.0001 11.0172 12.7474 11.1356 12.4674 11.1356C12.374 11.1356 12.308 11.1242 12.308 11.1242C12.2853 11.1196 12.2488 11.1105 12.2283 11.106C12.1828 11.0923 11.7776 10.9671 11.3883 10.7463C11.3838 10.744 11.3838 10.7395 11.3792 10.7372C11.3929 11.2175 11.3451 11.6319 11.2426 11.9938C11.682 11.8846 12.2192 11.8982 12.8612 12.1441C13.5624 12.4127 14.0359 12.8179 14.2681 13.3483C14.5731 14.0472 14.325 14.696 14.3159 14.7233C14.2704 14.8417 14.1634 14.9214 14.0404 14.9373C14.0268 14.9396 14.0131 14.9396 13.9995 14.9396C13.8902 14.9396 13.7855 14.8873 13.7217 14.7962C13.6808 14.737 12.6404 13.3392 10.2501 13.5168C10.2319 13.5191 10.2159 13.5077 10.1977 13.5054C10.1044 13.576 10.0065 13.6397 9.90176 13.7035C10.266 14.2521 10.8488 14.6869 11.7093 15.017C13.8105 15.8252 15.0193 15.725 16.2122 12.9887ZM7.93259 13.7604C10.2182 13.1207 11.1834 12.2738 10.4823 9.20055C10.052 7.31561 9.34857 5.92011 8.93653 5.2144C8.43797 6.09085 7.54331 6.77153 6.30717 7.20406C5.64015 7.43854 4.14677 7.5205 2.69663 6.87852C2.73078 7.81644 2.8651 9.74009 3.3978 11.1697C4.30157 13.5851 5.69934 14.3819 7.93259 13.7604ZM11.2335 9.47373C11.2586 9.60122 11.279 9.72643 11.2973 9.84708C11.4134 9.94952 11.5659 10.0542 11.7298 10.1476C12.0622 10.3365 12.4264 10.4481 12.4264 10.4481C12.4264 10.4481 12.4446 10.4504 12.4719 10.4504C12.5493 10.4504 12.6882 10.4253 12.6358 10.2204C12.6358 10.2204 12.5584 9.44186 11.5454 9.44186C11.4976 9.44186 11.4452 9.44414 11.3929 9.44869C11.3223 9.45097 11.2745 9.46235 11.2335 9.47373ZM17.8126 8.1784C17.9287 8.23759 18.0016 8.35597 18.0016 8.48801C18.0016 8.57452 17.9765 10.6484 16.836 13.2641C15.9094 15.3926 14.8759 16.1484 13.5942 16.1484C12.9523 16.1484 12.2488 15.9595 11.4657 15.6567C10.4345 15.2606 9.72875 14.7165 9.28938 14.0131C8.93425 14.1656 8.54497 14.2999 8.11471 14.4206C7.5729 14.5731 7.06524 14.6482 6.59401 14.6482C4.82972 14.6482 3.56853 13.5783 2.7581 11.4088C1.98409 9.33714 2.00002 6.4346 2.00002 6.31167C2.0023 6.18874 2.06604 6.07719 2.17076 6.01573C2.27548 5.95654 2.40524 5.95654 2.51224 6.01573C3.96692 6.85576 5.54454 6.73966 6.07952 6.55298C6.98784 6.23655 8.15569 5.6014 8.55863 4.38348C8.59733 4.26282 8.70432 4.17404 8.82953 4.15355C8.95474 4.13078 9.08222 4.18542 9.15735 4.29014C9.19832 4.34478 9.92908 5.36237 10.5711 7.11073C10.9968 6.43233 11.336 5.97475 11.3542 5.95199C11.4361 5.84044 11.575 5.79491 11.7093 5.8245C11.8413 5.85865 11.9438 5.9702 11.9643 6.10451C12.1054 7.02877 13.4167 8.18751 14.1975 8.48801C15.0057 8.79761 16.5856 8.87501 17.4506 8.21255C17.5576 8.13287 17.6965 8.12149 17.8126 8.1784ZM15.6294 11.106C15.6294 11.106 15.4496 10.6871 14.8987 10.6871C14.7598 10.6871 14.5982 10.7122 14.4092 10.7782C13.9426 10.9421 14.4001 11.147 14.8623 11.254C15.1855 11.3268 15.5133 11.3314 15.5133 11.3314C15.5133 11.3314 15.7569 11.3063 15.6294 11.106ZM14.1839 10.1316C14.432 10.0451 14.671 10.0019 14.8964 10.0019C15.6431 10.0019 16.0734 10.4686 16.2304 10.7804C16.3716 11.0286 16.3875 11.3063 16.2714 11.5476C16.1485 11.8071 15.8912 11.9802 15.5839 12.0143C15.5589 12.0166 15.5361 12.0189 15.5111 12.0189H15.5042C15.4633 12.0189 15.0899 12.012 14.7075 11.9233C14.3956 11.8504 13.5669 11.6615 13.5305 10.9739C13.5237 10.8305 13.5487 10.3525 14.1839 10.1316Z" fill="#86888C"/>
</svg>
