<svg width="24" height="24" viewBox="0 0 24 24" fill="none" xmlns="http://www.w3.org/2000/svg">
<path fill-rule="evenodd" clip-rule="evenodd" d="M11.4087 13.5923C11.4591 13.5046 11.4937 13.417 11.5229 13.332C10.7739 13.826 9.4486 14.474 7.52837 14.405C7.94269 14.7184 8.65714 14.968 9.8098 14.6467C10.6066 14.4236 11.1457 14.0677 11.4087 13.5923ZM12.0355 12.0996C12.1736 12.1342 12.2851 12.2404 12.325 12.3758C12.3356 12.4077 12.5507 13.1779 12.1045 13.98C11.7327 14.6493 11.0315 15.1327 10.0223 15.4142C9.56546 15.5417 9.1591 15.5975 8.7979 15.5975C6.89626 15.5975 6.28274 14.0995 6.27478 14.0809C6.22166 13.9481 6.24556 13.7994 6.33055 13.6879C6.41554 13.5763 6.5563 13.5152 6.69707 13.5365C9.96385 13.9667 11.6371 12.2271 11.653 12.2112C11.7513 12.1103 11.8974 12.0678 12.0355 12.0996ZM6.07558 11.5366C6.20041 11.5366 6.33586 11.5286 6.46866 11.5127C6.90423 11.4622 7.31324 11.3135 7.31324 11.3135C7.31324 11.3135 7.60274 11.1594 7.34511 10.9443C7.34511 10.9443 7.07421 10.6309 6.62005 10.6309C6.35711 10.6309 6.03574 10.7345 5.66923 11.0665C5.28146 11.4171 5.61345 11.5366 6.07558 11.5366ZM7.58946 12.0651C7.53899 12.0837 7.07421 12.251 6.55896 12.3094C6.39164 12.328 6.22963 12.3387 6.07824 12.3387C5.37708 12.3387 4.93619 12.1103 4.76356 11.6587C4.69185 11.4702 4.58296 10.9735 5.1407 10.4689C5.6108 10.0466 6.11011 9.83147 6.62536 9.83147C7.19372 9.83147 7.65851 10.113 7.90817 10.3733C8.15782 10.607 8.28265 10.9151 8.24812 11.2258C8.20563 11.6189 7.92941 11.8951 7.68773 12.0226C7.6532 12.0385 7.62133 12.0518 7.58946 12.0651ZM9.47781 10.121C9.28924 10.453 9.41407 10.5725 9.66107 10.5725C9.86292 10.5725 10.1498 10.4928 10.418 10.3866C10.8323 10.2219 11.1856 9.95365 11.1856 9.95365C11.1856 9.95365 11.4219 9.71727 11.0926 9.5526C11.0926 9.5526 10.8456 9.37997 10.511 9.37997C10.2002 9.37997 9.8098 9.53401 9.47781 10.121ZM9.66107 11.3719C9.07146 11.3719 8.80587 11.0266 8.72088 10.8779C8.58543 10.6442 8.48716 10.2538 8.78728 9.72524C9.35033 8.72927 10.1099 8.58054 10.5136 8.58054C10.9864 8.58054 11.3476 8.77176 11.4937 8.85941C11.9106 9.08516 12.0222 9.42512 12.0514 9.61103C12.1311 10.0944 11.8416 10.4291 11.7486 10.5194C11.7221 10.5459 11.6929 10.5698 11.6636 10.5937C11.6185 10.6282 11.2095 10.931 10.7128 11.1302C10.4339 11.2391 10.0276 11.3719 9.66107 11.3719ZM13.5042 15.2708C15.0287 15.3611 16.0645 15.9534 16.6674 16.4421C16.5718 16.0384 16.2584 15.5576 15.3872 15.223C14.4948 14.8777 13.8893 15.0291 13.5042 15.2708ZM19.5809 15.462C20.4229 13.5285 20.7177 11.842 20.8186 10.9284C19.5358 11.4781 17.8758 11.3188 16.9489 10.9602C16.0379 10.6097 14.6994 9.52604 14.1124 8.3601C13.9026 8.67084 13.637 9.08251 13.3608 9.54995C13.3528 9.56323 13.3395 9.57119 13.3289 9.58447C13.4272 9.90318 13.5175 10.2405 13.6025 10.5911C13.6928 10.5672 13.7804 10.5406 13.8946 10.5326C13.9769 10.5273 14.054 10.522 14.131 10.522C15.5785 10.522 16.1017 11.51 16.1867 12.0863C16.2743 12.498 16.1203 12.7849 16.0167 12.9203C15.8334 13.162 15.5386 13.3001 15.2119 13.3001C15.1031 13.3001 15.026 13.2868 15.026 13.2868C14.9995 13.2815 14.957 13.2709 14.9331 13.2656C14.88 13.2496 14.4072 13.1036 13.953 12.8459C13.9477 12.8433 13.9477 12.838 13.9424 12.8353C13.9583 13.3957 13.9026 13.8791 13.7831 14.3014C14.2957 14.1739 14.9224 14.1898 15.6714 14.4767C16.4894 14.7901 17.0419 15.2628 17.3128 15.8817C17.6687 16.697 17.3792 17.454 17.3685 17.4858C17.3154 17.6239 17.1906 17.7169 17.0472 17.7355C17.0312 17.7381 17.0153 17.7381 16.9994 17.7381C16.8719 17.7381 16.7497 17.6771 16.6754 17.5708C16.6275 17.5018 15.4138 15.871 12.6251 16.0782C12.6038 16.0809 12.5852 16.0676 12.564 16.0649C12.4551 16.1472 12.3409 16.2216 12.2187 16.296C12.6437 16.9361 13.3236 17.4433 14.3275 17.8284C16.7789 18.7713 18.1892 18.6544 19.5809 15.462ZM9.92135 16.3624C12.5879 15.6161 13.714 14.6281 12.896 11.0426C12.394 8.84347 11.5733 7.21539 11.0926 6.39206C10.511 7.41459 9.46719 8.20871 8.02503 8.71333C7.24684 8.98689 5.50456 9.08251 3.81274 8.33354C3.85258 9.42777 4.00928 11.672 4.63076 13.3399C5.68516 16.1579 7.3159 17.0874 9.92135 16.3624ZM13.7724 11.3613C13.8017 11.51 13.8256 11.6561 13.8468 11.7969C13.9823 11.9164 14.1602 12.0385 14.3514 12.1474C14.7392 12.3679 15.1641 12.498 15.1641 12.498C15.1641 12.498 15.1854 12.5007 15.2173 12.5007C15.3076 12.5007 15.4696 12.4715 15.4085 12.2324C15.4085 12.2324 15.3182 11.3241 14.1363 11.3241C14.0805 11.3241 14.0194 11.3268 13.9583 11.3321C13.876 11.3347 13.8202 11.348 13.7724 11.3613ZM21.448 9.85007C21.5835 9.91912 21.6685 10.0572 21.6685 10.2113C21.6685 10.3122 21.6393 12.7317 20.3086 15.7834C19.2277 18.2667 18.0219 19.1484 16.5266 19.1484C15.7777 19.1484 14.957 18.928 14.0433 18.5748C12.8402 18.1126 12.0169 17.4779 11.5043 16.6572C11.09 16.8351 10.6358 16.9918 10.1338 17.1326C9.50172 17.3105 8.90945 17.3982 8.35967 17.3982C6.30134 17.3982 4.82996 16.1499 3.88445 13.6188C2.98144 11.2019 3.00003 7.81563 3.00003 7.67221C3.00268 7.52879 3.07705 7.39865 3.19922 7.32694C3.3214 7.25789 3.47278 7.25789 3.59761 7.32694C5.29474 8.30698 7.13529 8.17153 7.75944 7.95374C8.81915 7.58457 10.1816 6.84357 10.6517 5.42265C10.6969 5.28189 10.8217 5.1783 10.9678 5.1544C11.1139 5.12784 11.2626 5.19158 11.3502 5.31376C11.398 5.3775 12.2506 6.56469 12.9996 8.60444C13.4962 7.81298 13.892 7.27914 13.9132 7.25258C14.0088 7.12244 14.1708 7.06932 14.3275 7.10385C14.4816 7.14368 14.6011 7.27382 14.625 7.43052C14.7897 8.50883 16.3195 9.86069 17.2304 10.2113C18.1733 10.5725 20.0165 10.6628 21.0257 9.8899C21.1506 9.79695 21.3126 9.78367 21.448 9.85007ZM18.901 13.2656C18.901 13.2656 18.6912 12.7769 18.0485 12.7769C17.8865 12.7769 17.6979 12.8061 17.4774 12.8831C16.933 13.0744 17.4668 13.3134 18.006 13.4382C18.3831 13.5232 18.7656 13.5285 18.7656 13.5285C18.7656 13.5285 19.0497 13.4993 18.901 13.2656ZM17.2145 12.1288C17.504 12.0279 17.7829 11.9775 18.0458 11.9775C18.9169 11.9775 19.4189 12.5219 19.6022 12.8858C19.7668 13.1753 19.7854 13.4993 19.65 13.7808C19.5066 14.0836 19.2064 14.2854 18.8479 14.3253C18.8187 14.3279 18.7921 14.3306 18.7629 14.3306H18.7549C18.7071 14.3306 18.2716 14.3226 17.8254 14.2191C17.4615 14.1341 16.4948 13.9136 16.4523 13.1115C16.4443 12.9442 16.4735 12.3865 17.2145 12.1288Z" fill="#86888C"/>
</svg>
