<svg width="40" height="40" viewBox="0 0 40 40" fill="none" xmlns="http://www.w3.org/2000/svg">
<path fill-rule="evenodd" clip-rule="evenodd" d="M6.69721 18.2123C7.52191 18.2123 8.10074 17.6386 8.10074 16.8088C8.10074 15.9789 7.52703 15.4052 6.69721 15.4052C5.87251 15.4052 5.29368 15.9841 5.29368 16.8088C5.29368 17.6335 5.86739 18.2123 6.69721 18.2123ZM35.7052 18.6118C35.403 18.8936 35.3825 19.3648 35.6642 19.6722L35.7052 19.7131C36.2277 20.1895 36.5043 20.9732 36.5043 21.9772C36.5043 24.1594 34.5117 24.436 33.897 24.4718H27.5299L22.5202 24.6204C22.1155 24.6357 21.7928 24.9636 21.798 25.3682C21.798 28.0114 21.8031 30.6545 21.8133 33.3028L21.8236 33.5282C21.8236 35.6027 20.9425 36.5094 19.0472 36.5094C18.0586 36.5094 17.2903 36.2481 16.8293 35.7513C16.3939 35.2851 16.2043 34.6039 16.2709 33.7177L16.3017 33.3438C16.3221 33.185 16.3324 33.0364 16.3426 32.852C16.3478 32.8213 16.3529 32.7906 16.3529 32.7598C16.399 30.6135 16.4297 27.8577 16.2197 25.609C15.8919 22.2077 12.6955 20.3432 11.4661 19.7439V19.5185C11.4661 19.4878 11.4764 19.4622 11.4764 19.4314V5.15026C11.4764 5.11952 11.4713 5.09391 11.4661 5.06318V4.92487L16.5014 4.85828C17.0546 4.85828 17.6386 4.69437 18.366 4.48435L18.7758 4.36653C20.169 3.95674 21.7467 3.49573 25.7012 3.49573C32.5908 3.49573 32.8674 4.23847 33.4155 5.72396C33.5384 6.53842 33.4821 7.19408 33.2003 7.71656C33.0057 8.08025 33.144 8.53614 33.5077 8.73079L33.5692 8.76153C34.4604 9.13546 35.5208 9.84235 35.5208 11.1229C35.5208 11.9579 35.3261 12.634 34.9471 13.0694C34.6756 13.3819 34.7114 13.848 35.0239 14.1195C35.0444 14.14 35.07 14.1554 35.0905 14.1707C35.7359 14.6113 36.5043 15.3899 36.5043 16.5731C36.5094 17.4337 36.243 18.1201 35.7052 18.6118ZM9.20205 4.36141C9.62208 4.36141 9.96016 4.69437 9.98065 5.10928V19.4775C9.96016 19.8924 9.61696 20.2203 9.20205 20.2203H4.27433C3.83893 20.2203 3.49061 19.8668 3.49061 19.4314V5.15026C3.49061 4.71485 3.84405 4.36141 4.27433 4.36141H9.20205ZM37.206 19.1651C37.6312 18.5862 38 17.741 38 16.568C38 15.3643 37.4775 14.2527 36.5145 13.3921C36.7911 12.8645 37.0165 12.1269 37.0165 11.1229C37.0165 9.6938 36.2379 8.50028 34.8139 7.71144C35.0034 7.04553 35.0137 6.28742 34.8549 5.35003C33.897 2.72225 32.5908 2 25.7063 2C21.5316 2 19.7746 2.51736 18.3608 2.93227L17.9767 3.04496C17.321 3.22937 16.8549 3.36255 16.4963 3.36255L11.2561 3.43426C11.0973 3.43939 10.9437 3.47012 10.8002 3.53159C10.3751 3.10643 9.80137 2.8708 9.20205 2.8708H4.27433C3.01935 2.8708 2 3.89015 2 5.15026V19.4314C2 20.6864 3.01935 21.7109 4.27433 21.7109H9.20205C9.81673 21.7109 10.3699 21.465 10.7797 21.0706C11.7325 21.5316 14.4832 23.0837 14.7393 25.7524C14.9442 27.8884 14.9186 30.5316 14.8725 32.6215C14.8674 32.811 14.852 33.0006 14.8264 33.1901L14.7906 33.6153C14.6983 34.9061 15.0313 35.9972 15.7484 36.7655C16.4963 37.5748 17.6437 38 19.0524 38C21.7621 38 23.3193 36.4172 23.3193 33.6665L23.3142 33.4923L23.309 33.2464C23.309 30.675 23.2988 27.4991 23.2988 26.0905L27.5606 25.9624H33.9482C35.8435 25.86 38.0051 24.7536 38.0051 21.9772C38 20.6608 37.6312 19.7592 37.206 19.1651Z" fill="#86888C"/>
</svg>
