<svg width="20" height="20" viewBox="0 0 20 20" fill="none" xmlns="http://www.w3.org/2000/svg">
<path fill-rule="evenodd" clip-rule="evenodd" d="M4.08765 9.20546C4.45418 9.20546 4.71144 8.95048 4.71144 8.58167C4.71144 8.21286 4.45646 7.95788 4.08765 7.95788C3.72112 7.95788 3.46386 8.21514 3.46386 8.58167C3.46386 8.94821 3.71884 9.20546 4.08765 9.20546ZM16.9801 9.38304C16.8458 9.50825 16.8367 9.7177 16.9619 9.8543L16.9801 9.87251C17.2123 10.0842 17.3352 10.4326 17.3352 10.8788C17.3352 11.8486 16.4496 11.9715 16.1764 11.9875H13.3466L11.1201 12.0535C10.9402 12.0603 10.7968 12.206 10.7991 12.3859C10.7991 13.5606 10.8014 14.7353 10.8059 15.9124L10.8105 16.0125C10.8105 16.9345 10.4189 17.3375 9.57655 17.3375C9.13717 17.3375 8.79567 17.2214 8.59078 17.0006C8.39727 16.7934 8.31303 16.4906 8.34263 16.0968L8.35629 15.9306C8.3654 15.86 8.36995 15.794 8.3745 15.712C8.37678 15.6983 8.37906 15.6847 8.37906 15.671C8.39955 14.7171 8.4132 13.4923 8.31986 12.4929C8.17416 10.9812 6.75356 10.1525 6.20717 9.88617V9.786C6.20717 9.77234 6.21172 9.76096 6.21172 9.7473V3.40011C6.21172 3.38645 6.20945 3.37507 6.20717 3.36141V3.29994L8.44508 3.27035C8.69095 3.27035 8.95048 3.1975 9.27376 3.10415L9.45589 3.05179C10.0751 2.86966 10.7763 2.66477 12.5339 2.66477C15.5959 2.66477 15.7188 2.99488 15.9624 3.65509C16.0171 4.01707 15.992 4.30848 15.8668 4.54069C15.7803 4.70233 15.8418 4.90495 16.0034 4.99146L16.0307 5.00512C16.4269 5.17131 16.8981 5.48549 16.8981 6.05464C16.8981 6.42573 16.8116 6.72624 16.6431 6.91975C16.5225 7.05862 16.5384 7.26579 16.6773 7.38645C16.6864 7.39556 16.6978 7.40239 16.7069 7.40922C16.9937 7.60501 17.3352 7.95105 17.3352 8.47695C17.3375 8.85942 17.2191 9.16448 16.9801 9.38304ZM5.20091 3.04952C5.38759 3.04952 5.53785 3.1975 5.54696 3.3819V9.76779C5.53785 9.95219 5.38532 10.0979 5.20091 10.0979H3.01081C2.8173 10.0979 2.66249 9.94081 2.66249 9.7473V3.40011C2.66249 3.2066 2.81958 3.04952 3.01081 3.04952H5.20091ZM17.6471 9.62891C17.8361 9.37166 18 8.99602 18 8.47467C18 7.93967 17.7678 7.44565 17.3398 7.06318C17.4627 6.82869 17.5629 6.50085 17.5629 6.05464C17.5629 5.41947 17.2168 4.88902 16.584 4.53842C16.6682 4.24246 16.6727 3.90552 16.6022 3.4889C16.1764 2.321 15.5959 2 12.5361 2C10.6807 2 9.89983 2.22994 9.27149 2.41434L9.10074 2.46443C8.80933 2.54639 8.60216 2.60558 8.4428 2.60558L6.11383 2.63745C6.04326 2.63973 5.97496 2.65339 5.91121 2.68071C5.72225 2.49175 5.46727 2.38702 5.20091 2.38702H3.01081C2.45305 2.38702 2 2.84007 2 3.40011V9.7473C2 10.3051 2.45305 10.7604 3.01081 10.7604H5.20091C5.4741 10.7604 5.71998 10.6511 5.90211 10.4758C6.32555 10.6807 7.54809 11.3705 7.66192 12.5566C7.75299 13.506 7.74161 14.6807 7.72112 15.6096C7.71884 15.6938 7.71201 15.778 7.70063 15.8623L7.68469 16.0512C7.64371 16.6249 7.79169 17.1098 8.11042 17.4513C8.4428 17.811 8.95276 18 9.57883 18C10.7832 18 11.4752 17.2965 11.4752 16.074L11.473 15.9966L11.4707 15.8873C11.4707 14.7445 11.4661 13.333 11.4661 12.7069L13.3603 12.65H16.1992C17.0415 12.6044 18.0023 12.1127 18.0023 10.8788C18 10.2937 17.8361 9.893 17.6471 9.62891Z" fill="#86888C"/>
</svg>
