<svg width="24" height="24" viewBox="0 0 24 24" fill="none" xmlns="http://www.w3.org/2000/svg">
<path fill-rule="evenodd" clip-rule="evenodd" d="M4.60956 11.0068C5.06773 11.0068 5.3893 10.6881 5.3893 10.2271C5.3893 9.76608 5.07057 9.44735 4.60956 9.44735C4.15139 9.44735 3.82982 9.76892 3.82982 10.2271C3.82982 10.6853 4.14855 11.0068 4.60956 11.0068ZM20.7251 11.2288C20.5572 11.3853 20.5458 11.6471 20.7023 11.8179L20.7251 11.8406C21.0154 12.1053 21.169 12.5407 21.169 13.0985C21.169 14.3108 20.062 14.4644 19.7205 14.4843H16.1833L13.4001 14.5669C13.1753 14.5754 12.996 14.7575 12.9989 14.9824C12.9989 16.4508 13.0017 17.9192 13.0074 19.3904L13.0131 19.5157C13.0131 20.6682 12.5236 21.1719 11.4707 21.1719C10.9215 21.1719 10.4946 21.0268 10.2385 20.7507C9.99658 20.4917 9.89129 20.1133 9.92829 19.6209L9.94536 19.4132C9.95674 19.325 9.96244 19.2425 9.96813 19.14C9.97097 19.1229 9.97382 19.1059 9.97382 19.0888C9.99943 17.8964 10.0165 16.3654 9.89983 15.1161C9.7177 13.2265 7.94195 12.1907 7.25896 11.8577V11.7325C7.25896 11.7154 7.26466 11.7012 7.26466 11.6841V3.75014C7.26466 3.73307 7.26181 3.71884 7.25896 3.70176V3.62493L10.0563 3.58793C10.3637 3.58793 10.6881 3.49687 11.0922 3.38019L11.3199 3.31474C12.0939 3.08708 12.9704 2.83096 15.1673 2.83096C18.9949 2.83096 19.1485 3.2436 19.453 4.06887C19.5213 4.52134 19.49 4.8856 19.3335 5.17587C19.2254 5.37792 19.3022 5.63119 19.5043 5.73933L19.5384 5.7564C20.0336 5.96414 20.6227 6.35686 20.6227 7.0683C20.6227 7.53216 20.5145 7.9078 20.3039 8.14969C20.1531 8.32328 20.173 8.58224 20.3466 8.73307C20.358 8.74445 20.3722 8.75299 20.3836 8.76153C20.7422 9.00626 21.169 9.43882 21.169 10.0962C21.1719 10.5743 21.0239 10.9556 20.7251 11.2288ZM6.00114 3.3119C6.23449 3.3119 6.42231 3.49687 6.43369 3.72738V11.7097C6.42231 11.9402 6.23164 12.1224 6.00114 12.1224H3.26352C3.02163 12.1224 2.82812 11.926 2.82812 11.6841V3.75014C2.82812 3.50825 3.02447 3.3119 3.26352 3.3119H6.00114ZM21.5589 11.5361C21.7951 11.2146 22 10.745 22 10.0933C22 9.42459 21.7097 8.80706 21.1747 8.32897C21.3284 8.03586 21.4536 7.62607 21.4536 7.0683C21.4536 6.27433 21.0211 5.61127 20.2299 5.17302C20.3352 4.80307 20.3409 4.3819 20.2527 3.86113C19.7205 2.40125 18.9949 2 15.1702 2C12.8509 2 11.8748 2.28742 11.0894 2.51793L10.8759 2.58053C10.5117 2.68298 10.2527 2.75697 10.0535 2.75697L7.14229 2.79681C7.05407 2.79966 6.9687 2.81673 6.88902 2.85088C6.65282 2.61468 6.33409 2.48378 6.00114 2.48378H3.26352C2.56631 2.48378 2 3.05009 2 3.75014V11.6841C2 12.3813 2.56631 12.9505 3.26352 12.9505H6.00114C6.34263 12.9505 6.64997 12.8139 6.87763 12.5948C7.40694 12.8509 8.93512 13.7131 9.0774 15.1958C9.19123 16.3825 9.17701 17.8509 9.15139 19.012C9.14855 19.1172 9.14001 19.2225 9.12578 19.3278L9.10586 19.564C9.05464 20.2812 9.23961 20.8873 9.63802 21.3142C10.0535 21.7638 10.691 22 11.4735 22C12.9789 22 13.8441 21.1207 13.8441 19.5925L13.8412 19.4957L13.8384 19.3591C13.8384 17.9306 13.8327 16.1662 13.8327 15.3836L16.2003 15.3125H19.749C20.8019 15.2555 22.0028 14.6409 22.0028 13.0985C22 12.3671 21.7951 11.8663 21.5589 11.5361Z" fill="#86888C"/>
</svg>
