<svg width="24" height="24" viewBox="0 0 24 24" fill="none" xmlns="http://www.w3.org/2000/svg">
<path fill-rule="evenodd" clip-rule="evenodd" d="M4.6103 12.9963C5.0686 12.9963 5.39026 13.3151 5.39026 13.7763C5.39026 14.2374 5.07145 14.5562 4.6103 14.5562C4.15201 14.5562 3.83034 14.2346 3.83034 13.7763C3.83034 13.318 4.14916 12.9963 4.6103 12.9963ZM20.7304 12.7743C20.5625 12.6177 20.5511 12.3558 20.7077 12.185L20.7304 12.1623C21.0208 11.8975 21.1745 11.462 21.1745 10.9041C21.1745 9.69143 20.0672 9.53772 19.7256 9.51779H16.1873L13.4034 9.43524C13.1785 9.4267 12.9991 9.24452 13.002 9.01964C13.002 9.01964 13.0105 6.52605 13.0105 4.63308V4.6103L13.0162 4.48506C13.0162 3.33219 12.5266 2.82835 11.4734 2.82835C10.924 2.82835 10.497 2.97353 10.2408 3.24964C9.99886 3.50868 9.89354 3.88728 9.93054 4.37973L9.94762 4.58753C9.95901 4.67578 9.9647 4.75833 9.9704 4.8608C9.97324 4.87788 9.97324 4.89496 9.97609 4.91204C10.0017 6.10475 10.0188 7.63621 9.90208 8.88585C9.7199 10.776 7.94364 11.8121 7.26046 12.1452V12.2704C7.26046 12.2875 7.26615 12.3017 7.26615 12.3188V20.2551C7.26615 20.2721 7.26331 20.2864 7.26046 20.3034V20.3803L10.0586 20.4173C10.3661 20.4173 10.6906 20.5084 11.0948 20.6251L11.3225 20.6906C12.0968 20.9183 12.9735 21.1745 15.1711 21.1745C18.9997 21.1745 19.1534 20.7617 19.458 19.9362C19.5263 19.4836 19.495 19.1193 19.3385 18.8289C19.2303 18.6268 19.3071 18.3735 19.5093 18.2653L19.5434 18.2482C20.0387 18.0404 20.628 17.6476 20.628 16.936C20.628 16.472 20.5198 16.0962 20.3091 15.8543C20.1583 15.6806 20.1782 15.4216 20.3518 15.2707C20.3632 15.2593 20.3775 15.2508 20.3888 15.2422C20.7475 14.9974 21.1745 14.5648 21.1745 13.9072C21.1773 13.429 21.0293 13.0475 20.7304 12.7743ZM6.00228 20.6934C6.23285 20.6934 6.42357 20.5112 6.43496 20.2778V12.296C6.42357 12.0655 6.23285 11.8833 6.00228 11.8833H3.26388C3.02192 11.8833 2.82835 12.0797 2.82835 12.3217V20.2579C2.82835 20.4999 3.02477 20.6963 3.26388 20.6963L6.00228 20.6934ZM21.5645 12.4668C21.8007 12.7885 22.0057 13.2582 22.0057 13.91C22.0057 14.579 21.7153 15.1967 21.1802 15.6749C21.3339 15.9681 21.4592 16.378 21.4592 16.936C21.4592 17.7301 21.0265 18.3934 20.2351 18.8318C20.3405 19.2018 20.3461 19.6231 20.2579 20.144C19.7256 21.5986 18.9997 22 15.1739 22C12.854 22 11.8776 21.7125 11.0919 21.4819L10.8785 21.4193C10.5141 21.3168 10.2551 21.2428 10.0558 21.2428L7.14375 21.2058C7.05551 21.203 6.97011 21.1859 6.89041 21.1517C6.65414 21.388 6.33533 21.5189 6.00228 21.5189H3.26388C2.56647 21.5189 2 20.9496 2 20.2522V12.3188C2 11.6214 2.56647 11.0521 3.26388 11.0521H6.00228C6.34387 11.0521 6.6513 11.1887 6.87902 11.4079C7.40848 11.1517 8.93709 10.2892 9.07942 8.80615C9.19328 7.61913 9.17905 6.1503 9.15343 4.9889C9.15058 4.88358 9.14204 4.77825 9.12781 4.67293L9.10788 4.43666C9.05665 3.71933 9.24167 3.11301 9.64019 2.68602C10.0586 2.23627 10.6934 2 11.4791 2C12.9849 2 13.8503 2.87959 13.8503 4.4082L13.8474 4.50498L13.8417 4.64162C13.8417 6.0706 13.836 7.83547 13.836 8.61828L16.2044 8.68944H19.7541C20.8073 8.74637 22.0085 9.36123 22.0085 10.9041C22.0057 11.6356 21.8007 12.1366 21.5645 12.4668Z" fill="#86888C"/>
</svg>
