<svg width="40" height="40" viewBox="0 0 40 40" fill="none" xmlns="http://www.w3.org/2000/svg">
<path fill-rule="evenodd" clip-rule="evenodd" d="M37.4764 31.5294V5.47284C37.4764 4.39206 36.5954 3.51617 35.5095 3.51617H31.4169C31.253 3.51617 31.1147 3.6391 31.0993 3.80301C30.8637 5.35503 29.5319 6.49728 27.9645 6.5024C26.3972 6.49728 25.0654 5.34991 24.8298 3.80301C24.8144 3.6391 24.6761 3.51617 24.5122 3.51104H20.4196C19.3388 3.51104 18.4578 4.39206 18.4578 5.46772V31.5243C18.4578 32.605 19.3388 33.4809 20.4196 33.4809H24.5429C24.7017 33.4758 24.8349 33.3631 24.8605 33.2095C25.2139 31.4935 26.8838 30.3923 28.5997 30.7406C29.8444 30.9967 30.8125 31.9648 31.0686 33.2095C31.0993 33.3631 31.2376 33.4809 31.3913 33.4809H35.5146C36.6005 33.486 37.4816 32.6102 37.4764 31.5294ZM18.4117 36.2725L20.6808 35.0022H20.4196C18.6985 34.9971 17.2387 33.737 16.9877 32.0365C16.916 32.057 16.8494 32.0928 16.7726 32.0928C16.5011 32.0928 16.245 31.9443 16.1118 31.7087L8.12634 17.5458C7.92145 17.1821 8.04438 16.7212 8.40806 16.5163C8.40806 16.5163 8.41318 16.5163 8.41318 16.5111L16.9314 11.7373V6.66119L13.9093 8.35663C13.8171 8.40785 13.7761 8.52054 13.8222 8.61274C14.3344 9.95475 13.7863 11.4709 12.5365 12.1778C11.2765 12.8744 9.69884 12.5517 8.81271 11.4197C8.75124 11.3326 8.63343 11.307 8.54123 11.3582L5.36548 13.1356C4.98132 13.3508 4.69447 13.7093 4.58179 14.1396C4.45885 14.5647 4.5152 15.0155 4.73033 15.3996L16.1374 35.6322C16.3577 36.0164 16.7111 36.293 17.1414 36.4159C17.5716 36.5389 18.0224 36.4876 18.4117 36.2725ZM9.82178 17.4587L16.9365 30.0696V13.4737L9.82178 17.4587ZM35.5146 2C37.4355 2 38.9926 3.55202 38.9977 5.47284V31.5294C38.9926 33.4502 37.4355 35.0022 35.5146 34.9971H31.3913C30.5103 34.9971 29.7522 34.3722 29.5832 33.5065C29.4039 32.6153 28.5331 32.0416 27.6418 32.2209C26.9965 32.354 26.4894 32.856 26.3562 33.5065C26.1871 34.3722 25.4291 34.9971 24.548 34.9971H23.0473C22.8987 35.3249 22.6836 35.6118 22.366 35.791L19.1595 37.5889C18.4219 38.0038 17.5511 38.1114 16.7418 37.8809C15.9223 37.6504 15.241 37.1177 14.8261 36.3801L3.40881 16.1475C2.99391 15.415 2.89147 14.5442 3.11684 13.7349C3.34222 12.9256 3.88517 12.2341 4.62276 11.8243L7.80364 10.0469C8.55148 9.62693 9.49908 9.82157 10.0215 10.5028C10.293 11.2148 11.0921 11.5734 11.8041 11.3019C12.516 11.0304 12.8746 10.2313 12.6031 9.51936C12.557 9.39131 12.4904 9.2735 12.4085 9.16593C12.096 8.35663 12.4136 7.46025 13.1717 7.04023L16.3474 5.26283C16.5472 5.15014 16.7675 5.08355 16.9877 5.01697C17.2182 3.29591 18.6832 2.00512 20.4247 2H24.5122C25.4342 2 26.2025 2.66588 26.3357 3.58788C26.4535 4.38694 27.1552 4.99135 27.9645 4.99135C28.7738 4.99135 29.4807 4.38694 29.5985 3.58788C29.7317 2.66588 30.5 2 31.422 2H35.5146ZM22.3045 26.904H33.8448V10.1801H22.3045V26.904ZM34.6029 8.66908C35.0229 8.66908 35.361 9.00714 35.361 9.42716V27.6621C35.361 28.0821 35.0178 28.4202 34.6029 28.4202H21.5413C21.1213 28.4202 20.7832 28.0821 20.7832 27.6621V9.42204C20.7832 9.00714 21.1213 8.66396 21.5413 8.66396H34.6029V8.66908Z" fill="#86888C"/>
</svg>
