<svg width="24" height="24" viewBox="0 0 24 24" fill="none" xmlns="http://www.w3.org/2000/svg">
<path fill-rule="evenodd" clip-rule="evenodd" d="M21.1536 18.4052V3.92936C21.1536 3.32892 20.6641 2.84231 20.0608 2.84231H17.7872C17.6961 2.84231 17.6193 2.91061 17.6107 3.00167C17.4798 3.8639 16.74 4.49849 15.8692 4.50133C14.9984 4.49849 14.2585 3.86106 14.1277 3.00167C14.1191 2.91061 14.0423 2.84231 13.9512 2.83947H11.6775C11.0771 2.83947 10.5877 3.32892 10.5877 3.92651V18.4024C10.5877 19.0028 11.0771 19.4894 11.6775 19.4894H13.9683C14.0565 19.4866 14.1305 19.424 14.1447 19.3386C14.3411 18.3853 15.2688 17.7735 16.2221 17.967C16.9135 18.1093 17.4514 18.6471 17.5937 19.3386C17.6107 19.424 17.6876 19.4894 17.7729 19.4894H20.0637C20.667 19.4923 21.1564 19.0056 21.1536 18.4052ZM10.562 21.0403L11.8227 20.3346H11.6775C10.7214 20.3317 9.91039 19.6317 9.77095 18.6869C9.73111 18.6983 9.69412 18.7182 9.65143 18.7182C9.50061 18.7182 9.35833 18.6357 9.28434 18.5048L4.84796 10.6366C4.73414 10.4345 4.80243 10.1784 5.00448 10.0646C5.00448 10.0646 5.00732 10.0646 5.00732 10.0617L9.73965 7.40959V4.58955L8.06071 5.53146C8.00949 5.55992 7.98672 5.62252 8.01233 5.67374C8.2969 6.4193 7.99241 7.26162 7.29807 7.65432C6.59804 8.04133 5.72158 7.86205 5.22928 7.23316C5.19513 7.18479 5.12968 7.17056 5.07846 7.19901L3.31416 8.18646C3.10073 8.30597 2.94137 8.50517 2.87877 8.74421C2.81047 8.9804 2.84178 9.23081 2.96129 9.44424L9.29857 20.6846C9.42093 20.898 9.61728 21.0517 9.85632 21.12C10.0954 21.1883 10.3458 21.1598 10.562 21.0403ZM5.78988 10.5882L9.74249 17.5942V8.37427L5.78988 10.5882ZM20.0637 2C21.1308 2 21.9959 2.86223 21.9987 3.92936V18.4052C21.9959 19.4723 21.1308 20.3346 20.0637 20.3317H17.7729C17.2835 20.3317 16.8623 19.9845 16.7684 19.5036C16.6688 19.0085 16.1851 18.6898 15.6899 18.7894C15.3314 18.8634 15.0496 19.1422 14.9757 19.5036C14.8817 19.9845 14.4606 20.3317 13.9711 20.3317H13.1374C13.0548 20.5138 12.9353 20.6732 12.7589 20.7728L10.9775 21.7716C10.5677 22.0021 10.084 22.0619 9.63436 21.9338C9.17905 21.8058 8.80058 21.5098 8.57008 21.1L2.22711 9.8597C1.99662 9.45277 1.9397 8.96901 2.06491 8.5194C2.19012 8.06979 2.49176 7.68562 2.90153 7.45797L4.66869 6.47053C5.08415 6.23718 5.6106 6.34532 5.90086 6.72379C6.05168 7.11934 6.4956 7.31853 6.89114 7.16771C7.28669 7.01689 7.48589 6.57297 7.33507 6.17742C7.30946 6.10628 7.27246 6.04083 7.22693 5.98107C7.05335 5.53146 7.22978 5.03347 7.65094 4.80013L9.41524 3.81268C9.52622 3.75008 9.64859 3.71309 9.77095 3.67609C9.899 2.71995 10.7129 2.00285 11.6804 2H13.9512C14.4634 2 14.8903 2.36994 14.9643 2.88215C15.0297 3.32608 15.4196 3.66186 15.8692 3.66186C16.3188 3.66186 16.7115 3.32608 16.777 2.88215C16.8509 2.36994 17.2778 2 17.79 2H20.0637ZM12.7247 15.8356H19.136V6.54451H12.7247V15.8356ZM19.5572 5.70504C19.7905 5.70504 19.9783 5.89286 19.9783 6.1262V16.2567C19.9783 16.4901 19.7877 16.6779 19.5572 16.6779H12.3007C12.0674 16.6779 11.8796 16.4901 11.8796 16.2567V6.12336C11.8796 5.89286 12.0674 5.7022 12.3007 5.7022H19.5572V5.70504Z" fill="#86888C"/>
</svg>
