<svg width="20" height="20" viewBox="0 0 20 20" fill="none" xmlns="http://www.w3.org/2000/svg">
<path d="M4.21703 4.43018C3.83886 4.43018 3.52486 4.3163 3.314 4.09993C3.10314 3.88356 3 3.58975 3 3.21395C3 2.45324 3.45381 2 4.21703 2C4.98026 2 5.43407 2.45324 5.43407 3.21395C5.43407 3.58975 5.32864 3.88584 5.12007 4.09993C4.9115 4.31402 4.59521 4.43018 4.21703 4.43018ZM4.21703 2.45552C3.70593 2.45552 3.45839 2.70377 3.45839 3.21395C3.45839 3.46676 3.52028 3.6558 3.64175 3.78107C3.76322 3.90633 3.96033 3.97238 4.21703 3.97238C4.47373 3.97238 4.66626 3.90861 4.79232 3.78107C4.91838 3.65352 4.97567 3.46676 4.97567 3.21395C4.97567 2.70377 4.72814 2.45552 4.21703 2.45552ZM7.12325 4.43018C6.74507 4.43018 6.43336 4.3163 6.22021 4.09993C6.00706 3.88356 5.90621 3.58975 5.90621 3.21395C5.90621 2.45324 6.36231 2 7.12325 2C7.88418 2 8.34028 2.45324 8.34028 3.21395C8.34028 3.58975 8.23485 3.88584 8.02628 4.09993C7.81771 4.31402 7.50142 4.43018 7.12325 4.43018ZM7.12325 2.45552C6.61214 2.45552 6.36461 2.70377 6.36461 3.21395C6.36461 3.46676 6.42649 3.6558 6.54796 3.78107C6.66944 3.90633 6.86655 3.97238 7.12325 3.97238C7.37995 3.97238 7.57247 3.90861 7.69853 3.78107C7.82459 3.65352 7.88189 3.46676 7.88189 3.21395C7.88189 2.70377 7.63435 2.45552 7.12325 2.45552ZM10.0272 4.43018C9.64899 4.43018 9.33729 4.3163 9.12413 4.09993C8.91098 3.88356 8.81013 3.58975 8.81013 3.21395C8.81013 2.45324 9.26394 2 10.0272 2C10.7904 2 11.2442 2.45324 11.2442 3.21395C11.2442 3.58975 11.1388 3.88584 10.9302 4.09993C10.7216 4.31402 10.4053 4.43018 10.0272 4.43018ZM10.0272 2.45552C9.51606 2.45552 9.26853 2.70377 9.26853 3.21395C9.26853 3.46676 9.33041 3.6558 9.45188 3.78107C9.57336 3.90633 9.77047 3.97238 10.0272 3.97238C10.2839 3.97238 10.4764 3.90861 10.6025 3.78107C10.7285 3.65352 10.7858 3.46676 10.7858 3.21395C10.7858 2.70377 10.5383 2.45552 10.0272 2.45552ZM4.21703 7.09495C3.83886 7.09495 3.52486 6.98107 3.314 6.7647C3.10314 6.54833 3 6.25452 3 5.87872C3 5.11801 3.4561 4.66477 4.21703 4.66477C4.97797 4.66477 5.43407 5.11801 5.43407 5.87872C5.43407 6.25452 5.32864 6.5506 5.12007 6.7647C4.9115 6.97879 4.59521 7.09495 4.21703 7.09495ZM4.21703 5.12028C3.70593 5.12028 3.45839 5.36854 3.45839 5.87872C3.45839 6.13153 3.52028 6.32057 3.64175 6.44584C3.76322 6.5711 3.96033 6.63715 4.21703 6.63715C4.47373 6.63715 4.66626 6.57338 4.79232 6.44584C4.91838 6.31829 4.97567 6.12925 4.97567 5.87872C4.97567 5.36854 4.72814 5.12028 4.21703 5.12028ZM7.12325 7.09495C6.74507 7.09495 6.43336 6.98107 6.22021 6.7647C6.00706 6.54833 5.90621 6.25452 5.90621 5.87872C5.90621 5.11801 6.36231 4.66477 7.12325 4.66477C7.88418 4.66477 8.34028 5.11801 8.34028 5.87872C8.34028 6.25452 8.23485 6.5506 8.02628 6.7647C7.81771 6.97879 7.50142 7.09495 7.12325 7.09495ZM7.12325 5.12028C6.61214 5.12028 6.36461 5.36854 6.36461 5.87872C6.36461 6.13153 6.42649 6.32057 6.54796 6.44584C6.66944 6.5711 6.86655 6.63715 7.12325 6.63715C7.37995 6.63715 7.57247 6.57338 7.69853 6.44584C7.82459 6.31829 7.88189 6.12925 7.88189 5.87872C7.88189 5.36854 7.63435 5.12028 7.12325 5.12028Z" fill="#86888C"/>
<path d="M14.8563 17.9999H9.58023C9.24331 17.9999 9.06683 17.7221 8.92473 17.4237C8.86285 17.2916 8.70929 16.9614 8.49613 16.5036C7.88647 15.1917 6.74966 12.7501 6.17896 11.5544C5.90621 10.985 6.1102 10.5431 6.39211 10.3222C6.75882 10.0307 7.3066 10.0421 7.69394 10.345C7.97815 10.5682 8.24402 11.067 8.52593 11.5977C8.57177 11.6842 8.61761 11.7708 8.66574 11.8573C8.72533 11.9666 8.77346 12.019 8.80326 12.0464C8.81242 12.0167 8.81701 11.9871 8.81472 11.9552C8.81242 11.6182 8.81472 5.94016 8.81472 5.88094V5.86728C8.86514 5.0929 9.29603 4.66699 10.0272 4.66699C10.7904 4.66699 11.2442 5.12023 11.2442 5.88094V8.60948C11.4276 8.49105 11.6613 8.42728 11.9364 8.42728C12.6102 8.42728 13.0296 8.8008 13.0824 9.43624C13.2657 9.31553 13.5018 9.25176 13.7814 9.25176C14.4575 9.25176 14.877 9.62984 14.9274 10.2698C15.1107 10.1491 15.3468 10.0854 15.6241 10.0854C16.3461 10.0854 16.7747 10.5158 16.7747 11.2333V16.1187C16.7747 16.7063 16.612 17.1686 16.2911 17.4943C15.9702 17.82 15.4591 17.9999 14.8563 17.9999ZM7.00865 10.5636C6.88717 10.5614 6.77028 10.6024 6.67402 10.6775C6.48608 10.8256 6.45399 11.0761 6.59151 11.3585C7.16221 12.5565 8.30132 15.0004 8.91098 16.3123C9.12413 16.7701 9.27769 17.1003 9.33958 17.2301C9.48626 17.5422 9.55273 17.5422 9.57794 17.5422H14.854C15.3331 17.5422 15.7273 17.4101 15.9634 17.1709C16.1994 16.9318 16.3163 16.5765 16.3163 16.1118V11.2333C16.3163 10.7664 16.0894 10.5409 15.6241 10.5409C15.1589 10.5409 14.932 10.7686 14.932 11.2333H14.4736V10.3997C14.4736 9.93276 14.2467 9.70728 13.7814 9.70728C13.3161 9.70728 13.0892 9.93503 13.0892 10.3997H12.6308V9.57518C12.6308 9.10827 12.4039 8.88279 11.9387 8.88279C11.4734 8.88279 11.2465 9.11055 11.2465 9.57518H10.7881V5.87866C10.7881 5.36849 10.5406 5.12023 10.0295 5.12023C9.53669 5.12023 9.30978 5.35027 9.27311 5.88777C9.27311 6.12464 9.27082 11.6204 9.27311 11.953C9.27311 12.2377 9.13559 12.4563 8.92015 12.511C8.78034 12.5451 8.50988 12.536 8.26006 12.0737C8.21422 11.9871 8.16609 11.8983 8.12025 11.8118C7.87272 11.3471 7.61602 10.8666 7.40974 10.7049C7.29285 10.6138 7.15304 10.5659 7.00865 10.5636ZM4.21703 9.75966C3.83886 9.75966 3.52486 9.64578 3.314 9.42941C3.10314 9.21304 3 8.91923 3 8.54343C3 7.78272 3.4561 7.32721 4.21703 7.32721C4.97797 7.32721 5.43407 7.78044 5.43407 8.54116C5.43407 8.91696 5.32864 9.21304 5.12007 9.42713C4.9115 9.64123 4.59521 9.75966 4.21703 9.75966ZM4.21703 7.785C3.70593 7.785 3.45839 8.03325 3.45839 8.54343C3.45839 8.79397 3.52028 8.98528 3.64175 9.11055C3.76322 9.23582 3.96033 9.30187 4.21703 9.30187C4.47373 9.30187 4.66626 9.2381 4.79232 9.11055C4.91837 8.98301 4.97567 8.79624 4.97567 8.54343C4.97567 8.03325 4.72814 7.785 4.21703 7.785Z" fill="#86888C"/>
<path d="M7.12328 9.75977C6.74511 9.75977 6.4334 9.64589 6.22025 9.42952C6.0071 9.21315 5.90625 8.91934 5.90625 8.54354C5.90625 7.78283 6.36235 7.32959 7.12328 7.32959C7.88421 7.32959 8.34032 7.78283 8.34032 8.54354C8.34032 8.91934 8.23489 9.21543 8.02632 9.42952C7.81775 9.64361 7.50146 9.75977 7.12328 9.75977ZM7.12328 7.78511C6.61217 7.78511 6.36464 8.03336 6.36464 8.54354C6.36464 8.79407 6.42653 8.98539 6.548 9.11066C6.66947 9.23592 6.86658 9.30197 7.12328 9.30197C7.37998 9.30197 7.57251 9.2382 7.69857 9.11066C7.82462 8.98311 7.88192 8.79635 7.88192 8.54354C7.88192 8.03336 7.63439 7.78511 7.12328 7.78511Z" fill="#86888C"/>
</svg>
