<svg width="24" height="24" viewBox="0 0 24 24" fill="none" xmlns="http://www.w3.org/2000/svg">
<path fill-rule="evenodd" clip-rule="evenodd" d="M21.6053 21.3121C21.8243 21.323 21.9919 21.5068 21.9811 21.7258C21.973 21.9312 21.8081 22.0935 21.6053 22.1016H9.46941C9.25043 22.1016 9.0747 21.9258 9.0747 21.7069C9.0747 21.4879 9.25043 21.3121 9.46941 21.3121H21.6053ZM7.84192 4.77501C7.21471 5.38329 6.8957 6.29977 6.8957 7.50281C6.8957 8.70586 7.21471 9.62234 7.84192 10.2252C8.44749 10.8092 9.34235 11.1038 10.4994 11.1038C11.6592 11.1038 12.5541 10.8092 13.1624 10.2252C13.795 9.62234 14.114 8.70316 14.114 7.50281C14.114 6.30247 13.795 5.38059 13.1624 4.77501C12.5541 4.18836 11.6592 3.89098 10.4994 3.89098C9.34235 3.89098 8.44749 4.18836 7.84192 4.77501ZM10.4994 11.896C9.13147 11.896 8.05279 11.5256 7.29582 10.7983C6.5064 10.0387 6.10629 8.93025 6.10629 7.50552C6.10629 6.08079 6.5064 4.97237 7.29311 4.20999C8.05009 3.47464 9.13147 3.10156 10.4994 3.10156C11.8674 3.10156 12.9488 3.47464 13.7085 4.20458C14.5006 4.96696 14.9007 6.07809 14.9007 7.50281C14.9007 8.92754 14.5006 10.036 13.7057 10.7956C12.9488 11.5256 11.8701 11.896 10.4994 11.896ZM3.78941 19.0277C3.78941 19.0602 3.81645 19.0872 3.84889 19.0872H9.14229C9.09903 18.8871 9.0774 18.6844 9.0774 18.4789V14.3669C9.0774 14.0993 9.11255 13.8614 9.17203 13.6451H8.0609C6.68754 13.6451 5.571 14.0533 4.83025 14.8265C4.15168 15.5348 3.79212 16.527 3.79212 17.6949L3.78941 19.0277ZM11.1483 13.1071C10.686 13.1071 10.3534 13.2098 10.1534 13.4099C10.0993 13.4667 10.0534 13.5316 10.0182 13.6018V13.6451H9.99929C9.91278 13.8316 9.86411 14.0695 9.86411 14.3669V18.4789C9.86411 18.9223 9.96144 19.2467 10.1534 19.4468C10.3507 19.6522 10.6833 19.7549 11.1429 19.7549L19.8913 19.7495C20.3509 19.7495 20.6834 19.6468 20.8835 19.4413C21.0754 19.2413 21.1727 18.9142 21.1727 18.4708V14.3642C21.1727 13.9236 21.0754 13.6018 20.8835 13.4072C20.6861 13.2044 20.3536 13.1044 19.8913 13.1044C19.8967 13.1017 11.1483 13.1071 11.1483 13.1071ZM9.45048 19.8144V19.8766H3.85159C3.38119 19.8766 3 19.4954 3 19.0277V17.6976C3 16.3215 3.43526 15.1401 4.25441 14.2831C5.14926 13.3504 6.46315 12.8584 8.05549 12.8584H9.58836C9.93981 12.4988 10.4643 12.3177 11.1456 12.3177L19.894 12.3123C20.5753 12.3123 21.0997 12.4934 21.4512 12.853C21.7918 13.199 21.9622 13.71 21.9622 14.3615V18.4735C21.9622 19.1277 21.7891 19.6387 21.4512 19.9902C21.0997 20.3551 20.5753 20.5417 19.8913 20.5417L11.1429 20.5471C10.4616 20.5471 9.93711 20.3605 9.58295 19.9956C9.53699 19.9415 9.49644 19.8766 9.45048 19.8144Z" fill="#86888C"/>
</svg>
