<svg width="20" height="20" viewBox="0 0 20 20" fill="none" xmlns="http://www.w3.org/2000/svg">
<path fill-rule="evenodd" clip-rule="evenodd" d="M9.1603 15.0851C8.38841 15.2256 7.29346 15.529 6.46979 16.1899C6.34402 16.291 6.16646 16.291 6.04069 16.1899C5.21702 15.529 4.12207 15.2232 3.35018 15.0851C3.26141 15.0678 3.19729 14.9914 3.19729 14.9001V13.2577L5.86806 14.4661C6.08755 14.5647 6.33662 14.5647 6.5561 14.4661L9.31566 13.2158V14.8977C9.31319 14.9889 9.24907 15.0678 9.1603 15.0851ZM1.72256 11.7041C1.72256 11.6547 1.74969 11.6128 1.79408 11.5906L6.15906 9.61282C6.19112 9.59803 6.22811 9.59803 6.26017 9.61282L10.6276 11.5906C10.6745 11.6128 10.6991 11.6523 10.6991 11.7041C10.7016 11.7534 10.672 11.8002 10.6276 11.8175L6.26017 13.7953C6.22811 13.8101 6.19359 13.8101 6.16153 13.7953L1.79408 11.8175C1.74969 11.7978 1.7201 11.7509 1.72256 11.7041ZM3.82367 6.46116C3.82367 5.87176 3.95931 5.43526 4.22565 5.1566C4.49938 4.87053 4.94821 4.72503 5.5524 4.72503L15.8459 4.7201C16.4525 4.7201 16.8989 4.8656 17.1726 5.15166C17.439 5.42787 17.5746 5.86683 17.5746 6.45376V11.3736C17.5746 11.9655 17.439 12.4094 17.1702 12.6905C16.894 12.984 16.4476 13.1319 15.8459 13.1319L10.0358 13.1344V12.8853L10.9211 12.4834C11.2293 12.3428 11.4217 12.0419 11.4217 11.6967C11.4217 11.3539 11.2293 11.053 10.9211 10.9125L6.55364 8.93465C6.33416 8.836 6.08508 8.836 5.8656 8.93465L3.82367 9.85943V6.46116ZM17.9716 14.5598H10.0358V13.8594L15.8459 13.8545C16.6473 13.8545 17.2663 13.6326 17.6806 13.1961C18.0801 12.7744 18.2824 12.1628 18.2824 11.3785V6.45623C18.2824 5.67448 18.0801 5.06535 17.6782 4.64858C17.2639 4.21948 16.6473 4 15.8459 4L5.5524 4.00493C4.75092 4.00493 4.1344 4.22195 3.7201 4.65105C3.31813 5.06782 3.11591 5.67448 3.11591 6.45869V10.185L1.50062 10.9174C1.19236 11.0604 1 11.3588 1 11.7041C1 12.0493 1.19236 12.3477 1.50062 12.4883L2.47472 12.9297V14.9001C2.47472 15.349 2.79038 15.7287 3.22195 15.8076C3.91245 15.9334 4.88409 16.2022 5.59186 16.767C5.97904 17.0777 6.52898 17.0777 6.91615 16.767C7.62145 16.1998 8.59556 15.9309 9.28607 15.8076C9.582 15.7559 9.81134 15.5561 9.93465 15.2947H17.9692C18.1689 15.2947 18.3292 15.1319 18.3292 14.9273C18.3342 14.725 18.1714 14.5623 17.9716 14.5598Z" fill="#86888C"/>
</svg>
