<svg width="40" height="40" viewBox="0 0 40 40" fill="none" xmlns="http://www.w3.org/2000/svg">
<path fill-rule="evenodd" clip-rule="evenodd" d="M21.9112 7.79277H3.48697V9.55473H19.7215C20.1339 9.55473 20.4649 9.95702 20.4649 10.451V18.5326C20.4649 19.0316 20.1339 19.4288 19.7215 19.4288H3.49206V23.0546H35.8032C35.8133 23.0546 35.8235 23.0597 35.8337 23.0597C36.0221 22.5454 36.1647 22.0107 36.2156 21.4352C36.2717 20.8241 36.2156 20.2029 36.0781 19.5765H22.7158C22.3033 19.5765 21.9723 19.1793 21.9723 18.6803V7.79277C21.9417 7.79786 21.9163 7.79786 21.9112 7.79277ZM35.4416 17.784C35.0648 17.0201 34.5555 16.2461 33.9088 15.467C29.4733 10.1251 25.5369 8.5057 23.4593 8.01174V17.7789H35.4416V17.784ZM32.5746 27.3373C33.1348 26.8942 34.1023 26.0184 34.9069 24.842H3.49206V27.6683C23.062 27.6683 29.5803 27.709 31.4899 27.7243C31.8617 27.7447 32.2487 27.6072 32.5746 27.3373ZM3.49206 17.6363H7.82567V11.3472H3.49206V17.6363ZM9.30755 17.6363H13.4578V11.3472H9.31265V17.6363H9.30755ZM14.9448 17.6363H18.978V11.3472H14.9448V17.6363ZM2 23.9509C2 23.9458 2.00509 23.9356 2.00509 23.9305V18.5479C2.00509 18.5428 2 18.5377 2 18.5326V10.451V6.89651C2 6.65717 2.07639 6.42801 2.21897 6.25996C2.35647 6.09191 2.54488 6.00025 2.74349 6.00025H21.8857C22.0894 6.00025 28.0169 5.8322 34.9629 14.199C36.9846 16.6331 37.9012 19.1284 37.6924 21.6186C37.392 25.173 34.8713 27.6683 33.3996 28.8344C32.8343 29.2826 32.1825 29.5219 31.5052 29.5219H31.4797C29.5497 29.5015 22.8889 29.4659 2.74858 29.4659C2.3361 29.4659 2.00509 29.0636 2.00509 28.5696V23.9661C2.00509 23.9661 2 23.9559 2 23.9509H2ZM37.0457 31.2075C37.4582 31.2075 37.7892 31.6098 37.7892 32.1037C37.7892 32.5977 37.4582 33 37.0457 33H2.74349C2.331 33 2 32.5977 2 32.1037C2 31.6098 2.331 31.2075 2.74349 31.2075H37.0457Z" fill="#86888C"/>
</svg>
