<svg width="24" height="24" viewBox="0 0 24 24" fill="none" xmlns="http://www.w3.org/2000/svg">
<path fill-rule="evenodd" clip-rule="evenodd" d="M11.0434 17.6432C10.0934 17.8162 8.7458 18.1895 7.73205 19.0029C7.57725 19.1274 7.35872 19.1274 7.20393 19.0029C6.19017 18.1895 4.84255 17.8131 3.89254 17.6432C3.78327 17.6219 3.70435 17.5278 3.70435 17.4155V15.3941L6.99146 16.8813C7.26159 17.0028 7.56815 17.0028 7.83828 16.8813L11.2347 15.3425V17.4125C11.2316 17.5248 11.1527 17.6219 11.0434 17.6432ZM1.88931 13.4819C1.88931 13.4212 1.9227 13.3696 1.97733 13.3423L7.34962 10.9081C7.38907 10.8899 7.4346 10.8899 7.47406 10.9081L12.8494 13.3423C12.907 13.3696 12.9374 13.4182 12.9374 13.4819C12.9404 13.5426 12.904 13.6003 12.8494 13.6215L7.47406 16.0558C7.4346 16.074 7.39211 16.074 7.35265 16.0558L1.97733 13.6215C1.9227 13.5973 1.88628 13.5396 1.88931 13.4819ZM4.47529 7.02912C4.47529 6.30371 4.64223 5.76648 4.97003 5.4235C5.30693 5.07142 5.85934 4.89235 6.60296 4.89235L19.2718 4.88628C20.0185 4.88628 20.5679 5.06535 20.9048 5.41743C21.2326 5.75737 21.3995 6.29764 21.3995 7.02001V13.0752C21.3995 13.8037 21.2326 14.35 20.9017 14.696C20.5618 15.0572 20.0124 15.2393 19.2718 15.2393L12.1209 15.2423V14.9358L13.2106 14.4411C13.59 14.268 13.8267 13.8978 13.8267 13.4728C13.8267 13.0509 13.59 12.6806 13.2106 12.5076L7.83525 10.0734C7.56511 9.95201 7.25856 9.95201 6.98843 10.0734L4.47529 11.2116V7.02912ZM21.8882 16.9967H12.1209V16.1347L19.2718 16.1286C20.2583 16.1286 21.0201 15.8554 21.53 15.3182C22.0217 14.7992 22.2706 14.0465 22.2706 13.0813V7.02305C22.2706 6.06089 22.0217 5.3112 21.527 4.79825C21.0171 4.27013 20.2583 4 19.2718 4L6.60296 4.00607C5.61652 4.00607 4.85773 4.27317 4.34781 4.80129C3.85308 5.31424 3.60419 6.06089 3.60419 7.02608V11.6123L1.61614 12.5137C1.23674 12.6897 1 13.057 1 13.4819C1 13.9069 1.23674 14.2741 1.61614 14.4471L2.81504 14.9904V17.4155C2.81504 17.9679 3.20355 18.4354 3.73471 18.5325C4.58456 18.6873 5.78042 19.0181 6.65152 19.7132C7.12805 20.0956 7.80489 20.0956 8.28142 19.7132C9.14948 19.0151 10.3484 18.6842 11.1982 18.5325C11.5625 18.4687 11.8447 18.2229 11.9965 17.9012H21.8851C22.131 17.9012 22.3283 17.7008 22.3283 17.4489C22.3343 17.2 22.134 16.9997 21.8882 16.9967Z" fill="#86888C"/>
</svg>
