<svg width="20" height="20" viewBox="0 0 20 20" fill="none" xmlns="http://www.w3.org/2000/svg">
<path fill-rule="evenodd" clip-rule="evenodd" d="M18.6676 17.4368C18.852 17.4459 18.9932 17.6007 18.9841 17.7851C18.9772 17.9581 18.8384 18.0947 18.6676 18.1016H8.44792C8.26352 18.1016 8.11554 17.9536 8.11554 17.7692C8.11554 17.5848 8.26352 17.4368 8.44792 17.4368H18.6676ZM7.0774 3.51078C6.54923 4.02302 6.28059 4.79479 6.28059 5.80788C6.28059 6.82097 6.54923 7.59274 7.0774 8.10042C7.58736 8.59217 8.34092 8.84032 9.31531 8.84032C10.292 8.84032 11.0455 8.59217 11.5578 8.10042C12.0905 7.59274 12.3591 6.81869 12.3591 5.80788C12.3591 4.79707 12.0905 4.02074 11.5578 3.51078C11.0455 3.01676 10.292 2.76633 9.31531 2.76633C8.34092 2.76633 7.58736 3.01676 7.0774 3.51078ZM9.31531 9.50737C8.16335 9.50737 7.25498 9.19547 6.61753 8.58307C5.95276 7.94334 5.61582 7.00993 5.61582 5.81016C5.61582 4.61038 5.95276 3.67698 6.61525 3.03497C7.2527 2.41573 8.16335 2.10156 9.31531 2.10156C10.4673 2.10156 11.3779 2.41573 12.0176 3.03042C12.6847 3.67242 13.0216 4.60811 13.0216 5.80788C13.0216 7.00765 12.6847 7.94106 12.0154 8.58079C11.3779 9.19547 10.4696 9.50737 9.31531 9.50737ZM3.66477 15.5131C3.66477 15.5404 3.68754 15.5631 3.71485 15.5631H8.17245C8.13603 15.3947 8.11782 15.2239 8.11782 15.0509V11.5882C8.11782 11.3628 8.14741 11.1625 8.1975 10.9803H7.26181C6.10529 10.9803 5.16505 11.3241 4.54126 11.9752C3.96983 12.5717 3.66705 13.4072 3.66705 14.3907L3.66477 15.5131ZM9.8617 10.5273C9.4724 10.5273 9.19237 10.6138 9.0239 10.7823C8.97837 10.8301 8.93967 10.8847 8.91007 10.9439V10.9803H8.89414C8.82129 11.1374 8.78031 11.3378 8.78031 11.5882V15.0509C8.78031 15.4243 8.86227 15.6975 9.0239 15.8659C9.1901 16.039 9.47012 16.1255 9.85714 16.1255L17.2242 16.1209C17.6113 16.1209 17.8913 16.0344 18.0598 15.8614C18.2214 15.6929 18.3034 15.4174 18.3034 15.0441V11.5859C18.3034 11.2148 18.2214 10.9439 18.0598 10.78C17.8936 10.6092 17.6135 10.525 17.2242 10.525C17.2288 10.5227 9.8617 10.5273 9.8617 10.5273ZM8.43199 16.1756V16.2279H3.71713C3.321 16.2279 3 15.9069 3 15.5131V14.393C3 13.2342 3.36653 12.2393 4.05635 11.5176C4.8099 10.7322 5.91633 10.3178 7.25726 10.3178H8.54809C8.84405 10.0151 9.28572 9.86252 9.85942 9.86252L17.2265 9.85797C17.8002 9.85797 18.2419 10.0105 18.5378 10.3133C18.8247 10.6047 18.9681 11.035 18.9681 11.5836V15.0464C18.9681 15.5973 18.8224 16.0276 18.5378 16.3235C18.2419 16.6309 17.8002 16.788 17.2242 16.788L9.85714 16.7925C9.28344 16.7925 8.84178 16.6354 8.54354 16.3281C8.50484 16.2826 8.47069 16.2279 8.43199 16.1756Z" fill="#86888C"/>
</svg>
