<svg width="20" height="20" viewBox="0 0 20 20" fill="none" xmlns="http://www.w3.org/2000/svg">
<path fill-rule="evenodd" clip-rule="evenodd" d="M15.6125 15.4568V6.07267H4.35467V15.4705C4.35467 15.5047 4.30913 16.3015 4.81226 16.8274C5.12644 17.1597 5.59769 17.3328 6.2101 17.3328H13.7343C13.7616 17.3328 14.5789 17.3601 15.1185 16.8342C15.4463 16.5223 15.6125 16.0556 15.6125 15.4568ZM6.9113 3.73915V5.4079H13.0581V3.7437C13.0581 3.71638 13.0855 3.21097 12.7986 2.90591C12.6461 2.73972 12.4252 2.66686 12.127 2.66686H7.82194C7.78779 2.66686 7.44175 2.63954 7.19587 2.86721C7.00236 3.04023 6.90902 3.33163 6.9113 3.73915ZM17.6478 5.4079C17.8322 5.41928 17.9711 5.57865 17.9597 5.76077C17.9483 5.92924 17.8162 6.06129 17.6478 6.07267H16.2773V15.4568C16.2773 16.2491 16.0382 16.8752 15.5715 17.3191C14.9136 17.9588 14.0007 17.9975 13.7753 17.9975H6.21238C5.39963 17.9975 4.76901 17.7585 4.32279 17.2781C3.62387 16.5337 3.6899 15.4887 3.6899 15.4477V6.07267H2.31255C2.12814 6.06129 1.98927 5.90192 2.00065 5.7198C2.01204 5.55133 2.14408 5.41928 2.31255 5.4079H6.24425V3.73915C6.24425 3.13357 6.41044 2.67369 6.74966 2.36863C7.22319 1.94973 7.82877 2.00209 7.85381 2.00209H12.1247C12.6165 2.00209 13.0035 2.15463 13.2835 2.45514C13.7684 2.97421 13.7229 3.73915 13.7229 3.77102V5.4079H17.6478ZM8.27726 14.5963C8.09285 14.5963 7.94488 14.4483 7.94488 14.2639V9.15064C7.95626 8.96624 8.11562 8.82736 8.29775 8.83875C8.46622 8.85013 8.59826 8.98217 8.60965 9.15064V14.2639C8.60965 14.4483 8.46167 14.5963 8.27726 14.5963ZM11.6853 14.5963C11.5009 14.5963 11.353 14.4483 11.353 14.2639V9.15064C11.3643 8.96624 11.5237 8.82736 11.7058 8.83875C11.8743 8.85013 12.0063 8.98217 12.0177 9.15064V14.2639C12.0177 14.4483 11.8697 14.5963 11.6853 14.5963Z" fill="#86888C"/>
</svg>
