<svg width="28" height="28" viewBox="0 0 28 28" fill="none" xmlns="http://www.w3.org/2000/svg">
<path fill-rule="evenodd" clip-rule="evenodd" d="M22.4219 22.1884V8.10994H5.53254V22.2089C5.53254 22.2601 5.46423 23.4555 6.21904 24.2445C6.69037 24.7431 7.39737 25.0027 8.31612 25.0027H19.6041C19.6451 25.0027 20.8713 25.0437 21.6807 24.2547C22.1725 23.7868 22.4219 23.0866 22.4219 22.1884ZM9.36808 4.60912V7.11264H18.5898V4.61595C18.5898 4.57497 18.6307 3.81674 18.2004 3.35907C17.9716 3.10974 17.6403 3.00045 17.1928 3.00045H10.7343C10.683 3.00045 10.1639 2.95946 9.795 3.30101C9.50469 3.56058 9.36466 3.99776 9.36808 4.60912ZM25.4753 7.11264C25.7519 7.12971 25.9603 7.36879 25.9432 7.64203C25.9261 7.89477 25.728 8.09287 25.4753 8.10994H23.4192V22.1884C23.4192 23.3769 23.0606 24.3162 22.3604 24.9822C21.3733 25.9419 20.0037 26 19.6656 26H8.31954C7.10022 26 6.15415 25.6414 5.48472 24.9207C4.43619 23.8039 4.53523 22.2362 4.53523 22.1747V8.10994H2.46889C2.19224 8.09287 1.9839 7.85379 2.00098 7.58055C2.01806 7.32781 2.21615 7.12971 2.46889 7.11264H8.36735V4.60912C8.36735 3.70061 8.61668 3.0107 9.12558 2.55303C9.83599 1.92459 10.7445 2.00314 10.7821 2.00314H17.1894C17.9272 2.00314 18.5078 2.23198 18.9279 2.68281C19.6554 3.46153 19.5871 4.60912 19.5871 4.65694V7.11264H25.4753ZM11.4173 20.8973C11.1407 20.8973 10.9187 20.6753 10.9187 20.3987V12.7276C10.9358 12.451 11.1748 12.2426 11.4481 12.2597C11.7008 12.2768 11.8989 12.4749 11.916 12.7276V20.3987C11.916 20.6753 11.694 20.8973 11.4173 20.8973ZM16.5302 20.8973C16.2536 20.8973 16.0316 20.6753 16.0316 20.3987V12.7276C16.0487 12.451 16.2877 12.2426 16.561 12.2597C16.8137 12.2768 17.0118 12.4749 17.0289 12.7276V20.3987C17.0289 20.6753 16.8069 20.8973 16.5302 20.8973Z" fill="#86888C"/>
</svg>
