<svg width="28" height="28" viewBox="0 0 28 28" fill="none" xmlns="http://www.w3.org/2000/svg">
<path fill-rule="evenodd" clip-rule="evenodd" d="M24.9926 24.4667C24.9926 24.7604 24.757 24.9994 24.4633 24.9994H3.52305C3.2362 24.9994 2.99374 24.757 2.99374 24.4667V15.5674C2.99374 15.284 3.2362 15.045 3.52305 15.045H10.7285V15.6255C10.7285 17.3603 12.1389 18.7706 13.8736 18.7706H14.1127C15.8475 18.7706 17.2612 17.3603 17.2612 15.6255V15.045H24.4667C24.716 15.045 24.9277 15.2157 24.9789 15.4411L24.9858 15.4821C24.9892 15.5094 24.996 15.5367 24.996 15.5674V24.4667H24.9926ZM4.99488 3.52988C4.99488 3.23961 5.23051 3.00057 5.52077 3.00057L22.4656 3.02106C22.7729 3.02106 23.0427 3.29425 23.1076 3.66989L24.7604 14.0956C24.6614 14.0751 24.5657 14.0444 24.4599 14.0444H16.7592C16.4826 14.0444 16.2607 14.2664 16.2607 14.5464V15.6289C16.2607 16.8105 15.2977 17.7735 14.1127 17.7735H13.8736C12.6887 17.7735 11.7257 16.8105 11.7257 15.6289V14.5464C11.7257 14.2698 11.5003 14.0444 11.2271 14.0444H3.52305C3.4206 14.0444 3.32499 14.0546 3.22937 14.0751L4.99488 3.52988ZM25.9829 15.4752C25.9829 15.4548 25.9898 15.4377 25.9863 15.4172L25.9659 15.2772V15.2669V15.2635L24.1013 3.50256C23.9408 2.62834 23.2715 2.02049 22.4724 2.02049L5.5276 2C4.68754 2 4.00114 2.6864 4.00797 3.44792L2.01024 15.3318C2.00341 15.3625 2.01366 15.3933 2.01366 15.424C2.01024 15.4718 2 15.5196 2 15.5674V24.4667C2 25.3136 2.6864 26 3.52988 26H24.4735C25.3136 26 26 25.3136 26 24.4667V15.5674C25.9932 15.5401 25.9863 15.506 25.9829 15.4752Z" fill="#86888C"/>
</svg>
