<svg width="40" height="40" viewBox="0 0 40 40" fill="none" xmlns="http://www.w3.org/2000/svg">
<path fill-rule="evenodd" clip-rule="evenodd" d="M36.4889 35.7001C36.4889 36.1406 36.1355 36.4991 35.6949 36.4991H4.28458C3.8543 36.4991 3.49061 36.1355 3.49061 35.7001V22.3512C3.49061 21.926 3.8543 21.5674 4.28458 21.5674H15.0928V22.4382C15.0928 25.0404 17.2083 27.1559 19.8105 27.1559H20.169C22.7712 27.1559 24.8919 25.0404 24.8919 22.4382V21.5674H35.7001C36.074 21.5674 36.3916 21.8236 36.4684 22.1616L36.4787 22.2231C36.4838 22.2641 36.494 22.3051 36.494 22.3512V35.7001H36.4889ZM6.49232 4.29482C6.49232 3.85942 6.84576 3.50085 7.28116 3.50085L32.6983 3.53159C33.1594 3.53159 33.564 3.94138 33.6614 4.50484L36.1406 20.1434C35.992 20.1127 35.8486 20.0666 35.6898 20.0666H24.1389C23.724 20.0666 23.391 20.3995 23.391 20.8196V22.4434C23.391 24.2157 21.9465 25.6602 20.169 25.6602H19.8105C18.033 25.6602 16.5885 24.2157 16.5885 22.4434V20.8196C16.5885 20.4047 16.2504 20.0666 15.8406 20.0666H4.28458C4.1309 20.0666 3.98748 20.082 3.84405 20.1127L6.49232 4.29482ZM37.9744 22.2129C37.9744 22.1821 37.9846 22.1565 37.9795 22.1258L37.9488 21.9158V21.9004V21.8953L35.152 4.25384C34.9112 2.94252 33.9072 2.03073 32.7086 2.03073L7.29141 2C6.0313 2 5.00171 3.0296 5.01195 4.17188L2.01537 21.9977C2.00512 22.0438 2.02049 22.0899 2.02049 22.136C2.01537 22.2077 2 22.2795 2 22.3512V35.7001C2 36.9704 3.0296 38 4.29482 38H35.7103C36.9704 38 38 36.9704 38 35.7001V22.3512C37.9898 22.3102 37.9795 22.259 37.9744 22.2129Z" fill="#86888C"/>
</svg>
