<svg width="24" height="24" viewBox="0 0 24 24" fill="none" xmlns="http://www.w3.org/2000/svg">
<path fill-rule="evenodd" clip-rule="evenodd" d="M21.1605 20.7223C21.1605 20.967 20.9641 21.1662 20.7194 21.1662H3.26921C3.03017 21.1662 2.82812 20.9641 2.82812 20.7223V13.3062C2.82812 13.07 3.03017 12.8708 3.26921 12.8708H9.27376V13.3546C9.27376 14.8002 10.4491 15.9755 11.8947 15.9755H12.0939C13.5396 15.9755 14.7177 14.8002 14.7177 13.3546V12.8708H20.7223C20.93 12.8708 21.1064 13.0131 21.1491 13.2009L21.1548 13.2351C21.1577 13.2578 21.1633 13.2806 21.1633 13.3062V20.7223H21.1605ZM4.49573 3.2749C4.49573 3.03301 4.69209 2.83381 4.93398 2.83381L19.0546 2.85088C19.3108 2.85088 19.5356 3.07854 19.5896 3.39158L20.967 12.0797C20.8845 12.0626 20.8048 12.037 20.7166 12.037H14.2994C14.0689 12.037 13.8839 12.222 13.8839 12.4553V13.3574C13.8839 14.3421 13.0814 15.1446 12.0939 15.1446H11.8947C10.9072 15.1446 10.1047 14.3421 10.1047 13.3574V12.4553C10.1047 12.2248 9.9169 12.037 9.68924 12.037H3.26921C3.18384 12.037 3.10415 12.0455 3.02447 12.0626L4.49573 3.2749ZM21.9858 13.2294C21.9858 13.2123 21.9915 13.1981 21.9886 13.181L21.9715 13.0643V13.0558V13.0529L20.4178 3.25213C20.284 2.52362 19.7262 2.01707 19.0603 2.01707L4.93967 2C4.23961 2 3.66762 2.572 3.67331 3.2066L2.00854 13.1098C2.00285 13.1355 2.01138 13.1611 2.01138 13.1867C2.00854 13.2265 2 13.2664 2 13.3062V20.7223C2 21.428 2.572 22 3.2749 22H20.7279C21.428 22 22 21.428 22 20.7223V13.3062C21.9943 13.2834 21.9886 13.255 21.9858 13.2294Z" fill="#86888C"/>
</svg>
