<svg width="28" height="28" viewBox="0 0 28 28" fill="none" xmlns="http://www.w3.org/2000/svg">
<path fill-rule="evenodd" clip-rule="evenodd" d="M20.8275 11.7427C20.6124 11.8964 20.5612 12.1969 20.7114 12.4121C20.7524 12.4701 20.8036 12.5179 20.8651 12.5521C21.5515 12.9653 21.8828 13.6483 21.8828 14.6386C21.8828 15.9192 21.3022 16.7251 20.1548 17.029C19.926 17.0905 19.7792 17.3739 19.7792 17.5959C19.7792 21.3216 16.3199 21.6118 15.2578 21.6118H15.2442V15.8884C15.2681 15.8645 15.3022 15.8509 15.3227 15.8236L18.1332 12.2447C18.2971 12.0364 18.2629 11.7359 18.0546 11.572C18.0444 11.5652 18.0341 11.5549 18.0239 11.5481C17.7883 11.3876 17.4673 11.432 17.2863 11.6505L15.2476 14.2493V11.2339C15.2476 10.9607 15.012 10.7388 14.7217 10.7388C14.4314 10.7388 14.1958 10.9607 14.1958 11.2339V18.2003L11.7302 15.8645C11.5219 15.6699 11.1975 15.6699 10.9858 15.8611C10.7911 16.0387 10.7775 16.3392 10.955 16.5339C10.9653 16.5441 10.9721 16.5544 10.9824 16.5612L14.148 19.5629C14.1616 19.5766 14.1787 19.58 14.1924 19.5902V21.5026C13.0484 21.3079 11.4092 20.7308 10.9038 18.9585C10.8355 18.7399 10.6375 18.5931 10.4087 18.5931C9.39784 18.5692 7.05179 18.2106 7.05179 15.3899C7.05179 14.2493 7.42743 13.399 8.16847 12.856C8.30507 12.757 8.37678 12.5999 8.36995 12.4394C8.3597 12.2755 8.2675 12.1252 8.12749 12.0433C7.44451 11.6335 7.10985 10.9505 7.10985 9.95674C7.10985 8.66591 7.67331 7.88389 8.84121 7.56631C9.06659 7.50484 9.21343 7.22481 9.21343 7.00285C9.21343 3.27718 12.6727 2.98691 13.7348 2.98691C14.5783 2.98691 17.3887 3.17814 18.0888 5.63347C18.1503 5.84178 18.3483 5.99203 18.5805 5.99886C19.8372 6.03984 21.9442 6.50768 21.9442 9.20888C21.9442 10.3665 21.5788 11.1929 20.8275 11.7427ZM22.9994 9.21571C22.9994 6.39499 20.9949 5.22026 18.9937 5.03586C17.918 2.15026 14.4451 2 13.7382 2C12.8298 2 8.39385 2.2288 8.17871 6.7399C6.80933 7.25555 6.06147 8.38589 6.06147 9.96699C6.06147 11.2237 6.5259 12.0125 7.04496 12.4974C6.34832 13.218 6 14.1912 6 15.3967C6 18.2311 8.00114 19.399 10.0023 19.5731C10.7911 21.6835 12.864 22.329 14.1958 22.5236V25.5048C14.1958 25.7814 14.4314 26 14.7217 26C15.012 26 15.2476 25.778 15.2476 25.5048V22.6056H15.2612C16.1696 22.6056 20.6056 22.3768 20.8207 17.8657C21.7427 17.5208 22.9414 16.6807 22.9414 14.6386C22.9414 13.5595 22.6101 12.7092 21.9579 12.1047C22.6511 11.3876 22.9994 10.4178 22.9994 9.21571Z" fill="#86888C"/>
</svg>
