<svg width="40" height="40" viewBox="0 0 40 40" fill="none" xmlns="http://www.w3.org/2000/svg">
<path fill-rule="evenodd" clip-rule="evenodd" d="M28.5418 26.3043L20.7954 26.3563C20.7262 26.3563 20.6744 26.3909 20.6225 26.4082V21.1074C20.6571 21.0727 20.7089 21.0554 20.7435 21.0034L24.755 15.5293C24.9971 15.2002 24.928 14.7151 24.5994 14.4726C24.2709 14.2301 23.7867 14.2994 23.5447 14.6285L20.6398 18.5955V15.512C20.6571 15.0963 20.3285 14.7498 19.9135 14.7325C19.4986 14.7151 19.1527 15.0443 19.1354 15.46V23.1342L15.6254 19.5656C15.3314 19.2711 14.8646 19.2711 14.5706 19.5656C14.2767 19.8601 14.2767 20.3451 14.5706 20.6396L19.049 25.2129C19.0663 25.2303 19.1009 25.2303 19.1182 25.2649V26.3736H9.72911C7.86167 26.3736 3.50432 25.7673 3.50432 20.1199C3.50432 16.9498 4.87032 14.9577 7.53314 14.1955C7.86167 14.1088 8.06916 13.6065 8.06916 13.26C8.06916 4.23468 15.8847 3.52443 18.2709 3.52443C19.6196 3.52443 26.4669 3.83625 28.0922 9.96862C28.1787 10.2978 28.4726 10.523 28.8012 10.5403C31.1009 10.6096 36.4784 11.5104 36.4784 18.3876C36.4957 25.7326 30.4092 26.3043 28.5418 26.3043ZM29.4063 9.03317C27.2622 2.34646 19.7925 2 18.2882 2C16.3516 2 6.77233 2.51969 6.58213 12.8962C4.64553 13.6065 2 15.4254 2 20.1199C2 25.8539 5.99424 27.8807 9.72911 27.8807H19.1182V37.3044C19.1527 37.7202 19.5159 38.032 19.9308 37.9974C20.2939 37.9627 20.5879 37.6682 20.6225 37.3044V27.846C20.6916 27.8634 20.7435 27.898 20.8127 27.898L28.5418 27.846C32.8991 27.846 38 25.3688 38 18.3876C38 10.5403 32 9.22373 29.4063 9.03317Z" fill="#86888C"/>
</svg>
