<svg width="20" height="20" viewBox="0 0 20 20" fill="none" xmlns="http://www.w3.org/2000/svg">
<path fill-rule="evenodd" clip-rule="evenodd" d="M13.7963 12.8019L10.3535 12.825C10.3228 12.825 10.2997 12.8404 10.2767 12.8481V10.4922C10.292 10.4768 10.3151 10.4691 10.3305 10.446L12.1134 8.01303C12.2209 7.86675 12.1902 7.65118 12.0442 7.54339C11.8982 7.4356 11.683 7.4664 11.5754 7.61268L10.2843 9.37578V8.00534C10.292 7.82056 10.146 7.66657 9.96158 7.65887C9.77714 7.65118 9.62344 7.79746 9.61575 7.98224V11.393L8.05572 9.80694C7.92507 9.67605 7.71758 9.67605 7.58694 9.80694C7.45629 9.93782 7.45629 10.1534 7.58694 10.2843L9.57733 12.3169C9.58501 12.3246 9.60038 12.3246 9.60807 12.34V12.8327H5.43516C4.60519 12.8327 2.66859 12.5632 2.66859 10.0533C2.66859 8.64436 3.2757 7.75896 4.45917 7.4202C4.60519 7.3817 4.69741 7.15843 4.69741 7.00445C4.69741 2.99319 8.17099 2.67753 9.23151 2.67753C9.83093 2.67753 12.8742 2.81611 13.5965 5.54161C13.635 5.68789 13.7656 5.78798 13.9116 5.79568C14.9337 5.82648 17.3237 6.22683 17.3237 9.28339C17.3314 12.5478 14.6263 12.8019 13.7963 12.8019ZM14.1806 5.12585C13.2277 2.15398 9.90778 2 9.23919 2C8.37848 2 4.12104 2.23097 4.0365 6.84276C3.17579 7.15843 2 7.96684 2 10.0533C2 12.6017 3.77522 13.5025 5.43516 13.5025H9.60807V17.6909C9.62344 17.8756 9.78482 18.0142 9.96926 17.9988C10.1306 17.9834 10.2613 17.8525 10.2767 17.6909V13.4871C10.3074 13.4948 10.3305 13.5102 10.3612 13.5102L13.7963 13.4871C15.7329 13.4871 18 12.3862 18 9.28339C18 5.79568 15.3333 5.21054 14.1806 5.12585Z" fill="#86888C"/>
</svg>
