<svg width="28" height="28" viewBox="0 0 28 28" fill="none" xmlns="http://www.w3.org/2000/svg">
<path fill-rule="evenodd" clip-rule="evenodd" d="M19.6945 18.2029L14.5303 18.2375C14.4841 18.2375 14.4496 18.2606 14.415 18.2722V14.7382C14.438 14.7151 14.4726 14.7036 14.4957 14.6689L17.17 11.0196C17.3314 10.8001 17.2853 10.4768 17.0663 10.3151C16.8473 10.1534 16.5245 10.1996 16.3631 10.419L14.4265 13.0637V11.008C14.438 10.7308 14.219 10.4999 13.9424 10.4883C13.6657 10.4768 13.4352 10.6962 13.4236 10.9734V16.0894L11.0836 13.7104C10.8876 13.5141 10.5764 13.5141 10.3804 13.7104C10.1844 13.9067 10.1844 14.2301 10.3804 14.4264L13.366 17.4753C13.3775 17.4868 13.4006 17.4868 13.4121 17.5099V18.2491H7.15274C5.90778 18.2491 3.00288 17.8448 3.00288 14.08C3.00288 11.9665 3.91354 10.6384 5.68876 10.1303C5.90778 10.0726 6.04611 9.73764 6.04611 9.50667C6.04611 3.48979 11.2565 3.01629 12.8473 3.01629C13.7464 3.01629 18.3112 3.22416 19.3948 7.31241C19.4524 7.53184 19.6484 7.68197 19.8674 7.69352C21.4006 7.73972 24.9856 8.34025 24.9856 12.9251C24.9971 17.8218 20.9395 18.2029 19.6945 18.2029ZM20.2709 6.68878C18.8415 2.23097 13.8617 2 12.8588 2C11.5677 2 5.18156 2.34646 5.05475 9.26415C3.76369 9.73764 2 10.9503 2 14.08C2 17.9026 4.66282 19.2538 7.15274 19.2538H13.4121V25.5363C13.4352 25.8135 13.6772 26.0213 13.9539 25.9982C14.196 25.9751 14.3919 25.7788 14.415 25.5363V19.2307C14.4611 19.2422 14.4957 19.2653 14.5418 19.2653L19.6945 19.2307C22.5994 19.2307 26 17.5792 26 12.9251C26 7.69352 22 6.81582 20.2709 6.68878Z" fill="#86888C"/>
</svg>
