<svg width="20" height="20" viewBox="0 0 20 20" fill="none" xmlns="http://www.w3.org/2000/svg">
<path fill-rule="evenodd" clip-rule="evenodd" d="M14.0285 16.397V6.21915C14.0285 6.07343 13.9214 5.95275 13.8782 5.94137H6.7901C6.75139 5.95048 6.64437 6.07115 6.64437 6.21688V16.3948C6.64437 16.5587 6.75139 16.668 6.7901 16.6703H13.8827C13.9192 16.6725 14.0285 16.5587 14.0285 16.397ZM8.67084 2.66714V5.27195H12.0043V2.66714H8.67084ZM13.8827 5.2765C14.2949 5.2765 14.6706 5.72734 14.6706 6.21915V16.397C14.6706 16.9002 14.304 17.3397 13.8827 17.3397H13.0767C13.0767 17.3534 13.079 17.3625 13.079 17.3761C13.079 17.9545 12.6395 18 12.528 18H12.4756C12.3595 17.9977 11.9246 17.9522 11.9246 17.3716C11.9246 17.3579 11.9269 17.3511 11.9269 17.3374H8.77558C8.77558 17.3511 8.78013 17.3602 8.78013 17.3738C8.78013 17.9522 8.33841 17.9977 8.22912 17.9977H8.17447C8.05835 17.9954 7.62345 17.9499 7.62345 17.3693C7.62345 17.3556 7.62573 17.3488 7.62573 17.3351H6.78782C6.36886 17.3351 6 16.8934 6 16.3925V6.22143C6 5.72734 6.37569 5.27878 6.78782 5.27878H8.02419V2.55785C8.02419 2.26185 8.28149 2 8.57749 2H12.0908C12.3845 2 12.6441 2.25957 12.6441 2.55785V5.2765H13.8827ZM12.0612 14.6893C12.0794 14.6347 12.0885 14.5778 12.0885 14.5208V10.3245H8.58887V14.5208C8.58887 14.5914 8.60253 14.6506 8.61619 14.6893H12.0612ZM8.61619 8.01338C8.59798 8.06802 8.58659 8.12495 8.58659 8.18187V9.65504H12.084V8.18187C12.084 8.11584 12.0703 8.05436 12.0544 8.01338H8.61619ZM12.1682 7.34851C12.5211 7.34851 12.7306 7.7743 12.7306 8.18415V14.5208C12.7306 14.9261 12.5325 15.3565 12.1682 15.3565H8.5069C8.14259 15.3565 7.9445 14.9261 7.9445 14.5208V8.18415C7.9445 7.77202 8.15398 7.34851 8.5069 7.34851H12.1682Z" fill="#86888C"/>
</svg>
