<svg width="40" height="40" viewBox="0 0 40 40" fill="none" xmlns="http://www.w3.org/2000/svg">
<path fill-rule="evenodd" clip-rule="evenodd" d="M28.064 34.3933V11.4931C28.064 11.1652 27.8233 10.8937 27.7259 10.8681H11.7777C11.6906 10.8886 11.4498 11.1601 11.4498 11.488V34.3882C11.4498 34.7571 11.6906 35.003 11.7777 35.0081H27.7362C27.8181 35.0132 28.064 34.7571 28.064 34.3933ZM16.0094 3.50107V9.36189H23.5096V3.50107H16.0094ZM27.7362 9.37214C28.6634 9.37214 29.5088 10.3865 29.5088 11.4931V34.3933C29.5088 35.5255 28.6839 36.5143 27.7362 36.5143H25.9226C25.9226 36.545 25.9277 36.5655 25.9277 36.5963C25.9277 37.8975 24.939 38 24.6879 38H24.5701C24.3088 37.9949 23.3303 37.8924 23.3303 36.586C23.3303 36.5553 23.3354 36.5399 23.3354 36.5092H16.2451C16.2451 36.5399 16.2553 36.5604 16.2553 36.5911C16.2553 37.8924 15.2614 37.9949 15.0155 37.9949H14.8926C14.6313 37.9898 13.6528 37.8873 13.6528 36.5809C13.6528 36.5502 13.6579 36.5348 13.6579 36.5041H11.7726C10.8299 36.5041 10 35.5102 10 34.3831V11.4982C10 10.3865 10.8453 9.37726 11.7726 9.37726H14.5544V3.25516C14.5544 2.58916 15.1333 2 15.7993 2H23.7043C24.3652 2 24.9492 2.58403 24.9492 3.25516V9.37214H27.7362ZM23.6377 30.551C23.6787 30.4281 23.6992 30.3 23.6992 30.1719V20.73H15.825V30.1719C15.825 30.3307 15.8557 30.4639 15.8864 30.551H23.6377ZM15.8864 15.5301C15.8455 15.6531 15.8198 15.7811 15.8198 15.9092V19.2239H23.6889V15.9092C23.6889 15.7606 23.6582 15.6223 23.6223 15.5301H15.8864ZM23.8785 14.0342C24.6725 14.0342 25.1439 14.9922 25.1439 15.9143V30.1719C25.1439 31.0838 24.6982 32.0521 23.8785 32.0521H15.6405C14.8208 32.0521 14.3751 31.0838 14.3751 30.1719V15.9143C14.3751 14.9871 14.8464 14.0342 15.6405 14.0342H23.8785Z" fill="#86888C"/>
</svg>
