<svg width="40" height="40" viewBox="0 0 40 40" fill="none" xmlns="http://www.w3.org/2000/svg">
<path d="M7.22859 32.7767C5.17643 32.7767 3.60125 32.2164 2.5419 31.1179C1.51581 30.0583 1 28.5215 1 26.552V14.1803C1 12.2108 1.52136 10.6852 2.5419 9.63662C3.59571 8.55479 5.17643 8.0111 7.22859 8.0111L33.5406 8C35.5928 8 37.168 8.54924 38.2273 9.62552C39.2479 10.6741 39.7692 12.1997 39.7692 14.1692V26.5409C39.7692 28.5104 39.2534 30.0472 38.2273 31.1068C37.168 32.2053 35.5873 32.7656 33.5406 32.7656L7.22859 32.7767ZM33.5406 9.09847L7.22859 9.10957C3.77874 9.10957 2.10373 10.7684 2.10373 14.1748V26.5465C2.10373 28.2219 2.51971 29.5035 3.33503 30.3467C4.17808 31.2233 5.49257 31.6671 7.22859 31.6671L33.5406 31.656C35.2822 31.656 36.5912 31.2122 37.4342 30.3356C38.2495 29.4868 38.6655 28.2108 38.6655 26.5354V14.1637C38.66 10.7573 36.985 9.09847 33.5406 9.09847Z" fill="#86888C"/>
<path d="M25.7591 36H14.9935C14.6885 36 14.4444 35.7503 14.4444 35.4508C14.4444 35.1456 14.694 34.9015 14.9935 34.9015H25.7591C26.0641 34.9015 26.3082 35.1512 26.3082 35.4508C26.3082 35.7503 26.0641 36 25.7591 36Z" fill="#86888C"/>
</svg>
