<svg width="24" height="24" viewBox="0 0 24 24" fill="none" xmlns="http://www.w3.org/2000/svg">
<path d="M18.0512 17.4795H4.09989C3.06391 17.4795 2.27691 17.179 1.75892 16.5866C1.27242 16.0257 1.02344 15.2015 1.02344 14.1341V9.08869C1.02344 8.02124 1.26955 7.19703 1.75892 6.63898C2.27691 6.04658 3.06391 5.74609 4.09989 5.74609H18.0512C19.0872 5.74609 19.8742 6.04658 20.3922 6.63898C20.8787 7.19703 21.1277 8.02124 21.1277 9.08869V14.1341C21.1277 15.2015 20.8816 16.0257 20.3922 16.5838C19.8771 17.179 19.0872 17.4795 18.0512 17.4795ZM4.09989 6.31846C2.39139 6.31846 1.5958 7.1999 1.5958 9.09156V14.1369C1.5958 16.0286 2.39139 16.91 4.09989 16.91H18.0512C19.7597 16.91 20.5553 16.0286 20.5553 14.1369V9.08869C20.5553 7.19703 19.7597 6.31846 18.0512 6.31846H4.09989ZM14.1449 19.7461H8.00627C7.84887 19.7461 7.72009 19.6173 7.72009 19.4599C7.72009 19.3025 7.84887 19.1737 8.00627 19.1737H14.1449C14.3023 19.1737 14.431 19.3025 14.431 19.4599C14.431 19.6173 14.3051 19.7461 14.1449 19.7461Z" fill="#86888C"/>
<path d="M14.3996 8.32172C14.8861 8.32172 15.3669 8.49916 15.3669 8.49916C15.4813 8.54208 15.4842 8.61649 15.3754 8.668L14.8117 8.93129C14.6915 8.99711 14.5999 9.10872 14.5656 9.24323L14.4339 9.86711C14.4139 9.99589 14.474 10.1218 14.5856 10.1876L15.1465 10.4881C15.2123 10.5196 15.2839 10.5368 15.3583 10.5339C15.4212 10.5339 15.4842 10.5225 15.5414 10.4967L16.1052 10.2334C16.1281 10.222 16.1539 10.2134 16.1796 10.2134C16.2369 10.2134 16.2597 10.2649 16.2311 10.3479C16.2311 10.3479 15.8934 11.2837 15.3153 11.5556C15.1522 11.6328 14.9605 11.6586 14.7687 11.6586C14.2822 11.6586 13.8014 11.4812 13.8014 11.4812C13.7442 11.4611 13.6841 11.4526 13.624 11.4526C13.5439 11.4526 13.4666 11.4669 13.3922 11.4955L9.48869 13.3185C9.36563 13.3843 9.26833 13.4902 9.21395 13.6189C9.21395 13.6189 8.87626 14.5548 8.29817 14.8266C8.13505 14.9039 7.94331 14.9297 7.75157 14.9297C7.26506 14.9297 6.78427 14.7522 6.78427 14.7522C6.6698 14.7093 6.66694 14.6349 6.77569 14.5805L7.33947 14.3172C7.45966 14.2514 7.55124 14.1398 7.58558 14.0082L7.71723 13.3871C7.73726 13.2584 7.68002 13.1324 7.56841 13.0666L7.0075 12.7661C6.94167 12.7346 6.86727 12.7175 6.79572 12.7203C6.73276 12.7203 6.6698 12.7318 6.61257 12.7575L6.04879 13.0208C6.02589 13.0323 6.00014 13.0409 5.97438 13.0409C5.91714 13.0409 5.89425 12.9893 5.92287 12.9064C5.92287 12.9064 6.26056 11.9705 6.83865 11.6987C7.00177 11.6214 7.19351 11.5956 7.38526 11.5956C7.87176 11.5956 8.35255 11.7731 8.35255 11.7731C8.40979 11.7931 8.46988 11.8017 8.52998 11.8017C8.61011 11.8017 8.68738 11.7874 8.76179 11.7588L12.6653 9.93865C12.7884 9.87283 12.8857 9.76694 12.94 9.6353C12.94 9.6353 13.2777 8.69948 13.8558 8.42761C14.0161 8.3532 14.2078 8.32459 14.3996 8.32172ZM14.3996 7.75222C14.0991 7.75222 13.8358 7.8066 13.6126 7.90962C13.2663 8.06988 12.9543 8.38468 12.6853 8.84258C12.5766 9.02573 12.485 9.21747 12.4077 9.4178L12.3992 9.42639L8.53857 11.2265H8.52712C8.40692 11.1835 7.91183 11.0233 7.38526 11.0233C7.08763 11.0233 6.82148 11.0777 6.59826 11.1807C6.24911 11.3438 5.93718 11.6586 5.67103 12.1165C5.55942 12.3082 5.46212 12.5057 5.38485 12.7146C5.30472 12.9407 5.32761 13.1725 5.45353 13.3499C5.57373 13.5188 5.76833 13.6189 5.97438 13.6161C6.08313 13.6161 6.19188 13.5903 6.29204 13.5417L6.79572 13.307L7.11624 13.4787L7.04184 13.8364L6.53816 14.0711C6.27487 14.1942 6.11747 14.4374 6.12606 14.7007C6.13464 14.964 6.31494 15.1958 6.58681 15.296C6.64691 15.3189 7.18207 15.5077 7.75157 15.5077C8.0492 15.5077 8.31535 15.4534 8.53857 15.3503C8.88771 15.1872 9.19965 14.8724 9.4658 14.4145C9.57454 14.2314 9.66612 14.0396 9.74339 13.8393L9.75198 13.8307L13.6154 12.0306H13.6269C13.7471 12.0736 14.2422 12.2338 14.7687 12.2338C15.0692 12.2338 15.3325 12.1795 15.5557 12.0764C15.9049 11.9133 16.2168 11.5985 16.483 11.1406C16.5946 10.9489 16.6919 10.7514 16.7691 10.5425C16.8493 10.3164 16.8264 10.0846 16.7005 9.90717C16.5803 9.73832 16.3857 9.63816 16.1796 9.64102C16.0709 9.64102 15.9621 9.66678 15.862 9.71543L15.3554 9.9501L15.0349 9.77839L15.1093 9.42066L15.613 9.18599C15.8763 9.06293 16.0337 8.81968 16.0222 8.55353C16.0108 8.28738 15.8333 8.05844 15.5615 7.95827C15.5071 7.9411 14.9719 7.74936 14.3996 7.75222Z" fill="#86888C"/>
</svg>
