<svg width="40" height="40" viewBox="0 0 40 40" fill="none" xmlns="http://www.w3.org/2000/svg">
<path d="M32.4302 29.9526H7.5171C5.66714 29.9526 4.26179 29.416 3.33681 28.3581C2.46804 27.3565 2.02344 25.8847 2.02344 23.9785V14.9689C2.02344 13.0628 2.46293 11.591 3.33681 10.5944C4.26179 9.53659 5.66714 9 7.5171 9H32.4302C34.2802 9 35.6855 9.53659 36.6105 10.5944C37.4793 11.591 37.9239 13.0628 37.9239 14.9689V23.9785C37.9239 25.8847 37.4844 27.3565 36.6105 28.353C35.6907 29.416 34.2802 29.9526 32.4302 29.9526ZM7.5171 10.0221C4.4662 10.0221 3.04551 11.5961 3.04551 14.974V23.9836C3.04551 27.3616 4.4662 28.9356 7.5171 28.9356H32.4302C35.4811 28.9356 36.9018 27.3616 36.9018 23.9836V14.9689C36.9018 11.591 35.4811 10.0221 32.4302 10.0221H7.5171ZM25.4546 34H14.4928C14.2117 34 13.9817 33.77 13.9817 33.489C13.9817 33.2079 14.2117 32.9779 14.4928 32.9779H25.4546C25.7356 32.9779 25.9656 33.2079 25.9656 33.489C25.9656 33.77 25.7407 34 25.4546 34Z" fill="#86888C"/>
<path d="M25.9094 13.5993C26.7781 13.5993 27.6367 13.9162 27.6367 13.9162C27.8411 13.9928 27.8462 14.1257 27.652 14.2177L26.6453 14.6879C26.4306 14.8054 26.2671 15.0047 26.2058 15.2449L25.9707 16.3589C25.9349 16.5889 26.0423 16.8138 26.2416 16.9313L27.2432 17.4679C27.3607 17.5241 27.4885 17.5548 27.6214 17.5497C27.7338 17.5497 27.8462 17.5292 27.9484 17.4832L28.9552 17.0131C28.9961 16.9926 29.042 16.9773 29.088 16.9773C29.1903 16.9773 29.2311 17.0693 29.18 17.2175C29.18 17.2175 28.577 18.8886 27.5447 19.3741C27.2534 19.5121 26.911 19.5581 26.5686 19.5581C25.6999 19.5581 24.8413 19.2412 24.8413 19.2412C24.7391 19.2054 24.6318 19.1901 24.5245 19.1901C24.3814 19.1901 24.2434 19.2157 24.1105 19.2668L17.14 22.5221C16.9202 22.6396 16.7465 22.8287 16.6494 23.0587C16.6494 23.0587 16.0463 24.7298 15.014 25.2152C14.7227 25.3532 14.3804 25.3992 14.038 25.3992C13.1692 25.3992 12.3106 25.0824 12.3106 25.0824C12.1062 25.0057 12.1011 24.8729 12.2953 24.7758L13.3021 24.3056C13.5167 24.1881 13.6802 23.9888 13.7416 23.7537L13.9766 22.6447C14.0124 22.4148 13.9102 22.1899 13.7109 22.0724L12.7093 21.5358C12.5917 21.4796 12.4588 21.4489 12.3311 21.454C12.2187 21.454 12.1062 21.4744 12.004 21.5204L10.9973 21.9906C10.9564 22.011 10.9104 22.0264 10.8644 22.0264C10.7622 22.0264 10.7213 21.9344 10.7724 21.7862C10.7724 21.7862 11.3754 20.1151 12.4077 19.6296C12.699 19.4916 13.0414 19.4456 13.3838 19.4456C14.2526 19.4456 15.1111 19.7625 15.1111 19.7625C15.2133 19.7982 15.3207 19.8136 15.428 19.8136C15.5711 19.8136 15.7091 19.788 15.8419 19.7369L22.8125 16.4867C23.0322 16.3692 23.206 16.1801 23.3031 15.945C23.3031 15.945 23.9061 14.2739 24.9384 13.7884C25.2246 13.6556 25.567 13.6045 25.9094 13.5993ZM25.9094 12.5824C25.3728 12.5824 24.9026 12.6795 24.504 12.8634C23.8857 13.1496 23.3286 13.7118 22.8483 14.5294C22.6541 14.8565 22.4905 15.1989 22.3526 15.5566L22.3372 15.5719L15.4433 18.7864H15.4229C15.2082 18.7097 14.3241 18.4235 13.3838 18.4235C12.8523 18.4235 12.3771 18.5206 11.9785 18.7046C11.355 18.9959 10.798 19.5581 10.3227 20.3757C10.1234 20.7181 9.94965 21.0707 9.81167 21.4438C9.66858 21.8475 9.70946 22.2614 9.93432 22.5783C10.149 22.8798 10.4965 23.0587 10.8644 23.0536C11.0586 23.0536 11.2528 23.0076 11.4317 22.9207L12.3311 22.5016L12.9035 22.8083L12.7706 23.4471L11.8712 23.8661C11.401 24.0859 11.1199 24.5202 11.1353 24.9904C11.1506 25.4605 11.4725 25.8745 11.958 26.0534C12.0653 26.0942 13.021 26.4315 14.038 26.4315C14.5694 26.4315 15.0447 26.3344 15.4433 26.1504C16.0668 25.8592 16.6238 25.297 17.0991 24.4794C17.2933 24.1523 17.4568 23.8099 17.5948 23.4522L17.6101 23.4368L24.5091 20.2224H24.5296C24.7442 20.2991 25.6283 20.5852 26.5686 20.5852C27.1052 20.5852 27.5754 20.4881 27.974 20.3042C28.5974 20.0129 29.1545 19.4507 29.6297 18.6331C29.829 18.2907 30.0028 17.9381 30.1408 17.565C30.2839 17.1613 30.243 16.7473 30.0181 16.4305C29.8035 16.129 29.456 15.9501 29.088 15.9552C28.8938 15.9552 28.6997 16.0012 28.5208 16.0881L27.6163 16.5071L27.0439 16.2005L27.1768 15.5617L28.0762 15.1427C28.5463 14.9229 28.8274 14.4885 28.807 14.0133C28.7865 13.538 28.4697 13.1292 27.9842 12.9503C27.8871 12.9197 26.9315 12.5773 25.9094 12.5824Z" fill="#86888C"/>
</svg>
