<svg width="40" height="40" viewBox="0 0 40 40" fill="none" xmlns="http://www.w3.org/2000/svg">
<path fill-rule="evenodd" clip-rule="evenodd" d="M34.4566 11.5843L31.4291 13.408C25.9682 7.33242 20.3639 6.00562 16.6857 5.94927C20.1846 4.55075 23.5195 4.21264 26.6341 4.97082C29.5746 5.69313 32.2846 7.40414 34.6974 10.0629C34.8921 10.2729 34.9843 10.57 34.9535 10.8518C34.9074 11.1591 34.723 11.4306 34.4566 11.5843ZM13.904 7.68589C16.3118 7.24533 23.3095 6.80989 30.0971 14.2174L20.9684 19.7142L13.904 7.68589ZM11.5066 25.4158C7.95138 16.953 11.1275 10.8108 12.6541 8.5875L19.6569 20.5031L11.5066 25.4158ZM6.47089 28.4536C6.19939 28.6227 5.87153 28.6585 5.56929 28.5561C5.28241 28.469 5.04676 28.259 4.92382 27.9823C3.56116 24.6935 3.20768 21.5686 3.87365 18.6845C4.64719 15.2574 6.83461 12.1991 10.3488 9.56083C8.68394 12.8599 6.9678 18.7818 10.1747 26.2201L6.47089 28.4536ZM35.85 9.05879C33.2323 6.17467 30.256 4.30998 27.0081 3.51082C22.6384 2.45041 17.9152 3.30591 12.9461 6.06197L12.1725 4.74029C11.9574 4.37657 11.4861 4.25363 11.1173 4.46366C10.7587 4.65833 10.6255 5.10401 10.8201 5.4626C10.8253 5.47285 10.8304 5.47797 10.8355 5.48822L11.6295 6.84575C6.49139 10.0116 3.37674 13.8845 2.36243 18.3566C1.62987 21.5379 2.00895 24.9701 3.48944 28.5407C3.76607 29.2067 4.3347 29.7292 5.09799 29.9853C5.39511 30.0724 5.65125 30.1134 5.90227 30.1134C6.37356 30.1134 6.86023 29.9853 7.28029 29.7343L20.4305 21.8094L30.343 38.6889C30.5582 39.0527 31.0295 39.1807 31.3983 38.9656C31.7569 38.7709 31.8901 38.3252 31.6955 37.9666C31.6903 37.9564 31.6852 37.9513 31.6801 37.941L21.7368 21.0205L35.2712 12.865C35.932 12.4654 36.3674 11.8097 36.4853 11.0464C36.5723 10.319 36.3418 9.59669 35.85 9.05879Z" fill="#86888C"/>
</svg>
