<svg width="40" height="40" viewBox="0 0 40 40" fill="none" xmlns="http://www.w3.org/2000/svg">
<path fill-rule="evenodd" clip-rule="evenodd" d="M36.2585 19.9243C36.0741 20.1394 35.8128 20.2573 35.5208 20.2573L31.8174 20.247C30.5573 12.712 26.7974 8.8856 23.8828 7.02106C27.5299 7.5794 30.4651 8.94707 32.6165 11.1394C34.5937 13.1577 35.8794 15.8674 36.4531 19.1918C36.4941 19.4479 36.4173 19.7194 36.2585 19.9243ZM20.9272 7.1901C23.2476 8.12237 28.6517 11.2419 30.2448 20.2419L20.9272 20.2163V7.1901ZM9.76045 20.1907C11.2869 11.4775 17.1367 8.13261 19.3854 7.15936V20.2112L9.76045 20.1907ZM3.99778 20.0268C3.92607 19.9806 3.84411 19.9089 3.7724 19.8321C3.59312 19.6118 3.51628 19.3404 3.55726 19.0842C4.14633 15.7649 5.46278 13.0655 7.46051 11.0677C9.69386 8.81389 12.7673 7.44622 16.6039 6.95447C13.5971 8.87023 9.407 12.8196 8.193 20.1855L4.51002 20.1753C4.33586 20.1702 4.14633 20.119 3.99778 20.0268ZM37.9693 18.9357C37.3495 15.309 35.9204 12.333 33.7229 10.0842C30.7263 7.02618 26.4286 5.39215 20.9272 5.22311V3.76323C20.9272 3.3432 20.584 3 20.1537 3C19.7286 3 19.3803 3.3432 19.3803 3.76323V5.23335C13.7918 5.33068 9.40188 6.92886 6.3592 10.0074C4.13609 12.2254 2.68134 15.1964 2.03592 18.823C1.91298 19.5094 2.10763 20.2265 2.58913 20.8156C2.78378 21.0307 2.97331 21.1947 3.17821 21.3227C3.56238 21.5583 4.02852 21.6915 4.49465 21.6966L19.3803 21.7325V35.2248C19.3956 37.3096 21.1219 39 23.2425 39C25.3683 39 27.0997 37.2943 27.0997 35.1992C27.0997 34.7792 26.7565 34.436 26.3262 34.436C25.901 34.436 25.5527 34.7792 25.5527 35.1992C25.5527 36.4542 24.5129 37.4787 23.2374 37.4787C21.9619 37.4787 20.9221 36.4542 20.9221 35.1992V21.7427L35.5106 21.7837C36.2585 21.7837 36.9602 21.461 37.4468 20.8873C37.9027 20.3238 38.0923 19.6118 37.9693 18.9357Z" fill="#86888C"/>
</svg>
