<svg width="24" height="24" viewBox="0 0 24 24" fill="none" xmlns="http://www.w3.org/2000/svg">
<path fill-rule="evenodd" clip-rule="evenodd" d="M20.0315 7.80032L18.3495 8.81349C15.3157 5.43815 12.2022 4.70104 10.1587 4.66973C12.1025 3.89278 13.9553 3.70494 15.6856 4.12615C17.3192 4.52743 18.8248 5.47799 20.1652 6.95506C20.2734 7.07175 20.3246 7.23681 20.3075 7.39334C20.2819 7.5641 20.1795 7.71494 20.0315 7.80032ZM8.61336 5.63452C9.95097 5.38977 13.8386 5.14786 17.6095 9.26316L12.538 12.3169L8.61336 5.63452ZM7.28144 15.4845C5.30632 10.7829 7.07083 7.37057 7.91894 6.13542L11.8094 12.7552L7.28144 15.4845ZM4.48383 17.1722C4.33299 17.2661 4.15085 17.286 3.98294 17.2291C3.82356 17.1807 3.69265 17.064 3.62434 16.9103C2.86731 15.0832 2.67094 13.3471 3.04091 11.7449C3.47066 9.84089 4.6859 8.14184 6.63824 6.67615C5.7133 8.50897 4.75989 11.7989 6.54148 15.9313L4.48383 17.1722ZM20.8056 6.39725C19.3513 4.79496 17.6978 3.75902 15.8934 3.31504C13.4658 2.72592 10.8418 3.2012 8.08116 4.73234L7.65142 3.99808C7.53188 3.79601 7.27005 3.72771 7.06514 3.8444C6.86592 3.95254 6.79193 4.20014 6.90007 4.39936C6.90292 4.40505 6.90577 4.4079 6.90861 4.41359L7.34974 5.16778C4.49521 6.9266 2.76485 9.07817 2.20135 11.5627C1.79437 13.3301 2.00497 15.2369 2.82747 17.2205C2.98115 17.5905 3.29705 17.8808 3.72111 18.0231C3.88617 18.0715 4.02847 18.0943 4.16793 18.0943C4.42976 18.0943 4.70013 18.0231 4.9335 17.8837L12.2391 13.4809L17.7461 22.8584C17.8657 23.0605 18.1275 23.1317 18.3324 23.0121C18.5316 22.904 18.6056 22.6564 18.4975 22.4572C18.4946 22.4515 18.4918 22.4486 18.4889 22.4429L12.9649 13.0426L20.484 8.51182C20.8511 8.28983 21.093 7.92554 21.1585 7.50149C21.2069 7.09736 21.0788 6.69608 20.8056 6.39725Z" fill="#86888C"/>
</svg>
