<svg width="24" height="24" viewBox="0 0 24 24" fill="none" xmlns="http://www.w3.org/2000/svg">
<path fill-rule="evenodd" clip-rule="evenodd" d="M18.1718 11.1719C18.1747 11.132 18.223 10.3552 17.7222 9.80876C17.3693 9.42459 16.8115 9.23392 16.066 9.23392C13.4194 9.23392 7.26402 9.24246 6.9453 9.24246H6.87984C6.877 9.24246 6.84285 9.23961 6.78024 9.23961C6.52412 9.23961 5.82691 9.2823 5.34882 9.72908C5.00733 10.0478 4.83374 10.5316 4.83374 11.1633V19.2368C4.8309 19.2738 4.79106 20.0563 5.2976 20.5999C5.64763 20.9755 6.19686 21.1662 6.92253 21.1662L16.066 21.1605C16.103 21.1577 17.0534 21.2174 17.6567 20.6483C17.9982 20.3238 18.1718 19.8429 18.1718 19.2168C18.169 16.5646 18.1718 11.1719 18.1718 11.1719ZM18.9999 11.206C18.9999 11.206 18.9971 16.5731 18.9999 19.2168C18.9999 20.0848 18.7381 20.7763 18.2174 21.2629C17.3494 22.0797 16.0859 22 16.0375 21.9943L6.92253 22C5.95213 22 5.198 21.7154 4.68292 21.1605C3.93164 20.3466 3.99993 19.251 4.00278 19.2055V11.1662C4.00278 10.2869 4.26744 9.59533 4.7939 9.11155C5.36021 8.58793 6.08018 8.45134 6.52981 8.41719V6.99146C6.53266 2.28173 10.4712 2.00854 11.2595 2C11.4074 2.00285 11.5668 2 11.7063 2.00285C12.5998 2.02561 15.5708 2.34149 16.3135 5.51451C16.3676 5.73648 16.2282 5.9613 16.0062 6.01537C15.7842 6.06944 15.5651 5.93284 15.511 5.71372C15.511 5.71087 15.511 5.70802 15.5082 5.70518C14.902 3.11554 12.4291 2.85373 11.6863 2.83665C11.5583 2.83381 11.4018 2.83096 11.2709 2.83381C10.3517 2.84234 7.36078 3.16676 7.36078 6.98862V8.40581C8.85765 8.40296 13.778 8.39727 16.0688 8.39727C17.0591 8.39727 17.8218 8.68469 18.3397 9.24815C19.0853 10.0706 19.0028 11.1577 18.9999 11.206ZM11.4701 17.0028C12.301 16.9886 13.2942 16.6386 13.2942 15.062C13.2942 13.4798 12.2925 13.1269 11.453 13.1042L11.2652 13.1013H11.2168C10.3972 13.1098 9.41541 13.4513 9.41541 15.0421C9.41541 16.6414 10.4057 16.9915 11.2395 17.0028H11.4701ZM11.4701 12.2703C12.0107 12.2846 14.1195 12.5009 14.1195 15.0592C14.1195 17.6261 12.0079 17.8253 11.4814 17.8338C11.4302 17.8367 11.3761 17.8367 11.3192 17.8367H11.2282C10.6732 17.8281 8.5873 17.6261 8.5873 15.0421C8.5873 12.4639 10.6533 12.2703 11.2082 12.2675H11.2623C11.3363 12.2675 11.4074 12.2675 11.4701 12.2703Z" fill="#86888C"/>
</svg>
