<svg width="20" height="20" viewBox="0 0 20 20" fill="none" xmlns="http://www.w3.org/2000/svg">
<path fill-rule="evenodd" clip-rule="evenodd" d="M15.3375 9.33751C15.3397 9.30563 15.3784 8.68412 14.9778 8.24701C14.6955 7.93967 14.2492 7.78714 13.6528 7.78714C11.5355 7.78714 6.61122 7.79397 6.35624 7.79397H6.30387C6.3016 7.79397 6.27428 7.79169 6.22419 7.79169C6.0193 7.79169 5.46153 7.82584 5.07906 8.18327C4.80587 8.43825 4.66699 8.82527 4.66699 9.33068V15.7894C4.66472 15.819 4.63284 16.4451 5.03808 16.8799C5.3181 17.1804 5.75749 17.333 6.33802 17.333L13.6528 17.3284C13.6824 17.3261 14.4427 17.3739 14.9254 16.9186C15.1986 16.6591 15.3375 16.2743 15.3375 15.7735C15.3352 13.6517 15.3375 9.33751 15.3375 9.33751ZM15.9999 9.36483C15.9999 9.36483 15.9977 13.6585 15.9999 15.7735C15.9999 16.4678 15.7905 17.0211 15.3739 17.4104C14.6795 18.0637 13.6687 18 13.63 17.9954L6.33802 18C5.5617 18 4.9584 17.7723 4.54633 17.3284C3.94531 16.6773 3.99995 15.8008 4.00222 15.7644V9.33295C4.00222 8.62948 4.21395 8.07627 4.63512 7.68924C5.08817 7.27035 5.66415 7.16107 6.02385 7.13375V5.99317C6.02613 2.22538 9.17695 2.00683 9.80757 2C9.92596 2.00228 10.0534 2 10.165 2.00228C10.8799 2.02049 13.2566 2.27319 13.8508 4.81161C13.8941 4.98919 13.7825 5.16904 13.605 5.21229C13.4274 5.25555 13.2521 5.14627 13.2088 4.97097C13.2088 4.9687 13.2088 4.96642 13.2065 4.96414C12.7216 2.89243 10.7433 2.68298 10.1491 2.66932C10.0466 2.66705 9.9214 2.66477 9.81668 2.66705C9.08134 2.67388 6.68862 2.93341 6.68862 5.99089V7.12464C7.88612 7.12237 11.8224 7.11782 13.655 7.11782C14.4473 7.11782 15.0574 7.34775 15.4718 7.79852C16.0682 8.45646 16.0022 9.32612 15.9999 9.36483ZM9.97604 14.0023C10.6408 13.9909 11.4353 13.7109 11.4353 12.4496C11.4353 11.1838 10.634 10.9015 9.96238 10.8833L9.81213 10.881H9.77342C9.11776 10.8879 8.33233 11.1611 8.33233 12.4337C8.33233 13.7131 9.12459 13.9932 9.79164 14.0023H9.97604ZM9.97604 10.2163C10.4086 10.2277 12.0956 10.4007 12.0956 12.4474C12.0956 14.5009 10.4063 14.6602 9.98515 14.667C9.94417 14.6693 9.90091 14.6693 9.85538 14.6693H9.78253C9.33859 14.6625 7.66984 14.5009 7.66984 12.4337C7.66984 10.3711 9.32266 10.2163 9.76659 10.214H9.80985C9.86904 10.214 9.92596 10.214 9.97604 10.2163Z" fill="#86888C"/>
</svg>
