<svg width="28" height="28" viewBox="0 0 28 28" fill="none" xmlns="http://www.w3.org/2000/svg">
<path fill-rule="evenodd" clip-rule="evenodd" d="M18.9505 9.66866C19.2579 9.66866 19.497 9.74723 19.6644 9.90436C19.8386 10.0683 19.9274 10.3108 19.9274 10.6285C19.9274 10.9428 19.8386 11.1853 19.6644 11.3493C19.497 11.5064 19.2579 11.585 18.9505 11.585C18.643 11.585 18.4039 11.5064 18.2366 11.3493C18.0658 11.1853 17.977 10.9462 17.977 10.6285C17.977 10.3108 18.0658 10.0683 18.2366 9.90436C18.4039 9.74723 18.643 9.66866 18.9505 9.66866ZM16.9795 11.5816C17.2869 11.5816 17.5261 11.6601 17.6934 11.8207C17.8676 11.9846 17.9565 12.2272 17.9565 12.5448C17.9565 12.8591 17.8676 13.1016 17.6934 13.2656C17.5261 13.4227 17.2869 13.5013 16.9795 13.5013C16.6721 13.5013 16.433 13.4227 16.2656 13.2656C16.0948 13.1016 16.0026 12.8625 16.0026 12.5448C16.0026 12.2272 16.0914 11.9846 16.2656 11.8207C16.4296 11.6635 16.6687 11.5816 16.9795 11.5816ZM18.9505 13.4979C19.2579 13.4979 19.497 13.5764 19.6644 13.7336C19.8386 13.8975 19.9274 14.1401 19.9274 14.4577C19.9274 14.772 19.8386 15.0145 19.6644 15.1785C19.497 15.3356 19.2579 15.4142 18.9505 15.4142C18.643 15.4142 18.4039 15.3356 18.2366 15.1785C18.0658 15.0145 17.977 14.7754 17.977 14.4577C17.977 14.1435 18.0658 13.8975 18.2366 13.7336C18.4039 13.5764 18.643 13.4979 18.9505 13.4979ZM20.9249 11.5816C21.2323 11.5816 21.4714 11.6601 21.6388 11.8207C21.813 11.9846 21.9018 12.2272 21.9018 12.5448C21.9018 12.8591 21.813 13.1016 21.6388 13.2656C21.4714 13.4227 21.2323 13.5013 20.9249 13.5013C20.614 13.5013 20.3783 13.4227 20.2109 13.2656C20.0367 13.1016 19.9513 12.8625 19.9513 12.5448C19.9513 12.2272 20.0401 11.9846 20.2109 11.8207C20.3783 11.6635 20.6174 11.5816 20.9249 11.5816ZM10.766 12.9582C10.8719 12.8557 10.889 12.62 10.889 12.4868C10.889 12.357 10.8719 12.1178 10.766 12.0154C10.6875 11.9402 10.5167 11.8992 10.2878 11.8992C10.2229 11.8992 10.2092 11.9061 10.1853 11.9061H10.1477C10.1341 11.9061 10.1204 11.9061 10.1238 11.9026C10.0794 11.9061 10.0384 11.9095 9.99745 11.9095C9.88814 11.9095 9.78908 11.889 9.7071 11.8377C9.57729 11.7558 9.48848 11.6123 9.44066 11.4142C9.42016 11.3356 9.42016 11.2673 9.42016 11.199C9.42016 11.1853 9.41675 11.1716 9.41675 11.1614C9.42016 11.1477 9.42016 11.1375 9.42016 11.1272C9.42358 11.0931 9.43041 11.0555 9.43041 11.035C9.43041 10.9018 9.41333 10.6627 9.30744 10.5602C9.22887 10.4851 9.05808 10.4441 8.82921 10.4441C8.60377 10.4441 8.43639 10.4851 8.35782 10.5602C8.24851 10.6627 8.23485 10.9018 8.23485 11.035C8.23485 11.1136 8.2451 11.1751 8.25534 11.24C8.25534 11.2434 8.25535 11.2468 8.25876 11.2502C8.26218 11.2741 8.25535 11.2912 8.25876 11.3151C8.27242 11.4825 8.2451 11.626 8.16653 11.7353C8.07089 11.8651 7.91376 11.9436 7.70197 11.9744C7.69172 11.9778 7.68148 11.9778 7.66781 11.9778C7.64049 11.9778 7.61657 11.9744 7.58583 11.9744H7.58242C7.54826 11.9744 7.5141 11.9778 7.48336 11.9778C7.45944 11.9778 7.43895 11.9744 7.41504 11.971H7.41162C7.37405 11.9675 7.33989 11.9573 7.29548 11.9573C7.07003 11.9573 6.90266 11.9983 6.82409 12.0769C6.7182 12.1793 6.70112 12.415 6.70112 12.5482C6.70112 12.7737 6.74552 12.9445 6.82067 13.0196C6.89924 13.0914 7.07003 13.1358 7.29548 13.1358C7.40821 13.1358 7.40821 13.1358 7.49019 13.1221H7.4936C7.51068 13.1221 7.56534 13.1153 7.58242 13.1153H7.58583C7.61999 13.1119 7.65757 13.1119 7.69172 13.1119C7.80103 13.1119 7.90009 13.1324 7.97866 13.1836C8.10846 13.2656 8.19727 13.4056 8.2451 13.6038C8.26218 13.6687 8.25876 13.7199 8.26218 13.7746C8.26218 13.795 8.26559 13.8121 8.26559 13.8292C8.25876 13.8668 8.25534 13.9009 8.25193 13.9351C8.2451 13.9761 8.23485 14.0239 8.23485 14.0581C8.23485 14.2835 8.27926 14.4577 8.35441 14.5295C8.43297 14.6012 8.60377 14.6422 8.8258 14.6422C9.05125 14.6422 9.22546 14.6012 9.30402 14.526C9.40991 14.4236 9.42699 14.1879 9.42699 14.0547C9.42699 14.0205 9.40991 13.9693 9.4065 13.9249C9.40308 13.9009 9.39967 13.877 9.39625 13.8497C9.39283 13.819 9.39283 13.7882 9.39283 13.7541C9.39283 13.7131 9.38259 13.6755 9.386 13.6311C9.4065 13.4295 9.47823 13.2724 9.59779 13.1768C9.69685 13.0948 9.83348 13.0572 9.99403 13.0572H10.0487C10.0589 13.0572 10.0931 13.0606 10.1033 13.0606H10.1068C10.1477 13.0709 10.1717 13.0709 10.2024 13.0709H10.2912C10.5132 13.0743 10.6875 13.0299 10.766 12.9582ZM10.4278 10.9155C10.8651 10.936 11.2101 11.0692 11.4594 11.3049C11.7464 11.5781 11.8898 11.9744 11.8898 12.4868C11.8898 13.0026 11.7464 13.3988 11.456 13.6721C11.2135 13.9009 10.8787 14.0307 10.4313 14.0547C10.4313 14.5705 10.2844 14.9667 9.99745 15.24C9.72417 15.4962 9.32793 15.6294 8.8258 15.6294C8.32366 15.6294 7.93425 15.4996 7.65757 15.24C7.38771 14.9804 7.24083 14.6012 7.23058 14.1196C6.75919 14.1059 6.38686 13.9761 6.12383 13.7267C5.84031 13.4569 5.69343 13.0606 5.69343 12.5448C5.69343 12.0325 5.84031 11.6328 6.12383 11.3629C6.38686 11.1136 6.75919 10.9804 7.23058 10.9667C7.24083 10.4851 7.38429 10.1093 7.65757 9.8497C7.93425 9.58668 8.32366 9.45346 8.8258 9.45346C9.32793 9.45346 9.72417 9.58668 9.99745 9.8497C10.2639 10.0991 10.4108 10.4577 10.4278 10.9155ZM24.7062 19.6806C24.8326 19.2639 25.0034 18.3553 25.0103 17.959C25.0478 15.0931 23.5858 11.7216 22.7968 9.91119C22.6806 9.64133 22.5747 9.40564 22.4927 9.2041L22.4552 9.10845C22.4039 8.98207 22.3561 8.87276 22.3185 8.78395C22.298 8.73612 22.2844 8.7088 22.2741 8.69172L22.2639 8.67122L22.2366 8.61657L22.1853 8.52434C22.0419 8.27156 21.8881 8.06319 21.7173 7.89923C21.082 7.2912 20.1392 6.98719 18.9197 6.98719C18.4449 6.98719 17.9872 7.04526 17.5192 7.16823C17.3723 7.20922 16.959 7.3766 16.7438 7.47225C16.6277 7.53715 16.3066 7.71819 16.1904 7.79676C15.5414 8.23057 14.7865 8.46285 14.0043 8.46285C13.222 8.46285 12.4671 8.23057 11.8215 7.79676C11.702 7.71819 11.3809 7.53373 11.2647 7.46883C11.0666 7.38002 10.6396 7.20581 10.4893 7.16482C10.0248 7.04184 9.56704 6.98377 9.09224 6.98377C7.86935 6.98377 6.92998 7.2912 6.29463 7.89582C6.12383 8.05636 5.97012 8.26815 5.80616 8.5585L5.76858 8.63023L5.76517 8.63365L5.73784 8.69172C5.72759 8.71221 5.71734 8.73612 5.69343 8.78395C5.64903 8.88301 5.59779 9.00598 5.53972 9.14261L5.51581 9.20068C5.43041 9.40564 5.32793 9.64133 5.21179 9.91119C4.42614 11.7216 2.96072 15.0931 2.9983 17.9624C3.00172 18.3587 3.17251 19.2673 3.2989 19.684C3.47994 20.2681 3.88301 20.6985 4.41248 20.8728C4.61401 20.9377 4.94877 21.0026 5.20838 21.0196C5.48506 21.0196 6.07259 20.8864 6.34587 20.7635C6.58498 20.6576 6.81043 20.5107 7.04271 20.3126C7.17251 20.1998 7.23058 20.1315 7.51068 19.7865L7.62682 19.6465C7.70197 19.5508 7.77712 19.4552 7.84886 19.3595C8.03673 19.1136 8.25193 18.8335 8.52178 18.5773C9.3416 17.7985 10.3834 17.228 11.6234 16.8796C12.392 16.6644 13.1913 16.5551 13.9974 16.5551C14.8036 16.5551 15.6029 16.6644 16.3715 16.8796C17.6149 17.228 18.6567 17.7985 19.4731 18.5773C19.743 18.8335 19.9547 19.1136 20.146 19.3629C20.2178 19.4586 20.2929 19.5542 20.3681 19.6465L20.4808 19.7865C20.7609 20.1315 20.819 20.1998 20.9522 20.3126C21.246 20.5619 21.4987 20.6917 21.6661 20.7635C21.9496 20.8898 22.6055 21.0196 22.8685 21.0196C23.0017 21.0196 23.2989 20.9684 23.5858 20.8728C24.1187 20.6951 24.5252 20.2613 24.7062 19.6806ZM23.4185 8.82494C24.1016 10.4646 26.0589 14.4714 26.0111 17.9727C26.0043 18.4782 25.813 19.4825 25.6627 19.9641C25.3655 20.9308 24.6721 21.5525 23.9103 21.8019C23.5995 21.9044 23.1793 22 22.8753 22C22.4688 22 21.6695 21.8395 21.2596 21.655C21.0273 21.5491 20.6857 21.3749 20.3032 21.0504C20.0743 20.8523 19.9718 20.7225 19.5961 20.2545C19.3296 19.9266 19.0939 19.5679 18.7865 19.2741C18.0794 18.5978 17.1776 18.1161 16.1085 17.819C15.4253 17.6311 14.7148 17.532 14.0077 17.532C13.2972 17.532 12.5901 17.6277 11.9069 17.819C10.8378 18.1196 9.93938 18.5978 9.22887 19.2741C8.92144 19.5679 8.68575 19.9231 8.41589 20.2545C8.03673 20.719 7.93767 20.8523 7.7088 21.0504C7.32622 21.3749 7.00172 21.5491 6.76944 21.655C6.39027 21.8258 5.65927 22 5.22887 22H5.13323C4.83263 21.9727 4.40906 21.9044 4.09821 21.8019C3.33989 21.5525 2.64646 20.9308 2.34587 19.9641C2.19898 19.4825 2.00769 18.4748 2.00086 17.9727C1.95304 14.4748 3.91034 10.468 4.59352 8.82494C4.66525 8.65073 4.72674 8.50043 4.77797 8.38429C4.8258 8.27498 4.84629 8.24082 4.85996 8.21349L4.93169 8.07686C5.11615 7.74893 5.32793 7.44492 5.6012 7.18873C6.42785 6.39966 7.60633 6 9.09565 6C9.7071 6 10.2502 6.0854 10.7558 6.21862C11.053 6.29718 11.7122 6.58753 11.7259 6.59436C11.7259 6.59436 12.2314 6.87788 12.3886 6.98719C12.877 7.31512 13.4407 7.47908 14.0043 7.47908C14.5679 7.47908 15.1349 7.31512 15.62 6.98719C15.7805 6.87788 16.2861 6.59436 16.2861 6.59436C16.2963 6.58753 16.9556 6.29718 17.2528 6.21862C17.7583 6.0854 18.3015 6 18.9129 6C20.4022 6 21.5773 6.39966 22.4074 7.18873C22.6738 7.44492 22.889 7.74893 23.0734 8.07686L23.1418 8.21349C23.1554 8.24082 23.1759 8.27498 23.2237 8.38429C23.2852 8.50043 23.3467 8.65414 23.4185 8.82494Z" fill="#86888C"/>
</svg>
