<svg width="28" height="28" viewBox="0 0 28 28" fill="none" xmlns="http://www.w3.org/2000/svg">
<path fill-rule="evenodd" clip-rule="evenodd" d="M21.9253 24.8786C23.3746 24.8302 25.0026 24.126 25.0772 21.2425H21.9142L21.9253 24.8786ZM1.09206 21.2425C1.09206 21.5927 1.14794 22.945 2.00482 23.869C2.55992 24.4651 3.39445 24.7855 4.4674 24.8451L4.45623 21.2462H1.09206V21.2425ZM2.48169 3.66905C1.5801 4.25023 1.12186 5.30829 1.10323 6.79851H4.41152L4.39662 3.11767C3.98308 3.12884 3.18582 3.21453 2.48169 3.66905ZM25.0921 6.80224C25.0995 6.63831 25.1368 5.14064 24.2091 4.13102C23.6763 3.55355 22.8791 3.23316 21.8583 3.14747L21.8695 6.80224H25.0921ZM21.8993 16.8016L21.9067 20.1323H25.0883V16.7979C25.0883 16.8016 21.8993 16.8016 21.8993 16.8016ZM25.0846 7.91245H21.8695L21.8806 11.2468H25.0883L25.0846 7.91245ZM21.8844 12.357L21.8955 15.6914H25.0883V12.357H21.8844ZM5.48821 3.11767L5.55527 24.8674H20.83L20.763 3.11021C16.1619 3.11021 7.90609 3.11767 5.48821 3.11767ZM1.09578 20.1323H4.44878L4.4376 16.7979H1.09578V20.1323ZM4.4227 11.2468L4.41152 7.91245H1.09206V11.2468H4.4227ZM1.09578 12.357V15.6914H4.4376L4.42642 12.357H1.09578ZM21.3367 2C26.5599 2 26.1762 6.92145 26.1762 6.92145L26.1799 21.0525C26.1799 25.5902 22.9312 26 21.7577 26C21.4969 26 21.3404 25.9776 21.3404 25.9776H4.81761C-0.323654 25.9776 0.00419449 21.0785 0.00419449 21.0785V6.89165C0.00419449 2.3204 3.53602 2 4.53819 2C4.70584 2 4.8027 2.00745 4.8027 2.00745C4.8027 2.00745 16.1135 2 21.3367 2ZM9.82475 17.9156L16.486 14L9.82475 10.0844V17.9156ZM17.8496 13.5194C18.1141 13.6759 18.2035 14.0186 18.0433 14.2869C17.9949 14.3651 17.9278 14.4322 17.8496 14.4806L9.55278 19.3611C9.38513 19.4617 9.1765 19.4617 9.00885 19.3611C8.8412 19.2605 8.73689 19.0779 8.73689 18.8805V9.12325C8.73689 8.9258 8.8412 8.74325 9.00885 8.64266C9.1765 8.54207 9.38513 8.54207 9.55278 8.64266L17.8496 13.5194Z" fill="#86888C"/>
</svg>
