<svg width="20" height="20" viewBox="0 0 20 20" fill="none" xmlns="http://www.w3.org/2000/svg">
<path fill-rule="evenodd" clip-rule="evenodd" d="M13.594 8.29291C13.7862 8.29291 13.9356 8.34202 14.0402 8.44022C14.1491 8.5427 14.2046 8.69428 14.2046 8.89283C14.2046 9.08924 14.1491 9.24082 14.0402 9.3433C13.9356 9.4415 13.7862 9.49061 13.594 9.49061C13.4019 9.49061 13.2525 9.4415 13.1478 9.3433C13.0411 9.24082 12.9856 9.09138 12.9856 8.89283C12.9856 8.69428 13.0411 8.5427 13.1478 8.44022C13.2525 8.34202 13.4019 8.29291 13.594 8.29291ZM12.3622 9.48847C12.5543 9.48847 12.7038 9.53758 12.8084 9.63792C12.9173 9.74039 12.9728 9.89197 12.9728 10.0905C12.9728 10.2869 12.9173 10.4385 12.8084 10.541C12.7038 10.6392 12.5543 10.6883 12.3622 10.6883C12.1701 10.6883 12.0206 10.6392 11.916 10.541C11.8092 10.4385 11.7516 10.2891 11.7516 10.0905C11.7516 9.89197 11.8071 9.74039 11.916 9.63792C12.0185 9.53971 12.1679 9.48847 12.3622 9.48847ZM13.594 10.6862C13.7862 10.6862 13.9356 10.7353 14.0402 10.8335C14.1491 10.936 14.2046 11.0875 14.2046 11.2861C14.2046 11.4825 14.1491 11.6341 14.0402 11.7366C13.9356 11.8348 13.7862 11.8839 13.594 11.8839C13.4019 11.8839 13.2525 11.8348 13.1478 11.7366C13.0411 11.6341 12.9856 11.4846 12.9856 11.2861C12.9856 11.0897 13.0411 10.936 13.1478 10.8335C13.2525 10.7353 13.4019 10.6862 13.594 10.6862ZM14.828 9.48847C15.0202 9.48847 15.1696 9.53758 15.2742 9.63792C15.3831 9.74039 15.4386 9.89197 15.4386 10.0905C15.4386 10.2869 15.3831 10.4385 15.2742 10.541C15.1696 10.6392 15.0202 10.6883 14.828 10.6883C14.6338 10.6883 14.4864 10.6392 14.3818 10.541C14.273 10.4385 14.2196 10.2891 14.2196 10.0905C14.2196 9.89197 14.2751 9.74039 14.3818 9.63792C14.4864 9.53971 14.6359 9.48847 14.828 9.48847ZM8.47876 10.3488C8.54495 10.2848 8.55562 10.1375 8.55562 10.0542C8.55562 9.9731 8.54495 9.82366 8.47876 9.75961C8.42966 9.71264 8.32291 9.68702 8.17987 9.68702C8.13931 9.68702 8.13077 9.69129 8.11582 9.69129H8.09234C8.0838 9.69129 8.07526 9.69129 8.0774 9.68915C8.04964 9.69129 8.02402 9.69342 7.9984 9.69342C7.93009 9.69342 7.86817 9.68062 7.81694 9.64859C7.73581 9.59735 7.6803 9.50769 7.65041 9.38386C7.6376 9.33476 7.6376 9.29206 7.6376 9.24936C7.6376 9.24082 7.63547 9.23228 7.63547 9.22588C7.6376 9.21734 7.6376 9.21093 7.6376 9.20453C7.63974 9.18318 7.64401 9.15969 7.64401 9.14688C7.64401 9.06362 7.63333 8.91418 7.56715 8.85013C7.51804 8.80316 7.4113 8.77754 7.26826 8.77754C7.12735 8.77754 7.02274 8.80316 6.97364 8.85013C6.90532 8.91418 6.89678 9.06362 6.89678 9.14688C6.89678 9.19599 6.90319 9.23442 6.90959 9.27498C6.90959 9.27711 6.90959 9.27925 6.91173 9.28138C6.91386 9.29633 6.90959 9.307 6.91173 9.32195C6.92027 9.42656 6.90319 9.51623 6.85408 9.58454C6.7943 9.66567 6.6961 9.71477 6.56373 9.73399C6.55733 9.73612 6.55092 9.73612 6.54238 9.73612C6.5253 9.73612 6.51036 9.73399 6.49114 9.73399H6.48901C6.46766 9.73399 6.44631 9.73612 6.4271 9.73612C6.41215 9.73612 6.39934 9.73399 6.3844 9.73185H6.38226C6.35878 9.72972 6.33743 9.72331 6.30968 9.72331C6.16877 9.72331 6.06416 9.74893 6.01506 9.79804C5.94887 9.86208 5.9382 10.0094 5.9382 10.0927C5.9382 10.2336 5.96595 10.3403 6.01292 10.3873C6.06202 10.4321 6.16877 10.4599 6.30968 10.4599C6.38013 10.4599 6.38013 10.4599 6.43137 10.4513H6.4335C6.44418 10.4513 6.47834 10.4471 6.48901 10.4471H6.49114C6.51249 10.4449 6.53598 10.4449 6.55733 10.4449C6.62565 10.4449 6.68756 10.4577 6.73666 10.4898C6.81779 10.541 6.8733 10.6285 6.90319 10.7523C6.91386 10.7929 6.91173 10.8249 6.91386 10.8591C6.91386 10.8719 6.916 10.8826 6.916 10.8933C6.91173 10.9167 6.90959 10.9381 6.90746 10.9594C6.90319 10.9851 6.89678 11.0149 6.89678 11.0363C6.89678 11.1772 6.92454 11.2861 6.9715 11.3309C7.02061 11.3757 7.12735 11.4014 7.26612 11.4014C7.40703 11.4014 7.51591 11.3757 7.56501 11.3288C7.6312 11.2647 7.64187 11.1174 7.64187 11.0342C7.64187 11.0128 7.6312 10.9808 7.62906 10.953C7.62693 10.9381 7.62479 10.9231 7.62266 10.9061C7.62052 10.8868 7.62052 10.8676 7.62052 10.8463C7.62052 10.8207 7.61412 10.7972 7.61625 10.7694C7.62906 10.6435 7.67389 10.5453 7.74862 10.4855C7.81053 10.4342 7.89593 10.4108 7.99627 10.4108H8.03043C8.03683 10.4108 8.05818 10.4129 8.06459 10.4129H8.06672C8.09234 10.4193 8.10729 10.4193 8.1265 10.4193H8.18201C8.32078 10.4214 8.42966 10.3937 8.47876 10.3488ZM8.2674 9.07216C8.54068 9.08497 8.7563 9.16823 8.91215 9.31554C9.09149 9.48634 9.18115 9.73399 9.18115 10.0542C9.18115 10.3766 9.09149 10.6243 8.91002 10.795C8.75844 10.9381 8.54921 11.0192 8.26954 11.0342C8.26954 11.3565 8.17774 11.6042 7.9984 11.775C7.82761 11.9351 7.57996 12.0184 7.26612 12.0184C6.95229 12.0184 6.70891 11.9372 6.53598 11.775C6.36732 11.6127 6.27552 11.3757 6.26911 11.0747C5.97449 11.0662 5.74179 10.9851 5.5774 10.8292C5.4002 10.6605 5.30839 10.4129 5.30839 10.0905C5.30839 9.77028 5.4002 9.5205 5.5774 9.35184C5.74179 9.19599 5.97449 9.11272 6.26911 9.10418C6.27552 8.80316 6.36518 8.56832 6.53598 8.40606C6.70891 8.24167 6.95229 8.15841 7.26612 8.15841C7.57996 8.15841 7.82761 8.24167 7.9984 8.40606C8.16493 8.56191 8.25673 8.78608 8.2674 9.07216ZM17.1914 14.5504C17.2704 14.2899 17.3771 13.722 17.3814 13.4744C17.4049 11.6832 16.4911 9.576 15.998 8.44449C15.9254 8.27583 15.8592 8.12852 15.808 8.00256L15.7845 7.94278C15.7525 7.86379 15.7226 7.79547 15.6991 7.73997C15.6863 7.71008 15.6777 7.693 15.6713 7.68232L15.6649 7.66951L15.6478 7.63535L15.6158 7.57771C15.5262 7.41973 15.4301 7.2895 15.3233 7.18702C14.9262 6.807 14.337 6.61699 13.5748 6.61699C13.2781 6.61699 12.992 6.65329 12.6995 6.73015C12.6077 6.75576 12.3494 6.86038 12.2149 6.92015C12.1423 6.96072 11.9416 7.07387 11.869 7.12297C11.4634 7.39411 10.9916 7.53928 10.5027 7.53928C10.0138 7.53928 9.54196 7.39411 9.13845 7.12297C9.06373 7.07387 8.86305 6.95858 8.79046 6.91802C8.66664 6.86251 8.39977 6.75363 8.30583 6.72801C8.01548 6.65115 7.7294 6.61486 7.43265 6.61486C6.66834 6.61486 6.08124 6.807 5.68414 7.18488C5.5774 7.28523 5.48132 7.41759 5.37885 7.59906L5.35536 7.64389L5.35323 7.64603L5.33615 7.68232C5.32974 7.69513 5.32334 7.71008 5.30839 7.73997C5.28064 7.80188 5.24862 7.87874 5.21232 7.96413L5.19738 8.00043C5.14401 8.12852 5.07996 8.27583 5.00737 8.44449C4.51634 9.576 3.60045 11.6832 3.62394 13.4765C3.62607 13.7242 3.73282 14.2921 3.81181 14.5525C3.92496 14.9176 4.17688 15.1866 4.5078 15.2955C4.63376 15.336 4.84298 15.3766 5.00524 15.3873C5.17816 15.3873 5.54537 15.304 5.71617 15.2272C5.86561 15.161 6.00652 15.0692 6.15169 14.9453C6.23282 14.8749 6.26911 14.8322 6.44418 14.6166L6.51676 14.529C6.56373 14.4693 6.6107 14.4095 6.65553 14.3497C6.77296 14.196 6.90746 14.0209 7.07612 13.8608C7.5885 13.374 8.23965 13.0175 9.01463 12.7997C9.49499 12.6652 9.99456 12.5969 10.4984 12.5969C11.0022 12.5969 11.5018 12.6652 11.9822 12.7997C12.7593 13.0175 13.4104 13.374 13.9207 13.8608C14.0894 14.0209 14.2217 14.196 14.3413 14.3518C14.3861 14.4116 14.4331 14.4714 14.48 14.529L14.5505 14.6166C14.7256 14.8322 14.7619 14.8749 14.8451 14.9453C15.0287 15.1012 15.1867 15.1823 15.2913 15.2272C15.4685 15.3061 15.8784 15.3873 16.0428 15.3873C16.1261 15.3873 16.3118 15.3553 16.4911 15.2955C16.8242 15.1845 17.0782 14.9133 17.1914 14.5504ZM16.3865 7.76559C16.8135 8.79035 18.0368 11.2946 18.0069 13.4829C18.0027 13.7989 17.8831 14.4266 17.7892 14.7276C17.6034 15.3318 17.1701 15.7203 16.694 15.8762C16.4997 15.9402 16.2371 16 16.0471 16C15.793 16 15.2935 15.8997 15.0373 15.7844C14.8921 15.7182 14.6786 15.6093 14.4395 15.4065C14.2964 15.2827 14.2324 15.2015 13.9975 14.9091C13.831 14.7041 13.6837 14.4799 13.4916 14.2963C13.0496 13.8736 12.486 13.5726 11.8178 13.3868C11.3908 13.2694 10.9467 13.2075 10.5048 13.2075C10.0607 13.2075 9.61881 13.2673 9.19183 13.3868C8.5236 13.5747 7.96211 13.8736 7.51804 14.2963C7.3259 14.4799 7.17859 14.702 7.00993 14.9091C6.77296 15.1994 6.71104 15.2827 6.568 15.4065C6.32889 15.6093 6.12607 15.7182 5.9809 15.7844C5.74392 15.8911 5.28705 16 5.01804 16H4.95827C4.77039 15.9829 4.50566 15.9402 4.31138 15.8762C3.83743 15.7203 3.40404 15.3318 3.21617 14.7276C3.12436 14.4266 3.00481 13.7968 3.00054 13.4829C2.97065 11.2968 4.19396 8.79249 4.62095 7.76559C4.66578 7.6567 4.70421 7.56277 4.73623 7.49018C4.76612 7.42186 4.77893 7.40051 4.78747 7.38343L4.83231 7.29804C4.94759 7.09308 5.07996 6.90307 5.25075 6.74295C5.7674 6.24979 6.50395 6 7.43478 6C7.81694 6 8.15639 6.05337 8.47236 6.13664C8.6581 6.18574 9.07014 6.36721 9.07868 6.37148C9.07868 6.37148 9.39465 6.54868 9.49285 6.61699C9.79815 6.82195 10.1504 6.92442 10.5027 6.92442C10.8549 6.92442 11.2093 6.82195 11.5125 6.61699C11.6128 6.54868 11.9288 6.37148 11.9288 6.37148C11.9352 6.36721 12.3473 6.18574 12.533 6.13664C12.849 6.05337 13.1884 6 13.5706 6C14.5014 6 15.2358 6.24979 15.7546 6.74295C15.9211 6.90307 16.0556 7.09308 16.1709 7.29804L16.2136 7.38343C16.2221 7.40051 16.235 7.42186 16.2648 7.49018C16.3033 7.56277 16.3417 7.65884 16.3865 7.76559Z" fill="#86888C"/>
</svg>
