<svg width="40" height="40" viewBox="0 0 40 40" fill="none" xmlns="http://www.w3.org/2000/svg">
<path fill-rule="evenodd" clip-rule="evenodd" d="M27.4257 13.503C27.8869 13.503 28.2455 13.6208 28.4966 13.8565C28.7579 14.1025 28.8911 14.4663 28.8911 14.9428C28.8911 15.4142 28.7579 15.778 28.4966 16.0239C28.2455 16.2596 27.8869 16.3775 27.4257 16.3775C26.9646 16.3775 26.6059 16.2596 26.3548 16.0239C26.0986 15.778 25.9654 15.4193 25.9654 14.9428C25.9654 14.4663 26.0986 14.1025 26.3548 13.8565C26.6059 13.6208 26.9646 13.503 27.4257 13.503ZM24.4693 16.3723C24.9304 16.3723 25.2891 16.4902 25.5401 16.731C25.8015 16.9769 25.9347 17.3407 25.9347 17.8173C25.9347 18.2886 25.8015 18.6524 25.5401 18.8984C25.2891 19.1341 24.9304 19.2519 24.4693 19.2519C24.0081 19.2519 23.6495 19.1341 23.3984 18.8984C23.1422 18.6524 23.0039 18.2938 23.0039 17.8173C23.0039 17.3407 23.1371 16.9769 23.3984 16.731C23.6443 16.4953 24.003 16.3723 24.4693 16.3723ZM27.4257 19.2468C27.8869 19.2468 28.2455 19.3646 28.4966 19.6003C28.7579 19.8463 28.8911 20.2101 28.8911 20.6866C28.8911 21.158 28.7579 21.5218 28.4966 21.7677C28.2455 22.0034 27.8869 22.1213 27.4257 22.1213C26.9646 22.1213 26.6059 22.0034 26.3548 21.7677C26.0986 21.5218 25.9654 21.1631 25.9654 20.6866C25.9654 20.2152 26.0986 19.8463 26.3548 19.6003C26.6059 19.3646 26.9646 19.2468 27.4257 19.2468ZM30.3873 16.3723C30.8484 16.3723 31.2071 16.4902 31.4582 16.731C31.7195 16.9769 31.8527 17.3407 31.8527 17.8173C31.8527 18.2886 31.7195 18.6524 31.4582 18.8984C31.2071 19.1341 30.8484 19.2519 30.3873 19.2519C29.921 19.2519 29.5675 19.1341 29.3164 18.8984C29.0551 18.6524 28.927 18.2938 28.927 17.8173C28.927 17.3407 29.0602 16.9769 29.3164 16.731C29.5675 16.4953 29.9261 16.3723 30.3873 16.3723ZM15.149 18.4372C15.3079 18.2835 15.3335 17.93 15.3335 17.7301C15.3335 17.5354 15.3079 17.1768 15.149 17.0231C15.0312 16.9103 14.775 16.8488 14.4317 16.8488C14.3343 16.8488 14.3138 16.8591 14.278 16.8591H14.2216C14.2011 16.8591 14.1806 16.8591 14.1858 16.854C14.1191 16.8591 14.0577 16.8642 13.9962 16.8642C13.8322 16.8642 13.6836 16.8335 13.5606 16.7566C13.3659 16.6336 13.2327 16.4184 13.161 16.1213C13.1302 16.0034 13.1302 15.9009 13.1302 15.7985C13.1302 15.778 13.1251 15.7575 13.1251 15.7421C13.1302 15.7216 13.1302 15.7062 13.1302 15.6909C13.1354 15.6396 13.1456 15.5833 13.1456 15.5525C13.1456 15.3527 13.12 14.994 12.9612 14.8403C12.8433 14.7276 12.5871 14.6661 12.2438 14.6661C11.9056 14.6661 11.6546 14.7276 11.5367 14.8403C11.3728 14.994 11.3523 15.3527 11.3523 15.5525C11.3523 15.6704 11.3676 15.7626 11.383 15.8599C11.383 15.8651 11.383 15.8702 11.3881 15.8753C11.3933 15.9112 11.383 15.9368 11.3881 15.9727C11.4086 16.2237 11.3676 16.4389 11.2498 16.6029C11.1063 16.7976 10.8706 16.9155 10.553 16.9616C10.5376 16.9667 10.5222 16.9667 10.5017 16.9667C10.4607 16.9667 10.4249 16.9616 10.3787 16.9616H10.3736C10.3224 16.9616 10.2711 16.9667 10.225 16.9667C10.1892 16.9667 10.1584 16.9616 10.1226 16.9564H10.1174C10.0611 16.9513 10.0098 16.936 9.94322 16.936C9.60505 16.936 9.35398 16.9974 9.23613 17.1153C9.0773 17.269 9.05168 17.6225 9.05168 17.8224C9.05168 18.1605 9.11829 18.4167 9.23101 18.5295C9.34886 18.6371 9.60505 18.7037 9.94322 18.7037C10.1123 18.7037 10.1123 18.7037 10.2353 18.6832H10.2404C10.266 18.6832 10.348 18.6729 10.3736 18.6729H10.3787C10.43 18.6678 10.4863 18.6678 10.5376 18.6678C10.7015 18.6678 10.8501 18.6985 10.968 18.7754C11.1627 18.8984 11.2959 19.1085 11.3676 19.4056C11.3933 19.503 11.3881 19.5798 11.3933 19.6618C11.3933 19.6926 11.3984 19.7182 11.3984 19.7438C11.3881 19.8002 11.383 19.8514 11.3779 19.9026C11.3676 19.9641 11.3523 20.0359 11.3523 20.0871C11.3523 20.4253 11.4189 20.6866 11.5316 20.7942C11.6495 20.9018 11.9056 20.9633 12.2387 20.9633C12.5769 20.9633 12.8382 20.9018 12.956 20.7891C13.1149 20.6354 13.1405 20.2818 13.1405 20.082C13.1405 20.0307 13.1149 19.9539 13.1097 19.8873C13.1046 19.8514 13.0995 19.8155 13.0944 19.7746C13.0893 19.7284 13.0893 19.6823 13.0893 19.6311C13.0893 19.5696 13.0739 19.5132 13.079 19.4466C13.1097 19.1443 13.2173 18.9086 13.3967 18.7652C13.5453 18.6422 13.7502 18.5858 13.991 18.5858H14.073C14.0884 18.5858 14.1396 18.5909 14.155 18.5909H14.1601C14.2216 18.6063 14.2575 18.6063 14.3036 18.6063H14.4368C14.7699 18.6114 15.0312 18.5448 15.149 18.4372ZM14.6418 15.3732C15.2976 15.4039 15.8151 15.6038 16.1892 15.9573C16.6196 16.3672 16.8348 16.9616 16.8348 17.7301C16.8348 18.5038 16.6196 19.0982 16.184 19.5081C15.8203 19.8514 15.3181 20.0461 14.6469 20.082C14.6469 20.8557 14.4266 21.45 13.9962 21.86C13.5863 22.2442 12.9919 22.4441 12.2387 22.4441C11.4855 22.4441 10.9014 22.2494 10.4863 21.86C10.0816 21.4705 9.86124 20.9018 9.84587 20.1793C9.13878 20.1588 8.58028 19.9641 8.18575 19.5901C7.76047 19.1853 7.54015 18.5909 7.54015 17.8173C7.54015 17.0487 7.76047 16.4492 8.18575 16.0444C8.58028 15.6704 9.13878 15.4705 9.84587 15.45C9.86124 14.7276 10.0764 14.164 10.4863 13.7746C10.9014 13.38 11.4855 13.1802 12.2387 13.1802C12.9919 13.1802 13.5863 13.38 13.9962 13.7746C14.3958 14.1486 14.6162 14.6866 14.6418 15.3732ZM36.0594 28.5209C36.2489 27.8958 36.5051 26.5329 36.5154 25.9385C36.5717 21.6396 34.3787 16.5824 33.1951 13.8668C33.0209 13.462 32.8621 13.1085 32.7391 12.8061L32.6828 12.6627C32.6059 12.4731 32.5342 12.3091 32.4778 12.1759C32.4471 12.1042 32.4266 12.0632 32.4112 12.0376L32.3958 12.0068L32.3548 11.9249L32.278 11.7865C32.0628 11.4073 31.8322 11.0948 31.576 10.8488C30.623 9.93681 29.2088 9.48079 27.3796 9.48079C26.6674 9.48079 25.9808 9.56789 25.2788 9.75235C25.0585 9.81383 24.4385 10.0649 24.1157 10.2084C23.9415 10.3057 23.4599 10.5773 23.2857 10.6951C22.3121 11.3459 21.1798 11.6943 20.0064 11.6943C18.8331 11.6943 17.7007 11.3459 16.7323 10.6951C16.553 10.5773 16.0713 10.3006 15.8971 10.2032C15.5999 10.07 14.9594 9.80871 14.734 9.74723C14.0372 9.56277 13.3506 9.47566 12.6384 9.47566C10.804 9.47566 9.39497 9.93681 8.44194 10.8437C8.18575 11.0845 7.95518 11.4022 7.70923 11.8377L7.65287 11.9453L7.64775 11.9505L7.60676 12.0376C7.59139 12.0683 7.57601 12.1042 7.54015 12.1759C7.47354 12.3245 7.39668 12.509 7.30958 12.7139L7.27371 12.801C7.14561 13.1085 6.9919 13.462 6.81769 13.8668C5.63921 16.5824 3.44109 21.6396 3.49745 25.9436C3.50257 26.538 3.75876 27.9009 3.94835 28.526C4.21991 29.4022 4.82452 30.0478 5.61871 30.3091C5.92102 30.4065 6.42315 30.5038 6.81256 30.5295C7.22759 30.5295 8.10889 30.3296 8.5188 30.1452C8.87747 29.9863 9.21564 29.766 9.56406 29.4688C9.75876 29.2997 9.84587 29.1973 10.266 28.6798L10.4402 28.4697C10.553 28.3262 10.6657 28.1828 10.7733 28.0393C11.0551 27.6704 11.3779 27.2502 11.7827 26.8659C13.0124 25.6977 14.5752 24.842 16.4351 24.3194C17.588 23.9966 18.7869 23.8326 19.9962 23.8326C21.2054 23.8326 22.4044 23.9966 23.5572 24.3194C25.4223 24.842 26.9851 25.6977 28.2097 26.8659C28.6144 27.2502 28.9321 27.6704 29.2191 28.0444C29.3267 28.1879 29.4394 28.3313 29.5521 28.4697L29.7212 28.6798C30.1413 29.1973 30.2284 29.2997 30.4283 29.4688C30.8689 29.8429 31.2481 30.0376 31.4992 30.1452C31.9244 30.3348 32.9082 30.5295 33.3027 30.5295C33.5026 30.5295 33.9483 30.4526 34.3787 30.3091C35.1781 30.0427 35.7878 29.392 36.0594 28.5209ZM34.1277 12.2374C35.1524 14.6968 38.0884 20.7071 38.0167 25.959C38.0064 26.7173 37.7195 28.2237 37.494 28.9462C37.0483 30.3962 36.0081 31.3288 34.8655 31.7028C34.3992 31.8565 33.769 32 33.313 32C32.7033 32 31.5043 31.7592 30.8894 31.4825C30.541 31.3237 30.0286 31.0623 29.4548 30.5756C29.1115 30.2784 28.9577 30.0837 28.3941 29.3817C27.9945 28.8898 27.6409 28.3518 27.1798 27.9112C26.1191 26.8967 24.7665 26.1742 23.1627 25.7284C22.1379 25.4466 21.0722 25.298 20.0115 25.298C18.9458 25.298 17.8852 25.4415 16.8604 25.7284C15.2566 26.1793 13.9091 26.8967 12.8433 27.9112C12.3822 28.3518 12.0286 28.8847 11.6238 29.3817C11.0551 30.0786 10.9065 30.2784 10.5632 30.5756C9.98934 31.0623 9.50257 31.3237 9.15415 31.4825C8.58541 31.7387 7.48891 32 6.84331 32H6.69984C6.24894 31.959 5.61359 31.8565 5.14732 31.7028C4.00983 31.3288 2.96969 30.3962 2.5188 28.9462C2.29847 28.2237 2.01154 26.7122 2.00129 25.959C1.92956 20.7122 4.86551 14.702 5.89028 12.2374C5.99788 11.9761 6.0901 11.7506 6.16696 11.5764C6.2387 11.4125 6.26944 11.3612 6.28993 11.3202L6.39753 11.1153C6.67422 10.6234 6.9919 10.1674 7.4018 9.78309C8.64177 8.59949 10.4095 8 12.6435 8C13.5606 8 14.3753 8.1281 15.1337 8.32792C15.5794 8.44577 16.5683 8.8813 16.5888 8.89155C16.5888 8.89155 17.3472 9.31682 17.5828 9.48079C18.3156 9.97267 19.161 10.2186 20.0064 10.2186C20.8518 10.2186 21.7024 9.97267 22.43 9.48079C22.6708 9.31682 23.4291 8.89155 23.4291 8.89155C23.4445 8.8813 24.4334 8.44577 24.8792 8.32792C25.6375 8.1281 26.4522 8 27.3694 8C29.6033 8 31.3659 8.59949 32.611 9.78309C33.0107 10.1674 33.3335 10.6234 33.6102 11.1153L33.7127 11.3202C33.7331 11.3612 33.7639 11.4125 33.8356 11.5764C33.9279 11.7506 34.0201 11.9812 34.1277 12.2374Z" fill="#86888C"/>
</svg>
