<svg width="25" height="24" viewBox="0 0 25 24" fill="none" xmlns="http://www.w3.org/2000/svg">
<path d="M22.145 12.782C18.9217 9.609 15.5927 8 12.2579 8C10.9406 8 9.6233 8.25035 8.3117 8.75105L7.74019 8.9789C5.91138 9.77778 4.09685 11.0605 2.3109 12.8186C2.2566 12.872 2.22803 12.9451 2.22803 13.0183C2.22803 13.0914 2.25946 13.1646 2.3109 13.218C5.53418 16.391 8.8632 18 12.1979 18C13.5153 18 14.8326 17.7496 16.1442 17.2489L16.7157 17.0211C18.5445 16.2222 20.359 14.9395 22.145 13.1814C22.1993 13.128 22.2278 13.0549 22.2278 12.9817C22.2307 12.9086 22.1993 12.8354 22.145 12.782ZM16.3013 16.5795L15.7013 16.8158C14.5354 17.2321 13.3667 17.4402 12.2008 17.4402C9.08895 17.4402 5.96853 15.9522 2.91955 13.0211C4.64549 11.3615 6.39144 10.1603 8.14311 9.42335L8.76033 9.18143C9.9262 8.76793 11.0949 8.55696 12.2608 8.55696C15.3726 8.55696 18.4931 10.045 21.542 12.9761C19.8104 14.6414 18.0587 15.8453 16.3013 16.5795Z" fill="#86888C"/>
<path d="M14.9665 10.3038C14.3321 9.70187 13.4092 9.39526 12.229 9.39526C11.0231 9.39526 10.0887 9.71313 9.45434 10.3376C8.81997 10.9621 8.49707 11.8819 8.49707 13.069C8.49707 14.256 8.81997 15.1759 9.45434 15.8003C10.0887 16.4248 11.0231 16.7427 12.229 16.7427C13.4349 16.7427 14.3693 16.4248 15.0037 15.8003C15.638 15.1759 15.9609 14.256 15.9609 13.069C15.9609 11.8594 15.6266 10.9283 14.9665 10.3038ZM14.5893 15.4487C14.0578 15.9522 13.2634 16.2054 12.229 16.2054C11.1917 16.2054 10.3973 15.9494 9.86868 15.4487C9.32004 14.9283 9.04286 14.1266 9.04286 13.069C9.04286 12.0113 9.32004 11.2096 9.86868 10.6892C10.4002 10.1857 11.1917 9.92972 12.229 9.92972C13.2634 9.92972 14.0578 10.1857 14.5893 10.6892C15.138 11.2096 15.418 12.0113 15.418 13.069C15.418 14.1266 15.138 14.9283 14.5893 15.4487Z" fill="#86888C"/>
<path d="M12.229 13.7947C11.7089 13.7947 11.4346 13.5247 11.4346 13.0127C11.4346 12.5008 11.7089 12.2307 12.229 12.2307C12.4833 12.2307 12.6776 12.2954 12.8119 12.422C12.9519 12.5542 13.0205 12.7511 13.0205 13.0127C13.0234 13.5247 12.749 13.7947 12.229 13.7947Z" fill="#86888C"/>
</svg>
