<svg width="29" height="28" viewBox="0 0 29 28" fill="none" xmlns="http://www.w3.org/2000/svg">
<path d="M26.1284 14.7384C22.2604 10.9308 18.2656 9 14.2639 9C12.6831 9 11.1024 9.30042 9.52843 9.90127L8.84263 10.1747C6.64805 11.1333 4.47061 12.6726 2.32747 14.7823C2.26232 14.8464 2.22803 14.9342 2.22803 15.0219C2.22803 15.1097 2.26575 15.1975 2.32747 15.2616C6.19542 19.0692 10.1902 21 14.1919 21C15.7727 21 17.3535 20.6996 18.9274 20.0987L19.6132 19.8253C21.8078 18.8667 23.9852 17.3274 26.1284 15.2177C26.1935 15.1536 26.2278 15.0658 26.2278 14.9781C26.2312 14.8903 26.1935 14.8025 26.1284 14.7384ZM19.116 19.2954L18.3959 19.5789C16.9969 20.0785 15.5944 20.3283 14.1953 20.3283C10.4611 20.3283 6.71663 18.5426 3.05785 15.0253C5.12899 13.0338 7.22412 11.5924 9.32612 10.708L10.0668 10.4177C11.4658 9.92152 12.8683 9.66835 14.2674 9.66835C18.0016 9.66835 21.7461 11.454 25.4048 14.9713C23.3269 16.9696 21.2249 18.4143 19.116 19.2954Z" fill="#86888C"/>
<path d="M17.5143 11.7646C16.7531 11.0422 15.6455 10.6743 14.2293 10.6743C12.7822 10.6743 11.6609 11.0558 10.8997 11.8051C10.1385 12.5545 9.75098 13.6583 9.75098 15.0828C9.75098 16.5072 10.1385 17.611 10.8997 18.3604C11.6609 19.1098 12.7822 19.4912 14.2293 19.4912C15.6763 19.4912 16.7976 19.1098 17.5589 18.3604C18.3201 17.611 18.7076 16.5072 18.7076 15.0828C18.7076 13.6313 18.3064 12.514 17.5143 11.7646ZM17.0617 17.9385C16.4239 18.5427 15.4706 18.8465 14.2293 18.8465C12.9846 18.8465 12.0313 18.5393 11.3969 17.9385C10.7385 17.314 10.4059 16.352 10.4059 15.0828C10.4059 13.8136 10.7385 12.8515 11.3969 12.2271C12.0347 11.6228 12.9846 11.3157 14.2293 11.3157C15.4706 11.3157 16.4239 11.6228 17.0617 12.2271C17.72 12.8515 18.0561 13.8136 18.0561 15.0828C18.0561 16.352 17.72 17.314 17.0617 17.9385Z" fill="#86888C"/>
<path d="M14.2291 15.9535C13.6051 15.9535 13.2759 15.6294 13.2759 15.0151C13.2759 14.4007 13.6051 14.0767 14.2291 14.0767C14.5343 14.0767 14.7675 14.1543 14.9287 14.3062C15.0967 14.4648 15.179 14.7011 15.179 15.0151C15.1824 15.6294 14.8532 15.9535 14.2291 15.9535Z" fill="#86888C"/>
</svg>
