<svg width="41" height="40" viewBox="0 0 41 40" fill="none" xmlns="http://www.w3.org/2000/svg">
<path d="M38.0731 37.1306L28.3022 27.3568C31.5934 25.8958 34.859 23.5501 38.0731 20.335C38.1708 20.2373 38.2222 20.1035 38.2222 19.9698C38.2222 19.836 38.1657 19.7023 38.0731 19.6045C32.2723 13.802 26.2812 10.8595 20.2798 10.8595C17.909 10.8595 15.5383 11.3173 13.1779 12.233L3.10355 2.15047C2.90299 1.94984 2.57901 1.94984 2.37845 2.15047C2.17789 2.35109 2.17789 2.67517 2.37845 2.87579L12.1494 12.6497C8.8581 14.1106 5.59256 16.4563 2.37845 19.6714C2.28074 19.7692 2.22931 19.9029 2.22931 20.0367C2.22931 20.1704 2.28588 20.3041 2.37845 20.4019C8.17928 26.2045 14.1704 29.1469 20.1718 29.1469C22.5425 29.1469 24.9132 28.6891 27.2737 27.7734L37.348 37.8508C37.4508 37.9537 37.5794 38 37.7131 38C37.8468 38 37.9754 37.9486 38.0782 37.8508C38.2788 37.6553 38.2788 37.3313 38.0731 37.1306V37.1306ZM20.2798 11.878C25.88 11.878 31.4957 14.5993 36.9829 19.9595C33.8562 23.0151 30.6935 25.2219 27.5205 26.5646L25.5046 24.5532C26.4149 23.4164 26.8777 21.8834 26.8777 19.9852C26.8777 17.7732 26.2554 16.0602 25.0264 14.8925C23.8641 13.7865 22.2237 13.2258 20.1563 13.2258C18.2587 13.2258 16.7262 13.6939 15.5846 14.625L13.9801 13.02C16.0783 12.2639 18.1816 11.878 20.2798 11.878V11.878ZM20.1821 18.4831C19.9404 18.4831 19.7244 18.514 19.529 18.586L16.3148 15.3709C17.2611 14.6404 18.5467 14.2701 20.1512 14.2701C22.7482 14.2701 25.844 15.2629 25.844 19.9955C25.844 21.6005 25.4841 22.8865 24.7641 23.8279L21.6066 20.6694C21.6683 20.4842 21.7043 20.2681 21.7043 20.0212C21.7094 18.9667 21.1077 18.4831 20.1821 18.4831V18.4831ZM20.1718 28.1232C14.5715 28.1232 8.95581 25.402 3.46867 20.0418C6.59536 16.9862 9.75805 14.7793 12.931 13.4367L26.4714 26.9812C24.3733 27.7426 22.2699 28.1232 20.1718 28.1232V28.1232Z" fill="#86888C"/>
</svg>
