<svg width="41" height="40" viewBox="0 0 41 40" fill="none" xmlns="http://www.w3.org/2000/svg">
<path d="M38.0785 20.6076C32.2766 14.8962 26.2844 12 20.2819 12C17.9107 12 15.5395 12.4506 13.1786 13.3519L12.1499 13.762C8.85806 15.2 5.59191 17.5089 2.37719 20.6734C2.27946 20.7696 2.22803 20.9013 2.22803 21.0329C2.22803 21.1646 2.28461 21.2962 2.37719 21.3924C8.17911 27.1038 14.1713 30 20.1739 30C22.545 30 24.9162 29.5494 27.2771 28.6481L28.3058 28.238C31.5977 26.8 34.8638 24.4911 38.0785 21.3266C38.1763 21.2304 38.2277 21.0987 38.2277 20.9671C38.2328 20.8354 38.1763 20.7038 38.0785 20.6076ZM27.56 27.443L26.4798 27.8684C24.3813 28.6177 22.2776 28.9924 20.179 28.9924C14.5777 28.9924 8.96093 26.3139 3.47277 21.038C6.57947 18.0506 9.72217 15.8886 12.8752 14.562L13.9862 14.1266C16.0847 13.3823 18.1885 13.0025 20.287 13.0025C25.8883 13.0025 31.5051 15.681 36.9933 20.957C33.8763 23.9544 30.7233 26.1215 27.56 27.443Z" fill="#86888C"/>
<path d="M25.1582 16.1469C24.0163 15.0634 22.3549 14.5115 20.2307 14.5115C18.0601 14.5115 16.3781 15.0836 15.2363 16.2077C14.0944 17.3317 13.5132 18.9874 13.5132 21.1241C13.5132 23.2608 14.0944 24.9165 15.2363 26.0406C16.3781 27.1646 18.0601 27.7368 20.2307 27.7368C22.4012 27.7368 24.0832 27.1646 25.225 26.0406C26.3669 24.9165 26.9481 23.2608 26.9481 21.1241C26.9481 18.9469 26.3463 17.271 25.1582 16.1469ZM24.4792 25.4077C23.5225 26.314 22.0926 26.7697 20.2307 26.7697C18.3635 26.7697 16.9336 26.3089 15.9821 25.4077C14.9945 24.471 14.4956 23.0279 14.4956 21.1241C14.4956 19.2203 14.9945 17.7773 15.9821 16.8406C16.9388 15.9343 18.3635 15.4735 20.2307 15.4735C22.0926 15.4735 23.5225 15.9343 24.4792 16.8406C25.4668 17.7773 25.9709 19.2203 25.9709 21.1241C25.9709 23.0279 25.4668 24.471 24.4792 25.4077Z" fill="#86888C"/>
<path d="M20.2307 22.4304C19.2946 22.4304 18.8008 21.9443 18.8008 21.0228C18.8008 20.1013 19.2946 19.6152 20.2307 19.6152C20.6885 19.6152 21.0382 19.7317 21.28 19.9595C21.532 20.1975 21.6554 20.5519 21.6554 21.0228C21.6606 21.9443 21.1668 22.4304 20.2307 22.4304Z" fill="#86888C"/>
</svg>
