<svg width="29" height="28" viewBox="0 0 29 28" fill="none" xmlns="http://www.w3.org/2000/svg">
<path d="M26.1247 25.4204L19.6108 18.9045C21.805 17.9306 23.982 16.3667 26.1247 14.2233C26.1899 14.1582 26.2242 14.069 26.2242 13.9799C26.2242 13.8907 26.1865 13.8015 26.1247 13.7364C22.2575 9.86797 18.2634 7.90633 14.2625 7.90633C12.682 7.90633 11.1015 8.21155 9.52792 8.82199L2.81171 2.10031C2.678 1.96656 2.46201 1.96656 2.32831 2.10031C2.1946 2.23406 2.1946 2.45011 2.32831 2.58386L8.84224 9.09977C6.64808 10.0737 4.47105 11.6376 2.32831 13.7809C2.26317 13.8461 2.22888 13.9353 2.22888 14.0244C2.22888 14.1136 2.2666 14.2028 2.32831 14.2679C6.19553 18.1363 10.1896 20.098 14.1905 20.098C15.771 20.098 17.3515 19.7927 18.9251 19.1823L25.6413 25.9005C25.7099 25.9691 25.7956 26 25.8848 26C25.9739 26 26.0596 25.9657 26.1282 25.9005C26.2619 25.7702 26.2619 25.5542 26.1247 25.4204V25.4204ZM14.2625 8.58536C17.996 8.58536 21.7398 10.3995 25.3979 13.973C23.3135 16.0101 21.205 17.4813 19.0897 18.3764L17.7458 17.0355C18.3526 16.2776 18.6611 15.2556 18.6611 13.9901C18.6611 12.5155 18.2463 11.3735 17.4269 10.595C16.6521 9.85768 15.5585 9.48387 14.1802 9.48387C12.9152 9.48387 11.8935 9.79595 11.1324 10.4167L10.0627 9.34669C11.4615 8.84257 12.8637 8.58536 14.2625 8.58536V8.58536ZM14.1974 12.9887C14.0362 12.9887 13.8923 13.0093 13.762 13.0573L11.6192 10.9139C12.2501 10.427 13.1072 10.18 14.1768 10.18C15.9081 10.18 17.972 10.8419 17.972 13.997C17.972 15.067 17.7321 15.9243 17.2521 16.5519L15.147 14.4463C15.1882 14.3228 15.2122 14.1788 15.2122 14.0141C15.2156 13.3111 14.8145 12.9887 14.1974 12.9887V12.9887ZM14.1905 19.4155C10.457 19.4155 6.71321 17.6013 3.05513 14.0279C5.13958 11.9908 7.24804 10.5196 9.36336 9.62448L18.3903 18.6542C16.9915 19.1617 15.5893 19.4155 14.1905 19.4155V19.4155Z" fill="#86888C"/>
</svg>
