<svg width="21" height="20" viewBox="0 0 21 20" fill="none" xmlns="http://www.w3.org/2000/svg">
<path d="M18.1592 17.6136L13.8165 13.2697C15.2793 12.6204 16.7307 11.5778 18.1592 10.1489C18.2026 10.1055 18.2255 10.046 18.2255 9.98657C18.2255 9.92712 18.2003 9.86768 18.1592 9.82424C15.581 7.24531 12.9183 5.93756 10.251 5.93756C9.19737 5.93756 8.14371 6.14103 7.09462 6.54799L2.61715 2.06687C2.52801 1.97771 2.38402 1.97771 2.29488 2.06687C2.20574 2.15604 2.20574 2.30008 2.29488 2.38924L6.6375 6.73318C5.17473 7.38249 3.72338 8.42503 2.29488 9.85396C2.25145 9.8974 2.2286 9.95685 2.2286 10.0163C2.2286 10.0757 2.25374 10.1352 2.29488 10.1786C4.87303 12.7575 7.53574 14.0653 10.203 14.0653C11.2567 14.0653 12.3103 13.8618 13.3594 13.4549L17.8369 17.9337C17.8826 17.9794 17.9398 18 17.9992 18C18.0586 18 18.1157 17.9771 18.1615 17.9337C18.2506 17.8468 18.2506 17.7028 18.1592 17.6136ZM10.251 6.39024C12.74 6.39024 15.2359 7.59969 17.6746 9.982C16.285 11.34 14.8793 12.3209 13.4691 12.9176L12.5732 12.0236C12.9777 11.5184 13.1834 10.8371 13.1834 9.99343C13.1834 9.01032 12.9069 8.24899 12.3606 7.73C11.8441 7.23845 11.115 6.98925 10.1962 6.98925C9.35279 6.98925 8.67168 7.1973 8.16428 7.61112L7.45118 6.8978C8.3837 6.56171 9.3185 6.39024 10.251 6.39024ZM10.2076 9.32583C10.1002 9.32583 10.0042 9.33955 9.91733 9.37156L8.48883 7.94263C8.90938 7.61798 9.48078 7.45336 10.1939 7.45336C11.3481 7.45336 12.724 7.89462 12.724 9.998C12.724 10.7113 12.564 11.2829 12.2441 11.7013L10.8407 10.2975C10.8681 10.2152 10.8841 10.1192 10.8841 10.0094C10.8864 9.54074 10.619 9.32583 10.2076 9.32583ZM10.203 13.6103C7.71402 13.6103 5.21815 12.4009 2.77943 10.0186C4.16907 8.66052 5.5747 7.67971 6.98491 7.08299L13.0029 13.1028C12.0704 13.4411 11.1355 13.6103 10.203 13.6103Z" fill="#86888C"/>
</svg>
