<svg width="28" height="28" viewBox="0 0 28 28" fill="none" xmlns="http://www.w3.org/2000/svg">
<path fill-rule="evenodd" clip-rule="evenodd" d="M11.4805 20.1108C16.1619 20.1108 19.9702 16.2728 19.9702 11.5539C19.9702 6.835 16.1619 2.99705 11.4805 2.99705C6.799 2.99705 2.9907 6.835 2.9907 11.5539C2.9907 16.2728 6.799 20.1142 11.4805 20.1108ZM25.4543 25.1472C25.6457 25.3384 25.6491 25.6526 25.461 25.8472L25.4543 25.854C25.2629 26.0487 24.9506 26.0487 24.7558 25.854L17.7101 18.7449C15.9839 20.2712 13.7708 21.1112 11.4805 21.1078C6.24488 21.1078 2 16.8294 2 11.5539C2 6.27843 6.24488 2 11.4805 2C16.716 2 20.9576 6.27843 20.9576 11.5539C20.9576 13.968 20.0475 16.2933 18.4153 18.0484L25.4543 25.1472ZM11.4805 15.7914C13.3477 15.7914 13.8884 15.0709 13.8884 12.5749C13.8884 11.0144 13.6566 10.171 13.1126 9.75785C12.76 9.49152 12.226 9.36176 11.4838 9.36176C10.7316 9.36176 10.1942 9.49493 9.84497 9.76468C9.30764 10.1813 9.07928 11.0212 9.07928 12.5749C9.07256 15.0709 9.61661 15.7914 11.4805 15.7914ZM11.4838 7.53157C9.82146 7.53157 9.82146 7.94473 9.82146 8.42276C9.82146 8.50813 9.82818 8.58325 9.83825 8.64812C10.2849 8.46374 10.8222 8.36472 11.4771 8.36472C12.1353 8.36472 12.676 8.46374 13.126 8.64812C13.1361 8.58325 13.1428 8.50813 13.1428 8.41935C13.1462 7.94473 13.1462 7.53157 11.4838 7.53157ZM15.7522 11.6359C16.0242 11.6359 16.2459 11.8578 16.2459 12.1344V13.0563C16.2459 13.3329 16.0242 13.5548 15.7522 13.5548C15.4802 13.5548 15.2585 13.3329 15.2585 13.0563V12.6329H14.8757C14.8723 13.4387 14.7984 14.149 14.6205 14.7499L15.6011 15.0504C15.816 15.1153 15.9604 15.3236 15.9503 15.5523L15.8765 16.9386C15.863 17.205 15.6447 17.4133 15.3828 17.4099H15.3559C15.0839 17.3962 14.8757 17.1606 14.8891 16.8874L14.9429 15.887L14.2074 15.6616C13.707 16.3752 12.8674 16.7884 11.4838 16.7884C10.0935 16.7884 9.25391 16.3752 8.75353 15.6582L7.99791 15.8904L8.05164 16.8908C8.06507 17.1674 7.85686 17.3996 7.58484 17.4133H7.55797C7.29603 17.4133 7.0811 17.2084 7.0643 16.9421L6.99042 15.5558C6.97699 15.327 7.1214 15.1187 7.33968 15.0538L8.34381 14.7465C8.16918 14.1455 8.0953 13.4387 8.09194 12.6363H7.70574V13.0597C7.70574 13.3363 7.48409 13.5582 7.21207 13.5582C6.94005 13.5582 6.7184 13.3363 6.7184 13.0597V12.1378C6.7184 11.8612 6.94005 11.6393 7.21207 11.6393H8.12217C8.16918 11.0144 8.29008 10.41 8.53859 9.8876L7.33968 9.51542C7.1214 9.45054 6.97699 9.24225 6.99042 9.01348L7.0643 7.62717C7.07774 7.3506 7.32289 7.12182 7.58484 7.15597C7.85686 7.16962 8.06507 7.40523 8.05164 7.67839L7.99791 8.67544L8.89793 8.95202C8.85763 8.77788 8.83748 8.60032 8.83412 8.42276C8.83412 7.24133 9.53601 6.80085 10.2715 6.63696L10.1842 6.54818C9.99273 6.35696 9.99273 6.04282 10.1808 5.84819L10.1842 5.84478C10.3789 5.65015 10.6879 5.65015 10.8827 5.84478L11.3361 6.29892C11.3999 6.36379 11.4402 6.44916 11.457 6.53793H11.467C11.4838 6.44574 11.5275 6.36379 11.5913 6.29892L12.0413 5.84478C12.2361 5.65015 12.545 5.65015 12.7398 5.84478C12.9312 6.036 12.9346 6.35013 12.7465 6.54476L12.7398 6.55159L12.6592 6.63354C13.4081 6.79061 14.1335 7.22426 14.1335 8.42618C14.1335 8.61398 14.11 8.78471 14.0731 8.94519L14.9395 8.67885L14.8858 7.68181C14.8723 7.40523 15.0805 7.17304 15.3526 7.15938C15.6347 7.12524 15.8597 7.35401 15.8731 7.63059L15.947 9.01689C15.9604 9.24567 15.816 9.45396 15.5977 9.51883L14.4223 9.87736C14.6742 10.3998 14.7951 11.011 14.8421 11.6359H15.7522ZM11.4435 10.6081C11.7155 10.6081 11.9372 10.83 11.9372 11.1066V14.5553C11.9372 14.8319 11.7155 15.0538 11.4435 15.0538C11.1715 15.0538 10.9498 14.8319 10.9498 14.5553V11.1066C10.9498 10.83 11.1715 10.6047 11.4435 10.6081Z" fill="#86888C"/>
</svg>
