<svg width="24" height="24" viewBox="0 0 24 24" fill="none" xmlns="http://www.w3.org/2000/svg">
<path fill-rule="evenodd" clip-rule="evenodd" d="M9.90038 17.0923C13.8016 17.0923 16.9752 13.894 16.9752 9.96159C16.9752 6.02917 13.8016 2.83087 9.90038 2.83087C5.99917 2.83087 2.82558 6.02917 2.82558 9.96159C2.82558 13.894 5.99917 17.0951 9.90038 17.0923ZM21.5453 21.2893C21.7048 21.4487 21.7076 21.7105 21.5509 21.8727L21.5453 21.8784C21.3857 22.0405 21.1255 22.0405 20.9632 21.8784L15.0917 15.9541C13.6533 17.226 11.809 17.926 9.90038 17.9232C5.5374 17.9232 2 14.3578 2 9.96159C2 5.56536 5.5374 2 9.90038 2C14.2634 2 17.798 5.56536 17.798 9.96159C17.798 11.9733 17.0396 13.9111 15.6794 15.3736L21.5453 21.2893ZM9.90038 13.4928C11.4564 13.4928 11.907 12.8924 11.907 10.8124C11.907 9.512 11.7139 8.80918 11.2605 8.46488C10.9666 8.24293 10.5217 8.1348 9.90318 8.1348C9.2763 8.1348 8.82853 8.24578 8.53748 8.47057C8.0897 8.81771 7.8994 9.5177 7.8994 10.8124C7.8938 12.8924 8.34717 13.4928 9.90038 13.4928ZM9.90318 6.60964C8.51788 6.60964 8.51788 6.95394 8.51788 7.3523C8.51788 7.42344 8.52348 7.48604 8.53188 7.5401C8.90409 7.38645 9.35186 7.30393 9.89758 7.30393C10.4461 7.30393 10.8967 7.38645 11.2717 7.5401C11.2801 7.48604 11.2857 7.42344 11.2857 7.34946C11.2885 6.95394 11.2885 6.60964 9.90318 6.60964ZM13.4602 10.0299C13.6869 10.0299 13.8716 10.2148 13.8716 10.4453V11.2136C13.8716 11.4441 13.6869 11.629 13.4602 11.629C13.2335 11.629 13.0488 11.4441 13.0488 11.2136V10.8608H12.7297C12.7269 11.5323 12.6654 12.1241 12.5171 12.6249L13.3342 12.8753C13.5133 12.9294 13.6337 13.103 13.6253 13.2936L13.5637 14.4489C13.5525 14.6708 13.3706 14.8444 13.1523 14.8415H13.1299C12.9033 14.8302 12.7297 14.6338 12.7409 14.4062L12.7857 13.5725L12.1728 13.3847C11.7558 13.9794 11.0562 14.3237 9.90318 14.3237C8.74457 14.3237 8.04493 13.9794 7.62794 13.3818L6.99826 13.5753L7.04304 14.409C7.05423 14.6395 6.88072 14.833 6.65403 14.8444H6.63164C6.41336 14.8444 6.23425 14.6737 6.22025 14.4517L6.15869 13.2965C6.14749 13.1058 6.26783 12.9322 6.44974 12.8782L7.28651 12.6221C7.14099 12.1213 7.07942 11.5323 7.07662 10.8636H6.75478V11.2164C6.75478 11.4469 6.57008 11.6319 6.34339 11.6319C6.11671 11.6319 5.932 11.4469 5.932 11.2164V10.4482C5.932 10.2177 6.11671 10.0327 6.34339 10.0327H7.10181C7.14099 9.512 7.24173 9.00836 7.44883 8.573L6.44974 8.26285C6.26783 8.20879 6.14749 8.03521 6.15869 7.84457L6.22025 6.68931C6.23145 6.45883 6.43574 6.26818 6.65403 6.29664C6.88072 6.30802 7.05423 6.50436 7.04304 6.73199L6.99826 7.56287L7.74828 7.79335C7.71469 7.64823 7.6979 7.50027 7.6951 7.3523C7.6951 6.36778 8.28001 6.00071 8.89289 5.86413L8.82013 5.79015C8.66061 5.6308 8.66061 5.36902 8.81733 5.20683L8.82013 5.20398C8.98245 5.04179 9.23992 5.04179 9.40224 5.20398L9.78004 5.58243C9.83322 5.63649 9.8668 5.70763 9.88079 5.78161H9.88919C9.90318 5.70478 9.93956 5.63649 9.99273 5.58243L10.3677 5.20398C10.5301 5.04179 10.7875 5.04179 10.9498 5.20398C11.1094 5.36333 11.1122 5.62511 10.9554 5.7873L10.9498 5.79299L10.8827 5.86128C11.5068 5.99217 12.1113 6.35355 12.1113 7.35515C12.1113 7.51165 12.0917 7.65392 12.0609 7.78766L12.7829 7.56571L12.7381 6.73484C12.7269 6.50436 12.9005 6.31087 13.1271 6.29948C13.3622 6.27103 13.5497 6.46168 13.5609 6.69216L13.6225 7.84741C13.6337 8.03806 13.5133 8.21163 13.3314 8.26569L12.3519 8.56447C12.5618 8.99982 12.6626 9.50916 12.7018 10.0299H13.4602ZM9.8696 9.1734C10.0963 9.1734 10.281 9.35835 10.281 9.58883V12.4627C10.281 12.6932 10.0963 12.8782 9.8696 12.8782C9.64291 12.8782 9.45821 12.6932 9.45821 12.4627V9.58883C9.45821 9.35835 9.64291 9.17055 9.8696 9.1734Z" fill="#86888C"/>
</svg>
