<svg width="40" height="40" viewBox="0 0 40 40" fill="none" xmlns="http://www.w3.org/2000/svg">
<path fill-rule="evenodd" clip-rule="evenodd" d="M16.2207 29.1661C23.2429 29.1661 28.9553 23.4092 28.9553 16.3309C28.9553 9.2525 23.2429 3.49557 16.2207 3.49557C9.1985 3.49557 3.48604 9.2525 3.48604 16.3309C3.48604 23.4092 9.1985 29.1713 16.2207 29.1661ZM37.1815 36.7208C37.4686 37.0076 37.4736 37.4789 37.1915 37.7708L37.1815 37.781C36.8943 38.073 36.4258 38.073 36.1337 37.781L25.5651 27.1174C22.9759 29.4069 19.6562 30.6668 16.2207 30.6617C8.36732 30.6617 2 24.2441 2 16.3309C2 8.41764 8.36732 2 16.2207 2C24.0741 2 30.4363 8.41764 30.4363 16.3309C30.4363 19.952 29.0712 23.4399 26.623 26.0726L37.1815 36.7208ZM16.2207 22.687C19.0215 22.687 19.8325 21.6063 19.8325 17.8623C19.8325 15.5216 19.4849 14.2565 18.6689 13.6368C18.1399 13.2373 17.339 13.0426 16.2257 13.0426C15.0973 13.0426 14.2913 13.2424 13.7675 13.647C12.9615 14.2719 12.6189 15.5319 12.6189 17.8623C12.6088 21.6063 13.4249 22.687 16.2207 22.687ZM16.2257 10.2973C13.7322 10.2973 13.7322 10.9171 13.7322 11.6341C13.7322 11.7622 13.7423 11.8749 13.7574 11.9722C14.4274 11.6956 15.2333 11.5471 16.2156 11.5471C17.203 11.5471 18.014 11.6956 18.689 11.9722C18.7041 11.8749 18.7142 11.7622 18.7142 11.629C18.7193 10.9171 18.7193 10.2973 16.2257 10.2973ZM22.6283 16.4538C23.0363 16.4538 23.3688 16.7867 23.3688 17.2016V18.5845C23.3688 18.9993 23.0363 19.3322 22.6283 19.3322C22.2203 19.3322 21.8878 18.9993 21.8878 18.5845V17.9494H21.3135C21.3085 19.1581 21.1977 20.2234 20.9307 21.1249L22.4016 21.5756C22.724 21.6729 22.9406 21.9853 22.9255 22.3285L22.8147 24.408C22.7945 24.8075 22.4671 25.1199 22.0742 25.1148H22.0339C21.6259 25.0943 21.3135 24.7409 21.3337 24.3311L21.4143 22.8304L20.3111 22.4924C19.5605 23.5629 18.3011 24.1826 16.2257 24.1826C14.1402 24.1826 12.8809 23.5629 12.1303 22.4873L10.9969 22.8356L11.0775 24.3363C11.0976 24.7511 10.7853 25.0994 10.3773 25.1199H10.337C9.94404 25.1199 9.62164 24.8126 9.59646 24.4131L9.48563 22.3336C9.46548 21.9905 9.68209 21.678 10.0095 21.5807L11.5157 21.1198C11.2538 20.2183 11.1429 19.1581 11.1379 17.9545H10.5586V18.5896C10.5586 19.0044 10.2261 19.3374 9.8181 19.3374C9.41007 19.3374 9.0776 19.0044 9.0776 18.5896V17.2067C9.0776 16.7918 9.41007 16.4589 9.8181 16.4589H11.1832C11.2538 15.5216 11.4351 14.615 11.8079 13.8314L10.0095 13.2731C9.68209 13.1758 9.46548 12.8634 9.48563 12.5202L9.59646 10.4408C9.61661 10.0259 9.98434 9.68273 10.3773 9.73395C10.7853 9.75444 11.0976 10.1078 11.0775 10.5176L10.9969 12.0132L12.3469 12.428C12.2864 12.1668 12.2562 11.9005 12.2512 11.6341C12.2512 9.862 13.304 9.20128 14.4072 8.95543L14.2762 8.82227C13.9891 8.53544 13.9891 8.06424 14.2712 7.77229L14.2762 7.76717C14.5684 7.47523 15.0319 7.47523 15.324 7.76717L16.0041 8.44837C16.0998 8.54569 16.1602 8.67373 16.1854 8.8069H16.2005C16.2257 8.66861 16.2912 8.54569 16.3869 8.44837L17.0619 7.76717C17.3541 7.47523 17.8176 7.47523 18.1097 7.76717C18.3969 8.05399 18.4019 8.5252 18.1198 8.81714L18.1097 8.82739L17.9888 8.95031C19.1122 9.18591 20.2003 9.83639 20.2003 11.6393C20.2003 11.921 20.165 12.1771 20.1096 12.4178L21.4092 12.0183L21.3286 10.5227C21.3085 10.1078 21.6208 9.75956 22.0289 9.73907C22.452 9.68785 22.7895 10.031 22.8097 10.4459L22.9205 12.5253C22.9406 12.8685 22.724 13.1809 22.3966 13.2782L20.6335 13.816C21.0113 14.5997 21.1926 15.5165 21.2632 16.4538H22.6283ZM16.1653 14.9121C16.5733 14.9121 16.9058 15.245 16.9058 15.6599V20.8329C16.9058 21.2478 16.5733 21.5807 16.1653 21.5807C15.7572 21.5807 15.4248 21.2478 15.4248 20.8329V15.6599C15.4248 15.245 15.7572 14.907 16.1653 14.9121Z" fill="#86888C"/>
</svg>
