<svg width="24" height="24" viewBox="0 0 24 24" fill="none" xmlns="http://www.w3.org/2000/svg">
<path fill-rule="evenodd" clip-rule="evenodd" d="M7.02305 19.7782C7.75131 19.5393 8.88921 18.8736 8.34017 17.1184C8.01587 16.0601 7.39856 15.5481 6.45978 15.5481C6.13548 15.5481 5.86238 15.6078 5.72299 15.642C5.64618 15.6676 5.56084 15.6932 5.48403 15.7188C4.60215 16.0004 3.66338 16.6831 4.18397 18.3729C4.51681 19.4397 5.12275 19.9603 6.03876 19.9603C6.3716 19.9603 6.64469 19.9006 6.78124 19.8579C6.8609 19.8294 6.95477 19.8038 7.02305 19.7782ZM9.956 16.1625C10.1779 16.0943 10.4168 16.2223 10.4851 16.4442C10.5534 16.6746 10.4254 16.9136 10.2035 16.9818L9.26187 17.272C9.38989 17.895 9.34722 18.4071 9.21067 18.8252L9.99013 19.2434C10.2035 19.3458 10.2803 19.6104 10.1694 19.8152C10.0925 19.9603 9.94746 20.0456 9.791 20.0456C9.72273 20.0456 9.65445 20.0286 9.59471 19.9944L8.79818 19.5763C8.4056 20.0627 7.89354 20.3529 7.54079 20.498L7.83949 21.4453C7.90777 21.6672 7.77975 21.9061 7.55786 21.9744C7.51519 21.9915 7.47252 22 7.42985 22C7.25063 22 7.07994 21.8805 7.0202 21.6928L6.73004 20.7455C6.54228 20.7796 6.31186 20.8137 6.03876 20.8137C5.77135 20.8137 5.48119 20.7796 5.18249 20.6857L4.75577 21.4794C4.67896 21.6245 4.53388 21.7098 4.37742 21.7098C4.30914 21.7098 4.24087 21.6928 4.18113 21.6586C3.96777 21.5477 3.88812 21.2917 4.00191 21.0868L4.42862 20.2846C4.07872 20.0115 3.7601 19.6104 3.52114 19.0386L2.54824 19.3373C2.50556 19.3458 2.46289 19.3544 2.42022 19.3544C2.241 19.3544 2.07032 19.2349 2.01911 19.0557C1.95084 18.8338 2.07032 18.5863 2.30074 18.518L3.26796 18.2193C3.13141 17.6048 3.16555 17.0928 3.3021 16.6746L2.5141 16.265C2.30074 16.154 2.22393 15.8895 2.33488 15.6846C2.44582 15.4713 2.70185 15.3945 2.90668 15.5054L3.69467 15.9236C4.07872 15.4286 4.60215 15.147 4.95206 15.0019L4.66189 14.0546C4.59362 13.8327 4.72163 13.5937 4.94353 13.5255C5.16542 13.4486 5.40438 13.5767 5.48119 13.8071L5.77135 14.7629C5.95911 14.7203 6.18953 14.6947 6.45694 14.6947C6.73004 14.6947 7.0202 14.7288 7.32175 14.8227L7.73993 14.0204C7.85087 13.8071 8.11544 13.7303 8.3231 13.8412C8.52793 13.9522 8.61327 14.2082 8.50232 14.413L8.08414 15.2067C8.43405 15.4798 8.7612 15.8809 9.00016 16.4612L9.956 16.1625ZM18.8772 15.7529C20.0321 14.6008 20.6637 13.1585 15.7565 8.2598C12.7552 5.25573 11.0427 4.33403 9.90479 4.33403C9.18507 4.33403 8.69008 4.701 8.24629 5.14478C7.09132 6.30545 6.45125 7.74774 11.3585 12.6436C16.2685 17.5423 17.7137 16.9107 18.8772 15.7529ZM21.6906 14.4614C21.9125 14.5382 22.0405 14.7771 21.9723 14.999C21.9125 15.1868 21.7418 15.2977 21.5626 15.2977C21.52 15.2977 21.4773 15.2977 21.4346 15.2807L20.3906 14.9564C20.2626 15.3233 20.0663 15.6818 19.7761 16.0232L20.5641 16.8083C20.7348 16.9705 20.7348 17.2436 20.5641 17.4057C20.4788 17.4911 20.3764 17.5337 20.2654 17.5337C20.1545 17.5337 20.0435 17.4911 19.9582 17.4057L19.1702 16.6206C18.826 16.9107 18.4761 17.1155 18.1091 17.2436L18.4334 18.2847C18.5017 18.5066 18.3822 18.7456 18.1518 18.8139C18.1091 18.8309 18.0664 18.8395 18.0237 18.8395C17.8445 18.8395 17.6738 18.72 17.6198 18.5408L17.2613 17.4057C17.2443 17.4057 17.2272 17.4142 17.2101 17.4142C16.7066 17.4142 16.1661 17.2692 15.5772 17.0046L15.4663 17.9348C15.4322 18.1482 15.2529 18.3103 15.0396 18.3103C15.0225 18.3103 15.0054 18.3103 14.9884 18.3018C14.7494 18.2762 14.5873 18.0628 14.6129 17.8239L14.775 16.5864C14.3142 16.3133 13.8277 15.9634 13.3043 15.5538L12.7581 16.6462C12.6813 16.7912 12.5277 16.8766 12.374 16.8766C12.3058 16.8766 12.246 16.868 12.1778 16.8339C11.9729 16.7315 11.8876 16.4755 11.99 16.2621L12.6329 14.9905C12.1379 14.5638 11.6173 14.0773 11.0598 13.5311L10.0584 14.5211C9.97306 14.6065 9.87065 14.6491 9.75971 14.6491C9.64876 14.6491 9.53782 14.6065 9.45247 14.5211C9.29032 14.359 9.29032 14.0859 9.45247 13.9237L10.4538 12.9252C9.90764 12.3705 9.41834 11.8414 8.99162 11.3464L7.71717 11.9864C7.65743 12.0206 7.58915 12.0376 7.52941 12.0376C7.36726 12.0376 7.21934 11.9523 7.14537 11.7987C7.04296 11.5853 7.11977 11.3293 7.33313 11.2269L8.42836 10.6807C8.01871 10.1601 7.66596 9.66511 7.39287 9.21279L6.15255 9.36641C6.12695 9.36641 6.10988 9.37495 6.09281 9.37495C5.87945 9.37495 5.70023 9.21279 5.67463 8.99944C5.64049 8.76048 5.81118 8.54712 6.0416 8.52152L6.97469 8.40204C6.71012 7.7961 6.59064 7.24137 6.59918 6.72932L5.43567 6.37088C5.21378 6.3026 5.08292 6.06364 5.15973 5.83322C5.228 5.61132 5.46981 5.48331 5.6917 5.55158L6.76133 5.88442C6.88934 5.52598 7.09417 5.17608 7.38433 4.84324L6.57073 4.03248C6.40004 3.8618 6.40004 3.59723 6.57073 3.42655C6.73288 3.2644 7.00598 3.2644 7.16813 3.42655L7.98173 4.2373C8.31457 3.96421 8.66732 3.76792 9.02576 3.6399L8.69292 2.55605C8.61611 2.33416 8.74413 2.0952 8.96602 2.01839C9.19644 1.95012 9.4354 2.07813 9.50368 2.30002L9.8735 3.49482C10.3856 3.48629 10.9346 3.60577 11.5405 3.87033L11.66 2.90596C11.6941 2.667 11.9075 2.50484 12.1379 2.53898C12.3684 2.56458 12.5419 2.77794 12.5077 3.00837L12.3456 4.29704C12.7979 4.56161 13.2844 4.91151 13.8078 5.32116L14.3711 4.19463C14.4735 3.98128 14.738 3.89593 14.9429 4.00688C15.1562 4.10929 15.2416 4.36532 15.1306 4.57868L14.482 5.88442C14.9685 6.3026 15.4891 6.78906 16.0466 7.33525L17.0736 6.31114C17.2357 6.14898 17.5088 6.14898 17.6795 6.31114C17.8417 6.48182 17.8417 6.74638 17.6795 6.91707L16.6526 7.94118C17.1988 8.48738 17.6795 9.00797 18.1062 9.50296L19.4148 8.84582C19.6282 8.74341 19.8842 8.82875 19.9866 9.03357C20.0976 9.24693 20.0122 9.50296 19.7989 9.60537L18.6695 10.1772C19.0877 10.6892 19.4319 11.1757 19.705 11.628L20.988 11.4658C21.2184 11.4317 21.4318 11.6024 21.4574 11.8414C21.4915 12.0718 21.3208 12.2851 21.0904 12.3193L20.1402 12.4302C20.4133 13.0362 20.5414 13.5909 20.5328 14.1029L21.6906 14.4614Z" fill="#86888C"/>
</svg>
