<svg width="28" height="28" viewBox="0 0 28 28" fill="none" xmlns="http://www.w3.org/2000/svg">
<path fill-rule="evenodd" clip-rule="evenodd" d="M8.02766 23.3339C8.90157 23.0471 10.2671 22.2483 9.60821 20.1421C9.21904 18.8722 8.47827 18.2577 7.35174 18.2577C6.96258 18.2577 6.63486 18.3294 6.46759 18.3703C6.37542 18.4011 6.27301 18.4318 6.18084 18.4625C5.12258 18.8005 3.99606 19.6198 4.62077 21.6475C5.02017 22.9277 5.74729 23.5524 6.84651 23.5524C7.24592 23.5524 7.57363 23.4807 7.73749 23.4295C7.83307 23.3953 7.94573 23.3646 8.02766 23.3339ZM11.5472 18.9951C11.8135 18.9131 12.1002 19.0667 12.1821 19.333C12.2641 19.6095 12.1105 19.8963 11.8442 19.9782L10.7142 20.3264C10.8679 21.074 10.8167 21.6885 10.6528 22.1903L11.5882 22.6921C11.8442 22.815 11.9364 23.1325 11.8032 23.3783C11.7111 23.5524 11.537 23.6548 11.3492 23.6548C11.2673 23.6548 11.1853 23.6343 11.1137 23.5933L10.1578 23.0915C9.68672 23.6753 9.07225 24.0235 8.64895 24.1976L9.00739 25.3343C9.08932 25.6006 8.9357 25.8873 8.66943 25.9693C8.61823 25.9898 8.56702 26 8.51582 26C8.30075 26 8.09593 25.8566 8.02424 25.6313L7.67604 24.4946C7.45074 24.5355 7.17423 24.5765 6.84651 24.5765C6.52562 24.5765 6.17742 24.5355 5.81898 24.4229L5.30693 25.3753C5.21476 25.5494 5.04066 25.6518 4.8529 25.6518C4.77097 25.6518 4.68904 25.6313 4.61736 25.5904C4.36133 25.4572 4.26574 25.15 4.40229 24.9042L4.91435 23.9415C4.49446 23.6138 4.11213 23.1325 3.82537 22.4463L2.65788 22.8048C2.60668 22.815 2.55547 22.8252 2.50427 22.8252C2.2892 22.8252 2.08438 22.6819 2.02293 22.4668C1.941 22.2005 2.08438 21.9035 2.36089 21.8216L3.52155 21.4632C3.35769 20.7258 3.39866 20.1113 3.56252 19.6095L2.61692 19.118C2.36089 18.9848 2.26872 18.6673 2.40185 18.4216C2.53499 18.1655 2.84222 18.0734 3.08801 18.2065L4.03361 18.7083C4.49446 18.1143 5.12259 17.7764 5.54247 17.6023L5.19427 16.4655C5.11234 16.1992 5.26596 15.9125 5.53223 15.8305C5.7985 15.7384 6.08525 15.892 6.17742 16.1685L6.52562 17.3155C6.75093 17.2643 7.02744 17.2336 7.34833 17.2336C7.67604 17.2336 8.02424 17.2745 8.3861 17.3872L8.88791 16.4245C9.02105 16.1685 9.33852 16.0763 9.58772 16.2095C9.83351 16.3426 9.93592 16.6498 9.80279 16.8956L9.30097 17.8481C9.72086 18.1758 10.1134 18.6571 10.4002 19.3535L11.5472 18.9951ZM22.2526 18.5035C23.6386 17.1209 24.3964 15.3902 18.5078 9.51176C14.9063 5.90687 12.8512 4.80083 11.4857 4.80083C10.6221 4.80083 10.0281 5.2412 9.49555 5.77374C8.10959 7.16654 7.3415 8.89729 13.2302 14.7723C19.1222 20.6507 20.8564 19.8929 22.2526 18.5035ZM25.6288 16.9537C25.895 17.0458 26.0487 17.3326 25.9667 17.5988C25.895 17.8242 25.6902 17.9573 25.4752 17.9573C25.4239 17.9573 25.3727 17.9573 25.3215 17.9368L24.0687 17.5476C23.9151 17.988 23.6795 18.4181 23.3313 18.8278L24.2769 19.77C24.4818 19.9646 24.4818 20.2923 24.2769 20.4869C24.1745 20.5893 24.0516 20.6405 23.9185 20.6405C23.7854 20.6405 23.6522 20.5893 23.5498 20.4869L22.6042 19.5447C22.1912 19.8929 21.7713 20.1387 21.3309 20.2923L21.7201 21.5417C21.802 21.808 21.6586 22.0947 21.3821 22.1766C21.3309 22.1971 21.2797 22.2074 21.2285 22.2074C21.0134 22.2074 20.8086 22.064 20.7437 21.8489L20.3136 20.4869C20.2931 20.4869 20.2727 20.4971 20.2522 20.4971C19.6479 20.4971 18.9993 20.323 18.2927 20.0055L18.1596 21.1218C18.1186 21.3778 17.9035 21.5724 17.6475 21.5724C17.627 21.5724 17.6065 21.5724 17.5861 21.5622C17.2993 21.5314 17.1047 21.2754 17.1354 20.9887L17.33 19.5037C16.777 19.176 16.1933 18.7561 15.5651 18.2645L14.9097 19.5754C14.8175 19.7495 14.6332 19.8519 14.4489 19.8519C14.3669 19.8519 14.2952 19.8417 14.2133 19.8007C13.9675 19.6778 13.8651 19.3706 13.988 19.1145L14.7595 17.5886C14.1655 17.0766 13.5408 16.4928 12.8717 15.8374L11.6701 17.0253C11.5677 17.1278 11.4448 17.179 11.3116 17.179C11.1785 17.179 11.0454 17.1278 10.943 17.0253C10.7484 16.8308 10.7484 16.503 10.943 16.3085L12.1446 15.1103C11.4892 14.4446 10.902 13.8096 10.3899 13.2156L8.8606 13.9837C8.78891 14.0247 8.70699 14.0452 8.6353 14.0452C8.44072 14.0452 8.2632 13.9428 8.17445 13.7584C8.05155 13.5024 8.14372 13.1952 8.39975 13.0723L9.71403 12.4168C9.22246 11.7921 8.79916 11.1981 8.47144 10.6554L6.98306 10.8397C6.95234 10.8397 6.93185 10.8499 6.91137 10.8499C6.65534 10.8499 6.44028 10.6554 6.40956 10.3993C6.36859 10.1126 6.57341 9.85654 6.84993 9.82582L7.96962 9.68244C7.65215 8.95532 7.50877 8.28965 7.51901 7.67518L6.1228 7.24505C5.85653 7.16312 5.6995 6.87637 5.79167 6.59986C5.8736 6.33359 6.16377 6.17997 6.43004 6.2619L7.71359 6.66131C7.86721 6.23118 8.113 5.81129 8.4612 5.41189L7.48488 4.43898C7.28005 4.23416 7.28005 3.91668 7.48488 3.71186C7.67946 3.51727 8.00717 3.51727 8.20176 3.71186L9.17808 4.68477C9.57748 4.35705 10.0008 4.1215 10.4309 3.96789L10.0315 2.66726C9.93934 2.40099 10.093 2.11424 10.3592 2.02207C10.6357 1.94014 10.9225 2.09376 11.0044 2.36003L11.4482 3.79379C12.0627 3.78354 12.7215 3.92692 13.4486 4.2444L13.592 3.08715C13.633 2.80039 13.889 2.60581 14.1655 2.64678C14.442 2.6775 14.6503 2.93353 14.6093 3.21004L14.4147 4.75645C14.9575 5.07393 15.5412 5.49382 16.1694 5.98539L16.8453 4.63356C16.9682 4.37753 17.2857 4.27512 17.5314 4.40825C17.7875 4.53115 17.8899 4.83838 17.7567 5.09441L16.9784 6.66131C17.5622 7.16312 18.1869 7.74687 18.856 8.4023L20.0883 7.17336C20.2829 6.97878 20.6106 6.97878 20.8154 7.17336C21.01 7.37819 21.01 7.69566 20.8154 7.90048L19.5831 9.12942C20.2385 9.78485 20.8154 10.4096 21.3275 11.0036L22.8978 10.215C23.1538 10.0921 23.4611 10.1945 23.584 10.4403C23.7171 10.6963 23.6147 11.0036 23.3587 11.1264L22.0034 11.8126C22.5052 12.4271 22.9183 13.0108 23.246 13.5536L24.7856 13.359C25.0621 13.3181 25.3181 13.5229 25.3488 13.8096C25.3898 14.0861 25.185 14.3422 24.9085 14.3831L23.7683 14.5163C24.096 15.2434 24.2496 15.9091 24.2394 16.5235L25.6288 16.9537Z" fill="#86888C"/>
</svg>
