<svg width="20" height="20" viewBox="0 0 20 20" fill="none" xmlns="http://www.w3.org/2000/svg">
<path fill-rule="evenodd" clip-rule="evenodd" d="M6.01844 16.2226C6.60104 16.0314 7.51137 15.4989 7.07214 14.0947C6.8127 13.2481 6.31884 12.8385 5.56783 12.8385C5.30838 12.8385 5.08991 12.8863 4.97839 12.9136C4.91695 12.934 4.84867 12.9545 4.78722 12.975C4.08172 13.2003 3.33071 13.7465 3.74718 15.0983C4.01345 15.9518 4.4982 16.3682 5.23101 16.3682C5.49728 16.3682 5.71575 16.3205 5.82499 16.2863C5.88872 16.2636 5.96382 16.2431 6.01844 16.2226ZM8.3648 13.33C8.54231 13.2754 8.73348 13.3778 8.7881 13.5553C8.84272 13.7397 8.74031 13.9309 8.56279 13.9855L7.8095 14.2176C7.91191 14.716 7.87777 15.1257 7.76854 15.4602L8.39211 15.7947C8.56279 15.8767 8.62424 16.0883 8.53548 16.2522C8.47404 16.3682 8.35797 16.4365 8.2328 16.4365C8.17818 16.4365 8.12356 16.4229 8.07577 16.3956L7.43854 16.061C7.12448 16.4502 6.71484 16.6823 6.43263 16.7984L6.6716 17.5562C6.72621 17.7337 6.6238 17.9249 6.44629 17.9795C6.41215 17.9932 6.37802 18 6.34388 18C6.2005 18 6.06395 17.9044 6.01616 17.7542L5.78403 16.9964C5.63383 17.0237 5.44948 17.051 5.23101 17.051C5.01708 17.051 4.78495 17.0237 4.54599 16.9486L4.20462 17.5835C4.14317 17.6996 4.0271 17.7679 3.90193 17.7679C3.84731 17.7679 3.7927 17.7542 3.7449 17.7269C3.57422 17.6381 3.51049 17.4333 3.60153 17.2695L3.9429 16.6277C3.66297 16.4092 3.40808 16.0883 3.21692 15.6309L2.43859 15.8698C2.40445 15.8767 2.37031 15.8835 2.33618 15.8835C2.1928 15.8835 2.05625 15.7879 2.01529 15.6445C1.96067 15.467 2.05625 15.269 2.24059 15.2144L3.01437 14.9754C2.90513 14.4839 2.93244 14.0742 3.04168 13.7397L2.41128 13.412C2.24059 13.3232 2.17915 13.1116 2.2679 12.9477C2.35666 12.777 2.56148 12.7156 2.72534 12.8043L3.35574 13.1389C3.66297 12.7429 4.08172 12.5176 4.36165 12.4015L4.12952 11.6437C4.0749 11.4662 4.17731 11.275 4.35482 11.2204C4.53233 11.1589 4.7235 11.2613 4.78495 11.4457L5.01708 12.2103C5.16728 12.1762 5.35162 12.1557 5.56555 12.1557C5.78403 12.1557 6.01616 12.183 6.2574 12.2581L6.59194 11.6164C6.6807 11.4457 6.89235 11.3842 7.05848 11.473C7.22234 11.5617 7.29062 11.7666 7.20186 11.9304L6.86731 12.5654C7.14724 12.7838 7.40896 13.1047 7.60013 13.569L8.3648 13.33ZM15.5017 13.0023C16.4257 12.0806 16.9309 10.9268 13.0052 7.00784C10.6042 4.60458 9.23416 3.86722 8.32383 3.86722C7.74805 3.86722 7.35206 4.1608 6.99704 4.51583C6.07306 5.44436 5.561 6.59819 9.48677 10.5149C13.4148 14.4338 14.5709 13.9286 15.5017 13.0023ZM17.7525 11.9691C17.93 12.0306 18.0324 12.2217 17.9778 12.3992C17.93 12.5494 17.7935 12.6382 17.6501 12.6382C17.616 12.6382 17.5818 12.6382 17.5477 12.6245L16.7125 12.3651C16.6101 12.6587 16.453 12.9454 16.2209 13.2185L16.8513 13.8466C16.9878 13.9764 16.9878 14.1948 16.8513 14.3246C16.783 14.3928 16.7011 14.427 16.6123 14.427C16.5236 14.427 16.4348 14.3928 16.3665 14.3246L15.7361 13.6964C15.4608 13.9286 15.1808 14.0924 14.8873 14.1948L15.1467 15.0278C15.2013 15.2053 15.1057 15.3965 14.9214 15.4511C14.8873 15.4647 14.8531 15.4716 14.819 15.4716C14.6756 15.4716 14.5391 15.376 14.4958 15.2326L14.2091 14.3246C14.1954 14.3246 14.1818 14.3314 14.1681 14.3314C13.7653 14.3314 13.3329 14.2153 12.8618 14.0037L12.773 14.7479C12.7457 14.9186 12.6024 15.0483 12.4317 15.0483C12.418 15.0483 12.4044 15.0483 12.3907 15.0414C12.1995 15.021 12.0698 14.8503 12.0903 14.6591L12.22 13.6691C11.8513 13.4507 11.4622 13.1707 11.0434 12.843L10.6065 13.7169C10.545 13.833 10.4221 13.9013 10.2992 13.9013C10.2446 13.9013 10.1968 13.8944 10.1422 13.8671C9.97835 13.7852 9.91007 13.5804 9.992 13.4097L10.5063 12.3924C10.1103 12.051 9.69387 11.6619 9.24781 11.2249L8.44673 12.0169C8.37845 12.0852 8.29652 12.1193 8.20777 12.1193C8.11901 12.1193 8.03025 12.0852 7.96198 12.0169C7.83226 11.8872 7.83226 11.6687 7.96198 11.539L8.76306 10.7402C8.32611 10.2964 7.93467 9.87308 7.5933 9.47709L6.57373 9.98915C6.52594 10.0165 6.47132 10.0301 6.42353 10.0301C6.29381 10.0301 6.17547 9.96184 6.1163 9.83895C6.03437 9.66826 6.09581 9.46344 6.2665 9.38151L7.14269 8.94455C6.81497 8.52808 6.53277 8.13209 6.31429 7.77023L5.32204 7.89313C5.30156 7.89313 5.2879 7.89996 5.27425 7.89996C5.10356 7.89996 4.96019 7.77023 4.9397 7.59955C4.91239 7.40838 5.04894 7.2377 5.23328 7.21721L5.97975 7.12163C5.7681 6.63688 5.67251 6.1931 5.67934 5.78345L4.74854 5.4967C4.57102 5.44208 4.46634 5.25091 4.52778 5.06657C4.5824 4.88906 4.77585 4.78665 4.95336 4.84127L5.80906 5.10754C5.91147 4.82079 6.07533 4.54086 6.30747 4.27459L5.65658 3.62599C5.52004 3.48944 5.52004 3.27779 5.65658 3.14124C5.7863 3.01152 6.00478 3.01152 6.1345 3.14124L6.78539 3.78984C7.05166 3.57137 7.33386 3.41433 7.62061 3.31192L7.35434 2.44484C7.29289 2.26733 7.3953 2.07616 7.57282 2.01471C7.75716 1.96009 7.94832 2.0625 8.00294 2.24002L8.2988 3.19586C8.70844 3.18903 9.14768 3.28461 9.63242 3.49626L9.72801 2.72476C9.75532 2.5336 9.926 2.40388 10.1103 2.43118C10.2947 2.45167 10.4335 2.62235 10.4062 2.80669L10.2765 3.83764C10.6383 4.04929 11.0275 4.32921 11.4462 4.65693L11.8969 3.75571C11.9788 3.58502 12.1904 3.51675 12.3543 3.6055C12.525 3.68743 12.5933 3.89225 12.5045 4.06294L11.9856 5.10754C12.3748 5.44208 12.7912 5.83124 13.2373 6.2682L14.0589 5.44891C14.1886 5.31919 14.4071 5.31919 14.5436 5.44891C14.6733 5.58546 14.6733 5.79711 14.5436 5.93366L13.7221 6.75295C14.159 7.1899 14.5436 7.60638 14.885 8.00237L15.9319 7.47666C16.1026 7.39473 16.3074 7.463 16.3893 7.62686C16.4781 7.79754 16.4098 8.00237 16.2391 8.0843L15.3356 8.54173C15.6701 8.95138 15.9455 9.34054 16.164 9.7024L17.1904 9.57268C17.3747 9.54537 17.5454 9.68192 17.5659 9.87308C17.5932 10.0574 17.4567 10.2281 17.2723 10.2554L16.5122 10.3442C16.7307 10.8289 16.8331 11.2727 16.8263 11.6824L17.7525 11.9691Z" fill="#86888C"/>
</svg>
