<svg width="40" height="40" viewBox="0 0 40 40" fill="none" xmlns="http://www.w3.org/2000/svg">
<path fill-rule="evenodd" clip-rule="evenodd" d="M11.0415 34.0008C12.3524 33.5707 14.4006 32.3725 13.4123 29.2131C12.8286 27.3082 11.7174 26.3865 10.0276 26.3865C9.44387 26.3865 8.95229 26.4941 8.70138 26.5555C8.56313 26.6016 8.40951 26.6477 8.27125 26.6938C6.68388 27.2007 4.99409 28.4297 5.93115 31.4713C6.53026 33.3915 7.62094 34.3285 9.26977 34.3285C9.86887 34.3285 10.3604 34.221 10.6062 34.1442C10.7496 34.093 10.9186 34.0469 11.0415 34.0008ZM16.3208 27.4926C16.7202 27.3697 17.1503 27.6001 17.2732 27.9995C17.3961 28.4143 17.1657 28.8444 16.7663 28.9673L15.0714 29.4896C15.3018 30.611 15.225 31.5327 14.9792 32.2854L16.3822 33.0382C16.7663 33.2225 16.9045 33.6987 16.7048 34.0674C16.5666 34.3285 16.3054 34.4822 16.0238 34.4822C15.9009 34.4822 15.778 34.4514 15.6705 34.39L14.2367 33.6373C13.5301 34.5129 12.6084 35.0352 11.9734 35.2963L12.5111 37.0015C12.634 37.4009 12.4036 37.831 12.0042 37.9539C11.9273 37.9846 11.8505 38 11.7737 38C11.4511 38 11.1439 37.7849 11.0364 37.447L10.5141 35.7418C10.1761 35.8033 9.76134 35.8647 9.26977 35.8647C8.78843 35.8647 8.26613 35.8033 7.72847 35.6343L6.96039 37.0629C6.82213 37.3241 6.56098 37.4777 6.27935 37.4777C6.15646 37.4777 6.03356 37.447 5.92603 37.3855C5.54199 37.1858 5.39861 36.725 5.60344 36.3563L6.37152 34.9123C5.74169 34.4207 5.16819 33.6987 4.73806 32.6695L2.98682 33.2071C2.91002 33.2225 2.83321 33.2379 2.7564 33.2379C2.4338 33.2379 2.12657 33.0228 2.0344 32.7002C1.9115 32.3008 2.12657 31.8553 2.54133 31.7324L4.28233 31.1948C4.03654 30.0887 4.09799 29.167 4.34378 28.4143L2.92538 27.6769C2.54133 27.4772 2.40308 27.001 2.60278 26.6323C2.80248 26.2483 3.26333 26.11 3.63202 26.3097L5.05041 27.0625C5.74169 26.1715 6.68388 25.6645 7.31371 25.4034L6.79141 23.6982C6.66852 23.2988 6.89894 22.8687 7.29835 22.7458C7.69775 22.6076 8.12788 22.838 8.26613 23.2528L8.78843 24.9733C9.12639 24.8965 9.54116 24.8504 10.0225 24.8504C10.5141 24.8504 11.0364 24.9118 11.5791 25.0808L12.3319 23.6368C12.5316 23.2528 13.0078 23.1145 13.3816 23.3142C13.7503 23.5139 13.9039 23.9748 13.7042 24.3434L12.9515 25.7721C13.5813 26.2636 14.1702 26.9857 14.6003 28.0302L16.3208 27.4926ZM32.3789 26.7552C34.4579 24.6814 35.5946 22.0853 26.7616 13.2676C21.3594 7.86031 18.2769 6.20125 16.2286 6.20125C14.9331 6.20125 14.0421 6.8618 13.2433 7.66061C11.1644 9.7498 10.0122 12.3459 18.8452 21.1584C27.6833 29.9761 30.2846 28.8393 32.3789 26.7552ZM37.4432 24.4305C37.8426 24.5687 38.073 24.9989 37.9501 25.3983C37.8426 25.7362 37.5353 25.9359 37.2127 25.9359C37.1359 25.9359 37.0591 25.9359 36.9823 25.9052L35.1031 25.3215C34.8726 25.982 34.5193 26.6272 33.997 27.2417L35.4154 28.655C35.7226 28.9468 35.7226 29.4384 35.4154 29.7303C35.2618 29.8839 35.0774 29.9607 34.8777 29.9607C34.678 29.9607 34.4783 29.8839 34.3247 29.7303L32.9063 28.317C32.2867 28.8393 31.6569 29.208 30.9964 29.4384L31.5801 31.3125C31.703 31.7119 31.4879 32.1421 31.0732 32.265C30.9964 32.2957 30.9195 32.311 30.8427 32.311C30.5201 32.311 30.2129 32.096 30.1156 31.7734L29.4704 29.7303C29.4397 29.7303 29.409 29.7456 29.3783 29.7456C28.4719 29.7456 27.499 29.4845 26.439 29.0083L26.2393 30.6827C26.1779 31.0667 25.8553 31.3586 25.4713 31.3586C25.4405 31.3586 25.4098 31.3586 25.3791 31.3433C24.949 31.2972 24.6571 30.9131 24.7032 30.483L24.995 28.2555C24.1655 27.764 23.2899 27.1341 22.3477 26.3968L21.3646 28.3631C21.2263 28.6242 20.9498 28.7778 20.6733 28.7778C20.5504 28.7778 20.4429 28.7625 20.32 28.701C19.9513 28.5167 19.7977 28.0559 19.982 27.6718L21.1393 25.3829C20.2483 24.6148 19.3112 23.7392 18.3076 22.7561L16.5051 24.538C16.3515 24.6916 16.1672 24.7684 15.9675 24.7684C15.7678 24.7684 15.5681 24.6916 15.4145 24.538C15.1226 24.2461 15.1226 23.7546 15.4145 23.4627L17.2169 21.6654C16.2337 20.6669 15.353 19.7144 14.5849 18.8235L12.2909 19.9756C12.1834 20.037 12.0605 20.0678 11.9529 20.0678C11.6611 20.0678 11.3948 19.9141 11.2617 19.6376C11.0773 19.2536 11.2156 18.7927 11.5996 18.6084L13.571 17.6252C12.8337 16.6882 12.1987 15.7972 11.7072 14.983L9.47459 15.2595C9.4285 15.2595 9.39778 15.2749 9.36706 15.2749C8.98301 15.2749 8.66042 14.983 8.61433 14.599C8.55289 14.1689 8.86012 13.7848 9.27489 13.7387L10.9544 13.5237C10.4782 12.433 10.2632 11.4345 10.2785 10.5128L8.18421 9.86758C7.7848 9.74468 7.54925 9.31456 7.68751 8.89979C7.8104 8.50038 8.24565 8.26996 8.64506 8.39285L10.5704 8.99196C10.8008 8.34677 11.1695 7.71694 11.6918 7.11783L10.2273 5.65847C9.92008 5.35123 9.92008 4.87502 10.2273 4.56778C10.5192 4.27591 11.0108 4.27591 11.3026 4.56778L12.7671 6.02715C13.3662 5.53557 14.0012 5.18225 14.6464 4.95183L14.0473 3.00089C13.909 2.60149 14.1394 2.17136 14.5388 2.0331C14.9536 1.91021 15.3837 2.14063 15.5066 2.54004L16.1723 4.69068C17.094 4.67532 18.0823 4.89038 19.173 5.36659L19.388 3.63072C19.4495 3.20059 19.8335 2.90872 20.2483 2.97017C20.663 3.01625 20.9754 3.40029 20.9139 3.81506L20.6221 6.13468C21.4362 6.61089 22.3119 7.24072 23.254 7.97809L24.2679 5.95034C24.4523 5.5663 24.9285 5.41268 25.2972 5.61238C25.6812 5.79672 25.8348 6.25757 25.6351 6.64162L24.4676 8.99196C25.3432 9.74468 26.2803 10.6203 27.2839 11.6034L29.1325 9.76004C29.4243 9.46817 29.9159 9.46817 30.2231 9.76004C30.515 10.0673 30.515 10.5435 30.2231 10.8507L28.3746 12.6941C29.3578 13.6773 30.2231 14.6143 30.9912 15.5053L33.3467 14.3225C33.7307 14.1381 34.1916 14.2918 34.3759 14.6604C34.5756 15.0445 34.422 15.5053 34.038 15.6897L32.0051 16.7189C32.7578 17.6406 33.3774 18.5162 33.869 19.3304L36.1784 19.0385C36.5931 18.9771 36.9772 19.2843 37.0233 19.7144C37.0847 20.1292 36.7775 20.5132 36.3627 20.5747L34.6524 20.7744C35.144 21.8651 35.3744 22.8636 35.3591 23.7853L37.4432 24.4305Z" fill="#86888C"/>
</svg>
