<svg width="20" height="20" viewBox="0 0 20 20" fill="none" xmlns="http://www.w3.org/2000/svg">
<path fill-rule="evenodd" clip-rule="evenodd" d="M8.32031 14.0738C11.4413 14.0738 13.9801 11.5152 13.9801 8.36927C13.9801 5.22333 11.4413 2.6647 8.32031 2.6647C5.19933 2.6647 2.66046 5.22333 2.66046 8.36927C2.66046 11.5152 5.19933 14.0761 8.32031 14.0738ZM17.6362 17.4315C17.7638 17.559 17.7661 17.7684 17.6407 17.8981L17.6362 17.9027C17.5086 18.0324 17.3004 18.0324 17.1705 17.9027L12.4734 13.1633C11.3226 14.1808 9.84721 14.7408 8.32031 14.7385C4.82992 14.7385 2 11.8863 2 8.36927C2 4.85228 4.82992 2 8.32031 2C11.8107 2 14.6384 4.85228 14.6384 8.36927C14.6384 9.97866 14.0316 11.5289 12.9436 12.6989L17.6362 17.4315ZM8.32031 11.1942C9.56511 11.1942 9.92557 10.7139 9.92557 9.0499C9.92557 8.0096 9.77109 7.44734 9.40839 7.1719C9.17331 6.99434 8.81733 6.90784 8.32254 6.90784C7.82104 6.90784 7.46282 6.99662 7.22998 7.17645C6.87176 7.45417 6.71952 8.01416 6.71952 9.0499C6.71504 10.7139 7.07774 11.1942 8.32031 11.1942ZM8.32254 5.68771C7.21431 5.68771 7.21431 5.96315 7.21431 6.28184C7.21431 6.33875 7.21879 6.38883 7.2255 6.43208C7.52327 6.30916 7.88149 6.24314 8.31807 6.24314C8.75688 6.24314 9.11734 6.30916 9.41735 6.43208C9.42406 6.38883 9.42854 6.33875 9.42854 6.27957C9.43078 5.96315 9.43078 5.68771 8.32254 5.68771ZM11.1681 8.4239C11.3495 8.4239 11.4972 8.57187 11.4972 8.75625V9.37087C11.4972 9.55525 11.3495 9.70322 11.1681 9.70322C10.9868 9.70322 10.839 9.55525 10.839 9.37087V9.0886H10.5838C10.5816 9.62582 10.5323 10.0993 10.4136 10.4999L11.0674 10.7003C11.2107 10.7435 11.3069 10.8824 11.3002 11.0349L11.251 11.9591C11.242 12.1367 11.0965 12.2755 10.9219 12.2732H10.904C10.7226 12.2641 10.5838 12.1071 10.5927 11.925L10.6286 11.258L10.1383 11.1077C9.80467 11.5835 9.24496 11.8589 8.32254 11.8589C7.39566 11.8589 6.83594 11.5835 6.50235 11.1055L5.99861 11.2603L6.03443 11.9272C6.04338 12.1116 5.90457 12.2664 5.72323 12.2755H5.70532C5.53068 12.2755 5.3874 12.1389 5.3762 11.9614L5.32695 11.0372C5.31799 10.8847 5.41426 10.7458 5.55979 10.7025L6.22921 10.4977C6.11279 10.097 6.06353 9.62582 6.06129 9.09088H5.80383V9.37315C5.80383 9.55753 5.65606 9.7055 5.47471 9.7055C5.29336 9.7055 5.1456 9.55753 5.1456 9.37315V8.75853C5.1456 8.57414 5.29336 8.42618 5.47471 8.42618H6.08144C6.11279 8.0096 6.19339 7.60669 6.35906 7.2584L5.55979 7.01028C5.41426 6.96703 5.31799 6.82817 5.32695 6.67565L5.3762 5.75145C5.38516 5.56706 5.5486 5.41455 5.72323 5.43731C5.90457 5.44642 6.04338 5.60349 6.03443 5.78559L5.99861 6.45029L6.59862 6.63468C6.57175 6.51858 6.55832 6.40021 6.55608 6.28184C6.55608 5.49422 7.024 5.20057 7.51432 5.0913L7.4561 5.03212C7.32849 4.90464 7.32849 4.69522 7.45387 4.56546L7.4561 4.56319C7.58596 4.43343 7.79193 4.43343 7.92179 4.56319L8.22403 4.86594C8.26657 4.90919 8.29344 4.9661 8.30463 5.02529H8.31135C8.32254 4.96383 8.35165 4.90919 8.39419 4.86594L8.6942 4.56319C8.82405 4.43343 9.03002 4.43343 9.15988 4.56319C9.28749 4.69066 9.28973 4.90009 9.16436 5.02984L9.15988 5.03439L9.10615 5.08903C9.60541 5.19374 10.089 5.48284 10.089 6.28412C10.089 6.40932 10.0733 6.52314 10.0487 6.63013L10.6263 6.45257L10.5905 5.78787C10.5816 5.60349 10.7204 5.44869 10.9017 5.43959C11.0898 5.41682 11.2398 5.56934 11.2487 5.75373L11.298 6.67793C11.3069 6.83045 11.2107 6.9693 11.0651 7.01256L10.2815 7.25157C10.4495 7.59986 10.5301 8.00733 10.5614 8.4239H11.1681ZM8.29568 7.73872C8.47703 7.73872 8.62479 7.88668 8.62479 8.07107V10.3702C8.62479 10.5546 8.47703 10.7025 8.29568 10.7025C8.11433 10.7025 7.96657 10.5546 7.96657 10.3702V8.07107C7.96657 7.88668 8.11433 7.73644 8.29568 7.73872Z" fill="#86888C"/>
</svg>
