<svg width="20" height="20" viewBox="0 0 20 20" fill="none" xmlns="http://www.w3.org/2000/svg">
<path fill-rule="evenodd" clip-rule="evenodd" d="M17.9955 13.3109V10.8072C17.9955 10.5981 17.8316 10.4295 17.6273 10.4295H10.729C9.90477 10.4295 9.23252 11.1184 9.23252 11.9688V12.1541C9.23252 13.0021 9.90239 13.691 10.729 13.691H17.6297C17.8316 13.6886 17.9955 13.5199 17.9955 13.3109ZM16.6843 15.9714L16.6819 14.406H10.729C9.51995 14.406 8.53414 13.394 8.53414 12.1517V11.9664C8.53414 10.7217 9.51757 9.70973 10.729 9.70973H16.6676L16.6653 8.22984C16.6866 7.79276 16.5845 7.44832 16.3636 7.2084C16.1427 6.9661 15.8149 6.83783 15.4134 6.83308L3.96856 6.83783V6.8307C3.49585 6.8307 3.05402 6.65255 2.70008 6.33899V15.8835C2.6787 16.3134 2.78322 16.6555 3.00176 16.8954C3.22505 17.1377 3.56711 17.2731 3.96856 17.2779L15.4158 17.2731C16.1142 17.2779 16.6843 16.6911 16.6843 15.9714ZM2.70008 4.7807V4.80921C2.70008 5.1584 2.83072 5.48621 3.07302 5.73325C3.14666 5.80927 3.23217 5.8734 3.32244 5.92804V5.59548C3.32244 4.97074 3.82603 4.46477 4.44602 4.46477L14.3397 3.75452V2.74733L3.99469 3.47659C3.63125 3.47659 3.31294 3.61437 3.07302 3.85904C2.83072 4.1037 2.70008 4.43151 2.70008 4.7807ZM15.3635 4.84009C15.3635 4.61205 15.1711 4.42439 14.9359 4.42439L14.6889 4.44339H14.6865L4.46977 5.1774C4.21085 5.1774 4.01844 5.36506 4.01844 5.5931V6.1157L15.3635 6.12045V4.84009ZM17.6297 9.71211C18.2164 9.71211 18.6939 10.2038 18.6939 10.8072V13.3109C18.6939 13.9143 18.2164 14.406 17.6297 14.406H17.3803L17.3826 15.9714C17.3826 17.0878 16.5014 17.9952 15.4158 17.9952L3.96618 18C3.36995 17.9952 2.84973 17.7791 2.49341 17.3919C2.14185 17.0071 1.97082 16.4797 2.00407 15.8692V4.7807C2.00407 4.24148 2.20836 3.73314 2.57893 3.35069C2.95187 2.96825 3.44359 2.75683 3.97093 2.75683L14.6651 2.00144C14.7578 1.99194 14.8552 2.02995 14.9264 2.09646C14.9977 2.16535 15.0381 2.26037 15.0381 2.35776V3.72126C15.6201 3.78065 16.0643 4.25811 16.0643 4.84009V6.22497C16.3826 6.32236 16.6629 6.48389 16.8767 6.71906C17.2282 7.10388 17.3969 7.6336 17.366 8.24884L17.3684 9.70973H17.6297V9.71211ZM10.8953 12.7503C11.2659 12.7503 11.5676 12.4415 11.5676 12.059C11.5676 11.6766 11.2659 11.3678 10.8953 11.3678C10.5248 11.3678 10.2231 11.679 10.2231 12.059C10.2231 12.4391 10.5248 12.7503 10.8953 12.7503ZM10.8953 10.6504C11.6507 10.6504 12.2636 11.2823 12.2636 12.059C12.2636 12.8358 11.6483 13.4677 10.8953 13.4677C10.1399 13.4677 9.5247 12.8358 9.5247 12.059C9.5247 11.2823 10.1399 10.6504 10.8953 10.6504Z" fill="#86888C"/>
</svg>
