<svg width="24" height="24" viewBox="0 0 24 24" fill="none" xmlns="http://www.w3.org/2000/svg">
<path fill-rule="evenodd" clip-rule="evenodd" d="M20.9949 15.7248V12.9081C20.9949 12.6729 20.8105 12.4832 20.5807 12.4832H12.8202C11.8929 12.4832 11.1366 13.2582 11.1366 14.2149V14.4233C11.1366 15.3773 11.8902 16.1523 12.8202 16.1523H20.5834C20.8105 16.1497 20.9949 15.9599 20.9949 15.7248ZM19.5198 18.7178L19.5171 16.9567H12.8202C11.4599 16.9567 10.3509 15.8183 10.3509 14.4206V14.2122C10.3509 12.8119 11.4573 11.6734 12.8202 11.6734H19.5011L19.4984 10.0086C19.5225 9.51685 19.4076 9.12936 19.159 8.85945C18.9105 8.58687 18.5417 8.44256 18.0901 8.43721L5.21463 8.44256V8.43454C4.68283 8.43454 4.18577 8.23412 3.78759 7.88136V18.6189C3.76353 19.1026 3.88112 19.4874 4.12698 19.7574C4.37818 20.0299 4.763 20.1823 5.21463 20.1876L18.0928 20.1823C18.8784 20.1876 19.5198 19.5275 19.5198 18.7178ZM3.78759 6.12829V6.16036C3.78759 6.5532 3.93457 6.92198 4.20715 7.19991C4.28999 7.28543 4.38619 7.35758 4.48774 7.41904V7.04491C4.48774 6.34208 5.05429 5.77287 5.75177 5.77287L16.8822 4.97383V3.84075L5.24402 4.66116C4.83515 4.66116 4.47706 4.81616 4.20715 5.09141C3.93457 5.36667 3.78759 5.73545 3.78759 6.12829ZM18.034 6.1951C18.034 5.93855 17.8175 5.72744 17.5529 5.72744L17.275 5.74882H17.2723L5.7785 6.57458C5.48721 6.57458 5.27075 6.78569 5.27075 7.04224V7.63016L18.034 7.63551V6.1951ZM20.5834 11.6761C21.2435 11.6761 21.7806 12.2293 21.7806 12.9081V15.7248C21.7806 16.4035 21.2435 16.9567 20.5834 16.9567H20.3028L20.3055 18.7178C20.3055 19.9738 19.314 20.9947 18.0928 20.9947L5.21196 21C4.54119 20.9947 3.95594 20.7515 3.55509 20.3159C3.15958 19.883 2.96717 19.2897 3.00458 18.6029V6.12829C3.00458 5.52166 3.23441 4.94978 3.65129 4.51953C4.07086 4.08928 4.62404 3.85144 5.2173 3.85144L17.2483 3.00163C17.3525 2.99094 17.4621 3.03369 17.5422 3.10852C17.6224 3.18602 17.6678 3.29291 17.6678 3.40248V4.93642C18.3226 5.00323 18.8223 5.54037 18.8223 6.1951V7.75309C19.1804 7.86266 19.4957 8.04438 19.7363 8.30894C20.1318 8.74186 20.3215 9.3378 20.2868 10.0299L20.2894 11.6734H20.5834V11.6761ZM13.0072 15.0941C13.4241 15.0941 13.7635 14.7467 13.7635 14.3164C13.7635 13.8862 13.4241 13.5388 13.0072 13.5388C12.5904 13.5388 12.251 13.8888 12.251 14.3164C12.251 14.744 12.5904 15.0941 13.0072 15.0941ZM13.0072 12.7317C13.8571 12.7317 14.5465 13.4426 14.5465 14.3164C14.5465 15.1903 13.8544 15.9011 13.0072 15.9011C12.1574 15.9011 11.4653 15.1903 11.4653 14.3164C11.4653 13.4426 12.1574 12.7317 13.0072 12.7317Z" fill="#86888C"/>
</svg>
