<svg width="28" height="28" viewBox="0 0 28 28" fill="none" xmlns="http://www.w3.org/2000/svg">
<path fill-rule="evenodd" clip-rule="evenodd" d="M14.5224 24.9962H14.4815C12.1084 24.9962 10.2476 24.3406 8.96034 23.0534C7.66286 21.7559 7.00388 19.8745 6.99363 17.4639C6.97997 12.8374 12.583 5.3598 14.4678 3.23261C16.3594 5.36321 21.9932 12.8442 22.0069 17.4195C22.0171 22.2885 19.3607 24.9825 14.5224 24.9962ZM14.8195 2.14682C14.7273 2.05463 14.601 2 14.4678 2C14.3381 2 14.2117 2.05463 14.1161 2.14682C12.4601 3.81306 5.98296 12.1955 6.00003 17.4674C6.00686 20.1135 6.78877 22.2919 8.25697 23.7636C9.71834 25.2249 11.8694 26 14.4815 26H14.5224C19.8421 25.9829 23.0107 22.7768 22.9936 17.4161C22.9834 12.2023 16.4789 3.81989 14.8195 2.14682Z" fill="#86888C"/>
</svg>
