<svg width="20" height="20" viewBox="0 0 20 20" fill="none" xmlns="http://www.w3.org/2000/svg">
<path fill-rule="evenodd" clip-rule="evenodd" d="M9.68163 17.3308H9.65431C8.07229 17.3308 6.83172 16.8937 5.97356 16.0356C5.10857 15.1706 4.66925 13.9163 4.66242 12.3093C4.65332 9.22493 8.3887 4.23986 9.64521 2.82174C10.9063 4.24214 14.6621 9.22948 14.6712 12.2797C14.6781 15.5257 12.9071 17.3217 9.68163 17.3308ZM9.87966 2.09788C9.8182 2.03642 9.73398 2 9.64521 2C9.55871 2 9.47449 2.03642 9.41075 2.09788C8.30675 3.20871 3.98864 8.79698 4.00002 12.3116C4.00458 14.0757 4.52584 15.528 5.50465 16.509C6.4789 17.4833 7.91295 18 9.65431 18H9.68163C13.2281 17.9886 15.3405 15.8512 15.3291 12.2774C15.3223 8.80154 10.9859 3.21326 9.87966 2.09788Z" fill="#86888C"/>
</svg>
