<svg width="28" height="28" viewBox="0 0 28 28" fill="none" xmlns="http://www.w3.org/2000/svg">
<path d="M2.73353 9.59477C2.64401 9.59477 2.55105 9.56034 2.48219 9.49148C2.34448 9.35376 2.34448 9.12997 2.48219 8.98881L2.50629 8.96471C4.06594 7.41195 5.88037 6.19315 7.89449 5.3393C9.99123 4.45102 12.2223 4 14.5221 4C16.8048 4 19.022 4.44414 21.1119 5.32209C23.1088 6.16216 24.906 7.3603 26.4485 8.87864C26.5862 9.01635 26.5896 9.24015 26.4519 9.38131C26.3142 9.51902 26.0904 9.52247 25.9492 9.38475C24.4722 7.92839 22.7507 6.78189 20.8365 5.97624C18.8327 5.13617 16.7084 4.70924 14.5187 4.70924C12.3152 4.70924 10.1772 5.13961 8.16648 5.99346C6.23499 6.81288 4.49631 7.98003 3.00208 9.46738L2.98142 9.48804C2.916 9.56034 2.82304 9.59477 2.73353 9.59477Z" fill="#86888C"/>
<path d="M5.8597 13.4681C5.77019 13.4681 5.68067 13.4336 5.61181 13.3648C5.4741 13.2271 5.47065 13.0033 5.60837 12.8656L5.62558 12.8483C6.77208 11.7087 8.10105 10.8101 9.57807 10.1801C11.1412 9.51214 12.8007 9.17473 14.5152 9.17473C16.2057 9.17473 17.8514 9.50525 19.4008 10.1594C20.864 10.7757 22.1827 11.6536 23.3223 12.7692C23.4634 12.9069 23.4634 13.1307 23.3257 13.2718C23.188 13.413 22.9642 13.413 22.823 13.2753C21.7488 12.2217 20.5059 11.3954 19.1253 10.8136C17.6621 10.1973 16.1128 9.88397 14.5152 9.88397C12.8971 9.88397 11.3305 10.2042 9.85695 10.8308C8.46256 11.4264 7.20589 12.2734 6.12481 13.3476L6.11104 13.3613C6.04218 13.4336 5.95266 13.4681 5.8597 13.4681ZM8.98933 17.3414C8.89981 17.3414 8.80686 17.3069 8.738 17.2381C8.60028 17.1004 8.60028 16.8766 8.738 16.7354C9.47134 16.0021 10.3217 15.4237 11.2686 15.0139C12.2945 14.5698 13.386 14.346 14.5118 14.346C15.6135 14.346 16.6808 14.5629 17.6896 14.9898C18.6192 15.3823 19.4627 15.9401 20.1926 16.6493C20.3338 16.7871 20.3372 17.0108 20.1995 17.152C20.0618 17.2932 19.838 17.2966 19.6969 17.1589C19.0289 16.5116 18.2612 16.0021 17.4107 15.644C16.4915 15.2549 15.5137 15.0553 14.5084 15.0553C13.4789 15.0553 12.4839 15.2618 11.544 15.6647C10.6798 16.0399 9.90515 16.5667 9.23378 17.2381C9.17181 17.3069 9.07885 17.3414 8.98933 17.3414Z" fill="#86888C"/>
<path d="M14.4671 24C12.9177 24 12.0639 23.1461 12.0639 21.5968C12.0639 20.0475 12.9177 19.1937 14.4671 19.1937C15.2211 19.1937 15.8098 19.3968 16.223 19.7927C16.6533 20.2059 16.8702 20.8118 16.8702 21.5968C16.8702 23.1461 16.0164 24 14.4671 24ZM14.4671 19.9029C13.3102 19.9029 12.7731 20.44 12.7731 21.5968C12.7731 22.7537 13.3102 23.2908 14.4671 23.2908C15.6239 23.2908 16.161 22.7537 16.161 21.5968C16.161 21.0115 16.0164 20.5777 15.7306 20.3023C15.4552 20.0372 15.0317 19.9029 14.4671 19.9029Z" fill="#86888C"/>
</svg>
