<svg width="20" height="20" viewBox="0 0 20 20" fill="none" xmlns="http://www.w3.org/2000/svg">
<path d="M2.62714 6.91634C2.56448 6.91634 2.49941 6.89224 2.45121 6.84404C2.35481 6.74763 2.35481 6.59098 2.45121 6.49217L2.46808 6.4753C3.55983 5.38836 4.82993 4.5352 6.23981 3.93751C7.70754 3.31572 9.26925 3 10.8792 3C12.477 3 14.0291 3.3109 15.492 3.92546C16.8898 4.51351 18.1479 5.35221 19.2276 6.41505C19.324 6.51145 19.3264 6.6681 19.23 6.76691C19.1336 6.86332 18.9769 6.86573 18.8781 6.76932C17.8442 5.74987 16.6392 4.94732 15.2992 4.38337C13.8966 3.79532 12.4096 3.49647 10.8768 3.49647C9.33432 3.49647 7.83768 3.79773 6.43021 4.39542C5.07817 4.96901 3.86109 5.78602 2.81513 6.82717L2.80067 6.84163C2.75487 6.89224 2.6898 6.91634 2.62714 6.91634Z" fill="#86888C"/>
<path d="M4.81546 9.62765C4.7528 9.62765 4.69014 9.60355 4.64194 9.55535C4.54554 9.45894 4.54313 9.30229 4.63953 9.20589L4.65158 9.19384C5.45413 8.39611 6.38441 7.76709 7.41832 7.32605C8.51249 6.8585 9.67413 6.62231 10.8743 6.62231C12.0577 6.62231 13.2097 6.85368 14.2942 7.31159C15.3185 7.74299 16.2415 8.35755 17.0393 9.13841C17.1381 9.23481 17.1381 9.39146 17.0417 9.49027C16.9453 9.58909 16.7886 9.58909 16.6898 9.49268C15.9379 8.75521 15.0678 8.1768 14.1014 7.7695C13.0771 7.3381 11.9926 7.11878 10.8743 7.11878C9.74161 7.11878 8.64504 7.34292 7.61354 7.78155C6.63747 8.19849 5.7578 8.79136 5.00104 9.5433L4.9914 9.55294C4.9432 9.60355 4.88054 9.62765 4.81546 9.62765ZM7.0062 12.339C6.94354 12.339 6.87847 12.3149 6.83027 12.2667C6.73387 12.1703 6.73387 12.0136 6.83027 11.9148C7.34361 11.4014 7.93889 10.9966 8.60166 10.7098C9.31986 10.3989 10.0838 10.2422 10.8719 10.2422C11.6431 10.2422 12.3903 10.394 13.0964 10.6929C13.7471 10.9676 14.3376 11.3581 14.8485 11.8545C14.9473 11.9509 14.9497 12.1076 14.8533 12.2064C14.7569 12.3052 14.6003 12.3076 14.5015 12.2112C14.0339 11.7581 13.4965 11.4014 12.9012 11.1508C12.2577 10.8785 11.5733 10.7387 10.8695 10.7387C10.1489 10.7387 9.45241 10.8833 8.79446 11.1653C8.18954 11.428 7.64728 11.7967 7.17732 12.2667C7.13394 12.3149 7.06886 12.339 7.0062 12.339Z" fill="#86888C"/>
<path d="M10.8406 17C9.75609 17 9.1584 16.4023 9.1584 15.3178C9.1584 14.2333 9.75609 13.6356 10.8406 13.6356C11.3684 13.6356 11.7805 13.7778 12.0697 14.0549C12.371 14.3441 12.5228 14.7683 12.5228 15.3178C12.5228 16.4023 11.9251 17 10.8406 17ZM10.8406 14.132C10.0308 14.132 9.65487 14.508 9.65487 15.3178C9.65487 16.1276 10.0308 16.5035 10.8406 16.5035C11.6504 16.5035 12.0264 16.1276 12.0264 15.3178C12.0264 14.9081 11.9251 14.6044 11.7251 14.4116C11.5323 14.226 11.2359 14.132 10.8406 14.132Z" fill="#86888C"/>
</svg>
