<svg width="40" height="40" viewBox="0 0 40 40" fill="none" xmlns="http://www.w3.org/2000/svg">
<path fill-rule="evenodd" clip-rule="evenodd" d="M36.3615 19.8157C36.4435 19.6313 36.5818 19.1549 36.1207 18.7041L21.0195 3.86406C20.7633 3.61306 20.3945 3.46963 20.0103 3.46963C19.621 3.46963 19.2522 3.61306 18.9961 3.86406L3.88966 18.7041C3.42863 19.1549 3.56693 19.6313 3.6489 19.8157C3.80257 20.1743 4.2175 20.5585 4.90392 20.5585H6.79926C7.22956 20.5585 7.57789 20.8965 7.57789 21.3115V35.3831C7.57789 36.0029 8.17723 36.505 8.90975 36.505H30.8804C31.618 36.505 32.2174 36.0029 32.2174 35.3831V21.3115C32.2174 20.8965 32.5657 20.5585 32.996 20.5585H35.1065C35.7929 20.5585 36.2078 20.1743 36.3615 19.8157ZM37.2323 17.6488C37.9956 18.3967 38.2107 19.452 37.8009 20.3997C37.3604 21.4088 36.3052 22.0594 35.1065 22.0594H33.7797V35.378C33.7797 36.8277 32.4837 38.0059 30.8855 38.0059H8.90975C7.31664 38.0059 6.01551 36.8277 6.01551 35.378V22.0594H4.8988C3.70012 22.0594 2.65 21.4088 2.20434 20.3997C1.79453 19.452 2.00968 18.4019 2.77294 17.654L17.8742 2.80882C18.9704 1.73821 21.0348 1.73821 22.1259 2.80882L37.2323 17.6488ZM19.9386 31.0699C20.9477 31.0494 20.9477 30.4091 20.9477 30.1632C20.9477 29.943 20.9477 29.2719 20.0564 29.2514H19.9181C19.0575 29.2617 19.0575 29.9122 19.0575 30.153C19.0626 30.404 19.0626 31.0597 19.9386 31.0699ZM20.1025 27.7505C21.2961 27.7761 22.5101 28.5343 22.5101 30.1632C22.5101 31.7973 21.3012 32.5503 20.1025 32.5708H19.9284C18.7194 32.5555 17.5054 31.8025 17.5054 30.153C17.5054 28.5035 18.7143 27.7556 19.9079 27.7454H19.9181L20.1025 27.7505ZM19.9079 14.5548C20.1333 14.5343 26.3469 14.2321 30.532 18.7502C30.8189 19.0575 30.7933 19.5339 30.4706 19.8106C30.322 19.9386 30.1376 20.0001 29.9481 20.0001C29.7329 20.0001 29.5229 19.913 29.3641 19.7491C25.6759 15.774 20.0257 16.0609 19.9591 16.0557C13.8889 16.1223 10.6668 19.4776 10.6361 19.5083C10.3441 19.8157 9.8523 19.8413 9.53471 19.5596C9.21711 19.2829 9.19149 18.8065 9.47836 18.4992C9.63203 18.3404 13.2025 14.6214 19.9079 14.5548ZM19.913 18.95C20.1025 18.9397 25.0304 18.7809 28.1705 22.1618C28.4574 22.4692 28.4318 22.9456 28.1091 23.2222C27.7915 23.4937 27.2946 23.4732 27.0077 23.1607C24.3645 20.3126 20.0001 20.4304 19.954 20.4509C15.5844 20.497 13.0232 23.1863 12.9976 23.2119C12.8439 23.3759 12.6287 23.4629 12.4187 23.4629C12.2343 23.4629 12.0448 23.4015 11.8962 23.2683C11.5735 22.9917 11.5479 22.5153 11.8347 22.2079C11.9628 22.0799 14.8929 19.0012 19.913 18.95ZM19.9437 23.4425C20.0615 23.4373 23.3041 23.3246 25.3839 25.5683C25.6707 25.8757 25.6451 26.3521 25.3224 26.6287C25.0048 26.9002 24.5079 26.8797 24.2211 26.5672C22.6433 24.8716 19.995 24.9434 19.9847 24.9434C17.3671 24.9741 15.7996 26.5877 15.7842 26.6031C15.6305 26.767 15.4205 26.8489 15.2054 26.8489C15.0158 26.8489 14.8314 26.7824 14.6829 26.6543C14.3653 26.3726 14.3397 25.9064 14.6265 25.5939C14.7085 25.512 16.6448 23.4783 19.9437 23.4425Z" fill="#86888C"/>
</svg>
