<svg width="28" height="28" viewBox="0 0 28 28" fill="none" xmlns="http://www.w3.org/2000/svg">
<path fill-rule="evenodd" clip-rule="evenodd" d="M25.9589 11.4315C25.9999 11.3358 26.0375 11.1514 25.8599 10.967L18.2445 3.16026C18.0293 2.93828 17.5956 2.93828 17.3805 3.16026L10.4378 10.2738H10.8203C11.7868 10.2738 12.5039 10.5231 13.0127 11.0387C13.5216 11.5544 13.7674 12.2716 13.7674 13.238V20.1398H23.2952C23.606 20.1398 23.8587 19.9247 23.8587 19.6617V12.2613C23.8587 11.9813 24.0841 11.7559 24.3607 11.7559H25.4262C25.7233 11.7525 25.8941 11.5851 25.9589 11.4315ZM12.7634 23.0323V13.238C12.7634 12.555 12.6098 12.0701 12.299 11.7525C11.9882 11.4383 11.5033 11.2846 10.8203 11.2846H5.95055C5.27438 11.2846 4.79287 11.4417 4.47527 11.7627C4.16109 12.0837 4.00742 12.5653 4.00742 13.2346V23.0323C4.00742 23.7222 4.16109 24.2105 4.47527 24.5247C4.78604 24.8321 5.26755 24.9857 5.95055 24.9857H10.8203C11.5033 24.9857 11.9848 24.8355 12.2956 24.5247C12.6098 24.2105 12.7634 23.7222 12.7634 23.0323ZM26.577 10.2567C26.9937 10.6836 27.1132 11.2846 26.8878 11.8242C26.6488 12.3979 26.075 12.7667 25.4262 12.7667H24.8661V19.6617C24.8661 20.4847 24.1627 21.1541 23.2952 21.1541H13.7674V23.0357C13.7674 24.009 13.5181 24.733 13.0025 25.2453C12.4937 25.7541 11.7765 26 10.8169 26H5.95055C4.98752 26 4.27379 25.7541 3.76496 25.2453C3.25271 24.733 3 24.009 3 23.0357V13.2414C3 12.2886 3.24929 11.5749 3.75813 11.0592C4.27379 10.5333 4.99094 10.2772 5.95055 10.2772H9.03428C9.03769 10.2738 9.04111 10.2669 9.04794 10.2601L16.6668 2.45335C17.2576 1.84888 18.3777 1.84888 18.9685 2.45335L26.577 10.2567ZM8.38543 22.5918C8.90451 22.5918 9.21185 22.9026 9.21185 23.4251C9.21185 23.6812 9.14014 23.8827 8.99671 24.0295C8.85328 24.1798 8.64155 24.2583 8.38543 24.2583C8.13272 24.2583 7.92099 24.1798 7.77756 24.0295C7.63413 23.8827 7.56242 23.6778 7.56242 23.4251C7.559 22.906 7.86635 22.5918 8.38543 22.5918ZM18.002 15.994C18.2786 15.9871 18.2786 15.8642 18.2786 15.7447C18.2786 15.6285 18.2786 15.4954 18.0498 15.4919H17.9918C17.7937 15.4919 17.7766 15.591 17.7766 15.7412C17.7766 15.8881 17.7937 15.9905 18.002 15.994ZM18.084 14.4811C18.6748 14.4913 19.2861 14.8875 19.2861 15.7447C19.2861 16.5984 18.6782 16.9946 18.0737 17.0048C17.3805 16.998 16.7692 16.6018 16.7692 15.7378C16.7692 14.8738 17.3805 14.4811 17.9849 14.4777C17.9952 14.4811 18.0737 14.4777 18.084 14.4811ZM17.9849 8.45697C18.084 8.45014 20.874 8.30671 22.7557 10.4274C22.9401 10.6358 22.923 10.9568 22.7147 11.1412C22.6191 11.2266 22.4996 11.271 22.38 11.271C22.2434 11.271 22.1034 11.2129 22.0044 11.1036C20.454 9.36196 18.0362 9.47124 18.0191 9.47124C15.451 9.49856 14.1055 10.9363 14.0509 10.9943C13.8631 11.1992 13.5455 11.2163 13.3406 11.0251C13.1357 10.8373 13.1186 10.5197 13.3064 10.3113C13.3713 10.2362 14.9798 8.48771 17.9849 8.45697ZM17.9884 10.4616C18.0737 10.4616 20.2969 10.3796 21.7244 11.9847C21.9088 12.193 21.8917 12.5106 21.6834 12.6984C21.4785 12.8863 21.1575 12.8658 20.9731 12.6575C19.8666 11.411 18.0362 11.469 18.0157 11.4724C16.1853 11.4929 15.0925 12.6677 15.0822 12.6814C14.9832 12.7907 14.8466 12.8453 14.71 12.8453C14.5905 12.8453 14.4675 12.8009 14.3719 12.7155C14.167 12.5277 14.1499 12.2101 14.3343 12.0018C14.389 11.9437 15.7174 10.4889 17.9884 10.4616ZM17.9986 12.514C18.043 12.5072 19.5388 12.456 20.5018 13.5385C20.6862 13.7469 20.6691 14.0645 20.4608 14.2523C20.2559 14.4367 19.9349 14.4196 19.7505 14.2113C19.1153 13.4976 18.0464 13.5146 18.0259 13.5249C16.9502 13.5385 16.3253 14.2011 16.3014 14.2284C16.2023 14.3377 16.0657 14.3923 15.9291 14.3923C15.8096 14.3923 15.6867 14.3479 15.591 14.2625C15.3861 14.0747 15.3691 13.7571 15.5569 13.5488C15.591 13.5078 16.4858 12.5311 17.9986 12.514Z" fill="#86888C"/>
</svg>
