<svg width="28" height="28" viewBox="0 0 28 28" fill="none" xmlns="http://www.w3.org/2000/svg">
<path fill-rule="evenodd" clip-rule="evenodd" d="M25.9077 13.8791C25.9623 13.7561 26.0545 13.4385 25.7472 13.138L15.6796 3.24466C15.5089 3.07733 15.263 2.98171 15.0069 2.98171C14.7473 2.98171 14.5015 3.07733 14.3307 3.24466L4.25977 13.138C3.95242 13.4385 4.04462 13.7561 4.09926 13.8791C4.20171 14.1181 4.47833 14.3743 4.93595 14.3743H6.19951C6.48637 14.3743 6.71859 14.5996 6.71859 14.8763V24.2574C6.71859 24.6706 7.11815 25.0053 7.6065 25.0053H22.2536C22.7453 25.0053 23.1449 24.6706 23.1449 24.2574V14.8763C23.1449 14.5996 23.3771 14.3743 23.664 14.3743H25.071C25.5286 14.3743 25.8052 14.1181 25.9077 13.8791ZM26.4882 12.4345C26.9971 12.9331 27.1405 13.6366 26.8673 14.2684C26.5736 14.9412 25.8701 15.3749 25.071 15.3749H24.1865V24.2539C24.1865 25.2204 23.3225 26.0059 22.257 26.0059H7.6065C6.54443 26.0059 5.67701 25.2204 5.67701 24.2539V15.3749H4.93253C4.13341 15.3749 3.43333 14.9412 3.13622 14.2684C2.86302 13.6366 3.00645 12.9365 3.51529 12.4379L13.5828 2.54117C14.3136 1.82742 15.6899 1.82742 16.4173 2.54117L26.4882 12.4345ZM14.9591 21.3819C15.6318 21.3682 15.6318 20.9414 15.6318 20.7774C15.6318 20.6306 15.6318 20.1832 15.0376 20.1696H14.9454C14.3717 20.1764 14.3717 20.6101 14.3717 20.7706C14.3751 20.938 14.3751 21.3751 14.9591 21.3819ZM15.0684 19.169C15.8641 19.186 16.6734 19.6915 16.6734 20.7774C16.6734 21.8668 15.8675 22.3689 15.0684 22.3825H14.9522C14.1463 22.3723 13.3369 21.8703 13.3369 20.7706C13.3369 19.671 14.1429 19.1724 14.9386 19.1656H14.9454L15.0684 19.169ZM14.9386 10.3718C15.0888 10.3582 19.2313 10.1567 22.0214 13.1688C22.2126 13.3737 22.1955 13.6913 21.9804 13.8757C21.8813 13.961 21.7584 14.002 21.632 14.002C21.4886 14.002 21.3486 13.944 21.2427 13.8347C18.7839 11.1846 15.0171 11.3759 14.9727 11.3724C10.9259 11.4168 8.77786 13.6537 8.75737 13.6742C8.56271 13.8791 8.23487 13.8962 8.02314 13.7083C7.81141 13.5239 7.79433 13.2063 7.98557 13.0014C8.08802 12.8955 10.4683 10.4162 14.9386 10.3718ZM14.942 13.3019C15.0684 13.2951 18.3536 13.1892 20.447 15.4432C20.6383 15.6481 20.6212 15.9657 20.406 16.1501C20.1943 16.3311 19.8631 16.3174 19.6718 16.1091C17.9097 14.2103 15.0001 14.2889 14.9693 14.3025C12.0563 14.3333 10.3488 16.1262 10.3317 16.1432C10.2292 16.2525 10.0858 16.3106 9.9458 16.3106C9.82286 16.3106 9.6965 16.2696 9.59747 16.1808C9.38232 15.9964 9.36525 15.6788 9.55649 15.4739C9.64186 15.3885 11.5953 13.3361 14.942 13.3019ZM14.9625 16.2969C15.041 16.2935 17.2027 16.2184 18.5893 17.7142C18.7805 17.9191 18.7634 18.2367 18.5483 18.4211C18.3365 18.6021 18.0053 18.5884 17.814 18.3801C16.7622 17.2497 14.9966 17.2975 14.9898 17.2975C13.2447 17.318 12.1997 18.3938 12.1895 18.404C12.087 18.5133 11.947 18.5679 11.8036 18.5679C11.6772 18.5679 11.5543 18.5235 11.4552 18.4381C11.2435 18.2503 11.2264 17.9396 11.4177 17.7312C11.4723 17.6766 12.7632 16.3208 14.9625 16.2969Z" fill="#86888C"/>
</svg>
