<svg width="20" height="20" viewBox="0 0 20 20" fill="none" xmlns="http://www.w3.org/2000/svg">
<path fill-rule="evenodd" clip-rule="evenodd" d="M17.306 8.28764C17.3333 8.2239 17.3583 8.10096 17.2399 7.97802L12.163 2.7735C12.0196 2.62552 11.7304 2.62552 11.587 2.7735L6.95856 7.51585H7.21354C7.85783 7.51585 8.33593 7.68205 8.67515 8.02583C9.01438 8.36961 9.1783 8.84771 9.1783 9.49201V14.0932H15.5302C15.7373 14.0932 15.9058 13.9498 15.9058 13.7745V8.84088C15.9058 8.65419 16.0561 8.50393 16.2405 8.50393H16.9508C17.1489 8.50165 17.2627 8.3901 17.306 8.28764ZM8.50896 16.0216V9.49201C8.50896 9.03668 8.40651 8.71339 8.19933 8.50165C7.99216 8.2922 7.66887 8.18975 7.21354 8.18975H3.96703C3.51625 8.18975 3.19524 8.29448 2.98352 8.50848C2.77406 8.72249 2.67161 9.04351 2.67161 9.48974V16.0216C2.67161 16.4814 2.77406 16.807 2.98352 17.0165C3.19069 17.2214 3.5117 17.3238 3.96703 17.3238H7.21354C7.66887 17.3238 7.98988 17.2236 8.19706 17.0165C8.40651 16.807 8.50896 16.4814 8.50896 16.0216ZM17.718 7.50446C17.9958 7.78905 18.0755 8.18975 17.9252 8.54946C17.7658 8.93195 17.3834 9.17783 16.9508 9.17783H16.5774V13.7745C16.5774 14.3231 16.1084 14.7694 15.5302 14.7694H9.1783V16.0238C9.1783 16.6727 9.0121 17.1553 8.66832 17.4969C8.3291 17.8361 7.85101 18 7.21126 18H3.96703C3.32501 18 2.84919 17.8361 2.50997 17.4969C2.16847 17.1553 2 16.6727 2 16.0238V9.49429C2 8.85909 2.1662 8.38327 2.50542 8.03949C2.84919 7.68888 3.32729 7.51812 3.96703 7.51812H6.02285C6.02513 7.51585 6.0274 7.51129 6.03196 7.50674L11.1112 2.30223C11.505 1.89926 12.2518 1.89926 12.6456 2.30223L17.718 7.50446ZM5.59029 15.7279C5.93634 15.7279 6.14124 15.935 6.14124 16.2834C6.14124 16.4541 6.09343 16.5885 5.99781 16.6864C5.90219 16.7865 5.76103 16.8389 5.59029 16.8389C5.42181 16.8389 5.28066 16.7865 5.18504 16.6864C5.08942 16.5885 5.04161 16.4519 5.04161 16.2834C5.03934 15.9373 5.24423 15.7279 5.59029 15.7279ZM12.0013 11.3293C12.1858 11.3247 12.1858 11.2428 12.1858 11.1631C12.1858 11.0857 12.1858 10.9969 12.0332 10.9946H11.9945C11.8625 10.9946 11.8511 11.0607 11.8511 11.1608C11.8511 11.2587 11.8625 11.327 12.0013 11.3293ZM12.056 10.3207C12.4499 10.3276 12.8574 10.5917 12.8574 11.1631C12.8574 11.7323 12.4521 11.9964 12.0492 12.0032C11.587 11.9986 11.1795 11.7346 11.1795 11.1586C11.1795 10.5825 11.587 10.3207 11.99 10.3185C11.9968 10.3207 12.0492 10.3185 12.056 10.3207ZM11.99 6.30465C12.056 6.3001 13.916 6.20447 15.1705 7.6183C15.2934 7.75718 15.282 7.97119 15.1431 8.09413C15.0794 8.15104 14.9997 8.18064 14.92 8.18064C14.829 8.18064 14.7356 8.14194 14.6696 8.06908C13.636 6.90797 12.0241 6.98083 12.0127 6.98083C10.3007 6.99904 9.40368 7.95753 9.36726 7.99623C9.24204 8.13283 9.03031 8.14421 8.89371 8.01672C8.75711 7.8915 8.74573 7.67977 8.87095 7.54089C8.9142 7.4908 9.98651 6.32514 11.99 6.30465ZM11.9922 7.64107C12.0492 7.64107 13.5313 7.58643 14.4829 8.65647C14.6058 8.79535 14.5945 9.00708 14.4556 9.1323C14.319 9.25751 14.105 9.24385 13.982 9.10498C13.2444 8.27399 12.0241 8.31269 12.0105 8.31497C10.7902 8.32863 10.0616 9.11181 10.0548 9.12091C9.98878 9.19377 9.89772 9.23019 9.80665 9.23019C9.72697 9.23019 9.64501 9.2006 9.58126 9.14368C9.44466 9.01846 9.43328 8.80673 9.55622 8.66785C9.59265 8.62915 10.4783 7.65928 11.9922 7.64107ZM11.9991 9.00936C12.0287 9.0048 13.0258 8.97065 13.6679 9.69236C13.7908 9.83124 13.7794 10.043 13.6405 10.1682C13.5039 10.2911 13.2899 10.2797 13.167 10.1409C12.7435 9.66504 12.0309 9.67643 12.0173 9.68326C11.3001 9.69236 10.8835 10.134 10.8676 10.1523C10.8016 10.2251 10.7105 10.2615 10.6194 10.2615C10.5397 10.2615 10.4578 10.2319 10.394 10.175C10.2574 10.0498 10.246 9.83807 10.3713 9.69919C10.394 9.67187 10.9905 9.02074 11.9991 9.00936Z" fill="#86888C"/>
</svg>
