<svg width="40" height="40" viewBox="0 0 40 40" fill="none" xmlns="http://www.w3.org/2000/svg">
<path fill-rule="evenodd" clip-rule="evenodd" d="M12.381 28.1152H16.457V26.2151H12.381V28.1152ZM31.3706 36.4891H9.19169C8.82893 36.4891 8.46617 36.1408 8.46617 35.7926V4.2023C8.46617 3.88476 8.85916 3.50576 9.19169 3.50576H13.7212V7.95647H11.6252C11.2222 7.95647 10.8947 8.29449 10.8947 8.70935C10.8947 9.1242 11.2222 9.46223 11.6252 9.46223H13.7212V13.0576H11.6252C11.2222 13.0576 10.8947 13.3956 10.8947 13.8105C10.8947 14.2254 11.2222 14.5634 11.6252 14.5634H13.7212V18.1588H11.6252C11.2222 18.1588 10.8947 18.4968 10.8947 18.9117C10.8947 19.3265 11.2222 19.6645 11.6252 19.6645H13.7212V23.8848H11.6454C11.2423 23.8848 10.9148 24.2228 10.9148 24.6376V28.8681C10.9148 29.283 11.2423 29.621 11.6454 29.621H17.1876C17.5906 29.621 17.9181 29.283 17.9181 28.8681V24.6376C17.9181 24.2228 17.5906 23.8848 17.1876 23.8848H15.1873V22.2151H17.2329C17.641 22.2151 17.9635 21.8771 17.9635 21.4622C17.9635 21.0474 17.636 20.7093 17.2329 20.7093H15.1873V17.1088H17.2329C17.641 17.1088 17.9635 16.7708 17.9635 16.356C17.9635 15.9411 17.636 15.6031 17.2329 15.6031H15.1873V12.0026H17.2329C17.641 12.0026 17.9635 11.6645 17.9635 11.2497C17.9635 10.8348 17.636 10.4968 17.2329 10.4968H15.1873V6.90141H17.2329C17.641 6.90141 17.9635 6.56338 17.9635 6.14853C17.9635 5.73367 17.636 5.39565 17.2329 5.39565H15.1873V3.49552H21.4601V8.02305C21.4601 9.77465 22.0446 11.2804 23.153 12.3816C24.2514 13.4776 25.7578 14.0512 27.5062 14.0512H32.0911V35.7874C32.0961 36.1511 31.7434 36.4891 31.3706 36.4891ZM31.7132 12.5557H27.5112C26.1508 12.5557 24.9971 12.1255 24.1758 11.306C23.3596 10.4968 22.9263 9.36492 22.9263 8.02817V3.82843L31.7132 12.5557ZM33.1945 11.9309L23.546 2.35339C23.3142 2.12804 23.0119 2 22.6895 2H9.19169C8.04294 2 7 3.04994 7 4.2023V35.7977C7 36.9706 8.02279 38 9.19169 38H31.3656C32.5496 38 33.5572 36.991 33.5572 35.7977V12.822C33.5623 12.4891 33.4262 12.1665 33.1945 11.9309Z" fill="#86888C"/>
</svg>
