<svg width="20" height="20" viewBox="0 0 20 20" fill="none" xmlns="http://www.w3.org/2000/svg">
<path fill-rule="evenodd" clip-rule="evenodd" d="M6.39155 13.6068H8.20312V12.7623H6.39155V13.6068ZM14.8314 17.3285H4.97408C4.81286 17.3285 4.65163 17.1737 4.65163 17.0189V2.9788C4.65163 2.83767 4.82629 2.66923 4.97408 2.66923H6.98719V4.64732H6.05565C5.87651 4.64732 5.73096 4.79755 5.73096 4.98193C5.73096 5.16631 5.87651 5.31655 6.05565 5.31655H6.98719V6.9145H6.05565C5.87651 6.9145 5.73096 7.06473 5.73096 7.24911C5.73096 7.43349 5.87651 7.58372 6.05565 7.58372H6.98719V9.18168H6.05565C5.87651 9.18168 5.73096 9.33191 5.73096 9.51629C5.73096 9.70067 5.87651 9.8509 6.05565 9.8509H6.98719V11.7266H6.06461C5.88547 11.7266 5.73992 11.8768 5.73992 12.0612V13.9414C5.73992 14.1258 5.88547 14.276 6.06461 14.276H8.52781C8.70696 14.276 8.85251 14.1258 8.85251 13.9414V12.0612C8.85251 11.8768 8.70696 11.7266 8.52781 11.7266H7.63882V10.9845H8.54797C8.72935 10.9845 8.87266 10.8343 8.87266 10.6499C8.87266 10.4655 8.72711 10.3153 8.54797 10.3153H7.63882V8.71504H8.54797C8.72935 8.71504 8.87266 8.5648 8.87266 8.38042C8.87266 8.19604 8.72711 8.04581 8.54797 8.04581H7.63882V6.44558H8.54797C8.72935 6.44558 8.87266 6.29535 8.87266 6.11097C8.87266 5.92659 8.72711 5.77635 8.54797 5.77635H7.63882V4.1784H8.54797C8.72935 4.1784 8.87266 4.02817 8.87266 3.84379C8.87266 3.65941 8.72711 3.50918 8.54797 3.50918H7.63882V2.66467H10.4267V4.67691C10.4267 5.4554 10.6865 6.12463 11.1791 6.61403C11.6673 7.10115 12.3368 7.3561 13.1138 7.3561H15.1516V17.0166C15.1538 17.1783 14.9971 17.3285 14.8314 17.3285ZM14.9836 6.69142H13.1161C12.5115 6.69142 11.9987 6.50021 11.6337 6.13601C11.2709 5.77635 11.0783 5.2733 11.0783 4.67919V2.81263L14.9836 6.69142ZM15.642 6.41371L11.3538 2.15706C11.2508 2.05691 11.1164 2 10.9731 2H4.97408C4.46353 2 4 2.46664 4 2.9788V17.0212C4 17.5425 4.45457 18 4.97408 18H14.8291C15.3554 18 15.8032 17.5516 15.8032 17.0212V6.80979C15.8055 6.66183 15.745 6.51842 15.642 6.41371Z" fill="#86888C"/>
</svg>
