<svg width="28" height="28" viewBox="0 0 28 28" fill="none" xmlns="http://www.w3.org/2000/svg">
<path fill-rule="evenodd" clip-rule="evenodd" d="M11.5031 21.0405C6.25391 21.0405 2 16.7866 2 11.5374C2 9.01843 3.00212 6.60174 4.78141 4.81905C8.4729 1.09006 14.4891 1.05597 18.2215 4.74406C21.8994 8.37836 21.9862 14.2733 18.4556 18.016L25.8601 25.4172C25.993 25.5501 25.993 25.7648 25.8635 25.8978C25.7987 25.9625 25.7135 26 25.6215 26C25.5295 26 25.4443 25.9625 25.3795 25.8978L17.974 18.4956C16.2212 20.1345 13.9072 21.047 11.5031 21.0405ZM11.5031 2.71936C6.63227 2.71936 2.68172 6.6665 2.68172 11.5374C2.68172 13.8757 3.61226 16.1185 5.26543 17.7751C8.7081 21.2212 14.2948 21.2212 17.7374 17.7751C21.1801 14.329 21.1835 8.74574 17.7374 5.30307C16.0877 3.64309 13.8414 2.71254 11.5031 2.71936ZM6.3663 11.1499H16.6353C16.8372 11.1499 17.0016 11.3143 17 11.5162C17 11.7181 16.8356 11.8825 16.6337 11.8825H6.3663C6.16437 11.8825 6 11.7181 6 11.5162C6 11.3127 6.16437 11.1499 6.3663 11.1499Z" fill="#86888C"/>
</svg>
