<svg width="40" height="40" viewBox="0 0 40 40" fill="none" xmlns="http://www.w3.org/2000/svg">
<path fill-rule="evenodd" clip-rule="evenodd" d="M36.8063 18.8038H21.2014V3.1988C21.2014 2.53793 20.6634 2 20.0026 2C19.3417 2 18.8038 2.53793 18.8038 3.1988V18.8038H3.1988C2.53793 18.8038 2 19.3366 2 20.0026C2 20.6634 2.53793 21.2014 3.1988 21.2014H18.8038V36.8012C18.8038 37.4621 19.3417 38 20.0026 38C20.6634 38 21.2014 37.4621 21.2014 36.8012V21.2014H36.8012C37.4621 21.2014 38 20.6634 38 20.0026C38.0051 19.3417 37.4672 18.8038 36.8063 18.8038Z" fill="#86888C"/>
</svg>
