<svg width="40" height="40" viewBox="0 0 40 40" fill="none" xmlns="http://www.w3.org/2000/svg">
<path d="M26.947 38H15.241C13.8592 38 12.719 36.8756 12.698 35.4991L12.6717 33.8493C10.9537 33.6812 9.59812 32.9981 8.63137 31.8265C6.93956 29.7669 6.98159 26.7668 7.11294 25.385L3.93949 24.6284L3.88695 24.6074C3.47188 24.4445 3.15663 24.0925 3.0463 23.6617C2.93071 23.2308 3.03579 22.7632 3.31426 22.4164C5.15843 20.1519 6.27755 17.63 6.78194 16.327C6.96058 15.8699 7.0604 15.3865 7.08667 14.9031C7.28633 10.7944 8.72069 7.58421 11.3425 5.36699C13.36 3.65942 16.1289 2.54556 19.3444 2.15676C21.6877 1.87304 23.4636 2.05693 23.6265 2.07794C23.8471 2.09896 26.7211 2.40895 29.6003 4.11127C32.3482 5.74003 35.611 8.97128 35.5217 15.1501C35.3851 24.8596 31.2606 27.7283 29.7264 28.4586L29.4848 35.5516C29.4427 36.9229 28.3236 38 26.947 38ZM4.71709 23.1888L8.89407 24.1871L8.75747 24.9226C8.75221 24.9594 8.09546 28.7056 9.85031 30.8282C10.6437 31.7949 11.8574 32.2941 13.4546 32.3151L14.2217 32.3256L14.2742 35.478C14.2847 36.0035 14.7156 36.429 15.241 36.429H26.947C27.4725 36.429 27.898 36.0192 27.9138 35.4938L28.1923 27.2975L28.7439 27.1556C28.8228 27.1293 30.0364 26.7195 31.2554 25.1328C32.4428 23.5881 33.8719 20.6038 33.9455 15.1185C34.0085 10.7839 32.2904 7.54217 28.8438 5.48783C26.2115 3.91161 23.5004 3.6384 23.4741 3.63315H23.4583C23.4426 3.63315 21.7298 3.43875 19.502 3.71721C17.4845 3.96941 14.6052 4.6682 12.3618 6.57017C10.092 8.49841 8.84679 11.3251 8.66815 14.9767C8.63662 15.6334 8.50002 16.2744 8.26359 16.8944C7.73818 18.2342 6.59805 20.8139 4.71709 23.1888Z" fill="#86888C"/>
<path d="M16.0238 14.9346L14.8837 13.8471L18.6194 9.93277L18.4775 3.5701L20.0537 3.53332L20.2113 10.5475L16.0238 14.9346Z" fill="#86888C"/>
<path d="M23.5214 9.41787H18.9609V10.9941H23.5214V9.41787Z" fill="#86888C"/>
<path d="M33.2519 21.2238H24.9137V22.8H33.2519V21.2238Z" fill="#86888C"/>
<path d="M24.9032 12.3668L22.5544 19.2323L24.0459 19.7425L26.3946 12.877L24.9032 12.3668Z" fill="#86888C"/>
<path d="M13.8486 18.7018C12.3407 18.7018 11.1165 17.4776 11.1165 15.9697C11.1165 14.4618 12.3407 13.2376 13.8486 13.2376C15.3566 13.2376 16.5808 14.4618 16.5808 15.9697C16.5808 17.4776 15.3513 18.7018 13.8486 18.7018ZM13.8486 14.8138C13.2129 14.8138 12.6928 15.3339 12.6928 15.9697C12.6928 16.6054 13.2129 17.1256 13.8486 17.1256C14.4844 17.1256 15.0045 16.6054 15.0045 15.9697C15.0045 15.3339 14.4844 14.8138 13.8486 14.8138Z" fill="#86888C"/>
<path d="M25.912 13.411C24.4041 13.411 23.1799 12.1868 23.1799 10.6788C23.1799 9.17093 24.4041 7.94673 25.912 7.94673C27.4199 7.94673 28.6441 9.17093 28.6441 10.6788C28.6441 12.1868 27.4147 13.411 25.912 13.411ZM25.912 9.52295C25.2763 9.52295 24.7561 10.0431 24.7561 10.6788C24.7561 11.3146 25.2763 11.8347 25.912 11.8347C26.5477 11.8347 27.0679 11.3146 27.0679 10.6788C27.0679 10.0431 26.5477 9.52295 25.912 9.52295Z" fill="#86888C"/>
<path d="M22.5599 24.6547C21.052 24.6547 19.8278 23.4305 19.8278 21.9225C19.8278 20.4146 21.052 19.1904 22.5599 19.1904C24.0678 19.1904 25.292 20.4146 25.292 21.9225C25.292 23.4305 24.0678 24.6547 22.5599 24.6547ZM22.5599 20.7666C21.9242 20.7666 21.404 21.2868 21.404 21.9225C21.404 22.5583 21.9242 23.0784 22.5599 23.0784C23.1956 23.0784 23.7158 22.5583 23.7158 21.9225C23.7158 21.2868 23.1956 20.7666 22.5599 20.7666Z" fill="#86888C"/>
</svg>
