<svg width="28" height="28" viewBox="0 0 28 28" fill="none" xmlns="http://www.w3.org/2000/svg">
<path d="M18.9647 26H11.1607C10.2394 26 9.47936 25.2504 9.46534 24.3327L9.44783 23.2329C8.30244 23.1208 7.39875 22.6654 6.75425 21.8843C5.62637 20.5113 5.6544 18.5112 5.74196 17.59L3.62633 17.0856L3.5913 17.0716C3.31458 16.963 3.10442 16.7283 3.03087 16.4411C2.95381 16.1539 3.02386 15.8421 3.2095 15.611C4.43895 14.1013 5.18503 12.42 5.52129 11.5513C5.64038 11.2466 5.70694 10.9243 5.72445 10.6021C5.85755 7.86296 6.81379 5.7228 8.56165 4.24466C9.90669 3.10628 11.7526 2.3637 13.8963 2.1045C15.4585 1.91536 16.6424 2.03795 16.751 2.05196C16.8981 2.06597 18.8141 2.27263 20.7336 3.40751C22.5655 4.49335 24.7407 6.64752 24.6811 10.7667C24.5901 17.2397 21.8404 19.1522 20.8176 19.6391L20.6565 24.3677C20.6285 25.2819 19.8824 26 18.9647 26ZM4.14473 16.1259L6.92938 16.7914L6.83831 17.2818C6.83481 17.3063 6.39697 19.8037 7.56688 21.2188C8.09579 21.8633 8.90491 22.1961 9.96974 22.2101L10.4811 22.2171L10.5162 24.3187C10.5232 24.669 10.8104 24.9527 11.1607 24.9527H18.9647C19.315 24.9527 19.5987 24.6795 19.6092 24.3292L19.7948 18.865L20.1626 18.7704C20.2152 18.7529 21.0243 18.4797 21.8369 17.4219C22.6285 16.3921 23.5813 14.4025 23.6303 10.7457C23.6723 7.85596 22.527 5.69478 20.2292 4.32522C18.4743 3.27441 16.6669 3.09227 16.6494 3.08877H16.6389C16.6284 3.08877 15.4865 2.95917 14.0014 3.14481C12.6563 3.31294 10.7368 3.7788 9.24117 5.04678C7.728 6.33228 6.89786 8.21674 6.77877 10.6511C6.75775 11.089 6.66668 11.5163 6.50906 11.9296C6.15879 12.8228 5.3987 14.5426 4.14473 16.1259Z" fill="#86888C"/>
<path d="M11.6826 10.6231L10.9225 9.89803L13.4129 7.28851L13.3183 3.04673L14.3691 3.02221L14.4742 7.69833L11.6826 10.6231Z" fill="#86888C"/>
<path d="M16.6809 6.94525H13.6406V7.99606H16.6809V6.94525Z" fill="#86888C"/>
<path d="M23.168 14.8158H17.6091V15.8667H23.168V14.8158Z" fill="#86888C"/>
<path d="M17.6021 8.9112L16.0363 13.4882L17.0306 13.8283L18.5964 9.25135L17.6021 8.9112Z" fill="#86888C"/>
<path d="M10.2324 13.1345C9.22715 13.1345 8.41102 12.3184 8.41102 11.3131C8.41102 10.3078 9.22715 9.49171 10.2324 9.49171C11.2377 9.49171 12.0538 10.3078 12.0538 11.3131C12.0538 12.3184 11.2342 13.1345 10.2324 13.1345ZM10.2324 10.5425C9.8086 10.5425 9.46184 10.8893 9.46184 11.3131C9.46184 11.737 9.8086 12.0837 10.2324 12.0837C10.6563 12.0837 11.003 11.737 11.003 11.3131C11.003 10.8893 10.6563 10.5425 10.2324 10.5425Z" fill="#86888C"/>
<path d="M18.2747 9.60731C17.2694 9.60731 16.4533 8.79118 16.4533 7.7859C16.4533 6.78062 17.2694 5.96449 18.2747 5.96449C19.2799 5.96449 20.0961 6.78062 20.0961 7.7859C20.0961 8.79118 19.2764 9.60731 18.2747 9.60731ZM18.2747 7.0153C17.8508 7.0153 17.5041 7.36207 17.5041 7.7859C17.5041 8.20973 17.8508 8.5565 18.2747 8.5565C18.6985 8.5565 19.0453 8.20973 19.0453 7.7859C19.0453 7.36207 18.6985 7.0153 18.2747 7.0153Z" fill="#86888C"/>
<path d="M16.0399 17.1031C15.0347 17.1031 14.2185 16.287 14.2185 15.2817C14.2185 14.2764 15.0347 13.4603 16.0399 13.4603C17.0452 13.4603 17.8613 14.2764 17.8613 15.2817C17.8613 16.287 17.0452 17.1031 16.0399 17.1031ZM16.0399 14.5111C15.6161 14.5111 15.2693 14.8579 15.2693 15.2817C15.2693 15.7055 15.6161 16.0523 16.0399 16.0523C16.4638 16.0523 16.8105 15.7055 16.8105 15.2817C16.8105 14.8579 16.4638 14.5111 16.0399 14.5111Z" fill="#86888C"/>
</svg>
