<svg width="28" height="28" viewBox="0 0 28 28" fill="none" xmlns="http://www.w3.org/2000/svg">
<path fill-rule="evenodd" clip-rule="evenodd" d="M24.985 19.7507V16.1919C24.9747 15.7479 24.599 15.2493 24.3634 14.9454C24.0082 14.4775 21.2623 10.8607 20.8046 10.2117C20.5587 9.87705 20.1011 9.64481 19.6639 9.60041V18.3163C21.2076 18.5212 22.1742 19.4945 22.3757 21.0417L23.6974 21.028C24.0014 21.028 24.3258 20.8846 24.582 20.6318C24.8415 20.3791 24.985 20.0546 24.985 19.7507ZM19.0594 23.9857C20.5929 23.9857 21.4057 23.1728 21.4057 21.6393C21.4057 20.0956 20.5929 19.2828 19.0594 19.2828C17.5123 19.2828 16.6995 20.0956 16.6995 21.6393C16.6995 23.1728 17.5123 23.9857 19.0594 23.9857ZM15.7329 21.0417C15.9378 19.4262 16.9966 18.4426 18.653 18.2958V6.53347C18.653 6.25 18.3764 6.01434 18.0417 6.01434H3.62568C3.29098 6.01434 3.01776 6.25 3.01776 6.52322V20.5123C3.01776 20.7958 3.29098 21.0314 3.62568 21.0314H3.6974C3.9194 19.2964 5.11817 18.2684 7.01025 18.2684C8.91257 18.2684 10.1113 19.293 10.3367 21.0314C10.3367 21.028 15.7329 21.0417 15.7329 21.0417ZM7.01025 23.9857C8.55738 23.9857 9.37022 23.1728 9.37022 21.6393C9.37022 20.0956 8.55738 19.2828 7.01025 19.2828C5.47678 19.2828 4.66393 20.0956 4.66393 21.6393C4.66393 23.1728 5.47678 23.9857 7.01025 23.9857ZM25.1694 14.3238C25.4836 14.7302 25.9925 15.403 26.0027 16.1954V19.7507C26.0027 20.3313 25.75 20.9085 25.3026 21.3559C24.862 21.793 24.2746 22.0458 23.7042 22.0458L22.3928 22.056C22.2322 23.9037 21.0232 25 19.0594 25C17.0854 25 15.8764 23.9037 15.7124 22.056L10.3538 22.0458C10.1899 23.9037 8.98087 25 7.00683 25C5.04645 25 3.83402 23.9037 3.6735 22.0423H3.62227C2.73087 22.0458 2 21.3559 2 20.5123V6.52322C2 5.67964 2.73087 5 3.62568 5H18.0417C18.9365 5 19.6673 5.68989 19.6673 6.53347V8.58607C20.429 8.62705 21.194 9.01298 21.6277 9.6209C22.0888 10.263 24.8142 13.8695 25.1694 14.3238ZM14.8893 13.4221V11.6735H12.2152C11.9385 11.6769 11.7097 11.4549 11.7063 11.1749V8.50068H9.9679L9.95765 11.1646C9.95765 11.4447 9.72882 11.6735 9.44877 11.6735L6.77801 11.6837V13.4221H9.44877C9.73566 13.4221 9.95765 13.6544 9.95765 13.931V16.6018H11.7063V13.931C11.7063 13.7978 11.7575 13.6646 11.86 13.5724C11.9488 13.4734 12.082 13.4221 12.2152 13.4221H14.8893ZM14.9098 10.6592C15.4392 10.6592 15.9037 11.0758 15.9037 11.554V13.5451C15.9037 14.0232 15.4358 14.4399 14.9098 14.4399H12.724V16.6223C12.724 17.1619 12.3176 17.6195 11.8292 17.6195H9.83811C9.34973 17.6195 8.94331 17.1619 8.94331 16.6223V14.4399L6.75751 14.4501C6.2179 14.4501 5.76025 14.0335 5.76025 13.5553V11.554C5.76025 11.0792 6.2179 10.6694 6.75751 10.6694L8.94331 10.6592V8.47336C8.94331 7.94399 9.35997 7.48634 9.83811 7.48634H11.8292C12.3074 7.48634 12.724 7.94399 12.724 8.47336V10.6592H14.9098Z" fill="#86888C"/>
</svg>
