<svg width="24" height="24" viewBox="0 0 24 24" fill="none" xmlns="http://www.w3.org/2000/svg">
<path d="M14.5767 22C14.1087 22 13.7494 21.6396 13.5352 21.4313L13.5319 21.428L7.4511 15.2451C7.40826 15.2021 7.35223 15.1757 7.2929 15.1757C7.26324 15.1757 7.20721 15.179 7.16436 15.2253L3.90149 18.4986L3.89489 18.5052C3.58509 18.8027 3.03468 18.8887 2.61281 18.7069C2.2239 18.5382 1.99979 18.1811 2.00308 17.7282V2.85283C1.98331 2.60155 2.05911 2.37671 2.21731 2.21801C2.37551 2.0593 2.60293 1.98325 2.85011 2.00309L17.7539 2.00971H17.7671C18.1527 2.00971 18.4658 2.2147 18.624 2.56848C18.8184 3.00823 18.7295 3.59676 18.4164 3.93732L18.4065 3.94724L15.3908 6.97256C15.3479 7.01555 15.3413 7.07175 15.3413 7.10151C15.3446 7.16103 15.3677 7.21723 15.4138 7.26022L21.3826 13.2712C22.1472 14.0383 22.1406 14.8582 21.3628 15.6386L15.4237 21.6065L15.4138 21.6165C15.1073 21.8975 14.8272 22 14.5767 22ZM14.0032 20.9651C14.4811 21.4412 14.6393 21.4313 14.9623 21.137L20.9014 15.1757C21.1618 14.9145 21.2936 14.6731 21.2969 14.4549C21.3002 14.2333 21.1783 14.0019 20.9212 13.744L14.9491 7.72972C14.7876 7.56771 14.6921 7.34949 14.6855 7.12466C14.6789 6.8899 14.7646 6.67168 14.9261 6.50637L17.9385 3.48435C18.0703 3.33556 18.1131 3.03468 18.0241 2.8363C17.9582 2.68751 17.8495 2.66767 17.7638 2.66767H17.7605L2.84023 2.66106C2.83034 2.66106 2.81716 2.66106 2.80727 2.65775C2.75124 2.65114 2.70839 2.66106 2.68862 2.6809C2.66884 2.70074 2.65895 2.74703 2.66555 2.79993C2.66555 2.80985 2.66884 2.82307 2.66884 2.83299V17.7216C2.66884 17.9133 2.73476 18.0291 2.87978 18.0919C3.07753 18.1778 3.3346 18.1216 3.44336 18.0191L6.70295 14.7491C6.86444 14.5871 7.08526 14.5012 7.31927 14.5078C7.54668 14.5144 7.76091 14.607 7.92241 14.7723L14.0032 20.9651Z" fill="#86888C"/>
</svg>
