<svg width="28" height="28" viewBox="0 0 28 28" fill="none" xmlns="http://www.w3.org/2000/svg">
<path d="M25.9707 10.8787C25.9707 11.4403 25.5382 11.8714 25.2883 12.1284L25.2843 12.1324L17.8648 19.4294C17.8132 19.4808 17.7815 19.548 17.7815 19.6192C17.7815 19.6548 17.7855 19.7221 17.841 19.7735L21.769 23.6889L21.7769 23.6968C22.134 24.0686 22.2372 24.7291 22.0189 25.2353C21.8166 25.702 21.3881 25.971 20.8445 25.967H2.9941C2.69256 25.9907 2.42276 25.8998 2.23231 25.7099C2.04186 25.5201 1.95061 25.2472 1.97441 24.9506L1.98235 7.06604V7.05022C1.98235 6.58748 2.22834 6.21176 2.65288 6.02192C3.18058 5.78857 3.88682 5.89536 4.29548 6.27108L4.30739 6.28295L7.93778 9.90178C7.98936 9.95319 8.05681 9.9611 8.09252 9.9611C8.16393 9.95715 8.23138 9.92946 8.28296 9.87409L15.4961 2.71158C16.4166 1.79402 17.4006 1.80193 18.337 2.73531L25.4986 9.86223L25.5105 9.87409C25.8477 10.2419 25.9707 10.5781 25.9707 10.8787ZM24.7288 11.5668C25.3002 10.9934 25.2883 10.8035 24.9352 10.4159L17.7815 3.28901C17.4681 2.97657 17.1784 2.81837 16.9165 2.81441C16.6507 2.81046 16.373 2.95679 16.0635 3.26528L8.84637 10.4317C8.65195 10.6255 8.39009 10.7402 8.12029 10.7481C7.83859 10.7561 7.57672 10.6532 7.37834 10.4594L3.75192 6.84456C3.57337 6.68636 3.21232 6.63494 2.97426 6.74173C2.79572 6.82083 2.77191 6.95134 2.77191 7.05417V7.05813L2.76398 24.9624C2.76398 24.9743 2.76398 24.9901 2.76001 25.002C2.75207 25.0692 2.76398 25.1206 2.78778 25.1444C2.81159 25.1681 2.86713 25.18 2.93062 25.172C2.94252 25.172 2.95839 25.1681 2.97029 25.1681H20.8366C21.0667 25.1681 21.2056 25.089 21.281 24.915C21.3841 24.6777 21.3167 24.3692 21.1937 24.2387L17.2697 20.3272C17.0753 20.1334 16.9721 19.8684 16.98 19.5876C16.988 19.3147 17.0991 19.0576 17.2974 18.8638L24.7288 11.5668Z" fill="#86888C"/>
</svg>
