<svg width="20" height="20" viewBox="0 0 20 20" fill="none" xmlns="http://www.w3.org/2000/svg">
<path d="M9.90531 18C9.73645 18 9.57885 17.9248 9.47078 17.7927L2.1513 10.1322L2.13779 10.1185C1.98695 9.93164 1.95768 9.67417 2.06124 9.4577C2.15355 9.25263 2.35618 9.12048 2.57908 9.12048H5.93149C6.00129 9.12048 6.05983 9.05212 6.05983 8.97009V3.36713C6.05983 2.61293 6.66547 2 7.4107 2H12.4022C13.1474 2 13.753 2.61293 13.753 3.36713L13.7508 8.96782C13.7508 9.05212 13.8071 9.1182 13.8791 9.1182H17.2518C17.4747 9.12048 17.6773 9.25036 17.7696 9.4577C17.8732 9.67417 17.8439 9.93164 17.6908 10.1185L17.6773 10.1322L10.3376 17.7927C10.2318 17.9225 10.0742 17.9977 9.90531 18ZM2.48452 9.82455L9.80174 17.4828L9.81525 17.4964C9.83776 17.5261 9.87154 17.542 9.90756 17.5443C9.94358 17.5443 9.97735 17.5261 9.99987 17.4964L10.0134 17.4828L17.3486 9.82455C17.3846 9.77442 17.3891 9.70834 17.3644 9.65366C17.3464 9.60809 17.3013 9.57619 17.2518 9.57619H13.8769C13.5572 9.57619 13.2982 9.30276 13.2982 8.97009L13.3005 3.37169C13.3005 2.86813 12.8975 2.46027 12.3999 2.46027H7.4107C6.91313 2.46027 6.51012 2.86813 6.51012 3.37169V8.96782C6.51012 9.30276 6.2512 9.57391 5.93149 9.57391H2.58133C2.5318 9.57391 2.48677 9.60581 2.46876 9.65138C2.44174 9.70834 2.44849 9.77442 2.48452 9.82455Z" fill="#86888C"/>
</svg>
