<svg width="28" height="28" viewBox="0 0 28 28" fill="none" xmlns="http://www.w3.org/2000/svg">
<path fill-rule="evenodd" clip-rule="evenodd" d="M21.4392 21.0521C19.2926 21.0521 18.2514 19.9595 18.2514 17.7164C18.2514 16.3186 18.6563 15.3706 19.4789 14.85L20.9925 17.9253C21.0761 18.0988 21.2464 18.1952 21.4167 18.1952C21.4938 18.1952 21.5677 18.176 21.6352 18.1406C21.873 18.0089 21.963 17.71 21.8409 17.469L20.3819 14.5061C20.7033 14.4322 21.0439 14.384 21.4392 14.384C23.5858 14.384 24.6302 15.4766 24.6302 17.7196C24.627 19.9595 23.5826 21.0521 21.4392 21.0521ZM14.1702 16.0743C14.0963 16.0743 14.032 16.084 13.9645 16.0904L11.4966 10.8138H16.9949L14.3791 16.0904C14.3116 16.084 14.2473 16.0711 14.1702 16.0743ZM14.1702 18.6644C13.6239 18.6644 13.4118 18.4427 13.4118 17.8675C13.4118 17.2955 13.6239 17.0705 14.1702 17.0705C14.7197 17.0705 14.9318 17.2955 14.9318 17.8675C14.9318 18.4427 14.7197 18.6644 14.1702 18.6644ZM7.14544 21.0521C4.99881 21.0521 3.95763 19.9595 3.95763 17.7164C3.95763 15.4734 4.99881 14.3808 7.14544 14.3808C7.515 14.3808 7.84599 14.4258 8.15128 14.4933L6.69555 17.4722C6.61843 17.6265 6.62807 17.8096 6.71483 17.9607C6.79838 18.1085 6.95263 18.1985 7.12295 18.1985H10.3075C10.1565 20.1073 9.12819 21.0521 7.14544 21.0521ZM10.3043 17.1991H7.90383L9.0607 14.8275C9.80303 15.2742 10.2079 16.0647 10.3043 17.1991ZM10.7157 11.4308L13.0551 16.431C12.8109 16.6303 12.6341 16.897 12.5474 17.2023H11.2555C11.1431 15.6662 10.5389 14.5575 9.4881 13.9502L10.7157 11.4308ZM21.436 13.3814C20.8768 13.3814 20.3819 13.4617 19.932 13.5967L18.2578 10.1968V7.07968C18.7045 7.03147 19.3665 7.03469 19.7135 7.32712C19.8196 7.4171 19.961 7.57777 19.961 7.96661C19.9545 8.23654 20.1698 8.45828 20.4398 8.4647C20.7097 8.45828 20.9218 8.23654 20.9186 7.96661C20.9186 7.21143 20.5908 6.77761 20.3145 6.54623C19.4115 5.78784 17.8561 6.12205 17.6794 6.16382C17.4576 6.22167 17.3034 6.42412 17.3066 6.65228V9.8176H11.0274L10.179 8.00838H11.2812C11.5512 8.00196 11.7665 7.77701 11.7601 7.51029C11.7665 7.24035 11.5512 7.01541 11.2812 7.01219H8.07736C7.80743 7.01862 7.59534 7.24035 7.59855 7.51029C7.59212 7.78022 7.80743 8.00517 8.07736 8.0116H9.11533L10.1886 10.3093L8.58831 13.5871C8.11593 13.4521 7.63068 13.3846 7.13902 13.3878C4.47179 13.3814 3 14.9207 3 17.7164C3 20.5122 4.47179 22.0515 7.14544 22.0515C9.65842 22.0515 11.0916 20.6793 11.2587 18.1985H12.4799C12.5827 19.0115 13.0712 19.5256 13.8456 19.6381L14.6265 21.277C14.7069 21.4473 14.874 21.5534 15.0539 21.5534H16.0019C16.2718 21.5469 16.4871 21.322 16.4807 21.0553C16.4871 20.7853 16.2718 20.5604 16.0019 20.554H15.3496L14.8707 19.5514C15.5199 19.3168 15.8894 18.7255 15.8894 17.8707C15.8894 17.228 15.6741 16.7363 15.2885 16.4342L17.7822 11.4083L19.0451 13.9727C17.9075 14.6604 17.2937 15.9265 17.2937 17.7196C17.2937 20.5154 18.7655 22.0547 21.4392 22.0547C24.1128 22.0547 25.5846 20.5154 25.5846 17.7196C25.5846 14.9239 24.1128 13.3814 21.436 13.3814Z" fill="#86888C"/>
</svg>
