<svg width="20" height="20" viewBox="0 0 20 20" fill="none" xmlns="http://www.w3.org/2000/svg">
<path fill-rule="evenodd" clip-rule="evenodd" d="M16.4434 9.43768C15.9767 9.09163 15.4553 8.94365 15.0137 8.88674C15.1093 8.50199 14.9659 8.12635 14.704 7.85999C14.7018 7.85771 14.6494 7.80307 14.6471 7.80307C14.5014 7.66192 14.2943 7.68697 14.144 7.82584C13.996 7.96471 14.0188 8.22197 14.1599 8.36767C14.3648 8.5794 14.2988 8.75014 14.2146 8.85942C14.1804 8.8617 14.1394 8.86397 14.1144 8.86625C14.0256 8.87536 13.9232 8.88674 13.8321 8.9004C13.7228 8.91406 13.6135 8.93455 13.5065 8.95959C13.3085 9.00057 13.181 9.19408 13.222 9.39442C13.222 9.3967 13.222 9.39898 13.2242 9.40125C13.2698 9.59932 13.4769 9.72225 13.675 9.67672C13.7797 9.65396 13.8708 9.6403 13.9368 9.63119C14.0188 9.61981 14.1098 9.60842 14.1918 9.60159C14.4969 9.56744 15.5487 9.52419 16.2294 10.2413C16.8645 11.07 16.9146 12.2129 16.9146 12.5452C16.9146 13.2943 16.7097 15.7211 14.103 15.7644H14.0985C13.9004 15.7894 13.6841 15.7006 13.4496 15.5504C13.206 15.3956 13.0467 15.2203 12.9806 15.0313C12.9101 14.8378 12.6983 14.7376 12.5026 14.8014C12.309 14.8628 12.2043 15.0677 12.2658 15.2612C12.2658 15.2635 12.2681 15.2658 12.2681 15.2681C12.3887 15.6141 12.6483 15.9192 13.0376 16.1651C13.1969 16.2675 13.3586 16.3449 13.5179 16.3995C13.2425 16.9664 12.7462 17.2692 12.0063 17.2692C11.107 17.2692 10.7769 16.3495 10.7131 16.1423C10.7154 15.9784 10.7177 15.473 10.7131 15.3478V4.65908C10.7131 4.50655 10.7177 3.93512 10.72 3.74161C10.8065 3.52988 11.1867 2.73534 12.0085 2.73534C12.7439 2.73534 13.2402 3.03586 13.5157 3.59818C12.9146 3.80763 12.5253 4.30848 12.35 4.79795L12.2977 4.95048C12.2385 5.144 12.3478 5.34889 12.5413 5.40808C12.5435 5.40808 12.5458 5.40808 12.5458 5.41036C12.5822 5.42174 12.6209 5.4263 12.6574 5.4263C12.8213 5.4263 12.967 5.32385 13.0171 5.16676L13.0603 5.04155C13.1491 4.79567 13.461 4.23335 14.1098 4.23563C16.7143 4.24246 16.9192 6.70575 16.9192 7.46158C16.9124 7.75071 16.8736 8.66136 16.4434 9.43768ZM8.66192 17.2647C7.93341 17.2647 7.43939 16.971 7.16164 16.42C7.34604 16.3654 7.53045 16.2812 7.71258 16.1628C8.10188 15.9146 8.36141 15.6118 8.48207 15.2658C8.54809 15.0746 8.44565 14.8674 8.25441 14.8014C8.25213 14.8014 8.24986 14.7991 8.2453 14.7991C8.04952 14.7331 7.83779 14.8355 7.76722 15.029C7.70119 15.218 7.54411 15.3933 7.29824 15.5504C7.06602 15.7006 6.84747 15.7871 6.65168 15.7644C6.63574 15.7644 6.62208 15.7712 6.60842 15.7735C6.59476 15.7712 6.5811 15.7666 6.56744 15.7666C3.9539 15.7666 3.749 13.2988 3.749 12.5407C3.749 12.2402 3.79454 11.2817 4.26579 10.4895C4.47524 10.5874 4.70973 10.6602 4.98748 10.683C5.01707 10.6853 5.04439 10.6853 5.07399 10.6853C5.06033 11.1975 5.39954 11.5686 5.82299 11.7302L5.89812 11.7575C5.93682 11.7712 5.97553 11.778 6.01195 11.778C6.15766 11.778 6.28287 11.6779 6.34206 11.5276C6.41491 11.3386 6.28287 11.1178 6.09163 11.045C5.78429 10.9266 5.79795 10.7194 5.83665 10.5828C6.51281 10.346 6.83153 9.74502 6.88845 9.18042L6.89983 9.05521C6.91349 8.85031 6.76096 8.67501 6.55606 8.65908H6.55151C6.34661 8.64087 6.16676 8.79112 6.14855 8.99602L6.13944 9.11212C6.09619 9.53102 5.88219 10.0228 5.05122 9.94764C4.76892 9.92487 4.5572 9.84519 4.40922 9.72453C3.79909 8.9004 3.74673 7.78714 3.74673 7.46158C3.74673 6.70575 3.95162 4.23563 6.62891 4.23563H6.63119C7.35287 4.22197 7.60102 4.7934 7.68981 5.04382L7.73307 5.16904C7.79681 5.36483 8.00626 5.4741 8.20433 5.41264C8.40467 5.35344 8.51394 5.14627 8.45248 4.95276L8.40011 4.8025C8.21799 4.29027 7.80364 3.76665 7.15709 3.57997C7.43483 3.0313 7.92886 2.7399 8.65737 2.7399C9.55663 2.7399 9.88674 3.65965 9.95048 3.86682C9.94821 4.03073 9.94365 4.53614 9.95048 4.66135V15.3409C9.95048 15.4935 9.94593 16.0649 9.94365 16.2584C9.86397 16.4701 9.48378 17.2647 8.66192 17.2647ZM17.6659 7.45931C17.6659 6.8173 17.5043 3.68014 14.3102 3.51167C13.9505 2.535 13.1423 2 12.004 2C11.1571 2 10.6312 2.49175 10.3261 2.92203C9.99829 2.44394 9.45874 2 8.66192 2C7.52362 2 6.71542 2.53273 6.35572 3.50484C3.16619 3.64143 3 6.81275 3 7.46158C3 7.82584 3.05236 9.02106 3.68981 9.99772C3.05464 10.9767 3 12.1742 3 12.5407C3 13.1827 3.16164 16.3199 6.35572 16.4883C6.71542 17.465 7.52362 18 8.6642 18C9.50882 18 10.0347 17.5083 10.3398 17.078C10.6676 17.5561 11.2094 18 12.004 18C13.14 18 13.9482 17.4696 14.3102 16.4952C17.502 16.3608 17.6659 13.1873 17.6659 12.5407C17.6659 12.1764 17.6135 10.9812 16.9761 10.0023C17.6135 9.02334 17.6659 7.82584 17.6659 7.45931Z" fill="#86888C"/>
</svg>
