<svg width="28" height="28" viewBox="0 0 28 28" fill="none" xmlns="http://www.w3.org/2000/svg">
<path fill-rule="evenodd" clip-rule="evenodd" d="M20.9406 12.34C20.9406 20.9091 19.0224 23.9423 13.6156 23.9423C8.20529 23.9423 6.2907 20.9055 6.2907 12.34C6.2907 11.1067 6.33014 10.0346 6.40543 9.05583C8.28776 9.81951 10.5107 10.2282 13.0527 10.282L13.1029 19.7904C13.1029 20.0844 13.3431 20.3175 13.6407 20.3175H13.6443C13.9383 20.3139 14.1785 20.0773 14.1785 19.7833L14.1283 10.2784C16.6955 10.2282 18.9327 9.81593 20.8258 9.04507C20.9011 10.0239 20.9406 11.0995 20.9406 12.34ZM25.9565 4.10442C25.7091 3.94308 25.3757 4.0112 25.2107 4.25501C22.9986 7.56431 19.0905 9.24227 13.6049 9.24227C8.11207 9.24227 4.20043 7.56073 1.98825 4.24067C1.82332 3.99327 1.4863 3.92515 1.24249 4.09008C0.991514 4.25142 0.926978 4.58128 1.08832 4.82508C2.16393 6.4385 3.61601 7.67904 5.3836 8.57897C5.37285 8.61124 5.3585 8.63992 5.35492 8.67578C5.25811 9.75498 5.2115 10.9525 5.2115 12.3364C5.2115 20.1526 6.61697 25 13.612 25C20.6071 25 22.0126 20.1526 22.0126 12.3364C22.0126 11.0063 21.9696 9.85178 21.8835 8.81202C21.8763 8.72956 21.8441 8.65427 21.8046 8.58614C23.5758 7.68263 25.0279 6.44567 26.1071 4.83584C26.272 4.59562 26.2039 4.26576 25.9565 4.10442Z" fill="#86888C"/>
</svg>
