<svg width="24" height="24" viewBox="0 0 24 24" fill="none" xmlns="http://www.w3.org/2000/svg">
<path fill-rule="evenodd" clip-rule="evenodd" d="M17.1928 10.3543C17.1928 16.8831 15.7313 19.1941 11.6119 19.1941C7.48975 19.1941 6.03101 16.8804 6.03101 10.3543C6.03101 9.4146 6.06106 8.59782 6.11843 7.85206C7.55258 8.43391 9.24624 8.74533 11.183 8.78631L11.2213 16.0308C11.2213 16.2548 11.4043 16.4324 11.631 16.4324H11.6338C11.8578 16.4296 12.0408 16.2494 12.0408 16.0254L12.0025 8.78357C13.9585 8.74533 15.663 8.43118 17.1054 7.84386C17.1628 8.58962 17.1928 9.40914 17.1928 10.3543ZM21.0145 4.07956C20.826 3.95663 20.5719 4.00853 20.4463 4.19429C18.7608 6.71567 15.7832 7.99411 11.6037 7.99411C7.41872 7.99411 4.43842 6.71293 2.75295 4.18336C2.62729 3.99488 2.37051 3.94297 2.18475 4.06863C1.99353 4.19156 1.94436 4.44288 2.06729 4.62863C2.88681 5.85791 3.99315 6.80308 5.33989 7.48874C5.33169 7.51333 5.32077 7.53518 5.31803 7.5625C5.24428 8.38474 5.20876 9.29714 5.20876 10.3516C5.20876 16.3067 6.2796 20 11.6092 20C16.9388 20 18.0096 16.3067 18.0096 10.3516C18.0096 9.33811 17.9768 8.4585 17.9112 7.6663C17.9058 7.60347 17.8812 7.54611 17.8511 7.4942C19.2006 6.80581 20.307 5.86337 21.1292 4.63683C21.2549 4.4538 21.203 4.20249 21.0145 4.07956Z" fill="#86888C"/>
</svg>
