<svg width="40" height="40" viewBox="0 0 40 40" fill="none" xmlns="http://www.w3.org/2000/svg">
<path fill-rule="evenodd" clip-rule="evenodd" d="M11.4357 27.2832C11.5997 27.2832 11.7739 27.3037 11.9584 27.3447C12.9064 27.5753 13.9569 28.4003 13.5879 31.0394C13.4239 32.1975 13.5059 33.2223 13.8287 34.0883C14.1721 35.0158 14.6896 35.641 15.366 35.9382C19.3681 37.6959 24.8461 36.4814 29.6629 32.7765C33.1731 30.0657 35.4534 26.3608 36.0837 22.3485C36.094 22.2716 36.1196 22.1999 36.1503 22.1281C36.2631 21.667 36.3399 21.257 36.3912 20.8471C37.1752 14.8875 32.799 13.5039 30.8825 13.1862C30.7032 13.1708 30.4316 13.1298 30.1907 13.094C29.914 13.0632 29.2991 13.0068 28.5714 13.0683C28.3562 13.0888 28.1308 13.0068 27.9719 12.8531C27.4338 12.3304 26.9675 11.7155 26.5883 11.0186C25.5942 9.18409 25.3687 7.05749 25.9529 5.03851C25.9632 5.01289 25.9734 4.98214 25.9837 4.95652C25.9939 4.9309 26.0861 4.66443 25.9785 4.42871C25.8658 4.18274 25.5481 4.03414 25.297 3.94703C24.103 3.53708 23.7853 4.27498 23.7341 4.42871C22.9808 7.00113 23.2729 9.75289 24.5642 12.1408C24.7897 12.5508 25.0408 12.9453 25.3124 13.3194C25.5532 13.6525 25.4968 14.1137 25.1843 14.3802C24.0108 15.3589 23.2729 16.9116 22.9962 18.9818C22.9398 19.3508 22.9091 19.6992 22.9091 20.0015C22.8219 20.5704 22.8988 21.1187 22.9757 21.6516C23.114 22.6457 23.278 23.7731 22.5196 24.6186C21.8688 25.3513 20.6953 25.6639 18.8403 25.5819C18.7686 25.5768 18.6917 25.5666 18.6251 25.5409C18.3587 25.4487 18.0512 25.3616 17.7181 25.2745C16.5293 25.008 14.7563 24.7621 13.7058 24.803C13.6648 24.803 13.6289 24.803 13.5879 24.7979H13.5213C11.9481 24.7108 10.3545 25.0234 8.88377 25.6998C6.42922 26.8374 4.56396 28.8666 3.62621 31.4186C3.52885 31.6594 3.41611 32.177 4.11302 32.5818C4.8253 32.9917 5.28137 32.8534 5.87579 32.0386C6.06026 31.7824 6.24474 31.521 6.42409 31.2648C7.32597 29.9684 8.2586 28.6309 9.81127 27.8366L10.0009 27.7342C10.3698 27.5394 10.8361 27.2832 11.4357 27.2832ZM19.3374 38.2852C17.7027 38.2852 16.1552 37.9879 14.7511 37.373C13.675 36.8965 12.8807 35.9792 12.3837 34.6418C11.9737 33.5298 11.861 32.2487 12.0609 30.8293C12.23 29.6404 12.0711 28.9845 11.5997 28.8666C11.3332 28.8 11.1231 28.9076 10.749 29.1075L10.5236 29.2305C9.31421 29.8505 8.53019 30.9779 7.70005 32.1667C7.51557 32.4332 7.3311 32.6996 7.13637 32.9661C5.79892 34.8109 4.34361 34.5136 3.35974 33.9397C1.7712 33.0173 1.91468 31.5057 2.21702 30.8395C3.27775 27.9494 5.42997 25.6076 8.2586 24.2957C9.95475 23.5168 11.8046 23.1581 13.6186 23.2555C13.634 23.2555 13.6545 23.2555 13.6699 23.2606C14.8844 23.2043 16.8265 23.4861 18.1024 23.7731C18.4509 23.8653 18.7532 23.9524 19.0299 24.0395C20.7107 24.0959 21.2283 23.7782 21.3974 23.5886C21.6741 23.2811 21.5767 22.6047 21.4742 21.8822C21.3871 21.257 21.2846 20.555 21.4025 19.8786C21.3923 19.6377 21.4281 19.2073 21.4947 18.7717C21.7817 16.6144 22.5247 14.9028 23.6982 13.6781C23.5342 13.427 23.3805 13.1708 23.2319 12.9044C21.7407 10.1475 21.4025 6.97038 22.2839 3.9624C22.6272 2.9734 23.8314 1.81018 25.8146 2.48659C26.7984 2.8248 27.2289 3.39872 27.4133 3.82404C27.7464 4.58244 27.5261 5.29985 27.4441 5.52532C26.988 7.13948 27.1725 8.83051 27.9616 10.2909C28.2076 10.7368 28.4997 11.1518 28.8277 11.5105C29.4836 11.4798 30.0421 11.5259 30.4162 11.572C30.657 11.6079 30.8928 11.6489 31.0926 11.6643C34.941 12.2997 38.7227 15.0976 37.9387 21.0725C37.867 21.6157 37.7594 22.1589 37.621 22.6713C37.6159 22.6918 37.6108 22.7072 37.6056 22.7277C36.8882 27.0885 34.4081 31.1008 30.616 34.0371C26.9727 36.8093 22.9603 38.2852 19.3374 38.2852Z" fill="#86888C"/>
</svg>
