<svg width="28" height="28" viewBox="0 0 28 28" fill="none" xmlns="http://www.w3.org/2000/svg">
<path fill-rule="evenodd" clip-rule="evenodd" d="M23.1651 13.1565C22.465 12.6375 21.683 12.4155 21.0205 12.3301C21.1639 11.753 20.9488 11.1895 20.5561 10.79C20.5526 10.7866 20.4741 10.7046 20.4707 10.7046C20.2521 10.4929 19.9414 10.5304 19.716 10.7388C19.494 10.9471 19.5282 11.333 19.7399 11.5515C20.0472 11.8691 19.9482 12.1252 19.8219 12.2891C19.7706 12.2925 19.7092 12.296 19.6716 12.2994C19.5384 12.313 19.3847 12.3301 19.2482 12.3506C19.0842 12.3711 18.9203 12.4018 18.7598 12.4394C18.4627 12.5009 18.2715 12.7911 18.333 13.0916C18.333 13.095 18.333 13.0985 18.3364 13.1019C18.4047 13.399 18.7154 13.5834 19.0125 13.5151C19.1696 13.4809 19.3062 13.4604 19.4052 13.4468C19.5282 13.4297 19.6648 13.4126 19.7877 13.4024C20.2453 13.3512 21.823 13.2863 22.8441 14.362C23.7968 15.605 23.8719 17.3193 23.8719 17.8179C23.8719 18.9414 23.5646 22.5817 19.6545 22.6466H19.6477C19.3506 22.6841 19.0262 22.5509 18.6744 22.3256C18.309 22.0933 18.07 21.8304 17.971 21.547C17.8651 21.2567 17.5475 21.1064 17.2538 21.202C16.9636 21.2943 16.8065 21.6016 16.8987 21.8919C16.8987 21.8953 16.9021 21.8987 16.9021 21.9021C17.0831 22.4212 17.4724 22.8788 18.0563 23.2476C18.2954 23.4013 18.5378 23.5174 18.7769 23.5993C18.3637 24.4496 17.6192 24.9038 16.5094 24.9038C15.1605 24.9038 14.6653 23.5242 14.5697 23.2134C14.5731 22.9676 14.5766 22.2094 14.5697 22.0216V5.98862C14.5697 5.75982 14.5766 4.90267 14.58 4.61241C14.7097 4.29482 15.28 3.10302 16.5128 3.10302C17.6158 3.10302 18.3603 3.55378 18.7735 4.39727C17.8719 4.71144 17.288 5.46272 17.025 6.19693L16.9465 6.42573C16.8577 6.71599 17.0216 7.02333 17.3119 7.11212C17.3153 7.11212 17.3187 7.11212 17.3187 7.11554C17.3734 7.13261 17.4314 7.13944 17.4861 7.13944C17.7319 7.13944 17.9505 6.98577 18.0256 6.75014L18.0905 6.56232C18.2237 6.19351 18.6915 5.35003 19.6648 5.35344C23.5714 5.36369 23.8788 9.05862 23.8788 10.1924C23.8685 10.6261 23.8105 11.992 23.1651 13.1565ZM11.4929 24.897C10.4001 24.897 9.65908 24.4565 9.24246 23.6301C9.51907 23.5481 9.79567 23.4217 10.0689 23.2442C10.6528 22.8719 11.0421 22.4178 11.2231 21.8987C11.3221 21.6118 11.1685 21.3011 10.8816 21.202C10.8782 21.202 10.8748 21.1986 10.868 21.1986C10.5743 21.0996 10.2567 21.2533 10.1508 21.5435C10.0518 21.827 9.81616 22.0899 9.44735 22.3256C9.09903 22.5509 8.7712 22.6807 8.47752 22.6466C8.45361 22.6466 8.43312 22.6568 8.41264 22.6602C8.39215 22.6568 8.37166 22.65 8.35117 22.65C4.43085 22.65 4.12351 18.9482 4.12351 17.811C4.12351 17.3603 4.1918 15.9226 4.89869 14.7342C5.21286 14.881 5.5646 14.9903 5.98122 15.0245C6.02561 15.0279 6.06659 15.0279 6.11098 15.0279C6.0905 15.7962 6.59932 16.3529 7.23449 16.5953L7.34718 16.6363C7.40524 16.6568 7.46329 16.667 7.51793 16.667C7.73648 16.667 7.9243 16.5168 8.01309 16.2914C8.12237 16.008 7.9243 15.6767 7.63745 15.5674C7.17644 15.3899 7.19693 15.0791 7.25498 14.8742C8.26921 14.5191 8.7473 13.6175 8.83267 12.7706L8.84974 12.5828C8.87023 12.2755 8.64143 12.0125 8.33409 11.9886H8.32726C8.01992 11.9613 7.75014 12.1867 7.72282 12.494L7.70916 12.6682C7.64428 13.2965 7.32328 14.0341 6.07684 13.9215C5.65339 13.8873 5.3358 13.7678 5.11383 13.5868C4.19863 12.3506 4.12009 10.6807 4.12009 10.1924C4.12009 9.05862 4.42743 5.35344 8.44337 5.35344H8.44678C9.52931 5.33295 9.90154 6.1901 10.0347 6.56574L10.0996 6.75356C10.1952 7.04724 10.5094 7.21115 10.8065 7.11895C11.107 7.03016 11.2709 6.71941 11.1787 6.42914L11.1002 6.20376C10.827 5.4354 10.2055 4.64997 9.23563 4.36995C9.65225 3.54696 10.3933 3.10985 11.4861 3.10985C12.8349 3.10985 13.3301 4.48947 13.4257 4.80023C13.4223 5.0461 13.4155 5.80421 13.4257 5.99203V22.0114C13.4257 22.2402 13.4189 23.0973 13.4155 23.3876C13.296 23.7052 12.7257 24.897 11.4929 24.897ZM24.9989 10.189C24.9989 9.22595 24.7564 4.52021 19.9653 4.2675C19.4257 2.8025 18.2134 2 16.506 2C15.2356 2 14.4468 2.73762 13.9892 3.38304C13.4974 2.66591 12.6881 2 11.4929 2C9.78543 2 8.57314 2.79909 8.03358 4.25726C3.24929 4.46215 3 9.21912 3 10.1924C3 10.7388 3.07854 12.5316 4.03472 13.9966C3.08196 15.465 3 17.2612 3 17.811C3 18.774 3.24246 23.4798 8.03358 23.7325C8.57314 25.1975 9.78543 26 11.4963 26C12.7632 26 13.5521 25.2624 14.0097 24.617C14.5014 25.3341 15.3142 26 16.506 26C18.21 26 19.4223 25.2043 19.9653 23.7427C24.753 23.5413 24.9989 18.7809 24.9989 17.811C24.9989 17.2647 24.9203 15.4718 23.9641 14.0034C24.9203 12.535 24.9989 10.7388 24.9989 10.189Z" fill="#86888C"/>
</svg>
