<svg width="24" height="24" viewBox="0 0 24 24" fill="none" xmlns="http://www.w3.org/2000/svg">
<path fill-rule="evenodd" clip-rule="evenodd" d="M13.236 18.3576C13.4099 18.1868 13.6925 18.1868 13.8696 18.3576C14.0435 18.5284 14.0435 18.8048 13.8696 18.9787C13.2733 19.5626 12.6335 19.8669 11.9689 19.8762H11.9317C11.2547 19.8762 10.6025 19.575 9.99379 18.9756C9.81988 18.8048 9.81988 18.5284 9.99379 18.3545C10.1677 18.1837 10.4503 18.1837 10.6273 18.3545C11.0714 18.7893 11.5373 18.9849 11.9565 18.9974C12.3758 18.9911 12.8075 18.7769 13.236 18.3576ZM20.6491 17.1526C21.1273 17.1464 21.9317 16.9632 21.9317 15.8172C21.9317 14.6744 21.1366 14.4942 20.6646 14.4911C20.5745 14.4911 20.5155 14.4911 20.4255 14.4943C20.3975 15.3669 20.3354 16.1992 20.1801 17.1216C20.2174 17.134 20.2422 17.1371 20.2795 17.1371C20.3975 17.1526 20.4565 17.1526 20.4969 17.1557L20.6491 17.1526ZM19.5404 14.2147V12.0564C19.5342 11.87 19.5248 11.693 19.5155 11.516H4.22981L4.2236 12.0657L4.23602 14.221C4.36957 19.1992 5.70186 21.3203 8.68012 21.3203C8.86335 21.3203 9.03416 21.311 9.20497 21.2986H14.5528C14.9441 21.3203 15.2826 21.3234 15.6242 21.2986H15.7547C15.7826 21.2893 15.8106 21.2831 15.8416 21.28C18.2422 21.0408 19.4161 18.7955 19.5404 14.2147ZM8.67702 4.97251C5.65217 4.97251 4.46273 6.4694 4.25776 10.6402H7.66149C7.81056 8.64953 8.47826 7.0781 9.65838 5.96009C9.98758 5.64642 10.354 5.37313 10.7578 5.14021C10.2019 5.04083 9.60559 4.98493 8.95963 4.98493L8.8882 4.98183C8.79814 4.97562 8.77019 4.97251 8.67702 4.97251ZM12.0683 5.49736C11.3789 5.76133 10.7795 6.12158 10.2857 6.59052C9.28261 7.54083 8.70807 8.90419 8.56832 10.6402H15.5714C15.4286 8.90108 14.854 7.54083 13.854 6.59052C13.3602 6.12158 12.7609 5.75823 12.0683 5.49736ZM15.1739 4.98183C14.5279 4.98183 13.9317 5.03773 13.3758 5.13711C13.7764 5.37313 14.1429 5.64332 14.4752 5.95698C15.6522 7.075 16.323 8.64642 16.472 10.6371H19.4596C19.1398 7.0222 17.9752 5.21785 15.8385 5.00046C15.8106 4.99736 15.7702 4.99425 15.7298 4.99114L15.6491 4.98183C15.4783 4.97251 15.382 4.97872 15.2298 4.97562H15.1739V4.98183ZM3.32919 17.1526C3.36646 17.1526 3.51863 17.1433 3.60248 17.134C3.44721 16.2458 3.38199 15.3359 3.35404 14.4849C3.2764 14.488 3.23292 14.488 3.1646 14.488C2.69255 14.4911 1.89752 14.6713 1.89752 15.8141C1.89752 16.9601 2.70186 17.1433 3.18012 17.1495L3.32919 17.1526ZM20.6739 13.6123C21.6677 13.6216 22.8261 14.2054 22.8261 15.8141C22.8261 17.4228 21.6615 18.0129 20.6615 18.0284H20.4814C20.4193 18.0284 20.323 18.0222 20.2081 18.0098C20.1366 18.0005 20.0807 17.9818 20.0062 17.9663C19.5031 20.0595 18.4286 21.839 16.0683 22.1402C16.0155 22.1651 15.9565 22.1775 15.8944 22.1775H15.6491C15.4907 22.1899 15.2981 22.1992 15.0963 22.1992C14.8944 22.1992 14.705 22.1899 14.5186 22.1775H9.23292C9.07453 22.1899 8.88199 22.1992 8.68012 22.1992C5.68323 22.1992 4.36646 20.28 3.78882 17.9974C3.65528 18.0129 3.40373 18.0284 3.34472 18.0315H3.1646C2.1677 18.016 1.00311 17.429 1.00311 15.8172C1.00311 14.2054 2.16149 13.6247 3.15528 13.6154H3.15839C3.2236 13.6154 3.26708 13.6185 3.33851 13.6216L3.32919 12.0626L3.3354 11.5191H1.4472C1.19876 11.5191 1 11.3234 1 11.0812C1 10.839 1.20186 10.6433 1.4472 10.6433H3.36335C3.54658 6.6899 4.59006 4.09363 8.68012 4.09363C8.88509 4.09363 9.07453 4.10295 9.26398 4.10295L11.0186 4.11847C10.8571 3.92593 10.7609 3.67437 10.7609 3.34208C10.7609 2.9663 10.8634 2.67748 11.0714 2.48183C11.2702 2.29239 11.559 2.19922 11.9255 2.19922C12.2919 2.19922 12.5807 2.29549 12.7826 2.48183C12.9907 2.67748 13.0963 2.96941 13.0963 3.34208C13.0963 3.67437 13 3.92593 12.8385 4.11847H14.5497C14.8634 4.09363 15.3043 4.09363 15.6801 4.11847L15.882 4.1309C15.9441 4.13711 16.0155 4.14642 16.0776 4.15574C19.7981 4.64021 20.3478 8.88555 20.4317 12.0533V13.6185C20.5404 13.6154 20.5776 13.6185 20.6739 13.6123ZM9.21118 13.2893C9.45652 13.2893 9.65838 13.4849 9.65838 13.7272V15.78C9.65838 16.0222 9.45652 16.2179 9.21118 16.2179C8.96273 16.2179 8.76397 16.0222 8.76397 15.78V13.7272C8.76397 13.488 8.96273 13.2893 9.21118 13.2893ZM14.559 13.2893C14.8043 13.2893 15.0062 13.4849 15.0062 13.7272V15.78C15.0062 16.0222 14.8043 16.2179 14.559 16.2179C14.3106 16.2179 14.1118 16.0222 14.1118 15.78V13.7272C14.1118 13.488 14.3106 13.2893 14.559 13.2893Z" fill="#86888C"/>
</svg>
