<svg width="20" height="20" viewBox="0 0 20 20" fill="none" xmlns="http://www.w3.org/2000/svg">
<path fill-rule="evenodd" clip-rule="evenodd" d="M14.0518 14.8863C14.9762 14.8407 17.3078 14.4241 17.3078 11.4663C17.3078 8.52681 14.9922 8.08509 14.0518 8.02816V14.8863ZM13.3573 15.1276V6.6916H2.69446V15.1254C2.69446 15.961 2.89483 16.5576 3.30696 16.9492C3.71681 17.3385 4.33158 17.5298 5.19226 17.5298H10.8595C11.7202 17.5298 12.335 17.3408 12.7448 16.9492C13.157 16.5576 13.3573 15.961 13.3573 15.1276ZM18.0023 11.4641C18.0023 15.139 14.876 15.5193 14.0222 15.5557C13.9539 16.3549 13.7012 16.9788 13.2344 17.4273C12.6902 17.9465 11.9138 18.1992 10.8618 18.1992H5.19226C4.14032 18.1992 3.36388 17.9465 2.8197 17.4251C2.2664 16.9014 2 16.15 2 15.1276V6.35917C2 6.17474 2.15483 6.02446 2.34609 6.02446H13.7034C13.8947 6.02446 14.0518 6.17474 14.0518 6.3569V7.35647C14.9717 7.41112 18.0023 7.85739 18.0023 11.4641ZM6.52199 5.04311C6.52199 4.90649 6.43091 4.76077 6.32389 4.59455C6.185 4.37369 6.02562 4.1255 6.02334 3.80218C6.02106 3.4743 6.18045 3.21928 6.32162 2.99387C6.42863 2.8231 6.52199 2.67282 6.52199 2.53393C6.52199 2.3495 6.67682 2.19922 6.86808 2.19922C7.05934 2.19922 7.21645 2.3495 7.21645 2.53165C7.21645 2.85725 7.05707 3.11227 6.91817 3.33541C6.81116 3.50845 6.7178 3.65646 6.7178 3.79535C6.72008 3.93424 6.81116 4.07769 6.91817 4.2439C7.05707 4.46477 7.21873 4.71523 7.21873 5.04083C7.21873 5.22526 7.06162 5.37326 6.87036 5.37326C6.68137 5.37782 6.52654 5.22981 6.52199 5.04311ZM8.75793 5.04311C8.75793 5.01123 8.68052 4.91332 8.63953 4.85868C8.52569 4.71295 8.38224 4.5308 8.37996 4.27806C8.37769 4.02304 8.52113 3.83406 8.63726 3.68378C8.68279 3.62458 8.75793 3.52667 8.75793 3.49252C8.75793 3.30808 8.91504 3.15781 9.10403 3.15781C9.29074 3.15325 9.44784 3.30125 9.4524 3.49024V3.49252C9.4524 3.74753 9.30895 3.93196 9.1951 4.08224C9.15184 4.13689 9.07443 4.23935 9.07443 4.2735C9.07443 4.30538 9.14957 4.40101 9.1951 4.45794C9.3044 4.59683 9.45467 4.79037 9.45467 5.04538C9.45467 5.22981 9.29757 5.37782 9.1063 5.37782C8.91732 5.37782 8.76249 5.22981 8.75793 5.04311Z" fill="#86888C"/>
</svg>
