<svg width="40" height="40" viewBox="0 0 40 40" fill="none" xmlns="http://www.w3.org/2000/svg">
<path d="M33.4613 36H6.38387C3.96377 36 2 34.0311 2 31.6161V10.3839C2 7.96377 3.96889 6 6.38387 6H33.6151C36.0352 6 37.999 7.96889 37.999 10.3839V31.4623C37.999 33.9645 35.9634 36 33.4613 36ZM6.38387 7.01008C4.52265 7.01008 3.01008 8.52265 3.01008 10.3839V31.6161C3.01008 33.4774 4.52265 34.9899 6.38387 34.9899H33.4613C35.4045 34.9899 36.9889 33.4056 36.9889 31.4623V10.3839C36.9889 8.52265 35.4763 7.01008 33.6151 7.01008H6.38387Z" fill="#86888C"/>
<path d="M37.4914 13.9986H2.69218C2.41017 13.9986 2.18457 13.773 2.18457 13.491C2.18457 13.209 2.41017 12.9834 2.69218 12.9834H37.4965C37.7785 12.9834 38.0041 13.209 38.0041 13.491C38.0041 13.773 37.7734 13.9986 37.4914 13.9986ZM16.7872 29.6523C16.7872 29.4319 16.8282 29.2268 16.9154 29.0422C17.0025 28.8576 17.1718 28.6115 17.423 28.3039L19.92 25.2531C20.5558 24.4686 21.0019 23.8328 21.2531 23.3355C21.5095 22.8433 21.6325 22.351 21.6325 21.8639C21.6325 21.2076 21.4377 20.7359 21.0429 20.459C20.6532 20.177 20.0687 20.0386 19.2945 20.0386C18.5305 20.0386 17.7665 20.1206 17.0077 20.2796V19.2439C17.8127 19.0439 18.6382 18.9414 19.4893 18.9414C20.6994 18.9414 21.5966 19.208 22.1914 19.7361C22.74 20.2232 23.0169 20.9102 23.0169 21.8024C23.0169 22.2485 22.9554 22.6587 22.8272 23.033C22.699 23.4073 22.4888 23.8123 22.1914 24.2481C21.894 24.684 21.4633 25.2326 20.9044 25.8991L18.2946 28.9704H23.2066V30.0215H16.8487C16.8077 29.8882 16.7872 29.7703 16.7872 29.6523Z" fill="#86888C"/>
<path d="M11.9466 9.25098C11.4954 9.25098 11.2031 9.48683 11.2031 9.99957C11.2031 10.2457 11.2698 10.4251 11.3928 10.5482C11.521 10.6815 11.7159 10.7482 11.9466 10.7482C12.1773 10.7482 12.3722 10.6815 12.5003 10.5482C12.6183 10.4251 12.6901 10.2457 12.6901 9.99957C12.6901 9.49196 12.3978 9.25098 11.9466 9.25098Z" fill="#86888C"/>
<path d="M11.9471 10.9989C11.6395 10.9989 11.3882 10.9066 11.2139 10.7272C11.0447 10.5528 10.9575 10.3067 10.9575 10.0042C10.9575 9.37869 11.3267 9.00439 11.9522 9.00439C12.5778 9.00439 12.9469 9.37869 12.9469 10.0042C12.9469 10.3067 12.8598 10.5528 12.6906 10.7272C12.506 10.9015 12.2547 10.9989 11.9471 10.9989ZM11.9471 9.50175C11.6087 9.50175 11.4549 9.65556 11.4549 9.9991C11.4549 10.1683 11.4959 10.2965 11.5728 10.3734C11.6497 10.4554 11.7779 10.4964 11.9471 10.4964C12.1163 10.4964 12.2445 10.4554 12.3214 10.3734C12.3983 10.2965 12.4393 10.1683 12.4393 9.9991C12.4393 9.65556 12.2855 9.50175 11.9471 9.50175Z" fill="#86888C"/>
<path d="M27.97 9.25098C27.5188 9.25098 27.2266 9.48683 27.2266 9.99957C27.2266 10.2457 27.2932 10.4251 27.4163 10.5482C27.5445 10.6815 27.7393 10.7482 27.97 10.7482C28.2008 10.7482 28.3956 10.6815 28.5238 10.5482C28.6417 10.4251 28.7135 10.2457 28.7135 9.99957C28.7135 9.49196 28.4212 9.25098 27.97 9.25098Z" fill="#86888C"/>
<path d="M27.9715 10.9989C27.6639 10.9989 27.4126 10.9066 27.2383 10.7272C27.0691 10.5528 26.9819 10.3067 26.9819 10.0042C26.9819 9.37869 27.3511 9.00439 27.9766 9.00439C28.2689 9.00439 28.515 9.09156 28.6893 9.25563C28.8739 9.43509 28.9713 9.68633 28.9713 10.0042C28.9713 10.3067 28.8842 10.5528 28.715 10.7272C28.5304 10.9015 28.2791 10.9989 27.9715 10.9989ZM27.9715 9.50175C27.6331 9.50175 27.4793 9.65556 27.4793 9.9991C27.4793 10.1683 27.5203 10.2965 27.5972 10.3734C27.6741 10.4554 27.8023 10.4964 27.9715 10.4964C28.1407 10.4964 28.2689 10.4554 28.3458 10.3734C28.4227 10.2965 28.4637 10.1683 28.4637 9.9991C28.4637 9.82477 28.4227 9.69658 28.3407 9.61455C28.2586 9.54276 28.1356 9.50175 27.9715 9.50175Z" fill="#86888C"/>
</svg>
