<svg width="25" height="24" viewBox="0 0 25 24" fill="none" xmlns="http://www.w3.org/2000/svg">
<path fill-rule="evenodd" clip-rule="evenodd" d="M21.3125 20.0251C22.0438 19.2596 22.4052 18.497 22.3939 17.7542C22.3796 17.0399 22.0154 16.32 21.3125 15.617C21.0478 15.3467 20.749 15.1105 20.4246 14.917C19.827 14.547 19.2265 14.4133 18.6232 14.5129C18.0114 14.6153 17.3996 14.9711 16.8076 15.563C16.6654 15.7024 16.5316 15.8532 16.4064 16.0126C16.3722 16.0553 16.3324 16.0894 16.2869 16.1151C15.9425 16.3114 15.4018 16.1435 14.6249 15.6114C13.7399 15.0052 12.7069 14.0035 12.0097 13.3034L11.9272 13.2238C11.2243 12.5209 10.2226 11.485 9.61926 10.6057C9.08994 9.82878 8.92489 9.28524 9.1184 8.94375C9.14401 8.89537 9.18101 8.85268 9.22369 8.81853C9.40867 8.6734 9.51396 8.57664 9.67048 8.42013C10.2624 7.82821 10.6153 7.21637 10.7206 6.60453C10.823 6.00408 10.6893 5.40362 10.3222 4.8174C10.1258 4.48729 9.88676 4.18564 9.61356 3.91814C8.91066 3.21524 8.19068 2.85098 7.4764 2.83675H7.43371C6.7052 2.83675 5.95676 3.20101 5.20833 3.91814C4.97782 4.14865 4.76724 4.39907 4.58226 4.66942C3.86229 5.70812 3.89644 7.31028 4.65625 9.21409C5.48437 11.2858 7.10076 13.5653 9.33183 15.7992L9.34606 15.8134L9.41721 15.8846C11.6597 18.127 13.9391 19.7491 16.0165 20.5744C17.9033 21.3285 19.5253 21.3655 20.527 20.674C20.6893 20.5573 21.062 20.2869 21.3125 20.0251ZM21.9015 15.0251C22.7638 15.8874 23.2106 16.8009 23.2277 17.7371C23.2447 18.7075 22.8065 19.6694 21.9158 20.6C21.6113 20.9187 21.2072 21.2118 21.0564 21.3199C21.0307 21.3399 21.0051 21.3569 20.9795 21.374C20.3848 21.7867 19.6164 22.0029 18.7171 22.0029C17.8093 22.0029 16.7991 21.7838 15.7092 21.3484C13.5265 20.4804 11.1474 18.7929 8.83383 16.4765L8.76837 16.411L8.7513 16.3939C6.43485 14.0775 4.75016 11.6984 3.87936 9.51859C3.01425 7.34728 3.01141 5.46908 3.86798 4.22548C4.00173 4.04335 4.30338 3.62503 4.63064 3.31199C5.55836 2.42412 6.51169 2.0001 7.49063 2.00294C8.42688 2.02002 9.34037 2.4668 10.2026 3.32907C10.5441 3.6734 10.8259 4.02912 11.0336 4.38769C11.5031 5.14466 11.6739 5.94147 11.5373 6.74682C11.4035 7.5351 10.971 8.29776 10.2567 9.01489C10.14 9.13441 10.0177 9.24824 9.8896 9.35354C9.92091 9.47306 10.0205 9.71495 10.3051 10.1333C10.8685 10.9557 11.8361 11.9546 12.5134 12.6318L12.5959 12.7144C13.2732 13.3888 14.2664 14.3564 15.0945 14.9255C15.51 15.2101 15.7547 15.3069 15.8742 15.341C15.9852 15.2101 16.0791 15.1077 16.2157 14.9739C16.9329 14.2568 17.6955 13.8271 18.4809 13.6933C19.2891 13.5567 20.0831 13.7303 20.8486 14.2056C21.2015 14.4048 21.5601 14.6836 21.9015 15.0251ZM15.2339 8.35183C15.1258 8.43436 15.0746 8.51973 15.0632 8.61933C15.049 8.72178 15.0803 8.82707 15.1486 8.90675L16.1104 9.97676C16.1986 10.0906 16.2926 10.1418 16.395 10.1503C16.4918 10.1589 16.5885 10.1276 16.6597 10.0593L19.2408 7.83959C19.4115 7.69161 19.6705 7.70584 19.8213 7.87659L20.3876 8.50265C20.4189 8.53965 20.4929 8.59656 20.5697 8.57664C20.6551 8.55103 20.6836 8.45997 20.6921 8.42297L21.5117 4.58689C21.5316 4.51575 21.5145 4.43891 21.4661 4.382C21.4206 4.33362 21.3552 4.30516 21.2897 4.30801H21.2698L17.3768 4.60397C17.3284 4.60681 17.2402 4.62673 17.2089 4.70357C17.1776 4.78325 17.2288 4.85724 17.2601 4.89139L17.8179 5.51176C17.9716 5.68535 17.9573 5.95001 17.7837 6.10368C17.7866 6.10653 15.2339 8.35183 15.2339 8.35183ZM15.4701 10.5061L14.531 9.46452C14.0899 8.9722 14.1298 8.21523 14.6221 7.77414C14.6506 7.74853 14.6819 7.72292 14.7132 7.70015L16.9186 5.75934L16.6397 5.452C16.3722 5.1532 16.2926 4.7491 16.432 4.39623C16.5714 4.0462 16.9072 3.80715 17.3085 3.77585L21.1986 3.4742L21.2869 3.47135C21.5999 3.47135 21.8902 3.60226 22.0922 3.83277C22.3142 4.08604 22.3996 4.42468 22.3256 4.76333L21.506 8.59941C21.4235 8.98643 21.1474 9.28808 20.7832 9.38484C20.4104 9.47875 20.0177 9.35354 19.7644 9.06611L19.477 8.73885L17.2231 10.6768C16.9841 10.9016 16.6568 11.0155 16.3267 10.9813C15.9852 10.9529 15.675 10.7793 15.4701 10.5061Z" fill="#86888C"/>
</svg>
