<svg width="25" height="24" viewBox="0 0 25 24" fill="none" xmlns="http://www.w3.org/2000/svg">
<path fill-rule="evenodd" clip-rule="evenodd" d="M20.3188 20.0223C21.0474 19.2596 21.4117 18.494 21.4003 17.7511C21.3861 17.0367 21.0218 16.3167 20.3188 15.6137C20.0541 15.3433 19.7552 15.1071 19.4308 14.9135C18.8302 14.5435 18.2326 14.4098 17.632 14.5094C17.0173 14.6147 16.4082 14.9676 15.8162 15.5568C15.6739 15.6991 15.5401 15.8471 15.4149 16.0064C15.3807 16.0491 15.3409 16.0833 15.2925 16.1089C14.951 16.2996 14.4074 16.1374 13.6332 15.6051C12.7424 14.9932 11.7121 13.9942 11.0148 13.2969L10.9322 13.2172C10.2349 12.5199 9.23592 11.4925 8.62401 10.5988C8.09462 9.82749 7.92955 9.28673 8.12024 8.94234C8.14586 8.89396 8.18286 8.85127 8.22555 8.81711C8.41055 8.66911 8.5187 8.57235 8.67524 8.41865C9.26723 7.82666 9.62015 7.21474 9.72546 6.60282C9.82792 6.00513 9.69415 5.4046 9.327 4.81545C9.13062 4.4853 8.89439 4.18361 8.61831 3.91607C7.91532 3.21023 7.19525 2.84592 6.48087 2.83454C5.75795 2.81746 4.97526 3.18461 4.20965 3.91607C3.97912 4.14661 3.77135 4.39991 3.5835 4.66745C2.86343 5.70629 2.90043 7.30866 3.6575 9.21273C4.48573 11.2904 6.10802 13.5702 8.34508 15.8072L8.34793 15.8101L8.41908 15.8812C10.6618 18.124 12.9416 19.7434 15.0193 20.5716C16.9091 21.3259 18.5342 21.36 19.5304 20.6713C19.8919 20.4123 20.1452 20.2016 20.3188 20.0223ZM20.9079 15.0217C21.7703 15.8812 22.2171 16.7948 22.2342 17.7341C22.2513 18.7046 21.8101 19.6666 20.9222 20.5973C20.6546 20.8648 20.3643 21.1067 20.0541 21.323C19.3909 21.7841 18.6225 21.9976 17.7203 21.9976C16.8123 21.9976 15.802 21.7784 14.7119 21.3429C12.5317 20.4777 10.1524 18.79 7.83847 16.4761L7.76732 16.4049C7.75594 16.3935 7.74455 16.3793 7.73317 16.3679C5.43918 14.0768 3.75427 11.7002 2.88335 9.51726C2.01813 7.34566 2.01528 5.46721 2.87197 4.2263L2.93174 4.14661C3.00574 4.0413 3.30743 3.62292 3.63189 3.30984C4.56542 2.42185 5.51887 1.98639 6.49794 1.99778C7.43432 2.01485 8.34793 2.4617 9.21031 3.32407C9.55185 3.66846 9.83361 4.02422 10.0442 4.38568C10.511 5.14275 10.6846 5.93967 10.548 6.74228C10.4142 7.52781 9.98161 8.29342 9.26723 9.0078C9.13346 9.14157 9.031 9.23549 8.90008 9.34649C8.93423 9.46603 9.031 9.7108 9.31562 10.1263C9.88769 10.9603 10.8525 11.9507 11.5242 12.6252L11.6068 12.7049C12.2813 13.3795 13.2746 14.3415 14.1057 14.9164C14.524 15.201 14.7688 15.3006 14.8855 15.3319C14.9965 15.201 15.0933 15.0985 15.227 14.9648C15.9414 14.2475 16.7042 13.8178 17.4926 13.684C18.298 13.5502 19.0921 13.7182 19.8605 14.1963C20.2078 14.3984 20.5664 14.6801 20.9079 15.0217ZM17.1909 2.88862C14.3789 2.88862 13.0127 4.25476 13.0127 7.06959C13.0127 9.91857 14.339 11.2477 17.1909 11.2477C20.0028 11.2477 21.3718 9.88157 21.3718 7.06959C21.3718 4.25476 20.0028 2.88862 17.1909 2.88862ZM17.1909 12.0816C14.0231 12.0816 12.1788 10.4849 12.1788 7.06959C12.1788 3.65423 14.0231 2.0547 17.1909 2.0547C20.3586 2.0547 22.2058 3.65423 22.2058 7.06959C22.2058 10.4821 20.3586 12.0788 17.1909 12.0816ZM15.19 9.06473C15.0278 8.9025 15.0278 8.63781 15.19 8.47558L16.5989 7.06674L15.19 5.6579C15.0278 5.49567 15.0278 5.23098 15.19 5.06875C15.3523 4.90653 15.617 4.90653 15.7792 5.06875L17.188 6.47759L18.6026 5.06306C18.7648 4.90083 19.0295 4.90083 19.1917 5.06306C19.3539 5.22529 19.3539 5.48998 19.1917 5.65221L17.7772 7.06674L19.1889 8.48127C19.3511 8.6435 19.3511 8.90819 19.1889 9.07042C19.0266 9.23265 18.7619 9.23265 18.5997 9.07042L17.1852 7.65589L15.7792 9.06473C15.617 9.22696 15.3551 9.2298 15.1929 9.06757C15.1929 9.06757 15.19 9.06757 15.19 9.06473Z" fill="#86888C"/>
</svg>
