<svg width="21" height="20" viewBox="0 0 21 20" fill="none" xmlns="http://www.w3.org/2000/svg">
<path d="M14.9515 18C14.2568 18 13.4573 17.8269 12.5872 17.4808C10.7856 16.7613 8.81088 15.3587 6.87487 13.4232L6.80426 13.3526C4.86825 11.4172 3.46521 9.44299 2.74775 7.64187C2.08039 5.97054 2.05534 4.55424 2.67486 3.65482C2.67714 3.65027 2.6817 3.64571 2.68397 3.64116L2.69764 3.62294C2.90491 3.33376 3.09167 3.11061 3.25111 2.96033C4.59265 1.67837 5.92281 1.68065 7.20741 2.96261C7.44884 3.19942 7.65838 3.46355 7.82921 3.75501C8.6765 5.11666 7.98409 6.27338 7.25296 7.00203C7.12086 7.13637 6.97964 7.25933 6.83159 7.37318C6.58788 7.66236 6.90903 8.26805 7.22335 8.72573C7.74038 9.47942 8.59678 10.3629 9.19353 10.9595L9.26413 11.0301C9.86316 11.6289 10.7446 12.4828 11.4985 12.9997C11.9586 13.3139 12.5622 13.635 12.8514 13.3913C12.9653 13.2433 13.0906 13.1021 13.225 12.9701C13.9561 12.2414 15.1109 11.5492 16.4729 12.394C16.7622 12.567 17.0287 12.7765 17.2656 13.0179C18.5479 14.2999 18.5502 15.6319 17.2678 16.9731C17.1152 17.1325 16.892 17.3169 16.605 17.5264L16.5868 17.54L16.5754 17.5492C16.1449 17.8497 15.5938 18 14.9515 18ZM7.1983 13.1021C9.09103 14.9943 11.0111 16.3606 12.7558 17.055C13.5347 17.367 14.2477 17.5287 14.874 17.5423C15.4616 17.5537 15.9445 17.433 16.3112 17.1803L16.3408 17.1598C16.6073 16.9685 16.8077 16.8 16.9399 16.6634C17.5115 16.0645 17.7849 15.5044 17.7758 14.9511C17.7666 14.4205 17.4933 13.8945 16.9444 13.3458C16.7349 13.1317 16.5003 12.9473 16.2429 12.7925L16.2361 12.7879C15.7987 12.517 15.3592 12.4168 14.9264 12.4896C14.4686 12.567 14.0062 12.838 13.5461 13.298C13.4209 13.4209 13.3047 13.5553 13.1977 13.6942C13.1908 13.7033 13.1817 13.7124 13.1726 13.7215C12.3185 14.5071 10.6353 13.0498 8.94071 11.3557L8.8701 11.2851C7.18008 9.59327 5.72237 7.90828 6.50817 7.05668C6.51728 7.04757 6.52411 7.03846 6.5355 7.03163C6.67671 6.92461 6.80882 6.80848 6.93181 6.68325C7.38962 6.22329 7.66294 5.75878 7.74038 5.30338C7.81326 4.87074 7.71305 4.43128 7.44201 3.99409L7.43745 3.98726C7.28485 3.73224 7.09808 3.49543 6.88398 3.28822C6.33506 2.73946 5.80892 2.46622 5.27823 2.45711C4.72476 2.44573 4.16445 2.71897 3.56543 3.2905C3.42649 3.42256 3.25794 3.62522 3.06662 3.89163C3.05751 3.90301 3.05068 3.91212 3.04612 3.92123C2.79558 4.28783 2.67259 4.77056 2.68397 5.35803C2.69536 5.9842 2.85935 6.69691 3.17139 7.47565C3.86836 9.21984 5.23495 11.1394 7.12541 13.0316L7.16413 13.0703L7.1983 13.1021Z" fill="#86888C"/>
<path d="M10.469 9.77781C10.3552 9.78008 10.2458 9.73227 10.1684 9.64574C10.0864 9.55011 10.0545 9.42032 10.0841 9.29508L10.8722 5.6086C10.9041 5.46287 10.9906 5.3604 11.1136 5.32852C11.2366 5.29665 11.3642 5.33991 11.4644 5.44921L12.1522 6.20973H12.1613L14.7966 3.94638C14.9014 3.84619 15.0449 3.79382 15.1884 3.80748C15.341 3.82114 15.4799 3.90084 15.5687 4.0238L16.5003 5.05984C16.6005 5.17369 16.6483 5.32625 16.6278 5.47653C16.6096 5.61998 16.5322 5.74977 16.4137 5.83402L13.7785 8.15202L14.4709 8.91937C14.5711 9.03095 14.6007 9.16301 14.5552 9.28142C14.5096 9.39982 14.3957 9.47496 14.2454 9.48635L10.5055 9.77553C10.4918 9.77781 10.4804 9.77781 10.469 9.77781ZM11.2731 5.91827L10.5465 9.31785L13.9766 9.05144L13.4414 8.45714C13.2728 8.27042 13.2888 7.9858 13.4756 7.8173C13.4778 7.81502 13.4778 7.81502 13.4801 7.81502L16.1268 5.48564L16.1541 5.46514C16.17 5.45604 16.1791 5.4401 16.1814 5.42188C16.1837 5.40367 16.1791 5.38545 16.17 5.36951L16.1678 5.36723L15.2271 4.32208C15.2202 4.31525 15.2134 4.30842 15.2089 4.29931C15.1975 4.2811 15.1793 4.26744 15.1565 4.26516C15.1428 4.26288 15.1314 4.26744 15.12 4.27427C15.1155 4.27882 15.1086 4.28337 15.1041 4.29021L12.462 6.56039C12.2707 6.72206 11.9882 6.70384 11.8197 6.5194L11.2731 5.91827Z" fill="#86888C"/>
</svg>
