<svg width="20" height="20" viewBox="0 0 20 20" fill="none" xmlns="http://www.w3.org/2000/svg">
<path fill-rule="evenodd" clip-rule="evenodd" d="M16.0753 8.71137L14.6321 8.01022C14.5296 7.96242 14.4113 7.96925 14.3134 8.02843C14.2178 8.0899 14.1608 8.19689 14.1608 8.31299L14.1882 17.5827H6.018L6.04532 8.31299C6.04532 8.19917 5.98841 8.09217 5.8928 8.03071C5.79718 7.96925 5.67881 7.96242 5.57409 8.01022L4.0944 8.72047L2.7513 5.72922L7.20175 3.14318C7.3907 4.70938 8.40372 5.56304 10.1042 5.56304C11.8002 5.56304 12.8086 4.70938 12.9999 3.15456L17.2568 5.7315L16.0753 8.71137ZM17.8373 5.30353L12.8769 2.29862C12.8747 2.29634 12.8701 2.29634 12.8678 2.29634C12.8428 2.28269 12.8177 2.27586 12.7881 2.26903C12.7699 2.26447 12.7517 2.25992 12.7312 2.25764C12.7244 2.25764 12.7199 2.25309 12.713 2.25309C12.7016 2.25309 12.6925 2.25764 12.6812 2.25992C12.6538 2.2622 12.6265 2.26675 12.5992 2.27586C12.5878 2.28041 12.5787 2.28496 12.5696 2.28951C12.54 2.30317 12.5127 2.32138 12.4877 2.34643C12.4831 2.3487 12.4786 2.35553 12.474 2.36008C12.4581 2.3783 12.4376 2.39195 12.4262 2.41472C12.4194 2.42838 12.4171 2.43976 12.4125 2.45342C12.4125 2.4557 12.4103 2.45797 12.4103 2.45797C12.392 2.49895 12.3852 2.5422 12.3852 2.58773C12.3852 4.14026 11.6408 4.89377 10.1065 4.89377C8.57445 4.89377 7.83005 4.13799 7.83005 2.58545C7.83005 2.4648 7.76859 2.35553 7.66615 2.29634C7.56371 2.23716 7.4385 2.23716 7.33606 2.29634L2.16625 5.30125C2.01828 5.38776 1.9591 5.57215 2.02967 5.72922L3.63456 9.30552C3.67098 9.38747 3.737 9.44894 3.82123 9.48081C3.90318 9.51268 3.99652 9.50812 4.07619 9.46942L5.38742 8.84113L5.36011 17.9173C5.36011 18.0061 5.39425 18.0926 5.45572 18.1541C5.51718 18.2178 5.60141 18.252 5.68792 18.252H14.5205C14.607 18.252 14.6913 18.2178 14.7527 18.1541C14.8142 18.0903 14.8483 18.0061 14.8483 17.9173L14.821 8.84568L16.1072 9.46942C16.1892 9.50812 16.2825 9.51268 16.369 9.47853C16.4532 9.44666 16.5215 9.37837 16.5557 9.29186L17.9739 5.71784C18.0354 5.56077 17.9784 5.38776 17.8373 5.30353Z" fill="#86888C"/>
</svg>
