<svg width="40" height="40" viewBox="0 0 40 40" fill="none" xmlns="http://www.w3.org/2000/svg">
<path fill-rule="evenodd" clip-rule="evenodd" d="M36.1003 25.3629C36.4128 24.9889 36.9967 23.918 35.7571 21.848C34.0513 19.0043 30.6141 18.7378 30.5783 18.7378C30.3324 18.7173 30.1121 18.5841 29.9841 18.3689C29.8662 18.1691 27.0182 13.5218 20.0362 13.5218C16.3276 13.5218 13.8483 15.269 12.4243 16.7293C10.5238 18.6815 9.54032 21.1204 9.55057 22.5192C9.47885 23.7848 9.56593 24.7737 9.64277 25.3629H11.784C12.0606 23.4108 13.4436 22.2272 15.5336 22.2272C17.6287 22.2272 19.0066 23.4108 19.2884 25.3629H24.8104C25.0921 23.421 26.4701 22.2374 28.56 22.2374C30.65 22.2374 32.0279 23.4159 32.3097 25.3629H36.1003ZM28.5549 28.4731C30.0865 28.4731 30.8651 27.684 30.8651 26.1161C30.8651 24.5534 30.0865 23.7592 28.5549 23.7592C27.0182 23.7592 26.2447 24.5534 26.2447 26.1161C26.2447 27.684 27.0182 28.4731 28.5549 28.4731ZM15.5285 28.4629C17.0601 28.4629 17.8387 27.6738 17.8387 26.1059C17.8387 24.5431 17.0601 23.7489 15.5285 23.7489C13.9969 23.7489 13.2182 24.5431 13.2182 26.1059C13.2182 27.6687 13.9969 28.4629 15.5285 28.4629ZM37.0326 21.0538C38.8562 24.0922 37.6985 26.1008 36.8328 26.7412C36.7047 26.8386 36.5511 26.8898 36.3923 26.8898H32.2994C32.0126 28.8266 30.6346 30 28.5498 30C26.4649 30 25.087 28.8266 24.8001 26.8898H19.2781C18.9913 28.8215 17.6133 29.9898 15.5285 29.9898C13.4488 29.9898 12.0708 28.8215 11.784 26.8898H9.01271C8.6695 26.8898 8.36728 26.649 8.28532 26.3057C8.26995 26.2442 7.9165 24.7481 8.04969 22.4833C8.03432 20.8693 9.06906 18.0051 11.3588 15.6584C12.9826 13.988 15.8102 12 20.0362 12C26.8799 12 30.2146 16.0529 31.0598 17.257C32.1457 17.4108 35.2653 18.1025 37.0326 21.0538ZM6.06217 23.1751C6.47709 23.1751 6.81005 23.5184 6.81005 23.9385C6.81005 24.3587 6.47197 24.702 6.06217 24.702H3.60851C3.18847 24.6968 2.85551 24.3587 2.86063 23.9385C2.86063 23.5184 3.19871 23.1751 3.60851 23.1751H6.06217ZM6.47709 19.3629C6.89201 19.3629 7.22497 19.7062 7.22497 20.1264C7.22497 20.5465 6.88689 20.8898 6.47709 20.8898H2.74794C2.3279 20.8847 1.99494 20.5465 2.00006 20.1264V20.1213C2.00006 19.7011 2.33302 19.3578 2.74794 19.3578C2.74794 19.3629 6.47709 19.3629 6.47709 19.3629ZM7.42987 15.5969C7.84479 15.5969 8.17775 15.9402 8.17775 16.3604C8.17775 16.7805 7.83966 17.1238 7.42987 17.1238H4.53568C4.11563 17.1187 3.78267 16.7754 3.7878 16.3604C3.7878 15.9402 4.12588 15.5969 4.53568 15.5969H7.42987Z" fill="#86888C"/>
</svg>
