<svg width="24" height="24" viewBox="0 0 24 24" fill="none" xmlns="http://www.w3.org/2000/svg">
<path fill-rule="evenodd" clip-rule="evenodd" d="M20.6881 17.5065C21.206 17.1821 21.2886 16.9061 21.0381 16.4223C20.7962 15.9954 20.3552 15.8361 19.9397 15.9812L15.9186 17.3756C15.8674 17.3927 15.819 17.3927 15.7678 17.3927C15.5003 17.5663 15.1929 17.6773 14.8771 17.6773H9.84861C9.6181 17.6631 9.44166 17.4639 9.45874 17.2334C9.47297 17.0228 9.64087 16.8549 9.84861 16.8435H14.8771C15.3182 16.8435 15.7507 16.4109 15.7507 15.967C15.7507 15.5088 15.4348 15.1559 15.0194 15.1474H14.7291C13.9124 15.1645 12.2134 15.2043 10.6426 14.2112C10.6255 14.2026 9.72624 13.6676 6.76949 13.6192V18.4969L11.6642 20.8503C12.0398 21.0666 12.4809 21.169 13.0302 21.169C13.4883 21.169 13.8782 21.0922 14.1941 20.9499C14.2282 20.93 19.1656 18.4769 20.6881 17.5065ZM5.93569 20.1446V13.2977C5.93569 13.0558 5.73648 12.8566 5.49459 12.8566H3.27205C3.03017 12.8566 2.83096 13.0558 2.83096 13.2977V20.1446C2.83096 20.3865 3.03017 20.5857 3.27205 20.5857H5.49459C5.73648 20.5885 5.93853 20.3865 5.93569 20.1446ZM21.7695 16.0296C22.0854 16.6386 22.2362 17.5151 21.1349 18.2094C19.5697 19.2026 14.7604 21.5987 14.5526 21.7069C14.1116 21.8976 13.6022 22 13.0302 22C12.3386 22 11.7496 21.8577 11.2829 21.5902L6.77234 19.4189V20.1446C6.77234 20.8475 6.20319 21.4195 5.50028 21.4223H3.27205C2.56915 21.4195 2.00285 20.8503 2 20.1446V13.2977C2 12.5976 2.57484 12.0199 3.27205 12.0199H5.49459C6.01821 12.0199 6.45931 12.3301 6.66136 12.7797C9.97382 12.8139 10.9898 13.44 11.0894 13.5168C12.4468 14.3591 13.918 14.325 14.7092 14.3079H15.0336C15.8987 14.325 16.5817 15.0535 16.5817 15.9613C16.5817 16.0694 16.5646 16.169 16.5418 16.2686L19.6636 15.1844C20.4633 14.9084 21.3284 15.2328 21.7268 15.9528C21.7268 15.9556 21.7695 16.0296 21.7695 16.0296ZM4.36483 13.7501C4.79738 13.7501 5.10757 14.0518 5.10757 14.4957C5.10757 14.9283 4.80023 15.2385 4.36483 15.2385C3.92943 15.2385 3.62208 14.9254 3.62208 14.4929C3.62208 14.0489 3.92943 13.7501 4.36483 13.7501ZM15.321 2.83381C12.2447 2.83381 10.6824 4.40182 10.6824 7.48947C10.6824 10.5771 12.2419 12.1423 15.321 12.1423C18.4001 12.1423 19.9596 10.5771 19.9596 7.48947C19.9596 4.40182 18.3973 2.83381 15.321 2.83381ZM15.321 12.9761C11.7923 12.9761 9.85145 11.0296 9.85145 7.48947C9.84861 3.94935 11.7923 2 15.321 2C18.8497 2 20.7934 3.94935 20.7934 7.48947C20.7906 11.0296 18.8497 12.9761 15.321 12.9761ZM12.7114 6.98862L12.7086 7.99317H14.4018C14.6323 7.99317 14.8173 8.18099 14.8173 8.40865V10.1076H15.819V8.40865C15.819 8.17814 16.004 7.99032 16.2345 7.99032H17.9277V6.98577H16.2345C16.004 6.98577 15.819 6.79795 15.819 6.57029V4.87137H14.8145V6.57029C14.8145 6.8008 14.6295 6.98577 14.399 6.98577L12.7114 6.98862ZM12.6147 8.82698C12.2134 8.82698 11.8776 8.51964 11.8776 8.15253V6.82356C11.8776 6.45931 12.2163 6.15196 12.6147 6.15196L13.9863 6.14912V4.77177C13.9863 4.37621 14.2994 4.03472 14.6579 4.03472H15.9812C16.3369 4.03472 16.6528 4.37906 16.6528 4.77462V6.14912H18.0273C18.42 6.14912 18.7644 6.46215 18.7644 6.82072V8.14969C18.7644 8.50825 18.42 8.82129 18.0273 8.82129H16.6557V10.1986C16.6557 10.5999 16.3483 10.9357 15.9869 10.9357H14.6608C14.2965 10.9357 13.9892 10.597 13.9892 10.1958L13.9863 8.82129C13.9863 8.82698 12.6147 8.82698 12.6147 8.82698Z" fill="#86888C"/>
</svg>
