<svg width="24" height="24" viewBox="0 0 24 24" fill="none" xmlns="http://www.w3.org/2000/svg">
<path d="M15.274 17.0036H8.6121C7.83488 17.0036 7.14591 16.7445 6.62491 16.252C6.06975 15.7281 5.71103 14.968 5.55445 13.9886C5.46619 13.4221 4.91103 10.074 4.46121 7.38932C4.44697 7.35516 4.44128 7.31815 4.44128 7.28114V7.26406C4.17367 5.66975 3.9516 4.33737 3.88897 3.99858C3.81779 3.60569 3.58719 3.24698 3.23986 2.98505C2.88399 2.71744 2.42562 2.5694 1.95018 2.5694H0.284698C0.128114 2.5694 0 2.44128 0 2.2847C0 2.12811 0.128114 2 0.284698 2H1.95018C2.54804 2 3.12883 2.1879 3.58434 2.53238C4.0484 2.87972 4.35587 3.36655 4.44982 3.89893C4.50676 4.22349 4.72028 5.479 4.97367 6.99644H19.7153C19.8719 6.99644 20 7.12456 20 7.28114C20 7.30391 19.9972 7.32954 19.9915 7.35231C19.8349 7.97295 19.5388 9.16584 19.2228 10.4299C18.8413 11.9673 18.4456 13.5559 18.326 14.0171C18.0698 15.0078 17.6996 15.7338 17.2014 16.2349C16.6861 16.7445 16.0399 17.0036 15.274 17.0036ZM5.07046 7.56584C5.5089 10.2021 6.03274 13.3509 6.11815 13.8975C6.37438 15.5317 7.25979 16.4342 8.6121 16.4342H15.274C15.8918 16.4342 16.39 16.2349 16.7972 15.8278C17.2185 15.4064 17.5459 14.7488 17.7737 13.8719C17.8932 13.4135 18.2861 11.8249 18.6705 10.2904C18.9324 9.23701 19.1829 8.22918 19.3509 7.56584H5.07046ZM8.6121 22C7.72669 22 7.21708 21.4904 7.21708 20.605C7.21708 19.7196 7.72669 19.21 8.6121 19.21C9.49751 19.21 10.0071 19.7196 10.0071 20.605C10.0071 21.4904 9.49751 22 8.6121 22ZM8.6121 19.7794C8.03986 19.7794 7.78648 20.0327 7.78648 20.605C7.78648 21.1772 8.03986 21.4306 8.6121 21.4306C9.18434 21.4306 9.43772 21.1772 9.43772 20.605C9.43772 20.0327 9.18434 19.7794 8.6121 19.7794ZM14.1637 22C13.2783 22 12.7687 21.4904 12.7687 20.605C12.7687 19.7196 13.2783 19.21 14.1637 19.21C15.0491 19.21 15.5587 19.7196 15.5587 20.605C15.5587 21.4904 15.0491 22 14.1637 22ZM14.1637 19.7794C13.5915 19.7794 13.3381 20.0327 13.3381 20.605C13.3381 21.1772 13.5915 21.4306 14.1637 21.4306C14.7359 21.4306 14.9893 21.1772 14.9893 20.605C14.9893 20.0327 14.7359 19.7794 14.1637 19.7794Z" fill="#86888C"/>
</svg>
