<svg width="40" height="40" viewBox="0 0 40 40" fill="none" xmlns="http://www.w3.org/2000/svg">
<path d="M27.4972 29.0064H15.504C14.1048 29.0064 12.8645 28.5401 11.9265 27.6535C10.9271 26.7106 10.2813 25.3424 9.99943 23.5795C9.73804 21.9345 7.29328 7.2373 7.00114 5.60256C6.87301 4.89537 6.46298 4.24968 5.83257 3.77822C5.19191 3.29139 4.36674 3.02491 3.51082 3.02491H0.512528C0.230638 3.02491 0 2.79431 0 2.51246C0 2.23061 0.230638 2 0.512528 2H3.51082C4.58713 2 5.63269 2.33822 6.45273 2.95829C7.28816 3.58349 7.84169 4.45979 8.01595 5.4232C8.30809 7.06306 10.758 21.7757 11.0142 23.4206C11.4755 26.3621 13.0746 27.9866 15.504 27.9866H27.4972C28.6093 27.9866 29.5063 27.6279 30.2392 26.8951C30.9977 26.1367 31.5871 24.9529 31.9972 23.3745C32.2124 22.5495 32.9197 19.69 33.6116 16.9278C34.0831 15.0317 34.5342 13.2177 34.8366 12.0236H28.0353C27.7534 12.0236 27.5228 11.793 27.5228 11.5112C27.5228 11.2293 27.7534 10.9987 28.0353 10.9987H35.4926C35.7745 10.9987 36.0051 11.2293 36.0051 11.5112C36.0051 11.5522 36 11.5983 35.9897 11.6393C35.7079 12.7564 35.1748 14.9036 34.6059 17.1789C33.9191 19.9462 33.2067 22.8057 32.9915 23.6359C32.5302 25.4192 31.8639 26.726 30.967 27.6279C30.0393 28.5401 28.8759 29.0064 27.4972 29.0064Z" fill="#86888C"/>
<path d="M15.955 12.0187H8.65657C8.37468 12.0187 8.14404 11.7881 8.14404 11.5062C8.14404 11.2244 8.37468 10.9938 8.65657 10.9938H15.955C16.2369 10.9938 16.4675 11.2244 16.4675 11.5062C16.4675 11.7881 16.2369 12.0187 15.955 12.0187ZM15.504 38.0002C13.91 38.0002 12.9926 37.0829 12.9926 35.4891C12.9926 33.8954 13.91 32.9781 15.504 32.9781C17.0979 32.9781 18.0153 33.8954 18.0153 35.4891C18.0153 37.0829 17.103 38.0002 15.504 38.0002ZM15.504 34.003C14.4738 34.003 14.0176 34.4591 14.0176 35.4891C14.0176 36.5192 14.4738 36.9752 15.504 36.9752C16.5341 36.9752 16.9903 36.5192 16.9903 35.4891C16.9903 34.4591 16.5341 34.003 15.504 34.003ZM25.4983 38.0002C23.9043 38.0002 22.9869 37.0829 22.9869 35.4891C22.9869 33.8954 23.9043 32.9781 25.4983 32.9781C27.0922 32.9781 28.0096 33.8954 28.0096 35.4891C28.0096 37.0829 27.0973 38.0002 25.4983 38.0002ZM25.4983 34.003C24.4681 34.003 24.0119 34.4591 24.0119 35.4891C24.0119 36.5192 24.4681 36.9752 25.4983 36.9752C26.5284 36.9752 26.9846 36.5192 26.9846 35.4891C26.9846 34.4591 26.5284 34.003 25.4983 34.003ZM21.9977 10.6043C18.8815 10.6043 15.5245 9.88173 15.5245 8.29824C15.5245 6.71475 18.8815 5.99219 21.9977 5.99219C25.1139 5.99219 28.4709 6.71475 28.4709 8.29824C28.4709 9.88173 25.119 10.6043 21.9977 10.6043ZM21.9977 7.02222C20.455 7.02222 19.0096 7.20158 17.9282 7.52443C16.7955 7.86777 16.5495 8.23162 16.5495 8.30336C16.5495 8.37511 16.7955 8.73895 17.9282 9.07717C19.0045 9.40002 20.4499 9.57938 21.9977 9.57938C23.5455 9.57938 24.9857 9.40002 26.0672 9.07717C27.205 8.73382 27.4459 8.36998 27.4459 8.29824C27.4459 8.22649 27.1999 7.86265 26.0672 7.5193C24.9857 7.20158 23.5455 7.02222 21.9977 7.02222Z" fill="#86888C"/>
<path d="M21.9981 15.3756C18.882 15.3756 15.5249 14.653 15.5249 13.0695V8.30371C15.5249 8.02186 15.7555 7.79126 16.0374 7.79126C16.3193 7.79126 16.55 8.02186 16.55 8.30371C16.55 8.37546 16.796 8.7393 17.9287 9.07752C19.005 9.40037 20.4503 9.57973 21.9981 9.57973C23.546 9.57973 24.9862 9.40037 26.0676 9.07752C27.2054 8.73418 27.4463 8.37033 27.4463 8.29859C27.4463 8.01674 27.677 7.78613 27.9588 7.78613C28.2407 7.78613 28.4714 8.01674 28.4714 8.29859V13.0644C28.4714 14.653 25.1194 15.3756 21.9981 15.3756ZM16.55 9.62585V13.0695C16.55 13.1413 16.796 13.5051 17.9287 13.8434C19.005 14.1662 20.4503 14.3507 21.9981 14.3507C23.546 14.3507 24.9862 14.1713 26.0676 13.8485C27.2054 13.5051 27.4463 13.1413 27.4463 13.0747V9.63097C26.2162 10.2972 24.0534 10.6098 21.9981 10.6098C19.9429 10.6098 17.7852 10.292 16.55 9.62585Z" fill="#86888C"/>
<path d="M21.9981 20.141C18.882 20.141 15.5249 19.4184 15.5249 17.8349V13.0691C15.5249 12.7872 15.7555 12.5566 16.0374 12.5566C16.3193 12.5566 16.55 12.7872 16.55 13.0691C16.55 13.1408 16.796 13.5047 17.9287 13.8429C19.005 14.1658 20.4503 14.3502 21.9981 14.3502C23.546 14.3502 24.9862 14.1709 26.0676 13.848C27.2054 13.5047 27.4463 13.1408 27.4463 13.0742C27.4463 12.7924 27.677 12.5618 27.9588 12.5618C28.2407 12.5618 28.4714 12.7924 28.4714 13.0742V17.8401C28.4714 19.4184 25.1194 20.141 21.9981 20.141ZM16.55 14.3912V17.8349C16.55 17.9067 16.796 18.2705 17.9287 18.6087C19.005 18.9367 20.4503 19.1161 21.9981 19.1161C23.546 19.1161 24.9862 18.9367 26.0676 18.6139C27.2054 18.2705 27.4463 17.9067 27.4463 17.8401V14.3964C26.2162 15.0625 24.0534 15.3751 21.9981 15.3751C19.9429 15.3751 17.7852 15.0625 16.55 14.3912Z" fill="#86888C"/>
<path d="M21.9981 24.9066C18.882 24.9066 15.5249 24.184 15.5249 22.6006V17.8347C15.5249 17.5529 15.7555 17.3223 16.0374 17.3223C16.3193 17.3223 16.55 17.5529 16.55 17.8347C16.55 17.9065 16.796 18.2703 17.9287 18.6085C19.005 18.9365 20.4503 19.1159 21.9981 19.1159C23.546 19.1159 24.9862 18.9365 26.0676 18.6137C27.2054 18.2703 27.4463 17.9065 27.4463 17.8398C27.4463 17.558 27.677 17.3274 27.9588 17.3274C28.2407 17.3274 28.4714 17.558 28.4714 17.8398V22.6057C28.4714 24.1892 25.1194 24.9066 21.9981 24.9066ZM16.55 19.162V22.6057C16.55 22.6774 16.796 23.0413 17.9287 23.3795C19.005 23.7023 20.4503 23.8817 21.9981 23.8817C23.546 23.8817 24.9862 23.7023 26.0676 23.3795C27.2054 23.0361 27.4463 22.6723 27.4463 22.6057V19.162C26.2162 19.8282 24.0534 20.1408 21.9981 20.1408C19.9429 20.1408 17.7852 19.8282 16.55 19.162Z" fill="#86888C"/>
</svg>
