<svg width="24" height="24" viewBox="0 0 24 24" fill="none" xmlns="http://www.w3.org/2000/svg">
<path fill-rule="evenodd" clip-rule="evenodd" d="M17.7075 21.1605C17.9173 21.1605 18.113 20.9727 18.113 20.7763V8.70746H15.5382C14.5542 8.70746 13.7064 8.38589 13.0854 7.77689C12.4615 7.16505 12.1326 6.32555 12.1326 5.35515V2.84234H5.23067C5.04635 2.84234 4.82517 3.05009 4.82517 3.22652V9.08025L4.86771 17.3586L4.82517 20.7792C4.82517 20.9641 5.02934 21.1577 5.23067 21.1577H17.7075V21.1605ZM17.8975 7.86511L12.9606 3.02447V5.35231C12.9606 6.0922 13.2016 6.72112 13.661 7.17075C14.1232 7.62322 14.7726 7.86511 15.5354 7.86511H17.8975ZM18.9098 7.84804C18.9325 7.89926 18.9438 7.95333 18.9438 8.01309V20.7763C18.9438 21.4394 18.3795 22 17.7103 22H5.2335C4.57563 22 4 21.428 4 20.7763L4.04253 17.3586L4 9.08594V3.22368C4 2.58338 4.58981 2 5.2335 2H12.8273C13.0088 2 13.1846 2.07114 13.3122 2.19636L18.7368 7.51508C18.8276 7.60615 18.8786 7.72282 18.9098 7.84804ZM14.2026 18.0529L15.1072 18.3887L13.8368 15.5913C13.3491 16.0381 12.6827 16.2886 11.8689 16.3626L13.196 19.288L13.5334 18.3631C13.6355 18.0899 13.9361 17.9533 14.2026 18.0529ZM9.27145 19.2851L10.607 16.3455C9.80172 16.2316 9.16937 15.9186 8.71567 15.4092L7.36023 18.3944L8.26764 18.0529C8.53135 17.9533 8.83193 18.0928 8.93401 18.3603L9.27145 19.2851ZM11.3585 10.0393C9.43308 10.0393 8.53419 10.9499 8.53419 12.905C8.53419 14.86 9.43025 15.7678 11.3585 15.7678C13.2867 15.7678 14.1828 14.8571 14.1828 12.905C14.1828 10.9499 13.2867 10.0393 11.3585 10.0393ZM14.282 15.0649L15.7736 18.3546C15.8586 18.5396 15.8303 18.7501 15.7055 18.9067C15.5808 19.0632 15.3794 19.1315 15.1894 19.0888L14.0807 18.679L13.6809 19.7661C13.5731 19.9767 13.3973 20.0848 13.2073 20.0848H13.1931C12.9946 20.0791 12.8188 19.9624 12.7338 19.7775L11.2337 16.4764L9.73366 19.7803C9.65143 19.9624 9.47562 20.0791 9.27712 20.0876H9.26295C9.07012 20.0876 8.89715 19.9795 8.80357 19.8088L8.38673 18.6847L7.3177 19.0831C7.08234 19.1429 6.88668 19.0689 6.76191 18.9123C6.63714 18.753 6.61162 18.5424 6.69386 18.3603L8.29316 14.8401C8.29883 14.8287 8.31017 14.8201 8.31584 14.8116C8.06347 14.3022 7.91602 13.679 7.91602 12.9106C7.91602 10.5287 9.18355 9.41605 11.3613 9.41605C13.5391 9.41605 14.8066 10.5316 14.8066 12.9106C14.8066 13.8042 14.6251 14.5213 14.282 15.0649ZM10.7914 12.5236L10.2214 12.6147L10.6666 13.107C10.7375 13.1781 10.7715 13.2948 10.7545 13.3944L10.6496 14.0461L11.2082 13.7587C11.2536 13.7331 11.3074 13.7188 11.3613 13.7188C11.3953 13.7188 11.4294 13.7245 11.4606 13.7359L12.0617 14.066L11.9625 13.3944C11.9455 13.2948 11.9823 13.1781 12.0532 13.107L12.4984 12.6488L11.8774 12.5208C11.7782 12.5065 11.6846 12.4354 11.6392 12.3443L11.3613 11.7467L11.0749 12.3386C11.0267 12.4468 10.9133 12.5236 10.7914 12.5236ZM10.1165 13.4428L9.7762 13.0928C9.60322 12.9135 9.54935 12.6602 9.62591 12.424C9.69964 12.1935 9.89246 12.0285 10.1278 11.9915L10.5872 11.9203L10.7942 11.4735C11.004 11.0239 11.7129 11.0211 11.9256 11.4735L12.1354 11.9232L12.5948 11.9915C12.8273 12.0285 13.0202 12.1935 13.0967 12.424C13.1733 12.6574 13.1166 12.9135 12.9464 13.0899L12.6062 13.4428L12.6884 13.9408C12.7281 14.1884 12.6289 14.4331 12.4275 14.5783C12.2319 14.7149 11.971 14.7291 11.7697 14.6181L11.3642 14.3933L10.9587 14.6209C10.8651 14.6722 10.7602 14.6978 10.6581 14.6978C10.5333 14.6978 10.4057 14.6579 10.298 14.5811C10.0966 14.4388 9.99738 14.1941 10.0371 13.9437L10.1165 13.4428Z" fill="#86888C"/>
</svg>
