<svg width="40" height="40" viewBox="0 0 40 40" fill="none" xmlns="http://www.w3.org/2000/svg">
<path fill-rule="evenodd" clip-rule="evenodd" d="M37.7064 9.76784V16.6204C37.7064 17.0487 37.346 17.3882 36.9177 17.3882C36.4894 17.3987 36.1395 17.0592 36.129 16.6309V11.9563L24.9935 27.3955C24.769 27.688 24.3772 27.7977 24.0325 27.6567L9.99305 21.6398L2.48236 34.6137C2.25255 34.9793 1.77725 35.1047 1.39597 34.9062C1.02514 34.6973 0.88934 34.2272 1.09826 33.8564L8.96412 20.2818C9.16782 19.9318 9.60655 19.7908 9.97738 19.9579L24.0639 25.9957L35.215 10.5408H29.9606C29.5323 10.5408 29.1824 10.1961 29.172 9.76784C29.1772 9.33955 29.5323 8.99484 29.9606 9.00006H36.9177C37.346 9.00006 37.7064 9.33433 37.7064 9.76784Z" fill="#86888C"/>
</svg>
