<svg width="20" height="20" viewBox="0 0 20 20" fill="none" xmlns="http://www.w3.org/2000/svg">
<path fill-rule="evenodd" clip-rule="evenodd" d="M17.2863 17.2258C17.3 17.1985 17.3205 17.1439 17.2795 17.0756L12.5731 10.855C11.8445 11.069 10.8995 11.1851 9.90681 11.1851C8.98237 11.1851 8.1012 11.0827 7.40218 10.896L2.70032 17.1849C2.69349 17.2054 2.70032 17.2395 2.71398 17.2623C2.72764 17.2896 2.75496 17.3169 2.79823 17.3169H17.1315C17.2226 17.3146 17.2727 17.2532 17.2863 17.2258ZM8.29702 9.69147L7.85074 10.2903C9.10988 10.559 10.9064 10.5453 12.1177 10.2562L11.6919 9.69147C11.6487 9.63683 11.6213 9.56169 11.6213 9.49111V2.68536H8.3676V8.66458C8.37443 8.6919 8.3676 8.71923 8.3676 8.75338V9.48883C8.3676 9.56169 8.34028 9.63683 8.29702 9.69147ZM17.8533 16.6817C18.0423 16.9708 18.0491 17.2873 17.8943 17.5606C17.7395 17.8361 17.4526 18 17.1315 18H2.79823C2.51133 18 2.24721 17.8497 2.10604 17.6015C1.95804 17.3465 1.96715 17.0505 2.1197 16.8046L7.66858 9.37498V8.75566C7.66175 8.7215 7.66175 8.68735 7.66858 8.66686V2.68763H6.858C6.66901 2.68763 6.50735 2.53053 6.50735 2.34382C6.50735 2.15028 6.66673 2 6.858 2H13.1537C13.3427 2 13.5044 2.15028 13.5044 2.34382C13.5044 2.53053 13.3427 2.68763 13.1537 2.68763H12.3204V9.37498L17.8533 16.6817ZM11.9151 15.9644C12.1063 15.9599 12.8759 15.8893 12.8759 14.9626C12.8759 14.0381 12.1086 13.9607 11.9128 13.9562H11.8149C11.6122 13.9584 10.8631 14.0268 10.8631 14.958C10.8631 15.8893 11.6213 15.9621 11.824 15.9644H11.9151ZM11.9287 13.2685C12.7461 13.2867 13.5749 13.8196 13.5749 14.9626C13.5749 16.1079 12.7484 16.6361 11.9287 16.6498H11.8126C10.9906 16.6384 10.1618 16.1101 10.1618 14.9557C10.1618 13.7991 10.9883 13.2754 11.8103 13.2685H11.9287ZM8.30157 13.84C8.40859 13.8378 8.83665 13.7991 8.83665 13.2822C8.83665 12.7699 8.41086 12.7266 8.29929 12.7243H8.24692C8.13535 12.7266 7.7164 12.7653 7.7164 13.2822C7.7164 13.7991 8.13991 13.84 8.25148 13.8423H8.26969C8.28108 13.8423 8.29246 13.84 8.30157 13.84ZM8.31523 12.039C8.90268 12.0527 9.53339 12.4511 9.53339 13.2845C9.53339 14.1247 8.9004 14.5186 8.31295 14.5277H8.24009C7.65037 14.5186 7.01738 14.1247 7.01738 13.2799C7.01738 12.4329 7.65264 12.0413 8.24009 12.0367H8.26059L8.31523 12.039Z" fill="#86888C"/>
</svg>
