<svg width="40" height="40" viewBox="0 0 40 40" fill="none" xmlns="http://www.w3.org/2000/svg">
<path fill-rule="evenodd" clip-rule="evenodd" d="M36.4479 34.066C36.4326 34.9573 36.0791 36.4633 33.8714 36.4633C31.6688 36.4633 31.3256 34.988 31.3102 34.0968V33.8048C31.3409 32.9135 31.6995 31.4382 33.8099 31.3921C33.8406 31.4075 33.856 31.4075 33.8867 31.4075C33.9021 31.4075 33.9328 31.4075 33.9482 31.3921C36.074 31.4382 36.4326 32.9135 36.4479 33.7843V34.066ZM8.67445 33.8048V34.066C8.67445 34.9727 8.31588 36.4633 6.09789 36.4633C3.91064 36.4633 3.5572 34.988 3.5572 34.0968V33.8048C3.57257 32.8981 3.9465 31.3921 6.13375 31.3921C8.31588 31.3921 8.65908 32.8981 8.67445 33.8048ZM12.0706 21.132C10.6261 21.132 7.26067 20.671 7.26067 16.399C7.26067 13.9966 8.31588 12.4804 10.3648 11.9118C10.7029 11.8196 10.9232 11.3432 10.9232 11.0051C10.9232 4.07456 17.0341 3.53671 18.8987 3.53671C19.9693 3.53671 25.3221 3.76722 26.5976 8.46955C26.6949 8.79226 26.9869 9.02277 27.325 9.03301C29.1127 9.07911 33.2874 9.77063 33.2874 15.0262C33.2874 20.6044 28.5697 21.0347 27.1098 21.0347L12.0706 21.132ZM34.6653 29.9323V25.0302C34.6551 24.605 34.3119 24.2669 33.8919 24.2618H20.6966V22.6175L27.1047 22.5714C28.3956 22.5714 34.8344 22.218 34.8344 15.0262C34.8344 9.90894 31.3717 7.82413 27.9294 7.52703C26.1315 2.27661 20.1229 2 18.8987 2C17.3312 2 9.62208 2.41491 9.37109 10.6209C7.80364 11.2203 5.70859 12.7109 5.70859 16.399C5.70859 21.0245 9.00228 22.6688 12.0706 22.6688L19.1497 22.6227V24.2669H6.09277C5.88275 24.2721 5.68298 24.354 5.53443 24.4974C5.39613 24.646 5.31417 24.8458 5.31929 25.0455L5.33466 29.9323C2.95788 30.2703 2.03073 32.1451 2 33.774V34.1121C2.01537 35.9101 3.10131 38 6.09277 38C9.10472 38 10.206 35.8947 10.2214 34.0968V33.7587C10.1907 32.1298 9.27376 30.2601 6.88162 29.9169L6.86625 25.7985H33.1081V29.9323C30.7314 30.2703 29.8042 32.1246 29.7581 33.774V34.1121C29.7735 35.9101 30.8594 38 33.8714 38C36.868 38 37.9641 35.8947 38 34.0968V33.7587C37.9693 32.1298 37.0421 30.255 34.6653 29.9323Z" fill="#86888C"/>
</svg>
