<svg width="24" height="24" viewBox="0 0 24 24" fill="none" xmlns="http://www.w3.org/2000/svg">
<path fill-rule="evenodd" clip-rule="evenodd" d="M18.8287 8.88971H17.2182C17.2125 8.88971 17.2069 8.88686 17.2012 8.88686H5.46408C5.45839 8.88686 5.4527 8.88971 5.44416 8.88971H3.83369V7.50402H18.8287V8.88971ZM5.46408 10.9896H17.2012V9.71771H5.46408V10.9896ZM7.61232 19.3066H15.0501V11.8233H7.61232V19.3066ZM17.1784 21.3694H5.48399V20.1374H17.1784V21.3694ZM9.06061 3.03397L9.65813 3.63149L8.67648 4.60745L8.07896 4.01277L9.06061 3.03397ZM12.9929 3.62865L13.5904 3.03112L14.5721 4.00993L13.9745 4.6046L12.9929 3.62865ZM18.8287 6.67318H15.9805V5.56918C15.9805 5.45821 15.935 5.35293 15.8582 5.27611L15.1696 4.59038C15.3204 4.43388 15.4086 4.22902 15.4086 4.01277C15.4086 3.79368 15.3204 3.58028 15.1639 3.42663L14.1822 2.44783C14.0258 2.29133 13.8123 2.20312 13.5933 2.20312C13.3713 2.20312 13.1608 2.29133 13.0043 2.44783L12.4039 3.04535C12.0795 3.36972 12.0795 3.89611 12.4039 4.22048L13.3855 5.19644C13.5477 5.35862 13.7611 5.44114 13.9745 5.44114C14.1879 5.44114 14.4013 5.35862 14.5635 5.19644L14.5806 5.17937L15.1468 5.74275V6.67602H7.51558V5.74275L8.07611 5.18506L8.08749 5.19644C8.24968 5.35862 8.46308 5.44114 8.67648 5.44114C8.88988 5.44114 9.10329 5.35862 9.26547 5.19644L10.2471 4.22048C10.5715 3.89611 10.5715 3.36972 10.2471 3.04535L9.64959 2.44783C9.4931 2.29133 9.2797 2.20312 9.06061 2.20312C8.83867 2.20312 8.62527 2.29133 8.46877 2.44783L7.48713 3.42663C7.33063 3.58312 7.24242 3.79368 7.24242 4.01277C7.24242 4.23186 7.33063 4.44242 7.48428 4.59607L6.80139 5.27611C6.72172 5.35293 6.67904 5.45821 6.67904 5.56918V6.67318H3.83369C3.37274 6.67318 3 7.04307 3 7.50402V8.88971C3 9.34781 3.37559 9.72055 3.83369 9.72055H4.63039V10.9924C4.63039 11.4505 5.00313 11.8233 5.46408 11.8233H6.78148V19.3094H5.48684C5.02589 19.3094 4.65315 19.6793 4.65315 20.1402V21.3723C4.65315 21.8304 5.02589 22.2031 5.48684 22.2031H17.1812C17.6422 22.2031 18.0149 21.8332 18.0149 21.3723V20.1402C18.0149 19.6821 17.6422 19.3094 17.1812 19.3094H15.8866V11.8261V11.8233H17.204C17.665 11.8233 18.0377 11.4534 18.0377 10.9924V9.72055H18.8316C19.2925 9.72055 19.6652 9.34781 19.6652 8.88971V7.50402C19.6624 7.04592 19.2897 6.67318 18.8287 6.67318Z" fill="#86888C"/>
</svg>
