<svg width="28" height="28" viewBox="0 0 28 28" fill="none" xmlns="http://www.w3.org/2000/svg">
<path d="M12.5108 22.0365C7.25734 22.0365 3 17.7792 3 12.5257C3 10.0048 4.00293 7.58614 5.78364 5.80201C9.48834 2.08025 15.5093 2.0632 19.2311 5.7679C22.9529 9.4726 22.9699 15.4936 19.2652 19.2154L19.2311 19.2495C17.4538 21.0404 15.0318 22.0433 12.5108 22.0365ZM12.5108 3.70063C7.63599 3.70063 3.68227 7.65095 3.68227 12.5257C3.68227 14.8659 4.61356 17.114 6.26805 18.7685C9.71349 22.2173 15.3047 22.2173 18.7501 18.7685C22.1955 15.3196 22.1989 9.73186 18.7501 6.28642C17.099 4.6251 14.851 3.69381 12.5108 3.70063Z" fill="#86888C"/>
<path d="M26.6409 27.0006C26.5488 27.0006 26.4635 26.9631 26.3987 26.8982L18.7505 19.2535C18.6209 19.117 18.6243 18.9021 18.7573 18.7725C18.8904 18.6462 19.0985 18.6462 19.2315 18.7725L26.8797 26.4172C27.0128 26.5503 27.0128 26.7652 26.8831 26.8982C26.8183 26.9631 26.733 27.0006 26.6409 27.0006ZM10.1642 15.6477C10.0482 15.5658 9.99023 15.4737 9.99023 15.3304C9.99706 15.1462 10.1472 14.9995 10.3314 15.0029C10.4201 15.0064 10.5053 15.0336 10.577 15.0848C11.1023 15.4362 11.8426 15.7875 12.6988 15.7875C13.9747 15.7875 14.7593 15.1326 14.7593 14.1638C14.7593 13.3689 14.3158 12.8095 12.8489 12.6218L12.4737 12.5741C10.9147 12.3762 10.1881 11.6257 10.1881 10.4693C10.1881 9.09111 11.1706 8.23828 12.6818 8.23828C13.5244 8.23828 14.2407 8.46002 14.732 8.76363C14.8855 8.85573 14.9537 8.97513 14.9537 9.09111C14.9537 9.26509 14.8139 9.40496 14.6399 9.40837H14.6365C14.5546 9.40154 14.4727 9.37766 14.4011 9.33673C13.8621 9.04335 13.2992 8.86938 12.6545 8.86938C11.4946 8.86938 10.8499 9.51071 10.8499 10.4113C10.8499 11.23 11.3548 11.7554 12.7227 11.9293L13.0843 11.9771C14.6672 12.175 15.4142 12.9254 15.4142 14.116C15.4142 15.4601 14.4523 16.4186 12.6033 16.4186C11.7368 16.4118 10.884 16.1423 10.1642 15.6477Z" fill="#86888C"/>
<path d="M12.6098 16.5894C11.699 16.5825 10.812 16.3028 10.0649 15.7877C9.89779 15.6717 9.81592 15.5216 9.81592 15.3306C9.81933 15.0509 10.0479 14.8291 10.3276 14.8325C10.4504 14.8359 10.5664 14.8735 10.6687 14.9417C11.3408 15.3886 12.023 15.6137 12.6951 15.6137C13.2784 15.6137 13.7628 15.4704 14.0971 15.2044C14.4178 14.9485 14.585 14.5869 14.585 14.1605C14.585 13.5942 14.3769 12.9836 12.8247 12.7857L12.4495 12.738C11.3374 12.5981 10.0172 12.0864 10.0172 10.466C10.0172 9.00598 11.0645 8.06445 12.6814 8.06445C13.4865 8.06445 14.2438 8.2589 14.8203 8.61709C15.0148 8.73649 15.1239 8.90364 15.1239 9.08785C15.1239 9.35735 14.9056 9.57226 14.6361 9.57567C14.527 9.57226 14.4212 9.54156 14.3257 9.48698L14.3223 9.48357C13.7594 9.17996 13.2307 9.03668 12.6576 9.03668C11.6512 9.03668 11.0235 9.56203 11.0235 10.408C11.0235 10.9334 11.2214 11.5611 12.7497 11.7589L13.1113 11.8067C13.9266 11.909 14.5474 12.158 14.9636 12.5469C15.3798 12.9358 15.5913 13.4646 15.5913 14.1127C15.5913 15.641 14.4519 16.5894 12.6098 16.5894ZM10.2594 15.508C10.5801 15.7297 11.4465 16.2482 12.6098 16.2482C14.2643 16.2482 15.2502 15.45 15.2502 14.1161C15.2502 13.5635 15.0762 13.12 14.7316 12.7994C14.37 12.4582 13.8106 12.2399 13.0669 12.1478L12.7019 12.1001C11.9992 12.0114 11.4943 11.8271 11.16 11.5406C10.8359 11.2609 10.679 10.8924 10.679 10.4114C10.679 9.37099 11.4534 8.69896 12.6541 8.69896C13.2784 8.69896 13.872 8.85929 14.4792 9.18678C14.527 9.21407 14.5815 9.23113 14.6361 9.23795C14.7146 9.23795 14.7794 9.17655 14.7828 9.09467V9.09126C14.7828 9.00939 14.6941 8.94116 14.6429 8.91046C14.121 8.58639 13.4251 8.409 12.6814 8.409C11.2487 8.409 10.3583 9.20043 10.3583 10.4694C10.3583 11.5713 11.0781 12.2229 12.4938 12.4037L12.8691 12.4514C14.2745 12.6322 14.9295 13.1746 14.9295 14.1639C14.9295 14.6961 14.718 15.1498 14.312 15.4739C13.9163 15.7911 13.3569 15.9583 12.6951 15.9583C11.9548 15.9583 11.2077 15.7126 10.4811 15.2282C10.4368 15.1975 10.3856 15.1805 10.331 15.1737C10.2423 15.1702 10.1673 15.2419 10.1605 15.3306C10.1571 15.3988 10.1741 15.4466 10.2594 15.508Z" fill="#86888C"/>
<path d="M12.7762 17.6946C12.5886 17.6946 12.4351 17.5411 12.4351 17.3534V7.62434C12.4351 7.43671 12.5886 7.2832 12.7762 7.2832C12.9638 7.2832 13.1173 7.43671 13.1173 7.62434V17.3534C13.1173 17.5411 12.9638 17.6946 12.7762 17.6946Z" fill="#86888C"/>
</svg>
