<svg width="20" height="20" viewBox="0 0 20 20" fill="none" xmlns="http://www.w3.org/2000/svg">
<path d="M13.9986 17.8455C13.8667 17.8455 13.7598 17.7386 13.7598 17.6066V2.46202C13.7598 2.33007 13.8667 2.22314 13.9986 2.22314C14.1306 2.22314 14.2375 2.33007 14.2375 2.46202V17.6089C14.2398 17.7386 14.1329 17.8455 13.9986 17.8455Z" fill="#86888C"/>
<path d="M15.3271 7.78976H14.1441C14.0122 7.78976 13.9053 7.68283 13.9053 7.55089C13.9053 7.41894 14.0122 7.31201 14.1441 7.31201H15.3271C15.4591 7.31201 15.566 7.41894 15.566 7.55089C15.566 7.68283 15.4591 7.78976 15.3271 7.78976Z" fill="#86888C"/>
<path d="M13.5095 18H6.20674C4.98962 18 4 17.0104 4 15.7933V3.98152C4 2.88952 4.88952 2 5.98152 2H13.5095C14.6424 2 15.566 2.92137 15.566 4.05659V15.9457C15.566 17.0764 14.6424 18 13.5095 18ZM5.98152 2.47775C5.15342 2.47775 4.48002 3.15114 4.48002 3.97924V15.791C4.48002 16.7442 5.25579 17.5177 6.20674 17.5177H13.5095C14.3785 17.5177 15.086 16.8102 15.086 15.9411V4.05659C15.086 3.18754 14.3785 2.48002 13.5095 2.48002H5.98152V2.47775Z" fill="#86888C"/>
<path d="M6.05413 13.573C5.98815 13.573 5.92445 13.548 5.87895 13.5002C5.83345 13.4547 5.80615 13.391 5.80615 13.325V12.5219C5.80615 11.935 5.99043 11.4322 6.3385 11.0705C6.71842 10.6746 7.27807 10.4676 7.96057 10.4676H10.3561C11.0386 10.4676 11.5983 10.6769 11.9782 11.0705C12.3263 11.4345 12.5105 11.935 12.5105 12.5219V13.325C12.5105 13.4615 12.3991 13.573 12.2626 13.573H6.05413ZM7.96057 10.9613C6.90497 10.9613 6.3021 11.53 6.3021 12.5219V13.077H12.0169V12.5219C12.0169 11.53 11.4117 10.9613 10.3584 10.9613H7.96057ZM9.15949 9.79878C7.94237 9.79878 7.27125 9.12766 7.27125 7.91281C7.27125 6.69342 7.94237 6.02002 9.15949 6.02002C10.3789 6.02002 11.0523 6.69114 11.0523 7.91281C11.05 9.12766 10.3789 9.79878 9.15949 9.79878ZM9.15949 6.49777C8.69311 6.49777 8.34049 6.61152 8.11072 6.83447C7.87184 7.06424 7.75127 7.42596 7.75127 7.91054C7.75127 8.39511 7.87184 8.75683 8.10844 8.98433C8.33822 9.205 8.69084 9.31875 9.15721 9.31875C9.62358 9.31875 9.97848 9.20728 10.2105 8.98433C10.4494 8.75456 10.57 8.39283 10.57 7.91054C10.57 7.42596 10.4494 7.06424 10.2105 6.83447C9.97848 6.61152 9.62586 6.49777 9.15949 6.49777ZM15.2951 12.688H14.1121C13.9802 12.688 13.8733 12.5811 13.8733 12.4491C13.8733 12.3172 13.9802 12.2103 14.1121 12.2103H15.2951C15.4271 12.2103 15.534 12.3172 15.534 12.4491C15.534 12.5811 15.4271 12.688 15.2951 12.688Z" fill="#86888C"/>
</svg>
