<svg width="20" height="20" viewBox="0 0 20 20" fill="none" xmlns="http://www.w3.org/2000/svg">
<path d="M17.5246 8.07092V11.1352C17.5268 11.1595 17.5268 11.1816 17.5246 11.2059V15.0058C17.5268 15.2687 17.4207 15.5228 17.2329 15.7106C17.0429 15.8962 16.7889 16 16.5215 16H2.98975C2.44627 16 2.00663 15.5626 2 15.0191V5.98095C2.00663 5.43526 2.45069 4.99783 2.99638 5.00003H16.5215C16.7844 4.99783 17.0385 5.10166 17.2263 5.28503C17.4141 5.4684 17.5223 5.71805 17.5223 5.98095V8.00023C17.5268 8.02453 17.5268 8.04883 17.5246 8.07092ZM2.64732 8.3979V10.8215H16.8794V8.3979H2.64732ZM2.99638 5.64956C2.90359 5.64735 2.81522 5.6827 2.74894 5.74677C2.68267 5.81084 2.64511 5.897 2.64511 5.98979V7.75942H16.8662V5.98979C16.8662 5.802 16.7115 5.64956 16.5238 5.64956H2.99638ZM16.5238 15.3527C16.6165 15.3571 16.7071 15.3218 16.7756 15.2577C16.8419 15.1936 16.8794 15.1052 16.8794 15.0125V11.4622H2.64732V15.0125C2.64732 15.103 2.68487 15.1914 2.75115 15.2555C2.81743 15.3195 2.9058 15.3549 2.99859 15.3527H16.5238Z" fill="#86888C"/>
</svg>
