<svg width="20" height="20" viewBox="0 0 20 20" fill="none" xmlns="http://www.w3.org/2000/svg">
<path fill-rule="evenodd" clip-rule="evenodd" d="M15.4474 15.7143C15.8799 15.7143 16.0484 15.5435 16.0484 15.1042C16.0484 14.667 15.8799 14.494 15.4474 14.494C15.0148 14.494 14.8463 14.6648 14.8463 15.1042C14.8441 15.5435 15.0125 15.7143 15.4474 15.7143ZM15.4474 13.8133C16.2465 13.8133 16.7245 14.296 16.7245 15.1064C16.7245 15.9146 16.2487 16.3995 15.4474 16.3995C14.6483 16.3995 14.1725 15.9169 14.1725 15.1064C14.1702 14.2982 14.646 13.8133 15.4474 13.8133ZM15.4474 10.6101C15.8799 10.6101 16.0484 10.4394 16.0484 10C16.0484 9.56289 15.8799 9.38987 15.4474 9.38987C15.0148 9.38987 14.8463 9.56062 14.8463 10C14.8441 10.4394 15.0125 10.6101 15.4474 10.6101ZM15.4474 8.70689C16.2465 8.70689 16.7245 9.18953 16.7245 10C16.7245 10.8082 16.2487 11.2931 15.4474 11.2931C14.6483 11.2931 14.1725 10.8105 14.1725 10C14.1702 9.1918 14.646 8.70689 15.4474 8.70689ZM15.461 4.28571C15.0285 4.28571 14.86 4.45646 14.86 4.89585C14.86 5.33295 15.0285 5.5037 15.461 5.5037C15.8936 5.5037 16.0643 5.33295 16.0643 4.89585C16.0643 4.46101 15.889 4.28571 15.461 4.28571ZM15.461 6.18668C14.6619 6.18668 14.1861 5.70404 14.1861 4.89585C14.1861 4.08765 14.6619 3.60273 15.461 3.60273C16.2601 3.60273 16.7382 4.08537 16.7382 4.89585C16.7382 5.70404 16.2601 6.18668 15.461 6.18668ZM17.4212 16.9573L17.4257 13.2533C17.4257 13.0552 17.2664 12.8958 17.0706 12.8936H3.13547C2.93741 12.8936 2.77805 13.0552 2.78032 13.2533L2.77349 16.9573C2.77349 17.1554 2.93286 17.317 3.12864 17.317H17.0638C17.2618 17.317 17.4212 17.1554 17.4212 16.9573ZM2.77805 3.04269L2.77349 6.74673C2.77349 6.94479 2.93286 7.10643 3.12864 7.10643H17.0638C17.2618 7.10643 17.4212 6.94479 17.4189 6.74673L17.4235 3.04269C17.4235 2.84462 17.2641 2.68298 17.0683 2.68298H3.13547C2.93741 2.68298 2.77805 2.84462 2.77805 3.04269ZM3.12864 12.2129H17.0638C17.2618 12.2106 17.4212 12.0512 17.4189 11.8532L17.4235 8.14912C17.4235 7.95105 17.2641 7.78941 17.0683 7.78941H3.13547C2.93741 7.79169 2.77805 7.95105 2.78032 8.14912L2.77577 11.8532C2.77349 12.0489 2.93286 12.2129 3.12864 12.2129ZM18.0996 8.14912L18.0951 11.8532C18.0951 12.1218 17.9903 12.3654 17.8241 12.5521C17.9926 12.7365 18.0996 12.9846 18.0996 13.2555L18.0951 16.9573C18.0951 17.531 17.6329 18 17.0638 18H3.12864C2.55722 17.9954 2.09734 17.5287 2.09962 16.9573L2.10417 13.2533C2.10417 12.9846 2.20889 12.741 2.37509 12.5566C2.19979 12.3631 2.09962 12.1127 2.09962 11.8509L2.10417 8.14684C2.10417 7.87593 2.20889 7.6346 2.37509 7.44792C2.19979 7.25896 2.09962 7.00626 2.09962 6.74673L2.10417 3.04269C2.10417 2.46898 2.56632 2 3.13547 2H17.0706C17.6375 2 18.0996 2.46898 18.0996 3.04269L18.0951 6.74673C18.0951 7.01537 17.9903 7.25896 17.8241 7.44565C17.9926 7.63005 18.0996 7.87593 18.0996 8.14912ZM4.23963 5.23506C4.05295 5.23506 3.90269 5.08253 3.90269 4.89357C3.90269 4.70461 4.05295 4.55208 4.23963 4.55208H8.91806C9.10474 4.55208 9.255 4.70461 9.255 4.89357C9.25727 5.08025 9.10702 5.23278 8.91806 5.23506H4.23963ZM8.91806 9.65851C9.10474 9.65851 9.255 9.81104 9.255 10C9.255 10.1867 9.10474 10.3392 8.91806 10.3415H4.23963C4.05295 10.3415 3.90269 10.189 3.90269 10.0023C3.90269 9.81332 4.05295 9.66079 4.23963 9.66079C4.23963 9.65851 8.91806 9.65851 8.91806 9.65851ZM8.91806 14.7968C9.10474 14.7968 9.255 14.9493 9.255 15.1383C9.255 15.325 9.10474 15.4775 8.91806 15.4798H4.23963C4.05295 15.4798 3.90269 15.3273 3.90269 15.1406C3.90269 14.9516 4.05295 14.7991 4.23963 14.7991H8.91806V14.7968Z" fill="#86888C"/>
</svg>
