<svg width="20" height="20" viewBox="0 0 20 20" fill="none" xmlns="http://www.w3.org/2000/svg">
<path fill-rule="evenodd" clip-rule="evenodd" d="M16.1628 17.3126C15.184 17.3126 15.0315 16.6502 15.0269 16.2564V16.2541L15.0292 16.1267C15.0383 15.7283 15.1999 15.0682 16.1377 15.0523C16.1469 15.0523 16.1582 15.0591 16.1696 15.0591C16.181 15.0591 16.1901 15.0545 16.2038 15.0523C17.1438 15.0682 17.2986 15.726 17.3077 16.1198V16.2427C17.3009 16.6411 17.1438 17.3126 16.1628 17.3126ZM4.9705 16.1198V16.2427C4.96367 16.6434 4.80661 17.3126 3.82555 17.3126C2.84676 17.3126 2.69425 16.6525 2.69198 16.2587L2.69425 16.1289C2.70336 15.726 2.86725 15.05 3.83693 15.05C4.80433 15.0477 4.96139 15.7192 4.9705 16.1198ZM7.35828 9.69171V8.51262C7.52672 8.60367 7.71109 8.68561 7.92734 8.75162C8.48274 8.91779 9.20886 9.01112 9.97368 9.01112C10.7385 9.01112 11.4646 8.92007 12.02 8.75162C12.2294 8.68789 12.4115 8.60594 12.5777 8.51262V9.69171C12.5777 9.96941 12.0997 10.1538 11.8174 10.238C10.825 10.5316 9.11554 10.5339 8.12082 10.238C7.83629 10.1538 7.35828 9.96941 7.35828 9.69171ZM8.12082 2.90395C8.61476 2.756 9.2726 2.67633 9.96913 2.67633C10.6679 2.67633 11.3235 2.756 11.8174 2.90395C12.0564 2.97679 12.432 3.11792 12.5436 3.32961C12.4867 3.43204 12.3228 3.59593 11.822 3.74616C10.8341 4.0398 9.11326 4.0398 8.12765 3.74616C7.74296 3.63008 7.48802 3.47757 7.40608 3.32278C7.49258 3.168 7.74069 3.02004 8.12082 2.90395ZM7.35828 6.33425C7.52672 6.42303 7.70882 6.50497 7.92961 6.57098C8.48502 6.73715 9.21114 6.8282 9.97368 6.8282C10.7362 6.8282 11.4623 6.73715 12.02 6.57098C12.2135 6.5118 12.4024 6.43213 12.5777 6.33198V7.64082C12.4844 7.7865 12.2294 7.97315 11.8197 8.09607C10.8341 8.3897 9.11098 8.3897 8.12537 8.09607C7.66557 7.95949 7.43339 7.77739 7.356 7.64992V6.33425H7.35828ZM7.92961 4.40172C8.48502 4.56789 9.21114 4.65894 9.97368 4.65894C10.7362 4.65894 11.4646 4.56789 12.02 4.40172C12.2408 4.33799 12.4184 4.25604 12.58 4.16955V5.4579C12.4867 5.60358 12.234 5.79023 11.8243 5.91542C10.8341 6.20906 9.11554 6.20906 8.12992 5.91542C7.6724 5.77885 7.44022 5.6013 7.36055 5.46928V4.16499C7.52217 4.25149 7.70427 4.33343 7.92961 4.40172ZM17.9974 16.1062C17.9838 15.3778 17.5763 14.5469 16.5156 14.3944V12.2138C16.5156 12.0249 16.3608 11.8701 16.1719 11.8724H10.3083V11.1417C10.9434 11.1189 11.542 11.0347 12.0177 10.8936C13.0512 10.584 13.2697 10.0673 13.2697 9.68944V3.45025C13.2697 2.90168 12.8486 2.49651 12.0155 2.2484C10.9069 1.91834 9.03815 1.91606 7.92279 2.2484C7.23764 2.45326 6.82791 2.76966 6.70727 3.19076C6.68223 3.27498 6.67085 3.36376 6.67085 3.45025V9.69171C6.67085 10.0696 6.88937 10.584 7.92506 10.8958C8.39624 11.0347 8.99262 11.1189 9.62086 11.1417V11.8724H3.82099C3.63207 11.8724 3.47728 12.0249 3.47728 12.2161L3.48639 14.3944C2.43021 14.5492 2.02049 15.3823 2.00228 16.113L2 16.2587V16.261C2.00683 17.0599 2.48939 17.9977 3.82327 17.9977C5.15715 17.9977 5.64654 17.0576 5.65792 16.2541V16.1084C5.64199 15.38 5.23227 14.5469 4.17154 14.3967L4.16471 12.5598H15.8236V14.3967C14.7674 14.5492 14.3554 15.3823 14.3395 16.1107C14.3372 16.1585 14.3372 16.2154 14.3372 16.2655C14.3463 17.0645 14.8266 18 16.1605 18C17.4944 18 17.9815 17.0599 17.9952 16.2564L17.9974 16.1062Z" fill="#86888C"/>
</svg>
