<svg width="40" height="40" viewBox="0 0 40 40" fill="none" xmlns="http://www.w3.org/2000/svg">
<path fill-rule="evenodd" clip-rule="evenodd" d="M32.9852 35.5361C30.9312 36.1559 28.2214 36.494 25.3632 36.494C22.51 36.494 19.8003 36.1508 17.7513 35.5361C15.4155 34.8293 14.2323 33.8765 14.2323 32.6932V32.4781C14.6113 32.4217 14.9699 32.2681 15.2721 32.0376C16.8805 30.7621 19.0934 30.1577 20.666 29.8759C21.1628 29.7837 21.6033 29.502 21.8953 29.0922C23.0222 29.2049 24.1901 29.2715 25.3837 29.2715C28.4007 29.2715 31.2539 28.9078 33.4309 28.247C34.6603 27.8731 35.7001 27.3506 36.4992 26.7359V32.6881C36.5043 33.8765 35.321 34.8293 32.9852 35.5361ZM7.24023 28.4058C7.0046 28.3648 6.83556 28.1599 6.83556 27.9243V24.144L12.9722 26.8947C13.4485 27.1047 13.9915 27.1047 14.4679 26.8947L20.8094 24.0569V27.9294C20.8094 28.1651 20.6403 28.3699 20.4047 28.4109C18.6631 28.7234 16.2044 29.3995 14.3501 30.8697C14.0427 31.1155 13.6022 31.1155 13.2897 30.8697C11.4354 29.3944 8.97159 28.7183 7.24023 28.4058ZM3.49578 20.7786C3.49578 20.6352 3.57261 20.5225 3.70067 20.4661L13.5817 16.0353C13.6278 16.0148 13.6739 16.0046 13.72 16.0046C13.7661 16.0046 13.8173 16.0148 13.8634 16.0353L23.7394 20.461C23.8674 20.5225 23.9443 20.6352 23.9443 20.7786C23.9443 20.922 23.8674 21.0347 23.7394 21.0911L13.8583 25.5168C13.7712 25.5578 13.6688 25.5578 13.5766 25.5168L3.70067 21.0911C3.57261 21.0398 3.49578 20.9169 3.49578 20.7786ZM17.7462 4.46386C19.79 3.84917 22.4946 3.50598 25.3632 3.50598C28.2317 3.50598 30.9363 3.84917 32.9852 4.46386C35.0035 5.07342 36.1611 5.87251 36.4377 6.84064C36.4326 6.86113 36.4172 6.86625 36.407 6.88162C36.0689 7.76779 34.8908 8.54126 33.0006 9.11497C30.9619 9.72965 28.2522 10.0729 25.3837 10.0729C22.5151 10.0729 19.8105 9.72965 17.7667 9.11497C15.8304 8.5259 14.642 7.73193 14.3398 6.81503C14.3347 6.79966 14.3245 6.78941 14.3193 6.77917C14.6216 5.85202 15.7997 5.05805 17.7462 4.46386ZM14.2323 9.04838C14.9852 9.6477 16.0148 10.1548 17.3364 10.5544C19.5134 11.2151 22.3717 11.5788 25.3837 11.5788C28.4007 11.5788 31.2539 11.2151 33.4309 10.5544C34.732 10.1599 35.7513 9.66306 36.5043 9.07911V15.687C36.1253 16.399 35.0342 17.3364 33.0057 17.9511C30.967 18.5657 28.2573 18.9089 25.3888 18.9089C24.8714 18.9089 24.3592 18.8936 23.8521 18.8731L14.4679 14.6727C14.3911 14.642 14.3091 14.6471 14.2323 14.6215V9.04838ZM22.3051 23.3859L24.3541 22.469C25.0251 22.1668 25.4451 21.5213 25.4451 20.7786C25.4451 20.6505 25.4195 20.5276 25.3939 20.4047C28.411 20.4047 31.2641 20.041 33.4411 19.3853C34.6756 19.0114 35.7155 18.494 36.5094 17.8793V24.564C36.1304 25.2709 35.0291 26.2083 33.0109 26.823C30.9722 27.4377 28.2624 27.7809 25.3939 27.7809C24.3387 27.7809 23.3091 27.7245 22.3051 27.6323V23.3859ZM33.4155 3.02447C31.2334 2.36369 28.3751 2 25.3632 2C22.3563 2 19.4981 2.36369 17.3159 3.02447C14.7804 3.79283 13.2846 4.93512 12.8595 6.41548H12.8543C12.7724 6.70233 12.7365 6.99943 12.7365 7.30165V14.7701L3.09111 19.0882C2.4252 19.3853 1.99492 20.0461 2.00005 20.7786C2.00005 21.5213 2.42008 22.1668 3.09111 22.469L5.33471 23.473V27.9192C5.33471 28.8873 6.0211 29.712 6.96874 29.881C8.54131 30.1628 10.749 30.7672 12.3575 32.0427C12.4753 32.1349 12.6033 32.181 12.7314 32.2476V32.6983C12.7314 34.6192 14.2681 36.0586 17.3108 36.9807C19.5032 37.6363 22.3615 38 25.358 38C28.3597 38 31.218 37.6363 33.4155 36.9755C36.4531 36.0535 37.9949 34.6141 37.9949 32.6983V7.30165C38 5.38589 36.4582 3.9465 33.4155 3.02447Z" fill="#86888C"/>
</svg>
