<svg width="24" height="24" viewBox="0 0 24 24" fill="none" xmlns="http://www.w3.org/2000/svg">
<path fill-rule="evenodd" clip-rule="evenodd" d="M20.214 20.6312C19.0729 20.9755 17.5675 21.1633 15.9795 21.1633C14.3944 21.1633 12.889 20.9727 11.7507 20.6312C10.4531 20.2385 9.7957 19.7092 9.7957 19.0518V18.9323C10.0063 18.901 10.2055 18.8156 10.3734 18.6875C11.267 17.9789 12.4963 17.6431 13.37 17.4866C13.646 17.4354 13.8907 17.2789 14.053 17.0512C14.679 17.1138 15.3279 17.1508 15.9909 17.1508C17.6671 17.1508 19.2522 16.9488 20.4616 16.5817C21.1446 16.3739 21.7223 16.0837 22.1662 15.7422V19.0489C22.1691 19.7092 21.5117 20.2385 20.214 20.6312ZM5.91124 16.6699C5.78033 16.6471 5.68642 16.5333 5.68642 16.4024V14.3022L9.09564 15.8304C9.3603 15.9471 9.66195 15.9471 9.9266 15.8304L13.4497 14.2538V16.4052C13.4497 16.5361 13.3557 16.65 13.2248 16.6727C12.2573 16.8463 10.8913 17.222 9.86115 18.0387C9.69041 18.1753 9.44567 18.1753 9.27208 18.0387C8.24191 17.2191 6.8731 16.8435 5.91124 16.6699ZM3.83099 12.4326C3.83099 12.3529 3.87367 12.2903 3.94482 12.259L9.43429 9.79738C9.4599 9.786 9.48551 9.78031 9.51112 9.78031C9.53674 9.78031 9.56519 9.786 9.59081 9.79738L15.0774 12.2561C15.1486 12.2903 15.1913 12.3529 15.1913 12.4326C15.1913 12.5122 15.1486 12.5748 15.0774 12.6061L9.58796 15.0649C9.53958 15.0877 9.48267 15.0877 9.43144 15.0649L3.94482 12.6061C3.87367 12.5777 3.83099 12.5094 3.83099 12.4326ZM11.7479 3.36881C12.8833 3.02732 14.3859 2.83665 15.9795 2.83665C17.5732 2.83665 19.0757 3.02732 20.214 3.36881C21.3353 3.70746 21.9784 4.15139 22.1321 4.68924C22.1292 4.70063 22.1207 4.70347 22.115 4.71201C21.9272 5.20433 21.2726 5.63404 20.2226 5.95276C19.09 6.29425 17.5845 6.48492 15.9909 6.48492C14.3973 6.48492 12.8947 6.29425 11.7593 5.95276C10.6836 5.6255 10.0234 5.18441 9.85546 4.67501C9.85261 4.66648 9.84692 4.66079 9.84408 4.65509C10.012 4.14001 10.6665 3.69892 11.7479 3.36881ZM9.7957 5.91577C10.214 6.24872 10.786 6.53045 11.5202 6.75242C12.7297 7.11952 14.3176 7.32157 15.9909 7.32157C17.6671 7.32157 19.2522 7.11952 20.4616 6.75242C21.1844 6.5333 21.7507 6.25726 22.1691 5.93284V9.60387C21.9585 9.99943 21.3523 10.5202 20.2254 10.8617C19.0928 11.2032 17.5874 11.3939 15.9938 11.3939C15.7063 11.3939 15.4218 11.3853 15.14 11.3739L9.9266 9.04041C9.88392 9.02333 9.83839 9.02618 9.7957 9.01195V5.91577ZM14.2806 13.881L15.4189 13.3717C15.7917 13.2038 16.0251 12.8452 16.0251 12.4326C16.0251 12.3614 16.0108 12.2931 15.9966 12.2248C17.6728 12.2248 19.2579 12.0228 20.4673 11.6585C21.1531 11.4508 21.7308 11.1633 22.1719 10.8219V14.5356C21.9613 14.9283 21.3495 15.4491 20.2283 15.7906C19.0956 16.132 17.5902 16.3227 15.9966 16.3227C15.4104 16.3227 14.8384 16.2914 14.2806 16.2402V13.881ZM20.4531 2.56915C19.2408 2.20205 17.6528 2 15.9795 2C14.3091 2 12.7211 2.20205 11.5088 2.56915C10.1002 2.99602 9.26923 3.63062 9.03304 4.45304H9.03019C8.98466 4.61241 8.96474 4.77746 8.96474 4.94536V9.09448L3.60617 11.4935C3.23622 11.6585 2.99718 12.0256 3.00003 12.4326C3.00003 12.8452 3.23338 13.2038 3.60617 13.3717L4.85261 13.9294V16.3995C4.85261 16.9374 5.23395 17.3956 5.76041 17.4895C6.63406 17.646 7.86058 17.9818 8.75415 18.6904C8.8196 18.7416 8.89075 18.7672 8.96189 18.8042V19.0546C8.96189 20.1218 9.81562 20.9215 11.506 21.4337C12.724 21.798 14.3119 22 15.9767 22C17.6443 22 19.2322 21.798 20.4531 21.4308C22.1406 20.9186 22.9972 20.119 22.9972 19.0546V4.94536C23 3.88105 22.1434 3.08139 20.4531 2.56915Z" fill="#86888C"/>
</svg>
