<svg width="24" height="24" viewBox="0 0 24 24" fill="none" xmlns="http://www.w3.org/2000/svg">
<path fill-rule="evenodd" clip-rule="evenodd" d="M17.8594 19.0404C16.6927 17.3813 15.967 14.9397 15.893 12.3643H21.1605C21.0524 14.9567 19.8543 17.3842 17.8594 19.0404ZM12.4155 21.1577V12.3671H15.0563C15.1303 15.1161 15.9158 17.7427 17.1992 19.5413C15.7906 20.5202 14.1315 21.0808 12.4155 21.1577ZM12.4155 2.84234C14.14 2.91633 15.7393 3.4741 17.0825 4.37621C15.8418 6.22595 15.1161 8.79283 15.0592 11.5333H12.4155V2.84234ZM21.1577 11.5333H15.893C15.9499 8.97496 16.6272 6.58452 17.7513 4.87422C19.7832 6.50768 21.0211 8.92943 21.1577 11.5333ZM11.5845 11.5333H8.88389C8.83552 8.8099 8.11838 6.24303 6.88332 4.39044C8.24075 3.48264 9.84861 2.91633 11.5845 2.84234V11.5333ZM11.5845 21.1577C9.79169 21.0751 8.144 20.4832 6.75811 19.5157C8.01594 17.7143 8.79283 15.099 8.88105 12.3643H11.5817V21.1577H11.5845ZM2.8395 12.3671H8.04724C7.96471 14.9169 7.24758 17.35 6.09789 19.0091C4.12863 17.35 2.94479 14.9397 2.8395 12.3671ZM6.20888 4.89983C7.34149 6.61582 8.00171 8.99203 8.05009 11.5333H2.84234C2.98179 8.85828 4.26807 6.49061 6.20888 4.89983ZM12 2C6.48207 2 2 6.48207 2 12C2 17.5151 6.48207 22 12 22C17.5179 22 22 17.5151 22 12C22 6.48207 17.5179 2 12 2Z" fill="#86888C"/>
</svg>
