<svg width="24" height="24" viewBox="0 0 24 24" fill="none" xmlns="http://www.w3.org/2000/svg">
<path fill-rule="evenodd" clip-rule="evenodd" d="M20.8851 18.7519V7.2481C20.8904 7.01707 20.7071 6.82322 20.4734 6.81791H4.18968C3.95599 6.82322 3.77276 7.01442 3.77807 7.2481V18.7519C3.77807 18.9909 3.96396 19.1821 4.18968 19.1821H20.4734C20.7045 19.1768 20.8904 18.9829 20.8851 18.7519ZM20.4734 6C21.1294 6 21.6631 6.56032 21.6631 7.2481V18.7519C21.6631 19.4397 21.1294 20 20.4734 20H4.19234C3.53376 20 3 19.4397 3 18.7519V7.2481C3 6.56032 3.53376 6 4.18968 6H20.4734ZM11.3809 14.3198C11.596 14.3198 11.7686 14.503 11.7686 14.7288C11.7686 14.9545 11.596 15.1377 11.3809 15.1377H5.06335C4.84294 15.1324 4.66768 14.9492 4.67299 14.7288C4.67299 14.503 4.8456 14.3198 5.0607 14.3198H11.3809ZM5.06335 11.8687C4.84294 11.8634 4.67033 11.6802 4.67564 11.4598C4.67564 11.2341 4.85091 11.0508 5.06335 11.0508H9.34939C9.56449 11.0508 9.7371 11.2341 9.7371 11.4598C9.7371 11.6855 9.56449 11.8687 9.34939 11.8687H5.06335ZM16.0068 10.5171C15.8581 10.6711 15.8263 10.9579 15.8263 11.173C15.8263 11.3854 15.8581 11.6722 16.0068 11.8236C16.1529 11.9697 16.4184 12.0015 16.6176 12.0015C16.8168 12.0015 17.085 11.9697 17.231 11.8236C17.3505 11.7014 17.4143 11.4837 17.4143 11.173C17.4143 10.8623 17.3532 10.6419 17.231 10.5197C17.0823 10.3684 16.8168 10.3365 16.6176 10.3365C16.4184 10.3365 16.1529 10.3684 16.0068 10.5171ZM16.6149 12.8168C16.1184 12.8168 15.7307 12.6787 15.4651 12.4078C15.1863 12.129 15.0455 11.7121 15.0455 11.1703C15.0455 10.6286 15.1863 10.209 15.4651 9.92754C15.7307 9.65668 16.121 9.51859 16.6149 9.51859C17.1115 9.51859 17.4992 9.65668 17.7674 9.92754C18.0463 10.209 18.1897 10.6286 18.1897 11.1703C18.1897 11.7121 18.0489 12.129 17.7674 12.4078C17.4992 12.6813 17.1115 12.8168 16.6149 12.8168ZM14.6074 15.2917H18.6278C18.6172 15.0846 18.5668 14.8297 18.3942 14.6438C18.1764 14.4074 17.8285 14.3596 17.5736 14.3596H15.6563C15.4014 14.3596 15.0508 14.4101 14.8384 14.6438C14.6711 14.827 14.618 15.0846 14.6074 15.2917ZM17.5736 13.5391C18.1552 13.5391 18.6332 13.725 18.9545 14.0755C19.2519 14.3995 19.4086 14.8456 19.4086 15.3714V15.9184C19.4112 16.0193 19.3316 16.1043 19.2307 16.107H14.0046C13.9036 16.1043 13.824 16.0193 13.8266 15.9184V15.3714C13.8266 14.8456 13.9833 14.3995 14.2781 14.0755C14.5994 13.7223 15.0774 13.5391 15.659 13.5391H17.5736Z" fill="#86888C"/>
</svg>
