<svg width="28" height="28" viewBox="0 0 28 28" fill="none" xmlns="http://www.w3.org/2000/svg">
<path fill-rule="evenodd" clip-rule="evenodd" d="M25.0029 24.535V10.0387H21.8748C20.6864 10.0387 19.6551 9.65623 18.9073 8.92544C18.1492 8.19465 17.7496 7.19067 17.7496 6.02618V3.0074H9.3899C9.1611 3.0074 8.89132 3.25669 8.89132 3.46841V8.6181C10.2197 8.69664 11.0393 9.24986 11.7667 9.73136C12.5658 10.2641 13.1839 10.6841 14.3927 10.5031C14.543 10.4724 14.7035 10.5134 14.8128 10.6124C14.9221 10.7046 14.9904 10.8446 14.9904 10.9846C15.0006 11.0837 15.0006 12.3506 14.9528 13.8327H21.8134C22.0934 13.8327 22.3119 14.0546 22.3119 14.3347C22.3119 14.6079 22.0934 14.8367 21.8134 14.8367H14.9255C14.8845 15.7689 14.8264 16.7114 14.7342 17.4456H21.8441C22.1241 17.4456 22.3427 17.6676 22.3427 17.9476C22.3427 18.2174 22.1241 18.4496 21.8441 18.4496H14.5259C14.1776 19.3819 13.3273 20.2766 12.3779 21.0279H21.8475C22.1275 21.0279 22.3461 21.2499 22.3461 21.5299C22.3461 21.8031 22.1275 22.0319 21.8475 22.0319H10.9676C10.0695 22.6022 9.27038 23.0154 8.89132 23.2066V24.5418C8.89132 24.7638 9.14061 25.0028 9.3899 25.0028H24.5111C24.7604 24.996 25.0029 24.7638 25.0029 24.535ZM3.32843 17.7701C3.62894 19.5151 6.98239 21.5128 8.50202 22.2641C9.03134 22.0046 9.77237 21.5913 10.5407 21.0996C11.9784 20.1571 13.4776 18.9106 13.6756 17.7701C13.9454 16.206 13.9932 12.8458 13.9932 11.531C12.7263 11.5925 11.9579 11.0598 11.2169 10.568C10.469 10.066 9.75871 9.59476 8.49861 9.59476H8.48836C7.22826 9.59476 6.53162 10.066 5.78034 10.568C5.02223 11.07 4.24363 11.6027 2.99377 11.5413C3.00743 12.8662 3.05865 16.2163 3.32843 17.7701ZM24.7399 9.03472L18.7468 3.21571V6.02618C18.7468 6.90723 19.0473 7.66192 19.6073 8.20489C20.1674 8.75811 20.9562 9.03813 21.8748 9.03813H24.7399V9.03472ZM25.7507 8.62151C25.9112 8.77177 26 8.99032 26 9.21229V24.535C26 25.3273 25.3205 26 24.5111 26H9.3899C8.59081 26 7.89076 25.3068 7.89076 24.535V23.0905C6.58284 22.428 2.73765 20.28 2.33811 17.9408C1.98979 15.9055 2.00003 11.1793 2.00003 10.9778C2.00003 10.8275 2.06833 10.6773 2.19127 10.5885C2.31079 10.4963 2.47129 10.4587 2.62155 10.4963C3.80993 10.6875 4.43828 10.2573 5.22712 9.72453C5.91694 9.26352 6.69554 8.75128 7.89417 8.63176V3.465C7.89417 2.70347 8.60447 2 9.39332 2H18.5931C18.8116 2 19.0234 2.07854 19.1839 2.23221L25.7507 8.62151ZM7.6722 18.4394C7.54585 18.4394 7.41608 18.3916 7.31705 18.2925L5.49349 16.4622C5.29884 16.2675 5.29884 15.9499 5.49349 15.7519C5.68814 15.5572 6.00572 15.5572 6.20037 15.7519L7.6722 17.2271L11.3774 13.5048C11.572 13.3102 11.8896 13.3102 12.0843 13.5048C12.2789 13.6995 12.2789 14.0171 12.0843 14.2151L8.02394 18.2925C7.92832 18.3916 7.79855 18.4394 7.6722 18.4394Z" fill="#86888C"/>
</svg>
