<svg width="28" height="28" viewBox="0 0 28 28" fill="none" xmlns="http://www.w3.org/2000/svg">
<path fill-rule="evenodd" clip-rule="evenodd" d="M21.4969 24.996C21.7492 24.996 21.988 24.7706 21.988 24.5316V10.0387H18.8844C17.7009 10.0387 16.6812 9.65282 15.9377 8.92544C15.1873 8.19124 14.7917 7.18725 14.7917 6.01935V3.00057H6.48359C6.2585 3.00057 5.99247 3.25327 5.99247 3.465V24.5316C5.99247 24.7604 6.24144 24.996 6.48359 24.996H21.4969ZM21.7288 9.03813L15.7842 3.22254V6.02277C15.7842 6.91064 16.0775 7.66875 16.63 8.20831C17.1859 8.75128 17.9669 9.04155 18.8878 9.04155H21.7288V9.03813ZM22.7315 8.62151C22.8884 8.77518 22.9805 8.99032 22.9805 9.21229V24.5316C22.9805 25.3273 22.3018 26 21.4969 26H6.48359C5.69234 26 5 25.3136 5 24.5316V3.46841C5 2.70006 5.70599 2 6.48359 2H15.6205C15.8353 2 16.0468 2.08537 16.2003 2.23563L22.7315 8.62151ZM9.53604 15.6596C9.44055 15.7587 9.31094 15.8065 9.18475 15.8065C9.05856 15.8065 8.93237 15.7587 8.83347 15.6596C8.63906 15.465 8.63906 15.1474 8.83347 14.9493L9.98282 13.7849L8.83347 12.6204C8.63906 12.4223 8.63906 12.1081 8.83347 11.9101C9.02787 11.712 9.34164 11.712 9.53604 11.9101L10.6854 13.0746L11.8348 11.9101C12.0292 11.712 12.3429 11.712 12.5373 11.9101C12.7317 12.1047 12.7317 12.4223 12.5373 12.6204L11.388 13.7849L12.5373 14.9493C12.7317 15.144 12.7317 15.4616 12.5373 15.6596C12.4418 15.7587 12.3156 15.8065 12.186 15.8065C12.0599 15.8065 11.9337 15.7587 11.8348 15.6596L10.6854 14.4952L9.53604 15.6596ZM19.3107 11.9135C19.5051 12.1081 19.5051 12.4257 19.3107 12.6238L18.1613 13.7883L19.3107 14.9528C19.5051 15.1508 19.5051 15.465 19.3107 15.6631C19.2152 15.7621 19.0856 15.8099 18.9594 15.8099C18.8332 15.8099 18.707 15.7621 18.6081 15.6631L17.4588 14.4986L16.3094 15.6631C16.2139 15.7621 16.0843 15.8099 15.9581 15.8099C15.8319 15.8099 15.7057 15.7621 15.6068 15.6631C15.4124 15.4684 15.4124 15.1508 15.6068 14.9528L16.7562 13.7883L15.6068 12.6238C15.4124 12.4291 15.4124 12.1116 15.6068 11.9135C15.8012 11.7188 16.115 11.7188 16.3094 11.9135L17.4588 13.078L18.6081 11.9135C18.8059 11.7154 19.1197 11.7154 19.3107 11.9135ZM16.9301 18.0398C17.8135 18.0603 18.8469 18.6033 18.8469 20.0581C18.8469 20.3347 18.6252 20.56 18.3523 20.56C18.0761 20.56 17.8578 20.3347 17.8578 20.0581C17.8578 19.2385 17.3428 19.0541 16.9097 19.0438H16.7903C16.364 19.0472 15.8626 19.2248 15.8626 20.0478C15.8626 21.5333 14.836 22.066 13.9561 22.0729H13.7992C12.9159 22.0524 11.8825 21.5094 11.8825 20.0546C11.8825 19.2351 11.3675 19.0507 10.9344 19.0404H10.815C10.3853 19.0438 9.88733 19.2214 9.88733 20.0444C9.88733 20.321 9.66564 20.5464 9.3928 20.5464C9.11654 20.5464 8.89827 20.321 8.89827 20.0444C8.89827 18.5692 9.92484 18.0433 10.8048 18.0364H10.9617C11.845 18.0569 12.8784 18.5999 12.8784 20.0546C12.8784 20.8742 13.3934 21.0586 13.8265 21.0689H13.9561C14.5632 21.0655 14.8736 20.724 14.8736 20.0649C14.8736 18.5726 15.9001 18.0433 16.7801 18.0364L16.9301 18.0398Z" fill="#86888C"/>
</svg>
