<svg width="20" height="20" viewBox="0 0 20 20" fill="none" xmlns="http://www.w3.org/2000/svg">
<path fill-rule="evenodd" clip-rule="evenodd" d="M17.3206 17.0641L17.3274 7.45521L14.9918 7.44155C14.2337 7.43472 13.6304 7.20935 13.1797 6.75406C12.4148 5.97323 12.4285 4.82362 12.4285 4.77126L12.4011 2.76798L6.91488 2.77481C6.67812 2.77481 6.48235 2.96375 6.48007 3.20278V6.0347L6.99683 5.02623C7.15163 4.7098 7.5318 4.58004 7.84822 4.73484C7.8505 4.73712 7.85278 4.73712 7.85733 4.73939C7.98481 4.79858 8.08953 4.89874 8.15099 5.03306L12.9953 14.7194C13.0681 14.8583 13.0886 15.0335 13.0363 15.1929C12.9589 15.4638 12.7085 15.6505 12.4262 15.6459H12.4034L6.4869 15.6254V16.9617C6.48007 17.1211 6.51422 17.2349 6.58707 17.31C6.67585 17.4102 6.81471 17.4307 6.91488 17.4307L16.97 17.417C17.168 17.417 17.3206 17.2554 17.3206 17.0641ZM2.67611 14.9721H6.4869L12.4171 14.9789L7.55456 5.32444L6.48007 7.44838L5.80852 8.771L2.67611 14.9721ZM13.1228 2.92733C13.1091 2.9114 13.0932 2.89774 13.0773 2.88635L13.1046 4.76899C13.1046 4.82817 13.1114 5.72282 13.6691 6.28511C13.9856 6.60609 14.434 6.77227 14.9963 6.77227L17.1225 6.78593C17.1202 6.78593 13.1228 2.92733 13.1228 2.92733ZM17.7964 6.50592C17.9238 6.63341 17.999 6.80869 17.999 6.98626L17.9921 17.0619C17.9921 17.6219 17.5368 18.084 16.9723 18.084L6.91032 18.0977C6.58251 18.0977 6.2934 17.977 6.0999 17.7721C5.89958 17.5581 5.80396 17.2713 5.81762 16.9435V15.6277L2.65107 15.614C2.29594 15.6414 2.00683 15.334 2 14.9789C2 14.8719 2.02732 14.7717 2.07512 14.6716L5.81079 7.34594V3.20051C5.81079 2.59952 6.30706 2.10553 6.91032 2.10553L12.7335 2.0987C13.0613 2.08504 13.3436 2.20569 13.5917 2.45155L17.7964 6.50592ZM7.58871 12.3769C7.40431 12.3746 7.25635 12.2267 7.25407 12.0423V8.40904C7.25407 8.22465 7.40431 8.0744 7.58871 8.0744C7.7731 8.0744 7.92335 8.22465 7.92335 8.40904V12.0423C7.92335 12.2221 7.77538 12.3746 7.58871 12.3769ZM7.59326 13.843C7.30643 13.843 7.07195 13.6108 7.06968 13.3239C7.06968 13.0348 7.30415 12.8003 7.59326 12.8003C7.88237 12.8003 8.11685 13.0348 8.11685 13.3239C8.11685 13.6108 7.88465 13.843 7.59326 13.843Z" fill="#86888C"/>
</svg>
