<svg width="20" height="20" viewBox="0 0 20 20" fill="none" xmlns="http://www.w3.org/2000/svg">
<path fill-rule="evenodd" clip-rule="evenodd" d="M10.3551 17.3261C11.992 17.2965 17.3329 16.6796 17.3329 10.0183C17.3329 7.13381 16.3448 5.05073 14.4006 3.83047C12.8115 2.83333 11.0176 2.68762 10.3187 2.66941C10.1365 2.66486 9.92483 2.66258 9.71993 2.66258H9.58106C8.88898 2.66941 7.1064 2.78779 5.5401 3.77356C3.63232 4.97332 2.66477 7.05869 2.66477 9.97045C2.66477 12.8868 3.64142 14.979 5.56742 16.1924C7.14738 17.1873 8.94361 17.3193 9.64253 17.3284C9.72221 17.3307 9.80189 17.3307 9.88385 17.3307C10.05 17.3307 10.2117 17.3284 10.3551 17.3261ZM10.3346 2.00692C11.9009 2.04335 17.9999 2.66258 17.9999 10.0205C17.9999 17.3944 11.8918 17.9658 10.3665 17.9954C10.2208 17.9977 10.0546 18 9.88385 18C9.79961 18 9.71538 18 9.63342 17.9977C8.02615 17.975 2 17.3944 2 9.975C2 2.56696 7.97151 2.01375 9.57651 2.00237H9.71993C9.92938 1.99782 10.1457 2.00009 10.3346 2.00692ZM15.0016 11.1179V8.87768C15.0016 8.73654 14.7967 8.55896 14.5691 8.55896H11.7666C11.5822 8.55896 11.4342 8.41098 11.4342 8.22658V5.4332C11.4342 5.20326 11.2544 4.99837 11.1132 4.99837H8.87987C8.73644 4.99837 8.55887 5.19871 8.55887 5.4332V8.23341C8.55887 8.41781 8.40861 8.56579 8.22649 8.56579H5.42627C5.18951 8.56579 5.00055 8.74109 5.00055 8.88451V11.1179C5.00055 11.2658 5.18723 11.4366 5.42627 11.4366H8.22649C8.41089 11.4366 8.55887 11.5868 8.55887 11.769V14.5692C8.55887 14.8059 8.73417 14.9949 8.87987 14.9949H11.12C11.2657 14.9949 11.441 14.8059 11.441 14.5692L11.4342 11.769C11.4342 11.6802 11.4684 11.5959 11.5321 11.5322C11.5958 11.4684 11.6801 11.4343 11.7666 11.4343H14.5668C14.7967 11.4366 15.0016 11.259 15.0016 11.1179ZM14.5691 7.89192C15.1564 7.89192 15.6687 8.35407 15.6687 8.87768V11.1179C15.6687 11.6437 15.1542 12.1036 14.5691 12.1036H12.1013L12.1081 14.5692C12.1081 15.1611 11.655 15.6619 11.12 15.6619H8.87987C8.34487 15.6619 7.89183 15.1611 7.89183 14.5692V12.1036H5.424C4.83208 12.1036 4.33123 11.6529 4.33123 11.1179V8.88451C4.33123 8.35179 4.83208 7.89875 5.424 7.89875H7.89183V5.4332C7.89183 4.84811 8.3517 4.3336 8.87987 4.3336H11.1132C11.6391 4.3336 12.1013 4.84811 12.1013 5.4332V7.89192H14.5691Z" fill="#86888C"/>
</svg>
