<svg width="28" height="28" viewBox="0 0 28 28" fill="none" xmlns="http://www.w3.org/2000/svg">
<path fill-rule="evenodd" clip-rule="evenodd" d="M10.5146 17.083C10.7912 17.083 11.0132 17.3084 11.0132 17.5816L11.0166 24.3783C11.0166 24.7744 11.3001 25.0955 11.4846 25.0955L16.5189 25.0989C16.7033 25.0989 16.9868 24.7744 16.9868 24.3783L16.9833 17.5782C16.9833 17.3015 17.2088 17.0795 17.482 17.0795L24.2786 17.0761C24.6714 17.0761 24.9959 16.7687 24.9959 16.6082V11.5739C24.9959 11.4168 24.6714 11.106 24.2786 11.106L17.4786 11.1094C17.2019 11.1094 16.9799 10.884 16.9799 10.6108L16.9765 3.81755C16.9765 3.42478 16.6657 3.10032 16.5086 3.10032H11.4777C11.3206 3.10032 11.0064 3.42478 11.0064 3.81755L11.0098 10.6176C11.0098 10.8943 10.7844 11.1163 10.5112 11.1163L3.71453 11.1197C3.31834 11.1197 2.99388 11.4032 2.99388 11.5876V16.6219C2.99388 16.8063 3.31834 17.0932 3.71453 17.0932L10.5146 17.083ZM16.5223 26.0996L11.488 26.0962C10.7058 26.0962 10.0194 25.2936 10.0194 24.3783L10.0159 18.0837L3.71795 18.0871C2.80262 18.0871 2 17.4006 2 16.6185L2.00342 11.5876C2.00342 10.8055 2.80603 10.119 3.72478 10.119L10.0159 10.1155L10.0125 3.81755C10.0125 2.9193 10.7127 2.09961 11.4811 2.09961H16.5154C17.2839 2.09961 17.9841 2.9193 17.9841 3.81755V10.1121L24.2855 10.1087C25.1837 10.1087 26.0034 10.8089 26.0034 11.5773V16.6116C26.0034 17.3801 25.1837 18.0803 24.2855 18.0803H17.9875L17.9909 24.3817C17.9909 25.297 17.3044 26.0996 16.5223 26.0996Z" fill="#86888C"/>
</svg>
