<svg width="28" height="28" viewBox="0 0 28 28" fill="none" xmlns="http://www.w3.org/2000/svg">
<path fill-rule="evenodd" clip-rule="evenodd" d="M12.9989 4.13749C12.8213 4.2912 12.8896 4.6772 12.9271 4.83775C13.0569 5.39453 13.3164 5.9889 13.6955 6.59351C14.0131 7.09906 14.2555 7.40649 14.6927 7.86763C14.7644 7.94278 14.8327 8.00769 14.8805 8.04526C14.9317 8.00769 14.9863 7.95303 15.0478 7.89496L15.0512 7.89155L15.0854 7.85739C15.5157 7.40307 15.7547 7.09564 16.0689 6.59351C16.4513 5.9889 16.7109 5.39453 16.8441 4.83775C16.8816 4.6772 16.9465 4.2912 16.7723 4.13749C16.6938 4.06917 16.564 4.02477 16.424 4.01793H16.3796C16.1952 4.01793 16.0006 4.07259 15.8127 4.1819C15.6932 4.2468 15.5737 4.31853 15.4405 4.3971L15.2049 4.54056L14.8873 4.55081C14.6961 4.55081 14.5117 4.49957 14.3478 4.40734C14.1975 4.31853 14.078 4.24338 13.9619 4.17848C13.774 4.07259 13.576 4.01793 13.395 4.01793C13.2038 4.02477 13.074 4.07259 12.9989 4.13749ZM12.8554 7.14688C12.4149 6.44663 12.1076 5.74979 11.9539 5.07686C11.7832 4.34586 11.9232 3.73783 12.35 3.3655C12.5959 3.1503 12.934 3.0205 13.296 3.00342C13.3267 3 13.3574 3 13.3916 3C13.7433 3 14.1019 3.09906 14.44 3.29035C14.5663 3.35867 14.6927 3.43723 14.8361 3.52263C14.8497 3.52605 14.8634 3.53288 14.8805 3.53288C14.8941 3.53288 14.9112 3.52946 14.9249 3.52263C15.0615 3.43723 15.1912 3.36208 15.3176 3.29035C15.6557 3.09906 16.0142 3 16.3694 3C16.4001 3 16.4308 3 16.465 3.00342C16.8304 3.0205 17.1651 3.1503 17.4109 3.3655C17.8344 3.73783 17.9744 4.34586 17.8036 5.07686C17.6466 5.74637 17.3426 6.44663 16.8987 7.14688C16.5504 7.70367 16.2669 8.06576 15.7923 8.56447C15.7888 8.56789 15.7854 8.57472 15.7786 8.57814C15.7308 8.62596 15.5669 8.79675 15.4269 8.89581C15.3073 8.98463 15.1742 9.04611 15.041 9.07686C15.0034 9.0871 14.9624 9.09052 14.918 9.09394H14.8224C14.7814 9.09052 14.7405 9.0871 14.6995 9.07686C14.5629 9.04611 14.4297 8.98463 14.3102 8.89581C14.1736 8.79334 14.0097 8.62596 13.9619 8.57814C13.4906 8.06917 13.2106 7.70709 12.8554 7.14688ZM7.21742 10.0401C6.82129 10.433 6.61981 11.0581 6.61981 11.9052C6.61981 12.7489 6.82129 13.3775 7.214 13.7634C7.59647 14.1392 8.19408 14.3271 8.99317 14.3271C9.79226 14.3271 10.3967 14.1392 10.7792 13.76C11.1787 13.3706 11.3768 12.7455 11.3768 11.9018C11.3768 11.0547 11.1753 10.4295 10.7792 10.0367C10.3967 9.65756 9.79567 9.46627 8.99317 9.46627C8.1975 9.46968 7.59989 9.66097 7.21742 10.0401ZM8.99317 15.3518C7.92772 15.3518 7.09448 15.0683 6.52077 14.5013C5.92316 13.9137 5.61924 13.0427 5.61924 11.9086C5.61924 10.7746 5.92316 9.90008 6.52077 9.30914C7.09789 8.7421 7.92772 8.45175 8.99317 8.45175C10.062 8.45175 10.8953 8.7421 11.4724 9.30914C12.07 9.90008 12.3773 10.7746 12.3773 11.9086C12.3773 13.0427 12.0734 13.9137 11.4724 14.5013C10.8953 15.0649 10.062 15.3518 8.99317 15.3518ZM19.2174 10.0401C18.8213 10.433 18.6198 11.0581 18.6198 11.9052C18.6198 12.7489 18.8213 13.3775 19.214 13.7634C19.5965 14.1392 20.1941 14.3271 20.9932 14.3271C21.7923 14.3271 22.3967 14.1392 22.7792 13.76C23.1787 13.3706 23.3768 12.7455 23.3768 11.9018C23.3768 11.0547 23.1753 10.4295 22.7792 10.0367C22.3967 9.65756 21.7957 9.46627 20.9932 9.46627C20.1975 9.46968 19.5999 9.66097 19.2174 10.0401ZM18.5208 14.4979C17.9232 13.9103 17.6192 13.0393 17.6192 11.9052C17.6192 10.7711 17.9232 9.89667 18.5208 9.30572C19.0979 8.73868 19.9277 8.44833 20.9932 8.44833C22.062 8.44833 22.8953 8.73868 23.4724 9.30572C24.07 9.89667 24.3773 10.7711 24.3773 11.9052C24.3773 13.0393 24.0734 13.9103 23.4724 14.4979C22.8953 15.0649 22.062 15.3484 20.9932 15.3484C19.9277 15.3518 19.0945 15.0649 18.5208 14.4979ZM15.9493 15.8335C16.1372 15.649 16.2328 15.3245 16.2328 14.8736C16.2328 14.4193 16.1372 14.0948 15.9493 13.9069C15.7649 13.7259 15.4508 13.6336 15.0205 13.6336C14.5936 13.6336 14.2829 13.7259 14.0985 13.9069C13.9106 14.0948 13.815 14.4193 13.815 14.8736C13.815 15.3245 13.9106 15.649 14.0985 15.8335C14.2829 16.0145 14.5936 16.1067 15.0239 16.1067C15.4508 16.1067 15.7615 16.0145 15.9493 15.8335ZM15.0205 12.6123C15.7205 12.6123 16.2635 12.8002 16.6426 13.1725C17.0387 13.5585 17.2368 14.1324 17.2368 14.8736C17.2368 15.6149 17.0387 16.1853 16.6426 16.5713C16.2635 16.9402 15.7205 17.1281 15.0205 17.1281C14.3238 17.1281 13.7809 16.9402 13.4018 16.5713C13.0125 16.1853 12.8145 15.6149 12.8145 14.8736C12.8145 14.1324 13.0125 13.5585 13.4018 13.1725C13.7775 12.8002 14.3238 12.6123 15.0205 12.6123ZM25.9994 25.9069V20.971C25.9994 20.0863 25.7604 19.3416 25.3062 18.8258C24.8076 18.2588 24.0256 17.9547 23.0558 17.9547H18.9374C18.292 17.9547 17.7456 18.1016 17.2982 18.3544C17.6978 18.4842 18.0495 18.6892 18.3159 18.9932C18.7325 19.4646 18.9511 20.1238 18.9511 20.8924V25.9069H25.9994ZM17.9471 25.9069V20.8958C17.9471 20.5611 17.8856 20.0897 17.5919 19.7549C17.2641 19.3826 16.7484 19.304 16.3694 19.304H13.6716C13.6579 19.304 13.6409 19.3074 13.6238 19.3074C13.2516 19.3143 12.7632 19.3962 12.4491 19.7549C12.1554 20.0897 12.0939 20.5611 12.0939 20.8958V25.9342H17.9402V25.9069H17.9471ZM11.1002 20.8958C11.1002 20.1272 11.3187 19.468 11.7319 18.9966C11.9915 18.7028 12.3261 18.4944 12.7154 18.3646C12.2647 18.105 11.708 17.9582 11.0558 17.9582H6.93739C5.96414 17.9582 5.18896 18.2588 4.69038 18.8258C4.23961 19.3416 4.00398 20.0863 4.00398 20.9744V25.9103H11.1036V20.8958H11.1002ZM26.0233 18.0675C26.6619 18.7916 27 19.7959 27 20.971V26.5798C27 26.8121 26.8258 27 26.6141 27H3.38247C3.17075 27 3 26.8121 3 26.5798V20.971C3 19.7959 3.33466 18.7882 3.96642 18.0675C4.65623 17.2784 5.68412 16.8582 6.93398 16.8582H11.0524C12.3056 16.8582 13.3335 17.275 14.0233 18.064C14.0609 18.1085 14.0882 18.1597 14.1224 18.2041H15.8674C15.9015 18.1597 15.9289 18.1085 15.963 18.0675C16.6528 17.2784 17.6807 16.8582 18.9306 16.8582H23.0489C24.3056 16.8617 25.3335 17.2784 26.0233 18.0675Z" fill="#86888C"/>
</svg>
