<svg width="40" height="40" viewBox="0 0 40 40" fill="none" xmlns="http://www.w3.org/2000/svg">
<path fill-rule="evenodd" clip-rule="evenodd" d="M35.5565 36.59C35.9357 36.59 36.2995 36.2519 36.2995 35.8983V14.163H31.601C29.8076 14.163 28.2602 13.5841 27.133 12.4927C25.9955 11.3911 25.3909 9.87953 25.3909 8.13231V3.60797H12.8016C12.4635 3.60797 12.0587 3.98201 12.0587 4.29968V14.3936H24.32C26.6052 14.3936 28.4652 16.2536 28.4652 18.5439V26.1887C28.4652 28.479 26.6052 30.339 24.32 30.339H12.1253L12.0587 35.9034C12.0587 36.2365 12.4327 36.5849 12.8016 36.5849H35.5565V36.59ZM3.30719 26.1887C3.30719 27.6438 4.48567 28.8274 5.94083 28.8274H24.3251C25.7752 28.8274 26.9588 27.6438 26.9588 26.1887V18.5439C26.9588 17.0888 25.7803 15.9051 24.3251 15.9051H5.94083C4.49079 15.9051 3.30719 17.0888 3.30719 18.5439V26.1887ZM35.8998 12.6464L26.9024 3.93589V8.12718C26.9024 9.45938 27.3431 10.5917 28.1834 11.4013C29.0288 12.216 30.2073 12.6464 31.601 12.6464H35.8998ZM37.7444 12.6208C37.7854 12.713 37.8059 12.8104 37.8059 12.918V35.8983C37.8059 37.0922 36.776 38.1016 35.5565 38.1016H12.8068C11.6078 38.1016 10.5574 37.0717 10.5574 35.8983L10.624 30.3441H5.94596C3.66073 30.3441 1.80078 28.4841 1.80078 26.1938V18.549C1.80078 16.2587 3.66073 14.3987 5.94596 14.3987H10.5574V4.30481C10.5574 3.15195 11.6283 2.10156 12.8068 2.10156H26.6513C26.9844 2.10156 27.3021 2.22966 27.5378 2.45511L37.4319 12.0315C37.5958 12.1904 37.6932 12.3953 37.7444 12.6208Z" fill="#86888C"/>
<path d="M5.78662 18.9695H6.99584L9.12223 22.7304L11.3204 18.9695H12.504V25.7022H11.0949V21.8235L9.6961 24.165H8.5125L7.0727 21.7825V25.7022H5.78662V18.9695ZM13.9642 18.9695H16.2802C17.3357 18.9695 18.0018 19.1181 18.4373 19.5229C18.8011 19.8559 18.9805 20.3785 18.9805 21.0959C18.9805 21.8132 18.8114 22.3563 18.4783 22.7304C18.0838 23.171 17.4741 23.3811 16.5876 23.3811H15.5065V25.7022H13.9694V18.9695H13.9642ZM16.2546 22.2282C16.7465 22.2282 16.9514 22.1616 17.1513 21.972C17.3306 21.7927 17.4177 21.5109 17.4177 21.1164C17.4177 20.7526 17.3408 20.4861 17.1615 20.317C16.9771 20.148 16.6901 20.0814 16.2187 20.0814H15.5014V22.2282H16.2546ZM22.726 24.1548H19.7644C19.7439 24.0882 19.7234 23.9396 19.7234 23.8115C19.7234 23.5348 19.7747 23.2223 19.9284 22.7867L21.3272 18.9644H22.685L21.1683 23.0993H22.726V21.4955H24.135V23.0993H24.9241V24.1548H24.135V25.7022H22.726V24.1548Z" fill="#86888C"/>
</svg>
