<svg width="20" height="20" viewBox="0 0 20 20" fill="none" xmlns="http://www.w3.org/2000/svg">
<path fill-rule="evenodd" clip-rule="evenodd" d="M17.2014 17.43C17.3699 17.43 17.5292 17.2797 17.5292 17.1226V7.46525H15.4439C14.6471 7.46525 13.9595 7.20799 13.4587 6.7208C12.9533 6.23133 12.6846 5.55973 12.6846 4.78341V2.77316H7.091C6.94302 2.77316 6.76089 2.94163 6.76089 3.0805V7.5677H12.2111C13.2265 7.5677 14.0529 8.39411 14.0529 9.41175V12.8084C14.0529 13.8261 13.2265 14.6525 12.2111 14.6525H6.79277L6.76317 17.1249C6.76317 17.2729 6.92936 17.4277 7.09328 17.4277H17.2014V17.43ZM2.87245 12.8084C2.87245 13.455 3.39607 13.9809 4.04262 13.9809H12.2134C12.8576 13.9809 13.3835 13.455 13.3835 12.8084V9.41175C13.3835 8.76519 12.8599 8.2393 12.2134 8.2393H4.04262C3.39834 8.2393 2.87245 8.76519 2.87245 9.41175V12.8084ZM17.3539 6.79365L13.3562 2.92114V4.78341C13.3562 5.37532 13.552 5.87846 13.9254 6.23816C14.301 6.60014 14.8269 6.79365 15.4439 6.79365H17.3539ZM18.1735 6.77999C18.1917 6.82097 18.2008 6.8665 18.2008 6.91203V17.1226C18.2008 17.6531 17.7433 18.1016 17.2014 18.1016H7.09328C6.56055 18.1016 6.09385 17.644 6.09385 17.1226L6.12344 14.6548H4.0449C3.02953 14.6548 2.20312 13.8284 2.20312 12.8107V9.41403C2.20312 8.39638 3.02953 7.56997 4.0449 7.56997H6.09385V3.0805C6.09385 2.56827 6.56966 2.10156 7.09328 2.10156H13.2469C13.3949 2.10156 13.5338 2.15848 13.6408 2.26093L18.0369 6.51591C18.1075 6.58648 18.1485 6.67982 18.1735 6.77999Z" fill="#86888C"/>
<path d="M4.2041 9.66455H5.25589C5.73626 9.66455 6.03905 9.73057 6.23711 9.91498C6.4033 10.0675 6.48299 10.3043 6.48299 10.6321C6.48299 10.9599 6.40786 11.2058 6.25533 11.3766C6.07547 11.5792 5.79773 11.6725 5.39477 11.6725H4.90302V12.7289H4.2041V9.66455ZM5.24679 11.1466C5.4699 11.1466 5.56551 11.1147 5.6543 11.0305C5.73398 10.9508 5.77496 10.8211 5.77496 10.6412C5.77496 10.475 5.73854 10.3544 5.65885 10.2792C5.57462 10.2041 5.44485 10.1722 5.22858 10.1722H4.90074V11.1489H5.24679V11.1466ZM6.97929 9.66455H8.03108C8.51144 9.66455 8.81423 9.73057 9.0123 9.91498C9.17849 10.0675 9.25817 10.3043 9.25817 10.6321C9.25817 10.9599 9.18304 11.2058 9.03051 11.3766C8.85066 11.5792 8.57291 11.6725 8.16995 11.6725H7.67821V12.7289H6.97929V9.66455ZM8.02197 11.1466C8.24508 11.1466 8.3407 11.1147 8.42949 11.0305C8.50917 10.9508 8.55015 10.8211 8.55015 10.6412C8.55015 10.475 8.51372 10.3544 8.43404 10.2792C8.3498 10.2041 8.22004 10.1722 8.00376 10.1722H7.67593V11.1489H8.02197V11.1466ZM10.4329 10.17H9.48355V9.66455H12.113L12.0584 10.17H11.1318V12.7289H10.4329V10.17Z" fill="#86888C"/>
</svg>
