<svg width="24" height="24" viewBox="0 0 24 24" fill="none" xmlns="http://www.w3.org/2000/svg">
<path fill-rule="evenodd" clip-rule="evenodd" d="M20.8501 21.4679C21.0608 21.4679 21.2628 21.2801 21.2628 21.0837V9.0131H18.6529C17.6567 9.0131 16.7972 8.69148 16.171 8.0824C15.5392 7.47332 15.2034 6.6337 15.2034 5.66032V3.15H8.21033C8.02248 3.15 7.79763 3.35777 7.79763 3.53423V9.14402H14.6085C15.8779 9.14402 16.9111 10.1772 16.9111 11.4494V15.6959C16.9111 16.9681 15.8779 18.0013 14.6085 18.0013H7.83463L7.79763 21.0922C7.79763 21.2772 8.0054 21.4708 8.21033 21.4708H20.8501V21.4679ZM2.93638 15.6902C2.93638 16.4985 3.591 17.156 4.39931 17.156H14.6114C15.4168 17.156 16.0743 16.4985 16.0743 15.6902V11.4437C16.0743 10.6354 15.4197 9.97795 14.6114 9.97795H4.39931C3.59385 9.97795 2.93638 10.6354 2.93638 11.4437V15.6902ZM21.0408 8.17063L16.043 3.33215V5.65747C16.043 6.39747 16.2877 7.02647 16.7545 7.47617C17.2213 7.92871 17.8787 8.17063 18.6529 8.17063H21.0408ZM22.0655 8.15071C22.0882 8.20194 22.0996 8.25602 22.0996 8.31579V21.0808C22.0996 21.744 21.5275 22.3047 20.8501 22.3047H8.21317C7.54717 22.3047 6.96371 21.7326 6.96371 21.0808L7.00071 17.9956H4.40216C3.13277 17.9956 2.09961 16.9624 2.09961 15.6902V11.4437C2.09961 10.1715 3.13277 9.13833 4.40216 9.13833H6.96371V3.52854C6.96371 2.88815 7.55855 2.30469 8.21317 2.30469H15.9035C16.0885 2.30469 16.2678 2.37869 16.3959 2.50677L21.889 7.8234C21.9801 7.91163 22.0341 8.02832 22.0655 8.15071Z" fill="#86888C"/>
<path d="M5.36172 15.0126C5.0458 14.6739 4.90918 14.19 4.90918 13.5439C4.90918 12.3799 5.43572 11.5972 6.7108 11.5972C7.03242 11.5972 7.44511 11.6683 7.68419 11.7651L7.57604 12.3856C7.28857 12.303 7.00965 12.2546 6.77626 12.2546C5.97649 12.2546 5.79149 12.7812 5.79149 13.5212C5.79149 13.9623 5.87403 14.3323 6.05903 14.5373C6.22126 14.7223 6.45749 14.8048 6.87588 14.8048C7.05519 14.8048 7.34265 14.7706 7.56181 14.7279L7.65004 15.3484C7.42804 15.4139 7.01819 15.4623 6.71365 15.4623C6.05334 15.4623 5.64064 15.3057 5.36172 15.0126ZM8.13958 15.2716L8.2705 14.6255C8.59781 14.7393 9.02758 14.8105 9.29797 14.8105C9.79889 14.8105 10.0323 14.6796 10.0323 14.338C10.0323 13.6407 8.13388 14.1473 8.13388 12.6844C8.13388 11.9273 8.72589 11.5972 9.51997 11.5972C9.87858 11.5972 10.2714 11.6512 10.5588 11.7509L10.4279 12.3827C10.1234 12.3002 9.79604 12.2518 9.5342 12.2518C9.07596 12.2518 8.93081 12.414 8.93081 12.6502C8.93081 13.3789 10.8292 12.8779 10.8292 14.3323C10.8292 14.6653 10.7154 14.93 10.519 15.115C10.2571 15.3598 9.9042 15.468 9.37197 15.468C8.8995 15.4623 8.51527 15.4025 8.13958 15.2716ZM11.3501 15.2716L11.481 14.6255C11.8083 14.7393 12.2381 14.8105 12.5084 14.8105C13.0094 14.8105 13.2427 14.6796 13.2427 14.338C13.2427 13.6407 11.3444 14.1473 11.3444 12.6844C11.3444 11.9273 11.9364 11.5972 12.7304 11.5972C13.0891 11.5972 13.4818 11.6512 13.7693 11.7509L13.6384 12.3827C13.3338 12.3002 13.0065 12.2518 12.7447 12.2518C12.2864 12.2518 12.1413 12.414 12.1413 12.6502C12.1413 13.3789 14.0397 12.8779 14.0397 14.3323C14.0397 14.6653 13.9258 14.93 13.7294 15.115C13.4676 15.3598 13.1147 15.468 12.5824 15.468C12.1128 15.4623 11.7257 15.4025 11.3501 15.2716Z" fill="#86888C"/>
</svg>
