<svg width="24" height="24" viewBox="0 0 24 24" fill="none" xmlns="http://www.w3.org/2000/svg">
<path fill-rule="evenodd" clip-rule="evenodd" d="M19.1654 20.7761V8.71126H16.5782C15.5877 8.71126 14.7396 8.38395 14.1163 7.77771C13.493 7.16294 13.16 6.33186 13.16 5.35563V2.84246H6.23524C6.05308 2.84246 5.82823 3.05308 5.82823 3.22954V9.08126L5.87093 17.3636L5.82823 20.7847C5.82823 20.9697 6.036 21.1632 6.23524 21.1632H18.7584C18.9661 21.1632 19.1654 20.9782 19.1654 20.7761ZM13.9939 3.02462V5.35278C13.9939 6.09278 14.2358 6.72463 14.7026 7.16864C15.1608 7.62118 15.8183 7.86595 16.581 7.86595H18.9405L13.9939 3.02462ZM19.9651 7.84318C19.9822 7.90295 19.9993 7.95133 19.9993 8.0111V20.7733C19.9993 21.4365 19.4244 22 18.7612 22H6.23808C5.58062 22 5 21.4279 5 20.7733L5.04269 17.3608L5 9.08695V3.2267C5 2.58631 5.592 2 6.23808 2H13.863C14.0394 2 14.2216 2.07685 14.344 2.20208L19.7915 7.51587C19.8798 7.60694 19.931 7.72648 19.9651 7.84318ZM15.7642 15.5193C15.7642 15.9661 15.4483 16.2849 15.0242 16.2849C14.583 16.2849 14.2671 15.9661 14.2671 15.5364V15.5193C14.2671 15.0981 14.5916 14.7622 15.0071 14.7622C15.4397 14.765 15.7642 15.1009 15.7642 15.5193ZM12.9778 15.5193C12.9778 15.9661 12.6533 16.2849 12.2293 16.2849C11.7966 16.2849 11.4722 15.9661 11.4722 15.5364V15.5193C11.4722 15.0981 11.7966 14.7622 12.2207 14.7622C12.6476 14.765 12.9778 15.1009 12.9778 15.5193ZM10.1857 15.5193C10.1857 15.9661 9.86125 16.2849 9.43717 16.2849C9.00455 16.2849 8.68009 15.9661 8.68009 15.5364V15.5193C8.68009 15.0981 9.01309 14.7622 9.42863 14.7622C9.86125 14.765 10.1857 15.1009 10.1857 15.5193Z" fill="#86888C"/>
</svg>
