<svg width="40" height="40" viewBox="0 0 40 40" fill="none" xmlns="http://www.w3.org/2000/svg">
<path fill-rule="evenodd" clip-rule="evenodd" d="M36.1899 35.9038V14.1767H31.4971C29.704 14.1767 28.1568 13.5978 27.0298 12.5014C25.8924 11.4 25.293 9.88867 25.293 8.14169V3.618H12.7005C12.3623 3.618 11.9576 3.99199 11.9576 4.30962V14.4072H24.2223C26.5072 14.4072 28.3669 16.2669 28.3669 18.5569V26.2006C28.3669 28.4906 26.5072 30.3503 24.2223 30.3503H12.0293L11.9627 35.914C11.9627 36.247 12.3367 36.5954 12.7056 36.5954H35.4521C35.8312 36.5954 36.1899 36.2572 36.1899 35.9038ZM5.84063 28.8339H24.2274C25.6773 28.8339 26.8607 27.6504 26.8607 26.1955V18.5518C26.8607 17.0969 25.6824 15.9186 24.2274 15.9186H5.84063C4.3908 15.9186 3.20736 17.102 3.20736 18.5518V26.1955C3.20736 27.6504 4.38567 28.8339 5.84063 28.8339ZM26.7992 3.94588V8.13657C26.7992 9.46858 27.2398 10.6008 28.08 11.4102C28.9253 12.2248 30.1087 12.6603 31.4971 12.6603H35.7954L26.7992 3.94588ZM37.6397 12.6244C37.6756 12.7166 37.7012 12.814 37.7012 12.9215V35.8986C37.7012 37.0923 36.6714 38.1016 35.4521 38.1016H12.7056C11.5068 38.1016 10.4565 37.0718 10.4565 35.8986L10.5231 30.3452H5.84576C3.56086 30.3452 1.70117 28.4855 1.70117 26.1955V18.5518C1.70117 16.2618 3.56086 14.4021 5.84576 14.4021H10.4565V4.30449C10.4565 3.1518 11.5273 2.10156 12.7056 2.10156H26.5533C26.8812 2.10156 27.1937 2.22964 27.4345 2.45506L37.3272 12.0352C37.4911 12.1941 37.5833 12.4041 37.6397 12.6244Z" fill="#86888C"/>
<path d="M9.39014 19.2334H11.0859L13.5194 25.9703H11.8748L11.3113 24.2745H9.12374L8.60119 25.9703H7.13086L9.39014 19.2334ZM10.9373 23.1628L10.1996 20.9189H10.1791L9.47724 23.1628H10.9373ZM13.2735 19.2334H14.918L16.4959 24.1208L17.9662 19.2334H19.4622L17.2234 25.9703H15.6198L13.2735 19.2334ZM20.3331 19.2334H21.87V25.9703H20.3331V19.2334Z" fill="#86888C"/>
</svg>
