<svg width="40" height="40" viewBox="0 0 40 40" fill="none" xmlns="http://www.w3.org/2000/svg">
<path fill-rule="evenodd" clip-rule="evenodd" d="M31.7769 36.4889C32.1559 36.4889 32.5094 36.1508 32.5094 35.7974V14.0683H27.8583C26.0808 14.0683 24.5492 13.4895 23.4274 12.3933C22.3005 11.292 21.7063 9.78088 21.7063 8.03415V3.51622H9.23847C8.90552 3.51622 8.50598 3.89015 8.50598 4.20774V35.7974C8.50598 36.1406 8.87479 36.4889 9.23847 36.4889H31.7769ZM32.1201 12.5521L23.202 3.84405V8.02903C23.202 9.36084 23.6374 10.4929 24.4673 11.3022C25.3022 12.1167 26.4752 12.5521 27.8532 12.5521H32.1201ZM33.9488 12.5265C33.9898 12.6187 34.0051 12.716 34.0051 12.8236V35.7974C34.0051 36.9909 32.9858 38 31.7718 38H9.23335C8.04496 38 7 36.9704 7 35.7974V4.20262C7 3.05009 8.06545 2 9.23335 2H22.9511C23.2789 2 23.5862 2.12806 23.8219 2.35344L33.6261 11.9271C33.8002 12.0962 33.8924 12.3062 33.9488 12.5265ZM28.4371 32.4269C28.5344 32.4269 28.6369 32.3603 28.6625 32.3193L28.642 17.7974C28.6369 17.8588 28.5344 17.7923 28.4422 17.7923H12.5783C12.4861 17.7923 12.4143 17.8332 12.3785 17.864V32.4217C12.3785 32.4013 12.3887 32.3961 12.4041 32.3961C12.44 32.3961 12.5065 32.4269 12.5834 32.4269H28.4371ZM28.4371 16.276C29.3438 16.276 30.1377 16.988 30.1377 17.7974V32.4217C30.1377 33.2311 29.3438 33.9431 28.4371 33.9431H12.5783C11.6562 33.9431 10.8776 33.2464 10.8776 32.4217V17.7974C10.8776 16.9727 11.6562 16.276 12.5731 16.276H28.4371ZM15.8515 21.4599C15.416 21.4599 15.0575 21.8184 15.0575 22.2641C15.0575 22.7046 15.416 23.0683 15.8515 23.0683C16.292 23.0683 16.6454 22.7046 16.6454 22.2641C16.6505 21.8184 16.292 21.4599 15.8515 21.4599ZM15.8515 24.5794C14.5862 24.5794 13.5618 23.5396 13.5618 22.2641C13.5618 20.9886 14.5913 19.9488 15.8515 19.9488C17.1167 19.9488 18.1463 20.9886 18.1463 22.2641C18.1463 23.5396 17.1167 24.5794 15.8515 24.5794ZM24.8361 23.2015L27.889 25.5629C28.2168 25.819 28.2783 26.2903 28.0273 26.6232C27.7763 26.9562 27.3051 27.0176 26.9772 26.7615L24.3853 24.7587L21.6295 26.9715L23.3455 28.6005C23.6477 28.8873 23.6631 29.3637 23.3762 29.671C23.0894 29.9784 22.6181 29.9886 22.3159 29.7069L19.2476 26.7871L14.7911 30.5367C14.6528 30.6545 14.4787 30.7109 14.3096 30.7109C14.0945 30.7109 13.8793 30.6187 13.7308 30.4394C13.4696 30.1167 13.5105 29.6403 13.8281 29.3739L18.7968 25.1941C19.0888 24.9482 19.5139 24.9636 19.7906 25.2248L20.5282 25.9266L23.9089 23.2117C24.1855 22.9966 24.5646 22.9966 24.8361 23.2015Z" fill="#86888C"/>
</svg>
