<svg width="20" height="20" viewBox="0 0 20 20" fill="none" xmlns="http://www.w3.org/2000/svg">
<path fill-rule="evenodd" clip-rule="evenodd" d="M17.0295 17.1248V7.46829H14.9438C14.1469 7.46829 13.4592 7.211 12.9583 6.72373C12.4528 6.23419 12.1864 5.5625 12.1864 4.78607V2.77553H6.58974C6.43947 2.77553 6.25959 2.94175 6.25959 3.08292V7.57075H11.7106C12.7261 7.57075 13.5526 8.39728 13.5526 9.41507V12.8122C13.5526 13.83 12.7261 14.6566 11.7106 14.6566H6.29147L6.26187 17.1293C6.26187 17.2773 6.42808 17.4321 6.59202 17.4321H16.7016C16.8701 17.4321 17.0295 17.2819 17.0295 17.1248ZM3.54093 13.9826H11.7128C12.3572 13.9826 12.8832 13.4566 12.8832 12.81V9.41279C12.8832 8.76614 12.3595 8.24245 11.7128 8.24245H3.54093C2.89656 8.24245 2.37059 8.76842 2.37059 9.41279V12.81C2.37059 13.4566 2.89428 13.9826 3.54093 13.9826ZM12.8559 2.92126V4.78379C12.8559 5.37579 13.0517 5.87899 13.4251 6.23875C13.8008 6.60078 14.3268 6.79432 14.9438 6.79432H16.8542L12.8559 2.92126ZM17.6738 6.77838C17.6898 6.81937 17.7012 6.86263 17.7012 6.91044V17.1225C17.7012 17.653 17.2435 18.1016 16.7016 18.1016H6.59202C6.05922 18.1016 5.59245 17.6439 5.59245 17.1225L5.62205 14.6543H3.54321C2.5277 14.6543 1.70117 13.8278 1.70117 12.81V9.41279C1.70117 8.395 2.5277 7.56848 3.54321 7.56848H5.59245V3.08064C5.59245 2.56833 6.06833 2.10156 6.59202 2.10156H12.7466C12.8923 2.10156 13.0312 2.15849 13.1382 2.25867L17.535 6.51653C17.6078 6.58712 17.6488 6.68047 17.6738 6.77838Z" fill="#86888C"/>
<path d="M5.11887 9.71582H5.87254L6.95408 12.71H6.22318L5.97272 11.9563H5.00047L4.76823 12.71H4.11475L5.11887 9.71582ZM5.80651 11.4622L5.47863 10.4649H5.46952L5.15758 11.4622H5.80651ZM6.84479 9.71582H7.57568L8.27698 11.888L8.93046 9.71582H9.59532L8.6003 12.71H7.88762L6.84479 9.71582ZM9.9824 9.71582H10.6655V12.71H9.9824V9.71582Z" fill="#86888C"/>
</svg>
