<svg width="28" height="28" viewBox="0 0 28 28" fill="none" xmlns="http://www.w3.org/2000/svg">
<path fill-rule="evenodd" clip-rule="evenodd" d="M24.3046 25.0939C24.5574 25.0939 24.7999 24.8684 24.7999 24.6327V10.1426H21.6676C20.472 10.1426 19.4404 9.75656 18.6889 9.02898C17.9306 8.29456 17.5275 7.28687 17.5275 6.12206V3.10583H9.13468C8.90924 3.10583 8.63938 3.35519 8.63938 3.56698V10.2963H16.8136C18.3371 10.2963 19.577 11.5362 19.577 13.0631V18.1596C19.577 19.6865 18.3371 20.9265 16.8136 20.9265H8.68379L8.63938 24.6362C8.63938 24.8582 8.88874 25.0905 9.13468 25.0905H24.3046V25.0939ZM2.80505 18.1596C2.80505 19.1297 3.5907 19.9188 4.56082 19.9188H16.817C17.7837 19.9188 18.5728 19.1297 18.5728 18.1596V13.0631C18.5728 12.093 17.7871 11.304 16.817 11.304H4.56082C3.59412 11.304 2.80505 12.093 2.80505 13.0631V18.1596ZM24.5335 9.13145L18.5352 3.32445V6.11864C18.5352 7.00677 18.829 7.76168 19.3892 8.30139C19.9528 8.84452 20.7384 9.13145 21.6676 9.13145H24.5335ZM25.7632 9.11437C25.7905 9.17586 25.8042 9.24076 25.8042 9.31249V24.6327C25.8042 25.4286 25.1176 26.1016 24.3046 26.1016H9.1381C8.33878 26.1016 7.63853 25.415 7.63853 24.6327L7.68293 20.9299H4.56423C3.04075 20.9299 1.80078 19.6899 1.80078 18.163V13.0666C1.80078 11.5396 3.04075 10.2997 4.56423 10.2997H7.63853V3.57039C7.63853 2.80182 8.35245 2.10156 9.1381 2.10156H18.3678C18.5898 2.10156 18.8016 2.18696 18.9588 2.33726L25.5548 8.72155C25.6641 8.82744 25.729 8.96407 25.7632 9.11437Z" fill="#86888C"/>
<path d="M4.45801 13.3472H5.26416L6.68175 15.8544L8.14716 13.3472H8.93623V17.8356H7.99686V15.2498L7.06433 16.8109H6.27526L5.31539 15.2225V17.8356H4.45801V13.3472ZM9.90976 13.3472H11.4537C12.1574 13.3472 12.6015 13.4462 12.8918 13.7161C13.1344 13.9381 13.2539 14.2865 13.2539 14.7648C13.2539 15.243 13.1412 15.6051 12.9192 15.8544C12.6561 16.1482 12.2496 16.2882 11.6587 16.2882H10.9379V17.8356H9.91318V13.3472H9.90976ZM11.4367 15.5197C11.7646 15.5197 11.9012 15.4753 12.0344 15.3489C12.154 15.2293 12.2121 15.0414 12.2121 14.7784C12.2121 14.5359 12.1608 14.3583 12.0413 14.2455C11.9183 14.1328 11.727 14.0884 11.4127 14.0884H10.9345V15.5197H11.4367ZM15.7509 16.804H13.7765C13.7629 16.7596 13.7492 16.6606 13.7492 16.5752C13.7492 16.3907 13.7834 16.1823 13.8858 15.892L14.8184 13.3438H15.7236L14.7125 16.1004H15.7509V15.0312H16.6903V16.1004H17.2163V16.804H16.6903V17.8356H15.7509V16.804Z" fill="#86888C"/>
</svg>
