<svg width="28" height="28" viewBox="0 0 28 28" fill="none" xmlns="http://www.w3.org/2000/svg">
<path fill-rule="evenodd" clip-rule="evenodd" d="M24.5038 25.402C24.7566 25.402 24.9991 25.1765 24.9991 24.9408V10.4541H21.8668C20.6712 10.4541 19.643 10.0681 18.8881 9.33708C18.1298 8.60266 17.7267 7.59498 17.7267 6.43016V3.41394H9.3339C9.10845 3.41394 8.8386 3.6633 8.8386 3.87508V10.6044H17.0128C18.5363 10.6044 19.7763 11.8443 19.7763 13.3712V18.4677C19.7763 19.9946 18.5363 21.2346 17.0128 21.2346H8.88301L8.8386 24.9443C8.8386 25.1663 9.08796 25.3986 9.3339 25.3986H24.5038V25.402ZM3.00427 18.4677C3.00427 19.4378 3.78992 20.2269 4.76003 20.2269H17.0162C17.9829 20.2269 18.772 19.4378 18.772 18.4677V13.3712C18.772 12.4011 17.9863 11.6121 17.0162 11.6121H4.76003C3.79334 11.6121 3.00427 12.4011 3.00427 13.3712V18.4677ZM24.7327 9.44297L18.7344 3.63255V6.42675C18.7344 7.31488 19.0282 8.06978 19.5884 8.60949C20.152 9.15262 20.9411 9.44297 21.8668 9.44297H24.7327ZM25.9624 9.41906C25.9898 9.48054 26.0034 9.54545 26.0034 9.61718V24.9374C26.0034 25.7333 25.3168 26.4062 24.5038 26.4062H9.33732C8.538 26.4062 7.83775 25.7197 7.83775 24.9374L7.88215 21.2346H4.76345C3.23997 21.2346 2 19.9946 2 18.4677V13.3712C2 11.8443 3.23997 10.6044 4.76345 10.6044H7.83775V3.87508C7.83775 3.10651 8.55166 2.40625 9.33732 2.40625H18.567C18.7891 2.40625 18.9974 2.49165 19.1546 2.64195L25.7506 9.02965C25.8599 9.12871 25.9248 9.27218 25.9624 9.41906Z" fill="#86888C"/>
<path d="M3.87939 13.9346H6.56086L6.49255 14.5904H4.7846V15.5537H6.15096V16.2335H4.7846V17.248H6.59161V17.9038H3.87939V13.9346ZM7.26454 13.9346H7.93063L9.81279 16.4794V13.9346H10.6087V17.9072H9.8811L8.05702 15.4956V17.9072H7.26112V13.9346H7.26454ZM11.4729 13.9346H14.1544L14.0861 14.5904H12.3781V15.5537H13.7445V16.2335H12.3781V17.248H14.1851V17.9038H11.4729V13.9346ZM15.8282 15.926L14.6155 13.9346H15.5617L16.3508 15.2463L17.0715 13.9346H18.0348L16.7334 15.8782L18.0007 17.9038H16.9964L16.2073 16.558L15.4934 17.9038H14.513L15.8282 15.926Z" fill="#86888C"/>
</svg>
