<svg width="24" height="24" viewBox="0 0 24 24" fill="none" xmlns="http://www.w3.org/2000/svg">
<path fill-rule="evenodd" clip-rule="evenodd" d="M20.7505 21.1603C20.9612 21.1603 21.1632 20.9724 21.1632 20.776V8.70083H18.5533C17.5571 8.70083 16.6976 8.37916 16.0714 7.77C15.4396 7.15798 15.1037 6.32109 15.1037 5.34757V2.83404H8.11072C7.92287 2.83404 7.70087 3.04184 7.70087 3.21833V8.82607H14.5117C15.7811 8.82607 16.8143 9.85938 16.8143 11.1318V15.3789C16.8143 16.6513 15.7811 17.6846 14.5117 17.6846H7.73787L7.70087 20.776C7.70087 20.961 7.90864 21.1546 8.11072 21.1546H20.7505V21.1603ZM2.83677 15.3817C2.83677 16.1902 3.49139 16.8477 4.2997 16.8477H14.5146C15.3201 16.8477 15.9775 16.1902 15.9775 15.3817V11.1346C15.9775 10.3262 15.3229 9.66866 14.5146 9.66866H4.2997C3.49424 9.66866 2.83677 10.3262 2.83677 11.1346V15.3817ZM20.9412 7.85824L15.9434 3.01907V5.34757C15.9434 6.08767 16.1881 6.71677 16.6549 7.16652C17.1217 7.61913 17.7791 7.86109 18.5533 7.86109H20.9412V7.85824ZM21.9658 7.84401C21.9886 7.89525 22 7.94933 22 8.00911V20.776C22 21.4392 21.4279 22 20.7505 22H8.11356C7.44756 22 6.8641 21.4278 6.8641 20.776L6.9011 17.6903H4.30255C3.03316 17.6903 2 16.657 2 15.3846V11.1375C2 9.86507 3.03316 8.83177 4.30255 8.83177H6.8641V3.22403C6.8641 2.58355 7.45894 2 8.11356 2H15.8067C15.9889 2 16.1682 2.07116 16.2991 2.19641L21.7922 7.51665C21.8833 7.6049 21.9374 7.72161 21.9658 7.84401Z" fill="#86888C"/>
<path d="M5.35938 14.7443L7.18556 12.1216H5.41342V11.4901H8.24087V12.0164L6.44314 14.6163H8.25225V15.2478H5.35938V14.7443ZM8.87235 11.4873H9.7314V15.2478H8.87235V11.4873ZM10.5535 11.4873H11.8449C12.4337 11.4873 12.8063 11.5698 13.0481 11.7945C13.2529 11.9823 13.3496 12.2724 13.3496 12.6735C13.3496 13.0745 13.2558 13.3761 13.068 13.5866C12.849 13.834 12.5076 13.9507 12.0127 13.9507H11.4068V15.2478H10.5478V11.4873H10.5535ZM11.8363 13.3078C12.1123 13.3078 12.226 13.268 12.337 13.1656C12.4365 13.066 12.4849 12.9067 12.4849 12.6877C12.4849 12.4857 12.4422 12.335 12.3427 12.2411C12.2374 12.1472 12.0781 12.1103 11.8136 12.1103H11.4125V13.3106H11.8363V13.3078Z" fill="#86888C"/>
</svg>
