<svg width="40" height="40" viewBox="0 0 40 40" fill="none" xmlns="http://www.w3.org/2000/svg">
<path fill-rule="evenodd" clip-rule="evenodd" d="M35.751 36.4885C36.1301 36.4885 36.4938 36.1503 36.4938 35.7968V14.0615H31.7959C30.0028 14.0615 28.4557 13.4825 27.3286 12.386C26.1913 11.2844 25.5867 9.77797 25.5867 8.02562V3.50128H12.9993C12.6612 3.50128 12.2616 3.87532 12.2616 4.193V14.2869H24.5211C26.806 14.2869 28.6657 16.1469 28.6657 18.4372V26.082C28.6657 28.3723 26.806 30.2323 24.5211 30.2323H12.3282L12.2616 35.7968C12.2616 36.1298 12.6355 36.4782 12.9993 36.4782H35.751V36.4885ZM3.50619 26.0871C3.50619 27.5423 4.6845 28.7259 6.13946 28.7259H24.5263C25.9761 28.7259 27.1595 27.5423 27.1595 26.0871V18.4424C27.1595 16.9872 25.9812 15.8036 24.5263 15.8036H6.13946C4.68963 15.8036 3.50619 16.9872 3.50619 18.4424V26.0871ZM36.0942 12.5448L27.0981 3.83433V8.02562C27.0981 9.35781 27.5386 10.4902 28.3788 11.2997C29.219 12.1144 30.4025 12.55 31.7959 12.55H36.0942V12.5448ZM37.9385 12.5192C37.9795 12.6114 38 12.7088 38 12.8164V35.7968C38 36.9906 36.9703 38 35.751 38H13.0044C11.8056 38 10.7554 36.9701 10.7554 35.7968L10.822 30.2425H6.14459C3.85968 30.2425 2 28.3826 2 26.0922V18.4475C2 16.1571 3.85968 14.2972 6.14459 14.2972H10.7554V4.20325C10.7554 3.05038 11.8261 2 13.0044 2H26.8521C27.18 2 27.5028 2.1281 27.7384 2.35354L37.626 11.93C37.79 12.0888 37.8873 12.2989 37.9385 12.5192Z" fill="#86888C"/>
<path d="M8.04688 24.9397L11.334 20.2189H8.14416V19.0823H13.2336V20.0295L9.99764 24.7093H13.254V25.846H8.04688V24.9397ZM14.3702 19.0771H15.9165V25.846H14.3702V19.0771ZM17.3962 19.0771H19.7208C20.7806 19.0771 21.4514 19.2256 21.8866 19.6301C22.2552 19.9681 22.4293 20.4903 22.4293 21.2122C22.4293 21.9342 22.2604 22.4769 21.9224 22.8558C21.5282 23.3013 20.9138 23.5112 20.0229 23.5112H18.9323V25.846H17.386V19.0771H17.3962ZM19.7054 22.354C20.2021 22.354 20.4069 22.2824 20.6066 22.098C20.7858 21.9188 20.8728 21.6321 20.8728 21.2378C20.8728 20.8743 20.796 20.6029 20.6168 20.434C20.4274 20.265 20.1406 20.1985 19.6645 20.1985H18.9425V22.3592H19.7054V22.354Z" fill="#86888C"/>
</svg>
