<svg width="20" height="20" viewBox="0 0 20 20" fill="none" xmlns="http://www.w3.org/2000/svg">
<path fill-rule="evenodd" clip-rule="evenodd" d="M15.3323 17.0209V7.36901H13.2626C12.4702 7.36901 11.7917 7.10716 11.293 6.62217C10.7944 6.13035 10.528 5.46549 10.528 4.6845V2.67397H4.98819C4.84246 2.67397 4.66259 2.84246 4.66259 2.98363V7.66501L4.69674 14.2909L4.66259 17.0277C4.66259 17.1757 4.8288 17.3306 4.98819 17.3306H15.0067C15.1729 17.3306 15.3323 17.1826 15.3323 17.0209ZM11.1951 2.8197V4.68223C11.1951 5.27423 11.3886 5.77971 11.7621 6.13491C12.1286 6.49694 12.6546 6.69276 13.2648 6.69276H15.1524L11.1951 2.8197ZM15.9721 6.67454C15.9858 6.72236 15.9994 6.76106 15.9994 6.80888V17.0186C15.9994 17.5492 15.5395 18 15.009 18H4.99047C4.46449 18 4 17.5423 4 17.0186L4.03415 14.2886L4 7.66956V2.98136C4 2.46905 4.4736 2 4.99047 2H11.0904C11.2315 2 11.3773 2.06148 11.4752 2.16166L15.8332 6.41269C15.9038 6.48556 15.9448 6.58119 15.9721 6.67454ZM12.6114 12.8154C12.6114 13.1729 12.3586 13.4279 12.0194 13.4279C11.6664 13.4279 11.4137 13.1729 11.4137 12.8291V12.8154C11.4137 12.4784 11.6733 12.2098 12.0057 12.2098C12.3518 12.212 12.6114 12.4807 12.6114 12.8154ZM10.3822 12.8154C10.3822 13.1729 10.1227 13.4279 9.78341 13.4279C9.43731 13.4279 9.17774 13.1729 9.17774 12.8291V12.8154C9.17774 12.4784 9.43731 12.2098 9.77658 12.2098C10.1181 12.212 10.3822 12.4807 10.3822 12.8154ZM8.14857 12.8154C8.14857 13.1729 7.889 13.4279 7.54974 13.4279C7.20364 13.4279 6.94407 13.1729 6.94407 12.8291V12.8154C6.94407 12.4784 7.21047 12.2098 7.54291 12.2098C7.889 12.212 8.14857 12.4807 8.14857 12.8154Z" fill="#86888C"/>
</svg>
