<svg width="28" height="28" viewBox="0 0 28 28" fill="none" xmlns="http://www.w3.org/2000/svg">
<path fill-rule="evenodd" clip-rule="evenodd" d="M25.6491 14.3006C25.229 15.0589 24.4604 15.602 23.3571 15.9163C22.322 16.2135 20.5663 15.9812 18.3904 15.2673C18.3938 15.2536 18.3904 15.2366 18.3938 15.2229C18.4211 15.0077 18.4382 14.7788 18.4382 14.5363C18.4382 14.2596 18.4143 14.0137 18.3801 13.778C18.3733 13.7199 18.363 13.6584 18.3528 13.6038C18.3152 13.3988 18.2674 13.2075 18.2093 13.0333C18.1922 12.9889 18.1752 12.9479 18.1581 12.9069C18.1068 12.7805 18.0522 12.6644 17.9941 12.5551C17.9565 12.4833 17.919 12.4184 17.878 12.357C17.8404 12.2989 17.8028 12.2477 17.7618 12.1998C17.7208 12.1452 17.6833 12.0837 17.6423 12.0359C19.0975 10.345 20.4433 9.26217 21.4612 8.97182C23.6611 8.35013 25.2085 9.23484 25.8233 11.4722C26.1273 12.5892 26.0693 13.5423 25.6491 14.3006ZM22.5338 19.1716C23.8148 21.105 23.48 22.8881 21.591 24.1896C19.7089 25.4979 17.9634 25.1529 16.679 23.2297C16.0505 22.2869 15.7021 20.3945 15.7089 17.9898C15.7567 17.9829 15.8011 17.9727 15.8489 17.9624C15.9138 17.9488 15.9753 17.9385 16.0368 17.9249C16.1803 17.8907 16.3203 17.8531 16.4501 17.8087C16.4911 17.795 16.5321 17.7848 16.5697 17.7677C16.7302 17.7062 16.8771 17.6345 17.0103 17.5525C17.0411 17.5354 17.065 17.5149 17.0923 17.4979C17.1982 17.4295 17.2939 17.3578 17.3827 17.2827C17.4168 17.2553 17.4476 17.228 17.4783 17.1973C17.5637 17.1187 17.6389 17.0333 17.7106 16.9479C17.7277 16.9274 17.7482 16.9103 17.7618 16.8864C17.8438 16.7805 17.9156 16.6678 17.9805 16.5551C17.9975 16.5278 18.0078 16.497 18.0249 16.4697C18.0522 16.415 18.0829 16.3638 18.1068 16.3091C20.3033 17.2041 21.9053 18.2323 22.5338 19.1716ZM13.4305 23.2502C12.7917 24.2135 12.0402 24.7839 11.1999 24.9479C10.3596 25.1016 9.45782 24.8591 8.51846 24.2032C7.57567 23.5508 7.01547 22.7891 6.85492 21.9351C6.69437 21.0811 6.94032 20.1588 7.57909 19.1956C8.19395 18.2699 9.77209 17.2485 11.9446 16.3672C11.9753 16.4321 12.0095 16.497 12.0471 16.5619C12.0607 16.5824 12.071 16.6063 12.0846 16.6268C12.1495 16.7395 12.2247 16.8454 12.3101 16.9513C12.3306 16.9752 12.3511 16.9957 12.3716 17.0196C12.4433 17.1016 12.5219 17.1802 12.6073 17.2588C12.6346 17.2861 12.6653 17.31 12.6961 17.3339C12.7986 17.4159 12.9079 17.4945 13.0274 17.5662C13.0445 17.5764 13.0548 17.5867 13.0718 17.5969C13.2119 17.6789 13.369 17.7472 13.5398 17.8087C13.5705 17.819 13.6047 17.8292 13.6389 17.8395C13.7789 17.8839 13.9326 17.9249 14.0932 17.9556C14.1478 17.9658 14.1991 17.9761 14.2537 17.9829C14.305 17.9898 14.3528 18.0034 14.4074 18.0102C14.4074 20.4116 14.059 22.3074 13.4305 23.2502ZM6.6568 15.9368C4.45697 15.3117 3.5825 13.7301 4.19395 11.4893C4.50138 10.3689 5.03425 9.58326 5.77892 9.15628C6.2059 8.91033 6.69779 8.78736 7.24433 8.78736C7.65082 8.78736 8.08805 8.85568 8.55262 8.9889C9.55347 9.27583 10.9232 10.3826 12.3545 12.0461C12.3306 12.0734 12.3135 12.1076 12.2896 12.1383C12.2418 12.1964 12.2008 12.2647 12.1564 12.3296C12.0744 12.456 11.9958 12.5858 11.9309 12.7259C11.8933 12.8044 11.8592 12.883 11.8284 12.965C11.7738 13.1187 11.726 13.2861 11.6918 13.4569C11.6747 13.5389 11.6508 13.614 11.6372 13.696C11.5962 13.959 11.5688 14.2323 11.5688 14.5295C11.5688 14.7686 11.5859 14.9974 11.6132 15.2161C11.6132 15.2331 11.6132 15.257 11.6167 15.2741C9.45782 16.0017 7.70206 16.234 6.6568 15.9368ZM15.0189 3.02477C17.3007 3.03501 18.5543 4.3228 18.5441 6.64902C18.5441 7.73869 17.8575 9.38514 16.6039 11.3083C16.6004 11.3083 16.597 11.3049 16.5936 11.3049C16.3852 11.2195 16.1564 11.1614 15.9173 11.117C15.8694 11.1067 15.825 11.0999 15.7772 11.0931C15.5347 11.0555 15.2819 11.0282 15.0086 11.0282C14.7285 11.0282 14.4689 11.0555 14.223 11.0965C14.1854 11.1033 14.1512 11.1102 14.1171 11.117C13.8609 11.1648 13.6184 11.2297 13.4032 11.3185C12.1666 9.41588 11.4664 7.72502 11.4732 6.63194C11.4732 4.30572 12.7337 3.02477 15.0189 3.02477ZM15.1316 17.0196C15.094 17.0265 15.0496 17.0231 15.0086 17.0231H14.9096C13.6969 16.9957 12.9762 16.5209 12.6858 15.4927C12.6141 15.2126 12.5799 14.8915 12.5799 14.5329C12.5799 13.5764 12.8396 12.8898 13.3519 12.4936C13.3861 12.4697 13.4237 12.4458 13.4954 12.4082C13.878 12.1691 14.3904 12.0495 15.0086 12.0495C15.6337 12.0495 16.1393 12.1657 16.5116 12.398C16.5253 12.4048 16.638 12.4799 16.6483 12.4902C17.1709 12.8796 17.4373 13.5662 17.4373 14.5363C17.4373 14.8984 17.4032 15.2161 17.3314 15.4791C17.3314 15.4893 17.328 15.4996 17.328 15.5098C17.328 15.5132 17.3246 15.5167 17.3246 15.5201C17.065 16.4902 16.3887 16.9684 15.1316 17.0196ZM26.7866 11.1921C26.0214 8.4082 23.9378 7.20581 21.1914 7.98463C20.4023 8.21008 19.5825 8.7532 18.8071 9.41588C19.2409 8.46285 19.5449 7.49274 19.5449 6.6456C19.5552 3.74893 17.8643 2.01025 15.0223 2H15.0189C12.1735 2 10.4723 3.72844 10.4723 6.62169C10.4689 7.48591 10.7729 8.4731 11.2102 9.4398C10.4382 8.77711 9.61837 8.23057 8.82589 8.00171C7.48344 7.61571 6.26056 7.70453 5.28703 8.26132C4.31692 8.8181 3.603 9.83945 3.22725 11.2092C2.46551 14 3.64399 16.1349 6.38353 16.9103C6.78319 17.0265 7.23408 17.0743 7.70889 17.0743C7.948 17.0743 8.20078 17.0436 8.44672 17.0196C7.74988 17.491 7.13161 18.0239 6.7422 18.6114C5.95996 19.7933 5.65595 21.0026 5.86431 22.1161C6.07268 23.2297 6.79343 24.2408 7.948 25.0333C8.86346 25.6721 9.80283 26 10.6978 26C10.9267 26 11.1521 25.9795 11.3741 25.9351C12.4706 25.7233 13.4647 24.9889 14.2503 23.8104C14.6261 23.2468 14.8754 22.5056 15.0496 21.7131C15.2238 22.4987 15.4732 23.2331 15.8455 23.7899C16.8122 25.2383 18.0556 25.9795 19.4049 25.9795C20.2862 25.9795 21.2153 25.6618 22.1444 25.0196C24.498 23.3971 24.9489 20.9923 23.3536 18.5841V18.5807C22.9642 17.9966 22.3494 17.4671 21.6559 16.9957C21.8711 17.0128 22.0932 17.0436 22.3015 17.0436C22.7764 17.0436 23.2238 16.9957 23.6201 16.8796C24.9659 16.497 25.9668 15.7728 26.5133 14.7822C27.0701 13.8121 27.1589 12.5653 26.7866 11.1921Z" fill="#86888C"/>
</svg>
