<svg width="40" height="40" viewBox="0 0 40 40" fill="none" xmlns="http://www.w3.org/2000/svg">
<path fill-rule="evenodd" clip-rule="evenodd" d="M36.9737 21.4509C36.3434 22.5884 35.1906 23.4031 33.5356 23.8745C31.9831 24.3202 29.3494 23.9718 26.0855 22.9009C26.0907 22.8804 26.0855 22.8548 26.0907 22.8343C26.1317 22.5115 26.1573 22.1682 26.1573 21.8044C26.1573 21.3894 26.1214 21.0205 26.0702 20.667C26.0599 20.5798 26.0445 20.4876 26.0292 20.4056C25.9728 20.0982 25.9011 19.8113 25.814 19.55C25.7884 19.4833 25.7627 19.4219 25.7371 19.3604C25.6603 19.1708 25.5783 18.9966 25.4912 18.8326C25.4348 18.725 25.3785 18.6277 25.317 18.5354C25.2606 18.4483 25.2042 18.3715 25.1428 18.2997C25.0813 18.2178 25.0249 18.1255 24.9634 18.0538C27.1462 15.5175 29.165 13.8933 30.6919 13.4577C33.9916 12.5252 36.3127 13.8523 37.235 17.2084C37.691 18.8839 37.6039 20.3134 36.9737 21.4509ZM32.3007 28.7575C34.2222 31.6576 33.72 34.3322 30.8866 36.2844C28.0633 38.2468 25.4451 37.7293 23.5185 34.8446C22.5757 33.4304 22.0531 30.5918 22.0633 26.9846C22.1351 26.9744 22.2017 26.959 22.2734 26.9436C22.3708 26.9231 22.463 26.9078 22.5552 26.8873C22.7704 26.836 22.9805 26.7797 23.1752 26.7131C23.2367 26.6926 23.2982 26.6772 23.3545 26.6516C23.5954 26.5594 23.8157 26.4518 24.0155 26.3288C24.0616 26.3032 24.0975 26.2724 24.1385 26.2468C24.2973 26.1443 24.4408 26.0367 24.574 25.924C24.6253 25.883 24.6714 25.842 24.7175 25.7959C24.8456 25.6781 24.9583 25.55 25.0659 25.4219C25.0915 25.3911 25.1223 25.3655 25.1428 25.3296C25.2657 25.1708 25.3733 25.0017 25.4707 24.8326C25.4963 24.7916 25.5117 24.7455 25.5373 24.7045C25.5783 24.6225 25.6244 24.5457 25.6603 24.4637C28.9549 25.8062 31.358 27.3484 32.3007 28.7575ZM18.6457 34.8753C17.6876 36.3202 16.5603 37.1759 15.2999 37.4219C14.0394 37.6524 12.6867 37.2886 11.2777 36.3049C9.86351 35.3262 9.0232 34.1836 8.78238 32.9026C8.54156 31.6217 8.91048 30.2383 9.86863 28.7933C10.7909 27.4048 13.1581 25.8728 16.4169 24.5508C16.463 24.6482 16.5142 24.7455 16.5706 24.8429C16.5911 24.8736 16.6065 24.9095 16.627 24.9402C16.7243 25.1093 16.837 25.2681 16.9651 25.427C16.9959 25.4629 17.0266 25.4936 17.0574 25.5295C17.165 25.6524 17.2828 25.7703 17.4109 25.8881C17.4519 25.9291 17.498 25.965 17.5441 26.0009C17.6978 26.1238 17.8618 26.2417 18.0411 26.3493C18.0668 26.3646 18.0821 26.38 18.1077 26.3954C18.3178 26.5184 18.5535 26.6208 18.8097 26.7131C18.8558 26.7284 18.9071 26.7438 18.9583 26.7592C19.1684 26.8258 19.3989 26.8873 19.6398 26.9334C19.7218 26.9488 19.7986 26.9641 19.8806 26.9744C19.9574 26.9846 20.0292 27.0051 20.1112 27.0154C20.1112 30.6174 19.5885 33.4611 18.6457 34.8753ZM8.4852 23.9052C5.18546 22.9676 3.87376 20.5952 4.79092 17.234C5.25207 15.5534 6.05138 14.3749 7.16838 13.7344C7.80885 13.3655 8.54669 13.181 9.3665 13.181C9.97623 13.181 10.6321 13.2835 11.3289 13.4833C12.8302 13.9137 14.8849 15.5739 17.0317 18.0692C16.9959 18.1102 16.9703 18.1614 16.9344 18.2075C16.8627 18.2946 16.8012 18.3971 16.7346 18.4944C16.6116 18.684 16.4937 18.8787 16.3964 19.0888C16.34 19.2067 16.2888 19.3245 16.2427 19.4475C16.1607 19.6781 16.089 19.9291 16.0377 20.1853C16.0121 20.3083 15.9762 20.421 15.9557 20.544C15.8943 20.9385 15.8533 21.3484 15.8533 21.7942C15.8533 22.1529 15.8789 22.4962 15.9199 22.8241C15.9199 22.8497 15.9199 22.8856 15.925 22.9112C12.6867 24.0026 10.0531 24.351 8.4852 23.9052ZM21.0283 4.53715C24.451 4.55252 26.3315 6.4842 26.3161 9.97353C26.3161 11.608 25.2862 14.0777 23.4058 16.9624C23.4007 16.9624 23.3955 16.9573 23.3904 16.9573C23.0779 16.8292 22.7346 16.7421 22.3759 16.6755C22.3042 16.6601 22.2375 16.6499 22.1658 16.6396C21.802 16.5833 21.4229 16.5423 21.013 16.5423C20.5928 16.5423 20.2034 16.5833 19.8345 16.6447C19.7781 16.655 19.7269 16.6652 19.6756 16.6755C19.2913 16.7472 18.9276 16.8446 18.6048 16.9778C16.7499 14.1238 15.6995 11.5875 15.7098 9.94791C15.7098 6.45858 17.6005 4.53715 21.0283 4.53715ZM21.1974 25.5295C21.1411 25.5397 21.0744 25.5346 21.013 25.5346H20.8644C19.0454 25.4936 17.9643 24.7814 17.5288 23.2391C17.4212 22.819 17.3699 22.3373 17.3699 21.7993C17.3699 20.3646 17.7593 19.3348 18.5279 18.7404C18.5791 18.7045 18.6355 18.6687 18.7431 18.6123C19.317 18.2536 20.0855 18.0743 21.013 18.0743C21.9506 18.0743 22.7089 18.2485 23.2674 18.5969C23.2879 18.6072 23.457 18.7199 23.4724 18.7353C24.2563 19.3194 24.656 20.3493 24.656 21.8044C24.656 22.3476 24.6048 22.8241 24.4972 23.2186C24.4972 23.234 24.492 23.2494 24.492 23.2647C24.492 23.2699 24.4869 23.275 24.4869 23.2801C24.0975 24.7353 23.083 25.4526 21.1974 25.5295ZM38.6799 16.7882C37.5322 12.6123 34.4066 10.8087 30.2871 11.9769C29.1035 12.3151 27.8738 13.1298 26.7106 14.1238C27.3614 12.6943 27.8174 11.2391 27.8174 9.9684C27.8328 5.6234 25.2965 3.01537 21.0334 3H21.0283C16.7602 3 14.2085 5.59266 14.2085 9.93254C14.2034 11.2289 14.6594 12.7097 15.3153 14.1597C14.1573 13.1657 12.9276 12.3459 11.7388 12.0026C9.72516 11.4236 7.89084 11.5568 6.43055 12.392C4.97538 13.2272 3.9045 14.7592 3.34088 16.8138C2.19827 21 3.96599 24.2024 8.07529 25.3655C8.67478 25.5397 9.35113 25.6114 10.0633 25.6114C10.422 25.6114 10.8012 25.5653 11.1701 25.5295C10.1248 26.2366 9.19741 27.0359 8.6133 27.9172C7.43994 29.69 6.98392 31.5038 7.29647 33.1742C7.60903 34.8446 8.69015 36.3612 10.422 37.55C11.7952 38.5081 13.2042 39 14.5467 39C14.89 39 15.2282 38.9693 15.5612 38.9026C17.206 38.585 18.697 37.4833 19.8755 35.7156C20.4391 34.8702 20.8131 33.7583 21.0744 32.5696C21.3358 33.7481 21.7098 34.8497 22.2683 35.6849C23.7183 37.8574 25.5834 38.9693 27.6073 38.9693C28.9293 38.9693 30.3229 38.4927 31.7166 37.5295C35.2469 35.0956 35.9233 31.4885 33.5305 27.8762V27.8711C32.9463 26.9949 32.0241 26.2007 30.9839 25.4936C31.3067 25.5192 31.6398 25.5653 31.9523 25.5653C32.6645 25.5653 33.3358 25.4936 33.9301 25.3194C35.9489 24.7455 37.4502 23.6593 38.27 22.1734C39.1052 20.7182 39.2384 18.848 38.6799 16.7882Z" fill="#86888C"/>
</svg>
