<svg width="28" height="28" viewBox="0 0 28 28" fill="none" xmlns="http://www.w3.org/2000/svg">
<path fill-rule="evenodd" clip-rule="evenodd" d="M14.5755 22.4241V19.5107C14.5755 19.2341 14.3501 19.0121 14.0734 19.0121C13.7968 19.0121 13.5714 19.2341 13.5714 19.5107V22.4309C11.6519 22.3865 6.03017 21.6385 5.58958 14.7736H8.53024C8.80689 14.7736 9.0323 14.5516 9.0323 14.2749C9.0323 13.9983 8.80689 13.7763 8.53024 13.7763H5.55201C5.63057 6.16678 11.6656 5.48371 13.5714 5.4598V8.49267C13.5714 8.76932 13.7968 8.99132 14.0734 8.99132C14.3501 8.99132 14.5755 8.76932 14.5755 8.49267V5.47004C16.6042 5.54518 22.4821 6.41269 22.5914 13.7729H19.4868C19.2102 13.7729 18.9848 13.9983 18.9848 14.2715C18.9848 14.5482 19.2102 14.7702 19.4868 14.7702H22.5607C22.1406 21.6078 16.5052 22.3728 14.5755 22.4241ZM25.5082 13.7729H23.5921C23.476 5.30269 16.2866 4.53422 14.5721 4.46933V2.49865C14.5721 2.222 14.3467 2 14.07 2C13.7934 2 13.568 2.222 13.568 2.49865V4.45909C12.0276 4.47275 4.62986 5.02263 4.54447 13.7729H2.50206C2.22542 13.7729 2 13.9983 2 14.2715C2 14.5448 2.22542 14.7702 2.50206 14.7702H4.58204C5.05678 22.7383 11.9559 23.3872 13.5645 23.4282V25.5014C13.5645 25.778 13.79 26 14.0666 26C14.3432 26 14.5687 25.778 14.5687 25.5014V23.4214C16.1807 23.377 23.1037 22.7076 23.5546 14.7668H25.5014C25.778 14.7668 26.0034 14.5448 26.0034 14.2681C26.0102 13.9983 25.7848 13.7729 25.5082 13.7729Z" fill="#86888C"/>
</svg>
