<svg width="24" height="24" viewBox="0 0 24 24" fill="none" xmlns="http://www.w3.org/2000/svg">
<path fill-rule="evenodd" clip-rule="evenodd" d="M21.1236 11.8872C21.0411 12.0836 20.8049 12.3169 20.4009 12.3169H19.2257C18.9952 12.3169 18.8103 12.5019 18.8103 12.7323V20.5374C18.8103 20.8817 18.4688 21.1634 18.0505 21.1634H17.0603V12.8206C17.0603 12.5901 16.8725 12.4051 16.6449 12.4051H7.32316C7.09268 12.4051 6.90773 12.5929 6.90773 12.8206V21.1634H5.8293C5.41102 21.1634 5.06956 20.8846 5.06956 20.5403V12.7352C5.06956 12.5047 4.88176 12.3198 4.65412 12.3198H3.59277C3.19156 12.3198 2.95254 12.0864 2.87287 11.8901C2.82165 11.7706 2.77612 11.5287 3.0123 11.2982L11.4178 3.0578C11.7222 2.75903 12.2771 2.75903 12.5816 3.0578L20.9842 11.2925C21.2204 11.5259 21.1748 11.7649 21.1236 11.8872ZM7.7386 15.3303H16.2266V13.236H7.7386V15.3303ZM7.7386 21.1606H16.2266V19.0777H7.7386V21.1606ZM7.7386 18.2468H16.2266V16.164H7.7386V18.2468ZM21.5647 10.6978L13.162 2.4631C12.5303 1.84563 11.4633 1.84563 10.8345 2.4631L2.43182 10.6978C2.01639 11.1047 1.88834 11.6824 2.10175 12.2031C2.33792 12.7779 2.92124 13.1506 3.59277 13.1506H4.233V20.5403C4.233 21.3427 4.94721 21.9972 5.82645 21.9972H7.32316C7.32885 21.9972 7.3317 21.9943 7.33739 21.9943L7.34877 21.9972H16.5993C16.6079 21.9972 16.6136 21.9943 16.6221 21.9943C16.6307 21.9943 16.6363 22 16.6449 22H18.0505C18.9298 22 19.644 21.3455 19.644 20.5431V13.1506H20.4009C21.0724 13.1506 21.6586 12.7779 21.8947 12.2031C22.1082 11.6824 21.9801 11.1076 21.5647 10.6978Z" fill="#86888C"/>
</svg>
