<svg width="40" height="40" viewBox="0 0 40 40" fill="none" xmlns="http://www.w3.org/2000/svg">
<path fill-rule="evenodd" clip-rule="evenodd" d="M32.6817 34.4153C34.0709 34.4153 35.1531 34.0382 35.8919 33.2841C36.6307 32.53 37.0418 31.3004 37.0418 29.8141V14.6225C37.0418 14.2509 36.7348 13.9558 35.9544 13.5787C35.3612 13.2891 33.3945 12.2781 31.3185 11.2016C27.8534 9.40923 23.5401 7.17967 20.8502 5.85723C19.9189 5.39821 19.0136 5.52936 18.4985 6.20697C18.2332 6.55124 18.0927 6.97748 18.0927 7.42558C18.0927 7.91193 18.2592 8.39828 18.5661 8.79719C18.9512 9.3054 19.5339 9.78082 20.512 10.3819C21.1 10.7426 21.3861 11.4748 21.204 12.1689C21.0219 12.8574 20.4184 13.3383 19.7316 13.3383H6.03227C3.78461 13.4913 3.52966 14.8738 3.52966 15.9066C3.52966 17.5897 4.38815 18.4805 6.01667 18.4805H11.4069C12.2446 18.4805 12.9262 19.1854 12.9314 20.0652C12.9314 20.2073 12.9106 20.3548 12.8741 20.4914C12.8013 20.7592 12.7649 21.0652 12.7649 21.3986C12.7649 22.6226 13.2383 23.3877 14.1749 23.6664C14.8252 23.8576 15.2779 24.4806 15.2831 25.191C15.2831 25.3604 15.2571 25.5298 15.205 25.6938C15.1062 26.0216 15.0594 26.3659 15.0646 26.7102C15.0646 27.9397 15.5432 28.7048 16.4902 28.9834C16.8908 29.0982 17.229 29.3824 17.4267 29.7649C17.6244 30.1474 17.6608 30.5955 17.5308 31.0108C17.4319 31.3387 17.3851 31.6775 17.3903 32.0218C17.3903 33.6065 18.1655 34.4098 19.6952 34.4098L32.6817 34.4153ZM15.8554 32.0272C15.8554 31.4753 15.9283 30.9671 16.0739 30.519C14.4818 30.0545 13.5349 28.6829 13.5349 26.7211C13.5349 26.1692 13.613 25.661 13.7534 25.2074C12.1769 24.7374 11.2404 23.3713 11.2404 21.415C11.2404 20.9341 11.2976 20.486 11.4069 20.0816H6.01146C3.54007 20.0761 2 18.4805 2 15.9121C2 13.4421 3.43081 11.9284 5.93342 11.759H6.01146L19.7316 11.7535C18.6598 11.0923 17.9106 10.4967 17.3695 9.78629C16.8544 9.1196 16.5734 8.28898 16.5682 7.43104C16.5682 6.64414 16.8128 5.8627 17.307 5.22334C18.2748 3.95555 19.9241 3.64407 21.511 4.42551C24.2009 5.75341 28.5246 7.98843 32.0001 9.78082C34.1645 10.9011 36.0324 11.8683 36.5995 12.1415C37.1875 12.4257 38.5714 13.0978 38.5714 14.6225V29.8141C38.5714 31.7321 37.9991 33.3661 36.9637 34.4207C35.9335 35.4699 34.4923 36 32.6921 36H19.69C17.3226 36 15.8554 34.4808 15.8554 32.0272Z" fill="#86888C"/>
</svg>
