<svg width="24" height="24" viewBox="0 0 24 24" fill="none" xmlns="http://www.w3.org/2000/svg">
<path fill-rule="evenodd" clip-rule="evenodd" d="M4.82889 5.22094C4.82889 4.46123 5.02552 3.8694 5.41879 3.46536C5.81206 3.06132 6.45326 2.83653 7.2284 2.83653H15.1508C15.3446 2.83653 15.4984 3.00441 15.6951 3.43122C15.8461 3.75558 16.3733 4.83113 16.9347 5.96642C17.8695 7.86143 19.0322 10.2202 19.7218 11.6913C19.9612 12.2006 19.8928 12.6957 19.5394 12.9774C19.3599 13.1225 19.1376 13.1993 18.9039 13.1993C18.6503 13.1993 18.3967 13.1083 18.1886 12.9404C17.9236 12.7298 17.6757 12.4112 17.3622 11.8762C17.1741 11.5547 16.7922 11.3982 16.4303 11.4978C16.0712 11.5974 15.8205 11.9274 15.8205 12.303V19.7948C15.7407 21.024 15.0197 21.1635 14.4811 21.1635C13.6033 21.1635 13.1388 20.694 13.1388 19.8034V16.8556C13.1388 16.3975 12.7712 16.0248 12.3124 16.0219C12.2383 16.0219 12.1614 16.0333 12.0901 16.0532C11.9505 16.093 11.7909 16.113 11.617 16.113C10.9787 16.113 10.5797 15.854 10.4344 15.3419C10.3347 14.9862 10.0098 14.7387 9.63931 14.7358C9.55096 14.7358 9.46262 14.75 9.37713 14.7785C9.22324 14.8297 9.0437 14.8553 8.84707 14.8553C8.20587 14.8553 7.8069 14.5935 7.66156 14.0757C7.60172 13.8566 7.45353 13.6716 7.25404 13.5635C7.05456 13.4554 6.82088 13.4355 6.60429 13.5066C6.45041 13.5578 6.27087 13.5834 6.07709 13.5834C5.25065 13.5834 4.83174 13.1595 4.83174 12.3229L4.82889 5.22094ZM6.07424 14.4228C6.36206 14.4228 6.62709 14.383 6.86077 14.3033C7.10301 15.174 7.8183 15.6918 8.84137 15.6918C9.1292 15.6918 9.39422 15.6492 9.63076 15.5723C9.87584 16.4345 10.5883 16.9466 11.6085 16.9466C11.8593 16.9466 12.093 16.9154 12.3038 16.8556V19.8062C12.3038 21.1606 13.136 22 14.4754 22C15.7635 22 16.5529 21.2175 16.6412 19.8489V19.8062L16.6441 12.303C16.9889 12.8892 17.2995 13.2989 17.67 13.5948C18.0176 13.8765 18.4508 14.0302 18.8982 14.033C19.3086 14.033 19.7161 13.8993 20.0495 13.629C20.7107 13.0997 20.8731 12.1978 20.4656 11.3299C19.7731 9.85887 18.6075 7.49438 17.6728 5.59368C17.0886 4.41002 16.5842 3.38853 16.4417 3.07839C16.2935 2.75686 15.943 2 15.1479 2H7.22555C6.22528 2 5.37319 2.31299 4.82318 2.87922C4.27603 3.44259 3.9996 4.23076 3.9996 5.21525L3.9996 12.3258C4.00245 13.6204 4.79469 14.4228 6.07424 14.4228Z" fill="#86888C"/>
</svg>
