<svg width="24" height="24" viewBox="0 0 24 24" fill="none" xmlns="http://www.w3.org/2000/svg">
<path fill-rule="evenodd" clip-rule="evenodd" d="M17.3927 13.938C17.5464 13.7672 17.811 13.753 17.9818 13.9067C18.1525 14.0603 18.1668 14.325 18.0131 14.4957C17.922 14.5953 15.7706 16.9402 12.0655 16.9829C12.0142 16.9858 11.963 16.9858 11.9118 16.9858C11.1747 16.9858 8.05293 16.8435 5.98691 14.5327C5.83324 14.362 5.85031 14.0973 6.02106 13.9437C6.1918 13.79 6.45646 13.8071 6.61013 13.9778C8.65908 16.2715 12.0085 16.1548 12.0427 16.1491C15.3808 16.1121 17.3728 13.9579 17.3927 13.938ZM11.9972 21.1662C18.0814 21.1662 21.1662 18.0842 21.1662 12.0028C21.1662 5.91861 18.0814 2.83381 11.9972 2.83381C5.91577 2.83381 2.83381 5.91861 2.83381 12.0028C2.83381 18.0842 5.91577 21.1662 11.9972 21.1662ZM11.9972 2C18.3147 2 22 5.1901 22 12.0028C22 18.8156 18.3147 22 11.9972 22C5.67957 22 2 18.8156 2 12.0028C2 5.1901 5.67957 2 11.9972 2ZM8.96642 10.4206C8.63347 10.4206 8.35743 10.3182 8.16676 10.1246C7.97894 9.93398 7.88503 9.66932 7.88503 9.33637C7.88503 8.65908 8.28913 8.25213 8.96642 8.25213C9.64371 8.25213 10.0478 8.65908 10.0478 9.33637C10.0478 9.66932 9.9539 9.93113 9.76608 10.1246C9.57541 10.3182 9.29937 10.4206 8.96642 10.4206ZM15.0336 10.4206C14.7006 10.4206 14.4246 10.3182 14.2339 10.1246C14.0461 9.93398 13.9522 9.66932 13.9522 9.33637C13.9522 8.65908 14.3563 8.25213 15.0336 8.25213C15.7109 8.25213 16.115 8.65908 16.115 9.33637C16.115 9.66932 16.0211 9.93113 15.8332 10.1246C15.6426 10.3182 15.3665 10.4206 15.0336 10.4206Z" fill="#86888C"/>
</svg>
