<svg width="24" height="24" viewBox="0 0 24 24" fill="none" xmlns="http://www.w3.org/2000/svg">
<path fill-rule="evenodd" clip-rule="evenodd" d="M21.1692 21.0041V6.25098C21.1692 6.15139 21.1606 6.06319 21.1464 5.99205H18.8502C18.8388 6.06319 18.8303 6.15139 18.8303 6.25098V21.2631H21.1492C21.1578 21.1948 21.1692 21.1066 21.1692 21.0041ZM18.0023 21.2631V3.32311C18.0023 3.13532 17.8088 2.93614 17.6694 2.93614H6.32779C6.19121 2.93614 5.99772 3.13816 5.99772 3.32311V21.2659H9.07355V14.2692C9.07355 14.0387 9.2585 13.8538 9.48897 13.8538H14.5139C14.7415 13.8538 14.9293 14.0416 14.9293 14.2692V21.2659H18.0023V21.2631ZM9.90155 21.2631H14.0984V14.6818H9.90155V21.2631ZM2.828 21.0041C2.828 21.1066 2.83653 21.1948 2.84792 21.2631H5.16688V20.2274C5.16688 20.2217 5.16403 20.2188 5.16403 20.216V6.25383C5.16403 6.15424 5.1555 6.06603 5.14412 5.9949H2.84792C2.83653 6.06603 2.82515 6.15424 2.82515 6.25383V21.0041H2.828ZM21.3996 5.16121C21.9545 5.16121 21.9972 5.99775 21.9972 6.25383V21.007C21.9972 21.3371 21.9402 22.0996 21.3996 22.0996H2.59752C2.05691 22.0996 2 21.3371 2 21.007V6.25383C2 5.99775 2.04268 5.16121 2.59752 5.16121H5.16973V3.32027C5.16973 2.68006 5.72172 2.09961 6.33063 2.09961H17.6722C18.2811 2.09961 18.8331 2.68006 18.8331 3.32027V5.16121H21.3996ZM15.1285 8.80611C15.1854 8.80611 15.2366 8.76628 15.2451 8.74636L15.2423 7.2497C15.2252 7.22978 15.1825 7.19849 15.1313 7.19849H13.2107C12.9831 7.19849 12.7953 7.01354 12.7953 6.78306V4.8596C12.7953 4.8027 12.7554 4.75148 12.7384 4.74294L11.2332 4.74579C11.236 4.75148 11.2019 4.79985 11.2019 4.85676V6.78306C11.2019 7.01354 11.0169 7.19849 10.7865 7.19849H8.86869C8.80893 7.19849 8.76625 7.23548 8.76056 7.2497L8.76341 8.76912C8.7691 8.76912 8.81178 8.80042 8.86869 8.80042H10.7865C11.0141 8.80042 11.2019 8.98821 11.2019 9.21584V11.1421C11.2019 11.2019 11.2389 11.2446 11.2531 11.2503L12.7697 11.2474C12.7668 11.2446 12.8038 11.2019 12.8038 11.1421L12.7981 9.21584C12.7981 9.10487 12.8408 8.9996 12.9205 8.91993C13.0001 8.8431 13.1054 8.79757 13.2135 8.79757H15.1285V8.80611ZM15.1285 6.3648C15.6292 6.3648 16.0674 6.77168 16.0674 7.22978V8.77197C16.0674 9.23291 15.6292 9.63695 15.1285 9.63695H13.6261L13.629 11.145C13.629 11.6543 13.2335 12.084 12.7668 12.084H11.2332C10.7665 12.084 10.371 11.6543 10.371 11.145V9.63411H8.86869C8.36221 9.63411 7.93257 9.2386 7.93257 8.76912V7.23263C7.93257 6.76315 8.36221 6.36764 8.86869 6.36764H10.371V4.8596C10.371 4.34744 10.7637 3.91495 11.2332 3.91495H12.7611C13.2192 3.91495 13.6233 4.35598 13.6233 4.8596V6.3648H15.1285Z" fill="#86888C"/>
</svg>
