<svg width="40" height="40" viewBox="0 0 40 40" fill="none" xmlns="http://www.w3.org/2000/svg">
<path d="M19.9974 38.4248C8.22634 38.4248 2 32.2036 2 20.4274C2 8.65114 8.22121 2.4248 19.9974 2.4248C25.7421 2.4248 30.1953 3.91093 33.2444 6.8473C36.4011 9.89128 38.0051 14.4624 38.0051 20.4325C38.0051 32.1985 31.7788 38.4248 19.9974 38.4248ZM19.9974 3.44972C8.73879 3.44972 3.02491 9.16359 3.02491 20.4274C3.02491 31.686 8.73367 37.3999 19.9974 37.3999C31.2663 37.3999 36.9751 31.6911 36.9751 20.4274C36.9802 9.15847 31.2663 3.44972 19.9974 3.44972Z" fill="#86888C"/>
<path d="M19.9052 38.2813C19.608 38.2813 19.3671 38.0405 19.3671 37.7432V2.99875C19.3671 2.70152 19.608 2.46067 19.9052 2.46067C20.2024 2.46067 20.4433 2.70152 20.4433 2.99875V37.7432C20.4433 38.0405 20.2024 38.2813 19.9052 38.2813Z" fill="#86888C"/>
<path d="M36.4575 14.488H3.38875C3.1069 14.488 2.87629 14.2574 2.87629 13.9756C2.87629 13.6937 3.1069 13.4631 3.38875 13.4631H36.4524C36.7342 13.4631 36.9648 13.6937 36.9648 13.9756C36.9648 14.2574 36.7394 14.488 36.4575 14.488Z" fill="#86888C"/>
<path d="M19.7002 38.2454C16.9022 38.2454 14.299 36.3494 12.3619 32.9057C10.4812 29.5542 9.44087 25.1112 9.44087 20.3915C9.44087 15.6718 10.476 11.2288 12.3619 7.87733C14.299 4.43363 16.9022 2.53754 19.7002 2.53754C22.4982 2.53754 25.1015 4.43363 27.0386 7.87733C28.9193 11.2288 29.9596 15.6718 29.9596 20.3915C29.9596 25.1112 28.9244 29.5542 27.0386 32.9057C25.1015 36.3494 22.4982 38.2454 19.7002 38.2454ZM19.7002 3.55733C17.2917 3.55733 15.001 5.26893 13.2587 8.37441C11.4599 11.5773 10.4709 15.8409 10.4709 20.3915C10.4709 24.937 11.4599 29.2057 13.2587 32.4086C15.0061 35.514 17.2917 37.2257 19.7002 37.2257C22.1088 37.2257 24.3995 35.514 26.1418 32.4086C27.9405 29.2057 28.9296 24.9421 28.9296 20.3915C28.9296 15.846 27.9405 11.5773 26.1418 8.37441C24.3995 5.2638 22.1139 3.55733 19.7002 3.55733Z" fill="#86888C"/>
<path d="M36.4626 28.4268H3.61424C3.33239 28.4268 3.10179 28.1962 3.10179 27.9143C3.10179 27.6325 3.33239 27.4019 3.61424 27.4019H36.4626C36.7445 27.4019 36.9751 27.6325 36.9751 27.9143C36.9751 28.1962 36.7445 28.4268 36.4626 28.4268Z" fill="#86888C"/>
</svg>
