<svg width="20" height="20" viewBox="0 0 20 20" fill="none" xmlns="http://www.w3.org/2000/svg">
<path fill-rule="evenodd" clip-rule="evenodd" d="M7.77123 16.3221L9.65514 11.4563C9.69159 11.3652 9.68476 11.2627 9.64147 11.1761C9.59591 11.0895 9.51846 11.0257 9.42506 11.003L5.97844 10.1601L11.8625 3.91608L10.0128 8.55866C9.97634 8.64978 9.9809 8.75229 10.0265 8.84113C10.0697 8.92997 10.1495 8.99148 10.2451 9.01654L14.0152 9.93457L7.77123 16.3221ZM14.988 9.64982C14.9538 9.53137 14.8627 9.44025 14.7442 9.41291L10.7736 8.44476L13.1314 2.52878C13.1906 2.37843 13.1382 2.2053 13.0038 2.11646C12.8694 2.02989 12.694 2.04812 12.5824 2.16657L5.0923 10.1123C5.01029 10.1988 4.98067 10.3264 5.01257 10.4426C5.04674 10.5587 5.13786 10.6499 5.25403 10.6772L8.89429 11.5679L6.55705 17.6001C6.5001 17.7504 6.5525 17.9213 6.68462 18.0078C6.74157 18.0443 6.80308 18.0625 6.86686 18.0625C6.95343 18.0625 7.03999 18.0283 7.10378 17.9623L14.9037 9.98013C14.9902 9.89585 15.0221 9.76828 14.988 9.64982Z" fill="#86888C"/>
</svg>
