<svg width="20" height="20" viewBox="0 0 20 20" fill="none" xmlns="http://www.w3.org/2000/svg">
<path d="M10.0271 18C9.99512 18 9.96544 18 9.93804 17.9977H9.92663C9.82618 17.9931 9.72574 17.9772 9.62757 17.9543C9.27373 17.8744 8.93814 17.7238 8.64365 17.5092C8.35144 17.2992 7.97248 16.9407 7.71224 16.6736C6.39045 15.3108 5.61884 14.3451 4.65318 12.843C3.44325 10.971 2.61457 9.11047 2.18767 7.31841C1.74023 5.43503 2.09864 3.87811 3.20127 2.93528C3.84047 2.38511 4.7171 2.05637 5.66906 2.00615C6.68038 1.95593 7.7305 2.21389 8.70757 2.75722C9.05229 2.9467 9.40613 3.15216 9.79422 3.38044C9.94717 3.46491 10.1344 3.46719 10.2873 3.38273C10.6731 3.15216 11.0293 2.94898 11.3763 2.75722C12.351 2.21389 13.4035 1.95593 14.4148 2.00615C15.3667 2.05409 16.2411 2.38511 16.8826 2.933C17.9829 3.87583 18.3413 5.43275 17.8939 7.31841C17.467 9.10819 16.6383 10.9664 15.4306 12.843C14.4696 14.336 13.7002 15.2994 12.3944 16.6485C12.3876 16.6577 12.3807 16.6645 12.3739 16.6736C12.1159 16.9407 11.7347 17.3014 11.4425 17.5092C11.148 17.7238 10.8124 17.8744 10.4585 17.9543C10.3604 17.9772 10.2599 17.9909 10.1595 17.9977H10.1481C10.1161 18 10.0819 18 10.0431 18H10.0271ZM5.92474 2.45816C5.84712 2.45816 5.76951 2.46044 5.69189 2.46501C4.84266 2.50838 4.06191 2.79831 3.49804 3.28228C3.00951 3.70005 2.6899 4.25707 2.54608 4.93508C2.40454 5.60169 2.43422 6.36873 2.63511 7.2134C3.0506 8.95523 3.85874 10.7656 5.0367 12.5964C5.99551 14.0871 6.72603 15.0003 8.03869 16.3563C8.28296 16.6097 8.64137 16.9476 8.90846 17.1394C9.15273 17.3174 9.42896 17.443 9.72345 17.5069L9.7303 17.5092C9.80335 17.5274 9.87869 17.5366 9.95402 17.5411H9.96087C9.98142 17.5411 10.0088 17.5434 10.0385 17.5434H10.0408C10.0705 17.5434 10.0956 17.5434 10.1184 17.5411H10.1275C10.2029 17.5366 10.2782 17.5274 10.3512 17.5092L10.3581 17.5069C10.6526 17.4407 10.9288 17.3151 11.1731 17.1394C11.431 16.9522 11.7758 16.6303 12.02 16.3792C12.0269 16.37 12.0337 16.3632 12.0406 16.3563C13.3555 15.0003 14.0838 14.0871 15.0448 12.5964C16.2251 10.7633 17.0332 8.95295 17.4487 7.2134C17.6496 6.36873 17.6793 5.60169 17.5377 4.93508C17.3939 4.25707 17.072 3.70005 16.5835 3.28228C16.0196 2.79831 15.2412 2.50838 14.3897 2.46501C13.4628 2.41707 12.4972 2.65677 11.5954 3.15672C11.253 3.3462 10.8991 3.54938 10.5156 3.77766L10.511 3.77995C10.2166 3.9466 9.85358 3.94431 9.56137 3.77766L9.55909 3.77538C9.17556 3.54709 8.824 3.3462 8.48385 3.15672C7.65973 2.69786 6.77854 2.45816 5.92474 2.45816Z" fill="#86888C"/>
</svg>
