<svg width="20" height="20" viewBox="0 0 20 20" fill="none" xmlns="http://www.w3.org/2000/svg">
<path fill-rule="evenodd" clip-rule="evenodd" d="M15.333 16.848V3.15424C15.333 2.88788 15.119 2.66705 15.0097 2.66705H4.98806C4.87878 2.66705 4.66478 2.88788 4.66478 3.15424V16.8458C4.66478 17.1235 4.86057 17.333 4.98806 17.333L15.0097 17.3352C15.1372 17.333 15.333 17.1258 15.333 16.848ZM15.0051 2C15.5242 2 16 2.55094 16 3.15424V16.848C16 17.4627 15.5356 18 15.0051 18L4.99489 17.9977C4.46444 17.9977 4.00001 17.4604 4.00001 16.8458V3.15424C3.99773 2.55094 4.47354 2 4.99261 2H15.0051ZM6.53615 7.33409C6.16734 7.33409 5.8691 7.03586 5.8691 6.66705C5.8691 6.29824 6.16734 6 6.53615 6C6.90496 6 7.2032 6.29824 7.2032 6.66705C7.2032 7.03586 6.90496 7.33409 6.53615 7.33409ZM6.53615 9.33295C6.90496 9.33295 7.2032 9.63119 7.2032 10C7.2032 10.3688 6.90496 10.667 6.53615 10.667C6.16734 10.667 5.8691 10.3688 5.8691 10C5.8691 9.63119 6.16962 9.33295 6.53615 9.33295ZM8.87423 7.33409C8.68982 7.33409 8.53729 7.18611 8.53729 7.00171C8.53729 6.8173 8.68754 6.66932 8.87423 6.66932H13.5322C13.7188 6.66932 13.8691 6.81958 13.8691 7.00171C13.8691 7.18384 13.7188 7.33409 13.5322 7.33409H8.87423ZM13.5322 10C13.7188 10 13.8691 10.1503 13.8691 10.3324C13.8691 10.5145 13.7188 10.6648 13.5322 10.6648H8.87423C8.68982 10.6648 8.53729 10.5168 8.53729 10.3324C8.53729 10.148 8.68754 10 8.87423 10H13.5322ZM6.53615 12.6682C6.90496 12.6682 7.2032 12.9664 7.2032 13.3352C7.2032 13.704 6.90496 14.0023 6.53615 14.0023C6.16734 14.0023 5.8691 13.7018 5.8691 13.333C5.8691 12.9641 6.16962 12.6682 6.53615 12.6682ZM13.5322 13.333C13.7188 13.333 13.8691 13.4832 13.8691 13.6653C13.8691 13.8497 13.7188 13.9977 13.5322 13.9977H8.87423C8.68982 13.9977 8.53729 13.8497 8.53729 13.6653C8.53729 13.4809 8.68754 13.333 8.87423 13.333H13.5322Z" fill="#86888C"/>
</svg>
