<svg width="40" height="40" viewBox="0 0 40 40" fill="none" xmlns="http://www.w3.org/2000/svg">
<path d="M20 2C31.7302 2 38 8.20831 38 20C38 31.7917 31.7917 38 20 38C8.20831 38 2 31.7917 2 20C2 8.20831 8.20831 2 20 2ZM20 36.4991C30.9055 36.4991 36.4991 30.9516 36.4991 20C36.4991 9.04838 30.967 3.50085 20 3.50085C9.03301 3.50085 3.50085 9.09448 3.50085 20C3.50085 30.9055 9.03301 36.4991 20 36.4991ZM20 5.81104C20.3944 5.81104 20.7171 6.10814 20.7479 6.50256V12.2038C20.7376 12.6135 20.4098 12.9465 20 12.9516C19.5851 12.9516 19.2521 12.6135 19.2521 12.2038V6.55891C19.2521 6.144 19.5851 5.81104 20 5.81104ZM12.9516 19.8976C12.9516 20.3125 12.6135 20.6454 12.2038 20.6454H6.49744C6.08253 20.6454 5.74957 20.3073 5.74957 19.8976C5.74957 19.4826 6.08765 19.1497 6.49744 19.1497H12.1986C12.6135 19.1446 12.9516 19.4826 12.9516 19.8976ZM13.8788 24.8919C14.1861 24.6153 14.6625 24.6357 14.9391 24.9431L14.9442 24.9482C15.2362 25.2197 15.2464 25.6756 14.975 25.9676L14.9442 25.9983L11 29.9271C10.8566 30.0859 10.6466 30.1679 10.4314 30.1525C10.0165 30.1474 9.68867 29.8042 9.6938 29.3944C9.69892 29.1998 9.77575 29.0154 9.90894 28.8822C9.90381 28.8822 13.8788 24.8919 13.8788 24.8919ZM19.8976 27.0074C20.3125 27.0074 20.6454 27.3455 20.6454 27.7553V33.3796C20.6454 33.7945 20.3073 34.1275 19.8976 34.1275C19.4826 34.1275 19.1497 33.7894 19.1497 33.3796V27.7553C19.1446 27.3404 19.4826 27.0074 19.8976 27.0074ZM25.9983 24.9943L29.9886 28.9846C30.2806 29.2766 30.2857 29.753 29.9937 30.045L29.9886 30.0501C29.8452 30.1833 29.6608 30.2601 29.4661 30.2601C29.2715 30.2601 29.082 30.1884 28.9437 30.0501L24.9482 26.0598C24.6562 25.7678 24.6511 25.2914 24.9431 24.9994L24.9482 24.9943C25.2402 24.7075 25.7063 24.7075 25.9983 24.9943ZM33.3796 19.3085C33.7945 19.3085 34.1275 19.6466 34.1275 20.0563C34.1275 20.4713 33.7894 20.8042 33.3796 20.8042H27.7553C27.3404 20.8042 27.0074 20.4661 27.0074 20.0563C27.0074 19.6414 27.3455 19.3085 27.7553 19.3085H33.3796ZM25.5373 15.2772C25.3375 15.2772 25.1429 15.2003 24.9994 15.0672C24.7126 14.7701 24.7126 14.2988 24.9994 14.0017L29.0051 10.0114C29.3227 9.74502 29.794 9.786 30.0603 10.0985C30.3011 10.3802 30.296 10.7951 30.0552 11.0768L26.0034 15.0672C25.8702 15.185 25.7063 15.2567 25.5373 15.2772Z" fill="#86888C"/>
</svg>
