<svg width="28" height="28" viewBox="0 0 28 28" fill="none" xmlns="http://www.w3.org/2000/svg">
<path fill-rule="evenodd" clip-rule="evenodd" d="M24.436 20.6916C24.2431 20.9198 23.9056 21.042 23.433 21.0484C21.6617 21.0774 4.96405 21.0484 4.78723 21.0484C4.59435 21.0323 4.4111 20.952 4.26965 20.8202C4.05426 20.608 3.94496 20.2608 3.94496 19.785V9.06048L12.3227 14.3745C12.3709 14.4067 13.1039 14.9339 14.123 14.9339C14.6373 14.9339 15.2289 14.7989 15.8365 14.397L24.6482 9.0444L24.6385 19.8622C24.6385 19.8654 24.7157 20.3605 24.436 20.6916ZM4.79366 6.94193L23.8284 6.94515C23.9474 6.94836 24.51 7.01909 24.6225 7.95781L15.3317 13.603C14.0587 14.4356 12.9239 13.648 12.8531 13.5998L3.95139 7.95138C3.97389 7.70062 4.04462 7.35343 4.24393 7.14446C4.37574 7.00944 4.55577 6.94193 4.79366 6.94193ZM25.5741 19.785L25.5901 8.1957C25.5419 6.43078 24.4296 6.02893 23.8284 6.00643L4.79366 6C4.29537 6 3.86459 6.1736 3.55597 6.50151C2.9548 7.13803 2.9966 8.12176 3.00303 8.20534V19.7818C3.00303 20.5212 3.20877 21.0966 3.61062 21.4888C3.92888 21.7975 4.35324 21.9775 4.79688 21.9871C4.90939 21.9871 12.3195 22 17.8039 22C20.5751 22 22.8511 21.9968 23.4491 21.9871C24.2142 21.9743 24.7929 21.7364 25.1658 21.2831C25.7091 20.6273 25.5837 19.7947 25.5741 19.785Z" fill="#86888C"/>
</svg>
