<svg width="28" height="28" viewBox="0 0 28 28" fill="none" xmlns="http://www.w3.org/2000/svg">
<path fill-rule="evenodd" clip-rule="evenodd" d="M24.7606 24.5444C24.5468 24.8009 24.1691 24.9363 23.6418 24.947C22.6049 24.9648 17.2031 24.9648 14.0675 24.9612H14.0176C9.34979 24.9648 4.25441 24.9612 3.40281 24.947C2.87546 24.9363 2.50132 24.8045 2.28753 24.5479C1.97753 24.1773 2.05948 23.6286 2.06661 23.5395L2.05592 12.1551L11.3666 18.0308C11.4022 18.0558 12.2146 18.6401 13.3584 18.6401C14.0318 18.6401 14.6803 18.4406 15.2754 18.0522L24.9887 11.9912L24.9851 23.6286C24.9851 23.6357 25.0635 24.1773 24.7606 24.5444ZM2.50488 9.5326L12.1326 3.44666C12.5531 3.18654 13.0377 3.04402 13.5294 3.04045C14.3204 3.04045 14.9048 3.43953 14.9333 3.45735L24.5183 9.51835C24.8141 9.72858 24.9744 10.1597 24.9887 10.7512V10.7797C24.9708 10.7868 24.9495 10.7904 24.9317 10.8011L14.7088 17.1757C14.2813 17.4572 13.8252 17.5997 13.3584 17.5997C12.5709 17.5997 11.9901 17.1935 11.9545 17.1721L2.05236 10.9258V10.7619C2.06661 10.1597 2.23052 9.72858 2.50488 9.5326ZM26.022 23.5431L26.0327 10.7405C26.0042 9.55042 25.5231 8.95893 25.1027 8.65962L15.5177 2.59862C14.9191 2.21023 14.2242 2.00356 13.5116 2C12.3749 2 11.559 2.57367 11.5483 2.5808L2.08443 8.56341L1.91695 8.67031C1.51788 8.95536 1.03684 9.54329 1.00834 10.7477L1.02616 23.454C1.00834 23.5574 0.869374 24.4802 1.47512 25.2071C1.89201 25.7095 2.53339 25.9696 3.38499 25.9839C4.062 25.9946 7.19049 25.9981 10.5256 25.9981H14.0176V25.4779L14.071 25.9981C17.2031 26.0017 22.6156 26.0017 23.6596 25.9839C24.5076 25.9696 25.149 25.706 25.5659 25.2071C26.1716 24.4802 26.0327 23.5574 26.022 23.5431Z" fill="#86888C"/>
</svg>
