<svg width="40" height="40" viewBox="0 0 40 40" fill="none" xmlns="http://www.w3.org/2000/svg">
<path fill-rule="evenodd" clip-rule="evenodd" d="M32.5145 36.9306V7.73819C32.5145 7.58964 32.0381 7.13375 31.362 7.13375H25.9784C26.004 7.31303 26.0245 7.48719 26.0347 7.6716L26.0501 8.01992L26.045 8.18896C25.963 10.576 23.7706 11.0677 20.5077 11.0677C17.2447 11.0677 15.0524 10.5709 14.9653 8.15822V7.80478L14.9755 7.63574C14.9806 7.45646 15.0165 7.29767 15.037 7.13375H9.64314C8.96699 7.13375 8.49061 7.59476 8.49061 7.73819V36.9306C8.49061 37.1355 8.9926 37.535 9.64314 37.535H31.362C32.0125 37.535 32.5145 37.1303 32.5145 36.9306ZM20.4974 4.465C17.8338 4.465 16.5532 5.50484 16.4456 7.73819L16.4354 8.01992C16.461 8.73705 16.4917 9.60273 20.4923 9.60273C24.4929 9.60273 24.5287 8.73705 24.5492 8.107V7.86625C24.539 7.43597 24.4724 7.01081 24.3495 6.60102C23.8987 5.16164 22.6386 4.465 20.4974 4.465ZM31.3569 5.66875C32.7399 5.66875 33.9949 6.65737 33.9949 7.73819V36.9306C33.9949 38.0575 32.786 39 31.3569 39H9.63802C8.20888 39 7 38.0524 7 36.9306V7.73819C7 6.65225 8.2601 5.66363 9.63802 5.66363H15.4058C16.1742 3.93739 17.9209 3 20.5026 3C23.6426 3 25.0051 4.35743 25.5891 5.66875H31.3569ZM18.848 8.36312C18.4434 8.36312 18.1104 8.04041 18.1053 7.63062C18.1053 7.22595 18.4382 6.89812 18.848 6.89812H22.1417C22.5515 6.89812 22.8845 7.22595 22.8845 7.63062C22.8845 8.03529 22.5515 8.36312 22.1417 8.36312H18.848ZM30.9727 24.2168C31.3825 24.2168 31.7154 24.5447 31.7154 24.9493C31.7154 25.354 31.3825 25.6818 30.9727 25.6818H25.7376C25.4252 25.6818 25.1434 25.4872 25.0359 25.1952L24.1343 22.6596L23.3916 25.1594C23.2943 25.4718 23.0074 25.687 22.6796 25.6818H21.4604L20.2669 29.5441C20.1696 29.8515 19.8828 30.0615 19.5549 30.0615H19.5191C19.181 30.0461 18.8941 29.8053 18.8275 29.4724L16.9579 20.2521L15.4468 25.0672C15.3495 25.3745 15.0626 25.5845 14.7348 25.5845H10.0222C9.61753 25.5896 9.28458 25.2618 9.27945 24.852C9.27945 24.4474 9.60729 24.1195 10.0222 24.1195H14.1867L16.3995 17.066C16.4969 16.7382 16.8093 16.5231 17.1474 16.5538C17.4855 16.5692 17.7723 16.8099 17.8389 17.1429L19.7035 26.3375L20.1952 24.7393C20.2925 24.432 20.5845 24.222 20.9072 24.222H22.1212L23.3557 20.0677C23.4479 19.7604 23.7297 19.5504 24.0472 19.5452C24.37 19.535 24.6619 19.7297 24.7695 20.0319L26.2601 24.222L30.9727 24.2168Z" fill="#86888C"/>
</svg>
