<svg width="28" height="28" viewBox="0 0 28 28" fill="none" xmlns="http://www.w3.org/2000/svg">
<path fill-rule="evenodd" clip-rule="evenodd" d="M2.70675 7.38619C2.31753 7.38619 2 7.07549 2 6.6931C2 6.3107 2.31753 6 2.70675 6H25.2921C25.6813 6 25.9989 6.3107 25.9989 6.6931C25.9989 7.07549 25.6813 7.38619 25.2921 7.38619H2.70675ZM25.2887 14.3069C25.6779 14.3069 25.9954 14.6176 25.9954 15C25.9954 15.3824 25.6779 15.6931 25.2887 15.6931H2.70675C2.31753 15.6931 2 15.3824 2 15C2 14.6176 2.31753 14.3069 2.70675 14.3069H25.2887ZM25.2887 22.6138C25.6779 22.6138 25.9954 22.9245 25.9954 23.3069C25.9954 23.6893 25.6779 24 25.2887 24H2.70675C2.31753 24 2 23.6893 2 23.3069C2 22.9245 2.31753 22.6138 2.70675 22.6138H25.2887Z" fill="#86888C"/>
</svg>
