<svg width="20" height="20" viewBox="0 0 20 20" fill="none" xmlns="http://www.w3.org/2000/svg">
<path fill-rule="evenodd" clip-rule="evenodd" d="M14.653 14.5026C14.653 14.5892 14.5305 14.703 14.4057 14.703H5.54902C5.4174 14.703 5.30167 14.5914 5.30167 14.5026V5.52697C5.30167 5.445 5.43329 5.31977 5.54902 5.31977H14.4057C14.5214 5.31977 14.653 5.445 14.653 5.52697V14.5026ZM17.612 10.3381C17.7958 10.3381 17.9456 10.1878 17.9456 10.0034C17.9456 9.81898 17.7958 9.66871 17.612 9.66871H15.3224V8.32759H17.6143C17.7981 8.32759 17.9479 8.17732 17.9479 7.99288C17.9479 7.80845 17.7981 7.65818 17.6143 7.65818H15.3224V5.52697C15.3224 5.06703 14.8867 4.64807 14.4057 4.64807H12.3135V2.33471C12.3157 2.15028 12.166 2 11.9822 2C11.7984 2 11.6486 2.15028 11.6486 2.33471V4.64579H10.3121V2.33471C10.3121 2.15028 10.1623 2 9.97848 2C9.79468 2 9.64491 2.15028 9.64491 2.33471V4.64579H8.30835V2.33471C8.30835 2.15028 8.15859 2 7.97251 2C7.78871 2 7.63894 2.15028 7.63894 2.33471V4.64579H5.54675C5.06795 4.64579 4.62999 5.06475 4.62999 5.52469V7.6559H2.33357C2.14977 7.6559 2 7.80618 2 7.99288C2 8.17732 2.14977 8.32759 2.33357 8.32759H4.63226V9.66871H2.33357C2.14977 9.66871 2 9.81898 2 10.0034C2 10.1878 2.14977 10.3381 2.33357 10.3381H4.63226V11.6792H2.33357C2.14977 11.6792 2 11.8295 2 12.0139C2 12.1984 2.14977 12.3487 2.33357 12.3487H4.63226V14.5004C4.63226 14.9648 5.06114 15.3724 5.54902 15.3724H7.64121V17.6653C7.65029 17.8497 7.80459 17.9932 7.99067 17.9863C8.16313 17.9795 8.30155 17.8406 8.31062 17.6653V15.3724H9.64718V17.6653C9.64718 17.8497 9.79694 18 9.98075 18C10.1646 18 10.3143 17.8497 10.3143 17.6653V15.3724H11.6509V17.6653C11.6509 17.8497 11.8006 18 11.9844 18C12.1683 18 12.318 17.8497 12.318 17.6653V15.3724H14.4102C14.8981 15.3724 15.327 14.9648 15.327 14.5004V12.3487H17.6188C17.8027 12.3395 17.9456 12.1847 17.9388 11.998C17.932 11.825 17.7936 11.6861 17.6188 11.677H15.3224V10.3358L17.612 10.3381Z" fill="#86888C"/>
</svg>
