<svg width="28" height="28" viewBox="0 0 28 28" fill="none" xmlns="http://www.w3.org/2000/svg">
<path fill-rule="evenodd" clip-rule="evenodd" d="M24.9896 21.6581V6.35557C24.9896 5.20523 24.7302 4.37576 24.1806 3.8262C23.6311 3.27663 22.8118 3.00697 21.6513 3.00697H14.0051C12.865 3.00697 12.0356 3.28687 11.486 3.84668C10.9364 4.40649 10.6668 5.22571 10.6668 6.35557V6.9461C14.4352 7.38643 16.5959 9.71782 16.5959 14.1656C16.5959 18.6133 14.4352 20.9447 10.677 21.385V22.095C10.735 23.0132 10.9945 23.7164 11.486 24.184C12.0253 24.7336 12.8548 24.9964 14.0051 24.9964H21.6513C22.8118 24.9964 23.6311 24.737 24.1806 24.184C24.7302 23.6447 24.9896 22.8152 24.9896 21.6581ZM9.29797 20.4668C13.5341 20.4668 15.5958 18.4051 15.5958 14.1656C15.5958 9.92604 13.5341 7.86432 9.29797 7.86432C5.05846 7.86432 3.00014 9.92604 3.00014 14.1656C3.00014 18.4051 5.05846 20.4668 9.29797 20.4668ZM24.8906 3.12644C25.6313 3.86716 25.9898 4.92533 25.9898 6.35557V21.6581C25.9898 23.0986 25.6313 24.1567 24.8804 24.8975C24.1397 25.6382 23.0815 26 21.6513 26H14.0051C12.5749 26 11.527 25.6382 10.776 24.9009C10.1172 24.2523 9.75537 23.3409 9.67686 22.1394V21.4601C9.54715 21.4601 9.42768 21.4703 9.29797 21.4703C4.6898 21.4669 2 19.1458 2 14.1656C2 9.19556 4.6898 6.86417 9.29797 6.86417C9.42768 6.86417 9.54715 6.87441 9.66662 6.87441V6.35215C9.66662 4.9424 10.025 3.89105 10.776 3.14009C11.527 2.38231 12.5851 2 14.0051 2H21.6513C23.0917 2.00683 24.1499 2.37548 24.8906 3.12644ZM7.65609 16.6505L11.9502 14.169L7.65609 11.6874V16.6505ZM13.203 13.7355C13.4419 13.8754 13.5238 14.1792 13.3839 14.4181C13.3395 14.4932 13.2781 14.5547 13.203 14.5991L7.40691 17.9477C7.25331 18.0364 7.06215 18.0364 6.90855 17.9477C6.75494 17.8589 6.65937 17.6951 6.65937 17.5142V10.8238C6.65937 10.5473 6.88465 10.3254 7.15773 10.3254C7.24648 10.3254 7.33182 10.3493 7.40691 10.3937C7.40691 10.3903 13.203 13.7355 13.203 13.7355ZM16.8724 22.4125C16.6471 22.1838 16.5345 21.8663 16.5345 21.4669C16.5345 20.6511 17.0192 20.1664 17.8316 20.1664C18.644 20.1664 19.1287 20.6545 19.1287 21.4669C19.1287 21.8663 19.0161 22.1838 18.7908 22.4125C18.5621 22.6446 18.231 22.7675 17.8316 22.7675C17.4322 22.7709 17.1011 22.648 16.8724 22.4125Z" fill="#86888C"/>
</svg>
