<svg width="40" height="40" viewBox="0 0 40 40" fill="none" xmlns="http://www.w3.org/2000/svg">
<path fill-rule="evenodd" clip-rule="evenodd" d="M36.4991 31.4843V8.51565C36.4991 6.78941 36.1098 5.54468 35.2851 4.73022C34.4758 3.90552 33.2311 3.50085 31.4895 3.50085H20.0154C18.3045 3.50085 17.0598 3.90552 16.2351 4.76096C15.4104 5.58566 15.0057 6.82015 15.0057 8.51565V9.40182C20.6608 10.0472 23.9032 13.5612 23.9032 20.2561C23.9032 26.9357 20.6608 30.4496 15.0211 31.095V32.1605C15.1081 33.5435 15.5128 34.5783 16.2351 35.3005C17.0444 36.1098 18.2891 36.5043 20.0154 36.5043H31.4895C33.2311 36.5043 34.4604 36.115 35.2851 35.3005C36.1098 34.4707 36.4991 33.226 36.4991 31.4843ZM12.9516 29.712C19.3085 29.712 22.4024 26.6181 22.4024 20.2561C22.4024 13.8941 19.3085 10.7797 12.9516 10.7797C6.58964 10.7797 3.50085 13.889 3.50085 20.2561C3.50085 26.6232 6.58964 29.712 12.9516 29.712ZM36.3506 3.66477C37.4622 4.79169 38 6.36938 38 8.51565V31.4843C38 33.646 37.4622 35.2544 36.3352 36.3608C35.2237 37.4724 33.6357 38 31.4895 38H20.0154C17.8691 38 16.2965 37.4724 15.1696 36.3608C14.181 35.3722 13.638 34.0046 13.5356 32.2015L13.5202 31.1975C13.3256 31.2129 13.1463 31.2129 12.9516 31.2129C6.03643 31.2129 2 27.7143 2 20.2561C2 12.7775 6.03643 9.27888 12.9516 9.27888C13.1309 9.27888 13.3256 9.27888 13.5048 9.29425V8.51565C13.5048 6.41548 14.0427 4.83779 15.1696 3.6955C16.2965 2.55322 17.8845 2 20.0154 2H31.4895C33.6511 2 35.239 2.53785 36.3506 3.66477ZM25.7575 29.2612C26.9715 29.2612 27.6938 29.9835 27.6938 31.2129C27.6938 31.7968 27.5299 32.2783 27.1969 32.6266C26.8537 32.9852 26.3569 33.1645 25.7575 33.1645C25.1582 33.1645 24.6614 32.9852 24.3182 32.6266C23.9903 32.2834 23.8059 31.8019 23.8059 31.2129C23.811 29.9835 24.5435 29.2612 25.7575 29.2612ZM9.63745 15.2516C10.0524 15.2516 10.3853 15.5896 10.3853 15.9994V24.7997C10.3853 25.2146 10.0472 25.5475 9.63745 25.5475C9.22766 25.5475 8.88958 25.2094 8.88958 24.7997V16.0046C8.88958 15.5896 9.22766 15.2516 9.63745 15.2516ZM16.0148 15.2208C16.4297 15.2208 16.7627 15.5589 16.7627 15.9738V24.7689C16.7627 25.1838 16.4246 25.5168 16.0148 25.5168C15.5999 25.5168 15.2669 25.1787 15.2669 24.7689V15.9738C15.2669 15.5589 15.5999 15.226 16.0148 15.2208Z" fill="#86888C"/>
</svg>
