<svg width="20" height="20" viewBox="0 0 20 20" fill="none" xmlns="http://www.w3.org/2000/svg">
<path fill-rule="evenodd" clip-rule="evenodd" d="M6.482 12.3981C6.7506 12.3981 6.92815 12.5756 6.92815 12.8283C6.92815 13.1105 6.75516 13.2813 6.49794 13.2813C6.22478 13.2813 6.05179 13.1105 6.05179 12.8579V12.8283C6.05179 12.5756 6.22934 12.3981 6.482 12.3981ZM7.77493 7.53365C8.11865 7.78631 8.27799 8.13458 8.27799 8.63081C8.27799 9.23403 8.0276 9.59141 7.4608 10.2652C6.81662 11.0095 6.79385 11.0368 6.79385 11.7288C6.79385 11.8495 6.69825 11.9451 6.57761 11.9451H6.36364C6.2612 11.9451 6.17015 11.8722 6.15194 11.7698C6.13145 11.6674 6.12235 11.5627 6.12463 11.458C6.12463 10.9253 6.31128 10.6135 6.72784 10.1104L6.80751 10.0148C7.48357 9.21354 7.61104 8.99274 7.61104 8.61943C7.61104 8.35766 7.53592 8.18694 7.36065 8.04581C7.26049 7.96386 7.08067 7.87281 6.58671 7.87281C6.31583 7.87281 6.07682 7.90468 5.78774 7.97752C5.67165 8.00711 5.55328 7.93427 5.52369 7.81818C5.52369 7.81591 5.52141 7.81135 5.52141 7.80908L5.48954 7.64291C5.47133 7.54503 5.52141 7.44942 5.61019 7.40617C5.79684 7.3174 6.24982 7.22635 6.68232 7.22635C7.13985 7.22862 7.50861 7.33106 7.77493 7.53365ZM17.3308 15.1046V4.89316C17.3308 4.12605 17.1578 3.57974 16.7913 3.21326C16.4248 2.84678 15.8785 2.66695 15.1046 2.66695H10.0057C9.24541 2.66695 8.69227 2.85361 8.32579 3.22692C7.95931 3.60023 7.77948 4.13971 7.77948 4.89316V5.29378C10.2925 5.58742 11.7334 7.14213 11.7334 10.1081C11.7334 13.0741 10.2925 14.6288 7.78631 14.9225V15.3959C7.82729 16.0083 8.00028 16.4703 8.32579 16.789C8.68545 17.1487 9.23858 17.3308 10.0057 17.3308H15.1046C15.8717 17.3308 16.4248 17.1487 16.7913 16.789C17.1578 16.4294 17.3308 15.8762 17.3308 15.1046ZM6.86669 14.3101C9.69384 14.3101 11.0664 12.9353 11.0664 10.1081C11.0664 7.28098 9.69384 5.9061 6.86669 5.9061C4.03955 5.9061 2.66695 7.28098 2.66695 10.1081C2.66695 12.9353 4.03955 14.3101 6.86669 14.3101ZM17.2648 2.74662C17.7587 3.24057 17.9977 3.94622 17.9977 4.89316V15.1046C17.9977 16.0652 17.7587 16.7708 17.2579 17.2648C16.764 17.7587 16.0583 18 15.1046 18H10.0057C9.05193 18 8.35083 17.7587 7.85233 17.267C7.413 16.8277 7.17399 16.2268 7.11936 15.421V14.9748C7.03286 14.9748 6.95319 14.9816 6.86669 14.9816C3.79144 14.9771 2 13.4292 2 10.1081C2 6.79385 3.79144 5.23915 6.86669 5.23915C6.95319 5.23915 7.03286 5.24598 7.11253 5.24598V4.89316C7.11253 3.95988 7.35154 3.25879 7.85233 2.758C8.35083 2.24584 9.05876 2 10.0057 2H15.1046C16.0652 2 16.7708 2.24584 17.2648 2.74662ZM11.9178 15.6076C11.7675 15.4551 11.6924 15.2434 11.6924 14.9771C11.6924 14.4331 12.0156 14.1098 12.5574 14.1098C13.0992 14.1098 13.4224 14.4353 13.4224 14.9771C13.4224 15.2434 13.3473 15.4551 13.197 15.6076C13.0445 15.7647 12.8237 15.8466 12.5574 15.8466C12.2911 15.8466 12.0703 15.7624 11.9178 15.6076Z" fill="#86888C"/>
</svg>
