<svg width="20" height="20" viewBox="0 0 20 20" fill="none" xmlns="http://www.w3.org/2000/svg">
<path d="M10.3454 17.9996C7.41772 17.9996 5.86963 16.472 5.86963 13.5807V9.97457C5.86963 7.08327 7.41772 5.55566 10.3454 5.55566C13.2732 5.55566 14.8213 7.08327 14.8213 9.97457V13.5807C14.8213 15.1038 14.4752 16.1943 13.7626 16.9114C13.0318 17.6445 11.9163 17.9996 10.3454 17.9996ZM10.3454 6.01554C7.67953 6.01554 6.32723 7.34736 6.32723 9.97457V13.583C6.32723 16.2102 7.67953 17.542 10.3454 17.542C11.7888 17.542 12.7996 17.2301 13.4371 16.5881C14.0609 15.9598 14.3637 14.9763 14.3637 13.5807V9.97457C14.3614 7.34736 13.0091 6.01554 10.3454 6.01554Z" fill="#86888C"/>
<path d="M10.3455 10.0091C10.218 10.0091 10.1155 9.90667 10.1155 9.77918V7.3728C10.1155 7.24531 10.218 7.14286 10.3455 7.14286C10.473 7.14286 10.5754 7.24531 10.5754 7.3728V9.77918C10.5731 9.90667 10.4707 10.0091 10.3455 10.0091ZM10.3682 5.8839C10.2408 5.8839 10.1383 5.78145 10.1383 5.65396V5.03017C10.1383 5.02789 10.1338 4.73649 9.98805 4.45419C9.80592 4.10359 9.47809 3.92601 9.01822 3.92601H7.41321C5.94707 3.92601 5 3.26124 5 2.22994C5 2.10245 5.10245 2 5.22994 2C5.35743 2 5.45988 2.10245 5.45988 2.22994C5.45988 2.59192 5.62379 2.88788 5.94479 3.10643C6.29311 3.3432 6.8008 3.46841 7.41321 3.46841H9.01822C9.83097 3.46841 10.2203 3.89869 10.4047 4.26067C10.5959 4.63859 10.5982 5.01423 10.5982 5.03017V5.65396C10.5982 5.78145 10.4957 5.8839 10.3682 5.8839ZM10.3887 11.3409H10.2977C8.88617 11.3409 7.46329 11.243 6.06545 11.0518C5.94024 11.0336 5.85145 10.9198 5.86967 10.7945C5.88788 10.6693 6.00171 10.5805 6.12692 10.5988C7.51793 10.79 8.93626 10.8833 10.3409 10.8833H10.3865C11.7775 10.8833 13.1799 10.7877 14.5572 10.5988C14.6824 10.5805 14.7985 10.6693 14.8145 10.7945C14.8327 10.9198 14.7439 11.0359 14.6187 11.0518C13.2254 11.2453 11.8002 11.3409 10.3887 11.3409Z" fill="#86888C"/>
</svg>
