<svg width="24" height="24" viewBox="0 0 24 24" fill="none" xmlns="http://www.w3.org/2000/svg">
<path fill-rule="evenodd" clip-rule="evenodd" d="M9.86397 4.57541L9.86682 2.87934L19.4883 5.44337L19.6164 5.46898V7.17359L9.86397 4.57541ZM6.55151 16.815C6.47467 16.815 6.38076 16.8179 6.29254 16.815C5.56688 16.8065 3.87365 16.539 3.87365 14.2994C3.87365 12.0655 5.5498 11.8065 6.26978 11.8008C6.358 11.8008 6.45475 11.8008 6.54013 11.8036C7.27149 11.8207 8.97325 12.0996 8.97325 14.3164C8.97325 16.5333 7.28002 16.8008 6.55151 16.815ZM17.1946 21.132L16.9357 21.1349C16.21 21.1264 14.5168 20.8589 14.5168 18.6192C14.5168 16.3853 16.1929 16.1292 16.9129 16.1235L17.1833 16.1264C17.9146 16.1434 19.6192 16.4223 19.6192 18.6392C19.6164 20.8503 17.9232 21.1207 17.1946 21.132ZM20.4957 5.47183C20.4929 5.01081 20.1315 4.62948 19.6705 4.59818L9.98065 2.01707L9.86682 2C9.3745 2 8.9761 2.39556 8.9761 2.87649V11.9118C8.3358 11.2573 7.43654 10.9613 6.56574 10.9414C6.47467 10.9385 6.36653 10.9414 6.26693 10.9385C4.68469 10.9499 3 11.8406 3 14.2994C3 16.7581 4.69892 17.6574 6.28401 17.6801C6.38076 17.683 6.47752 17.683 6.57427 17.6801C7.10359 17.6716 9.66477 17.4667 9.84121 14.6266H9.85828L9.86966 5.47183L19.6221 8.07285V16.2345C18.9818 15.58 18.0825 15.2812 17.206 15.2612L16.9101 15.2584C15.3307 15.2726 13.6431 16.1605 13.6431 18.6192C13.6431 21.078 15.3421 21.9772 16.93 22L17.2146 21.9972C17.7638 21.9886 20.4986 21.778 20.4986 18.6363C20.4986 18.5851 20.4872 18.5452 20.4843 18.494H20.4986V5.47183H20.4957Z" fill="#86888C"/>
</svg>
