<svg width="40" height="40" viewBox="0 0 40 40" fill="none" xmlns="http://www.w3.org/2000/svg">
<path fill-rule="evenodd" clip-rule="evenodd" d="M16.3552 6.63574L16.3603 3.58281L33.679 8.19806L33.9095 8.24417V11.3125L16.3552 6.63574ZM10.3927 28.667C10.2544 28.667 10.0854 28.6722 9.92658 28.667C8.62038 28.6517 5.57257 28.1702 5.57257 24.1389C5.57257 20.1178 8.58964 19.6517 9.8856 19.6414C10.0444 19.6414 10.2186 19.6414 10.3722 19.6466C11.6887 19.6773 14.7518 20.1793 14.7518 24.1696C14.7518 28.1599 11.704 28.6414 10.3927 28.667ZM29.5504 36.4377L29.0842 36.4428C27.778 36.4274 24.7302 35.9459 24.7302 31.9146C24.7302 27.8936 27.7473 27.4326 29.0433 27.4223L29.5299 27.4274C30.8463 27.4582 33.9146 27.9602 33.9146 31.9505C33.9095 35.9306 30.8617 36.4172 29.5504 36.4377ZM35.4923 8.24929C35.4872 7.41947 34.8367 6.73307 34.0068 6.67672L16.5652 2.03073L16.3603 2C15.4741 2 14.757 2.71201 14.757 3.57769V19.8412C13.6044 18.6631 11.9858 18.1303 10.4183 18.0945C10.2544 18.0894 10.0598 18.0945 9.88048 18.0894C7.03244 18.1098 4 19.7131 4 24.1389C4 28.5646 7.05805 30.1833 9.91121 30.2242C10.0854 30.2294 10.2595 30.2294 10.4337 30.2242C11.3865 30.2089 15.9966 29.8401 16.3142 24.7279H16.3449L16.3654 8.24929L33.9198 12.9311V27.6221C32.7672 26.4439 31.1485 25.9061 29.5709 25.8702L29.0381 25.8651C26.1952 25.8907 23.1577 27.4889 23.1577 31.9146C23.1577 36.3404 26.2157 37.959 29.074 38L29.5862 37.9949C30.5748 37.9795 35.4974 37.6005 35.4974 31.9454C35.4974 31.8532 35.4769 31.7814 35.4718 31.6892H35.4974V8.24929H35.4923Z" fill="#86888C"/>
</svg>
