<svg width="28" height="28" viewBox="0 0 28 28" fill="none" xmlns="http://www.w3.org/2000/svg">
<path fill-rule="evenodd" clip-rule="evenodd" d="M14.5708 25.2735C14.2598 25.2837 13.8804 25.2837 13.5386 25.2837C11.0709 25.2427 3.02535 24.3267 3.02535 14.2681C3.02535 4.2299 11.0094 3.35152 13.4497 3.32076L14.2187 3.32759C11.8844 4.46573 9.45429 6.88214 9.45429 12.0089C9.45429 21.1618 17.2401 21.7497 18.8089 21.7736C19.1028 21.7736 19.4173 21.7736 19.6668 21.7634C20.4597 21.7429 21.8166 21.6267 23.2589 21.1071C20.675 24.8565 16.0507 25.2461 14.5708 25.2735ZM24.8345 19.617C24.6705 19.4666 24.4278 19.4392 24.233 19.5486C22.4899 20.5364 20.6135 20.7209 19.6394 20.7449C19.3933 20.7551 19.0926 20.7551 18.8191 20.7551C16.8641 20.7243 10.4831 19.9998 10.4831 12.0089C10.4831 6.11313 13.8872 4.14787 16.7445 3.5395C16.9838 3.48823 17.1547 3.27633 17.1512 3.03366C17.1478 2.791 16.9701 2.58251 16.7308 2.53808C16.0063 2.40478 15.2748 2.32617 14.54 2.30908L13.4463 2.29883C10.7599 2.33301 2 3.29342 2 14.2646C2 16.2402 2.55369 26.1143 13.5283 26.2988C13.8906 26.2988 14.2803 26.2988 14.5947 26.2886C16.3788 26.2578 22.3908 25.7315 24.9541 20.2014C25.0498 20.0032 24.9986 19.7639 24.8345 19.617Z" fill="#86888C"/>
</svg>
