<svg width="24" height="24" viewBox="0 0 24 24" fill="none" xmlns="http://www.w3.org/2000/svg">
<path fill-rule="evenodd" clip-rule="evenodd" d="M18.1747 20.7792V8.70461H15.5851C14.6005 8.70461 13.7496 8.37735 13.1292 7.77689C12.5003 7.1679 12.1702 6.32271 12.1702 5.35231V2.83665H5.23221C5.05009 2.83665 4.82812 3.04439 4.82812 3.22937V20.7792C4.82812 20.9698 5.03586 21.1633 5.23221 21.1633H17.7592C17.9755 21.1633 18.1747 20.9812 18.1747 20.7792ZM12.9954 3.01878V5.35231C12.9954 6.09505 13.243 6.72396 13.6983 7.17359C14.1707 7.62607 14.8139 7.86796 15.5851 7.86796H17.9585L12.9954 3.01878ZM18.7951 7.51793C18.9289 7.65168 19.0028 7.82812 19.0028 8.01024V20.7792C19.0028 21.4394 18.4308 22 17.7621 22H5.23221C4.58054 22 4 21.4308 4 20.7792V3.22937C4 2.58623 4.58623 2 5.23221 2H12.8617C13.0438 2 13.2089 2.07399 13.3426 2.20205L18.7951 7.51793ZM16.0148 13.3802C16.2624 13.1298 16.4047 12.8196 16.4047 12.4866C16.4047 12.1508 16.2567 11.7923 16.0148 11.5504C15.7843 11.3142 15.4684 11.1719 15.1468 11.1577H15.0899C14.8423 11.1577 14.5122 11.2316 14.1964 11.5504C13.9744 11.7752 10.7615 14.6437 9.0996 16.132L8.21457 18.7388C8.20603 18.7729 8.21457 18.8071 8.24018 18.8241L8.2971 18.8583C8.30563 18.8583 8.31417 18.8497 8.32271 18.8497L10.8782 17.996L11.0347 17.8623C15.1383 14.1912 15.9152 13.4798 16.0148 13.3802ZM16.601 10.9556C16.9994 11.3569 17.2299 11.926 17.2299 12.4866C17.2214 13.0529 17.008 13.5652 16.5925 13.9835C16.4018 14.1656 14.7228 15.6796 11.5783 18.4883L11.453 18.605C11.3534 18.6904 11.2453 18.7558 11.1315 18.79L8.58452 19.6409C8.48492 19.675 8.39385 19.6921 8.29425 19.6921C8.27149 19.6921 8.24587 19.675 8.21172 19.675C8.19465 19.675 8.17188 19.6836 8.14627 19.6836H6.49289C6.27092 19.6836 6.08025 19.4986 6.08025 19.2652C6.08025 19.0404 6.27092 18.8469 6.49289 18.8469H7.39215C7.38361 18.7217 7.38361 18.5965 7.42629 18.4713L7.87308 17.1508H6.49004C6.26807 17.1508 6.0774 16.9573 6.0774 16.7325C6.0774 16.4963 6.26807 16.3142 6.49004 16.3142H8.14343L8.28287 15.8958C8.33125 15.745 8.42231 15.6027 8.53899 15.5031C8.87763 15.2015 9.20774 14.8998 9.54069 14.6096H6.49289C6.27092 14.6096 6.08025 14.416 6.08025 14.1912C6.08025 13.955 6.27092 13.7729 6.49289 13.7729H10.4969C11.2083 13.1298 11.8543 12.5435 12.3836 12.0683H6.49289C6.27092 12.0683 6.08025 11.8833 6.08025 11.65C6.08025 11.4138 6.27092 11.2316 6.49289 11.2316H13.3113C13.4764 11.0808 13.5845 10.9898 13.6101 10.9556C14.5492 10.0108 15.8668 10.21 16.601 10.9556Z" fill="#86888C"/>
</svg>
