<svg width="25" height="24" viewBox="0 0 25 24" fill="none" xmlns="http://www.w3.org/2000/svg">
<path fill-rule="evenodd" clip-rule="evenodd" d="M3.72069 18.1634C5.52978 16.0401 5.34799 12.9037 5.33626 12.7784V8.84221C5.33626 7.87736 5.47993 7.02351 5.75555 6.28067L16.9121 18.1662L3.72069 18.1634ZM13.3526 20.5769C12.9802 20.9697 12.4172 21.1718 11.6725 21.1718C10.9277 21.1718 10.3648 20.9725 9.9924 20.5826C9.52327 20.0874 9.44703 19.3844 9.44117 19.0001H13.9067C13.8979 19.3901 13.8129 20.0845 13.3526 20.5769ZM7.07792 4.33959C8.9134 2.71728 11.6197 2.87097 11.6461 2.87382C11.6666 2.87666 11.6871 2.87666 11.7077 2.87382C11.7341 2.87097 14.4404 2.71728 16.2758 4.33959C17.4282 5.35851 18.0146 6.87267 18.0146 8.84221V12.7528C18.0058 12.9037 17.8211 16.0401 19.6301 18.1634H18.0908L6.16311 5.45528C6.41233 5.0369 6.71141 4.6612 7.07792 4.33959ZM21.0082 21.2742L18.8707 18.9973H20.6769C20.8616 18.9973 21.0287 18.8863 21.0903 18.7212C21.1519 18.5561 21.0991 18.3683 20.9554 18.2573C18.6802 16.4955 18.8854 12.8411 18.8883 12.7784V8.84221C18.8883 6.63074 18.2052 4.90882 16.8623 3.72482C14.8391 1.93743 12.0243 2.02282 11.6754 2.04274C11.3265 2.02282 8.5117 1.94028 6.4827 3.72766C6.12206 4.04643 5.81419 4.40505 5.54737 4.80067L3.04924 2.13951C2.88504 1.96874 2.61236 1.95166 2.42764 2.10535C2.25171 2.25335 2.23119 2.51235 2.38366 2.68312L2.39245 2.69166L5.11049 5.58621C4.68241 6.51121 4.45664 7.59559 4.45664 8.83936V12.8012C4.45957 12.8382 4.66481 16.4927 2.38952 18.2545C2.24585 18.3626 2.19014 18.5505 2.25465 18.7184C2.31915 18.8863 2.48628 18.9945 2.66807 18.9945H8.55861C8.56155 19.5039 8.67003 20.4261 9.32975 21.1262C9.87512 21.7068 10.6609 22 11.6695 22C12.6753 22 13.461 21.7068 14.0064 21.1291C14.6661 20.4318 14.7805 19.5125 14.7863 18.9945H17.692L20.3485 21.8264C20.5127 22 20.7883 22.0142 20.9701 21.8605C21.146 21.7154 21.1666 21.4564 21.017 21.2856C21.017 21.2828 21.0112 21.2799 21.0082 21.2742Z" fill="#86888C"/>
</svg>
