<svg width="21" height="20" viewBox="0 0 21 20" fill="none" xmlns="http://www.w3.org/2000/svg">
<path fill-rule="evenodd" clip-rule="evenodd" d="M5.04887 14.9223H17.1018C15.7289 13.2218 15.8678 10.7087 15.8746 10.588V7.45572C15.8746 5.87362 15.4284 4.6603 14.5541 3.84763C13.1562 2.54553 11.1163 2.673 11.0958 2.673H11.0753C11.0685 2.673 11.0617 2.67983 11.048 2.673C10.9205 2.66617 8.00176 2.50683 6.79511 4.93347H6.90894C7.79003 4.95396 11.2165 5.29997 11.2165 9.43619C11.2165 13.5838 7.79003 13.9048 6.92943 13.9161C6.84975 13.923 6.7564 13.923 6.65623 13.923H6.51735C6.33066 13.9161 6.03696 13.8957 5.6909 13.8365C5.5156 14.2417 5.29475 14.6104 5.04887 14.9223ZM12.3412 16.8572C12.6941 16.4566 12.7601 15.9034 12.7601 15.5916H9.38145C9.38145 15.8989 9.44064 16.4589 9.80036 16.8572C10.0804 17.1714 10.5061 17.3307 11.0662 17.3307C11.6354 17.3307 12.0634 17.1714 12.3412 16.8572ZM2.8951 9.40887C2.8951 12.8303 5.43591 13.2378 6.52873 13.2583H6.65623C6.74957 13.2583 6.83609 13.2583 6.91577 13.2514C8.00859 13.2309 10.5494 12.8257 10.5494 9.43619C10.5494 6.05346 7.99493 5.62777 6.89528 5.60045C6.79511 5.59362 6.68127 5.59362 6.56971 5.59362H6.49003C5.40859 5.60728 2.8951 5.99427 2.8951 9.40887ZM18.1081 14.9974C18.2151 15.0885 18.2561 15.2387 18.2083 15.3708C18.1627 15.5051 18.0352 15.5916 17.8963 15.5916H13.4294C13.4294 16.0059 13.3429 16.7389 12.842 17.3011C12.4277 17.761 11.8357 18 11.0685 18C10.3081 18 9.70929 17.761 9.29493 17.3011C8.80089 16.7412 8.71437 16.0013 8.71437 15.5938H4.24747C4.06305 15.5938 3.91507 15.4436 3.91507 15.2592C3.91507 15.1591 3.9606 15.0634 4.04029 15.002C4.44099 14.6696 4.77339 14.2212 5.0261 13.6817C3.7557 13.2765 2.22803 12.2088 2.22803 9.40887C2.22803 5.75297 4.81437 5.06778 6.05518 4.95396C7.3142 1.90586 10.7816 1.99919 11.0685 2.00602C11.2757 1.99236 13.4431 1.89903 15.0095 3.3582C16.0226 4.30518 16.544 5.68013 16.544 7.45344V10.6063C16.5349 10.6563 16.3823 13.5838 18.1081 14.9974ZM9.29493 9.40887C9.29493 9.59553 9.14922 9.74122 8.96253 9.74122H7.05465V11.6557C7.05465 11.8423 6.90211 11.988 6.72225 11.988C6.53556 11.988 6.38985 11.8423 6.38985 11.6557V9.74122H4.48197C4.30211 9.74122 4.14957 9.59553 4.14957 9.40887C4.14957 9.22676 4.30211 9.07651 4.48197 9.07651H6.38985V7.1871C6.38985 7.00271 6.54011 6.85475 6.72225 6.85475C6.90211 6.85475 7.05465 7.00727 7.05465 7.1871V9.07424H8.96253C9.14922 9.07424 9.29493 9.22676 9.29493 9.40887Z" fill="#86888C"/>
</svg>
