<svg width="28" height="28" viewBox="0 0 28 28" fill="none" xmlns="http://www.w3.org/2000/svg">
<path d="M13.012 27.001C8.67666 27.001 6.38428 24.7086 6.38428 20.3733V14.9617C6.38428 10.6264 8.67666 8.33398 13.012 8.33398C17.3474 8.33398 19.6398 10.6264 19.6398 14.9617V17.3498C19.6398 17.5377 19.4861 17.6914 19.2982 17.6914C19.1103 17.6914 18.9565 17.5377 18.9565 17.3498V14.9617C18.9565 12.9563 18.4372 11.4395 17.4123 10.4521C16.4216 9.49897 14.9423 9.01726 13.012 9.01726C11.0818 9.01726 9.59908 9.49897 8.61175 10.4521C7.58684 11.4395 7.06755 12.9563 7.06755 14.9617V20.3733C7.06755 22.3787 7.58684 23.8955 8.61175 24.8829C9.59908 25.836 11.0818 26.3178 13.012 26.3178C14.4845 26.3178 15.6973 26.0376 16.6266 25.4807C16.7905 25.3851 16.9989 25.4398 17.0946 25.6037C17.1868 25.7643 17.1356 25.9693 16.9784 26.0649C15.9433 26.6867 14.6075 27.001 13.012 27.001Z" fill="#86888C"/>
<path d="M13.0114 15.0085C12.8235 15.0085 12.6698 14.8548 12.6698 14.6669V11.0558C12.6698 10.8679 12.8235 10.7142 13.0114 10.7142C13.1993 10.7142 13.353 10.8679 13.353 11.0558V14.6669C13.353 14.8582 13.1993 15.0085 13.0114 15.0085ZM13.0456 8.81808C12.8577 8.81808 12.7039 8.66434 12.7039 8.47644V7.54036C12.6902 7.23971 12.6151 6.94591 12.4819 6.67601C12.212 6.14989 11.7302 5.88342 11.047 5.88342H8.6726C6.47587 5.88342 5 4.86192 5 3.34164C5 3.15374 5.15374 3 5.34164 3C5.52954 3 5.68327 3.15374 5.68327 3.34164C5.68327 3.7106 5.81651 4.24014 6.44512 4.65352C6.98833 5.01224 7.75701 5.20014 8.6726 5.20014H11.0504C12.2564 5.20014 12.8337 5.84584 13.1036 6.38904C13.2779 6.74776 13.3769 7.14064 13.3906 7.54036V8.47644C13.3906 8.66776 13.2369 8.81808 13.0456 8.81808ZM13.0114 17.0071C10.8932 17.0105 8.77509 16.867 6.67744 16.5732C6.48954 16.5493 6.3563 16.3819 6.38021 16.194C6.40413 16.0061 6.57153 15.8729 6.75943 15.8968C6.76285 15.8968 6.76968 15.8968 6.7731 15.9002C8.84 16.1872 10.924 16.3307 13.0114 16.3273C15.0988 16.3307 17.1828 16.1872 19.2497 15.9002C19.4376 15.8763 19.6084 16.013 19.6289 16.1974C19.6494 16.3785 19.5264 16.5459 19.3453 16.5767C17.2477 16.867 15.1295 17.0105 13.0114 17.0071ZM17.6781 24.4548C17.4902 24.4548 17.3365 24.3011 17.3365 24.1132C17.3365 24.038 17.3604 23.9628 17.4083 23.9048L20.7119 19.6821C20.828 19.5352 21.0433 19.5079 21.1902 19.6241C21.3371 19.7402 21.3644 19.9554 21.2483 20.1023L17.9446 24.3216C17.8831 24.407 17.7841 24.4548 17.6781 24.4548ZM18.1974 21.6568C17.5927 21.6568 17.2135 21.281 17.2135 20.6729C17.2135 20.0648 17.5893 19.689 18.1974 19.689C18.8056 19.689 19.1814 20.0648 19.1814 20.6729C19.1814 21.281 18.8021 21.6568 18.1974 21.6568ZM18.1974 20.3757C17.9651 20.3757 17.8968 20.444 17.8968 20.6763C17.8968 20.9086 17.9651 20.9769 18.1974 20.9769C18.4297 20.9769 18.4981 20.9086 18.4981 20.6763C18.4981 20.444 18.4263 20.3757 18.1974 20.3757ZM20.4659 24.3147C19.8612 24.3147 19.482 23.9389 19.482 23.3308C19.482 22.7227 19.8578 22.3469 20.4659 22.3469C21.074 22.3469 21.4498 22.7227 21.4498 23.3308C21.4498 23.9389 21.074 24.3147 20.4659 24.3147ZM20.4659 23.0336C20.2336 23.0336 20.1653 23.1019 20.1653 23.3342C20.1653 23.5665 20.2336 23.6349 20.4659 23.6349C20.6982 23.6349 20.7665 23.5665 20.7665 23.3342C20.7665 23.1019 20.6982 23.0336 20.4659 23.0336Z" fill="#86888C"/>
<path d="M19.3321 26.9997C18.9324 26.9997 18.7138 26.6 18.5225 26.2515C18.4575 26.1354 18.3551 25.9509 18.2901 25.8826C18.1945 25.9099 18.0066 26.0226 17.887 26.0944C17.5488 26.2994 17.1696 26.5283 16.8313 26.3335C16.4931 26.1388 16.5 25.6878 16.5102 25.2915C16.5136 25.1549 16.517 24.9362 16.4931 24.844C16.4009 24.8201 16.1822 24.8269 16.0456 24.8269C15.6493 24.8372 15.1983 24.844 15.0036 24.5058C14.8089 24.1675 15.0378 23.7883 15.2427 23.4501C15.3145 23.3305 15.4306 23.1426 15.4546 23.047C15.3862 22.9821 15.1983 22.8796 15.0822 22.8147C14.7303 22.6199 14.334 22.4047 14.334 22.005C14.334 21.6053 14.7303 21.3866 15.0822 21.1953C15.1983 21.1304 15.3828 21.0313 15.4546 20.963C15.4272 20.8673 15.3145 20.6794 15.2427 20.5599C15.0378 20.2216 14.8089 19.8424 15.0036 19.5042C15.1983 19.166 15.6493 19.1728 16.0456 19.1831C16.1822 19.1865 16.4009 19.1899 16.4931 19.166C16.517 19.0737 16.5102 18.8551 16.5102 18.7184C16.5 18.3221 16.4931 17.8712 16.8313 17.6764C17.1696 17.4817 17.5488 17.7106 17.887 17.9156C18.0066 17.9873 18.1945 18.1035 18.2901 18.1274C18.3551 18.0591 18.4575 17.8712 18.5225 17.755C18.7138 17.4031 18.9324 17.0068 19.3321 17.0068C19.7318 17.0068 19.9505 17.4031 20.1418 17.755C20.2067 17.8712 20.3058 18.0557 20.3741 18.1274C20.4698 18.1001 20.6577 17.9873 20.7773 17.9156C21.1121 17.7106 21.4947 17.4817 21.8329 17.6764C22.1711 17.8712 22.1643 18.3221 22.1541 18.7184C22.1506 18.8551 22.1472 19.0737 22.1711 19.166C22.2634 19.1899 22.482 19.1831 22.6187 19.1831C23.015 19.1728 23.4659 19.166 23.6607 19.5042C23.8554 19.8424 23.6265 20.2216 23.4215 20.5599C23.3498 20.6794 23.2336 20.8673 23.2097 20.963C23.278 21.0279 23.4659 21.1304 23.5787 21.1953C23.9306 21.39 24.3269 21.6053 24.3269 22.005C24.3269 22.4047 23.9271 22.6233 23.5787 22.8147C23.4625 22.8796 23.278 22.9787 23.2097 23.047C23.237 23.1426 23.3498 23.3305 23.4215 23.4501C23.6265 23.7849 23.8554 24.1675 23.6607 24.5058C23.4659 24.844 23.015 24.8372 22.6187 24.8269C22.482 24.8235 22.2634 24.8201 22.1711 24.844C22.1472 24.9362 22.1541 25.1549 22.1541 25.2915C22.1643 25.6878 22.1711 26.1388 21.8329 26.3335C21.4947 26.5283 21.1155 26.2994 20.7773 26.0944C20.6577 26.0226 20.4698 25.9065 20.3741 25.8826C20.3092 25.9509 20.2067 26.1388 20.1418 26.2515C19.9505 26.6034 19.7318 26.9997 19.3321 26.9997ZM18.3175 25.1925C18.3687 25.1925 18.42 25.1993 18.4712 25.213C18.7753 25.2949 18.9495 25.6127 19.1203 25.9236C19.1818 26.0431 19.2536 26.1627 19.3321 26.2754C19.4107 26.1627 19.4825 26.0466 19.5439 25.9236C19.7148 25.6127 19.889 25.2949 20.1931 25.213C20.5039 25.131 20.8217 25.3223 21.1291 25.5102C21.2385 25.5785 21.3478 25.64 21.4639 25.6981C21.4742 25.5683 21.4742 25.4384 21.4708 25.3086C21.4639 24.9499 21.4537 24.5809 21.6792 24.3554C21.9047 24.13 22.2736 24.1402 22.6323 24.147C22.7622 24.1539 22.892 24.1505 23.0218 24.1402C22.9672 24.0241 22.9022 23.9147 22.8339 23.8054C22.646 23.4979 22.4547 23.1768 22.5367 22.8693C22.6187 22.5687 22.9364 22.391 23.2473 22.2202C23.3703 22.1587 23.4864 22.087 23.5992 22.0084C23.4864 21.9298 23.3703 21.8581 23.2473 21.7966C22.9364 21.6258 22.6187 21.4515 22.5367 21.1475C22.4547 20.8366 22.646 20.5189 22.8339 20.2114C22.9022 20.1021 22.9637 19.9927 23.0218 19.8766C22.892 19.8663 22.7622 19.8663 22.6323 19.8698C22.2736 19.8766 21.9047 19.8868 21.6792 19.6614C21.4537 19.4359 21.4639 19.0669 21.4708 18.7082C21.4776 18.5784 21.4742 18.4485 21.4639 18.3187C21.3478 18.3734 21.2385 18.4383 21.1291 18.5066C20.8217 18.6945 20.5005 18.8858 20.1931 18.8038C19.889 18.7219 19.7148 18.4041 19.5439 18.0932C19.479 17.9737 19.4107 17.8541 19.3321 17.7448C19.2536 17.8575 19.1818 17.9737 19.1203 18.0967C18.9495 18.4075 18.7753 18.7253 18.4712 18.8073C18.1603 18.8893 17.8426 18.6979 17.5351 18.51C17.4258 18.4417 17.3165 18.3802 17.2003 18.3221C17.1901 18.452 17.1901 18.5818 17.1935 18.7116C17.2003 19.0703 17.2106 19.4393 16.9851 19.6648C16.7596 19.8903 16.3906 19.8834 16.0319 19.8732C15.9021 19.8663 15.7723 19.8698 15.6425 19.88C15.6971 19.9962 15.762 20.1055 15.8304 20.2148C16.0183 20.5223 16.2096 20.8434 16.1276 21.1509C16.0456 21.4515 15.7279 21.6292 15.417 21.8C15.294 21.8615 15.1778 21.9332 15.0651 22.0118C15.1778 22.0904 15.294 22.1621 15.417 22.2236C15.7279 22.3945 16.0456 22.5687 16.1276 22.8727C16.2096 23.1836 16.0183 23.5014 15.8304 23.8088C15.762 23.9182 15.7005 24.0275 15.6425 24.1436C15.7723 24.1539 15.9021 24.1539 16.0319 24.1505C16.3906 24.1436 16.7596 24.1334 16.9851 24.3589C17.2106 24.5843 17.2037 24.9533 17.1935 25.312C17.1867 25.4419 17.1901 25.5717 17.2003 25.7015C17.3165 25.6468 17.4258 25.5819 17.5351 25.5136C17.7914 25.353 18.0578 25.1925 18.3175 25.1925Z" fill="#86888C"/>
</svg>
