<svg width="40" height="40" viewBox="0 0 40 40" fill="none" xmlns="http://www.w3.org/2000/svg">
<path fill-rule="evenodd" clip-rule="evenodd" d="M35.7565 36.7462C36.238 36.2595 36.5043 35.6192 36.5043 34.9328L36.4685 24.0222C36.5146 23.1616 36.3045 22.4855 35.864 22.0142C35.4184 21.5378 34.7576 21.2869 33.9483 21.2817L6.05696 21.2869C5.37569 21.2869 4.73027 21.5532 4.24877 22.0398C3.76214 22.5265 3.5009 23.1668 3.5009 23.8532L3.53676 34.7638C3.49065 35.6244 3.70067 36.3005 4.1412 36.7718C4.58684 37.243 5.25275 37.4991 6.06208 37.5043L33.9534 37.494C34.6295 37.494 35.2698 37.2277 35.7565 36.7462ZM20 4.49573C19.0627 4.54696 18.3404 5.34604 18.3916 6.28344C18.4377 7.15424 19.1292 7.85088 20 7.89186C20.9374 7.84576 21.6597 7.04667 21.6085 6.10928C21.5675 5.23847 20.8708 4.54183 20 4.49573ZM20 9.38759C19.3905 9.38759 18.827 9.20831 18.3404 8.90609L7.47074 19.786L32.5601 19.7809L21.6597 8.91121C21.1731 9.20831 20.6096 9.38759 20 9.38759ZM37.9642 24.0581L38 34.9277C38.0052 36.0034 37.58 37.0381 36.8168 37.8014C36.0587 38.5646 35.024 38.9949 33.9483 38.9949L6.04672 39C4.83272 38.9898 3.76726 38.5595 3.04501 37.7911C2.31763 37.0176 1.96931 35.9573 2.0359 34.7228L2.00005 23.8532C1.99492 22.7775 2.42008 21.7427 3.18331 20.9795C3.75702 20.4007 4.49976 20.0114 5.29885 19.8628C5.31422 19.8423 5.31934 19.8167 5.33983 19.8014L17.2852 7.85088C16.9778 7.35401 16.8088 6.78031 16.8088 6.19636C16.8088 4.43426 18.238 3 20 3C21.757 3 23.1913 4.43426 23.1913 6.19636C23.1913 6.80592 23.012 7.36938 22.7098 7.85088L34.7371 19.8423C34.7422 19.8475 34.7422 19.8526 34.7473 19.8577C35.6284 20.0063 36.3916 20.3956 36.95 20.9898C37.6825 21.7632 38.0308 22.8236 37.9642 24.0581ZM10.8515 31.173C11.2613 31.173 12.0296 31.173 12.0296 29.0933C12.0296 26.9983 11.2664 26.9983 10.8515 26.9983C10.4366 26.9983 9.66823 26.9983 9.66823 29.0933C9.66823 31.173 10.4366 31.173 10.8515 31.173ZM10.8515 25.6306C11.8094 25.6306 13.4076 26.0814 13.4076 29.0933C13.4076 31.9516 12.0194 32.5458 10.8515 32.5458C9.6836 32.5458 8.28519 31.9465 8.28519 29.0933C8.28519 26.0814 9.88849 25.6306 10.8515 25.6306ZM17.5567 28.7194C17.6591 28.6016 17.7206 28.4377 17.7206 27.9972C17.7206 27.654 17.654 27.3773 17.5311 27.239C17.4901 27.1929 17.3415 27.0802 16.8703 27.0802H16.1583V28.8782H16.9727C17.4184 28.8731 17.4901 28.7962 17.5567 28.7194ZM16.9061 25.7382C17.654 25.7382 18.1867 25.9226 18.5453 26.3068C18.9192 26.6961 19.1036 27.2595 19.1036 27.9767C19.1036 28.6887 18.9346 29.2214 18.5863 29.6107C18.238 30.0154 17.7411 30.2151 17.0752 30.2151H16.1583V31.8748C16.1583 32.1821 15.9073 32.4382 15.5948 32.4382H15.3489C15.0416 32.4382 14.7855 32.1873 14.7855 31.8748V26.2965C14.7855 25.9892 15.0365 25.7331 15.3489 25.7331C15.3592 25.7382 16.9061 25.7382 16.9061 25.7382ZM23.7138 31.0911C24.0211 31.0911 24.2772 31.3421 24.2772 31.6545V31.8748C24.2772 32.1821 24.0262 32.4382 23.7138 32.4382H20.9682C20.6608 32.4382 20.4047 32.1873 20.4047 31.8748V26.2965C20.4047 25.9892 20.6557 25.7331 20.9682 25.7331H23.6318C23.9391 25.7331 24.1953 25.9841 24.1953 26.2914C24.1953 26.3324 24.1901 26.3734 24.1799 26.4143L24.1287 26.6346C24.0723 26.8907 23.8418 27.0751 23.5806 27.0751H21.7724V28.366H23.1913C23.4986 28.366 23.7547 28.617 23.7547 28.9294V29.1497C23.7547 29.457 23.5037 29.7131 23.1913 29.7131H21.7724V31.0911H23.7138ZM29.9477 25.7382C30.2602 25.7382 30.5111 25.9892 30.5111 26.3017V31.8799C30.5111 32.1873 30.2602 32.4434 29.9477 32.4434H29.7633C29.5738 32.4434 29.3996 32.3512 29.2971 32.1924L26.9716 28.6631V31.885C26.9716 32.1924 26.7206 32.4485 26.4081 32.4485H26.1776C25.8703 32.4485 25.6142 32.1975 25.6142 31.885V26.2965C25.6142 25.9892 25.8652 25.7331 26.1776 25.7331H26.3569C26.5464 25.7331 26.7206 25.8253 26.823 25.9841L29.164 29.5134V26.2914C29.164 25.9841 29.415 25.7279 29.7274 25.7279C29.7223 25.7382 29.9477 25.7382 29.9477 25.7382Z" fill="#86888C"/>
</svg>
