<svg width="24" height="24" viewBox="0 0 24 24" fill="none" xmlns="http://www.w3.org/2000/svg">
<path d="M9.11302 17.8499C8.94771 17.8499 8.81375 17.716 8.81375 17.5507C8.81375 17.4737 8.8451 17.3996 8.8964 17.3426C9.59756 16.6158 10.6407 16.2481 12.0031 16.2481C13.3599 16.2481 14.403 16.6129 15.1013 17.3369C15.2153 17.4566 15.2125 17.6447 15.0956 17.7616C14.9759 17.8756 14.7878 17.8727 14.671 17.7559C14.0867 17.1545 13.1888 16.8495 12.0031 16.8495C10.8175 16.8495 9.91108 17.1573 9.32964 17.7616C9.27263 17.8157 9.19283 17.8499 9.11302 17.8499ZM7.61666 15.4899C7.45134 15.4899 7.31738 15.356 7.31738 15.1907C7.31738 15.1137 7.34874 15.0396 7.40004 14.9826C8.43182 13.9109 9.98234 13.3694 12.0031 13.3694C14.0183 13.3694 15.5631 13.9081 16.5949 14.9741C16.7089 15.0938 16.706 15.2819 16.5892 15.3987C16.4694 15.5128 16.2813 15.5099 16.1645 15.393C15.2495 14.4496 13.8472 13.9708 12.0031 13.9708C10.1505 13.9708 8.74819 14.4525 7.83327 15.4016C7.77627 15.4586 7.69931 15.4899 7.61666 15.4899Z" fill="#86888C"/>
<path d="M15.7681 22H8.20935C7.19467 22 6.40231 21.7321 5.85507 21.2048C5.28787 20.6576 5 19.8424 5 18.7878L5.00285 12.885C5 12.5601 5 12.4318 5 12.4318V12.429C5 11.3716 5.28787 10.5593 5.85507 10.012C6.40231 9.48472 7.19467 9.2168 8.20935 9.2168H15.7681C16.7828 9.2168 17.5752 9.48472 18.1253 10.012C18.6953 10.5564 18.9889 11.3687 19.0031 12.4261V18.7907C18.9889 19.8481 18.6953 20.6604 18.1253 21.2048C17.5752 21.735 16.7828 22 15.7681 22ZM5.5957 12.429C5.5957 12.4461 5.59855 12.5772 5.59855 12.885V12.8879L5.5957 18.7935C5.5957 19.68 5.82086 20.3498 6.26835 20.7801C6.69873 21.1963 7.35143 21.4072 8.2065 21.4072H15.7653C17.5182 21.4072 18.3789 20.5521 18.4017 18.7935V12.4375C18.3789 10.679 17.5182 9.82389 15.7653 9.82389H8.20935C7.35428 9.82389 6.70158 10.0348 6.2712 10.4509C5.82371 10.8728 5.5957 11.5397 5.5957 12.429Z" fill="#86888C"/>
<path d="M7.57123 9.7982C7.41447 9.7982 7.28906 9.67279 7.28906 9.51603V6.40359C7.28906 3.9752 9.35832 2 11.9036 2H12.0974C14.6398 2 16.7119 3.9752 16.7119 6.40074C16.7119 6.5575 16.5865 6.68291 16.4297 6.68291C16.273 6.68291 16.1475 6.5575 16.1475 6.40074C16.1475 4.28303 14.332 2.56434 12.0974 2.56434H11.9036C9.67185 2.56434 7.85341 4.28588 7.85341 6.40074V9.51318C7.85341 9.67279 7.728 9.7982 7.57123 9.7982ZM12.0005 18.6738C11.7098 18.6738 11.5188 18.8249 11.5188 19.1526C11.5188 19.3094 11.5615 19.4262 11.6413 19.5032C11.7269 19.5887 11.8494 19.6286 12.0005 19.6286C12.1515 19.6286 12.2769 19.5887 12.3596 19.5032C12.4366 19.4234 12.4822 19.3094 12.4822 19.1526C12.4822 18.8249 12.2912 18.6738 12.0005 18.6738Z" fill="#86888C"/>
</svg>
