<svg width="20" height="20" viewBox="0 0 20 20" fill="none" xmlns="http://www.w3.org/2000/svg">
<path fill-rule="evenodd" clip-rule="evenodd" d="M17.3351 16.9845C17.3351 17.178 17.178 17.3351 16.9822 17.3374H7.6855C7.49196 17.3374 7.33485 17.1803 7.33485 16.9845V13.4803C7.33485 13.4302 7.32119 13.3801 7.29842 13.3346H12.3168C12.8792 13.3346 13.3346 12.8792 13.3346 12.3168V7.31436C13.3664 7.32574 13.4006 7.33257 13.4348 7.33485H16.9845C17.178 7.33485 17.3374 7.49196 17.3374 7.68778V16.9845H17.3351ZM2.66714 12.3168V3.01779C2.66714 2.82425 2.82425 2.66486 3.01779 2.66486H12.3168C12.5103 2.66486 12.6697 2.82197 12.6697 3.01779V12.3145C12.6697 12.508 12.5126 12.6651 12.3168 12.6674H3.01779C2.82425 12.6674 2.66714 12.5103 2.66714 12.3168ZM16.9845 6.66771H13.4348C13.4006 6.66999 13.3664 6.67682 13.3346 6.6882V3.01779C13.3346 2.45539 12.8792 2 12.3168 2H3.01779C2.45539 2 2 2.45766 2 3.01779V12.3145C2 12.8769 2.45539 13.3323 3.01779 13.3323H6.70414C6.68137 13.3778 6.66771 13.4279 6.66771 13.478V16.9822C6.66771 17.5446 7.1231 18 7.6855 18H16.9845C17.5469 18 18.0023 17.5446 18.0023 16.9822V7.6855C18.0023 7.1231 17.5469 6.66771 16.9845 6.66771Z" fill="#86888C"/>
</svg>
