<svg width="24" height="24" viewBox="0 0 24 24" fill="none" xmlns="http://www.w3.org/2000/svg">
<path fill-rule="evenodd" clip-rule="evenodd" d="M6.32293 11.3415C6.84976 11.3415 7.18927 11.6224 7.18927 12.2283C7.18927 12.521 7.11024 12.7346 6.96976 12.881C6.81756 13.039 6.59512 13.1151 6.32 13.1151C6.0478 13.1151 5.82244 13.039 5.67317 12.881C5.53268 12.7346 5.45366 12.518 5.45366 12.2283C5.45366 11.6224 5.79902 11.3415 6.32293 11.3415ZM21.7122 14.441V9.50927C21.7034 9.07317 21.3727 8.70732 20.9629 8.67512H19.1219V15.278H20.9161C21.3551 15.278 21.7122 14.9034 21.7122 14.441ZM18.2761 15.9366V15.72H18.2615V8.06049C18.2615 7.41073 17.758 6.88683 17.1376 6.88683H7.4761C4.41756 6.98634 2.85756 8.70439 2.85756 11.9912C2.85756 15.2751 4.41463 16.999 7.49073 17.1132H17.1522C17.7727 17.1132 18.2761 16.5863 18.2761 15.9366ZM20.9015 7.78537C21.8029 7.78537 22.5522 8.5522 22.5698 9.50049V14.441C22.5698 15.3893 21.8263 16.1649 20.9161 16.1649H19.1249C19.0166 17.1951 18.1737 18 17.1522 18H7.4761C3.94049 17.8683 2 15.7346 2 11.9912C2 8.24195 3.94049 6.11415 7.46439 6H17.1405C18.1444 6 18.9756 6.77854 19.1044 7.78829H20.0995L20.0966 7.78537H20.9015Z" fill="#86888C"/>
</svg>
