<svg width="20" height="20" viewBox="0 0 20 20" fill="none" xmlns="http://www.w3.org/2000/svg">
<path fill-rule="evenodd" clip-rule="evenodd" d="M9.42242 2.95859C9.21749 3.15668 9.11275 3.4709 9.11275 3.89213C9.11275 4.72321 9.50211 5.11257 10.3377 5.11257C11.1779 5.11257 11.5696 4.72549 11.5696 3.89213C11.5696 3.47317 11.4648 3.15668 11.2576 2.95859C11.0573 2.76505 10.7476 2.66942 10.3377 2.66942C9.93017 2.66942 9.62051 2.76505 9.42242 2.95859ZM10.3377 5.77971C9.13097 5.77971 8.43878 5.09207 8.43878 3.89213C8.43878 3.28419 8.61183 2.80831 8.95337 2.47816C9.28352 2.15939 9.74802 2 10.3377 2C10.9275 2 11.3942 2.16166 11.7244 2.47588C12.0682 2.80603 12.2413 3.28191 12.2413 3.89213C12.2413 5.09207 11.5468 5.77971 10.3377 5.77971ZM13.9558 12.0686C14.0059 11.9661 14.015 11.85 13.9786 11.743L12.6921 8.10218C12.469 7.48513 11.8815 7.073 11.2257 7.073H9.45429C8.83497 7.073 8.27257 7.44187 8.02666 8.01338C8.013 8.0407 8.00161 8.06802 7.99023 8.09535L6.70148 11.7453C6.62634 11.9639 6.74247 12.2007 6.96105 12.2781C7.06807 12.3168 7.18192 12.3122 7.2821 12.2644C7.38456 12.2166 7.46426 12.1301 7.50296 12.0231L8.17238 10.0353C8.24069 9.86225 8.43423 9.77572 8.60727 9.84403C8.76666 9.90551 8.85318 10.0763 8.8122 10.2425L8.50709 11.1897L7.8946 13.4621H8.29306C8.47749 13.4621 8.62777 13.6124 8.63004 13.7945L8.64598 16.9093C8.64598 17.1461 8.83497 17.3351 9.06721 17.3351C9.30174 17.3351 9.49072 17.1439 9.48845 16.9093L9.47251 13.7968C9.47251 13.6124 9.62051 13.4621 9.80494 13.4598H10.8728C11.0573 13.4598 11.2075 13.6101 11.2098 13.7945L11.1961 16.9093C11.1961 17.1439 11.3851 17.3351 11.6174 17.3351C11.8519 17.3329 12.0409 17.1439 12.0386 16.9093L12.0545 13.7945C12.0568 13.6101 12.2071 13.4621 12.3915 13.4621H12.7923L12.1707 11.176L11.8678 10.2402C11.8109 10.0649 11.9088 9.87591 12.0841 9.82126C12.2595 9.76434 12.4485 9.85997 12.5077 10.0353L13.1794 12.0253C13.259 12.2416 13.4958 12.3532 13.7144 12.2781C13.8192 12.2439 13.9057 12.1688 13.9558 12.0686ZM14.6138 11.5221C14.7095 11.8045 14.689 12.1005 14.5569 12.3646C14.4271 12.6242 14.2063 12.8177 13.933 12.9088C13.744 12.9771 13.5391 12.9907 13.3433 12.9452L13.5482 13.7057C13.596 13.8833 13.4913 14.0677 13.3137 14.1156C13.2841 14.1247 13.2545 14.1269 13.2226 14.1269H12.7171L12.7035 16.9071C12.7035 17.5082 12.2117 18 11.6083 18C11.0049 18 10.5131 17.5082 10.5131 16.9048L10.5267 14.1247H10.1374L10.151 16.9025C10.151 17.5082 9.66149 18 9.05811 18C8.45472 18 7.96518 17.5082 7.96518 16.9048L7.95152 14.1247H7.44604C7.25933 14.1247 7.11133 13.9721 7.11133 13.7877C7.11133 13.7581 7.11588 13.7308 7.12272 13.7034L7.32764 12.9429C7.12955 12.9862 6.92462 12.9725 6.73336 12.9042C6.46241 12.8131 6.24154 12.6173 6.11631 12.3623C5.98425 12.1027 5.96376 11.7976 6.05939 11.5221L7.34813 7.87676C7.36407 7.82895 7.38229 7.78341 7.40961 7.72876C7.76481 6.92045 8.56401 6.39903 9.44746 6.40131H11.2189C12.1092 6.40131 12.913 6.92728 13.2636 7.7447C13.2841 7.78113 13.3023 7.82895 13.3205 7.88587L14.6138 11.5221Z" fill="#86888C"/>
</svg>
