<svg width="28" height="28" viewBox="0 0 28 28" fill="none" xmlns="http://www.w3.org/2000/svg">
<path d="M23.9936 26H3.34164C3.15374 26 3 25.8463 3 25.6584V22.9936C3 21.1727 3.56712 19.6216 4.63644 18.5079C5.80484 17.2985 7.55061 16.6562 9.68242 16.6562H17.6528C19.7846 16.6562 21.5304 17.2985 22.6988 18.5113C23.7715 19.6251 24.3352 21.1761 24.3352 22.997V25.6618C24.3352 25.8463 24.1815 26 23.9936 26ZM3.68327 25.3167H23.652V22.9936C23.652 21.3537 23.1532 19.9667 22.2068 18.9828C21.1546 17.893 19.6241 17.3395 17.6528 17.3395H9.68242C7.71117 17.3395 6.18064 17.893 5.1284 18.9828C4.18206 19.9667 3.68327 21.3503 3.68327 22.9936V25.3167ZM13.6659 14.0085C9.74392 14.0085 7.67018 11.9348 7.67018 8.01281C7.67018 6.02107 8.20313 4.49737 9.25537 3.47929C10.27 2.49879 11.7527 2 13.6659 2C15.5791 2 17.0652 2.49879 18.0867 3.47929C19.1458 4.49737 19.6787 6.02448 19.6787 8.01281C19.6787 11.9348 17.6016 14.0085 13.6659 14.0085ZM13.6659 2.68327C11.9372 2.68327 10.6117 3.11715 9.73025 3.97125C8.81808 4.85609 8.35345 6.2158 8.35345 8.01281C8.35345 9.80982 8.81808 11.1661 9.73025 12.0441C10.6117 12.8948 11.9372 13.3219 13.6659 13.3219C15.3946 13.3219 16.727 12.8914 17.6118 12.0407C18.5308 11.1593 18.9954 9.80299 18.9954 8.0094C18.9954 6.2158 18.5308 4.85267 17.6118 3.96783C16.7236 3.11715 15.398 2.68327 13.6659 2.68327Z" fill="#86888C"/>
</svg>
