<svg width="28" height="28" viewBox="0 0 28 28" fill="none" xmlns="http://www.w3.org/2000/svg">
<path fill-rule="evenodd" clip-rule="evenodd" d="M11.717 5.78221C11.1154 6.37089 10.8113 7.28949 10.8113 8.51213C10.8113 9.73154 11.1154 10.6501 11.717 11.2356C12.296 11.8049 13.179 12.0927 14.337 12.0927C15.4949 12.0927 16.3779 11.8049 16.9634 11.2356C17.5682 10.6469 17.8723 9.73154 17.8723 8.51213C17.8723 7.29272 17.5682 6.37412 16.9634 5.78221C16.3779 5.2097 15.4949 4.92183 14.3402 4.92183C13.179 4.92183 12.296 5.2097 11.717 5.78221ZM14.337 13.0113C12.9364 13.0113 11.8432 12.6361 11.0895 11.8987C10.3068 11.1321 9.90892 9.99353 9.90892 8.51213C9.90892 7.03396 10.3068 5.88895 11.0895 5.12237C11.8464 4.37844 12.9396 4 14.337 4C15.7343 4 16.8308 4.37844 17.5909 5.11914C18.3801 5.88895 18.7812 7.03073 18.7812 8.51213C18.7812 9.99353 18.3801 11.1321 17.5909 11.8987C16.8308 12.6394 15.7375 13.0113 14.337 13.0113ZM6.59032 11.4911C6.34773 11.7272 6.22482 12.1251 6.22482 12.6685C6.22482 13.2119 6.34773 13.6065 6.58709 13.8426C6.81997 14.0722 7.20164 14.1887 7.71593 14.1887C8.23345 14.1887 8.61512 14.0722 8.85124 13.8426C9.09382 13.6065 9.21673 13.2119 9.21673 12.6717C9.21673 12.1283 9.09382 11.7337 8.85124 11.4976C8.61512 11.2679 8.23345 11.1482 7.71593 11.1482C7.20488 11.145 6.82644 11.2615 6.59032 11.4911ZM7.71916 15.1073C6.96229 15.1073 6.37037 14.9035 5.95959 14.5057C5.53587 14.0884 5.31916 13.4706 5.31916 12.6685C5.31916 11.8663 5.53587 11.2485 5.95959 10.8313C6.37037 10.4302 6.96229 10.2232 7.71916 10.2232C8.47927 10.2232 9.07118 10.427 9.48196 10.828C9.90892 11.2453 10.1256 11.8663 10.1256 12.6652C10.1256 13.4674 9.90892 14.0852 9.48196 14.5024C9.07442 14.9035 8.47927 15.1073 7.71916 15.1073ZM19.8809 11.4749C19.6383 11.7111 19.5154 12.1089 19.5154 12.6523C19.5154 13.1925 19.6383 13.5871 19.8809 13.8232C20.117 14.0528 20.4987 14.1693 21.0162 14.1693C21.5337 14.1693 21.9122 14.0528 22.1483 13.8232C22.3876 13.5871 22.5105 13.1925 22.5105 12.6523C22.5105 12.1089 22.3876 11.7143 22.145 11.4749C21.9122 11.2453 21.5305 11.1288 21.0162 11.1288C20.4987 11.1288 20.117 11.2453 19.8809 11.4749ZM19.2534 14.4895C18.8264 14.0722 18.6097 13.4544 18.6097 12.6523C18.6097 11.8501 18.8264 11.2323 19.2534 10.8151C19.6642 10.4108 20.2561 10.207 21.0162 10.207C21.7763 10.207 22.3682 10.4108 22.779 10.8119C23.2027 11.2291 23.4194 11.8501 23.4194 12.6523C23.4194 13.4512 23.206 14.069 22.779 14.4863C22.3682 14.8873 21.7763 15.0879 21.0162 15.0879C20.2561 15.0911 19.6642 14.8873 19.2534 14.4895ZM24.8264 19.503V18.869C24.8264 18.2156 24.6356 17.6625 24.2636 17.2744C23.8561 16.841 23.2383 16.621 22.4782 16.621H21.0841C21.7343 17.3747 22.1159 18.3612 22.2 19.503H24.8264ZM21.3105 21.0749V19.9881C21.3105 18.8011 20.958 17.7984 20.2884 17.0868C19.5542 16.3137 18.4286 15.8997 17.0345 15.8997H11.6329C10.2388 15.8997 9.12293 16.3137 8.3887 17.0868C7.71916 17.7951 7.3666 18.7978 7.3666 19.9881V21.0749H21.3105ZM6.48035 19.5224C6.56121 18.3806 6.93641 17.3941 7.58655 16.6404H6.25393C5.49382 16.6404 4.87603 16.8636 4.46849 17.2938C4.10622 17.6787 3.90568 18.2318 3.90568 18.8852V19.5224H6.48035ZM24.917 16.6404C25.4507 17.2032 25.7321 17.9763 25.7321 18.869V19.6873C25.7353 20.0916 25.4119 20.4183 25.0076 20.4248H22.2162V21.4922C22.2162 21.7736 21.9898 22 21.7084 22H6.96876C6.69059 22 6.46417 21.7736 6.46094 21.4922V20.441H3.73426C3.32671 20.4377 2.99679 20.1078 3.00002 19.7003V18.8852C3.00002 17.9925 3.28143 17.2194 3.81512 16.6469C4.39733 16.042 5.2383 15.7186 6.25393 15.7186H8.67334C9.47873 15.2302 10.4847 14.9811 11.6361 14.9811H17.0378C18.1795 14.9811 19.1758 15.2205 19.9812 15.6992H22.4814C23.4938 15.7024 24.3348 16.0226 24.917 16.6404Z" fill="#86888C"/>
</svg>
