<svg width="20" height="20" viewBox="0 0 20 20" fill="none" xmlns="http://www.w3.org/2000/svg">
<path fill-rule="evenodd" clip-rule="evenodd" d="M9.67805 5.0177C9.47687 5.01521 9.31295 4.85626 9.31543 4.66004L9.32785 2.35269C9.33033 2.15647 9.49177 2 9.69295 2H9.69544C9.89662 2.00248 10.0605 2.15896 10.0581 2.35765L10.0456 4.66501C10.0432 4.85874 9.87923 5.0177 9.67805 5.0177ZM7.4303 5.60385L6.40205 4.5905C6.26048 4.45141 6.26048 4.2254 6.40453 4.08631C6.54859 3.94722 6.77957 3.94971 6.92114 4.08879L7.94939 5.10214C8.09097 5.24123 8.08848 5.46725 7.94691 5.60633C7.87488 5.67339 7.78299 5.70817 7.69109 5.70817C7.59671 5.70817 7.50233 5.67339 7.4303 5.60385ZM11.6774 5.70817C11.5855 5.70817 11.4912 5.67339 11.4216 5.60385C11.2776 5.46725 11.2776 5.24123 11.4191 5.09966L12.4474 4.08879C12.5889 3.94722 12.8199 3.94722 12.964 4.08631C13.108 4.22291 13.108 4.44893 12.9665 4.5905L11.9382 5.60385C11.8662 5.67339 11.7718 5.70817 11.6774 5.70817ZM3.63521 7.33002C3.42161 7.5312 3.31481 7.85905 3.31481 8.3086C3.31481 8.75815 3.42161 9.086 3.63272 9.28469C3.83887 9.47842 4.17169 9.57529 4.62124 9.57529C5.07079 9.57529 5.40609 9.47842 5.61472 9.28221C5.82831 9.086 5.93511 8.75815 5.93511 8.3086C5.93511 7.85905 5.82583 7.52872 5.61472 7.33002C5.40609 7.13629 5.07327 7.03446 4.62372 7.03446C4.17417 7.03694 3.84135 7.13629 3.63521 7.33002ZM4.62372 10.2881C3.97796 10.2881 3.47625 10.1242 3.12853 9.79882C2.76839 9.46104 2.5846 8.96181 2.5846 8.31108C2.5846 7.66035 2.76839 7.15865 3.12853 6.81838C3.47625 6.49301 3.97796 6.32661 4.62372 6.32661C5.267 6.32661 5.77119 6.49301 6.12139 6.81838C6.48401 7.15865 6.66781 7.66035 6.66781 8.31108C6.66781 8.96181 6.48401 9.46104 6.12139 9.8013C5.77119 10.1242 5.267 10.2881 4.62372 10.2881ZM17.6855 17.2897L17.7252 13.358C17.7252 12.9159 17.5936 12.5483 17.3452 12.2949C16.9975 11.9423 16.4635 11.8677 16.0785 11.8677H12.9218C12.7777 11.8677 12.5517 11.8131 12.4499 11.746C12.3133 11.6566 12.1742 11.4554 12.1742 11.4554L10.0928 8.72835V11.3114L11.1981 12.7246V12.3421C11.1981 12.1459 11.362 11.987 11.5632 11.987C11.7644 11.987 11.9283 12.1459 11.9283 12.3421V13.7678C11.9283 13.7752 11.9333 13.7802 11.9333 13.7901V13.8944C11.9333 13.9541 11.9357 14.0137 11.9357 14.0782L11.9308 14.5079V15.1487H11.9233L11.896 17.2897H15.4899V14.4856C15.4899 14.2894 15.6538 14.1304 15.855 14.1304C16.0562 14.1304 16.2201 14.2894 16.2201 14.4856V17.2872H17.6855V17.2897ZM9.36014 11.1971V8.72835L7.2788 11.4554C7.2788 11.4554 7.13971 11.6566 7.0031 11.746C6.90127 11.8131 6.67277 11.8677 6.5312 11.8677H3.37939C2.99441 11.8677 2.46042 11.9423 2.1127 12.2949C1.86433 12.5483 1.73269 12.9159 1.73269 13.358L1.77243 17.2897H3.2403V14.488C3.2403 14.2918 3.40422 14.1329 3.6054 14.1329C3.80658 14.1329 3.97051 14.2918 3.97051 14.488V17.2897H7.56194L7.5371 15.1487H7.52965V14.5054L7.52468 14.0782C7.52468 14.0161 7.52717 13.9565 7.52717 13.8969V13.7926C7.52717 13.7852 7.52965 13.7777 7.52965 13.7703V12.3446C7.52965 12.1484 7.69357 11.9894 7.89475 11.9894C8.09593 11.9894 8.25986 12.1484 8.25986 12.3446V12.7271L9.3651 11.3139V11.1971H9.36014ZM17.8693 11.8032C18.2518 12.1906 18.4554 12.7271 18.4554 13.358L18.4107 17.774C18.4107 17.8982 18.3089 18 18.1798 18H11.3918C11.2651 18 11.1608 17.8982 11.1608 17.774L11.2006 14.5104V13.8969L9.72772 12.0143L8.25737 13.8944V14.5054L8.29711 17.7715C8.29711 17.8957 8.1928 17.9975 8.06613 17.9975H1.27569C1.14902 17.9975 1.04222 17.8957 1.04222 17.7715L1 13.3555C1 12.7246 1.20118 12.1881 1.58367 11.8007C2.00093 11.3785 2.62186 11.1549 3.3769 11.1549H5.86557C6.10897 11.1549 6.34492 11.1375 6.55107 11.0357C6.67774 10.9736 6.93108 10.7178 6.93108 10.7178L9.42968 7.44427L9.43216 7.4393C9.44955 7.41695 9.46942 7.39957 9.48929 7.38218C9.52406 7.35237 9.56132 7.33002 9.60851 7.31264C9.61099 7.31264 9.62838 7.30518 9.63086 7.30518C9.6557 7.29773 9.69295 7.29773 9.73269 7.29773C9.76746 7.29773 9.80472 7.3027 9.83701 7.31264L9.84694 7.31512C9.84694 7.31512 9.91897 7.34244 9.94629 7.36728C9.97361 7.38715 9.99845 7.4095 10.0183 7.43434L10.0208 7.4393C10.0233 7.44179 10.0233 7.44179 10.0258 7.44179L10.0283 7.44676V7.44924L12.5244 10.7203C12.5244 10.7203 12.7802 10.9761 12.9044 11.0382C13.1105 11.14 13.349 11.1574 13.5899 11.1574H16.0761C16.8336 11.1574 17.4545 11.3809 17.8693 11.8032ZM13.8407 7.33499C13.6271 7.53617 13.5179 7.86402 13.5179 8.31357C13.5179 8.76063 13.6271 9.09097 13.8383 9.28718C14.0469 9.48091 14.3797 9.57777 14.8317 9.57777C15.2838 9.57777 15.6141 9.48091 15.8202 9.28718C16.0314 9.08848 16.1382 8.76063 16.1382 8.31108C16.1382 7.86153 16.0314 7.5312 15.8178 7.33251C15.6116 7.13878 15.2788 7.03943 14.8292 7.03943C14.3822 7.03943 14.0494 7.13878 13.8407 7.33499ZM13.3365 9.8013C12.9739 9.46352 12.7876 8.96181 12.7876 8.31108C12.7876 7.66035 12.9714 7.15865 13.3365 6.81838C13.6843 6.49301 14.1885 6.32661 14.8317 6.32661C15.475 6.32661 15.9792 6.49053 16.3269 6.81838C16.6871 7.15616 16.8708 7.65787 16.8708 8.3086C16.8708 8.95933 16.6871 9.46104 16.3269 9.79882C15.9792 10.1242 15.4775 10.2881 14.8317 10.2881C14.1885 10.2906 13.6843 10.1267 13.3365 9.8013Z" fill="#86888C"/>
</svg>
