<svg width="20" height="20" viewBox="0 0 20 20" fill="none" xmlns="http://www.w3.org/2000/svg">
<path fill-rule="evenodd" clip-rule="evenodd" d="M13.9186 14.291C13.4633 14.6233 12.8896 14.7986 12.3433 14.8851C13.4884 14.3001 14.0507 13.5352 14.0507 12.5722C14.0507 11.632 13.131 11.0788 12.4617 10.7988C12.6415 10.6576 12.8077 10.4983 12.9602 10.3253C13.0353 10.3685 13.1082 10.4095 13.1719 10.4482C13.2903 10.5188 13.3973 10.5825 13.5089 10.6394C14.1212 10.9513 14.5766 11.7117 14.6448 12.5267C14.7018 13.2688 14.44 13.9108 13.9186 14.291ZM10.2853 14.917C10.2238 14.9352 10.1669 14.9694 10.1237 15.0149V11.6866C10.6837 11.6479 11.2323 11.4999 11.7377 11.2518C12.3547 11.4271 13.3654 11.887 13.3654 12.5722C13.3654 13.6217 12.3592 14.3866 10.2853 14.917ZM11.0138 17.4462H8.66441C8.76003 16.8657 9.13338 16.6039 9.8391 16.6039C10.5448 16.6039 10.9182 16.8657 11.0138 17.4462ZM6.15113 7.81197V7.47505H13.1856V7.88027C13.1514 9.94735 11.4759 11.031 9.83682 11.031C8.06796 11.0333 6.16934 10.1864 6.15113 7.81197ZM4.7374 5.67204C4.89904 4.78874 5.50687 3.97602 6.40838 3.43876C8.70539 2.07057 10.8271 3.25209 10.9273 3.309C10.9364 3.31355 11.7195 3.75292 11.8379 4.44726C11.9016 4.82972 11.7537 5.24177 11.3985 5.67204C11.1777 5.56504 10.7816 5.22584 10.7247 4.16725C10.7178 4.06481 10.6655 3.97147 10.5835 3.91456C10.513 3.86447 8.83971 2.72849 6.92059 3.8713C6.10104 4.35848 5.57972 5.03233 5.4454 5.76765C5.38394 6.10458 5.33385 6.59403 5.47955 7.08804C5.47728 7.10625 5.46817 7.12446 5.46817 7.14267V7.81425C5.47045 7.99409 5.48411 8.16711 5.50459 8.33557C4.84212 7.57521 4.56211 6.63956 4.7374 5.67204ZM15.3233 12.4743C15.2367 11.4225 14.6471 10.471 13.8207 10.0498C13.7229 9.99971 13.6295 9.9428 13.5248 9.88133C13.4724 9.84719 13.4132 9.81532 13.3541 9.77889C13.6637 9.25301 13.8572 8.62242 13.8663 7.89165L13.8686 7.14267C13.8686 6.95827 13.716 6.8103 13.5271 6.8103H6.10332C6.04641 6.55533 6.04868 6.2571 6.11698 5.88603C6.2513 5.15071 6.89783 4.66581 7.27573 4.44271C8.54376 3.68463 9.67747 4.17408 10.0531 4.38125C10.2261 6.27987 11.4349 6.38459 11.4873 6.38687C11.5875 6.3937 11.6945 6.35499 11.765 6.27987C12.3683 5.63334 12.621 4.98225 12.5095 4.34027C12.3387 3.31583 11.3006 2.7467 11.2642 2.72849C11.1618 2.6693 8.70767 1.28745 6.04868 2.86963C4.98099 3.50478 4.25706 4.48597 4.06355 5.55593C3.79265 7.04478 4.39593 8.46761 5.71859 9.46245C5.75046 9.48522 5.78916 9.48522 5.82558 9.4966C6.41521 10.776 7.70144 11.5796 9.43843 11.6843V15.9642C8.48912 16.1008 7.95414 16.7451 7.95414 17.7786C7.95414 17.963 8.10666 18.1133 8.29562 18.1133H11.378C11.5647 18.1155 11.7172 17.9653 11.7195 17.7809C11.7195 16.7064 11.139 16.0598 10.1214 15.9574V15.4679C10.1738 15.5226 10.242 15.559 10.3172 15.5704C10.3581 15.5772 10.752 15.6341 11.3097 15.6341C12.168 15.6341 13.4087 15.4975 14.3261 14.8282C15.041 14.3046 15.4029 13.4487 15.3233 12.4743Z" fill="#86888C"/>
</svg>
