<svg width="28" height="28" viewBox="0 0 28 28" fill="none" xmlns="http://www.w3.org/2000/svg">
<path fill-rule="evenodd" clip-rule="evenodd" d="M14.4986 2H13.3887C2.5498 2.09903 2 11.9989 2 14C2 16.0011 2.5498 25.86 13.4707 26H14.5396C16.4587 26 26 25.2316 26 14C26 2.76836 16.4212 2.06147 14.4986 2ZM14.4986 24.9994H13.498C10.9983 24.9994 2.99715 24.0808 2.99715 14C2.99715 3.91918 10.9983 3.00057 13.399 3.00057H14.4781C16.9983 3.06887 24.9994 4.00114 24.9994 14C24.9994 23.9989 17.0017 24.9994 14.5293 24.9994H14.4986ZM10.2914 9.36926C8.77178 9.36926 7.00285 10.1786 7.00285 13.9999C7.00285 17.0699 8.12294 18.6305 10.3324 18.6305C11.8418 18.6305 13.6414 17.8212 13.6414 13.9999C13.6414 10.1786 11.8008 9.36926 10.2914 9.36926ZM10.2914 17.5309C9.29084 17.5309 8.10246 17.1314 8.10246 14.0204C8.10246 10.9094 9.27377 10.4791 10.2914 10.4791C11.3125 10.4791 12.4701 10.8787 12.4701 14.0204C12.4701 17.1621 11.2988 17.5309 10.2914 17.5309ZM20.3381 9.53003H20.6796H20.7035C20.9016 9.53344 21.0587 9.70078 21.0518 9.89884V18.1117C21.0518 18.3166 20.8879 18.4805 20.683 18.4805H20.403C20.2766 18.4805 20.1605 18.4156 20.0922 18.3098L15.8406 11.8692V18.098C15.8406 18.3064 15.6699 18.4771 15.4616 18.4771H15.1201C14.9152 18.4737 14.7513 18.3029 14.7513 18.098V9.89884C14.7513 9.69736 14.9152 9.53003 15.1201 9.53003H15.3899C15.5128 9.53003 15.6289 9.58808 15.7006 9.69053L19.9966 16.1379V9.89884C19.9966 9.7076 20.1469 9.5471 20.3381 9.53003Z" fill="#86888C"/>
</svg>
