<svg width="40" height="40" viewBox="0 0 40 40" fill="none" xmlns="http://www.w3.org/2000/svg">
<path fill-rule="evenodd" clip-rule="evenodd" d="M11 15.5C11 13.0147 13.0147 11 15.5 11H24.5C26.9853 11 29 13.0147 29 15.5V24.5C29 26.9853 26.9853 29 24.5 29H15.5C13.0147 29 11 26.9853 11 24.5V15.5ZM15.5 12.125H24.5C26.364 12.125 27.875 13.636 27.875 15.5V24.5C27.875 26.364 26.364 27.875 24.5 27.875H15.5C13.636 27.875 12.125 26.364 12.125 24.5V15.5C12.125 13.636 13.636 12.125 15.5 12.125Z" fill="#86888C"/>
<path fill-rule="evenodd" clip-rule="evenodd" d="M2 20.0026C2 31.7788 8.22633 38 19.9974 38C31.7788 38 38.0051 31.7737 38 20.0026C38 14.0376 36.396 9.46648 33.2393 6.42249C30.1953 3.48612 25.7421 2 19.9974 2C8.22121 2 2 8.22634 2 20.0026ZM3.02491 20.0026C3.02491 8.73879 8.73879 3.02491 19.9974 3.02491C31.2663 3.02491 36.9802 8.73367 36.9751 20.0026C36.9751 31.2663 31.2663 36.9751 19.9974 36.9751C8.73366 36.9751 3.02491 31.2612 3.02491 20.0026Z" fill="#86888C"/>
</svg>
