<svg width="28" height="28" viewBox="0 0 28 28" fill="none" xmlns="http://www.w3.org/2000/svg">
<path fill-rule="evenodd" clip-rule="evenodd" d="M14.0034 24.996C6.70575 24.996 3.00398 21.2977 3.00398 14.0034C3.00398 6.70233 6.70233 3.00398 14.0034 3.00398C21.2977 3.00398 24.996 6.70233 24.996 14.0034C24.996 21.2977 21.2977 24.996 14.0034 24.996ZM14.0034 2C6.15253 2 2 6.14912 2 14.0034C2 21.8509 6.14912 26 14.0034 26C21.8509 26 26 21.8509 26 14.0034C26 6.14912 21.8509 2 14.0034 2ZM15.7211 16.4212V10.8207L20.403 13.6346L15.7211 16.4212ZM14.9698 9.49573C14.8127 9.58452 14.7137 9.75185 14.7171 9.93284V17.3056C14.7171 17.5822 14.9391 17.8076 15.2157 17.8076H15.2191C15.3079 17.8076 15.3967 17.7837 15.4752 17.7393L21.6392 14.0683C21.8782 13.9283 21.9533 13.6175 21.8133 13.3819C21.7723 13.3102 21.7109 13.2521 21.6392 13.2077L15.4787 9.50256C15.3216 9.41036 15.1303 9.40694 14.9698 9.49573ZM8.34832 16.428V10.8275L13.0302 13.6414L8.34832 16.428ZM7.60046 9.50256C7.44337 9.59135 7.34434 9.75868 7.34434 9.93967V17.3125C7.34434 17.5891 7.56631 17.8145 7.84291 17.8145H7.84633C7.93512 17.8145 8.0239 17.7906 8.10245 17.7462L14.2664 14.0751C14.5054 13.9351 14.5805 13.6244 14.4405 13.3887C14.3995 13.317 14.3381 13.259 14.2664 13.2146L8.10586 9.50939C7.94878 9.41377 7.75754 9.41377 7.60046 9.50256Z" fill="#86888C"/>
</svg>
