<svg width="20" height="20" viewBox="0 0 20 20" fill="none" xmlns="http://www.w3.org/2000/svg">
<path fill-rule="evenodd" clip-rule="evenodd" d="M7.91606 4.21938C7.88875 4.29677 7.90696 4.37872 7.96386 4.43562L8.70593 5.17997C8.78105 5.25736 8.82202 5.38483 8.80609 5.49182L8.63082 6.54119C8.61716 6.62313 8.64675 6.70053 8.71276 6.74605C8.76967 6.78475 8.83796 6.7893 8.89714 6.75516L9.81676 6.25893C9.86684 6.23161 9.92602 6.21795 9.98293 6.21795C10.0467 6.21795 10.1081 6.23389 10.1628 6.26576L11.0687 6.75516C11.1279 6.78703 11.1985 6.78247 11.2531 6.74605C11.3191 6.70053 11.351 6.62313 11.335 6.54119L11.1598 5.49182C11.1416 5.38028 11.1848 5.24826 11.269 5.17086L12.002 4.43562C12.0566 4.37872 12.0748 4.29677 12.0498 4.21938C12.027 4.15109 11.9701 4.09873 11.8996 4.08963L10.873 3.93712C10.7637 3.92118 10.659 3.84379 10.6112 3.74591L10.1491 2.78304C10.0831 2.64646 9.8805 2.64646 9.81676 2.78304L9.35695 3.73908C9.3046 3.84607 9.18851 3.92801 9.06786 3.93939L8.0663 4.08963C7.99573 4.09873 7.93883 4.14881 7.91606 4.21938ZM8.10955 5.53507L7.48129 4.90454C7.24683 4.6678 7.16716 4.32409 7.27415 4.00768C7.37886 3.69583 7.64518 3.47503 7.96614 3.42495L8.81975 3.29748L9.20444 2.49395C9.35012 2.19121 9.64831 2 9.9852 2C10.3198 2 10.6203 2.18893 10.7637 2.49168L11.1507 3.29521L12.0043 3.42268C12.3252 3.47048 12.5915 3.69356 12.6963 4.00541C12.8032 4.32181 12.7236 4.66553 12.4868 4.90226L11.8586 5.53279L12.0065 6.42965C12.0612 6.76654 11.9246 7.09432 11.6469 7.29008C11.3851 7.47446 11.0255 7.49495 10.7432 7.34244L9.9852 6.93043L9.2272 7.34244C9.09745 7.413 8.95632 7.44715 8.81747 7.44715C8.64447 7.44715 8.47148 7.39479 8.32579 7.29008C8.04809 7.09432 7.90923 6.76654 7.96386 6.42965L8.10955 5.53507ZM17.3194 17.2944V14.3033C17.3057 14.301 17.2921 14.301 17.2784 14.301H12.9307C12.9171 14.301 12.9034 14.301 12.892 14.3033V17.2944C12.9034 17.2944 12.9171 17.2966 12.9307 17.2966H17.2784C17.2921 17.2966 17.3057 17.2966 17.3194 17.2944ZM7.82501 17.3126H12.1727L12.2137 9.76668L7.82501 9.76441L7.78631 16.9393V17.3103L7.82501 17.3126ZM2.71931 17.2966H7.06701C7.08067 17.2966 7.09432 17.2944 7.10571 17.2921V12.3138C7.09432 12.3093 7.08067 12.307 7.06701 12.307H2.71931C2.70565 12.307 2.69199 12.3093 2.68061 12.3138V17.2944C2.68971 17.2966 2.70565 17.2966 2.71931 17.2966ZM12.9307 18H2.71931C2.32323 18 2 17.7223 2 17.4013V12.2023C2 11.854 2.37103 11.6196 2.71931 11.6196H7.06701C7.08067 11.6196 7.09432 11.6264 7.10571 11.6264V9.76441C7.10571 9.39792 7.4426 9.07469 7.82501 9.07469H12.1727C12.5551 9.07469 12.892 9.39792 12.892 9.76441V13.6159C12.9034 13.6159 12.9193 13.6113 12.9307 13.6113H17.2784C17.6358 13.6113 17.9977 13.782 17.9977 14.1098V17.481C17.9977 17.7746 17.6995 17.9954 17.2761 17.9954H12.9307V18Z" fill="#86888C"/>
</svg>
