<svg width="20" height="20" viewBox="0 0 20 20" fill="none" xmlns="http://www.w3.org/2000/svg">
<path fill-rule="evenodd" clip-rule="evenodd" d="M14.7899 8.58851C14.7012 8.59078 14.6033 8.58851 14.5281 8.58623C14.4097 8.58168 14.2936 8.5703 14.1775 8.54981C14.6807 7.3341 14.8491 5.74959 14.8673 3.89643V3.31362C15.6459 3.33411 17.3215 3.64145 17.3215 5.94082C17.3215 8.29483 15.5503 8.57712 14.7899 8.58851ZM10.0273 10.4713C10.0182 10.469 10.0091 10.4644 9.9977 10.4644C9.98404 10.4644 9.97038 10.4713 9.95672 10.4735C9.92257 10.4735 9.89297 10.4758 9.8611 10.4758C6.68752 10.4758 5.55605 8.71144 5.53556 3.73935V2.67162H14.1912C14.1912 3.10873 14.1912 3.82131 14.1889 3.89416C14.1434 8.66591 13.0483 10.4098 10.0273 10.4713ZM12.7046 17.3284H7.29537C7.40237 15.7393 8.28797 14.9653 9.99997 14.9653C11.7097 14.9653 12.5976 15.7393 12.7046 17.3284ZM5.21001 8.58851C4.44735 8.57712 2.67843 8.29483 2.67843 5.94082C2.67843 3.88733 4.01252 3.42062 4.85486 3.33184V3.74162C4.86396 5.70405 5.0256 7.34093 5.53328 8.57712C5.35116 8.58851 5.21228 8.58623 5.21001 8.58851ZM14.8673 2.6443V2.33469C14.8673 2.148 14.7148 1.99775 14.5304 2.00003H5.19407C5.00739 1.99775 4.85486 2.148 4.85486 2.33469V2.66707C3.4206 2.79456 2 3.69837 2 5.94082C2 8.35174 3.65281 9.23734 5.2009 9.2601H5.23505C5.32611 9.2601 5.57882 9.25555 5.85656 9.22368C6.56686 10.4189 7.75069 11.095 9.66076 11.1406V14.3164C7.69378 14.4416 6.60784 15.6095 6.60784 17.663C6.60784 17.8497 6.7581 18 6.94705 18H13.0552C13.2419 18.0023 13.3921 17.852 13.3944 17.6653V17.663C13.3944 15.6073 12.3062 14.4394 10.3415 14.3164V11.1269C12.099 11.0199 13.21 10.3233 13.8839 9.16221C13.9043 9.17132 13.9248 9.18498 13.9476 9.19181C14.1548 9.23962 14.4097 9.25555 14.5168 9.25783C14.5759 9.2601 14.6442 9.2601 14.7148 9.2601H14.8036C16.3494 9.23734 18.0045 8.35174 18.0045 5.94082C17.9999 3.55267 16.3904 2.6739 14.8673 2.6443Z" fill="#86888C"/>
</svg>
