<svg width="20" height="20" viewBox="0 0 20 20" fill="none" xmlns="http://www.w3.org/2000/svg">
<path d="M5.52112 10.0943C5.4619 10.0533 5.43457 10.0078 5.43457 9.93715C5.43685 9.84605 5.51201 9.77317 5.60311 9.77545C5.64639 9.77772 5.68966 9.79139 5.7261 9.81644C5.98802 9.98954 6.35243 10.1649 6.77606 10.1649C7.40923 10.1649 7.79642 9.83922 7.79642 9.35865C7.79642 8.96463 7.5755 8.68449 6.85123 8.59338L6.66446 8.57061C5.89236 8.47267 5.53251 8.10143 5.53251 7.5252C5.53251 6.83965 6.01991 6.41602 6.76923 6.41602C7.18831 6.41602 7.54133 6.52534 7.78503 6.67794C7.86019 6.72349 7.89436 6.78271 7.89436 6.83965C7.89436 6.92619 7.82603 6.9968 7.73948 6.9968H7.7372C7.69621 6.99452 7.65749 6.98313 7.62105 6.96263C7.35457 6.81687 7.07443 6.73032 6.75557 6.73032C6.18162 6.73032 5.86048 7.04918 5.86048 7.49559C5.86048 7.901 6.11101 8.16292 6.78973 8.24947L6.96966 8.27224C7.75542 8.37018 8.12667 8.74142 8.12667 9.3336C8.12667 10.0009 7.65066 10.4769 6.73279 10.4769C6.30005 10.4747 5.87642 10.3403 5.52112 10.0943Z" fill="#86888C"/>
<path d="M6.73291 10.5683C6.27967 10.5661 5.8401 10.4248 5.46658 10.1698C5.38231 10.1105 5.34131 10.0354 5.34131 9.93744C5.34359 9.79623 5.45974 9.68235 5.60095 9.68463C5.66245 9.6869 5.72166 9.70512 5.77405 9.74157C6.10658 9.96249 6.44138 10.0741 6.77391 10.0741C7.34786 10.0741 7.70544 9.80078 7.70544 9.35893C7.70544 9.07879 7.60295 8.78043 6.83996 8.68249L6.65547 8.65971C5.65334 8.53217 5.4438 7.97189 5.4438 7.52548C5.4438 6.79665 5.96537 6.3252 6.77163 6.3252C7.17248 6.3252 7.54828 6.42313 7.83526 6.60078C7.93319 6.66228 7.98786 6.74655 7.98786 6.83993C7.98786 6.97658 7.87626 7.08818 7.7396 7.08818C7.68494 7.08591 7.63028 7.06996 7.58245 7.04263L7.58017 7.04036C7.30231 6.89004 7.04266 6.81943 6.75796 6.81943C6.26373 6.81943 5.95398 7.07907 5.95398 7.49359C5.95398 7.75324 6.04964 8.06071 6.80351 8.15865L6.98344 8.18142C7.54601 8.25431 8.21789 8.51167 8.21789 9.33616C8.21789 10.0946 7.6485 10.5683 6.73291 10.5683ZM5.57134 10.0194C5.7285 10.1288 6.15668 10.3861 6.73291 10.3861C7.54828 10.3861 8.03569 9.9921 8.03569 9.33388C8.03569 8.77132 7.68494 8.45246 6.96067 8.36135L6.78074 8.33858C6.09291 8.24975 5.77177 7.981 5.77177 7.49359C5.77177 6.97203 6.15896 6.63722 6.75796 6.63722C7.06771 6.63722 7.3638 6.71694 7.66444 6.87865C7.68722 6.89231 7.71227 6.89915 7.7396 6.9037C7.77604 6.9037 7.80565 6.87637 7.80565 6.83993V6.83765C7.80565 6.79893 7.76465 6.76705 7.7396 6.75338C7.48223 6.59395 7.13832 6.50512 6.77163 6.50512C6.06558 6.50512 5.62601 6.89459 5.62601 7.5232C5.62601 8.06754 5.97903 8.38868 6.67825 8.47751L6.86273 8.50028C7.56195 8.58911 7.88764 8.86242 7.88764 9.35665C7.88764 9.90327 7.45035 10.254 6.77391 10.254C6.40494 10.254 6.03369 10.131 5.67156 9.88961C5.65106 9.87594 5.62601 9.86683 5.60095 9.86455C5.55996 9.86455 5.52579 9.89644 5.52352 9.93516C5.52352 9.96932 5.53035 9.98982 5.57134 10.0194Z" fill="#86888C"/>
<path d="M6.78098 11.1222C6.65571 11.1222 6.55322 11.0197 6.55322 10.8944V6.00901C6.55322 5.88374 6.65571 5.78125 6.78098 5.78125C6.90625 5.78125 7.00874 5.88374 7.00874 6.00901V10.8944C7.00874 11.0197 6.90625 11.1222 6.78098 11.1222Z" fill="#86888C"/>
<path d="M14.7751 18H9.00146C8.16559 18 7.56203 17.8064 7.1589 17.4056C6.75121 17.0024 6.55306 16.3943 6.55306 15.5516V11.9986C6.55306 11.8733 6.65555 11.7708 6.78082 11.7708C6.90608 11.7708 7.00857 11.8733 7.00857 11.9986V15.5516C7.00857 16.9683 7.58708 17.5445 9.00146 17.5445H14.7751C16.1918 17.5445 16.768 16.9683 16.768 15.5516V4.4484C16.768 3.74007 16.6154 3.24128 16.3011 2.92698C15.9868 2.61267 15.4857 2.45552 14.7751 2.45552H9.00146C8.29996 2.45552 7.80345 2.61267 7.48003 2.93836C7.16117 3.2595 7.0063 3.75374 7.0063 4.4484V4.89253C7.0063 5.01779 6.90381 5.12028 6.77854 5.12028C6.65327 5.12028 6.55078 5.01779 6.55078 4.89253V4.4484C6.55078 3.62847 6.74893 3.02947 7.15434 2.6195C7.56886 2.2027 8.17242 2 9.00146 2H14.7751C15.6133 2 16.2168 2.19815 16.6222 2.60584C17.0276 3.01352 17.2235 3.6148 17.2235 4.4484V15.5516C17.2235 16.3943 17.0254 17.0001 16.6177 17.4056C16.2146 17.8064 15.611 18 14.7751 18Z" fill="#86888C"/>
<path d="M11.8917 14.7411C11.4817 14.7411 11.2152 14.9574 11.2152 15.4198C11.2152 15.643 11.2767 15.807 11.3861 15.9186C11.5045 16.0393 11.6799 16.0985 11.8917 16.0985C12.1035 16.0985 12.2789 16.0393 12.3973 15.9186C12.5066 15.807 12.5681 15.643 12.5681 15.4198C12.5681 14.9574 12.3016 14.7411 11.8917 14.7411ZM6.78078 12.2266C5.57594 12.2266 4.64214 11.9146 4.00214 11.2974C3.33708 10.6574 3 9.69849 3 8.44582C3 7.19315 3.33708 6.23429 4.00214 5.59429C4.64214 4.97707 5.57822 4.66504 6.78078 4.66504C7.98335 4.66504 8.91943 4.97707 9.55943 5.59429C10.2245 6.23429 10.5616 7.19315 10.5616 8.44582C10.5616 9.69849 10.2245 10.6574 9.55943 11.2974C8.91943 11.9146 7.98335 12.2266 6.78078 12.2266ZM6.78078 5.12056C5.69893 5.12056 4.86989 5.38931 4.31644 5.92226C3.74477 6.47344 3.45324 7.32298 3.45324 8.44582C3.45324 9.56867 3.74249 10.4182 4.31416 10.9694C4.86534 11.5023 5.69438 11.7711 6.77851 11.7711C7.86263 11.7711 8.68939 11.5023 9.24057 10.9694C9.81224 10.4182 10.1015 9.56867 10.1015 8.44582C10.1015 7.32298 9.81224 6.47344 9.24057 5.92226C8.69167 5.38931 7.86263 5.12056 6.78078 5.12056Z" fill="#86888C"/>
</svg>
