<svg width="40" height="40" viewBox="0 0 40 40" fill="none" xmlns="http://www.w3.org/2000/svg">
<path d="M7.04264 29.7805C6.29958 29.7805 5.81787 30.1646 5.81787 30.9942C5.81787 31.3937 5.93061 31.6907 6.12534 31.8904C6.34058 32.1055 6.65317 32.2131 7.04264 32.2131C7.43211 32.2131 7.7447 32.1106 7.95994 31.8904C8.15979 31.6907 8.26741 31.3937 8.26741 30.9942C8.27253 30.1697 7.7857 29.7805 7.04264 29.7805ZM11.501 29.7805C10.7579 29.7805 10.2762 30.1646 10.2762 30.9942C10.2762 31.3937 10.389 31.6907 10.5837 31.8904C10.7989 32.1055 11.1115 32.2131 11.501 32.2131C11.8905 32.2131 12.2031 32.1106 12.4183 31.8904C12.6182 31.6907 12.7258 31.3937 12.7258 30.9942C12.7309 30.1697 12.2441 29.7805 11.501 29.7805ZM11.5113 24.5211C11.2294 24.5211 10.9988 24.2906 10.9988 24.0089V10.0384C10.9988 9.75672 11.2294 9.52626 11.5113 9.52626C11.7931 9.52626 12.0237 9.75672 12.0237 10.0384V24.0089C12.0237 24.2906 11.7931 24.5211 11.5113 24.5211ZM16.7895 15.4924C16.5077 15.4924 16.2771 15.2671 16.2771 14.9803C16.2771 14.842 16.3335 14.7089 16.4308 14.6116C17.4609 13.613 17.9887 12.0715 17.9887 10.0384C17.9887 8.00527 17.4609 6.45356 16.4257 5.45493C16.2207 5.26032 16.2156 4.93257 16.4103 4.73284C16.6051 4.53312 16.933 4.52287 17.1329 4.71748C18.3782 5.91583 19.0085 7.70825 19.0085 10.0384C19.0085 12.3634 18.3833 14.1507 17.1431 15.349C17.0509 15.4412 16.9228 15.4924 16.7895 15.4924ZM20.9046 18.0479C20.6227 18.0479 20.3921 17.8226 20.3921 17.5358C20.3921 17.3975 20.4485 17.2644 20.5458 17.1671C22.1652 15.6 22.9851 13.1981 22.9851 10.0333C22.9851 6.85813 22.1601 4.4563 20.5305 2.8841C20.3255 2.68949 20.3204 2.36174 20.5202 2.15689C20.715 1.95204 21.0429 1.94692 21.2479 2.14665C23.0825 3.91345 24.0152 6.56622 24.0152 10.0333C24.0152 13.4849 23.0927 16.1326 21.2684 17.8994C21.1659 17.9967 21.0378 18.0479 20.9046 18.0479Z" fill="#86888C"/>
<path d="M32.4911 37.9996H7.5089C5.69993 37.9996 4.30093 37.5028 3.36313 36.5298C2.46121 35.5926 2 34.2355 2 32.4943V29.4984C2 27.7572 2.46121 26.4001 3.36313 25.4629C4.30093 24.4899 5.69993 23.9932 7.5089 23.9932H32.4911C34.3001 23.9932 35.6991 24.4848 36.6369 25.4629C37.5439 26.4001 38 27.7572 38 29.4984V32.4943C38 34.2355 37.5388 35.5926 36.6369 36.5298C35.6991 37.5079 34.3001 37.9996 32.4911 37.9996ZM7.5089 25.0174C5.9869 25.0174 4.839 25.4066 4.10107 26.1748C3.38875 26.9174 3.02491 28.0338 3.02491 29.4984V32.4943C3.02491 33.959 3.38875 35.0805 4.10107 35.818C4.839 36.5861 5.9869 36.9753 7.5089 36.9753H32.4911C34.0131 36.9753 35.161 36.5861 35.8989 35.818C36.6112 35.0754 36.9751 33.959 36.9751 32.4943V29.4984C36.9751 28.0338 36.6112 26.9122 35.8989 26.1748C35.161 25.4066 34.0131 25.0174 32.4911 25.0174H7.5089Z" fill="#86888C"/>
</svg>
