<svg width="28" height="28" viewBox="0 0 28 28" fill="none" xmlns="http://www.w3.org/2000/svg">
<path fill-rule="evenodd" clip-rule="evenodd" d="M17.3998 24.6114L16.6076 20.7803C18.1715 20.2988 19.9949 19.1925 20.7666 16.6964L24.6114 17.4886C23.488 22.1871 20.0905 23.9558 17.3998 24.6114ZM14.5316 24.9939C14.1764 25.0007 13.8213 25.0007 13.4662 24.9973C12.8345 24.9836 12.2028 24.9256 11.5779 24.8231L12.3633 21.0227C12.8721 21.1115 13.3843 21.1559 13.8999 21.1559C14.0501 21.1559 14.2003 21.1525 14.3301 21.1525C14.7706 21.1422 15.2076 21.0944 15.6413 21.0159L16.4267 24.8197C15.655 24.9426 14.9925 24.9836 14.5316 24.9939ZM3.39657 17.4886L7.2175 16.6998C7.90383 18.9364 9.42332 20.0598 10.854 20.6129C11.035 20.6812 11.2092 20.7325 11.3867 20.7837L10.5945 24.6217C9.57015 24.3724 8.42968 23.9729 7.35408 23.2934C5.31557 22.0095 4.00437 20.0564 3.39657 17.4886ZM3.17121 11.6394L6.96823 12.4248C6.89653 12.9062 6.84531 13.4116 6.84531 13.975C6.84531 14.6203 6.9136 15.1872 7.00579 15.7232L3.20877 16.5086C3.07218 15.6652 3.00389 14.8116 3.00389 13.9579C3.00048 13.1384 3.06877 12.3735 3.17121 11.6394ZM7.31311 4.6668C8.39212 3.98729 9.53259 3.5912 10.5604 3.35218L11.356 7.19018C9.76137 7.67164 7.90725 8.8087 7.17652 11.4482L3.33852 10.656C3.91559 7.98578 5.23703 5.97459 7.31311 4.6668ZM13.374 3.00048H13.5789C13.8828 3.00048 14.2003 3.00389 14.4735 3.01072C14.9003 3.02096 15.6072 3.07218 16.4437 3.21901L15.6618 7.00579C15.2111 6.92043 14.7535 6.86921 14.2925 6.85214C14.1252 6.84872 13.934 6.84531 13.7496 6.84531H13.6164C13.1828 6.85214 12.7491 6.89311 12.3189 6.96482L11.5335 3.15413C12.3155 3.03462 12.9677 3.00389 13.374 3.00048ZM14.3062 20.1486C14.1833 20.152 14.0399 20.152 13.8964 20.152H13.6882C12.8447 20.1383 12.0082 19.9778 11.2194 19.6808C8.98284 18.8135 7.84578 16.8945 7.84578 13.975C7.84578 8.48773 11.8921 7.85603 13.6335 7.84237H13.7599C13.9374 7.84237 14.1218 7.84578 14.2789 7.84578C16.0476 7.89017 20.1588 8.57651 20.1588 14.016C20.152 19.4554 16.0647 20.1178 14.3062 20.1486ZM24.6285 10.6628L20.8007 11.4516C20.0564 8.89406 18.2193 7.75017 16.6315 7.24823L17.4203 3.43413C18.4276 3.69022 19.5373 4.09315 20.5959 4.75558C22.6924 6.06337 24.031 8.05066 24.6285 10.6628ZM21.0193 12.4282L24.8095 11.6428C24.9222 12.3974 24.9973 13.1828 24.9973 14.0296C24.9973 14.9379 24.9119 15.7437 24.789 16.5086L20.9988 15.7267C21.1012 15.1633 21.1525 14.5896 21.1525 14.0194C21.1525 13.4355 21.0978 12.9165 21.0193 12.4282ZM14.5008 2.01366C14.2174 2.00683 13.893 2 13.5789 2H13.3638C10.9565 2.02049 2 2.84682 2 13.9613C2 25.0895 11.0384 25.9636 13.4491 25.9978C13.8145 26.0012 14.1799 26.0012 14.5486 25.9943C16.8398 25.9534 26.0012 25.0929 26.0012 14.033C25.9978 2.99706 16.8501 2.06829 14.5008 2.01366Z" fill="#86888C"/>
</svg>
