<svg width="20" height="20" viewBox="0 0 20 20" fill="none" xmlns="http://www.w3.org/2000/svg">
<path fill-rule="evenodd" clip-rule="evenodd" d="M3.67624 4.8321C3.68079 6.10472 3.7195 10.2026 4.04278 12.0581C4.44574 14.3961 9.11506 16.8389 10.0007 17.2806C10.8863 16.8367 15.5624 14.3939 15.9654 12.0581C16.2818 10.1981 16.3205 6.09106 16.3251 4.82527C14.8476 4.94138 13.9824 4.36084 13.1378 3.79852C12.3182 3.24986 11.4668 2.68298 10.0029 2.68071H9.99838C8.53225 2.68071 7.68307 3.24758 6.86122 3.79852C6.00749 4.36767 5.12644 4.95276 3.67624 4.8321ZM10.0007 18C9.95057 18 9.90049 17.9886 9.85496 17.9681C9.61363 17.852 3.88114 15.0882 3.37801 12.1764C2.98415 9.91577 3.00009 4.66818 3.00009 4.44508C2.99781 4.2584 3.14807 4.10814 3.33475 4.10586C3.36207 4.10586 3.39167 4.10814 3.41899 4.11497C4.83276 4.34035 5.59998 3.82584 6.49013 3.23164C7.35296 2.65339 8.32963 2 9.99838 2H10.0052C11.674 2.00228 12.6506 2.65566 13.5112 3.23164C14.3991 3.82584 15.164 4.33808 16.5869 4.11725C16.6871 4.10131 16.7895 4.12863 16.8692 4.19237C16.9466 4.25384 16.9944 4.34718 17.0012 4.44508C17.0012 4.66818 17.0149 9.91577 16.6301 12.1764C16.1293 15.0905 10.39 17.852 10.1464 17.9681C10.0986 17.9886 10.0507 18 10.0007 18Z" fill="#86888C"/>
</svg>
