<svg width="20" height="20" viewBox="0 0 20 20" fill="none" xmlns="http://www.w3.org/2000/svg">
<path fill-rule="evenodd" clip-rule="evenodd" d="M15.9763 12.0622C16.295 10.1978 16.3337 6.07498 16.336 4.81606C14.8631 4.94355 13.9889 4.35393 13.142 3.78935C12.3202 3.23843 11.4688 2.6693 10.0004 2.6693H9.99586C8.5275 2.6693 7.67607 3.23843 6.85197 3.78935C5.99828 4.35621 5.10588 4.93672 3.66028 4.82062C3.66484 6.08637 3.70581 10.2 4.0268 12.06C4.42975 14.4048 9.11939 16.8521 9.99813 17.2937C10.8769 16.8543 15.5711 14.4048 15.9763 12.0622ZM16.9985 4.44044C16.9985 4.66354 17.0121 9.91321 16.6274 12.1761C16.1265 15.0878 10.3851 17.8515 10.1416 17.9676C10.0976 17.9889 10.0493 18 10.0004 18C9.95151 18 9.90325 17.9889 9.85926 17.9676C9.6134 17.8515 3.87883 15.0878 3.37799 12.1761C2.98415 9.91321 3.00009 4.66354 3.00009 4.44044C3.00237 4.25604 3.15262 4.10806 3.33474 4.11034C3.35978 4.11034 3.38482 4.11262 3.40986 4.11945C4.82814 4.34255 5.59761 3.82805 6.49 3.2316C7.35053 2.65336 8.32716 2 9.99586 2H10.0004C11.6691 2.00228 12.6457 2.65564 13.5085 3.2316C14.3987 3.82577 15.1681 4.34255 16.591 4.11945C16.6888 4.10579 16.789 4.13083 16.8687 4.1923C16.9438 4.25149 16.9916 4.34255 16.9985 4.44044ZM13.0214 7.49554C13.1488 7.36577 13.3583 7.36577 13.4858 7.49326L13.488 7.49554C13.6178 7.6253 13.6178 7.83701 13.488 7.96678L8.99191 12.5039C8.86442 12.6337 8.65726 12.6337 8.5275 12.5062L8.52522 12.5039L6.50594 10.4664C6.37618 10.3366 6.37618 10.1249 6.50594 9.99516C6.63343 9.8654 6.84287 9.8654 6.97035 9.99289L6.97263 9.99516L8.75743 11.7959L13.0214 7.49554Z" fill="#86888C"/>
</svg>
