<svg width="20" height="20" viewBox="0 0 20 20" fill="none" xmlns="http://www.w3.org/2000/svg">
<path fill-rule="evenodd" clip-rule="evenodd" d="M2.66249 2C2.29824 2 2 2.29596 2 2.66021C2 2.70802 2.00455 2.75583 2.01594 2.80136L3.53216 9.94533L2.04098 17.2031C1.98862 17.4513 2.08423 17.7085 2.28685 17.8633C2.48947 18.0182 2.76039 18.0432 2.98805 17.9294L17.6335 10.5532C17.9613 10.387 18.0911 9.98859 17.9271 9.66076C17.8634 9.53327 17.7587 9.43082 17.6312 9.36708L2.95845 2.0683C2.86739 2.02277 2.76494 2 2.66249 2ZM2.66249 2.66249L17.3352 9.95899L2.68981 17.3352L4.21059 9.94078L2.66249 2.66249Z" fill="#86888C"/>
</svg>
