<svg width="40" height="40" viewBox="0 0 40 40" fill="none" xmlns="http://www.w3.org/2000/svg">
<path fill-rule="evenodd" clip-rule="evenodd" d="M35.7052 32.5401C36.1406 32.5401 36.4991 32.1969 36.4991 31.7718V14.3455H3.50085V31.7718C3.50085 32.1969 3.8543 32.5401 4.29482 32.5401H35.7052ZM4.29482 8.45475C3.85942 8.45475 3.50085 8.80307 3.50085 9.22311V12.8958H36.4991V9.22311C36.4991 8.79795 36.1457 8.45475 35.7052 8.45475H4.29482ZM35.7052 7C36.9704 7 38 7.99886 38 9.22311V31.7769C38 33.0011 36.9704 34 35.7052 34H4.29482C3.0296 34 2 33.0011 2 31.7769V9.22311C2 7.99886 3.0296 7 4.29482 7H35.7052ZM9.66306 11.7945C9.08423 11.7945 8.6181 11.3386 8.6181 10.7854C8.6181 10.2271 9.08423 9.7712 9.66306 9.7712C10.2419 9.7712 10.708 10.222 10.708 10.7854C10.708 11.3386 10.2419 11.7945 9.66306 11.7945ZM12.798 11.7945C12.2191 11.7945 11.7581 11.3386 11.7581 10.7854C11.7581 10.2271 12.2242 9.7712 12.798 9.7712C13.3768 9.7712 13.8429 10.222 13.8429 10.7854C13.8378 11.3386 13.3768 11.7945 12.798 11.7945ZM6.5333 11.7945C5.95447 11.7945 5.48833 11.3386 5.48833 10.7854C5.48833 10.2271 5.95447 9.7712 6.5333 9.7712C7.11212 9.7712 7.57314 10.222 7.57314 10.7854C7.57314 11.3386 7.11212 11.7945 6.5333 11.7945ZM19.9129 25.4149C21.3062 25.4149 21.9567 24.7849 21.9567 23.4326C21.9567 22.0803 21.3062 21.4502 19.9129 21.4502C18.5196 21.4502 17.8691 22.0803 17.8691 23.4326C17.8691 24.7849 18.5145 25.4149 19.9129 25.4149ZM19.9129 19.9954C22.136 19.9954 23.4576 21.2812 23.4576 23.4326C23.4576 25.584 22.1309 26.8697 19.9129 26.8697C17.6898 26.8697 16.3682 25.584 16.3682 23.4326C16.3682 21.2812 17.6898 19.9954 19.9129 19.9954ZM24.9943 23.9243H26.3415L26.3005 22.905L24.9943 22.9408C24.6255 22.9408 24.313 22.6796 24.2516 22.3261C24.1696 21.8497 24.0364 21.4195 23.8469 21.0507C23.7035 20.7689 23.7598 20.436 23.9903 20.2106L24.9841 19.2476L24.185 18.5151L23.2322 19.4781C23.0068 19.6984 22.6585 19.7547 22.3717 19.6164C21.967 19.4269 21.547 19.2988 21.0501 19.222C20.6864 19.1656 20.42 18.8634 20.42 18.5048V17.2038L19.3648 17.2396L19.4007 18.5048C19.4007 18.8634 19.1343 19.1656 18.7706 19.222C18.2789 19.2988 17.8384 19.432 17.4542 19.6164C17.1622 19.7598 16.819 19.6984 16.5885 19.4781L15.5948 18.5151L14.8367 19.2886L15.8304 20.2106C16.0711 20.4411 16.1224 20.7997 15.9533 21.0814C15.8048 21.3375 15.6511 21.8344 15.5692 22.3261C15.5128 22.6796 15.1952 22.9357 14.8264 22.9357H13.4843L13.5202 23.955L14.8264 23.9192C15.1952 23.9192 15.5077 24.1804 15.5692 24.5287C15.6511 25.0205 15.8048 25.5225 15.9533 25.7735C16.1224 26.0603 16.0711 26.4138 15.8304 26.6443L14.8367 27.6073L15.6357 28.3398L16.5885 27.3768C16.7319 27.2385 16.9266 27.1616 17.1212 27.1616C17.2339 27.1616 17.3466 27.1873 17.4542 27.2385C17.8332 27.4229 18.2738 27.5561 18.7706 27.6329C19.1343 27.6892 19.4007 27.9915 19.4007 28.35V29.6511L20.4149 29.6153V28.35C20.4149 27.9915 20.6813 27.6892 21.045 27.6329C21.5418 27.5561 21.9619 27.428 22.3665 27.2385C22.6534 27.1053 23.0017 27.1616 23.2271 27.3768L24.2208 28.3398L24.9789 27.5663L23.9852 26.6443C23.7547 26.424 23.7035 26.0859 23.8418 25.8042C24.0313 25.4354 24.1645 25.0051 24.2464 24.5287C24.3079 24.1855 24.6255 23.9243 24.9943 23.9243ZM26.3415 21.4861C27.1508 21.4861 27.8065 22.1212 27.8065 22.905V23.9653C27.8065 24.749 27.1508 25.3842 26.3415 25.3842H25.6039C25.5475 25.5891 25.4861 25.7837 25.4092 25.9784L26.0444 26.5931C26.3261 26.8645 26.4747 27.2231 26.4747 27.6022C26.4747 27.9812 26.321 28.3398 26.0444 28.6113L25.2453 29.3848C24.6716 29.9431 23.7393 29.9431 23.1605 29.3848L22.5253 28.7701C22.3307 28.8418 22.1258 28.9032 21.9158 28.9596V29.6716C21.9158 30.4553 21.2601 31.0905 20.4508 31.0905H19.3648C18.5606 31.0905 17.8998 30.4553 17.8998 29.6716V28.9596C17.6898 28.9084 17.4849 28.8469 17.2903 28.7752L16.6551 29.3899C16.3785 29.6614 16.0097 29.8099 15.6153 29.8099H15.6101C15.2157 29.8099 14.8469 29.6614 14.5703 29.3899L13.7712 28.6164C13.4946 28.3449 13.3409 27.9863 13.3409 27.6073C13.3409 27.2282 13.4946 26.8697 13.7712 26.5982L14.4013 25.9886C14.3244 25.7888 14.2629 25.5788 14.2168 25.3944H13.4843C12.6801 25.3944 12.0194 24.7592 12.0194 23.9755V22.9152C12.0194 22.1315 12.675 21.4963 13.4843 21.4963H14.2168C14.2629 21.3119 14.3244 21.1019 14.4013 20.9021L13.7712 20.2925C13.4946 20.0211 13.3409 19.6625 13.3409 19.2834C13.3409 18.9044 13.4946 18.5458 13.7712 18.2743L14.5703 17.5009C14.8469 17.2294 15.2157 17.0808 15.6101 17.0808H15.6153C16.0097 17.0808 16.3785 17.2294 16.6551 17.5009L17.2903 18.1155C17.4849 18.0438 17.6898 17.9824 17.8998 17.9311V17.2191C17.8998 16.4354 18.5555 15.8002 19.3648 15.8002H20.4559C21.2652 15.8002 21.9209 16.4354 21.9209 17.2191V17.9311C22.1309 17.9824 22.3358 18.0438 22.5304 18.1207L23.1656 17.506C23.7393 16.9476 24.6716 16.9476 25.2504 17.506L26.0495 18.2795C26.3312 18.5509 26.4798 18.9095 26.4798 19.2886C26.4798 19.6676 26.3261 20.0262 26.0495 20.2977L25.4143 20.9124C25.4861 21.1019 25.5526 21.3017 25.609 21.5065H26.3415V21.4861Z" fill="#86888C"/>
</svg>
