<svg width="24" height="24" viewBox="0 0 24 24" fill="none" xmlns="http://www.w3.org/2000/svg">
<path fill-rule="evenodd" clip-rule="evenodd" d="M20.7251 19.189C20.967 19.189 21.1662 18.9983 21.1662 18.7621V9.08082H2.83381V18.7621C2.83381 18.9983 3.03017 19.189 3.2749 19.189H20.7251ZM3.2749 5.8082C3.03301 5.8082 2.83381 6.00171 2.83381 6.23506V8.27547H21.1662V6.23506C21.1662 5.99886 20.9698 5.8082 20.7251 5.8082H3.2749ZM20.7251 5C21.428 5 22 5.55492 22 6.23506V18.7649C22 19.4451 21.428 20 20.7251 20H3.2749C2.572 20 2 19.4451 2 18.7649V6.23506C2 5.55492 2.572 5 3.2749 5H20.7251ZM6.25726 7.66363C5.93569 7.66363 5.67672 7.41036 5.67672 7.10302C5.67672 6.79283 5.93569 6.53956 6.25726 6.53956C6.57883 6.53956 6.83779 6.78998 6.83779 7.10302C6.83779 7.41036 6.57883 7.66363 6.25726 7.66363ZM7.99886 7.66363C7.67729 7.66363 7.42117 7.41036 7.42117 7.10302C7.42117 6.79283 7.68014 6.53956 7.99886 6.53956C8.32043 6.53956 8.5794 6.78998 8.5794 7.10302C8.57655 7.41036 8.32043 7.66363 7.99886 7.66363ZM4.5185 7.66363C4.19693 7.66363 3.93796 7.41036 3.93796 7.10302C3.93796 6.79283 4.19693 6.53956 4.5185 6.53956C4.84007 6.53956 5.09619 6.78998 5.09619 7.10302C5.09619 7.41036 4.84007 7.66363 4.5185 7.66363ZM11.9516 15.2305C12.7257 15.2305 13.0871 14.8805 13.0871 14.1292C13.0871 13.3779 12.7257 13.0279 11.9516 13.0279C11.1776 13.0279 10.8162 13.3779 10.8162 14.1292C10.8162 14.8805 11.1747 15.2305 11.9516 15.2305ZM11.9516 12.2197C13.1867 12.2197 13.9209 12.934 13.9209 14.1292C13.9209 15.3244 13.1838 16.0387 11.9516 16.0387C10.7166 16.0387 9.98236 15.3244 9.98236 14.1292C9.98236 12.934 10.7166 12.2197 11.9516 12.2197ZM14.7746 14.4024H15.5231L15.5003 13.8361L14.7746 13.856C14.5697 13.856 14.3961 13.7109 14.362 13.5145C14.3164 13.2499 14.2425 13.0108 14.1372 12.8059C14.0575 12.6494 14.0888 12.4644 14.2168 12.3392L14.7689 11.8042L14.325 11.3973L13.7957 11.9323C13.6705 12.0546 13.4769 12.0859 13.3176 12.0091C13.0928 11.9038 12.8594 11.8327 12.5834 11.79C12.3813 11.7587 12.2334 11.5908 12.2334 11.3916V10.6688L11.6471 10.6887L11.667 11.3916C11.667 11.5908 11.5191 11.7587 11.317 11.79C11.0438 11.8327 10.7991 11.9067 10.5857 12.0091C10.4234 12.0888 10.2328 12.0546 10.1047 11.9323L9.55265 11.3973L9.13147 11.827L9.68355 12.3392C9.8173 12.4673 9.84576 12.6665 9.75185 12.823C9.66932 12.9653 9.58395 13.2413 9.53842 13.5145C9.50711 13.7109 9.33068 13.8532 9.12578 13.8532H8.38019L8.40011 14.4195L9.12578 14.3995C9.33068 14.3995 9.50427 14.5447 9.53842 14.7382C9.58395 15.0114 9.66932 15.2903 9.75185 15.4297C9.84576 15.5891 9.8173 15.7854 9.68355 15.9135L9.13147 16.4485L9.57541 16.8554L10.1047 16.3204C10.1844 16.2436 10.2925 16.2009 10.4007 16.2009C10.4633 16.2009 10.5259 16.2151 10.5857 16.2436C10.7962 16.346 11.041 16.42 11.317 16.4627C11.5191 16.494 11.667 16.6619 11.667 16.8611V17.584L12.2305 17.564V16.8611C12.2305 16.6619 12.3785 16.494 12.5805 16.4627C12.8566 16.42 13.0899 16.3489 13.3147 16.2436C13.4741 16.1696 13.6676 16.2009 13.7928 16.3204L14.3449 16.8554L14.7661 16.4257L14.214 15.9135C14.0859 15.7911 14.0575 15.6033 14.1343 15.4468C14.2396 15.2419 14.3136 15.0028 14.3591 14.7382C14.3933 14.5475 14.5697 14.4024 14.7746 14.4024ZM15.5231 13.0478C15.9727 13.0478 16.3369 13.4007 16.3369 13.8361V14.4252C16.3369 14.8606 15.9727 15.2134 15.5231 15.2134H15.1133C15.082 15.3273 15.0478 15.4354 15.0051 15.5435L15.358 15.885C15.5145 16.0359 15.597 16.2351 15.597 16.4456C15.597 16.6562 15.5117 16.8554 15.358 17.0063L14.9141 17.436C14.5953 17.7462 14.0774 17.7462 13.7558 17.436L13.403 17.0945C13.2948 17.1343 13.181 17.1685 13.0643 17.1998V17.5953C13.0643 18.0307 12.7001 18.3836 12.2504 18.3836H11.6471C11.2003 18.3836 10.8332 18.0307 10.8332 17.5953V17.1998C10.7166 17.1713 10.6027 17.1372 10.4946 17.0973L10.1417 17.4388C9.98805 17.5896 9.78315 17.6722 9.56403 17.6722H9.56118C9.34206 17.6722 9.13717 17.5896 8.98349 17.4388L8.53956 17.0091C8.38589 16.8583 8.30051 16.6591 8.30051 16.4485C8.30051 16.2379 8.38589 16.0387 8.53956 15.8879L8.88959 15.5492C8.8469 15.4382 8.81275 15.3216 8.78714 15.2191H8.38019C7.93341 15.2191 7.56631 14.8662 7.56631 14.4308V13.8418C7.56631 13.4064 7.93056 13.0535 8.38019 13.0535H8.78714C8.81275 12.9511 8.8469 12.8344 8.88959 12.7234L8.53956 12.3847C8.38589 12.2339 8.30051 12.0347 8.30051 11.8241C8.30051 11.6135 8.38589 11.4143 8.53956 11.2635L8.98349 10.8338C9.13717 10.683 9.34206 10.6005 9.56118 10.6005H9.56403C9.78315 10.6005 9.98805 10.683 10.1417 10.8338L10.4946 11.1753C10.6027 11.1355 10.7166 11.1013 10.8332 11.0729V10.6773C10.8332 10.2419 11.1975 9.88902 11.6471 9.88902H12.2533C12.7029 9.88902 13.0672 10.2419 13.0672 10.6773V11.0729C13.1838 11.1013 13.2977 11.1355 13.4058 11.1781L13.7587 10.8367C14.0774 10.5265 14.5953 10.5265 14.9169 10.8367L15.3608 11.2664C15.5174 11.4172 15.5999 11.6164 15.5999 11.827C15.5999 12.0376 15.5145 12.2368 15.3608 12.3876L15.008 12.7291C15.0478 12.8344 15.0848 12.9454 15.1161 13.0592H15.5231V13.0478Z" fill="#86888C"/>
</svg>
