<svg width="40" height="40" viewBox="0 0 40 40" fill="none" xmlns="http://www.w3.org/2000/svg">
<path d="M26.0577 22.5508C24.8389 22.5508 23.872 22.8851 23.1777 23.5433C22.9309 23.7748 22.7303 24.0474 22.5657 24.3456L16.7543 21.4399C16.8777 21.0079 16.9394 20.5296 16.9394 19.9999C16.9394 19.4754 16.8777 18.9971 16.7594 18.5702L22.576 15.6645C22.72 15.9268 22.8949 16.1633 23.1006 16.3742C23.8 17.0891 24.7926 17.4491 26.0629 17.4491C27.3331 17.4491 28.3257 17.0891 29.0251 16.3742C29.704 15.6799 30.0486 14.6925 30.0486 13.4479C30.0486 12.1468 29.6783 11.1336 28.9429 10.4393C28.2486 9.78106 27.2817 9.44678 26.0629 9.44678C24.844 9.44678 23.8771 9.78106 23.1829 10.4393C22.4474 11.1388 22.0771 12.1519 22.0771 13.4479C22.0771 13.9005 22.1234 14.3119 22.2109 14.6976L16.3531 17.6291C16.2091 17.3925 16.0343 17.1816 15.8389 16.9965C15.1446 16.3382 14.1777 16.0039 12.9589 16.0039C11.74 16.0039 10.7731 16.3382 10.0789 16.9965C9.34343 17.6959 8.97314 18.7091 8.97314 20.0051C8.97314 21.2496 9.31772 22.2371 9.99657 22.9314C10.696 23.6462 11.6886 24.0062 12.9589 24.0062C14.2291 24.0062 15.2217 23.6462 15.9211 22.9314C16.0806 22.7668 16.2246 22.5868 16.348 22.3914L22.2109 25.3228C22.1234 25.6982 22.0771 26.1148 22.0771 26.5571C22.0771 27.8016 22.4217 28.7891 23.1006 29.4834C23.8 30.1982 24.7926 30.5582 26.0629 30.5582C27.3331 30.5582 28.3257 30.1982 29.0251 29.4834C29.704 28.7891 30.0486 27.8016 30.0486 26.5571C30.0486 25.2559 29.6783 24.2428 28.9429 23.5485C28.2434 22.8851 27.2766 22.5508 26.0577 22.5508ZM26.0577 10.4753C28.0223 10.4753 29.0149 11.4782 29.0149 13.4479C29.0149 14.4148 28.768 15.1605 28.2846 15.6542C27.7857 16.1633 27.04 16.4205 26.0577 16.4205C25.0754 16.4205 24.3297 16.1633 23.8309 15.6542C23.3474 15.1553 23.1006 14.4148 23.1006 13.4479C23.1006 11.4782 24.0983 10.4753 26.0577 10.4753ZM12.9537 22.9776C11.9714 22.9776 11.2257 22.7205 10.7269 22.2114C10.2434 21.7125 9.99657 20.9719 9.99657 20.0051C9.99657 18.0302 10.9891 17.0325 12.9537 17.0325C14.296 17.0325 15.1857 17.5005 15.6126 18.4313C15.6229 18.4725 15.6331 18.5136 15.6537 18.5548C15.664 18.5702 15.6743 18.5856 15.6846 18.6062C15.8337 19.0022 15.9109 19.4702 15.9109 20.0102C15.9109 20.5759 15.8286 21.0594 15.6589 21.4708C15.6589 21.4759 15.6537 21.4759 15.6537 21.4811C15.6434 21.5068 15.6331 21.5274 15.6229 21.5531C15.5097 21.8102 15.3606 22.0365 15.1754 22.2216C14.6817 22.7205 13.936 22.9776 12.9537 22.9776ZM28.2846 28.7633C27.7857 29.2725 27.04 29.5296 26.0577 29.5296C25.0754 29.5296 24.3297 29.2725 23.8309 28.7633C23.3474 28.2645 23.1006 27.5239 23.1006 26.5571C23.1006 26.0634 23.1623 25.6314 23.2857 25.2559C23.296 25.2302 23.3063 25.2096 23.3114 25.1839C23.6971 24.1194 24.6177 23.5794 26.0577 23.5794C28.0223 23.5794 29.0149 24.5822 29.0149 26.5519C29.0149 27.5239 28.768 28.2645 28.2846 28.7633Z" fill="#86888C"/>
<path d="M20 38C14.2349 38 9.776 36.5189 6.74171 33.5977C3.59429 30.5634 2 25.9914 2 20C2 14.0137 3.59429 9.43657 6.74171 6.40229C9.77086 3.48114 14.2349 2 20 2C25.7651 2 30.224 3.48114 33.2583 6.40229C36.4057 9.43657 38 14.0086 38 20C38 25.9914 36.4057 30.5634 33.2583 33.5977C30.224 36.5189 25.7651 38 20 38ZM20 3.02857C14.5074 3.02857 10.2903 4.412 7.45657 7.14286C4.52 9.97143 3.02857 14.3017 3.02857 20C3.02857 25.6983 4.52 30.0286 7.45657 32.8571C10.2903 35.588 14.5126 36.9714 20 36.9714C25.4874 36.9714 29.7097 35.588 32.5434 32.8571C35.48 30.0286 36.9714 25.6983 36.9714 20C36.9714 14.3017 35.48 9.97143 32.5434 7.14286C29.7097 4.41714 25.4874 3.02857 20 3.02857Z" fill="#86888C"/>
</svg>
