<svg width="20" height="20" viewBox="0 0 20 20" fill="none" xmlns="http://www.w3.org/2000/svg">
<path fill-rule="evenodd" clip-rule="evenodd" d="M17.6975 12.9596V5.51436C17.6975 4.49232 16.8328 3.65885 15.7699 3.65885H4.61042C3.5476 3.65885 2.68057 4.48999 2.68057 5.51436V12.9596C2.68057 13.856 3.28656 14.6056 4.15359 14.7756C4.31208 14.8082 4.42629 14.9432 4.42629 15.0992V16.9011C4.42629 17.127 4.65936 17.3388 4.90409 17.3388C4.98566 17.3388 5.15348 17.3388 5.32362 17.12L7.08565 14.9409C7.15091 14.8594 7.25113 14.8151 7.35369 14.8151H15.7653C16.8328 14.8128 17.6975 13.9817 17.6975 12.9596ZM15.7699 3C17.208 3 18.3804 4.1268 18.3804 5.51436V12.9596C18.3804 14.3472 17.208 15.474 15.7699 15.474H7.52383L5.86901 17.5204C5.62428 17.837 5.30031 18 4.90642 18C4.27712 18 3.74572 17.4971 3.74572 16.9035V15.3553C2.70388 15.0247 2 14.0771 2 12.9596V5.51436C2 4.1268 3.17236 3 4.61042 3H15.7699ZM5.94826 8.96461C6.54259 9.1951 7.28376 9.47913 7.28376 10.443C7.28376 11.295 6.67777 11.784 5.62428 11.784C5.09754 11.784 4.64538 11.6699 4.46125 11.6024C4.34238 11.5605 4.27479 11.4347 4.30509 11.3137L4.34938 11.1344C4.36569 11.0669 4.41231 11.011 4.4729 10.9784C4.53583 10.9435 4.60809 10.9365 4.67568 10.9575C5.30731 11.1507 6.06013 11.1414 6.34914 10.9505C6.43538 10.8969 6.57522 10.7596 6.57522 10.4523C6.57522 9.97268 6.24426 9.82136 5.65691 9.59553C5.07889 9.37203 4.36103 9.09266 4.36103 8.18237C4.36103 7.79125 4.49854 7.46531 4.75958 7.24181C5.20242 6.86233 6.00885 6.80413 6.87822 7.04858C7.00874 7.0835 7.08798 7.21388 7.05535 7.34658L7.01107 7.51886C6.99242 7.58404 6.95047 7.63992 6.88987 7.67251C6.82927 7.70511 6.75935 7.71442 6.69176 7.69579C6.44004 7.62129 6.18133 7.58404 5.91796 7.58172C5.06258 7.58172 5.06258 7.98448 5.06258 8.15443C5.06258 8.5991 5.38422 8.74577 5.94826 8.96461ZM12.0501 6.98106C12.1899 6.97874 12.3042 7.09049 12.3065 7.22784V11.4487C12.3042 11.5884 12.1899 11.6978 12.0501 11.6955H11.8706C11.7308 11.6978 11.6166 11.5861 11.6143 11.4487V8.58513L10.4955 10.6362C10.4489 10.7177 10.3627 10.7689 10.2694 10.7689H10.0783C9.98275 10.7689 9.89651 10.7177 9.8499 10.6339L8.77543 8.61074V11.451C8.7731 11.5907 8.65889 11.7001 8.51905 11.6978H8.33958C8.19974 11.7001 8.08554 11.5884 8.0832 11.451V7.23017C8.0832 7.09281 8.19741 6.98339 8.33958 6.98339H8.53303C8.62859 6.98339 8.71716 7.03461 8.76145 7.11842L10.1832 9.79575L11.6446 7.11377C11.6912 7.03228 11.7774 6.98106 11.873 6.98106H12.0501ZM14.7514 8.96461C15.3458 9.1951 16.0869 9.47913 16.0869 10.443C16.0869 11.295 15.4809 11.784 14.4275 11.784C13.9007 11.784 13.4485 11.6699 13.2644 11.6024C13.1455 11.5605 13.078 11.4347 13.1083 11.3137L13.1525 11.1344C13.1689 11.0669 13.2155 11.011 13.2761 10.9784C13.339 10.9435 13.4113 10.9365 13.4788 10.9575C14.1105 11.1507 14.8633 11.1414 15.1523 10.9505C15.2385 10.8969 15.3784 10.7596 15.3784 10.4523C15.3784 9.97268 15.0474 9.82136 14.4601 9.59553C13.8821 9.37203 13.1619 9.09266 13.1619 8.18237C13.1619 7.79125 13.2994 7.46531 13.5627 7.24181C14.0056 6.86233 14.812 6.80413 15.6814 7.04858C15.8119 7.0835 15.8911 7.2162 15.8585 7.34658L15.8142 7.51886C15.7956 7.58404 15.7536 7.63992 15.693 7.67251C15.6324 7.70511 15.5602 7.71442 15.4949 7.69579C15.2432 7.62129 14.9845 7.58404 14.7235 7.58172C13.8681 7.58172 13.8681 7.98448 13.8681 8.15443C13.8634 8.5991 14.1851 8.74577 14.7514 8.96461Z" fill="#86888C"/>
</svg>
