<svg width="40" height="40" viewBox="0 0 40 40" fill="none" xmlns="http://www.w3.org/2000/svg">
<path d="M19.9974 38C8.22634 38 2 31.7788 2 20.0077C2 8.23658 8.22634 2 19.9974 2C25.7421 2 30.1953 3.48612 33.2393 6.42249C36.396 9.46648 38 14.0376 38 20.0026C38 31.7788 31.7737 38 19.9974 38ZM19.9974 3.02491C14.5295 3.02491 10.312 4.41879 7.4679 7.16043C4.52128 10.0046 3.02491 14.3246 3.02491 20.0026C3.02491 25.6806 4.52128 30.0057 7.4679 32.8447C10.312 35.5863 14.5295 36.9751 19.9974 36.9751C25.4653 36.9751 29.6828 35.5863 32.5321 32.8447C35.4838 30.0006 36.9802 25.6806 36.9802 20.0077C36.9802 14.3348 35.4838 10.0097 32.5321 7.16555C29.6828 4.41879 25.4653 3.02491 19.9974 3.02491Z" fill="#86888C"/>
<path d="M11.8651 27.4078C11.6037 27.2233 11.4756 27.0183 11.4756 26.7057C11.4858 26.3009 11.8241 25.978 12.2289 25.978C12.4236 25.9883 12.6132 26.0498 12.7772 26.1625C13.9507 26.9415 15.5957 27.7204 17.4969 27.7204C20.3411 27.7204 22.0834 26.2599 22.0834 24.0973C22.0834 22.3242 21.0944 21.0738 17.8352 20.6536L16.9999 20.5511C13.5305 20.1104 11.9163 18.4398 11.9163 15.857C11.9163 12.7823 14.1045 10.876 17.4713 10.876C19.3469 10.876 20.9406 11.3731 22.0322 12.0495C22.3704 12.2596 22.5293 12.521 22.5293 12.7823C22.5293 13.1667 22.2218 13.4844 21.8323 13.4844H21.8272C21.6427 13.4844 21.4633 13.4075 21.3045 13.3255C20.1053 12.6747 18.8549 12.2801 17.4201 12.2801C14.8424 12.2801 13.4075 13.715 13.4075 15.7238C13.4075 17.5481 14.5298 18.7217 17.5789 19.1111L18.3886 19.2136C21.9092 19.6543 23.5798 21.3249 23.5798 23.9846C23.5798 26.9825 21.4428 29.1194 17.3227 29.1194C15.1243 29.1296 13.1667 28.32 11.8651 27.4078Z" fill="#86888C"/>
<path d="M24.369 31.3281C24.0923 31.282 23.9027 31.0155 23.9488 30.7388L27.5155 9.10291C27.5616 8.82618 27.8281 8.63657 28.1048 8.6827C28.3815 8.72882 28.5712 8.99529 28.525 9.27202L24.9583 30.9079C24.9122 31.1846 24.6457 31.3742 24.369 31.3281Z" fill="#86888C"/>
</svg>
