<svg width="40" height="40" viewBox="0 0 40 40" fill="none" xmlns="http://www.w3.org/2000/svg">
<path d="M6.61877 31.7611C6.20354 31.468 6 31.1424 6 30.6457C6.01628 30.0025 6.55363 29.4896 7.19683 29.4896C7.50621 29.5059 7.80745 29.6036 8.06798 29.7827C9.93243 31.0202 12.5459 32.2578 15.5665 32.2578C20.0851 32.2578 22.8533 29.9374 22.8533 26.5016C22.8533 23.6846 21.2819 21.698 16.1038 21.0304L14.7767 20.8676C9.26481 20.1674 6.70018 17.5132 6.70018 13.4098C6.70018 8.52479 10.1767 5.49609 15.5258 5.49609C18.5056 5.49609 21.0377 6.28584 22.7718 7.36054C23.3092 7.69434 23.5616 8.10957 23.5616 8.52479C23.5616 9.13542 23.0731 9.6402 22.4543 9.6402H22.4462C22.1531 9.6402 21.8681 9.51808 21.6157 9.38781C19.7106 8.35382 17.724 7.72691 15.4443 7.72691C11.3491 7.72691 9.06941 10.0066 9.06941 13.1981C9.06941 16.0965 10.8524 17.961 15.6967 18.5798L16.9831 18.7426C22.5764 19.4428 25.2306 22.097 25.2306 26.3225C25.2306 31.0854 21.8355 34.4804 15.2896 34.4804C11.7969 34.4967 8.68675 33.2103 6.61877 31.7611Z" fill="#86888C"/>
<path d="M26.4848 37.989C26.0451 37.9157 25.7439 37.4924 25.8171 37.0527L31.4837 2.6786C31.557 2.23895 31.9804 1.93771 32.42 2.01098C32.8597 2.08426 33.1609 2.50763 33.0876 2.94728L27.421 37.3214C27.3478 37.761 26.9244 38.0623 26.4848 37.989Z" fill="#86888C"/>
</svg>
