<svg width="20" height="20" viewBox="0 0 20 20" fill="none" xmlns="http://www.w3.org/2000/svg">
<path fill-rule="evenodd" clip-rule="evenodd" d="M10.8014 10.9425C10.9448 10.8014 11.0154 10.5555 11.0154 10.2163C11.0154 9.87706 10.9425 9.63119 10.7991 9.48776C10.6602 9.34889 10.4303 9.27832 10.1138 9.27832C9.79966 9.27832 9.56744 9.34661 9.43085 9.48776C9.2897 9.63119 9.21685 9.87706 9.21685 10.2163C9.21685 10.5555 9.2897 10.7991 9.42857 10.9425C9.56517 11.0814 9.79738 11.152 10.1138 11.152C10.4303 11.152 10.6625 11.0814 10.8014 10.9425ZM10.1138 8.58623C10.6079 8.58623 10.9926 8.72282 11.259 8.99146C11.5367 9.26921 11.6779 9.68355 11.6779 10.2163C11.6779 10.7513 11.5367 11.1633 11.2567 11.4411C10.9903 11.7075 10.6056 11.8418 10.1116 11.8418C9.61753 11.8418 9.23278 11.7052 8.96642 11.4411C8.69095 11.1611 8.5498 10.7513 8.5498 10.2163C8.5498 9.68355 8.68867 9.26921 8.96642 8.99146C9.23506 8.72282 9.62208 8.58623 10.1138 8.58623ZM11.0381 3.85771H9.22368C9.29198 4.25157 9.34434 4.5885 9.35117 4.6181C9.36027 4.66818 9.41719 4.90268 9.51736 4.90268H10.6557C10.7285 4.90268 10.7763 4.79567 10.8014 4.70461C10.8674 4.4724 10.963 4.1309 11.0381 3.85771ZM7.95105 2.69209C7.76665 2.68981 7.62094 2.53273 7.62322 2.34149C7.6255 2.15026 7.74616 2.00683 7.96016 2H8.26067C8.59989 2 8.88902 2.23677 8.98236 2.59192C9.01195 2.70803 9.05521 2.91975 9.10074 3.16335H11.4775C11.5822 3.16335 11.6801 3.21343 11.7439 3.29994C11.8076 3.38645 11.8281 3.49801 11.7985 3.60501C11.7985 3.60501 11.5663 4.45418 11.4411 4.89585C11.3204 5.33068 11.0245 5.59249 10.6579 5.59249H9.51964C9.03699 5.59249 8.7547 5.14172 8.6955 4.72282C8.6568 4.48378 8.5794 4.01252 8.50199 3.58224C8.49972 3.57541 8.49972 3.56858 8.49744 3.55948C8.43597 3.21799 8.37678 2.90837 8.34035 2.77177C8.31986 2.68981 8.25384 2.68981 8.2584 2.68981C8.09676 2.69437 7.95105 2.69209 7.95105 2.69209ZM9.56289 5.89983C9.572 5.89983 9.57883 5.90211 9.58793 5.90211C9.6494 5.90438 9.89528 5.92943 9.89528 6.23449C9.89528 6.54183 9.65168 6.56688 9.59021 6.56688H9.55834C9.49459 6.5646 9.25327 6.54183 9.25327 6.23221C9.25327 5.92487 9.49232 5.90211 9.55606 5.89983H9.56289ZM10.5851 5.89983C10.5942 5.89983 10.601 5.90211 10.6101 5.90211C10.6716 5.90438 10.9175 5.92943 10.9175 6.23449C10.9175 6.54183 10.6739 6.56688 10.6124 6.56688H10.5851C10.5191 6.5646 10.28 6.54183 10.28 6.23221C10.28 5.92487 10.5191 5.90211 10.5828 5.89983H10.5851ZM15.3523 17.2669H17.333V10.5623H15.3523V17.2669ZM14.6898 17.2669V16.5202V7.74616C14.6784 7.74161 14.5737 7.65737 14.4508 7.65737H5.73136C5.60842 7.65737 5.50142 7.73933 5.48549 7.77348L5.49004 17.3011L7.3045 17.2943V13.1508C7.3045 12.9596 7.45248 12.8048 7.63688 12.8048H12.5635C12.7479 12.8048 12.8958 12.9596 12.8958 13.1508V17.276L14.6898 17.2669ZM12.2288 17.2783V13.4991H7.97154V17.292L12.2288 17.2783ZM2.66477 17.2669H4.64542V10.5623H2.66477V17.2669ZM17.6676 9.87023C17.852 9.87023 18 10.025 18 10.2163V17.613C18 17.8042 17.8497 18 17.6653 18H2.33238C2.14798 18 2 17.8042 2 17.613V10.2163C2 10.0228 2.14798 9.87023 2.33238 9.87023H4.82755V7.74616C4.82755 7.32954 5.251 6.96528 5.73364 6.96528H14.4508C14.9334 6.96528 15.3569 7.32954 15.3569 7.74616V9.86796H17.6676V9.87023Z" fill="#86888C"/>
</svg>
