<svg width="24" height="24" viewBox="0 0 24 24" fill="none" xmlns="http://www.w3.org/2000/svg">
<path fill-rule="evenodd" clip-rule="evenodd" d="M17.4883 18.2612L17.4968 10.2714H5.83653V18.2612C5.83653 18.3693 5.85361 18.4604 5.85645 18.5628H17.4683C17.474 18.4604 17.4883 18.3665 17.4883 18.2612ZM14.5888 21.1692C16.0627 21.1692 16.9903 20.5546 17.3346 19.3908H5.99587C6.12392 19.8176 6.32024 20.179 6.60763 20.455C7.10272 20.9273 7.82544 21.1692 8.75871 21.1692H14.5888ZM6.61332 7.85005C6.21212 8.23417 5.97027 8.7691 5.87921 9.4406H17.457C17.3175 8.36506 16.7911 7.66226 15.8863 7.34073C15.6815 7.483 15.4311 7.56551 15.1636 7.56551H8.09859C7.8482 7.56551 7.61773 7.49154 7.4214 7.36634C7.11125 7.48584 6.83241 7.63949 6.61332 7.85005ZM7.66041 3.26618V6.29933C7.66041 6.54119 7.85674 6.73752 8.10144 6.73752H15.1665C15.4083 6.73752 15.6075 6.54119 15.6075 6.29933V3.26618C15.6075 3.02433 15.4112 2.828 15.1665 2.828H8.09859C7.85674 2.828 7.66041 3.02433 7.66041 3.26618ZM16.3843 6.64931C17.6419 7.19277 18.3333 8.37929 18.3333 10.0467L18.3248 18.264C18.3248 20.6371 16.9619 22 14.5888 22H8.75871C7.60065 22 6.68445 21.6813 6.02717 21.0525C5.34713 20.3981 5 19.4591 5 18.2612V10.0467C5 8.84877 5.34713 7.9098 6.03286 7.25537C6.27756 7.02205 6.57348 6.84564 6.89501 6.69768C6.85233 6.56964 6.82387 6.43875 6.82387 6.29933V3.26618C6.82387 2.56623 7.39579 2 8.09859 2H15.1636C15.8664 2 16.4383 2.56907 16.4383 3.26618V6.29933C16.4383 6.42168 16.4156 6.5355 16.3843 6.64931ZM8.94935 6.1656C8.71888 6.1656 8.53109 5.98065 8.53109 5.75018V3.81534C8.53109 3.58486 8.71888 3.39991 8.94935 3.39991C9.17983 3.39991 9.36762 3.58486 9.36762 3.81534V5.75018C9.36762 5.97781 9.17983 6.1656 8.94935 6.1656ZM10.7391 6.1656C10.5086 6.1656 10.3208 5.98065 10.3208 5.75018V3.81534C10.3208 3.58486 10.5086 3.39991 10.7391 3.39991C10.9696 3.39991 11.1573 3.58486 11.1573 3.81534V5.75018C11.1545 5.97781 10.9696 6.1656 10.7391 6.1656ZM12.526 6.1656C12.2955 6.1656 12.1077 5.98065 12.1077 5.75018V3.81534C12.1077 3.58486 12.2955 3.39991 12.526 3.39991C12.7564 3.39991 12.9442 3.58486 12.9442 3.81534V5.75018C12.9414 5.97781 12.7564 6.1656 12.526 6.1656ZM14.3128 6.1656C14.0824 6.1656 13.8946 5.98065 13.8946 5.75018V3.81534C13.8946 3.58486 14.0824 3.39991 14.3128 3.39991C14.5433 3.39991 14.7311 3.58486 14.7311 3.81534V5.75018C14.7311 5.97781 14.5433 6.1656 14.3128 6.1656ZM8.86968 13.6318V14.8838C8.86968 14.8838 8.90383 14.9065 8.95504 14.9065H10.9155V16.8385C10.9155 16.8897 10.9411 16.921 10.9496 16.9296H12.2101C12.2101 16.9125 12.2357 16.8897 12.2357 16.8471L12.2272 14.898H14.1791C14.2218 14.898 14.2616 14.8638 14.2702 14.8553L14.2616 13.6119C14.2616 13.5948 14.2189 13.5863 14.1876 13.5863H12.2272V11.6543C12.2272 11.6116 12.2016 11.5718 12.1845 11.5632L10.9326 11.5718C10.9326 11.5803 10.907 11.6201 10.907 11.6543V13.5948H8.9522C8.90383 13.5977 8.87822 13.6233 8.86968 13.6318ZM8.9522 15.7374C8.45141 15.7374 8.03315 15.3561 8.03315 14.8838V13.6147C8.03315 13.1509 8.45141 12.7697 8.9522 12.7697H10.0704V11.66C10.0704 11.162 10.4631 10.7495 10.9297 10.7495H12.2073C12.6654 10.7495 13.0609 11.1649 13.0609 11.66V12.764H14.1876C14.6799 12.764 15.0982 13.1538 15.0982 13.6176V14.8866C15.0982 15.3419 14.6799 15.7317 14.1791 15.7317H13.0609L13.0694 16.8499C13.0694 17.3478 12.6853 17.7604 12.2101 17.7604L10.9326 17.7519C10.4659 17.7519 10.0818 17.345 10.0818 16.8385V15.7345H8.9522V15.7374Z" fill="#86888C"/>
</svg>
