<svg width="20" height="20" viewBox="0 0 20 20" fill="none" xmlns="http://www.w3.org/2000/svg">
<path fill-rule="evenodd" clip-rule="evenodd" d="M10.3169 15.6747C11.6532 15.6246 15.3527 15.0555 15.5485 10.4339H14.9976C14.8154 10.4339 14.6652 10.286 14.6652 10.1016C14.6652 9.91943 14.8132 9.76918 14.9976 9.76918H15.5531C15.4005 5.09303 11.6897 4.47606 10.3169 4.4146V5.08847C10.3169 5.27288 10.1689 5.42086 9.98448 5.42086C9.80007 5.42086 9.65209 5.27288 9.65209 5.08847V4.40094H9.61566C8.38857 4.41232 4.43866 4.84487 4.30206 9.76918H4.96911C5.15124 9.76918 5.30149 9.91716 5.30149 10.1016C5.30149 10.2837 5.15351 10.4339 4.96911 10.4339H4.30889C4.52745 15.208 8.42045 15.6633 9.65209 15.6815V15.1147C9.65209 14.9302 9.80007 14.7823 9.98448 14.7823C10.1689 14.7823 10.3169 14.9302 10.3169 15.1147V15.6747ZM17.6521 9.76918C17.8342 9.76918 17.9845 9.91716 17.9845 10.1016C17.9845 10.2837 17.8365 10.4339 17.6521 10.4339H16.211C15.9993 15.7726 11.4825 16.2962 10.3146 16.3395V17.7692C10.3146 17.9536 10.1666 18.1016 9.9822 18.1016C9.79779 18.1016 9.64981 17.9536 9.64981 17.7692V16.344H9.64754C8.6686 16.3326 3.88317 15.9616 3.64867 10.4339H2.31686C2.13473 10.4248 1.9913 10.27 2.00041 10.0879C2.00724 9.91716 2.14611 9.77828 2.31686 9.77145H3.63729C3.78299 4.09359 8.62306 3.74755 9.61111 3.74072H9.65209V2.43395C9.65209 2.24954 9.80007 2.10156 9.98448 2.10156C10.1689 2.10156 10.3169 2.24954 10.3169 2.43395V3.74983C11.5257 3.80447 16.0539 4.38045 16.2178 9.76918H17.6521ZM9.09887 7.43793C8.9213 7.61095 8.83251 7.89553 8.83251 8.28711C8.83251 8.67868 8.9213 8.96326 9.09887 9.134C9.26962 9.3002 9.54964 9.38215 9.92528 9.38215C10.3055 9.38215 10.5855 9.29792 10.7585 9.13173C10.9361 8.96098 11.0249 8.67641 11.0249 8.28711C11.0249 7.89553 10.9361 7.61095 10.7585 7.44021C10.5855 7.27402 10.3055 7.1875 9.92756 7.1875C9.54964 7.1875 9.26962 7.27402 9.09887 7.43793ZM9.92528 10.0469C9.36979 10.0469 8.93723 9.90122 8.63672 9.61209C8.32483 9.31158 8.16774 8.86764 8.16774 8.28938C8.16774 7.71112 8.32483 7.26491 8.63672 6.96212C8.93723 6.67299 9.36979 6.52501 9.92528 6.52501C10.4831 6.52501 10.9156 6.67071 11.2184 6.96212C11.5303 7.26491 11.6897 7.71112 11.6897 8.28711C11.6897 8.86309 11.5303 9.3093 11.2184 9.61209C10.9179 9.90122 10.4831 10.0469 9.92528 10.0469ZM12.3931 12.895V12.772C12.3931 12.5034 12.3362 12.1255 12.0721 11.85C11.7762 11.5449 11.3254 11.4812 10.9998 11.4812H8.85528C8.52972 11.4812 8.07895 11.5449 7.78755 11.85C7.52346 12.1255 7.46655 12.5057 7.46655 12.772V12.895H12.3931ZM10.9998 10.8164C11.6532 10.8164 12.1882 11.0145 12.5502 11.3901C12.8826 11.7362 13.0579 12.2143 13.0579 12.772V13.3571C13.0579 13.4687 12.9691 13.5575 12.8576 13.5575H7.00212C6.89056 13.5575 6.80178 13.4687 6.80178 13.3571V12.7697C6.80178 12.212 6.97708 11.7339 7.30718 11.3878C7.66689 11.0122 8.20189 10.8141 8.853 10.8141L10.9998 10.8164Z" fill="#86888C"/>
</svg>
