<svg width="28" height="28" viewBox="0 0 28 28" fill="none" xmlns="http://www.w3.org/2000/svg">
<path fill-rule="evenodd" clip-rule="evenodd" d="M12.8111 17.0048C12.876 16.8921 12.9204 16.7794 12.958 16.6701C11.995 17.3053 10.2911 18.1385 7.82219 18.0497C8.35489 18.4526 9.27346 18.7736 10.7555 18.3604C11.7799 18.0736 12.4731 17.616 12.8111 17.0048ZM13.617 15.0857C13.7946 15.1301 13.938 15.2667 13.9892 15.4408C14.0029 15.4818 14.2795 16.4721 13.7058 17.5033C13.2277 18.3638 12.3263 18.9853 11.0286 19.3473C10.4413 19.5112 9.91885 19.5829 9.45444 19.5829C7.00948 19.5829 6.22067 17.657 6.21043 17.6331C6.14213 17.4624 6.17287 17.2711 6.28214 17.1277C6.39141 16.9843 6.57239 16.9057 6.75337 16.9331C10.9535 17.4863 13.1048 15.2496 13.1253 15.2291C13.2516 15.0993 13.4395 15.0447 13.617 15.0857ZM5.95432 14.3618C6.11481 14.3618 6.28897 14.3515 6.4597 14.331C7.01972 14.2661 7.5456 14.0749 7.5456 14.0749C7.5456 14.0749 7.9178 13.8769 7.58657 13.6003C7.58657 13.6003 7.23827 13.1973 6.65435 13.1973C6.31629 13.1973 5.9031 13.3305 5.43186 13.7573C4.93331 14.2081 5.36015 14.3618 5.95432 14.3618ZM7.90073 15.0413C7.83585 15.0652 7.23827 15.2803 6.57581 15.3554C6.36068 15.3794 6.15238 15.393 5.95774 15.393C5.05624 15.393 4.48939 15.0993 4.26743 14.5188C4.17524 14.2764 4.03523 13.6378 4.75233 12.989C5.35674 12.4461 5.99871 12.1695 6.66117 12.1695C7.39193 12.1695 7.98951 12.5314 8.3105 12.8661C8.63149 13.1666 8.79198 13.5627 8.74759 13.9622C8.69295 14.4676 8.33782 14.8227 8.02708 14.9867C7.98268 15.0071 7.94171 15.0242 7.90073 15.0413ZM10.3286 12.5417C10.0862 12.9685 10.2467 13.1222 10.5642 13.1222C10.8238 13.1222 11.1926 13.0198 11.5374 12.8832C12.0701 12.6715 12.5243 12.3266 12.5243 12.3266C12.5243 12.3266 12.8282 12.0227 12.4048 11.8109C12.4048 11.8109 12.0872 11.589 11.657 11.589C11.2574 11.589 10.7555 11.787 10.3286 12.5417ZM10.5642 14.15C9.80616 14.15 9.46469 13.7061 9.35542 13.5149C9.18126 13.2144 9.05492 12.7124 9.44078 12.0329C10.1647 10.7524 11.1413 10.5611 11.6604 10.5611C12.2682 10.5611 12.7326 10.807 12.9204 10.9197C13.4565 11.2099 13.6 11.647 13.6375 11.8861C13.74 12.5075 13.3678 12.9378 13.2482 13.0539C13.2141 13.0881 13.1765 13.1188 13.139 13.1495C13.0809 13.1939 12.555 13.5832 11.9165 13.8393C11.5579 13.9793 11.0355 14.15 10.5642 14.15ZM15.5054 19.1629C17.4655 19.279 18.7972 20.0405 19.5724 20.6688C19.4494 20.1498 19.0465 19.5317 17.9264 19.1014C16.7791 18.6575 16.0005 18.8522 15.5054 19.1629ZM23.3183 19.4088C24.4008 16.9228 24.7799 14.7545 24.9096 13.5798C23.2603 14.2866 21.1261 14.0817 19.9343 13.6208C18.7631 13.17 17.042 11.7768 16.2874 10.2777C16.0176 10.6772 15.6761 11.2065 15.321 11.8075C15.3107 11.8246 15.2937 11.8348 15.28 11.8519C15.4064 12.2617 15.5225 12.6954 15.6317 13.1461C15.7478 13.1154 15.8605 13.0812 16.0074 13.071C16.1132 13.0642 16.2122 13.0573 16.3113 13.0573C18.1723 13.0573 18.845 14.3276 18.9543 15.0686C19.067 15.5979 18.8689 15.9667 18.7357 16.1408C18.5001 16.4516 18.1211 16.6292 17.7011 16.6292C17.5611 16.6292 17.462 16.6121 17.462 16.6121C17.4279 16.6052 17.3733 16.5916 17.3425 16.5848C17.2742 16.5643 16.6664 16.3765 16.0825 16.0452C16.0756 16.0418 16.0756 16.035 16.0688 16.0316C16.0893 16.7521 16.0176 17.3736 15.8639 17.9165C16.523 17.7526 17.3289 17.7731 18.2918 18.1419C19.3436 18.5448 20.0538 19.1527 20.4021 19.9483C20.8597 20.9966 20.4875 21.9698 20.4739 22.0108C20.4056 22.1884 20.2451 22.3079 20.0607 22.3318C20.0402 22.3352 20.0197 22.3352 19.9992 22.3352C19.8353 22.3352 19.6782 22.2567 19.5826 22.1201C19.5211 22.0313 17.9606 19.9346 14.3751 20.201C14.3478 20.2044 14.3239 20.1873 14.2966 20.1839C14.1566 20.2898 14.0097 20.3854 13.8526 20.481C14.399 21.3039 15.2732 21.9562 16.564 22.4513C19.7158 23.6635 21.529 23.5133 23.3183 19.4088ZM10.8989 20.5664C14.3273 19.6068 15.7752 18.3365 14.7234 13.7266C14.078 10.8992 13.0229 8.80595 12.4048 7.74738C11.657 9.06206 10.315 10.0831 8.46075 10.7319C7.46023 11.0836 5.22015 11.2065 3.04495 10.2436C3.09617 11.6504 3.29764 14.5359 4.0967 16.6804C5.45235 20.3034 7.54901 21.4986 10.8989 20.5664ZM15.8503 14.1364C15.8878 14.3276 15.9186 14.5154 15.9459 14.6964C16.12 14.8501 16.3488 15.0071 16.5947 15.1472C17.0932 15.4306 17.6396 15.5979 17.6396 15.5979C17.6396 15.5979 17.6669 15.6013 17.7079 15.6013C17.824 15.6013 18.0323 15.5638 17.9538 15.2564C17.9538 15.2564 17.8377 14.0886 16.3181 14.0886C16.2464 14.0886 16.1678 14.092 16.0893 14.0988C15.9835 14.1022 15.9117 14.1193 15.8503 14.1364ZM25.7189 12.1934C25.8931 12.2822 26.0023 12.4597 26.0023 12.6578C26.0023 12.7876 25.9648 15.8984 24.254 19.8219C22.8642 23.0147 21.3139 24.1484 19.3914 24.1484C18.4284 24.1484 17.3733 23.865 16.1986 23.4109C14.6517 22.8167 13.5931 22.0006 12.9341 20.9454C12.4014 21.1742 11.8175 21.3757 11.1721 21.5566C10.3594 21.7854 9.59786 21.8981 8.89101 21.8981C6.24458 21.8981 4.3528 20.2932 3.13715 17.0389C1.97613 13.9315 2.00004 9.57769 2.00004 9.39329C2.00345 9.20889 2.09907 9.04157 2.25614 8.94937C2.41322 8.86059 2.60786 8.86059 2.76836 8.94937C4.95038 10.2094 7.31681 10.0353 8.11928 9.75526C9.48176 9.2806 11.2335 8.32789 11.8379 6.501C11.896 6.32001 12.0565 6.18684 12.2443 6.15611C12.4321 6.12196 12.6233 6.20391 12.736 6.36099C12.7975 6.44294 13.8936 7.96934 14.8566 10.5919C15.4951 9.57427 16.0039 8.88791 16.0313 8.85376C16.1542 8.68644 16.3625 8.61814 16.564 8.66253C16.762 8.71376 16.9157 8.88108 16.9464 9.08255C17.1581 10.4689 19.125 12.207 20.2963 12.6578C21.5085 13.1222 23.8784 13.2383 25.176 12.2446C25.3365 12.1251 25.5448 12.108 25.7189 12.1934ZM22.4442 16.5848C22.4442 16.5848 22.1744 15.9564 21.348 15.9564C21.1397 15.9564 20.8973 15.994 20.6139 16.093C19.9138 16.3389 20.6002 16.6462 21.2934 16.8067C21.7783 16.916 22.27 16.9228 22.27 16.9228C22.27 16.9228 22.6354 16.8853 22.4442 16.5848ZM20.2758 15.1232C20.648 14.9935 21.0066 14.9286 21.3446 14.9286C22.4647 14.9286 23.11 15.6286 23.3457 16.0965C23.5574 16.4687 23.5813 16.8853 23.4071 17.2472C23.2227 17.6365 22.8369 17.896 22.3759 17.9472C22.3383 17.9507 22.3042 17.9541 22.2666 17.9541H22.2564C22.1949 17.9541 21.6349 17.9438 21.0612 17.8107C20.5934 17.7014 19.3504 17.418 19.2958 16.3867C19.2855 16.1716 19.3231 15.4545 20.2758 15.1232Z" fill="#86888C"/>
</svg>
