<svg width="28" height="28" viewBox="0 0 28 28" fill="none" xmlns="http://www.w3.org/2000/svg">
<path fill-rule="evenodd" clip-rule="evenodd" d="M15.2741 6.19518H2.99131V7.36982H13.8143C14.0893 7.36982 14.31 7.63802 14.31 7.96732V13.3551C14.31 13.6878 14.0893 13.9526 13.8143 13.9526H2.99471V16.3697H24.5354C24.5422 16.3697 24.549 16.3731 24.5558 16.3731C24.6814 16.0302 24.7765 15.6738 24.8104 15.2902C24.8478 14.8828 24.8104 14.4686 24.7188 14.051H15.8105C15.5355 14.051 15.3149 13.7862 15.3149 13.4535V6.19518C15.2945 6.19857 15.2775 6.19857 15.2741 6.19518ZM24.2944 12.856C24.0432 12.3468 23.7037 11.8307 23.2725 11.3113C20.3156 7.75005 17.6913 6.67046 16.3062 6.34116V12.8526H24.2944V12.856ZM22.3831 19.2249C22.7565 18.9295 23.4015 18.3456 23.9379 17.5613H2.99471V19.4455C16.0414 19.4455 20.3869 19.4727 21.6599 19.4829C21.9078 19.4965 22.1658 19.4048 22.3831 19.2249ZM2.99471 12.7575H5.88378V8.56483H2.99471V12.7575ZM6.8717 12.7575H9.63856V8.56483H6.8751V12.7575H6.8717ZM10.6299 12.7575H13.3186V8.56483H10.6299V12.7575ZM2 16.9672C2 16.9638 2.00339 16.9571 2.00339 16.9537V13.3652C2.00339 13.3618 2 13.3584 2 13.3551V7.96732V5.59767C2 5.43811 2.05092 5.28534 2.14598 5.17331C2.23764 5.06128 2.36326 5.00017 2.49566 5.00017H15.2571C15.3929 5.00017 19.3446 4.88814 23.9753 10.466C25.3231 12.0887 25.9341 13.7523 25.795 15.4124C25.5947 17.782 23.9142 19.4455 22.933 20.223C22.5562 20.5217 22.1217 20.6813 21.6701 20.6813H21.6532C20.3665 20.6677 15.9259 20.6439 2.49905 20.6439C2.22406 20.6439 2.00339 20.3757 2.00339 20.0464V16.9774C2.00339 16.9774 2 16.9706 2 16.9672H2ZM25.3638 21.805C25.6388 21.805 25.8595 22.0732 25.8595 22.4025C25.8595 22.7318 25.6388 23 25.3638 23H2.49566C2.22067 23 2 22.7318 2 22.4025C2 22.0732 2.22067 21.805 2.49566 21.805H25.3638Z" fill="#86888C"/>
</svg>
