<svg width="20" height="20" viewBox="0 0 20 20" fill="none" xmlns="http://www.w3.org/2000/svg">
<path fill-rule="evenodd" clip-rule="evenodd" d="M10.8494 4.79678H2.66088V5.57988H9.8762C10.0595 5.57988 10.2066 5.75868 10.2066 5.97821V9.57003C10.2066 9.79183 10.0595 9.96837 9.8762 9.96837H2.66314V11.5798H17.0236C17.0282 11.5798 17.0327 11.5821 17.0372 11.5821C17.1209 11.3535 17.1843 11.1159 17.207 10.8601C17.2318 10.5885 17.207 10.3124 17.1458 10.034H11.207C11.0237 10.034 10.8766 9.85747 10.8766 9.63567V4.79678C10.863 4.79905 10.8517 4.79905 10.8494 4.79678ZM16.8629 9.23733C16.6955 8.89784 16.4691 8.55382 16.1817 8.20754C14.2104 5.83337 12.4609 5.11364 11.5374 4.89411V9.23507H16.8629V9.23733ZM15.5887 13.4832C15.8377 13.2863 16.2677 12.897 16.6253 12.3742H2.66314V13.6304C11.3609 13.6304 14.2579 13.6485 15.1066 13.6552C15.2718 13.6643 15.4439 13.6032 15.5887 13.4832ZM2.66314 9.1717H4.58919V6.37655H2.66314V9.1717ZM5.2478 9.1717H7.09237V6.37655H5.25006V9.1717H5.2478ZM7.75325 9.1717H9.54576V6.37655H7.75325V9.1717ZM2 11.9782C2 11.9759 2.00226 11.9714 2.00226 11.9691V9.57682C2.00226 9.57456 2 9.5723 2 9.57003V5.97821V4.39845C2 4.29207 2.03395 4.19023 2.09732 4.11554C2.15843 4.04085 2.24217 4.00011 2.33044 4.00011H10.8381C10.9286 4.00011 13.5631 3.92542 16.6502 7.64399C17.5487 8.72583 17.9561 9.83484 17.8633 10.9416C17.7298 12.5213 16.6094 13.6304 15.9554 14.1486C15.7041 14.3478 15.4144 14.4542 15.1134 14.4542H15.1021C14.2443 14.4451 11.284 14.4293 2.3327 14.4293C2.14938 14.4293 2.00226 14.2505 2.00226 14.031V11.9849C2.00226 11.9849 2 11.9804 2 11.9782H2ZM17.5759 15.2033C17.7592 15.2033 17.9063 15.3821 17.9063 15.6017C17.9063 15.8212 17.7592 16 17.5759 16H2.33044C2.14711 16 2 15.8212 2 15.6017C2 15.3821 2.14711 15.2033 2.33044 15.2033H17.5759Z" fill="#86888C"/>
</svg>
