<svg width="20" height="20" viewBox="0 0 20 20" fill="none" xmlns="http://www.w3.org/2000/svg">
<path fill-rule="evenodd" clip-rule="evenodd" d="M13.885 8.49516C13.7416 8.59761 13.7075 8.79795 13.8076 8.94138C13.8349 8.98008 13.8691 9.01195 13.9101 9.03472C14.3677 9.31019 14.5885 9.76551 14.5885 10.4257C14.5885 11.2795 14.2015 11.8167 13.4365 12.0194C13.284 12.0603 13.1861 12.2493 13.1861 12.3973C13.1861 14.881 10.8799 15.0746 10.1719 15.0746H10.1628V11.259C10.1787 11.243 10.2015 11.2339 10.2151 11.2157L12.0888 8.82982C12.1981 8.69095 12.1753 8.49061 12.0364 8.38133C12.0296 8.37678 12.0228 8.36995 12.0159 8.3654C11.8589 8.2584 11.6448 8.28799 11.5242 8.43369L10.1651 10.1662V8.15595C10.1651 7.97382 10.008 7.82584 9.81446 7.82584C9.62094 7.82584 9.46386 7.97382 9.46386 8.15595V12.8002L7.82015 11.243C7.68127 11.1133 7.465 11.1133 7.32385 11.2408C7.19408 11.3591 7.18497 11.5595 7.30336 11.6892C7.31019 11.6961 7.31474 11.7029 7.32157 11.7075L9.43199 13.7086C9.44109 13.7177 9.45248 13.72 9.46158 13.7268V15.0017C8.69892 14.8719 7.60615 14.4872 7.26921 13.3056C7.22368 13.1599 7.09163 13.062 6.9391 13.062C6.26522 13.0461 4.7012 12.8071 4.7012 10.9266C4.7012 10.1662 4.95162 9.59932 5.44565 9.23734C5.53671 9.17132 5.58452 9.06659 5.57997 8.95959C5.57314 8.85031 5.51167 8.75014 5.41833 8.6955C4.96301 8.42231 4.7399 7.96699 4.7399 7.3045C4.7399 6.44394 5.11554 5.9226 5.89414 5.71087C6.04439 5.66989 6.14229 5.48321 6.14229 5.33523C6.14229 2.85145 8.44849 2.65794 9.15652 2.65794C9.71884 2.65794 11.5925 2.78543 12.0592 4.42231C12.1002 4.56118 12.2322 4.66135 12.387 4.66591C13.2248 4.69323 14.6295 5.00512 14.6295 6.80592C14.6295 7.57769 14.3859 8.12863 13.885 8.49516ZM15.333 6.81047C15.333 4.92999 13.9966 4.14684 12.6625 4.0239C11.9454 2.10017 9.63005 2 9.15879 2C8.55322 2 5.5959 2.15253 5.45248 5.15993C4.53956 5.5037 4.04098 6.25726 4.04098 7.31133C4.04098 8.14912 4.3506 8.67501 4.69664 8.99829C4.23221 9.47866 4 10.1275 4 10.9311C4 12.8207 5.33409 13.5993 6.66818 13.7154C7.19408 15.1224 8.57598 15.5526 9.46386 15.6824V17.6699C9.46386 17.8543 9.62094 18 9.81446 18C10.008 18 10.1651 17.852 10.1651 17.6699V15.7371H10.1742C10.7797 15.7371 13.7371 15.5845 13.8805 12.5771C14.4952 12.3472 15.2943 11.7871 15.2943 10.4257C15.2943 9.70632 15.0734 9.13944 14.6386 8.73648C15.1007 8.2584 15.333 7.61184 15.333 6.81047Z" fill="#86888C"/>
</svg>
