<svg width="28" height="28" viewBox="0 0 28 28" fill="none" xmlns="http://www.w3.org/2000/svg">
<path d="M6.00409 21.9279C4.68485 21.9279 3.67224 21.5677 2.99122 20.8615C2.33159 20.1803 2 19.1924 2 17.9263V9.97305C2 8.70695 2.33516 7.72617 2.99122 7.05211C3.66867 6.35665 4.68485 6.00713 6.00409 6.00713L22.919 6C24.2382 6 25.2508 6.35308 25.9319 7.04498C26.5879 7.71904 26.9231 8.69982 26.9231 9.96592V17.9192C26.9231 19.1853 26.5915 20.1732 25.9319 20.8544C25.2508 21.5605 24.2347 21.9207 22.919 21.9207L6.00409 21.9279ZM22.919 6.70616L6.00409 6.7133C3.78633 6.7133 2.70954 7.77967 2.70954 9.96949V17.9227C2.70954 18.9998 2.97696 19.8237 3.50109 20.3658C4.04305 20.9293 4.88808 21.2146 6.00409 21.2146L22.919 21.2074C24.0386 21.2074 24.88 20.9221 25.422 20.3586C25.9461 19.813 26.2135 18.9927 26.2135 17.9156V9.96235C26.21 7.77254 25.1332 6.70616 22.919 6.70616Z" fill="#86888C"/>
<path d="M17.9165 24H10.9958C10.7997 24 10.6429 23.8395 10.6429 23.6469C10.6429 23.4508 10.8033 23.2938 10.9958 23.2938H17.9165C18.1126 23.2938 18.2695 23.4543 18.2695 23.6469C18.2695 23.8395 18.1126 24 17.9165 24Z" fill="#86888C"/>
</svg>
