<svg width="20" height="20" viewBox="0 0 20 20" fill="none" xmlns="http://www.w3.org/2000/svg">
<path d="M15.6187 13.8033H3.6604C2.77242 13.8033 2.09784 13.5458 1.65385 13.038C1.23685 12.5572 1.02344 11.8508 1.02344 10.9358V6.61118C1.02344 5.69622 1.23439 4.98976 1.65385 4.51142C2.09784 4.00366 2.77242 3.74609 3.6604 3.74609H15.6187C16.5067 3.74609 17.1812 4.00366 17.6252 4.51142C18.0422 4.98976 18.2557 5.69622 18.2557 6.61118V10.9358C18.2557 11.8508 18.0447 12.5572 17.6252 13.0355C17.1837 13.5458 16.5067 13.8033 15.6187 13.8033ZM3.6604 4.23669C2.19596 4.23669 1.51403 4.99221 1.51403 6.61363V10.9382C1.51403 12.5597 2.19596 13.3152 3.6604 13.3152H15.6187C17.0831 13.3152 17.7651 12.5597 17.7651 10.9382V6.61118C17.7651 4.98976 17.0831 4.23669 15.6187 4.23669H3.6604ZM12.2704 15.7461H7.00872C6.87381 15.7461 6.76342 15.6357 6.76342 15.5008C6.76342 15.3659 6.87381 15.2555 7.00872 15.2555H12.2704C12.4053 15.2555 12.5157 15.3659 12.5157 15.5008C12.5157 15.6357 12.4077 15.7461 12.2704 15.7461Z" fill="#86888C"/>
<path d="M12.4887 5.95378C12.9057 5.95378 13.3178 6.10586 13.3178 6.10586C13.4159 6.14266 13.4184 6.20643 13.3252 6.25059L12.8419 6.47626C12.7389 6.53268 12.6604 6.62835 12.631 6.74364L12.5181 7.27839C12.501 7.38877 12.5525 7.4967 12.6481 7.55312L13.1289 7.81069C13.1853 7.83767 13.2467 7.85239 13.3104 7.84994C13.3644 7.84994 13.4184 7.84012 13.4674 7.81805L13.9507 7.59237C13.9703 7.58256 13.9924 7.5752 14.0144 7.5752C14.0635 7.5752 14.0831 7.61935 14.0586 7.69049C14.0586 7.69049 13.7691 8.49262 13.2736 8.72565C13.1338 8.79188 12.9695 8.81396 12.8051 8.81396C12.3881 8.81396 11.976 8.66187 11.976 8.66187C11.927 8.6447 11.8754 8.63734 11.8239 8.63734C11.7552 8.63734 11.689 8.64961 11.6252 8.67414L8.27937 10.2367C8.17389 10.2931 8.09049 10.3839 8.04388 10.4943C8.04388 10.4943 7.75443 11.2964 7.25893 11.5294C7.11911 11.5956 6.95476 11.6177 6.79041 11.6177C6.3734 11.6177 5.9613 11.4656 5.9613 11.4656C5.86318 11.4288 5.86073 11.3651 5.95394 11.3185L6.43718 11.0928C6.5402 11.0364 6.6187 10.9407 6.64813 10.8279L6.76097 10.2956C6.77814 10.1852 6.72908 10.0772 6.63342 10.0208L6.15263 9.76326C6.09621 9.73628 6.03243 9.72156 5.97111 9.72402C5.91714 9.72402 5.86318 9.73383 5.81412 9.7559L5.33088 9.98158C5.31126 9.99139 5.28918 9.99875 5.2671 9.99875C5.21804 9.99875 5.19842 9.9546 5.22295 9.88346C5.22295 9.88346 5.5124 9.08133 6.0079 8.8483C6.14772 8.78207 6.31207 8.75999 6.47642 8.75999C6.89343 8.75999 7.30553 8.91208 7.30553 8.91208C7.35459 8.92925 7.40611 8.93661 7.45762 8.93661C7.5263 8.93661 7.59253 8.92434 7.65631 8.89981L11.0022 7.33971C11.1077 7.2833 11.1911 7.19253 11.2377 7.0797C11.2377 7.0797 11.5271 6.27757 12.0226 6.04454C12.16 5.98076 12.3243 5.95623 12.4887 5.95378ZM12.4887 5.46563C12.2311 5.46563 12.0055 5.51224 11.8141 5.60055C11.5173 5.73791 11.2499 6.00774 11.0194 6.40022C10.9261 6.55721 10.8476 6.72156 10.7814 6.89327L10.7741 6.90063L7.46498 8.44356H7.45517C7.35214 8.40676 6.92777 8.2694 6.47642 8.2694C6.22131 8.2694 5.99319 8.316 5.80185 8.40431C5.50259 8.54413 5.23521 8.81396 5.00709 9.20644C4.91142 9.37079 4.82802 9.54004 4.76179 9.71911C4.6931 9.9129 4.71273 10.1116 4.82066 10.2637C4.92368 10.4084 5.09049 10.4943 5.2671 10.4918C5.36032 10.4918 5.45353 10.4697 5.53938 10.428L5.97111 10.2269L6.24584 10.3741L6.18207 10.6807L5.75034 10.8818C5.52467 10.9873 5.38975 11.1958 5.39711 11.4215C5.40447 11.6472 5.55901 11.8458 5.79204 11.9317C5.84355 11.9513 6.30226 12.1132 6.79041 12.1132C7.04552 12.1132 7.27364 12.0666 7.46498 11.9783C7.76424 11.8385 8.03162 11.5687 8.25974 11.1762C8.35296 11.0192 8.43145 10.8548 8.49768 10.6831L8.50504 10.6758L11.8166 9.13285H11.8264C11.9294 9.16964 12.3538 9.30701 12.8051 9.30701C13.0627 9.30701 13.2884 9.2604 13.4797 9.17209C13.779 9.03227 14.0463 8.76244 14.2745 8.36997C14.3701 8.20562 14.4535 8.03636 14.5198 7.85729C14.5884 7.66351 14.5688 7.46482 14.4609 7.31273C14.3579 7.168 14.1911 7.08215 14.0144 7.0846C13.9212 7.0846 13.828 7.10668 13.7422 7.14838L13.308 7.34953L13.0333 7.20235L13.097 6.89572L13.5288 6.69458C13.7544 6.5891 13.8893 6.3806 13.8795 6.15247C13.8697 5.92434 13.7176 5.7281 13.4846 5.64225C13.438 5.62753 12.9793 5.46318 12.4887 5.46563Z" fill="#86888C"/>
</svg>
