<svg width="20" height="20" viewBox="0 0 20 20" fill="none" xmlns="http://www.w3.org/2000/svg">
<path fill-rule="evenodd" clip-rule="evenodd" d="M12.671 17.6359C13.8504 17.6359 14.5904 17.1441 14.8659 16.2128H5.79465C5.89483 16.5544 6.05422 16.8435 6.28419 17.0644C6.68038 17.4424 7.25872 17.6359 8.00555 17.6359H12.671ZM6.28647 6.9776C5.96542 7.28499 5.77188 7.71305 5.69902 8.2504H14.9661C14.8546 7.392 14.4333 6.82732 13.7093 6.57003C13.5453 6.68387 13.345 6.74991 13.1309 6.74991H7.4773C7.27693 6.74991 7.0925 6.69071 6.93539 6.59052C6.68721 6.68615 6.46407 6.80911 6.28647 6.9776ZM7.12438 3.30946V5.73667C7.12438 5.93021 7.28376 6.08732 7.4773 6.08732H13.1309C13.3245 6.08732 13.4838 5.93021 13.4838 5.73667V3.30946C13.4838 3.11592 13.3245 2.95881 13.1309 2.95881H7.4773C7.28376 2.95881 7.12438 3.11592 7.12438 3.30946ZM5.66714 15.3089C5.66714 15.3954 5.67853 15.4683 5.68308 15.5502H14.9752C14.9798 15.4683 14.9935 15.3954 14.9935 15.3089L15.0003 8.91527H5.66714V15.3089ZM14.1077 6.01673C15.1141 6.45163 15.6674 7.40111 15.6674 8.73539L15.6606 15.3112C15.6606 17.2101 14.5722 18.3008 12.671 18.3008H8.00555C7.07884 18.3008 6.34339 18.0458 5.8197 17.5426C5.27551 17.0189 5 16.2675 5 15.3112V8.73767C5 7.77908 5.27779 7.02769 5.82653 6.504C6.02234 6.31729 6.25914 6.17612 6.51644 6.05772C6.48228 5.95753 6.45951 5.85279 6.45951 5.74123V3.31402C6.45951 2.75389 6.91718 2.30078 7.47958 2.30078H13.1332C13.6956 2.30078 14.1533 2.75617 14.1533 3.31402V5.74123C14.151 5.83458 14.1328 5.92566 14.1077 6.01673ZM8.1581 5.62966C7.97367 5.62966 7.8234 5.48165 7.8234 5.29722V3.74891C7.8234 3.56676 7.97367 3.41648 8.1581 3.41648C8.34254 3.41648 8.49281 3.56448 8.49281 3.74891V5.29722C8.49281 5.48165 8.34254 5.62966 8.1581 5.62966ZM9.58802 5.62966C9.40359 5.62966 9.25331 5.48165 9.25331 5.29722V3.74891C9.25331 3.56676 9.40359 3.41648 9.58802 3.41648C9.77245 3.41648 9.92273 3.56448 9.92273 3.74891V5.29722C9.92273 5.48165 9.77245 5.62966 9.58802 5.62966ZM11.0202 5.62966C10.8358 5.62966 10.6855 5.48165 10.6855 5.29722V3.74891C10.6855 3.56676 10.8358 3.41648 11.0202 3.41648C11.2046 3.41648 11.3549 3.56448 11.3549 3.74891V5.29722C11.3526 5.48165 11.2046 5.62966 11.0202 5.62966ZM12.4501 5.62966C12.2657 5.62966 12.1154 5.48165 12.1154 5.29722V3.74891C12.1154 3.56676 12.2657 3.41648 12.4501 3.41648C12.6346 3.41648 12.7848 3.56448 12.7848 3.74891V5.29722C12.7848 5.48165 12.6346 5.62966 12.4501 5.62966ZM11.6236 13.7537C12.1678 13.419 12.4456 12.8361 12.4456 12.0233C12.4456 10.2063 11.0657 9.98087 10.4737 9.96721L10.2529 9.96493C9.66999 9.96721 8.31294 10.1721 8.31294 12.0096C8.31294 12.8361 8.58844 13.4236 9.13263 13.7537L9.29202 13.8517V14.2114C9.29202 14.3321 9.31934 14.4186 9.37171 14.4642C9.43319 14.5188 9.53565 14.5461 9.67454 14.5461H11.0953C11.191 14.5461 11.3185 14.5325 11.3891 14.4687C11.4551 14.4095 11.4688 14.2979 11.4688 14.2114V13.8517L11.6236 13.7537ZM10.4897 9.30235C10.9269 9.31145 13.1127 9.48905 13.1127 12.021C13.1127 13.2073 12.6118 13.8585 12.1336 14.2091C12.1336 14.6076 11.972 14.8353 11.8353 14.956C11.6532 15.1222 11.4027 15.2064 11.0908 15.2064H9.66999C9.35805 15.2064 9.10531 15.1222 8.92088 14.9537C8.78654 14.8353 8.62032 14.6076 8.62032 14.2114C8.14217 13.863 7.64124 13.2096 7.64124 12.0073C7.64124 9.43896 9.81116 9.30007 10.2461 9.29779L10.4897 9.30235ZM10.032 12.6494C9.96599 12.7155 9.88174 12.7473 9.79522 12.7473C9.71097 12.7473 9.62445 12.7155 9.55842 12.6494L9.3626 12.4559L9.16906 12.6494C9.10303 12.7155 9.01878 12.7473 8.93226 12.7473C8.84801 12.7473 8.76149 12.7155 8.69546 12.6494C8.56568 12.5197 8.56568 12.3102 8.69546 12.1804L8.889 11.9868L8.69546 11.7933C8.56568 11.6635 8.56568 11.454 8.69546 11.3243C8.82525 11.1945 9.037 11.1945 9.16679 11.3243L9.36032 11.5178L9.55614 11.3243C9.68593 11.1945 9.89768 11.1945 10.0275 11.3243C10.1573 11.454 10.1573 11.6635 10.0275 11.7933L9.83165 11.9868L10.0275 12.1804C10.1618 12.3102 10.1618 12.5197 10.032 12.6494ZM11.8923 11.9868L12.0881 12.1804C12.2179 12.3102 12.2179 12.5197 12.0881 12.6494C12.0221 12.7155 11.9378 12.7473 11.8513 12.7473C11.767 12.7473 11.6805 12.7155 11.6145 12.6494L11.4187 12.4559L11.2229 12.6494C11.1568 12.7155 11.0726 12.7473 10.9861 12.7473C10.9018 12.7473 10.8153 12.7155 10.7493 12.6494C10.6195 12.5197 10.6195 12.3102 10.7493 12.1804L10.9451 11.9868L10.7493 11.7933C10.6195 11.6635 10.6195 11.454 10.7493 11.3243C10.879 11.1945 11.0908 11.1945 11.2206 11.3243L11.4164 11.5178L11.6122 11.3243C11.742 11.1945 11.9537 11.1945 12.0835 11.3243C12.2133 11.454 12.2133 11.6635 12.0835 11.7933L11.8923 11.9868ZM10.8608 13.1276L10.961 13.3621C11.0339 13.5306 10.9519 13.7241 10.7834 13.797C10.7424 13.8152 10.6969 13.8221 10.6536 13.8221C10.5329 13.8221 10.4237 13.7515 10.3645 13.6399C10.3053 13.7492 10.196 13.8221 10.0753 13.8221C10.032 13.8221 9.98876 13.8129 9.9455 13.797C9.77473 13.7264 9.69503 13.5306 9.76562 13.3621L9.8658 13.1276C9.93639 12.9568 10.1345 12.8771 10.303 12.95C10.3257 12.9591 10.344 12.9773 10.3622 12.991C10.3827 12.9773 10.3986 12.9614 10.4214 12.95C10.5921 12.8794 10.7902 12.9591 10.8608 13.1276Z" fill="#86888C"/>
</svg>
