<svg width="40" height="40" viewBox="0 0 40 40" fill="none" xmlns="http://www.w3.org/2000/svg">
<path fill-rule="evenodd" clip-rule="evenodd" d="M19.7837 37.4942H19.7222C16.1627 37.4942 13.3714 36.5109 11.4405 34.58C9.49429 32.6338 8.50581 29.8118 8.49045 26.1959C8.46996 19.2561 16.8746 8.03969 19.7017 4.84891C22.5391 8.04481 30.9898 19.2663 31.0103 26.1293C31.0257 33.4328 27.041 37.4738 19.7837 37.4942ZM20.2292 3.22023C20.091 3.08195 19.9015 3 19.7017 3C19.5071 3 19.3176 3.08195 19.1742 3.22023C16.6902 5.71959 6.97444 18.2932 7.00005 26.201C7.01029 30.1703 8.18315 33.4379 10.3855 35.6453C12.5775 37.8374 15.8041 39 19.7222 39H19.7837C27.7632 38.9744 32.5161 34.1652 32.4904 26.1242C32.4751 18.3035 22.7184 5.72983 20.2292 3.22023Z" fill="#86888C"/>
</svg>
