<svg width="28" height="28" viewBox="0 0 28 28" fill="none" xmlns="http://www.w3.org/2000/svg">
<path d="M23.0342 5.43285C20.9743 3.47046 17.9778 2.47559 14.1242 2.47559C10.2706 2.47559 7.2741 3.47046 5.21768 5.43627C3.08178 7.47388 2 10.5166 2 14.479C2 18.4414 3.08178 21.4807 5.21768 23.5183C7.2741 25.4807 10.2706 26.4756 14.1242 26.4756C17.9778 26.4756 20.9743 25.4807 23.0342 23.5183C25.1701 21.4807 26.2553 18.4414 26.2553 14.479C26.2553 10.5166 25.1735 7.47046 23.0342 5.43285ZM19.9893 10.0927L12.8696 19.5149C12.7521 19.6722 12.5689 19.7645 12.3719 19.7679H12.3616C12.168 19.7679 11.9848 19.6824 11.8639 19.532L8.60818 15.4807C8.39044 15.2106 8.43537 14.814 8.7084 14.5987C8.98144 14.3833 9.38235 14.4277 9.60009 14.6978L12.3443 18.1098L18.9697 9.33713C19.1806 9.0602 19.578 9.00208 19.858 9.21063C20.1414 9.4226 20.1967 9.81576 19.9893 10.0927Z" fill="#86888C"/>
</svg>
