<svg width="24" height="24" viewBox="0 0 24 24" fill="none" xmlns="http://www.w3.org/2000/svg">
<path d="M19.5285 4.93997C17.8119 3.30465 15.3148 2.47559 12.1035 2.47559C8.89216 2.47559 6.39508 3.30465 4.6814 4.94282C2.90148 6.64083 2 9.17644 2 12.4784C2 15.7804 2.90148 18.3132 4.6814 20.0112C6.39508 21.6465 8.89216 22.4756 12.1035 22.4756C15.3148 22.4756 17.8119 21.6465 19.5285 20.0112C21.3084 18.3132 22.2128 15.7804 22.2128 12.4784C22.2128 9.17644 21.3113 6.63798 19.5285 4.93997ZM16.9911 8.82316L11.058 16.675C10.9601 16.8061 10.8074 16.883 10.6433 16.8858H10.6346C10.4733 16.8858 10.3207 16.8146 10.2199 16.6893L7.50681 13.3132C7.32536 13.0881 7.36281 12.7576 7.59034 12.5782C7.81787 12.3987 8.15196 12.4357 8.33341 12.6608L10.6202 15.5041L16.1414 8.19354C16.3171 7.96277 16.6484 7.91433 16.8816 8.08812C17.1178 8.26476 17.1639 8.59239 16.9911 8.82316Z" fill="#86888C"/>
</svg>
