<svg width="28" height="28" viewBox="0 0 28 28" fill="none" xmlns="http://www.w3.org/2000/svg">
<path fill-rule="evenodd" clip-rule="evenodd" d="M18.3043 13.4326C19.9164 13.4326 20.9171 12.4456 20.9171 10.8577C20.9171 9.26978 19.9164 8.28287 18.3043 8.28287C16.6889 8.28287 15.6882 9.26978 15.6882 10.8577C15.6882 12.4456 16.6923 13.4326 18.3043 13.4326ZM9.72831 23.8173C11.477 23.7866 14.4313 23.1104 14.4313 18.9374C14.4313 14.7644 11.4565 14.0677 9.68732 14.0199H9.13061C7.39218 14.037 4.48911 14.6858 4.48911 18.8964C4.48911 23.1275 7.43317 23.7934 9.18185 23.8241H9.37311C9.48923 23.8241 9.61901 23.8241 9.72831 23.8173ZM24.7116 5.30165C26.2144 6.8008 27.0102 8.99317 26.9999 11.6602C26.9897 17.2846 19.773 25.7775 18.7449 26.7849C18.5946 26.9317 18.4068 27 18.219 27C18.0311 27 17.8296 26.9317 17.693 26.7849C17.1773 26.2863 16.0229 24.9442 14.6806 23.0831C13.13 25.0501 10.5924 25.2789 9.75905 25.2857C9.63951 25.296 9.50289 25.296 9.37311 25.296H9.16477C7.87034 25.2789 3 24.8145 3 18.8998C3 13.0023 7.82252 12.5618 9.11354 12.5515H9.56095C9.51997 12.2271 9.49265 11.9027 9.50289 11.5987C9.50289 8.94536 10.3089 6.74957 11.8288 5.26067C13.352 3.77177 15.5959 3.00683 18.2838 3C20.9752 3.01024 23.202 3.8025 24.7116 5.30165ZM10.1996 18.169H12.6792C13.0925 18.169 13.4238 18.4969 13.4238 18.9032C13.4238 19.3096 13.089 19.6375 12.6792 19.6375H10.1996V22.0859C10.1996 22.4923 9.86492 22.8201 9.45508 22.8201C9.04181 22.8201 8.71052 22.4923 8.71052 22.0859V19.6375H6.23778C5.82452 19.6375 5.49323 19.3096 5.49323 18.9032C5.49323 18.4969 5.82794 18.169 6.23778 18.169H8.71052V15.7547C8.71052 15.3483 9.04523 15.0205 9.45508 15.0205C9.86834 15.0205 10.1996 15.3483 10.1996 15.7547V18.169Z" fill="#86888C"/>
</svg>
