<svg width="20" height="20" viewBox="0 0 20 20" fill="none" xmlns="http://www.w3.org/2000/svg">
<path fill-rule="evenodd" clip-rule="evenodd" d="M14.4815 16.1787H14.4748C14.2873 16.181 14.0663 16.1149 13.832 15.9712C13.7828 15.9416 13.736 15.9097 13.6891 15.8755C13.4346 15.6886 13.0842 15.7251 12.8721 15.9621C12.6869 16.1764 12.707 16.5047 12.919 16.6939C12.9346 16.7075 12.948 16.7189 12.9659 16.7303C13.0328 16.7805 13.1087 16.8329 13.1936 16.8853C13.3387 16.9742 13.4837 17.0426 13.6266 17.1019C13.3297 17.5897 12.8275 17.8336 12.1043 17.8336C11.2114 17.8336 10.8632 16.9537 10.7851 16.7189C10.7873 16.5183 10.7918 15.9963 10.7851 15.8664V14.8155H11.948C12.1422 15.1119 12.4904 15.3102 12.8855 15.3102C13.4971 15.3102 13.9949 14.8429 13.9949 14.2684C13.9949 13.694 13.4971 13.2267 12.8855 13.2267C12.4882 13.2267 12.1422 13.4273 11.948 13.7213H10.7851V8.12283H11.6087V9.89402C11.3297 10.0855 11.1467 10.391 11.1467 10.7352C11.1467 11.3096 11.6445 11.7792 12.2561 11.7792C12.6512 11.7792 12.9971 11.5809 13.1936 11.2868L15.3074 11.2823V12.4152C14.9904 12.5998 14.7784 12.9258 14.7784 13.2996C14.7784 13.8741 15.2739 14.3414 15.8878 14.3414C16.4971 14.3414 16.9949 13.8741 16.9949 13.2996C16.9949 12.9281 16.7851 12.6021 16.4703 12.4175V10.7352C16.4681 10.587 16.4078 10.4479 16.3007 10.3476C16.1869 10.2451 16.0418 10.1881 15.89 10.1881L13.2003 10.1926C13.0931 10.0308 12.9458 9.90314 12.7739 9.8188V8.12283H14.832C15.1534 8.12283 15.4123 7.87664 15.4123 7.57574V6.23994C15.7293 6.0553 15.9413 5.73161 15.9413 5.35776C15.9413 4.78332 15.4436 4.31602 14.832 4.31602C14.2226 4.31602 13.7248 4.78332 13.7248 5.35776C13.7248 5.72933 13.9346 6.0553 14.2494 6.23994V7.02866H10.7828V4.1405C10.7828 3.98093 10.7873 3.39737 10.7895 3.16258C10.8922 2.92551 11.2918 2.17326 12.102 2.17326C12.8253 2.17326 13.323 2.41717 13.6244 2.90499C13.0351 3.15574 12.5708 3.64128 12.3431 4.24991L12.2828 4.42088C12.1891 4.71038 12.361 5.01583 12.6668 5.10474C12.7226 5.12069 12.7806 5.12753 12.8387 5.12753C13.0864 5.12753 13.3163 4.97708 13.3945 4.74229L13.4413 4.6078C13.5306 4.36845 13.8297 3.79857 14.4793 3.81908H14.4815C17.3141 3.81908 17.5351 6.42002 17.5351 7.21558C17.5351 7.50736 17.4927 8.38726 17.0887 9.17597C16.6199 8.87735 16.0641 8.68359 15.4369 8.61749C15.1199 8.57874 14.8297 8.79985 14.7962 9.09847C14.7605 9.39709 14.9904 9.66835 15.3096 9.70254C15.9302 9.76637 16.4279 9.9852 16.7873 10.3476C17.4815 11.2207 17.5351 12.4311 17.5351 12.7845C17.5328 13.5777 17.3141 16.1354 14.4815 16.1787ZM8.29847 17.8313C7.58865 17.8313 7.09088 17.5988 6.78955 17.1292C6.95919 17.0677 7.1333 16.9879 7.30294 16.8831C7.5708 16.7166 7.64669 16.377 7.47035 16.1262C7.29401 15.8732 6.93463 15.8026 6.66678 15.969C6.43017 16.1149 6.22258 16.181 6.01946 16.181C5.99044 16.1764 5.96588 16.1878 5.9391 16.1878L5.91901 16.1855C3.08642 16.1855 2.86544 13.5846 2.86544 12.789C2.86544 12.5018 2.90785 11.6515 3.28731 10.8742C3.32526 11.4418 3.73821 11.8499 4.23821 12.0322L4.34088 12.0664C4.40115 12.0846 4.45919 12.096 4.51722 12.096C4.74937 12.0938 4.95472 11.9456 5.03508 11.7245C5.14446 11.4464 4.95472 11.1227 4.66008 11.0133C4.59088 10.9928 4.52838 10.9494 4.48597 10.8902C4.86544 10.8742 5.20696 10.7944 5.4949 10.6303C5.76946 10.473 5.85651 10.1357 5.6891 9.87807C5.52169 9.62048 5.16454 9.53842 4.88999 9.6957C4.72481 9.79144 4.49713 9.82564 4.20919 9.80284C3.93463 9.78005 3.72258 9.7071 3.57749 9.59768C2.92347 8.73146 2.86767 7.56207 2.86767 7.21558C2.86767 6.42002 3.08865 3.81908 5.9949 3.81908H5.99713C6.1958 3.82592 6.36544 3.85556 6.51722 3.93762C6.61097 3.99005 6.71365 4.01512 6.8141 4.01512C7.01276 4.01512 7.20472 3.91938 7.3141 3.7507C7.47705 3.49083 7.38776 3.15574 7.11321 3.00073C7.01276 2.94602 6.91008 2.89815 6.80294 2.8594C7.10428 2.40122 7.59758 2.17326 8.30071 2.17326C9.19356 2.17326 9.54178 3.05316 9.6199 3.28795C9.61544 3.57289 9.61544 3.85556 9.6199 4.1405V4.83575H8.56633C8.35205 4.52118 8.0016 4.33654 7.6266 4.34109C7.01499 4.34109 6.51946 4.8084 6.51946 5.38284C6.51946 5.95728 7.01499 6.42458 7.6266 6.42458C8.02392 6.42458 8.3699 6.22626 8.56633 5.92992H9.6199V7.02638H5.62213C5.41008 6.7118 5.0574 6.52716 4.6824 6.53172C4.07079 6.53172 3.57303 6.99902 3.57303 7.57346C3.57303 8.1479 4.06856 8.61521 4.6824 8.61521C5.07972 8.61521 5.42571 8.41689 5.62213 8.12055H9.6199V9.04376H7.64892C7.32749 9.04376 7.06856 9.28995 7.06856 9.59085V11.2686C6.75383 11.4532 6.54178 11.7769 6.54178 12.1508C6.54178 12.7252 7.03955 13.1925 7.64892 13.1925C8.26053 13.1925 8.75606 12.7252 8.75606 12.1508C8.75606 11.7769 8.54401 11.4509 8.22928 11.2663V10.1311H9.6199V14.5055H5.36097L5.35874 14.3733L5.35651 14.3642C5.67794 14.1818 5.89446 13.8536 5.89446 13.4752C5.89446 12.9007 5.39669 12.4311 4.78731 12.4311C4.17571 12.4311 3.68017 12.8984 3.68017 13.4752C3.68017 13.849 3.88999 14.1727 4.20472 14.3573C4.20472 14.3687 4.19803 14.3779 4.19803 14.3893L4.20696 15.0594C4.21142 15.358 4.47035 15.5974 4.78731 15.5974H9.61767V15.8618C9.61767 16.0214 9.61321 16.605 9.61097 16.8397C9.50606 17.0814 9.10651 17.8313 8.29847 17.8313Z" fill="#86888C"/>
<path d="M12.102 18C11.1087 18 10.7203 17.0586 10.6243 16.7691C10.6176 16.7508 10.6154 16.7326 10.6154 16.7121C10.6176 16.4545 10.6198 15.9849 10.6154 15.8709V14.8109C10.6154 14.7175 10.689 14.64 10.7828 14.64H11.9457C12.0015 14.64 12.0529 14.6673 12.0841 14.7152C12.2582 14.9773 12.5551 15.1346 12.8832 15.1346C13.4033 15.1346 13.8252 14.7426 13.8252 14.2616C13.8252 13.7806 13.4033 13.3908 12.8832 13.3908C12.5573 13.3908 12.2582 13.5481 12.0841 13.8102C12.0529 13.8581 12.0015 13.8855 11.9457 13.8855H10.7828C10.6913 13.8855 10.6154 13.8102 10.6154 13.7145V8.12281C10.6154 8.02935 10.689 7.95185 10.7828 7.95185H11.6064C11.698 7.95185 11.7739 8.02707 11.7739 8.12281V9.894C11.7739 9.95099 11.7471 10.0034 11.7002 10.0353C11.4547 10.204 11.3118 10.4593 11.3118 10.7351C11.3118 11.2161 11.7337 11.6082 12.2538 11.6082C12.5797 11.6082 12.8788 11.4532 13.0529 11.1911C13.0841 11.1455 13.1355 11.1158 13.1913 11.1158L15.3051 11.1113C15.3497 11.1113 15.3922 11.1295 15.4234 11.1614C15.4547 11.1933 15.4725 11.2366 15.4725 11.2822V12.4152C15.4725 12.4767 15.4413 12.5337 15.3877 12.5633C15.1087 12.7252 14.9435 13.001 14.9435 13.2996C14.9435 13.7806 15.3654 14.1727 15.8855 14.1727C16.4033 14.1727 16.8252 13.7806 16.8252 13.2996C16.8252 13.0033 16.66 12.7275 16.3855 12.5656C16.3341 12.536 16.3029 12.479 16.3029 12.4174V10.7351C16.3029 10.6371 16.2605 10.5414 16.1868 10.4753C16.1064 10.4001 16.0015 10.359 15.8922 10.359H15.8899L13.198 10.3636C13.1422 10.3636 13.0908 10.3362 13.0596 10.2884C12.9681 10.1516 12.8453 10.0422 12.7002 9.97379C12.6422 9.94643 12.6042 9.88488 12.6042 9.82106V8.12281C12.6042 8.02935 12.6779 7.95185 12.7716 7.95185H14.8297C15.0573 7.95185 15.2448 7.78316 15.2448 7.57572V6.23992C15.2448 6.17837 15.2761 6.12139 15.3297 6.09175C15.6087 5.92991 15.7739 5.65636 15.7739 5.35774C15.7739 4.87676 15.352 4.48696 14.8319 4.48696C14.314 4.48696 13.8922 4.87676 13.8922 5.35774C13.8922 5.65636 14.0573 5.92991 14.3319 6.09175C14.3832 6.12139 14.4167 6.17837 14.4167 6.23992V7.02864C14.4167 7.1221 14.3431 7.1996 14.2493 7.1996H10.7828C10.6913 7.1996 10.6154 7.12438 10.6154 7.02864V4.14048C10.6154 3.97635 10.6198 3.37683 10.6221 3.16028C10.6221 3.13748 10.6265 3.11241 10.6377 3.09189C10.7515 2.83659 11.1913 2.00456 12.102 2.00456C12.8743 2.00456 13.4346 2.2781 13.7649 2.81607C13.7917 2.85938 13.7984 2.90953 13.7828 2.9574C13.7672 3.00527 13.7337 3.04402 13.6868 3.06226C13.1422 3.29249 12.7091 3.74612 12.4971 4.30916L12.439 4.47557C12.41 4.56447 12.4189 4.65793 12.4614 4.73999C12.5105 4.83573 12.602 4.90868 12.7114 4.94059C12.7515 4.95199 12.7939 4.95883 12.8364 4.95883C13.0172 4.95883 13.1823 4.84713 13.2337 4.68984V4.68756L13.2806 4.55307C13.2806 4.55079 13.2806 4.55079 13.2828 4.54851C13.3654 4.33196 13.6935 3.62758 14.4814 3.65038H14.4926C15.1734 3.65266 15.7605 3.80083 16.2381 4.09261C16.6444 4.34107 16.9725 4.69212 17.2158 5.13663C17.6377 5.90939 17.7002 6.77105 17.7002 7.21784C17.7002 7.48226 17.6667 8.41459 17.2337 9.25801C17.2114 9.29905 17.1734 9.33096 17.1288 9.34236C17.0841 9.35375 17.0372 9.34692 16.9971 9.32184C16.5372 9.03006 16.006 8.84998 15.4167 8.78843H15.4145C15.1913 8.76108 14.9814 8.91381 14.9591 9.12124C14.948 9.21242 14.9747 9.30361 15.0328 9.37883C15.102 9.46545 15.2069 9.52244 15.323 9.53384C15.9814 9.60222 16.5105 9.83474 16.9011 10.2291L16.9145 10.2428C17.6444 11.1591 17.7002 12.422 17.7002 12.7867C17.7002 13.2267 17.6377 14.0769 17.2136 14.8451C16.9703 15.2874 16.6422 15.6361 16.2381 15.8869C15.7582 16.1832 15.1667 16.3382 14.4814 16.3496H14.4614C14.2381 16.3496 13.9904 16.2698 13.7426 16.1171C13.689 16.0852 13.6377 16.0487 13.5886 16.0123C13.4033 15.8755 13.1466 15.9028 12.9926 16.0738C12.9323 16.1445 12.9033 16.2334 12.91 16.3245C12.9167 16.418 12.9569 16.5024 13.0261 16.5639C13.035 16.573 13.0462 16.5799 13.0573 16.589C13.0596 16.589 13.0596 16.5913 13.0618 16.5913C13.1221 16.6368 13.1913 16.6847 13.2761 16.7394C13.3966 16.8124 13.5261 16.8762 13.6846 16.9423C13.7292 16.9605 13.7649 16.9993 13.7806 17.0472C13.7962 17.095 13.7895 17.1475 13.7627 17.1908C13.4368 17.7265 12.8765 18 12.102 18ZM10.948 16.687C11.0395 16.9469 11.3564 17.6604 12.102 17.6604C12.6756 17.6604 13.0931 17.5008 13.3676 17.1703C13.2739 17.1247 13.189 17.0791 13.1064 17.0289C13.1064 17.0289 13.1042 17.0289 13.1042 17.0266C13.0127 16.9674 12.9346 16.9149 12.8698 16.8648C12.8497 16.8511 12.8297 16.8352 12.8096 16.8169C12.5306 16.5662 12.5038 16.1308 12.7493 15.8458L12.7515 15.8436C13.0194 15.5427 13.4658 15.4971 13.7895 15.7342C13.8319 15.7661 13.8765 15.7957 13.9212 15.8231C14.1154 15.9439 14.3051 16.0077 14.4681 16.0077H14.4926C17.16 15.9575 17.3676 13.5298 17.3676 12.7867C17.3676 12.4516 17.3163 11.2936 16.6622 10.4639C16.6087 10.4115 16.5529 10.3613 16.4926 10.3157C16.5819 10.4343 16.631 10.5824 16.6332 10.7329V12.324C16.9636 12.5519 17.1578 12.9121 17.1578 13.2996C17.1578 13.9675 16.5864 14.5123 15.8855 14.5123C15.1823 14.5123 14.6109 13.9675 14.6109 13.2996C14.6109 12.9075 14.8073 12.5497 15.1399 12.3217V11.4532L13.2761 11.4578C13.035 11.7678 12.66 11.9501 12.2538 11.9501C11.5506 11.9501 10.9792 11.4053 10.9792 10.7374C10.9792 10.3795 11.1511 10.0399 11.4413 9.80738V8.29377H10.9524V13.5481H11.8654C12.1064 13.2358 12.4814 13.0534 12.8877 13.0534C13.5908 13.0534 14.1622 13.596 14.1622 14.2661C14.1622 14.934 13.5908 15.4788 12.8877 15.4788C12.4814 15.4788 12.1042 15.2942 11.8654 14.9842H10.9524V15.8618C10.9547 16.0054 10.9502 16.5411 10.948 16.687ZM12.9323 9.71848C13.064 9.79826 13.1823 9.90084 13.2761 10.0239L15.8832 10.0194C15.9056 10.0194 15.9301 10.0194 15.9524 10.0217C15.7515 9.94871 15.5306 9.89856 15.2895 9.87349C15.0841 9.85297 14.8966 9.75039 14.7716 9.59083C14.6556 9.44266 14.6042 9.26257 14.6265 9.08021C14.6734 8.68357 15.0417 8.40091 15.4524 8.44878C16.0261 8.50805 16.5506 8.67218 17.0149 8.9366C17.3386 8.20715 17.3654 7.44351 17.3654 7.21556C17.3654 6.45876 17.1578 3.98775 14.4792 3.98775H14.4614C13.9011 3.97863 13.6578 4.50292 13.5953 4.66705L13.5506 4.79698C13.4524 5.0956 13.1645 5.2962 12.8386 5.2962C12.7649 5.2962 12.6935 5.28708 12.6221 5.26656C12.4234 5.20957 12.2582 5.07508 12.1667 4.89728C12.0797 4.73087 12.064 4.54167 12.1221 4.36387C12.1221 4.36159 12.1221 4.36159 12.1243 4.35931L12.1846 4.18835C12.1846 4.18607 12.1846 4.18607 12.1868 4.18379C12.4056 3.60023 12.8297 3.11925 13.3698 2.83431C13.0931 2.5015 12.6779 2.33965 12.102 2.33965C11.4234 2.33965 11.0663 2.9574 10.9547 3.19675C10.9524 3.43838 10.948 3.98319 10.948 4.13592V6.85539H14.0752V6.32882C13.7448 6.10087 13.5506 5.74298 13.5506 5.35318C13.5506 4.68528 14.1221 4.14048 14.823 4.14048C15.5261 4.14048 16.0975 4.683 16.0975 5.35318C16.0975 5.74298 15.9011 6.10315 15.5685 6.3311V7.57572C15.5685 7.97008 15.2337 8.2915 14.8207 8.2915H12.9301V9.71848H12.9323ZM8.29841 18C7.53502 18 6.98145 17.7379 6.65109 17.2227C6.62207 17.1794 6.61537 17.1247 6.63323 17.0745C6.64886 17.0244 6.6868 16.9856 6.73591 16.9674C6.91225 16.9035 7.07073 16.8283 7.21805 16.7371C7.3118 16.6802 7.37207 16.5935 7.39439 16.491C7.41225 16.3975 7.39216 16.304 7.33636 16.2242C7.21136 16.0442 6.94796 15.994 6.75377 16.1126C6.49037 16.2744 6.256 16.3496 6.01939 16.3473H6.00153C5.98591 16.3496 5.96582 16.3542 5.94127 16.3542H5.92564L5.91448 16.3519C5.23145 16.3496 4.64439 16.2015 4.16448 15.9097C3.75823 15.6612 3.43011 15.3102 3.1868 14.8657C2.76493 14.0929 2.70243 13.2312 2.70243 12.7844C2.70243 12.5291 2.73368 11.6264 3.14216 10.7921C3.17564 10.7238 3.2493 10.6873 3.32296 10.701C3.39662 10.7169 3.45243 10.7807 3.45689 10.856C3.48591 11.305 3.80064 11.6834 4.29618 11.8658L4.39662 11.9C4.4368 11.9137 4.47921 11.9205 4.52162 11.9205C4.68234 11.9182 4.82743 11.8156 4.88546 11.6606V11.6584C4.92341 11.5626 4.89886 11.4737 4.8743 11.4144C4.8252 11.305 4.72921 11.2139 4.61314 11.1705C4.5127 11.1386 4.42118 11.0748 4.35645 10.9882C4.3185 10.938 4.3118 10.8696 4.33859 10.8127C4.36537 10.7557 4.42118 10.7192 4.48145 10.7146C4.85198 10.6987 5.16671 10.6189 5.41671 10.4753C5.5127 10.4206 5.57743 10.3362 5.59975 10.2359C5.62207 10.1448 5.60421 10.049 5.55064 9.96695C5.43011 9.78231 5.17118 9.72532 4.97252 9.83929C4.78055 9.95099 4.52609 9.9943 4.19796 9.96923C3.89886 9.94643 3.65555 9.86665 3.47921 9.73216C3.46582 9.72304 3.45689 9.71164 3.44573 9.70024C2.75377 8.78387 2.7002 7.56661 2.7002 7.21328C2.7002 6.76649 2.76493 5.90483 3.19573 5.13207C3.4435 4.68756 3.78055 4.33652 4.19573 4.08805C4.6868 3.79399 5.29171 3.64582 5.99484 3.64582H6.00153C6.25377 3.65494 6.4368 3.69825 6.59528 3.78487C6.66002 3.82134 6.73591 3.84186 6.8118 3.84186C6.95912 3.84186 7.09752 3.76891 7.17341 3.65266C7.22475 3.57059 7.24037 3.47485 7.21805 3.38367C7.1935 3.28337 7.12653 3.19903 7.03055 3.1466C6.93903 3.09645 6.84305 3.05314 6.74484 3.01667C6.69573 2.99843 6.66002 2.95968 6.64216 2.90953C6.62653 2.85938 6.63323 2.80467 6.66225 2.76136C6.99484 2.25759 7.54395 2 8.29841 2C9.29171 2 9.68011 2.94144 9.77609 3.23094C9.78279 3.24918 9.78502 3.2697 9.78502 3.28793C9.78055 3.56831 9.78055 3.85326 9.78502 4.13364V4.83117C9.78502 4.92463 9.71136 5.00214 9.61761 5.00214H8.56403C8.51046 5.00214 8.45912 4.97478 8.42787 4.92919C8.24484 4.66021 7.94573 4.50292 7.62654 4.50748C7.10645 4.50748 6.68234 4.89728 6.68234 5.37826C6.68234 5.85924 7.10421 6.24904 7.6243 6.24904C7.95243 6.24904 8.25153 6.09175 8.42564 5.82961C8.45689 5.78174 8.50823 5.75438 8.56403 5.75438H9.61761C9.70912 5.75438 9.78502 5.82961 9.78502 5.92535V7.0218C9.78502 7.11526 9.71136 7.19276 9.61761 7.19276H5.62207C5.5685 7.19276 5.51716 7.16541 5.48591 7.11982C5.30511 6.85539 5.01046 6.69811 4.69573 6.69811H4.6868C4.16671 6.69811 3.74261 7.0879 3.74261 7.56889C3.74261 8.04987 4.16448 8.43966 4.68457 8.43966C5.0127 8.43966 5.3118 8.28238 5.48591 8.02023C5.51716 7.97236 5.5685 7.94501 5.6243 7.94501H9.62207C9.71359 7.94501 9.78948 8.02023 9.78948 8.11597V9.03918C9.78948 9.13264 9.71582 9.21014 9.62207 9.21014H7.65109C7.42341 9.21014 7.23591 9.37883 7.23591 9.58627V11.2686C7.23591 11.3301 7.20466 11.3871 7.15109 11.4167C6.8743 11.5786 6.70912 11.8544 6.70912 12.153C6.70912 12.634 7.131 13.0238 7.65109 13.0238C8.17118 13.0238 8.59305 12.634 8.59305 12.153C8.59305 11.8544 8.42787 11.5786 8.15109 11.4167C8.09975 11.3871 8.06627 11.3301 8.06627 11.2686V10.1334C8.06627 10.0399 8.13993 9.96239 8.23368 9.96239H9.6243C9.71582 9.96239 9.79171 10.0376 9.79171 10.1334V14.5055C9.79171 14.5989 9.71805 14.6764 9.6243 14.6764H5.36091C5.26939 14.6764 5.19573 14.6012 5.1935 14.5078L5.19127 14.3892C5.18011 14.3186 5.21359 14.2479 5.27609 14.2137C5.55957 14.0541 5.72921 13.776 5.72921 13.4729C5.72921 12.9919 5.30734 12.5998 4.78725 12.5998C4.26716 12.5998 3.84528 12.9919 3.84528 13.4729C3.84528 13.7715 4.01046 14.045 4.28502 14.2069C4.34082 14.2388 4.37207 14.3003 4.36761 14.3642C4.36761 14.3801 4.36314 14.3938 4.36091 14.4052L4.36984 15.0571C4.37207 15.2623 4.55957 15.4287 4.78502 15.4287H9.61538C9.70689 15.4287 9.78279 15.5039 9.78279 15.5997V15.8641C9.78279 16.0009 9.77832 16.4271 9.77609 16.7098L9.77386 16.842C9.77386 16.8648 9.76939 16.8899 9.75823 16.9104C9.65109 17.1657 9.20912 18 8.29841 18ZM7.05734 17.2044C7.33189 17.5099 7.74037 17.6604 8.29841 17.6604C8.97698 17.6604 9.33412 17.0403 9.44573 16.8032V16.7075C9.44796 16.4431 9.45243 15.9986 9.45243 15.8641V15.7683H7.28502C7.41002 15.8208 7.52386 15.9097 7.60645 16.0282C7.71582 16.1855 7.756 16.3747 7.71805 16.5616C7.67787 16.7554 7.5618 16.9218 7.3877 17.0289C7.28278 17.095 7.17341 17.152 7.05734 17.2044ZM4.54171 15.7273C4.90555 15.9051 5.35868 16.0123 5.91895 16.0123H5.9435C5.96136 16.01 5.99261 16.0031 6.02832 16.0077C6.19796 16.0077 6.3743 15.9484 6.57966 15.8208C6.61537 15.8003 6.64886 15.782 6.6868 15.7661H4.78948C4.70243 15.7683 4.61984 15.7547 4.54171 15.7273ZM3.25823 11.3917C3.05287 12.014 3.03278 12.5952 3.03278 12.7867C3.03278 13.3475 3.14662 14.8474 4.29395 15.5883C4.13993 15.4583 4.04171 15.2714 4.03948 15.0617L4.03055 14.4462C3.70466 14.2183 3.5127 13.8604 3.5127 13.4729C3.5127 12.805 4.08412 12.2602 4.78725 12.2602C5.49037 12.2602 6.0618 12.805 6.0618 13.4729C6.0618 13.8034 5.92341 14.1111 5.68011 14.3345H9.45243V10.302H8.39662V11.1728C8.72921 11.4008 8.92341 11.7609 8.92341 12.1507C8.92341 12.8186 8.35198 13.3634 7.64886 13.3634C6.94573 13.3634 6.3743 12.8186 6.3743 12.1507C6.3743 11.7609 6.5685 11.4008 6.90109 11.1728V9.58627C6.90109 9.19191 7.23591 8.8705 7.64886 8.8705H9.45243V8.28694H5.70689C5.46582 8.59923 5.09082 8.78159 4.68457 8.78159C3.98145 8.78159 3.41002 8.23907 3.41002 7.56889C3.41002 6.8987 3.98145 6.35618 4.68457 6.35618C5.08412 6.35162 5.45912 6.53626 5.70689 6.85083H9.45466V6.09403H8.65109C8.41002 6.40633 8.03502 6.58869 7.62654 6.58869C6.92341 6.58869 6.35198 6.04616 6.35198 5.37598C6.35198 4.7058 6.92341 4.16327 7.62654 4.16327C8.02609 4.15871 8.40109 4.34335 8.64886 4.65793H9.45243V4.13364C9.44796 3.86009 9.44796 3.58199 9.45243 3.30845C9.36091 3.0463 9.04395 2.33509 8.30064 2.33509C7.7493 2.33509 7.34528 2.48098 7.07073 2.7796C7.11091 2.80011 7.15332 2.82063 7.1935 2.84343C7.37207 2.94372 7.49707 3.10329 7.54395 3.29705C7.59082 3.48169 7.55957 3.67317 7.45689 3.83502C7.3185 4.05157 7.07966 4.17923 6.81627 4.17923C6.68234 4.17923 6.55287 4.14504 6.43903 4.08121C6.32966 4.01966 6.1935 3.99003 5.99707 3.98319C3.32743 3.98547 3.03948 6.23992 3.03948 7.20872C3.03948 7.53013 3.08636 8.63798 3.7002 9.46773C3.82296 9.55435 4.006 9.60906 4.22698 9.62502C4.48368 9.64553 4.68011 9.6159 4.81403 9.5384C5.16225 9.3378 5.61984 9.44266 5.83412 9.77319C5.93903 9.93503 5.97252 10.1242 5.92787 10.3112C5.88323 10.5049 5.76046 10.6668 5.58189 10.7693C5.40332 10.8719 5.2002 10.9471 4.97475 10.9927C5.0618 11.068 5.13323 11.1637 5.18011 11.2686C5.25377 11.435 5.26046 11.615 5.19796 11.7769C5.09082 12.0641 4.82743 12.2533 4.52609 12.2556C4.4502 12.2556 4.3743 12.2442 4.29841 12.2191L4.19573 12.1849C4.1935 12.1849 4.1935 12.1849 4.19127 12.1826C3.75823 12.0345 3.43234 11.7473 3.25823 11.3917Z" fill="#86888C"/>
</svg>
