<svg width="28" height="28" viewBox="0 0 28 28" fill="none" xmlns="http://www.w3.org/2000/svg">
<path fill-rule="evenodd" clip-rule="evenodd" d="M20.8742 2H24.8048C25.4639 2 26 2.53614 26 3.19522V7.12578C26 7.78486 25.4639 8.321 24.8048 8.321H20.8742C20.2151 8.321 19.679 7.78486 19.679 7.12578V3.19522C19.679 2.53614 20.2151 2 20.8742 2ZM12.0364 2H15.967C16.6261 2 17.1622 2.53614 17.1622 3.19522V7.12578C17.1622 7.78486 16.6261 8.321 15.967 8.321H12.0364C11.3773 8.321 10.8412 7.78486 10.8412 7.12578V3.19522C10.8412 2.53614 11.3739 2 12.0364 2ZM3.19522 2H7.12578C7.78486 2 8.321 2.53614 8.321 3.19522V7.12578C8.321 7.78486 7.78486 8.321 7.12578 8.321H3.19522C2.53614 8.321 2 7.78486 2 7.12578V3.19522C2 2.53614 2.53614 2 3.19522 2ZM20.8742 10.8412H24.8048C25.4639 10.8412 26 11.3773 26 12.0364V15.967C26 16.6261 25.4639 17.1622 24.8048 17.1622H20.8742C20.2151 17.1622 19.679 16.6261 19.679 15.967V12.0364C19.679 11.3739 20.2151 10.8412 20.8742 10.8412ZM12.0364 10.8412H15.967C16.6261 10.8412 17.1622 11.3773 17.1622 12.0364V15.967C17.1622 16.6261 16.6261 17.1622 15.967 17.1622H12.0364C11.3773 17.1622 10.8412 16.6261 10.8412 15.967V12.0364C10.8412 11.3739 11.3739 10.8412 12.0364 10.8412ZM3.19522 10.8412H7.12578C7.78486 10.8412 8.321 11.3773 8.321 12.0364V15.967C8.321 16.6261 7.78486 17.1622 7.12578 17.1622H3.19522C2.53614 17.1622 2 16.6261 2 15.967V12.0364C2 11.3739 2.53614 10.8412 3.19522 10.8412ZM12.0364 19.679H15.967C16.6261 19.679 17.1622 20.2151 17.1622 20.8742V24.8048C17.1622 25.4639 16.6261 26 15.967 26H12.0364C11.3773 26 10.8412 25.4639 10.8412 24.8048V20.8742C10.8412 20.2151 11.3739 19.679 12.0364 19.679ZM20.8469 19.679H24.7775C25.4365 19.679 25.9727 20.2151 25.9727 20.8742V24.8048C25.9727 25.4639 25.4365 26 24.7775 26H20.8469C20.1878 26 19.6517 25.4639 19.6517 24.8048V20.8742C19.6517 20.2151 20.1844 19.679 20.8469 19.679ZM3.19522 19.679H7.12578C7.78486 19.679 8.321 20.2151 8.321 20.8742V24.8048C8.321 25.4639 7.78486 26 7.12578 26H3.19522C2.53614 26 2 25.4639 2 24.8048V20.8742C2 20.2151 2.53614 19.679 3.19522 19.679Z" fill="#86888C"/>
</svg>
