<svg width="24" height="24" viewBox="0 0 24 24" fill="none" xmlns="http://www.w3.org/2000/svg">
<path d="M2.00033 9.79294V9.76653C2.00691 9.30099 2.23071 8.84865 2.65857 8.41943L8.56295 2.47307L8.5827 2.45326C8.99081 2.07687 9.41537 1.9349 9.8498 2.02734C10.2447 2.11319 10.5607 2.38393 10.8174 2.64146L10.8339 2.65797L16.4848 8.68357L19.516 5.6427L19.5259 5.6328C19.9142 5.25971 20.5758 5.15075 21.0991 5.37527C21.5862 5.58327 21.8758 6.04221 21.8758 6.6002L21.8758 20.8536C21.8988 21.1838 21.7935 21.481 21.5763 21.6989C21.3591 21.9168 21.0596 22.0224 20.7338 21.996L6.46318 21.9894C5.97608 22.0026 5.53177 21.7154 5.34088 21.2663C5.10063 20.7282 5.20923 20.0315 5.5943 19.6089L5.61076 19.5891L8.40827 16.7859L2.6454 11.14L2.63882 11.1334C2.21426 10.7141 2.00033 10.2618 2.00033 9.79294Z" fill="#86888C"/>
</svg>
