<svg width="28" height="28" viewBox="0 0 28 28" fill="none" xmlns="http://www.w3.org/2000/svg">
<path d="M25.8543 16.6485V16.6802C25.8464 17.2388 25.5778 17.7816 25.0644 18.2967L17.9791 25.4323L17.9554 25.4561C17.4657 25.9078 16.9562 26.0781 16.4349 25.9672C15.961 25.8642 15.5818 25.5393 15.2738 25.2302L15.254 25.2104L8.47289 17.9797L4.83547 21.6288L4.82362 21.6406C4.35759 22.0884 3.56376 22.2191 2.9358 21.9497C2.35128 21.7001 2.00374 21.1493 2.00374 20.4798V3.37564C1.97609 2.97944 2.10247 2.62286 2.36313 2.36136C2.62379 2.09987 2.98319 1.97308 3.37418 2.00478L20.4989 2.0127C21.0834 1.99685 21.6166 2.34155 21.8456 2.88039C22.1339 3.5262 22.0036 4.36219 21.5415 4.86933L21.5218 4.8931L18.1648 8.25687L25.0802 15.032L25.0881 15.0399C25.5976 15.5431 25.8543 16.0859 25.8543 16.6485Z" fill="#86888C"/>
</svg>
