<svg width="24" height="24" viewBox="0 0 24 24" fill="none" xmlns="http://www.w3.org/2000/svg">
<path d="M22 9.04379C22 9.26332 21.9063 9.47145 21.7415 9.61686L17.4688 13.8508C17.4545 13.8622 17.4432 13.8764 17.429 13.8878C17.1903 14.0817 16.8636 14.1216 16.5852 13.9876C16.3153 13.8622 16.142 13.5913 16.142 13.2919L16.1278 11.4359L13.1847 11.4416C12.5114 11.4416 11.9659 10.8942 11.9631 10.2184V7.85773C11.9631 7.18201 12.5085 6.6346 13.1818 6.6346L16.1278 6.63175L16.142 4.77283C16.142 4.47346 16.3153 4.20261 16.5852 4.07716C16.8636 3.94601 17.1903 3.98307 17.429 4.17695C17.4432 4.18835 17.4574 4.19975 17.4688 4.21401L21.7443 8.47071C21.9062 8.61612 22 8.82425 22 9.04379ZM12.0256 14.5179V16.8758C12.0256 17.5515 11.4801 18.0989 10.8068 18.0989L7.86364 18.1018L7.84943 19.9578C7.84943 20.2572 7.67614 20.5252 7.40625 20.6506C7.12784 20.7818 6.80114 20.7419 6.5625 20.548C6.5483 20.5366 6.53409 20.5252 6.52273 20.5109L2.25568 16.2628C2.09375 16.1174 2 15.9093 2 15.6897C2 15.4702 2.09375 15.2621 2.25568 15.1166L6.52557 10.8885C6.53977 10.877 6.55114 10.8628 6.56534 10.8514C6.80398 10.6575 7.13068 10.6176 7.40625 10.7516C7.53859 10.813 7.65064 10.9111 7.72918 11.0344C7.80771 11.1577 7.84944 11.301 7.84943 11.4473L7.86364 13.3005L10.8068 13.2976C11.4801 13.2948 12.0256 13.8422 12.0256 14.5179Z" fill="#86888C"/>
</svg>
