<svg width="20" height="20" viewBox="0 0 20 20" fill="none" xmlns="http://www.w3.org/2000/svg">
<path d="M18 7.03522C18 7.21085 17.925 7.37736 17.7932 7.49368L14.375 10.8808C14.3636 10.8899 14.3545 10.9013 14.3432 10.9104C14.1523 11.0656 13.8909 11.0975 13.6682 10.9903C13.4523 10.8899 13.3136 10.6732 13.3136 10.4337L13.3023 8.94889L10.9477 8.95345C10.4091 8.95345 9.97273 8.51552 9.97046 7.97495V6.08638C9.97046 5.5458 10.4068 5.10788 10.9455 5.10788L13.3023 5.10559L13.3136 3.61846C13.3136 3.37896 13.4523 3.16228 13.6682 3.06192C13.8909 2.957 14.1523 2.98665 14.3432 3.14175C14.3545 3.15088 14.3659 3.16 14.375 3.1714L17.7955 6.57677C17.925 6.69309 18 6.8596 18 7.03522ZM10.0205 11.4145V13.3008C10.0205 13.8414 9.58409 14.2793 9.04545 14.2793L6.69091 14.2816L6.67955 15.7665C6.67955 16.006 6.54091 16.2204 6.325 16.3207C6.10227 16.4256 5.84091 16.3937 5.65 16.2386C5.63864 16.2295 5.62727 16.2204 5.61818 16.2089L2.20455 12.8104C2.075 12.6941 2 12.5276 2 12.352C2 12.1763 2.075 12.0098 2.20455 11.8935L5.62045 8.51096C5.63182 8.50183 5.64091 8.49043 5.65227 8.48131C5.84318 8.32621 6.10455 8.29427 6.325 8.40147C6.43087 8.4506 6.52051 8.52911 6.58334 8.62773C6.64617 8.72635 6.67955 8.84096 6.67955 8.95801L6.69091 10.4406L9.04545 10.4383C9.58409 10.436 10.0205 10.874 10.0205 11.4145Z" fill="#86888C"/>
</svg>
