<svg width="24" height="24" viewBox="0 0 24 24" fill="none" xmlns="http://www.w3.org/2000/svg">
<path d="M14.1465 2.06075H14.1729C14.6385 2.06734 15.0908 2.29114 15.52 2.71899L21.4664 8.62338L21.4862 8.64312C21.8626 9.05123 22.0046 9.47579 21.9121 9.91023C21.8263 10.3052 21.5555 10.6211 21.298 10.8778L21.2815 10.8943L15.2559 16.5453L18.2967 19.5764L18.3067 19.5863C18.6797 19.9747 18.7887 20.6362 18.5642 21.1595C18.3562 21.6466 17.8972 21.9362 17.3393 21.9362H3.08582C2.75565 21.9593 2.4585 21.8539 2.24059 21.6367C2.02268 21.4195 1.91702 21.12 1.94344 20.7942L1.95004 6.5236C1.93683 6.03651 2.22408 5.5922 2.67311 5.40131C3.21129 5.16105 3.90795 5.26966 4.33056 5.65473L4.35037 5.67118L7.15352 8.46869L12.7994 2.70583L12.806 2.69924C13.2253 2.27468 13.6777 2.06075 14.1465 2.06075Z" fill="#86888C"/>
</svg>
