<svg width="24" height="24" viewBox="0 0 24 24" fill="none" xmlns="http://www.w3.org/2000/svg">
<path d="M21.957 12.0127C21.957 12.2962 21.8316 12.5655 21.615 12.747L12.3105 21.6938C12.2991 21.7052 12.2877 21.7137 12.2763 21.725C11.9656 21.9773 11.538 22.0283 11.1788 21.8554C10.831 21.6967 10.6087 21.3536 10.6087 20.9738L10.6087 16.9936L3.89546 16.9936C2.82647 16.9936 1.95703 16.129 1.95703 15.0659L1.95703 8.9624C1.95703 7.89648 2.82362 7.03468 3.89546 7.03468L10.6087 7.03751L10.6087 3.029C10.6087 2.64912 10.831 2.30327 11.1788 2.14452C11.538 1.97159 11.9684 2.02262 12.2763 2.27492C12.2877 2.28342 12.2991 2.29476 12.3105 2.3061L21.615 11.2757C21.8316 11.4599 21.957 11.7292 21.957 12.0127Z" fill="#86888C"/>
</svg>
