<svg width="40" height="40" viewBox="0 0 40 40" fill="none" xmlns="http://www.w3.org/2000/svg">
<path d="M19.8995 38C19.3893 38 18.9045 37.7742 18.5779 37.3843L2.47354 20.6363C2.45313 20.6157 2.43782 20.5952 2.41741 20.5747C1.96326 20.0154 1.87141 19.2457 2.18268 18.5992C2.46844 17.9732 3.08587 17.573 3.76965 17.573H10.9339V5.48917C10.9339 3.56499 12.4903 2 14.4038 2H25.3901C27.3088 2 28.86 3.55986 28.86 5.48917L28.8549 17.573H36.0702C36.754 17.573 37.3766 17.9732 37.6623 18.5992C37.9736 19.2457 37.8817 20.0205 37.4276 20.5747C37.4123 20.5952 37.3919 20.6157 37.3715 20.6363L21.2263 37.3843C20.8946 37.7742 20.4098 38 19.8995 38Z" fill="#86888C"/>
</svg>
