<svg width="20" height="20" viewBox="0 0 20 20" fill="none" xmlns="http://www.w3.org/2000/svg">
<path d="M9.97581 2C10.2026 2 10.418 2.10034 10.5632 2.27366L17.7207 9.71722C17.7298 9.72634 17.7366 9.73546 17.7456 9.74458C17.9475 9.99316 17.9883 10.3352 17.85 10.6226C17.723 10.9008 17.4485 11.0787 17.1446 11.0787L13.9605 11.0787L13.9605 16.4493C13.9605 17.3044 13.2688 18 12.4183 18L7.53554 18C6.68281 18 5.99337 17.3067 5.99337 16.4493L5.99564 11.0787L2.78882 11.0787C2.48492 11.0787 2.20824 10.9008 2.08124 10.6226C1.9429 10.3352 1.98372 9.99088 2.18556 9.74458C2.19236 9.73546 2.20144 9.72634 2.21051 9.71722L9.38615 2.27366C9.53357 2.10034 9.74902 2 9.97581 2Z" fill="#86888C"/>
</svg>
