<svg width="40" height="40" viewBox="0 0 40 40" fill="none" xmlns="http://www.w3.org/2000/svg">
<path fill-rule="evenodd" clip-rule="evenodd" d="M29.1924 31.8788V12.0194C29.1924 10.6619 28.8902 9.70404 28.2652 9.08936C27.6403 8.46955 26.667 8.17245 25.284 8.17245H15.2134C13.8509 8.17245 12.8776 8.47979 12.2425 9.11497C11.6124 9.7399 11.3051 10.6927 11.3051 12.0245V31.8788C11.3051 33.2464 11.6073 34.2146 12.2373 34.8241C12.8571 35.4337 13.8304 35.7257 15.2134 35.7257H25.2891C26.667 35.7257 27.6454 35.4337 28.2652 34.8241C28.8902 34.2146 29.1924 33.2464 29.1924 31.8788ZM17.6261 4.43825C17.4929 4.56631 17.4673 4.8634 17.4673 5.08367V5.89812H23.0404V5.08367C23.0404 4.89414 23.0199 4.56118 22.8867 4.428C22.7484 4.29482 22.4104 4.27433 22.2208 4.27433H18.292C18.0563 4.27433 17.7592 4.29994 17.6261 4.43825ZM29.8993 7.48606C30.975 8.55151 31.4974 10.0319 31.4974 12.0194V31.8788C31.4974 33.8867 30.9698 35.3773 29.8839 36.4377C28.8082 37.4878 27.3022 38 25.284 38H15.2134C13.1952 38 11.6892 37.4878 10.6135 36.4377C9.5276 35.3722 9 33.8816 9 31.8736V12.0194C9 10.0575 9.52248 8.58224 10.5982 7.51167C11.679 6.43597 13.1747 5.90837 15.1571 5.89812V5.08367C15.1571 4.14115 15.4337 3.38304 15.9869 2.83495C16.5452 2.28173 17.3187 2 18.2817 2H22.2106C23.189 2 23.9624 2.27661 24.5105 2.8247C25.0586 3.36767 25.3352 4.1309 25.3352 5.08367V5.89812C27.3381 5.90837 28.8338 6.42573 29.8993 7.48606ZM25.2533 18.1662C25.6118 18.115 25.9653 18.2584 26.1855 18.5452C26.4058 18.827 26.4519 19.206 26.3034 19.5339L20.971 31.6892C20.7814 32.1195 20.3153 32.3603 19.8492 32.2629C19.3882 32.1707 19.0552 31.7661 19.0552 31.2948L19.0655 24.3386L15.2442 24.8611C14.8907 24.9175 14.5322 24.774 14.317 24.4872C14.0968 24.2106 14.0507 23.8367 14.1838 23.5088L19.1884 11.5327C19.3728 11.0922 19.8441 10.8463 20.3153 10.9437C20.7814 11.0359 21.1144 11.4456 21.1144 11.9169L21.0273 18.7501L25.2533 18.1662Z" fill="#86888C"/>
</svg>
