<svg width="20" height="20" viewBox="0 0 20 20" fill="none" xmlns="http://www.w3.org/2000/svg">
<path fill-rule="evenodd" clip-rule="evenodd" d="M13.9744 15.2795V6.45305C13.9744 5.84974 13.8401 5.42402 13.5623 5.15083C13.2846 4.87536 12.852 4.74331 12.2373 4.74331H7.76153C7.15595 4.74331 6.72339 4.87991 6.44109 5.16221C6.16107 5.43995 6.02447 5.8634 6.02447 6.45532V15.2795C6.02447 15.8873 6.15879 16.3176 6.43882 16.5885C6.71429 16.8594 7.14684 16.9892 7.76153 16.9892H12.2396C12.852 16.9892 13.2869 16.8594 13.5623 16.5885C13.8401 16.3176 13.9744 15.8873 13.9744 15.2795ZM8.83381 3.08367C8.77462 3.14058 8.76323 3.27262 8.76323 3.37052V3.7325H11.2402V3.37052C11.2402 3.28628 11.2311 3.1383 11.1719 3.07911C11.1104 3.01992 10.9602 3.01081 10.8759 3.01081H9.12977C9.02504 3.01081 8.893 3.0222 8.83381 3.08367ZM14.2886 4.43825C14.7666 4.91178 14.9989 5.56972 14.9989 6.45305V15.2795C14.9989 16.1719 14.7644 16.8344 14.2817 17.3056C13.8036 17.7723 13.1343 18 12.2373 18H7.76153C6.86454 18 6.19522 17.7723 5.71713 17.3056C5.23449 16.8321 5 16.1696 5 15.2772V6.45305C5 5.5811 5.23221 4.92544 5.7103 4.44963C6.19067 3.97154 6.85544 3.73705 7.73648 3.7325V3.37052C7.73648 2.95162 7.85942 2.61468 8.10529 2.37109C8.35344 2.12521 8.69721 2 9.12521 2H10.8714C11.3062 2 11.65 2.12294 11.8936 2.36653C12.1372 2.60785 12.2601 2.94707 12.2601 3.37052V3.7325C13.1503 3.73705 13.815 3.96699 14.2886 4.43825ZM12.2237 9.18498C12.383 9.16221 12.5401 9.22595 12.638 9.35344C12.7359 9.47866 12.7564 9.64713 12.6904 9.79283L10.3204 15.1952C10.2362 15.3865 10.029 15.4935 9.82186 15.4502C9.61696 15.4092 9.46898 15.2294 9.46898 15.0199L9.47353 11.9283L7.77518 12.1605C7.6181 12.1855 7.45874 12.1218 7.36312 11.9943C7.26522 11.8714 7.24474 11.7052 7.30393 11.5595L9.52817 6.23677C9.61013 6.04098 9.81958 5.9317 10.029 5.97496C10.2362 6.01594 10.3842 6.19807 10.3842 6.40751L10.3455 9.44451L12.2237 9.18498Z" fill="#86888C"/>
</svg>
