<svg width="40" height="40" viewBox="0 0 40 40" fill="none" xmlns="http://www.w3.org/2000/svg">
<path fill-rule="evenodd" clip-rule="evenodd" d="M11.8781 18.3062L14.1328 13.7115L12.5962 10.4375H11.1399C10.6127 10.4375 10.1909 9.99556 10.1909 9.44821C10.1909 8.90086 10.6177 8.45896 11.1399 8.45896H16.046C16.5733 8.45896 16.9951 8.90086 16.9951 9.44821C16.9951 9.99556 16.5682 10.4375 16.046 10.4375H14.7103L15.7899 12.7373H25.0346V8.13758C25.0346 7.67058 25.3459 7.26885 25.7828 7.16842C26.059 7.10314 28.5396 6.57588 30.0009 7.80114C30.4579 8.18278 31.0052 8.90086 31.0052 10.1412C31.0052 10.6885 30.5784 11.1304 30.0561 11.1304C29.5289 11.1304 29.102 10.6885 29.102 10.1412C29.102 9.65409 28.9464 9.46327 28.8058 9.34778C28.394 9.00129 27.5855 8.95107 26.9377 9.00129V13.4906L29.333 18.3313C29.333 18.3313 28.7053 18.5724 28.4794 18.6678C28.2634 18.7582 27.5654 19.0795 27.5654 19.0795L25.9837 15.8858L22.4535 22.9763C23.0008 23.4885 23.3122 24.2568 23.3122 25.241C23.3122 26.5516 22.7699 27.4806 21.8308 27.9175L22.3983 29.0975H23.262C23.7892 29.0975 24.211 29.5445 24.211 30.0918C24.211 30.6392 23.7842 31.0811 23.262 31.0811H21.8107C21.4492 31.0811 21.1178 30.8701 20.9621 30.5337L19.8172 28.1485C18.6472 27.9476 17.8939 27.1693 17.678 25.9691H16.3473C16.3473 25.9691 16.3724 25.5925 16.3724 24.9799C16.3674 24.3321 16.3473 23.9856 16.3473 23.9856H17.8136C17.9592 23.5738 18.1902 23.2374 18.4815 22.9662L15.1722 15.931L13.6557 19.0293C13.6557 19.0293 12.9577 18.708 12.7217 18.6125C12.5209 18.5322 11.9183 18.3213 11.8781 18.3062L8.83002 24.533C8.67938 24.8393 8.69444 25.2058 8.86517 25.5021C9.03591 25.7934 9.34724 25.9741 9.67867 25.9741H16.3523C16.0108 29.8056 13.6507 32 9.7088 32C5.4455 32 3 29.4541 3 25.01C3 20.5659 5.4455 18.02 9.7088 18.02C10.5072 18.02 11.2153 18.1355 11.8781 18.3062ZM13.6608 19.0344C15.2174 20.0186 16.1364 21.7209 16.3523 23.9906H11.2353L13.6608 19.0344ZM20.465 22.2783C20.5302 22.2783 20.5905 22.2883 20.6558 22.2933L24.4219 14.7208H16.7189L20.2792 22.2933C20.3444 22.2883 20.3997 22.2783 20.465 22.2783ZM20.465 24.2618C19.7419 24.2618 19.5209 24.4928 19.5209 25.246C19.5209 25.9942 19.7519 26.2302 20.465 26.2302C21.1931 26.2302 21.409 25.9992 21.409 25.246C21.409 24.4878 21.1931 24.2618 20.465 24.2618ZM31.5877 18.02C35.851 18.02 38.2965 20.5709 38.2965 25.01C38.2965 29.4541 35.851 32 31.5877 32C27.3244 32 24.8789 29.4541 24.8789 25.01C24.8789 22.2481 25.823 20.2194 27.5654 19.0795L30.7089 25.4368C30.8797 25.7783 31.2111 25.9741 31.5576 25.9741C31.7032 25.9741 31.8538 25.939 31.9944 25.8637C32.4615 25.6126 32.6473 25.015 32.4062 24.5279L29.3431 18.3263C30.021 18.1455 30.7591 18.02 31.5877 18.02Z" fill="#86888C"/>
</svg>
