<svg width="40" height="40" viewBox="0 0 40 40" fill="none" xmlns="http://www.w3.org/2000/svg">
<path fill-rule="evenodd" clip-rule="evenodd" d="M26.5498 38H26.3399C26.0531 38 25.838 37.9283 25.7049 37.8822C25.1468 37.662 24.7013 37.319 24.3223 36.8376C23.9588 36.3921 23.5491 35.6803 23.4365 35.4704L23.2982 35.1683C23.1651 34.8713 22.991 34.4155 22.7196 33.6987C22.2382 32.4287 20.8505 28.7777 19.9851 27.8253C19.1197 28.7777 17.7372 32.4339 17.2558 33.6987C16.9896 34.4053 16.8155 34.8559 16.6823 35.1529L16.667 35.2246L16.5338 35.4704C16.4212 35.6803 16.0115 36.3921 15.6377 36.8479C15.2741 37.3138 14.8286 37.6569 14.3268 37.8566C14.1374 37.9232 13.9223 37.9949 13.6509 37.9949H13.4461C13.1593 37.9949 12.9442 37.9232 12.8111 37.8771C12.253 37.6569 11.8075 37.3138 11.4337 36.8325C11.1418 36.474 10.8397 35.962 10.6604 35.6547L10.5785 35.5165C9.45196 33.4785 8.81188 32.0754 8.00794 29.9043C7.50611 28.5678 7.07598 27.2005 6.70217 25.7207C6.62536 25.4288 6.53319 25.0499 6.43077 24.6402L6.37957 24.4303C4.50541 21.1684 3.17916 17.9322 2.43155 14.8137C1.36645 10.3536 2.28817 6.61041 5.02772 4.28563C6.59464 2.9389 8.72483 2.13496 11.024 2.01718C13.3897 1.88917 15.8477 2.47804 18.1059 3.7326C18.7152 4.07568 19.3297 4.42389 19.9903 4.81306C20.6713 4.41877 21.2807 4.07056 21.8747 3.73772C24.1329 2.48316 26.5959 1.88917 28.9668 2.01718C31.2608 2.13496 33.391 2.9389 34.963 4.29075C37.6975 6.61553 38.6192 10.3536 37.5541 14.8137C36.8065 17.9322 35.4751 21.1633 33.6061 24.4303L33.56 24.6095C33.4576 25.0345 33.3654 25.4237 33.2784 25.736C32.9097 27.1903 32.4846 28.5575 31.9726 29.9094C31.1738 32.0703 30.5337 33.4733 29.4327 35.4653L29.3252 35.6496C29.146 35.9569 28.8439 36.4638 28.5417 36.8376C28.1782 37.3036 27.7327 37.6467 27.2309 37.8464C27.0414 37.9283 26.8212 38 26.5498 38Z" fill="#86888C"/>
</svg>
