<svg width="20" height="20" viewBox="0 0 20 20" fill="none" xmlns="http://www.w3.org/2000/svg">
<path fill-rule="evenodd" clip-rule="evenodd" d="M12.911 18H12.8177C12.6903 18 12.5947 17.9681 12.5355 17.9477C12.2874 17.8498 12.0894 17.6973 11.921 17.4834C11.7595 17.2854 11.5774 16.969 11.5273 16.8757L11.4659 16.7415C11.4067 16.6095 11.3293 16.4069 11.2087 16.0883C10.9948 15.5239 10.378 13.9012 9.9934 13.4779C9.60878 13.9012 8.9943 15.5262 8.78037 16.0883C8.66203 16.4024 8.58465 16.6026 8.52548 16.7346L8.51865 16.7665L8.45948 16.8757C8.40941 16.969 8.22734 17.2854 8.0612 17.4879C7.89962 17.695 7.70162 17.8475 7.47859 17.9363C7.39438 17.9659 7.29879 17.9977 7.17817 17.9977H7.08714C6.95969 17.9977 6.86411 17.9659 6.80494 17.9454C6.55687 17.8475 6.35887 17.695 6.19273 17.4811C6.06301 17.3218 5.92874 17.0942 5.84908 16.9577L5.81267 16.8962C5.31198 15.9904 5.0275 15.3668 4.67019 14.4019C4.44716 13.8079 4.25599 13.2002 4.08985 12.5425C4.05572 12.4128 4.01475 12.2444 3.96923 12.0623L3.94647 11.969C3.11352 10.5193 2.52407 9.08096 2.1918 7.69497C1.71842 5.71271 2.12807 4.04907 3.34565 3.01584C4.04206 2.41729 4.98881 2.05998 6.01067 2.00764C7.06211 1.95074 8.15451 2.21246 9.15816 2.77004C9.42899 2.92253 9.70209 3.07728 9.99567 3.25025C10.2984 3.07501 10.5692 2.92025 10.8332 2.77232C11.8368 2.21474 12.9315 1.95074 13.9852 2.00764C15.0048 2.05998 15.9516 2.41729 16.6502 3.01811C17.8655 4.05135 18.2752 5.71271 17.8018 7.69497C17.4695 9.08096 16.8778 10.517 16.0471 11.969L16.0267 12.0487C15.9811 12.2376 15.9402 12.4105 15.9015 12.5494C15.7376 13.1957 15.5487 13.8033 15.3211 14.4042C14.9661 15.3646 14.6816 15.9882 14.1923 16.8735L14.1445 16.9554C14.0649 17.0919 13.9306 17.3172 13.7963 17.4834C13.6347 17.6905 13.4367 17.843 13.2137 17.9317C13.1295 17.9681 13.0316 18 12.911 18Z" fill="#86888C"/>
</svg>
