<svg width="20" height="20" viewBox="0 0 20 20" fill="none" xmlns="http://www.w3.org/2000/svg">
<path fill-rule="evenodd" clip-rule="evenodd" d="M16.8163 16.7316C16.8163 16.925 16.6729 17.0958 16.509 17.0958H3.47958C3.31569 17.0958 3.17456 16.925 3.17456 16.7316V7.42839C3.17456 7.23491 3.31569 7.06418 3.47958 7.06418H7.57917V9.06504C7.57917 9.34047 7.84322 9.56354 8.16873 9.56354H11.5649C11.8905 9.56354 12.1545 9.34047 12.1545 9.06504L12.1522 7.06418H16.509C16.6729 7.06418 16.8163 7.23491 16.8163 7.42839V16.7316ZM4.30815 3.35384C4.31953 3.31515 4.32409 3.27645 4.32409 3.23775C4.32409 3.16036 4.3992 3.09662 4.49025 3.09662H7.95248L7.63836 6.06717H3.54104L4.30815 3.35384ZM15.6691 3.23775C15.6691 3.27872 15.6736 3.31742 15.6873 3.35612L16.4726 6.0649H12.0862L11.7106 3.09435H15.5006C15.594 3.09662 15.6691 3.15808 15.6691 3.23775ZM17.9704 7.20531C17.9795 7.14385 17.9795 7.08239 17.9613 7.01866L16.8459 3.16946C16.8027 2.57308 16.2177 2.09961 15.5029 2.09961H4.49253C3.7755 2.09961 3.18822 2.57535 3.14952 3.17174L2.06601 7.02321C2.06374 7.03459 2.06601 7.0437 2.06374 7.05508C2.02504 7.17572 2 7.30092 2 7.43294V16.7361C2 17.4873 2.66467 18.0996 3.48414 18.0996H16.5136C17.333 18.0996 17.9977 17.4873 17.9977 16.7361V7.43294C17.9954 7.351 17.9841 7.27815 17.9704 7.20531Z" fill="#86888C"/>
</svg>
