<svg width="40" height="40" viewBox="0 0 40 40" fill="none" xmlns="http://www.w3.org/2000/svg">
<path fill-rule="evenodd" clip-rule="evenodd" d="M29.3137 29.9078C31.6697 29.6978 35.6799 28.5045 35.6799 22.7887C35.6799 17.0986 31.6901 15.8694 29.3137 15.6389V29.9078ZM29.3137 13.3956C31.7618 13.6159 38 14.9424 38 22.7887C38 30.7734 31.5672 31.9821 29.2164 32.1562C29.0166 33.8566 28.4277 35.1985 27.3931 36.1869C26.1127 37.4059 24.315 38 21.8873 38H9.42126C6.9936 38 5.1959 37.4059 3.91549 36.1869C2.62484 34.9577 2 33.2113 2 30.8553V11.5519C2 10.9321 2.52241 10.4302 3.16261 10.4302H28.146C28.7862 10.4302 29.3086 10.9321 29.3086 11.5519V13.3956H29.3137ZM11.977 8.58131C11.977 8.19718 11.8284 7.96671 11.5467 7.55186C11.2446 7.12164 10.8707 6.58387 10.8656 5.8105C10.8604 5.02177 11.2497 4.49936 11.5314 4.11012C11.8028 3.74136 11.9821 3.49552 11.977 2.97823C11.9718 2.44046 12.4174 2.00512 12.9757 2H12.9859C13.5391 2 13.9898 2.43022 13.9949 2.95775C14.0051 4.09987 13.5083 4.78105 13.1754 5.23175C12.9501 5.53393 12.8784 5.64661 12.8835 5.79513C12.8835 5.97951 13.0013 6.15365 13.2215 6.47119C13.5493 6.94238 14 7.58771 13.9949 8.58131C13.9949 9.11908 13.5442 9.5493 12.9859 9.5493C12.4277 9.55442 11.977 9.11908 11.977 8.58131ZM16.9757 8.66838C16.9449 8.54546 16.7401 8.23304 16.6325 8.06914C16.3816 7.68502 16.1408 7.3265 16.1306 6.90141C16.1101 6.379 16.4225 5.93342 16.694 5.54417C16.7913 5.40077 16.9603 5.16517 16.9859 5.07298C16.9603 4.53521 17.3854 4.1306 17.9385 4.10499C18.4661 4.12036 18.9629 4.54033 18.9885 5.07811C19.0192 5.68758 18.6556 6.20487 18.3636 6.62484C18.3175 6.69142 18.2612 6.77337 18.21 6.85019C18.2458 6.90653 18.2868 6.96799 18.3329 7.03457C18.6044 7.44942 18.9475 7.96159 18.9834 8.52497C19.0192 9.06274 18.6044 9.52369 18.0461 9.55954C18.0205 9.55954 18 9.56466 17.9744 9.56466C17.4571 9.55442 17.0166 9.1703 16.9757 8.66838Z" fill="#86888C"/>
</svg>
