<svg width="24" height="24" viewBox="0 0 24 24" fill="none" xmlns="http://www.w3.org/2000/svg">
<path d="M19.6584 4H4.68589C3.20372 4.0029 2.0029 5.20372 2 6.68589V18.3141C2.0029 19.7963 3.20372 20.9971 4.68589 21H19.5743C21.1029 20.9971 22.3414 19.7586 22.3443 18.23V6.68589C22.3414 5.20372 21.1406 4.0029 19.6584 4ZM16.7115 5.51988C17.2133 5.51988 17.5526 5.85924 17.5526 6.36393C17.5526 6.67139 17.4308 6.86282 17.3264 6.97014C17.222 7.07746 17.0276 7.20799 16.7115 7.20799C16.3953 7.20799 16.2039 7.07746 16.0966 6.97014C15.9893 6.86282 15.8703 6.67429 15.8703 6.36393C15.8703 5.85924 16.2097 5.51988 16.7115 5.51988ZM7.64733 5.51988C8.14912 5.51988 8.48848 5.85924 8.48848 6.36393C8.48848 6.67139 8.36666 6.86282 8.26224 6.97014C8.15782 7.07746 7.96349 7.20799 7.64733 7.20799C7.33117 7.20799 7.13684 7.07746 7.03242 6.97014C6.928 6.86282 6.80618 6.67139 6.80618 6.36393C6.80618 5.85924 7.14554 5.51988 7.64733 5.51988ZM14.1155 17.6006H10.194C10.1679 17.5281 10.1592 17.412 10.1592 17.3134C10.1592 16.9364 10.2578 16.684 10.5189 16.3708L11.7139 14.9147C12.3984 14.088 12.6855 13.682 12.6855 13.1715C12.6855 12.9104 12.6043 12.7132 12.4419 12.5769C12.2534 12.4144 11.9488 12.3419 11.5079 12.3419C11.1048 12.3477 10.7016 12.3854 10.3042 12.4579V11.5066C10.7741 11.3963 11.2527 11.3383 11.7342 11.3354C12.6159 11.3354 13.1989 11.5327 13.576 11.9097C13.8632 12.1969 14.0169 12.5943 14.0169 13.1048C14.0169 13.8705 13.6746 14.4535 12.703 15.5151L11.6327 16.684H14.1155V17.6006ZM20.984 9.09913H3.36035C3.0732 9.09913 2.83825 8.9106 2.83825 8.67855C2.83825 8.44651 3.0732 8.25798 3.36035 8.25798H20.9811C21.2682 8.25798 21.5032 8.44651 21.5032 8.67855C21.5032 8.9106 21.2711 9.09913 20.984 9.09913Z" fill="#86888C"/>
</svg>
