<svg width="21" height="20" viewBox="0 0 21 20" fill="none" xmlns="http://www.w3.org/2000/svg">
<path d="M18.2005 15.1058C18.1869 14.4158 17.8504 13.7349 17.1978 13.0813C16.9545 12.8331 16.6817 12.619 16.3861 12.4414C15.8222 12.0907 15.2379 11.9632 14.6535 12.0634C14.0692 12.1636 13.4962 12.4892 12.9505 13.0358C12.8232 13.1633 12.7027 13.2977 12.5913 13.4388C12.4958 13.4935 12.1934 13.4616 11.5749 13.0358C10.861 12.5439 10.0152 11.7241 9.4422 11.1502L9.37399 11.0819C8.80102 10.508 7.98249 9.66088 7.49137 8.94582C7.06846 8.32641 7.03663 8.02353 7.08892 7.92789C7.22989 7.8163 7.36631 7.69789 7.49137 7.56808C8.03706 7.02154 8.36447 6.44767 8.46224 5.86242C8.56001 5.27716 8.43723 4.69646 8.08708 4.1317C7.90973 3.83338 7.696 3.56011 7.44817 3.31872C6.79561 2.66515 6.11578 2.32584 5.42685 2.31445H5.38592C4.68562 2.31445 3.98077 2.64921 3.28729 3.31189C3.03946 3.54873 2.80072 3.87893 2.72341 3.98824L2.70068 4.0224C2.05494 4.96062 2.07086 6.41351 2.74842 8.11235C3.45555 9.88861 4.83341 11.8334 6.73195 13.7349L6.80016 13.8032C8.6987 15.7047 10.6404 17.0847 12.4139 17.793C13.2825 18.1391 14.0874 18.3145 14.7899 18.3145C15.4607 18.3145 16.0405 18.1573 16.4975 17.8408C16.5043 17.8362 16.5111 17.8317 16.518 17.8248L16.5316 17.8157C16.6407 17.7383 16.9704 17.4992 17.2069 17.251C17.8776 16.5427 18.2141 15.8209 18.2005 15.1058Z" fill="#86888C"/>
<path d="M15.3015 4.38448L12.664 6.6549C12.5685 6.73688 12.4253 6.72777 12.3389 6.63441L11.6522 5.8738C11.5681 5.78043 11.4794 5.80548 11.4522 5.92846L10.6655 9.61533C10.6404 9.73831 10.72 9.82939 10.8451 9.82029L14.5785 9.5288C14.7035 9.51969 14.7377 9.43543 14.6535 9.34206L13.96 8.57235C13.8782 8.47898 13.885 8.33779 13.9782 8.25353L16.6203 5.92162C16.784 5.81687 16.784 5.59598 16.6771 5.48211L15.7381 4.43458C15.6267 4.26834 15.4107 4.26834 15.3015 4.38448Z" fill="#86888C"/>
<path d="M10.8269 10.2735C10.4881 10.278 10.2084 10.007 10.2039 9.66771C10.2039 9.61761 10.2084 9.56751 10.2198 9.51741L11.0065 5.83054C11.0543 5.60281 11.2066 5.43429 11.4112 5.37736C11.6159 5.32043 11.8319 5.3933 11.9887 5.56638L12.5322 6.16757L14.9923 4.04972C15.1424 3.90398 15.3493 3.83338 15.5562 3.8516C15.7699 3.86982 15.9655 3.97913 16.0928 4.14992L17.0136 5.17696C17.1591 5.34093 17.2274 5.55727 17.2001 5.77361C17.1751 5.97628 17.0682 6.16074 16.9022 6.28143L14.4534 8.44027L14.99 9.03691C15.1492 9.21226 15.1947 9.43543 15.1151 9.63583C15.0355 9.83623 14.8468 9.96603 14.6126 9.98425L10.8792 10.2735H10.8269ZM11.7591 6.66857L11.1907 9.33523L13.8509 9.128L13.6235 8.87751C13.3734 8.5974 13.3939 8.167 13.6736 7.9165C13.6758 7.91423 13.6781 7.91423 13.6781 7.91195L16.2269 5.6643L15.4789 4.83082L12.9573 7.00105C12.6731 7.24244 12.2502 7.21511 11.9978 6.93956L11.7591 6.66857Z" fill="#86888C"/>
</svg>
