<svg width="25" height="24" viewBox="0 0 25 24" fill="none" xmlns="http://www.w3.org/2000/svg">
<path d="M23.1936 18.3036C23.1766 17.4411 22.7559 16.59 21.9402 15.773C21.6361 15.4628 21.2951 15.1952 20.9256 14.9731C20.2208 14.5348 19.4903 14.3754 18.7599 14.5006C18.0295 14.6259 17.3133 15.0329 16.6311 15.7161C16.472 15.8755 16.3214 16.0435 16.1821 16.2199C16.0627 16.2883 15.6847 16.2484 14.9117 15.7161C14.0192 15.1012 12.962 14.0765 12.2457 13.3591L12.1605 13.2737C11.4443 12.5564 10.4211 11.4975 9.8072 10.6037C9.27857 9.8294 9.23878 9.4508 9.30414 9.33125C9.48036 9.19177 9.65088 9.04374 9.8072 8.88149C10.4893 8.19831 10.8986 7.48098 11.0208 6.74941C11.143 6.01784 10.9895 5.29197 10.5518 4.58602C10.3302 4.21312 10.063 3.87153 9.7532 3.56979C8.93751 2.75282 8.08771 2.32869 7.22655 2.31445H7.17539C6.30002 2.31445 5.41896 2.7329 4.55211 3.56125C4.24232 3.85729 3.94389 4.27005 3.84726 4.40668L3.81884 4.44938C3.01167 5.62217 3.03157 7.43828 3.87852 9.56182C4.76242 11.7821 6.48475 14.2131 8.85793 16.59L8.94319 16.6754C11.3164 19.0523 13.7435 20.7773 15.9604 21.6626C17.0461 22.0953 18.0522 22.3145 18.9304 22.3145C19.7689 22.3145 20.4936 22.118 21.0649 21.7224C21.0734 21.7167 21.0819 21.711 21.0904 21.7024L21.1075 21.6911C21.2439 21.5943 21.656 21.2954 21.9516 20.9851C22.79 20.0998 23.2107 19.1975 23.1936 18.3036Z" fill="#86888C"/>
<path d="M19.5699 4.90198L16.273 7.74001C16.1537 7.84249 15.9746 7.8311 15.8666 7.71439L15.0083 6.76364C14.9031 6.64693 14.7923 6.67824 14.7582 6.83196L13.7748 11.4406C13.7435 11.5943 13.843 11.7081 13.9993 11.6967L18.6661 11.3324C18.8224 11.321 18.8651 11.2157 18.7599 11.099L17.8931 10.1368C17.7907 10.0201 17.7993 9.84363 17.9158 9.73831L21.2183 6.82342C21.423 6.69247 21.423 6.41636 21.2894 6.27403L20.1156 4.96461C19.9763 4.75681 19.7063 4.75681 19.5699 4.90198Z" fill="#86888C"/>
<path d="M13.9766 12.2632C13.5531 12.2689 13.2035 11.9302 13.1979 11.506C13.1979 11.4434 13.2035 11.3808 13.2178 11.3182L14.2011 6.70956C14.2608 6.4249 14.4512 6.21425 14.707 6.14309C14.9628 6.07193 15.2328 6.16302 15.4289 6.37936L16.1082 7.13085L19.1834 4.48354C19.371 4.30136 19.6296 4.21312 19.8882 4.23589C20.1554 4.25866 20.3998 4.3953 20.559 4.60879L21.71 5.89259C21.8919 6.09755 21.9772 6.36797 21.9431 6.63839C21.9118 6.89174 21.7782 7.12231 21.5708 7.27318L18.5098 9.97173L19.1805 10.7175C19.3795 10.9367 19.4363 11.2157 19.3369 11.4662C19.2374 11.7167 19.0015 11.8789 18.7087 11.9017L14.042 12.2632H13.9766ZM15.1419 7.7571L14.4313 11.0904L17.7566 10.8314L17.4724 10.5183C17.1598 10.1681 17.1854 9.63014 17.5349 9.31702C17.5378 9.31417 17.5406 9.31417 17.5406 9.31132L20.7267 6.50176L19.7916 5.45991L16.6397 8.1727C16.2844 8.47443 15.7558 8.44027 15.4403 8.09584L15.1419 7.7571Z" fill="#86888C"/>
</svg>
