<svg width="20" height="20" viewBox="0 0 20 20" fill="none" xmlns="http://www.w3.org/2000/svg">
<path fill-rule="evenodd" clip-rule="evenodd" d="M9.99772 16.6659C8.05578 16.6659 6.56005 16.2743 5.47866 15.4775L15.4548 5.5037C16.2629 6.58964 16.6659 8.0831 16.6659 10.0023C16.6659 14.5487 14.5464 16.6659 9.99772 16.6659ZM9.99772 3.33409C11.9283 3.33409 13.4286 3.73933 14.5145 4.55663L4.53386 14.5373C3.72795 13.4559 3.33409 11.9533 3.33409 10.0023C3.33409 5.45361 5.45134 3.33409 9.99772 3.33409ZM9.99772 2C4.94365 2 2 4.55208 2 10.0023C2 15.4525 4.94365 18 9.99772 18C15.0518 18 18 15.4525 18 10.0023C18 4.55208 15.0518 2 9.99772 2" fill="#86888C"/>
</svg>
