<svg width="24" height="24" viewBox="0 0 24 24" fill="none" xmlns="http://www.w3.org/2000/svg">
<path fill-rule="evenodd" clip-rule="evenodd" d="M11.9972 20.3324C9.56972 20.3324 7.70006 19.8429 6.34832 18.8469L18.8184 6.37962C19.8287 7.73705 20.3324 9.60387 20.3324 12.0028C20.3324 17.6858 17.683 20.3324 11.9972 20.3324ZM11.9972 3.66762C14.4104 3.66762 16.2857 4.17416 17.6431 5.19579L5.16733 17.6716C4.15993 16.3199 3.66762 14.4417 3.66762 12.0028C3.66762 6.31702 6.31417 3.66762 11.9972 3.66762ZM11.9972 2C5.67957 2 2 5.1901 2 12.0028C2 18.8156 5.67957 22 11.9972 22C18.3147 22 22 18.8156 22 12.0028C22 5.1901 18.3147 2 11.9972 2" fill="#86888C"/>
</svg>
