<svg width="40" height="40" viewBox="0 0 40 40" fill="none" xmlns="http://www.w3.org/2000/svg">
<path fill-rule="evenodd" clip-rule="evenodd" d="M28.4378 27.8031C29.7236 27.8031 30.3229 27.204 30.3229 25.9135C30.3229 24.623 29.7236 24.0239 28.4378 24.0239C27.152 24.0239 26.5527 24.623 26.5527 25.9135C26.5527 27.204 27.152 27.8031 28.4378 27.8031ZM15.7593 27.7929C17.0451 27.7929 17.6445 27.1937 17.6445 25.9033C17.6445 24.6128 17.0451 24.0137 15.7593 24.0137C14.4736 24.0137 13.8742 24.6128 13.8742 25.9033C13.8691 27.1937 14.4684 27.7929 15.7593 27.7929ZM37.0028 20.8643C38.9187 23.9983 37.6483 26.1235 36.716 26.8046C36.5264 26.9428 36.301 27.0145 36.0705 27.0145H32.3873C31.9878 28.8734 30.5586 30 28.4378 30C26.317 30 24.8878 28.8734 24.4883 27.0145H19.7038C19.2991 28.8683 17.8699 29.9846 15.7542 29.9846C13.6386 29.9846 12.2145 28.8683 11.8047 27.0145H9.4073C8.90016 27.0145 8.46474 26.6714 8.3418 26.1747C8.32643 26.1132 7.97297 24.623 8.10103 22.4006C8.08567 20.7465 9.11019 17.9556 11.4307 15.6154C13.0648 13.9664 15.8977 12 20.1341 12C26.7269 12 30.0822 15.7331 31.0708 17.0697C32.3105 17.2745 35.2867 18.0427 37.0028 20.8643ZM6.25689 22.7232C6.86136 22.7232 7.35313 23.2148 7.35313 23.8191C7.35313 24.4233 6.86136 24.9149 6.25689 24.9149H3.86975C3.26529 24.9149 2.77351 24.4233 2.77351 23.8191C2.77351 23.2148 3.26529 22.7232 3.86975 22.7232H6.25689ZM6.72305 19.0669C7.32752 19.0669 7.81929 19.5585 7.81929 20.1627C7.81929 20.767 7.32752 21.2586 6.72305 21.2586H3.09624C2.49177 21.2586 2 20.767 2 20.1627C2 19.5585 2.49177 19.0669 3.09624 19.0669H6.72305ZM8.96675 16.5525C8.96675 17.1568 8.47498 17.6484 7.87052 17.6484H5.05308C4.44861 17.6484 3.95684 17.1568 3.95684 16.5525C3.95684 15.9482 4.44861 15.4566 5.05308 15.4566H7.87052C8.48011 15.4566 8.96675 15.9482 8.96675 16.5525Z" fill="#86888C"/>
</svg>
