<svg width="20" height="20" viewBox="0 0 20 20" fill="none" xmlns="http://www.w3.org/2000/svg">
<path d="M12.9269 14.4642H7.85754C7.17905 14.4642 6.57771 14.234 6.11706 13.801C5.63826 13.3474 5.32737 12.6933 5.19576 11.8568C5.0823 11.1321 3.99308 4.79131 3.87054 4.10527C3.77297 3.55827 3.20567 3.14801 2.5476 3.14801H1.45384C1.20423 3.14801 1 2.94288 1 2.69217C1 2.44146 1.20423 2.23633 1.45384 2.23633H2.54987C3.65724 2.23633 4.58988 2.95428 4.76688 3.94573C4.88942 4.63405 5.98317 10.9885 6.09663 11.7155C6.19648 12.3469 6.41205 12.8232 6.74336 13.1378C7.03382 13.4135 7.4105 13.5548 7.85981 13.5548H12.9269C13.4806 13.5548 14.2658 13.3611 14.6992 11.6745C14.7945 11.3076 15.1076 10.038 15.4117 8.81183C15.5864 8.10527 15.7544 7.42607 15.8837 6.91325H14.2045C13.9549 6.91325 13.7507 6.70812 13.7507 6.45741C13.7507 6.2067 13.9549 6.00157 14.2045 6.00157H16.4669C16.7165 6.00157 16.9207 6.2067 16.9207 6.45741C16.9207 6.49616 16.9162 6.53262 16.9071 6.56909C16.7823 7.06596 16.5463 8.02094 16.2944 9.03291C15.9904 10.2637 15.6749 11.5355 15.5796 11.9047C15.3641 12.7389 15.0509 13.352 14.622 13.7828C14.1682 14.234 13.5986 14.4642 12.9269 14.4642Z" fill="#86888C"/>
<path d="M7.58073 6.90875H4.82591C4.5763 6.90875 4.37207 6.70362 4.37207 6.45291C4.37207 6.2022 4.5763 5.99707 4.82591 5.99707H7.58073C7.83034 5.99707 8.03457 6.2022 8.03457 6.45291C8.03457 6.70362 7.83034 6.90875 7.58073 6.90875ZM6.97258 16.8917C6.97258 16.2854 7.29708 16.0028 7.85757 16.0028C8.41806 16.0028 8.74256 16.2854 8.74256 16.8917C8.74256 17.4979 8.41806 17.7805 7.85757 17.7805C7.29708 17.7805 6.97258 17.4979 6.97258 16.8917Z" fill="#86888C"/>
<path d="M7.85739 18.2363C7.4512 18.2363 7.1267 18.1201 6.8907 17.8922C6.64336 17.6529 6.51855 17.3178 6.51855 16.8916C6.51855 16.4654 6.64336 16.1304 6.8907 15.891C7.1267 15.6631 7.45347 15.5469 7.85739 15.5469C8.2613 15.5469 8.58807 15.6631 8.82407 15.891C9.07141 16.1304 9.19622 16.4654 9.19622 16.8916C9.19622 17.3178 9.07141 17.6529 8.82407 17.8922C8.59034 18.1201 8.26357 18.2363 7.85739 18.2363ZM7.85739 16.4586C7.52608 16.4586 7.42624 16.5588 7.42624 16.8916C7.42624 17.2244 7.52608 17.3247 7.85739 17.3247C8.18869 17.3247 8.28853 17.2244 8.28853 16.8916C8.28853 16.5588 8.18869 16.4586 7.85739 16.4586ZM11.3973 16.8916C11.3973 16.2853 11.7218 16.0027 12.2823 16.0027C12.8428 16.0027 13.1673 16.2853 13.1673 16.8916C13.1673 17.4979 12.8428 17.7805 12.2823 17.7805C11.7218 17.7805 11.3973 17.4979 11.3973 16.8916Z" fill="#86888C"/>
<path d="M12.2826 18.2362C11.8764 18.2362 11.5519 18.1199 11.3159 17.892C11.0686 17.6527 10.9438 17.3176 10.9438 16.8914C10.9438 16.4652 11.0686 16.1302 11.3159 15.8909C11.5519 15.6629 11.8787 15.5467 12.2826 15.5467C12.6865 15.5467 13.0133 15.6629 13.2493 15.8909C13.4943 16.1302 13.6214 16.4652 13.6214 16.8914C13.6214 17.3176 13.4966 17.6527 13.2493 17.892C13.0155 18.1199 12.6888 18.2362 12.2826 18.2362ZM12.2826 16.4584C11.9513 16.4584 11.8514 16.5587 11.8514 16.8914C11.8514 17.2242 11.9513 17.3245 12.2826 17.3245C12.6139 17.3245 12.7137 17.2242 12.7137 16.8914C12.7137 16.5587 12.6139 16.4584 12.2826 16.4584ZM13.163 11.7974H8.2956C7.74191 11.7974 7.39926 11.4533 7.39926 10.8971V8.24187H6.52562C6.27601 8.24187 6.07178 8.03674 6.07178 7.78603C6.07178 7.66979 6.11716 7.55583 6.19658 7.4715L10.406 3.02705C10.4922 2.93588 10.6102 2.88574 10.735 2.88574C10.8598 2.88574 10.9778 2.93816 11.064 3.02705L11.8242 3.83161V3.78603C11.8242 3.53531 12.0284 3.33019 12.2781 3.33019H13.6055C13.8552 3.33019 14.0594 3.53531 14.0594 3.78603V6.19742L15.2621 7.4715C15.4345 7.65383 15.4277 7.94329 15.2462 8.11651C15.1622 8.19628 15.051 8.24187 14.933 8.24187H14.0594V10.8971C14.0594 11.451 13.7145 11.7974 13.163 11.7974ZM8.30694 10.8857H13.1517V7.78603C13.1517 7.53531 13.3559 7.33018 13.6055 7.33018H13.8778L13.2765 6.69429C13.1971 6.60996 13.1517 6.49828 13.1517 6.37976V4.24187H12.7319V4.97577C12.7319 5.22648 12.5277 5.43161 12.2781 5.43161C12.1532 5.43161 12.0352 5.37919 11.949 5.2903L10.735 4.00483L7.58307 7.33246H7.8531C8.10272 7.33246 8.30694 7.53759 8.30694 7.7883V10.8857Z" fill="#86888C"/>
<path d="M4.83496 6.70352C4.94842 6.68073 7.12686 6.74911 7.12686 6.74911L6.67302 7.638L7.73954 7.72916L7.83031 10.7149L7.89839 11.2163L12.8453 11.3303L13.526 11.2163L13.6849 10.0767L13.7983 7.77475L14.5245 7.56962L13.9118 6.40723L16.2718 6.4756L15.5002 10.6237L14.3883 13.4728L12.4595 14.0426C12.4595 14.0426 9.60029 14.0881 9.50952 14.0881C9.41875 14.0881 7.21763 13.9286 7.21763 13.9286L6.08302 13.1765L5.24342 9.6209L4.83496 6.70352Z" fill="#86888C"/>
</svg>
