<svg width="24" height="24" viewBox="0 0 24 24" fill="none" xmlns="http://www.w3.org/2000/svg">
<path d="M8.59786 18.6406C8.08825 18.6406 7.68114 18.7858 7.38505 19.0705C7.07473 19.3694 6.91815 19.7879 6.91815 20.3203C6.91815 20.8527 7.07473 21.2712 7.38505 21.5701C7.68114 21.8548 8.0911 22 8.59786 22C9.10462 22 9.51459 21.8548 9.81067 21.5701C10.121 21.2712 10.2776 20.8527 10.2776 20.3203C10.2776 19.7879 10.121 19.3694 9.81067 19.0705C9.51459 18.7858 9.10747 18.6406 8.59786 18.6406ZM14.1495 18.6406C13.6399 18.6406 13.2327 18.7858 12.9367 19.0705C12.6263 19.3694 12.4697 19.7879 12.4697 20.3203C12.4697 20.8527 12.6263 21.2712 12.9367 21.5701C13.2327 21.8548 13.6427 22 14.1495 22C14.6562 22 15.0662 21.8548 15.3623 21.5701C15.6697 21.2712 15.8292 20.8527 15.8292 20.3203C15.8292 19.7879 15.6726 19.3694 15.3623 19.0705C15.0662 18.7858 14.6591 18.6406 14.1495 18.6406ZM19.8548 6.92242C19.7466 6.78292 19.5815 6.7032 19.405 6.7032H15.9658V3.87331C15.9658 2.62918 15.3423 2 14.1125 2H10.3032C9.09039 2 8.44982 2.64911 8.44982 3.87331V6.7032H5.17011C4.95089 5.42776 4.77438 4.41708 4.72313 4.14093C4.50107 2.90249 3.33381 2.00569 1.94164 2.00569H0.569395C0.256228 2.00569 0 2.26192 0 2.57509C0 2.88826 0.256228 3.14448 0.569395 3.14448H1.94448C2.77011 3.14448 3.48185 3.65979 3.60427 4.34021C3.75801 5.2 5.12455 13.1174 5.2669 14.0228C5.43203 15.0648 5.81922 15.8818 6.42278 16.4512C6.99786 16.995 7.75516 17.2797 8.60641 17.2797H14.9637C15.8064 17.2797 16.521 16.9922 17.0904 16.4256C17.6285 15.8875 18.0213 15.1189 18.2918 14.0797C18.4114 13.6157 18.8071 12.0299 19.1886 10.4925C19.5018 9.22847 19.8007 8.03559 19.9573 7.41495C20 7.24128 19.963 7.06192 19.8548 6.92242ZM9.30391 3.87331C9.30391 3.11886 9.56583 2.85409 10.3032 2.85409H14.1153C14.8697 2.85409 15.1146 3.10178 15.1146 3.87331V11.3751C15.1146 12.1466 14.8726 12.3943 14.1153 12.3943H10.3032C9.54875 12.3943 9.30391 12.1466 9.30391 11.3751V3.87331Z" fill="#86888C"/>
<path d="M12.2082 10.2871C11.8438 10.2871 11.6104 10.4779 11.6104 10.8878C11.6104 11.0843 11.6644 11.2323 11.7612 11.332C11.8666 11.4401 12.0203 11.4914 12.2082 11.4914C12.3961 11.4914 12.5499 11.4401 12.6552 11.332C12.752 11.2323 12.8061 11.0871 12.8061 10.8878C12.8089 10.4779 12.5726 10.2871 12.2082 10.2871Z" fill="#86888C"/>
</svg>
