<svg width="28" height="28" viewBox="0 0 28 28" fill="none" xmlns="http://www.w3.org/2000/svg">
<path d="M23.8429 7.90948C23.7131 7.7421 23.5149 7.64646 23.3032 7.64646H6.16567C5.88557 6.07515 5.6772 4.59607 5.67378 4.56191C5.40734 3.076 4.00683 2 2.33646 2H0.683177C0.30743 2 0 2.30743 0 2.68318C0 3.05892 0.30743 3.36635 0.683177 3.36635H2.33646C3.32707 3.36635 4.18104 3.98463 4.32792 4.80102C4.60803 6.36892 6.16567 15.421 6.3228 16.4287C6.52092 17.6789 6.98548 18.6593 7.70965 19.3424C8.39966 19.9949 9.30828 20.3365 10.3296 20.3365H17.6567C18.6678 20.3365 19.5252 19.9915 20.2084 19.3117C20.854 18.6661 21.2878 17.7336 21.6499 16.497C21.8104 15.9471 23.7575 9.25192 23.9693 8.50043C24.0239 8.29206 23.9761 8.07344 23.8429 7.90948ZM10.3296 26C9.71819 26 9.22972 25.8258 8.87446 25.4842C8.50213 25.1255 8.31426 24.6234 8.31426 23.9846C8.31426 23.3459 8.50213 22.8437 8.87446 22.4851C9.22972 22.1435 9.72161 21.9693 10.3296 21.9693C10.9377 21.9693 11.4295 22.1435 11.7848 22.4851C12.1571 22.8437 12.345 23.3459 12.345 23.9846C12.345 24.6234 12.1571 25.1255 11.7848 25.4842C11.4295 25.8258 10.9411 26 10.3296 26ZM16.9906 26C16.3792 26 15.8907 25.8258 15.5354 25.4842C15.1631 25.1255 14.9752 24.6234 14.9752 23.9846C14.9752 23.3459 15.1631 22.8437 15.5354 22.4851C15.8907 22.1435 16.3826 21.9693 16.9906 21.9693C17.5986 21.9693 18.0905 22.1435 18.4458 22.4851C18.8147 22.8437 19.006 23.3459 19.006 23.9846C19.006 24.6234 18.8181 25.1255 18.4458 25.4842C18.0905 25.8258 17.602 26 16.9906 26Z" fill="#86888C"/>
</svg>
