<svg width="40" height="40" viewBox="0 0 40 40" fill="none" xmlns="http://www.w3.org/2000/svg">
<path fill-rule="evenodd" clip-rule="evenodd" d="M34.9307 31.8056C36.195 30.1313 36.9098 27.8847 37.0645 25.1031H34.4186C34.2639 26.9646 33.7571 28.5266 32.8875 29.7516L34.9307 31.8056ZM30.4389 29.0562C31.5699 27.9596 32.146 26.2264 32.146 23.8942C32.146 21.562 31.5699 19.8235 30.4336 18.7215C30.3002 18.5932 30.1295 18.4915 29.9801 18.3845C29.8308 19.8556 29.5427 21.2036 29.0946 22.4178C28.4651 24.1242 27.5476 25.5738 26.3313 26.7453C25.6804 27.3712 24.9496 27.9061 24.1441 28.3608C23.2265 28.885 22.2076 29.2915 21.0926 29.5964C22.1596 30.2865 23.5893 30.6502 25.3977 30.6502C27.6436 30.6502 29.34 30.1153 30.4389 29.0562ZM24.2347 35.5929V32.9397C22.389 32.7899 20.8366 32.2871 19.615 31.4259L17.5558 33.4906C19.2309 34.737 21.4714 35.4431 24.2347 35.5929ZM16.0461 22.8832C16.1741 22.8832 16.2755 22.8618 16.3982 22.8618C16.8996 22.8458 17.3744 22.8137 17.8118 22.7441C18.1479 22.6906 18.468 22.6211 18.7667 22.5355C19.7056 22.2681 20.4845 21.8615 21.0766 21.2945C21.9782 20.4226 22.5117 19.1334 22.6984 17.4805C22.7464 17.0526 22.7837 16.614 22.7837 16.1379C22.7837 15.7581 22.7464 15.4104 22.7144 15.0627C22.6237 14.0517 22.405 13.1851 22.0582 12.447C21.7968 11.8799 21.4821 11.3664 21.066 10.9652C20.8526 10.7566 20.5912 10.5854 20.3298 10.4143C19.2575 9.72422 17.8279 9.36048 16.0301 9.36048C13.7949 9.36048 12.1038 9.90074 11.0102 10.9652C9.87925 12.0618 9.30311 13.8056 9.30311 16.1379C9.30311 18.4701 9.87392 20.2086 11.0049 21.2999C11.1436 21.4336 11.3143 21.5299 11.4743 21.6529C12.0931 22.1129 12.8506 22.4446 13.7469 22.6425C13.9176 22.6799 14.0776 22.7227 14.259 22.7548C14.8245 22.8244 15.4006 22.8832 16.0461 22.8832ZM14.8725 27.8259V25.1673C14.5897 25.1406 14.275 25.1459 14.0083 25.1031C13.9176 25.0924 13.8429 25.0603 13.7575 25.0443C12.9093 24.8999 12.1571 24.6484 11.4583 24.3328C11.4316 24.3221 11.3996 24.3061 11.3783 24.2954C10.9782 24.1082 10.5994 23.8942 10.2527 23.6535L8.19351 25.7236C9.15374 26.4404 10.306 26.97 11.629 27.323C12.3972 27.5316 13.2241 27.6761 14.1096 27.7617C14.3657 27.7831 14.6164 27.8098 14.8725 27.8259ZM4.40058 14.9718H7.04656C7.19593 13.0996 7.68672 11.5269 8.55093 10.2912L6.50776 8.23715C5.25946 9.92749 4.54995 12.1795 4.40058 14.9718ZM17.2304 4.40713V7.06568C19.0975 7.2208 20.6552 7.73967 21.8822 8.62229L23.9413 6.5575C22.2609 5.27905 20.0097 4.56226 17.2304 4.40713ZM25.0616 17.3361C25.0136 17.9352 24.9229 18.5022 24.8002 19.0371C24.5388 20.1605 24.1174 21.1501 23.5306 21.9845L24.4161 22.8725L25.5737 24.0386C25.8618 23.6535 26.1232 23.2363 26.3526 22.7923C26.7527 22.022 27.0781 21.1768 27.3075 20.23C27.5155 19.3527 27.6489 18.4059 27.7076 17.3789V17.3361H25.0616ZM33.3036 14.3299C32.3381 13.5917 31.1698 13.0568 29.8361 12.693C29.9908 13.6398 30.0708 14.6508 30.0922 15.7207C30.5083 15.9132 30.8924 16.1379 31.2498 16.3893L33.3036 14.3299ZM35.6989 13.2761C38.1955 15.6939 39.4651 19.2725 39.4651 23.9049C39.4651 28.5373 38.1955 32.1052 35.6935 34.5177C33.2983 36.8285 29.8308 38 25.3924 38C20.9539 38 17.4918 36.8285 15.1072 34.5123C13.8269 33.2767 12.8826 31.7308 12.2532 29.8853C9.59652 29.3932 7.40398 28.3501 5.74491 26.74C3.25897 24.3382 2 20.7649 2 16.1325C2 11.5001 3.25897 7.92155 5.74491 5.50906C8.13483 3.17682 11.597 2 16.0354 2C20.4685 2 23.936 3.17682 26.3366 5.50371C27.6169 6.73938 28.5665 8.28529 29.196 10.1147C31.8473 10.6175 34.0398 11.666 35.6989 13.2761ZM19.1082 18.1706C18.7347 18.7269 18.388 19.1548 17.8705 19.7004C17.7798 19.7914 17.5238 20.0481 17.3104 20.2033C17.0917 20.3637 16.8463 20.4707 16.5902 20.5403C16.5475 20.551 16.5155 20.5724 16.4675 20.5777C16.3928 20.5991 16.2808 20.6152 16.1634 20.6259L16.0568 20.6312L15.9074 20.6259C15.8167 20.6205 15.7047 20.6045 15.6033 20.5777C15.3419 20.5189 15.0538 20.3905 14.7978 20.2086C14.6004 20.0642 14.387 19.8556 14.291 19.7593C14.2803 19.7486 14.2483 19.7218 14.243 19.7165C13.6508 19.1013 13.2774 18.636 12.8346 17.9406C12.776 17.8443 12.7333 17.748 12.6746 17.6517C12.1945 16.8547 11.8424 16.0523 11.6557 15.266C11.3676 14.0517 11.661 12.9605 12.4505 12.2811C12.9093 11.8853 13.5175 11.6446 14.1683 11.6125C14.8191 11.5804 15.4593 11.7355 16.0514 12.0672C16.6436 11.7409 17.2944 11.5804 17.9292 11.6125C17.9772 11.6178 18.0252 11.6339 18.0786 11.6392C18.6707 11.7034 19.2255 11.912 19.6523 12.2758C19.919 12.5058 20.1057 12.7947 20.2551 13.0996C20.5538 13.7147 20.6392 14.4529 20.4472 15.2606C20.4098 15.4157 20.3351 15.5709 20.2871 15.7314C20.1644 16.1379 20.0044 16.5444 19.7963 16.951C19.6363 17.2773 19.4763 17.6036 19.2682 17.9299C19.2149 18.0155 19.1615 18.0903 19.1082 18.1706Z" fill="#86888C"/>
</svg>
