<svg width="24" height="24" viewBox="0 0 24 24" fill="none" xmlns="http://www.w3.org/2000/svg">
<path fill-rule="evenodd" clip-rule="evenodd" d="M21.2948 18.5587C21.9972 17.6285 22.3943 16.3804 22.4803 14.8351H21.0103C20.9244 15.8692 20.6428 16.737 20.1597 17.4175L21.2948 18.5587ZM18.7994 17.0312C19.4277 16.422 19.7478 15.4591 19.7478 14.1634C19.7478 12.8678 19.4277 11.9019 18.7964 11.2897C18.7223 11.2184 18.6275 11.162 18.5445 11.1025C18.4615 11.9198 18.3015 12.6686 18.0526 13.3432C17.7028 14.2912 17.1931 15.0966 16.5174 15.7474C16.1558 16.0951 15.7498 16.3923 15.3023 16.6449C14.7925 16.9361 14.2264 17.162 13.607 17.3314C14.1998 17.7147 14.994 17.9168 15.9987 17.9168C17.2464 17.9168 18.1889 17.6196 18.7994 17.0312ZM15.3526 20.6627V19.1887C14.3272 19.1055 13.4648 18.8262 12.7861 18.3477L11.6421 19.4948C12.5727 20.1872 13.8174 20.5795 15.3526 20.6627ZM10.8034 13.6018C10.8745 13.6018 10.9308 13.5899 10.999 13.5899C11.2776 13.581 11.5413 13.5632 11.7844 13.5245C11.9711 13.4948 12.1489 13.4562 12.3149 13.4086C12.8365 13.26 13.2692 13.0342 13.5981 12.7192C14.099 12.2348 14.3954 11.5186 14.4991 10.6003C14.5258 10.3626 14.5465 10.1189 14.5465 9.85438C14.5465 9.64339 14.5258 9.45022 14.508 9.25706C14.4576 8.69539 14.3361 8.21397 14.1435 7.80386C13.9982 7.48886 13.8234 7.20357 13.5922 6.98068C13.4737 6.86478 13.3284 6.76969 13.1832 6.67459C12.5875 6.29123 11.7933 6.08915 10.7945 6.08915C9.55271 6.08915 8.61322 6.3893 8.00566 6.98068C7.37736 7.5899 7.05728 8.55869 7.05728 9.85438C7.05728 11.1501 7.3744 12.1159 8.0027 12.7221C8.07975 12.7964 8.17459 12.8499 8.2635 12.9183C8.60729 13.1738 9.02813 13.3581 9.52603 13.4681C9.62087 13.4889 9.70978 13.5126 9.81055 13.5305C10.1247 13.5691 10.4448 13.6018 10.8034 13.6018ZM10.1514 16.3477V14.8707C9.99429 14.8559 9.81944 14.8588 9.67125 14.8351C9.62087 14.8291 9.57938 14.8113 9.53196 14.8024C9.06073 14.7221 8.64285 14.5825 8.25461 14.4071C8.23979 14.4012 8.22201 14.3923 8.21016 14.3863C7.98788 14.2823 7.77746 14.1634 7.58482 14.0297L6.44084 15.1798C6.9743 15.578 7.61446 15.8722 8.34945 16.0684C8.77622 16.1842 9.23559 16.2645 9.72756 16.312C9.86982 16.3239 10.0091 16.3388 10.1514 16.3477ZM4.33366 9.20654H5.80365C5.88663 8.16642 6.15929 7.29272 6.6394 6.60624L5.50431 5.46508C4.81081 6.40416 4.41664 7.65527 4.33366 9.20654ZM11.4613 3.3373V4.81426C12.4986 4.90045 13.364 5.18871 14.0457 5.67905L15.1896 4.53195C14.2561 3.82169 13.0054 3.42348 11.4613 3.3373ZM15.812 10.5201C15.7853 10.8529 15.735 11.1679 15.6668 11.4651C15.5216 12.0892 15.2874 12.6389 14.9614 13.1025L15.4534 13.5958L16.0965 14.2437C16.2566 14.0297 16.4018 13.7979 16.5292 13.5513C16.7515 13.1233 16.9323 12.6538 17.0597 12.1278C17.1753 11.6404 17.2494 11.1144 17.282 10.5438V10.5201H15.812ZM20.3909 8.84993C19.8545 8.43982 19.2054 8.14265 18.4645 7.94057C18.5505 8.46657 18.5949 9.02823 18.6068 9.62259C18.8379 9.72957 19.0513 9.85438 19.2499 9.99406L20.3909 8.84993ZM21.7216 8.26449C23.1086 9.60773 23.814 11.5958 23.814 14.1694C23.814 16.7429 23.1086 18.7251 21.7186 20.0654C20.3879 21.3492 18.4615 22 15.9958 22C13.53 22 11.6065 21.3492 10.2818 20.0624C9.57049 19.3759 9.04592 18.5171 8.6962 17.4918C7.22029 17.2184 6.00221 16.6389 5.08051 15.7444C3.69943 14.4101 3 12.425 3 9.85141C3 7.27786 3.69943 5.28975 5.08051 3.94948C6.40824 2.65379 8.33167 2 10.7975 2C13.2603 2 15.1867 2.65379 16.5203 3.94651C17.2316 4.63299 17.7591 5.49183 18.1089 6.50817C19.5818 6.78752 20.7999 7.36999 21.7216 8.26449ZM12.5045 10.9837C12.2971 11.2927 12.1044 11.5305 11.817 11.8336C11.7666 11.8841 11.6243 12.0267 11.5058 12.1129C11.3843 12.2021 11.2479 12.2615 11.1057 12.3001C11.082 12.3061 11.0642 12.318 11.0375 12.321C10.996 12.3328 10.9338 12.3418 10.8686 12.3477L10.8093 12.3507L10.7263 12.3477C10.6759 12.3447 10.6137 12.3358 10.5574 12.321C10.4122 12.2883 10.2521 12.2169 10.1099 12.1159C10.0002 12.0357 9.88167 11.9198 9.82833 11.8663C9.8224 11.8603 9.80462 11.8455 9.80166 11.8425C9.47269 11.5007 9.26523 11.2422 9.01924 10.8559C8.98664 10.8024 8.96293 10.7489 8.93033 10.6954C8.6636 10.2526 8.468 9.80684 8.36427 9.36999C8.20423 8.69539 8.36723 8.08915 8.80586 7.71174C9.06073 7.49183 9.39859 7.3581 9.76016 7.34027C10.1217 7.32244 10.4774 7.40862 10.8063 7.59287C11.1353 7.41159 11.4969 7.32244 11.8496 7.34027C11.8762 7.34324 11.9029 7.35215 11.9325 7.35513C12.2615 7.39079 12.5697 7.50669 12.8068 7.70877C12.955 7.83655 13.0587 7.99703 13.1417 8.16642C13.3077 8.50817 13.3551 8.91828 13.2484 9.36701C13.2277 9.45319 13.1862 9.53938 13.1595 9.62853C13.0913 9.85438 13.0024 10.0802 12.8868 10.3061C12.7979 10.4874 12.709 10.6686 12.5934 10.8499C12.5638 10.8975 12.5342 10.9391 12.5045 10.9837Z" fill="#86888C"/>
</svg>
