<svg width="28" height="28" viewBox="0 0 28 28" fill="none" xmlns="http://www.w3.org/2000/svg">
<path fill-rule="evenodd" clip-rule="evenodd" d="M23.9305 20.8403C24.0719 20.8403 24.1844 20.7278 24.1844 20.5896V13.9781H4.39494V20.5896C4.39494 20.7278 4.51065 20.8403 4.65207 20.8403H23.9305ZM4.65207 7.55949C4.51065 7.55949 4.39494 7.67199 4.39494 7.81341V9.18263H24.1844V7.81341C24.1844 7.6752 24.0687 7.55949 23.9305 7.55949H4.65207ZM25.589 9.86403V13.2967C25.589 13.3289 25.5729 13.361 25.5697 13.3932V20.5896C25.5697 21.4799 24.8337 22.2031 23.9305 22.2031H4.65207C3.7489 22.2031 3.01286 21.4799 3.01286 20.5896V13.3546C3.00964 13.3353 3 13.3192 3 13.2967V9.86403C3 9.84475 3.00964 9.82546 3.01286 9.80939V7.81662C3.01286 6.92631 3.7489 6.20312 4.65207 6.20312H23.9305C24.8337 6.20312 25.5697 6.92631 25.5697 7.81662V9.77082C25.5729 9.79975 25.589 9.82868 25.589 9.86403ZM17.3511 18.8347C17.9393 18.8251 18.64 18.584 18.64 17.4944C18.64 16.4048 17.9329 16.1605 17.3383 16.1445H17.1712C16.5926 16.1477 15.9016 16.3855 15.9016 17.4848C15.9016 18.5872 16.6022 18.8283 17.1872 18.8379L17.3511 18.8347ZM20.6424 14.9681C21.777 14.9938 23.1077 15.672 23.1077 17.4976C23.1077 19.3265 21.777 19.9982 20.6392 20.0175H20.4399C20.1314 20.0143 19.4693 19.9468 18.8971 19.5225C18.444 19.8504 17.8879 20.0047 17.3672 20.0143H17.1679C16.0301 19.9982 14.6995 19.3265 14.6995 17.4815C14.6995 15.6366 16.0237 14.9713 17.1551 14.9617C17.229 14.9617 17.3029 14.9617 17.3672 14.9649C17.8783 14.9777 18.4279 15.132 18.8811 15.4566C19.4789 15.0163 20.1828 14.9649 20.4303 14.9617C20.501 14.9617 20.5781 14.9649 20.6424 14.9681Z" fill="#86888C"/>
</svg>
