<svg width="40" height="40" viewBox="0 0 40 40" fill="none" xmlns="http://www.w3.org/2000/svg">
<path fill-rule="evenodd" clip-rule="evenodd" d="M30.8063 12.3369L23.422 5.04781V8.2749C23.422 9.47866 23.8099 10.4929 24.5396 11.2151C25.2796 11.9476 26.3309 12.3318 27.5709 12.3318H30.8063V12.3369ZM33.8121 12.5316C33.8683 12.6648 33.8989 12.8133 33.8989 12.967V35.4696C33.8989 36.8423 32.7405 38 31.3728 38H9.52608C8.18394 38 7 36.8167 7 35.4696L7.07144 29.4405L7 14.8623V4.53045C7 3.20376 8.20435 2 9.52608 2H22.825C23.2383 2 23.6415 2.16904 23.9324 2.46101L33.4243 11.8298C33.6233 12.0194 33.7407 12.2703 33.8121 12.5316ZM20.9164 16.8702C24.0855 16.8702 25.499 18.3147 25.499 21.5521C25.499 24.7894 24.0855 26.2288 20.9164 26.2288C17.7473 26.2288 16.3337 24.7843 16.3337 21.5521C16.3337 18.3147 17.7473 16.8702 20.9164 16.8702ZM26.1676 25.2248C26.1573 25.2043 26.142 25.189 26.1318 25.1736C26.6626 24.2362 26.9534 23.0427 26.9534 21.5572C26.9534 17.362 24.7285 15.395 20.9164 15.395C17.1043 15.395 14.8844 17.362 14.8844 21.5572C14.8844 22.8224 15.109 23.8571 15.4917 24.7228C15.4509 24.774 15.4049 24.8201 15.3794 24.8816L12.5778 31.0899C12.4043 31.4792 12.4553 31.9249 12.7207 32.2578C12.9809 32.5908 13.4045 32.7393 13.8995 32.6164L15.604 31.9761L16.2776 33.8048C16.4715 34.1736 16.8338 34.399 17.2421 34.399H17.2727C17.6912 34.3887 18.0586 34.1377 18.2372 33.7536L20.6969 28.2982L23.1567 33.7536C23.3302 34.1377 23.7027 34.3887 24.1212 34.399H24.1518C24.5549 34.399 24.9275 34.1736 25.152 33.7177L25.7899 31.9761L27.5811 32.6471C27.9843 32.7291 28.4079 32.5908 28.6681 32.2578C28.9335 31.9249 28.9845 31.4792 28.811 31.0899L26.1676 25.2248ZM18.6659 22.5202L18.5281 23.3705C18.4515 23.8367 18.6404 24.2977 19.0078 24.564C19.2119 24.7126 19.4467 24.7843 19.6814 24.7843C19.8702 24.7843 20.0641 24.7382 20.2428 24.6357L20.9215 24.2567L21.5951 24.6357C21.9727 24.8509 22.4626 24.8253 22.825 24.564C23.1975 24.2925 23.3812 23.8367 23.3098 23.3654L23.172 22.5202L23.7435 21.926C24.0599 21.5982 24.1722 21.1218 24.0242 20.6762C23.8813 20.2408 23.5241 19.9283 23.0852 19.8668L22.3198 19.749L21.9676 18.9909C21.5696 18.1406 20.2428 18.1457 19.8549 18.9909L19.5079 19.7388L18.7424 19.8566C18.3087 19.9232 17.9463 20.2356 17.8034 20.671C17.6605 21.1116 17.7677 21.5879 18.0841 21.9209L18.6659 22.5202Z" fill="#86888C"/>
</svg>
