<svg width="28" height="28" viewBox="0 0 28 28" fill="none" xmlns="http://www.w3.org/2000/svg">
<path d="M5.91983 11.9182C6.19367 11.9182 6.41471 11.6971 6.41471 11.4233V10.4434C6.41471 9.60211 6.61267 8.98515 7.00858 8.60574C7.38799 8.23953 7.99175 8.05477 8.80007 8.05477H9.65787C9.49621 8.19664 9.31475 8.3517 9.14649 8.49687C8.93863 8.67173 8.90894 8.98515 9.0871 9.19301C9.26526 9.40086 9.57539 9.43055 9.78324 9.25239C9.78654 9.24909 9.78984 9.24909 9.78984 9.24579C9.9515 9.10723 10.7631 8.41109 10.9083 8.26262C11.3438 7.82712 11.3405 7.28275 10.9017 6.84065C10.608 6.54701 9.81953 5.87727 9.78654 5.84758C9.57869 5.66942 9.26526 5.69581 9.0904 5.90366C8.91224 6.11151 8.93863 6.42494 9.14649 6.5998C9.14979 6.6031 9.41043 6.82415 9.67766 7.0617H8.79677C7.72451 7.0617 6.88981 7.33883 6.31904 7.88981C5.72517 8.46387 5.42164 9.32168 5.42164 10.4401V11.42C5.42494 11.6971 5.64599 11.9182 5.91983 11.9182ZM11.2019 15.4154L8.34477 12.5549C8.2194 12.4296 8.05444 12.3603 7.87958 12.3603H4.00297C3.41241 12.3636 3 12.776 3 13.3632V22.9706C3 23.5711 3.40251 23.9769 4.00297 23.9769H10.4068C10.9875 23.9769 11.3966 23.5678 11.3966 22.9871V15.8806C11.3966 15.7057 11.3273 15.5374 11.2019 15.4154ZM9.02441 21.8159H5.38205C5.10822 21.8159 4.88717 21.5949 4.88717 21.321C4.88717 21.0472 5.10822 20.8261 5.38205 20.8261H9.02771C9.30155 20.8261 9.5226 21.0472 9.5226 21.321C9.5226 21.5949 9.30155 21.8159 9.02441 21.8159ZM9.02441 20.1003H5.38205C5.10822 20.1003 4.88717 19.8793 4.88717 19.6054C4.88717 19.3316 5.10822 19.1105 5.38205 19.1105H9.02771C9.30155 19.1105 9.5226 19.3316 9.5226 19.6054C9.5226 19.8793 9.30155 20.1003 9.02441 20.1003ZM9.02441 18.3847H5.38205C5.10822 18.3847 4.88717 18.1636 4.88717 17.8898C4.88717 17.616 5.10822 17.3949 5.38205 17.3949H9.02771C9.30155 17.3949 9.5226 17.616 9.5226 17.8898C9.5226 18.1636 9.30155 18.3847 9.02441 18.3847ZM9.23227 15.7486C8.36457 15.7486 8.01155 15.3956 8.01155 14.5279V14.0891L9.67107 15.7486H9.23227ZM26.1937 9.74068C26.1937 9.72418 26.1904 9.70769 26.1871 9.69119C26.1871 9.68459 26.1871 9.68129 26.1838 9.6747C26.1805 9.6549 26.1739 9.6384 26.1706 9.61861V9.61201C26.164 9.59221 26.1574 9.57572 26.1508 9.55592L26.1475 9.54932C26.1409 9.53283 26.131 9.51633 26.1244 9.49984L26.1211 9.48994C26.1145 9.47344 26.1046 9.46025 26.0947 9.44705C26.0914 9.44375 26.0914 9.44045 26.0881 9.43385L26.0584 9.39426C26.0551 9.39096 26.0518 9.38436 26.0485 9.38106C26.0353 9.36457 26.0188 9.34807 26.0056 9.33487L20.8588 4.18806C20.8423 4.17156 20.8291 4.15836 20.8093 4.14517L20.7961 4.13527L20.7565 4.10558L20.7466 4.09898C20.7334 4.08908 20.7169 4.07918 20.7037 4.07258L20.6971 4.06928C20.6806 4.05939 20.6641 4.05279 20.6476 4.04619H20.6443C20.6245 4.03959 20.608 4.03299 20.5883 4.02639H20.5817C20.5619 4.0198 20.5421 4.0165 20.5256 4.0132L20.5124 4.0099C20.4959 4.0066 20.4794 4.0033 20.4629 4.0033C20.4464 4.0033 20.42 4 20.3969 4H14.2603C13.4685 4 12.9736 4.48829 12.9736 5.27351V22.7034C12.9736 23.5018 13.4685 23.9967 14.2636 24H25.0554C25.5734 24 25.8472 23.7658 25.9891 23.5711C26.1805 23.3039 26.2036 22.9838 26.2036 22.7364V9.80337C26.197 9.78357 26.197 9.76048 26.1937 9.74068ZM23.0033 20.1234H16.1607C15.7978 20.1234 15.5008 19.8265 15.5008 19.4635C15.5008 19.1006 15.7978 18.8037 16.1607 18.8037H23.0033C23.3662 18.8037 23.6631 19.1006 23.6631 19.4635C23.6631 19.8265 23.3662 20.1234 23.0033 20.1234ZM23.0033 16.8802H16.1607C15.7978 16.8802 15.5008 16.5833 15.5008 16.2204C15.5008 15.8575 15.7978 15.5605 16.1607 15.5605H23.0033C23.3662 15.5605 23.6631 15.8575 23.6631 16.2204C23.6631 16.5833 23.3662 16.8802 23.0033 16.8802ZM23.0033 13.6602H16.1607C15.7978 13.6602 15.5008 13.3632 15.5008 13.0003C15.5008 12.6374 15.7978 12.3405 16.1607 12.3405H23.0033C23.3662 12.3405 23.6631 12.6374 23.6631 13.0003C23.6631 13.3632 23.3662 13.6602 23.0033 13.6602ZM22.9637 9.14682C22.3533 9.14682 21.8618 8.97856 21.5384 8.65523C21.2151 8.3319 21.0501 7.84362 21.0501 7.23326V6.25338L23.9436 9.14682H22.9637Z" fill="#86888C"/>
</svg>
