<svg width="40" height="40" viewBox="0 0 40 40" fill="none" xmlns="http://www.w3.org/2000/svg">
<path fill-rule="evenodd" clip-rule="evenodd" d="M11.3988 10.2316C10.948 10.2316 10.5831 9.88845 10.5831 9.46329V2.76836C10.5831 2.34832 10.948 2 11.3988 2H14.9942C15.445 2 15.8099 2.3432 15.8099 2.76836V4.87365H17.5432V2.76836C17.5432 2.34832 17.9081 2 18.3589 2H21.4767C21.9275 2 22.2924 2.3432 22.2924 2.76836V5.01195L24.0901 4.98634V2.76836C24.0901 2.34832 24.455 2 24.9058 2H28.6461C29.0969 2 29.4618 2.3432 29.4618 2.76836V9.46841C29.4618 9.89357 29.0969 10.2368 28.6461 10.2368H28.0934V10.2265H12.4613V10.2368H11.3988V10.2316ZM11.7744 28.037C11.7744 27.6118 12.1393 27.2686 12.5901 27.2686H14.0873C14.0658 27.1816 14.0551 27.0945 14.0604 26.9972L15.6167 14.3039H14.7795C14.3288 14.3039 13.9639 13.9607 13.9639 13.5356V11.4456H26.2098V13.5356C26.2098 13.9556 25.8449 14.3039 25.3941 14.3039H24.557L26.1132 26.9972C26.124 27.0894 26.1132 27.1816 26.0864 27.2686H27.4065C27.8573 27.2686 28.2222 27.6118 28.2222 28.037V31.8583H11.769V28.037H11.7744ZM30.1809 33.0825C30.6317 33.0825 30.9966 33.4257 30.9966 33.8509V37.2316C30.9966 37.6568 30.6317 38 30.1809 38H9.81568C9.36491 38 9 37.6568 9 37.2316V33.8509C9 33.4308 9.36491 33.0825 9.81568 33.0825H30.1809Z" fill="#86888C"/>
</svg>
