<svg width="37" height="28" viewBox="0 0 37 28" fill="none" xmlns="http://www.w3.org/2000/svg">
<path d="M14.9839 15.5117C14.4151 15.5117 13.959 15.0505 13.959 14.4868V12.4678C13.959 11.8989 14.4202 11.4429 14.9839 11.4429C15.5527 11.4429 16.0088 11.9041 16.0088 12.4678V14.4868C16.0088 15.0505 15.5476 15.5117 14.9839 15.5117Z" fill="#86888C"/>
<path d="M12.0424 22.9831H3.96632C1.37335 22.9831 0 21.6149 0 19.0168V3.97144C0 1.37335 1.37335 0 3.96632 0H12.0424C14.5995 0 16.0088 1.40922 16.0088 3.96632V7.67129C16.0088 8.2401 15.5476 8.69618 14.9839 8.69618C14.4151 8.69618 13.959 8.23498 13.959 7.67129V3.96632C13.959 2.5366 13.4773 2.0549 12.0476 2.0549H3.96632C2.50073 2.0549 2.0549 2.50073 2.0549 3.96632V19.0168C2.0549 20.4824 2.50073 20.9282 3.96632 20.9282H12.0424C13.2723 20.9282 13.5541 20.5336 13.6464 20.4055C13.9743 19.9443 14.62 19.8367 15.0812 20.1698C15.5424 20.4978 15.65 21.1434 15.317 21.6046C14.6508 22.5322 13.5798 22.9831 12.0424 22.9831Z" fill="#86888C"/>
<path d="M21.0356 16.5414C20.4668 16.5414 20.0107 16.0802 20.0107 15.5165V13.4053C20.0107 12.8364 20.4719 12.3804 21.0356 12.3804C21.6044 12.3804 22.0605 12.8416 22.0605 13.4053V15.5165C22.0656 16.0802 21.6044 16.5414 21.0356 16.5414Z" fill="#86888C"/>
<path d="M32.0532 28.0002H23.9771C21.42 28.0002 20.0107 26.591 20.0107 24.0339V20.5749C20.0107 20.0061 20.4719 19.55 21.0356 19.55C21.6044 19.55 22.0605 20.0112 22.0605 20.5749V24.0339C22.0605 25.4636 22.5422 25.9453 23.9719 25.9453H32.0481C33.5136 25.9453 33.9595 25.4995 33.9595 24.0339V8.98341C33.9595 7.51782 33.5136 7.07199 32.0481 7.07199H23.9771C22.6806 7.07199 22.4192 7.50244 22.3219 7.66643C22.0298 8.15325 21.3995 8.3121 20.9126 8.02001C20.4258 7.72792 20.267 7.09761 20.5591 6.61079C21.1894 5.55516 22.3424 5.01709 23.9719 5.01709H32.0481C34.6461 5.01709 36.0144 6.39044 36.0144 8.98341V24.0339C36.0195 26.632 34.6461 28.0002 32.0532 28.0002Z" fill="#86888C"/>
<path d="M8.00377 18.2378C8.54696 18.2378 8.90055 18.5248 8.90055 19.1346C8.90055 19.4318 8.81856 19.647 8.67507 19.7956C8.51622 19.9545 8.29074 20.0313 8.0089 20.0313C7.72705 20.0313 7.49645 19.9545 7.34272 19.7956C7.19923 19.647 7.11724 19.4267 7.11724 19.1346C7.11212 18.5196 7.46058 18.2378 8.00377 18.2378Z" fill="#86888C"/>
<path d="M28.0147 23.2241C28.5579 23.2241 28.9115 23.5111 28.9115 24.1209C28.9115 24.4181 28.8295 24.6333 28.686 24.7819C28.5271 24.9408 28.3016 25.0177 28.0198 25.0177C27.738 25.0177 27.5074 24.9408 27.3536 24.7819C27.2101 24.6333 27.1281 24.413 27.1281 24.1209C27.1179 23.5111 27.4715 23.2241 28.0147 23.2241Z" fill="#86888C"/>
<path d="M19.1138 14.6818C18.6013 14.6818 18.2068 14.2667 18.1965 13.7184L18.176 12.5808L13.0977 12.5552C13.0772 12.5552 13.0618 12.5552 13.0516 12.5552C12.7082 12.5552 12.3854 12.4066 12.1548 12.1452C11.9344 11.8941 11.8217 11.561 11.8473 11.2279L11.8525 8.76822C11.8422 8.46588 11.9703 8.14303 12.206 7.90219C12.4623 7.63572 12.8107 7.50248 13.1899 7.53323L18.258 7.5281L18.2426 6.47247C18.2375 6.19062 18.3349 5.9344 18.5142 5.74992C18.8319 5.43221 19.3598 5.40146 19.7543 5.69868L24.4893 9.24479C24.7609 9.44977 24.9147 9.75211 24.9147 10.0801C24.9147 10.408 24.7558 10.7104 24.4842 10.9102L19.7134 14.4615C19.534 14.605 19.3239 14.6818 19.1138 14.6818ZM13.3898 11.0178L18.586 11.0435C19.2009 11.0486 19.7082 11.5559 19.7185 12.1657L19.7236 12.5501L23.0391 10.0801L19.8056 7.66134L19.8107 7.92781C19.8158 8.23528 19.698 8.51712 19.4879 8.73235C19.2726 8.94757 18.9908 9.06544 18.6885 9.06544L13.3949 9.07056L13.3898 11.0178Z" fill="#86888C"/>
<path d="M16.9058 22.512C16.6957 22.512 16.4856 22.4402 16.296 22.3019L11.5252 18.7506C11.2536 18.5457 11.0947 18.2433 11.0947 17.9205C11.0947 17.5925 11.2485 17.2902 11.5201 17.0903L16.255 13.5442C16.6547 13.247 17.1826 13.2726 17.4952 13.5955C17.6745 13.7799 17.7719 14.031 17.7667 14.3129L17.7514 15.3685L22.8194 15.3736C23.1935 15.3429 23.5471 15.4761 23.8033 15.7426C24.0339 15.9835 24.1672 16.3063 24.1569 16.6291L24.1621 19.0684C24.1877 19.4066 24.0801 19.7397 23.8546 19.9856C23.624 20.247 23.296 20.3956 22.9578 20.3956C22.9476 20.3956 22.9271 20.3956 22.9117 20.3956L17.8334 20.4212L17.8129 21.5588C17.8129 22.0969 17.4183 22.512 16.9058 22.512ZM12.9856 17.9154L16.3012 20.3853L16.3063 19.9959C16.3165 19.3861 16.8187 18.8839 17.4337 18.8736L22.6298 18.848L22.6247 16.911L17.3363 16.9007C17.034 16.9007 16.747 16.7829 16.5369 16.5676C16.3217 16.3524 16.2089 16.0654 16.214 15.7631L16.2192 15.4966L12.9856 17.9154Z" fill="#86888C"/>
</svg>
