<svg width="24" height="24" viewBox="0 0 24 24" fill="none" xmlns="http://www.w3.org/2000/svg">
<path d="M17.4224 21.917C17.1 21.917 16.8403 21.6574 16.8403 21.335V2.66455C16.8403 2.34215 17.1 2.08252 17.4224 2.08252C17.7448 2.08252 18.0044 2.34215 18.0044 2.66455V21.335C18.0044 21.6574 17.7448 21.917 17.4224 21.917Z" fill="#86888C"/>
<path d="M19.0342 9.6118H17.5991C17.2767 9.6118 17.0171 9.35218 17.0171 9.02978C17.0171 8.70738 17.2767 8.44775 17.5991 8.44775H19.0342C19.3566 8.44775 19.6162 8.70738 19.6162 9.02978C19.6162 9.35218 19.3566 9.6118 19.0342 9.6118Z" fill="#86888C"/>
<path d="M16.8288 22H7.96719C6.32953 22 5 20.6676 5 19.0328V4.69615C5 3.97718 5.2796 3.301 5.78745 2.7903C6.29529 2.2796 6.97147 2 7.6933 2H16.8288C18.3638 2 19.6163 3.24964 19.6163 4.78745V19.2154C19.6163 20.7504 18.3666 22 16.8288 22ZM7.6933 3.16405C7.28531 3.16405 6.90014 3.32382 6.61198 3.61198C6.32382 3.90014 6.16405 4.28531 6.16405 4.69615V19.0328C6.16405 20.0285 6.97432 20.8388 7.97004 20.8388H16.8317C17.7275 20.8388 18.4551 20.1113 18.4551 19.2154V4.78745C18.4551 3.89158 17.7275 3.16405 16.8317 3.16405H7.6933Z" fill="#86888C"/>
<path d="M15.0487 2.04541H7.53655C6.16137 2.04541 5.04582 3.16096 5.04297 4.53899V19.2123C5.04582 20.7273 6.27264 21.9541 7.78762 21.957H15.0487C16.4724 21.9541 17.625 20.8015 17.625 19.3806V4.62173C17.625 3.19805 16.4724 2.04541 15.0487 2.04541ZM11.548 6.98692C13.1229 6.98692 14.0273 7.89134 14.0273 9.46624C14.0273 11.0411 13.1229 11.937 11.548 11.937C9.97307 11.937 9.07721 11.0383 9.07721 9.46624C9.07721 7.8942 9.97877 6.98692 11.548 6.98692ZM15.1542 16.0597C15.1542 16.3678 14.9374 16.6189 14.6721 16.6189H8.43241C8.16708 16.6189 7.95024 16.3678 7.95024 16.0597V15.1524C7.95024 14.4135 8.16137 13.7772 8.55509 13.3122C8.9802 12.8157 9.59932 12.5533 10.3468 12.5533H12.7548C13.5023 12.5533 14.1214 12.8157 14.5465 13.3122C14.9431 13.7744 15.1514 14.4106 15.1514 15.1524L15.1542 16.0597Z" fill="#86888C"/>
<path d="M18.9942 15.5547H17.5591C17.2367 15.5547 16.9771 15.295 16.9771 14.9727C16.9771 14.6503 17.2367 14.3906 17.5591 14.3906H18.9942C19.3166 14.3906 19.5762 14.6503 19.5762 14.9727C19.5762 15.295 19.3166 15.5547 18.9942 15.5547Z" fill="#86888C"/>
</svg>
