<svg width="40" height="40" viewBox="0 0 40 40" fill="none" xmlns="http://www.w3.org/2000/svg">
<path fill-rule="evenodd" clip-rule="evenodd" d="M35.8159 28.8368C37.07 28.8205 37.7082 28.1416 37.7082 26.8163C37.7082 25.4965 37.0811 24.823 35.8492 24.8122C35.827 24.8122 35.8103 24.8013 35.7881 24.8013C35.7326 26.1971 35.6106 27.5495 35.383 28.8205C35.4496 28.8259 35.5218 28.8313 35.5662 28.8313L35.8159 28.8368ZM34.8281 18.5173C35.1611 18.2023 35.3275 17.7298 35.3275 17.116C35.3275 16.5023 35.1611 16.0298 34.8281 15.7093C34.5063 15.3997 34.0401 15.2422 33.4519 15.2422C33.3132 15.2422 33.1911 15.2476 33.069 15.2694C33.0357 15.2748 33.0246 15.2694 33.008 15.2476C32.9858 15.2259 32.9969 15.2205 33.0024 15.1879C33.0302 14.9924 33.0468 14.786 33.0468 14.5687C33.0468 13.6563 32.7971 12.9556 32.3032 12.4777C31.826 12.0269 31.1434 11.7933 30.2611 11.7933C29.3843 11.7933 28.6962 12.0269 28.2245 12.4831C27.9748 12.733 27.7917 13.0425 27.6641 13.4064C27.653 13.4336 27.653 13.4553 27.6308 13.4716C27.5975 13.4879 27.5697 13.477 27.5364 13.4716C27.3589 13.4445 27.1702 13.4336 26.9704 13.4336C26.0936 13.4336 25.4111 13.6671 24.9338 14.1234C24.784 14.2646 24.6619 14.433 24.5565 14.6176C24.5565 14.623 24.5509 14.6285 24.5509 14.6339C24.5398 14.6665 24.5287 14.6665 24.4954 14.6719C24.4511 14.6774 24.4455 14.6611 24.4122 14.6285C23.9849 14.2157 23.369 14.0093 22.581 14.0093C21.7874 14.0093 21.1715 14.2157 20.7497 14.6285C20.5555 14.8077 20.4223 15.0413 20.3169 15.2965C20.3169 15.2965 20.2614 15.3454 20.2059 15.3345C20.1504 15.3183 20.1338 15.2639 20.1338 15.2639C20.1005 14.623 19.9284 14.1016 19.5566 13.754C19.1793 13.3847 18.6244 13.2 17.9196 13.2C17.2149 13.2 16.6655 13.3847 16.2826 13.754C16.0717 13.955 15.9274 14.2157 15.822 14.5199C15.8164 14.5307 15.8109 14.5416 15.7998 14.547C15.7776 14.5579 15.761 14.5416 15.7499 14.5416C15.4446 14.3026 15.0618 14.1831 14.5512 14.1831C13.963 14.1831 13.5024 14.3406 13.1861 14.6448C13.0196 14.8077 12.8976 15.0141 12.8199 15.2476C12.8143 15.2748 12.8088 15.2911 12.7866 15.302C12.7588 15.3183 12.7366 15.3074 12.7033 15.3074C12.5923 15.2911 12.4758 15.2857 12.3482 15.2857C11.76 15.2857 11.3049 15.4432 10.9886 15.7473C10.8998 15.8288 10.8443 15.9266 10.7888 16.0352C10.7611 16.0786 10.7555 16.1112 10.7056 16.1275C10.6501 16.1492 10.6002 16.1221 10.5391 16.1058C10.3727 16.0515 10.184 16.0135 9.96756 16.0135C9.47923 16.0135 9.10188 16.1438 8.83552 16.3937C8.75228 16.4806 8.68014 16.5783 8.6191 16.6924C8.5858 16.7467 8.5969 16.7956 8.53586 16.8227C8.47482 16.8499 8.40822 16.8336 8.34163 16.8173C8.2029 16.7901 8.05307 16.7738 7.88105 16.7738C7.39826 16.7738 7.01537 16.9042 6.75455 17.154C6.48264 17.4147 6.34391 17.8058 6.34391 18.3109V18.9789H16.7598C16.782 18.9735 16.8098 18.9681 16.8375 18.9681H19.8618C19.884 18.9735 19.9118 18.9735 19.934 18.9789H33.463C34.0512 18.9681 34.5063 18.8214 34.8281 18.5173ZM5.42274 28.8368C5.45603 28.8368 5.50598 28.8313 5.54482 28.8259C5.32285 27.5984 5.20077 26.2569 5.13973 24.8176C3.9189 24.8393 3.29738 25.5074 3.29738 26.8163C3.29738 28.1416 3.93554 28.8205 5.18967 28.8368H5.42274ZM35.8658 22.531C37.7748 22.5473 40 23.6825 40 26.8217C40 29.9556 37.7637 31.1016 35.8492 31.1288H35.716C35.544 31.1288 35.1333 31.1233 34.8059 31.0907C33.7793 34.1431 31.7816 36.3863 27.886 36.8805C27.7639 36.9294 27.6252 36.9566 27.492 36.9566H27.0592C26.7984 36.9728 26.4543 36.9946 26.0881 36.9946C25.7218 36.9946 25.3833 36.9728 25.0504 36.9566L15.8054 36.962C15.539 36.9783 15.2005 37 14.8342 37C9.83993 37 7.30393 34.8003 6.08865 31.0745C5.65581 31.1288 5.53927 31.1288 5.29511 31.1288H5.15083C3.23634 31.1016 1 29.9556 1 26.8217C1 23.715 3.1864 22.5745 5.08423 22.5365V20.9342C4.96215 20.8527 4.84007 20.7604 4.73463 20.6518C4.30179 20.2281 4.05763 19.6416 4.05763 19.0333V18.3109C4.05763 16.8825 4.66249 15.9972 5.16747 15.5138C5.60586 15.0847 6.36611 14.585 7.54254 14.5036C8.03643 14.1234 8.78002 13.7595 9.84548 13.7323C10.2561 13.4445 10.811 13.1783 11.538 13.0643L11.599 13.01C12.1207 12.5048 13.0585 11.9074 14.5568 11.9074C14.6789 11.9074 14.7954 11.9128 14.9175 11.9183C15.5112 11.424 16.4768 10.9243 17.9196 10.9243C19.4013 10.9243 20.3724 11.4512 20.9661 11.9508C21.4212 11.8151 21.9594 11.7336 22.5754 11.7336C23.1414 11.7336 23.6409 11.8042 24.0682 11.9237C24.6175 11.5815 25.35 11.2882 26.31 11.1959C26.4099 11.0818 26.5154 10.9624 26.6264 10.8592C27.2534 10.2509 28.3966 9.52849 30.2556 9.52849C32.1145 9.52849 33.2577 10.2509 33.8847 10.8537C34.3842 11.3317 34.9558 12.1084 35.2055 13.2978C35.7382 13.5096 36.1322 13.8084 36.4096 14.0745C36.9646 14.6013 37.6138 15.5627 37.6138 17.1269C37.6138 18.6965 36.9535 19.6524 36.4041 20.1847C36.2487 20.3313 36.0489 20.4834 35.827 20.6246V22.5473H35.8658V22.531ZM19.2348 4.42307C17.9529 4.78153 17.4701 5.5745 17.792 6.78025L17.853 7.00293L21.793 5.89495C21.7486 5.81348 21.6986 5.7483 21.6709 5.6614C21.3268 4.47738 20.5056 4.07003 19.2348 4.42307ZM6.16633 12.6189C5.66135 12.6189 5.20077 12.2876 5.06204 11.7879C4.89001 11.1796 5.24516 10.5441 5.85558 10.3758L15.65 7.6221C15.6278 7.54063 15.6 7.4483 15.5778 7.35054C15.084 5.52562 15.5834 3.06524 18.6188 2.21796C21.6598 1.35981 23.3523 3.19016 23.8795 5.01508C23.9072 5.11284 23.9017 5.20517 23.9017 5.29751L33.5296 2.59272C34.1456 2.42435 34.7782 2.77738 34.9447 3.38026C35.1167 3.98856 34.7671 4.62402 34.1567 4.79239L6.47709 12.5809C6.37166 12.608 6.27177 12.6189 6.16633 12.6189Z" fill="#86888C"/>
</svg>
