<svg width="40" height="40" viewBox="0 0 40 40" fill="none" xmlns="http://www.w3.org/2000/svg">
<path fill-rule="evenodd" clip-rule="evenodd" d="M33.5839 35.9155C34.9876 35.9155 35.71 35.27 35.7253 33.9892L35.7202 33.733C35.7049 32.8672 35.3309 31.8375 33.671 31.8068C33.6454 31.8068 33.6198 31.8221 33.5941 31.8221C33.5685 31.8221 33.548 31.8068 33.5224 31.8068C31.8625 31.8426 31.4783 32.8724 31.4578 33.7484V34.0097C31.4732 35.2751 32.1904 35.9155 33.5839 35.9155ZM8.54219 33.733C8.5217 32.8519 8.14259 31.8016 6.42123 31.8016C4.69475 31.8016 4.30539 32.8621 4.2849 33.7484L4.27978 34.0046V34.0097C4.29002 35.27 5.00726 35.9052 6.40074 35.9052C7.79935 35.9052 8.5217 35.2546 8.54219 33.9789V33.733ZM38 33.6921L38.0051 34.0148C37.9795 35.9052 36.8012 38.1082 33.5839 38.1082C30.3666 38.1082 29.2036 35.9155 29.1831 34.0353V33.6869C29.2241 32.0527 30.1258 30.1725 32.4568 29.7063V27.4163H7.53294L7.54319 29.7063C9.88445 30.1622 10.7861 32.0475 10.8168 33.6921L10.822 34.0199C10.7861 35.9104 9.61292 38.1133 6.40074 38.1133C3.18344 38.1133 2.02049 35.9206 2 34.0404C2 33.9277 2 33.7996 2.00512 33.6921C2.04611 32.0578 2.94777 30.1827 5.26854 29.7165L5.25317 26.3199C5.24804 26.0279 5.371 25.7461 5.58617 25.5412C5.80134 25.3312 6.08823 25.2184 6.39562 25.2184H18.814C18.8089 25.1723 18.7884 25.1314 18.7884 25.0852V22.7542C17.3847 22.6825 16.0783 22.4878 15.0332 22.1907C13.5116 21.745 12.738 21.1456 12.738 20.4079V16.6936C13.2452 17.0625 13.9419 17.3801 14.7668 17.626C16.191 18.041 18.0558 18.2664 20.0179 18.2664C21.9903 18.2664 23.8551 18.041 25.2691 17.626C26.0683 17.4006 26.7548 17.0727 27.2722 16.6834V20.4027C27.2722 21.1405 26.4986 21.7399 24.9771 22.1856C23.8961 22.4981 22.5334 22.6928 21.0682 22.7594V25.0801C21.0682 25.1262 21.0477 25.1672 21.0374 25.2133H33.5993C34.2294 25.2133 34.7366 25.7051 34.7366 26.3148V29.7114C37.0778 30.1674 37.9744 32.0475 38 33.6921ZM15.0485 5.6226C13.778 5.25374 13.0095 4.7568 12.8046 4.18301C12.8046 4.17277 12.8046 4.17277 12.7995 4.16764C13.0044 3.58873 13.7729 3.08155 15.0332 2.71781C16.3703 2.32845 18.1378 2.11328 20.0128 2.11328C21.8879 2.11328 23.6553 2.32845 24.9822 2.71781C26.3091 3.10204 27.0571 3.61435 27.2261 4.21375C27.2261 4.21375 27.2159 4.224 27.2159 4.23424C26.9905 4.78754 26.2322 5.26911 24.9925 5.62773C23.6553 6.01708 21.8981 6.23225 20.0282 6.23225C18.1429 6.22713 16.3857 6.01196 15.0485 5.6226ZM15.0485 11.1607C13.86 10.8123 12.9993 10.2846 12.738 9.75694V5.58162C13.2247 5.96073 13.901 6.28348 14.7668 6.52427C16.191 6.93924 18.0558 7.16465 20.0179 7.16465C21.9801 7.16465 23.8398 6.93924 25.2691 6.52427C26.1144 6.27836 26.7804 5.9761 27.2722 5.60211V9.7467C27.0263 10.1924 26.304 10.7764 24.9873 11.1607C23.6605 11.55 21.893 11.7549 20.0231 11.7549C18.1429 11.7549 16.3857 11.55 15.0485 11.1607ZM15.0485 16.7192C13.86 16.3709 12.9993 15.8534 12.738 15.3155V11.1299C13.2554 11.4988 13.9419 11.8164 14.7668 12.0521C16.191 12.4671 18.0558 12.6925 20.0179 12.6925C21.9852 12.6925 23.8551 12.4671 25.2691 12.0521C26.0683 11.8267 26.7497 11.5039 27.2722 11.1197V15.3053C27.0263 15.7458 26.304 16.3299 24.9873 16.7192C23.6605 17.1086 21.893 17.3238 20.0231 17.3238C18.1429 17.3238 16.3857 17.1086 15.0485 16.7192Z" fill="#86888C"/>
</svg>
