<svg width="24" height="24" viewBox="0 0 24 24" fill="none" xmlns="http://www.w3.org/2000/svg">
<path fill-rule="evenodd" clip-rule="evenodd" d="M10.3298 5.39735C9.11765 5.04168 8.38071 4.56082 8.18722 4.00313C8.18722 3.99459 8.18722 3.99459 8.17584 3.98606C8.37217 3.43121 9.10912 2.93897 10.3099 2.5833C11.5874 2.21056 13.2747 2 15.0644 2C16.8542 2 18.5415 2.21056 19.8077 2.5833C21.0738 2.95888 21.7937 3.44829 21.9502 4.03158C21.9502 4.03158 21.9417 4.04012 21.9417 4.0515C21.7283 4.58927 20.9999 5.05307 19.8162 5.4002C18.5386 5.77294 16.8627 5.9835 15.073 5.9835C13.2833 5.9835 11.6045 5.77294 10.3298 5.39735ZM13.4284 12.8607C13.4284 12.2746 13.2833 11.7283 13.0386 11.2303C12.902 10.9458 12.7227 10.6869 12.5235 10.445C12.4837 10.3966 12.4467 10.3483 12.404 10.3056C12.3158 10.2088 12.2248 10.1206 12.1252 10.0353C12.0512 9.96984 11.9772 9.91009 11.8976 9.85033C11.8094 9.78489 11.7268 9.71376 11.6329 9.65685C11.4622 9.54873 11.2858 9.45483 11.1009 9.37516C11.0326 9.34386 10.9586 9.32394 10.8875 9.29549C10.7367 9.23858 10.583 9.19306 10.4237 9.15322C10.3554 9.13615 10.2843 9.12192 10.216 9.1077C9.98833 9.06786 9.75501 9.03941 9.516 9.03941C9.26561 9.03941 9.0266 9.06786 8.79044 9.11054C8.55997 9.15607 8.33518 9.22151 8.11894 9.30118C6.65358 9.85318 5.60649 11.236 5.60649 12.8607C5.60649 14.4854 6.65358 15.8683 8.11894 16.4203C8.4177 16.5341 8.73638 16.6024 9.06644 16.6394C9.21724 16.6564 9.36236 16.6849 9.516 16.6849C10.1107 16.6849 10.6655 16.5455 11.1692 16.315C11.4366 16.1898 11.6842 16.0333 11.9175 15.8569C11.9915 15.8 12.0683 15.7402 12.1394 15.6776C12.2248 15.6036 12.3073 15.524 12.3841 15.4415C12.4695 15.3533 12.5435 15.2594 12.6203 15.1626C12.6772 15.0915 12.7341 15.026 12.7853 14.9549C12.902 14.7842 12.9987 14.6021 13.0841 14.4143C13.1154 14.3488 13.1381 14.2806 13.1637 14.2123C13.2207 14.0615 13.2719 13.9078 13.3089 13.7513C13.3259 13.683 13.343 13.6176 13.3572 13.5493C13.3971 13.3217 13.4284 13.094 13.4284 12.8607ZM15.073 11.3299C14.8539 11.3299 14.6433 11.3214 14.4299 11.3128C14.5267 11.6059 14.595 11.9104 14.6348 12.2234C14.7828 12.2262 14.925 12.2404 15.073 12.2404C16.9566 12.2404 18.735 12.0213 20.0893 11.6201C20.8519 11.4011 21.5063 11.0909 21.9986 10.7182V14.7643C21.7653 15.1911 21.0738 15.7573 19.8162 16.13C18.55 16.5028 16.8627 16.7133 15.073 16.7133C14.3417 16.7133 13.6332 16.6763 12.9617 16.6081C12.6146 16.9125 12.2276 17.1686 11.8094 17.3763C12.8166 17.5328 13.9206 17.6267 15.073 17.6267C16.9566 17.6267 18.735 17.4076 20.0893 17.0064C20.8519 16.7873 21.5063 16.4686 21.9986 16.0959V19.6953C21.9986 20.4066 21.2616 20.9899 19.8077 21.4167C18.5301 21.7894 16.8428 22 15.0644 22C13.2833 22 11.5988 21.7923 10.3099 21.4167C8.85588 20.9871 8.11894 20.4038 8.11894 19.6953V17.7064C7.52426 17.5413 6.97226 17.2852 6.4857 16.9381L3.07128 20.2757C2.94893 20.3952 2.78959 20.455 2.6274 20.455C2.46806 20.455 2.30588 20.3952 2.18353 20.2757C1.93882 20.0367 1.93882 19.6497 2.18353 19.4107L5.56381 16.1044C4.80694 15.2252 4.35169 14.0956 4.35169 12.8607C4.35169 10.5531 5.94793 8.60407 8.11894 8.00654V5.36321C8.58557 5.72741 9.22862 6.03756 10.0595 6.27372C11.4195 6.67492 13.2007 6.89401 15.073 6.89401C16.9452 6.89401 18.7264 6.67492 20.0893 6.27372C20.9003 6.03756 21.5319 5.74449 21.9986 5.38313V9.38939C21.7653 9.81619 21.0738 10.3824 19.8162 10.7552C18.55 11.1279 16.8627 11.3299 15.073 11.3299Z" fill="#86888C"/>
</svg>
