<svg width="24" height="24" viewBox="0 0 24 24" fill="none" xmlns="http://www.w3.org/2000/svg">
<path d="M9.61618 10.3055L12.5246 10.3143C12.5959 10.3143 12.653 10.3759 12.6558 10.4464L12.6644 11.0655C12.6644 11.1388 12.7128 11.1623 12.7699 11.1183L14.475 9.81258C14.5321 9.76857 14.5321 9.69815 14.475 9.65414L12.7813 8.34843C12.7242 8.30442 12.6786 8.32789 12.6815 8.40125L12.69 9.0673C12.69 9.14066 12.633 9.19934 12.5646 9.19934L9.64185 9.20227C9.53349 9.18467 9.4508 9.2815 9.45365 9.37245L9.4508 10.1089C9.43654 10.2322 9.52494 10.3143 9.61618 10.3055ZM14.4294 14.7831L11.5209 14.7919C11.4497 14.7919 11.3926 14.8535 11.3898 14.9239L11.3812 15.543C11.3812 15.6164 11.3327 15.6398 11.2757 15.5958L9.57056 14.2901C9.51353 14.2461 9.51353 14.1757 9.57056 14.1317L11.2643 12.826C11.3213 12.782 11.367 12.8054 11.3641 12.8788L11.3556 13.5448C11.3556 13.6182 11.4126 13.6769 11.481 13.6769L14.4037 13.6798C14.5121 13.6622 14.5948 13.759 14.5919 13.85L14.5948 14.5865C14.609 14.7068 14.5178 14.7889 14.4294 14.7831Z" fill="#86888C"/>
<path d="M8.88336 9.15533C8.88051 9.01742 8.93469 8.87952 9.03164 8.77682C9.14285 8.65945 9.29397 8.6037 9.44795 8.61838L10.8452 8.61544C10.8737 8.54502 10.8908 8.4658 10.8908 8.38364V6.26811C10.8908 4.8069 10.1095 4 8.68662 4H4.20416C2.76133 4 2 4.78342 2 6.26811V14.8681C2 15.6222 2.18534 16.1768 2.56458 16.5641C2.94097 16.9485 3.47704 17.1333 4.20416 17.1333H8.68662C9.54205 17.1333 10.1351 16.8751 10.5058 16.347C10.6142 16.1915 10.637 15.9978 10.5857 15.8276L8.9461 14.5718C8.83489 14.4867 8.77216 14.3605 8.77216 14.2256C8.77216 14.0906 8.83489 13.9644 8.9461 13.8793L10.1551 12.9463L10.158 12.8406C10.1922 12.8524 10.2292 12.8582 10.2635 12.8612L10.8794 12.3858C10.8851 12.3506 10.8908 12.3154 10.8908 12.2773V10.8865L9.40803 10.8806C9.2569 10.8894 9.10863 10.8249 9.00598 10.7046C8.91188 10.596 8.86626 10.4493 8.87766 10.3026L8.88336 9.15533ZM6.84744 15.3141C6.7619 15.4051 6.63358 15.4491 6.47675 15.4491C6.31992 15.4491 6.19161 15.4051 6.10607 15.3141C6.02623 15.229 5.9806 15.1058 5.9806 14.9356C5.9806 14.5835 6.17735 14.4222 6.47675 14.4222C6.77901 14.4222 6.9729 14.5865 6.9729 14.9356C6.9729 15.1058 6.93013 15.229 6.84744 15.3141ZM21.4382 7.43884C21.0618 7.05447 20.5258 6.86668 19.7987 6.86668H15.3162C14.4094 6.86668 13.7707 7.17183 13.42 7.77627C13.3715 7.86136 13.3459 7.95525 13.3402 8.04621L15.0995 9.4018C15.2107 9.48689 15.2734 9.61306 15.2734 9.74803C15.2734 9.883 15.2107 10.0092 15.0995 10.0943L13.8135 11.0801V11.086C13.8106 11.086 13.8078 11.086 13.8049 11.0831L13.1149 11.6112C13.1149 11.6259 13.112 11.6406 13.112 11.6552V13.0871L14.5948 13.09C14.7516 13.0754 14.9027 13.1311 15.0111 13.2485C15.108 13.3512 15.1622 13.4891 15.1594 13.627L15.1622 14.7772C15.1736 14.9239 15.128 15.0706 15.0339 15.1792C14.9313 15.2965 14.783 15.364 14.6319 15.3552L13.1092 15.3611V17.7319C13.1092 19.1931 13.8905 20 15.3134 20H19.7958C21.2386 20 22 19.2166 22 17.7319V9.13479C22.0028 8.38071 21.8175 7.82615 21.4382 7.43884ZM17.9281 18.1632C17.8426 18.2542 17.7143 18.2982 17.5574 18.2982C17.4006 18.2982 17.2723 18.2542 17.1867 18.1632C17.1069 18.0781 17.0613 17.9549 17.0613 17.7847C17.0613 17.4326 17.258 17.2712 17.5574 17.2712C17.8597 17.2712 18.0536 17.4355 18.0536 17.7847C18.0536 17.9549 18.0108 18.0811 17.9281 18.1632Z" fill="#86888C"/>
</svg>
