<svg width="40" height="40" viewBox="0 0 40 40" fill="none" xmlns="http://www.w3.org/2000/svg">
<path fill-rule="evenodd" clip-rule="evenodd" d="M16.3498 8.11698C14.1059 7.47659 12.7431 6.61079 12.3743 5.61178C12.3743 5.59641 12.3743 5.59641 12.3589 5.57592C12.7226 4.57692 14.0854 3.69062 16.3139 3.05023C18.6808 2.37911 21.8059 2 25.1205 2C28.4352 2 31.5654 2.37399 33.9118 3.05023C36.2581 3.72648 37.5902 4.60766 37.8822 5.65789C37.8822 5.65789 37.8617 5.67326 37.8617 5.68863C37.4672 6.65689 36.1198 7.49196 33.9271 8.11698C31.5603 8.7881 28.4557 9.16721 25.1359 9.16721C21.8161 9.16721 18.7167 8.7881 16.3498 8.11698ZM11.9337 25.0078C11.9337 27.3952 13.1581 28.5581 15.6735 28.5581C18.189 28.5581 19.4185 27.4003 19.4185 25.0078C19.4185 22.6205 18.1941 21.4575 15.6735 21.4575C13.1581 21.4575 11.9337 22.6205 11.9337 25.0078ZM21.7444 25.0078C21.7444 28.6145 19.4749 30.7713 15.6735 30.7713C11.8722 30.7713 9.60267 28.6196 9.60267 25.0078C9.60267 21.396 11.8722 19.2443 15.6735 19.2443C19.48 19.2443 21.7444 21.396 21.7444 25.0078ZM11.2984 31.6935C11.9798 32.0111 12.7739 32.2468 13.655 32.38C14.2186 32.4671 14.6284 32.9281 14.6284 33.4712V35.71L16.6316 35.7919C16.6777 35.7919 16.7135 35.7561 16.7135 35.71V33.4712C16.7135 32.9281 17.1285 32.4671 17.692 32.38C18.0916 32.3185 18.4605 32.2314 18.8191 32.1341C19.2495 32.0162 19.6593 31.8728 20.0589 31.6883C20.5046 31.4783 21.0426 31.5654 21.3909 31.8984L22.6666 33.1126L23.0201 33.4456L23.1379 33.5583L24.6799 32.2263L22.9381 30.4332C22.8151 30.3154 22.7332 30.1719 22.6768 30.0233C22.5744 29.7467 22.5744 29.4393 22.7178 29.1627C22.8459 28.9219 22.9432 28.6555 23.0406 28.3891C23.2096 27.9331 23.3531 27.4515 23.4402 26.929C23.5324 26.3911 24.0191 25.9966 24.5929 25.9966H26.9546L27.0417 24.101L24.598 24.0191C24.0242 24.0191 23.5375 23.6246 23.4453 23.0867C23.3018 22.2516 23.0611 21.4985 22.7229 20.8479C22.6768 20.7608 22.6512 20.6686 22.6358 20.5763C22.6153 20.4893 22.6153 20.4073 22.6153 20.3253C22.6256 20.0487 22.7281 19.7771 22.9432 19.5722L23.8141 18.7474L24.6902 17.9175L23.2916 16.4523L21.4012 18.107C21.0477 18.44 20.5149 18.5271 20.0692 18.3222C19.3622 17.9943 18.6245 17.7791 17.7689 17.6459L17.7074 17.6306C17.1439 17.5435 16.7289 17.0824 16.7289 16.5393V14.2954L14.7258 14.2186V14.2596L14.6387 16.5445C14.6387 17.0875 14.2288 17.5486 13.6653 17.6357C12.7841 17.7689 11.99 17.9994 11.3087 18.3222C10.863 18.5322 10.3199 18.4503 9.96642 18.1121L8.21944 16.4574L6.67739 17.7843L8.41924 19.5773C8.7881 19.9308 8.87007 20.4688 8.60879 20.9042C8.30141 21.4165 8.04013 22.3746 7.91718 23.0969C7.82496 23.6297 7.33827 24.0242 6.7696 24.0242H4.41298L4.32589 25.9249L6.7696 26.0017C7.33827 26.0017 7.83008 26.3962 7.91718 26.929C8.04013 27.6513 8.30141 28.6042 8.60879 29.1217C8.86495 29.552 8.7881 30.0951 8.41924 30.4434L6.67739 32.0982L8.07599 33.5634L9.96642 31.9035C10.1867 31.6935 10.489 31.5808 10.7861 31.5808C10.9552 31.5808 11.1345 31.6166 11.2984 31.6935ZM25.346 20.4227C28.7579 20.4073 31.9804 20.0179 34.4343 19.3109C35.8483 18.9165 37.0574 18.358 37.9744 17.6869V24.9668C37.5389 25.7353 36.2633 26.7497 33.9323 27.4259C31.6627 28.0766 28.6555 28.4454 25.4587 28.4659C25.3664 28.7835 25.2691 29.1063 25.1462 29.4034L25.8736 30.0899C29.0858 30.0387 32.1033 29.6647 34.4343 28.9987C35.8483 28.6042 37.0574 28.0305 37.9744 27.3593V33.8349C37.9744 35.1106 36.6116 36.1608 33.9169 36.9344C31.55 37.6106 28.4249 37.9846 25.1257 37.9846C22.6666 37.9846 20.3048 37.7746 18.271 37.3852C17.8406 37.7643 17.2668 38 16.6367 38H14.7206C13.3886 38 12.3077 36.9703 12.3077 35.71V34.3677C11.8671 34.2653 11.4521 34.1423 11.0474 33.9937L9.86395 35.1157C8.94692 35.9866 7.34851 35.9917 6.42636 35.1157L5.02775 33.7837C4.57179 33.3482 4.31564 32.7642 4.31564 32.1494C4.31564 31.5295 4.57179 30.9506 5.03287 30.5152L6.20606 29.4034C6.037 28.9936 5.91405 28.5684 5.82183 28.1944H4.41298C3.08097 28.1944 2 27.1647 2 25.9044V24.0857C2 22.8203 3.08097 21.7956 4.41298 21.7956H5.82183C5.91405 21.4268 6.04212 21.0016 6.20606 20.5866L5.03287 19.4749C4.57692 19.0394 4.32076 18.4554 4.32076 17.8406C4.32076 17.2207 4.57692 16.6418 5.038 16.2063L6.4366 14.8846C7.35876 14.0137 8.95717 14.0137 9.8742 14.8846L11.0576 16.0065C11.4624 15.8631 11.8773 15.735 12.3179 15.6274V14.3415L12.2821 14.3364L12.2206 8.14772C13.0915 8.79835 14.2852 9.34652 15.8272 9.75637C18.3529 10.4531 21.6573 10.822 25.1257 10.7912C28.5991 10.7605 31.8933 10.3353 34.4036 9.59243C35.9047 9.15184 37.0727 8.61904 37.9283 7.95304L38 15.1664C37.5748 15.9399 36.3094 16.9697 33.9835 17.6613C32.0418 18.2351 29.552 18.5886 26.8726 18.7115C26.7497 18.9933 26.5755 19.2495 26.3398 19.4698L25.346 20.4227Z" fill="#86888C"/>
</svg>
