<svg width="24" height="24" viewBox="0 0 24 24" fill="none" xmlns="http://www.w3.org/2000/svg">
<path fill-rule="evenodd" clip-rule="evenodd" d="M18.3062 7.38418C19.3449 7.38418 19.9624 6.75811 19.9624 5.70803C19.9624 4.65794 19.3421 4.03187 18.3062 4.03187C17.2675 4.03187 16.65 4.65794 16.65 5.70803C16.65 6.75811 17.2675 7.38418 18.3062 7.38418ZM18.2891 13.6818C19.3278 13.6818 19.9454 13.0558 19.9454 12.0057C19.9454 10.9556 19.325 10.3295 18.2891 10.3295C17.2504 10.3295 16.63 10.9556 16.63 12.0057C16.63 13.0558 17.2504 13.6818 18.2891 13.6818ZM18.2891 19.9824C19.3278 19.9824 19.9454 19.3563 19.9454 18.3062C19.9454 17.2561 19.325 16.6301 18.2891 16.6301C17.2504 16.6301 16.63 17.2561 16.63 18.3062C16.63 19.3563 17.2504 19.9824 18.2891 19.9824ZM10.56 6.33694C10.9044 6.33694 11.1833 6.05521 11.1833 5.70518C11.1833 5.35515 10.9044 5.07342 10.56 5.07342H4.786C4.44166 5.07342 4.16278 5.35515 4.16278 5.70518C4.16278 6.05521 4.44166 6.33694 4.786 6.33694H10.56ZM10.56 12.6375C10.9044 12.6375 11.1833 12.3557 11.1833 12.0057C11.1833 11.6557 10.9044 11.3739 10.56 11.3739H4.786C4.44166 11.3739 4.16278 11.6557 4.16278 12.0057C4.16278 12.3557 4.44166 12.6375 4.786 12.6375H10.56ZM10.56 18.9778C10.9044 18.9778 11.1833 18.6961 11.1833 18.346C11.1833 17.996 10.9044 17.7143 10.56 17.7143H4.786C4.44166 17.7143 4.16278 17.996 4.16278 18.346C4.16278 18.6932 4.44166 18.9778 4.786 18.9778H10.56ZM22.0028 9.73478L21.9972 14.2652C21.9972 14.584 21.8947 14.8771 21.7268 15.119C21.9004 15.3637 22.0028 15.6596 22.0028 15.9812L21.9972 20.5117C21.9972 21.3312 21.3369 22 20.523 22H3.4741C2.66306 22 2 21.3312 2 20.5117L2.00569 15.9812C2.00569 15.6625 2.10529 15.3694 2.27604 15.1275C2.10245 14.8828 2 14.5868 2 14.2652L2.00569 9.73478C2.00569 9.41605 2.10529 9.12294 2.27604 8.88105C2.10245 8.63631 2 8.34035 2 8.01878L2.00569 3.48833C2.00569 2.66875 2.66591 2 3.47695 2H20.5259C21.3369 2 21.9972 2.66875 21.9972 3.48833L21.9915 8.01878C21.9915 8.33751 21.889 8.63062 21.7211 8.87251C21.9004 9.11725 22.0028 9.4132 22.0028 9.73478ZM18.3062 5.03927C18.7928 5.03927 18.9664 5.21571 18.9664 5.70803C18.9664 6.20034 18.7928 6.37678 18.3062 6.37678C17.8196 6.37678 17.646 6.20034 17.646 5.70803C17.646 5.21286 17.8196 5.03927 18.3062 5.03927ZM18.2891 11.3369C18.7758 11.3369 18.9493 11.5134 18.9493 12.0057C18.9493 12.498 18.7758 12.6744 18.2891 12.6744C17.8025 12.6744 17.6289 12.498 17.6289 12.0057C17.6289 11.5134 17.8025 11.3369 18.2891 11.3369ZM18.2891 17.6375C18.7758 17.6375 18.9493 17.8139 18.9493 18.3062C18.9493 18.7985 18.7758 18.975 18.2891 18.975C17.8025 18.975 17.6289 18.7985 17.6289 18.3062C17.6289 17.8139 17.8025 17.6375 18.2891 17.6375Z" fill="#86888C"/>
</svg>
