<svg width="28" height="28" viewBox="0 0 28 28" fill="none" xmlns="http://www.w3.org/2000/svg">
<path fill-rule="evenodd" clip-rule="evenodd" d="M9.7964 20.0071C11.316 20.0071 11.7327 19.4505 11.7327 17.4118C11.7327 16.1346 11.5483 15.4516 11.118 15.1272C10.8379 14.9189 10.4043 14.8164 9.7964 14.8164C9.18513 14.8164 8.74802 14.9223 8.468 15.134C8.04114 15.4619 7.86015 16.1414 7.86015 17.4118C7.86356 19.4505 8.27677 20.0071 9.7964 20.0071ZM9.79982 13.2729C8.49873 13.2729 8.49873 13.5358 8.49873 13.9012C8.49873 13.9081 8.50215 13.9149 8.50215 13.9217C8.86754 13.7988 9.29099 13.7305 9.7964 13.7305C10.3018 13.7305 10.7287 13.7988 11.0975 13.9217L11.1009 13.8978C11.0975 13.5358 11.0975 13.2729 9.79982 13.2729ZM12.5864 13.2797C12.5693 12.9792 12.7981 12.7231 13.0986 12.7094H13.102C13.4025 12.6685 13.6587 12.9246 13.6757 13.2251L13.7372 14.3998C13.7509 14.6491 13.5904 14.8745 13.3513 14.9462L12.4839 15.2091C12.6513 15.6019 12.7401 16.0458 12.7844 16.4966H13.4469C13.7475 16.4966 13.9899 16.739 13.9899 17.0395V17.8181C13.9899 18.1187 13.7475 18.3611 13.4469 18.3611C13.1464 18.3611 12.904 18.1187 12.904 17.8181V17.5825H12.8186C12.8118 18.1426 12.7605 18.6821 12.6308 19.167L13.3547 19.3856C13.5938 19.4573 13.7543 19.6861 13.7406 19.9354L13.6792 21.1067C13.6621 21.397 13.423 21.6224 13.1362 21.6224H13.1089C12.8084 21.6087 12.5796 21.3526 12.5932 21.0521L12.6342 20.3042L12.1595 20.1608C11.7156 20.7276 10.9985 21.0965 9.80323 21.0965C8.6046 21.0965 7.88747 20.7242 7.44353 20.1539L6.95178 20.3042L6.99276 21.0521C7.00983 21.3526 6.77762 21.6053 6.48052 21.6224H6.44637C6.15611 21.6224 5.92048 21.397 5.9034 21.1067L5.84193 19.9354C5.82827 19.6861 5.98536 19.4573 6.22782 19.3856L6.97227 19.1636C6.84592 18.6787 6.79469 18.1391 6.78786 17.5825H6.70249V17.8181C6.70249 18.1187 6.46003 18.3611 6.15952 18.3611C5.85901 18.3611 5.61655 18.1187 5.61655 17.8181V17.0395C5.61655 16.739 5.85901 16.4966 6.15952 16.4966H6.82543C6.86641 16.0458 6.95519 15.6053 7.12253 15.216L6.23465 14.9462C5.9956 14.8745 5.8351 14.6491 5.84876 14.3998L5.91023 13.2251C5.92731 12.9246 6.17659 12.6719 6.48394 12.7094C6.78445 12.7265 7.01666 12.9826 6.99959 13.2831L6.95861 14.031L7.44694 14.1813C7.4367 14.0925 7.42645 14.0037 7.42645 13.9081C7.42645 12.1904 9.09976 12.1904 9.81348 12.1904C10.5272 12.1904 12.2005 12.1904 12.2005 13.9081C12.2005 14.0003 12.1868 14.0856 12.18 14.1744L12.641 14.0344L12.5864 13.2797ZM9.76567 15.6258C10.0662 15.6258 10.3086 15.8682 10.3086 16.1687V19.0817C10.3086 19.3822 10.0662 19.6246 9.76225 19.6246C9.46174 19.6246 9.21928 19.3822 9.21587 19.0851V16.1687C9.21928 15.8682 9.46515 15.6258 9.76567 15.6258ZM12.8596 6.20061C11.497 5.79424 10.6638 5.23761 10.4452 4.59902C10.4452 4.58877 10.4452 4.58877 10.435 4.57853C10.6535 3.93994 11.4834 3.37648 12.8391 2.9701C14.2802 2.53983 16.1789 2.30078 18.1937 2.30078C20.2085 2.30078 22.1106 2.53983 23.538 2.9701C24.9654 3.39697 25.7748 3.96384 25.9523 4.63317C25.9523 4.63317 25.9421 4.64341 25.9421 4.65366C25.6996 5.27175 24.8835 5.80448 23.5483 6.20061C22.1106 6.63089 20.2187 6.86993 18.2039 6.86993C16.1891 6.87335 14.3007 6.63089 12.8596 6.20061ZM16.1037 12.9075V12.5421C14.6456 12.5421 13.727 11.9274 12.904 11.3879C12.7366 11.2786 12.5693 11.1693 12.3986 11.0634C12.3781 11.0532 12.3576 11.0395 12.3405 11.0225C12.1629 10.92 11.9785 10.8244 11.7941 10.7356C11.7805 10.722 11.7634 10.7117 11.7429 10.7049C11.5448 10.6161 11.3468 10.5273 11.1214 10.4692C10.8789 10.3975 10.6296 10.3497 10.3769 10.3224H10.3667C10.1789 10.3019 10.0013 10.2814 9.79299 10.2814C8.35531 10.2814 7.54256 10.8142 6.682 11.3879C5.84876 11.9411 4.91991 12.5523 3.50272 12.5523H3.48223C3.49247 14.1813 3.56077 17.8933 3.86811 19.6383C4.20619 21.5745 7.99674 23.842 9.79299 24.7299C10.2096 24.525 10.715 24.245 11.2785 23.9206H11.2887C11.6951 23.6747 12.1322 23.4084 12.5556 23.1113C12.5659 23.101 12.5864 23.0908 12.6069 23.0737C13.2386 22.6537 13.8362 22.1824 14.3895 21.6633L14.4202 21.6326C14.7685 21.3082 15.0656 20.9633 15.291 20.615C15.3012 20.615 15.3012 20.6047 15.3115 20.5945C15.4208 20.4271 15.5095 20.2598 15.5881 20.0891C15.6496 19.9422 15.7076 19.7851 15.7281 19.6349C15.7588 19.4675 15.7862 19.2695 15.8066 19.0612V19.0509C15.8271 18.8938 15.8476 18.7265 15.8681 18.5489C15.8681 18.508 15.8784 18.4601 15.8784 18.4089C15.9262 17.8762 15.9637 17.2854 15.9979 16.6707C16.0081 16.5819 16.0081 16.4932 16.0081 16.4044C16.0286 16.1687 16.0389 15.9297 16.0389 15.6907C16.0457 15.5131 16.0594 15.3457 16.0594 15.1784C16.0696 15.0384 16.0696 14.9018 16.0696 14.7652C16.0798 14.615 16.0798 14.4681 16.0798 14.3213C16.0867 14.2017 16.0867 14.0754 16.0867 13.9559V13.949C16.0969 13.5597 16.0969 13.2217 16.1037 12.9075ZM18.2039 13.0065C17.9956 13.0065 17.7873 12.9963 17.5892 12.9963C17.579 13.3002 17.579 13.6554 17.5687 14.0412C17.7771 14.0412 17.9854 14.0515 18.2039 14.0515C20.3246 14.0515 22.3257 13.8056 23.8488 13.3412C24.7093 13.0953 25.4435 12.7402 25.9967 12.3065V16.9542C25.7372 17.4459 24.9654 18.0879 23.5414 18.5216C22.114 18.9451 20.2119 19.1943 18.2005 19.1943C17.8932 19.1943 17.5961 19.1739 17.2921 19.1636C17.2614 19.4197 17.2307 19.6759 17.1931 19.8842V19.8944C17.1726 19.9934 17.135 20.1027 17.1043 20.2017C17.4697 20.2222 17.8283 20.2427 18.2039 20.2427C20.3246 20.2427 22.3257 19.9832 23.8488 19.5324C24.7093 19.2729 25.4435 18.9109 25.9967 18.484V22.6093C25.9967 23.4288 25.1737 24.0982 23.5312 24.5933C22.0935 25.0168 20.1914 25.2524 18.1903 25.2524C16.2403 25.2524 14.4065 25.027 12.9689 24.6241C12.0468 25.2183 11.0907 25.7544 10.1072 26.2325C10.0081 26.2769 9.89885 26.2974 9.78957 26.3008C9.68029 26.2974 9.57443 26.2735 9.47198 26.2325C8.81632 25.9183 2.95975 23.0771 2.40653 19.8876C1.97967 17.4971 2.00016 11.9821 2.00016 11.743C2.00357 11.3332 2.33823 11.002 2.74802 11.0054C2.80266 11.0054 2.8573 11.0122 2.90852 11.0259C4.23692 11.2342 4.94723 10.7595 5.85901 10.1585C6.8186 9.52673 7.90796 8.80619 9.78957 8.80619H9.79982C9.99788 8.80619 10.1857 8.81643 10.3633 8.83692V6.16305C10.8892 6.5865 11.6097 6.94165 12.5522 7.21142C14.0889 7.67585 16.0901 7.92173 18.1971 7.92173C20.3041 7.92173 22.3086 7.67585 23.8419 7.21142C24.7503 6.94506 25.4674 6.60699 25.9899 6.18695V10.7937C25.7304 11.2752 24.9586 11.9274 23.5346 12.3611C22.1174 12.7811 20.2153 13.0065 18.2039 13.0065Z" fill="#86888C"/>
</svg>
