<svg width="20" height="20" viewBox="0 0 20 20" fill="none" xmlns="http://www.w3.org/2000/svg">
<path fill-rule="evenodd" clip-rule="evenodd" d="M16.0373 17.1365C16.6612 17.1365 16.9822 16.8496 16.989 16.2804L16.9868 16.1665C16.9799 15.7817 16.8137 15.324 16.076 15.3104C16.0646 15.3104 16.0532 15.3172 16.0418 15.3172C16.0305 15.3172 16.0213 15.3104 16.01 15.3104C15.2722 15.3263 15.1015 15.784 15.0924 16.1733V16.2895C15.0992 16.8519 15.418 17.1365 16.0373 17.1365ZM4.90764 16.1665C4.89853 15.7749 4.73004 15.3081 3.96499 15.3081C3.19767 15.3081 3.02462 15.7794 3.01551 16.1733L3.01323 16.2872V16.2895C3.01779 16.8496 3.33656 17.1319 3.95588 17.1319C4.57749 17.1319 4.89853 16.8428 4.90764 16.2758V16.1665ZM18 16.1483L18.0023 16.2917C17.9909 17.1319 17.4672 18.111 16.0373 18.111C14.6074 18.111 14.0905 17.1365 14.0814 16.3008V16.146C14.0996 15.4197 14.5004 14.584 15.5364 14.3768V13.359H4.45909L4.46364 14.3768C5.5042 14.5795 5.90494 15.4174 5.9186 16.1483L5.92088 16.294C5.90494 17.1342 5.38352 18.1133 3.95588 18.1133C2.52597 18.1133 2.00911 17.1388 2 16.3031C2 16.253 2 16.1961 2.00228 16.1483C2.02049 15.4219 2.42123 14.5886 3.45268 14.3814L3.44585 12.8718C3.44357 12.742 3.49822 12.6168 3.59385 12.5257C3.68948 12.4323 3.81699 12.3822 3.95361 12.3822H9.47289C9.47061 12.3618 9.46151 12.3435 9.46151 12.323V11.287C8.83763 11.2552 8.25701 11.1686 7.79251 11.0366C7.11627 10.8385 6.77245 10.5721 6.77245 10.2442V8.59343C6.99787 8.75737 7.30753 8.89854 7.67411 9.00783C8.3071 9.19226 9.1359 9.29245 10.008 9.29245C10.8846 9.29245 11.7134 9.19226 12.3418 9.00783C12.697 8.90765 13.0021 8.76192 13.2321 8.58887V10.2419C13.2321 10.5698 12.8883 10.8362 12.212 11.0343C11.7316 11.1732 11.1259 11.2597 10.4747 11.2893V12.3208C10.4747 12.3413 10.4656 12.3595 10.4611 12.38H16.0441C16.3242 12.38 16.5496 12.5986 16.5496 12.8695V14.3791C17.5902 14.5818 17.9886 15.4174 18 16.1483ZM7.79935 3.67298C7.23467 3.50904 6.89313 3.28818 6.80205 3.03316C6.80205 3.02861 6.80205 3.02861 6.79977 3.02633C6.89085 2.76904 7.23239 2.54362 7.79251 2.38196C8.38679 2.20891 9.17234 2.11328 10.0057 2.11328C10.839 2.11328 11.6246 2.20891 12.2143 2.38196C12.804 2.55273 13.1365 2.78042 13.2116 3.04682C13.2116 3.04682 13.2071 3.05138 13.2071 3.05593C13.1069 3.30184 12.7699 3.51587 12.2189 3.67526C11.6246 3.8483 10.8436 3.94393 10.0125 3.94393C9.17461 3.94166 8.39362 3.84603 7.79935 3.67298ZM7.79935 6.13434C7.2711 5.97951 6.88857 5.74499 6.77245 5.51046V3.65476C6.98876 3.82326 7.28931 3.9667 7.67411 4.07372C8.3071 4.25815 9.1359 4.35834 10.008 4.35834C10.88 4.35834 11.7066 4.25815 12.3418 4.07372C12.7175 3.96443 13.0135 3.83009 13.2321 3.66387V5.50591C13.1228 5.704 12.8018 5.96357 12.2166 6.13434C11.6269 6.30739 10.8413 6.39847 10.0102 6.39847C9.17461 6.39847 8.39362 6.30739 7.79935 6.13434ZM7.79935 8.60481C7.2711 8.44998 6.88857 8.22001 6.77245 7.98093V6.12068C7.00242 6.28462 7.30753 6.42579 7.67411 6.53053C8.3071 6.71496 9.1359 6.81515 10.008 6.81515C10.8823 6.81515 11.7134 6.71496 12.3418 6.53053C12.697 6.43034 12.9999 6.2869 13.2321 6.11613V7.97638C13.1228 8.1722 12.8018 8.43177 12.2166 8.60481C11.6269 8.77786 10.8413 8.87349 10.0102 8.87349C9.17461 8.87349 8.39362 8.77786 7.79935 8.60481Z" fill="#86888C"/>
</svg>
