<svg width="20" height="20" viewBox="0 0 20 20" fill="none" xmlns="http://www.w3.org/2000/svg">
<path d="M17.4325 16.5001H2.48004C2.23106 16.5001 2.02734 16.2963 2.02734 16.0474C2.02734 15.7984 2.23106 15.5947 2.48004 15.5947H17.4325C17.6815 15.5947 17.8852 15.7984 17.8852 16.0474C17.8852 16.2963 17.6815 16.5001 17.4325 16.5001ZM10.925 8.37194H11.3121L10.5651 7.625V7.87851C10.5651 8.20445 10.6874 8.37194 10.925 8.37194Z" fill="#86888C"/>
<path d="M10.1131 7.87948V7.33398H8.30908V12.3928H11.6047V8.82561H10.9256C10.4254 8.82561 10.1131 8.46345 10.1131 7.87948ZM11.0275 11.6255H8.88853C8.76404 11.6255 8.66218 11.5237 8.66218 11.3992C8.66218 11.2747 8.76404 11.1728 8.88853 11.1728H11.0298C11.1543 11.1728 11.2561 11.2747 11.2561 11.3992C11.2561 11.5237 11.152 11.6255 11.0275 11.6255ZM11.0275 10.7088H8.88853C8.76404 10.7088 8.66218 10.607 8.66218 10.4825C8.66218 10.358 8.76404 10.2561 8.88853 10.2561H11.0298C11.1543 10.2561 11.2561 10.358 11.2561 10.4825C11.2561 10.607 11.152 10.7088 11.0275 10.7088ZM11.2539 9.56576C11.2539 9.69025 11.152 9.79211 11.0275 9.79211H8.88853C8.76404 9.79211 8.66218 9.69025 8.66218 9.56576C8.66218 9.44127 8.76404 9.33942 8.88853 9.33942H11.0298C11.152 9.33942 11.2539 9.43901 11.2539 9.56576Z" fill="#86888C"/>
<path d="M17.2761 5.78542C16.8212 5.26483 16.1421 5 15.2526 5H4.65957C3.7723 5 3.09099 5.26483 2.63603 5.78542C2.21503 6.26981 2 6.97148 2 7.87234V11.8628C2 12.7637 2.21503 13.4654 2.63603 13.9497C3.09099 14.4703 3.77003 14.7352 4.65957 14.7352H15.2526C16.1399 14.7352 16.8212 14.4703 17.2761 13.952C17.6994 13.4676 17.9122 12.766 17.9122 11.8651V7.87234C17.9122 6.97148 17.6971 6.26981 17.2761 5.78542ZM12.2829 12.5532C12.2829 12.8565 12.0702 13.0693 11.7669 13.0693H8.1521C7.83975 13.0693 7.62924 12.8588 7.62924 12.5441V7.17293C7.62924 6.86057 7.83975 6.65233 8.1521 6.65233H10.4156C10.5061 6.65233 10.5921 6.68855 10.6555 6.75192L12.1833 8.28203C12.2467 8.3454 12.2829 8.43368 12.2829 8.52422V12.5532Z" fill="#86888C"/>
</svg>
