<svg width="20" height="20" viewBox="0 0 20 20" fill="none" xmlns="http://www.w3.org/2000/svg">
<path fill-rule="evenodd" clip-rule="evenodd" d="M8.57336 11.529C8.34339 11.2307 8.18173 10.8982 8.10431 10.518H13.2297C13.1523 10.8982 12.9883 11.2284 12.7606 11.529H8.57336ZM9.67084 7.48513C9.9805 7.2711 10.3152 7.05934 10.6659 6.84759C11.0188 7.05934 11.3535 7.26882 11.6632 7.48513H9.67084ZM14.334 10.0011C14.334 8.16138 13.0225 7.11171 11.6495 6.25331C13.0225 5.39491 14.334 4.34524 14.334 2.50548C14.334 2.22769 14.0995 2 13.8103 2C13.5211 2 13.2866 2.22542 13.2866 2.50548C13.2866 4.00142 12.1003 4.80063 10.6681 5.65675C9.23595 4.79835 8.04967 4.00142 8.04967 2.50548C8.04967 2.22769 7.81514 2 7.52597 2C7.2368 2 7.00228 2.22542 7.00228 2.50548C7.00228 4.34524 8.31379 5.39491 9.68678 6.25331C8.31379 7.11171 7.00228 8.16365 7.00228 10.0011C7.00228 10.9483 7.35065 11.6838 7.87206 12.294C7.90394 12.3441 7.94493 12.3874 7.99274 12.4238C8.4709 12.9384 9.06973 13.3642 9.6845 13.7467C8.31151 14.6051 7 15.6548 7 17.4945C7 17.7723 7.23452 18 7.52369 18C7.81286 18 8.04739 17.7746 8.04739 17.4945C8.04739 15.9986 9.23595 15.2016 10.6659 14.3432C12.0958 15.2016 13.2843 16.0009 13.2843 17.4945C13.2843 17.7723 13.5189 18 13.808 18C14.0972 18 14.3317 17.7746 14.3317 17.4945C14.3317 15.6548 13.0202 14.6051 11.6472 13.7467C13.0225 12.8906 14.334 11.8409 14.334 10.0011Z" fill="#86888C"/>
</svg>
