<svg width="40" height="40" viewBox="0 0 40 40" fill="none" xmlns="http://www.w3.org/2000/svg">
<path fill-rule="evenodd" clip-rule="evenodd" d="M35.6189 35H3.71448C2.21647 35 1 33.7304 1 32.174V9.82072C1 8.26428 2.21647 7 3.71448 7H35.6242C37.1222 7 38.3386 8.26428 38.3386 9.82072V32.174C38.3333 33.7304 37.1169 35 35.6189 35ZM17.8074 25.5445C18.4396 25.5445 18.9495 25.0133 18.9495 24.3546C18.9495 23.6959 18.4343 23.1647 17.8074 23.1647H5.97211C5.33997 23.1647 4.83001 23.6959 4.83001 24.3546C4.83001 25.0133 5.34529 25.5445 5.97211 25.5445H17.8074ZM14.004 19.1912C14.6361 19.1912 15.1514 18.66 15.1514 18.0013C15.1514 17.3426 14.6361 16.8114 14.004 16.8114H5.97211C5.33997 16.8114 4.8247 17.3426 4.8247 18.0013C4.8247 18.66 5.33997 19.1912 5.97211 19.1912H14.004ZM27.7676 13.7463C26.6892 13.7463 25.8446 14.0438 25.2656 14.6282C24.66 15.2337 24.3572 16.1368 24.3572 17.3054C24.3572 18.4741 24.66 19.3718 25.2656 19.9774C25.8446 20.5618 26.6892 20.8539 27.7676 20.8539C28.8513 20.8539 29.6906 20.5564 30.2749 19.9774C30.8805 19.3718 31.1886 18.4688 31.1886 17.3001C31.1886 16.1315 30.8805 15.2337 30.2749 14.6228C29.6906 14.0385 28.8513 13.7463 27.7676 13.7463ZM29.8552 22.4104H25.6853C24.421 22.4104 23.3798 22.8141 22.6839 23.5684C22.0412 24.2643 21.7065 25.2311 21.7065 26.3626V27.5471C21.7065 27.7703 21.8818 27.9509 22.0943 27.9509H33.4568C33.6693 27.9509 33.8446 27.7703 33.8446 27.5471V26.3626C33.8446 25.2311 33.5046 24.2643 32.8619 23.5684C32.1554 22.8141 31.1195 22.4104 29.8552 22.4104Z" fill="#86888C"/>
</svg>
