<svg width="20" height="20" viewBox="0 0 20 20" fill="none" xmlns="http://www.w3.org/2000/svg">
<path fill-rule="evenodd" clip-rule="evenodd" d="M5.02108 11.0323L5.8657 11.8813L8.16962 9.56637C8.35858 9.37516 8.6682 9.37516 8.85943 9.56409L8.86171 9.56637C9.05294 9.75758 9.05294 10.0694 8.86171 10.2606L6.21174 12.9239C6.02278 13.1151 5.71544 13.1151 5.52421 12.9262L5.52193 12.9239L4.33126 11.7288C4.14003 11.5354 4.14003 11.2258 4.33126 11.0346C4.52022 10.8411 4.82984 10.8411 5.02108 11.0323C5.02108 11.0323 5.02108 11.03 5.02108 11.0323ZM15.1429 6.60037H16.6113L13.2647 3.34984V4.79072C13.2647 5.3302 13.44 5.78091 13.7723 6.10186C14.107 6.42965 14.5828 6.59809 15.1429 6.60037ZM15.1224 13.0718C15.3933 13.0696 15.6118 12.851 15.6118 12.5802C15.6118 12.3093 15.3956 12.0908 15.1246 12.0885H10.6625C10.6352 12.2774 10.617 12.455 10.5897 12.6052C10.5578 12.7645 10.5077 12.9216 10.4394 13.0696L15.1224 13.0718ZM15.1224 15.4028C15.3933 15.4028 15.6118 15.1842 15.6118 14.9134V14.9111C15.6118 14.6402 15.3933 14.4217 15.1224 14.4194H9.3785C8.96188 14.7995 8.4929 15.1273 8.06034 15.4028H15.1224ZM7.26581 14.7426C7.27719 14.7358 7.28402 14.729 7.29768 14.7222C7.40924 14.6584 7.52534 14.5856 7.64373 14.5059C7.67787 14.4877 7.70292 14.4649 7.73479 14.4467C7.74162 14.4399 7.75528 14.4353 7.76666 14.4262C7.91009 14.3284 8.05579 14.2236 8.19694 14.1189C8.19694 14.1189 8.20377 14.1189 8.20377 14.1121C8.34037 14.0142 8.47241 13.9072 8.59535 13.8025C8.60901 13.7957 8.61584 13.7843 8.6295 13.7775C8.7456 13.6796 8.85716 13.5726 8.96188 13.4747C8.97554 13.4565 8.99603 13.4406 9.00741 13.4224C9.10531 13.3245 9.19637 13.2266 9.27377 13.1288C9.28743 13.1083 9.30109 13.0878 9.31475 13.0764C9.39216 12.9717 9.45818 12.8715 9.50371 12.7759C9.51054 12.7623 9.51737 12.7554 9.5242 12.7418C9.57656 12.6371 9.61527 12.5392 9.62892 12.4413C9.79284 11.4921 9.83154 9.50036 9.8361 8.54887C9.04611 8.52838 8.54526 8.19604 8.09449 7.8933C7.98977 7.82956 7.89871 7.77038 7.80081 7.70892C7.72341 7.66339 7.65056 7.61787 7.57315 7.5769C7.54355 7.56551 7.51624 7.55186 7.48892 7.5382C7.40241 7.49495 7.31362 7.45853 7.22255 7.42666C7.19523 7.41983 7.17019 7.413 7.1497 7.40617C6.91066 7.33333 6.66251 7.29236 6.41208 7.28781H6.40525C5.63576 7.28781 5.21231 7.57007 4.72284 7.88875C4.26524 8.19604 3.75073 8.53749 2.98124 8.55797C2.98579 9.50036 3.02677 11.4876 3.19069 12.4299C3.35232 13.3791 5.16678 14.5924 6.40525 15.2138C6.54185 15.1501 6.68527 15.0704 6.8287 14.9908C6.97213 14.9179 7.12238 14.8337 7.26581 14.7426ZM15.1042 9.72343H10.7945C10.7877 10.0376 10.7741 10.3722 10.7604 10.7068H15.1042C15.3751 10.7068 15.5936 10.486 15.5936 10.2174V10.2151C15.5914 9.94651 15.3751 9.72571 15.1042 9.72343ZM17.7837 6.37047C17.9203 6.50932 18 6.69142 18 6.8758V16.8801C18 17.4901 17.4787 18 16.8594 18H6.98579C6.38021 18 5.84976 17.4833 5.84976 16.8801V16.0401C4.89814 15.5462 2.49177 14.1576 2.22313 12.6052C1.98864 11.2645 1.99547 8.16418 2.0023 8.03215C2.0023 7.88192 2.06604 7.73851 2.19126 7.64746C2.30964 7.55641 2.46217 7.52226 2.60787 7.55641C3.29996 7.66795 3.67105 7.41756 4.18101 7.07839C4.5999 6.80296 5.10759 6.47745 5.85204 6.35908V3.12676C5.84976 2.5372 6.39159 2 6.98579 2H12.9983C13.1804 2 13.358 2.07284 13.4878 2.20487L17.7837 6.37047Z" fill="#86888C"/>
</svg>
