<svg width="20" height="20" viewBox="0 0 20 20" fill="none" xmlns="http://www.w3.org/2000/svg">
<path fill-rule="evenodd" clip-rule="evenodd" d="M17.584 4.87432C18.2738 4.87432 18.8344 5.43374 18.8344 6.12227V15.752C18.8344 16.4406 18.2738 17 17.584 17H3.25036C2.56051 17 2 16.4406 2 15.752V4.24795C2 3.55943 2.56051 3 3.25036 3H9.35844C10.0483 3 10.6088 3.55943 10.6088 4.24795V4.87432H17.584ZM6.93198 8.72336C6.93198 7.76469 7.229 7.26264 8.00987 7.26264C8.79075 7.26264 9.08777 7.76229 9.08777 8.72336C9.08777 9.68443 8.79075 10.1793 8.00987 10.1793C7.229 10.1793 6.93198 9.68443 6.93198 8.72336ZM8.47457 8.72336C8.47457 7.94877 8.34283 7.69296 8.00987 7.69296C7.67692 7.69296 7.54518 7.94638 7.54518 8.72336C7.54518 9.50034 7.67692 9.70833 8.00987 9.70833C8.34283 9.70833 8.47457 9.49795 8.47457 8.72336ZM3.86117 8.72336C3.86117 7.76469 4.15819 7.26264 4.93907 7.26264C5.71994 7.26264 6.01696 7.76229 6.01696 8.72336C6.01696 9.68443 5.71994 10.1793 4.93907 10.1793C4.15819 10.1793 3.86117 9.68443 3.86117 8.72336ZM5.40376 8.72336C5.40376 7.94877 5.27202 7.69296 4.93907 7.69296C4.60612 7.69296 4.47437 7.94638 4.47437 8.72336C4.47437 9.50034 4.60612 9.70833 4.93907 9.70833C5.27202 9.70833 5.40376 9.49795 5.40376 8.72336ZM14.7336 8.72336C14.7336 7.76469 15.0306 7.26264 15.8115 7.26264C16.5923 7.26264 16.8894 7.76229 16.8894 8.72336C16.8894 9.68443 16.5923 10.1793 15.8115 10.1793C15.0306 10.1793 14.7336 9.68443 14.7336 8.72336ZM16.2738 8.72336C16.2738 7.94877 16.142 7.69296 15.8091 7.69296C15.4761 7.69296 15.3444 7.94638 15.3444 8.72336C15.3444 9.50034 15.4761 9.70833 15.8091 9.70833C16.142 9.70833 16.2738 9.49795 16.2738 8.72336ZM9.95728 9.7418H10.4292V7.7862H9.97644V7.39412C10.1417 7.37022 10.422 7.34631 10.6208 7.34631C10.9082 7.34631 11.0064 7.41564 11.0064 7.62124V9.74419H11.4041V10.1578H9.95488V9.7418H9.95728ZM4.26119 14.3511H4.73307V12.3955H4.28275V12.0034C4.44802 11.9795 4.72828 11.9556 4.92709 11.9556C5.21453 11.9556 5.31274 12.0249 5.31274 12.2305V14.3535H5.71036V14.7671H4.26119V14.3511ZM12.4436 9.7418H12.9155V7.7862H12.4652V7.39412C12.6305 7.37022 12.9107 7.34631 13.1095 7.34631C13.397 7.34631 13.4952 7.41564 13.4952 7.62124V9.74419H13.8928V10.1578H12.4436V9.7418ZM6.93198 13.335C6.93198 12.3764 7.229 11.8743 8.00987 11.8743C8.79075 11.8743 9.08777 12.374 9.08777 13.335C9.08777 14.2961 8.79075 14.791 8.00987 14.791C7.229 14.791 6.93198 14.2961 6.93198 13.335ZM8.47457 13.335C8.47457 12.5604 8.34283 12.3046 8.00987 12.3046C7.67692 12.3046 7.54518 12.5581 7.54518 13.335C7.54518 14.112 7.67692 14.32 8.00987 14.32C8.34283 14.32 8.47457 14.1096 8.47457 13.335ZM14.7336 13.335C14.7336 12.3764 15.0306 11.8743 15.8115 11.8743C16.5923 11.8743 16.8894 12.374 16.8894 13.335C16.8894 14.2961 16.5923 14.791 15.8115 14.791C15.0306 14.791 14.7336 14.2961 14.7336 13.335ZM16.2738 13.335C16.2738 12.5604 16.142 12.3046 15.8091 12.3046C15.4761 12.3046 15.3444 12.5581 15.3444 13.335C15.3444 14.112 15.4761 14.32 15.8091 14.32C16.142 14.32 16.2738 14.1096 16.2738 13.335ZM9.95728 14.3535H10.4292V12.3979H9.97644V12.0058C10.1417 11.9819 10.422 11.958 10.6208 11.958C10.9082 11.958 11.0064 12.0273 11.0064 12.2329V14.3559H11.4041V14.7695H9.95488V14.3535H9.95728ZM12.4436 14.3535H12.9155V12.3979H12.4652V12.0058C12.6305 11.9819 12.9107 11.958 13.1095 11.958C13.397 11.958 13.4952 12.0273 13.4952 12.2329V14.3559H13.8928V14.7695H12.4436V14.3535Z" fill="#86888C"/>
</svg>
