<svg width="40" height="40" viewBox="0 0 40 40" fill="none" xmlns="http://www.w3.org/2000/svg">
<path d="M30.61 3.77525C29.6145 2.75078 28.1468 2.25391 26.1147 2.25391H13.9527C10.0013 2.25391 8 4.27724 8 8.27269V32.2351C8 36.2869 9.94489 38.2539 13.9527 38.2539H26.1147C30.1225 38.2539 32.0674 36.2869 32.0674 32.2351V8.27269C32.0674 6.24935 31.5902 4.77923 30.61 3.77525ZM21.5475 33.4389C21.1883 33.8026 20.67 33.9972 20.044 33.9972C19.4179 33.9972 18.8945 33.8026 18.5404 33.4389C18.1863 33.0752 18.0118 32.5783 18.0118 31.9585C18.0118 30.683 18.7713 29.9198 20.0491 29.9198C21.3269 29.9198 22.0812 30.683 22.0812 31.9585C22.0761 32.5783 21.8965 33.0752 21.5475 33.4389ZM26.787 20.4127L20.7265 27.3791C20.552 27.5789 20.3006 27.6967 20.0337 27.6967C19.7669 27.6967 19.5154 27.5789 19.3409 27.3791L13.2959 20.4127C12.9623 20.0285 13.0034 19.4497 13.3882 19.1219C13.5576 18.9784 13.768 18.8965 13.9886 18.8965H16.6212V9.89648C16.6058 9.48157 16.7597 9.07178 17.0471 8.76956C17.396 8.39563 17.8938 8.20098 18.407 8.24195H21.7682C22.6508 8.24195 23.3641 8.94884 23.3693 9.82989C23.3693 9.88623 23.3693 9.93746 23.359 9.9938V18.8965H26.0891C26.5971 18.8965 27.0076 19.3063 27.0076 19.8083C27.0127 20.0336 26.9306 20.2437 26.787 20.4127Z" fill="#86888C"/>
</svg>
