<svg width="40" height="40" viewBox="0 0 40 40" fill="none" xmlns="http://www.w3.org/2000/svg">
<path fill-rule="evenodd" clip-rule="evenodd" d="M19.1443 27.8625C19.7668 27.8625 20.384 27.7069 20.8509 27.5512L32.3299 22.4315V27.7069C32.3299 29.2578 31.2459 30.4975 29.8506 30.8087C27.3712 31.2756 23.9581 32.204 21.4734 34.2219C20.8509 34.6887 20.0781 35 19.3 35C18.5218 35 17.749 34.6887 17.1265 34.2219C14.6471 32.204 11.234 31.2756 8.74931 30.8087C7.354 30.4975 6.26996 29.2578 6.26996 27.7069V22.5872L17.4378 27.5512C17.9046 27.7069 18.5272 27.8625 19.1443 27.8625ZM37.1384 30.0306C37.9165 30.6531 38.3781 31.8928 38.3781 32.6656C38.3781 33.1324 38.2224 33.594 37.9112 33.7496C37.5999 34.0609 36.9827 34.2165 36.5159 34.2165H35.5821C34.9596 34.2165 34.3424 34.2165 33.8755 33.7496C33.5643 33.4383 33.4086 33.1271 33.4086 32.6656C33.4086 31.8874 33.8755 30.6477 34.6483 30.0306V19.6409L20.0674 26.1559C19.7561 26.3115 19.2892 26.4672 18.9833 26.4672C18.5164 26.4672 18.2052 26.3115 17.8993 26.1559L2.70656 19.3297C1.62252 18.8628 1 17.9344 1 16.6947C1 15.6106 1.62252 14.5212 2.70656 14.0597L17.9046 7.23345C18.6828 6.92218 19.4556 6.92218 20.2337 7.23345L35.4318 14.0597C36.9988 14.7788 36.9827 16.5659 36.9827 17.4728L37.1384 30.0306Z" fill="#86888C"/>
</svg>
