<svg width="28" height="28" viewBox="0 0 28 28" fill="none" xmlns="http://www.w3.org/2000/svg">
<path fill-rule="evenodd" clip-rule="evenodd" d="M14.4986 2.01366C16.848 2.0683 25.9966 2.99715 25.9966 14.0341C25.9966 25.0916 16.8378 25.9522 14.5464 25.9932C14.3312 26 14.0854 26 13.8395 26C13.7097 26 13.5766 26 13.4502 25.9966C11.0393 25.9624 2 25.0916 2 13.9624C2 2.85031 10.9573 2.0239 13.3648 2.00341C13.4365 2.00341 13.5048 2 13.58 2C13.8907 2 14.2186 2.00683 14.4986 2.01366ZM20.4166 15.7519H16.4895C16.2914 15.7519 16.1002 15.8304 15.9567 15.9738C15.8167 16.1138 15.7382 16.3051 15.7382 16.5031L15.7484 20.4269C15.7484 20.6113 15.6221 20.7342 15.5811 20.741H12.4428C12.3984 20.7308 12.2721 20.6113 12.2721 20.4269V16.4997C12.2721 16.0865 11.9374 15.7484 11.5208 15.7484H7.59363C7.40239 15.7484 7.28287 15.6221 7.27604 15.5811V12.453C7.28628 12.4087 7.40581 12.2823 7.59363 12.2823H11.5208C11.934 12.2823 12.2721 11.9476 12.2721 11.531V7.60387C12.2721 7.43313 12.395 7.29311 12.4394 7.27945L15.5572 7.27604C15.6118 7.29311 15.7382 7.43313 15.7382 7.60387V11.5276C15.7382 11.9408 16.0729 12.2789 16.4895 12.2789H20.4166C20.5805 12.2789 20.7205 12.3984 20.741 12.4565L20.7445 15.5709C20.7274 15.6255 20.5874 15.7519 20.4166 15.7519ZM20.4166 10.7797H17.2373V7.61411C17.2373 6.64086 16.4587 5.79055 15.5709 5.79055H12.4394C11.5344 5.79055 10.7729 6.62721 10.7729 7.61411V10.79H7.59704C6.61013 10.79 5.78031 11.5515 5.78031 12.4565V15.5879C5.78031 16.4895 6.61013 17.2544 7.59704 17.2544H10.7729V20.4303C10.7729 21.4138 11.5378 22.2436 12.4394 22.2436H15.5811C16.4861 22.2436 17.2476 21.4138 17.2476 20.4269L17.2408 17.2544H20.4166C21.3899 17.2544 22.2436 16.4758 22.2436 15.5879V12.4462C22.2436 11.5583 21.3899 10.7797 20.4166 10.7797Z" fill="#86888C"/>
</svg>
