<svg width="20" height="20" viewBox="0 0 20 20" fill="none" xmlns="http://www.w3.org/2000/svg">
<path fill-rule="evenodd" clip-rule="evenodd" d="M8.68867 4.7379C8.92444 5.10668 9.11444 5.34569 9.43948 5.68032C9.47153 5.71219 9.57912 5.82373 9.67297 5.88974C9.7508 5.94893 9.84236 5.9899 9.93392 6.00812C9.9591 6.01494 9.98657 6.0195 10.014 6.02177H10.0804C10.1079 6.0195 10.1354 6.01722 10.1605 6.00812C10.2498 5.9899 10.3414 5.94893 10.4215 5.88974C10.5153 5.82145 10.6252 5.71219 10.655 5.68032C10.6573 5.67804 10.6596 5.67349 10.6641 5.67121C10.9823 5.34114 11.17 5.10212 11.4058 4.7379C11.7034 4.27353 11.9071 3.81598 12.0124 3.37209C12.1269 2.8895 12.033 2.48886 11.7469 2.24301C11.5798 2.0996 11.3554 2.01537 11.1128 2.00172C10.8564 1.98806 10.5909 2.05635 10.3437 2.19293C10.259 2.24073 10.172 2.28854 10.0781 2.34545C10.069 2.35 10.0575 2.35455 10.0484 2.35455C10.0369 2.35455 10.0255 2.35228 10.0163 2.34545C9.92248 2.28854 9.83778 2.23846 9.7508 2.19293C9.50358 2.05635 9.23805 1.98806 8.98167 2.00172C8.73903 2.01537 8.51241 2.0996 8.34531 2.24301C8.06146 2.48658 7.96532 2.88722 8.07978 3.37209C8.18736 3.81598 8.39109 4.27353 8.68867 4.7379ZM6.0219 10.2763C5.30771 10.2763 4.74918 10.0874 4.36232 9.71631C3.96173 9.33161 3.7603 8.75796 3.7603 8.01587C3.7603 7.27377 3.96402 6.70013 4.36232 6.31315C4.74918 5.93755 5.30771 5.75089 6.0219 5.75089C6.73609 5.75089 7.29462 5.93982 7.68377 6.31315C8.08435 6.70241 8.29037 7.27605 8.29037 8.01814C8.29037 8.76024 8.08435 9.33388 7.68377 9.72086C7.29462 10.0874 6.73609 10.2763 6.0219 10.2763ZM14.0657 10.2763C13.3515 10.2763 12.793 10.0874 12.4061 9.71631C12.0055 9.33161 11.8041 8.75796 11.8041 8.01587C11.8041 7.27377 12.0078 6.70013 12.4061 6.31315C12.793 5.93755 13.3515 5.75089 14.0657 5.75089C14.7799 5.75089 15.3384 5.93982 15.7276 6.31315C16.1282 6.70241 16.3342 7.27605 16.3342 8.01814C16.3342 8.76024 16.1282 9.33388 15.7276 9.72086C15.3384 10.0874 14.7799 10.2763 14.0657 10.2763ZM10.0598 8.48025C10.5268 8.48025 10.893 8.60317 11.1448 8.84902C11.4081 9.10397 11.5431 9.47729 11.5431 9.96444C11.5431 10.4493 11.4104 10.8249 11.1448 11.0776C10.893 11.3189 10.5245 11.4418 10.0598 11.4418C9.59285 11.4418 9.2266 11.3189 8.9748 11.0753C8.71156 10.8249 8.58108 10.4493 8.58108 9.96216C8.58108 9.47502 8.71156 9.10169 8.9748 8.84902C9.22889 8.60317 9.59285 8.48025 10.0598 8.48025ZM7.40221 12.0519C7.83942 12.0519 8.23543 12.1247 8.58337 12.2613C8.10038 12.3546 7.68606 12.5663 7.37245 12.8941C6.97187 13.3084 6.76127 13.873 6.76127 14.5194V18H2.06409C2.02976 18 2 17.9704 2 17.9363V14.5672C2 13.8479 2.22433 13.2333 2.64781 12.7917C3.11249 12.3091 3.79921 12.0541 4.6393 12.0541H7.40221V12.0519ZM10.9617 12.8736C11.5111 12.8736 11.962 13.0398 12.2642 13.3562C12.5435 13.6453 12.6923 14.0482 12.6923 14.5194V18H7.59907H7.43197V14.5194C7.43197 14.0482 7.57847 13.6453 7.85545 13.3585C8.1576 13.0421 8.60855 12.8759 9.15793 12.8759H10.9617V12.8736ZM17.4375 12.7894C17.8633 13.2333 18.0899 13.8456 18.0899 14.5672V17.9363C18.0899 17.9704 18.0624 17.9977 18.0258 17.9977H13.363V14.5194C13.363 13.8707 13.1501 13.3084 12.7495 12.8918C12.429 12.5618 12.0078 12.3478 11.518 12.2567C11.8613 12.1247 12.2528 12.0541 12.6831 12.0541H15.4437C16.2838 12.0519 16.9728 12.3068 17.4375 12.7894Z" fill="#86888C"/>
</svg>
