<svg width="40" height="40" viewBox="0 0 40 40" fill="none" xmlns="http://www.w3.org/2000/svg">
<path fill-rule="evenodd" clip-rule="evenodd" d="M23.4889 5.05293V8.28002C23.4889 9.48378 23.8782 10.498 24.6107 11.2203C25.3534 11.9476 26.4035 12.3369 27.6534 12.3369H30.8958L23.4889 5.05293ZM33.9129 12.5316C33.9693 12.6648 34 12.8133 34 12.967V35.4696C34 36.8423 32.8372 38 31.4644 38H9.53557C8.18327 38 7 36.8167 7 35.4696V4.53045C7 3.20376 8.20888 2 9.53557 2H22.8845C23.2994 2 23.6938 2.15879 23.9909 2.45589L33.5236 11.8298C33.7234 12.0245 33.8412 12.2755 33.9129 12.5316ZM25.6659 20.8708L18.8224 18.9858V17.8691L25.6659 19.7541V20.8708ZM24.2521 32.0068H24.0626C23.1252 31.9915 22.654 31.4741 22.654 30.465C22.654 30.0911 22.654 28.9539 24.037 28.9385H24.2419C25.1895 28.9641 25.6659 29.4815 25.6659 30.4752C25.6659 31.4741 25.1895 31.9863 24.2521 32.0068ZM15.5339 28.3341H15.3238C14.3916 28.3187 13.9152 27.8014 13.9152 26.7923C13.9152 26.4183 13.9152 25.2812 15.2982 25.2709H15.498C16.4456 25.2914 16.9271 25.8139 16.9271 26.8127C16.9271 27.8014 16.4508 28.3136 15.5339 28.3341ZM26.4087 17.9613L18.4946 15.7792L18.2487 15.7433C17.5213 15.7433 16.9323 16.3426 16.9323 17.0854V23.6522C16.4815 23.4576 16.0051 23.3552 15.5492 23.3449H15.288C13.782 23.3603 12.025 24.2721 12.025 26.7974C12.025 29.3227 13.7871 30.2447 15.2982 30.2652H15.5595C17.0091 30.2345 18.679 29.3637 18.8071 27.074L18.8327 20.9835L25.6762 22.8736V27.3301C25.2254 27.1355 24.749 27.033 24.2931 27.0228L24.0319 27.0176C22.5259 27.033 20.7689 27.9448 20.7689 30.4701C20.7689 32.9954 22.5361 33.9175 24.0421 33.938H24.3034C25.8145 33.9072 27.5766 32.9903 27.5766 30.4855V19.3034C27.5612 18.6067 27.0541 18.0433 26.4087 17.9613Z" fill="#86888C"/>
</svg>
