<svg width="24" height="24" viewBox="0 0 24 24" fill="none" xmlns="http://www.w3.org/2000/svg">
<path fill-rule="evenodd" clip-rule="evenodd" d="M3.22803 15.3134C3.22803 15.9906 3.77539 16.5426 4.45038 16.5426H14.4192C15.0942 16.5426 15.6416 15.9906 15.6416 15.3134V11.1535C15.6416 10.4763 15.0942 9.92431 14.4192 9.92431H4.45038C3.77539 9.92431 3.22803 10.4735 3.22803 11.1535V15.3134ZM20.1878 7.74193L16.0188 3.69583V5.48841C16.0188 6.15706 16.2372 6.72044 16.6484 7.12164C17.0681 7.52852 17.658 7.74193 18.3614 7.74193H20.1878ZM21.6654 7.46024C21.8384 7.6338 21.932 7.85574 21.932 8.09475V20.5944C21.932 21.3569 21.2797 22 20.5055 22H8.17416C7.41409 22 6.74761 21.3427 6.74761 20.5944L6.78164 17.7775H4.45321C3.09757 17.7718 2.00284 16.6706 2 15.3134V11.1564C2 9.79627 3.09757 8.69512 4.45038 8.69227H6.74477V3.40561C6.74477 2.66866 7.42543 2 8.17132 2H15.6784C15.911 2 16.1294 2.08821 16.2967 2.24755L21.6654 7.46024Z" fill="#86888C"/>
<path d="M5.36914 14.6588L7.18991 12.0354H5.42303V11.4037H8.2421V11.9301L6.44969 14.5308H8.25344V15.1624H5.36914V14.6588ZM8.87171 11.4009H9.72821V15.1624H8.87171V11.4009ZM10.5478 11.4009H11.8354C12.4225 11.4009 12.794 11.4834 13.0351 11.7082C13.2393 11.896 13.3357 12.1862 13.3357 12.5874C13.3357 12.9886 13.2421 13.2902 13.0549 13.5008C12.8366 13.7483 12.4962 13.865 12.0027 13.865H11.3987V15.1624H10.5422V11.4009H10.5478ZM11.8269 13.2219C12.102 13.2219 12.2155 13.1821 12.3261 13.0796C12.4253 12.9801 12.4735 12.8207 12.4735 12.6016C12.4735 12.3996 12.431 12.2488 12.3317 12.1549C12.2268 12.061 12.068 12.024 11.8042 12.024H11.4043V13.2248H11.8269V13.2219Z" fill="#86888C"/>
</svg>
