<svg width="24" height="24" viewBox="0 0 24 24" fill="none" xmlns="http://www.w3.org/2000/svg">
<path fill-rule="evenodd" clip-rule="evenodd" d="M3.23221 15.62C3.23221 16.2973 3.78145 16.8494 4.45874 16.8494H14.4616C15.1389 16.8494 15.6881 16.2973 15.6881 15.62V11.4623C15.6881 10.7851 15.1389 10.233 14.4616 10.233H4.45874C3.78145 10.233 3.23221 10.7822 3.23221 11.4623V15.62ZM20.247 8.04743L16.0666 4.00076V5.79359C16.0666 6.46234 16.2857 7.0258 16.6983 7.42706C17.1195 7.83115 17.7114 8.04743 18.4143 8.04743H20.247ZM21.9516 8.15842C21.9829 8.23525 22 8.31493 22 8.39746V20.8989C22 21.6615 21.3455 22.3047 20.5686 22.3047H8.19522C7.43256 22.3047 6.7638 21.6473 6.7638 20.8989L6.79795 18.0816H4.46158C3.10131 18.0787 2.00285 16.9774 2 15.62V11.4623C2 10.1021 3.10131 9.00076 4.45874 8.99791H6.76096V3.71049C6.76096 2.97344 7.44394 2.30469 8.19237 2.30469H15.7251C15.9613 2.30469 16.1804 2.39291 16.3483 2.55511L21.7297 7.76286C21.8435 7.87384 21.9089 8.01328 21.9516 8.15842Z" fill="#86888C"/>
<path d="M5.26449 15.0111C4.94861 14.6725 4.81201 14.1887 4.81201 13.5427C4.81201 12.3788 5.33848 11.5962 6.61338 11.5962C6.93495 11.5962 7.34758 11.6673 7.58663 11.7641L7.47849 12.3845C7.19107 12.3019 6.91218 12.2536 6.67883 12.2536C5.87917 12.2536 5.6942 12.78 5.6942 13.5199C5.6942 13.961 5.77672 14.331 5.9617 14.5359C6.12391 14.7208 6.3601 14.8034 6.77843 14.8034C6.95771 14.8034 7.24514 14.7692 7.46426 14.7265L7.55248 15.3469C7.33051 15.4124 6.92072 15.4607 6.61622 15.4607C5.95601 15.4607 5.54337 15.3042 5.26449 15.0111ZM8.04195 15.2701L8.17285 14.6241C8.50012 14.7379 8.92983 14.8091 9.20017 14.8091C9.70103 14.8091 9.93438 14.6781 9.93438 14.3367C9.93438 13.6394 8.03626 14.146 8.03626 12.6833C8.03626 11.9263 8.62818 11.5962 9.42214 11.5962C9.78071 11.5962 10.1734 11.6503 10.4608 11.7499L10.3299 12.3816C10.0254 12.2991 9.69818 12.2507 9.43637 12.2507C8.9782 12.2507 8.83307 12.4129 8.83307 12.6491C8.83307 13.3776 10.7312 12.8768 10.7312 14.331C10.7312 14.6639 10.6174 14.9286 10.421 15.1136C10.1592 15.3583 9.80632 15.4664 9.27416 15.4664C8.80177 15.4607 8.41759 15.401 8.04195 15.2701ZM11.252 15.2701L11.3829 14.6241C11.7101 14.7379 12.1398 14.8091 12.4102 14.8091C12.911 14.8091 13.1444 14.6781 13.1444 14.3367C13.1444 13.6394 11.2463 14.146 11.2463 12.6833C11.2463 11.9263 11.8382 11.5962 12.6322 11.5962C12.9907 11.5962 13.3834 11.6503 13.6709 11.7499L13.54 12.3816C13.2355 12.2991 12.9082 12.2507 12.6464 12.2507C12.1882 12.2507 12.0431 12.4129 12.0431 12.6491C12.0431 13.3776 13.9412 12.8768 13.9412 14.331C13.9412 14.6639 13.8274 14.9286 13.631 15.1136C13.3692 15.3583 13.0163 15.4664 12.4842 15.4664C12.0146 15.4607 11.6276 15.401 11.252 15.2701Z" fill="#86888C"/>
</svg>
