<svg width="24" height="24" viewBox="0 0 24 24" fill="none" xmlns="http://www.w3.org/2000/svg">
<path fill-rule="evenodd" clip-rule="evenodd" d="M18.2783 7.74274L14.1605 3.69607V5.4889C14.1605 6.15766 14.3768 6.72112 14.7837 7.12237C15.1964 7.52647 15.7797 7.74274 16.4741 7.74274H18.2783ZM19.9573 7.85088C19.9886 7.92487 20.0028 8.0074 20.0028 8.09277V20.5942C20.0028 21.3569 19.3569 22 18.5942 22H6.40865C5.66022 22 5 21.3426 5 20.5942V3.40581C5 2.66875 5.6716 2 6.40865 2H13.8247C14.0581 2 14.2743 2.08822 14.4394 2.25327L19.7353 7.46101C19.852 7.572 19.9146 7.70859 19.9573 7.85088ZM15.3358 12.8907L15.6801 11.889L16.1867 12.8907H15.3358ZM15 13.8782H16.0302L14.0581 16.6357L15 13.8782ZM10.0512 13.8782L11.0074 16.6784L8.98406 13.8782H10.0512ZM10.5663 12.3813L10.1394 11.132H11.5424L10.5663 12.3813ZM14.4821 12.3842L13.4889 11.132H14.9118L14.4821 12.3842ZM11.4087 12.8907L12.5157 11.4792L13.634 12.8907H11.4087ZM13.9698 13.8782L12.5213 18.1098L11.0757 13.8782H13.9698ZM9.3654 11.8691L9.71542 12.8907H8.83608L9.3654 11.8691ZM17.4189 13.1725C17.416 13.1668 17.4189 13.1639 17.416 13.1582L16.0302 10.4234L16.0273 10.4121C16.0245 10.4064 16.0188 10.4035 16.0159 10.4007C15.9818 10.3352 15.9306 10.284 15.8708 10.2413C15.8509 10.2299 15.8338 10.2186 15.8139 10.2072C15.794 10.1986 15.7769 10.1816 15.757 10.173C15.7143 10.1588 15.6688 10.1588 15.6261 10.1531C15.6147 10.1531 15.6061 10.1446 15.5948 10.1446H9.45931C9.44792 10.1446 9.43939 10.1531 9.428 10.1531C9.38532 10.1559 9.34263 10.1559 9.29994 10.1702C9.28002 10.1787 9.26295 10.1929 9.24587 10.2043C9.22311 10.2157 9.20603 10.2271 9.18611 10.2413C9.13204 10.2812 9.08367 10.3295 9.04952 10.3865C9.04382 10.395 9.03529 10.3978 9.0296 10.4064L7.59818 13.1525C7.59533 13.1582 7.59818 13.1639 7.59533 13.1696C7.56403 13.2351 7.54411 13.3062 7.54411 13.383C7.54411 13.3887 7.54696 13.3973 7.54696 13.403C7.54696 13.42 7.55549 13.4371 7.55834 13.4542C7.56688 13.5225 7.58964 13.5822 7.62379 13.6392C7.62948 13.6505 7.62948 13.6648 7.63517 13.6762L12.1343 19.9055H12.1372C12.177 19.9624 12.2311 20.0023 12.288 20.0364C12.3022 20.045 12.3164 20.0507 12.3307 20.0563C12.3904 20.0848 12.4559 20.1047 12.527 20.1047H12.5299C12.5982 20.1047 12.6636 20.0848 12.7234 20.0563C12.7376 20.0478 12.7519 20.0421 12.7661 20.0336C12.823 19.9994 12.8771 19.9567 12.9169 19.9027C12.9198 19.9027 12.9197 19.9027 12.9197 19.8998L17.3791 13.6705C17.3876 13.6591 17.3847 13.6448 17.3933 13.6335C17.4246 13.5794 17.4474 13.5225 17.4559 13.457C17.4587 13.4371 17.4673 13.42 17.4673 13.4001C17.4673 13.3916 17.473 13.3859 17.473 13.3773C17.4701 13.309 17.4474 13.2379 17.4189 13.1725Z" fill="#86888C"/>
</svg>
