<svg width="28" height="28" viewBox="0 0 28 28" fill="none" xmlns="http://www.w3.org/2000/svg">
<path fill-rule="evenodd" clip-rule="evenodd" d="M3.48186 17.9795C3.48186 18.7921 4.14085 19.4545 4.95348 19.4545H16.9552C17.7678 19.4545 18.4268 18.7921 18.4268 17.9795V12.991C18.4268 12.1784 17.7678 11.516 16.9552 11.516H4.95348C4.14085 11.516 3.48186 12.1784 3.48186 12.991V17.9795ZM23.8967 8.89373L18.8809 4.035V6.18609C18.8809 6.98506 19.1438 7.66453 19.6389 8.14597C20.1443 8.63423 20.8545 8.89031 21.7012 8.89031H23.8967V8.89373ZM25.942 9.02347C25.9795 9.11225 26 9.21127 26 9.3137V24.3133C26 25.2283 25.2147 26 24.2825 26H9.43321C8.52155 26 7.71575 25.2113 7.71575 24.3133L7.75672 20.933H4.95006C3.3248 20.933 2 19.6048 2 17.9761V12.9876C2 11.3589 3.3248 10.0307 4.95006 10.0307H7.71233V3.68673C7.71233 2.80239 8.52838 2 9.42979 2H18.4678C18.7512 2 19.0175 2.10585 19.2155 2.30388L25.6722 8.55228C25.8122 8.68545 25.8907 8.84934 25.942 9.02347Z" fill="#86888C"/>
<path d="M5.00781 13.3462H6.58528C7.30572 13.3462 7.75984 13.4452 8.0569 13.7218C8.30615 13.9505 8.42565 14.3056 8.42565 14.7973C8.42565 15.289 8.31298 15.6578 8.08421 15.9138C7.81447 16.2177 7.39791 16.3577 6.79356 16.3577H6.05604V17.942H5.00781V13.3462ZM6.57162 15.569C6.90623 15.569 7.04964 15.5212 7.1828 15.3948C7.30231 15.2753 7.36377 15.0807 7.36377 14.811C7.36377 14.5617 7.30914 14.3808 7.18963 14.2681C7.0633 14.1554 6.86867 14.1076 6.5443 14.1076H6.05263V15.5724H6.57162V15.569ZM9.17 13.3462H10.7475C11.4679 13.3462 11.922 13.4452 12.2191 13.7218C12.4683 13.9505 12.5878 14.3056 12.5878 14.7973C12.5878 15.289 12.4752 15.6578 12.2464 15.9138C11.9767 16.2177 11.5601 16.3577 10.9557 16.3577H10.2182V17.942H9.17V13.3462ZM10.7338 15.569C11.0684 15.569 11.2118 15.5212 11.345 15.3948C11.4645 15.2753 11.526 15.0807 11.526 14.811C11.526 14.5617 11.4713 14.3808 11.3518 14.2681C11.2255 14.1554 11.0309 14.1076 10.7065 14.1076H10.2148V15.5724H10.7338V15.569ZM14.3497 14.1042H12.9259V13.3462H16.8695L16.7876 14.1042H15.3979V17.942H14.3497V14.1042Z" fill="#86888C"/>
</svg>
