<svg width="20" height="20" viewBox="0 0 20 20" fill="none" xmlns="http://www.w3.org/2000/svg">
<path fill-rule="evenodd" clip-rule="evenodd" d="M15.3255 9.44012C14.9794 9.07132 14.5901 8.73211 14.169 8.43388C10.8293 6.00479 12.2612 2.61498 12.3227 2.47156C12.3728 2.35545 12.3546 2.21886 12.2749 2.12097C12.1929 2.0208 12.0632 1.97982 11.9402 2.00942C10.4422 2.36456 8.90329 3.14314 7.60792 4.20175C3.32571 7.7031 3.3166 13.1828 5.19704 15.5732C6.04165 16.6477 7.24822 17.4058 8.57546 17.7883C8.3774 17.6699 8.16796 17.5196 7.96079 17.317C6.92495 16.2971 6.86804 14.6398 7.82875 13.5402C7.99721 13.3467 8.18845 13.1691 8.39789 13.0098C9.68642 12.0035 9.11728 10.567 9.11045 10.5534C9.0376 10.3781 9.06948 10.1755 9.19469 10.032C9.3199 9.8886 9.51568 9.82941 9.69781 9.87267C10.4195 10.0571 11.1594 10.4555 11.7786 10.9996C13.165 12.2153 14.2623 15.0473 12.9055 16.8981C12.5367 17.4013 12.029 17.7746 11.4644 18C11.6465 17.9727 11.8287 17.9499 12.0108 17.9067C12.0768 17.8976 13.6454 17.6699 15.0751 16.3586C16.0517 15.4639 16.6163 14.2551 16.6641 12.9574C16.7096 11.6598 16.2338 10.4099 15.3255 9.44012Z" fill="#86888C"/>
</svg>
