<svg width="28" height="28" viewBox="0 0 28 28" fill="none" xmlns="http://www.w3.org/2000/svg">
<path fill-rule="evenodd" clip-rule="evenodd" d="M15.0171 17.044C14.9761 17.0303 14.9385 17.0166 14.8942 17.0166C13.682 16.9893 12.9616 16.5113 12.6987 15.5587C12.6953 15.5382 12.6782 15.5245 12.6714 15.5075V15.487C12.6031 15.2104 12.5655 14.8895 12.5655 14.5275C12.5655 13.5715 12.825 12.8818 13.3406 12.4857C13.3611 12.4686 13.3747 12.4447 13.3918 12.4242C13.4225 12.414 13.4533 12.4174 13.4806 12.4003C13.863 12.1613 14.3752 12.0418 14.9932 12.0418C15.618 12.0418 16.1234 12.1579 16.4955 12.3901C16.5228 12.4072 16.5536 12.4106 16.5809 12.4242C16.598 12.4413 16.6116 12.4652 16.6321 12.4789C17.1545 12.8681 17.4208 13.5578 17.4208 14.5275C17.4208 14.8895 17.3867 15.207 17.3184 15.4699C17.315 15.4767 17.3184 15.487 17.315 15.4938C17.315 15.5006 17.3082 15.5041 17.3082 15.5109C17.0487 16.484 16.3726 16.962 15.1776 17.003C15.1229 17.0064 15.0683 17.0235 15.0171 17.044ZM23.6146 16.8903C26.353 16.1118 27.531 13.9812 26.7695 11.1882C26.0047 8.40205 23.9151 7.207 21.1767 7.98207C20.388 8.20743 19.5685 8.75032 18.7934 9.41272C19.2271 8.46009 19.531 7.4904 19.531 6.64703C19.5378 5.22663 19.1246 4.04866 18.3393 3.24285C17.554 2.43705 16.4033 2.00683 15.0103 2H15.0068C12.1626 2 10.4656 3.7277 10.4656 6.6163C10.4588 7.48357 10.7661 8.47034 11.2066 9.44003C10.4315 8.77422 9.61204 8.22791 8.82331 8.00256C7.48144 7.61673 6.25908 7.70551 5.28597 8.26206C4.31627 8.81861 3.60265 9.83611 3.22707 11.2087C2.85148 12.5779 2.94367 13.8276 3.48998 14.8143C4.03629 15.8045 5.03671 16.5284 6.37858 16.9108C6.78148 17.0269 7.23219 17.0747 7.70679 17.0747C7.94239 17.0747 8.19506 17.044 8.44089 17.0201C7.74435 17.4913 7.12634 18.0273 6.7371 18.6112C5.95519 19.7892 5.65131 21.0013 5.85959 22.1144C6.06787 23.2275 6.78831 24.2382 7.94239 25.0337C8.85745 25.6722 9.79642 26 10.6944 26C10.9232 26 11.1485 25.9795 11.3705 25.9351C12.4631 25.7234 13.4567 24.9893 14.242 23.8148C14.6176 23.2514 14.8703 22.5105 15.041 21.7149C15.2151 22.5002 15.4644 23.2343 15.8365 23.7943C16.6184 24.9688 17.612 25.7029 18.7047 25.9146C18.93 25.959 19.1588 25.9829 19.391 25.9829C20.2855 25.9829 21.2211 25.6586 22.1362 25.0235C24.4887 23.4016 24.9394 20.9979 23.3449 18.5941C22.9556 18.0102 22.341 17.481 21.6479 17.0098C21.863 17.0269 22.0849 17.0542 22.2932 17.0542C22.7678 17.0542 23.2151 17.0064 23.6146 16.8903Z" fill="#86888C"/>
</svg>
