<svg width="24" height="24" viewBox="0 0 24 24" fill="none" xmlns="http://www.w3.org/2000/svg">
<path fill-rule="evenodd" clip-rule="evenodd" d="M11.7723 8.91237C11.7723 9.54982 11.2885 10.0905 10.7166 10.0905H5.63688C5.06488 10.0905 4.57826 9.54982 4.57826 8.91237V5.7735C4.57826 5.14743 5.07057 4.59536 5.63688 4.59536H10.7166C11.28 4.59536 11.7723 5.14743 11.7723 5.7735V8.91237ZM20.7735 8.63064C20.7735 8.63917 20.7678 8.64771 20.7678 8.65625V8.80138C20.745 9.25955 20.5799 10.008 19.4359 10.0279L19.2851 10.0308H19.2282C17.8935 10.0108 17.8935 8.97497 17.8935 8.58511C17.8935 8.19524 17.8935 7.16507 19.2026 7.15654H19.2481L19.4132 7.15938C19.9027 7.17076 20.21 7.31305 20.412 7.50656L20.4604 7.55779C20.7678 7.89928 20.7706 8.36883 20.7706 8.60218C20.7735 8.60503 20.7735 8.61926 20.7735 8.63064ZM21.9943 8.69894C21.9943 8.66194 22 8.63064 22 8.59364C22 7.70861 21.7325 7.12239 21.3711 6.72398C21.3682 6.72114 21.3682 6.72114 21.3682 6.71829L21.3597 6.70975C21.3341 6.68129 21.3085 6.65568 21.28 6.63007L16.8776 2.18215C16.6414 1.94311 16.2515 1.93742 16.0097 2.17646C15.7678 2.41551 15.7678 2.80253 16.004 3.04157L18.8725 5.93855C18.1155 6.02392 16.6642 6.46502 16.6642 8.57372C16.6642 11.0438 18.6733 11.2374 19.2083 11.2459H19.2823C19.342 11.2459 19.4018 11.2459 19.453 11.243C19.6864 11.2374 20.2356 11.1947 20.7649 10.9158L20.7706 19.1429C20.7706 20.5344 19.8002 20.7621 19.2225 20.7735H19.0375C18.4599 20.7649 17.4923 20.5401 17.4923 19.1315V15.1958C17.4923 13.6591 16.2402 12.4098 14.7006 12.4098H14.214V3.41721C14.214 2.68585 13.531 2.0171 12.7826 2.0171H3.43142C2.68298 2.0171 2 2.68585 2 3.41721V20.5999C2 21.3455 2.66875 22 3.43142 22H12.7826C13.5452 22 14.214 21.3455 14.214 20.5999V13.6363H14.7006C15.5629 13.6363 16.2658 14.3364 16.2658 15.1958V19.1315C16.2658 21.2203 17.7513 21.9829 19.1001 22H19.2453C20.5145 21.9772 21.9971 21.2146 21.9971 19.1429L21.9943 8.69894Z" fill="#86888C"/>
</svg>
