<svg width="28" height="28" viewBox="0 0 28 28" fill="none" xmlns="http://www.w3.org/2000/svg">
<path fill-rule="evenodd" clip-rule="evenodd" d="M22.5329 11.0926C22.1876 11.0926 21.873 11.1404 21.5892 11.236C21.2986 10.1912 20.4404 9.56978 19.2095 9.56978C18.8642 9.56978 18.5462 9.621 18.2624 9.71319C17.9684 8.67862 17.1136 8.06402 15.8895 8.06402C15.5886 8.06402 15.3083 8.10158 15.0552 8.17328V4.63594C15.0552 3.01067 14.0569 2 12.4499 2C10.9044 2 9.9573 2.93897 9.85131 4.58131V13.6364C9.43759 12.933 9.06491 12.4413 8.62042 12.0862C8.18277 11.7345 7.65964 11.5604 7.14677 11.5604C6.65441 11.5604 6.16889 11.7209 5.76543 12.0452C4.97219 12.6803 4.7773 13.7627 5.26624 14.8041C6.09709 16.5694 7.49552 19.4067 8.62042 21.6876C9.32134 23.108 9.92653 24.3372 10.0975 24.7059C10.2753 25.0952 10.6958 26 11.6498 26H21.155C22.3551 26 23.3775 25.6244 24.0373 24.9449C24.6938 24.2689 25.0255 23.3231 25.0255 22.1383V13.609C25.0186 12.0555 24.0681 11.0926 22.5329 11.0926Z" fill="#86888C"/>
</svg>
