<svg width="24" height="24" viewBox="0 0 24 24" fill="none" xmlns="http://www.w3.org/2000/svg">
<path fill-rule="evenodd" clip-rule="evenodd" d="M21.8662 12.6667C21.9516 12.7432 22 12.8497 22 12.9617C22 13.0738 21.9545 13.1831 21.8691 13.2623L19.897 15.0765C19.7291 15.2295 19.4673 15.2268 19.3051 15.0683L18.0359 13.8443L17.2931 14.9945C17.2191 15.1093 17.0939 15.1803 16.9545 15.1858C16.8008 15.2022 16.6813 15.1339 16.5987 15.0273L15.6824 13.8825L14.8685 15.0109C14.7888 15.1202 14.6608 15.1858 14.5213 15.1858H9.79738C9.77177 15.2404 9.749 15.2896 9.73478 15.3197C9.16278 16.418 7.92203 17 6.14627 17C3.47126 17 2 15.5792 2 13C2 10.4208 3.47126 9 6.14627 9C8.28344 9 9.29653 9.89891 9.77462 10.7459H19.5669C19.675 10.7459 19.7775 10.7842 19.8571 10.8552L21.8662 12.6667ZM5.63688 13.6858C5.12749 13.6858 4.92829 13.4945 4.92829 13.0027C4.92829 12.5109 5.12464 12.3197 5.63688 12.3197C6.14912 12.3197 6.34548 12.5109 6.34548 13.0027C6.34548 13.4945 6.14627 13.6858 5.63688 13.6858ZM5.63688 11.5027C4.66363 11.5027 4.08025 12.0656 4.08025 13.0027C4.08025 13.9426 4.66363 14.5027 5.63688 14.5027C6.61013 14.5027 7.19351 13.9426 7.19351 13.0027C7.19351 12.0628 6.61298 11.5027 5.63688 11.5027Z" fill="#86888C"/>
</svg>
