<svg width="40" height="40" viewBox="0 0 40 40" fill="none" xmlns="http://www.w3.org/2000/svg">
<path fill-rule="evenodd" clip-rule="evenodd" d="M31.4624 20.0184C31.3599 19.6342 31.0577 19.3319 30.6683 19.2346L22.4301 17.2058L27.4099 4.57688C27.6046 4.07993 27.4304 3.51124 26.9898 3.21409C26.5543 2.92206 25.9651 2.99379 25.6116 3.38316L9.30422 20.8843C9.03269 21.1763 8.93535 21.5913 9.04294 21.9755C9.15053 22.3598 9.44767 22.6518 9.83192 22.7492L17.3529 24.6089L12.4192 37.5042C12.2296 37.996 12.4038 38.5545 12.8393 38.8516C13.2696 39.1436 13.8486 39.0822 14.2072 38.703L31.1909 21.1148C31.4675 20.8228 31.57 20.4078 31.4624 20.0184Z" fill="#86888C"/>
</svg>
