<svg width="40" height="40" viewBox="0 0 40 40" fill="none" xmlns="http://www.w3.org/2000/svg">
<path d="M24.8151 34.7032C27.5752 31.8557 29.2509 29.81 31.4354 26.4124C33.99 22.4443 35.8095 18.4454 36.7501 14.5031C37.6496 10.7354 37.0637 7.44585 34.7044 5.4207C32.0933 3.17966 27.565 2.69136 23.2422 5.0866C22.4404 5.53378 21.6437 5.99124 20.8727 6.44869C20.3793 6.72111 19.783 6.72111 19.2896 6.44355C18.5186 5.98609 17.7322 5.52864 16.9303 5.0866C12.6127 2.69136 8.08954 3.17966 5.47328 5.4207C3.11402 7.44585 2.52807 10.7354 3.42242 14.5031C4.36304 18.4454 6.1826 22.4495 8.73717 26.4176C10.9217 29.81 12.5973 31.8608 15.3575 34.7084C15.9023 35.2738 16.7144 36.0396 17.3261 36.4765C17.9121 36.9031 18.5854 37.2064 19.2947 37.3657C19.4849 37.412 19.6751 37.4377 19.8704 37.448H19.891C19.9578 37.4531 20.0246 37.4531 20.0914 37.4531C20.1582 37.4531 20.2251 37.4531 20.2919 37.448H20.3124C20.5078 37.4377 20.6979 37.412 20.8881 37.3657C21.5974 37.2064 22.2708 36.9083 22.8567 36.4765C23.4684 36.0396 24.2754 35.2738 24.8253 34.7084" fill="#86888C"/>
<path d="M20.1229 38.4766H20.0921C19.9995 38.4766 19.9173 38.4766 19.8402 38.4714H19.8094C19.5626 38.456 19.3159 38.4252 19.0743 38.3686C18.2314 38.1784 17.4295 37.8186 16.7305 37.3149C15.8927 36.7084 14.9058 35.7112 14.6231 35.4234C11.7087 32.4165 10.0074 30.2834 7.8743 26.9733C5.20665 22.8304 3.37167 18.7133 2.42591 14.7401C1.39791 10.4225 2.24601 6.83992 4.80573 4.64C6.29118 3.37042 8.32148 2.60456 10.5111 2.49148C12.819 2.37326 15.2142 2.95922 17.4347 4.19282C18.1903 4.60916 18.9664 5.06148 19.8145 5.56006C19.9841 5.65258 20.1897 5.65258 20.3645 5.56006C21.2126 5.05634 21.9887 4.60916 22.7494 4.18768C24.9648 2.95922 27.36 2.37326 29.6679 2.49148C31.8626 2.60456 33.8878 3.37042 35.3733 4.64514C37.933 6.83992 38.7811 10.4276 37.7531 14.7452C36.8073 18.7133 34.9775 22.8253 32.3047 26.9733C30.1921 30.2577 28.4959 32.3805 25.6278 35.3463C25.6073 35.372 25.5867 35.3977 25.561 35.4234C25.2783 35.7164 24.2914 36.7084 23.4588 37.3098C22.7597 37.8186 21.9579 38.1784 21.1149 38.3635C20.8733 38.42 20.6266 38.456 20.3799 38.4663H20.3491C20.272 38.4766 20.2 38.4766 20.1229 38.4766ZM20.0921 36.4206H20.2514C20.385 36.4154 20.5135 36.3949 20.642 36.364L20.6729 36.3589C21.2434 36.2304 21.7831 35.9888 22.256 35.6393C22.7854 35.2589 23.5153 34.5702 24.0139 34.0613C24.0344 34.0356 24.055 34.0099 24.0756 33.9893C26.918 31.0596 28.4959 29.0807 30.5725 25.8579C33.1168 21.9001 34.8593 17.9988 35.7536 14.2621C36.1751 12.4939 36.2419 10.8954 35.9489 9.51785C35.656 8.15061 35.0135 7.03524 34.042 6.19742C32.8958 5.21568 31.3075 4.62972 29.5702 4.5372C27.6376 4.44468 25.6227 4.94326 23.7415 5.99182C22.9962 6.40302 22.2303 6.84506 21.3976 7.3385L21.3771 7.34878C20.5701 7.8011 19.5832 7.8011 18.7762 7.3385L18.7659 7.33336C17.9333 6.83992 17.1725 6.39788 16.4324 5.99182C14.5563 4.94326 12.5414 4.44468 10.6191 4.54234C8.8766 4.62972 7.28834 5.22082 6.14726 6.20256C5.17067 7.04038 4.52817 8.15576 4.23519 9.52299C3.94221 10.9005 4.00389 12.499 4.42537 14.2672C5.31973 18.0091 7.05704 21.9104 9.60134 25.863C11.6779 29.0858 13.2559 31.0596 16.0983 33.9945C16.5917 34.5085 17.373 35.2435 17.9281 35.6444C18.401 35.9888 18.9407 36.2355 19.5112 36.364L19.5421 36.3692C19.6706 36.4 19.8042 36.4154 19.9327 36.4257H20.0921V36.4206Z" fill="#86888C"/>
</svg>
