<svg width="28" height="28" viewBox="0 0 28 28" fill="none" xmlns="http://www.w3.org/2000/svg">
<path fill-rule="evenodd" clip-rule="evenodd" d="M11.1459 12.7923C9.53051 12.7923 9.53051 13.1406 9.53051 13.5778C9.53051 13.5983 9.53392 13.6153 9.53392 13.6358C9.98814 13.4787 10.5141 13.3933 11.1425 13.3933C11.7743 13.3933 12.3036 13.4787 12.7579 13.6392C12.7579 13.6153 12.7613 13.6017 12.7613 13.5778C12.7613 13.1406 12.7613 12.7923 11.1459 12.7923ZM15.6096 16.7402C15.9647 16.7402 16.2482 17.0237 16.2482 17.3789V18.3215C16.2482 18.6732 15.9613 18.9601 15.6096 18.9567C15.2578 18.9567 14.9709 18.6732 14.9709 18.3215V18.0141H14.8138C14.807 18.7074 14.7523 19.3768 14.5884 19.9744L15.4866 20.2442C15.7701 20.3296 15.9579 20.5926 15.9408 20.8863L15.8623 22.307C15.8418 22.6451 15.5617 22.9081 15.2236 22.9081H15.1895C14.8377 22.891 14.5679 22.5905 14.585 22.2387L14.6362 21.3166L14.0352 21.1356C13.4955 21.8323 12.6076 22.2729 11.1459 22.2729C9.67736 22.2729 8.78599 21.8289 8.24981 21.1288L7.62824 21.3166L7.67947 22.2387C7.69655 22.5905 7.42675 22.891 7.07498 22.9081H7.03741C6.69931 22.9081 6.41926 22.6451 6.39877 22.307L6.32022 20.8863C6.30315 20.5926 6.49098 20.3262 6.77444 20.2442L7.69313 19.9676C7.53262 19.3699 7.47797 18.704 7.47114 18.0141H7.31405V18.3215C7.31405 18.6732 7.02717 18.9601 6.6754 18.9567C6.32364 18.9567 6.03676 18.6732 6.03676 18.3215V17.3789C6.03676 17.0271 6.32364 16.7402 6.6754 16.7402H7.51213C7.56335 16.1801 7.67264 15.6337 7.88438 15.1488L6.77444 14.8141C6.49098 14.7321 6.30315 14.4657 6.31681 14.172L6.39536 12.7513C6.41585 12.3995 6.71297 12.1707 7.06815 12.1502C7.41992 12.1707 7.68972 12.4678 7.67264 12.8196L7.62141 13.7417L8.28055 13.9398C8.26005 13.8202 8.24981 13.6973 8.24981 13.5778C8.24981 11.5184 10.2784 11.5184 11.1459 11.5184C12.0134 11.5184 14.042 11.5184 14.042 13.5778C14.042 13.7007 14.0283 13.8168 14.0147 13.9295L14.6362 13.7451L14.585 12.8264C14.5679 12.4747 14.8377 12.1741 15.1895 12.157C15.5549 12.1775 15.8452 12.4063 15.8623 12.7581L15.9408 14.1788C15.9579 14.4725 15.7667 14.7389 15.4866 14.8243L14.3972 15.1488C14.6089 15.6371 14.7216 16.1836 14.7728 16.7471C14.7728 16.7402 15.6096 16.7402 15.6096 16.7402ZM11.1015 15.6884C10.7497 15.6884 10.4629 15.9718 10.4629 16.3236V19.8549C10.4629 20.2067 10.7497 20.4901 11.1015 20.4901C11.4533 20.4901 11.7401 20.2067 11.7401 19.8549V16.3236C11.7401 15.9718 11.4567 15.6884 11.1015 15.6884ZM11.5113 24.8308C12.4812 24.8138 15.7803 24.5542 17.5699 21.9177C18.3895 20.7121 18.8062 19.1377 18.8062 17.2354C18.8062 16.7744 18.7823 16.327 18.7345 15.9103C18.0753 10.2035 13.0106 9.64004 11.4772 9.59906C11.2962 9.59564 11.0878 9.59223 10.8898 9.59223H10.7087C9.15142 9.6093 4.05253 10.1148 3.52318 16.105C3.49244 16.4499 3.47536 16.812 3.47536 17.1876C3.47536 24.1854 9.0558 24.8103 10.7668 24.8342C11.0195 24.8377 11.2893 24.8342 11.5113 24.8308ZM13.8678 4.06644L5.54839 9.32243C5.45276 9.39073 5.38104 9.54783 5.33665 9.76299C6.91788 8.63597 8.8543 8.14418 10.6917 8.12711C10.9581 8.12369 11.2586 8.12711 11.5113 8.13394C14.6123 8.20907 18.0343 9.59906 19.52 13.103L24.5096 9.9918C24.4822 9.66053 24.3866 9.41122 24.2329 9.29852L24.1373 9.23705L15.9716 4.08693C15.6574 3.88543 15.2885 3.77615 14.9129 3.76932C14.3118 3.76932 13.8746 4.06302 13.8678 4.06644ZM25.9883 21.1151C26.0191 21.3678 26.0532 22.1465 25.5273 22.7783C25.2404 23.1232 24.6871 23.5365 23.666 23.557C23.2084 23.5638 20.4625 23.5672 18.1266 23.5672C15.8862 26.0091 12.5769 26.2789 11.5386 26.2959C11.2757 26.2994 11.0093 26.3028 10.7429 26.2994C9.28461 26.2789 2 25.7393 2 17.1876C2 16.7641 2.01708 16.3611 2.05123 15.9752C2.23223 13.9568 2.88454 12.3995 3.81347 11.2144V10.1284C3.83738 8.97066 4.31892 8.39349 4.71508 8.10662L4.87218 8.00416L13.0482 2.84721C13.6014 2.49203 14.2435 2.3042 14.8992 2.30078C15.9682 2.30078 16.7161 2.80965 16.798 2.87112L25.0628 8.08612C25.4931 8.39008 25.9713 8.97066 25.9986 10.1113L25.9883 21.1151Z" fill="#86888C"/>
</svg>
