<svg width="24" height="24" viewBox="0 0 24 24" fill="none" xmlns="http://www.w3.org/2000/svg">
<path fill-rule="evenodd" clip-rule="evenodd" d="M21.7481 18.2693C21.7735 18.4861 21.8129 19.1621 21.3539 19.7141C21.106 20.0126 20.6216 20.3703 19.7288 20.3872C19.2078 20.3956 17.2505 20.3984 14.8735 20.3984C10.2828 20.3984 4.12633 20.3872 3.73768 20.3872C3.67572 20.39 3.07302 20.3844 2.58017 19.9056C2.19714 19.531 2 18.9959 2 18.3115V8.79232L10.0688 13.8786C10.111 13.9096 10.7926 14.3912 11.7361 14.3912C12.2092 14.3912 12.75 14.2701 13.3076 13.904L21.7622 8.75289L21.7481 18.2693ZM12.6598 12.8901C11.6882 13.5238 10.8179 12.9295 10.7532 12.8845L2.1718 7.47428C2.25065 7.2715 2.36331 7.06591 2.53229 6.88848C2.83645 6.56742 3.25327 6.39844 3.74049 6.39844L20.0499 6.40125C20.4188 6.40407 21.1961 6.60403 21.5623 7.46864L12.6598 12.8901Z" fill="#86888C"/>
</svg>
