<svg width="28" height="28" viewBox="0 0 28 28" fill="none" xmlns="http://www.w3.org/2000/svg">
<path fill-rule="evenodd" clip-rule="evenodd" d="M14.5273 16.8824C14.1817 17.1176 13.7755 17.2458 13.3586 17.253C12.924 17.2458 12.4964 17.114 12.133 16.8753L2.57717 10.8504V10.8468C2.59142 10.3551 2.71256 10.0024 2.89427 9.87055L12.3183 3.9133C12.6817 3.68884 13.1021 3.57126 13.5261 3.5677C14.2031 3.5677 14.7161 3.90974 14.7518 3.93468L24.1116 9.84917C24.304 9.98456 24.418 10.291 24.4465 10.6971L14.5273 16.8824ZM26.0213 23.2815L26.032 10.8112C26.0035 9.53563 25.4727 8.89074 24.9952 8.55226L15.6354 2.63777C15.0047 2.2209 14.2672 2 13.5118 2C12.3325 2 11.4988 2.57007 11.4453 2.61283L2.18168 8.46318L2.0071 8.57363C1.56529 8.89074 1.03441 9.53563 1.00591 10.829L1.0166 23.285C0.984533 23.5629 0.938214 24.4323 1.5261 25.1378C1.8432 25.519 2.45959 25.9751 3.59973 26H23.4382C24.5748 25.9786 25.1912 25.519 25.5083 25.1378C26.0997 24.4287 26.0534 23.5629 26.0213 23.2815Z" fill="#86888C"/>
</svg>
