<svg width="24" height="24" viewBox="0 0 24 24" fill="none" xmlns="http://www.w3.org/2000/svg">
<path fill-rule="evenodd" clip-rule="evenodd" d="M14.94 14.0746C15.4238 14.0746 15.8507 14.4616 15.8507 14.9027V16.3312C15.8507 16.7809 15.4352 17.1594 14.94 17.1594H13.5541L13.557 18.531C13.557 19.0176 13.1728 19.4274 12.7203 19.4274H11.2775C10.8222 19.4274 10.4409 19.0176 10.4409 18.531V17.1565H9.055C8.56553 17.1565 8.15005 16.778 8.15005 16.3284V14.9055C8.15005 14.4559 8.56553 14.0774 9.055 14.0774H10.4409V12.7057C10.4409 12.2163 10.8251 11.8036 11.2775 11.8036H12.7146C13.17 11.8036 13.5513 12.2163 13.5513 12.7057V14.0746H14.94ZM18.6196 20.7621C20.7482 20.7621 20.7482 18.9266 20.7482 18.3233L20.7454 10.6966H3.25249V18.3432C3.25249 18.3717 3.25249 18.4001 3.24965 18.4286C3.24965 18.4286 3.20411 19.4815 3.83587 20.1389C4.2229 20.543 4.84612 20.7479 5.67708 20.7479H18.2952C18.3464 20.7479 18.3976 20.7507 18.4489 20.7592C18.4631 20.7564 18.5257 20.7621 18.6196 20.7621ZM18.298 4.16847C22.2878 4.16847 21.9947 7.82527 21.9947 7.82527L21.9975 18.3233C21.9975 21.6955 19.516 22 18.6196 22C18.4204 22 18.3009 21.9858 18.3009 21.9858H5.67993C1.75278 21.9858 2.0032 18.3432 2.0032 18.3432V7.80535C2.0032 4.41036 4.70098 4.16847 5.46649 4.16847C5.59455 4.16847 5.66854 4.17416 5.66854 4.17416H6.87799V2.62038C6.87799 2.27888 7.15688 2 7.50406 2C7.84839 2 8.13013 2.27604 8.13013 2.62038V4.17416L15.882 4.17131V2.62038C15.882 2.27888 16.1609 2 16.508 2C16.8524 2 17.1341 2.27604 17.1341 2.62038V4.17131C17.1284 4.16847 18.298 4.16847 18.298 4.16847Z" fill="#86888C"/>
</svg>
