<svg width="24" height="24" viewBox="0 0 24 24" fill="none" xmlns="http://www.w3.org/2000/svg">
<path fill-rule="evenodd" clip-rule="evenodd" d="M11.0794 11.7221C11.9898 11.7221 12.7011 11.9583 13.1961 12.4249C13.7082 12.9057 13.97 13.6226 13.97 14.5473C13.97 15.4748 13.7111 16.1889 13.1961 16.6697C12.7039 17.1306 11.9927 17.3668 11.0794 17.3668C10.169 17.3668 9.45769 17.1306 8.96549 16.6697C8.45622 16.1889 8.19448 15.4748 8.19448 14.5473C8.19448 13.6226 8.45338 12.9057 8.96549 12.4249C9.45769 11.9583 10.1661 11.7221 11.0794 11.7221ZM12.8376 18.6044C13.9074 18.6044 14.7865 18.9202 15.3783 19.5233C15.9189 20.0753 16.2091 20.8406 16.2091 21.7396V22.6785C16.2091 22.8549 16.064 23 15.8819 23H6.28827C6.10619 23 5.96109 22.8549 5.96109 22.6785V21.7396C5.96109 20.8434 6.2456 20.0753 6.78901 19.5233C7.37794 18.9202 8.25422 18.6044 9.32682 18.6044H12.8376ZM17.9958 5.80721C18.2404 6.07749 18.2177 6.49003 17.9417 6.73186C17.8137 6.84282 17.6544 6.89687 17.495 6.89687C17.3101 6.89687 17.128 6.8229 16.9971 6.6778C14.6841 4.14853 11.0993 4.30785 11.0623 4.31354C7.21577 4.35622 5.18723 6.49856 5.16732 6.51848C4.91695 6.78591 4.49303 6.80583 4.2199 6.564C3.94678 6.32217 3.92402 5.90679 4.17438 5.63935C4.27396 5.53408 6.62399 3.05033 11.0168 3.00481C11.1534 2.99912 15.2417 2.79427 17.9958 5.80721ZM11.0225 5.88403C11.1363 5.87265 14.3939 5.76738 16.4736 8.04059C16.7212 8.30803 16.6956 8.72341 16.4196 8.9624C16.1436 9.20707 15.7225 9.18147 15.475 8.91403C13.8277 7.1131 11.0851 7.18992 11.0566 7.19276C8.33104 7.22406 6.70081 8.9311 6.68659 8.95102C6.55287 9.09043 6.37363 9.1644 6.1887 9.1644C6.02937 9.1644 5.8672 9.1075 5.73918 8.99654C5.46605 8.75186 5.44329 8.34217 5.68796 8.07189C5.77332 7.98085 7.71081 5.92101 11.0225 5.88403ZM14.6215 11.1929C14.3427 11.4319 13.9216 11.4092 13.6741 11.1389C12.7153 10.089 11.1021 10.1317 11.0765 10.1317C9.46053 10.1488 8.52166 11.1218 8.48183 11.1645C8.35095 11.3039 8.16887 11.375 7.98679 11.375C7.82746 11.375 7.66529 11.321 7.53726 11.2072C7.26698 10.9625 7.24422 10.5556 7.49174 10.2854C7.5458 10.2256 8.84031 8.84575 11.0424 8.82299C11.1135 8.82299 13.2843 8.74617 14.6756 10.2683C14.9202 10.5386 14.8975 10.9511 14.6215 11.1929Z" fill="#86888C"/>
</svg>
