<svg width="28" height="28" viewBox="0 0 28 28" fill="none" xmlns="http://www.w3.org/2000/svg">
<path fill-rule="evenodd" clip-rule="evenodd" d="M13.8071 22.2783V10.519C13.8071 9.73709 13.6432 9.19078 13.2983 8.84592C12.9535 8.50107 12.4038 8.32693 11.6184 8.32693H5.7149C4.94323 8.32693 4.40376 8.50107 4.04524 8.85617C3.69014 9.21127 3.52625 9.75758 3.52625 10.519V22.2783C3.52625 23.0602 3.69014 23.6201 4.04524 23.965C4.3901 24.2996 4.93982 24.4737 5.7149 24.4737H11.6184C12.3935 24.4737 12.9398 24.2996 13.2881 23.965C13.6466 23.6201 13.8071 23.0602 13.8071 22.2783ZM16.9927 2C22.7939 2 26 5.19932 26 10.997C26 16.7845 22.7939 19.9735 16.9927 19.9735C16.4123 19.9735 15.8626 19.9326 15.3333 19.8711V22.2783C15.3333 23.4972 15.0192 24.3986 14.3671 25.0405C13.7251 25.679 12.8203 25.9966 11.6184 25.9966H5.7149C4.51302 25.9966 3.61844 25.6825 2.96628 25.0405C2.31413 24.3986 2 23.4972 2 22.2783V10.519C2 9.33077 2.31413 8.43961 2.95604 7.78745C3.61502 7.12847 4.51302 6.8041 5.7149 6.8041H8.70593C9.9522 3.67648 12.7998 2 16.9927 2ZM19.2429 14.2885C19.3931 14.4353 19.5877 14.5105 19.7823 14.5105C19.9804 14.5105 20.1716 14.4353 20.3218 14.2885C20.6189 13.9915 20.6189 13.51 20.3218 13.2096L18.0068 10.9014V7.78745C18.0068 7.36748 17.6654 7.02603 17.242 7.02603C16.822 7.02603 16.4772 7.36748 16.4772 7.78745V11.2189C16.4772 11.4204 16.5591 11.615 16.7025 11.7584L19.2429 14.2885ZM8.66837 21.1379C9.29321 21.1379 9.66539 21.51 9.66539 22.1383C9.66539 22.4456 9.58003 22.688 9.40589 22.8656C9.23175 23.0431 8.97567 23.1387 8.66837 23.1387C8.36108 23.1387 8.10499 23.0431 7.93086 22.8656C7.75672 22.688 7.67136 22.4456 7.67136 22.1383C7.67136 21.51 8.04353 21.1379 8.66837 21.1379Z" fill="#86888C"/>
</svg>
