<svg width="20" height="20" viewBox="0 0 20 20" fill="none" xmlns="http://www.w3.org/2000/svg">
<path fill-rule="evenodd" clip-rule="evenodd" d="M6.4404 12.2373C6.77041 12.2373 6.99573 12.4626 6.99573 12.7721C6.99573 13.1135 6.77269 13.332 6.45405 13.332C6.11949 13.332 5.89872 13.1158 5.89872 12.804V12.7744C5.901 12.4626 6.12632 12.2373 6.4404 12.2373ZM7.78777 7.49644C8.15875 7.76501 8.33172 8.13599 8.33172 8.66174C8.33172 9.28762 8.06316 9.66999 7.49644 10.3368C6.86373 11.0629 6.86373 11.0629 6.86373 11.6979C6.86373 11.8777 6.71579 12.0233 6.53371 12.0233H6.32205C6.16501 12.0233 6.02845 11.9141 5.99886 11.7593C5.98065 11.6637 5.96927 11.5659 5.96927 11.4316C5.96927 10.8785 6.16956 10.5417 6.59289 10.0387L6.67255 9.94538C7.34851 9.15107 7.43954 8.96671 7.43954 8.65263C7.43954 8.42959 7.38265 8.29758 7.23471 8.18151C7.1505 8.11323 6.99346 8.03585 6.54282 8.03585C6.28563 8.03585 6.05576 8.06543 5.78037 8.13599C5.69388 8.15647 5.60057 8.14282 5.52319 8.09502C5.4458 8.04723 5.39346 7.96984 5.37525 7.88108L5.34339 7.71949C5.31607 7.57155 5.39118 7.42589 5.52774 7.36216C5.75533 7.25747 6.23329 7.17553 6.63841 7.17553C7.11636 7.17326 7.50327 7.2825 7.78777 7.49644ZM6.81593 13.8987C9.42646 13.8987 10.6464 12.697 10.6464 10.1115C10.6464 7.52603 9.42646 6.32432 6.81593 6.32432C4.21223 6.32432 2.99232 7.52603 2.99232 10.1115C2.99232 12.697 4.21223 13.8987 6.81593 13.8987ZM17.2193 2.78293C17.7474 3.29957 17.9977 4.03016 17.9977 5.00199V14.9957C17.9977 15.9881 17.7405 16.7209 17.2125 17.2353C16.6913 17.7451 15.9585 18 14.9707 18H9.92717C8.93713 18 8.20654 17.7451 7.67852 17.2353C7.20967 16.771 6.95932 16.1451 6.90697 15.3212V14.8774H6.81366C3.77525 14.8774 2 13.3548 2 10.1092C2 6.86373 3.77525 5.34111 6.81366 5.34111H6.90014V4.99972C6.90014 4.03926 7.1505 3.3155 7.67852 2.79203C8.20427 2.26401 8.93713 2 9.92717 2H14.9707C15.9607 2.00455 16.6981 2.25946 17.2193 2.78293ZM12.4467 14.0284C11.9118 14.0284 11.5954 14.3425 11.5954 14.8774C11.5954 15.1368 11.6683 15.3462 11.8139 15.4896C11.9664 15.6467 12.1826 15.724 12.4467 15.724C12.7107 15.724 12.9269 15.6467 13.0794 15.4896C13.2296 15.3462 13.3024 15.1368 13.3024 14.8774C13.3024 14.3425 12.9861 14.0284 12.4467 14.0284Z" fill="#86888C"/>
</svg>
