<svg width="40" height="40" viewBox="0 0 40 40" fill="none" xmlns="http://www.w3.org/2000/svg">
<path d="M8.7545 9.96398C7.12267 9.96398 4.01443 10.8187 2.61572 16.569C1.99407 19.0556 1.76096 21.6976 2.3049 24.8058C2.77113 27.681 3.6259 30.1675 4.24755 31.4885C4.48067 31.9548 4.79149 32.421 5.02461 32.7318C5.72396 33.5866 6.81185 33.5089 7.35579 33.2758C7.89973 33.0427 8.44367 32.421 8.28826 30.9446C8.21055 30.2453 7.89973 29.2351 7.74432 28.6911C7.20038 26.9816 6.50103 24.9613 6.50103 23.4848C6.42332 21.5422 7.20038 21.2314 7.74432 21.1537C8.59909 20.9982 9.29844 21.9307 9.9978 23.0963C10.8526 24.495 12.2513 27.0593 13.3392 28.9243C14.3493 30.6338 16.292 32.4987 19.3225 32.421C22.4308 32.2656 24.7619 31.1 25.9275 27.3701C26.7823 24.5727 27.4039 22.4747 28.4141 20.2989C29.502 17.8123 31.0561 16.4913 32.2994 16.8798C33.465 17.2684 33.7758 18.4339 33.7758 20.0658C33.7758 21.5422 33.6204 23.174 33.465 24.4173C33.3873 24.8835 33.3096 25.7383 33.3873 26.2045C33.465 27.137 33.8536 28.1472 34.9414 28.3026C36.107 28.458 37.0395 27.5255 37.3503 26.4377C37.5057 25.9714 37.5834 25.3498 37.6611 24.8835C37.972 22.4746 38.0497 20.8428 37.972 18.4339C37.8166 15.5588 37.1949 12.9168 36.2624 10.6633C35.33 8.48757 33.7758 7.08885 31.9109 7.01114C29.7351 6.85573 27.3262 8.33216 26.0052 11.0519C24.8397 13.6162 23.8295 16.1805 23.2855 17.5015C22.6639 18.8225 21.8091 19.6772 20.4881 19.8326C18.8563 19.9881 17.4576 18.8225 16.4474 17.1906C15.5926 15.7142 13.8054 12.9945 12.8729 11.9843C11.8627 10.9742 10.8526 9.88627 8.7545 9.96398Z" fill="#86888C"/>
</svg>
