<svg width="24" height="24" viewBox="0 0 24 24" fill="none" xmlns="http://www.w3.org/2000/svg">
<path d="M13.224 18.8203H8.047C7.72252 18.8203 7.45703 19.0858 7.45703 19.4103C7.45703 19.7348 7.72252 20.0003 8.047 20.0003H13.224C13.5485 20.0003 13.814 19.7348 13.814 19.4103C13.814 19.0858 13.5485 18.8203 13.224 18.8203Z" fill="#86888C"/>
<path d="M20.5251 8.74631H19.5605V8.74041C19.5605 7.56637 19.2802 6.65192 18.7316 6.02065C18.1386 5.34218 17.2537 5 16.0944 5H5.46607C4.30973 5 3.42183 5.34513 2.82891 6.02065C2.27729 6.64897 2 7.56342 2 8.73746V13.938C2 15.1121 2.27729 16.0265 2.82891 16.6578C3.42183 17.3363 4.30678 17.6785 5.46607 17.6785H15.2242V17.7847C15.2242 19.2271 15.9882 19.9911 17.4307 19.9911H20.5251C21.9675 19.9911 22.7316 19.2271 22.7316 17.7847V10.9528C22.7316 9.51032 21.9675 8.74631 20.5251 8.74631ZM21.5516 17.7876C21.5516 18.1829 21.4779 18.4572 21.3333 18.6018C21.1888 18.7434 20.9174 18.8171 20.5221 18.8171H17.4307C17.0354 18.8171 16.764 18.7463 16.6195 18.6018C16.4749 18.4602 16.4012 18.1858 16.4012 17.7876V10.9528C16.4012 10.1858 16.6608 9.92625 17.4277 9.92625H20.5251C21.3127 9.92625 21.5516 10.1652 21.5516 10.9528V17.7876Z" fill="#86888C"/>
<path d="M18.9756 16.5195C18.4977 16.5195 18.188 16.8293 18.188 17.3101C18.188 17.6051 18.3001 17.7821 18.3974 17.8794C18.4948 17.9797 18.6747 18.0977 18.9756 18.0977C19.2765 18.0977 19.4564 17.9797 19.5538 17.8794C19.6482 17.7821 19.7632 17.6051 19.7632 17.3101C19.7632 16.8293 19.4535 16.5195 18.9756 16.5195Z" fill="#86888C"/>
</svg>
