<svg width="40" height="40" viewBox="0 0 40 40" fill="none" xmlns="http://www.w3.org/2000/svg">
<path d="M21.4555 32.9541H12.4821C11.9196 32.9541 11.4595 33.4143 11.4595 33.9767C11.4595 34.5391 11.9196 34.9993 12.4821 34.9993H21.4555C22.0179 34.9993 22.4781 34.5391 22.4781 33.9767C22.4781 33.4143 22.0179 32.9541 21.4555 32.9541Z" fill="#86888C"/>
<path d="M34.1099 15.4936H32.4379V15.4833C32.4379 13.4483 31.9522 11.8633 31.0011 10.7691C29.9734 9.59311 28.4395 9 26.4301 9H8.00782C6.00351 9 4.46448 9.59823 3.43676 10.7691C2.48063 11.8582 2 13.4432 2 15.4782V24.4925C2 26.5275 2.48063 28.1125 3.43676 29.2067C4.46448 30.3827 5.99839 30.9758 8.00782 30.9758H24.9217V31.1599C24.9217 33.6602 26.246 34.9844 28.7463 34.9844H34.1099C36.6101 34.9844 37.9344 33.6602 37.9344 31.1599V19.3181C37.9344 16.8178 36.6101 15.4936 34.1099 15.4936ZM35.8892 31.165C35.8892 31.8502 35.7614 32.3257 35.5108 32.5762C35.2603 32.8216 34.7899 32.9495 34.1047 32.9495H28.7463C28.0611 32.9495 27.5907 32.8267 27.3402 32.5762C27.0897 32.3308 26.9618 31.8553 26.9618 31.165V19.3181C26.9618 17.9887 27.4118 17.5388 28.7412 17.5388H34.1099C35.475 17.5388 35.8892 17.9529 35.8892 19.3181V31.165Z" fill="#86888C"/>
<path d="M31.4243 28.9673C30.596 28.9673 30.0591 29.5042 30.0591 30.3376C30.0591 30.8489 30.2534 31.1557 30.4221 31.3244C30.5908 31.4982 30.9027 31.7028 31.4243 31.7028C31.9458 31.7028 32.2577 31.4982 32.4264 31.3244C32.59 31.1557 32.7894 30.8489 32.7894 30.3376C32.7894 29.5042 32.2526 28.9673 31.4243 28.9673Z" fill="#86888C"/>
</svg>
