<svg width="40" height="40" viewBox="0 0 40 40" fill="none" xmlns="http://www.w3.org/2000/svg">
<path fill-rule="evenodd" clip-rule="evenodd" d="M8.61298 19.4456L31.4229 19.4405L21.5623 9.60691C21.0911 9.84251 20.5635 9.99104 20 9.99104C19.4365 9.99104 18.9141 9.84251 18.4428 9.60691L8.61298 19.4456ZM30.4752 31.6556V26.1959C30.4752 25.7862 30.1474 25.4635 29.7427 25.4635H29.5225C29.1178 25.4635 28.79 25.7913 28.79 26.1959V28.7414L26.8384 25.7862C26.7001 25.5864 26.4747 25.4584 26.2288 25.4584H26.0546C25.65 25.4584 25.3221 25.7862 25.3221 26.1908V31.6504C25.3221 32.0551 25.65 32.3828 26.0546 32.3828H26.28C26.6847 32.3828 27.0125 32.0551 27.0125 31.6504V29.105L28.959 32.0551C29.0922 32.2599 29.3227 32.3828 29.5686 32.3828H29.753C30.1474 32.388 30.4752 32.0602 30.4752 31.6556ZM24.3694 31.6556V31.4405C24.3694 31.0359 24.0415 30.7081 23.6369 30.7081H21.9158V29.7247H23.1246C23.5293 29.7247 23.8571 29.3969 23.8571 28.9923V28.7772C23.8571 28.3726 23.5293 28.0448 23.1246 28.0448H21.9158V27.1485H23.5088C23.852 27.1485 24.1491 26.9078 24.226 26.5749L24.2721 26.3598C24.3182 26.1447 24.2669 25.9142 24.1286 25.7401C23.9903 25.5711 23.7803 25.4686 23.5549 25.4686H20.9476C20.543 25.4686 20.2151 25.7964 20.2151 26.201V31.6607C20.2151 32.0653 20.543 32.3931 20.9476 32.3931H23.6369C24.0415 32.388 24.3694 32.0602 24.3694 31.6556ZM18.7553 29.5608C19.1241 29.1408 19.3085 28.5826 19.3085 27.84C19.3085 27.0871 19.1087 26.4981 18.7092 26.0781C18.3199 25.6633 17.7513 25.4635 16.9676 25.4635H15.4513C15.0467 25.4635 14.7188 25.7913 14.7188 26.1959V31.6556C14.7188 32.0602 15.0467 32.388 15.4513 32.388H15.6921C16.0968 32.388 16.4246 32.0602 16.4246 31.6556V30.2164H17.1366C17.8332 30.2164 18.3813 29.991 18.7553 29.5608ZM11.0359 32.5006C12.0398 32.5006 13.7251 32.0397 13.7251 28.936C13.7251 25.822 12.0398 25.3611 11.0359 25.3611C10.0267 25.3611 8.34149 25.8271 8.34149 28.936C8.34149 32.0346 10.0267 32.5006 11.0359 32.5006ZM20 5.2023C19.288 5.2023 18.704 5.78617 18.704 6.49808C18.704 7.20999 19.2829 7.79385 20 7.79385C20.7171 7.79385 21.296 7.20999 21.296 6.49808C21.296 5.78617 20.7171 5.2023 20 5.2023ZM37.9641 24.0192L38 34.6466C38 35.8092 37.5492 36.9001 36.7297 37.7196C35.9101 38.5391 34.8241 38.9898 33.6614 38.9949L6.3284 39C5.03244 38.9898 3.89528 38.5288 3.1218 37.7042C2.3432 36.8694 1.96414 35.7375 2.03586 34.4264L2 23.799C2 22.6364 2.45077 21.5455 3.27035 20.7209C3.86454 20.1319 4.59704 19.7375 5.39101 19.5634L16.8907 8.05506C16.6551 7.58387 16.5065 7.06146 16.5065 6.49808C16.5065 4.56722 18.074 3 20 3C21.926 3 23.4935 4.56722 23.4935 6.49808C23.4935 7.06146 23.35 7.58387 23.1144 8.05506L34.6295 19.5378C35.5208 19.7119 36.2994 20.1216 36.8782 20.7362C37.6568 21.5711 38.0359 22.7081 37.9641 24.0192ZM11.0359 27.0615C11.3739 27.0615 12.004 27.0615 12.004 28.9309C12.004 30.7849 11.3995 30.7849 11.0359 30.7849C10.6722 30.7849 10.0626 30.7849 10.0626 28.9309C10.0626 27.0615 10.6722 27.0615 11.0359 27.0615ZM16.9368 27.1434C17.3466 27.1434 17.4439 27.2305 17.4439 27.2305C17.5105 27.3073 17.5822 27.5122 17.5822 27.8553C17.5822 28.2753 17.5208 28.3828 17.4644 28.4443C17.4286 28.4853 17.3876 28.5365 17.0341 28.5365H16.4195V27.1434H16.9368Z" fill="#86888C"/>
</svg>
