<svg width="20" height="20" viewBox="0 0 20 20" fill="none" xmlns="http://www.w3.org/2000/svg">
<path fill-rule="evenodd" clip-rule="evenodd" d="M13.2857 17.0211H6.07114C5.97325 17.0211 5.89129 16.9414 5.89129 16.8412C5.89129 16.741 5.97097 16.6614 6.07114 16.6614H13.2857C13.3836 16.6614 13.4633 16.7433 13.4633 16.8412C13.4633 16.9414 13.3836 17.0211 13.2857 17.0211ZM7.93113 3.71201C7.93113 3.30677 8.25896 2.97894 8.66192 2.97894H10.3921C10.7951 2.97894 11.1229 3.30677 11.1229 3.71201V5.79055C10.6471 5.70859 10.1622 5.65168 9.66591 5.65168C9.08765 5.65168 8.50484 5.71315 7.93341 5.83608V3.71201H7.93113ZM16.3318 11.5572C16.3318 8.8617 14.7541 6.81503 12.095 6.00683V3.71201C12.095 2.76722 11.3301 2 10.3921 2H8.66192C7.72168 2 6.95902 2.76722 6.95902 3.71201V6.11155C4.77348 6.8856 3 8.64997 3 11.5572C3 13.4878 3.76494 15.0814 5.17188 16.1286C5.01707 16.3267 4.91918 16.5726 4.91918 16.8435C4.91918 17.4809 5.43597 18 6.07342 18H13.288C13.9232 18 14.44 17.4809 14.44 16.8435C14.44 16.5817 14.3489 16.3404 14.2009 16.1468C15.5965 15.111 16.3318 13.5424 16.3318 11.5572ZM7.16392 10.4735V12.7866C7.16392 13.1076 7.42345 13.3694 7.74445 13.3694H11.387C11.708 13.3694 11.9676 13.1076 11.9676 12.7866V10.4735C11.9676 10.1525 11.708 9.89072 11.387 9.89072H7.74445C7.42345 9.89072 7.16392 10.1525 7.16392 10.4735ZM7.74445 14.346C6.88617 14.346 6.18953 13.6471 6.18953 12.7866V10.4735C6.18953 9.61298 6.88617 8.91178 7.74445 8.91178H11.387C12.243 8.91178 12.9419 9.61298 12.9419 10.4735V12.7866C12.9419 13.6471 12.2453 14.346 11.387 14.346H7.74445ZM8.86909 11.2681C8.68924 11.2681 8.54354 11.1224 8.54354 10.9425C8.54354 10.7627 8.68924 10.617 8.86909 10.617H10.2282C10.4081 10.617 10.5538 10.7627 10.5538 10.9425C10.5538 11.1224 10.4081 11.2681 10.2282 11.2681H8.86909ZM8.35686 12.5612C8.17701 12.5612 8.0313 12.4155 8.0313 12.2356C8.0313 12.0558 8.17701 11.9101 8.35686 11.9101H10.7359C10.9158 11.9101 11.0615 12.0558 11.0615 12.2356C11.0615 12.4155 10.9158 12.5612 10.7359 12.5612H8.35686ZM9.73193 4.32442C9.73193 4.47923 9.84804 4.60672 9.98919 4.60672C10.1303 4.60672 10.2464 4.47923 10.2464 4.32442C10.2464 4.16961 10.1303 4.03984 9.98919 4.03984C9.84804 4.03984 9.73193 4.16733 9.73193 4.32442ZM10.8953 4.32442C10.8953 4.83893 10.4878 5.2601 9.98919 5.2601C9.48833 5.2601 9.0831 4.83893 9.0831 4.32442C9.0831 3.80763 9.49061 3.38873 9.98919 3.38873C10.49 3.38645 10.8953 3.80763 10.8953 4.32442ZM13.0694 3.69835C12.9442 3.69835 12.819 3.65054 12.7257 3.55492C12.5344 3.36369 12.5344 3.05407 12.7257 2.86283L13.3039 2.28002C13.4952 2.08879 13.8025 2.08879 13.9937 2.28002C14.185 2.47126 14.185 2.78088 13.9937 2.97211L13.4155 3.55265C13.3199 3.65054 13.1947 3.69835 13.0694 3.69835ZM13.2151 4.1901C13.2151 3.91918 13.4337 3.70063 13.7023 3.70063H14.7632C15.0319 3.70063 15.2504 3.91918 15.2504 4.1901C15.2504 4.46101 15.0319 4.67957 14.7632 4.67957H13.7023C13.4314 4.67729 13.2151 4.45874 13.2151 4.1901ZM12.7666 4.82755C12.9579 4.63631 13.2652 4.63631 13.4565 4.82755L14.0689 5.44223C14.2601 5.63347 14.2601 5.94309 14.0689 6.13432C13.9733 6.22994 13.8503 6.27775 13.7251 6.27775C13.5999 6.27775 13.4747 6.22994 13.3813 6.13432L12.7689 5.51964C12.5777 5.3284 12.5777 5.01878 12.7666 4.82755Z" fill="#86888C"/>
</svg>
