<svg width="37" height="24" viewBox="0 0 37 24" fill="none" xmlns="http://www.w3.org/2000/svg">
<path d="M15.1293 1.06051C14.4188 0.344798 13.3949 0 12 0H4.18459C2.80017 0 1.77623 0.355246 1.05529 1.08141C0.344798 1.80235 0 2.81585 0 4.17936V19.8102C0 21.2103 0.350022 22.2394 1.06574 22.9499C1.77623 23.6552 2.79495 23.9948 4.18459 23.9948H12C13.3896 23.9948 14.4136 23.6552 15.1189 22.9499C15.8346 22.2394 16.1846 21.2155 16.1846 19.8102V4.17936C16.1846 2.78973 15.8398 1.77101 15.1293 1.06051ZM14.3248 4.17936V19.8102C14.3248 21.5498 13.7397 22.135 12 22.135H4.18459C2.44493 22.135 1.85982 21.5498 1.85982 19.8102V4.17936C1.85982 2.4815 2.49195 1.85459 4.18459 1.85459H12C12.8777 1.85459 13.468 2.02177 13.8128 2.37179C14.1576 2.71659 14.3248 3.30692 14.3248 4.17936Z" fill="#86888C"/>
<path d="M8.06603 18.5874C7.41301 18.5874 7.01074 18.9949 7.01074 19.6479C7.01074 19.9666 7.10478 20.2226 7.28763 20.4107C7.4757 20.6039 7.74213 20.7032 8.06081 20.7032C8.37948 20.7032 8.65114 20.6039 8.83399 20.4107C9.01684 20.2226 9.11087 19.9666 9.11087 19.6479C9.12132 18.9949 8.71906 18.5874 8.06603 18.5874Z" fill="#86888C"/>
<path d="M35.6238 1.06051C34.9133 0.344798 33.8893 0 32.4945 0H24.6791C23.2947 0 22.2707 0.355246 21.5498 1.08141C20.8393 1.80235 20.4893 2.81585 20.4893 4.18459V19.8154C20.4893 21.2155 20.8393 22.2447 21.555 22.9552C22.2655 23.6604 23.2842 24 24.6738 24H32.4893C33.8789 24 34.9028 23.6604 35.6081 22.9552C36.3238 22.2447 36.6738 21.2207 36.6738 19.8154V4.17936C36.6791 2.78973 36.3343 1.77101 35.6238 1.06051ZM34.8193 4.17936V19.8102C34.8193 21.5499 34.2341 22.135 32.4945 22.135H24.6791C22.9394 22.135 22.3543 21.5499 22.3543 19.8102V4.17936C22.3543 2.4815 22.9864 1.85459 24.6791 1.85459H32.4945C33.3721 1.85459 33.9625 2.02177 34.3073 2.37179C34.6521 2.71659 34.8193 3.30692 34.8193 4.17936Z" fill="#86888C"/>
<path d="M28.4937 18.5874C27.7988 18.5874 27.3652 19.021 27.3652 19.7158C27.3652 20.0554 27.4645 20.3271 27.663 20.5308C27.8615 20.7346 28.1489 20.8443 28.4937 20.8443C28.8332 20.8443 29.1206 20.7346 29.3243 20.5308C29.5228 20.3271 29.6221 20.0554 29.6221 19.7158C29.6169 19.021 29.1885 18.5874 28.4937 18.5874Z" fill="#86888C"/>
<path d="M27.3226 9.87888C27.3226 13.2171 24.6165 15.9233 21.2782 15.9233H15.6831C12.3448 15.9233 9.63867 13.2171 9.63867 9.87888C9.63867 6.54061 12.3448 3.83447 15.6831 3.83447H21.2782C24.6165 3.83447 27.3226 6.54061 27.3226 9.87888Z" fill="#86888C"/>
<path d="M15.8763 10.9759C15.5994 10.6625 15.4531 10.1923 15.4531 9.58105C15.4531 8.84443 15.6516 8.33246 15.9651 8.01901C16.2838 7.70556 16.7174 7.60107 17.1614 7.60107C17.454 7.60107 17.7988 7.65332 18.0548 7.74213L17.9921 8.10782C17.757 8.04513 17.454 7.99811 17.2085 7.99811C16.7748 7.99811 16.4875 8.11305 16.289 8.34291C16.0644 8.60412 15.9599 9.00638 15.9599 9.5497C15.9599 10.0617 16.0539 10.4326 16.2472 10.6781C16.4405 10.9289 16.7383 11.0438 17.2085 11.0438C17.3704 11.0438 17.5689 11.0282 17.71 11.0073V9.8736H17.0831V9.49746H18.1802V11.2998C17.9242 11.3834 17.5062 11.4409 17.1719 11.4409C16.5659 11.4461 16.1479 11.2841 15.8763 10.9759Z" fill="white"/>
<path d="M19.0589 7.67432H20.0463C20.5269 7.67432 20.8404 7.7579 21.0337 7.9512C21.1852 8.1027 21.2635 8.32212 21.2635 8.59378C21.2635 8.98037 21.0859 9.26248 20.7725 9.40353C21.2322 9.51324 21.5039 9.83714 21.5039 10.3282C21.5039 10.6573 21.4098 10.9081 21.2218 11.0805C21.0076 11.2738 20.6784 11.3731 20.1717 11.3731H19.0537V7.67432H19.0589ZM20.015 9.27292C20.3389 9.27292 20.5217 9.22068 20.6419 9.0953C20.7411 8.99082 20.7881 8.83931 20.7881 8.65124C20.7881 8.45795 20.7411 8.30644 20.6366 8.20718C20.5165 8.09225 20.3284 8.05046 20.0097 8.05046H19.5396V9.27292H20.015ZM20.0306 10.9917C20.4642 10.9917 20.6784 10.9499 20.8247 10.8193C20.9396 10.7148 21.0076 10.5581 21.0076 10.323C21.0076 10.1088 20.9553 9.95207 20.8456 9.84236C20.6993 9.70131 20.4904 9.65429 20.0933 9.65429H19.5396V10.9917H20.0306Z" fill="white"/>
</svg>
