<svg width="40" height="40" viewBox="0 0 40 40" fill="none" xmlns="http://www.w3.org/2000/svg">
<path d="M34.0525 21.1087C34.0268 19.1367 33.467 17.6063 32.3835 16.5689C31.3358 15.5675 29.8465 15.0591 27.9515 15.0591H14.2037V10.2317C14.2037 6.77032 17.1874 3.95092 20.8593 3.95092H21.1983C24.865 3.95092 27.8539 6.77032 27.8539 10.2317C27.8385 10.7555 28.2494 11.1971 28.7732 11.2125C29.297 11.228 29.7387 10.8171 29.7541 10.2933V10.2317C29.7541 5.72268 25.9178 2.05078 21.1983 2.05078H20.8593C16.1398 2.05078 12.3036 5.72268 12.3036 10.2368V15.2337C11.2251 15.4596 10.3315 15.9064 9.6331 16.5792C8.5495 17.6217 8 19.1521 8 21.1292V21.196C8 21.2422 8 21.3501 8.00514 21.6222L8 31.9857C8 33.9629 8.5495 35.4933 9.6331 36.5358C10.6756 37.5424 12.1649 38.0508 14.0651 38.0508H27.9566C29.8516 38.0508 31.3409 37.5424 32.3886 36.5409C33.4722 35.4984 34.0371 33.9732 34.0576 32.0011V21.119C34.0525 21.119 34.0525 21.1138 34.0525 21.1087ZM21.9429 33.4853C21.7272 33.701 21.414 33.8088 21.0237 33.8088C20.6334 33.8088 20.3201 33.7061 20.1044 33.4853C19.9041 33.285 19.7963 32.9872 19.7963 32.5866C19.7963 31.7546 20.279 31.3695 21.0237 31.3695C21.7683 31.3695 22.2511 31.7546 22.2511 32.5866C22.2562 32.9872 22.1432 33.285 21.9429 33.4853ZM26.7601 30.4759C26.3852 30.8405 25.7792 30.8302 25.4145 30.4553C24.4747 29.4847 23.0009 28.9917 21.034 28.9917C19.067 28.9917 17.5829 29.4847 16.6431 30.4605C16.2785 30.8405 15.6776 30.8508 15.2976 30.4862C14.9175 30.1215 14.9073 29.5207 15.2719 29.1407C16.5866 27.7797 18.5227 27.0864 21.0288 27.0864C23.5298 27.0864 25.4608 27.7746 26.7755 29.1252C27.1452 29.5053 27.1401 30.1061 26.7601 30.4759C26.7601 30.4708 26.7601 30.4708 26.7601 30.4759ZM29.3843 26.3264C29.0094 26.691 28.4034 26.6807 28.0388 26.3058C26.5136 24.7344 24.1563 23.9384 21.034 23.9384C17.9013 23.9384 15.5389 24.7395 14.0188 26.3213C13.6542 26.7013 13.0534 26.7116 12.6733 26.3469C12.2933 25.9823 12.283 25.3815 12.6476 25.0014C14.5427 23.0345 17.3672 22.0382 21.034 22.0382C24.6904 22.0382 27.5047 23.0294 29.3997 24.9809C29.7695 25.3558 29.7592 25.9618 29.3843 26.3264Z" fill="#86888C"/>
</svg>
