<svg width="24" height="24" viewBox="0 0 24 24" fill="none" xmlns="http://www.w3.org/2000/svg">
<path d="M5.53738 16.518C3.93216 16.518 3.01126 15.6027 3.01126 14.0031V9.69999C3.01126 8.9199 3.22529 8.30598 3.65054 7.8751C4.08705 7.43015 4.7235 7.20485 5.53738 7.20485L14.7463 7.19922C15.5602 7.19922 16.1966 7.42451 16.6331 7.86947C17.0584 8.30035 17.2724 8.91427 17.2724 9.69435V13.9975C17.2724 15.5971 16.3515 16.5123 14.7463 16.5123L5.53738 16.518ZM3.55197 18.1992C3.24782 18.1992 3 17.9514 3 17.6472C3 17.3431 3.24782 17.0953 3.55197 17.0953L16.7317 17.0896C17.0358 17.0896 17.2837 17.3375 17.2837 17.6416C17.2837 17.9458 17.0358 18.1936 16.7317 18.1936L3.55197 18.1992Z" fill="#86888C"/>
<path d="M7.5007 18.0305C7.19655 18.0305 6.94873 17.7826 6.94873 17.4785C6.94873 17.3349 7.00224 17.1997 7.1008 17.0955L8.42159 15.7128C8.63281 15.4931 8.98201 15.4846 9.20167 15.6959C9.42134 15.9071 9.42979 16.2563 9.21857 16.4759L7.89778 17.8587C7.7964 17.9685 7.65278 18.0305 7.5007 18.0305ZM12.767 18.1009C12.6177 18.1009 12.4741 18.0389 12.3699 17.9319L10.9224 16.4393C10.7111 16.2197 10.7168 15.8705 10.9336 15.6593C11.1533 15.448 11.5025 15.4537 11.7137 15.6705L13.1612 17.1631C13.3724 17.3828 13.3668 17.732 13.15 17.9432C13.0486 18.0446 12.9106 18.1009 12.767 18.1009ZM21.3028 18.1769H19.2949C18.8189 18.1769 18.419 17.9601 18.1684 17.563C17.9544 17.2222 17.8502 16.7604 17.8502 16.1493L17.8445 9.23273C17.8445 8.62162 17.9487 8.15976 18.1628 7.81901C18.4134 7.42474 18.8133 7.20508 19.2892 7.20508H21.2972C21.7337 7.20508 22.7531 7.40221 22.7531 9.22991L22.756 16.1465C22.7588 17.9798 21.7393 18.1769 21.3028 18.1769Z" fill="#86888C"/>
</svg>
