<svg width="20" height="20" viewBox="0 0 20 20" fill="none" xmlns="http://www.w3.org/2000/svg">
<path fill-rule="evenodd" clip-rule="evenodd" d="M15.8049 9.38191L13.1934 11.9934C13.1683 11.998 13.1433 11.9934 13.1159 12.0025C11.9115 12.3873 10.575 11.3787 9.66199 10.4657C8.30728 9.11097 7.82459 7.91335 8.18661 6.80226C8.19344 6.77949 8.19116 6.75672 8.19571 6.73623L10.2335 4.69847C10.3018 4.62105 10.3769 4.5482 10.4521 4.47761L10.5932 4.341C11.4334 3.50085 12.2804 3.06598 13.1114 3.05232H13.1569C14.0016 3.05232 14.8646 3.48719 15.7206 4.34328C17.4192 6.03952 17.4442 7.69022 15.8049 9.38191ZM16.4242 3.63746C15.3541 2.56735 14.2111 2.03457 13.0909 2.05734C11.9935 2.07783 10.9165 2.61061 9.8874 3.63746L9.76217 3.75586C9.66199 3.85148 9.56409 3.94483 9.50034 4.02225L3.99268 9.53218C3.8925 9.6187 3.79687 9.7166 3.69897 9.81906L3.58058 9.94201C2.55145 10.9711 2.02094 12.0481 2.00045 13.1432C1.98224 14.2817 2.51274 15.4019 3.58513 16.472C4.64158 17.5284 5.75495 18.0566 6.86377 18.0566C7.89973 18.0566 8.93113 17.5967 9.91245 16.6792C9.96709 16.6336 10.0149 16.5835 10.0673 16.5289L16.513 10.0809C18.5325 7.99987 18.5007 5.71166 16.4242 3.63746Z" fill="#86888C"/>
</svg>
