<svg width="20" height="20" viewBox="0 0 20 20" fill="none" xmlns="http://www.w3.org/2000/svg">
<path fill-rule="evenodd" clip-rule="evenodd" d="M17.7359 6.88206L13.1354 2.25869C12.8008 1.92178 12.2681 1.90585 11.9176 2.25869C11.3189 2.86194 10.9592 3.52665 10.8477 4.23916L8.79211 6.31068C7.6084 6.10581 5.92389 6.30385 4.14377 8.09538L4.11873 8.1227C3.92752 8.31392 3.82508 8.5666 3.82508 8.83749C3.82508 9.1061 3.92979 9.35878 4.11873 9.55L6.91638 12.3682L2.14968 17.1259C1.95163 17.3239 1.94936 17.6494 2.1474 17.8498C2.24756 17.9499 2.37731 18 2.50934 18C2.63682 18 2.76885 17.9499 2.86673 17.852L7.63571 13.0921L10.4948 15.974C10.686 16.1675 10.9364 16.2654 11.1937 16.2654C11.4646 16.2654 11.74 16.1561 11.9631 15.9308C13.3995 14.483 13.9868 12.9168 13.7045 11.271L15.7623 9.19716C16.4748 9.07651 17.1441 8.70773 17.7633 8.084C17.9158 7.93148 18 7.7266 18 7.50807C17.9977 7.2736 17.9067 7.05279 17.7359 6.88206Z" fill="#86888C"/>
</svg>
