<svg width="28" height="28" viewBox="0 0 28 28" fill="none" xmlns="http://www.w3.org/2000/svg">
<path d="M22.8128 4.95726C20.7746 2.99487 17.8096 2 13.9966 2C10.1835 2 7.21858 2.99487 5.18381 4.96068C3.07039 6.99829 2 10.041 2 14.0034C2 17.9658 3.07039 21.0051 5.18381 23.0427C7.21858 25.0051 10.1835 26 13.9966 26C17.8096 26 20.7746 25.0051 22.8128 23.0427C24.9262 21.0051 26 17.9658 26 14.0034C26 10.041 24.9262 6.99487 22.8128 4.95726ZM11.3052 18.653C11.3052 19.0291 11.0145 19.3368 10.6555 19.3368C10.2964 19.3368 10.0057 19.0291 10.0057 18.653V9.31966C10.0057 8.94359 10.2964 8.6359 10.6555 8.6359C11.0145 8.6359 11.3052 8.94359 11.3052 9.31966V18.653ZM18.008 18.6632C18.008 19.0393 17.7173 19.347 17.3616 19.347C17.006 19.347 16.7153 19.0393 16.7153 18.6632V9.32992C16.7153 8.95385 17.006 8.64615 17.3616 8.64615C17.7173 8.64615 18.008 8.95385 18.008 9.32992V18.6632Z" fill="#86888C"/>
</svg>
