<svg width="40" height="40" viewBox="0 0 40 40" fill="none" xmlns="http://www.w3.org/2000/svg">
<path fill-rule="evenodd" clip-rule="evenodd" d="M2 20.0051C2 8.22368 8.29207 2 20.203 2C32.1035 2 38.3956 8.22368 38.3956 20.0051C38.3956 31.7763 32.1035 38 20.203 38C8.29207 38 2 31.7763 2 20.0051ZM10.7927 13.082C10.2246 13.082 9.76911 13.5425 9.76911 14.1054V25.0052C9.76911 25.1894 9.82029 25.3736 9.91753 25.5323C10.2041 26.0133 10.8337 26.1719 11.3199 25.8803L20.435 20.4048C20.5988 20.3024 20.737 20.1591 20.824 19.98V25.0154C20.824 25.1997 20.8752 25.3839 20.9724 25.5425C21.259 26.0235 21.8885 26.1822 22.3747 25.8905L31.4899 20.415C31.6332 20.328 31.756 20.2052 31.843 20.0619C32.1296 19.5758 31.971 18.9464 31.4848 18.6598L22.3696 13.2355C22.211 13.1434 22.0318 13.0922 21.8476 13.0922C21.2795 13.0922 20.824 13.5527 20.824 14.1156V19.0794C20.737 18.9003 20.5988 18.7519 20.4299 18.6496L11.3147 13.2252C11.1561 13.1331 10.977 13.082 10.7927 13.082Z" fill="#86888C"/>
</svg>
