<svg width="40" height="40" viewBox="0 0 40 40" fill="none" xmlns="http://www.w3.org/2000/svg">
<path fill-rule="evenodd" clip-rule="evenodd" d="M34.9333 11.3599L34.9486 10.6939C34.7591 10.6529 34.5644 10.6427 34.3697 10.6529L6.57692 10.6375C6.40273 10.6324 6.22855 10.6632 6.06461 10.7195V11.3855C6.17732 11.4111 6.36687 11.4367 6.62815 11.4265H7.57592C7.65789 11.4265 7.72961 11.4111 7.79622 11.4111L33.1248 11.4265C33.2221 11.4111 33.3041 11.4367 33.3861 11.4367H34.4209C34.5951 11.4419 34.7693 11.4163 34.9333 11.3599ZM20.4451 36.2735C21.0907 36.2581 21.0906 35.9303 21.0906 35.7049C21.0906 35.4897 21.0907 35.1311 20.5425 35.1208H20.4349C19.9533 35.1208 19.9123 35.3975 19.9123 35.6895C19.9072 35.92 19.9072 36.2633 20.4451 36.2735ZM19.6716 6.49296L15.6499 8.64466L25.1481 8.66003L21.4083 6.46222C21.1419 6.55956 20.8652 6.61079 20.5835 6.61079H20.4298C20.1839 6.61079 19.9226 6.5698 19.6716 6.49296ZM20.4298 3.72648C19.9482 3.74185 19.9072 4.00313 19.9072 4.30027C19.9072 4.59229 19.9482 4.8843 20.4451 4.8843C21.0907 4.86893 21.0906 4.54106 21.0906 4.31564C21.0906 4.10047 21.0907 3.74185 20.5425 3.73161L20.4298 3.72648ZM36.4907 9.30041C36.8186 9.59243 36.9979 9.99203 37.0132 10.4019L36.9979 11.6622C36.9979 12.3845 36.4599 12.9685 35.6095 13.2452C35.6249 13.3374 35.6505 13.445 35.6505 13.5475L35.6351 28.8809C35.6351 30.0592 34.549 31.0326 33.2017 31.0326L21.5364 31.0172V33.5839C22.2946 33.8913 22.8837 34.5829 22.8837 35.6997C22.8837 37.252 21.731 37.9744 20.5886 38H20.4093C19.2822 37.9846 18.1244 37.2674 18.1244 35.6844C18.1244 34.5522 18.7135 33.8759 19.4769 33.5685V31.0172H7.88331C6.93041 31.0531 6.35662 30.6945 6.02362 30.3922C5.59841 30.008 5.35762 29.4649 5.36274 28.8911V13.5526C5.36274 13.4604 5.37811 13.3682 5.38836 13.2759C5.04511 13.1684 4.74285 13.0095 4.50719 12.7944C4.18955 12.5126 4.00512 12.1027 4 11.6775V10.4172C4 9.39263 5.0861 8.64978 6.57179 8.64978H11.3978L18.2115 5.00726C18.15 4.77672 18.1141 4.54106 18.1141 4.30027C18.1141 2.7326 19.2668 2.01537 20.4093 2V2.01537H20.5886C21.7157 2.02562 22.8735 2.75822 22.8735 4.31564C22.8735 4.55643 22.8479 4.76647 22.7915 4.95603L29.1544 8.66003H34.339C35.2611 8.62416 36.0194 8.85983 36.4907 9.30041ZM26.7722 25.3613H14.0823L16.2135 22.1286L20.8345 23.8603C21.1368 23.9627 21.4954 23.8705 21.7003 23.6348L25.0406 19.5671L25.1225 20.0948C25.1789 20.4534 25.5068 20.7198 25.8654 20.7198C25.9064 20.7198 25.9473 20.7044 25.9883 20.7044C26.3931 20.643 26.6748 20.269 26.6236 19.8642L26.2957 17.7382C26.224 17.3795 25.9064 17.1183 25.5375 17.1285H23.0989C22.6942 17.1183 22.3561 17.441 22.3407 17.8457C22.3407 18.2556 22.6839 18.5732 23.0989 18.5732H23.9084L20.8652 22.2875L16.1878 20.5456C15.8548 20.4124 15.4757 20.5302 15.2811 20.8274L13.0935 24.1523V17.2207C13.0884 16.8109 12.7502 16.483 12.3404 16.4932H12.3353C11.9306 16.4779 11.5924 16.7955 11.5771 17.2002V26.0888C11.5771 26.4884 11.9049 26.8214 12.3353 26.8214H26.767C27.1769 26.8265 27.515 26.4986 27.5253 26.0888C27.5201 25.6841 27.1871 25.3562 26.7722 25.3613Z" fill="#86888C"/>
</svg>
