<svg width="40" height="40" viewBox="0 0 40 40" fill="none" xmlns="http://www.w3.org/2000/svg">
<path fill-rule="evenodd" clip-rule="evenodd" d="M31.4969 16.5014C30.5236 16.5014 29.7092 16.2094 29.1406 15.6511C28.5771 15.1081 28.2851 14.3295 28.2851 13.4126V11.333L33.6022 16.5014H31.4969ZM23.7877 8.02903H16.4781C15.2282 8.02903 14.1372 9.10985 14.1372 10.3392V28.6158L6.28458 28.6466L6.2897 4.29994L23.7877 4.26921V8.02903ZM36.9112 16.8036C36.8445 16.5556 36.7138 16.3295 36.5322 16.148L28.6232 8.46443C28.3364 8.1827 27.9471 8.02903 27.5475 8.02903H26.0774V4.26921C26.0774 3.03984 25.0273 2 23.7826 2H6.29482C5.05009 2 4 3.03984 4 4.26921V28.6466C4 29.8503 5.07057 30.9106 6.2897 30.9106H14.1372V35.6898C14.1372 36.9448 15.2077 38 16.4781 38H34.6625C35.9328 38 36.9983 36.9448 36.9983 35.6898V17.2544C36.9983 17.1007 36.9676 16.9471 36.9112 16.8036Z" fill="#86888C"/>
</svg>
