<svg width="40" height="40" viewBox="0 0 40 40" fill="none" xmlns="http://www.w3.org/2000/svg">
<path fill-rule="evenodd" clip-rule="evenodd" d="M28.7581 38H4.77416C3.24543 38 2 36.7225 2 35.1563V29.7256C2 29.3782 2.14432 29.0521 2.39555 28.8169C2.64677 28.5871 2.97817 28.4748 3.32027 28.5229C3.55011 28.5497 3.74788 28.5657 3.88686 28.571H3.95635C4.05791 28.571 4.17016 28.571 4.26637 28.5604C4.60846 28.555 5.21247 28.5283 5.902 28.2931C7.79421 27.6891 8.74566 26.1978 8.74566 23.8459C8.74566 21.4886 7.79955 19.992 5.92339 19.404C5.18575 19.1421 4.53363 19.1154 4.31982 19.1047H3.81203C3.70512 19.11 3.52339 19.1154 3.30423 19.1421C2.95679 19.1795 2.63608 19.0673 2.3902 18.8428C2.13898 18.6129 2 18.2869 2 17.9394V13.0913C2 11.5198 3.24543 10.2477 4.77416 10.2477H9.84143C9.80401 9.88419 9.78263 9.51002 9.78263 9.12517C9.78263 3.93497 13.2249 2.04276 16.4428 2H16.9987C20.2699 2.09087 23.739 4.01515 23.739 9.15724C23.739 9.5314 23.7176 9.89488 23.6802 10.2423H28.7635C30.2869 10.2423 31.5216 11.5198 31.5216 13.086V16.7261C31.8423 16.6886 32.1096 16.6833 32.2913 16.6833H32.8633C36.1025 16.7795 39.5661 18.7091 39.5661 23.8405C39.5661 29.0307 35.9528 30.9229 32.8633 30.9657C32.7777 30.9764 32.5479 30.9817 32.3234 30.9817C32.163 30.9764 31.8797 30.9657 31.5216 30.9229V35.151C31.5216 36.7225 30.2815 38 28.7581 38Z" fill="#86888C"/>
</svg>
