<svg width="24" height="24" viewBox="0 0 24 24" fill="none" xmlns="http://www.w3.org/2000/svg">
<path fill-rule="evenodd" clip-rule="evenodd" d="M3.93011 16.8834C3.20844 17.6119 2 19.1628 2 21.3711C2 21.7183 2.27735 22 2.62262 22C4.88951 22 6.48284 20.6369 7.06301 20.0507C8.04222 19.0604 8.04222 17.8766 7.06301 16.8834C6.08097 15.8903 4.91215 15.8931 3.93011 16.8834ZM17.1324 17.0513C17.1862 16.5106 17.0758 15.9671 16.8126 15.4919C15.8985 16.2773 14.9278 16.9944 13.9061 17.6347C14.0788 18.0075 14.2429 18.3831 14.3957 18.7502C14.5882 19.2112 14.8627 19.8686 15.058 20.1474C16.3428 19.1116 17.0305 18.0815 17.1324 17.0513ZM5.43288 9.60981C5.76117 9.74925 6.09512 9.89723 6.42624 10.0537C7.05735 9.02075 7.7677 8.03898 8.54314 7.11413C8.09882 6.88932 7.60355 6.79256 7.10829 6.84094C6.08097 6.94623 5.05082 7.65481 4.04615 8.94107C4.32632 9.13742 4.97724 9.4163 5.43288 9.60981ZM20.2031 3.2895C19.4191 3.20129 17.6503 3.30373 15.7032 3.86434L20.0502 8.26095C20.6134 6.26896 20.7096 4.46193 20.6191 3.70213C20.588 3.48586 20.4181 3.31796 20.2031 3.2895ZM18.1088 14.3166C17.9899 14.439 17.8739 14.5471 17.7607 14.6552C18.0437 15.0935 18.4824 15.9756 18.3748 17.1452C18.2418 18.5795 17.3475 19.9511 15.7174 21.2231C15.474 21.4451 15.1372 21.5333 14.8146 21.4593C14.1042 21.2914 13.7477 20.4292 13.2496 19.2368C13.1137 18.9067 12.9666 18.5738 12.8194 18.2494L12.259 18.5254C11.5487 18.8583 10.9855 19.0234 10.544 19.0234C10.1931 19.0234 9.91856 18.9181 9.71196 18.7104L5.34515 14.2967C4.73952 13.7361 5.11875 12.6319 5.52062 11.7355L5.80928 11.1493C5.52345 11.0184 5.23761 10.8904 4.94894 10.768C3.7688 10.2643 2.91695 9.90292 2.74997 9.1858C2.70469 9.00083 2.68205 8.63089 3.00468 8.24956C4.24142 6.62751 5.59703 5.72258 7.01773 5.58599C7.8526 5.50915 8.68747 5.70835 9.39782 6.15228C9.49688 6.04699 9.59593 5.9417 9.68649 5.84779C13.0175 2.48132 18.4003 1.81258 20.3502 2.04024C21.137 2.14269 21.7483 2.7602 21.8502 3.54562C22.0539 5.20751 21.5445 10.8448 18.1088 14.3166ZM14.4948 10.048C13.9118 10.048 13.7024 9.83747 13.7024 9.24841C13.7024 8.6565 13.909 8.44876 14.4948 8.44876C15.0778 8.44876 15.2872 8.65935 15.2872 9.24841C15.2872 9.83747 15.0778 10.048 14.4948 10.048ZM14.4948 7.18812C13.2213 7.18812 12.46 7.95646 12.46 9.24556C12.46 10.5347 13.2213 11.303 14.4948 11.303C15.7683 11.303 16.5296 10.5318 16.5296 9.24556C16.5296 7.9593 15.7683 7.18812 14.4948 7.18812Z" fill="#86888C"/>
</svg>
