<svg width="20" height="20" viewBox="0 0 20 20" fill="none" xmlns="http://www.w3.org/2000/svg">
<path fill-rule="evenodd" clip-rule="evenodd" d="M15.3156 14.8928C15.5774 14.4398 15.4226 13.857 14.9696 13.5952C14.5166 13.3357 13.9338 13.4905 13.6721 13.9435C13.4103 14.3965 13.5673 14.9793 14.0203 15.241C14.166 15.3253 14.3299 15.3685 14.4938 15.3685C14.5758 15.3685 14.66 15.3571 14.742 15.3344C14.9832 15.2684 15.1881 15.1113 15.3156 14.8928ZM13.0734 12.0428C13.1417 12.1133 13.2327 12.1475 13.3215 12.1475C13.4103 12.1475 13.4968 12.1133 13.5651 12.0473L14.6236 11.007L14.1319 10.5153L13.0779 11.5511C12.9413 11.6854 12.9391 11.9062 13.0734 12.0428ZM11.0246 11.1755L12.9095 9.28835L12.4178 8.79666L10.533 10.6838C10.3964 10.8203 10.3964 11.0412 10.533 11.1755C10.6012 11.2437 10.69 11.2779 10.7788 11.2779C10.8653 11.2779 10.9564 11.2437 11.0246 11.1755ZM9.87508 8.73064C9.96386 8.73064 10.0504 8.6965 10.1187 8.63048L11.1931 7.57425L10.7014 7.08255L9.63151 8.13423C9.49493 8.26854 9.49266 8.48935 9.62696 8.62593C9.69525 8.69422 9.78631 8.73064 9.87508 8.73064ZM7.54409 7.7905L9.47672 5.85559L8.98503 5.3639L7.05239 7.29881C6.91581 7.43539 6.91581 7.65392 7.05239 7.7905C7.12068 7.85879 7.20946 7.89294 7.29824 7.89294C7.38702 7.89294 7.4758 7.85879 7.54409 7.7905ZM6.39452 5.34569C6.4833 5.34569 6.5698 5.31382 6.63809 5.24553L7.76262 4.13921L7.27092 3.64752L6.15095 4.74928C6.01437 4.88359 6.01209 5.10439 6.1464 5.24097C6.21469 5.31154 6.30574 5.34569 6.39452 5.34569ZM17.7809 13.7091C17.9175 13.8912 17.9972 14.112 17.9972 14.3442C17.9972 14.6287 17.8856 14.8973 17.6853 15.0976L15.0971 17.6881C14.8967 17.8907 14.6281 18 14.3436 18C14.059 18 13.7927 17.8907 13.5924 17.6881L2.31072 6.39964C1.89643 5.98535 1.89643 5.30927 2.31072 4.89269L4.90123 2.30219C5.30187 1.89927 6.00526 1.89927 6.4059 2.30219L6.58346 2.47974L6.59257 2.47291L17.8037 13.6886L17.7809 13.7091Z" fill="#86888C"/>
</svg>
