<svg width="40" height="40" viewBox="0 0 40 40" fill="none" xmlns="http://www.w3.org/2000/svg">
<path fill-rule="evenodd" clip-rule="evenodd" d="M31.9601 31.0087C32.5491 29.9895 32.2008 28.6783 31.1816 28.0893C30.1623 27.5054 28.8511 27.8537 28.2621 28.8729C27.6731 29.8922 28.0265 31.2033 29.0458 31.7924C29.3736 31.9819 29.7423 32.0792 30.1111 32.0792C30.2955 32.0792 30.485 32.0536 30.6694 32.0023C31.2123 31.8538 31.6733 31.5004 31.9601 31.0087ZM26.9151 24.5962C27.0688 24.755 27.2736 24.8318 27.4734 24.8318C27.6731 24.8318 27.8678 24.755 28.0214 24.6064L30.4031 22.2658L29.2967 21.1595L26.9253 23.4899C26.618 23.7921 26.6129 24.2889 26.9151 24.5962ZM22.3055 22.6448L26.5463 18.3988L25.44 17.2925L21.1991 21.5385C20.8918 21.8458 20.8918 22.3426 21.1991 22.6448C21.3528 22.7984 21.5526 22.8753 21.7523 22.8753C21.9469 22.8753 22.1518 22.7984 22.3055 22.6448ZM19.7189 17.1439C19.9187 17.1439 20.1133 17.0671 20.267 16.9186L22.6845 14.5421L21.5782 13.4357L19.1709 15.802C18.8636 16.1042 18.8585 16.601 19.1607 16.9083C19.3143 17.062 19.5192 17.1439 19.7189 17.1439ZM14.4742 15.0286L18.8226 10.6751L17.7163 9.56877L13.3679 13.9223C13.0606 14.2296 13.0606 14.7213 13.3679 15.0286C13.5215 15.1823 13.7213 15.2591 13.921 15.2591C14.1208 15.2591 14.3205 15.1823 14.4742 15.0286ZM11.8877 9.5278C12.0874 9.5278 12.2821 9.45609 12.4357 9.30244L14.9659 6.81323L13.8596 5.70692L11.3396 8.18588C11.0323 8.48807 11.0272 8.98488 11.3294 9.29219C11.4831 9.45097 11.6879 9.5278 11.8877 9.5278ZM37.507 28.3454C37.8143 28.7551 37.9936 29.2519 37.9936 29.7744C37.9936 30.4146 37.7426 31.019 37.2919 31.4697L31.4684 37.2983C31.0177 37.7542 30.4133 38 29.7731 38C29.1328 38 28.5336 37.7542 28.0829 37.2983L2.69913 11.8992C1.76696 10.967 1.76696 9.44585 2.69913 8.50855L8.52776 2.67992C9.4292 1.77336 11.0118 1.77336 11.9133 2.67992L12.3128 3.07942L12.3333 3.06406L37.5582 28.2993L37.507 28.3454Z" fill="#86888C"/>
</svg>
