<svg width="28" height="28" viewBox="0 0 28 28" fill="none" xmlns="http://www.w3.org/2000/svg">
<path fill-rule="evenodd" clip-rule="evenodd" d="M17.5466 24.0822L16.8501 20.7017C18.3081 20.2032 19.9266 19.1481 20.6983 16.9388L24.0583 17.632C22.9827 21.7398 20.0905 23.4266 17.5466 24.0822ZM14.2959 19.65C14.1764 19.6534 14.0364 19.6534 13.8964 19.6534H13.6916C12.9062 19.6398 12.1311 19.4895 11.397 19.2164C9.34137 18.4174 8.34431 16.7032 8.34431 13.9784C8.34431 9.11601 11.6565 8.36139 13.6335 8.34431H13.753C13.9272 8.34431 14.1081 8.34773 14.2618 8.35114C19.1276 8.46724 19.6534 12.353 19.6534 14.0194C19.6534 15.6857 19.1344 19.5647 14.2959 19.65ZM10.4511 24.0958C7.91407 23.4436 5.03216 21.7568 3.94973 17.632L7.31311 16.9388C8.03359 19.0081 9.48137 20.0803 10.8575 20.6129C10.9565 20.6539 11.0521 20.6744 11.1511 20.7086L10.4511 24.0958ZM10.4101 3.87803L11.1135 7.27213C9.62478 7.77066 7.97895 8.86333 7.2414 11.2057L3.88827 10.5126C4.91606 6.22385 7.8492 4.51997 10.4101 3.87803ZM17.5705 3.95656C20.1315 4.64631 23.0271 6.37068 24.0788 10.5194L20.7325 11.2092C19.9812 8.94187 18.3525 7.8492 16.874 7.32677L17.5705 3.95656ZM14.5008 2.01366C14.2242 2.00341 13.9033 2 13.5925 2H13.3672C10.9565 2.02049 2 2.84682 2 13.9613C2 25.0895 11.0418 25.9602 13.4491 25.9978C13.8145 26.0012 14.1833 26.0012 14.5486 25.9943C16.8398 25.95 25.9978 25.0929 25.9978 14.033C25.9978 2.99706 16.8535 2.06829 14.5008 2.01366Z" fill="#86888C"/>
</svg>
