<svg width="24" height="24" viewBox="0 0 24 24" fill="none" xmlns="http://www.w3.org/2000/svg">
<path fill-rule="evenodd" clip-rule="evenodd" d="M14.9555 20.4018L14.3751 17.5848C15.5901 17.1693 16.9388 16.2901 17.5819 14.449L20.3819 15.0267C19.4856 18.4498 17.0754 19.8555 14.9555 20.4018ZM12.2466 16.7084C12.147 16.7112 12.0304 16.7112 11.9137 16.7112H11.743C11.0885 16.6998 10.4426 16.5746 9.8308 16.347C8.11781 15.6811 7.28693 14.2527 7.28693 11.982C7.28693 7.93001 10.0471 7.30116 11.6946 7.28693H11.7942C11.9393 7.28693 12.0901 7.28977 12.2182 7.29262C16.273 7.38937 16.7112 10.6275 16.7112 12.0161C16.7112 13.4047 16.2787 16.6372 12.2466 16.7084ZM9.0426 20.4132C6.9284 19.8697 4.5268 18.464 3.62478 15.0267L6.42759 14.449C7.02799 16.1734 8.23448 17.0669 9.38121 17.5108C9.46373 17.5449 9.5434 17.562 9.62592 17.5905L9.0426 20.4132ZM9.00845 3.56502L9.59462 6.39344C8.35399 6.80888 6.98246 7.71944 6.36783 9.67145L3.57356 9.09382C4.43005 5.51988 6.87433 4.09997 9.00845 3.56502ZM14.9755 3.63047C17.1096 4.20526 19.5226 5.64223 20.399 9.09951L17.6104 9.6743C16.9844 7.78489 15.6271 6.87433 14.395 6.43897L14.9755 3.63047ZM12.4174 2.01138C12.1869 2.00285 11.9194 2 11.6605 2H11.4726C9.46373 2.01707 2 2.70568 2 11.9678C2 21.2412 9.53487 21.9668 11.5409 21.9981C11.8454 22.001 12.1527 22.001 12.4572 21.9953C14.3665 21.9583 21.9981 21.2441 21.9981 12.0275C21.9981 2.83088 14.3779 2.05691 12.4174 2.01138Z" fill="#86888C"/>
</svg>
