<svg width="24" height="24" viewBox="0 0 24 24" fill="none" xmlns="http://www.w3.org/2000/svg">
<path fill-rule="evenodd" clip-rule="evenodd" d="M20.5015 5.19863C20.5015 5.47183 20.5186 11.9118 20.0462 14.6978C19.4258 18.3062 12.7696 21.5788 12.0154 21.9402C11.8475 22.0199 11.654 22.0199 11.489 21.9402C10.732 21.5788 4.08431 18.3062 3.46393 14.6978C2.983 11.9118 3.00008 5.47183 3.00008 5.19863C3.00008 4.85714 3.27611 4.57826 3.62045 4.57826C3.66883 4.57826 3.72005 4.58395 3.76843 4.59533C5.4019 4.85999 6.26132 4.27376 7.35409 3.5424C8.42978 2.81673 9.65062 2 11.7479 2H11.7536C13.851 2.00285 15.0718 2.81958 16.1475 3.5424C17.2403 4.27376 18.1054 4.8543 19.7559 4.59249C19.938 4.56403 20.123 4.61525 20.2681 4.73193C20.4104 4.84576 20.493 5.01651 20.5015 5.19863ZM11.7508 15.0051C10.1629 15.0051 9.7303 14.4132 9.7303 12.2504C9.7303 10.9015 9.91812 10.1759 10.3649 9.83153C10.6552 9.60672 11.1105 9.49573 11.7536 9.49573C12.3882 9.49573 12.8407 9.60387 13.1338 9.82584C13.5835 10.1702 13.7741 10.8958 13.7741 12.2504C13.7713 14.4132 13.3387 15.0051 11.7508 15.0051ZM11.7536 7.85088C13.1082 7.85088 13.1082 8.12977 13.1082 8.51679C13.1082 8.52533 13.1082 8.52817 13.1054 8.53671C12.7212 8.40581 12.2773 8.33466 11.7479 8.33466C11.2243 8.33466 10.7804 8.40581 10.399 8.53386L10.3962 8.51679C10.399 8.12977 10.3991 7.85088 11.7536 7.85088ZM14.6677 7.85373L14.7104 8.64485L14.2408 8.78998C14.2522 8.69892 14.2636 8.6107 14.2636 8.51394C14.2636 7.45817 13.6774 7.01992 13.0371 6.82925C13.1936 6.60159 13.168 6.2971 12.9745 6.09789C12.7553 5.87308 12.3939 5.87023 12.1691 6.08936L12.1606 6.09789L11.7593 6.50484C11.7508 6.51338 11.7479 6.52476 11.7366 6.53614C11.728 6.52476 11.7252 6.51338 11.7166 6.50484L11.3125 6.09789C11.0934 5.87308 10.732 5.87023 10.5072 6.08936L10.4987 6.09789C10.3023 6.29994 10.2795 6.61013 10.4446 6.83779C9.81852 7.03415 9.25221 7.4724 9.25221 8.5111C9.25221 8.6107 9.26359 8.70461 9.27497 8.79567L8.77128 8.63916L8.81396 7.84804C8.83104 7.52931 8.58915 7.25612 8.27042 7.2362C7.95739 7.24189 7.68135 7.4667 7.66428 7.78828L7.59882 9.03472C7.58459 9.30222 7.75249 9.54411 8.00577 9.62379L8.92779 9.90837C8.7542 10.3238 8.66314 10.7906 8.62045 11.2658H7.92893C7.61021 11.2658 7.35124 11.5276 7.35124 11.8463V12.6744C7.35124 12.996 7.61021 13.2578 7.92893 13.2578C8.24481 13.2578 8.50377 12.996 8.50377 12.6744V12.4297H8.58346C8.58915 13.0188 8.63753 13.5908 8.76843 14.103L8.00577 14.3392C7.75249 14.4189 7.58459 14.6608 7.59882 14.9254L7.66428 16.1719C7.68135 16.4821 7.93462 16.724 8.23912 16.724H8.27042C8.5863 16.7069 8.83104 16.4337 8.81396 16.1121L8.77128 15.321L9.26359 15.1702C9.72745 15.7792 10.493 16.1662 11.7536 16.1662C13.0086 16.1662 13.7741 15.782 14.2408 15.1759L14.7132 15.321L14.6705 16.1121C14.6535 16.4308 14.8954 16.704 15.2141 16.724H15.2454C15.5527 16.7211 15.806 16.4792 15.8202 16.1719L15.8857 14.9254C15.8999 14.6579 15.732 14.4161 15.4787 14.3392L14.736 14.1116C14.8697 13.5993 14.9181 13.0245 14.9238 12.4297H15.0035V12.6744C15.0035 12.996 15.2625 13.2578 15.5783 13.2578C15.8971 13.2578 16.156 12.996 16.156 12.6773V11.8463C16.1589 11.5276 15.8999 11.2658 15.5812 11.2629H14.884C14.8384 10.7849 14.7502 10.3153 14.5738 9.89983L15.4759 9.62094C15.732 9.54126 15.8999 9.29937 15.8828 9.03187L15.8174 7.78543C15.8003 7.46386 15.5356 7.2362 15.2112 7.23335C14.8925 7.25896 14.6506 7.535 14.6677 7.85373ZM11.7195 10.3438C11.4008 10.3438 11.1418 10.6056 11.1446 10.9243V14.0262C11.1446 14.3478 11.4008 14.6067 11.7195 14.6067C12.0382 14.6067 12.2943 14.3449 12.2943 14.0262V10.9243C12.2943 10.6084 12.0382 10.3466 11.7195 10.3438Z" fill="#86888C"/>
</svg>
