<svg width="28" height="28" viewBox="0 0 28 28" fill="none" xmlns="http://www.w3.org/2000/svg">
<path fill-rule="evenodd" clip-rule="evenodd" d="M14 17.6283C15.284 17.6283 16.0216 16.918 16.0216 15.6818C16.0216 14.4456 15.284 13.7388 14 13.7388C12.716 13.7388 11.9784 14.4456 11.9784 15.6818C11.9784 16.918 12.716 17.6283 14 17.6283ZM18.3608 14.5071C18.8321 14.5071 19.2112 14.8725 19.2112 15.3267V16.0404C19.2112 16.4912 18.8321 16.86 18.3608 16.86H17.7496C17.7018 17.0615 17.6403 17.2493 17.5652 17.4269L18.0603 17.905C18.3847 18.2123 18.395 18.7211 18.0911 19.0455L18.0603 19.0763L17.5174 19.5987C17.1759 19.9198 16.6431 19.9198 16.3051 19.5987L15.8099 19.1172C15.6187 19.1924 15.4206 19.2504 15.2191 19.2982V19.8856C15.2191 20.3364 14.8367 20.7052 14.3688 20.7052H13.6278C13.1565 20.7052 12.7775 20.3364 12.7775 19.8856V19.2982C12.576 19.2538 12.3779 19.1924 12.1867 19.1172L11.6915 19.5987C11.3466 19.9095 10.8241 19.9095 10.4792 19.5987L9.93625 19.0729C9.61525 18.7621 9.60501 18.2499 9.91235 17.9289L9.93625 17.905L10.428 17.4337C10.3529 17.2493 10.2914 17.0546 10.247 16.86H9.63574C9.16448 16.86 8.78543 16.4912 8.78543 16.0404V15.3267C8.78543 14.8759 9.16448 14.5071 9.63574 14.5071H10.247C10.288 14.3398 10.346 14.1315 10.428 13.9334L9.93625 13.4587C9.77575 13.3085 9.68697 13.0968 9.68697 12.8748C9.68697 12.6494 9.77575 12.4411 9.93967 12.2874L10.4792 11.7649C10.8241 11.4542 11.3466 11.4542 11.6915 11.7649L12.1867 12.243C12.3711 12.1713 12.5692 12.1133 12.7775 12.0655V11.4781C12.7775 11.0273 13.1599 10.6585 13.6278 10.6585H14.3688C14.8401 10.6585 15.2191 11.0273 15.2191 11.4781V12.0655C15.4274 12.1133 15.6187 12.1679 15.8099 12.2464L16.3051 11.7649C16.6466 11.4405 17.1793 11.4405 17.5174 11.7649L18.0603 12.2874C18.3813 12.5948 18.395 13.1036 18.0877 13.428C18.0774 13.4382 18.0706 13.4485 18.0603 13.4553L17.5618 13.9334C17.6369 14.111 17.6983 14.3022 17.7462 14.5037C17.7496 14.5071 18.3608 14.5071 18.3608 14.5071ZM24.2584 21.5828C24.4087 21.5828 24.5316 21.4667 24.5316 21.3199V9.53842H3.46841V21.3199C3.46841 21.4633 3.59135 21.5828 3.74161 21.5828H24.2584ZM5.88958 7.69095C5.88275 7.32214 5.58224 7.02846 5.21343 7.03529H5.21002C4.84121 7.02846 4.53728 7.31873 4.52703 7.68754V7.69095C4.52703 8.05293 4.83096 8.34661 5.2066 8.34661C5.58566 8.34661 5.88958 8.05293 5.88958 7.69095ZM7.93512 7.69095C7.92829 7.32214 7.62436 7.02846 7.25555 7.03529H7.25213C6.88332 7.02846 6.5794 7.32214 6.57257 7.69095C6.57257 8.05293 6.87649 8.34661 7.25213 8.34661C7.62436 8.35344 7.92829 8.05976 7.93512 7.69095ZM9.98065 7.69095C9.97382 7.32214 9.66989 7.02846 9.30108 7.03529C8.93227 7.02846 8.62834 7.31873 8.6181 7.68754V7.69095C8.6181 8.05293 8.92203 8.34661 9.29767 8.34661C9.66989 8.35344 9.97382 8.05976 9.98065 7.69095ZM24.2584 5C25.218 5 26 5.7547 26 6.68014V21.3199C26 22.2453 25.218 23 24.2584 23H3.74161C2.7786 23 2 22.2487 2 21.3233V6.68014C2 5.7547 2.7786 5 3.74161 5H24.2584Z" fill="#86888C"/>
</svg>
