<svg width="24" height="24" viewBox="0 0 24 24" fill="none" xmlns="http://www.w3.org/2000/svg">
<path d="M19.8176 12.4339H18.6254C18.5827 12.3261 18.5173 12.2271 18.4376 12.1427L18.0763 11.7729C18.1019 11.6972 18.1275 11.6215 18.1474 11.5428H18.6795C19.1518 11.5428 19.5331 11.1527 19.5331 10.6693V9.59193C19.5331 9.10857 19.1518 8.71839 18.6795 8.71839H18.1474C18.1246 8.63977 18.1019 8.56406 18.0763 8.48835L18.4376 8.11855C18.7705 7.77787 18.7705 7.22463 18.4376 6.88394L17.6921 6.12105C17.3592 5.78037 16.8186 5.78037 16.4857 6.12105L16.1243 6.49085C16.0504 6.46464 15.9764 6.43844 15.8996 6.41805V5.87354C15.8996 5.39018 15.5183 5 15.046 5H13.9932C13.5208 5 13.1396 5.39018 13.1396 5.87354V6.41805C13.0627 6.44135 12.9888 6.46464 12.9148 6.49085L12.5534 6.12105C12.2205 5.78037 11.6799 5.78037 11.347 6.12105L10.6044 6.88394C10.2714 7.22463 10.2714 7.77787 10.6044 8.11855L10.9657 8.48835C10.9401 8.56406 10.9145 8.63977 10.8946 8.71839H10.3625C9.89017 8.71839 9.50889 9.10857 9.50889 9.59193V10.6693C9.50889 11.1527 9.89017 11.5428 10.3625 11.5428H10.8946C10.9173 11.6215 10.9401 11.6972 10.9657 11.7729L10.6044 12.1427C10.5218 12.2271 10.4592 12.3261 10.4166 12.4339H4.18523C2.9788 12.4339 2 13.4326 2 14.6672V16.7666C2 18.0012 2.9788 19 4.18239 19H19.8176C21.024 19 22 17.9983 22 16.7666V14.6672C22 13.4355 21.024 12.4339 19.8176 12.4339ZM4.99047 17.1306C4.73439 17.1306 4.52668 16.9181 4.52668 16.656C4.52668 16.3939 4.73439 16.1814 4.99047 16.1814C5.24655 16.1814 5.45426 16.3939 5.45426 16.656C5.45426 16.921 5.24655 17.1306 4.99047 17.1306ZM6.71191 17.1306C6.45583 17.1306 6.24812 16.9181 6.24812 16.656C6.24812 16.3939 6.45583 16.1814 6.71191 16.1814C6.96799 16.1814 7.1757 16.3939 7.1757 16.656C7.1757 16.921 6.96799 17.1306 6.71191 17.1306ZM8.37644 17.1306C8.12036 17.1306 7.91265 16.9181 7.91265 16.656C7.91265 16.3939 8.12036 16.1814 8.37644 16.1814C8.63252 16.1814 8.84023 16.3939 8.84023 16.656C8.84023 16.921 8.63252 17.1306 8.37644 17.1306ZM15.046 14.3877H13.9932V13.124C13.5038 13.0686 13.0798 12.9376 12.7298 12.7221L11.9474 13.5229L11.2047 12.76L11.9872 11.9592C11.7795 11.6098 11.6458 11.1789 11.5945 10.6664H10.3597V9.58902H11.5945C11.6486 9.07654 11.7823 8.64559 11.9872 8.29617L11.2047 7.49542L11.9474 6.73544L12.7298 7.53619C13.0798 7.32072 13.5009 7.18677 13.9932 7.13436V5.87063H15.046V7.13436C15.5354 7.18968 15.9593 7.32072 16.3093 7.53619L17.0918 6.73544L17.8372 7.49542L17.0519 8.29908C17.2596 8.6485 17.3934 9.07945 17.4446 9.59193H18.6795V10.6693H17.4446C17.3905 11.1818 17.2568 11.6127 17.0519 11.9621L17.8344 12.7629L17.0889 13.5229L16.3064 12.7221C15.9565 12.9376 15.5354 13.0715 15.0431 13.124L15.046 14.3877ZM18.6026 17.2762H15.9052C15.5723 17.2762 15.302 16.9996 15.302 16.6589C15.302 16.3182 15.5723 16.0416 15.9052 16.0416H18.6026C18.9356 16.0416 19.2059 16.3182 19.2059 16.6589C19.2059 16.9996 18.9356 17.2762 18.6026 17.2762Z" fill="#86888C"/>
<path d="M14.5196 8.61648C15.4557 8.61648 15.9963 9.09401 15.9963 10.1277C15.9963 11.1614 15.4557 11.6389 14.5196 11.6389C13.5834 11.6389 13.0428 11.1614 13.0428 10.1277C13.0428 9.09401 13.5834 8.61648 14.5196 8.61648Z" fill="#86888C"/>
</svg>
