<svg width="40" height="40" viewBox="0 0 40 40" fill="none" xmlns="http://www.w3.org/2000/svg">
<path d="M34.0717 20.7438H31.9257C31.8489 20.5591 31.7311 20.3893 31.5877 20.2446L30.9373 19.6106C30.9834 19.4809 31.0294 19.3511 31.0653 19.2163H32.023C32.8732 19.2163 33.5595 18.5474 33.5595 17.7188V15.8719C33.5595 15.0433 32.8732 14.3744 32.023 14.3744H31.0653C31.0243 14.2396 30.9834 14.1098 30.9373 13.98L31.5877 13.3461C32.1869 12.7621 32.1869 11.8136 31.5877 11.2296L30.2458 9.9218C29.6466 9.33777 28.6735 9.33777 28.0743 9.9218L27.4238 10.5557C27.2907 10.5108 27.1575 10.4659 27.0192 10.4309V9.4975C27.0192 8.66889 26.3329 8 25.4827 8H23.5877C22.7375 8 22.0512 8.66889 22.0512 9.4975V10.4309C21.9129 10.4709 21.7798 10.5108 21.6466 10.5557L20.9962 9.9218C20.3969 9.33777 19.4238 9.33777 18.8246 9.9218L17.4878 11.2296C16.8886 11.8136 16.8886 12.7621 17.4878 13.3461L18.1383 13.98C18.0922 14.1098 18.0461 14.2396 18.0102 14.3744H17.0525C16.2023 14.3744 15.516 15.0433 15.516 15.8719V17.7188C15.516 18.5474 16.2023 19.2163 17.0525 19.2163H18.0102C18.0512 19.3511 18.0922 19.4809 18.1383 19.6106L17.4878 20.2446C17.3393 20.3893 17.2266 20.5591 17.1498 20.7438H5.93342C3.76184 20.7438 2 22.4559 2 24.5724V28.1714C2 30.2879 3.76184 32 5.9283 32H34.0717C36.2433 32 38 30.2829 38 28.1714V24.5724C38 22.4609 36.2433 20.7438 34.0717 20.7438ZM7.38284 28.7953C6.9219 28.7953 6.54802 28.4309 6.54802 27.9817C6.54802 27.5324 6.9219 27.1681 7.38284 27.1681C7.84379 27.1681 8.21767 27.5324 8.21767 27.9817C8.21767 28.4359 7.84379 28.7953 7.38284 28.7953ZM10.4814 28.7953C10.0205 28.7953 9.64661 28.4309 9.64661 27.9817C9.64661 27.5324 10.0205 27.1681 10.4814 27.1681C10.9424 27.1681 11.3163 27.5324 11.3163 27.9817C11.3163 28.4359 10.9424 28.7953 10.4814 28.7953ZM13.4776 28.7953C13.0166 28.7953 12.6428 28.4309 12.6428 27.9817C12.6428 27.5324 13.0166 27.1681 13.4776 27.1681C13.9385 27.1681 14.3124 27.5324 14.3124 27.9817C14.3124 28.4359 13.9385 28.7953 13.4776 28.7953ZM25.4827 24.0932H23.5877V21.9268C22.7068 21.8319 21.9437 21.6073 21.3137 21.2379L19.9052 22.6106L18.5685 21.3028L19.977 19.9301C19.6031 19.3311 19.3624 18.5923 19.2702 17.7138H17.0474V15.8669H19.2702C19.3675 14.9884 19.6082 14.2496 19.977 13.6506L18.5685 12.2779L19.9052 10.975L21.3137 12.3478C21.9437 11.9784 22.7017 11.7488 23.5877 11.6589V9.49251H25.4827V11.6589C26.3636 11.7537 27.1268 11.9784 27.7567 12.3478L29.1652 10.975L30.507 12.2779L29.0935 13.6556C29.4674 14.2546 29.7081 14.9933 29.8003 15.8719H32.023V17.7188H29.8003C29.7029 18.5973 29.4622 19.3361 29.0935 19.9351L30.5019 21.3078L29.1601 22.6106L27.7516 21.2379C27.1216 21.6073 26.3636 21.8369 25.4776 21.9268L25.4827 24.0932ZM31.8848 29.0449H27.0295C26.4302 29.0449 25.9437 28.5707 25.9437 27.9867C25.9437 27.4027 26.4302 26.9285 27.0295 26.9285H31.8848C32.484 26.9285 32.9706 27.4027 32.9706 27.9867C32.9706 28.5707 32.484 29.0449 31.8848 29.0449Z" fill="#86888C"/>
<path d="M24.5352 14.1997C26.2202 14.1997 27.1933 15.0183 27.1933 16.7904C27.1933 18.5624 26.2202 19.381 24.5352 19.381C22.8502 19.381 21.8771 18.5624 21.8771 16.7904C21.8771 15.0183 22.8502 14.1997 24.5352 14.1997Z" fill="#86888C"/>
</svg>
