<svg width="24" height="24" viewBox="0 0 24 24" fill="none" xmlns="http://www.w3.org/2000/svg">
<path d="M12.0014 2C5.65788 2 2 5.15894 2 11.9986C2 18.8382 5.65788 22 12.0014 22C18.345 22 22.0029 18.8382 22.0029 11.9986C22.0029 5.15894 18.3421 2 12.0014 2ZM10.6358 11.9986C10.6358 12.2181 10.6158 12.4234 10.5816 12.6172L13.273 13.9629C13.3443 13.8689 13.4212 13.7776 13.5068 13.6978C13.9316 13.2958 14.5388 13.082 15.2602 13.082C15.9815 13.082 16.5916 13.2958 17.0135 13.6978C17.4697 14.1311 17.7006 14.7498 17.7006 15.5339C17.7006 16.2865 17.4868 16.8852 17.0649 17.3158C16.6372 17.7548 16.0128 17.9857 15.2573 17.9857C14.5018 17.9857 13.8774 17.7548 13.4497 17.3158C13.0278 16.8852 12.814 16.2837 12.814 15.5339C12.814 15.3571 12.8254 15.1889 12.851 15.0292L10.1083 13.6579C10.0741 13.7006 10.0371 13.7434 9.99715 13.7833C9.56949 14.2224 8.94512 14.4533 8.18959 14.4533C7.43407 14.4533 6.80969 14.2224 6.38204 13.7833C5.96009 13.3528 5.74626 12.7512 5.74626 12.0014C5.74626 11.2174 5.97719 10.5987 6.43336 10.1654C6.85816 9.76336 7.46543 9.54954 8.18674 9.54954C8.90805 9.54954 9.51818 9.76336 9.94013 10.1654C10 10.2224 10.057 10.2823 10.1083 10.3478L12.8482 8.97933C12.8254 8.81682 12.8111 8.64861 12.8111 8.469C12.8111 7.68496 13.0421 7.06629 13.4982 6.63293C13.923 6.23093 14.5303 6.01711 15.2516 6.01711C15.9729 6.01711 16.583 6.23093 17.005 6.63293C17.4612 7.06629 17.6921 7.68496 17.6921 8.469C17.6921 9.22167 17.4783 9.82038 17.0563 10.2509C16.6287 10.6899 16.0043 10.9209 15.2488 10.9209C14.4932 10.9209 13.8689 10.6899 13.4412 10.2509C13.3785 10.1853 13.3186 10.114 13.2644 10.0428L10.5702 11.3913C10.6187 11.5795 10.6358 11.7819 10.6358 11.9986Z" fill="#86888C"/>
</svg>
