<svg width="28" height="28" viewBox="0 0 28 28" fill="none" xmlns="http://www.w3.org/2000/svg">
<path fill-rule="evenodd" clip-rule="evenodd" d="M13.9966 2C21.8475 2 26 6.15253 26 14.0034C26 21.8509 21.8475 26 13.9966 26C6.14912 26 2 21.8509 2 14.0034C2 6.15253 6.14912 2 13.9966 2ZM16.3392 6.9687C16.0968 6.77063 15.7655 6.72965 15.4821 6.86625C15.2055 6.9926 15.0279 7.26921 15.0279 7.57655V8.81958H10.5373C10.2231 8.81958 9.92943 8.94252 9.70746 9.16107C9.48549 9.37962 9.36255 9.68014 9.36596 9.99089V20.2869C9.36596 20.5635 9.59135 20.7854 9.86454 20.7854H13.4741C13.7507 20.7854 13.9727 20.56 13.9727 20.2869V13.6448H15.0313V14.8776C15.0313 15.1816 15.2089 15.4582 15.4821 15.5879C15.7655 15.7211 16.0933 15.6836 16.3768 15.4513L20.1161 11.8315C20.2937 11.6813 20.3961 11.4627 20.3995 11.2305C20.403 11.012 20.3073 10.8036 20.1468 10.6568L16.3392 6.9687Z" fill="#86888C"/>
</svg>
