<svg width="20" height="20" viewBox="0 0 20 20" fill="none" xmlns="http://www.w3.org/2000/svg">
<path fill-rule="evenodd" clip-rule="evenodd" d="M15.6581 3C17.1591 3 18.3804 4.17588 18.3804 5.62186V12.9076C18.3804 14.3536 17.1591 15.5295 15.6581 15.5295H7.65907L6.08817 17.4691C5.90404 17.7066 5.56376 18 5.01371 18C4.30517 18 3.70851 17.4342 3.70851 16.7659V15.3642C2.676 14.9916 1.99077 14.0067 2.00009 12.9076V5.62186C2.00009 4.17588 3.22139 3 4.7247 3H15.6581ZM5.91104 8.79789C5.33069 8.57436 5.09295 8.44629 5.09295 8.08072C5.09295 7.92471 5.09295 7.60106 5.84578 7.60106C6.14877 7.60106 6.3865 7.65461 6.57995 7.71049C6.66619 7.73611 6.75942 7.72446 6.83866 7.68022C6.91557 7.63598 6.97384 7.5638 6.99715 7.47765L7.04143 7.30767C7.08339 7.13769 6.98083 6.96538 6.81069 6.92114C5.92968 6.672 5.11393 6.73486 4.65711 7.12605C4.38209 7.35889 4.23758 7.69885 4.23758 8.10633C4.23758 9.05402 5.00439 9.34974 5.56143 9.56628C6.16275 9.79913 6.40748 9.93185 6.40748 10.33C6.40748 10.5792 6.30959 10.6979 6.22335 10.7515C6.13245 10.812 5.94133 10.8842 5.55444 10.8842C5.25144 10.8842 4.95078 10.8376 4.65478 10.7468C4.56621 10.7189 4.47065 10.7282 4.38908 10.7748C4.30983 10.8167 4.25157 10.8912 4.22826 10.9797L4.18397 11.1543C4.14435 11.315 4.23525 11.478 4.38908 11.5315C4.63846 11.6223 5.09528 11.7155 5.5591 11.7155C6.64521 11.7155 7.26984 11.2079 7.26984 10.323C7.26984 9.32179 6.48439 9.01909 5.91104 8.79789ZM12.0129 6.85129H11.838C11.7145 6.85129 11.6026 6.91649 11.542 7.0236L10.1856 9.50574L8.86405 7.0236C8.80579 6.91416 8.69158 6.84896 8.56805 6.84896H8.37926C8.19514 6.84896 8.04597 6.99332 8.04597 7.17262V11.3057C8.04597 11.4826 8.19514 11.6293 8.37926 11.6293H8.5564C8.74052 11.6293 8.88969 11.4849 8.88969 11.3057V8.85843L9.78469 10.5419C9.84295 10.6514 9.95716 10.7165 10.0807 10.7165H10.2695C10.393 10.7165 10.5049 10.6514 10.5655 10.5442L11.5048 8.82583V11.3057C11.5048 11.4849 11.6539 11.6293 11.838 11.6293H12.0129C12.197 11.6293 12.3461 11.4849 12.3461 11.3057V7.17495C12.3438 6.99333 12.1946 6.84896 12.0129 6.85129ZM14.8447 8.79789C14.2643 8.57436 14.0289 8.44629 14.0289 8.08072C14.0289 7.92471 14.0289 7.60106 14.7817 7.60106C15.0847 7.60106 15.3225 7.65461 15.5159 7.71049C15.6022 7.73611 15.6977 7.72446 15.777 7.68022C15.8539 7.63598 15.9121 7.5638 15.9331 7.47765L15.9774 7.30767C16.0194 7.13769 15.9168 6.96538 15.7467 6.92114C14.8656 6.672 14.0499 6.73486 13.5931 7.12605C13.3181 7.35889 13.1735 7.69885 13.1735 8.10633C13.1735 9.05402 13.9404 9.34974 14.4974 9.56628C15.0987 9.79913 15.3434 9.93185 15.3434 10.33C15.3434 10.5792 15.2456 10.6979 15.157 10.7515C15.0661 10.812 14.875 10.8842 14.4881 10.8842C14.1874 10.8842 13.8844 10.8376 13.5884 10.7468C13.4998 10.7189 13.4043 10.7282 13.3227 10.7748C13.2435 10.8167 13.1852 10.8912 13.1619 10.9797L13.1176 11.1543C13.078 11.315 13.1689 11.478 13.3227 11.5315C13.5721 11.6223 14.0289 11.7155 14.4927 11.7155C15.5788 11.7155 16.2035 11.2079 16.2035 10.323C16.2035 9.32179 15.418 9.01909 14.8447 8.79789Z" fill="#86888C"/>
</svg>
