<svg width="20" height="20" viewBox="0 0 20 20" fill="none" xmlns="http://www.w3.org/2000/svg">
<path fill-rule="evenodd" clip-rule="evenodd" d="M17.1328 10.4456C17.3468 10.3795 17.5084 10.1883 17.5084 9.95163C17.5084 9.74223 17.3832 9.56242 17.2056 9.4782L17.8429 8.84089C18.0478 8.63603 18.0478 8.30372 17.8429 8.09887C17.6381 7.89402 17.3058 7.89402 17.1009 8.09887L15.7717 9.42812H15.3415L15.5076 9.26197C15.7125 9.05712 15.7125 8.7248 15.5076 8.51995C15.3028 8.3151 14.9705 8.3151 14.7656 8.51995L13.8575 9.42812H11.3036L13.8757 6.85611H15.6032C15.8946 6.85611 16.129 6.62167 16.129 6.33032C16.129 6.04125 15.8946 5.80454 15.6032 5.80454H14.8271C14.8794 5.627 14.843 5.4267 14.7019 5.28786C14.5767 5.16267 14.406 5.12398 14.2421 5.15129V4.44342C14.2421 4.15435 14.0077 3.91763 13.7163 3.91763C13.425 3.91763 13.1906 4.15207 13.1906 4.44342V6.05491L10.5252 8.72025V6.22334L11.4971 5.24916C11.702 5.04431 11.702 4.712 11.4971 4.50715C11.2923 4.3023 10.96 4.3023 10.7551 4.50715L10.5252 4.73704V4.27043L11.9 2.89565C12.1048 2.6908 12.1048 2.35849 11.9 2.15364C11.6951 1.94879 11.3628 1.94879 11.158 2.15364L10.4956 2.81827C10.4296 2.60203 10.2361 2.44271 10.0017 2.44271C9.76499 2.44271 9.57152 2.60203 9.50779 2.81827L8.84544 2.15364C8.64059 1.94879 8.30827 1.94879 8.10342 2.15364C7.89857 2.35849 7.89857 2.6908 8.10342 2.89565L9.4782 4.27043V4.64372L9.33936 4.50715C9.1345 4.3023 8.80219 4.3023 8.59734 4.50715C8.39249 4.712 8.39249 5.04431 8.59734 5.24916L9.4782 6.13002V8.68383L6.90618 6.11181V4.44114C6.90618 4.15207 6.67174 3.91536 6.3804 3.91536C6.08905 3.91536 5.85461 4.1498 5.85461 4.44114V5.1604C5.67707 5.10804 5.47905 5.14674 5.33793 5.28558C5.19681 5.4267 5.1604 5.62472 5.21275 5.80226H4.49349C4.20215 5.80226 3.96771 6.0367 3.96771 6.32805C3.96771 6.61711 4.20215 6.85383 4.49349 6.85383H6.16417L8.73618 9.42585H6.23245L5.32428 8.51768C5.11943 8.31282 4.78711 8.31282 4.58226 8.51768C4.37741 8.72253 4.37741 9.05484 4.58226 9.25969L4.74842 9.42585H4.22491L2.89565 8.09659C2.6908 7.89174 2.35849 7.89174 2.15364 8.09659C1.94879 8.30144 1.94879 8.63376 2.15364 8.83861L2.79323 9.47592C2.61569 9.56014 2.48823 9.73768 2.48823 9.94936C2.48823 10.1861 2.64756 10.3795 2.86379 10.4433L2.15364 11.1534C1.94879 11.3583 1.94879 11.6906 2.15364 11.8954C2.25606 11.9979 2.39035 12.0502 2.52465 12.0502C2.65894 12.0502 2.79323 11.9979 2.89565 11.8954L4.31595 10.4751H4.78256L4.57998 10.6777C4.37513 10.8826 4.37513 11.2149 4.57998 11.4197C4.68241 11.5222 4.8167 11.5722 4.95099 11.5722C5.08528 11.5722 5.21957 11.5222 5.322 11.4197L6.26659 10.4751H8.7635L6.09588 13.1428H4.48439C4.19304 13.1428 3.9586 13.3772 3.9586 13.6685C3.9586 13.9576 4.19304 14.1943 4.48439 14.1943H5.19226C5.16495 14.3559 5.20364 14.5289 5.32883 14.6541C5.43125 14.7565 5.56555 14.8089 5.69984 14.8089C5.74991 14.8089 5.79771 14.7952 5.84551 14.7793V15.5577C5.84551 15.8468 6.07995 16.0835 6.37129 16.0835C6.66264 16.0835 6.89708 15.8491 6.89708 15.5577V13.8301L9.46909 11.2581V13.8119L8.58824 14.6928C8.38338 14.8976 8.38338 15.23 8.58824 15.4348C8.79309 15.6397 9.1254 15.6397 9.33025 15.4348L9.46909 15.2982V15.7284L8.09432 17.1032C7.88947 17.3081 7.88947 17.6404 8.09432 17.8452C8.29917 18.0501 8.63148 18.0501 8.83633 17.8452L9.52145 17.1601C9.60566 17.3376 9.7832 17.4628 9.99488 17.4628C10.2043 17.4628 10.3818 17.3376 10.466 17.1601L11.1511 17.8452C11.2536 17.9476 11.3879 18 11.5222 18C11.6564 18 11.7907 17.9499 11.8932 17.8452C12.098 17.6404 12.098 17.3081 11.8932 17.1032L10.5184 15.7284V15.2049L10.7483 15.4348C10.8507 15.5372 10.985 15.5896 11.1193 15.5896C11.2536 15.5896 11.3879 15.5395 11.4903 15.4348C11.6951 15.23 11.6951 14.8976 11.4903 14.6928L10.5184 13.7186V11.2172L13.1837 13.8848V15.5554C13.1837 15.8445 13.4182 16.0812 13.7095 16.0812C14.0009 16.0812 14.2353 15.8468 14.2353 15.5554V14.7884C14.2649 14.7929 14.2945 14.8066 14.3241 14.8066C14.4584 14.8066 14.5926 14.7543 14.6951 14.6518C14.8203 14.5266 14.8612 14.3537 14.8316 14.192H15.5964C15.8878 14.192 16.1222 13.9576 16.1222 13.6663C16.1222 13.3749 15.8878 13.1405 15.5964 13.1405H13.928L11.2604 10.4729H13.8142L14.7588 11.4175C14.8612 11.5199 14.9955 11.57 15.1298 11.57C15.2641 11.57 15.3984 11.5199 15.5008 11.4175C15.7057 11.2126 15.7057 10.8803 15.5008 10.6754L15.2982 10.4729H15.6715L17.0918 11.8932C17.1943 11.9956 17.3285 12.0479 17.4628 12.0479C17.5971 12.0479 17.7314 11.9956 17.8338 11.8932C18.0387 11.6883 18.0387 11.356 17.8338 11.1511L17.1328 10.4456Z" fill="#86888C"/>
</svg>
