<svg width="40" height="40" viewBox="0 0 40 40" fill="none" xmlns="http://www.w3.org/2000/svg">
<path fill-rule="evenodd" clip-rule="evenodd" d="M36.0488 21.0025C36.5302 20.854 36.8938 20.4238 36.8938 19.8912C36.8938 19.42 36.6121 19.0154 36.2127 18.8259L37.6466 17.392C38.1075 16.9311 38.1075 16.1834 37.6466 15.7225C37.1857 15.2615 36.438 15.2615 35.9771 15.7225L32.9863 18.7133H32.0184L32.3922 18.3394C32.8531 17.8785 32.8531 17.1308 32.3922 16.6699C31.9313 16.209 31.1836 16.209 30.7227 16.6699L28.6793 18.7133H22.9332L28.7203 12.9262H32.6073C33.2628 12.9262 33.7903 12.3987 33.7903 11.7432C33.7903 11.0928 33.2628 10.5602 32.6073 10.5602H30.8609C30.9787 10.1608 30.8968 9.71008 30.5793 9.39768C30.2976 9.11601 29.9135 9.02895 29.5448 9.0904V7.49769C29.5448 6.84729 29.0173 6.31467 28.3618 6.31467C27.7062 6.31467 27.1787 6.84216 27.1787 7.49769V11.1236L21.1817 17.1206V11.5025L23.3685 9.31062C23.8294 8.8497 23.8294 8.102 23.3685 7.64108C22.9076 7.18017 22.1599 7.18017 21.699 7.64108L21.1817 8.15833V7.10847L24.275 4.01522C24.7359 3.55431 24.7359 2.8066 24.275 2.34569C23.8141 1.88477 23.0664 1.88477 22.6054 2.34569L21.1152 3.8411C20.9666 3.35458 20.5313 2.99609 20.0038 2.99609C19.4712 2.99609 19.0359 3.35458 18.8925 3.8411L17.4022 2.34569C16.9413 1.88477 16.1936 1.88477 15.7327 2.34569C15.2718 2.8066 15.2718 3.55431 15.7327 4.01522L18.8259 7.10847V7.94836L18.5136 7.64108C18.0526 7.18017 17.3049 7.18017 16.844 7.64108C16.3831 8.102 16.3831 8.8497 16.844 9.31062L18.8259 11.2926V17.0386L13.0389 11.2516V7.49257C13.0389 6.84216 12.5114 6.30955 11.8559 6.30955C11.2004 6.30955 10.6729 6.83704 10.6729 7.49257V9.11089C10.2734 8.9931 9.82787 9.08016 9.51035 9.39256C9.19283 9.71008 9.11089 10.1556 9.22868 10.5551H7.61036C6.95483 10.5551 6.42734 11.0826 6.42734 11.7381C6.42734 12.3885 6.95483 12.9211 7.61036 12.9211H11.3694L17.1564 18.7082H11.523L9.47962 16.6648C9.01871 16.2039 8.271 16.2039 7.81009 16.6648C7.34917 17.1257 7.34917 17.8734 7.81009 18.3343L8.18394 18.7082H7.00605L4.01522 15.7173C3.55431 15.2564 2.8066 15.2564 2.34569 15.7173C1.88477 16.1782 1.88477 16.926 2.34569 17.3869L3.78476 18.8208C3.3853 19.0103 3.09851 19.4098 3.09851 19.8861C3.09851 20.4187 3.457 20.854 3.94352 20.9974L2.34569 22.5952C1.88477 23.0561 1.88477 23.8038 2.34569 24.2647C2.57614 24.4952 2.8783 24.613 3.18045 24.613C3.48261 24.613 3.78476 24.4952 4.01522 24.2647L7.2109 21.0691H8.26076L7.80496 21.5249C7.34405 21.9858 7.34405 22.7335 7.80496 23.1944C8.03542 23.4249 8.33758 23.5375 8.63973 23.5375C8.94189 23.5375 9.24404 23.4249 9.4745 23.1944L11.5998 21.0691H17.2179L11.2157 27.0712H7.58987C6.93435 27.0712 6.40686 27.5987 6.40686 28.2542C6.40686 28.9046 6.93435 29.4372 7.58987 29.4372H9.18259C9.12113 29.8008 9.20819 30.1901 9.48986 30.4717C9.72032 30.7022 10.0225 30.82 10.3246 30.82C10.4373 30.82 10.5448 30.7892 10.6524 30.7534V32.5049C10.6524 33.1553 11.1799 33.6879 11.8354 33.6879C12.4909 33.6879 13.0184 33.1604 13.0184 32.5049V28.6178L18.8055 22.8308V28.5769L16.8235 30.5588C16.3626 31.0197 16.3626 31.7674 16.8235 32.2283C17.2844 32.6892 18.0322 32.6892 18.4931 32.2283L18.8055 31.921V32.889L15.7122 35.9822C15.2513 36.4431 15.2513 37.1908 15.7122 37.6518C16.1731 38.1127 16.9208 38.1127 17.3817 37.6518L18.9233 36.1102C19.1127 36.5097 19.5122 36.7914 19.9885 36.7914C20.4596 36.7914 20.8591 36.5097 21.0486 36.1102L22.5901 37.6518C22.8205 37.8822 23.1227 38 23.4249 38C23.727 38 24.0292 37.8873 24.2596 37.6518C24.7205 37.1908 24.7205 36.4431 24.2596 35.9822L21.1664 32.889V31.7111L21.6836 32.2283C21.9141 32.4588 22.2162 32.5766 22.5184 32.5766C22.8205 32.5766 23.1227 32.4639 23.3532 32.2283C23.8141 31.7674 23.8141 31.0197 23.3532 30.5588L21.1664 28.3669V22.7386L27.1634 28.7407V32.4998C27.1634 33.1502 27.6909 33.6828 28.3464 33.6828C29.0019 33.6828 29.5294 33.1553 29.5294 32.4998V30.7739C29.596 30.7841 29.6626 30.8149 29.7291 30.8149C30.0313 30.8149 30.3335 30.6971 30.5639 30.4666C30.8456 30.1849 30.9378 29.7957 30.8712 29.4321H32.5919C33.2475 29.4321 33.775 28.9046 33.775 28.2491C33.775 27.5936 33.2475 27.0661 32.5919 27.0661H28.838L22.8359 21.0639H28.582L30.7073 23.1893C30.9378 23.4197 31.2399 23.5324 31.5421 23.5324C31.8442 23.5324 32.1464 23.4197 32.3768 23.1893C32.8378 22.7284 32.8378 21.9807 32.3768 21.5197L31.921 21.0639H32.7609L35.9566 24.2596C36.1871 24.4901 36.4892 24.6079 36.7914 24.6079C37.0935 24.6079 37.3957 24.4901 37.6261 24.2596C38.0871 23.7987 38.0871 23.051 37.6261 22.5901L36.0488 21.0025Z" fill="#86888C"/>
</svg>
