<svg width="24" height="24" viewBox="0 0 24 24" fill="none" xmlns="http://www.w3.org/2000/svg">
<path fill-rule="evenodd" clip-rule="evenodd" d="M20.0302 5C18.9433 5 18.0613 5.87917 18.0584 6.96605C18.0584 7.4412 18.2348 7.87367 18.5193 8.21225L16.0895 12.2752C15.9387 12.2382 15.7879 12.2183 15.6343 12.2183C15.0624 12.2183 14.5503 12.4687 14.1918 12.8585L9.99791 11.0205C10.0008 10.9664 10.015 10.9152 10.015 10.8583C10.015 9.77428 9.13297 8.89226 8.04325 8.89226C6.95637 8.89226 6.07436 9.77143 6.07151 10.8583C6.07151 11.342 6.26214 11.7972 6.57511 12.1529L4.33593 16.1049C4.21643 16.0821 4.09408 16.0679 3.97174 16.0679C2.88486 16.0679 2.00285 16.9471 2 18.034C2.00285 19.118 2.88486 20 3.97458 20C5.06146 20 5.94348 19.1208 5.94632 18.034C5.94632 17.5332 5.75285 17.0836 5.44272 16.7365L7.6876 12.7788C7.80425 12.8016 7.92375 12.8244 8.04325 12.8244C8.61514 12.8244 9.12728 12.574 9.48862 12.1842L13.6796 14.0193C13.6768 14.0734 13.6626 14.1246 13.6626 14.1815C13.6626 15.2684 14.5446 16.1533 15.6314 16.1533C16.7183 16.1533 17.6032 15.2712 17.6032 14.1844V14.1815C17.6032 13.7178 17.4353 13.2967 17.165 12.9609L19.6005 8.88373C19.7371 8.91502 19.8794 8.93494 20.0273 8.93494C21.1142 8.93494 21.9934 8.05577 21.9962 6.96889C21.9991 5.88202 21.117 5 20.0302 5Z" fill="#86888C"/>
</svg>
