<svg width="28" height="28" viewBox="0 0 28 28" fill="none" xmlns="http://www.w3.org/2000/svg">
<path fill-rule="evenodd" clip-rule="evenodd" d="M23.4342 7C22.2024 7 21.2028 7.9964 21.1995 9.22819C21.1995 9.76669 21.3995 10.2568 21.7219 10.6406L18.9681 15.2453C18.7972 15.2033 18.6263 15.1808 18.4522 15.1808C17.8041 15.1808 17.2236 15.4645 16.8173 15.9063L12.0643 13.8232C12.0675 13.7619 12.0836 13.7039 12.0836 13.6394C12.0836 12.4109 11.084 11.4112 9.84901 11.4112C8.61722 11.4112 7.6176 12.4076 7.61438 13.6394C7.61438 14.1876 7.83042 14.7035 8.18513 15.1066L5.64738 19.5855C5.51195 19.5597 5.37329 19.5436 5.23464 19.5436C4.00285 19.5436 3.00322 20.54 3 21.7718C3.00322 23.0004 4.00285 24 5.23786 24C6.46965 24 7.46927 23.0036 7.4725 21.7718C7.4725 21.2043 7.25322 20.6948 6.90174 20.3014L9.44594 15.816C9.57815 15.8418 9.71358 15.8676 9.84901 15.8676C10.4972 15.8676 11.0776 15.5838 11.4871 15.1421L16.2369 17.2219C16.2337 17.2832 16.2176 17.3412 16.2176 17.4057C16.2176 18.6375 17.2172 19.6404 18.449 19.6404C19.6808 19.6404 20.6836 18.6407 20.6836 17.409V17.4057C20.6836 16.8801 20.4934 16.4029 20.187 16.0224L22.9473 11.4016C23.102 11.437 23.2633 11.4596 23.431 11.4596C24.6627 11.4596 25.6591 10.4632 25.6624 9.23141C25.6656 7.99962 24.666 7 23.4342 7Z" fill="#86888C"/>
</svg>
