<svg width="40" height="40" viewBox="0 0 40 40" fill="none" xmlns="http://www.w3.org/2000/svg">
<path fill-rule="evenodd" clip-rule="evenodd" d="M18.8895 6.10675V7.90521H9.2926V6.10675C9.2926 5.49701 9.78448 5 10.3942 5H17.7879C18.3976 5 18.8895 5.49701 18.8895 6.10675ZM24.9459 29.9018C26.1654 29.9018 27.1543 28.9026 27.1543 27.6781C27.1543 26.4535 26.1654 25.4543 24.9459 25.4543C23.7264 25.4543 22.7375 26.4535 22.7375 27.6781C22.7375 28.9026 23.7264 29.9018 24.9459 29.9018ZM17.5625 29.9018C18.7819 29.9018 19.7708 28.9026 19.7708 27.6781C19.7708 26.4535 18.7768 25.4543 17.5625 25.4543C16.343 25.4543 15.3541 26.4535 15.3541 27.6781C15.3541 28.9026 16.3481 29.9018 17.5625 29.9018ZM10.179 29.9018C11.3985 29.9018 12.3874 28.9026 12.3874 27.6781C12.3874 26.4535 11.3985 25.4543 10.179 25.4543C8.95955 25.4543 7.97065 26.4535 7.97065 27.6781C7.97065 28.9026 8.96467 29.9018 10.179 29.9018ZM36.91 20.4278C37.5198 20.4278 38.0116 20.9248 38.0116 21.5346C38.0116 26.4022 36.7614 30.0555 34.2969 32.3971C31.7452 34.8258 28.7221 35 27.9075 35C27.7896 35 27.7179 34.9949 27.7025 34.9949H4.99883C3.2516 34.9949 2.54964 33.3911 2.4984 32.3151L2.00139 21.5448C1.98602 21.2425 2.09874 20.9453 2.3037 20.725C2.51377 20.5047 2.80071 20.3817 3.09789 20.3817L5.55733 20.3868L5.59319 15.9496C5.55733 15.5756 5.64443 15.0734 5.9826 14.6635C6.23879 14.351 6.73068 13.9718 7.62735 13.9616C7.86305 13.9564 8.47278 13.9564 9.28747 13.9513V10.1187H18.8844V13.9564C21.1133 13.9616 22.8451 13.9616 23.0449 13.9616C23.1269 13.9667 26.1602 13.854 28.302 15.924C29.46 17.041 30.0953 18.5628 30.2593 20.4176L36.91 20.4278ZM10.179 26.93C10.5889 26.93 10.922 27.263 10.922 27.6729C10.922 28.0828 10.5889 28.4159 10.179 28.4159C9.76911 28.4159 9.44119 28.0828 9.44119 27.6729C9.44119 27.263 9.77424 26.93 10.179 26.93ZM17.5625 26.93C17.9724 26.93 18.3003 27.263 18.3003 27.6729C18.3003 28.0828 17.9672 28.4159 17.5625 28.4159C17.1525 28.4159 16.8246 28.0828 16.8246 27.6729C16.8246 27.263 17.1577 26.93 17.5625 26.93ZM24.9459 26.93C25.3558 26.93 25.6888 27.263 25.6888 27.6729C25.6888 28.0828 25.3558 28.4159 24.9459 28.4159C24.536 28.4159 24.2081 28.0828 24.2081 27.6729C24.2081 27.263 24.536 26.93 24.9459 26.93Z" fill="#86888C"/>
</svg>
