<svg width="28" height="28" viewBox="0 0 28 28" fill="none" xmlns="http://www.w3.org/2000/svg">
<path d="M23.9638 2.00001H15.9354C14.8148 1.9966 13.9026 2.90129 13.8992 4.02106V8.94055C13.8992 10.1013 14.7294 10.9753 15.8295 10.9753H16.5093V12.6617C16.5093 13.1431 16.4068 13.604 16.868 13.6791C17.3293 13.7542 17.6914 13.2694 17.9681 12.9383C18.2448 12.6071 19.0238 11.8151 19.7515 10.9753L23.9638 10.9855C25.0878 10.9855 25.9966 10.074 26 8.95079V4.03472C25.9966 2.91153 25.0878 2.00001 23.9638 2.00001ZM20.158 9.65406C19.8027 9.65406 19.5157 9.36729 19.5157 9.01224C19.5157 8.65719 19.8027 8.37042 20.158 8.37042C20.5133 8.37042 20.8003 8.65719 20.8003 9.01224C20.8003 9.36729 20.5099 9.65406 20.158 9.65406ZM21.2342 6.25719C21.1078 6.38351 20.7661 6.61224 20.7661 6.88877V7.1414C20.7661 7.48621 20.4996 7.76615 20.1546 7.76615C19.8095 7.76615 19.5431 7.48621 19.5431 7.1414V6.88877C19.5431 6.23329 19.9701 5.85093 20.2571 5.5744C20.3698 5.46516 20.6534 5.28422 20.6534 5.02135C20.6534 4.85406 20.5577 4.49218 20.1512 4.49218C19.7446 4.49218 19.5396 4.81992 19.5396 5.01452C19.5465 5.3525 19.28 5.63244 18.9452 5.63927C18.607 5.6461 18.3268 5.37981 18.32 5.04524V5.01793C18.32 3.99716 19.0306 3.33486 20.1512 3.33486C21.2 3.33486 21.9038 4.20883 21.9038 5.02476C21.9106 5.71779 21.5348 5.95676 21.2342 6.25719ZM9.88498 18.462C11.2686 18.462 12.3414 18.0694 13.0725 17.2945C13.7626 16.5639 14.1144 15.5329 14.1144 14.2322C14.1144 12.9314 13.7626 11.9038 13.0725 11.1698C12.3414 10.3949 11.2686 10.0023 9.88498 10.0023C8.50135 10.0023 7.42861 10.3949 6.69751 11.1698C6.0074 11.9004 5.65552 12.9314 5.65552 14.2322C5.65552 15.5329 6.0074 16.5605 6.69751 17.2945C7.42861 18.0694 8.50135 18.462 9.88498 18.462ZM13.069 19.6637H6.70093C5.16356 19.6637 3.98149 20.0666 3.19231 20.8654C2.40313 21.6643 2 22.8455 2 24.3886V25.6586C2 25.8464 2.15374 26 2.34164 26H17.4283C17.6162 26 17.77 25.8464 17.77 25.6586V24.3886C17.77 22.8455 17.3702 21.6575 16.5777 20.862C15.7851 20.0666 14.6064 19.6637 13.069 19.6637Z" fill="#86888C"/>
</svg>
