<svg width="28" height="28" viewBox="0 0 28 28" fill="none" xmlns="http://www.w3.org/2000/svg">
<path fill-rule="evenodd" clip-rule="evenodd" d="M25.3546 14.7686C25.7849 15.1921 26 15.8136 26 16.6093V21.6258C26 22.4249 25.7849 23.0498 25.3546 23.4801C24.9106 23.9274 24.2516 24.1528 23.391 24.1528L12.3745 24.1596C11.5174 24.1596 10.8583 23.9342 10.4109 23.4869C9.98406 23.0566 9.76551 22.4351 9.76551 21.6326V16.6161C9.76551 15.817 9.98406 15.1989 10.4109 14.772C10.8549 14.3349 11.5139 14.113 12.3711 14.113L23.3876 14.1061C24.2516 14.1095 24.9141 14.3315 25.3546 14.7686ZM25.1429 24.8529C25.5561 24.8529 25.8873 25.1773 25.8873 25.5768C25.8873 25.9764 25.5526 26.3008 25.1429 26.3008H10.7558C10.3426 26.3008 10.0114 25.9764 10.0114 25.5768C10.0114 25.1773 10.346 24.8529 10.7558 24.8529H25.1429ZM12.1423 13.5119C10.428 13.5119 9.07228 13.0373 8.11269 12.105C7.11554 11.1317 6.60672 9.72138 6.60672 7.9149C6.60672 6.10841 7.11212 4.69805 8.10928 3.71797C9.06887 2.77887 10.4246 2.30078 12.1389 2.30078C13.8532 2.30078 15.2123 2.77545 16.1753 3.71455C17.1793 4.69463 17.6881 6.10499 17.6881 7.91148C17.6881 9.71797 17.1793 11.1283 16.1753 12.105C15.2157 13.0373 13.8566 13.5119 12.1423 13.5119ZM9.48549 14.574C9.10302 15.1306 8.90495 15.8272 8.90495 16.6605V21.677C8.90495 22.4385 9.07228 23.0873 9.38987 23.6269H3.31816C2.59078 23.6269 2 23.0532 2 22.3497V20.7276C2 18.986 2.57029 17.4869 3.65282 16.3941C4.82413 15.2057 6.54183 14.5808 8.6181 14.5808H9.48549V14.574Z" fill="#86888C"/>
</svg>
