<svg width="40" height="40" viewBox="0 0 40 40" fill="none" xmlns="http://www.w3.org/2000/svg">
<path fill-rule="evenodd" clip-rule="evenodd" d="M26.4013 9.51736H13.5836V6.20411C13.5836 5.43085 13.7525 4.87267 14.0905 4.56029C14.5156 4.1711 15.1301 4.20695 15.2376 4.21207L24.7216 4.20695C25.2695 4.20695 25.6638 4.34009 25.9301 4.62174C26.3603 5.07751 26.4166 5.88149 26.4013 6.2246V9.51736ZM24.8496 29.3968C24.8496 30.0062 24.358 30.4978 23.7486 30.4978C23.1443 30.4978 22.6476 30.0062 22.6476 29.3968V18.1308C22.6476 17.5214 23.1392 17.0298 23.7486 17.0298C24.3529 17.0298 24.8496 17.5214 24.8496 18.1308V29.3968ZM17.3372 29.3968C17.3372 30.0062 16.8456 30.4978 16.2362 30.4978C15.6268 30.4978 15.1352 30.0062 15.1352 29.3968V18.1308C15.1352 17.5214 15.6268 17.0298 16.2362 17.0298C16.8456 17.0298 17.3372 17.5214 17.3372 18.1308V29.3968ZM36.8889 9.51736H28.5981V6.29629C28.6135 6.10169 28.6954 4.36058 27.5432 3.12643C27.067 2.61434 26.1913 2.00495 24.7216 2.00495L15.3452 2.01519C15.1864 1.98958 13.7628 1.88716 12.6311 2.91647C11.8066 3.66413 11.3867 4.77025 11.3867 6.20411V9.51736H3.101C2.49161 9.51736 2 10.009 2 10.6184C2 11.2277 2.49161 11.7194 3.101 11.7194H5.76389L5.76901 31.988C5.76389 32.0904 5.61538 34.5434 7.2592 36.2999C8.30899 37.4213 9.80431 37.9949 11.6991 37.9949H28.2294C28.2397 37.9949 28.2806 38 28.3472 38C28.8798 38 31.0101 37.9027 32.572 36.4074C33.673 35.3525 34.2312 33.8828 34.2312 32.0392V11.7194H36.8941C37.4983 11.7194 37.9951 11.2277 37.9951 10.6184C37.9899 10.0141 37.4983 9.51736 36.8889 9.51736Z" fill="#86888C"/>
</svg>
