<svg width="40" height="40" viewBox="0 0 40 40" fill="none" xmlns="http://www.w3.org/2000/svg">
<path fill-rule="evenodd" clip-rule="evenodd" d="M25.4684 19.2573H13.5435V16.1377C13.5435 15.0415 14.1787 13.9044 15.2339 13.9044H23.7832C24.8384 13.9044 25.4735 15.0415 25.4735 16.1377C25.4684 16.1377 25.4684 19.2573 25.4684 19.2573ZM25.4684 30.2499C25.4684 31.5253 24.741 32.4832 23.7832 32.4832H15.2339C14.2709 32.4832 13.5435 31.5253 13.5435 30.2499V21.2396H25.4735V30.2499H25.4684ZM15.9869 9.28401H23.025V4.22823H15.9869V9.28401ZM27.7888 9.29937H25.2738V3.61355C25.2738 2.75299 24.4952 2 23.609 2H15.3978C14.4912 2 13.7331 2.73762 13.7331 3.61355V9.29937H11.218C10.0398 9.29937 9 10.4519 9 11.7684V34.4246C9 35.7666 10.0142 36.8987 11.218 36.8987H13.1952C13.3438 37.9027 14.2043 38 14.4502 38H14.5731C14.8088 37.9949 15.6796 37.9027 15.8281 36.8987H23.2453C23.3939 37.9027 24.2544 37.9949 24.5003 38H24.6232C24.8589 37.9949 25.7297 37.9027 25.8782 36.8987H27.7888C28.9926 36.8987 30.0068 35.7666 30.0068 34.4246V11.7684C30.0068 10.4519 28.9721 9.29937 27.7888 9.29937Z" fill="#86888C"/>
</svg>
