<svg width="20" height="20" viewBox="0 0 20 20" fill="none" xmlns="http://www.w3.org/2000/svg">
<path d="M12.8326 16.3672H7.76809C7.50837 16.3672 7.29588 16.1546 7.29588 15.8948C7.29588 15.635 7.50837 15.4225 7.76809 15.4225H12.8326C13.0923 15.4225 13.3048 15.635 13.3048 15.8948C13.3048 16.1546 13.0923 16.3672 12.8326 16.3672ZM18.5983 7.36423V11.528C18.5983 12.468 18.374 13.2001 17.9348 13.7055C17.4603 14.2487 16.752 14.525 15.8241 14.525H4.77425C3.84872 14.525 3.13803 14.2487 2.66346 13.7079C2.2243 13.2001 2 12.468 2 11.528V7.36423C2 6.42426 2.2243 5.69212 2.66346 5.18671C3.13803 4.64351 3.84635 4.36719 4.77425 4.36719H15.8241C16.7496 4.36719 17.4603 4.64351 17.9348 5.18671C18.374 5.69212 18.5983 6.42426 18.5983 7.36423ZM8.7621 11.0769C8.80696 10.9706 8.88723 10.8832 8.98876 10.8265L12.2093 9.32448C12.3179 9.28197 12.4359 9.27724 12.5469 9.31031C12.5469 9.31031 13.3166 9.59372 13.7959 9.37171C14.2728 9.14971 14.5514 8.37506 14.5514 8.37506C14.5845 8.28059 14.5396 8.23808 14.4475 8.28059L13.9824 8.49787C13.8762 8.54038 13.7581 8.53566 13.6566 8.48842L13.1915 8.24044C13.0994 8.18612 13.0498 8.07984 13.0687 7.97593L13.1773 7.46107C13.208 7.35243 13.2812 7.25796 13.3803 7.206L13.8455 6.98872C13.9376 6.94621 13.9352 6.88244 13.8384 6.84938C13.8384 6.84938 13.0687 6.56597 12.5894 6.78797C12.1101 7.00997 11.8338 7.78462 11.8338 7.78462C11.789 7.8909 11.7087 7.97829 11.6072 8.03261L8.38433 9.53467C8.27572 9.57719 8.15766 9.58191 8.04669 9.54884C8.04669 9.54884 7.27699 9.26544 6.79769 9.48744C6.31839 9.70944 6.04215 10.4841 6.04215 10.4841C6.00909 10.5786 6.05395 10.6211 6.14604 10.5786L6.61117 10.3613C6.71741 10.3188 6.83547 10.3235 6.93699 10.3707L7.39976 10.6187C7.49184 10.673 7.54143 10.7793 7.52254 10.8832L7.41393 11.3981C7.38323 11.5067 7.31004 11.6012 7.21088 11.6532L6.74575 11.8704C6.65366 11.9129 6.65603 11.9767 6.75283 12.0121C6.75283 12.0121 7.52254 12.2955 8.00183 12.0735C8.48113 11.8515 8.7621 11.0769 8.7621 11.0769Z" fill="#86888C"/>
</svg>
