<svg width="28" height="28" viewBox="0 0 28 28" fill="none" xmlns="http://www.w3.org/2000/svg">
<path d="M17.3462 24.3672H10.1715C9.80353 24.3672 9.50249 24.0661 9.50249 23.698C9.50249 23.33 9.80353 23.0289 10.1715 23.0289H17.3462C17.7141 23.0289 18.0151 23.33 18.0151 23.698C18.0151 24.0661 17.7141 24.3672 17.3462 24.3672ZM25.5143 11.613V17.5116C25.5143 18.8433 25.1965 19.8805 24.5744 20.5965C23.9021 21.366 22.8986 21.7575 21.5841 21.7575H5.93019C4.61901 21.7575 3.61222 21.366 2.9399 20.5998C2.31776 19.8805 2 18.8433 2 17.5116V11.613C2 10.2814 2.31776 9.24418 2.9399 8.52818C3.61222 7.75865 4.61567 7.36719 5.93019 7.36719H21.5841C22.8953 7.36719 23.9021 7.75865 24.5744 8.52818C25.1965 9.24418 25.5143 10.2814 25.5143 11.613ZM11.5796 16.8726C11.6432 16.722 11.7569 16.5982 11.9007 16.5179L16.4631 14.39C16.617 14.3298 16.7842 14.3231 16.9414 14.3699C16.9414 14.3699 18.0318 14.7714 18.7108 14.4569C19.3865 14.1424 19.7812 13.045 19.7812 13.045C19.828 12.9112 19.7645 12.851 19.634 12.9112L18.9751 13.219C18.8246 13.2792 18.6573 13.2725 18.5135 13.2056L17.8546 12.8543C17.7241 12.7773 17.6539 12.6268 17.6806 12.4796L17.8345 11.7502C17.878 11.5963 17.9817 11.4624 18.1222 11.3888L18.7811 11.081C18.9115 11.0208 18.9082 10.9305 18.7711 10.8836C18.7711 10.8836 17.6806 10.4821 17.0016 10.7966C16.3226 11.1111 15.9313 12.2086 15.9313 12.2086C15.8677 12.3591 15.754 12.4829 15.6102 12.5599L11.0445 14.6878C10.8906 14.748 10.7234 14.7547 10.5662 14.7079C10.5662 14.7079 9.47573 14.3064 8.79673 14.6209C8.11772 14.9354 7.72638 16.0328 7.72638 16.0328C7.67955 16.1666 7.7431 16.2269 7.87355 16.1666L8.53248 15.8588C8.683 15.7986 8.85024 15.8053 8.99407 15.8722L9.64966 16.2235C9.78011 16.3005 9.85035 16.451 9.82359 16.5982L9.66973 17.3276C9.62625 17.4815 9.52256 17.6154 9.38207 17.689L8.72314 17.9968C8.59269 18.057 8.59604 18.1473 8.73317 18.1975C8.73317 18.1975 9.82359 18.599 10.5026 18.2845C11.1816 17.97 11.5796 16.8726 11.5796 16.8726Z" fill="#86888C"/>
</svg>
