<svg width="24" height="24" viewBox="0 0 24 24" fill="none" xmlns="http://www.w3.org/2000/svg">
<path fill-rule="evenodd" clip-rule="evenodd" d="M6.8505 15.2989C4.98361 10.6972 6.48907 7.27932 7.44244 5.77101L11.5063 12.5498L6.8505 15.2989ZM5.33081 6.75283C4.46567 8.86162 3.92211 12.0831 5.60401 16.0332L3.46108 17.2996C3.37001 17.3537 3.31879 17.402 3.09966 17.3423C2.97729 17.3024 2.88622 17.2227 2.84353 17.1231C2.00969 15.151 1.79341 13.2784 2.19752 11.5595C2.60448 9.78937 3.66314 8.18146 5.33081 6.75283ZM17.992 8.71648L12.7414 11.8185L8.61777 4.94287C10.2911 4.71805 14.1672 4.76073 17.992 8.71648ZM21.0627 6.37718C21.1396 6.45971 21.1765 6.57355 21.1652 6.67315C21.1481 6.79552 21.0769 6.89228 20.966 6.96058L19.2414 7.9794C16.3357 4.88026 13.3732 3.8216 11.1193 3.55409C12.878 3.03045 14.5599 2.95077 16.1394 3.32927C17.9294 3.75899 19.5857 4.7835 21.0627 6.37718ZM7.33145 5.62587L6.95295 4.99409C6.75658 4.66397 6.87611 4.23994 7.2233 4.04927C7.5705 3.86144 8.01445 3.97528 8.21366 4.30824L8.5694 4.90303L7.33145 5.62587ZM12.7471 11.8441L18.8686 22.0579C19.0678 22.3908 18.9454 22.812 18.5982 23.0027C18.4844 23.0624 18.362 23.0938 18.2396 23.0938C17.9863 23.0938 17.7444 22.9685 17.6107 22.7466L11.5092 12.5698L12.7471 11.8441Z" fill="#86888C"/>
</svg>
