<svg width="20" height="20" viewBox="0 0 20 20" fill="none" xmlns="http://www.w3.org/2000/svg">
<path fill-rule="evenodd" clip-rule="evenodd" d="M10.454 12.6439C10.4631 12.6371 10.4699 12.6325 10.479 12.628C10.4836 12.6257 10.4904 12.6211 10.4972 12.6189C10.5132 12.612 10.5268 12.6075 10.5428 12.6029C10.5906 12.5915 10.6406 12.5893 10.6862 12.6007C10.7044 12.6052 10.7226 12.6098 10.7408 12.6166H10.7431C10.7613 12.6234 10.7772 12.6325 10.7931 12.6439C10.8318 12.6712 10.866 12.7076 10.891 12.7486C10.9001 12.7623 10.9138 12.7737 10.9183 12.7896L10.9206 12.7919L10.9252 12.7987V12.801L11.023 13.0286C11.039 13.0696 11.0481 13.1128 11.0481 13.1561C11.0481 13.2835 10.9752 13.4042 10.85 13.4565C10.8114 13.4702 10.7658 13.4816 10.7271 13.4816C10.6702 13.4816 10.6133 13.4656 10.5655 13.4383C10.5587 13.4361 10.5541 13.4315 10.5496 13.4269C10.5336 13.4178 10.52 13.4065 10.5063 13.3951C10.4722 13.3655 10.4449 13.3268 10.4267 13.2813L10.4221 13.2699L10.4198 13.2722L10.4153 13.279C10.3948 13.3313 10.3606 13.3746 10.3197 13.4065C10.3174 13.4087 10.3151 13.4087 10.3128 13.411L10.2924 13.4247C10.2878 13.4269 10.2833 13.4315 10.2787 13.4338C10.2286 13.4634 10.1717 13.4793 10.1171 13.4793C10.0898 13.4793 10.0647 13.4747 10.0397 13.4679C10.026 13.4634 10.0101 13.4588 9.99644 13.4543H9.99417H9.99189H9.98961C9.98279 13.452 9.97368 13.4474 9.96685 13.4429C9.94864 13.4315 9.93498 13.4178 9.91677 13.4065C9.90994 13.4019 9.90084 13.3974 9.89173 13.3905C9.88946 13.3882 9.88491 13.386 9.88263 13.3837C9.8667 13.3678 9.85759 13.3473 9.84621 13.3291L9.82572 13.2949C9.81206 13.2699 9.80296 13.2448 9.79613 13.2175C9.79158 13.1993 9.7893 13.1788 9.7893 13.1583C9.7893 13.1174 9.79613 13.0764 9.81206 13.0377C9.81206 13.0354 9.81434 13.0331 9.81434 13.0309L9.81889 13.0218L9.82345 13.0081L9.91222 12.7896C9.94636 12.7099 10.0124 12.653 10.0875 12.6211C10.0898 12.6211 10.0898 12.6189 10.092 12.6189H10.0943C10.0989 12.6189 10.1034 12.6189 10.1057 12.6166C10.1626 12.5961 10.2241 12.5915 10.2855 12.6052C10.3037 12.6098 10.322 12.6143 10.3379 12.6211C10.3675 12.6348 10.3902 12.6553 10.4153 12.6735C10.4312 12.6621 10.4426 12.653 10.454 12.6439ZM8.67848 12.4322C8.64888 12.4254 8.61929 12.4117 8.59198 12.3981C8.56238 12.3844 8.53507 12.3708 8.51003 12.348C8.46906 12.3047 8.44402 12.2547 8.43264 12.2023C8.42808 12.1818 8.42353 12.1591 8.42353 12.1386C8.42353 12.1317 8.41898 12.1249 8.41898 12.1181V12.0976C8.42353 12.0202 8.4554 11.9451 8.51003 11.8882L8.77636 11.6219L8.51003 11.3555C8.45995 11.3054 8.43036 11.2417 8.42125 11.1757C8.41898 11.1598 8.4167 11.1416 8.4167 11.1256C8.4167 11.1233 8.41898 11.1233 8.41898 11.1211C8.41898 11.1029 8.42125 11.0824 8.42581 11.0642C8.43719 11.0027 8.4645 10.9412 8.51231 10.8934C8.56011 10.8479 8.61702 10.8206 8.6762 10.8069C8.70807 10.8001 8.73993 10.7978 8.7718 10.8001C8.84464 10.8069 8.91748 10.8365 8.97212 10.8912L9.23844 11.1575L9.50477 10.8912C9.5594 10.8365 9.62996 10.8069 9.7028 10.8001C9.73239 10.7978 9.76426 10.7978 9.79385 10.8047C9.85531 10.816 9.9145 10.8456 9.96458 10.8912C10.0147 10.9435 10.0374 11.0073 10.0465 11.0755C10.0488 11.0847 10.0488 11.0915 10.0511 11.1006C10.0534 11.112 10.0534 11.1233 10.0534 11.137V11.1461C10.0488 11.2235 10.0215 11.2963 9.96458 11.3533L9.69825 11.6196L9.96458 11.8859C10.0147 11.936 10.0442 12.002 10.0534 12.0703C10.0556 12.0839 10.0556 12.0999 10.0556 12.1135C10.0556 12.1272 10.0534 12.1431 10.0488 12.1568C10.0465 12.1659 10.0442 12.1727 10.042 12.1818C10.0306 12.241 10.0078 12.3002 9.9623 12.348C9.93954 12.3685 9.91222 12.3821 9.88718 12.3958C9.86214 12.4094 9.83483 12.4231 9.80979 12.4299C9.80751 12.4299 9.80524 12.4322 9.80068 12.4322C9.77792 12.439 9.75516 12.4413 9.73239 12.4413C9.67321 12.4413 9.6163 12.4208 9.56395 12.3867C9.5594 12.3844 9.55484 12.3799 9.54802 12.3753C9.53208 12.3639 9.51615 12.3594 9.50249 12.3457L9.23844 12.0794L8.97439 12.3457C8.95846 12.3639 8.93797 12.3708 8.91748 12.3844H8.91521C8.86285 12.4186 8.80367 12.4413 8.74449 12.4413C8.71945 12.439 8.69896 12.4368 8.67848 12.4322C8.69896 12.4368 8.72172 12.4413 8.74221 12.4413C8.80367 12.4413 8.86058 12.4186 8.91293 12.3844L8.91521 12.3821L8.67848 12.4322ZM9.48883 9.35467C8.80367 9.56409 7.97283 10.1309 7.97283 11.6514C7.97283 12.4026 8.17997 12.9262 8.46906 13.2835C8.49182 13.3109 8.51458 13.3359 8.53735 13.3632C8.66709 13.5066 8.8105 13.6204 8.95846 13.7115V13.8868C8.95846 13.9505 8.96301 14.0097 8.97439 14.0643C8.99488 14.1667 9.0313 14.2555 9.08821 14.3261C9.10869 14.3511 9.12918 14.3739 9.15422 14.3944C9.27714 14.5059 9.45241 14.5628 9.67776 14.5628H11.1027C11.3303 14.5628 11.5033 14.5036 11.6285 14.3944C11.649 14.3784 11.6672 14.3579 11.6832 14.3397C11.7742 14.2305 11.8175 14.0757 11.8175 13.889V13.7138C12.341 13.3882 12.8008 12.785 12.8008 11.6674C12.8008 10.8274 12.5391 10.2766 12.1885 9.91692C12.127 9.85318 12.061 9.79627 11.995 9.74392C11.4373 9.30687 10.7522 9.24769 10.4881 9.24314C10.479 9.24314 10.4722 9.24086 10.4631 9.24086C10.3993 9.23631 10.3265 9.23631 10.2628 9.23631C10.1125 9.23858 9.8371 9.25452 9.52753 9.34557C9.51159 9.34557 9.50021 9.35012 9.48883 9.35467ZM8.22777 5.25509C7.95917 5.25509 7.74292 5.03656 7.74292 4.76796V3.87566C7.74292 3.60706 7.96145 3.38853 8.22777 3.38853C8.49637 3.38853 8.71262 3.60706 8.71262 3.87566V4.76796C8.71262 5.03656 8.49637 5.25509 8.22777 5.25509ZM9.61403 5.25509C9.34543 5.25509 9.12918 5.03656 9.12918 4.76796V3.87566C9.12918 3.60706 9.3477 3.38853 9.61403 3.38853C9.88263 3.38853 10.0989 3.60706 10.0989 3.87566V4.76796C10.0989 5.03656 9.88263 5.25509 9.61403 5.25509ZM11.0003 5.25509C10.7317 5.25509 10.5154 5.03656 10.5154 4.76796V3.87566C10.5154 3.60706 10.734 3.38853 11.0003 3.38853C11.2689 3.38853 11.4851 3.60706 11.4851 3.87566V4.76796C11.4874 5.03656 11.2689 5.25509 11.0003 5.25509ZM12.3888 5.25509C12.1202 5.25509 11.904 5.03656 11.904 4.76796V3.87566C11.904 3.60706 12.1225 3.38853 12.3888 3.38853C12.6574 3.38853 12.8737 3.60706 12.8737 3.87566V4.76796C12.8737 5.03656 12.6551 5.25509 12.3888 5.25509ZM6.01067 7.9798H14.656C14.5513 7.25366 14.203 6.76426 13.6203 6.53208C13.4518 6.62996 13.2561 6.6937 13.0444 6.6937H7.56537C7.37189 6.6937 7.19661 6.63451 7.035 6.55029C6.84151 6.63451 6.66624 6.73239 6.52511 6.86897C6.24968 7.1353 6.07668 7.50633 6.01067 7.9798ZM12.6028 17.0258C13.6635 17.0258 14.3191 16.6046 14.5718 15.7715H6.09489C6.18594 16.0697 6.32707 16.3178 6.52283 16.5136C6.87111 16.8505 7.39693 17.0258 8.07526 17.0258H12.6028ZM7.3901 3.15863V5.53735C7.3901 5.63523 7.46749 5.71945 7.56537 5.71945H13.0444C13.1491 5.71945 13.2265 5.63523 13.2265 5.53735V3.15863C13.2265 3.06075 13.1491 2.97653 13.0444 2.97653H7.56537C7.46749 2.97653 7.3901 3.06075 7.3901 3.15863ZM14.1825 5.70579C15.1408 6.17926 15.6644 7.14895 15.6644 8.46692L15.6576 14.9065C15.6576 16.8436 14.5126 18 12.6028 18H8.07526C7.13515 18 6.38626 17.7337 5.84905 17.2147C5.28681 16.6684 5 15.8967 5 14.9088V8.46692C5 7.48584 5.28454 6.71418 5.85588 6.1656C6.02433 5.99715 6.22464 5.86741 6.43861 5.74904C6.42723 5.6853 6.4204 5.60563 6.4204 5.53507V3.15635C6.4204 2.51899 6.93257 2 7.56537 2H13.0444C13.6795 2 14.1985 2.51899 14.1985 3.15635V5.53507C14.1962 5.59425 14.1894 5.65344 14.1825 5.70579ZM10.8546 11.3533C10.7931 11.2918 10.7613 11.2076 10.7613 11.1233C10.7613 11.1211 10.7636 11.1211 10.7636 11.1188C10.7658 11.0368 10.7954 10.9549 10.8546 10.8912C10.9844 10.7682 11.1915 10.7682 11.3144 10.8912L11.5807 11.1575L11.8471 10.8912C11.97 10.7682 12.1771 10.7682 12.3069 10.8912C12.3501 10.939 12.3729 10.9959 12.3865 11.0551C12.3956 11.0938 12.3979 11.1325 12.3911 11.1711C12.3797 11.2372 12.357 11.3032 12.3069 11.351L12.0405 11.6173L12.3069 11.8836C12.3615 11.9383 12.3888 12.0111 12.3934 12.0839C12.3979 12.1226 12.3934 12.1591 12.382 12.1978C12.3683 12.2501 12.3456 12.3025 12.3046 12.3457C12.2818 12.3662 12.2568 12.3776 12.2295 12.3912C12.1794 12.4186 12.127 12.439 12.0724 12.439C12.0064 12.439 11.9449 12.414 11.888 12.373C11.8744 12.3639 11.8562 12.3571 11.8425 12.3457L11.5762 12.0794L11.3099 12.3457C11.2916 12.3616 11.2734 12.3708 11.2552 12.3799C11.2029 12.414 11.1437 12.4368 11.0822 12.4368C11.0299 12.4368 10.9798 12.4208 10.932 12.3935C10.9024 12.3799 10.8751 12.3662 10.85 12.3434C10.7954 12.2843 10.7681 12.2091 10.7613 12.1317C10.7613 12.1249 10.7567 12.1181 10.7567 12.1113C10.7567 12.027 10.7886 11.9428 10.85 11.8813L11.1164 11.615L10.8546 11.3533Z" fill="#86888C"/>
</svg>
