<svg width="40" height="40" viewBox="0 0 40 40" fill="none" xmlns="http://www.w3.org/2000/svg">
<path fill-rule="evenodd" clip-rule="evenodd" d="M31.4468 18.8909C31.1957 19.1266 30.8372 19.2444 30.3761 19.2444C29.9151 19.2444 29.5565 19.1266 29.3055 18.8909C29.0442 18.645 28.9161 18.2864 28.9161 17.81C28.9161 17.3336 29.0493 16.9699 29.3055 16.724C29.5565 16.4884 29.9151 16.3654 30.3761 16.3654C30.8372 16.3654 31.1957 16.4884 31.4468 16.724C31.708 16.9699 31.8412 17.3336 31.8412 17.81C31.8361 18.2864 31.7029 18.6502 31.4468 18.8909ZM28.4858 16.0222C28.2399 16.2578 27.8762 16.3757 27.4152 16.3757C26.9592 16.3757 26.5955 16.2578 26.3445 16.0222C26.0884 15.7763 25.9603 15.4075 25.9603 14.9413C25.9603 14.47 26.0935 14.1063 26.3445 13.8604C26.5955 13.6196 26.9541 13.5018 27.4152 13.5018C27.8762 13.5018 28.2348 13.6196 28.4858 13.8604C28.7471 14.1063 28.8751 14.47 28.8751 14.9413C28.8751 15.4126 28.7471 15.7763 28.4858 16.0222ZM28.4858 21.7648C28.2399 22.0055 27.8762 22.1234 27.4152 22.1234C26.9592 22.1234 26.5955 22.0055 26.3445 21.7648C26.0884 21.5189 25.9603 21.1552 25.9603 20.6839C25.9603 20.2126 26.0935 19.8489 26.3445 19.603C26.5955 19.3622 26.9541 19.2444 27.4152 19.2444C27.8762 19.2444 28.2348 19.3673 28.4858 19.603C28.7471 19.8489 28.8751 20.2126 28.8751 20.6839C28.8751 21.1552 28.7471 21.5189 28.4858 21.7648ZM25.5249 18.8909C25.2739 19.1266 24.9153 19.2444 24.4542 19.2444C23.9932 19.2444 23.6346 19.1266 23.3836 18.8909C23.1274 18.645 22.9942 18.2864 22.9942 17.81C22.9942 17.3336 23.1274 16.9699 23.3836 16.724C23.6346 16.4884 23.9932 16.3654 24.4542 16.3654C24.9153 16.3654 25.2739 16.4884 25.5249 16.724C25.781 16.9699 25.9142 17.3336 25.9142 17.81C25.9193 18.2864 25.7861 18.6502 25.5249 18.8909ZM16.5447 19.2342C16.2015 19.5569 15.6995 19.7208 15.0489 19.7208H14.844L14.8491 19.7618C14.8747 19.8745 14.885 19.9923 14.885 20.0845C14.885 20.7505 14.7057 21.2576 14.3573 21.5855C14.0192 21.9082 13.5121 22.0721 12.8615 22.0721C12.2058 22.0721 11.7037 21.9082 11.3656 21.5855C11.0224 21.2679 10.8431 20.7556 10.8431 20.0845C10.8431 20.0231 10.8636 19.8642 10.8739 19.7977C10.797 19.8079 10.7407 19.8079 10.5665 19.8079C9.91079 19.8079 9.40876 19.644 9.06554 19.3212C8.72232 18.9985 8.54302 18.4914 8.54302 17.8203C8.54302 17.1492 8.72232 16.6472 9.07066 16.3091C9.40364 15.9915 9.91079 15.8275 10.5614 15.8275C10.6177 15.8275 10.7765 15.8429 10.8278 15.848H10.8636C10.8534 15.7558 10.8431 15.6636 10.8431 15.556C10.8431 14.885 11.0224 14.3778 11.3759 14.0499C11.7089 13.7323 12.2109 13.5684 12.8666 13.5684C13.5172 13.5684 14.0192 13.7323 14.3624 14.0551C14.7159 14.388 14.8901 14.8952 14.8901 15.5612C14.8901 15.597 14.885 15.6892 14.8798 15.7558C14.9106 15.7507 14.972 15.7456 15.054 15.7456C15.7046 15.7456 16.2066 15.9095 16.5499 16.2322C16.9033 16.5755 17.0775 17.0826 17.0775 17.7434C17.0724 18.394 16.8931 18.9012 16.5447 19.2342ZM34.1106 12.2365C34.003 11.9752 33.9108 11.7498 33.834 11.5757C33.7622 11.4066 33.7315 11.3605 33.711 11.3195L33.6034 11.1146C33.3268 10.6228 33.0092 10.1669 32.6045 9.78271C31.3597 8.59936 29.5974 8 27.3639 8C26.447 8 25.6273 8.12807 24.8743 8.32273C24.4286 8.44056 23.4399 8.87599 23.4194 8.88623C23.4194 8.88623 22.6613 9.31142 22.4205 9.47535C21.688 9.96713 20.8427 10.213 19.9974 10.213C19.1471 10.213 18.3018 9.96713 17.5744 9.47535C17.3285 9.31142 16.5755 8.88623 16.5755 8.88623C16.5601 8.87599 15.5714 8.44056 15.1257 8.32273C14.3727 8.12295 13.5531 8 12.6361 8C10.4026 8 8.64035 8.59936 7.40065 9.78271C6.99595 10.1669 6.67835 10.6228 6.3966 11.1146L6.29414 11.3195C6.27365 11.3605 6.24291 11.4117 6.1712 11.5757C6.09435 11.7498 5.99702 11.9752 5.88945 12.2365C4.8649 14.6954 1.92957 20.7044 2.00129 25.9501C2.01154 26.7082 2.29841 28.2143 2.52381 28.9417C2.96949 30.3915 4.0094 31.3238 5.15177 31.6978C5.61794 31.8514 6.24804 31.959 6.70396 31.9949C6.75006 31.9949 6.79617 32 6.8474 32C7.48774 32 8.584 31.7387 9.15262 31.4826C9.50097 31.3238 9.98763 31.0677 10.5614 30.5759C10.9046 30.2788 11.0532 30.0841 11.6218 29.3823C12.0214 28.8905 12.3748 28.3526 12.8359 27.9121C13.8963 26.8978 15.2487 26.1755 16.8521 25.7298C17.8766 25.448 18.9422 25.2995 20.0077 25.2995C21.0732 25.2995 22.1336 25.4429 23.1582 25.7298C24.7667 26.1806 26.114 26.8978 27.1744 27.9121C27.6406 28.3526 27.994 28.8905 28.3936 29.3823C28.9622 30.079 29.1108 30.2788 29.454 30.5759C30.0278 31.0677 30.54 31.3238 30.8884 31.4826C31.5031 31.7541 32.7018 31.9949 33.3114 31.9949C33.7674 31.9949 34.3974 31.8514 34.8636 31.6978C36.0009 31.3238 37.0459 30.3915 37.4916 28.9417C37.7119 28.2194 37.9987 26.7082 38.009 25.9501C38.0704 20.7095 35.1351 14.7005 34.1106 12.2365Z" fill="#86888C"/>
</svg>
