<svg width="28" height="28" viewBox="0 0 28 28" fill="none" xmlns="http://www.w3.org/2000/svg">
<path fill-rule="evenodd" clip-rule="evenodd" d="M22.0887 24.3155C24.1458 24.1516 24.4775 22.5043 24.5259 21.5205H22.0887V24.3155ZM1.64768 21.5429C1.68495 22.0161 1.83029 22.8807 2.4042 23.4957C2.79551 23.9093 3.35824 24.1665 4.08867 24.2671V21.5429H1.64768ZM2.76942 4.14286C2.50482 4.31056 1.75203 4.82484 1.65513 6.54658H4.08867V3.70311C3.70855 3.74783 3.2129 3.8559 2.76942 4.14286ZM24.5371 6.52795C24.5148 6.08075 24.3992 5.15652 23.7992 4.50807C23.4117 4.08696 22.8377 3.82609 22.0924 3.72174V6.52795H24.5371ZM22.0887 19.8584H24.5371V17.082H22.0887V19.8584ZM22.0887 10.9702H24.5371V8.19379H22.0887V10.9702ZM22.0887 15.4124H24.5371V12.636H22.0887V15.4124ZM1.6365 19.877H4.08495V17.1006H1.6365V19.877ZM1.6365 10.9814H4.08867V8.21242H1.6365V10.9814ZM1.6365 12.6472V15.4311H4.08495V12.6472H1.6365ZM21.3322 2.00373C26.5533 2.00373 26.1731 6.92298 26.1731 6.92298C26.1731 6.92298 26.1769 15.513 26.1769 21.0509C26.1769 25.5901 22.9272 26 21.7533 26C21.4961 26 21.3359 25.9776 21.3359 25.9776H4.81538C-0.323749 25.9776 0.00420119 21.077 0.00420119 21.077C0.00420119 21.077 0.000474485 12.2186 0.000474485 6.89317C0.000474485 2.32422 3.53339 2 4.53588 2C4.69985 2 4.79675 2.00745 4.79675 2.00745C4.79675 2.00745 16.111 2.00373 21.3322 2.00373ZM10.0924 17.436V10.5677L15.9322 14.0037L10.0924 17.436ZM17.9818 13.2807L9.68246 8.40621C9.42905 8.25714 9.116 8.25714 8.86259 8.40621C8.60917 8.55528 8.45265 8.83106 8.45265 9.12919V18.882C8.45265 19.1801 8.60917 19.4559 8.86259 19.6012C8.98929 19.6758 9.13091 19.713 9.27252 19.713C9.41414 19.713 9.55575 19.6758 9.68246 19.6012L17.9781 14.7267C18.2315 14.5776 18.3881 14.3019 18.3881 14.0037C18.3881 13.7056 18.2353 13.4298 17.9818 13.2807Z" fill="#86888C"/>
</svg>
