<svg width="20" height="20" viewBox="0 0 20 20" fill="none" xmlns="http://www.w3.org/2000/svg">
<path fill-rule="evenodd" clip-rule="evenodd" d="M15.7258 16.877C17.0972 16.7677 17.3183 15.6696 17.3506 15.0137H15.7258V16.877ZM2.09845 15.0286C2.1233 15.3441 2.22019 15.9205 2.6028 16.3304C2.86367 16.6062 3.23883 16.7776 3.72578 16.8447V15.0286H2.09845ZM2.84628 3.42857C2.66988 3.54037 2.16802 3.88323 2.10342 5.03106H3.72578V3.1354C3.47237 3.16522 3.14193 3.23727 2.84628 3.42857ZM17.3581 5.01863C17.3432 4.7205 17.2662 4.10435 16.8662 3.67205C16.6078 3.3913 16.2252 3.21739 15.7283 3.14783V5.01863H17.3581ZM15.7258 13.9056H17.3581V12.0547H15.7258V13.9056ZM15.7258 7.98012H17.3581V6.12919H15.7258V7.98012ZM15.7258 10.9416H17.3581V9.09068H15.7258V10.9416ZM2.091 13.918H3.7233V12.0671H2.091V13.918ZM2.091 7.98758H3.72578V6.14161H2.091V7.98758ZM2.091 9.09814V10.954H3.7233V9.09814H2.091ZM15.2214 2.00248C18.7022 2.00248 18.4488 5.28199 18.4488 5.28199C18.4488 5.28199 18.4512 11.0087 18.4512 14.7006C18.4512 17.7267 16.2848 18 15.5022 18C15.3308 18 15.2239 17.9851 15.2239 17.9851H4.21025C0.784167 17.9851 1.0028 14.718 1.0028 14.718C1.0028 14.718 1.00032 8.81242 1.00032 5.26211C1.00032 2.21615 3.3556 2 4.02392 2C4.13324 2 4.19783 2.00497 4.19783 2.00497C4.19783 2.00497 11.7407 2.00248 15.2214 2.00248ZM7.72827 12.2907V7.7118L11.6214 10.0025L7.72827 12.2907ZM12.9879 9.5205L7.45498 6.27081C7.28603 6.17143 7.07733 6.17143 6.90839 6.27081C6.73945 6.37019 6.6351 6.55404 6.6351 6.7528V13.2547C6.6351 13.4534 6.73945 13.6373 6.90839 13.7342C6.99286 13.7839 7.08727 13.8087 7.18168 13.8087C7.27609 13.8087 7.3705 13.7839 7.45498 13.7342L12.9854 10.4845C13.1544 10.3851 13.2587 10.2012 13.2587 10.0025C13.2587 9.80373 13.1568 9.61988 12.9879 9.5205Z" fill="#86888C"/>
</svg>
