<svg width="29" height="28" viewBox="0 0 29 28" fill="none" xmlns="http://www.w3.org/2000/svg">
<path d="M20.0563 18.8686C22.0691 17.8968 24.0648 16.4253 26.0264 14.4611C26.1563 14.3311 26.228 14.1566 26.228 13.9752C26.228 13.7938 26.1563 13.6193 26.0264 13.4927C22.2058 9.66008 18.2485 7.71983 14.2639 7.71983C12.7569 7.71983 11.2532 7.99701 9.75643 8.55137L3.41043 2.20019C3.14388 1.93327 2.71329 1.93327 2.44674 2.20019C2.18018 2.4671 2.18018 2.90169 2.44674 3.1686L8.40317 9.1331C6.38693 10.1049 4.39121 11.5764 2.42965 13.5406C2.30321 13.6706 2.22803 13.8452 2.22803 14.0265C2.22803 14.2079 2.29979 14.3824 2.42965 14.509C6.25366 18.3382 10.2109 20.2785 14.1956 20.2785C15.7026 20.2785 17.2062 20.0013 18.703 19.4469L25.0456 25.7981C25.1789 25.9316 25.3532 26 25.5275 26C25.7018 26 25.876 25.9316 26.0093 25.7981C26.2759 25.5312 26.2759 25.0966 26.0093 24.8297L20.0563 18.8686ZM15.8256 14.6322L13.5839 12.3874C13.7786 12.3121 13.9769 12.3053 14.199 12.3053C15.231 12.3053 15.8974 12.9726 15.8974 14.0094C15.8974 14.2182 15.8906 14.4269 15.8256 14.6322V14.6322ZM17.9 16.7093L17.1413 15.9497C17.3737 15.4501 17.4899 14.8409 17.4899 14.1223C17.4899 12.9554 17.1823 12.0692 16.574 11.4908C15.9965 10.9399 15.149 10.6627 14.0555 10.6627C13.3378 10.6627 12.7227 10.7825 12.2238 11.022L11.4651 10.2624C12.1622 9.84487 13.0302 9.63271 14.0555 9.63271C16.8918 9.63271 18.5185 11.2684 18.5185 14.1223C18.5151 15.1455 18.3066 16.0113 17.9 16.7093V16.7093Z" fill="#86888C"/>
</svg>
