<svg width="21" height="20" viewBox="0 0 21 20" fill="none" xmlns="http://www.w3.org/2000/svg">
<path d="M18.1048 9.69956L18.1002 9.69518C15.5503 7.24342 12.9069 6 10.2497 6C9.20192 6 8.14043 6.19737 7.09948 6.58553L6.65205 6.76096L6.64521 6.76316C5.20021 7.37719 3.75749 8.37281 2.3513 9.72368C2.27368 9.79825 2.22803 9.9057 2.22803 10.0132C2.22803 10.1184 2.2714 10.2237 2.34901 10.3004L2.35358 10.3048C4.90344 12.7566 7.5469 14 10.2041 14C11.2541 14 12.3133 13.8026 13.3543 13.4145L13.8017 13.239L13.8086 13.2368C15.2536 12.6206 16.6986 11.625 18.1025 10.2763C18.1824 10.1996 18.228 10.0943 18.228 9.98465C18.2257 9.88158 18.1824 9.77632 18.1048 9.69956ZM12.4115 12.1886C11.8956 12.6842 11.1446 12.9364 10.1789 12.9364C9.21333 12.9364 8.4623 12.6842 7.94639 12.1886C7.43048 11.693 7.16796 10.9715 7.16796 10.0439C7.16796 9.11623 7.43048 8.39474 7.94639 7.89912C8.4623 7.40132 9.21333 7.15132 10.1789 7.15132C11.124 7.15132 11.8659 7.39474 12.3818 7.87281C12.9183 8.37061 13.1899 9.10088 13.1899 10.0461C13.1922 10.9715 12.9297 11.693 12.4115 12.1886Z" fill="#86888C"/>
<path d="M10.1792 7.8772C9.43731 7.8772 8.87346 8.05044 8.50137 8.39474C8.11786 8.75 7.92383 9.30483 7.92383 10.0439C7.92383 10.7829 8.11786 11.3377 8.50137 11.693C8.87118 12.0351 9.43503 12.2083 10.1792 12.2083C10.9211 12.2083 11.4872 12.0351 11.8571 11.693C12.2406 11.3377 12.4346 10.7851 12.4346 10.0461C12.4346 9.30702 12.2406 8.7522 11.8571 8.39693C11.4872 8.05264 10.9211 7.8772 10.1792 7.8772ZM10.1792 11.1579C9.42133 11.1579 9.01956 10.7719 9.01956 10.0439C9.01956 9.31579 9.42133 8.92983 10.1792 8.92983C10.549 8.92983 10.8367 9.02193 11.033 9.20395C11.2361 9.39255 11.3389 9.67544 11.3389 10.0439C11.3389 10.7719 10.9394 11.1579 10.1792 11.1579Z" fill="#86888C"/>
</svg>
