<svg width="28" height="28" viewBox="0 0 28 28" fill="none" xmlns="http://www.w3.org/2000/svg">
<path d="M2.68299 10.3243C2.50839 10.3243 2.33379 10.2592 2.20027 10.1257C1.93324 9.85867 1.93324 9.42389 2.20027 9.15685L2.22081 9.13289C3.76138 7.60259 5.54844 6.40095 7.53406 5.55877C9.60185 4.68236 11.8032 4.2373 14.0695 4.2373C16.3187 4.2373 18.5063 4.67551 20.5673 5.54165C22.5358 6.37014 24.3091 7.55124 25.8292 9.05073C26.0996 9.31776 26.1031 9.74912 25.836 10.0196C25.569 10.29 25.1376 10.2935 24.8672 10.0264C23.4704 8.65018 21.8442 7.56493 20.0366 6.80492C18.1434 6.01067 16.1339 5.6067 14.0695 5.6067C11.9846 5.6067 9.96816 6.01409 8.06813 6.81861C6.24341 7.59232 4.60014 8.69468 3.18624 10.1017L3.1657 10.1223C3.0356 10.2558 2.85758 10.3243 2.68299 10.3243Z" fill="#86888C"/>
<path d="M5.7025 14.0627C5.52791 14.0627 5.35331 13.9942 5.21979 13.8607C4.95276 13.5937 4.95276 13.1589 5.21979 12.8919L5.23691 12.8748C6.37351 11.7416 7.69497 10.8515 9.16365 10.225C10.7145 9.56425 12.3646 9.22875 14.0661 9.22875C15.747 9.22875 17.3766 9.5574 18.9172 10.2044C20.3687 10.8207 21.6799 11.6902 22.8097 12.7994C23.0801 13.0631 23.0835 13.4978 22.8199 13.7683C22.5563 14.0387 22.1215 14.0422 21.8511 13.7786C20.8446 12.7926 19.6806 12.0155 18.3865 11.4711C17.0171 10.8926 15.5621 10.6016 14.0661 10.6016C12.5495 10.6016 11.0808 10.8994 9.70113 11.4882C8.39336 12.0463 7.21568 12.8405 6.20233 13.847L6.18864 13.8607C6.05512 13.9977 5.88052 14.0627 5.7025 14.0627ZM8.72544 17.8046C8.55084 17.8046 8.37625 17.7361 8.24273 17.6026C7.9757 17.3356 7.9757 16.9008 8.24273 16.6337C8.9822 15.8943 9.83807 15.3089 10.7932 14.898C11.8271 14.4496 12.9295 14.2236 14.0627 14.2236C15.1719 14.2236 16.2503 14.4427 17.267 14.8707C18.2051 15.2644 19.0541 15.8292 19.7901 16.5413C20.0606 16.8049 20.0674 17.2397 19.8038 17.5102C19.5402 17.7806 19.1054 17.7875 18.835 17.5239C18.2222 16.9282 17.5135 16.4592 16.733 16.1305C15.8874 15.771 14.987 15.5896 14.0627 15.5896C13.1143 15.5896 12.2003 15.7779 11.3376 16.151C10.5433 16.4934 9.8278 16.9829 9.21158 17.5992C9.07464 17.7395 8.90004 17.8046 8.72544 17.8046Z" fill="#86888C"/>
<path d="M14.0182 24.2373C13.1999 24.2373 12.5495 24.0114 12.0839 23.5629C11.6012 23.0973 11.3547 22.4263 11.3547 21.5738C11.3547 20.7214 11.6012 20.0504 12.0839 19.5848C12.5495 19.1363 13.1999 18.9104 14.0182 18.9104C14.8364 18.9104 15.4868 19.1363 15.9524 19.5848C16.4351 20.0504 16.6816 20.7214 16.6816 21.5738C16.6816 22.4263 16.4351 23.0973 15.9524 23.5629C15.4868 24.0114 14.8364 24.2373 14.0182 24.2373Z" fill="#86888C"/>
</svg>
