<svg width="40" height="40" viewBox="0 0 40 40" fill="none" xmlns="http://www.w3.org/2000/svg">
<path fill-rule="evenodd" clip-rule="evenodd" d="M27.316 12.3406H30.5248L23.2105 5.02689V8.27401C23.2105 9.47759 23.5933 10.4968 24.3137 11.2189C25.0491 11.9513 26.0869 12.3406 27.316 12.3406ZM33.0889 11.8284C33.3861 12.1255 33.5574 12.5403 33.5574 12.9654V35.475C33.5574 36.8425 32.4189 38 31.0689 38H9.48849C8.16365 38 7 36.822 7 35.475V4.52497C7 3.20359 8.1838 2 9.48849 2H13.5436V7.83355H11.8611C11.2717 7.83355 10.7932 8.33035 10.7932 8.93982C10.7932 9.5493 11.2717 10.0461 11.8611 10.0461H13.5436V12.8323H11.8611C11.2717 12.8323 10.7932 13.3291 10.7932 13.9385C10.7932 14.548 11.2717 15.0448 11.8611 15.0448H13.5436V17.831H11.8611C11.2717 17.831 10.7932 18.3278 10.7932 18.9373C10.7932 19.5467 11.2717 20.0435 11.8611 20.0435H13.5436V23.4392H11.8762C11.2869 23.4392 10.8083 23.936 10.8083 24.5455V28.6889C10.8083 29.2983 11.2869 29.7951 11.8762 29.7951H17.2713C17.8607 29.7951 18.3393 29.2983 18.3393 28.6889V24.5455C18.3393 23.936 17.8607 23.4392 17.2713 23.4392H15.6795V22.5378H17.3116C17.901 22.5378 18.3796 22.041 18.3796 21.4315C18.3796 20.822 17.901 20.3252 17.3116 20.3252H15.6795V17.5391H17.3116C17.901 17.5391 18.3796 17.0423 18.3796 16.4328C18.3796 15.8233 17.901 15.3265 17.3116 15.3265H15.6795V12.5403H17.3116C17.901 12.5403 18.3796 12.0435 18.3796 11.4341C18.3796 10.8246 17.901 10.3278 17.3116 10.3278H15.6795V7.54161H17.3116C17.901 7.54161 18.3796 7.04481 18.3796 6.43534C18.3796 5.82586 17.901 5.32907 17.3116 5.32907H15.6795V2H22.6261C23.0291 2 23.412 2.15877 23.7041 2.44558L33.0889 11.8284ZM12.9492 27.5826V26.0922H16.2034V27.5826H12.9492Z" fill="#86888C"/>
</svg>
